<svg width="800" height="600" xmlns="http://www.w3.org/2000/svg">
  <defs>
    <linearGradient id="bgGradient" x1="0%" y1="0%" x2="100%" y2="100%">
      <stop offset="0%" style="stop-color:#f8fafc;stop-opacity:1" />
      <stop offset="100%" style="stop-color:#e2e8f0;stop-opacity:1" />
    </linearGradient>
    <filter id="shadow" x="-20%" y="-20%" width="140%" height="140%">
      <feDropShadow dx="2" dy="2" stdDeviation="3" flood-color="#00000020" flood-opacity="0.1"/>
    </filter>
    <!-- Trail effect filter -->
    <filter id="trailGlow" x="-50%" y="-50%" width="200%" height="200%">
      <feGaussianBlur stdDeviation="3" result="coloredBlur"/>
      <feMerge> 
        <feMergeNode in="coloredBlur"/>
        <feMergeNode in="SourceGraphic"/>
      </feMerge>
    </filter>
  </defs>
  
  <!-- Background -->
  <rect width="800" height="600" fill="url(#bgGradient)" rx="12"/>
  
  <!-- Header -->
  <text x="400" y="40" text-anchor="middle" fill="#0f172a" font-size="24" font-weight="bold" font-family="Arial, sans-serif">
    GitHub Progress Report
    <animate attributeName="opacity" values="0;1" dur="0.8s" begin="0s" fill="freeze"/>
    <animateTransform attributeName="transform" type="translate" values="0,-20;0,0" dur="0.8s" begin="0s" fill="freeze"/>
  </text>
  
  <!-- User Info -->
  <text x="400" y="70" text-anchor="middle" fill="#475569" font-size="16" font-family="Arial, sans-serif">
    @maifeeulasad • BANGLADESH • 100 days analyzed
    <animate attributeName="opacity" values="0;1" dur="0.6s" begin="0.3s" fill="freeze"/>
  </text>
  
  <!-- Progress Cards -->
  <!-- Followers Card -->
  <g transform="translate(60, 100)">
    <rect width="206.66666666666666" height="120" fill="#ffffff" stroke="#e2e8f0" stroke-width="1" rx="8" filter="url(#shadow)">
      <animate attributeName="opacity" values="0;1" dur="0.6s" begin="0.2s" fill="freeze"/>
      <animateTransform attributeName="transform" type="scale" values="0.8;1" dur="0.6s" begin="0.2s" fill="freeze"/>
    </rect>
    <text x="103.33333333333333" y="25" text-anchor="middle" fill="#64748b" font-size="14" font-weight="bold" font-family="Arial, sans-serif">FOLLOWERS
      <animate attributeName="opacity" values="0;1" dur="0.5s" begin="0.4s" fill="freeze"/>
    </text>
    
    <text x="103.33333333333333" y="50" text-anchor="middle" fill="#22c55e" font-size="32" font-weight="bold" font-family="Arial, sans-serif">
      ↗
      <animate attributeName="opacity" values="0;1" dur="0.5s" begin="0.6s" fill="freeze"/>
      <animateTransform attributeName="transform" type="scale" values="0;1.2;1" dur="0.8s" begin="0.6s" fill="freeze"/>
    </text>
    
    <text x="103.33333333333333" y="75" text-anchor="middle" fill="#1e293b" font-size="18" font-weight="bold" font-family="Arial, sans-serif">
      +1
      <animate attributeName="opacity" values="0;1" dur="0.5s" begin="0.8s" fill="freeze"/>
    </text>
    
    <text x="103.33333333333333" y="95" text-anchor="middle" fill="#64748b" font-size="12" font-family="Arial, sans-serif">
      #467 → #466
      <animate attributeName="opacity" values="0;1" dur="0.5s" begin="1s" fill="freeze"/>
    </text>
  </g>
  
  <!-- Public Contributions Card -->
  <g transform="translate(296.66666666666663, 100)">
    <rect width="206.66666666666666" height="120" fill="#ffffff" stroke="#e2e8f0" stroke-width="1" rx="8" filter="url(#shadow)">
      <animate attributeName="opacity" values="0;1" dur="0.6s" begin="0.4s" fill="freeze"/>
      <animateTransform attributeName="transform" type="scale" values="0.8;1" dur="0.6s" begin="0.4s" fill="freeze"/>
    </rect>
    <text x="103.33333333333333" y="25" text-anchor="middle" fill="#64748b" font-size="14" font-weight="bold" font-family="Arial, sans-serif">PUBLIC
      <animate attributeName="opacity" values="0;1" dur="0.5s" begin="0.6s" fill="freeze"/>
    </text>
    
    <text x="103.33333333333333" y="50" text-anchor="middle" fill="#6b7280" font-size="32" font-weight="bold" font-family="Arial, sans-serif">
      →
      <animate attributeName="opacity" values="0;1" dur="0.5s" begin="0.8s" fill="freeze"/>
      <animateTransform attributeName="transform" type="scale" values="0;1.2;1" dur="0.8s" begin="0.8s" fill="freeze"/>
    </text>
    
    <text x="103.33333333333333" y="75" text-anchor="middle" fill="#1e293b" font-size="18" font-weight="bold" font-family="Arial, sans-serif">
      0
      <animate attributeName="opacity" values="0;1" dur="0.5s" begin="1s" fill="freeze"/>
    </text>
    
    <text x="103.33333333333333" y="95" text-anchor="middle" fill="#64748b" font-size="12" font-family="Arial, sans-serif">
      #7 → #7
      <animate attributeName="opacity" values="0;1" dur="0.5s" begin="1.2s" fill="freeze"/>
    </text>
  </g>
  
  <!-- Total Contributions Card -->
  <g transform="translate(533.3333333333333, 100)">
    <rect width="206.66666666666666" height="120" fill="#ffffff" stroke="#e2e8f0" stroke-width="1" rx="8" filter="url(#shadow)">
      <animate attributeName="opacity" values="0;1" dur="0.6s" begin="0.6s" fill="freeze"/>
      <animateTransform attributeName="transform" type="scale" values="0.8;1" dur="0.6s" begin="0.6s" fill="freeze"/>
    </rect>
    <text x="103.33333333333333" y="25" text-anchor="middle" fill="#64748b" font-size="14" font-weight="bold" font-family="Arial, sans-serif">TOTAL
      <animate attributeName="opacity" values="0;1" dur="0.5s" begin="0.8s" fill="freeze"/>
    </text>
    
    <text x="103.33333333333333" y="50" text-anchor="middle" fill="#22c55e" font-size="32" font-weight="bold" font-family="Arial, sans-serif">
      ↗
      <animate attributeName="opacity" values="0;1" dur="0.5s" begin="1s" fill="freeze"/>
      <animateTransform attributeName="transform" type="scale" values="0;1.2;1" dur="0.8s" begin="1s" fill="freeze"/>
    </text>
    
    <text x="103.33333333333333" y="75" text-anchor="middle" fill="#1e293b" font-size="18" font-weight="bold" font-family="Arial, sans-serif">
      +9
      <animate attributeName="opacity" values="0;1" dur="0.5s" begin="1.2s" fill="freeze"/>
    </text>
    
    <text x="103.33333333333333" y="95" text-anchor="middle" fill="#64748b" font-size="12" font-family="Arial, sans-serif">
      #24 → #15
      <animate attributeName="opacity" values="0;1" dur="0.5s" begin="1.4s" fill="freeze"/>
    </text>
  </g>
  
  <!-- Timeline Charts (if we have snapshots) -->
  
  <!-- 👥 Followers Count Chart -->
  <g transform="translate(60, 250)">
    <!-- Chart Background -->
    <rect x="0" y="0" width="213.33333333333334" height="200" fill="#ffffff" stroke="#e2e8f0" stroke-width="1" rx="8" filter="url(#shadow)">
      <animate attributeName="opacity" values="0;1" dur="0.5s" begin="1.8s" fill="freeze"/>
    </rect>
    
    <!-- Chart Title -->
    <text x="106.66666666666667" y="25" text-anchor="middle" fill="#1e293b" font-size="14" font-weight="bold" font-family="Arial, sans-serif">
      👥 Followers Count
      <animate attributeName="opacity" values="0;1" dur="0.5s" begin="2s" fill="freeze"/>
    </text>
    
    <!-- Y-axis labels -->
    <text x="10" y="45" fill="#64748b" font-size="10" font-family="Arial, sans-serif">150
      <animate attributeName="opacity" values="0;1" dur="0.5s" begin="2.2s" fill="freeze"/>
    </text>
    <text x="10" y="185" fill="#64748b" font-size="10" font-family="Arial, sans-serif">143
      <animate attributeName="opacity" values="0;1" dur="0.5s" begin="2.2s" fill="freeze"/>
    </text>
    
    <!-- Chart Line with draw animation that follows the circle -->
    <path d="M 30,160 L 30.030784371193732,160 L 30.067159384885976,160 L 31.548590053361966,160 L 31.570952623356014,160 L 31.59955090998302,160 L 33.09841649881495,160 L 33.11739242960317,160 L 33.14733462067693,160 L 34.64150550330819,160 L 34.66383223585032,160 L 34.69234092884754,160 L 34.731349995255435,160 L 36.19378681421725,160 L 36.223585655483355,160 L 36.25316947203798,160 L 37.738148048253414,160 L 37.76543826788558,160 L 37.7939469608828,160 L 39.28899586108594,160 L 39.30433429050493,160 L 39.34033301095208,160 L 40.835525260962875,160 L 40.86096985182149,160 L 40.881881005013035,160 L 42.384867900815024,160 L 42.40891483104901,160 L 42.43817611053642,160 L 43.93388800359995,160 L 43.95958345662196,160 L 43.987751693826,160 L 45.48068618436624,160 L 45.501095613231,160 L 45.53261465218896,160 L 47.031659428280456,160 L 47.05369946120729,160 L 47.08460926348272,160 L 48.57874430866205,160 L 48.604421842958104,160 L 48.635349563959494,160 L 50.12602629502918,160 L 50.15080789302739,160 L 50.16935377439265,160 L 51.67117595300744,160 L 51.70622498097888,160 L 51.72989561796778,160 L 53.22270467742632,160 L 53.24676952638626,160 L 54.796757240372855,160 L 54.823169442433134,160 L 56.3155126150168,160 L 56.33873528385678,160 L 56.366383878008065,160 L 57.86714885179141,160 L 57.89603383803373,160 L 57.92359283855524,160 L 59.415344693182334,160 L 59.4450360220927,160 L 59.4740106019648,160 L 60.96619250601485,160 L 60.99389485634402,160 L 61.01772676186653,160 L 62.50999825954636,160 L 62.53832776528401,57.14285714285715 L 62.567409857511855,57.14285714285715 L 64.08654152540089,57.14285714285715 L 64.11245200313436,57.14285714285715 L 65.60185650466113,57.14285714285715 L 65.62970220479795,57.14285714285715 L 65.64835559851895,57.14285714285715 L 67.1538869534068,57.14285714285715 L 67.18160722246192,57.14285714285715 L 67.2099188094736,57.14285714285715 L 68.69912620501484,57.14285714285715 L 68.72795743507929,57.14285714285715 L 68.76340067502178,57.14285714285715 L 70.25366527539445,57.14285714285715 L 70.28391208480949,57.14285714285715 L 70.30543247468356,57.14285714285715 L 71.80080391195392,57.14285714285715 L 71.82501211072153,57.14285714285715 L 71.85464968345403,57.14285714285715 L 73.35152629370475,57.14285714285715 L 73.40639343258438,57.14285714285715 L 74.89542164086603,57.14285714285715 L 74.92509505105045,57.14285714285715 L 74.95243902686049,57.14285714285715 L 76.44528392377094,57.14285714285715 L 76.47336256734519,57.14285714285715 L 76.50267760301048,57.14285714285715 L 77.99408900184439,57.14285714285715 L 78.0227231259233,57.14285714285715 L 78.05494099519358,57.14285714285715 L 79.54155017547109,57.14285714285715 L 79.57168947253037,57.14285714285715 L 79.60265303098367,57.14285714285715 L 81.09239798830359,57.14285714285715 L 81.12196388613226,57.14285714285715 L 81.15015004206226,57.14285714285715 L 82.6427082393574,57.14285714285715 L 82.6639777670681,57.14285714285715 L 82.69341823381507,57.14285714285715 L 84.1854388693315,57.14285714285715 L 84.2128007638675,57.14285714285715 L 84.244516908811,57.14285714285715 L 85.7343156223088,57.14285714285715 L 85.76151624831115,57.14285714285715 L 85.79145843938493,57.14285714285715 L 87.2826368947814,57.14285714285715 L 87.30840402270724,57.14285714285715 L 87.34017392382859,57.14285714285715 L 88.83203329081142,57.14285714285715 L 88.85780041873726,57.14285714285715 L 88.88168608043763,57.14285714285715 L 90.38551515635959,57.14285714285715 L 90.40746559565662,57.14285714285715 L 90.43941468403756,57.14285714285715 L 91.92898045409791,57.14285714285715 L 91.95424585769696,57.14285714285715 L 91.9826649570644,57.14285714285715 L 93.47642370899865,57.14285714285715 L 93.49867876663696,57.14285714285715 L 93.53233013398378,57.14285714285715 L 95.02300686505346,57.14285714285715 L 95.04913236749843,57.14285714285715 L 95.08118896823508,57.14285714285715 L 96.56946459002657,57.14285714285715 L 96.59383405732777,57.14285714285715 L 96.62850679205413,57.14285714285715 L 98.11353912444743,57.14285714285715 L 98.14502232595348,57.14285714285715 L 98.17734770757949,57.14285714285715 L 99.66716433980325,57.14285714285715 L 99.69230431232059,57.14285714285715 L 99.72179853524544,57.14285714285715 L 101.21742083467919,57.14285714285715 L 101.2445677045037,57.14285714285715 L 101.27755607899012,57.14285714285715 L 102.76298262335446,57.14285714285715 L 102.79469876829795,57.14285714285715 L 102.82974779626939,57.14285714285715 L 104.31422464815803,57.14285714285715 L 104.33834325329585,57.14285714285715 L 104.36989812970572,57.14285714285715 L 105.86345977565443,57.14285714285715 L 105.88587610182636,57.14285714285715 L 105.91750265314006,57.14285714285715 L 107.40823314038761,57.14285714285715 L 107.43296098220796,57.14285714285715 L 107.46392454066125,57.14285714285715 L 108.95698446228319,57.14285714285715 L 108.98506310585745,57.14285714285715 L 110.50763516913018,57.14285714285715 L 110.53343813450793,57.14285714285715 L 110.55789719543893,57.14285714285715 L 112.05651192210745,57.14285714285715 L 112.08623908846974,57.14285714285715 L 112.12003380562422,57.14285714285715 L 113.59485246422214,57.14285714285715 L 113.6311020468327,57.14285714285715 L 113.66201184910813,57.14285714285715 L 115.14937361587582,57.14285714285715 L 115.16877959608699,57.14285714285715 L 115.20556674047624,57.14285714285715 L 116.69805326286756,57.14285714285715 L 116.72557642593716,57.14285714285715 L 116.75609201624154,57.14285714285715 L 118.248524782455,57.14285714285715 L 118.27452485381825,57.14285714285715 L 118.30204801688785,57.14285714285715 L 119.79259931687584,57.14285714285715 L 119.82227272706025,57.14285714285715 L 119.85169527508127,57.14285714285715 L 121.339863384517,57.14285714285715 L 121.36706401051939,57.14285714285715 L 121.39774086935738,57.14285714285715 L 122.89311230662774,57.14285714285715 L 122.92369957183595,57.14285714285715 L 122.95668794632236,57.14285714285715 L 124.44383468837857,57.14285714285715 L 124.46696776358874,57.14285714285715 L 124.51808988874342,57.14285714285715 L 125.9927293600818,57.14285714285715 L 126.01625664726303,57.14285714285715 L 126.04582254509171,57.14285714285715 L 127.53572877094525,57.14285714285715 L 127.56335944637058,57.14285714285715 L 127.59256696968012,57.14285714285715 L 129.0832078632979,57.14285714285715 L 129.1098171713437,57.14285714285715 L 129.14052986763357,57.14285714285715 L 130.63242507206834,57.14285714285715 L 130.66039620328684,57.14285714285715 L 130.68598414395314,57.14285714285715 L 132.1784527476185,57.14285714285715 L 132.20611926049574,57.14285714285715 L 132.23518343399763,57.14285714285715 L 133.73352937977683,57.14285714285715 L 133.76268314690847,57.14285714285715 L 133.79316289976094,57.14285714285715 L 135.2758478790539,57.14285714285715 L 135.30516291471918,40 L 135.3355709926678,40 L 136.83029735580374,40 L 136.8511189153655,40 L 136.87944842110318,40 L 138.37268752998466,40 L 138.3926131532486,40 L 138.43069044590675,40 L 139.9230694559423,40 L 139.95186484855483,40 L 139.9762163971301,40 L 141.46519084923386,40 L 141.49782084920116,40 L 141.52957283159657,40 L 143.02051834355558,40 L 143.03551631718142,40 L 143.07391614690675,40 L 144.56835581042736,40 L 144.59833383895304,40 L 144.63331119202067,40 L 146.11646205818852,40 L 146.14292801642665,40 L 146.1787654683402,40 L 147.66179090342632,40 L 147.69180476940392,40 L 147.7250977622316,40 L 149.21342714020096,40 L 149.2352879858682,40 L 149.26632321922534,40 L 150.7572508124584,40 L 150.78215784153832,40 L 150.81428611717882,40 L 152.30833156872836,40 L 152.33771827929746,40 L 152.36335997614162,40 L 153.85534477420615,40 L 153.88817188015895,40 L 153.91108993065765,40 L 155.40552959417826,40 L 155.4344145804206,40 L 155.46767173579633,40 L 156.95420924117002,40 L 156.9823953971,40 L 157.01642305769192,40 L 158.50147330881117,40 L 158.52713292438128,40 L 158.55915368766603,40 L 160.05104889210077,40 L 160.07903794204523,40 L 160.11148875475294,40 L 161.59533845123312,40 L 161.63294985701637,40 L 161.65472110905384,40 L 163.1437493173355,40 L 163.17304643427482,40 L 163.2022002014065,40 L 164.68778801430443,40 L 164.72011339593047,40 L 164.74713483467326,40 L 165.8273473102512,40 L 166.24257794684746,40 L 166.27470622248794,40 L 166.30855469582028,40 L 167.79057668225283,40 L 167.81867324455308,40 L 167.8515720254097,40 L 169.3368552199664,40 L 169.35851895964814,40 L 169.39485813588846,40 L 170.88711171484235,40 L 170.91416899103706,40 L 170.94563427381715,40 L 172.4353792311371,40 L 172.4678658812967,40 L 172.50133806138396,40 L 173.9816756875766,40 L 174.00934220045383,40 L 174.04577097032396,40 L 175.53417202319713,40 L 175.5577709852822,40 L 175.58683515878408,40 L 177.08104187886724,40 L 177.1145498964064,40 L 177.1459255855567,40 L 178.62832386523436,40 L 178.6584810810196,40 L 178.6923474730779,40 L 180.1743157033326,40 L 180.20372033262765,40 L 180.2368699756477,40 L 181.72571899666977,40 L 181.75320632228747,40 L 181.78132080331363,40 L 183.27214088419097,40 L 183.29993282814993,40 L 183.33333333333334,40" stroke="#22c55e" stroke-width="2" fill="none" stroke-dasharray="14850" stroke-dashoffset="14850">
      <animate attributeName="stroke-dashoffset" values="14850;0" dur="3s" begin="2.6s" fill="freeze"/>
    </path>
    
    <!-- Glow effect for the line that also follows the circle -->
    <path d="M 30,160 L 30.030784371193732,160 L 30.067159384885976,160 L 31.548590053361966,160 L 31.570952623356014,160 L 31.59955090998302,160 L 33.09841649881495,160 L 33.11739242960317,160 L 33.14733462067693,160 L 34.64150550330819,160 L 34.66383223585032,160 L 34.69234092884754,160 L 34.731349995255435,160 L 36.19378681421725,160 L 36.223585655483355,160 L 36.25316947203798,160 L 37.738148048253414,160 L 37.76543826788558,160 L 37.7939469608828,160 L 39.28899586108594,160 L 39.30433429050493,160 L 39.34033301095208,160 L 40.835525260962875,160 L 40.86096985182149,160 L 40.881881005013035,160 L 42.384867900815024,160 L 42.40891483104901,160 L 42.43817611053642,160 L 43.93388800359995,160 L 43.95958345662196,160 L 43.987751693826,160 L 45.48068618436624,160 L 45.501095613231,160 L 45.53261465218896,160 L 47.031659428280456,160 L 47.05369946120729,160 L 47.08460926348272,160 L 48.57874430866205,160 L 48.604421842958104,160 L 48.635349563959494,160 L 50.12602629502918,160 L 50.15080789302739,160 L 50.16935377439265,160 L 51.67117595300744,160 L 51.70622498097888,160 L 51.72989561796778,160 L 53.22270467742632,160 L 53.24676952638626,160 L 54.796757240372855,160 L 54.823169442433134,160 L 56.3155126150168,160 L 56.33873528385678,160 L 56.366383878008065,160 L 57.86714885179141,160 L 57.89603383803373,160 L 57.92359283855524,160 L 59.415344693182334,160 L 59.4450360220927,160 L 59.4740106019648,160 L 60.96619250601485,160 L 60.99389485634402,160 L 61.01772676186653,160 L 62.50999825954636,160 L 62.53832776528401,57.14285714285715 L 62.567409857511855,57.14285714285715 L 64.08654152540089,57.14285714285715 L 64.11245200313436,57.14285714285715 L 65.60185650466113,57.14285714285715 L 65.62970220479795,57.14285714285715 L 65.64835559851895,57.14285714285715 L 67.1538869534068,57.14285714285715 L 67.18160722246192,57.14285714285715 L 67.2099188094736,57.14285714285715 L 68.69912620501484,57.14285714285715 L 68.72795743507929,57.14285714285715 L 68.76340067502178,57.14285714285715 L 70.25366527539445,57.14285714285715 L 70.28391208480949,57.14285714285715 L 70.30543247468356,57.14285714285715 L 71.80080391195392,57.14285714285715 L 71.82501211072153,57.14285714285715 L 71.85464968345403,57.14285714285715 L 73.35152629370475,57.14285714285715 L 73.40639343258438,57.14285714285715 L 74.89542164086603,57.14285714285715 L 74.92509505105045,57.14285714285715 L 74.95243902686049,57.14285714285715 L 76.44528392377094,57.14285714285715 L 76.47336256734519,57.14285714285715 L 76.50267760301048,57.14285714285715 L 77.99408900184439,57.14285714285715 L 78.0227231259233,57.14285714285715 L 78.05494099519358,57.14285714285715 L 79.54155017547109,57.14285714285715 L 79.57168947253037,57.14285714285715 L 79.60265303098367,57.14285714285715 L 81.09239798830359,57.14285714285715 L 81.12196388613226,57.14285714285715 L 81.15015004206226,57.14285714285715 L 82.6427082393574,57.14285714285715 L 82.6639777670681,57.14285714285715 L 82.69341823381507,57.14285714285715 L 84.1854388693315,57.14285714285715 L 84.2128007638675,57.14285714285715 L 84.244516908811,57.14285714285715 L 85.7343156223088,57.14285714285715 L 85.76151624831115,57.14285714285715 L 85.79145843938493,57.14285714285715 L 87.2826368947814,57.14285714285715 L 87.30840402270724,57.14285714285715 L 87.34017392382859,57.14285714285715 L 88.83203329081142,57.14285714285715 L 88.85780041873726,57.14285714285715 L 88.88168608043763,57.14285714285715 L 90.38551515635959,57.14285714285715 L 90.40746559565662,57.14285714285715 L 90.43941468403756,57.14285714285715 L 91.92898045409791,57.14285714285715 L 91.95424585769696,57.14285714285715 L 91.9826649570644,57.14285714285715 L 93.47642370899865,57.14285714285715 L 93.49867876663696,57.14285714285715 L 93.53233013398378,57.14285714285715 L 95.02300686505346,57.14285714285715 L 95.04913236749843,57.14285714285715 L 95.08118896823508,57.14285714285715 L 96.56946459002657,57.14285714285715 L 96.59383405732777,57.14285714285715 L 96.62850679205413,57.14285714285715 L 98.11353912444743,57.14285714285715 L 98.14502232595348,57.14285714285715 L 98.17734770757949,57.14285714285715 L 99.66716433980325,57.14285714285715 L 99.69230431232059,57.14285714285715 L 99.72179853524544,57.14285714285715 L 101.21742083467919,57.14285714285715 L 101.2445677045037,57.14285714285715 L 101.27755607899012,57.14285714285715 L 102.76298262335446,57.14285714285715 L 102.79469876829795,57.14285714285715 L 102.82974779626939,57.14285714285715 L 104.31422464815803,57.14285714285715 L 104.33834325329585,57.14285714285715 L 104.36989812970572,57.14285714285715 L 105.86345977565443,57.14285714285715 L 105.88587610182636,57.14285714285715 L 105.91750265314006,57.14285714285715 L 107.40823314038761,57.14285714285715 L 107.43296098220796,57.14285714285715 L 107.46392454066125,57.14285714285715 L 108.95698446228319,57.14285714285715 L 108.98506310585745,57.14285714285715 L 110.50763516913018,57.14285714285715 L 110.53343813450793,57.14285714285715 L 110.55789719543893,57.14285714285715 L 112.05651192210745,57.14285714285715 L 112.08623908846974,57.14285714285715 L 112.12003380562422,57.14285714285715 L 113.59485246422214,57.14285714285715 L 113.6311020468327,57.14285714285715 L 113.66201184910813,57.14285714285715 L 115.14937361587582,57.14285714285715 L 115.16877959608699,57.14285714285715 L 115.20556674047624,57.14285714285715 L 116.69805326286756,57.14285714285715 L 116.72557642593716,57.14285714285715 L 116.75609201624154,57.14285714285715 L 118.248524782455,57.14285714285715 L 118.27452485381825,57.14285714285715 L 118.30204801688785,57.14285714285715 L 119.79259931687584,57.14285714285715 L 119.82227272706025,57.14285714285715 L 119.85169527508127,57.14285714285715 L 121.339863384517,57.14285714285715 L 121.36706401051939,57.14285714285715 L 121.39774086935738,57.14285714285715 L 122.89311230662774,57.14285714285715 L 122.92369957183595,57.14285714285715 L 122.95668794632236,57.14285714285715 L 124.44383468837857,57.14285714285715 L 124.46696776358874,57.14285714285715 L 124.51808988874342,57.14285714285715 L 125.9927293600818,57.14285714285715 L 126.01625664726303,57.14285714285715 L 126.04582254509171,57.14285714285715 L 127.53572877094525,57.14285714285715 L 127.56335944637058,57.14285714285715 L 127.59256696968012,57.14285714285715 L 129.0832078632979,57.14285714285715 L 129.1098171713437,57.14285714285715 L 129.14052986763357,57.14285714285715 L 130.63242507206834,57.14285714285715 L 130.66039620328684,57.14285714285715 L 130.68598414395314,57.14285714285715 L 132.1784527476185,57.14285714285715 L 132.20611926049574,57.14285714285715 L 132.23518343399763,57.14285714285715 L 133.73352937977683,57.14285714285715 L 133.76268314690847,57.14285714285715 L 133.79316289976094,57.14285714285715 L 135.2758478790539,57.14285714285715 L 135.30516291471918,40 L 135.3355709926678,40 L 136.83029735580374,40 L 136.8511189153655,40 L 136.87944842110318,40 L 138.37268752998466,40 L 138.3926131532486,40 L 138.43069044590675,40 L 139.9230694559423,40 L 139.95186484855483,40 L 139.9762163971301,40 L 141.46519084923386,40 L 141.49782084920116,40 L 141.52957283159657,40 L 143.02051834355558,40 L 143.03551631718142,40 L 143.07391614690675,40 L 144.56835581042736,40 L 144.59833383895304,40 L 144.63331119202067,40 L 146.11646205818852,40 L 146.14292801642665,40 L 146.1787654683402,40 L 147.66179090342632,40 L 147.69180476940392,40 L 147.7250977622316,40 L 149.21342714020096,40 L 149.2352879858682,40 L 149.26632321922534,40 L 150.7572508124584,40 L 150.78215784153832,40 L 150.81428611717882,40 L 152.30833156872836,40 L 152.33771827929746,40 L 152.36335997614162,40 L 153.85534477420615,40 L 153.88817188015895,40 L 153.91108993065765,40 L 155.40552959417826,40 L 155.4344145804206,40 L 155.46767173579633,40 L 156.95420924117002,40 L 156.9823953971,40 L 157.01642305769192,40 L 158.50147330881117,40 L 158.52713292438128,40 L 158.55915368766603,40 L 160.05104889210077,40 L 160.07903794204523,40 L 160.11148875475294,40 L 161.59533845123312,40 L 161.63294985701637,40 L 161.65472110905384,40 L 163.1437493173355,40 L 163.17304643427482,40 L 163.2022002014065,40 L 164.68778801430443,40 L 164.72011339593047,40 L 164.74713483467326,40 L 165.8273473102512,40 L 166.24257794684746,40 L 166.27470622248794,40 L 166.30855469582028,40 L 167.79057668225283,40 L 167.81867324455308,40 L 167.8515720254097,40 L 169.3368552199664,40 L 169.35851895964814,40 L 169.39485813588846,40 L 170.88711171484235,40 L 170.91416899103706,40 L 170.94563427381715,40 L 172.4353792311371,40 L 172.4678658812967,40 L 172.50133806138396,40 L 173.9816756875766,40 L 174.00934220045383,40 L 174.04577097032396,40 L 175.53417202319713,40 L 175.5577709852822,40 L 175.58683515878408,40 L 177.08104187886724,40 L 177.1145498964064,40 L 177.1459255855567,40 L 178.62832386523436,40 L 178.6584810810196,40 L 178.6923474730779,40 L 180.1743157033326,40 L 180.20372033262765,40 L 180.2368699756477,40 L 181.72571899666977,40 L 181.75320632228747,40 L 181.78132080331363,40 L 183.27214088419097,40 L 183.29993282814993,40 L 183.33333333333334,40" stroke="#22c55e" stroke-width="4" fill="none" opacity="0.4" stroke-dasharray="14850" stroke-dashoffset="14850">
      <animate attributeName="stroke-dashoffset" values="14850;0" dur="3s" begin="2.6s" fill="freeze"/>
    </path>
    
    <!-- Animated circle that moves along the path and draws the line -->
    <circle r="5" fill="#22c55e" opacity="0" filter="url(#trailGlow)">
      <animate attributeName="opacity" values="0;1;1;1" dur="3.2s" begin="2.4s" fill="freeze"/>
      <animate attributeName="r" values="5;6;5" dur="1s" begin="2.4s" repeatCount="3"/>
      <animateMotion dur="3s" begin="2.4s" fill="freeze">
        <mpath href="#path_followersCount_60"/>
      </animateMotion>
    </circle>
    
    <!-- Small trail dots that fade out -->
    <circle r="2" fill="#22c55e" opacity="0">
      <animate attributeName="opacity" values="0;0.6;0" dur="0.8s" begin="2.8s" fill="freeze"/>
      <animateMotion dur="3s" begin="2.4s" fill="freeze">
        <mpath href="#path_followersCount_60"/>
      </animateMotion>
    </circle>
    
    <!-- Hidden path for motion animation -->
    <path id="path_followersCount_60" d="M 30,160 L 30.030784371193732,160 L 30.067159384885976,160 L 31.548590053361966,160 L 31.570952623356014,160 L 31.59955090998302,160 L 33.09841649881495,160 L 33.11739242960317,160 L 33.14733462067693,160 L 34.64150550330819,160 L 34.66383223585032,160 L 34.69234092884754,160 L 34.731349995255435,160 L 36.19378681421725,160 L 36.223585655483355,160 L 36.25316947203798,160 L 37.738148048253414,160 L 37.76543826788558,160 L 37.7939469608828,160 L 39.28899586108594,160 L 39.30433429050493,160 L 39.34033301095208,160 L 40.835525260962875,160 L 40.86096985182149,160 L 40.881881005013035,160 L 42.384867900815024,160 L 42.40891483104901,160 L 42.43817611053642,160 L 43.93388800359995,160 L 43.95958345662196,160 L 43.987751693826,160 L 45.48068618436624,160 L 45.501095613231,160 L 45.53261465218896,160 L 47.031659428280456,160 L 47.05369946120729,160 L 47.08460926348272,160 L 48.57874430866205,160 L 48.604421842958104,160 L 48.635349563959494,160 L 50.12602629502918,160 L 50.15080789302739,160 L 50.16935377439265,160 L 51.67117595300744,160 L 51.70622498097888,160 L 51.72989561796778,160 L 53.22270467742632,160 L 53.24676952638626,160 L 54.796757240372855,160 L 54.823169442433134,160 L 56.3155126150168,160 L 56.33873528385678,160 L 56.366383878008065,160 L 57.86714885179141,160 L 57.89603383803373,160 L 57.92359283855524,160 L 59.415344693182334,160 L 59.4450360220927,160 L 59.4740106019648,160 L 60.96619250601485,160 L 60.99389485634402,160 L 61.01772676186653,160 L 62.50999825954636,160 L 62.53832776528401,57.14285714285715 L 62.567409857511855,57.14285714285715 L 64.08654152540089,57.14285714285715 L 64.11245200313436,57.14285714285715 L 65.60185650466113,57.14285714285715 L 65.62970220479795,57.14285714285715 L 65.64835559851895,57.14285714285715 L 67.1538869534068,57.14285714285715 L 67.18160722246192,57.14285714285715 L 67.2099188094736,57.14285714285715 L 68.69912620501484,57.14285714285715 L 68.72795743507929,57.14285714285715 L 68.76340067502178,57.14285714285715 L 70.25366527539445,57.14285714285715 L 70.28391208480949,57.14285714285715 L 70.30543247468356,57.14285714285715 L 71.80080391195392,57.14285714285715 L 71.82501211072153,57.14285714285715 L 71.85464968345403,57.14285714285715 L 73.35152629370475,57.14285714285715 L 73.40639343258438,57.14285714285715 L 74.89542164086603,57.14285714285715 L 74.92509505105045,57.14285714285715 L 74.95243902686049,57.14285714285715 L 76.44528392377094,57.14285714285715 L 76.47336256734519,57.14285714285715 L 76.50267760301048,57.14285714285715 L 77.99408900184439,57.14285714285715 L 78.0227231259233,57.14285714285715 L 78.05494099519358,57.14285714285715 L 79.54155017547109,57.14285714285715 L 79.57168947253037,57.14285714285715 L 79.60265303098367,57.14285714285715 L 81.09239798830359,57.14285714285715 L 81.12196388613226,57.14285714285715 L 81.15015004206226,57.14285714285715 L 82.6427082393574,57.14285714285715 L 82.6639777670681,57.14285714285715 L 82.69341823381507,57.14285714285715 L 84.1854388693315,57.14285714285715 L 84.2128007638675,57.14285714285715 L 84.244516908811,57.14285714285715 L 85.7343156223088,57.14285714285715 L 85.76151624831115,57.14285714285715 L 85.79145843938493,57.14285714285715 L 87.2826368947814,57.14285714285715 L 87.30840402270724,57.14285714285715 L 87.34017392382859,57.14285714285715 L 88.83203329081142,57.14285714285715 L 88.85780041873726,57.14285714285715 L 88.88168608043763,57.14285714285715 L 90.38551515635959,57.14285714285715 L 90.40746559565662,57.14285714285715 L 90.43941468403756,57.14285714285715 L 91.92898045409791,57.14285714285715 L 91.95424585769696,57.14285714285715 L 91.9826649570644,57.14285714285715 L 93.47642370899865,57.14285714285715 L 93.49867876663696,57.14285714285715 L 93.53233013398378,57.14285714285715 L 95.02300686505346,57.14285714285715 L 95.04913236749843,57.14285714285715 L 95.08118896823508,57.14285714285715 L 96.56946459002657,57.14285714285715 L 96.59383405732777,57.14285714285715 L 96.62850679205413,57.14285714285715 L 98.11353912444743,57.14285714285715 L 98.14502232595348,57.14285714285715 L 98.17734770757949,57.14285714285715 L 99.66716433980325,57.14285714285715 L 99.69230431232059,57.14285714285715 L 99.72179853524544,57.14285714285715 L 101.21742083467919,57.14285714285715 L 101.2445677045037,57.14285714285715 L 101.27755607899012,57.14285714285715 L 102.76298262335446,57.14285714285715 L 102.79469876829795,57.14285714285715 L 102.82974779626939,57.14285714285715 L 104.31422464815803,57.14285714285715 L 104.33834325329585,57.14285714285715 L 104.36989812970572,57.14285714285715 L 105.86345977565443,57.14285714285715 L 105.88587610182636,57.14285714285715 L 105.91750265314006,57.14285714285715 L 107.40823314038761,57.14285714285715 L 107.43296098220796,57.14285714285715 L 107.46392454066125,57.14285714285715 L 108.95698446228319,57.14285714285715 L 108.98506310585745,57.14285714285715 L 110.50763516913018,57.14285714285715 L 110.53343813450793,57.14285714285715 L 110.55789719543893,57.14285714285715 L 112.05651192210745,57.14285714285715 L 112.08623908846974,57.14285714285715 L 112.12003380562422,57.14285714285715 L 113.59485246422214,57.14285714285715 L 113.6311020468327,57.14285714285715 L 113.66201184910813,57.14285714285715 L 115.14937361587582,57.14285714285715 L 115.16877959608699,57.14285714285715 L 115.20556674047624,57.14285714285715 L 116.69805326286756,57.14285714285715 L 116.72557642593716,57.14285714285715 L 116.75609201624154,57.14285714285715 L 118.248524782455,57.14285714285715 L 118.27452485381825,57.14285714285715 L 118.30204801688785,57.14285714285715 L 119.79259931687584,57.14285714285715 L 119.82227272706025,57.14285714285715 L 119.85169527508127,57.14285714285715 L 121.339863384517,57.14285714285715 L 121.36706401051939,57.14285714285715 L 121.39774086935738,57.14285714285715 L 122.89311230662774,57.14285714285715 L 122.92369957183595,57.14285714285715 L 122.95668794632236,57.14285714285715 L 124.44383468837857,57.14285714285715 L 124.46696776358874,57.14285714285715 L 124.51808988874342,57.14285714285715 L 125.9927293600818,57.14285714285715 L 126.01625664726303,57.14285714285715 L 126.04582254509171,57.14285714285715 L 127.53572877094525,57.14285714285715 L 127.56335944637058,57.14285714285715 L 127.59256696968012,57.14285714285715 L 129.0832078632979,57.14285714285715 L 129.1098171713437,57.14285714285715 L 129.14052986763357,57.14285714285715 L 130.63242507206834,57.14285714285715 L 130.66039620328684,57.14285714285715 L 130.68598414395314,57.14285714285715 L 132.1784527476185,57.14285714285715 L 132.20611926049574,57.14285714285715 L 132.23518343399763,57.14285714285715 L 133.73352937977683,57.14285714285715 L 133.76268314690847,57.14285714285715 L 133.79316289976094,57.14285714285715 L 135.2758478790539,57.14285714285715 L 135.30516291471918,40 L 135.3355709926678,40 L 136.83029735580374,40 L 136.8511189153655,40 L 136.87944842110318,40 L 138.37268752998466,40 L 138.3926131532486,40 L 138.43069044590675,40 L 139.9230694559423,40 L 139.95186484855483,40 L 139.9762163971301,40 L 141.46519084923386,40 L 141.49782084920116,40 L 141.52957283159657,40 L 143.02051834355558,40 L 143.03551631718142,40 L 143.07391614690675,40 L 144.56835581042736,40 L 144.59833383895304,40 L 144.63331119202067,40 L 146.11646205818852,40 L 146.14292801642665,40 L 146.1787654683402,40 L 147.66179090342632,40 L 147.69180476940392,40 L 147.7250977622316,40 L 149.21342714020096,40 L 149.2352879858682,40 L 149.26632321922534,40 L 150.7572508124584,40 L 150.78215784153832,40 L 150.81428611717882,40 L 152.30833156872836,40 L 152.33771827929746,40 L 152.36335997614162,40 L 153.85534477420615,40 L 153.88817188015895,40 L 153.91108993065765,40 L 155.40552959417826,40 L 155.4344145804206,40 L 155.46767173579633,40 L 156.95420924117002,40 L 156.9823953971,40 L 157.01642305769192,40 L 158.50147330881117,40 L 158.52713292438128,40 L 158.55915368766603,40 L 160.05104889210077,40 L 160.07903794204523,40 L 160.11148875475294,40 L 161.59533845123312,40 L 161.63294985701637,40 L 161.65472110905384,40 L 163.1437493173355,40 L 163.17304643427482,40 L 163.2022002014065,40 L 164.68778801430443,40 L 164.72011339593047,40 L 164.74713483467326,40 L 165.8273473102512,40 L 166.24257794684746,40 L 166.27470622248794,40 L 166.30855469582028,40 L 167.79057668225283,40 L 167.81867324455308,40 L 167.8515720254097,40 L 169.3368552199664,40 L 169.35851895964814,40 L 169.39485813588846,40 L 170.88711171484235,40 L 170.91416899103706,40 L 170.94563427381715,40 L 172.4353792311371,40 L 172.4678658812967,40 L 172.50133806138396,40 L 173.9816756875766,40 L 174.00934220045383,40 L 174.04577097032396,40 L 175.53417202319713,40 L 175.5577709852822,40 L 175.58683515878408,40 L 177.08104187886724,40 L 177.1145498964064,40 L 177.1459255855567,40 L 178.62832386523436,40 L 178.6584810810196,40 L 178.6923474730779,40 L 180.1743157033326,40 L 180.20372033262765,40 L 180.2368699756477,40 L 181.72571899666977,40 L 181.75320632228747,40 L 181.78132080331363,40 L 183.27214088419097,40 L 183.29993282814993,40 L 183.33333333333334,40" fill="none" stroke="none"/>
  </g>
  <!-- 🔓 Public Contributions Chart -->
  <g transform="translate(293.33333333333337, 250)">
    <!-- Chart Background -->
    <rect x="0" y="0" width="213.33333333333334" height="200" fill="#ffffff" stroke="#e2e8f0" stroke-width="1" rx="8" filter="url(#shadow)">
      <animate attributeName="opacity" values="0;1" dur="0.5s" begin="2.3s" fill="freeze"/>
    </rect>
    
    <!-- Chart Title -->
    <text x="106.66666666666667" y="25" text-anchor="middle" fill="#1e293b" font-size="14" font-weight="bold" font-family="Arial, sans-serif">
      🔓 Public Contributions
      <animate attributeName="opacity" values="0;1" dur="0.5s" begin="2.5s" fill="freeze"/>
    </text>
    
    <!-- Y-axis labels -->
    <text x="10" y="45" fill="#64748b" font-size="10" font-family="Arial, sans-serif">3,434
      <animate attributeName="opacity" values="0;1" dur="0.5s" begin="2.6999999999999997s" fill="freeze"/>
    </text>
    <text x="10" y="185" fill="#64748b" font-size="10" font-family="Arial, sans-serif">2,669
      <animate attributeName="opacity" values="0;1" dur="0.5s" begin="2.6999999999999997s" fill="freeze"/>
    </text>
    
    <!-- Chart Line with draw animation that follows the circle -->
    <path d="M 30,160 L 30.030784371193732,160 L 30.067159384885976,160 L 31.548590053361966,160 L 31.570952623356014,160 L 31.59955090998302,160 L 33.09841649881495,160 L 33.11739242960317,160 L 33.14733462067693,160 L 34.64150550330819,160 L 34.66383223585032,160 L 34.69234092884754,160 L 34.731349995255435,160 L 36.19378681421725,160 L 36.223585655483355,160 L 36.25316947203798,160 L 37.738148048253414,160 L 37.76543826788558,160 L 37.7939469608828,160 L 39.28899586108594,160 L 39.30433429050493,160 L 39.34033301095208,160 L 40.835525260962875,160 L 40.86096985182149,160 L 40.881881005013035,160 L 42.384867900815024,160 L 42.40891483104901,160 L 42.43817611053642,160 L 43.93388800359995,160 L 43.95958345662196,160 L 43.987751693826,160 L 45.48068618436624,160 L 45.501095613231,160 L 45.53261465218896,160 L 47.031659428280456,160 L 47.05369946120729,160 L 47.08460926348272,160 L 48.57874430866205,160 L 48.604421842958104,160 L 48.635349563959494,160 L 50.12602629502918,160 L 50.15080789302739,160 L 50.16935377439265,160 L 51.67117595300744,160 L 51.70622498097888,160 L 51.72989561796778,160 L 53.22270467742632,160 L 53.24676952638626,160 L 54.796757240372855,160 L 54.823169442433134,160 L 56.3155126150168,160 L 56.33873528385678,160 L 56.366383878008065,160 L 57.86714885179141,160 L 57.89603383803373,160 L 57.92359283855524,160 L 59.415344693182334,160 L 59.4450360220927,160 L 59.4740106019648,160 L 60.96619250601485,160 L 60.99389485634402,160 L 61.01772676186653,160 L 62.50999825954636,160 L 62.53832776528401,79.84313725490196 L 62.567409857511855,79.84313725490196 L 64.08654152540089,79.84313725490196 L 64.11245200313436,79.84313725490196 L 65.60185650466113,79.84313725490196 L 65.62970220479795,79.84313725490196 L 65.64835559851895,79.84313725490196 L 67.1538869534068,79.84313725490196 L 67.18160722246192,79.84313725490196 L 67.2099188094736,79.84313725490196 L 68.69912620501484,79.84313725490196 L 68.72795743507929,79.84313725490196 L 68.76340067502178,79.84313725490196 L 70.25366527539445,79.84313725490196 L 70.28391208480949,79.84313725490196 L 70.30543247468356,79.84313725490196 L 71.80080391195392,79.84313725490196 L 71.82501211072153,79.84313725490196 L 71.85464968345403,79.84313725490196 L 73.35152629370475,79.84313725490196 L 73.40639343258438,79.84313725490196 L 74.89542164086603,79.84313725490196 L 74.92509505105045,79.84313725490196 L 74.95243902686049,79.84313725490196 L 76.44528392377094,79.84313725490196 L 76.47336256734519,79.84313725490196 L 76.50267760301048,79.84313725490196 L 77.99408900184439,79.84313725490196 L 78.0227231259233,79.84313725490196 L 78.05494099519358,79.84313725490196 L 79.54155017547109,79.84313725490196 L 79.57168947253037,79.84313725490196 L 79.60265303098367,79.84313725490196 L 81.09239798830359,79.84313725490196 L 81.12196388613226,79.84313725490196 L 81.15015004206226,79.84313725490196 L 82.6427082393574,79.84313725490196 L 82.6639777670681,79.84313725490196 L 82.69341823381507,79.84313725490196 L 84.1854388693315,79.84313725490196 L 84.2128007638675,79.84313725490196 L 84.244516908811,79.84313725490196 L 85.7343156223088,79.84313725490196 L 85.76151624831115,79.84313725490196 L 85.79145843938493,79.84313725490196 L 87.2826368947814,79.84313725490196 L 87.30840402270724,79.84313725490196 L 87.34017392382859,79.84313725490196 L 88.83203329081142,79.84313725490196 L 88.85780041873726,79.84313725490196 L 88.88168608043763,79.84313725490196 L 90.38551515635959,79.84313725490196 L 90.40746559565662,79.84313725490196 L 90.43941468403756,79.84313725490196 L 91.92898045409791,79.84313725490196 L 91.95424585769696,79.84313725490196 L 91.9826649570644,79.84313725490196 L 93.47642370899865,79.84313725490196 L 93.49867876663696,79.84313725490196 L 93.53233013398378,79.84313725490196 L 95.02300686505346,79.84313725490196 L 95.04913236749843,79.84313725490196 L 95.08118896823508,79.84313725490196 L 96.56946459002657,79.84313725490196 L 96.59383405732777,79.84313725490196 L 96.62850679205413,79.84313725490196 L 98.11353912444743,79.84313725490196 L 98.14502232595348,79.84313725490196 L 98.17734770757949,79.84313725490196 L 99.66716433980325,79.84313725490196 L 99.69230431232059,79.84313725490196 L 99.72179853524544,79.84313725490196 L 101.21742083467919,79.84313725490196 L 101.2445677045037,79.84313725490196 L 101.27755607899012,79.84313725490196 L 102.76298262335446,79.84313725490196 L 102.79469876829795,79.84313725490196 L 102.82974779626939,79.84313725490196 L 104.31422464815803,79.84313725490196 L 104.33834325329585,79.84313725490196 L 104.36989812970572,79.84313725490196 L 105.86345977565443,79.84313725490196 L 105.88587610182636,79.84313725490196 L 105.91750265314006,79.84313725490196 L 107.40823314038761,79.84313725490196 L 107.43296098220796,79.84313725490196 L 107.46392454066125,79.84313725490196 L 108.95698446228319,79.84313725490196 L 108.98506310585745,79.84313725490196 L 110.50763516913018,79.84313725490196 L 110.53343813450793,79.84313725490196 L 110.55789719543893,79.84313725490196 L 112.05651192210745,79.84313725490196 L 112.08623908846974,79.84313725490196 L 112.12003380562422,79.84313725490196 L 113.59485246422214,79.84313725490196 L 113.6311020468327,79.84313725490196 L 113.66201184910813,79.84313725490196 L 115.14937361587582,79.84313725490196 L 115.16877959608699,79.84313725490196 L 115.20556674047624,79.84313725490196 L 116.69805326286756,79.84313725490196 L 116.72557642593716,79.84313725490196 L 116.75609201624154,79.84313725490196 L 118.248524782455,79.84313725490196 L 118.27452485381825,79.84313725490196 L 118.30204801688785,79.84313725490196 L 119.79259931687584,79.84313725490196 L 119.82227272706025,79.84313725490196 L 119.85169527508127,79.84313725490196 L 121.339863384517,79.84313725490196 L 121.36706401051939,79.84313725490196 L 121.39774086935738,79.84313725490196 L 122.89311230662774,79.84313725490196 L 122.92369957183595,79.84313725490196 L 122.95668794632236,79.84313725490196 L 124.44383468837857,79.84313725490196 L 124.46696776358874,79.84313725490196 L 124.51808988874342,79.84313725490196 L 125.9927293600818,79.84313725490196 L 126.01625664726303,79.84313725490196 L 126.04582254509171,79.84313725490196 L 127.53572877094525,79.84313725490196 L 127.56335944637058,79.84313725490196 L 127.59256696968012,79.84313725490196 L 129.0832078632979,79.84313725490196 L 129.1098171713437,79.84313725490196 L 129.14052986763357,79.84313725490196 L 130.63242507206834,79.84313725490196 L 130.66039620328684,79.84313725490196 L 130.68598414395314,79.84313725490196 L 132.1784527476185,79.84313725490196 L 132.20611926049574,79.84313725490196 L 132.23518343399763,79.84313725490196 L 133.73352937977683,79.84313725490196 L 133.76268314690847,79.84313725490196 L 133.79316289976094,79.84313725490196 L 135.2758478790539,79.84313725490196 L 135.30516291471918,40 L 135.3355709926678,40 L 136.83029735580374,40 L 136.8511189153655,40 L 136.87944842110318,40 L 138.37268752998466,40 L 138.3926131532486,40 L 138.43069044590675,40 L 139.9230694559423,40 L 139.95186484855483,40 L 139.9762163971301,40 L 141.46519084923386,40 L 141.49782084920116,40 L 141.52957283159657,40 L 143.02051834355558,40 L 143.03551631718142,40 L 143.07391614690675,40 L 144.56835581042736,40 L 144.59833383895304,40 L 144.63331119202067,40 L 146.11646205818852,40 L 146.14292801642665,40 L 146.1787654683402,40 L 147.66179090342632,40 L 147.69180476940392,40 L 147.7250977622316,40 L 149.21342714020096,40 L 149.2352879858682,40 L 149.26632321922534,40 L 150.7572508124584,40 L 150.78215784153832,40 L 150.81428611717882,40 L 152.30833156872836,40 L 152.33771827929746,40 L 152.36335997614162,40 L 153.85534477420615,40 L 153.88817188015895,40 L 153.91108993065765,40 L 155.40552959417826,40 L 155.4344145804206,40 L 155.46767173579633,40 L 156.95420924117002,40 L 156.9823953971,40 L 157.01642305769192,40 L 158.50147330881117,40 L 158.52713292438128,40 L 158.55915368766603,40 L 160.05104889210077,40 L 160.07903794204523,40 L 160.11148875475294,40 L 161.59533845123312,40 L 161.63294985701637,40 L 161.65472110905384,40 L 163.1437493173355,40 L 163.17304643427482,40 L 163.2022002014065,40 L 164.68778801430443,40 L 164.72011339593047,40 L 164.74713483467326,40 L 165.8273473102512,40 L 166.24257794684746,40 L 166.27470622248794,40 L 166.30855469582028,40 L 167.79057668225283,40 L 167.81867324455308,40 L 167.8515720254097,40 L 169.3368552199664,40 L 169.35851895964814,40 L 169.39485813588846,40 L 170.88711171484235,40 L 170.91416899103706,40 L 170.94563427381715,40 L 172.4353792311371,40 L 172.4678658812967,40 L 172.50133806138396,40 L 173.9816756875766,40 L 174.00934220045383,40 L 174.04577097032396,40 L 175.53417202319713,40 L 175.5577709852822,40 L 175.58683515878408,40 L 177.08104187886724,40 L 177.1145498964064,40 L 177.1459255855567,40 L 178.62832386523436,40 L 178.6584810810196,40 L 178.6923474730779,40 L 180.1743157033326,40 L 180.20372033262765,40 L 180.2368699756477,40 L 181.72571899666977,40 L 181.75320632228747,40 L 181.78132080331363,40 L 183.27214088419097,40 L 183.29993282814993,40 L 183.33333333333334,40" stroke="#3b82f6" stroke-width="2" fill="none" stroke-dasharray="14850" stroke-dashoffset="14850">
      <animate attributeName="stroke-dashoffset" values="14850;0" dur="3s" begin="3.0999999999999996s" fill="freeze"/>
    </path>
    
    <!-- Glow effect for the line that also follows the circle -->
    <path d="M 30,160 L 30.030784371193732,160 L 30.067159384885976,160 L 31.548590053361966,160 L 31.570952623356014,160 L 31.59955090998302,160 L 33.09841649881495,160 L 33.11739242960317,160 L 33.14733462067693,160 L 34.64150550330819,160 L 34.66383223585032,160 L 34.69234092884754,160 L 34.731349995255435,160 L 36.19378681421725,160 L 36.223585655483355,160 L 36.25316947203798,160 L 37.738148048253414,160 L 37.76543826788558,160 L 37.7939469608828,160 L 39.28899586108594,160 L 39.30433429050493,160 L 39.34033301095208,160 L 40.835525260962875,160 L 40.86096985182149,160 L 40.881881005013035,160 L 42.384867900815024,160 L 42.40891483104901,160 L 42.43817611053642,160 L 43.93388800359995,160 L 43.95958345662196,160 L 43.987751693826,160 L 45.48068618436624,160 L 45.501095613231,160 L 45.53261465218896,160 L 47.031659428280456,160 L 47.05369946120729,160 L 47.08460926348272,160 L 48.57874430866205,160 L 48.604421842958104,160 L 48.635349563959494,160 L 50.12602629502918,160 L 50.15080789302739,160 L 50.16935377439265,160 L 51.67117595300744,160 L 51.70622498097888,160 L 51.72989561796778,160 L 53.22270467742632,160 L 53.24676952638626,160 L 54.796757240372855,160 L 54.823169442433134,160 L 56.3155126150168,160 L 56.33873528385678,160 L 56.366383878008065,160 L 57.86714885179141,160 L 57.89603383803373,160 L 57.92359283855524,160 L 59.415344693182334,160 L 59.4450360220927,160 L 59.4740106019648,160 L 60.96619250601485,160 L 60.99389485634402,160 L 61.01772676186653,160 L 62.50999825954636,160 L 62.53832776528401,79.84313725490196 L 62.567409857511855,79.84313725490196 L 64.08654152540089,79.84313725490196 L 64.11245200313436,79.84313725490196 L 65.60185650466113,79.84313725490196 L 65.62970220479795,79.84313725490196 L 65.64835559851895,79.84313725490196 L 67.1538869534068,79.84313725490196 L 67.18160722246192,79.84313725490196 L 67.2099188094736,79.84313725490196 L 68.69912620501484,79.84313725490196 L 68.72795743507929,79.84313725490196 L 68.76340067502178,79.84313725490196 L 70.25366527539445,79.84313725490196 L 70.28391208480949,79.84313725490196 L 70.30543247468356,79.84313725490196 L 71.80080391195392,79.84313725490196 L 71.82501211072153,79.84313725490196 L 71.85464968345403,79.84313725490196 L 73.35152629370475,79.84313725490196 L 73.40639343258438,79.84313725490196 L 74.89542164086603,79.84313725490196 L 74.92509505105045,79.84313725490196 L 74.95243902686049,79.84313725490196 L 76.44528392377094,79.84313725490196 L 76.47336256734519,79.84313725490196 L 76.50267760301048,79.84313725490196 L 77.99408900184439,79.84313725490196 L 78.0227231259233,79.84313725490196 L 78.05494099519358,79.84313725490196 L 79.54155017547109,79.84313725490196 L 79.57168947253037,79.84313725490196 L 79.60265303098367,79.84313725490196 L 81.09239798830359,79.84313725490196 L 81.12196388613226,79.84313725490196 L 81.15015004206226,79.84313725490196 L 82.6427082393574,79.84313725490196 L 82.6639777670681,79.84313725490196 L 82.69341823381507,79.84313725490196 L 84.1854388693315,79.84313725490196 L 84.2128007638675,79.84313725490196 L 84.244516908811,79.84313725490196 L 85.7343156223088,79.84313725490196 L 85.76151624831115,79.84313725490196 L 85.79145843938493,79.84313725490196 L 87.2826368947814,79.84313725490196 L 87.30840402270724,79.84313725490196 L 87.34017392382859,79.84313725490196 L 88.83203329081142,79.84313725490196 L 88.85780041873726,79.84313725490196 L 88.88168608043763,79.84313725490196 L 90.38551515635959,79.84313725490196 L 90.40746559565662,79.84313725490196 L 90.43941468403756,79.84313725490196 L 91.92898045409791,79.84313725490196 L 91.95424585769696,79.84313725490196 L 91.9826649570644,79.84313725490196 L 93.47642370899865,79.84313725490196 L 93.49867876663696,79.84313725490196 L 93.53233013398378,79.84313725490196 L 95.02300686505346,79.84313725490196 L 95.04913236749843,79.84313725490196 L 95.08118896823508,79.84313725490196 L 96.56946459002657,79.84313725490196 L 96.59383405732777,79.84313725490196 L 96.62850679205413,79.84313725490196 L 98.11353912444743,79.84313725490196 L 98.14502232595348,79.84313725490196 L 98.17734770757949,79.84313725490196 L 99.66716433980325,79.84313725490196 L 99.69230431232059,79.84313725490196 L 99.72179853524544,79.84313725490196 L 101.21742083467919,79.84313725490196 L 101.2445677045037,79.84313725490196 L 101.27755607899012,79.84313725490196 L 102.76298262335446,79.84313725490196 L 102.79469876829795,79.84313725490196 L 102.82974779626939,79.84313725490196 L 104.31422464815803,79.84313725490196 L 104.33834325329585,79.84313725490196 L 104.36989812970572,79.84313725490196 L 105.86345977565443,79.84313725490196 L 105.88587610182636,79.84313725490196 L 105.91750265314006,79.84313725490196 L 107.40823314038761,79.84313725490196 L 107.43296098220796,79.84313725490196 L 107.46392454066125,79.84313725490196 L 108.95698446228319,79.84313725490196 L 108.98506310585745,79.84313725490196 L 110.50763516913018,79.84313725490196 L 110.53343813450793,79.84313725490196 L 110.55789719543893,79.84313725490196 L 112.05651192210745,79.84313725490196 L 112.08623908846974,79.84313725490196 L 112.12003380562422,79.84313725490196 L 113.59485246422214,79.84313725490196 L 113.6311020468327,79.84313725490196 L 113.66201184910813,79.84313725490196 L 115.14937361587582,79.84313725490196 L 115.16877959608699,79.84313725490196 L 115.20556674047624,79.84313725490196 L 116.69805326286756,79.84313725490196 L 116.72557642593716,79.84313725490196 L 116.75609201624154,79.84313725490196 L 118.248524782455,79.84313725490196 L 118.27452485381825,79.84313725490196 L 118.30204801688785,79.84313725490196 L 119.79259931687584,79.84313725490196 L 119.82227272706025,79.84313725490196 L 119.85169527508127,79.84313725490196 L 121.339863384517,79.84313725490196 L 121.36706401051939,79.84313725490196 L 121.39774086935738,79.84313725490196 L 122.89311230662774,79.84313725490196 L 122.92369957183595,79.84313725490196 L 122.95668794632236,79.84313725490196 L 124.44383468837857,79.84313725490196 L 124.46696776358874,79.84313725490196 L 124.51808988874342,79.84313725490196 L 125.9927293600818,79.84313725490196 L 126.01625664726303,79.84313725490196 L 126.04582254509171,79.84313725490196 L 127.53572877094525,79.84313725490196 L 127.56335944637058,79.84313725490196 L 127.59256696968012,79.84313725490196 L 129.0832078632979,79.84313725490196 L 129.1098171713437,79.84313725490196 L 129.14052986763357,79.84313725490196 L 130.63242507206834,79.84313725490196 L 130.66039620328684,79.84313725490196 L 130.68598414395314,79.84313725490196 L 132.1784527476185,79.84313725490196 L 132.20611926049574,79.84313725490196 L 132.23518343399763,79.84313725490196 L 133.73352937977683,79.84313725490196 L 133.76268314690847,79.84313725490196 L 133.79316289976094,79.84313725490196 L 135.2758478790539,79.84313725490196 L 135.30516291471918,40 L 135.3355709926678,40 L 136.83029735580374,40 L 136.8511189153655,40 L 136.87944842110318,40 L 138.37268752998466,40 L 138.3926131532486,40 L 138.43069044590675,40 L 139.9230694559423,40 L 139.95186484855483,40 L 139.9762163971301,40 L 141.46519084923386,40 L 141.49782084920116,40 L 141.52957283159657,40 L 143.02051834355558,40 L 143.03551631718142,40 L 143.07391614690675,40 L 144.56835581042736,40 L 144.59833383895304,40 L 144.63331119202067,40 L 146.11646205818852,40 L 146.14292801642665,40 L 146.1787654683402,40 L 147.66179090342632,40 L 147.69180476940392,40 L 147.7250977622316,40 L 149.21342714020096,40 L 149.2352879858682,40 L 149.26632321922534,40 L 150.7572508124584,40 L 150.78215784153832,40 L 150.81428611717882,40 L 152.30833156872836,40 L 152.33771827929746,40 L 152.36335997614162,40 L 153.85534477420615,40 L 153.88817188015895,40 L 153.91108993065765,40 L 155.40552959417826,40 L 155.4344145804206,40 L 155.46767173579633,40 L 156.95420924117002,40 L 156.9823953971,40 L 157.01642305769192,40 L 158.50147330881117,40 L 158.52713292438128,40 L 158.55915368766603,40 L 160.05104889210077,40 L 160.07903794204523,40 L 160.11148875475294,40 L 161.59533845123312,40 L 161.63294985701637,40 L 161.65472110905384,40 L 163.1437493173355,40 L 163.17304643427482,40 L 163.2022002014065,40 L 164.68778801430443,40 L 164.72011339593047,40 L 164.74713483467326,40 L 165.8273473102512,40 L 166.24257794684746,40 L 166.27470622248794,40 L 166.30855469582028,40 L 167.79057668225283,40 L 167.81867324455308,40 L 167.8515720254097,40 L 169.3368552199664,40 L 169.35851895964814,40 L 169.39485813588846,40 L 170.88711171484235,40 L 170.91416899103706,40 L 170.94563427381715,40 L 172.4353792311371,40 L 172.4678658812967,40 L 172.50133806138396,40 L 173.9816756875766,40 L 174.00934220045383,40 L 174.04577097032396,40 L 175.53417202319713,40 L 175.5577709852822,40 L 175.58683515878408,40 L 177.08104187886724,40 L 177.1145498964064,40 L 177.1459255855567,40 L 178.62832386523436,40 L 178.6584810810196,40 L 178.6923474730779,40 L 180.1743157033326,40 L 180.20372033262765,40 L 180.2368699756477,40 L 181.72571899666977,40 L 181.75320632228747,40 L 181.78132080331363,40 L 183.27214088419097,40 L 183.29993282814993,40 L 183.33333333333334,40" stroke="#3b82f6" stroke-width="4" fill="none" opacity="0.4" stroke-dasharray="14850" stroke-dashoffset="14850">
      <animate attributeName="stroke-dashoffset" values="14850;0" dur="3s" begin="3.0999999999999996s" fill="freeze"/>
    </path>
    
    <!-- Animated circle that moves along the path and draws the line -->
    <circle r="5" fill="#3b82f6" opacity="0" filter="url(#trailGlow)">
      <animate attributeName="opacity" values="0;1;1;1" dur="3.2s" begin="2.9s" fill="freeze"/>
      <animate attributeName="r" values="5;6;5" dur="1s" begin="2.9s" repeatCount="3"/>
      <animateMotion dur="3s" begin="2.9s" fill="freeze">
        <mpath href="#path_publicContributions_293.33333333333337"/>
      </animateMotion>
    </circle>
    
    <!-- Small trail dots that fade out -->
    <circle r="2" fill="#3b82f6" opacity="0">
      <animate attributeName="opacity" values="0;0.6;0" dur="0.8s" begin="3.3s" fill="freeze"/>
      <animateMotion dur="3s" begin="2.9s" fill="freeze">
        <mpath href="#path_publicContributions_293.33333333333337"/>
      </animateMotion>
    </circle>
    
    <!-- Hidden path for motion animation -->
    <path id="path_publicContributions_293.33333333333337" d="M 30,160 L 30.030784371193732,160 L 30.067159384885976,160 L 31.548590053361966,160 L 31.570952623356014,160 L 31.59955090998302,160 L 33.09841649881495,160 L 33.11739242960317,160 L 33.14733462067693,160 L 34.64150550330819,160 L 34.66383223585032,160 L 34.69234092884754,160 L 34.731349995255435,160 L 36.19378681421725,160 L 36.223585655483355,160 L 36.25316947203798,160 L 37.738148048253414,160 L 37.76543826788558,160 L 37.7939469608828,160 L 39.28899586108594,160 L 39.30433429050493,160 L 39.34033301095208,160 L 40.835525260962875,160 L 40.86096985182149,160 L 40.881881005013035,160 L 42.384867900815024,160 L 42.40891483104901,160 L 42.43817611053642,160 L 43.93388800359995,160 L 43.95958345662196,160 L 43.987751693826,160 L 45.48068618436624,160 L 45.501095613231,160 L 45.53261465218896,160 L 47.031659428280456,160 L 47.05369946120729,160 L 47.08460926348272,160 L 48.57874430866205,160 L 48.604421842958104,160 L 48.635349563959494,160 L 50.12602629502918,160 L 50.15080789302739,160 L 50.16935377439265,160 L 51.67117595300744,160 L 51.70622498097888,160 L 51.72989561796778,160 L 53.22270467742632,160 L 53.24676952638626,160 L 54.796757240372855,160 L 54.823169442433134,160 L 56.3155126150168,160 L 56.33873528385678,160 L 56.366383878008065,160 L 57.86714885179141,160 L 57.89603383803373,160 L 57.92359283855524,160 L 59.415344693182334,160 L 59.4450360220927,160 L 59.4740106019648,160 L 60.96619250601485,160 L 60.99389485634402,160 L 61.01772676186653,160 L 62.50999825954636,160 L 62.53832776528401,79.84313725490196 L 62.567409857511855,79.84313725490196 L 64.08654152540089,79.84313725490196 L 64.11245200313436,79.84313725490196 L 65.60185650466113,79.84313725490196 L 65.62970220479795,79.84313725490196 L 65.64835559851895,79.84313725490196 L 67.1538869534068,79.84313725490196 L 67.18160722246192,79.84313725490196 L 67.2099188094736,79.84313725490196 L 68.69912620501484,79.84313725490196 L 68.72795743507929,79.84313725490196 L 68.76340067502178,79.84313725490196 L 70.25366527539445,79.84313725490196 L 70.28391208480949,79.84313725490196 L 70.30543247468356,79.84313725490196 L 71.80080391195392,79.84313725490196 L 71.82501211072153,79.84313725490196 L 71.85464968345403,79.84313725490196 L 73.35152629370475,79.84313725490196 L 73.40639343258438,79.84313725490196 L 74.89542164086603,79.84313725490196 L 74.92509505105045,79.84313725490196 L 74.95243902686049,79.84313725490196 L 76.44528392377094,79.84313725490196 L 76.47336256734519,79.84313725490196 L 76.50267760301048,79.84313725490196 L 77.99408900184439,79.84313725490196 L 78.0227231259233,79.84313725490196 L 78.05494099519358,79.84313725490196 L 79.54155017547109,79.84313725490196 L 79.57168947253037,79.84313725490196 L 79.60265303098367,79.84313725490196 L 81.09239798830359,79.84313725490196 L 81.12196388613226,79.84313725490196 L 81.15015004206226,79.84313725490196 L 82.6427082393574,79.84313725490196 L 82.6639777670681,79.84313725490196 L 82.69341823381507,79.84313725490196 L 84.1854388693315,79.84313725490196 L 84.2128007638675,79.84313725490196 L 84.244516908811,79.84313725490196 L 85.7343156223088,79.84313725490196 L 85.76151624831115,79.84313725490196 L 85.79145843938493,79.84313725490196 L 87.2826368947814,79.84313725490196 L 87.30840402270724,79.84313725490196 L 87.34017392382859,79.84313725490196 L 88.83203329081142,79.84313725490196 L 88.85780041873726,79.84313725490196 L 88.88168608043763,79.84313725490196 L 90.38551515635959,79.84313725490196 L 90.40746559565662,79.84313725490196 L 90.43941468403756,79.84313725490196 L 91.92898045409791,79.84313725490196 L 91.95424585769696,79.84313725490196 L 91.9826649570644,79.84313725490196 L 93.47642370899865,79.84313725490196 L 93.49867876663696,79.84313725490196 L 93.53233013398378,79.84313725490196 L 95.02300686505346,79.84313725490196 L 95.04913236749843,79.84313725490196 L 95.08118896823508,79.84313725490196 L 96.56946459002657,79.84313725490196 L 96.59383405732777,79.84313725490196 L 96.62850679205413,79.84313725490196 L 98.11353912444743,79.84313725490196 L 98.14502232595348,79.84313725490196 L 98.17734770757949,79.84313725490196 L 99.66716433980325,79.84313725490196 L 99.69230431232059,79.84313725490196 L 99.72179853524544,79.84313725490196 L 101.21742083467919,79.84313725490196 L 101.2445677045037,79.84313725490196 L 101.27755607899012,79.84313725490196 L 102.76298262335446,79.84313725490196 L 102.79469876829795,79.84313725490196 L 102.82974779626939,79.84313725490196 L 104.31422464815803,79.84313725490196 L 104.33834325329585,79.84313725490196 L 104.36989812970572,79.84313725490196 L 105.86345977565443,79.84313725490196 L 105.88587610182636,79.84313725490196 L 105.91750265314006,79.84313725490196 L 107.40823314038761,79.84313725490196 L 107.43296098220796,79.84313725490196 L 107.46392454066125,79.84313725490196 L 108.95698446228319,79.84313725490196 L 108.98506310585745,79.84313725490196 L 110.50763516913018,79.84313725490196 L 110.53343813450793,79.84313725490196 L 110.55789719543893,79.84313725490196 L 112.05651192210745,79.84313725490196 L 112.08623908846974,79.84313725490196 L 112.12003380562422,79.84313725490196 L 113.59485246422214,79.84313725490196 L 113.6311020468327,79.84313725490196 L 113.66201184910813,79.84313725490196 L 115.14937361587582,79.84313725490196 L 115.16877959608699,79.84313725490196 L 115.20556674047624,79.84313725490196 L 116.69805326286756,79.84313725490196 L 116.72557642593716,79.84313725490196 L 116.75609201624154,79.84313725490196 L 118.248524782455,79.84313725490196 L 118.27452485381825,79.84313725490196 L 118.30204801688785,79.84313725490196 L 119.79259931687584,79.84313725490196 L 119.82227272706025,79.84313725490196 L 119.85169527508127,79.84313725490196 L 121.339863384517,79.84313725490196 L 121.36706401051939,79.84313725490196 L 121.39774086935738,79.84313725490196 L 122.89311230662774,79.84313725490196 L 122.92369957183595,79.84313725490196 L 122.95668794632236,79.84313725490196 L 124.44383468837857,79.84313725490196 L 124.46696776358874,79.84313725490196 L 124.51808988874342,79.84313725490196 L 125.9927293600818,79.84313725490196 L 126.01625664726303,79.84313725490196 L 126.04582254509171,79.84313725490196 L 127.53572877094525,79.84313725490196 L 127.56335944637058,79.84313725490196 L 127.59256696968012,79.84313725490196 L 129.0832078632979,79.84313725490196 L 129.1098171713437,79.84313725490196 L 129.14052986763357,79.84313725490196 L 130.63242507206834,79.84313725490196 L 130.66039620328684,79.84313725490196 L 130.68598414395314,79.84313725490196 L 132.1784527476185,79.84313725490196 L 132.20611926049574,79.84313725490196 L 132.23518343399763,79.84313725490196 L 133.73352937977683,79.84313725490196 L 133.76268314690847,79.84313725490196 L 133.79316289976094,79.84313725490196 L 135.2758478790539,79.84313725490196 L 135.30516291471918,40 L 135.3355709926678,40 L 136.83029735580374,40 L 136.8511189153655,40 L 136.87944842110318,40 L 138.37268752998466,40 L 138.3926131532486,40 L 138.43069044590675,40 L 139.9230694559423,40 L 139.95186484855483,40 L 139.9762163971301,40 L 141.46519084923386,40 L 141.49782084920116,40 L 141.52957283159657,40 L 143.02051834355558,40 L 143.03551631718142,40 L 143.07391614690675,40 L 144.56835581042736,40 L 144.59833383895304,40 L 144.63331119202067,40 L 146.11646205818852,40 L 146.14292801642665,40 L 146.1787654683402,40 L 147.66179090342632,40 L 147.69180476940392,40 L 147.7250977622316,40 L 149.21342714020096,40 L 149.2352879858682,40 L 149.26632321922534,40 L 150.7572508124584,40 L 150.78215784153832,40 L 150.81428611717882,40 L 152.30833156872836,40 L 152.33771827929746,40 L 152.36335997614162,40 L 153.85534477420615,40 L 153.88817188015895,40 L 153.91108993065765,40 L 155.40552959417826,40 L 155.4344145804206,40 L 155.46767173579633,40 L 156.95420924117002,40 L 156.9823953971,40 L 157.01642305769192,40 L 158.50147330881117,40 L 158.52713292438128,40 L 158.55915368766603,40 L 160.05104889210077,40 L 160.07903794204523,40 L 160.11148875475294,40 L 161.59533845123312,40 L 161.63294985701637,40 L 161.65472110905384,40 L 163.1437493173355,40 L 163.17304643427482,40 L 163.2022002014065,40 L 164.68778801430443,40 L 164.72011339593047,40 L 164.74713483467326,40 L 165.8273473102512,40 L 166.24257794684746,40 L 166.27470622248794,40 L 166.30855469582028,40 L 167.79057668225283,40 L 167.81867324455308,40 L 167.8515720254097,40 L 169.3368552199664,40 L 169.35851895964814,40 L 169.39485813588846,40 L 170.88711171484235,40 L 170.91416899103706,40 L 170.94563427381715,40 L 172.4353792311371,40 L 172.4678658812967,40 L 172.50133806138396,40 L 173.9816756875766,40 L 174.00934220045383,40 L 174.04577097032396,40 L 175.53417202319713,40 L 175.5577709852822,40 L 175.58683515878408,40 L 177.08104187886724,40 L 177.1145498964064,40 L 177.1459255855567,40 L 178.62832386523436,40 L 178.6584810810196,40 L 178.6923474730779,40 L 180.1743157033326,40 L 180.20372033262765,40 L 180.2368699756477,40 L 181.72571899666977,40 L 181.75320632228747,40 L 181.78132080331363,40 L 183.27214088419097,40 L 183.29993282814993,40 L 183.33333333333334,40" fill="none" stroke="none"/>
  </g>
  <!-- 📊 Total Contributions Chart -->
  <g transform="translate(526.6666666666667, 250)">
    <!-- Chart Background -->
    <rect x="0" y="0" width="213.33333333333334" height="200" fill="#ffffff" stroke="#e2e8f0" stroke-width="1" rx="8" filter="url(#shadow)">
      <animate attributeName="opacity" values="0;1" dur="0.5s" begin="2.8s" fill="freeze"/>
    </rect>
    
    <!-- Chart Title -->
    <text x="106.66666666666667" y="25" text-anchor="middle" fill="#1e293b" font-size="14" font-weight="bold" font-family="Arial, sans-serif">
      📊 Total Contributions
      <animate attributeName="opacity" values="0;1" dur="0.5s" begin="3s" fill="freeze"/>
    </text>
    
    <!-- Y-axis labels -->
    <text x="10" y="45" fill="#64748b" font-size="10" font-family="Arial, sans-serif">4,917
      <animate attributeName="opacity" values="0;1" dur="0.5s" begin="3.1999999999999997s" fill="freeze"/>
    </text>
    <text x="10" y="185" fill="#64748b" font-size="10" font-family="Arial, sans-serif">3,802
      <animate attributeName="opacity" values="0;1" dur="0.5s" begin="3.1999999999999997s" fill="freeze"/>
    </text>
    
    <!-- Chart Line with draw animation that follows the circle -->
    <path d="M 30,160 L 30.030784371193732,160 L 30.067159384885976,160 L 31.548590053361966,160 L 31.570952623356014,160 L 31.59955090998302,160 L 33.09841649881495,160 L 33.11739242960317,160 L 33.14733462067693,160 L 34.64150550330819,160 L 34.66383223585032,160 L 34.69234092884754,160 L 34.731349995255435,160 L 36.19378681421725,160 L 36.223585655483355,160 L 36.25316947203798,160 L 37.738148048253414,160 L 37.76543826788558,160 L 37.7939469608828,160 L 39.28899586108594,160 L 39.30433429050493,160 L 39.34033301095208,160 L 40.835525260962875,160 L 40.86096985182149,160 L 40.881881005013035,160 L 42.384867900815024,160 L 42.40891483104901,160 L 42.43817611053642,160 L 43.93388800359995,160 L 43.95958345662196,160 L 43.987751693826,160 L 45.48068618436624,160 L 45.501095613231,160 L 45.53261465218896,160 L 47.031659428280456,160 L 47.05369946120729,160 L 47.08460926348272,160 L 48.57874430866205,160 L 48.604421842958104,160 L 48.635349563959494,160 L 50.12602629502918,160 L 50.15080789302739,160 L 50.16935377439265,160 L 51.67117595300744,160 L 51.70622498097888,160 L 51.72989561796778,160 L 53.22270467742632,160 L 53.24676952638626,160 L 54.796757240372855,160 L 54.823169442433134,160 L 56.3155126150168,160 L 56.33873528385678,160 L 56.366383878008065,160 L 57.86714885179141,160 L 57.89603383803373,160 L 57.92359283855524,160 L 59.415344693182334,160 L 59.4450360220927,160 L 59.4740106019648,160 L 60.96619250601485,160 L 60.99389485634402,160 L 61.01772676186653,160 L 62.50999825954636,160 L 62.53832776528401,94.78026905829597 L 62.567409857511855,94.78026905829597 L 64.08654152540089,94.78026905829597 L 64.11245200313436,94.78026905829597 L 65.60185650466113,94.78026905829597 L 65.62970220479795,94.78026905829597 L 65.64835559851895,94.78026905829597 L 67.1538869534068,94.78026905829597 L 67.18160722246192,94.78026905829597 L 67.2099188094736,94.78026905829597 L 68.69912620501484,94.78026905829597 L 68.72795743507929,94.78026905829597 L 68.76340067502178,94.78026905829597 L 70.25366527539445,94.78026905829597 L 70.28391208480949,94.78026905829597 L 70.30543247468356,94.78026905829597 L 71.80080391195392,94.78026905829597 L 71.82501211072153,94.78026905829597 L 71.85464968345403,94.78026905829597 L 73.35152629370475,94.78026905829597 L 73.40639343258438,94.78026905829597 L 74.89542164086603,94.78026905829597 L 74.92509505105045,94.78026905829597 L 74.95243902686049,94.78026905829597 L 76.44528392377094,94.78026905829597 L 76.47336256734519,94.78026905829597 L 76.50267760301048,94.78026905829597 L 77.99408900184439,94.78026905829597 L 78.0227231259233,94.78026905829597 L 78.05494099519358,94.78026905829597 L 79.54155017547109,94.78026905829597 L 79.57168947253037,94.78026905829597 L 79.60265303098367,94.78026905829597 L 81.09239798830359,94.78026905829597 L 81.12196388613226,94.78026905829597 L 81.15015004206226,94.78026905829597 L 82.6427082393574,94.78026905829597 L 82.6639777670681,94.78026905829597 L 82.69341823381507,94.78026905829597 L 84.1854388693315,94.78026905829597 L 84.2128007638675,94.78026905829597 L 84.244516908811,94.78026905829597 L 85.7343156223088,94.78026905829597 L 85.76151624831115,94.78026905829597 L 85.79145843938493,94.78026905829597 L 87.2826368947814,94.78026905829597 L 87.30840402270724,94.78026905829597 L 87.34017392382859,94.78026905829597 L 88.83203329081142,94.78026905829597 L 88.85780041873726,94.78026905829597 L 88.88168608043763,94.78026905829597 L 90.38551515635959,94.78026905829597 L 90.40746559565662,94.78026905829597 L 90.43941468403756,94.78026905829597 L 91.92898045409791,94.78026905829597 L 91.95424585769696,94.78026905829597 L 91.9826649570644,94.78026905829597 L 93.47642370899865,94.78026905829597 L 93.49867876663696,94.78026905829597 L 93.53233013398378,94.78026905829597 L 95.02300686505346,94.78026905829597 L 95.04913236749843,94.78026905829597 L 95.08118896823508,94.78026905829597 L 96.56946459002657,94.78026905829597 L 96.59383405732777,94.78026905829597 L 96.62850679205413,94.78026905829597 L 98.11353912444743,94.78026905829597 L 98.14502232595348,94.78026905829597 L 98.17734770757949,94.78026905829597 L 99.66716433980325,94.78026905829597 L 99.69230431232059,94.78026905829597 L 99.72179853524544,94.78026905829597 L 101.21742083467919,94.78026905829597 L 101.2445677045037,94.78026905829597 L 101.27755607899012,94.78026905829597 L 102.76298262335446,94.78026905829597 L 102.79469876829795,94.78026905829597 L 102.82974779626939,94.78026905829597 L 104.31422464815803,94.78026905829597 L 104.33834325329585,94.78026905829597 L 104.36989812970572,94.78026905829597 L 105.86345977565443,94.78026905829597 L 105.88587610182636,94.78026905829597 L 105.91750265314006,94.78026905829597 L 107.40823314038761,94.78026905829597 L 107.43296098220796,94.78026905829597 L 107.46392454066125,94.78026905829597 L 108.95698446228319,94.78026905829597 L 108.98506310585745,94.78026905829597 L 110.50763516913018,94.78026905829597 L 110.53343813450793,94.78026905829597 L 110.55789719543893,94.78026905829597 L 112.05651192210745,94.78026905829597 L 112.08623908846974,94.78026905829597 L 112.12003380562422,94.78026905829597 L 113.59485246422214,94.78026905829597 L 113.6311020468327,94.78026905829597 L 113.66201184910813,94.78026905829597 L 115.14937361587582,94.78026905829597 L 115.16877959608699,94.78026905829597 L 115.20556674047624,94.78026905829597 L 116.69805326286756,94.78026905829597 L 116.72557642593716,94.78026905829597 L 116.75609201624154,94.78026905829597 L 118.248524782455,94.78026905829597 L 118.27452485381825,94.78026905829597 L 118.30204801688785,94.78026905829597 L 119.79259931687584,94.78026905829597 L 119.82227272706025,94.78026905829597 L 119.85169527508127,94.78026905829597 L 121.339863384517,94.78026905829597 L 121.36706401051939,94.78026905829597 L 121.39774086935738,94.78026905829597 L 122.89311230662774,94.78026905829597 L 122.92369957183595,94.78026905829597 L 122.95668794632236,94.78026905829597 L 124.44383468837857,94.78026905829597 L 124.46696776358874,94.78026905829597 L 124.51808988874342,94.78026905829597 L 125.9927293600818,94.78026905829597 L 126.01625664726303,94.78026905829597 L 126.04582254509171,94.78026905829597 L 127.53572877094525,94.78026905829597 L 127.56335944637058,94.78026905829597 L 127.59256696968012,94.78026905829597 L 129.0832078632979,94.78026905829597 L 129.1098171713437,94.78026905829597 L 129.14052986763357,94.78026905829597 L 130.63242507206834,94.78026905829597 L 130.66039620328684,94.78026905829597 L 130.68598414395314,94.78026905829597 L 132.1784527476185,94.78026905829597 L 132.20611926049574,94.78026905829597 L 132.23518343399763,94.78026905829597 L 133.73352937977683,94.78026905829597 L 133.76268314690847,94.78026905829597 L 133.79316289976094,94.78026905829597 L 135.2758478790539,94.78026905829597 L 135.30516291471918,40 L 135.3355709926678,40 L 136.83029735580374,40 L 136.8511189153655,40 L 136.87944842110318,40 L 138.37268752998466,40 L 138.3926131532486,40 L 138.43069044590675,40 L 139.9230694559423,40 L 139.95186484855483,40 L 139.9762163971301,40 L 141.46519084923386,40 L 141.49782084920116,40 L 141.52957283159657,40 L 143.02051834355558,40 L 143.03551631718142,40 L 143.07391614690675,40 L 144.56835581042736,40 L 144.59833383895304,40 L 144.63331119202067,40 L 146.11646205818852,40 L 146.14292801642665,40 L 146.1787654683402,40 L 147.66179090342632,40 L 147.69180476940392,40 L 147.7250977622316,40 L 149.21342714020096,40 L 149.2352879858682,40 L 149.26632321922534,40 L 150.7572508124584,40 L 150.78215784153832,40 L 150.81428611717882,40 L 152.30833156872836,40 L 152.33771827929746,40 L 152.36335997614162,40 L 153.85534477420615,40 L 153.88817188015895,40 L 153.91108993065765,40 L 155.40552959417826,40 L 155.4344145804206,40 L 155.46767173579633,40 L 156.95420924117002,40 L 156.9823953971,40 L 157.01642305769192,40 L 158.50147330881117,40 L 158.52713292438128,40 L 158.55915368766603,40 L 160.05104889210077,40 L 160.07903794204523,40 L 160.11148875475294,40 L 161.59533845123312,40 L 161.63294985701637,40 L 161.65472110905384,40 L 163.1437493173355,40 L 163.17304643427482,40 L 163.2022002014065,40 L 164.68778801430443,40 L 164.72011339593047,40 L 164.74713483467326,40 L 165.8273473102512,40 L 166.24257794684746,40 L 166.27470622248794,40 L 166.30855469582028,40 L 167.79057668225283,40 L 167.81867324455308,40 L 167.8515720254097,40 L 169.3368552199664,40 L 169.35851895964814,40 L 169.39485813588846,40 L 170.88711171484235,40 L 170.91416899103706,40 L 170.94563427381715,40 L 172.4353792311371,40 L 172.4678658812967,40 L 172.50133806138396,40 L 173.9816756875766,40 L 174.00934220045383,40 L 174.04577097032396,40 L 175.53417202319713,40 L 175.5577709852822,40 L 175.58683515878408,40 L 177.08104187886724,40 L 177.1145498964064,40 L 177.1459255855567,40 L 178.62832386523436,40 L 178.6584810810196,40 L 178.6923474730779,40 L 180.1743157033326,40 L 180.20372033262765,40 L 180.2368699756477,40 L 181.72571899666977,40 L 181.75320632228747,40 L 181.78132080331363,40 L 183.27214088419097,40 L 183.29993282814993,40 L 183.33333333333334,40" stroke="#f59e0b" stroke-width="2" fill="none" stroke-dasharray="14850" stroke-dashoffset="14850">
      <animate attributeName="stroke-dashoffset" values="14850;0" dur="3s" begin="3.5999999999999996s" fill="freeze"/>
    </path>
    
    <!-- Glow effect for the line that also follows the circle -->
    <path d="M 30,160 L 30.030784371193732,160 L 30.067159384885976,160 L 31.548590053361966,160 L 31.570952623356014,160 L 31.59955090998302,160 L 33.09841649881495,160 L 33.11739242960317,160 L 33.14733462067693,160 L 34.64150550330819,160 L 34.66383223585032,160 L 34.69234092884754,160 L 34.731349995255435,160 L 36.19378681421725,160 L 36.223585655483355,160 L 36.25316947203798,160 L 37.738148048253414,160 L 37.76543826788558,160 L 37.7939469608828,160 L 39.28899586108594,160 L 39.30433429050493,160 L 39.34033301095208,160 L 40.835525260962875,160 L 40.86096985182149,160 L 40.881881005013035,160 L 42.384867900815024,160 L 42.40891483104901,160 L 42.43817611053642,160 L 43.93388800359995,160 L 43.95958345662196,160 L 43.987751693826,160 L 45.48068618436624,160 L 45.501095613231,160 L 45.53261465218896,160 L 47.031659428280456,160 L 47.05369946120729,160 L 47.08460926348272,160 L 48.57874430866205,160 L 48.604421842958104,160 L 48.635349563959494,160 L 50.12602629502918,160 L 50.15080789302739,160 L 50.16935377439265,160 L 51.67117595300744,160 L 51.70622498097888,160 L 51.72989561796778,160 L 53.22270467742632,160 L 53.24676952638626,160 L 54.796757240372855,160 L 54.823169442433134,160 L 56.3155126150168,160 L 56.33873528385678,160 L 56.366383878008065,160 L 57.86714885179141,160 L 57.89603383803373,160 L 57.92359283855524,160 L 59.415344693182334,160 L 59.4450360220927,160 L 59.4740106019648,160 L 60.96619250601485,160 L 60.99389485634402,160 L 61.01772676186653,160 L 62.50999825954636,160 L 62.53832776528401,94.78026905829597 L 62.567409857511855,94.78026905829597 L 64.08654152540089,94.78026905829597 L 64.11245200313436,94.78026905829597 L 65.60185650466113,94.78026905829597 L 65.62970220479795,94.78026905829597 L 65.64835559851895,94.78026905829597 L 67.1538869534068,94.78026905829597 L 67.18160722246192,94.78026905829597 L 67.2099188094736,94.78026905829597 L 68.69912620501484,94.78026905829597 L 68.72795743507929,94.78026905829597 L 68.76340067502178,94.78026905829597 L 70.25366527539445,94.78026905829597 L 70.28391208480949,94.78026905829597 L 70.30543247468356,94.78026905829597 L 71.80080391195392,94.78026905829597 L 71.82501211072153,94.78026905829597 L 71.85464968345403,94.78026905829597 L 73.35152629370475,94.78026905829597 L 73.40639343258438,94.78026905829597 L 74.89542164086603,94.78026905829597 L 74.92509505105045,94.78026905829597 L 74.95243902686049,94.78026905829597 L 76.44528392377094,94.78026905829597 L 76.47336256734519,94.78026905829597 L 76.50267760301048,94.78026905829597 L 77.99408900184439,94.78026905829597 L 78.0227231259233,94.78026905829597 L 78.05494099519358,94.78026905829597 L 79.54155017547109,94.78026905829597 L 79.57168947253037,94.78026905829597 L 79.60265303098367,94.78026905829597 L 81.09239798830359,94.78026905829597 L 81.12196388613226,94.78026905829597 L 81.15015004206226,94.78026905829597 L 82.6427082393574,94.78026905829597 L 82.6639777670681,94.78026905829597 L 82.69341823381507,94.78026905829597 L 84.1854388693315,94.78026905829597 L 84.2128007638675,94.78026905829597 L 84.244516908811,94.78026905829597 L 85.7343156223088,94.78026905829597 L 85.76151624831115,94.78026905829597 L 85.79145843938493,94.78026905829597 L 87.2826368947814,94.78026905829597 L 87.30840402270724,94.78026905829597 L 87.34017392382859,94.78026905829597 L 88.83203329081142,94.78026905829597 L 88.85780041873726,94.78026905829597 L 88.88168608043763,94.78026905829597 L 90.38551515635959,94.78026905829597 L 90.40746559565662,94.78026905829597 L 90.43941468403756,94.78026905829597 L 91.92898045409791,94.78026905829597 L 91.95424585769696,94.78026905829597 L 91.9826649570644,94.78026905829597 L 93.47642370899865,94.78026905829597 L 93.49867876663696,94.78026905829597 L 93.53233013398378,94.78026905829597 L 95.02300686505346,94.78026905829597 L 95.04913236749843,94.78026905829597 L 95.08118896823508,94.78026905829597 L 96.56946459002657,94.78026905829597 L 96.59383405732777,94.78026905829597 L 96.62850679205413,94.78026905829597 L 98.11353912444743,94.78026905829597 L 98.14502232595348,94.78026905829597 L 98.17734770757949,94.78026905829597 L 99.66716433980325,94.78026905829597 L 99.69230431232059,94.78026905829597 L 99.72179853524544,94.78026905829597 L 101.21742083467919,94.78026905829597 L 101.2445677045037,94.78026905829597 L 101.27755607899012,94.78026905829597 L 102.76298262335446,94.78026905829597 L 102.79469876829795,94.78026905829597 L 102.82974779626939,94.78026905829597 L 104.31422464815803,94.78026905829597 L 104.33834325329585,94.78026905829597 L 104.36989812970572,94.78026905829597 L 105.86345977565443,94.78026905829597 L 105.88587610182636,94.78026905829597 L 105.91750265314006,94.78026905829597 L 107.40823314038761,94.78026905829597 L 107.43296098220796,94.78026905829597 L 107.46392454066125,94.78026905829597 L 108.95698446228319,94.78026905829597 L 108.98506310585745,94.78026905829597 L 110.50763516913018,94.78026905829597 L 110.53343813450793,94.78026905829597 L 110.55789719543893,94.78026905829597 L 112.05651192210745,94.78026905829597 L 112.08623908846974,94.78026905829597 L 112.12003380562422,94.78026905829597 L 113.59485246422214,94.78026905829597 L 113.6311020468327,94.78026905829597 L 113.66201184910813,94.78026905829597 L 115.14937361587582,94.78026905829597 L 115.16877959608699,94.78026905829597 L 115.20556674047624,94.78026905829597 L 116.69805326286756,94.78026905829597 L 116.72557642593716,94.78026905829597 L 116.75609201624154,94.78026905829597 L 118.248524782455,94.78026905829597 L 118.27452485381825,94.78026905829597 L 118.30204801688785,94.78026905829597 L 119.79259931687584,94.78026905829597 L 119.82227272706025,94.78026905829597 L 119.85169527508127,94.78026905829597 L 121.339863384517,94.78026905829597 L 121.36706401051939,94.78026905829597 L 121.39774086935738,94.78026905829597 L 122.89311230662774,94.78026905829597 L 122.92369957183595,94.78026905829597 L 122.95668794632236,94.78026905829597 L 124.44383468837857,94.78026905829597 L 124.46696776358874,94.78026905829597 L 124.51808988874342,94.78026905829597 L 125.9927293600818,94.78026905829597 L 126.01625664726303,94.78026905829597 L 126.04582254509171,94.78026905829597 L 127.53572877094525,94.78026905829597 L 127.56335944637058,94.78026905829597 L 127.59256696968012,94.78026905829597 L 129.0832078632979,94.78026905829597 L 129.1098171713437,94.78026905829597 L 129.14052986763357,94.78026905829597 L 130.63242507206834,94.78026905829597 L 130.66039620328684,94.78026905829597 L 130.68598414395314,94.78026905829597 L 132.1784527476185,94.78026905829597 L 132.20611926049574,94.78026905829597 L 132.23518343399763,94.78026905829597 L 133.73352937977683,94.78026905829597 L 133.76268314690847,94.78026905829597 L 133.79316289976094,94.78026905829597 L 135.2758478790539,94.78026905829597 L 135.30516291471918,40 L 135.3355709926678,40 L 136.83029735580374,40 L 136.8511189153655,40 L 136.87944842110318,40 L 138.37268752998466,40 L 138.3926131532486,40 L 138.43069044590675,40 L 139.9230694559423,40 L 139.95186484855483,40 L 139.9762163971301,40 L 141.46519084923386,40 L 141.49782084920116,40 L 141.52957283159657,40 L 143.02051834355558,40 L 143.03551631718142,40 L 143.07391614690675,40 L 144.56835581042736,40 L 144.59833383895304,40 L 144.63331119202067,40 L 146.11646205818852,40 L 146.14292801642665,40 L 146.1787654683402,40 L 147.66179090342632,40 L 147.69180476940392,40 L 147.7250977622316,40 L 149.21342714020096,40 L 149.2352879858682,40 L 149.26632321922534,40 L 150.7572508124584,40 L 150.78215784153832,40 L 150.81428611717882,40 L 152.30833156872836,40 L 152.33771827929746,40 L 152.36335997614162,40 L 153.85534477420615,40 L 153.88817188015895,40 L 153.91108993065765,40 L 155.40552959417826,40 L 155.4344145804206,40 L 155.46767173579633,40 L 156.95420924117002,40 L 156.9823953971,40 L 157.01642305769192,40 L 158.50147330881117,40 L 158.52713292438128,40 L 158.55915368766603,40 L 160.05104889210077,40 L 160.07903794204523,40 L 160.11148875475294,40 L 161.59533845123312,40 L 161.63294985701637,40 L 161.65472110905384,40 L 163.1437493173355,40 L 163.17304643427482,40 L 163.2022002014065,40 L 164.68778801430443,40 L 164.72011339593047,40 L 164.74713483467326,40 L 165.8273473102512,40 L 166.24257794684746,40 L 166.27470622248794,40 L 166.30855469582028,40 L 167.79057668225283,40 L 167.81867324455308,40 L 167.8515720254097,40 L 169.3368552199664,40 L 169.35851895964814,40 L 169.39485813588846,40 L 170.88711171484235,40 L 170.91416899103706,40 L 170.94563427381715,40 L 172.4353792311371,40 L 172.4678658812967,40 L 172.50133806138396,40 L 173.9816756875766,40 L 174.00934220045383,40 L 174.04577097032396,40 L 175.53417202319713,40 L 175.5577709852822,40 L 175.58683515878408,40 L 177.08104187886724,40 L 177.1145498964064,40 L 177.1459255855567,40 L 178.62832386523436,40 L 178.6584810810196,40 L 178.6923474730779,40 L 180.1743157033326,40 L 180.20372033262765,40 L 180.2368699756477,40 L 181.72571899666977,40 L 181.75320632228747,40 L 181.78132080331363,40 L 183.27214088419097,40 L 183.29993282814993,40 L 183.33333333333334,40" stroke="#f59e0b" stroke-width="4" fill="none" opacity="0.4" stroke-dasharray="14850" stroke-dashoffset="14850">
      <animate attributeName="stroke-dashoffset" values="14850;0" dur="3s" begin="3.5999999999999996s" fill="freeze"/>
    </path>
    
    <!-- Animated circle that moves along the path and draws the line -->
    <circle r="5" fill="#f59e0b" opacity="0" filter="url(#trailGlow)">
      <animate attributeName="opacity" values="0;1;1;1" dur="3.2s" begin="3.4s" fill="freeze"/>
      <animate attributeName="r" values="5;6;5" dur="1s" begin="3.4s" repeatCount="3"/>
      <animateMotion dur="3s" begin="3.4s" fill="freeze">
        <mpath href="#path_totalContributions_526.6666666666667"/>
      </animateMotion>
    </circle>
    
    <!-- Small trail dots that fade out -->
    <circle r="2" fill="#f59e0b" opacity="0">
      <animate attributeName="opacity" values="0;0.6;0" dur="0.8s" begin="3.8s" fill="freeze"/>
      <animateMotion dur="3s" begin="3.4s" fill="freeze">
        <mpath href="#path_totalContributions_526.6666666666667"/>
      </animateMotion>
    </circle>
    
    <!-- Hidden path for motion animation -->
    <path id="path_totalContributions_526.6666666666667" d="M 30,160 L 30.030784371193732,160 L 30.067159384885976,160 L 31.548590053361966,160 L 31.570952623356014,160 L 31.59955090998302,160 L 33.09841649881495,160 L 33.11739242960317,160 L 33.14733462067693,160 L 34.64150550330819,160 L 34.66383223585032,160 L 34.69234092884754,160 L 34.731349995255435,160 L 36.19378681421725,160 L 36.223585655483355,160 L 36.25316947203798,160 L 37.738148048253414,160 L 37.76543826788558,160 L 37.7939469608828,160 L 39.28899586108594,160 L 39.30433429050493,160 L 39.34033301095208,160 L 40.835525260962875,160 L 40.86096985182149,160 L 40.881881005013035,160 L 42.384867900815024,160 L 42.40891483104901,160 L 42.43817611053642,160 L 43.93388800359995,160 L 43.95958345662196,160 L 43.987751693826,160 L 45.48068618436624,160 L 45.501095613231,160 L 45.53261465218896,160 L 47.031659428280456,160 L 47.05369946120729,160 L 47.08460926348272,160 L 48.57874430866205,160 L 48.604421842958104,160 L 48.635349563959494,160 L 50.12602629502918,160 L 50.15080789302739,160 L 50.16935377439265,160 L 51.67117595300744,160 L 51.70622498097888,160 L 51.72989561796778,160 L 53.22270467742632,160 L 53.24676952638626,160 L 54.796757240372855,160 L 54.823169442433134,160 L 56.3155126150168,160 L 56.33873528385678,160 L 56.366383878008065,160 L 57.86714885179141,160 L 57.89603383803373,160 L 57.92359283855524,160 L 59.415344693182334,160 L 59.4450360220927,160 L 59.4740106019648,160 L 60.96619250601485,160 L 60.99389485634402,160 L 61.01772676186653,160 L 62.50999825954636,160 L 62.53832776528401,94.78026905829597 L 62.567409857511855,94.78026905829597 L 64.08654152540089,94.78026905829597 L 64.11245200313436,94.78026905829597 L 65.60185650466113,94.78026905829597 L 65.62970220479795,94.78026905829597 L 65.64835559851895,94.78026905829597 L 67.1538869534068,94.78026905829597 L 67.18160722246192,94.78026905829597 L 67.2099188094736,94.78026905829597 L 68.69912620501484,94.78026905829597 L 68.72795743507929,94.78026905829597 L 68.76340067502178,94.78026905829597 L 70.25366527539445,94.78026905829597 L 70.28391208480949,94.78026905829597 L 70.30543247468356,94.78026905829597 L 71.80080391195392,94.78026905829597 L 71.82501211072153,94.78026905829597 L 71.85464968345403,94.78026905829597 L 73.35152629370475,94.78026905829597 L 73.40639343258438,94.78026905829597 L 74.89542164086603,94.78026905829597 L 74.92509505105045,94.78026905829597 L 74.95243902686049,94.78026905829597 L 76.44528392377094,94.78026905829597 L 76.47336256734519,94.78026905829597 L 76.50267760301048,94.78026905829597 L 77.99408900184439,94.78026905829597 L 78.0227231259233,94.78026905829597 L 78.05494099519358,94.78026905829597 L 79.54155017547109,94.78026905829597 L 79.57168947253037,94.78026905829597 L 79.60265303098367,94.78026905829597 L 81.09239798830359,94.78026905829597 L 81.12196388613226,94.78026905829597 L 81.15015004206226,94.78026905829597 L 82.6427082393574,94.78026905829597 L 82.6639777670681,94.78026905829597 L 82.69341823381507,94.78026905829597 L 84.1854388693315,94.78026905829597 L 84.2128007638675,94.78026905829597 L 84.244516908811,94.78026905829597 L 85.7343156223088,94.78026905829597 L 85.76151624831115,94.78026905829597 L 85.79145843938493,94.78026905829597 L 87.2826368947814,94.78026905829597 L 87.30840402270724,94.78026905829597 L 87.34017392382859,94.78026905829597 L 88.83203329081142,94.78026905829597 L 88.85780041873726,94.78026905829597 L 88.88168608043763,94.78026905829597 L 90.38551515635959,94.78026905829597 L 90.40746559565662,94.78026905829597 L 90.43941468403756,94.78026905829597 L 91.92898045409791,94.78026905829597 L 91.95424585769696,94.78026905829597 L 91.9826649570644,94.78026905829597 L 93.47642370899865,94.78026905829597 L 93.49867876663696,94.78026905829597 L 93.53233013398378,94.78026905829597 L 95.02300686505346,94.78026905829597 L 95.04913236749843,94.78026905829597 L 95.08118896823508,94.78026905829597 L 96.56946459002657,94.78026905829597 L 96.59383405732777,94.78026905829597 L 96.62850679205413,94.78026905829597 L 98.11353912444743,94.78026905829597 L 98.14502232595348,94.78026905829597 L 98.17734770757949,94.78026905829597 L 99.66716433980325,94.78026905829597 L 99.69230431232059,94.78026905829597 L 99.72179853524544,94.78026905829597 L 101.21742083467919,94.78026905829597 L 101.2445677045037,94.78026905829597 L 101.27755607899012,94.78026905829597 L 102.76298262335446,94.78026905829597 L 102.79469876829795,94.78026905829597 L 102.82974779626939,94.78026905829597 L 104.31422464815803,94.78026905829597 L 104.33834325329585,94.78026905829597 L 104.36989812970572,94.78026905829597 L 105.86345977565443,94.78026905829597 L 105.88587610182636,94.78026905829597 L 105.91750265314006,94.78026905829597 L 107.40823314038761,94.78026905829597 L 107.43296098220796,94.78026905829597 L 107.46392454066125,94.78026905829597 L 108.95698446228319,94.78026905829597 L 108.98506310585745,94.78026905829597 L 110.50763516913018,94.78026905829597 L 110.53343813450793,94.78026905829597 L 110.55789719543893,94.78026905829597 L 112.05651192210745,94.78026905829597 L 112.08623908846974,94.78026905829597 L 112.12003380562422,94.78026905829597 L 113.59485246422214,94.78026905829597 L 113.6311020468327,94.78026905829597 L 113.66201184910813,94.78026905829597 L 115.14937361587582,94.78026905829597 L 115.16877959608699,94.78026905829597 L 115.20556674047624,94.78026905829597 L 116.69805326286756,94.78026905829597 L 116.72557642593716,94.78026905829597 L 116.75609201624154,94.78026905829597 L 118.248524782455,94.78026905829597 L 118.27452485381825,94.78026905829597 L 118.30204801688785,94.78026905829597 L 119.79259931687584,94.78026905829597 L 119.82227272706025,94.78026905829597 L 119.85169527508127,94.78026905829597 L 121.339863384517,94.78026905829597 L 121.36706401051939,94.78026905829597 L 121.39774086935738,94.78026905829597 L 122.89311230662774,94.78026905829597 L 122.92369957183595,94.78026905829597 L 122.95668794632236,94.78026905829597 L 124.44383468837857,94.78026905829597 L 124.46696776358874,94.78026905829597 L 124.51808988874342,94.78026905829597 L 125.9927293600818,94.78026905829597 L 126.01625664726303,94.78026905829597 L 126.04582254509171,94.78026905829597 L 127.53572877094525,94.78026905829597 L 127.56335944637058,94.78026905829597 L 127.59256696968012,94.78026905829597 L 129.0832078632979,94.78026905829597 L 129.1098171713437,94.78026905829597 L 129.14052986763357,94.78026905829597 L 130.63242507206834,94.78026905829597 L 130.66039620328684,94.78026905829597 L 130.68598414395314,94.78026905829597 L 132.1784527476185,94.78026905829597 L 132.20611926049574,94.78026905829597 L 132.23518343399763,94.78026905829597 L 133.73352937977683,94.78026905829597 L 133.76268314690847,94.78026905829597 L 133.79316289976094,94.78026905829597 L 135.2758478790539,94.78026905829597 L 135.30516291471918,40 L 135.3355709926678,40 L 136.83029735580374,40 L 136.8511189153655,40 L 136.87944842110318,40 L 138.37268752998466,40 L 138.3926131532486,40 L 138.43069044590675,40 L 139.9230694559423,40 L 139.95186484855483,40 L 139.9762163971301,40 L 141.46519084923386,40 L 141.49782084920116,40 L 141.52957283159657,40 L 143.02051834355558,40 L 143.03551631718142,40 L 143.07391614690675,40 L 144.56835581042736,40 L 144.59833383895304,40 L 144.63331119202067,40 L 146.11646205818852,40 L 146.14292801642665,40 L 146.1787654683402,40 L 147.66179090342632,40 L 147.69180476940392,40 L 147.7250977622316,40 L 149.21342714020096,40 L 149.2352879858682,40 L 149.26632321922534,40 L 150.7572508124584,40 L 150.78215784153832,40 L 150.81428611717882,40 L 152.30833156872836,40 L 152.33771827929746,40 L 152.36335997614162,40 L 153.85534477420615,40 L 153.88817188015895,40 L 153.91108993065765,40 L 155.40552959417826,40 L 155.4344145804206,40 L 155.46767173579633,40 L 156.95420924117002,40 L 156.9823953971,40 L 157.01642305769192,40 L 158.50147330881117,40 L 158.52713292438128,40 L 158.55915368766603,40 L 160.05104889210077,40 L 160.07903794204523,40 L 160.11148875475294,40 L 161.59533845123312,40 L 161.63294985701637,40 L 161.65472110905384,40 L 163.1437493173355,40 L 163.17304643427482,40 L 163.2022002014065,40 L 164.68778801430443,40 L 164.72011339593047,40 L 164.74713483467326,40 L 165.8273473102512,40 L 166.24257794684746,40 L 166.27470622248794,40 L 166.30855469582028,40 L 167.79057668225283,40 L 167.81867324455308,40 L 167.8515720254097,40 L 169.3368552199664,40 L 169.35851895964814,40 L 169.39485813588846,40 L 170.88711171484235,40 L 170.91416899103706,40 L 170.94563427381715,40 L 172.4353792311371,40 L 172.4678658812967,40 L 172.50133806138396,40 L 173.9816756875766,40 L 174.00934220045383,40 L 174.04577097032396,40 L 175.53417202319713,40 L 175.5577709852822,40 L 175.58683515878408,40 L 177.08104187886724,40 L 177.1145498964064,40 L 177.1459255855567,40 L 178.62832386523436,40 L 178.6584810810196,40 L 178.6923474730779,40 L 180.1743157033326,40 L 180.20372033262765,40 L 180.2368699756477,40 L 181.72571899666977,40 L 181.75320632228747,40 L 181.78132080331363,40 L 183.27214088419097,40 L 183.29993282814993,40 L 183.33333333333334,40" fill="none" stroke="none"/>
  </g>
  
  <!-- Footer -->
  <text x="400" y="580" text-anchor="middle" fill="#94a3b8" font-size="12" font-family="Arial, sans-serif">
    Generated by GitHub User Rank Tracker • 1/8/2026
    <animate attributeName="opacity" values="0;1" dur="0.5s" begin="5s" fill="freeze"/>
  </text>
</svg>