<svg width="800" height="600" xmlns="http://www.w3.org/2000/svg">
  <defs>
    <linearGradient id="bgGradient" x1="0%" y1="0%" x2="100%" y2="100%">
      <stop offset="0%" style="stop-color:#f8fafc;stop-opacity:1" />
      <stop offset="100%" style="stop-color:#e2e8f0;stop-opacity:1" />
    </linearGradient>
    <filter id="shadow" x="-20%" y="-20%" width="140%" height="140%">
      <feDropShadow dx="2" dy="2" stdDeviation="3" flood-color="#00000020" flood-opacity="0.1"/>
    </filter>
    <!-- Trail effect filter -->
    <filter id="trailGlow" x="-50%" y="-50%" width="200%" height="200%">
      <feGaussianBlur stdDeviation="3" result="coloredBlur"/>
      <feMerge> 
        <feMergeNode in="coloredBlur"/>
        <feMergeNode in="SourceGraphic"/>
      </feMerge>
    </filter>
  </defs>
  
  <!-- Background -->
  <rect width="800" height="600" fill="url(#bgGradient)" rx="12"/>
  
  <!-- Header -->
  <text x="400" y="40" text-anchor="middle" fill="#0f172a" font-size="24" font-weight="bold" font-family="Arial, sans-serif">
    GitHub Progress Report
    <animate attributeName="opacity" values="0;1" dur="0.8s" begin="0s" fill="freeze"/>
    <animateTransform attributeName="transform" type="translate" values="0,-20;0,0" dur="0.8s" begin="0s" fill="freeze"/>
  </text>
  
  <!-- User Info -->
  <text x="400" y="70" text-anchor="middle" fill="#475569" font-size="16" font-family="Arial, sans-serif">
    @maifeeulasad • BANGLADESH • 100 days analyzed
    <animate attributeName="opacity" values="0;1" dur="0.6s" begin="0.3s" fill="freeze"/>
  </text>
  
  <!-- Progress Cards -->
  <!-- Followers Card -->
  <g transform="translate(60, 100)">
    <rect width="206.66666666666666" height="120" fill="#ffffff" stroke="#e2e8f0" stroke-width="1" rx="8" filter="url(#shadow)">
      <animate attributeName="opacity" values="0;1" dur="0.6s" begin="0.2s" fill="freeze"/>
      <animateTransform attributeName="transform" type="scale" values="0.8;1" dur="0.6s" begin="0.2s" fill="freeze"/>
    </rect>
    <text x="103.33333333333333" y="25" text-anchor="middle" fill="#64748b" font-size="14" font-weight="bold" font-family="Arial, sans-serif">FOLLOWERS
      <animate attributeName="opacity" values="0;1" dur="0.5s" begin="0.4s" fill="freeze"/>
    </text>
    
    <text x="103.33333333333333" y="50" text-anchor="middle" fill="#ef4444" font-size="32" font-weight="bold" font-family="Arial, sans-serif">
      ↘
      <animate attributeName="opacity" values="0;1" dur="0.5s" begin="0.6s" fill="freeze"/>
      <animateTransform attributeName="transform" type="scale" values="0;1.2;1" dur="0.8s" begin="0.6s" fill="freeze"/>
    </text>
    
    <text x="103.33333333333333" y="75" text-anchor="middle" fill="#1e293b" font-size="18" font-weight="bold" font-family="Arial, sans-serif">
      -14
      <animate attributeName="opacity" values="0;1" dur="0.5s" begin="0.8s" fill="freeze"/>
    </text>
    
    <text x="103.33333333333333" y="95" text-anchor="middle" fill="#64748b" font-size="12" font-family="Arial, sans-serif">
      #458 → #472
      <animate attributeName="opacity" values="0;1" dur="0.5s" begin="1s" fill="freeze"/>
    </text>
  </g>
  
  <!-- Public Contributions Card -->
  <g transform="translate(296.66666666666663, 100)">
    <rect width="206.66666666666666" height="120" fill="#ffffff" stroke="#e2e8f0" stroke-width="1" rx="8" filter="url(#shadow)">
      <animate attributeName="opacity" values="0;1" dur="0.6s" begin="0.4s" fill="freeze"/>
      <animateTransform attributeName="transform" type="scale" values="0.8;1" dur="0.6s" begin="0.4s" fill="freeze"/>
    </rect>
    <text x="103.33333333333333" y="25" text-anchor="middle" fill="#64748b" font-size="14" font-weight="bold" font-family="Arial, sans-serif">PUBLIC
      <animate attributeName="opacity" values="0;1" dur="0.5s" begin="0.6s" fill="freeze"/>
    </text>
    
    <text x="103.33333333333333" y="50" text-anchor="middle" fill="#6b7280" font-size="32" font-weight="bold" font-family="Arial, sans-serif">
      →
      <animate attributeName="opacity" values="0;1" dur="0.5s" begin="0.8s" fill="freeze"/>
      <animateTransform attributeName="transform" type="scale" values="0;1.2;1" dur="0.8s" begin="0.8s" fill="freeze"/>
    </text>
    
    <text x="103.33333333333333" y="75" text-anchor="middle" fill="#1e293b" font-size="18" font-weight="bold" font-family="Arial, sans-serif">
      0
      <animate attributeName="opacity" values="0;1" dur="0.5s" begin="1s" fill="freeze"/>
    </text>
    
    <text x="103.33333333333333" y="95" text-anchor="middle" fill="#64748b" font-size="12" font-family="Arial, sans-serif">
      #6 → #6
      <animate attributeName="opacity" values="0;1" dur="0.5s" begin="1.2s" fill="freeze"/>
    </text>
  </g>
  
  <!-- Total Contributions Card -->
  <g transform="translate(533.3333333333333, 100)">
    <rect width="206.66666666666666" height="120" fill="#ffffff" stroke="#e2e8f0" stroke-width="1" rx="8" filter="url(#shadow)">
      <animate attributeName="opacity" values="0;1" dur="0.6s" begin="0.6s" fill="freeze"/>
      <animateTransform attributeName="transform" type="scale" values="0.8;1" dur="0.6s" begin="0.6s" fill="freeze"/>
    </rect>
    <text x="103.33333333333333" y="25" text-anchor="middle" fill="#64748b" font-size="14" font-weight="bold" font-family="Arial, sans-serif">TOTAL
      <animate attributeName="opacity" values="0;1" dur="0.5s" begin="0.8s" fill="freeze"/>
    </text>
    
    <text x="103.33333333333333" y="50" text-anchor="middle" fill="#22c55e" font-size="32" font-weight="bold" font-family="Arial, sans-serif">
      ↗
      <animate attributeName="opacity" values="0;1" dur="0.5s" begin="1s" fill="freeze"/>
      <animateTransform attributeName="transform" type="scale" values="0;1.2;1" dur="0.8s" begin="1s" fill="freeze"/>
    </text>
    
    <text x="103.33333333333333" y="75" text-anchor="middle" fill="#1e293b" font-size="18" font-weight="bold" font-family="Arial, sans-serif">
      +5
      <animate attributeName="opacity" values="0;1" dur="0.5s" begin="1.2s" fill="freeze"/>
    </text>
    
    <text x="103.33333333333333" y="95" text-anchor="middle" fill="#64748b" font-size="12" font-family="Arial, sans-serif">
      #18 → #13
      <animate attributeName="opacity" values="0;1" dur="0.5s" begin="1.4s" fill="freeze"/>
    </text>
  </g>
  
  <!-- Timeline Charts (if we have snapshots) -->
  
  <!-- 👥 Followers Count Chart -->
  <g transform="translate(60, 250)">
    <!-- Chart Background -->
    <rect x="0" y="0" width="213.33333333333334" height="200" fill="#ffffff" stroke="#e2e8f0" stroke-width="1" rx="8" filter="url(#shadow)">
      <animate attributeName="opacity" values="0;1" dur="0.5s" begin="1.8s" fill="freeze"/>
    </rect>
    
    <!-- Chart Title -->
    <text x="106.66666666666667" y="25" text-anchor="middle" fill="#1e293b" font-size="14" font-weight="bold" font-family="Arial, sans-serif">
      👥 Followers Count
      <animate attributeName="opacity" values="0;1" dur="0.5s" begin="2s" fill="freeze"/>
    </text>
    
    <!-- Y-axis labels -->
    <text x="10" y="45" fill="#64748b" font-size="10" font-family="Arial, sans-serif">153
      <animate attributeName="opacity" values="0;1" dur="0.5s" begin="2.2s" fill="freeze"/>
    </text>
    <text x="10" y="185" fill="#64748b" font-size="10" font-family="Arial, sans-serif">149
      <animate attributeName="opacity" values="0;1" dur="0.5s" begin="2.2s" fill="freeze"/>
    </text>
    
    <!-- Chart Line with draw animation that follows the circle -->
    <path d="M 30,160 L 30.02526339897883,160 L 30.053680243503955,160 L 31.54732047688853,160 L 31.569573768754985,160 L 31.60322246611828,160 L 33.09378092317352,160 L 33.11990435275589,160 L 33.15195841004179,160 L 34.640115948328834,160 L 34.66448348209565,160 L 34.699153465800634,160 L 36.18406797202018,160 L 36.215548675570396,160 L 36.24787149241991,160 L 37.737569918871614,160 L 37.76270789672076,160 L 37.79219977950031,160 L 39.28770341252587,160 L 39.31484812844993,160 L 39.347833885556334,160 L 40.833142572469164,160 L 40.86485620097451,160 L 40.899902448068545,160 L 42.38426151785664,160 L 42.40837820936409,160 L 42.43993058213127,160 L 43.9333737251692,160 L 43.955788272773816,160 L 43.98741231475796,160 L 45.47802452372592,160 L 45.50275040357754,160 L 45.53371150530479,160 L 47.02665296382399,160 L 47.05472937956855,160 L 48.577180638171534,160 L 48.60298155627757,160 L 48.62743867656559,160 L 50.12593449939928,160 L 50.155659307133945,160 L 50.189451342931164,160 L 51.664152985733736,160 L 51.700399692211874,160 L 51.7313070420264,160 L 53.21855079779719,160 L 53.23795523828944,160 L 53.27473946389478,160 L 54.7671075686783,160 L 54.79462854799141,160 L 54.82514171711264,160 L 56.317456069983436,160 L 56.34345407843612,160 L 56.37097505774923,160 L 57.86140809367478,160 L 57.89107914949673,160 L 57.92049936305931,160 L 59.408549397520915,160 L 59.43574786535769,160 L 59.466422290217096,160 L 60.9616750809833,160 L 60.9922599193215,160 L 61.0252456764279,160 L 62.5122744245478,160 L 62.535405664322035,160 L 62.58652373331962,160 L 64.0610462030798,160 L 64.0845716235473,160 L 64.11413517554382,160 L 65.60392318851672,160 L 65.63155167165527,160 L 65.66075687756697,160 L 67.15127950001374,160 L 67.17788669681059,160 L 67.20859695627847,160 L 68.70037379002206,160 L 68.72834270194116,160 L 68.75392861239632,160 L 70.2462787998756,160 L 70.27394311762262,160 L 70.3030049851004,160 L 71.8012320483705,160 L 71.83038350236947,160 L 71.86086083688222,160 L 73.34342817624629,160 L 73.37274088598343,130 L 73.40314655127924,130 L 74.89775431909277,130 L 74.91857422662002,130 L 74.94690148462394,130 L 76.44002211618553,130 L 76.45994615850076,130 L 76.49802043001141,130 L 77.99028103096947,130 L 78.01907413888364,130 L 78.04342375534623,130 L 79.53228006849864,130 L 79.56490747952023,130 L 79.59665694263406,130 L 81.0874841592529,130 L 81.10248094290203,130 L 81.140877725889,130 L 82.6351988168347,130 L 82.66517446682874,130 L 82.70014904470582,130 L 84.18318223398013,130 L 84.20964609234306,130 L 84.24548070082368,130 L 85.7283884689683,130 L 85.75839995357082,130 L 85.79169030484931,130 L 87.27990159504907,130 L 87.30176070622224,130 L 87.33279347716643,130 L 88.82360277648105,130 L 88.84850782937508,130 L 88.88063355587795,130 L 90.37456046613036,130 L 90.40394484508445,130 L 90.42958450745233,130 L 91.92145092771713,130 L 91.95427542908536,130 L 91.9771916612087,130 L 93.47151275215441,130 L 93.50039544658978,130 L 93.53364996325979,130 L 95.02006952303553,130 L 95.04825344260553,130 L 95.08227840335786,130 L 96.56721082688165,130 L 96.59286840655376,130 L 96.62488662923118,130 L 98.11666346297477,130 L 98.14465029219812,130 L 98.17709853017732,130 L 99.66083049431701,130 L 99.69843891591741,130 L 99.72020844056938,130 L 101.2091185056345,130 L 101.2384132980674,130 L 101.26756475206639,130 L 102.75303469471737,130 L 102.78535751156689,130 L 102.81237680636127,130 L 103.89250357518384,130 L 104.30770126634444,130 L 104.3398269928473,130 L 104.37367278055724,130 L 105.85557717966441,130 L 105.8836715127132,130 L 105.91656768329841,130 L 107.40173303177733,130 L 107.42339505260385,130 L 107.45973134560319,130 L 108.95186652543158,130 L 108.97892165483444,130 L 109.01038444108042,130 L 110.50001119831515,130 L 110.53249527090283,130 L 110.56596479522372,130 L 112.0461849677323,130 L 112.07384928547934,130 L 112.11027516499988,130 L 113.5985581244166,130 L 113.62215521410107,130 L 113.65121708157885,130 L 115.14530524756942,130 L 115.17881060649881,130 L 115.21018380622358,130 L 116.6924644687198,130 L 116.72261929175623,130 L 116.75648299677042,130 L 118.23833364396486,130 L 118.2677359402232,130 L 118.30088295306777,130 L 119.7896138450905,130 L 119.81709898979513,130 L 119.84521124014817,130 L 121.33591303563733,130 L 121.36370277451404,130 L 121.39710062961797,130 L 122.87506322179227,130 L 122.91186536470187,130 L 122.94273687990791,130 L 124.43119901236703,130 L 124.45293270241052,130 L 124.49201034295862,130 L 125.98109958106616,130 L 126.01376282669624,130 L 126.04818196814188,130 L 127.53135849585011,130 L 127.56124455932293,130 L 127.59290443591556,130 L 129.07023992244143,130 L 129.10270607772486,130 L 129.1350826464871,130 L 130.62307892903598,130 L 130.65346667702755,130 L 130.68819041264527,130 L 132.17161778261286,130 L 132.199586694532,130 L 132.23045820973803,130 L 133.72080165914238,130 L 133.74072570145762,130 L 133.78963994203363,130 L 135.26622290178142,130 L 135.29637772481786,130 L 135.32612044985677,130 L 136.81714475682227,130 L 136.8513847252255,130 L 136.88254291729936,130 L 138.36444731640654,130 L 138.39460213944298,130 L 138.4293617096692,130 L 139.9103881608686,130 L 139.94002338208205,130 L 139.96702475957218,130 L 141.46079041408643,130 L 141.49141108703313,130 L 141.52294554249607,130 L 143.0135039995513,130 L 143.04231502476972,130 L 143.07073186929483,130 L 144.55575387933982,130 L 144.58655372532888,40 L 144.6186436172233,40 L 146.1095962549718,40 L 146.1309715989305,40 L 146.1604455644058,40 L 147.65378120361828,40 L 147.67768288747487,40 L 147.72009314661165,40 L 149.2036817723174,40 L 149.23516247586764,40 L 149.26280887631043,40 L 150.7454658021957,40 L 150.77995661285826,40 L 150.81373073135126,40 L 152.30305289441392,40 L 152.31831843762666,40 L 152.35968949311751,40 L 153.8480082871427,40 L 153.88063569816433,40 L 153.9174915929866,40 L 155.39618879463478,40 L 155.42693488871114,40 L 155.4663350407356,40 L 156.9418608795332,40 L 156.97455995977177,40 L 157.01270590049938,40 L 158.4984983546267,40 L 158.53492423414724,40 L 160.0406048959813,40 L 160.1172013716086,40 L 161.58891082460303,40 L 161.62698509611369,40 L 161.66312429876638,40 L 163.13658964757636,40 L 163.1767064917704,40 L 163.20431705760473,40 L 164.68792360061474,40 L 164.72150062876105,40 L 164.75919863688267,40 L 166.23053182648806,40 L 166.26409093733014,40 L 166.30184269736446,40 L 167.78095199701013,40 L 167.81393775411655,40 L 167.84932442999116,40 L 169.3344718611658,40 L 169.37781382012312,40 L 170.91676691593145,40 L 170.95779754264174,40 L 172.43407590821744,40 L 172.46790377862314,40 L 173.98618030533814,40 L 174.01499133055654,40 L 174.06243635218487,40 L 175.52237413629345,40 L 175.5553419760956,40 L 175.590639065449,40 L 177.0722926222968,40 L 177.11128067632373,40 L 177.15041206878456,40 L 178.6176063611104,40 L 178.64921248579031,40 L 178.68762718608153,40 L 180.16440723617598,40 L 180.2003314311778,40 L 180.24729268559165,40 L 181.70767840230621,40 L 181.74856569058258,40 L 181.7881450156494,40 L 183.26288249306046,40 L 183.29577866364565,40 L 183.33333333333334,40" stroke="#22c55e" stroke-width="2" fill="none" stroke-dasharray="14750" stroke-dashoffset="14750">
      <animate attributeName="stroke-dashoffset" values="14750;0" dur="3s" begin="2.6s" fill="freeze"/>
    </path>
    
    <!-- Glow effect for the line that also follows the circle -->
    <path d="M 30,160 L 30.02526339897883,160 L 30.053680243503955,160 L 31.54732047688853,160 L 31.569573768754985,160 L 31.60322246611828,160 L 33.09378092317352,160 L 33.11990435275589,160 L 33.15195841004179,160 L 34.640115948328834,160 L 34.66448348209565,160 L 34.699153465800634,160 L 36.18406797202018,160 L 36.215548675570396,160 L 36.24787149241991,160 L 37.737569918871614,160 L 37.76270789672076,160 L 37.79219977950031,160 L 39.28770341252587,160 L 39.31484812844993,160 L 39.347833885556334,160 L 40.833142572469164,160 L 40.86485620097451,160 L 40.899902448068545,160 L 42.38426151785664,160 L 42.40837820936409,160 L 42.43993058213127,160 L 43.9333737251692,160 L 43.955788272773816,160 L 43.98741231475796,160 L 45.47802452372592,160 L 45.50275040357754,160 L 45.53371150530479,160 L 47.02665296382399,160 L 47.05472937956855,160 L 48.577180638171534,160 L 48.60298155627757,160 L 48.62743867656559,160 L 50.12593449939928,160 L 50.155659307133945,160 L 50.189451342931164,160 L 51.664152985733736,160 L 51.700399692211874,160 L 51.7313070420264,160 L 53.21855079779719,160 L 53.23795523828944,160 L 53.27473946389478,160 L 54.7671075686783,160 L 54.79462854799141,160 L 54.82514171711264,160 L 56.317456069983436,160 L 56.34345407843612,160 L 56.37097505774923,160 L 57.86140809367478,160 L 57.89107914949673,160 L 57.92049936305931,160 L 59.408549397520915,160 L 59.43574786535769,160 L 59.466422290217096,160 L 60.9616750809833,160 L 60.9922599193215,160 L 61.0252456764279,160 L 62.5122744245478,160 L 62.535405664322035,160 L 62.58652373331962,160 L 64.0610462030798,160 L 64.0845716235473,160 L 64.11413517554382,160 L 65.60392318851672,160 L 65.63155167165527,160 L 65.66075687756697,160 L 67.15127950001374,160 L 67.17788669681059,160 L 67.20859695627847,160 L 68.70037379002206,160 L 68.72834270194116,160 L 68.75392861239632,160 L 70.2462787998756,160 L 70.27394311762262,160 L 70.3030049851004,160 L 71.8012320483705,160 L 71.83038350236947,160 L 71.86086083688222,160 L 73.34342817624629,160 L 73.37274088598343,130 L 73.40314655127924,130 L 74.89775431909277,130 L 74.91857422662002,130 L 74.94690148462394,130 L 76.44002211618553,130 L 76.45994615850076,130 L 76.49802043001141,130 L 77.99028103096947,130 L 78.01907413888364,130 L 78.04342375534623,130 L 79.53228006849864,130 L 79.56490747952023,130 L 79.59665694263406,130 L 81.0874841592529,130 L 81.10248094290203,130 L 81.140877725889,130 L 82.6351988168347,130 L 82.66517446682874,130 L 82.70014904470582,130 L 84.18318223398013,130 L 84.20964609234306,130 L 84.24548070082368,130 L 85.7283884689683,130 L 85.75839995357082,130 L 85.79169030484931,130 L 87.27990159504907,130 L 87.30176070622224,130 L 87.33279347716643,130 L 88.82360277648105,130 L 88.84850782937508,130 L 88.88063355587795,130 L 90.37456046613036,130 L 90.40394484508445,130 L 90.42958450745233,130 L 91.92145092771713,130 L 91.95427542908536,130 L 91.9771916612087,130 L 93.47151275215441,130 L 93.50039544658978,130 L 93.53364996325979,130 L 95.02006952303553,130 L 95.04825344260553,130 L 95.08227840335786,130 L 96.56721082688165,130 L 96.59286840655376,130 L 96.62488662923118,130 L 98.11666346297477,130 L 98.14465029219812,130 L 98.17709853017732,130 L 99.66083049431701,130 L 99.69843891591741,130 L 99.72020844056938,130 L 101.2091185056345,130 L 101.2384132980674,130 L 101.26756475206639,130 L 102.75303469471737,130 L 102.78535751156689,130 L 102.81237680636127,130 L 103.89250357518384,130 L 104.30770126634444,130 L 104.3398269928473,130 L 104.37367278055724,130 L 105.85557717966441,130 L 105.8836715127132,130 L 105.91656768329841,130 L 107.40173303177733,130 L 107.42339505260385,130 L 107.45973134560319,130 L 108.95186652543158,130 L 108.97892165483444,130 L 109.01038444108042,130 L 110.50001119831515,130 L 110.53249527090283,130 L 110.56596479522372,130 L 112.0461849677323,130 L 112.07384928547934,130 L 112.11027516499988,130 L 113.5985581244166,130 L 113.62215521410107,130 L 113.65121708157885,130 L 115.14530524756942,130 L 115.17881060649881,130 L 115.21018380622358,130 L 116.6924644687198,130 L 116.72261929175623,130 L 116.75648299677042,130 L 118.23833364396486,130 L 118.2677359402232,130 L 118.30088295306777,130 L 119.7896138450905,130 L 119.81709898979513,130 L 119.84521124014817,130 L 121.33591303563733,130 L 121.36370277451404,130 L 121.39710062961797,130 L 122.87506322179227,130 L 122.91186536470187,130 L 122.94273687990791,130 L 124.43119901236703,130 L 124.45293270241052,130 L 124.49201034295862,130 L 125.98109958106616,130 L 126.01376282669624,130 L 126.04818196814188,130 L 127.53135849585011,130 L 127.56124455932293,130 L 127.59290443591556,130 L 129.07023992244143,130 L 129.10270607772486,130 L 129.1350826464871,130 L 130.62307892903598,130 L 130.65346667702755,130 L 130.68819041264527,130 L 132.17161778261286,130 L 132.199586694532,130 L 132.23045820973803,130 L 133.72080165914238,130 L 133.74072570145762,130 L 133.78963994203363,130 L 135.26622290178142,130 L 135.29637772481786,130 L 135.32612044985677,130 L 136.81714475682227,130 L 136.8513847252255,130 L 136.88254291729936,130 L 138.36444731640654,130 L 138.39460213944298,130 L 138.4293617096692,130 L 139.9103881608686,130 L 139.94002338208205,130 L 139.96702475957218,130 L 141.46079041408643,130 L 141.49141108703313,130 L 141.52294554249607,130 L 143.0135039995513,130 L 143.04231502476972,130 L 143.07073186929483,130 L 144.55575387933982,130 L 144.58655372532888,40 L 144.6186436172233,40 L 146.1095962549718,40 L 146.1309715989305,40 L 146.1604455644058,40 L 147.65378120361828,40 L 147.67768288747487,40 L 147.72009314661165,40 L 149.2036817723174,40 L 149.23516247586764,40 L 149.26280887631043,40 L 150.7454658021957,40 L 150.77995661285826,40 L 150.81373073135126,40 L 152.30305289441392,40 L 152.31831843762666,40 L 152.35968949311751,40 L 153.8480082871427,40 L 153.88063569816433,40 L 153.9174915929866,40 L 155.39618879463478,40 L 155.42693488871114,40 L 155.4663350407356,40 L 156.9418608795332,40 L 156.97455995977177,40 L 157.01270590049938,40 L 158.4984983546267,40 L 158.53492423414724,40 L 160.0406048959813,40 L 160.1172013716086,40 L 161.58891082460303,40 L 161.62698509611369,40 L 161.66312429876638,40 L 163.13658964757636,40 L 163.1767064917704,40 L 163.20431705760473,40 L 164.68792360061474,40 L 164.72150062876105,40 L 164.75919863688267,40 L 166.23053182648806,40 L 166.26409093733014,40 L 166.30184269736446,40 L 167.78095199701013,40 L 167.81393775411655,40 L 167.84932442999116,40 L 169.3344718611658,40 L 169.37781382012312,40 L 170.91676691593145,40 L 170.95779754264174,40 L 172.43407590821744,40 L 172.46790377862314,40 L 173.98618030533814,40 L 174.01499133055654,40 L 174.06243635218487,40 L 175.52237413629345,40 L 175.5553419760956,40 L 175.590639065449,40 L 177.0722926222968,40 L 177.11128067632373,40 L 177.15041206878456,40 L 178.6176063611104,40 L 178.64921248579031,40 L 178.68762718608153,40 L 180.16440723617598,40 L 180.2003314311778,40 L 180.24729268559165,40 L 181.70767840230621,40 L 181.74856569058258,40 L 181.7881450156494,40 L 183.26288249306046,40 L 183.29577866364565,40 L 183.33333333333334,40" stroke="#22c55e" stroke-width="4" fill="none" opacity="0.4" stroke-dasharray="14750" stroke-dashoffset="14750">
      <animate attributeName="stroke-dashoffset" values="14750;0" dur="3s" begin="2.6s" fill="freeze"/>
    </path>
    
    <!-- Animated circle that moves along the path and draws the line -->
    <circle r="5" fill="#22c55e" opacity="0" filter="url(#trailGlow)">
      <animate attributeName="opacity" values="0;1;1;1" dur="3.2s" begin="2.4s" fill="freeze"/>
      <animate attributeName="r" values="5;6;5" dur="1s" begin="2.4s" repeatCount="3"/>
      <animateMotion dur="3s" begin="2.4s" fill="freeze">
        <mpath href="#path_followersCount_60"/>
      </animateMotion>
    </circle>
    
    <!-- Small trail dots that fade out -->
    <circle r="2" fill="#22c55e" opacity="0">
      <animate attributeName="opacity" values="0;0.6;0" dur="0.8s" begin="2.8s" fill="freeze"/>
      <animateMotion dur="3s" begin="2.4s" fill="freeze">
        <mpath href="#path_followersCount_60"/>
      </animateMotion>
    </circle>
    
    <!-- Hidden path for motion animation -->
    <path id="path_followersCount_60" d="M 30,160 L 30.02526339897883,160 L 30.053680243503955,160 L 31.54732047688853,160 L 31.569573768754985,160 L 31.60322246611828,160 L 33.09378092317352,160 L 33.11990435275589,160 L 33.15195841004179,160 L 34.640115948328834,160 L 34.66448348209565,160 L 34.699153465800634,160 L 36.18406797202018,160 L 36.215548675570396,160 L 36.24787149241991,160 L 37.737569918871614,160 L 37.76270789672076,160 L 37.79219977950031,160 L 39.28770341252587,160 L 39.31484812844993,160 L 39.347833885556334,160 L 40.833142572469164,160 L 40.86485620097451,160 L 40.899902448068545,160 L 42.38426151785664,160 L 42.40837820936409,160 L 42.43993058213127,160 L 43.9333737251692,160 L 43.955788272773816,160 L 43.98741231475796,160 L 45.47802452372592,160 L 45.50275040357754,160 L 45.53371150530479,160 L 47.02665296382399,160 L 47.05472937956855,160 L 48.577180638171534,160 L 48.60298155627757,160 L 48.62743867656559,160 L 50.12593449939928,160 L 50.155659307133945,160 L 50.189451342931164,160 L 51.664152985733736,160 L 51.700399692211874,160 L 51.7313070420264,160 L 53.21855079779719,160 L 53.23795523828944,160 L 53.27473946389478,160 L 54.7671075686783,160 L 54.79462854799141,160 L 54.82514171711264,160 L 56.317456069983436,160 L 56.34345407843612,160 L 56.37097505774923,160 L 57.86140809367478,160 L 57.89107914949673,160 L 57.92049936305931,160 L 59.408549397520915,160 L 59.43574786535769,160 L 59.466422290217096,160 L 60.9616750809833,160 L 60.9922599193215,160 L 61.0252456764279,160 L 62.5122744245478,160 L 62.535405664322035,160 L 62.58652373331962,160 L 64.0610462030798,160 L 64.0845716235473,160 L 64.11413517554382,160 L 65.60392318851672,160 L 65.63155167165527,160 L 65.66075687756697,160 L 67.15127950001374,160 L 67.17788669681059,160 L 67.20859695627847,160 L 68.70037379002206,160 L 68.72834270194116,160 L 68.75392861239632,160 L 70.2462787998756,160 L 70.27394311762262,160 L 70.3030049851004,160 L 71.8012320483705,160 L 71.83038350236947,160 L 71.86086083688222,160 L 73.34342817624629,160 L 73.37274088598343,130 L 73.40314655127924,130 L 74.89775431909277,130 L 74.91857422662002,130 L 74.94690148462394,130 L 76.44002211618553,130 L 76.45994615850076,130 L 76.49802043001141,130 L 77.99028103096947,130 L 78.01907413888364,130 L 78.04342375534623,130 L 79.53228006849864,130 L 79.56490747952023,130 L 79.59665694263406,130 L 81.0874841592529,130 L 81.10248094290203,130 L 81.140877725889,130 L 82.6351988168347,130 L 82.66517446682874,130 L 82.70014904470582,130 L 84.18318223398013,130 L 84.20964609234306,130 L 84.24548070082368,130 L 85.7283884689683,130 L 85.75839995357082,130 L 85.79169030484931,130 L 87.27990159504907,130 L 87.30176070622224,130 L 87.33279347716643,130 L 88.82360277648105,130 L 88.84850782937508,130 L 88.88063355587795,130 L 90.37456046613036,130 L 90.40394484508445,130 L 90.42958450745233,130 L 91.92145092771713,130 L 91.95427542908536,130 L 91.9771916612087,130 L 93.47151275215441,130 L 93.50039544658978,130 L 93.53364996325979,130 L 95.02006952303553,130 L 95.04825344260553,130 L 95.08227840335786,130 L 96.56721082688165,130 L 96.59286840655376,130 L 96.62488662923118,130 L 98.11666346297477,130 L 98.14465029219812,130 L 98.17709853017732,130 L 99.66083049431701,130 L 99.69843891591741,130 L 99.72020844056938,130 L 101.2091185056345,130 L 101.2384132980674,130 L 101.26756475206639,130 L 102.75303469471737,130 L 102.78535751156689,130 L 102.81237680636127,130 L 103.89250357518384,130 L 104.30770126634444,130 L 104.3398269928473,130 L 104.37367278055724,130 L 105.85557717966441,130 L 105.8836715127132,130 L 105.91656768329841,130 L 107.40173303177733,130 L 107.42339505260385,130 L 107.45973134560319,130 L 108.95186652543158,130 L 108.97892165483444,130 L 109.01038444108042,130 L 110.50001119831515,130 L 110.53249527090283,130 L 110.56596479522372,130 L 112.0461849677323,130 L 112.07384928547934,130 L 112.11027516499988,130 L 113.5985581244166,130 L 113.62215521410107,130 L 113.65121708157885,130 L 115.14530524756942,130 L 115.17881060649881,130 L 115.21018380622358,130 L 116.6924644687198,130 L 116.72261929175623,130 L 116.75648299677042,130 L 118.23833364396486,130 L 118.2677359402232,130 L 118.30088295306777,130 L 119.7896138450905,130 L 119.81709898979513,130 L 119.84521124014817,130 L 121.33591303563733,130 L 121.36370277451404,130 L 121.39710062961797,130 L 122.87506322179227,130 L 122.91186536470187,130 L 122.94273687990791,130 L 124.43119901236703,130 L 124.45293270241052,130 L 124.49201034295862,130 L 125.98109958106616,130 L 126.01376282669624,130 L 126.04818196814188,130 L 127.53135849585011,130 L 127.56124455932293,130 L 127.59290443591556,130 L 129.07023992244143,130 L 129.10270607772486,130 L 129.1350826464871,130 L 130.62307892903598,130 L 130.65346667702755,130 L 130.68819041264527,130 L 132.17161778261286,130 L 132.199586694532,130 L 132.23045820973803,130 L 133.72080165914238,130 L 133.74072570145762,130 L 133.78963994203363,130 L 135.26622290178142,130 L 135.29637772481786,130 L 135.32612044985677,130 L 136.81714475682227,130 L 136.8513847252255,130 L 136.88254291729936,130 L 138.36444731640654,130 L 138.39460213944298,130 L 138.4293617096692,130 L 139.9103881608686,130 L 139.94002338208205,130 L 139.96702475957218,130 L 141.46079041408643,130 L 141.49141108703313,130 L 141.52294554249607,130 L 143.0135039995513,130 L 143.04231502476972,130 L 143.07073186929483,130 L 144.55575387933982,130 L 144.58655372532888,40 L 144.6186436172233,40 L 146.1095962549718,40 L 146.1309715989305,40 L 146.1604455644058,40 L 147.65378120361828,40 L 147.67768288747487,40 L 147.72009314661165,40 L 149.2036817723174,40 L 149.23516247586764,40 L 149.26280887631043,40 L 150.7454658021957,40 L 150.77995661285826,40 L 150.81373073135126,40 L 152.30305289441392,40 L 152.31831843762666,40 L 152.35968949311751,40 L 153.8480082871427,40 L 153.88063569816433,40 L 153.9174915929866,40 L 155.39618879463478,40 L 155.42693488871114,40 L 155.4663350407356,40 L 156.9418608795332,40 L 156.97455995977177,40 L 157.01270590049938,40 L 158.4984983546267,40 L 158.53492423414724,40 L 160.0406048959813,40 L 160.1172013716086,40 L 161.58891082460303,40 L 161.62698509611369,40 L 161.66312429876638,40 L 163.13658964757636,40 L 163.1767064917704,40 L 163.20431705760473,40 L 164.68792360061474,40 L 164.72150062876105,40 L 164.75919863688267,40 L 166.23053182648806,40 L 166.26409093733014,40 L 166.30184269736446,40 L 167.78095199701013,40 L 167.81393775411655,40 L 167.84932442999116,40 L 169.3344718611658,40 L 169.37781382012312,40 L 170.91676691593145,40 L 170.95779754264174,40 L 172.43407590821744,40 L 172.46790377862314,40 L 173.98618030533814,40 L 174.01499133055654,40 L 174.06243635218487,40 L 175.52237413629345,40 L 175.5553419760956,40 L 175.590639065449,40 L 177.0722926222968,40 L 177.11128067632373,40 L 177.15041206878456,40 L 178.6176063611104,40 L 178.64921248579031,40 L 178.68762718608153,40 L 180.16440723617598,40 L 180.2003314311778,40 L 180.24729268559165,40 L 181.70767840230621,40 L 181.74856569058258,40 L 181.7881450156494,40 L 183.26288249306046,40 L 183.29577866364565,40 L 183.33333333333334,40" fill="none" stroke="none"/>
  </g>
  <!-- 🔓 Public Contributions Chart -->
  <g transform="translate(293.33333333333337, 250)">
    <!-- Chart Background -->
    <rect x="0" y="0" width="213.33333333333334" height="200" fill="#ffffff" stroke="#e2e8f0" stroke-width="1" rx="8" filter="url(#shadow)">
      <animate attributeName="opacity" values="0;1" dur="0.5s" begin="2.3s" fill="freeze"/>
    </rect>
    
    <!-- Chart Title -->
    <text x="106.66666666666667" y="25" text-anchor="middle" fill="#1e293b" font-size="14" font-weight="bold" font-family="Arial, sans-serif">
      🔓 Public Contributions
      <animate attributeName="opacity" values="0;1" dur="0.5s" begin="2.5s" fill="freeze"/>
    </text>
    
    <!-- Y-axis labels -->
    <text x="10" y="45" fill="#64748b" font-size="10" font-family="Arial, sans-serif">3,861
      <animate attributeName="opacity" values="0;1" dur="0.5s" begin="2.6999999999999997s" fill="freeze"/>
    </text>
    <text x="10" y="185" fill="#64748b" font-size="10" font-family="Arial, sans-serif">3,180
      <animate attributeName="opacity" values="0;1" dur="0.5s" begin="2.6999999999999997s" fill="freeze"/>
    </text>
    
    <!-- Chart Line with draw animation that follows the circle -->
    <path d="M 30,160 L 30.02526339897883,160 L 30.053680243503955,160 L 31.54732047688853,160 L 31.569573768754985,160 L 31.60322246611828,160 L 33.09378092317352,160 L 33.11990435275589,160 L 33.15195841004179,160 L 34.640115948328834,160 L 34.66448348209565,160 L 34.699153465800634,160 L 36.18406797202018,160 L 36.215548675570396,160 L 36.24787149241991,160 L 37.737569918871614,160 L 37.76270789672076,160 L 37.79219977950031,160 L 39.28770341252587,160 L 39.31484812844993,160 L 39.347833885556334,160 L 40.833142572469164,160 L 40.86485620097451,160 L 40.899902448068545,160 L 42.38426151785664,160 L 42.40837820936409,160 L 42.43993058213127,160 L 43.9333737251692,160 L 43.955788272773816,160 L 43.98741231475796,160 L 45.47802452372592,160 L 45.50275040357754,160 L 45.53371150530479,160 L 47.02665296382399,160 L 47.05472937956855,160 L 48.577180638171534,160 L 48.60298155627757,160 L 48.62743867656559,160 L 50.12593449939928,160 L 50.155659307133945,160 L 50.189451342931164,160 L 51.664152985733736,160 L 51.700399692211874,160 L 51.7313070420264,160 L 53.21855079779719,160 L 53.23795523828944,160 L 53.27473946389478,160 L 54.7671075686783,160 L 54.79462854799141,160 L 54.82514171711264,160 L 56.317456069983436,160 L 56.34345407843612,160 L 56.37097505774923,160 L 57.86140809367478,160 L 57.89107914949673,160 L 57.92049936305931,160 L 59.408549397520915,160 L 59.43574786535769,160 L 59.466422290217096,160 L 60.9616750809833,160 L 60.9922599193215,160 L 61.0252456764279,160 L 62.5122744245478,160 L 62.535405664322035,160 L 62.58652373331962,160 L 64.0610462030798,160 L 64.0845716235473,160 L 64.11413517554382,160 L 65.60392318851672,160 L 65.63155167165527,160 L 65.66075687756697,160 L 67.15127950001374,160 L 67.17788669681059,160 L 67.20859695627847,160 L 68.70037379002206,160 L 68.72834270194116,160 L 68.75392861239632,160 L 70.2462787998756,160 L 70.27394311762262,160 L 70.3030049851004,160 L 71.8012320483705,160 L 71.83038350236947,160 L 71.86086083688222,160 L 73.34342817624629,160 L 73.37274088598343,115.24229074889868 L 73.40314655127924,115.24229074889868 L 74.89775431909277,115.24229074889868 L 74.91857422662002,115.24229074889868 L 74.94690148462394,115.24229074889868 L 76.44002211618553,115.24229074889868 L 76.45994615850076,115.24229074889868 L 76.49802043001141,115.24229074889868 L 77.99028103096947,115.24229074889868 L 78.01907413888364,115.24229074889868 L 78.04342375534623,115.24229074889868 L 79.53228006849864,115.24229074889868 L 79.56490747952023,115.24229074889868 L 79.59665694263406,115.24229074889868 L 81.0874841592529,115.24229074889868 L 81.10248094290203,115.24229074889868 L 81.140877725889,115.24229074889868 L 82.6351988168347,115.24229074889868 L 82.66517446682874,115.24229074889868 L 82.70014904470582,115.24229074889868 L 84.18318223398013,115.24229074889868 L 84.20964609234306,115.24229074889868 L 84.24548070082368,115.24229074889868 L 85.7283884689683,115.24229074889868 L 85.75839995357082,115.24229074889868 L 85.79169030484931,115.24229074889868 L 87.27990159504907,115.24229074889868 L 87.30176070622224,115.24229074889868 L 87.33279347716643,115.24229074889868 L 88.82360277648105,115.24229074889868 L 88.84850782937508,115.24229074889868 L 88.88063355587795,115.24229074889868 L 90.37456046613036,115.24229074889868 L 90.40394484508445,115.24229074889868 L 90.42958450745233,115.24229074889868 L 91.92145092771713,115.24229074889868 L 91.95427542908536,115.24229074889868 L 91.9771916612087,115.24229074889868 L 93.47151275215441,115.24229074889868 L 93.50039544658978,115.24229074889868 L 93.53364996325979,115.24229074889868 L 95.02006952303553,115.24229074889868 L 95.04825344260553,115.24229074889868 L 95.08227840335786,115.24229074889868 L 96.56721082688165,115.24229074889868 L 96.59286840655376,115.24229074889868 L 96.62488662923118,115.24229074889868 L 98.11666346297477,115.24229074889868 L 98.14465029219812,115.24229074889868 L 98.17709853017732,115.24229074889868 L 99.66083049431701,115.24229074889868 L 99.69843891591741,115.24229074889868 L 99.72020844056938,115.24229074889868 L 101.2091185056345,115.24229074889868 L 101.2384132980674,115.24229074889868 L 101.26756475206639,115.24229074889868 L 102.75303469471737,115.24229074889868 L 102.78535751156689,115.24229074889868 L 102.81237680636127,115.24229074889868 L 103.89250357518384,115.24229074889868 L 104.30770126634444,115.24229074889868 L 104.3398269928473,115.24229074889868 L 104.37367278055724,115.24229074889868 L 105.85557717966441,115.24229074889868 L 105.8836715127132,115.24229074889868 L 105.91656768329841,115.24229074889868 L 107.40173303177733,115.24229074889868 L 107.42339505260385,115.24229074889868 L 107.45973134560319,115.24229074889868 L 108.95186652543158,115.24229074889868 L 108.97892165483444,115.24229074889868 L 109.01038444108042,115.24229074889868 L 110.50001119831515,115.24229074889868 L 110.53249527090283,115.24229074889868 L 110.56596479522372,115.24229074889868 L 112.0461849677323,115.24229074889868 L 112.07384928547934,115.24229074889868 L 112.11027516499988,115.24229074889868 L 113.5985581244166,115.24229074889868 L 113.62215521410107,115.24229074889868 L 113.65121708157885,115.24229074889868 L 115.14530524756942,115.24229074889868 L 115.17881060649881,115.24229074889868 L 115.21018380622358,115.24229074889868 L 116.6924644687198,115.24229074889868 L 116.72261929175623,115.24229074889868 L 116.75648299677042,115.24229074889868 L 118.23833364396486,115.24229074889868 L 118.2677359402232,115.24229074889868 L 118.30088295306777,115.24229074889868 L 119.7896138450905,115.24229074889868 L 119.81709898979513,115.24229074889868 L 119.84521124014817,115.24229074889868 L 121.33591303563733,115.24229074889868 L 121.36370277451404,115.24229074889868 L 121.39710062961797,115.24229074889868 L 122.87506322179227,115.24229074889868 L 122.91186536470187,115.24229074889868 L 122.94273687990791,115.24229074889868 L 124.43119901236703,115.24229074889868 L 124.45293270241052,115.24229074889868 L 124.49201034295862,115.24229074889868 L 125.98109958106616,115.24229074889868 L 126.01376282669624,115.24229074889868 L 126.04818196814188,115.24229074889868 L 127.53135849585011,115.24229074889868 L 127.56124455932293,115.24229074889868 L 127.59290443591556,115.24229074889868 L 129.07023992244143,115.24229074889868 L 129.10270607772486,115.24229074889868 L 129.1350826464871,115.24229074889868 L 130.62307892903598,115.24229074889868 L 130.65346667702755,115.24229074889868 L 130.68819041264527,115.24229074889868 L 132.17161778261286,115.24229074889868 L 132.199586694532,115.24229074889868 L 132.23045820973803,115.24229074889868 L 133.72080165914238,115.24229074889868 L 133.74072570145762,115.24229074889868 L 133.78963994203363,115.24229074889868 L 135.26622290178142,115.24229074889868 L 135.29637772481786,115.24229074889868 L 135.32612044985677,115.24229074889868 L 136.81714475682227,115.24229074889868 L 136.8513847252255,115.24229074889868 L 136.88254291729936,115.24229074889868 L 138.36444731640654,115.24229074889868 L 138.39460213944298,115.24229074889868 L 138.4293617096692,115.24229074889868 L 139.9103881608686,115.24229074889868 L 139.94002338208205,115.24229074889868 L 139.96702475957218,115.24229074889868 L 141.46079041408643,115.24229074889868 L 141.49141108703313,115.24229074889868 L 141.52294554249607,115.24229074889868 L 143.0135039995513,115.24229074889868 L 143.04231502476972,115.24229074889868 L 143.07073186929483,115.24229074889868 L 144.55575387933982,115.24229074889868 L 144.58655372532888,40 L 144.6186436172233,40 L 146.1095962549718,40 L 146.1309715989305,40 L 146.1604455644058,40 L 147.65378120361828,40 L 147.67768288747487,40 L 147.72009314661165,40 L 149.2036817723174,40 L 149.23516247586764,40 L 149.26280887631043,40 L 150.7454658021957,40 L 150.77995661285826,40 L 150.81373073135126,40 L 152.30305289441392,40 L 152.31831843762666,40 L 152.35968949311751,40 L 153.8480082871427,40 L 153.88063569816433,40 L 153.9174915929866,40 L 155.39618879463478,40 L 155.42693488871114,40 L 155.4663350407356,40 L 156.9418608795332,40 L 156.97455995977177,40 L 157.01270590049938,40 L 158.4984983546267,40 L 158.53492423414724,40 L 160.0406048959813,40 L 160.1172013716086,40 L 161.58891082460303,40 L 161.62698509611369,40 L 161.66312429876638,40 L 163.13658964757636,40 L 163.1767064917704,40 L 163.20431705760473,40 L 164.68792360061474,40 L 164.72150062876105,40 L 164.75919863688267,40 L 166.23053182648806,40 L 166.26409093733014,40 L 166.30184269736446,40 L 167.78095199701013,40 L 167.81393775411655,40 L 167.84932442999116,40 L 169.3344718611658,40 L 169.37781382012312,40 L 170.91676691593145,40 L 170.95779754264174,40 L 172.43407590821744,40 L 172.46790377862314,40 L 173.98618030533814,40 L 174.01499133055654,40 L 174.06243635218487,40 L 175.52237413629345,40 L 175.5553419760956,40 L 175.590639065449,40 L 177.0722926222968,40 L 177.11128067632373,40 L 177.15041206878456,40 L 178.6176063611104,40 L 178.64921248579031,40 L 178.68762718608153,40 L 180.16440723617598,40 L 180.2003314311778,40 L 180.24729268559165,40 L 181.70767840230621,40 L 181.74856569058258,40 L 181.7881450156494,40 L 183.26288249306046,40 L 183.29577866364565,40 L 183.33333333333334,40" stroke="#3b82f6" stroke-width="2" fill="none" stroke-dasharray="14750" stroke-dashoffset="14750">
      <animate attributeName="stroke-dashoffset" values="14750;0" dur="3s" begin="3.0999999999999996s" fill="freeze"/>
    </path>
    
    <!-- Glow effect for the line that also follows the circle -->
    <path d="M 30,160 L 30.02526339897883,160 L 30.053680243503955,160 L 31.54732047688853,160 L 31.569573768754985,160 L 31.60322246611828,160 L 33.09378092317352,160 L 33.11990435275589,160 L 33.15195841004179,160 L 34.640115948328834,160 L 34.66448348209565,160 L 34.699153465800634,160 L 36.18406797202018,160 L 36.215548675570396,160 L 36.24787149241991,160 L 37.737569918871614,160 L 37.76270789672076,160 L 37.79219977950031,160 L 39.28770341252587,160 L 39.31484812844993,160 L 39.347833885556334,160 L 40.833142572469164,160 L 40.86485620097451,160 L 40.899902448068545,160 L 42.38426151785664,160 L 42.40837820936409,160 L 42.43993058213127,160 L 43.9333737251692,160 L 43.955788272773816,160 L 43.98741231475796,160 L 45.47802452372592,160 L 45.50275040357754,160 L 45.53371150530479,160 L 47.02665296382399,160 L 47.05472937956855,160 L 48.577180638171534,160 L 48.60298155627757,160 L 48.62743867656559,160 L 50.12593449939928,160 L 50.155659307133945,160 L 50.189451342931164,160 L 51.664152985733736,160 L 51.700399692211874,160 L 51.7313070420264,160 L 53.21855079779719,160 L 53.23795523828944,160 L 53.27473946389478,160 L 54.7671075686783,160 L 54.79462854799141,160 L 54.82514171711264,160 L 56.317456069983436,160 L 56.34345407843612,160 L 56.37097505774923,160 L 57.86140809367478,160 L 57.89107914949673,160 L 57.92049936305931,160 L 59.408549397520915,160 L 59.43574786535769,160 L 59.466422290217096,160 L 60.9616750809833,160 L 60.9922599193215,160 L 61.0252456764279,160 L 62.5122744245478,160 L 62.535405664322035,160 L 62.58652373331962,160 L 64.0610462030798,160 L 64.0845716235473,160 L 64.11413517554382,160 L 65.60392318851672,160 L 65.63155167165527,160 L 65.66075687756697,160 L 67.15127950001374,160 L 67.17788669681059,160 L 67.20859695627847,160 L 68.70037379002206,160 L 68.72834270194116,160 L 68.75392861239632,160 L 70.2462787998756,160 L 70.27394311762262,160 L 70.3030049851004,160 L 71.8012320483705,160 L 71.83038350236947,160 L 71.86086083688222,160 L 73.34342817624629,160 L 73.37274088598343,115.24229074889868 L 73.40314655127924,115.24229074889868 L 74.89775431909277,115.24229074889868 L 74.91857422662002,115.24229074889868 L 74.94690148462394,115.24229074889868 L 76.44002211618553,115.24229074889868 L 76.45994615850076,115.24229074889868 L 76.49802043001141,115.24229074889868 L 77.99028103096947,115.24229074889868 L 78.01907413888364,115.24229074889868 L 78.04342375534623,115.24229074889868 L 79.53228006849864,115.24229074889868 L 79.56490747952023,115.24229074889868 L 79.59665694263406,115.24229074889868 L 81.0874841592529,115.24229074889868 L 81.10248094290203,115.24229074889868 L 81.140877725889,115.24229074889868 L 82.6351988168347,115.24229074889868 L 82.66517446682874,115.24229074889868 L 82.70014904470582,115.24229074889868 L 84.18318223398013,115.24229074889868 L 84.20964609234306,115.24229074889868 L 84.24548070082368,115.24229074889868 L 85.7283884689683,115.24229074889868 L 85.75839995357082,115.24229074889868 L 85.79169030484931,115.24229074889868 L 87.27990159504907,115.24229074889868 L 87.30176070622224,115.24229074889868 L 87.33279347716643,115.24229074889868 L 88.82360277648105,115.24229074889868 L 88.84850782937508,115.24229074889868 L 88.88063355587795,115.24229074889868 L 90.37456046613036,115.24229074889868 L 90.40394484508445,115.24229074889868 L 90.42958450745233,115.24229074889868 L 91.92145092771713,115.24229074889868 L 91.95427542908536,115.24229074889868 L 91.9771916612087,115.24229074889868 L 93.47151275215441,115.24229074889868 L 93.50039544658978,115.24229074889868 L 93.53364996325979,115.24229074889868 L 95.02006952303553,115.24229074889868 L 95.04825344260553,115.24229074889868 L 95.08227840335786,115.24229074889868 L 96.56721082688165,115.24229074889868 L 96.59286840655376,115.24229074889868 L 96.62488662923118,115.24229074889868 L 98.11666346297477,115.24229074889868 L 98.14465029219812,115.24229074889868 L 98.17709853017732,115.24229074889868 L 99.66083049431701,115.24229074889868 L 99.69843891591741,115.24229074889868 L 99.72020844056938,115.24229074889868 L 101.2091185056345,115.24229074889868 L 101.2384132980674,115.24229074889868 L 101.26756475206639,115.24229074889868 L 102.75303469471737,115.24229074889868 L 102.78535751156689,115.24229074889868 L 102.81237680636127,115.24229074889868 L 103.89250357518384,115.24229074889868 L 104.30770126634444,115.24229074889868 L 104.3398269928473,115.24229074889868 L 104.37367278055724,115.24229074889868 L 105.85557717966441,115.24229074889868 L 105.8836715127132,115.24229074889868 L 105.91656768329841,115.24229074889868 L 107.40173303177733,115.24229074889868 L 107.42339505260385,115.24229074889868 L 107.45973134560319,115.24229074889868 L 108.95186652543158,115.24229074889868 L 108.97892165483444,115.24229074889868 L 109.01038444108042,115.24229074889868 L 110.50001119831515,115.24229074889868 L 110.53249527090283,115.24229074889868 L 110.56596479522372,115.24229074889868 L 112.0461849677323,115.24229074889868 L 112.07384928547934,115.24229074889868 L 112.11027516499988,115.24229074889868 L 113.5985581244166,115.24229074889868 L 113.62215521410107,115.24229074889868 L 113.65121708157885,115.24229074889868 L 115.14530524756942,115.24229074889868 L 115.17881060649881,115.24229074889868 L 115.21018380622358,115.24229074889868 L 116.6924644687198,115.24229074889868 L 116.72261929175623,115.24229074889868 L 116.75648299677042,115.24229074889868 L 118.23833364396486,115.24229074889868 L 118.2677359402232,115.24229074889868 L 118.30088295306777,115.24229074889868 L 119.7896138450905,115.24229074889868 L 119.81709898979513,115.24229074889868 L 119.84521124014817,115.24229074889868 L 121.33591303563733,115.24229074889868 L 121.36370277451404,115.24229074889868 L 121.39710062961797,115.24229074889868 L 122.87506322179227,115.24229074889868 L 122.91186536470187,115.24229074889868 L 122.94273687990791,115.24229074889868 L 124.43119901236703,115.24229074889868 L 124.45293270241052,115.24229074889868 L 124.49201034295862,115.24229074889868 L 125.98109958106616,115.24229074889868 L 126.01376282669624,115.24229074889868 L 126.04818196814188,115.24229074889868 L 127.53135849585011,115.24229074889868 L 127.56124455932293,115.24229074889868 L 127.59290443591556,115.24229074889868 L 129.07023992244143,115.24229074889868 L 129.10270607772486,115.24229074889868 L 129.1350826464871,115.24229074889868 L 130.62307892903598,115.24229074889868 L 130.65346667702755,115.24229074889868 L 130.68819041264527,115.24229074889868 L 132.17161778261286,115.24229074889868 L 132.199586694532,115.24229074889868 L 132.23045820973803,115.24229074889868 L 133.72080165914238,115.24229074889868 L 133.74072570145762,115.24229074889868 L 133.78963994203363,115.24229074889868 L 135.26622290178142,115.24229074889868 L 135.29637772481786,115.24229074889868 L 135.32612044985677,115.24229074889868 L 136.81714475682227,115.24229074889868 L 136.8513847252255,115.24229074889868 L 136.88254291729936,115.24229074889868 L 138.36444731640654,115.24229074889868 L 138.39460213944298,115.24229074889868 L 138.4293617096692,115.24229074889868 L 139.9103881608686,115.24229074889868 L 139.94002338208205,115.24229074889868 L 139.96702475957218,115.24229074889868 L 141.46079041408643,115.24229074889868 L 141.49141108703313,115.24229074889868 L 141.52294554249607,115.24229074889868 L 143.0135039995513,115.24229074889868 L 143.04231502476972,115.24229074889868 L 143.07073186929483,115.24229074889868 L 144.55575387933982,115.24229074889868 L 144.58655372532888,40 L 144.6186436172233,40 L 146.1095962549718,40 L 146.1309715989305,40 L 146.1604455644058,40 L 147.65378120361828,40 L 147.67768288747487,40 L 147.72009314661165,40 L 149.2036817723174,40 L 149.23516247586764,40 L 149.26280887631043,40 L 150.7454658021957,40 L 150.77995661285826,40 L 150.81373073135126,40 L 152.30305289441392,40 L 152.31831843762666,40 L 152.35968949311751,40 L 153.8480082871427,40 L 153.88063569816433,40 L 153.9174915929866,40 L 155.39618879463478,40 L 155.42693488871114,40 L 155.4663350407356,40 L 156.9418608795332,40 L 156.97455995977177,40 L 157.01270590049938,40 L 158.4984983546267,40 L 158.53492423414724,40 L 160.0406048959813,40 L 160.1172013716086,40 L 161.58891082460303,40 L 161.62698509611369,40 L 161.66312429876638,40 L 163.13658964757636,40 L 163.1767064917704,40 L 163.20431705760473,40 L 164.68792360061474,40 L 164.72150062876105,40 L 164.75919863688267,40 L 166.23053182648806,40 L 166.26409093733014,40 L 166.30184269736446,40 L 167.78095199701013,40 L 167.81393775411655,40 L 167.84932442999116,40 L 169.3344718611658,40 L 169.37781382012312,40 L 170.91676691593145,40 L 170.95779754264174,40 L 172.43407590821744,40 L 172.46790377862314,40 L 173.98618030533814,40 L 174.01499133055654,40 L 174.06243635218487,40 L 175.52237413629345,40 L 175.5553419760956,40 L 175.590639065449,40 L 177.0722926222968,40 L 177.11128067632373,40 L 177.15041206878456,40 L 178.6176063611104,40 L 178.64921248579031,40 L 178.68762718608153,40 L 180.16440723617598,40 L 180.2003314311778,40 L 180.24729268559165,40 L 181.70767840230621,40 L 181.74856569058258,40 L 181.7881450156494,40 L 183.26288249306046,40 L 183.29577866364565,40 L 183.33333333333334,40" stroke="#3b82f6" stroke-width="4" fill="none" opacity="0.4" stroke-dasharray="14750" stroke-dashoffset="14750">
      <animate attributeName="stroke-dashoffset" values="14750;0" dur="3s" begin="3.0999999999999996s" fill="freeze"/>
    </path>
    
    <!-- Animated circle that moves along the path and draws the line -->
    <circle r="5" fill="#3b82f6" opacity="0" filter="url(#trailGlow)">
      <animate attributeName="opacity" values="0;1;1;1" dur="3.2s" begin="2.9s" fill="freeze"/>
      <animate attributeName="r" values="5;6;5" dur="1s" begin="2.9s" repeatCount="3"/>
      <animateMotion dur="3s" begin="2.9s" fill="freeze">
        <mpath href="#path_publicContributions_293.33333333333337"/>
      </animateMotion>
    </circle>
    
    <!-- Small trail dots that fade out -->
    <circle r="2" fill="#3b82f6" opacity="0">
      <animate attributeName="opacity" values="0;0.6;0" dur="0.8s" begin="3.3s" fill="freeze"/>
      <animateMotion dur="3s" begin="2.9s" fill="freeze">
        <mpath href="#path_publicContributions_293.33333333333337"/>
      </animateMotion>
    </circle>
    
    <!-- Hidden path for motion animation -->
    <path id="path_publicContributions_293.33333333333337" d="M 30,160 L 30.02526339897883,160 L 30.053680243503955,160 L 31.54732047688853,160 L 31.569573768754985,160 L 31.60322246611828,160 L 33.09378092317352,160 L 33.11990435275589,160 L 33.15195841004179,160 L 34.640115948328834,160 L 34.66448348209565,160 L 34.699153465800634,160 L 36.18406797202018,160 L 36.215548675570396,160 L 36.24787149241991,160 L 37.737569918871614,160 L 37.76270789672076,160 L 37.79219977950031,160 L 39.28770341252587,160 L 39.31484812844993,160 L 39.347833885556334,160 L 40.833142572469164,160 L 40.86485620097451,160 L 40.899902448068545,160 L 42.38426151785664,160 L 42.40837820936409,160 L 42.43993058213127,160 L 43.9333737251692,160 L 43.955788272773816,160 L 43.98741231475796,160 L 45.47802452372592,160 L 45.50275040357754,160 L 45.53371150530479,160 L 47.02665296382399,160 L 47.05472937956855,160 L 48.577180638171534,160 L 48.60298155627757,160 L 48.62743867656559,160 L 50.12593449939928,160 L 50.155659307133945,160 L 50.189451342931164,160 L 51.664152985733736,160 L 51.700399692211874,160 L 51.7313070420264,160 L 53.21855079779719,160 L 53.23795523828944,160 L 53.27473946389478,160 L 54.7671075686783,160 L 54.79462854799141,160 L 54.82514171711264,160 L 56.317456069983436,160 L 56.34345407843612,160 L 56.37097505774923,160 L 57.86140809367478,160 L 57.89107914949673,160 L 57.92049936305931,160 L 59.408549397520915,160 L 59.43574786535769,160 L 59.466422290217096,160 L 60.9616750809833,160 L 60.9922599193215,160 L 61.0252456764279,160 L 62.5122744245478,160 L 62.535405664322035,160 L 62.58652373331962,160 L 64.0610462030798,160 L 64.0845716235473,160 L 64.11413517554382,160 L 65.60392318851672,160 L 65.63155167165527,160 L 65.66075687756697,160 L 67.15127950001374,160 L 67.17788669681059,160 L 67.20859695627847,160 L 68.70037379002206,160 L 68.72834270194116,160 L 68.75392861239632,160 L 70.2462787998756,160 L 70.27394311762262,160 L 70.3030049851004,160 L 71.8012320483705,160 L 71.83038350236947,160 L 71.86086083688222,160 L 73.34342817624629,160 L 73.37274088598343,115.24229074889868 L 73.40314655127924,115.24229074889868 L 74.89775431909277,115.24229074889868 L 74.91857422662002,115.24229074889868 L 74.94690148462394,115.24229074889868 L 76.44002211618553,115.24229074889868 L 76.45994615850076,115.24229074889868 L 76.49802043001141,115.24229074889868 L 77.99028103096947,115.24229074889868 L 78.01907413888364,115.24229074889868 L 78.04342375534623,115.24229074889868 L 79.53228006849864,115.24229074889868 L 79.56490747952023,115.24229074889868 L 79.59665694263406,115.24229074889868 L 81.0874841592529,115.24229074889868 L 81.10248094290203,115.24229074889868 L 81.140877725889,115.24229074889868 L 82.6351988168347,115.24229074889868 L 82.66517446682874,115.24229074889868 L 82.70014904470582,115.24229074889868 L 84.18318223398013,115.24229074889868 L 84.20964609234306,115.24229074889868 L 84.24548070082368,115.24229074889868 L 85.7283884689683,115.24229074889868 L 85.75839995357082,115.24229074889868 L 85.79169030484931,115.24229074889868 L 87.27990159504907,115.24229074889868 L 87.30176070622224,115.24229074889868 L 87.33279347716643,115.24229074889868 L 88.82360277648105,115.24229074889868 L 88.84850782937508,115.24229074889868 L 88.88063355587795,115.24229074889868 L 90.37456046613036,115.24229074889868 L 90.40394484508445,115.24229074889868 L 90.42958450745233,115.24229074889868 L 91.92145092771713,115.24229074889868 L 91.95427542908536,115.24229074889868 L 91.9771916612087,115.24229074889868 L 93.47151275215441,115.24229074889868 L 93.50039544658978,115.24229074889868 L 93.53364996325979,115.24229074889868 L 95.02006952303553,115.24229074889868 L 95.04825344260553,115.24229074889868 L 95.08227840335786,115.24229074889868 L 96.56721082688165,115.24229074889868 L 96.59286840655376,115.24229074889868 L 96.62488662923118,115.24229074889868 L 98.11666346297477,115.24229074889868 L 98.14465029219812,115.24229074889868 L 98.17709853017732,115.24229074889868 L 99.66083049431701,115.24229074889868 L 99.69843891591741,115.24229074889868 L 99.72020844056938,115.24229074889868 L 101.2091185056345,115.24229074889868 L 101.2384132980674,115.24229074889868 L 101.26756475206639,115.24229074889868 L 102.75303469471737,115.24229074889868 L 102.78535751156689,115.24229074889868 L 102.81237680636127,115.24229074889868 L 103.89250357518384,115.24229074889868 L 104.30770126634444,115.24229074889868 L 104.3398269928473,115.24229074889868 L 104.37367278055724,115.24229074889868 L 105.85557717966441,115.24229074889868 L 105.8836715127132,115.24229074889868 L 105.91656768329841,115.24229074889868 L 107.40173303177733,115.24229074889868 L 107.42339505260385,115.24229074889868 L 107.45973134560319,115.24229074889868 L 108.95186652543158,115.24229074889868 L 108.97892165483444,115.24229074889868 L 109.01038444108042,115.24229074889868 L 110.50001119831515,115.24229074889868 L 110.53249527090283,115.24229074889868 L 110.56596479522372,115.24229074889868 L 112.0461849677323,115.24229074889868 L 112.07384928547934,115.24229074889868 L 112.11027516499988,115.24229074889868 L 113.5985581244166,115.24229074889868 L 113.62215521410107,115.24229074889868 L 113.65121708157885,115.24229074889868 L 115.14530524756942,115.24229074889868 L 115.17881060649881,115.24229074889868 L 115.21018380622358,115.24229074889868 L 116.6924644687198,115.24229074889868 L 116.72261929175623,115.24229074889868 L 116.75648299677042,115.24229074889868 L 118.23833364396486,115.24229074889868 L 118.2677359402232,115.24229074889868 L 118.30088295306777,115.24229074889868 L 119.7896138450905,115.24229074889868 L 119.81709898979513,115.24229074889868 L 119.84521124014817,115.24229074889868 L 121.33591303563733,115.24229074889868 L 121.36370277451404,115.24229074889868 L 121.39710062961797,115.24229074889868 L 122.87506322179227,115.24229074889868 L 122.91186536470187,115.24229074889868 L 122.94273687990791,115.24229074889868 L 124.43119901236703,115.24229074889868 L 124.45293270241052,115.24229074889868 L 124.49201034295862,115.24229074889868 L 125.98109958106616,115.24229074889868 L 126.01376282669624,115.24229074889868 L 126.04818196814188,115.24229074889868 L 127.53135849585011,115.24229074889868 L 127.56124455932293,115.24229074889868 L 127.59290443591556,115.24229074889868 L 129.07023992244143,115.24229074889868 L 129.10270607772486,115.24229074889868 L 129.1350826464871,115.24229074889868 L 130.62307892903598,115.24229074889868 L 130.65346667702755,115.24229074889868 L 130.68819041264527,115.24229074889868 L 132.17161778261286,115.24229074889868 L 132.199586694532,115.24229074889868 L 132.23045820973803,115.24229074889868 L 133.72080165914238,115.24229074889868 L 133.74072570145762,115.24229074889868 L 133.78963994203363,115.24229074889868 L 135.26622290178142,115.24229074889868 L 135.29637772481786,115.24229074889868 L 135.32612044985677,115.24229074889868 L 136.81714475682227,115.24229074889868 L 136.8513847252255,115.24229074889868 L 136.88254291729936,115.24229074889868 L 138.36444731640654,115.24229074889868 L 138.39460213944298,115.24229074889868 L 138.4293617096692,115.24229074889868 L 139.9103881608686,115.24229074889868 L 139.94002338208205,115.24229074889868 L 139.96702475957218,115.24229074889868 L 141.46079041408643,115.24229074889868 L 141.49141108703313,115.24229074889868 L 141.52294554249607,115.24229074889868 L 143.0135039995513,115.24229074889868 L 143.04231502476972,115.24229074889868 L 143.07073186929483,115.24229074889868 L 144.55575387933982,115.24229074889868 L 144.58655372532888,40 L 144.6186436172233,40 L 146.1095962549718,40 L 146.1309715989305,40 L 146.1604455644058,40 L 147.65378120361828,40 L 147.67768288747487,40 L 147.72009314661165,40 L 149.2036817723174,40 L 149.23516247586764,40 L 149.26280887631043,40 L 150.7454658021957,40 L 150.77995661285826,40 L 150.81373073135126,40 L 152.30305289441392,40 L 152.31831843762666,40 L 152.35968949311751,40 L 153.8480082871427,40 L 153.88063569816433,40 L 153.9174915929866,40 L 155.39618879463478,40 L 155.42693488871114,40 L 155.4663350407356,40 L 156.9418608795332,40 L 156.97455995977177,40 L 157.01270590049938,40 L 158.4984983546267,40 L 158.53492423414724,40 L 160.0406048959813,40 L 160.1172013716086,40 L 161.58891082460303,40 L 161.62698509611369,40 L 161.66312429876638,40 L 163.13658964757636,40 L 163.1767064917704,40 L 163.20431705760473,40 L 164.68792360061474,40 L 164.72150062876105,40 L 164.75919863688267,40 L 166.23053182648806,40 L 166.26409093733014,40 L 166.30184269736446,40 L 167.78095199701013,40 L 167.81393775411655,40 L 167.84932442999116,40 L 169.3344718611658,40 L 169.37781382012312,40 L 170.91676691593145,40 L 170.95779754264174,40 L 172.43407590821744,40 L 172.46790377862314,40 L 173.98618030533814,40 L 174.01499133055654,40 L 174.06243635218487,40 L 175.52237413629345,40 L 175.5553419760956,40 L 175.590639065449,40 L 177.0722926222968,40 L 177.11128067632373,40 L 177.15041206878456,40 L 178.6176063611104,40 L 178.64921248579031,40 L 178.68762718608153,40 L 180.16440723617598,40 L 180.2003314311778,40 L 180.24729268559165,40 L 181.70767840230621,40 L 181.74856569058258,40 L 181.7881450156494,40 L 183.26288249306046,40 L 183.29577866364565,40 L 183.33333333333334,40" fill="none" stroke="none"/>
  </g>
  <!-- 📊 Total Contributions Chart -->
  <g transform="translate(526.6666666666667, 250)">
    <!-- Chart Background -->
    <rect x="0" y="0" width="213.33333333333334" height="200" fill="#ffffff" stroke="#e2e8f0" stroke-width="1" rx="8" filter="url(#shadow)">
      <animate attributeName="opacity" values="0;1" dur="0.5s" begin="2.8s" fill="freeze"/>
    </rect>
    
    <!-- Chart Title -->
    <text x="106.66666666666667" y="25" text-anchor="middle" fill="#1e293b" font-size="14" font-weight="bold" font-family="Arial, sans-serif">
      📊 Total Contributions
      <animate attributeName="opacity" values="0;1" dur="0.5s" begin="3s" fill="freeze"/>
    </text>
    
    <!-- Y-axis labels -->
    <text x="10" y="45" fill="#64748b" font-size="10" font-family="Arial, sans-serif">5,314
      <animate attributeName="opacity" values="0;1" dur="0.5s" begin="3.1999999999999997s" fill="freeze"/>
    </text>
    <text x="10" y="185" fill="#64748b" font-size="10" font-family="Arial, sans-serif">4,408
      <animate attributeName="opacity" values="0;1" dur="0.5s" begin="3.1999999999999997s" fill="freeze"/>
    </text>
    
    <!-- Chart Line with draw animation that follows the circle -->
    <path d="M 30,160 L 30.02526339897883,160 L 30.053680243503955,160 L 31.54732047688853,160 L 31.569573768754985,160 L 31.60322246611828,160 L 33.09378092317352,160 L 33.11990435275589,160 L 33.15195841004179,160 L 34.640115948328834,160 L 34.66448348209565,160 L 34.699153465800634,160 L 36.18406797202018,160 L 36.215548675570396,160 L 36.24787149241991,160 L 37.737569918871614,160 L 37.76270789672076,160 L 37.79219977950031,160 L 39.28770341252587,160 L 39.31484812844993,160 L 39.347833885556334,160 L 40.833142572469164,160 L 40.86485620097451,160 L 40.899902448068545,160 L 42.38426151785664,160 L 42.40837820936409,160 L 42.43993058213127,160 L 43.9333737251692,160 L 43.955788272773816,160 L 43.98741231475796,160 L 45.47802452372592,160 L 45.50275040357754,160 L 45.53371150530479,160 L 47.02665296382399,160 L 47.05472937956855,160 L 48.577180638171534,160 L 48.60298155627757,160 L 48.62743867656559,160 L 50.12593449939928,160 L 50.155659307133945,160 L 50.189451342931164,160 L 51.664152985733736,160 L 51.700399692211874,160 L 51.7313070420264,160 L 53.21855079779719,160 L 53.23795523828944,160 L 53.27473946389478,160 L 54.7671075686783,160 L 54.79462854799141,160 L 54.82514171711264,160 L 56.317456069983436,160 L 56.34345407843612,160 L 56.37097505774923,160 L 57.86140809367478,160 L 57.89107914949673,160 L 57.92049936305931,160 L 59.408549397520915,160 L 59.43574786535769,160 L 59.466422290217096,160 L 60.9616750809833,160 L 60.9922599193215,160 L 61.0252456764279,160 L 62.5122744245478,160 L 62.535405664322035,160 L 62.58652373331962,160 L 64.0610462030798,160 L 64.0845716235473,160 L 64.11413517554382,160 L 65.60392318851672,160 L 65.63155167165527,160 L 65.66075687756697,160 L 67.15127950001374,160 L 67.17788669681059,160 L 67.20859695627847,160 L 68.70037379002206,160 L 68.72834270194116,160 L 68.75392861239632,160 L 70.2462787998756,160 L 70.27394311762262,160 L 70.3030049851004,160 L 71.8012320483705,160 L 71.83038350236947,160 L 71.86086083688222,160 L 73.34342817624629,160 L 73.37274088598343,92.58278145695365 L 73.40314655127924,92.58278145695365 L 74.89775431909277,92.58278145695365 L 74.91857422662002,92.58278145695365 L 74.94690148462394,92.58278145695365 L 76.44002211618553,92.58278145695365 L 76.45994615850076,92.58278145695365 L 76.49802043001141,92.58278145695365 L 77.99028103096947,92.58278145695365 L 78.01907413888364,92.58278145695365 L 78.04342375534623,92.58278145695365 L 79.53228006849864,92.58278145695365 L 79.56490747952023,92.58278145695365 L 79.59665694263406,92.58278145695365 L 81.0874841592529,92.58278145695365 L 81.10248094290203,92.58278145695365 L 81.140877725889,92.58278145695365 L 82.6351988168347,92.58278145695365 L 82.66517446682874,92.58278145695365 L 82.70014904470582,92.58278145695365 L 84.18318223398013,92.58278145695365 L 84.20964609234306,92.58278145695365 L 84.24548070082368,92.58278145695365 L 85.7283884689683,92.58278145695365 L 85.75839995357082,92.58278145695365 L 85.79169030484931,92.58278145695365 L 87.27990159504907,92.58278145695365 L 87.30176070622224,92.58278145695365 L 87.33279347716643,92.58278145695365 L 88.82360277648105,92.58278145695365 L 88.84850782937508,92.58278145695365 L 88.88063355587795,92.58278145695365 L 90.37456046613036,92.58278145695365 L 90.40394484508445,92.58278145695365 L 90.42958450745233,92.58278145695365 L 91.92145092771713,92.58278145695365 L 91.95427542908536,92.58278145695365 L 91.9771916612087,92.58278145695365 L 93.47151275215441,92.58278145695365 L 93.50039544658978,92.58278145695365 L 93.53364996325979,92.58278145695365 L 95.02006952303553,92.58278145695365 L 95.04825344260553,92.58278145695365 L 95.08227840335786,92.58278145695365 L 96.56721082688165,92.58278145695365 L 96.59286840655376,92.58278145695365 L 96.62488662923118,92.58278145695365 L 98.11666346297477,92.58278145695365 L 98.14465029219812,92.58278145695365 L 98.17709853017732,92.58278145695365 L 99.66083049431701,92.58278145695365 L 99.69843891591741,92.58278145695365 L 99.72020844056938,92.58278145695365 L 101.2091185056345,92.58278145695365 L 101.2384132980674,92.58278145695365 L 101.26756475206639,92.58278145695365 L 102.75303469471737,92.58278145695365 L 102.78535751156689,92.58278145695365 L 102.81237680636127,92.58278145695365 L 103.89250357518384,92.58278145695365 L 104.30770126634444,92.58278145695365 L 104.3398269928473,92.58278145695365 L 104.37367278055724,92.58278145695365 L 105.85557717966441,92.58278145695365 L 105.8836715127132,92.58278145695365 L 105.91656768329841,92.58278145695365 L 107.40173303177733,92.58278145695365 L 107.42339505260385,92.58278145695365 L 107.45973134560319,92.58278145695365 L 108.95186652543158,92.58278145695365 L 108.97892165483444,92.58278145695365 L 109.01038444108042,92.58278145695365 L 110.50001119831515,92.58278145695365 L 110.53249527090283,92.58278145695365 L 110.56596479522372,92.58278145695365 L 112.0461849677323,92.58278145695365 L 112.07384928547934,92.58278145695365 L 112.11027516499988,92.58278145695365 L 113.5985581244166,92.58278145695365 L 113.62215521410107,92.58278145695365 L 113.65121708157885,92.58278145695365 L 115.14530524756942,92.58278145695365 L 115.17881060649881,92.58278145695365 L 115.21018380622358,92.58278145695365 L 116.6924644687198,92.58278145695365 L 116.72261929175623,92.58278145695365 L 116.75648299677042,92.58278145695365 L 118.23833364396486,92.58278145695365 L 118.2677359402232,92.58278145695365 L 118.30088295306777,92.58278145695365 L 119.7896138450905,92.58278145695365 L 119.81709898979513,92.58278145695365 L 119.84521124014817,92.58278145695365 L 121.33591303563733,92.58278145695365 L 121.36370277451404,92.58278145695365 L 121.39710062961797,92.58278145695365 L 122.87506322179227,92.58278145695365 L 122.91186536470187,92.58278145695365 L 122.94273687990791,92.58278145695365 L 124.43119901236703,92.58278145695365 L 124.45293270241052,92.58278145695365 L 124.49201034295862,92.58278145695365 L 125.98109958106616,92.58278145695365 L 126.01376282669624,92.58278145695365 L 126.04818196814188,92.58278145695365 L 127.53135849585011,92.58278145695365 L 127.56124455932293,92.58278145695365 L 127.59290443591556,92.58278145695365 L 129.07023992244143,92.58278145695365 L 129.10270607772486,92.58278145695365 L 129.1350826464871,92.58278145695365 L 130.62307892903598,92.58278145695365 L 130.65346667702755,92.58278145695365 L 130.68819041264527,92.58278145695365 L 132.17161778261286,92.58278145695365 L 132.199586694532,92.58278145695365 L 132.23045820973803,92.58278145695365 L 133.72080165914238,92.58278145695365 L 133.74072570145762,92.58278145695365 L 133.78963994203363,92.58278145695365 L 135.26622290178142,92.58278145695365 L 135.29637772481786,92.58278145695365 L 135.32612044985677,92.58278145695365 L 136.81714475682227,92.58278145695365 L 136.8513847252255,92.58278145695365 L 136.88254291729936,92.58278145695365 L 138.36444731640654,92.58278145695365 L 138.39460213944298,92.58278145695365 L 138.4293617096692,92.58278145695365 L 139.9103881608686,92.58278145695365 L 139.94002338208205,92.58278145695365 L 139.96702475957218,92.58278145695365 L 141.46079041408643,92.58278145695365 L 141.49141108703313,92.58278145695365 L 141.52294554249607,92.58278145695365 L 143.0135039995513,92.58278145695365 L 143.04231502476972,92.58278145695365 L 143.07073186929483,92.58278145695365 L 144.55575387933982,92.58278145695365 L 144.58655372532888,40 L 144.6186436172233,40 L 146.1095962549718,40 L 146.1309715989305,40 L 146.1604455644058,40 L 147.65378120361828,40 L 147.67768288747487,40 L 147.72009314661165,40 L 149.2036817723174,40 L 149.23516247586764,40 L 149.26280887631043,40 L 150.7454658021957,40 L 150.77995661285826,40 L 150.81373073135126,40 L 152.30305289441392,40 L 152.31831843762666,40 L 152.35968949311751,40 L 153.8480082871427,40 L 153.88063569816433,40 L 153.9174915929866,40 L 155.39618879463478,40 L 155.42693488871114,40 L 155.4663350407356,40 L 156.9418608795332,40 L 156.97455995977177,40 L 157.01270590049938,40 L 158.4984983546267,40 L 158.53492423414724,40 L 160.0406048959813,40 L 160.1172013716086,40 L 161.58891082460303,40 L 161.62698509611369,40 L 161.66312429876638,40 L 163.13658964757636,40 L 163.1767064917704,40 L 163.20431705760473,40 L 164.68792360061474,40 L 164.72150062876105,40 L 164.75919863688267,40 L 166.23053182648806,40 L 166.26409093733014,40 L 166.30184269736446,40 L 167.78095199701013,40 L 167.81393775411655,40 L 167.84932442999116,40 L 169.3344718611658,40 L 169.37781382012312,40 L 170.91676691593145,40 L 170.95779754264174,40 L 172.43407590821744,40 L 172.46790377862314,40 L 173.98618030533814,40 L 174.01499133055654,40 L 174.06243635218487,40 L 175.52237413629345,40 L 175.5553419760956,40 L 175.590639065449,40 L 177.0722926222968,40 L 177.11128067632373,40 L 177.15041206878456,40 L 178.6176063611104,40 L 178.64921248579031,40 L 178.68762718608153,40 L 180.16440723617598,40 L 180.2003314311778,40 L 180.24729268559165,40 L 181.70767840230621,40 L 181.74856569058258,40 L 181.7881450156494,40 L 183.26288249306046,40 L 183.29577866364565,40 L 183.33333333333334,40" stroke="#f59e0b" stroke-width="2" fill="none" stroke-dasharray="14750" stroke-dashoffset="14750">
      <animate attributeName="stroke-dashoffset" values="14750;0" dur="3s" begin="3.5999999999999996s" fill="freeze"/>
    </path>
    
    <!-- Glow effect for the line that also follows the circle -->
    <path d="M 30,160 L 30.02526339897883,160 L 30.053680243503955,160 L 31.54732047688853,160 L 31.569573768754985,160 L 31.60322246611828,160 L 33.09378092317352,160 L 33.11990435275589,160 L 33.15195841004179,160 L 34.640115948328834,160 L 34.66448348209565,160 L 34.699153465800634,160 L 36.18406797202018,160 L 36.215548675570396,160 L 36.24787149241991,160 L 37.737569918871614,160 L 37.76270789672076,160 L 37.79219977950031,160 L 39.28770341252587,160 L 39.31484812844993,160 L 39.347833885556334,160 L 40.833142572469164,160 L 40.86485620097451,160 L 40.899902448068545,160 L 42.38426151785664,160 L 42.40837820936409,160 L 42.43993058213127,160 L 43.9333737251692,160 L 43.955788272773816,160 L 43.98741231475796,160 L 45.47802452372592,160 L 45.50275040357754,160 L 45.53371150530479,160 L 47.02665296382399,160 L 47.05472937956855,160 L 48.577180638171534,160 L 48.60298155627757,160 L 48.62743867656559,160 L 50.12593449939928,160 L 50.155659307133945,160 L 50.189451342931164,160 L 51.664152985733736,160 L 51.700399692211874,160 L 51.7313070420264,160 L 53.21855079779719,160 L 53.23795523828944,160 L 53.27473946389478,160 L 54.7671075686783,160 L 54.79462854799141,160 L 54.82514171711264,160 L 56.317456069983436,160 L 56.34345407843612,160 L 56.37097505774923,160 L 57.86140809367478,160 L 57.89107914949673,160 L 57.92049936305931,160 L 59.408549397520915,160 L 59.43574786535769,160 L 59.466422290217096,160 L 60.9616750809833,160 L 60.9922599193215,160 L 61.0252456764279,160 L 62.5122744245478,160 L 62.535405664322035,160 L 62.58652373331962,160 L 64.0610462030798,160 L 64.0845716235473,160 L 64.11413517554382,160 L 65.60392318851672,160 L 65.63155167165527,160 L 65.66075687756697,160 L 67.15127950001374,160 L 67.17788669681059,160 L 67.20859695627847,160 L 68.70037379002206,160 L 68.72834270194116,160 L 68.75392861239632,160 L 70.2462787998756,160 L 70.27394311762262,160 L 70.3030049851004,160 L 71.8012320483705,160 L 71.83038350236947,160 L 71.86086083688222,160 L 73.34342817624629,160 L 73.37274088598343,92.58278145695365 L 73.40314655127924,92.58278145695365 L 74.89775431909277,92.58278145695365 L 74.91857422662002,92.58278145695365 L 74.94690148462394,92.58278145695365 L 76.44002211618553,92.58278145695365 L 76.45994615850076,92.58278145695365 L 76.49802043001141,92.58278145695365 L 77.99028103096947,92.58278145695365 L 78.01907413888364,92.58278145695365 L 78.04342375534623,92.58278145695365 L 79.53228006849864,92.58278145695365 L 79.56490747952023,92.58278145695365 L 79.59665694263406,92.58278145695365 L 81.0874841592529,92.58278145695365 L 81.10248094290203,92.58278145695365 L 81.140877725889,92.58278145695365 L 82.6351988168347,92.58278145695365 L 82.66517446682874,92.58278145695365 L 82.70014904470582,92.58278145695365 L 84.18318223398013,92.58278145695365 L 84.20964609234306,92.58278145695365 L 84.24548070082368,92.58278145695365 L 85.7283884689683,92.58278145695365 L 85.75839995357082,92.58278145695365 L 85.79169030484931,92.58278145695365 L 87.27990159504907,92.58278145695365 L 87.30176070622224,92.58278145695365 L 87.33279347716643,92.58278145695365 L 88.82360277648105,92.58278145695365 L 88.84850782937508,92.58278145695365 L 88.88063355587795,92.58278145695365 L 90.37456046613036,92.58278145695365 L 90.40394484508445,92.58278145695365 L 90.42958450745233,92.58278145695365 L 91.92145092771713,92.58278145695365 L 91.95427542908536,92.58278145695365 L 91.9771916612087,92.58278145695365 L 93.47151275215441,92.58278145695365 L 93.50039544658978,92.58278145695365 L 93.53364996325979,92.58278145695365 L 95.02006952303553,92.58278145695365 L 95.04825344260553,92.58278145695365 L 95.08227840335786,92.58278145695365 L 96.56721082688165,92.58278145695365 L 96.59286840655376,92.58278145695365 L 96.62488662923118,92.58278145695365 L 98.11666346297477,92.58278145695365 L 98.14465029219812,92.58278145695365 L 98.17709853017732,92.58278145695365 L 99.66083049431701,92.58278145695365 L 99.69843891591741,92.58278145695365 L 99.72020844056938,92.58278145695365 L 101.2091185056345,92.58278145695365 L 101.2384132980674,92.58278145695365 L 101.26756475206639,92.58278145695365 L 102.75303469471737,92.58278145695365 L 102.78535751156689,92.58278145695365 L 102.81237680636127,92.58278145695365 L 103.89250357518384,92.58278145695365 L 104.30770126634444,92.58278145695365 L 104.3398269928473,92.58278145695365 L 104.37367278055724,92.58278145695365 L 105.85557717966441,92.58278145695365 L 105.8836715127132,92.58278145695365 L 105.91656768329841,92.58278145695365 L 107.40173303177733,92.58278145695365 L 107.42339505260385,92.58278145695365 L 107.45973134560319,92.58278145695365 L 108.95186652543158,92.58278145695365 L 108.97892165483444,92.58278145695365 L 109.01038444108042,92.58278145695365 L 110.50001119831515,92.58278145695365 L 110.53249527090283,92.58278145695365 L 110.56596479522372,92.58278145695365 L 112.0461849677323,92.58278145695365 L 112.07384928547934,92.58278145695365 L 112.11027516499988,92.58278145695365 L 113.5985581244166,92.58278145695365 L 113.62215521410107,92.58278145695365 L 113.65121708157885,92.58278145695365 L 115.14530524756942,92.58278145695365 L 115.17881060649881,92.58278145695365 L 115.21018380622358,92.58278145695365 L 116.6924644687198,92.58278145695365 L 116.72261929175623,92.58278145695365 L 116.75648299677042,92.58278145695365 L 118.23833364396486,92.58278145695365 L 118.2677359402232,92.58278145695365 L 118.30088295306777,92.58278145695365 L 119.7896138450905,92.58278145695365 L 119.81709898979513,92.58278145695365 L 119.84521124014817,92.58278145695365 L 121.33591303563733,92.58278145695365 L 121.36370277451404,92.58278145695365 L 121.39710062961797,92.58278145695365 L 122.87506322179227,92.58278145695365 L 122.91186536470187,92.58278145695365 L 122.94273687990791,92.58278145695365 L 124.43119901236703,92.58278145695365 L 124.45293270241052,92.58278145695365 L 124.49201034295862,92.58278145695365 L 125.98109958106616,92.58278145695365 L 126.01376282669624,92.58278145695365 L 126.04818196814188,92.58278145695365 L 127.53135849585011,92.58278145695365 L 127.56124455932293,92.58278145695365 L 127.59290443591556,92.58278145695365 L 129.07023992244143,92.58278145695365 L 129.10270607772486,92.58278145695365 L 129.1350826464871,92.58278145695365 L 130.62307892903598,92.58278145695365 L 130.65346667702755,92.58278145695365 L 130.68819041264527,92.58278145695365 L 132.17161778261286,92.58278145695365 L 132.199586694532,92.58278145695365 L 132.23045820973803,92.58278145695365 L 133.72080165914238,92.58278145695365 L 133.74072570145762,92.58278145695365 L 133.78963994203363,92.58278145695365 L 135.26622290178142,92.58278145695365 L 135.29637772481786,92.58278145695365 L 135.32612044985677,92.58278145695365 L 136.81714475682227,92.58278145695365 L 136.8513847252255,92.58278145695365 L 136.88254291729936,92.58278145695365 L 138.36444731640654,92.58278145695365 L 138.39460213944298,92.58278145695365 L 138.4293617096692,92.58278145695365 L 139.9103881608686,92.58278145695365 L 139.94002338208205,92.58278145695365 L 139.96702475957218,92.58278145695365 L 141.46079041408643,92.58278145695365 L 141.49141108703313,92.58278145695365 L 141.52294554249607,92.58278145695365 L 143.0135039995513,92.58278145695365 L 143.04231502476972,92.58278145695365 L 143.07073186929483,92.58278145695365 L 144.55575387933982,92.58278145695365 L 144.58655372532888,40 L 144.6186436172233,40 L 146.1095962549718,40 L 146.1309715989305,40 L 146.1604455644058,40 L 147.65378120361828,40 L 147.67768288747487,40 L 147.72009314661165,40 L 149.2036817723174,40 L 149.23516247586764,40 L 149.26280887631043,40 L 150.7454658021957,40 L 150.77995661285826,40 L 150.81373073135126,40 L 152.30305289441392,40 L 152.31831843762666,40 L 152.35968949311751,40 L 153.8480082871427,40 L 153.88063569816433,40 L 153.9174915929866,40 L 155.39618879463478,40 L 155.42693488871114,40 L 155.4663350407356,40 L 156.9418608795332,40 L 156.97455995977177,40 L 157.01270590049938,40 L 158.4984983546267,40 L 158.53492423414724,40 L 160.0406048959813,40 L 160.1172013716086,40 L 161.58891082460303,40 L 161.62698509611369,40 L 161.66312429876638,40 L 163.13658964757636,40 L 163.1767064917704,40 L 163.20431705760473,40 L 164.68792360061474,40 L 164.72150062876105,40 L 164.75919863688267,40 L 166.23053182648806,40 L 166.26409093733014,40 L 166.30184269736446,40 L 167.78095199701013,40 L 167.81393775411655,40 L 167.84932442999116,40 L 169.3344718611658,40 L 169.37781382012312,40 L 170.91676691593145,40 L 170.95779754264174,40 L 172.43407590821744,40 L 172.46790377862314,40 L 173.98618030533814,40 L 174.01499133055654,40 L 174.06243635218487,40 L 175.52237413629345,40 L 175.5553419760956,40 L 175.590639065449,40 L 177.0722926222968,40 L 177.11128067632373,40 L 177.15041206878456,40 L 178.6176063611104,40 L 178.64921248579031,40 L 178.68762718608153,40 L 180.16440723617598,40 L 180.2003314311778,40 L 180.24729268559165,40 L 181.70767840230621,40 L 181.74856569058258,40 L 181.7881450156494,40 L 183.26288249306046,40 L 183.29577866364565,40 L 183.33333333333334,40" stroke="#f59e0b" stroke-width="4" fill="none" opacity="0.4" stroke-dasharray="14750" stroke-dashoffset="14750">
      <animate attributeName="stroke-dashoffset" values="14750;0" dur="3s" begin="3.5999999999999996s" fill="freeze"/>
    </path>
    
    <!-- Animated circle that moves along the path and draws the line -->
    <circle r="5" fill="#f59e0b" opacity="0" filter="url(#trailGlow)">
      <animate attributeName="opacity" values="0;1;1;1" dur="3.2s" begin="3.4s" fill="freeze"/>
      <animate attributeName="r" values="5;6;5" dur="1s" begin="3.4s" repeatCount="3"/>
      <animateMotion dur="3s" begin="3.4s" fill="freeze">
        <mpath href="#path_totalContributions_526.6666666666667"/>
      </animateMotion>
    </circle>
    
    <!-- Small trail dots that fade out -->
    <circle r="2" fill="#f59e0b" opacity="0">
      <animate attributeName="opacity" values="0;0.6;0" dur="0.8s" begin="3.8s" fill="freeze"/>
      <animateMotion dur="3s" begin="3.4s" fill="freeze">
        <mpath href="#path_totalContributions_526.6666666666667"/>
      </animateMotion>
    </circle>
    
    <!-- Hidden path for motion animation -->
    <path id="path_totalContributions_526.6666666666667" d="M 30,160 L 30.02526339897883,160 L 30.053680243503955,160 L 31.54732047688853,160 L 31.569573768754985,160 L 31.60322246611828,160 L 33.09378092317352,160 L 33.11990435275589,160 L 33.15195841004179,160 L 34.640115948328834,160 L 34.66448348209565,160 L 34.699153465800634,160 L 36.18406797202018,160 L 36.215548675570396,160 L 36.24787149241991,160 L 37.737569918871614,160 L 37.76270789672076,160 L 37.79219977950031,160 L 39.28770341252587,160 L 39.31484812844993,160 L 39.347833885556334,160 L 40.833142572469164,160 L 40.86485620097451,160 L 40.899902448068545,160 L 42.38426151785664,160 L 42.40837820936409,160 L 42.43993058213127,160 L 43.9333737251692,160 L 43.955788272773816,160 L 43.98741231475796,160 L 45.47802452372592,160 L 45.50275040357754,160 L 45.53371150530479,160 L 47.02665296382399,160 L 47.05472937956855,160 L 48.577180638171534,160 L 48.60298155627757,160 L 48.62743867656559,160 L 50.12593449939928,160 L 50.155659307133945,160 L 50.189451342931164,160 L 51.664152985733736,160 L 51.700399692211874,160 L 51.7313070420264,160 L 53.21855079779719,160 L 53.23795523828944,160 L 53.27473946389478,160 L 54.7671075686783,160 L 54.79462854799141,160 L 54.82514171711264,160 L 56.317456069983436,160 L 56.34345407843612,160 L 56.37097505774923,160 L 57.86140809367478,160 L 57.89107914949673,160 L 57.92049936305931,160 L 59.408549397520915,160 L 59.43574786535769,160 L 59.466422290217096,160 L 60.9616750809833,160 L 60.9922599193215,160 L 61.0252456764279,160 L 62.5122744245478,160 L 62.535405664322035,160 L 62.58652373331962,160 L 64.0610462030798,160 L 64.0845716235473,160 L 64.11413517554382,160 L 65.60392318851672,160 L 65.63155167165527,160 L 65.66075687756697,160 L 67.15127950001374,160 L 67.17788669681059,160 L 67.20859695627847,160 L 68.70037379002206,160 L 68.72834270194116,160 L 68.75392861239632,160 L 70.2462787998756,160 L 70.27394311762262,160 L 70.3030049851004,160 L 71.8012320483705,160 L 71.83038350236947,160 L 71.86086083688222,160 L 73.34342817624629,160 L 73.37274088598343,92.58278145695365 L 73.40314655127924,92.58278145695365 L 74.89775431909277,92.58278145695365 L 74.91857422662002,92.58278145695365 L 74.94690148462394,92.58278145695365 L 76.44002211618553,92.58278145695365 L 76.45994615850076,92.58278145695365 L 76.49802043001141,92.58278145695365 L 77.99028103096947,92.58278145695365 L 78.01907413888364,92.58278145695365 L 78.04342375534623,92.58278145695365 L 79.53228006849864,92.58278145695365 L 79.56490747952023,92.58278145695365 L 79.59665694263406,92.58278145695365 L 81.0874841592529,92.58278145695365 L 81.10248094290203,92.58278145695365 L 81.140877725889,92.58278145695365 L 82.6351988168347,92.58278145695365 L 82.66517446682874,92.58278145695365 L 82.70014904470582,92.58278145695365 L 84.18318223398013,92.58278145695365 L 84.20964609234306,92.58278145695365 L 84.24548070082368,92.58278145695365 L 85.7283884689683,92.58278145695365 L 85.75839995357082,92.58278145695365 L 85.79169030484931,92.58278145695365 L 87.27990159504907,92.58278145695365 L 87.30176070622224,92.58278145695365 L 87.33279347716643,92.58278145695365 L 88.82360277648105,92.58278145695365 L 88.84850782937508,92.58278145695365 L 88.88063355587795,92.58278145695365 L 90.37456046613036,92.58278145695365 L 90.40394484508445,92.58278145695365 L 90.42958450745233,92.58278145695365 L 91.92145092771713,92.58278145695365 L 91.95427542908536,92.58278145695365 L 91.9771916612087,92.58278145695365 L 93.47151275215441,92.58278145695365 L 93.50039544658978,92.58278145695365 L 93.53364996325979,92.58278145695365 L 95.02006952303553,92.58278145695365 L 95.04825344260553,92.58278145695365 L 95.08227840335786,92.58278145695365 L 96.56721082688165,92.58278145695365 L 96.59286840655376,92.58278145695365 L 96.62488662923118,92.58278145695365 L 98.11666346297477,92.58278145695365 L 98.14465029219812,92.58278145695365 L 98.17709853017732,92.58278145695365 L 99.66083049431701,92.58278145695365 L 99.69843891591741,92.58278145695365 L 99.72020844056938,92.58278145695365 L 101.2091185056345,92.58278145695365 L 101.2384132980674,92.58278145695365 L 101.26756475206639,92.58278145695365 L 102.75303469471737,92.58278145695365 L 102.78535751156689,92.58278145695365 L 102.81237680636127,92.58278145695365 L 103.89250357518384,92.58278145695365 L 104.30770126634444,92.58278145695365 L 104.3398269928473,92.58278145695365 L 104.37367278055724,92.58278145695365 L 105.85557717966441,92.58278145695365 L 105.8836715127132,92.58278145695365 L 105.91656768329841,92.58278145695365 L 107.40173303177733,92.58278145695365 L 107.42339505260385,92.58278145695365 L 107.45973134560319,92.58278145695365 L 108.95186652543158,92.58278145695365 L 108.97892165483444,92.58278145695365 L 109.01038444108042,92.58278145695365 L 110.50001119831515,92.58278145695365 L 110.53249527090283,92.58278145695365 L 110.56596479522372,92.58278145695365 L 112.0461849677323,92.58278145695365 L 112.07384928547934,92.58278145695365 L 112.11027516499988,92.58278145695365 L 113.5985581244166,92.58278145695365 L 113.62215521410107,92.58278145695365 L 113.65121708157885,92.58278145695365 L 115.14530524756942,92.58278145695365 L 115.17881060649881,92.58278145695365 L 115.21018380622358,92.58278145695365 L 116.6924644687198,92.58278145695365 L 116.72261929175623,92.58278145695365 L 116.75648299677042,92.58278145695365 L 118.23833364396486,92.58278145695365 L 118.2677359402232,92.58278145695365 L 118.30088295306777,92.58278145695365 L 119.7896138450905,92.58278145695365 L 119.81709898979513,92.58278145695365 L 119.84521124014817,92.58278145695365 L 121.33591303563733,92.58278145695365 L 121.36370277451404,92.58278145695365 L 121.39710062961797,92.58278145695365 L 122.87506322179227,92.58278145695365 L 122.91186536470187,92.58278145695365 L 122.94273687990791,92.58278145695365 L 124.43119901236703,92.58278145695365 L 124.45293270241052,92.58278145695365 L 124.49201034295862,92.58278145695365 L 125.98109958106616,92.58278145695365 L 126.01376282669624,92.58278145695365 L 126.04818196814188,92.58278145695365 L 127.53135849585011,92.58278145695365 L 127.56124455932293,92.58278145695365 L 127.59290443591556,92.58278145695365 L 129.07023992244143,92.58278145695365 L 129.10270607772486,92.58278145695365 L 129.1350826464871,92.58278145695365 L 130.62307892903598,92.58278145695365 L 130.65346667702755,92.58278145695365 L 130.68819041264527,92.58278145695365 L 132.17161778261286,92.58278145695365 L 132.199586694532,92.58278145695365 L 132.23045820973803,92.58278145695365 L 133.72080165914238,92.58278145695365 L 133.74072570145762,92.58278145695365 L 133.78963994203363,92.58278145695365 L 135.26622290178142,92.58278145695365 L 135.29637772481786,92.58278145695365 L 135.32612044985677,92.58278145695365 L 136.81714475682227,92.58278145695365 L 136.8513847252255,92.58278145695365 L 136.88254291729936,92.58278145695365 L 138.36444731640654,92.58278145695365 L 138.39460213944298,92.58278145695365 L 138.4293617096692,92.58278145695365 L 139.9103881608686,92.58278145695365 L 139.94002338208205,92.58278145695365 L 139.96702475957218,92.58278145695365 L 141.46079041408643,92.58278145695365 L 141.49141108703313,92.58278145695365 L 141.52294554249607,92.58278145695365 L 143.0135039995513,92.58278145695365 L 143.04231502476972,92.58278145695365 L 143.07073186929483,92.58278145695365 L 144.55575387933982,92.58278145695365 L 144.58655372532888,40 L 144.6186436172233,40 L 146.1095962549718,40 L 146.1309715989305,40 L 146.1604455644058,40 L 147.65378120361828,40 L 147.67768288747487,40 L 147.72009314661165,40 L 149.2036817723174,40 L 149.23516247586764,40 L 149.26280887631043,40 L 150.7454658021957,40 L 150.77995661285826,40 L 150.81373073135126,40 L 152.30305289441392,40 L 152.31831843762666,40 L 152.35968949311751,40 L 153.8480082871427,40 L 153.88063569816433,40 L 153.9174915929866,40 L 155.39618879463478,40 L 155.42693488871114,40 L 155.4663350407356,40 L 156.9418608795332,40 L 156.97455995977177,40 L 157.01270590049938,40 L 158.4984983546267,40 L 158.53492423414724,40 L 160.0406048959813,40 L 160.1172013716086,40 L 161.58891082460303,40 L 161.62698509611369,40 L 161.66312429876638,40 L 163.13658964757636,40 L 163.1767064917704,40 L 163.20431705760473,40 L 164.68792360061474,40 L 164.72150062876105,40 L 164.75919863688267,40 L 166.23053182648806,40 L 166.26409093733014,40 L 166.30184269736446,40 L 167.78095199701013,40 L 167.81393775411655,40 L 167.84932442999116,40 L 169.3344718611658,40 L 169.37781382012312,40 L 170.91676691593145,40 L 170.95779754264174,40 L 172.43407590821744,40 L 172.46790377862314,40 L 173.98618030533814,40 L 174.01499133055654,40 L 174.06243635218487,40 L 175.52237413629345,40 L 175.5553419760956,40 L 175.590639065449,40 L 177.0722926222968,40 L 177.11128067632373,40 L 177.15041206878456,40 L 178.6176063611104,40 L 178.64921248579031,40 L 178.68762718608153,40 L 180.16440723617598,40 L 180.2003314311778,40 L 180.24729268559165,40 L 181.70767840230621,40 L 181.74856569058258,40 L 181.7881450156494,40 L 183.26288249306046,40 L 183.29577866364565,40 L 183.33333333333334,40" fill="none" stroke="none"/>
  </g>
  
  <!-- Footer -->
  <text x="400" y="580" text-anchor="middle" fill="#94a3b8" font-size="12" font-family="Arial, sans-serif">
    Generated by GitHub User Rank Tracker • 2/17/2026
    <animate attributeName="opacity" values="0;1" dur="0.5s" begin="5s" fill="freeze"/>
  </text>
</svg>