<svg width="800" height="600" xmlns="http://www.w3.org/2000/svg">
  <defs>
    <linearGradient id="bgGradient" x1="0%" y1="0%" x2="100%" y2="100%">
      <stop offset="0%" style="stop-color:#f8fafc;stop-opacity:1" />
      <stop offset="100%" style="stop-color:#e2e8f0;stop-opacity:1" />
    </linearGradient>
    <filter id="shadow" x="-20%" y="-20%" width="140%" height="140%">
      <feDropShadow dx="2" dy="2" stdDeviation="3" flood-color="#00000020" flood-opacity="0.1"/>
    </filter>
    <!-- Trail effect filter -->
    <filter id="trailGlow" x="-50%" y="-50%" width="200%" height="200%">
      <feGaussianBlur stdDeviation="3" result="coloredBlur"/>
      <feMerge> 
        <feMergeNode in="coloredBlur"/>
        <feMergeNode in="SourceGraphic"/>
      </feMerge>
    </filter>
  </defs>
  
  <!-- Background -->
  <rect width="800" height="600" fill="url(#bgGradient)" rx="12"/>
  
  <!-- Header -->
  <text x="400" y="40" text-anchor="middle" fill="#0f172a" font-size="24" font-weight="bold" font-family="Arial, sans-serif">
    GitHub Progress Report
    <animate attributeName="opacity" values="0;1" dur="0.8s" begin="0s" fill="freeze"/>
    <animateTransform attributeName="transform" type="translate" values="0,-20;0,0" dur="0.8s" begin="0s" fill="freeze"/>
  </text>
  
  <!-- User Info -->
  <text x="400" y="70" text-anchor="middle" fill="#475569" font-size="16" font-family="Arial, sans-serif">
    @maifeeulasad • BANGLADESH • 100 days analyzed
    <animate attributeName="opacity" values="0;1" dur="0.6s" begin="0.3s" fill="freeze"/>
  </text>
  
  <!-- Progress Cards -->
  <!-- Followers Card -->
  <g transform="translate(60, 100)">
    <rect width="206.66666666666666" height="120" fill="#ffffff" stroke="#e2e8f0" stroke-width="1" rx="8" filter="url(#shadow)">
      <animate attributeName="opacity" values="0;1" dur="0.6s" begin="0.2s" fill="freeze"/>
      <animateTransform attributeName="transform" type="scale" values="0.8;1" dur="0.6s" begin="0.2s" fill="freeze"/>
    </rect>
    <text x="103.33333333333333" y="25" text-anchor="middle" fill="#64748b" font-size="14" font-weight="bold" font-family="Arial, sans-serif">FOLLOWERS
      <animate attributeName="opacity" values="0;1" dur="0.5s" begin="0.4s" fill="freeze"/>
    </text>
    
    <text x="103.33333333333333" y="50" text-anchor="middle" fill="#ef4444" font-size="32" font-weight="bold" font-family="Arial, sans-serif">
      ↘
      <animate attributeName="opacity" values="0;1" dur="0.5s" begin="0.6s" fill="freeze"/>
      <animateTransform attributeName="transform" type="scale" values="0;1.2;1" dur="0.8s" begin="0.6s" fill="freeze"/>
    </text>
    
    <text x="103.33333333333333" y="75" text-anchor="middle" fill="#1e293b" font-size="18" font-weight="bold" font-family="Arial, sans-serif">
      -15
      <animate attributeName="opacity" values="0;1" dur="0.5s" begin="0.8s" fill="freeze"/>
    </text>
    
    <text x="103.33333333333333" y="95" text-anchor="middle" fill="#64748b" font-size="12" font-family="Arial, sans-serif">
      #466 → #481
      <animate attributeName="opacity" values="0;1" dur="0.5s" begin="1s" fill="freeze"/>
    </text>
  </g>
  
  <!-- Public Contributions Card -->
  <g transform="translate(296.66666666666663, 100)">
    <rect width="206.66666666666666" height="120" fill="#ffffff" stroke="#e2e8f0" stroke-width="1" rx="8" filter="url(#shadow)">
      <animate attributeName="opacity" values="0;1" dur="0.6s" begin="0.4s" fill="freeze"/>
      <animateTransform attributeName="transform" type="scale" values="0.8;1" dur="0.6s" begin="0.4s" fill="freeze"/>
    </rect>
    <text x="103.33333333333333" y="25" text-anchor="middle" fill="#64748b" font-size="14" font-weight="bold" font-family="Arial, sans-serif">PUBLIC
      <animate attributeName="opacity" values="0;1" dur="0.5s" begin="0.6s" fill="freeze"/>
    </text>
    
    <text x="103.33333333333333" y="50" text-anchor="middle" fill="#6b7280" font-size="32" font-weight="bold" font-family="Arial, sans-serif">
      →
      <animate attributeName="opacity" values="0;1" dur="0.5s" begin="0.8s" fill="freeze"/>
      <animateTransform attributeName="transform" type="scale" values="0;1.2;1" dur="0.8s" begin="0.8s" fill="freeze"/>
    </text>
    
    <text x="103.33333333333333" y="75" text-anchor="middle" fill="#1e293b" font-size="18" font-weight="bold" font-family="Arial, sans-serif">
      0
      <animate attributeName="opacity" values="0;1" dur="0.5s" begin="1s" fill="freeze"/>
    </text>
    
    <text x="103.33333333333333" y="95" text-anchor="middle" fill="#64748b" font-size="12" font-family="Arial, sans-serif">
      #7 → #7
      <animate attributeName="opacity" values="0;1" dur="0.5s" begin="1.2s" fill="freeze"/>
    </text>
  </g>
  
  <!-- Total Contributions Card -->
  <g transform="translate(533.3333333333333, 100)">
    <rect width="206.66666666666666" height="120" fill="#ffffff" stroke="#e2e8f0" stroke-width="1" rx="8" filter="url(#shadow)">
      <animate attributeName="opacity" values="0;1" dur="0.6s" begin="0.6s" fill="freeze"/>
      <animateTransform attributeName="transform" type="scale" values="0.8;1" dur="0.6s" begin="0.6s" fill="freeze"/>
    </rect>
    <text x="103.33333333333333" y="25" text-anchor="middle" fill="#64748b" font-size="14" font-weight="bold" font-family="Arial, sans-serif">TOTAL
      <animate attributeName="opacity" values="0;1" dur="0.5s" begin="0.8s" fill="freeze"/>
    </text>
    
    <text x="103.33333333333333" y="50" text-anchor="middle" fill="#22c55e" font-size="32" font-weight="bold" font-family="Arial, sans-serif">
      ↗
      <animate attributeName="opacity" values="0;1" dur="0.5s" begin="1s" fill="freeze"/>
      <animateTransform attributeName="transform" type="scale" values="0;1.2;1" dur="0.8s" begin="1s" fill="freeze"/>
    </text>
    
    <text x="103.33333333333333" y="75" text-anchor="middle" fill="#1e293b" font-size="18" font-weight="bold" font-family="Arial, sans-serif">
      +3
      <animate attributeName="opacity" values="0;1" dur="0.5s" begin="1.2s" fill="freeze"/>
    </text>
    
    <text x="103.33333333333333" y="95" text-anchor="middle" fill="#64748b" font-size="12" font-family="Arial, sans-serif">
      #15 → #12
      <animate attributeName="opacity" values="0;1" dur="0.5s" begin="1.4s" fill="freeze"/>
    </text>
  </g>
  
  <!-- Timeline Charts (if we have snapshots) -->
  
  <!-- 👥 Followers Count Chart -->
  <g transform="translate(60, 250)">
    <!-- Chart Background -->
    <rect x="0" y="0" width="213.33333333333334" height="200" fill="#ffffff" stroke="#e2e8f0" stroke-width="1" rx="8" filter="url(#shadow)">
      <animate attributeName="opacity" values="0;1" dur="0.5s" begin="1.8s" fill="freeze"/>
    </rect>
    
    <!-- Chart Title -->
    <text x="106.66666666666667" y="25" text-anchor="middle" fill="#1e293b" font-size="14" font-weight="bold" font-family="Arial, sans-serif">
      👥 Followers Count
      <animate attributeName="opacity" values="0;1" dur="0.5s" begin="2s" fill="freeze"/>
    </text>
    
    <!-- Y-axis labels -->
    <text x="10" y="45" fill="#64748b" font-size="10" font-family="Arial, sans-serif">154
      <animate attributeName="opacity" values="0;1" dur="0.5s" begin="2.2s" fill="freeze"/>
    </text>
    <text x="10" y="185" fill="#64748b" font-size="10" font-family="Arial, sans-serif">150
      <animate attributeName="opacity" values="0;1" dur="0.5s" begin="2.2s" fill="freeze"/>
    </text>
    
    <!-- Chart Line with draw animation that follows the circle -->
    <path d="M 30,160 L 30.0216660108115,160 L 30.058008996688855,160 L 31.55041901684681,160 L 31.577479129605592,160 L 31.608947711065472,160 L 33.09884884659678,160 L 33.13133890251179,160 L 33.164814591672986,160 L 34.64530740985439,160 L 34.67297682316536,160 L 34.70940941206509,160 L 36.197966502260705,160 L 36.22156793835561,160 L 36.25063515881571,160 L 37.74499852486155,160 L 37.77851005523169,160 L 37.809889033669194,160 L 39.29244272136534,160 L 39.322603098698465,160 L 39.35647304115814,160 L 40.83859663434686,160 L 40.868004346292,160 L 40.90115746457262,160 L 42.39016256988013,160 L 42.41765277714634,160 L 42.445770205569204,160 L 43.93674657736908,160 L 43.96454143491137,160 L 43.997945441654664,160 L 45.47618026367209,160 L 45.51298918526582,160 L 45.54386638677799,160 L 47.03260268301836,160 L 47.054340376247765,160 L 47.09342521460995,160 L 48.58278873200699,160 L 48.61545799396676,160 L 48.64988347516518,160 L 50.13333319308512,160 L 50.16322476135112,160 L 50.19489046946023,160 L 51.672498070321,160 L 51.70497020563154,160 L 51.73735273791969,160 L 53.22562309844369,160 L 53.256016443635005,160 L 53.29074657510952,160 L 54.774447181492135,160 L 54.80242124507919,160 L 54.83329844659136,160 L 56.32391640630171,160 L 56.34384411847904,160 L 56.39276736869856,160 L 57.86962230417133,160 L 57.89978268150446,160 L 57.92953088493464,160 L 59.42082982761508,160 L 59.45507610276875,160 L 59.48624003395254,160 L 60.968417388954684,160 L 60.99857776628781,160 L 61.03334373897128,160 L 62.514642984354104,160 L 62.54428366415743,160 L 62.57129001510278,160 L 64.06533081026805,160 L 64.09595712331756,160 L 64.12749738719535,160 L 65.61833039415941,160 L 65.64714672615685,160 L 65.6755688048558,160 L 67.16086434503677,160 L 67.19166986413104,70 L 67.22376566674758,70 L 68.71499292701012,70 L 68.73637220815,70 L 68.76585160251305,70 L 70.25946230317089,70 L 70.28336838954189,70 L 70.32578646033662,70 L 71.80964835215951,70 L 71.84113485422387,70 L 71.86878634693036,70 L 73.3517163673205,70 L 73.38621353093683,70 L 73.41999387037411,70 L 74.90959035562933,70 L 74.9248587106429,70 L 74.96623738637801,70 L 76.45483031778258,70 L 76.48746373853339,70 L 76.52432642194056,70 L 78.0032959887415,70 L 78.03404774602234,70 L 78.0734551552651,70 L 79.54925277507378,70 L 79.58195787824252,70 L 79.62011084517194,70 L 81.10617697134538,70 L 81.14260956024512,70 L 82.64856755738694,70 L 82.7251781415219,70 L 84.19715867257719,70 L 84.23523995708874,70 L 84.27138581631684,70 L 85.7451225666108,70 L 85.78524680003258,70 L 85.81286245153012,70 L 87.2967422639575,70 L 87.33032547674554,70 L 87.36803042856307,70 L 88.83963462692438,70 L 88.87319991910795,70 L 88.91095863273893,70 L 90.3903403734428,70 L 90.42333220628313,70 L 90.45872540012327,70 L 91.94414638453557,70 L 91.98749632676305,70 L 93.52673288641682,70 L 93.56777107066691,70 L 95.04432135586359,70 L 95.0781554571143,70 L 96.59671163920277,70 L 96.62552797120019,70 L 96.67298173185267,70 L 98.13318842576723,70 L 98.16616233800309,70 L 98.20146592882085,70 L 99.68339239536033,70 L 99.72238763070014,70 L 99.76152623087575,70 L 101.22899076960309,70 L 101.26060271589878,70 L 101.29902449189535,70 L 102.77607655401737,70 L 102.81200736599176,70 L 102.8589772703234,70 L 104.31963197934986,70 L 104.36052679876413,70 L 104.40011341405163,70 L 105.87512252726339,70 L 105.90802475708135,70 L 105.94558634406306,70 L 107.42342691278202,70 L 107.45672339589846,70 L 107.49510933068606,70 L 108.96976003180829,70 L 109.00836101384964,70 L 109.04995473683846,70 L 110.51965935112531,70 L 110.55039318780166,70 L 110.58743507725359,70 L 112.06936154379308,70 L 112.09694135408166,70 L 112.13461046469023,70 L 113.61383091995384,70 L 113.64918827258502,70 L 113.68823726973825,70 L 115.16322846234551,70 L 115.20075420811828,70 L 115.24066339428637,70 L 116.71572626931155,70 L 116.74287598509271,70 L 116.78170993499224,70 L 118.26277621251687,70 L 118.2993521662524,70 L 118.33196766639875,70 L 119.80643916147622,70 L 119.83991485063741,70 L 119.87846207086533,70 L 121.35209129753241,70 L 121.39269938727507,70 L 121.42984880035384,70 L 122.9038722803194,70 L 122.93451651397338,70 L 122.96892407456734,70 L 124.45835927438226,70 L 124.49575957592371,70 L 124.53785507583787,70 L 126.00546297940102,70 L 126.0388669861443,70 L 126.07227099288758,70 L 127.55030868825578,70 L 127.58740433952113,70 L 127.62389069023429,70 L 129.0920362119317,70 L 129.1323217307938,70 L 129.17067182437248,70 L 130.63913991695046,70 L 130.67940751520808,70 L 130.72359972584593,70 L 132.2019599920947,70 L 132.2339841122933,70 L 132.27539862923737,70 L 133.74642936825546,70 L 133.7740987815664,70 L 133.80916940452596,70 L 135.29037904688641,70 L 135.32699084183093,70 L 135.36412233430522,70 L 136.8394898596065,70 L 136.87146021799168,70 L 136.91280305251786,70 L 138.38748959484903,70 L 138.41965707988345,70 L 138.4577562849995,70 L 139.9363136778975,70 L 139.9678360211708,70 L 140.0019747726976,70 L 141.48295144719987,40 L 141.5127892536524,40 L 143.0300551522186,40 L 143.06648774111835,40 L 143.10089530171228,40 L 144.57997239214006,40 L 144.6050612384065,40 L 144.64776603887285,40 L 146.13671738236692,40 L 146.17456569902026,40 L 147.67749511400564,40 L 147.71692044385287,40 L 147.76838841990798,40 L 149.22814709871062,40 L 149.2667301601475,40 L 149.29047496107822,40 L 150.77851235374402,40 L 150.814389403905,40 L 150.85221979995387,40 L 152.32778445190436,40 L 152.3619769652446,40 L 152.4007392327262,40 L 153.87445806241567,40 L 153.90519189909205,40 L 153.94382872234235,40 L 155.42265492430747,40 L 155.45516290082696,40 L 155.4870974180032,40 L 156.97045753290078,40 L 157.00758902537507,40 L 157.0486630508341,40 L 158.52188010359825,40 L 158.55831269249796,40 L 158.60284539462086,40 L 160.06081201297593,40 L 160.09815855270392,40 L 160.14109632102847,40 L 161.61628464028496,40 L 161.65192872258777,40 L 161.6886659617636,40 L 163.16553881784085,40 L 163.20727590566548,40 L 163.25146811630333,40 L 164.7144345833072,40 L 164.75210369391576,40 L 164.7985001389042,40 L 166.25987167210965,40 L 166.29931492256136,40 L 166.33576543206559,40 L 167.81455579282178,40 L 167.85052244600513,40 L 169.3663188550043,40 L 169.39923900542672,40 L 170.90874528225478,40 L 170.94600221896042,40 L 170.9902481914117,40 L 172.45507840128107,40 L 172.5021199880306,40 L 174.00671601923224,40 L 174.0387222188264,40 L 174.08090732176294,40 L 175.55161548990043,40 L 175.59053904282234,40 L 175.6348029358781,40 L 177.09569061276275,40 L 177.13327012034895,40 L 177.16509711389836,40 L 178.64926365599732,40 L 178.69252399520244,40 L 180.198661198389,40 L 180.23747722768405,40 L 181.74719855176585,40 L 181.78576369259824,40 L 183.29514452519496,40 L 183.33333333333334,40" stroke="#22c55e" stroke-width="2" fill="none" stroke-dasharray="14300" stroke-dashoffset="14300">
      <animate attributeName="stroke-dashoffset" values="14300;0" dur="3s" begin="2.6s" fill="freeze"/>
    </path>
    
    <!-- Glow effect for the line that also follows the circle -->
    <path d="M 30,160 L 30.0216660108115,160 L 30.058008996688855,160 L 31.55041901684681,160 L 31.577479129605592,160 L 31.608947711065472,160 L 33.09884884659678,160 L 33.13133890251179,160 L 33.164814591672986,160 L 34.64530740985439,160 L 34.67297682316536,160 L 34.70940941206509,160 L 36.197966502260705,160 L 36.22156793835561,160 L 36.25063515881571,160 L 37.74499852486155,160 L 37.77851005523169,160 L 37.809889033669194,160 L 39.29244272136534,160 L 39.322603098698465,160 L 39.35647304115814,160 L 40.83859663434686,160 L 40.868004346292,160 L 40.90115746457262,160 L 42.39016256988013,160 L 42.41765277714634,160 L 42.445770205569204,160 L 43.93674657736908,160 L 43.96454143491137,160 L 43.997945441654664,160 L 45.47618026367209,160 L 45.51298918526582,160 L 45.54386638677799,160 L 47.03260268301836,160 L 47.054340376247765,160 L 47.09342521460995,160 L 48.58278873200699,160 L 48.61545799396676,160 L 48.64988347516518,160 L 50.13333319308512,160 L 50.16322476135112,160 L 50.19489046946023,160 L 51.672498070321,160 L 51.70497020563154,160 L 51.73735273791969,160 L 53.22562309844369,160 L 53.256016443635005,160 L 53.29074657510952,160 L 54.774447181492135,160 L 54.80242124507919,160 L 54.83329844659136,160 L 56.32391640630171,160 L 56.34384411847904,160 L 56.39276736869856,160 L 57.86962230417133,160 L 57.89978268150446,160 L 57.92953088493464,160 L 59.42082982761508,160 L 59.45507610276875,160 L 59.48624003395254,160 L 60.968417388954684,160 L 60.99857776628781,160 L 61.03334373897128,160 L 62.514642984354104,160 L 62.54428366415743,160 L 62.57129001510278,160 L 64.06533081026805,160 L 64.09595712331756,160 L 64.12749738719535,160 L 65.61833039415941,160 L 65.64714672615685,160 L 65.6755688048558,160 L 67.16086434503677,160 L 67.19166986413104,70 L 67.22376566674758,70 L 68.71499292701012,70 L 68.73637220815,70 L 68.76585160251305,70 L 70.25946230317089,70 L 70.28336838954189,70 L 70.32578646033662,70 L 71.80964835215951,70 L 71.84113485422387,70 L 71.86878634693036,70 L 73.3517163673205,70 L 73.38621353093683,70 L 73.41999387037411,70 L 74.90959035562933,70 L 74.9248587106429,70 L 74.96623738637801,70 L 76.45483031778258,70 L 76.48746373853339,70 L 76.52432642194056,70 L 78.0032959887415,70 L 78.03404774602234,70 L 78.0734551552651,70 L 79.54925277507378,70 L 79.58195787824252,70 L 79.62011084517194,70 L 81.10617697134538,70 L 81.14260956024512,70 L 82.64856755738694,70 L 82.7251781415219,70 L 84.19715867257719,70 L 84.23523995708874,70 L 84.27138581631684,70 L 85.7451225666108,70 L 85.78524680003258,70 L 85.81286245153012,70 L 87.2967422639575,70 L 87.33032547674554,70 L 87.36803042856307,70 L 88.83963462692438,70 L 88.87319991910795,70 L 88.91095863273893,70 L 90.3903403734428,70 L 90.42333220628313,70 L 90.45872540012327,70 L 91.94414638453557,70 L 91.98749632676305,70 L 93.52673288641682,70 L 93.56777107066691,70 L 95.04432135586359,70 L 95.0781554571143,70 L 96.59671163920277,70 L 96.62552797120019,70 L 96.67298173185267,70 L 98.13318842576723,70 L 98.16616233800309,70 L 98.20146592882085,70 L 99.68339239536033,70 L 99.72238763070014,70 L 99.76152623087575,70 L 101.22899076960309,70 L 101.26060271589878,70 L 101.29902449189535,70 L 102.77607655401737,70 L 102.81200736599176,70 L 102.8589772703234,70 L 104.31963197934986,70 L 104.36052679876413,70 L 104.40011341405163,70 L 105.87512252726339,70 L 105.90802475708135,70 L 105.94558634406306,70 L 107.42342691278202,70 L 107.45672339589846,70 L 107.49510933068606,70 L 108.96976003180829,70 L 109.00836101384964,70 L 109.04995473683846,70 L 110.51965935112531,70 L 110.55039318780166,70 L 110.58743507725359,70 L 112.06936154379308,70 L 112.09694135408166,70 L 112.13461046469023,70 L 113.61383091995384,70 L 113.64918827258502,70 L 113.68823726973825,70 L 115.16322846234551,70 L 115.20075420811828,70 L 115.24066339428637,70 L 116.71572626931155,70 L 116.74287598509271,70 L 116.78170993499224,70 L 118.26277621251687,70 L 118.2993521662524,70 L 118.33196766639875,70 L 119.80643916147622,70 L 119.83991485063741,70 L 119.87846207086533,70 L 121.35209129753241,70 L 121.39269938727507,70 L 121.42984880035384,70 L 122.9038722803194,70 L 122.93451651397338,70 L 122.96892407456734,70 L 124.45835927438226,70 L 124.49575957592371,70 L 124.53785507583787,70 L 126.00546297940102,70 L 126.0388669861443,70 L 126.07227099288758,70 L 127.55030868825578,70 L 127.58740433952113,70 L 127.62389069023429,70 L 129.0920362119317,70 L 129.1323217307938,70 L 129.17067182437248,70 L 130.63913991695046,70 L 130.67940751520808,70 L 130.72359972584593,70 L 132.2019599920947,70 L 132.2339841122933,70 L 132.27539862923737,70 L 133.74642936825546,70 L 133.7740987815664,70 L 133.80916940452596,70 L 135.29037904688641,70 L 135.32699084183093,70 L 135.36412233430522,70 L 136.8394898596065,70 L 136.87146021799168,70 L 136.91280305251786,70 L 138.38748959484903,70 L 138.41965707988345,70 L 138.4577562849995,70 L 139.9363136778975,70 L 139.9678360211708,70 L 140.0019747726976,70 L 141.48295144719987,40 L 141.5127892536524,40 L 143.0300551522186,40 L 143.06648774111835,40 L 143.10089530171228,40 L 144.57997239214006,40 L 144.6050612384065,40 L 144.64776603887285,40 L 146.13671738236692,40 L 146.17456569902026,40 L 147.67749511400564,40 L 147.71692044385287,40 L 147.76838841990798,40 L 149.22814709871062,40 L 149.2667301601475,40 L 149.29047496107822,40 L 150.77851235374402,40 L 150.814389403905,40 L 150.85221979995387,40 L 152.32778445190436,40 L 152.3619769652446,40 L 152.4007392327262,40 L 153.87445806241567,40 L 153.90519189909205,40 L 153.94382872234235,40 L 155.42265492430747,40 L 155.45516290082696,40 L 155.4870974180032,40 L 156.97045753290078,40 L 157.00758902537507,40 L 157.0486630508341,40 L 158.52188010359825,40 L 158.55831269249796,40 L 158.60284539462086,40 L 160.06081201297593,40 L 160.09815855270392,40 L 160.14109632102847,40 L 161.61628464028496,40 L 161.65192872258777,40 L 161.6886659617636,40 L 163.16553881784085,40 L 163.20727590566548,40 L 163.25146811630333,40 L 164.7144345833072,40 L 164.75210369391576,40 L 164.7985001389042,40 L 166.25987167210965,40 L 166.29931492256136,40 L 166.33576543206559,40 L 167.81455579282178,40 L 167.85052244600513,40 L 169.3663188550043,40 L 169.39923900542672,40 L 170.90874528225478,40 L 170.94600221896042,40 L 170.9902481914117,40 L 172.45507840128107,40 L 172.5021199880306,40 L 174.00671601923224,40 L 174.0387222188264,40 L 174.08090732176294,40 L 175.55161548990043,40 L 175.59053904282234,40 L 175.6348029358781,40 L 177.09569061276275,40 L 177.13327012034895,40 L 177.16509711389836,40 L 178.64926365599732,40 L 178.69252399520244,40 L 180.198661198389,40 L 180.23747722768405,40 L 181.74719855176585,40 L 181.78576369259824,40 L 183.29514452519496,40 L 183.33333333333334,40" stroke="#22c55e" stroke-width="4" fill="none" opacity="0.4" stroke-dasharray="14300" stroke-dashoffset="14300">
      <animate attributeName="stroke-dashoffset" values="14300;0" dur="3s" begin="2.6s" fill="freeze"/>
    </path>
    
    <!-- Animated circle that moves along the path and draws the line -->
    <circle r="5" fill="#22c55e" opacity="0" filter="url(#trailGlow)">
      <animate attributeName="opacity" values="0;1;1;1" dur="3.2s" begin="2.4s" fill="freeze"/>
      <animate attributeName="r" values="5;6;5" dur="1s" begin="2.4s" repeatCount="3"/>
      <animateMotion dur="3s" begin="2.4s" fill="freeze">
        <mpath href="#path_followersCount_60"/>
      </animateMotion>
    </circle>
    
    <!-- Small trail dots that fade out -->
    <circle r="2" fill="#22c55e" opacity="0">
      <animate attributeName="opacity" values="0;0.6;0" dur="0.8s" begin="2.8s" fill="freeze"/>
      <animateMotion dur="3s" begin="2.4s" fill="freeze">
        <mpath href="#path_followersCount_60"/>
      </animateMotion>
    </circle>
    
    <!-- Hidden path for motion animation -->
    <path id="path_followersCount_60" d="M 30,160 L 30.0216660108115,160 L 30.058008996688855,160 L 31.55041901684681,160 L 31.577479129605592,160 L 31.608947711065472,160 L 33.09884884659678,160 L 33.13133890251179,160 L 33.164814591672986,160 L 34.64530740985439,160 L 34.67297682316536,160 L 34.70940941206509,160 L 36.197966502260705,160 L 36.22156793835561,160 L 36.25063515881571,160 L 37.74499852486155,160 L 37.77851005523169,160 L 37.809889033669194,160 L 39.29244272136534,160 L 39.322603098698465,160 L 39.35647304115814,160 L 40.83859663434686,160 L 40.868004346292,160 L 40.90115746457262,160 L 42.39016256988013,160 L 42.41765277714634,160 L 42.445770205569204,160 L 43.93674657736908,160 L 43.96454143491137,160 L 43.997945441654664,160 L 45.47618026367209,160 L 45.51298918526582,160 L 45.54386638677799,160 L 47.03260268301836,160 L 47.054340376247765,160 L 47.09342521460995,160 L 48.58278873200699,160 L 48.61545799396676,160 L 48.64988347516518,160 L 50.13333319308512,160 L 50.16322476135112,160 L 50.19489046946023,160 L 51.672498070321,160 L 51.70497020563154,160 L 51.73735273791969,160 L 53.22562309844369,160 L 53.256016443635005,160 L 53.29074657510952,160 L 54.774447181492135,160 L 54.80242124507919,160 L 54.83329844659136,160 L 56.32391640630171,160 L 56.34384411847904,160 L 56.39276736869856,160 L 57.86962230417133,160 L 57.89978268150446,160 L 57.92953088493464,160 L 59.42082982761508,160 L 59.45507610276875,160 L 59.48624003395254,160 L 60.968417388954684,160 L 60.99857776628781,160 L 61.03334373897128,160 L 62.514642984354104,160 L 62.54428366415743,160 L 62.57129001510278,160 L 64.06533081026805,160 L 64.09595712331756,160 L 64.12749738719535,160 L 65.61833039415941,160 L 65.64714672615685,160 L 65.6755688048558,160 L 67.16086434503677,160 L 67.19166986413104,70 L 67.22376566674758,70 L 68.71499292701012,70 L 68.73637220815,70 L 68.76585160251305,70 L 70.25946230317089,70 L 70.28336838954189,70 L 70.32578646033662,70 L 71.80964835215951,70 L 71.84113485422387,70 L 71.86878634693036,70 L 73.3517163673205,70 L 73.38621353093683,70 L 73.41999387037411,70 L 74.90959035562933,70 L 74.9248587106429,70 L 74.96623738637801,70 L 76.45483031778258,70 L 76.48746373853339,70 L 76.52432642194056,70 L 78.0032959887415,70 L 78.03404774602234,70 L 78.0734551552651,70 L 79.54925277507378,70 L 79.58195787824252,70 L 79.62011084517194,70 L 81.10617697134538,70 L 81.14260956024512,70 L 82.64856755738694,70 L 82.7251781415219,70 L 84.19715867257719,70 L 84.23523995708874,70 L 84.27138581631684,70 L 85.7451225666108,70 L 85.78524680003258,70 L 85.81286245153012,70 L 87.2967422639575,70 L 87.33032547674554,70 L 87.36803042856307,70 L 88.83963462692438,70 L 88.87319991910795,70 L 88.91095863273893,70 L 90.3903403734428,70 L 90.42333220628313,70 L 90.45872540012327,70 L 91.94414638453557,70 L 91.98749632676305,70 L 93.52673288641682,70 L 93.56777107066691,70 L 95.04432135586359,70 L 95.0781554571143,70 L 96.59671163920277,70 L 96.62552797120019,70 L 96.67298173185267,70 L 98.13318842576723,70 L 98.16616233800309,70 L 98.20146592882085,70 L 99.68339239536033,70 L 99.72238763070014,70 L 99.76152623087575,70 L 101.22899076960309,70 L 101.26060271589878,70 L 101.29902449189535,70 L 102.77607655401737,70 L 102.81200736599176,70 L 102.8589772703234,70 L 104.31963197934986,70 L 104.36052679876413,70 L 104.40011341405163,70 L 105.87512252726339,70 L 105.90802475708135,70 L 105.94558634406306,70 L 107.42342691278202,70 L 107.45672339589846,70 L 107.49510933068606,70 L 108.96976003180829,70 L 109.00836101384964,70 L 109.04995473683846,70 L 110.51965935112531,70 L 110.55039318780166,70 L 110.58743507725359,70 L 112.06936154379308,70 L 112.09694135408166,70 L 112.13461046469023,70 L 113.61383091995384,70 L 113.64918827258502,70 L 113.68823726973825,70 L 115.16322846234551,70 L 115.20075420811828,70 L 115.24066339428637,70 L 116.71572626931155,70 L 116.74287598509271,70 L 116.78170993499224,70 L 118.26277621251687,70 L 118.2993521662524,70 L 118.33196766639875,70 L 119.80643916147622,70 L 119.83991485063741,70 L 119.87846207086533,70 L 121.35209129753241,70 L 121.39269938727507,70 L 121.42984880035384,70 L 122.9038722803194,70 L 122.93451651397338,70 L 122.96892407456734,70 L 124.45835927438226,70 L 124.49575957592371,70 L 124.53785507583787,70 L 126.00546297940102,70 L 126.0388669861443,70 L 126.07227099288758,70 L 127.55030868825578,70 L 127.58740433952113,70 L 127.62389069023429,70 L 129.0920362119317,70 L 129.1323217307938,70 L 129.17067182437248,70 L 130.63913991695046,70 L 130.67940751520808,70 L 130.72359972584593,70 L 132.2019599920947,70 L 132.2339841122933,70 L 132.27539862923737,70 L 133.74642936825546,70 L 133.7740987815664,70 L 133.80916940452596,70 L 135.29037904688641,70 L 135.32699084183093,70 L 135.36412233430522,70 L 136.8394898596065,70 L 136.87146021799168,70 L 136.91280305251786,70 L 138.38748959484903,70 L 138.41965707988345,70 L 138.4577562849995,70 L 139.9363136778975,70 L 139.9678360211708,70 L 140.0019747726976,70 L 141.48295144719987,40 L 141.5127892536524,40 L 143.0300551522186,40 L 143.06648774111835,40 L 143.10089530171228,40 L 144.57997239214006,40 L 144.6050612384065,40 L 144.64776603887285,40 L 146.13671738236692,40 L 146.17456569902026,40 L 147.67749511400564,40 L 147.71692044385287,40 L 147.76838841990798,40 L 149.22814709871062,40 L 149.2667301601475,40 L 149.29047496107822,40 L 150.77851235374402,40 L 150.814389403905,40 L 150.85221979995387,40 L 152.32778445190436,40 L 152.3619769652446,40 L 152.4007392327262,40 L 153.87445806241567,40 L 153.90519189909205,40 L 153.94382872234235,40 L 155.42265492430747,40 L 155.45516290082696,40 L 155.4870974180032,40 L 156.97045753290078,40 L 157.00758902537507,40 L 157.0486630508341,40 L 158.52188010359825,40 L 158.55831269249796,40 L 158.60284539462086,40 L 160.06081201297593,40 L 160.09815855270392,40 L 160.14109632102847,40 L 161.61628464028496,40 L 161.65192872258777,40 L 161.6886659617636,40 L 163.16553881784085,40 L 163.20727590566548,40 L 163.25146811630333,40 L 164.7144345833072,40 L 164.75210369391576,40 L 164.7985001389042,40 L 166.25987167210965,40 L 166.29931492256136,40 L 166.33576543206559,40 L 167.81455579282178,40 L 167.85052244600513,40 L 169.3663188550043,40 L 169.39923900542672,40 L 170.90874528225478,40 L 170.94600221896042,40 L 170.9902481914117,40 L 172.45507840128107,40 L 172.5021199880306,40 L 174.00671601923224,40 L 174.0387222188264,40 L 174.08090732176294,40 L 175.55161548990043,40 L 175.59053904282234,40 L 175.6348029358781,40 L 177.09569061276275,40 L 177.13327012034895,40 L 177.16509711389836,40 L 178.64926365599732,40 L 178.69252399520244,40 L 180.198661198389,40 L 180.23747722768405,40 L 181.74719855176585,40 L 181.78576369259824,40 L 183.29514452519496,40 L 183.33333333333334,40" fill="none" stroke="none"/>
  </g>
  <!-- 🔓 Public Contributions Chart -->
  <g transform="translate(293.33333333333337, 250)">
    <!-- Chart Background -->
    <rect x="0" y="0" width="213.33333333333334" height="200" fill="#ffffff" stroke="#e2e8f0" stroke-width="1" rx="8" filter="url(#shadow)">
      <animate attributeName="opacity" values="0;1" dur="0.5s" begin="2.3s" fill="freeze"/>
    </rect>
    
    <!-- Chart Title -->
    <text x="106.66666666666667" y="25" text-anchor="middle" fill="#1e293b" font-size="14" font-weight="bold" font-family="Arial, sans-serif">
      🔓 Public Contributions
      <animate attributeName="opacity" values="0;1" dur="0.5s" begin="2.5s" fill="freeze"/>
    </text>
    
    <!-- Y-axis labels -->
    <text x="10" y="45" fill="#64748b" font-size="10" font-family="Arial, sans-serif">3,861
      <animate attributeName="opacity" values="0;1" dur="0.5s" begin="2.6999999999999997s" fill="freeze"/>
    </text>
    <text x="10" y="185" fill="#64748b" font-size="10" font-family="Arial, sans-serif">3,434
      <animate attributeName="opacity" values="0;1" dur="0.5s" begin="2.6999999999999997s" fill="freeze"/>
    </text>
    
    <!-- Chart Line with draw animation that follows the circle -->
    <path d="M 30,160 L 30.0216660108115,160 L 30.058008996688855,160 L 31.55041901684681,160 L 31.577479129605592,160 L 31.608947711065472,160 L 33.09884884659678,160 L 33.13133890251179,160 L 33.164814591672986,160 L 34.64530740985439,160 L 34.67297682316536,160 L 34.70940941206509,160 L 36.197966502260705,160 L 36.22156793835561,160 L 36.25063515881571,160 L 37.74499852486155,160 L 37.77851005523169,160 L 37.809889033669194,160 L 39.29244272136534,160 L 39.322603098698465,160 L 39.35647304115814,160 L 40.83859663434686,160 L 40.868004346292,160 L 40.90115746457262,160 L 42.39016256988013,160 L 42.41765277714634,160 L 42.445770205569204,160 L 43.93674657736908,160 L 43.96454143491137,160 L 43.997945441654664,160 L 45.47618026367209,160 L 45.51298918526582,160 L 45.54386638677799,160 L 47.03260268301836,160 L 47.054340376247765,160 L 47.09342521460995,160 L 48.58278873200699,160 L 48.61545799396676,160 L 48.64988347516518,160 L 50.13333319308512,160 L 50.16322476135112,160 L 50.19489046946023,160 L 51.672498070321,160 L 51.70497020563154,160 L 51.73735273791969,160 L 53.22562309844369,160 L 53.256016443635005,160 L 53.29074657510952,160 L 54.774447181492135,160 L 54.80242124507919,160 L 54.83329844659136,160 L 56.32391640630171,160 L 56.34384411847904,160 L 56.39276736869856,160 L 57.86962230417133,160 L 57.89978268150446,160 L 57.92953088493464,160 L 59.42082982761508,160 L 59.45507610276875,160 L 59.48624003395254,160 L 60.968417388954684,160 L 60.99857776628781,160 L 61.03334373897128,160 L 62.514642984354104,160 L 62.54428366415743,160 L 62.57129001510278,160 L 64.06533081026805,160 L 64.09595712331756,160 L 64.12749738719535,160 L 65.61833039415941,160 L 65.64714672615685,160 L 65.6755688048558,160 L 67.16086434503677,160 L 67.19166986413104,40 L 67.22376566674758,40 L 68.71499292701012,40 L 68.73637220815,40 L 68.76585160251305,40 L 70.25946230317089,40 L 70.28336838954189,40 L 70.32578646033662,40 L 71.80964835215951,40 L 71.84113485422387,40 L 71.86878634693036,40 L 73.3517163673205,40 L 73.38621353093683,40 L 73.41999387037411,40 L 74.90959035562933,40 L 74.9248587106429,40 L 74.96623738637801,40 L 76.45483031778258,40 L 76.48746373853339,40 L 76.52432642194056,40 L 78.0032959887415,40 L 78.03404774602234,40 L 78.0734551552651,40 L 79.54925277507378,40 L 79.58195787824252,40 L 79.62011084517194,40 L 81.10617697134538,40 L 81.14260956024512,40 L 82.64856755738694,40 L 82.7251781415219,40 L 84.19715867257719,40 L 84.23523995708874,40 L 84.27138581631684,40 L 85.7451225666108,40 L 85.78524680003258,40 L 85.81286245153012,40 L 87.2967422639575,40 L 87.33032547674554,40 L 87.36803042856307,40 L 88.83963462692438,40 L 88.87319991910795,40 L 88.91095863273893,40 L 90.3903403734428,40 L 90.42333220628313,40 L 90.45872540012327,40 L 91.94414638453557,40 L 91.98749632676305,40 L 93.52673288641682,40 L 93.56777107066691,40 L 95.04432135586359,40 L 95.0781554571143,40 L 96.59671163920277,40 L 96.62552797120019,40 L 96.67298173185267,40 L 98.13318842576723,40 L 98.16616233800309,40 L 98.20146592882085,40 L 99.68339239536033,40 L 99.72238763070014,40 L 99.76152623087575,40 L 101.22899076960309,40 L 101.26060271589878,40 L 101.29902449189535,40 L 102.77607655401737,40 L 102.81200736599176,40 L 102.8589772703234,40 L 104.31963197934986,40 L 104.36052679876413,40 L 104.40011341405163,40 L 105.87512252726339,40 L 105.90802475708135,40 L 105.94558634406306,40 L 107.42342691278202,40 L 107.45672339589846,40 L 107.49510933068606,40 L 108.96976003180829,40 L 109.00836101384964,40 L 109.04995473683846,40 L 110.51965935112531,40 L 110.55039318780166,40 L 110.58743507725359,40 L 112.06936154379308,40 L 112.09694135408166,40 L 112.13461046469023,40 L 113.61383091995384,40 L 113.64918827258502,40 L 113.68823726973825,40 L 115.16322846234551,40 L 115.20075420811828,40 L 115.24066339428637,40 L 116.71572626931155,40 L 116.74287598509271,40 L 116.78170993499224,40 L 118.26277621251687,40 L 118.2993521662524,40 L 118.33196766639875,40 L 119.80643916147622,40 L 119.83991485063741,40 L 119.87846207086533,40 L 121.35209129753241,40 L 121.39269938727507,40 L 121.42984880035384,40 L 122.9038722803194,40 L 122.93451651397338,40 L 122.96892407456734,40 L 124.45835927438226,40 L 124.49575957592371,40 L 124.53785507583787,40 L 126.00546297940102,40 L 126.0388669861443,40 L 126.07227099288758,40 L 127.55030868825578,40 L 127.58740433952113,40 L 127.62389069023429,40 L 129.0920362119317,40 L 129.1323217307938,40 L 129.17067182437248,40 L 130.63913991695046,40 L 130.67940751520808,40 L 130.72359972584593,40 L 132.2019599920947,40 L 132.2339841122933,40 L 132.27539862923737,40 L 133.74642936825546,40 L 133.7740987815664,40 L 133.80916940452596,40 L 135.29037904688641,40 L 135.32699084183093,40 L 135.36412233430522,40 L 136.8394898596065,40 L 136.87146021799168,40 L 136.91280305251786,40 L 138.38748959484903,40 L 138.41965707988345,40 L 138.4577562849995,40 L 139.9363136778975,40 L 139.9678360211708,40 L 140.0019747726976,40 L 141.48295144719987,66.4168618266979 L 141.5127892536524,66.4168618266979 L 143.0300551522186,66.4168618266979 L 143.06648774111835,66.4168618266979 L 143.10089530171228,66.4168618266979 L 144.57997239214006,66.4168618266979 L 144.6050612384065,66.4168618266979 L 144.64776603887285,66.4168618266979 L 146.13671738236692,66.4168618266979 L 146.17456569902026,66.4168618266979 L 147.67749511400564,66.4168618266979 L 147.71692044385287,66.4168618266979 L 147.76838841990798,66.4168618266979 L 149.22814709871062,66.4168618266979 L 149.2667301601475,66.4168618266979 L 149.29047496107822,66.4168618266979 L 150.77851235374402,66.4168618266979 L 150.814389403905,66.4168618266979 L 150.85221979995387,66.4168618266979 L 152.32778445190436,66.4168618266979 L 152.3619769652446,66.4168618266979 L 152.4007392327262,66.4168618266979 L 153.87445806241567,66.4168618266979 L 153.90519189909205,66.4168618266979 L 153.94382872234235,66.4168618266979 L 155.42265492430747,66.4168618266979 L 155.45516290082696,66.4168618266979 L 155.4870974180032,66.4168618266979 L 156.97045753290078,66.4168618266979 L 157.00758902537507,66.4168618266979 L 157.0486630508341,66.4168618266979 L 158.52188010359825,66.4168618266979 L 158.55831269249796,66.4168618266979 L 158.60284539462086,66.4168618266979 L 160.06081201297593,66.4168618266979 L 160.09815855270392,66.4168618266979 L 160.14109632102847,66.4168618266979 L 161.61628464028496,66.4168618266979 L 161.65192872258777,66.4168618266979 L 161.6886659617636,66.4168618266979 L 163.16553881784085,66.4168618266979 L 163.20727590566548,66.4168618266979 L 163.25146811630333,66.4168618266979 L 164.7144345833072,66.4168618266979 L 164.75210369391576,66.4168618266979 L 164.7985001389042,66.4168618266979 L 166.25987167210965,66.4168618266979 L 166.29931492256136,66.4168618266979 L 166.33576543206559,66.4168618266979 L 167.81455579282178,66.4168618266979 L 167.85052244600513,66.4168618266979 L 169.3663188550043,66.4168618266979 L 169.39923900542672,66.4168618266979 L 170.90874528225478,66.4168618266979 L 170.94600221896042,66.4168618266979 L 170.9902481914117,66.4168618266979 L 172.45507840128107,66.4168618266979 L 172.5021199880306,66.4168618266979 L 174.00671601923224,66.4168618266979 L 174.0387222188264,66.4168618266979 L 174.08090732176294,66.4168618266979 L 175.55161548990043,66.4168618266979 L 175.59053904282234,66.4168618266979 L 175.6348029358781,66.4168618266979 L 177.09569061276275,66.4168618266979 L 177.13327012034895,66.4168618266979 L 177.16509711389836,66.4168618266979 L 178.64926365599732,66.4168618266979 L 178.69252399520244,66.4168618266979 L 180.198661198389,66.4168618266979 L 180.23747722768405,66.4168618266979 L 181.74719855176585,66.4168618266979 L 181.78576369259824,66.4168618266979 L 183.29514452519496,66.4168618266979 L 183.33333333333334,66.4168618266979" stroke="#3b82f6" stroke-width="2" fill="none" stroke-dasharray="14300" stroke-dashoffset="14300">
      <animate attributeName="stroke-dashoffset" values="14300;0" dur="3s" begin="3.0999999999999996s" fill="freeze"/>
    </path>
    
    <!-- Glow effect for the line that also follows the circle -->
    <path d="M 30,160 L 30.0216660108115,160 L 30.058008996688855,160 L 31.55041901684681,160 L 31.577479129605592,160 L 31.608947711065472,160 L 33.09884884659678,160 L 33.13133890251179,160 L 33.164814591672986,160 L 34.64530740985439,160 L 34.67297682316536,160 L 34.70940941206509,160 L 36.197966502260705,160 L 36.22156793835561,160 L 36.25063515881571,160 L 37.74499852486155,160 L 37.77851005523169,160 L 37.809889033669194,160 L 39.29244272136534,160 L 39.322603098698465,160 L 39.35647304115814,160 L 40.83859663434686,160 L 40.868004346292,160 L 40.90115746457262,160 L 42.39016256988013,160 L 42.41765277714634,160 L 42.445770205569204,160 L 43.93674657736908,160 L 43.96454143491137,160 L 43.997945441654664,160 L 45.47618026367209,160 L 45.51298918526582,160 L 45.54386638677799,160 L 47.03260268301836,160 L 47.054340376247765,160 L 47.09342521460995,160 L 48.58278873200699,160 L 48.61545799396676,160 L 48.64988347516518,160 L 50.13333319308512,160 L 50.16322476135112,160 L 50.19489046946023,160 L 51.672498070321,160 L 51.70497020563154,160 L 51.73735273791969,160 L 53.22562309844369,160 L 53.256016443635005,160 L 53.29074657510952,160 L 54.774447181492135,160 L 54.80242124507919,160 L 54.83329844659136,160 L 56.32391640630171,160 L 56.34384411847904,160 L 56.39276736869856,160 L 57.86962230417133,160 L 57.89978268150446,160 L 57.92953088493464,160 L 59.42082982761508,160 L 59.45507610276875,160 L 59.48624003395254,160 L 60.968417388954684,160 L 60.99857776628781,160 L 61.03334373897128,160 L 62.514642984354104,160 L 62.54428366415743,160 L 62.57129001510278,160 L 64.06533081026805,160 L 64.09595712331756,160 L 64.12749738719535,160 L 65.61833039415941,160 L 65.64714672615685,160 L 65.6755688048558,160 L 67.16086434503677,160 L 67.19166986413104,40 L 67.22376566674758,40 L 68.71499292701012,40 L 68.73637220815,40 L 68.76585160251305,40 L 70.25946230317089,40 L 70.28336838954189,40 L 70.32578646033662,40 L 71.80964835215951,40 L 71.84113485422387,40 L 71.86878634693036,40 L 73.3517163673205,40 L 73.38621353093683,40 L 73.41999387037411,40 L 74.90959035562933,40 L 74.9248587106429,40 L 74.96623738637801,40 L 76.45483031778258,40 L 76.48746373853339,40 L 76.52432642194056,40 L 78.0032959887415,40 L 78.03404774602234,40 L 78.0734551552651,40 L 79.54925277507378,40 L 79.58195787824252,40 L 79.62011084517194,40 L 81.10617697134538,40 L 81.14260956024512,40 L 82.64856755738694,40 L 82.7251781415219,40 L 84.19715867257719,40 L 84.23523995708874,40 L 84.27138581631684,40 L 85.7451225666108,40 L 85.78524680003258,40 L 85.81286245153012,40 L 87.2967422639575,40 L 87.33032547674554,40 L 87.36803042856307,40 L 88.83963462692438,40 L 88.87319991910795,40 L 88.91095863273893,40 L 90.3903403734428,40 L 90.42333220628313,40 L 90.45872540012327,40 L 91.94414638453557,40 L 91.98749632676305,40 L 93.52673288641682,40 L 93.56777107066691,40 L 95.04432135586359,40 L 95.0781554571143,40 L 96.59671163920277,40 L 96.62552797120019,40 L 96.67298173185267,40 L 98.13318842576723,40 L 98.16616233800309,40 L 98.20146592882085,40 L 99.68339239536033,40 L 99.72238763070014,40 L 99.76152623087575,40 L 101.22899076960309,40 L 101.26060271589878,40 L 101.29902449189535,40 L 102.77607655401737,40 L 102.81200736599176,40 L 102.8589772703234,40 L 104.31963197934986,40 L 104.36052679876413,40 L 104.40011341405163,40 L 105.87512252726339,40 L 105.90802475708135,40 L 105.94558634406306,40 L 107.42342691278202,40 L 107.45672339589846,40 L 107.49510933068606,40 L 108.96976003180829,40 L 109.00836101384964,40 L 109.04995473683846,40 L 110.51965935112531,40 L 110.55039318780166,40 L 110.58743507725359,40 L 112.06936154379308,40 L 112.09694135408166,40 L 112.13461046469023,40 L 113.61383091995384,40 L 113.64918827258502,40 L 113.68823726973825,40 L 115.16322846234551,40 L 115.20075420811828,40 L 115.24066339428637,40 L 116.71572626931155,40 L 116.74287598509271,40 L 116.78170993499224,40 L 118.26277621251687,40 L 118.2993521662524,40 L 118.33196766639875,40 L 119.80643916147622,40 L 119.83991485063741,40 L 119.87846207086533,40 L 121.35209129753241,40 L 121.39269938727507,40 L 121.42984880035384,40 L 122.9038722803194,40 L 122.93451651397338,40 L 122.96892407456734,40 L 124.45835927438226,40 L 124.49575957592371,40 L 124.53785507583787,40 L 126.00546297940102,40 L 126.0388669861443,40 L 126.07227099288758,40 L 127.55030868825578,40 L 127.58740433952113,40 L 127.62389069023429,40 L 129.0920362119317,40 L 129.1323217307938,40 L 129.17067182437248,40 L 130.63913991695046,40 L 130.67940751520808,40 L 130.72359972584593,40 L 132.2019599920947,40 L 132.2339841122933,40 L 132.27539862923737,40 L 133.74642936825546,40 L 133.7740987815664,40 L 133.80916940452596,40 L 135.29037904688641,40 L 135.32699084183093,40 L 135.36412233430522,40 L 136.8394898596065,40 L 136.87146021799168,40 L 136.91280305251786,40 L 138.38748959484903,40 L 138.41965707988345,40 L 138.4577562849995,40 L 139.9363136778975,40 L 139.9678360211708,40 L 140.0019747726976,40 L 141.48295144719987,66.4168618266979 L 141.5127892536524,66.4168618266979 L 143.0300551522186,66.4168618266979 L 143.06648774111835,66.4168618266979 L 143.10089530171228,66.4168618266979 L 144.57997239214006,66.4168618266979 L 144.6050612384065,66.4168618266979 L 144.64776603887285,66.4168618266979 L 146.13671738236692,66.4168618266979 L 146.17456569902026,66.4168618266979 L 147.67749511400564,66.4168618266979 L 147.71692044385287,66.4168618266979 L 147.76838841990798,66.4168618266979 L 149.22814709871062,66.4168618266979 L 149.2667301601475,66.4168618266979 L 149.29047496107822,66.4168618266979 L 150.77851235374402,66.4168618266979 L 150.814389403905,66.4168618266979 L 150.85221979995387,66.4168618266979 L 152.32778445190436,66.4168618266979 L 152.3619769652446,66.4168618266979 L 152.4007392327262,66.4168618266979 L 153.87445806241567,66.4168618266979 L 153.90519189909205,66.4168618266979 L 153.94382872234235,66.4168618266979 L 155.42265492430747,66.4168618266979 L 155.45516290082696,66.4168618266979 L 155.4870974180032,66.4168618266979 L 156.97045753290078,66.4168618266979 L 157.00758902537507,66.4168618266979 L 157.0486630508341,66.4168618266979 L 158.52188010359825,66.4168618266979 L 158.55831269249796,66.4168618266979 L 158.60284539462086,66.4168618266979 L 160.06081201297593,66.4168618266979 L 160.09815855270392,66.4168618266979 L 160.14109632102847,66.4168618266979 L 161.61628464028496,66.4168618266979 L 161.65192872258777,66.4168618266979 L 161.6886659617636,66.4168618266979 L 163.16553881784085,66.4168618266979 L 163.20727590566548,66.4168618266979 L 163.25146811630333,66.4168618266979 L 164.7144345833072,66.4168618266979 L 164.75210369391576,66.4168618266979 L 164.7985001389042,66.4168618266979 L 166.25987167210965,66.4168618266979 L 166.29931492256136,66.4168618266979 L 166.33576543206559,66.4168618266979 L 167.81455579282178,66.4168618266979 L 167.85052244600513,66.4168618266979 L 169.3663188550043,66.4168618266979 L 169.39923900542672,66.4168618266979 L 170.90874528225478,66.4168618266979 L 170.94600221896042,66.4168618266979 L 170.9902481914117,66.4168618266979 L 172.45507840128107,66.4168618266979 L 172.5021199880306,66.4168618266979 L 174.00671601923224,66.4168618266979 L 174.0387222188264,66.4168618266979 L 174.08090732176294,66.4168618266979 L 175.55161548990043,66.4168618266979 L 175.59053904282234,66.4168618266979 L 175.6348029358781,66.4168618266979 L 177.09569061276275,66.4168618266979 L 177.13327012034895,66.4168618266979 L 177.16509711389836,66.4168618266979 L 178.64926365599732,66.4168618266979 L 178.69252399520244,66.4168618266979 L 180.198661198389,66.4168618266979 L 180.23747722768405,66.4168618266979 L 181.74719855176585,66.4168618266979 L 181.78576369259824,66.4168618266979 L 183.29514452519496,66.4168618266979 L 183.33333333333334,66.4168618266979" stroke="#3b82f6" stroke-width="4" fill="none" opacity="0.4" stroke-dasharray="14300" stroke-dashoffset="14300">
      <animate attributeName="stroke-dashoffset" values="14300;0" dur="3s" begin="3.0999999999999996s" fill="freeze"/>
    </path>
    
    <!-- Animated circle that moves along the path and draws the line -->
    <circle r="5" fill="#3b82f6" opacity="0" filter="url(#trailGlow)">
      <animate attributeName="opacity" values="0;1;1;1" dur="3.2s" begin="2.9s" fill="freeze"/>
      <animate attributeName="r" values="5;6;5" dur="1s" begin="2.9s" repeatCount="3"/>
      <animateMotion dur="3s" begin="2.9s" fill="freeze">
        <mpath href="#path_publicContributions_293.33333333333337"/>
      </animateMotion>
    </circle>
    
    <!-- Small trail dots that fade out -->
    <circle r="2" fill="#3b82f6" opacity="0">
      <animate attributeName="opacity" values="0;0.6;0" dur="0.8s" begin="3.3s" fill="freeze"/>
      <animateMotion dur="3s" begin="2.9s" fill="freeze">
        <mpath href="#path_publicContributions_293.33333333333337"/>
      </animateMotion>
    </circle>
    
    <!-- Hidden path for motion animation -->
    <path id="path_publicContributions_293.33333333333337" d="M 30,160 L 30.0216660108115,160 L 30.058008996688855,160 L 31.55041901684681,160 L 31.577479129605592,160 L 31.608947711065472,160 L 33.09884884659678,160 L 33.13133890251179,160 L 33.164814591672986,160 L 34.64530740985439,160 L 34.67297682316536,160 L 34.70940941206509,160 L 36.197966502260705,160 L 36.22156793835561,160 L 36.25063515881571,160 L 37.74499852486155,160 L 37.77851005523169,160 L 37.809889033669194,160 L 39.29244272136534,160 L 39.322603098698465,160 L 39.35647304115814,160 L 40.83859663434686,160 L 40.868004346292,160 L 40.90115746457262,160 L 42.39016256988013,160 L 42.41765277714634,160 L 42.445770205569204,160 L 43.93674657736908,160 L 43.96454143491137,160 L 43.997945441654664,160 L 45.47618026367209,160 L 45.51298918526582,160 L 45.54386638677799,160 L 47.03260268301836,160 L 47.054340376247765,160 L 47.09342521460995,160 L 48.58278873200699,160 L 48.61545799396676,160 L 48.64988347516518,160 L 50.13333319308512,160 L 50.16322476135112,160 L 50.19489046946023,160 L 51.672498070321,160 L 51.70497020563154,160 L 51.73735273791969,160 L 53.22562309844369,160 L 53.256016443635005,160 L 53.29074657510952,160 L 54.774447181492135,160 L 54.80242124507919,160 L 54.83329844659136,160 L 56.32391640630171,160 L 56.34384411847904,160 L 56.39276736869856,160 L 57.86962230417133,160 L 57.89978268150446,160 L 57.92953088493464,160 L 59.42082982761508,160 L 59.45507610276875,160 L 59.48624003395254,160 L 60.968417388954684,160 L 60.99857776628781,160 L 61.03334373897128,160 L 62.514642984354104,160 L 62.54428366415743,160 L 62.57129001510278,160 L 64.06533081026805,160 L 64.09595712331756,160 L 64.12749738719535,160 L 65.61833039415941,160 L 65.64714672615685,160 L 65.6755688048558,160 L 67.16086434503677,160 L 67.19166986413104,40 L 67.22376566674758,40 L 68.71499292701012,40 L 68.73637220815,40 L 68.76585160251305,40 L 70.25946230317089,40 L 70.28336838954189,40 L 70.32578646033662,40 L 71.80964835215951,40 L 71.84113485422387,40 L 71.86878634693036,40 L 73.3517163673205,40 L 73.38621353093683,40 L 73.41999387037411,40 L 74.90959035562933,40 L 74.9248587106429,40 L 74.96623738637801,40 L 76.45483031778258,40 L 76.48746373853339,40 L 76.52432642194056,40 L 78.0032959887415,40 L 78.03404774602234,40 L 78.0734551552651,40 L 79.54925277507378,40 L 79.58195787824252,40 L 79.62011084517194,40 L 81.10617697134538,40 L 81.14260956024512,40 L 82.64856755738694,40 L 82.7251781415219,40 L 84.19715867257719,40 L 84.23523995708874,40 L 84.27138581631684,40 L 85.7451225666108,40 L 85.78524680003258,40 L 85.81286245153012,40 L 87.2967422639575,40 L 87.33032547674554,40 L 87.36803042856307,40 L 88.83963462692438,40 L 88.87319991910795,40 L 88.91095863273893,40 L 90.3903403734428,40 L 90.42333220628313,40 L 90.45872540012327,40 L 91.94414638453557,40 L 91.98749632676305,40 L 93.52673288641682,40 L 93.56777107066691,40 L 95.04432135586359,40 L 95.0781554571143,40 L 96.59671163920277,40 L 96.62552797120019,40 L 96.67298173185267,40 L 98.13318842576723,40 L 98.16616233800309,40 L 98.20146592882085,40 L 99.68339239536033,40 L 99.72238763070014,40 L 99.76152623087575,40 L 101.22899076960309,40 L 101.26060271589878,40 L 101.29902449189535,40 L 102.77607655401737,40 L 102.81200736599176,40 L 102.8589772703234,40 L 104.31963197934986,40 L 104.36052679876413,40 L 104.40011341405163,40 L 105.87512252726339,40 L 105.90802475708135,40 L 105.94558634406306,40 L 107.42342691278202,40 L 107.45672339589846,40 L 107.49510933068606,40 L 108.96976003180829,40 L 109.00836101384964,40 L 109.04995473683846,40 L 110.51965935112531,40 L 110.55039318780166,40 L 110.58743507725359,40 L 112.06936154379308,40 L 112.09694135408166,40 L 112.13461046469023,40 L 113.61383091995384,40 L 113.64918827258502,40 L 113.68823726973825,40 L 115.16322846234551,40 L 115.20075420811828,40 L 115.24066339428637,40 L 116.71572626931155,40 L 116.74287598509271,40 L 116.78170993499224,40 L 118.26277621251687,40 L 118.2993521662524,40 L 118.33196766639875,40 L 119.80643916147622,40 L 119.83991485063741,40 L 119.87846207086533,40 L 121.35209129753241,40 L 121.39269938727507,40 L 121.42984880035384,40 L 122.9038722803194,40 L 122.93451651397338,40 L 122.96892407456734,40 L 124.45835927438226,40 L 124.49575957592371,40 L 124.53785507583787,40 L 126.00546297940102,40 L 126.0388669861443,40 L 126.07227099288758,40 L 127.55030868825578,40 L 127.58740433952113,40 L 127.62389069023429,40 L 129.0920362119317,40 L 129.1323217307938,40 L 129.17067182437248,40 L 130.63913991695046,40 L 130.67940751520808,40 L 130.72359972584593,40 L 132.2019599920947,40 L 132.2339841122933,40 L 132.27539862923737,40 L 133.74642936825546,40 L 133.7740987815664,40 L 133.80916940452596,40 L 135.29037904688641,40 L 135.32699084183093,40 L 135.36412233430522,40 L 136.8394898596065,40 L 136.87146021799168,40 L 136.91280305251786,40 L 138.38748959484903,40 L 138.41965707988345,40 L 138.4577562849995,40 L 139.9363136778975,40 L 139.9678360211708,40 L 140.0019747726976,40 L 141.48295144719987,66.4168618266979 L 141.5127892536524,66.4168618266979 L 143.0300551522186,66.4168618266979 L 143.06648774111835,66.4168618266979 L 143.10089530171228,66.4168618266979 L 144.57997239214006,66.4168618266979 L 144.6050612384065,66.4168618266979 L 144.64776603887285,66.4168618266979 L 146.13671738236692,66.4168618266979 L 146.17456569902026,66.4168618266979 L 147.67749511400564,66.4168618266979 L 147.71692044385287,66.4168618266979 L 147.76838841990798,66.4168618266979 L 149.22814709871062,66.4168618266979 L 149.2667301601475,66.4168618266979 L 149.29047496107822,66.4168618266979 L 150.77851235374402,66.4168618266979 L 150.814389403905,66.4168618266979 L 150.85221979995387,66.4168618266979 L 152.32778445190436,66.4168618266979 L 152.3619769652446,66.4168618266979 L 152.4007392327262,66.4168618266979 L 153.87445806241567,66.4168618266979 L 153.90519189909205,66.4168618266979 L 153.94382872234235,66.4168618266979 L 155.42265492430747,66.4168618266979 L 155.45516290082696,66.4168618266979 L 155.4870974180032,66.4168618266979 L 156.97045753290078,66.4168618266979 L 157.00758902537507,66.4168618266979 L 157.0486630508341,66.4168618266979 L 158.52188010359825,66.4168618266979 L 158.55831269249796,66.4168618266979 L 158.60284539462086,66.4168618266979 L 160.06081201297593,66.4168618266979 L 160.09815855270392,66.4168618266979 L 160.14109632102847,66.4168618266979 L 161.61628464028496,66.4168618266979 L 161.65192872258777,66.4168618266979 L 161.6886659617636,66.4168618266979 L 163.16553881784085,66.4168618266979 L 163.20727590566548,66.4168618266979 L 163.25146811630333,66.4168618266979 L 164.7144345833072,66.4168618266979 L 164.75210369391576,66.4168618266979 L 164.7985001389042,66.4168618266979 L 166.25987167210965,66.4168618266979 L 166.29931492256136,66.4168618266979 L 166.33576543206559,66.4168618266979 L 167.81455579282178,66.4168618266979 L 167.85052244600513,66.4168618266979 L 169.3663188550043,66.4168618266979 L 169.39923900542672,66.4168618266979 L 170.90874528225478,66.4168618266979 L 170.94600221896042,66.4168618266979 L 170.9902481914117,66.4168618266979 L 172.45507840128107,66.4168618266979 L 172.5021199880306,66.4168618266979 L 174.00671601923224,66.4168618266979 L 174.0387222188264,66.4168618266979 L 174.08090732176294,66.4168618266979 L 175.55161548990043,66.4168618266979 L 175.59053904282234,66.4168618266979 L 175.6348029358781,66.4168618266979 L 177.09569061276275,66.4168618266979 L 177.13327012034895,66.4168618266979 L 177.16509711389836,66.4168618266979 L 178.64926365599732,66.4168618266979 L 178.69252399520244,66.4168618266979 L 180.198661198389,66.4168618266979 L 180.23747722768405,66.4168618266979 L 181.74719855176585,66.4168618266979 L 181.78576369259824,66.4168618266979 L 183.29514452519496,66.4168618266979 L 183.33333333333334,66.4168618266979" fill="none" stroke="none"/>
  </g>
  <!-- 📊 Total Contributions Chart -->
  <g transform="translate(526.6666666666667, 250)">
    <!-- Chart Background -->
    <rect x="0" y="0" width="213.33333333333334" height="200" fill="#ffffff" stroke="#e2e8f0" stroke-width="1" rx="8" filter="url(#shadow)">
      <animate attributeName="opacity" values="0;1" dur="0.5s" begin="2.8s" fill="freeze"/>
    </rect>
    
    <!-- Chart Title -->
    <text x="106.66666666666667" y="25" text-anchor="middle" fill="#1e293b" font-size="14" font-weight="bold" font-family="Arial, sans-serif">
      📊 Total Contributions
      <animate attributeName="opacity" values="0;1" dur="0.5s" begin="3s" fill="freeze"/>
    </text>
    
    <!-- Y-axis labels -->
    <text x="10" y="45" fill="#64748b" font-size="10" font-family="Arial, sans-serif">5,314
      <animate attributeName="opacity" values="0;1" dur="0.5s" begin="3.1999999999999997s" fill="freeze"/>
    </text>
    <text x="10" y="185" fill="#64748b" font-size="10" font-family="Arial, sans-serif">4,917
      <animate attributeName="opacity" values="0;1" dur="0.5s" begin="3.1999999999999997s" fill="freeze"/>
    </text>
    
    <!-- Chart Line with draw animation that follows the circle -->
    <path d="M 30,160 L 30.0216660108115,160 L 30.058008996688855,160 L 31.55041901684681,160 L 31.577479129605592,160 L 31.608947711065472,160 L 33.09884884659678,160 L 33.13133890251179,160 L 33.164814591672986,160 L 34.64530740985439,160 L 34.67297682316536,160 L 34.70940941206509,160 L 36.197966502260705,160 L 36.22156793835561,160 L 36.25063515881571,160 L 37.74499852486155,160 L 37.77851005523169,160 L 37.809889033669194,160 L 39.29244272136534,160 L 39.322603098698465,160 L 39.35647304115814,160 L 40.83859663434686,160 L 40.868004346292,160 L 40.90115746457262,160 L 42.39016256988013,160 L 42.41765277714634,160 L 42.445770205569204,160 L 43.93674657736908,160 L 43.96454143491137,160 L 43.997945441654664,160 L 45.47618026367209,160 L 45.51298918526582,160 L 45.54386638677799,160 L 47.03260268301836,160 L 47.054340376247765,160 L 47.09342521460995,160 L 48.58278873200699,160 L 48.61545799396676,160 L 48.64988347516518,160 L 50.13333319308512,160 L 50.16322476135112,160 L 50.19489046946023,160 L 51.672498070321,160 L 51.70497020563154,160 L 51.73735273791969,160 L 53.22562309844369,160 L 53.256016443635005,160 L 53.29074657510952,160 L 54.774447181492135,160 L 54.80242124507919,160 L 54.83329844659136,160 L 56.32391640630171,160 L 56.34384411847904,160 L 56.39276736869856,160 L 57.86962230417133,160 L 57.89978268150446,160 L 57.92953088493464,160 L 59.42082982761508,160 L 59.45507610276875,160 L 59.48624003395254,160 L 60.968417388954684,160 L 60.99857776628781,160 L 61.03334373897128,160 L 62.514642984354104,160 L 62.54428366415743,160 L 62.57129001510278,160 L 64.06533081026805,160 L 64.09595712331756,160 L 64.12749738719535,160 L 65.61833039415941,160 L 65.64714672615685,160 L 65.6755688048558,160 L 67.16086434503677,160 L 67.19166986413104,40 L 67.22376566674758,40 L 68.71499292701012,40 L 68.73637220815,40 L 68.76585160251305,40 L 70.25946230317089,40 L 70.28336838954189,40 L 70.32578646033662,40 L 71.80964835215951,40 L 71.84113485422387,40 L 71.86878634693036,40 L 73.3517163673205,40 L 73.38621353093683,40 L 73.41999387037411,40 L 74.90959035562933,40 L 74.9248587106429,40 L 74.96623738637801,40 L 76.45483031778258,40 L 76.48746373853339,40 L 76.52432642194056,40 L 78.0032959887415,40 L 78.03404774602234,40 L 78.0734551552651,40 L 79.54925277507378,40 L 79.58195787824252,40 L 79.62011084517194,40 L 81.10617697134538,40 L 81.14260956024512,40 L 82.64856755738694,40 L 82.7251781415219,40 L 84.19715867257719,40 L 84.23523995708874,40 L 84.27138581631684,40 L 85.7451225666108,40 L 85.78524680003258,40 L 85.81286245153012,40 L 87.2967422639575,40 L 87.33032547674554,40 L 87.36803042856307,40 L 88.83963462692438,40 L 88.87319991910795,40 L 88.91095863273893,40 L 90.3903403734428,40 L 90.42333220628313,40 L 90.45872540012327,40 L 91.94414638453557,40 L 91.98749632676305,40 L 93.52673288641682,40 L 93.56777107066691,40 L 95.04432135586359,40 L 95.0781554571143,40 L 96.59671163920277,40 L 96.62552797120019,40 L 96.67298173185267,40 L 98.13318842576723,40 L 98.16616233800309,40 L 98.20146592882085,40 L 99.68339239536033,40 L 99.72238763070014,40 L 99.76152623087575,40 L 101.22899076960309,40 L 101.26060271589878,40 L 101.29902449189535,40 L 102.77607655401737,40 L 102.81200736599176,40 L 102.8589772703234,40 L 104.31963197934986,40 L 104.36052679876413,40 L 104.40011341405163,40 L 105.87512252726339,40 L 105.90802475708135,40 L 105.94558634406306,40 L 107.42342691278202,40 L 107.45672339589846,40 L 107.49510933068606,40 L 108.96976003180829,40 L 109.00836101384964,40 L 109.04995473683846,40 L 110.51965935112531,40 L 110.55039318780166,40 L 110.58743507725359,40 L 112.06936154379308,40 L 112.09694135408166,40 L 112.13461046469023,40 L 113.61383091995384,40 L 113.64918827258502,40 L 113.68823726973825,40 L 115.16322846234551,40 L 115.20075420811828,40 L 115.24066339428637,40 L 116.71572626931155,40 L 116.74287598509271,40 L 116.78170993499224,40 L 118.26277621251687,40 L 118.2993521662524,40 L 118.33196766639875,40 L 119.80643916147622,40 L 119.83991485063741,40 L 119.87846207086533,40 L 121.35209129753241,40 L 121.39269938727507,40 L 121.42984880035384,40 L 122.9038722803194,40 L 122.93451651397338,40 L 122.96892407456734,40 L 124.45835927438226,40 L 124.49575957592371,40 L 124.53785507583787,40 L 126.00546297940102,40 L 126.0388669861443,40 L 126.07227099288758,40 L 127.55030868825578,40 L 127.58740433952113,40 L 127.62389069023429,40 L 129.0920362119317,40 L 129.1323217307938,40 L 129.17067182437248,40 L 130.63913991695046,40 L 130.67940751520808,40 L 130.72359972584593,40 L 132.2019599920947,40 L 132.2339841122933,40 L 132.27539862923737,40 L 133.74642936825546,40 L 133.7740987815664,40 L 133.80916940452596,40 L 135.29037904688641,40 L 135.32699084183093,40 L 135.36412233430522,40 L 136.8394898596065,40 L 136.87146021799168,40 L 136.91280305251786,40 L 138.38748959484903,40 L 138.41965707988345,40 L 138.4577562849995,40 L 139.9363136778975,40 L 139.9678360211708,40 L 140.0019747726976,40 L 141.48295144719987,72.04030226700252 L 141.5127892536524,72.04030226700252 L 143.0300551522186,72.04030226700252 L 143.06648774111835,72.04030226700252 L 143.10089530171228,72.04030226700252 L 144.57997239214006,72.04030226700252 L 144.6050612384065,72.04030226700252 L 144.64776603887285,72.04030226700252 L 146.13671738236692,72.04030226700252 L 146.17456569902026,72.04030226700252 L 147.67749511400564,72.04030226700252 L 147.71692044385287,72.04030226700252 L 147.76838841990798,72.04030226700252 L 149.22814709871062,72.04030226700252 L 149.2667301601475,72.04030226700252 L 149.29047496107822,72.04030226700252 L 150.77851235374402,72.04030226700252 L 150.814389403905,72.04030226700252 L 150.85221979995387,72.04030226700252 L 152.32778445190436,72.04030226700252 L 152.3619769652446,72.04030226700252 L 152.4007392327262,72.04030226700252 L 153.87445806241567,72.04030226700252 L 153.90519189909205,72.04030226700252 L 153.94382872234235,72.04030226700252 L 155.42265492430747,72.04030226700252 L 155.45516290082696,72.04030226700252 L 155.4870974180032,72.04030226700252 L 156.97045753290078,72.04030226700252 L 157.00758902537507,72.04030226700252 L 157.0486630508341,72.04030226700252 L 158.52188010359825,72.04030226700252 L 158.55831269249796,72.04030226700252 L 158.60284539462086,72.04030226700252 L 160.06081201297593,72.04030226700252 L 160.09815855270392,72.04030226700252 L 160.14109632102847,72.04030226700252 L 161.61628464028496,72.04030226700252 L 161.65192872258777,72.04030226700252 L 161.6886659617636,72.04030226700252 L 163.16553881784085,72.04030226700252 L 163.20727590566548,72.04030226700252 L 163.25146811630333,72.04030226700252 L 164.7144345833072,72.04030226700252 L 164.75210369391576,72.04030226700252 L 164.7985001389042,72.04030226700252 L 166.25987167210965,72.04030226700252 L 166.29931492256136,72.04030226700252 L 166.33576543206559,72.04030226700252 L 167.81455579282178,72.04030226700252 L 167.85052244600513,72.04030226700252 L 169.3663188550043,72.04030226700252 L 169.39923900542672,72.04030226700252 L 170.90874528225478,72.04030226700252 L 170.94600221896042,72.04030226700252 L 170.9902481914117,72.04030226700252 L 172.45507840128107,72.04030226700252 L 172.5021199880306,72.04030226700252 L 174.00671601923224,72.04030226700252 L 174.0387222188264,72.04030226700252 L 174.08090732176294,72.04030226700252 L 175.55161548990043,72.04030226700252 L 175.59053904282234,72.04030226700252 L 175.6348029358781,72.04030226700252 L 177.09569061276275,72.04030226700252 L 177.13327012034895,72.04030226700252 L 177.16509711389836,72.04030226700252 L 178.64926365599732,72.04030226700252 L 178.69252399520244,72.04030226700252 L 180.198661198389,72.04030226700252 L 180.23747722768405,72.04030226700252 L 181.74719855176585,72.04030226700252 L 181.78576369259824,72.04030226700252 L 183.29514452519496,72.04030226700252 L 183.33333333333334,72.04030226700252" stroke="#f59e0b" stroke-width="2" fill="none" stroke-dasharray="14300" stroke-dashoffset="14300">
      <animate attributeName="stroke-dashoffset" values="14300;0" dur="3s" begin="3.5999999999999996s" fill="freeze"/>
    </path>
    
    <!-- Glow effect for the line that also follows the circle -->
    <path d="M 30,160 L 30.0216660108115,160 L 30.058008996688855,160 L 31.55041901684681,160 L 31.577479129605592,160 L 31.608947711065472,160 L 33.09884884659678,160 L 33.13133890251179,160 L 33.164814591672986,160 L 34.64530740985439,160 L 34.67297682316536,160 L 34.70940941206509,160 L 36.197966502260705,160 L 36.22156793835561,160 L 36.25063515881571,160 L 37.74499852486155,160 L 37.77851005523169,160 L 37.809889033669194,160 L 39.29244272136534,160 L 39.322603098698465,160 L 39.35647304115814,160 L 40.83859663434686,160 L 40.868004346292,160 L 40.90115746457262,160 L 42.39016256988013,160 L 42.41765277714634,160 L 42.445770205569204,160 L 43.93674657736908,160 L 43.96454143491137,160 L 43.997945441654664,160 L 45.47618026367209,160 L 45.51298918526582,160 L 45.54386638677799,160 L 47.03260268301836,160 L 47.054340376247765,160 L 47.09342521460995,160 L 48.58278873200699,160 L 48.61545799396676,160 L 48.64988347516518,160 L 50.13333319308512,160 L 50.16322476135112,160 L 50.19489046946023,160 L 51.672498070321,160 L 51.70497020563154,160 L 51.73735273791969,160 L 53.22562309844369,160 L 53.256016443635005,160 L 53.29074657510952,160 L 54.774447181492135,160 L 54.80242124507919,160 L 54.83329844659136,160 L 56.32391640630171,160 L 56.34384411847904,160 L 56.39276736869856,160 L 57.86962230417133,160 L 57.89978268150446,160 L 57.92953088493464,160 L 59.42082982761508,160 L 59.45507610276875,160 L 59.48624003395254,160 L 60.968417388954684,160 L 60.99857776628781,160 L 61.03334373897128,160 L 62.514642984354104,160 L 62.54428366415743,160 L 62.57129001510278,160 L 64.06533081026805,160 L 64.09595712331756,160 L 64.12749738719535,160 L 65.61833039415941,160 L 65.64714672615685,160 L 65.6755688048558,160 L 67.16086434503677,160 L 67.19166986413104,40 L 67.22376566674758,40 L 68.71499292701012,40 L 68.73637220815,40 L 68.76585160251305,40 L 70.25946230317089,40 L 70.28336838954189,40 L 70.32578646033662,40 L 71.80964835215951,40 L 71.84113485422387,40 L 71.86878634693036,40 L 73.3517163673205,40 L 73.38621353093683,40 L 73.41999387037411,40 L 74.90959035562933,40 L 74.9248587106429,40 L 74.96623738637801,40 L 76.45483031778258,40 L 76.48746373853339,40 L 76.52432642194056,40 L 78.0032959887415,40 L 78.03404774602234,40 L 78.0734551552651,40 L 79.54925277507378,40 L 79.58195787824252,40 L 79.62011084517194,40 L 81.10617697134538,40 L 81.14260956024512,40 L 82.64856755738694,40 L 82.7251781415219,40 L 84.19715867257719,40 L 84.23523995708874,40 L 84.27138581631684,40 L 85.7451225666108,40 L 85.78524680003258,40 L 85.81286245153012,40 L 87.2967422639575,40 L 87.33032547674554,40 L 87.36803042856307,40 L 88.83963462692438,40 L 88.87319991910795,40 L 88.91095863273893,40 L 90.3903403734428,40 L 90.42333220628313,40 L 90.45872540012327,40 L 91.94414638453557,40 L 91.98749632676305,40 L 93.52673288641682,40 L 93.56777107066691,40 L 95.04432135586359,40 L 95.0781554571143,40 L 96.59671163920277,40 L 96.62552797120019,40 L 96.67298173185267,40 L 98.13318842576723,40 L 98.16616233800309,40 L 98.20146592882085,40 L 99.68339239536033,40 L 99.72238763070014,40 L 99.76152623087575,40 L 101.22899076960309,40 L 101.26060271589878,40 L 101.29902449189535,40 L 102.77607655401737,40 L 102.81200736599176,40 L 102.8589772703234,40 L 104.31963197934986,40 L 104.36052679876413,40 L 104.40011341405163,40 L 105.87512252726339,40 L 105.90802475708135,40 L 105.94558634406306,40 L 107.42342691278202,40 L 107.45672339589846,40 L 107.49510933068606,40 L 108.96976003180829,40 L 109.00836101384964,40 L 109.04995473683846,40 L 110.51965935112531,40 L 110.55039318780166,40 L 110.58743507725359,40 L 112.06936154379308,40 L 112.09694135408166,40 L 112.13461046469023,40 L 113.61383091995384,40 L 113.64918827258502,40 L 113.68823726973825,40 L 115.16322846234551,40 L 115.20075420811828,40 L 115.24066339428637,40 L 116.71572626931155,40 L 116.74287598509271,40 L 116.78170993499224,40 L 118.26277621251687,40 L 118.2993521662524,40 L 118.33196766639875,40 L 119.80643916147622,40 L 119.83991485063741,40 L 119.87846207086533,40 L 121.35209129753241,40 L 121.39269938727507,40 L 121.42984880035384,40 L 122.9038722803194,40 L 122.93451651397338,40 L 122.96892407456734,40 L 124.45835927438226,40 L 124.49575957592371,40 L 124.53785507583787,40 L 126.00546297940102,40 L 126.0388669861443,40 L 126.07227099288758,40 L 127.55030868825578,40 L 127.58740433952113,40 L 127.62389069023429,40 L 129.0920362119317,40 L 129.1323217307938,40 L 129.17067182437248,40 L 130.63913991695046,40 L 130.67940751520808,40 L 130.72359972584593,40 L 132.2019599920947,40 L 132.2339841122933,40 L 132.27539862923737,40 L 133.74642936825546,40 L 133.7740987815664,40 L 133.80916940452596,40 L 135.29037904688641,40 L 135.32699084183093,40 L 135.36412233430522,40 L 136.8394898596065,40 L 136.87146021799168,40 L 136.91280305251786,40 L 138.38748959484903,40 L 138.41965707988345,40 L 138.4577562849995,40 L 139.9363136778975,40 L 139.9678360211708,40 L 140.0019747726976,40 L 141.48295144719987,72.04030226700252 L 141.5127892536524,72.04030226700252 L 143.0300551522186,72.04030226700252 L 143.06648774111835,72.04030226700252 L 143.10089530171228,72.04030226700252 L 144.57997239214006,72.04030226700252 L 144.6050612384065,72.04030226700252 L 144.64776603887285,72.04030226700252 L 146.13671738236692,72.04030226700252 L 146.17456569902026,72.04030226700252 L 147.67749511400564,72.04030226700252 L 147.71692044385287,72.04030226700252 L 147.76838841990798,72.04030226700252 L 149.22814709871062,72.04030226700252 L 149.2667301601475,72.04030226700252 L 149.29047496107822,72.04030226700252 L 150.77851235374402,72.04030226700252 L 150.814389403905,72.04030226700252 L 150.85221979995387,72.04030226700252 L 152.32778445190436,72.04030226700252 L 152.3619769652446,72.04030226700252 L 152.4007392327262,72.04030226700252 L 153.87445806241567,72.04030226700252 L 153.90519189909205,72.04030226700252 L 153.94382872234235,72.04030226700252 L 155.42265492430747,72.04030226700252 L 155.45516290082696,72.04030226700252 L 155.4870974180032,72.04030226700252 L 156.97045753290078,72.04030226700252 L 157.00758902537507,72.04030226700252 L 157.0486630508341,72.04030226700252 L 158.52188010359825,72.04030226700252 L 158.55831269249796,72.04030226700252 L 158.60284539462086,72.04030226700252 L 160.06081201297593,72.04030226700252 L 160.09815855270392,72.04030226700252 L 160.14109632102847,72.04030226700252 L 161.61628464028496,72.04030226700252 L 161.65192872258777,72.04030226700252 L 161.6886659617636,72.04030226700252 L 163.16553881784085,72.04030226700252 L 163.20727590566548,72.04030226700252 L 163.25146811630333,72.04030226700252 L 164.7144345833072,72.04030226700252 L 164.75210369391576,72.04030226700252 L 164.7985001389042,72.04030226700252 L 166.25987167210965,72.04030226700252 L 166.29931492256136,72.04030226700252 L 166.33576543206559,72.04030226700252 L 167.81455579282178,72.04030226700252 L 167.85052244600513,72.04030226700252 L 169.3663188550043,72.04030226700252 L 169.39923900542672,72.04030226700252 L 170.90874528225478,72.04030226700252 L 170.94600221896042,72.04030226700252 L 170.9902481914117,72.04030226700252 L 172.45507840128107,72.04030226700252 L 172.5021199880306,72.04030226700252 L 174.00671601923224,72.04030226700252 L 174.0387222188264,72.04030226700252 L 174.08090732176294,72.04030226700252 L 175.55161548990043,72.04030226700252 L 175.59053904282234,72.04030226700252 L 175.6348029358781,72.04030226700252 L 177.09569061276275,72.04030226700252 L 177.13327012034895,72.04030226700252 L 177.16509711389836,72.04030226700252 L 178.64926365599732,72.04030226700252 L 178.69252399520244,72.04030226700252 L 180.198661198389,72.04030226700252 L 180.23747722768405,72.04030226700252 L 181.74719855176585,72.04030226700252 L 181.78576369259824,72.04030226700252 L 183.29514452519496,72.04030226700252 L 183.33333333333334,72.04030226700252" stroke="#f59e0b" stroke-width="4" fill="none" opacity="0.4" stroke-dasharray="14300" stroke-dashoffset="14300">
      <animate attributeName="stroke-dashoffset" values="14300;0" dur="3s" begin="3.5999999999999996s" fill="freeze"/>
    </path>
    
    <!-- Animated circle that moves along the path and draws the line -->
    <circle r="5" fill="#f59e0b" opacity="0" filter="url(#trailGlow)">
      <animate attributeName="opacity" values="0;1;1;1" dur="3.2s" begin="3.4s" fill="freeze"/>
      <animate attributeName="r" values="5;6;5" dur="1s" begin="3.4s" repeatCount="3"/>
      <animateMotion dur="3s" begin="3.4s" fill="freeze">
        <mpath href="#path_totalContributions_526.6666666666667"/>
      </animateMotion>
    </circle>
    
    <!-- Small trail dots that fade out -->
    <circle r="2" fill="#f59e0b" opacity="0">
      <animate attributeName="opacity" values="0;0.6;0" dur="0.8s" begin="3.8s" fill="freeze"/>
      <animateMotion dur="3s" begin="3.4s" fill="freeze">
        <mpath href="#path_totalContributions_526.6666666666667"/>
      </animateMotion>
    </circle>
    
    <!-- Hidden path for motion animation -->
    <path id="path_totalContributions_526.6666666666667" d="M 30,160 L 30.0216660108115,160 L 30.058008996688855,160 L 31.55041901684681,160 L 31.577479129605592,160 L 31.608947711065472,160 L 33.09884884659678,160 L 33.13133890251179,160 L 33.164814591672986,160 L 34.64530740985439,160 L 34.67297682316536,160 L 34.70940941206509,160 L 36.197966502260705,160 L 36.22156793835561,160 L 36.25063515881571,160 L 37.74499852486155,160 L 37.77851005523169,160 L 37.809889033669194,160 L 39.29244272136534,160 L 39.322603098698465,160 L 39.35647304115814,160 L 40.83859663434686,160 L 40.868004346292,160 L 40.90115746457262,160 L 42.39016256988013,160 L 42.41765277714634,160 L 42.445770205569204,160 L 43.93674657736908,160 L 43.96454143491137,160 L 43.997945441654664,160 L 45.47618026367209,160 L 45.51298918526582,160 L 45.54386638677799,160 L 47.03260268301836,160 L 47.054340376247765,160 L 47.09342521460995,160 L 48.58278873200699,160 L 48.61545799396676,160 L 48.64988347516518,160 L 50.13333319308512,160 L 50.16322476135112,160 L 50.19489046946023,160 L 51.672498070321,160 L 51.70497020563154,160 L 51.73735273791969,160 L 53.22562309844369,160 L 53.256016443635005,160 L 53.29074657510952,160 L 54.774447181492135,160 L 54.80242124507919,160 L 54.83329844659136,160 L 56.32391640630171,160 L 56.34384411847904,160 L 56.39276736869856,160 L 57.86962230417133,160 L 57.89978268150446,160 L 57.92953088493464,160 L 59.42082982761508,160 L 59.45507610276875,160 L 59.48624003395254,160 L 60.968417388954684,160 L 60.99857776628781,160 L 61.03334373897128,160 L 62.514642984354104,160 L 62.54428366415743,160 L 62.57129001510278,160 L 64.06533081026805,160 L 64.09595712331756,160 L 64.12749738719535,160 L 65.61833039415941,160 L 65.64714672615685,160 L 65.6755688048558,160 L 67.16086434503677,160 L 67.19166986413104,40 L 67.22376566674758,40 L 68.71499292701012,40 L 68.73637220815,40 L 68.76585160251305,40 L 70.25946230317089,40 L 70.28336838954189,40 L 70.32578646033662,40 L 71.80964835215951,40 L 71.84113485422387,40 L 71.86878634693036,40 L 73.3517163673205,40 L 73.38621353093683,40 L 73.41999387037411,40 L 74.90959035562933,40 L 74.9248587106429,40 L 74.96623738637801,40 L 76.45483031778258,40 L 76.48746373853339,40 L 76.52432642194056,40 L 78.0032959887415,40 L 78.03404774602234,40 L 78.0734551552651,40 L 79.54925277507378,40 L 79.58195787824252,40 L 79.62011084517194,40 L 81.10617697134538,40 L 81.14260956024512,40 L 82.64856755738694,40 L 82.7251781415219,40 L 84.19715867257719,40 L 84.23523995708874,40 L 84.27138581631684,40 L 85.7451225666108,40 L 85.78524680003258,40 L 85.81286245153012,40 L 87.2967422639575,40 L 87.33032547674554,40 L 87.36803042856307,40 L 88.83963462692438,40 L 88.87319991910795,40 L 88.91095863273893,40 L 90.3903403734428,40 L 90.42333220628313,40 L 90.45872540012327,40 L 91.94414638453557,40 L 91.98749632676305,40 L 93.52673288641682,40 L 93.56777107066691,40 L 95.04432135586359,40 L 95.0781554571143,40 L 96.59671163920277,40 L 96.62552797120019,40 L 96.67298173185267,40 L 98.13318842576723,40 L 98.16616233800309,40 L 98.20146592882085,40 L 99.68339239536033,40 L 99.72238763070014,40 L 99.76152623087575,40 L 101.22899076960309,40 L 101.26060271589878,40 L 101.29902449189535,40 L 102.77607655401737,40 L 102.81200736599176,40 L 102.8589772703234,40 L 104.31963197934986,40 L 104.36052679876413,40 L 104.40011341405163,40 L 105.87512252726339,40 L 105.90802475708135,40 L 105.94558634406306,40 L 107.42342691278202,40 L 107.45672339589846,40 L 107.49510933068606,40 L 108.96976003180829,40 L 109.00836101384964,40 L 109.04995473683846,40 L 110.51965935112531,40 L 110.55039318780166,40 L 110.58743507725359,40 L 112.06936154379308,40 L 112.09694135408166,40 L 112.13461046469023,40 L 113.61383091995384,40 L 113.64918827258502,40 L 113.68823726973825,40 L 115.16322846234551,40 L 115.20075420811828,40 L 115.24066339428637,40 L 116.71572626931155,40 L 116.74287598509271,40 L 116.78170993499224,40 L 118.26277621251687,40 L 118.2993521662524,40 L 118.33196766639875,40 L 119.80643916147622,40 L 119.83991485063741,40 L 119.87846207086533,40 L 121.35209129753241,40 L 121.39269938727507,40 L 121.42984880035384,40 L 122.9038722803194,40 L 122.93451651397338,40 L 122.96892407456734,40 L 124.45835927438226,40 L 124.49575957592371,40 L 124.53785507583787,40 L 126.00546297940102,40 L 126.0388669861443,40 L 126.07227099288758,40 L 127.55030868825578,40 L 127.58740433952113,40 L 127.62389069023429,40 L 129.0920362119317,40 L 129.1323217307938,40 L 129.17067182437248,40 L 130.63913991695046,40 L 130.67940751520808,40 L 130.72359972584593,40 L 132.2019599920947,40 L 132.2339841122933,40 L 132.27539862923737,40 L 133.74642936825546,40 L 133.7740987815664,40 L 133.80916940452596,40 L 135.29037904688641,40 L 135.32699084183093,40 L 135.36412233430522,40 L 136.8394898596065,40 L 136.87146021799168,40 L 136.91280305251786,40 L 138.38748959484903,40 L 138.41965707988345,40 L 138.4577562849995,40 L 139.9363136778975,40 L 139.9678360211708,40 L 140.0019747726976,40 L 141.48295144719987,72.04030226700252 L 141.5127892536524,72.04030226700252 L 143.0300551522186,72.04030226700252 L 143.06648774111835,72.04030226700252 L 143.10089530171228,72.04030226700252 L 144.57997239214006,72.04030226700252 L 144.6050612384065,72.04030226700252 L 144.64776603887285,72.04030226700252 L 146.13671738236692,72.04030226700252 L 146.17456569902026,72.04030226700252 L 147.67749511400564,72.04030226700252 L 147.71692044385287,72.04030226700252 L 147.76838841990798,72.04030226700252 L 149.22814709871062,72.04030226700252 L 149.2667301601475,72.04030226700252 L 149.29047496107822,72.04030226700252 L 150.77851235374402,72.04030226700252 L 150.814389403905,72.04030226700252 L 150.85221979995387,72.04030226700252 L 152.32778445190436,72.04030226700252 L 152.3619769652446,72.04030226700252 L 152.4007392327262,72.04030226700252 L 153.87445806241567,72.04030226700252 L 153.90519189909205,72.04030226700252 L 153.94382872234235,72.04030226700252 L 155.42265492430747,72.04030226700252 L 155.45516290082696,72.04030226700252 L 155.4870974180032,72.04030226700252 L 156.97045753290078,72.04030226700252 L 157.00758902537507,72.04030226700252 L 157.0486630508341,72.04030226700252 L 158.52188010359825,72.04030226700252 L 158.55831269249796,72.04030226700252 L 158.60284539462086,72.04030226700252 L 160.06081201297593,72.04030226700252 L 160.09815855270392,72.04030226700252 L 160.14109632102847,72.04030226700252 L 161.61628464028496,72.04030226700252 L 161.65192872258777,72.04030226700252 L 161.6886659617636,72.04030226700252 L 163.16553881784085,72.04030226700252 L 163.20727590566548,72.04030226700252 L 163.25146811630333,72.04030226700252 L 164.7144345833072,72.04030226700252 L 164.75210369391576,72.04030226700252 L 164.7985001389042,72.04030226700252 L 166.25987167210965,72.04030226700252 L 166.29931492256136,72.04030226700252 L 166.33576543206559,72.04030226700252 L 167.81455579282178,72.04030226700252 L 167.85052244600513,72.04030226700252 L 169.3663188550043,72.04030226700252 L 169.39923900542672,72.04030226700252 L 170.90874528225478,72.04030226700252 L 170.94600221896042,72.04030226700252 L 170.9902481914117,72.04030226700252 L 172.45507840128107,72.04030226700252 L 172.5021199880306,72.04030226700252 L 174.00671601923224,72.04030226700252 L 174.0387222188264,72.04030226700252 L 174.08090732176294,72.04030226700252 L 175.55161548990043,72.04030226700252 L 175.59053904282234,72.04030226700252 L 175.6348029358781,72.04030226700252 L 177.09569061276275,72.04030226700252 L 177.13327012034895,72.04030226700252 L 177.16509711389836,72.04030226700252 L 178.64926365599732,72.04030226700252 L 178.69252399520244,72.04030226700252 L 180.198661198389,72.04030226700252 L 180.23747722768405,72.04030226700252 L 181.74719855176585,72.04030226700252 L 181.78576369259824,72.04030226700252 L 183.29514452519496,72.04030226700252 L 183.33333333333334,72.04030226700252" fill="none" stroke="none"/>
  </g>
  
  <!-- Footer -->
  <text x="400" y="580" text-anchor="middle" fill="#94a3b8" font-size="12" font-family="Arial, sans-serif">
    Generated by GitHub User Rank Tracker • 4/8/2026
    <animate attributeName="opacity" values="0;1" dur="0.5s" begin="5s" fill="freeze"/>
  </text>
</svg>