<svg width="800" height="600" xmlns="http://www.w3.org/2000/svg">
  <defs>
    <linearGradient id="bgGradient" x1="0%" y1="0%" x2="100%" y2="100%">
      <stop offset="0%" style="stop-color:#f8fafc;stop-opacity:1" />
      <stop offset="100%" style="stop-color:#e2e8f0;stop-opacity:1" />
    </linearGradient>
    <filter id="shadow" x="-20%" y="-20%" width="140%" height="140%">
      <feDropShadow dx="2" dy="2" stdDeviation="3" flood-color="#00000020" flood-opacity="0.1"/>
    </filter>
    <!-- Trail effect filter -->
    <filter id="trailGlow" x="-50%" y="-50%" width="200%" height="200%">
      <feGaussianBlur stdDeviation="3" result="coloredBlur"/>
      <feMerge> 
        <feMergeNode in="coloredBlur"/>
        <feMergeNode in="SourceGraphic"/>
      </feMerge>
    </filter>
  </defs>
  
  <!-- Background -->
  <rect width="800" height="600" fill="url(#bgGradient)" rx="12"/>
  
  <!-- Header -->
  <text x="400" y="40" text-anchor="middle" fill="#0f172a" font-size="24" font-weight="bold" font-family="Arial, sans-serif">
    GitHub Progress Report
    <animate attributeName="opacity" values="0;1" dur="0.8s" begin="0s" fill="freeze"/>
    <animateTransform attributeName="transform" type="translate" values="0,-20;0,0" dur="0.8s" begin="0s" fill="freeze"/>
  </text>
  
  <!-- User Info -->
  <text x="400" y="70" text-anchor="middle" fill="#475569" font-size="16" font-family="Arial, sans-serif">
    @maifeeulasad • BANGLADESH • 100 days analyzed
    <animate attributeName="opacity" values="0;1" dur="0.6s" begin="0.3s" fill="freeze"/>
  </text>
  
  <!-- Progress Cards -->
  <!-- Followers Card -->
  <g transform="translate(60, 100)">
    <rect width="206.66666666666666" height="120" fill="#ffffff" stroke="#e2e8f0" stroke-width="1" rx="8" filter="url(#shadow)">
      <animate attributeName="opacity" values="0;1" dur="0.6s" begin="0.2s" fill="freeze"/>
      <animateTransform attributeName="transform" type="scale" values="0.8;1" dur="0.6s" begin="0.2s" fill="freeze"/>
    </rect>
    <text x="103.33333333333333" y="25" text-anchor="middle" fill="#64748b" font-size="14" font-weight="bold" font-family="Arial, sans-serif">FOLLOWERS
      <animate attributeName="opacity" values="0;1" dur="0.5s" begin="0.4s" fill="freeze"/>
    </text>
    
    <text x="103.33333333333333" y="50" text-anchor="middle" fill="#ef4444" font-size="32" font-weight="bold" font-family="Arial, sans-serif">
      ↘
      <animate attributeName="opacity" values="0;1" dur="0.5s" begin="0.6s" fill="freeze"/>
      <animateTransform attributeName="transform" type="scale" values="0;1.2;1" dur="0.8s" begin="0.6s" fill="freeze"/>
    </text>
    
    <text x="103.33333333333333" y="75" text-anchor="middle" fill="#1e293b" font-size="18" font-weight="bold" font-family="Arial, sans-serif">
      -15
      <animate attributeName="opacity" values="0;1" dur="0.5s" begin="0.8s" fill="freeze"/>
    </text>
    
    <text x="103.33333333333333" y="95" text-anchor="middle" fill="#64748b" font-size="12" font-family="Arial, sans-serif">
      #466 → #481
      <animate attributeName="opacity" values="0;1" dur="0.5s" begin="1s" fill="freeze"/>
    </text>
  </g>
  
  <!-- Public Contributions Card -->
  <g transform="translate(296.66666666666663, 100)">
    <rect width="206.66666666666666" height="120" fill="#ffffff" stroke="#e2e8f0" stroke-width="1" rx="8" filter="url(#shadow)">
      <animate attributeName="opacity" values="0;1" dur="0.6s" begin="0.4s" fill="freeze"/>
      <animateTransform attributeName="transform" type="scale" values="0.8;1" dur="0.6s" begin="0.4s" fill="freeze"/>
    </rect>
    <text x="103.33333333333333" y="25" text-anchor="middle" fill="#64748b" font-size="14" font-weight="bold" font-family="Arial, sans-serif">PUBLIC
      <animate attributeName="opacity" values="0;1" dur="0.5s" begin="0.6s" fill="freeze"/>
    </text>
    
    <text x="103.33333333333333" y="50" text-anchor="middle" fill="#6b7280" font-size="32" font-weight="bold" font-family="Arial, sans-serif">
      →
      <animate attributeName="opacity" values="0;1" dur="0.5s" begin="0.8s" fill="freeze"/>
      <animateTransform attributeName="transform" type="scale" values="0;1.2;1" dur="0.8s" begin="0.8s" fill="freeze"/>
    </text>
    
    <text x="103.33333333333333" y="75" text-anchor="middle" fill="#1e293b" font-size="18" font-weight="bold" font-family="Arial, sans-serif">
      0
      <animate attributeName="opacity" values="0;1" dur="0.5s" begin="1s" fill="freeze"/>
    </text>
    
    <text x="103.33333333333333" y="95" text-anchor="middle" fill="#64748b" font-size="12" font-family="Arial, sans-serif">
      #7 → #7
      <animate attributeName="opacity" values="0;1" dur="0.5s" begin="1.2s" fill="freeze"/>
    </text>
  </g>
  
  <!-- Total Contributions Card -->
  <g transform="translate(533.3333333333333, 100)">
    <rect width="206.66666666666666" height="120" fill="#ffffff" stroke="#e2e8f0" stroke-width="1" rx="8" filter="url(#shadow)">
      <animate attributeName="opacity" values="0;1" dur="0.6s" begin="0.6s" fill="freeze"/>
      <animateTransform attributeName="transform" type="scale" values="0.8;1" dur="0.6s" begin="0.6s" fill="freeze"/>
    </rect>
    <text x="103.33333333333333" y="25" text-anchor="middle" fill="#64748b" font-size="14" font-weight="bold" font-family="Arial, sans-serif">TOTAL
      <animate attributeName="opacity" values="0;1" dur="0.5s" begin="0.8s" fill="freeze"/>
    </text>
    
    <text x="103.33333333333333" y="50" text-anchor="middle" fill="#22c55e" font-size="32" font-weight="bold" font-family="Arial, sans-serif">
      ↗
      <animate attributeName="opacity" values="0;1" dur="0.5s" begin="1s" fill="freeze"/>
      <animateTransform attributeName="transform" type="scale" values="0;1.2;1" dur="0.8s" begin="1s" fill="freeze"/>
    </text>
    
    <text x="103.33333333333333" y="75" text-anchor="middle" fill="#1e293b" font-size="18" font-weight="bold" font-family="Arial, sans-serif">
      +3
      <animate attributeName="opacity" values="0;1" dur="0.5s" begin="1.2s" fill="freeze"/>
    </text>
    
    <text x="103.33333333333333" y="95" text-anchor="middle" fill="#64748b" font-size="12" font-family="Arial, sans-serif">
      #15 → #12
      <animate attributeName="opacity" values="0;1" dur="0.5s" begin="1.4s" fill="freeze"/>
    </text>
  </g>
  
  <!-- Timeline Charts (if we have snapshots) -->
  
  <!-- 👥 Followers Count Chart -->
  <g transform="translate(60, 250)">
    <!-- Chart Background -->
    <rect x="0" y="0" width="213.33333333333334" height="200" fill="#ffffff" stroke="#e2e8f0" stroke-width="1" rx="8" filter="url(#shadow)">
      <animate attributeName="opacity" values="0;1" dur="0.5s" begin="1.8s" fill="freeze"/>
    </rect>
    
    <!-- Chart Title -->
    <text x="106.66666666666667" y="25" text-anchor="middle" fill="#1e293b" font-size="14" font-weight="bold" font-family="Arial, sans-serif">
      👥 Followers Count
      <animate attributeName="opacity" values="0;1" dur="0.5s" begin="2s" fill="freeze"/>
    </text>
    
    <!-- Y-axis labels -->
    <text x="10" y="45" fill="#64748b" font-size="10" font-family="Arial, sans-serif">154
      <animate attributeName="opacity" values="0;1" dur="0.5s" begin="2.2s" fill="freeze"/>
    </text>
    <text x="10" y="185" fill="#64748b" font-size="10" font-family="Arial, sans-serif">150
      <animate attributeName="opacity" values="0;1" dur="0.5s" begin="2.2s" fill="freeze"/>
    </text>
    
    <!-- Chart Line with draw animation that follows the circle -->
    <path d="M 30,160 L 30.027662122965115,160 L 30.064085112594704,160 L 31.552249997293146,160 L 31.57584521487414,160 L 31.60490477669371,160 L 33.09887440740297,160 L 33.1323771081444,160 L 33.163747818838644,160 L 34.645910882816025,160 L 34.67606331348331,160 L 34.70992433187973,160 L 36.19165741467113,160 L 36.22105737826294,160 L 36.25420176134938,160 L 37.74281454311656,160 L 37.77029750725418,160 L 37.798407527288035,160 L 39.28899105615765,160 L 39.31677859030201,160 L 39.35017379574694,160 L 40.82801913198171,160 L 40.86481835514904,160 L 40.8956874211263,160 L 42.38403146465224,160 L 42.40576343042729,160 L 42.444837970703794,160 L 43.93380907012596,160 L 43.966469724378165,160 L 44.000886135139815,160 L 45.48394499325467,160 L 45.51382868568072,160 L 45.54548605049895,160 L 47.0227043308375,160 L 47.05516791037946,160 L 47.087541910507674,160 L 48.57542014108213,160 L 48.60580547822515,160 L 48.64052645899355,160 L 50.12383613946689,160 L 50.15180283243875,160 L 50.18267189841602,160 L 51.67289710963064,160 L 51.692819571247995,160 L 51.74172993115394,160 L 53.218195744417,160 L 53.24834817508429,160 L 53.27808854044834,160 L 54.76899455520744,160 L 54.8032318071416,160 L 54.83438752724285,160 L 56.3161743576825,160 L 56.346326788349785,160 L 56.38108360088367,160 L 57.8619925530686,160 L 57.891625423136155,160 L 57.91862465843954,160 L 59.41227180325931,160 L 59.44289004687808,160 L 59.474422000517066,160 L 60.96486220232469,160 L 60.993670941785766,160 L 61.02208553182636,160 L 62.50698972586441,160 L 62.537787128310676,70 L 62.5698744743149,70 L 64.060708825543,70 L 64.08208247366306,70 L 64.11155410078588,70 L 65.60477126441967,70 L 65.6286710520074,70 L 65.6710779464753,70 L 67.15454886989338,70 L 67.18602707588413,70 L 67.21367128296649,70 L 68.69621058048162,70 L 68.73069865477427,70 L 68.76447009375693,70 L 70.25367409965484,70 L 70.26893843175735,70 L 70.31030620502578,70 L 71.79850692148972,70 L 71.83113174397643,70 L 71.867984714792,70 L 73.3465646022195,70 L 73.37730825701752,70 L 73.4167052831835,70 L 74.89211405936436,70 L 74.92481054538206,70 L 74.9629534597556,70 L 76.44862803675187,70 L 76.48505102638146,70 L 77.9906122332296,70 L 78.06720263198338,70 L 79.53879532513861,70 L 79.57686657598114,70 L 79.61300291148675,70 L 81.0863513611514,70 L 81.12646502262737,70 L 81.15407339794425,70 L 82.63756223724508,70 L 82.6711366015175,70 L 82.7088316188223,70 L 84.1800480784398,70 L 84.21360452682947,70 L 84.25135329178251,70 L 85.73034524451325,70 L 85.76332838465494,70 L 85.79871225308506,70 L 87.28374185830236,70 L 87.32708037867322,70 L 88.86591137978704,70 L 88.90693875128323,70 L 90.38309999453955,70 L 90.41692518117048,70 L 91.93508125359145,70 L 91.96388999305253,70 L 92.01133125057302,70 L 93.47115320876188,70 L 93.5041184330208,70 L 93.53941272203718,70 L 95.02094873011835,70 L 95.0599336909811,70 L 95.09906197890585,70 L 96.56613986960821,70 L 96.5977434867782,70 L 96.63615513939298,70 L 98.11281802736627,70 L 98.14873937227888,70 L 98.19569690096513,70 L 99.65596675622271,70 L 99.69685080065692,70 L 99.7364269856504,70 L 101.21104746299027,70 L 101.24394102371822,70 L 101.28149271396101,70 L 102.7589439007753,70 L 102.79223161092374,70 L 102.83060743177302,70 L 104.3048695914579,70 L 104.34346040290016,70 L 104.38504316676159,70 L 105.85436054280764,70 L 105.88508628172289,70 L 105.92211841136596,70 L 107.40365441944712,70 L 107.43122696299848,70 L 107.46888614853778,70 L 108.94771685832377,70 L 108.98306489498839,70 L 109.02210360349939,70 L 110.49670616495652,70 L 110.53422202343383,70 L 110.57412069431679,70 L 112.04879491930491,70 L 112.07593748167031,70 L 112.11476119958832,70 L 113.59543724529749,70 L 113.63200356198908,70 L 113.66461046859304,70 L 115.13869346945043,70 L 115.17216033842637,70 L 115.21069740222038,70 L 116.68393835658854,70 L 116.72453574689874,70 L 116.76167537183832,70 L 118.23531047562697,70 L 118.26594663512849,70 L 118.30034513000739,70 L 119.78938789296055,70 L 119.8267783402586,70 L 119.86886274883702,70 L 121.33608396660136,70 L 121.3694791720463,70 L 121.40287437749123,70 L 122.88052263901577,70 L 122.91760851630708,70 L 122.9540852535849,70 L 124.42184394783176,70 L 124.46211885225247,70 L 124.50045884133625,70 L 125.96854002147258,70 L 126.00879701001054,70 L 126.05297757687063,70 L 127.53094832428465,70 L 127.56296400675787,70 L 127.6043676117918,70 L 129.0750107631613,70 L 129.1026728861264,70 L 129.13773426866703,70 L 130.6185536414382,70 L 130.6551557898953,70 L 130.69227749895214,70 L 132.167256293947,70 L 132.19921822877194,70 L 132.2405501702749,70 L 133.71484816172529,70 L 133.74700717126052,70 L 133.7850963379858,70 L 135.26326416011005,70 L 135.2947781978663,70 L 135.32890795450396,70 L 136.80949442079938,40 L 136.83932436557717,40 L 138.3561904944402,40 L 138.39261348406978,40 L 138.4270119789487,40 L 139.9056993616727,40 L 139.9307815975219,40 L 139.97347514611377,40 L 141.4620341802327,40 L 141.49987252459948,40 L 143.00240594726296,40 L 143.0418208893117,40 L 143.09327530456807,40 L 144.55264936568818,40 L 144.5912222612477,40 L 144.6149608058907,40 L 146.1026061299894,40 L 146.13847372725377,40 L 146.1762941557378,40 L 147.6514700254429,40 L 147.6856535297288,40 L 147.7244055841158,40 L 149.19773611789773,40 L 149.228461856813,40 L 149.26708850002078,40 L 150.74552506038629,40 L 150.77802447169373,40 L 150.8099505747532,40 L 152.29291985345432,40 L 152.33004156251113,40 L 152.37110476577283,40 L 153.84393365483777,40 L 153.88035664446733,40 L 153.92487761309968,40 L 155.38246008594484,40 L 155.41979678559466,40 L 155.46272324066229,40 L 156.93752287682963,40 L 156.97315756761824,40 L 157.00988512725456,40 L 158.4863688564004,40 L 158.5280949473238,40 L 158.5722755141839,40 L 160.03485651831616,40 L 160.07251570385546,40 L 160.11889992429371,40 L 161.57988641486128,40 L 161.61931927279275,40 L 161.65576017830512,40 L 163.13416090690512,40 L 163.17011808358322,40 L 164.68551511006078,40 L 164.71842658667148,40 L 166.227535138304,40 L 166.26478225854007,40 L 166.3090165730484,40 L 167.7734608289866,40 L 167.82049002120385,40 L 169.32468962096303,40 L 169.3566873875535,40 L 169.39886137554566,40 L 170.86918204102568,40 L 170.9080953383574,40 L 170.9523475687485,40 L 172.41285033048183,40 L 172.45041993660737,40 L 172.48223854437038,40 L 173.9660140377952,40 L 174.0092629787523,40 L 175.51500334442795,40 L 175.5538091464632,40 L 177.0631326886887,40 L 177.10168766836549,40 L 178.61067080881878,40 L 178.6488495549578,40 L 180.15313873413072,40 L 180.1884330231471,40 L 180.21923042559337,40 L 181.70922273033224,40 L 181.74492908465186,40 L 183.25471843982885,40 L 183.2926105318439,40 L 183.33333333333334,40" stroke="#22c55e" stroke-width="2" fill="none" stroke-dasharray="14250" stroke-dashoffset="14250">
      <animate attributeName="stroke-dashoffset" values="14250;0" dur="3s" begin="2.6s" fill="freeze"/>
    </path>
    
    <!-- Glow effect for the line that also follows the circle -->
    <path d="M 30,160 L 30.027662122965115,160 L 30.064085112594704,160 L 31.552249997293146,160 L 31.57584521487414,160 L 31.60490477669371,160 L 33.09887440740297,160 L 33.1323771081444,160 L 33.163747818838644,160 L 34.645910882816025,160 L 34.67606331348331,160 L 34.70992433187973,160 L 36.19165741467113,160 L 36.22105737826294,160 L 36.25420176134938,160 L 37.74281454311656,160 L 37.77029750725418,160 L 37.798407527288035,160 L 39.28899105615765,160 L 39.31677859030201,160 L 39.35017379574694,160 L 40.82801913198171,160 L 40.86481835514904,160 L 40.8956874211263,160 L 42.38403146465224,160 L 42.40576343042729,160 L 42.444837970703794,160 L 43.93380907012596,160 L 43.966469724378165,160 L 44.000886135139815,160 L 45.48394499325467,160 L 45.51382868568072,160 L 45.54548605049895,160 L 47.0227043308375,160 L 47.05516791037946,160 L 47.087541910507674,160 L 48.57542014108213,160 L 48.60580547822515,160 L 48.64052645899355,160 L 50.12383613946689,160 L 50.15180283243875,160 L 50.18267189841602,160 L 51.67289710963064,160 L 51.692819571247995,160 L 51.74172993115394,160 L 53.218195744417,160 L 53.24834817508429,160 L 53.27808854044834,160 L 54.76899455520744,160 L 54.8032318071416,160 L 54.83438752724285,160 L 56.3161743576825,160 L 56.346326788349785,160 L 56.38108360088367,160 L 57.8619925530686,160 L 57.891625423136155,160 L 57.91862465843954,160 L 59.41227180325931,160 L 59.44289004687808,160 L 59.474422000517066,160 L 60.96486220232469,160 L 60.993670941785766,160 L 61.02208553182636,160 L 62.50698972586441,160 L 62.537787128310676,70 L 62.5698744743149,70 L 64.060708825543,70 L 64.08208247366306,70 L 64.11155410078588,70 L 65.60477126441967,70 L 65.6286710520074,70 L 65.6710779464753,70 L 67.15454886989338,70 L 67.18602707588413,70 L 67.21367128296649,70 L 68.69621058048162,70 L 68.73069865477427,70 L 68.76447009375693,70 L 70.25367409965484,70 L 70.26893843175735,70 L 70.31030620502578,70 L 71.79850692148972,70 L 71.83113174397643,70 L 71.867984714792,70 L 73.3465646022195,70 L 73.37730825701752,70 L 73.4167052831835,70 L 74.89211405936436,70 L 74.92481054538206,70 L 74.9629534597556,70 L 76.44862803675187,70 L 76.48505102638146,70 L 77.9906122332296,70 L 78.06720263198338,70 L 79.53879532513861,70 L 79.57686657598114,70 L 79.61300291148675,70 L 81.0863513611514,70 L 81.12646502262737,70 L 81.15407339794425,70 L 82.63756223724508,70 L 82.6711366015175,70 L 82.7088316188223,70 L 84.1800480784398,70 L 84.21360452682947,70 L 84.25135329178251,70 L 85.73034524451325,70 L 85.76332838465494,70 L 85.79871225308506,70 L 87.28374185830236,70 L 87.32708037867322,70 L 88.86591137978704,70 L 88.90693875128323,70 L 90.38309999453955,70 L 90.41692518117048,70 L 91.93508125359145,70 L 91.96388999305253,70 L 92.01133125057302,70 L 93.47115320876188,70 L 93.5041184330208,70 L 93.53941272203718,70 L 95.02094873011835,70 L 95.0599336909811,70 L 95.09906197890585,70 L 96.56613986960821,70 L 96.5977434867782,70 L 96.63615513939298,70 L 98.11281802736627,70 L 98.14873937227888,70 L 98.19569690096513,70 L 99.65596675622271,70 L 99.69685080065692,70 L 99.7364269856504,70 L 101.21104746299027,70 L 101.24394102371822,70 L 101.28149271396101,70 L 102.7589439007753,70 L 102.79223161092374,70 L 102.83060743177302,70 L 104.3048695914579,70 L 104.34346040290016,70 L 104.38504316676159,70 L 105.85436054280764,70 L 105.88508628172289,70 L 105.92211841136596,70 L 107.40365441944712,70 L 107.43122696299848,70 L 107.46888614853778,70 L 108.94771685832377,70 L 108.98306489498839,70 L 109.02210360349939,70 L 110.49670616495652,70 L 110.53422202343383,70 L 110.57412069431679,70 L 112.04879491930491,70 L 112.07593748167031,70 L 112.11476119958832,70 L 113.59543724529749,70 L 113.63200356198908,70 L 113.66461046859304,70 L 115.13869346945043,70 L 115.17216033842637,70 L 115.21069740222038,70 L 116.68393835658854,70 L 116.72453574689874,70 L 116.76167537183832,70 L 118.23531047562697,70 L 118.26594663512849,70 L 118.30034513000739,70 L 119.78938789296055,70 L 119.8267783402586,70 L 119.86886274883702,70 L 121.33608396660136,70 L 121.3694791720463,70 L 121.40287437749123,70 L 122.88052263901577,70 L 122.91760851630708,70 L 122.9540852535849,70 L 124.42184394783176,70 L 124.46211885225247,70 L 124.50045884133625,70 L 125.96854002147258,70 L 126.00879701001054,70 L 126.05297757687063,70 L 127.53094832428465,70 L 127.56296400675787,70 L 127.6043676117918,70 L 129.0750107631613,70 L 129.1026728861264,70 L 129.13773426866703,70 L 130.6185536414382,70 L 130.6551557898953,70 L 130.69227749895214,70 L 132.167256293947,70 L 132.19921822877194,70 L 132.2405501702749,70 L 133.71484816172529,70 L 133.74700717126052,70 L 133.7850963379858,70 L 135.26326416011005,70 L 135.2947781978663,70 L 135.32890795450396,70 L 136.80949442079938,40 L 136.83932436557717,40 L 138.3561904944402,40 L 138.39261348406978,40 L 138.4270119789487,40 L 139.9056993616727,40 L 139.9307815975219,40 L 139.97347514611377,40 L 141.4620341802327,40 L 141.49987252459948,40 L 143.00240594726296,40 L 143.0418208893117,40 L 143.09327530456807,40 L 144.55264936568818,40 L 144.5912222612477,40 L 144.6149608058907,40 L 146.1026061299894,40 L 146.13847372725377,40 L 146.1762941557378,40 L 147.6514700254429,40 L 147.6856535297288,40 L 147.7244055841158,40 L 149.19773611789773,40 L 149.228461856813,40 L 149.26708850002078,40 L 150.74552506038629,40 L 150.77802447169373,40 L 150.8099505747532,40 L 152.29291985345432,40 L 152.33004156251113,40 L 152.37110476577283,40 L 153.84393365483777,40 L 153.88035664446733,40 L 153.92487761309968,40 L 155.38246008594484,40 L 155.41979678559466,40 L 155.46272324066229,40 L 156.93752287682963,40 L 156.97315756761824,40 L 157.00988512725456,40 L 158.4863688564004,40 L 158.5280949473238,40 L 158.5722755141839,40 L 160.03485651831616,40 L 160.07251570385546,40 L 160.11889992429371,40 L 161.57988641486128,40 L 161.61931927279275,40 L 161.65576017830512,40 L 163.13416090690512,40 L 163.17011808358322,40 L 164.68551511006078,40 L 164.71842658667148,40 L 166.227535138304,40 L 166.26478225854007,40 L 166.3090165730484,40 L 167.7734608289866,40 L 167.82049002120385,40 L 169.32468962096303,40 L 169.3566873875535,40 L 169.39886137554566,40 L 170.86918204102568,40 L 170.9080953383574,40 L 170.9523475687485,40 L 172.41285033048183,40 L 172.45041993660737,40 L 172.48223854437038,40 L 173.9660140377952,40 L 174.0092629787523,40 L 175.51500334442795,40 L 175.5538091464632,40 L 177.0631326886887,40 L 177.10168766836549,40 L 178.61067080881878,40 L 178.6488495549578,40 L 180.15313873413072,40 L 180.1884330231471,40 L 180.21923042559337,40 L 181.70922273033224,40 L 181.74492908465186,40 L 183.25471843982885,40 L 183.2926105318439,40 L 183.33333333333334,40" stroke="#22c55e" stroke-width="4" fill="none" opacity="0.4" stroke-dasharray="14250" stroke-dashoffset="14250">
      <animate attributeName="stroke-dashoffset" values="14250;0" dur="3s" begin="2.6s" fill="freeze"/>
    </path>
    
    <!-- Animated circle that moves along the path and draws the line -->
    <circle r="5" fill="#22c55e" opacity="0" filter="url(#trailGlow)">
      <animate attributeName="opacity" values="0;1;1;1" dur="3.2s" begin="2.4s" fill="freeze"/>
      <animate attributeName="r" values="5;6;5" dur="1s" begin="2.4s" repeatCount="3"/>
      <animateMotion dur="3s" begin="2.4s" fill="freeze">
        <mpath href="#path_followersCount_60"/>
      </animateMotion>
    </circle>
    
    <!-- Small trail dots that fade out -->
    <circle r="2" fill="#22c55e" opacity="0">
      <animate attributeName="opacity" values="0;0.6;0" dur="0.8s" begin="2.8s" fill="freeze"/>
      <animateMotion dur="3s" begin="2.4s" fill="freeze">
        <mpath href="#path_followersCount_60"/>
      </animateMotion>
    </circle>
    
    <!-- Hidden path for motion animation -->
    <path id="path_followersCount_60" d="M 30,160 L 30.027662122965115,160 L 30.064085112594704,160 L 31.552249997293146,160 L 31.57584521487414,160 L 31.60490477669371,160 L 33.09887440740297,160 L 33.1323771081444,160 L 33.163747818838644,160 L 34.645910882816025,160 L 34.67606331348331,160 L 34.70992433187973,160 L 36.19165741467113,160 L 36.22105737826294,160 L 36.25420176134938,160 L 37.74281454311656,160 L 37.77029750725418,160 L 37.798407527288035,160 L 39.28899105615765,160 L 39.31677859030201,160 L 39.35017379574694,160 L 40.82801913198171,160 L 40.86481835514904,160 L 40.8956874211263,160 L 42.38403146465224,160 L 42.40576343042729,160 L 42.444837970703794,160 L 43.93380907012596,160 L 43.966469724378165,160 L 44.000886135139815,160 L 45.48394499325467,160 L 45.51382868568072,160 L 45.54548605049895,160 L 47.0227043308375,160 L 47.05516791037946,160 L 47.087541910507674,160 L 48.57542014108213,160 L 48.60580547822515,160 L 48.64052645899355,160 L 50.12383613946689,160 L 50.15180283243875,160 L 50.18267189841602,160 L 51.67289710963064,160 L 51.692819571247995,160 L 51.74172993115394,160 L 53.218195744417,160 L 53.24834817508429,160 L 53.27808854044834,160 L 54.76899455520744,160 L 54.8032318071416,160 L 54.83438752724285,160 L 56.3161743576825,160 L 56.346326788349785,160 L 56.38108360088367,160 L 57.8619925530686,160 L 57.891625423136155,160 L 57.91862465843954,160 L 59.41227180325931,160 L 59.44289004687808,160 L 59.474422000517066,160 L 60.96486220232469,160 L 60.993670941785766,160 L 61.02208553182636,160 L 62.50698972586441,160 L 62.537787128310676,70 L 62.5698744743149,70 L 64.060708825543,70 L 64.08208247366306,70 L 64.11155410078588,70 L 65.60477126441967,70 L 65.6286710520074,70 L 65.6710779464753,70 L 67.15454886989338,70 L 67.18602707588413,70 L 67.21367128296649,70 L 68.69621058048162,70 L 68.73069865477427,70 L 68.76447009375693,70 L 70.25367409965484,70 L 70.26893843175735,70 L 70.31030620502578,70 L 71.79850692148972,70 L 71.83113174397643,70 L 71.867984714792,70 L 73.3465646022195,70 L 73.37730825701752,70 L 73.4167052831835,70 L 74.89211405936436,70 L 74.92481054538206,70 L 74.9629534597556,70 L 76.44862803675187,70 L 76.48505102638146,70 L 77.9906122332296,70 L 78.06720263198338,70 L 79.53879532513861,70 L 79.57686657598114,70 L 79.61300291148675,70 L 81.0863513611514,70 L 81.12646502262737,70 L 81.15407339794425,70 L 82.63756223724508,70 L 82.6711366015175,70 L 82.7088316188223,70 L 84.1800480784398,70 L 84.21360452682947,70 L 84.25135329178251,70 L 85.73034524451325,70 L 85.76332838465494,70 L 85.79871225308506,70 L 87.28374185830236,70 L 87.32708037867322,70 L 88.86591137978704,70 L 88.90693875128323,70 L 90.38309999453955,70 L 90.41692518117048,70 L 91.93508125359145,70 L 91.96388999305253,70 L 92.01133125057302,70 L 93.47115320876188,70 L 93.5041184330208,70 L 93.53941272203718,70 L 95.02094873011835,70 L 95.0599336909811,70 L 95.09906197890585,70 L 96.56613986960821,70 L 96.5977434867782,70 L 96.63615513939298,70 L 98.11281802736627,70 L 98.14873937227888,70 L 98.19569690096513,70 L 99.65596675622271,70 L 99.69685080065692,70 L 99.7364269856504,70 L 101.21104746299027,70 L 101.24394102371822,70 L 101.28149271396101,70 L 102.7589439007753,70 L 102.79223161092374,70 L 102.83060743177302,70 L 104.3048695914579,70 L 104.34346040290016,70 L 104.38504316676159,70 L 105.85436054280764,70 L 105.88508628172289,70 L 105.92211841136596,70 L 107.40365441944712,70 L 107.43122696299848,70 L 107.46888614853778,70 L 108.94771685832377,70 L 108.98306489498839,70 L 109.02210360349939,70 L 110.49670616495652,70 L 110.53422202343383,70 L 110.57412069431679,70 L 112.04879491930491,70 L 112.07593748167031,70 L 112.11476119958832,70 L 113.59543724529749,70 L 113.63200356198908,70 L 113.66461046859304,70 L 115.13869346945043,70 L 115.17216033842637,70 L 115.21069740222038,70 L 116.68393835658854,70 L 116.72453574689874,70 L 116.76167537183832,70 L 118.23531047562697,70 L 118.26594663512849,70 L 118.30034513000739,70 L 119.78938789296055,70 L 119.8267783402586,70 L 119.86886274883702,70 L 121.33608396660136,70 L 121.3694791720463,70 L 121.40287437749123,70 L 122.88052263901577,70 L 122.91760851630708,70 L 122.9540852535849,70 L 124.42184394783176,70 L 124.46211885225247,70 L 124.50045884133625,70 L 125.96854002147258,70 L 126.00879701001054,70 L 126.05297757687063,70 L 127.53094832428465,70 L 127.56296400675787,70 L 127.6043676117918,70 L 129.0750107631613,70 L 129.1026728861264,70 L 129.13773426866703,70 L 130.6185536414382,70 L 130.6551557898953,70 L 130.69227749895214,70 L 132.167256293947,70 L 132.19921822877194,70 L 132.2405501702749,70 L 133.71484816172529,70 L 133.74700717126052,70 L 133.7850963379858,70 L 135.26326416011005,70 L 135.2947781978663,70 L 135.32890795450396,70 L 136.80949442079938,40 L 136.83932436557717,40 L 138.3561904944402,40 L 138.39261348406978,40 L 138.4270119789487,40 L 139.9056993616727,40 L 139.9307815975219,40 L 139.97347514611377,40 L 141.4620341802327,40 L 141.49987252459948,40 L 143.00240594726296,40 L 143.0418208893117,40 L 143.09327530456807,40 L 144.55264936568818,40 L 144.5912222612477,40 L 144.6149608058907,40 L 146.1026061299894,40 L 146.13847372725377,40 L 146.1762941557378,40 L 147.6514700254429,40 L 147.6856535297288,40 L 147.7244055841158,40 L 149.19773611789773,40 L 149.228461856813,40 L 149.26708850002078,40 L 150.74552506038629,40 L 150.77802447169373,40 L 150.8099505747532,40 L 152.29291985345432,40 L 152.33004156251113,40 L 152.37110476577283,40 L 153.84393365483777,40 L 153.88035664446733,40 L 153.92487761309968,40 L 155.38246008594484,40 L 155.41979678559466,40 L 155.46272324066229,40 L 156.93752287682963,40 L 156.97315756761824,40 L 157.00988512725456,40 L 158.4863688564004,40 L 158.5280949473238,40 L 158.5722755141839,40 L 160.03485651831616,40 L 160.07251570385546,40 L 160.11889992429371,40 L 161.57988641486128,40 L 161.61931927279275,40 L 161.65576017830512,40 L 163.13416090690512,40 L 163.17011808358322,40 L 164.68551511006078,40 L 164.71842658667148,40 L 166.227535138304,40 L 166.26478225854007,40 L 166.3090165730484,40 L 167.7734608289866,40 L 167.82049002120385,40 L 169.32468962096303,40 L 169.3566873875535,40 L 169.39886137554566,40 L 170.86918204102568,40 L 170.9080953383574,40 L 170.9523475687485,40 L 172.41285033048183,40 L 172.45041993660737,40 L 172.48223854437038,40 L 173.9660140377952,40 L 174.0092629787523,40 L 175.51500334442795,40 L 175.5538091464632,40 L 177.0631326886887,40 L 177.10168766836549,40 L 178.61067080881878,40 L 178.6488495549578,40 L 180.15313873413072,40 L 180.1884330231471,40 L 180.21923042559337,40 L 181.70922273033224,40 L 181.74492908465186,40 L 183.25471843982885,40 L 183.2926105318439,40 L 183.33333333333334,40" fill="none" stroke="none"/>
  </g>
  <!-- 🔓 Public Contributions Chart -->
  <g transform="translate(293.33333333333337, 250)">
    <!-- Chart Background -->
    <rect x="0" y="0" width="213.33333333333334" height="200" fill="#ffffff" stroke="#e2e8f0" stroke-width="1" rx="8" filter="url(#shadow)">
      <animate attributeName="opacity" values="0;1" dur="0.5s" begin="2.3s" fill="freeze"/>
    </rect>
    
    <!-- Chart Title -->
    <text x="106.66666666666667" y="25" text-anchor="middle" fill="#1e293b" font-size="14" font-weight="bold" font-family="Arial, sans-serif">
      🔓 Public Contributions
      <animate attributeName="opacity" values="0;1" dur="0.5s" begin="2.5s" fill="freeze"/>
    </text>
    
    <!-- Y-axis labels -->
    <text x="10" y="45" fill="#64748b" font-size="10" font-family="Arial, sans-serif">3,861
      <animate attributeName="opacity" values="0;1" dur="0.5s" begin="2.6999999999999997s" fill="freeze"/>
    </text>
    <text x="10" y="185" fill="#64748b" font-size="10" font-family="Arial, sans-serif">3,434
      <animate attributeName="opacity" values="0;1" dur="0.5s" begin="2.6999999999999997s" fill="freeze"/>
    </text>
    
    <!-- Chart Line with draw animation that follows the circle -->
    <path d="M 30,160 L 30.027662122965115,160 L 30.064085112594704,160 L 31.552249997293146,160 L 31.57584521487414,160 L 31.60490477669371,160 L 33.09887440740297,160 L 33.1323771081444,160 L 33.163747818838644,160 L 34.645910882816025,160 L 34.67606331348331,160 L 34.70992433187973,160 L 36.19165741467113,160 L 36.22105737826294,160 L 36.25420176134938,160 L 37.74281454311656,160 L 37.77029750725418,160 L 37.798407527288035,160 L 39.28899105615765,160 L 39.31677859030201,160 L 39.35017379574694,160 L 40.82801913198171,160 L 40.86481835514904,160 L 40.8956874211263,160 L 42.38403146465224,160 L 42.40576343042729,160 L 42.444837970703794,160 L 43.93380907012596,160 L 43.966469724378165,160 L 44.000886135139815,160 L 45.48394499325467,160 L 45.51382868568072,160 L 45.54548605049895,160 L 47.0227043308375,160 L 47.05516791037946,160 L 47.087541910507674,160 L 48.57542014108213,160 L 48.60580547822515,160 L 48.64052645899355,160 L 50.12383613946689,160 L 50.15180283243875,160 L 50.18267189841602,160 L 51.67289710963064,160 L 51.692819571247995,160 L 51.74172993115394,160 L 53.218195744417,160 L 53.24834817508429,160 L 53.27808854044834,160 L 54.76899455520744,160 L 54.8032318071416,160 L 54.83438752724285,160 L 56.3161743576825,160 L 56.346326788349785,160 L 56.38108360088367,160 L 57.8619925530686,160 L 57.891625423136155,160 L 57.91862465843954,160 L 59.41227180325931,160 L 59.44289004687808,160 L 59.474422000517066,160 L 60.96486220232469,160 L 60.993670941785766,160 L 61.02208553182636,160 L 62.50698972586441,160 L 62.537787128310676,40 L 62.5698744743149,40 L 64.060708825543,40 L 64.08208247366306,40 L 64.11155410078588,40 L 65.60477126441967,40 L 65.6286710520074,40 L 65.6710779464753,40 L 67.15454886989338,40 L 67.18602707588413,40 L 67.21367128296649,40 L 68.69621058048162,40 L 68.73069865477427,40 L 68.76447009375693,40 L 70.25367409965484,40 L 70.26893843175735,40 L 70.31030620502578,40 L 71.79850692148972,40 L 71.83113174397643,40 L 71.867984714792,40 L 73.3465646022195,40 L 73.37730825701752,40 L 73.4167052831835,40 L 74.89211405936436,40 L 74.92481054538206,40 L 74.9629534597556,40 L 76.44862803675187,40 L 76.48505102638146,40 L 77.9906122332296,40 L 78.06720263198338,40 L 79.53879532513861,40 L 79.57686657598114,40 L 79.61300291148675,40 L 81.0863513611514,40 L 81.12646502262737,40 L 81.15407339794425,40 L 82.63756223724508,40 L 82.6711366015175,40 L 82.7088316188223,40 L 84.1800480784398,40 L 84.21360452682947,40 L 84.25135329178251,40 L 85.73034524451325,40 L 85.76332838465494,40 L 85.79871225308506,40 L 87.28374185830236,40 L 87.32708037867322,40 L 88.86591137978704,40 L 88.90693875128323,40 L 90.38309999453955,40 L 90.41692518117048,40 L 91.93508125359145,40 L 91.96388999305253,40 L 92.01133125057302,40 L 93.47115320876188,40 L 93.5041184330208,40 L 93.53941272203718,40 L 95.02094873011835,40 L 95.0599336909811,40 L 95.09906197890585,40 L 96.56613986960821,40 L 96.5977434867782,40 L 96.63615513939298,40 L 98.11281802736627,40 L 98.14873937227888,40 L 98.19569690096513,40 L 99.65596675622271,40 L 99.69685080065692,40 L 99.7364269856504,40 L 101.21104746299027,40 L 101.24394102371822,40 L 101.28149271396101,40 L 102.7589439007753,40 L 102.79223161092374,40 L 102.83060743177302,40 L 104.3048695914579,40 L 104.34346040290016,40 L 104.38504316676159,40 L 105.85436054280764,40 L 105.88508628172289,40 L 105.92211841136596,40 L 107.40365441944712,40 L 107.43122696299848,40 L 107.46888614853778,40 L 108.94771685832377,40 L 108.98306489498839,40 L 109.02210360349939,40 L 110.49670616495652,40 L 110.53422202343383,40 L 110.57412069431679,40 L 112.04879491930491,40 L 112.07593748167031,40 L 112.11476119958832,40 L 113.59543724529749,40 L 113.63200356198908,40 L 113.66461046859304,40 L 115.13869346945043,40 L 115.17216033842637,40 L 115.21069740222038,40 L 116.68393835658854,40 L 116.72453574689874,40 L 116.76167537183832,40 L 118.23531047562697,40 L 118.26594663512849,40 L 118.30034513000739,40 L 119.78938789296055,40 L 119.8267783402586,40 L 119.86886274883702,40 L 121.33608396660136,40 L 121.3694791720463,40 L 121.40287437749123,40 L 122.88052263901577,40 L 122.91760851630708,40 L 122.9540852535849,40 L 124.42184394783176,40 L 124.46211885225247,40 L 124.50045884133625,40 L 125.96854002147258,40 L 126.00879701001054,40 L 126.05297757687063,40 L 127.53094832428465,40 L 127.56296400675787,40 L 127.6043676117918,40 L 129.0750107631613,40 L 129.1026728861264,40 L 129.13773426866703,40 L 130.6185536414382,40 L 130.6551557898953,40 L 130.69227749895214,40 L 132.167256293947,40 L 132.19921822877194,40 L 132.2405501702749,40 L 133.71484816172529,40 L 133.74700717126052,40 L 133.7850963379858,40 L 135.26326416011005,40 L 135.2947781978663,40 L 135.32890795450396,40 L 136.80949442079938,66.4168618266979 L 136.83932436557717,66.4168618266979 L 138.3561904944402,66.4168618266979 L 138.39261348406978,66.4168618266979 L 138.4270119789487,66.4168618266979 L 139.9056993616727,66.4168618266979 L 139.9307815975219,66.4168618266979 L 139.97347514611377,66.4168618266979 L 141.4620341802327,66.4168618266979 L 141.49987252459948,66.4168618266979 L 143.00240594726296,66.4168618266979 L 143.0418208893117,66.4168618266979 L 143.09327530456807,66.4168618266979 L 144.55264936568818,66.4168618266979 L 144.5912222612477,66.4168618266979 L 144.6149608058907,66.4168618266979 L 146.1026061299894,66.4168618266979 L 146.13847372725377,66.4168618266979 L 146.1762941557378,66.4168618266979 L 147.6514700254429,66.4168618266979 L 147.6856535297288,66.4168618266979 L 147.7244055841158,66.4168618266979 L 149.19773611789773,66.4168618266979 L 149.228461856813,66.4168618266979 L 149.26708850002078,66.4168618266979 L 150.74552506038629,66.4168618266979 L 150.77802447169373,66.4168618266979 L 150.8099505747532,66.4168618266979 L 152.29291985345432,66.4168618266979 L 152.33004156251113,66.4168618266979 L 152.37110476577283,66.4168618266979 L 153.84393365483777,66.4168618266979 L 153.88035664446733,66.4168618266979 L 153.92487761309968,66.4168618266979 L 155.38246008594484,66.4168618266979 L 155.41979678559466,66.4168618266979 L 155.46272324066229,66.4168618266979 L 156.93752287682963,66.4168618266979 L 156.97315756761824,66.4168618266979 L 157.00988512725456,66.4168618266979 L 158.4863688564004,66.4168618266979 L 158.5280949473238,66.4168618266979 L 158.5722755141839,66.4168618266979 L 160.03485651831616,66.4168618266979 L 160.07251570385546,66.4168618266979 L 160.11889992429371,66.4168618266979 L 161.57988641486128,66.4168618266979 L 161.61931927279275,66.4168618266979 L 161.65576017830512,66.4168618266979 L 163.13416090690512,66.4168618266979 L 163.17011808358322,66.4168618266979 L 164.68551511006078,66.4168618266979 L 164.71842658667148,66.4168618266979 L 166.227535138304,66.4168618266979 L 166.26478225854007,66.4168618266979 L 166.3090165730484,66.4168618266979 L 167.7734608289866,66.4168618266979 L 167.82049002120385,66.4168618266979 L 169.32468962096303,66.4168618266979 L 169.3566873875535,66.4168618266979 L 169.39886137554566,66.4168618266979 L 170.86918204102568,66.4168618266979 L 170.9080953383574,66.4168618266979 L 170.9523475687485,66.4168618266979 L 172.41285033048183,66.4168618266979 L 172.45041993660737,66.4168618266979 L 172.48223854437038,66.4168618266979 L 173.9660140377952,66.4168618266979 L 174.0092629787523,66.4168618266979 L 175.51500334442795,66.4168618266979 L 175.5538091464632,66.4168618266979 L 177.0631326886887,66.4168618266979 L 177.10168766836549,66.4168618266979 L 178.61067080881878,66.4168618266979 L 178.6488495549578,66.4168618266979 L 180.15313873413072,66.4168618266979 L 180.1884330231471,66.4168618266979 L 180.21923042559337,66.4168618266979 L 181.70922273033224,66.4168618266979 L 181.74492908465186,66.4168618266979 L 183.25471843982885,66.4168618266979 L 183.2926105318439,66.4168618266979 L 183.33333333333334,66.4168618266979" stroke="#3b82f6" stroke-width="2" fill="none" stroke-dasharray="14250" stroke-dashoffset="14250">
      <animate attributeName="stroke-dashoffset" values="14250;0" dur="3s" begin="3.0999999999999996s" fill="freeze"/>
    </path>
    
    <!-- Glow effect for the line that also follows the circle -->
    <path d="M 30,160 L 30.027662122965115,160 L 30.064085112594704,160 L 31.552249997293146,160 L 31.57584521487414,160 L 31.60490477669371,160 L 33.09887440740297,160 L 33.1323771081444,160 L 33.163747818838644,160 L 34.645910882816025,160 L 34.67606331348331,160 L 34.70992433187973,160 L 36.19165741467113,160 L 36.22105737826294,160 L 36.25420176134938,160 L 37.74281454311656,160 L 37.77029750725418,160 L 37.798407527288035,160 L 39.28899105615765,160 L 39.31677859030201,160 L 39.35017379574694,160 L 40.82801913198171,160 L 40.86481835514904,160 L 40.8956874211263,160 L 42.38403146465224,160 L 42.40576343042729,160 L 42.444837970703794,160 L 43.93380907012596,160 L 43.966469724378165,160 L 44.000886135139815,160 L 45.48394499325467,160 L 45.51382868568072,160 L 45.54548605049895,160 L 47.0227043308375,160 L 47.05516791037946,160 L 47.087541910507674,160 L 48.57542014108213,160 L 48.60580547822515,160 L 48.64052645899355,160 L 50.12383613946689,160 L 50.15180283243875,160 L 50.18267189841602,160 L 51.67289710963064,160 L 51.692819571247995,160 L 51.74172993115394,160 L 53.218195744417,160 L 53.24834817508429,160 L 53.27808854044834,160 L 54.76899455520744,160 L 54.8032318071416,160 L 54.83438752724285,160 L 56.3161743576825,160 L 56.346326788349785,160 L 56.38108360088367,160 L 57.8619925530686,160 L 57.891625423136155,160 L 57.91862465843954,160 L 59.41227180325931,160 L 59.44289004687808,160 L 59.474422000517066,160 L 60.96486220232469,160 L 60.993670941785766,160 L 61.02208553182636,160 L 62.50698972586441,160 L 62.537787128310676,40 L 62.5698744743149,40 L 64.060708825543,40 L 64.08208247366306,40 L 64.11155410078588,40 L 65.60477126441967,40 L 65.6286710520074,40 L 65.6710779464753,40 L 67.15454886989338,40 L 67.18602707588413,40 L 67.21367128296649,40 L 68.69621058048162,40 L 68.73069865477427,40 L 68.76447009375693,40 L 70.25367409965484,40 L 70.26893843175735,40 L 70.31030620502578,40 L 71.79850692148972,40 L 71.83113174397643,40 L 71.867984714792,40 L 73.3465646022195,40 L 73.37730825701752,40 L 73.4167052831835,40 L 74.89211405936436,40 L 74.92481054538206,40 L 74.9629534597556,40 L 76.44862803675187,40 L 76.48505102638146,40 L 77.9906122332296,40 L 78.06720263198338,40 L 79.53879532513861,40 L 79.57686657598114,40 L 79.61300291148675,40 L 81.0863513611514,40 L 81.12646502262737,40 L 81.15407339794425,40 L 82.63756223724508,40 L 82.6711366015175,40 L 82.7088316188223,40 L 84.1800480784398,40 L 84.21360452682947,40 L 84.25135329178251,40 L 85.73034524451325,40 L 85.76332838465494,40 L 85.79871225308506,40 L 87.28374185830236,40 L 87.32708037867322,40 L 88.86591137978704,40 L 88.90693875128323,40 L 90.38309999453955,40 L 90.41692518117048,40 L 91.93508125359145,40 L 91.96388999305253,40 L 92.01133125057302,40 L 93.47115320876188,40 L 93.5041184330208,40 L 93.53941272203718,40 L 95.02094873011835,40 L 95.0599336909811,40 L 95.09906197890585,40 L 96.56613986960821,40 L 96.5977434867782,40 L 96.63615513939298,40 L 98.11281802736627,40 L 98.14873937227888,40 L 98.19569690096513,40 L 99.65596675622271,40 L 99.69685080065692,40 L 99.7364269856504,40 L 101.21104746299027,40 L 101.24394102371822,40 L 101.28149271396101,40 L 102.7589439007753,40 L 102.79223161092374,40 L 102.83060743177302,40 L 104.3048695914579,40 L 104.34346040290016,40 L 104.38504316676159,40 L 105.85436054280764,40 L 105.88508628172289,40 L 105.92211841136596,40 L 107.40365441944712,40 L 107.43122696299848,40 L 107.46888614853778,40 L 108.94771685832377,40 L 108.98306489498839,40 L 109.02210360349939,40 L 110.49670616495652,40 L 110.53422202343383,40 L 110.57412069431679,40 L 112.04879491930491,40 L 112.07593748167031,40 L 112.11476119958832,40 L 113.59543724529749,40 L 113.63200356198908,40 L 113.66461046859304,40 L 115.13869346945043,40 L 115.17216033842637,40 L 115.21069740222038,40 L 116.68393835658854,40 L 116.72453574689874,40 L 116.76167537183832,40 L 118.23531047562697,40 L 118.26594663512849,40 L 118.30034513000739,40 L 119.78938789296055,40 L 119.8267783402586,40 L 119.86886274883702,40 L 121.33608396660136,40 L 121.3694791720463,40 L 121.40287437749123,40 L 122.88052263901577,40 L 122.91760851630708,40 L 122.9540852535849,40 L 124.42184394783176,40 L 124.46211885225247,40 L 124.50045884133625,40 L 125.96854002147258,40 L 126.00879701001054,40 L 126.05297757687063,40 L 127.53094832428465,40 L 127.56296400675787,40 L 127.6043676117918,40 L 129.0750107631613,40 L 129.1026728861264,40 L 129.13773426866703,40 L 130.6185536414382,40 L 130.6551557898953,40 L 130.69227749895214,40 L 132.167256293947,40 L 132.19921822877194,40 L 132.2405501702749,40 L 133.71484816172529,40 L 133.74700717126052,40 L 133.7850963379858,40 L 135.26326416011005,40 L 135.2947781978663,40 L 135.32890795450396,40 L 136.80949442079938,66.4168618266979 L 136.83932436557717,66.4168618266979 L 138.3561904944402,66.4168618266979 L 138.39261348406978,66.4168618266979 L 138.4270119789487,66.4168618266979 L 139.9056993616727,66.4168618266979 L 139.9307815975219,66.4168618266979 L 139.97347514611377,66.4168618266979 L 141.4620341802327,66.4168618266979 L 141.49987252459948,66.4168618266979 L 143.00240594726296,66.4168618266979 L 143.0418208893117,66.4168618266979 L 143.09327530456807,66.4168618266979 L 144.55264936568818,66.4168618266979 L 144.5912222612477,66.4168618266979 L 144.6149608058907,66.4168618266979 L 146.1026061299894,66.4168618266979 L 146.13847372725377,66.4168618266979 L 146.1762941557378,66.4168618266979 L 147.6514700254429,66.4168618266979 L 147.6856535297288,66.4168618266979 L 147.7244055841158,66.4168618266979 L 149.19773611789773,66.4168618266979 L 149.228461856813,66.4168618266979 L 149.26708850002078,66.4168618266979 L 150.74552506038629,66.4168618266979 L 150.77802447169373,66.4168618266979 L 150.8099505747532,66.4168618266979 L 152.29291985345432,66.4168618266979 L 152.33004156251113,66.4168618266979 L 152.37110476577283,66.4168618266979 L 153.84393365483777,66.4168618266979 L 153.88035664446733,66.4168618266979 L 153.92487761309968,66.4168618266979 L 155.38246008594484,66.4168618266979 L 155.41979678559466,66.4168618266979 L 155.46272324066229,66.4168618266979 L 156.93752287682963,66.4168618266979 L 156.97315756761824,66.4168618266979 L 157.00988512725456,66.4168618266979 L 158.4863688564004,66.4168618266979 L 158.5280949473238,66.4168618266979 L 158.5722755141839,66.4168618266979 L 160.03485651831616,66.4168618266979 L 160.07251570385546,66.4168618266979 L 160.11889992429371,66.4168618266979 L 161.57988641486128,66.4168618266979 L 161.61931927279275,66.4168618266979 L 161.65576017830512,66.4168618266979 L 163.13416090690512,66.4168618266979 L 163.17011808358322,66.4168618266979 L 164.68551511006078,66.4168618266979 L 164.71842658667148,66.4168618266979 L 166.227535138304,66.4168618266979 L 166.26478225854007,66.4168618266979 L 166.3090165730484,66.4168618266979 L 167.7734608289866,66.4168618266979 L 167.82049002120385,66.4168618266979 L 169.32468962096303,66.4168618266979 L 169.3566873875535,66.4168618266979 L 169.39886137554566,66.4168618266979 L 170.86918204102568,66.4168618266979 L 170.9080953383574,66.4168618266979 L 170.9523475687485,66.4168618266979 L 172.41285033048183,66.4168618266979 L 172.45041993660737,66.4168618266979 L 172.48223854437038,66.4168618266979 L 173.9660140377952,66.4168618266979 L 174.0092629787523,66.4168618266979 L 175.51500334442795,66.4168618266979 L 175.5538091464632,66.4168618266979 L 177.0631326886887,66.4168618266979 L 177.10168766836549,66.4168618266979 L 178.61067080881878,66.4168618266979 L 178.6488495549578,66.4168618266979 L 180.15313873413072,66.4168618266979 L 180.1884330231471,66.4168618266979 L 180.21923042559337,66.4168618266979 L 181.70922273033224,66.4168618266979 L 181.74492908465186,66.4168618266979 L 183.25471843982885,66.4168618266979 L 183.2926105318439,66.4168618266979 L 183.33333333333334,66.4168618266979" stroke="#3b82f6" stroke-width="4" fill="none" opacity="0.4" stroke-dasharray="14250" stroke-dashoffset="14250">
      <animate attributeName="stroke-dashoffset" values="14250;0" dur="3s" begin="3.0999999999999996s" fill="freeze"/>
    </path>
    
    <!-- Animated circle that moves along the path and draws the line -->
    <circle r="5" fill="#3b82f6" opacity="0" filter="url(#trailGlow)">
      <animate attributeName="opacity" values="0;1;1;1" dur="3.2s" begin="2.9s" fill="freeze"/>
      <animate attributeName="r" values="5;6;5" dur="1s" begin="2.9s" repeatCount="3"/>
      <animateMotion dur="3s" begin="2.9s" fill="freeze">
        <mpath href="#path_publicContributions_293.33333333333337"/>
      </animateMotion>
    </circle>
    
    <!-- Small trail dots that fade out -->
    <circle r="2" fill="#3b82f6" opacity="0">
      <animate attributeName="opacity" values="0;0.6;0" dur="0.8s" begin="3.3s" fill="freeze"/>
      <animateMotion dur="3s" begin="2.9s" fill="freeze">
        <mpath href="#path_publicContributions_293.33333333333337"/>
      </animateMotion>
    </circle>
    
    <!-- Hidden path for motion animation -->
    <path id="path_publicContributions_293.33333333333337" d="M 30,160 L 30.027662122965115,160 L 30.064085112594704,160 L 31.552249997293146,160 L 31.57584521487414,160 L 31.60490477669371,160 L 33.09887440740297,160 L 33.1323771081444,160 L 33.163747818838644,160 L 34.645910882816025,160 L 34.67606331348331,160 L 34.70992433187973,160 L 36.19165741467113,160 L 36.22105737826294,160 L 36.25420176134938,160 L 37.74281454311656,160 L 37.77029750725418,160 L 37.798407527288035,160 L 39.28899105615765,160 L 39.31677859030201,160 L 39.35017379574694,160 L 40.82801913198171,160 L 40.86481835514904,160 L 40.8956874211263,160 L 42.38403146465224,160 L 42.40576343042729,160 L 42.444837970703794,160 L 43.93380907012596,160 L 43.966469724378165,160 L 44.000886135139815,160 L 45.48394499325467,160 L 45.51382868568072,160 L 45.54548605049895,160 L 47.0227043308375,160 L 47.05516791037946,160 L 47.087541910507674,160 L 48.57542014108213,160 L 48.60580547822515,160 L 48.64052645899355,160 L 50.12383613946689,160 L 50.15180283243875,160 L 50.18267189841602,160 L 51.67289710963064,160 L 51.692819571247995,160 L 51.74172993115394,160 L 53.218195744417,160 L 53.24834817508429,160 L 53.27808854044834,160 L 54.76899455520744,160 L 54.8032318071416,160 L 54.83438752724285,160 L 56.3161743576825,160 L 56.346326788349785,160 L 56.38108360088367,160 L 57.8619925530686,160 L 57.891625423136155,160 L 57.91862465843954,160 L 59.41227180325931,160 L 59.44289004687808,160 L 59.474422000517066,160 L 60.96486220232469,160 L 60.993670941785766,160 L 61.02208553182636,160 L 62.50698972586441,160 L 62.537787128310676,40 L 62.5698744743149,40 L 64.060708825543,40 L 64.08208247366306,40 L 64.11155410078588,40 L 65.60477126441967,40 L 65.6286710520074,40 L 65.6710779464753,40 L 67.15454886989338,40 L 67.18602707588413,40 L 67.21367128296649,40 L 68.69621058048162,40 L 68.73069865477427,40 L 68.76447009375693,40 L 70.25367409965484,40 L 70.26893843175735,40 L 70.31030620502578,40 L 71.79850692148972,40 L 71.83113174397643,40 L 71.867984714792,40 L 73.3465646022195,40 L 73.37730825701752,40 L 73.4167052831835,40 L 74.89211405936436,40 L 74.92481054538206,40 L 74.9629534597556,40 L 76.44862803675187,40 L 76.48505102638146,40 L 77.9906122332296,40 L 78.06720263198338,40 L 79.53879532513861,40 L 79.57686657598114,40 L 79.61300291148675,40 L 81.0863513611514,40 L 81.12646502262737,40 L 81.15407339794425,40 L 82.63756223724508,40 L 82.6711366015175,40 L 82.7088316188223,40 L 84.1800480784398,40 L 84.21360452682947,40 L 84.25135329178251,40 L 85.73034524451325,40 L 85.76332838465494,40 L 85.79871225308506,40 L 87.28374185830236,40 L 87.32708037867322,40 L 88.86591137978704,40 L 88.90693875128323,40 L 90.38309999453955,40 L 90.41692518117048,40 L 91.93508125359145,40 L 91.96388999305253,40 L 92.01133125057302,40 L 93.47115320876188,40 L 93.5041184330208,40 L 93.53941272203718,40 L 95.02094873011835,40 L 95.0599336909811,40 L 95.09906197890585,40 L 96.56613986960821,40 L 96.5977434867782,40 L 96.63615513939298,40 L 98.11281802736627,40 L 98.14873937227888,40 L 98.19569690096513,40 L 99.65596675622271,40 L 99.69685080065692,40 L 99.7364269856504,40 L 101.21104746299027,40 L 101.24394102371822,40 L 101.28149271396101,40 L 102.7589439007753,40 L 102.79223161092374,40 L 102.83060743177302,40 L 104.3048695914579,40 L 104.34346040290016,40 L 104.38504316676159,40 L 105.85436054280764,40 L 105.88508628172289,40 L 105.92211841136596,40 L 107.40365441944712,40 L 107.43122696299848,40 L 107.46888614853778,40 L 108.94771685832377,40 L 108.98306489498839,40 L 109.02210360349939,40 L 110.49670616495652,40 L 110.53422202343383,40 L 110.57412069431679,40 L 112.04879491930491,40 L 112.07593748167031,40 L 112.11476119958832,40 L 113.59543724529749,40 L 113.63200356198908,40 L 113.66461046859304,40 L 115.13869346945043,40 L 115.17216033842637,40 L 115.21069740222038,40 L 116.68393835658854,40 L 116.72453574689874,40 L 116.76167537183832,40 L 118.23531047562697,40 L 118.26594663512849,40 L 118.30034513000739,40 L 119.78938789296055,40 L 119.8267783402586,40 L 119.86886274883702,40 L 121.33608396660136,40 L 121.3694791720463,40 L 121.40287437749123,40 L 122.88052263901577,40 L 122.91760851630708,40 L 122.9540852535849,40 L 124.42184394783176,40 L 124.46211885225247,40 L 124.50045884133625,40 L 125.96854002147258,40 L 126.00879701001054,40 L 126.05297757687063,40 L 127.53094832428465,40 L 127.56296400675787,40 L 127.6043676117918,40 L 129.0750107631613,40 L 129.1026728861264,40 L 129.13773426866703,40 L 130.6185536414382,40 L 130.6551557898953,40 L 130.69227749895214,40 L 132.167256293947,40 L 132.19921822877194,40 L 132.2405501702749,40 L 133.71484816172529,40 L 133.74700717126052,40 L 133.7850963379858,40 L 135.26326416011005,40 L 135.2947781978663,40 L 135.32890795450396,40 L 136.80949442079938,66.4168618266979 L 136.83932436557717,66.4168618266979 L 138.3561904944402,66.4168618266979 L 138.39261348406978,66.4168618266979 L 138.4270119789487,66.4168618266979 L 139.9056993616727,66.4168618266979 L 139.9307815975219,66.4168618266979 L 139.97347514611377,66.4168618266979 L 141.4620341802327,66.4168618266979 L 141.49987252459948,66.4168618266979 L 143.00240594726296,66.4168618266979 L 143.0418208893117,66.4168618266979 L 143.09327530456807,66.4168618266979 L 144.55264936568818,66.4168618266979 L 144.5912222612477,66.4168618266979 L 144.6149608058907,66.4168618266979 L 146.1026061299894,66.4168618266979 L 146.13847372725377,66.4168618266979 L 146.1762941557378,66.4168618266979 L 147.6514700254429,66.4168618266979 L 147.6856535297288,66.4168618266979 L 147.7244055841158,66.4168618266979 L 149.19773611789773,66.4168618266979 L 149.228461856813,66.4168618266979 L 149.26708850002078,66.4168618266979 L 150.74552506038629,66.4168618266979 L 150.77802447169373,66.4168618266979 L 150.8099505747532,66.4168618266979 L 152.29291985345432,66.4168618266979 L 152.33004156251113,66.4168618266979 L 152.37110476577283,66.4168618266979 L 153.84393365483777,66.4168618266979 L 153.88035664446733,66.4168618266979 L 153.92487761309968,66.4168618266979 L 155.38246008594484,66.4168618266979 L 155.41979678559466,66.4168618266979 L 155.46272324066229,66.4168618266979 L 156.93752287682963,66.4168618266979 L 156.97315756761824,66.4168618266979 L 157.00988512725456,66.4168618266979 L 158.4863688564004,66.4168618266979 L 158.5280949473238,66.4168618266979 L 158.5722755141839,66.4168618266979 L 160.03485651831616,66.4168618266979 L 160.07251570385546,66.4168618266979 L 160.11889992429371,66.4168618266979 L 161.57988641486128,66.4168618266979 L 161.61931927279275,66.4168618266979 L 161.65576017830512,66.4168618266979 L 163.13416090690512,66.4168618266979 L 163.17011808358322,66.4168618266979 L 164.68551511006078,66.4168618266979 L 164.71842658667148,66.4168618266979 L 166.227535138304,66.4168618266979 L 166.26478225854007,66.4168618266979 L 166.3090165730484,66.4168618266979 L 167.7734608289866,66.4168618266979 L 167.82049002120385,66.4168618266979 L 169.32468962096303,66.4168618266979 L 169.3566873875535,66.4168618266979 L 169.39886137554566,66.4168618266979 L 170.86918204102568,66.4168618266979 L 170.9080953383574,66.4168618266979 L 170.9523475687485,66.4168618266979 L 172.41285033048183,66.4168618266979 L 172.45041993660737,66.4168618266979 L 172.48223854437038,66.4168618266979 L 173.9660140377952,66.4168618266979 L 174.0092629787523,66.4168618266979 L 175.51500334442795,66.4168618266979 L 175.5538091464632,66.4168618266979 L 177.0631326886887,66.4168618266979 L 177.10168766836549,66.4168618266979 L 178.61067080881878,66.4168618266979 L 178.6488495549578,66.4168618266979 L 180.15313873413072,66.4168618266979 L 180.1884330231471,66.4168618266979 L 180.21923042559337,66.4168618266979 L 181.70922273033224,66.4168618266979 L 181.74492908465186,66.4168618266979 L 183.25471843982885,66.4168618266979 L 183.2926105318439,66.4168618266979 L 183.33333333333334,66.4168618266979" fill="none" stroke="none"/>
  </g>
  <!-- 📊 Total Contributions Chart -->
  <g transform="translate(526.6666666666667, 250)">
    <!-- Chart Background -->
    <rect x="0" y="0" width="213.33333333333334" height="200" fill="#ffffff" stroke="#e2e8f0" stroke-width="1" rx="8" filter="url(#shadow)">
      <animate attributeName="opacity" values="0;1" dur="0.5s" begin="2.8s" fill="freeze"/>
    </rect>
    
    <!-- Chart Title -->
    <text x="106.66666666666667" y="25" text-anchor="middle" fill="#1e293b" font-size="14" font-weight="bold" font-family="Arial, sans-serif">
      📊 Total Contributions
      <animate attributeName="opacity" values="0;1" dur="0.5s" begin="3s" fill="freeze"/>
    </text>
    
    <!-- Y-axis labels -->
    <text x="10" y="45" fill="#64748b" font-size="10" font-family="Arial, sans-serif">5,314
      <animate attributeName="opacity" values="0;1" dur="0.5s" begin="3.1999999999999997s" fill="freeze"/>
    </text>
    <text x="10" y="185" fill="#64748b" font-size="10" font-family="Arial, sans-serif">4,917
      <animate attributeName="opacity" values="0;1" dur="0.5s" begin="3.1999999999999997s" fill="freeze"/>
    </text>
    
    <!-- Chart Line with draw animation that follows the circle -->
    <path d="M 30,160 L 30.027662122965115,160 L 30.064085112594704,160 L 31.552249997293146,160 L 31.57584521487414,160 L 31.60490477669371,160 L 33.09887440740297,160 L 33.1323771081444,160 L 33.163747818838644,160 L 34.645910882816025,160 L 34.67606331348331,160 L 34.70992433187973,160 L 36.19165741467113,160 L 36.22105737826294,160 L 36.25420176134938,160 L 37.74281454311656,160 L 37.77029750725418,160 L 37.798407527288035,160 L 39.28899105615765,160 L 39.31677859030201,160 L 39.35017379574694,160 L 40.82801913198171,160 L 40.86481835514904,160 L 40.8956874211263,160 L 42.38403146465224,160 L 42.40576343042729,160 L 42.444837970703794,160 L 43.93380907012596,160 L 43.966469724378165,160 L 44.000886135139815,160 L 45.48394499325467,160 L 45.51382868568072,160 L 45.54548605049895,160 L 47.0227043308375,160 L 47.05516791037946,160 L 47.087541910507674,160 L 48.57542014108213,160 L 48.60580547822515,160 L 48.64052645899355,160 L 50.12383613946689,160 L 50.15180283243875,160 L 50.18267189841602,160 L 51.67289710963064,160 L 51.692819571247995,160 L 51.74172993115394,160 L 53.218195744417,160 L 53.24834817508429,160 L 53.27808854044834,160 L 54.76899455520744,160 L 54.8032318071416,160 L 54.83438752724285,160 L 56.3161743576825,160 L 56.346326788349785,160 L 56.38108360088367,160 L 57.8619925530686,160 L 57.891625423136155,160 L 57.91862465843954,160 L 59.41227180325931,160 L 59.44289004687808,160 L 59.474422000517066,160 L 60.96486220232469,160 L 60.993670941785766,160 L 61.02208553182636,160 L 62.50698972586441,160 L 62.537787128310676,40 L 62.5698744743149,40 L 64.060708825543,40 L 64.08208247366306,40 L 64.11155410078588,40 L 65.60477126441967,40 L 65.6286710520074,40 L 65.6710779464753,40 L 67.15454886989338,40 L 67.18602707588413,40 L 67.21367128296649,40 L 68.69621058048162,40 L 68.73069865477427,40 L 68.76447009375693,40 L 70.25367409965484,40 L 70.26893843175735,40 L 70.31030620502578,40 L 71.79850692148972,40 L 71.83113174397643,40 L 71.867984714792,40 L 73.3465646022195,40 L 73.37730825701752,40 L 73.4167052831835,40 L 74.89211405936436,40 L 74.92481054538206,40 L 74.9629534597556,40 L 76.44862803675187,40 L 76.48505102638146,40 L 77.9906122332296,40 L 78.06720263198338,40 L 79.53879532513861,40 L 79.57686657598114,40 L 79.61300291148675,40 L 81.0863513611514,40 L 81.12646502262737,40 L 81.15407339794425,40 L 82.63756223724508,40 L 82.6711366015175,40 L 82.7088316188223,40 L 84.1800480784398,40 L 84.21360452682947,40 L 84.25135329178251,40 L 85.73034524451325,40 L 85.76332838465494,40 L 85.79871225308506,40 L 87.28374185830236,40 L 87.32708037867322,40 L 88.86591137978704,40 L 88.90693875128323,40 L 90.38309999453955,40 L 90.41692518117048,40 L 91.93508125359145,40 L 91.96388999305253,40 L 92.01133125057302,40 L 93.47115320876188,40 L 93.5041184330208,40 L 93.53941272203718,40 L 95.02094873011835,40 L 95.0599336909811,40 L 95.09906197890585,40 L 96.56613986960821,40 L 96.5977434867782,40 L 96.63615513939298,40 L 98.11281802736627,40 L 98.14873937227888,40 L 98.19569690096513,40 L 99.65596675622271,40 L 99.69685080065692,40 L 99.7364269856504,40 L 101.21104746299027,40 L 101.24394102371822,40 L 101.28149271396101,40 L 102.7589439007753,40 L 102.79223161092374,40 L 102.83060743177302,40 L 104.3048695914579,40 L 104.34346040290016,40 L 104.38504316676159,40 L 105.85436054280764,40 L 105.88508628172289,40 L 105.92211841136596,40 L 107.40365441944712,40 L 107.43122696299848,40 L 107.46888614853778,40 L 108.94771685832377,40 L 108.98306489498839,40 L 109.02210360349939,40 L 110.49670616495652,40 L 110.53422202343383,40 L 110.57412069431679,40 L 112.04879491930491,40 L 112.07593748167031,40 L 112.11476119958832,40 L 113.59543724529749,40 L 113.63200356198908,40 L 113.66461046859304,40 L 115.13869346945043,40 L 115.17216033842637,40 L 115.21069740222038,40 L 116.68393835658854,40 L 116.72453574689874,40 L 116.76167537183832,40 L 118.23531047562697,40 L 118.26594663512849,40 L 118.30034513000739,40 L 119.78938789296055,40 L 119.8267783402586,40 L 119.86886274883702,40 L 121.33608396660136,40 L 121.3694791720463,40 L 121.40287437749123,40 L 122.88052263901577,40 L 122.91760851630708,40 L 122.9540852535849,40 L 124.42184394783176,40 L 124.46211885225247,40 L 124.50045884133625,40 L 125.96854002147258,40 L 126.00879701001054,40 L 126.05297757687063,40 L 127.53094832428465,40 L 127.56296400675787,40 L 127.6043676117918,40 L 129.0750107631613,40 L 129.1026728861264,40 L 129.13773426866703,40 L 130.6185536414382,40 L 130.6551557898953,40 L 130.69227749895214,40 L 132.167256293947,40 L 132.19921822877194,40 L 132.2405501702749,40 L 133.71484816172529,40 L 133.74700717126052,40 L 133.7850963379858,40 L 135.26326416011005,40 L 135.2947781978663,40 L 135.32890795450396,40 L 136.80949442079938,72.04030226700252 L 136.83932436557717,72.04030226700252 L 138.3561904944402,72.04030226700252 L 138.39261348406978,72.04030226700252 L 138.4270119789487,72.04030226700252 L 139.9056993616727,72.04030226700252 L 139.9307815975219,72.04030226700252 L 139.97347514611377,72.04030226700252 L 141.4620341802327,72.04030226700252 L 141.49987252459948,72.04030226700252 L 143.00240594726296,72.04030226700252 L 143.0418208893117,72.04030226700252 L 143.09327530456807,72.04030226700252 L 144.55264936568818,72.04030226700252 L 144.5912222612477,72.04030226700252 L 144.6149608058907,72.04030226700252 L 146.1026061299894,72.04030226700252 L 146.13847372725377,72.04030226700252 L 146.1762941557378,72.04030226700252 L 147.6514700254429,72.04030226700252 L 147.6856535297288,72.04030226700252 L 147.7244055841158,72.04030226700252 L 149.19773611789773,72.04030226700252 L 149.228461856813,72.04030226700252 L 149.26708850002078,72.04030226700252 L 150.74552506038629,72.04030226700252 L 150.77802447169373,72.04030226700252 L 150.8099505747532,72.04030226700252 L 152.29291985345432,72.04030226700252 L 152.33004156251113,72.04030226700252 L 152.37110476577283,72.04030226700252 L 153.84393365483777,72.04030226700252 L 153.88035664446733,72.04030226700252 L 153.92487761309968,72.04030226700252 L 155.38246008594484,72.04030226700252 L 155.41979678559466,72.04030226700252 L 155.46272324066229,72.04030226700252 L 156.93752287682963,72.04030226700252 L 156.97315756761824,72.04030226700252 L 157.00988512725456,72.04030226700252 L 158.4863688564004,72.04030226700252 L 158.5280949473238,72.04030226700252 L 158.5722755141839,72.04030226700252 L 160.03485651831616,72.04030226700252 L 160.07251570385546,72.04030226700252 L 160.11889992429371,72.04030226700252 L 161.57988641486128,72.04030226700252 L 161.61931927279275,72.04030226700252 L 161.65576017830512,72.04030226700252 L 163.13416090690512,72.04030226700252 L 163.17011808358322,72.04030226700252 L 164.68551511006078,72.04030226700252 L 164.71842658667148,72.04030226700252 L 166.227535138304,72.04030226700252 L 166.26478225854007,72.04030226700252 L 166.3090165730484,72.04030226700252 L 167.7734608289866,72.04030226700252 L 167.82049002120385,72.04030226700252 L 169.32468962096303,72.04030226700252 L 169.3566873875535,72.04030226700252 L 169.39886137554566,72.04030226700252 L 170.86918204102568,72.04030226700252 L 170.9080953383574,72.04030226700252 L 170.9523475687485,72.04030226700252 L 172.41285033048183,72.04030226700252 L 172.45041993660737,72.04030226700252 L 172.48223854437038,72.04030226700252 L 173.9660140377952,72.04030226700252 L 174.0092629787523,72.04030226700252 L 175.51500334442795,72.04030226700252 L 175.5538091464632,72.04030226700252 L 177.0631326886887,72.04030226700252 L 177.10168766836549,72.04030226700252 L 178.61067080881878,72.04030226700252 L 178.6488495549578,72.04030226700252 L 180.15313873413072,72.04030226700252 L 180.1884330231471,72.04030226700252 L 180.21923042559337,72.04030226700252 L 181.70922273033224,72.04030226700252 L 181.74492908465186,72.04030226700252 L 183.25471843982885,72.04030226700252 L 183.2926105318439,72.04030226700252 L 183.33333333333334,72.04030226700252" stroke="#f59e0b" stroke-width="2" fill="none" stroke-dasharray="14250" stroke-dashoffset="14250">
      <animate attributeName="stroke-dashoffset" values="14250;0" dur="3s" begin="3.5999999999999996s" fill="freeze"/>
    </path>
    
    <!-- Glow effect for the line that also follows the circle -->
    <path d="M 30,160 L 30.027662122965115,160 L 30.064085112594704,160 L 31.552249997293146,160 L 31.57584521487414,160 L 31.60490477669371,160 L 33.09887440740297,160 L 33.1323771081444,160 L 33.163747818838644,160 L 34.645910882816025,160 L 34.67606331348331,160 L 34.70992433187973,160 L 36.19165741467113,160 L 36.22105737826294,160 L 36.25420176134938,160 L 37.74281454311656,160 L 37.77029750725418,160 L 37.798407527288035,160 L 39.28899105615765,160 L 39.31677859030201,160 L 39.35017379574694,160 L 40.82801913198171,160 L 40.86481835514904,160 L 40.8956874211263,160 L 42.38403146465224,160 L 42.40576343042729,160 L 42.444837970703794,160 L 43.93380907012596,160 L 43.966469724378165,160 L 44.000886135139815,160 L 45.48394499325467,160 L 45.51382868568072,160 L 45.54548605049895,160 L 47.0227043308375,160 L 47.05516791037946,160 L 47.087541910507674,160 L 48.57542014108213,160 L 48.60580547822515,160 L 48.64052645899355,160 L 50.12383613946689,160 L 50.15180283243875,160 L 50.18267189841602,160 L 51.67289710963064,160 L 51.692819571247995,160 L 51.74172993115394,160 L 53.218195744417,160 L 53.24834817508429,160 L 53.27808854044834,160 L 54.76899455520744,160 L 54.8032318071416,160 L 54.83438752724285,160 L 56.3161743576825,160 L 56.346326788349785,160 L 56.38108360088367,160 L 57.8619925530686,160 L 57.891625423136155,160 L 57.91862465843954,160 L 59.41227180325931,160 L 59.44289004687808,160 L 59.474422000517066,160 L 60.96486220232469,160 L 60.993670941785766,160 L 61.02208553182636,160 L 62.50698972586441,160 L 62.537787128310676,40 L 62.5698744743149,40 L 64.060708825543,40 L 64.08208247366306,40 L 64.11155410078588,40 L 65.60477126441967,40 L 65.6286710520074,40 L 65.6710779464753,40 L 67.15454886989338,40 L 67.18602707588413,40 L 67.21367128296649,40 L 68.69621058048162,40 L 68.73069865477427,40 L 68.76447009375693,40 L 70.25367409965484,40 L 70.26893843175735,40 L 70.31030620502578,40 L 71.79850692148972,40 L 71.83113174397643,40 L 71.867984714792,40 L 73.3465646022195,40 L 73.37730825701752,40 L 73.4167052831835,40 L 74.89211405936436,40 L 74.92481054538206,40 L 74.9629534597556,40 L 76.44862803675187,40 L 76.48505102638146,40 L 77.9906122332296,40 L 78.06720263198338,40 L 79.53879532513861,40 L 79.57686657598114,40 L 79.61300291148675,40 L 81.0863513611514,40 L 81.12646502262737,40 L 81.15407339794425,40 L 82.63756223724508,40 L 82.6711366015175,40 L 82.7088316188223,40 L 84.1800480784398,40 L 84.21360452682947,40 L 84.25135329178251,40 L 85.73034524451325,40 L 85.76332838465494,40 L 85.79871225308506,40 L 87.28374185830236,40 L 87.32708037867322,40 L 88.86591137978704,40 L 88.90693875128323,40 L 90.38309999453955,40 L 90.41692518117048,40 L 91.93508125359145,40 L 91.96388999305253,40 L 92.01133125057302,40 L 93.47115320876188,40 L 93.5041184330208,40 L 93.53941272203718,40 L 95.02094873011835,40 L 95.0599336909811,40 L 95.09906197890585,40 L 96.56613986960821,40 L 96.5977434867782,40 L 96.63615513939298,40 L 98.11281802736627,40 L 98.14873937227888,40 L 98.19569690096513,40 L 99.65596675622271,40 L 99.69685080065692,40 L 99.7364269856504,40 L 101.21104746299027,40 L 101.24394102371822,40 L 101.28149271396101,40 L 102.7589439007753,40 L 102.79223161092374,40 L 102.83060743177302,40 L 104.3048695914579,40 L 104.34346040290016,40 L 104.38504316676159,40 L 105.85436054280764,40 L 105.88508628172289,40 L 105.92211841136596,40 L 107.40365441944712,40 L 107.43122696299848,40 L 107.46888614853778,40 L 108.94771685832377,40 L 108.98306489498839,40 L 109.02210360349939,40 L 110.49670616495652,40 L 110.53422202343383,40 L 110.57412069431679,40 L 112.04879491930491,40 L 112.07593748167031,40 L 112.11476119958832,40 L 113.59543724529749,40 L 113.63200356198908,40 L 113.66461046859304,40 L 115.13869346945043,40 L 115.17216033842637,40 L 115.21069740222038,40 L 116.68393835658854,40 L 116.72453574689874,40 L 116.76167537183832,40 L 118.23531047562697,40 L 118.26594663512849,40 L 118.30034513000739,40 L 119.78938789296055,40 L 119.8267783402586,40 L 119.86886274883702,40 L 121.33608396660136,40 L 121.3694791720463,40 L 121.40287437749123,40 L 122.88052263901577,40 L 122.91760851630708,40 L 122.9540852535849,40 L 124.42184394783176,40 L 124.46211885225247,40 L 124.50045884133625,40 L 125.96854002147258,40 L 126.00879701001054,40 L 126.05297757687063,40 L 127.53094832428465,40 L 127.56296400675787,40 L 127.6043676117918,40 L 129.0750107631613,40 L 129.1026728861264,40 L 129.13773426866703,40 L 130.6185536414382,40 L 130.6551557898953,40 L 130.69227749895214,40 L 132.167256293947,40 L 132.19921822877194,40 L 132.2405501702749,40 L 133.71484816172529,40 L 133.74700717126052,40 L 133.7850963379858,40 L 135.26326416011005,40 L 135.2947781978663,40 L 135.32890795450396,40 L 136.80949442079938,72.04030226700252 L 136.83932436557717,72.04030226700252 L 138.3561904944402,72.04030226700252 L 138.39261348406978,72.04030226700252 L 138.4270119789487,72.04030226700252 L 139.9056993616727,72.04030226700252 L 139.9307815975219,72.04030226700252 L 139.97347514611377,72.04030226700252 L 141.4620341802327,72.04030226700252 L 141.49987252459948,72.04030226700252 L 143.00240594726296,72.04030226700252 L 143.0418208893117,72.04030226700252 L 143.09327530456807,72.04030226700252 L 144.55264936568818,72.04030226700252 L 144.5912222612477,72.04030226700252 L 144.6149608058907,72.04030226700252 L 146.1026061299894,72.04030226700252 L 146.13847372725377,72.04030226700252 L 146.1762941557378,72.04030226700252 L 147.6514700254429,72.04030226700252 L 147.6856535297288,72.04030226700252 L 147.7244055841158,72.04030226700252 L 149.19773611789773,72.04030226700252 L 149.228461856813,72.04030226700252 L 149.26708850002078,72.04030226700252 L 150.74552506038629,72.04030226700252 L 150.77802447169373,72.04030226700252 L 150.8099505747532,72.04030226700252 L 152.29291985345432,72.04030226700252 L 152.33004156251113,72.04030226700252 L 152.37110476577283,72.04030226700252 L 153.84393365483777,72.04030226700252 L 153.88035664446733,72.04030226700252 L 153.92487761309968,72.04030226700252 L 155.38246008594484,72.04030226700252 L 155.41979678559466,72.04030226700252 L 155.46272324066229,72.04030226700252 L 156.93752287682963,72.04030226700252 L 156.97315756761824,72.04030226700252 L 157.00988512725456,72.04030226700252 L 158.4863688564004,72.04030226700252 L 158.5280949473238,72.04030226700252 L 158.5722755141839,72.04030226700252 L 160.03485651831616,72.04030226700252 L 160.07251570385546,72.04030226700252 L 160.11889992429371,72.04030226700252 L 161.57988641486128,72.04030226700252 L 161.61931927279275,72.04030226700252 L 161.65576017830512,72.04030226700252 L 163.13416090690512,72.04030226700252 L 163.17011808358322,72.04030226700252 L 164.68551511006078,72.04030226700252 L 164.71842658667148,72.04030226700252 L 166.227535138304,72.04030226700252 L 166.26478225854007,72.04030226700252 L 166.3090165730484,72.04030226700252 L 167.7734608289866,72.04030226700252 L 167.82049002120385,72.04030226700252 L 169.32468962096303,72.04030226700252 L 169.3566873875535,72.04030226700252 L 169.39886137554566,72.04030226700252 L 170.86918204102568,72.04030226700252 L 170.9080953383574,72.04030226700252 L 170.9523475687485,72.04030226700252 L 172.41285033048183,72.04030226700252 L 172.45041993660737,72.04030226700252 L 172.48223854437038,72.04030226700252 L 173.9660140377952,72.04030226700252 L 174.0092629787523,72.04030226700252 L 175.51500334442795,72.04030226700252 L 175.5538091464632,72.04030226700252 L 177.0631326886887,72.04030226700252 L 177.10168766836549,72.04030226700252 L 178.61067080881878,72.04030226700252 L 178.6488495549578,72.04030226700252 L 180.15313873413072,72.04030226700252 L 180.1884330231471,72.04030226700252 L 180.21923042559337,72.04030226700252 L 181.70922273033224,72.04030226700252 L 181.74492908465186,72.04030226700252 L 183.25471843982885,72.04030226700252 L 183.2926105318439,72.04030226700252 L 183.33333333333334,72.04030226700252" stroke="#f59e0b" stroke-width="4" fill="none" opacity="0.4" stroke-dasharray="14250" stroke-dashoffset="14250">
      <animate attributeName="stroke-dashoffset" values="14250;0" dur="3s" begin="3.5999999999999996s" fill="freeze"/>
    </path>
    
    <!-- Animated circle that moves along the path and draws the line -->
    <circle r="5" fill="#f59e0b" opacity="0" filter="url(#trailGlow)">
      <animate attributeName="opacity" values="0;1;1;1" dur="3.2s" begin="3.4s" fill="freeze"/>
      <animate attributeName="r" values="5;6;5" dur="1s" begin="3.4s" repeatCount="3"/>
      <animateMotion dur="3s" begin="3.4s" fill="freeze">
        <mpath href="#path_totalContributions_526.6666666666667"/>
      </animateMotion>
    </circle>
    
    <!-- Small trail dots that fade out -->
    <circle r="2" fill="#f59e0b" opacity="0">
      <animate attributeName="opacity" values="0;0.6;0" dur="0.8s" begin="3.8s" fill="freeze"/>
      <animateMotion dur="3s" begin="3.4s" fill="freeze">
        <mpath href="#path_totalContributions_526.6666666666667"/>
      </animateMotion>
    </circle>
    
    <!-- Hidden path for motion animation -->
    <path id="path_totalContributions_526.6666666666667" d="M 30,160 L 30.027662122965115,160 L 30.064085112594704,160 L 31.552249997293146,160 L 31.57584521487414,160 L 31.60490477669371,160 L 33.09887440740297,160 L 33.1323771081444,160 L 33.163747818838644,160 L 34.645910882816025,160 L 34.67606331348331,160 L 34.70992433187973,160 L 36.19165741467113,160 L 36.22105737826294,160 L 36.25420176134938,160 L 37.74281454311656,160 L 37.77029750725418,160 L 37.798407527288035,160 L 39.28899105615765,160 L 39.31677859030201,160 L 39.35017379574694,160 L 40.82801913198171,160 L 40.86481835514904,160 L 40.8956874211263,160 L 42.38403146465224,160 L 42.40576343042729,160 L 42.444837970703794,160 L 43.93380907012596,160 L 43.966469724378165,160 L 44.000886135139815,160 L 45.48394499325467,160 L 45.51382868568072,160 L 45.54548605049895,160 L 47.0227043308375,160 L 47.05516791037946,160 L 47.087541910507674,160 L 48.57542014108213,160 L 48.60580547822515,160 L 48.64052645899355,160 L 50.12383613946689,160 L 50.15180283243875,160 L 50.18267189841602,160 L 51.67289710963064,160 L 51.692819571247995,160 L 51.74172993115394,160 L 53.218195744417,160 L 53.24834817508429,160 L 53.27808854044834,160 L 54.76899455520744,160 L 54.8032318071416,160 L 54.83438752724285,160 L 56.3161743576825,160 L 56.346326788349785,160 L 56.38108360088367,160 L 57.8619925530686,160 L 57.891625423136155,160 L 57.91862465843954,160 L 59.41227180325931,160 L 59.44289004687808,160 L 59.474422000517066,160 L 60.96486220232469,160 L 60.993670941785766,160 L 61.02208553182636,160 L 62.50698972586441,160 L 62.537787128310676,40 L 62.5698744743149,40 L 64.060708825543,40 L 64.08208247366306,40 L 64.11155410078588,40 L 65.60477126441967,40 L 65.6286710520074,40 L 65.6710779464753,40 L 67.15454886989338,40 L 67.18602707588413,40 L 67.21367128296649,40 L 68.69621058048162,40 L 68.73069865477427,40 L 68.76447009375693,40 L 70.25367409965484,40 L 70.26893843175735,40 L 70.31030620502578,40 L 71.79850692148972,40 L 71.83113174397643,40 L 71.867984714792,40 L 73.3465646022195,40 L 73.37730825701752,40 L 73.4167052831835,40 L 74.89211405936436,40 L 74.92481054538206,40 L 74.9629534597556,40 L 76.44862803675187,40 L 76.48505102638146,40 L 77.9906122332296,40 L 78.06720263198338,40 L 79.53879532513861,40 L 79.57686657598114,40 L 79.61300291148675,40 L 81.0863513611514,40 L 81.12646502262737,40 L 81.15407339794425,40 L 82.63756223724508,40 L 82.6711366015175,40 L 82.7088316188223,40 L 84.1800480784398,40 L 84.21360452682947,40 L 84.25135329178251,40 L 85.73034524451325,40 L 85.76332838465494,40 L 85.79871225308506,40 L 87.28374185830236,40 L 87.32708037867322,40 L 88.86591137978704,40 L 88.90693875128323,40 L 90.38309999453955,40 L 90.41692518117048,40 L 91.93508125359145,40 L 91.96388999305253,40 L 92.01133125057302,40 L 93.47115320876188,40 L 93.5041184330208,40 L 93.53941272203718,40 L 95.02094873011835,40 L 95.0599336909811,40 L 95.09906197890585,40 L 96.56613986960821,40 L 96.5977434867782,40 L 96.63615513939298,40 L 98.11281802736627,40 L 98.14873937227888,40 L 98.19569690096513,40 L 99.65596675622271,40 L 99.69685080065692,40 L 99.7364269856504,40 L 101.21104746299027,40 L 101.24394102371822,40 L 101.28149271396101,40 L 102.7589439007753,40 L 102.79223161092374,40 L 102.83060743177302,40 L 104.3048695914579,40 L 104.34346040290016,40 L 104.38504316676159,40 L 105.85436054280764,40 L 105.88508628172289,40 L 105.92211841136596,40 L 107.40365441944712,40 L 107.43122696299848,40 L 107.46888614853778,40 L 108.94771685832377,40 L 108.98306489498839,40 L 109.02210360349939,40 L 110.49670616495652,40 L 110.53422202343383,40 L 110.57412069431679,40 L 112.04879491930491,40 L 112.07593748167031,40 L 112.11476119958832,40 L 113.59543724529749,40 L 113.63200356198908,40 L 113.66461046859304,40 L 115.13869346945043,40 L 115.17216033842637,40 L 115.21069740222038,40 L 116.68393835658854,40 L 116.72453574689874,40 L 116.76167537183832,40 L 118.23531047562697,40 L 118.26594663512849,40 L 118.30034513000739,40 L 119.78938789296055,40 L 119.8267783402586,40 L 119.86886274883702,40 L 121.33608396660136,40 L 121.3694791720463,40 L 121.40287437749123,40 L 122.88052263901577,40 L 122.91760851630708,40 L 122.9540852535849,40 L 124.42184394783176,40 L 124.46211885225247,40 L 124.50045884133625,40 L 125.96854002147258,40 L 126.00879701001054,40 L 126.05297757687063,40 L 127.53094832428465,40 L 127.56296400675787,40 L 127.6043676117918,40 L 129.0750107631613,40 L 129.1026728861264,40 L 129.13773426866703,40 L 130.6185536414382,40 L 130.6551557898953,40 L 130.69227749895214,40 L 132.167256293947,40 L 132.19921822877194,40 L 132.2405501702749,40 L 133.71484816172529,40 L 133.74700717126052,40 L 133.7850963379858,40 L 135.26326416011005,40 L 135.2947781978663,40 L 135.32890795450396,40 L 136.80949442079938,72.04030226700252 L 136.83932436557717,72.04030226700252 L 138.3561904944402,72.04030226700252 L 138.39261348406978,72.04030226700252 L 138.4270119789487,72.04030226700252 L 139.9056993616727,72.04030226700252 L 139.9307815975219,72.04030226700252 L 139.97347514611377,72.04030226700252 L 141.4620341802327,72.04030226700252 L 141.49987252459948,72.04030226700252 L 143.00240594726296,72.04030226700252 L 143.0418208893117,72.04030226700252 L 143.09327530456807,72.04030226700252 L 144.55264936568818,72.04030226700252 L 144.5912222612477,72.04030226700252 L 144.6149608058907,72.04030226700252 L 146.1026061299894,72.04030226700252 L 146.13847372725377,72.04030226700252 L 146.1762941557378,72.04030226700252 L 147.6514700254429,72.04030226700252 L 147.6856535297288,72.04030226700252 L 147.7244055841158,72.04030226700252 L 149.19773611789773,72.04030226700252 L 149.228461856813,72.04030226700252 L 149.26708850002078,72.04030226700252 L 150.74552506038629,72.04030226700252 L 150.77802447169373,72.04030226700252 L 150.8099505747532,72.04030226700252 L 152.29291985345432,72.04030226700252 L 152.33004156251113,72.04030226700252 L 152.37110476577283,72.04030226700252 L 153.84393365483777,72.04030226700252 L 153.88035664446733,72.04030226700252 L 153.92487761309968,72.04030226700252 L 155.38246008594484,72.04030226700252 L 155.41979678559466,72.04030226700252 L 155.46272324066229,72.04030226700252 L 156.93752287682963,72.04030226700252 L 156.97315756761824,72.04030226700252 L 157.00988512725456,72.04030226700252 L 158.4863688564004,72.04030226700252 L 158.5280949473238,72.04030226700252 L 158.5722755141839,72.04030226700252 L 160.03485651831616,72.04030226700252 L 160.07251570385546,72.04030226700252 L 160.11889992429371,72.04030226700252 L 161.57988641486128,72.04030226700252 L 161.61931927279275,72.04030226700252 L 161.65576017830512,72.04030226700252 L 163.13416090690512,72.04030226700252 L 163.17011808358322,72.04030226700252 L 164.68551511006078,72.04030226700252 L 164.71842658667148,72.04030226700252 L 166.227535138304,72.04030226700252 L 166.26478225854007,72.04030226700252 L 166.3090165730484,72.04030226700252 L 167.7734608289866,72.04030226700252 L 167.82049002120385,72.04030226700252 L 169.32468962096303,72.04030226700252 L 169.3566873875535,72.04030226700252 L 169.39886137554566,72.04030226700252 L 170.86918204102568,72.04030226700252 L 170.9080953383574,72.04030226700252 L 170.9523475687485,72.04030226700252 L 172.41285033048183,72.04030226700252 L 172.45041993660737,72.04030226700252 L 172.48223854437038,72.04030226700252 L 173.9660140377952,72.04030226700252 L 174.0092629787523,72.04030226700252 L 175.51500334442795,72.04030226700252 L 175.5538091464632,72.04030226700252 L 177.0631326886887,72.04030226700252 L 177.10168766836549,72.04030226700252 L 178.61067080881878,72.04030226700252 L 178.6488495549578,72.04030226700252 L 180.15313873413072,72.04030226700252 L 180.1884330231471,72.04030226700252 L 180.21923042559337,72.04030226700252 L 181.70922273033224,72.04030226700252 L 181.74492908465186,72.04030226700252 L 183.25471843982885,72.04030226700252 L 183.2926105318439,72.04030226700252 L 183.33333333333334,72.04030226700252" fill="none" stroke="none"/>
  </g>
  
  <!-- Footer -->
  <text x="400" y="580" text-anchor="middle" fill="#94a3b8" font-size="12" font-family="Arial, sans-serif">
    Generated by GitHub User Rank Tracker • 4/11/2026
    <animate attributeName="opacity" values="0;1" dur="0.5s" begin="5s" fill="freeze"/>
  </text>
</svg>