<svg width="800" height="600" xmlns="http://www.w3.org/2000/svg">
  <defs>
    <linearGradient id="bgGradient" x1="0%" y1="0%" x2="100%" y2="100%">
      <stop offset="0%" style="stop-color:#f8fafc;stop-opacity:1" />
      <stop offset="100%" style="stop-color:#e2e8f0;stop-opacity:1" />
    </linearGradient>
    <filter id="shadow" x="-20%" y="-20%" width="140%" height="140%">
      <feDropShadow dx="2" dy="2" stdDeviation="3" flood-color="#00000020" flood-opacity="0.1"/>
    </filter>
    <!-- Trail effect filter -->
    <filter id="trailGlow" x="-50%" y="-50%" width="200%" height="200%">
      <feGaussianBlur stdDeviation="3" result="coloredBlur"/>
      <feMerge> 
        <feMergeNode in="coloredBlur"/>
        <feMergeNode in="SourceGraphic"/>
      </feMerge>
    </filter>
  </defs>
  
  <!-- Background -->
  <rect width="800" height="600" fill="url(#bgGradient)" rx="12"/>
  
  <!-- Header -->
  <text x="400" y="40" text-anchor="middle" fill="#0f172a" font-size="24" font-weight="bold" font-family="Arial, sans-serif">
    GitHub Progress Report
    <animate attributeName="opacity" values="0;1" dur="0.8s" begin="0s" fill="freeze"/>
    <animateTransform attributeName="transform" type="translate" values="0,-20;0,0" dur="0.8s" begin="0s" fill="freeze"/>
  </text>
  
  <!-- User Info -->
  <text x="400" y="70" text-anchor="middle" fill="#475569" font-size="16" font-family="Arial, sans-serif">
    @maifeeulasad • BANGLADESH • 100 days analyzed
    <animate attributeName="opacity" values="0;1" dur="0.6s" begin="0.3s" fill="freeze"/>
  </text>
  
  <!-- Progress Cards -->
  <!-- Followers Card -->
  <g transform="translate(60, 100)">
    <rect width="206.66666666666666" height="120" fill="#ffffff" stroke="#e2e8f0" stroke-width="1" rx="8" filter="url(#shadow)">
      <animate attributeName="opacity" values="0;1" dur="0.6s" begin="0.2s" fill="freeze"/>
      <animateTransform attributeName="transform" type="scale" values="0.8;1" dur="0.6s" begin="0.2s" fill="freeze"/>
    </rect>
    <text x="103.33333333333333" y="25" text-anchor="middle" fill="#64748b" font-size="14" font-weight="bold" font-family="Arial, sans-serif">FOLLOWERS
      <animate attributeName="opacity" values="0;1" dur="0.5s" begin="0.4s" fill="freeze"/>
    </text>
    
    <text x="103.33333333333333" y="50" text-anchor="middle" fill="#ef4444" font-size="32" font-weight="bold" font-family="Arial, sans-serif">
      ↘
      <animate attributeName="opacity" values="0;1" dur="0.5s" begin="0.6s" fill="freeze"/>
      <animateTransform attributeName="transform" type="scale" values="0;1.2;1" dur="0.8s" begin="0.6s" fill="freeze"/>
    </text>
    
    <text x="103.33333333333333" y="75" text-anchor="middle" fill="#1e293b" font-size="18" font-weight="bold" font-family="Arial, sans-serif">
      -15
      <animate attributeName="opacity" values="0;1" dur="0.5s" begin="0.8s" fill="freeze"/>
    </text>
    
    <text x="103.33333333333333" y="95" text-anchor="middle" fill="#64748b" font-size="12" font-family="Arial, sans-serif">
      #466 → #481
      <animate attributeName="opacity" values="0;1" dur="0.5s" begin="1s" fill="freeze"/>
    </text>
  </g>
  
  <!-- Public Contributions Card -->
  <g transform="translate(296.66666666666663, 100)">
    <rect width="206.66666666666666" height="120" fill="#ffffff" stroke="#e2e8f0" stroke-width="1" rx="8" filter="url(#shadow)">
      <animate attributeName="opacity" values="0;1" dur="0.6s" begin="0.4s" fill="freeze"/>
      <animateTransform attributeName="transform" type="scale" values="0.8;1" dur="0.6s" begin="0.4s" fill="freeze"/>
    </rect>
    <text x="103.33333333333333" y="25" text-anchor="middle" fill="#64748b" font-size="14" font-weight="bold" font-family="Arial, sans-serif">PUBLIC
      <animate attributeName="opacity" values="0;1" dur="0.5s" begin="0.6s" fill="freeze"/>
    </text>
    
    <text x="103.33333333333333" y="50" text-anchor="middle" fill="#6b7280" font-size="32" font-weight="bold" font-family="Arial, sans-serif">
      →
      <animate attributeName="opacity" values="0;1" dur="0.5s" begin="0.8s" fill="freeze"/>
      <animateTransform attributeName="transform" type="scale" values="0;1.2;1" dur="0.8s" begin="0.8s" fill="freeze"/>
    </text>
    
    <text x="103.33333333333333" y="75" text-anchor="middle" fill="#1e293b" font-size="18" font-weight="bold" font-family="Arial, sans-serif">
      0
      <animate attributeName="opacity" values="0;1" dur="0.5s" begin="1s" fill="freeze"/>
    </text>
    
    <text x="103.33333333333333" y="95" text-anchor="middle" fill="#64748b" font-size="12" font-family="Arial, sans-serif">
      #7 → #7
      <animate attributeName="opacity" values="0;1" dur="0.5s" begin="1.2s" fill="freeze"/>
    </text>
  </g>
  
  <!-- Total Contributions Card -->
  <g transform="translate(533.3333333333333, 100)">
    <rect width="206.66666666666666" height="120" fill="#ffffff" stroke="#e2e8f0" stroke-width="1" rx="8" filter="url(#shadow)">
      <animate attributeName="opacity" values="0;1" dur="0.6s" begin="0.6s" fill="freeze"/>
      <animateTransform attributeName="transform" type="scale" values="0.8;1" dur="0.6s" begin="0.6s" fill="freeze"/>
    </rect>
    <text x="103.33333333333333" y="25" text-anchor="middle" fill="#64748b" font-size="14" font-weight="bold" font-family="Arial, sans-serif">TOTAL
      <animate attributeName="opacity" values="0;1" dur="0.5s" begin="0.8s" fill="freeze"/>
    </text>
    
    <text x="103.33333333333333" y="50" text-anchor="middle" fill="#22c55e" font-size="32" font-weight="bold" font-family="Arial, sans-serif">
      ↗
      <animate attributeName="opacity" values="0;1" dur="0.5s" begin="1s" fill="freeze"/>
      <animateTransform attributeName="transform" type="scale" values="0;1.2;1" dur="0.8s" begin="1s" fill="freeze"/>
    </text>
    
    <text x="103.33333333333333" y="75" text-anchor="middle" fill="#1e293b" font-size="18" font-weight="bold" font-family="Arial, sans-serif">
      +3
      <animate attributeName="opacity" values="0;1" dur="0.5s" begin="1.2s" fill="freeze"/>
    </text>
    
    <text x="103.33333333333333" y="95" text-anchor="middle" fill="#64748b" font-size="12" font-family="Arial, sans-serif">
      #15 → #12
      <animate attributeName="opacity" values="0;1" dur="0.5s" begin="1.4s" fill="freeze"/>
    </text>
  </g>
  
  <!-- Timeline Charts (if we have snapshots) -->
  
  <!-- 👥 Followers Count Chart -->
  <g transform="translate(60, 250)">
    <!-- Chart Background -->
    <rect x="0" y="0" width="213.33333333333334" height="200" fill="#ffffff" stroke="#e2e8f0" stroke-width="1" rx="8" filter="url(#shadow)">
      <animate attributeName="opacity" values="0;1" dur="0.5s" begin="1.8s" fill="freeze"/>
    </rect>
    
    <!-- Chart Title -->
    <text x="106.66666666666667" y="25" text-anchor="middle" fill="#1e293b" font-size="14" font-weight="bold" font-family="Arial, sans-serif">
      👥 Followers Count
      <animate attributeName="opacity" values="0;1" dur="0.5s" begin="2s" fill="freeze"/>
    </text>
    
    <!-- Y-axis labels -->
    <text x="10" y="45" fill="#64748b" font-size="10" font-family="Arial, sans-serif">154
      <animate attributeName="opacity" values="0;1" dur="0.5s" begin="2.2s" fill="freeze"/>
    </text>
    <text x="10" y="185" fill="#64748b" font-size="10" font-family="Arial, sans-serif">150
      <animate attributeName="opacity" values="0;1" dur="0.5s" begin="2.2s" fill="freeze"/>
    </text>
    
    <!-- Chart Line with draw animation that follows the circle -->
    <path d="M 30,160 L 30.028793272777172,160 L 30.053143028660294,160 L 31.54200786667642,160 L 31.574635464515396,160 L 31.606385109419655,160 L 33.09722086218717,160 L 33.1122177317046,160 L 33.1506147345431,160 L 34.64494438164264,160 L 34.674920203270645,160 L 34.70989498140446,160 L 36.19293666220056,160 L 36.21940067208972,160 L 36.25523548575141,160 L 37.7381517446997,160 L 37.76816340114137,160 L 37.80145394303309,160 L 39.2896737544033,160 L 39.311532990736936,160 L 39.342565939367965,160 L 40.83338377472865,160 L 40.858288970223526,160 L 40.890414880671244,160 L 42.3843503448205,160 L 42.413734892023086,160 L 42.43937470119803,160 L 43.931249663561736,160 L 43.96407435287585,160 L 43.9869907162125,160 L 45.48132036331204,160 L 45.51020322312337,160 L 45.54345793020142,160 L 47.02988600088855,160 L 47.05807008183347,160 L 47.09209523740525,160 L 48.57703616332542,160 L 48.602693889907194,160 L 48.63471229591392,160 L 50.12649767124347,160 L 50.15448466071326,160 L 50.186933084483925,160 L 51.670673544146425,160 L 51.70828218108438,160 L 51.73005183038386,160 L 53.21897042062048,160 L 53.24826538078891,160 L 53.2774170017027,160 L 54.762895449827795,160 L 54.79521845175064,160 L 54.82223790125156,160 L 55.90237085464239,160 L 56.31757092313363,160 L 56.34969683358133,160 L 56.38354281508481,160 L 57.86545569925056,160 L 57.89355019316133,160 L 57.926446552102774,160 L 59.41162040431173,160 L 59.43328254917023,160 L 59.469619050223194,160 L 60.961762773689365,160 L 60.98881805800394,160 L 61.02028102439891,160 L 62.50991631090877,160 L 62.5424005694931,160 L 62.575870285453114,160 L 64.05609893337677,160 L 64.08376340952361,160 L 64.12018949761071,160 L 65.60848097860826,160 L 65.63207820340449,160 L 65.66114023728412,160 L 67.15523695809486,160 L 67.18874250886853,160 L 67.22011588822934,160 L 68.70240503793855,160 L 68.73256003363487,160 L 68.76642393254517,160 L 70.24828306449044,160 L 70.27768552909986,160 L 70.31083273173692,160 L 71.79957214790524,160 L 71.82705744998376,160 L 71.85516986130136,160 L 73.34588019222105,160 L 73.37367009021571,160 L 73.4070681365484,160 L 74.88503919121138,160 L 74.92184154484194,160 L 74.95271323681149,160 L 76.44118389187733,160 L 76.46291770636316,160 L 76.50199557066122,160 L 77.99109333496615,160 L 78.02375676761879,160 L 78.05817610614085,160 L 79.54136112619159,160 L 79.57124736078546,160 L 79.60290741865555,160 L 81.08025136407946,160 L 81.11271770525696,160 L 81.1450944594003,160 L 82.63309926188853,160 L 82.66348718387366,160 L 82.69821111831183,160 L 84.18164698205821,160 L 84.20961605412117,160 L 84.24048774609071,160 L 85.7308397288738,160 L 85.7507638852697,160 L 85.79967840591792,160 L 87.27626982025491,160 L 87.30642481595123,160 L 87.33616771129044,160 L 88.8272005555331,160 L 88.86144071998686,160 L 88.8925990904657,160 L 90.37451197463145,160 L 90.40466697032777,160 L 90.4394267395796,160 L 91.92046167081065,160 L 91.95009706170887,160 L 91.97709859380296,160 L 93.47087280129074,160 L 93.50149364956467,160 L 93.53302828558697,160 L 95.02359527725201,160 L 95.05240646743601,160 L 95.08082347466974,160 L 96.56585398762405,160 L 96.59665400996629,70 L 96.62874408560033,70 L 98.11970526021567,70 L 98.14108072656488,70 L 98.17055486080162,70 L 99.66389905052546,70 L 99.68780087123781,70 L 99.73021137320642,70 L 101.21380849361428,70 L 101.24528937741609,70 L 101.27293593615607,70 L 102.75560135140873,70 L 102.79009235955812,70 L 102.82386667143426,70 L 104.31319736202798,70 L 104.32846299264787,70 L 104.3698342850203,70 L 105.8581616008315,70 L 105.89078919867048,70 L 105.92764530452152,70 L 107.40635097286456,70 L 107.43709724298628,70 L 107.47649762060733,70 L 108.9520319079413,70 L 108.9847311754076,70 L 109.02287733455047,70 L 110.50867829599852,70 L 110.54510438408565,70 L 112.05079366711593,70 L 112.12739058131781,70 L 113.5991084609968,70 L 113.63718295051235,70 L 113.67332236009018,70 L 115.14679614563862,70 L 115.18691321953288,70 L 115.21452394345921,70 L 116.6981389812739,70 L 116.73171620167491,70 L 116.76941442564701,70 L 118.24075603978257,70 L 118.27431534277676,70 L 118.31206731896935,70 L 119.79118508766949,70 L 119.82417103364507,70 L 119.85955791213601,70 L 121.34471384693815,70 L 121.38805605406198,70 L 122.92701796157714,70 L 122.96804882321977,70 L 124.44433564164066,70 L 124.4781637057373,70 L 125.99644892576967,70 L 126.02526011595367,70 L 126.07270540924176,70 L 127.5326515526329,70 L 127.56561958120164,70 L 127.60091687265842,70 L 129.08257891312854,70 L 129.12156719039248,70 L 129.16069880691106,70 L 130.62790150006867,70 L 130.6595078057183,70 L 130.69792272596362,70 L 132.17471123177575,70 L 132.21063563247162,70 L 132.25759715577527,70 L 133.71799123433718,70 L 133.75887875672515,70 L 133.79845830841452,70 L 135.27320422984792,70 L 135.30610058878938,70 L 135.34365547350683,70 L 136.82123234521953,70 L 136.85452288711122,70 L 136.89290197254292,70 L 138.3672895458397,70 L 138.40588364015338,70 L 138.44746994140775,70 L 139.91691231041924,70 L 139.94764066313414,70 L 139.9846759430535,70 L 141.46633798352363,70 L 141.49391287263632,70 L 141.53157526179473,70 L 143.0105317738334,70 L 143.0458828175107,70 L 143.08492484699508,70 L 144.55965285102167,70 L 144.59717190092547,70 L 144.63707396593776,70 L 146.1118736395917,70 L 146.1390185109404,70 L 146.17784553154286,70 L 147.6586475364851,70 L 147.69521696382685,70 L 147.727826644259,70 L 149.2020350434875,70 L 149.2355047594475,70 L 149.27404510154068,70 L 150.74741138264812,70 L 150.7880122265268,70 L 150.82515501088716,70 L 152.29891547494486,70 L 152.32955424062564,70 L 152.36395566174087,70 L 153.85312509567314,70 L 153.8905187237291,70 L 153.93260671237476,70 L 155.39995274478704,70 L 155.43335079111972,70 L 155.46674883745243,70 L 156.94452280064027,70 L 156.98161183278012,70 L 157.01809167308772,70 L 158.48597522770493,70 L 158.5262535582607,70 L 158.5645968088787,70 L 160.03280287681883,70 L 160.07306328996776,70 L 160.11724761521262,70 L 161.59534409172343,70 L 161.62736249773016,70 L 161.66876962491625,70 L 163.1395378820332,70 L 163.16720235818005,70 L 163.202266723348,70 L 164.6832120675449,70 L 164.71981732970033,70 L 164.75694219665382,70 L 166.23204646622386,70 L 166.2640111200101,70 L 166.30534657756886,70 L 167.77976998567934,70 L 167.8119317309407,70 L 167.8500241378631,70 L 169.328317705849,70 L 169.35983442446445,70 L 169.39396708447723,70 L 170.87467950238533,40 L 170.9045119847587,40 L 172.42150715149924,40 L 172.45793323958634,40 L 172.49233466070157,40 L 173.97114783348562,40 L 173.9962322030488,40 L 174.0389293835267,40 L 175.5276150474745,40 L 175.56545661070126,40 L 177.06811785197715,40 L 177.10753614700502,40 L 177.1589949394232,40 L 178.61849314764356,40 L 178.65706932455038,40 L 178.68080988860126,40 L 180.1685817648007,40 L 180.20445241327604,40 L 180.24227605909599,40 L 181.71757742014117,40 L 181.75176383237442,40 L 181.79051918334952,40 L 183.26397505149112,40 L 183.29470340420605,40 L 183.33333333333334,40" stroke="#22c55e" stroke-width="2" fill="none" stroke-dasharray="14700" stroke-dashoffset="14700">
      <animate attributeName="stroke-dashoffset" values="14700;0" dur="3s" begin="2.6s" fill="freeze"/>
    </path>
    
    <!-- Glow effect for the line that also follows the circle -->
    <path d="M 30,160 L 30.028793272777172,160 L 30.053143028660294,160 L 31.54200786667642,160 L 31.574635464515396,160 L 31.606385109419655,160 L 33.09722086218717,160 L 33.1122177317046,160 L 33.1506147345431,160 L 34.64494438164264,160 L 34.674920203270645,160 L 34.70989498140446,160 L 36.19293666220056,160 L 36.21940067208972,160 L 36.25523548575141,160 L 37.7381517446997,160 L 37.76816340114137,160 L 37.80145394303309,160 L 39.2896737544033,160 L 39.311532990736936,160 L 39.342565939367965,160 L 40.83338377472865,160 L 40.858288970223526,160 L 40.890414880671244,160 L 42.3843503448205,160 L 42.413734892023086,160 L 42.43937470119803,160 L 43.931249663561736,160 L 43.96407435287585,160 L 43.9869907162125,160 L 45.48132036331204,160 L 45.51020322312337,160 L 45.54345793020142,160 L 47.02988600088855,160 L 47.05807008183347,160 L 47.09209523740525,160 L 48.57703616332542,160 L 48.602693889907194,160 L 48.63471229591392,160 L 50.12649767124347,160 L 50.15448466071326,160 L 50.186933084483925,160 L 51.670673544146425,160 L 51.70828218108438,160 L 51.73005183038386,160 L 53.21897042062048,160 L 53.24826538078891,160 L 53.2774170017027,160 L 54.762895449827795,160 L 54.79521845175064,160 L 54.82223790125156,160 L 55.90237085464239,160 L 56.31757092313363,160 L 56.34969683358133,160 L 56.38354281508481,160 L 57.86545569925056,160 L 57.89355019316133,160 L 57.926446552102774,160 L 59.41162040431173,160 L 59.43328254917023,160 L 59.469619050223194,160 L 60.961762773689365,160 L 60.98881805800394,160 L 61.02028102439891,160 L 62.50991631090877,160 L 62.5424005694931,160 L 62.575870285453114,160 L 64.05609893337677,160 L 64.08376340952361,160 L 64.12018949761071,160 L 65.60848097860826,160 L 65.63207820340449,160 L 65.66114023728412,160 L 67.15523695809486,160 L 67.18874250886853,160 L 67.22011588822934,160 L 68.70240503793855,160 L 68.73256003363487,160 L 68.76642393254517,160 L 70.24828306449044,160 L 70.27768552909986,160 L 70.31083273173692,160 L 71.79957214790524,160 L 71.82705744998376,160 L 71.85516986130136,160 L 73.34588019222105,160 L 73.37367009021571,160 L 73.4070681365484,160 L 74.88503919121138,160 L 74.92184154484194,160 L 74.95271323681149,160 L 76.44118389187733,160 L 76.46291770636316,160 L 76.50199557066122,160 L 77.99109333496615,160 L 78.02375676761879,160 L 78.05817610614085,160 L 79.54136112619159,160 L 79.57124736078546,160 L 79.60290741865555,160 L 81.08025136407946,160 L 81.11271770525696,160 L 81.1450944594003,160 L 82.63309926188853,160 L 82.66348718387366,160 L 82.69821111831183,160 L 84.18164698205821,160 L 84.20961605412117,160 L 84.24048774609071,160 L 85.7308397288738,160 L 85.7507638852697,160 L 85.79967840591792,160 L 87.27626982025491,160 L 87.30642481595123,160 L 87.33616771129044,160 L 88.8272005555331,160 L 88.86144071998686,160 L 88.8925990904657,160 L 90.37451197463145,160 L 90.40466697032777,160 L 90.4394267395796,160 L 91.92046167081065,160 L 91.95009706170887,160 L 91.97709859380296,160 L 93.47087280129074,160 L 93.50149364956467,160 L 93.53302828558697,160 L 95.02359527725201,160 L 95.05240646743601,160 L 95.08082347466974,160 L 96.56585398762405,160 L 96.59665400996629,70 L 96.62874408560033,70 L 98.11970526021567,70 L 98.14108072656488,70 L 98.17055486080162,70 L 99.66389905052546,70 L 99.68780087123781,70 L 99.73021137320642,70 L 101.21380849361428,70 L 101.24528937741609,70 L 101.27293593615607,70 L 102.75560135140873,70 L 102.79009235955812,70 L 102.82386667143426,70 L 104.31319736202798,70 L 104.32846299264787,70 L 104.3698342850203,70 L 105.8581616008315,70 L 105.89078919867048,70 L 105.92764530452152,70 L 107.40635097286456,70 L 107.43709724298628,70 L 107.47649762060733,70 L 108.9520319079413,70 L 108.9847311754076,70 L 109.02287733455047,70 L 110.50867829599852,70 L 110.54510438408565,70 L 112.05079366711593,70 L 112.12739058131781,70 L 113.5991084609968,70 L 113.63718295051235,70 L 113.67332236009018,70 L 115.14679614563862,70 L 115.18691321953288,70 L 115.21452394345921,70 L 116.6981389812739,70 L 116.73171620167491,70 L 116.76941442564701,70 L 118.24075603978257,70 L 118.27431534277676,70 L 118.31206731896935,70 L 119.79118508766949,70 L 119.82417103364507,70 L 119.85955791213601,70 L 121.34471384693815,70 L 121.38805605406198,70 L 122.92701796157714,70 L 122.96804882321977,70 L 124.44433564164066,70 L 124.4781637057373,70 L 125.99644892576967,70 L 126.02526011595367,70 L 126.07270540924176,70 L 127.5326515526329,70 L 127.56561958120164,70 L 127.60091687265842,70 L 129.08257891312854,70 L 129.12156719039248,70 L 129.16069880691106,70 L 130.62790150006867,70 L 130.6595078057183,70 L 130.69792272596362,70 L 132.17471123177575,70 L 132.21063563247162,70 L 132.25759715577527,70 L 133.71799123433718,70 L 133.75887875672515,70 L 133.79845830841452,70 L 135.27320422984792,70 L 135.30610058878938,70 L 135.34365547350683,70 L 136.82123234521953,70 L 136.85452288711122,70 L 136.89290197254292,70 L 138.3672895458397,70 L 138.40588364015338,70 L 138.44746994140775,70 L 139.91691231041924,70 L 139.94764066313414,70 L 139.9846759430535,70 L 141.46633798352363,70 L 141.49391287263632,70 L 141.53157526179473,70 L 143.0105317738334,70 L 143.0458828175107,70 L 143.08492484699508,70 L 144.55965285102167,70 L 144.59717190092547,70 L 144.63707396593776,70 L 146.1118736395917,70 L 146.1390185109404,70 L 146.17784553154286,70 L 147.6586475364851,70 L 147.69521696382685,70 L 147.727826644259,70 L 149.2020350434875,70 L 149.2355047594475,70 L 149.27404510154068,70 L 150.74741138264812,70 L 150.7880122265268,70 L 150.82515501088716,70 L 152.29891547494486,70 L 152.32955424062564,70 L 152.36395566174087,70 L 153.85312509567314,70 L 153.8905187237291,70 L 153.93260671237476,70 L 155.39995274478704,70 L 155.43335079111972,70 L 155.46674883745243,70 L 156.94452280064027,70 L 156.98161183278012,70 L 157.01809167308772,70 L 158.48597522770493,70 L 158.5262535582607,70 L 158.5645968088787,70 L 160.03280287681883,70 L 160.07306328996776,70 L 160.11724761521262,70 L 161.59534409172343,70 L 161.62736249773016,70 L 161.66876962491625,70 L 163.1395378820332,70 L 163.16720235818005,70 L 163.202266723348,70 L 164.6832120675449,70 L 164.71981732970033,70 L 164.75694219665382,70 L 166.23204646622386,70 L 166.2640111200101,70 L 166.30534657756886,70 L 167.77976998567934,70 L 167.8119317309407,70 L 167.8500241378631,70 L 169.328317705849,70 L 169.35983442446445,70 L 169.39396708447723,70 L 170.87467950238533,40 L 170.9045119847587,40 L 172.42150715149924,40 L 172.45793323958634,40 L 172.49233466070157,40 L 173.97114783348562,40 L 173.9962322030488,40 L 174.0389293835267,40 L 175.5276150474745,40 L 175.56545661070126,40 L 177.06811785197715,40 L 177.10753614700502,40 L 177.1589949394232,40 L 178.61849314764356,40 L 178.65706932455038,40 L 178.68080988860126,40 L 180.1685817648007,40 L 180.20445241327604,40 L 180.24227605909599,40 L 181.71757742014117,40 L 181.75176383237442,40 L 181.79051918334952,40 L 183.26397505149112,40 L 183.29470340420605,40 L 183.33333333333334,40" stroke="#22c55e" stroke-width="4" fill="none" opacity="0.4" stroke-dasharray="14700" stroke-dashoffset="14700">
      <animate attributeName="stroke-dashoffset" values="14700;0" dur="3s" begin="2.6s" fill="freeze"/>
    </path>
    
    <!-- Animated circle that moves along the path and draws the line -->
    <circle r="5" fill="#22c55e" opacity="0" filter="url(#trailGlow)">
      <animate attributeName="opacity" values="0;1;1;1" dur="3.2s" begin="2.4s" fill="freeze"/>
      <animate attributeName="r" values="5;6;5" dur="1s" begin="2.4s" repeatCount="3"/>
      <animateMotion dur="3s" begin="2.4s" fill="freeze">
        <mpath href="#path_followersCount_60"/>
      </animateMotion>
    </circle>
    
    <!-- Small trail dots that fade out -->
    <circle r="2" fill="#22c55e" opacity="0">
      <animate attributeName="opacity" values="0;0.6;0" dur="0.8s" begin="2.8s" fill="freeze"/>
      <animateMotion dur="3s" begin="2.4s" fill="freeze">
        <mpath href="#path_followersCount_60"/>
      </animateMotion>
    </circle>
    
    <!-- Hidden path for motion animation -->
    <path id="path_followersCount_60" d="M 30,160 L 30.028793272777172,160 L 30.053143028660294,160 L 31.54200786667642,160 L 31.574635464515396,160 L 31.606385109419655,160 L 33.09722086218717,160 L 33.1122177317046,160 L 33.1506147345431,160 L 34.64494438164264,160 L 34.674920203270645,160 L 34.70989498140446,160 L 36.19293666220056,160 L 36.21940067208972,160 L 36.25523548575141,160 L 37.7381517446997,160 L 37.76816340114137,160 L 37.80145394303309,160 L 39.2896737544033,160 L 39.311532990736936,160 L 39.342565939367965,160 L 40.83338377472865,160 L 40.858288970223526,160 L 40.890414880671244,160 L 42.3843503448205,160 L 42.413734892023086,160 L 42.43937470119803,160 L 43.931249663561736,160 L 43.96407435287585,160 L 43.9869907162125,160 L 45.48132036331204,160 L 45.51020322312337,160 L 45.54345793020142,160 L 47.02988600088855,160 L 47.05807008183347,160 L 47.09209523740525,160 L 48.57703616332542,160 L 48.602693889907194,160 L 48.63471229591392,160 L 50.12649767124347,160 L 50.15448466071326,160 L 50.186933084483925,160 L 51.670673544146425,160 L 51.70828218108438,160 L 51.73005183038386,160 L 53.21897042062048,160 L 53.24826538078891,160 L 53.2774170017027,160 L 54.762895449827795,160 L 54.79521845175064,160 L 54.82223790125156,160 L 55.90237085464239,160 L 56.31757092313363,160 L 56.34969683358133,160 L 56.38354281508481,160 L 57.86545569925056,160 L 57.89355019316133,160 L 57.926446552102774,160 L 59.41162040431173,160 L 59.43328254917023,160 L 59.469619050223194,160 L 60.961762773689365,160 L 60.98881805800394,160 L 61.02028102439891,160 L 62.50991631090877,160 L 62.5424005694931,160 L 62.575870285453114,160 L 64.05609893337677,160 L 64.08376340952361,160 L 64.12018949761071,160 L 65.60848097860826,160 L 65.63207820340449,160 L 65.66114023728412,160 L 67.15523695809486,160 L 67.18874250886853,160 L 67.22011588822934,160 L 68.70240503793855,160 L 68.73256003363487,160 L 68.76642393254517,160 L 70.24828306449044,160 L 70.27768552909986,160 L 70.31083273173692,160 L 71.79957214790524,160 L 71.82705744998376,160 L 71.85516986130136,160 L 73.34588019222105,160 L 73.37367009021571,160 L 73.4070681365484,160 L 74.88503919121138,160 L 74.92184154484194,160 L 74.95271323681149,160 L 76.44118389187733,160 L 76.46291770636316,160 L 76.50199557066122,160 L 77.99109333496615,160 L 78.02375676761879,160 L 78.05817610614085,160 L 79.54136112619159,160 L 79.57124736078546,160 L 79.60290741865555,160 L 81.08025136407946,160 L 81.11271770525696,160 L 81.1450944594003,160 L 82.63309926188853,160 L 82.66348718387366,160 L 82.69821111831183,160 L 84.18164698205821,160 L 84.20961605412117,160 L 84.24048774609071,160 L 85.7308397288738,160 L 85.7507638852697,160 L 85.79967840591792,160 L 87.27626982025491,160 L 87.30642481595123,160 L 87.33616771129044,160 L 88.8272005555331,160 L 88.86144071998686,160 L 88.8925990904657,160 L 90.37451197463145,160 L 90.40466697032777,160 L 90.4394267395796,160 L 91.92046167081065,160 L 91.95009706170887,160 L 91.97709859380296,160 L 93.47087280129074,160 L 93.50149364956467,160 L 93.53302828558697,160 L 95.02359527725201,160 L 95.05240646743601,160 L 95.08082347466974,160 L 96.56585398762405,160 L 96.59665400996629,70 L 96.62874408560033,70 L 98.11970526021567,70 L 98.14108072656488,70 L 98.17055486080162,70 L 99.66389905052546,70 L 99.68780087123781,70 L 99.73021137320642,70 L 101.21380849361428,70 L 101.24528937741609,70 L 101.27293593615607,70 L 102.75560135140873,70 L 102.79009235955812,70 L 102.82386667143426,70 L 104.31319736202798,70 L 104.32846299264787,70 L 104.3698342850203,70 L 105.8581616008315,70 L 105.89078919867048,70 L 105.92764530452152,70 L 107.40635097286456,70 L 107.43709724298628,70 L 107.47649762060733,70 L 108.9520319079413,70 L 108.9847311754076,70 L 109.02287733455047,70 L 110.50867829599852,70 L 110.54510438408565,70 L 112.05079366711593,70 L 112.12739058131781,70 L 113.5991084609968,70 L 113.63718295051235,70 L 113.67332236009018,70 L 115.14679614563862,70 L 115.18691321953288,70 L 115.21452394345921,70 L 116.6981389812739,70 L 116.73171620167491,70 L 116.76941442564701,70 L 118.24075603978257,70 L 118.27431534277676,70 L 118.31206731896935,70 L 119.79118508766949,70 L 119.82417103364507,70 L 119.85955791213601,70 L 121.34471384693815,70 L 121.38805605406198,70 L 122.92701796157714,70 L 122.96804882321977,70 L 124.44433564164066,70 L 124.4781637057373,70 L 125.99644892576967,70 L 126.02526011595367,70 L 126.07270540924176,70 L 127.5326515526329,70 L 127.56561958120164,70 L 127.60091687265842,70 L 129.08257891312854,70 L 129.12156719039248,70 L 129.16069880691106,70 L 130.62790150006867,70 L 130.6595078057183,70 L 130.69792272596362,70 L 132.17471123177575,70 L 132.21063563247162,70 L 132.25759715577527,70 L 133.71799123433718,70 L 133.75887875672515,70 L 133.79845830841452,70 L 135.27320422984792,70 L 135.30610058878938,70 L 135.34365547350683,70 L 136.82123234521953,70 L 136.85452288711122,70 L 136.89290197254292,70 L 138.3672895458397,70 L 138.40588364015338,70 L 138.44746994140775,70 L 139.91691231041924,70 L 139.94764066313414,70 L 139.9846759430535,70 L 141.46633798352363,70 L 141.49391287263632,70 L 141.53157526179473,70 L 143.0105317738334,70 L 143.0458828175107,70 L 143.08492484699508,70 L 144.55965285102167,70 L 144.59717190092547,70 L 144.63707396593776,70 L 146.1118736395917,70 L 146.1390185109404,70 L 146.17784553154286,70 L 147.6586475364851,70 L 147.69521696382685,70 L 147.727826644259,70 L 149.2020350434875,70 L 149.2355047594475,70 L 149.27404510154068,70 L 150.74741138264812,70 L 150.7880122265268,70 L 150.82515501088716,70 L 152.29891547494486,70 L 152.32955424062564,70 L 152.36395566174087,70 L 153.85312509567314,70 L 153.8905187237291,70 L 153.93260671237476,70 L 155.39995274478704,70 L 155.43335079111972,70 L 155.46674883745243,70 L 156.94452280064027,70 L 156.98161183278012,70 L 157.01809167308772,70 L 158.48597522770493,70 L 158.5262535582607,70 L 158.5645968088787,70 L 160.03280287681883,70 L 160.07306328996776,70 L 160.11724761521262,70 L 161.59534409172343,70 L 161.62736249773016,70 L 161.66876962491625,70 L 163.1395378820332,70 L 163.16720235818005,70 L 163.202266723348,70 L 164.6832120675449,70 L 164.71981732970033,70 L 164.75694219665382,70 L 166.23204646622386,70 L 166.2640111200101,70 L 166.30534657756886,70 L 167.77976998567934,70 L 167.8119317309407,70 L 167.8500241378631,70 L 169.328317705849,70 L 169.35983442446445,70 L 169.39396708447723,70 L 170.87467950238533,40 L 170.9045119847587,40 L 172.42150715149924,40 L 172.45793323958634,40 L 172.49233466070157,40 L 173.97114783348562,40 L 173.9962322030488,40 L 174.0389293835267,40 L 175.5276150474745,40 L 175.56545661070126,40 L 177.06811785197715,40 L 177.10753614700502,40 L 177.1589949394232,40 L 178.61849314764356,40 L 178.65706932455038,40 L 178.68080988860126,40 L 180.1685817648007,40 L 180.20445241327604,40 L 180.24227605909599,40 L 181.71757742014117,40 L 181.75176383237442,40 L 181.79051918334952,40 L 183.26397505149112,40 L 183.29470340420605,40 L 183.33333333333334,40" fill="none" stroke="none"/>
  </g>
  <!-- 🔓 Public Contributions Chart -->
  <g transform="translate(293.33333333333337, 250)">
    <!-- Chart Background -->
    <rect x="0" y="0" width="213.33333333333334" height="200" fill="#ffffff" stroke="#e2e8f0" stroke-width="1" rx="8" filter="url(#shadow)">
      <animate attributeName="opacity" values="0;1" dur="0.5s" begin="2.3s" fill="freeze"/>
    </rect>
    
    <!-- Chart Title -->
    <text x="106.66666666666667" y="25" text-anchor="middle" fill="#1e293b" font-size="14" font-weight="bold" font-family="Arial, sans-serif">
      🔓 Public Contributions
      <animate attributeName="opacity" values="0;1" dur="0.5s" begin="2.5s" fill="freeze"/>
    </text>
    
    <!-- Y-axis labels -->
    <text x="10" y="45" fill="#64748b" font-size="10" font-family="Arial, sans-serif">3,861
      <animate attributeName="opacity" values="0;1" dur="0.5s" begin="2.6999999999999997s" fill="freeze"/>
    </text>
    <text x="10" y="185" fill="#64748b" font-size="10" font-family="Arial, sans-serif">3,434
      <animate attributeName="opacity" values="0;1" dur="0.5s" begin="2.6999999999999997s" fill="freeze"/>
    </text>
    
    <!-- Chart Line with draw animation that follows the circle -->
    <path d="M 30,160 L 30.028793272777172,160 L 30.053143028660294,160 L 31.54200786667642,160 L 31.574635464515396,160 L 31.606385109419655,160 L 33.09722086218717,160 L 33.1122177317046,160 L 33.1506147345431,160 L 34.64494438164264,160 L 34.674920203270645,160 L 34.70989498140446,160 L 36.19293666220056,160 L 36.21940067208972,160 L 36.25523548575141,160 L 37.7381517446997,160 L 37.76816340114137,160 L 37.80145394303309,160 L 39.2896737544033,160 L 39.311532990736936,160 L 39.342565939367965,160 L 40.83338377472865,160 L 40.858288970223526,160 L 40.890414880671244,160 L 42.3843503448205,160 L 42.413734892023086,160 L 42.43937470119803,160 L 43.931249663561736,160 L 43.96407435287585,160 L 43.9869907162125,160 L 45.48132036331204,160 L 45.51020322312337,160 L 45.54345793020142,160 L 47.02988600088855,160 L 47.05807008183347,160 L 47.09209523740525,160 L 48.57703616332542,160 L 48.602693889907194,160 L 48.63471229591392,160 L 50.12649767124347,160 L 50.15448466071326,160 L 50.186933084483925,160 L 51.670673544146425,160 L 51.70828218108438,160 L 51.73005183038386,160 L 53.21897042062048,160 L 53.24826538078891,160 L 53.2774170017027,160 L 54.762895449827795,160 L 54.79521845175064,160 L 54.82223790125156,160 L 55.90237085464239,160 L 56.31757092313363,160 L 56.34969683358133,160 L 56.38354281508481,160 L 57.86545569925056,160 L 57.89355019316133,160 L 57.926446552102774,160 L 59.41162040431173,160 L 59.43328254917023,160 L 59.469619050223194,160 L 60.961762773689365,160 L 60.98881805800394,160 L 61.02028102439891,160 L 62.50991631090877,160 L 62.5424005694931,160 L 62.575870285453114,160 L 64.05609893337677,160 L 64.08376340952361,160 L 64.12018949761071,160 L 65.60848097860826,160 L 65.63207820340449,160 L 65.66114023728412,160 L 67.15523695809486,160 L 67.18874250886853,160 L 67.22011588822934,160 L 68.70240503793855,160 L 68.73256003363487,160 L 68.76642393254517,160 L 70.24828306449044,160 L 70.27768552909986,160 L 70.31083273173692,160 L 71.79957214790524,160 L 71.82705744998376,160 L 71.85516986130136,160 L 73.34588019222105,160 L 73.37367009021571,160 L 73.4070681365484,160 L 74.88503919121138,160 L 74.92184154484194,160 L 74.95271323681149,160 L 76.44118389187733,160 L 76.46291770636316,160 L 76.50199557066122,160 L 77.99109333496615,160 L 78.02375676761879,160 L 78.05817610614085,160 L 79.54136112619159,160 L 79.57124736078546,160 L 79.60290741865555,160 L 81.08025136407946,160 L 81.11271770525696,160 L 81.1450944594003,160 L 82.63309926188853,160 L 82.66348718387366,160 L 82.69821111831183,160 L 84.18164698205821,160 L 84.20961605412117,160 L 84.24048774609071,160 L 85.7308397288738,160 L 85.7507638852697,160 L 85.79967840591792,160 L 87.27626982025491,160 L 87.30642481595123,160 L 87.33616771129044,160 L 88.8272005555331,160 L 88.86144071998686,160 L 88.8925990904657,160 L 90.37451197463145,160 L 90.40466697032777,160 L 90.4394267395796,160 L 91.92046167081065,160 L 91.95009706170887,160 L 91.97709859380296,160 L 93.47087280129074,160 L 93.50149364956467,160 L 93.53302828558697,160 L 95.02359527725201,160 L 95.05240646743601,160 L 95.08082347466974,160 L 96.56585398762405,160 L 96.59665400996629,40 L 96.62874408560033,40 L 98.11970526021567,40 L 98.14108072656488,40 L 98.17055486080162,40 L 99.66389905052546,40 L 99.68780087123781,40 L 99.73021137320642,40 L 101.21380849361428,40 L 101.24528937741609,40 L 101.27293593615607,40 L 102.75560135140873,40 L 102.79009235955812,40 L 102.82386667143426,40 L 104.31319736202798,40 L 104.32846299264787,40 L 104.3698342850203,40 L 105.8581616008315,40 L 105.89078919867048,40 L 105.92764530452152,40 L 107.40635097286456,40 L 107.43709724298628,40 L 107.47649762060733,40 L 108.9520319079413,40 L 108.9847311754076,40 L 109.02287733455047,40 L 110.50867829599852,40 L 110.54510438408565,40 L 112.05079366711593,40 L 112.12739058131781,40 L 113.5991084609968,40 L 113.63718295051235,40 L 113.67332236009018,40 L 115.14679614563862,40 L 115.18691321953288,40 L 115.21452394345921,40 L 116.6981389812739,40 L 116.73171620167491,40 L 116.76941442564701,40 L 118.24075603978257,40 L 118.27431534277676,40 L 118.31206731896935,40 L 119.79118508766949,40 L 119.82417103364507,40 L 119.85955791213601,40 L 121.34471384693815,40 L 121.38805605406198,40 L 122.92701796157714,40 L 122.96804882321977,40 L 124.44433564164066,40 L 124.4781637057373,40 L 125.99644892576967,40 L 126.02526011595367,40 L 126.07270540924176,40 L 127.5326515526329,40 L 127.56561958120164,40 L 127.60091687265842,40 L 129.08257891312854,40 L 129.12156719039248,40 L 129.16069880691106,40 L 130.62790150006867,40 L 130.6595078057183,40 L 130.69792272596362,40 L 132.17471123177575,40 L 132.21063563247162,40 L 132.25759715577527,40 L 133.71799123433718,40 L 133.75887875672515,40 L 133.79845830841452,40 L 135.27320422984792,40 L 135.30610058878938,40 L 135.34365547350683,40 L 136.82123234521953,40 L 136.85452288711122,40 L 136.89290197254292,40 L 138.3672895458397,40 L 138.40588364015338,40 L 138.44746994140775,40 L 139.91691231041924,40 L 139.94764066313414,40 L 139.9846759430535,40 L 141.46633798352363,40 L 141.49391287263632,40 L 141.53157526179473,40 L 143.0105317738334,40 L 143.0458828175107,40 L 143.08492484699508,40 L 144.55965285102167,40 L 144.59717190092547,40 L 144.63707396593776,40 L 146.1118736395917,40 L 146.1390185109404,40 L 146.17784553154286,40 L 147.6586475364851,40 L 147.69521696382685,40 L 147.727826644259,40 L 149.2020350434875,40 L 149.2355047594475,40 L 149.27404510154068,40 L 150.74741138264812,40 L 150.7880122265268,40 L 150.82515501088716,40 L 152.29891547494486,40 L 152.32955424062564,40 L 152.36395566174087,40 L 153.85312509567314,40 L 153.8905187237291,40 L 153.93260671237476,40 L 155.39995274478704,40 L 155.43335079111972,40 L 155.46674883745243,40 L 156.94452280064027,40 L 156.98161183278012,40 L 157.01809167308772,40 L 158.48597522770493,40 L 158.5262535582607,40 L 158.5645968088787,40 L 160.03280287681883,40 L 160.07306328996776,40 L 160.11724761521262,40 L 161.59534409172343,40 L 161.62736249773016,40 L 161.66876962491625,40 L 163.1395378820332,40 L 163.16720235818005,40 L 163.202266723348,40 L 164.6832120675449,40 L 164.71981732970033,40 L 164.75694219665382,40 L 166.23204646622386,40 L 166.2640111200101,40 L 166.30534657756886,40 L 167.77976998567934,40 L 167.8119317309407,40 L 167.8500241378631,40 L 169.328317705849,40 L 169.35983442446445,40 L 169.39396708447723,40 L 170.87467950238533,66.4168618266979 L 170.9045119847587,66.4168618266979 L 172.42150715149924,66.4168618266979 L 172.45793323958634,66.4168618266979 L 172.49233466070157,66.4168618266979 L 173.97114783348562,66.4168618266979 L 173.9962322030488,66.4168618266979 L 174.0389293835267,66.4168618266979 L 175.5276150474745,66.4168618266979 L 175.56545661070126,66.4168618266979 L 177.06811785197715,66.4168618266979 L 177.10753614700502,66.4168618266979 L 177.1589949394232,66.4168618266979 L 178.61849314764356,66.4168618266979 L 178.65706932455038,66.4168618266979 L 178.68080988860126,66.4168618266979 L 180.1685817648007,66.4168618266979 L 180.20445241327604,66.4168618266979 L 180.24227605909599,66.4168618266979 L 181.71757742014117,66.4168618266979 L 181.75176383237442,66.4168618266979 L 181.79051918334952,66.4168618266979 L 183.26397505149112,66.4168618266979 L 183.29470340420605,66.4168618266979 L 183.33333333333334,66.4168618266979" stroke="#3b82f6" stroke-width="2" fill="none" stroke-dasharray="14700" stroke-dashoffset="14700">
      <animate attributeName="stroke-dashoffset" values="14700;0" dur="3s" begin="3.0999999999999996s" fill="freeze"/>
    </path>
    
    <!-- Glow effect for the line that also follows the circle -->
    <path d="M 30,160 L 30.028793272777172,160 L 30.053143028660294,160 L 31.54200786667642,160 L 31.574635464515396,160 L 31.606385109419655,160 L 33.09722086218717,160 L 33.1122177317046,160 L 33.1506147345431,160 L 34.64494438164264,160 L 34.674920203270645,160 L 34.70989498140446,160 L 36.19293666220056,160 L 36.21940067208972,160 L 36.25523548575141,160 L 37.7381517446997,160 L 37.76816340114137,160 L 37.80145394303309,160 L 39.2896737544033,160 L 39.311532990736936,160 L 39.342565939367965,160 L 40.83338377472865,160 L 40.858288970223526,160 L 40.890414880671244,160 L 42.3843503448205,160 L 42.413734892023086,160 L 42.43937470119803,160 L 43.931249663561736,160 L 43.96407435287585,160 L 43.9869907162125,160 L 45.48132036331204,160 L 45.51020322312337,160 L 45.54345793020142,160 L 47.02988600088855,160 L 47.05807008183347,160 L 47.09209523740525,160 L 48.57703616332542,160 L 48.602693889907194,160 L 48.63471229591392,160 L 50.12649767124347,160 L 50.15448466071326,160 L 50.186933084483925,160 L 51.670673544146425,160 L 51.70828218108438,160 L 51.73005183038386,160 L 53.21897042062048,160 L 53.24826538078891,160 L 53.2774170017027,160 L 54.762895449827795,160 L 54.79521845175064,160 L 54.82223790125156,160 L 55.90237085464239,160 L 56.31757092313363,160 L 56.34969683358133,160 L 56.38354281508481,160 L 57.86545569925056,160 L 57.89355019316133,160 L 57.926446552102774,160 L 59.41162040431173,160 L 59.43328254917023,160 L 59.469619050223194,160 L 60.961762773689365,160 L 60.98881805800394,160 L 61.02028102439891,160 L 62.50991631090877,160 L 62.5424005694931,160 L 62.575870285453114,160 L 64.05609893337677,160 L 64.08376340952361,160 L 64.12018949761071,160 L 65.60848097860826,160 L 65.63207820340449,160 L 65.66114023728412,160 L 67.15523695809486,160 L 67.18874250886853,160 L 67.22011588822934,160 L 68.70240503793855,160 L 68.73256003363487,160 L 68.76642393254517,160 L 70.24828306449044,160 L 70.27768552909986,160 L 70.31083273173692,160 L 71.79957214790524,160 L 71.82705744998376,160 L 71.85516986130136,160 L 73.34588019222105,160 L 73.37367009021571,160 L 73.4070681365484,160 L 74.88503919121138,160 L 74.92184154484194,160 L 74.95271323681149,160 L 76.44118389187733,160 L 76.46291770636316,160 L 76.50199557066122,160 L 77.99109333496615,160 L 78.02375676761879,160 L 78.05817610614085,160 L 79.54136112619159,160 L 79.57124736078546,160 L 79.60290741865555,160 L 81.08025136407946,160 L 81.11271770525696,160 L 81.1450944594003,160 L 82.63309926188853,160 L 82.66348718387366,160 L 82.69821111831183,160 L 84.18164698205821,160 L 84.20961605412117,160 L 84.24048774609071,160 L 85.7308397288738,160 L 85.7507638852697,160 L 85.79967840591792,160 L 87.27626982025491,160 L 87.30642481595123,160 L 87.33616771129044,160 L 88.8272005555331,160 L 88.86144071998686,160 L 88.8925990904657,160 L 90.37451197463145,160 L 90.40466697032777,160 L 90.4394267395796,160 L 91.92046167081065,160 L 91.95009706170887,160 L 91.97709859380296,160 L 93.47087280129074,160 L 93.50149364956467,160 L 93.53302828558697,160 L 95.02359527725201,160 L 95.05240646743601,160 L 95.08082347466974,160 L 96.56585398762405,160 L 96.59665400996629,40 L 96.62874408560033,40 L 98.11970526021567,40 L 98.14108072656488,40 L 98.17055486080162,40 L 99.66389905052546,40 L 99.68780087123781,40 L 99.73021137320642,40 L 101.21380849361428,40 L 101.24528937741609,40 L 101.27293593615607,40 L 102.75560135140873,40 L 102.79009235955812,40 L 102.82386667143426,40 L 104.31319736202798,40 L 104.32846299264787,40 L 104.3698342850203,40 L 105.8581616008315,40 L 105.89078919867048,40 L 105.92764530452152,40 L 107.40635097286456,40 L 107.43709724298628,40 L 107.47649762060733,40 L 108.9520319079413,40 L 108.9847311754076,40 L 109.02287733455047,40 L 110.50867829599852,40 L 110.54510438408565,40 L 112.05079366711593,40 L 112.12739058131781,40 L 113.5991084609968,40 L 113.63718295051235,40 L 113.67332236009018,40 L 115.14679614563862,40 L 115.18691321953288,40 L 115.21452394345921,40 L 116.6981389812739,40 L 116.73171620167491,40 L 116.76941442564701,40 L 118.24075603978257,40 L 118.27431534277676,40 L 118.31206731896935,40 L 119.79118508766949,40 L 119.82417103364507,40 L 119.85955791213601,40 L 121.34471384693815,40 L 121.38805605406198,40 L 122.92701796157714,40 L 122.96804882321977,40 L 124.44433564164066,40 L 124.4781637057373,40 L 125.99644892576967,40 L 126.02526011595367,40 L 126.07270540924176,40 L 127.5326515526329,40 L 127.56561958120164,40 L 127.60091687265842,40 L 129.08257891312854,40 L 129.12156719039248,40 L 129.16069880691106,40 L 130.62790150006867,40 L 130.6595078057183,40 L 130.69792272596362,40 L 132.17471123177575,40 L 132.21063563247162,40 L 132.25759715577527,40 L 133.71799123433718,40 L 133.75887875672515,40 L 133.79845830841452,40 L 135.27320422984792,40 L 135.30610058878938,40 L 135.34365547350683,40 L 136.82123234521953,40 L 136.85452288711122,40 L 136.89290197254292,40 L 138.3672895458397,40 L 138.40588364015338,40 L 138.44746994140775,40 L 139.91691231041924,40 L 139.94764066313414,40 L 139.9846759430535,40 L 141.46633798352363,40 L 141.49391287263632,40 L 141.53157526179473,40 L 143.0105317738334,40 L 143.0458828175107,40 L 143.08492484699508,40 L 144.55965285102167,40 L 144.59717190092547,40 L 144.63707396593776,40 L 146.1118736395917,40 L 146.1390185109404,40 L 146.17784553154286,40 L 147.6586475364851,40 L 147.69521696382685,40 L 147.727826644259,40 L 149.2020350434875,40 L 149.2355047594475,40 L 149.27404510154068,40 L 150.74741138264812,40 L 150.7880122265268,40 L 150.82515501088716,40 L 152.29891547494486,40 L 152.32955424062564,40 L 152.36395566174087,40 L 153.85312509567314,40 L 153.8905187237291,40 L 153.93260671237476,40 L 155.39995274478704,40 L 155.43335079111972,40 L 155.46674883745243,40 L 156.94452280064027,40 L 156.98161183278012,40 L 157.01809167308772,40 L 158.48597522770493,40 L 158.5262535582607,40 L 158.5645968088787,40 L 160.03280287681883,40 L 160.07306328996776,40 L 160.11724761521262,40 L 161.59534409172343,40 L 161.62736249773016,40 L 161.66876962491625,40 L 163.1395378820332,40 L 163.16720235818005,40 L 163.202266723348,40 L 164.6832120675449,40 L 164.71981732970033,40 L 164.75694219665382,40 L 166.23204646622386,40 L 166.2640111200101,40 L 166.30534657756886,40 L 167.77976998567934,40 L 167.8119317309407,40 L 167.8500241378631,40 L 169.328317705849,40 L 169.35983442446445,40 L 169.39396708447723,40 L 170.87467950238533,66.4168618266979 L 170.9045119847587,66.4168618266979 L 172.42150715149924,66.4168618266979 L 172.45793323958634,66.4168618266979 L 172.49233466070157,66.4168618266979 L 173.97114783348562,66.4168618266979 L 173.9962322030488,66.4168618266979 L 174.0389293835267,66.4168618266979 L 175.5276150474745,66.4168618266979 L 175.56545661070126,66.4168618266979 L 177.06811785197715,66.4168618266979 L 177.10753614700502,66.4168618266979 L 177.1589949394232,66.4168618266979 L 178.61849314764356,66.4168618266979 L 178.65706932455038,66.4168618266979 L 178.68080988860126,66.4168618266979 L 180.1685817648007,66.4168618266979 L 180.20445241327604,66.4168618266979 L 180.24227605909599,66.4168618266979 L 181.71757742014117,66.4168618266979 L 181.75176383237442,66.4168618266979 L 181.79051918334952,66.4168618266979 L 183.26397505149112,66.4168618266979 L 183.29470340420605,66.4168618266979 L 183.33333333333334,66.4168618266979" stroke="#3b82f6" stroke-width="4" fill="none" opacity="0.4" stroke-dasharray="14700" stroke-dashoffset="14700">
      <animate attributeName="stroke-dashoffset" values="14700;0" dur="3s" begin="3.0999999999999996s" fill="freeze"/>
    </path>
    
    <!-- Animated circle that moves along the path and draws the line -->
    <circle r="5" fill="#3b82f6" opacity="0" filter="url(#trailGlow)">
      <animate attributeName="opacity" values="0;1;1;1" dur="3.2s" begin="2.9s" fill="freeze"/>
      <animate attributeName="r" values="5;6;5" dur="1s" begin="2.9s" repeatCount="3"/>
      <animateMotion dur="3s" begin="2.9s" fill="freeze">
        <mpath href="#path_publicContributions_293.33333333333337"/>
      </animateMotion>
    </circle>
    
    <!-- Small trail dots that fade out -->
    <circle r="2" fill="#3b82f6" opacity="0">
      <animate attributeName="opacity" values="0;0.6;0" dur="0.8s" begin="3.3s" fill="freeze"/>
      <animateMotion dur="3s" begin="2.9s" fill="freeze">
        <mpath href="#path_publicContributions_293.33333333333337"/>
      </animateMotion>
    </circle>
    
    <!-- Hidden path for motion animation -->
    <path id="path_publicContributions_293.33333333333337" d="M 30,160 L 30.028793272777172,160 L 30.053143028660294,160 L 31.54200786667642,160 L 31.574635464515396,160 L 31.606385109419655,160 L 33.09722086218717,160 L 33.1122177317046,160 L 33.1506147345431,160 L 34.64494438164264,160 L 34.674920203270645,160 L 34.70989498140446,160 L 36.19293666220056,160 L 36.21940067208972,160 L 36.25523548575141,160 L 37.7381517446997,160 L 37.76816340114137,160 L 37.80145394303309,160 L 39.2896737544033,160 L 39.311532990736936,160 L 39.342565939367965,160 L 40.83338377472865,160 L 40.858288970223526,160 L 40.890414880671244,160 L 42.3843503448205,160 L 42.413734892023086,160 L 42.43937470119803,160 L 43.931249663561736,160 L 43.96407435287585,160 L 43.9869907162125,160 L 45.48132036331204,160 L 45.51020322312337,160 L 45.54345793020142,160 L 47.02988600088855,160 L 47.05807008183347,160 L 47.09209523740525,160 L 48.57703616332542,160 L 48.602693889907194,160 L 48.63471229591392,160 L 50.12649767124347,160 L 50.15448466071326,160 L 50.186933084483925,160 L 51.670673544146425,160 L 51.70828218108438,160 L 51.73005183038386,160 L 53.21897042062048,160 L 53.24826538078891,160 L 53.2774170017027,160 L 54.762895449827795,160 L 54.79521845175064,160 L 54.82223790125156,160 L 55.90237085464239,160 L 56.31757092313363,160 L 56.34969683358133,160 L 56.38354281508481,160 L 57.86545569925056,160 L 57.89355019316133,160 L 57.926446552102774,160 L 59.41162040431173,160 L 59.43328254917023,160 L 59.469619050223194,160 L 60.961762773689365,160 L 60.98881805800394,160 L 61.02028102439891,160 L 62.50991631090877,160 L 62.5424005694931,160 L 62.575870285453114,160 L 64.05609893337677,160 L 64.08376340952361,160 L 64.12018949761071,160 L 65.60848097860826,160 L 65.63207820340449,160 L 65.66114023728412,160 L 67.15523695809486,160 L 67.18874250886853,160 L 67.22011588822934,160 L 68.70240503793855,160 L 68.73256003363487,160 L 68.76642393254517,160 L 70.24828306449044,160 L 70.27768552909986,160 L 70.31083273173692,160 L 71.79957214790524,160 L 71.82705744998376,160 L 71.85516986130136,160 L 73.34588019222105,160 L 73.37367009021571,160 L 73.4070681365484,160 L 74.88503919121138,160 L 74.92184154484194,160 L 74.95271323681149,160 L 76.44118389187733,160 L 76.46291770636316,160 L 76.50199557066122,160 L 77.99109333496615,160 L 78.02375676761879,160 L 78.05817610614085,160 L 79.54136112619159,160 L 79.57124736078546,160 L 79.60290741865555,160 L 81.08025136407946,160 L 81.11271770525696,160 L 81.1450944594003,160 L 82.63309926188853,160 L 82.66348718387366,160 L 82.69821111831183,160 L 84.18164698205821,160 L 84.20961605412117,160 L 84.24048774609071,160 L 85.7308397288738,160 L 85.7507638852697,160 L 85.79967840591792,160 L 87.27626982025491,160 L 87.30642481595123,160 L 87.33616771129044,160 L 88.8272005555331,160 L 88.86144071998686,160 L 88.8925990904657,160 L 90.37451197463145,160 L 90.40466697032777,160 L 90.4394267395796,160 L 91.92046167081065,160 L 91.95009706170887,160 L 91.97709859380296,160 L 93.47087280129074,160 L 93.50149364956467,160 L 93.53302828558697,160 L 95.02359527725201,160 L 95.05240646743601,160 L 95.08082347466974,160 L 96.56585398762405,160 L 96.59665400996629,40 L 96.62874408560033,40 L 98.11970526021567,40 L 98.14108072656488,40 L 98.17055486080162,40 L 99.66389905052546,40 L 99.68780087123781,40 L 99.73021137320642,40 L 101.21380849361428,40 L 101.24528937741609,40 L 101.27293593615607,40 L 102.75560135140873,40 L 102.79009235955812,40 L 102.82386667143426,40 L 104.31319736202798,40 L 104.32846299264787,40 L 104.3698342850203,40 L 105.8581616008315,40 L 105.89078919867048,40 L 105.92764530452152,40 L 107.40635097286456,40 L 107.43709724298628,40 L 107.47649762060733,40 L 108.9520319079413,40 L 108.9847311754076,40 L 109.02287733455047,40 L 110.50867829599852,40 L 110.54510438408565,40 L 112.05079366711593,40 L 112.12739058131781,40 L 113.5991084609968,40 L 113.63718295051235,40 L 113.67332236009018,40 L 115.14679614563862,40 L 115.18691321953288,40 L 115.21452394345921,40 L 116.6981389812739,40 L 116.73171620167491,40 L 116.76941442564701,40 L 118.24075603978257,40 L 118.27431534277676,40 L 118.31206731896935,40 L 119.79118508766949,40 L 119.82417103364507,40 L 119.85955791213601,40 L 121.34471384693815,40 L 121.38805605406198,40 L 122.92701796157714,40 L 122.96804882321977,40 L 124.44433564164066,40 L 124.4781637057373,40 L 125.99644892576967,40 L 126.02526011595367,40 L 126.07270540924176,40 L 127.5326515526329,40 L 127.56561958120164,40 L 127.60091687265842,40 L 129.08257891312854,40 L 129.12156719039248,40 L 129.16069880691106,40 L 130.62790150006867,40 L 130.6595078057183,40 L 130.69792272596362,40 L 132.17471123177575,40 L 132.21063563247162,40 L 132.25759715577527,40 L 133.71799123433718,40 L 133.75887875672515,40 L 133.79845830841452,40 L 135.27320422984792,40 L 135.30610058878938,40 L 135.34365547350683,40 L 136.82123234521953,40 L 136.85452288711122,40 L 136.89290197254292,40 L 138.3672895458397,40 L 138.40588364015338,40 L 138.44746994140775,40 L 139.91691231041924,40 L 139.94764066313414,40 L 139.9846759430535,40 L 141.46633798352363,40 L 141.49391287263632,40 L 141.53157526179473,40 L 143.0105317738334,40 L 143.0458828175107,40 L 143.08492484699508,40 L 144.55965285102167,40 L 144.59717190092547,40 L 144.63707396593776,40 L 146.1118736395917,40 L 146.1390185109404,40 L 146.17784553154286,40 L 147.6586475364851,40 L 147.69521696382685,40 L 147.727826644259,40 L 149.2020350434875,40 L 149.2355047594475,40 L 149.27404510154068,40 L 150.74741138264812,40 L 150.7880122265268,40 L 150.82515501088716,40 L 152.29891547494486,40 L 152.32955424062564,40 L 152.36395566174087,40 L 153.85312509567314,40 L 153.8905187237291,40 L 153.93260671237476,40 L 155.39995274478704,40 L 155.43335079111972,40 L 155.46674883745243,40 L 156.94452280064027,40 L 156.98161183278012,40 L 157.01809167308772,40 L 158.48597522770493,40 L 158.5262535582607,40 L 158.5645968088787,40 L 160.03280287681883,40 L 160.07306328996776,40 L 160.11724761521262,40 L 161.59534409172343,40 L 161.62736249773016,40 L 161.66876962491625,40 L 163.1395378820332,40 L 163.16720235818005,40 L 163.202266723348,40 L 164.6832120675449,40 L 164.71981732970033,40 L 164.75694219665382,40 L 166.23204646622386,40 L 166.2640111200101,40 L 166.30534657756886,40 L 167.77976998567934,40 L 167.8119317309407,40 L 167.8500241378631,40 L 169.328317705849,40 L 169.35983442446445,40 L 169.39396708447723,40 L 170.87467950238533,66.4168618266979 L 170.9045119847587,66.4168618266979 L 172.42150715149924,66.4168618266979 L 172.45793323958634,66.4168618266979 L 172.49233466070157,66.4168618266979 L 173.97114783348562,66.4168618266979 L 173.9962322030488,66.4168618266979 L 174.0389293835267,66.4168618266979 L 175.5276150474745,66.4168618266979 L 175.56545661070126,66.4168618266979 L 177.06811785197715,66.4168618266979 L 177.10753614700502,66.4168618266979 L 177.1589949394232,66.4168618266979 L 178.61849314764356,66.4168618266979 L 178.65706932455038,66.4168618266979 L 178.68080988860126,66.4168618266979 L 180.1685817648007,66.4168618266979 L 180.20445241327604,66.4168618266979 L 180.24227605909599,66.4168618266979 L 181.71757742014117,66.4168618266979 L 181.75176383237442,66.4168618266979 L 181.79051918334952,66.4168618266979 L 183.26397505149112,66.4168618266979 L 183.29470340420605,66.4168618266979 L 183.33333333333334,66.4168618266979" fill="none" stroke="none"/>
  </g>
  <!-- 📊 Total Contributions Chart -->
  <g transform="translate(526.6666666666667, 250)">
    <!-- Chart Background -->
    <rect x="0" y="0" width="213.33333333333334" height="200" fill="#ffffff" stroke="#e2e8f0" stroke-width="1" rx="8" filter="url(#shadow)">
      <animate attributeName="opacity" values="0;1" dur="0.5s" begin="2.8s" fill="freeze"/>
    </rect>
    
    <!-- Chart Title -->
    <text x="106.66666666666667" y="25" text-anchor="middle" fill="#1e293b" font-size="14" font-weight="bold" font-family="Arial, sans-serif">
      📊 Total Contributions
      <animate attributeName="opacity" values="0;1" dur="0.5s" begin="3s" fill="freeze"/>
    </text>
    
    <!-- Y-axis labels -->
    <text x="10" y="45" fill="#64748b" font-size="10" font-family="Arial, sans-serif">5,314
      <animate attributeName="opacity" values="0;1" dur="0.5s" begin="3.1999999999999997s" fill="freeze"/>
    </text>
    <text x="10" y="185" fill="#64748b" font-size="10" font-family="Arial, sans-serif">4,917
      <animate attributeName="opacity" values="0;1" dur="0.5s" begin="3.1999999999999997s" fill="freeze"/>
    </text>
    
    <!-- Chart Line with draw animation that follows the circle -->
    <path d="M 30,160 L 30.028793272777172,160 L 30.053143028660294,160 L 31.54200786667642,160 L 31.574635464515396,160 L 31.606385109419655,160 L 33.09722086218717,160 L 33.1122177317046,160 L 33.1506147345431,160 L 34.64494438164264,160 L 34.674920203270645,160 L 34.70989498140446,160 L 36.19293666220056,160 L 36.21940067208972,160 L 36.25523548575141,160 L 37.7381517446997,160 L 37.76816340114137,160 L 37.80145394303309,160 L 39.2896737544033,160 L 39.311532990736936,160 L 39.342565939367965,160 L 40.83338377472865,160 L 40.858288970223526,160 L 40.890414880671244,160 L 42.3843503448205,160 L 42.413734892023086,160 L 42.43937470119803,160 L 43.931249663561736,160 L 43.96407435287585,160 L 43.9869907162125,160 L 45.48132036331204,160 L 45.51020322312337,160 L 45.54345793020142,160 L 47.02988600088855,160 L 47.05807008183347,160 L 47.09209523740525,160 L 48.57703616332542,160 L 48.602693889907194,160 L 48.63471229591392,160 L 50.12649767124347,160 L 50.15448466071326,160 L 50.186933084483925,160 L 51.670673544146425,160 L 51.70828218108438,160 L 51.73005183038386,160 L 53.21897042062048,160 L 53.24826538078891,160 L 53.2774170017027,160 L 54.762895449827795,160 L 54.79521845175064,160 L 54.82223790125156,160 L 55.90237085464239,160 L 56.31757092313363,160 L 56.34969683358133,160 L 56.38354281508481,160 L 57.86545569925056,160 L 57.89355019316133,160 L 57.926446552102774,160 L 59.41162040431173,160 L 59.43328254917023,160 L 59.469619050223194,160 L 60.961762773689365,160 L 60.98881805800394,160 L 61.02028102439891,160 L 62.50991631090877,160 L 62.5424005694931,160 L 62.575870285453114,160 L 64.05609893337677,160 L 64.08376340952361,160 L 64.12018949761071,160 L 65.60848097860826,160 L 65.63207820340449,160 L 65.66114023728412,160 L 67.15523695809486,160 L 67.18874250886853,160 L 67.22011588822934,160 L 68.70240503793855,160 L 68.73256003363487,160 L 68.76642393254517,160 L 70.24828306449044,160 L 70.27768552909986,160 L 70.31083273173692,160 L 71.79957214790524,160 L 71.82705744998376,160 L 71.85516986130136,160 L 73.34588019222105,160 L 73.37367009021571,160 L 73.4070681365484,160 L 74.88503919121138,160 L 74.92184154484194,160 L 74.95271323681149,160 L 76.44118389187733,160 L 76.46291770636316,160 L 76.50199557066122,160 L 77.99109333496615,160 L 78.02375676761879,160 L 78.05817610614085,160 L 79.54136112619159,160 L 79.57124736078546,160 L 79.60290741865555,160 L 81.08025136407946,160 L 81.11271770525696,160 L 81.1450944594003,160 L 82.63309926188853,160 L 82.66348718387366,160 L 82.69821111831183,160 L 84.18164698205821,160 L 84.20961605412117,160 L 84.24048774609071,160 L 85.7308397288738,160 L 85.7507638852697,160 L 85.79967840591792,160 L 87.27626982025491,160 L 87.30642481595123,160 L 87.33616771129044,160 L 88.8272005555331,160 L 88.86144071998686,160 L 88.8925990904657,160 L 90.37451197463145,160 L 90.40466697032777,160 L 90.4394267395796,160 L 91.92046167081065,160 L 91.95009706170887,160 L 91.97709859380296,160 L 93.47087280129074,160 L 93.50149364956467,160 L 93.53302828558697,160 L 95.02359527725201,160 L 95.05240646743601,160 L 95.08082347466974,160 L 96.56585398762405,160 L 96.59665400996629,40 L 96.62874408560033,40 L 98.11970526021567,40 L 98.14108072656488,40 L 98.17055486080162,40 L 99.66389905052546,40 L 99.68780087123781,40 L 99.73021137320642,40 L 101.21380849361428,40 L 101.24528937741609,40 L 101.27293593615607,40 L 102.75560135140873,40 L 102.79009235955812,40 L 102.82386667143426,40 L 104.31319736202798,40 L 104.32846299264787,40 L 104.3698342850203,40 L 105.8581616008315,40 L 105.89078919867048,40 L 105.92764530452152,40 L 107.40635097286456,40 L 107.43709724298628,40 L 107.47649762060733,40 L 108.9520319079413,40 L 108.9847311754076,40 L 109.02287733455047,40 L 110.50867829599852,40 L 110.54510438408565,40 L 112.05079366711593,40 L 112.12739058131781,40 L 113.5991084609968,40 L 113.63718295051235,40 L 113.67332236009018,40 L 115.14679614563862,40 L 115.18691321953288,40 L 115.21452394345921,40 L 116.6981389812739,40 L 116.73171620167491,40 L 116.76941442564701,40 L 118.24075603978257,40 L 118.27431534277676,40 L 118.31206731896935,40 L 119.79118508766949,40 L 119.82417103364507,40 L 119.85955791213601,40 L 121.34471384693815,40 L 121.38805605406198,40 L 122.92701796157714,40 L 122.96804882321977,40 L 124.44433564164066,40 L 124.4781637057373,40 L 125.99644892576967,40 L 126.02526011595367,40 L 126.07270540924176,40 L 127.5326515526329,40 L 127.56561958120164,40 L 127.60091687265842,40 L 129.08257891312854,40 L 129.12156719039248,40 L 129.16069880691106,40 L 130.62790150006867,40 L 130.6595078057183,40 L 130.69792272596362,40 L 132.17471123177575,40 L 132.21063563247162,40 L 132.25759715577527,40 L 133.71799123433718,40 L 133.75887875672515,40 L 133.79845830841452,40 L 135.27320422984792,40 L 135.30610058878938,40 L 135.34365547350683,40 L 136.82123234521953,40 L 136.85452288711122,40 L 136.89290197254292,40 L 138.3672895458397,40 L 138.40588364015338,40 L 138.44746994140775,40 L 139.91691231041924,40 L 139.94764066313414,40 L 139.9846759430535,40 L 141.46633798352363,40 L 141.49391287263632,40 L 141.53157526179473,40 L 143.0105317738334,40 L 143.0458828175107,40 L 143.08492484699508,40 L 144.55965285102167,40 L 144.59717190092547,40 L 144.63707396593776,40 L 146.1118736395917,40 L 146.1390185109404,40 L 146.17784553154286,40 L 147.6586475364851,40 L 147.69521696382685,40 L 147.727826644259,40 L 149.2020350434875,40 L 149.2355047594475,40 L 149.27404510154068,40 L 150.74741138264812,40 L 150.7880122265268,40 L 150.82515501088716,40 L 152.29891547494486,40 L 152.32955424062564,40 L 152.36395566174087,40 L 153.85312509567314,40 L 153.8905187237291,40 L 153.93260671237476,40 L 155.39995274478704,40 L 155.43335079111972,40 L 155.46674883745243,40 L 156.94452280064027,40 L 156.98161183278012,40 L 157.01809167308772,40 L 158.48597522770493,40 L 158.5262535582607,40 L 158.5645968088787,40 L 160.03280287681883,40 L 160.07306328996776,40 L 160.11724761521262,40 L 161.59534409172343,40 L 161.62736249773016,40 L 161.66876962491625,40 L 163.1395378820332,40 L 163.16720235818005,40 L 163.202266723348,40 L 164.6832120675449,40 L 164.71981732970033,40 L 164.75694219665382,40 L 166.23204646622386,40 L 166.2640111200101,40 L 166.30534657756886,40 L 167.77976998567934,40 L 167.8119317309407,40 L 167.8500241378631,40 L 169.328317705849,40 L 169.35983442446445,40 L 169.39396708447723,40 L 170.87467950238533,72.04030226700252 L 170.9045119847587,72.04030226700252 L 172.42150715149924,72.04030226700252 L 172.45793323958634,72.04030226700252 L 172.49233466070157,72.04030226700252 L 173.97114783348562,72.04030226700252 L 173.9962322030488,72.04030226700252 L 174.0389293835267,72.04030226700252 L 175.5276150474745,72.04030226700252 L 175.56545661070126,72.04030226700252 L 177.06811785197715,72.04030226700252 L 177.10753614700502,72.04030226700252 L 177.1589949394232,72.04030226700252 L 178.61849314764356,72.04030226700252 L 178.65706932455038,72.04030226700252 L 178.68080988860126,72.04030226700252 L 180.1685817648007,72.04030226700252 L 180.20445241327604,72.04030226700252 L 180.24227605909599,72.04030226700252 L 181.71757742014117,72.04030226700252 L 181.75176383237442,72.04030226700252 L 181.79051918334952,72.04030226700252 L 183.26397505149112,72.04030226700252 L 183.29470340420605,72.04030226700252 L 183.33333333333334,72.04030226700252" stroke="#f59e0b" stroke-width="2" fill="none" stroke-dasharray="14700" stroke-dashoffset="14700">
      <animate attributeName="stroke-dashoffset" values="14700;0" dur="3s" begin="3.5999999999999996s" fill="freeze"/>
    </path>
    
    <!-- Glow effect for the line that also follows the circle -->
    <path d="M 30,160 L 30.028793272777172,160 L 30.053143028660294,160 L 31.54200786667642,160 L 31.574635464515396,160 L 31.606385109419655,160 L 33.09722086218717,160 L 33.1122177317046,160 L 33.1506147345431,160 L 34.64494438164264,160 L 34.674920203270645,160 L 34.70989498140446,160 L 36.19293666220056,160 L 36.21940067208972,160 L 36.25523548575141,160 L 37.7381517446997,160 L 37.76816340114137,160 L 37.80145394303309,160 L 39.2896737544033,160 L 39.311532990736936,160 L 39.342565939367965,160 L 40.83338377472865,160 L 40.858288970223526,160 L 40.890414880671244,160 L 42.3843503448205,160 L 42.413734892023086,160 L 42.43937470119803,160 L 43.931249663561736,160 L 43.96407435287585,160 L 43.9869907162125,160 L 45.48132036331204,160 L 45.51020322312337,160 L 45.54345793020142,160 L 47.02988600088855,160 L 47.05807008183347,160 L 47.09209523740525,160 L 48.57703616332542,160 L 48.602693889907194,160 L 48.63471229591392,160 L 50.12649767124347,160 L 50.15448466071326,160 L 50.186933084483925,160 L 51.670673544146425,160 L 51.70828218108438,160 L 51.73005183038386,160 L 53.21897042062048,160 L 53.24826538078891,160 L 53.2774170017027,160 L 54.762895449827795,160 L 54.79521845175064,160 L 54.82223790125156,160 L 55.90237085464239,160 L 56.31757092313363,160 L 56.34969683358133,160 L 56.38354281508481,160 L 57.86545569925056,160 L 57.89355019316133,160 L 57.926446552102774,160 L 59.41162040431173,160 L 59.43328254917023,160 L 59.469619050223194,160 L 60.961762773689365,160 L 60.98881805800394,160 L 61.02028102439891,160 L 62.50991631090877,160 L 62.5424005694931,160 L 62.575870285453114,160 L 64.05609893337677,160 L 64.08376340952361,160 L 64.12018949761071,160 L 65.60848097860826,160 L 65.63207820340449,160 L 65.66114023728412,160 L 67.15523695809486,160 L 67.18874250886853,160 L 67.22011588822934,160 L 68.70240503793855,160 L 68.73256003363487,160 L 68.76642393254517,160 L 70.24828306449044,160 L 70.27768552909986,160 L 70.31083273173692,160 L 71.79957214790524,160 L 71.82705744998376,160 L 71.85516986130136,160 L 73.34588019222105,160 L 73.37367009021571,160 L 73.4070681365484,160 L 74.88503919121138,160 L 74.92184154484194,160 L 74.95271323681149,160 L 76.44118389187733,160 L 76.46291770636316,160 L 76.50199557066122,160 L 77.99109333496615,160 L 78.02375676761879,160 L 78.05817610614085,160 L 79.54136112619159,160 L 79.57124736078546,160 L 79.60290741865555,160 L 81.08025136407946,160 L 81.11271770525696,160 L 81.1450944594003,160 L 82.63309926188853,160 L 82.66348718387366,160 L 82.69821111831183,160 L 84.18164698205821,160 L 84.20961605412117,160 L 84.24048774609071,160 L 85.7308397288738,160 L 85.7507638852697,160 L 85.79967840591792,160 L 87.27626982025491,160 L 87.30642481595123,160 L 87.33616771129044,160 L 88.8272005555331,160 L 88.86144071998686,160 L 88.8925990904657,160 L 90.37451197463145,160 L 90.40466697032777,160 L 90.4394267395796,160 L 91.92046167081065,160 L 91.95009706170887,160 L 91.97709859380296,160 L 93.47087280129074,160 L 93.50149364956467,160 L 93.53302828558697,160 L 95.02359527725201,160 L 95.05240646743601,160 L 95.08082347466974,160 L 96.56585398762405,160 L 96.59665400996629,40 L 96.62874408560033,40 L 98.11970526021567,40 L 98.14108072656488,40 L 98.17055486080162,40 L 99.66389905052546,40 L 99.68780087123781,40 L 99.73021137320642,40 L 101.21380849361428,40 L 101.24528937741609,40 L 101.27293593615607,40 L 102.75560135140873,40 L 102.79009235955812,40 L 102.82386667143426,40 L 104.31319736202798,40 L 104.32846299264787,40 L 104.3698342850203,40 L 105.8581616008315,40 L 105.89078919867048,40 L 105.92764530452152,40 L 107.40635097286456,40 L 107.43709724298628,40 L 107.47649762060733,40 L 108.9520319079413,40 L 108.9847311754076,40 L 109.02287733455047,40 L 110.50867829599852,40 L 110.54510438408565,40 L 112.05079366711593,40 L 112.12739058131781,40 L 113.5991084609968,40 L 113.63718295051235,40 L 113.67332236009018,40 L 115.14679614563862,40 L 115.18691321953288,40 L 115.21452394345921,40 L 116.6981389812739,40 L 116.73171620167491,40 L 116.76941442564701,40 L 118.24075603978257,40 L 118.27431534277676,40 L 118.31206731896935,40 L 119.79118508766949,40 L 119.82417103364507,40 L 119.85955791213601,40 L 121.34471384693815,40 L 121.38805605406198,40 L 122.92701796157714,40 L 122.96804882321977,40 L 124.44433564164066,40 L 124.4781637057373,40 L 125.99644892576967,40 L 126.02526011595367,40 L 126.07270540924176,40 L 127.5326515526329,40 L 127.56561958120164,40 L 127.60091687265842,40 L 129.08257891312854,40 L 129.12156719039248,40 L 129.16069880691106,40 L 130.62790150006867,40 L 130.6595078057183,40 L 130.69792272596362,40 L 132.17471123177575,40 L 132.21063563247162,40 L 132.25759715577527,40 L 133.71799123433718,40 L 133.75887875672515,40 L 133.79845830841452,40 L 135.27320422984792,40 L 135.30610058878938,40 L 135.34365547350683,40 L 136.82123234521953,40 L 136.85452288711122,40 L 136.89290197254292,40 L 138.3672895458397,40 L 138.40588364015338,40 L 138.44746994140775,40 L 139.91691231041924,40 L 139.94764066313414,40 L 139.9846759430535,40 L 141.46633798352363,40 L 141.49391287263632,40 L 141.53157526179473,40 L 143.0105317738334,40 L 143.0458828175107,40 L 143.08492484699508,40 L 144.55965285102167,40 L 144.59717190092547,40 L 144.63707396593776,40 L 146.1118736395917,40 L 146.1390185109404,40 L 146.17784553154286,40 L 147.6586475364851,40 L 147.69521696382685,40 L 147.727826644259,40 L 149.2020350434875,40 L 149.2355047594475,40 L 149.27404510154068,40 L 150.74741138264812,40 L 150.7880122265268,40 L 150.82515501088716,40 L 152.29891547494486,40 L 152.32955424062564,40 L 152.36395566174087,40 L 153.85312509567314,40 L 153.8905187237291,40 L 153.93260671237476,40 L 155.39995274478704,40 L 155.43335079111972,40 L 155.46674883745243,40 L 156.94452280064027,40 L 156.98161183278012,40 L 157.01809167308772,40 L 158.48597522770493,40 L 158.5262535582607,40 L 158.5645968088787,40 L 160.03280287681883,40 L 160.07306328996776,40 L 160.11724761521262,40 L 161.59534409172343,40 L 161.62736249773016,40 L 161.66876962491625,40 L 163.1395378820332,40 L 163.16720235818005,40 L 163.202266723348,40 L 164.6832120675449,40 L 164.71981732970033,40 L 164.75694219665382,40 L 166.23204646622386,40 L 166.2640111200101,40 L 166.30534657756886,40 L 167.77976998567934,40 L 167.8119317309407,40 L 167.8500241378631,40 L 169.328317705849,40 L 169.35983442446445,40 L 169.39396708447723,40 L 170.87467950238533,72.04030226700252 L 170.9045119847587,72.04030226700252 L 172.42150715149924,72.04030226700252 L 172.45793323958634,72.04030226700252 L 172.49233466070157,72.04030226700252 L 173.97114783348562,72.04030226700252 L 173.9962322030488,72.04030226700252 L 174.0389293835267,72.04030226700252 L 175.5276150474745,72.04030226700252 L 175.56545661070126,72.04030226700252 L 177.06811785197715,72.04030226700252 L 177.10753614700502,72.04030226700252 L 177.1589949394232,72.04030226700252 L 178.61849314764356,72.04030226700252 L 178.65706932455038,72.04030226700252 L 178.68080988860126,72.04030226700252 L 180.1685817648007,72.04030226700252 L 180.20445241327604,72.04030226700252 L 180.24227605909599,72.04030226700252 L 181.71757742014117,72.04030226700252 L 181.75176383237442,72.04030226700252 L 181.79051918334952,72.04030226700252 L 183.26397505149112,72.04030226700252 L 183.29470340420605,72.04030226700252 L 183.33333333333334,72.04030226700252" stroke="#f59e0b" stroke-width="4" fill="none" opacity="0.4" stroke-dasharray="14700" stroke-dashoffset="14700">
      <animate attributeName="stroke-dashoffset" values="14700;0" dur="3s" begin="3.5999999999999996s" fill="freeze"/>
    </path>
    
    <!-- Animated circle that moves along the path and draws the line -->
    <circle r="5" fill="#f59e0b" opacity="0" filter="url(#trailGlow)">
      <animate attributeName="opacity" values="0;1;1;1" dur="3.2s" begin="3.4s" fill="freeze"/>
      <animate attributeName="r" values="5;6;5" dur="1s" begin="3.4s" repeatCount="3"/>
      <animateMotion dur="3s" begin="3.4s" fill="freeze">
        <mpath href="#path_totalContributions_526.6666666666667"/>
      </animateMotion>
    </circle>
    
    <!-- Small trail dots that fade out -->
    <circle r="2" fill="#f59e0b" opacity="0">
      <animate attributeName="opacity" values="0;0.6;0" dur="0.8s" begin="3.8s" fill="freeze"/>
      <animateMotion dur="3s" begin="3.4s" fill="freeze">
        <mpath href="#path_totalContributions_526.6666666666667"/>
      </animateMotion>
    </circle>
    
    <!-- Hidden path for motion animation -->
    <path id="path_totalContributions_526.6666666666667" d="M 30,160 L 30.028793272777172,160 L 30.053143028660294,160 L 31.54200786667642,160 L 31.574635464515396,160 L 31.606385109419655,160 L 33.09722086218717,160 L 33.1122177317046,160 L 33.1506147345431,160 L 34.64494438164264,160 L 34.674920203270645,160 L 34.70989498140446,160 L 36.19293666220056,160 L 36.21940067208972,160 L 36.25523548575141,160 L 37.7381517446997,160 L 37.76816340114137,160 L 37.80145394303309,160 L 39.2896737544033,160 L 39.311532990736936,160 L 39.342565939367965,160 L 40.83338377472865,160 L 40.858288970223526,160 L 40.890414880671244,160 L 42.3843503448205,160 L 42.413734892023086,160 L 42.43937470119803,160 L 43.931249663561736,160 L 43.96407435287585,160 L 43.9869907162125,160 L 45.48132036331204,160 L 45.51020322312337,160 L 45.54345793020142,160 L 47.02988600088855,160 L 47.05807008183347,160 L 47.09209523740525,160 L 48.57703616332542,160 L 48.602693889907194,160 L 48.63471229591392,160 L 50.12649767124347,160 L 50.15448466071326,160 L 50.186933084483925,160 L 51.670673544146425,160 L 51.70828218108438,160 L 51.73005183038386,160 L 53.21897042062048,160 L 53.24826538078891,160 L 53.2774170017027,160 L 54.762895449827795,160 L 54.79521845175064,160 L 54.82223790125156,160 L 55.90237085464239,160 L 56.31757092313363,160 L 56.34969683358133,160 L 56.38354281508481,160 L 57.86545569925056,160 L 57.89355019316133,160 L 57.926446552102774,160 L 59.41162040431173,160 L 59.43328254917023,160 L 59.469619050223194,160 L 60.961762773689365,160 L 60.98881805800394,160 L 61.02028102439891,160 L 62.50991631090877,160 L 62.5424005694931,160 L 62.575870285453114,160 L 64.05609893337677,160 L 64.08376340952361,160 L 64.12018949761071,160 L 65.60848097860826,160 L 65.63207820340449,160 L 65.66114023728412,160 L 67.15523695809486,160 L 67.18874250886853,160 L 67.22011588822934,160 L 68.70240503793855,160 L 68.73256003363487,160 L 68.76642393254517,160 L 70.24828306449044,160 L 70.27768552909986,160 L 70.31083273173692,160 L 71.79957214790524,160 L 71.82705744998376,160 L 71.85516986130136,160 L 73.34588019222105,160 L 73.37367009021571,160 L 73.4070681365484,160 L 74.88503919121138,160 L 74.92184154484194,160 L 74.95271323681149,160 L 76.44118389187733,160 L 76.46291770636316,160 L 76.50199557066122,160 L 77.99109333496615,160 L 78.02375676761879,160 L 78.05817610614085,160 L 79.54136112619159,160 L 79.57124736078546,160 L 79.60290741865555,160 L 81.08025136407946,160 L 81.11271770525696,160 L 81.1450944594003,160 L 82.63309926188853,160 L 82.66348718387366,160 L 82.69821111831183,160 L 84.18164698205821,160 L 84.20961605412117,160 L 84.24048774609071,160 L 85.7308397288738,160 L 85.7507638852697,160 L 85.79967840591792,160 L 87.27626982025491,160 L 87.30642481595123,160 L 87.33616771129044,160 L 88.8272005555331,160 L 88.86144071998686,160 L 88.8925990904657,160 L 90.37451197463145,160 L 90.40466697032777,160 L 90.4394267395796,160 L 91.92046167081065,160 L 91.95009706170887,160 L 91.97709859380296,160 L 93.47087280129074,160 L 93.50149364956467,160 L 93.53302828558697,160 L 95.02359527725201,160 L 95.05240646743601,160 L 95.08082347466974,160 L 96.56585398762405,160 L 96.59665400996629,40 L 96.62874408560033,40 L 98.11970526021567,40 L 98.14108072656488,40 L 98.17055486080162,40 L 99.66389905052546,40 L 99.68780087123781,40 L 99.73021137320642,40 L 101.21380849361428,40 L 101.24528937741609,40 L 101.27293593615607,40 L 102.75560135140873,40 L 102.79009235955812,40 L 102.82386667143426,40 L 104.31319736202798,40 L 104.32846299264787,40 L 104.3698342850203,40 L 105.8581616008315,40 L 105.89078919867048,40 L 105.92764530452152,40 L 107.40635097286456,40 L 107.43709724298628,40 L 107.47649762060733,40 L 108.9520319079413,40 L 108.9847311754076,40 L 109.02287733455047,40 L 110.50867829599852,40 L 110.54510438408565,40 L 112.05079366711593,40 L 112.12739058131781,40 L 113.5991084609968,40 L 113.63718295051235,40 L 113.67332236009018,40 L 115.14679614563862,40 L 115.18691321953288,40 L 115.21452394345921,40 L 116.6981389812739,40 L 116.73171620167491,40 L 116.76941442564701,40 L 118.24075603978257,40 L 118.27431534277676,40 L 118.31206731896935,40 L 119.79118508766949,40 L 119.82417103364507,40 L 119.85955791213601,40 L 121.34471384693815,40 L 121.38805605406198,40 L 122.92701796157714,40 L 122.96804882321977,40 L 124.44433564164066,40 L 124.4781637057373,40 L 125.99644892576967,40 L 126.02526011595367,40 L 126.07270540924176,40 L 127.5326515526329,40 L 127.56561958120164,40 L 127.60091687265842,40 L 129.08257891312854,40 L 129.12156719039248,40 L 129.16069880691106,40 L 130.62790150006867,40 L 130.6595078057183,40 L 130.69792272596362,40 L 132.17471123177575,40 L 132.21063563247162,40 L 132.25759715577527,40 L 133.71799123433718,40 L 133.75887875672515,40 L 133.79845830841452,40 L 135.27320422984792,40 L 135.30610058878938,40 L 135.34365547350683,40 L 136.82123234521953,40 L 136.85452288711122,40 L 136.89290197254292,40 L 138.3672895458397,40 L 138.40588364015338,40 L 138.44746994140775,40 L 139.91691231041924,40 L 139.94764066313414,40 L 139.9846759430535,40 L 141.46633798352363,40 L 141.49391287263632,40 L 141.53157526179473,40 L 143.0105317738334,40 L 143.0458828175107,40 L 143.08492484699508,40 L 144.55965285102167,40 L 144.59717190092547,40 L 144.63707396593776,40 L 146.1118736395917,40 L 146.1390185109404,40 L 146.17784553154286,40 L 147.6586475364851,40 L 147.69521696382685,40 L 147.727826644259,40 L 149.2020350434875,40 L 149.2355047594475,40 L 149.27404510154068,40 L 150.74741138264812,40 L 150.7880122265268,40 L 150.82515501088716,40 L 152.29891547494486,40 L 152.32955424062564,40 L 152.36395566174087,40 L 153.85312509567314,40 L 153.8905187237291,40 L 153.93260671237476,40 L 155.39995274478704,40 L 155.43335079111972,40 L 155.46674883745243,40 L 156.94452280064027,40 L 156.98161183278012,40 L 157.01809167308772,40 L 158.48597522770493,40 L 158.5262535582607,40 L 158.5645968088787,40 L 160.03280287681883,40 L 160.07306328996776,40 L 160.11724761521262,40 L 161.59534409172343,40 L 161.62736249773016,40 L 161.66876962491625,40 L 163.1395378820332,40 L 163.16720235818005,40 L 163.202266723348,40 L 164.6832120675449,40 L 164.71981732970033,40 L 164.75694219665382,40 L 166.23204646622386,40 L 166.2640111200101,40 L 166.30534657756886,40 L 167.77976998567934,40 L 167.8119317309407,40 L 167.8500241378631,40 L 169.328317705849,40 L 169.35983442446445,40 L 169.39396708447723,40 L 170.87467950238533,72.04030226700252 L 170.9045119847587,72.04030226700252 L 172.42150715149924,72.04030226700252 L 172.45793323958634,72.04030226700252 L 172.49233466070157,72.04030226700252 L 173.97114783348562,72.04030226700252 L 173.9962322030488,72.04030226700252 L 174.0389293835267,72.04030226700252 L 175.5276150474745,72.04030226700252 L 175.56545661070126,72.04030226700252 L 177.06811785197715,72.04030226700252 L 177.10753614700502,72.04030226700252 L 177.1589949394232,72.04030226700252 L 178.61849314764356,72.04030226700252 L 178.65706932455038,72.04030226700252 L 178.68080988860126,72.04030226700252 L 180.1685817648007,72.04030226700252 L 180.20445241327604,72.04030226700252 L 180.24227605909599,72.04030226700252 L 181.71757742014117,72.04030226700252 L 181.75176383237442,72.04030226700252 L 181.79051918334952,72.04030226700252 L 183.26397505149112,72.04030226700252 L 183.29470340420605,72.04030226700252 L 183.33333333333334,72.04030226700252" fill="none" stroke="none"/>
  </g>
  
  <!-- Footer -->
  <text x="400" y="580" text-anchor="middle" fill="#94a3b8" font-size="12" font-family="Arial, sans-serif">
    Generated by GitHub User Rank Tracker • 3/20/2026
    <animate attributeName="opacity" values="0;1" dur="0.5s" begin="5s" fill="freeze"/>
  </text>
</svg>