<svg width="800" height="600" xmlns="http://www.w3.org/2000/svg">
  <defs>
    <linearGradient id="bgGradient" x1="0%" y1="0%" x2="100%" y2="100%">
      <stop offset="0%" style="stop-color:#f8fafc;stop-opacity:1" />
      <stop offset="100%" style="stop-color:#e2e8f0;stop-opacity:1" />
    </linearGradient>
    <filter id="shadow" x="-20%" y="-20%" width="140%" height="140%">
      <feDropShadow dx="2" dy="2" stdDeviation="3" flood-color="#00000020" flood-opacity="0.1"/>
    </filter>
    <!-- Trail effect filter -->
    <filter id="trailGlow" x="-50%" y="-50%" width="200%" height="200%">
      <feGaussianBlur stdDeviation="3" result="coloredBlur"/>
      <feMerge> 
        <feMergeNode in="coloredBlur"/>
        <feMergeNode in="SourceGraphic"/>
      </feMerge>
    </filter>
  </defs>
  
  <!-- Background -->
  <rect width="800" height="600" fill="url(#bgGradient)" rx="12"/>
  
  <!-- Header -->
  <text x="400" y="40" text-anchor="middle" fill="#0f172a" font-size="24" font-weight="bold" font-family="Arial, sans-serif">
    GitHub Progress Report
    <animate attributeName="opacity" values="0;1" dur="0.8s" begin="0s" fill="freeze"/>
    <animateTransform attributeName="transform" type="translate" values="0,-20;0,0" dur="0.8s" begin="0s" fill="freeze"/>
  </text>
  
  <!-- User Info -->
  <text x="400" y="70" text-anchor="middle" fill="#475569" font-size="16" font-family="Arial, sans-serif">
    @maifeeulasad • BANGLADESH • 100 days analyzed
    <animate attributeName="opacity" values="0;1" dur="0.6s" begin="0.3s" fill="freeze"/>
  </text>
  
  <!-- Progress Cards -->
  <!-- Followers Card -->
  <g transform="translate(60, 100)">
    <rect width="206.66666666666666" height="120" fill="#ffffff" stroke="#e2e8f0" stroke-width="1" rx="8" filter="url(#shadow)">
      <animate attributeName="opacity" values="0;1" dur="0.6s" begin="0.2s" fill="freeze"/>
      <animateTransform attributeName="transform" type="scale" values="0.8;1" dur="0.6s" begin="0.2s" fill="freeze"/>
    </rect>
    <text x="103.33333333333333" y="25" text-anchor="middle" fill="#64748b" font-size="14" font-weight="bold" font-family="Arial, sans-serif">FOLLOWERS
      <animate attributeName="opacity" values="0;1" dur="0.5s" begin="0.4s" fill="freeze"/>
    </text>
    
    <text x="103.33333333333333" y="50" text-anchor="middle" fill="#22c55e" font-size="32" font-weight="bold" font-family="Arial, sans-serif">
      ↗
      <animate attributeName="opacity" values="0;1" dur="0.5s" begin="0.6s" fill="freeze"/>
      <animateTransform attributeName="transform" type="scale" values="0;1.2;1" dur="0.8s" begin="0.6s" fill="freeze"/>
    </text>
    
    <text x="103.33333333333333" y="75" text-anchor="middle" fill="#1e293b" font-size="18" font-weight="bold" font-family="Arial, sans-serif">
      +1
      <animate attributeName="opacity" values="0;1" dur="0.5s" begin="0.8s" fill="freeze"/>
    </text>
    
    <text x="103.33333333333333" y="95" text-anchor="middle" fill="#64748b" font-size="12" font-family="Arial, sans-serif">
      #467 → #466
      <animate attributeName="opacity" values="0;1" dur="0.5s" begin="1s" fill="freeze"/>
    </text>
  </g>
  
  <!-- Public Contributions Card -->
  <g transform="translate(296.66666666666663, 100)">
    <rect width="206.66666666666666" height="120" fill="#ffffff" stroke="#e2e8f0" stroke-width="1" rx="8" filter="url(#shadow)">
      <animate attributeName="opacity" values="0;1" dur="0.6s" begin="0.4s" fill="freeze"/>
      <animateTransform attributeName="transform" type="scale" values="0.8;1" dur="0.6s" begin="0.4s" fill="freeze"/>
    </rect>
    <text x="103.33333333333333" y="25" text-anchor="middle" fill="#64748b" font-size="14" font-weight="bold" font-family="Arial, sans-serif">PUBLIC
      <animate attributeName="opacity" values="0;1" dur="0.5s" begin="0.6s" fill="freeze"/>
    </text>
    
    <text x="103.33333333333333" y="50" text-anchor="middle" fill="#6b7280" font-size="32" font-weight="bold" font-family="Arial, sans-serif">
      →
      <animate attributeName="opacity" values="0;1" dur="0.5s" begin="0.8s" fill="freeze"/>
      <animateTransform attributeName="transform" type="scale" values="0;1.2;1" dur="0.8s" begin="0.8s" fill="freeze"/>
    </text>
    
    <text x="103.33333333333333" y="75" text-anchor="middle" fill="#1e293b" font-size="18" font-weight="bold" font-family="Arial, sans-serif">
      0
      <animate attributeName="opacity" values="0;1" dur="0.5s" begin="1s" fill="freeze"/>
    </text>
    
    <text x="103.33333333333333" y="95" text-anchor="middle" fill="#64748b" font-size="12" font-family="Arial, sans-serif">
      #7 → #7
      <animate attributeName="opacity" values="0;1" dur="0.5s" begin="1.2s" fill="freeze"/>
    </text>
  </g>
  
  <!-- Total Contributions Card -->
  <g transform="translate(533.3333333333333, 100)">
    <rect width="206.66666666666666" height="120" fill="#ffffff" stroke="#e2e8f0" stroke-width="1" rx="8" filter="url(#shadow)">
      <animate attributeName="opacity" values="0;1" dur="0.6s" begin="0.6s" fill="freeze"/>
      <animateTransform attributeName="transform" type="scale" values="0.8;1" dur="0.6s" begin="0.6s" fill="freeze"/>
    </rect>
    <text x="103.33333333333333" y="25" text-anchor="middle" fill="#64748b" font-size="14" font-weight="bold" font-family="Arial, sans-serif">TOTAL
      <animate attributeName="opacity" values="0;1" dur="0.5s" begin="0.8s" fill="freeze"/>
    </text>
    
    <text x="103.33333333333333" y="50" text-anchor="middle" fill="#22c55e" font-size="32" font-weight="bold" font-family="Arial, sans-serif">
      ↗
      <animate attributeName="opacity" values="0;1" dur="0.5s" begin="1s" fill="freeze"/>
      <animateTransform attributeName="transform" type="scale" values="0;1.2;1" dur="0.8s" begin="1s" fill="freeze"/>
    </text>
    
    <text x="103.33333333333333" y="75" text-anchor="middle" fill="#1e293b" font-size="18" font-weight="bold" font-family="Arial, sans-serif">
      +9
      <animate attributeName="opacity" values="0;1" dur="0.5s" begin="1.2s" fill="freeze"/>
    </text>
    
    <text x="103.33333333333333" y="95" text-anchor="middle" fill="#64748b" font-size="12" font-family="Arial, sans-serif">
      #24 → #15
      <animate attributeName="opacity" values="0;1" dur="0.5s" begin="1.4s" fill="freeze"/>
    </text>
  </g>
  
  <!-- Timeline Charts (if we have snapshots) -->
  
  <!-- 👥 Followers Count Chart -->
  <g transform="translate(60, 250)">
    <!-- Chart Background -->
    <rect x="0" y="0" width="213.33333333333334" height="200" fill="#ffffff" stroke="#e2e8f0" stroke-width="1" rx="8" filter="url(#shadow)">
      <animate attributeName="opacity" values="0;1" dur="0.5s" begin="1.8s" fill="freeze"/>
    </rect>
    
    <!-- Chart Title -->
    <text x="106.66666666666667" y="25" text-anchor="middle" fill="#1e293b" font-size="14" font-weight="bold" font-family="Arial, sans-serif">
      👥 Followers Count
      <animate attributeName="opacity" values="0;1" dur="0.5s" begin="2s" fill="freeze"/>
    </text>
    
    <!-- Y-axis labels -->
    <text x="10" y="45" fill="#64748b" font-size="10" font-family="Arial, sans-serif">150
      <animate attributeName="opacity" values="0;1" dur="0.5s" begin="2.2s" fill="freeze"/>
    </text>
    <text x="10" y="185" fill="#64748b" font-size="10" font-family="Arial, sans-serif">143
      <animate attributeName="opacity" values="0;1" dur="0.5s" begin="2.2s" fill="freeze"/>
    </text>
    
    <!-- Chart Line with draw animation that follows the circle -->
    <path d="M 30,160 L 30.01752573873747,160 L 30.045337544995704,160 L 31.540580530940908,160 L 31.565256341003785,160 L 31.595756144000894,160 L 33.088490332989814,160 L 33.11257478377014,160 L 33.13965187091975,160 L 34.6394823712993,160 L 34.665322979949025,160 L 34.697704380663346,160 L 36.189381290934975,160 L 36.21722893714973,160 L 36.24392970475589,160 L 37.74024788939665,160 L 37.757379388612414,160 L 37.786391833414015,160 L 39.28315801751125,160 L 39.30555799033521,160 L 39.331255239158864,160 L 40.83112157949493,160 L 40.85199835416687,160 L 40.88366295575082,160 L 42.37872674191344,160 L 42.40162847412866,160 L 42.43148315790843,160 L 43.92405606709302,160 L 43.946115560330064,160 L 43.97860448091394,160 L 45.47137450985937,160 L 45.5037559105737,160 L 45.536818270461865,160 L 47.02491118508166,160 L 47.048690996231585,160 L 47.078599439946146,160 L 48.572803067152314,160 L 48.59624239871531,160 L 48.626150842429865,160 L 50.12182390785329,160 L 50.15261043050255,160 L 50.18898798636866,160 L 51.670522188945604,160 L 51.69288632181305,160 L 51.721486607114684,160 L 53.2204569485378,160 L 53.23943420551426,160 L 53.26937848918533,160 L 54.76365379630454,160 L 54.78598208921547,160 L 54.81449277462581,160 L 54.85350456729603,160 L 56.31604359291825,160 L 56.34584451676324,160 L 56.375430400869135,160 L 57.86051275914139,160 L 57.88780488603011,160 L 57.91631557144045,160 L 59.41146895749436,160 L 59.42680845888421,160 L 59.462809695206886,160 L 60.95810644108687,160 L 60.98355281021489,160 L 61.004465424843346,160 L 62.507557361266066,160 L 62.53160597208987,160 L 62.56086929658709,160 L 64.0566857218366,160 L 64.08238297066025,160 L 64.11055317648366,160 L 65.603592005103,160 L 65.62400286034018,160 L 65.65552410209807,160 L 67.15467364330377,160 L 67.17671521656254,160 L 67.20762717905961,160 L 68.7018666462223,160 L 68.7275459750677,160 L 68.75847585754303,160 L 70.2492567689017,160 L 70.27404009883413,160 L 70.29258727633237,160 L 71.79451441416825,160 L 71.8295658916432,160 L 71.85323818292355,160 L 73.34615157169506,160 L 73.37021810249713,160 L 74.92031414189367,160 L 74.94672818984768,160 L 76.43917565918446,160 L 76.46239995100834,160 L 76.49005047746223,160 L 77.99092033658083,160 L 78.0198073415346,160 L 78.04736826809722,160 L 79.53922437815143,160 L 79.56891778212689,160 L 79.59789438697197,160 L 81.09018057650441,160 L 81.11788486289308,160 L 81.14171843397777,160 L 82.63409422340152,160 L 82.66242570902926,57.14285714285715 L 82.69150983374391,57.14285714285715 L 84.21074767057814,57.14285714285715 L 84.2366599591409,57.14285714285715 L 85.72616855204316,57.14285714285715 L 85.75401619825791,57.14285714285715 L 85.77267089562571,57.14285714285715 L 87.27830746896123,57.14285714285715 L 87.30602967532818,57.14285714285715 L 87.33434324097766,57.14285714285715 L 88.82365471411907,57.14285714285715 L 88.8524879591381,57.14285714285715 L 88.88793367613474,57.14285714285715 L 90.37830242799345,57.14285714285715 L 90.40855135129493,57.14285714285715 L 90.43007324518419,57.14285714285715 L 91.92554919084677,57.14285714285715 L 91.9497590814749,57.14285714285715 L 91.97939872551557,57.14285714285715 L 93.47637994935191,57.14285714285715 L 93.53125092278148,57.14285714285715 L 95.02038319614032,57.14285714285715 L 95.05005868013751,57.14285714285715 L 95.07740456696101,57.14285714285715 L 96.57035379568903,57.14285714285715 L 96.59843440162116,57.14285714285715 L 96.62775148605316,57.14285714285715 L 98.11926711652045,57.14285714285715 L 98.14790324177861,57.14285714285715 L 98.1801233626886,57.14285714285715 L 99.66683643898244,57.14285714285715 L 99.69697784241437,57.14285714285715 L 99.72794356484621,57.14285714285715 L 101.2177926373354,57.14285714285715 L 101.24736060146304,57.14285714285715 L 101.27554872726472,57.14285714285715 L 102.7682112363406,57.14285714285715 L 102.78948225053423,57.14285714285715 L 102.81892477481405,57.14285714285715 L 104.31104968454217,57.14285714285715 L 104.33841349134391,57.14285714285715 L 104.37013185286266,57.14285714285715 L 105.86003468528662,57.14285714285715 L 105.88723721228403,57.14285714285715 L 105.91718149595512,57.14285714285715 L 107.40846416670504,57.14285714285715 L 107.43423309544173,57.14285714285715 L 107.46600521689524,57.14285714285715 L 108.95796884681903,57.14285714285715 L 108.98373777555571,57.14285714285715 L 109.00762510657518,57.14285714285715 L 110.51155928197609,57.14285714285715 L 110.53351125534357,57.14285714285715 L 110.56546257657968,57.14285714285715 L 112.05513244928628,57.14285714285715 L 112.0803996186317,57.14285714285715 L 112.10882070415076,57.14285714285715 L 113.60268385177,57.14285714285715 L 113.62494046476789,57.14285714285715 L 113.65859418393862,57.14285714285715 L 115.14937509529729,57.14285714285715 L 115.17550242359916,57.14285714285715 L 115.20756126470481,57.14285714285715 L 116.69594089897676,57.14285714285715 L 116.72031206940922,57.14285714285715 L 116.75498722734072,57.14285714285715 L 118.24012334554774,57.14285714285715 L 118.27160874734912,57.14285714285715 L 118.30393638812865,57.14285714285715 L 119.79385714053089,57.14285714285715 L 119.81899887002851,57.14285714285715 L 119.8484951542431,57.14285714285715 L 121.3442219796013,57.14285714285715 L 121.37137074666394,57.14285714285715 L 121.40436142663908,57.14285714285715 L 122.88989178436782,57.14285714285715 L 122.92161014588655,57.14285714285715 L 122.95666162336148,57.14285714285715 L 124.4412422222425,57.14285714285715 L 124.46536251297934,57.14285714285715 L 124.49691959469374,57.14285714285715 L 125.99058562255213,57.14285714285715 L 126.01300351535436,57.14285714285715 L 126.04463227698179,57.14285714285715 L 127.53546694827523,57.14285714285715 L 127.56019651827289,57.14285714285715 L 127.59116224070473,57.14285714285715 L 129.0843265091719,57.14285714285715 L 129.11240711510402,57.14285714285715 L 130.635085587764,57.14285714285715 L 130.66089035645723,57.14285714285715 L 130.68535112678097,57.14285714285715 L 132.18407058850846,57.14285714285715 L 132.21379983244043,57.14285714285715 L 132.2475969114372,57.14285714285715 L 133.7225186420365,57.14285714285715 L 133.75877075805482,57.14285714285715 L 133.78968272055187,57.14285714285715 L 135.27714843593262,57.14285714285715 L 135.2965557723873,57.14285714285715 L 135.33334548775338,57.14285714285715 L 136.82593631691623,57.14285714285715 L 136.85346140352232,57.14285714285715 L 136.88397912649768,57.14285714285715 L 138.37651619572574,57.14285714285715 L 138.4025180841798,57.14285714285715 L 138.4300431707859,57.14285714285715 L 139.92069864229674,57.14285714285715 L 139.95037412629392,57.14285714285715 L 139.97979873059552,57.14285714285715 L 141.4680708449979,57.14285714285715 L 141.4952733719953,57.14285714285715 L 141.525952374775,57.14285714285715 L 143.02142832043756,57.14285714285715 L 143.052017723326,57.14285714285715 L 143.08500840330112,57.14285714285715 L 144.57225907894275,57.14285714285715 L 144.59539377087532,57.14285714285715 L 144.64651946884874,57.14285714285715 L 146.12126199966545,57.14285714285715 L 146.14479093111973,57.14285714285715 L 146.17435889524737,57.14285714285715 L 147.6643692475409,57.14285714285715 L 147.69200185401655,57.14285714285715 L 147.721211418579,57.14285714285715 L 149.21195648998116,57.14285714285715 L 149.23856765769602,57.14285714285715 L 149.26928250043224,57.14285714285715 L 150.76128197031252,57.14285714285715 L 150.7892550563751,57.14285714285715 L 150.81484478532917,57.14285714285715 L 152.3074176945138,57.14285714285715 L 152.33508614094595,57.14285714285715 L 152.36415234568233,57.14285714285715 L 153.8626030077359,57.14285714285715 L 153.89175881236358,57.14285714285715 L 153.9222406953824,57.14285714285715 L 155.40502929643753,57.14285714285715 L 155.4343463808695,40 L 155.46475658397532,40 L 156.95958741042057,40 L 156.98041042515774,40 L 157.0087419107855,40 L 158.5020853790352,40 L 158.52201239485942,40 L 158.56009234866013,40 L 160.05257565795344,40 L 160.08137306301592,40 L 160.10572631347014,40 L 161.59480482689418,40 L 161.62743710730413,40 L 161.65919130877938,40 L 163.15024101981194,40 L 163.16524004161488,40 L 163.20364255502426,40 L 164.69818666181737,40 L 164.72816678544498,40 L 164.76314658300686,40 L 166.24640110349668,40 L 166.2728689113855,40 L 166.30870886790382,40 L 167.79183794854583,40 L 167.82185391212994,40 L 167.85514923173548,40 L 169.3435826259422,40 L 169.3654449994184,40 L 169.39648240176328,40 L 170.88751419281758,40 L 170.91242296259782,40 L 170.94455348361652,40 L 172.4387033508879,40 L 172.46809211523293,40 L 172.4937356041218,40 L 173.9858246738934,40 L 174.01865407406422,40 L 174.0415737262577,40 L 175.53611783305078,40 L 175.56500483800457,40 L 175.5982643176536,40 L 177.0849057140344,40 L 177.11309383983607,40 L 177.14712387855025,40 L 178.63227791673552,40 L 178.65793932560265,40 L 178.6899623267518,40 L 180.1819617966321,40 L 180.20995280267292,40 L 180.24240588330028,40 L 181.7263592829422,40 L 181.7639733173082,40 L 181.7857460908931,40 L 183.27487836425195,40 L 183.30417752870568,40 L 183.33333333333334,40" stroke="#22c55e" stroke-width="2" fill="none" stroke-dasharray="14800" stroke-dashoffset="14800">
      <animate attributeName="stroke-dashoffset" values="14800;0" dur="3s" begin="2.6s" fill="freeze"/>
    </path>
    
    <!-- Glow effect for the line that also follows the circle -->
    <path d="M 30,160 L 30.01752573873747,160 L 30.045337544995704,160 L 31.540580530940908,160 L 31.565256341003785,160 L 31.595756144000894,160 L 33.088490332989814,160 L 33.11257478377014,160 L 33.13965187091975,160 L 34.6394823712993,160 L 34.665322979949025,160 L 34.697704380663346,160 L 36.189381290934975,160 L 36.21722893714973,160 L 36.24392970475589,160 L 37.74024788939665,160 L 37.757379388612414,160 L 37.786391833414015,160 L 39.28315801751125,160 L 39.30555799033521,160 L 39.331255239158864,160 L 40.83112157949493,160 L 40.85199835416687,160 L 40.88366295575082,160 L 42.37872674191344,160 L 42.40162847412866,160 L 42.43148315790843,160 L 43.92405606709302,160 L 43.946115560330064,160 L 43.97860448091394,160 L 45.47137450985937,160 L 45.5037559105737,160 L 45.536818270461865,160 L 47.02491118508166,160 L 47.048690996231585,160 L 47.078599439946146,160 L 48.572803067152314,160 L 48.59624239871531,160 L 48.626150842429865,160 L 50.12182390785329,160 L 50.15261043050255,160 L 50.18898798636866,160 L 51.670522188945604,160 L 51.69288632181305,160 L 51.721486607114684,160 L 53.2204569485378,160 L 53.23943420551426,160 L 53.26937848918533,160 L 54.76365379630454,160 L 54.78598208921547,160 L 54.81449277462581,160 L 54.85350456729603,160 L 56.31604359291825,160 L 56.34584451676324,160 L 56.375430400869135,160 L 57.86051275914139,160 L 57.88780488603011,160 L 57.91631557144045,160 L 59.41146895749436,160 L 59.42680845888421,160 L 59.462809695206886,160 L 60.95810644108687,160 L 60.98355281021489,160 L 61.004465424843346,160 L 62.507557361266066,160 L 62.53160597208987,160 L 62.56086929658709,160 L 64.0566857218366,160 L 64.08238297066025,160 L 64.11055317648366,160 L 65.603592005103,160 L 65.62400286034018,160 L 65.65552410209807,160 L 67.15467364330377,160 L 67.17671521656254,160 L 67.20762717905961,160 L 68.7018666462223,160 L 68.7275459750677,160 L 68.75847585754303,160 L 70.2492567689017,160 L 70.27404009883413,160 L 70.29258727633237,160 L 71.79451441416825,160 L 71.8295658916432,160 L 71.85323818292355,160 L 73.34615157169506,160 L 73.37021810249713,160 L 74.92031414189367,160 L 74.94672818984768,160 L 76.43917565918446,160 L 76.46239995100834,160 L 76.49005047746223,160 L 77.99092033658083,160 L 78.0198073415346,160 L 78.04736826809722,160 L 79.53922437815143,160 L 79.56891778212689,160 L 79.59789438697197,160 L 81.09018057650441,160 L 81.11788486289308,160 L 81.14171843397777,160 L 82.63409422340152,160 L 82.66242570902926,57.14285714285715 L 82.69150983374391,57.14285714285715 L 84.21074767057814,57.14285714285715 L 84.2366599591409,57.14285714285715 L 85.72616855204316,57.14285714285715 L 85.75401619825791,57.14285714285715 L 85.77267089562571,57.14285714285715 L 87.27830746896123,57.14285714285715 L 87.30602967532818,57.14285714285715 L 87.33434324097766,57.14285714285715 L 88.82365471411907,57.14285714285715 L 88.8524879591381,57.14285714285715 L 88.88793367613474,57.14285714285715 L 90.37830242799345,57.14285714285715 L 90.40855135129493,57.14285714285715 L 90.43007324518419,57.14285714285715 L 91.92554919084677,57.14285714285715 L 91.9497590814749,57.14285714285715 L 91.97939872551557,57.14285714285715 L 93.47637994935191,57.14285714285715 L 93.53125092278148,57.14285714285715 L 95.02038319614032,57.14285714285715 L 95.05005868013751,57.14285714285715 L 95.07740456696101,57.14285714285715 L 96.57035379568903,57.14285714285715 L 96.59843440162116,57.14285714285715 L 96.62775148605316,57.14285714285715 L 98.11926711652045,57.14285714285715 L 98.14790324177861,57.14285714285715 L 98.1801233626886,57.14285714285715 L 99.66683643898244,57.14285714285715 L 99.69697784241437,57.14285714285715 L 99.72794356484621,57.14285714285715 L 101.2177926373354,57.14285714285715 L 101.24736060146304,57.14285714285715 L 101.27554872726472,57.14285714285715 L 102.7682112363406,57.14285714285715 L 102.78948225053423,57.14285714285715 L 102.81892477481405,57.14285714285715 L 104.31104968454217,57.14285714285715 L 104.33841349134391,57.14285714285715 L 104.37013185286266,57.14285714285715 L 105.86003468528662,57.14285714285715 L 105.88723721228403,57.14285714285715 L 105.91718149595512,57.14285714285715 L 107.40846416670504,57.14285714285715 L 107.43423309544173,57.14285714285715 L 107.46600521689524,57.14285714285715 L 108.95796884681903,57.14285714285715 L 108.98373777555571,57.14285714285715 L 109.00762510657518,57.14285714285715 L 110.51155928197609,57.14285714285715 L 110.53351125534357,57.14285714285715 L 110.56546257657968,57.14285714285715 L 112.05513244928628,57.14285714285715 L 112.0803996186317,57.14285714285715 L 112.10882070415076,57.14285714285715 L 113.60268385177,57.14285714285715 L 113.62494046476789,57.14285714285715 L 113.65859418393862,57.14285714285715 L 115.14937509529729,57.14285714285715 L 115.17550242359916,57.14285714285715 L 115.20756126470481,57.14285714285715 L 116.69594089897676,57.14285714285715 L 116.72031206940922,57.14285714285715 L 116.75498722734072,57.14285714285715 L 118.24012334554774,57.14285714285715 L 118.27160874734912,57.14285714285715 L 118.30393638812865,57.14285714285715 L 119.79385714053089,57.14285714285715 L 119.81899887002851,57.14285714285715 L 119.8484951542431,57.14285714285715 L 121.3442219796013,57.14285714285715 L 121.37137074666394,57.14285714285715 L 121.40436142663908,57.14285714285715 L 122.88989178436782,57.14285714285715 L 122.92161014588655,57.14285714285715 L 122.95666162336148,57.14285714285715 L 124.4412422222425,57.14285714285715 L 124.46536251297934,57.14285714285715 L 124.49691959469374,57.14285714285715 L 125.99058562255213,57.14285714285715 L 126.01300351535436,57.14285714285715 L 126.04463227698179,57.14285714285715 L 127.53546694827523,57.14285714285715 L 127.56019651827289,57.14285714285715 L 127.59116224070473,57.14285714285715 L 129.0843265091719,57.14285714285715 L 129.11240711510402,57.14285714285715 L 130.635085587764,57.14285714285715 L 130.66089035645723,57.14285714285715 L 130.68535112678097,57.14285714285715 L 132.18407058850846,57.14285714285715 L 132.21379983244043,57.14285714285715 L 132.2475969114372,57.14285714285715 L 133.7225186420365,57.14285714285715 L 133.75877075805482,57.14285714285715 L 133.78968272055187,57.14285714285715 L 135.27714843593262,57.14285714285715 L 135.2965557723873,57.14285714285715 L 135.33334548775338,57.14285714285715 L 136.82593631691623,57.14285714285715 L 136.85346140352232,57.14285714285715 L 136.88397912649768,57.14285714285715 L 138.37651619572574,57.14285714285715 L 138.4025180841798,57.14285714285715 L 138.4300431707859,57.14285714285715 L 139.92069864229674,57.14285714285715 L 139.95037412629392,57.14285714285715 L 139.97979873059552,57.14285714285715 L 141.4680708449979,57.14285714285715 L 141.4952733719953,57.14285714285715 L 141.525952374775,57.14285714285715 L 143.02142832043756,57.14285714285715 L 143.052017723326,57.14285714285715 L 143.08500840330112,57.14285714285715 L 144.57225907894275,57.14285714285715 L 144.59539377087532,57.14285714285715 L 144.64651946884874,57.14285714285715 L 146.12126199966545,57.14285714285715 L 146.14479093111973,57.14285714285715 L 146.17435889524737,57.14285714285715 L 147.6643692475409,57.14285714285715 L 147.69200185401655,57.14285714285715 L 147.721211418579,57.14285714285715 L 149.21195648998116,57.14285714285715 L 149.23856765769602,57.14285714285715 L 149.26928250043224,57.14285714285715 L 150.76128197031252,57.14285714285715 L 150.7892550563751,57.14285714285715 L 150.81484478532917,57.14285714285715 L 152.3074176945138,57.14285714285715 L 152.33508614094595,57.14285714285715 L 152.36415234568233,57.14285714285715 L 153.8626030077359,57.14285714285715 L 153.89175881236358,57.14285714285715 L 153.9222406953824,57.14285714285715 L 155.40502929643753,57.14285714285715 L 155.4343463808695,40 L 155.46475658397532,40 L 156.95958741042057,40 L 156.98041042515774,40 L 157.0087419107855,40 L 158.5020853790352,40 L 158.52201239485942,40 L 158.56009234866013,40 L 160.05257565795344,40 L 160.08137306301592,40 L 160.10572631347014,40 L 161.59480482689418,40 L 161.62743710730413,40 L 161.65919130877938,40 L 163.15024101981194,40 L 163.16524004161488,40 L 163.20364255502426,40 L 164.69818666181737,40 L 164.72816678544498,40 L 164.76314658300686,40 L 166.24640110349668,40 L 166.2728689113855,40 L 166.30870886790382,40 L 167.79183794854583,40 L 167.82185391212994,40 L 167.85514923173548,40 L 169.3435826259422,40 L 169.3654449994184,40 L 169.39648240176328,40 L 170.88751419281758,40 L 170.91242296259782,40 L 170.94455348361652,40 L 172.4387033508879,40 L 172.46809211523293,40 L 172.4937356041218,40 L 173.9858246738934,40 L 174.01865407406422,40 L 174.0415737262577,40 L 175.53611783305078,40 L 175.56500483800457,40 L 175.5982643176536,40 L 177.0849057140344,40 L 177.11309383983607,40 L 177.14712387855025,40 L 178.63227791673552,40 L 178.65793932560265,40 L 178.6899623267518,40 L 180.1819617966321,40 L 180.20995280267292,40 L 180.24240588330028,40 L 181.7263592829422,40 L 181.7639733173082,40 L 181.7857460908931,40 L 183.27487836425195,40 L 183.30417752870568,40 L 183.33333333333334,40" stroke="#22c55e" stroke-width="4" fill="none" opacity="0.4" stroke-dasharray="14800" stroke-dashoffset="14800">
      <animate attributeName="stroke-dashoffset" values="14800;0" dur="3s" begin="2.6s" fill="freeze"/>
    </path>
    
    <!-- Animated circle that moves along the path and draws the line -->
    <circle r="5" fill="#22c55e" opacity="0" filter="url(#trailGlow)">
      <animate attributeName="opacity" values="0;1;1;1" dur="3.2s" begin="2.4s" fill="freeze"/>
      <animate attributeName="r" values="5;6;5" dur="1s" begin="2.4s" repeatCount="3"/>
      <animateMotion dur="3s" begin="2.4s" fill="freeze">
        <mpath href="#path_followersCount_60"/>
      </animateMotion>
    </circle>
    
    <!-- Small trail dots that fade out -->
    <circle r="2" fill="#22c55e" opacity="0">
      <animate attributeName="opacity" values="0;0.6;0" dur="0.8s" begin="2.8s" fill="freeze"/>
      <animateMotion dur="3s" begin="2.4s" fill="freeze">
        <mpath href="#path_followersCount_60"/>
      </animateMotion>
    </circle>
    
    <!-- Hidden path for motion animation -->
    <path id="path_followersCount_60" d="M 30,160 L 30.01752573873747,160 L 30.045337544995704,160 L 31.540580530940908,160 L 31.565256341003785,160 L 31.595756144000894,160 L 33.088490332989814,160 L 33.11257478377014,160 L 33.13965187091975,160 L 34.6394823712993,160 L 34.665322979949025,160 L 34.697704380663346,160 L 36.189381290934975,160 L 36.21722893714973,160 L 36.24392970475589,160 L 37.74024788939665,160 L 37.757379388612414,160 L 37.786391833414015,160 L 39.28315801751125,160 L 39.30555799033521,160 L 39.331255239158864,160 L 40.83112157949493,160 L 40.85199835416687,160 L 40.88366295575082,160 L 42.37872674191344,160 L 42.40162847412866,160 L 42.43148315790843,160 L 43.92405606709302,160 L 43.946115560330064,160 L 43.97860448091394,160 L 45.47137450985937,160 L 45.5037559105737,160 L 45.536818270461865,160 L 47.02491118508166,160 L 47.048690996231585,160 L 47.078599439946146,160 L 48.572803067152314,160 L 48.59624239871531,160 L 48.626150842429865,160 L 50.12182390785329,160 L 50.15261043050255,160 L 50.18898798636866,160 L 51.670522188945604,160 L 51.69288632181305,160 L 51.721486607114684,160 L 53.2204569485378,160 L 53.23943420551426,160 L 53.26937848918533,160 L 54.76365379630454,160 L 54.78598208921547,160 L 54.81449277462581,160 L 54.85350456729603,160 L 56.31604359291825,160 L 56.34584451676324,160 L 56.375430400869135,160 L 57.86051275914139,160 L 57.88780488603011,160 L 57.91631557144045,160 L 59.41146895749436,160 L 59.42680845888421,160 L 59.462809695206886,160 L 60.95810644108687,160 L 60.98355281021489,160 L 61.004465424843346,160 L 62.507557361266066,160 L 62.53160597208987,160 L 62.56086929658709,160 L 64.0566857218366,160 L 64.08238297066025,160 L 64.11055317648366,160 L 65.603592005103,160 L 65.62400286034018,160 L 65.65552410209807,160 L 67.15467364330377,160 L 67.17671521656254,160 L 67.20762717905961,160 L 68.7018666462223,160 L 68.7275459750677,160 L 68.75847585754303,160 L 70.2492567689017,160 L 70.27404009883413,160 L 70.29258727633237,160 L 71.79451441416825,160 L 71.8295658916432,160 L 71.85323818292355,160 L 73.34615157169506,160 L 73.37021810249713,160 L 74.92031414189367,160 L 74.94672818984768,160 L 76.43917565918446,160 L 76.46239995100834,160 L 76.49005047746223,160 L 77.99092033658083,160 L 78.0198073415346,160 L 78.04736826809722,160 L 79.53922437815143,160 L 79.56891778212689,160 L 79.59789438697197,160 L 81.09018057650441,160 L 81.11788486289308,160 L 81.14171843397777,160 L 82.63409422340152,160 L 82.66242570902926,57.14285714285715 L 82.69150983374391,57.14285714285715 L 84.21074767057814,57.14285714285715 L 84.2366599591409,57.14285714285715 L 85.72616855204316,57.14285714285715 L 85.75401619825791,57.14285714285715 L 85.77267089562571,57.14285714285715 L 87.27830746896123,57.14285714285715 L 87.30602967532818,57.14285714285715 L 87.33434324097766,57.14285714285715 L 88.82365471411907,57.14285714285715 L 88.8524879591381,57.14285714285715 L 88.88793367613474,57.14285714285715 L 90.37830242799345,57.14285714285715 L 90.40855135129493,57.14285714285715 L 90.43007324518419,57.14285714285715 L 91.92554919084677,57.14285714285715 L 91.9497590814749,57.14285714285715 L 91.97939872551557,57.14285714285715 L 93.47637994935191,57.14285714285715 L 93.53125092278148,57.14285714285715 L 95.02038319614032,57.14285714285715 L 95.05005868013751,57.14285714285715 L 95.07740456696101,57.14285714285715 L 96.57035379568903,57.14285714285715 L 96.59843440162116,57.14285714285715 L 96.62775148605316,57.14285714285715 L 98.11926711652045,57.14285714285715 L 98.14790324177861,57.14285714285715 L 98.1801233626886,57.14285714285715 L 99.66683643898244,57.14285714285715 L 99.69697784241437,57.14285714285715 L 99.72794356484621,57.14285714285715 L 101.2177926373354,57.14285714285715 L 101.24736060146304,57.14285714285715 L 101.27554872726472,57.14285714285715 L 102.7682112363406,57.14285714285715 L 102.78948225053423,57.14285714285715 L 102.81892477481405,57.14285714285715 L 104.31104968454217,57.14285714285715 L 104.33841349134391,57.14285714285715 L 104.37013185286266,57.14285714285715 L 105.86003468528662,57.14285714285715 L 105.88723721228403,57.14285714285715 L 105.91718149595512,57.14285714285715 L 107.40846416670504,57.14285714285715 L 107.43423309544173,57.14285714285715 L 107.46600521689524,57.14285714285715 L 108.95796884681903,57.14285714285715 L 108.98373777555571,57.14285714285715 L 109.00762510657518,57.14285714285715 L 110.51155928197609,57.14285714285715 L 110.53351125534357,57.14285714285715 L 110.56546257657968,57.14285714285715 L 112.05513244928628,57.14285714285715 L 112.0803996186317,57.14285714285715 L 112.10882070415076,57.14285714285715 L 113.60268385177,57.14285714285715 L 113.62494046476789,57.14285714285715 L 113.65859418393862,57.14285714285715 L 115.14937509529729,57.14285714285715 L 115.17550242359916,57.14285714285715 L 115.20756126470481,57.14285714285715 L 116.69594089897676,57.14285714285715 L 116.72031206940922,57.14285714285715 L 116.75498722734072,57.14285714285715 L 118.24012334554774,57.14285714285715 L 118.27160874734912,57.14285714285715 L 118.30393638812865,57.14285714285715 L 119.79385714053089,57.14285714285715 L 119.81899887002851,57.14285714285715 L 119.8484951542431,57.14285714285715 L 121.3442219796013,57.14285714285715 L 121.37137074666394,57.14285714285715 L 121.40436142663908,57.14285714285715 L 122.88989178436782,57.14285714285715 L 122.92161014588655,57.14285714285715 L 122.95666162336148,57.14285714285715 L 124.4412422222425,57.14285714285715 L 124.46536251297934,57.14285714285715 L 124.49691959469374,57.14285714285715 L 125.99058562255213,57.14285714285715 L 126.01300351535436,57.14285714285715 L 126.04463227698179,57.14285714285715 L 127.53546694827523,57.14285714285715 L 127.56019651827289,57.14285714285715 L 127.59116224070473,57.14285714285715 L 129.0843265091719,57.14285714285715 L 129.11240711510402,57.14285714285715 L 130.635085587764,57.14285714285715 L 130.66089035645723,57.14285714285715 L 130.68535112678097,57.14285714285715 L 132.18407058850846,57.14285714285715 L 132.21379983244043,57.14285714285715 L 132.2475969114372,57.14285714285715 L 133.7225186420365,57.14285714285715 L 133.75877075805482,57.14285714285715 L 133.78968272055187,57.14285714285715 L 135.27714843593262,57.14285714285715 L 135.2965557723873,57.14285714285715 L 135.33334548775338,57.14285714285715 L 136.82593631691623,57.14285714285715 L 136.85346140352232,57.14285714285715 L 136.88397912649768,57.14285714285715 L 138.37651619572574,57.14285714285715 L 138.4025180841798,57.14285714285715 L 138.4300431707859,57.14285714285715 L 139.92069864229674,57.14285714285715 L 139.95037412629392,57.14285714285715 L 139.97979873059552,57.14285714285715 L 141.4680708449979,57.14285714285715 L 141.4952733719953,57.14285714285715 L 141.525952374775,57.14285714285715 L 143.02142832043756,57.14285714285715 L 143.052017723326,57.14285714285715 L 143.08500840330112,57.14285714285715 L 144.57225907894275,57.14285714285715 L 144.59539377087532,57.14285714285715 L 144.64651946884874,57.14285714285715 L 146.12126199966545,57.14285714285715 L 146.14479093111973,57.14285714285715 L 146.17435889524737,57.14285714285715 L 147.6643692475409,57.14285714285715 L 147.69200185401655,57.14285714285715 L 147.721211418579,57.14285714285715 L 149.21195648998116,57.14285714285715 L 149.23856765769602,57.14285714285715 L 149.26928250043224,57.14285714285715 L 150.76128197031252,57.14285714285715 L 150.7892550563751,57.14285714285715 L 150.81484478532917,57.14285714285715 L 152.3074176945138,57.14285714285715 L 152.33508614094595,57.14285714285715 L 152.36415234568233,57.14285714285715 L 153.8626030077359,57.14285714285715 L 153.89175881236358,57.14285714285715 L 153.9222406953824,57.14285714285715 L 155.40502929643753,57.14285714285715 L 155.4343463808695,40 L 155.46475658397532,40 L 156.95958741042057,40 L 156.98041042515774,40 L 157.0087419107855,40 L 158.5020853790352,40 L 158.52201239485942,40 L 158.56009234866013,40 L 160.05257565795344,40 L 160.08137306301592,40 L 160.10572631347014,40 L 161.59480482689418,40 L 161.62743710730413,40 L 161.65919130877938,40 L 163.15024101981194,40 L 163.16524004161488,40 L 163.20364255502426,40 L 164.69818666181737,40 L 164.72816678544498,40 L 164.76314658300686,40 L 166.24640110349668,40 L 166.2728689113855,40 L 166.30870886790382,40 L 167.79183794854583,40 L 167.82185391212994,40 L 167.85514923173548,40 L 169.3435826259422,40 L 169.3654449994184,40 L 169.39648240176328,40 L 170.88751419281758,40 L 170.91242296259782,40 L 170.94455348361652,40 L 172.4387033508879,40 L 172.46809211523293,40 L 172.4937356041218,40 L 173.9858246738934,40 L 174.01865407406422,40 L 174.0415737262577,40 L 175.53611783305078,40 L 175.56500483800457,40 L 175.5982643176536,40 L 177.0849057140344,40 L 177.11309383983607,40 L 177.14712387855025,40 L 178.63227791673552,40 L 178.65793932560265,40 L 178.6899623267518,40 L 180.1819617966321,40 L 180.20995280267292,40 L 180.24240588330028,40 L 181.7263592829422,40 L 181.7639733173082,40 L 181.7857460908931,40 L 183.27487836425195,40 L 183.30417752870568,40 L 183.33333333333334,40" fill="none" stroke="none"/>
  </g>
  <!-- 🔓 Public Contributions Chart -->
  <g transform="translate(293.33333333333337, 250)">
    <!-- Chart Background -->
    <rect x="0" y="0" width="213.33333333333334" height="200" fill="#ffffff" stroke="#e2e8f0" stroke-width="1" rx="8" filter="url(#shadow)">
      <animate attributeName="opacity" values="0;1" dur="0.5s" begin="2.3s" fill="freeze"/>
    </rect>
    
    <!-- Chart Title -->
    <text x="106.66666666666667" y="25" text-anchor="middle" fill="#1e293b" font-size="14" font-weight="bold" font-family="Arial, sans-serif">
      🔓 Public Contributions
      <animate attributeName="opacity" values="0;1" dur="0.5s" begin="2.5s" fill="freeze"/>
    </text>
    
    <!-- Y-axis labels -->
    <text x="10" y="45" fill="#64748b" font-size="10" font-family="Arial, sans-serif">3,434
      <animate attributeName="opacity" values="0;1" dur="0.5s" begin="2.6999999999999997s" fill="freeze"/>
    </text>
    <text x="10" y="185" fill="#64748b" font-size="10" font-family="Arial, sans-serif">2,669
      <animate attributeName="opacity" values="0;1" dur="0.5s" begin="2.6999999999999997s" fill="freeze"/>
    </text>
    
    <!-- Chart Line with draw animation that follows the circle -->
    <path d="M 30,160 L 30.01752573873747,160 L 30.045337544995704,160 L 31.540580530940908,160 L 31.565256341003785,160 L 31.595756144000894,160 L 33.088490332989814,160 L 33.11257478377014,160 L 33.13965187091975,160 L 34.6394823712993,160 L 34.665322979949025,160 L 34.697704380663346,160 L 36.189381290934975,160 L 36.21722893714973,160 L 36.24392970475589,160 L 37.74024788939665,160 L 37.757379388612414,160 L 37.786391833414015,160 L 39.28315801751125,160 L 39.30555799033521,160 L 39.331255239158864,160 L 40.83112157949493,160 L 40.85199835416687,160 L 40.88366295575082,160 L 42.37872674191344,160 L 42.40162847412866,160 L 42.43148315790843,160 L 43.92405606709302,160 L 43.946115560330064,160 L 43.97860448091394,160 L 45.47137450985937,160 L 45.5037559105737,160 L 45.536818270461865,160 L 47.02491118508166,160 L 47.048690996231585,160 L 47.078599439946146,160 L 48.572803067152314,160 L 48.59624239871531,160 L 48.626150842429865,160 L 50.12182390785329,160 L 50.15261043050255,160 L 50.18898798636866,160 L 51.670522188945604,160 L 51.69288632181305,160 L 51.721486607114684,160 L 53.2204569485378,160 L 53.23943420551426,160 L 53.26937848918533,160 L 54.76365379630454,160 L 54.78598208921547,160 L 54.81449277462581,160 L 54.85350456729603,160 L 56.31604359291825,160 L 56.34584451676324,160 L 56.375430400869135,160 L 57.86051275914139,160 L 57.88780488603011,160 L 57.91631557144045,160 L 59.41146895749436,160 L 59.42680845888421,160 L 59.462809695206886,160 L 60.95810644108687,160 L 60.98355281021489,160 L 61.004465424843346,160 L 62.507557361266066,160 L 62.53160597208987,160 L 62.56086929658709,160 L 64.0566857218366,160 L 64.08238297066025,160 L 64.11055317648366,160 L 65.603592005103,160 L 65.62400286034018,160 L 65.65552410209807,160 L 67.15467364330377,160 L 67.17671521656254,160 L 67.20762717905961,160 L 68.7018666462223,160 L 68.7275459750677,160 L 68.75847585754303,160 L 70.2492567689017,160 L 70.27404009883413,160 L 70.29258727633237,160 L 71.79451441416825,160 L 71.8295658916432,160 L 71.85323818292355,160 L 73.34615157169506,160 L 73.37021810249713,160 L 74.92031414189367,160 L 74.94672818984768,160 L 76.43917565918446,160 L 76.46239995100834,160 L 76.49005047746223,160 L 77.99092033658083,160 L 78.0198073415346,160 L 78.04736826809722,160 L 79.53922437815143,160 L 79.56891778212689,160 L 79.59789438697197,160 L 81.09018057650441,160 L 81.11788486289308,160 L 81.14171843397777,160 L 82.63409422340152,160 L 82.66242570902926,79.84313725490196 L 82.69150983374391,79.84313725490196 L 84.21074767057814,79.84313725490196 L 84.2366599591409,79.84313725490196 L 85.72616855204316,79.84313725490196 L 85.75401619825791,79.84313725490196 L 85.77267089562571,79.84313725490196 L 87.27830746896123,79.84313725490196 L 87.30602967532818,79.84313725490196 L 87.33434324097766,79.84313725490196 L 88.82365471411907,79.84313725490196 L 88.8524879591381,79.84313725490196 L 88.88793367613474,79.84313725490196 L 90.37830242799345,79.84313725490196 L 90.40855135129493,79.84313725490196 L 90.43007324518419,79.84313725490196 L 91.92554919084677,79.84313725490196 L 91.9497590814749,79.84313725490196 L 91.97939872551557,79.84313725490196 L 93.47637994935191,79.84313725490196 L 93.53125092278148,79.84313725490196 L 95.02038319614032,79.84313725490196 L 95.05005868013751,79.84313725490196 L 95.07740456696101,79.84313725490196 L 96.57035379568903,79.84313725490196 L 96.59843440162116,79.84313725490196 L 96.62775148605316,79.84313725490196 L 98.11926711652045,79.84313725490196 L 98.14790324177861,79.84313725490196 L 98.1801233626886,79.84313725490196 L 99.66683643898244,79.84313725490196 L 99.69697784241437,79.84313725490196 L 99.72794356484621,79.84313725490196 L 101.2177926373354,79.84313725490196 L 101.24736060146304,79.84313725490196 L 101.27554872726472,79.84313725490196 L 102.7682112363406,79.84313725490196 L 102.78948225053423,79.84313725490196 L 102.81892477481405,79.84313725490196 L 104.31104968454217,79.84313725490196 L 104.33841349134391,79.84313725490196 L 104.37013185286266,79.84313725490196 L 105.86003468528662,79.84313725490196 L 105.88723721228403,79.84313725490196 L 105.91718149595512,79.84313725490196 L 107.40846416670504,79.84313725490196 L 107.43423309544173,79.84313725490196 L 107.46600521689524,79.84313725490196 L 108.95796884681903,79.84313725490196 L 108.98373777555571,79.84313725490196 L 109.00762510657518,79.84313725490196 L 110.51155928197609,79.84313725490196 L 110.53351125534357,79.84313725490196 L 110.56546257657968,79.84313725490196 L 112.05513244928628,79.84313725490196 L 112.0803996186317,79.84313725490196 L 112.10882070415076,79.84313725490196 L 113.60268385177,79.84313725490196 L 113.62494046476789,79.84313725490196 L 113.65859418393862,79.84313725490196 L 115.14937509529729,79.84313725490196 L 115.17550242359916,79.84313725490196 L 115.20756126470481,79.84313725490196 L 116.69594089897676,79.84313725490196 L 116.72031206940922,79.84313725490196 L 116.75498722734072,79.84313725490196 L 118.24012334554774,79.84313725490196 L 118.27160874734912,79.84313725490196 L 118.30393638812865,79.84313725490196 L 119.79385714053089,79.84313725490196 L 119.81899887002851,79.84313725490196 L 119.8484951542431,79.84313725490196 L 121.3442219796013,79.84313725490196 L 121.37137074666394,79.84313725490196 L 121.40436142663908,79.84313725490196 L 122.88989178436782,79.84313725490196 L 122.92161014588655,79.84313725490196 L 122.95666162336148,79.84313725490196 L 124.4412422222425,79.84313725490196 L 124.46536251297934,79.84313725490196 L 124.49691959469374,79.84313725490196 L 125.99058562255213,79.84313725490196 L 126.01300351535436,79.84313725490196 L 126.04463227698179,79.84313725490196 L 127.53546694827523,79.84313725490196 L 127.56019651827289,79.84313725490196 L 127.59116224070473,79.84313725490196 L 129.0843265091719,79.84313725490196 L 129.11240711510402,79.84313725490196 L 130.635085587764,79.84313725490196 L 130.66089035645723,79.84313725490196 L 130.68535112678097,79.84313725490196 L 132.18407058850846,79.84313725490196 L 132.21379983244043,79.84313725490196 L 132.2475969114372,79.84313725490196 L 133.7225186420365,79.84313725490196 L 133.75877075805482,79.84313725490196 L 133.78968272055187,79.84313725490196 L 135.27714843593262,79.84313725490196 L 135.2965557723873,79.84313725490196 L 135.33334548775338,79.84313725490196 L 136.82593631691623,79.84313725490196 L 136.85346140352232,79.84313725490196 L 136.88397912649768,79.84313725490196 L 138.37651619572574,79.84313725490196 L 138.4025180841798,79.84313725490196 L 138.4300431707859,79.84313725490196 L 139.92069864229674,79.84313725490196 L 139.95037412629392,79.84313725490196 L 139.97979873059552,79.84313725490196 L 141.4680708449979,79.84313725490196 L 141.4952733719953,79.84313725490196 L 141.525952374775,79.84313725490196 L 143.02142832043756,79.84313725490196 L 143.052017723326,79.84313725490196 L 143.08500840330112,79.84313725490196 L 144.57225907894275,79.84313725490196 L 144.59539377087532,79.84313725490196 L 144.64651946884874,79.84313725490196 L 146.12126199966545,79.84313725490196 L 146.14479093111973,79.84313725490196 L 146.17435889524737,79.84313725490196 L 147.6643692475409,79.84313725490196 L 147.69200185401655,79.84313725490196 L 147.721211418579,79.84313725490196 L 149.21195648998116,79.84313725490196 L 149.23856765769602,79.84313725490196 L 149.26928250043224,79.84313725490196 L 150.76128197031252,79.84313725490196 L 150.7892550563751,79.84313725490196 L 150.81484478532917,79.84313725490196 L 152.3074176945138,79.84313725490196 L 152.33508614094595,79.84313725490196 L 152.36415234568233,79.84313725490196 L 153.8626030077359,79.84313725490196 L 153.89175881236358,79.84313725490196 L 153.9222406953824,79.84313725490196 L 155.40502929643753,79.84313725490196 L 155.4343463808695,40 L 155.46475658397532,40 L 156.95958741042057,40 L 156.98041042515774,40 L 157.0087419107855,40 L 158.5020853790352,40 L 158.52201239485942,40 L 158.56009234866013,40 L 160.05257565795344,40 L 160.08137306301592,40 L 160.10572631347014,40 L 161.59480482689418,40 L 161.62743710730413,40 L 161.65919130877938,40 L 163.15024101981194,40 L 163.16524004161488,40 L 163.20364255502426,40 L 164.69818666181737,40 L 164.72816678544498,40 L 164.76314658300686,40 L 166.24640110349668,40 L 166.2728689113855,40 L 166.30870886790382,40 L 167.79183794854583,40 L 167.82185391212994,40 L 167.85514923173548,40 L 169.3435826259422,40 L 169.3654449994184,40 L 169.39648240176328,40 L 170.88751419281758,40 L 170.91242296259782,40 L 170.94455348361652,40 L 172.4387033508879,40 L 172.46809211523293,40 L 172.4937356041218,40 L 173.9858246738934,40 L 174.01865407406422,40 L 174.0415737262577,40 L 175.53611783305078,40 L 175.56500483800457,40 L 175.5982643176536,40 L 177.0849057140344,40 L 177.11309383983607,40 L 177.14712387855025,40 L 178.63227791673552,40 L 178.65793932560265,40 L 178.6899623267518,40 L 180.1819617966321,40 L 180.20995280267292,40 L 180.24240588330028,40 L 181.7263592829422,40 L 181.7639733173082,40 L 181.7857460908931,40 L 183.27487836425195,40 L 183.30417752870568,40 L 183.33333333333334,40" stroke="#3b82f6" stroke-width="2" fill="none" stroke-dasharray="14800" stroke-dashoffset="14800">
      <animate attributeName="stroke-dashoffset" values="14800;0" dur="3s" begin="3.0999999999999996s" fill="freeze"/>
    </path>
    
    <!-- Glow effect for the line that also follows the circle -->
    <path d="M 30,160 L 30.01752573873747,160 L 30.045337544995704,160 L 31.540580530940908,160 L 31.565256341003785,160 L 31.595756144000894,160 L 33.088490332989814,160 L 33.11257478377014,160 L 33.13965187091975,160 L 34.6394823712993,160 L 34.665322979949025,160 L 34.697704380663346,160 L 36.189381290934975,160 L 36.21722893714973,160 L 36.24392970475589,160 L 37.74024788939665,160 L 37.757379388612414,160 L 37.786391833414015,160 L 39.28315801751125,160 L 39.30555799033521,160 L 39.331255239158864,160 L 40.83112157949493,160 L 40.85199835416687,160 L 40.88366295575082,160 L 42.37872674191344,160 L 42.40162847412866,160 L 42.43148315790843,160 L 43.92405606709302,160 L 43.946115560330064,160 L 43.97860448091394,160 L 45.47137450985937,160 L 45.5037559105737,160 L 45.536818270461865,160 L 47.02491118508166,160 L 47.048690996231585,160 L 47.078599439946146,160 L 48.572803067152314,160 L 48.59624239871531,160 L 48.626150842429865,160 L 50.12182390785329,160 L 50.15261043050255,160 L 50.18898798636866,160 L 51.670522188945604,160 L 51.69288632181305,160 L 51.721486607114684,160 L 53.2204569485378,160 L 53.23943420551426,160 L 53.26937848918533,160 L 54.76365379630454,160 L 54.78598208921547,160 L 54.81449277462581,160 L 54.85350456729603,160 L 56.31604359291825,160 L 56.34584451676324,160 L 56.375430400869135,160 L 57.86051275914139,160 L 57.88780488603011,160 L 57.91631557144045,160 L 59.41146895749436,160 L 59.42680845888421,160 L 59.462809695206886,160 L 60.95810644108687,160 L 60.98355281021489,160 L 61.004465424843346,160 L 62.507557361266066,160 L 62.53160597208987,160 L 62.56086929658709,160 L 64.0566857218366,160 L 64.08238297066025,160 L 64.11055317648366,160 L 65.603592005103,160 L 65.62400286034018,160 L 65.65552410209807,160 L 67.15467364330377,160 L 67.17671521656254,160 L 67.20762717905961,160 L 68.7018666462223,160 L 68.7275459750677,160 L 68.75847585754303,160 L 70.2492567689017,160 L 70.27404009883413,160 L 70.29258727633237,160 L 71.79451441416825,160 L 71.8295658916432,160 L 71.85323818292355,160 L 73.34615157169506,160 L 73.37021810249713,160 L 74.92031414189367,160 L 74.94672818984768,160 L 76.43917565918446,160 L 76.46239995100834,160 L 76.49005047746223,160 L 77.99092033658083,160 L 78.0198073415346,160 L 78.04736826809722,160 L 79.53922437815143,160 L 79.56891778212689,160 L 79.59789438697197,160 L 81.09018057650441,160 L 81.11788486289308,160 L 81.14171843397777,160 L 82.63409422340152,160 L 82.66242570902926,79.84313725490196 L 82.69150983374391,79.84313725490196 L 84.21074767057814,79.84313725490196 L 84.2366599591409,79.84313725490196 L 85.72616855204316,79.84313725490196 L 85.75401619825791,79.84313725490196 L 85.77267089562571,79.84313725490196 L 87.27830746896123,79.84313725490196 L 87.30602967532818,79.84313725490196 L 87.33434324097766,79.84313725490196 L 88.82365471411907,79.84313725490196 L 88.8524879591381,79.84313725490196 L 88.88793367613474,79.84313725490196 L 90.37830242799345,79.84313725490196 L 90.40855135129493,79.84313725490196 L 90.43007324518419,79.84313725490196 L 91.92554919084677,79.84313725490196 L 91.9497590814749,79.84313725490196 L 91.97939872551557,79.84313725490196 L 93.47637994935191,79.84313725490196 L 93.53125092278148,79.84313725490196 L 95.02038319614032,79.84313725490196 L 95.05005868013751,79.84313725490196 L 95.07740456696101,79.84313725490196 L 96.57035379568903,79.84313725490196 L 96.59843440162116,79.84313725490196 L 96.62775148605316,79.84313725490196 L 98.11926711652045,79.84313725490196 L 98.14790324177861,79.84313725490196 L 98.1801233626886,79.84313725490196 L 99.66683643898244,79.84313725490196 L 99.69697784241437,79.84313725490196 L 99.72794356484621,79.84313725490196 L 101.2177926373354,79.84313725490196 L 101.24736060146304,79.84313725490196 L 101.27554872726472,79.84313725490196 L 102.7682112363406,79.84313725490196 L 102.78948225053423,79.84313725490196 L 102.81892477481405,79.84313725490196 L 104.31104968454217,79.84313725490196 L 104.33841349134391,79.84313725490196 L 104.37013185286266,79.84313725490196 L 105.86003468528662,79.84313725490196 L 105.88723721228403,79.84313725490196 L 105.91718149595512,79.84313725490196 L 107.40846416670504,79.84313725490196 L 107.43423309544173,79.84313725490196 L 107.46600521689524,79.84313725490196 L 108.95796884681903,79.84313725490196 L 108.98373777555571,79.84313725490196 L 109.00762510657518,79.84313725490196 L 110.51155928197609,79.84313725490196 L 110.53351125534357,79.84313725490196 L 110.56546257657968,79.84313725490196 L 112.05513244928628,79.84313725490196 L 112.0803996186317,79.84313725490196 L 112.10882070415076,79.84313725490196 L 113.60268385177,79.84313725490196 L 113.62494046476789,79.84313725490196 L 113.65859418393862,79.84313725490196 L 115.14937509529729,79.84313725490196 L 115.17550242359916,79.84313725490196 L 115.20756126470481,79.84313725490196 L 116.69594089897676,79.84313725490196 L 116.72031206940922,79.84313725490196 L 116.75498722734072,79.84313725490196 L 118.24012334554774,79.84313725490196 L 118.27160874734912,79.84313725490196 L 118.30393638812865,79.84313725490196 L 119.79385714053089,79.84313725490196 L 119.81899887002851,79.84313725490196 L 119.8484951542431,79.84313725490196 L 121.3442219796013,79.84313725490196 L 121.37137074666394,79.84313725490196 L 121.40436142663908,79.84313725490196 L 122.88989178436782,79.84313725490196 L 122.92161014588655,79.84313725490196 L 122.95666162336148,79.84313725490196 L 124.4412422222425,79.84313725490196 L 124.46536251297934,79.84313725490196 L 124.49691959469374,79.84313725490196 L 125.99058562255213,79.84313725490196 L 126.01300351535436,79.84313725490196 L 126.04463227698179,79.84313725490196 L 127.53546694827523,79.84313725490196 L 127.56019651827289,79.84313725490196 L 127.59116224070473,79.84313725490196 L 129.0843265091719,79.84313725490196 L 129.11240711510402,79.84313725490196 L 130.635085587764,79.84313725490196 L 130.66089035645723,79.84313725490196 L 130.68535112678097,79.84313725490196 L 132.18407058850846,79.84313725490196 L 132.21379983244043,79.84313725490196 L 132.2475969114372,79.84313725490196 L 133.7225186420365,79.84313725490196 L 133.75877075805482,79.84313725490196 L 133.78968272055187,79.84313725490196 L 135.27714843593262,79.84313725490196 L 135.2965557723873,79.84313725490196 L 135.33334548775338,79.84313725490196 L 136.82593631691623,79.84313725490196 L 136.85346140352232,79.84313725490196 L 136.88397912649768,79.84313725490196 L 138.37651619572574,79.84313725490196 L 138.4025180841798,79.84313725490196 L 138.4300431707859,79.84313725490196 L 139.92069864229674,79.84313725490196 L 139.95037412629392,79.84313725490196 L 139.97979873059552,79.84313725490196 L 141.4680708449979,79.84313725490196 L 141.4952733719953,79.84313725490196 L 141.525952374775,79.84313725490196 L 143.02142832043756,79.84313725490196 L 143.052017723326,79.84313725490196 L 143.08500840330112,79.84313725490196 L 144.57225907894275,79.84313725490196 L 144.59539377087532,79.84313725490196 L 144.64651946884874,79.84313725490196 L 146.12126199966545,79.84313725490196 L 146.14479093111973,79.84313725490196 L 146.17435889524737,79.84313725490196 L 147.6643692475409,79.84313725490196 L 147.69200185401655,79.84313725490196 L 147.721211418579,79.84313725490196 L 149.21195648998116,79.84313725490196 L 149.23856765769602,79.84313725490196 L 149.26928250043224,79.84313725490196 L 150.76128197031252,79.84313725490196 L 150.7892550563751,79.84313725490196 L 150.81484478532917,79.84313725490196 L 152.3074176945138,79.84313725490196 L 152.33508614094595,79.84313725490196 L 152.36415234568233,79.84313725490196 L 153.8626030077359,79.84313725490196 L 153.89175881236358,79.84313725490196 L 153.9222406953824,79.84313725490196 L 155.40502929643753,79.84313725490196 L 155.4343463808695,40 L 155.46475658397532,40 L 156.95958741042057,40 L 156.98041042515774,40 L 157.0087419107855,40 L 158.5020853790352,40 L 158.52201239485942,40 L 158.56009234866013,40 L 160.05257565795344,40 L 160.08137306301592,40 L 160.10572631347014,40 L 161.59480482689418,40 L 161.62743710730413,40 L 161.65919130877938,40 L 163.15024101981194,40 L 163.16524004161488,40 L 163.20364255502426,40 L 164.69818666181737,40 L 164.72816678544498,40 L 164.76314658300686,40 L 166.24640110349668,40 L 166.2728689113855,40 L 166.30870886790382,40 L 167.79183794854583,40 L 167.82185391212994,40 L 167.85514923173548,40 L 169.3435826259422,40 L 169.3654449994184,40 L 169.39648240176328,40 L 170.88751419281758,40 L 170.91242296259782,40 L 170.94455348361652,40 L 172.4387033508879,40 L 172.46809211523293,40 L 172.4937356041218,40 L 173.9858246738934,40 L 174.01865407406422,40 L 174.0415737262577,40 L 175.53611783305078,40 L 175.56500483800457,40 L 175.5982643176536,40 L 177.0849057140344,40 L 177.11309383983607,40 L 177.14712387855025,40 L 178.63227791673552,40 L 178.65793932560265,40 L 178.6899623267518,40 L 180.1819617966321,40 L 180.20995280267292,40 L 180.24240588330028,40 L 181.7263592829422,40 L 181.7639733173082,40 L 181.7857460908931,40 L 183.27487836425195,40 L 183.30417752870568,40 L 183.33333333333334,40" stroke="#3b82f6" stroke-width="4" fill="none" opacity="0.4" stroke-dasharray="14800" stroke-dashoffset="14800">
      <animate attributeName="stroke-dashoffset" values="14800;0" dur="3s" begin="3.0999999999999996s" fill="freeze"/>
    </path>
    
    <!-- Animated circle that moves along the path and draws the line -->
    <circle r="5" fill="#3b82f6" opacity="0" filter="url(#trailGlow)">
      <animate attributeName="opacity" values="0;1;1;1" dur="3.2s" begin="2.9s" fill="freeze"/>
      <animate attributeName="r" values="5;6;5" dur="1s" begin="2.9s" repeatCount="3"/>
      <animateMotion dur="3s" begin="2.9s" fill="freeze">
        <mpath href="#path_publicContributions_293.33333333333337"/>
      </animateMotion>
    </circle>
    
    <!-- Small trail dots that fade out -->
    <circle r="2" fill="#3b82f6" opacity="0">
      <animate attributeName="opacity" values="0;0.6;0" dur="0.8s" begin="3.3s" fill="freeze"/>
      <animateMotion dur="3s" begin="2.9s" fill="freeze">
        <mpath href="#path_publicContributions_293.33333333333337"/>
      </animateMotion>
    </circle>
    
    <!-- Hidden path for motion animation -->
    <path id="path_publicContributions_293.33333333333337" d="M 30,160 L 30.01752573873747,160 L 30.045337544995704,160 L 31.540580530940908,160 L 31.565256341003785,160 L 31.595756144000894,160 L 33.088490332989814,160 L 33.11257478377014,160 L 33.13965187091975,160 L 34.6394823712993,160 L 34.665322979949025,160 L 34.697704380663346,160 L 36.189381290934975,160 L 36.21722893714973,160 L 36.24392970475589,160 L 37.74024788939665,160 L 37.757379388612414,160 L 37.786391833414015,160 L 39.28315801751125,160 L 39.30555799033521,160 L 39.331255239158864,160 L 40.83112157949493,160 L 40.85199835416687,160 L 40.88366295575082,160 L 42.37872674191344,160 L 42.40162847412866,160 L 42.43148315790843,160 L 43.92405606709302,160 L 43.946115560330064,160 L 43.97860448091394,160 L 45.47137450985937,160 L 45.5037559105737,160 L 45.536818270461865,160 L 47.02491118508166,160 L 47.048690996231585,160 L 47.078599439946146,160 L 48.572803067152314,160 L 48.59624239871531,160 L 48.626150842429865,160 L 50.12182390785329,160 L 50.15261043050255,160 L 50.18898798636866,160 L 51.670522188945604,160 L 51.69288632181305,160 L 51.721486607114684,160 L 53.2204569485378,160 L 53.23943420551426,160 L 53.26937848918533,160 L 54.76365379630454,160 L 54.78598208921547,160 L 54.81449277462581,160 L 54.85350456729603,160 L 56.31604359291825,160 L 56.34584451676324,160 L 56.375430400869135,160 L 57.86051275914139,160 L 57.88780488603011,160 L 57.91631557144045,160 L 59.41146895749436,160 L 59.42680845888421,160 L 59.462809695206886,160 L 60.95810644108687,160 L 60.98355281021489,160 L 61.004465424843346,160 L 62.507557361266066,160 L 62.53160597208987,160 L 62.56086929658709,160 L 64.0566857218366,160 L 64.08238297066025,160 L 64.11055317648366,160 L 65.603592005103,160 L 65.62400286034018,160 L 65.65552410209807,160 L 67.15467364330377,160 L 67.17671521656254,160 L 67.20762717905961,160 L 68.7018666462223,160 L 68.7275459750677,160 L 68.75847585754303,160 L 70.2492567689017,160 L 70.27404009883413,160 L 70.29258727633237,160 L 71.79451441416825,160 L 71.8295658916432,160 L 71.85323818292355,160 L 73.34615157169506,160 L 73.37021810249713,160 L 74.92031414189367,160 L 74.94672818984768,160 L 76.43917565918446,160 L 76.46239995100834,160 L 76.49005047746223,160 L 77.99092033658083,160 L 78.0198073415346,160 L 78.04736826809722,160 L 79.53922437815143,160 L 79.56891778212689,160 L 79.59789438697197,160 L 81.09018057650441,160 L 81.11788486289308,160 L 81.14171843397777,160 L 82.63409422340152,160 L 82.66242570902926,79.84313725490196 L 82.69150983374391,79.84313725490196 L 84.21074767057814,79.84313725490196 L 84.2366599591409,79.84313725490196 L 85.72616855204316,79.84313725490196 L 85.75401619825791,79.84313725490196 L 85.77267089562571,79.84313725490196 L 87.27830746896123,79.84313725490196 L 87.30602967532818,79.84313725490196 L 87.33434324097766,79.84313725490196 L 88.82365471411907,79.84313725490196 L 88.8524879591381,79.84313725490196 L 88.88793367613474,79.84313725490196 L 90.37830242799345,79.84313725490196 L 90.40855135129493,79.84313725490196 L 90.43007324518419,79.84313725490196 L 91.92554919084677,79.84313725490196 L 91.9497590814749,79.84313725490196 L 91.97939872551557,79.84313725490196 L 93.47637994935191,79.84313725490196 L 93.53125092278148,79.84313725490196 L 95.02038319614032,79.84313725490196 L 95.05005868013751,79.84313725490196 L 95.07740456696101,79.84313725490196 L 96.57035379568903,79.84313725490196 L 96.59843440162116,79.84313725490196 L 96.62775148605316,79.84313725490196 L 98.11926711652045,79.84313725490196 L 98.14790324177861,79.84313725490196 L 98.1801233626886,79.84313725490196 L 99.66683643898244,79.84313725490196 L 99.69697784241437,79.84313725490196 L 99.72794356484621,79.84313725490196 L 101.2177926373354,79.84313725490196 L 101.24736060146304,79.84313725490196 L 101.27554872726472,79.84313725490196 L 102.7682112363406,79.84313725490196 L 102.78948225053423,79.84313725490196 L 102.81892477481405,79.84313725490196 L 104.31104968454217,79.84313725490196 L 104.33841349134391,79.84313725490196 L 104.37013185286266,79.84313725490196 L 105.86003468528662,79.84313725490196 L 105.88723721228403,79.84313725490196 L 105.91718149595512,79.84313725490196 L 107.40846416670504,79.84313725490196 L 107.43423309544173,79.84313725490196 L 107.46600521689524,79.84313725490196 L 108.95796884681903,79.84313725490196 L 108.98373777555571,79.84313725490196 L 109.00762510657518,79.84313725490196 L 110.51155928197609,79.84313725490196 L 110.53351125534357,79.84313725490196 L 110.56546257657968,79.84313725490196 L 112.05513244928628,79.84313725490196 L 112.0803996186317,79.84313725490196 L 112.10882070415076,79.84313725490196 L 113.60268385177,79.84313725490196 L 113.62494046476789,79.84313725490196 L 113.65859418393862,79.84313725490196 L 115.14937509529729,79.84313725490196 L 115.17550242359916,79.84313725490196 L 115.20756126470481,79.84313725490196 L 116.69594089897676,79.84313725490196 L 116.72031206940922,79.84313725490196 L 116.75498722734072,79.84313725490196 L 118.24012334554774,79.84313725490196 L 118.27160874734912,79.84313725490196 L 118.30393638812865,79.84313725490196 L 119.79385714053089,79.84313725490196 L 119.81899887002851,79.84313725490196 L 119.8484951542431,79.84313725490196 L 121.3442219796013,79.84313725490196 L 121.37137074666394,79.84313725490196 L 121.40436142663908,79.84313725490196 L 122.88989178436782,79.84313725490196 L 122.92161014588655,79.84313725490196 L 122.95666162336148,79.84313725490196 L 124.4412422222425,79.84313725490196 L 124.46536251297934,79.84313725490196 L 124.49691959469374,79.84313725490196 L 125.99058562255213,79.84313725490196 L 126.01300351535436,79.84313725490196 L 126.04463227698179,79.84313725490196 L 127.53546694827523,79.84313725490196 L 127.56019651827289,79.84313725490196 L 127.59116224070473,79.84313725490196 L 129.0843265091719,79.84313725490196 L 129.11240711510402,79.84313725490196 L 130.635085587764,79.84313725490196 L 130.66089035645723,79.84313725490196 L 130.68535112678097,79.84313725490196 L 132.18407058850846,79.84313725490196 L 132.21379983244043,79.84313725490196 L 132.2475969114372,79.84313725490196 L 133.7225186420365,79.84313725490196 L 133.75877075805482,79.84313725490196 L 133.78968272055187,79.84313725490196 L 135.27714843593262,79.84313725490196 L 135.2965557723873,79.84313725490196 L 135.33334548775338,79.84313725490196 L 136.82593631691623,79.84313725490196 L 136.85346140352232,79.84313725490196 L 136.88397912649768,79.84313725490196 L 138.37651619572574,79.84313725490196 L 138.4025180841798,79.84313725490196 L 138.4300431707859,79.84313725490196 L 139.92069864229674,79.84313725490196 L 139.95037412629392,79.84313725490196 L 139.97979873059552,79.84313725490196 L 141.4680708449979,79.84313725490196 L 141.4952733719953,79.84313725490196 L 141.525952374775,79.84313725490196 L 143.02142832043756,79.84313725490196 L 143.052017723326,79.84313725490196 L 143.08500840330112,79.84313725490196 L 144.57225907894275,79.84313725490196 L 144.59539377087532,79.84313725490196 L 144.64651946884874,79.84313725490196 L 146.12126199966545,79.84313725490196 L 146.14479093111973,79.84313725490196 L 146.17435889524737,79.84313725490196 L 147.6643692475409,79.84313725490196 L 147.69200185401655,79.84313725490196 L 147.721211418579,79.84313725490196 L 149.21195648998116,79.84313725490196 L 149.23856765769602,79.84313725490196 L 149.26928250043224,79.84313725490196 L 150.76128197031252,79.84313725490196 L 150.7892550563751,79.84313725490196 L 150.81484478532917,79.84313725490196 L 152.3074176945138,79.84313725490196 L 152.33508614094595,79.84313725490196 L 152.36415234568233,79.84313725490196 L 153.8626030077359,79.84313725490196 L 153.89175881236358,79.84313725490196 L 153.9222406953824,79.84313725490196 L 155.40502929643753,79.84313725490196 L 155.4343463808695,40 L 155.46475658397532,40 L 156.95958741042057,40 L 156.98041042515774,40 L 157.0087419107855,40 L 158.5020853790352,40 L 158.52201239485942,40 L 158.56009234866013,40 L 160.05257565795344,40 L 160.08137306301592,40 L 160.10572631347014,40 L 161.59480482689418,40 L 161.62743710730413,40 L 161.65919130877938,40 L 163.15024101981194,40 L 163.16524004161488,40 L 163.20364255502426,40 L 164.69818666181737,40 L 164.72816678544498,40 L 164.76314658300686,40 L 166.24640110349668,40 L 166.2728689113855,40 L 166.30870886790382,40 L 167.79183794854583,40 L 167.82185391212994,40 L 167.85514923173548,40 L 169.3435826259422,40 L 169.3654449994184,40 L 169.39648240176328,40 L 170.88751419281758,40 L 170.91242296259782,40 L 170.94455348361652,40 L 172.4387033508879,40 L 172.46809211523293,40 L 172.4937356041218,40 L 173.9858246738934,40 L 174.01865407406422,40 L 174.0415737262577,40 L 175.53611783305078,40 L 175.56500483800457,40 L 175.5982643176536,40 L 177.0849057140344,40 L 177.11309383983607,40 L 177.14712387855025,40 L 178.63227791673552,40 L 178.65793932560265,40 L 178.6899623267518,40 L 180.1819617966321,40 L 180.20995280267292,40 L 180.24240588330028,40 L 181.7263592829422,40 L 181.7639733173082,40 L 181.7857460908931,40 L 183.27487836425195,40 L 183.30417752870568,40 L 183.33333333333334,40" fill="none" stroke="none"/>
  </g>
  <!-- 📊 Total Contributions Chart -->
  <g transform="translate(526.6666666666667, 250)">
    <!-- Chart Background -->
    <rect x="0" y="0" width="213.33333333333334" height="200" fill="#ffffff" stroke="#e2e8f0" stroke-width="1" rx="8" filter="url(#shadow)">
      <animate attributeName="opacity" values="0;1" dur="0.5s" begin="2.8s" fill="freeze"/>
    </rect>
    
    <!-- Chart Title -->
    <text x="106.66666666666667" y="25" text-anchor="middle" fill="#1e293b" font-size="14" font-weight="bold" font-family="Arial, sans-serif">
      📊 Total Contributions
      <animate attributeName="opacity" values="0;1" dur="0.5s" begin="3s" fill="freeze"/>
    </text>
    
    <!-- Y-axis labels -->
    <text x="10" y="45" fill="#64748b" font-size="10" font-family="Arial, sans-serif">4,917
      <animate attributeName="opacity" values="0;1" dur="0.5s" begin="3.1999999999999997s" fill="freeze"/>
    </text>
    <text x="10" y="185" fill="#64748b" font-size="10" font-family="Arial, sans-serif">3,802
      <animate attributeName="opacity" values="0;1" dur="0.5s" begin="3.1999999999999997s" fill="freeze"/>
    </text>
    
    <!-- Chart Line with draw animation that follows the circle -->
    <path d="M 30,160 L 30.01752573873747,160 L 30.045337544995704,160 L 31.540580530940908,160 L 31.565256341003785,160 L 31.595756144000894,160 L 33.088490332989814,160 L 33.11257478377014,160 L 33.13965187091975,160 L 34.6394823712993,160 L 34.665322979949025,160 L 34.697704380663346,160 L 36.189381290934975,160 L 36.21722893714973,160 L 36.24392970475589,160 L 37.74024788939665,160 L 37.757379388612414,160 L 37.786391833414015,160 L 39.28315801751125,160 L 39.30555799033521,160 L 39.331255239158864,160 L 40.83112157949493,160 L 40.85199835416687,160 L 40.88366295575082,160 L 42.37872674191344,160 L 42.40162847412866,160 L 42.43148315790843,160 L 43.92405606709302,160 L 43.946115560330064,160 L 43.97860448091394,160 L 45.47137450985937,160 L 45.5037559105737,160 L 45.536818270461865,160 L 47.02491118508166,160 L 47.048690996231585,160 L 47.078599439946146,160 L 48.572803067152314,160 L 48.59624239871531,160 L 48.626150842429865,160 L 50.12182390785329,160 L 50.15261043050255,160 L 50.18898798636866,160 L 51.670522188945604,160 L 51.69288632181305,160 L 51.721486607114684,160 L 53.2204569485378,160 L 53.23943420551426,160 L 53.26937848918533,160 L 54.76365379630454,160 L 54.78598208921547,160 L 54.81449277462581,160 L 54.85350456729603,160 L 56.31604359291825,160 L 56.34584451676324,160 L 56.375430400869135,160 L 57.86051275914139,160 L 57.88780488603011,160 L 57.91631557144045,160 L 59.41146895749436,160 L 59.42680845888421,160 L 59.462809695206886,160 L 60.95810644108687,160 L 60.98355281021489,160 L 61.004465424843346,160 L 62.507557361266066,160 L 62.53160597208987,160 L 62.56086929658709,160 L 64.0566857218366,160 L 64.08238297066025,160 L 64.11055317648366,160 L 65.603592005103,160 L 65.62400286034018,160 L 65.65552410209807,160 L 67.15467364330377,160 L 67.17671521656254,160 L 67.20762717905961,160 L 68.7018666462223,160 L 68.7275459750677,160 L 68.75847585754303,160 L 70.2492567689017,160 L 70.27404009883413,160 L 70.29258727633237,160 L 71.79451441416825,160 L 71.8295658916432,160 L 71.85323818292355,160 L 73.34615157169506,160 L 73.37021810249713,160 L 74.92031414189367,160 L 74.94672818984768,160 L 76.43917565918446,160 L 76.46239995100834,160 L 76.49005047746223,160 L 77.99092033658083,160 L 78.0198073415346,160 L 78.04736826809722,160 L 79.53922437815143,160 L 79.56891778212689,160 L 79.59789438697197,160 L 81.09018057650441,160 L 81.11788486289308,160 L 81.14171843397777,160 L 82.63409422340152,160 L 82.66242570902926,94.78026905829597 L 82.69150983374391,94.78026905829597 L 84.21074767057814,94.78026905829597 L 84.2366599591409,94.78026905829597 L 85.72616855204316,94.78026905829597 L 85.75401619825791,94.78026905829597 L 85.77267089562571,94.78026905829597 L 87.27830746896123,94.78026905829597 L 87.30602967532818,94.78026905829597 L 87.33434324097766,94.78026905829597 L 88.82365471411907,94.78026905829597 L 88.8524879591381,94.78026905829597 L 88.88793367613474,94.78026905829597 L 90.37830242799345,94.78026905829597 L 90.40855135129493,94.78026905829597 L 90.43007324518419,94.78026905829597 L 91.92554919084677,94.78026905829597 L 91.9497590814749,94.78026905829597 L 91.97939872551557,94.78026905829597 L 93.47637994935191,94.78026905829597 L 93.53125092278148,94.78026905829597 L 95.02038319614032,94.78026905829597 L 95.05005868013751,94.78026905829597 L 95.07740456696101,94.78026905829597 L 96.57035379568903,94.78026905829597 L 96.59843440162116,94.78026905829597 L 96.62775148605316,94.78026905829597 L 98.11926711652045,94.78026905829597 L 98.14790324177861,94.78026905829597 L 98.1801233626886,94.78026905829597 L 99.66683643898244,94.78026905829597 L 99.69697784241437,94.78026905829597 L 99.72794356484621,94.78026905829597 L 101.2177926373354,94.78026905829597 L 101.24736060146304,94.78026905829597 L 101.27554872726472,94.78026905829597 L 102.7682112363406,94.78026905829597 L 102.78948225053423,94.78026905829597 L 102.81892477481405,94.78026905829597 L 104.31104968454217,94.78026905829597 L 104.33841349134391,94.78026905829597 L 104.37013185286266,94.78026905829597 L 105.86003468528662,94.78026905829597 L 105.88723721228403,94.78026905829597 L 105.91718149595512,94.78026905829597 L 107.40846416670504,94.78026905829597 L 107.43423309544173,94.78026905829597 L 107.46600521689524,94.78026905829597 L 108.95796884681903,94.78026905829597 L 108.98373777555571,94.78026905829597 L 109.00762510657518,94.78026905829597 L 110.51155928197609,94.78026905829597 L 110.53351125534357,94.78026905829597 L 110.56546257657968,94.78026905829597 L 112.05513244928628,94.78026905829597 L 112.0803996186317,94.78026905829597 L 112.10882070415076,94.78026905829597 L 113.60268385177,94.78026905829597 L 113.62494046476789,94.78026905829597 L 113.65859418393862,94.78026905829597 L 115.14937509529729,94.78026905829597 L 115.17550242359916,94.78026905829597 L 115.20756126470481,94.78026905829597 L 116.69594089897676,94.78026905829597 L 116.72031206940922,94.78026905829597 L 116.75498722734072,94.78026905829597 L 118.24012334554774,94.78026905829597 L 118.27160874734912,94.78026905829597 L 118.30393638812865,94.78026905829597 L 119.79385714053089,94.78026905829597 L 119.81899887002851,94.78026905829597 L 119.8484951542431,94.78026905829597 L 121.3442219796013,94.78026905829597 L 121.37137074666394,94.78026905829597 L 121.40436142663908,94.78026905829597 L 122.88989178436782,94.78026905829597 L 122.92161014588655,94.78026905829597 L 122.95666162336148,94.78026905829597 L 124.4412422222425,94.78026905829597 L 124.46536251297934,94.78026905829597 L 124.49691959469374,94.78026905829597 L 125.99058562255213,94.78026905829597 L 126.01300351535436,94.78026905829597 L 126.04463227698179,94.78026905829597 L 127.53546694827523,94.78026905829597 L 127.56019651827289,94.78026905829597 L 127.59116224070473,94.78026905829597 L 129.0843265091719,94.78026905829597 L 129.11240711510402,94.78026905829597 L 130.635085587764,94.78026905829597 L 130.66089035645723,94.78026905829597 L 130.68535112678097,94.78026905829597 L 132.18407058850846,94.78026905829597 L 132.21379983244043,94.78026905829597 L 132.2475969114372,94.78026905829597 L 133.7225186420365,94.78026905829597 L 133.75877075805482,94.78026905829597 L 133.78968272055187,94.78026905829597 L 135.27714843593262,94.78026905829597 L 135.2965557723873,94.78026905829597 L 135.33334548775338,94.78026905829597 L 136.82593631691623,94.78026905829597 L 136.85346140352232,94.78026905829597 L 136.88397912649768,94.78026905829597 L 138.37651619572574,94.78026905829597 L 138.4025180841798,94.78026905829597 L 138.4300431707859,94.78026905829597 L 139.92069864229674,94.78026905829597 L 139.95037412629392,94.78026905829597 L 139.97979873059552,94.78026905829597 L 141.4680708449979,94.78026905829597 L 141.4952733719953,94.78026905829597 L 141.525952374775,94.78026905829597 L 143.02142832043756,94.78026905829597 L 143.052017723326,94.78026905829597 L 143.08500840330112,94.78026905829597 L 144.57225907894275,94.78026905829597 L 144.59539377087532,94.78026905829597 L 144.64651946884874,94.78026905829597 L 146.12126199966545,94.78026905829597 L 146.14479093111973,94.78026905829597 L 146.17435889524737,94.78026905829597 L 147.6643692475409,94.78026905829597 L 147.69200185401655,94.78026905829597 L 147.721211418579,94.78026905829597 L 149.21195648998116,94.78026905829597 L 149.23856765769602,94.78026905829597 L 149.26928250043224,94.78026905829597 L 150.76128197031252,94.78026905829597 L 150.7892550563751,94.78026905829597 L 150.81484478532917,94.78026905829597 L 152.3074176945138,94.78026905829597 L 152.33508614094595,94.78026905829597 L 152.36415234568233,94.78026905829597 L 153.8626030077359,94.78026905829597 L 153.89175881236358,94.78026905829597 L 153.9222406953824,94.78026905829597 L 155.40502929643753,94.78026905829597 L 155.4343463808695,40 L 155.46475658397532,40 L 156.95958741042057,40 L 156.98041042515774,40 L 157.0087419107855,40 L 158.5020853790352,40 L 158.52201239485942,40 L 158.56009234866013,40 L 160.05257565795344,40 L 160.08137306301592,40 L 160.10572631347014,40 L 161.59480482689418,40 L 161.62743710730413,40 L 161.65919130877938,40 L 163.15024101981194,40 L 163.16524004161488,40 L 163.20364255502426,40 L 164.69818666181737,40 L 164.72816678544498,40 L 164.76314658300686,40 L 166.24640110349668,40 L 166.2728689113855,40 L 166.30870886790382,40 L 167.79183794854583,40 L 167.82185391212994,40 L 167.85514923173548,40 L 169.3435826259422,40 L 169.3654449994184,40 L 169.39648240176328,40 L 170.88751419281758,40 L 170.91242296259782,40 L 170.94455348361652,40 L 172.4387033508879,40 L 172.46809211523293,40 L 172.4937356041218,40 L 173.9858246738934,40 L 174.01865407406422,40 L 174.0415737262577,40 L 175.53611783305078,40 L 175.56500483800457,40 L 175.5982643176536,40 L 177.0849057140344,40 L 177.11309383983607,40 L 177.14712387855025,40 L 178.63227791673552,40 L 178.65793932560265,40 L 178.6899623267518,40 L 180.1819617966321,40 L 180.20995280267292,40 L 180.24240588330028,40 L 181.7263592829422,40 L 181.7639733173082,40 L 181.7857460908931,40 L 183.27487836425195,40 L 183.30417752870568,40 L 183.33333333333334,40" stroke="#f59e0b" stroke-width="2" fill="none" stroke-dasharray="14800" stroke-dashoffset="14800">
      <animate attributeName="stroke-dashoffset" values="14800;0" dur="3s" begin="3.5999999999999996s" fill="freeze"/>
    </path>
    
    <!-- Glow effect for the line that also follows the circle -->
    <path d="M 30,160 L 30.01752573873747,160 L 30.045337544995704,160 L 31.540580530940908,160 L 31.565256341003785,160 L 31.595756144000894,160 L 33.088490332989814,160 L 33.11257478377014,160 L 33.13965187091975,160 L 34.6394823712993,160 L 34.665322979949025,160 L 34.697704380663346,160 L 36.189381290934975,160 L 36.21722893714973,160 L 36.24392970475589,160 L 37.74024788939665,160 L 37.757379388612414,160 L 37.786391833414015,160 L 39.28315801751125,160 L 39.30555799033521,160 L 39.331255239158864,160 L 40.83112157949493,160 L 40.85199835416687,160 L 40.88366295575082,160 L 42.37872674191344,160 L 42.40162847412866,160 L 42.43148315790843,160 L 43.92405606709302,160 L 43.946115560330064,160 L 43.97860448091394,160 L 45.47137450985937,160 L 45.5037559105737,160 L 45.536818270461865,160 L 47.02491118508166,160 L 47.048690996231585,160 L 47.078599439946146,160 L 48.572803067152314,160 L 48.59624239871531,160 L 48.626150842429865,160 L 50.12182390785329,160 L 50.15261043050255,160 L 50.18898798636866,160 L 51.670522188945604,160 L 51.69288632181305,160 L 51.721486607114684,160 L 53.2204569485378,160 L 53.23943420551426,160 L 53.26937848918533,160 L 54.76365379630454,160 L 54.78598208921547,160 L 54.81449277462581,160 L 54.85350456729603,160 L 56.31604359291825,160 L 56.34584451676324,160 L 56.375430400869135,160 L 57.86051275914139,160 L 57.88780488603011,160 L 57.91631557144045,160 L 59.41146895749436,160 L 59.42680845888421,160 L 59.462809695206886,160 L 60.95810644108687,160 L 60.98355281021489,160 L 61.004465424843346,160 L 62.507557361266066,160 L 62.53160597208987,160 L 62.56086929658709,160 L 64.0566857218366,160 L 64.08238297066025,160 L 64.11055317648366,160 L 65.603592005103,160 L 65.62400286034018,160 L 65.65552410209807,160 L 67.15467364330377,160 L 67.17671521656254,160 L 67.20762717905961,160 L 68.7018666462223,160 L 68.7275459750677,160 L 68.75847585754303,160 L 70.2492567689017,160 L 70.27404009883413,160 L 70.29258727633237,160 L 71.79451441416825,160 L 71.8295658916432,160 L 71.85323818292355,160 L 73.34615157169506,160 L 73.37021810249713,160 L 74.92031414189367,160 L 74.94672818984768,160 L 76.43917565918446,160 L 76.46239995100834,160 L 76.49005047746223,160 L 77.99092033658083,160 L 78.0198073415346,160 L 78.04736826809722,160 L 79.53922437815143,160 L 79.56891778212689,160 L 79.59789438697197,160 L 81.09018057650441,160 L 81.11788486289308,160 L 81.14171843397777,160 L 82.63409422340152,160 L 82.66242570902926,94.78026905829597 L 82.69150983374391,94.78026905829597 L 84.21074767057814,94.78026905829597 L 84.2366599591409,94.78026905829597 L 85.72616855204316,94.78026905829597 L 85.75401619825791,94.78026905829597 L 85.77267089562571,94.78026905829597 L 87.27830746896123,94.78026905829597 L 87.30602967532818,94.78026905829597 L 87.33434324097766,94.78026905829597 L 88.82365471411907,94.78026905829597 L 88.8524879591381,94.78026905829597 L 88.88793367613474,94.78026905829597 L 90.37830242799345,94.78026905829597 L 90.40855135129493,94.78026905829597 L 90.43007324518419,94.78026905829597 L 91.92554919084677,94.78026905829597 L 91.9497590814749,94.78026905829597 L 91.97939872551557,94.78026905829597 L 93.47637994935191,94.78026905829597 L 93.53125092278148,94.78026905829597 L 95.02038319614032,94.78026905829597 L 95.05005868013751,94.78026905829597 L 95.07740456696101,94.78026905829597 L 96.57035379568903,94.78026905829597 L 96.59843440162116,94.78026905829597 L 96.62775148605316,94.78026905829597 L 98.11926711652045,94.78026905829597 L 98.14790324177861,94.78026905829597 L 98.1801233626886,94.78026905829597 L 99.66683643898244,94.78026905829597 L 99.69697784241437,94.78026905829597 L 99.72794356484621,94.78026905829597 L 101.2177926373354,94.78026905829597 L 101.24736060146304,94.78026905829597 L 101.27554872726472,94.78026905829597 L 102.7682112363406,94.78026905829597 L 102.78948225053423,94.78026905829597 L 102.81892477481405,94.78026905829597 L 104.31104968454217,94.78026905829597 L 104.33841349134391,94.78026905829597 L 104.37013185286266,94.78026905829597 L 105.86003468528662,94.78026905829597 L 105.88723721228403,94.78026905829597 L 105.91718149595512,94.78026905829597 L 107.40846416670504,94.78026905829597 L 107.43423309544173,94.78026905829597 L 107.46600521689524,94.78026905829597 L 108.95796884681903,94.78026905829597 L 108.98373777555571,94.78026905829597 L 109.00762510657518,94.78026905829597 L 110.51155928197609,94.78026905829597 L 110.53351125534357,94.78026905829597 L 110.56546257657968,94.78026905829597 L 112.05513244928628,94.78026905829597 L 112.0803996186317,94.78026905829597 L 112.10882070415076,94.78026905829597 L 113.60268385177,94.78026905829597 L 113.62494046476789,94.78026905829597 L 113.65859418393862,94.78026905829597 L 115.14937509529729,94.78026905829597 L 115.17550242359916,94.78026905829597 L 115.20756126470481,94.78026905829597 L 116.69594089897676,94.78026905829597 L 116.72031206940922,94.78026905829597 L 116.75498722734072,94.78026905829597 L 118.24012334554774,94.78026905829597 L 118.27160874734912,94.78026905829597 L 118.30393638812865,94.78026905829597 L 119.79385714053089,94.78026905829597 L 119.81899887002851,94.78026905829597 L 119.8484951542431,94.78026905829597 L 121.3442219796013,94.78026905829597 L 121.37137074666394,94.78026905829597 L 121.40436142663908,94.78026905829597 L 122.88989178436782,94.78026905829597 L 122.92161014588655,94.78026905829597 L 122.95666162336148,94.78026905829597 L 124.4412422222425,94.78026905829597 L 124.46536251297934,94.78026905829597 L 124.49691959469374,94.78026905829597 L 125.99058562255213,94.78026905829597 L 126.01300351535436,94.78026905829597 L 126.04463227698179,94.78026905829597 L 127.53546694827523,94.78026905829597 L 127.56019651827289,94.78026905829597 L 127.59116224070473,94.78026905829597 L 129.0843265091719,94.78026905829597 L 129.11240711510402,94.78026905829597 L 130.635085587764,94.78026905829597 L 130.66089035645723,94.78026905829597 L 130.68535112678097,94.78026905829597 L 132.18407058850846,94.78026905829597 L 132.21379983244043,94.78026905829597 L 132.2475969114372,94.78026905829597 L 133.7225186420365,94.78026905829597 L 133.75877075805482,94.78026905829597 L 133.78968272055187,94.78026905829597 L 135.27714843593262,94.78026905829597 L 135.2965557723873,94.78026905829597 L 135.33334548775338,94.78026905829597 L 136.82593631691623,94.78026905829597 L 136.85346140352232,94.78026905829597 L 136.88397912649768,94.78026905829597 L 138.37651619572574,94.78026905829597 L 138.4025180841798,94.78026905829597 L 138.4300431707859,94.78026905829597 L 139.92069864229674,94.78026905829597 L 139.95037412629392,94.78026905829597 L 139.97979873059552,94.78026905829597 L 141.4680708449979,94.78026905829597 L 141.4952733719953,94.78026905829597 L 141.525952374775,94.78026905829597 L 143.02142832043756,94.78026905829597 L 143.052017723326,94.78026905829597 L 143.08500840330112,94.78026905829597 L 144.57225907894275,94.78026905829597 L 144.59539377087532,94.78026905829597 L 144.64651946884874,94.78026905829597 L 146.12126199966545,94.78026905829597 L 146.14479093111973,94.78026905829597 L 146.17435889524737,94.78026905829597 L 147.6643692475409,94.78026905829597 L 147.69200185401655,94.78026905829597 L 147.721211418579,94.78026905829597 L 149.21195648998116,94.78026905829597 L 149.23856765769602,94.78026905829597 L 149.26928250043224,94.78026905829597 L 150.76128197031252,94.78026905829597 L 150.7892550563751,94.78026905829597 L 150.81484478532917,94.78026905829597 L 152.3074176945138,94.78026905829597 L 152.33508614094595,94.78026905829597 L 152.36415234568233,94.78026905829597 L 153.8626030077359,94.78026905829597 L 153.89175881236358,94.78026905829597 L 153.9222406953824,94.78026905829597 L 155.40502929643753,94.78026905829597 L 155.4343463808695,40 L 155.46475658397532,40 L 156.95958741042057,40 L 156.98041042515774,40 L 157.0087419107855,40 L 158.5020853790352,40 L 158.52201239485942,40 L 158.56009234866013,40 L 160.05257565795344,40 L 160.08137306301592,40 L 160.10572631347014,40 L 161.59480482689418,40 L 161.62743710730413,40 L 161.65919130877938,40 L 163.15024101981194,40 L 163.16524004161488,40 L 163.20364255502426,40 L 164.69818666181737,40 L 164.72816678544498,40 L 164.76314658300686,40 L 166.24640110349668,40 L 166.2728689113855,40 L 166.30870886790382,40 L 167.79183794854583,40 L 167.82185391212994,40 L 167.85514923173548,40 L 169.3435826259422,40 L 169.3654449994184,40 L 169.39648240176328,40 L 170.88751419281758,40 L 170.91242296259782,40 L 170.94455348361652,40 L 172.4387033508879,40 L 172.46809211523293,40 L 172.4937356041218,40 L 173.9858246738934,40 L 174.01865407406422,40 L 174.0415737262577,40 L 175.53611783305078,40 L 175.56500483800457,40 L 175.5982643176536,40 L 177.0849057140344,40 L 177.11309383983607,40 L 177.14712387855025,40 L 178.63227791673552,40 L 178.65793932560265,40 L 178.6899623267518,40 L 180.1819617966321,40 L 180.20995280267292,40 L 180.24240588330028,40 L 181.7263592829422,40 L 181.7639733173082,40 L 181.7857460908931,40 L 183.27487836425195,40 L 183.30417752870568,40 L 183.33333333333334,40" stroke="#f59e0b" stroke-width="4" fill="none" opacity="0.4" stroke-dasharray="14800" stroke-dashoffset="14800">
      <animate attributeName="stroke-dashoffset" values="14800;0" dur="3s" begin="3.5999999999999996s" fill="freeze"/>
    </path>
    
    <!-- Animated circle that moves along the path and draws the line -->
    <circle r="5" fill="#f59e0b" opacity="0" filter="url(#trailGlow)">
      <animate attributeName="opacity" values="0;1;1;1" dur="3.2s" begin="3.4s" fill="freeze"/>
      <animate attributeName="r" values="5;6;5" dur="1s" begin="3.4s" repeatCount="3"/>
      <animateMotion dur="3s" begin="3.4s" fill="freeze">
        <mpath href="#path_totalContributions_526.6666666666667"/>
      </animateMotion>
    </circle>
    
    <!-- Small trail dots that fade out -->
    <circle r="2" fill="#f59e0b" opacity="0">
      <animate attributeName="opacity" values="0;0.6;0" dur="0.8s" begin="3.8s" fill="freeze"/>
      <animateMotion dur="3s" begin="3.4s" fill="freeze">
        <mpath href="#path_totalContributions_526.6666666666667"/>
      </animateMotion>
    </circle>
    
    <!-- Hidden path for motion animation -->
    <path id="path_totalContributions_526.6666666666667" d="M 30,160 L 30.01752573873747,160 L 30.045337544995704,160 L 31.540580530940908,160 L 31.565256341003785,160 L 31.595756144000894,160 L 33.088490332989814,160 L 33.11257478377014,160 L 33.13965187091975,160 L 34.6394823712993,160 L 34.665322979949025,160 L 34.697704380663346,160 L 36.189381290934975,160 L 36.21722893714973,160 L 36.24392970475589,160 L 37.74024788939665,160 L 37.757379388612414,160 L 37.786391833414015,160 L 39.28315801751125,160 L 39.30555799033521,160 L 39.331255239158864,160 L 40.83112157949493,160 L 40.85199835416687,160 L 40.88366295575082,160 L 42.37872674191344,160 L 42.40162847412866,160 L 42.43148315790843,160 L 43.92405606709302,160 L 43.946115560330064,160 L 43.97860448091394,160 L 45.47137450985937,160 L 45.5037559105737,160 L 45.536818270461865,160 L 47.02491118508166,160 L 47.048690996231585,160 L 47.078599439946146,160 L 48.572803067152314,160 L 48.59624239871531,160 L 48.626150842429865,160 L 50.12182390785329,160 L 50.15261043050255,160 L 50.18898798636866,160 L 51.670522188945604,160 L 51.69288632181305,160 L 51.721486607114684,160 L 53.2204569485378,160 L 53.23943420551426,160 L 53.26937848918533,160 L 54.76365379630454,160 L 54.78598208921547,160 L 54.81449277462581,160 L 54.85350456729603,160 L 56.31604359291825,160 L 56.34584451676324,160 L 56.375430400869135,160 L 57.86051275914139,160 L 57.88780488603011,160 L 57.91631557144045,160 L 59.41146895749436,160 L 59.42680845888421,160 L 59.462809695206886,160 L 60.95810644108687,160 L 60.98355281021489,160 L 61.004465424843346,160 L 62.507557361266066,160 L 62.53160597208987,160 L 62.56086929658709,160 L 64.0566857218366,160 L 64.08238297066025,160 L 64.11055317648366,160 L 65.603592005103,160 L 65.62400286034018,160 L 65.65552410209807,160 L 67.15467364330377,160 L 67.17671521656254,160 L 67.20762717905961,160 L 68.7018666462223,160 L 68.7275459750677,160 L 68.75847585754303,160 L 70.2492567689017,160 L 70.27404009883413,160 L 70.29258727633237,160 L 71.79451441416825,160 L 71.8295658916432,160 L 71.85323818292355,160 L 73.34615157169506,160 L 73.37021810249713,160 L 74.92031414189367,160 L 74.94672818984768,160 L 76.43917565918446,160 L 76.46239995100834,160 L 76.49005047746223,160 L 77.99092033658083,160 L 78.0198073415346,160 L 78.04736826809722,160 L 79.53922437815143,160 L 79.56891778212689,160 L 79.59789438697197,160 L 81.09018057650441,160 L 81.11788486289308,160 L 81.14171843397777,160 L 82.63409422340152,160 L 82.66242570902926,94.78026905829597 L 82.69150983374391,94.78026905829597 L 84.21074767057814,94.78026905829597 L 84.2366599591409,94.78026905829597 L 85.72616855204316,94.78026905829597 L 85.75401619825791,94.78026905829597 L 85.77267089562571,94.78026905829597 L 87.27830746896123,94.78026905829597 L 87.30602967532818,94.78026905829597 L 87.33434324097766,94.78026905829597 L 88.82365471411907,94.78026905829597 L 88.8524879591381,94.78026905829597 L 88.88793367613474,94.78026905829597 L 90.37830242799345,94.78026905829597 L 90.40855135129493,94.78026905829597 L 90.43007324518419,94.78026905829597 L 91.92554919084677,94.78026905829597 L 91.9497590814749,94.78026905829597 L 91.97939872551557,94.78026905829597 L 93.47637994935191,94.78026905829597 L 93.53125092278148,94.78026905829597 L 95.02038319614032,94.78026905829597 L 95.05005868013751,94.78026905829597 L 95.07740456696101,94.78026905829597 L 96.57035379568903,94.78026905829597 L 96.59843440162116,94.78026905829597 L 96.62775148605316,94.78026905829597 L 98.11926711652045,94.78026905829597 L 98.14790324177861,94.78026905829597 L 98.1801233626886,94.78026905829597 L 99.66683643898244,94.78026905829597 L 99.69697784241437,94.78026905829597 L 99.72794356484621,94.78026905829597 L 101.2177926373354,94.78026905829597 L 101.24736060146304,94.78026905829597 L 101.27554872726472,94.78026905829597 L 102.7682112363406,94.78026905829597 L 102.78948225053423,94.78026905829597 L 102.81892477481405,94.78026905829597 L 104.31104968454217,94.78026905829597 L 104.33841349134391,94.78026905829597 L 104.37013185286266,94.78026905829597 L 105.86003468528662,94.78026905829597 L 105.88723721228403,94.78026905829597 L 105.91718149595512,94.78026905829597 L 107.40846416670504,94.78026905829597 L 107.43423309544173,94.78026905829597 L 107.46600521689524,94.78026905829597 L 108.95796884681903,94.78026905829597 L 108.98373777555571,94.78026905829597 L 109.00762510657518,94.78026905829597 L 110.51155928197609,94.78026905829597 L 110.53351125534357,94.78026905829597 L 110.56546257657968,94.78026905829597 L 112.05513244928628,94.78026905829597 L 112.0803996186317,94.78026905829597 L 112.10882070415076,94.78026905829597 L 113.60268385177,94.78026905829597 L 113.62494046476789,94.78026905829597 L 113.65859418393862,94.78026905829597 L 115.14937509529729,94.78026905829597 L 115.17550242359916,94.78026905829597 L 115.20756126470481,94.78026905829597 L 116.69594089897676,94.78026905829597 L 116.72031206940922,94.78026905829597 L 116.75498722734072,94.78026905829597 L 118.24012334554774,94.78026905829597 L 118.27160874734912,94.78026905829597 L 118.30393638812865,94.78026905829597 L 119.79385714053089,94.78026905829597 L 119.81899887002851,94.78026905829597 L 119.8484951542431,94.78026905829597 L 121.3442219796013,94.78026905829597 L 121.37137074666394,94.78026905829597 L 121.40436142663908,94.78026905829597 L 122.88989178436782,94.78026905829597 L 122.92161014588655,94.78026905829597 L 122.95666162336148,94.78026905829597 L 124.4412422222425,94.78026905829597 L 124.46536251297934,94.78026905829597 L 124.49691959469374,94.78026905829597 L 125.99058562255213,94.78026905829597 L 126.01300351535436,94.78026905829597 L 126.04463227698179,94.78026905829597 L 127.53546694827523,94.78026905829597 L 127.56019651827289,94.78026905829597 L 127.59116224070473,94.78026905829597 L 129.0843265091719,94.78026905829597 L 129.11240711510402,94.78026905829597 L 130.635085587764,94.78026905829597 L 130.66089035645723,94.78026905829597 L 130.68535112678097,94.78026905829597 L 132.18407058850846,94.78026905829597 L 132.21379983244043,94.78026905829597 L 132.2475969114372,94.78026905829597 L 133.7225186420365,94.78026905829597 L 133.75877075805482,94.78026905829597 L 133.78968272055187,94.78026905829597 L 135.27714843593262,94.78026905829597 L 135.2965557723873,94.78026905829597 L 135.33334548775338,94.78026905829597 L 136.82593631691623,94.78026905829597 L 136.85346140352232,94.78026905829597 L 136.88397912649768,94.78026905829597 L 138.37651619572574,94.78026905829597 L 138.4025180841798,94.78026905829597 L 138.4300431707859,94.78026905829597 L 139.92069864229674,94.78026905829597 L 139.95037412629392,94.78026905829597 L 139.97979873059552,94.78026905829597 L 141.4680708449979,94.78026905829597 L 141.4952733719953,94.78026905829597 L 141.525952374775,94.78026905829597 L 143.02142832043756,94.78026905829597 L 143.052017723326,94.78026905829597 L 143.08500840330112,94.78026905829597 L 144.57225907894275,94.78026905829597 L 144.59539377087532,94.78026905829597 L 144.64651946884874,94.78026905829597 L 146.12126199966545,94.78026905829597 L 146.14479093111973,94.78026905829597 L 146.17435889524737,94.78026905829597 L 147.6643692475409,94.78026905829597 L 147.69200185401655,94.78026905829597 L 147.721211418579,94.78026905829597 L 149.21195648998116,94.78026905829597 L 149.23856765769602,94.78026905829597 L 149.26928250043224,94.78026905829597 L 150.76128197031252,94.78026905829597 L 150.7892550563751,94.78026905829597 L 150.81484478532917,94.78026905829597 L 152.3074176945138,94.78026905829597 L 152.33508614094595,94.78026905829597 L 152.36415234568233,94.78026905829597 L 153.8626030077359,94.78026905829597 L 153.89175881236358,94.78026905829597 L 153.9222406953824,94.78026905829597 L 155.40502929643753,94.78026905829597 L 155.4343463808695,40 L 155.46475658397532,40 L 156.95958741042057,40 L 156.98041042515774,40 L 157.0087419107855,40 L 158.5020853790352,40 L 158.52201239485942,40 L 158.56009234866013,40 L 160.05257565795344,40 L 160.08137306301592,40 L 160.10572631347014,40 L 161.59480482689418,40 L 161.62743710730413,40 L 161.65919130877938,40 L 163.15024101981194,40 L 163.16524004161488,40 L 163.20364255502426,40 L 164.69818666181737,40 L 164.72816678544498,40 L 164.76314658300686,40 L 166.24640110349668,40 L 166.2728689113855,40 L 166.30870886790382,40 L 167.79183794854583,40 L 167.82185391212994,40 L 167.85514923173548,40 L 169.3435826259422,40 L 169.3654449994184,40 L 169.39648240176328,40 L 170.88751419281758,40 L 170.91242296259782,40 L 170.94455348361652,40 L 172.4387033508879,40 L 172.46809211523293,40 L 172.4937356041218,40 L 173.9858246738934,40 L 174.01865407406422,40 L 174.0415737262577,40 L 175.53611783305078,40 L 175.56500483800457,40 L 175.5982643176536,40 L 177.0849057140344,40 L 177.11309383983607,40 L 177.14712387855025,40 L 178.63227791673552,40 L 178.65793932560265,40 L 178.6899623267518,40 L 180.1819617966321,40 L 180.20995280267292,40 L 180.24240588330028,40 L 181.7263592829422,40 L 181.7639733173082,40 L 181.7857460908931,40 L 183.27487836425195,40 L 183.30417752870568,40 L 183.33333333333334,40" fill="none" stroke="none"/>
  </g>
  
  <!-- Footer -->
  <text x="400" y="580" text-anchor="middle" fill="#94a3b8" font-size="12" font-family="Arial, sans-serif">
    Generated by GitHub User Rank Tracker • 12/26/2025
    <animate attributeName="opacity" values="0;1" dur="0.5s" begin="5s" fill="freeze"/>
  </text>
</svg>