<svg width="800" height="600" xmlns="http://www.w3.org/2000/svg">
  <defs>
    <linearGradient id="bgGradient" x1="0%" y1="0%" x2="100%" y2="100%">
      <stop offset="0%" style="stop-color:#f8fafc;stop-opacity:1" />
      <stop offset="100%" style="stop-color:#e2e8f0;stop-opacity:1" />
    </linearGradient>
    <filter id="shadow" x="-20%" y="-20%" width="140%" height="140%">
      <feDropShadow dx="2" dy="2" stdDeviation="3" flood-color="#00000020" flood-opacity="0.1"/>
    </filter>
    <!-- Trail effect filter -->
    <filter id="trailGlow" x="-50%" y="-50%" width="200%" height="200%">
      <feGaussianBlur stdDeviation="3" result="coloredBlur"/>
      <feMerge> 
        <feMergeNode in="coloredBlur"/>
        <feMergeNode in="SourceGraphic"/>
      </feMerge>
    </filter>
  </defs>
  
  <!-- Background -->
  <rect width="800" height="600" fill="url(#bgGradient)" rx="12"/>
  
  <!-- Header -->
  <text x="400" y="40" text-anchor="middle" fill="#0f172a" font-size="24" font-weight="bold" font-family="Arial, sans-serif">
    GitHub Progress Report
    <animate attributeName="opacity" values="0;1" dur="0.8s" begin="0s" fill="freeze"/>
    <animateTransform attributeName="transform" type="translate" values="0,-20;0,0" dur="0.8s" begin="0s" fill="freeze"/>
  </text>
  
  <!-- User Info -->
  <text x="400" y="70" text-anchor="middle" fill="#475569" font-size="16" font-family="Arial, sans-serif">
    @maifeeulasad • BANGLADESH • 100 days analyzed
    <animate attributeName="opacity" values="0;1" dur="0.6s" begin="0.3s" fill="freeze"/>
  </text>
  
  <!-- Progress Cards -->
  <!-- Followers Card -->
  <g transform="translate(60, 100)">
    <rect width="206.66666666666666" height="120" fill="#ffffff" stroke="#e2e8f0" stroke-width="1" rx="8" filter="url(#shadow)">
      <animate attributeName="opacity" values="0;1" dur="0.6s" begin="0.2s" fill="freeze"/>
      <animateTransform attributeName="transform" type="scale" values="0.8;1" dur="0.6s" begin="0.2s" fill="freeze"/>
    </rect>
    <text x="103.33333333333333" y="25" text-anchor="middle" fill="#64748b" font-size="14" font-weight="bold" font-family="Arial, sans-serif">FOLLOWERS
      <animate attributeName="opacity" values="0;1" dur="0.5s" begin="0.4s" fill="freeze"/>
    </text>
    
    <text x="103.33333333333333" y="50" text-anchor="middle" fill="#ef4444" font-size="32" font-weight="bold" font-family="Arial, sans-serif">
      ↘
      <animate attributeName="opacity" values="0;1" dur="0.5s" begin="0.6s" fill="freeze"/>
      <animateTransform attributeName="transform" type="scale" values="0;1.2;1" dur="0.8s" begin="0.6s" fill="freeze"/>
    </text>
    
    <text x="103.33333333333333" y="75" text-anchor="middle" fill="#1e293b" font-size="18" font-weight="bold" font-family="Arial, sans-serif">
      -15
      <animate attributeName="opacity" values="0;1" dur="0.5s" begin="0.8s" fill="freeze"/>
    </text>
    
    <text x="103.33333333333333" y="95" text-anchor="middle" fill="#64748b" font-size="12" font-family="Arial, sans-serif">
      #466 → #481
      <animate attributeName="opacity" values="0;1" dur="0.5s" begin="1s" fill="freeze"/>
    </text>
  </g>
  
  <!-- Public Contributions Card -->
  <g transform="translate(296.66666666666663, 100)">
    <rect width="206.66666666666666" height="120" fill="#ffffff" stroke="#e2e8f0" stroke-width="1" rx="8" filter="url(#shadow)">
      <animate attributeName="opacity" values="0;1" dur="0.6s" begin="0.4s" fill="freeze"/>
      <animateTransform attributeName="transform" type="scale" values="0.8;1" dur="0.6s" begin="0.4s" fill="freeze"/>
    </rect>
    <text x="103.33333333333333" y="25" text-anchor="middle" fill="#64748b" font-size="14" font-weight="bold" font-family="Arial, sans-serif">PUBLIC
      <animate attributeName="opacity" values="0;1" dur="0.5s" begin="0.6s" fill="freeze"/>
    </text>
    
    <text x="103.33333333333333" y="50" text-anchor="middle" fill="#6b7280" font-size="32" font-weight="bold" font-family="Arial, sans-serif">
      →
      <animate attributeName="opacity" values="0;1" dur="0.5s" begin="0.8s" fill="freeze"/>
      <animateTransform attributeName="transform" type="scale" values="0;1.2;1" dur="0.8s" begin="0.8s" fill="freeze"/>
    </text>
    
    <text x="103.33333333333333" y="75" text-anchor="middle" fill="#1e293b" font-size="18" font-weight="bold" font-family="Arial, sans-serif">
      0
      <animate attributeName="opacity" values="0;1" dur="0.5s" begin="1s" fill="freeze"/>
    </text>
    
    <text x="103.33333333333333" y="95" text-anchor="middle" fill="#64748b" font-size="12" font-family="Arial, sans-serif">
      #7 → #7
      <animate attributeName="opacity" values="0;1" dur="0.5s" begin="1.2s" fill="freeze"/>
    </text>
  </g>
  
  <!-- Total Contributions Card -->
  <g transform="translate(533.3333333333333, 100)">
    <rect width="206.66666666666666" height="120" fill="#ffffff" stroke="#e2e8f0" stroke-width="1" rx="8" filter="url(#shadow)">
      <animate attributeName="opacity" values="0;1" dur="0.6s" begin="0.6s" fill="freeze"/>
      <animateTransform attributeName="transform" type="scale" values="0.8;1" dur="0.6s" begin="0.6s" fill="freeze"/>
    </rect>
    <text x="103.33333333333333" y="25" text-anchor="middle" fill="#64748b" font-size="14" font-weight="bold" font-family="Arial, sans-serif">TOTAL
      <animate attributeName="opacity" values="0;1" dur="0.5s" begin="0.8s" fill="freeze"/>
    </text>
    
    <text x="103.33333333333333" y="50" text-anchor="middle" fill="#22c55e" font-size="32" font-weight="bold" font-family="Arial, sans-serif">
      ↗
      <animate attributeName="opacity" values="0;1" dur="0.5s" begin="1s" fill="freeze"/>
      <animateTransform attributeName="transform" type="scale" values="0;1.2;1" dur="0.8s" begin="1s" fill="freeze"/>
    </text>
    
    <text x="103.33333333333333" y="75" text-anchor="middle" fill="#1e293b" font-size="18" font-weight="bold" font-family="Arial, sans-serif">
      +3
      <animate attributeName="opacity" values="0;1" dur="0.5s" begin="1.2s" fill="freeze"/>
    </text>
    
    <text x="103.33333333333333" y="95" text-anchor="middle" fill="#64748b" font-size="12" font-family="Arial, sans-serif">
      #15 → #12
      <animate attributeName="opacity" values="0;1" dur="0.5s" begin="1.4s" fill="freeze"/>
    </text>
  </g>
  
  <!-- Timeline Charts (if we have snapshots) -->
  
  <!-- 👥 Followers Count Chart -->
  <g transform="translate(60, 250)">
    <!-- Chart Background -->
    <rect x="0" y="0" width="213.33333333333334" height="200" fill="#ffffff" stroke="#e2e8f0" stroke-width="1" rx="8" filter="url(#shadow)">
      <animate attributeName="opacity" values="0;1" dur="0.5s" begin="1.8s" fill="freeze"/>
    </rect>
    
    <!-- Chart Title -->
    <text x="106.66666666666667" y="25" text-anchor="middle" fill="#1e293b" font-size="14" font-weight="bold" font-family="Arial, sans-serif">
      👥 Followers Count
      <animate attributeName="opacity" values="0;1" dur="0.5s" begin="2s" fill="freeze"/>
    </text>
    
    <!-- Y-axis labels -->
    <text x="10" y="45" fill="#64748b" font-size="10" font-family="Arial, sans-serif">154
      <animate attributeName="opacity" values="0;1" dur="0.5s" begin="2.2s" fill="freeze"/>
    </text>
    <text x="10" y="185" fill="#64748b" font-size="10" font-family="Arial, sans-serif">150
      <animate attributeName="opacity" values="0;1" dur="0.5s" begin="2.2s" fill="freeze"/>
    </text>
    
    <!-- Chart Line with draw animation that follows the circle -->
    <path d="M 30,160 L 30.030010618422835,160 L 30.063300008888284,160 L 31.551468346918544,160 L 31.57332682720264,160 L 31.604358702491204,160 L 33.09512497465359,160 L 33.12002930874776,160 L 33.15215410805053,160 L 34.64603790117147,160 L 34.67542143204517,160 L 34.70106035441119,160 L 36.19288371701354,160 L 36.22570727101392,160 L 36.24862284173798,160 L 37.74290080417552,160 L 37.77178266500991,160 L 37.80503622190112,160 L 39.29141288121957,160 L 39.31959598735636,160 L 39.353619966093646,160 L 40.83850953208129,160 L 40.864166371234425,160 L 40.89618366981449,160 L 42.387917448481254,160 L 42.415903469959744,160 L 42.44835077143064,160 L 43.93203991268137,160 L 43.969647248842286,160 L 43.99141614519079,160 L 45.480283237918655,160 L 45.50957718485677,160 L 45.53872779749793,160 L 47.024154867099114,160 L 47.05647675106019,160 L 47.0834952660343,160 L 48.16359086066247,160 L 48.578776568550445,160 L 48.61090136785322,160 L 48.64474617871933,160 L 50.12660780768401,160 L 50.15470132988521,160 L 50.18759655103406,160 L 51.67271903525424,160 L 51.69438043088003,160 L 51.730715675155565,160 L 53.22280778956468,160 L 53.24986213811303,160 L 53.28132401629244,160 L 54.77090778050503,160 L 54.80339091555016,160 L 54.83685947388679,160 L 56.31703692486237,160 L 56.34470044417273,160 L 56.381125272383855,160 L 57.86936527756258,160 L 57.89296168619714,160 L 57.92202271490271,160 L 59.416067759107705,160 L 59.44957215101857,160 L 59.48094444526239,160 L 60.96318232675655,160 L 60.99333627947633,160 L 61.02719900712956,160 L 62.50900688573289,160 L 62.538408333393704,160 L 62.57155438956221,160 L 64.0602423144189,160 L 64.08772666585807,160 L 64.1158381048464,160 L 65.60649687628606,160 L 65.63428581310626,160 L 65.6676827042944,160 L 67.14560264009312,160 L 67.18240372083372,160 L 67.21327434503822,160 L 68.70169351808812,160 L 68.7234265808624,160 L 68.76250309356699,160 L 70.25154935416603,160 L 70.28421165708235,160 L 70.31862980513625,160 L 71.80176352598632,160 L 71.83164872689932,160 L 71.86330768973701,160 L 73.34060053798659,160 L 73.37306575624461,160 L 73.40544139056703,160 L 74.89339472715187,160 L 74.9237815981042,160 L 74.95850433153907,160 L 76.44188888740881,160 L 76.46985699210018,160 L 76.50072761630469,160 L 77.99102805200201,160 L 78.01095151927734,160 L 78.05986434810978,160 L 79.53640469130038,160 L 79.56655864402016,160 L 79.59630051063623,160 L 81.08728178424403,160 L 81.12152076442673,160 L 81.15267805722513,160 L 82.63453968618981,160 L 82.6646936389096,160 L 82.69945220591873,160 L 84.18043591231462,160 L 84.21007027820798,160 L 84.23707087639497,160 L 85.73079341843184,160 L 85.7614132076167,160 L 85.79294675294457,160 L 87.2834621900873,160 L 87.31227238377322,160 L 87.34068840814254,160 L 88.82566755806577,160 L 88.85646651512181,70 L 88.88855548085036,70 L 90.37946508730968,70 L 90.4008398143416,70 L 90.43031292915087,70 L 91.92360546829691,70 L 91.94750646231248,70 L 91.98991549742104,70 L 93.47346130437484,70 L 93.50494109934135,70 L 93.5325867018646,70 L 95.01520083588822,70 L 95.04969065109059,70 L 95.08346379480824,70 L 96.5727429736398,70 L 96.58800807626444,70 L 96.62937793772016,70 L 98.11765377647313,70 L 98.15028024581521,70 L 98.18713507691716,70 L 99.66578960098771,70 L 99.69653480768238,70 L 99.7359338225551,70 L 101.21141707530575,70 L 101.2441152117963,70 L 101.28226005157074,70 L 102.76800962334006,70 L 102.80443445155119,70 L 104.3100716570216,70 L 104.38666592195152,70 L 105.85833289904599,70 L 105.89640607167198,70 L 105.93254423128921,70 L 107.40596705352127,70 L 107.44608273987872,70 L 107.47369250882772,70 L 108.95725623256864,70 L 108.99083229162797,70 L 109.02852921172448,70 L 110.49981993628947,70 L 110.53337807856168,70 L 110.57112874901955,70 L 112.05019535919381,70 L 112.08318016427825,70 L 112.11856581883652,70 L 113.60367038626957,70 L 113.64701109430828,70 L 115.18591977345704,70 L 115.2269492159575,70 L 116.70318497376711,70 L 116.73701186784609,70 L 118.25524457466054,70 L 118.28405476834648,70 L 118.33149842063521,70 L 119.7913940685931,70 L 119.82436095689043,70 L 119.85965702751311,70 L 121.34126782145813,70 L 121.38025475022714,70 L 121.4193850132931,70 L 122.88653696003381,70 L 122.91814217251016,70 L 122.95655576409138,70 L 124.43329319194028,70 L 124.4692163501121,70 L 124.51617624914867,70 L 125.9765198167845,70 L 126.01740592498803,70 L 126.05698410773192,70 L 127.53167902184938,70 L 127.56457424299822,70 L 127.60212782879778,70 L 129.07965359527986,70 L 129.11294298574535,70 L 129.1513207437523,70 L 130.6256573221274,70 L 130.6642500815798,70 L 130.70583494448096,70 L 132.17522648961142,70 L 132.205953779519,70 L 132.2429877784921,70 L 133.72459857243715,70 L 133.7521725078119,70 L 133.7898335943342,70 L 135.26873895342436,70 L 135.3040887744084,70 L 135.34312945353878,70 L 136.8178064508691,70 L 136.85532420309443,70 L 136.89522488800645,70 L 138.36997355248525,70 L 138.3971174849692,70 L 138.43594316265413,70 L 139.9166939508175,70 L 139.95326211332554,70 L 139.9858706658805,70 L 141.46002807638442,70 L 141.49349663472105,70 L 141.5320356438121,70 L 143.00535096532144,70 L 143.0459504049311,70 L 143.08309190462694,70 L 144.55680139545285,70 L 144.58743910142482,70 L 144.6218393326916,70 L 146.11095726043914,70 L 146.14834959515463,70 L 146.19043612809506,70 L 147.65773140913274,70 L 147.69112830032088,70 L 147.72452519150903,70 L 149.20224804264944,70 L 149.23933579198393,70 L 149.27581437055642,70 L 150.7436471552076,70 L 150.7839240926491,70 L 150.82226601708186,70 L 152.2904213039012,70 L 152.3306803245556,70 L 152.37486312158887,70 L 153.8529084748974,70 L 153.88492577347745,70 L 153.92633146850739,70 L 155.39704885588463,70 L 155.42471237519499,70 L 155.45977552758512,70 L 156.94066965004544,70 L 156.97727364612774,70 L 157.01439722903643,70 L 158.48945047889626,70 L 158.52141402711496,70 L 158.56274805499643,70 L 160.03712046694574,70 L 160.06928109982277,70 L 160.1073721892359,70 L 161.5856146272027,70 L 161.61713025574346,70 L 161.65126173520346,70 L 163.13192293943123,40 L 163.1617543899829,40 L 164.67869708812484,40 L 164.71512191633593,40 L 164.7495221476027,40 L 166.22828417239595,40 L 166.2533676743613,40 L 166.29606337806376,40 L 167.7846975525591,40 L 167.82253780695254,40 L 169.3251470754,40 L 169.36456400705984,40 L 169.41602101966308,40 L 170.875468747943,40 L 170.91404359060826,40 L 170.93778333353976,40 L 172.42550375189208,40 L 172.46137315970253,40 L 172.49919549730888,40 L 173.97444583182696,40 L 174.00863106164834,40 L 174.0473850721848,40 L 175.52078997762973,40 L 175.5515172675373,40 L 175.59014586056395,40 L 177.06865705033752,40 L 177.1011581021698,40 L 177.13308581681426,40 L 178.61612995372874,40 L 178.65325353663746,40 L 178.69431881271217,40 L 180.1672220481178,40 L 180.20364687632892,40 L 180.24817009231742,40 L 181.70582614188552,40 L 181.74316472623968,40 L 181.78609334817466,40 L 183.2609674301633,40 L 183.29660391974122,40 L 183.33333333333334,40" stroke="#22c55e" stroke-width="2" fill="none" stroke-dasharray="14700" stroke-dashoffset="14700">
      <animate attributeName="stroke-dashoffset" values="14700;0" dur="3s" begin="2.6s" fill="freeze"/>
    </path>
    
    <!-- Glow effect for the line that also follows the circle -->
    <path d="M 30,160 L 30.030010618422835,160 L 30.063300008888284,160 L 31.551468346918544,160 L 31.57332682720264,160 L 31.604358702491204,160 L 33.09512497465359,160 L 33.12002930874776,160 L 33.15215410805053,160 L 34.64603790117147,160 L 34.67542143204517,160 L 34.70106035441119,160 L 36.19288371701354,160 L 36.22570727101392,160 L 36.24862284173798,160 L 37.74290080417552,160 L 37.77178266500991,160 L 37.80503622190112,160 L 39.29141288121957,160 L 39.31959598735636,160 L 39.353619966093646,160 L 40.83850953208129,160 L 40.864166371234425,160 L 40.89618366981449,160 L 42.387917448481254,160 L 42.415903469959744,160 L 42.44835077143064,160 L 43.93203991268137,160 L 43.969647248842286,160 L 43.99141614519079,160 L 45.480283237918655,160 L 45.50957718485677,160 L 45.53872779749793,160 L 47.024154867099114,160 L 47.05647675106019,160 L 47.0834952660343,160 L 48.16359086066247,160 L 48.578776568550445,160 L 48.61090136785322,160 L 48.64474617871933,160 L 50.12660780768401,160 L 50.15470132988521,160 L 50.18759655103406,160 L 51.67271903525424,160 L 51.69438043088003,160 L 51.730715675155565,160 L 53.22280778956468,160 L 53.24986213811303,160 L 53.28132401629244,160 L 54.77090778050503,160 L 54.80339091555016,160 L 54.83685947388679,160 L 56.31703692486237,160 L 56.34470044417273,160 L 56.381125272383855,160 L 57.86936527756258,160 L 57.89296168619714,160 L 57.92202271490271,160 L 59.416067759107705,160 L 59.44957215101857,160 L 59.48094444526239,160 L 60.96318232675655,160 L 60.99333627947633,160 L 61.02719900712956,160 L 62.50900688573289,160 L 62.538408333393704,160 L 62.57155438956221,160 L 64.0602423144189,160 L 64.08772666585807,160 L 64.1158381048464,160 L 65.60649687628606,160 L 65.63428581310626,160 L 65.6676827042944,160 L 67.14560264009312,160 L 67.18240372083372,160 L 67.21327434503822,160 L 68.70169351808812,160 L 68.7234265808624,160 L 68.76250309356699,160 L 70.25154935416603,160 L 70.28421165708235,160 L 70.31862980513625,160 L 71.80176352598632,160 L 71.83164872689932,160 L 71.86330768973701,160 L 73.34060053798659,160 L 73.37306575624461,160 L 73.40544139056703,160 L 74.89339472715187,160 L 74.9237815981042,160 L 74.95850433153907,160 L 76.44188888740881,160 L 76.46985699210018,160 L 76.50072761630469,160 L 77.99102805200201,160 L 78.01095151927734,160 L 78.05986434810978,160 L 79.53640469130038,160 L 79.56655864402016,160 L 79.59630051063623,160 L 81.08728178424403,160 L 81.12152076442673,160 L 81.15267805722513,160 L 82.63453968618981,160 L 82.6646936389096,160 L 82.69945220591873,160 L 84.18043591231462,160 L 84.21007027820798,160 L 84.23707087639497,160 L 85.73079341843184,160 L 85.7614132076167,160 L 85.79294675294457,160 L 87.2834621900873,160 L 87.31227238377322,160 L 87.34068840814254,160 L 88.82566755806577,160 L 88.85646651512181,70 L 88.88855548085036,70 L 90.37946508730968,70 L 90.4008398143416,70 L 90.43031292915087,70 L 91.92360546829691,70 L 91.94750646231248,70 L 91.98991549742104,70 L 93.47346130437484,70 L 93.50494109934135,70 L 93.5325867018646,70 L 95.01520083588822,70 L 95.04969065109059,70 L 95.08346379480824,70 L 96.5727429736398,70 L 96.58800807626444,70 L 96.62937793772016,70 L 98.11765377647313,70 L 98.15028024581521,70 L 98.18713507691716,70 L 99.66578960098771,70 L 99.69653480768238,70 L 99.7359338225551,70 L 101.21141707530575,70 L 101.2441152117963,70 L 101.28226005157074,70 L 102.76800962334006,70 L 102.80443445155119,70 L 104.3100716570216,70 L 104.38666592195152,70 L 105.85833289904599,70 L 105.89640607167198,70 L 105.93254423128921,70 L 107.40596705352127,70 L 107.44608273987872,70 L 107.47369250882772,70 L 108.95725623256864,70 L 108.99083229162797,70 L 109.02852921172448,70 L 110.49981993628947,70 L 110.53337807856168,70 L 110.57112874901955,70 L 112.05019535919381,70 L 112.08318016427825,70 L 112.11856581883652,70 L 113.60367038626957,70 L 113.64701109430828,70 L 115.18591977345704,70 L 115.2269492159575,70 L 116.70318497376711,70 L 116.73701186784609,70 L 118.25524457466054,70 L 118.28405476834648,70 L 118.33149842063521,70 L 119.7913940685931,70 L 119.82436095689043,70 L 119.85965702751311,70 L 121.34126782145813,70 L 121.38025475022714,70 L 121.4193850132931,70 L 122.88653696003381,70 L 122.91814217251016,70 L 122.95655576409138,70 L 124.43329319194028,70 L 124.4692163501121,70 L 124.51617624914867,70 L 125.9765198167845,70 L 126.01740592498803,70 L 126.05698410773192,70 L 127.53167902184938,70 L 127.56457424299822,70 L 127.60212782879778,70 L 129.07965359527986,70 L 129.11294298574535,70 L 129.1513207437523,70 L 130.6256573221274,70 L 130.6642500815798,70 L 130.70583494448096,70 L 132.17522648961142,70 L 132.205953779519,70 L 132.2429877784921,70 L 133.72459857243715,70 L 133.7521725078119,70 L 133.7898335943342,70 L 135.26873895342436,70 L 135.3040887744084,70 L 135.34312945353878,70 L 136.8178064508691,70 L 136.85532420309443,70 L 136.89522488800645,70 L 138.36997355248525,70 L 138.3971174849692,70 L 138.43594316265413,70 L 139.9166939508175,70 L 139.95326211332554,70 L 139.9858706658805,70 L 141.46002807638442,70 L 141.49349663472105,70 L 141.5320356438121,70 L 143.00535096532144,70 L 143.0459504049311,70 L 143.08309190462694,70 L 144.55680139545285,70 L 144.58743910142482,70 L 144.6218393326916,70 L 146.11095726043914,70 L 146.14834959515463,70 L 146.19043612809506,70 L 147.65773140913274,70 L 147.69112830032088,70 L 147.72452519150903,70 L 149.20224804264944,70 L 149.23933579198393,70 L 149.27581437055642,70 L 150.7436471552076,70 L 150.7839240926491,70 L 150.82226601708186,70 L 152.2904213039012,70 L 152.3306803245556,70 L 152.37486312158887,70 L 153.8529084748974,70 L 153.88492577347745,70 L 153.92633146850739,70 L 155.39704885588463,70 L 155.42471237519499,70 L 155.45977552758512,70 L 156.94066965004544,70 L 156.97727364612774,70 L 157.01439722903643,70 L 158.48945047889626,70 L 158.52141402711496,70 L 158.56274805499643,70 L 160.03712046694574,70 L 160.06928109982277,70 L 160.1073721892359,70 L 161.5856146272027,70 L 161.61713025574346,70 L 161.65126173520346,70 L 163.13192293943123,40 L 163.1617543899829,40 L 164.67869708812484,40 L 164.71512191633593,40 L 164.7495221476027,40 L 166.22828417239595,40 L 166.2533676743613,40 L 166.29606337806376,40 L 167.7846975525591,40 L 167.82253780695254,40 L 169.3251470754,40 L 169.36456400705984,40 L 169.41602101966308,40 L 170.875468747943,40 L 170.91404359060826,40 L 170.93778333353976,40 L 172.42550375189208,40 L 172.46137315970253,40 L 172.49919549730888,40 L 173.97444583182696,40 L 174.00863106164834,40 L 174.0473850721848,40 L 175.52078997762973,40 L 175.5515172675373,40 L 175.59014586056395,40 L 177.06865705033752,40 L 177.1011581021698,40 L 177.13308581681426,40 L 178.61612995372874,40 L 178.65325353663746,40 L 178.69431881271217,40 L 180.1672220481178,40 L 180.20364687632892,40 L 180.24817009231742,40 L 181.70582614188552,40 L 181.74316472623968,40 L 181.78609334817466,40 L 183.2609674301633,40 L 183.29660391974122,40 L 183.33333333333334,40" stroke="#22c55e" stroke-width="4" fill="none" opacity="0.4" stroke-dasharray="14700" stroke-dashoffset="14700">
      <animate attributeName="stroke-dashoffset" values="14700;0" dur="3s" begin="2.6s" fill="freeze"/>
    </path>
    
    <!-- Animated circle that moves along the path and draws the line -->
    <circle r="5" fill="#22c55e" opacity="0" filter="url(#trailGlow)">
      <animate attributeName="opacity" values="0;1;1;1" dur="3.2s" begin="2.4s" fill="freeze"/>
      <animate attributeName="r" values="5;6;5" dur="1s" begin="2.4s" repeatCount="3"/>
      <animateMotion dur="3s" begin="2.4s" fill="freeze">
        <mpath href="#path_followersCount_60"/>
      </animateMotion>
    </circle>
    
    <!-- Small trail dots that fade out -->
    <circle r="2" fill="#22c55e" opacity="0">
      <animate attributeName="opacity" values="0;0.6;0" dur="0.8s" begin="2.8s" fill="freeze"/>
      <animateMotion dur="3s" begin="2.4s" fill="freeze">
        <mpath href="#path_followersCount_60"/>
      </animateMotion>
    </circle>
    
    <!-- Hidden path for motion animation -->
    <path id="path_followersCount_60" d="M 30,160 L 30.030010618422835,160 L 30.063300008888284,160 L 31.551468346918544,160 L 31.57332682720264,160 L 31.604358702491204,160 L 33.09512497465359,160 L 33.12002930874776,160 L 33.15215410805053,160 L 34.64603790117147,160 L 34.67542143204517,160 L 34.70106035441119,160 L 36.19288371701354,160 L 36.22570727101392,160 L 36.24862284173798,160 L 37.74290080417552,160 L 37.77178266500991,160 L 37.80503622190112,160 L 39.29141288121957,160 L 39.31959598735636,160 L 39.353619966093646,160 L 40.83850953208129,160 L 40.864166371234425,160 L 40.89618366981449,160 L 42.387917448481254,160 L 42.415903469959744,160 L 42.44835077143064,160 L 43.93203991268137,160 L 43.969647248842286,160 L 43.99141614519079,160 L 45.480283237918655,160 L 45.50957718485677,160 L 45.53872779749793,160 L 47.024154867099114,160 L 47.05647675106019,160 L 47.0834952660343,160 L 48.16359086066247,160 L 48.578776568550445,160 L 48.61090136785322,160 L 48.64474617871933,160 L 50.12660780768401,160 L 50.15470132988521,160 L 50.18759655103406,160 L 51.67271903525424,160 L 51.69438043088003,160 L 51.730715675155565,160 L 53.22280778956468,160 L 53.24986213811303,160 L 53.28132401629244,160 L 54.77090778050503,160 L 54.80339091555016,160 L 54.83685947388679,160 L 56.31703692486237,160 L 56.34470044417273,160 L 56.381125272383855,160 L 57.86936527756258,160 L 57.89296168619714,160 L 57.92202271490271,160 L 59.416067759107705,160 L 59.44957215101857,160 L 59.48094444526239,160 L 60.96318232675655,160 L 60.99333627947633,160 L 61.02719900712956,160 L 62.50900688573289,160 L 62.538408333393704,160 L 62.57155438956221,160 L 64.0602423144189,160 L 64.08772666585807,160 L 64.1158381048464,160 L 65.60649687628606,160 L 65.63428581310626,160 L 65.6676827042944,160 L 67.14560264009312,160 L 67.18240372083372,160 L 67.21327434503822,160 L 68.70169351808812,160 L 68.7234265808624,160 L 68.76250309356699,160 L 70.25154935416603,160 L 70.28421165708235,160 L 70.31862980513625,160 L 71.80176352598632,160 L 71.83164872689932,160 L 71.86330768973701,160 L 73.34060053798659,160 L 73.37306575624461,160 L 73.40544139056703,160 L 74.89339472715187,160 L 74.9237815981042,160 L 74.95850433153907,160 L 76.44188888740881,160 L 76.46985699210018,160 L 76.50072761630469,160 L 77.99102805200201,160 L 78.01095151927734,160 L 78.05986434810978,160 L 79.53640469130038,160 L 79.56655864402016,160 L 79.59630051063623,160 L 81.08728178424403,160 L 81.12152076442673,160 L 81.15267805722513,160 L 82.63453968618981,160 L 82.6646936389096,160 L 82.69945220591873,160 L 84.18043591231462,160 L 84.21007027820798,160 L 84.23707087639497,160 L 85.73079341843184,160 L 85.7614132076167,160 L 85.79294675294457,160 L 87.2834621900873,160 L 87.31227238377322,160 L 87.34068840814254,160 L 88.82566755806577,160 L 88.85646651512181,70 L 88.88855548085036,70 L 90.37946508730968,70 L 90.4008398143416,70 L 90.43031292915087,70 L 91.92360546829691,70 L 91.94750646231248,70 L 91.98991549742104,70 L 93.47346130437484,70 L 93.50494109934135,70 L 93.5325867018646,70 L 95.01520083588822,70 L 95.04969065109059,70 L 95.08346379480824,70 L 96.5727429736398,70 L 96.58800807626444,70 L 96.62937793772016,70 L 98.11765377647313,70 L 98.15028024581521,70 L 98.18713507691716,70 L 99.66578960098771,70 L 99.69653480768238,70 L 99.7359338225551,70 L 101.21141707530575,70 L 101.2441152117963,70 L 101.28226005157074,70 L 102.76800962334006,70 L 102.80443445155119,70 L 104.3100716570216,70 L 104.38666592195152,70 L 105.85833289904599,70 L 105.89640607167198,70 L 105.93254423128921,70 L 107.40596705352127,70 L 107.44608273987872,70 L 107.47369250882772,70 L 108.95725623256864,70 L 108.99083229162797,70 L 109.02852921172448,70 L 110.49981993628947,70 L 110.53337807856168,70 L 110.57112874901955,70 L 112.05019535919381,70 L 112.08318016427825,70 L 112.11856581883652,70 L 113.60367038626957,70 L 113.64701109430828,70 L 115.18591977345704,70 L 115.2269492159575,70 L 116.70318497376711,70 L 116.73701186784609,70 L 118.25524457466054,70 L 118.28405476834648,70 L 118.33149842063521,70 L 119.7913940685931,70 L 119.82436095689043,70 L 119.85965702751311,70 L 121.34126782145813,70 L 121.38025475022714,70 L 121.4193850132931,70 L 122.88653696003381,70 L 122.91814217251016,70 L 122.95655576409138,70 L 124.43329319194028,70 L 124.4692163501121,70 L 124.51617624914867,70 L 125.9765198167845,70 L 126.01740592498803,70 L 126.05698410773192,70 L 127.53167902184938,70 L 127.56457424299822,70 L 127.60212782879778,70 L 129.07965359527986,70 L 129.11294298574535,70 L 129.1513207437523,70 L 130.6256573221274,70 L 130.6642500815798,70 L 130.70583494448096,70 L 132.17522648961142,70 L 132.205953779519,70 L 132.2429877784921,70 L 133.72459857243715,70 L 133.7521725078119,70 L 133.7898335943342,70 L 135.26873895342436,70 L 135.3040887744084,70 L 135.34312945353878,70 L 136.8178064508691,70 L 136.85532420309443,70 L 136.89522488800645,70 L 138.36997355248525,70 L 138.3971174849692,70 L 138.43594316265413,70 L 139.9166939508175,70 L 139.95326211332554,70 L 139.9858706658805,70 L 141.46002807638442,70 L 141.49349663472105,70 L 141.5320356438121,70 L 143.00535096532144,70 L 143.0459504049311,70 L 143.08309190462694,70 L 144.55680139545285,70 L 144.58743910142482,70 L 144.6218393326916,70 L 146.11095726043914,70 L 146.14834959515463,70 L 146.19043612809506,70 L 147.65773140913274,70 L 147.69112830032088,70 L 147.72452519150903,70 L 149.20224804264944,70 L 149.23933579198393,70 L 149.27581437055642,70 L 150.7436471552076,70 L 150.7839240926491,70 L 150.82226601708186,70 L 152.2904213039012,70 L 152.3306803245556,70 L 152.37486312158887,70 L 153.8529084748974,70 L 153.88492577347745,70 L 153.92633146850739,70 L 155.39704885588463,70 L 155.42471237519499,70 L 155.45977552758512,70 L 156.94066965004544,70 L 156.97727364612774,70 L 157.01439722903643,70 L 158.48945047889626,70 L 158.52141402711496,70 L 158.56274805499643,70 L 160.03712046694574,70 L 160.06928109982277,70 L 160.1073721892359,70 L 161.5856146272027,70 L 161.61713025574346,70 L 161.65126173520346,70 L 163.13192293943123,40 L 163.1617543899829,40 L 164.67869708812484,40 L 164.71512191633593,40 L 164.7495221476027,40 L 166.22828417239595,40 L 166.2533676743613,40 L 166.29606337806376,40 L 167.7846975525591,40 L 167.82253780695254,40 L 169.3251470754,40 L 169.36456400705984,40 L 169.41602101966308,40 L 170.875468747943,40 L 170.91404359060826,40 L 170.93778333353976,40 L 172.42550375189208,40 L 172.46137315970253,40 L 172.49919549730888,40 L 173.97444583182696,40 L 174.00863106164834,40 L 174.0473850721848,40 L 175.52078997762973,40 L 175.5515172675373,40 L 175.59014586056395,40 L 177.06865705033752,40 L 177.1011581021698,40 L 177.13308581681426,40 L 178.61612995372874,40 L 178.65325353663746,40 L 178.69431881271217,40 L 180.1672220481178,40 L 180.20364687632892,40 L 180.24817009231742,40 L 181.70582614188552,40 L 181.74316472623968,40 L 181.78609334817466,40 L 183.2609674301633,40 L 183.29660391974122,40 L 183.33333333333334,40" fill="none" stroke="none"/>
  </g>
  <!-- 🔓 Public Contributions Chart -->
  <g transform="translate(293.33333333333337, 250)">
    <!-- Chart Background -->
    <rect x="0" y="0" width="213.33333333333334" height="200" fill="#ffffff" stroke="#e2e8f0" stroke-width="1" rx="8" filter="url(#shadow)">
      <animate attributeName="opacity" values="0;1" dur="0.5s" begin="2.3s" fill="freeze"/>
    </rect>
    
    <!-- Chart Title -->
    <text x="106.66666666666667" y="25" text-anchor="middle" fill="#1e293b" font-size="14" font-weight="bold" font-family="Arial, sans-serif">
      🔓 Public Contributions
      <animate attributeName="opacity" values="0;1" dur="0.5s" begin="2.5s" fill="freeze"/>
    </text>
    
    <!-- Y-axis labels -->
    <text x="10" y="45" fill="#64748b" font-size="10" font-family="Arial, sans-serif">3,861
      <animate attributeName="opacity" values="0;1" dur="0.5s" begin="2.6999999999999997s" fill="freeze"/>
    </text>
    <text x="10" y="185" fill="#64748b" font-size="10" font-family="Arial, sans-serif">3,434
      <animate attributeName="opacity" values="0;1" dur="0.5s" begin="2.6999999999999997s" fill="freeze"/>
    </text>
    
    <!-- Chart Line with draw animation that follows the circle -->
    <path d="M 30,160 L 30.030010618422835,160 L 30.063300008888284,160 L 31.551468346918544,160 L 31.57332682720264,160 L 31.604358702491204,160 L 33.09512497465359,160 L 33.12002930874776,160 L 33.15215410805053,160 L 34.64603790117147,160 L 34.67542143204517,160 L 34.70106035441119,160 L 36.19288371701354,160 L 36.22570727101392,160 L 36.24862284173798,160 L 37.74290080417552,160 L 37.77178266500991,160 L 37.80503622190112,160 L 39.29141288121957,160 L 39.31959598735636,160 L 39.353619966093646,160 L 40.83850953208129,160 L 40.864166371234425,160 L 40.89618366981449,160 L 42.387917448481254,160 L 42.415903469959744,160 L 42.44835077143064,160 L 43.93203991268137,160 L 43.969647248842286,160 L 43.99141614519079,160 L 45.480283237918655,160 L 45.50957718485677,160 L 45.53872779749793,160 L 47.024154867099114,160 L 47.05647675106019,160 L 47.0834952660343,160 L 48.16359086066247,160 L 48.578776568550445,160 L 48.61090136785322,160 L 48.64474617871933,160 L 50.12660780768401,160 L 50.15470132988521,160 L 50.18759655103406,160 L 51.67271903525424,160 L 51.69438043088003,160 L 51.730715675155565,160 L 53.22280778956468,160 L 53.24986213811303,160 L 53.28132401629244,160 L 54.77090778050503,160 L 54.80339091555016,160 L 54.83685947388679,160 L 56.31703692486237,160 L 56.34470044417273,160 L 56.381125272383855,160 L 57.86936527756258,160 L 57.89296168619714,160 L 57.92202271490271,160 L 59.416067759107705,160 L 59.44957215101857,160 L 59.48094444526239,160 L 60.96318232675655,160 L 60.99333627947633,160 L 61.02719900712956,160 L 62.50900688573289,160 L 62.538408333393704,160 L 62.57155438956221,160 L 64.0602423144189,160 L 64.08772666585807,160 L 64.1158381048464,160 L 65.60649687628606,160 L 65.63428581310626,160 L 65.6676827042944,160 L 67.14560264009312,160 L 67.18240372083372,160 L 67.21327434503822,160 L 68.70169351808812,160 L 68.7234265808624,160 L 68.76250309356699,160 L 70.25154935416603,160 L 70.28421165708235,160 L 70.31862980513625,160 L 71.80176352598632,160 L 71.83164872689932,160 L 71.86330768973701,160 L 73.34060053798659,160 L 73.37306575624461,160 L 73.40544139056703,160 L 74.89339472715187,160 L 74.9237815981042,160 L 74.95850433153907,160 L 76.44188888740881,160 L 76.46985699210018,160 L 76.50072761630469,160 L 77.99102805200201,160 L 78.01095151927734,160 L 78.05986434810978,160 L 79.53640469130038,160 L 79.56655864402016,160 L 79.59630051063623,160 L 81.08728178424403,160 L 81.12152076442673,160 L 81.15267805722513,160 L 82.63453968618981,160 L 82.6646936389096,160 L 82.69945220591873,160 L 84.18043591231462,160 L 84.21007027820798,160 L 84.23707087639497,160 L 85.73079341843184,160 L 85.7614132076167,160 L 85.79294675294457,160 L 87.2834621900873,160 L 87.31227238377322,160 L 87.34068840814254,160 L 88.82566755806577,160 L 88.85646651512181,40 L 88.88855548085036,40 L 90.37946508730968,40 L 90.4008398143416,40 L 90.43031292915087,40 L 91.92360546829691,40 L 91.94750646231248,40 L 91.98991549742104,40 L 93.47346130437484,40 L 93.50494109934135,40 L 93.5325867018646,40 L 95.01520083588822,40 L 95.04969065109059,40 L 95.08346379480824,40 L 96.5727429736398,40 L 96.58800807626444,40 L 96.62937793772016,40 L 98.11765377647313,40 L 98.15028024581521,40 L 98.18713507691716,40 L 99.66578960098771,40 L 99.69653480768238,40 L 99.7359338225551,40 L 101.21141707530575,40 L 101.2441152117963,40 L 101.28226005157074,40 L 102.76800962334006,40 L 102.80443445155119,40 L 104.3100716570216,40 L 104.38666592195152,40 L 105.85833289904599,40 L 105.89640607167198,40 L 105.93254423128921,40 L 107.40596705352127,40 L 107.44608273987872,40 L 107.47369250882772,40 L 108.95725623256864,40 L 108.99083229162797,40 L 109.02852921172448,40 L 110.49981993628947,40 L 110.53337807856168,40 L 110.57112874901955,40 L 112.05019535919381,40 L 112.08318016427825,40 L 112.11856581883652,40 L 113.60367038626957,40 L 113.64701109430828,40 L 115.18591977345704,40 L 115.2269492159575,40 L 116.70318497376711,40 L 116.73701186784609,40 L 118.25524457466054,40 L 118.28405476834648,40 L 118.33149842063521,40 L 119.7913940685931,40 L 119.82436095689043,40 L 119.85965702751311,40 L 121.34126782145813,40 L 121.38025475022714,40 L 121.4193850132931,40 L 122.88653696003381,40 L 122.91814217251016,40 L 122.95655576409138,40 L 124.43329319194028,40 L 124.4692163501121,40 L 124.51617624914867,40 L 125.9765198167845,40 L 126.01740592498803,40 L 126.05698410773192,40 L 127.53167902184938,40 L 127.56457424299822,40 L 127.60212782879778,40 L 129.07965359527986,40 L 129.11294298574535,40 L 129.1513207437523,40 L 130.6256573221274,40 L 130.6642500815798,40 L 130.70583494448096,40 L 132.17522648961142,40 L 132.205953779519,40 L 132.2429877784921,40 L 133.72459857243715,40 L 133.7521725078119,40 L 133.7898335943342,40 L 135.26873895342436,40 L 135.3040887744084,40 L 135.34312945353878,40 L 136.8178064508691,40 L 136.85532420309443,40 L 136.89522488800645,40 L 138.36997355248525,40 L 138.3971174849692,40 L 138.43594316265413,40 L 139.9166939508175,40 L 139.95326211332554,40 L 139.9858706658805,40 L 141.46002807638442,40 L 141.49349663472105,40 L 141.5320356438121,40 L 143.00535096532144,40 L 143.0459504049311,40 L 143.08309190462694,40 L 144.55680139545285,40 L 144.58743910142482,40 L 144.6218393326916,40 L 146.11095726043914,40 L 146.14834959515463,40 L 146.19043612809506,40 L 147.65773140913274,40 L 147.69112830032088,40 L 147.72452519150903,40 L 149.20224804264944,40 L 149.23933579198393,40 L 149.27581437055642,40 L 150.7436471552076,40 L 150.7839240926491,40 L 150.82226601708186,40 L 152.2904213039012,40 L 152.3306803245556,40 L 152.37486312158887,40 L 153.8529084748974,40 L 153.88492577347745,40 L 153.92633146850739,40 L 155.39704885588463,40 L 155.42471237519499,40 L 155.45977552758512,40 L 156.94066965004544,40 L 156.97727364612774,40 L 157.01439722903643,40 L 158.48945047889626,40 L 158.52141402711496,40 L 158.56274805499643,40 L 160.03712046694574,40 L 160.06928109982277,40 L 160.1073721892359,40 L 161.5856146272027,40 L 161.61713025574346,40 L 161.65126173520346,40 L 163.13192293943123,66.4168618266979 L 163.1617543899829,66.4168618266979 L 164.67869708812484,66.4168618266979 L 164.71512191633593,66.4168618266979 L 164.7495221476027,66.4168618266979 L 166.22828417239595,66.4168618266979 L 166.2533676743613,66.4168618266979 L 166.29606337806376,66.4168618266979 L 167.7846975525591,66.4168618266979 L 167.82253780695254,66.4168618266979 L 169.3251470754,66.4168618266979 L 169.36456400705984,66.4168618266979 L 169.41602101966308,66.4168618266979 L 170.875468747943,66.4168618266979 L 170.91404359060826,66.4168618266979 L 170.93778333353976,66.4168618266979 L 172.42550375189208,66.4168618266979 L 172.46137315970253,66.4168618266979 L 172.49919549730888,66.4168618266979 L 173.97444583182696,66.4168618266979 L 174.00863106164834,66.4168618266979 L 174.0473850721848,66.4168618266979 L 175.52078997762973,66.4168618266979 L 175.5515172675373,66.4168618266979 L 175.59014586056395,66.4168618266979 L 177.06865705033752,66.4168618266979 L 177.1011581021698,66.4168618266979 L 177.13308581681426,66.4168618266979 L 178.61612995372874,66.4168618266979 L 178.65325353663746,66.4168618266979 L 178.69431881271217,66.4168618266979 L 180.1672220481178,66.4168618266979 L 180.20364687632892,66.4168618266979 L 180.24817009231742,66.4168618266979 L 181.70582614188552,66.4168618266979 L 181.74316472623968,66.4168618266979 L 181.78609334817466,66.4168618266979 L 183.2609674301633,66.4168618266979 L 183.29660391974122,66.4168618266979 L 183.33333333333334,66.4168618266979" stroke="#3b82f6" stroke-width="2" fill="none" stroke-dasharray="14700" stroke-dashoffset="14700">
      <animate attributeName="stroke-dashoffset" values="14700;0" dur="3s" begin="3.0999999999999996s" fill="freeze"/>
    </path>
    
    <!-- Glow effect for the line that also follows the circle -->
    <path d="M 30,160 L 30.030010618422835,160 L 30.063300008888284,160 L 31.551468346918544,160 L 31.57332682720264,160 L 31.604358702491204,160 L 33.09512497465359,160 L 33.12002930874776,160 L 33.15215410805053,160 L 34.64603790117147,160 L 34.67542143204517,160 L 34.70106035441119,160 L 36.19288371701354,160 L 36.22570727101392,160 L 36.24862284173798,160 L 37.74290080417552,160 L 37.77178266500991,160 L 37.80503622190112,160 L 39.29141288121957,160 L 39.31959598735636,160 L 39.353619966093646,160 L 40.83850953208129,160 L 40.864166371234425,160 L 40.89618366981449,160 L 42.387917448481254,160 L 42.415903469959744,160 L 42.44835077143064,160 L 43.93203991268137,160 L 43.969647248842286,160 L 43.99141614519079,160 L 45.480283237918655,160 L 45.50957718485677,160 L 45.53872779749793,160 L 47.024154867099114,160 L 47.05647675106019,160 L 47.0834952660343,160 L 48.16359086066247,160 L 48.578776568550445,160 L 48.61090136785322,160 L 48.64474617871933,160 L 50.12660780768401,160 L 50.15470132988521,160 L 50.18759655103406,160 L 51.67271903525424,160 L 51.69438043088003,160 L 51.730715675155565,160 L 53.22280778956468,160 L 53.24986213811303,160 L 53.28132401629244,160 L 54.77090778050503,160 L 54.80339091555016,160 L 54.83685947388679,160 L 56.31703692486237,160 L 56.34470044417273,160 L 56.381125272383855,160 L 57.86936527756258,160 L 57.89296168619714,160 L 57.92202271490271,160 L 59.416067759107705,160 L 59.44957215101857,160 L 59.48094444526239,160 L 60.96318232675655,160 L 60.99333627947633,160 L 61.02719900712956,160 L 62.50900688573289,160 L 62.538408333393704,160 L 62.57155438956221,160 L 64.0602423144189,160 L 64.08772666585807,160 L 64.1158381048464,160 L 65.60649687628606,160 L 65.63428581310626,160 L 65.6676827042944,160 L 67.14560264009312,160 L 67.18240372083372,160 L 67.21327434503822,160 L 68.70169351808812,160 L 68.7234265808624,160 L 68.76250309356699,160 L 70.25154935416603,160 L 70.28421165708235,160 L 70.31862980513625,160 L 71.80176352598632,160 L 71.83164872689932,160 L 71.86330768973701,160 L 73.34060053798659,160 L 73.37306575624461,160 L 73.40544139056703,160 L 74.89339472715187,160 L 74.9237815981042,160 L 74.95850433153907,160 L 76.44188888740881,160 L 76.46985699210018,160 L 76.50072761630469,160 L 77.99102805200201,160 L 78.01095151927734,160 L 78.05986434810978,160 L 79.53640469130038,160 L 79.56655864402016,160 L 79.59630051063623,160 L 81.08728178424403,160 L 81.12152076442673,160 L 81.15267805722513,160 L 82.63453968618981,160 L 82.6646936389096,160 L 82.69945220591873,160 L 84.18043591231462,160 L 84.21007027820798,160 L 84.23707087639497,160 L 85.73079341843184,160 L 85.7614132076167,160 L 85.79294675294457,160 L 87.2834621900873,160 L 87.31227238377322,160 L 87.34068840814254,160 L 88.82566755806577,160 L 88.85646651512181,40 L 88.88855548085036,40 L 90.37946508730968,40 L 90.4008398143416,40 L 90.43031292915087,40 L 91.92360546829691,40 L 91.94750646231248,40 L 91.98991549742104,40 L 93.47346130437484,40 L 93.50494109934135,40 L 93.5325867018646,40 L 95.01520083588822,40 L 95.04969065109059,40 L 95.08346379480824,40 L 96.5727429736398,40 L 96.58800807626444,40 L 96.62937793772016,40 L 98.11765377647313,40 L 98.15028024581521,40 L 98.18713507691716,40 L 99.66578960098771,40 L 99.69653480768238,40 L 99.7359338225551,40 L 101.21141707530575,40 L 101.2441152117963,40 L 101.28226005157074,40 L 102.76800962334006,40 L 102.80443445155119,40 L 104.3100716570216,40 L 104.38666592195152,40 L 105.85833289904599,40 L 105.89640607167198,40 L 105.93254423128921,40 L 107.40596705352127,40 L 107.44608273987872,40 L 107.47369250882772,40 L 108.95725623256864,40 L 108.99083229162797,40 L 109.02852921172448,40 L 110.49981993628947,40 L 110.53337807856168,40 L 110.57112874901955,40 L 112.05019535919381,40 L 112.08318016427825,40 L 112.11856581883652,40 L 113.60367038626957,40 L 113.64701109430828,40 L 115.18591977345704,40 L 115.2269492159575,40 L 116.70318497376711,40 L 116.73701186784609,40 L 118.25524457466054,40 L 118.28405476834648,40 L 118.33149842063521,40 L 119.7913940685931,40 L 119.82436095689043,40 L 119.85965702751311,40 L 121.34126782145813,40 L 121.38025475022714,40 L 121.4193850132931,40 L 122.88653696003381,40 L 122.91814217251016,40 L 122.95655576409138,40 L 124.43329319194028,40 L 124.4692163501121,40 L 124.51617624914867,40 L 125.9765198167845,40 L 126.01740592498803,40 L 126.05698410773192,40 L 127.53167902184938,40 L 127.56457424299822,40 L 127.60212782879778,40 L 129.07965359527986,40 L 129.11294298574535,40 L 129.1513207437523,40 L 130.6256573221274,40 L 130.6642500815798,40 L 130.70583494448096,40 L 132.17522648961142,40 L 132.205953779519,40 L 132.2429877784921,40 L 133.72459857243715,40 L 133.7521725078119,40 L 133.7898335943342,40 L 135.26873895342436,40 L 135.3040887744084,40 L 135.34312945353878,40 L 136.8178064508691,40 L 136.85532420309443,40 L 136.89522488800645,40 L 138.36997355248525,40 L 138.3971174849692,40 L 138.43594316265413,40 L 139.9166939508175,40 L 139.95326211332554,40 L 139.9858706658805,40 L 141.46002807638442,40 L 141.49349663472105,40 L 141.5320356438121,40 L 143.00535096532144,40 L 143.0459504049311,40 L 143.08309190462694,40 L 144.55680139545285,40 L 144.58743910142482,40 L 144.6218393326916,40 L 146.11095726043914,40 L 146.14834959515463,40 L 146.19043612809506,40 L 147.65773140913274,40 L 147.69112830032088,40 L 147.72452519150903,40 L 149.20224804264944,40 L 149.23933579198393,40 L 149.27581437055642,40 L 150.7436471552076,40 L 150.7839240926491,40 L 150.82226601708186,40 L 152.2904213039012,40 L 152.3306803245556,40 L 152.37486312158887,40 L 153.8529084748974,40 L 153.88492577347745,40 L 153.92633146850739,40 L 155.39704885588463,40 L 155.42471237519499,40 L 155.45977552758512,40 L 156.94066965004544,40 L 156.97727364612774,40 L 157.01439722903643,40 L 158.48945047889626,40 L 158.52141402711496,40 L 158.56274805499643,40 L 160.03712046694574,40 L 160.06928109982277,40 L 160.1073721892359,40 L 161.5856146272027,40 L 161.61713025574346,40 L 161.65126173520346,40 L 163.13192293943123,66.4168618266979 L 163.1617543899829,66.4168618266979 L 164.67869708812484,66.4168618266979 L 164.71512191633593,66.4168618266979 L 164.7495221476027,66.4168618266979 L 166.22828417239595,66.4168618266979 L 166.2533676743613,66.4168618266979 L 166.29606337806376,66.4168618266979 L 167.7846975525591,66.4168618266979 L 167.82253780695254,66.4168618266979 L 169.3251470754,66.4168618266979 L 169.36456400705984,66.4168618266979 L 169.41602101966308,66.4168618266979 L 170.875468747943,66.4168618266979 L 170.91404359060826,66.4168618266979 L 170.93778333353976,66.4168618266979 L 172.42550375189208,66.4168618266979 L 172.46137315970253,66.4168618266979 L 172.49919549730888,66.4168618266979 L 173.97444583182696,66.4168618266979 L 174.00863106164834,66.4168618266979 L 174.0473850721848,66.4168618266979 L 175.52078997762973,66.4168618266979 L 175.5515172675373,66.4168618266979 L 175.59014586056395,66.4168618266979 L 177.06865705033752,66.4168618266979 L 177.1011581021698,66.4168618266979 L 177.13308581681426,66.4168618266979 L 178.61612995372874,66.4168618266979 L 178.65325353663746,66.4168618266979 L 178.69431881271217,66.4168618266979 L 180.1672220481178,66.4168618266979 L 180.20364687632892,66.4168618266979 L 180.24817009231742,66.4168618266979 L 181.70582614188552,66.4168618266979 L 181.74316472623968,66.4168618266979 L 181.78609334817466,66.4168618266979 L 183.2609674301633,66.4168618266979 L 183.29660391974122,66.4168618266979 L 183.33333333333334,66.4168618266979" stroke="#3b82f6" stroke-width="4" fill="none" opacity="0.4" stroke-dasharray="14700" stroke-dashoffset="14700">
      <animate attributeName="stroke-dashoffset" values="14700;0" dur="3s" begin="3.0999999999999996s" fill="freeze"/>
    </path>
    
    <!-- Animated circle that moves along the path and draws the line -->
    <circle r="5" fill="#3b82f6" opacity="0" filter="url(#trailGlow)">
      <animate attributeName="opacity" values="0;1;1;1" dur="3.2s" begin="2.9s" fill="freeze"/>
      <animate attributeName="r" values="5;6;5" dur="1s" begin="2.9s" repeatCount="3"/>
      <animateMotion dur="3s" begin="2.9s" fill="freeze">
        <mpath href="#path_publicContributions_293.33333333333337"/>
      </animateMotion>
    </circle>
    
    <!-- Small trail dots that fade out -->
    <circle r="2" fill="#3b82f6" opacity="0">
      <animate attributeName="opacity" values="0;0.6;0" dur="0.8s" begin="3.3s" fill="freeze"/>
      <animateMotion dur="3s" begin="2.9s" fill="freeze">
        <mpath href="#path_publicContributions_293.33333333333337"/>
      </animateMotion>
    </circle>
    
    <!-- Hidden path for motion animation -->
    <path id="path_publicContributions_293.33333333333337" d="M 30,160 L 30.030010618422835,160 L 30.063300008888284,160 L 31.551468346918544,160 L 31.57332682720264,160 L 31.604358702491204,160 L 33.09512497465359,160 L 33.12002930874776,160 L 33.15215410805053,160 L 34.64603790117147,160 L 34.67542143204517,160 L 34.70106035441119,160 L 36.19288371701354,160 L 36.22570727101392,160 L 36.24862284173798,160 L 37.74290080417552,160 L 37.77178266500991,160 L 37.80503622190112,160 L 39.29141288121957,160 L 39.31959598735636,160 L 39.353619966093646,160 L 40.83850953208129,160 L 40.864166371234425,160 L 40.89618366981449,160 L 42.387917448481254,160 L 42.415903469959744,160 L 42.44835077143064,160 L 43.93203991268137,160 L 43.969647248842286,160 L 43.99141614519079,160 L 45.480283237918655,160 L 45.50957718485677,160 L 45.53872779749793,160 L 47.024154867099114,160 L 47.05647675106019,160 L 47.0834952660343,160 L 48.16359086066247,160 L 48.578776568550445,160 L 48.61090136785322,160 L 48.64474617871933,160 L 50.12660780768401,160 L 50.15470132988521,160 L 50.18759655103406,160 L 51.67271903525424,160 L 51.69438043088003,160 L 51.730715675155565,160 L 53.22280778956468,160 L 53.24986213811303,160 L 53.28132401629244,160 L 54.77090778050503,160 L 54.80339091555016,160 L 54.83685947388679,160 L 56.31703692486237,160 L 56.34470044417273,160 L 56.381125272383855,160 L 57.86936527756258,160 L 57.89296168619714,160 L 57.92202271490271,160 L 59.416067759107705,160 L 59.44957215101857,160 L 59.48094444526239,160 L 60.96318232675655,160 L 60.99333627947633,160 L 61.02719900712956,160 L 62.50900688573289,160 L 62.538408333393704,160 L 62.57155438956221,160 L 64.0602423144189,160 L 64.08772666585807,160 L 64.1158381048464,160 L 65.60649687628606,160 L 65.63428581310626,160 L 65.6676827042944,160 L 67.14560264009312,160 L 67.18240372083372,160 L 67.21327434503822,160 L 68.70169351808812,160 L 68.7234265808624,160 L 68.76250309356699,160 L 70.25154935416603,160 L 70.28421165708235,160 L 70.31862980513625,160 L 71.80176352598632,160 L 71.83164872689932,160 L 71.86330768973701,160 L 73.34060053798659,160 L 73.37306575624461,160 L 73.40544139056703,160 L 74.89339472715187,160 L 74.9237815981042,160 L 74.95850433153907,160 L 76.44188888740881,160 L 76.46985699210018,160 L 76.50072761630469,160 L 77.99102805200201,160 L 78.01095151927734,160 L 78.05986434810978,160 L 79.53640469130038,160 L 79.56655864402016,160 L 79.59630051063623,160 L 81.08728178424403,160 L 81.12152076442673,160 L 81.15267805722513,160 L 82.63453968618981,160 L 82.6646936389096,160 L 82.69945220591873,160 L 84.18043591231462,160 L 84.21007027820798,160 L 84.23707087639497,160 L 85.73079341843184,160 L 85.7614132076167,160 L 85.79294675294457,160 L 87.2834621900873,160 L 87.31227238377322,160 L 87.34068840814254,160 L 88.82566755806577,160 L 88.85646651512181,40 L 88.88855548085036,40 L 90.37946508730968,40 L 90.4008398143416,40 L 90.43031292915087,40 L 91.92360546829691,40 L 91.94750646231248,40 L 91.98991549742104,40 L 93.47346130437484,40 L 93.50494109934135,40 L 93.5325867018646,40 L 95.01520083588822,40 L 95.04969065109059,40 L 95.08346379480824,40 L 96.5727429736398,40 L 96.58800807626444,40 L 96.62937793772016,40 L 98.11765377647313,40 L 98.15028024581521,40 L 98.18713507691716,40 L 99.66578960098771,40 L 99.69653480768238,40 L 99.7359338225551,40 L 101.21141707530575,40 L 101.2441152117963,40 L 101.28226005157074,40 L 102.76800962334006,40 L 102.80443445155119,40 L 104.3100716570216,40 L 104.38666592195152,40 L 105.85833289904599,40 L 105.89640607167198,40 L 105.93254423128921,40 L 107.40596705352127,40 L 107.44608273987872,40 L 107.47369250882772,40 L 108.95725623256864,40 L 108.99083229162797,40 L 109.02852921172448,40 L 110.49981993628947,40 L 110.53337807856168,40 L 110.57112874901955,40 L 112.05019535919381,40 L 112.08318016427825,40 L 112.11856581883652,40 L 113.60367038626957,40 L 113.64701109430828,40 L 115.18591977345704,40 L 115.2269492159575,40 L 116.70318497376711,40 L 116.73701186784609,40 L 118.25524457466054,40 L 118.28405476834648,40 L 118.33149842063521,40 L 119.7913940685931,40 L 119.82436095689043,40 L 119.85965702751311,40 L 121.34126782145813,40 L 121.38025475022714,40 L 121.4193850132931,40 L 122.88653696003381,40 L 122.91814217251016,40 L 122.95655576409138,40 L 124.43329319194028,40 L 124.4692163501121,40 L 124.51617624914867,40 L 125.9765198167845,40 L 126.01740592498803,40 L 126.05698410773192,40 L 127.53167902184938,40 L 127.56457424299822,40 L 127.60212782879778,40 L 129.07965359527986,40 L 129.11294298574535,40 L 129.1513207437523,40 L 130.6256573221274,40 L 130.6642500815798,40 L 130.70583494448096,40 L 132.17522648961142,40 L 132.205953779519,40 L 132.2429877784921,40 L 133.72459857243715,40 L 133.7521725078119,40 L 133.7898335943342,40 L 135.26873895342436,40 L 135.3040887744084,40 L 135.34312945353878,40 L 136.8178064508691,40 L 136.85532420309443,40 L 136.89522488800645,40 L 138.36997355248525,40 L 138.3971174849692,40 L 138.43594316265413,40 L 139.9166939508175,40 L 139.95326211332554,40 L 139.9858706658805,40 L 141.46002807638442,40 L 141.49349663472105,40 L 141.5320356438121,40 L 143.00535096532144,40 L 143.0459504049311,40 L 143.08309190462694,40 L 144.55680139545285,40 L 144.58743910142482,40 L 144.6218393326916,40 L 146.11095726043914,40 L 146.14834959515463,40 L 146.19043612809506,40 L 147.65773140913274,40 L 147.69112830032088,40 L 147.72452519150903,40 L 149.20224804264944,40 L 149.23933579198393,40 L 149.27581437055642,40 L 150.7436471552076,40 L 150.7839240926491,40 L 150.82226601708186,40 L 152.2904213039012,40 L 152.3306803245556,40 L 152.37486312158887,40 L 153.8529084748974,40 L 153.88492577347745,40 L 153.92633146850739,40 L 155.39704885588463,40 L 155.42471237519499,40 L 155.45977552758512,40 L 156.94066965004544,40 L 156.97727364612774,40 L 157.01439722903643,40 L 158.48945047889626,40 L 158.52141402711496,40 L 158.56274805499643,40 L 160.03712046694574,40 L 160.06928109982277,40 L 160.1073721892359,40 L 161.5856146272027,40 L 161.61713025574346,40 L 161.65126173520346,40 L 163.13192293943123,66.4168618266979 L 163.1617543899829,66.4168618266979 L 164.67869708812484,66.4168618266979 L 164.71512191633593,66.4168618266979 L 164.7495221476027,66.4168618266979 L 166.22828417239595,66.4168618266979 L 166.2533676743613,66.4168618266979 L 166.29606337806376,66.4168618266979 L 167.7846975525591,66.4168618266979 L 167.82253780695254,66.4168618266979 L 169.3251470754,66.4168618266979 L 169.36456400705984,66.4168618266979 L 169.41602101966308,66.4168618266979 L 170.875468747943,66.4168618266979 L 170.91404359060826,66.4168618266979 L 170.93778333353976,66.4168618266979 L 172.42550375189208,66.4168618266979 L 172.46137315970253,66.4168618266979 L 172.49919549730888,66.4168618266979 L 173.97444583182696,66.4168618266979 L 174.00863106164834,66.4168618266979 L 174.0473850721848,66.4168618266979 L 175.52078997762973,66.4168618266979 L 175.5515172675373,66.4168618266979 L 175.59014586056395,66.4168618266979 L 177.06865705033752,66.4168618266979 L 177.1011581021698,66.4168618266979 L 177.13308581681426,66.4168618266979 L 178.61612995372874,66.4168618266979 L 178.65325353663746,66.4168618266979 L 178.69431881271217,66.4168618266979 L 180.1672220481178,66.4168618266979 L 180.20364687632892,66.4168618266979 L 180.24817009231742,66.4168618266979 L 181.70582614188552,66.4168618266979 L 181.74316472623968,66.4168618266979 L 181.78609334817466,66.4168618266979 L 183.2609674301633,66.4168618266979 L 183.29660391974122,66.4168618266979 L 183.33333333333334,66.4168618266979" fill="none" stroke="none"/>
  </g>
  <!-- 📊 Total Contributions Chart -->
  <g transform="translate(526.6666666666667, 250)">
    <!-- Chart Background -->
    <rect x="0" y="0" width="213.33333333333334" height="200" fill="#ffffff" stroke="#e2e8f0" stroke-width="1" rx="8" filter="url(#shadow)">
      <animate attributeName="opacity" values="0;1" dur="0.5s" begin="2.8s" fill="freeze"/>
    </rect>
    
    <!-- Chart Title -->
    <text x="106.66666666666667" y="25" text-anchor="middle" fill="#1e293b" font-size="14" font-weight="bold" font-family="Arial, sans-serif">
      📊 Total Contributions
      <animate attributeName="opacity" values="0;1" dur="0.5s" begin="3s" fill="freeze"/>
    </text>
    
    <!-- Y-axis labels -->
    <text x="10" y="45" fill="#64748b" font-size="10" font-family="Arial, sans-serif">5,314
      <animate attributeName="opacity" values="0;1" dur="0.5s" begin="3.1999999999999997s" fill="freeze"/>
    </text>
    <text x="10" y="185" fill="#64748b" font-size="10" font-family="Arial, sans-serif">4,917
      <animate attributeName="opacity" values="0;1" dur="0.5s" begin="3.1999999999999997s" fill="freeze"/>
    </text>
    
    <!-- Chart Line with draw animation that follows the circle -->
    <path d="M 30,160 L 30.030010618422835,160 L 30.063300008888284,160 L 31.551468346918544,160 L 31.57332682720264,160 L 31.604358702491204,160 L 33.09512497465359,160 L 33.12002930874776,160 L 33.15215410805053,160 L 34.64603790117147,160 L 34.67542143204517,160 L 34.70106035441119,160 L 36.19288371701354,160 L 36.22570727101392,160 L 36.24862284173798,160 L 37.74290080417552,160 L 37.77178266500991,160 L 37.80503622190112,160 L 39.29141288121957,160 L 39.31959598735636,160 L 39.353619966093646,160 L 40.83850953208129,160 L 40.864166371234425,160 L 40.89618366981449,160 L 42.387917448481254,160 L 42.415903469959744,160 L 42.44835077143064,160 L 43.93203991268137,160 L 43.969647248842286,160 L 43.99141614519079,160 L 45.480283237918655,160 L 45.50957718485677,160 L 45.53872779749793,160 L 47.024154867099114,160 L 47.05647675106019,160 L 47.0834952660343,160 L 48.16359086066247,160 L 48.578776568550445,160 L 48.61090136785322,160 L 48.64474617871933,160 L 50.12660780768401,160 L 50.15470132988521,160 L 50.18759655103406,160 L 51.67271903525424,160 L 51.69438043088003,160 L 51.730715675155565,160 L 53.22280778956468,160 L 53.24986213811303,160 L 53.28132401629244,160 L 54.77090778050503,160 L 54.80339091555016,160 L 54.83685947388679,160 L 56.31703692486237,160 L 56.34470044417273,160 L 56.381125272383855,160 L 57.86936527756258,160 L 57.89296168619714,160 L 57.92202271490271,160 L 59.416067759107705,160 L 59.44957215101857,160 L 59.48094444526239,160 L 60.96318232675655,160 L 60.99333627947633,160 L 61.02719900712956,160 L 62.50900688573289,160 L 62.538408333393704,160 L 62.57155438956221,160 L 64.0602423144189,160 L 64.08772666585807,160 L 64.1158381048464,160 L 65.60649687628606,160 L 65.63428581310626,160 L 65.6676827042944,160 L 67.14560264009312,160 L 67.18240372083372,160 L 67.21327434503822,160 L 68.70169351808812,160 L 68.7234265808624,160 L 68.76250309356699,160 L 70.25154935416603,160 L 70.28421165708235,160 L 70.31862980513625,160 L 71.80176352598632,160 L 71.83164872689932,160 L 71.86330768973701,160 L 73.34060053798659,160 L 73.37306575624461,160 L 73.40544139056703,160 L 74.89339472715187,160 L 74.9237815981042,160 L 74.95850433153907,160 L 76.44188888740881,160 L 76.46985699210018,160 L 76.50072761630469,160 L 77.99102805200201,160 L 78.01095151927734,160 L 78.05986434810978,160 L 79.53640469130038,160 L 79.56655864402016,160 L 79.59630051063623,160 L 81.08728178424403,160 L 81.12152076442673,160 L 81.15267805722513,160 L 82.63453968618981,160 L 82.6646936389096,160 L 82.69945220591873,160 L 84.18043591231462,160 L 84.21007027820798,160 L 84.23707087639497,160 L 85.73079341843184,160 L 85.7614132076167,160 L 85.79294675294457,160 L 87.2834621900873,160 L 87.31227238377322,160 L 87.34068840814254,160 L 88.82566755806577,160 L 88.85646651512181,40 L 88.88855548085036,40 L 90.37946508730968,40 L 90.4008398143416,40 L 90.43031292915087,40 L 91.92360546829691,40 L 91.94750646231248,40 L 91.98991549742104,40 L 93.47346130437484,40 L 93.50494109934135,40 L 93.5325867018646,40 L 95.01520083588822,40 L 95.04969065109059,40 L 95.08346379480824,40 L 96.5727429736398,40 L 96.58800807626444,40 L 96.62937793772016,40 L 98.11765377647313,40 L 98.15028024581521,40 L 98.18713507691716,40 L 99.66578960098771,40 L 99.69653480768238,40 L 99.7359338225551,40 L 101.21141707530575,40 L 101.2441152117963,40 L 101.28226005157074,40 L 102.76800962334006,40 L 102.80443445155119,40 L 104.3100716570216,40 L 104.38666592195152,40 L 105.85833289904599,40 L 105.89640607167198,40 L 105.93254423128921,40 L 107.40596705352127,40 L 107.44608273987872,40 L 107.47369250882772,40 L 108.95725623256864,40 L 108.99083229162797,40 L 109.02852921172448,40 L 110.49981993628947,40 L 110.53337807856168,40 L 110.57112874901955,40 L 112.05019535919381,40 L 112.08318016427825,40 L 112.11856581883652,40 L 113.60367038626957,40 L 113.64701109430828,40 L 115.18591977345704,40 L 115.2269492159575,40 L 116.70318497376711,40 L 116.73701186784609,40 L 118.25524457466054,40 L 118.28405476834648,40 L 118.33149842063521,40 L 119.7913940685931,40 L 119.82436095689043,40 L 119.85965702751311,40 L 121.34126782145813,40 L 121.38025475022714,40 L 121.4193850132931,40 L 122.88653696003381,40 L 122.91814217251016,40 L 122.95655576409138,40 L 124.43329319194028,40 L 124.4692163501121,40 L 124.51617624914867,40 L 125.9765198167845,40 L 126.01740592498803,40 L 126.05698410773192,40 L 127.53167902184938,40 L 127.56457424299822,40 L 127.60212782879778,40 L 129.07965359527986,40 L 129.11294298574535,40 L 129.1513207437523,40 L 130.6256573221274,40 L 130.6642500815798,40 L 130.70583494448096,40 L 132.17522648961142,40 L 132.205953779519,40 L 132.2429877784921,40 L 133.72459857243715,40 L 133.7521725078119,40 L 133.7898335943342,40 L 135.26873895342436,40 L 135.3040887744084,40 L 135.34312945353878,40 L 136.8178064508691,40 L 136.85532420309443,40 L 136.89522488800645,40 L 138.36997355248525,40 L 138.3971174849692,40 L 138.43594316265413,40 L 139.9166939508175,40 L 139.95326211332554,40 L 139.9858706658805,40 L 141.46002807638442,40 L 141.49349663472105,40 L 141.5320356438121,40 L 143.00535096532144,40 L 143.0459504049311,40 L 143.08309190462694,40 L 144.55680139545285,40 L 144.58743910142482,40 L 144.6218393326916,40 L 146.11095726043914,40 L 146.14834959515463,40 L 146.19043612809506,40 L 147.65773140913274,40 L 147.69112830032088,40 L 147.72452519150903,40 L 149.20224804264944,40 L 149.23933579198393,40 L 149.27581437055642,40 L 150.7436471552076,40 L 150.7839240926491,40 L 150.82226601708186,40 L 152.2904213039012,40 L 152.3306803245556,40 L 152.37486312158887,40 L 153.8529084748974,40 L 153.88492577347745,40 L 153.92633146850739,40 L 155.39704885588463,40 L 155.42471237519499,40 L 155.45977552758512,40 L 156.94066965004544,40 L 156.97727364612774,40 L 157.01439722903643,40 L 158.48945047889626,40 L 158.52141402711496,40 L 158.56274805499643,40 L 160.03712046694574,40 L 160.06928109982277,40 L 160.1073721892359,40 L 161.5856146272027,40 L 161.61713025574346,40 L 161.65126173520346,40 L 163.13192293943123,72.04030226700252 L 163.1617543899829,72.04030226700252 L 164.67869708812484,72.04030226700252 L 164.71512191633593,72.04030226700252 L 164.7495221476027,72.04030226700252 L 166.22828417239595,72.04030226700252 L 166.2533676743613,72.04030226700252 L 166.29606337806376,72.04030226700252 L 167.7846975525591,72.04030226700252 L 167.82253780695254,72.04030226700252 L 169.3251470754,72.04030226700252 L 169.36456400705984,72.04030226700252 L 169.41602101966308,72.04030226700252 L 170.875468747943,72.04030226700252 L 170.91404359060826,72.04030226700252 L 170.93778333353976,72.04030226700252 L 172.42550375189208,72.04030226700252 L 172.46137315970253,72.04030226700252 L 172.49919549730888,72.04030226700252 L 173.97444583182696,72.04030226700252 L 174.00863106164834,72.04030226700252 L 174.0473850721848,72.04030226700252 L 175.52078997762973,72.04030226700252 L 175.5515172675373,72.04030226700252 L 175.59014586056395,72.04030226700252 L 177.06865705033752,72.04030226700252 L 177.1011581021698,72.04030226700252 L 177.13308581681426,72.04030226700252 L 178.61612995372874,72.04030226700252 L 178.65325353663746,72.04030226700252 L 178.69431881271217,72.04030226700252 L 180.1672220481178,72.04030226700252 L 180.20364687632892,72.04030226700252 L 180.24817009231742,72.04030226700252 L 181.70582614188552,72.04030226700252 L 181.74316472623968,72.04030226700252 L 181.78609334817466,72.04030226700252 L 183.2609674301633,72.04030226700252 L 183.29660391974122,72.04030226700252 L 183.33333333333334,72.04030226700252" stroke="#f59e0b" stroke-width="2" fill="none" stroke-dasharray="14700" stroke-dashoffset="14700">
      <animate attributeName="stroke-dashoffset" values="14700;0" dur="3s" begin="3.5999999999999996s" fill="freeze"/>
    </path>
    
    <!-- Glow effect for the line that also follows the circle -->
    <path d="M 30,160 L 30.030010618422835,160 L 30.063300008888284,160 L 31.551468346918544,160 L 31.57332682720264,160 L 31.604358702491204,160 L 33.09512497465359,160 L 33.12002930874776,160 L 33.15215410805053,160 L 34.64603790117147,160 L 34.67542143204517,160 L 34.70106035441119,160 L 36.19288371701354,160 L 36.22570727101392,160 L 36.24862284173798,160 L 37.74290080417552,160 L 37.77178266500991,160 L 37.80503622190112,160 L 39.29141288121957,160 L 39.31959598735636,160 L 39.353619966093646,160 L 40.83850953208129,160 L 40.864166371234425,160 L 40.89618366981449,160 L 42.387917448481254,160 L 42.415903469959744,160 L 42.44835077143064,160 L 43.93203991268137,160 L 43.969647248842286,160 L 43.99141614519079,160 L 45.480283237918655,160 L 45.50957718485677,160 L 45.53872779749793,160 L 47.024154867099114,160 L 47.05647675106019,160 L 47.0834952660343,160 L 48.16359086066247,160 L 48.578776568550445,160 L 48.61090136785322,160 L 48.64474617871933,160 L 50.12660780768401,160 L 50.15470132988521,160 L 50.18759655103406,160 L 51.67271903525424,160 L 51.69438043088003,160 L 51.730715675155565,160 L 53.22280778956468,160 L 53.24986213811303,160 L 53.28132401629244,160 L 54.77090778050503,160 L 54.80339091555016,160 L 54.83685947388679,160 L 56.31703692486237,160 L 56.34470044417273,160 L 56.381125272383855,160 L 57.86936527756258,160 L 57.89296168619714,160 L 57.92202271490271,160 L 59.416067759107705,160 L 59.44957215101857,160 L 59.48094444526239,160 L 60.96318232675655,160 L 60.99333627947633,160 L 61.02719900712956,160 L 62.50900688573289,160 L 62.538408333393704,160 L 62.57155438956221,160 L 64.0602423144189,160 L 64.08772666585807,160 L 64.1158381048464,160 L 65.60649687628606,160 L 65.63428581310626,160 L 65.6676827042944,160 L 67.14560264009312,160 L 67.18240372083372,160 L 67.21327434503822,160 L 68.70169351808812,160 L 68.7234265808624,160 L 68.76250309356699,160 L 70.25154935416603,160 L 70.28421165708235,160 L 70.31862980513625,160 L 71.80176352598632,160 L 71.83164872689932,160 L 71.86330768973701,160 L 73.34060053798659,160 L 73.37306575624461,160 L 73.40544139056703,160 L 74.89339472715187,160 L 74.9237815981042,160 L 74.95850433153907,160 L 76.44188888740881,160 L 76.46985699210018,160 L 76.50072761630469,160 L 77.99102805200201,160 L 78.01095151927734,160 L 78.05986434810978,160 L 79.53640469130038,160 L 79.56655864402016,160 L 79.59630051063623,160 L 81.08728178424403,160 L 81.12152076442673,160 L 81.15267805722513,160 L 82.63453968618981,160 L 82.6646936389096,160 L 82.69945220591873,160 L 84.18043591231462,160 L 84.21007027820798,160 L 84.23707087639497,160 L 85.73079341843184,160 L 85.7614132076167,160 L 85.79294675294457,160 L 87.2834621900873,160 L 87.31227238377322,160 L 87.34068840814254,160 L 88.82566755806577,160 L 88.85646651512181,40 L 88.88855548085036,40 L 90.37946508730968,40 L 90.4008398143416,40 L 90.43031292915087,40 L 91.92360546829691,40 L 91.94750646231248,40 L 91.98991549742104,40 L 93.47346130437484,40 L 93.50494109934135,40 L 93.5325867018646,40 L 95.01520083588822,40 L 95.04969065109059,40 L 95.08346379480824,40 L 96.5727429736398,40 L 96.58800807626444,40 L 96.62937793772016,40 L 98.11765377647313,40 L 98.15028024581521,40 L 98.18713507691716,40 L 99.66578960098771,40 L 99.69653480768238,40 L 99.7359338225551,40 L 101.21141707530575,40 L 101.2441152117963,40 L 101.28226005157074,40 L 102.76800962334006,40 L 102.80443445155119,40 L 104.3100716570216,40 L 104.38666592195152,40 L 105.85833289904599,40 L 105.89640607167198,40 L 105.93254423128921,40 L 107.40596705352127,40 L 107.44608273987872,40 L 107.47369250882772,40 L 108.95725623256864,40 L 108.99083229162797,40 L 109.02852921172448,40 L 110.49981993628947,40 L 110.53337807856168,40 L 110.57112874901955,40 L 112.05019535919381,40 L 112.08318016427825,40 L 112.11856581883652,40 L 113.60367038626957,40 L 113.64701109430828,40 L 115.18591977345704,40 L 115.2269492159575,40 L 116.70318497376711,40 L 116.73701186784609,40 L 118.25524457466054,40 L 118.28405476834648,40 L 118.33149842063521,40 L 119.7913940685931,40 L 119.82436095689043,40 L 119.85965702751311,40 L 121.34126782145813,40 L 121.38025475022714,40 L 121.4193850132931,40 L 122.88653696003381,40 L 122.91814217251016,40 L 122.95655576409138,40 L 124.43329319194028,40 L 124.4692163501121,40 L 124.51617624914867,40 L 125.9765198167845,40 L 126.01740592498803,40 L 126.05698410773192,40 L 127.53167902184938,40 L 127.56457424299822,40 L 127.60212782879778,40 L 129.07965359527986,40 L 129.11294298574535,40 L 129.1513207437523,40 L 130.6256573221274,40 L 130.6642500815798,40 L 130.70583494448096,40 L 132.17522648961142,40 L 132.205953779519,40 L 132.2429877784921,40 L 133.72459857243715,40 L 133.7521725078119,40 L 133.7898335943342,40 L 135.26873895342436,40 L 135.3040887744084,40 L 135.34312945353878,40 L 136.8178064508691,40 L 136.85532420309443,40 L 136.89522488800645,40 L 138.36997355248525,40 L 138.3971174849692,40 L 138.43594316265413,40 L 139.9166939508175,40 L 139.95326211332554,40 L 139.9858706658805,40 L 141.46002807638442,40 L 141.49349663472105,40 L 141.5320356438121,40 L 143.00535096532144,40 L 143.0459504049311,40 L 143.08309190462694,40 L 144.55680139545285,40 L 144.58743910142482,40 L 144.6218393326916,40 L 146.11095726043914,40 L 146.14834959515463,40 L 146.19043612809506,40 L 147.65773140913274,40 L 147.69112830032088,40 L 147.72452519150903,40 L 149.20224804264944,40 L 149.23933579198393,40 L 149.27581437055642,40 L 150.7436471552076,40 L 150.7839240926491,40 L 150.82226601708186,40 L 152.2904213039012,40 L 152.3306803245556,40 L 152.37486312158887,40 L 153.8529084748974,40 L 153.88492577347745,40 L 153.92633146850739,40 L 155.39704885588463,40 L 155.42471237519499,40 L 155.45977552758512,40 L 156.94066965004544,40 L 156.97727364612774,40 L 157.01439722903643,40 L 158.48945047889626,40 L 158.52141402711496,40 L 158.56274805499643,40 L 160.03712046694574,40 L 160.06928109982277,40 L 160.1073721892359,40 L 161.5856146272027,40 L 161.61713025574346,40 L 161.65126173520346,40 L 163.13192293943123,72.04030226700252 L 163.1617543899829,72.04030226700252 L 164.67869708812484,72.04030226700252 L 164.71512191633593,72.04030226700252 L 164.7495221476027,72.04030226700252 L 166.22828417239595,72.04030226700252 L 166.2533676743613,72.04030226700252 L 166.29606337806376,72.04030226700252 L 167.7846975525591,72.04030226700252 L 167.82253780695254,72.04030226700252 L 169.3251470754,72.04030226700252 L 169.36456400705984,72.04030226700252 L 169.41602101966308,72.04030226700252 L 170.875468747943,72.04030226700252 L 170.91404359060826,72.04030226700252 L 170.93778333353976,72.04030226700252 L 172.42550375189208,72.04030226700252 L 172.46137315970253,72.04030226700252 L 172.49919549730888,72.04030226700252 L 173.97444583182696,72.04030226700252 L 174.00863106164834,72.04030226700252 L 174.0473850721848,72.04030226700252 L 175.52078997762973,72.04030226700252 L 175.5515172675373,72.04030226700252 L 175.59014586056395,72.04030226700252 L 177.06865705033752,72.04030226700252 L 177.1011581021698,72.04030226700252 L 177.13308581681426,72.04030226700252 L 178.61612995372874,72.04030226700252 L 178.65325353663746,72.04030226700252 L 178.69431881271217,72.04030226700252 L 180.1672220481178,72.04030226700252 L 180.20364687632892,72.04030226700252 L 180.24817009231742,72.04030226700252 L 181.70582614188552,72.04030226700252 L 181.74316472623968,72.04030226700252 L 181.78609334817466,72.04030226700252 L 183.2609674301633,72.04030226700252 L 183.29660391974122,72.04030226700252 L 183.33333333333334,72.04030226700252" stroke="#f59e0b" stroke-width="4" fill="none" opacity="0.4" stroke-dasharray="14700" stroke-dashoffset="14700">
      <animate attributeName="stroke-dashoffset" values="14700;0" dur="3s" begin="3.5999999999999996s" fill="freeze"/>
    </path>
    
    <!-- Animated circle that moves along the path and draws the line -->
    <circle r="5" fill="#f59e0b" opacity="0" filter="url(#trailGlow)">
      <animate attributeName="opacity" values="0;1;1;1" dur="3.2s" begin="3.4s" fill="freeze"/>
      <animate attributeName="r" values="5;6;5" dur="1s" begin="3.4s" repeatCount="3"/>
      <animateMotion dur="3s" begin="3.4s" fill="freeze">
        <mpath href="#path_totalContributions_526.6666666666667"/>
      </animateMotion>
    </circle>
    
    <!-- Small trail dots that fade out -->
    <circle r="2" fill="#f59e0b" opacity="0">
      <animate attributeName="opacity" values="0;0.6;0" dur="0.8s" begin="3.8s" fill="freeze"/>
      <animateMotion dur="3s" begin="3.4s" fill="freeze">
        <mpath href="#path_totalContributions_526.6666666666667"/>
      </animateMotion>
    </circle>
    
    <!-- Hidden path for motion animation -->
    <path id="path_totalContributions_526.6666666666667" d="M 30,160 L 30.030010618422835,160 L 30.063300008888284,160 L 31.551468346918544,160 L 31.57332682720264,160 L 31.604358702491204,160 L 33.09512497465359,160 L 33.12002930874776,160 L 33.15215410805053,160 L 34.64603790117147,160 L 34.67542143204517,160 L 34.70106035441119,160 L 36.19288371701354,160 L 36.22570727101392,160 L 36.24862284173798,160 L 37.74290080417552,160 L 37.77178266500991,160 L 37.80503622190112,160 L 39.29141288121957,160 L 39.31959598735636,160 L 39.353619966093646,160 L 40.83850953208129,160 L 40.864166371234425,160 L 40.89618366981449,160 L 42.387917448481254,160 L 42.415903469959744,160 L 42.44835077143064,160 L 43.93203991268137,160 L 43.969647248842286,160 L 43.99141614519079,160 L 45.480283237918655,160 L 45.50957718485677,160 L 45.53872779749793,160 L 47.024154867099114,160 L 47.05647675106019,160 L 47.0834952660343,160 L 48.16359086066247,160 L 48.578776568550445,160 L 48.61090136785322,160 L 48.64474617871933,160 L 50.12660780768401,160 L 50.15470132988521,160 L 50.18759655103406,160 L 51.67271903525424,160 L 51.69438043088003,160 L 51.730715675155565,160 L 53.22280778956468,160 L 53.24986213811303,160 L 53.28132401629244,160 L 54.77090778050503,160 L 54.80339091555016,160 L 54.83685947388679,160 L 56.31703692486237,160 L 56.34470044417273,160 L 56.381125272383855,160 L 57.86936527756258,160 L 57.89296168619714,160 L 57.92202271490271,160 L 59.416067759107705,160 L 59.44957215101857,160 L 59.48094444526239,160 L 60.96318232675655,160 L 60.99333627947633,160 L 61.02719900712956,160 L 62.50900688573289,160 L 62.538408333393704,160 L 62.57155438956221,160 L 64.0602423144189,160 L 64.08772666585807,160 L 64.1158381048464,160 L 65.60649687628606,160 L 65.63428581310626,160 L 65.6676827042944,160 L 67.14560264009312,160 L 67.18240372083372,160 L 67.21327434503822,160 L 68.70169351808812,160 L 68.7234265808624,160 L 68.76250309356699,160 L 70.25154935416603,160 L 70.28421165708235,160 L 70.31862980513625,160 L 71.80176352598632,160 L 71.83164872689932,160 L 71.86330768973701,160 L 73.34060053798659,160 L 73.37306575624461,160 L 73.40544139056703,160 L 74.89339472715187,160 L 74.9237815981042,160 L 74.95850433153907,160 L 76.44188888740881,160 L 76.46985699210018,160 L 76.50072761630469,160 L 77.99102805200201,160 L 78.01095151927734,160 L 78.05986434810978,160 L 79.53640469130038,160 L 79.56655864402016,160 L 79.59630051063623,160 L 81.08728178424403,160 L 81.12152076442673,160 L 81.15267805722513,160 L 82.63453968618981,160 L 82.6646936389096,160 L 82.69945220591873,160 L 84.18043591231462,160 L 84.21007027820798,160 L 84.23707087639497,160 L 85.73079341843184,160 L 85.7614132076167,160 L 85.79294675294457,160 L 87.2834621900873,160 L 87.31227238377322,160 L 87.34068840814254,160 L 88.82566755806577,160 L 88.85646651512181,40 L 88.88855548085036,40 L 90.37946508730968,40 L 90.4008398143416,40 L 90.43031292915087,40 L 91.92360546829691,40 L 91.94750646231248,40 L 91.98991549742104,40 L 93.47346130437484,40 L 93.50494109934135,40 L 93.5325867018646,40 L 95.01520083588822,40 L 95.04969065109059,40 L 95.08346379480824,40 L 96.5727429736398,40 L 96.58800807626444,40 L 96.62937793772016,40 L 98.11765377647313,40 L 98.15028024581521,40 L 98.18713507691716,40 L 99.66578960098771,40 L 99.69653480768238,40 L 99.7359338225551,40 L 101.21141707530575,40 L 101.2441152117963,40 L 101.28226005157074,40 L 102.76800962334006,40 L 102.80443445155119,40 L 104.3100716570216,40 L 104.38666592195152,40 L 105.85833289904599,40 L 105.89640607167198,40 L 105.93254423128921,40 L 107.40596705352127,40 L 107.44608273987872,40 L 107.47369250882772,40 L 108.95725623256864,40 L 108.99083229162797,40 L 109.02852921172448,40 L 110.49981993628947,40 L 110.53337807856168,40 L 110.57112874901955,40 L 112.05019535919381,40 L 112.08318016427825,40 L 112.11856581883652,40 L 113.60367038626957,40 L 113.64701109430828,40 L 115.18591977345704,40 L 115.2269492159575,40 L 116.70318497376711,40 L 116.73701186784609,40 L 118.25524457466054,40 L 118.28405476834648,40 L 118.33149842063521,40 L 119.7913940685931,40 L 119.82436095689043,40 L 119.85965702751311,40 L 121.34126782145813,40 L 121.38025475022714,40 L 121.4193850132931,40 L 122.88653696003381,40 L 122.91814217251016,40 L 122.95655576409138,40 L 124.43329319194028,40 L 124.4692163501121,40 L 124.51617624914867,40 L 125.9765198167845,40 L 126.01740592498803,40 L 126.05698410773192,40 L 127.53167902184938,40 L 127.56457424299822,40 L 127.60212782879778,40 L 129.07965359527986,40 L 129.11294298574535,40 L 129.1513207437523,40 L 130.6256573221274,40 L 130.6642500815798,40 L 130.70583494448096,40 L 132.17522648961142,40 L 132.205953779519,40 L 132.2429877784921,40 L 133.72459857243715,40 L 133.7521725078119,40 L 133.7898335943342,40 L 135.26873895342436,40 L 135.3040887744084,40 L 135.34312945353878,40 L 136.8178064508691,40 L 136.85532420309443,40 L 136.89522488800645,40 L 138.36997355248525,40 L 138.3971174849692,40 L 138.43594316265413,40 L 139.9166939508175,40 L 139.95326211332554,40 L 139.9858706658805,40 L 141.46002807638442,40 L 141.49349663472105,40 L 141.5320356438121,40 L 143.00535096532144,40 L 143.0459504049311,40 L 143.08309190462694,40 L 144.55680139545285,40 L 144.58743910142482,40 L 144.6218393326916,40 L 146.11095726043914,40 L 146.14834959515463,40 L 146.19043612809506,40 L 147.65773140913274,40 L 147.69112830032088,40 L 147.72452519150903,40 L 149.20224804264944,40 L 149.23933579198393,40 L 149.27581437055642,40 L 150.7436471552076,40 L 150.7839240926491,40 L 150.82226601708186,40 L 152.2904213039012,40 L 152.3306803245556,40 L 152.37486312158887,40 L 153.8529084748974,40 L 153.88492577347745,40 L 153.92633146850739,40 L 155.39704885588463,40 L 155.42471237519499,40 L 155.45977552758512,40 L 156.94066965004544,40 L 156.97727364612774,40 L 157.01439722903643,40 L 158.48945047889626,40 L 158.52141402711496,40 L 158.56274805499643,40 L 160.03712046694574,40 L 160.06928109982277,40 L 160.1073721892359,40 L 161.5856146272027,40 L 161.61713025574346,40 L 161.65126173520346,40 L 163.13192293943123,72.04030226700252 L 163.1617543899829,72.04030226700252 L 164.67869708812484,72.04030226700252 L 164.71512191633593,72.04030226700252 L 164.7495221476027,72.04030226700252 L 166.22828417239595,72.04030226700252 L 166.2533676743613,72.04030226700252 L 166.29606337806376,72.04030226700252 L 167.7846975525591,72.04030226700252 L 167.82253780695254,72.04030226700252 L 169.3251470754,72.04030226700252 L 169.36456400705984,72.04030226700252 L 169.41602101966308,72.04030226700252 L 170.875468747943,72.04030226700252 L 170.91404359060826,72.04030226700252 L 170.93778333353976,72.04030226700252 L 172.42550375189208,72.04030226700252 L 172.46137315970253,72.04030226700252 L 172.49919549730888,72.04030226700252 L 173.97444583182696,72.04030226700252 L 174.00863106164834,72.04030226700252 L 174.0473850721848,72.04030226700252 L 175.52078997762973,72.04030226700252 L 175.5515172675373,72.04030226700252 L 175.59014586056395,72.04030226700252 L 177.06865705033752,72.04030226700252 L 177.1011581021698,72.04030226700252 L 177.13308581681426,72.04030226700252 L 178.61612995372874,72.04030226700252 L 178.65325353663746,72.04030226700252 L 178.69431881271217,72.04030226700252 L 180.1672220481178,72.04030226700252 L 180.20364687632892,72.04030226700252 L 180.24817009231742,72.04030226700252 L 181.70582614188552,72.04030226700252 L 181.74316472623968,72.04030226700252 L 181.78609334817466,72.04030226700252 L 183.2609674301633,72.04030226700252 L 183.29660391974122,72.04030226700252 L 183.33333333333334,72.04030226700252" fill="none" stroke="none"/>
  </g>
  
  <!-- Footer -->
  <text x="400" y="580" text-anchor="middle" fill="#94a3b8" font-size="12" font-family="Arial, sans-serif">
    Generated by GitHub User Rank Tracker • 3/25/2026
    <animate attributeName="opacity" values="0;1" dur="0.5s" begin="5s" fill="freeze"/>
  </text>
</svg>