<svg width="800" height="600" xmlns="http://www.w3.org/2000/svg">
  <defs>
    <linearGradient id="bgGradient" x1="0%" y1="0%" x2="100%" y2="100%">
      <stop offset="0%" style="stop-color:#1e293b;stop-opacity:1" />
      <stop offset="100%" style="stop-color:#0f172a;stop-opacity:1" />
    </linearGradient>
    <filter id="shadow" x="-20%" y="-20%" width="140%" height="140%">
      <feDropShadow dx="2" dy="2" stdDeviation="3" flood-color="#000" flood-opacity="0.3"/>
    </filter>
    <!-- Trail effect filter -->
    <filter id="trailGlow" x="-50%" y="-50%" width="200%" height="200%">
      <feGaussianBlur stdDeviation="3" result="coloredBlur"/>
      <feMerge> 
        <feMergeNode in="coloredBlur"/>
        <feMergeNode in="SourceGraphic"/>
      </feMerge>
    </filter>
  </defs>
  
  <!-- Background -->
  <rect width="800" height="600" fill="url(#bgGradient)" rx="12"/>
  
  <!-- Header -->
  <text x="400" y="40" text-anchor="middle" fill="#f8fafc" font-size="24" font-weight="bold" font-family="Arial, sans-serif">
    GitHub Progress Report
    <animate attributeName="opacity" values="0;1" dur="0.8s" begin="0s" fill="freeze"/>
    <animateTransform attributeName="transform" type="translate" values="0,-20;0,0" dur="0.8s" begin="0s" fill="freeze"/>
  </text>
  
  <!-- User Info -->
  <text x="400" y="70" text-anchor="middle" fill="#cbd5e1" font-size="16" font-family="Arial, sans-serif">
    @maifeeulasad • BANGLADESH • 100 days analyzed
    <animate attributeName="opacity" values="0;1" dur="0.6s" begin="0.3s" fill="freeze"/>
  </text>
  
  <!-- Progress Cards -->
  <!-- Followers Card -->
  <g transform="translate(60, 100)">
    <rect width="206.66666666666666" height="120" fill="#1e293b" stroke="#334155" stroke-width="1" rx="8" filter="url(#shadow)">
      <animate attributeName="opacity" values="0;1" dur="0.6s" begin="0.2s" fill="freeze"/>
      <animateTransform attributeName="transform" type="scale" values="0.8;1" dur="0.6s" begin="0.2s" fill="freeze"/>
    </rect>
    <text x="103.33333333333333" y="25" text-anchor="middle" fill="#94a3b8" font-size="14" font-weight="bold" font-family="Arial, sans-serif">FOLLOWERS
      <animate attributeName="opacity" values="0;1" dur="0.5s" begin="0.4s" fill="freeze"/>
    </text>
    
    <text x="103.33333333333333" y="50" text-anchor="middle" fill="#22c55e" font-size="32" font-weight="bold" font-family="Arial, sans-serif">
      ↗
      <animate attributeName="opacity" values="0;1" dur="0.5s" begin="0.6s" fill="freeze"/>
      <animateTransform attributeName="transform" type="scale" values="0;1.2;1" dur="0.8s" begin="0.6s" fill="freeze"/>
    </text>
    
    <text x="103.33333333333333" y="75" text-anchor="middle" fill="#f8fafc" font-size="18" font-weight="bold" font-family="Arial, sans-serif">
      +1
      <animate attributeName="opacity" values="0;1" dur="0.5s" begin="0.8s" fill="freeze"/>
    </text>
    
    <text x="103.33333333333333" y="95" text-anchor="middle" fill="#94a3b8" font-size="12" font-family="Arial, sans-serif">
      #467 → #466
      <animate attributeName="opacity" values="0;1" dur="0.5s" begin="1s" fill="freeze"/>
    </text>
  </g>
  
  <!-- Public Contributions Card -->
  <g transform="translate(296.66666666666663, 100)">
    <rect width="206.66666666666666" height="120" fill="#1e293b" stroke="#334155" stroke-width="1" rx="8" filter="url(#shadow)">
      <animate attributeName="opacity" values="0;1" dur="0.6s" begin="0.4s" fill="freeze"/>
      <animateTransform attributeName="transform" type="scale" values="0.8;1" dur="0.6s" begin="0.4s" fill="freeze"/>
    </rect>
    <text x="103.33333333333333" y="25" text-anchor="middle" fill="#94a3b8" font-size="14" font-weight="bold" font-family="Arial, sans-serif">PUBLIC
      <animate attributeName="opacity" values="0;1" dur="0.5s" begin="0.6s" fill="freeze"/>
    </text>
    
    <text x="103.33333333333333" y="50" text-anchor="middle" fill="#6b7280" font-size="32" font-weight="bold" font-family="Arial, sans-serif">
      →
      <animate attributeName="opacity" values="0;1" dur="0.5s" begin="0.8s" fill="freeze"/>
      <animateTransform attributeName="transform" type="scale" values="0;1.2;1" dur="0.8s" begin="0.8s" fill="freeze"/>
    </text>
    
    <text x="103.33333333333333" y="75" text-anchor="middle" fill="#f8fafc" font-size="18" font-weight="bold" font-family="Arial, sans-serif">
      0
      <animate attributeName="opacity" values="0;1" dur="0.5s" begin="1s" fill="freeze"/>
    </text>
    
    <text x="103.33333333333333" y="95" text-anchor="middle" fill="#94a3b8" font-size="12" font-family="Arial, sans-serif">
      #7 → #7
      <animate attributeName="opacity" values="0;1" dur="0.5s" begin="1.2s" fill="freeze"/>
    </text>
  </g>
  
  <!-- Total Contributions Card -->
  <g transform="translate(533.3333333333333, 100)">
    <rect width="206.66666666666666" height="120" fill="#1e293b" stroke="#334155" stroke-width="1" rx="8" filter="url(#shadow)">
      <animate attributeName="opacity" values="0;1" dur="0.6s" begin="0.6s" fill="freeze"/>
      <animateTransform attributeName="transform" type="scale" values="0.8;1" dur="0.6s" begin="0.6s" fill="freeze"/>
    </rect>
    <text x="103.33333333333333" y="25" text-anchor="middle" fill="#94a3b8" font-size="14" font-weight="bold" font-family="Arial, sans-serif">TOTAL
      <animate attributeName="opacity" values="0;1" dur="0.5s" begin="0.8s" fill="freeze"/>
    </text>
    
    <text x="103.33333333333333" y="50" text-anchor="middle" fill="#22c55e" font-size="32" font-weight="bold" font-family="Arial, sans-serif">
      ↗
      <animate attributeName="opacity" values="0;1" dur="0.5s" begin="1s" fill="freeze"/>
      <animateTransform attributeName="transform" type="scale" values="0;1.2;1" dur="0.8s" begin="1s" fill="freeze"/>
    </text>
    
    <text x="103.33333333333333" y="75" text-anchor="middle" fill="#f8fafc" font-size="18" font-weight="bold" font-family="Arial, sans-serif">
      +9
      <animate attributeName="opacity" values="0;1" dur="0.5s" begin="1.2s" fill="freeze"/>
    </text>
    
    <text x="103.33333333333333" y="95" text-anchor="middle" fill="#94a3b8" font-size="12" font-family="Arial, sans-serif">
      #24 → #15
      <animate attributeName="opacity" values="0;1" dur="0.5s" begin="1.4s" fill="freeze"/>
    </text>
  </g>
  
  <!-- Timeline Charts (if we have snapshots) -->
  
  <!-- 👥 Followers Count Chart -->
  <g transform="translate(60, 250)">
    <!-- Chart Background -->
    <rect x="0" y="0" width="213.33333333333334" height="200" fill="#0f172a" stroke="#334155" stroke-width="1" rx="8" filter="url(#shadow)">
      <animate attributeName="opacity" values="0;1" dur="0.5s" begin="1.8s" fill="freeze"/>
    </rect>
    
    <!-- Chart Title -->
    <text x="106.66666666666667" y="25" text-anchor="middle" fill="#f8fafc" font-size="14" font-weight="bold" font-family="Arial, sans-serif">
      👥 Followers Count
      <animate attributeName="opacity" values="0;1" dur="0.5s" begin="2s" fill="freeze"/>
    </text>
    
    <!-- Y-axis labels -->
    <text x="10" y="45" fill="#94a3b8" font-size="10" font-family="Arial, sans-serif">150
      <animate attributeName="opacity" values="0;1" dur="0.5s" begin="2.2s" fill="freeze"/>
    </text>
    <text x="10" y="185" fill="#94a3b8" font-size="10" font-family="Arial, sans-serif">143
      <animate attributeName="opacity" values="0;1" dur="0.5s" begin="2.2s" fill="freeze"/>
    </text>
    
    <!-- Chart Line with draw animation that follows the circle -->
    <path d="M 30,160 L 30.024495659832798,160 L 30.0567145306297,160 L 31.54191846180875,160 L 31.57406565547374,160 L 31.602790266089666,160 L 33.097025515890316,160 L 33.12230962417421,160 L 33.150066593509244,160 L 34.64304749350134,160 L 34.667847781144786,160 L 34.69291685803292,160 L 34.73264390839818,160 L 36.19686435920839,160 L 36.22302651235827,160 L 36.25022798392095,160 L 37.744033170930095,160 L 37.77012364694805,160 L 37.79863322616823,160 L 39.291470771896485,160 L 39.31548261108884,160 L 39.342881194764296,160 L 40.83514532343722,160 L 40.863995369034,160 L 42.39424837762318,160 L 42.411773436377004,160 L 42.43958416356098,160 L 43.93476913535954,160 L 43.95944398802213,160 L 43.98994260765301,160 L 45.48261887983446,160 L 45.50670239615873,160 L 45.53377843274056,160 L 47.03355074098183,160 L 47.059390347038075,160 L 47.0917704913818,160 L 48.58338952586746,160 L 48.6112360916174,160 L 48.637935823256655,160 L 50.13419595203398,160 L 50.15132678656225,160 L 50.18033810570585,160 L 51.677046216557656,160 L 51.69944532028187,160 L 51.72514157207428,160 L 53.22494971888151,160 L 53.245825683552475,160 L 53.277489056577025,160 L 54.772494835545785,160 L 54.79539567919342,160 L 54.825249204637046,160 L 56.31776420327167,160 L 56.33982284061928,160 L 56.37231050066087,160 L 57.86502261140828,160 L 57.897402755752,160 L 57.93046383284893,160 L 59.418499010738714,160 L 59.44227789925234,160 L 59.472185182544905,160 L 60.96633083593066,160 L 60.98976925806767,160 L 61.01967654136024,160 L 62.5152915759503,160 L 62.54607690410886,160 L 62.58245304855697,160 L 64.0639297688763,160 L 64.08629303403455,160 L 64.11489220966963,160 L 65.61380439232789,160 L 65.63278091300305,160 L 65.66272403486158,160 L 67.15694136537925,160 L 67.17926879197154,160 L 67.20777837119172,160 L 67.2467886502378,160 L 68.709270930599,160 L 68.7390706981937,160 L 68.76865543439264,160 L 70.2536801727419,160 L 70.28097124071948,160 L 70.30948081993964,160 L 71.8045761953233,160 L 71.81991510155365,160 L 71.8559149410592,160 L 73.3511536707067,160 L 73.37659905253739,160 L 73.39751085577431,160 L 74.90054447351784,160 L 74.92459215127614,160 L 74.95385434038147,160 L 76.44961272923535,160 L 76.47530898102777,160 L 76.50347809387134,160 L 77.99645899386343,160 L 78.01686905717693,160 L 78.04838907593765,160 L 79.5474804514257,160 L 79.56952116949032,160 L 79.60043193262973,160 L 81.09461342458144,160 L 81.12029175709088,160 L 81.15122043951327,160 L 82.64194350984997,160 L 82.66672587821043,160 L 82.68527233609407,160 L 84.18714120044393,160 L 84.22219131795157,160 L 84.24586269076732,160 L 85.73871815577857,160 L 85.76278375281984,160 L 87.31281964981827,160 L 87.33923267292985,160 L 88.83162223658363,160 L 88.85484562732488,160 L 88.88249508096206,160 L 90.38330670761613,160 L 90.41219259177888,160 L 90.43975244900113,160 L 91.93155067631659,160 L 91.96124292821341,160 L 91.99021840879105,160 L 93.482446698898,160 L 93.51014991038411,160 L 93.53398255674668,160 L 95.02630044326852,160 L 95.0546308296589,57.14285714285715 L 95.08371382593442,57.14285714285715 L 96.60289271764236,57.14285714285715 L 96.62880400083051,57.14285714285715 L 98.11825480207568,57.14285714285715 L 98.14610136782562,57.14285714285715 L 98.16475534140714,57.14285714285715 L 99.67033349733373,57.14285714285715 L 99.69805462810281,57.14285714285715 L 99.72636709521022,57.14285714285715 L 101.2156207843426,57.14285714285715 L 101.2444529106564,57.14285714285715 L 101.2798972523896,57.14285714285715 L 102.77020817921776,57.14285714285715 L 102.80045592888693,57.14285714285715 L 102.82197698774516,57.14285714285715 L 104.31739491022245,57.14285714285715 L 104.34160386152757,57.14285714285715 L 104.37124235557545,57.14285714285715 L 105.868165497823,57.14285714285715 L 105.92303434230584,57.14285714285715 L 107.41210883860843,57.14285714285715 L 107.44178317122226,57.14285714285715 L 107.46912799704879,57.14285714285715 L 108.96201930062598,57.14285714285715 L 108.99009881705464,57.14285714285715 L 109.01941476400889,57.14285714285715 L 110.51087252494773,57.14285714285715 L 110.53950753914877,57.14285714285715 L 110.57172640994567,57.14285714285715 L 112.05838180304605,57.14285714285715 L 112.08852203701734,57.14285714285715 L 112.1194865580057,57.14285714285715 L 113.60927782562746,57.14285714285715 L 113.63884464254342,57.14285714285715 L 113.66703167466997,57.14285714285715 L 115.1596362697195,57.14285714285715 L 115.18090645861601,57.14285714285715 L 115.21034784055111,57.14285714285715 L 116.70241485711125,57.14285714285715 L 116.72977760222075,57.14285714285715 L 116.76149473309424,57.14285714285715 L 118.25133975856492,57.14285714285715 L 118.27854123012762,57.14285714285715 L 118.30848435198615,57.14285714285715 L 119.79970916224626,57.14285714285715 L 119.8254770911706,57.14285714285715 L 119.857247979893,57.14285714285715 L 121.34915372290634,57.14285714285715 L 121.37492165183068,57.14285714285715 L 121.39880805604217,57.14285714285715 L 122.90268388008572,57.14285714285715 L 122.92463500173545,57.14285714285715 L 122.95658508328766,57.14285714285715 L 124.44619715807964,57.14285714285715 L 124.47146334708054,57.14285714285715 L 124.49988332988583,57.14285714285715 L 125.99368851689496,57.14285714285715 L 126.01594426635535,57.14285714285715 L 126.0495966797906,57.14285714285715 L 127.5403197501273,57.14285714285715 L 127.5664460647112,57.14285714285715 L 127.5985036619613,57.14285714285715 L 129.08682554837876,57.14285714285715 L 129.1111957732307,57.14285714285715 L 129.14586958579577,57.14285714285715 L 130.63094808199395,57.14285714285715 L 130.66243226218873,57.14285714285715 L 130.6947586486835,57.14285714285715 L 132.18462159343719,57.14285714285715 L 132.20976234745723,57.14285714285715 L 132.23925748724128,57.14285714285715 L 133.73492627968028,57.14285714285715 L 133.76207399339404,57.14285714285715 L 133.79506339335904,57.14285714285715 L 135.28053611378277,57.14285714285715 L 135.31225324465626,57.14285714285715 L 135.34730336216393,57.14285714285715 L 136.83182636058973,57.14285714285715 L 136.85594571547998,57.14285714285715 L 136.88750157280663,57.14285714285715 L 138.381109647703,57.14285714285715 L 138.40352667071022,57.14285714285715 L 138.43515420516877,57.14285714285715 L 139.9259310333544,57.14285714285715 L 139.95065964386595,57.14285714285715 L 139.98162416485428,57.14285714285715 L 141.47473049982722,57.14285714285715 L 141.50281001625592,57.14285714285715 L 143.02542941029589,57.14285714285715 L 143.05123317778617,57.14285714285715 L 143.075692999053,57.14285714285715 L 144.57435431174957,57.14285714285715 L 144.60408240221233,57.14285714285715 L 144.63787816991143,57.14285714285715 L 146.1127426748114,57.14285714285715 L 146.14899338427864,57.14285714285715 L 146.17990414741806,57.14285714285715 L 147.66731215040357,57.14285714285715 L 147.68671873387024,57.14285714285715 L 147.72350702182686,57.14285714285715 L 149.21603993974446,57.14285714285715 L 149.24356395840078,57.14285714285715 L 149.27408049731463,57.14285714285715 L 150.7665596573833,57.14285714285715 L 150.7925605369864,57.14285714285715 L 150.8200845556427,57.14285714285715 L 152.31068219099853,57.14285714285715 L 152.34035652361237,57.14285714285715 L 152.36977998626446,57.14285714285715 L 153.85799435698408,57.14285714285715 L 153.88519582854673,57.14285714285715 L 153.91587364100744,57.14285714285715 L 155.41129156348472,57.14285714285715 L 155.4418797795305,57.14285714285715 L 155.47486917949553,57.14285714285715 L 156.96206215108526,57.14285714285715 L 156.98519594541165,57.14285714285715 L 157.03631965975177,57.14285714285715 L 158.51100497182193,57.14285714285715 L 158.53453299037386,57.14285714285715 L 158.5640998072898,57.14285714285715 L 160.05405234845838,57.14285714285715 L 160.08168388281257,57.14285714285715 L 160.11089231406896,57.14285714285715 L 161.60157954583968,57.14285714285715 L 161.62818968106404,57.14285714285715 L 161.6589033320907,57.14285714285715 L 163.15084491366997,57.14285714285715 L 163.17881691440076,57.14285714285715 L 163.2044056504953,57.14285714285715 L 164.69692064912994,57.14285714285715 L 164.72458802205006,57.14285714285715 L 164.75365309904262,57.14285714285715 L 166.25204562249448,57.14285714285715 L 166.2812002959019,57.14285714285715 L 166.3116809962498,57.14285714285715 L 167.7944120663777,57.14285714285715 L 167.82372801333196,40 L 167.85413703654794,40 L 169.34890986483796,40 L 169.36973207166,40 L 169.3980624580504,40 L 170.89134798585314,40 L 170.91127422852617,40 L 170.94935270485735,40 L 172.44177810707706,40 L 172.47057439482492,40 L 172.4949267003939,40 L 173.98394743884754,40 L 174.01657845315296,40 L 174.0483314225924,40 L 175.5393232821738,40 L 175.55432172202754,40 L 175.5927227454523,40 L 177.08720886521468,40 L 177.11718782563915,40 L 177.1521662660149,40 L 178.63536323750023,40 L 178.66183001846076,40 L 178.6976685844195,40 L 180.18074012092399,40 L 180.21075491991445,40 L 180.24404894769012,40 L 181.73242459195652,40 L 181.75428611719136,40 L 181.7853223153116,40 L 183.27629625561002,40 L 183.30120405895133,40 L 183.33333333333334,40" stroke="#22c55e" stroke-width="2" fill="none" stroke-dasharray="14800" stroke-dashoffset="14800">
      <animate attributeName="stroke-dashoffset" values="14800;0" dur="3s" begin="2.6s" fill="freeze"/>
    </path>
    
    <!-- Glow effect for the line that also follows the circle -->
    <path d="M 30,160 L 30.024495659832798,160 L 30.0567145306297,160 L 31.54191846180875,160 L 31.57406565547374,160 L 31.602790266089666,160 L 33.097025515890316,160 L 33.12230962417421,160 L 33.150066593509244,160 L 34.64304749350134,160 L 34.667847781144786,160 L 34.69291685803292,160 L 34.73264390839818,160 L 36.19686435920839,160 L 36.22302651235827,160 L 36.25022798392095,160 L 37.744033170930095,160 L 37.77012364694805,160 L 37.79863322616823,160 L 39.291470771896485,160 L 39.31548261108884,160 L 39.342881194764296,160 L 40.83514532343722,160 L 40.863995369034,160 L 42.39424837762318,160 L 42.411773436377004,160 L 42.43958416356098,160 L 43.93476913535954,160 L 43.95944398802213,160 L 43.98994260765301,160 L 45.48261887983446,160 L 45.50670239615873,160 L 45.53377843274056,160 L 47.03355074098183,160 L 47.059390347038075,160 L 47.0917704913818,160 L 48.58338952586746,160 L 48.6112360916174,160 L 48.637935823256655,160 L 50.13419595203398,160 L 50.15132678656225,160 L 50.18033810570585,160 L 51.677046216557656,160 L 51.69944532028187,160 L 51.72514157207428,160 L 53.22494971888151,160 L 53.245825683552475,160 L 53.277489056577025,160 L 54.772494835545785,160 L 54.79539567919342,160 L 54.825249204637046,160 L 56.31776420327167,160 L 56.33982284061928,160 L 56.37231050066087,160 L 57.86502261140828,160 L 57.897402755752,160 L 57.93046383284893,160 L 59.418499010738714,160 L 59.44227789925234,160 L 59.472185182544905,160 L 60.96633083593066,160 L 60.98976925806767,160 L 61.01967654136024,160 L 62.5152915759503,160 L 62.54607690410886,160 L 62.58245304855697,160 L 64.0639297688763,160 L 64.08629303403455,160 L 64.11489220966963,160 L 65.61380439232789,160 L 65.63278091300305,160 L 65.66272403486158,160 L 67.15694136537925,160 L 67.17926879197154,160 L 67.20777837119172,160 L 67.2467886502378,160 L 68.709270930599,160 L 68.7390706981937,160 L 68.76865543439264,160 L 70.2536801727419,160 L 70.28097124071948,160 L 70.30948081993964,160 L 71.8045761953233,160 L 71.81991510155365,160 L 71.8559149410592,160 L 73.3511536707067,160 L 73.37659905253739,160 L 73.39751085577431,160 L 74.90054447351784,160 L 74.92459215127614,160 L 74.95385434038147,160 L 76.44961272923535,160 L 76.47530898102777,160 L 76.50347809387134,160 L 77.99645899386343,160 L 78.01686905717693,160 L 78.04838907593765,160 L 79.5474804514257,160 L 79.56952116949032,160 L 79.60043193262973,160 L 81.09461342458144,160 L 81.12029175709088,160 L 81.15122043951327,160 L 82.64194350984997,160 L 82.66672587821043,160 L 82.68527233609407,160 L 84.18714120044393,160 L 84.22219131795157,160 L 84.24586269076732,160 L 85.73871815577857,160 L 85.76278375281984,160 L 87.31281964981827,160 L 87.33923267292985,160 L 88.83162223658363,160 L 88.85484562732488,160 L 88.88249508096206,160 L 90.38330670761613,160 L 90.41219259177888,160 L 90.43975244900113,160 L 91.93155067631659,160 L 91.96124292821341,160 L 91.99021840879105,160 L 93.482446698898,160 L 93.51014991038411,160 L 93.53398255674668,160 L 95.02630044326852,160 L 95.0546308296589,57.14285714285715 L 95.08371382593442,57.14285714285715 L 96.60289271764236,57.14285714285715 L 96.62880400083051,57.14285714285715 L 98.11825480207568,57.14285714285715 L 98.14610136782562,57.14285714285715 L 98.16475534140714,57.14285714285715 L 99.67033349733373,57.14285714285715 L 99.69805462810281,57.14285714285715 L 99.72636709521022,57.14285714285715 L 101.2156207843426,57.14285714285715 L 101.2444529106564,57.14285714285715 L 101.2798972523896,57.14285714285715 L 102.77020817921776,57.14285714285715 L 102.80045592888693,57.14285714285715 L 102.82197698774516,57.14285714285715 L 104.31739491022245,57.14285714285715 L 104.34160386152757,57.14285714285715 L 104.37124235557545,57.14285714285715 L 105.868165497823,57.14285714285715 L 105.92303434230584,57.14285714285715 L 107.41210883860843,57.14285714285715 L 107.44178317122226,57.14285714285715 L 107.46912799704879,57.14285714285715 L 108.96201930062598,57.14285714285715 L 108.99009881705464,57.14285714285715 L 109.01941476400889,57.14285714285715 L 110.51087252494773,57.14285714285715 L 110.53950753914877,57.14285714285715 L 110.57172640994567,57.14285714285715 L 112.05838180304605,57.14285714285715 L 112.08852203701734,57.14285714285715 L 112.1194865580057,57.14285714285715 L 113.60927782562746,57.14285714285715 L 113.63884464254342,57.14285714285715 L 113.66703167466997,57.14285714285715 L 115.1596362697195,57.14285714285715 L 115.18090645861601,57.14285714285715 L 115.21034784055111,57.14285714285715 L 116.70241485711125,57.14285714285715 L 116.72977760222075,57.14285714285715 L 116.76149473309424,57.14285714285715 L 118.25133975856492,57.14285714285715 L 118.27854123012762,57.14285714285715 L 118.30848435198615,57.14285714285715 L 119.79970916224626,57.14285714285715 L 119.8254770911706,57.14285714285715 L 119.857247979893,57.14285714285715 L 121.34915372290634,57.14285714285715 L 121.37492165183068,57.14285714285715 L 121.39880805604217,57.14285714285715 L 122.90268388008572,57.14285714285715 L 122.92463500173545,57.14285714285715 L 122.95658508328766,57.14285714285715 L 124.44619715807964,57.14285714285715 L 124.47146334708054,57.14285714285715 L 124.49988332988583,57.14285714285715 L 125.99368851689496,57.14285714285715 L 126.01594426635535,57.14285714285715 L 126.0495966797906,57.14285714285715 L 127.5403197501273,57.14285714285715 L 127.5664460647112,57.14285714285715 L 127.5985036619613,57.14285714285715 L 129.08682554837876,57.14285714285715 L 129.1111957732307,57.14285714285715 L 129.14586958579577,57.14285714285715 L 130.63094808199395,57.14285714285715 L 130.66243226218873,57.14285714285715 L 130.6947586486835,57.14285714285715 L 132.18462159343719,57.14285714285715 L 132.20976234745723,57.14285714285715 L 132.23925748724128,57.14285714285715 L 133.73492627968028,57.14285714285715 L 133.76207399339404,57.14285714285715 L 133.79506339335904,57.14285714285715 L 135.28053611378277,57.14285714285715 L 135.31225324465626,57.14285714285715 L 135.34730336216393,57.14285714285715 L 136.83182636058973,57.14285714285715 L 136.85594571547998,57.14285714285715 L 136.88750157280663,57.14285714285715 L 138.381109647703,57.14285714285715 L 138.40352667071022,57.14285714285715 L 138.43515420516877,57.14285714285715 L 139.9259310333544,57.14285714285715 L 139.95065964386595,57.14285714285715 L 139.98162416485428,57.14285714285715 L 141.47473049982722,57.14285714285715 L 141.50281001625592,57.14285714285715 L 143.02542941029589,57.14285714285715 L 143.05123317778617,57.14285714285715 L 143.075692999053,57.14285714285715 L 144.57435431174957,57.14285714285715 L 144.60408240221233,57.14285714285715 L 144.63787816991143,57.14285714285715 L 146.1127426748114,57.14285714285715 L 146.14899338427864,57.14285714285715 L 146.17990414741806,57.14285714285715 L 147.66731215040357,57.14285714285715 L 147.68671873387024,57.14285714285715 L 147.72350702182686,57.14285714285715 L 149.21603993974446,57.14285714285715 L 149.24356395840078,57.14285714285715 L 149.27408049731463,57.14285714285715 L 150.7665596573833,57.14285714285715 L 150.7925605369864,57.14285714285715 L 150.8200845556427,57.14285714285715 L 152.31068219099853,57.14285714285715 L 152.34035652361237,57.14285714285715 L 152.36977998626446,57.14285714285715 L 153.85799435698408,57.14285714285715 L 153.88519582854673,57.14285714285715 L 153.91587364100744,57.14285714285715 L 155.41129156348472,57.14285714285715 L 155.4418797795305,57.14285714285715 L 155.47486917949553,57.14285714285715 L 156.96206215108526,57.14285714285715 L 156.98519594541165,57.14285714285715 L 157.03631965975177,57.14285714285715 L 158.51100497182193,57.14285714285715 L 158.53453299037386,57.14285714285715 L 158.5640998072898,57.14285714285715 L 160.05405234845838,57.14285714285715 L 160.08168388281257,57.14285714285715 L 160.11089231406896,57.14285714285715 L 161.60157954583968,57.14285714285715 L 161.62818968106404,57.14285714285715 L 161.6589033320907,57.14285714285715 L 163.15084491366997,57.14285714285715 L 163.17881691440076,57.14285714285715 L 163.2044056504953,57.14285714285715 L 164.69692064912994,57.14285714285715 L 164.72458802205006,57.14285714285715 L 164.75365309904262,57.14285714285715 L 166.25204562249448,57.14285714285715 L 166.2812002959019,57.14285714285715 L 166.3116809962498,57.14285714285715 L 167.7944120663777,57.14285714285715 L 167.82372801333196,40 L 167.85413703654794,40 L 169.34890986483796,40 L 169.36973207166,40 L 169.3980624580504,40 L 170.89134798585314,40 L 170.91127422852617,40 L 170.94935270485735,40 L 172.44177810707706,40 L 172.47057439482492,40 L 172.4949267003939,40 L 173.98394743884754,40 L 174.01657845315296,40 L 174.0483314225924,40 L 175.5393232821738,40 L 175.55432172202754,40 L 175.5927227454523,40 L 177.08720886521468,40 L 177.11718782563915,40 L 177.1521662660149,40 L 178.63536323750023,40 L 178.66183001846076,40 L 178.6976685844195,40 L 180.18074012092399,40 L 180.21075491991445,40 L 180.24404894769012,40 L 181.73242459195652,40 L 181.75428611719136,40 L 181.7853223153116,40 L 183.27629625561002,40 L 183.30120405895133,40 L 183.33333333333334,40" stroke="#22c55e" stroke-width="4" fill="none" opacity="0.4" stroke-dasharray="14800" stroke-dashoffset="14800">
      <animate attributeName="stroke-dashoffset" values="14800;0" dur="3s" begin="2.6s" fill="freeze"/>
    </path>
    
    <!-- Animated circle that moves along the path and draws the line -->
    <circle r="5" fill="#22c55e" opacity="0" filter="url(#trailGlow)">
      <animate attributeName="opacity" values="0;1;1;1" dur="3.2s" begin="2.4s" fill="freeze"/>
      <animate attributeName="r" values="5;6;5" dur="1s" begin="2.4s" repeatCount="3"/>
      <animateMotion dur="3s" begin="2.4s" fill="freeze">
        <mpath href="#path_followersCount_60"/>
      </animateMotion>
    </circle>
    
    <!-- Small trail dots that fade out -->
    <circle r="2" fill="#22c55e" opacity="0">
      <animate attributeName="opacity" values="0;0.6;0" dur="0.8s" begin="2.8s" fill="freeze"/>
      <animateMotion dur="3s" begin="2.4s" fill="freeze">
        <mpath href="#path_followersCount_60"/>
      </animateMotion>
    </circle>
    
    <!-- Hidden path for motion animation -->
    <path id="path_followersCount_60" d="M 30,160 L 30.024495659832798,160 L 30.0567145306297,160 L 31.54191846180875,160 L 31.57406565547374,160 L 31.602790266089666,160 L 33.097025515890316,160 L 33.12230962417421,160 L 33.150066593509244,160 L 34.64304749350134,160 L 34.667847781144786,160 L 34.69291685803292,160 L 34.73264390839818,160 L 36.19686435920839,160 L 36.22302651235827,160 L 36.25022798392095,160 L 37.744033170930095,160 L 37.77012364694805,160 L 37.79863322616823,160 L 39.291470771896485,160 L 39.31548261108884,160 L 39.342881194764296,160 L 40.83514532343722,160 L 40.863995369034,160 L 42.39424837762318,160 L 42.411773436377004,160 L 42.43958416356098,160 L 43.93476913535954,160 L 43.95944398802213,160 L 43.98994260765301,160 L 45.48261887983446,160 L 45.50670239615873,160 L 45.53377843274056,160 L 47.03355074098183,160 L 47.059390347038075,160 L 47.0917704913818,160 L 48.58338952586746,160 L 48.6112360916174,160 L 48.637935823256655,160 L 50.13419595203398,160 L 50.15132678656225,160 L 50.18033810570585,160 L 51.677046216557656,160 L 51.69944532028187,160 L 51.72514157207428,160 L 53.22494971888151,160 L 53.245825683552475,160 L 53.277489056577025,160 L 54.772494835545785,160 L 54.79539567919342,160 L 54.825249204637046,160 L 56.31776420327167,160 L 56.33982284061928,160 L 56.37231050066087,160 L 57.86502261140828,160 L 57.897402755752,160 L 57.93046383284893,160 L 59.418499010738714,160 L 59.44227789925234,160 L 59.472185182544905,160 L 60.96633083593066,160 L 60.98976925806767,160 L 61.01967654136024,160 L 62.5152915759503,160 L 62.54607690410886,160 L 62.58245304855697,160 L 64.0639297688763,160 L 64.08629303403455,160 L 64.11489220966963,160 L 65.61380439232789,160 L 65.63278091300305,160 L 65.66272403486158,160 L 67.15694136537925,160 L 67.17926879197154,160 L 67.20777837119172,160 L 67.2467886502378,160 L 68.709270930599,160 L 68.7390706981937,160 L 68.76865543439264,160 L 70.2536801727419,160 L 70.28097124071948,160 L 70.30948081993964,160 L 71.8045761953233,160 L 71.81991510155365,160 L 71.8559149410592,160 L 73.3511536707067,160 L 73.37659905253739,160 L 73.39751085577431,160 L 74.90054447351784,160 L 74.92459215127614,160 L 74.95385434038147,160 L 76.44961272923535,160 L 76.47530898102777,160 L 76.50347809387134,160 L 77.99645899386343,160 L 78.01686905717693,160 L 78.04838907593765,160 L 79.5474804514257,160 L 79.56952116949032,160 L 79.60043193262973,160 L 81.09461342458144,160 L 81.12029175709088,160 L 81.15122043951327,160 L 82.64194350984997,160 L 82.66672587821043,160 L 82.68527233609407,160 L 84.18714120044393,160 L 84.22219131795157,160 L 84.24586269076732,160 L 85.73871815577857,160 L 85.76278375281984,160 L 87.31281964981827,160 L 87.33923267292985,160 L 88.83162223658363,160 L 88.85484562732488,160 L 88.88249508096206,160 L 90.38330670761613,160 L 90.41219259177888,160 L 90.43975244900113,160 L 91.93155067631659,160 L 91.96124292821341,160 L 91.99021840879105,160 L 93.482446698898,160 L 93.51014991038411,160 L 93.53398255674668,160 L 95.02630044326852,160 L 95.0546308296589,57.14285714285715 L 95.08371382593442,57.14285714285715 L 96.60289271764236,57.14285714285715 L 96.62880400083051,57.14285714285715 L 98.11825480207568,57.14285714285715 L 98.14610136782562,57.14285714285715 L 98.16475534140714,57.14285714285715 L 99.67033349733373,57.14285714285715 L 99.69805462810281,57.14285714285715 L 99.72636709521022,57.14285714285715 L 101.2156207843426,57.14285714285715 L 101.2444529106564,57.14285714285715 L 101.2798972523896,57.14285714285715 L 102.77020817921776,57.14285714285715 L 102.80045592888693,57.14285714285715 L 102.82197698774516,57.14285714285715 L 104.31739491022245,57.14285714285715 L 104.34160386152757,57.14285714285715 L 104.37124235557545,57.14285714285715 L 105.868165497823,57.14285714285715 L 105.92303434230584,57.14285714285715 L 107.41210883860843,57.14285714285715 L 107.44178317122226,57.14285714285715 L 107.46912799704879,57.14285714285715 L 108.96201930062598,57.14285714285715 L 108.99009881705464,57.14285714285715 L 109.01941476400889,57.14285714285715 L 110.51087252494773,57.14285714285715 L 110.53950753914877,57.14285714285715 L 110.57172640994567,57.14285714285715 L 112.05838180304605,57.14285714285715 L 112.08852203701734,57.14285714285715 L 112.1194865580057,57.14285714285715 L 113.60927782562746,57.14285714285715 L 113.63884464254342,57.14285714285715 L 113.66703167466997,57.14285714285715 L 115.1596362697195,57.14285714285715 L 115.18090645861601,57.14285714285715 L 115.21034784055111,57.14285714285715 L 116.70241485711125,57.14285714285715 L 116.72977760222075,57.14285714285715 L 116.76149473309424,57.14285714285715 L 118.25133975856492,57.14285714285715 L 118.27854123012762,57.14285714285715 L 118.30848435198615,57.14285714285715 L 119.79970916224626,57.14285714285715 L 119.8254770911706,57.14285714285715 L 119.857247979893,57.14285714285715 L 121.34915372290634,57.14285714285715 L 121.37492165183068,57.14285714285715 L 121.39880805604217,57.14285714285715 L 122.90268388008572,57.14285714285715 L 122.92463500173545,57.14285714285715 L 122.95658508328766,57.14285714285715 L 124.44619715807964,57.14285714285715 L 124.47146334708054,57.14285714285715 L 124.49988332988583,57.14285714285715 L 125.99368851689496,57.14285714285715 L 126.01594426635535,57.14285714285715 L 126.0495966797906,57.14285714285715 L 127.5403197501273,57.14285714285715 L 127.5664460647112,57.14285714285715 L 127.5985036619613,57.14285714285715 L 129.08682554837876,57.14285714285715 L 129.1111957732307,57.14285714285715 L 129.14586958579577,57.14285714285715 L 130.63094808199395,57.14285714285715 L 130.66243226218873,57.14285714285715 L 130.6947586486835,57.14285714285715 L 132.18462159343719,57.14285714285715 L 132.20976234745723,57.14285714285715 L 132.23925748724128,57.14285714285715 L 133.73492627968028,57.14285714285715 L 133.76207399339404,57.14285714285715 L 133.79506339335904,57.14285714285715 L 135.28053611378277,57.14285714285715 L 135.31225324465626,57.14285714285715 L 135.34730336216393,57.14285714285715 L 136.83182636058973,57.14285714285715 L 136.85594571547998,57.14285714285715 L 136.88750157280663,57.14285714285715 L 138.381109647703,57.14285714285715 L 138.40352667071022,57.14285714285715 L 138.43515420516877,57.14285714285715 L 139.9259310333544,57.14285714285715 L 139.95065964386595,57.14285714285715 L 139.98162416485428,57.14285714285715 L 141.47473049982722,57.14285714285715 L 141.50281001625592,57.14285714285715 L 143.02542941029589,57.14285714285715 L 143.05123317778617,57.14285714285715 L 143.075692999053,57.14285714285715 L 144.57435431174957,57.14285714285715 L 144.60408240221233,57.14285714285715 L 144.63787816991143,57.14285714285715 L 146.1127426748114,57.14285714285715 L 146.14899338427864,57.14285714285715 L 146.17990414741806,57.14285714285715 L 147.66731215040357,57.14285714285715 L 147.68671873387024,57.14285714285715 L 147.72350702182686,57.14285714285715 L 149.21603993974446,57.14285714285715 L 149.24356395840078,57.14285714285715 L 149.27408049731463,57.14285714285715 L 150.7665596573833,57.14285714285715 L 150.7925605369864,57.14285714285715 L 150.8200845556427,57.14285714285715 L 152.31068219099853,57.14285714285715 L 152.34035652361237,57.14285714285715 L 152.36977998626446,57.14285714285715 L 153.85799435698408,57.14285714285715 L 153.88519582854673,57.14285714285715 L 153.91587364100744,57.14285714285715 L 155.41129156348472,57.14285714285715 L 155.4418797795305,57.14285714285715 L 155.47486917949553,57.14285714285715 L 156.96206215108526,57.14285714285715 L 156.98519594541165,57.14285714285715 L 157.03631965975177,57.14285714285715 L 158.51100497182193,57.14285714285715 L 158.53453299037386,57.14285714285715 L 158.5640998072898,57.14285714285715 L 160.05405234845838,57.14285714285715 L 160.08168388281257,57.14285714285715 L 160.11089231406896,57.14285714285715 L 161.60157954583968,57.14285714285715 L 161.62818968106404,57.14285714285715 L 161.6589033320907,57.14285714285715 L 163.15084491366997,57.14285714285715 L 163.17881691440076,57.14285714285715 L 163.2044056504953,57.14285714285715 L 164.69692064912994,57.14285714285715 L 164.72458802205006,57.14285714285715 L 164.75365309904262,57.14285714285715 L 166.25204562249448,57.14285714285715 L 166.2812002959019,57.14285714285715 L 166.3116809962498,57.14285714285715 L 167.7944120663777,57.14285714285715 L 167.82372801333196,40 L 167.85413703654794,40 L 169.34890986483796,40 L 169.36973207166,40 L 169.3980624580504,40 L 170.89134798585314,40 L 170.91127422852617,40 L 170.94935270485735,40 L 172.44177810707706,40 L 172.47057439482492,40 L 172.4949267003939,40 L 173.98394743884754,40 L 174.01657845315296,40 L 174.0483314225924,40 L 175.5393232821738,40 L 175.55432172202754,40 L 175.5927227454523,40 L 177.08720886521468,40 L 177.11718782563915,40 L 177.1521662660149,40 L 178.63536323750023,40 L 178.66183001846076,40 L 178.6976685844195,40 L 180.18074012092399,40 L 180.21075491991445,40 L 180.24404894769012,40 L 181.73242459195652,40 L 181.75428611719136,40 L 181.7853223153116,40 L 183.27629625561002,40 L 183.30120405895133,40 L 183.33333333333334,40" fill="none" stroke="none"/>
  </g>
  <!-- 🔓 Public Contributions Chart -->
  <g transform="translate(293.33333333333337, 250)">
    <!-- Chart Background -->
    <rect x="0" y="0" width="213.33333333333334" height="200" fill="#0f172a" stroke="#334155" stroke-width="1" rx="8" filter="url(#shadow)">
      <animate attributeName="opacity" values="0;1" dur="0.5s" begin="2.3s" fill="freeze"/>
    </rect>
    
    <!-- Chart Title -->
    <text x="106.66666666666667" y="25" text-anchor="middle" fill="#f8fafc" font-size="14" font-weight="bold" font-family="Arial, sans-serif">
      🔓 Public Contributions
      <animate attributeName="opacity" values="0;1" dur="0.5s" begin="2.5s" fill="freeze"/>
    </text>
    
    <!-- Y-axis labels -->
    <text x="10" y="45" fill="#94a3b8" font-size="10" font-family="Arial, sans-serif">3,434
      <animate attributeName="opacity" values="0;1" dur="0.5s" begin="2.6999999999999997s" fill="freeze"/>
    </text>
    <text x="10" y="185" fill="#94a3b8" font-size="10" font-family="Arial, sans-serif">2,669
      <animate attributeName="opacity" values="0;1" dur="0.5s" begin="2.6999999999999997s" fill="freeze"/>
    </text>
    
    <!-- Chart Line with draw animation that follows the circle -->
    <path d="M 30,160 L 30.024495659832798,160 L 30.0567145306297,160 L 31.54191846180875,160 L 31.57406565547374,160 L 31.602790266089666,160 L 33.097025515890316,160 L 33.12230962417421,160 L 33.150066593509244,160 L 34.64304749350134,160 L 34.667847781144786,160 L 34.69291685803292,160 L 34.73264390839818,160 L 36.19686435920839,160 L 36.22302651235827,160 L 36.25022798392095,160 L 37.744033170930095,160 L 37.77012364694805,160 L 37.79863322616823,160 L 39.291470771896485,160 L 39.31548261108884,160 L 39.342881194764296,160 L 40.83514532343722,160 L 40.863995369034,160 L 42.39424837762318,160 L 42.411773436377004,160 L 42.43958416356098,160 L 43.93476913535954,160 L 43.95944398802213,160 L 43.98994260765301,160 L 45.48261887983446,160 L 45.50670239615873,160 L 45.53377843274056,160 L 47.03355074098183,160 L 47.059390347038075,160 L 47.0917704913818,160 L 48.58338952586746,160 L 48.6112360916174,160 L 48.637935823256655,160 L 50.13419595203398,160 L 50.15132678656225,160 L 50.18033810570585,160 L 51.677046216557656,160 L 51.69944532028187,160 L 51.72514157207428,160 L 53.22494971888151,160 L 53.245825683552475,160 L 53.277489056577025,160 L 54.772494835545785,160 L 54.79539567919342,160 L 54.825249204637046,160 L 56.31776420327167,160 L 56.33982284061928,160 L 56.37231050066087,160 L 57.86502261140828,160 L 57.897402755752,160 L 57.93046383284893,160 L 59.418499010738714,160 L 59.44227789925234,160 L 59.472185182544905,160 L 60.96633083593066,160 L 60.98976925806767,160 L 61.01967654136024,160 L 62.5152915759503,160 L 62.54607690410886,160 L 62.58245304855697,160 L 64.0639297688763,160 L 64.08629303403455,160 L 64.11489220966963,160 L 65.61380439232789,160 L 65.63278091300305,160 L 65.66272403486158,160 L 67.15694136537925,160 L 67.17926879197154,160 L 67.20777837119172,160 L 67.2467886502378,160 L 68.709270930599,160 L 68.7390706981937,160 L 68.76865543439264,160 L 70.2536801727419,160 L 70.28097124071948,160 L 70.30948081993964,160 L 71.8045761953233,160 L 71.81991510155365,160 L 71.8559149410592,160 L 73.3511536707067,160 L 73.37659905253739,160 L 73.39751085577431,160 L 74.90054447351784,160 L 74.92459215127614,160 L 74.95385434038147,160 L 76.44961272923535,160 L 76.47530898102777,160 L 76.50347809387134,160 L 77.99645899386343,160 L 78.01686905717693,160 L 78.04838907593765,160 L 79.5474804514257,160 L 79.56952116949032,160 L 79.60043193262973,160 L 81.09461342458144,160 L 81.12029175709088,160 L 81.15122043951327,160 L 82.64194350984997,160 L 82.66672587821043,160 L 82.68527233609407,160 L 84.18714120044393,160 L 84.22219131795157,160 L 84.24586269076732,160 L 85.73871815577857,160 L 85.76278375281984,160 L 87.31281964981827,160 L 87.33923267292985,160 L 88.83162223658363,160 L 88.85484562732488,160 L 88.88249508096206,160 L 90.38330670761613,160 L 90.41219259177888,160 L 90.43975244900113,160 L 91.93155067631659,160 L 91.96124292821341,160 L 91.99021840879105,160 L 93.482446698898,160 L 93.51014991038411,160 L 93.53398255674668,160 L 95.02630044326852,160 L 95.0546308296589,79.84313725490196 L 95.08371382593442,79.84313725490196 L 96.60289271764236,79.84313725490196 L 96.62880400083051,79.84313725490196 L 98.11825480207568,79.84313725490196 L 98.14610136782562,79.84313725490196 L 98.16475534140714,79.84313725490196 L 99.67033349733373,79.84313725490196 L 99.69805462810281,79.84313725490196 L 99.72636709521022,79.84313725490196 L 101.2156207843426,79.84313725490196 L 101.2444529106564,79.84313725490196 L 101.2798972523896,79.84313725490196 L 102.77020817921776,79.84313725490196 L 102.80045592888693,79.84313725490196 L 102.82197698774516,79.84313725490196 L 104.31739491022245,79.84313725490196 L 104.34160386152757,79.84313725490196 L 104.37124235557545,79.84313725490196 L 105.868165497823,79.84313725490196 L 105.92303434230584,79.84313725490196 L 107.41210883860843,79.84313725490196 L 107.44178317122226,79.84313725490196 L 107.46912799704879,79.84313725490196 L 108.96201930062598,79.84313725490196 L 108.99009881705464,79.84313725490196 L 109.01941476400889,79.84313725490196 L 110.51087252494773,79.84313725490196 L 110.53950753914877,79.84313725490196 L 110.57172640994567,79.84313725490196 L 112.05838180304605,79.84313725490196 L 112.08852203701734,79.84313725490196 L 112.1194865580057,79.84313725490196 L 113.60927782562746,79.84313725490196 L 113.63884464254342,79.84313725490196 L 113.66703167466997,79.84313725490196 L 115.1596362697195,79.84313725490196 L 115.18090645861601,79.84313725490196 L 115.21034784055111,79.84313725490196 L 116.70241485711125,79.84313725490196 L 116.72977760222075,79.84313725490196 L 116.76149473309424,79.84313725490196 L 118.25133975856492,79.84313725490196 L 118.27854123012762,79.84313725490196 L 118.30848435198615,79.84313725490196 L 119.79970916224626,79.84313725490196 L 119.8254770911706,79.84313725490196 L 119.857247979893,79.84313725490196 L 121.34915372290634,79.84313725490196 L 121.37492165183068,79.84313725490196 L 121.39880805604217,79.84313725490196 L 122.90268388008572,79.84313725490196 L 122.92463500173545,79.84313725490196 L 122.95658508328766,79.84313725490196 L 124.44619715807964,79.84313725490196 L 124.47146334708054,79.84313725490196 L 124.49988332988583,79.84313725490196 L 125.99368851689496,79.84313725490196 L 126.01594426635535,79.84313725490196 L 126.0495966797906,79.84313725490196 L 127.5403197501273,79.84313725490196 L 127.5664460647112,79.84313725490196 L 127.5985036619613,79.84313725490196 L 129.08682554837876,79.84313725490196 L 129.1111957732307,79.84313725490196 L 129.14586958579577,79.84313725490196 L 130.63094808199395,79.84313725490196 L 130.66243226218873,79.84313725490196 L 130.6947586486835,79.84313725490196 L 132.18462159343719,79.84313725490196 L 132.20976234745723,79.84313725490196 L 132.23925748724128,79.84313725490196 L 133.73492627968028,79.84313725490196 L 133.76207399339404,79.84313725490196 L 133.79506339335904,79.84313725490196 L 135.28053611378277,79.84313725490196 L 135.31225324465626,79.84313725490196 L 135.34730336216393,79.84313725490196 L 136.83182636058973,79.84313725490196 L 136.85594571547998,79.84313725490196 L 136.88750157280663,79.84313725490196 L 138.381109647703,79.84313725490196 L 138.40352667071022,79.84313725490196 L 138.43515420516877,79.84313725490196 L 139.9259310333544,79.84313725490196 L 139.95065964386595,79.84313725490196 L 139.98162416485428,79.84313725490196 L 141.47473049982722,79.84313725490196 L 141.50281001625592,79.84313725490196 L 143.02542941029589,79.84313725490196 L 143.05123317778617,79.84313725490196 L 143.075692999053,79.84313725490196 L 144.57435431174957,79.84313725490196 L 144.60408240221233,79.84313725490196 L 144.63787816991143,79.84313725490196 L 146.1127426748114,79.84313725490196 L 146.14899338427864,79.84313725490196 L 146.17990414741806,79.84313725490196 L 147.66731215040357,79.84313725490196 L 147.68671873387024,79.84313725490196 L 147.72350702182686,79.84313725490196 L 149.21603993974446,79.84313725490196 L 149.24356395840078,79.84313725490196 L 149.27408049731463,79.84313725490196 L 150.7665596573833,79.84313725490196 L 150.7925605369864,79.84313725490196 L 150.8200845556427,79.84313725490196 L 152.31068219099853,79.84313725490196 L 152.34035652361237,79.84313725490196 L 152.36977998626446,79.84313725490196 L 153.85799435698408,79.84313725490196 L 153.88519582854673,79.84313725490196 L 153.91587364100744,79.84313725490196 L 155.41129156348472,79.84313725490196 L 155.4418797795305,79.84313725490196 L 155.47486917949553,79.84313725490196 L 156.96206215108526,79.84313725490196 L 156.98519594541165,79.84313725490196 L 157.03631965975177,79.84313725490196 L 158.51100497182193,79.84313725490196 L 158.53453299037386,79.84313725490196 L 158.5640998072898,79.84313725490196 L 160.05405234845838,79.84313725490196 L 160.08168388281257,79.84313725490196 L 160.11089231406896,79.84313725490196 L 161.60157954583968,79.84313725490196 L 161.62818968106404,79.84313725490196 L 161.6589033320907,79.84313725490196 L 163.15084491366997,79.84313725490196 L 163.17881691440076,79.84313725490196 L 163.2044056504953,79.84313725490196 L 164.69692064912994,79.84313725490196 L 164.72458802205006,79.84313725490196 L 164.75365309904262,79.84313725490196 L 166.25204562249448,79.84313725490196 L 166.2812002959019,79.84313725490196 L 166.3116809962498,79.84313725490196 L 167.7944120663777,79.84313725490196 L 167.82372801333196,40 L 167.85413703654794,40 L 169.34890986483796,40 L 169.36973207166,40 L 169.3980624580504,40 L 170.89134798585314,40 L 170.91127422852617,40 L 170.94935270485735,40 L 172.44177810707706,40 L 172.47057439482492,40 L 172.4949267003939,40 L 173.98394743884754,40 L 174.01657845315296,40 L 174.0483314225924,40 L 175.5393232821738,40 L 175.55432172202754,40 L 175.5927227454523,40 L 177.08720886521468,40 L 177.11718782563915,40 L 177.1521662660149,40 L 178.63536323750023,40 L 178.66183001846076,40 L 178.6976685844195,40 L 180.18074012092399,40 L 180.21075491991445,40 L 180.24404894769012,40 L 181.73242459195652,40 L 181.75428611719136,40 L 181.7853223153116,40 L 183.27629625561002,40 L 183.30120405895133,40 L 183.33333333333334,40" stroke="#3b82f6" stroke-width="2" fill="none" stroke-dasharray="14800" stroke-dashoffset="14800">
      <animate attributeName="stroke-dashoffset" values="14800;0" dur="3s" begin="3.0999999999999996s" fill="freeze"/>
    </path>
    
    <!-- Glow effect for the line that also follows the circle -->
    <path d="M 30,160 L 30.024495659832798,160 L 30.0567145306297,160 L 31.54191846180875,160 L 31.57406565547374,160 L 31.602790266089666,160 L 33.097025515890316,160 L 33.12230962417421,160 L 33.150066593509244,160 L 34.64304749350134,160 L 34.667847781144786,160 L 34.69291685803292,160 L 34.73264390839818,160 L 36.19686435920839,160 L 36.22302651235827,160 L 36.25022798392095,160 L 37.744033170930095,160 L 37.77012364694805,160 L 37.79863322616823,160 L 39.291470771896485,160 L 39.31548261108884,160 L 39.342881194764296,160 L 40.83514532343722,160 L 40.863995369034,160 L 42.39424837762318,160 L 42.411773436377004,160 L 42.43958416356098,160 L 43.93476913535954,160 L 43.95944398802213,160 L 43.98994260765301,160 L 45.48261887983446,160 L 45.50670239615873,160 L 45.53377843274056,160 L 47.03355074098183,160 L 47.059390347038075,160 L 47.0917704913818,160 L 48.58338952586746,160 L 48.6112360916174,160 L 48.637935823256655,160 L 50.13419595203398,160 L 50.15132678656225,160 L 50.18033810570585,160 L 51.677046216557656,160 L 51.69944532028187,160 L 51.72514157207428,160 L 53.22494971888151,160 L 53.245825683552475,160 L 53.277489056577025,160 L 54.772494835545785,160 L 54.79539567919342,160 L 54.825249204637046,160 L 56.31776420327167,160 L 56.33982284061928,160 L 56.37231050066087,160 L 57.86502261140828,160 L 57.897402755752,160 L 57.93046383284893,160 L 59.418499010738714,160 L 59.44227789925234,160 L 59.472185182544905,160 L 60.96633083593066,160 L 60.98976925806767,160 L 61.01967654136024,160 L 62.5152915759503,160 L 62.54607690410886,160 L 62.58245304855697,160 L 64.0639297688763,160 L 64.08629303403455,160 L 64.11489220966963,160 L 65.61380439232789,160 L 65.63278091300305,160 L 65.66272403486158,160 L 67.15694136537925,160 L 67.17926879197154,160 L 67.20777837119172,160 L 67.2467886502378,160 L 68.709270930599,160 L 68.7390706981937,160 L 68.76865543439264,160 L 70.2536801727419,160 L 70.28097124071948,160 L 70.30948081993964,160 L 71.8045761953233,160 L 71.81991510155365,160 L 71.8559149410592,160 L 73.3511536707067,160 L 73.37659905253739,160 L 73.39751085577431,160 L 74.90054447351784,160 L 74.92459215127614,160 L 74.95385434038147,160 L 76.44961272923535,160 L 76.47530898102777,160 L 76.50347809387134,160 L 77.99645899386343,160 L 78.01686905717693,160 L 78.04838907593765,160 L 79.5474804514257,160 L 79.56952116949032,160 L 79.60043193262973,160 L 81.09461342458144,160 L 81.12029175709088,160 L 81.15122043951327,160 L 82.64194350984997,160 L 82.66672587821043,160 L 82.68527233609407,160 L 84.18714120044393,160 L 84.22219131795157,160 L 84.24586269076732,160 L 85.73871815577857,160 L 85.76278375281984,160 L 87.31281964981827,160 L 87.33923267292985,160 L 88.83162223658363,160 L 88.85484562732488,160 L 88.88249508096206,160 L 90.38330670761613,160 L 90.41219259177888,160 L 90.43975244900113,160 L 91.93155067631659,160 L 91.96124292821341,160 L 91.99021840879105,160 L 93.482446698898,160 L 93.51014991038411,160 L 93.53398255674668,160 L 95.02630044326852,160 L 95.0546308296589,79.84313725490196 L 95.08371382593442,79.84313725490196 L 96.60289271764236,79.84313725490196 L 96.62880400083051,79.84313725490196 L 98.11825480207568,79.84313725490196 L 98.14610136782562,79.84313725490196 L 98.16475534140714,79.84313725490196 L 99.67033349733373,79.84313725490196 L 99.69805462810281,79.84313725490196 L 99.72636709521022,79.84313725490196 L 101.2156207843426,79.84313725490196 L 101.2444529106564,79.84313725490196 L 101.2798972523896,79.84313725490196 L 102.77020817921776,79.84313725490196 L 102.80045592888693,79.84313725490196 L 102.82197698774516,79.84313725490196 L 104.31739491022245,79.84313725490196 L 104.34160386152757,79.84313725490196 L 104.37124235557545,79.84313725490196 L 105.868165497823,79.84313725490196 L 105.92303434230584,79.84313725490196 L 107.41210883860843,79.84313725490196 L 107.44178317122226,79.84313725490196 L 107.46912799704879,79.84313725490196 L 108.96201930062598,79.84313725490196 L 108.99009881705464,79.84313725490196 L 109.01941476400889,79.84313725490196 L 110.51087252494773,79.84313725490196 L 110.53950753914877,79.84313725490196 L 110.57172640994567,79.84313725490196 L 112.05838180304605,79.84313725490196 L 112.08852203701734,79.84313725490196 L 112.1194865580057,79.84313725490196 L 113.60927782562746,79.84313725490196 L 113.63884464254342,79.84313725490196 L 113.66703167466997,79.84313725490196 L 115.1596362697195,79.84313725490196 L 115.18090645861601,79.84313725490196 L 115.21034784055111,79.84313725490196 L 116.70241485711125,79.84313725490196 L 116.72977760222075,79.84313725490196 L 116.76149473309424,79.84313725490196 L 118.25133975856492,79.84313725490196 L 118.27854123012762,79.84313725490196 L 118.30848435198615,79.84313725490196 L 119.79970916224626,79.84313725490196 L 119.8254770911706,79.84313725490196 L 119.857247979893,79.84313725490196 L 121.34915372290634,79.84313725490196 L 121.37492165183068,79.84313725490196 L 121.39880805604217,79.84313725490196 L 122.90268388008572,79.84313725490196 L 122.92463500173545,79.84313725490196 L 122.95658508328766,79.84313725490196 L 124.44619715807964,79.84313725490196 L 124.47146334708054,79.84313725490196 L 124.49988332988583,79.84313725490196 L 125.99368851689496,79.84313725490196 L 126.01594426635535,79.84313725490196 L 126.0495966797906,79.84313725490196 L 127.5403197501273,79.84313725490196 L 127.5664460647112,79.84313725490196 L 127.5985036619613,79.84313725490196 L 129.08682554837876,79.84313725490196 L 129.1111957732307,79.84313725490196 L 129.14586958579577,79.84313725490196 L 130.63094808199395,79.84313725490196 L 130.66243226218873,79.84313725490196 L 130.6947586486835,79.84313725490196 L 132.18462159343719,79.84313725490196 L 132.20976234745723,79.84313725490196 L 132.23925748724128,79.84313725490196 L 133.73492627968028,79.84313725490196 L 133.76207399339404,79.84313725490196 L 133.79506339335904,79.84313725490196 L 135.28053611378277,79.84313725490196 L 135.31225324465626,79.84313725490196 L 135.34730336216393,79.84313725490196 L 136.83182636058973,79.84313725490196 L 136.85594571547998,79.84313725490196 L 136.88750157280663,79.84313725490196 L 138.381109647703,79.84313725490196 L 138.40352667071022,79.84313725490196 L 138.43515420516877,79.84313725490196 L 139.9259310333544,79.84313725490196 L 139.95065964386595,79.84313725490196 L 139.98162416485428,79.84313725490196 L 141.47473049982722,79.84313725490196 L 141.50281001625592,79.84313725490196 L 143.02542941029589,79.84313725490196 L 143.05123317778617,79.84313725490196 L 143.075692999053,79.84313725490196 L 144.57435431174957,79.84313725490196 L 144.60408240221233,79.84313725490196 L 144.63787816991143,79.84313725490196 L 146.1127426748114,79.84313725490196 L 146.14899338427864,79.84313725490196 L 146.17990414741806,79.84313725490196 L 147.66731215040357,79.84313725490196 L 147.68671873387024,79.84313725490196 L 147.72350702182686,79.84313725490196 L 149.21603993974446,79.84313725490196 L 149.24356395840078,79.84313725490196 L 149.27408049731463,79.84313725490196 L 150.7665596573833,79.84313725490196 L 150.7925605369864,79.84313725490196 L 150.8200845556427,79.84313725490196 L 152.31068219099853,79.84313725490196 L 152.34035652361237,79.84313725490196 L 152.36977998626446,79.84313725490196 L 153.85799435698408,79.84313725490196 L 153.88519582854673,79.84313725490196 L 153.91587364100744,79.84313725490196 L 155.41129156348472,79.84313725490196 L 155.4418797795305,79.84313725490196 L 155.47486917949553,79.84313725490196 L 156.96206215108526,79.84313725490196 L 156.98519594541165,79.84313725490196 L 157.03631965975177,79.84313725490196 L 158.51100497182193,79.84313725490196 L 158.53453299037386,79.84313725490196 L 158.5640998072898,79.84313725490196 L 160.05405234845838,79.84313725490196 L 160.08168388281257,79.84313725490196 L 160.11089231406896,79.84313725490196 L 161.60157954583968,79.84313725490196 L 161.62818968106404,79.84313725490196 L 161.6589033320907,79.84313725490196 L 163.15084491366997,79.84313725490196 L 163.17881691440076,79.84313725490196 L 163.2044056504953,79.84313725490196 L 164.69692064912994,79.84313725490196 L 164.72458802205006,79.84313725490196 L 164.75365309904262,79.84313725490196 L 166.25204562249448,79.84313725490196 L 166.2812002959019,79.84313725490196 L 166.3116809962498,79.84313725490196 L 167.7944120663777,79.84313725490196 L 167.82372801333196,40 L 167.85413703654794,40 L 169.34890986483796,40 L 169.36973207166,40 L 169.3980624580504,40 L 170.89134798585314,40 L 170.91127422852617,40 L 170.94935270485735,40 L 172.44177810707706,40 L 172.47057439482492,40 L 172.4949267003939,40 L 173.98394743884754,40 L 174.01657845315296,40 L 174.0483314225924,40 L 175.5393232821738,40 L 175.55432172202754,40 L 175.5927227454523,40 L 177.08720886521468,40 L 177.11718782563915,40 L 177.1521662660149,40 L 178.63536323750023,40 L 178.66183001846076,40 L 178.6976685844195,40 L 180.18074012092399,40 L 180.21075491991445,40 L 180.24404894769012,40 L 181.73242459195652,40 L 181.75428611719136,40 L 181.7853223153116,40 L 183.27629625561002,40 L 183.30120405895133,40 L 183.33333333333334,40" stroke="#3b82f6" stroke-width="4" fill="none" opacity="0.4" stroke-dasharray="14800" stroke-dashoffset="14800">
      <animate attributeName="stroke-dashoffset" values="14800;0" dur="3s" begin="3.0999999999999996s" fill="freeze"/>
    </path>
    
    <!-- Animated circle that moves along the path and draws the line -->
    <circle r="5" fill="#3b82f6" opacity="0" filter="url(#trailGlow)">
      <animate attributeName="opacity" values="0;1;1;1" dur="3.2s" begin="2.9s" fill="freeze"/>
      <animate attributeName="r" values="5;6;5" dur="1s" begin="2.9s" repeatCount="3"/>
      <animateMotion dur="3s" begin="2.9s" fill="freeze">
        <mpath href="#path_publicContributions_293.33333333333337"/>
      </animateMotion>
    </circle>
    
    <!-- Small trail dots that fade out -->
    <circle r="2" fill="#3b82f6" opacity="0">
      <animate attributeName="opacity" values="0;0.6;0" dur="0.8s" begin="3.3s" fill="freeze"/>
      <animateMotion dur="3s" begin="2.9s" fill="freeze">
        <mpath href="#path_publicContributions_293.33333333333337"/>
      </animateMotion>
    </circle>
    
    <!-- Hidden path for motion animation -->
    <path id="path_publicContributions_293.33333333333337" d="M 30,160 L 30.024495659832798,160 L 30.0567145306297,160 L 31.54191846180875,160 L 31.57406565547374,160 L 31.602790266089666,160 L 33.097025515890316,160 L 33.12230962417421,160 L 33.150066593509244,160 L 34.64304749350134,160 L 34.667847781144786,160 L 34.69291685803292,160 L 34.73264390839818,160 L 36.19686435920839,160 L 36.22302651235827,160 L 36.25022798392095,160 L 37.744033170930095,160 L 37.77012364694805,160 L 37.79863322616823,160 L 39.291470771896485,160 L 39.31548261108884,160 L 39.342881194764296,160 L 40.83514532343722,160 L 40.863995369034,160 L 42.39424837762318,160 L 42.411773436377004,160 L 42.43958416356098,160 L 43.93476913535954,160 L 43.95944398802213,160 L 43.98994260765301,160 L 45.48261887983446,160 L 45.50670239615873,160 L 45.53377843274056,160 L 47.03355074098183,160 L 47.059390347038075,160 L 47.0917704913818,160 L 48.58338952586746,160 L 48.6112360916174,160 L 48.637935823256655,160 L 50.13419595203398,160 L 50.15132678656225,160 L 50.18033810570585,160 L 51.677046216557656,160 L 51.69944532028187,160 L 51.72514157207428,160 L 53.22494971888151,160 L 53.245825683552475,160 L 53.277489056577025,160 L 54.772494835545785,160 L 54.79539567919342,160 L 54.825249204637046,160 L 56.31776420327167,160 L 56.33982284061928,160 L 56.37231050066087,160 L 57.86502261140828,160 L 57.897402755752,160 L 57.93046383284893,160 L 59.418499010738714,160 L 59.44227789925234,160 L 59.472185182544905,160 L 60.96633083593066,160 L 60.98976925806767,160 L 61.01967654136024,160 L 62.5152915759503,160 L 62.54607690410886,160 L 62.58245304855697,160 L 64.0639297688763,160 L 64.08629303403455,160 L 64.11489220966963,160 L 65.61380439232789,160 L 65.63278091300305,160 L 65.66272403486158,160 L 67.15694136537925,160 L 67.17926879197154,160 L 67.20777837119172,160 L 67.2467886502378,160 L 68.709270930599,160 L 68.7390706981937,160 L 68.76865543439264,160 L 70.2536801727419,160 L 70.28097124071948,160 L 70.30948081993964,160 L 71.8045761953233,160 L 71.81991510155365,160 L 71.8559149410592,160 L 73.3511536707067,160 L 73.37659905253739,160 L 73.39751085577431,160 L 74.90054447351784,160 L 74.92459215127614,160 L 74.95385434038147,160 L 76.44961272923535,160 L 76.47530898102777,160 L 76.50347809387134,160 L 77.99645899386343,160 L 78.01686905717693,160 L 78.04838907593765,160 L 79.5474804514257,160 L 79.56952116949032,160 L 79.60043193262973,160 L 81.09461342458144,160 L 81.12029175709088,160 L 81.15122043951327,160 L 82.64194350984997,160 L 82.66672587821043,160 L 82.68527233609407,160 L 84.18714120044393,160 L 84.22219131795157,160 L 84.24586269076732,160 L 85.73871815577857,160 L 85.76278375281984,160 L 87.31281964981827,160 L 87.33923267292985,160 L 88.83162223658363,160 L 88.85484562732488,160 L 88.88249508096206,160 L 90.38330670761613,160 L 90.41219259177888,160 L 90.43975244900113,160 L 91.93155067631659,160 L 91.96124292821341,160 L 91.99021840879105,160 L 93.482446698898,160 L 93.51014991038411,160 L 93.53398255674668,160 L 95.02630044326852,160 L 95.0546308296589,79.84313725490196 L 95.08371382593442,79.84313725490196 L 96.60289271764236,79.84313725490196 L 96.62880400083051,79.84313725490196 L 98.11825480207568,79.84313725490196 L 98.14610136782562,79.84313725490196 L 98.16475534140714,79.84313725490196 L 99.67033349733373,79.84313725490196 L 99.69805462810281,79.84313725490196 L 99.72636709521022,79.84313725490196 L 101.2156207843426,79.84313725490196 L 101.2444529106564,79.84313725490196 L 101.2798972523896,79.84313725490196 L 102.77020817921776,79.84313725490196 L 102.80045592888693,79.84313725490196 L 102.82197698774516,79.84313725490196 L 104.31739491022245,79.84313725490196 L 104.34160386152757,79.84313725490196 L 104.37124235557545,79.84313725490196 L 105.868165497823,79.84313725490196 L 105.92303434230584,79.84313725490196 L 107.41210883860843,79.84313725490196 L 107.44178317122226,79.84313725490196 L 107.46912799704879,79.84313725490196 L 108.96201930062598,79.84313725490196 L 108.99009881705464,79.84313725490196 L 109.01941476400889,79.84313725490196 L 110.51087252494773,79.84313725490196 L 110.53950753914877,79.84313725490196 L 110.57172640994567,79.84313725490196 L 112.05838180304605,79.84313725490196 L 112.08852203701734,79.84313725490196 L 112.1194865580057,79.84313725490196 L 113.60927782562746,79.84313725490196 L 113.63884464254342,79.84313725490196 L 113.66703167466997,79.84313725490196 L 115.1596362697195,79.84313725490196 L 115.18090645861601,79.84313725490196 L 115.21034784055111,79.84313725490196 L 116.70241485711125,79.84313725490196 L 116.72977760222075,79.84313725490196 L 116.76149473309424,79.84313725490196 L 118.25133975856492,79.84313725490196 L 118.27854123012762,79.84313725490196 L 118.30848435198615,79.84313725490196 L 119.79970916224626,79.84313725490196 L 119.8254770911706,79.84313725490196 L 119.857247979893,79.84313725490196 L 121.34915372290634,79.84313725490196 L 121.37492165183068,79.84313725490196 L 121.39880805604217,79.84313725490196 L 122.90268388008572,79.84313725490196 L 122.92463500173545,79.84313725490196 L 122.95658508328766,79.84313725490196 L 124.44619715807964,79.84313725490196 L 124.47146334708054,79.84313725490196 L 124.49988332988583,79.84313725490196 L 125.99368851689496,79.84313725490196 L 126.01594426635535,79.84313725490196 L 126.0495966797906,79.84313725490196 L 127.5403197501273,79.84313725490196 L 127.5664460647112,79.84313725490196 L 127.5985036619613,79.84313725490196 L 129.08682554837876,79.84313725490196 L 129.1111957732307,79.84313725490196 L 129.14586958579577,79.84313725490196 L 130.63094808199395,79.84313725490196 L 130.66243226218873,79.84313725490196 L 130.6947586486835,79.84313725490196 L 132.18462159343719,79.84313725490196 L 132.20976234745723,79.84313725490196 L 132.23925748724128,79.84313725490196 L 133.73492627968028,79.84313725490196 L 133.76207399339404,79.84313725490196 L 133.79506339335904,79.84313725490196 L 135.28053611378277,79.84313725490196 L 135.31225324465626,79.84313725490196 L 135.34730336216393,79.84313725490196 L 136.83182636058973,79.84313725490196 L 136.85594571547998,79.84313725490196 L 136.88750157280663,79.84313725490196 L 138.381109647703,79.84313725490196 L 138.40352667071022,79.84313725490196 L 138.43515420516877,79.84313725490196 L 139.9259310333544,79.84313725490196 L 139.95065964386595,79.84313725490196 L 139.98162416485428,79.84313725490196 L 141.47473049982722,79.84313725490196 L 141.50281001625592,79.84313725490196 L 143.02542941029589,79.84313725490196 L 143.05123317778617,79.84313725490196 L 143.075692999053,79.84313725490196 L 144.57435431174957,79.84313725490196 L 144.60408240221233,79.84313725490196 L 144.63787816991143,79.84313725490196 L 146.1127426748114,79.84313725490196 L 146.14899338427864,79.84313725490196 L 146.17990414741806,79.84313725490196 L 147.66731215040357,79.84313725490196 L 147.68671873387024,79.84313725490196 L 147.72350702182686,79.84313725490196 L 149.21603993974446,79.84313725490196 L 149.24356395840078,79.84313725490196 L 149.27408049731463,79.84313725490196 L 150.7665596573833,79.84313725490196 L 150.7925605369864,79.84313725490196 L 150.8200845556427,79.84313725490196 L 152.31068219099853,79.84313725490196 L 152.34035652361237,79.84313725490196 L 152.36977998626446,79.84313725490196 L 153.85799435698408,79.84313725490196 L 153.88519582854673,79.84313725490196 L 153.91587364100744,79.84313725490196 L 155.41129156348472,79.84313725490196 L 155.4418797795305,79.84313725490196 L 155.47486917949553,79.84313725490196 L 156.96206215108526,79.84313725490196 L 156.98519594541165,79.84313725490196 L 157.03631965975177,79.84313725490196 L 158.51100497182193,79.84313725490196 L 158.53453299037386,79.84313725490196 L 158.5640998072898,79.84313725490196 L 160.05405234845838,79.84313725490196 L 160.08168388281257,79.84313725490196 L 160.11089231406896,79.84313725490196 L 161.60157954583968,79.84313725490196 L 161.62818968106404,79.84313725490196 L 161.6589033320907,79.84313725490196 L 163.15084491366997,79.84313725490196 L 163.17881691440076,79.84313725490196 L 163.2044056504953,79.84313725490196 L 164.69692064912994,79.84313725490196 L 164.72458802205006,79.84313725490196 L 164.75365309904262,79.84313725490196 L 166.25204562249448,79.84313725490196 L 166.2812002959019,79.84313725490196 L 166.3116809962498,79.84313725490196 L 167.7944120663777,79.84313725490196 L 167.82372801333196,40 L 167.85413703654794,40 L 169.34890986483796,40 L 169.36973207166,40 L 169.3980624580504,40 L 170.89134798585314,40 L 170.91127422852617,40 L 170.94935270485735,40 L 172.44177810707706,40 L 172.47057439482492,40 L 172.4949267003939,40 L 173.98394743884754,40 L 174.01657845315296,40 L 174.0483314225924,40 L 175.5393232821738,40 L 175.55432172202754,40 L 175.5927227454523,40 L 177.08720886521468,40 L 177.11718782563915,40 L 177.1521662660149,40 L 178.63536323750023,40 L 178.66183001846076,40 L 178.6976685844195,40 L 180.18074012092399,40 L 180.21075491991445,40 L 180.24404894769012,40 L 181.73242459195652,40 L 181.75428611719136,40 L 181.7853223153116,40 L 183.27629625561002,40 L 183.30120405895133,40 L 183.33333333333334,40" fill="none" stroke="none"/>
  </g>
  <!-- 📊 Total Contributions Chart -->
  <g transform="translate(526.6666666666667, 250)">
    <!-- Chart Background -->
    <rect x="0" y="0" width="213.33333333333334" height="200" fill="#0f172a" stroke="#334155" stroke-width="1" rx="8" filter="url(#shadow)">
      <animate attributeName="opacity" values="0;1" dur="0.5s" begin="2.8s" fill="freeze"/>
    </rect>
    
    <!-- Chart Title -->
    <text x="106.66666666666667" y="25" text-anchor="middle" fill="#f8fafc" font-size="14" font-weight="bold" font-family="Arial, sans-serif">
      📊 Total Contributions
      <animate attributeName="opacity" values="0;1" dur="0.5s" begin="3s" fill="freeze"/>
    </text>
    
    <!-- Y-axis labels -->
    <text x="10" y="45" fill="#94a3b8" font-size="10" font-family="Arial, sans-serif">4,917
      <animate attributeName="opacity" values="0;1" dur="0.5s" begin="3.1999999999999997s" fill="freeze"/>
    </text>
    <text x="10" y="185" fill="#94a3b8" font-size="10" font-family="Arial, sans-serif">3,802
      <animate attributeName="opacity" values="0;1" dur="0.5s" begin="3.1999999999999997s" fill="freeze"/>
    </text>
    
    <!-- Chart Line with draw animation that follows the circle -->
    <path d="M 30,160 L 30.024495659832798,160 L 30.0567145306297,160 L 31.54191846180875,160 L 31.57406565547374,160 L 31.602790266089666,160 L 33.097025515890316,160 L 33.12230962417421,160 L 33.150066593509244,160 L 34.64304749350134,160 L 34.667847781144786,160 L 34.69291685803292,160 L 34.73264390839818,160 L 36.19686435920839,160 L 36.22302651235827,160 L 36.25022798392095,160 L 37.744033170930095,160 L 37.77012364694805,160 L 37.79863322616823,160 L 39.291470771896485,160 L 39.31548261108884,160 L 39.342881194764296,160 L 40.83514532343722,160 L 40.863995369034,160 L 42.39424837762318,160 L 42.411773436377004,160 L 42.43958416356098,160 L 43.93476913535954,160 L 43.95944398802213,160 L 43.98994260765301,160 L 45.48261887983446,160 L 45.50670239615873,160 L 45.53377843274056,160 L 47.03355074098183,160 L 47.059390347038075,160 L 47.0917704913818,160 L 48.58338952586746,160 L 48.6112360916174,160 L 48.637935823256655,160 L 50.13419595203398,160 L 50.15132678656225,160 L 50.18033810570585,160 L 51.677046216557656,160 L 51.69944532028187,160 L 51.72514157207428,160 L 53.22494971888151,160 L 53.245825683552475,160 L 53.277489056577025,160 L 54.772494835545785,160 L 54.79539567919342,160 L 54.825249204637046,160 L 56.31776420327167,160 L 56.33982284061928,160 L 56.37231050066087,160 L 57.86502261140828,160 L 57.897402755752,160 L 57.93046383284893,160 L 59.418499010738714,160 L 59.44227789925234,160 L 59.472185182544905,160 L 60.96633083593066,160 L 60.98976925806767,160 L 61.01967654136024,160 L 62.5152915759503,160 L 62.54607690410886,160 L 62.58245304855697,160 L 64.0639297688763,160 L 64.08629303403455,160 L 64.11489220966963,160 L 65.61380439232789,160 L 65.63278091300305,160 L 65.66272403486158,160 L 67.15694136537925,160 L 67.17926879197154,160 L 67.20777837119172,160 L 67.2467886502378,160 L 68.709270930599,160 L 68.7390706981937,160 L 68.76865543439264,160 L 70.2536801727419,160 L 70.28097124071948,160 L 70.30948081993964,160 L 71.8045761953233,160 L 71.81991510155365,160 L 71.8559149410592,160 L 73.3511536707067,160 L 73.37659905253739,160 L 73.39751085577431,160 L 74.90054447351784,160 L 74.92459215127614,160 L 74.95385434038147,160 L 76.44961272923535,160 L 76.47530898102777,160 L 76.50347809387134,160 L 77.99645899386343,160 L 78.01686905717693,160 L 78.04838907593765,160 L 79.5474804514257,160 L 79.56952116949032,160 L 79.60043193262973,160 L 81.09461342458144,160 L 81.12029175709088,160 L 81.15122043951327,160 L 82.64194350984997,160 L 82.66672587821043,160 L 82.68527233609407,160 L 84.18714120044393,160 L 84.22219131795157,160 L 84.24586269076732,160 L 85.73871815577857,160 L 85.76278375281984,160 L 87.31281964981827,160 L 87.33923267292985,160 L 88.83162223658363,160 L 88.85484562732488,160 L 88.88249508096206,160 L 90.38330670761613,160 L 90.41219259177888,160 L 90.43975244900113,160 L 91.93155067631659,160 L 91.96124292821341,160 L 91.99021840879105,160 L 93.482446698898,160 L 93.51014991038411,160 L 93.53398255674668,160 L 95.02630044326852,160 L 95.0546308296589,94.78026905829597 L 95.08371382593442,94.78026905829597 L 96.60289271764236,94.78026905829597 L 96.62880400083051,94.78026905829597 L 98.11825480207568,94.78026905829597 L 98.14610136782562,94.78026905829597 L 98.16475534140714,94.78026905829597 L 99.67033349733373,94.78026905829597 L 99.69805462810281,94.78026905829597 L 99.72636709521022,94.78026905829597 L 101.2156207843426,94.78026905829597 L 101.2444529106564,94.78026905829597 L 101.2798972523896,94.78026905829597 L 102.77020817921776,94.78026905829597 L 102.80045592888693,94.78026905829597 L 102.82197698774516,94.78026905829597 L 104.31739491022245,94.78026905829597 L 104.34160386152757,94.78026905829597 L 104.37124235557545,94.78026905829597 L 105.868165497823,94.78026905829597 L 105.92303434230584,94.78026905829597 L 107.41210883860843,94.78026905829597 L 107.44178317122226,94.78026905829597 L 107.46912799704879,94.78026905829597 L 108.96201930062598,94.78026905829597 L 108.99009881705464,94.78026905829597 L 109.01941476400889,94.78026905829597 L 110.51087252494773,94.78026905829597 L 110.53950753914877,94.78026905829597 L 110.57172640994567,94.78026905829597 L 112.05838180304605,94.78026905829597 L 112.08852203701734,94.78026905829597 L 112.1194865580057,94.78026905829597 L 113.60927782562746,94.78026905829597 L 113.63884464254342,94.78026905829597 L 113.66703167466997,94.78026905829597 L 115.1596362697195,94.78026905829597 L 115.18090645861601,94.78026905829597 L 115.21034784055111,94.78026905829597 L 116.70241485711125,94.78026905829597 L 116.72977760222075,94.78026905829597 L 116.76149473309424,94.78026905829597 L 118.25133975856492,94.78026905829597 L 118.27854123012762,94.78026905829597 L 118.30848435198615,94.78026905829597 L 119.79970916224626,94.78026905829597 L 119.8254770911706,94.78026905829597 L 119.857247979893,94.78026905829597 L 121.34915372290634,94.78026905829597 L 121.37492165183068,94.78026905829597 L 121.39880805604217,94.78026905829597 L 122.90268388008572,94.78026905829597 L 122.92463500173545,94.78026905829597 L 122.95658508328766,94.78026905829597 L 124.44619715807964,94.78026905829597 L 124.47146334708054,94.78026905829597 L 124.49988332988583,94.78026905829597 L 125.99368851689496,94.78026905829597 L 126.01594426635535,94.78026905829597 L 126.0495966797906,94.78026905829597 L 127.5403197501273,94.78026905829597 L 127.5664460647112,94.78026905829597 L 127.5985036619613,94.78026905829597 L 129.08682554837876,94.78026905829597 L 129.1111957732307,94.78026905829597 L 129.14586958579577,94.78026905829597 L 130.63094808199395,94.78026905829597 L 130.66243226218873,94.78026905829597 L 130.6947586486835,94.78026905829597 L 132.18462159343719,94.78026905829597 L 132.20976234745723,94.78026905829597 L 132.23925748724128,94.78026905829597 L 133.73492627968028,94.78026905829597 L 133.76207399339404,94.78026905829597 L 133.79506339335904,94.78026905829597 L 135.28053611378277,94.78026905829597 L 135.31225324465626,94.78026905829597 L 135.34730336216393,94.78026905829597 L 136.83182636058973,94.78026905829597 L 136.85594571547998,94.78026905829597 L 136.88750157280663,94.78026905829597 L 138.381109647703,94.78026905829597 L 138.40352667071022,94.78026905829597 L 138.43515420516877,94.78026905829597 L 139.9259310333544,94.78026905829597 L 139.95065964386595,94.78026905829597 L 139.98162416485428,94.78026905829597 L 141.47473049982722,94.78026905829597 L 141.50281001625592,94.78026905829597 L 143.02542941029589,94.78026905829597 L 143.05123317778617,94.78026905829597 L 143.075692999053,94.78026905829597 L 144.57435431174957,94.78026905829597 L 144.60408240221233,94.78026905829597 L 144.63787816991143,94.78026905829597 L 146.1127426748114,94.78026905829597 L 146.14899338427864,94.78026905829597 L 146.17990414741806,94.78026905829597 L 147.66731215040357,94.78026905829597 L 147.68671873387024,94.78026905829597 L 147.72350702182686,94.78026905829597 L 149.21603993974446,94.78026905829597 L 149.24356395840078,94.78026905829597 L 149.27408049731463,94.78026905829597 L 150.7665596573833,94.78026905829597 L 150.7925605369864,94.78026905829597 L 150.8200845556427,94.78026905829597 L 152.31068219099853,94.78026905829597 L 152.34035652361237,94.78026905829597 L 152.36977998626446,94.78026905829597 L 153.85799435698408,94.78026905829597 L 153.88519582854673,94.78026905829597 L 153.91587364100744,94.78026905829597 L 155.41129156348472,94.78026905829597 L 155.4418797795305,94.78026905829597 L 155.47486917949553,94.78026905829597 L 156.96206215108526,94.78026905829597 L 156.98519594541165,94.78026905829597 L 157.03631965975177,94.78026905829597 L 158.51100497182193,94.78026905829597 L 158.53453299037386,94.78026905829597 L 158.5640998072898,94.78026905829597 L 160.05405234845838,94.78026905829597 L 160.08168388281257,94.78026905829597 L 160.11089231406896,94.78026905829597 L 161.60157954583968,94.78026905829597 L 161.62818968106404,94.78026905829597 L 161.6589033320907,94.78026905829597 L 163.15084491366997,94.78026905829597 L 163.17881691440076,94.78026905829597 L 163.2044056504953,94.78026905829597 L 164.69692064912994,94.78026905829597 L 164.72458802205006,94.78026905829597 L 164.75365309904262,94.78026905829597 L 166.25204562249448,94.78026905829597 L 166.2812002959019,94.78026905829597 L 166.3116809962498,94.78026905829597 L 167.7944120663777,94.78026905829597 L 167.82372801333196,40 L 167.85413703654794,40 L 169.34890986483796,40 L 169.36973207166,40 L 169.3980624580504,40 L 170.89134798585314,40 L 170.91127422852617,40 L 170.94935270485735,40 L 172.44177810707706,40 L 172.47057439482492,40 L 172.4949267003939,40 L 173.98394743884754,40 L 174.01657845315296,40 L 174.0483314225924,40 L 175.5393232821738,40 L 175.55432172202754,40 L 175.5927227454523,40 L 177.08720886521468,40 L 177.11718782563915,40 L 177.1521662660149,40 L 178.63536323750023,40 L 178.66183001846076,40 L 178.6976685844195,40 L 180.18074012092399,40 L 180.21075491991445,40 L 180.24404894769012,40 L 181.73242459195652,40 L 181.75428611719136,40 L 181.7853223153116,40 L 183.27629625561002,40 L 183.30120405895133,40 L 183.33333333333334,40" stroke="#f59e0b" stroke-width="2" fill="none" stroke-dasharray="14800" stroke-dashoffset="14800">
      <animate attributeName="stroke-dashoffset" values="14800;0" dur="3s" begin="3.5999999999999996s" fill="freeze"/>
    </path>
    
    <!-- Glow effect for the line that also follows the circle -->
    <path d="M 30,160 L 30.024495659832798,160 L 30.0567145306297,160 L 31.54191846180875,160 L 31.57406565547374,160 L 31.602790266089666,160 L 33.097025515890316,160 L 33.12230962417421,160 L 33.150066593509244,160 L 34.64304749350134,160 L 34.667847781144786,160 L 34.69291685803292,160 L 34.73264390839818,160 L 36.19686435920839,160 L 36.22302651235827,160 L 36.25022798392095,160 L 37.744033170930095,160 L 37.77012364694805,160 L 37.79863322616823,160 L 39.291470771896485,160 L 39.31548261108884,160 L 39.342881194764296,160 L 40.83514532343722,160 L 40.863995369034,160 L 42.39424837762318,160 L 42.411773436377004,160 L 42.43958416356098,160 L 43.93476913535954,160 L 43.95944398802213,160 L 43.98994260765301,160 L 45.48261887983446,160 L 45.50670239615873,160 L 45.53377843274056,160 L 47.03355074098183,160 L 47.059390347038075,160 L 47.0917704913818,160 L 48.58338952586746,160 L 48.6112360916174,160 L 48.637935823256655,160 L 50.13419595203398,160 L 50.15132678656225,160 L 50.18033810570585,160 L 51.677046216557656,160 L 51.69944532028187,160 L 51.72514157207428,160 L 53.22494971888151,160 L 53.245825683552475,160 L 53.277489056577025,160 L 54.772494835545785,160 L 54.79539567919342,160 L 54.825249204637046,160 L 56.31776420327167,160 L 56.33982284061928,160 L 56.37231050066087,160 L 57.86502261140828,160 L 57.897402755752,160 L 57.93046383284893,160 L 59.418499010738714,160 L 59.44227789925234,160 L 59.472185182544905,160 L 60.96633083593066,160 L 60.98976925806767,160 L 61.01967654136024,160 L 62.5152915759503,160 L 62.54607690410886,160 L 62.58245304855697,160 L 64.0639297688763,160 L 64.08629303403455,160 L 64.11489220966963,160 L 65.61380439232789,160 L 65.63278091300305,160 L 65.66272403486158,160 L 67.15694136537925,160 L 67.17926879197154,160 L 67.20777837119172,160 L 67.2467886502378,160 L 68.709270930599,160 L 68.7390706981937,160 L 68.76865543439264,160 L 70.2536801727419,160 L 70.28097124071948,160 L 70.30948081993964,160 L 71.8045761953233,160 L 71.81991510155365,160 L 71.8559149410592,160 L 73.3511536707067,160 L 73.37659905253739,160 L 73.39751085577431,160 L 74.90054447351784,160 L 74.92459215127614,160 L 74.95385434038147,160 L 76.44961272923535,160 L 76.47530898102777,160 L 76.50347809387134,160 L 77.99645899386343,160 L 78.01686905717693,160 L 78.04838907593765,160 L 79.5474804514257,160 L 79.56952116949032,160 L 79.60043193262973,160 L 81.09461342458144,160 L 81.12029175709088,160 L 81.15122043951327,160 L 82.64194350984997,160 L 82.66672587821043,160 L 82.68527233609407,160 L 84.18714120044393,160 L 84.22219131795157,160 L 84.24586269076732,160 L 85.73871815577857,160 L 85.76278375281984,160 L 87.31281964981827,160 L 87.33923267292985,160 L 88.83162223658363,160 L 88.85484562732488,160 L 88.88249508096206,160 L 90.38330670761613,160 L 90.41219259177888,160 L 90.43975244900113,160 L 91.93155067631659,160 L 91.96124292821341,160 L 91.99021840879105,160 L 93.482446698898,160 L 93.51014991038411,160 L 93.53398255674668,160 L 95.02630044326852,160 L 95.0546308296589,94.78026905829597 L 95.08371382593442,94.78026905829597 L 96.60289271764236,94.78026905829597 L 96.62880400083051,94.78026905829597 L 98.11825480207568,94.78026905829597 L 98.14610136782562,94.78026905829597 L 98.16475534140714,94.78026905829597 L 99.67033349733373,94.78026905829597 L 99.69805462810281,94.78026905829597 L 99.72636709521022,94.78026905829597 L 101.2156207843426,94.78026905829597 L 101.2444529106564,94.78026905829597 L 101.2798972523896,94.78026905829597 L 102.77020817921776,94.78026905829597 L 102.80045592888693,94.78026905829597 L 102.82197698774516,94.78026905829597 L 104.31739491022245,94.78026905829597 L 104.34160386152757,94.78026905829597 L 104.37124235557545,94.78026905829597 L 105.868165497823,94.78026905829597 L 105.92303434230584,94.78026905829597 L 107.41210883860843,94.78026905829597 L 107.44178317122226,94.78026905829597 L 107.46912799704879,94.78026905829597 L 108.96201930062598,94.78026905829597 L 108.99009881705464,94.78026905829597 L 109.01941476400889,94.78026905829597 L 110.51087252494773,94.78026905829597 L 110.53950753914877,94.78026905829597 L 110.57172640994567,94.78026905829597 L 112.05838180304605,94.78026905829597 L 112.08852203701734,94.78026905829597 L 112.1194865580057,94.78026905829597 L 113.60927782562746,94.78026905829597 L 113.63884464254342,94.78026905829597 L 113.66703167466997,94.78026905829597 L 115.1596362697195,94.78026905829597 L 115.18090645861601,94.78026905829597 L 115.21034784055111,94.78026905829597 L 116.70241485711125,94.78026905829597 L 116.72977760222075,94.78026905829597 L 116.76149473309424,94.78026905829597 L 118.25133975856492,94.78026905829597 L 118.27854123012762,94.78026905829597 L 118.30848435198615,94.78026905829597 L 119.79970916224626,94.78026905829597 L 119.8254770911706,94.78026905829597 L 119.857247979893,94.78026905829597 L 121.34915372290634,94.78026905829597 L 121.37492165183068,94.78026905829597 L 121.39880805604217,94.78026905829597 L 122.90268388008572,94.78026905829597 L 122.92463500173545,94.78026905829597 L 122.95658508328766,94.78026905829597 L 124.44619715807964,94.78026905829597 L 124.47146334708054,94.78026905829597 L 124.49988332988583,94.78026905829597 L 125.99368851689496,94.78026905829597 L 126.01594426635535,94.78026905829597 L 126.0495966797906,94.78026905829597 L 127.5403197501273,94.78026905829597 L 127.5664460647112,94.78026905829597 L 127.5985036619613,94.78026905829597 L 129.08682554837876,94.78026905829597 L 129.1111957732307,94.78026905829597 L 129.14586958579577,94.78026905829597 L 130.63094808199395,94.78026905829597 L 130.66243226218873,94.78026905829597 L 130.6947586486835,94.78026905829597 L 132.18462159343719,94.78026905829597 L 132.20976234745723,94.78026905829597 L 132.23925748724128,94.78026905829597 L 133.73492627968028,94.78026905829597 L 133.76207399339404,94.78026905829597 L 133.79506339335904,94.78026905829597 L 135.28053611378277,94.78026905829597 L 135.31225324465626,94.78026905829597 L 135.34730336216393,94.78026905829597 L 136.83182636058973,94.78026905829597 L 136.85594571547998,94.78026905829597 L 136.88750157280663,94.78026905829597 L 138.381109647703,94.78026905829597 L 138.40352667071022,94.78026905829597 L 138.43515420516877,94.78026905829597 L 139.9259310333544,94.78026905829597 L 139.95065964386595,94.78026905829597 L 139.98162416485428,94.78026905829597 L 141.47473049982722,94.78026905829597 L 141.50281001625592,94.78026905829597 L 143.02542941029589,94.78026905829597 L 143.05123317778617,94.78026905829597 L 143.075692999053,94.78026905829597 L 144.57435431174957,94.78026905829597 L 144.60408240221233,94.78026905829597 L 144.63787816991143,94.78026905829597 L 146.1127426748114,94.78026905829597 L 146.14899338427864,94.78026905829597 L 146.17990414741806,94.78026905829597 L 147.66731215040357,94.78026905829597 L 147.68671873387024,94.78026905829597 L 147.72350702182686,94.78026905829597 L 149.21603993974446,94.78026905829597 L 149.24356395840078,94.78026905829597 L 149.27408049731463,94.78026905829597 L 150.7665596573833,94.78026905829597 L 150.7925605369864,94.78026905829597 L 150.8200845556427,94.78026905829597 L 152.31068219099853,94.78026905829597 L 152.34035652361237,94.78026905829597 L 152.36977998626446,94.78026905829597 L 153.85799435698408,94.78026905829597 L 153.88519582854673,94.78026905829597 L 153.91587364100744,94.78026905829597 L 155.41129156348472,94.78026905829597 L 155.4418797795305,94.78026905829597 L 155.47486917949553,94.78026905829597 L 156.96206215108526,94.78026905829597 L 156.98519594541165,94.78026905829597 L 157.03631965975177,94.78026905829597 L 158.51100497182193,94.78026905829597 L 158.53453299037386,94.78026905829597 L 158.5640998072898,94.78026905829597 L 160.05405234845838,94.78026905829597 L 160.08168388281257,94.78026905829597 L 160.11089231406896,94.78026905829597 L 161.60157954583968,94.78026905829597 L 161.62818968106404,94.78026905829597 L 161.6589033320907,94.78026905829597 L 163.15084491366997,94.78026905829597 L 163.17881691440076,94.78026905829597 L 163.2044056504953,94.78026905829597 L 164.69692064912994,94.78026905829597 L 164.72458802205006,94.78026905829597 L 164.75365309904262,94.78026905829597 L 166.25204562249448,94.78026905829597 L 166.2812002959019,94.78026905829597 L 166.3116809962498,94.78026905829597 L 167.7944120663777,94.78026905829597 L 167.82372801333196,40 L 167.85413703654794,40 L 169.34890986483796,40 L 169.36973207166,40 L 169.3980624580504,40 L 170.89134798585314,40 L 170.91127422852617,40 L 170.94935270485735,40 L 172.44177810707706,40 L 172.47057439482492,40 L 172.4949267003939,40 L 173.98394743884754,40 L 174.01657845315296,40 L 174.0483314225924,40 L 175.5393232821738,40 L 175.55432172202754,40 L 175.5927227454523,40 L 177.08720886521468,40 L 177.11718782563915,40 L 177.1521662660149,40 L 178.63536323750023,40 L 178.66183001846076,40 L 178.6976685844195,40 L 180.18074012092399,40 L 180.21075491991445,40 L 180.24404894769012,40 L 181.73242459195652,40 L 181.75428611719136,40 L 181.7853223153116,40 L 183.27629625561002,40 L 183.30120405895133,40 L 183.33333333333334,40" stroke="#f59e0b" stroke-width="4" fill="none" opacity="0.4" stroke-dasharray="14800" stroke-dashoffset="14800">
      <animate attributeName="stroke-dashoffset" values="14800;0" dur="3s" begin="3.5999999999999996s" fill="freeze"/>
    </path>
    
    <!-- Animated circle that moves along the path and draws the line -->
    <circle r="5" fill="#f59e0b" opacity="0" filter="url(#trailGlow)">
      <animate attributeName="opacity" values="0;1;1;1" dur="3.2s" begin="3.4s" fill="freeze"/>
      <animate attributeName="r" values="5;6;5" dur="1s" begin="3.4s" repeatCount="3"/>
      <animateMotion dur="3s" begin="3.4s" fill="freeze">
        <mpath href="#path_totalContributions_526.6666666666667"/>
      </animateMotion>
    </circle>
    
    <!-- Small trail dots that fade out -->
    <circle r="2" fill="#f59e0b" opacity="0">
      <animate attributeName="opacity" values="0;0.6;0" dur="0.8s" begin="3.8s" fill="freeze"/>
      <animateMotion dur="3s" begin="3.4s" fill="freeze">
        <mpath href="#path_totalContributions_526.6666666666667"/>
      </animateMotion>
    </circle>
    
    <!-- Hidden path for motion animation -->
    <path id="path_totalContributions_526.6666666666667" d="M 30,160 L 30.024495659832798,160 L 30.0567145306297,160 L 31.54191846180875,160 L 31.57406565547374,160 L 31.602790266089666,160 L 33.097025515890316,160 L 33.12230962417421,160 L 33.150066593509244,160 L 34.64304749350134,160 L 34.667847781144786,160 L 34.69291685803292,160 L 34.73264390839818,160 L 36.19686435920839,160 L 36.22302651235827,160 L 36.25022798392095,160 L 37.744033170930095,160 L 37.77012364694805,160 L 37.79863322616823,160 L 39.291470771896485,160 L 39.31548261108884,160 L 39.342881194764296,160 L 40.83514532343722,160 L 40.863995369034,160 L 42.39424837762318,160 L 42.411773436377004,160 L 42.43958416356098,160 L 43.93476913535954,160 L 43.95944398802213,160 L 43.98994260765301,160 L 45.48261887983446,160 L 45.50670239615873,160 L 45.53377843274056,160 L 47.03355074098183,160 L 47.059390347038075,160 L 47.0917704913818,160 L 48.58338952586746,160 L 48.6112360916174,160 L 48.637935823256655,160 L 50.13419595203398,160 L 50.15132678656225,160 L 50.18033810570585,160 L 51.677046216557656,160 L 51.69944532028187,160 L 51.72514157207428,160 L 53.22494971888151,160 L 53.245825683552475,160 L 53.277489056577025,160 L 54.772494835545785,160 L 54.79539567919342,160 L 54.825249204637046,160 L 56.31776420327167,160 L 56.33982284061928,160 L 56.37231050066087,160 L 57.86502261140828,160 L 57.897402755752,160 L 57.93046383284893,160 L 59.418499010738714,160 L 59.44227789925234,160 L 59.472185182544905,160 L 60.96633083593066,160 L 60.98976925806767,160 L 61.01967654136024,160 L 62.5152915759503,160 L 62.54607690410886,160 L 62.58245304855697,160 L 64.0639297688763,160 L 64.08629303403455,160 L 64.11489220966963,160 L 65.61380439232789,160 L 65.63278091300305,160 L 65.66272403486158,160 L 67.15694136537925,160 L 67.17926879197154,160 L 67.20777837119172,160 L 67.2467886502378,160 L 68.709270930599,160 L 68.7390706981937,160 L 68.76865543439264,160 L 70.2536801727419,160 L 70.28097124071948,160 L 70.30948081993964,160 L 71.8045761953233,160 L 71.81991510155365,160 L 71.8559149410592,160 L 73.3511536707067,160 L 73.37659905253739,160 L 73.39751085577431,160 L 74.90054447351784,160 L 74.92459215127614,160 L 74.95385434038147,160 L 76.44961272923535,160 L 76.47530898102777,160 L 76.50347809387134,160 L 77.99645899386343,160 L 78.01686905717693,160 L 78.04838907593765,160 L 79.5474804514257,160 L 79.56952116949032,160 L 79.60043193262973,160 L 81.09461342458144,160 L 81.12029175709088,160 L 81.15122043951327,160 L 82.64194350984997,160 L 82.66672587821043,160 L 82.68527233609407,160 L 84.18714120044393,160 L 84.22219131795157,160 L 84.24586269076732,160 L 85.73871815577857,160 L 85.76278375281984,160 L 87.31281964981827,160 L 87.33923267292985,160 L 88.83162223658363,160 L 88.85484562732488,160 L 88.88249508096206,160 L 90.38330670761613,160 L 90.41219259177888,160 L 90.43975244900113,160 L 91.93155067631659,160 L 91.96124292821341,160 L 91.99021840879105,160 L 93.482446698898,160 L 93.51014991038411,160 L 93.53398255674668,160 L 95.02630044326852,160 L 95.0546308296589,94.78026905829597 L 95.08371382593442,94.78026905829597 L 96.60289271764236,94.78026905829597 L 96.62880400083051,94.78026905829597 L 98.11825480207568,94.78026905829597 L 98.14610136782562,94.78026905829597 L 98.16475534140714,94.78026905829597 L 99.67033349733373,94.78026905829597 L 99.69805462810281,94.78026905829597 L 99.72636709521022,94.78026905829597 L 101.2156207843426,94.78026905829597 L 101.2444529106564,94.78026905829597 L 101.2798972523896,94.78026905829597 L 102.77020817921776,94.78026905829597 L 102.80045592888693,94.78026905829597 L 102.82197698774516,94.78026905829597 L 104.31739491022245,94.78026905829597 L 104.34160386152757,94.78026905829597 L 104.37124235557545,94.78026905829597 L 105.868165497823,94.78026905829597 L 105.92303434230584,94.78026905829597 L 107.41210883860843,94.78026905829597 L 107.44178317122226,94.78026905829597 L 107.46912799704879,94.78026905829597 L 108.96201930062598,94.78026905829597 L 108.99009881705464,94.78026905829597 L 109.01941476400889,94.78026905829597 L 110.51087252494773,94.78026905829597 L 110.53950753914877,94.78026905829597 L 110.57172640994567,94.78026905829597 L 112.05838180304605,94.78026905829597 L 112.08852203701734,94.78026905829597 L 112.1194865580057,94.78026905829597 L 113.60927782562746,94.78026905829597 L 113.63884464254342,94.78026905829597 L 113.66703167466997,94.78026905829597 L 115.1596362697195,94.78026905829597 L 115.18090645861601,94.78026905829597 L 115.21034784055111,94.78026905829597 L 116.70241485711125,94.78026905829597 L 116.72977760222075,94.78026905829597 L 116.76149473309424,94.78026905829597 L 118.25133975856492,94.78026905829597 L 118.27854123012762,94.78026905829597 L 118.30848435198615,94.78026905829597 L 119.79970916224626,94.78026905829597 L 119.8254770911706,94.78026905829597 L 119.857247979893,94.78026905829597 L 121.34915372290634,94.78026905829597 L 121.37492165183068,94.78026905829597 L 121.39880805604217,94.78026905829597 L 122.90268388008572,94.78026905829597 L 122.92463500173545,94.78026905829597 L 122.95658508328766,94.78026905829597 L 124.44619715807964,94.78026905829597 L 124.47146334708054,94.78026905829597 L 124.49988332988583,94.78026905829597 L 125.99368851689496,94.78026905829597 L 126.01594426635535,94.78026905829597 L 126.0495966797906,94.78026905829597 L 127.5403197501273,94.78026905829597 L 127.5664460647112,94.78026905829597 L 127.5985036619613,94.78026905829597 L 129.08682554837876,94.78026905829597 L 129.1111957732307,94.78026905829597 L 129.14586958579577,94.78026905829597 L 130.63094808199395,94.78026905829597 L 130.66243226218873,94.78026905829597 L 130.6947586486835,94.78026905829597 L 132.18462159343719,94.78026905829597 L 132.20976234745723,94.78026905829597 L 132.23925748724128,94.78026905829597 L 133.73492627968028,94.78026905829597 L 133.76207399339404,94.78026905829597 L 133.79506339335904,94.78026905829597 L 135.28053611378277,94.78026905829597 L 135.31225324465626,94.78026905829597 L 135.34730336216393,94.78026905829597 L 136.83182636058973,94.78026905829597 L 136.85594571547998,94.78026905829597 L 136.88750157280663,94.78026905829597 L 138.381109647703,94.78026905829597 L 138.40352667071022,94.78026905829597 L 138.43515420516877,94.78026905829597 L 139.9259310333544,94.78026905829597 L 139.95065964386595,94.78026905829597 L 139.98162416485428,94.78026905829597 L 141.47473049982722,94.78026905829597 L 141.50281001625592,94.78026905829597 L 143.02542941029589,94.78026905829597 L 143.05123317778617,94.78026905829597 L 143.075692999053,94.78026905829597 L 144.57435431174957,94.78026905829597 L 144.60408240221233,94.78026905829597 L 144.63787816991143,94.78026905829597 L 146.1127426748114,94.78026905829597 L 146.14899338427864,94.78026905829597 L 146.17990414741806,94.78026905829597 L 147.66731215040357,94.78026905829597 L 147.68671873387024,94.78026905829597 L 147.72350702182686,94.78026905829597 L 149.21603993974446,94.78026905829597 L 149.24356395840078,94.78026905829597 L 149.27408049731463,94.78026905829597 L 150.7665596573833,94.78026905829597 L 150.7925605369864,94.78026905829597 L 150.8200845556427,94.78026905829597 L 152.31068219099853,94.78026905829597 L 152.34035652361237,94.78026905829597 L 152.36977998626446,94.78026905829597 L 153.85799435698408,94.78026905829597 L 153.88519582854673,94.78026905829597 L 153.91587364100744,94.78026905829597 L 155.41129156348472,94.78026905829597 L 155.4418797795305,94.78026905829597 L 155.47486917949553,94.78026905829597 L 156.96206215108526,94.78026905829597 L 156.98519594541165,94.78026905829597 L 157.03631965975177,94.78026905829597 L 158.51100497182193,94.78026905829597 L 158.53453299037386,94.78026905829597 L 158.5640998072898,94.78026905829597 L 160.05405234845838,94.78026905829597 L 160.08168388281257,94.78026905829597 L 160.11089231406896,94.78026905829597 L 161.60157954583968,94.78026905829597 L 161.62818968106404,94.78026905829597 L 161.6589033320907,94.78026905829597 L 163.15084491366997,94.78026905829597 L 163.17881691440076,94.78026905829597 L 163.2044056504953,94.78026905829597 L 164.69692064912994,94.78026905829597 L 164.72458802205006,94.78026905829597 L 164.75365309904262,94.78026905829597 L 166.25204562249448,94.78026905829597 L 166.2812002959019,94.78026905829597 L 166.3116809962498,94.78026905829597 L 167.7944120663777,94.78026905829597 L 167.82372801333196,40 L 167.85413703654794,40 L 169.34890986483796,40 L 169.36973207166,40 L 169.3980624580504,40 L 170.89134798585314,40 L 170.91127422852617,40 L 170.94935270485735,40 L 172.44177810707706,40 L 172.47057439482492,40 L 172.4949267003939,40 L 173.98394743884754,40 L 174.01657845315296,40 L 174.0483314225924,40 L 175.5393232821738,40 L 175.55432172202754,40 L 175.5927227454523,40 L 177.08720886521468,40 L 177.11718782563915,40 L 177.1521662660149,40 L 178.63536323750023,40 L 178.66183001846076,40 L 178.6976685844195,40 L 180.18074012092399,40 L 180.21075491991445,40 L 180.24404894769012,40 L 181.73242459195652,40 L 181.75428611719136,40 L 181.7853223153116,40 L 183.27629625561002,40 L 183.30120405895133,40 L 183.33333333333334,40" fill="none" stroke="none"/>
  </g>
  
  <!-- Footer -->
  <text x="400" y="580" text-anchor="middle" fill="#64748b" font-size="12" font-family="Arial, sans-serif">
    Generated by GitHub User Rank Tracker • 12/18/2025
    <animate attributeName="opacity" values="0;1" dur="0.5s" begin="5s" fill="freeze"/>
  </text>
</svg>