<svg width="800" height="600" xmlns="http://www.w3.org/2000/svg">
  <defs>
    <linearGradient id="bgGradient" x1="0%" y1="0%" x2="100%" y2="100%">
      <stop offset="0%" style="stop-color:#f8fafc;stop-opacity:1" />
      <stop offset="100%" style="stop-color:#e2e8f0;stop-opacity:1" />
    </linearGradient>
    <filter id="shadow" x="-20%" y="-20%" width="140%" height="140%">
      <feDropShadow dx="2" dy="2" stdDeviation="3" flood-color="#00000020" flood-opacity="0.1"/>
    </filter>
    <!-- Trail effect filter -->
    <filter id="trailGlow" x="-50%" y="-50%" width="200%" height="200%">
      <feGaussianBlur stdDeviation="3" result="coloredBlur"/>
      <feMerge> 
        <feMergeNode in="coloredBlur"/>
        <feMergeNode in="SourceGraphic"/>
      </feMerge>
    </filter>
  </defs>
  
  <!-- Background -->
  <rect width="800" height="600" fill="url(#bgGradient)" rx="12"/>
  
  <!-- Header -->
  <text x="400" y="40" text-anchor="middle" fill="#0f172a" font-size="24" font-weight="bold" font-family="Arial, sans-serif">
    GitHub Progress Report
    <animate attributeName="opacity" values="0;1" dur="0.8s" begin="0s" fill="freeze"/>
    <animateTransform attributeName="transform" type="translate" values="0,-20;0,0" dur="0.8s" begin="0s" fill="freeze"/>
  </text>
  
  <!-- User Info -->
  <text x="400" y="70" text-anchor="middle" fill="#475569" font-size="16" font-family="Arial, sans-serif">
    @maifeeulasad • BANGLADESH • 100 days analyzed
    <animate attributeName="opacity" values="0;1" dur="0.6s" begin="0.3s" fill="freeze"/>
  </text>
  
  <!-- Progress Cards -->
  <!-- Followers Card -->
  <g transform="translate(60, 100)">
    <rect width="206.66666666666666" height="120" fill="#ffffff" stroke="#e2e8f0" stroke-width="1" rx="8" filter="url(#shadow)">
      <animate attributeName="opacity" values="0;1" dur="0.6s" begin="0.2s" fill="freeze"/>
      <animateTransform attributeName="transform" type="scale" values="0.8;1" dur="0.6s" begin="0.2s" fill="freeze"/>
    </rect>
    <text x="103.33333333333333" y="25" text-anchor="middle" fill="#64748b" font-size="14" font-weight="bold" font-family="Arial, sans-serif">FOLLOWERS
      <animate attributeName="opacity" values="0;1" dur="0.5s" begin="0.4s" fill="freeze"/>
    </text>
    
    <text x="103.33333333333333" y="50" text-anchor="middle" fill="#22c55e" font-size="32" font-weight="bold" font-family="Arial, sans-serif">
      ↗
      <animate attributeName="opacity" values="0;1" dur="0.5s" begin="0.6s" fill="freeze"/>
      <animateTransform attributeName="transform" type="scale" values="0;1.2;1" dur="0.8s" begin="0.6s" fill="freeze"/>
    </text>
    
    <text x="103.33333333333333" y="75" text-anchor="middle" fill="#1e293b" font-size="18" font-weight="bold" font-family="Arial, sans-serif">
      +6
      <animate attributeName="opacity" values="0;1" dur="0.5s" begin="0.8s" fill="freeze"/>
    </text>
    
    <text x="103.33333333333333" y="95" text-anchor="middle" fill="#64748b" font-size="12" font-family="Arial, sans-serif">
      #464 → #458
      <animate attributeName="opacity" values="0;1" dur="0.5s" begin="1s" fill="freeze"/>
    </text>
  </g>
  
  <!-- Public Contributions Card -->
  <g transform="translate(296.66666666666663, 100)">
    <rect width="206.66666666666666" height="120" fill="#ffffff" stroke="#e2e8f0" stroke-width="1" rx="8" filter="url(#shadow)">
      <animate attributeName="opacity" values="0;1" dur="0.6s" begin="0.4s" fill="freeze"/>
      <animateTransform attributeName="transform" type="scale" values="0.8;1" dur="0.6s" begin="0.4s" fill="freeze"/>
    </rect>
    <text x="103.33333333333333" y="25" text-anchor="middle" fill="#64748b" font-size="14" font-weight="bold" font-family="Arial, sans-serif">PUBLIC
      <animate attributeName="opacity" values="0;1" dur="0.5s" begin="0.6s" fill="freeze"/>
    </text>
    
    <text x="103.33333333333333" y="50" text-anchor="middle" fill="#22c55e" font-size="32" font-weight="bold" font-family="Arial, sans-serif">
      ↗
      <animate attributeName="opacity" values="0;1" dur="0.5s" begin="0.8s" fill="freeze"/>
      <animateTransform attributeName="transform" type="scale" values="0;1.2;1" dur="0.8s" begin="0.8s" fill="freeze"/>
    </text>
    
    <text x="103.33333333333333" y="75" text-anchor="middle" fill="#1e293b" font-size="18" font-weight="bold" font-family="Arial, sans-serif">
      +12
      <animate attributeName="opacity" values="0;1" dur="0.5s" begin="1s" fill="freeze"/>
    </text>
    
    <text x="103.33333333333333" y="95" text-anchor="middle" fill="#64748b" font-size="12" font-family="Arial, sans-serif">
      #18 → #6
      <animate attributeName="opacity" values="0;1" dur="0.5s" begin="1.2s" fill="freeze"/>
    </text>
  </g>
  
  <!-- Total Contributions Card -->
  <g transform="translate(533.3333333333333, 100)">
    <rect width="206.66666666666666" height="120" fill="#ffffff" stroke="#e2e8f0" stroke-width="1" rx="8" filter="url(#shadow)">
      <animate attributeName="opacity" values="0;1" dur="0.6s" begin="0.6s" fill="freeze"/>
      <animateTransform attributeName="transform" type="scale" values="0.8;1" dur="0.6s" begin="0.6s" fill="freeze"/>
    </rect>
    <text x="103.33333333333333" y="25" text-anchor="middle" fill="#64748b" font-size="14" font-weight="bold" font-family="Arial, sans-serif">TOTAL
      <animate attributeName="opacity" values="0;1" dur="0.5s" begin="0.8s" fill="freeze"/>
    </text>
    
    <text x="103.33333333333333" y="50" text-anchor="middle" fill="#22c55e" font-size="32" font-weight="bold" font-family="Arial, sans-serif">
      ↗
      <animate attributeName="opacity" values="0;1" dur="0.5s" begin="1s" fill="freeze"/>
      <animateTransform attributeName="transform" type="scale" values="0;1.2;1" dur="0.8s" begin="1s" fill="freeze"/>
    </text>
    
    <text x="103.33333333333333" y="75" text-anchor="middle" fill="#1e293b" font-size="18" font-weight="bold" font-family="Arial, sans-serif">
      +23
      <animate attributeName="opacity" values="0;1" dur="0.5s" begin="1.2s" fill="freeze"/>
    </text>
    
    <text x="103.33333333333333" y="95" text-anchor="middle" fill="#64748b" font-size="12" font-family="Arial, sans-serif">
      #41 → #18
      <animate attributeName="opacity" values="0;1" dur="0.5s" begin="1.4s" fill="freeze"/>
    </text>
  </g>
  
  <!-- Timeline Charts (if we have snapshots) -->
  
  <!-- 👥 Followers Count Chart -->
  <g transform="translate(60, 250)">
    <!-- Chart Background -->
    <rect x="0" y="0" width="213.33333333333334" height="200" fill="#ffffff" stroke="#e2e8f0" stroke-width="1" rx="8" filter="url(#shadow)">
      <animate attributeName="opacity" values="0;1" dur="0.5s" begin="1.8s" fill="freeze"/>
    </rect>
    
    <!-- Chart Title -->
    <text x="106.66666666666667" y="25" text-anchor="middle" fill="#1e293b" font-size="14" font-weight="bold" font-family="Arial, sans-serif">
      👥 Followers Count
      <animate attributeName="opacity" values="0;1" dur="0.5s" begin="2s" fill="freeze"/>
    </text>
    
    <!-- Y-axis labels -->
    <text x="10" y="45" fill="#64748b" font-size="10" font-family="Arial, sans-serif">149
      <animate attributeName="opacity" values="0;1" dur="0.5s" begin="2.2s" fill="freeze"/>
    </text>
    <text x="10" y="185" fill="#64748b" font-size="10" font-family="Arial, sans-serif">142
      <animate attributeName="opacity" values="0;1" dur="0.5s" begin="2.2s" fill="freeze"/>
    </text>
    
    <!-- Chart Line with draw animation that follows the circle -->
    <path d="M 30,160 L 31.46597715148526,160 L 31.495758861214217,160 L 31.528469046572063,160 L 33.0001434142808,160 L 33.02708539006659,160 L 33.06252881934473,160 L 34.53441616709921,160 L 34.563203969948056,160 L 34.59271945461984,160 L 36.069292363380534,160 L 36.09406904203466,160 L 36.126140287255296,160 L 37.59799213833548,160 L 37.62159742673805,160 L 37.6491605943239,160 L 39.13457217498271,160 L 39.16169163413994,160 L 39.197614268520994,160 L 40.6672120807838,160 L 40.69491723506681,160 L 40.7288343073505,160 L 42.19514867724151,160 L 42.220546547695704,160 L 42.254073156562214,160 L 43.72533931251662,160 L 43.75776552448015,160 L 43.790138491432245,160 L 45.26486557312988,160 L 45.290582913652685,160 L 45.321553761970335,160 L 46.79951104102833,160 L 46.82526387822542,160 L 46.85635896490309,160 L 48.329701676303436,160 L 48.35905742594092,160 L 48.38999277758428,160 L 49.86809204333943,160 L 49.89602792600533,160 L 49.92916407145465,160 L 51.402560027866436,160 L 51.42811763335493,160 L 51.463987022724545,160 L 52.931508279541404,160 L 52.95679965997273,160 L 52.98711381981603,160 L 54.46466288711969,160 L 54.490202744271045,160 L 54.52106710256582,160 L 55.99980530845819,160 L 56.02106781635765,160 L 56.051541711235245,160 L 57.53313739940792,160 L 57.55794957473634,160 L 57.578519897487155,160 L 59.06453492160888,160 L 59.08817570668573,160 L 59.118081654774706,160 L 60.59413986175821,160 L 60.62968978105921,160 L 60.66190301297701,160 L 62.134127579137235,160 L 62.16053710480868,160 L 62.19147245645205,160 L 63.66790337851559,160 L 63.69372720906125,160 L 63.71866362274968,160 L 65.20302805151695,160 L 65.22517797627364,160 L 65.25096631014502,160 L 66.73222477991195,160 L 66.75748066366897,160 L 66.78591349977492,160 L 68.26814812808482,160 L 68.29015606614435,160 L 68.3206477093591,160 L 69.79067148171337,160 L 69.82394961385984,160 L 69.8546009921089,160 L 71.33545125012148,160 L 71.36391958290173,160 L 71.39284937244773,160 L 72.86977724795133,160 L 72.89943471932028,160 L 72.93280159315248,160 L 74.3983705328834,160 L 74.42327144989756,160 L 74.45177527935208,160 L 75.9321995772732,160 L 75.95072884125236,160 L 75.98333253658733,160 L 77.46673855514878,160 L 77.48911920828834,160 L 77.51955760649167,160 L 79.00184547981299,160 L 79.02426162962685,160 L 79.05090188368118,160 L 80.53272830023674,142.85714285714286 L 80.55546392011922,142.85714285714286 L 80.58464218638525,142.85714285714286 L 82.0676577415295,142.85714285714286 L 82.09124528159492,142.85714285714286 L 82.12413295032422,142.85714285714286 L 83.59234639228973,142.85714285714286 L 83.62535829937903,142.85714285714286 L 83.6576780213197,142.85714285714286 L 85.13520934028621,142.85714285714286 L 85.15254946567666,142.85714285714286 L 85.18211819535989,142.85714285714286 L 86.66589692900138,142.85714285714286 L 86.69015890587829,142.85714285714286 L 86.72207041606462,142.85714285714286 L 88.19310584363615,142.85714285714286 L 88.2249463604739,142.85714285714286 L 88.253396944917,142.85714285714286 L 89.7333775344095,142.85714285714286 L 89.7584204381208,142.85714285714286 L 89.78591261235806,142.85714285714286 L 91.26465081825043,142.85714285714286 L 91.28921451685882,142.85714285714286 L 91.31404444052438,142.85714285714286 L 91.35339250397438,142.85714285714286 L 92.80364462874935,142.85714285714286 L 92.82955720098074,142.85714285714286 L 92.85649917676653,142.85714285714286 L 94.33605380616756,142.85714285714286 L 94.36189538505037,142.85714285714286 L 94.39013298944774,142.85714285714286 L 95.86872920864293,142.85714285714286 L 95.89251198041696,142.85714285714286 L 95.91964918791133,142.85714285714286 L 97.39767746031791,142.85714285714286 L 97.42625228312102,142.85714285714286 L 98.94190703027454,142.85714285714286 L 98.95926490400214,142.85714285714286 L 98.98681032325085,142.85714285714286 L 100.46773157461203,142.85714285714286 L 100.4921710348604,142.85714285714286 L 100.52237870468083,142.85714285714286 L 102.00081518884173,142.85714285714286 L 102.02466895396432,142.85714285714286 L 102.0514866913901,142.85714285714286 L 103.53695151706034,142.85714285714286 L 103.56254461922313,142.85714285714286 L 103.59461586444377,142.85714285714286 L 105.07200519671312,142.85714285714286 L 105.09958611263612,142.85714285714286 L 105.12603113498186,142.85714285714286 L 106.60801728657171,142.85714285714286 L 106.62498469688214,142.85714285714286 L 106.65371925471955,142.85714285714286 L 108.13614911473802,142.85714285714286 L 108.15833453616901,142.85714285714286 L 108.18378565163464,142.85714285714286 L 109.66928597397917,142.85714285714286 L 109.68996278675284,142.85714285714286 L 109.72132409848768,142.85714285714286 L 111.20206786647742,142.85714285714286 L 111.22475024134845,142.85714285714286 L 111.25431897103167,142.85714285714286 L 112.73259572015827,142.85714285714286 L 112.7544439231835,142.85714285714286 L 112.78662165842701,142.85714285714286 L 114.2650936392622,142.85714285714286 L 114.29716488448283,142.85714285714286 L 114.32991056651495,142.85714285714286 L 115.80375023135537,142.85714285714286 L 115.8273022747465,142.85714285714286 L 115.85692424944115,142.85714285714286 L 117.33681609724793,142.85714285714286 L 117.36003092223332,142.85714285714286 L 117.38965289692797,142.85714285714286 L 118.87100010838061,142.85714285714286 L 118.90149175159536,142.85714285714286 L 118.93752087599928,142.85714285714286 L 120.40486464944469,142.85714285714286 L 120.4270145742014,142.85714285714286 L 120.45534092028447,142.85714285714286 L 121.93995382577177,142.85714285714286 L 121.95874931480809,142.85714285714286 L 121.98840678617704,142.85714285714286 L 123.46836962733238,142.85714285714286 L 123.4904840554148,142.85714285714286 L 123.51872165981216,142.85714285714286 L 123.55735978977634,142.85714285714286 L 125.00589032584828,142.85714285714286 L 125.03540581052007,142.85714285714286 L 125.06470831514612,142.85714285714286 L 126.5355662593462,142.85714285714286 L 126.56259697681772,142.85714285714286 L 126.59083458121506,142.85714285714286 L 128.07166709089051,142.85714285714286 L 128.08685966748646,142.85714285714286 L 128.1225160768103,142.85714285714286 L 129.60349057318294,142.85714285714286 L 129.62869321192852,142.85714285714286 L 129.6494055213765,142.85714285714286 L 131.1381005444071,142.85714285714286 L 131.1619188128554,142.85714285714286 L 131.19090184741285,142.85714285714286 L 132.67239104556265,142.85714285714286 L 132.6978421610283,142.85714285714286 L 132.72574254701988,142.85714285714286 L 134.20448075291225,142.85714285714286 L 134.22469610892017,142.85714285714286 L 134.25591543395785,142.85714285714286 L 135.74070582281658,142.85714285714286 L 135.7625362775047,142.85714285714286 L 135.79315215907943,142.85714285714286 L 137.2730795035605,142.85714285714286 L 137.29851287068897,142.85714285714286 L 137.32914650060087,142.85714285714286 L 138.805648416013,142.85714285714286 L 138.83019436628427,142.85714285714286 L 138.84856389522912,142.85714285714286 L 140.33610527634528,142.85714285714286 L 140.3708210238005,142.85714285714286 L 140.39426657716876,142.85714285714286 L 141.8728805447011,142.85714285714286 L 141.89671656148656,142.85714285714286 L 143.43196547284793,142.85714285714286 L 143.45812652179933,142.85714285714286 L 144.93627903256595,142.85714285714286 L 144.9592808775056,142.85714285714286 L 144.98666656171997,142.85714285714286 L 146.47316079094463,142.85714285714286 L 146.50177111042203,142.85714285714286 L 146.5290680529507,142.85714285714286 L 148.0066348685915,142.85714285714286 L 148.03604386324042,142.85714285714286 L 148.06474292440356,142.85714285714286 L 149.54273570013584,142.85714285714286 L 149.57017462936167,142.85714285714286 L 149.59377991776427,142.85714285714286 L 151.07186143518226,142.85714285714286 L 151.09992155620816,40 L 151.12872710739416,40 L 152.6334133821922,40 L 152.6590774777036,40 L 154.1343192611784,40 L 154.16190017710142,40 L 154.18037619606912,40 L 155.6715914829743,40 L 155.69904816053727,40 L 155.72709053322603,40 L 157.20213708499227,40 L 157.23069415945824,40 L 157.26580037033062,40 L 158.74189407398842,40 L 158.77185326708883,40 L 158.79316901999974,40 L 160.2743209997438,40 L 160.2982990032264,40 L 160.32765475286385,40 L 161.8102975929281,40 L 161.86464300126542,40 L 163.33951206966023,40 L 163.368903315972,40 L 163.39598727845495,40 L 164.87463674266158,40 L 164.90244838696748,40 L 164.93148466653633,40 L 166.4087142637714,40 L 166.43707610652876,40 L 166.4689876167151,40 L 167.94146065959535,40 L 167.9713133626729,40 L 168.0019824892591,40 L 169.47756149113968,40 L 169.50684624742857,40 L 169.53476438175733,40 L 171.01312987256966,40 L 171.0341971487605,40 L 171.0633576666894,40 L 172.5411907073874,40 L 172.56829241820748,40 L 172.59970697495373,40 L 174.07533922184578,40 L 174.10228119763156,40 L 174.1319386690005,40 L 175.60893753785268,40 L 175.63445964666687,40 L 175.66592744842458,40 L 177.14360075408825,40 L 177.16912286290247,40 L 177.1927813963165,40 L 178.68231059119287,40 L 178.70405230419524,40 L 178.7356975893244,40 L 180.21109910783355,40 L 180.2361242632077,40 L 180.26427312591932,40 L 181.74382775532035,40 L 181.76587119005418,40 L 181.7992025672121,40 L 183.2757044826242,40 L 183.3015815581813,40 L 183.33333333333334,40" stroke="#22c55e" stroke-width="2" fill="none" stroke-dasharray="14900" stroke-dashoffset="14900">
      <animate attributeName="stroke-dashoffset" values="14900;0" dur="3s" begin="2.6s" fill="freeze"/>
    </path>
    
    <!-- Glow effect for the line that also follows the circle -->
    <path d="M 30,160 L 31.46597715148526,160 L 31.495758861214217,160 L 31.528469046572063,160 L 33.0001434142808,160 L 33.02708539006659,160 L 33.06252881934473,160 L 34.53441616709921,160 L 34.563203969948056,160 L 34.59271945461984,160 L 36.069292363380534,160 L 36.09406904203466,160 L 36.126140287255296,160 L 37.59799213833548,160 L 37.62159742673805,160 L 37.6491605943239,160 L 39.13457217498271,160 L 39.16169163413994,160 L 39.197614268520994,160 L 40.6672120807838,160 L 40.69491723506681,160 L 40.7288343073505,160 L 42.19514867724151,160 L 42.220546547695704,160 L 42.254073156562214,160 L 43.72533931251662,160 L 43.75776552448015,160 L 43.790138491432245,160 L 45.26486557312988,160 L 45.290582913652685,160 L 45.321553761970335,160 L 46.79951104102833,160 L 46.82526387822542,160 L 46.85635896490309,160 L 48.329701676303436,160 L 48.35905742594092,160 L 48.38999277758428,160 L 49.86809204333943,160 L 49.89602792600533,160 L 49.92916407145465,160 L 51.402560027866436,160 L 51.42811763335493,160 L 51.463987022724545,160 L 52.931508279541404,160 L 52.95679965997273,160 L 52.98711381981603,160 L 54.46466288711969,160 L 54.490202744271045,160 L 54.52106710256582,160 L 55.99980530845819,160 L 56.02106781635765,160 L 56.051541711235245,160 L 57.53313739940792,160 L 57.55794957473634,160 L 57.578519897487155,160 L 59.06453492160888,160 L 59.08817570668573,160 L 59.118081654774706,160 L 60.59413986175821,160 L 60.62968978105921,160 L 60.66190301297701,160 L 62.134127579137235,160 L 62.16053710480868,160 L 62.19147245645205,160 L 63.66790337851559,160 L 63.69372720906125,160 L 63.71866362274968,160 L 65.20302805151695,160 L 65.22517797627364,160 L 65.25096631014502,160 L 66.73222477991195,160 L 66.75748066366897,160 L 66.78591349977492,160 L 68.26814812808482,160 L 68.29015606614435,160 L 68.3206477093591,160 L 69.79067148171337,160 L 69.82394961385984,160 L 69.8546009921089,160 L 71.33545125012148,160 L 71.36391958290173,160 L 71.39284937244773,160 L 72.86977724795133,160 L 72.89943471932028,160 L 72.93280159315248,160 L 74.3983705328834,160 L 74.42327144989756,160 L 74.45177527935208,160 L 75.9321995772732,160 L 75.95072884125236,160 L 75.98333253658733,160 L 77.46673855514878,160 L 77.48911920828834,160 L 77.51955760649167,160 L 79.00184547981299,160 L 79.02426162962685,160 L 79.05090188368118,160 L 80.53272830023674,142.85714285714286 L 80.55546392011922,142.85714285714286 L 80.58464218638525,142.85714285714286 L 82.0676577415295,142.85714285714286 L 82.09124528159492,142.85714285714286 L 82.12413295032422,142.85714285714286 L 83.59234639228973,142.85714285714286 L 83.62535829937903,142.85714285714286 L 83.6576780213197,142.85714285714286 L 85.13520934028621,142.85714285714286 L 85.15254946567666,142.85714285714286 L 85.18211819535989,142.85714285714286 L 86.66589692900138,142.85714285714286 L 86.69015890587829,142.85714285714286 L 86.72207041606462,142.85714285714286 L 88.19310584363615,142.85714285714286 L 88.2249463604739,142.85714285714286 L 88.253396944917,142.85714285714286 L 89.7333775344095,142.85714285714286 L 89.7584204381208,142.85714285714286 L 89.78591261235806,142.85714285714286 L 91.26465081825043,142.85714285714286 L 91.28921451685882,142.85714285714286 L 91.31404444052438,142.85714285714286 L 91.35339250397438,142.85714285714286 L 92.80364462874935,142.85714285714286 L 92.82955720098074,142.85714285714286 L 92.85649917676653,142.85714285714286 L 94.33605380616756,142.85714285714286 L 94.36189538505037,142.85714285714286 L 94.39013298944774,142.85714285714286 L 95.86872920864293,142.85714285714286 L 95.89251198041696,142.85714285714286 L 95.91964918791133,142.85714285714286 L 97.39767746031791,142.85714285714286 L 97.42625228312102,142.85714285714286 L 98.94190703027454,142.85714285714286 L 98.95926490400214,142.85714285714286 L 98.98681032325085,142.85714285714286 L 100.46773157461203,142.85714285714286 L 100.4921710348604,142.85714285714286 L 100.52237870468083,142.85714285714286 L 102.00081518884173,142.85714285714286 L 102.02466895396432,142.85714285714286 L 102.0514866913901,142.85714285714286 L 103.53695151706034,142.85714285714286 L 103.56254461922313,142.85714285714286 L 103.59461586444377,142.85714285714286 L 105.07200519671312,142.85714285714286 L 105.09958611263612,142.85714285714286 L 105.12603113498186,142.85714285714286 L 106.60801728657171,142.85714285714286 L 106.62498469688214,142.85714285714286 L 106.65371925471955,142.85714285714286 L 108.13614911473802,142.85714285714286 L 108.15833453616901,142.85714285714286 L 108.18378565163464,142.85714285714286 L 109.66928597397917,142.85714285714286 L 109.68996278675284,142.85714285714286 L 109.72132409848768,142.85714285714286 L 111.20206786647742,142.85714285714286 L 111.22475024134845,142.85714285714286 L 111.25431897103167,142.85714285714286 L 112.73259572015827,142.85714285714286 L 112.7544439231835,142.85714285714286 L 112.78662165842701,142.85714285714286 L 114.2650936392622,142.85714285714286 L 114.29716488448283,142.85714285714286 L 114.32991056651495,142.85714285714286 L 115.80375023135537,142.85714285714286 L 115.8273022747465,142.85714285714286 L 115.85692424944115,142.85714285714286 L 117.33681609724793,142.85714285714286 L 117.36003092223332,142.85714285714286 L 117.38965289692797,142.85714285714286 L 118.87100010838061,142.85714285714286 L 118.90149175159536,142.85714285714286 L 118.93752087599928,142.85714285714286 L 120.40486464944469,142.85714285714286 L 120.4270145742014,142.85714285714286 L 120.45534092028447,142.85714285714286 L 121.93995382577177,142.85714285714286 L 121.95874931480809,142.85714285714286 L 121.98840678617704,142.85714285714286 L 123.46836962733238,142.85714285714286 L 123.4904840554148,142.85714285714286 L 123.51872165981216,142.85714285714286 L 123.55735978977634,142.85714285714286 L 125.00589032584828,142.85714285714286 L 125.03540581052007,142.85714285714286 L 125.06470831514612,142.85714285714286 L 126.5355662593462,142.85714285714286 L 126.56259697681772,142.85714285714286 L 126.59083458121506,142.85714285714286 L 128.07166709089051,142.85714285714286 L 128.08685966748646,142.85714285714286 L 128.1225160768103,142.85714285714286 L 129.60349057318294,142.85714285714286 L 129.62869321192852,142.85714285714286 L 129.6494055213765,142.85714285714286 L 131.1381005444071,142.85714285714286 L 131.1619188128554,142.85714285714286 L 131.19090184741285,142.85714285714286 L 132.67239104556265,142.85714285714286 L 132.6978421610283,142.85714285714286 L 132.72574254701988,142.85714285714286 L 134.20448075291225,142.85714285714286 L 134.22469610892017,142.85714285714286 L 134.25591543395785,142.85714285714286 L 135.74070582281658,142.85714285714286 L 135.7625362775047,142.85714285714286 L 135.79315215907943,142.85714285714286 L 137.2730795035605,142.85714285714286 L 137.29851287068897,142.85714285714286 L 137.32914650060087,142.85714285714286 L 138.805648416013,142.85714285714286 L 138.83019436628427,142.85714285714286 L 138.84856389522912,142.85714285714286 L 140.33610527634528,142.85714285714286 L 140.3708210238005,142.85714285714286 L 140.39426657716876,142.85714285714286 L 141.8728805447011,142.85714285714286 L 141.89671656148656,142.85714285714286 L 143.43196547284793,142.85714285714286 L 143.45812652179933,142.85714285714286 L 144.93627903256595,142.85714285714286 L 144.9592808775056,142.85714285714286 L 144.98666656171997,142.85714285714286 L 146.47316079094463,142.85714285714286 L 146.50177111042203,142.85714285714286 L 146.5290680529507,142.85714285714286 L 148.0066348685915,142.85714285714286 L 148.03604386324042,142.85714285714286 L 148.06474292440356,142.85714285714286 L 149.54273570013584,142.85714285714286 L 149.57017462936167,142.85714285714286 L 149.59377991776427,142.85714285714286 L 151.07186143518226,142.85714285714286 L 151.09992155620816,40 L 151.12872710739416,40 L 152.6334133821922,40 L 152.6590774777036,40 L 154.1343192611784,40 L 154.16190017710142,40 L 154.18037619606912,40 L 155.6715914829743,40 L 155.69904816053727,40 L 155.72709053322603,40 L 157.20213708499227,40 L 157.23069415945824,40 L 157.26580037033062,40 L 158.74189407398842,40 L 158.77185326708883,40 L 158.79316901999974,40 L 160.2743209997438,40 L 160.2982990032264,40 L 160.32765475286385,40 L 161.8102975929281,40 L 161.86464300126542,40 L 163.33951206966023,40 L 163.368903315972,40 L 163.39598727845495,40 L 164.87463674266158,40 L 164.90244838696748,40 L 164.93148466653633,40 L 166.4087142637714,40 L 166.43707610652876,40 L 166.4689876167151,40 L 167.94146065959535,40 L 167.9713133626729,40 L 168.0019824892591,40 L 169.47756149113968,40 L 169.50684624742857,40 L 169.53476438175733,40 L 171.01312987256966,40 L 171.0341971487605,40 L 171.0633576666894,40 L 172.5411907073874,40 L 172.56829241820748,40 L 172.59970697495373,40 L 174.07533922184578,40 L 174.10228119763156,40 L 174.1319386690005,40 L 175.60893753785268,40 L 175.63445964666687,40 L 175.66592744842458,40 L 177.14360075408825,40 L 177.16912286290247,40 L 177.1927813963165,40 L 178.68231059119287,40 L 178.70405230419524,40 L 178.7356975893244,40 L 180.21109910783355,40 L 180.2361242632077,40 L 180.26427312591932,40 L 181.74382775532035,40 L 181.76587119005418,40 L 181.7992025672121,40 L 183.2757044826242,40 L 183.3015815581813,40 L 183.33333333333334,40" stroke="#22c55e" stroke-width="4" fill="none" opacity="0.4" stroke-dasharray="14900" stroke-dashoffset="14900">
      <animate attributeName="stroke-dashoffset" values="14900;0" dur="3s" begin="2.6s" fill="freeze"/>
    </path>
    
    <!-- Animated circle that moves along the path and draws the line -->
    <circle r="5" fill="#22c55e" opacity="0" filter="url(#trailGlow)">
      <animate attributeName="opacity" values="0;1;1;1" dur="3.2s" begin="2.4s" fill="freeze"/>
      <animate attributeName="r" values="5;6;5" dur="1s" begin="2.4s" repeatCount="3"/>
      <animateMotion dur="3s" begin="2.4s" fill="freeze">
        <mpath href="#path_followersCount_60"/>
      </animateMotion>
    </circle>
    
    <!-- Small trail dots that fade out -->
    <circle r="2" fill="#22c55e" opacity="0">
      <animate attributeName="opacity" values="0;0.6;0" dur="0.8s" begin="2.8s" fill="freeze"/>
      <animateMotion dur="3s" begin="2.4s" fill="freeze">
        <mpath href="#path_followersCount_60"/>
      </animateMotion>
    </circle>
    
    <!-- Hidden path for motion animation -->
    <path id="path_followersCount_60" d="M 30,160 L 31.46597715148526,160 L 31.495758861214217,160 L 31.528469046572063,160 L 33.0001434142808,160 L 33.02708539006659,160 L 33.06252881934473,160 L 34.53441616709921,160 L 34.563203969948056,160 L 34.59271945461984,160 L 36.069292363380534,160 L 36.09406904203466,160 L 36.126140287255296,160 L 37.59799213833548,160 L 37.62159742673805,160 L 37.6491605943239,160 L 39.13457217498271,160 L 39.16169163413994,160 L 39.197614268520994,160 L 40.6672120807838,160 L 40.69491723506681,160 L 40.7288343073505,160 L 42.19514867724151,160 L 42.220546547695704,160 L 42.254073156562214,160 L 43.72533931251662,160 L 43.75776552448015,160 L 43.790138491432245,160 L 45.26486557312988,160 L 45.290582913652685,160 L 45.321553761970335,160 L 46.79951104102833,160 L 46.82526387822542,160 L 46.85635896490309,160 L 48.329701676303436,160 L 48.35905742594092,160 L 48.38999277758428,160 L 49.86809204333943,160 L 49.89602792600533,160 L 49.92916407145465,160 L 51.402560027866436,160 L 51.42811763335493,160 L 51.463987022724545,160 L 52.931508279541404,160 L 52.95679965997273,160 L 52.98711381981603,160 L 54.46466288711969,160 L 54.490202744271045,160 L 54.52106710256582,160 L 55.99980530845819,160 L 56.02106781635765,160 L 56.051541711235245,160 L 57.53313739940792,160 L 57.55794957473634,160 L 57.578519897487155,160 L 59.06453492160888,160 L 59.08817570668573,160 L 59.118081654774706,160 L 60.59413986175821,160 L 60.62968978105921,160 L 60.66190301297701,160 L 62.134127579137235,160 L 62.16053710480868,160 L 62.19147245645205,160 L 63.66790337851559,160 L 63.69372720906125,160 L 63.71866362274968,160 L 65.20302805151695,160 L 65.22517797627364,160 L 65.25096631014502,160 L 66.73222477991195,160 L 66.75748066366897,160 L 66.78591349977492,160 L 68.26814812808482,160 L 68.29015606614435,160 L 68.3206477093591,160 L 69.79067148171337,160 L 69.82394961385984,160 L 69.8546009921089,160 L 71.33545125012148,160 L 71.36391958290173,160 L 71.39284937244773,160 L 72.86977724795133,160 L 72.89943471932028,160 L 72.93280159315248,160 L 74.3983705328834,160 L 74.42327144989756,160 L 74.45177527935208,160 L 75.9321995772732,160 L 75.95072884125236,160 L 75.98333253658733,160 L 77.46673855514878,160 L 77.48911920828834,160 L 77.51955760649167,160 L 79.00184547981299,160 L 79.02426162962685,160 L 79.05090188368118,160 L 80.53272830023674,142.85714285714286 L 80.55546392011922,142.85714285714286 L 80.58464218638525,142.85714285714286 L 82.0676577415295,142.85714285714286 L 82.09124528159492,142.85714285714286 L 82.12413295032422,142.85714285714286 L 83.59234639228973,142.85714285714286 L 83.62535829937903,142.85714285714286 L 83.6576780213197,142.85714285714286 L 85.13520934028621,142.85714285714286 L 85.15254946567666,142.85714285714286 L 85.18211819535989,142.85714285714286 L 86.66589692900138,142.85714285714286 L 86.69015890587829,142.85714285714286 L 86.72207041606462,142.85714285714286 L 88.19310584363615,142.85714285714286 L 88.2249463604739,142.85714285714286 L 88.253396944917,142.85714285714286 L 89.7333775344095,142.85714285714286 L 89.7584204381208,142.85714285714286 L 89.78591261235806,142.85714285714286 L 91.26465081825043,142.85714285714286 L 91.28921451685882,142.85714285714286 L 91.31404444052438,142.85714285714286 L 91.35339250397438,142.85714285714286 L 92.80364462874935,142.85714285714286 L 92.82955720098074,142.85714285714286 L 92.85649917676653,142.85714285714286 L 94.33605380616756,142.85714285714286 L 94.36189538505037,142.85714285714286 L 94.39013298944774,142.85714285714286 L 95.86872920864293,142.85714285714286 L 95.89251198041696,142.85714285714286 L 95.91964918791133,142.85714285714286 L 97.39767746031791,142.85714285714286 L 97.42625228312102,142.85714285714286 L 98.94190703027454,142.85714285714286 L 98.95926490400214,142.85714285714286 L 98.98681032325085,142.85714285714286 L 100.46773157461203,142.85714285714286 L 100.4921710348604,142.85714285714286 L 100.52237870468083,142.85714285714286 L 102.00081518884173,142.85714285714286 L 102.02466895396432,142.85714285714286 L 102.0514866913901,142.85714285714286 L 103.53695151706034,142.85714285714286 L 103.56254461922313,142.85714285714286 L 103.59461586444377,142.85714285714286 L 105.07200519671312,142.85714285714286 L 105.09958611263612,142.85714285714286 L 105.12603113498186,142.85714285714286 L 106.60801728657171,142.85714285714286 L 106.62498469688214,142.85714285714286 L 106.65371925471955,142.85714285714286 L 108.13614911473802,142.85714285714286 L 108.15833453616901,142.85714285714286 L 108.18378565163464,142.85714285714286 L 109.66928597397917,142.85714285714286 L 109.68996278675284,142.85714285714286 L 109.72132409848768,142.85714285714286 L 111.20206786647742,142.85714285714286 L 111.22475024134845,142.85714285714286 L 111.25431897103167,142.85714285714286 L 112.73259572015827,142.85714285714286 L 112.7544439231835,142.85714285714286 L 112.78662165842701,142.85714285714286 L 114.2650936392622,142.85714285714286 L 114.29716488448283,142.85714285714286 L 114.32991056651495,142.85714285714286 L 115.80375023135537,142.85714285714286 L 115.8273022747465,142.85714285714286 L 115.85692424944115,142.85714285714286 L 117.33681609724793,142.85714285714286 L 117.36003092223332,142.85714285714286 L 117.38965289692797,142.85714285714286 L 118.87100010838061,142.85714285714286 L 118.90149175159536,142.85714285714286 L 118.93752087599928,142.85714285714286 L 120.40486464944469,142.85714285714286 L 120.4270145742014,142.85714285714286 L 120.45534092028447,142.85714285714286 L 121.93995382577177,142.85714285714286 L 121.95874931480809,142.85714285714286 L 121.98840678617704,142.85714285714286 L 123.46836962733238,142.85714285714286 L 123.4904840554148,142.85714285714286 L 123.51872165981216,142.85714285714286 L 123.55735978977634,142.85714285714286 L 125.00589032584828,142.85714285714286 L 125.03540581052007,142.85714285714286 L 125.06470831514612,142.85714285714286 L 126.5355662593462,142.85714285714286 L 126.56259697681772,142.85714285714286 L 126.59083458121506,142.85714285714286 L 128.07166709089051,142.85714285714286 L 128.08685966748646,142.85714285714286 L 128.1225160768103,142.85714285714286 L 129.60349057318294,142.85714285714286 L 129.62869321192852,142.85714285714286 L 129.6494055213765,142.85714285714286 L 131.1381005444071,142.85714285714286 L 131.1619188128554,142.85714285714286 L 131.19090184741285,142.85714285714286 L 132.67239104556265,142.85714285714286 L 132.6978421610283,142.85714285714286 L 132.72574254701988,142.85714285714286 L 134.20448075291225,142.85714285714286 L 134.22469610892017,142.85714285714286 L 134.25591543395785,142.85714285714286 L 135.74070582281658,142.85714285714286 L 135.7625362775047,142.85714285714286 L 135.79315215907943,142.85714285714286 L 137.2730795035605,142.85714285714286 L 137.29851287068897,142.85714285714286 L 137.32914650060087,142.85714285714286 L 138.805648416013,142.85714285714286 L 138.83019436628427,142.85714285714286 L 138.84856389522912,142.85714285714286 L 140.33610527634528,142.85714285714286 L 140.3708210238005,142.85714285714286 L 140.39426657716876,142.85714285714286 L 141.8728805447011,142.85714285714286 L 141.89671656148656,142.85714285714286 L 143.43196547284793,142.85714285714286 L 143.45812652179933,142.85714285714286 L 144.93627903256595,142.85714285714286 L 144.9592808775056,142.85714285714286 L 144.98666656171997,142.85714285714286 L 146.47316079094463,142.85714285714286 L 146.50177111042203,142.85714285714286 L 146.5290680529507,142.85714285714286 L 148.0066348685915,142.85714285714286 L 148.03604386324042,142.85714285714286 L 148.06474292440356,142.85714285714286 L 149.54273570013584,142.85714285714286 L 149.57017462936167,142.85714285714286 L 149.59377991776427,142.85714285714286 L 151.07186143518226,142.85714285714286 L 151.09992155620816,40 L 151.12872710739416,40 L 152.6334133821922,40 L 152.6590774777036,40 L 154.1343192611784,40 L 154.16190017710142,40 L 154.18037619606912,40 L 155.6715914829743,40 L 155.69904816053727,40 L 155.72709053322603,40 L 157.20213708499227,40 L 157.23069415945824,40 L 157.26580037033062,40 L 158.74189407398842,40 L 158.77185326708883,40 L 158.79316901999974,40 L 160.2743209997438,40 L 160.2982990032264,40 L 160.32765475286385,40 L 161.8102975929281,40 L 161.86464300126542,40 L 163.33951206966023,40 L 163.368903315972,40 L 163.39598727845495,40 L 164.87463674266158,40 L 164.90244838696748,40 L 164.93148466653633,40 L 166.4087142637714,40 L 166.43707610652876,40 L 166.4689876167151,40 L 167.94146065959535,40 L 167.9713133626729,40 L 168.0019824892591,40 L 169.47756149113968,40 L 169.50684624742857,40 L 169.53476438175733,40 L 171.01312987256966,40 L 171.0341971487605,40 L 171.0633576666894,40 L 172.5411907073874,40 L 172.56829241820748,40 L 172.59970697495373,40 L 174.07533922184578,40 L 174.10228119763156,40 L 174.1319386690005,40 L 175.60893753785268,40 L 175.63445964666687,40 L 175.66592744842458,40 L 177.14360075408825,40 L 177.16912286290247,40 L 177.1927813963165,40 L 178.68231059119287,40 L 178.70405230419524,40 L 178.7356975893244,40 L 180.21109910783355,40 L 180.2361242632077,40 L 180.26427312591932,40 L 181.74382775532035,40 L 181.76587119005418,40 L 181.7992025672121,40 L 183.2757044826242,40 L 183.3015815581813,40 L 183.33333333333334,40" fill="none" stroke="none"/>
  </g>
  <!-- 🔓 Public Contributions Chart -->
  <g transform="translate(293.33333333333337, 250)">
    <!-- Chart Background -->
    <rect x="0" y="0" width="213.33333333333334" height="200" fill="#ffffff" stroke="#e2e8f0" stroke-width="1" rx="8" filter="url(#shadow)">
      <animate attributeName="opacity" values="0;1" dur="0.5s" begin="2.3s" fill="freeze"/>
    </rect>
    
    <!-- Chart Title -->
    <text x="106.66666666666667" y="25" text-anchor="middle" fill="#1e293b" font-size="14" font-weight="bold" font-family="Arial, sans-serif">
      🔓 Public Contributions
      <animate attributeName="opacity" values="0;1" dur="0.5s" begin="2.5s" fill="freeze"/>
    </text>
    
    <!-- Y-axis labels -->
    <text x="10" y="45" fill="#64748b" font-size="10" font-family="Arial, sans-serif">3,180
      <animate attributeName="opacity" values="0;1" dur="0.5s" begin="2.6999999999999997s" fill="freeze"/>
    </text>
    <text x="10" y="185" fill="#64748b" font-size="10" font-family="Arial, sans-serif">1,753
      <animate attributeName="opacity" values="0;1" dur="0.5s" begin="2.6999999999999997s" fill="freeze"/>
    </text>
    
    <!-- Chart Line with draw animation that follows the circle -->
    <path d="M 30,160 L 31.46597715148526,160 L 31.495758861214217,160 L 31.528469046572063,160 L 33.0001434142808,160 L 33.02708539006659,160 L 33.06252881934473,160 L 34.53441616709921,160 L 34.563203969948056,160 L 34.59271945461984,160 L 36.069292363380534,160 L 36.09406904203466,160 L 36.126140287255296,160 L 37.59799213833548,160 L 37.62159742673805,160 L 37.6491605943239,160 L 39.13457217498271,160 L 39.16169163413994,160 L 39.197614268520994,160 L 40.6672120807838,160 L 40.69491723506681,160 L 40.7288343073505,160 L 42.19514867724151,160 L 42.220546547695704,160 L 42.254073156562214,160 L 43.72533931251662,160 L 43.75776552448015,160 L 43.790138491432245,160 L 45.26486557312988,160 L 45.290582913652685,160 L 45.321553761970335,160 L 46.79951104102833,160 L 46.82526387822542,160 L 46.85635896490309,160 L 48.329701676303436,160 L 48.35905742594092,160 L 48.38999277758428,160 L 49.86809204333943,160 L 49.89602792600533,160 L 49.92916407145465,160 L 51.402560027866436,160 L 51.42811763335493,160 L 51.463987022724545,160 L 52.931508279541404,160 L 52.95679965997273,160 L 52.98711381981603,160 L 54.46466288711969,160 L 54.490202744271045,160 L 54.52106710256582,160 L 55.99980530845819,160 L 56.02106781635765,160 L 56.051541711235245,160 L 57.53313739940792,160 L 57.55794957473634,160 L 57.578519897487155,160 L 59.06453492160888,160 L 59.08817570668573,160 L 59.118081654774706,160 L 60.59413986175821,160 L 60.62968978105921,160 L 60.66190301297701,160 L 62.134127579137235,160 L 62.16053710480868,160 L 62.19147245645205,160 L 63.66790337851559,160 L 63.69372720906125,160 L 63.71866362274968,160 L 65.20302805151695,160 L 65.22517797627364,160 L 65.25096631014502,160 L 66.73222477991195,160 L 66.75748066366897,160 L 66.78591349977492,160 L 68.26814812808482,160 L 68.29015606614435,160 L 68.3206477093591,160 L 69.79067148171337,160 L 69.82394961385984,160 L 69.8546009921089,160 L 71.33545125012148,160 L 71.36391958290173,160 L 71.39284937244773,160 L 72.86977724795133,160 L 72.89943471932028,160 L 72.93280159315248,160 L 74.3983705328834,160 L 74.42327144989756,160 L 74.45177527935208,160 L 75.9321995772732,160 L 75.95072884125236,160 L 75.98333253658733,160 L 77.46673855514878,160 L 77.48911920828834,160 L 77.51955760649167,160 L 79.00184547981299,160 L 79.02426162962685,160 L 79.05090188368118,160 L 80.53272830023674,82.97126839523476 L 80.55546392011922,82.97126839523476 L 80.58464218638525,82.97126839523476 L 82.0676577415295,82.97126839523476 L 82.09124528159492,82.97126839523476 L 82.12413295032422,82.97126839523476 L 83.59234639228973,82.97126839523476 L 83.62535829937903,82.97126839523476 L 83.6576780213197,82.97126839523476 L 85.13520934028621,82.97126839523476 L 85.15254946567666,82.97126839523476 L 85.18211819535989,82.97126839523476 L 86.66589692900138,82.97126839523476 L 86.69015890587829,82.97126839523476 L 86.72207041606462,82.97126839523476 L 88.19310584363615,82.97126839523476 L 88.2249463604739,82.97126839523476 L 88.253396944917,82.97126839523476 L 89.7333775344095,82.97126839523476 L 89.7584204381208,82.97126839523476 L 89.78591261235806,82.97126839523476 L 91.26465081825043,82.97126839523476 L 91.28921451685882,82.97126839523476 L 91.31404444052438,82.97126839523476 L 91.35339250397438,82.97126839523476 L 92.80364462874935,82.97126839523476 L 92.82955720098074,82.97126839523476 L 92.85649917676653,82.97126839523476 L 94.33605380616756,82.97126839523476 L 94.36189538505037,82.97126839523476 L 94.39013298944774,82.97126839523476 L 95.86872920864293,82.97126839523476 L 95.89251198041696,82.97126839523476 L 95.91964918791133,82.97126839523476 L 97.39767746031791,82.97126839523476 L 97.42625228312102,82.97126839523476 L 98.94190703027454,82.97126839523476 L 98.95926490400214,82.97126839523476 L 98.98681032325085,82.97126839523476 L 100.46773157461203,82.97126839523476 L 100.4921710348604,82.97126839523476 L 100.52237870468083,82.97126839523476 L 102.00081518884173,82.97126839523476 L 102.02466895396432,82.97126839523476 L 102.0514866913901,82.97126839523476 L 103.53695151706034,82.97126839523476 L 103.56254461922313,82.97126839523476 L 103.59461586444377,82.97126839523476 L 105.07200519671312,82.97126839523476 L 105.09958611263612,82.97126839523476 L 105.12603113498186,82.97126839523476 L 106.60801728657171,82.97126839523476 L 106.62498469688214,82.97126839523476 L 106.65371925471955,82.97126839523476 L 108.13614911473802,82.97126839523476 L 108.15833453616901,82.97126839523476 L 108.18378565163464,82.97126839523476 L 109.66928597397917,82.97126839523476 L 109.68996278675284,82.97126839523476 L 109.72132409848768,82.97126839523476 L 111.20206786647742,82.97126839523476 L 111.22475024134845,82.97126839523476 L 111.25431897103167,82.97126839523476 L 112.73259572015827,82.97126839523476 L 112.7544439231835,82.97126839523476 L 112.78662165842701,82.97126839523476 L 114.2650936392622,82.97126839523476 L 114.29716488448283,82.97126839523476 L 114.32991056651495,82.97126839523476 L 115.80375023135537,82.97126839523476 L 115.8273022747465,82.97126839523476 L 115.85692424944115,82.97126839523476 L 117.33681609724793,82.97126839523476 L 117.36003092223332,82.97126839523476 L 117.38965289692797,82.97126839523476 L 118.87100010838061,82.97126839523476 L 118.90149175159536,82.97126839523476 L 118.93752087599928,82.97126839523476 L 120.40486464944469,82.97126839523476 L 120.4270145742014,82.97126839523476 L 120.45534092028447,82.97126839523476 L 121.93995382577177,82.97126839523476 L 121.95874931480809,82.97126839523476 L 121.98840678617704,82.97126839523476 L 123.46836962733238,82.97126839523476 L 123.4904840554148,82.97126839523476 L 123.51872165981216,82.97126839523476 L 123.55735978977634,82.97126839523476 L 125.00589032584828,82.97126839523476 L 125.03540581052007,82.97126839523476 L 125.06470831514612,82.97126839523476 L 126.5355662593462,82.97126839523476 L 126.56259697681772,82.97126839523476 L 126.59083458121506,82.97126839523476 L 128.07166709089051,82.97126839523476 L 128.08685966748646,82.97126839523476 L 128.1225160768103,82.97126839523476 L 129.60349057318294,82.97126839523476 L 129.62869321192852,82.97126839523476 L 129.6494055213765,82.97126839523476 L 131.1381005444071,82.97126839523476 L 131.1619188128554,82.97126839523476 L 131.19090184741285,82.97126839523476 L 132.67239104556265,82.97126839523476 L 132.6978421610283,82.97126839523476 L 132.72574254701988,82.97126839523476 L 134.20448075291225,82.97126839523476 L 134.22469610892017,82.97126839523476 L 134.25591543395785,82.97126839523476 L 135.74070582281658,82.97126839523476 L 135.7625362775047,82.97126839523476 L 135.79315215907943,82.97126839523476 L 137.2730795035605,82.97126839523476 L 137.29851287068897,82.97126839523476 L 137.32914650060087,82.97126839523476 L 138.805648416013,82.97126839523476 L 138.83019436628427,82.97126839523476 L 138.84856389522912,82.97126839523476 L 140.33610527634528,82.97126839523476 L 140.3708210238005,82.97126839523476 L 140.39426657716876,82.97126839523476 L 141.8728805447011,82.97126839523476 L 141.89671656148656,82.97126839523476 L 143.43196547284793,82.97126839523476 L 143.45812652179933,82.97126839523476 L 144.93627903256595,82.97126839523476 L 144.9592808775056,82.97126839523476 L 144.98666656171997,82.97126839523476 L 146.47316079094463,82.97126839523476 L 146.50177111042203,82.97126839523476 L 146.5290680529507,82.97126839523476 L 148.0066348685915,82.97126839523476 L 148.03604386324042,82.97126839523476 L 148.06474292440356,82.97126839523476 L 149.54273570013584,82.97126839523476 L 149.57017462936167,82.97126839523476 L 149.59377991776427,82.97126839523476 L 151.07186143518226,82.97126839523476 L 151.09992155620816,40 L 151.12872710739416,40 L 152.6334133821922,40 L 152.6590774777036,40 L 154.1343192611784,40 L 154.16190017710142,40 L 154.18037619606912,40 L 155.6715914829743,40 L 155.69904816053727,40 L 155.72709053322603,40 L 157.20213708499227,40 L 157.23069415945824,40 L 157.26580037033062,40 L 158.74189407398842,40 L 158.77185326708883,40 L 158.79316901999974,40 L 160.2743209997438,40 L 160.2982990032264,40 L 160.32765475286385,40 L 161.8102975929281,40 L 161.86464300126542,40 L 163.33951206966023,40 L 163.368903315972,40 L 163.39598727845495,40 L 164.87463674266158,40 L 164.90244838696748,40 L 164.93148466653633,40 L 166.4087142637714,40 L 166.43707610652876,40 L 166.4689876167151,40 L 167.94146065959535,40 L 167.9713133626729,40 L 168.0019824892591,40 L 169.47756149113968,40 L 169.50684624742857,40 L 169.53476438175733,40 L 171.01312987256966,40 L 171.0341971487605,40 L 171.0633576666894,40 L 172.5411907073874,40 L 172.56829241820748,40 L 172.59970697495373,40 L 174.07533922184578,40 L 174.10228119763156,40 L 174.1319386690005,40 L 175.60893753785268,40 L 175.63445964666687,40 L 175.66592744842458,40 L 177.14360075408825,40 L 177.16912286290247,40 L 177.1927813963165,40 L 178.68231059119287,40 L 178.70405230419524,40 L 178.7356975893244,40 L 180.21109910783355,40 L 180.2361242632077,40 L 180.26427312591932,40 L 181.74382775532035,40 L 181.76587119005418,40 L 181.7992025672121,40 L 183.2757044826242,40 L 183.3015815581813,40 L 183.33333333333334,40" stroke="#3b82f6" stroke-width="2" fill="none" stroke-dasharray="14900" stroke-dashoffset="14900">
      <animate attributeName="stroke-dashoffset" values="14900;0" dur="3s" begin="3.0999999999999996s" fill="freeze"/>
    </path>
    
    <!-- Glow effect for the line that also follows the circle -->
    <path d="M 30,160 L 31.46597715148526,160 L 31.495758861214217,160 L 31.528469046572063,160 L 33.0001434142808,160 L 33.02708539006659,160 L 33.06252881934473,160 L 34.53441616709921,160 L 34.563203969948056,160 L 34.59271945461984,160 L 36.069292363380534,160 L 36.09406904203466,160 L 36.126140287255296,160 L 37.59799213833548,160 L 37.62159742673805,160 L 37.6491605943239,160 L 39.13457217498271,160 L 39.16169163413994,160 L 39.197614268520994,160 L 40.6672120807838,160 L 40.69491723506681,160 L 40.7288343073505,160 L 42.19514867724151,160 L 42.220546547695704,160 L 42.254073156562214,160 L 43.72533931251662,160 L 43.75776552448015,160 L 43.790138491432245,160 L 45.26486557312988,160 L 45.290582913652685,160 L 45.321553761970335,160 L 46.79951104102833,160 L 46.82526387822542,160 L 46.85635896490309,160 L 48.329701676303436,160 L 48.35905742594092,160 L 48.38999277758428,160 L 49.86809204333943,160 L 49.89602792600533,160 L 49.92916407145465,160 L 51.402560027866436,160 L 51.42811763335493,160 L 51.463987022724545,160 L 52.931508279541404,160 L 52.95679965997273,160 L 52.98711381981603,160 L 54.46466288711969,160 L 54.490202744271045,160 L 54.52106710256582,160 L 55.99980530845819,160 L 56.02106781635765,160 L 56.051541711235245,160 L 57.53313739940792,160 L 57.55794957473634,160 L 57.578519897487155,160 L 59.06453492160888,160 L 59.08817570668573,160 L 59.118081654774706,160 L 60.59413986175821,160 L 60.62968978105921,160 L 60.66190301297701,160 L 62.134127579137235,160 L 62.16053710480868,160 L 62.19147245645205,160 L 63.66790337851559,160 L 63.69372720906125,160 L 63.71866362274968,160 L 65.20302805151695,160 L 65.22517797627364,160 L 65.25096631014502,160 L 66.73222477991195,160 L 66.75748066366897,160 L 66.78591349977492,160 L 68.26814812808482,160 L 68.29015606614435,160 L 68.3206477093591,160 L 69.79067148171337,160 L 69.82394961385984,160 L 69.8546009921089,160 L 71.33545125012148,160 L 71.36391958290173,160 L 71.39284937244773,160 L 72.86977724795133,160 L 72.89943471932028,160 L 72.93280159315248,160 L 74.3983705328834,160 L 74.42327144989756,160 L 74.45177527935208,160 L 75.9321995772732,160 L 75.95072884125236,160 L 75.98333253658733,160 L 77.46673855514878,160 L 77.48911920828834,160 L 77.51955760649167,160 L 79.00184547981299,160 L 79.02426162962685,160 L 79.05090188368118,160 L 80.53272830023674,82.97126839523476 L 80.55546392011922,82.97126839523476 L 80.58464218638525,82.97126839523476 L 82.0676577415295,82.97126839523476 L 82.09124528159492,82.97126839523476 L 82.12413295032422,82.97126839523476 L 83.59234639228973,82.97126839523476 L 83.62535829937903,82.97126839523476 L 83.6576780213197,82.97126839523476 L 85.13520934028621,82.97126839523476 L 85.15254946567666,82.97126839523476 L 85.18211819535989,82.97126839523476 L 86.66589692900138,82.97126839523476 L 86.69015890587829,82.97126839523476 L 86.72207041606462,82.97126839523476 L 88.19310584363615,82.97126839523476 L 88.2249463604739,82.97126839523476 L 88.253396944917,82.97126839523476 L 89.7333775344095,82.97126839523476 L 89.7584204381208,82.97126839523476 L 89.78591261235806,82.97126839523476 L 91.26465081825043,82.97126839523476 L 91.28921451685882,82.97126839523476 L 91.31404444052438,82.97126839523476 L 91.35339250397438,82.97126839523476 L 92.80364462874935,82.97126839523476 L 92.82955720098074,82.97126839523476 L 92.85649917676653,82.97126839523476 L 94.33605380616756,82.97126839523476 L 94.36189538505037,82.97126839523476 L 94.39013298944774,82.97126839523476 L 95.86872920864293,82.97126839523476 L 95.89251198041696,82.97126839523476 L 95.91964918791133,82.97126839523476 L 97.39767746031791,82.97126839523476 L 97.42625228312102,82.97126839523476 L 98.94190703027454,82.97126839523476 L 98.95926490400214,82.97126839523476 L 98.98681032325085,82.97126839523476 L 100.46773157461203,82.97126839523476 L 100.4921710348604,82.97126839523476 L 100.52237870468083,82.97126839523476 L 102.00081518884173,82.97126839523476 L 102.02466895396432,82.97126839523476 L 102.0514866913901,82.97126839523476 L 103.53695151706034,82.97126839523476 L 103.56254461922313,82.97126839523476 L 103.59461586444377,82.97126839523476 L 105.07200519671312,82.97126839523476 L 105.09958611263612,82.97126839523476 L 105.12603113498186,82.97126839523476 L 106.60801728657171,82.97126839523476 L 106.62498469688214,82.97126839523476 L 106.65371925471955,82.97126839523476 L 108.13614911473802,82.97126839523476 L 108.15833453616901,82.97126839523476 L 108.18378565163464,82.97126839523476 L 109.66928597397917,82.97126839523476 L 109.68996278675284,82.97126839523476 L 109.72132409848768,82.97126839523476 L 111.20206786647742,82.97126839523476 L 111.22475024134845,82.97126839523476 L 111.25431897103167,82.97126839523476 L 112.73259572015827,82.97126839523476 L 112.7544439231835,82.97126839523476 L 112.78662165842701,82.97126839523476 L 114.2650936392622,82.97126839523476 L 114.29716488448283,82.97126839523476 L 114.32991056651495,82.97126839523476 L 115.80375023135537,82.97126839523476 L 115.8273022747465,82.97126839523476 L 115.85692424944115,82.97126839523476 L 117.33681609724793,82.97126839523476 L 117.36003092223332,82.97126839523476 L 117.38965289692797,82.97126839523476 L 118.87100010838061,82.97126839523476 L 118.90149175159536,82.97126839523476 L 118.93752087599928,82.97126839523476 L 120.40486464944469,82.97126839523476 L 120.4270145742014,82.97126839523476 L 120.45534092028447,82.97126839523476 L 121.93995382577177,82.97126839523476 L 121.95874931480809,82.97126839523476 L 121.98840678617704,82.97126839523476 L 123.46836962733238,82.97126839523476 L 123.4904840554148,82.97126839523476 L 123.51872165981216,82.97126839523476 L 123.55735978977634,82.97126839523476 L 125.00589032584828,82.97126839523476 L 125.03540581052007,82.97126839523476 L 125.06470831514612,82.97126839523476 L 126.5355662593462,82.97126839523476 L 126.56259697681772,82.97126839523476 L 126.59083458121506,82.97126839523476 L 128.07166709089051,82.97126839523476 L 128.08685966748646,82.97126839523476 L 128.1225160768103,82.97126839523476 L 129.60349057318294,82.97126839523476 L 129.62869321192852,82.97126839523476 L 129.6494055213765,82.97126839523476 L 131.1381005444071,82.97126839523476 L 131.1619188128554,82.97126839523476 L 131.19090184741285,82.97126839523476 L 132.67239104556265,82.97126839523476 L 132.6978421610283,82.97126839523476 L 132.72574254701988,82.97126839523476 L 134.20448075291225,82.97126839523476 L 134.22469610892017,82.97126839523476 L 134.25591543395785,82.97126839523476 L 135.74070582281658,82.97126839523476 L 135.7625362775047,82.97126839523476 L 135.79315215907943,82.97126839523476 L 137.2730795035605,82.97126839523476 L 137.29851287068897,82.97126839523476 L 137.32914650060087,82.97126839523476 L 138.805648416013,82.97126839523476 L 138.83019436628427,82.97126839523476 L 138.84856389522912,82.97126839523476 L 140.33610527634528,82.97126839523476 L 140.3708210238005,82.97126839523476 L 140.39426657716876,82.97126839523476 L 141.8728805447011,82.97126839523476 L 141.89671656148656,82.97126839523476 L 143.43196547284793,82.97126839523476 L 143.45812652179933,82.97126839523476 L 144.93627903256595,82.97126839523476 L 144.9592808775056,82.97126839523476 L 144.98666656171997,82.97126839523476 L 146.47316079094463,82.97126839523476 L 146.50177111042203,82.97126839523476 L 146.5290680529507,82.97126839523476 L 148.0066348685915,82.97126839523476 L 148.03604386324042,82.97126839523476 L 148.06474292440356,82.97126839523476 L 149.54273570013584,82.97126839523476 L 149.57017462936167,82.97126839523476 L 149.59377991776427,82.97126839523476 L 151.07186143518226,82.97126839523476 L 151.09992155620816,40 L 151.12872710739416,40 L 152.6334133821922,40 L 152.6590774777036,40 L 154.1343192611784,40 L 154.16190017710142,40 L 154.18037619606912,40 L 155.6715914829743,40 L 155.69904816053727,40 L 155.72709053322603,40 L 157.20213708499227,40 L 157.23069415945824,40 L 157.26580037033062,40 L 158.74189407398842,40 L 158.77185326708883,40 L 158.79316901999974,40 L 160.2743209997438,40 L 160.2982990032264,40 L 160.32765475286385,40 L 161.8102975929281,40 L 161.86464300126542,40 L 163.33951206966023,40 L 163.368903315972,40 L 163.39598727845495,40 L 164.87463674266158,40 L 164.90244838696748,40 L 164.93148466653633,40 L 166.4087142637714,40 L 166.43707610652876,40 L 166.4689876167151,40 L 167.94146065959535,40 L 167.9713133626729,40 L 168.0019824892591,40 L 169.47756149113968,40 L 169.50684624742857,40 L 169.53476438175733,40 L 171.01312987256966,40 L 171.0341971487605,40 L 171.0633576666894,40 L 172.5411907073874,40 L 172.56829241820748,40 L 172.59970697495373,40 L 174.07533922184578,40 L 174.10228119763156,40 L 174.1319386690005,40 L 175.60893753785268,40 L 175.63445964666687,40 L 175.66592744842458,40 L 177.14360075408825,40 L 177.16912286290247,40 L 177.1927813963165,40 L 178.68231059119287,40 L 178.70405230419524,40 L 178.7356975893244,40 L 180.21109910783355,40 L 180.2361242632077,40 L 180.26427312591932,40 L 181.74382775532035,40 L 181.76587119005418,40 L 181.7992025672121,40 L 183.2757044826242,40 L 183.3015815581813,40 L 183.33333333333334,40" stroke="#3b82f6" stroke-width="4" fill="none" opacity="0.4" stroke-dasharray="14900" stroke-dashoffset="14900">
      <animate attributeName="stroke-dashoffset" values="14900;0" dur="3s" begin="3.0999999999999996s" fill="freeze"/>
    </path>
    
    <!-- Animated circle that moves along the path and draws the line -->
    <circle r="5" fill="#3b82f6" opacity="0" filter="url(#trailGlow)">
      <animate attributeName="opacity" values="0;1;1;1" dur="3.2s" begin="2.9s" fill="freeze"/>
      <animate attributeName="r" values="5;6;5" dur="1s" begin="2.9s" repeatCount="3"/>
      <animateMotion dur="3s" begin="2.9s" fill="freeze">
        <mpath href="#path_publicContributions_293.33333333333337"/>
      </animateMotion>
    </circle>
    
    <!-- Small trail dots that fade out -->
    <circle r="2" fill="#3b82f6" opacity="0">
      <animate attributeName="opacity" values="0;0.6;0" dur="0.8s" begin="3.3s" fill="freeze"/>
      <animateMotion dur="3s" begin="2.9s" fill="freeze">
        <mpath href="#path_publicContributions_293.33333333333337"/>
      </animateMotion>
    </circle>
    
    <!-- Hidden path for motion animation -->
    <path id="path_publicContributions_293.33333333333337" d="M 30,160 L 31.46597715148526,160 L 31.495758861214217,160 L 31.528469046572063,160 L 33.0001434142808,160 L 33.02708539006659,160 L 33.06252881934473,160 L 34.53441616709921,160 L 34.563203969948056,160 L 34.59271945461984,160 L 36.069292363380534,160 L 36.09406904203466,160 L 36.126140287255296,160 L 37.59799213833548,160 L 37.62159742673805,160 L 37.6491605943239,160 L 39.13457217498271,160 L 39.16169163413994,160 L 39.197614268520994,160 L 40.6672120807838,160 L 40.69491723506681,160 L 40.7288343073505,160 L 42.19514867724151,160 L 42.220546547695704,160 L 42.254073156562214,160 L 43.72533931251662,160 L 43.75776552448015,160 L 43.790138491432245,160 L 45.26486557312988,160 L 45.290582913652685,160 L 45.321553761970335,160 L 46.79951104102833,160 L 46.82526387822542,160 L 46.85635896490309,160 L 48.329701676303436,160 L 48.35905742594092,160 L 48.38999277758428,160 L 49.86809204333943,160 L 49.89602792600533,160 L 49.92916407145465,160 L 51.402560027866436,160 L 51.42811763335493,160 L 51.463987022724545,160 L 52.931508279541404,160 L 52.95679965997273,160 L 52.98711381981603,160 L 54.46466288711969,160 L 54.490202744271045,160 L 54.52106710256582,160 L 55.99980530845819,160 L 56.02106781635765,160 L 56.051541711235245,160 L 57.53313739940792,160 L 57.55794957473634,160 L 57.578519897487155,160 L 59.06453492160888,160 L 59.08817570668573,160 L 59.118081654774706,160 L 60.59413986175821,160 L 60.62968978105921,160 L 60.66190301297701,160 L 62.134127579137235,160 L 62.16053710480868,160 L 62.19147245645205,160 L 63.66790337851559,160 L 63.69372720906125,160 L 63.71866362274968,160 L 65.20302805151695,160 L 65.22517797627364,160 L 65.25096631014502,160 L 66.73222477991195,160 L 66.75748066366897,160 L 66.78591349977492,160 L 68.26814812808482,160 L 68.29015606614435,160 L 68.3206477093591,160 L 69.79067148171337,160 L 69.82394961385984,160 L 69.8546009921089,160 L 71.33545125012148,160 L 71.36391958290173,160 L 71.39284937244773,160 L 72.86977724795133,160 L 72.89943471932028,160 L 72.93280159315248,160 L 74.3983705328834,160 L 74.42327144989756,160 L 74.45177527935208,160 L 75.9321995772732,160 L 75.95072884125236,160 L 75.98333253658733,160 L 77.46673855514878,160 L 77.48911920828834,160 L 77.51955760649167,160 L 79.00184547981299,160 L 79.02426162962685,160 L 79.05090188368118,160 L 80.53272830023674,82.97126839523476 L 80.55546392011922,82.97126839523476 L 80.58464218638525,82.97126839523476 L 82.0676577415295,82.97126839523476 L 82.09124528159492,82.97126839523476 L 82.12413295032422,82.97126839523476 L 83.59234639228973,82.97126839523476 L 83.62535829937903,82.97126839523476 L 83.6576780213197,82.97126839523476 L 85.13520934028621,82.97126839523476 L 85.15254946567666,82.97126839523476 L 85.18211819535989,82.97126839523476 L 86.66589692900138,82.97126839523476 L 86.69015890587829,82.97126839523476 L 86.72207041606462,82.97126839523476 L 88.19310584363615,82.97126839523476 L 88.2249463604739,82.97126839523476 L 88.253396944917,82.97126839523476 L 89.7333775344095,82.97126839523476 L 89.7584204381208,82.97126839523476 L 89.78591261235806,82.97126839523476 L 91.26465081825043,82.97126839523476 L 91.28921451685882,82.97126839523476 L 91.31404444052438,82.97126839523476 L 91.35339250397438,82.97126839523476 L 92.80364462874935,82.97126839523476 L 92.82955720098074,82.97126839523476 L 92.85649917676653,82.97126839523476 L 94.33605380616756,82.97126839523476 L 94.36189538505037,82.97126839523476 L 94.39013298944774,82.97126839523476 L 95.86872920864293,82.97126839523476 L 95.89251198041696,82.97126839523476 L 95.91964918791133,82.97126839523476 L 97.39767746031791,82.97126839523476 L 97.42625228312102,82.97126839523476 L 98.94190703027454,82.97126839523476 L 98.95926490400214,82.97126839523476 L 98.98681032325085,82.97126839523476 L 100.46773157461203,82.97126839523476 L 100.4921710348604,82.97126839523476 L 100.52237870468083,82.97126839523476 L 102.00081518884173,82.97126839523476 L 102.02466895396432,82.97126839523476 L 102.0514866913901,82.97126839523476 L 103.53695151706034,82.97126839523476 L 103.56254461922313,82.97126839523476 L 103.59461586444377,82.97126839523476 L 105.07200519671312,82.97126839523476 L 105.09958611263612,82.97126839523476 L 105.12603113498186,82.97126839523476 L 106.60801728657171,82.97126839523476 L 106.62498469688214,82.97126839523476 L 106.65371925471955,82.97126839523476 L 108.13614911473802,82.97126839523476 L 108.15833453616901,82.97126839523476 L 108.18378565163464,82.97126839523476 L 109.66928597397917,82.97126839523476 L 109.68996278675284,82.97126839523476 L 109.72132409848768,82.97126839523476 L 111.20206786647742,82.97126839523476 L 111.22475024134845,82.97126839523476 L 111.25431897103167,82.97126839523476 L 112.73259572015827,82.97126839523476 L 112.7544439231835,82.97126839523476 L 112.78662165842701,82.97126839523476 L 114.2650936392622,82.97126839523476 L 114.29716488448283,82.97126839523476 L 114.32991056651495,82.97126839523476 L 115.80375023135537,82.97126839523476 L 115.8273022747465,82.97126839523476 L 115.85692424944115,82.97126839523476 L 117.33681609724793,82.97126839523476 L 117.36003092223332,82.97126839523476 L 117.38965289692797,82.97126839523476 L 118.87100010838061,82.97126839523476 L 118.90149175159536,82.97126839523476 L 118.93752087599928,82.97126839523476 L 120.40486464944469,82.97126839523476 L 120.4270145742014,82.97126839523476 L 120.45534092028447,82.97126839523476 L 121.93995382577177,82.97126839523476 L 121.95874931480809,82.97126839523476 L 121.98840678617704,82.97126839523476 L 123.46836962733238,82.97126839523476 L 123.4904840554148,82.97126839523476 L 123.51872165981216,82.97126839523476 L 123.55735978977634,82.97126839523476 L 125.00589032584828,82.97126839523476 L 125.03540581052007,82.97126839523476 L 125.06470831514612,82.97126839523476 L 126.5355662593462,82.97126839523476 L 126.56259697681772,82.97126839523476 L 126.59083458121506,82.97126839523476 L 128.07166709089051,82.97126839523476 L 128.08685966748646,82.97126839523476 L 128.1225160768103,82.97126839523476 L 129.60349057318294,82.97126839523476 L 129.62869321192852,82.97126839523476 L 129.6494055213765,82.97126839523476 L 131.1381005444071,82.97126839523476 L 131.1619188128554,82.97126839523476 L 131.19090184741285,82.97126839523476 L 132.67239104556265,82.97126839523476 L 132.6978421610283,82.97126839523476 L 132.72574254701988,82.97126839523476 L 134.20448075291225,82.97126839523476 L 134.22469610892017,82.97126839523476 L 134.25591543395785,82.97126839523476 L 135.74070582281658,82.97126839523476 L 135.7625362775047,82.97126839523476 L 135.79315215907943,82.97126839523476 L 137.2730795035605,82.97126839523476 L 137.29851287068897,82.97126839523476 L 137.32914650060087,82.97126839523476 L 138.805648416013,82.97126839523476 L 138.83019436628427,82.97126839523476 L 138.84856389522912,82.97126839523476 L 140.33610527634528,82.97126839523476 L 140.3708210238005,82.97126839523476 L 140.39426657716876,82.97126839523476 L 141.8728805447011,82.97126839523476 L 141.89671656148656,82.97126839523476 L 143.43196547284793,82.97126839523476 L 143.45812652179933,82.97126839523476 L 144.93627903256595,82.97126839523476 L 144.9592808775056,82.97126839523476 L 144.98666656171997,82.97126839523476 L 146.47316079094463,82.97126839523476 L 146.50177111042203,82.97126839523476 L 146.5290680529507,82.97126839523476 L 148.0066348685915,82.97126839523476 L 148.03604386324042,82.97126839523476 L 148.06474292440356,82.97126839523476 L 149.54273570013584,82.97126839523476 L 149.57017462936167,82.97126839523476 L 149.59377991776427,82.97126839523476 L 151.07186143518226,82.97126839523476 L 151.09992155620816,40 L 151.12872710739416,40 L 152.6334133821922,40 L 152.6590774777036,40 L 154.1343192611784,40 L 154.16190017710142,40 L 154.18037619606912,40 L 155.6715914829743,40 L 155.69904816053727,40 L 155.72709053322603,40 L 157.20213708499227,40 L 157.23069415945824,40 L 157.26580037033062,40 L 158.74189407398842,40 L 158.77185326708883,40 L 158.79316901999974,40 L 160.2743209997438,40 L 160.2982990032264,40 L 160.32765475286385,40 L 161.8102975929281,40 L 161.86464300126542,40 L 163.33951206966023,40 L 163.368903315972,40 L 163.39598727845495,40 L 164.87463674266158,40 L 164.90244838696748,40 L 164.93148466653633,40 L 166.4087142637714,40 L 166.43707610652876,40 L 166.4689876167151,40 L 167.94146065959535,40 L 167.9713133626729,40 L 168.0019824892591,40 L 169.47756149113968,40 L 169.50684624742857,40 L 169.53476438175733,40 L 171.01312987256966,40 L 171.0341971487605,40 L 171.0633576666894,40 L 172.5411907073874,40 L 172.56829241820748,40 L 172.59970697495373,40 L 174.07533922184578,40 L 174.10228119763156,40 L 174.1319386690005,40 L 175.60893753785268,40 L 175.63445964666687,40 L 175.66592744842458,40 L 177.14360075408825,40 L 177.16912286290247,40 L 177.1927813963165,40 L 178.68231059119287,40 L 178.70405230419524,40 L 178.7356975893244,40 L 180.21109910783355,40 L 180.2361242632077,40 L 180.26427312591932,40 L 181.74382775532035,40 L 181.76587119005418,40 L 181.7992025672121,40 L 183.2757044826242,40 L 183.3015815581813,40 L 183.33333333333334,40" fill="none" stroke="none"/>
  </g>
  <!-- 📊 Total Contributions Chart -->
  <g transform="translate(526.6666666666667, 250)">
    <!-- Chart Background -->
    <rect x="0" y="0" width="213.33333333333334" height="200" fill="#ffffff" stroke="#e2e8f0" stroke-width="1" rx="8" filter="url(#shadow)">
      <animate attributeName="opacity" values="0;1" dur="0.5s" begin="2.8s" fill="freeze"/>
    </rect>
    
    <!-- Chart Title -->
    <text x="106.66666666666667" y="25" text-anchor="middle" fill="#1e293b" font-size="14" font-weight="bold" font-family="Arial, sans-serif">
      📊 Total Contributions
      <animate attributeName="opacity" values="0;1" dur="0.5s" begin="3s" fill="freeze"/>
    </text>
    
    <!-- Y-axis labels -->
    <text x="10" y="45" fill="#64748b" font-size="10" font-family="Arial, sans-serif">4,408
      <animate attributeName="opacity" values="0;1" dur="0.5s" begin="3.1999999999999997s" fill="freeze"/>
    </text>
    <text x="10" y="185" fill="#64748b" font-size="10" font-family="Arial, sans-serif">2,598
      <animate attributeName="opacity" values="0;1" dur="0.5s" begin="3.1999999999999997s" fill="freeze"/>
    </text>
    
    <!-- Chart Line with draw animation that follows the circle -->
    <path d="M 30,160 L 31.46597715148526,160 L 31.495758861214217,160 L 31.528469046572063,160 L 33.0001434142808,160 L 33.02708539006659,160 L 33.06252881934473,160 L 34.53441616709921,160 L 34.563203969948056,160 L 34.59271945461984,160 L 36.069292363380534,160 L 36.09406904203466,160 L 36.126140287255296,160 L 37.59799213833548,160 L 37.62159742673805,160 L 37.6491605943239,160 L 39.13457217498271,160 L 39.16169163413994,160 L 39.197614268520994,160 L 40.6672120807838,160 L 40.69491723506681,160 L 40.7288343073505,160 L 42.19514867724151,160 L 42.220546547695704,160 L 42.254073156562214,160 L 43.72533931251662,160 L 43.75776552448015,160 L 43.790138491432245,160 L 45.26486557312988,160 L 45.290582913652685,160 L 45.321553761970335,160 L 46.79951104102833,160 L 46.82526387822542,160 L 46.85635896490309,160 L 48.329701676303436,160 L 48.35905742594092,160 L 48.38999277758428,160 L 49.86809204333943,160 L 49.89602792600533,160 L 49.92916407145465,160 L 51.402560027866436,160 L 51.42811763335493,160 L 51.463987022724545,160 L 52.931508279541404,160 L 52.95679965997273,160 L 52.98711381981603,160 L 54.46466288711969,160 L 54.490202744271045,160 L 54.52106710256582,160 L 55.99980530845819,160 L 56.02106781635765,160 L 56.051541711235245,160 L 57.53313739940792,160 L 57.55794957473634,160 L 57.578519897487155,160 L 59.06453492160888,160 L 59.08817570668573,160 L 59.118081654774706,160 L 60.59413986175821,160 L 60.62968978105921,160 L 60.66190301297701,160 L 62.134127579137235,160 L 62.16053710480868,160 L 62.19147245645205,160 L 63.66790337851559,160 L 63.69372720906125,160 L 63.71866362274968,160 L 65.20302805151695,160 L 65.22517797627364,160 L 65.25096631014502,160 L 66.73222477991195,160 L 66.75748066366897,160 L 66.78591349977492,160 L 68.26814812808482,160 L 68.29015606614435,160 L 68.3206477093591,160 L 69.79067148171337,160 L 69.82394961385984,160 L 69.8546009921089,160 L 71.33545125012148,160 L 71.36391958290173,160 L 71.39284937244773,160 L 72.86977724795133,160 L 72.89943471932028,160 L 72.93280159315248,160 L 74.3983705328834,160 L 74.42327144989756,160 L 74.45177527935208,160 L 75.9321995772732,160 L 75.95072884125236,160 L 75.98333253658733,160 L 77.46673855514878,160 L 77.48911920828834,160 L 77.51955760649167,160 L 79.00184547981299,160 L 79.02426162962685,160 L 79.05090188368118,160 L 80.53272830023674,80.1767955801105 L 80.55546392011922,80.1767955801105 L 80.58464218638525,80.1767955801105 L 82.0676577415295,80.1767955801105 L 82.09124528159492,80.1767955801105 L 82.12413295032422,80.1767955801105 L 83.59234639228973,80.1767955801105 L 83.62535829937903,80.1767955801105 L 83.6576780213197,80.1767955801105 L 85.13520934028621,80.1767955801105 L 85.15254946567666,80.1767955801105 L 85.18211819535989,80.1767955801105 L 86.66589692900138,80.1767955801105 L 86.69015890587829,80.1767955801105 L 86.72207041606462,80.1767955801105 L 88.19310584363615,80.1767955801105 L 88.2249463604739,80.1767955801105 L 88.253396944917,80.1767955801105 L 89.7333775344095,80.1767955801105 L 89.7584204381208,80.1767955801105 L 89.78591261235806,80.1767955801105 L 91.26465081825043,80.1767955801105 L 91.28921451685882,80.1767955801105 L 91.31404444052438,80.1767955801105 L 91.35339250397438,80.1767955801105 L 92.80364462874935,80.1767955801105 L 92.82955720098074,80.1767955801105 L 92.85649917676653,80.1767955801105 L 94.33605380616756,80.1767955801105 L 94.36189538505037,80.1767955801105 L 94.39013298944774,80.1767955801105 L 95.86872920864293,80.1767955801105 L 95.89251198041696,80.1767955801105 L 95.91964918791133,80.1767955801105 L 97.39767746031791,80.1767955801105 L 97.42625228312102,80.1767955801105 L 98.94190703027454,80.1767955801105 L 98.95926490400214,80.1767955801105 L 98.98681032325085,80.1767955801105 L 100.46773157461203,80.1767955801105 L 100.4921710348604,80.1767955801105 L 100.52237870468083,80.1767955801105 L 102.00081518884173,80.1767955801105 L 102.02466895396432,80.1767955801105 L 102.0514866913901,80.1767955801105 L 103.53695151706034,80.1767955801105 L 103.56254461922313,80.1767955801105 L 103.59461586444377,80.1767955801105 L 105.07200519671312,80.1767955801105 L 105.09958611263612,80.1767955801105 L 105.12603113498186,80.1767955801105 L 106.60801728657171,80.1767955801105 L 106.62498469688214,80.1767955801105 L 106.65371925471955,80.1767955801105 L 108.13614911473802,80.1767955801105 L 108.15833453616901,80.1767955801105 L 108.18378565163464,80.1767955801105 L 109.66928597397917,80.1767955801105 L 109.68996278675284,80.1767955801105 L 109.72132409848768,80.1767955801105 L 111.20206786647742,80.1767955801105 L 111.22475024134845,80.1767955801105 L 111.25431897103167,80.1767955801105 L 112.73259572015827,80.1767955801105 L 112.7544439231835,80.1767955801105 L 112.78662165842701,80.1767955801105 L 114.2650936392622,80.1767955801105 L 114.29716488448283,80.1767955801105 L 114.32991056651495,80.1767955801105 L 115.80375023135537,80.1767955801105 L 115.8273022747465,80.1767955801105 L 115.85692424944115,80.1767955801105 L 117.33681609724793,80.1767955801105 L 117.36003092223332,80.1767955801105 L 117.38965289692797,80.1767955801105 L 118.87100010838061,80.1767955801105 L 118.90149175159536,80.1767955801105 L 118.93752087599928,80.1767955801105 L 120.40486464944469,80.1767955801105 L 120.4270145742014,80.1767955801105 L 120.45534092028447,80.1767955801105 L 121.93995382577177,80.1767955801105 L 121.95874931480809,80.1767955801105 L 121.98840678617704,80.1767955801105 L 123.46836962733238,80.1767955801105 L 123.4904840554148,80.1767955801105 L 123.51872165981216,80.1767955801105 L 123.55735978977634,80.1767955801105 L 125.00589032584828,80.1767955801105 L 125.03540581052007,80.1767955801105 L 125.06470831514612,80.1767955801105 L 126.5355662593462,80.1767955801105 L 126.56259697681772,80.1767955801105 L 126.59083458121506,80.1767955801105 L 128.07166709089051,80.1767955801105 L 128.08685966748646,80.1767955801105 L 128.1225160768103,80.1767955801105 L 129.60349057318294,80.1767955801105 L 129.62869321192852,80.1767955801105 L 129.6494055213765,80.1767955801105 L 131.1381005444071,80.1767955801105 L 131.1619188128554,80.1767955801105 L 131.19090184741285,80.1767955801105 L 132.67239104556265,80.1767955801105 L 132.6978421610283,80.1767955801105 L 132.72574254701988,80.1767955801105 L 134.20448075291225,80.1767955801105 L 134.22469610892017,80.1767955801105 L 134.25591543395785,80.1767955801105 L 135.74070582281658,80.1767955801105 L 135.7625362775047,80.1767955801105 L 135.79315215907943,80.1767955801105 L 137.2730795035605,80.1767955801105 L 137.29851287068897,80.1767955801105 L 137.32914650060087,80.1767955801105 L 138.805648416013,80.1767955801105 L 138.83019436628427,80.1767955801105 L 138.84856389522912,80.1767955801105 L 140.33610527634528,80.1767955801105 L 140.3708210238005,80.1767955801105 L 140.39426657716876,80.1767955801105 L 141.8728805447011,80.1767955801105 L 141.89671656148656,80.1767955801105 L 143.43196547284793,80.1767955801105 L 143.45812652179933,80.1767955801105 L 144.93627903256595,80.1767955801105 L 144.9592808775056,80.1767955801105 L 144.98666656171997,80.1767955801105 L 146.47316079094463,80.1767955801105 L 146.50177111042203,80.1767955801105 L 146.5290680529507,80.1767955801105 L 148.0066348685915,80.1767955801105 L 148.03604386324042,80.1767955801105 L 148.06474292440356,80.1767955801105 L 149.54273570013584,80.1767955801105 L 149.57017462936167,80.1767955801105 L 149.59377991776427,80.1767955801105 L 151.07186143518226,80.1767955801105 L 151.09992155620816,40 L 151.12872710739416,40 L 152.6334133821922,40 L 152.6590774777036,40 L 154.1343192611784,40 L 154.16190017710142,40 L 154.18037619606912,40 L 155.6715914829743,40 L 155.69904816053727,40 L 155.72709053322603,40 L 157.20213708499227,40 L 157.23069415945824,40 L 157.26580037033062,40 L 158.74189407398842,40 L 158.77185326708883,40 L 158.79316901999974,40 L 160.2743209997438,40 L 160.2982990032264,40 L 160.32765475286385,40 L 161.8102975929281,40 L 161.86464300126542,40 L 163.33951206966023,40 L 163.368903315972,40 L 163.39598727845495,40 L 164.87463674266158,40 L 164.90244838696748,40 L 164.93148466653633,40 L 166.4087142637714,40 L 166.43707610652876,40 L 166.4689876167151,40 L 167.94146065959535,40 L 167.9713133626729,40 L 168.0019824892591,40 L 169.47756149113968,40 L 169.50684624742857,40 L 169.53476438175733,40 L 171.01312987256966,40 L 171.0341971487605,40 L 171.0633576666894,40 L 172.5411907073874,40 L 172.56829241820748,40 L 172.59970697495373,40 L 174.07533922184578,40 L 174.10228119763156,40 L 174.1319386690005,40 L 175.60893753785268,40 L 175.63445964666687,40 L 175.66592744842458,40 L 177.14360075408825,40 L 177.16912286290247,40 L 177.1927813963165,40 L 178.68231059119287,40 L 178.70405230419524,40 L 178.7356975893244,40 L 180.21109910783355,40 L 180.2361242632077,40 L 180.26427312591932,40 L 181.74382775532035,40 L 181.76587119005418,40 L 181.7992025672121,40 L 183.2757044826242,40 L 183.3015815581813,40 L 183.33333333333334,40" stroke="#f59e0b" stroke-width="2" fill="none" stroke-dasharray="14900" stroke-dashoffset="14900">
      <animate attributeName="stroke-dashoffset" values="14900;0" dur="3s" begin="3.5999999999999996s" fill="freeze"/>
    </path>
    
    <!-- Glow effect for the line that also follows the circle -->
    <path d="M 30,160 L 31.46597715148526,160 L 31.495758861214217,160 L 31.528469046572063,160 L 33.0001434142808,160 L 33.02708539006659,160 L 33.06252881934473,160 L 34.53441616709921,160 L 34.563203969948056,160 L 34.59271945461984,160 L 36.069292363380534,160 L 36.09406904203466,160 L 36.126140287255296,160 L 37.59799213833548,160 L 37.62159742673805,160 L 37.6491605943239,160 L 39.13457217498271,160 L 39.16169163413994,160 L 39.197614268520994,160 L 40.6672120807838,160 L 40.69491723506681,160 L 40.7288343073505,160 L 42.19514867724151,160 L 42.220546547695704,160 L 42.254073156562214,160 L 43.72533931251662,160 L 43.75776552448015,160 L 43.790138491432245,160 L 45.26486557312988,160 L 45.290582913652685,160 L 45.321553761970335,160 L 46.79951104102833,160 L 46.82526387822542,160 L 46.85635896490309,160 L 48.329701676303436,160 L 48.35905742594092,160 L 48.38999277758428,160 L 49.86809204333943,160 L 49.89602792600533,160 L 49.92916407145465,160 L 51.402560027866436,160 L 51.42811763335493,160 L 51.463987022724545,160 L 52.931508279541404,160 L 52.95679965997273,160 L 52.98711381981603,160 L 54.46466288711969,160 L 54.490202744271045,160 L 54.52106710256582,160 L 55.99980530845819,160 L 56.02106781635765,160 L 56.051541711235245,160 L 57.53313739940792,160 L 57.55794957473634,160 L 57.578519897487155,160 L 59.06453492160888,160 L 59.08817570668573,160 L 59.118081654774706,160 L 60.59413986175821,160 L 60.62968978105921,160 L 60.66190301297701,160 L 62.134127579137235,160 L 62.16053710480868,160 L 62.19147245645205,160 L 63.66790337851559,160 L 63.69372720906125,160 L 63.71866362274968,160 L 65.20302805151695,160 L 65.22517797627364,160 L 65.25096631014502,160 L 66.73222477991195,160 L 66.75748066366897,160 L 66.78591349977492,160 L 68.26814812808482,160 L 68.29015606614435,160 L 68.3206477093591,160 L 69.79067148171337,160 L 69.82394961385984,160 L 69.8546009921089,160 L 71.33545125012148,160 L 71.36391958290173,160 L 71.39284937244773,160 L 72.86977724795133,160 L 72.89943471932028,160 L 72.93280159315248,160 L 74.3983705328834,160 L 74.42327144989756,160 L 74.45177527935208,160 L 75.9321995772732,160 L 75.95072884125236,160 L 75.98333253658733,160 L 77.46673855514878,160 L 77.48911920828834,160 L 77.51955760649167,160 L 79.00184547981299,160 L 79.02426162962685,160 L 79.05090188368118,160 L 80.53272830023674,80.1767955801105 L 80.55546392011922,80.1767955801105 L 80.58464218638525,80.1767955801105 L 82.0676577415295,80.1767955801105 L 82.09124528159492,80.1767955801105 L 82.12413295032422,80.1767955801105 L 83.59234639228973,80.1767955801105 L 83.62535829937903,80.1767955801105 L 83.6576780213197,80.1767955801105 L 85.13520934028621,80.1767955801105 L 85.15254946567666,80.1767955801105 L 85.18211819535989,80.1767955801105 L 86.66589692900138,80.1767955801105 L 86.69015890587829,80.1767955801105 L 86.72207041606462,80.1767955801105 L 88.19310584363615,80.1767955801105 L 88.2249463604739,80.1767955801105 L 88.253396944917,80.1767955801105 L 89.7333775344095,80.1767955801105 L 89.7584204381208,80.1767955801105 L 89.78591261235806,80.1767955801105 L 91.26465081825043,80.1767955801105 L 91.28921451685882,80.1767955801105 L 91.31404444052438,80.1767955801105 L 91.35339250397438,80.1767955801105 L 92.80364462874935,80.1767955801105 L 92.82955720098074,80.1767955801105 L 92.85649917676653,80.1767955801105 L 94.33605380616756,80.1767955801105 L 94.36189538505037,80.1767955801105 L 94.39013298944774,80.1767955801105 L 95.86872920864293,80.1767955801105 L 95.89251198041696,80.1767955801105 L 95.91964918791133,80.1767955801105 L 97.39767746031791,80.1767955801105 L 97.42625228312102,80.1767955801105 L 98.94190703027454,80.1767955801105 L 98.95926490400214,80.1767955801105 L 98.98681032325085,80.1767955801105 L 100.46773157461203,80.1767955801105 L 100.4921710348604,80.1767955801105 L 100.52237870468083,80.1767955801105 L 102.00081518884173,80.1767955801105 L 102.02466895396432,80.1767955801105 L 102.0514866913901,80.1767955801105 L 103.53695151706034,80.1767955801105 L 103.56254461922313,80.1767955801105 L 103.59461586444377,80.1767955801105 L 105.07200519671312,80.1767955801105 L 105.09958611263612,80.1767955801105 L 105.12603113498186,80.1767955801105 L 106.60801728657171,80.1767955801105 L 106.62498469688214,80.1767955801105 L 106.65371925471955,80.1767955801105 L 108.13614911473802,80.1767955801105 L 108.15833453616901,80.1767955801105 L 108.18378565163464,80.1767955801105 L 109.66928597397917,80.1767955801105 L 109.68996278675284,80.1767955801105 L 109.72132409848768,80.1767955801105 L 111.20206786647742,80.1767955801105 L 111.22475024134845,80.1767955801105 L 111.25431897103167,80.1767955801105 L 112.73259572015827,80.1767955801105 L 112.7544439231835,80.1767955801105 L 112.78662165842701,80.1767955801105 L 114.2650936392622,80.1767955801105 L 114.29716488448283,80.1767955801105 L 114.32991056651495,80.1767955801105 L 115.80375023135537,80.1767955801105 L 115.8273022747465,80.1767955801105 L 115.85692424944115,80.1767955801105 L 117.33681609724793,80.1767955801105 L 117.36003092223332,80.1767955801105 L 117.38965289692797,80.1767955801105 L 118.87100010838061,80.1767955801105 L 118.90149175159536,80.1767955801105 L 118.93752087599928,80.1767955801105 L 120.40486464944469,80.1767955801105 L 120.4270145742014,80.1767955801105 L 120.45534092028447,80.1767955801105 L 121.93995382577177,80.1767955801105 L 121.95874931480809,80.1767955801105 L 121.98840678617704,80.1767955801105 L 123.46836962733238,80.1767955801105 L 123.4904840554148,80.1767955801105 L 123.51872165981216,80.1767955801105 L 123.55735978977634,80.1767955801105 L 125.00589032584828,80.1767955801105 L 125.03540581052007,80.1767955801105 L 125.06470831514612,80.1767955801105 L 126.5355662593462,80.1767955801105 L 126.56259697681772,80.1767955801105 L 126.59083458121506,80.1767955801105 L 128.07166709089051,80.1767955801105 L 128.08685966748646,80.1767955801105 L 128.1225160768103,80.1767955801105 L 129.60349057318294,80.1767955801105 L 129.62869321192852,80.1767955801105 L 129.6494055213765,80.1767955801105 L 131.1381005444071,80.1767955801105 L 131.1619188128554,80.1767955801105 L 131.19090184741285,80.1767955801105 L 132.67239104556265,80.1767955801105 L 132.6978421610283,80.1767955801105 L 132.72574254701988,80.1767955801105 L 134.20448075291225,80.1767955801105 L 134.22469610892017,80.1767955801105 L 134.25591543395785,80.1767955801105 L 135.74070582281658,80.1767955801105 L 135.7625362775047,80.1767955801105 L 135.79315215907943,80.1767955801105 L 137.2730795035605,80.1767955801105 L 137.29851287068897,80.1767955801105 L 137.32914650060087,80.1767955801105 L 138.805648416013,80.1767955801105 L 138.83019436628427,80.1767955801105 L 138.84856389522912,80.1767955801105 L 140.33610527634528,80.1767955801105 L 140.3708210238005,80.1767955801105 L 140.39426657716876,80.1767955801105 L 141.8728805447011,80.1767955801105 L 141.89671656148656,80.1767955801105 L 143.43196547284793,80.1767955801105 L 143.45812652179933,80.1767955801105 L 144.93627903256595,80.1767955801105 L 144.9592808775056,80.1767955801105 L 144.98666656171997,80.1767955801105 L 146.47316079094463,80.1767955801105 L 146.50177111042203,80.1767955801105 L 146.5290680529507,80.1767955801105 L 148.0066348685915,80.1767955801105 L 148.03604386324042,80.1767955801105 L 148.06474292440356,80.1767955801105 L 149.54273570013584,80.1767955801105 L 149.57017462936167,80.1767955801105 L 149.59377991776427,80.1767955801105 L 151.07186143518226,80.1767955801105 L 151.09992155620816,40 L 151.12872710739416,40 L 152.6334133821922,40 L 152.6590774777036,40 L 154.1343192611784,40 L 154.16190017710142,40 L 154.18037619606912,40 L 155.6715914829743,40 L 155.69904816053727,40 L 155.72709053322603,40 L 157.20213708499227,40 L 157.23069415945824,40 L 157.26580037033062,40 L 158.74189407398842,40 L 158.77185326708883,40 L 158.79316901999974,40 L 160.2743209997438,40 L 160.2982990032264,40 L 160.32765475286385,40 L 161.8102975929281,40 L 161.86464300126542,40 L 163.33951206966023,40 L 163.368903315972,40 L 163.39598727845495,40 L 164.87463674266158,40 L 164.90244838696748,40 L 164.93148466653633,40 L 166.4087142637714,40 L 166.43707610652876,40 L 166.4689876167151,40 L 167.94146065959535,40 L 167.9713133626729,40 L 168.0019824892591,40 L 169.47756149113968,40 L 169.50684624742857,40 L 169.53476438175733,40 L 171.01312987256966,40 L 171.0341971487605,40 L 171.0633576666894,40 L 172.5411907073874,40 L 172.56829241820748,40 L 172.59970697495373,40 L 174.07533922184578,40 L 174.10228119763156,40 L 174.1319386690005,40 L 175.60893753785268,40 L 175.63445964666687,40 L 175.66592744842458,40 L 177.14360075408825,40 L 177.16912286290247,40 L 177.1927813963165,40 L 178.68231059119287,40 L 178.70405230419524,40 L 178.7356975893244,40 L 180.21109910783355,40 L 180.2361242632077,40 L 180.26427312591932,40 L 181.74382775532035,40 L 181.76587119005418,40 L 181.7992025672121,40 L 183.2757044826242,40 L 183.3015815581813,40 L 183.33333333333334,40" stroke="#f59e0b" stroke-width="4" fill="none" opacity="0.4" stroke-dasharray="14900" stroke-dashoffset="14900">
      <animate attributeName="stroke-dashoffset" values="14900;0" dur="3s" begin="3.5999999999999996s" fill="freeze"/>
    </path>
    
    <!-- Animated circle that moves along the path and draws the line -->
    <circle r="5" fill="#f59e0b" opacity="0" filter="url(#trailGlow)">
      <animate attributeName="opacity" values="0;1;1;1" dur="3.2s" begin="3.4s" fill="freeze"/>
      <animate attributeName="r" values="5;6;5" dur="1s" begin="3.4s" repeatCount="3"/>
      <animateMotion dur="3s" begin="3.4s" fill="freeze">
        <mpath href="#path_totalContributions_526.6666666666667"/>
      </animateMotion>
    </circle>
    
    <!-- Small trail dots that fade out -->
    <circle r="2" fill="#f59e0b" opacity="0">
      <animate attributeName="opacity" values="0;0.6;0" dur="0.8s" begin="3.8s" fill="freeze"/>
      <animateMotion dur="3s" begin="3.4s" fill="freeze">
        <mpath href="#path_totalContributions_526.6666666666667"/>
      </animateMotion>
    </circle>
    
    <!-- Hidden path for motion animation -->
    <path id="path_totalContributions_526.6666666666667" d="M 30,160 L 31.46597715148526,160 L 31.495758861214217,160 L 31.528469046572063,160 L 33.0001434142808,160 L 33.02708539006659,160 L 33.06252881934473,160 L 34.53441616709921,160 L 34.563203969948056,160 L 34.59271945461984,160 L 36.069292363380534,160 L 36.09406904203466,160 L 36.126140287255296,160 L 37.59799213833548,160 L 37.62159742673805,160 L 37.6491605943239,160 L 39.13457217498271,160 L 39.16169163413994,160 L 39.197614268520994,160 L 40.6672120807838,160 L 40.69491723506681,160 L 40.7288343073505,160 L 42.19514867724151,160 L 42.220546547695704,160 L 42.254073156562214,160 L 43.72533931251662,160 L 43.75776552448015,160 L 43.790138491432245,160 L 45.26486557312988,160 L 45.290582913652685,160 L 45.321553761970335,160 L 46.79951104102833,160 L 46.82526387822542,160 L 46.85635896490309,160 L 48.329701676303436,160 L 48.35905742594092,160 L 48.38999277758428,160 L 49.86809204333943,160 L 49.89602792600533,160 L 49.92916407145465,160 L 51.402560027866436,160 L 51.42811763335493,160 L 51.463987022724545,160 L 52.931508279541404,160 L 52.95679965997273,160 L 52.98711381981603,160 L 54.46466288711969,160 L 54.490202744271045,160 L 54.52106710256582,160 L 55.99980530845819,160 L 56.02106781635765,160 L 56.051541711235245,160 L 57.53313739940792,160 L 57.55794957473634,160 L 57.578519897487155,160 L 59.06453492160888,160 L 59.08817570668573,160 L 59.118081654774706,160 L 60.59413986175821,160 L 60.62968978105921,160 L 60.66190301297701,160 L 62.134127579137235,160 L 62.16053710480868,160 L 62.19147245645205,160 L 63.66790337851559,160 L 63.69372720906125,160 L 63.71866362274968,160 L 65.20302805151695,160 L 65.22517797627364,160 L 65.25096631014502,160 L 66.73222477991195,160 L 66.75748066366897,160 L 66.78591349977492,160 L 68.26814812808482,160 L 68.29015606614435,160 L 68.3206477093591,160 L 69.79067148171337,160 L 69.82394961385984,160 L 69.8546009921089,160 L 71.33545125012148,160 L 71.36391958290173,160 L 71.39284937244773,160 L 72.86977724795133,160 L 72.89943471932028,160 L 72.93280159315248,160 L 74.3983705328834,160 L 74.42327144989756,160 L 74.45177527935208,160 L 75.9321995772732,160 L 75.95072884125236,160 L 75.98333253658733,160 L 77.46673855514878,160 L 77.48911920828834,160 L 77.51955760649167,160 L 79.00184547981299,160 L 79.02426162962685,160 L 79.05090188368118,160 L 80.53272830023674,80.1767955801105 L 80.55546392011922,80.1767955801105 L 80.58464218638525,80.1767955801105 L 82.0676577415295,80.1767955801105 L 82.09124528159492,80.1767955801105 L 82.12413295032422,80.1767955801105 L 83.59234639228973,80.1767955801105 L 83.62535829937903,80.1767955801105 L 83.6576780213197,80.1767955801105 L 85.13520934028621,80.1767955801105 L 85.15254946567666,80.1767955801105 L 85.18211819535989,80.1767955801105 L 86.66589692900138,80.1767955801105 L 86.69015890587829,80.1767955801105 L 86.72207041606462,80.1767955801105 L 88.19310584363615,80.1767955801105 L 88.2249463604739,80.1767955801105 L 88.253396944917,80.1767955801105 L 89.7333775344095,80.1767955801105 L 89.7584204381208,80.1767955801105 L 89.78591261235806,80.1767955801105 L 91.26465081825043,80.1767955801105 L 91.28921451685882,80.1767955801105 L 91.31404444052438,80.1767955801105 L 91.35339250397438,80.1767955801105 L 92.80364462874935,80.1767955801105 L 92.82955720098074,80.1767955801105 L 92.85649917676653,80.1767955801105 L 94.33605380616756,80.1767955801105 L 94.36189538505037,80.1767955801105 L 94.39013298944774,80.1767955801105 L 95.86872920864293,80.1767955801105 L 95.89251198041696,80.1767955801105 L 95.91964918791133,80.1767955801105 L 97.39767746031791,80.1767955801105 L 97.42625228312102,80.1767955801105 L 98.94190703027454,80.1767955801105 L 98.95926490400214,80.1767955801105 L 98.98681032325085,80.1767955801105 L 100.46773157461203,80.1767955801105 L 100.4921710348604,80.1767955801105 L 100.52237870468083,80.1767955801105 L 102.00081518884173,80.1767955801105 L 102.02466895396432,80.1767955801105 L 102.0514866913901,80.1767955801105 L 103.53695151706034,80.1767955801105 L 103.56254461922313,80.1767955801105 L 103.59461586444377,80.1767955801105 L 105.07200519671312,80.1767955801105 L 105.09958611263612,80.1767955801105 L 105.12603113498186,80.1767955801105 L 106.60801728657171,80.1767955801105 L 106.62498469688214,80.1767955801105 L 106.65371925471955,80.1767955801105 L 108.13614911473802,80.1767955801105 L 108.15833453616901,80.1767955801105 L 108.18378565163464,80.1767955801105 L 109.66928597397917,80.1767955801105 L 109.68996278675284,80.1767955801105 L 109.72132409848768,80.1767955801105 L 111.20206786647742,80.1767955801105 L 111.22475024134845,80.1767955801105 L 111.25431897103167,80.1767955801105 L 112.73259572015827,80.1767955801105 L 112.7544439231835,80.1767955801105 L 112.78662165842701,80.1767955801105 L 114.2650936392622,80.1767955801105 L 114.29716488448283,80.1767955801105 L 114.32991056651495,80.1767955801105 L 115.80375023135537,80.1767955801105 L 115.8273022747465,80.1767955801105 L 115.85692424944115,80.1767955801105 L 117.33681609724793,80.1767955801105 L 117.36003092223332,80.1767955801105 L 117.38965289692797,80.1767955801105 L 118.87100010838061,80.1767955801105 L 118.90149175159536,80.1767955801105 L 118.93752087599928,80.1767955801105 L 120.40486464944469,80.1767955801105 L 120.4270145742014,80.1767955801105 L 120.45534092028447,80.1767955801105 L 121.93995382577177,80.1767955801105 L 121.95874931480809,80.1767955801105 L 121.98840678617704,80.1767955801105 L 123.46836962733238,80.1767955801105 L 123.4904840554148,80.1767955801105 L 123.51872165981216,80.1767955801105 L 123.55735978977634,80.1767955801105 L 125.00589032584828,80.1767955801105 L 125.03540581052007,80.1767955801105 L 125.06470831514612,80.1767955801105 L 126.5355662593462,80.1767955801105 L 126.56259697681772,80.1767955801105 L 126.59083458121506,80.1767955801105 L 128.07166709089051,80.1767955801105 L 128.08685966748646,80.1767955801105 L 128.1225160768103,80.1767955801105 L 129.60349057318294,80.1767955801105 L 129.62869321192852,80.1767955801105 L 129.6494055213765,80.1767955801105 L 131.1381005444071,80.1767955801105 L 131.1619188128554,80.1767955801105 L 131.19090184741285,80.1767955801105 L 132.67239104556265,80.1767955801105 L 132.6978421610283,80.1767955801105 L 132.72574254701988,80.1767955801105 L 134.20448075291225,80.1767955801105 L 134.22469610892017,80.1767955801105 L 134.25591543395785,80.1767955801105 L 135.74070582281658,80.1767955801105 L 135.7625362775047,80.1767955801105 L 135.79315215907943,80.1767955801105 L 137.2730795035605,80.1767955801105 L 137.29851287068897,80.1767955801105 L 137.32914650060087,80.1767955801105 L 138.805648416013,80.1767955801105 L 138.83019436628427,80.1767955801105 L 138.84856389522912,80.1767955801105 L 140.33610527634528,80.1767955801105 L 140.3708210238005,80.1767955801105 L 140.39426657716876,80.1767955801105 L 141.8728805447011,80.1767955801105 L 141.89671656148656,80.1767955801105 L 143.43196547284793,80.1767955801105 L 143.45812652179933,80.1767955801105 L 144.93627903256595,80.1767955801105 L 144.9592808775056,80.1767955801105 L 144.98666656171997,80.1767955801105 L 146.47316079094463,80.1767955801105 L 146.50177111042203,80.1767955801105 L 146.5290680529507,80.1767955801105 L 148.0066348685915,80.1767955801105 L 148.03604386324042,80.1767955801105 L 148.06474292440356,80.1767955801105 L 149.54273570013584,80.1767955801105 L 149.57017462936167,80.1767955801105 L 149.59377991776427,80.1767955801105 L 151.07186143518226,80.1767955801105 L 151.09992155620816,40 L 151.12872710739416,40 L 152.6334133821922,40 L 152.6590774777036,40 L 154.1343192611784,40 L 154.16190017710142,40 L 154.18037619606912,40 L 155.6715914829743,40 L 155.69904816053727,40 L 155.72709053322603,40 L 157.20213708499227,40 L 157.23069415945824,40 L 157.26580037033062,40 L 158.74189407398842,40 L 158.77185326708883,40 L 158.79316901999974,40 L 160.2743209997438,40 L 160.2982990032264,40 L 160.32765475286385,40 L 161.8102975929281,40 L 161.86464300126542,40 L 163.33951206966023,40 L 163.368903315972,40 L 163.39598727845495,40 L 164.87463674266158,40 L 164.90244838696748,40 L 164.93148466653633,40 L 166.4087142637714,40 L 166.43707610652876,40 L 166.4689876167151,40 L 167.94146065959535,40 L 167.9713133626729,40 L 168.0019824892591,40 L 169.47756149113968,40 L 169.50684624742857,40 L 169.53476438175733,40 L 171.01312987256966,40 L 171.0341971487605,40 L 171.0633576666894,40 L 172.5411907073874,40 L 172.56829241820748,40 L 172.59970697495373,40 L 174.07533922184578,40 L 174.10228119763156,40 L 174.1319386690005,40 L 175.60893753785268,40 L 175.63445964666687,40 L 175.66592744842458,40 L 177.14360075408825,40 L 177.16912286290247,40 L 177.1927813963165,40 L 178.68231059119287,40 L 178.70405230419524,40 L 178.7356975893244,40 L 180.21109910783355,40 L 180.2361242632077,40 L 180.26427312591932,40 L 181.74382775532035,40 L 181.76587119005418,40 L 181.7992025672121,40 L 183.2757044826242,40 L 183.3015815581813,40 L 183.33333333333334,40" fill="none" stroke="none"/>
  </g>
  
  <!-- Footer -->
  <text x="400" y="580" text-anchor="middle" fill="#94a3b8" font-size="12" font-family="Arial, sans-serif">
    Generated by GitHub User Rank Tracker • 11/12/2025
    <animate attributeName="opacity" values="0;1" dur="0.5s" begin="5s" fill="freeze"/>
  </text>
</svg>