<svg width="800" height="600" xmlns="http://www.w3.org/2000/svg">
  <defs>
    <linearGradient id="bgGradient" x1="0%" y1="0%" x2="100%" y2="100%">
      <stop offset="0%" style="stop-color:#f8fafc;stop-opacity:1" />
      <stop offset="100%" style="stop-color:#e2e8f0;stop-opacity:1" />
    </linearGradient>
    <filter id="shadow" x="-20%" y="-20%" width="140%" height="140%">
      <feDropShadow dx="2" dy="2" stdDeviation="3" flood-color="#00000020" flood-opacity="0.1"/>
    </filter>
    <!-- Trail effect filter -->
    <filter id="trailGlow" x="-50%" y="-50%" width="200%" height="200%">
      <feGaussianBlur stdDeviation="3" result="coloredBlur"/>
      <feMerge> 
        <feMergeNode in="coloredBlur"/>
        <feMergeNode in="SourceGraphic"/>
      </feMerge>
    </filter>
  </defs>
  
  <!-- Background -->
  <rect width="800" height="600" fill="url(#bgGradient)" rx="12"/>
  
  <!-- Header -->
  <text x="400" y="40" text-anchor="middle" fill="#0f172a" font-size="24" font-weight="bold" font-family="Arial, sans-serif">
    GitHub Progress Report
    <animate attributeName="opacity" values="0;1" dur="0.8s" begin="0s" fill="freeze"/>
    <animateTransform attributeName="transform" type="translate" values="0,-20;0,0" dur="0.8s" begin="0s" fill="freeze"/>
  </text>
  
  <!-- User Info -->
  <text x="400" y="70" text-anchor="middle" fill="#475569" font-size="16" font-family="Arial, sans-serif">
    @maifeeulasad • BANGLADESH • 100 days analyzed
    <animate attributeName="opacity" values="0;1" dur="0.6s" begin="0.3s" fill="freeze"/>
  </text>
  
  <!-- Progress Cards -->
  <!-- Followers Card -->
  <g transform="translate(60, 100)">
    <rect width="206.66666666666666" height="120" fill="#ffffff" stroke="#e2e8f0" stroke-width="1" rx="8" filter="url(#shadow)">
      <animate attributeName="opacity" values="0;1" dur="0.6s" begin="0.2s" fill="freeze"/>
      <animateTransform attributeName="transform" type="scale" values="0.8;1" dur="0.6s" begin="0.2s" fill="freeze"/>
    </rect>
    <text x="103.33333333333333" y="25" text-anchor="middle" fill="#64748b" font-size="14" font-weight="bold" font-family="Arial, sans-serif">FOLLOWERS
      <animate attributeName="opacity" values="0;1" dur="0.5s" begin="0.4s" fill="freeze"/>
    </text>
    
    <text x="103.33333333333333" y="50" text-anchor="middle" fill="#22c55e" font-size="32" font-weight="bold" font-family="Arial, sans-serif">
      ↗
      <animate attributeName="opacity" values="0;1" dur="0.5s" begin="0.6s" fill="freeze"/>
      <animateTransform attributeName="transform" type="scale" values="0;1.2;1" dur="0.8s" begin="0.6s" fill="freeze"/>
    </text>
    
    <text x="103.33333333333333" y="75" text-anchor="middle" fill="#1e293b" font-size="18" font-weight="bold" font-family="Arial, sans-serif">
      +6
      <animate attributeName="opacity" values="0;1" dur="0.5s" begin="0.8s" fill="freeze"/>
    </text>
    
    <text x="103.33333333333333" y="95" text-anchor="middle" fill="#64748b" font-size="12" font-family="Arial, sans-serif">
      #464 → #458
      <animate attributeName="opacity" values="0;1" dur="0.5s" begin="1s" fill="freeze"/>
    </text>
  </g>
  
  <!-- Public Contributions Card -->
  <g transform="translate(296.66666666666663, 100)">
    <rect width="206.66666666666666" height="120" fill="#ffffff" stroke="#e2e8f0" stroke-width="1" rx="8" filter="url(#shadow)">
      <animate attributeName="opacity" values="0;1" dur="0.6s" begin="0.4s" fill="freeze"/>
      <animateTransform attributeName="transform" type="scale" values="0.8;1" dur="0.6s" begin="0.4s" fill="freeze"/>
    </rect>
    <text x="103.33333333333333" y="25" text-anchor="middle" fill="#64748b" font-size="14" font-weight="bold" font-family="Arial, sans-serif">PUBLIC
      <animate attributeName="opacity" values="0;1" dur="0.5s" begin="0.6s" fill="freeze"/>
    </text>
    
    <text x="103.33333333333333" y="50" text-anchor="middle" fill="#22c55e" font-size="32" font-weight="bold" font-family="Arial, sans-serif">
      ↗
      <animate attributeName="opacity" values="0;1" dur="0.5s" begin="0.8s" fill="freeze"/>
      <animateTransform attributeName="transform" type="scale" values="0;1.2;1" dur="0.8s" begin="0.8s" fill="freeze"/>
    </text>
    
    <text x="103.33333333333333" y="75" text-anchor="middle" fill="#1e293b" font-size="18" font-weight="bold" font-family="Arial, sans-serif">
      +12
      <animate attributeName="opacity" values="0;1" dur="0.5s" begin="1s" fill="freeze"/>
    </text>
    
    <text x="103.33333333333333" y="95" text-anchor="middle" fill="#64748b" font-size="12" font-family="Arial, sans-serif">
      #18 → #6
      <animate attributeName="opacity" values="0;1" dur="0.5s" begin="1.2s" fill="freeze"/>
    </text>
  </g>
  
  <!-- Total Contributions Card -->
  <g transform="translate(533.3333333333333, 100)">
    <rect width="206.66666666666666" height="120" fill="#ffffff" stroke="#e2e8f0" stroke-width="1" rx="8" filter="url(#shadow)">
      <animate attributeName="opacity" values="0;1" dur="0.6s" begin="0.6s" fill="freeze"/>
      <animateTransform attributeName="transform" type="scale" values="0.8;1" dur="0.6s" begin="0.6s" fill="freeze"/>
    </rect>
    <text x="103.33333333333333" y="25" text-anchor="middle" fill="#64748b" font-size="14" font-weight="bold" font-family="Arial, sans-serif">TOTAL
      <animate attributeName="opacity" values="0;1" dur="0.5s" begin="0.8s" fill="freeze"/>
    </text>
    
    <text x="103.33333333333333" y="50" text-anchor="middle" fill="#22c55e" font-size="32" font-weight="bold" font-family="Arial, sans-serif">
      ↗
      <animate attributeName="opacity" values="0;1" dur="0.5s" begin="1s" fill="freeze"/>
      <animateTransform attributeName="transform" type="scale" values="0;1.2;1" dur="0.8s" begin="1s" fill="freeze"/>
    </text>
    
    <text x="103.33333333333333" y="75" text-anchor="middle" fill="#1e293b" font-size="18" font-weight="bold" font-family="Arial, sans-serif">
      +23
      <animate attributeName="opacity" values="0;1" dur="0.5s" begin="1.2s" fill="freeze"/>
    </text>
    
    <text x="103.33333333333333" y="95" text-anchor="middle" fill="#64748b" font-size="12" font-family="Arial, sans-serif">
      #41 → #18
      <animate attributeName="opacity" values="0;1" dur="0.5s" begin="1.4s" fill="freeze"/>
    </text>
  </g>
  
  <!-- Timeline Charts (if we have snapshots) -->
  
  <!-- 👥 Followers Count Chart -->
  <g transform="translate(60, 250)">
    <!-- Chart Background -->
    <rect x="0" y="0" width="213.33333333333334" height="200" fill="#ffffff" stroke="#e2e8f0" stroke-width="1" rx="8" filter="url(#shadow)">
      <animate attributeName="opacity" values="0;1" dur="0.5s" begin="1.8s" fill="freeze"/>
    </rect>
    
    <!-- Chart Title -->
    <text x="106.66666666666667" y="25" text-anchor="middle" fill="#1e293b" font-size="14" font-weight="bold" font-family="Arial, sans-serif">
      👥 Followers Count
      <animate attributeName="opacity" values="0;1" dur="0.5s" begin="2s" fill="freeze"/>
    </text>
    
    <!-- Y-axis labels -->
    <text x="10" y="45" fill="#64748b" font-size="10" font-family="Arial, sans-serif">149
      <animate attributeName="opacity" values="0;1" dur="0.5s" begin="2.2s" fill="freeze"/>
    </text>
    <text x="10" y="185" fill="#64748b" font-size="10" font-family="Arial, sans-serif">142
      <animate attributeName="opacity" values="0;1" dur="0.5s" begin="2.2s" fill="freeze"/>
    </text>
    
    <!-- Chart Line with draw animation that follows the circle -->
    <path d="M 30,160 L 30.02797274933918,160 L 30.06221741557055,160 L 31.54269443809137,160 L 31.568337618299164,160 L 31.602188049754453,160 L 33.08766468602648,160 L 33.12040409220372,160 L 33.153089739093325,160 L 34.64206072906242,160 L 34.6680264649961,160 L 34.69929645064432,160 L 36.19152883739736,160 L 36.217530412856135,160 L 36.2489258368422,160 L 37.73649908533247,160 L 37.76613837258871,160 L 37.79737251871184,160 L 39.28974826356527,160 L 39.31795396981759,160 L 39.3514101664968,160 L 40.83903717427472,160 L 40.86484163234545,160 L 40.901057472457225,160 L 42.38275303883139,160 L 42.408288700463885,160 L 42.438895654897784,160 L 43.9307158871122,160 L 43.95650242542038,160 L 43.98766489249331,160 L 45.48068574879851,160 L 45.50215362433236,160 L 45.5329218566292,160 L 47.02882779470481,160 L 47.05387962274848,160 L 47.07464862754291,160 L 48.57501658649326,160 L 48.59888571020869,160 L 48.62908051010396,160 L 50.119395482264245,160 L 50.15528876665014,160 L 50.18781313567679,160 L 51.67425743912647,160 L 51.700922045799565,160 L 51.732156191922684,160 L 53.2228474790965,160 L 53.24892073360547,160 L 53.27409799998699,160 L 54.77279942102027,160 L 54.795163284681564,160 L 54.82120069966544,160 L 56.31676616225262,160 L 56.342265984360026,160 L 56.37097344396372,160 L 57.867524493491096,160 L 57.88974499905201,160 L 57.9205311511114,160 L 59.40475340400498,160 L 59.43835295878459,160 L 59.46930038870692,160 L 60.96445369675547,160 L 60.99319699588426,160 L 61.02240620883933,160 L 62.513599249364525,160 L 62.54354317258411,160 L 62.57723232617646,160 L 64.05695671867021,160 L 64.08209814552663,160 L 64.11087728418052,160 L 65.60560051792788,160 L 65.62430875002917,160 L 65.6572273538319,160 L 67.15496110768754,160 L 67.17755792826196,160 L 67.20829032103372,160 L 68.70489512984875,160 L 68.72752778994828,160 L 68.75442535353451,160 L 70.25056424852326,142.85714285714286 L 70.27351946434868,142.85714285714286 L 70.30297955397944,142.85714285714286 L 71.800319073059,142.85714285714286 L 71.82413443748678,142.85714285714286 L 71.85733975749031,142.85714285714286 L 73.33973419460388,142.85714285714286 L 73.37306495294524,142.85714285714286 L 73.4056968405472,142.85714285714286 L 74.89749915299905,142.85714285714286 L 74.91500676100955,142.85714285714286 L 74.94486108541639,142.85714285714286 L 76.44297115428553,142.85714285714286 L 76.46746746969019,142.85714285714286 L 76.4996872027535,142.85714285714286 L 77.9849308821124,142.85714285714286 L 78.01707893612551,142.85714285714286 L 78.04580431549175,142.85714285714286 L 79.5400795551754,142.85714285714286 L 79.56536434013222,142.85714285714286 L 79.59312205232081,142.85714285714286 L 81.086142908626,142.85714285714286 L 81.110943859994,142.85714285714286 L 81.13601360780021,142.85714285714286 L 81.17574172137162,142.85714285714286 L 82.64000135878547,142.85714285714286 L 82.66616421210719,142.85714285714286 L 82.69336641165677,142.85714285714286 L 84.18721157703922,142.85714285714286 L 84.21330275131075,142.85714285714286 L 84.2418130935264,142.85714285714286 L 85.73469059173121,142.85714285714286 L 85.75870307354703,142.85714285714286 L 85.78610239048464,142.85714285714286 L 87.27840645628788,142.85714285714286 L 87.30725727399197,142.85714285714286 L 88.83755123639935,142.85714285714286 L 88.85507676417238,142.85714285714286 L 88.88288823564862,142.85714285714286 L 90.37811322274737,142.85714285714286 L 90.4027887357775,142.85714285714286 L 90.43328817163611,142.85714285714286 L 91.92600439197798,142.85714285714286 L 91.950088552844,142.85714285714286 L 91.97716531405572,142.85714285714286 L 93.47697776036705,142.85714285714286 L 93.50281805796288,142.85714285714286 L 93.53519906888914,142.85714285714286 L 95.0268580232406,142.85714285714286 L 95.05470533424194,142.85714285714286 L 95.08140578044014,142.85714285714286 L 96.57770595329183,142.85714285714286 L 96.59483724628879,142.85714285714286 L 96.62384934185582,142.85714285714286 L 98.12059750877124,142.85714285714286 L 98.14299721195765,142.85714285714286 L 98.16869415145308,142.85714285714286 L 99.6685424372895,142.85714285714286 L 99.68941896065922,142.85714285714286 L 99.72108318108353,142.85714285714286 L 101.21612897055678,142.85714285714286 L 101.23903042709456,142.85714285714286 L 101.2688847515014,142.85714285714286 L 102.76143969398032,142.85714285714286 L 102.7834989216783,142.85714285714286 L 102.81598745117985,142.85714285714286 L 104.30873951104681,142.85714285714286 L 104.34112052197308,142.85714285714286 L 104.37418248387621,142.85714285714286 L 105.86225748571786,142.85714285714286 L 105.88603701062054,142.85714285714286 L 105.91594509431503,142.85714285714286 L 107.41013073518592,142.85714285714286 L 107.43356978460017,142.85714285714286 L 107.46347786829466,142.85714285714286 L 108.95913292969458,142.85714285714286 L 108.98991908175397,142.85714285714286 L 109.02629619972869,142.85714285714286 L 110.50781256847736,142.85714285714286 L 110.53017643213866,142.85714285714286 L 110.55877637316706,142.85714285714286 L 112.05772867087602,142.85714285714286 L 112.07670569941554,142.85714285714286 L 112.10664962263513,142.85714285714286 L 113.60090694255622,142.85714285714286 L 113.62323496669242,142.85714285714286 L 113.65174530890808,142.85714285714286 L 113.69075663197752,142.85714285714286 L 115.15327805242413,142.85714285714286 L 115.1830786175433,142.85714285714286 L 115.21266414551191,142.85714285714286 L 116.6977286272453,142.85714285714286 L 116.72502042560761,142.85714285714286 L 116.75353076782326,142.85714285714286 L 118.24866615610927,142.85714285714286 L 118.26400547285132,142.85714285714286 L 118.30000627581249,142.85714285714286 L 119.79528502219888,142.85714285714286 L 119.82073108501864,142.85714285714286 L 119.84164344791347,142.85714285714286 L 121.34471729100873,142.85714285714286 L 121.36876561234965,142.85714285714286 L 121.39802858459237,142.85714285714286 L 122.89382700409269,142.85714285714286 L 122.91952394358813,142.85714285714286 L 122.94769381031534,142.85714285714286 L 124.44071466662054,142.85714285714286 L 124.46112527616401,142.85714285714286 L 124.49264613848791,142.85714285714286 L 125.99177763382235,142.85714285714286 L 126.01381894175778,142.85714285714286 L 126.04473053215501,142.85714285714286 L 127.53895201255101,142.85714285714286 L 127.5646310322839,142.85714285714286 L 127.59556054244369,142.85714285714286 L 129.0863235086677,142.85714285714286 L 129.1111065402731,142.85714285714286 L 129.12965349451147,142.85714285714286 L 130.63156255304105,142.85714285714286 L 130.6666136085871,142.85714285714286 L 130.6902856149145,142.85714285714286 L 132.18318103288186,142.85714285714286 L 132.20724727398533,142.85714285714286 L 133.75732465424696,142.85714285714286 L 133.78373838424434,142.85714285714286 L 135.27616788838543,142.85714285714286 L 135.29939190064908,142.85714285714286 L 135.3270420942624,142.85714285714286 L 136.82789388680158,142.85714285714286 L 136.85678054403076,142.85714285714286 L 136.8843411388313,142.85714285714286 L 138.37617929080827,142.85714285714286 L 138.40587233735215,142.85714285714286 L 138.43484859339407,142.85714285714286 L 139.92711681967222,142.85714285714286 L 139.95482077257316,142.85714285714286 L 139.9786540567635,142.85714285714286 L 141.4710118818544,142.85714285714286 L 141.49934302644454,40 L 141.52842680106178,40 L 143.0476463502138,40 L 143.07355832685982,40 L 144.56304898994284,40 L 144.5908963009442,40 L 144.60955077375783,40 L 146.11516922313507,40 L 146.14289109579855,40 L 146.17120432062617,40 L 147.66049786632115,40 L 147.68933076426268,40 L 147.72477605458485,40 L 149.21512686627023,40 L 149.24537542545318,40 L 149.26689706027463,40 L 150.76235500428652,40 L 150.7865646034904,40 L 150.81620389074664,40 L 152.31316709481266,40 L 152.3680374077381,40 L 153.85715175580756,40 L 153.88682688258888,40 L 153.91417244023887,40 L 155.40710369773132,40 L 155.43518396564582,40 L 155.46450069717616,40 L 156.95599837366467,40 L 156.98463415421818,40 L 157.0168538872815,40 L 158.50354906740688,40 L 158.5336901080145,40 L 158.5646554576994,40 L 160.05448659627083,40 L 160.0840542044769,40 L 160.11224199096665,40 L 161.60488653225835,40 L 161.62615729040414,40 L 161.65559946027233,40 L 163.14770640868755,40 L 163.17506988610003,40 L 163.206787865812,40 L 164.6966727636711,40 L 164.72387496322065,40 L 164.75381888644026,40 L 166.24508360601564,40 L 166.27085222456128,40 L 166.30262396356088,40 L 167.79456963411315,40 L 167.82033825265876,40 L 167.84422529613676,40 L 169.34814136807182,40 L 169.3700930771945,40 L 169.4020440138196,40 L 170.89169595476554,40 L 170.9169628199598,40 L 170.9453835633627,40 L 172.43922872874518,40 L 172.46148507383117,40 L 172.49513838789844,40 L 173.98590135412246,40 L 174.01202836791907,40 L 174.04408682311944,40 L 175.53244854116187,40 L 175.55681941822868,40 L 175.59149415876124,40 L 177.07661239978228,40 L 177.10809742258107,40 L 177.1404246742197,40 L 178.63032749184134,40 L 178.65546891869778,40 L 178.68496484785365,40 L 180.1806736685412,40 L 180.20782210880313,40 L 180.24081239165605,40 L 181.72632486745317,40 L 181.75804284716511,40 L 181.7930939027112,40 L 183.2776566310932,40 L 183.30177663148433,40 L 183.33333333333334,40" stroke="#22c55e" stroke-width="2" fill="none" stroke-dasharray="14850" stroke-dashoffset="14850">
      <animate attributeName="stroke-dashoffset" values="14850;0" dur="3s" begin="2.6s" fill="freeze"/>
    </path>
    
    <!-- Glow effect for the line that also follows the circle -->
    <path d="M 30,160 L 30.02797274933918,160 L 30.06221741557055,160 L 31.54269443809137,160 L 31.568337618299164,160 L 31.602188049754453,160 L 33.08766468602648,160 L 33.12040409220372,160 L 33.153089739093325,160 L 34.64206072906242,160 L 34.6680264649961,160 L 34.69929645064432,160 L 36.19152883739736,160 L 36.217530412856135,160 L 36.2489258368422,160 L 37.73649908533247,160 L 37.76613837258871,160 L 37.79737251871184,160 L 39.28974826356527,160 L 39.31795396981759,160 L 39.3514101664968,160 L 40.83903717427472,160 L 40.86484163234545,160 L 40.901057472457225,160 L 42.38275303883139,160 L 42.408288700463885,160 L 42.438895654897784,160 L 43.9307158871122,160 L 43.95650242542038,160 L 43.98766489249331,160 L 45.48068574879851,160 L 45.50215362433236,160 L 45.5329218566292,160 L 47.02882779470481,160 L 47.05387962274848,160 L 47.07464862754291,160 L 48.57501658649326,160 L 48.59888571020869,160 L 48.62908051010396,160 L 50.119395482264245,160 L 50.15528876665014,160 L 50.18781313567679,160 L 51.67425743912647,160 L 51.700922045799565,160 L 51.732156191922684,160 L 53.2228474790965,160 L 53.24892073360547,160 L 53.27409799998699,160 L 54.77279942102027,160 L 54.795163284681564,160 L 54.82120069966544,160 L 56.31676616225262,160 L 56.342265984360026,160 L 56.37097344396372,160 L 57.867524493491096,160 L 57.88974499905201,160 L 57.9205311511114,160 L 59.40475340400498,160 L 59.43835295878459,160 L 59.46930038870692,160 L 60.96445369675547,160 L 60.99319699588426,160 L 61.02240620883933,160 L 62.513599249364525,160 L 62.54354317258411,160 L 62.57723232617646,160 L 64.05695671867021,160 L 64.08209814552663,160 L 64.11087728418052,160 L 65.60560051792788,160 L 65.62430875002917,160 L 65.6572273538319,160 L 67.15496110768754,160 L 67.17755792826196,160 L 67.20829032103372,160 L 68.70489512984875,160 L 68.72752778994828,160 L 68.75442535353451,160 L 70.25056424852326,142.85714285714286 L 70.27351946434868,142.85714285714286 L 70.30297955397944,142.85714285714286 L 71.800319073059,142.85714285714286 L 71.82413443748678,142.85714285714286 L 71.85733975749031,142.85714285714286 L 73.33973419460388,142.85714285714286 L 73.37306495294524,142.85714285714286 L 73.4056968405472,142.85714285714286 L 74.89749915299905,142.85714285714286 L 74.91500676100955,142.85714285714286 L 74.94486108541639,142.85714285714286 L 76.44297115428553,142.85714285714286 L 76.46746746969019,142.85714285714286 L 76.4996872027535,142.85714285714286 L 77.9849308821124,142.85714285714286 L 78.01707893612551,142.85714285714286 L 78.04580431549175,142.85714285714286 L 79.5400795551754,142.85714285714286 L 79.56536434013222,142.85714285714286 L 79.59312205232081,142.85714285714286 L 81.086142908626,142.85714285714286 L 81.110943859994,142.85714285714286 L 81.13601360780021,142.85714285714286 L 81.17574172137162,142.85714285714286 L 82.64000135878547,142.85714285714286 L 82.66616421210719,142.85714285714286 L 82.69336641165677,142.85714285714286 L 84.18721157703922,142.85714285714286 L 84.21330275131075,142.85714285714286 L 84.2418130935264,142.85714285714286 L 85.73469059173121,142.85714285714286 L 85.75870307354703,142.85714285714286 L 85.78610239048464,142.85714285714286 L 87.27840645628788,142.85714285714286 L 87.30725727399197,142.85714285714286 L 88.83755123639935,142.85714285714286 L 88.85507676417238,142.85714285714286 L 88.88288823564862,142.85714285714286 L 90.37811322274737,142.85714285714286 L 90.4027887357775,142.85714285714286 L 90.43328817163611,142.85714285714286 L 91.92600439197798,142.85714285714286 L 91.950088552844,142.85714285714286 L 91.97716531405572,142.85714285714286 L 93.47697776036705,142.85714285714286 L 93.50281805796288,142.85714285714286 L 93.53519906888914,142.85714285714286 L 95.0268580232406,142.85714285714286 L 95.05470533424194,142.85714285714286 L 95.08140578044014,142.85714285714286 L 96.57770595329183,142.85714285714286 L 96.59483724628879,142.85714285714286 L 96.62384934185582,142.85714285714286 L 98.12059750877124,142.85714285714286 L 98.14299721195765,142.85714285714286 L 98.16869415145308,142.85714285714286 L 99.6685424372895,142.85714285714286 L 99.68941896065922,142.85714285714286 L 99.72108318108353,142.85714285714286 L 101.21612897055678,142.85714285714286 L 101.23903042709456,142.85714285714286 L 101.2688847515014,142.85714285714286 L 102.76143969398032,142.85714285714286 L 102.7834989216783,142.85714285714286 L 102.81598745117985,142.85714285714286 L 104.30873951104681,142.85714285714286 L 104.34112052197308,142.85714285714286 L 104.37418248387621,142.85714285714286 L 105.86225748571786,142.85714285714286 L 105.88603701062054,142.85714285714286 L 105.91594509431503,142.85714285714286 L 107.41013073518592,142.85714285714286 L 107.43356978460017,142.85714285714286 L 107.46347786829466,142.85714285714286 L 108.95913292969458,142.85714285714286 L 108.98991908175397,142.85714285714286 L 109.02629619972869,142.85714285714286 L 110.50781256847736,142.85714285714286 L 110.53017643213866,142.85714285714286 L 110.55877637316706,142.85714285714286 L 112.05772867087602,142.85714285714286 L 112.07670569941554,142.85714285714286 L 112.10664962263513,142.85714285714286 L 113.60090694255622,142.85714285714286 L 113.62323496669242,142.85714285714286 L 113.65174530890808,142.85714285714286 L 113.69075663197752,142.85714285714286 L 115.15327805242413,142.85714285714286 L 115.1830786175433,142.85714285714286 L 115.21266414551191,142.85714285714286 L 116.6977286272453,142.85714285714286 L 116.72502042560761,142.85714285714286 L 116.75353076782326,142.85714285714286 L 118.24866615610927,142.85714285714286 L 118.26400547285132,142.85714285714286 L 118.30000627581249,142.85714285714286 L 119.79528502219888,142.85714285714286 L 119.82073108501864,142.85714285714286 L 119.84164344791347,142.85714285714286 L 121.34471729100873,142.85714285714286 L 121.36876561234965,142.85714285714286 L 121.39802858459237,142.85714285714286 L 122.89382700409269,142.85714285714286 L 122.91952394358813,142.85714285714286 L 122.94769381031534,142.85714285714286 L 124.44071466662054,142.85714285714286 L 124.46112527616401,142.85714285714286 L 124.49264613848791,142.85714285714286 L 125.99177763382235,142.85714285714286 L 126.01381894175778,142.85714285714286 L 126.04473053215501,142.85714285714286 L 127.53895201255101,142.85714285714286 L 127.5646310322839,142.85714285714286 L 127.59556054244369,142.85714285714286 L 129.0863235086677,142.85714285714286 L 129.1111065402731,142.85714285714286 L 129.12965349451147,142.85714285714286 L 130.63156255304105,142.85714285714286 L 130.6666136085871,142.85714285714286 L 130.6902856149145,142.85714285714286 L 132.18318103288186,142.85714285714286 L 132.20724727398533,142.85714285714286 L 133.75732465424696,142.85714285714286 L 133.78373838424434,142.85714285714286 L 135.27616788838543,142.85714285714286 L 135.29939190064908,142.85714285714286 L 135.3270420942624,142.85714285714286 L 136.82789388680158,142.85714285714286 L 136.85678054403076,142.85714285714286 L 136.8843411388313,142.85714285714286 L 138.37617929080827,142.85714285714286 L 138.40587233735215,142.85714285714286 L 138.43484859339407,142.85714285714286 L 139.92711681967222,142.85714285714286 L 139.95482077257316,142.85714285714286 L 139.9786540567635,142.85714285714286 L 141.4710118818544,142.85714285714286 L 141.49934302644454,40 L 141.52842680106178,40 L 143.0476463502138,40 L 143.07355832685982,40 L 144.56304898994284,40 L 144.5908963009442,40 L 144.60955077375783,40 L 146.11516922313507,40 L 146.14289109579855,40 L 146.17120432062617,40 L 147.66049786632115,40 L 147.68933076426268,40 L 147.72477605458485,40 L 149.21512686627023,40 L 149.24537542545318,40 L 149.26689706027463,40 L 150.76235500428652,40 L 150.7865646034904,40 L 150.81620389074664,40 L 152.31316709481266,40 L 152.3680374077381,40 L 153.85715175580756,40 L 153.88682688258888,40 L 153.91417244023887,40 L 155.40710369773132,40 L 155.43518396564582,40 L 155.46450069717616,40 L 156.95599837366467,40 L 156.98463415421818,40 L 157.0168538872815,40 L 158.50354906740688,40 L 158.5336901080145,40 L 158.5646554576994,40 L 160.05448659627083,40 L 160.0840542044769,40 L 160.11224199096665,40 L 161.60488653225835,40 L 161.62615729040414,40 L 161.65559946027233,40 L 163.14770640868755,40 L 163.17506988610003,40 L 163.206787865812,40 L 164.6966727636711,40 L 164.72387496322065,40 L 164.75381888644026,40 L 166.24508360601564,40 L 166.27085222456128,40 L 166.30262396356088,40 L 167.79456963411315,40 L 167.82033825265876,40 L 167.84422529613676,40 L 169.34814136807182,40 L 169.3700930771945,40 L 169.4020440138196,40 L 170.89169595476554,40 L 170.9169628199598,40 L 170.9453835633627,40 L 172.43922872874518,40 L 172.46148507383117,40 L 172.49513838789844,40 L 173.98590135412246,40 L 174.01202836791907,40 L 174.04408682311944,40 L 175.53244854116187,40 L 175.55681941822868,40 L 175.59149415876124,40 L 177.07661239978228,40 L 177.10809742258107,40 L 177.1404246742197,40 L 178.63032749184134,40 L 178.65546891869778,40 L 178.68496484785365,40 L 180.1806736685412,40 L 180.20782210880313,40 L 180.24081239165605,40 L 181.72632486745317,40 L 181.75804284716511,40 L 181.7930939027112,40 L 183.2776566310932,40 L 183.30177663148433,40 L 183.33333333333334,40" stroke="#22c55e" stroke-width="4" fill="none" opacity="0.4" stroke-dasharray="14850" stroke-dashoffset="14850">
      <animate attributeName="stroke-dashoffset" values="14850;0" dur="3s" begin="2.6s" fill="freeze"/>
    </path>
    
    <!-- Animated circle that moves along the path and draws the line -->
    <circle r="5" fill="#22c55e" opacity="0" filter="url(#trailGlow)">
      <animate attributeName="opacity" values="0;1;1;1" dur="3.2s" begin="2.4s" fill="freeze"/>
      <animate attributeName="r" values="5;6;5" dur="1s" begin="2.4s" repeatCount="3"/>
      <animateMotion dur="3s" begin="2.4s" fill="freeze">
        <mpath href="#path_followersCount_60"/>
      </animateMotion>
    </circle>
    
    <!-- Small trail dots that fade out -->
    <circle r="2" fill="#22c55e" opacity="0">
      <animate attributeName="opacity" values="0;0.6;0" dur="0.8s" begin="2.8s" fill="freeze"/>
      <animateMotion dur="3s" begin="2.4s" fill="freeze">
        <mpath href="#path_followersCount_60"/>
      </animateMotion>
    </circle>
    
    <!-- Hidden path for motion animation -->
    <path id="path_followersCount_60" d="M 30,160 L 30.02797274933918,160 L 30.06221741557055,160 L 31.54269443809137,160 L 31.568337618299164,160 L 31.602188049754453,160 L 33.08766468602648,160 L 33.12040409220372,160 L 33.153089739093325,160 L 34.64206072906242,160 L 34.6680264649961,160 L 34.69929645064432,160 L 36.19152883739736,160 L 36.217530412856135,160 L 36.2489258368422,160 L 37.73649908533247,160 L 37.76613837258871,160 L 37.79737251871184,160 L 39.28974826356527,160 L 39.31795396981759,160 L 39.3514101664968,160 L 40.83903717427472,160 L 40.86484163234545,160 L 40.901057472457225,160 L 42.38275303883139,160 L 42.408288700463885,160 L 42.438895654897784,160 L 43.9307158871122,160 L 43.95650242542038,160 L 43.98766489249331,160 L 45.48068574879851,160 L 45.50215362433236,160 L 45.5329218566292,160 L 47.02882779470481,160 L 47.05387962274848,160 L 47.07464862754291,160 L 48.57501658649326,160 L 48.59888571020869,160 L 48.62908051010396,160 L 50.119395482264245,160 L 50.15528876665014,160 L 50.18781313567679,160 L 51.67425743912647,160 L 51.700922045799565,160 L 51.732156191922684,160 L 53.2228474790965,160 L 53.24892073360547,160 L 53.27409799998699,160 L 54.77279942102027,160 L 54.795163284681564,160 L 54.82120069966544,160 L 56.31676616225262,160 L 56.342265984360026,160 L 56.37097344396372,160 L 57.867524493491096,160 L 57.88974499905201,160 L 57.9205311511114,160 L 59.40475340400498,160 L 59.43835295878459,160 L 59.46930038870692,160 L 60.96445369675547,160 L 60.99319699588426,160 L 61.02240620883933,160 L 62.513599249364525,160 L 62.54354317258411,160 L 62.57723232617646,160 L 64.05695671867021,160 L 64.08209814552663,160 L 64.11087728418052,160 L 65.60560051792788,160 L 65.62430875002917,160 L 65.6572273538319,160 L 67.15496110768754,160 L 67.17755792826196,160 L 67.20829032103372,160 L 68.70489512984875,160 L 68.72752778994828,160 L 68.75442535353451,160 L 70.25056424852326,142.85714285714286 L 70.27351946434868,142.85714285714286 L 70.30297955397944,142.85714285714286 L 71.800319073059,142.85714285714286 L 71.82413443748678,142.85714285714286 L 71.85733975749031,142.85714285714286 L 73.33973419460388,142.85714285714286 L 73.37306495294524,142.85714285714286 L 73.4056968405472,142.85714285714286 L 74.89749915299905,142.85714285714286 L 74.91500676100955,142.85714285714286 L 74.94486108541639,142.85714285714286 L 76.44297115428553,142.85714285714286 L 76.46746746969019,142.85714285714286 L 76.4996872027535,142.85714285714286 L 77.9849308821124,142.85714285714286 L 78.01707893612551,142.85714285714286 L 78.04580431549175,142.85714285714286 L 79.5400795551754,142.85714285714286 L 79.56536434013222,142.85714285714286 L 79.59312205232081,142.85714285714286 L 81.086142908626,142.85714285714286 L 81.110943859994,142.85714285714286 L 81.13601360780021,142.85714285714286 L 81.17574172137162,142.85714285714286 L 82.64000135878547,142.85714285714286 L 82.66616421210719,142.85714285714286 L 82.69336641165677,142.85714285714286 L 84.18721157703922,142.85714285714286 L 84.21330275131075,142.85714285714286 L 84.2418130935264,142.85714285714286 L 85.73469059173121,142.85714285714286 L 85.75870307354703,142.85714285714286 L 85.78610239048464,142.85714285714286 L 87.27840645628788,142.85714285714286 L 87.30725727399197,142.85714285714286 L 88.83755123639935,142.85714285714286 L 88.85507676417238,142.85714285714286 L 88.88288823564862,142.85714285714286 L 90.37811322274737,142.85714285714286 L 90.4027887357775,142.85714285714286 L 90.43328817163611,142.85714285714286 L 91.92600439197798,142.85714285714286 L 91.950088552844,142.85714285714286 L 91.97716531405572,142.85714285714286 L 93.47697776036705,142.85714285714286 L 93.50281805796288,142.85714285714286 L 93.53519906888914,142.85714285714286 L 95.0268580232406,142.85714285714286 L 95.05470533424194,142.85714285714286 L 95.08140578044014,142.85714285714286 L 96.57770595329183,142.85714285714286 L 96.59483724628879,142.85714285714286 L 96.62384934185582,142.85714285714286 L 98.12059750877124,142.85714285714286 L 98.14299721195765,142.85714285714286 L 98.16869415145308,142.85714285714286 L 99.6685424372895,142.85714285714286 L 99.68941896065922,142.85714285714286 L 99.72108318108353,142.85714285714286 L 101.21612897055678,142.85714285714286 L 101.23903042709456,142.85714285714286 L 101.2688847515014,142.85714285714286 L 102.76143969398032,142.85714285714286 L 102.7834989216783,142.85714285714286 L 102.81598745117985,142.85714285714286 L 104.30873951104681,142.85714285714286 L 104.34112052197308,142.85714285714286 L 104.37418248387621,142.85714285714286 L 105.86225748571786,142.85714285714286 L 105.88603701062054,142.85714285714286 L 105.91594509431503,142.85714285714286 L 107.41013073518592,142.85714285714286 L 107.43356978460017,142.85714285714286 L 107.46347786829466,142.85714285714286 L 108.95913292969458,142.85714285714286 L 108.98991908175397,142.85714285714286 L 109.02629619972869,142.85714285714286 L 110.50781256847736,142.85714285714286 L 110.53017643213866,142.85714285714286 L 110.55877637316706,142.85714285714286 L 112.05772867087602,142.85714285714286 L 112.07670569941554,142.85714285714286 L 112.10664962263513,142.85714285714286 L 113.60090694255622,142.85714285714286 L 113.62323496669242,142.85714285714286 L 113.65174530890808,142.85714285714286 L 113.69075663197752,142.85714285714286 L 115.15327805242413,142.85714285714286 L 115.1830786175433,142.85714285714286 L 115.21266414551191,142.85714285714286 L 116.6977286272453,142.85714285714286 L 116.72502042560761,142.85714285714286 L 116.75353076782326,142.85714285714286 L 118.24866615610927,142.85714285714286 L 118.26400547285132,142.85714285714286 L 118.30000627581249,142.85714285714286 L 119.79528502219888,142.85714285714286 L 119.82073108501864,142.85714285714286 L 119.84164344791347,142.85714285714286 L 121.34471729100873,142.85714285714286 L 121.36876561234965,142.85714285714286 L 121.39802858459237,142.85714285714286 L 122.89382700409269,142.85714285714286 L 122.91952394358813,142.85714285714286 L 122.94769381031534,142.85714285714286 L 124.44071466662054,142.85714285714286 L 124.46112527616401,142.85714285714286 L 124.49264613848791,142.85714285714286 L 125.99177763382235,142.85714285714286 L 126.01381894175778,142.85714285714286 L 126.04473053215501,142.85714285714286 L 127.53895201255101,142.85714285714286 L 127.5646310322839,142.85714285714286 L 127.59556054244369,142.85714285714286 L 129.0863235086677,142.85714285714286 L 129.1111065402731,142.85714285714286 L 129.12965349451147,142.85714285714286 L 130.63156255304105,142.85714285714286 L 130.6666136085871,142.85714285714286 L 130.6902856149145,142.85714285714286 L 132.18318103288186,142.85714285714286 L 132.20724727398533,142.85714285714286 L 133.75732465424696,142.85714285714286 L 133.78373838424434,142.85714285714286 L 135.27616788838543,142.85714285714286 L 135.29939190064908,142.85714285714286 L 135.3270420942624,142.85714285714286 L 136.82789388680158,142.85714285714286 L 136.85678054403076,142.85714285714286 L 136.8843411388313,142.85714285714286 L 138.37617929080827,142.85714285714286 L 138.40587233735215,142.85714285714286 L 138.43484859339407,142.85714285714286 L 139.92711681967222,142.85714285714286 L 139.95482077257316,142.85714285714286 L 139.9786540567635,142.85714285714286 L 141.4710118818544,142.85714285714286 L 141.49934302644454,40 L 141.52842680106178,40 L 143.0476463502138,40 L 143.07355832685982,40 L 144.56304898994284,40 L 144.5908963009442,40 L 144.60955077375783,40 L 146.11516922313507,40 L 146.14289109579855,40 L 146.17120432062617,40 L 147.66049786632115,40 L 147.68933076426268,40 L 147.72477605458485,40 L 149.21512686627023,40 L 149.24537542545318,40 L 149.26689706027463,40 L 150.76235500428652,40 L 150.7865646034904,40 L 150.81620389074664,40 L 152.31316709481266,40 L 152.3680374077381,40 L 153.85715175580756,40 L 153.88682688258888,40 L 153.91417244023887,40 L 155.40710369773132,40 L 155.43518396564582,40 L 155.46450069717616,40 L 156.95599837366467,40 L 156.98463415421818,40 L 157.0168538872815,40 L 158.50354906740688,40 L 158.5336901080145,40 L 158.5646554576994,40 L 160.05448659627083,40 L 160.0840542044769,40 L 160.11224199096665,40 L 161.60488653225835,40 L 161.62615729040414,40 L 161.65559946027233,40 L 163.14770640868755,40 L 163.17506988610003,40 L 163.206787865812,40 L 164.6966727636711,40 L 164.72387496322065,40 L 164.75381888644026,40 L 166.24508360601564,40 L 166.27085222456128,40 L 166.30262396356088,40 L 167.79456963411315,40 L 167.82033825265876,40 L 167.84422529613676,40 L 169.34814136807182,40 L 169.3700930771945,40 L 169.4020440138196,40 L 170.89169595476554,40 L 170.9169628199598,40 L 170.9453835633627,40 L 172.43922872874518,40 L 172.46148507383117,40 L 172.49513838789844,40 L 173.98590135412246,40 L 174.01202836791907,40 L 174.04408682311944,40 L 175.53244854116187,40 L 175.55681941822868,40 L 175.59149415876124,40 L 177.07661239978228,40 L 177.10809742258107,40 L 177.1404246742197,40 L 178.63032749184134,40 L 178.65546891869778,40 L 178.68496484785365,40 L 180.1806736685412,40 L 180.20782210880313,40 L 180.24081239165605,40 L 181.72632486745317,40 L 181.75804284716511,40 L 181.7930939027112,40 L 183.2776566310932,40 L 183.30177663148433,40 L 183.33333333333334,40" fill="none" stroke="none"/>
  </g>
  <!-- 🔓 Public Contributions Chart -->
  <g transform="translate(293.33333333333337, 250)">
    <!-- Chart Background -->
    <rect x="0" y="0" width="213.33333333333334" height="200" fill="#ffffff" stroke="#e2e8f0" stroke-width="1" rx="8" filter="url(#shadow)">
      <animate attributeName="opacity" values="0;1" dur="0.5s" begin="2.3s" fill="freeze"/>
    </rect>
    
    <!-- Chart Title -->
    <text x="106.66666666666667" y="25" text-anchor="middle" fill="#1e293b" font-size="14" font-weight="bold" font-family="Arial, sans-serif">
      🔓 Public Contributions
      <animate attributeName="opacity" values="0;1" dur="0.5s" begin="2.5s" fill="freeze"/>
    </text>
    
    <!-- Y-axis labels -->
    <text x="10" y="45" fill="#64748b" font-size="10" font-family="Arial, sans-serif">3,180
      <animate attributeName="opacity" values="0;1" dur="0.5s" begin="2.6999999999999997s" fill="freeze"/>
    </text>
    <text x="10" y="185" fill="#64748b" font-size="10" font-family="Arial, sans-serif">1,753
      <animate attributeName="opacity" values="0;1" dur="0.5s" begin="2.6999999999999997s" fill="freeze"/>
    </text>
    
    <!-- Chart Line with draw animation that follows the circle -->
    <path d="M 30,160 L 30.02797274933918,160 L 30.06221741557055,160 L 31.54269443809137,160 L 31.568337618299164,160 L 31.602188049754453,160 L 33.08766468602648,160 L 33.12040409220372,160 L 33.153089739093325,160 L 34.64206072906242,160 L 34.6680264649961,160 L 34.69929645064432,160 L 36.19152883739736,160 L 36.217530412856135,160 L 36.2489258368422,160 L 37.73649908533247,160 L 37.76613837258871,160 L 37.79737251871184,160 L 39.28974826356527,160 L 39.31795396981759,160 L 39.3514101664968,160 L 40.83903717427472,160 L 40.86484163234545,160 L 40.901057472457225,160 L 42.38275303883139,160 L 42.408288700463885,160 L 42.438895654897784,160 L 43.9307158871122,160 L 43.95650242542038,160 L 43.98766489249331,160 L 45.48068574879851,160 L 45.50215362433236,160 L 45.5329218566292,160 L 47.02882779470481,160 L 47.05387962274848,160 L 47.07464862754291,160 L 48.57501658649326,160 L 48.59888571020869,160 L 48.62908051010396,160 L 50.119395482264245,160 L 50.15528876665014,160 L 50.18781313567679,160 L 51.67425743912647,160 L 51.700922045799565,160 L 51.732156191922684,160 L 53.2228474790965,160 L 53.24892073360547,160 L 53.27409799998699,160 L 54.77279942102027,160 L 54.795163284681564,160 L 54.82120069966544,160 L 56.31676616225262,160 L 56.342265984360026,160 L 56.37097344396372,160 L 57.867524493491096,160 L 57.88974499905201,160 L 57.9205311511114,160 L 59.40475340400498,160 L 59.43835295878459,160 L 59.46930038870692,160 L 60.96445369675547,160 L 60.99319699588426,160 L 61.02240620883933,160 L 62.513599249364525,160 L 62.54354317258411,160 L 62.57723232617646,160 L 64.05695671867021,160 L 64.08209814552663,160 L 64.11087728418052,160 L 65.60560051792788,160 L 65.62430875002917,160 L 65.6572273538319,160 L 67.15496110768754,160 L 67.17755792826196,160 L 67.20829032103372,160 L 68.70489512984875,160 L 68.72752778994828,160 L 68.75442535353451,160 L 70.25056424852326,82.97126839523476 L 70.27351946434868,82.97126839523476 L 70.30297955397944,82.97126839523476 L 71.800319073059,82.97126839523476 L 71.82413443748678,82.97126839523476 L 71.85733975749031,82.97126839523476 L 73.33973419460388,82.97126839523476 L 73.37306495294524,82.97126839523476 L 73.4056968405472,82.97126839523476 L 74.89749915299905,82.97126839523476 L 74.91500676100955,82.97126839523476 L 74.94486108541639,82.97126839523476 L 76.44297115428553,82.97126839523476 L 76.46746746969019,82.97126839523476 L 76.4996872027535,82.97126839523476 L 77.9849308821124,82.97126839523476 L 78.01707893612551,82.97126839523476 L 78.04580431549175,82.97126839523476 L 79.5400795551754,82.97126839523476 L 79.56536434013222,82.97126839523476 L 79.59312205232081,82.97126839523476 L 81.086142908626,82.97126839523476 L 81.110943859994,82.97126839523476 L 81.13601360780021,82.97126839523476 L 81.17574172137162,82.97126839523476 L 82.64000135878547,82.97126839523476 L 82.66616421210719,82.97126839523476 L 82.69336641165677,82.97126839523476 L 84.18721157703922,82.97126839523476 L 84.21330275131075,82.97126839523476 L 84.2418130935264,82.97126839523476 L 85.73469059173121,82.97126839523476 L 85.75870307354703,82.97126839523476 L 85.78610239048464,82.97126839523476 L 87.27840645628788,82.97126839523476 L 87.30725727399197,82.97126839523476 L 88.83755123639935,82.97126839523476 L 88.85507676417238,82.97126839523476 L 88.88288823564862,82.97126839523476 L 90.37811322274737,82.97126839523476 L 90.4027887357775,82.97126839523476 L 90.43328817163611,82.97126839523476 L 91.92600439197798,82.97126839523476 L 91.950088552844,82.97126839523476 L 91.97716531405572,82.97126839523476 L 93.47697776036705,82.97126839523476 L 93.50281805796288,82.97126839523476 L 93.53519906888914,82.97126839523476 L 95.0268580232406,82.97126839523476 L 95.05470533424194,82.97126839523476 L 95.08140578044014,82.97126839523476 L 96.57770595329183,82.97126839523476 L 96.59483724628879,82.97126839523476 L 96.62384934185582,82.97126839523476 L 98.12059750877124,82.97126839523476 L 98.14299721195765,82.97126839523476 L 98.16869415145308,82.97126839523476 L 99.6685424372895,82.97126839523476 L 99.68941896065922,82.97126839523476 L 99.72108318108353,82.97126839523476 L 101.21612897055678,82.97126839523476 L 101.23903042709456,82.97126839523476 L 101.2688847515014,82.97126839523476 L 102.76143969398032,82.97126839523476 L 102.7834989216783,82.97126839523476 L 102.81598745117985,82.97126839523476 L 104.30873951104681,82.97126839523476 L 104.34112052197308,82.97126839523476 L 104.37418248387621,82.97126839523476 L 105.86225748571786,82.97126839523476 L 105.88603701062054,82.97126839523476 L 105.91594509431503,82.97126839523476 L 107.41013073518592,82.97126839523476 L 107.43356978460017,82.97126839523476 L 107.46347786829466,82.97126839523476 L 108.95913292969458,82.97126839523476 L 108.98991908175397,82.97126839523476 L 109.02629619972869,82.97126839523476 L 110.50781256847736,82.97126839523476 L 110.53017643213866,82.97126839523476 L 110.55877637316706,82.97126839523476 L 112.05772867087602,82.97126839523476 L 112.07670569941554,82.97126839523476 L 112.10664962263513,82.97126839523476 L 113.60090694255622,82.97126839523476 L 113.62323496669242,82.97126839523476 L 113.65174530890808,82.97126839523476 L 113.69075663197752,82.97126839523476 L 115.15327805242413,82.97126839523476 L 115.1830786175433,82.97126839523476 L 115.21266414551191,82.97126839523476 L 116.6977286272453,82.97126839523476 L 116.72502042560761,82.97126839523476 L 116.75353076782326,82.97126839523476 L 118.24866615610927,82.97126839523476 L 118.26400547285132,82.97126839523476 L 118.30000627581249,82.97126839523476 L 119.79528502219888,82.97126839523476 L 119.82073108501864,82.97126839523476 L 119.84164344791347,82.97126839523476 L 121.34471729100873,82.97126839523476 L 121.36876561234965,82.97126839523476 L 121.39802858459237,82.97126839523476 L 122.89382700409269,82.97126839523476 L 122.91952394358813,82.97126839523476 L 122.94769381031534,82.97126839523476 L 124.44071466662054,82.97126839523476 L 124.46112527616401,82.97126839523476 L 124.49264613848791,82.97126839523476 L 125.99177763382235,82.97126839523476 L 126.01381894175778,82.97126839523476 L 126.04473053215501,82.97126839523476 L 127.53895201255101,82.97126839523476 L 127.5646310322839,82.97126839523476 L 127.59556054244369,82.97126839523476 L 129.0863235086677,82.97126839523476 L 129.1111065402731,82.97126839523476 L 129.12965349451147,82.97126839523476 L 130.63156255304105,82.97126839523476 L 130.6666136085871,82.97126839523476 L 130.6902856149145,82.97126839523476 L 132.18318103288186,82.97126839523476 L 132.20724727398533,82.97126839523476 L 133.75732465424696,82.97126839523476 L 133.78373838424434,82.97126839523476 L 135.27616788838543,82.97126839523476 L 135.29939190064908,82.97126839523476 L 135.3270420942624,82.97126839523476 L 136.82789388680158,82.97126839523476 L 136.85678054403076,82.97126839523476 L 136.8843411388313,82.97126839523476 L 138.37617929080827,82.97126839523476 L 138.40587233735215,82.97126839523476 L 138.43484859339407,82.97126839523476 L 139.92711681967222,82.97126839523476 L 139.95482077257316,82.97126839523476 L 139.9786540567635,82.97126839523476 L 141.4710118818544,82.97126839523476 L 141.49934302644454,40 L 141.52842680106178,40 L 143.0476463502138,40 L 143.07355832685982,40 L 144.56304898994284,40 L 144.5908963009442,40 L 144.60955077375783,40 L 146.11516922313507,40 L 146.14289109579855,40 L 146.17120432062617,40 L 147.66049786632115,40 L 147.68933076426268,40 L 147.72477605458485,40 L 149.21512686627023,40 L 149.24537542545318,40 L 149.26689706027463,40 L 150.76235500428652,40 L 150.7865646034904,40 L 150.81620389074664,40 L 152.31316709481266,40 L 152.3680374077381,40 L 153.85715175580756,40 L 153.88682688258888,40 L 153.91417244023887,40 L 155.40710369773132,40 L 155.43518396564582,40 L 155.46450069717616,40 L 156.95599837366467,40 L 156.98463415421818,40 L 157.0168538872815,40 L 158.50354906740688,40 L 158.5336901080145,40 L 158.5646554576994,40 L 160.05448659627083,40 L 160.0840542044769,40 L 160.11224199096665,40 L 161.60488653225835,40 L 161.62615729040414,40 L 161.65559946027233,40 L 163.14770640868755,40 L 163.17506988610003,40 L 163.206787865812,40 L 164.6966727636711,40 L 164.72387496322065,40 L 164.75381888644026,40 L 166.24508360601564,40 L 166.27085222456128,40 L 166.30262396356088,40 L 167.79456963411315,40 L 167.82033825265876,40 L 167.84422529613676,40 L 169.34814136807182,40 L 169.3700930771945,40 L 169.4020440138196,40 L 170.89169595476554,40 L 170.9169628199598,40 L 170.9453835633627,40 L 172.43922872874518,40 L 172.46148507383117,40 L 172.49513838789844,40 L 173.98590135412246,40 L 174.01202836791907,40 L 174.04408682311944,40 L 175.53244854116187,40 L 175.55681941822868,40 L 175.59149415876124,40 L 177.07661239978228,40 L 177.10809742258107,40 L 177.1404246742197,40 L 178.63032749184134,40 L 178.65546891869778,40 L 178.68496484785365,40 L 180.1806736685412,40 L 180.20782210880313,40 L 180.24081239165605,40 L 181.72632486745317,40 L 181.75804284716511,40 L 181.7930939027112,40 L 183.2776566310932,40 L 183.30177663148433,40 L 183.33333333333334,40" stroke="#3b82f6" stroke-width="2" fill="none" stroke-dasharray="14850" stroke-dashoffset="14850">
      <animate attributeName="stroke-dashoffset" values="14850;0" dur="3s" begin="3.0999999999999996s" fill="freeze"/>
    </path>
    
    <!-- Glow effect for the line that also follows the circle -->
    <path d="M 30,160 L 30.02797274933918,160 L 30.06221741557055,160 L 31.54269443809137,160 L 31.568337618299164,160 L 31.602188049754453,160 L 33.08766468602648,160 L 33.12040409220372,160 L 33.153089739093325,160 L 34.64206072906242,160 L 34.6680264649961,160 L 34.69929645064432,160 L 36.19152883739736,160 L 36.217530412856135,160 L 36.2489258368422,160 L 37.73649908533247,160 L 37.76613837258871,160 L 37.79737251871184,160 L 39.28974826356527,160 L 39.31795396981759,160 L 39.3514101664968,160 L 40.83903717427472,160 L 40.86484163234545,160 L 40.901057472457225,160 L 42.38275303883139,160 L 42.408288700463885,160 L 42.438895654897784,160 L 43.9307158871122,160 L 43.95650242542038,160 L 43.98766489249331,160 L 45.48068574879851,160 L 45.50215362433236,160 L 45.5329218566292,160 L 47.02882779470481,160 L 47.05387962274848,160 L 47.07464862754291,160 L 48.57501658649326,160 L 48.59888571020869,160 L 48.62908051010396,160 L 50.119395482264245,160 L 50.15528876665014,160 L 50.18781313567679,160 L 51.67425743912647,160 L 51.700922045799565,160 L 51.732156191922684,160 L 53.2228474790965,160 L 53.24892073360547,160 L 53.27409799998699,160 L 54.77279942102027,160 L 54.795163284681564,160 L 54.82120069966544,160 L 56.31676616225262,160 L 56.342265984360026,160 L 56.37097344396372,160 L 57.867524493491096,160 L 57.88974499905201,160 L 57.9205311511114,160 L 59.40475340400498,160 L 59.43835295878459,160 L 59.46930038870692,160 L 60.96445369675547,160 L 60.99319699588426,160 L 61.02240620883933,160 L 62.513599249364525,160 L 62.54354317258411,160 L 62.57723232617646,160 L 64.05695671867021,160 L 64.08209814552663,160 L 64.11087728418052,160 L 65.60560051792788,160 L 65.62430875002917,160 L 65.6572273538319,160 L 67.15496110768754,160 L 67.17755792826196,160 L 67.20829032103372,160 L 68.70489512984875,160 L 68.72752778994828,160 L 68.75442535353451,160 L 70.25056424852326,82.97126839523476 L 70.27351946434868,82.97126839523476 L 70.30297955397944,82.97126839523476 L 71.800319073059,82.97126839523476 L 71.82413443748678,82.97126839523476 L 71.85733975749031,82.97126839523476 L 73.33973419460388,82.97126839523476 L 73.37306495294524,82.97126839523476 L 73.4056968405472,82.97126839523476 L 74.89749915299905,82.97126839523476 L 74.91500676100955,82.97126839523476 L 74.94486108541639,82.97126839523476 L 76.44297115428553,82.97126839523476 L 76.46746746969019,82.97126839523476 L 76.4996872027535,82.97126839523476 L 77.9849308821124,82.97126839523476 L 78.01707893612551,82.97126839523476 L 78.04580431549175,82.97126839523476 L 79.5400795551754,82.97126839523476 L 79.56536434013222,82.97126839523476 L 79.59312205232081,82.97126839523476 L 81.086142908626,82.97126839523476 L 81.110943859994,82.97126839523476 L 81.13601360780021,82.97126839523476 L 81.17574172137162,82.97126839523476 L 82.64000135878547,82.97126839523476 L 82.66616421210719,82.97126839523476 L 82.69336641165677,82.97126839523476 L 84.18721157703922,82.97126839523476 L 84.21330275131075,82.97126839523476 L 84.2418130935264,82.97126839523476 L 85.73469059173121,82.97126839523476 L 85.75870307354703,82.97126839523476 L 85.78610239048464,82.97126839523476 L 87.27840645628788,82.97126839523476 L 87.30725727399197,82.97126839523476 L 88.83755123639935,82.97126839523476 L 88.85507676417238,82.97126839523476 L 88.88288823564862,82.97126839523476 L 90.37811322274737,82.97126839523476 L 90.4027887357775,82.97126839523476 L 90.43328817163611,82.97126839523476 L 91.92600439197798,82.97126839523476 L 91.950088552844,82.97126839523476 L 91.97716531405572,82.97126839523476 L 93.47697776036705,82.97126839523476 L 93.50281805796288,82.97126839523476 L 93.53519906888914,82.97126839523476 L 95.0268580232406,82.97126839523476 L 95.05470533424194,82.97126839523476 L 95.08140578044014,82.97126839523476 L 96.57770595329183,82.97126839523476 L 96.59483724628879,82.97126839523476 L 96.62384934185582,82.97126839523476 L 98.12059750877124,82.97126839523476 L 98.14299721195765,82.97126839523476 L 98.16869415145308,82.97126839523476 L 99.6685424372895,82.97126839523476 L 99.68941896065922,82.97126839523476 L 99.72108318108353,82.97126839523476 L 101.21612897055678,82.97126839523476 L 101.23903042709456,82.97126839523476 L 101.2688847515014,82.97126839523476 L 102.76143969398032,82.97126839523476 L 102.7834989216783,82.97126839523476 L 102.81598745117985,82.97126839523476 L 104.30873951104681,82.97126839523476 L 104.34112052197308,82.97126839523476 L 104.37418248387621,82.97126839523476 L 105.86225748571786,82.97126839523476 L 105.88603701062054,82.97126839523476 L 105.91594509431503,82.97126839523476 L 107.41013073518592,82.97126839523476 L 107.43356978460017,82.97126839523476 L 107.46347786829466,82.97126839523476 L 108.95913292969458,82.97126839523476 L 108.98991908175397,82.97126839523476 L 109.02629619972869,82.97126839523476 L 110.50781256847736,82.97126839523476 L 110.53017643213866,82.97126839523476 L 110.55877637316706,82.97126839523476 L 112.05772867087602,82.97126839523476 L 112.07670569941554,82.97126839523476 L 112.10664962263513,82.97126839523476 L 113.60090694255622,82.97126839523476 L 113.62323496669242,82.97126839523476 L 113.65174530890808,82.97126839523476 L 113.69075663197752,82.97126839523476 L 115.15327805242413,82.97126839523476 L 115.1830786175433,82.97126839523476 L 115.21266414551191,82.97126839523476 L 116.6977286272453,82.97126839523476 L 116.72502042560761,82.97126839523476 L 116.75353076782326,82.97126839523476 L 118.24866615610927,82.97126839523476 L 118.26400547285132,82.97126839523476 L 118.30000627581249,82.97126839523476 L 119.79528502219888,82.97126839523476 L 119.82073108501864,82.97126839523476 L 119.84164344791347,82.97126839523476 L 121.34471729100873,82.97126839523476 L 121.36876561234965,82.97126839523476 L 121.39802858459237,82.97126839523476 L 122.89382700409269,82.97126839523476 L 122.91952394358813,82.97126839523476 L 122.94769381031534,82.97126839523476 L 124.44071466662054,82.97126839523476 L 124.46112527616401,82.97126839523476 L 124.49264613848791,82.97126839523476 L 125.99177763382235,82.97126839523476 L 126.01381894175778,82.97126839523476 L 126.04473053215501,82.97126839523476 L 127.53895201255101,82.97126839523476 L 127.5646310322839,82.97126839523476 L 127.59556054244369,82.97126839523476 L 129.0863235086677,82.97126839523476 L 129.1111065402731,82.97126839523476 L 129.12965349451147,82.97126839523476 L 130.63156255304105,82.97126839523476 L 130.6666136085871,82.97126839523476 L 130.6902856149145,82.97126839523476 L 132.18318103288186,82.97126839523476 L 132.20724727398533,82.97126839523476 L 133.75732465424696,82.97126839523476 L 133.78373838424434,82.97126839523476 L 135.27616788838543,82.97126839523476 L 135.29939190064908,82.97126839523476 L 135.3270420942624,82.97126839523476 L 136.82789388680158,82.97126839523476 L 136.85678054403076,82.97126839523476 L 136.8843411388313,82.97126839523476 L 138.37617929080827,82.97126839523476 L 138.40587233735215,82.97126839523476 L 138.43484859339407,82.97126839523476 L 139.92711681967222,82.97126839523476 L 139.95482077257316,82.97126839523476 L 139.9786540567635,82.97126839523476 L 141.4710118818544,82.97126839523476 L 141.49934302644454,40 L 141.52842680106178,40 L 143.0476463502138,40 L 143.07355832685982,40 L 144.56304898994284,40 L 144.5908963009442,40 L 144.60955077375783,40 L 146.11516922313507,40 L 146.14289109579855,40 L 146.17120432062617,40 L 147.66049786632115,40 L 147.68933076426268,40 L 147.72477605458485,40 L 149.21512686627023,40 L 149.24537542545318,40 L 149.26689706027463,40 L 150.76235500428652,40 L 150.7865646034904,40 L 150.81620389074664,40 L 152.31316709481266,40 L 152.3680374077381,40 L 153.85715175580756,40 L 153.88682688258888,40 L 153.91417244023887,40 L 155.40710369773132,40 L 155.43518396564582,40 L 155.46450069717616,40 L 156.95599837366467,40 L 156.98463415421818,40 L 157.0168538872815,40 L 158.50354906740688,40 L 158.5336901080145,40 L 158.5646554576994,40 L 160.05448659627083,40 L 160.0840542044769,40 L 160.11224199096665,40 L 161.60488653225835,40 L 161.62615729040414,40 L 161.65559946027233,40 L 163.14770640868755,40 L 163.17506988610003,40 L 163.206787865812,40 L 164.6966727636711,40 L 164.72387496322065,40 L 164.75381888644026,40 L 166.24508360601564,40 L 166.27085222456128,40 L 166.30262396356088,40 L 167.79456963411315,40 L 167.82033825265876,40 L 167.84422529613676,40 L 169.34814136807182,40 L 169.3700930771945,40 L 169.4020440138196,40 L 170.89169595476554,40 L 170.9169628199598,40 L 170.9453835633627,40 L 172.43922872874518,40 L 172.46148507383117,40 L 172.49513838789844,40 L 173.98590135412246,40 L 174.01202836791907,40 L 174.04408682311944,40 L 175.53244854116187,40 L 175.55681941822868,40 L 175.59149415876124,40 L 177.07661239978228,40 L 177.10809742258107,40 L 177.1404246742197,40 L 178.63032749184134,40 L 178.65546891869778,40 L 178.68496484785365,40 L 180.1806736685412,40 L 180.20782210880313,40 L 180.24081239165605,40 L 181.72632486745317,40 L 181.75804284716511,40 L 181.7930939027112,40 L 183.2776566310932,40 L 183.30177663148433,40 L 183.33333333333334,40" stroke="#3b82f6" stroke-width="4" fill="none" opacity="0.4" stroke-dasharray="14850" stroke-dashoffset="14850">
      <animate attributeName="stroke-dashoffset" values="14850;0" dur="3s" begin="3.0999999999999996s" fill="freeze"/>
    </path>
    
    <!-- Animated circle that moves along the path and draws the line -->
    <circle r="5" fill="#3b82f6" opacity="0" filter="url(#trailGlow)">
      <animate attributeName="opacity" values="0;1;1;1" dur="3.2s" begin="2.9s" fill="freeze"/>
      <animate attributeName="r" values="5;6;5" dur="1s" begin="2.9s" repeatCount="3"/>
      <animateMotion dur="3s" begin="2.9s" fill="freeze">
        <mpath href="#path_publicContributions_293.33333333333337"/>
      </animateMotion>
    </circle>
    
    <!-- Small trail dots that fade out -->
    <circle r="2" fill="#3b82f6" opacity="0">
      <animate attributeName="opacity" values="0;0.6;0" dur="0.8s" begin="3.3s" fill="freeze"/>
      <animateMotion dur="3s" begin="2.9s" fill="freeze">
        <mpath href="#path_publicContributions_293.33333333333337"/>
      </animateMotion>
    </circle>
    
    <!-- Hidden path for motion animation -->
    <path id="path_publicContributions_293.33333333333337" d="M 30,160 L 30.02797274933918,160 L 30.06221741557055,160 L 31.54269443809137,160 L 31.568337618299164,160 L 31.602188049754453,160 L 33.08766468602648,160 L 33.12040409220372,160 L 33.153089739093325,160 L 34.64206072906242,160 L 34.6680264649961,160 L 34.69929645064432,160 L 36.19152883739736,160 L 36.217530412856135,160 L 36.2489258368422,160 L 37.73649908533247,160 L 37.76613837258871,160 L 37.79737251871184,160 L 39.28974826356527,160 L 39.31795396981759,160 L 39.3514101664968,160 L 40.83903717427472,160 L 40.86484163234545,160 L 40.901057472457225,160 L 42.38275303883139,160 L 42.408288700463885,160 L 42.438895654897784,160 L 43.9307158871122,160 L 43.95650242542038,160 L 43.98766489249331,160 L 45.48068574879851,160 L 45.50215362433236,160 L 45.5329218566292,160 L 47.02882779470481,160 L 47.05387962274848,160 L 47.07464862754291,160 L 48.57501658649326,160 L 48.59888571020869,160 L 48.62908051010396,160 L 50.119395482264245,160 L 50.15528876665014,160 L 50.18781313567679,160 L 51.67425743912647,160 L 51.700922045799565,160 L 51.732156191922684,160 L 53.2228474790965,160 L 53.24892073360547,160 L 53.27409799998699,160 L 54.77279942102027,160 L 54.795163284681564,160 L 54.82120069966544,160 L 56.31676616225262,160 L 56.342265984360026,160 L 56.37097344396372,160 L 57.867524493491096,160 L 57.88974499905201,160 L 57.9205311511114,160 L 59.40475340400498,160 L 59.43835295878459,160 L 59.46930038870692,160 L 60.96445369675547,160 L 60.99319699588426,160 L 61.02240620883933,160 L 62.513599249364525,160 L 62.54354317258411,160 L 62.57723232617646,160 L 64.05695671867021,160 L 64.08209814552663,160 L 64.11087728418052,160 L 65.60560051792788,160 L 65.62430875002917,160 L 65.6572273538319,160 L 67.15496110768754,160 L 67.17755792826196,160 L 67.20829032103372,160 L 68.70489512984875,160 L 68.72752778994828,160 L 68.75442535353451,160 L 70.25056424852326,82.97126839523476 L 70.27351946434868,82.97126839523476 L 70.30297955397944,82.97126839523476 L 71.800319073059,82.97126839523476 L 71.82413443748678,82.97126839523476 L 71.85733975749031,82.97126839523476 L 73.33973419460388,82.97126839523476 L 73.37306495294524,82.97126839523476 L 73.4056968405472,82.97126839523476 L 74.89749915299905,82.97126839523476 L 74.91500676100955,82.97126839523476 L 74.94486108541639,82.97126839523476 L 76.44297115428553,82.97126839523476 L 76.46746746969019,82.97126839523476 L 76.4996872027535,82.97126839523476 L 77.9849308821124,82.97126839523476 L 78.01707893612551,82.97126839523476 L 78.04580431549175,82.97126839523476 L 79.5400795551754,82.97126839523476 L 79.56536434013222,82.97126839523476 L 79.59312205232081,82.97126839523476 L 81.086142908626,82.97126839523476 L 81.110943859994,82.97126839523476 L 81.13601360780021,82.97126839523476 L 81.17574172137162,82.97126839523476 L 82.64000135878547,82.97126839523476 L 82.66616421210719,82.97126839523476 L 82.69336641165677,82.97126839523476 L 84.18721157703922,82.97126839523476 L 84.21330275131075,82.97126839523476 L 84.2418130935264,82.97126839523476 L 85.73469059173121,82.97126839523476 L 85.75870307354703,82.97126839523476 L 85.78610239048464,82.97126839523476 L 87.27840645628788,82.97126839523476 L 87.30725727399197,82.97126839523476 L 88.83755123639935,82.97126839523476 L 88.85507676417238,82.97126839523476 L 88.88288823564862,82.97126839523476 L 90.37811322274737,82.97126839523476 L 90.4027887357775,82.97126839523476 L 90.43328817163611,82.97126839523476 L 91.92600439197798,82.97126839523476 L 91.950088552844,82.97126839523476 L 91.97716531405572,82.97126839523476 L 93.47697776036705,82.97126839523476 L 93.50281805796288,82.97126839523476 L 93.53519906888914,82.97126839523476 L 95.0268580232406,82.97126839523476 L 95.05470533424194,82.97126839523476 L 95.08140578044014,82.97126839523476 L 96.57770595329183,82.97126839523476 L 96.59483724628879,82.97126839523476 L 96.62384934185582,82.97126839523476 L 98.12059750877124,82.97126839523476 L 98.14299721195765,82.97126839523476 L 98.16869415145308,82.97126839523476 L 99.6685424372895,82.97126839523476 L 99.68941896065922,82.97126839523476 L 99.72108318108353,82.97126839523476 L 101.21612897055678,82.97126839523476 L 101.23903042709456,82.97126839523476 L 101.2688847515014,82.97126839523476 L 102.76143969398032,82.97126839523476 L 102.7834989216783,82.97126839523476 L 102.81598745117985,82.97126839523476 L 104.30873951104681,82.97126839523476 L 104.34112052197308,82.97126839523476 L 104.37418248387621,82.97126839523476 L 105.86225748571786,82.97126839523476 L 105.88603701062054,82.97126839523476 L 105.91594509431503,82.97126839523476 L 107.41013073518592,82.97126839523476 L 107.43356978460017,82.97126839523476 L 107.46347786829466,82.97126839523476 L 108.95913292969458,82.97126839523476 L 108.98991908175397,82.97126839523476 L 109.02629619972869,82.97126839523476 L 110.50781256847736,82.97126839523476 L 110.53017643213866,82.97126839523476 L 110.55877637316706,82.97126839523476 L 112.05772867087602,82.97126839523476 L 112.07670569941554,82.97126839523476 L 112.10664962263513,82.97126839523476 L 113.60090694255622,82.97126839523476 L 113.62323496669242,82.97126839523476 L 113.65174530890808,82.97126839523476 L 113.69075663197752,82.97126839523476 L 115.15327805242413,82.97126839523476 L 115.1830786175433,82.97126839523476 L 115.21266414551191,82.97126839523476 L 116.6977286272453,82.97126839523476 L 116.72502042560761,82.97126839523476 L 116.75353076782326,82.97126839523476 L 118.24866615610927,82.97126839523476 L 118.26400547285132,82.97126839523476 L 118.30000627581249,82.97126839523476 L 119.79528502219888,82.97126839523476 L 119.82073108501864,82.97126839523476 L 119.84164344791347,82.97126839523476 L 121.34471729100873,82.97126839523476 L 121.36876561234965,82.97126839523476 L 121.39802858459237,82.97126839523476 L 122.89382700409269,82.97126839523476 L 122.91952394358813,82.97126839523476 L 122.94769381031534,82.97126839523476 L 124.44071466662054,82.97126839523476 L 124.46112527616401,82.97126839523476 L 124.49264613848791,82.97126839523476 L 125.99177763382235,82.97126839523476 L 126.01381894175778,82.97126839523476 L 126.04473053215501,82.97126839523476 L 127.53895201255101,82.97126839523476 L 127.5646310322839,82.97126839523476 L 127.59556054244369,82.97126839523476 L 129.0863235086677,82.97126839523476 L 129.1111065402731,82.97126839523476 L 129.12965349451147,82.97126839523476 L 130.63156255304105,82.97126839523476 L 130.6666136085871,82.97126839523476 L 130.6902856149145,82.97126839523476 L 132.18318103288186,82.97126839523476 L 132.20724727398533,82.97126839523476 L 133.75732465424696,82.97126839523476 L 133.78373838424434,82.97126839523476 L 135.27616788838543,82.97126839523476 L 135.29939190064908,82.97126839523476 L 135.3270420942624,82.97126839523476 L 136.82789388680158,82.97126839523476 L 136.85678054403076,82.97126839523476 L 136.8843411388313,82.97126839523476 L 138.37617929080827,82.97126839523476 L 138.40587233735215,82.97126839523476 L 138.43484859339407,82.97126839523476 L 139.92711681967222,82.97126839523476 L 139.95482077257316,82.97126839523476 L 139.9786540567635,82.97126839523476 L 141.4710118818544,82.97126839523476 L 141.49934302644454,40 L 141.52842680106178,40 L 143.0476463502138,40 L 143.07355832685982,40 L 144.56304898994284,40 L 144.5908963009442,40 L 144.60955077375783,40 L 146.11516922313507,40 L 146.14289109579855,40 L 146.17120432062617,40 L 147.66049786632115,40 L 147.68933076426268,40 L 147.72477605458485,40 L 149.21512686627023,40 L 149.24537542545318,40 L 149.26689706027463,40 L 150.76235500428652,40 L 150.7865646034904,40 L 150.81620389074664,40 L 152.31316709481266,40 L 152.3680374077381,40 L 153.85715175580756,40 L 153.88682688258888,40 L 153.91417244023887,40 L 155.40710369773132,40 L 155.43518396564582,40 L 155.46450069717616,40 L 156.95599837366467,40 L 156.98463415421818,40 L 157.0168538872815,40 L 158.50354906740688,40 L 158.5336901080145,40 L 158.5646554576994,40 L 160.05448659627083,40 L 160.0840542044769,40 L 160.11224199096665,40 L 161.60488653225835,40 L 161.62615729040414,40 L 161.65559946027233,40 L 163.14770640868755,40 L 163.17506988610003,40 L 163.206787865812,40 L 164.6966727636711,40 L 164.72387496322065,40 L 164.75381888644026,40 L 166.24508360601564,40 L 166.27085222456128,40 L 166.30262396356088,40 L 167.79456963411315,40 L 167.82033825265876,40 L 167.84422529613676,40 L 169.34814136807182,40 L 169.3700930771945,40 L 169.4020440138196,40 L 170.89169595476554,40 L 170.9169628199598,40 L 170.9453835633627,40 L 172.43922872874518,40 L 172.46148507383117,40 L 172.49513838789844,40 L 173.98590135412246,40 L 174.01202836791907,40 L 174.04408682311944,40 L 175.53244854116187,40 L 175.55681941822868,40 L 175.59149415876124,40 L 177.07661239978228,40 L 177.10809742258107,40 L 177.1404246742197,40 L 178.63032749184134,40 L 178.65546891869778,40 L 178.68496484785365,40 L 180.1806736685412,40 L 180.20782210880313,40 L 180.24081239165605,40 L 181.72632486745317,40 L 181.75804284716511,40 L 181.7930939027112,40 L 183.2776566310932,40 L 183.30177663148433,40 L 183.33333333333334,40" fill="none" stroke="none"/>
  </g>
  <!-- 📊 Total Contributions Chart -->
  <g transform="translate(526.6666666666667, 250)">
    <!-- Chart Background -->
    <rect x="0" y="0" width="213.33333333333334" height="200" fill="#ffffff" stroke="#e2e8f0" stroke-width="1" rx="8" filter="url(#shadow)">
      <animate attributeName="opacity" values="0;1" dur="0.5s" begin="2.8s" fill="freeze"/>
    </rect>
    
    <!-- Chart Title -->
    <text x="106.66666666666667" y="25" text-anchor="middle" fill="#1e293b" font-size="14" font-weight="bold" font-family="Arial, sans-serif">
      📊 Total Contributions
      <animate attributeName="opacity" values="0;1" dur="0.5s" begin="3s" fill="freeze"/>
    </text>
    
    <!-- Y-axis labels -->
    <text x="10" y="45" fill="#64748b" font-size="10" font-family="Arial, sans-serif">4,408
      <animate attributeName="opacity" values="0;1" dur="0.5s" begin="3.1999999999999997s" fill="freeze"/>
    </text>
    <text x="10" y="185" fill="#64748b" font-size="10" font-family="Arial, sans-serif">2,598
      <animate attributeName="opacity" values="0;1" dur="0.5s" begin="3.1999999999999997s" fill="freeze"/>
    </text>
    
    <!-- Chart Line with draw animation that follows the circle -->
    <path d="M 30,160 L 30.02797274933918,160 L 30.06221741557055,160 L 31.54269443809137,160 L 31.568337618299164,160 L 31.602188049754453,160 L 33.08766468602648,160 L 33.12040409220372,160 L 33.153089739093325,160 L 34.64206072906242,160 L 34.6680264649961,160 L 34.69929645064432,160 L 36.19152883739736,160 L 36.217530412856135,160 L 36.2489258368422,160 L 37.73649908533247,160 L 37.76613837258871,160 L 37.79737251871184,160 L 39.28974826356527,160 L 39.31795396981759,160 L 39.3514101664968,160 L 40.83903717427472,160 L 40.86484163234545,160 L 40.901057472457225,160 L 42.38275303883139,160 L 42.408288700463885,160 L 42.438895654897784,160 L 43.9307158871122,160 L 43.95650242542038,160 L 43.98766489249331,160 L 45.48068574879851,160 L 45.50215362433236,160 L 45.5329218566292,160 L 47.02882779470481,160 L 47.05387962274848,160 L 47.07464862754291,160 L 48.57501658649326,160 L 48.59888571020869,160 L 48.62908051010396,160 L 50.119395482264245,160 L 50.15528876665014,160 L 50.18781313567679,160 L 51.67425743912647,160 L 51.700922045799565,160 L 51.732156191922684,160 L 53.2228474790965,160 L 53.24892073360547,160 L 53.27409799998699,160 L 54.77279942102027,160 L 54.795163284681564,160 L 54.82120069966544,160 L 56.31676616225262,160 L 56.342265984360026,160 L 56.37097344396372,160 L 57.867524493491096,160 L 57.88974499905201,160 L 57.9205311511114,160 L 59.40475340400498,160 L 59.43835295878459,160 L 59.46930038870692,160 L 60.96445369675547,160 L 60.99319699588426,160 L 61.02240620883933,160 L 62.513599249364525,160 L 62.54354317258411,160 L 62.57723232617646,160 L 64.05695671867021,160 L 64.08209814552663,160 L 64.11087728418052,160 L 65.60560051792788,160 L 65.62430875002917,160 L 65.6572273538319,160 L 67.15496110768754,160 L 67.17755792826196,160 L 67.20829032103372,160 L 68.70489512984875,160 L 68.72752778994828,160 L 68.75442535353451,160 L 70.25056424852326,80.1767955801105 L 70.27351946434868,80.1767955801105 L 70.30297955397944,80.1767955801105 L 71.800319073059,80.1767955801105 L 71.82413443748678,80.1767955801105 L 71.85733975749031,80.1767955801105 L 73.33973419460388,80.1767955801105 L 73.37306495294524,80.1767955801105 L 73.4056968405472,80.1767955801105 L 74.89749915299905,80.1767955801105 L 74.91500676100955,80.1767955801105 L 74.94486108541639,80.1767955801105 L 76.44297115428553,80.1767955801105 L 76.46746746969019,80.1767955801105 L 76.4996872027535,80.1767955801105 L 77.9849308821124,80.1767955801105 L 78.01707893612551,80.1767955801105 L 78.04580431549175,80.1767955801105 L 79.5400795551754,80.1767955801105 L 79.56536434013222,80.1767955801105 L 79.59312205232081,80.1767955801105 L 81.086142908626,80.1767955801105 L 81.110943859994,80.1767955801105 L 81.13601360780021,80.1767955801105 L 81.17574172137162,80.1767955801105 L 82.64000135878547,80.1767955801105 L 82.66616421210719,80.1767955801105 L 82.69336641165677,80.1767955801105 L 84.18721157703922,80.1767955801105 L 84.21330275131075,80.1767955801105 L 84.2418130935264,80.1767955801105 L 85.73469059173121,80.1767955801105 L 85.75870307354703,80.1767955801105 L 85.78610239048464,80.1767955801105 L 87.27840645628788,80.1767955801105 L 87.30725727399197,80.1767955801105 L 88.83755123639935,80.1767955801105 L 88.85507676417238,80.1767955801105 L 88.88288823564862,80.1767955801105 L 90.37811322274737,80.1767955801105 L 90.4027887357775,80.1767955801105 L 90.43328817163611,80.1767955801105 L 91.92600439197798,80.1767955801105 L 91.950088552844,80.1767955801105 L 91.97716531405572,80.1767955801105 L 93.47697776036705,80.1767955801105 L 93.50281805796288,80.1767955801105 L 93.53519906888914,80.1767955801105 L 95.0268580232406,80.1767955801105 L 95.05470533424194,80.1767955801105 L 95.08140578044014,80.1767955801105 L 96.57770595329183,80.1767955801105 L 96.59483724628879,80.1767955801105 L 96.62384934185582,80.1767955801105 L 98.12059750877124,80.1767955801105 L 98.14299721195765,80.1767955801105 L 98.16869415145308,80.1767955801105 L 99.6685424372895,80.1767955801105 L 99.68941896065922,80.1767955801105 L 99.72108318108353,80.1767955801105 L 101.21612897055678,80.1767955801105 L 101.23903042709456,80.1767955801105 L 101.2688847515014,80.1767955801105 L 102.76143969398032,80.1767955801105 L 102.7834989216783,80.1767955801105 L 102.81598745117985,80.1767955801105 L 104.30873951104681,80.1767955801105 L 104.34112052197308,80.1767955801105 L 104.37418248387621,80.1767955801105 L 105.86225748571786,80.1767955801105 L 105.88603701062054,80.1767955801105 L 105.91594509431503,80.1767955801105 L 107.41013073518592,80.1767955801105 L 107.43356978460017,80.1767955801105 L 107.46347786829466,80.1767955801105 L 108.95913292969458,80.1767955801105 L 108.98991908175397,80.1767955801105 L 109.02629619972869,80.1767955801105 L 110.50781256847736,80.1767955801105 L 110.53017643213866,80.1767955801105 L 110.55877637316706,80.1767955801105 L 112.05772867087602,80.1767955801105 L 112.07670569941554,80.1767955801105 L 112.10664962263513,80.1767955801105 L 113.60090694255622,80.1767955801105 L 113.62323496669242,80.1767955801105 L 113.65174530890808,80.1767955801105 L 113.69075663197752,80.1767955801105 L 115.15327805242413,80.1767955801105 L 115.1830786175433,80.1767955801105 L 115.21266414551191,80.1767955801105 L 116.6977286272453,80.1767955801105 L 116.72502042560761,80.1767955801105 L 116.75353076782326,80.1767955801105 L 118.24866615610927,80.1767955801105 L 118.26400547285132,80.1767955801105 L 118.30000627581249,80.1767955801105 L 119.79528502219888,80.1767955801105 L 119.82073108501864,80.1767955801105 L 119.84164344791347,80.1767955801105 L 121.34471729100873,80.1767955801105 L 121.36876561234965,80.1767955801105 L 121.39802858459237,80.1767955801105 L 122.89382700409269,80.1767955801105 L 122.91952394358813,80.1767955801105 L 122.94769381031534,80.1767955801105 L 124.44071466662054,80.1767955801105 L 124.46112527616401,80.1767955801105 L 124.49264613848791,80.1767955801105 L 125.99177763382235,80.1767955801105 L 126.01381894175778,80.1767955801105 L 126.04473053215501,80.1767955801105 L 127.53895201255101,80.1767955801105 L 127.5646310322839,80.1767955801105 L 127.59556054244369,80.1767955801105 L 129.0863235086677,80.1767955801105 L 129.1111065402731,80.1767955801105 L 129.12965349451147,80.1767955801105 L 130.63156255304105,80.1767955801105 L 130.6666136085871,80.1767955801105 L 130.6902856149145,80.1767955801105 L 132.18318103288186,80.1767955801105 L 132.20724727398533,80.1767955801105 L 133.75732465424696,80.1767955801105 L 133.78373838424434,80.1767955801105 L 135.27616788838543,80.1767955801105 L 135.29939190064908,80.1767955801105 L 135.3270420942624,80.1767955801105 L 136.82789388680158,80.1767955801105 L 136.85678054403076,80.1767955801105 L 136.8843411388313,80.1767955801105 L 138.37617929080827,80.1767955801105 L 138.40587233735215,80.1767955801105 L 138.43484859339407,80.1767955801105 L 139.92711681967222,80.1767955801105 L 139.95482077257316,80.1767955801105 L 139.9786540567635,80.1767955801105 L 141.4710118818544,80.1767955801105 L 141.49934302644454,40 L 141.52842680106178,40 L 143.0476463502138,40 L 143.07355832685982,40 L 144.56304898994284,40 L 144.5908963009442,40 L 144.60955077375783,40 L 146.11516922313507,40 L 146.14289109579855,40 L 146.17120432062617,40 L 147.66049786632115,40 L 147.68933076426268,40 L 147.72477605458485,40 L 149.21512686627023,40 L 149.24537542545318,40 L 149.26689706027463,40 L 150.76235500428652,40 L 150.7865646034904,40 L 150.81620389074664,40 L 152.31316709481266,40 L 152.3680374077381,40 L 153.85715175580756,40 L 153.88682688258888,40 L 153.91417244023887,40 L 155.40710369773132,40 L 155.43518396564582,40 L 155.46450069717616,40 L 156.95599837366467,40 L 156.98463415421818,40 L 157.0168538872815,40 L 158.50354906740688,40 L 158.5336901080145,40 L 158.5646554576994,40 L 160.05448659627083,40 L 160.0840542044769,40 L 160.11224199096665,40 L 161.60488653225835,40 L 161.62615729040414,40 L 161.65559946027233,40 L 163.14770640868755,40 L 163.17506988610003,40 L 163.206787865812,40 L 164.6966727636711,40 L 164.72387496322065,40 L 164.75381888644026,40 L 166.24508360601564,40 L 166.27085222456128,40 L 166.30262396356088,40 L 167.79456963411315,40 L 167.82033825265876,40 L 167.84422529613676,40 L 169.34814136807182,40 L 169.3700930771945,40 L 169.4020440138196,40 L 170.89169595476554,40 L 170.9169628199598,40 L 170.9453835633627,40 L 172.43922872874518,40 L 172.46148507383117,40 L 172.49513838789844,40 L 173.98590135412246,40 L 174.01202836791907,40 L 174.04408682311944,40 L 175.53244854116187,40 L 175.55681941822868,40 L 175.59149415876124,40 L 177.07661239978228,40 L 177.10809742258107,40 L 177.1404246742197,40 L 178.63032749184134,40 L 178.65546891869778,40 L 178.68496484785365,40 L 180.1806736685412,40 L 180.20782210880313,40 L 180.24081239165605,40 L 181.72632486745317,40 L 181.75804284716511,40 L 181.7930939027112,40 L 183.2776566310932,40 L 183.30177663148433,40 L 183.33333333333334,40" stroke="#f59e0b" stroke-width="2" fill="none" stroke-dasharray="14850" stroke-dashoffset="14850">
      <animate attributeName="stroke-dashoffset" values="14850;0" dur="3s" begin="3.5999999999999996s" fill="freeze"/>
    </path>
    
    <!-- Glow effect for the line that also follows the circle -->
    <path d="M 30,160 L 30.02797274933918,160 L 30.06221741557055,160 L 31.54269443809137,160 L 31.568337618299164,160 L 31.602188049754453,160 L 33.08766468602648,160 L 33.12040409220372,160 L 33.153089739093325,160 L 34.64206072906242,160 L 34.6680264649961,160 L 34.69929645064432,160 L 36.19152883739736,160 L 36.217530412856135,160 L 36.2489258368422,160 L 37.73649908533247,160 L 37.76613837258871,160 L 37.79737251871184,160 L 39.28974826356527,160 L 39.31795396981759,160 L 39.3514101664968,160 L 40.83903717427472,160 L 40.86484163234545,160 L 40.901057472457225,160 L 42.38275303883139,160 L 42.408288700463885,160 L 42.438895654897784,160 L 43.9307158871122,160 L 43.95650242542038,160 L 43.98766489249331,160 L 45.48068574879851,160 L 45.50215362433236,160 L 45.5329218566292,160 L 47.02882779470481,160 L 47.05387962274848,160 L 47.07464862754291,160 L 48.57501658649326,160 L 48.59888571020869,160 L 48.62908051010396,160 L 50.119395482264245,160 L 50.15528876665014,160 L 50.18781313567679,160 L 51.67425743912647,160 L 51.700922045799565,160 L 51.732156191922684,160 L 53.2228474790965,160 L 53.24892073360547,160 L 53.27409799998699,160 L 54.77279942102027,160 L 54.795163284681564,160 L 54.82120069966544,160 L 56.31676616225262,160 L 56.342265984360026,160 L 56.37097344396372,160 L 57.867524493491096,160 L 57.88974499905201,160 L 57.9205311511114,160 L 59.40475340400498,160 L 59.43835295878459,160 L 59.46930038870692,160 L 60.96445369675547,160 L 60.99319699588426,160 L 61.02240620883933,160 L 62.513599249364525,160 L 62.54354317258411,160 L 62.57723232617646,160 L 64.05695671867021,160 L 64.08209814552663,160 L 64.11087728418052,160 L 65.60560051792788,160 L 65.62430875002917,160 L 65.6572273538319,160 L 67.15496110768754,160 L 67.17755792826196,160 L 67.20829032103372,160 L 68.70489512984875,160 L 68.72752778994828,160 L 68.75442535353451,160 L 70.25056424852326,80.1767955801105 L 70.27351946434868,80.1767955801105 L 70.30297955397944,80.1767955801105 L 71.800319073059,80.1767955801105 L 71.82413443748678,80.1767955801105 L 71.85733975749031,80.1767955801105 L 73.33973419460388,80.1767955801105 L 73.37306495294524,80.1767955801105 L 73.4056968405472,80.1767955801105 L 74.89749915299905,80.1767955801105 L 74.91500676100955,80.1767955801105 L 74.94486108541639,80.1767955801105 L 76.44297115428553,80.1767955801105 L 76.46746746969019,80.1767955801105 L 76.4996872027535,80.1767955801105 L 77.9849308821124,80.1767955801105 L 78.01707893612551,80.1767955801105 L 78.04580431549175,80.1767955801105 L 79.5400795551754,80.1767955801105 L 79.56536434013222,80.1767955801105 L 79.59312205232081,80.1767955801105 L 81.086142908626,80.1767955801105 L 81.110943859994,80.1767955801105 L 81.13601360780021,80.1767955801105 L 81.17574172137162,80.1767955801105 L 82.64000135878547,80.1767955801105 L 82.66616421210719,80.1767955801105 L 82.69336641165677,80.1767955801105 L 84.18721157703922,80.1767955801105 L 84.21330275131075,80.1767955801105 L 84.2418130935264,80.1767955801105 L 85.73469059173121,80.1767955801105 L 85.75870307354703,80.1767955801105 L 85.78610239048464,80.1767955801105 L 87.27840645628788,80.1767955801105 L 87.30725727399197,80.1767955801105 L 88.83755123639935,80.1767955801105 L 88.85507676417238,80.1767955801105 L 88.88288823564862,80.1767955801105 L 90.37811322274737,80.1767955801105 L 90.4027887357775,80.1767955801105 L 90.43328817163611,80.1767955801105 L 91.92600439197798,80.1767955801105 L 91.950088552844,80.1767955801105 L 91.97716531405572,80.1767955801105 L 93.47697776036705,80.1767955801105 L 93.50281805796288,80.1767955801105 L 93.53519906888914,80.1767955801105 L 95.0268580232406,80.1767955801105 L 95.05470533424194,80.1767955801105 L 95.08140578044014,80.1767955801105 L 96.57770595329183,80.1767955801105 L 96.59483724628879,80.1767955801105 L 96.62384934185582,80.1767955801105 L 98.12059750877124,80.1767955801105 L 98.14299721195765,80.1767955801105 L 98.16869415145308,80.1767955801105 L 99.6685424372895,80.1767955801105 L 99.68941896065922,80.1767955801105 L 99.72108318108353,80.1767955801105 L 101.21612897055678,80.1767955801105 L 101.23903042709456,80.1767955801105 L 101.2688847515014,80.1767955801105 L 102.76143969398032,80.1767955801105 L 102.7834989216783,80.1767955801105 L 102.81598745117985,80.1767955801105 L 104.30873951104681,80.1767955801105 L 104.34112052197308,80.1767955801105 L 104.37418248387621,80.1767955801105 L 105.86225748571786,80.1767955801105 L 105.88603701062054,80.1767955801105 L 105.91594509431503,80.1767955801105 L 107.41013073518592,80.1767955801105 L 107.43356978460017,80.1767955801105 L 107.46347786829466,80.1767955801105 L 108.95913292969458,80.1767955801105 L 108.98991908175397,80.1767955801105 L 109.02629619972869,80.1767955801105 L 110.50781256847736,80.1767955801105 L 110.53017643213866,80.1767955801105 L 110.55877637316706,80.1767955801105 L 112.05772867087602,80.1767955801105 L 112.07670569941554,80.1767955801105 L 112.10664962263513,80.1767955801105 L 113.60090694255622,80.1767955801105 L 113.62323496669242,80.1767955801105 L 113.65174530890808,80.1767955801105 L 113.69075663197752,80.1767955801105 L 115.15327805242413,80.1767955801105 L 115.1830786175433,80.1767955801105 L 115.21266414551191,80.1767955801105 L 116.6977286272453,80.1767955801105 L 116.72502042560761,80.1767955801105 L 116.75353076782326,80.1767955801105 L 118.24866615610927,80.1767955801105 L 118.26400547285132,80.1767955801105 L 118.30000627581249,80.1767955801105 L 119.79528502219888,80.1767955801105 L 119.82073108501864,80.1767955801105 L 119.84164344791347,80.1767955801105 L 121.34471729100873,80.1767955801105 L 121.36876561234965,80.1767955801105 L 121.39802858459237,80.1767955801105 L 122.89382700409269,80.1767955801105 L 122.91952394358813,80.1767955801105 L 122.94769381031534,80.1767955801105 L 124.44071466662054,80.1767955801105 L 124.46112527616401,80.1767955801105 L 124.49264613848791,80.1767955801105 L 125.99177763382235,80.1767955801105 L 126.01381894175778,80.1767955801105 L 126.04473053215501,80.1767955801105 L 127.53895201255101,80.1767955801105 L 127.5646310322839,80.1767955801105 L 127.59556054244369,80.1767955801105 L 129.0863235086677,80.1767955801105 L 129.1111065402731,80.1767955801105 L 129.12965349451147,80.1767955801105 L 130.63156255304105,80.1767955801105 L 130.6666136085871,80.1767955801105 L 130.6902856149145,80.1767955801105 L 132.18318103288186,80.1767955801105 L 132.20724727398533,80.1767955801105 L 133.75732465424696,80.1767955801105 L 133.78373838424434,80.1767955801105 L 135.27616788838543,80.1767955801105 L 135.29939190064908,80.1767955801105 L 135.3270420942624,80.1767955801105 L 136.82789388680158,80.1767955801105 L 136.85678054403076,80.1767955801105 L 136.8843411388313,80.1767955801105 L 138.37617929080827,80.1767955801105 L 138.40587233735215,80.1767955801105 L 138.43484859339407,80.1767955801105 L 139.92711681967222,80.1767955801105 L 139.95482077257316,80.1767955801105 L 139.9786540567635,80.1767955801105 L 141.4710118818544,80.1767955801105 L 141.49934302644454,40 L 141.52842680106178,40 L 143.0476463502138,40 L 143.07355832685982,40 L 144.56304898994284,40 L 144.5908963009442,40 L 144.60955077375783,40 L 146.11516922313507,40 L 146.14289109579855,40 L 146.17120432062617,40 L 147.66049786632115,40 L 147.68933076426268,40 L 147.72477605458485,40 L 149.21512686627023,40 L 149.24537542545318,40 L 149.26689706027463,40 L 150.76235500428652,40 L 150.7865646034904,40 L 150.81620389074664,40 L 152.31316709481266,40 L 152.3680374077381,40 L 153.85715175580756,40 L 153.88682688258888,40 L 153.91417244023887,40 L 155.40710369773132,40 L 155.43518396564582,40 L 155.46450069717616,40 L 156.95599837366467,40 L 156.98463415421818,40 L 157.0168538872815,40 L 158.50354906740688,40 L 158.5336901080145,40 L 158.5646554576994,40 L 160.05448659627083,40 L 160.0840542044769,40 L 160.11224199096665,40 L 161.60488653225835,40 L 161.62615729040414,40 L 161.65559946027233,40 L 163.14770640868755,40 L 163.17506988610003,40 L 163.206787865812,40 L 164.6966727636711,40 L 164.72387496322065,40 L 164.75381888644026,40 L 166.24508360601564,40 L 166.27085222456128,40 L 166.30262396356088,40 L 167.79456963411315,40 L 167.82033825265876,40 L 167.84422529613676,40 L 169.34814136807182,40 L 169.3700930771945,40 L 169.4020440138196,40 L 170.89169595476554,40 L 170.9169628199598,40 L 170.9453835633627,40 L 172.43922872874518,40 L 172.46148507383117,40 L 172.49513838789844,40 L 173.98590135412246,40 L 174.01202836791907,40 L 174.04408682311944,40 L 175.53244854116187,40 L 175.55681941822868,40 L 175.59149415876124,40 L 177.07661239978228,40 L 177.10809742258107,40 L 177.1404246742197,40 L 178.63032749184134,40 L 178.65546891869778,40 L 178.68496484785365,40 L 180.1806736685412,40 L 180.20782210880313,40 L 180.24081239165605,40 L 181.72632486745317,40 L 181.75804284716511,40 L 181.7930939027112,40 L 183.2776566310932,40 L 183.30177663148433,40 L 183.33333333333334,40" stroke="#f59e0b" stroke-width="4" fill="none" opacity="0.4" stroke-dasharray="14850" stroke-dashoffset="14850">
      <animate attributeName="stroke-dashoffset" values="14850;0" dur="3s" begin="3.5999999999999996s" fill="freeze"/>
    </path>
    
    <!-- Animated circle that moves along the path and draws the line -->
    <circle r="5" fill="#f59e0b" opacity="0" filter="url(#trailGlow)">
      <animate attributeName="opacity" values="0;1;1;1" dur="3.2s" begin="3.4s" fill="freeze"/>
      <animate attributeName="r" values="5;6;5" dur="1s" begin="3.4s" repeatCount="3"/>
      <animateMotion dur="3s" begin="3.4s" fill="freeze">
        <mpath href="#path_totalContributions_526.6666666666667"/>
      </animateMotion>
    </circle>
    
    <!-- Small trail dots that fade out -->
    <circle r="2" fill="#f59e0b" opacity="0">
      <animate attributeName="opacity" values="0;0.6;0" dur="0.8s" begin="3.8s" fill="freeze"/>
      <animateMotion dur="3s" begin="3.4s" fill="freeze">
        <mpath href="#path_totalContributions_526.6666666666667"/>
      </animateMotion>
    </circle>
    
    <!-- Hidden path for motion animation -->
    <path id="path_totalContributions_526.6666666666667" d="M 30,160 L 30.02797274933918,160 L 30.06221741557055,160 L 31.54269443809137,160 L 31.568337618299164,160 L 31.602188049754453,160 L 33.08766468602648,160 L 33.12040409220372,160 L 33.153089739093325,160 L 34.64206072906242,160 L 34.6680264649961,160 L 34.69929645064432,160 L 36.19152883739736,160 L 36.217530412856135,160 L 36.2489258368422,160 L 37.73649908533247,160 L 37.76613837258871,160 L 37.79737251871184,160 L 39.28974826356527,160 L 39.31795396981759,160 L 39.3514101664968,160 L 40.83903717427472,160 L 40.86484163234545,160 L 40.901057472457225,160 L 42.38275303883139,160 L 42.408288700463885,160 L 42.438895654897784,160 L 43.9307158871122,160 L 43.95650242542038,160 L 43.98766489249331,160 L 45.48068574879851,160 L 45.50215362433236,160 L 45.5329218566292,160 L 47.02882779470481,160 L 47.05387962274848,160 L 47.07464862754291,160 L 48.57501658649326,160 L 48.59888571020869,160 L 48.62908051010396,160 L 50.119395482264245,160 L 50.15528876665014,160 L 50.18781313567679,160 L 51.67425743912647,160 L 51.700922045799565,160 L 51.732156191922684,160 L 53.2228474790965,160 L 53.24892073360547,160 L 53.27409799998699,160 L 54.77279942102027,160 L 54.795163284681564,160 L 54.82120069966544,160 L 56.31676616225262,160 L 56.342265984360026,160 L 56.37097344396372,160 L 57.867524493491096,160 L 57.88974499905201,160 L 57.9205311511114,160 L 59.40475340400498,160 L 59.43835295878459,160 L 59.46930038870692,160 L 60.96445369675547,160 L 60.99319699588426,160 L 61.02240620883933,160 L 62.513599249364525,160 L 62.54354317258411,160 L 62.57723232617646,160 L 64.05695671867021,160 L 64.08209814552663,160 L 64.11087728418052,160 L 65.60560051792788,160 L 65.62430875002917,160 L 65.6572273538319,160 L 67.15496110768754,160 L 67.17755792826196,160 L 67.20829032103372,160 L 68.70489512984875,160 L 68.72752778994828,160 L 68.75442535353451,160 L 70.25056424852326,80.1767955801105 L 70.27351946434868,80.1767955801105 L 70.30297955397944,80.1767955801105 L 71.800319073059,80.1767955801105 L 71.82413443748678,80.1767955801105 L 71.85733975749031,80.1767955801105 L 73.33973419460388,80.1767955801105 L 73.37306495294524,80.1767955801105 L 73.4056968405472,80.1767955801105 L 74.89749915299905,80.1767955801105 L 74.91500676100955,80.1767955801105 L 74.94486108541639,80.1767955801105 L 76.44297115428553,80.1767955801105 L 76.46746746969019,80.1767955801105 L 76.4996872027535,80.1767955801105 L 77.9849308821124,80.1767955801105 L 78.01707893612551,80.1767955801105 L 78.04580431549175,80.1767955801105 L 79.5400795551754,80.1767955801105 L 79.56536434013222,80.1767955801105 L 79.59312205232081,80.1767955801105 L 81.086142908626,80.1767955801105 L 81.110943859994,80.1767955801105 L 81.13601360780021,80.1767955801105 L 81.17574172137162,80.1767955801105 L 82.64000135878547,80.1767955801105 L 82.66616421210719,80.1767955801105 L 82.69336641165677,80.1767955801105 L 84.18721157703922,80.1767955801105 L 84.21330275131075,80.1767955801105 L 84.2418130935264,80.1767955801105 L 85.73469059173121,80.1767955801105 L 85.75870307354703,80.1767955801105 L 85.78610239048464,80.1767955801105 L 87.27840645628788,80.1767955801105 L 87.30725727399197,80.1767955801105 L 88.83755123639935,80.1767955801105 L 88.85507676417238,80.1767955801105 L 88.88288823564862,80.1767955801105 L 90.37811322274737,80.1767955801105 L 90.4027887357775,80.1767955801105 L 90.43328817163611,80.1767955801105 L 91.92600439197798,80.1767955801105 L 91.950088552844,80.1767955801105 L 91.97716531405572,80.1767955801105 L 93.47697776036705,80.1767955801105 L 93.50281805796288,80.1767955801105 L 93.53519906888914,80.1767955801105 L 95.0268580232406,80.1767955801105 L 95.05470533424194,80.1767955801105 L 95.08140578044014,80.1767955801105 L 96.57770595329183,80.1767955801105 L 96.59483724628879,80.1767955801105 L 96.62384934185582,80.1767955801105 L 98.12059750877124,80.1767955801105 L 98.14299721195765,80.1767955801105 L 98.16869415145308,80.1767955801105 L 99.6685424372895,80.1767955801105 L 99.68941896065922,80.1767955801105 L 99.72108318108353,80.1767955801105 L 101.21612897055678,80.1767955801105 L 101.23903042709456,80.1767955801105 L 101.2688847515014,80.1767955801105 L 102.76143969398032,80.1767955801105 L 102.7834989216783,80.1767955801105 L 102.81598745117985,80.1767955801105 L 104.30873951104681,80.1767955801105 L 104.34112052197308,80.1767955801105 L 104.37418248387621,80.1767955801105 L 105.86225748571786,80.1767955801105 L 105.88603701062054,80.1767955801105 L 105.91594509431503,80.1767955801105 L 107.41013073518592,80.1767955801105 L 107.43356978460017,80.1767955801105 L 107.46347786829466,80.1767955801105 L 108.95913292969458,80.1767955801105 L 108.98991908175397,80.1767955801105 L 109.02629619972869,80.1767955801105 L 110.50781256847736,80.1767955801105 L 110.53017643213866,80.1767955801105 L 110.55877637316706,80.1767955801105 L 112.05772867087602,80.1767955801105 L 112.07670569941554,80.1767955801105 L 112.10664962263513,80.1767955801105 L 113.60090694255622,80.1767955801105 L 113.62323496669242,80.1767955801105 L 113.65174530890808,80.1767955801105 L 113.69075663197752,80.1767955801105 L 115.15327805242413,80.1767955801105 L 115.1830786175433,80.1767955801105 L 115.21266414551191,80.1767955801105 L 116.6977286272453,80.1767955801105 L 116.72502042560761,80.1767955801105 L 116.75353076782326,80.1767955801105 L 118.24866615610927,80.1767955801105 L 118.26400547285132,80.1767955801105 L 118.30000627581249,80.1767955801105 L 119.79528502219888,80.1767955801105 L 119.82073108501864,80.1767955801105 L 119.84164344791347,80.1767955801105 L 121.34471729100873,80.1767955801105 L 121.36876561234965,80.1767955801105 L 121.39802858459237,80.1767955801105 L 122.89382700409269,80.1767955801105 L 122.91952394358813,80.1767955801105 L 122.94769381031534,80.1767955801105 L 124.44071466662054,80.1767955801105 L 124.46112527616401,80.1767955801105 L 124.49264613848791,80.1767955801105 L 125.99177763382235,80.1767955801105 L 126.01381894175778,80.1767955801105 L 126.04473053215501,80.1767955801105 L 127.53895201255101,80.1767955801105 L 127.5646310322839,80.1767955801105 L 127.59556054244369,80.1767955801105 L 129.0863235086677,80.1767955801105 L 129.1111065402731,80.1767955801105 L 129.12965349451147,80.1767955801105 L 130.63156255304105,80.1767955801105 L 130.6666136085871,80.1767955801105 L 130.6902856149145,80.1767955801105 L 132.18318103288186,80.1767955801105 L 132.20724727398533,80.1767955801105 L 133.75732465424696,80.1767955801105 L 133.78373838424434,80.1767955801105 L 135.27616788838543,80.1767955801105 L 135.29939190064908,80.1767955801105 L 135.3270420942624,80.1767955801105 L 136.82789388680158,80.1767955801105 L 136.85678054403076,80.1767955801105 L 136.8843411388313,80.1767955801105 L 138.37617929080827,80.1767955801105 L 138.40587233735215,80.1767955801105 L 138.43484859339407,80.1767955801105 L 139.92711681967222,80.1767955801105 L 139.95482077257316,80.1767955801105 L 139.9786540567635,80.1767955801105 L 141.4710118818544,80.1767955801105 L 141.49934302644454,40 L 141.52842680106178,40 L 143.0476463502138,40 L 143.07355832685982,40 L 144.56304898994284,40 L 144.5908963009442,40 L 144.60955077375783,40 L 146.11516922313507,40 L 146.14289109579855,40 L 146.17120432062617,40 L 147.66049786632115,40 L 147.68933076426268,40 L 147.72477605458485,40 L 149.21512686627023,40 L 149.24537542545318,40 L 149.26689706027463,40 L 150.76235500428652,40 L 150.7865646034904,40 L 150.81620389074664,40 L 152.31316709481266,40 L 152.3680374077381,40 L 153.85715175580756,40 L 153.88682688258888,40 L 153.91417244023887,40 L 155.40710369773132,40 L 155.43518396564582,40 L 155.46450069717616,40 L 156.95599837366467,40 L 156.98463415421818,40 L 157.0168538872815,40 L 158.50354906740688,40 L 158.5336901080145,40 L 158.5646554576994,40 L 160.05448659627083,40 L 160.0840542044769,40 L 160.11224199096665,40 L 161.60488653225835,40 L 161.62615729040414,40 L 161.65559946027233,40 L 163.14770640868755,40 L 163.17506988610003,40 L 163.206787865812,40 L 164.6966727636711,40 L 164.72387496322065,40 L 164.75381888644026,40 L 166.24508360601564,40 L 166.27085222456128,40 L 166.30262396356088,40 L 167.79456963411315,40 L 167.82033825265876,40 L 167.84422529613676,40 L 169.34814136807182,40 L 169.3700930771945,40 L 169.4020440138196,40 L 170.89169595476554,40 L 170.9169628199598,40 L 170.9453835633627,40 L 172.43922872874518,40 L 172.46148507383117,40 L 172.49513838789844,40 L 173.98590135412246,40 L 174.01202836791907,40 L 174.04408682311944,40 L 175.53244854116187,40 L 175.55681941822868,40 L 175.59149415876124,40 L 177.07661239978228,40 L 177.10809742258107,40 L 177.1404246742197,40 L 178.63032749184134,40 L 178.65546891869778,40 L 178.68496484785365,40 L 180.1806736685412,40 L 180.20782210880313,40 L 180.24081239165605,40 L 181.72632486745317,40 L 181.75804284716511,40 L 181.7930939027112,40 L 183.2776566310932,40 L 183.30177663148433,40 L 183.33333333333334,40" fill="none" stroke="none"/>
  </g>
  
  <!-- Footer -->
  <text x="400" y="580" text-anchor="middle" fill="#94a3b8" font-size="12" font-family="Arial, sans-serif">
    Generated by GitHub User Rank Tracker • 11/18/2025
    <animate attributeName="opacity" values="0;1" dur="0.5s" begin="5s" fill="freeze"/>
  </text>
</svg>