<svg width="800" height="600" xmlns="http://www.w3.org/2000/svg">
  <defs>
    <linearGradient id="bgGradient" x1="0%" y1="0%" x2="100%" y2="100%">
      <stop offset="0%" style="stop-color:#1e293b;stop-opacity:1" />
      <stop offset="100%" style="stop-color:#0f172a;stop-opacity:1" />
    </linearGradient>
    <filter id="shadow" x="-20%" y="-20%" width="140%" height="140%">
      <feDropShadow dx="2" dy="2" stdDeviation="3" flood-color="#000" flood-opacity="0.3"/>
    </filter>
    <!-- Trail effect filter -->
    <filter id="trailGlow" x="-50%" y="-50%" width="200%" height="200%">
      <feGaussianBlur stdDeviation="3" result="coloredBlur"/>
      <feMerge> 
        <feMergeNode in="coloredBlur"/>
        <feMergeNode in="SourceGraphic"/>
      </feMerge>
    </filter>
  </defs>
  
  <!-- Background -->
  <rect width="800" height="600" fill="url(#bgGradient)" rx="12"/>
  
  <!-- Header -->
  <text x="400" y="40" text-anchor="middle" fill="#f8fafc" font-size="24" font-weight="bold" font-family="Arial, sans-serif">
    GitHub Progress Report
    <animate attributeName="opacity" values="0;1" dur="0.8s" begin="0s" fill="freeze"/>
    <animateTransform attributeName="transform" type="translate" values="0,-20;0,0" dur="0.8s" begin="0s" fill="freeze"/>
  </text>
  
  <!-- User Info -->
  <text x="400" y="70" text-anchor="middle" fill="#cbd5e1" font-size="16" font-family="Arial, sans-serif">
    @maifeeulasad • BANGLADESH • 100 days analyzed
    <animate attributeName="opacity" values="0;1" dur="0.6s" begin="0.3s" fill="freeze"/>
  </text>
  
  <!-- Progress Cards -->
  <!-- Followers Card -->
  <g transform="translate(60, 100)">
    <rect width="206.66666666666666" height="120" fill="#1e293b" stroke="#334155" stroke-width="1" rx="8" filter="url(#shadow)">
      <animate attributeName="opacity" values="0;1" dur="0.6s" begin="0.2s" fill="freeze"/>
      <animateTransform attributeName="transform" type="scale" values="0.8;1" dur="0.6s" begin="0.2s" fill="freeze"/>
    </rect>
    <text x="103.33333333333333" y="25" text-anchor="middle" fill="#94a3b8" font-size="14" font-weight="bold" font-family="Arial, sans-serif">FOLLOWERS
      <animate attributeName="opacity" values="0;1" dur="0.5s" begin="0.4s" fill="freeze"/>
    </text>
    
    <text x="103.33333333333333" y="50" text-anchor="middle" fill="#22c55e" font-size="32" font-weight="bold" font-family="Arial, sans-serif">
      ↗
      <animate attributeName="opacity" values="0;1" dur="0.5s" begin="0.6s" fill="freeze"/>
      <animateTransform attributeName="transform" type="scale" values="0;1.2;1" dur="0.8s" begin="0.6s" fill="freeze"/>
    </text>
    
    <text x="103.33333333333333" y="75" text-anchor="middle" fill="#f8fafc" font-size="18" font-weight="bold" font-family="Arial, sans-serif">
      +1
      <animate attributeName="opacity" values="0;1" dur="0.5s" begin="0.8s" fill="freeze"/>
    </text>
    
    <text x="103.33333333333333" y="95" text-anchor="middle" fill="#94a3b8" font-size="12" font-family="Arial, sans-serif">
      #467 → #466
      <animate attributeName="opacity" values="0;1" dur="0.5s" begin="1s" fill="freeze"/>
    </text>
  </g>
  
  <!-- Public Contributions Card -->
  <g transform="translate(296.66666666666663, 100)">
    <rect width="206.66666666666666" height="120" fill="#1e293b" stroke="#334155" stroke-width="1" rx="8" filter="url(#shadow)">
      <animate attributeName="opacity" values="0;1" dur="0.6s" begin="0.4s" fill="freeze"/>
      <animateTransform attributeName="transform" type="scale" values="0.8;1" dur="0.6s" begin="0.4s" fill="freeze"/>
    </rect>
    <text x="103.33333333333333" y="25" text-anchor="middle" fill="#94a3b8" font-size="14" font-weight="bold" font-family="Arial, sans-serif">PUBLIC
      <animate attributeName="opacity" values="0;1" dur="0.5s" begin="0.6s" fill="freeze"/>
    </text>
    
    <text x="103.33333333333333" y="50" text-anchor="middle" fill="#6b7280" font-size="32" font-weight="bold" font-family="Arial, sans-serif">
      →
      <animate attributeName="opacity" values="0;1" dur="0.5s" begin="0.8s" fill="freeze"/>
      <animateTransform attributeName="transform" type="scale" values="0;1.2;1" dur="0.8s" begin="0.8s" fill="freeze"/>
    </text>
    
    <text x="103.33333333333333" y="75" text-anchor="middle" fill="#f8fafc" font-size="18" font-weight="bold" font-family="Arial, sans-serif">
      0
      <animate attributeName="opacity" values="0;1" dur="0.5s" begin="1s" fill="freeze"/>
    </text>
    
    <text x="103.33333333333333" y="95" text-anchor="middle" fill="#94a3b8" font-size="12" font-family="Arial, sans-serif">
      #7 → #7
      <animate attributeName="opacity" values="0;1" dur="0.5s" begin="1.2s" fill="freeze"/>
    </text>
  </g>
  
  <!-- Total Contributions Card -->
  <g transform="translate(533.3333333333333, 100)">
    <rect width="206.66666666666666" height="120" fill="#1e293b" stroke="#334155" stroke-width="1" rx="8" filter="url(#shadow)">
      <animate attributeName="opacity" values="0;1" dur="0.6s" begin="0.6s" fill="freeze"/>
      <animateTransform attributeName="transform" type="scale" values="0.8;1" dur="0.6s" begin="0.6s" fill="freeze"/>
    </rect>
    <text x="103.33333333333333" y="25" text-anchor="middle" fill="#94a3b8" font-size="14" font-weight="bold" font-family="Arial, sans-serif">TOTAL
      <animate attributeName="opacity" values="0;1" dur="0.5s" begin="0.8s" fill="freeze"/>
    </text>
    
    <text x="103.33333333333333" y="50" text-anchor="middle" fill="#22c55e" font-size="32" font-weight="bold" font-family="Arial, sans-serif">
      ↗
      <animate attributeName="opacity" values="0;1" dur="0.5s" begin="1s" fill="freeze"/>
      <animateTransform attributeName="transform" type="scale" values="0;1.2;1" dur="0.8s" begin="1s" fill="freeze"/>
    </text>
    
    <text x="103.33333333333333" y="75" text-anchor="middle" fill="#f8fafc" font-size="18" font-weight="bold" font-family="Arial, sans-serif">
      +9
      <animate attributeName="opacity" values="0;1" dur="0.5s" begin="1.2s" fill="freeze"/>
    </text>
    
    <text x="103.33333333333333" y="95" text-anchor="middle" fill="#94a3b8" font-size="12" font-family="Arial, sans-serif">
      #24 → #15
      <animate attributeName="opacity" values="0;1" dur="0.5s" begin="1.4s" fill="freeze"/>
    </text>
  </g>
  
  <!-- Timeline Charts (if we have snapshots) -->
  
  <!-- 👥 Followers Count Chart -->
  <g transform="translate(60, 250)">
    <!-- Chart Background -->
    <rect x="0" y="0" width="213.33333333333334" height="200" fill="#0f172a" stroke="#334155" stroke-width="1" rx="8" filter="url(#shadow)">
      <animate attributeName="opacity" values="0;1" dur="0.5s" begin="1.8s" fill="freeze"/>
    </rect>
    
    <!-- Chart Title -->
    <text x="106.66666666666667" y="25" text-anchor="middle" fill="#f8fafc" font-size="14" font-weight="bold" font-family="Arial, sans-serif">
      👥 Followers Count
      <animate attributeName="opacity" values="0;1" dur="0.5s" begin="2s" fill="freeze"/>
    </text>
    
    <!-- Y-axis labels -->
    <text x="10" y="45" fill="#94a3b8" font-size="10" font-family="Arial, sans-serif">150
      <animate attributeName="opacity" values="0;1" dur="0.5s" begin="2.2s" fill="freeze"/>
    </text>
    <text x="10" y="185" fill="#94a3b8" font-size="10" font-family="Arial, sans-serif">143
      <animate attributeName="opacity" values="0;1" dur="0.5s" begin="2.2s" fill="freeze"/>
    </text>
    
    <!-- Chart Line with draw animation that follows the circle -->
    <path d="M 30,160 L 30.023778113221013,160 L 30.053684421409308,160 L 31.54778135931015,160 L 31.5712190172552,160 L 31.601125325443498,160 L 33.09669159664059,160 L 33.12747592106689,160 L 33.163850879498426,160 L 34.6452792973938,160 L 34.66764183341476,160 L 34.69624007659542,160 L 36.19510338835971,160 L 36.21407929031981,160 L 36.24402143590557,160 L 37.73819004860135,160 L 37.760516747224855,160 L 37.78902539691184,160 L 37.828034404057384,160 L 39.29046900129393,160 L 39.320267797289816,160 L 39.34985156890089,160 L 40.834827889145735,160 L 40.86211806731876,160 L 40.890626717005745,160 L 42.38567334593953,160 L 42.401011752056476,160 L 42.437010417814584,160 L 43.932200396338246,160 L 43.957644948541585,160 L 43.97855606996504,160 L 45.481540682438315,160 L 45.50558757614035,160 L 45.53484881117419,160 L 47.03055843196116,160 L 47.0562538459468,160 L 47.08442204035782,160 L 48.5773542628409,160 L 48.59776366069978,160 L 48.629282651774204,160 L 50.12832515052584,160 L 50.15036514996957,160 L 50.18127490528702,160 L 51.67540768058532,160 L 51.70108517587222,160 L 51.732012849888406,160 L 53.222687316330905,160 L 53.24746887668106,160 L 53.26601472987153,160 L 54.76783462692704,160 L 54.80288360165221,160 L 54.82655420268082,160 L 56.319360994272756,160 L 56.34342580667352,160 L 57.89341116592805,160 L 57.91982332786307,160 L 59.4121642332879,160 L 59.435386866848134,160 L 59.46303541899586,160 L 60.96379811282603,160 L 60.99268305518643,160 L 61.02024201384049,160 L 62.51199160220707,160 L 62.54168288601055,160 L 62.57065742186464,160 L 64.06283705900086,160 L 64.09053936724479,160 L 64.114371236562,160 L 65.6066404671919,160 L 65.63496992989154,57.14285714285715 L 65.66405197793803,57.14285714285715 L 67.18318133797132,57.14285714285715 L 67.20909177634177,57.14285714285715 L 68.6984940151741,57.14285714285715 L 68.7263396730079,57.14285714285715 L 68.74499303839077,57.14285714285715 L 70.25052210608439,57.14285714285715 L 70.27824233302704,57.14285714285715 L 70.30655387702795,57.14285714285715 L 71.79575901017421,57.14285714285715 L 71.82459019643841,57.14285714285715 L 71.86003338253575,57.14285714285715 L 73.35029571890735,57.14285714285715 L 73.38054248237161,57.14285714285715 L 73.40206283955203,57.14285714285715 L 74.89743200506305,57.14285714285715 L 74.9216401670537,57.14285714285715 L 74.95127769476096,57.14285714285715 L 76.4481520309657,57.14285714285715 L 76.50301908649149,57.14285714285715 L 77.99204503265041,57.14285714285715 L 78.02171839775514,57.14285714285715 L 78.04906233202438,57.14285714285715 L 79.54190496101378,57.14285714285715 L 79.56998356193114,57.14285714285715 L 79.59929855306117,57.14285714285715 L 81.09070768615182,57.14285714285715 L 81.11934176672995,57.14285714285715 L 81.15155958705503,57.14285714285715 L 82.63816650888474,57.14285714285715 L 82.66830576015658,57.14285714285715 L 82.69926927157023,57.14285714285715 L 84.18901196567853,57.14285714285715 L 84.21857781859086,57.14285714285715 L 84.24676393170063,57.14285714285715 L 85.73931986151028,57.14285714285715 L 85.76058935690841,57.14285714285715 L 85.79002977892961,57.14285714285715 L 87.28204814777723,57.14285714285715 L 87.30941000074519,57.14285714285715 L 87.3411260975057,57.14285714285715 L 88.8309225477102,57.14285714285715 L 88.85812313238955,57.14285714285715 L 88.8880652779753,57.14285714285715 L 90.37924146798238,57.14285714285715 L 90.40500855676297,57.14285714285715 L 90.43677840961966,57.14285714285715 L 91.92863551017867,57.14285714285715 L 91.95440259895923,57.14285714285715 L 91.97828822437265,57.14285714285715 L 93.48211501568646,57.14285714285715 L 93.50406542163653,57.14285714285715 L 93.53601446148059,57.14285714285715 L 95.02557796860154,57.14285714285715 L 95.05084333381754,57.14285714285715 L 95.07926239001084,57.14285714285715 L 96.57301887263573,57.14285714285715 L 96.59527389646428,57.14285714285715 L 96.62892521268815,57.14285714285715 L 98.11959967913064,57.14285714285715 L 98.1457251418859,57.14285714285715 L 98.17778169392237,57.14285714285715 L 99.66605505473441,57.14285714285715 L 99.69042448501368,57.14285714285715 L 99.72509716706543,57.14285714285715 L 101.21012724340648,57.14285714285715 L 101.24161039708343,57.14285714285715 L 101.27393572960092,57.14285714285715 L 102.76375009850415,57.14285714285715 L 102.788890032829,57.14285714285715 L 102.8183842109464,57.14285714285715 L 104.3140042382397,57.14285714285715 L 104.34115106682285,57.14285714285715 L 104.37413939119351,57.14285714285715 L 105.85956367890674,57.14285714285715 L 105.89127977566724,57.14285714285715 L 105.92632875039241,57.14285714285715 L 107.4108033470727,57.14285714285715 L 107.43492191556966,57.14285714285715 L 107.46647674404157,57.14285714285715 L 108.96003612098036,57.14285714285715 L 108.98245241309753,57.14285714285715 L 109.01407891636435,57.14285714285715 L 110.50480713890308,57.14285714285715 L 110.52953494315703,57.14285714285715 L 110.56049845457066,57.14285714285715 L 112.05355610794489,57.14285714285715 L 112.08163470886225,57.14285714285715 L 113.60420445905261,57.14285714285715 L 113.63000738523064,57.14285714285715 L 113.65446640900358,57.14285714285715 L 115.15307885898558,57.14285714285715 L 115.18280598018652,57.14285714285715 L 115.21660064600026,57.14285714285715 L 116.6914170640625,57.14285714285715 L 116.72766659160291,57.14285714285715 L 116.75857634692035,57.14285714285715 L 118.24593585409691,57.14285714285715 L 118.26534180482666,57.14285714285715 L 118.30212889332908,57.14285714285715 L 119.79461314834381,57.14285714285715 L 119.82213626960039,57.14285714285715 L 119.85265181354566,57.14285714285715 L 121.34508231246417,57.14285714285715 L 121.3710823443283,57.14285714285715 L 121.39860546558488,57.14285714285715 L 122.88915450113623,57.14285714285715 L 122.91882786624096,57.14285714285715 L 122.94825036956343,57.14285714285715 L 124.43641621818307,57.14285714285715 L 124.46361680286242,57.14285714285715 L 124.49429361509631,57.14285714285715 L 125.9896627806073,57.14285714285715 L 126.02024999934754,57.14285714285715 L 126.0532383237182,57.14285714285715 L 127.54038280650995,57.14285714285715 L 127.56351584657654,57.14285714285715 L 127.61463789406676,57.14285714285715 L 129.08927512514168,57.14285714285715 L 129.1128023765804,57.14285714285715 L 129.14236822949272,57.14285714285715 L 130.63227219188963,57.14285714285715 L 130.65990282533863,57.14285714285715 L 130.68911030427626,57.14285714285715 L 132.1797489333213,57.14285714285715 L 132.20635820094242,57.14285714285715 L 132.23707085057376,57.14285714285715 L 133.72896378853022,57.14285714285715 L 133.75693487725516,57.14285714285715 L 133.78252277904838,57.14285714285715 L 135.27498911536435,57.14285714285715 L 135.30265558621082,57.14285714285715 L 135.3317197155586,57.14285714285715 L 136.83006338505956,57.14285714285715 L 136.859217107901,57.14285714285715 L 136.8896968144488,57.14285714285715 L 138.3723795412556,57.14285714285715 L 138.40169453238565,40 L 138.43210256413852,40 L 139.9268266564951,40 L 139.94764818442485,40 L 139.97597764712452,40 L 141.46921448748608,40 L 141.4891400804791,40 L 141.52721731529044,40 L 143.01959405811277,40 L 143.04838940697948,40 L 143.07274091856004,40 L 144.56171310862274,40 L 144.5943430590187,40 L 144.6260949931767,40 L 146.11703824010021,40 L 146.1320361909412,40 L 146.17043596232975,40 L 147.66487335550656,40 L 147.6948513384898,40 L 147.72982863842003,40 L 149.21297725139394,40 L 149.23944316942516,40 L 149.27528056689465,40 L 150.75830374897743,40 L 150.78831756935813,40 L 150.82161051160728,40 L 152.30993762851554,40 L 152.33179844097194,40 L 152.36283362718052,40 L 153.8537589554053,40 L 153.8786659466466,40 L 153.910794173478,40 L 155.40483735528267,40 L 155.43422402120763,40 L 155.45986567909705,40 L 156.9518482105472,40 L 156.98467526662927,40 L 157.007593282311,40 L 158.50203067548782,40 L 158.53091561784822,40 L 158.56417272269994,40 L 160.0507079697347,40 L 160.07889408284447,40 L 160.11292169174175,40 L 161.59796968678154,40 L 161.6236292633697,40 L 161.6556499780087,40 L 163.14754291596518,40 L 163.17553192338883,40 L 163.20798268679746,40 L 164.69183012902204,40 L 164.72944147766628,40 L 164.751212696629,40 L 166.24023864278792,40 L 166.26953571521923,40 L 166.29868943806065,40 L 167.78427499406249,40 L 167.81660032658,40 L 167.84362172427197,40 L 168.92383255879759,40 L 169.33906256457794,40 L 169.37119079140933,40 L 169.40503921331927,40 L 170.88705894827288,40 L 170.91515546788898,40 L 170.948054198766,40 L 172.43333513688933,40 L 172.45499884365964,40 L 172.4913379646937,40 L 173.98358927662488,40 L 174.01064651171433,40 L 174.04211174669254,40 L 175.53185444080086,40 L 175.56434104160695,40 L 175.59781317084347,40 L 177.07814854811602,40 L 177.10581501896246,40 L 177.1422437334902,40 L 178.63064252519342,40 L 178.65424145142705,40 L 178.68330558077483,40 L 180.1775100308681,40 L 180.21101799750207,40 L 180.2423936389866,40 L 181.72478966661365,40 L 181.75494683658425,40 L 181.78881317719294,40 L 183.27077915605034,40 L 183.30018374067404,40 L 183.33333333333334,40" stroke="#22c55e" stroke-width="2" fill="none" stroke-dasharray="14850" stroke-dashoffset="14850">
      <animate attributeName="stroke-dashoffset" values="14850;0" dur="3s" begin="2.6s" fill="freeze"/>
    </path>
    
    <!-- Glow effect for the line that also follows the circle -->
    <path d="M 30,160 L 30.023778113221013,160 L 30.053684421409308,160 L 31.54778135931015,160 L 31.5712190172552,160 L 31.601125325443498,160 L 33.09669159664059,160 L 33.12747592106689,160 L 33.163850879498426,160 L 34.6452792973938,160 L 34.66764183341476,160 L 34.69624007659542,160 L 36.19510338835971,160 L 36.21407929031981,160 L 36.24402143590557,160 L 37.73819004860135,160 L 37.760516747224855,160 L 37.78902539691184,160 L 37.828034404057384,160 L 39.29046900129393,160 L 39.320267797289816,160 L 39.34985156890089,160 L 40.834827889145735,160 L 40.86211806731876,160 L 40.890626717005745,160 L 42.38567334593953,160 L 42.401011752056476,160 L 42.437010417814584,160 L 43.932200396338246,160 L 43.957644948541585,160 L 43.97855606996504,160 L 45.481540682438315,160 L 45.50558757614035,160 L 45.53484881117419,160 L 47.03055843196116,160 L 47.0562538459468,160 L 47.08442204035782,160 L 48.5773542628409,160 L 48.59776366069978,160 L 48.629282651774204,160 L 50.12832515052584,160 L 50.15036514996957,160 L 50.18127490528702,160 L 51.67540768058532,160 L 51.70108517587222,160 L 51.732012849888406,160 L 53.222687316330905,160 L 53.24746887668106,160 L 53.26601472987153,160 L 54.76783462692704,160 L 54.80288360165221,160 L 54.82655420268082,160 L 56.319360994272756,160 L 56.34342580667352,160 L 57.89341116592805,160 L 57.91982332786307,160 L 59.4121642332879,160 L 59.435386866848134,160 L 59.46303541899586,160 L 60.96379811282603,160 L 60.99268305518643,160 L 61.02024201384049,160 L 62.51199160220707,160 L 62.54168288601055,160 L 62.57065742186464,160 L 64.06283705900086,160 L 64.09053936724479,160 L 64.114371236562,160 L 65.6066404671919,160 L 65.63496992989154,57.14285714285715 L 65.66405197793803,57.14285714285715 L 67.18318133797132,57.14285714285715 L 67.20909177634177,57.14285714285715 L 68.6984940151741,57.14285714285715 L 68.7263396730079,57.14285714285715 L 68.74499303839077,57.14285714285715 L 70.25052210608439,57.14285714285715 L 70.27824233302704,57.14285714285715 L 70.30655387702795,57.14285714285715 L 71.79575901017421,57.14285714285715 L 71.82459019643841,57.14285714285715 L 71.86003338253575,57.14285714285715 L 73.35029571890735,57.14285714285715 L 73.38054248237161,57.14285714285715 L 73.40206283955203,57.14285714285715 L 74.89743200506305,57.14285714285715 L 74.9216401670537,57.14285714285715 L 74.95127769476096,57.14285714285715 L 76.4481520309657,57.14285714285715 L 76.50301908649149,57.14285714285715 L 77.99204503265041,57.14285714285715 L 78.02171839775514,57.14285714285715 L 78.04906233202438,57.14285714285715 L 79.54190496101378,57.14285714285715 L 79.56998356193114,57.14285714285715 L 79.59929855306117,57.14285714285715 L 81.09070768615182,57.14285714285715 L 81.11934176672995,57.14285714285715 L 81.15155958705503,57.14285714285715 L 82.63816650888474,57.14285714285715 L 82.66830576015658,57.14285714285715 L 82.69926927157023,57.14285714285715 L 84.18901196567853,57.14285714285715 L 84.21857781859086,57.14285714285715 L 84.24676393170063,57.14285714285715 L 85.73931986151028,57.14285714285715 L 85.76058935690841,57.14285714285715 L 85.79002977892961,57.14285714285715 L 87.28204814777723,57.14285714285715 L 87.30941000074519,57.14285714285715 L 87.3411260975057,57.14285714285715 L 88.8309225477102,57.14285714285715 L 88.85812313238955,57.14285714285715 L 88.8880652779753,57.14285714285715 L 90.37924146798238,57.14285714285715 L 90.40500855676297,57.14285714285715 L 90.43677840961966,57.14285714285715 L 91.92863551017867,57.14285714285715 L 91.95440259895923,57.14285714285715 L 91.97828822437265,57.14285714285715 L 93.48211501568646,57.14285714285715 L 93.50406542163653,57.14285714285715 L 93.53601446148059,57.14285714285715 L 95.02557796860154,57.14285714285715 L 95.05084333381754,57.14285714285715 L 95.07926239001084,57.14285714285715 L 96.57301887263573,57.14285714285715 L 96.59527389646428,57.14285714285715 L 96.62892521268815,57.14285714285715 L 98.11959967913064,57.14285714285715 L 98.1457251418859,57.14285714285715 L 98.17778169392237,57.14285714285715 L 99.66605505473441,57.14285714285715 L 99.69042448501368,57.14285714285715 L 99.72509716706543,57.14285714285715 L 101.21012724340648,57.14285714285715 L 101.24161039708343,57.14285714285715 L 101.27393572960092,57.14285714285715 L 102.76375009850415,57.14285714285715 L 102.788890032829,57.14285714285715 L 102.8183842109464,57.14285714285715 L 104.3140042382397,57.14285714285715 L 104.34115106682285,57.14285714285715 L 104.37413939119351,57.14285714285715 L 105.85956367890674,57.14285714285715 L 105.89127977566724,57.14285714285715 L 105.92632875039241,57.14285714285715 L 107.4108033470727,57.14285714285715 L 107.43492191556966,57.14285714285715 L 107.46647674404157,57.14285714285715 L 108.96003612098036,57.14285714285715 L 108.98245241309753,57.14285714285715 L 109.01407891636435,57.14285714285715 L 110.50480713890308,57.14285714285715 L 110.52953494315703,57.14285714285715 L 110.56049845457066,57.14285714285715 L 112.05355610794489,57.14285714285715 L 112.08163470886225,57.14285714285715 L 113.60420445905261,57.14285714285715 L 113.63000738523064,57.14285714285715 L 113.65446640900358,57.14285714285715 L 115.15307885898558,57.14285714285715 L 115.18280598018652,57.14285714285715 L 115.21660064600026,57.14285714285715 L 116.6914170640625,57.14285714285715 L 116.72766659160291,57.14285714285715 L 116.75857634692035,57.14285714285715 L 118.24593585409691,57.14285714285715 L 118.26534180482666,57.14285714285715 L 118.30212889332908,57.14285714285715 L 119.79461314834381,57.14285714285715 L 119.82213626960039,57.14285714285715 L 119.85265181354566,57.14285714285715 L 121.34508231246417,57.14285714285715 L 121.3710823443283,57.14285714285715 L 121.39860546558488,57.14285714285715 L 122.88915450113623,57.14285714285715 L 122.91882786624096,57.14285714285715 L 122.94825036956343,57.14285714285715 L 124.43641621818307,57.14285714285715 L 124.46361680286242,57.14285714285715 L 124.49429361509631,57.14285714285715 L 125.9896627806073,57.14285714285715 L 126.02024999934754,57.14285714285715 L 126.0532383237182,57.14285714285715 L 127.54038280650995,57.14285714285715 L 127.56351584657654,57.14285714285715 L 127.61463789406676,57.14285714285715 L 129.08927512514168,57.14285714285715 L 129.1128023765804,57.14285714285715 L 129.14236822949272,57.14285714285715 L 130.63227219188963,57.14285714285715 L 130.65990282533863,57.14285714285715 L 130.68911030427626,57.14285714285715 L 132.1797489333213,57.14285714285715 L 132.20635820094242,57.14285714285715 L 132.23707085057376,57.14285714285715 L 133.72896378853022,57.14285714285715 L 133.75693487725516,57.14285714285715 L 133.78252277904838,57.14285714285715 L 135.27498911536435,57.14285714285715 L 135.30265558621082,57.14285714285715 L 135.3317197155586,57.14285714285715 L 136.83006338505956,57.14285714285715 L 136.859217107901,57.14285714285715 L 136.8896968144488,57.14285714285715 L 138.3723795412556,57.14285714285715 L 138.40169453238565,40 L 138.43210256413852,40 L 139.9268266564951,40 L 139.94764818442485,40 L 139.97597764712452,40 L 141.46921448748608,40 L 141.4891400804791,40 L 141.52721731529044,40 L 143.01959405811277,40 L 143.04838940697948,40 L 143.07274091856004,40 L 144.56171310862274,40 L 144.5943430590187,40 L 144.6260949931767,40 L 146.11703824010021,40 L 146.1320361909412,40 L 146.17043596232975,40 L 147.66487335550656,40 L 147.6948513384898,40 L 147.72982863842003,40 L 149.21297725139394,40 L 149.23944316942516,40 L 149.27528056689465,40 L 150.75830374897743,40 L 150.78831756935813,40 L 150.82161051160728,40 L 152.30993762851554,40 L 152.33179844097194,40 L 152.36283362718052,40 L 153.8537589554053,40 L 153.8786659466466,40 L 153.910794173478,40 L 155.40483735528267,40 L 155.43422402120763,40 L 155.45986567909705,40 L 156.9518482105472,40 L 156.98467526662927,40 L 157.007593282311,40 L 158.50203067548782,40 L 158.53091561784822,40 L 158.56417272269994,40 L 160.0507079697347,40 L 160.07889408284447,40 L 160.11292169174175,40 L 161.59796968678154,40 L 161.6236292633697,40 L 161.6556499780087,40 L 163.14754291596518,40 L 163.17553192338883,40 L 163.20798268679746,40 L 164.69183012902204,40 L 164.72944147766628,40 L 164.751212696629,40 L 166.24023864278792,40 L 166.26953571521923,40 L 166.29868943806065,40 L 167.78427499406249,40 L 167.81660032658,40 L 167.84362172427197,40 L 168.92383255879759,40 L 169.33906256457794,40 L 169.37119079140933,40 L 169.40503921331927,40 L 170.88705894827288,40 L 170.91515546788898,40 L 170.948054198766,40 L 172.43333513688933,40 L 172.45499884365964,40 L 172.4913379646937,40 L 173.98358927662488,40 L 174.01064651171433,40 L 174.04211174669254,40 L 175.53185444080086,40 L 175.56434104160695,40 L 175.59781317084347,40 L 177.07814854811602,40 L 177.10581501896246,40 L 177.1422437334902,40 L 178.63064252519342,40 L 178.65424145142705,40 L 178.68330558077483,40 L 180.1775100308681,40 L 180.21101799750207,40 L 180.2423936389866,40 L 181.72478966661365,40 L 181.75494683658425,40 L 181.78881317719294,40 L 183.27077915605034,40 L 183.30018374067404,40 L 183.33333333333334,40" stroke="#22c55e" stroke-width="4" fill="none" opacity="0.4" stroke-dasharray="14850" stroke-dashoffset="14850">
      <animate attributeName="stroke-dashoffset" values="14850;0" dur="3s" begin="2.6s" fill="freeze"/>
    </path>
    
    <!-- Animated circle that moves along the path and draws the line -->
    <circle r="5" fill="#22c55e" opacity="0" filter="url(#trailGlow)">
      <animate attributeName="opacity" values="0;1;1;1" dur="3.2s" begin="2.4s" fill="freeze"/>
      <animate attributeName="r" values="5;6;5" dur="1s" begin="2.4s" repeatCount="3"/>
      <animateMotion dur="3s" begin="2.4s" fill="freeze">
        <mpath href="#path_followersCount_60"/>
      </animateMotion>
    </circle>
    
    <!-- Small trail dots that fade out -->
    <circle r="2" fill="#22c55e" opacity="0">
      <animate attributeName="opacity" values="0;0.6;0" dur="0.8s" begin="2.8s" fill="freeze"/>
      <animateMotion dur="3s" begin="2.4s" fill="freeze">
        <mpath href="#path_followersCount_60"/>
      </animateMotion>
    </circle>
    
    <!-- Hidden path for motion animation -->
    <path id="path_followersCount_60" d="M 30,160 L 30.023778113221013,160 L 30.053684421409308,160 L 31.54778135931015,160 L 31.5712190172552,160 L 31.601125325443498,160 L 33.09669159664059,160 L 33.12747592106689,160 L 33.163850879498426,160 L 34.6452792973938,160 L 34.66764183341476,160 L 34.69624007659542,160 L 36.19510338835971,160 L 36.21407929031981,160 L 36.24402143590557,160 L 37.73819004860135,160 L 37.760516747224855,160 L 37.78902539691184,160 L 37.828034404057384,160 L 39.29046900129393,160 L 39.320267797289816,160 L 39.34985156890089,160 L 40.834827889145735,160 L 40.86211806731876,160 L 40.890626717005745,160 L 42.38567334593953,160 L 42.401011752056476,160 L 42.437010417814584,160 L 43.932200396338246,160 L 43.957644948541585,160 L 43.97855606996504,160 L 45.481540682438315,160 L 45.50558757614035,160 L 45.53484881117419,160 L 47.03055843196116,160 L 47.0562538459468,160 L 47.08442204035782,160 L 48.5773542628409,160 L 48.59776366069978,160 L 48.629282651774204,160 L 50.12832515052584,160 L 50.15036514996957,160 L 50.18127490528702,160 L 51.67540768058532,160 L 51.70108517587222,160 L 51.732012849888406,160 L 53.222687316330905,160 L 53.24746887668106,160 L 53.26601472987153,160 L 54.76783462692704,160 L 54.80288360165221,160 L 54.82655420268082,160 L 56.319360994272756,160 L 56.34342580667352,160 L 57.89341116592805,160 L 57.91982332786307,160 L 59.4121642332879,160 L 59.435386866848134,160 L 59.46303541899586,160 L 60.96379811282603,160 L 60.99268305518643,160 L 61.02024201384049,160 L 62.51199160220707,160 L 62.54168288601055,160 L 62.57065742186464,160 L 64.06283705900086,160 L 64.09053936724479,160 L 64.114371236562,160 L 65.6066404671919,160 L 65.63496992989154,57.14285714285715 L 65.66405197793803,57.14285714285715 L 67.18318133797132,57.14285714285715 L 67.20909177634177,57.14285714285715 L 68.6984940151741,57.14285714285715 L 68.7263396730079,57.14285714285715 L 68.74499303839077,57.14285714285715 L 70.25052210608439,57.14285714285715 L 70.27824233302704,57.14285714285715 L 70.30655387702795,57.14285714285715 L 71.79575901017421,57.14285714285715 L 71.82459019643841,57.14285714285715 L 71.86003338253575,57.14285714285715 L 73.35029571890735,57.14285714285715 L 73.38054248237161,57.14285714285715 L 73.40206283955203,57.14285714285715 L 74.89743200506305,57.14285714285715 L 74.9216401670537,57.14285714285715 L 74.95127769476096,57.14285714285715 L 76.4481520309657,57.14285714285715 L 76.50301908649149,57.14285714285715 L 77.99204503265041,57.14285714285715 L 78.02171839775514,57.14285714285715 L 78.04906233202438,57.14285714285715 L 79.54190496101378,57.14285714285715 L 79.56998356193114,57.14285714285715 L 79.59929855306117,57.14285714285715 L 81.09070768615182,57.14285714285715 L 81.11934176672995,57.14285714285715 L 81.15155958705503,57.14285714285715 L 82.63816650888474,57.14285714285715 L 82.66830576015658,57.14285714285715 L 82.69926927157023,57.14285714285715 L 84.18901196567853,57.14285714285715 L 84.21857781859086,57.14285714285715 L 84.24676393170063,57.14285714285715 L 85.73931986151028,57.14285714285715 L 85.76058935690841,57.14285714285715 L 85.79002977892961,57.14285714285715 L 87.28204814777723,57.14285714285715 L 87.30941000074519,57.14285714285715 L 87.3411260975057,57.14285714285715 L 88.8309225477102,57.14285714285715 L 88.85812313238955,57.14285714285715 L 88.8880652779753,57.14285714285715 L 90.37924146798238,57.14285714285715 L 90.40500855676297,57.14285714285715 L 90.43677840961966,57.14285714285715 L 91.92863551017867,57.14285714285715 L 91.95440259895923,57.14285714285715 L 91.97828822437265,57.14285714285715 L 93.48211501568646,57.14285714285715 L 93.50406542163653,57.14285714285715 L 93.53601446148059,57.14285714285715 L 95.02557796860154,57.14285714285715 L 95.05084333381754,57.14285714285715 L 95.07926239001084,57.14285714285715 L 96.57301887263573,57.14285714285715 L 96.59527389646428,57.14285714285715 L 96.62892521268815,57.14285714285715 L 98.11959967913064,57.14285714285715 L 98.1457251418859,57.14285714285715 L 98.17778169392237,57.14285714285715 L 99.66605505473441,57.14285714285715 L 99.69042448501368,57.14285714285715 L 99.72509716706543,57.14285714285715 L 101.21012724340648,57.14285714285715 L 101.24161039708343,57.14285714285715 L 101.27393572960092,57.14285714285715 L 102.76375009850415,57.14285714285715 L 102.788890032829,57.14285714285715 L 102.8183842109464,57.14285714285715 L 104.3140042382397,57.14285714285715 L 104.34115106682285,57.14285714285715 L 104.37413939119351,57.14285714285715 L 105.85956367890674,57.14285714285715 L 105.89127977566724,57.14285714285715 L 105.92632875039241,57.14285714285715 L 107.4108033470727,57.14285714285715 L 107.43492191556966,57.14285714285715 L 107.46647674404157,57.14285714285715 L 108.96003612098036,57.14285714285715 L 108.98245241309753,57.14285714285715 L 109.01407891636435,57.14285714285715 L 110.50480713890308,57.14285714285715 L 110.52953494315703,57.14285714285715 L 110.56049845457066,57.14285714285715 L 112.05355610794489,57.14285714285715 L 112.08163470886225,57.14285714285715 L 113.60420445905261,57.14285714285715 L 113.63000738523064,57.14285714285715 L 113.65446640900358,57.14285714285715 L 115.15307885898558,57.14285714285715 L 115.18280598018652,57.14285714285715 L 115.21660064600026,57.14285714285715 L 116.6914170640625,57.14285714285715 L 116.72766659160291,57.14285714285715 L 116.75857634692035,57.14285714285715 L 118.24593585409691,57.14285714285715 L 118.26534180482666,57.14285714285715 L 118.30212889332908,57.14285714285715 L 119.79461314834381,57.14285714285715 L 119.82213626960039,57.14285714285715 L 119.85265181354566,57.14285714285715 L 121.34508231246417,57.14285714285715 L 121.3710823443283,57.14285714285715 L 121.39860546558488,57.14285714285715 L 122.88915450113623,57.14285714285715 L 122.91882786624096,57.14285714285715 L 122.94825036956343,57.14285714285715 L 124.43641621818307,57.14285714285715 L 124.46361680286242,57.14285714285715 L 124.49429361509631,57.14285714285715 L 125.9896627806073,57.14285714285715 L 126.02024999934754,57.14285714285715 L 126.0532383237182,57.14285714285715 L 127.54038280650995,57.14285714285715 L 127.56351584657654,57.14285714285715 L 127.61463789406676,57.14285714285715 L 129.08927512514168,57.14285714285715 L 129.1128023765804,57.14285714285715 L 129.14236822949272,57.14285714285715 L 130.63227219188963,57.14285714285715 L 130.65990282533863,57.14285714285715 L 130.68911030427626,57.14285714285715 L 132.1797489333213,57.14285714285715 L 132.20635820094242,57.14285714285715 L 132.23707085057376,57.14285714285715 L 133.72896378853022,57.14285714285715 L 133.75693487725516,57.14285714285715 L 133.78252277904838,57.14285714285715 L 135.27498911536435,57.14285714285715 L 135.30265558621082,57.14285714285715 L 135.3317197155586,57.14285714285715 L 136.83006338505956,57.14285714285715 L 136.859217107901,57.14285714285715 L 136.8896968144488,57.14285714285715 L 138.3723795412556,57.14285714285715 L 138.40169453238565,40 L 138.43210256413852,40 L 139.9268266564951,40 L 139.94764818442485,40 L 139.97597764712452,40 L 141.46921448748608,40 L 141.4891400804791,40 L 141.52721731529044,40 L 143.01959405811277,40 L 143.04838940697948,40 L 143.07274091856004,40 L 144.56171310862274,40 L 144.5943430590187,40 L 144.6260949931767,40 L 146.11703824010021,40 L 146.1320361909412,40 L 146.17043596232975,40 L 147.66487335550656,40 L 147.6948513384898,40 L 147.72982863842003,40 L 149.21297725139394,40 L 149.23944316942516,40 L 149.27528056689465,40 L 150.75830374897743,40 L 150.78831756935813,40 L 150.82161051160728,40 L 152.30993762851554,40 L 152.33179844097194,40 L 152.36283362718052,40 L 153.8537589554053,40 L 153.8786659466466,40 L 153.910794173478,40 L 155.40483735528267,40 L 155.43422402120763,40 L 155.45986567909705,40 L 156.9518482105472,40 L 156.98467526662927,40 L 157.007593282311,40 L 158.50203067548782,40 L 158.53091561784822,40 L 158.56417272269994,40 L 160.0507079697347,40 L 160.07889408284447,40 L 160.11292169174175,40 L 161.59796968678154,40 L 161.6236292633697,40 L 161.6556499780087,40 L 163.14754291596518,40 L 163.17553192338883,40 L 163.20798268679746,40 L 164.69183012902204,40 L 164.72944147766628,40 L 164.751212696629,40 L 166.24023864278792,40 L 166.26953571521923,40 L 166.29868943806065,40 L 167.78427499406249,40 L 167.81660032658,40 L 167.84362172427197,40 L 168.92383255879759,40 L 169.33906256457794,40 L 169.37119079140933,40 L 169.40503921331927,40 L 170.88705894827288,40 L 170.91515546788898,40 L 170.948054198766,40 L 172.43333513688933,40 L 172.45499884365964,40 L 172.4913379646937,40 L 173.98358927662488,40 L 174.01064651171433,40 L 174.04211174669254,40 L 175.53185444080086,40 L 175.56434104160695,40 L 175.59781317084347,40 L 177.07814854811602,40 L 177.10581501896246,40 L 177.1422437334902,40 L 178.63064252519342,40 L 178.65424145142705,40 L 178.68330558077483,40 L 180.1775100308681,40 L 180.21101799750207,40 L 180.2423936389866,40 L 181.72478966661365,40 L 181.75494683658425,40 L 181.78881317719294,40 L 183.27077915605034,40 L 183.30018374067404,40 L 183.33333333333334,40" fill="none" stroke="none"/>
  </g>
  <!-- 🔓 Public Contributions Chart -->
  <g transform="translate(293.33333333333337, 250)">
    <!-- Chart Background -->
    <rect x="0" y="0" width="213.33333333333334" height="200" fill="#0f172a" stroke="#334155" stroke-width="1" rx="8" filter="url(#shadow)">
      <animate attributeName="opacity" values="0;1" dur="0.5s" begin="2.3s" fill="freeze"/>
    </rect>
    
    <!-- Chart Title -->
    <text x="106.66666666666667" y="25" text-anchor="middle" fill="#f8fafc" font-size="14" font-weight="bold" font-family="Arial, sans-serif">
      🔓 Public Contributions
      <animate attributeName="opacity" values="0;1" dur="0.5s" begin="2.5s" fill="freeze"/>
    </text>
    
    <!-- Y-axis labels -->
    <text x="10" y="45" fill="#94a3b8" font-size="10" font-family="Arial, sans-serif">3,434
      <animate attributeName="opacity" values="0;1" dur="0.5s" begin="2.6999999999999997s" fill="freeze"/>
    </text>
    <text x="10" y="185" fill="#94a3b8" font-size="10" font-family="Arial, sans-serif">2,669
      <animate attributeName="opacity" values="0;1" dur="0.5s" begin="2.6999999999999997s" fill="freeze"/>
    </text>
    
    <!-- Chart Line with draw animation that follows the circle -->
    <path d="M 30,160 L 30.023778113221013,160 L 30.053684421409308,160 L 31.54778135931015,160 L 31.5712190172552,160 L 31.601125325443498,160 L 33.09669159664059,160 L 33.12747592106689,160 L 33.163850879498426,160 L 34.6452792973938,160 L 34.66764183341476,160 L 34.69624007659542,160 L 36.19510338835971,160 L 36.21407929031981,160 L 36.24402143590557,160 L 37.73819004860135,160 L 37.760516747224855,160 L 37.78902539691184,160 L 37.828034404057384,160 L 39.29046900129393,160 L 39.320267797289816,160 L 39.34985156890089,160 L 40.834827889145735,160 L 40.86211806731876,160 L 40.890626717005745,160 L 42.38567334593953,160 L 42.401011752056476,160 L 42.437010417814584,160 L 43.932200396338246,160 L 43.957644948541585,160 L 43.97855606996504,160 L 45.481540682438315,160 L 45.50558757614035,160 L 45.53484881117419,160 L 47.03055843196116,160 L 47.0562538459468,160 L 47.08442204035782,160 L 48.5773542628409,160 L 48.59776366069978,160 L 48.629282651774204,160 L 50.12832515052584,160 L 50.15036514996957,160 L 50.18127490528702,160 L 51.67540768058532,160 L 51.70108517587222,160 L 51.732012849888406,160 L 53.222687316330905,160 L 53.24746887668106,160 L 53.26601472987153,160 L 54.76783462692704,160 L 54.80288360165221,160 L 54.82655420268082,160 L 56.319360994272756,160 L 56.34342580667352,160 L 57.89341116592805,160 L 57.91982332786307,160 L 59.4121642332879,160 L 59.435386866848134,160 L 59.46303541899586,160 L 60.96379811282603,160 L 60.99268305518643,160 L 61.02024201384049,160 L 62.51199160220707,160 L 62.54168288601055,160 L 62.57065742186464,160 L 64.06283705900086,160 L 64.09053936724479,160 L 64.114371236562,160 L 65.6066404671919,160 L 65.63496992989154,79.84313725490196 L 65.66405197793803,79.84313725490196 L 67.18318133797132,79.84313725490196 L 67.20909177634177,79.84313725490196 L 68.6984940151741,79.84313725490196 L 68.7263396730079,79.84313725490196 L 68.74499303839077,79.84313725490196 L 70.25052210608439,79.84313725490196 L 70.27824233302704,79.84313725490196 L 70.30655387702795,79.84313725490196 L 71.79575901017421,79.84313725490196 L 71.82459019643841,79.84313725490196 L 71.86003338253575,79.84313725490196 L 73.35029571890735,79.84313725490196 L 73.38054248237161,79.84313725490196 L 73.40206283955203,79.84313725490196 L 74.89743200506305,79.84313725490196 L 74.9216401670537,79.84313725490196 L 74.95127769476096,79.84313725490196 L 76.4481520309657,79.84313725490196 L 76.50301908649149,79.84313725490196 L 77.99204503265041,79.84313725490196 L 78.02171839775514,79.84313725490196 L 78.04906233202438,79.84313725490196 L 79.54190496101378,79.84313725490196 L 79.56998356193114,79.84313725490196 L 79.59929855306117,79.84313725490196 L 81.09070768615182,79.84313725490196 L 81.11934176672995,79.84313725490196 L 81.15155958705503,79.84313725490196 L 82.63816650888474,79.84313725490196 L 82.66830576015658,79.84313725490196 L 82.69926927157023,79.84313725490196 L 84.18901196567853,79.84313725490196 L 84.21857781859086,79.84313725490196 L 84.24676393170063,79.84313725490196 L 85.73931986151028,79.84313725490196 L 85.76058935690841,79.84313725490196 L 85.79002977892961,79.84313725490196 L 87.28204814777723,79.84313725490196 L 87.30941000074519,79.84313725490196 L 87.3411260975057,79.84313725490196 L 88.8309225477102,79.84313725490196 L 88.85812313238955,79.84313725490196 L 88.8880652779753,79.84313725490196 L 90.37924146798238,79.84313725490196 L 90.40500855676297,79.84313725490196 L 90.43677840961966,79.84313725490196 L 91.92863551017867,79.84313725490196 L 91.95440259895923,79.84313725490196 L 91.97828822437265,79.84313725490196 L 93.48211501568646,79.84313725490196 L 93.50406542163653,79.84313725490196 L 93.53601446148059,79.84313725490196 L 95.02557796860154,79.84313725490196 L 95.05084333381754,79.84313725490196 L 95.07926239001084,79.84313725490196 L 96.57301887263573,79.84313725490196 L 96.59527389646428,79.84313725490196 L 96.62892521268815,79.84313725490196 L 98.11959967913064,79.84313725490196 L 98.1457251418859,79.84313725490196 L 98.17778169392237,79.84313725490196 L 99.66605505473441,79.84313725490196 L 99.69042448501368,79.84313725490196 L 99.72509716706543,79.84313725490196 L 101.21012724340648,79.84313725490196 L 101.24161039708343,79.84313725490196 L 101.27393572960092,79.84313725490196 L 102.76375009850415,79.84313725490196 L 102.788890032829,79.84313725490196 L 102.8183842109464,79.84313725490196 L 104.3140042382397,79.84313725490196 L 104.34115106682285,79.84313725490196 L 104.37413939119351,79.84313725490196 L 105.85956367890674,79.84313725490196 L 105.89127977566724,79.84313725490196 L 105.92632875039241,79.84313725490196 L 107.4108033470727,79.84313725490196 L 107.43492191556966,79.84313725490196 L 107.46647674404157,79.84313725490196 L 108.96003612098036,79.84313725490196 L 108.98245241309753,79.84313725490196 L 109.01407891636435,79.84313725490196 L 110.50480713890308,79.84313725490196 L 110.52953494315703,79.84313725490196 L 110.56049845457066,79.84313725490196 L 112.05355610794489,79.84313725490196 L 112.08163470886225,79.84313725490196 L 113.60420445905261,79.84313725490196 L 113.63000738523064,79.84313725490196 L 113.65446640900358,79.84313725490196 L 115.15307885898558,79.84313725490196 L 115.18280598018652,79.84313725490196 L 115.21660064600026,79.84313725490196 L 116.6914170640625,79.84313725490196 L 116.72766659160291,79.84313725490196 L 116.75857634692035,79.84313725490196 L 118.24593585409691,79.84313725490196 L 118.26534180482666,79.84313725490196 L 118.30212889332908,79.84313725490196 L 119.79461314834381,79.84313725490196 L 119.82213626960039,79.84313725490196 L 119.85265181354566,79.84313725490196 L 121.34508231246417,79.84313725490196 L 121.3710823443283,79.84313725490196 L 121.39860546558488,79.84313725490196 L 122.88915450113623,79.84313725490196 L 122.91882786624096,79.84313725490196 L 122.94825036956343,79.84313725490196 L 124.43641621818307,79.84313725490196 L 124.46361680286242,79.84313725490196 L 124.49429361509631,79.84313725490196 L 125.9896627806073,79.84313725490196 L 126.02024999934754,79.84313725490196 L 126.0532383237182,79.84313725490196 L 127.54038280650995,79.84313725490196 L 127.56351584657654,79.84313725490196 L 127.61463789406676,79.84313725490196 L 129.08927512514168,79.84313725490196 L 129.1128023765804,79.84313725490196 L 129.14236822949272,79.84313725490196 L 130.63227219188963,79.84313725490196 L 130.65990282533863,79.84313725490196 L 130.68911030427626,79.84313725490196 L 132.1797489333213,79.84313725490196 L 132.20635820094242,79.84313725490196 L 132.23707085057376,79.84313725490196 L 133.72896378853022,79.84313725490196 L 133.75693487725516,79.84313725490196 L 133.78252277904838,79.84313725490196 L 135.27498911536435,79.84313725490196 L 135.30265558621082,79.84313725490196 L 135.3317197155586,79.84313725490196 L 136.83006338505956,79.84313725490196 L 136.859217107901,79.84313725490196 L 136.8896968144488,79.84313725490196 L 138.3723795412556,79.84313725490196 L 138.40169453238565,40 L 138.43210256413852,40 L 139.9268266564951,40 L 139.94764818442485,40 L 139.97597764712452,40 L 141.46921448748608,40 L 141.4891400804791,40 L 141.52721731529044,40 L 143.01959405811277,40 L 143.04838940697948,40 L 143.07274091856004,40 L 144.56171310862274,40 L 144.5943430590187,40 L 144.6260949931767,40 L 146.11703824010021,40 L 146.1320361909412,40 L 146.17043596232975,40 L 147.66487335550656,40 L 147.6948513384898,40 L 147.72982863842003,40 L 149.21297725139394,40 L 149.23944316942516,40 L 149.27528056689465,40 L 150.75830374897743,40 L 150.78831756935813,40 L 150.82161051160728,40 L 152.30993762851554,40 L 152.33179844097194,40 L 152.36283362718052,40 L 153.8537589554053,40 L 153.8786659466466,40 L 153.910794173478,40 L 155.40483735528267,40 L 155.43422402120763,40 L 155.45986567909705,40 L 156.9518482105472,40 L 156.98467526662927,40 L 157.007593282311,40 L 158.50203067548782,40 L 158.53091561784822,40 L 158.56417272269994,40 L 160.0507079697347,40 L 160.07889408284447,40 L 160.11292169174175,40 L 161.59796968678154,40 L 161.6236292633697,40 L 161.6556499780087,40 L 163.14754291596518,40 L 163.17553192338883,40 L 163.20798268679746,40 L 164.69183012902204,40 L 164.72944147766628,40 L 164.751212696629,40 L 166.24023864278792,40 L 166.26953571521923,40 L 166.29868943806065,40 L 167.78427499406249,40 L 167.81660032658,40 L 167.84362172427197,40 L 168.92383255879759,40 L 169.33906256457794,40 L 169.37119079140933,40 L 169.40503921331927,40 L 170.88705894827288,40 L 170.91515546788898,40 L 170.948054198766,40 L 172.43333513688933,40 L 172.45499884365964,40 L 172.4913379646937,40 L 173.98358927662488,40 L 174.01064651171433,40 L 174.04211174669254,40 L 175.53185444080086,40 L 175.56434104160695,40 L 175.59781317084347,40 L 177.07814854811602,40 L 177.10581501896246,40 L 177.1422437334902,40 L 178.63064252519342,40 L 178.65424145142705,40 L 178.68330558077483,40 L 180.1775100308681,40 L 180.21101799750207,40 L 180.2423936389866,40 L 181.72478966661365,40 L 181.75494683658425,40 L 181.78881317719294,40 L 183.27077915605034,40 L 183.30018374067404,40 L 183.33333333333334,40" stroke="#3b82f6" stroke-width="2" fill="none" stroke-dasharray="14850" stroke-dashoffset="14850">
      <animate attributeName="stroke-dashoffset" values="14850;0" dur="3s" begin="3.0999999999999996s" fill="freeze"/>
    </path>
    
    <!-- Glow effect for the line that also follows the circle -->
    <path d="M 30,160 L 30.023778113221013,160 L 30.053684421409308,160 L 31.54778135931015,160 L 31.5712190172552,160 L 31.601125325443498,160 L 33.09669159664059,160 L 33.12747592106689,160 L 33.163850879498426,160 L 34.6452792973938,160 L 34.66764183341476,160 L 34.69624007659542,160 L 36.19510338835971,160 L 36.21407929031981,160 L 36.24402143590557,160 L 37.73819004860135,160 L 37.760516747224855,160 L 37.78902539691184,160 L 37.828034404057384,160 L 39.29046900129393,160 L 39.320267797289816,160 L 39.34985156890089,160 L 40.834827889145735,160 L 40.86211806731876,160 L 40.890626717005745,160 L 42.38567334593953,160 L 42.401011752056476,160 L 42.437010417814584,160 L 43.932200396338246,160 L 43.957644948541585,160 L 43.97855606996504,160 L 45.481540682438315,160 L 45.50558757614035,160 L 45.53484881117419,160 L 47.03055843196116,160 L 47.0562538459468,160 L 47.08442204035782,160 L 48.5773542628409,160 L 48.59776366069978,160 L 48.629282651774204,160 L 50.12832515052584,160 L 50.15036514996957,160 L 50.18127490528702,160 L 51.67540768058532,160 L 51.70108517587222,160 L 51.732012849888406,160 L 53.222687316330905,160 L 53.24746887668106,160 L 53.26601472987153,160 L 54.76783462692704,160 L 54.80288360165221,160 L 54.82655420268082,160 L 56.319360994272756,160 L 56.34342580667352,160 L 57.89341116592805,160 L 57.91982332786307,160 L 59.4121642332879,160 L 59.435386866848134,160 L 59.46303541899586,160 L 60.96379811282603,160 L 60.99268305518643,160 L 61.02024201384049,160 L 62.51199160220707,160 L 62.54168288601055,160 L 62.57065742186464,160 L 64.06283705900086,160 L 64.09053936724479,160 L 64.114371236562,160 L 65.6066404671919,160 L 65.63496992989154,79.84313725490196 L 65.66405197793803,79.84313725490196 L 67.18318133797132,79.84313725490196 L 67.20909177634177,79.84313725490196 L 68.6984940151741,79.84313725490196 L 68.7263396730079,79.84313725490196 L 68.74499303839077,79.84313725490196 L 70.25052210608439,79.84313725490196 L 70.27824233302704,79.84313725490196 L 70.30655387702795,79.84313725490196 L 71.79575901017421,79.84313725490196 L 71.82459019643841,79.84313725490196 L 71.86003338253575,79.84313725490196 L 73.35029571890735,79.84313725490196 L 73.38054248237161,79.84313725490196 L 73.40206283955203,79.84313725490196 L 74.89743200506305,79.84313725490196 L 74.9216401670537,79.84313725490196 L 74.95127769476096,79.84313725490196 L 76.4481520309657,79.84313725490196 L 76.50301908649149,79.84313725490196 L 77.99204503265041,79.84313725490196 L 78.02171839775514,79.84313725490196 L 78.04906233202438,79.84313725490196 L 79.54190496101378,79.84313725490196 L 79.56998356193114,79.84313725490196 L 79.59929855306117,79.84313725490196 L 81.09070768615182,79.84313725490196 L 81.11934176672995,79.84313725490196 L 81.15155958705503,79.84313725490196 L 82.63816650888474,79.84313725490196 L 82.66830576015658,79.84313725490196 L 82.69926927157023,79.84313725490196 L 84.18901196567853,79.84313725490196 L 84.21857781859086,79.84313725490196 L 84.24676393170063,79.84313725490196 L 85.73931986151028,79.84313725490196 L 85.76058935690841,79.84313725490196 L 85.79002977892961,79.84313725490196 L 87.28204814777723,79.84313725490196 L 87.30941000074519,79.84313725490196 L 87.3411260975057,79.84313725490196 L 88.8309225477102,79.84313725490196 L 88.85812313238955,79.84313725490196 L 88.8880652779753,79.84313725490196 L 90.37924146798238,79.84313725490196 L 90.40500855676297,79.84313725490196 L 90.43677840961966,79.84313725490196 L 91.92863551017867,79.84313725490196 L 91.95440259895923,79.84313725490196 L 91.97828822437265,79.84313725490196 L 93.48211501568646,79.84313725490196 L 93.50406542163653,79.84313725490196 L 93.53601446148059,79.84313725490196 L 95.02557796860154,79.84313725490196 L 95.05084333381754,79.84313725490196 L 95.07926239001084,79.84313725490196 L 96.57301887263573,79.84313725490196 L 96.59527389646428,79.84313725490196 L 96.62892521268815,79.84313725490196 L 98.11959967913064,79.84313725490196 L 98.1457251418859,79.84313725490196 L 98.17778169392237,79.84313725490196 L 99.66605505473441,79.84313725490196 L 99.69042448501368,79.84313725490196 L 99.72509716706543,79.84313725490196 L 101.21012724340648,79.84313725490196 L 101.24161039708343,79.84313725490196 L 101.27393572960092,79.84313725490196 L 102.76375009850415,79.84313725490196 L 102.788890032829,79.84313725490196 L 102.8183842109464,79.84313725490196 L 104.3140042382397,79.84313725490196 L 104.34115106682285,79.84313725490196 L 104.37413939119351,79.84313725490196 L 105.85956367890674,79.84313725490196 L 105.89127977566724,79.84313725490196 L 105.92632875039241,79.84313725490196 L 107.4108033470727,79.84313725490196 L 107.43492191556966,79.84313725490196 L 107.46647674404157,79.84313725490196 L 108.96003612098036,79.84313725490196 L 108.98245241309753,79.84313725490196 L 109.01407891636435,79.84313725490196 L 110.50480713890308,79.84313725490196 L 110.52953494315703,79.84313725490196 L 110.56049845457066,79.84313725490196 L 112.05355610794489,79.84313725490196 L 112.08163470886225,79.84313725490196 L 113.60420445905261,79.84313725490196 L 113.63000738523064,79.84313725490196 L 113.65446640900358,79.84313725490196 L 115.15307885898558,79.84313725490196 L 115.18280598018652,79.84313725490196 L 115.21660064600026,79.84313725490196 L 116.6914170640625,79.84313725490196 L 116.72766659160291,79.84313725490196 L 116.75857634692035,79.84313725490196 L 118.24593585409691,79.84313725490196 L 118.26534180482666,79.84313725490196 L 118.30212889332908,79.84313725490196 L 119.79461314834381,79.84313725490196 L 119.82213626960039,79.84313725490196 L 119.85265181354566,79.84313725490196 L 121.34508231246417,79.84313725490196 L 121.3710823443283,79.84313725490196 L 121.39860546558488,79.84313725490196 L 122.88915450113623,79.84313725490196 L 122.91882786624096,79.84313725490196 L 122.94825036956343,79.84313725490196 L 124.43641621818307,79.84313725490196 L 124.46361680286242,79.84313725490196 L 124.49429361509631,79.84313725490196 L 125.9896627806073,79.84313725490196 L 126.02024999934754,79.84313725490196 L 126.0532383237182,79.84313725490196 L 127.54038280650995,79.84313725490196 L 127.56351584657654,79.84313725490196 L 127.61463789406676,79.84313725490196 L 129.08927512514168,79.84313725490196 L 129.1128023765804,79.84313725490196 L 129.14236822949272,79.84313725490196 L 130.63227219188963,79.84313725490196 L 130.65990282533863,79.84313725490196 L 130.68911030427626,79.84313725490196 L 132.1797489333213,79.84313725490196 L 132.20635820094242,79.84313725490196 L 132.23707085057376,79.84313725490196 L 133.72896378853022,79.84313725490196 L 133.75693487725516,79.84313725490196 L 133.78252277904838,79.84313725490196 L 135.27498911536435,79.84313725490196 L 135.30265558621082,79.84313725490196 L 135.3317197155586,79.84313725490196 L 136.83006338505956,79.84313725490196 L 136.859217107901,79.84313725490196 L 136.8896968144488,79.84313725490196 L 138.3723795412556,79.84313725490196 L 138.40169453238565,40 L 138.43210256413852,40 L 139.9268266564951,40 L 139.94764818442485,40 L 139.97597764712452,40 L 141.46921448748608,40 L 141.4891400804791,40 L 141.52721731529044,40 L 143.01959405811277,40 L 143.04838940697948,40 L 143.07274091856004,40 L 144.56171310862274,40 L 144.5943430590187,40 L 144.6260949931767,40 L 146.11703824010021,40 L 146.1320361909412,40 L 146.17043596232975,40 L 147.66487335550656,40 L 147.6948513384898,40 L 147.72982863842003,40 L 149.21297725139394,40 L 149.23944316942516,40 L 149.27528056689465,40 L 150.75830374897743,40 L 150.78831756935813,40 L 150.82161051160728,40 L 152.30993762851554,40 L 152.33179844097194,40 L 152.36283362718052,40 L 153.8537589554053,40 L 153.8786659466466,40 L 153.910794173478,40 L 155.40483735528267,40 L 155.43422402120763,40 L 155.45986567909705,40 L 156.9518482105472,40 L 156.98467526662927,40 L 157.007593282311,40 L 158.50203067548782,40 L 158.53091561784822,40 L 158.56417272269994,40 L 160.0507079697347,40 L 160.07889408284447,40 L 160.11292169174175,40 L 161.59796968678154,40 L 161.6236292633697,40 L 161.6556499780087,40 L 163.14754291596518,40 L 163.17553192338883,40 L 163.20798268679746,40 L 164.69183012902204,40 L 164.72944147766628,40 L 164.751212696629,40 L 166.24023864278792,40 L 166.26953571521923,40 L 166.29868943806065,40 L 167.78427499406249,40 L 167.81660032658,40 L 167.84362172427197,40 L 168.92383255879759,40 L 169.33906256457794,40 L 169.37119079140933,40 L 169.40503921331927,40 L 170.88705894827288,40 L 170.91515546788898,40 L 170.948054198766,40 L 172.43333513688933,40 L 172.45499884365964,40 L 172.4913379646937,40 L 173.98358927662488,40 L 174.01064651171433,40 L 174.04211174669254,40 L 175.53185444080086,40 L 175.56434104160695,40 L 175.59781317084347,40 L 177.07814854811602,40 L 177.10581501896246,40 L 177.1422437334902,40 L 178.63064252519342,40 L 178.65424145142705,40 L 178.68330558077483,40 L 180.1775100308681,40 L 180.21101799750207,40 L 180.2423936389866,40 L 181.72478966661365,40 L 181.75494683658425,40 L 181.78881317719294,40 L 183.27077915605034,40 L 183.30018374067404,40 L 183.33333333333334,40" stroke="#3b82f6" stroke-width="4" fill="none" opacity="0.4" stroke-dasharray="14850" stroke-dashoffset="14850">
      <animate attributeName="stroke-dashoffset" values="14850;0" dur="3s" begin="3.0999999999999996s" fill="freeze"/>
    </path>
    
    <!-- Animated circle that moves along the path and draws the line -->
    <circle r="5" fill="#3b82f6" opacity="0" filter="url(#trailGlow)">
      <animate attributeName="opacity" values="0;1;1;1" dur="3.2s" begin="2.9s" fill="freeze"/>
      <animate attributeName="r" values="5;6;5" dur="1s" begin="2.9s" repeatCount="3"/>
      <animateMotion dur="3s" begin="2.9s" fill="freeze">
        <mpath href="#path_publicContributions_293.33333333333337"/>
      </animateMotion>
    </circle>
    
    <!-- Small trail dots that fade out -->
    <circle r="2" fill="#3b82f6" opacity="0">
      <animate attributeName="opacity" values="0;0.6;0" dur="0.8s" begin="3.3s" fill="freeze"/>
      <animateMotion dur="3s" begin="2.9s" fill="freeze">
        <mpath href="#path_publicContributions_293.33333333333337"/>
      </animateMotion>
    </circle>
    
    <!-- Hidden path for motion animation -->
    <path id="path_publicContributions_293.33333333333337" d="M 30,160 L 30.023778113221013,160 L 30.053684421409308,160 L 31.54778135931015,160 L 31.5712190172552,160 L 31.601125325443498,160 L 33.09669159664059,160 L 33.12747592106689,160 L 33.163850879498426,160 L 34.6452792973938,160 L 34.66764183341476,160 L 34.69624007659542,160 L 36.19510338835971,160 L 36.21407929031981,160 L 36.24402143590557,160 L 37.73819004860135,160 L 37.760516747224855,160 L 37.78902539691184,160 L 37.828034404057384,160 L 39.29046900129393,160 L 39.320267797289816,160 L 39.34985156890089,160 L 40.834827889145735,160 L 40.86211806731876,160 L 40.890626717005745,160 L 42.38567334593953,160 L 42.401011752056476,160 L 42.437010417814584,160 L 43.932200396338246,160 L 43.957644948541585,160 L 43.97855606996504,160 L 45.481540682438315,160 L 45.50558757614035,160 L 45.53484881117419,160 L 47.03055843196116,160 L 47.0562538459468,160 L 47.08442204035782,160 L 48.5773542628409,160 L 48.59776366069978,160 L 48.629282651774204,160 L 50.12832515052584,160 L 50.15036514996957,160 L 50.18127490528702,160 L 51.67540768058532,160 L 51.70108517587222,160 L 51.732012849888406,160 L 53.222687316330905,160 L 53.24746887668106,160 L 53.26601472987153,160 L 54.76783462692704,160 L 54.80288360165221,160 L 54.82655420268082,160 L 56.319360994272756,160 L 56.34342580667352,160 L 57.89341116592805,160 L 57.91982332786307,160 L 59.4121642332879,160 L 59.435386866848134,160 L 59.46303541899586,160 L 60.96379811282603,160 L 60.99268305518643,160 L 61.02024201384049,160 L 62.51199160220707,160 L 62.54168288601055,160 L 62.57065742186464,160 L 64.06283705900086,160 L 64.09053936724479,160 L 64.114371236562,160 L 65.6066404671919,160 L 65.63496992989154,79.84313725490196 L 65.66405197793803,79.84313725490196 L 67.18318133797132,79.84313725490196 L 67.20909177634177,79.84313725490196 L 68.6984940151741,79.84313725490196 L 68.7263396730079,79.84313725490196 L 68.74499303839077,79.84313725490196 L 70.25052210608439,79.84313725490196 L 70.27824233302704,79.84313725490196 L 70.30655387702795,79.84313725490196 L 71.79575901017421,79.84313725490196 L 71.82459019643841,79.84313725490196 L 71.86003338253575,79.84313725490196 L 73.35029571890735,79.84313725490196 L 73.38054248237161,79.84313725490196 L 73.40206283955203,79.84313725490196 L 74.89743200506305,79.84313725490196 L 74.9216401670537,79.84313725490196 L 74.95127769476096,79.84313725490196 L 76.4481520309657,79.84313725490196 L 76.50301908649149,79.84313725490196 L 77.99204503265041,79.84313725490196 L 78.02171839775514,79.84313725490196 L 78.04906233202438,79.84313725490196 L 79.54190496101378,79.84313725490196 L 79.56998356193114,79.84313725490196 L 79.59929855306117,79.84313725490196 L 81.09070768615182,79.84313725490196 L 81.11934176672995,79.84313725490196 L 81.15155958705503,79.84313725490196 L 82.63816650888474,79.84313725490196 L 82.66830576015658,79.84313725490196 L 82.69926927157023,79.84313725490196 L 84.18901196567853,79.84313725490196 L 84.21857781859086,79.84313725490196 L 84.24676393170063,79.84313725490196 L 85.73931986151028,79.84313725490196 L 85.76058935690841,79.84313725490196 L 85.79002977892961,79.84313725490196 L 87.28204814777723,79.84313725490196 L 87.30941000074519,79.84313725490196 L 87.3411260975057,79.84313725490196 L 88.8309225477102,79.84313725490196 L 88.85812313238955,79.84313725490196 L 88.8880652779753,79.84313725490196 L 90.37924146798238,79.84313725490196 L 90.40500855676297,79.84313725490196 L 90.43677840961966,79.84313725490196 L 91.92863551017867,79.84313725490196 L 91.95440259895923,79.84313725490196 L 91.97828822437265,79.84313725490196 L 93.48211501568646,79.84313725490196 L 93.50406542163653,79.84313725490196 L 93.53601446148059,79.84313725490196 L 95.02557796860154,79.84313725490196 L 95.05084333381754,79.84313725490196 L 95.07926239001084,79.84313725490196 L 96.57301887263573,79.84313725490196 L 96.59527389646428,79.84313725490196 L 96.62892521268815,79.84313725490196 L 98.11959967913064,79.84313725490196 L 98.1457251418859,79.84313725490196 L 98.17778169392237,79.84313725490196 L 99.66605505473441,79.84313725490196 L 99.69042448501368,79.84313725490196 L 99.72509716706543,79.84313725490196 L 101.21012724340648,79.84313725490196 L 101.24161039708343,79.84313725490196 L 101.27393572960092,79.84313725490196 L 102.76375009850415,79.84313725490196 L 102.788890032829,79.84313725490196 L 102.8183842109464,79.84313725490196 L 104.3140042382397,79.84313725490196 L 104.34115106682285,79.84313725490196 L 104.37413939119351,79.84313725490196 L 105.85956367890674,79.84313725490196 L 105.89127977566724,79.84313725490196 L 105.92632875039241,79.84313725490196 L 107.4108033470727,79.84313725490196 L 107.43492191556966,79.84313725490196 L 107.46647674404157,79.84313725490196 L 108.96003612098036,79.84313725490196 L 108.98245241309753,79.84313725490196 L 109.01407891636435,79.84313725490196 L 110.50480713890308,79.84313725490196 L 110.52953494315703,79.84313725490196 L 110.56049845457066,79.84313725490196 L 112.05355610794489,79.84313725490196 L 112.08163470886225,79.84313725490196 L 113.60420445905261,79.84313725490196 L 113.63000738523064,79.84313725490196 L 113.65446640900358,79.84313725490196 L 115.15307885898558,79.84313725490196 L 115.18280598018652,79.84313725490196 L 115.21660064600026,79.84313725490196 L 116.6914170640625,79.84313725490196 L 116.72766659160291,79.84313725490196 L 116.75857634692035,79.84313725490196 L 118.24593585409691,79.84313725490196 L 118.26534180482666,79.84313725490196 L 118.30212889332908,79.84313725490196 L 119.79461314834381,79.84313725490196 L 119.82213626960039,79.84313725490196 L 119.85265181354566,79.84313725490196 L 121.34508231246417,79.84313725490196 L 121.3710823443283,79.84313725490196 L 121.39860546558488,79.84313725490196 L 122.88915450113623,79.84313725490196 L 122.91882786624096,79.84313725490196 L 122.94825036956343,79.84313725490196 L 124.43641621818307,79.84313725490196 L 124.46361680286242,79.84313725490196 L 124.49429361509631,79.84313725490196 L 125.9896627806073,79.84313725490196 L 126.02024999934754,79.84313725490196 L 126.0532383237182,79.84313725490196 L 127.54038280650995,79.84313725490196 L 127.56351584657654,79.84313725490196 L 127.61463789406676,79.84313725490196 L 129.08927512514168,79.84313725490196 L 129.1128023765804,79.84313725490196 L 129.14236822949272,79.84313725490196 L 130.63227219188963,79.84313725490196 L 130.65990282533863,79.84313725490196 L 130.68911030427626,79.84313725490196 L 132.1797489333213,79.84313725490196 L 132.20635820094242,79.84313725490196 L 132.23707085057376,79.84313725490196 L 133.72896378853022,79.84313725490196 L 133.75693487725516,79.84313725490196 L 133.78252277904838,79.84313725490196 L 135.27498911536435,79.84313725490196 L 135.30265558621082,79.84313725490196 L 135.3317197155586,79.84313725490196 L 136.83006338505956,79.84313725490196 L 136.859217107901,79.84313725490196 L 136.8896968144488,79.84313725490196 L 138.3723795412556,79.84313725490196 L 138.40169453238565,40 L 138.43210256413852,40 L 139.9268266564951,40 L 139.94764818442485,40 L 139.97597764712452,40 L 141.46921448748608,40 L 141.4891400804791,40 L 141.52721731529044,40 L 143.01959405811277,40 L 143.04838940697948,40 L 143.07274091856004,40 L 144.56171310862274,40 L 144.5943430590187,40 L 144.6260949931767,40 L 146.11703824010021,40 L 146.1320361909412,40 L 146.17043596232975,40 L 147.66487335550656,40 L 147.6948513384898,40 L 147.72982863842003,40 L 149.21297725139394,40 L 149.23944316942516,40 L 149.27528056689465,40 L 150.75830374897743,40 L 150.78831756935813,40 L 150.82161051160728,40 L 152.30993762851554,40 L 152.33179844097194,40 L 152.36283362718052,40 L 153.8537589554053,40 L 153.8786659466466,40 L 153.910794173478,40 L 155.40483735528267,40 L 155.43422402120763,40 L 155.45986567909705,40 L 156.9518482105472,40 L 156.98467526662927,40 L 157.007593282311,40 L 158.50203067548782,40 L 158.53091561784822,40 L 158.56417272269994,40 L 160.0507079697347,40 L 160.07889408284447,40 L 160.11292169174175,40 L 161.59796968678154,40 L 161.6236292633697,40 L 161.6556499780087,40 L 163.14754291596518,40 L 163.17553192338883,40 L 163.20798268679746,40 L 164.69183012902204,40 L 164.72944147766628,40 L 164.751212696629,40 L 166.24023864278792,40 L 166.26953571521923,40 L 166.29868943806065,40 L 167.78427499406249,40 L 167.81660032658,40 L 167.84362172427197,40 L 168.92383255879759,40 L 169.33906256457794,40 L 169.37119079140933,40 L 169.40503921331927,40 L 170.88705894827288,40 L 170.91515546788898,40 L 170.948054198766,40 L 172.43333513688933,40 L 172.45499884365964,40 L 172.4913379646937,40 L 173.98358927662488,40 L 174.01064651171433,40 L 174.04211174669254,40 L 175.53185444080086,40 L 175.56434104160695,40 L 175.59781317084347,40 L 177.07814854811602,40 L 177.10581501896246,40 L 177.1422437334902,40 L 178.63064252519342,40 L 178.65424145142705,40 L 178.68330558077483,40 L 180.1775100308681,40 L 180.21101799750207,40 L 180.2423936389866,40 L 181.72478966661365,40 L 181.75494683658425,40 L 181.78881317719294,40 L 183.27077915605034,40 L 183.30018374067404,40 L 183.33333333333334,40" fill="none" stroke="none"/>
  </g>
  <!-- 📊 Total Contributions Chart -->
  <g transform="translate(526.6666666666667, 250)">
    <!-- Chart Background -->
    <rect x="0" y="0" width="213.33333333333334" height="200" fill="#0f172a" stroke="#334155" stroke-width="1" rx="8" filter="url(#shadow)">
      <animate attributeName="opacity" values="0;1" dur="0.5s" begin="2.8s" fill="freeze"/>
    </rect>
    
    <!-- Chart Title -->
    <text x="106.66666666666667" y="25" text-anchor="middle" fill="#f8fafc" font-size="14" font-weight="bold" font-family="Arial, sans-serif">
      📊 Total Contributions
      <animate attributeName="opacity" values="0;1" dur="0.5s" begin="3s" fill="freeze"/>
    </text>
    
    <!-- Y-axis labels -->
    <text x="10" y="45" fill="#94a3b8" font-size="10" font-family="Arial, sans-serif">4,917
      <animate attributeName="opacity" values="0;1" dur="0.5s" begin="3.1999999999999997s" fill="freeze"/>
    </text>
    <text x="10" y="185" fill="#94a3b8" font-size="10" font-family="Arial, sans-serif">3,802
      <animate attributeName="opacity" values="0;1" dur="0.5s" begin="3.1999999999999997s" fill="freeze"/>
    </text>
    
    <!-- Chart Line with draw animation that follows the circle -->
    <path d="M 30,160 L 30.023778113221013,160 L 30.053684421409308,160 L 31.54778135931015,160 L 31.5712190172552,160 L 31.601125325443498,160 L 33.09669159664059,160 L 33.12747592106689,160 L 33.163850879498426,160 L 34.6452792973938,160 L 34.66764183341476,160 L 34.69624007659542,160 L 36.19510338835971,160 L 36.21407929031981,160 L 36.24402143590557,160 L 37.73819004860135,160 L 37.760516747224855,160 L 37.78902539691184,160 L 37.828034404057384,160 L 39.29046900129393,160 L 39.320267797289816,160 L 39.34985156890089,160 L 40.834827889145735,160 L 40.86211806731876,160 L 40.890626717005745,160 L 42.38567334593953,160 L 42.401011752056476,160 L 42.437010417814584,160 L 43.932200396338246,160 L 43.957644948541585,160 L 43.97855606996504,160 L 45.481540682438315,160 L 45.50558757614035,160 L 45.53484881117419,160 L 47.03055843196116,160 L 47.0562538459468,160 L 47.08442204035782,160 L 48.5773542628409,160 L 48.59776366069978,160 L 48.629282651774204,160 L 50.12832515052584,160 L 50.15036514996957,160 L 50.18127490528702,160 L 51.67540768058532,160 L 51.70108517587222,160 L 51.732012849888406,160 L 53.222687316330905,160 L 53.24746887668106,160 L 53.26601472987153,160 L 54.76783462692704,160 L 54.80288360165221,160 L 54.82655420268082,160 L 56.319360994272756,160 L 56.34342580667352,160 L 57.89341116592805,160 L 57.91982332786307,160 L 59.4121642332879,160 L 59.435386866848134,160 L 59.46303541899586,160 L 60.96379811282603,160 L 60.99268305518643,160 L 61.02024201384049,160 L 62.51199160220707,160 L 62.54168288601055,160 L 62.57065742186464,160 L 64.06283705900086,160 L 64.09053936724479,160 L 64.114371236562,160 L 65.6066404671919,160 L 65.63496992989154,94.78026905829597 L 65.66405197793803,94.78026905829597 L 67.18318133797132,94.78026905829597 L 67.20909177634177,94.78026905829597 L 68.6984940151741,94.78026905829597 L 68.7263396730079,94.78026905829597 L 68.74499303839077,94.78026905829597 L 70.25052210608439,94.78026905829597 L 70.27824233302704,94.78026905829597 L 70.30655387702795,94.78026905829597 L 71.79575901017421,94.78026905829597 L 71.82459019643841,94.78026905829597 L 71.86003338253575,94.78026905829597 L 73.35029571890735,94.78026905829597 L 73.38054248237161,94.78026905829597 L 73.40206283955203,94.78026905829597 L 74.89743200506305,94.78026905829597 L 74.9216401670537,94.78026905829597 L 74.95127769476096,94.78026905829597 L 76.4481520309657,94.78026905829597 L 76.50301908649149,94.78026905829597 L 77.99204503265041,94.78026905829597 L 78.02171839775514,94.78026905829597 L 78.04906233202438,94.78026905829597 L 79.54190496101378,94.78026905829597 L 79.56998356193114,94.78026905829597 L 79.59929855306117,94.78026905829597 L 81.09070768615182,94.78026905829597 L 81.11934176672995,94.78026905829597 L 81.15155958705503,94.78026905829597 L 82.63816650888474,94.78026905829597 L 82.66830576015658,94.78026905829597 L 82.69926927157023,94.78026905829597 L 84.18901196567853,94.78026905829597 L 84.21857781859086,94.78026905829597 L 84.24676393170063,94.78026905829597 L 85.73931986151028,94.78026905829597 L 85.76058935690841,94.78026905829597 L 85.79002977892961,94.78026905829597 L 87.28204814777723,94.78026905829597 L 87.30941000074519,94.78026905829597 L 87.3411260975057,94.78026905829597 L 88.8309225477102,94.78026905829597 L 88.85812313238955,94.78026905829597 L 88.8880652779753,94.78026905829597 L 90.37924146798238,94.78026905829597 L 90.40500855676297,94.78026905829597 L 90.43677840961966,94.78026905829597 L 91.92863551017867,94.78026905829597 L 91.95440259895923,94.78026905829597 L 91.97828822437265,94.78026905829597 L 93.48211501568646,94.78026905829597 L 93.50406542163653,94.78026905829597 L 93.53601446148059,94.78026905829597 L 95.02557796860154,94.78026905829597 L 95.05084333381754,94.78026905829597 L 95.07926239001084,94.78026905829597 L 96.57301887263573,94.78026905829597 L 96.59527389646428,94.78026905829597 L 96.62892521268815,94.78026905829597 L 98.11959967913064,94.78026905829597 L 98.1457251418859,94.78026905829597 L 98.17778169392237,94.78026905829597 L 99.66605505473441,94.78026905829597 L 99.69042448501368,94.78026905829597 L 99.72509716706543,94.78026905829597 L 101.21012724340648,94.78026905829597 L 101.24161039708343,94.78026905829597 L 101.27393572960092,94.78026905829597 L 102.76375009850415,94.78026905829597 L 102.788890032829,94.78026905829597 L 102.8183842109464,94.78026905829597 L 104.3140042382397,94.78026905829597 L 104.34115106682285,94.78026905829597 L 104.37413939119351,94.78026905829597 L 105.85956367890674,94.78026905829597 L 105.89127977566724,94.78026905829597 L 105.92632875039241,94.78026905829597 L 107.4108033470727,94.78026905829597 L 107.43492191556966,94.78026905829597 L 107.46647674404157,94.78026905829597 L 108.96003612098036,94.78026905829597 L 108.98245241309753,94.78026905829597 L 109.01407891636435,94.78026905829597 L 110.50480713890308,94.78026905829597 L 110.52953494315703,94.78026905829597 L 110.56049845457066,94.78026905829597 L 112.05355610794489,94.78026905829597 L 112.08163470886225,94.78026905829597 L 113.60420445905261,94.78026905829597 L 113.63000738523064,94.78026905829597 L 113.65446640900358,94.78026905829597 L 115.15307885898558,94.78026905829597 L 115.18280598018652,94.78026905829597 L 115.21660064600026,94.78026905829597 L 116.6914170640625,94.78026905829597 L 116.72766659160291,94.78026905829597 L 116.75857634692035,94.78026905829597 L 118.24593585409691,94.78026905829597 L 118.26534180482666,94.78026905829597 L 118.30212889332908,94.78026905829597 L 119.79461314834381,94.78026905829597 L 119.82213626960039,94.78026905829597 L 119.85265181354566,94.78026905829597 L 121.34508231246417,94.78026905829597 L 121.3710823443283,94.78026905829597 L 121.39860546558488,94.78026905829597 L 122.88915450113623,94.78026905829597 L 122.91882786624096,94.78026905829597 L 122.94825036956343,94.78026905829597 L 124.43641621818307,94.78026905829597 L 124.46361680286242,94.78026905829597 L 124.49429361509631,94.78026905829597 L 125.9896627806073,94.78026905829597 L 126.02024999934754,94.78026905829597 L 126.0532383237182,94.78026905829597 L 127.54038280650995,94.78026905829597 L 127.56351584657654,94.78026905829597 L 127.61463789406676,94.78026905829597 L 129.08927512514168,94.78026905829597 L 129.1128023765804,94.78026905829597 L 129.14236822949272,94.78026905829597 L 130.63227219188963,94.78026905829597 L 130.65990282533863,94.78026905829597 L 130.68911030427626,94.78026905829597 L 132.1797489333213,94.78026905829597 L 132.20635820094242,94.78026905829597 L 132.23707085057376,94.78026905829597 L 133.72896378853022,94.78026905829597 L 133.75693487725516,94.78026905829597 L 133.78252277904838,94.78026905829597 L 135.27498911536435,94.78026905829597 L 135.30265558621082,94.78026905829597 L 135.3317197155586,94.78026905829597 L 136.83006338505956,94.78026905829597 L 136.859217107901,94.78026905829597 L 136.8896968144488,94.78026905829597 L 138.3723795412556,94.78026905829597 L 138.40169453238565,40 L 138.43210256413852,40 L 139.9268266564951,40 L 139.94764818442485,40 L 139.97597764712452,40 L 141.46921448748608,40 L 141.4891400804791,40 L 141.52721731529044,40 L 143.01959405811277,40 L 143.04838940697948,40 L 143.07274091856004,40 L 144.56171310862274,40 L 144.5943430590187,40 L 144.6260949931767,40 L 146.11703824010021,40 L 146.1320361909412,40 L 146.17043596232975,40 L 147.66487335550656,40 L 147.6948513384898,40 L 147.72982863842003,40 L 149.21297725139394,40 L 149.23944316942516,40 L 149.27528056689465,40 L 150.75830374897743,40 L 150.78831756935813,40 L 150.82161051160728,40 L 152.30993762851554,40 L 152.33179844097194,40 L 152.36283362718052,40 L 153.8537589554053,40 L 153.8786659466466,40 L 153.910794173478,40 L 155.40483735528267,40 L 155.43422402120763,40 L 155.45986567909705,40 L 156.9518482105472,40 L 156.98467526662927,40 L 157.007593282311,40 L 158.50203067548782,40 L 158.53091561784822,40 L 158.56417272269994,40 L 160.0507079697347,40 L 160.07889408284447,40 L 160.11292169174175,40 L 161.59796968678154,40 L 161.6236292633697,40 L 161.6556499780087,40 L 163.14754291596518,40 L 163.17553192338883,40 L 163.20798268679746,40 L 164.69183012902204,40 L 164.72944147766628,40 L 164.751212696629,40 L 166.24023864278792,40 L 166.26953571521923,40 L 166.29868943806065,40 L 167.78427499406249,40 L 167.81660032658,40 L 167.84362172427197,40 L 168.92383255879759,40 L 169.33906256457794,40 L 169.37119079140933,40 L 169.40503921331927,40 L 170.88705894827288,40 L 170.91515546788898,40 L 170.948054198766,40 L 172.43333513688933,40 L 172.45499884365964,40 L 172.4913379646937,40 L 173.98358927662488,40 L 174.01064651171433,40 L 174.04211174669254,40 L 175.53185444080086,40 L 175.56434104160695,40 L 175.59781317084347,40 L 177.07814854811602,40 L 177.10581501896246,40 L 177.1422437334902,40 L 178.63064252519342,40 L 178.65424145142705,40 L 178.68330558077483,40 L 180.1775100308681,40 L 180.21101799750207,40 L 180.2423936389866,40 L 181.72478966661365,40 L 181.75494683658425,40 L 181.78881317719294,40 L 183.27077915605034,40 L 183.30018374067404,40 L 183.33333333333334,40" stroke="#f59e0b" stroke-width="2" fill="none" stroke-dasharray="14850" stroke-dashoffset="14850">
      <animate attributeName="stroke-dashoffset" values="14850;0" dur="3s" begin="3.5999999999999996s" fill="freeze"/>
    </path>
    
    <!-- Glow effect for the line that also follows the circle -->
    <path d="M 30,160 L 30.023778113221013,160 L 30.053684421409308,160 L 31.54778135931015,160 L 31.5712190172552,160 L 31.601125325443498,160 L 33.09669159664059,160 L 33.12747592106689,160 L 33.163850879498426,160 L 34.6452792973938,160 L 34.66764183341476,160 L 34.69624007659542,160 L 36.19510338835971,160 L 36.21407929031981,160 L 36.24402143590557,160 L 37.73819004860135,160 L 37.760516747224855,160 L 37.78902539691184,160 L 37.828034404057384,160 L 39.29046900129393,160 L 39.320267797289816,160 L 39.34985156890089,160 L 40.834827889145735,160 L 40.86211806731876,160 L 40.890626717005745,160 L 42.38567334593953,160 L 42.401011752056476,160 L 42.437010417814584,160 L 43.932200396338246,160 L 43.957644948541585,160 L 43.97855606996504,160 L 45.481540682438315,160 L 45.50558757614035,160 L 45.53484881117419,160 L 47.03055843196116,160 L 47.0562538459468,160 L 47.08442204035782,160 L 48.5773542628409,160 L 48.59776366069978,160 L 48.629282651774204,160 L 50.12832515052584,160 L 50.15036514996957,160 L 50.18127490528702,160 L 51.67540768058532,160 L 51.70108517587222,160 L 51.732012849888406,160 L 53.222687316330905,160 L 53.24746887668106,160 L 53.26601472987153,160 L 54.76783462692704,160 L 54.80288360165221,160 L 54.82655420268082,160 L 56.319360994272756,160 L 56.34342580667352,160 L 57.89341116592805,160 L 57.91982332786307,160 L 59.4121642332879,160 L 59.435386866848134,160 L 59.46303541899586,160 L 60.96379811282603,160 L 60.99268305518643,160 L 61.02024201384049,160 L 62.51199160220707,160 L 62.54168288601055,160 L 62.57065742186464,160 L 64.06283705900086,160 L 64.09053936724479,160 L 64.114371236562,160 L 65.6066404671919,160 L 65.63496992989154,94.78026905829597 L 65.66405197793803,94.78026905829597 L 67.18318133797132,94.78026905829597 L 67.20909177634177,94.78026905829597 L 68.6984940151741,94.78026905829597 L 68.7263396730079,94.78026905829597 L 68.74499303839077,94.78026905829597 L 70.25052210608439,94.78026905829597 L 70.27824233302704,94.78026905829597 L 70.30655387702795,94.78026905829597 L 71.79575901017421,94.78026905829597 L 71.82459019643841,94.78026905829597 L 71.86003338253575,94.78026905829597 L 73.35029571890735,94.78026905829597 L 73.38054248237161,94.78026905829597 L 73.40206283955203,94.78026905829597 L 74.89743200506305,94.78026905829597 L 74.9216401670537,94.78026905829597 L 74.95127769476096,94.78026905829597 L 76.4481520309657,94.78026905829597 L 76.50301908649149,94.78026905829597 L 77.99204503265041,94.78026905829597 L 78.02171839775514,94.78026905829597 L 78.04906233202438,94.78026905829597 L 79.54190496101378,94.78026905829597 L 79.56998356193114,94.78026905829597 L 79.59929855306117,94.78026905829597 L 81.09070768615182,94.78026905829597 L 81.11934176672995,94.78026905829597 L 81.15155958705503,94.78026905829597 L 82.63816650888474,94.78026905829597 L 82.66830576015658,94.78026905829597 L 82.69926927157023,94.78026905829597 L 84.18901196567853,94.78026905829597 L 84.21857781859086,94.78026905829597 L 84.24676393170063,94.78026905829597 L 85.73931986151028,94.78026905829597 L 85.76058935690841,94.78026905829597 L 85.79002977892961,94.78026905829597 L 87.28204814777723,94.78026905829597 L 87.30941000074519,94.78026905829597 L 87.3411260975057,94.78026905829597 L 88.8309225477102,94.78026905829597 L 88.85812313238955,94.78026905829597 L 88.8880652779753,94.78026905829597 L 90.37924146798238,94.78026905829597 L 90.40500855676297,94.78026905829597 L 90.43677840961966,94.78026905829597 L 91.92863551017867,94.78026905829597 L 91.95440259895923,94.78026905829597 L 91.97828822437265,94.78026905829597 L 93.48211501568646,94.78026905829597 L 93.50406542163653,94.78026905829597 L 93.53601446148059,94.78026905829597 L 95.02557796860154,94.78026905829597 L 95.05084333381754,94.78026905829597 L 95.07926239001084,94.78026905829597 L 96.57301887263573,94.78026905829597 L 96.59527389646428,94.78026905829597 L 96.62892521268815,94.78026905829597 L 98.11959967913064,94.78026905829597 L 98.1457251418859,94.78026905829597 L 98.17778169392237,94.78026905829597 L 99.66605505473441,94.78026905829597 L 99.69042448501368,94.78026905829597 L 99.72509716706543,94.78026905829597 L 101.21012724340648,94.78026905829597 L 101.24161039708343,94.78026905829597 L 101.27393572960092,94.78026905829597 L 102.76375009850415,94.78026905829597 L 102.788890032829,94.78026905829597 L 102.8183842109464,94.78026905829597 L 104.3140042382397,94.78026905829597 L 104.34115106682285,94.78026905829597 L 104.37413939119351,94.78026905829597 L 105.85956367890674,94.78026905829597 L 105.89127977566724,94.78026905829597 L 105.92632875039241,94.78026905829597 L 107.4108033470727,94.78026905829597 L 107.43492191556966,94.78026905829597 L 107.46647674404157,94.78026905829597 L 108.96003612098036,94.78026905829597 L 108.98245241309753,94.78026905829597 L 109.01407891636435,94.78026905829597 L 110.50480713890308,94.78026905829597 L 110.52953494315703,94.78026905829597 L 110.56049845457066,94.78026905829597 L 112.05355610794489,94.78026905829597 L 112.08163470886225,94.78026905829597 L 113.60420445905261,94.78026905829597 L 113.63000738523064,94.78026905829597 L 113.65446640900358,94.78026905829597 L 115.15307885898558,94.78026905829597 L 115.18280598018652,94.78026905829597 L 115.21660064600026,94.78026905829597 L 116.6914170640625,94.78026905829597 L 116.72766659160291,94.78026905829597 L 116.75857634692035,94.78026905829597 L 118.24593585409691,94.78026905829597 L 118.26534180482666,94.78026905829597 L 118.30212889332908,94.78026905829597 L 119.79461314834381,94.78026905829597 L 119.82213626960039,94.78026905829597 L 119.85265181354566,94.78026905829597 L 121.34508231246417,94.78026905829597 L 121.3710823443283,94.78026905829597 L 121.39860546558488,94.78026905829597 L 122.88915450113623,94.78026905829597 L 122.91882786624096,94.78026905829597 L 122.94825036956343,94.78026905829597 L 124.43641621818307,94.78026905829597 L 124.46361680286242,94.78026905829597 L 124.49429361509631,94.78026905829597 L 125.9896627806073,94.78026905829597 L 126.02024999934754,94.78026905829597 L 126.0532383237182,94.78026905829597 L 127.54038280650995,94.78026905829597 L 127.56351584657654,94.78026905829597 L 127.61463789406676,94.78026905829597 L 129.08927512514168,94.78026905829597 L 129.1128023765804,94.78026905829597 L 129.14236822949272,94.78026905829597 L 130.63227219188963,94.78026905829597 L 130.65990282533863,94.78026905829597 L 130.68911030427626,94.78026905829597 L 132.1797489333213,94.78026905829597 L 132.20635820094242,94.78026905829597 L 132.23707085057376,94.78026905829597 L 133.72896378853022,94.78026905829597 L 133.75693487725516,94.78026905829597 L 133.78252277904838,94.78026905829597 L 135.27498911536435,94.78026905829597 L 135.30265558621082,94.78026905829597 L 135.3317197155586,94.78026905829597 L 136.83006338505956,94.78026905829597 L 136.859217107901,94.78026905829597 L 136.8896968144488,94.78026905829597 L 138.3723795412556,94.78026905829597 L 138.40169453238565,40 L 138.43210256413852,40 L 139.9268266564951,40 L 139.94764818442485,40 L 139.97597764712452,40 L 141.46921448748608,40 L 141.4891400804791,40 L 141.52721731529044,40 L 143.01959405811277,40 L 143.04838940697948,40 L 143.07274091856004,40 L 144.56171310862274,40 L 144.5943430590187,40 L 144.6260949931767,40 L 146.11703824010021,40 L 146.1320361909412,40 L 146.17043596232975,40 L 147.66487335550656,40 L 147.6948513384898,40 L 147.72982863842003,40 L 149.21297725139394,40 L 149.23944316942516,40 L 149.27528056689465,40 L 150.75830374897743,40 L 150.78831756935813,40 L 150.82161051160728,40 L 152.30993762851554,40 L 152.33179844097194,40 L 152.36283362718052,40 L 153.8537589554053,40 L 153.8786659466466,40 L 153.910794173478,40 L 155.40483735528267,40 L 155.43422402120763,40 L 155.45986567909705,40 L 156.9518482105472,40 L 156.98467526662927,40 L 157.007593282311,40 L 158.50203067548782,40 L 158.53091561784822,40 L 158.56417272269994,40 L 160.0507079697347,40 L 160.07889408284447,40 L 160.11292169174175,40 L 161.59796968678154,40 L 161.6236292633697,40 L 161.6556499780087,40 L 163.14754291596518,40 L 163.17553192338883,40 L 163.20798268679746,40 L 164.69183012902204,40 L 164.72944147766628,40 L 164.751212696629,40 L 166.24023864278792,40 L 166.26953571521923,40 L 166.29868943806065,40 L 167.78427499406249,40 L 167.81660032658,40 L 167.84362172427197,40 L 168.92383255879759,40 L 169.33906256457794,40 L 169.37119079140933,40 L 169.40503921331927,40 L 170.88705894827288,40 L 170.91515546788898,40 L 170.948054198766,40 L 172.43333513688933,40 L 172.45499884365964,40 L 172.4913379646937,40 L 173.98358927662488,40 L 174.01064651171433,40 L 174.04211174669254,40 L 175.53185444080086,40 L 175.56434104160695,40 L 175.59781317084347,40 L 177.07814854811602,40 L 177.10581501896246,40 L 177.1422437334902,40 L 178.63064252519342,40 L 178.65424145142705,40 L 178.68330558077483,40 L 180.1775100308681,40 L 180.21101799750207,40 L 180.2423936389866,40 L 181.72478966661365,40 L 181.75494683658425,40 L 181.78881317719294,40 L 183.27077915605034,40 L 183.30018374067404,40 L 183.33333333333334,40" stroke="#f59e0b" stroke-width="4" fill="none" opacity="0.4" stroke-dasharray="14850" stroke-dashoffset="14850">
      <animate attributeName="stroke-dashoffset" values="14850;0" dur="3s" begin="3.5999999999999996s" fill="freeze"/>
    </path>
    
    <!-- Animated circle that moves along the path and draws the line -->
    <circle r="5" fill="#f59e0b" opacity="0" filter="url(#trailGlow)">
      <animate attributeName="opacity" values="0;1;1;1" dur="3.2s" begin="3.4s" fill="freeze"/>
      <animate attributeName="r" values="5;6;5" dur="1s" begin="3.4s" repeatCount="3"/>
      <animateMotion dur="3s" begin="3.4s" fill="freeze">
        <mpath href="#path_totalContributions_526.6666666666667"/>
      </animateMotion>
    </circle>
    
    <!-- Small trail dots that fade out -->
    <circle r="2" fill="#f59e0b" opacity="0">
      <animate attributeName="opacity" values="0;0.6;0" dur="0.8s" begin="3.8s" fill="freeze"/>
      <animateMotion dur="3s" begin="3.4s" fill="freeze">
        <mpath href="#path_totalContributions_526.6666666666667"/>
      </animateMotion>
    </circle>
    
    <!-- Hidden path for motion animation -->
    <path id="path_totalContributions_526.6666666666667" d="M 30,160 L 30.023778113221013,160 L 30.053684421409308,160 L 31.54778135931015,160 L 31.5712190172552,160 L 31.601125325443498,160 L 33.09669159664059,160 L 33.12747592106689,160 L 33.163850879498426,160 L 34.6452792973938,160 L 34.66764183341476,160 L 34.69624007659542,160 L 36.19510338835971,160 L 36.21407929031981,160 L 36.24402143590557,160 L 37.73819004860135,160 L 37.760516747224855,160 L 37.78902539691184,160 L 37.828034404057384,160 L 39.29046900129393,160 L 39.320267797289816,160 L 39.34985156890089,160 L 40.834827889145735,160 L 40.86211806731876,160 L 40.890626717005745,160 L 42.38567334593953,160 L 42.401011752056476,160 L 42.437010417814584,160 L 43.932200396338246,160 L 43.957644948541585,160 L 43.97855606996504,160 L 45.481540682438315,160 L 45.50558757614035,160 L 45.53484881117419,160 L 47.03055843196116,160 L 47.0562538459468,160 L 47.08442204035782,160 L 48.5773542628409,160 L 48.59776366069978,160 L 48.629282651774204,160 L 50.12832515052584,160 L 50.15036514996957,160 L 50.18127490528702,160 L 51.67540768058532,160 L 51.70108517587222,160 L 51.732012849888406,160 L 53.222687316330905,160 L 53.24746887668106,160 L 53.26601472987153,160 L 54.76783462692704,160 L 54.80288360165221,160 L 54.82655420268082,160 L 56.319360994272756,160 L 56.34342580667352,160 L 57.89341116592805,160 L 57.91982332786307,160 L 59.4121642332879,160 L 59.435386866848134,160 L 59.46303541899586,160 L 60.96379811282603,160 L 60.99268305518643,160 L 61.02024201384049,160 L 62.51199160220707,160 L 62.54168288601055,160 L 62.57065742186464,160 L 64.06283705900086,160 L 64.09053936724479,160 L 64.114371236562,160 L 65.6066404671919,160 L 65.63496992989154,94.78026905829597 L 65.66405197793803,94.78026905829597 L 67.18318133797132,94.78026905829597 L 67.20909177634177,94.78026905829597 L 68.6984940151741,94.78026905829597 L 68.7263396730079,94.78026905829597 L 68.74499303839077,94.78026905829597 L 70.25052210608439,94.78026905829597 L 70.27824233302704,94.78026905829597 L 70.30655387702795,94.78026905829597 L 71.79575901017421,94.78026905829597 L 71.82459019643841,94.78026905829597 L 71.86003338253575,94.78026905829597 L 73.35029571890735,94.78026905829597 L 73.38054248237161,94.78026905829597 L 73.40206283955203,94.78026905829597 L 74.89743200506305,94.78026905829597 L 74.9216401670537,94.78026905829597 L 74.95127769476096,94.78026905829597 L 76.4481520309657,94.78026905829597 L 76.50301908649149,94.78026905829597 L 77.99204503265041,94.78026905829597 L 78.02171839775514,94.78026905829597 L 78.04906233202438,94.78026905829597 L 79.54190496101378,94.78026905829597 L 79.56998356193114,94.78026905829597 L 79.59929855306117,94.78026905829597 L 81.09070768615182,94.78026905829597 L 81.11934176672995,94.78026905829597 L 81.15155958705503,94.78026905829597 L 82.63816650888474,94.78026905829597 L 82.66830576015658,94.78026905829597 L 82.69926927157023,94.78026905829597 L 84.18901196567853,94.78026905829597 L 84.21857781859086,94.78026905829597 L 84.24676393170063,94.78026905829597 L 85.73931986151028,94.78026905829597 L 85.76058935690841,94.78026905829597 L 85.79002977892961,94.78026905829597 L 87.28204814777723,94.78026905829597 L 87.30941000074519,94.78026905829597 L 87.3411260975057,94.78026905829597 L 88.8309225477102,94.78026905829597 L 88.85812313238955,94.78026905829597 L 88.8880652779753,94.78026905829597 L 90.37924146798238,94.78026905829597 L 90.40500855676297,94.78026905829597 L 90.43677840961966,94.78026905829597 L 91.92863551017867,94.78026905829597 L 91.95440259895923,94.78026905829597 L 91.97828822437265,94.78026905829597 L 93.48211501568646,94.78026905829597 L 93.50406542163653,94.78026905829597 L 93.53601446148059,94.78026905829597 L 95.02557796860154,94.78026905829597 L 95.05084333381754,94.78026905829597 L 95.07926239001084,94.78026905829597 L 96.57301887263573,94.78026905829597 L 96.59527389646428,94.78026905829597 L 96.62892521268815,94.78026905829597 L 98.11959967913064,94.78026905829597 L 98.1457251418859,94.78026905829597 L 98.17778169392237,94.78026905829597 L 99.66605505473441,94.78026905829597 L 99.69042448501368,94.78026905829597 L 99.72509716706543,94.78026905829597 L 101.21012724340648,94.78026905829597 L 101.24161039708343,94.78026905829597 L 101.27393572960092,94.78026905829597 L 102.76375009850415,94.78026905829597 L 102.788890032829,94.78026905829597 L 102.8183842109464,94.78026905829597 L 104.3140042382397,94.78026905829597 L 104.34115106682285,94.78026905829597 L 104.37413939119351,94.78026905829597 L 105.85956367890674,94.78026905829597 L 105.89127977566724,94.78026905829597 L 105.92632875039241,94.78026905829597 L 107.4108033470727,94.78026905829597 L 107.43492191556966,94.78026905829597 L 107.46647674404157,94.78026905829597 L 108.96003612098036,94.78026905829597 L 108.98245241309753,94.78026905829597 L 109.01407891636435,94.78026905829597 L 110.50480713890308,94.78026905829597 L 110.52953494315703,94.78026905829597 L 110.56049845457066,94.78026905829597 L 112.05355610794489,94.78026905829597 L 112.08163470886225,94.78026905829597 L 113.60420445905261,94.78026905829597 L 113.63000738523064,94.78026905829597 L 113.65446640900358,94.78026905829597 L 115.15307885898558,94.78026905829597 L 115.18280598018652,94.78026905829597 L 115.21660064600026,94.78026905829597 L 116.6914170640625,94.78026905829597 L 116.72766659160291,94.78026905829597 L 116.75857634692035,94.78026905829597 L 118.24593585409691,94.78026905829597 L 118.26534180482666,94.78026905829597 L 118.30212889332908,94.78026905829597 L 119.79461314834381,94.78026905829597 L 119.82213626960039,94.78026905829597 L 119.85265181354566,94.78026905829597 L 121.34508231246417,94.78026905829597 L 121.3710823443283,94.78026905829597 L 121.39860546558488,94.78026905829597 L 122.88915450113623,94.78026905829597 L 122.91882786624096,94.78026905829597 L 122.94825036956343,94.78026905829597 L 124.43641621818307,94.78026905829597 L 124.46361680286242,94.78026905829597 L 124.49429361509631,94.78026905829597 L 125.9896627806073,94.78026905829597 L 126.02024999934754,94.78026905829597 L 126.0532383237182,94.78026905829597 L 127.54038280650995,94.78026905829597 L 127.56351584657654,94.78026905829597 L 127.61463789406676,94.78026905829597 L 129.08927512514168,94.78026905829597 L 129.1128023765804,94.78026905829597 L 129.14236822949272,94.78026905829597 L 130.63227219188963,94.78026905829597 L 130.65990282533863,94.78026905829597 L 130.68911030427626,94.78026905829597 L 132.1797489333213,94.78026905829597 L 132.20635820094242,94.78026905829597 L 132.23707085057376,94.78026905829597 L 133.72896378853022,94.78026905829597 L 133.75693487725516,94.78026905829597 L 133.78252277904838,94.78026905829597 L 135.27498911536435,94.78026905829597 L 135.30265558621082,94.78026905829597 L 135.3317197155586,94.78026905829597 L 136.83006338505956,94.78026905829597 L 136.859217107901,94.78026905829597 L 136.8896968144488,94.78026905829597 L 138.3723795412556,94.78026905829597 L 138.40169453238565,40 L 138.43210256413852,40 L 139.9268266564951,40 L 139.94764818442485,40 L 139.97597764712452,40 L 141.46921448748608,40 L 141.4891400804791,40 L 141.52721731529044,40 L 143.01959405811277,40 L 143.04838940697948,40 L 143.07274091856004,40 L 144.56171310862274,40 L 144.5943430590187,40 L 144.6260949931767,40 L 146.11703824010021,40 L 146.1320361909412,40 L 146.17043596232975,40 L 147.66487335550656,40 L 147.6948513384898,40 L 147.72982863842003,40 L 149.21297725139394,40 L 149.23944316942516,40 L 149.27528056689465,40 L 150.75830374897743,40 L 150.78831756935813,40 L 150.82161051160728,40 L 152.30993762851554,40 L 152.33179844097194,40 L 152.36283362718052,40 L 153.8537589554053,40 L 153.8786659466466,40 L 153.910794173478,40 L 155.40483735528267,40 L 155.43422402120763,40 L 155.45986567909705,40 L 156.9518482105472,40 L 156.98467526662927,40 L 157.007593282311,40 L 158.50203067548782,40 L 158.53091561784822,40 L 158.56417272269994,40 L 160.0507079697347,40 L 160.07889408284447,40 L 160.11292169174175,40 L 161.59796968678154,40 L 161.6236292633697,40 L 161.6556499780087,40 L 163.14754291596518,40 L 163.17553192338883,40 L 163.20798268679746,40 L 164.69183012902204,40 L 164.72944147766628,40 L 164.751212696629,40 L 166.24023864278792,40 L 166.26953571521923,40 L 166.29868943806065,40 L 167.78427499406249,40 L 167.81660032658,40 L 167.84362172427197,40 L 168.92383255879759,40 L 169.33906256457794,40 L 169.37119079140933,40 L 169.40503921331927,40 L 170.88705894827288,40 L 170.91515546788898,40 L 170.948054198766,40 L 172.43333513688933,40 L 172.45499884365964,40 L 172.4913379646937,40 L 173.98358927662488,40 L 174.01064651171433,40 L 174.04211174669254,40 L 175.53185444080086,40 L 175.56434104160695,40 L 175.59781317084347,40 L 177.07814854811602,40 L 177.10581501896246,40 L 177.1422437334902,40 L 178.63064252519342,40 L 178.65424145142705,40 L 178.68330558077483,40 L 180.1775100308681,40 L 180.21101799750207,40 L 180.2423936389866,40 L 181.72478966661365,40 L 181.75494683658425,40 L 181.78881317719294,40 L 183.27077915605034,40 L 183.30018374067404,40 L 183.33333333333334,40" fill="none" stroke="none"/>
  </g>
  
  <!-- Footer -->
  <text x="400" y="580" text-anchor="middle" fill="#64748b" font-size="12" font-family="Arial, sans-serif">
    Generated by GitHub User Rank Tracker • 1/6/2026
    <animate attributeName="opacity" values="0;1" dur="0.5s" begin="5s" fill="freeze"/>
  </text>
</svg>