<svg width="800" height="600" xmlns="http://www.w3.org/2000/svg">
  <defs>
    <linearGradient id="bgGradient" x1="0%" y1="0%" x2="100%" y2="100%">
      <stop offset="0%" style="stop-color:#f8fafc;stop-opacity:1" />
      <stop offset="100%" style="stop-color:#e2e8f0;stop-opacity:1" />
    </linearGradient>
    <filter id="shadow" x="-20%" y="-20%" width="140%" height="140%">
      <feDropShadow dx="2" dy="2" stdDeviation="3" flood-color="#00000020" flood-opacity="0.1"/>
    </filter>
    <!-- Trail effect filter -->
    <filter id="trailGlow" x="-50%" y="-50%" width="200%" height="200%">
      <feGaussianBlur stdDeviation="3" result="coloredBlur"/>
      <feMerge> 
        <feMergeNode in="coloredBlur"/>
        <feMergeNode in="SourceGraphic"/>
      </feMerge>
    </filter>
  </defs>
  
  <!-- Background -->
  <rect width="800" height="600" fill="url(#bgGradient)" rx="12"/>
  
  <!-- Header -->
  <text x="400" y="40" text-anchor="middle" fill="#0f172a" font-size="24" font-weight="bold" font-family="Arial, sans-serif">
    GitHub Progress Report
    <animate attributeName="opacity" values="0;1" dur="0.8s" begin="0s" fill="freeze"/>
    <animateTransform attributeName="transform" type="translate" values="0,-20;0,0" dur="0.8s" begin="0s" fill="freeze"/>
  </text>
  
  <!-- User Info -->
  <text x="400" y="70" text-anchor="middle" fill="#475569" font-size="16" font-family="Arial, sans-serif">
    @maifeeulasad • BANGLADESH • 100 days analyzed
    <animate attributeName="opacity" values="0;1" dur="0.6s" begin="0.3s" fill="freeze"/>
  </text>
  
  <!-- Progress Cards -->
  <!-- Followers Card -->
  <g transform="translate(60, 100)">
    <rect width="206.66666666666666" height="120" fill="#ffffff" stroke="#e2e8f0" stroke-width="1" rx="8" filter="url(#shadow)">
      <animate attributeName="opacity" values="0;1" dur="0.6s" begin="0.2s" fill="freeze"/>
      <animateTransform attributeName="transform" type="scale" values="0.8;1" dur="0.6s" begin="0.2s" fill="freeze"/>
    </rect>
    <text x="103.33333333333333" y="25" text-anchor="middle" fill="#64748b" font-size="14" font-weight="bold" font-family="Arial, sans-serif">FOLLOWERS
      <animate attributeName="opacity" values="0;1" dur="0.5s" begin="0.4s" fill="freeze"/>
    </text>
    
    <text x="103.33333333333333" y="50" text-anchor="middle" fill="#22c55e" font-size="32" font-weight="bold" font-family="Arial, sans-serif">
      ↗
      <animate attributeName="opacity" values="0;1" dur="0.5s" begin="0.6s" fill="freeze"/>
      <animateTransform attributeName="transform" type="scale" values="0;1.2;1" dur="0.8s" begin="0.6s" fill="freeze"/>
    </text>
    
    <text x="103.33333333333333" y="75" text-anchor="middle" fill="#1e293b" font-size="18" font-weight="bold" font-family="Arial, sans-serif">
      +6
      <animate attributeName="opacity" values="0;1" dur="0.5s" begin="0.8s" fill="freeze"/>
    </text>
    
    <text x="103.33333333333333" y="95" text-anchor="middle" fill="#64748b" font-size="12" font-family="Arial, sans-serif">
      #464 → #458
      <animate attributeName="opacity" values="0;1" dur="0.5s" begin="1s" fill="freeze"/>
    </text>
  </g>
  
  <!-- Public Contributions Card -->
  <g transform="translate(296.66666666666663, 100)">
    <rect width="206.66666666666666" height="120" fill="#ffffff" stroke="#e2e8f0" stroke-width="1" rx="8" filter="url(#shadow)">
      <animate attributeName="opacity" values="0;1" dur="0.6s" begin="0.4s" fill="freeze"/>
      <animateTransform attributeName="transform" type="scale" values="0.8;1" dur="0.6s" begin="0.4s" fill="freeze"/>
    </rect>
    <text x="103.33333333333333" y="25" text-anchor="middle" fill="#64748b" font-size="14" font-weight="bold" font-family="Arial, sans-serif">PUBLIC
      <animate attributeName="opacity" values="0;1" dur="0.5s" begin="0.6s" fill="freeze"/>
    </text>
    
    <text x="103.33333333333333" y="50" text-anchor="middle" fill="#22c55e" font-size="32" font-weight="bold" font-family="Arial, sans-serif">
      ↗
      <animate attributeName="opacity" values="0;1" dur="0.5s" begin="0.8s" fill="freeze"/>
      <animateTransform attributeName="transform" type="scale" values="0;1.2;1" dur="0.8s" begin="0.8s" fill="freeze"/>
    </text>
    
    <text x="103.33333333333333" y="75" text-anchor="middle" fill="#1e293b" font-size="18" font-weight="bold" font-family="Arial, sans-serif">
      +12
      <animate attributeName="opacity" values="0;1" dur="0.5s" begin="1s" fill="freeze"/>
    </text>
    
    <text x="103.33333333333333" y="95" text-anchor="middle" fill="#64748b" font-size="12" font-family="Arial, sans-serif">
      #18 → #6
      <animate attributeName="opacity" values="0;1" dur="0.5s" begin="1.2s" fill="freeze"/>
    </text>
  </g>
  
  <!-- Total Contributions Card -->
  <g transform="translate(533.3333333333333, 100)">
    <rect width="206.66666666666666" height="120" fill="#ffffff" stroke="#e2e8f0" stroke-width="1" rx="8" filter="url(#shadow)">
      <animate attributeName="opacity" values="0;1" dur="0.6s" begin="0.6s" fill="freeze"/>
      <animateTransform attributeName="transform" type="scale" values="0.8;1" dur="0.6s" begin="0.6s" fill="freeze"/>
    </rect>
    <text x="103.33333333333333" y="25" text-anchor="middle" fill="#64748b" font-size="14" font-weight="bold" font-family="Arial, sans-serif">TOTAL
      <animate attributeName="opacity" values="0;1" dur="0.5s" begin="0.8s" fill="freeze"/>
    </text>
    
    <text x="103.33333333333333" y="50" text-anchor="middle" fill="#22c55e" font-size="32" font-weight="bold" font-family="Arial, sans-serif">
      ↗
      <animate attributeName="opacity" values="0;1" dur="0.5s" begin="1s" fill="freeze"/>
      <animateTransform attributeName="transform" type="scale" values="0;1.2;1" dur="0.8s" begin="1s" fill="freeze"/>
    </text>
    
    <text x="103.33333333333333" y="75" text-anchor="middle" fill="#1e293b" font-size="18" font-weight="bold" font-family="Arial, sans-serif">
      +23
      <animate attributeName="opacity" values="0;1" dur="0.5s" begin="1.2s" fill="freeze"/>
    </text>
    
    <text x="103.33333333333333" y="95" text-anchor="middle" fill="#64748b" font-size="12" font-family="Arial, sans-serif">
      #41 → #18
      <animate attributeName="opacity" values="0;1" dur="0.5s" begin="1.4s" fill="freeze"/>
    </text>
  </g>
  
  <!-- Timeline Charts (if we have snapshots) -->
  
  <!-- 👥 Followers Count Chart -->
  <g transform="translate(60, 250)">
    <!-- Chart Background -->
    <rect x="0" y="0" width="213.33333333333334" height="200" fill="#ffffff" stroke="#e2e8f0" stroke-width="1" rx="8" filter="url(#shadow)">
      <animate attributeName="opacity" values="0;1" dur="0.5s" begin="1.8s" fill="freeze"/>
    </rect>
    
    <!-- Chart Title -->
    <text x="106.66666666666667" y="25" text-anchor="middle" fill="#1e293b" font-size="14" font-weight="bold" font-family="Arial, sans-serif">
      👥 Followers Count
      <animate attributeName="opacity" values="0;1" dur="0.5s" begin="2s" fill="freeze"/>
    </text>
    
    <!-- Y-axis labels -->
    <text x="10" y="45" fill="#64748b" font-size="10" font-family="Arial, sans-serif">149
      <animate attributeName="opacity" values="0;1" dur="0.5s" begin="2.2s" fill="freeze"/>
    </text>
    <text x="10" y="185" fill="#64748b" font-size="10" font-family="Arial, sans-serif">142
      <animate attributeName="opacity" values="0;1" dur="0.5s" begin="2.2s" fill="freeze"/>
    </text>
    
    <!-- Chart Line with draw animation that follows the circle -->
    <path d="M 30,160 L 30.02501697380012,160 L 30.057399260087237,160 L 31.543525778905366,160 L 31.567360001795162,160 L 31.59519048912438,160 L 33.09500824575289,160 L 33.12239072137365,160 L 33.158661749290154,160 L 34.64251236862933,160 L 34.67048621970525,160 L 34.70473223469954,160 L 36.18526756739615,160 L 36.210911757588114,160 L 36.24476352227896,160 L 37.730298665641925,160 L 37.76303936129581,160 L 37.795726295544675,160 L 39.284755930233594,160 L 39.310722688855634,160 L 39.341993906105785,160 L 40.83428506603225,160 L 40.860287665590974,160 L 40.89168432611949,160 L 42.37931616427802,160 L 42.4089566189094,160 L 42.44019199522287,160 L 43.93262651889604,160 L 43.96083333606036,160 L 43.99429085044777,160 L 45.481976450011324,160 L 45.507781924418325,160 L 45.54399919092981,160 L 47.02575311547342,160 L 47.05128978285535,160 L 47.08189794277698,160 L 48.573776931931675,160 L 48.59956448587033,160 L 48.630728180310456,160 L 50.1238078408438,160 L 50.145276561912965,160 L 50.17604600604964,160 L 51.672010861985434,160 L 51.69706367672224,160 L 51.7178334995262,160 L 53.218260552078206,160 L 53.242130615904685,160 L 53.27232660505454,160 L 54.76270027486882,160 L 54.79859497295023,160 L 54.831120622984045,160 L 56.317623471637276,160 L 56.34428912852451,160 L 56.37552450483798,160 L 57.866274504487365,160 L 57.89234878591944,160 L 57.9175270439346,160 L 59.416287492931154,160 L 59.43865223741722,160 L 59.464690677912614,160 L 60.96031504494999,160 L 60.98581587139524,160 L 61.014524461673034,160 L 62.511134454469,160 L 62.53335583520836,160 L 62.56414319981338,160 L 64.04842391039267,160 L 64.08202478852678,160 L 64.11297343734685,160 L 65.60818563361244,160 L 65.63693006482691,160 L 65.66614042821817,160 L 67.15739220098101,160 L 67.18733730357414,160 L 67.22102778404994,160 L 68.70081045707636,160 L 68.72595287415484,160 L 68.75473314630597,160 L 70.24951525133145,160 L 70.26822422027652,160 L 70.3011441206138,160 L 71.7989368643201,160 L 71.82153457489454,160 L 71.85226817809455,160 L 73.34893193229553,160 L 73.37156548380668,160 L 73.39846410678231,160 L 74.8946619288065,142.85714285714286 L 74.91761804874773,142.85714285714286 L 74.94707929869573,142.85714285714286 L 76.44447779209857,142.85714285714286 L 76.46829409452003,142.85714285714286 L 76.5015007223507,142.85714285714286 L 77.98395354515951,142.85714285714286 L 78.01728561626855,142.85714285714286 L 78.0499187891124,142.85714285714286 L 79.54177985779876,142.85714285714286 L 79.55928815536517,142.85714285714286 L 79.5891436556166,142.85714285714286 L 81.08731272915799,142.85714285714286 L 81.11181000937631,142.85714285714286 L 81.14403101144838,142.85714285714286 L 82.62933318872294,142.85714285714286 L 82.66148250892167,142.85714285714286 L 82.6902090196678,142.85714285714286 L 84.18454311298481,142.85714285714286 L 84.20982889381001,142.85714285714286 L 84.23758769926587,142.85714285714286 L 85.73066735979921,142.85714285714286 L 85.75546928797928,142.85714285714286 L 85.78054002318441,142.85714285714286 L 85.82026970149019,142.85714285714286 L 87.28458701034074,142.85714285714286 L 87.3107508941145,142.85714285714286 L 87.33795416505188,142.85714285714286 L 88.83185816712879,142.85714285714286 L 88.8579503690292,142.85714285714286 L 88.88646183415526,142.85714285714286 L 90.37939813094191,142.85714285714286 L 90.40341155851507,142.85714285714286 L 90.4308119546042,142.85714285714286 L 91.923174796404,142.85714285714286 L 91.9520267504285,142.85714285714286 L 93.4823809851053,142.85714285714286 L 93.49990720314005,142.85714285714286 L 93.52771977000091,142.85714285714286 L 95.02300364813986,142.85714285714286 L 95.04768013304157,142.85714285714286 L 95.07818077015317,142.85714285714286 L 96.57095578272477,142.85714285714286 L 96.5950408921713,142.85714285714286 L 96.62211871983031,142.85714285714286 L 98.12199023786383,142.85714285714286 L 98.14783155320751,142.85714285714286 L 98.18021383949463,142.85714285714286 L 99.67193154443427,142.85714285714286 L 99.69977995223182,142.85714285714286 L 99.72648145005574,142.85714285714286 L 101.22284055629497,142.85714285714286 L 101.23997252402629,142.85714285714286 L 101.26898576226583,142.85714285714286 L 102.76579288021351,142.85714285714286 L 102.78819346563627,142.85714285714286 L 102.81389141723322,142.85714285714286 L 104.31379877620343,142.85714285714286 L 104.33467612181742,142.85714285714286 L 104.36634158937102,142.85714285714286 L 105.86144626282658,142.85714285714286 L 105.88434862136279,142.85714285714286 L 105.91420412161422,142.85714285714286 L 107.40681784997079,142.85714285714286 L 107.42887794649509,142.85714285714286 L 107.46136775559224,142.85714285714286 L 108.95417860910051,142.85714285714286 L 108.98656089538764,142.85714285714286 L 109.0196241594716,142.85714285714286 L 110.50775777074361,142.85714285714286 L 110.5315382322284,142.85714285714286 L 110.56144749388484,142.85714285714286 L 112.05569198486016,142.85714285714286 L 112.07913195744652,142.85714285714286 L 112.10904121910298,142.85714285714286 L 113.60475518848205,142.85714285714286 L 113.63554255308705,142.85714285714286 L 113.67192110381359,142.85714285714286 L 115.15349582367382,142.85714285714286 L 115.17586056815989,142.85714285714286 L 115.20446163562764,142.85714285714286 L 116.70347297118093,142.85714285714286 L 116.72245074715109,142.85714285714286 L 116.7523958497442,142.85714285714286 L 118.24671202259289,142.85714285714286 L 118.26904092614228,142.85714285714286 L 118.29755239126834,142.85714285714286 L 118.3365652508406,142.85714285714286 L 119.79914427426233,142.85714285714286 L 119.82894601310875,142.85714285714286 L 119.85853270633511,142.85714285714286 L 121.3436556789263,142.85714285714286 L 121.37094855220536,142.85714285714286 L 121.39946001733144,142.85714285714286 L 122.8946542931287,142.85714285714286 L 122.9099942140262,142.85714285714286 L 122.94599643491762,142.85714285714286 L 124.44133407446157,142.85714285714286 L 124.4667811395018,142.85714285714286 L 124.48769432605248,142.85714285714286 L 125.99082736932357,142.85714285714286 L 126.01487663783341,142.85714285714286 L 126.0441407626297,142.85714285714286 L 127.53999809575545,142.85714285714286 L 127.56569604735243,142.85714285714286 L 127.59386702358007,142.85714285714286 L 129.0869466841134,142.85714285714286 L 129.10735809755062,142.85714285714286 L 129.1388802013575,142.85714285714286 L 130.6380707415942,142.85714285714286 L 130.66011291765017,142.85714285714286 L 130.69102572553356,142.85714285714286 L 132.18530605744553,142.85714285714286 L 132.2109860885742,142.85714285714286 L 132.2419168169259,142.85714285714286 L 133.73273849844864,142.85714285714286 L 133.75752250616037,142.85714285714286 L 133.77607019089038,142.85714285714286 L 135.27803840371948,142.85714285714286 L 135.31309083978897,142.85714285714286 L 135.33676377846376,142.85714285714286 L 136.82971799571874,142.85714285714286 L 136.85378518469693,142.85714285714286 L 138.4039236164191,142.85714285714286 L 138.43033838674958,142.85714285714286 L 139.92282667182775,142.85714285714286 L 139.94605159879407,142.85714285714286 L 139.97370288143992,142.85714285714286 L 141.47461378663704,142.85714285714286 L 141.5035015815982,142.85714285714286 L 141.53106326190235,142.85714285714286 L 143.02296017152537,142.85714285714286 L 143.05265438756174,142.85714285714286 L 143.08163178486464,142.85714285714286 L 144.57395878572777,142.85714285714286 L 144.6016638297786,142.85714285714286 L 144.62549805266843,142.85714285714286 L 146.11791465587325,142.85714285714286 L 146.14624691631593,40 L 146.17533183642882,40 L 147.69461122167263,40 L 147.72052421888964,40 L 149.2100735471604,40 L 149.23792195495793,40 L 149.256577162498,40 L 150.76225491227308,40 L 150.78997787679225,40 L 150.81829221676662,40 L 152.3076444198856,40 L 152.33647845344177,40 L 152.37192513981472,40 L 153.86233465056569,40 L 153.89258440112053,40 L 153.91410688359474,40 L 155.40962372782207,40 L 155.433834280547,40 L 155.46347473517835,40 L 156.9604968987461,40 L 157.01536937279764,40 L 158.50454237123327,40 L 158.5342186668013,40 L 158.5615653014854,40 L 160.05455535967704,40 L 160.08263673356302,40 L 160.11195461976428,40 L 161.60351104048888,40 L 161.6321479488933,40 L 161.6643689509654,40 L 163.15112268617537,40 L 163.18126491392022,40 L 163.2122314832086,40 L 164.70212130037774,40 L 164.73169007313578,40 L 164.75987896983176,40 L 166.25258230053,40 L 166.27385389644743,40 L 166.30329722592708,40 L 167.79546294257517,40 L 167.82282749772762,40 L 167.8545467266862,40 L 169.3444903052604,40 L 169.37169357619777,40 L 169.4016386787909,40 L 170.8929621334271,40 L 170.91873176689742,40 L 170.95050475726103,40 L 172.4425091896941,40 L 172.4682788231644,40 L 172.49216680745923,40 L 173.9961421127422,40 L 174.0180946864565,40 L 174.05004688150348,40 L 175.53975749398924,40 L 175.5650253543461,40 L 175.59344721713046,40 L 177.0873512192074,40 L 177.10960844088342,40 L 177.14326308042254,40 L 178.63408476194527,40 L 178.66021280478236,40 L 178.6922725226394,40 L 180.18069286140482,40 L 180.20506469834478,40 L 180.23974080457918,40 L 181.72491753857537,40 L 181.7564038014456,40 L 181.7887323263277,40 L 183.27869382537017,40 L 183.30383624244868,40 L 183.33333333333334,40" stroke="#22c55e" stroke-width="2" fill="none" stroke-dasharray="14850" stroke-dashoffset="14850">
      <animate attributeName="stroke-dashoffset" values="14850;0" dur="3s" begin="2.6s" fill="freeze"/>
    </path>
    
    <!-- Glow effect for the line that also follows the circle -->
    <path d="M 30,160 L 30.02501697380012,160 L 30.057399260087237,160 L 31.543525778905366,160 L 31.567360001795162,160 L 31.59519048912438,160 L 33.09500824575289,160 L 33.12239072137365,160 L 33.158661749290154,160 L 34.64251236862933,160 L 34.67048621970525,160 L 34.70473223469954,160 L 36.18526756739615,160 L 36.210911757588114,160 L 36.24476352227896,160 L 37.730298665641925,160 L 37.76303936129581,160 L 37.795726295544675,160 L 39.284755930233594,160 L 39.310722688855634,160 L 39.341993906105785,160 L 40.83428506603225,160 L 40.860287665590974,160 L 40.89168432611949,160 L 42.37931616427802,160 L 42.4089566189094,160 L 42.44019199522287,160 L 43.93262651889604,160 L 43.96083333606036,160 L 43.99429085044777,160 L 45.481976450011324,160 L 45.507781924418325,160 L 45.54399919092981,160 L 47.02575311547342,160 L 47.05128978285535,160 L 47.08189794277698,160 L 48.573776931931675,160 L 48.59956448587033,160 L 48.630728180310456,160 L 50.1238078408438,160 L 50.145276561912965,160 L 50.17604600604964,160 L 51.672010861985434,160 L 51.69706367672224,160 L 51.7178334995262,160 L 53.218260552078206,160 L 53.242130615904685,160 L 53.27232660505454,160 L 54.76270027486882,160 L 54.79859497295023,160 L 54.831120622984045,160 L 56.317623471637276,160 L 56.34428912852451,160 L 56.37552450483798,160 L 57.866274504487365,160 L 57.89234878591944,160 L 57.9175270439346,160 L 59.416287492931154,160 L 59.43865223741722,160 L 59.464690677912614,160 L 60.96031504494999,160 L 60.98581587139524,160 L 61.014524461673034,160 L 62.511134454469,160 L 62.53335583520836,160 L 62.56414319981338,160 L 64.04842391039267,160 L 64.08202478852678,160 L 64.11297343734685,160 L 65.60818563361244,160 L 65.63693006482691,160 L 65.66614042821817,160 L 67.15739220098101,160 L 67.18733730357414,160 L 67.22102778404994,160 L 68.70081045707636,160 L 68.72595287415484,160 L 68.75473314630597,160 L 70.24951525133145,160 L 70.26822422027652,160 L 70.3011441206138,160 L 71.7989368643201,160 L 71.82153457489454,160 L 71.85226817809455,160 L 73.34893193229553,160 L 73.37156548380668,160 L 73.39846410678231,160 L 74.8946619288065,142.85714285714286 L 74.91761804874773,142.85714285714286 L 74.94707929869573,142.85714285714286 L 76.44447779209857,142.85714285714286 L 76.46829409452003,142.85714285714286 L 76.5015007223507,142.85714285714286 L 77.98395354515951,142.85714285714286 L 78.01728561626855,142.85714285714286 L 78.0499187891124,142.85714285714286 L 79.54177985779876,142.85714285714286 L 79.55928815536517,142.85714285714286 L 79.5891436556166,142.85714285714286 L 81.08731272915799,142.85714285714286 L 81.11181000937631,142.85714285714286 L 81.14403101144838,142.85714285714286 L 82.62933318872294,142.85714285714286 L 82.66148250892167,142.85714285714286 L 82.6902090196678,142.85714285714286 L 84.18454311298481,142.85714285714286 L 84.20982889381001,142.85714285714286 L 84.23758769926587,142.85714285714286 L 85.73066735979921,142.85714285714286 L 85.75546928797928,142.85714285714286 L 85.78054002318441,142.85714285714286 L 85.82026970149019,142.85714285714286 L 87.28458701034074,142.85714285714286 L 87.3107508941145,142.85714285714286 L 87.33795416505188,142.85714285714286 L 88.83185816712879,142.85714285714286 L 88.8579503690292,142.85714285714286 L 88.88646183415526,142.85714285714286 L 90.37939813094191,142.85714285714286 L 90.40341155851507,142.85714285714286 L 90.4308119546042,142.85714285714286 L 91.923174796404,142.85714285714286 L 91.9520267504285,142.85714285714286 L 93.4823809851053,142.85714285714286 L 93.49990720314005,142.85714285714286 L 93.52771977000091,142.85714285714286 L 95.02300364813986,142.85714285714286 L 95.04768013304157,142.85714285714286 L 95.07818077015317,142.85714285714286 L 96.57095578272477,142.85714285714286 L 96.5950408921713,142.85714285714286 L 96.62211871983031,142.85714285714286 L 98.12199023786383,142.85714285714286 L 98.14783155320751,142.85714285714286 L 98.18021383949463,142.85714285714286 L 99.67193154443427,142.85714285714286 L 99.69977995223182,142.85714285714286 L 99.72648145005574,142.85714285714286 L 101.22284055629497,142.85714285714286 L 101.23997252402629,142.85714285714286 L 101.26898576226583,142.85714285714286 L 102.76579288021351,142.85714285714286 L 102.78819346563627,142.85714285714286 L 102.81389141723322,142.85714285714286 L 104.31379877620343,142.85714285714286 L 104.33467612181742,142.85714285714286 L 104.36634158937102,142.85714285714286 L 105.86144626282658,142.85714285714286 L 105.88434862136279,142.85714285714286 L 105.91420412161422,142.85714285714286 L 107.40681784997079,142.85714285714286 L 107.42887794649509,142.85714285714286 L 107.46136775559224,142.85714285714286 L 108.95417860910051,142.85714285714286 L 108.98656089538764,142.85714285714286 L 109.0196241594716,142.85714285714286 L 110.50775777074361,142.85714285714286 L 110.5315382322284,142.85714285714286 L 110.56144749388484,142.85714285714286 L 112.05569198486016,142.85714285714286 L 112.07913195744652,142.85714285714286 L 112.10904121910298,142.85714285714286 L 113.60475518848205,142.85714285714286 L 113.63554255308705,142.85714285714286 L 113.67192110381359,142.85714285714286 L 115.15349582367382,142.85714285714286 L 115.17586056815989,142.85714285714286 L 115.20446163562764,142.85714285714286 L 116.70347297118093,142.85714285714286 L 116.72245074715109,142.85714285714286 L 116.7523958497442,142.85714285714286 L 118.24671202259289,142.85714285714286 L 118.26904092614228,142.85714285714286 L 118.29755239126834,142.85714285714286 L 118.3365652508406,142.85714285714286 L 119.79914427426233,142.85714285714286 L 119.82894601310875,142.85714285714286 L 119.85853270633511,142.85714285714286 L 121.3436556789263,142.85714285714286 L 121.37094855220536,142.85714285714286 L 121.39946001733144,142.85714285714286 L 122.8946542931287,142.85714285714286 L 122.9099942140262,142.85714285714286 L 122.94599643491762,142.85714285714286 L 124.44133407446157,142.85714285714286 L 124.4667811395018,142.85714285714286 L 124.48769432605248,142.85714285714286 L 125.99082736932357,142.85714285714286 L 126.01487663783341,142.85714285714286 L 126.0441407626297,142.85714285714286 L 127.53999809575545,142.85714285714286 L 127.56569604735243,142.85714285714286 L 127.59386702358007,142.85714285714286 L 129.0869466841134,142.85714285714286 L 129.10735809755062,142.85714285714286 L 129.1388802013575,142.85714285714286 L 130.6380707415942,142.85714285714286 L 130.66011291765017,142.85714285714286 L 130.69102572553356,142.85714285714286 L 132.18530605744553,142.85714285714286 L 132.2109860885742,142.85714285714286 L 132.2419168169259,142.85714285714286 L 133.73273849844864,142.85714285714286 L 133.75752250616037,142.85714285714286 L 133.77607019089038,142.85714285714286 L 135.27803840371948,142.85714285714286 L 135.31309083978897,142.85714285714286 L 135.33676377846376,142.85714285714286 L 136.82971799571874,142.85714285714286 L 136.85378518469693,142.85714285714286 L 138.4039236164191,142.85714285714286 L 138.43033838674958,142.85714285714286 L 139.92282667182775,142.85714285714286 L 139.94605159879407,142.85714285714286 L 139.97370288143992,142.85714285714286 L 141.47461378663704,142.85714285714286 L 141.5035015815982,142.85714285714286 L 141.53106326190235,142.85714285714286 L 143.02296017152537,142.85714285714286 L 143.05265438756174,142.85714285714286 L 143.08163178486464,142.85714285714286 L 144.57395878572777,142.85714285714286 L 144.6016638297786,142.85714285714286 L 144.62549805266843,142.85714285714286 L 146.11791465587325,142.85714285714286 L 146.14624691631593,40 L 146.17533183642882,40 L 147.69461122167263,40 L 147.72052421888964,40 L 149.2100735471604,40 L 149.23792195495793,40 L 149.256577162498,40 L 150.76225491227308,40 L 150.78997787679225,40 L 150.81829221676662,40 L 152.3076444198856,40 L 152.33647845344177,40 L 152.37192513981472,40 L 153.86233465056569,40 L 153.89258440112053,40 L 153.91410688359474,40 L 155.40962372782207,40 L 155.433834280547,40 L 155.46347473517835,40 L 156.9604968987461,40 L 157.01536937279764,40 L 158.50454237123327,40 L 158.5342186668013,40 L 158.5615653014854,40 L 160.05455535967704,40 L 160.08263673356302,40 L 160.11195461976428,40 L 161.60351104048888,40 L 161.6321479488933,40 L 161.6643689509654,40 L 163.15112268617537,40 L 163.18126491392022,40 L 163.2122314832086,40 L 164.70212130037774,40 L 164.73169007313578,40 L 164.75987896983176,40 L 166.25258230053,40 L 166.27385389644743,40 L 166.30329722592708,40 L 167.79546294257517,40 L 167.82282749772762,40 L 167.8545467266862,40 L 169.3444903052604,40 L 169.37169357619777,40 L 169.4016386787909,40 L 170.8929621334271,40 L 170.91873176689742,40 L 170.95050475726103,40 L 172.4425091896941,40 L 172.4682788231644,40 L 172.49216680745923,40 L 173.9961421127422,40 L 174.0180946864565,40 L 174.05004688150348,40 L 175.53975749398924,40 L 175.5650253543461,40 L 175.59344721713046,40 L 177.0873512192074,40 L 177.10960844088342,40 L 177.14326308042254,40 L 178.63408476194527,40 L 178.66021280478236,40 L 178.6922725226394,40 L 180.18069286140482,40 L 180.20506469834478,40 L 180.23974080457918,40 L 181.72491753857537,40 L 181.7564038014456,40 L 181.7887323263277,40 L 183.27869382537017,40 L 183.30383624244868,40 L 183.33333333333334,40" stroke="#22c55e" stroke-width="4" fill="none" opacity="0.4" stroke-dasharray="14850" stroke-dashoffset="14850">
      <animate attributeName="stroke-dashoffset" values="14850;0" dur="3s" begin="2.6s" fill="freeze"/>
    </path>
    
    <!-- Animated circle that moves along the path and draws the line -->
    <circle r="5" fill="#22c55e" opacity="0" filter="url(#trailGlow)">
      <animate attributeName="opacity" values="0;1;1;1" dur="3.2s" begin="2.4s" fill="freeze"/>
      <animate attributeName="r" values="5;6;5" dur="1s" begin="2.4s" repeatCount="3"/>
      <animateMotion dur="3s" begin="2.4s" fill="freeze">
        <mpath href="#path_followersCount_60"/>
      </animateMotion>
    </circle>
    
    <!-- Small trail dots that fade out -->
    <circle r="2" fill="#22c55e" opacity="0">
      <animate attributeName="opacity" values="0;0.6;0" dur="0.8s" begin="2.8s" fill="freeze"/>
      <animateMotion dur="3s" begin="2.4s" fill="freeze">
        <mpath href="#path_followersCount_60"/>
      </animateMotion>
    </circle>
    
    <!-- Hidden path for motion animation -->
    <path id="path_followersCount_60" d="M 30,160 L 30.02501697380012,160 L 30.057399260087237,160 L 31.543525778905366,160 L 31.567360001795162,160 L 31.59519048912438,160 L 33.09500824575289,160 L 33.12239072137365,160 L 33.158661749290154,160 L 34.64251236862933,160 L 34.67048621970525,160 L 34.70473223469954,160 L 36.18526756739615,160 L 36.210911757588114,160 L 36.24476352227896,160 L 37.730298665641925,160 L 37.76303936129581,160 L 37.795726295544675,160 L 39.284755930233594,160 L 39.310722688855634,160 L 39.341993906105785,160 L 40.83428506603225,160 L 40.860287665590974,160 L 40.89168432611949,160 L 42.37931616427802,160 L 42.4089566189094,160 L 42.44019199522287,160 L 43.93262651889604,160 L 43.96083333606036,160 L 43.99429085044777,160 L 45.481976450011324,160 L 45.507781924418325,160 L 45.54399919092981,160 L 47.02575311547342,160 L 47.05128978285535,160 L 47.08189794277698,160 L 48.573776931931675,160 L 48.59956448587033,160 L 48.630728180310456,160 L 50.1238078408438,160 L 50.145276561912965,160 L 50.17604600604964,160 L 51.672010861985434,160 L 51.69706367672224,160 L 51.7178334995262,160 L 53.218260552078206,160 L 53.242130615904685,160 L 53.27232660505454,160 L 54.76270027486882,160 L 54.79859497295023,160 L 54.831120622984045,160 L 56.317623471637276,160 L 56.34428912852451,160 L 56.37552450483798,160 L 57.866274504487365,160 L 57.89234878591944,160 L 57.9175270439346,160 L 59.416287492931154,160 L 59.43865223741722,160 L 59.464690677912614,160 L 60.96031504494999,160 L 60.98581587139524,160 L 61.014524461673034,160 L 62.511134454469,160 L 62.53335583520836,160 L 62.56414319981338,160 L 64.04842391039267,160 L 64.08202478852678,160 L 64.11297343734685,160 L 65.60818563361244,160 L 65.63693006482691,160 L 65.66614042821817,160 L 67.15739220098101,160 L 67.18733730357414,160 L 67.22102778404994,160 L 68.70081045707636,160 L 68.72595287415484,160 L 68.75473314630597,160 L 70.24951525133145,160 L 70.26822422027652,160 L 70.3011441206138,160 L 71.7989368643201,160 L 71.82153457489454,160 L 71.85226817809455,160 L 73.34893193229553,160 L 73.37156548380668,160 L 73.39846410678231,160 L 74.8946619288065,142.85714285714286 L 74.91761804874773,142.85714285714286 L 74.94707929869573,142.85714285714286 L 76.44447779209857,142.85714285714286 L 76.46829409452003,142.85714285714286 L 76.5015007223507,142.85714285714286 L 77.98395354515951,142.85714285714286 L 78.01728561626855,142.85714285714286 L 78.0499187891124,142.85714285714286 L 79.54177985779876,142.85714285714286 L 79.55928815536517,142.85714285714286 L 79.5891436556166,142.85714285714286 L 81.08731272915799,142.85714285714286 L 81.11181000937631,142.85714285714286 L 81.14403101144838,142.85714285714286 L 82.62933318872294,142.85714285714286 L 82.66148250892167,142.85714285714286 L 82.6902090196678,142.85714285714286 L 84.18454311298481,142.85714285714286 L 84.20982889381001,142.85714285714286 L 84.23758769926587,142.85714285714286 L 85.73066735979921,142.85714285714286 L 85.75546928797928,142.85714285714286 L 85.78054002318441,142.85714285714286 L 85.82026970149019,142.85714285714286 L 87.28458701034074,142.85714285714286 L 87.3107508941145,142.85714285714286 L 87.33795416505188,142.85714285714286 L 88.83185816712879,142.85714285714286 L 88.8579503690292,142.85714285714286 L 88.88646183415526,142.85714285714286 L 90.37939813094191,142.85714285714286 L 90.40341155851507,142.85714285714286 L 90.4308119546042,142.85714285714286 L 91.923174796404,142.85714285714286 L 91.9520267504285,142.85714285714286 L 93.4823809851053,142.85714285714286 L 93.49990720314005,142.85714285714286 L 93.52771977000091,142.85714285714286 L 95.02300364813986,142.85714285714286 L 95.04768013304157,142.85714285714286 L 95.07818077015317,142.85714285714286 L 96.57095578272477,142.85714285714286 L 96.5950408921713,142.85714285714286 L 96.62211871983031,142.85714285714286 L 98.12199023786383,142.85714285714286 L 98.14783155320751,142.85714285714286 L 98.18021383949463,142.85714285714286 L 99.67193154443427,142.85714285714286 L 99.69977995223182,142.85714285714286 L 99.72648145005574,142.85714285714286 L 101.22284055629497,142.85714285714286 L 101.23997252402629,142.85714285714286 L 101.26898576226583,142.85714285714286 L 102.76579288021351,142.85714285714286 L 102.78819346563627,142.85714285714286 L 102.81389141723322,142.85714285714286 L 104.31379877620343,142.85714285714286 L 104.33467612181742,142.85714285714286 L 104.36634158937102,142.85714285714286 L 105.86144626282658,142.85714285714286 L 105.88434862136279,142.85714285714286 L 105.91420412161422,142.85714285714286 L 107.40681784997079,142.85714285714286 L 107.42887794649509,142.85714285714286 L 107.46136775559224,142.85714285714286 L 108.95417860910051,142.85714285714286 L 108.98656089538764,142.85714285714286 L 109.0196241594716,142.85714285714286 L 110.50775777074361,142.85714285714286 L 110.5315382322284,142.85714285714286 L 110.56144749388484,142.85714285714286 L 112.05569198486016,142.85714285714286 L 112.07913195744652,142.85714285714286 L 112.10904121910298,142.85714285714286 L 113.60475518848205,142.85714285714286 L 113.63554255308705,142.85714285714286 L 113.67192110381359,142.85714285714286 L 115.15349582367382,142.85714285714286 L 115.17586056815989,142.85714285714286 L 115.20446163562764,142.85714285714286 L 116.70347297118093,142.85714285714286 L 116.72245074715109,142.85714285714286 L 116.7523958497442,142.85714285714286 L 118.24671202259289,142.85714285714286 L 118.26904092614228,142.85714285714286 L 118.29755239126834,142.85714285714286 L 118.3365652508406,142.85714285714286 L 119.79914427426233,142.85714285714286 L 119.82894601310875,142.85714285714286 L 119.85853270633511,142.85714285714286 L 121.3436556789263,142.85714285714286 L 121.37094855220536,142.85714285714286 L 121.39946001733144,142.85714285714286 L 122.8946542931287,142.85714285714286 L 122.9099942140262,142.85714285714286 L 122.94599643491762,142.85714285714286 L 124.44133407446157,142.85714285714286 L 124.4667811395018,142.85714285714286 L 124.48769432605248,142.85714285714286 L 125.99082736932357,142.85714285714286 L 126.01487663783341,142.85714285714286 L 126.0441407626297,142.85714285714286 L 127.53999809575545,142.85714285714286 L 127.56569604735243,142.85714285714286 L 127.59386702358007,142.85714285714286 L 129.0869466841134,142.85714285714286 L 129.10735809755062,142.85714285714286 L 129.1388802013575,142.85714285714286 L 130.6380707415942,142.85714285714286 L 130.66011291765017,142.85714285714286 L 130.69102572553356,142.85714285714286 L 132.18530605744553,142.85714285714286 L 132.2109860885742,142.85714285714286 L 132.2419168169259,142.85714285714286 L 133.73273849844864,142.85714285714286 L 133.75752250616037,142.85714285714286 L 133.77607019089038,142.85714285714286 L 135.27803840371948,142.85714285714286 L 135.31309083978897,142.85714285714286 L 135.33676377846376,142.85714285714286 L 136.82971799571874,142.85714285714286 L 136.85378518469693,142.85714285714286 L 138.4039236164191,142.85714285714286 L 138.43033838674958,142.85714285714286 L 139.92282667182775,142.85714285714286 L 139.94605159879407,142.85714285714286 L 139.97370288143992,142.85714285714286 L 141.47461378663704,142.85714285714286 L 141.5035015815982,142.85714285714286 L 141.53106326190235,142.85714285714286 L 143.02296017152537,142.85714285714286 L 143.05265438756174,142.85714285714286 L 143.08163178486464,142.85714285714286 L 144.57395878572777,142.85714285714286 L 144.6016638297786,142.85714285714286 L 144.62549805266843,142.85714285714286 L 146.11791465587325,142.85714285714286 L 146.14624691631593,40 L 146.17533183642882,40 L 147.69461122167263,40 L 147.72052421888964,40 L 149.2100735471604,40 L 149.23792195495793,40 L 149.256577162498,40 L 150.76225491227308,40 L 150.78997787679225,40 L 150.81829221676662,40 L 152.3076444198856,40 L 152.33647845344177,40 L 152.37192513981472,40 L 153.86233465056569,40 L 153.89258440112053,40 L 153.91410688359474,40 L 155.40962372782207,40 L 155.433834280547,40 L 155.46347473517835,40 L 156.9604968987461,40 L 157.01536937279764,40 L 158.50454237123327,40 L 158.5342186668013,40 L 158.5615653014854,40 L 160.05455535967704,40 L 160.08263673356302,40 L 160.11195461976428,40 L 161.60351104048888,40 L 161.6321479488933,40 L 161.6643689509654,40 L 163.15112268617537,40 L 163.18126491392022,40 L 163.2122314832086,40 L 164.70212130037774,40 L 164.73169007313578,40 L 164.75987896983176,40 L 166.25258230053,40 L 166.27385389644743,40 L 166.30329722592708,40 L 167.79546294257517,40 L 167.82282749772762,40 L 167.8545467266862,40 L 169.3444903052604,40 L 169.37169357619777,40 L 169.4016386787909,40 L 170.8929621334271,40 L 170.91873176689742,40 L 170.95050475726103,40 L 172.4425091896941,40 L 172.4682788231644,40 L 172.49216680745923,40 L 173.9961421127422,40 L 174.0180946864565,40 L 174.05004688150348,40 L 175.53975749398924,40 L 175.5650253543461,40 L 175.59344721713046,40 L 177.0873512192074,40 L 177.10960844088342,40 L 177.14326308042254,40 L 178.63408476194527,40 L 178.66021280478236,40 L 178.6922725226394,40 L 180.18069286140482,40 L 180.20506469834478,40 L 180.23974080457918,40 L 181.72491753857537,40 L 181.7564038014456,40 L 181.7887323263277,40 L 183.27869382537017,40 L 183.30383624244868,40 L 183.33333333333334,40" fill="none" stroke="none"/>
  </g>
  <!-- 🔓 Public Contributions Chart -->
  <g transform="translate(293.33333333333337, 250)">
    <!-- Chart Background -->
    <rect x="0" y="0" width="213.33333333333334" height="200" fill="#ffffff" stroke="#e2e8f0" stroke-width="1" rx="8" filter="url(#shadow)">
      <animate attributeName="opacity" values="0;1" dur="0.5s" begin="2.3s" fill="freeze"/>
    </rect>
    
    <!-- Chart Title -->
    <text x="106.66666666666667" y="25" text-anchor="middle" fill="#1e293b" font-size="14" font-weight="bold" font-family="Arial, sans-serif">
      🔓 Public Contributions
      <animate attributeName="opacity" values="0;1" dur="0.5s" begin="2.5s" fill="freeze"/>
    </text>
    
    <!-- Y-axis labels -->
    <text x="10" y="45" fill="#64748b" font-size="10" font-family="Arial, sans-serif">3,180
      <animate attributeName="opacity" values="0;1" dur="0.5s" begin="2.6999999999999997s" fill="freeze"/>
    </text>
    <text x="10" y="185" fill="#64748b" font-size="10" font-family="Arial, sans-serif">1,753
      <animate attributeName="opacity" values="0;1" dur="0.5s" begin="2.6999999999999997s" fill="freeze"/>
    </text>
    
    <!-- Chart Line with draw animation that follows the circle -->
    <path d="M 30,160 L 30.02501697380012,160 L 30.057399260087237,160 L 31.543525778905366,160 L 31.567360001795162,160 L 31.59519048912438,160 L 33.09500824575289,160 L 33.12239072137365,160 L 33.158661749290154,160 L 34.64251236862933,160 L 34.67048621970525,160 L 34.70473223469954,160 L 36.18526756739615,160 L 36.210911757588114,160 L 36.24476352227896,160 L 37.730298665641925,160 L 37.76303936129581,160 L 37.795726295544675,160 L 39.284755930233594,160 L 39.310722688855634,160 L 39.341993906105785,160 L 40.83428506603225,160 L 40.860287665590974,160 L 40.89168432611949,160 L 42.37931616427802,160 L 42.4089566189094,160 L 42.44019199522287,160 L 43.93262651889604,160 L 43.96083333606036,160 L 43.99429085044777,160 L 45.481976450011324,160 L 45.507781924418325,160 L 45.54399919092981,160 L 47.02575311547342,160 L 47.05128978285535,160 L 47.08189794277698,160 L 48.573776931931675,160 L 48.59956448587033,160 L 48.630728180310456,160 L 50.1238078408438,160 L 50.145276561912965,160 L 50.17604600604964,160 L 51.672010861985434,160 L 51.69706367672224,160 L 51.7178334995262,160 L 53.218260552078206,160 L 53.242130615904685,160 L 53.27232660505454,160 L 54.76270027486882,160 L 54.79859497295023,160 L 54.831120622984045,160 L 56.317623471637276,160 L 56.34428912852451,160 L 56.37552450483798,160 L 57.866274504487365,160 L 57.89234878591944,160 L 57.9175270439346,160 L 59.416287492931154,160 L 59.43865223741722,160 L 59.464690677912614,160 L 60.96031504494999,160 L 60.98581587139524,160 L 61.014524461673034,160 L 62.511134454469,160 L 62.53335583520836,160 L 62.56414319981338,160 L 64.04842391039267,160 L 64.08202478852678,160 L 64.11297343734685,160 L 65.60818563361244,160 L 65.63693006482691,160 L 65.66614042821817,160 L 67.15739220098101,160 L 67.18733730357414,160 L 67.22102778404994,160 L 68.70081045707636,160 L 68.72595287415484,160 L 68.75473314630597,160 L 70.24951525133145,160 L 70.26822422027652,160 L 70.3011441206138,160 L 71.7989368643201,160 L 71.82153457489454,160 L 71.85226817809455,160 L 73.34893193229553,160 L 73.37156548380668,160 L 73.39846410678231,160 L 74.8946619288065,82.97126839523476 L 74.91761804874773,82.97126839523476 L 74.94707929869573,82.97126839523476 L 76.44447779209857,82.97126839523476 L 76.46829409452003,82.97126839523476 L 76.5015007223507,82.97126839523476 L 77.98395354515951,82.97126839523476 L 78.01728561626855,82.97126839523476 L 78.0499187891124,82.97126839523476 L 79.54177985779876,82.97126839523476 L 79.55928815536517,82.97126839523476 L 79.5891436556166,82.97126839523476 L 81.08731272915799,82.97126839523476 L 81.11181000937631,82.97126839523476 L 81.14403101144838,82.97126839523476 L 82.62933318872294,82.97126839523476 L 82.66148250892167,82.97126839523476 L 82.6902090196678,82.97126839523476 L 84.18454311298481,82.97126839523476 L 84.20982889381001,82.97126839523476 L 84.23758769926587,82.97126839523476 L 85.73066735979921,82.97126839523476 L 85.75546928797928,82.97126839523476 L 85.78054002318441,82.97126839523476 L 85.82026970149019,82.97126839523476 L 87.28458701034074,82.97126839523476 L 87.3107508941145,82.97126839523476 L 87.33795416505188,82.97126839523476 L 88.83185816712879,82.97126839523476 L 88.8579503690292,82.97126839523476 L 88.88646183415526,82.97126839523476 L 90.37939813094191,82.97126839523476 L 90.40341155851507,82.97126839523476 L 90.4308119546042,82.97126839523476 L 91.923174796404,82.97126839523476 L 91.9520267504285,82.97126839523476 L 93.4823809851053,82.97126839523476 L 93.49990720314005,82.97126839523476 L 93.52771977000091,82.97126839523476 L 95.02300364813986,82.97126839523476 L 95.04768013304157,82.97126839523476 L 95.07818077015317,82.97126839523476 L 96.57095578272477,82.97126839523476 L 96.5950408921713,82.97126839523476 L 96.62211871983031,82.97126839523476 L 98.12199023786383,82.97126839523476 L 98.14783155320751,82.97126839523476 L 98.18021383949463,82.97126839523476 L 99.67193154443427,82.97126839523476 L 99.69977995223182,82.97126839523476 L 99.72648145005574,82.97126839523476 L 101.22284055629497,82.97126839523476 L 101.23997252402629,82.97126839523476 L 101.26898576226583,82.97126839523476 L 102.76579288021351,82.97126839523476 L 102.78819346563627,82.97126839523476 L 102.81389141723322,82.97126839523476 L 104.31379877620343,82.97126839523476 L 104.33467612181742,82.97126839523476 L 104.36634158937102,82.97126839523476 L 105.86144626282658,82.97126839523476 L 105.88434862136279,82.97126839523476 L 105.91420412161422,82.97126839523476 L 107.40681784997079,82.97126839523476 L 107.42887794649509,82.97126839523476 L 107.46136775559224,82.97126839523476 L 108.95417860910051,82.97126839523476 L 108.98656089538764,82.97126839523476 L 109.0196241594716,82.97126839523476 L 110.50775777074361,82.97126839523476 L 110.5315382322284,82.97126839523476 L 110.56144749388484,82.97126839523476 L 112.05569198486016,82.97126839523476 L 112.07913195744652,82.97126839523476 L 112.10904121910298,82.97126839523476 L 113.60475518848205,82.97126839523476 L 113.63554255308705,82.97126839523476 L 113.67192110381359,82.97126839523476 L 115.15349582367382,82.97126839523476 L 115.17586056815989,82.97126839523476 L 115.20446163562764,82.97126839523476 L 116.70347297118093,82.97126839523476 L 116.72245074715109,82.97126839523476 L 116.7523958497442,82.97126839523476 L 118.24671202259289,82.97126839523476 L 118.26904092614228,82.97126839523476 L 118.29755239126834,82.97126839523476 L 118.3365652508406,82.97126839523476 L 119.79914427426233,82.97126839523476 L 119.82894601310875,82.97126839523476 L 119.85853270633511,82.97126839523476 L 121.3436556789263,82.97126839523476 L 121.37094855220536,82.97126839523476 L 121.39946001733144,82.97126839523476 L 122.8946542931287,82.97126839523476 L 122.9099942140262,82.97126839523476 L 122.94599643491762,82.97126839523476 L 124.44133407446157,82.97126839523476 L 124.4667811395018,82.97126839523476 L 124.48769432605248,82.97126839523476 L 125.99082736932357,82.97126839523476 L 126.01487663783341,82.97126839523476 L 126.0441407626297,82.97126839523476 L 127.53999809575545,82.97126839523476 L 127.56569604735243,82.97126839523476 L 127.59386702358007,82.97126839523476 L 129.0869466841134,82.97126839523476 L 129.10735809755062,82.97126839523476 L 129.1388802013575,82.97126839523476 L 130.6380707415942,82.97126839523476 L 130.66011291765017,82.97126839523476 L 130.69102572553356,82.97126839523476 L 132.18530605744553,82.97126839523476 L 132.2109860885742,82.97126839523476 L 132.2419168169259,82.97126839523476 L 133.73273849844864,82.97126839523476 L 133.75752250616037,82.97126839523476 L 133.77607019089038,82.97126839523476 L 135.27803840371948,82.97126839523476 L 135.31309083978897,82.97126839523476 L 135.33676377846376,82.97126839523476 L 136.82971799571874,82.97126839523476 L 136.85378518469693,82.97126839523476 L 138.4039236164191,82.97126839523476 L 138.43033838674958,82.97126839523476 L 139.92282667182775,82.97126839523476 L 139.94605159879407,82.97126839523476 L 139.97370288143992,82.97126839523476 L 141.47461378663704,82.97126839523476 L 141.5035015815982,82.97126839523476 L 141.53106326190235,82.97126839523476 L 143.02296017152537,82.97126839523476 L 143.05265438756174,82.97126839523476 L 143.08163178486464,82.97126839523476 L 144.57395878572777,82.97126839523476 L 144.6016638297786,82.97126839523476 L 144.62549805266843,82.97126839523476 L 146.11791465587325,82.97126839523476 L 146.14624691631593,40 L 146.17533183642882,40 L 147.69461122167263,40 L 147.72052421888964,40 L 149.2100735471604,40 L 149.23792195495793,40 L 149.256577162498,40 L 150.76225491227308,40 L 150.78997787679225,40 L 150.81829221676662,40 L 152.3076444198856,40 L 152.33647845344177,40 L 152.37192513981472,40 L 153.86233465056569,40 L 153.89258440112053,40 L 153.91410688359474,40 L 155.40962372782207,40 L 155.433834280547,40 L 155.46347473517835,40 L 156.9604968987461,40 L 157.01536937279764,40 L 158.50454237123327,40 L 158.5342186668013,40 L 158.5615653014854,40 L 160.05455535967704,40 L 160.08263673356302,40 L 160.11195461976428,40 L 161.60351104048888,40 L 161.6321479488933,40 L 161.6643689509654,40 L 163.15112268617537,40 L 163.18126491392022,40 L 163.2122314832086,40 L 164.70212130037774,40 L 164.73169007313578,40 L 164.75987896983176,40 L 166.25258230053,40 L 166.27385389644743,40 L 166.30329722592708,40 L 167.79546294257517,40 L 167.82282749772762,40 L 167.8545467266862,40 L 169.3444903052604,40 L 169.37169357619777,40 L 169.4016386787909,40 L 170.8929621334271,40 L 170.91873176689742,40 L 170.95050475726103,40 L 172.4425091896941,40 L 172.4682788231644,40 L 172.49216680745923,40 L 173.9961421127422,40 L 174.0180946864565,40 L 174.05004688150348,40 L 175.53975749398924,40 L 175.5650253543461,40 L 175.59344721713046,40 L 177.0873512192074,40 L 177.10960844088342,40 L 177.14326308042254,40 L 178.63408476194527,40 L 178.66021280478236,40 L 178.6922725226394,40 L 180.18069286140482,40 L 180.20506469834478,40 L 180.23974080457918,40 L 181.72491753857537,40 L 181.7564038014456,40 L 181.7887323263277,40 L 183.27869382537017,40 L 183.30383624244868,40 L 183.33333333333334,40" stroke="#3b82f6" stroke-width="2" fill="none" stroke-dasharray="14850" stroke-dashoffset="14850">
      <animate attributeName="stroke-dashoffset" values="14850;0" dur="3s" begin="3.0999999999999996s" fill="freeze"/>
    </path>
    
    <!-- Glow effect for the line that also follows the circle -->
    <path d="M 30,160 L 30.02501697380012,160 L 30.057399260087237,160 L 31.543525778905366,160 L 31.567360001795162,160 L 31.59519048912438,160 L 33.09500824575289,160 L 33.12239072137365,160 L 33.158661749290154,160 L 34.64251236862933,160 L 34.67048621970525,160 L 34.70473223469954,160 L 36.18526756739615,160 L 36.210911757588114,160 L 36.24476352227896,160 L 37.730298665641925,160 L 37.76303936129581,160 L 37.795726295544675,160 L 39.284755930233594,160 L 39.310722688855634,160 L 39.341993906105785,160 L 40.83428506603225,160 L 40.860287665590974,160 L 40.89168432611949,160 L 42.37931616427802,160 L 42.4089566189094,160 L 42.44019199522287,160 L 43.93262651889604,160 L 43.96083333606036,160 L 43.99429085044777,160 L 45.481976450011324,160 L 45.507781924418325,160 L 45.54399919092981,160 L 47.02575311547342,160 L 47.05128978285535,160 L 47.08189794277698,160 L 48.573776931931675,160 L 48.59956448587033,160 L 48.630728180310456,160 L 50.1238078408438,160 L 50.145276561912965,160 L 50.17604600604964,160 L 51.672010861985434,160 L 51.69706367672224,160 L 51.7178334995262,160 L 53.218260552078206,160 L 53.242130615904685,160 L 53.27232660505454,160 L 54.76270027486882,160 L 54.79859497295023,160 L 54.831120622984045,160 L 56.317623471637276,160 L 56.34428912852451,160 L 56.37552450483798,160 L 57.866274504487365,160 L 57.89234878591944,160 L 57.9175270439346,160 L 59.416287492931154,160 L 59.43865223741722,160 L 59.464690677912614,160 L 60.96031504494999,160 L 60.98581587139524,160 L 61.014524461673034,160 L 62.511134454469,160 L 62.53335583520836,160 L 62.56414319981338,160 L 64.04842391039267,160 L 64.08202478852678,160 L 64.11297343734685,160 L 65.60818563361244,160 L 65.63693006482691,160 L 65.66614042821817,160 L 67.15739220098101,160 L 67.18733730357414,160 L 67.22102778404994,160 L 68.70081045707636,160 L 68.72595287415484,160 L 68.75473314630597,160 L 70.24951525133145,160 L 70.26822422027652,160 L 70.3011441206138,160 L 71.7989368643201,160 L 71.82153457489454,160 L 71.85226817809455,160 L 73.34893193229553,160 L 73.37156548380668,160 L 73.39846410678231,160 L 74.8946619288065,82.97126839523476 L 74.91761804874773,82.97126839523476 L 74.94707929869573,82.97126839523476 L 76.44447779209857,82.97126839523476 L 76.46829409452003,82.97126839523476 L 76.5015007223507,82.97126839523476 L 77.98395354515951,82.97126839523476 L 78.01728561626855,82.97126839523476 L 78.0499187891124,82.97126839523476 L 79.54177985779876,82.97126839523476 L 79.55928815536517,82.97126839523476 L 79.5891436556166,82.97126839523476 L 81.08731272915799,82.97126839523476 L 81.11181000937631,82.97126839523476 L 81.14403101144838,82.97126839523476 L 82.62933318872294,82.97126839523476 L 82.66148250892167,82.97126839523476 L 82.6902090196678,82.97126839523476 L 84.18454311298481,82.97126839523476 L 84.20982889381001,82.97126839523476 L 84.23758769926587,82.97126839523476 L 85.73066735979921,82.97126839523476 L 85.75546928797928,82.97126839523476 L 85.78054002318441,82.97126839523476 L 85.82026970149019,82.97126839523476 L 87.28458701034074,82.97126839523476 L 87.3107508941145,82.97126839523476 L 87.33795416505188,82.97126839523476 L 88.83185816712879,82.97126839523476 L 88.8579503690292,82.97126839523476 L 88.88646183415526,82.97126839523476 L 90.37939813094191,82.97126839523476 L 90.40341155851507,82.97126839523476 L 90.4308119546042,82.97126839523476 L 91.923174796404,82.97126839523476 L 91.9520267504285,82.97126839523476 L 93.4823809851053,82.97126839523476 L 93.49990720314005,82.97126839523476 L 93.52771977000091,82.97126839523476 L 95.02300364813986,82.97126839523476 L 95.04768013304157,82.97126839523476 L 95.07818077015317,82.97126839523476 L 96.57095578272477,82.97126839523476 L 96.5950408921713,82.97126839523476 L 96.62211871983031,82.97126839523476 L 98.12199023786383,82.97126839523476 L 98.14783155320751,82.97126839523476 L 98.18021383949463,82.97126839523476 L 99.67193154443427,82.97126839523476 L 99.69977995223182,82.97126839523476 L 99.72648145005574,82.97126839523476 L 101.22284055629497,82.97126839523476 L 101.23997252402629,82.97126839523476 L 101.26898576226583,82.97126839523476 L 102.76579288021351,82.97126839523476 L 102.78819346563627,82.97126839523476 L 102.81389141723322,82.97126839523476 L 104.31379877620343,82.97126839523476 L 104.33467612181742,82.97126839523476 L 104.36634158937102,82.97126839523476 L 105.86144626282658,82.97126839523476 L 105.88434862136279,82.97126839523476 L 105.91420412161422,82.97126839523476 L 107.40681784997079,82.97126839523476 L 107.42887794649509,82.97126839523476 L 107.46136775559224,82.97126839523476 L 108.95417860910051,82.97126839523476 L 108.98656089538764,82.97126839523476 L 109.0196241594716,82.97126839523476 L 110.50775777074361,82.97126839523476 L 110.5315382322284,82.97126839523476 L 110.56144749388484,82.97126839523476 L 112.05569198486016,82.97126839523476 L 112.07913195744652,82.97126839523476 L 112.10904121910298,82.97126839523476 L 113.60475518848205,82.97126839523476 L 113.63554255308705,82.97126839523476 L 113.67192110381359,82.97126839523476 L 115.15349582367382,82.97126839523476 L 115.17586056815989,82.97126839523476 L 115.20446163562764,82.97126839523476 L 116.70347297118093,82.97126839523476 L 116.72245074715109,82.97126839523476 L 116.7523958497442,82.97126839523476 L 118.24671202259289,82.97126839523476 L 118.26904092614228,82.97126839523476 L 118.29755239126834,82.97126839523476 L 118.3365652508406,82.97126839523476 L 119.79914427426233,82.97126839523476 L 119.82894601310875,82.97126839523476 L 119.85853270633511,82.97126839523476 L 121.3436556789263,82.97126839523476 L 121.37094855220536,82.97126839523476 L 121.39946001733144,82.97126839523476 L 122.8946542931287,82.97126839523476 L 122.9099942140262,82.97126839523476 L 122.94599643491762,82.97126839523476 L 124.44133407446157,82.97126839523476 L 124.4667811395018,82.97126839523476 L 124.48769432605248,82.97126839523476 L 125.99082736932357,82.97126839523476 L 126.01487663783341,82.97126839523476 L 126.0441407626297,82.97126839523476 L 127.53999809575545,82.97126839523476 L 127.56569604735243,82.97126839523476 L 127.59386702358007,82.97126839523476 L 129.0869466841134,82.97126839523476 L 129.10735809755062,82.97126839523476 L 129.1388802013575,82.97126839523476 L 130.6380707415942,82.97126839523476 L 130.66011291765017,82.97126839523476 L 130.69102572553356,82.97126839523476 L 132.18530605744553,82.97126839523476 L 132.2109860885742,82.97126839523476 L 132.2419168169259,82.97126839523476 L 133.73273849844864,82.97126839523476 L 133.75752250616037,82.97126839523476 L 133.77607019089038,82.97126839523476 L 135.27803840371948,82.97126839523476 L 135.31309083978897,82.97126839523476 L 135.33676377846376,82.97126839523476 L 136.82971799571874,82.97126839523476 L 136.85378518469693,82.97126839523476 L 138.4039236164191,82.97126839523476 L 138.43033838674958,82.97126839523476 L 139.92282667182775,82.97126839523476 L 139.94605159879407,82.97126839523476 L 139.97370288143992,82.97126839523476 L 141.47461378663704,82.97126839523476 L 141.5035015815982,82.97126839523476 L 141.53106326190235,82.97126839523476 L 143.02296017152537,82.97126839523476 L 143.05265438756174,82.97126839523476 L 143.08163178486464,82.97126839523476 L 144.57395878572777,82.97126839523476 L 144.6016638297786,82.97126839523476 L 144.62549805266843,82.97126839523476 L 146.11791465587325,82.97126839523476 L 146.14624691631593,40 L 146.17533183642882,40 L 147.69461122167263,40 L 147.72052421888964,40 L 149.2100735471604,40 L 149.23792195495793,40 L 149.256577162498,40 L 150.76225491227308,40 L 150.78997787679225,40 L 150.81829221676662,40 L 152.3076444198856,40 L 152.33647845344177,40 L 152.37192513981472,40 L 153.86233465056569,40 L 153.89258440112053,40 L 153.91410688359474,40 L 155.40962372782207,40 L 155.433834280547,40 L 155.46347473517835,40 L 156.9604968987461,40 L 157.01536937279764,40 L 158.50454237123327,40 L 158.5342186668013,40 L 158.5615653014854,40 L 160.05455535967704,40 L 160.08263673356302,40 L 160.11195461976428,40 L 161.60351104048888,40 L 161.6321479488933,40 L 161.6643689509654,40 L 163.15112268617537,40 L 163.18126491392022,40 L 163.2122314832086,40 L 164.70212130037774,40 L 164.73169007313578,40 L 164.75987896983176,40 L 166.25258230053,40 L 166.27385389644743,40 L 166.30329722592708,40 L 167.79546294257517,40 L 167.82282749772762,40 L 167.8545467266862,40 L 169.3444903052604,40 L 169.37169357619777,40 L 169.4016386787909,40 L 170.8929621334271,40 L 170.91873176689742,40 L 170.95050475726103,40 L 172.4425091896941,40 L 172.4682788231644,40 L 172.49216680745923,40 L 173.9961421127422,40 L 174.0180946864565,40 L 174.05004688150348,40 L 175.53975749398924,40 L 175.5650253543461,40 L 175.59344721713046,40 L 177.0873512192074,40 L 177.10960844088342,40 L 177.14326308042254,40 L 178.63408476194527,40 L 178.66021280478236,40 L 178.6922725226394,40 L 180.18069286140482,40 L 180.20506469834478,40 L 180.23974080457918,40 L 181.72491753857537,40 L 181.7564038014456,40 L 181.7887323263277,40 L 183.27869382537017,40 L 183.30383624244868,40 L 183.33333333333334,40" stroke="#3b82f6" stroke-width="4" fill="none" opacity="0.4" stroke-dasharray="14850" stroke-dashoffset="14850">
      <animate attributeName="stroke-dashoffset" values="14850;0" dur="3s" begin="3.0999999999999996s" fill="freeze"/>
    </path>
    
    <!-- Animated circle that moves along the path and draws the line -->
    <circle r="5" fill="#3b82f6" opacity="0" filter="url(#trailGlow)">
      <animate attributeName="opacity" values="0;1;1;1" dur="3.2s" begin="2.9s" fill="freeze"/>
      <animate attributeName="r" values="5;6;5" dur="1s" begin="2.9s" repeatCount="3"/>
      <animateMotion dur="3s" begin="2.9s" fill="freeze">
        <mpath href="#path_publicContributions_293.33333333333337"/>
      </animateMotion>
    </circle>
    
    <!-- Small trail dots that fade out -->
    <circle r="2" fill="#3b82f6" opacity="0">
      <animate attributeName="opacity" values="0;0.6;0" dur="0.8s" begin="3.3s" fill="freeze"/>
      <animateMotion dur="3s" begin="2.9s" fill="freeze">
        <mpath href="#path_publicContributions_293.33333333333337"/>
      </animateMotion>
    </circle>
    
    <!-- Hidden path for motion animation -->
    <path id="path_publicContributions_293.33333333333337" d="M 30,160 L 30.02501697380012,160 L 30.057399260087237,160 L 31.543525778905366,160 L 31.567360001795162,160 L 31.59519048912438,160 L 33.09500824575289,160 L 33.12239072137365,160 L 33.158661749290154,160 L 34.64251236862933,160 L 34.67048621970525,160 L 34.70473223469954,160 L 36.18526756739615,160 L 36.210911757588114,160 L 36.24476352227896,160 L 37.730298665641925,160 L 37.76303936129581,160 L 37.795726295544675,160 L 39.284755930233594,160 L 39.310722688855634,160 L 39.341993906105785,160 L 40.83428506603225,160 L 40.860287665590974,160 L 40.89168432611949,160 L 42.37931616427802,160 L 42.4089566189094,160 L 42.44019199522287,160 L 43.93262651889604,160 L 43.96083333606036,160 L 43.99429085044777,160 L 45.481976450011324,160 L 45.507781924418325,160 L 45.54399919092981,160 L 47.02575311547342,160 L 47.05128978285535,160 L 47.08189794277698,160 L 48.573776931931675,160 L 48.59956448587033,160 L 48.630728180310456,160 L 50.1238078408438,160 L 50.145276561912965,160 L 50.17604600604964,160 L 51.672010861985434,160 L 51.69706367672224,160 L 51.7178334995262,160 L 53.218260552078206,160 L 53.242130615904685,160 L 53.27232660505454,160 L 54.76270027486882,160 L 54.79859497295023,160 L 54.831120622984045,160 L 56.317623471637276,160 L 56.34428912852451,160 L 56.37552450483798,160 L 57.866274504487365,160 L 57.89234878591944,160 L 57.9175270439346,160 L 59.416287492931154,160 L 59.43865223741722,160 L 59.464690677912614,160 L 60.96031504494999,160 L 60.98581587139524,160 L 61.014524461673034,160 L 62.511134454469,160 L 62.53335583520836,160 L 62.56414319981338,160 L 64.04842391039267,160 L 64.08202478852678,160 L 64.11297343734685,160 L 65.60818563361244,160 L 65.63693006482691,160 L 65.66614042821817,160 L 67.15739220098101,160 L 67.18733730357414,160 L 67.22102778404994,160 L 68.70081045707636,160 L 68.72595287415484,160 L 68.75473314630597,160 L 70.24951525133145,160 L 70.26822422027652,160 L 70.3011441206138,160 L 71.7989368643201,160 L 71.82153457489454,160 L 71.85226817809455,160 L 73.34893193229553,160 L 73.37156548380668,160 L 73.39846410678231,160 L 74.8946619288065,82.97126839523476 L 74.91761804874773,82.97126839523476 L 74.94707929869573,82.97126839523476 L 76.44447779209857,82.97126839523476 L 76.46829409452003,82.97126839523476 L 76.5015007223507,82.97126839523476 L 77.98395354515951,82.97126839523476 L 78.01728561626855,82.97126839523476 L 78.0499187891124,82.97126839523476 L 79.54177985779876,82.97126839523476 L 79.55928815536517,82.97126839523476 L 79.5891436556166,82.97126839523476 L 81.08731272915799,82.97126839523476 L 81.11181000937631,82.97126839523476 L 81.14403101144838,82.97126839523476 L 82.62933318872294,82.97126839523476 L 82.66148250892167,82.97126839523476 L 82.6902090196678,82.97126839523476 L 84.18454311298481,82.97126839523476 L 84.20982889381001,82.97126839523476 L 84.23758769926587,82.97126839523476 L 85.73066735979921,82.97126839523476 L 85.75546928797928,82.97126839523476 L 85.78054002318441,82.97126839523476 L 85.82026970149019,82.97126839523476 L 87.28458701034074,82.97126839523476 L 87.3107508941145,82.97126839523476 L 87.33795416505188,82.97126839523476 L 88.83185816712879,82.97126839523476 L 88.8579503690292,82.97126839523476 L 88.88646183415526,82.97126839523476 L 90.37939813094191,82.97126839523476 L 90.40341155851507,82.97126839523476 L 90.4308119546042,82.97126839523476 L 91.923174796404,82.97126839523476 L 91.9520267504285,82.97126839523476 L 93.4823809851053,82.97126839523476 L 93.49990720314005,82.97126839523476 L 93.52771977000091,82.97126839523476 L 95.02300364813986,82.97126839523476 L 95.04768013304157,82.97126839523476 L 95.07818077015317,82.97126839523476 L 96.57095578272477,82.97126839523476 L 96.5950408921713,82.97126839523476 L 96.62211871983031,82.97126839523476 L 98.12199023786383,82.97126839523476 L 98.14783155320751,82.97126839523476 L 98.18021383949463,82.97126839523476 L 99.67193154443427,82.97126839523476 L 99.69977995223182,82.97126839523476 L 99.72648145005574,82.97126839523476 L 101.22284055629497,82.97126839523476 L 101.23997252402629,82.97126839523476 L 101.26898576226583,82.97126839523476 L 102.76579288021351,82.97126839523476 L 102.78819346563627,82.97126839523476 L 102.81389141723322,82.97126839523476 L 104.31379877620343,82.97126839523476 L 104.33467612181742,82.97126839523476 L 104.36634158937102,82.97126839523476 L 105.86144626282658,82.97126839523476 L 105.88434862136279,82.97126839523476 L 105.91420412161422,82.97126839523476 L 107.40681784997079,82.97126839523476 L 107.42887794649509,82.97126839523476 L 107.46136775559224,82.97126839523476 L 108.95417860910051,82.97126839523476 L 108.98656089538764,82.97126839523476 L 109.0196241594716,82.97126839523476 L 110.50775777074361,82.97126839523476 L 110.5315382322284,82.97126839523476 L 110.56144749388484,82.97126839523476 L 112.05569198486016,82.97126839523476 L 112.07913195744652,82.97126839523476 L 112.10904121910298,82.97126839523476 L 113.60475518848205,82.97126839523476 L 113.63554255308705,82.97126839523476 L 113.67192110381359,82.97126839523476 L 115.15349582367382,82.97126839523476 L 115.17586056815989,82.97126839523476 L 115.20446163562764,82.97126839523476 L 116.70347297118093,82.97126839523476 L 116.72245074715109,82.97126839523476 L 116.7523958497442,82.97126839523476 L 118.24671202259289,82.97126839523476 L 118.26904092614228,82.97126839523476 L 118.29755239126834,82.97126839523476 L 118.3365652508406,82.97126839523476 L 119.79914427426233,82.97126839523476 L 119.82894601310875,82.97126839523476 L 119.85853270633511,82.97126839523476 L 121.3436556789263,82.97126839523476 L 121.37094855220536,82.97126839523476 L 121.39946001733144,82.97126839523476 L 122.8946542931287,82.97126839523476 L 122.9099942140262,82.97126839523476 L 122.94599643491762,82.97126839523476 L 124.44133407446157,82.97126839523476 L 124.4667811395018,82.97126839523476 L 124.48769432605248,82.97126839523476 L 125.99082736932357,82.97126839523476 L 126.01487663783341,82.97126839523476 L 126.0441407626297,82.97126839523476 L 127.53999809575545,82.97126839523476 L 127.56569604735243,82.97126839523476 L 127.59386702358007,82.97126839523476 L 129.0869466841134,82.97126839523476 L 129.10735809755062,82.97126839523476 L 129.1388802013575,82.97126839523476 L 130.6380707415942,82.97126839523476 L 130.66011291765017,82.97126839523476 L 130.69102572553356,82.97126839523476 L 132.18530605744553,82.97126839523476 L 132.2109860885742,82.97126839523476 L 132.2419168169259,82.97126839523476 L 133.73273849844864,82.97126839523476 L 133.75752250616037,82.97126839523476 L 133.77607019089038,82.97126839523476 L 135.27803840371948,82.97126839523476 L 135.31309083978897,82.97126839523476 L 135.33676377846376,82.97126839523476 L 136.82971799571874,82.97126839523476 L 136.85378518469693,82.97126839523476 L 138.4039236164191,82.97126839523476 L 138.43033838674958,82.97126839523476 L 139.92282667182775,82.97126839523476 L 139.94605159879407,82.97126839523476 L 139.97370288143992,82.97126839523476 L 141.47461378663704,82.97126839523476 L 141.5035015815982,82.97126839523476 L 141.53106326190235,82.97126839523476 L 143.02296017152537,82.97126839523476 L 143.05265438756174,82.97126839523476 L 143.08163178486464,82.97126839523476 L 144.57395878572777,82.97126839523476 L 144.6016638297786,82.97126839523476 L 144.62549805266843,82.97126839523476 L 146.11791465587325,82.97126839523476 L 146.14624691631593,40 L 146.17533183642882,40 L 147.69461122167263,40 L 147.72052421888964,40 L 149.2100735471604,40 L 149.23792195495793,40 L 149.256577162498,40 L 150.76225491227308,40 L 150.78997787679225,40 L 150.81829221676662,40 L 152.3076444198856,40 L 152.33647845344177,40 L 152.37192513981472,40 L 153.86233465056569,40 L 153.89258440112053,40 L 153.91410688359474,40 L 155.40962372782207,40 L 155.433834280547,40 L 155.46347473517835,40 L 156.9604968987461,40 L 157.01536937279764,40 L 158.50454237123327,40 L 158.5342186668013,40 L 158.5615653014854,40 L 160.05455535967704,40 L 160.08263673356302,40 L 160.11195461976428,40 L 161.60351104048888,40 L 161.6321479488933,40 L 161.6643689509654,40 L 163.15112268617537,40 L 163.18126491392022,40 L 163.2122314832086,40 L 164.70212130037774,40 L 164.73169007313578,40 L 164.75987896983176,40 L 166.25258230053,40 L 166.27385389644743,40 L 166.30329722592708,40 L 167.79546294257517,40 L 167.82282749772762,40 L 167.8545467266862,40 L 169.3444903052604,40 L 169.37169357619777,40 L 169.4016386787909,40 L 170.8929621334271,40 L 170.91873176689742,40 L 170.95050475726103,40 L 172.4425091896941,40 L 172.4682788231644,40 L 172.49216680745923,40 L 173.9961421127422,40 L 174.0180946864565,40 L 174.05004688150348,40 L 175.53975749398924,40 L 175.5650253543461,40 L 175.59344721713046,40 L 177.0873512192074,40 L 177.10960844088342,40 L 177.14326308042254,40 L 178.63408476194527,40 L 178.66021280478236,40 L 178.6922725226394,40 L 180.18069286140482,40 L 180.20506469834478,40 L 180.23974080457918,40 L 181.72491753857537,40 L 181.7564038014456,40 L 181.7887323263277,40 L 183.27869382537017,40 L 183.30383624244868,40 L 183.33333333333334,40" fill="none" stroke="none"/>
  </g>
  <!-- 📊 Total Contributions Chart -->
  <g transform="translate(526.6666666666667, 250)">
    <!-- Chart Background -->
    <rect x="0" y="0" width="213.33333333333334" height="200" fill="#ffffff" stroke="#e2e8f0" stroke-width="1" rx="8" filter="url(#shadow)">
      <animate attributeName="opacity" values="0;1" dur="0.5s" begin="2.8s" fill="freeze"/>
    </rect>
    
    <!-- Chart Title -->
    <text x="106.66666666666667" y="25" text-anchor="middle" fill="#1e293b" font-size="14" font-weight="bold" font-family="Arial, sans-serif">
      📊 Total Contributions
      <animate attributeName="opacity" values="0;1" dur="0.5s" begin="3s" fill="freeze"/>
    </text>
    
    <!-- Y-axis labels -->
    <text x="10" y="45" fill="#64748b" font-size="10" font-family="Arial, sans-serif">4,408
      <animate attributeName="opacity" values="0;1" dur="0.5s" begin="3.1999999999999997s" fill="freeze"/>
    </text>
    <text x="10" y="185" fill="#64748b" font-size="10" font-family="Arial, sans-serif">2,598
      <animate attributeName="opacity" values="0;1" dur="0.5s" begin="3.1999999999999997s" fill="freeze"/>
    </text>
    
    <!-- Chart Line with draw animation that follows the circle -->
    <path d="M 30,160 L 30.02501697380012,160 L 30.057399260087237,160 L 31.543525778905366,160 L 31.567360001795162,160 L 31.59519048912438,160 L 33.09500824575289,160 L 33.12239072137365,160 L 33.158661749290154,160 L 34.64251236862933,160 L 34.67048621970525,160 L 34.70473223469954,160 L 36.18526756739615,160 L 36.210911757588114,160 L 36.24476352227896,160 L 37.730298665641925,160 L 37.76303936129581,160 L 37.795726295544675,160 L 39.284755930233594,160 L 39.310722688855634,160 L 39.341993906105785,160 L 40.83428506603225,160 L 40.860287665590974,160 L 40.89168432611949,160 L 42.37931616427802,160 L 42.4089566189094,160 L 42.44019199522287,160 L 43.93262651889604,160 L 43.96083333606036,160 L 43.99429085044777,160 L 45.481976450011324,160 L 45.507781924418325,160 L 45.54399919092981,160 L 47.02575311547342,160 L 47.05128978285535,160 L 47.08189794277698,160 L 48.573776931931675,160 L 48.59956448587033,160 L 48.630728180310456,160 L 50.1238078408438,160 L 50.145276561912965,160 L 50.17604600604964,160 L 51.672010861985434,160 L 51.69706367672224,160 L 51.7178334995262,160 L 53.218260552078206,160 L 53.242130615904685,160 L 53.27232660505454,160 L 54.76270027486882,160 L 54.79859497295023,160 L 54.831120622984045,160 L 56.317623471637276,160 L 56.34428912852451,160 L 56.37552450483798,160 L 57.866274504487365,160 L 57.89234878591944,160 L 57.9175270439346,160 L 59.416287492931154,160 L 59.43865223741722,160 L 59.464690677912614,160 L 60.96031504494999,160 L 60.98581587139524,160 L 61.014524461673034,160 L 62.511134454469,160 L 62.53335583520836,160 L 62.56414319981338,160 L 64.04842391039267,160 L 64.08202478852678,160 L 64.11297343734685,160 L 65.60818563361244,160 L 65.63693006482691,160 L 65.66614042821817,160 L 67.15739220098101,160 L 67.18733730357414,160 L 67.22102778404994,160 L 68.70081045707636,160 L 68.72595287415484,160 L 68.75473314630597,160 L 70.24951525133145,160 L 70.26822422027652,160 L 70.3011441206138,160 L 71.7989368643201,160 L 71.82153457489454,160 L 71.85226817809455,160 L 73.34893193229553,160 L 73.37156548380668,160 L 73.39846410678231,160 L 74.8946619288065,80.1767955801105 L 74.91761804874773,80.1767955801105 L 74.94707929869573,80.1767955801105 L 76.44447779209857,80.1767955801105 L 76.46829409452003,80.1767955801105 L 76.5015007223507,80.1767955801105 L 77.98395354515951,80.1767955801105 L 78.01728561626855,80.1767955801105 L 78.0499187891124,80.1767955801105 L 79.54177985779876,80.1767955801105 L 79.55928815536517,80.1767955801105 L 79.5891436556166,80.1767955801105 L 81.08731272915799,80.1767955801105 L 81.11181000937631,80.1767955801105 L 81.14403101144838,80.1767955801105 L 82.62933318872294,80.1767955801105 L 82.66148250892167,80.1767955801105 L 82.6902090196678,80.1767955801105 L 84.18454311298481,80.1767955801105 L 84.20982889381001,80.1767955801105 L 84.23758769926587,80.1767955801105 L 85.73066735979921,80.1767955801105 L 85.75546928797928,80.1767955801105 L 85.78054002318441,80.1767955801105 L 85.82026970149019,80.1767955801105 L 87.28458701034074,80.1767955801105 L 87.3107508941145,80.1767955801105 L 87.33795416505188,80.1767955801105 L 88.83185816712879,80.1767955801105 L 88.8579503690292,80.1767955801105 L 88.88646183415526,80.1767955801105 L 90.37939813094191,80.1767955801105 L 90.40341155851507,80.1767955801105 L 90.4308119546042,80.1767955801105 L 91.923174796404,80.1767955801105 L 91.9520267504285,80.1767955801105 L 93.4823809851053,80.1767955801105 L 93.49990720314005,80.1767955801105 L 93.52771977000091,80.1767955801105 L 95.02300364813986,80.1767955801105 L 95.04768013304157,80.1767955801105 L 95.07818077015317,80.1767955801105 L 96.57095578272477,80.1767955801105 L 96.5950408921713,80.1767955801105 L 96.62211871983031,80.1767955801105 L 98.12199023786383,80.1767955801105 L 98.14783155320751,80.1767955801105 L 98.18021383949463,80.1767955801105 L 99.67193154443427,80.1767955801105 L 99.69977995223182,80.1767955801105 L 99.72648145005574,80.1767955801105 L 101.22284055629497,80.1767955801105 L 101.23997252402629,80.1767955801105 L 101.26898576226583,80.1767955801105 L 102.76579288021351,80.1767955801105 L 102.78819346563627,80.1767955801105 L 102.81389141723322,80.1767955801105 L 104.31379877620343,80.1767955801105 L 104.33467612181742,80.1767955801105 L 104.36634158937102,80.1767955801105 L 105.86144626282658,80.1767955801105 L 105.88434862136279,80.1767955801105 L 105.91420412161422,80.1767955801105 L 107.40681784997079,80.1767955801105 L 107.42887794649509,80.1767955801105 L 107.46136775559224,80.1767955801105 L 108.95417860910051,80.1767955801105 L 108.98656089538764,80.1767955801105 L 109.0196241594716,80.1767955801105 L 110.50775777074361,80.1767955801105 L 110.5315382322284,80.1767955801105 L 110.56144749388484,80.1767955801105 L 112.05569198486016,80.1767955801105 L 112.07913195744652,80.1767955801105 L 112.10904121910298,80.1767955801105 L 113.60475518848205,80.1767955801105 L 113.63554255308705,80.1767955801105 L 113.67192110381359,80.1767955801105 L 115.15349582367382,80.1767955801105 L 115.17586056815989,80.1767955801105 L 115.20446163562764,80.1767955801105 L 116.70347297118093,80.1767955801105 L 116.72245074715109,80.1767955801105 L 116.7523958497442,80.1767955801105 L 118.24671202259289,80.1767955801105 L 118.26904092614228,80.1767955801105 L 118.29755239126834,80.1767955801105 L 118.3365652508406,80.1767955801105 L 119.79914427426233,80.1767955801105 L 119.82894601310875,80.1767955801105 L 119.85853270633511,80.1767955801105 L 121.3436556789263,80.1767955801105 L 121.37094855220536,80.1767955801105 L 121.39946001733144,80.1767955801105 L 122.8946542931287,80.1767955801105 L 122.9099942140262,80.1767955801105 L 122.94599643491762,80.1767955801105 L 124.44133407446157,80.1767955801105 L 124.4667811395018,80.1767955801105 L 124.48769432605248,80.1767955801105 L 125.99082736932357,80.1767955801105 L 126.01487663783341,80.1767955801105 L 126.0441407626297,80.1767955801105 L 127.53999809575545,80.1767955801105 L 127.56569604735243,80.1767955801105 L 127.59386702358007,80.1767955801105 L 129.0869466841134,80.1767955801105 L 129.10735809755062,80.1767955801105 L 129.1388802013575,80.1767955801105 L 130.6380707415942,80.1767955801105 L 130.66011291765017,80.1767955801105 L 130.69102572553356,80.1767955801105 L 132.18530605744553,80.1767955801105 L 132.2109860885742,80.1767955801105 L 132.2419168169259,80.1767955801105 L 133.73273849844864,80.1767955801105 L 133.75752250616037,80.1767955801105 L 133.77607019089038,80.1767955801105 L 135.27803840371948,80.1767955801105 L 135.31309083978897,80.1767955801105 L 135.33676377846376,80.1767955801105 L 136.82971799571874,80.1767955801105 L 136.85378518469693,80.1767955801105 L 138.4039236164191,80.1767955801105 L 138.43033838674958,80.1767955801105 L 139.92282667182775,80.1767955801105 L 139.94605159879407,80.1767955801105 L 139.97370288143992,80.1767955801105 L 141.47461378663704,80.1767955801105 L 141.5035015815982,80.1767955801105 L 141.53106326190235,80.1767955801105 L 143.02296017152537,80.1767955801105 L 143.05265438756174,80.1767955801105 L 143.08163178486464,80.1767955801105 L 144.57395878572777,80.1767955801105 L 144.6016638297786,80.1767955801105 L 144.62549805266843,80.1767955801105 L 146.11791465587325,80.1767955801105 L 146.14624691631593,40 L 146.17533183642882,40 L 147.69461122167263,40 L 147.72052421888964,40 L 149.2100735471604,40 L 149.23792195495793,40 L 149.256577162498,40 L 150.76225491227308,40 L 150.78997787679225,40 L 150.81829221676662,40 L 152.3076444198856,40 L 152.33647845344177,40 L 152.37192513981472,40 L 153.86233465056569,40 L 153.89258440112053,40 L 153.91410688359474,40 L 155.40962372782207,40 L 155.433834280547,40 L 155.46347473517835,40 L 156.9604968987461,40 L 157.01536937279764,40 L 158.50454237123327,40 L 158.5342186668013,40 L 158.5615653014854,40 L 160.05455535967704,40 L 160.08263673356302,40 L 160.11195461976428,40 L 161.60351104048888,40 L 161.6321479488933,40 L 161.6643689509654,40 L 163.15112268617537,40 L 163.18126491392022,40 L 163.2122314832086,40 L 164.70212130037774,40 L 164.73169007313578,40 L 164.75987896983176,40 L 166.25258230053,40 L 166.27385389644743,40 L 166.30329722592708,40 L 167.79546294257517,40 L 167.82282749772762,40 L 167.8545467266862,40 L 169.3444903052604,40 L 169.37169357619777,40 L 169.4016386787909,40 L 170.8929621334271,40 L 170.91873176689742,40 L 170.95050475726103,40 L 172.4425091896941,40 L 172.4682788231644,40 L 172.49216680745923,40 L 173.9961421127422,40 L 174.0180946864565,40 L 174.05004688150348,40 L 175.53975749398924,40 L 175.5650253543461,40 L 175.59344721713046,40 L 177.0873512192074,40 L 177.10960844088342,40 L 177.14326308042254,40 L 178.63408476194527,40 L 178.66021280478236,40 L 178.6922725226394,40 L 180.18069286140482,40 L 180.20506469834478,40 L 180.23974080457918,40 L 181.72491753857537,40 L 181.7564038014456,40 L 181.7887323263277,40 L 183.27869382537017,40 L 183.30383624244868,40 L 183.33333333333334,40" stroke="#f59e0b" stroke-width="2" fill="none" stroke-dasharray="14850" stroke-dashoffset="14850">
      <animate attributeName="stroke-dashoffset" values="14850;0" dur="3s" begin="3.5999999999999996s" fill="freeze"/>
    </path>
    
    <!-- Glow effect for the line that also follows the circle -->
    <path d="M 30,160 L 30.02501697380012,160 L 30.057399260087237,160 L 31.543525778905366,160 L 31.567360001795162,160 L 31.59519048912438,160 L 33.09500824575289,160 L 33.12239072137365,160 L 33.158661749290154,160 L 34.64251236862933,160 L 34.67048621970525,160 L 34.70473223469954,160 L 36.18526756739615,160 L 36.210911757588114,160 L 36.24476352227896,160 L 37.730298665641925,160 L 37.76303936129581,160 L 37.795726295544675,160 L 39.284755930233594,160 L 39.310722688855634,160 L 39.341993906105785,160 L 40.83428506603225,160 L 40.860287665590974,160 L 40.89168432611949,160 L 42.37931616427802,160 L 42.4089566189094,160 L 42.44019199522287,160 L 43.93262651889604,160 L 43.96083333606036,160 L 43.99429085044777,160 L 45.481976450011324,160 L 45.507781924418325,160 L 45.54399919092981,160 L 47.02575311547342,160 L 47.05128978285535,160 L 47.08189794277698,160 L 48.573776931931675,160 L 48.59956448587033,160 L 48.630728180310456,160 L 50.1238078408438,160 L 50.145276561912965,160 L 50.17604600604964,160 L 51.672010861985434,160 L 51.69706367672224,160 L 51.7178334995262,160 L 53.218260552078206,160 L 53.242130615904685,160 L 53.27232660505454,160 L 54.76270027486882,160 L 54.79859497295023,160 L 54.831120622984045,160 L 56.317623471637276,160 L 56.34428912852451,160 L 56.37552450483798,160 L 57.866274504487365,160 L 57.89234878591944,160 L 57.9175270439346,160 L 59.416287492931154,160 L 59.43865223741722,160 L 59.464690677912614,160 L 60.96031504494999,160 L 60.98581587139524,160 L 61.014524461673034,160 L 62.511134454469,160 L 62.53335583520836,160 L 62.56414319981338,160 L 64.04842391039267,160 L 64.08202478852678,160 L 64.11297343734685,160 L 65.60818563361244,160 L 65.63693006482691,160 L 65.66614042821817,160 L 67.15739220098101,160 L 67.18733730357414,160 L 67.22102778404994,160 L 68.70081045707636,160 L 68.72595287415484,160 L 68.75473314630597,160 L 70.24951525133145,160 L 70.26822422027652,160 L 70.3011441206138,160 L 71.7989368643201,160 L 71.82153457489454,160 L 71.85226817809455,160 L 73.34893193229553,160 L 73.37156548380668,160 L 73.39846410678231,160 L 74.8946619288065,80.1767955801105 L 74.91761804874773,80.1767955801105 L 74.94707929869573,80.1767955801105 L 76.44447779209857,80.1767955801105 L 76.46829409452003,80.1767955801105 L 76.5015007223507,80.1767955801105 L 77.98395354515951,80.1767955801105 L 78.01728561626855,80.1767955801105 L 78.0499187891124,80.1767955801105 L 79.54177985779876,80.1767955801105 L 79.55928815536517,80.1767955801105 L 79.5891436556166,80.1767955801105 L 81.08731272915799,80.1767955801105 L 81.11181000937631,80.1767955801105 L 81.14403101144838,80.1767955801105 L 82.62933318872294,80.1767955801105 L 82.66148250892167,80.1767955801105 L 82.6902090196678,80.1767955801105 L 84.18454311298481,80.1767955801105 L 84.20982889381001,80.1767955801105 L 84.23758769926587,80.1767955801105 L 85.73066735979921,80.1767955801105 L 85.75546928797928,80.1767955801105 L 85.78054002318441,80.1767955801105 L 85.82026970149019,80.1767955801105 L 87.28458701034074,80.1767955801105 L 87.3107508941145,80.1767955801105 L 87.33795416505188,80.1767955801105 L 88.83185816712879,80.1767955801105 L 88.8579503690292,80.1767955801105 L 88.88646183415526,80.1767955801105 L 90.37939813094191,80.1767955801105 L 90.40341155851507,80.1767955801105 L 90.4308119546042,80.1767955801105 L 91.923174796404,80.1767955801105 L 91.9520267504285,80.1767955801105 L 93.4823809851053,80.1767955801105 L 93.49990720314005,80.1767955801105 L 93.52771977000091,80.1767955801105 L 95.02300364813986,80.1767955801105 L 95.04768013304157,80.1767955801105 L 95.07818077015317,80.1767955801105 L 96.57095578272477,80.1767955801105 L 96.5950408921713,80.1767955801105 L 96.62211871983031,80.1767955801105 L 98.12199023786383,80.1767955801105 L 98.14783155320751,80.1767955801105 L 98.18021383949463,80.1767955801105 L 99.67193154443427,80.1767955801105 L 99.69977995223182,80.1767955801105 L 99.72648145005574,80.1767955801105 L 101.22284055629497,80.1767955801105 L 101.23997252402629,80.1767955801105 L 101.26898576226583,80.1767955801105 L 102.76579288021351,80.1767955801105 L 102.78819346563627,80.1767955801105 L 102.81389141723322,80.1767955801105 L 104.31379877620343,80.1767955801105 L 104.33467612181742,80.1767955801105 L 104.36634158937102,80.1767955801105 L 105.86144626282658,80.1767955801105 L 105.88434862136279,80.1767955801105 L 105.91420412161422,80.1767955801105 L 107.40681784997079,80.1767955801105 L 107.42887794649509,80.1767955801105 L 107.46136775559224,80.1767955801105 L 108.95417860910051,80.1767955801105 L 108.98656089538764,80.1767955801105 L 109.0196241594716,80.1767955801105 L 110.50775777074361,80.1767955801105 L 110.5315382322284,80.1767955801105 L 110.56144749388484,80.1767955801105 L 112.05569198486016,80.1767955801105 L 112.07913195744652,80.1767955801105 L 112.10904121910298,80.1767955801105 L 113.60475518848205,80.1767955801105 L 113.63554255308705,80.1767955801105 L 113.67192110381359,80.1767955801105 L 115.15349582367382,80.1767955801105 L 115.17586056815989,80.1767955801105 L 115.20446163562764,80.1767955801105 L 116.70347297118093,80.1767955801105 L 116.72245074715109,80.1767955801105 L 116.7523958497442,80.1767955801105 L 118.24671202259289,80.1767955801105 L 118.26904092614228,80.1767955801105 L 118.29755239126834,80.1767955801105 L 118.3365652508406,80.1767955801105 L 119.79914427426233,80.1767955801105 L 119.82894601310875,80.1767955801105 L 119.85853270633511,80.1767955801105 L 121.3436556789263,80.1767955801105 L 121.37094855220536,80.1767955801105 L 121.39946001733144,80.1767955801105 L 122.8946542931287,80.1767955801105 L 122.9099942140262,80.1767955801105 L 122.94599643491762,80.1767955801105 L 124.44133407446157,80.1767955801105 L 124.4667811395018,80.1767955801105 L 124.48769432605248,80.1767955801105 L 125.99082736932357,80.1767955801105 L 126.01487663783341,80.1767955801105 L 126.0441407626297,80.1767955801105 L 127.53999809575545,80.1767955801105 L 127.56569604735243,80.1767955801105 L 127.59386702358007,80.1767955801105 L 129.0869466841134,80.1767955801105 L 129.10735809755062,80.1767955801105 L 129.1388802013575,80.1767955801105 L 130.6380707415942,80.1767955801105 L 130.66011291765017,80.1767955801105 L 130.69102572553356,80.1767955801105 L 132.18530605744553,80.1767955801105 L 132.2109860885742,80.1767955801105 L 132.2419168169259,80.1767955801105 L 133.73273849844864,80.1767955801105 L 133.75752250616037,80.1767955801105 L 133.77607019089038,80.1767955801105 L 135.27803840371948,80.1767955801105 L 135.31309083978897,80.1767955801105 L 135.33676377846376,80.1767955801105 L 136.82971799571874,80.1767955801105 L 136.85378518469693,80.1767955801105 L 138.4039236164191,80.1767955801105 L 138.43033838674958,80.1767955801105 L 139.92282667182775,80.1767955801105 L 139.94605159879407,80.1767955801105 L 139.97370288143992,80.1767955801105 L 141.47461378663704,80.1767955801105 L 141.5035015815982,80.1767955801105 L 141.53106326190235,80.1767955801105 L 143.02296017152537,80.1767955801105 L 143.05265438756174,80.1767955801105 L 143.08163178486464,80.1767955801105 L 144.57395878572777,80.1767955801105 L 144.6016638297786,80.1767955801105 L 144.62549805266843,80.1767955801105 L 146.11791465587325,80.1767955801105 L 146.14624691631593,40 L 146.17533183642882,40 L 147.69461122167263,40 L 147.72052421888964,40 L 149.2100735471604,40 L 149.23792195495793,40 L 149.256577162498,40 L 150.76225491227308,40 L 150.78997787679225,40 L 150.81829221676662,40 L 152.3076444198856,40 L 152.33647845344177,40 L 152.37192513981472,40 L 153.86233465056569,40 L 153.89258440112053,40 L 153.91410688359474,40 L 155.40962372782207,40 L 155.433834280547,40 L 155.46347473517835,40 L 156.9604968987461,40 L 157.01536937279764,40 L 158.50454237123327,40 L 158.5342186668013,40 L 158.5615653014854,40 L 160.05455535967704,40 L 160.08263673356302,40 L 160.11195461976428,40 L 161.60351104048888,40 L 161.6321479488933,40 L 161.6643689509654,40 L 163.15112268617537,40 L 163.18126491392022,40 L 163.2122314832086,40 L 164.70212130037774,40 L 164.73169007313578,40 L 164.75987896983176,40 L 166.25258230053,40 L 166.27385389644743,40 L 166.30329722592708,40 L 167.79546294257517,40 L 167.82282749772762,40 L 167.8545467266862,40 L 169.3444903052604,40 L 169.37169357619777,40 L 169.4016386787909,40 L 170.8929621334271,40 L 170.91873176689742,40 L 170.95050475726103,40 L 172.4425091896941,40 L 172.4682788231644,40 L 172.49216680745923,40 L 173.9961421127422,40 L 174.0180946864565,40 L 174.05004688150348,40 L 175.53975749398924,40 L 175.5650253543461,40 L 175.59344721713046,40 L 177.0873512192074,40 L 177.10960844088342,40 L 177.14326308042254,40 L 178.63408476194527,40 L 178.66021280478236,40 L 178.6922725226394,40 L 180.18069286140482,40 L 180.20506469834478,40 L 180.23974080457918,40 L 181.72491753857537,40 L 181.7564038014456,40 L 181.7887323263277,40 L 183.27869382537017,40 L 183.30383624244868,40 L 183.33333333333334,40" stroke="#f59e0b" stroke-width="4" fill="none" opacity="0.4" stroke-dasharray="14850" stroke-dashoffset="14850">
      <animate attributeName="stroke-dashoffset" values="14850;0" dur="3s" begin="3.5999999999999996s" fill="freeze"/>
    </path>
    
    <!-- Animated circle that moves along the path and draws the line -->
    <circle r="5" fill="#f59e0b" opacity="0" filter="url(#trailGlow)">
      <animate attributeName="opacity" values="0;1;1;1" dur="3.2s" begin="3.4s" fill="freeze"/>
      <animate attributeName="r" values="5;6;5" dur="1s" begin="3.4s" repeatCount="3"/>
      <animateMotion dur="3s" begin="3.4s" fill="freeze">
        <mpath href="#path_totalContributions_526.6666666666667"/>
      </animateMotion>
    </circle>
    
    <!-- Small trail dots that fade out -->
    <circle r="2" fill="#f59e0b" opacity="0">
      <animate attributeName="opacity" values="0;0.6;0" dur="0.8s" begin="3.8s" fill="freeze"/>
      <animateMotion dur="3s" begin="3.4s" fill="freeze">
        <mpath href="#path_totalContributions_526.6666666666667"/>
      </animateMotion>
    </circle>
    
    <!-- Hidden path for motion animation -->
    <path id="path_totalContributions_526.6666666666667" d="M 30,160 L 30.02501697380012,160 L 30.057399260087237,160 L 31.543525778905366,160 L 31.567360001795162,160 L 31.59519048912438,160 L 33.09500824575289,160 L 33.12239072137365,160 L 33.158661749290154,160 L 34.64251236862933,160 L 34.67048621970525,160 L 34.70473223469954,160 L 36.18526756739615,160 L 36.210911757588114,160 L 36.24476352227896,160 L 37.730298665641925,160 L 37.76303936129581,160 L 37.795726295544675,160 L 39.284755930233594,160 L 39.310722688855634,160 L 39.341993906105785,160 L 40.83428506603225,160 L 40.860287665590974,160 L 40.89168432611949,160 L 42.37931616427802,160 L 42.4089566189094,160 L 42.44019199522287,160 L 43.93262651889604,160 L 43.96083333606036,160 L 43.99429085044777,160 L 45.481976450011324,160 L 45.507781924418325,160 L 45.54399919092981,160 L 47.02575311547342,160 L 47.05128978285535,160 L 47.08189794277698,160 L 48.573776931931675,160 L 48.59956448587033,160 L 48.630728180310456,160 L 50.1238078408438,160 L 50.145276561912965,160 L 50.17604600604964,160 L 51.672010861985434,160 L 51.69706367672224,160 L 51.7178334995262,160 L 53.218260552078206,160 L 53.242130615904685,160 L 53.27232660505454,160 L 54.76270027486882,160 L 54.79859497295023,160 L 54.831120622984045,160 L 56.317623471637276,160 L 56.34428912852451,160 L 56.37552450483798,160 L 57.866274504487365,160 L 57.89234878591944,160 L 57.9175270439346,160 L 59.416287492931154,160 L 59.43865223741722,160 L 59.464690677912614,160 L 60.96031504494999,160 L 60.98581587139524,160 L 61.014524461673034,160 L 62.511134454469,160 L 62.53335583520836,160 L 62.56414319981338,160 L 64.04842391039267,160 L 64.08202478852678,160 L 64.11297343734685,160 L 65.60818563361244,160 L 65.63693006482691,160 L 65.66614042821817,160 L 67.15739220098101,160 L 67.18733730357414,160 L 67.22102778404994,160 L 68.70081045707636,160 L 68.72595287415484,160 L 68.75473314630597,160 L 70.24951525133145,160 L 70.26822422027652,160 L 70.3011441206138,160 L 71.7989368643201,160 L 71.82153457489454,160 L 71.85226817809455,160 L 73.34893193229553,160 L 73.37156548380668,160 L 73.39846410678231,160 L 74.8946619288065,80.1767955801105 L 74.91761804874773,80.1767955801105 L 74.94707929869573,80.1767955801105 L 76.44447779209857,80.1767955801105 L 76.46829409452003,80.1767955801105 L 76.5015007223507,80.1767955801105 L 77.98395354515951,80.1767955801105 L 78.01728561626855,80.1767955801105 L 78.0499187891124,80.1767955801105 L 79.54177985779876,80.1767955801105 L 79.55928815536517,80.1767955801105 L 79.5891436556166,80.1767955801105 L 81.08731272915799,80.1767955801105 L 81.11181000937631,80.1767955801105 L 81.14403101144838,80.1767955801105 L 82.62933318872294,80.1767955801105 L 82.66148250892167,80.1767955801105 L 82.6902090196678,80.1767955801105 L 84.18454311298481,80.1767955801105 L 84.20982889381001,80.1767955801105 L 84.23758769926587,80.1767955801105 L 85.73066735979921,80.1767955801105 L 85.75546928797928,80.1767955801105 L 85.78054002318441,80.1767955801105 L 85.82026970149019,80.1767955801105 L 87.28458701034074,80.1767955801105 L 87.3107508941145,80.1767955801105 L 87.33795416505188,80.1767955801105 L 88.83185816712879,80.1767955801105 L 88.8579503690292,80.1767955801105 L 88.88646183415526,80.1767955801105 L 90.37939813094191,80.1767955801105 L 90.40341155851507,80.1767955801105 L 90.4308119546042,80.1767955801105 L 91.923174796404,80.1767955801105 L 91.9520267504285,80.1767955801105 L 93.4823809851053,80.1767955801105 L 93.49990720314005,80.1767955801105 L 93.52771977000091,80.1767955801105 L 95.02300364813986,80.1767955801105 L 95.04768013304157,80.1767955801105 L 95.07818077015317,80.1767955801105 L 96.57095578272477,80.1767955801105 L 96.5950408921713,80.1767955801105 L 96.62211871983031,80.1767955801105 L 98.12199023786383,80.1767955801105 L 98.14783155320751,80.1767955801105 L 98.18021383949463,80.1767955801105 L 99.67193154443427,80.1767955801105 L 99.69977995223182,80.1767955801105 L 99.72648145005574,80.1767955801105 L 101.22284055629497,80.1767955801105 L 101.23997252402629,80.1767955801105 L 101.26898576226583,80.1767955801105 L 102.76579288021351,80.1767955801105 L 102.78819346563627,80.1767955801105 L 102.81389141723322,80.1767955801105 L 104.31379877620343,80.1767955801105 L 104.33467612181742,80.1767955801105 L 104.36634158937102,80.1767955801105 L 105.86144626282658,80.1767955801105 L 105.88434862136279,80.1767955801105 L 105.91420412161422,80.1767955801105 L 107.40681784997079,80.1767955801105 L 107.42887794649509,80.1767955801105 L 107.46136775559224,80.1767955801105 L 108.95417860910051,80.1767955801105 L 108.98656089538764,80.1767955801105 L 109.0196241594716,80.1767955801105 L 110.50775777074361,80.1767955801105 L 110.5315382322284,80.1767955801105 L 110.56144749388484,80.1767955801105 L 112.05569198486016,80.1767955801105 L 112.07913195744652,80.1767955801105 L 112.10904121910298,80.1767955801105 L 113.60475518848205,80.1767955801105 L 113.63554255308705,80.1767955801105 L 113.67192110381359,80.1767955801105 L 115.15349582367382,80.1767955801105 L 115.17586056815989,80.1767955801105 L 115.20446163562764,80.1767955801105 L 116.70347297118093,80.1767955801105 L 116.72245074715109,80.1767955801105 L 116.7523958497442,80.1767955801105 L 118.24671202259289,80.1767955801105 L 118.26904092614228,80.1767955801105 L 118.29755239126834,80.1767955801105 L 118.3365652508406,80.1767955801105 L 119.79914427426233,80.1767955801105 L 119.82894601310875,80.1767955801105 L 119.85853270633511,80.1767955801105 L 121.3436556789263,80.1767955801105 L 121.37094855220536,80.1767955801105 L 121.39946001733144,80.1767955801105 L 122.8946542931287,80.1767955801105 L 122.9099942140262,80.1767955801105 L 122.94599643491762,80.1767955801105 L 124.44133407446157,80.1767955801105 L 124.4667811395018,80.1767955801105 L 124.48769432605248,80.1767955801105 L 125.99082736932357,80.1767955801105 L 126.01487663783341,80.1767955801105 L 126.0441407626297,80.1767955801105 L 127.53999809575545,80.1767955801105 L 127.56569604735243,80.1767955801105 L 127.59386702358007,80.1767955801105 L 129.0869466841134,80.1767955801105 L 129.10735809755062,80.1767955801105 L 129.1388802013575,80.1767955801105 L 130.6380707415942,80.1767955801105 L 130.66011291765017,80.1767955801105 L 130.69102572553356,80.1767955801105 L 132.18530605744553,80.1767955801105 L 132.2109860885742,80.1767955801105 L 132.2419168169259,80.1767955801105 L 133.73273849844864,80.1767955801105 L 133.75752250616037,80.1767955801105 L 133.77607019089038,80.1767955801105 L 135.27803840371948,80.1767955801105 L 135.31309083978897,80.1767955801105 L 135.33676377846376,80.1767955801105 L 136.82971799571874,80.1767955801105 L 136.85378518469693,80.1767955801105 L 138.4039236164191,80.1767955801105 L 138.43033838674958,80.1767955801105 L 139.92282667182775,80.1767955801105 L 139.94605159879407,80.1767955801105 L 139.97370288143992,80.1767955801105 L 141.47461378663704,80.1767955801105 L 141.5035015815982,80.1767955801105 L 141.53106326190235,80.1767955801105 L 143.02296017152537,80.1767955801105 L 143.05265438756174,80.1767955801105 L 143.08163178486464,80.1767955801105 L 144.57395878572777,80.1767955801105 L 144.6016638297786,80.1767955801105 L 144.62549805266843,80.1767955801105 L 146.11791465587325,80.1767955801105 L 146.14624691631593,40 L 146.17533183642882,40 L 147.69461122167263,40 L 147.72052421888964,40 L 149.2100735471604,40 L 149.23792195495793,40 L 149.256577162498,40 L 150.76225491227308,40 L 150.78997787679225,40 L 150.81829221676662,40 L 152.3076444198856,40 L 152.33647845344177,40 L 152.37192513981472,40 L 153.86233465056569,40 L 153.89258440112053,40 L 153.91410688359474,40 L 155.40962372782207,40 L 155.433834280547,40 L 155.46347473517835,40 L 156.9604968987461,40 L 157.01536937279764,40 L 158.50454237123327,40 L 158.5342186668013,40 L 158.5615653014854,40 L 160.05455535967704,40 L 160.08263673356302,40 L 160.11195461976428,40 L 161.60351104048888,40 L 161.6321479488933,40 L 161.6643689509654,40 L 163.15112268617537,40 L 163.18126491392022,40 L 163.2122314832086,40 L 164.70212130037774,40 L 164.73169007313578,40 L 164.75987896983176,40 L 166.25258230053,40 L 166.27385389644743,40 L 166.30329722592708,40 L 167.79546294257517,40 L 167.82282749772762,40 L 167.8545467266862,40 L 169.3444903052604,40 L 169.37169357619777,40 L 169.4016386787909,40 L 170.8929621334271,40 L 170.91873176689742,40 L 170.95050475726103,40 L 172.4425091896941,40 L 172.4682788231644,40 L 172.49216680745923,40 L 173.9961421127422,40 L 174.0180946864565,40 L 174.05004688150348,40 L 175.53975749398924,40 L 175.5650253543461,40 L 175.59344721713046,40 L 177.0873512192074,40 L 177.10960844088342,40 L 177.14326308042254,40 L 178.63408476194527,40 L 178.66021280478236,40 L 178.6922725226394,40 L 180.18069286140482,40 L 180.20506469834478,40 L 180.23974080457918,40 L 181.72491753857537,40 L 181.7564038014456,40 L 181.7887323263277,40 L 183.27869382537017,40 L 183.30383624244868,40 L 183.33333333333334,40" fill="none" stroke="none"/>
  </g>
  
  <!-- Footer -->
  <text x="400" y="580" text-anchor="middle" fill="#94a3b8" font-size="12" font-family="Arial, sans-serif">
    Generated by GitHub User Rank Tracker • 11/15/2025
    <animate attributeName="opacity" values="0;1" dur="0.5s" begin="5s" fill="freeze"/>
  </text>
</svg>