<svg width="800" height="600" xmlns="http://www.w3.org/2000/svg">
  <defs>
    <linearGradient id="bgGradient" x1="0%" y1="0%" x2="100%" y2="100%">
      <stop offset="0%" style="stop-color:#1e293b;stop-opacity:1" />
      <stop offset="100%" style="stop-color:#0f172a;stop-opacity:1" />
    </linearGradient>
    <filter id="shadow" x="-20%" y="-20%" width="140%" height="140%">
      <feDropShadow dx="2" dy="2" stdDeviation="3" flood-color="#000" flood-opacity="0.3"/>
    </filter>
    <!-- Trail effect filter -->
    <filter id="trailGlow" x="-50%" y="-50%" width="200%" height="200%">
      <feGaussianBlur stdDeviation="3" result="coloredBlur"/>
      <feMerge> 
        <feMergeNode in="coloredBlur"/>
        <feMergeNode in="SourceGraphic"/>
      </feMerge>
    </filter>
  </defs>
  
  <!-- Background -->
  <rect width="800" height="600" fill="url(#bgGradient)" rx="12"/>
  
  <!-- Header -->
  <text x="400" y="40" text-anchor="middle" fill="#f8fafc" font-size="24" font-weight="bold" font-family="Arial, sans-serif">
    GitHub Progress Report
    <animate attributeName="opacity" values="0;1" dur="0.8s" begin="0s" fill="freeze"/>
    <animateTransform attributeName="transform" type="translate" values="0,-20;0,0" dur="0.8s" begin="0s" fill="freeze"/>
  </text>
  
  <!-- User Info -->
  <text x="400" y="70" text-anchor="middle" fill="#cbd5e1" font-size="16" font-family="Arial, sans-serif">
    @maifeeulasad • BANGLADESH • 100 days analyzed
    <animate attributeName="opacity" values="0;1" dur="0.6s" begin="0.3s" fill="freeze"/>
  </text>
  
  <!-- Progress Cards -->
  <!-- Followers Card -->
  <g transform="translate(60, 100)">
    <rect width="206.66666666666666" height="120" fill="#1e293b" stroke="#334155" stroke-width="1" rx="8" filter="url(#shadow)">
      <animate attributeName="opacity" values="0;1" dur="0.6s" begin="0.2s" fill="freeze"/>
      <animateTransform attributeName="transform" type="scale" values="0.8;1" dur="0.6s" begin="0.2s" fill="freeze"/>
    </rect>
    <text x="103.33333333333333" y="25" text-anchor="middle" fill="#94a3b8" font-size="14" font-weight="bold" font-family="Arial, sans-serif">FOLLOWERS
      <animate attributeName="opacity" values="0;1" dur="0.5s" begin="0.4s" fill="freeze"/>
    </text>
    
    <text x="103.33333333333333" y="50" text-anchor="middle" fill="#ef4444" font-size="32" font-weight="bold" font-family="Arial, sans-serif">
      ↘
      <animate attributeName="opacity" values="0;1" dur="0.5s" begin="0.6s" fill="freeze"/>
      <animateTransform attributeName="transform" type="scale" values="0;1.2;1" dur="0.8s" begin="0.6s" fill="freeze"/>
    </text>
    
    <text x="103.33333333333333" y="75" text-anchor="middle" fill="#f8fafc" font-size="18" font-weight="bold" font-family="Arial, sans-serif">
      -14
      <animate attributeName="opacity" values="0;1" dur="0.5s" begin="0.8s" fill="freeze"/>
    </text>
    
    <text x="103.33333333333333" y="95" text-anchor="middle" fill="#94a3b8" font-size="12" font-family="Arial, sans-serif">
      #458 → #472
      <animate attributeName="opacity" values="0;1" dur="0.5s" begin="1s" fill="freeze"/>
    </text>
  </g>
  
  <!-- Public Contributions Card -->
  <g transform="translate(296.66666666666663, 100)">
    <rect width="206.66666666666666" height="120" fill="#1e293b" stroke="#334155" stroke-width="1" rx="8" filter="url(#shadow)">
      <animate attributeName="opacity" values="0;1" dur="0.6s" begin="0.4s" fill="freeze"/>
      <animateTransform attributeName="transform" type="scale" values="0.8;1" dur="0.6s" begin="0.4s" fill="freeze"/>
    </rect>
    <text x="103.33333333333333" y="25" text-anchor="middle" fill="#94a3b8" font-size="14" font-weight="bold" font-family="Arial, sans-serif">PUBLIC
      <animate attributeName="opacity" values="0;1" dur="0.5s" begin="0.6s" fill="freeze"/>
    </text>
    
    <text x="103.33333333333333" y="50" text-anchor="middle" fill="#6b7280" font-size="32" font-weight="bold" font-family="Arial, sans-serif">
      →
      <animate attributeName="opacity" values="0;1" dur="0.5s" begin="0.8s" fill="freeze"/>
      <animateTransform attributeName="transform" type="scale" values="0;1.2;1" dur="0.8s" begin="0.8s" fill="freeze"/>
    </text>
    
    <text x="103.33333333333333" y="75" text-anchor="middle" fill="#f8fafc" font-size="18" font-weight="bold" font-family="Arial, sans-serif">
      0
      <animate attributeName="opacity" values="0;1" dur="0.5s" begin="1s" fill="freeze"/>
    </text>
    
    <text x="103.33333333333333" y="95" text-anchor="middle" fill="#94a3b8" font-size="12" font-family="Arial, sans-serif">
      #6 → #6
      <animate attributeName="opacity" values="0;1" dur="0.5s" begin="1.2s" fill="freeze"/>
    </text>
  </g>
  
  <!-- Total Contributions Card -->
  <g transform="translate(533.3333333333333, 100)">
    <rect width="206.66666666666666" height="120" fill="#1e293b" stroke="#334155" stroke-width="1" rx="8" filter="url(#shadow)">
      <animate attributeName="opacity" values="0;1" dur="0.6s" begin="0.6s" fill="freeze"/>
      <animateTransform attributeName="transform" type="scale" values="0.8;1" dur="0.6s" begin="0.6s" fill="freeze"/>
    </rect>
    <text x="103.33333333333333" y="25" text-anchor="middle" fill="#94a3b8" font-size="14" font-weight="bold" font-family="Arial, sans-serif">TOTAL
      <animate attributeName="opacity" values="0;1" dur="0.5s" begin="0.8s" fill="freeze"/>
    </text>
    
    <text x="103.33333333333333" y="50" text-anchor="middle" fill="#22c55e" font-size="32" font-weight="bold" font-family="Arial, sans-serif">
      ↗
      <animate attributeName="opacity" values="0;1" dur="0.5s" begin="1s" fill="freeze"/>
      <animateTransform attributeName="transform" type="scale" values="0;1.2;1" dur="0.8s" begin="1s" fill="freeze"/>
    </text>
    
    <text x="103.33333333333333" y="75" text-anchor="middle" fill="#f8fafc" font-size="18" font-weight="bold" font-family="Arial, sans-serif">
      +5
      <animate attributeName="opacity" values="0;1" dur="0.5s" begin="1.2s" fill="freeze"/>
    </text>
    
    <text x="103.33333333333333" y="95" text-anchor="middle" fill="#94a3b8" font-size="12" font-family="Arial, sans-serif">
      #18 → #13
      <animate attributeName="opacity" values="0;1" dur="0.5s" begin="1.4s" fill="freeze"/>
    </text>
  </g>
  
  <!-- Timeline Charts (if we have snapshots) -->
  
  <!-- 👥 Followers Count Chart -->
  <g transform="translate(60, 250)">
    <!-- Chart Background -->
    <rect x="0" y="0" width="213.33333333333334" height="200" fill="#0f172a" stroke="#334155" stroke-width="1" rx="8" filter="url(#shadow)">
      <animate attributeName="opacity" values="0;1" dur="0.5s" begin="1.8s" fill="freeze"/>
    </rect>
    
    <!-- Chart Title -->
    <text x="106.66666666666667" y="25" text-anchor="middle" fill="#f8fafc" font-size="14" font-weight="bold" font-family="Arial, sans-serif">
      👥 Followers Count
      <animate attributeName="opacity" values="0;1" dur="0.5s" begin="2s" fill="freeze"/>
    </text>
    
    <!-- Y-axis labels -->
    <text x="10" y="45" fill="#94a3b8" font-size="10" font-family="Arial, sans-serif">153
      <animate attributeName="opacity" values="0;1" dur="0.5s" begin="2.2s" fill="freeze"/>
    </text>
    <text x="10" y="185" fill="#94a3b8" font-size="10" font-family="Arial, sans-serif">149
      <animate attributeName="opacity" values="0;1" dur="0.5s" begin="2.2s" fill="freeze"/>
    </text>
    
    <!-- Chart Line with draw animation that follows the circle -->
    <path d="M 30,160 L 30.024206662717784,160 L 30.053842354897814,160 L 31.55062398587907,160 L 31.60548764334899,160 L 33.09442137035512,160 L 33.12409289771312,160 L 33.15143513850316,160 L 34.64418531196295,160 L 34.672262173901345,160 L 34.701575349479654,160 L 36.1928921158207,160 L 36.221524423017605,160 L 36.25374024801137,160 L 37.740255100504626,160 L 37.77039248517622,160 L 37.80135407894108,160 L 39.291004509506585,160 L 39.32056853133068,160 L 39.34875289880298,160 L 40.84121639083902,160 L 40.86248456896338,160 L 40.89192316766458,160 L 42.38384913203109,160 L 42.41120929041011,160 L 42.44292342291232,160 L 43.93262760624478,160 L 43.95982650632294,160 L 43.989766797515706,160 L 45.48085063519996,160 L 45.50661612815937,160 L 45.538384013428534,160 L 47.030148719494186,160 L 47.05591421245361,160 L 47.079798358569676,160 L 48.58353201407684,160 L 48.605481060582605,160 L 48.63742812174161,160 L 50.12689937641727,160 L 50.152163176885125,160 L 50.180580473014224,160 L 51.67424444351221,160 L 51.69649808903071,160 L 51.73014732114322,160 L 53.22072946633591,160 L 53.246853311075014,160 L 53.27890787776792,160 L 54.76708906603672,160 L 54.79145698705536,160 L 54.82612752173998,160 L 56.31106562640261,160 L 56.342546830248025,160 L 56.3748701607757,160 L 57.86459226169714,160 L 57.889730639042114,160 L 57.919222990510264,160 L 59.41475039026262,160 L 59.44189553757383,160 L 59.47488181889392,160 L 60.960214110514215,160 L 60.99192824301642,160 L 61.026975047069705,160 L 62.511357706473824,160 L 62.53547478124669,160 L 62.56702765544804,160 L 64.0604945324672,160 L 64.08290943628656,160 L 64.11453398084385,160 L 65.60516987880348,160 L 65.62989615160181,160 L 65.66085774536668,160 L 67.15382292989429,160 L 67.18189979183268,160 L 68.70437524541741,160 L 68.7301765735548,160 L 68.75463408251836,160 L 70.2531537196311,160 L 70.28287899975606,160 L 70.31667157258043,160 L 71.79139665152202,160 L 71.82764393403725,160 L 71.85855177503517,160 L 73.34581916626576,160 L 73.36522391513576,160 L 73.40200872532051,160 L 74.89440054700063,160 L 74.9219219636805,160 L 74.95243561772077,160 L 76.44477368663391,160 L 76.47077210825013,160 L 76.49829352493,160 L 77.98875024699981,160 L 78.0184217743578,160 L 78.04784245547002,160 L 79.53591613820491,160 L 79.56311503828307,160 L 79.5937899506242,160 L 81.08906650413077,160 L 81.11965182852697,160 L 81.15263810984706,160 L 82.63969049000984,160 L 82.66282209738856,160 L 82.71394097876076,160 L 84.18848688181251,160 L 84.2120126761489,160 L 84.24157669797299,160 L 85.73138838683934,160 L 85.75901730905314,160 L 85.78822297909754,160 L 87.27876928911226,160 L 87.30537690875394,160 L 87.33608765627302,160 L 88.82788819751664,160 L 88.85585755392114,160 L 88.88144387099072,160 L 90.37381777508185,160 L 90.40148253247358,160 L 90.43054486180611,160 L 91.9287957350841,160 L 91.95794765236154,160 L 91.98842547122383,160 L 93.47101637172952,160 L 93.50032954730784,130 L 93.53073569581419,130 L 95.02536721611733,130 L 95.04618745451708,130 L 95.07451516270125,130 L 96.56765952311869,130 L 96.58758388206924,130 L 96.62565875866088,130 L 98.11794307480706,130 L 98.14673664030484,130 L 98.17108664373448,130 L 99.65996661797368,130 L 99.69259454751408,130 L 99.72434451519426,130 L 101.2151954242217,130 L 101.23019244620157,130 L 101.26858983939492,130 L 102.7629346782743,130 L 102.79291080464503,130 L 102.82788593834239,130 L 104.31094269616167,130 L 104.33740697509148,130 L 104.37324215306008,130 L 105.85617348775646,130 L 105.88618544930517,130 L 105.91947632963799,130 L 107.40771127067374,130 L 107.42957072923458,130 L 107.46060399335538,130 L 108.95143698479386,130 L 108.97634243348203,130 L 109.00846867053087,130 L 110.50241932245261,130 L 110.53180416838686,130 L 110.5574442382234,130 L 112.04933436741193,130 L 112.08215939043116,130 L 112.10507598674208,130 L 113.59942082562148,130 L 113.62830397906416,130 L 113.661559024219,130 L 115.14800220635634,130 L 115.17618657382863,130 L 115.21021207530981,130 L 116.69516809756144,130 L 116.72082608498695,130 L 116.75284481650189,130 L 118.24464535774551,130 L 118.27263263173899,130 L 118.30508138538954,130 L 119.78883692917921,130 L 119.82644594845725,130 L 119.84821581907318,130 L 121.33714954607932,130 L 121.36644480406865,130 L 121.3955967213461,130 L 122.88109027126724,130 L 122.91341360179491,130 L 122.94043332598324,130 L 124.02057726031262,130 L 124.43578154984574,130 L 124.46790778689459,130 L 124.50175411248594,130 L 125.9836820621992,130 L 126.01177684172657,130 L 126.04467353510175,130 L 127.52986248601017,130 L 127.55152485109218,130 L 127.58786172155234,130 L 129.08002061457563,130 L 129.10707617394195,130 L 129.13853946019836,130 L 130.62818989076385,130 L 130.6606744795924,130 L 130.69414453581507,130 L 132.17438823216384,130 L 132.20205298955557,130 L 132.23847944796066,130 L 133.72678605935232,130 L 133.75038352404465,130 L 133.77944585337718,130 L 135.2735577635998,130 L 135.30706365500043,130 L 135.33843735331192,130 L 136.82074157239387,130 L 136.85089687465444,130 L 136.88476111783476,130 L 138.3666353147811,130 L 138.39603807830431,130 L 138.42918561792527,130 L 139.91794016904157,130 L 139.94542575054348,130 L 139.97353844765985,130 L 141.46426393356438,130 L 141.49205411407905,130 L 141.52545249994574,130 L 143.0034385800825,130 L 143.04024130785623,130 L 143.07111331367616,130 L 144.5595991009577,130 L 144.58133313639564,130 L 144.62041139797043,130 L 146.10952430086638,130 L 146.14218806558478,130 L 146.17660775402362,130 L 147.65980785255476,130 L 147.68969439098058,130 L 147.72135477071583,130 L 149.1987137352381,130 L 149.23118040647768,130 L 149.26355748977227,130 L 150.75157741974022,130 L 150.78196565065758,130 L 150.81668993810916,130 L 152.3001408828861,130 L 152.3281102392906,130 L 152.35898224511052,130 L 153.8493493792354,130 L 153.86927373818594,130 L 153.91818875611307,130 L 155.39479518189802,130 L 155.42495048415856,130 L 155.45469368187253,130 L 156.9457416843788,130 L 156.97998219692778,130 L 157.01114088417148,130 L 158.49306883388476,130 L 158.52322413614533,130 L 158.55798425877487,130 L 160.03903424662792,130 L 160.06866993880794,130 L 160.0956717454073,130 L 161.58946113902815,130 L 161.6200822986023,130 L 161.6516172552147,130 L 163.14219940040738,130 L 163.17101088349412,130 L 163.19942817962323,130 L 164.68447378981975,130 L 164.71527412528377,40 L 164.74736452715464,40 L 166.238340859305,40 L 166.25971654296325,40 L 166.28919097684243,40 L 167.78255034832767,40 L 167.8064524120327,40 L 167.84886334515855,40 L 169.33247554823635,40 L 169.36395675208178,40 L 169.39160359188455,40 L 170.87428408033514,40 L 170.90877543912993,40 L 170.94255009436532,40 L 172.4318959259181,40 L 172.44716171173272,40 L 172.48853342469747,40 L 173.9768758712671,40 L 174.00950380080752,40 L 174.04636028134823,40 L 175.5250809826333,40 L 175.55582756533036,40 L 175.59522834350685,40 L 177.0707776315417,40 L 177.10347723143803,40 L 177.14162377838562,40 L 178.62743984490848,40 L 178.66386630331354,40 L 180.16957089360898,40 L 180.24616858651686,40 L 181.71790142809806,40 L 181.7559763046897,40 L 181.79211608167103,40 L 183.26560484697268,40 L 183.30572232870853,40 L 183.33333333333334,40" stroke="#22c55e" stroke-width="2" fill="none" stroke-dasharray="14850" stroke-dashoffset="14850">
      <animate attributeName="stroke-dashoffset" values="14850;0" dur="3s" begin="2.6s" fill="freeze"/>
    </path>
    
    <!-- Glow effect for the line that also follows the circle -->
    <path d="M 30,160 L 30.024206662717784,160 L 30.053842354897814,160 L 31.55062398587907,160 L 31.60548764334899,160 L 33.09442137035512,160 L 33.12409289771312,160 L 33.15143513850316,160 L 34.64418531196295,160 L 34.672262173901345,160 L 34.701575349479654,160 L 36.1928921158207,160 L 36.221524423017605,160 L 36.25374024801137,160 L 37.740255100504626,160 L 37.77039248517622,160 L 37.80135407894108,160 L 39.291004509506585,160 L 39.32056853133068,160 L 39.34875289880298,160 L 40.84121639083902,160 L 40.86248456896338,160 L 40.89192316766458,160 L 42.38384913203109,160 L 42.41120929041011,160 L 42.44292342291232,160 L 43.93262760624478,160 L 43.95982650632294,160 L 43.989766797515706,160 L 45.48085063519996,160 L 45.50661612815937,160 L 45.538384013428534,160 L 47.030148719494186,160 L 47.05591421245361,160 L 47.079798358569676,160 L 48.58353201407684,160 L 48.605481060582605,160 L 48.63742812174161,160 L 50.12689937641727,160 L 50.152163176885125,160 L 50.180580473014224,160 L 51.67424444351221,160 L 51.69649808903071,160 L 51.73014732114322,160 L 53.22072946633591,160 L 53.246853311075014,160 L 53.27890787776792,160 L 54.76708906603672,160 L 54.79145698705536,160 L 54.82612752173998,160 L 56.31106562640261,160 L 56.342546830248025,160 L 56.3748701607757,160 L 57.86459226169714,160 L 57.889730639042114,160 L 57.919222990510264,160 L 59.41475039026262,160 L 59.44189553757383,160 L 59.47488181889392,160 L 60.960214110514215,160 L 60.99192824301642,160 L 61.026975047069705,160 L 62.511357706473824,160 L 62.53547478124669,160 L 62.56702765544804,160 L 64.0604945324672,160 L 64.08290943628656,160 L 64.11453398084385,160 L 65.60516987880348,160 L 65.62989615160181,160 L 65.66085774536668,160 L 67.15382292989429,160 L 67.18189979183268,160 L 68.70437524541741,160 L 68.7301765735548,160 L 68.75463408251836,160 L 70.2531537196311,160 L 70.28287899975606,160 L 70.31667157258043,160 L 71.79139665152202,160 L 71.82764393403725,160 L 71.85855177503517,160 L 73.34581916626576,160 L 73.36522391513576,160 L 73.40200872532051,160 L 74.89440054700063,160 L 74.9219219636805,160 L 74.95243561772077,160 L 76.44477368663391,160 L 76.47077210825013,160 L 76.49829352493,160 L 77.98875024699981,160 L 78.0184217743578,160 L 78.04784245547002,160 L 79.53591613820491,160 L 79.56311503828307,160 L 79.5937899506242,160 L 81.08906650413077,160 L 81.11965182852697,160 L 81.15263810984706,160 L 82.63969049000984,160 L 82.66282209738856,160 L 82.71394097876076,160 L 84.18848688181251,160 L 84.2120126761489,160 L 84.24157669797299,160 L 85.73138838683934,160 L 85.75901730905314,160 L 85.78822297909754,160 L 87.27876928911226,160 L 87.30537690875394,160 L 87.33608765627302,160 L 88.82788819751664,160 L 88.85585755392114,160 L 88.88144387099072,160 L 90.37381777508185,160 L 90.40148253247358,160 L 90.43054486180611,160 L 91.9287957350841,160 L 91.95794765236154,160 L 91.98842547122383,160 L 93.47101637172952,160 L 93.50032954730784,130 L 93.53073569581419,130 L 95.02536721611733,130 L 95.04618745451708,130 L 95.07451516270125,130 L 96.56765952311869,130 L 96.58758388206924,130 L 96.62565875866088,130 L 98.11794307480706,130 L 98.14673664030484,130 L 98.17108664373448,130 L 99.65996661797368,130 L 99.69259454751408,130 L 99.72434451519426,130 L 101.2151954242217,130 L 101.23019244620157,130 L 101.26858983939492,130 L 102.7629346782743,130 L 102.79291080464503,130 L 102.82788593834239,130 L 104.31094269616167,130 L 104.33740697509148,130 L 104.37324215306008,130 L 105.85617348775646,130 L 105.88618544930517,130 L 105.91947632963799,130 L 107.40771127067374,130 L 107.42957072923458,130 L 107.46060399335538,130 L 108.95143698479386,130 L 108.97634243348203,130 L 109.00846867053087,130 L 110.50241932245261,130 L 110.53180416838686,130 L 110.5574442382234,130 L 112.04933436741193,130 L 112.08215939043116,130 L 112.10507598674208,130 L 113.59942082562148,130 L 113.62830397906416,130 L 113.661559024219,130 L 115.14800220635634,130 L 115.17618657382863,130 L 115.21021207530981,130 L 116.69516809756144,130 L 116.72082608498695,130 L 116.75284481650189,130 L 118.24464535774551,130 L 118.27263263173899,130 L 118.30508138538954,130 L 119.78883692917921,130 L 119.82644594845725,130 L 119.84821581907318,130 L 121.33714954607932,130 L 121.36644480406865,130 L 121.3955967213461,130 L 122.88109027126724,130 L 122.91341360179491,130 L 122.94043332598324,130 L 124.02057726031262,130 L 124.43578154984574,130 L 124.46790778689459,130 L 124.50175411248594,130 L 125.9836820621992,130 L 126.01177684172657,130 L 126.04467353510175,130 L 127.52986248601017,130 L 127.55152485109218,130 L 127.58786172155234,130 L 129.08002061457563,130 L 129.10707617394195,130 L 129.13853946019836,130 L 130.62818989076385,130 L 130.6606744795924,130 L 130.69414453581507,130 L 132.17438823216384,130 L 132.20205298955557,130 L 132.23847944796066,130 L 133.72678605935232,130 L 133.75038352404465,130 L 133.77944585337718,130 L 135.2735577635998,130 L 135.30706365500043,130 L 135.33843735331192,130 L 136.82074157239387,130 L 136.85089687465444,130 L 136.88476111783476,130 L 138.3666353147811,130 L 138.39603807830431,130 L 138.42918561792527,130 L 139.91794016904157,130 L 139.94542575054348,130 L 139.97353844765985,130 L 141.46426393356438,130 L 141.49205411407905,130 L 141.52545249994574,130 L 143.0034385800825,130 L 143.04024130785623,130 L 143.07111331367616,130 L 144.5595991009577,130 L 144.58133313639564,130 L 144.62041139797043,130 L 146.10952430086638,130 L 146.14218806558478,130 L 146.17660775402362,130 L 147.65980785255476,130 L 147.68969439098058,130 L 147.72135477071583,130 L 149.1987137352381,130 L 149.23118040647768,130 L 149.26355748977227,130 L 150.75157741974022,130 L 150.78196565065758,130 L 150.81668993810916,130 L 152.3001408828861,130 L 152.3281102392906,130 L 152.35898224511052,130 L 153.8493493792354,130 L 153.86927373818594,130 L 153.91818875611307,130 L 155.39479518189802,130 L 155.42495048415856,130 L 155.45469368187253,130 L 156.9457416843788,130 L 156.97998219692778,130 L 157.01114088417148,130 L 158.49306883388476,130 L 158.52322413614533,130 L 158.55798425877487,130 L 160.03903424662792,130 L 160.06866993880794,130 L 160.0956717454073,130 L 161.58946113902815,130 L 161.6200822986023,130 L 161.6516172552147,130 L 163.14219940040738,130 L 163.17101088349412,130 L 163.19942817962323,130 L 164.68447378981975,130 L 164.71527412528377,40 L 164.74736452715464,40 L 166.238340859305,40 L 166.25971654296325,40 L 166.28919097684243,40 L 167.78255034832767,40 L 167.8064524120327,40 L 167.84886334515855,40 L 169.33247554823635,40 L 169.36395675208178,40 L 169.39160359188455,40 L 170.87428408033514,40 L 170.90877543912993,40 L 170.94255009436532,40 L 172.4318959259181,40 L 172.44716171173272,40 L 172.48853342469747,40 L 173.9768758712671,40 L 174.00950380080752,40 L 174.04636028134823,40 L 175.5250809826333,40 L 175.55582756533036,40 L 175.59522834350685,40 L 177.0707776315417,40 L 177.10347723143803,40 L 177.14162377838562,40 L 178.62743984490848,40 L 178.66386630331354,40 L 180.16957089360898,40 L 180.24616858651686,40 L 181.71790142809806,40 L 181.7559763046897,40 L 181.79211608167103,40 L 183.26560484697268,40 L 183.30572232870853,40 L 183.33333333333334,40" stroke="#22c55e" stroke-width="4" fill="none" opacity="0.4" stroke-dasharray="14850" stroke-dashoffset="14850">
      <animate attributeName="stroke-dashoffset" values="14850;0" dur="3s" begin="2.6s" fill="freeze"/>
    </path>
    
    <!-- Animated circle that moves along the path and draws the line -->
    <circle r="5" fill="#22c55e" opacity="0" filter="url(#trailGlow)">
      <animate attributeName="opacity" values="0;1;1;1" dur="3.2s" begin="2.4s" fill="freeze"/>
      <animate attributeName="r" values="5;6;5" dur="1s" begin="2.4s" repeatCount="3"/>
      <animateMotion dur="3s" begin="2.4s" fill="freeze">
        <mpath href="#path_followersCount_60"/>
      </animateMotion>
    </circle>
    
    <!-- Small trail dots that fade out -->
    <circle r="2" fill="#22c55e" opacity="0">
      <animate attributeName="opacity" values="0;0.6;0" dur="0.8s" begin="2.8s" fill="freeze"/>
      <animateMotion dur="3s" begin="2.4s" fill="freeze">
        <mpath href="#path_followersCount_60"/>
      </animateMotion>
    </circle>
    
    <!-- Hidden path for motion animation -->
    <path id="path_followersCount_60" d="M 30,160 L 30.024206662717784,160 L 30.053842354897814,160 L 31.55062398587907,160 L 31.60548764334899,160 L 33.09442137035512,160 L 33.12409289771312,160 L 33.15143513850316,160 L 34.64418531196295,160 L 34.672262173901345,160 L 34.701575349479654,160 L 36.1928921158207,160 L 36.221524423017605,160 L 36.25374024801137,160 L 37.740255100504626,160 L 37.77039248517622,160 L 37.80135407894108,160 L 39.291004509506585,160 L 39.32056853133068,160 L 39.34875289880298,160 L 40.84121639083902,160 L 40.86248456896338,160 L 40.89192316766458,160 L 42.38384913203109,160 L 42.41120929041011,160 L 42.44292342291232,160 L 43.93262760624478,160 L 43.95982650632294,160 L 43.989766797515706,160 L 45.48085063519996,160 L 45.50661612815937,160 L 45.538384013428534,160 L 47.030148719494186,160 L 47.05591421245361,160 L 47.079798358569676,160 L 48.58353201407684,160 L 48.605481060582605,160 L 48.63742812174161,160 L 50.12689937641727,160 L 50.152163176885125,160 L 50.180580473014224,160 L 51.67424444351221,160 L 51.69649808903071,160 L 51.73014732114322,160 L 53.22072946633591,160 L 53.246853311075014,160 L 53.27890787776792,160 L 54.76708906603672,160 L 54.79145698705536,160 L 54.82612752173998,160 L 56.31106562640261,160 L 56.342546830248025,160 L 56.3748701607757,160 L 57.86459226169714,160 L 57.889730639042114,160 L 57.919222990510264,160 L 59.41475039026262,160 L 59.44189553757383,160 L 59.47488181889392,160 L 60.960214110514215,160 L 60.99192824301642,160 L 61.026975047069705,160 L 62.511357706473824,160 L 62.53547478124669,160 L 62.56702765544804,160 L 64.0604945324672,160 L 64.08290943628656,160 L 64.11453398084385,160 L 65.60516987880348,160 L 65.62989615160181,160 L 65.66085774536668,160 L 67.15382292989429,160 L 67.18189979183268,160 L 68.70437524541741,160 L 68.7301765735548,160 L 68.75463408251836,160 L 70.2531537196311,160 L 70.28287899975606,160 L 70.31667157258043,160 L 71.79139665152202,160 L 71.82764393403725,160 L 71.85855177503517,160 L 73.34581916626576,160 L 73.36522391513576,160 L 73.40200872532051,160 L 74.89440054700063,160 L 74.9219219636805,160 L 74.95243561772077,160 L 76.44477368663391,160 L 76.47077210825013,160 L 76.49829352493,160 L 77.98875024699981,160 L 78.0184217743578,160 L 78.04784245547002,160 L 79.53591613820491,160 L 79.56311503828307,160 L 79.5937899506242,160 L 81.08906650413077,160 L 81.11965182852697,160 L 81.15263810984706,160 L 82.63969049000984,160 L 82.66282209738856,160 L 82.71394097876076,160 L 84.18848688181251,160 L 84.2120126761489,160 L 84.24157669797299,160 L 85.73138838683934,160 L 85.75901730905314,160 L 85.78822297909754,160 L 87.27876928911226,160 L 87.30537690875394,160 L 87.33608765627302,160 L 88.82788819751664,160 L 88.85585755392114,160 L 88.88144387099072,160 L 90.37381777508185,160 L 90.40148253247358,160 L 90.43054486180611,160 L 91.9287957350841,160 L 91.95794765236154,160 L 91.98842547122383,160 L 93.47101637172952,160 L 93.50032954730784,130 L 93.53073569581419,130 L 95.02536721611733,130 L 95.04618745451708,130 L 95.07451516270125,130 L 96.56765952311869,130 L 96.58758388206924,130 L 96.62565875866088,130 L 98.11794307480706,130 L 98.14673664030484,130 L 98.17108664373448,130 L 99.65996661797368,130 L 99.69259454751408,130 L 99.72434451519426,130 L 101.2151954242217,130 L 101.23019244620157,130 L 101.26858983939492,130 L 102.7629346782743,130 L 102.79291080464503,130 L 102.82788593834239,130 L 104.31094269616167,130 L 104.33740697509148,130 L 104.37324215306008,130 L 105.85617348775646,130 L 105.88618544930517,130 L 105.91947632963799,130 L 107.40771127067374,130 L 107.42957072923458,130 L 107.46060399335538,130 L 108.95143698479386,130 L 108.97634243348203,130 L 109.00846867053087,130 L 110.50241932245261,130 L 110.53180416838686,130 L 110.5574442382234,130 L 112.04933436741193,130 L 112.08215939043116,130 L 112.10507598674208,130 L 113.59942082562148,130 L 113.62830397906416,130 L 113.661559024219,130 L 115.14800220635634,130 L 115.17618657382863,130 L 115.21021207530981,130 L 116.69516809756144,130 L 116.72082608498695,130 L 116.75284481650189,130 L 118.24464535774551,130 L 118.27263263173899,130 L 118.30508138538954,130 L 119.78883692917921,130 L 119.82644594845725,130 L 119.84821581907318,130 L 121.33714954607932,130 L 121.36644480406865,130 L 121.3955967213461,130 L 122.88109027126724,130 L 122.91341360179491,130 L 122.94043332598324,130 L 124.02057726031262,130 L 124.43578154984574,130 L 124.46790778689459,130 L 124.50175411248594,130 L 125.9836820621992,130 L 126.01177684172657,130 L 126.04467353510175,130 L 127.52986248601017,130 L 127.55152485109218,130 L 127.58786172155234,130 L 129.08002061457563,130 L 129.10707617394195,130 L 129.13853946019836,130 L 130.62818989076385,130 L 130.6606744795924,130 L 130.69414453581507,130 L 132.17438823216384,130 L 132.20205298955557,130 L 132.23847944796066,130 L 133.72678605935232,130 L 133.75038352404465,130 L 133.77944585337718,130 L 135.2735577635998,130 L 135.30706365500043,130 L 135.33843735331192,130 L 136.82074157239387,130 L 136.85089687465444,130 L 136.88476111783476,130 L 138.3666353147811,130 L 138.39603807830431,130 L 138.42918561792527,130 L 139.91794016904157,130 L 139.94542575054348,130 L 139.97353844765985,130 L 141.46426393356438,130 L 141.49205411407905,130 L 141.52545249994574,130 L 143.0034385800825,130 L 143.04024130785623,130 L 143.07111331367616,130 L 144.5595991009577,130 L 144.58133313639564,130 L 144.62041139797043,130 L 146.10952430086638,130 L 146.14218806558478,130 L 146.17660775402362,130 L 147.65980785255476,130 L 147.68969439098058,130 L 147.72135477071583,130 L 149.1987137352381,130 L 149.23118040647768,130 L 149.26355748977227,130 L 150.75157741974022,130 L 150.78196565065758,130 L 150.81668993810916,130 L 152.3001408828861,130 L 152.3281102392906,130 L 152.35898224511052,130 L 153.8493493792354,130 L 153.86927373818594,130 L 153.91818875611307,130 L 155.39479518189802,130 L 155.42495048415856,130 L 155.45469368187253,130 L 156.9457416843788,130 L 156.97998219692778,130 L 157.01114088417148,130 L 158.49306883388476,130 L 158.52322413614533,130 L 158.55798425877487,130 L 160.03903424662792,130 L 160.06866993880794,130 L 160.0956717454073,130 L 161.58946113902815,130 L 161.6200822986023,130 L 161.6516172552147,130 L 163.14219940040738,130 L 163.17101088349412,130 L 163.19942817962323,130 L 164.68447378981975,130 L 164.71527412528377,40 L 164.74736452715464,40 L 166.238340859305,40 L 166.25971654296325,40 L 166.28919097684243,40 L 167.78255034832767,40 L 167.8064524120327,40 L 167.84886334515855,40 L 169.33247554823635,40 L 169.36395675208178,40 L 169.39160359188455,40 L 170.87428408033514,40 L 170.90877543912993,40 L 170.94255009436532,40 L 172.4318959259181,40 L 172.44716171173272,40 L 172.48853342469747,40 L 173.9768758712671,40 L 174.00950380080752,40 L 174.04636028134823,40 L 175.5250809826333,40 L 175.55582756533036,40 L 175.59522834350685,40 L 177.0707776315417,40 L 177.10347723143803,40 L 177.14162377838562,40 L 178.62743984490848,40 L 178.66386630331354,40 L 180.16957089360898,40 L 180.24616858651686,40 L 181.71790142809806,40 L 181.7559763046897,40 L 181.79211608167103,40 L 183.26560484697268,40 L 183.30572232870853,40 L 183.33333333333334,40" fill="none" stroke="none"/>
  </g>
  <!-- 🔓 Public Contributions Chart -->
  <g transform="translate(293.33333333333337, 250)">
    <!-- Chart Background -->
    <rect x="0" y="0" width="213.33333333333334" height="200" fill="#0f172a" stroke="#334155" stroke-width="1" rx="8" filter="url(#shadow)">
      <animate attributeName="opacity" values="0;1" dur="0.5s" begin="2.3s" fill="freeze"/>
    </rect>
    
    <!-- Chart Title -->
    <text x="106.66666666666667" y="25" text-anchor="middle" fill="#f8fafc" font-size="14" font-weight="bold" font-family="Arial, sans-serif">
      🔓 Public Contributions
      <animate attributeName="opacity" values="0;1" dur="0.5s" begin="2.5s" fill="freeze"/>
    </text>
    
    <!-- Y-axis labels -->
    <text x="10" y="45" fill="#94a3b8" font-size="10" font-family="Arial, sans-serif">3,861
      <animate attributeName="opacity" values="0;1" dur="0.5s" begin="2.6999999999999997s" fill="freeze"/>
    </text>
    <text x="10" y="185" fill="#94a3b8" font-size="10" font-family="Arial, sans-serif">3,180
      <animate attributeName="opacity" values="0;1" dur="0.5s" begin="2.6999999999999997s" fill="freeze"/>
    </text>
    
    <!-- Chart Line with draw animation that follows the circle -->
    <path d="M 30,160 L 30.024206662717784,160 L 30.053842354897814,160 L 31.55062398587907,160 L 31.60548764334899,160 L 33.09442137035512,160 L 33.12409289771312,160 L 33.15143513850316,160 L 34.64418531196295,160 L 34.672262173901345,160 L 34.701575349479654,160 L 36.1928921158207,160 L 36.221524423017605,160 L 36.25374024801137,160 L 37.740255100504626,160 L 37.77039248517622,160 L 37.80135407894108,160 L 39.291004509506585,160 L 39.32056853133068,160 L 39.34875289880298,160 L 40.84121639083902,160 L 40.86248456896338,160 L 40.89192316766458,160 L 42.38384913203109,160 L 42.41120929041011,160 L 42.44292342291232,160 L 43.93262760624478,160 L 43.95982650632294,160 L 43.989766797515706,160 L 45.48085063519996,160 L 45.50661612815937,160 L 45.538384013428534,160 L 47.030148719494186,160 L 47.05591421245361,160 L 47.079798358569676,160 L 48.58353201407684,160 L 48.605481060582605,160 L 48.63742812174161,160 L 50.12689937641727,160 L 50.152163176885125,160 L 50.180580473014224,160 L 51.67424444351221,160 L 51.69649808903071,160 L 51.73014732114322,160 L 53.22072946633591,160 L 53.246853311075014,160 L 53.27890787776792,160 L 54.76708906603672,160 L 54.79145698705536,160 L 54.82612752173998,160 L 56.31106562640261,160 L 56.342546830248025,160 L 56.3748701607757,160 L 57.86459226169714,160 L 57.889730639042114,160 L 57.919222990510264,160 L 59.41475039026262,160 L 59.44189553757383,160 L 59.47488181889392,160 L 60.960214110514215,160 L 60.99192824301642,160 L 61.026975047069705,160 L 62.511357706473824,160 L 62.53547478124669,160 L 62.56702765544804,160 L 64.0604945324672,160 L 64.08290943628656,160 L 64.11453398084385,160 L 65.60516987880348,160 L 65.62989615160181,160 L 65.66085774536668,160 L 67.15382292989429,160 L 67.18189979183268,160 L 68.70437524541741,160 L 68.7301765735548,160 L 68.75463408251836,160 L 70.2531537196311,160 L 70.28287899975606,160 L 70.31667157258043,160 L 71.79139665152202,160 L 71.82764393403725,160 L 71.85855177503517,160 L 73.34581916626576,160 L 73.36522391513576,160 L 73.40200872532051,160 L 74.89440054700063,160 L 74.9219219636805,160 L 74.95243561772077,160 L 76.44477368663391,160 L 76.47077210825013,160 L 76.49829352493,160 L 77.98875024699981,160 L 78.0184217743578,160 L 78.04784245547002,160 L 79.53591613820491,160 L 79.56311503828307,160 L 79.5937899506242,160 L 81.08906650413077,160 L 81.11965182852697,160 L 81.15263810984706,160 L 82.63969049000984,160 L 82.66282209738856,160 L 82.71394097876076,160 L 84.18848688181251,160 L 84.2120126761489,160 L 84.24157669797299,160 L 85.73138838683934,160 L 85.75901730905314,160 L 85.78822297909754,160 L 87.27876928911226,160 L 87.30537690875394,160 L 87.33608765627302,160 L 88.82788819751664,160 L 88.85585755392114,160 L 88.88144387099072,160 L 90.37381777508185,160 L 90.40148253247358,160 L 90.43054486180611,160 L 91.9287957350841,160 L 91.95794765236154,160 L 91.98842547122383,160 L 93.47101637172952,160 L 93.50032954730784,115.24229074889868 L 93.53073569581419,115.24229074889868 L 95.02536721611733,115.24229074889868 L 95.04618745451708,115.24229074889868 L 95.07451516270125,115.24229074889868 L 96.56765952311869,115.24229074889868 L 96.58758388206924,115.24229074889868 L 96.62565875866088,115.24229074889868 L 98.11794307480706,115.24229074889868 L 98.14673664030484,115.24229074889868 L 98.17108664373448,115.24229074889868 L 99.65996661797368,115.24229074889868 L 99.69259454751408,115.24229074889868 L 99.72434451519426,115.24229074889868 L 101.2151954242217,115.24229074889868 L 101.23019244620157,115.24229074889868 L 101.26858983939492,115.24229074889868 L 102.7629346782743,115.24229074889868 L 102.79291080464503,115.24229074889868 L 102.82788593834239,115.24229074889868 L 104.31094269616167,115.24229074889868 L 104.33740697509148,115.24229074889868 L 104.37324215306008,115.24229074889868 L 105.85617348775646,115.24229074889868 L 105.88618544930517,115.24229074889868 L 105.91947632963799,115.24229074889868 L 107.40771127067374,115.24229074889868 L 107.42957072923458,115.24229074889868 L 107.46060399335538,115.24229074889868 L 108.95143698479386,115.24229074889868 L 108.97634243348203,115.24229074889868 L 109.00846867053087,115.24229074889868 L 110.50241932245261,115.24229074889868 L 110.53180416838686,115.24229074889868 L 110.5574442382234,115.24229074889868 L 112.04933436741193,115.24229074889868 L 112.08215939043116,115.24229074889868 L 112.10507598674208,115.24229074889868 L 113.59942082562148,115.24229074889868 L 113.62830397906416,115.24229074889868 L 113.661559024219,115.24229074889868 L 115.14800220635634,115.24229074889868 L 115.17618657382863,115.24229074889868 L 115.21021207530981,115.24229074889868 L 116.69516809756144,115.24229074889868 L 116.72082608498695,115.24229074889868 L 116.75284481650189,115.24229074889868 L 118.24464535774551,115.24229074889868 L 118.27263263173899,115.24229074889868 L 118.30508138538954,115.24229074889868 L 119.78883692917921,115.24229074889868 L 119.82644594845725,115.24229074889868 L 119.84821581907318,115.24229074889868 L 121.33714954607932,115.24229074889868 L 121.36644480406865,115.24229074889868 L 121.3955967213461,115.24229074889868 L 122.88109027126724,115.24229074889868 L 122.91341360179491,115.24229074889868 L 122.94043332598324,115.24229074889868 L 124.02057726031262,115.24229074889868 L 124.43578154984574,115.24229074889868 L 124.46790778689459,115.24229074889868 L 124.50175411248594,115.24229074889868 L 125.9836820621992,115.24229074889868 L 126.01177684172657,115.24229074889868 L 126.04467353510175,115.24229074889868 L 127.52986248601017,115.24229074889868 L 127.55152485109218,115.24229074889868 L 127.58786172155234,115.24229074889868 L 129.08002061457563,115.24229074889868 L 129.10707617394195,115.24229074889868 L 129.13853946019836,115.24229074889868 L 130.62818989076385,115.24229074889868 L 130.6606744795924,115.24229074889868 L 130.69414453581507,115.24229074889868 L 132.17438823216384,115.24229074889868 L 132.20205298955557,115.24229074889868 L 132.23847944796066,115.24229074889868 L 133.72678605935232,115.24229074889868 L 133.75038352404465,115.24229074889868 L 133.77944585337718,115.24229074889868 L 135.2735577635998,115.24229074889868 L 135.30706365500043,115.24229074889868 L 135.33843735331192,115.24229074889868 L 136.82074157239387,115.24229074889868 L 136.85089687465444,115.24229074889868 L 136.88476111783476,115.24229074889868 L 138.3666353147811,115.24229074889868 L 138.39603807830431,115.24229074889868 L 138.42918561792527,115.24229074889868 L 139.91794016904157,115.24229074889868 L 139.94542575054348,115.24229074889868 L 139.97353844765985,115.24229074889868 L 141.46426393356438,115.24229074889868 L 141.49205411407905,115.24229074889868 L 141.52545249994574,115.24229074889868 L 143.0034385800825,115.24229074889868 L 143.04024130785623,115.24229074889868 L 143.07111331367616,115.24229074889868 L 144.5595991009577,115.24229074889868 L 144.58133313639564,115.24229074889868 L 144.62041139797043,115.24229074889868 L 146.10952430086638,115.24229074889868 L 146.14218806558478,115.24229074889868 L 146.17660775402362,115.24229074889868 L 147.65980785255476,115.24229074889868 L 147.68969439098058,115.24229074889868 L 147.72135477071583,115.24229074889868 L 149.1987137352381,115.24229074889868 L 149.23118040647768,115.24229074889868 L 149.26355748977227,115.24229074889868 L 150.75157741974022,115.24229074889868 L 150.78196565065758,115.24229074889868 L 150.81668993810916,115.24229074889868 L 152.3001408828861,115.24229074889868 L 152.3281102392906,115.24229074889868 L 152.35898224511052,115.24229074889868 L 153.8493493792354,115.24229074889868 L 153.86927373818594,115.24229074889868 L 153.91818875611307,115.24229074889868 L 155.39479518189802,115.24229074889868 L 155.42495048415856,115.24229074889868 L 155.45469368187253,115.24229074889868 L 156.9457416843788,115.24229074889868 L 156.97998219692778,115.24229074889868 L 157.01114088417148,115.24229074889868 L 158.49306883388476,115.24229074889868 L 158.52322413614533,115.24229074889868 L 158.55798425877487,115.24229074889868 L 160.03903424662792,115.24229074889868 L 160.06866993880794,115.24229074889868 L 160.0956717454073,115.24229074889868 L 161.58946113902815,115.24229074889868 L 161.6200822986023,115.24229074889868 L 161.6516172552147,115.24229074889868 L 163.14219940040738,115.24229074889868 L 163.17101088349412,115.24229074889868 L 163.19942817962323,115.24229074889868 L 164.68447378981975,115.24229074889868 L 164.71527412528377,40 L 164.74736452715464,40 L 166.238340859305,40 L 166.25971654296325,40 L 166.28919097684243,40 L 167.78255034832767,40 L 167.8064524120327,40 L 167.84886334515855,40 L 169.33247554823635,40 L 169.36395675208178,40 L 169.39160359188455,40 L 170.87428408033514,40 L 170.90877543912993,40 L 170.94255009436532,40 L 172.4318959259181,40 L 172.44716171173272,40 L 172.48853342469747,40 L 173.9768758712671,40 L 174.00950380080752,40 L 174.04636028134823,40 L 175.5250809826333,40 L 175.55582756533036,40 L 175.59522834350685,40 L 177.0707776315417,40 L 177.10347723143803,40 L 177.14162377838562,40 L 178.62743984490848,40 L 178.66386630331354,40 L 180.16957089360898,40 L 180.24616858651686,40 L 181.71790142809806,40 L 181.7559763046897,40 L 181.79211608167103,40 L 183.26560484697268,40 L 183.30572232870853,40 L 183.33333333333334,40" stroke="#3b82f6" stroke-width="2" fill="none" stroke-dasharray="14850" stroke-dashoffset="14850">
      <animate attributeName="stroke-dashoffset" values="14850;0" dur="3s" begin="3.0999999999999996s" fill="freeze"/>
    </path>
    
    <!-- Glow effect for the line that also follows the circle -->
    <path d="M 30,160 L 30.024206662717784,160 L 30.053842354897814,160 L 31.55062398587907,160 L 31.60548764334899,160 L 33.09442137035512,160 L 33.12409289771312,160 L 33.15143513850316,160 L 34.64418531196295,160 L 34.672262173901345,160 L 34.701575349479654,160 L 36.1928921158207,160 L 36.221524423017605,160 L 36.25374024801137,160 L 37.740255100504626,160 L 37.77039248517622,160 L 37.80135407894108,160 L 39.291004509506585,160 L 39.32056853133068,160 L 39.34875289880298,160 L 40.84121639083902,160 L 40.86248456896338,160 L 40.89192316766458,160 L 42.38384913203109,160 L 42.41120929041011,160 L 42.44292342291232,160 L 43.93262760624478,160 L 43.95982650632294,160 L 43.989766797515706,160 L 45.48085063519996,160 L 45.50661612815937,160 L 45.538384013428534,160 L 47.030148719494186,160 L 47.05591421245361,160 L 47.079798358569676,160 L 48.58353201407684,160 L 48.605481060582605,160 L 48.63742812174161,160 L 50.12689937641727,160 L 50.152163176885125,160 L 50.180580473014224,160 L 51.67424444351221,160 L 51.69649808903071,160 L 51.73014732114322,160 L 53.22072946633591,160 L 53.246853311075014,160 L 53.27890787776792,160 L 54.76708906603672,160 L 54.79145698705536,160 L 54.82612752173998,160 L 56.31106562640261,160 L 56.342546830248025,160 L 56.3748701607757,160 L 57.86459226169714,160 L 57.889730639042114,160 L 57.919222990510264,160 L 59.41475039026262,160 L 59.44189553757383,160 L 59.47488181889392,160 L 60.960214110514215,160 L 60.99192824301642,160 L 61.026975047069705,160 L 62.511357706473824,160 L 62.53547478124669,160 L 62.56702765544804,160 L 64.0604945324672,160 L 64.08290943628656,160 L 64.11453398084385,160 L 65.60516987880348,160 L 65.62989615160181,160 L 65.66085774536668,160 L 67.15382292989429,160 L 67.18189979183268,160 L 68.70437524541741,160 L 68.7301765735548,160 L 68.75463408251836,160 L 70.2531537196311,160 L 70.28287899975606,160 L 70.31667157258043,160 L 71.79139665152202,160 L 71.82764393403725,160 L 71.85855177503517,160 L 73.34581916626576,160 L 73.36522391513576,160 L 73.40200872532051,160 L 74.89440054700063,160 L 74.9219219636805,160 L 74.95243561772077,160 L 76.44477368663391,160 L 76.47077210825013,160 L 76.49829352493,160 L 77.98875024699981,160 L 78.0184217743578,160 L 78.04784245547002,160 L 79.53591613820491,160 L 79.56311503828307,160 L 79.5937899506242,160 L 81.08906650413077,160 L 81.11965182852697,160 L 81.15263810984706,160 L 82.63969049000984,160 L 82.66282209738856,160 L 82.71394097876076,160 L 84.18848688181251,160 L 84.2120126761489,160 L 84.24157669797299,160 L 85.73138838683934,160 L 85.75901730905314,160 L 85.78822297909754,160 L 87.27876928911226,160 L 87.30537690875394,160 L 87.33608765627302,160 L 88.82788819751664,160 L 88.85585755392114,160 L 88.88144387099072,160 L 90.37381777508185,160 L 90.40148253247358,160 L 90.43054486180611,160 L 91.9287957350841,160 L 91.95794765236154,160 L 91.98842547122383,160 L 93.47101637172952,160 L 93.50032954730784,115.24229074889868 L 93.53073569581419,115.24229074889868 L 95.02536721611733,115.24229074889868 L 95.04618745451708,115.24229074889868 L 95.07451516270125,115.24229074889868 L 96.56765952311869,115.24229074889868 L 96.58758388206924,115.24229074889868 L 96.62565875866088,115.24229074889868 L 98.11794307480706,115.24229074889868 L 98.14673664030484,115.24229074889868 L 98.17108664373448,115.24229074889868 L 99.65996661797368,115.24229074889868 L 99.69259454751408,115.24229074889868 L 99.72434451519426,115.24229074889868 L 101.2151954242217,115.24229074889868 L 101.23019244620157,115.24229074889868 L 101.26858983939492,115.24229074889868 L 102.7629346782743,115.24229074889868 L 102.79291080464503,115.24229074889868 L 102.82788593834239,115.24229074889868 L 104.31094269616167,115.24229074889868 L 104.33740697509148,115.24229074889868 L 104.37324215306008,115.24229074889868 L 105.85617348775646,115.24229074889868 L 105.88618544930517,115.24229074889868 L 105.91947632963799,115.24229074889868 L 107.40771127067374,115.24229074889868 L 107.42957072923458,115.24229074889868 L 107.46060399335538,115.24229074889868 L 108.95143698479386,115.24229074889868 L 108.97634243348203,115.24229074889868 L 109.00846867053087,115.24229074889868 L 110.50241932245261,115.24229074889868 L 110.53180416838686,115.24229074889868 L 110.5574442382234,115.24229074889868 L 112.04933436741193,115.24229074889868 L 112.08215939043116,115.24229074889868 L 112.10507598674208,115.24229074889868 L 113.59942082562148,115.24229074889868 L 113.62830397906416,115.24229074889868 L 113.661559024219,115.24229074889868 L 115.14800220635634,115.24229074889868 L 115.17618657382863,115.24229074889868 L 115.21021207530981,115.24229074889868 L 116.69516809756144,115.24229074889868 L 116.72082608498695,115.24229074889868 L 116.75284481650189,115.24229074889868 L 118.24464535774551,115.24229074889868 L 118.27263263173899,115.24229074889868 L 118.30508138538954,115.24229074889868 L 119.78883692917921,115.24229074889868 L 119.82644594845725,115.24229074889868 L 119.84821581907318,115.24229074889868 L 121.33714954607932,115.24229074889868 L 121.36644480406865,115.24229074889868 L 121.3955967213461,115.24229074889868 L 122.88109027126724,115.24229074889868 L 122.91341360179491,115.24229074889868 L 122.94043332598324,115.24229074889868 L 124.02057726031262,115.24229074889868 L 124.43578154984574,115.24229074889868 L 124.46790778689459,115.24229074889868 L 124.50175411248594,115.24229074889868 L 125.9836820621992,115.24229074889868 L 126.01177684172657,115.24229074889868 L 126.04467353510175,115.24229074889868 L 127.52986248601017,115.24229074889868 L 127.55152485109218,115.24229074889868 L 127.58786172155234,115.24229074889868 L 129.08002061457563,115.24229074889868 L 129.10707617394195,115.24229074889868 L 129.13853946019836,115.24229074889868 L 130.62818989076385,115.24229074889868 L 130.6606744795924,115.24229074889868 L 130.69414453581507,115.24229074889868 L 132.17438823216384,115.24229074889868 L 132.20205298955557,115.24229074889868 L 132.23847944796066,115.24229074889868 L 133.72678605935232,115.24229074889868 L 133.75038352404465,115.24229074889868 L 133.77944585337718,115.24229074889868 L 135.2735577635998,115.24229074889868 L 135.30706365500043,115.24229074889868 L 135.33843735331192,115.24229074889868 L 136.82074157239387,115.24229074889868 L 136.85089687465444,115.24229074889868 L 136.88476111783476,115.24229074889868 L 138.3666353147811,115.24229074889868 L 138.39603807830431,115.24229074889868 L 138.42918561792527,115.24229074889868 L 139.91794016904157,115.24229074889868 L 139.94542575054348,115.24229074889868 L 139.97353844765985,115.24229074889868 L 141.46426393356438,115.24229074889868 L 141.49205411407905,115.24229074889868 L 141.52545249994574,115.24229074889868 L 143.0034385800825,115.24229074889868 L 143.04024130785623,115.24229074889868 L 143.07111331367616,115.24229074889868 L 144.5595991009577,115.24229074889868 L 144.58133313639564,115.24229074889868 L 144.62041139797043,115.24229074889868 L 146.10952430086638,115.24229074889868 L 146.14218806558478,115.24229074889868 L 146.17660775402362,115.24229074889868 L 147.65980785255476,115.24229074889868 L 147.68969439098058,115.24229074889868 L 147.72135477071583,115.24229074889868 L 149.1987137352381,115.24229074889868 L 149.23118040647768,115.24229074889868 L 149.26355748977227,115.24229074889868 L 150.75157741974022,115.24229074889868 L 150.78196565065758,115.24229074889868 L 150.81668993810916,115.24229074889868 L 152.3001408828861,115.24229074889868 L 152.3281102392906,115.24229074889868 L 152.35898224511052,115.24229074889868 L 153.8493493792354,115.24229074889868 L 153.86927373818594,115.24229074889868 L 153.91818875611307,115.24229074889868 L 155.39479518189802,115.24229074889868 L 155.42495048415856,115.24229074889868 L 155.45469368187253,115.24229074889868 L 156.9457416843788,115.24229074889868 L 156.97998219692778,115.24229074889868 L 157.01114088417148,115.24229074889868 L 158.49306883388476,115.24229074889868 L 158.52322413614533,115.24229074889868 L 158.55798425877487,115.24229074889868 L 160.03903424662792,115.24229074889868 L 160.06866993880794,115.24229074889868 L 160.0956717454073,115.24229074889868 L 161.58946113902815,115.24229074889868 L 161.6200822986023,115.24229074889868 L 161.6516172552147,115.24229074889868 L 163.14219940040738,115.24229074889868 L 163.17101088349412,115.24229074889868 L 163.19942817962323,115.24229074889868 L 164.68447378981975,115.24229074889868 L 164.71527412528377,40 L 164.74736452715464,40 L 166.238340859305,40 L 166.25971654296325,40 L 166.28919097684243,40 L 167.78255034832767,40 L 167.8064524120327,40 L 167.84886334515855,40 L 169.33247554823635,40 L 169.36395675208178,40 L 169.39160359188455,40 L 170.87428408033514,40 L 170.90877543912993,40 L 170.94255009436532,40 L 172.4318959259181,40 L 172.44716171173272,40 L 172.48853342469747,40 L 173.9768758712671,40 L 174.00950380080752,40 L 174.04636028134823,40 L 175.5250809826333,40 L 175.55582756533036,40 L 175.59522834350685,40 L 177.0707776315417,40 L 177.10347723143803,40 L 177.14162377838562,40 L 178.62743984490848,40 L 178.66386630331354,40 L 180.16957089360898,40 L 180.24616858651686,40 L 181.71790142809806,40 L 181.7559763046897,40 L 181.79211608167103,40 L 183.26560484697268,40 L 183.30572232870853,40 L 183.33333333333334,40" stroke="#3b82f6" stroke-width="4" fill="none" opacity="0.4" stroke-dasharray="14850" stroke-dashoffset="14850">
      <animate attributeName="stroke-dashoffset" values="14850;0" dur="3s" begin="3.0999999999999996s" fill="freeze"/>
    </path>
    
    <!-- Animated circle that moves along the path and draws the line -->
    <circle r="5" fill="#3b82f6" opacity="0" filter="url(#trailGlow)">
      <animate attributeName="opacity" values="0;1;1;1" dur="3.2s" begin="2.9s" fill="freeze"/>
      <animate attributeName="r" values="5;6;5" dur="1s" begin="2.9s" repeatCount="3"/>
      <animateMotion dur="3s" begin="2.9s" fill="freeze">
        <mpath href="#path_publicContributions_293.33333333333337"/>
      </animateMotion>
    </circle>
    
    <!-- Small trail dots that fade out -->
    <circle r="2" fill="#3b82f6" opacity="0">
      <animate attributeName="opacity" values="0;0.6;0" dur="0.8s" begin="3.3s" fill="freeze"/>
      <animateMotion dur="3s" begin="2.9s" fill="freeze">
        <mpath href="#path_publicContributions_293.33333333333337"/>
      </animateMotion>
    </circle>
    
    <!-- Hidden path for motion animation -->
    <path id="path_publicContributions_293.33333333333337" d="M 30,160 L 30.024206662717784,160 L 30.053842354897814,160 L 31.55062398587907,160 L 31.60548764334899,160 L 33.09442137035512,160 L 33.12409289771312,160 L 33.15143513850316,160 L 34.64418531196295,160 L 34.672262173901345,160 L 34.701575349479654,160 L 36.1928921158207,160 L 36.221524423017605,160 L 36.25374024801137,160 L 37.740255100504626,160 L 37.77039248517622,160 L 37.80135407894108,160 L 39.291004509506585,160 L 39.32056853133068,160 L 39.34875289880298,160 L 40.84121639083902,160 L 40.86248456896338,160 L 40.89192316766458,160 L 42.38384913203109,160 L 42.41120929041011,160 L 42.44292342291232,160 L 43.93262760624478,160 L 43.95982650632294,160 L 43.989766797515706,160 L 45.48085063519996,160 L 45.50661612815937,160 L 45.538384013428534,160 L 47.030148719494186,160 L 47.05591421245361,160 L 47.079798358569676,160 L 48.58353201407684,160 L 48.605481060582605,160 L 48.63742812174161,160 L 50.12689937641727,160 L 50.152163176885125,160 L 50.180580473014224,160 L 51.67424444351221,160 L 51.69649808903071,160 L 51.73014732114322,160 L 53.22072946633591,160 L 53.246853311075014,160 L 53.27890787776792,160 L 54.76708906603672,160 L 54.79145698705536,160 L 54.82612752173998,160 L 56.31106562640261,160 L 56.342546830248025,160 L 56.3748701607757,160 L 57.86459226169714,160 L 57.889730639042114,160 L 57.919222990510264,160 L 59.41475039026262,160 L 59.44189553757383,160 L 59.47488181889392,160 L 60.960214110514215,160 L 60.99192824301642,160 L 61.026975047069705,160 L 62.511357706473824,160 L 62.53547478124669,160 L 62.56702765544804,160 L 64.0604945324672,160 L 64.08290943628656,160 L 64.11453398084385,160 L 65.60516987880348,160 L 65.62989615160181,160 L 65.66085774536668,160 L 67.15382292989429,160 L 67.18189979183268,160 L 68.70437524541741,160 L 68.7301765735548,160 L 68.75463408251836,160 L 70.2531537196311,160 L 70.28287899975606,160 L 70.31667157258043,160 L 71.79139665152202,160 L 71.82764393403725,160 L 71.85855177503517,160 L 73.34581916626576,160 L 73.36522391513576,160 L 73.40200872532051,160 L 74.89440054700063,160 L 74.9219219636805,160 L 74.95243561772077,160 L 76.44477368663391,160 L 76.47077210825013,160 L 76.49829352493,160 L 77.98875024699981,160 L 78.0184217743578,160 L 78.04784245547002,160 L 79.53591613820491,160 L 79.56311503828307,160 L 79.5937899506242,160 L 81.08906650413077,160 L 81.11965182852697,160 L 81.15263810984706,160 L 82.63969049000984,160 L 82.66282209738856,160 L 82.71394097876076,160 L 84.18848688181251,160 L 84.2120126761489,160 L 84.24157669797299,160 L 85.73138838683934,160 L 85.75901730905314,160 L 85.78822297909754,160 L 87.27876928911226,160 L 87.30537690875394,160 L 87.33608765627302,160 L 88.82788819751664,160 L 88.85585755392114,160 L 88.88144387099072,160 L 90.37381777508185,160 L 90.40148253247358,160 L 90.43054486180611,160 L 91.9287957350841,160 L 91.95794765236154,160 L 91.98842547122383,160 L 93.47101637172952,160 L 93.50032954730784,115.24229074889868 L 93.53073569581419,115.24229074889868 L 95.02536721611733,115.24229074889868 L 95.04618745451708,115.24229074889868 L 95.07451516270125,115.24229074889868 L 96.56765952311869,115.24229074889868 L 96.58758388206924,115.24229074889868 L 96.62565875866088,115.24229074889868 L 98.11794307480706,115.24229074889868 L 98.14673664030484,115.24229074889868 L 98.17108664373448,115.24229074889868 L 99.65996661797368,115.24229074889868 L 99.69259454751408,115.24229074889868 L 99.72434451519426,115.24229074889868 L 101.2151954242217,115.24229074889868 L 101.23019244620157,115.24229074889868 L 101.26858983939492,115.24229074889868 L 102.7629346782743,115.24229074889868 L 102.79291080464503,115.24229074889868 L 102.82788593834239,115.24229074889868 L 104.31094269616167,115.24229074889868 L 104.33740697509148,115.24229074889868 L 104.37324215306008,115.24229074889868 L 105.85617348775646,115.24229074889868 L 105.88618544930517,115.24229074889868 L 105.91947632963799,115.24229074889868 L 107.40771127067374,115.24229074889868 L 107.42957072923458,115.24229074889868 L 107.46060399335538,115.24229074889868 L 108.95143698479386,115.24229074889868 L 108.97634243348203,115.24229074889868 L 109.00846867053087,115.24229074889868 L 110.50241932245261,115.24229074889868 L 110.53180416838686,115.24229074889868 L 110.5574442382234,115.24229074889868 L 112.04933436741193,115.24229074889868 L 112.08215939043116,115.24229074889868 L 112.10507598674208,115.24229074889868 L 113.59942082562148,115.24229074889868 L 113.62830397906416,115.24229074889868 L 113.661559024219,115.24229074889868 L 115.14800220635634,115.24229074889868 L 115.17618657382863,115.24229074889868 L 115.21021207530981,115.24229074889868 L 116.69516809756144,115.24229074889868 L 116.72082608498695,115.24229074889868 L 116.75284481650189,115.24229074889868 L 118.24464535774551,115.24229074889868 L 118.27263263173899,115.24229074889868 L 118.30508138538954,115.24229074889868 L 119.78883692917921,115.24229074889868 L 119.82644594845725,115.24229074889868 L 119.84821581907318,115.24229074889868 L 121.33714954607932,115.24229074889868 L 121.36644480406865,115.24229074889868 L 121.3955967213461,115.24229074889868 L 122.88109027126724,115.24229074889868 L 122.91341360179491,115.24229074889868 L 122.94043332598324,115.24229074889868 L 124.02057726031262,115.24229074889868 L 124.43578154984574,115.24229074889868 L 124.46790778689459,115.24229074889868 L 124.50175411248594,115.24229074889868 L 125.9836820621992,115.24229074889868 L 126.01177684172657,115.24229074889868 L 126.04467353510175,115.24229074889868 L 127.52986248601017,115.24229074889868 L 127.55152485109218,115.24229074889868 L 127.58786172155234,115.24229074889868 L 129.08002061457563,115.24229074889868 L 129.10707617394195,115.24229074889868 L 129.13853946019836,115.24229074889868 L 130.62818989076385,115.24229074889868 L 130.6606744795924,115.24229074889868 L 130.69414453581507,115.24229074889868 L 132.17438823216384,115.24229074889868 L 132.20205298955557,115.24229074889868 L 132.23847944796066,115.24229074889868 L 133.72678605935232,115.24229074889868 L 133.75038352404465,115.24229074889868 L 133.77944585337718,115.24229074889868 L 135.2735577635998,115.24229074889868 L 135.30706365500043,115.24229074889868 L 135.33843735331192,115.24229074889868 L 136.82074157239387,115.24229074889868 L 136.85089687465444,115.24229074889868 L 136.88476111783476,115.24229074889868 L 138.3666353147811,115.24229074889868 L 138.39603807830431,115.24229074889868 L 138.42918561792527,115.24229074889868 L 139.91794016904157,115.24229074889868 L 139.94542575054348,115.24229074889868 L 139.97353844765985,115.24229074889868 L 141.46426393356438,115.24229074889868 L 141.49205411407905,115.24229074889868 L 141.52545249994574,115.24229074889868 L 143.0034385800825,115.24229074889868 L 143.04024130785623,115.24229074889868 L 143.07111331367616,115.24229074889868 L 144.5595991009577,115.24229074889868 L 144.58133313639564,115.24229074889868 L 144.62041139797043,115.24229074889868 L 146.10952430086638,115.24229074889868 L 146.14218806558478,115.24229074889868 L 146.17660775402362,115.24229074889868 L 147.65980785255476,115.24229074889868 L 147.68969439098058,115.24229074889868 L 147.72135477071583,115.24229074889868 L 149.1987137352381,115.24229074889868 L 149.23118040647768,115.24229074889868 L 149.26355748977227,115.24229074889868 L 150.75157741974022,115.24229074889868 L 150.78196565065758,115.24229074889868 L 150.81668993810916,115.24229074889868 L 152.3001408828861,115.24229074889868 L 152.3281102392906,115.24229074889868 L 152.35898224511052,115.24229074889868 L 153.8493493792354,115.24229074889868 L 153.86927373818594,115.24229074889868 L 153.91818875611307,115.24229074889868 L 155.39479518189802,115.24229074889868 L 155.42495048415856,115.24229074889868 L 155.45469368187253,115.24229074889868 L 156.9457416843788,115.24229074889868 L 156.97998219692778,115.24229074889868 L 157.01114088417148,115.24229074889868 L 158.49306883388476,115.24229074889868 L 158.52322413614533,115.24229074889868 L 158.55798425877487,115.24229074889868 L 160.03903424662792,115.24229074889868 L 160.06866993880794,115.24229074889868 L 160.0956717454073,115.24229074889868 L 161.58946113902815,115.24229074889868 L 161.6200822986023,115.24229074889868 L 161.6516172552147,115.24229074889868 L 163.14219940040738,115.24229074889868 L 163.17101088349412,115.24229074889868 L 163.19942817962323,115.24229074889868 L 164.68447378981975,115.24229074889868 L 164.71527412528377,40 L 164.74736452715464,40 L 166.238340859305,40 L 166.25971654296325,40 L 166.28919097684243,40 L 167.78255034832767,40 L 167.8064524120327,40 L 167.84886334515855,40 L 169.33247554823635,40 L 169.36395675208178,40 L 169.39160359188455,40 L 170.87428408033514,40 L 170.90877543912993,40 L 170.94255009436532,40 L 172.4318959259181,40 L 172.44716171173272,40 L 172.48853342469747,40 L 173.9768758712671,40 L 174.00950380080752,40 L 174.04636028134823,40 L 175.5250809826333,40 L 175.55582756533036,40 L 175.59522834350685,40 L 177.0707776315417,40 L 177.10347723143803,40 L 177.14162377838562,40 L 178.62743984490848,40 L 178.66386630331354,40 L 180.16957089360898,40 L 180.24616858651686,40 L 181.71790142809806,40 L 181.7559763046897,40 L 181.79211608167103,40 L 183.26560484697268,40 L 183.30572232870853,40 L 183.33333333333334,40" fill="none" stroke="none"/>
  </g>
  <!-- 📊 Total Contributions Chart -->
  <g transform="translate(526.6666666666667, 250)">
    <!-- Chart Background -->
    <rect x="0" y="0" width="213.33333333333334" height="200" fill="#0f172a" stroke="#334155" stroke-width="1" rx="8" filter="url(#shadow)">
      <animate attributeName="opacity" values="0;1" dur="0.5s" begin="2.8s" fill="freeze"/>
    </rect>
    
    <!-- Chart Title -->
    <text x="106.66666666666667" y="25" text-anchor="middle" fill="#f8fafc" font-size="14" font-weight="bold" font-family="Arial, sans-serif">
      📊 Total Contributions
      <animate attributeName="opacity" values="0;1" dur="0.5s" begin="3s" fill="freeze"/>
    </text>
    
    <!-- Y-axis labels -->
    <text x="10" y="45" fill="#94a3b8" font-size="10" font-family="Arial, sans-serif">5,314
      <animate attributeName="opacity" values="0;1" dur="0.5s" begin="3.1999999999999997s" fill="freeze"/>
    </text>
    <text x="10" y="185" fill="#94a3b8" font-size="10" font-family="Arial, sans-serif">4,408
      <animate attributeName="opacity" values="0;1" dur="0.5s" begin="3.1999999999999997s" fill="freeze"/>
    </text>
    
    <!-- Chart Line with draw animation that follows the circle -->
    <path d="M 30,160 L 30.024206662717784,160 L 30.053842354897814,160 L 31.55062398587907,160 L 31.60548764334899,160 L 33.09442137035512,160 L 33.12409289771312,160 L 33.15143513850316,160 L 34.64418531196295,160 L 34.672262173901345,160 L 34.701575349479654,160 L 36.1928921158207,160 L 36.221524423017605,160 L 36.25374024801137,160 L 37.740255100504626,160 L 37.77039248517622,160 L 37.80135407894108,160 L 39.291004509506585,160 L 39.32056853133068,160 L 39.34875289880298,160 L 40.84121639083902,160 L 40.86248456896338,160 L 40.89192316766458,160 L 42.38384913203109,160 L 42.41120929041011,160 L 42.44292342291232,160 L 43.93262760624478,160 L 43.95982650632294,160 L 43.989766797515706,160 L 45.48085063519996,160 L 45.50661612815937,160 L 45.538384013428534,160 L 47.030148719494186,160 L 47.05591421245361,160 L 47.079798358569676,160 L 48.58353201407684,160 L 48.605481060582605,160 L 48.63742812174161,160 L 50.12689937641727,160 L 50.152163176885125,160 L 50.180580473014224,160 L 51.67424444351221,160 L 51.69649808903071,160 L 51.73014732114322,160 L 53.22072946633591,160 L 53.246853311075014,160 L 53.27890787776792,160 L 54.76708906603672,160 L 54.79145698705536,160 L 54.82612752173998,160 L 56.31106562640261,160 L 56.342546830248025,160 L 56.3748701607757,160 L 57.86459226169714,160 L 57.889730639042114,160 L 57.919222990510264,160 L 59.41475039026262,160 L 59.44189553757383,160 L 59.47488181889392,160 L 60.960214110514215,160 L 60.99192824301642,160 L 61.026975047069705,160 L 62.511357706473824,160 L 62.53547478124669,160 L 62.56702765544804,160 L 64.0604945324672,160 L 64.08290943628656,160 L 64.11453398084385,160 L 65.60516987880348,160 L 65.62989615160181,160 L 65.66085774536668,160 L 67.15382292989429,160 L 67.18189979183268,160 L 68.70437524541741,160 L 68.7301765735548,160 L 68.75463408251836,160 L 70.2531537196311,160 L 70.28287899975606,160 L 70.31667157258043,160 L 71.79139665152202,160 L 71.82764393403725,160 L 71.85855177503517,160 L 73.34581916626576,160 L 73.36522391513576,160 L 73.40200872532051,160 L 74.89440054700063,160 L 74.9219219636805,160 L 74.95243561772077,160 L 76.44477368663391,160 L 76.47077210825013,160 L 76.49829352493,160 L 77.98875024699981,160 L 78.0184217743578,160 L 78.04784245547002,160 L 79.53591613820491,160 L 79.56311503828307,160 L 79.5937899506242,160 L 81.08906650413077,160 L 81.11965182852697,160 L 81.15263810984706,160 L 82.63969049000984,160 L 82.66282209738856,160 L 82.71394097876076,160 L 84.18848688181251,160 L 84.2120126761489,160 L 84.24157669797299,160 L 85.73138838683934,160 L 85.75901730905314,160 L 85.78822297909754,160 L 87.27876928911226,160 L 87.30537690875394,160 L 87.33608765627302,160 L 88.82788819751664,160 L 88.85585755392114,160 L 88.88144387099072,160 L 90.37381777508185,160 L 90.40148253247358,160 L 90.43054486180611,160 L 91.9287957350841,160 L 91.95794765236154,160 L 91.98842547122383,160 L 93.47101637172952,160 L 93.50032954730784,92.58278145695365 L 93.53073569581419,92.58278145695365 L 95.02536721611733,92.58278145695365 L 95.04618745451708,92.58278145695365 L 95.07451516270125,92.58278145695365 L 96.56765952311869,92.58278145695365 L 96.58758388206924,92.58278145695365 L 96.62565875866088,92.58278145695365 L 98.11794307480706,92.58278145695365 L 98.14673664030484,92.58278145695365 L 98.17108664373448,92.58278145695365 L 99.65996661797368,92.58278145695365 L 99.69259454751408,92.58278145695365 L 99.72434451519426,92.58278145695365 L 101.2151954242217,92.58278145695365 L 101.23019244620157,92.58278145695365 L 101.26858983939492,92.58278145695365 L 102.7629346782743,92.58278145695365 L 102.79291080464503,92.58278145695365 L 102.82788593834239,92.58278145695365 L 104.31094269616167,92.58278145695365 L 104.33740697509148,92.58278145695365 L 104.37324215306008,92.58278145695365 L 105.85617348775646,92.58278145695365 L 105.88618544930517,92.58278145695365 L 105.91947632963799,92.58278145695365 L 107.40771127067374,92.58278145695365 L 107.42957072923458,92.58278145695365 L 107.46060399335538,92.58278145695365 L 108.95143698479386,92.58278145695365 L 108.97634243348203,92.58278145695365 L 109.00846867053087,92.58278145695365 L 110.50241932245261,92.58278145695365 L 110.53180416838686,92.58278145695365 L 110.5574442382234,92.58278145695365 L 112.04933436741193,92.58278145695365 L 112.08215939043116,92.58278145695365 L 112.10507598674208,92.58278145695365 L 113.59942082562148,92.58278145695365 L 113.62830397906416,92.58278145695365 L 113.661559024219,92.58278145695365 L 115.14800220635634,92.58278145695365 L 115.17618657382863,92.58278145695365 L 115.21021207530981,92.58278145695365 L 116.69516809756144,92.58278145695365 L 116.72082608498695,92.58278145695365 L 116.75284481650189,92.58278145695365 L 118.24464535774551,92.58278145695365 L 118.27263263173899,92.58278145695365 L 118.30508138538954,92.58278145695365 L 119.78883692917921,92.58278145695365 L 119.82644594845725,92.58278145695365 L 119.84821581907318,92.58278145695365 L 121.33714954607932,92.58278145695365 L 121.36644480406865,92.58278145695365 L 121.3955967213461,92.58278145695365 L 122.88109027126724,92.58278145695365 L 122.91341360179491,92.58278145695365 L 122.94043332598324,92.58278145695365 L 124.02057726031262,92.58278145695365 L 124.43578154984574,92.58278145695365 L 124.46790778689459,92.58278145695365 L 124.50175411248594,92.58278145695365 L 125.9836820621992,92.58278145695365 L 126.01177684172657,92.58278145695365 L 126.04467353510175,92.58278145695365 L 127.52986248601017,92.58278145695365 L 127.55152485109218,92.58278145695365 L 127.58786172155234,92.58278145695365 L 129.08002061457563,92.58278145695365 L 129.10707617394195,92.58278145695365 L 129.13853946019836,92.58278145695365 L 130.62818989076385,92.58278145695365 L 130.6606744795924,92.58278145695365 L 130.69414453581507,92.58278145695365 L 132.17438823216384,92.58278145695365 L 132.20205298955557,92.58278145695365 L 132.23847944796066,92.58278145695365 L 133.72678605935232,92.58278145695365 L 133.75038352404465,92.58278145695365 L 133.77944585337718,92.58278145695365 L 135.2735577635998,92.58278145695365 L 135.30706365500043,92.58278145695365 L 135.33843735331192,92.58278145695365 L 136.82074157239387,92.58278145695365 L 136.85089687465444,92.58278145695365 L 136.88476111783476,92.58278145695365 L 138.3666353147811,92.58278145695365 L 138.39603807830431,92.58278145695365 L 138.42918561792527,92.58278145695365 L 139.91794016904157,92.58278145695365 L 139.94542575054348,92.58278145695365 L 139.97353844765985,92.58278145695365 L 141.46426393356438,92.58278145695365 L 141.49205411407905,92.58278145695365 L 141.52545249994574,92.58278145695365 L 143.0034385800825,92.58278145695365 L 143.04024130785623,92.58278145695365 L 143.07111331367616,92.58278145695365 L 144.5595991009577,92.58278145695365 L 144.58133313639564,92.58278145695365 L 144.62041139797043,92.58278145695365 L 146.10952430086638,92.58278145695365 L 146.14218806558478,92.58278145695365 L 146.17660775402362,92.58278145695365 L 147.65980785255476,92.58278145695365 L 147.68969439098058,92.58278145695365 L 147.72135477071583,92.58278145695365 L 149.1987137352381,92.58278145695365 L 149.23118040647768,92.58278145695365 L 149.26355748977227,92.58278145695365 L 150.75157741974022,92.58278145695365 L 150.78196565065758,92.58278145695365 L 150.81668993810916,92.58278145695365 L 152.3001408828861,92.58278145695365 L 152.3281102392906,92.58278145695365 L 152.35898224511052,92.58278145695365 L 153.8493493792354,92.58278145695365 L 153.86927373818594,92.58278145695365 L 153.91818875611307,92.58278145695365 L 155.39479518189802,92.58278145695365 L 155.42495048415856,92.58278145695365 L 155.45469368187253,92.58278145695365 L 156.9457416843788,92.58278145695365 L 156.97998219692778,92.58278145695365 L 157.01114088417148,92.58278145695365 L 158.49306883388476,92.58278145695365 L 158.52322413614533,92.58278145695365 L 158.55798425877487,92.58278145695365 L 160.03903424662792,92.58278145695365 L 160.06866993880794,92.58278145695365 L 160.0956717454073,92.58278145695365 L 161.58946113902815,92.58278145695365 L 161.6200822986023,92.58278145695365 L 161.6516172552147,92.58278145695365 L 163.14219940040738,92.58278145695365 L 163.17101088349412,92.58278145695365 L 163.19942817962323,92.58278145695365 L 164.68447378981975,92.58278145695365 L 164.71527412528377,40 L 164.74736452715464,40 L 166.238340859305,40 L 166.25971654296325,40 L 166.28919097684243,40 L 167.78255034832767,40 L 167.8064524120327,40 L 167.84886334515855,40 L 169.33247554823635,40 L 169.36395675208178,40 L 169.39160359188455,40 L 170.87428408033514,40 L 170.90877543912993,40 L 170.94255009436532,40 L 172.4318959259181,40 L 172.44716171173272,40 L 172.48853342469747,40 L 173.9768758712671,40 L 174.00950380080752,40 L 174.04636028134823,40 L 175.5250809826333,40 L 175.55582756533036,40 L 175.59522834350685,40 L 177.0707776315417,40 L 177.10347723143803,40 L 177.14162377838562,40 L 178.62743984490848,40 L 178.66386630331354,40 L 180.16957089360898,40 L 180.24616858651686,40 L 181.71790142809806,40 L 181.7559763046897,40 L 181.79211608167103,40 L 183.26560484697268,40 L 183.30572232870853,40 L 183.33333333333334,40" stroke="#f59e0b" stroke-width="2" fill="none" stroke-dasharray="14850" stroke-dashoffset="14850">
      <animate attributeName="stroke-dashoffset" values="14850;0" dur="3s" begin="3.5999999999999996s" fill="freeze"/>
    </path>
    
    <!-- Glow effect for the line that also follows the circle -->
    <path d="M 30,160 L 30.024206662717784,160 L 30.053842354897814,160 L 31.55062398587907,160 L 31.60548764334899,160 L 33.09442137035512,160 L 33.12409289771312,160 L 33.15143513850316,160 L 34.64418531196295,160 L 34.672262173901345,160 L 34.701575349479654,160 L 36.1928921158207,160 L 36.221524423017605,160 L 36.25374024801137,160 L 37.740255100504626,160 L 37.77039248517622,160 L 37.80135407894108,160 L 39.291004509506585,160 L 39.32056853133068,160 L 39.34875289880298,160 L 40.84121639083902,160 L 40.86248456896338,160 L 40.89192316766458,160 L 42.38384913203109,160 L 42.41120929041011,160 L 42.44292342291232,160 L 43.93262760624478,160 L 43.95982650632294,160 L 43.989766797515706,160 L 45.48085063519996,160 L 45.50661612815937,160 L 45.538384013428534,160 L 47.030148719494186,160 L 47.05591421245361,160 L 47.079798358569676,160 L 48.58353201407684,160 L 48.605481060582605,160 L 48.63742812174161,160 L 50.12689937641727,160 L 50.152163176885125,160 L 50.180580473014224,160 L 51.67424444351221,160 L 51.69649808903071,160 L 51.73014732114322,160 L 53.22072946633591,160 L 53.246853311075014,160 L 53.27890787776792,160 L 54.76708906603672,160 L 54.79145698705536,160 L 54.82612752173998,160 L 56.31106562640261,160 L 56.342546830248025,160 L 56.3748701607757,160 L 57.86459226169714,160 L 57.889730639042114,160 L 57.919222990510264,160 L 59.41475039026262,160 L 59.44189553757383,160 L 59.47488181889392,160 L 60.960214110514215,160 L 60.99192824301642,160 L 61.026975047069705,160 L 62.511357706473824,160 L 62.53547478124669,160 L 62.56702765544804,160 L 64.0604945324672,160 L 64.08290943628656,160 L 64.11453398084385,160 L 65.60516987880348,160 L 65.62989615160181,160 L 65.66085774536668,160 L 67.15382292989429,160 L 67.18189979183268,160 L 68.70437524541741,160 L 68.7301765735548,160 L 68.75463408251836,160 L 70.2531537196311,160 L 70.28287899975606,160 L 70.31667157258043,160 L 71.79139665152202,160 L 71.82764393403725,160 L 71.85855177503517,160 L 73.34581916626576,160 L 73.36522391513576,160 L 73.40200872532051,160 L 74.89440054700063,160 L 74.9219219636805,160 L 74.95243561772077,160 L 76.44477368663391,160 L 76.47077210825013,160 L 76.49829352493,160 L 77.98875024699981,160 L 78.0184217743578,160 L 78.04784245547002,160 L 79.53591613820491,160 L 79.56311503828307,160 L 79.5937899506242,160 L 81.08906650413077,160 L 81.11965182852697,160 L 81.15263810984706,160 L 82.63969049000984,160 L 82.66282209738856,160 L 82.71394097876076,160 L 84.18848688181251,160 L 84.2120126761489,160 L 84.24157669797299,160 L 85.73138838683934,160 L 85.75901730905314,160 L 85.78822297909754,160 L 87.27876928911226,160 L 87.30537690875394,160 L 87.33608765627302,160 L 88.82788819751664,160 L 88.85585755392114,160 L 88.88144387099072,160 L 90.37381777508185,160 L 90.40148253247358,160 L 90.43054486180611,160 L 91.9287957350841,160 L 91.95794765236154,160 L 91.98842547122383,160 L 93.47101637172952,160 L 93.50032954730784,92.58278145695365 L 93.53073569581419,92.58278145695365 L 95.02536721611733,92.58278145695365 L 95.04618745451708,92.58278145695365 L 95.07451516270125,92.58278145695365 L 96.56765952311869,92.58278145695365 L 96.58758388206924,92.58278145695365 L 96.62565875866088,92.58278145695365 L 98.11794307480706,92.58278145695365 L 98.14673664030484,92.58278145695365 L 98.17108664373448,92.58278145695365 L 99.65996661797368,92.58278145695365 L 99.69259454751408,92.58278145695365 L 99.72434451519426,92.58278145695365 L 101.2151954242217,92.58278145695365 L 101.23019244620157,92.58278145695365 L 101.26858983939492,92.58278145695365 L 102.7629346782743,92.58278145695365 L 102.79291080464503,92.58278145695365 L 102.82788593834239,92.58278145695365 L 104.31094269616167,92.58278145695365 L 104.33740697509148,92.58278145695365 L 104.37324215306008,92.58278145695365 L 105.85617348775646,92.58278145695365 L 105.88618544930517,92.58278145695365 L 105.91947632963799,92.58278145695365 L 107.40771127067374,92.58278145695365 L 107.42957072923458,92.58278145695365 L 107.46060399335538,92.58278145695365 L 108.95143698479386,92.58278145695365 L 108.97634243348203,92.58278145695365 L 109.00846867053087,92.58278145695365 L 110.50241932245261,92.58278145695365 L 110.53180416838686,92.58278145695365 L 110.5574442382234,92.58278145695365 L 112.04933436741193,92.58278145695365 L 112.08215939043116,92.58278145695365 L 112.10507598674208,92.58278145695365 L 113.59942082562148,92.58278145695365 L 113.62830397906416,92.58278145695365 L 113.661559024219,92.58278145695365 L 115.14800220635634,92.58278145695365 L 115.17618657382863,92.58278145695365 L 115.21021207530981,92.58278145695365 L 116.69516809756144,92.58278145695365 L 116.72082608498695,92.58278145695365 L 116.75284481650189,92.58278145695365 L 118.24464535774551,92.58278145695365 L 118.27263263173899,92.58278145695365 L 118.30508138538954,92.58278145695365 L 119.78883692917921,92.58278145695365 L 119.82644594845725,92.58278145695365 L 119.84821581907318,92.58278145695365 L 121.33714954607932,92.58278145695365 L 121.36644480406865,92.58278145695365 L 121.3955967213461,92.58278145695365 L 122.88109027126724,92.58278145695365 L 122.91341360179491,92.58278145695365 L 122.94043332598324,92.58278145695365 L 124.02057726031262,92.58278145695365 L 124.43578154984574,92.58278145695365 L 124.46790778689459,92.58278145695365 L 124.50175411248594,92.58278145695365 L 125.9836820621992,92.58278145695365 L 126.01177684172657,92.58278145695365 L 126.04467353510175,92.58278145695365 L 127.52986248601017,92.58278145695365 L 127.55152485109218,92.58278145695365 L 127.58786172155234,92.58278145695365 L 129.08002061457563,92.58278145695365 L 129.10707617394195,92.58278145695365 L 129.13853946019836,92.58278145695365 L 130.62818989076385,92.58278145695365 L 130.6606744795924,92.58278145695365 L 130.69414453581507,92.58278145695365 L 132.17438823216384,92.58278145695365 L 132.20205298955557,92.58278145695365 L 132.23847944796066,92.58278145695365 L 133.72678605935232,92.58278145695365 L 133.75038352404465,92.58278145695365 L 133.77944585337718,92.58278145695365 L 135.2735577635998,92.58278145695365 L 135.30706365500043,92.58278145695365 L 135.33843735331192,92.58278145695365 L 136.82074157239387,92.58278145695365 L 136.85089687465444,92.58278145695365 L 136.88476111783476,92.58278145695365 L 138.3666353147811,92.58278145695365 L 138.39603807830431,92.58278145695365 L 138.42918561792527,92.58278145695365 L 139.91794016904157,92.58278145695365 L 139.94542575054348,92.58278145695365 L 139.97353844765985,92.58278145695365 L 141.46426393356438,92.58278145695365 L 141.49205411407905,92.58278145695365 L 141.52545249994574,92.58278145695365 L 143.0034385800825,92.58278145695365 L 143.04024130785623,92.58278145695365 L 143.07111331367616,92.58278145695365 L 144.5595991009577,92.58278145695365 L 144.58133313639564,92.58278145695365 L 144.62041139797043,92.58278145695365 L 146.10952430086638,92.58278145695365 L 146.14218806558478,92.58278145695365 L 146.17660775402362,92.58278145695365 L 147.65980785255476,92.58278145695365 L 147.68969439098058,92.58278145695365 L 147.72135477071583,92.58278145695365 L 149.1987137352381,92.58278145695365 L 149.23118040647768,92.58278145695365 L 149.26355748977227,92.58278145695365 L 150.75157741974022,92.58278145695365 L 150.78196565065758,92.58278145695365 L 150.81668993810916,92.58278145695365 L 152.3001408828861,92.58278145695365 L 152.3281102392906,92.58278145695365 L 152.35898224511052,92.58278145695365 L 153.8493493792354,92.58278145695365 L 153.86927373818594,92.58278145695365 L 153.91818875611307,92.58278145695365 L 155.39479518189802,92.58278145695365 L 155.42495048415856,92.58278145695365 L 155.45469368187253,92.58278145695365 L 156.9457416843788,92.58278145695365 L 156.97998219692778,92.58278145695365 L 157.01114088417148,92.58278145695365 L 158.49306883388476,92.58278145695365 L 158.52322413614533,92.58278145695365 L 158.55798425877487,92.58278145695365 L 160.03903424662792,92.58278145695365 L 160.06866993880794,92.58278145695365 L 160.0956717454073,92.58278145695365 L 161.58946113902815,92.58278145695365 L 161.6200822986023,92.58278145695365 L 161.6516172552147,92.58278145695365 L 163.14219940040738,92.58278145695365 L 163.17101088349412,92.58278145695365 L 163.19942817962323,92.58278145695365 L 164.68447378981975,92.58278145695365 L 164.71527412528377,40 L 164.74736452715464,40 L 166.238340859305,40 L 166.25971654296325,40 L 166.28919097684243,40 L 167.78255034832767,40 L 167.8064524120327,40 L 167.84886334515855,40 L 169.33247554823635,40 L 169.36395675208178,40 L 169.39160359188455,40 L 170.87428408033514,40 L 170.90877543912993,40 L 170.94255009436532,40 L 172.4318959259181,40 L 172.44716171173272,40 L 172.48853342469747,40 L 173.9768758712671,40 L 174.00950380080752,40 L 174.04636028134823,40 L 175.5250809826333,40 L 175.55582756533036,40 L 175.59522834350685,40 L 177.0707776315417,40 L 177.10347723143803,40 L 177.14162377838562,40 L 178.62743984490848,40 L 178.66386630331354,40 L 180.16957089360898,40 L 180.24616858651686,40 L 181.71790142809806,40 L 181.7559763046897,40 L 181.79211608167103,40 L 183.26560484697268,40 L 183.30572232870853,40 L 183.33333333333334,40" stroke="#f59e0b" stroke-width="4" fill="none" opacity="0.4" stroke-dasharray="14850" stroke-dashoffset="14850">
      <animate attributeName="stroke-dashoffset" values="14850;0" dur="3s" begin="3.5999999999999996s" fill="freeze"/>
    </path>
    
    <!-- Animated circle that moves along the path and draws the line -->
    <circle r="5" fill="#f59e0b" opacity="0" filter="url(#trailGlow)">
      <animate attributeName="opacity" values="0;1;1;1" dur="3.2s" begin="3.4s" fill="freeze"/>
      <animate attributeName="r" values="5;6;5" dur="1s" begin="3.4s" repeatCount="3"/>
      <animateMotion dur="3s" begin="3.4s" fill="freeze">
        <mpath href="#path_totalContributions_526.6666666666667"/>
      </animateMotion>
    </circle>
    
    <!-- Small trail dots that fade out -->
    <circle r="2" fill="#f59e0b" opacity="0">
      <animate attributeName="opacity" values="0;0.6;0" dur="0.8s" begin="3.8s" fill="freeze"/>
      <animateMotion dur="3s" begin="3.4s" fill="freeze">
        <mpath href="#path_totalContributions_526.6666666666667"/>
      </animateMotion>
    </circle>
    
    <!-- Hidden path for motion animation -->
    <path id="path_totalContributions_526.6666666666667" d="M 30,160 L 30.024206662717784,160 L 30.053842354897814,160 L 31.55062398587907,160 L 31.60548764334899,160 L 33.09442137035512,160 L 33.12409289771312,160 L 33.15143513850316,160 L 34.64418531196295,160 L 34.672262173901345,160 L 34.701575349479654,160 L 36.1928921158207,160 L 36.221524423017605,160 L 36.25374024801137,160 L 37.740255100504626,160 L 37.77039248517622,160 L 37.80135407894108,160 L 39.291004509506585,160 L 39.32056853133068,160 L 39.34875289880298,160 L 40.84121639083902,160 L 40.86248456896338,160 L 40.89192316766458,160 L 42.38384913203109,160 L 42.41120929041011,160 L 42.44292342291232,160 L 43.93262760624478,160 L 43.95982650632294,160 L 43.989766797515706,160 L 45.48085063519996,160 L 45.50661612815937,160 L 45.538384013428534,160 L 47.030148719494186,160 L 47.05591421245361,160 L 47.079798358569676,160 L 48.58353201407684,160 L 48.605481060582605,160 L 48.63742812174161,160 L 50.12689937641727,160 L 50.152163176885125,160 L 50.180580473014224,160 L 51.67424444351221,160 L 51.69649808903071,160 L 51.73014732114322,160 L 53.22072946633591,160 L 53.246853311075014,160 L 53.27890787776792,160 L 54.76708906603672,160 L 54.79145698705536,160 L 54.82612752173998,160 L 56.31106562640261,160 L 56.342546830248025,160 L 56.3748701607757,160 L 57.86459226169714,160 L 57.889730639042114,160 L 57.919222990510264,160 L 59.41475039026262,160 L 59.44189553757383,160 L 59.47488181889392,160 L 60.960214110514215,160 L 60.99192824301642,160 L 61.026975047069705,160 L 62.511357706473824,160 L 62.53547478124669,160 L 62.56702765544804,160 L 64.0604945324672,160 L 64.08290943628656,160 L 64.11453398084385,160 L 65.60516987880348,160 L 65.62989615160181,160 L 65.66085774536668,160 L 67.15382292989429,160 L 67.18189979183268,160 L 68.70437524541741,160 L 68.7301765735548,160 L 68.75463408251836,160 L 70.2531537196311,160 L 70.28287899975606,160 L 70.31667157258043,160 L 71.79139665152202,160 L 71.82764393403725,160 L 71.85855177503517,160 L 73.34581916626576,160 L 73.36522391513576,160 L 73.40200872532051,160 L 74.89440054700063,160 L 74.9219219636805,160 L 74.95243561772077,160 L 76.44477368663391,160 L 76.47077210825013,160 L 76.49829352493,160 L 77.98875024699981,160 L 78.0184217743578,160 L 78.04784245547002,160 L 79.53591613820491,160 L 79.56311503828307,160 L 79.5937899506242,160 L 81.08906650413077,160 L 81.11965182852697,160 L 81.15263810984706,160 L 82.63969049000984,160 L 82.66282209738856,160 L 82.71394097876076,160 L 84.18848688181251,160 L 84.2120126761489,160 L 84.24157669797299,160 L 85.73138838683934,160 L 85.75901730905314,160 L 85.78822297909754,160 L 87.27876928911226,160 L 87.30537690875394,160 L 87.33608765627302,160 L 88.82788819751664,160 L 88.85585755392114,160 L 88.88144387099072,160 L 90.37381777508185,160 L 90.40148253247358,160 L 90.43054486180611,160 L 91.9287957350841,160 L 91.95794765236154,160 L 91.98842547122383,160 L 93.47101637172952,160 L 93.50032954730784,92.58278145695365 L 93.53073569581419,92.58278145695365 L 95.02536721611733,92.58278145695365 L 95.04618745451708,92.58278145695365 L 95.07451516270125,92.58278145695365 L 96.56765952311869,92.58278145695365 L 96.58758388206924,92.58278145695365 L 96.62565875866088,92.58278145695365 L 98.11794307480706,92.58278145695365 L 98.14673664030484,92.58278145695365 L 98.17108664373448,92.58278145695365 L 99.65996661797368,92.58278145695365 L 99.69259454751408,92.58278145695365 L 99.72434451519426,92.58278145695365 L 101.2151954242217,92.58278145695365 L 101.23019244620157,92.58278145695365 L 101.26858983939492,92.58278145695365 L 102.7629346782743,92.58278145695365 L 102.79291080464503,92.58278145695365 L 102.82788593834239,92.58278145695365 L 104.31094269616167,92.58278145695365 L 104.33740697509148,92.58278145695365 L 104.37324215306008,92.58278145695365 L 105.85617348775646,92.58278145695365 L 105.88618544930517,92.58278145695365 L 105.91947632963799,92.58278145695365 L 107.40771127067374,92.58278145695365 L 107.42957072923458,92.58278145695365 L 107.46060399335538,92.58278145695365 L 108.95143698479386,92.58278145695365 L 108.97634243348203,92.58278145695365 L 109.00846867053087,92.58278145695365 L 110.50241932245261,92.58278145695365 L 110.53180416838686,92.58278145695365 L 110.5574442382234,92.58278145695365 L 112.04933436741193,92.58278145695365 L 112.08215939043116,92.58278145695365 L 112.10507598674208,92.58278145695365 L 113.59942082562148,92.58278145695365 L 113.62830397906416,92.58278145695365 L 113.661559024219,92.58278145695365 L 115.14800220635634,92.58278145695365 L 115.17618657382863,92.58278145695365 L 115.21021207530981,92.58278145695365 L 116.69516809756144,92.58278145695365 L 116.72082608498695,92.58278145695365 L 116.75284481650189,92.58278145695365 L 118.24464535774551,92.58278145695365 L 118.27263263173899,92.58278145695365 L 118.30508138538954,92.58278145695365 L 119.78883692917921,92.58278145695365 L 119.82644594845725,92.58278145695365 L 119.84821581907318,92.58278145695365 L 121.33714954607932,92.58278145695365 L 121.36644480406865,92.58278145695365 L 121.3955967213461,92.58278145695365 L 122.88109027126724,92.58278145695365 L 122.91341360179491,92.58278145695365 L 122.94043332598324,92.58278145695365 L 124.02057726031262,92.58278145695365 L 124.43578154984574,92.58278145695365 L 124.46790778689459,92.58278145695365 L 124.50175411248594,92.58278145695365 L 125.9836820621992,92.58278145695365 L 126.01177684172657,92.58278145695365 L 126.04467353510175,92.58278145695365 L 127.52986248601017,92.58278145695365 L 127.55152485109218,92.58278145695365 L 127.58786172155234,92.58278145695365 L 129.08002061457563,92.58278145695365 L 129.10707617394195,92.58278145695365 L 129.13853946019836,92.58278145695365 L 130.62818989076385,92.58278145695365 L 130.6606744795924,92.58278145695365 L 130.69414453581507,92.58278145695365 L 132.17438823216384,92.58278145695365 L 132.20205298955557,92.58278145695365 L 132.23847944796066,92.58278145695365 L 133.72678605935232,92.58278145695365 L 133.75038352404465,92.58278145695365 L 133.77944585337718,92.58278145695365 L 135.2735577635998,92.58278145695365 L 135.30706365500043,92.58278145695365 L 135.33843735331192,92.58278145695365 L 136.82074157239387,92.58278145695365 L 136.85089687465444,92.58278145695365 L 136.88476111783476,92.58278145695365 L 138.3666353147811,92.58278145695365 L 138.39603807830431,92.58278145695365 L 138.42918561792527,92.58278145695365 L 139.91794016904157,92.58278145695365 L 139.94542575054348,92.58278145695365 L 139.97353844765985,92.58278145695365 L 141.46426393356438,92.58278145695365 L 141.49205411407905,92.58278145695365 L 141.52545249994574,92.58278145695365 L 143.0034385800825,92.58278145695365 L 143.04024130785623,92.58278145695365 L 143.07111331367616,92.58278145695365 L 144.5595991009577,92.58278145695365 L 144.58133313639564,92.58278145695365 L 144.62041139797043,92.58278145695365 L 146.10952430086638,92.58278145695365 L 146.14218806558478,92.58278145695365 L 146.17660775402362,92.58278145695365 L 147.65980785255476,92.58278145695365 L 147.68969439098058,92.58278145695365 L 147.72135477071583,92.58278145695365 L 149.1987137352381,92.58278145695365 L 149.23118040647768,92.58278145695365 L 149.26355748977227,92.58278145695365 L 150.75157741974022,92.58278145695365 L 150.78196565065758,92.58278145695365 L 150.81668993810916,92.58278145695365 L 152.3001408828861,92.58278145695365 L 152.3281102392906,92.58278145695365 L 152.35898224511052,92.58278145695365 L 153.8493493792354,92.58278145695365 L 153.86927373818594,92.58278145695365 L 153.91818875611307,92.58278145695365 L 155.39479518189802,92.58278145695365 L 155.42495048415856,92.58278145695365 L 155.45469368187253,92.58278145695365 L 156.9457416843788,92.58278145695365 L 156.97998219692778,92.58278145695365 L 157.01114088417148,92.58278145695365 L 158.49306883388476,92.58278145695365 L 158.52322413614533,92.58278145695365 L 158.55798425877487,92.58278145695365 L 160.03903424662792,92.58278145695365 L 160.06866993880794,92.58278145695365 L 160.0956717454073,92.58278145695365 L 161.58946113902815,92.58278145695365 L 161.6200822986023,92.58278145695365 L 161.6516172552147,92.58278145695365 L 163.14219940040738,92.58278145695365 L 163.17101088349412,92.58278145695365 L 163.19942817962323,92.58278145695365 L 164.68447378981975,92.58278145695365 L 164.71527412528377,40 L 164.74736452715464,40 L 166.238340859305,40 L 166.25971654296325,40 L 166.28919097684243,40 L 167.78255034832767,40 L 167.8064524120327,40 L 167.84886334515855,40 L 169.33247554823635,40 L 169.36395675208178,40 L 169.39160359188455,40 L 170.87428408033514,40 L 170.90877543912993,40 L 170.94255009436532,40 L 172.4318959259181,40 L 172.44716171173272,40 L 172.48853342469747,40 L 173.9768758712671,40 L 174.00950380080752,40 L 174.04636028134823,40 L 175.5250809826333,40 L 175.55582756533036,40 L 175.59522834350685,40 L 177.0707776315417,40 L 177.10347723143803,40 L 177.14162377838562,40 L 178.62743984490848,40 L 178.66386630331354,40 L 180.16957089360898,40 L 180.24616858651686,40 L 181.71790142809806,40 L 181.7559763046897,40 L 181.79211608167103,40 L 183.26560484697268,40 L 183.30572232870853,40 L 183.33333333333334,40" fill="none" stroke="none"/>
  </g>
  
  <!-- Footer -->
  <text x="400" y="580" text-anchor="middle" fill="#64748b" font-size="12" font-family="Arial, sans-serif">
    Generated by GitHub User Rank Tracker • 2/4/2026
    <animate attributeName="opacity" values="0;1" dur="0.5s" begin="5s" fill="freeze"/>
  </text>
</svg>