<svg width="800" height="600" xmlns="http://www.w3.org/2000/svg">
  <defs>
    <linearGradient id="bgGradient" x1="0%" y1="0%" x2="100%" y2="100%">
      <stop offset="0%" style="stop-color:#1e293b;stop-opacity:1" />
      <stop offset="100%" style="stop-color:#0f172a;stop-opacity:1" />
    </linearGradient>
    <filter id="shadow" x="-20%" y="-20%" width="140%" height="140%">
      <feDropShadow dx="2" dy="2" stdDeviation="3" flood-color="#000" flood-opacity="0.3"/>
    </filter>
    <!-- Trail effect filter -->
    <filter id="trailGlow" x="-50%" y="-50%" width="200%" height="200%">
      <feGaussianBlur stdDeviation="3" result="coloredBlur"/>
      <feMerge> 
        <feMergeNode in="coloredBlur"/>
        <feMergeNode in="SourceGraphic"/>
      </feMerge>
    </filter>
  </defs>
  
  <!-- Background -->
  <rect width="800" height="600" fill="url(#bgGradient)" rx="12"/>
  
  <!-- Header -->
  <text x="400" y="40" text-anchor="middle" fill="#f8fafc" font-size="24" font-weight="bold" font-family="Arial, sans-serif">
    GitHub Progress Report
    <animate attributeName="opacity" values="0;1" dur="0.8s" begin="0s" fill="freeze"/>
    <animateTransform attributeName="transform" type="translate" values="0,-20;0,0" dur="0.8s" begin="0s" fill="freeze"/>
  </text>
  
  <!-- User Info -->
  <text x="400" y="70" text-anchor="middle" fill="#cbd5e1" font-size="16" font-family="Arial, sans-serif">
    @maifeeulasad • BANGLADESH • 100 days analyzed
    <animate attributeName="opacity" values="0;1" dur="0.6s" begin="0.3s" fill="freeze"/>
  </text>
  
  <!-- Progress Cards -->
  <!-- Followers Card -->
  <g transform="translate(60, 100)">
    <rect width="206.66666666666666" height="120" fill="#1e293b" stroke="#334155" stroke-width="1" rx="8" filter="url(#shadow)">
      <animate attributeName="opacity" values="0;1" dur="0.6s" begin="0.2s" fill="freeze"/>
      <animateTransform attributeName="transform" type="scale" values="0.8;1" dur="0.6s" begin="0.2s" fill="freeze"/>
    </rect>
    <text x="103.33333333333333" y="25" text-anchor="middle" fill="#94a3b8" font-size="14" font-weight="bold" font-family="Arial, sans-serif">FOLLOWERS
      <animate attributeName="opacity" values="0;1" dur="0.5s" begin="0.4s" fill="freeze"/>
    </text>
    
    <text x="103.33333333333333" y="50" text-anchor="middle" fill="#ef4444" font-size="32" font-weight="bold" font-family="Arial, sans-serif">
      ↘
      <animate attributeName="opacity" values="0;1" dur="0.5s" begin="0.6s" fill="freeze"/>
      <animateTransform attributeName="transform" type="scale" values="0;1.2;1" dur="0.8s" begin="0.6s" fill="freeze"/>
    </text>
    
    <text x="103.33333333333333" y="75" text-anchor="middle" fill="#f8fafc" font-size="18" font-weight="bold" font-family="Arial, sans-serif">
      -23
      <animate attributeName="opacity" values="0;1" dur="0.5s" begin="0.8s" fill="freeze"/>
    </text>
    
    <text x="103.33333333333333" y="95" text-anchor="middle" fill="#94a3b8" font-size="12" font-family="Arial, sans-serif">
      #458 → #481
      <animate attributeName="opacity" values="0;1" dur="0.5s" begin="1s" fill="freeze"/>
    </text>
  </g>
  
  <!-- Public Contributions Card -->
  <g transform="translate(296.66666666666663, 100)">
    <rect width="206.66666666666666" height="120" fill="#1e293b" stroke="#334155" stroke-width="1" rx="8" filter="url(#shadow)">
      <animate attributeName="opacity" values="0;1" dur="0.6s" begin="0.4s" fill="freeze"/>
      <animateTransform attributeName="transform" type="scale" values="0.8;1" dur="0.6s" begin="0.4s" fill="freeze"/>
    </rect>
    <text x="103.33333333333333" y="25" text-anchor="middle" fill="#94a3b8" font-size="14" font-weight="bold" font-family="Arial, sans-serif">PUBLIC
      <animate attributeName="opacity" values="0;1" dur="0.5s" begin="0.6s" fill="freeze"/>
    </text>
    
    <text x="103.33333333333333" y="50" text-anchor="middle" fill="#ef4444" font-size="32" font-weight="bold" font-family="Arial, sans-serif">
      ↘
      <animate attributeName="opacity" values="0;1" dur="0.5s" begin="0.8s" fill="freeze"/>
      <animateTransform attributeName="transform" type="scale" values="0;1.2;1" dur="0.8s" begin="0.8s" fill="freeze"/>
    </text>
    
    <text x="103.33333333333333" y="75" text-anchor="middle" fill="#f8fafc" font-size="18" font-weight="bold" font-family="Arial, sans-serif">
      -1
      <animate attributeName="opacity" values="0;1" dur="0.5s" begin="1s" fill="freeze"/>
    </text>
    
    <text x="103.33333333333333" y="95" text-anchor="middle" fill="#94a3b8" font-size="12" font-family="Arial, sans-serif">
      #6 → #7
      <animate attributeName="opacity" values="0;1" dur="0.5s" begin="1.2s" fill="freeze"/>
    </text>
  </g>
  
  <!-- Total Contributions Card -->
  <g transform="translate(533.3333333333333, 100)">
    <rect width="206.66666666666666" height="120" fill="#1e293b" stroke="#334155" stroke-width="1" rx="8" filter="url(#shadow)">
      <animate attributeName="opacity" values="0;1" dur="0.6s" begin="0.6s" fill="freeze"/>
      <animateTransform attributeName="transform" type="scale" values="0.8;1" dur="0.6s" begin="0.6s" fill="freeze"/>
    </rect>
    <text x="103.33333333333333" y="25" text-anchor="middle" fill="#94a3b8" font-size="14" font-weight="bold" font-family="Arial, sans-serif">TOTAL
      <animate attributeName="opacity" values="0;1" dur="0.5s" begin="0.8s" fill="freeze"/>
    </text>
    
    <text x="103.33333333333333" y="50" text-anchor="middle" fill="#22c55e" font-size="32" font-weight="bold" font-family="Arial, sans-serif">
      ↗
      <animate attributeName="opacity" values="0;1" dur="0.5s" begin="1s" fill="freeze"/>
      <animateTransform attributeName="transform" type="scale" values="0;1.2;1" dur="0.8s" begin="1s" fill="freeze"/>
    </text>
    
    <text x="103.33333333333333" y="75" text-anchor="middle" fill="#f8fafc" font-size="18" font-weight="bold" font-family="Arial, sans-serif">
      +6
      <animate attributeName="opacity" values="0;1" dur="0.5s" begin="1.2s" fill="freeze"/>
    </text>
    
    <text x="103.33333333333333" y="95" text-anchor="middle" fill="#94a3b8" font-size="12" font-family="Arial, sans-serif">
      #18 → #12
      <animate attributeName="opacity" values="0;1" dur="0.5s" begin="1.4s" fill="freeze"/>
    </text>
  </g>
  
  <!-- Timeline Charts (if we have snapshots) -->
  
  <!-- 👥 Followers Count Chart -->
  <g transform="translate(60, 250)">
    <!-- Chart Background -->
    <rect x="0" y="0" width="213.33333333333334" height="200" fill="#0f172a" stroke="#334155" stroke-width="1" rx="8" filter="url(#shadow)">
      <animate attributeName="opacity" values="0;1" dur="0.5s" begin="1.8s" fill="freeze"/>
    </rect>
    
    <!-- Chart Title -->
    <text x="106.66666666666667" y="25" text-anchor="middle" fill="#f8fafc" font-size="14" font-weight="bold" font-family="Arial, sans-serif">
      👥 Followers Count
      <animate attributeName="opacity" values="0;1" dur="0.5s" begin="2s" fill="freeze"/>
    </text>
    
    <!-- Y-axis labels -->
    <text x="10" y="45" fill="#94a3b8" font-size="10" font-family="Arial, sans-serif">154
      <animate attributeName="opacity" values="0;1" dur="0.5s" begin="2.2s" fill="freeze"/>
    </text>
    <text x="10" y="185" fill="#94a3b8" font-size="10" font-family="Arial, sans-serif">149
      <animate attributeName="opacity" values="0;1" dur="0.5s" begin="2.2s" fill="freeze"/>
    </text>
    
    <!-- Chart Line with draw animation that follows the circle -->
    <path d="M 30,160 L 30.027636282029402,160 L 30.056849731904844,160 L 31.547793094903582,160 L 31.57440780230544,160 L 31.605126730579368,160 L 33.09732465891018,160 L 33.12530146581543,160 L 33.150894598589744,160 L 34.64366604250093,160 L 34.67133816925411,160 L 34.70040824023445,160 L 36.199058218844506,160 L 36.22821790163429,160 L 36.25870383920369,160 L 37.7416896735247,160 L 37.77101065757146,136 L 37.80142490569331,136 L 39.29645456720223,136 L 39.317280351714665,136 L 39.34561560585765,136 L 40.839157711329975,136 L 40.85908737774806,136 L 40.897172396757455,136 L 42.389854228859214,136 L 42.41865546441126,136 L 42.44301195421538,136 L 43.93228853755865,136 L 43.964925158554465,136 L 43.99668358381782,136 L 45.48793162696864,136 L 45.502932643867865,136 L 45.54134026539122,136 L 47.03608316910996,136 L 47.06606728054652,136 L 47.10105173094951,136 L 48.58450354667957,136 L 48.610974875186336,136 L 48.64681959895988,136 L 50.130145958156746,136 L 50.16016591431708,136 L 50.19346566270271,136 L 51.682097041018054,136 L 51.703962322519914,136 L 51.7350038533078,136 L 53.22623397409673,136 L 53.25114605711935,136 L 53.283280851982326,136 L 54.77762946373956,136 L 54.807022137233865,136 L 54.83266903709384,136 L 56.32495657723408,136 L 56.357790344210656,136 L 56.38071304506383,136 L 57.875455948782566,136 L 57.90434679614405,136 L 57.937610699805894,136 L 59.42444984193256,136 L 59.452641717180455,136 L 59.48667628240344,136 L 60.9720278684935,136 L 60.99769269071536,136 L 61.02971995140702,136 L 62.521917879737835,136 L 62.54991260900498,136 L 62.58237000638192,136 L 64.06652079422557,136 L 64.1041398318259,136 L 64.12591550151834,136 L 65.61524585194726,136 L 65.64454891363215,136 L 65.67370859642192,136 L 67.15959785336858,136 L 67.19192979421233,136 L 67.21895671593758,136 L 68.29938837991978,136 L 68.71470327192196,136 L 68.74683806678496,136 L 68.78069340838907,136 L 70.26301611532027,136 L 70.29111837875874,136 L 70.32402383518286,136 L 71.80960841197745,136 L 71.83127654749855,136 L 71.86762309740492,136 L 73.36017947297347,136 L 73.3872422394225,136 L 73.41871390689568,136 L 74.90876115180006,136 L 74.94125439390079,136 L 74.97473336590528,136 L 76.45537137081914,136 L 76.48304349757231,136 L 76.51947965928811,136 L 78.00818272705101,136 L 78.03178647765588,136 L 78.06085654863622,136 L 79.55536646165044,136 L 79.5888812783787,136 L 79.62026333404245,136 L 81.10296241057327,136 L 81.1331257456287,136 L 81.16699900959469,136 L 82.64926794944024,136 L 82.67867854529644,136 L 82.71183491478698,136 L 84.20098604159702,136 L 84.22847894473134,136 L 84.25659913053168,136 L 85.74772171714929,136 L 85.77551930043568,136 L 85.80892658299263,136 L 87.28730637030873,136 L 87.32411890162416,136 L 87.35499913115507,136 L 88.84388142253682,136 L 88.86562124750549,136 L 88.90470991878054,136 L 90.39421949282834,136 L 90.42689195854791,136 L 90.46132081573242,136 L 91.94491601035756,136 L 91.9748105099847,136 L 92.00647932343864,136 L 93.48423182808871,136 L 93.51670714782755,136 L 93.54909285575694,136 L 95.03750916572965,136 L 95.06790549148961,136 L 95.10263902882618,136 L 96.58648513651775,136 L 96.614461943423,136 L 96.64534217295392,136 L 98.13610631233378,136 L 98.15603597875187,136 L 98.20496402670277,136 L 99.6819637921536,136 L 99.71212712720903,136 L 99.74187824794107,136 L 101.23332343707264,136 L 101.26757307063826,136 L 101.29874005795936,136 L 102.78106276489056,136 L 102.811226099946,136 L 102.84599548200634,136 L 104.32743999320509,136 L 104.35708357976581,136 L 104.38409257912919,136 L 105.87827988962943,136 L 105.90890920609392,136 L 105.94045256301465,136 L 107.43143177073715,136 L 107.46025092865108,136 L 107.48867579460351,136 L 108.974116992503,136 L 109.00492553258637,63.99999999999999 L 109.03702448272558,63.99999999999999 L 110.52839798240959,63.99999999999999 L 110.54977936014052,63.99999999999999 L 110.57926164544426,63.99999999999999 L 112.07301881925922,63.99999999999999 L 112.09692725001618,63.99999999999999 L 112.13934948060216,63.99999999999999 L 113.62335688955072,63.99999999999999 L 113.65484647938578,63.99999999999999 L 113.68250068377708,63.99999999999999 L 115.16557612990752,63.99999999999999 L 115.20007667653957,63.99999999999999 L 115.23386032869612,63.99999999999999 L 116.72360289344844,63.99999999999999 L 116.73887274577598,63.99999999999999 L 116.78025547937253,63.99999999999999 L 118.2689943918592,63.99999999999999 L 118.30163101285501,63.99999999999999 L 118.3384973112561,63.99999999999999 L 119.81761191540959,63.99999999999999 L 119.84836668840727,63.99999999999999 L 119.88777796219628,63.99999999999999 L 121.3637203082958,63.99999999999999 L 121.39642861873915,63.99999999999999 L 121.4345853271961,63.99999999999999 L 122.92079718665673,63.99999999999999 L 122.95723334837253,63.99999999999999 L 124.46333902952749,63.99999999999999 L 124.53995712659344,63.99999999999999 L 126.01208200961106,63.99999999999999 L 126.05016702862045,63.99999999999999 L 126.08631643254608,63.99999999999999 L 127.5601977070286,63.99999999999999 L 127.6003258752931,63.99999999999999 L 127.62794423496061,63.99999999999999 L 129.11196956627106,63.99999999999999 L 129.14555607244688,63.99999999999999 L 129.18326472185663,63.99999999999999 L 130.65501323527465,63.99999999999999 L 130.68858181908857,63.99999999999999 L 130.726344235584,63.99999999999999 L 132.20587105406085,63.99999999999999 L 132.2388661222944,63.99999999999999 L 132.2742627870208,63.99999999999999 L 133.75982944145352,63.99999999999999 L 133.8031836348576,63.99999999999999 L 135.3425711420363,63.99999999999999 L 135.383613350757,63.99999999999999 L 136.86030843605573,63.99999999999999 L 136.89414585529798,63.99999999999999 L 138.41285095685933,63.99999999999999 L 138.44167011477327,63.99999999999999 L 138.48912852904942,63.99999999999999 L 139.94947842030746,63.99999999999999 L 139.9824555661791,63.99999999999999 L 140.01776261909606,63.99999999999999 L 141.49983441296084,63.99999999999999 L 141.53883347242646,63.99999999999999 L 141.57797591078716,63.99999999999999 L 143.04558435860932,63.99999999999999 L 143.0771994049776,63.99999999999999 L 143.11562494886283,63.99999999999999 L 144.5928218602944,63.99999999999999 L 144.6287561958774,63.99999999999999 L 144.67573070638264,63.99999999999999 L 146.1365286566878,63.99999999999999 L 146.17742748651344,63.99999999999999 L 146.21701798392132,63.99999999999999 L 147.6921717460978,63.99999999999999 L 147.7250772025219,63.99999999999999 L 147.76264247303658,63.99999999999999 L 149.2406279683912,63.99999999999999 L 149.27392771677683,63.99999999999999 L 149.31231741593828,63.99999999999999 L 150.78711273087703,63.99999999999999 L 150.82571749838115,63.99999999999999 L 150.86731530032034,63.99999999999999 L 152.33716404337838,63.99999999999999 L 152.36790089401416,63.99999999999999 L 152.40494641603414,63.99999999999999 L 153.8870182098989,63.99999999999999 L 153.91460072484267,63.99999999999999 L 153.95227352952867,63.99999999999999 L 155.43163904674856,63.99999999999999 L 155.46699986675114,63.99999999999999 L 155.50605269330242,63.99999999999999 L 156.98118853311703,63.99999999999999 L 157.01871795890793,63.99999999999999 L 157.05863105882977,63.99999999999999 L 158.53383858809192,63.99999999999999 L 158.56099096635037,63.99999999999999 L 158.59982872455902,63.99999999999999 L 160.08104024505323,63.99999999999999 L 160.11761978566415,63.99999999999999 L 160.15023848429806,63.99999999999999 L 161.62485457561797,63.99999999999999 L 161.65833354762245,63.99999999999999 L 161.6968845480409,63.99999999999999 L 163.17065828835212,63.99999999999999 L 163.21127036038754,63.99999999999999 L 163.24842341657882,63.99999999999999 L 164.72259144885155,63.99999999999999 L 164.7532386876779,63.99999999999999 L 164.7876496225005,63.99999999999999 L 166.27723088599586,63.99999999999999 L 166.31463485525356,63.99999999999999 L 166.35673448332557,63.99999999999999 L 167.82448631004283,63.99999999999999 L 167.8578935925998,63.99999999999999 L 167.89130087515673,63.99999999999999 L 169.3694835164921,63.99999999999999 L 169.4065828055977,63.99999999999999 L 169.44307273439918,63.99999999999999 L 170.91136223197304,63.99999999999999 L 170.95165170149448,63.99999999999999 L 170.99000555593219,63.99999999999999 L 172.45861765602,63.99999999999999 L 172.4988892031796,63.99999999999999 L 172.54308574759236,63.99999999999999 L 174.02159099144168,63.99999999999999 L 174.05361825213333,63.99999999999999 L 174.0950368304537,63.99999999999999 L 175.56621182829133,63.99999999999999 L 175.5938839550445,63.99999999999999 L 175.6289580172569,63.99999999999999 L 177.11031291664622,63.99999999999999 L 177.1469283019809,63.99999999999999 L 177.1840634358103,63.99999999999999 L 178.65957564522452,63.99999999999999 L 178.6915491388305,63.99999999999999 L 178.7328960277033,63.99999999999999 L 180.20772718736583,63.99999999999999 L 180.23989782695259,63.99999999999999 L 180.27800076832386,63.99999999999999 L 181.75670315815393,63.99999999999999 L 181.78822859271278,63.99999999999999 L 181.82237069210709,63.99999999999999 L 183.30349260079186,40 L 183.33333333333334,40" stroke="#22c55e" stroke-width="2" fill="none" stroke-dasharray="14750" stroke-dashoffset="14750">
      <animate attributeName="stroke-dashoffset" values="14750;0" dur="3s" begin="2.6s" fill="freeze"/>
    </path>
    
    <!-- Glow effect for the line that also follows the circle -->
    <path d="M 30,160 L 30.027636282029402,160 L 30.056849731904844,160 L 31.547793094903582,160 L 31.57440780230544,160 L 31.605126730579368,160 L 33.09732465891018,160 L 33.12530146581543,160 L 33.150894598589744,160 L 34.64366604250093,160 L 34.67133816925411,160 L 34.70040824023445,160 L 36.199058218844506,160 L 36.22821790163429,160 L 36.25870383920369,160 L 37.7416896735247,160 L 37.77101065757146,136 L 37.80142490569331,136 L 39.29645456720223,136 L 39.317280351714665,136 L 39.34561560585765,136 L 40.839157711329975,136 L 40.85908737774806,136 L 40.897172396757455,136 L 42.389854228859214,136 L 42.41865546441126,136 L 42.44301195421538,136 L 43.93228853755865,136 L 43.964925158554465,136 L 43.99668358381782,136 L 45.48793162696864,136 L 45.502932643867865,136 L 45.54134026539122,136 L 47.03608316910996,136 L 47.06606728054652,136 L 47.10105173094951,136 L 48.58450354667957,136 L 48.610974875186336,136 L 48.64681959895988,136 L 50.130145958156746,136 L 50.16016591431708,136 L 50.19346566270271,136 L 51.682097041018054,136 L 51.703962322519914,136 L 51.7350038533078,136 L 53.22623397409673,136 L 53.25114605711935,136 L 53.283280851982326,136 L 54.77762946373956,136 L 54.807022137233865,136 L 54.83266903709384,136 L 56.32495657723408,136 L 56.357790344210656,136 L 56.38071304506383,136 L 57.875455948782566,136 L 57.90434679614405,136 L 57.937610699805894,136 L 59.42444984193256,136 L 59.452641717180455,136 L 59.48667628240344,136 L 60.9720278684935,136 L 60.99769269071536,136 L 61.02971995140702,136 L 62.521917879737835,136 L 62.54991260900498,136 L 62.58237000638192,136 L 64.06652079422557,136 L 64.1041398318259,136 L 64.12591550151834,136 L 65.61524585194726,136 L 65.64454891363215,136 L 65.67370859642192,136 L 67.15959785336858,136 L 67.19192979421233,136 L 67.21895671593758,136 L 68.29938837991978,136 L 68.71470327192196,136 L 68.74683806678496,136 L 68.78069340838907,136 L 70.26301611532027,136 L 70.29111837875874,136 L 70.32402383518286,136 L 71.80960841197745,136 L 71.83127654749855,136 L 71.86762309740492,136 L 73.36017947297347,136 L 73.3872422394225,136 L 73.41871390689568,136 L 74.90876115180006,136 L 74.94125439390079,136 L 74.97473336590528,136 L 76.45537137081914,136 L 76.48304349757231,136 L 76.51947965928811,136 L 78.00818272705101,136 L 78.03178647765588,136 L 78.06085654863622,136 L 79.55536646165044,136 L 79.5888812783787,136 L 79.62026333404245,136 L 81.10296241057327,136 L 81.1331257456287,136 L 81.16699900959469,136 L 82.64926794944024,136 L 82.67867854529644,136 L 82.71183491478698,136 L 84.20098604159702,136 L 84.22847894473134,136 L 84.25659913053168,136 L 85.74772171714929,136 L 85.77551930043568,136 L 85.80892658299263,136 L 87.28730637030873,136 L 87.32411890162416,136 L 87.35499913115507,136 L 88.84388142253682,136 L 88.86562124750549,136 L 88.90470991878054,136 L 90.39421949282834,136 L 90.42689195854791,136 L 90.46132081573242,136 L 91.94491601035756,136 L 91.9748105099847,136 L 92.00647932343864,136 L 93.48423182808871,136 L 93.51670714782755,136 L 93.54909285575694,136 L 95.03750916572965,136 L 95.06790549148961,136 L 95.10263902882618,136 L 96.58648513651775,136 L 96.614461943423,136 L 96.64534217295392,136 L 98.13610631233378,136 L 98.15603597875187,136 L 98.20496402670277,136 L 99.6819637921536,136 L 99.71212712720903,136 L 99.74187824794107,136 L 101.23332343707264,136 L 101.26757307063826,136 L 101.29874005795936,136 L 102.78106276489056,136 L 102.811226099946,136 L 102.84599548200634,136 L 104.32743999320509,136 L 104.35708357976581,136 L 104.38409257912919,136 L 105.87827988962943,136 L 105.90890920609392,136 L 105.94045256301465,136 L 107.43143177073715,136 L 107.46025092865108,136 L 107.48867579460351,136 L 108.974116992503,136 L 109.00492553258637,63.99999999999999 L 109.03702448272558,63.99999999999999 L 110.52839798240959,63.99999999999999 L 110.54977936014052,63.99999999999999 L 110.57926164544426,63.99999999999999 L 112.07301881925922,63.99999999999999 L 112.09692725001618,63.99999999999999 L 112.13934948060216,63.99999999999999 L 113.62335688955072,63.99999999999999 L 113.65484647938578,63.99999999999999 L 113.68250068377708,63.99999999999999 L 115.16557612990752,63.99999999999999 L 115.20007667653957,63.99999999999999 L 115.23386032869612,63.99999999999999 L 116.72360289344844,63.99999999999999 L 116.73887274577598,63.99999999999999 L 116.78025547937253,63.99999999999999 L 118.2689943918592,63.99999999999999 L 118.30163101285501,63.99999999999999 L 118.3384973112561,63.99999999999999 L 119.81761191540959,63.99999999999999 L 119.84836668840727,63.99999999999999 L 119.88777796219628,63.99999999999999 L 121.3637203082958,63.99999999999999 L 121.39642861873915,63.99999999999999 L 121.4345853271961,63.99999999999999 L 122.92079718665673,63.99999999999999 L 122.95723334837253,63.99999999999999 L 124.46333902952749,63.99999999999999 L 124.53995712659344,63.99999999999999 L 126.01208200961106,63.99999999999999 L 126.05016702862045,63.99999999999999 L 126.08631643254608,63.99999999999999 L 127.5601977070286,63.99999999999999 L 127.6003258752931,63.99999999999999 L 127.62794423496061,63.99999999999999 L 129.11196956627106,63.99999999999999 L 129.14555607244688,63.99999999999999 L 129.18326472185663,63.99999999999999 L 130.65501323527465,63.99999999999999 L 130.68858181908857,63.99999999999999 L 130.726344235584,63.99999999999999 L 132.20587105406085,63.99999999999999 L 132.2388661222944,63.99999999999999 L 132.2742627870208,63.99999999999999 L 133.75982944145352,63.99999999999999 L 133.8031836348576,63.99999999999999 L 135.3425711420363,63.99999999999999 L 135.383613350757,63.99999999999999 L 136.86030843605573,63.99999999999999 L 136.89414585529798,63.99999999999999 L 138.41285095685933,63.99999999999999 L 138.44167011477327,63.99999999999999 L 138.48912852904942,63.99999999999999 L 139.94947842030746,63.99999999999999 L 139.9824555661791,63.99999999999999 L 140.01776261909606,63.99999999999999 L 141.49983441296084,63.99999999999999 L 141.53883347242646,63.99999999999999 L 141.57797591078716,63.99999999999999 L 143.04558435860932,63.99999999999999 L 143.0771994049776,63.99999999999999 L 143.11562494886283,63.99999999999999 L 144.5928218602944,63.99999999999999 L 144.6287561958774,63.99999999999999 L 144.67573070638264,63.99999999999999 L 146.1365286566878,63.99999999999999 L 146.17742748651344,63.99999999999999 L 146.21701798392132,63.99999999999999 L 147.6921717460978,63.99999999999999 L 147.7250772025219,63.99999999999999 L 147.76264247303658,63.99999999999999 L 149.2406279683912,63.99999999999999 L 149.27392771677683,63.99999999999999 L 149.31231741593828,63.99999999999999 L 150.78711273087703,63.99999999999999 L 150.82571749838115,63.99999999999999 L 150.86731530032034,63.99999999999999 L 152.33716404337838,63.99999999999999 L 152.36790089401416,63.99999999999999 L 152.40494641603414,63.99999999999999 L 153.8870182098989,63.99999999999999 L 153.91460072484267,63.99999999999999 L 153.95227352952867,63.99999999999999 L 155.43163904674856,63.99999999999999 L 155.46699986675114,63.99999999999999 L 155.50605269330242,63.99999999999999 L 156.98118853311703,63.99999999999999 L 157.01871795890793,63.99999999999999 L 157.05863105882977,63.99999999999999 L 158.53383858809192,63.99999999999999 L 158.56099096635037,63.99999999999999 L 158.59982872455902,63.99999999999999 L 160.08104024505323,63.99999999999999 L 160.11761978566415,63.99999999999999 L 160.15023848429806,63.99999999999999 L 161.62485457561797,63.99999999999999 L 161.65833354762245,63.99999999999999 L 161.6968845480409,63.99999999999999 L 163.17065828835212,63.99999999999999 L 163.21127036038754,63.99999999999999 L 163.24842341657882,63.99999999999999 L 164.72259144885155,63.99999999999999 L 164.7532386876779,63.99999999999999 L 164.7876496225005,63.99999999999999 L 166.27723088599586,63.99999999999999 L 166.31463485525356,63.99999999999999 L 166.35673448332557,63.99999999999999 L 167.82448631004283,63.99999999999999 L 167.8578935925998,63.99999999999999 L 167.89130087515673,63.99999999999999 L 169.3694835164921,63.99999999999999 L 169.4065828055977,63.99999999999999 L 169.44307273439918,63.99999999999999 L 170.91136223197304,63.99999999999999 L 170.95165170149448,63.99999999999999 L 170.99000555593219,63.99999999999999 L 172.45861765602,63.99999999999999 L 172.4988892031796,63.99999999999999 L 172.54308574759236,63.99999999999999 L 174.02159099144168,63.99999999999999 L 174.05361825213333,63.99999999999999 L 174.0950368304537,63.99999999999999 L 175.56621182829133,63.99999999999999 L 175.5938839550445,63.99999999999999 L 175.6289580172569,63.99999999999999 L 177.11031291664622,63.99999999999999 L 177.1469283019809,63.99999999999999 L 177.1840634358103,63.99999999999999 L 178.65957564522452,63.99999999999999 L 178.6915491388305,63.99999999999999 L 178.7328960277033,63.99999999999999 L 180.20772718736583,63.99999999999999 L 180.23989782695259,63.99999999999999 L 180.27800076832386,63.99999999999999 L 181.75670315815393,63.99999999999999 L 181.78822859271278,63.99999999999999 L 181.82237069210709,63.99999999999999 L 183.30349260079186,40 L 183.33333333333334,40" stroke="#22c55e" stroke-width="4" fill="none" opacity="0.4" stroke-dasharray="14750" stroke-dashoffset="14750">
      <animate attributeName="stroke-dashoffset" values="14750;0" dur="3s" begin="2.6s" fill="freeze"/>
    </path>
    
    <!-- Animated circle that moves along the path and draws the line -->
    <circle r="5" fill="#22c55e" opacity="0" filter="url(#trailGlow)">
      <animate attributeName="opacity" values="0;1;1;1" dur="3.2s" begin="2.4s" fill="freeze"/>
      <animate attributeName="r" values="5;6;5" dur="1s" begin="2.4s" repeatCount="3"/>
      <animateMotion dur="3s" begin="2.4s" fill="freeze">
        <mpath href="#path_followersCount_60"/>
      </animateMotion>
    </circle>
    
    <!-- Small trail dots that fade out -->
    <circle r="2" fill="#22c55e" opacity="0">
      <animate attributeName="opacity" values="0;0.6;0" dur="0.8s" begin="2.8s" fill="freeze"/>
      <animateMotion dur="3s" begin="2.4s" fill="freeze">
        <mpath href="#path_followersCount_60"/>
      </animateMotion>
    </circle>
    
    <!-- Hidden path for motion animation -->
    <path id="path_followersCount_60" d="M 30,160 L 30.027636282029402,160 L 30.056849731904844,160 L 31.547793094903582,160 L 31.57440780230544,160 L 31.605126730579368,160 L 33.09732465891018,160 L 33.12530146581543,160 L 33.150894598589744,160 L 34.64366604250093,160 L 34.67133816925411,160 L 34.70040824023445,160 L 36.199058218844506,160 L 36.22821790163429,160 L 36.25870383920369,160 L 37.7416896735247,160 L 37.77101065757146,136 L 37.80142490569331,136 L 39.29645456720223,136 L 39.317280351714665,136 L 39.34561560585765,136 L 40.839157711329975,136 L 40.85908737774806,136 L 40.897172396757455,136 L 42.389854228859214,136 L 42.41865546441126,136 L 42.44301195421538,136 L 43.93228853755865,136 L 43.964925158554465,136 L 43.99668358381782,136 L 45.48793162696864,136 L 45.502932643867865,136 L 45.54134026539122,136 L 47.03608316910996,136 L 47.06606728054652,136 L 47.10105173094951,136 L 48.58450354667957,136 L 48.610974875186336,136 L 48.64681959895988,136 L 50.130145958156746,136 L 50.16016591431708,136 L 50.19346566270271,136 L 51.682097041018054,136 L 51.703962322519914,136 L 51.7350038533078,136 L 53.22623397409673,136 L 53.25114605711935,136 L 53.283280851982326,136 L 54.77762946373956,136 L 54.807022137233865,136 L 54.83266903709384,136 L 56.32495657723408,136 L 56.357790344210656,136 L 56.38071304506383,136 L 57.875455948782566,136 L 57.90434679614405,136 L 57.937610699805894,136 L 59.42444984193256,136 L 59.452641717180455,136 L 59.48667628240344,136 L 60.9720278684935,136 L 60.99769269071536,136 L 61.02971995140702,136 L 62.521917879737835,136 L 62.54991260900498,136 L 62.58237000638192,136 L 64.06652079422557,136 L 64.1041398318259,136 L 64.12591550151834,136 L 65.61524585194726,136 L 65.64454891363215,136 L 65.67370859642192,136 L 67.15959785336858,136 L 67.19192979421233,136 L 67.21895671593758,136 L 68.29938837991978,136 L 68.71470327192196,136 L 68.74683806678496,136 L 68.78069340838907,136 L 70.26301611532027,136 L 70.29111837875874,136 L 70.32402383518286,136 L 71.80960841197745,136 L 71.83127654749855,136 L 71.86762309740492,136 L 73.36017947297347,136 L 73.3872422394225,136 L 73.41871390689568,136 L 74.90876115180006,136 L 74.94125439390079,136 L 74.97473336590528,136 L 76.45537137081914,136 L 76.48304349757231,136 L 76.51947965928811,136 L 78.00818272705101,136 L 78.03178647765588,136 L 78.06085654863622,136 L 79.55536646165044,136 L 79.5888812783787,136 L 79.62026333404245,136 L 81.10296241057327,136 L 81.1331257456287,136 L 81.16699900959469,136 L 82.64926794944024,136 L 82.67867854529644,136 L 82.71183491478698,136 L 84.20098604159702,136 L 84.22847894473134,136 L 84.25659913053168,136 L 85.74772171714929,136 L 85.77551930043568,136 L 85.80892658299263,136 L 87.28730637030873,136 L 87.32411890162416,136 L 87.35499913115507,136 L 88.84388142253682,136 L 88.86562124750549,136 L 88.90470991878054,136 L 90.39421949282834,136 L 90.42689195854791,136 L 90.46132081573242,136 L 91.94491601035756,136 L 91.9748105099847,136 L 92.00647932343864,136 L 93.48423182808871,136 L 93.51670714782755,136 L 93.54909285575694,136 L 95.03750916572965,136 L 95.06790549148961,136 L 95.10263902882618,136 L 96.58648513651775,136 L 96.614461943423,136 L 96.64534217295392,136 L 98.13610631233378,136 L 98.15603597875187,136 L 98.20496402670277,136 L 99.6819637921536,136 L 99.71212712720903,136 L 99.74187824794107,136 L 101.23332343707264,136 L 101.26757307063826,136 L 101.29874005795936,136 L 102.78106276489056,136 L 102.811226099946,136 L 102.84599548200634,136 L 104.32743999320509,136 L 104.35708357976581,136 L 104.38409257912919,136 L 105.87827988962943,136 L 105.90890920609392,136 L 105.94045256301465,136 L 107.43143177073715,136 L 107.46025092865108,136 L 107.48867579460351,136 L 108.974116992503,136 L 109.00492553258637,63.99999999999999 L 109.03702448272558,63.99999999999999 L 110.52839798240959,63.99999999999999 L 110.54977936014052,63.99999999999999 L 110.57926164544426,63.99999999999999 L 112.07301881925922,63.99999999999999 L 112.09692725001618,63.99999999999999 L 112.13934948060216,63.99999999999999 L 113.62335688955072,63.99999999999999 L 113.65484647938578,63.99999999999999 L 113.68250068377708,63.99999999999999 L 115.16557612990752,63.99999999999999 L 115.20007667653957,63.99999999999999 L 115.23386032869612,63.99999999999999 L 116.72360289344844,63.99999999999999 L 116.73887274577598,63.99999999999999 L 116.78025547937253,63.99999999999999 L 118.2689943918592,63.99999999999999 L 118.30163101285501,63.99999999999999 L 118.3384973112561,63.99999999999999 L 119.81761191540959,63.99999999999999 L 119.84836668840727,63.99999999999999 L 119.88777796219628,63.99999999999999 L 121.3637203082958,63.99999999999999 L 121.39642861873915,63.99999999999999 L 121.4345853271961,63.99999999999999 L 122.92079718665673,63.99999999999999 L 122.95723334837253,63.99999999999999 L 124.46333902952749,63.99999999999999 L 124.53995712659344,63.99999999999999 L 126.01208200961106,63.99999999999999 L 126.05016702862045,63.99999999999999 L 126.08631643254608,63.99999999999999 L 127.5601977070286,63.99999999999999 L 127.6003258752931,63.99999999999999 L 127.62794423496061,63.99999999999999 L 129.11196956627106,63.99999999999999 L 129.14555607244688,63.99999999999999 L 129.18326472185663,63.99999999999999 L 130.65501323527465,63.99999999999999 L 130.68858181908857,63.99999999999999 L 130.726344235584,63.99999999999999 L 132.20587105406085,63.99999999999999 L 132.2388661222944,63.99999999999999 L 132.2742627870208,63.99999999999999 L 133.75982944145352,63.99999999999999 L 133.8031836348576,63.99999999999999 L 135.3425711420363,63.99999999999999 L 135.383613350757,63.99999999999999 L 136.86030843605573,63.99999999999999 L 136.89414585529798,63.99999999999999 L 138.41285095685933,63.99999999999999 L 138.44167011477327,63.99999999999999 L 138.48912852904942,63.99999999999999 L 139.94947842030746,63.99999999999999 L 139.9824555661791,63.99999999999999 L 140.01776261909606,63.99999999999999 L 141.49983441296084,63.99999999999999 L 141.53883347242646,63.99999999999999 L 141.57797591078716,63.99999999999999 L 143.04558435860932,63.99999999999999 L 143.0771994049776,63.99999999999999 L 143.11562494886283,63.99999999999999 L 144.5928218602944,63.99999999999999 L 144.6287561958774,63.99999999999999 L 144.67573070638264,63.99999999999999 L 146.1365286566878,63.99999999999999 L 146.17742748651344,63.99999999999999 L 146.21701798392132,63.99999999999999 L 147.6921717460978,63.99999999999999 L 147.7250772025219,63.99999999999999 L 147.76264247303658,63.99999999999999 L 149.2406279683912,63.99999999999999 L 149.27392771677683,63.99999999999999 L 149.31231741593828,63.99999999999999 L 150.78711273087703,63.99999999999999 L 150.82571749838115,63.99999999999999 L 150.86731530032034,63.99999999999999 L 152.33716404337838,63.99999999999999 L 152.36790089401416,63.99999999999999 L 152.40494641603414,63.99999999999999 L 153.8870182098989,63.99999999999999 L 153.91460072484267,63.99999999999999 L 153.95227352952867,63.99999999999999 L 155.43163904674856,63.99999999999999 L 155.46699986675114,63.99999999999999 L 155.50605269330242,63.99999999999999 L 156.98118853311703,63.99999999999999 L 157.01871795890793,63.99999999999999 L 157.05863105882977,63.99999999999999 L 158.53383858809192,63.99999999999999 L 158.56099096635037,63.99999999999999 L 158.59982872455902,63.99999999999999 L 160.08104024505323,63.99999999999999 L 160.11761978566415,63.99999999999999 L 160.15023848429806,63.99999999999999 L 161.62485457561797,63.99999999999999 L 161.65833354762245,63.99999999999999 L 161.6968845480409,63.99999999999999 L 163.17065828835212,63.99999999999999 L 163.21127036038754,63.99999999999999 L 163.24842341657882,63.99999999999999 L 164.72259144885155,63.99999999999999 L 164.7532386876779,63.99999999999999 L 164.7876496225005,63.99999999999999 L 166.27723088599586,63.99999999999999 L 166.31463485525356,63.99999999999999 L 166.35673448332557,63.99999999999999 L 167.82448631004283,63.99999999999999 L 167.8578935925998,63.99999999999999 L 167.89130087515673,63.99999999999999 L 169.3694835164921,63.99999999999999 L 169.4065828055977,63.99999999999999 L 169.44307273439918,63.99999999999999 L 170.91136223197304,63.99999999999999 L 170.95165170149448,63.99999999999999 L 170.99000555593219,63.99999999999999 L 172.45861765602,63.99999999999999 L 172.4988892031796,63.99999999999999 L 172.54308574759236,63.99999999999999 L 174.02159099144168,63.99999999999999 L 174.05361825213333,63.99999999999999 L 174.0950368304537,63.99999999999999 L 175.56621182829133,63.99999999999999 L 175.5938839550445,63.99999999999999 L 175.6289580172569,63.99999999999999 L 177.11031291664622,63.99999999999999 L 177.1469283019809,63.99999999999999 L 177.1840634358103,63.99999999999999 L 178.65957564522452,63.99999999999999 L 178.6915491388305,63.99999999999999 L 178.7328960277033,63.99999999999999 L 180.20772718736583,63.99999999999999 L 180.23989782695259,63.99999999999999 L 180.27800076832386,63.99999999999999 L 181.75670315815393,63.99999999999999 L 181.78822859271278,63.99999999999999 L 181.82237069210709,63.99999999999999 L 183.30349260079186,40 L 183.33333333333334,40" fill="none" stroke="none"/>
  </g>
  <!-- 🔓 Public Contributions Chart -->
  <g transform="translate(293.33333333333337, 250)">
    <!-- Chart Background -->
    <rect x="0" y="0" width="213.33333333333334" height="200" fill="#0f172a" stroke="#334155" stroke-width="1" rx="8" filter="url(#shadow)">
      <animate attributeName="opacity" values="0;1" dur="0.5s" begin="2.3s" fill="freeze"/>
    </rect>
    
    <!-- Chart Title -->
    <text x="106.66666666666667" y="25" text-anchor="middle" fill="#f8fafc" font-size="14" font-weight="bold" font-family="Arial, sans-serif">
      🔓 Public Contributions
      <animate attributeName="opacity" values="0;1" dur="0.5s" begin="2.5s" fill="freeze"/>
    </text>
    
    <!-- Y-axis labels -->
    <text x="10" y="45" fill="#94a3b8" font-size="10" font-family="Arial, sans-serif">3,861
      <animate attributeName="opacity" values="0;1" dur="0.5s" begin="2.6999999999999997s" fill="freeze"/>
    </text>
    <text x="10" y="185" fill="#94a3b8" font-size="10" font-family="Arial, sans-serif">3,180
      <animate attributeName="opacity" values="0;1" dur="0.5s" begin="2.6999999999999997s" fill="freeze"/>
    </text>
    
    <!-- Chart Line with draw animation that follows the circle -->
    <path d="M 30,160 L 30.027636282029402,160 L 30.056849731904844,160 L 31.547793094903582,160 L 31.57440780230544,160 L 31.605126730579368,160 L 33.09732465891018,160 L 33.12530146581543,160 L 33.150894598589744,160 L 34.64366604250093,160 L 34.67133816925411,160 L 34.70040824023445,160 L 36.199058218844506,160 L 36.22821790163429,160 L 36.25870383920369,160 L 37.7416896735247,160 L 37.77101065757146,115.24229074889868 L 37.80142490569331,115.24229074889868 L 39.29645456720223,115.24229074889868 L 39.317280351714665,115.24229074889868 L 39.34561560585765,115.24229074889868 L 40.839157711329975,115.24229074889868 L 40.85908737774806,115.24229074889868 L 40.897172396757455,115.24229074889868 L 42.389854228859214,115.24229074889868 L 42.41865546441126,115.24229074889868 L 42.44301195421538,115.24229074889868 L 43.93228853755865,115.24229074889868 L 43.964925158554465,115.24229074889868 L 43.99668358381782,115.24229074889868 L 45.48793162696864,115.24229074889868 L 45.502932643867865,115.24229074889868 L 45.54134026539122,115.24229074889868 L 47.03608316910996,115.24229074889868 L 47.06606728054652,115.24229074889868 L 47.10105173094951,115.24229074889868 L 48.58450354667957,115.24229074889868 L 48.610974875186336,115.24229074889868 L 48.64681959895988,115.24229074889868 L 50.130145958156746,115.24229074889868 L 50.16016591431708,115.24229074889868 L 50.19346566270271,115.24229074889868 L 51.682097041018054,115.24229074889868 L 51.703962322519914,115.24229074889868 L 51.7350038533078,115.24229074889868 L 53.22623397409673,115.24229074889868 L 53.25114605711935,115.24229074889868 L 53.283280851982326,115.24229074889868 L 54.77762946373956,115.24229074889868 L 54.807022137233865,115.24229074889868 L 54.83266903709384,115.24229074889868 L 56.32495657723408,115.24229074889868 L 56.357790344210656,115.24229074889868 L 56.38071304506383,115.24229074889868 L 57.875455948782566,115.24229074889868 L 57.90434679614405,115.24229074889868 L 57.937610699805894,115.24229074889868 L 59.42444984193256,115.24229074889868 L 59.452641717180455,115.24229074889868 L 59.48667628240344,115.24229074889868 L 60.9720278684935,115.24229074889868 L 60.99769269071536,115.24229074889868 L 61.02971995140702,115.24229074889868 L 62.521917879737835,115.24229074889868 L 62.54991260900498,115.24229074889868 L 62.58237000638192,115.24229074889868 L 64.06652079422557,115.24229074889868 L 64.1041398318259,115.24229074889868 L 64.12591550151834,115.24229074889868 L 65.61524585194726,115.24229074889868 L 65.64454891363215,115.24229074889868 L 65.67370859642192,115.24229074889868 L 67.15959785336858,115.24229074889868 L 67.19192979421233,115.24229074889868 L 67.21895671593758,115.24229074889868 L 68.29938837991978,115.24229074889868 L 68.71470327192196,115.24229074889868 L 68.74683806678496,115.24229074889868 L 68.78069340838907,115.24229074889868 L 70.26301611532027,115.24229074889868 L 70.29111837875874,115.24229074889868 L 70.32402383518286,115.24229074889868 L 71.80960841197745,115.24229074889868 L 71.83127654749855,115.24229074889868 L 71.86762309740492,115.24229074889868 L 73.36017947297347,115.24229074889868 L 73.3872422394225,115.24229074889868 L 73.41871390689568,115.24229074889868 L 74.90876115180006,115.24229074889868 L 74.94125439390079,115.24229074889868 L 74.97473336590528,115.24229074889868 L 76.45537137081914,115.24229074889868 L 76.48304349757231,115.24229074889868 L 76.51947965928811,115.24229074889868 L 78.00818272705101,115.24229074889868 L 78.03178647765588,115.24229074889868 L 78.06085654863622,115.24229074889868 L 79.55536646165044,115.24229074889868 L 79.5888812783787,115.24229074889868 L 79.62026333404245,115.24229074889868 L 81.10296241057327,115.24229074889868 L 81.1331257456287,115.24229074889868 L 81.16699900959469,115.24229074889868 L 82.64926794944024,115.24229074889868 L 82.67867854529644,115.24229074889868 L 82.71183491478698,115.24229074889868 L 84.20098604159702,115.24229074889868 L 84.22847894473134,115.24229074889868 L 84.25659913053168,115.24229074889868 L 85.74772171714929,115.24229074889868 L 85.77551930043568,115.24229074889868 L 85.80892658299263,115.24229074889868 L 87.28730637030873,115.24229074889868 L 87.32411890162416,115.24229074889868 L 87.35499913115507,115.24229074889868 L 88.84388142253682,115.24229074889868 L 88.86562124750549,115.24229074889868 L 88.90470991878054,115.24229074889868 L 90.39421949282834,115.24229074889868 L 90.42689195854791,115.24229074889868 L 90.46132081573242,115.24229074889868 L 91.94491601035756,115.24229074889868 L 91.9748105099847,115.24229074889868 L 92.00647932343864,115.24229074889868 L 93.48423182808871,115.24229074889868 L 93.51670714782755,115.24229074889868 L 93.54909285575694,115.24229074889868 L 95.03750916572965,115.24229074889868 L 95.06790549148961,115.24229074889868 L 95.10263902882618,115.24229074889868 L 96.58648513651775,115.24229074889868 L 96.614461943423,115.24229074889868 L 96.64534217295392,115.24229074889868 L 98.13610631233378,115.24229074889868 L 98.15603597875187,115.24229074889868 L 98.20496402670277,115.24229074889868 L 99.6819637921536,115.24229074889868 L 99.71212712720903,115.24229074889868 L 99.74187824794107,115.24229074889868 L 101.23332343707264,115.24229074889868 L 101.26757307063826,115.24229074889868 L 101.29874005795936,115.24229074889868 L 102.78106276489056,115.24229074889868 L 102.811226099946,115.24229074889868 L 102.84599548200634,115.24229074889868 L 104.32743999320509,115.24229074889868 L 104.35708357976581,115.24229074889868 L 104.38409257912919,115.24229074889868 L 105.87827988962943,115.24229074889868 L 105.90890920609392,115.24229074889868 L 105.94045256301465,115.24229074889868 L 107.43143177073715,115.24229074889868 L 107.46025092865108,115.24229074889868 L 107.48867579460351,115.24229074889868 L 108.974116992503,115.24229074889868 L 109.00492553258637,40 L 109.03702448272558,40 L 110.52839798240959,40 L 110.54977936014052,40 L 110.57926164544426,40 L 112.07301881925922,40 L 112.09692725001618,40 L 112.13934948060216,40 L 113.62335688955072,40 L 113.65484647938578,40 L 113.68250068377708,40 L 115.16557612990752,40 L 115.20007667653957,40 L 115.23386032869612,40 L 116.72360289344844,40 L 116.73887274577598,40 L 116.78025547937253,40 L 118.2689943918592,40 L 118.30163101285501,40 L 118.3384973112561,40 L 119.81761191540959,40 L 119.84836668840727,40 L 119.88777796219628,40 L 121.3637203082958,40 L 121.39642861873915,40 L 121.4345853271961,40 L 122.92079718665673,40 L 122.95723334837253,40 L 124.46333902952749,40 L 124.53995712659344,40 L 126.01208200961106,40 L 126.05016702862045,40 L 126.08631643254608,40 L 127.5601977070286,40 L 127.6003258752931,40 L 127.62794423496061,40 L 129.11196956627106,40 L 129.14555607244688,40 L 129.18326472185663,40 L 130.65501323527465,40 L 130.68858181908857,40 L 130.726344235584,40 L 132.20587105406085,40 L 132.2388661222944,40 L 132.2742627870208,40 L 133.75982944145352,40 L 133.8031836348576,40 L 135.3425711420363,40 L 135.383613350757,40 L 136.86030843605573,40 L 136.89414585529798,40 L 138.41285095685933,40 L 138.44167011477327,40 L 138.48912852904942,40 L 139.94947842030746,40 L 139.9824555661791,40 L 140.01776261909606,40 L 141.49983441296084,40 L 141.53883347242646,40 L 141.57797591078716,40 L 143.04558435860932,40 L 143.0771994049776,40 L 143.11562494886283,40 L 144.5928218602944,40 L 144.6287561958774,40 L 144.67573070638264,40 L 146.1365286566878,40 L 146.17742748651344,40 L 146.21701798392132,40 L 147.6921717460978,40 L 147.7250772025219,40 L 147.76264247303658,40 L 149.2406279683912,40 L 149.27392771677683,40 L 149.31231741593828,40 L 150.78711273087703,40 L 150.82571749838115,40 L 150.86731530032034,40 L 152.33716404337838,40 L 152.36790089401416,40 L 152.40494641603414,40 L 153.8870182098989,40 L 153.91460072484267,40 L 153.95227352952867,40 L 155.43163904674856,40 L 155.46699986675114,40 L 155.50605269330242,40 L 156.98118853311703,40 L 157.01871795890793,40 L 157.05863105882977,40 L 158.53383858809192,40 L 158.56099096635037,40 L 158.59982872455902,40 L 160.08104024505323,40 L 160.11761978566415,40 L 160.15023848429806,40 L 161.62485457561797,40 L 161.65833354762245,40 L 161.6968845480409,40 L 163.17065828835212,40 L 163.21127036038754,40 L 163.24842341657882,40 L 164.72259144885155,40 L 164.7532386876779,40 L 164.7876496225005,40 L 166.27723088599586,40 L 166.31463485525356,40 L 166.35673448332557,40 L 167.82448631004283,40 L 167.8578935925998,40 L 167.89130087515673,40 L 169.3694835164921,40 L 169.4065828055977,40 L 169.44307273439918,40 L 170.91136223197304,40 L 170.95165170149448,40 L 170.99000555593219,40 L 172.45861765602,40 L 172.4988892031796,40 L 172.54308574759236,40 L 174.02159099144168,40 L 174.05361825213333,40 L 174.0950368304537,40 L 175.56621182829133,40 L 175.5938839550445,40 L 175.6289580172569,40 L 177.11031291664622,40 L 177.1469283019809,40 L 177.1840634358103,40 L 178.65957564522452,40 L 178.6915491388305,40 L 178.7328960277033,40 L 180.20772718736583,40 L 180.23989782695259,40 L 180.27800076832386,40 L 181.75670315815393,40 L 181.78822859271278,40 L 181.82237069210709,40 L 183.30349260079186,56.563876651982376 L 183.33333333333334,56.563876651982376" stroke="#3b82f6" stroke-width="2" fill="none" stroke-dasharray="14750" stroke-dashoffset="14750">
      <animate attributeName="stroke-dashoffset" values="14750;0" dur="3s" begin="3.0999999999999996s" fill="freeze"/>
    </path>
    
    <!-- Glow effect for the line that also follows the circle -->
    <path d="M 30,160 L 30.027636282029402,160 L 30.056849731904844,160 L 31.547793094903582,160 L 31.57440780230544,160 L 31.605126730579368,160 L 33.09732465891018,160 L 33.12530146581543,160 L 33.150894598589744,160 L 34.64366604250093,160 L 34.67133816925411,160 L 34.70040824023445,160 L 36.199058218844506,160 L 36.22821790163429,160 L 36.25870383920369,160 L 37.7416896735247,160 L 37.77101065757146,115.24229074889868 L 37.80142490569331,115.24229074889868 L 39.29645456720223,115.24229074889868 L 39.317280351714665,115.24229074889868 L 39.34561560585765,115.24229074889868 L 40.839157711329975,115.24229074889868 L 40.85908737774806,115.24229074889868 L 40.897172396757455,115.24229074889868 L 42.389854228859214,115.24229074889868 L 42.41865546441126,115.24229074889868 L 42.44301195421538,115.24229074889868 L 43.93228853755865,115.24229074889868 L 43.964925158554465,115.24229074889868 L 43.99668358381782,115.24229074889868 L 45.48793162696864,115.24229074889868 L 45.502932643867865,115.24229074889868 L 45.54134026539122,115.24229074889868 L 47.03608316910996,115.24229074889868 L 47.06606728054652,115.24229074889868 L 47.10105173094951,115.24229074889868 L 48.58450354667957,115.24229074889868 L 48.610974875186336,115.24229074889868 L 48.64681959895988,115.24229074889868 L 50.130145958156746,115.24229074889868 L 50.16016591431708,115.24229074889868 L 50.19346566270271,115.24229074889868 L 51.682097041018054,115.24229074889868 L 51.703962322519914,115.24229074889868 L 51.7350038533078,115.24229074889868 L 53.22623397409673,115.24229074889868 L 53.25114605711935,115.24229074889868 L 53.283280851982326,115.24229074889868 L 54.77762946373956,115.24229074889868 L 54.807022137233865,115.24229074889868 L 54.83266903709384,115.24229074889868 L 56.32495657723408,115.24229074889868 L 56.357790344210656,115.24229074889868 L 56.38071304506383,115.24229074889868 L 57.875455948782566,115.24229074889868 L 57.90434679614405,115.24229074889868 L 57.937610699805894,115.24229074889868 L 59.42444984193256,115.24229074889868 L 59.452641717180455,115.24229074889868 L 59.48667628240344,115.24229074889868 L 60.9720278684935,115.24229074889868 L 60.99769269071536,115.24229074889868 L 61.02971995140702,115.24229074889868 L 62.521917879737835,115.24229074889868 L 62.54991260900498,115.24229074889868 L 62.58237000638192,115.24229074889868 L 64.06652079422557,115.24229074889868 L 64.1041398318259,115.24229074889868 L 64.12591550151834,115.24229074889868 L 65.61524585194726,115.24229074889868 L 65.64454891363215,115.24229074889868 L 65.67370859642192,115.24229074889868 L 67.15959785336858,115.24229074889868 L 67.19192979421233,115.24229074889868 L 67.21895671593758,115.24229074889868 L 68.29938837991978,115.24229074889868 L 68.71470327192196,115.24229074889868 L 68.74683806678496,115.24229074889868 L 68.78069340838907,115.24229074889868 L 70.26301611532027,115.24229074889868 L 70.29111837875874,115.24229074889868 L 70.32402383518286,115.24229074889868 L 71.80960841197745,115.24229074889868 L 71.83127654749855,115.24229074889868 L 71.86762309740492,115.24229074889868 L 73.36017947297347,115.24229074889868 L 73.3872422394225,115.24229074889868 L 73.41871390689568,115.24229074889868 L 74.90876115180006,115.24229074889868 L 74.94125439390079,115.24229074889868 L 74.97473336590528,115.24229074889868 L 76.45537137081914,115.24229074889868 L 76.48304349757231,115.24229074889868 L 76.51947965928811,115.24229074889868 L 78.00818272705101,115.24229074889868 L 78.03178647765588,115.24229074889868 L 78.06085654863622,115.24229074889868 L 79.55536646165044,115.24229074889868 L 79.5888812783787,115.24229074889868 L 79.62026333404245,115.24229074889868 L 81.10296241057327,115.24229074889868 L 81.1331257456287,115.24229074889868 L 81.16699900959469,115.24229074889868 L 82.64926794944024,115.24229074889868 L 82.67867854529644,115.24229074889868 L 82.71183491478698,115.24229074889868 L 84.20098604159702,115.24229074889868 L 84.22847894473134,115.24229074889868 L 84.25659913053168,115.24229074889868 L 85.74772171714929,115.24229074889868 L 85.77551930043568,115.24229074889868 L 85.80892658299263,115.24229074889868 L 87.28730637030873,115.24229074889868 L 87.32411890162416,115.24229074889868 L 87.35499913115507,115.24229074889868 L 88.84388142253682,115.24229074889868 L 88.86562124750549,115.24229074889868 L 88.90470991878054,115.24229074889868 L 90.39421949282834,115.24229074889868 L 90.42689195854791,115.24229074889868 L 90.46132081573242,115.24229074889868 L 91.94491601035756,115.24229074889868 L 91.9748105099847,115.24229074889868 L 92.00647932343864,115.24229074889868 L 93.48423182808871,115.24229074889868 L 93.51670714782755,115.24229074889868 L 93.54909285575694,115.24229074889868 L 95.03750916572965,115.24229074889868 L 95.06790549148961,115.24229074889868 L 95.10263902882618,115.24229074889868 L 96.58648513651775,115.24229074889868 L 96.614461943423,115.24229074889868 L 96.64534217295392,115.24229074889868 L 98.13610631233378,115.24229074889868 L 98.15603597875187,115.24229074889868 L 98.20496402670277,115.24229074889868 L 99.6819637921536,115.24229074889868 L 99.71212712720903,115.24229074889868 L 99.74187824794107,115.24229074889868 L 101.23332343707264,115.24229074889868 L 101.26757307063826,115.24229074889868 L 101.29874005795936,115.24229074889868 L 102.78106276489056,115.24229074889868 L 102.811226099946,115.24229074889868 L 102.84599548200634,115.24229074889868 L 104.32743999320509,115.24229074889868 L 104.35708357976581,115.24229074889868 L 104.38409257912919,115.24229074889868 L 105.87827988962943,115.24229074889868 L 105.90890920609392,115.24229074889868 L 105.94045256301465,115.24229074889868 L 107.43143177073715,115.24229074889868 L 107.46025092865108,115.24229074889868 L 107.48867579460351,115.24229074889868 L 108.974116992503,115.24229074889868 L 109.00492553258637,40 L 109.03702448272558,40 L 110.52839798240959,40 L 110.54977936014052,40 L 110.57926164544426,40 L 112.07301881925922,40 L 112.09692725001618,40 L 112.13934948060216,40 L 113.62335688955072,40 L 113.65484647938578,40 L 113.68250068377708,40 L 115.16557612990752,40 L 115.20007667653957,40 L 115.23386032869612,40 L 116.72360289344844,40 L 116.73887274577598,40 L 116.78025547937253,40 L 118.2689943918592,40 L 118.30163101285501,40 L 118.3384973112561,40 L 119.81761191540959,40 L 119.84836668840727,40 L 119.88777796219628,40 L 121.3637203082958,40 L 121.39642861873915,40 L 121.4345853271961,40 L 122.92079718665673,40 L 122.95723334837253,40 L 124.46333902952749,40 L 124.53995712659344,40 L 126.01208200961106,40 L 126.05016702862045,40 L 126.08631643254608,40 L 127.5601977070286,40 L 127.6003258752931,40 L 127.62794423496061,40 L 129.11196956627106,40 L 129.14555607244688,40 L 129.18326472185663,40 L 130.65501323527465,40 L 130.68858181908857,40 L 130.726344235584,40 L 132.20587105406085,40 L 132.2388661222944,40 L 132.2742627870208,40 L 133.75982944145352,40 L 133.8031836348576,40 L 135.3425711420363,40 L 135.383613350757,40 L 136.86030843605573,40 L 136.89414585529798,40 L 138.41285095685933,40 L 138.44167011477327,40 L 138.48912852904942,40 L 139.94947842030746,40 L 139.9824555661791,40 L 140.01776261909606,40 L 141.49983441296084,40 L 141.53883347242646,40 L 141.57797591078716,40 L 143.04558435860932,40 L 143.0771994049776,40 L 143.11562494886283,40 L 144.5928218602944,40 L 144.6287561958774,40 L 144.67573070638264,40 L 146.1365286566878,40 L 146.17742748651344,40 L 146.21701798392132,40 L 147.6921717460978,40 L 147.7250772025219,40 L 147.76264247303658,40 L 149.2406279683912,40 L 149.27392771677683,40 L 149.31231741593828,40 L 150.78711273087703,40 L 150.82571749838115,40 L 150.86731530032034,40 L 152.33716404337838,40 L 152.36790089401416,40 L 152.40494641603414,40 L 153.8870182098989,40 L 153.91460072484267,40 L 153.95227352952867,40 L 155.43163904674856,40 L 155.46699986675114,40 L 155.50605269330242,40 L 156.98118853311703,40 L 157.01871795890793,40 L 157.05863105882977,40 L 158.53383858809192,40 L 158.56099096635037,40 L 158.59982872455902,40 L 160.08104024505323,40 L 160.11761978566415,40 L 160.15023848429806,40 L 161.62485457561797,40 L 161.65833354762245,40 L 161.6968845480409,40 L 163.17065828835212,40 L 163.21127036038754,40 L 163.24842341657882,40 L 164.72259144885155,40 L 164.7532386876779,40 L 164.7876496225005,40 L 166.27723088599586,40 L 166.31463485525356,40 L 166.35673448332557,40 L 167.82448631004283,40 L 167.8578935925998,40 L 167.89130087515673,40 L 169.3694835164921,40 L 169.4065828055977,40 L 169.44307273439918,40 L 170.91136223197304,40 L 170.95165170149448,40 L 170.99000555593219,40 L 172.45861765602,40 L 172.4988892031796,40 L 172.54308574759236,40 L 174.02159099144168,40 L 174.05361825213333,40 L 174.0950368304537,40 L 175.56621182829133,40 L 175.5938839550445,40 L 175.6289580172569,40 L 177.11031291664622,40 L 177.1469283019809,40 L 177.1840634358103,40 L 178.65957564522452,40 L 178.6915491388305,40 L 178.7328960277033,40 L 180.20772718736583,40 L 180.23989782695259,40 L 180.27800076832386,40 L 181.75670315815393,40 L 181.78822859271278,40 L 181.82237069210709,40 L 183.30349260079186,56.563876651982376 L 183.33333333333334,56.563876651982376" stroke="#3b82f6" stroke-width="4" fill="none" opacity="0.4" stroke-dasharray="14750" stroke-dashoffset="14750">
      <animate attributeName="stroke-dashoffset" values="14750;0" dur="3s" begin="3.0999999999999996s" fill="freeze"/>
    </path>
    
    <!-- Animated circle that moves along the path and draws the line -->
    <circle r="5" fill="#3b82f6" opacity="0" filter="url(#trailGlow)">
      <animate attributeName="opacity" values="0;1;1;1" dur="3.2s" begin="2.9s" fill="freeze"/>
      <animate attributeName="r" values="5;6;5" dur="1s" begin="2.9s" repeatCount="3"/>
      <animateMotion dur="3s" begin="2.9s" fill="freeze">
        <mpath href="#path_publicContributions_293.33333333333337"/>
      </animateMotion>
    </circle>
    
    <!-- Small trail dots that fade out -->
    <circle r="2" fill="#3b82f6" opacity="0">
      <animate attributeName="opacity" values="0;0.6;0" dur="0.8s" begin="3.3s" fill="freeze"/>
      <animateMotion dur="3s" begin="2.9s" fill="freeze">
        <mpath href="#path_publicContributions_293.33333333333337"/>
      </animateMotion>
    </circle>
    
    <!-- Hidden path for motion animation -->
    <path id="path_publicContributions_293.33333333333337" d="M 30,160 L 30.027636282029402,160 L 30.056849731904844,160 L 31.547793094903582,160 L 31.57440780230544,160 L 31.605126730579368,160 L 33.09732465891018,160 L 33.12530146581543,160 L 33.150894598589744,160 L 34.64366604250093,160 L 34.67133816925411,160 L 34.70040824023445,160 L 36.199058218844506,160 L 36.22821790163429,160 L 36.25870383920369,160 L 37.7416896735247,160 L 37.77101065757146,115.24229074889868 L 37.80142490569331,115.24229074889868 L 39.29645456720223,115.24229074889868 L 39.317280351714665,115.24229074889868 L 39.34561560585765,115.24229074889868 L 40.839157711329975,115.24229074889868 L 40.85908737774806,115.24229074889868 L 40.897172396757455,115.24229074889868 L 42.389854228859214,115.24229074889868 L 42.41865546441126,115.24229074889868 L 42.44301195421538,115.24229074889868 L 43.93228853755865,115.24229074889868 L 43.964925158554465,115.24229074889868 L 43.99668358381782,115.24229074889868 L 45.48793162696864,115.24229074889868 L 45.502932643867865,115.24229074889868 L 45.54134026539122,115.24229074889868 L 47.03608316910996,115.24229074889868 L 47.06606728054652,115.24229074889868 L 47.10105173094951,115.24229074889868 L 48.58450354667957,115.24229074889868 L 48.610974875186336,115.24229074889868 L 48.64681959895988,115.24229074889868 L 50.130145958156746,115.24229074889868 L 50.16016591431708,115.24229074889868 L 50.19346566270271,115.24229074889868 L 51.682097041018054,115.24229074889868 L 51.703962322519914,115.24229074889868 L 51.7350038533078,115.24229074889868 L 53.22623397409673,115.24229074889868 L 53.25114605711935,115.24229074889868 L 53.283280851982326,115.24229074889868 L 54.77762946373956,115.24229074889868 L 54.807022137233865,115.24229074889868 L 54.83266903709384,115.24229074889868 L 56.32495657723408,115.24229074889868 L 56.357790344210656,115.24229074889868 L 56.38071304506383,115.24229074889868 L 57.875455948782566,115.24229074889868 L 57.90434679614405,115.24229074889868 L 57.937610699805894,115.24229074889868 L 59.42444984193256,115.24229074889868 L 59.452641717180455,115.24229074889868 L 59.48667628240344,115.24229074889868 L 60.9720278684935,115.24229074889868 L 60.99769269071536,115.24229074889868 L 61.02971995140702,115.24229074889868 L 62.521917879737835,115.24229074889868 L 62.54991260900498,115.24229074889868 L 62.58237000638192,115.24229074889868 L 64.06652079422557,115.24229074889868 L 64.1041398318259,115.24229074889868 L 64.12591550151834,115.24229074889868 L 65.61524585194726,115.24229074889868 L 65.64454891363215,115.24229074889868 L 65.67370859642192,115.24229074889868 L 67.15959785336858,115.24229074889868 L 67.19192979421233,115.24229074889868 L 67.21895671593758,115.24229074889868 L 68.29938837991978,115.24229074889868 L 68.71470327192196,115.24229074889868 L 68.74683806678496,115.24229074889868 L 68.78069340838907,115.24229074889868 L 70.26301611532027,115.24229074889868 L 70.29111837875874,115.24229074889868 L 70.32402383518286,115.24229074889868 L 71.80960841197745,115.24229074889868 L 71.83127654749855,115.24229074889868 L 71.86762309740492,115.24229074889868 L 73.36017947297347,115.24229074889868 L 73.3872422394225,115.24229074889868 L 73.41871390689568,115.24229074889868 L 74.90876115180006,115.24229074889868 L 74.94125439390079,115.24229074889868 L 74.97473336590528,115.24229074889868 L 76.45537137081914,115.24229074889868 L 76.48304349757231,115.24229074889868 L 76.51947965928811,115.24229074889868 L 78.00818272705101,115.24229074889868 L 78.03178647765588,115.24229074889868 L 78.06085654863622,115.24229074889868 L 79.55536646165044,115.24229074889868 L 79.5888812783787,115.24229074889868 L 79.62026333404245,115.24229074889868 L 81.10296241057327,115.24229074889868 L 81.1331257456287,115.24229074889868 L 81.16699900959469,115.24229074889868 L 82.64926794944024,115.24229074889868 L 82.67867854529644,115.24229074889868 L 82.71183491478698,115.24229074889868 L 84.20098604159702,115.24229074889868 L 84.22847894473134,115.24229074889868 L 84.25659913053168,115.24229074889868 L 85.74772171714929,115.24229074889868 L 85.77551930043568,115.24229074889868 L 85.80892658299263,115.24229074889868 L 87.28730637030873,115.24229074889868 L 87.32411890162416,115.24229074889868 L 87.35499913115507,115.24229074889868 L 88.84388142253682,115.24229074889868 L 88.86562124750549,115.24229074889868 L 88.90470991878054,115.24229074889868 L 90.39421949282834,115.24229074889868 L 90.42689195854791,115.24229074889868 L 90.46132081573242,115.24229074889868 L 91.94491601035756,115.24229074889868 L 91.9748105099847,115.24229074889868 L 92.00647932343864,115.24229074889868 L 93.48423182808871,115.24229074889868 L 93.51670714782755,115.24229074889868 L 93.54909285575694,115.24229074889868 L 95.03750916572965,115.24229074889868 L 95.06790549148961,115.24229074889868 L 95.10263902882618,115.24229074889868 L 96.58648513651775,115.24229074889868 L 96.614461943423,115.24229074889868 L 96.64534217295392,115.24229074889868 L 98.13610631233378,115.24229074889868 L 98.15603597875187,115.24229074889868 L 98.20496402670277,115.24229074889868 L 99.6819637921536,115.24229074889868 L 99.71212712720903,115.24229074889868 L 99.74187824794107,115.24229074889868 L 101.23332343707264,115.24229074889868 L 101.26757307063826,115.24229074889868 L 101.29874005795936,115.24229074889868 L 102.78106276489056,115.24229074889868 L 102.811226099946,115.24229074889868 L 102.84599548200634,115.24229074889868 L 104.32743999320509,115.24229074889868 L 104.35708357976581,115.24229074889868 L 104.38409257912919,115.24229074889868 L 105.87827988962943,115.24229074889868 L 105.90890920609392,115.24229074889868 L 105.94045256301465,115.24229074889868 L 107.43143177073715,115.24229074889868 L 107.46025092865108,115.24229074889868 L 107.48867579460351,115.24229074889868 L 108.974116992503,115.24229074889868 L 109.00492553258637,40 L 109.03702448272558,40 L 110.52839798240959,40 L 110.54977936014052,40 L 110.57926164544426,40 L 112.07301881925922,40 L 112.09692725001618,40 L 112.13934948060216,40 L 113.62335688955072,40 L 113.65484647938578,40 L 113.68250068377708,40 L 115.16557612990752,40 L 115.20007667653957,40 L 115.23386032869612,40 L 116.72360289344844,40 L 116.73887274577598,40 L 116.78025547937253,40 L 118.2689943918592,40 L 118.30163101285501,40 L 118.3384973112561,40 L 119.81761191540959,40 L 119.84836668840727,40 L 119.88777796219628,40 L 121.3637203082958,40 L 121.39642861873915,40 L 121.4345853271961,40 L 122.92079718665673,40 L 122.95723334837253,40 L 124.46333902952749,40 L 124.53995712659344,40 L 126.01208200961106,40 L 126.05016702862045,40 L 126.08631643254608,40 L 127.5601977070286,40 L 127.6003258752931,40 L 127.62794423496061,40 L 129.11196956627106,40 L 129.14555607244688,40 L 129.18326472185663,40 L 130.65501323527465,40 L 130.68858181908857,40 L 130.726344235584,40 L 132.20587105406085,40 L 132.2388661222944,40 L 132.2742627870208,40 L 133.75982944145352,40 L 133.8031836348576,40 L 135.3425711420363,40 L 135.383613350757,40 L 136.86030843605573,40 L 136.89414585529798,40 L 138.41285095685933,40 L 138.44167011477327,40 L 138.48912852904942,40 L 139.94947842030746,40 L 139.9824555661791,40 L 140.01776261909606,40 L 141.49983441296084,40 L 141.53883347242646,40 L 141.57797591078716,40 L 143.04558435860932,40 L 143.0771994049776,40 L 143.11562494886283,40 L 144.5928218602944,40 L 144.6287561958774,40 L 144.67573070638264,40 L 146.1365286566878,40 L 146.17742748651344,40 L 146.21701798392132,40 L 147.6921717460978,40 L 147.7250772025219,40 L 147.76264247303658,40 L 149.2406279683912,40 L 149.27392771677683,40 L 149.31231741593828,40 L 150.78711273087703,40 L 150.82571749838115,40 L 150.86731530032034,40 L 152.33716404337838,40 L 152.36790089401416,40 L 152.40494641603414,40 L 153.8870182098989,40 L 153.91460072484267,40 L 153.95227352952867,40 L 155.43163904674856,40 L 155.46699986675114,40 L 155.50605269330242,40 L 156.98118853311703,40 L 157.01871795890793,40 L 157.05863105882977,40 L 158.53383858809192,40 L 158.56099096635037,40 L 158.59982872455902,40 L 160.08104024505323,40 L 160.11761978566415,40 L 160.15023848429806,40 L 161.62485457561797,40 L 161.65833354762245,40 L 161.6968845480409,40 L 163.17065828835212,40 L 163.21127036038754,40 L 163.24842341657882,40 L 164.72259144885155,40 L 164.7532386876779,40 L 164.7876496225005,40 L 166.27723088599586,40 L 166.31463485525356,40 L 166.35673448332557,40 L 167.82448631004283,40 L 167.8578935925998,40 L 167.89130087515673,40 L 169.3694835164921,40 L 169.4065828055977,40 L 169.44307273439918,40 L 170.91136223197304,40 L 170.95165170149448,40 L 170.99000555593219,40 L 172.45861765602,40 L 172.4988892031796,40 L 172.54308574759236,40 L 174.02159099144168,40 L 174.05361825213333,40 L 174.0950368304537,40 L 175.56621182829133,40 L 175.5938839550445,40 L 175.6289580172569,40 L 177.11031291664622,40 L 177.1469283019809,40 L 177.1840634358103,40 L 178.65957564522452,40 L 178.6915491388305,40 L 178.7328960277033,40 L 180.20772718736583,40 L 180.23989782695259,40 L 180.27800076832386,40 L 181.75670315815393,40 L 181.78822859271278,40 L 181.82237069210709,40 L 183.30349260079186,56.563876651982376 L 183.33333333333334,56.563876651982376" fill="none" stroke="none"/>
  </g>
  <!-- 📊 Total Contributions Chart -->
  <g transform="translate(526.6666666666667, 250)">
    <!-- Chart Background -->
    <rect x="0" y="0" width="213.33333333333334" height="200" fill="#0f172a" stroke="#334155" stroke-width="1" rx="8" filter="url(#shadow)">
      <animate attributeName="opacity" values="0;1" dur="0.5s" begin="2.8s" fill="freeze"/>
    </rect>
    
    <!-- Chart Title -->
    <text x="106.66666666666667" y="25" text-anchor="middle" fill="#f8fafc" font-size="14" font-weight="bold" font-family="Arial, sans-serif">
      📊 Total Contributions
      <animate attributeName="opacity" values="0;1" dur="0.5s" begin="3s" fill="freeze"/>
    </text>
    
    <!-- Y-axis labels -->
    <text x="10" y="45" fill="#94a3b8" font-size="10" font-family="Arial, sans-serif">5,314
      <animate attributeName="opacity" values="0;1" dur="0.5s" begin="3.1999999999999997s" fill="freeze"/>
    </text>
    <text x="10" y="185" fill="#94a3b8" font-size="10" font-family="Arial, sans-serif">4,408
      <animate attributeName="opacity" values="0;1" dur="0.5s" begin="3.1999999999999997s" fill="freeze"/>
    </text>
    
    <!-- Chart Line with draw animation that follows the circle -->
    <path d="M 30,160 L 30.027636282029402,160 L 30.056849731904844,160 L 31.547793094903582,160 L 31.57440780230544,160 L 31.605126730579368,160 L 33.09732465891018,160 L 33.12530146581543,160 L 33.150894598589744,160 L 34.64366604250093,160 L 34.67133816925411,160 L 34.70040824023445,160 L 36.199058218844506,160 L 36.22821790163429,160 L 36.25870383920369,160 L 37.7416896735247,160 L 37.77101065757146,92.58278145695365 L 37.80142490569331,92.58278145695365 L 39.29645456720223,92.58278145695365 L 39.317280351714665,92.58278145695365 L 39.34561560585765,92.58278145695365 L 40.839157711329975,92.58278145695365 L 40.85908737774806,92.58278145695365 L 40.897172396757455,92.58278145695365 L 42.389854228859214,92.58278145695365 L 42.41865546441126,92.58278145695365 L 42.44301195421538,92.58278145695365 L 43.93228853755865,92.58278145695365 L 43.964925158554465,92.58278145695365 L 43.99668358381782,92.58278145695365 L 45.48793162696864,92.58278145695365 L 45.502932643867865,92.58278145695365 L 45.54134026539122,92.58278145695365 L 47.03608316910996,92.58278145695365 L 47.06606728054652,92.58278145695365 L 47.10105173094951,92.58278145695365 L 48.58450354667957,92.58278145695365 L 48.610974875186336,92.58278145695365 L 48.64681959895988,92.58278145695365 L 50.130145958156746,92.58278145695365 L 50.16016591431708,92.58278145695365 L 50.19346566270271,92.58278145695365 L 51.682097041018054,92.58278145695365 L 51.703962322519914,92.58278145695365 L 51.7350038533078,92.58278145695365 L 53.22623397409673,92.58278145695365 L 53.25114605711935,92.58278145695365 L 53.283280851982326,92.58278145695365 L 54.77762946373956,92.58278145695365 L 54.807022137233865,92.58278145695365 L 54.83266903709384,92.58278145695365 L 56.32495657723408,92.58278145695365 L 56.357790344210656,92.58278145695365 L 56.38071304506383,92.58278145695365 L 57.875455948782566,92.58278145695365 L 57.90434679614405,92.58278145695365 L 57.937610699805894,92.58278145695365 L 59.42444984193256,92.58278145695365 L 59.452641717180455,92.58278145695365 L 59.48667628240344,92.58278145695365 L 60.9720278684935,92.58278145695365 L 60.99769269071536,92.58278145695365 L 61.02971995140702,92.58278145695365 L 62.521917879737835,92.58278145695365 L 62.54991260900498,92.58278145695365 L 62.58237000638192,92.58278145695365 L 64.06652079422557,92.58278145695365 L 64.1041398318259,92.58278145695365 L 64.12591550151834,92.58278145695365 L 65.61524585194726,92.58278145695365 L 65.64454891363215,92.58278145695365 L 65.67370859642192,92.58278145695365 L 67.15959785336858,92.58278145695365 L 67.19192979421233,92.58278145695365 L 67.21895671593758,92.58278145695365 L 68.29938837991978,92.58278145695365 L 68.71470327192196,92.58278145695365 L 68.74683806678496,92.58278145695365 L 68.78069340838907,92.58278145695365 L 70.26301611532027,92.58278145695365 L 70.29111837875874,92.58278145695365 L 70.32402383518286,92.58278145695365 L 71.80960841197745,92.58278145695365 L 71.83127654749855,92.58278145695365 L 71.86762309740492,92.58278145695365 L 73.36017947297347,92.58278145695365 L 73.3872422394225,92.58278145695365 L 73.41871390689568,92.58278145695365 L 74.90876115180006,92.58278145695365 L 74.94125439390079,92.58278145695365 L 74.97473336590528,92.58278145695365 L 76.45537137081914,92.58278145695365 L 76.48304349757231,92.58278145695365 L 76.51947965928811,92.58278145695365 L 78.00818272705101,92.58278145695365 L 78.03178647765588,92.58278145695365 L 78.06085654863622,92.58278145695365 L 79.55536646165044,92.58278145695365 L 79.5888812783787,92.58278145695365 L 79.62026333404245,92.58278145695365 L 81.10296241057327,92.58278145695365 L 81.1331257456287,92.58278145695365 L 81.16699900959469,92.58278145695365 L 82.64926794944024,92.58278145695365 L 82.67867854529644,92.58278145695365 L 82.71183491478698,92.58278145695365 L 84.20098604159702,92.58278145695365 L 84.22847894473134,92.58278145695365 L 84.25659913053168,92.58278145695365 L 85.74772171714929,92.58278145695365 L 85.77551930043568,92.58278145695365 L 85.80892658299263,92.58278145695365 L 87.28730637030873,92.58278145695365 L 87.32411890162416,92.58278145695365 L 87.35499913115507,92.58278145695365 L 88.84388142253682,92.58278145695365 L 88.86562124750549,92.58278145695365 L 88.90470991878054,92.58278145695365 L 90.39421949282834,92.58278145695365 L 90.42689195854791,92.58278145695365 L 90.46132081573242,92.58278145695365 L 91.94491601035756,92.58278145695365 L 91.9748105099847,92.58278145695365 L 92.00647932343864,92.58278145695365 L 93.48423182808871,92.58278145695365 L 93.51670714782755,92.58278145695365 L 93.54909285575694,92.58278145695365 L 95.03750916572965,92.58278145695365 L 95.06790549148961,92.58278145695365 L 95.10263902882618,92.58278145695365 L 96.58648513651775,92.58278145695365 L 96.614461943423,92.58278145695365 L 96.64534217295392,92.58278145695365 L 98.13610631233378,92.58278145695365 L 98.15603597875187,92.58278145695365 L 98.20496402670277,92.58278145695365 L 99.6819637921536,92.58278145695365 L 99.71212712720903,92.58278145695365 L 99.74187824794107,92.58278145695365 L 101.23332343707264,92.58278145695365 L 101.26757307063826,92.58278145695365 L 101.29874005795936,92.58278145695365 L 102.78106276489056,92.58278145695365 L 102.811226099946,92.58278145695365 L 102.84599548200634,92.58278145695365 L 104.32743999320509,92.58278145695365 L 104.35708357976581,92.58278145695365 L 104.38409257912919,92.58278145695365 L 105.87827988962943,92.58278145695365 L 105.90890920609392,92.58278145695365 L 105.94045256301465,92.58278145695365 L 107.43143177073715,92.58278145695365 L 107.46025092865108,92.58278145695365 L 107.48867579460351,92.58278145695365 L 108.974116992503,92.58278145695365 L 109.00492553258637,40 L 109.03702448272558,40 L 110.52839798240959,40 L 110.54977936014052,40 L 110.57926164544426,40 L 112.07301881925922,40 L 112.09692725001618,40 L 112.13934948060216,40 L 113.62335688955072,40 L 113.65484647938578,40 L 113.68250068377708,40 L 115.16557612990752,40 L 115.20007667653957,40 L 115.23386032869612,40 L 116.72360289344844,40 L 116.73887274577598,40 L 116.78025547937253,40 L 118.2689943918592,40 L 118.30163101285501,40 L 118.3384973112561,40 L 119.81761191540959,40 L 119.84836668840727,40 L 119.88777796219628,40 L 121.3637203082958,40 L 121.39642861873915,40 L 121.4345853271961,40 L 122.92079718665673,40 L 122.95723334837253,40 L 124.46333902952749,40 L 124.53995712659344,40 L 126.01208200961106,40 L 126.05016702862045,40 L 126.08631643254608,40 L 127.5601977070286,40 L 127.6003258752931,40 L 127.62794423496061,40 L 129.11196956627106,40 L 129.14555607244688,40 L 129.18326472185663,40 L 130.65501323527465,40 L 130.68858181908857,40 L 130.726344235584,40 L 132.20587105406085,40 L 132.2388661222944,40 L 132.2742627870208,40 L 133.75982944145352,40 L 133.8031836348576,40 L 135.3425711420363,40 L 135.383613350757,40 L 136.86030843605573,40 L 136.89414585529798,40 L 138.41285095685933,40 L 138.44167011477327,40 L 138.48912852904942,40 L 139.94947842030746,40 L 139.9824555661791,40 L 140.01776261909606,40 L 141.49983441296084,40 L 141.53883347242646,40 L 141.57797591078716,40 L 143.04558435860932,40 L 143.0771994049776,40 L 143.11562494886283,40 L 144.5928218602944,40 L 144.6287561958774,40 L 144.67573070638264,40 L 146.1365286566878,40 L 146.17742748651344,40 L 146.21701798392132,40 L 147.6921717460978,40 L 147.7250772025219,40 L 147.76264247303658,40 L 149.2406279683912,40 L 149.27392771677683,40 L 149.31231741593828,40 L 150.78711273087703,40 L 150.82571749838115,40 L 150.86731530032034,40 L 152.33716404337838,40 L 152.36790089401416,40 L 152.40494641603414,40 L 153.8870182098989,40 L 153.91460072484267,40 L 153.95227352952867,40 L 155.43163904674856,40 L 155.46699986675114,40 L 155.50605269330242,40 L 156.98118853311703,40 L 157.01871795890793,40 L 157.05863105882977,40 L 158.53383858809192,40 L 158.56099096635037,40 L 158.59982872455902,40 L 160.08104024505323,40 L 160.11761978566415,40 L 160.15023848429806,40 L 161.62485457561797,40 L 161.65833354762245,40 L 161.6968845480409,40 L 163.17065828835212,40 L 163.21127036038754,40 L 163.24842341657882,40 L 164.72259144885155,40 L 164.7532386876779,40 L 164.7876496225005,40 L 166.27723088599586,40 L 166.31463485525356,40 L 166.35673448332557,40 L 167.82448631004283,40 L 167.8578935925998,40 L 167.89130087515673,40 L 169.3694835164921,40 L 169.4065828055977,40 L 169.44307273439918,40 L 170.91136223197304,40 L 170.95165170149448,40 L 170.99000555593219,40 L 172.45861765602,40 L 172.4988892031796,40 L 172.54308574759236,40 L 174.02159099144168,40 L 174.05361825213333,40 L 174.0950368304537,40 L 175.56621182829133,40 L 175.5938839550445,40 L 175.6289580172569,40 L 177.11031291664622,40 L 177.1469283019809,40 L 177.1840634358103,40 L 178.65957564522452,40 L 178.6915491388305,40 L 178.7328960277033,40 L 180.20772718736583,40 L 180.23989782695259,40 L 180.27800076832386,40 L 181.75670315815393,40 L 181.78822859271278,40 L 181.82237069210709,40 L 183.30349260079186,54.039735099337754 L 183.33333333333334,54.039735099337754" stroke="#f59e0b" stroke-width="2" fill="none" stroke-dasharray="14750" stroke-dashoffset="14750">
      <animate attributeName="stroke-dashoffset" values="14750;0" dur="3s" begin="3.5999999999999996s" fill="freeze"/>
    </path>
    
    <!-- Glow effect for the line that also follows the circle -->
    <path d="M 30,160 L 30.027636282029402,160 L 30.056849731904844,160 L 31.547793094903582,160 L 31.57440780230544,160 L 31.605126730579368,160 L 33.09732465891018,160 L 33.12530146581543,160 L 33.150894598589744,160 L 34.64366604250093,160 L 34.67133816925411,160 L 34.70040824023445,160 L 36.199058218844506,160 L 36.22821790163429,160 L 36.25870383920369,160 L 37.7416896735247,160 L 37.77101065757146,92.58278145695365 L 37.80142490569331,92.58278145695365 L 39.29645456720223,92.58278145695365 L 39.317280351714665,92.58278145695365 L 39.34561560585765,92.58278145695365 L 40.839157711329975,92.58278145695365 L 40.85908737774806,92.58278145695365 L 40.897172396757455,92.58278145695365 L 42.389854228859214,92.58278145695365 L 42.41865546441126,92.58278145695365 L 42.44301195421538,92.58278145695365 L 43.93228853755865,92.58278145695365 L 43.964925158554465,92.58278145695365 L 43.99668358381782,92.58278145695365 L 45.48793162696864,92.58278145695365 L 45.502932643867865,92.58278145695365 L 45.54134026539122,92.58278145695365 L 47.03608316910996,92.58278145695365 L 47.06606728054652,92.58278145695365 L 47.10105173094951,92.58278145695365 L 48.58450354667957,92.58278145695365 L 48.610974875186336,92.58278145695365 L 48.64681959895988,92.58278145695365 L 50.130145958156746,92.58278145695365 L 50.16016591431708,92.58278145695365 L 50.19346566270271,92.58278145695365 L 51.682097041018054,92.58278145695365 L 51.703962322519914,92.58278145695365 L 51.7350038533078,92.58278145695365 L 53.22623397409673,92.58278145695365 L 53.25114605711935,92.58278145695365 L 53.283280851982326,92.58278145695365 L 54.77762946373956,92.58278145695365 L 54.807022137233865,92.58278145695365 L 54.83266903709384,92.58278145695365 L 56.32495657723408,92.58278145695365 L 56.357790344210656,92.58278145695365 L 56.38071304506383,92.58278145695365 L 57.875455948782566,92.58278145695365 L 57.90434679614405,92.58278145695365 L 57.937610699805894,92.58278145695365 L 59.42444984193256,92.58278145695365 L 59.452641717180455,92.58278145695365 L 59.48667628240344,92.58278145695365 L 60.9720278684935,92.58278145695365 L 60.99769269071536,92.58278145695365 L 61.02971995140702,92.58278145695365 L 62.521917879737835,92.58278145695365 L 62.54991260900498,92.58278145695365 L 62.58237000638192,92.58278145695365 L 64.06652079422557,92.58278145695365 L 64.1041398318259,92.58278145695365 L 64.12591550151834,92.58278145695365 L 65.61524585194726,92.58278145695365 L 65.64454891363215,92.58278145695365 L 65.67370859642192,92.58278145695365 L 67.15959785336858,92.58278145695365 L 67.19192979421233,92.58278145695365 L 67.21895671593758,92.58278145695365 L 68.29938837991978,92.58278145695365 L 68.71470327192196,92.58278145695365 L 68.74683806678496,92.58278145695365 L 68.78069340838907,92.58278145695365 L 70.26301611532027,92.58278145695365 L 70.29111837875874,92.58278145695365 L 70.32402383518286,92.58278145695365 L 71.80960841197745,92.58278145695365 L 71.83127654749855,92.58278145695365 L 71.86762309740492,92.58278145695365 L 73.36017947297347,92.58278145695365 L 73.3872422394225,92.58278145695365 L 73.41871390689568,92.58278145695365 L 74.90876115180006,92.58278145695365 L 74.94125439390079,92.58278145695365 L 74.97473336590528,92.58278145695365 L 76.45537137081914,92.58278145695365 L 76.48304349757231,92.58278145695365 L 76.51947965928811,92.58278145695365 L 78.00818272705101,92.58278145695365 L 78.03178647765588,92.58278145695365 L 78.06085654863622,92.58278145695365 L 79.55536646165044,92.58278145695365 L 79.5888812783787,92.58278145695365 L 79.62026333404245,92.58278145695365 L 81.10296241057327,92.58278145695365 L 81.1331257456287,92.58278145695365 L 81.16699900959469,92.58278145695365 L 82.64926794944024,92.58278145695365 L 82.67867854529644,92.58278145695365 L 82.71183491478698,92.58278145695365 L 84.20098604159702,92.58278145695365 L 84.22847894473134,92.58278145695365 L 84.25659913053168,92.58278145695365 L 85.74772171714929,92.58278145695365 L 85.77551930043568,92.58278145695365 L 85.80892658299263,92.58278145695365 L 87.28730637030873,92.58278145695365 L 87.32411890162416,92.58278145695365 L 87.35499913115507,92.58278145695365 L 88.84388142253682,92.58278145695365 L 88.86562124750549,92.58278145695365 L 88.90470991878054,92.58278145695365 L 90.39421949282834,92.58278145695365 L 90.42689195854791,92.58278145695365 L 90.46132081573242,92.58278145695365 L 91.94491601035756,92.58278145695365 L 91.9748105099847,92.58278145695365 L 92.00647932343864,92.58278145695365 L 93.48423182808871,92.58278145695365 L 93.51670714782755,92.58278145695365 L 93.54909285575694,92.58278145695365 L 95.03750916572965,92.58278145695365 L 95.06790549148961,92.58278145695365 L 95.10263902882618,92.58278145695365 L 96.58648513651775,92.58278145695365 L 96.614461943423,92.58278145695365 L 96.64534217295392,92.58278145695365 L 98.13610631233378,92.58278145695365 L 98.15603597875187,92.58278145695365 L 98.20496402670277,92.58278145695365 L 99.6819637921536,92.58278145695365 L 99.71212712720903,92.58278145695365 L 99.74187824794107,92.58278145695365 L 101.23332343707264,92.58278145695365 L 101.26757307063826,92.58278145695365 L 101.29874005795936,92.58278145695365 L 102.78106276489056,92.58278145695365 L 102.811226099946,92.58278145695365 L 102.84599548200634,92.58278145695365 L 104.32743999320509,92.58278145695365 L 104.35708357976581,92.58278145695365 L 104.38409257912919,92.58278145695365 L 105.87827988962943,92.58278145695365 L 105.90890920609392,92.58278145695365 L 105.94045256301465,92.58278145695365 L 107.43143177073715,92.58278145695365 L 107.46025092865108,92.58278145695365 L 107.48867579460351,92.58278145695365 L 108.974116992503,92.58278145695365 L 109.00492553258637,40 L 109.03702448272558,40 L 110.52839798240959,40 L 110.54977936014052,40 L 110.57926164544426,40 L 112.07301881925922,40 L 112.09692725001618,40 L 112.13934948060216,40 L 113.62335688955072,40 L 113.65484647938578,40 L 113.68250068377708,40 L 115.16557612990752,40 L 115.20007667653957,40 L 115.23386032869612,40 L 116.72360289344844,40 L 116.73887274577598,40 L 116.78025547937253,40 L 118.2689943918592,40 L 118.30163101285501,40 L 118.3384973112561,40 L 119.81761191540959,40 L 119.84836668840727,40 L 119.88777796219628,40 L 121.3637203082958,40 L 121.39642861873915,40 L 121.4345853271961,40 L 122.92079718665673,40 L 122.95723334837253,40 L 124.46333902952749,40 L 124.53995712659344,40 L 126.01208200961106,40 L 126.05016702862045,40 L 126.08631643254608,40 L 127.5601977070286,40 L 127.6003258752931,40 L 127.62794423496061,40 L 129.11196956627106,40 L 129.14555607244688,40 L 129.18326472185663,40 L 130.65501323527465,40 L 130.68858181908857,40 L 130.726344235584,40 L 132.20587105406085,40 L 132.2388661222944,40 L 132.2742627870208,40 L 133.75982944145352,40 L 133.8031836348576,40 L 135.3425711420363,40 L 135.383613350757,40 L 136.86030843605573,40 L 136.89414585529798,40 L 138.41285095685933,40 L 138.44167011477327,40 L 138.48912852904942,40 L 139.94947842030746,40 L 139.9824555661791,40 L 140.01776261909606,40 L 141.49983441296084,40 L 141.53883347242646,40 L 141.57797591078716,40 L 143.04558435860932,40 L 143.0771994049776,40 L 143.11562494886283,40 L 144.5928218602944,40 L 144.6287561958774,40 L 144.67573070638264,40 L 146.1365286566878,40 L 146.17742748651344,40 L 146.21701798392132,40 L 147.6921717460978,40 L 147.7250772025219,40 L 147.76264247303658,40 L 149.2406279683912,40 L 149.27392771677683,40 L 149.31231741593828,40 L 150.78711273087703,40 L 150.82571749838115,40 L 150.86731530032034,40 L 152.33716404337838,40 L 152.36790089401416,40 L 152.40494641603414,40 L 153.8870182098989,40 L 153.91460072484267,40 L 153.95227352952867,40 L 155.43163904674856,40 L 155.46699986675114,40 L 155.50605269330242,40 L 156.98118853311703,40 L 157.01871795890793,40 L 157.05863105882977,40 L 158.53383858809192,40 L 158.56099096635037,40 L 158.59982872455902,40 L 160.08104024505323,40 L 160.11761978566415,40 L 160.15023848429806,40 L 161.62485457561797,40 L 161.65833354762245,40 L 161.6968845480409,40 L 163.17065828835212,40 L 163.21127036038754,40 L 163.24842341657882,40 L 164.72259144885155,40 L 164.7532386876779,40 L 164.7876496225005,40 L 166.27723088599586,40 L 166.31463485525356,40 L 166.35673448332557,40 L 167.82448631004283,40 L 167.8578935925998,40 L 167.89130087515673,40 L 169.3694835164921,40 L 169.4065828055977,40 L 169.44307273439918,40 L 170.91136223197304,40 L 170.95165170149448,40 L 170.99000555593219,40 L 172.45861765602,40 L 172.4988892031796,40 L 172.54308574759236,40 L 174.02159099144168,40 L 174.05361825213333,40 L 174.0950368304537,40 L 175.56621182829133,40 L 175.5938839550445,40 L 175.6289580172569,40 L 177.11031291664622,40 L 177.1469283019809,40 L 177.1840634358103,40 L 178.65957564522452,40 L 178.6915491388305,40 L 178.7328960277033,40 L 180.20772718736583,40 L 180.23989782695259,40 L 180.27800076832386,40 L 181.75670315815393,40 L 181.78822859271278,40 L 181.82237069210709,40 L 183.30349260079186,54.039735099337754 L 183.33333333333334,54.039735099337754" stroke="#f59e0b" stroke-width="4" fill="none" opacity="0.4" stroke-dasharray="14750" stroke-dashoffset="14750">
      <animate attributeName="stroke-dashoffset" values="14750;0" dur="3s" begin="3.5999999999999996s" fill="freeze"/>
    </path>
    
    <!-- Animated circle that moves along the path and draws the line -->
    <circle r="5" fill="#f59e0b" opacity="0" filter="url(#trailGlow)">
      <animate attributeName="opacity" values="0;1;1;1" dur="3.2s" begin="3.4s" fill="freeze"/>
      <animate attributeName="r" values="5;6;5" dur="1s" begin="3.4s" repeatCount="3"/>
      <animateMotion dur="3s" begin="3.4s" fill="freeze">
        <mpath href="#path_totalContributions_526.6666666666667"/>
      </animateMotion>
    </circle>
    
    <!-- Small trail dots that fade out -->
    <circle r="2" fill="#f59e0b" opacity="0">
      <animate attributeName="opacity" values="0;0.6;0" dur="0.8s" begin="3.8s" fill="freeze"/>
      <animateMotion dur="3s" begin="3.4s" fill="freeze">
        <mpath href="#path_totalContributions_526.6666666666667"/>
      </animateMotion>
    </circle>
    
    <!-- Hidden path for motion animation -->
    <path id="path_totalContributions_526.6666666666667" d="M 30,160 L 30.027636282029402,160 L 30.056849731904844,160 L 31.547793094903582,160 L 31.57440780230544,160 L 31.605126730579368,160 L 33.09732465891018,160 L 33.12530146581543,160 L 33.150894598589744,160 L 34.64366604250093,160 L 34.67133816925411,160 L 34.70040824023445,160 L 36.199058218844506,160 L 36.22821790163429,160 L 36.25870383920369,160 L 37.7416896735247,160 L 37.77101065757146,92.58278145695365 L 37.80142490569331,92.58278145695365 L 39.29645456720223,92.58278145695365 L 39.317280351714665,92.58278145695365 L 39.34561560585765,92.58278145695365 L 40.839157711329975,92.58278145695365 L 40.85908737774806,92.58278145695365 L 40.897172396757455,92.58278145695365 L 42.389854228859214,92.58278145695365 L 42.41865546441126,92.58278145695365 L 42.44301195421538,92.58278145695365 L 43.93228853755865,92.58278145695365 L 43.964925158554465,92.58278145695365 L 43.99668358381782,92.58278145695365 L 45.48793162696864,92.58278145695365 L 45.502932643867865,92.58278145695365 L 45.54134026539122,92.58278145695365 L 47.03608316910996,92.58278145695365 L 47.06606728054652,92.58278145695365 L 47.10105173094951,92.58278145695365 L 48.58450354667957,92.58278145695365 L 48.610974875186336,92.58278145695365 L 48.64681959895988,92.58278145695365 L 50.130145958156746,92.58278145695365 L 50.16016591431708,92.58278145695365 L 50.19346566270271,92.58278145695365 L 51.682097041018054,92.58278145695365 L 51.703962322519914,92.58278145695365 L 51.7350038533078,92.58278145695365 L 53.22623397409673,92.58278145695365 L 53.25114605711935,92.58278145695365 L 53.283280851982326,92.58278145695365 L 54.77762946373956,92.58278145695365 L 54.807022137233865,92.58278145695365 L 54.83266903709384,92.58278145695365 L 56.32495657723408,92.58278145695365 L 56.357790344210656,92.58278145695365 L 56.38071304506383,92.58278145695365 L 57.875455948782566,92.58278145695365 L 57.90434679614405,92.58278145695365 L 57.937610699805894,92.58278145695365 L 59.42444984193256,92.58278145695365 L 59.452641717180455,92.58278145695365 L 59.48667628240344,92.58278145695365 L 60.9720278684935,92.58278145695365 L 60.99769269071536,92.58278145695365 L 61.02971995140702,92.58278145695365 L 62.521917879737835,92.58278145695365 L 62.54991260900498,92.58278145695365 L 62.58237000638192,92.58278145695365 L 64.06652079422557,92.58278145695365 L 64.1041398318259,92.58278145695365 L 64.12591550151834,92.58278145695365 L 65.61524585194726,92.58278145695365 L 65.64454891363215,92.58278145695365 L 65.67370859642192,92.58278145695365 L 67.15959785336858,92.58278145695365 L 67.19192979421233,92.58278145695365 L 67.21895671593758,92.58278145695365 L 68.29938837991978,92.58278145695365 L 68.71470327192196,92.58278145695365 L 68.74683806678496,92.58278145695365 L 68.78069340838907,92.58278145695365 L 70.26301611532027,92.58278145695365 L 70.29111837875874,92.58278145695365 L 70.32402383518286,92.58278145695365 L 71.80960841197745,92.58278145695365 L 71.83127654749855,92.58278145695365 L 71.86762309740492,92.58278145695365 L 73.36017947297347,92.58278145695365 L 73.3872422394225,92.58278145695365 L 73.41871390689568,92.58278145695365 L 74.90876115180006,92.58278145695365 L 74.94125439390079,92.58278145695365 L 74.97473336590528,92.58278145695365 L 76.45537137081914,92.58278145695365 L 76.48304349757231,92.58278145695365 L 76.51947965928811,92.58278145695365 L 78.00818272705101,92.58278145695365 L 78.03178647765588,92.58278145695365 L 78.06085654863622,92.58278145695365 L 79.55536646165044,92.58278145695365 L 79.5888812783787,92.58278145695365 L 79.62026333404245,92.58278145695365 L 81.10296241057327,92.58278145695365 L 81.1331257456287,92.58278145695365 L 81.16699900959469,92.58278145695365 L 82.64926794944024,92.58278145695365 L 82.67867854529644,92.58278145695365 L 82.71183491478698,92.58278145695365 L 84.20098604159702,92.58278145695365 L 84.22847894473134,92.58278145695365 L 84.25659913053168,92.58278145695365 L 85.74772171714929,92.58278145695365 L 85.77551930043568,92.58278145695365 L 85.80892658299263,92.58278145695365 L 87.28730637030873,92.58278145695365 L 87.32411890162416,92.58278145695365 L 87.35499913115507,92.58278145695365 L 88.84388142253682,92.58278145695365 L 88.86562124750549,92.58278145695365 L 88.90470991878054,92.58278145695365 L 90.39421949282834,92.58278145695365 L 90.42689195854791,92.58278145695365 L 90.46132081573242,92.58278145695365 L 91.94491601035756,92.58278145695365 L 91.9748105099847,92.58278145695365 L 92.00647932343864,92.58278145695365 L 93.48423182808871,92.58278145695365 L 93.51670714782755,92.58278145695365 L 93.54909285575694,92.58278145695365 L 95.03750916572965,92.58278145695365 L 95.06790549148961,92.58278145695365 L 95.10263902882618,92.58278145695365 L 96.58648513651775,92.58278145695365 L 96.614461943423,92.58278145695365 L 96.64534217295392,92.58278145695365 L 98.13610631233378,92.58278145695365 L 98.15603597875187,92.58278145695365 L 98.20496402670277,92.58278145695365 L 99.6819637921536,92.58278145695365 L 99.71212712720903,92.58278145695365 L 99.74187824794107,92.58278145695365 L 101.23332343707264,92.58278145695365 L 101.26757307063826,92.58278145695365 L 101.29874005795936,92.58278145695365 L 102.78106276489056,92.58278145695365 L 102.811226099946,92.58278145695365 L 102.84599548200634,92.58278145695365 L 104.32743999320509,92.58278145695365 L 104.35708357976581,92.58278145695365 L 104.38409257912919,92.58278145695365 L 105.87827988962943,92.58278145695365 L 105.90890920609392,92.58278145695365 L 105.94045256301465,92.58278145695365 L 107.43143177073715,92.58278145695365 L 107.46025092865108,92.58278145695365 L 107.48867579460351,92.58278145695365 L 108.974116992503,92.58278145695365 L 109.00492553258637,40 L 109.03702448272558,40 L 110.52839798240959,40 L 110.54977936014052,40 L 110.57926164544426,40 L 112.07301881925922,40 L 112.09692725001618,40 L 112.13934948060216,40 L 113.62335688955072,40 L 113.65484647938578,40 L 113.68250068377708,40 L 115.16557612990752,40 L 115.20007667653957,40 L 115.23386032869612,40 L 116.72360289344844,40 L 116.73887274577598,40 L 116.78025547937253,40 L 118.2689943918592,40 L 118.30163101285501,40 L 118.3384973112561,40 L 119.81761191540959,40 L 119.84836668840727,40 L 119.88777796219628,40 L 121.3637203082958,40 L 121.39642861873915,40 L 121.4345853271961,40 L 122.92079718665673,40 L 122.95723334837253,40 L 124.46333902952749,40 L 124.53995712659344,40 L 126.01208200961106,40 L 126.05016702862045,40 L 126.08631643254608,40 L 127.5601977070286,40 L 127.6003258752931,40 L 127.62794423496061,40 L 129.11196956627106,40 L 129.14555607244688,40 L 129.18326472185663,40 L 130.65501323527465,40 L 130.68858181908857,40 L 130.726344235584,40 L 132.20587105406085,40 L 132.2388661222944,40 L 132.2742627870208,40 L 133.75982944145352,40 L 133.8031836348576,40 L 135.3425711420363,40 L 135.383613350757,40 L 136.86030843605573,40 L 136.89414585529798,40 L 138.41285095685933,40 L 138.44167011477327,40 L 138.48912852904942,40 L 139.94947842030746,40 L 139.9824555661791,40 L 140.01776261909606,40 L 141.49983441296084,40 L 141.53883347242646,40 L 141.57797591078716,40 L 143.04558435860932,40 L 143.0771994049776,40 L 143.11562494886283,40 L 144.5928218602944,40 L 144.6287561958774,40 L 144.67573070638264,40 L 146.1365286566878,40 L 146.17742748651344,40 L 146.21701798392132,40 L 147.6921717460978,40 L 147.7250772025219,40 L 147.76264247303658,40 L 149.2406279683912,40 L 149.27392771677683,40 L 149.31231741593828,40 L 150.78711273087703,40 L 150.82571749838115,40 L 150.86731530032034,40 L 152.33716404337838,40 L 152.36790089401416,40 L 152.40494641603414,40 L 153.8870182098989,40 L 153.91460072484267,40 L 153.95227352952867,40 L 155.43163904674856,40 L 155.46699986675114,40 L 155.50605269330242,40 L 156.98118853311703,40 L 157.01871795890793,40 L 157.05863105882977,40 L 158.53383858809192,40 L 158.56099096635037,40 L 158.59982872455902,40 L 160.08104024505323,40 L 160.11761978566415,40 L 160.15023848429806,40 L 161.62485457561797,40 L 161.65833354762245,40 L 161.6968845480409,40 L 163.17065828835212,40 L 163.21127036038754,40 L 163.24842341657882,40 L 164.72259144885155,40 L 164.7532386876779,40 L 164.7876496225005,40 L 166.27723088599586,40 L 166.31463485525356,40 L 166.35673448332557,40 L 167.82448631004283,40 L 167.8578935925998,40 L 167.89130087515673,40 L 169.3694835164921,40 L 169.4065828055977,40 L 169.44307273439918,40 L 170.91136223197304,40 L 170.95165170149448,40 L 170.99000555593219,40 L 172.45861765602,40 L 172.4988892031796,40 L 172.54308574759236,40 L 174.02159099144168,40 L 174.05361825213333,40 L 174.0950368304537,40 L 175.56621182829133,40 L 175.5938839550445,40 L 175.6289580172569,40 L 177.11031291664622,40 L 177.1469283019809,40 L 177.1840634358103,40 L 178.65957564522452,40 L 178.6915491388305,40 L 178.7328960277033,40 L 180.20772718736583,40 L 180.23989782695259,40 L 180.27800076832386,40 L 181.75670315815393,40 L 181.78822859271278,40 L 181.82237069210709,40 L 183.30349260079186,54.039735099337754 L 183.33333333333334,54.039735099337754" fill="none" stroke="none"/>
  </g>
  
  <!-- Footer -->
  <text x="400" y="580" text-anchor="middle" fill="#64748b" font-size="12" font-family="Arial, sans-serif">
    Generated by GitHub User Rank Tracker • 3/12/2026
    <animate attributeName="opacity" values="0;1" dur="0.5s" begin="5s" fill="freeze"/>
  </text>
</svg>