<svg width="800" height="600" xmlns="http://www.w3.org/2000/svg">
  <defs>
    <linearGradient id="bgGradient" x1="0%" y1="0%" x2="100%" y2="100%">
      <stop offset="0%" style="stop-color:#f8fafc;stop-opacity:1" />
      <stop offset="100%" style="stop-color:#e2e8f0;stop-opacity:1" />
    </linearGradient>
    <filter id="shadow" x="-20%" y="-20%" width="140%" height="140%">
      <feDropShadow dx="2" dy="2" stdDeviation="3" flood-color="#00000020" flood-opacity="0.1"/>
    </filter>
    <!-- Trail effect filter -->
    <filter id="trailGlow" x="-50%" y="-50%" width="200%" height="200%">
      <feGaussianBlur stdDeviation="3" result="coloredBlur"/>
      <feMerge> 
        <feMergeNode in="coloredBlur"/>
        <feMergeNode in="SourceGraphic"/>
      </feMerge>
    </filter>
  </defs>
  
  <!-- Background -->
  <rect width="800" height="600" fill="url(#bgGradient)" rx="12"/>
  
  <!-- Header -->
  <text x="400" y="40" text-anchor="middle" fill="#0f172a" font-size="24" font-weight="bold" font-family="Arial, sans-serif">
    GitHub Progress Report
    <animate attributeName="opacity" values="0;1" dur="0.8s" begin="0s" fill="freeze"/>
    <animateTransform attributeName="transform" type="translate" values="0,-20;0,0" dur="0.8s" begin="0s" fill="freeze"/>
  </text>
  
  <!-- User Info -->
  <text x="400" y="70" text-anchor="middle" fill="#475569" font-size="16" font-family="Arial, sans-serif">
    @maifeeulasad • BANGLADESH • 100 days analyzed
    <animate attributeName="opacity" values="0;1" dur="0.6s" begin="0.3s" fill="freeze"/>
  </text>
  
  <!-- Progress Cards -->
  <!-- Followers Card -->
  <g transform="translate(60, 100)">
    <rect width="206.66666666666666" height="120" fill="#ffffff" stroke="#e2e8f0" stroke-width="1" rx="8" filter="url(#shadow)">
      <animate attributeName="opacity" values="0;1" dur="0.6s" begin="0.2s" fill="freeze"/>
      <animateTransform attributeName="transform" type="scale" values="0.8;1" dur="0.6s" begin="0.2s" fill="freeze"/>
    </rect>
    <text x="103.33333333333333" y="25" text-anchor="middle" fill="#64748b" font-size="14" font-weight="bold" font-family="Arial, sans-serif">FOLLOWERS
      <animate attributeName="opacity" values="0;1" dur="0.5s" begin="0.4s" fill="freeze"/>
    </text>
    
    <text x="103.33333333333333" y="50" text-anchor="middle" fill="#22c55e" font-size="32" font-weight="bold" font-family="Arial, sans-serif">
      ↗
      <animate attributeName="opacity" values="0;1" dur="0.5s" begin="0.6s" fill="freeze"/>
      <animateTransform attributeName="transform" type="scale" values="0;1.2;1" dur="0.8s" begin="0.6s" fill="freeze"/>
    </text>
    
    <text x="103.33333333333333" y="75" text-anchor="middle" fill="#1e293b" font-size="18" font-weight="bold" font-family="Arial, sans-serif">
      +6
      <animate attributeName="opacity" values="0;1" dur="0.5s" begin="0.8s" fill="freeze"/>
    </text>
    
    <text x="103.33333333333333" y="95" text-anchor="middle" fill="#64748b" font-size="12" font-family="Arial, sans-serif">
      #464 → #458
      <animate attributeName="opacity" values="0;1" dur="0.5s" begin="1s" fill="freeze"/>
    </text>
  </g>
  
  <!-- Public Contributions Card -->
  <g transform="translate(296.66666666666663, 100)">
    <rect width="206.66666666666666" height="120" fill="#ffffff" stroke="#e2e8f0" stroke-width="1" rx="8" filter="url(#shadow)">
      <animate attributeName="opacity" values="0;1" dur="0.6s" begin="0.4s" fill="freeze"/>
      <animateTransform attributeName="transform" type="scale" values="0.8;1" dur="0.6s" begin="0.4s" fill="freeze"/>
    </rect>
    <text x="103.33333333333333" y="25" text-anchor="middle" fill="#64748b" font-size="14" font-weight="bold" font-family="Arial, sans-serif">PUBLIC
      <animate attributeName="opacity" values="0;1" dur="0.5s" begin="0.6s" fill="freeze"/>
    </text>
    
    <text x="103.33333333333333" y="50" text-anchor="middle" fill="#22c55e" font-size="32" font-weight="bold" font-family="Arial, sans-serif">
      ↗
      <animate attributeName="opacity" values="0;1" dur="0.5s" begin="0.8s" fill="freeze"/>
      <animateTransform attributeName="transform" type="scale" values="0;1.2;1" dur="0.8s" begin="0.8s" fill="freeze"/>
    </text>
    
    <text x="103.33333333333333" y="75" text-anchor="middle" fill="#1e293b" font-size="18" font-weight="bold" font-family="Arial, sans-serif">
      +12
      <animate attributeName="opacity" values="0;1" dur="0.5s" begin="1s" fill="freeze"/>
    </text>
    
    <text x="103.33333333333333" y="95" text-anchor="middle" fill="#64748b" font-size="12" font-family="Arial, sans-serif">
      #18 → #6
      <animate attributeName="opacity" values="0;1" dur="0.5s" begin="1.2s" fill="freeze"/>
    </text>
  </g>
  
  <!-- Total Contributions Card -->
  <g transform="translate(533.3333333333333, 100)">
    <rect width="206.66666666666666" height="120" fill="#ffffff" stroke="#e2e8f0" stroke-width="1" rx="8" filter="url(#shadow)">
      <animate attributeName="opacity" values="0;1" dur="0.6s" begin="0.6s" fill="freeze"/>
      <animateTransform attributeName="transform" type="scale" values="0.8;1" dur="0.6s" begin="0.6s" fill="freeze"/>
    </rect>
    <text x="103.33333333333333" y="25" text-anchor="middle" fill="#64748b" font-size="14" font-weight="bold" font-family="Arial, sans-serif">TOTAL
      <animate attributeName="opacity" values="0;1" dur="0.5s" begin="0.8s" fill="freeze"/>
    </text>
    
    <text x="103.33333333333333" y="50" text-anchor="middle" fill="#22c55e" font-size="32" font-weight="bold" font-family="Arial, sans-serif">
      ↗
      <animate attributeName="opacity" values="0;1" dur="0.5s" begin="1s" fill="freeze"/>
      <animateTransform attributeName="transform" type="scale" values="0;1.2;1" dur="0.8s" begin="1s" fill="freeze"/>
    </text>
    
    <text x="103.33333333333333" y="75" text-anchor="middle" fill="#1e293b" font-size="18" font-weight="bold" font-family="Arial, sans-serif">
      +23
      <animate attributeName="opacity" values="0;1" dur="0.5s" begin="1.2s" fill="freeze"/>
    </text>
    
    <text x="103.33333333333333" y="95" text-anchor="middle" fill="#64748b" font-size="12" font-family="Arial, sans-serif">
      #41 → #18
      <animate attributeName="opacity" values="0;1" dur="0.5s" begin="1.4s" fill="freeze"/>
    </text>
  </g>
  
  <!-- Timeline Charts (if we have snapshots) -->
  
  <!-- 👥 Followers Count Chart -->
  <g transform="translate(60, 250)">
    <!-- Chart Background -->
    <rect x="0" y="0" width="213.33333333333334" height="200" fill="#ffffff" stroke="#e2e8f0" stroke-width="1" rx="8" filter="url(#shadow)">
      <animate attributeName="opacity" values="0;1" dur="0.5s" begin="1.8s" fill="freeze"/>
    </rect>
    
    <!-- Chart Title -->
    <text x="106.66666666666667" y="25" text-anchor="middle" fill="#1e293b" font-size="14" font-weight="bold" font-family="Arial, sans-serif">
      👥 Followers Count
      <animate attributeName="opacity" values="0;1" dur="0.5s" begin="2s" fill="freeze"/>
    </text>
    
    <!-- Y-axis labels -->
    <text x="10" y="45" fill="#64748b" font-size="10" font-family="Arial, sans-serif">149
      <animate attributeName="opacity" values="0;1" dur="0.5s" begin="2.2s" fill="freeze"/>
    </text>
    <text x="10" y="185" fill="#64748b" font-size="10" font-family="Arial, sans-serif">142
      <animate attributeName="opacity" values="0;1" dur="0.5s" begin="2.2s" fill="freeze"/>
    </text>
    
    <!-- Chart Line with draw animation that follows the circle -->
    <path d="M 30,160 L 30.025970246079126,160 L 30.057245663199954,160 L 31.549737244806018,160 L 31.57574333663543,160 L 31.60714421388224,160 L 33.09497584795168,160 L 33.12462028343469,160 L 33.15585985480523,160 L 34.64849481941242,160 L 34.67670542488416,160 L 34.710167432772174,160 L 36.19805283546703,160 L 36.22386177566989,160 L 36.2600839063296,160 L 37.74203683735283,160 L 37.767576934428575,160 L 37.798189205169194,160 L 39.290268560647014,160 L 39.316059577974734,160 L 39.34722745784472,160 L 40.84050764595698,160 L 40.86197925037575,160 L 40.892752826992634,160 L 42.388918598002576,160 L 42.41397477744952,160 L 42.434747389737794,160 L 43.935375956657815,160 L 43.95924922634546,160 L 43.989449270957834,160 L 45.48002310492382,160 L 45.515922623830996,160 L 45.548452642211686,160 L 47.03515513514725,160 L 47.06182437335687,160 L 47.09306394472742,160 L 48.58401415907136,160 L 48.61009194240134,160 L 48.63527358197426,160 L 50.13423532150618,160 L 50.15660306968199,160 L 50.182645007261684,160 L 51.67847024364396,160 L 51.703974494969415,160 L 51.7326869409451,160 L 53.22949793546012,160 L 53.2517223006348,160 L 53.28251380012682,160 L 54.766993856544914,160 L 54.800599247434064,160 L 54.83155205280235,160 L 56.32696506305638,160 L 56.35571335478234,160 L 56.38492764126197,160 L 57.87637969610986,160 L 57.906328820470264,160 L 57.94002382573511,160 L 59.42000524049284,160 L 59.44515103431549,160 L 59.47393517179174,160 L 60.96891803304238,160 L 60.98762951468946,160 L 61.020553836323245,160 L 62.518547740597555,160 L 62.5411484861502,160 L 62.5718862170168,160 L 64.06875098015723,160 L 64.09138757146016,160 L 64.11828980704661,160 L 65.61468857543339,142.85714285714286 L 65.63764777848886,142.85714285714286 L 65.66711298522046,142.85714285714286 L 67.16471258624166,142.85714285714286 L 67.18853208730388,142.85714285714286 L 67.22174317493993,142.85714285714286 L 68.70439509809366,142.85714285714286 L 68.73773164585567,142.85714285714286 L 68.7703692014872,142.85714285714286 L 70.2624306340899,142.85714285714286 L 70.27994128310253,142.85714285714286 L 70.30980079308722,142.85714285714286 L 71.8081710777395,142.85714285714286 L 71.83267164805707,142.85714285714286 L 71.86489697756036,142.85714285714286 L 73.3503986378615,142.85714285714286 L 73.38255227586423,142.85714285714286 L 73.41128264471504,142.85714285714286 L 74.90581743408717,142.85714285714286 L 74.93110661091094,142.85714285714286 L 74.95886914450415,142.85714285714286 L 76.45214933261641,142.85714285714286 L 76.47695459181139,142.85714285714286 L 76.50202869413349,142.85714285714286 L 76.54176370832079,142.85714285714286 L 78.00627768183196,142.85714285714286 L 78.03244507953764,142.85714285714286 L 78.05965200400149,142.85714285714286 L 79.55375664437022,142.85714285714286 L 79.57985235057534,142.85714285714286 L 79.60836764492447,142.85714285714286 L 81.1015044500356,142.85714285714286 L 81.12552110272438,142.85714285714286 L 81.15292517881477,142.85714285714286 L 82.64548845192141,142.85714285714286 L 82.67434428089823,142.85714285714286 L 84.2049040493035,142.85714285714286 L 84.22243262119127,142.85714285714286 L 84.25024892340991,142.85714285714286 L 85.7457336251645,142.85714285714286 L 85.77041342423348,142.85714285714286 L 85.80091815772326,142.85714285714286 L 87.29389365695812,142.85714285714286 L 87.31798200114746,142.85714285714286 L 87.34506346548531,142.85714285714286 L 88.84513642327597,142.85714285714286 L 88.87098120922911,142.85714285714286 L 88.90336784460868,142.85714285714286 L 90.39528589421025,142.85714285714286 L 90.42313804217915,142.85714285714286 L 90.44984312613906,142.85714285714286 L 91.9464032004021,142.85714285714286 L 91.96353746903678,142.85714285714286 L 91.99255460388986,142.85714285714286 L 93.48956275003141,142.85714285714286 L 93.51196634395751,142.85714285714286 L 93.53766774690952,142.85714285714286 L 95.03777655045046,142.85714285714286 L 95.05865669998958,142.85714285714286 L 95.09032642036351,142.85714285714286 L 96.58563189336668,142.85714285714286 L 96.60853732779672,142.85714285714286 L 96.63839683778143,142.85714285714286 L 98.13121103114003,142.85714285714286 L 98.15327409043844,142.85714285714286 L 98.18576826306885,142.85714285714286 L 99.678779608054,142.85714285714286 L 99.71116624343355,142.85714285714286 L 99.74423394806847,142.85714285714286 L 101.23256742264185,142.85714285714286 L 101.2563510779538,142.85714285714286 L 101.28626435656392,142.85714285714286 L 102.78070953156033,142.85714285714286 L 102.80415265224461,142.85714285714286 L 102.83406593085472,142.85714285714286 L 104.32998078161269,142.85714285714286 L 104.36077228110472,142.85714285714286 L 104.3971557176407,142.85714285714286 L 105.87892941991252,142.85714285714286 L 105.90129716808832,142.85714285714286 L 105.92990207681316,142.85714285714286 L 107.42911473659706,142.85714285714286 L 107.44809506137123,142.85714285714286 L 107.47804418573165,142.85714285714286 L 108.97256105222863,142.85714285714286 L 108.99489295465416,142.85714285714286 L 109.02340824900328,142.85714285714286 L 109.06242634818497,142.85714285714286 L 110.52520180280746,142.85714285714286 L 110.55500754416674,142.85714285714286 L 110.58459821102433,142.85714285714286 L 112.06992064257405,142.85714285714286 L 112.0972171814136,142.85714285714286 L 112.12573247576273,142.85714285714286 L 113.62112756314161,142.85714285714286 L 113.6364695442622,142.85714285714286 L 113.67247660042021,142.85714285714286 L 115.16801507080024,142.85714285714286 L 115.19346555350027,142.85714285714286 L 115.21438154878967,142.85714285714286 L 116.71771646985597,142.85714285714286 L 116.74176896829502,142.85714285714286 L 116.77103702340007,142.85714285714286 L 118.26709525715918,142.85714285714286 L 118.29279666011118,142.85714285714286 L 118.32097141983265,142.85714285714286 L 119.81425160794491,142.85714285714286 L 119.83466576273037,142.85714285714286 L 119.86619210010316,142.85714285714286 L 121.36558398863846,142.85714285714286 L 121.38762912506174,142.85714285714286 L 121.41854608467975,142.85714285714286 L 122.91302710542645,142.85714285714286 L 122.93871058550332,142.85714285714286 L 122.96964546799647,142.85714285714286 L 124.46066737384099,142.85714285714286 L 124.48545471016082,142.85714285714286 L 124.50400488593162,142.85714285714286 L 126.00617482011376,142.85714285714286 L 126.04123196388932,142.85714285714286 L 126.0649080819504,142.85714285714286 L 127.55806280993669,142.85714285714286 L 127.58213323125088,142.85714285714286 L 129.13247985381167,142.85714285714286 L 129.15889817176935,142.85714285714286 L 130.65158690500195,142.85714285714286 L 130.67481495118452,142.85714285714286 L 130.70246994752688,142.85714285714286 L 132.2035824320757,142.85714285714286 L 132.23247410680278,142.85714285714286 L 132.26003948876948,142.85714285714286 L 133.75213676712244,142.85714285714286 L 133.78183497123086,142.85714285714286 L 133.81081626033367,142.85714285714286 L 135.30334368769002,142.85714285714286 L 135.3310524526578,142.85714285714286 L 135.35488987659517,142.85714285714286 L 136.8475069183272,142.85714285714286 L 136.87584298392494,40 L 136.90493181027858,40 L 138.42441524184682,40 L 138.4503317193005,40 L 139.94008110101004,40 L 139.96793324897897,40 L 139.98659096200058,40 L 141.49247093133687,40 L 141.52019761917984,40 L 141.54851576190242,40 L 143.03806799198537,40 L 143.06690589808704,40 L 143.10235734511568,40 L 144.59296702483195,40 L 144.62322083806976,40 L 144.64474621111395,40 L 146.1404639102454,40 L 146.1646777145607,40 L 146.1943221500437,40 L 147.69154537068695,40 L 147.7464252143683,40 L 149.23579821569984,40 L 149.26547849693316,40 L 149.29282880439814,40 L 150.78601937813468,40 L 150.81410452348044,40 L 150.8434263472109,40 L 152.3351830909362,40 L 152.3638238454113,40 L 152.3960491749146,40 L 153.88300258810216,40 L 153.9131488640891,40 L 153.94411959233253,40 L 155.4342095086697,40 L 155.46378225265215,40 L 155.49197493524878,40 L 156.98487874298306,40 L 157.00615319577525,40 L 157.03560047963174,40 L 158.5279666011118,40 L 158.55533483145192,40 L 158.5870583204513,40 L 160.07720200541388,40 L 160.10440892987774,40 L 160.13435805423813,40 L 161.6258818005866,40 L 161.65165489503917,40 L 161.68343215266395,40 L 163.17563696826775,40 L 163.20141006272033,40 L 163.2253012552831,40 L 164.72947855148104,40 L 164.7514340735286,40 L 164.78339055990477,40 L 166.27330124749056,40 L 166.2985725014392,40 L 166.32699818141262,40 L 167.82110282178138,40 L 167.84336303270635,40 L 167.8770221922209,40 L 169.3680440980654,40 L 169.3941756500208,40 L 169.42623967364784,40 L 170.91485991422348,40 L 170.93923502441504,40 L 170.97391578781264,40 L 172.4592919879878,40 L 172.49078247961032,40 L 172.52311534636445,40 L 174.0132769542022,40 L 174.03842274802486,40 L 174.06792380050672,40 L 175.56389241989012,40 L 175.59104557572854,40 L 175.6240415888629,40 L 177.10981209229112,40 L 177.14153558129047,40 L 177.17659272506603,40 L 178.66141331611178,40 L 178.68553750605142,40 L 178.7170996891745,40 L 180.21100717791668,40 L 180.23342869471793,40 L 180.26506256934155,40 L 181.7561382438115,40 L 181.7808718115059,40 L 181.81184253974936,40 L 183.3052481879876,40 L 183.33333333333334,40" stroke="#22c55e" stroke-width="2" fill="none" stroke-dasharray="14800" stroke-dashoffset="14800">
      <animate attributeName="stroke-dashoffset" values="14800;0" dur="3s" begin="2.6s" fill="freeze"/>
    </path>
    
    <!-- Glow effect for the line that also follows the circle -->
    <path d="M 30,160 L 30.025970246079126,160 L 30.057245663199954,160 L 31.549737244806018,160 L 31.57574333663543,160 L 31.60714421388224,160 L 33.09497584795168,160 L 33.12462028343469,160 L 33.15585985480523,160 L 34.64849481941242,160 L 34.67670542488416,160 L 34.710167432772174,160 L 36.19805283546703,160 L 36.22386177566989,160 L 36.2600839063296,160 L 37.74203683735283,160 L 37.767576934428575,160 L 37.798189205169194,160 L 39.290268560647014,160 L 39.316059577974734,160 L 39.34722745784472,160 L 40.84050764595698,160 L 40.86197925037575,160 L 40.892752826992634,160 L 42.388918598002576,160 L 42.41397477744952,160 L 42.434747389737794,160 L 43.935375956657815,160 L 43.95924922634546,160 L 43.989449270957834,160 L 45.48002310492382,160 L 45.515922623830996,160 L 45.548452642211686,160 L 47.03515513514725,160 L 47.06182437335687,160 L 47.09306394472742,160 L 48.58401415907136,160 L 48.61009194240134,160 L 48.63527358197426,160 L 50.13423532150618,160 L 50.15660306968199,160 L 50.182645007261684,160 L 51.67847024364396,160 L 51.703974494969415,160 L 51.7326869409451,160 L 53.22949793546012,160 L 53.2517223006348,160 L 53.28251380012682,160 L 54.766993856544914,160 L 54.800599247434064,160 L 54.83155205280235,160 L 56.32696506305638,160 L 56.35571335478234,160 L 56.38492764126197,160 L 57.87637969610986,160 L 57.906328820470264,160 L 57.94002382573511,160 L 59.42000524049284,160 L 59.44515103431549,160 L 59.47393517179174,160 L 60.96891803304238,160 L 60.98762951468946,160 L 61.020553836323245,160 L 62.518547740597555,160 L 62.5411484861502,160 L 62.5718862170168,160 L 64.06875098015723,160 L 64.09138757146016,160 L 64.11828980704661,160 L 65.61468857543339,142.85714285714286 L 65.63764777848886,142.85714285714286 L 65.66711298522046,142.85714285714286 L 67.16471258624166,142.85714285714286 L 67.18853208730388,142.85714285714286 L 67.22174317493993,142.85714285714286 L 68.70439509809366,142.85714285714286 L 68.73773164585567,142.85714285714286 L 68.7703692014872,142.85714285714286 L 70.2624306340899,142.85714285714286 L 70.27994128310253,142.85714285714286 L 70.30980079308722,142.85714285714286 L 71.8081710777395,142.85714285714286 L 71.83267164805707,142.85714285714286 L 71.86489697756036,142.85714285714286 L 73.3503986378615,142.85714285714286 L 73.38255227586423,142.85714285714286 L 73.41128264471504,142.85714285714286 L 74.90581743408717,142.85714285714286 L 74.93110661091094,142.85714285714286 L 74.95886914450415,142.85714285714286 L 76.45214933261641,142.85714285714286 L 76.47695459181139,142.85714285714286 L 76.50202869413349,142.85714285714286 L 76.54176370832079,142.85714285714286 L 78.00627768183196,142.85714285714286 L 78.03244507953764,142.85714285714286 L 78.05965200400149,142.85714285714286 L 79.55375664437022,142.85714285714286 L 79.57985235057534,142.85714285714286 L 79.60836764492447,142.85714285714286 L 81.1015044500356,142.85714285714286 L 81.12552110272438,142.85714285714286 L 81.15292517881477,142.85714285714286 L 82.64548845192141,142.85714285714286 L 82.67434428089823,142.85714285714286 L 84.2049040493035,142.85714285714286 L 84.22243262119127,142.85714285714286 L 84.25024892340991,142.85714285714286 L 85.7457336251645,142.85714285714286 L 85.77041342423348,142.85714285714286 L 85.80091815772326,142.85714285714286 L 87.29389365695812,142.85714285714286 L 87.31798200114746,142.85714285714286 L 87.34506346548531,142.85714285714286 L 88.84513642327597,142.85714285714286 L 88.87098120922911,142.85714285714286 L 88.90336784460868,142.85714285714286 L 90.39528589421025,142.85714285714286 L 90.42313804217915,142.85714285714286 L 90.44984312613906,142.85714285714286 L 91.9464032004021,142.85714285714286 L 91.96353746903678,142.85714285714286 L 91.99255460388986,142.85714285714286 L 93.48956275003141,142.85714285714286 L 93.51196634395751,142.85714285714286 L 93.53766774690952,142.85714285714286 L 95.03777655045046,142.85714285714286 L 95.05865669998958,142.85714285714286 L 95.09032642036351,142.85714285714286 L 96.58563189336668,142.85714285714286 L 96.60853732779672,142.85714285714286 L 96.63839683778143,142.85714285714286 L 98.13121103114003,142.85714285714286 L 98.15327409043844,142.85714285714286 L 98.18576826306885,142.85714285714286 L 99.678779608054,142.85714285714286 L 99.71116624343355,142.85714285714286 L 99.74423394806847,142.85714285714286 L 101.23256742264185,142.85714285714286 L 101.2563510779538,142.85714285714286 L 101.28626435656392,142.85714285714286 L 102.78070953156033,142.85714285714286 L 102.80415265224461,142.85714285714286 L 102.83406593085472,142.85714285714286 L 104.32998078161269,142.85714285714286 L 104.36077228110472,142.85714285714286 L 104.3971557176407,142.85714285714286 L 105.87892941991252,142.85714285714286 L 105.90129716808832,142.85714285714286 L 105.92990207681316,142.85714285714286 L 107.42911473659706,142.85714285714286 L 107.44809506137123,142.85714285714286 L 107.47804418573165,142.85714285714286 L 108.97256105222863,142.85714285714286 L 108.99489295465416,142.85714285714286 L 109.02340824900328,142.85714285714286 L 109.06242634818497,142.85714285714286 L 110.52520180280746,142.85714285714286 L 110.55500754416674,142.85714285714286 L 110.58459821102433,142.85714285714286 L 112.06992064257405,142.85714285714286 L 112.0972171814136,142.85714285714286 L 112.12573247576273,142.85714285714286 L 113.62112756314161,142.85714285714286 L 113.6364695442622,142.85714285714286 L 113.67247660042021,142.85714285714286 L 115.16801507080024,142.85714285714286 L 115.19346555350027,142.85714285714286 L 115.21438154878967,142.85714285714286 L 116.71771646985597,142.85714285714286 L 116.74176896829502,142.85714285714286 L 116.77103702340007,142.85714285714286 L 118.26709525715918,142.85714285714286 L 118.29279666011118,142.85714285714286 L 118.32097141983265,142.85714285714286 L 119.81425160794491,142.85714285714286 L 119.83466576273037,142.85714285714286 L 119.86619210010316,142.85714285714286 L 121.36558398863846,142.85714285714286 L 121.38762912506174,142.85714285714286 L 121.41854608467975,142.85714285714286 L 122.91302710542645,142.85714285714286 L 122.93871058550332,142.85714285714286 L 122.96964546799647,142.85714285714286 L 124.46066737384099,142.85714285714286 L 124.48545471016082,142.85714285714286 L 124.50400488593162,142.85714285714286 L 126.00617482011376,142.85714285714286 L 126.04123196388932,142.85714285714286 L 126.0649080819504,142.85714285714286 L 127.55806280993669,142.85714285714286 L 127.58213323125088,142.85714285714286 L 129.13247985381167,142.85714285714286 L 129.15889817176935,142.85714285714286 L 130.65158690500195,142.85714285714286 L 130.67481495118452,142.85714285714286 L 130.70246994752688,142.85714285714286 L 132.2035824320757,142.85714285714286 L 132.23247410680278,142.85714285714286 L 132.26003948876948,142.85714285714286 L 133.75213676712244,142.85714285714286 L 133.78183497123086,142.85714285714286 L 133.81081626033367,142.85714285714286 L 135.30334368769002,142.85714285714286 L 135.3310524526578,142.85714285714286 L 135.35488987659517,142.85714285714286 L 136.8475069183272,142.85714285714286 L 136.87584298392494,40 L 136.90493181027858,40 L 138.42441524184682,40 L 138.4503317193005,40 L 139.94008110101004,40 L 139.96793324897897,40 L 139.98659096200058,40 L 141.49247093133687,40 L 141.52019761917984,40 L 141.54851576190242,40 L 143.03806799198537,40 L 143.06690589808704,40 L 143.10235734511568,40 L 144.59296702483195,40 L 144.62322083806976,40 L 144.64474621111395,40 L 146.1404639102454,40 L 146.1646777145607,40 L 146.1943221500437,40 L 147.69154537068695,40 L 147.7464252143683,40 L 149.23579821569984,40 L 149.26547849693316,40 L 149.29282880439814,40 L 150.78601937813468,40 L 150.81410452348044,40 L 150.8434263472109,40 L 152.3351830909362,40 L 152.3638238454113,40 L 152.3960491749146,40 L 153.88300258810216,40 L 153.9131488640891,40 L 153.94411959233253,40 L 155.4342095086697,40 L 155.46378225265215,40 L 155.49197493524878,40 L 156.98487874298306,40 L 157.00615319577525,40 L 157.03560047963174,40 L 158.5279666011118,40 L 158.55533483145192,40 L 158.5870583204513,40 L 160.07720200541388,40 L 160.10440892987774,40 L 160.13435805423813,40 L 161.6258818005866,40 L 161.65165489503917,40 L 161.68343215266395,40 L 163.17563696826775,40 L 163.20141006272033,40 L 163.2253012552831,40 L 164.72947855148104,40 L 164.7514340735286,40 L 164.78339055990477,40 L 166.27330124749056,40 L 166.2985725014392,40 L 166.32699818141262,40 L 167.82110282178138,40 L 167.84336303270635,40 L 167.8770221922209,40 L 169.3680440980654,40 L 169.3941756500208,40 L 169.42623967364784,40 L 170.91485991422348,40 L 170.93923502441504,40 L 170.97391578781264,40 L 172.4592919879878,40 L 172.49078247961032,40 L 172.52311534636445,40 L 174.0132769542022,40 L 174.03842274802486,40 L 174.06792380050672,40 L 175.56389241989012,40 L 175.59104557572854,40 L 175.6240415888629,40 L 177.10981209229112,40 L 177.14153558129047,40 L 177.17659272506603,40 L 178.66141331611178,40 L 178.68553750605142,40 L 178.7170996891745,40 L 180.21100717791668,40 L 180.23342869471793,40 L 180.26506256934155,40 L 181.7561382438115,40 L 181.7808718115059,40 L 181.81184253974936,40 L 183.3052481879876,40 L 183.33333333333334,40" stroke="#22c55e" stroke-width="4" fill="none" opacity="0.4" stroke-dasharray="14800" stroke-dashoffset="14800">
      <animate attributeName="stroke-dashoffset" values="14800;0" dur="3s" begin="2.6s" fill="freeze"/>
    </path>
    
    <!-- Animated circle that moves along the path and draws the line -->
    <circle r="5" fill="#22c55e" opacity="0" filter="url(#trailGlow)">
      <animate attributeName="opacity" values="0;1;1;1" dur="3.2s" begin="2.4s" fill="freeze"/>
      <animate attributeName="r" values="5;6;5" dur="1s" begin="2.4s" repeatCount="3"/>
      <animateMotion dur="3s" begin="2.4s" fill="freeze">
        <mpath href="#path_followersCount_60"/>
      </animateMotion>
    </circle>
    
    <!-- Small trail dots that fade out -->
    <circle r="2" fill="#22c55e" opacity="0">
      <animate attributeName="opacity" values="0;0.6;0" dur="0.8s" begin="2.8s" fill="freeze"/>
      <animateMotion dur="3s" begin="2.4s" fill="freeze">
        <mpath href="#path_followersCount_60"/>
      </animateMotion>
    </circle>
    
    <!-- Hidden path for motion animation -->
    <path id="path_followersCount_60" d="M 30,160 L 30.025970246079126,160 L 30.057245663199954,160 L 31.549737244806018,160 L 31.57574333663543,160 L 31.60714421388224,160 L 33.09497584795168,160 L 33.12462028343469,160 L 33.15585985480523,160 L 34.64849481941242,160 L 34.67670542488416,160 L 34.710167432772174,160 L 36.19805283546703,160 L 36.22386177566989,160 L 36.2600839063296,160 L 37.74203683735283,160 L 37.767576934428575,160 L 37.798189205169194,160 L 39.290268560647014,160 L 39.316059577974734,160 L 39.34722745784472,160 L 40.84050764595698,160 L 40.86197925037575,160 L 40.892752826992634,160 L 42.388918598002576,160 L 42.41397477744952,160 L 42.434747389737794,160 L 43.935375956657815,160 L 43.95924922634546,160 L 43.989449270957834,160 L 45.48002310492382,160 L 45.515922623830996,160 L 45.548452642211686,160 L 47.03515513514725,160 L 47.06182437335687,160 L 47.09306394472742,160 L 48.58401415907136,160 L 48.61009194240134,160 L 48.63527358197426,160 L 50.13423532150618,160 L 50.15660306968199,160 L 50.182645007261684,160 L 51.67847024364396,160 L 51.703974494969415,160 L 51.7326869409451,160 L 53.22949793546012,160 L 53.2517223006348,160 L 53.28251380012682,160 L 54.766993856544914,160 L 54.800599247434064,160 L 54.83155205280235,160 L 56.32696506305638,160 L 56.35571335478234,160 L 56.38492764126197,160 L 57.87637969610986,160 L 57.906328820470264,160 L 57.94002382573511,160 L 59.42000524049284,160 L 59.44515103431549,160 L 59.47393517179174,160 L 60.96891803304238,160 L 60.98762951468946,160 L 61.020553836323245,160 L 62.518547740597555,160 L 62.5411484861502,160 L 62.5718862170168,160 L 64.06875098015723,160 L 64.09138757146016,160 L 64.11828980704661,160 L 65.61468857543339,142.85714285714286 L 65.63764777848886,142.85714285714286 L 65.66711298522046,142.85714285714286 L 67.16471258624166,142.85714285714286 L 67.18853208730388,142.85714285714286 L 67.22174317493993,142.85714285714286 L 68.70439509809366,142.85714285714286 L 68.73773164585567,142.85714285714286 L 68.7703692014872,142.85714285714286 L 70.2624306340899,142.85714285714286 L 70.27994128310253,142.85714285714286 L 70.30980079308722,142.85714285714286 L 71.8081710777395,142.85714285714286 L 71.83267164805707,142.85714285714286 L 71.86489697756036,142.85714285714286 L 73.3503986378615,142.85714285714286 L 73.38255227586423,142.85714285714286 L 73.41128264471504,142.85714285714286 L 74.90581743408717,142.85714285714286 L 74.93110661091094,142.85714285714286 L 74.95886914450415,142.85714285714286 L 76.45214933261641,142.85714285714286 L 76.47695459181139,142.85714285714286 L 76.50202869413349,142.85714285714286 L 76.54176370832079,142.85714285714286 L 78.00627768183196,142.85714285714286 L 78.03244507953764,142.85714285714286 L 78.05965200400149,142.85714285714286 L 79.55375664437022,142.85714285714286 L 79.57985235057534,142.85714285714286 L 79.60836764492447,142.85714285714286 L 81.1015044500356,142.85714285714286 L 81.12552110272438,142.85714285714286 L 81.15292517881477,142.85714285714286 L 82.64548845192141,142.85714285714286 L 82.67434428089823,142.85714285714286 L 84.2049040493035,142.85714285714286 L 84.22243262119127,142.85714285714286 L 84.25024892340991,142.85714285714286 L 85.7457336251645,142.85714285714286 L 85.77041342423348,142.85714285714286 L 85.80091815772326,142.85714285714286 L 87.29389365695812,142.85714285714286 L 87.31798200114746,142.85714285714286 L 87.34506346548531,142.85714285714286 L 88.84513642327597,142.85714285714286 L 88.87098120922911,142.85714285714286 L 88.90336784460868,142.85714285714286 L 90.39528589421025,142.85714285714286 L 90.42313804217915,142.85714285714286 L 90.44984312613906,142.85714285714286 L 91.9464032004021,142.85714285714286 L 91.96353746903678,142.85714285714286 L 91.99255460388986,142.85714285714286 L 93.48956275003141,142.85714285714286 L 93.51196634395751,142.85714285714286 L 93.53766774690952,142.85714285714286 L 95.03777655045046,142.85714285714286 L 95.05865669998958,142.85714285714286 L 95.09032642036351,142.85714285714286 L 96.58563189336668,142.85714285714286 L 96.60853732779672,142.85714285714286 L 96.63839683778143,142.85714285714286 L 98.13121103114003,142.85714285714286 L 98.15327409043844,142.85714285714286 L 98.18576826306885,142.85714285714286 L 99.678779608054,142.85714285714286 L 99.71116624343355,142.85714285714286 L 99.74423394806847,142.85714285714286 L 101.23256742264185,142.85714285714286 L 101.2563510779538,142.85714285714286 L 101.28626435656392,142.85714285714286 L 102.78070953156033,142.85714285714286 L 102.80415265224461,142.85714285714286 L 102.83406593085472,142.85714285714286 L 104.32998078161269,142.85714285714286 L 104.36077228110472,142.85714285714286 L 104.3971557176407,142.85714285714286 L 105.87892941991252,142.85714285714286 L 105.90129716808832,142.85714285714286 L 105.92990207681316,142.85714285714286 L 107.42911473659706,142.85714285714286 L 107.44809506137123,142.85714285714286 L 107.47804418573165,142.85714285714286 L 108.97256105222863,142.85714285714286 L 108.99489295465416,142.85714285714286 L 109.02340824900328,142.85714285714286 L 109.06242634818497,142.85714285714286 L 110.52520180280746,142.85714285714286 L 110.55500754416674,142.85714285714286 L 110.58459821102433,142.85714285714286 L 112.06992064257405,142.85714285714286 L 112.0972171814136,142.85714285714286 L 112.12573247576273,142.85714285714286 L 113.62112756314161,142.85714285714286 L 113.6364695442622,142.85714285714286 L 113.67247660042021,142.85714285714286 L 115.16801507080024,142.85714285714286 L 115.19346555350027,142.85714285714286 L 115.21438154878967,142.85714285714286 L 116.71771646985597,142.85714285714286 L 116.74176896829502,142.85714285714286 L 116.77103702340007,142.85714285714286 L 118.26709525715918,142.85714285714286 L 118.29279666011118,142.85714285714286 L 118.32097141983265,142.85714285714286 L 119.81425160794491,142.85714285714286 L 119.83466576273037,142.85714285714286 L 119.86619210010316,142.85714285714286 L 121.36558398863846,142.85714285714286 L 121.38762912506174,142.85714285714286 L 121.41854608467975,142.85714285714286 L 122.91302710542645,142.85714285714286 L 122.93871058550332,142.85714285714286 L 122.96964546799647,142.85714285714286 L 124.46066737384099,142.85714285714286 L 124.48545471016082,142.85714285714286 L 124.50400488593162,142.85714285714286 L 126.00617482011376,142.85714285714286 L 126.04123196388932,142.85714285714286 L 126.0649080819504,142.85714285714286 L 127.55806280993669,142.85714285714286 L 127.58213323125088,142.85714285714286 L 129.13247985381167,142.85714285714286 L 129.15889817176935,142.85714285714286 L 130.65158690500195,142.85714285714286 L 130.67481495118452,142.85714285714286 L 130.70246994752688,142.85714285714286 L 132.2035824320757,142.85714285714286 L 132.23247410680278,142.85714285714286 L 132.26003948876948,142.85714285714286 L 133.75213676712244,142.85714285714286 L 133.78183497123086,142.85714285714286 L 133.81081626033367,142.85714285714286 L 135.30334368769002,142.85714285714286 L 135.3310524526578,142.85714285714286 L 135.35488987659517,142.85714285714286 L 136.8475069183272,142.85714285714286 L 136.87584298392494,40 L 136.90493181027858,40 L 138.42441524184682,40 L 138.4503317193005,40 L 139.94008110101004,40 L 139.96793324897897,40 L 139.98659096200058,40 L 141.49247093133687,40 L 141.52019761917984,40 L 141.54851576190242,40 L 143.03806799198537,40 L 143.06690589808704,40 L 143.10235734511568,40 L 144.59296702483195,40 L 144.62322083806976,40 L 144.64474621111395,40 L 146.1404639102454,40 L 146.1646777145607,40 L 146.1943221500437,40 L 147.69154537068695,40 L 147.7464252143683,40 L 149.23579821569984,40 L 149.26547849693316,40 L 149.29282880439814,40 L 150.78601937813468,40 L 150.81410452348044,40 L 150.8434263472109,40 L 152.3351830909362,40 L 152.3638238454113,40 L 152.3960491749146,40 L 153.88300258810216,40 L 153.9131488640891,40 L 153.94411959233253,40 L 155.4342095086697,40 L 155.46378225265215,40 L 155.49197493524878,40 L 156.98487874298306,40 L 157.00615319577525,40 L 157.03560047963174,40 L 158.5279666011118,40 L 158.55533483145192,40 L 158.5870583204513,40 L 160.07720200541388,40 L 160.10440892987774,40 L 160.13435805423813,40 L 161.6258818005866,40 L 161.65165489503917,40 L 161.68343215266395,40 L 163.17563696826775,40 L 163.20141006272033,40 L 163.2253012552831,40 L 164.72947855148104,40 L 164.7514340735286,40 L 164.78339055990477,40 L 166.27330124749056,40 L 166.2985725014392,40 L 166.32699818141262,40 L 167.82110282178138,40 L 167.84336303270635,40 L 167.8770221922209,40 L 169.3680440980654,40 L 169.3941756500208,40 L 169.42623967364784,40 L 170.91485991422348,40 L 170.93923502441504,40 L 170.97391578781264,40 L 172.4592919879878,40 L 172.49078247961032,40 L 172.52311534636445,40 L 174.0132769542022,40 L 174.03842274802486,40 L 174.06792380050672,40 L 175.56389241989012,40 L 175.59104557572854,40 L 175.6240415888629,40 L 177.10981209229112,40 L 177.14153558129047,40 L 177.17659272506603,40 L 178.66141331611178,40 L 178.68553750605142,40 L 178.7170996891745,40 L 180.21100717791668,40 L 180.23342869471793,40 L 180.26506256934155,40 L 181.7561382438115,40 L 181.7808718115059,40 L 181.81184253974936,40 L 183.3052481879876,40 L 183.33333333333334,40" fill="none" stroke="none"/>
  </g>
  <!-- 🔓 Public Contributions Chart -->
  <g transform="translate(293.33333333333337, 250)">
    <!-- Chart Background -->
    <rect x="0" y="0" width="213.33333333333334" height="200" fill="#ffffff" stroke="#e2e8f0" stroke-width="1" rx="8" filter="url(#shadow)">
      <animate attributeName="opacity" values="0;1" dur="0.5s" begin="2.3s" fill="freeze"/>
    </rect>
    
    <!-- Chart Title -->
    <text x="106.66666666666667" y="25" text-anchor="middle" fill="#1e293b" font-size="14" font-weight="bold" font-family="Arial, sans-serif">
      🔓 Public Contributions
      <animate attributeName="opacity" values="0;1" dur="0.5s" begin="2.5s" fill="freeze"/>
    </text>
    
    <!-- Y-axis labels -->
    <text x="10" y="45" fill="#64748b" font-size="10" font-family="Arial, sans-serif">3,180
      <animate attributeName="opacity" values="0;1" dur="0.5s" begin="2.6999999999999997s" fill="freeze"/>
    </text>
    <text x="10" y="185" fill="#64748b" font-size="10" font-family="Arial, sans-serif">1,753
      <animate attributeName="opacity" values="0;1" dur="0.5s" begin="2.6999999999999997s" fill="freeze"/>
    </text>
    
    <!-- Chart Line with draw animation that follows the circle -->
    <path d="M 30,160 L 30.025970246079126,160 L 30.057245663199954,160 L 31.549737244806018,160 L 31.57574333663543,160 L 31.60714421388224,160 L 33.09497584795168,160 L 33.12462028343469,160 L 33.15585985480523,160 L 34.64849481941242,160 L 34.67670542488416,160 L 34.710167432772174,160 L 36.19805283546703,160 L 36.22386177566989,160 L 36.2600839063296,160 L 37.74203683735283,160 L 37.767576934428575,160 L 37.798189205169194,160 L 39.290268560647014,160 L 39.316059577974734,160 L 39.34722745784472,160 L 40.84050764595698,160 L 40.86197925037575,160 L 40.892752826992634,160 L 42.388918598002576,160 L 42.41397477744952,160 L 42.434747389737794,160 L 43.935375956657815,160 L 43.95924922634546,160 L 43.989449270957834,160 L 45.48002310492382,160 L 45.515922623830996,160 L 45.548452642211686,160 L 47.03515513514725,160 L 47.06182437335687,160 L 47.09306394472742,160 L 48.58401415907136,160 L 48.61009194240134,160 L 48.63527358197426,160 L 50.13423532150618,160 L 50.15660306968199,160 L 50.182645007261684,160 L 51.67847024364396,160 L 51.703974494969415,160 L 51.7326869409451,160 L 53.22949793546012,160 L 53.2517223006348,160 L 53.28251380012682,160 L 54.766993856544914,160 L 54.800599247434064,160 L 54.83155205280235,160 L 56.32696506305638,160 L 56.35571335478234,160 L 56.38492764126197,160 L 57.87637969610986,160 L 57.906328820470264,160 L 57.94002382573511,160 L 59.42000524049284,160 L 59.44515103431549,160 L 59.47393517179174,160 L 60.96891803304238,160 L 60.98762951468946,160 L 61.020553836323245,160 L 62.518547740597555,160 L 62.5411484861502,160 L 62.5718862170168,160 L 64.06875098015723,160 L 64.09138757146016,160 L 64.11828980704661,160 L 65.61468857543339,82.97126839523476 L 65.63764777848886,82.97126839523476 L 65.66711298522046,82.97126839523476 L 67.16471258624166,82.97126839523476 L 67.18853208730388,82.97126839523476 L 67.22174317493993,82.97126839523476 L 68.70439509809366,82.97126839523476 L 68.73773164585567,82.97126839523476 L 68.7703692014872,82.97126839523476 L 70.2624306340899,82.97126839523476 L 70.27994128310253,82.97126839523476 L 70.30980079308722,82.97126839523476 L 71.8081710777395,82.97126839523476 L 71.83267164805707,82.97126839523476 L 71.86489697756036,82.97126839523476 L 73.3503986378615,82.97126839523476 L 73.38255227586423,82.97126839523476 L 73.41128264471504,82.97126839523476 L 74.90581743408717,82.97126839523476 L 74.93110661091094,82.97126839523476 L 74.95886914450415,82.97126839523476 L 76.45214933261641,82.97126839523476 L 76.47695459181139,82.97126839523476 L 76.50202869413349,82.97126839523476 L 76.54176370832079,82.97126839523476 L 78.00627768183196,82.97126839523476 L 78.03244507953764,82.97126839523476 L 78.05965200400149,82.97126839523476 L 79.55375664437022,82.97126839523476 L 79.57985235057534,82.97126839523476 L 79.60836764492447,82.97126839523476 L 81.1015044500356,82.97126839523476 L 81.12552110272438,82.97126839523476 L 81.15292517881477,82.97126839523476 L 82.64548845192141,82.97126839523476 L 82.67434428089823,82.97126839523476 L 84.2049040493035,82.97126839523476 L 84.22243262119127,82.97126839523476 L 84.25024892340991,82.97126839523476 L 85.7457336251645,82.97126839523476 L 85.77041342423348,82.97126839523476 L 85.80091815772326,82.97126839523476 L 87.29389365695812,82.97126839523476 L 87.31798200114746,82.97126839523476 L 87.34506346548531,82.97126839523476 L 88.84513642327597,82.97126839523476 L 88.87098120922911,82.97126839523476 L 88.90336784460868,82.97126839523476 L 90.39528589421025,82.97126839523476 L 90.42313804217915,82.97126839523476 L 90.44984312613906,82.97126839523476 L 91.9464032004021,82.97126839523476 L 91.96353746903678,82.97126839523476 L 91.99255460388986,82.97126839523476 L 93.48956275003141,82.97126839523476 L 93.51196634395751,82.97126839523476 L 93.53766774690952,82.97126839523476 L 95.03777655045046,82.97126839523476 L 95.05865669998958,82.97126839523476 L 95.09032642036351,82.97126839523476 L 96.58563189336668,82.97126839523476 L 96.60853732779672,82.97126839523476 L 96.63839683778143,82.97126839523476 L 98.13121103114003,82.97126839523476 L 98.15327409043844,82.97126839523476 L 98.18576826306885,82.97126839523476 L 99.678779608054,82.97126839523476 L 99.71116624343355,82.97126839523476 L 99.74423394806847,82.97126839523476 L 101.23256742264185,82.97126839523476 L 101.2563510779538,82.97126839523476 L 101.28626435656392,82.97126839523476 L 102.78070953156033,82.97126839523476 L 102.80415265224461,82.97126839523476 L 102.83406593085472,82.97126839523476 L 104.32998078161269,82.97126839523476 L 104.36077228110472,82.97126839523476 L 104.3971557176407,82.97126839523476 L 105.87892941991252,82.97126839523476 L 105.90129716808832,82.97126839523476 L 105.92990207681316,82.97126839523476 L 107.42911473659706,82.97126839523476 L 107.44809506137123,82.97126839523476 L 107.47804418573165,82.97126839523476 L 108.97256105222863,82.97126839523476 L 108.99489295465416,82.97126839523476 L 109.02340824900328,82.97126839523476 L 109.06242634818497,82.97126839523476 L 110.52520180280746,82.97126839523476 L 110.55500754416674,82.97126839523476 L 110.58459821102433,82.97126839523476 L 112.06992064257405,82.97126839523476 L 112.0972171814136,82.97126839523476 L 112.12573247576273,82.97126839523476 L 113.62112756314161,82.97126839523476 L 113.6364695442622,82.97126839523476 L 113.67247660042021,82.97126839523476 L 115.16801507080024,82.97126839523476 L 115.19346555350027,82.97126839523476 L 115.21438154878967,82.97126839523476 L 116.71771646985597,82.97126839523476 L 116.74176896829502,82.97126839523476 L 116.77103702340007,82.97126839523476 L 118.26709525715918,82.97126839523476 L 118.29279666011118,82.97126839523476 L 118.32097141983265,82.97126839523476 L 119.81425160794491,82.97126839523476 L 119.83466576273037,82.97126839523476 L 119.86619210010316,82.97126839523476 L 121.36558398863846,82.97126839523476 L 121.38762912506174,82.97126839523476 L 121.41854608467975,82.97126839523476 L 122.91302710542645,82.97126839523476 L 122.93871058550332,82.97126839523476 L 122.96964546799647,82.97126839523476 L 124.46066737384099,82.97126839523476 L 124.48545471016082,82.97126839523476 L 124.50400488593162,82.97126839523476 L 126.00617482011376,82.97126839523476 L 126.04123196388932,82.97126839523476 L 126.0649080819504,82.97126839523476 L 127.55806280993669,82.97126839523476 L 127.58213323125088,82.97126839523476 L 129.13247985381167,82.97126839523476 L 129.15889817176935,82.97126839523476 L 130.65158690500195,82.97126839523476 L 130.67481495118452,82.97126839523476 L 130.70246994752688,82.97126839523476 L 132.2035824320757,82.97126839523476 L 132.23247410680278,82.97126839523476 L 132.26003948876948,82.97126839523476 L 133.75213676712244,82.97126839523476 L 133.78183497123086,82.97126839523476 L 133.81081626033367,82.97126839523476 L 135.30334368769002,82.97126839523476 L 135.3310524526578,82.97126839523476 L 135.35488987659517,82.97126839523476 L 136.8475069183272,82.97126839523476 L 136.87584298392494,40 L 136.90493181027858,40 L 138.42441524184682,40 L 138.4503317193005,40 L 139.94008110101004,40 L 139.96793324897897,40 L 139.98659096200058,40 L 141.49247093133687,40 L 141.52019761917984,40 L 141.54851576190242,40 L 143.03806799198537,40 L 143.06690589808704,40 L 143.10235734511568,40 L 144.59296702483195,40 L 144.62322083806976,40 L 144.64474621111395,40 L 146.1404639102454,40 L 146.1646777145607,40 L 146.1943221500437,40 L 147.69154537068695,40 L 147.7464252143683,40 L 149.23579821569984,40 L 149.26547849693316,40 L 149.29282880439814,40 L 150.78601937813468,40 L 150.81410452348044,40 L 150.8434263472109,40 L 152.3351830909362,40 L 152.3638238454113,40 L 152.3960491749146,40 L 153.88300258810216,40 L 153.9131488640891,40 L 153.94411959233253,40 L 155.4342095086697,40 L 155.46378225265215,40 L 155.49197493524878,40 L 156.98487874298306,40 L 157.00615319577525,40 L 157.03560047963174,40 L 158.5279666011118,40 L 158.55533483145192,40 L 158.5870583204513,40 L 160.07720200541388,40 L 160.10440892987774,40 L 160.13435805423813,40 L 161.6258818005866,40 L 161.65165489503917,40 L 161.68343215266395,40 L 163.17563696826775,40 L 163.20141006272033,40 L 163.2253012552831,40 L 164.72947855148104,40 L 164.7514340735286,40 L 164.78339055990477,40 L 166.27330124749056,40 L 166.2985725014392,40 L 166.32699818141262,40 L 167.82110282178138,40 L 167.84336303270635,40 L 167.8770221922209,40 L 169.3680440980654,40 L 169.3941756500208,40 L 169.42623967364784,40 L 170.91485991422348,40 L 170.93923502441504,40 L 170.97391578781264,40 L 172.4592919879878,40 L 172.49078247961032,40 L 172.52311534636445,40 L 174.0132769542022,40 L 174.03842274802486,40 L 174.06792380050672,40 L 175.56389241989012,40 L 175.59104557572854,40 L 175.6240415888629,40 L 177.10981209229112,40 L 177.14153558129047,40 L 177.17659272506603,40 L 178.66141331611178,40 L 178.68553750605142,40 L 178.7170996891745,40 L 180.21100717791668,40 L 180.23342869471793,40 L 180.26506256934155,40 L 181.7561382438115,40 L 181.7808718115059,40 L 181.81184253974936,40 L 183.3052481879876,40 L 183.33333333333334,40" stroke="#3b82f6" stroke-width="2" fill="none" stroke-dasharray="14800" stroke-dashoffset="14800">
      <animate attributeName="stroke-dashoffset" values="14800;0" dur="3s" begin="3.0999999999999996s" fill="freeze"/>
    </path>
    
    <!-- Glow effect for the line that also follows the circle -->
    <path d="M 30,160 L 30.025970246079126,160 L 30.057245663199954,160 L 31.549737244806018,160 L 31.57574333663543,160 L 31.60714421388224,160 L 33.09497584795168,160 L 33.12462028343469,160 L 33.15585985480523,160 L 34.64849481941242,160 L 34.67670542488416,160 L 34.710167432772174,160 L 36.19805283546703,160 L 36.22386177566989,160 L 36.2600839063296,160 L 37.74203683735283,160 L 37.767576934428575,160 L 37.798189205169194,160 L 39.290268560647014,160 L 39.316059577974734,160 L 39.34722745784472,160 L 40.84050764595698,160 L 40.86197925037575,160 L 40.892752826992634,160 L 42.388918598002576,160 L 42.41397477744952,160 L 42.434747389737794,160 L 43.935375956657815,160 L 43.95924922634546,160 L 43.989449270957834,160 L 45.48002310492382,160 L 45.515922623830996,160 L 45.548452642211686,160 L 47.03515513514725,160 L 47.06182437335687,160 L 47.09306394472742,160 L 48.58401415907136,160 L 48.61009194240134,160 L 48.63527358197426,160 L 50.13423532150618,160 L 50.15660306968199,160 L 50.182645007261684,160 L 51.67847024364396,160 L 51.703974494969415,160 L 51.7326869409451,160 L 53.22949793546012,160 L 53.2517223006348,160 L 53.28251380012682,160 L 54.766993856544914,160 L 54.800599247434064,160 L 54.83155205280235,160 L 56.32696506305638,160 L 56.35571335478234,160 L 56.38492764126197,160 L 57.87637969610986,160 L 57.906328820470264,160 L 57.94002382573511,160 L 59.42000524049284,160 L 59.44515103431549,160 L 59.47393517179174,160 L 60.96891803304238,160 L 60.98762951468946,160 L 61.020553836323245,160 L 62.518547740597555,160 L 62.5411484861502,160 L 62.5718862170168,160 L 64.06875098015723,160 L 64.09138757146016,160 L 64.11828980704661,160 L 65.61468857543339,82.97126839523476 L 65.63764777848886,82.97126839523476 L 65.66711298522046,82.97126839523476 L 67.16471258624166,82.97126839523476 L 67.18853208730388,82.97126839523476 L 67.22174317493993,82.97126839523476 L 68.70439509809366,82.97126839523476 L 68.73773164585567,82.97126839523476 L 68.7703692014872,82.97126839523476 L 70.2624306340899,82.97126839523476 L 70.27994128310253,82.97126839523476 L 70.30980079308722,82.97126839523476 L 71.8081710777395,82.97126839523476 L 71.83267164805707,82.97126839523476 L 71.86489697756036,82.97126839523476 L 73.3503986378615,82.97126839523476 L 73.38255227586423,82.97126839523476 L 73.41128264471504,82.97126839523476 L 74.90581743408717,82.97126839523476 L 74.93110661091094,82.97126839523476 L 74.95886914450415,82.97126839523476 L 76.45214933261641,82.97126839523476 L 76.47695459181139,82.97126839523476 L 76.50202869413349,82.97126839523476 L 76.54176370832079,82.97126839523476 L 78.00627768183196,82.97126839523476 L 78.03244507953764,82.97126839523476 L 78.05965200400149,82.97126839523476 L 79.55375664437022,82.97126839523476 L 79.57985235057534,82.97126839523476 L 79.60836764492447,82.97126839523476 L 81.1015044500356,82.97126839523476 L 81.12552110272438,82.97126839523476 L 81.15292517881477,82.97126839523476 L 82.64548845192141,82.97126839523476 L 82.67434428089823,82.97126839523476 L 84.2049040493035,82.97126839523476 L 84.22243262119127,82.97126839523476 L 84.25024892340991,82.97126839523476 L 85.7457336251645,82.97126839523476 L 85.77041342423348,82.97126839523476 L 85.80091815772326,82.97126839523476 L 87.29389365695812,82.97126839523476 L 87.31798200114746,82.97126839523476 L 87.34506346548531,82.97126839523476 L 88.84513642327597,82.97126839523476 L 88.87098120922911,82.97126839523476 L 88.90336784460868,82.97126839523476 L 90.39528589421025,82.97126839523476 L 90.42313804217915,82.97126839523476 L 90.44984312613906,82.97126839523476 L 91.9464032004021,82.97126839523476 L 91.96353746903678,82.97126839523476 L 91.99255460388986,82.97126839523476 L 93.48956275003141,82.97126839523476 L 93.51196634395751,82.97126839523476 L 93.53766774690952,82.97126839523476 L 95.03777655045046,82.97126839523476 L 95.05865669998958,82.97126839523476 L 95.09032642036351,82.97126839523476 L 96.58563189336668,82.97126839523476 L 96.60853732779672,82.97126839523476 L 96.63839683778143,82.97126839523476 L 98.13121103114003,82.97126839523476 L 98.15327409043844,82.97126839523476 L 98.18576826306885,82.97126839523476 L 99.678779608054,82.97126839523476 L 99.71116624343355,82.97126839523476 L 99.74423394806847,82.97126839523476 L 101.23256742264185,82.97126839523476 L 101.2563510779538,82.97126839523476 L 101.28626435656392,82.97126839523476 L 102.78070953156033,82.97126839523476 L 102.80415265224461,82.97126839523476 L 102.83406593085472,82.97126839523476 L 104.32998078161269,82.97126839523476 L 104.36077228110472,82.97126839523476 L 104.3971557176407,82.97126839523476 L 105.87892941991252,82.97126839523476 L 105.90129716808832,82.97126839523476 L 105.92990207681316,82.97126839523476 L 107.42911473659706,82.97126839523476 L 107.44809506137123,82.97126839523476 L 107.47804418573165,82.97126839523476 L 108.97256105222863,82.97126839523476 L 108.99489295465416,82.97126839523476 L 109.02340824900328,82.97126839523476 L 109.06242634818497,82.97126839523476 L 110.52520180280746,82.97126839523476 L 110.55500754416674,82.97126839523476 L 110.58459821102433,82.97126839523476 L 112.06992064257405,82.97126839523476 L 112.0972171814136,82.97126839523476 L 112.12573247576273,82.97126839523476 L 113.62112756314161,82.97126839523476 L 113.6364695442622,82.97126839523476 L 113.67247660042021,82.97126839523476 L 115.16801507080024,82.97126839523476 L 115.19346555350027,82.97126839523476 L 115.21438154878967,82.97126839523476 L 116.71771646985597,82.97126839523476 L 116.74176896829502,82.97126839523476 L 116.77103702340007,82.97126839523476 L 118.26709525715918,82.97126839523476 L 118.29279666011118,82.97126839523476 L 118.32097141983265,82.97126839523476 L 119.81425160794491,82.97126839523476 L 119.83466576273037,82.97126839523476 L 119.86619210010316,82.97126839523476 L 121.36558398863846,82.97126839523476 L 121.38762912506174,82.97126839523476 L 121.41854608467975,82.97126839523476 L 122.91302710542645,82.97126839523476 L 122.93871058550332,82.97126839523476 L 122.96964546799647,82.97126839523476 L 124.46066737384099,82.97126839523476 L 124.48545471016082,82.97126839523476 L 124.50400488593162,82.97126839523476 L 126.00617482011376,82.97126839523476 L 126.04123196388932,82.97126839523476 L 126.0649080819504,82.97126839523476 L 127.55806280993669,82.97126839523476 L 127.58213323125088,82.97126839523476 L 129.13247985381167,82.97126839523476 L 129.15889817176935,82.97126839523476 L 130.65158690500195,82.97126839523476 L 130.67481495118452,82.97126839523476 L 130.70246994752688,82.97126839523476 L 132.2035824320757,82.97126839523476 L 132.23247410680278,82.97126839523476 L 132.26003948876948,82.97126839523476 L 133.75213676712244,82.97126839523476 L 133.78183497123086,82.97126839523476 L 133.81081626033367,82.97126839523476 L 135.30334368769002,82.97126839523476 L 135.3310524526578,82.97126839523476 L 135.35488987659517,82.97126839523476 L 136.8475069183272,82.97126839523476 L 136.87584298392494,40 L 136.90493181027858,40 L 138.42441524184682,40 L 138.4503317193005,40 L 139.94008110101004,40 L 139.96793324897897,40 L 139.98659096200058,40 L 141.49247093133687,40 L 141.52019761917984,40 L 141.54851576190242,40 L 143.03806799198537,40 L 143.06690589808704,40 L 143.10235734511568,40 L 144.59296702483195,40 L 144.62322083806976,40 L 144.64474621111395,40 L 146.1404639102454,40 L 146.1646777145607,40 L 146.1943221500437,40 L 147.69154537068695,40 L 147.7464252143683,40 L 149.23579821569984,40 L 149.26547849693316,40 L 149.29282880439814,40 L 150.78601937813468,40 L 150.81410452348044,40 L 150.8434263472109,40 L 152.3351830909362,40 L 152.3638238454113,40 L 152.3960491749146,40 L 153.88300258810216,40 L 153.9131488640891,40 L 153.94411959233253,40 L 155.4342095086697,40 L 155.46378225265215,40 L 155.49197493524878,40 L 156.98487874298306,40 L 157.00615319577525,40 L 157.03560047963174,40 L 158.5279666011118,40 L 158.55533483145192,40 L 158.5870583204513,40 L 160.07720200541388,40 L 160.10440892987774,40 L 160.13435805423813,40 L 161.6258818005866,40 L 161.65165489503917,40 L 161.68343215266395,40 L 163.17563696826775,40 L 163.20141006272033,40 L 163.2253012552831,40 L 164.72947855148104,40 L 164.7514340735286,40 L 164.78339055990477,40 L 166.27330124749056,40 L 166.2985725014392,40 L 166.32699818141262,40 L 167.82110282178138,40 L 167.84336303270635,40 L 167.8770221922209,40 L 169.3680440980654,40 L 169.3941756500208,40 L 169.42623967364784,40 L 170.91485991422348,40 L 170.93923502441504,40 L 170.97391578781264,40 L 172.4592919879878,40 L 172.49078247961032,40 L 172.52311534636445,40 L 174.0132769542022,40 L 174.03842274802486,40 L 174.06792380050672,40 L 175.56389241989012,40 L 175.59104557572854,40 L 175.6240415888629,40 L 177.10981209229112,40 L 177.14153558129047,40 L 177.17659272506603,40 L 178.66141331611178,40 L 178.68553750605142,40 L 178.7170996891745,40 L 180.21100717791668,40 L 180.23342869471793,40 L 180.26506256934155,40 L 181.7561382438115,40 L 181.7808718115059,40 L 181.81184253974936,40 L 183.3052481879876,40 L 183.33333333333334,40" stroke="#3b82f6" stroke-width="4" fill="none" opacity="0.4" stroke-dasharray="14800" stroke-dashoffset="14800">
      <animate attributeName="stroke-dashoffset" values="14800;0" dur="3s" begin="3.0999999999999996s" fill="freeze"/>
    </path>
    
    <!-- Animated circle that moves along the path and draws the line -->
    <circle r="5" fill="#3b82f6" opacity="0" filter="url(#trailGlow)">
      <animate attributeName="opacity" values="0;1;1;1" dur="3.2s" begin="2.9s" fill="freeze"/>
      <animate attributeName="r" values="5;6;5" dur="1s" begin="2.9s" repeatCount="3"/>
      <animateMotion dur="3s" begin="2.9s" fill="freeze">
        <mpath href="#path_publicContributions_293.33333333333337"/>
      </animateMotion>
    </circle>
    
    <!-- Small trail dots that fade out -->
    <circle r="2" fill="#3b82f6" opacity="0">
      <animate attributeName="opacity" values="0;0.6;0" dur="0.8s" begin="3.3s" fill="freeze"/>
      <animateMotion dur="3s" begin="2.9s" fill="freeze">
        <mpath href="#path_publicContributions_293.33333333333337"/>
      </animateMotion>
    </circle>
    
    <!-- Hidden path for motion animation -->
    <path id="path_publicContributions_293.33333333333337" d="M 30,160 L 30.025970246079126,160 L 30.057245663199954,160 L 31.549737244806018,160 L 31.57574333663543,160 L 31.60714421388224,160 L 33.09497584795168,160 L 33.12462028343469,160 L 33.15585985480523,160 L 34.64849481941242,160 L 34.67670542488416,160 L 34.710167432772174,160 L 36.19805283546703,160 L 36.22386177566989,160 L 36.2600839063296,160 L 37.74203683735283,160 L 37.767576934428575,160 L 37.798189205169194,160 L 39.290268560647014,160 L 39.316059577974734,160 L 39.34722745784472,160 L 40.84050764595698,160 L 40.86197925037575,160 L 40.892752826992634,160 L 42.388918598002576,160 L 42.41397477744952,160 L 42.434747389737794,160 L 43.935375956657815,160 L 43.95924922634546,160 L 43.989449270957834,160 L 45.48002310492382,160 L 45.515922623830996,160 L 45.548452642211686,160 L 47.03515513514725,160 L 47.06182437335687,160 L 47.09306394472742,160 L 48.58401415907136,160 L 48.61009194240134,160 L 48.63527358197426,160 L 50.13423532150618,160 L 50.15660306968199,160 L 50.182645007261684,160 L 51.67847024364396,160 L 51.703974494969415,160 L 51.7326869409451,160 L 53.22949793546012,160 L 53.2517223006348,160 L 53.28251380012682,160 L 54.766993856544914,160 L 54.800599247434064,160 L 54.83155205280235,160 L 56.32696506305638,160 L 56.35571335478234,160 L 56.38492764126197,160 L 57.87637969610986,160 L 57.906328820470264,160 L 57.94002382573511,160 L 59.42000524049284,160 L 59.44515103431549,160 L 59.47393517179174,160 L 60.96891803304238,160 L 60.98762951468946,160 L 61.020553836323245,160 L 62.518547740597555,160 L 62.5411484861502,160 L 62.5718862170168,160 L 64.06875098015723,160 L 64.09138757146016,160 L 64.11828980704661,160 L 65.61468857543339,82.97126839523476 L 65.63764777848886,82.97126839523476 L 65.66711298522046,82.97126839523476 L 67.16471258624166,82.97126839523476 L 67.18853208730388,82.97126839523476 L 67.22174317493993,82.97126839523476 L 68.70439509809366,82.97126839523476 L 68.73773164585567,82.97126839523476 L 68.7703692014872,82.97126839523476 L 70.2624306340899,82.97126839523476 L 70.27994128310253,82.97126839523476 L 70.30980079308722,82.97126839523476 L 71.8081710777395,82.97126839523476 L 71.83267164805707,82.97126839523476 L 71.86489697756036,82.97126839523476 L 73.3503986378615,82.97126839523476 L 73.38255227586423,82.97126839523476 L 73.41128264471504,82.97126839523476 L 74.90581743408717,82.97126839523476 L 74.93110661091094,82.97126839523476 L 74.95886914450415,82.97126839523476 L 76.45214933261641,82.97126839523476 L 76.47695459181139,82.97126839523476 L 76.50202869413349,82.97126839523476 L 76.54176370832079,82.97126839523476 L 78.00627768183196,82.97126839523476 L 78.03244507953764,82.97126839523476 L 78.05965200400149,82.97126839523476 L 79.55375664437022,82.97126839523476 L 79.57985235057534,82.97126839523476 L 79.60836764492447,82.97126839523476 L 81.1015044500356,82.97126839523476 L 81.12552110272438,82.97126839523476 L 81.15292517881477,82.97126839523476 L 82.64548845192141,82.97126839523476 L 82.67434428089823,82.97126839523476 L 84.2049040493035,82.97126839523476 L 84.22243262119127,82.97126839523476 L 84.25024892340991,82.97126839523476 L 85.7457336251645,82.97126839523476 L 85.77041342423348,82.97126839523476 L 85.80091815772326,82.97126839523476 L 87.29389365695812,82.97126839523476 L 87.31798200114746,82.97126839523476 L 87.34506346548531,82.97126839523476 L 88.84513642327597,82.97126839523476 L 88.87098120922911,82.97126839523476 L 88.90336784460868,82.97126839523476 L 90.39528589421025,82.97126839523476 L 90.42313804217915,82.97126839523476 L 90.44984312613906,82.97126839523476 L 91.9464032004021,82.97126839523476 L 91.96353746903678,82.97126839523476 L 91.99255460388986,82.97126839523476 L 93.48956275003141,82.97126839523476 L 93.51196634395751,82.97126839523476 L 93.53766774690952,82.97126839523476 L 95.03777655045046,82.97126839523476 L 95.05865669998958,82.97126839523476 L 95.09032642036351,82.97126839523476 L 96.58563189336668,82.97126839523476 L 96.60853732779672,82.97126839523476 L 96.63839683778143,82.97126839523476 L 98.13121103114003,82.97126839523476 L 98.15327409043844,82.97126839523476 L 98.18576826306885,82.97126839523476 L 99.678779608054,82.97126839523476 L 99.71116624343355,82.97126839523476 L 99.74423394806847,82.97126839523476 L 101.23256742264185,82.97126839523476 L 101.2563510779538,82.97126839523476 L 101.28626435656392,82.97126839523476 L 102.78070953156033,82.97126839523476 L 102.80415265224461,82.97126839523476 L 102.83406593085472,82.97126839523476 L 104.32998078161269,82.97126839523476 L 104.36077228110472,82.97126839523476 L 104.3971557176407,82.97126839523476 L 105.87892941991252,82.97126839523476 L 105.90129716808832,82.97126839523476 L 105.92990207681316,82.97126839523476 L 107.42911473659706,82.97126839523476 L 107.44809506137123,82.97126839523476 L 107.47804418573165,82.97126839523476 L 108.97256105222863,82.97126839523476 L 108.99489295465416,82.97126839523476 L 109.02340824900328,82.97126839523476 L 109.06242634818497,82.97126839523476 L 110.52520180280746,82.97126839523476 L 110.55500754416674,82.97126839523476 L 110.58459821102433,82.97126839523476 L 112.06992064257405,82.97126839523476 L 112.0972171814136,82.97126839523476 L 112.12573247576273,82.97126839523476 L 113.62112756314161,82.97126839523476 L 113.6364695442622,82.97126839523476 L 113.67247660042021,82.97126839523476 L 115.16801507080024,82.97126839523476 L 115.19346555350027,82.97126839523476 L 115.21438154878967,82.97126839523476 L 116.71771646985597,82.97126839523476 L 116.74176896829502,82.97126839523476 L 116.77103702340007,82.97126839523476 L 118.26709525715918,82.97126839523476 L 118.29279666011118,82.97126839523476 L 118.32097141983265,82.97126839523476 L 119.81425160794491,82.97126839523476 L 119.83466576273037,82.97126839523476 L 119.86619210010316,82.97126839523476 L 121.36558398863846,82.97126839523476 L 121.38762912506174,82.97126839523476 L 121.41854608467975,82.97126839523476 L 122.91302710542645,82.97126839523476 L 122.93871058550332,82.97126839523476 L 122.96964546799647,82.97126839523476 L 124.46066737384099,82.97126839523476 L 124.48545471016082,82.97126839523476 L 124.50400488593162,82.97126839523476 L 126.00617482011376,82.97126839523476 L 126.04123196388932,82.97126839523476 L 126.0649080819504,82.97126839523476 L 127.55806280993669,82.97126839523476 L 127.58213323125088,82.97126839523476 L 129.13247985381167,82.97126839523476 L 129.15889817176935,82.97126839523476 L 130.65158690500195,82.97126839523476 L 130.67481495118452,82.97126839523476 L 130.70246994752688,82.97126839523476 L 132.2035824320757,82.97126839523476 L 132.23247410680278,82.97126839523476 L 132.26003948876948,82.97126839523476 L 133.75213676712244,82.97126839523476 L 133.78183497123086,82.97126839523476 L 133.81081626033367,82.97126839523476 L 135.30334368769002,82.97126839523476 L 135.3310524526578,82.97126839523476 L 135.35488987659517,82.97126839523476 L 136.8475069183272,82.97126839523476 L 136.87584298392494,40 L 136.90493181027858,40 L 138.42441524184682,40 L 138.4503317193005,40 L 139.94008110101004,40 L 139.96793324897897,40 L 139.98659096200058,40 L 141.49247093133687,40 L 141.52019761917984,40 L 141.54851576190242,40 L 143.03806799198537,40 L 143.06690589808704,40 L 143.10235734511568,40 L 144.59296702483195,40 L 144.62322083806976,40 L 144.64474621111395,40 L 146.1404639102454,40 L 146.1646777145607,40 L 146.1943221500437,40 L 147.69154537068695,40 L 147.7464252143683,40 L 149.23579821569984,40 L 149.26547849693316,40 L 149.29282880439814,40 L 150.78601937813468,40 L 150.81410452348044,40 L 150.8434263472109,40 L 152.3351830909362,40 L 152.3638238454113,40 L 152.3960491749146,40 L 153.88300258810216,40 L 153.9131488640891,40 L 153.94411959233253,40 L 155.4342095086697,40 L 155.46378225265215,40 L 155.49197493524878,40 L 156.98487874298306,40 L 157.00615319577525,40 L 157.03560047963174,40 L 158.5279666011118,40 L 158.55533483145192,40 L 158.5870583204513,40 L 160.07720200541388,40 L 160.10440892987774,40 L 160.13435805423813,40 L 161.6258818005866,40 L 161.65165489503917,40 L 161.68343215266395,40 L 163.17563696826775,40 L 163.20141006272033,40 L 163.2253012552831,40 L 164.72947855148104,40 L 164.7514340735286,40 L 164.78339055990477,40 L 166.27330124749056,40 L 166.2985725014392,40 L 166.32699818141262,40 L 167.82110282178138,40 L 167.84336303270635,40 L 167.8770221922209,40 L 169.3680440980654,40 L 169.3941756500208,40 L 169.42623967364784,40 L 170.91485991422348,40 L 170.93923502441504,40 L 170.97391578781264,40 L 172.4592919879878,40 L 172.49078247961032,40 L 172.52311534636445,40 L 174.0132769542022,40 L 174.03842274802486,40 L 174.06792380050672,40 L 175.56389241989012,40 L 175.59104557572854,40 L 175.6240415888629,40 L 177.10981209229112,40 L 177.14153558129047,40 L 177.17659272506603,40 L 178.66141331611178,40 L 178.68553750605142,40 L 178.7170996891745,40 L 180.21100717791668,40 L 180.23342869471793,40 L 180.26506256934155,40 L 181.7561382438115,40 L 181.7808718115059,40 L 181.81184253974936,40 L 183.3052481879876,40 L 183.33333333333334,40" fill="none" stroke="none"/>
  </g>
  <!-- 📊 Total Contributions Chart -->
  <g transform="translate(526.6666666666667, 250)">
    <!-- Chart Background -->
    <rect x="0" y="0" width="213.33333333333334" height="200" fill="#ffffff" stroke="#e2e8f0" stroke-width="1" rx="8" filter="url(#shadow)">
      <animate attributeName="opacity" values="0;1" dur="0.5s" begin="2.8s" fill="freeze"/>
    </rect>
    
    <!-- Chart Title -->
    <text x="106.66666666666667" y="25" text-anchor="middle" fill="#1e293b" font-size="14" font-weight="bold" font-family="Arial, sans-serif">
      📊 Total Contributions
      <animate attributeName="opacity" values="0;1" dur="0.5s" begin="3s" fill="freeze"/>
    </text>
    
    <!-- Y-axis labels -->
    <text x="10" y="45" fill="#64748b" font-size="10" font-family="Arial, sans-serif">4,408
      <animate attributeName="opacity" values="0;1" dur="0.5s" begin="3.1999999999999997s" fill="freeze"/>
    </text>
    <text x="10" y="185" fill="#64748b" font-size="10" font-family="Arial, sans-serif">2,598
      <animate attributeName="opacity" values="0;1" dur="0.5s" begin="3.1999999999999997s" fill="freeze"/>
    </text>
    
    <!-- Chart Line with draw animation that follows the circle -->
    <path d="M 30,160 L 30.025970246079126,160 L 30.057245663199954,160 L 31.549737244806018,160 L 31.57574333663543,160 L 31.60714421388224,160 L 33.09497584795168,160 L 33.12462028343469,160 L 33.15585985480523,160 L 34.64849481941242,160 L 34.67670542488416,160 L 34.710167432772174,160 L 36.19805283546703,160 L 36.22386177566989,160 L 36.2600839063296,160 L 37.74203683735283,160 L 37.767576934428575,160 L 37.798189205169194,160 L 39.290268560647014,160 L 39.316059577974734,160 L 39.34722745784472,160 L 40.84050764595698,160 L 40.86197925037575,160 L 40.892752826992634,160 L 42.388918598002576,160 L 42.41397477744952,160 L 42.434747389737794,160 L 43.935375956657815,160 L 43.95924922634546,160 L 43.989449270957834,160 L 45.48002310492382,160 L 45.515922623830996,160 L 45.548452642211686,160 L 47.03515513514725,160 L 47.06182437335687,160 L 47.09306394472742,160 L 48.58401415907136,160 L 48.61009194240134,160 L 48.63527358197426,160 L 50.13423532150618,160 L 50.15660306968199,160 L 50.182645007261684,160 L 51.67847024364396,160 L 51.703974494969415,160 L 51.7326869409451,160 L 53.22949793546012,160 L 53.2517223006348,160 L 53.28251380012682,160 L 54.766993856544914,160 L 54.800599247434064,160 L 54.83155205280235,160 L 56.32696506305638,160 L 56.35571335478234,160 L 56.38492764126197,160 L 57.87637969610986,160 L 57.906328820470264,160 L 57.94002382573511,160 L 59.42000524049284,160 L 59.44515103431549,160 L 59.47393517179174,160 L 60.96891803304238,160 L 60.98762951468946,160 L 61.020553836323245,160 L 62.518547740597555,160 L 62.5411484861502,160 L 62.5718862170168,160 L 64.06875098015723,160 L 64.09138757146016,160 L 64.11828980704661,160 L 65.61468857543339,80.1767955801105 L 65.63764777848886,80.1767955801105 L 65.66711298522046,80.1767955801105 L 67.16471258624166,80.1767955801105 L 67.18853208730388,80.1767955801105 L 67.22174317493993,80.1767955801105 L 68.70439509809366,80.1767955801105 L 68.73773164585567,80.1767955801105 L 68.7703692014872,80.1767955801105 L 70.2624306340899,80.1767955801105 L 70.27994128310253,80.1767955801105 L 70.30980079308722,80.1767955801105 L 71.8081710777395,80.1767955801105 L 71.83267164805707,80.1767955801105 L 71.86489697756036,80.1767955801105 L 73.3503986378615,80.1767955801105 L 73.38255227586423,80.1767955801105 L 73.41128264471504,80.1767955801105 L 74.90581743408717,80.1767955801105 L 74.93110661091094,80.1767955801105 L 74.95886914450415,80.1767955801105 L 76.45214933261641,80.1767955801105 L 76.47695459181139,80.1767955801105 L 76.50202869413349,80.1767955801105 L 76.54176370832079,80.1767955801105 L 78.00627768183196,80.1767955801105 L 78.03244507953764,80.1767955801105 L 78.05965200400149,80.1767955801105 L 79.55375664437022,80.1767955801105 L 79.57985235057534,80.1767955801105 L 79.60836764492447,80.1767955801105 L 81.1015044500356,80.1767955801105 L 81.12552110272438,80.1767955801105 L 81.15292517881477,80.1767955801105 L 82.64548845192141,80.1767955801105 L 82.67434428089823,80.1767955801105 L 84.2049040493035,80.1767955801105 L 84.22243262119127,80.1767955801105 L 84.25024892340991,80.1767955801105 L 85.7457336251645,80.1767955801105 L 85.77041342423348,80.1767955801105 L 85.80091815772326,80.1767955801105 L 87.29389365695812,80.1767955801105 L 87.31798200114746,80.1767955801105 L 87.34506346548531,80.1767955801105 L 88.84513642327597,80.1767955801105 L 88.87098120922911,80.1767955801105 L 88.90336784460868,80.1767955801105 L 90.39528589421025,80.1767955801105 L 90.42313804217915,80.1767955801105 L 90.44984312613906,80.1767955801105 L 91.9464032004021,80.1767955801105 L 91.96353746903678,80.1767955801105 L 91.99255460388986,80.1767955801105 L 93.48956275003141,80.1767955801105 L 93.51196634395751,80.1767955801105 L 93.53766774690952,80.1767955801105 L 95.03777655045046,80.1767955801105 L 95.05865669998958,80.1767955801105 L 95.09032642036351,80.1767955801105 L 96.58563189336668,80.1767955801105 L 96.60853732779672,80.1767955801105 L 96.63839683778143,80.1767955801105 L 98.13121103114003,80.1767955801105 L 98.15327409043844,80.1767955801105 L 98.18576826306885,80.1767955801105 L 99.678779608054,80.1767955801105 L 99.71116624343355,80.1767955801105 L 99.74423394806847,80.1767955801105 L 101.23256742264185,80.1767955801105 L 101.2563510779538,80.1767955801105 L 101.28626435656392,80.1767955801105 L 102.78070953156033,80.1767955801105 L 102.80415265224461,80.1767955801105 L 102.83406593085472,80.1767955801105 L 104.32998078161269,80.1767955801105 L 104.36077228110472,80.1767955801105 L 104.3971557176407,80.1767955801105 L 105.87892941991252,80.1767955801105 L 105.90129716808832,80.1767955801105 L 105.92990207681316,80.1767955801105 L 107.42911473659706,80.1767955801105 L 107.44809506137123,80.1767955801105 L 107.47804418573165,80.1767955801105 L 108.97256105222863,80.1767955801105 L 108.99489295465416,80.1767955801105 L 109.02340824900328,80.1767955801105 L 109.06242634818497,80.1767955801105 L 110.52520180280746,80.1767955801105 L 110.55500754416674,80.1767955801105 L 110.58459821102433,80.1767955801105 L 112.06992064257405,80.1767955801105 L 112.0972171814136,80.1767955801105 L 112.12573247576273,80.1767955801105 L 113.62112756314161,80.1767955801105 L 113.6364695442622,80.1767955801105 L 113.67247660042021,80.1767955801105 L 115.16801507080024,80.1767955801105 L 115.19346555350027,80.1767955801105 L 115.21438154878967,80.1767955801105 L 116.71771646985597,80.1767955801105 L 116.74176896829502,80.1767955801105 L 116.77103702340007,80.1767955801105 L 118.26709525715918,80.1767955801105 L 118.29279666011118,80.1767955801105 L 118.32097141983265,80.1767955801105 L 119.81425160794491,80.1767955801105 L 119.83466576273037,80.1767955801105 L 119.86619210010316,80.1767955801105 L 121.36558398863846,80.1767955801105 L 121.38762912506174,80.1767955801105 L 121.41854608467975,80.1767955801105 L 122.91302710542645,80.1767955801105 L 122.93871058550332,80.1767955801105 L 122.96964546799647,80.1767955801105 L 124.46066737384099,80.1767955801105 L 124.48545471016082,80.1767955801105 L 124.50400488593162,80.1767955801105 L 126.00617482011376,80.1767955801105 L 126.04123196388932,80.1767955801105 L 126.0649080819504,80.1767955801105 L 127.55806280993669,80.1767955801105 L 127.58213323125088,80.1767955801105 L 129.13247985381167,80.1767955801105 L 129.15889817176935,80.1767955801105 L 130.65158690500195,80.1767955801105 L 130.67481495118452,80.1767955801105 L 130.70246994752688,80.1767955801105 L 132.2035824320757,80.1767955801105 L 132.23247410680278,80.1767955801105 L 132.26003948876948,80.1767955801105 L 133.75213676712244,80.1767955801105 L 133.78183497123086,80.1767955801105 L 133.81081626033367,80.1767955801105 L 135.30334368769002,80.1767955801105 L 135.3310524526578,80.1767955801105 L 135.35488987659517,80.1767955801105 L 136.8475069183272,80.1767955801105 L 136.87584298392494,40 L 136.90493181027858,40 L 138.42441524184682,40 L 138.4503317193005,40 L 139.94008110101004,40 L 139.96793324897897,40 L 139.98659096200058,40 L 141.49247093133687,40 L 141.52019761917984,40 L 141.54851576190242,40 L 143.03806799198537,40 L 143.06690589808704,40 L 143.10235734511568,40 L 144.59296702483195,40 L 144.62322083806976,40 L 144.64474621111395,40 L 146.1404639102454,40 L 146.1646777145607,40 L 146.1943221500437,40 L 147.69154537068695,40 L 147.7464252143683,40 L 149.23579821569984,40 L 149.26547849693316,40 L 149.29282880439814,40 L 150.78601937813468,40 L 150.81410452348044,40 L 150.8434263472109,40 L 152.3351830909362,40 L 152.3638238454113,40 L 152.3960491749146,40 L 153.88300258810216,40 L 153.9131488640891,40 L 153.94411959233253,40 L 155.4342095086697,40 L 155.46378225265215,40 L 155.49197493524878,40 L 156.98487874298306,40 L 157.00615319577525,40 L 157.03560047963174,40 L 158.5279666011118,40 L 158.55533483145192,40 L 158.5870583204513,40 L 160.07720200541388,40 L 160.10440892987774,40 L 160.13435805423813,40 L 161.6258818005866,40 L 161.65165489503917,40 L 161.68343215266395,40 L 163.17563696826775,40 L 163.20141006272033,40 L 163.2253012552831,40 L 164.72947855148104,40 L 164.7514340735286,40 L 164.78339055990477,40 L 166.27330124749056,40 L 166.2985725014392,40 L 166.32699818141262,40 L 167.82110282178138,40 L 167.84336303270635,40 L 167.8770221922209,40 L 169.3680440980654,40 L 169.3941756500208,40 L 169.42623967364784,40 L 170.91485991422348,40 L 170.93923502441504,40 L 170.97391578781264,40 L 172.4592919879878,40 L 172.49078247961032,40 L 172.52311534636445,40 L 174.0132769542022,40 L 174.03842274802486,40 L 174.06792380050672,40 L 175.56389241989012,40 L 175.59104557572854,40 L 175.6240415888629,40 L 177.10981209229112,40 L 177.14153558129047,40 L 177.17659272506603,40 L 178.66141331611178,40 L 178.68553750605142,40 L 178.7170996891745,40 L 180.21100717791668,40 L 180.23342869471793,40 L 180.26506256934155,40 L 181.7561382438115,40 L 181.7808718115059,40 L 181.81184253974936,40 L 183.3052481879876,40 L 183.33333333333334,40" stroke="#f59e0b" stroke-width="2" fill="none" stroke-dasharray="14800" stroke-dashoffset="14800">
      <animate attributeName="stroke-dashoffset" values="14800;0" dur="3s" begin="3.5999999999999996s" fill="freeze"/>
    </path>
    
    <!-- Glow effect for the line that also follows the circle -->
    <path d="M 30,160 L 30.025970246079126,160 L 30.057245663199954,160 L 31.549737244806018,160 L 31.57574333663543,160 L 31.60714421388224,160 L 33.09497584795168,160 L 33.12462028343469,160 L 33.15585985480523,160 L 34.64849481941242,160 L 34.67670542488416,160 L 34.710167432772174,160 L 36.19805283546703,160 L 36.22386177566989,160 L 36.2600839063296,160 L 37.74203683735283,160 L 37.767576934428575,160 L 37.798189205169194,160 L 39.290268560647014,160 L 39.316059577974734,160 L 39.34722745784472,160 L 40.84050764595698,160 L 40.86197925037575,160 L 40.892752826992634,160 L 42.388918598002576,160 L 42.41397477744952,160 L 42.434747389737794,160 L 43.935375956657815,160 L 43.95924922634546,160 L 43.989449270957834,160 L 45.48002310492382,160 L 45.515922623830996,160 L 45.548452642211686,160 L 47.03515513514725,160 L 47.06182437335687,160 L 47.09306394472742,160 L 48.58401415907136,160 L 48.61009194240134,160 L 48.63527358197426,160 L 50.13423532150618,160 L 50.15660306968199,160 L 50.182645007261684,160 L 51.67847024364396,160 L 51.703974494969415,160 L 51.7326869409451,160 L 53.22949793546012,160 L 53.2517223006348,160 L 53.28251380012682,160 L 54.766993856544914,160 L 54.800599247434064,160 L 54.83155205280235,160 L 56.32696506305638,160 L 56.35571335478234,160 L 56.38492764126197,160 L 57.87637969610986,160 L 57.906328820470264,160 L 57.94002382573511,160 L 59.42000524049284,160 L 59.44515103431549,160 L 59.47393517179174,160 L 60.96891803304238,160 L 60.98762951468946,160 L 61.020553836323245,160 L 62.518547740597555,160 L 62.5411484861502,160 L 62.5718862170168,160 L 64.06875098015723,160 L 64.09138757146016,160 L 64.11828980704661,160 L 65.61468857543339,80.1767955801105 L 65.63764777848886,80.1767955801105 L 65.66711298522046,80.1767955801105 L 67.16471258624166,80.1767955801105 L 67.18853208730388,80.1767955801105 L 67.22174317493993,80.1767955801105 L 68.70439509809366,80.1767955801105 L 68.73773164585567,80.1767955801105 L 68.7703692014872,80.1767955801105 L 70.2624306340899,80.1767955801105 L 70.27994128310253,80.1767955801105 L 70.30980079308722,80.1767955801105 L 71.8081710777395,80.1767955801105 L 71.83267164805707,80.1767955801105 L 71.86489697756036,80.1767955801105 L 73.3503986378615,80.1767955801105 L 73.38255227586423,80.1767955801105 L 73.41128264471504,80.1767955801105 L 74.90581743408717,80.1767955801105 L 74.93110661091094,80.1767955801105 L 74.95886914450415,80.1767955801105 L 76.45214933261641,80.1767955801105 L 76.47695459181139,80.1767955801105 L 76.50202869413349,80.1767955801105 L 76.54176370832079,80.1767955801105 L 78.00627768183196,80.1767955801105 L 78.03244507953764,80.1767955801105 L 78.05965200400149,80.1767955801105 L 79.55375664437022,80.1767955801105 L 79.57985235057534,80.1767955801105 L 79.60836764492447,80.1767955801105 L 81.1015044500356,80.1767955801105 L 81.12552110272438,80.1767955801105 L 81.15292517881477,80.1767955801105 L 82.64548845192141,80.1767955801105 L 82.67434428089823,80.1767955801105 L 84.2049040493035,80.1767955801105 L 84.22243262119127,80.1767955801105 L 84.25024892340991,80.1767955801105 L 85.7457336251645,80.1767955801105 L 85.77041342423348,80.1767955801105 L 85.80091815772326,80.1767955801105 L 87.29389365695812,80.1767955801105 L 87.31798200114746,80.1767955801105 L 87.34506346548531,80.1767955801105 L 88.84513642327597,80.1767955801105 L 88.87098120922911,80.1767955801105 L 88.90336784460868,80.1767955801105 L 90.39528589421025,80.1767955801105 L 90.42313804217915,80.1767955801105 L 90.44984312613906,80.1767955801105 L 91.9464032004021,80.1767955801105 L 91.96353746903678,80.1767955801105 L 91.99255460388986,80.1767955801105 L 93.48956275003141,80.1767955801105 L 93.51196634395751,80.1767955801105 L 93.53766774690952,80.1767955801105 L 95.03777655045046,80.1767955801105 L 95.05865669998958,80.1767955801105 L 95.09032642036351,80.1767955801105 L 96.58563189336668,80.1767955801105 L 96.60853732779672,80.1767955801105 L 96.63839683778143,80.1767955801105 L 98.13121103114003,80.1767955801105 L 98.15327409043844,80.1767955801105 L 98.18576826306885,80.1767955801105 L 99.678779608054,80.1767955801105 L 99.71116624343355,80.1767955801105 L 99.74423394806847,80.1767955801105 L 101.23256742264185,80.1767955801105 L 101.2563510779538,80.1767955801105 L 101.28626435656392,80.1767955801105 L 102.78070953156033,80.1767955801105 L 102.80415265224461,80.1767955801105 L 102.83406593085472,80.1767955801105 L 104.32998078161269,80.1767955801105 L 104.36077228110472,80.1767955801105 L 104.3971557176407,80.1767955801105 L 105.87892941991252,80.1767955801105 L 105.90129716808832,80.1767955801105 L 105.92990207681316,80.1767955801105 L 107.42911473659706,80.1767955801105 L 107.44809506137123,80.1767955801105 L 107.47804418573165,80.1767955801105 L 108.97256105222863,80.1767955801105 L 108.99489295465416,80.1767955801105 L 109.02340824900328,80.1767955801105 L 109.06242634818497,80.1767955801105 L 110.52520180280746,80.1767955801105 L 110.55500754416674,80.1767955801105 L 110.58459821102433,80.1767955801105 L 112.06992064257405,80.1767955801105 L 112.0972171814136,80.1767955801105 L 112.12573247576273,80.1767955801105 L 113.62112756314161,80.1767955801105 L 113.6364695442622,80.1767955801105 L 113.67247660042021,80.1767955801105 L 115.16801507080024,80.1767955801105 L 115.19346555350027,80.1767955801105 L 115.21438154878967,80.1767955801105 L 116.71771646985597,80.1767955801105 L 116.74176896829502,80.1767955801105 L 116.77103702340007,80.1767955801105 L 118.26709525715918,80.1767955801105 L 118.29279666011118,80.1767955801105 L 118.32097141983265,80.1767955801105 L 119.81425160794491,80.1767955801105 L 119.83466576273037,80.1767955801105 L 119.86619210010316,80.1767955801105 L 121.36558398863846,80.1767955801105 L 121.38762912506174,80.1767955801105 L 121.41854608467975,80.1767955801105 L 122.91302710542645,80.1767955801105 L 122.93871058550332,80.1767955801105 L 122.96964546799647,80.1767955801105 L 124.46066737384099,80.1767955801105 L 124.48545471016082,80.1767955801105 L 124.50400488593162,80.1767955801105 L 126.00617482011376,80.1767955801105 L 126.04123196388932,80.1767955801105 L 126.0649080819504,80.1767955801105 L 127.55806280993669,80.1767955801105 L 127.58213323125088,80.1767955801105 L 129.13247985381167,80.1767955801105 L 129.15889817176935,80.1767955801105 L 130.65158690500195,80.1767955801105 L 130.67481495118452,80.1767955801105 L 130.70246994752688,80.1767955801105 L 132.2035824320757,80.1767955801105 L 132.23247410680278,80.1767955801105 L 132.26003948876948,80.1767955801105 L 133.75213676712244,80.1767955801105 L 133.78183497123086,80.1767955801105 L 133.81081626033367,80.1767955801105 L 135.30334368769002,80.1767955801105 L 135.3310524526578,80.1767955801105 L 135.35488987659517,80.1767955801105 L 136.8475069183272,80.1767955801105 L 136.87584298392494,40 L 136.90493181027858,40 L 138.42441524184682,40 L 138.4503317193005,40 L 139.94008110101004,40 L 139.96793324897897,40 L 139.98659096200058,40 L 141.49247093133687,40 L 141.52019761917984,40 L 141.54851576190242,40 L 143.03806799198537,40 L 143.06690589808704,40 L 143.10235734511568,40 L 144.59296702483195,40 L 144.62322083806976,40 L 144.64474621111395,40 L 146.1404639102454,40 L 146.1646777145607,40 L 146.1943221500437,40 L 147.69154537068695,40 L 147.7464252143683,40 L 149.23579821569984,40 L 149.26547849693316,40 L 149.29282880439814,40 L 150.78601937813468,40 L 150.81410452348044,40 L 150.8434263472109,40 L 152.3351830909362,40 L 152.3638238454113,40 L 152.3960491749146,40 L 153.88300258810216,40 L 153.9131488640891,40 L 153.94411959233253,40 L 155.4342095086697,40 L 155.46378225265215,40 L 155.49197493524878,40 L 156.98487874298306,40 L 157.00615319577525,40 L 157.03560047963174,40 L 158.5279666011118,40 L 158.55533483145192,40 L 158.5870583204513,40 L 160.07720200541388,40 L 160.10440892987774,40 L 160.13435805423813,40 L 161.6258818005866,40 L 161.65165489503917,40 L 161.68343215266395,40 L 163.17563696826775,40 L 163.20141006272033,40 L 163.2253012552831,40 L 164.72947855148104,40 L 164.7514340735286,40 L 164.78339055990477,40 L 166.27330124749056,40 L 166.2985725014392,40 L 166.32699818141262,40 L 167.82110282178138,40 L 167.84336303270635,40 L 167.8770221922209,40 L 169.3680440980654,40 L 169.3941756500208,40 L 169.42623967364784,40 L 170.91485991422348,40 L 170.93923502441504,40 L 170.97391578781264,40 L 172.4592919879878,40 L 172.49078247961032,40 L 172.52311534636445,40 L 174.0132769542022,40 L 174.03842274802486,40 L 174.06792380050672,40 L 175.56389241989012,40 L 175.59104557572854,40 L 175.6240415888629,40 L 177.10981209229112,40 L 177.14153558129047,40 L 177.17659272506603,40 L 178.66141331611178,40 L 178.68553750605142,40 L 178.7170996891745,40 L 180.21100717791668,40 L 180.23342869471793,40 L 180.26506256934155,40 L 181.7561382438115,40 L 181.7808718115059,40 L 181.81184253974936,40 L 183.3052481879876,40 L 183.33333333333334,40" stroke="#f59e0b" stroke-width="4" fill="none" opacity="0.4" stroke-dasharray="14800" stroke-dashoffset="14800">
      <animate attributeName="stroke-dashoffset" values="14800;0" dur="3s" begin="3.5999999999999996s" fill="freeze"/>
    </path>
    
    <!-- Animated circle that moves along the path and draws the line -->
    <circle r="5" fill="#f59e0b" opacity="0" filter="url(#trailGlow)">
      <animate attributeName="opacity" values="0;1;1;1" dur="3.2s" begin="3.4s" fill="freeze"/>
      <animate attributeName="r" values="5;6;5" dur="1s" begin="3.4s" repeatCount="3"/>
      <animateMotion dur="3s" begin="3.4s" fill="freeze">
        <mpath href="#path_totalContributions_526.6666666666667"/>
      </animateMotion>
    </circle>
    
    <!-- Small trail dots that fade out -->
    <circle r="2" fill="#f59e0b" opacity="0">
      <animate attributeName="opacity" values="0;0.6;0" dur="0.8s" begin="3.8s" fill="freeze"/>
      <animateMotion dur="3s" begin="3.4s" fill="freeze">
        <mpath href="#path_totalContributions_526.6666666666667"/>
      </animateMotion>
    </circle>
    
    <!-- Hidden path for motion animation -->
    <path id="path_totalContributions_526.6666666666667" d="M 30,160 L 30.025970246079126,160 L 30.057245663199954,160 L 31.549737244806018,160 L 31.57574333663543,160 L 31.60714421388224,160 L 33.09497584795168,160 L 33.12462028343469,160 L 33.15585985480523,160 L 34.64849481941242,160 L 34.67670542488416,160 L 34.710167432772174,160 L 36.19805283546703,160 L 36.22386177566989,160 L 36.2600839063296,160 L 37.74203683735283,160 L 37.767576934428575,160 L 37.798189205169194,160 L 39.290268560647014,160 L 39.316059577974734,160 L 39.34722745784472,160 L 40.84050764595698,160 L 40.86197925037575,160 L 40.892752826992634,160 L 42.388918598002576,160 L 42.41397477744952,160 L 42.434747389737794,160 L 43.935375956657815,160 L 43.95924922634546,160 L 43.989449270957834,160 L 45.48002310492382,160 L 45.515922623830996,160 L 45.548452642211686,160 L 47.03515513514725,160 L 47.06182437335687,160 L 47.09306394472742,160 L 48.58401415907136,160 L 48.61009194240134,160 L 48.63527358197426,160 L 50.13423532150618,160 L 50.15660306968199,160 L 50.182645007261684,160 L 51.67847024364396,160 L 51.703974494969415,160 L 51.7326869409451,160 L 53.22949793546012,160 L 53.2517223006348,160 L 53.28251380012682,160 L 54.766993856544914,160 L 54.800599247434064,160 L 54.83155205280235,160 L 56.32696506305638,160 L 56.35571335478234,160 L 56.38492764126197,160 L 57.87637969610986,160 L 57.906328820470264,160 L 57.94002382573511,160 L 59.42000524049284,160 L 59.44515103431549,160 L 59.47393517179174,160 L 60.96891803304238,160 L 60.98762951468946,160 L 61.020553836323245,160 L 62.518547740597555,160 L 62.5411484861502,160 L 62.5718862170168,160 L 64.06875098015723,160 L 64.09138757146016,160 L 64.11828980704661,160 L 65.61468857543339,80.1767955801105 L 65.63764777848886,80.1767955801105 L 65.66711298522046,80.1767955801105 L 67.16471258624166,80.1767955801105 L 67.18853208730388,80.1767955801105 L 67.22174317493993,80.1767955801105 L 68.70439509809366,80.1767955801105 L 68.73773164585567,80.1767955801105 L 68.7703692014872,80.1767955801105 L 70.2624306340899,80.1767955801105 L 70.27994128310253,80.1767955801105 L 70.30980079308722,80.1767955801105 L 71.8081710777395,80.1767955801105 L 71.83267164805707,80.1767955801105 L 71.86489697756036,80.1767955801105 L 73.3503986378615,80.1767955801105 L 73.38255227586423,80.1767955801105 L 73.41128264471504,80.1767955801105 L 74.90581743408717,80.1767955801105 L 74.93110661091094,80.1767955801105 L 74.95886914450415,80.1767955801105 L 76.45214933261641,80.1767955801105 L 76.47695459181139,80.1767955801105 L 76.50202869413349,80.1767955801105 L 76.54176370832079,80.1767955801105 L 78.00627768183196,80.1767955801105 L 78.03244507953764,80.1767955801105 L 78.05965200400149,80.1767955801105 L 79.55375664437022,80.1767955801105 L 79.57985235057534,80.1767955801105 L 79.60836764492447,80.1767955801105 L 81.1015044500356,80.1767955801105 L 81.12552110272438,80.1767955801105 L 81.15292517881477,80.1767955801105 L 82.64548845192141,80.1767955801105 L 82.67434428089823,80.1767955801105 L 84.2049040493035,80.1767955801105 L 84.22243262119127,80.1767955801105 L 84.25024892340991,80.1767955801105 L 85.7457336251645,80.1767955801105 L 85.77041342423348,80.1767955801105 L 85.80091815772326,80.1767955801105 L 87.29389365695812,80.1767955801105 L 87.31798200114746,80.1767955801105 L 87.34506346548531,80.1767955801105 L 88.84513642327597,80.1767955801105 L 88.87098120922911,80.1767955801105 L 88.90336784460868,80.1767955801105 L 90.39528589421025,80.1767955801105 L 90.42313804217915,80.1767955801105 L 90.44984312613906,80.1767955801105 L 91.9464032004021,80.1767955801105 L 91.96353746903678,80.1767955801105 L 91.99255460388986,80.1767955801105 L 93.48956275003141,80.1767955801105 L 93.51196634395751,80.1767955801105 L 93.53766774690952,80.1767955801105 L 95.03777655045046,80.1767955801105 L 95.05865669998958,80.1767955801105 L 95.09032642036351,80.1767955801105 L 96.58563189336668,80.1767955801105 L 96.60853732779672,80.1767955801105 L 96.63839683778143,80.1767955801105 L 98.13121103114003,80.1767955801105 L 98.15327409043844,80.1767955801105 L 98.18576826306885,80.1767955801105 L 99.678779608054,80.1767955801105 L 99.71116624343355,80.1767955801105 L 99.74423394806847,80.1767955801105 L 101.23256742264185,80.1767955801105 L 101.2563510779538,80.1767955801105 L 101.28626435656392,80.1767955801105 L 102.78070953156033,80.1767955801105 L 102.80415265224461,80.1767955801105 L 102.83406593085472,80.1767955801105 L 104.32998078161269,80.1767955801105 L 104.36077228110472,80.1767955801105 L 104.3971557176407,80.1767955801105 L 105.87892941991252,80.1767955801105 L 105.90129716808832,80.1767955801105 L 105.92990207681316,80.1767955801105 L 107.42911473659706,80.1767955801105 L 107.44809506137123,80.1767955801105 L 107.47804418573165,80.1767955801105 L 108.97256105222863,80.1767955801105 L 108.99489295465416,80.1767955801105 L 109.02340824900328,80.1767955801105 L 109.06242634818497,80.1767955801105 L 110.52520180280746,80.1767955801105 L 110.55500754416674,80.1767955801105 L 110.58459821102433,80.1767955801105 L 112.06992064257405,80.1767955801105 L 112.0972171814136,80.1767955801105 L 112.12573247576273,80.1767955801105 L 113.62112756314161,80.1767955801105 L 113.6364695442622,80.1767955801105 L 113.67247660042021,80.1767955801105 L 115.16801507080024,80.1767955801105 L 115.19346555350027,80.1767955801105 L 115.21438154878967,80.1767955801105 L 116.71771646985597,80.1767955801105 L 116.74176896829502,80.1767955801105 L 116.77103702340007,80.1767955801105 L 118.26709525715918,80.1767955801105 L 118.29279666011118,80.1767955801105 L 118.32097141983265,80.1767955801105 L 119.81425160794491,80.1767955801105 L 119.83466576273037,80.1767955801105 L 119.86619210010316,80.1767955801105 L 121.36558398863846,80.1767955801105 L 121.38762912506174,80.1767955801105 L 121.41854608467975,80.1767955801105 L 122.91302710542645,80.1767955801105 L 122.93871058550332,80.1767955801105 L 122.96964546799647,80.1767955801105 L 124.46066737384099,80.1767955801105 L 124.48545471016082,80.1767955801105 L 124.50400488593162,80.1767955801105 L 126.00617482011376,80.1767955801105 L 126.04123196388932,80.1767955801105 L 126.0649080819504,80.1767955801105 L 127.55806280993669,80.1767955801105 L 127.58213323125088,80.1767955801105 L 129.13247985381167,80.1767955801105 L 129.15889817176935,80.1767955801105 L 130.65158690500195,80.1767955801105 L 130.67481495118452,80.1767955801105 L 130.70246994752688,80.1767955801105 L 132.2035824320757,80.1767955801105 L 132.23247410680278,80.1767955801105 L 132.26003948876948,80.1767955801105 L 133.75213676712244,80.1767955801105 L 133.78183497123086,80.1767955801105 L 133.81081626033367,80.1767955801105 L 135.30334368769002,80.1767955801105 L 135.3310524526578,80.1767955801105 L 135.35488987659517,80.1767955801105 L 136.8475069183272,80.1767955801105 L 136.87584298392494,40 L 136.90493181027858,40 L 138.42441524184682,40 L 138.4503317193005,40 L 139.94008110101004,40 L 139.96793324897897,40 L 139.98659096200058,40 L 141.49247093133687,40 L 141.52019761917984,40 L 141.54851576190242,40 L 143.03806799198537,40 L 143.06690589808704,40 L 143.10235734511568,40 L 144.59296702483195,40 L 144.62322083806976,40 L 144.64474621111395,40 L 146.1404639102454,40 L 146.1646777145607,40 L 146.1943221500437,40 L 147.69154537068695,40 L 147.7464252143683,40 L 149.23579821569984,40 L 149.26547849693316,40 L 149.29282880439814,40 L 150.78601937813468,40 L 150.81410452348044,40 L 150.8434263472109,40 L 152.3351830909362,40 L 152.3638238454113,40 L 152.3960491749146,40 L 153.88300258810216,40 L 153.9131488640891,40 L 153.94411959233253,40 L 155.4342095086697,40 L 155.46378225265215,40 L 155.49197493524878,40 L 156.98487874298306,40 L 157.00615319577525,40 L 157.03560047963174,40 L 158.5279666011118,40 L 158.55533483145192,40 L 158.5870583204513,40 L 160.07720200541388,40 L 160.10440892987774,40 L 160.13435805423813,40 L 161.6258818005866,40 L 161.65165489503917,40 L 161.68343215266395,40 L 163.17563696826775,40 L 163.20141006272033,40 L 163.2253012552831,40 L 164.72947855148104,40 L 164.7514340735286,40 L 164.78339055990477,40 L 166.27330124749056,40 L 166.2985725014392,40 L 166.32699818141262,40 L 167.82110282178138,40 L 167.84336303270635,40 L 167.8770221922209,40 L 169.3680440980654,40 L 169.3941756500208,40 L 169.42623967364784,40 L 170.91485991422348,40 L 170.93923502441504,40 L 170.97391578781264,40 L 172.4592919879878,40 L 172.49078247961032,40 L 172.52311534636445,40 L 174.0132769542022,40 L 174.03842274802486,40 L 174.06792380050672,40 L 175.56389241989012,40 L 175.59104557572854,40 L 175.6240415888629,40 L 177.10981209229112,40 L 177.14153558129047,40 L 177.17659272506603,40 L 178.66141331611178,40 L 178.68553750605142,40 L 178.7170996891745,40 L 180.21100717791668,40 L 180.23342869471793,40 L 180.26506256934155,40 L 181.7561382438115,40 L 181.7808718115059,40 L 181.81184253974936,40 L 183.3052481879876,40 L 183.33333333333334,40" fill="none" stroke="none"/>
  </g>
  
  <!-- Footer -->
  <text x="400" y="580" text-anchor="middle" fill="#94a3b8" font-size="12" font-family="Arial, sans-serif">
    Generated by GitHub User Rank Tracker • 11/21/2025
    <animate attributeName="opacity" values="0;1" dur="0.5s" begin="5s" fill="freeze"/>
  </text>
</svg>