<svg width="800" height="600" xmlns="http://www.w3.org/2000/svg">
  <defs>
    <linearGradient id="bgGradient" x1="0%" y1="0%" x2="100%" y2="100%">
      <stop offset="0%" style="stop-color:#1e293b;stop-opacity:1" />
      <stop offset="100%" style="stop-color:#0f172a;stop-opacity:1" />
    </linearGradient>
    <filter id="shadow" x="-20%" y="-20%" width="140%" height="140%">
      <feDropShadow dx="2" dy="2" stdDeviation="3" flood-color="#000" flood-opacity="0.3"/>
    </filter>
    <!-- Trail effect filter -->
    <filter id="trailGlow" x="-50%" y="-50%" width="200%" height="200%">
      <feGaussianBlur stdDeviation="3" result="coloredBlur"/>
      <feMerge> 
        <feMergeNode in="coloredBlur"/>
        <feMergeNode in="SourceGraphic"/>
      </feMerge>
    </filter>
  </defs>
  
  <!-- Background -->
  <rect width="800" height="600" fill="url(#bgGradient)" rx="12"/>
  
  <!-- Header -->
  <text x="400" y="40" text-anchor="middle" fill="#f8fafc" font-size="24" font-weight="bold" font-family="Arial, sans-serif">
    GitHub Progress Report
    <animate attributeName="opacity" values="0;1" dur="0.8s" begin="0s" fill="freeze"/>
    <animateTransform attributeName="transform" type="translate" values="0,-20;0,0" dur="0.8s" begin="0s" fill="freeze"/>
  </text>
  
  <!-- User Info -->
  <text x="400" y="70" text-anchor="middle" fill="#cbd5e1" font-size="16" font-family="Arial, sans-serif">
    @maifeeulasad • BANGLADESH • 100 days analyzed
    <animate attributeName="opacity" values="0;1" dur="0.6s" begin="0.3s" fill="freeze"/>
  </text>
  
  <!-- Progress Cards -->
  <!-- Followers Card -->
  <g transform="translate(60, 100)">
    <rect width="206.66666666666666" height="120" fill="#1e293b" stroke="#334155" stroke-width="1" rx="8" filter="url(#shadow)">
      <animate attributeName="opacity" values="0;1" dur="0.6s" begin="0.2s" fill="freeze"/>
      <animateTransform attributeName="transform" type="scale" values="0.8;1" dur="0.6s" begin="0.2s" fill="freeze"/>
    </rect>
    <text x="103.33333333333333" y="25" text-anchor="middle" fill="#94a3b8" font-size="14" font-weight="bold" font-family="Arial, sans-serif">FOLLOWERS
      <animate attributeName="opacity" values="0;1" dur="0.5s" begin="0.4s" fill="freeze"/>
    </text>
    
    <text x="103.33333333333333" y="50" text-anchor="middle" fill="#22c55e" font-size="32" font-weight="bold" font-family="Arial, sans-serif">
      ↗
      <animate attributeName="opacity" values="0;1" dur="0.5s" begin="0.6s" fill="freeze"/>
      <animateTransform attributeName="transform" type="scale" values="0;1.2;1" dur="0.8s" begin="0.6s" fill="freeze"/>
    </text>
    
    <text x="103.33333333333333" y="75" text-anchor="middle" fill="#f8fafc" font-size="18" font-weight="bold" font-family="Arial, sans-serif">
      +1
      <animate attributeName="opacity" values="0;1" dur="0.5s" begin="0.8s" fill="freeze"/>
    </text>
    
    <text x="103.33333333333333" y="95" text-anchor="middle" fill="#94a3b8" font-size="12" font-family="Arial, sans-serif">
      #467 → #466
      <animate attributeName="opacity" values="0;1" dur="0.5s" begin="1s" fill="freeze"/>
    </text>
  </g>
  
  <!-- Public Contributions Card -->
  <g transform="translate(296.66666666666663, 100)">
    <rect width="206.66666666666666" height="120" fill="#1e293b" stroke="#334155" stroke-width="1" rx="8" filter="url(#shadow)">
      <animate attributeName="opacity" values="0;1" dur="0.6s" begin="0.4s" fill="freeze"/>
      <animateTransform attributeName="transform" type="scale" values="0.8;1" dur="0.6s" begin="0.4s" fill="freeze"/>
    </rect>
    <text x="103.33333333333333" y="25" text-anchor="middle" fill="#94a3b8" font-size="14" font-weight="bold" font-family="Arial, sans-serif">PUBLIC
      <animate attributeName="opacity" values="0;1" dur="0.5s" begin="0.6s" fill="freeze"/>
    </text>
    
    <text x="103.33333333333333" y="50" text-anchor="middle" fill="#6b7280" font-size="32" font-weight="bold" font-family="Arial, sans-serif">
      →
      <animate attributeName="opacity" values="0;1" dur="0.5s" begin="0.8s" fill="freeze"/>
      <animateTransform attributeName="transform" type="scale" values="0;1.2;1" dur="0.8s" begin="0.8s" fill="freeze"/>
    </text>
    
    <text x="103.33333333333333" y="75" text-anchor="middle" fill="#f8fafc" font-size="18" font-weight="bold" font-family="Arial, sans-serif">
      0
      <animate attributeName="opacity" values="0;1" dur="0.5s" begin="1s" fill="freeze"/>
    </text>
    
    <text x="103.33333333333333" y="95" text-anchor="middle" fill="#94a3b8" font-size="12" font-family="Arial, sans-serif">
      #7 → #7
      <animate attributeName="opacity" values="0;1" dur="0.5s" begin="1.2s" fill="freeze"/>
    </text>
  </g>
  
  <!-- Total Contributions Card -->
  <g transform="translate(533.3333333333333, 100)">
    <rect width="206.66666666666666" height="120" fill="#1e293b" stroke="#334155" stroke-width="1" rx="8" filter="url(#shadow)">
      <animate attributeName="opacity" values="0;1" dur="0.6s" begin="0.6s" fill="freeze"/>
      <animateTransform attributeName="transform" type="scale" values="0.8;1" dur="0.6s" begin="0.6s" fill="freeze"/>
    </rect>
    <text x="103.33333333333333" y="25" text-anchor="middle" fill="#94a3b8" font-size="14" font-weight="bold" font-family="Arial, sans-serif">TOTAL
      <animate attributeName="opacity" values="0;1" dur="0.5s" begin="0.8s" fill="freeze"/>
    </text>
    
    <text x="103.33333333333333" y="50" text-anchor="middle" fill="#22c55e" font-size="32" font-weight="bold" font-family="Arial, sans-serif">
      ↗
      <animate attributeName="opacity" values="0;1" dur="0.5s" begin="1s" fill="freeze"/>
      <animateTransform attributeName="transform" type="scale" values="0;1.2;1" dur="0.8s" begin="1s" fill="freeze"/>
    </text>
    
    <text x="103.33333333333333" y="75" text-anchor="middle" fill="#f8fafc" font-size="18" font-weight="bold" font-family="Arial, sans-serif">
      +9
      <animate attributeName="opacity" values="0;1" dur="0.5s" begin="1.2s" fill="freeze"/>
    </text>
    
    <text x="103.33333333333333" y="95" text-anchor="middle" fill="#94a3b8" font-size="12" font-family="Arial, sans-serif">
      #24 → #15
      <animate attributeName="opacity" values="0;1" dur="0.5s" begin="1.4s" fill="freeze"/>
    </text>
  </g>
  
  <!-- Timeline Charts (if we have snapshots) -->
  
  <!-- 👥 Followers Count Chart -->
  <g transform="translate(60, 250)">
    <!-- Chart Background -->
    <rect x="0" y="0" width="213.33333333333334" height="200" fill="#0f172a" stroke="#334155" stroke-width="1" rx="8" filter="url(#shadow)">
      <animate attributeName="opacity" values="0;1" dur="0.5s" begin="1.8s" fill="freeze"/>
    </rect>
    
    <!-- Chart Title -->
    <text x="106.66666666666667" y="25" text-anchor="middle" fill="#f8fafc" font-size="14" font-weight="bold" font-family="Arial, sans-serif">
      👥 Followers Count
      <animate attributeName="opacity" values="0;1" dur="0.5s" begin="2s" fill="freeze"/>
    </text>
    
    <!-- Y-axis labels -->
    <text x="10" y="45" fill="#94a3b8" font-size="10" font-family="Arial, sans-serif">150
      <animate attributeName="opacity" values="0;1" dur="0.5s" begin="2.2s" fill="freeze"/>
    </text>
    <text x="10" y="185" fill="#94a3b8" font-size="10" font-family="Arial, sans-serif">143
      <animate attributeName="opacity" values="0;1" dur="0.5s" begin="2.2s" fill="freeze"/>
    </text>
    
    <!-- Chart Line with draw animation that follows the circle -->
    <path d="M 30,160 L 30.025284128967677,160 L 30.053041121009446,160 L 31.546023242341867,160 L 31.57082355027331,160 L 31.595892647669327,160 L 31.6356197305335,160 L 33.09984137915641,160 L 33.12600355370836,160 L 33.15320504752334,160 L 34.647011456547126,160 L 34.67310195390853,160 L 34.701611556451105,160 L 36.19445032340242,160 L 36.21846218223778,160 L 36.24586078832678,160 L 37.73812613775367,160 L 37.76697620695137,160 L 39.29723046737151,160 L 39.314755540461796,160 L 39.342566290396476,160 L 40.83775248533841,160 L 40.86242735818639,160 L 40.89292600276682,160 L 42.38560349603939,160 L 42.4096870320653,160 L 42.43676309079681,160 L 43.93653662593415,160 L 43.962376253128625,160 L 43.99475642396108,160 L 45.48637667867298,160 L 45.514223267202944,160 L 45.54092302068405,160 L 47.03718437348429,160 L 47.054315222026524,160 L 47.083326564902976,160 L 48.58003590014417,160 L 48.60243502219208,160 L 48.62813129500544,160 L 50.12794066873806,160 L 50.14881665048671,160 L 50.18048004941363,160 L 51.675487051379186,160 L 51.69838791376097,160 L 51.72824146362642,160 L 53.22075768322024,160 L 53.242816338613025,160 L 53.27530402523131,160 L 54.768017357099154,160 L 54.80039752793161,160 L 54.833458632074326,160 L 56.321495027258564,160 L 56.345273935224625,160 L 56.37518124298299,160 L 57.869328118661905,160 L 57.89276655997283,160 L 57.9226738677312,160 L 59.418290125816455,160 L 59.4490754791591,160 L 59.485451653364905,160 L 60.966929585613514,160 L 60.98929286906615,160 L 61.01789206809691,160 L 62.516805476947624,160 L 62.535782013146616,160 L 62.56572515950025,160 L 64.05994371236972,160 L 64.08227115722707,160 L 64.11078075976965,160 L 64.1497910707283,160 L 65.61227454748027,160 L 65.64207433945282,160 L 65.67165909985368,160 L 67.15668505303469,160 L 67.18397614333787,160 L 67.21248574588044,160 L 68.70758234433418,160 L 68.7229212631126,160 L 68.758921132068,160 L 70.25416108490285,160 L 70.27960648754927,160 L 70.30051830789319,160 L 71.80355315520072,160 L 71.82760085263135,160 L 71.85686306567473,160 L 73.3526226781411,160 L 73.37831895095445,160 L 73.4064880868419,160 L 74.89947020817432,160 L 74.91988028818437,160 L 74.9514003327302,160 L 76.45049293455727,160 L 76.47253367065242,160 L 76.50344445907854,160 L 77.99762717335273,160 L 78.02330552686846,160 L 78.0542342345922,160 L 79.5449585244222,160 L 79.569740913056,160 L 79.58828738611166,160 L 81.0901574790727,160 L 81.12520762525327,160 L 81.1488790174335,160 L 82.64173570368246,160 L 82.66580132041071,160 L 84.21583848542357,160 L 84.24225153014245,160 L 85.73464231465283,160 L 85.75786572439209,160 L 85.78551520064804,160 L 87.2863280550484,160 L 87.31521396284138,160 L 87.34277384260912,160 L 88.83457329029741,160 L 88.86426556648412,160 L 88.8932410707653,160 L 90.3854705815969,160 L 90.41317381574575,160 L 90.43700648160473,160 L 91.92932558892454,160 L 91.95765599849074,57.14285714285715 L 91.98673901855773,57.14285714285715 L 93.50591915303738,57.14285714285715 L 93.53183045742242,57.14285714285715 L 95.02128247712008,57.14285714285715 L 95.04912906565004,57.14285714285715 L 95.06778305449154,57.14285714285715 L 96.5733624420637,57.14285714285715 L 96.60108359551019,57.14285714285715 L 96.62939608577875,57.14285714285715 L 98.1186509932024,57.14285714285715 L 98.14748314310246,57.14285714285715 L 98.18292751383107,57.14285714285715 L 99.67323965981538,57.14285714285715 L 99.70348743422888,57.14285714285715 L 99.7250085106925,57.14285714285715 L 101.22042765650374,57.14285714285715 L 101.24463662761312,57.14285714285715 L 101.27427514590691,57.14285714285715 L 102.77119951271976,57.14285714285715 L 102.82606840208831,57.14285714285715 L 104.31514411653558,57.14285714285715 L 104.34481847342465,57.14285714285715 L 104.37216332162073,57.14285714285715 L 105.86505584646497,57.14285714285715 L 105.89313538586423,57.14285714285715 L 105.92245135680054,57.14285714285715 L 107.41391033783368,57.14285714285715 L 107.44254537545974,57.14285714285715 L 107.47476427261344,57.14285714285715 L 108.96142088187953,57.14285714285715 L 108.99156114050722,57.14285714285715 L 109.02252568682623,57.14285714285715 L 110.51231817317904,57.14285714285715 L 110.54188501428226,57.14285714285715 L 110.57007206946736,57.14285714285715 L 112.06267788554938,57.14285714285715 L 112.08394809184607,57.14285714285715 L 112.11338949786584,57.14285714285715 L 113.6054577350187,57.14285714285715 L 113.63282050251243,57.14285714285715 L 113.66453765933227,57.14285714285715 L 115.15438390357798,57.14285714285715 L 115.18158539739296,57.14285714285715 L 115.2115285437466,57.14285714285715 L 116.70275457391045,57.14285714285715 L 116.72852252391438,57.14285714285715 L 116.76029343862714,57.14285714285715 L 118.25220040210127,57.14285714285715 L 118.27796835210516,57.14285714285715 L 118.30185477585705,57.14285714285715 L 119.80573183015358,57.14285714285715 L 119.82768296976053,57.14285714285715 L 119.85963307744966,57.14285714285715 L 121.34924637082608,57.14285714285715 L 121.37451258049613,57.14285714285715 L 121.40293258655049,57.14285714285715 L 122.8967389955743,57.14285714285715 L 122.9189947632411,57.14285714285715 L 122.95264720420586,57.14285714285715 L 124.44337149403587,57.14285714285715 L 124.46949782999253,57.14285714285715 L 124.5015554534675,57.14285714285715 L 125.98987855741396,57.14285714285715 L 126.01424880220208,57.14285714285715 L 126.04892264313224,57.14285714285715 L 127.53400235420615,57.14285714285715 L 127.5654865601567,57.14285714285715 L 127.59781297309625,57.14285714285715 L 129.0876771366396,57.14285714285715 L 129.11281791122616,57.14285714285715 L 129.14231307513887,57.14285714285715 L 130.637983091117,57.14285714285715 L 130.6651308270391,57.14285714285715 L 130.69812025399125,57.14285714285715 L 132.18359418961322,57.14285714285715 L 132.21531134643305,57.14285714285715 L 132.25036149261362,57.14285714285715 L 133.73488570546073,57.14285714285715 L 133.75900508008192,57.14285714285715 L 133.79056096322302,57.14285714285715 L 135.2841702599728,57.14285714285715 L 135.30658730131833,57.14285714285715 L 135.33821486165,57.14285714285715 L 136.8289929093729,57.14285714285715 L 136.85372154011378,57.14285714285715 L 136.8846860864328,57.14285714285715 L 138.3777936428487,57.14285714285715 L 138.40587318224794,57.14285714285715 L 139.92849382187416,57.14285714285715 L 139.95429761047336,57.14285714285715 L 139.9787574517497,57.14285714285715 L 141.47741999043345,57.14285714285715 L 141.50714810521544,57.14285714285715 L 141.5409439005613,57.14285714285715 L 143.01580961198135,57.14285714285715 L 143.0520603511037,57.14285714285715 L 143.08297113952983,57.14285714285715 L 144.57038035929673,57.14285714285715 L 144.58978695863902,57.14285714285715 L 144.62657527669052,57.14285714285715 L 146.119109415582,57.14285714285715 L 146.14663345675444,57.14285714285715 L 146.1771500206325,57.14285714285715 L 147.66963040163108,57.14285714285715 L 147.6956313025043,57.14285714285715 L 147.72315534367675,57.14285714285715 L 149.21375419842326,57.14285714285715 L 149.24342855531233,57.14285714285715 L 149.27285204203446,57.14285714285715 L 150.7610676301951,57.14285714285715 L 150.78826912401007,57.14285714285715 L 150.8189469615669,57.14285714285715 L 152.31436610737813,57.14285714285715 L 152.34495434844675,57.14285714285715 L 152.3779437753989,57.14285714285715 L 153.86513796359415,57.14285714285715 L 153.88827177684524,57.14285714285715 L 153.93939553300737,57.14285714285715 L 155.4140820514511,57.14285714285715 L 155.4376100892502,57.14285714285715 L 155.46717693035342,57.14285714285715 L 156.95713069038496,57.14285714285715 L 156.98476224734327,57.14285714285715 L 157.01397070249374,57.14285714285715 L 158.50465915372845,57.14285714285715 L 158.53126931072137,57.14285714285715 L 158.56198298687346,57.14285714285715 L 160.05392578894285,57.14285714285715 L 160.08189781255626,57.14285714285715 L 160.1074865695838,57.14285714285715 L 161.60000278917764,57.14285714285715 L 161.62767018473122,57.14285714285715 L 161.6567352855006,57.14285714285715 L 163.15512903471978,57.14285714285715 L 163.18428373197733,57.14285714285715 L 163.21476445726012,57.14285714285715 L 164.6974967403434,57.14285714285715 L 164.72681271127973,40 L 164.757221759372,40 L 166.2519958104682,40 L 166.27281803432396,40 L 166.30114844389016,40 L 167.79443519328242,40 L 167.81436145225624,40 L 167.8524399597377,40 L 169.3448665828433,40 L 169.3736628941481,40 L 169.39801521963858,40 L 170.88703717619293,40 L 170.91966821719234,40 L 170.95142121260744,40 L 172.44241429190203,40 L 172.4574127440253,40 L 172.49581379886422,40 L 173.99030114119827,40 L 174.02028012614718,40 L 174.0552585951372,40 L 175.5384567799591,40 L 175.5649235825709,40 L 175.60076217784754,40 L 177.08383492758597,40 L 177.11384975113018,40 L 177.1471438061422,40 L 178.63552066798155,40 L 178.65738221110033,40 L 178.6884184346099,40 L 180.17939359460684,40 L 180.2043014183241,40 L 180.23643071898962,40 L 181.7305238367756,40 L 181.75991148490246,40 L 181.78555399982292,40 L 183.2775863983805,40 L 183.31041455165393,40 L 183.33333333333334,40" stroke="#22c55e" stroke-width="2" fill="none" stroke-dasharray="14800" stroke-dashoffset="14800">
      <animate attributeName="stroke-dashoffset" values="14800;0" dur="3s" begin="2.6s" fill="freeze"/>
    </path>
    
    <!-- Glow effect for the line that also follows the circle -->
    <path d="M 30,160 L 30.025284128967677,160 L 30.053041121009446,160 L 31.546023242341867,160 L 31.57082355027331,160 L 31.595892647669327,160 L 31.6356197305335,160 L 33.09984137915641,160 L 33.12600355370836,160 L 33.15320504752334,160 L 34.647011456547126,160 L 34.67310195390853,160 L 34.701611556451105,160 L 36.19445032340242,160 L 36.21846218223778,160 L 36.24586078832678,160 L 37.73812613775367,160 L 37.76697620695137,160 L 39.29723046737151,160 L 39.314755540461796,160 L 39.342566290396476,160 L 40.83775248533841,160 L 40.86242735818639,160 L 40.89292600276682,160 L 42.38560349603939,160 L 42.4096870320653,160 L 42.43676309079681,160 L 43.93653662593415,160 L 43.962376253128625,160 L 43.99475642396108,160 L 45.48637667867298,160 L 45.514223267202944,160 L 45.54092302068405,160 L 47.03718437348429,160 L 47.054315222026524,160 L 47.083326564902976,160 L 48.58003590014417,160 L 48.60243502219208,160 L 48.62813129500544,160 L 50.12794066873806,160 L 50.14881665048671,160 L 50.18048004941363,160 L 51.675487051379186,160 L 51.69838791376097,160 L 51.72824146362642,160 L 53.22075768322024,160 L 53.242816338613025,160 L 53.27530402523131,160 L 54.768017357099154,160 L 54.80039752793161,160 L 54.833458632074326,160 L 56.321495027258564,160 L 56.345273935224625,160 L 56.37518124298299,160 L 57.869328118661905,160 L 57.89276655997283,160 L 57.9226738677312,160 L 59.418290125816455,160 L 59.4490754791591,160 L 59.485451653364905,160 L 60.966929585613514,160 L 60.98929286906615,160 L 61.01789206809691,160 L 62.516805476947624,160 L 62.535782013146616,160 L 62.56572515950025,160 L 64.05994371236972,160 L 64.08227115722707,160 L 64.11078075976965,160 L 64.1497910707283,160 L 65.61227454748027,160 L 65.64207433945282,160 L 65.67165909985368,160 L 67.15668505303469,160 L 67.18397614333787,160 L 67.21248574588044,160 L 68.70758234433418,160 L 68.7229212631126,160 L 68.758921132068,160 L 70.25416108490285,160 L 70.27960648754927,160 L 70.30051830789319,160 L 71.80355315520072,160 L 71.82760085263135,160 L 71.85686306567473,160 L 73.3526226781411,160 L 73.37831895095445,160 L 73.4064880868419,160 L 74.89947020817432,160 L 74.91988028818437,160 L 74.9514003327302,160 L 76.45049293455727,160 L 76.47253367065242,160 L 76.50344445907854,160 L 77.99762717335273,160 L 78.02330552686846,160 L 78.0542342345922,160 L 79.5449585244222,160 L 79.569740913056,160 L 79.58828738611166,160 L 81.0901574790727,160 L 81.12520762525327,160 L 81.1488790174335,160 L 82.64173570368246,160 L 82.66580132041071,160 L 84.21583848542357,160 L 84.24225153014245,160 L 85.73464231465283,160 L 85.75786572439209,160 L 85.78551520064804,160 L 87.2863280550484,160 L 87.31521396284138,160 L 87.34277384260912,160 L 88.83457329029741,160 L 88.86426556648412,160 L 88.8932410707653,160 L 90.3854705815969,160 L 90.41317381574575,160 L 90.43700648160473,160 L 91.92932558892454,160 L 91.95765599849074,57.14285714285715 L 91.98673901855773,57.14285714285715 L 93.50591915303738,57.14285714285715 L 93.53183045742242,57.14285714285715 L 95.02128247712008,57.14285714285715 L 95.04912906565004,57.14285714285715 L 95.06778305449154,57.14285714285715 L 96.5733624420637,57.14285714285715 L 96.60108359551019,57.14285714285715 L 96.62939608577875,57.14285714285715 L 98.1186509932024,57.14285714285715 L 98.14748314310246,57.14285714285715 L 98.18292751383107,57.14285714285715 L 99.67323965981538,57.14285714285715 L 99.70348743422888,57.14285714285715 L 99.7250085106925,57.14285714285715 L 101.22042765650374,57.14285714285715 L 101.24463662761312,57.14285714285715 L 101.27427514590691,57.14285714285715 L 102.77119951271976,57.14285714285715 L 102.82606840208831,57.14285714285715 L 104.31514411653558,57.14285714285715 L 104.34481847342465,57.14285714285715 L 104.37216332162073,57.14285714285715 L 105.86505584646497,57.14285714285715 L 105.89313538586423,57.14285714285715 L 105.92245135680054,57.14285714285715 L 107.41391033783368,57.14285714285715 L 107.44254537545974,57.14285714285715 L 107.47476427261344,57.14285714285715 L 108.96142088187953,57.14285714285715 L 108.99156114050722,57.14285714285715 L 109.02252568682623,57.14285714285715 L 110.51231817317904,57.14285714285715 L 110.54188501428226,57.14285714285715 L 110.57007206946736,57.14285714285715 L 112.06267788554938,57.14285714285715 L 112.08394809184607,57.14285714285715 L 112.11338949786584,57.14285714285715 L 113.6054577350187,57.14285714285715 L 113.63282050251243,57.14285714285715 L 113.66453765933227,57.14285714285715 L 115.15438390357798,57.14285714285715 L 115.18158539739296,57.14285714285715 L 115.2115285437466,57.14285714285715 L 116.70275457391045,57.14285714285715 L 116.72852252391438,57.14285714285715 L 116.76029343862714,57.14285714285715 L 118.25220040210127,57.14285714285715 L 118.27796835210516,57.14285714285715 L 118.30185477585705,57.14285714285715 L 119.80573183015358,57.14285714285715 L 119.82768296976053,57.14285714285715 L 119.85963307744966,57.14285714285715 L 121.34924637082608,57.14285714285715 L 121.37451258049613,57.14285714285715 L 121.40293258655049,57.14285714285715 L 122.8967389955743,57.14285714285715 L 122.9189947632411,57.14285714285715 L 122.95264720420586,57.14285714285715 L 124.44337149403587,57.14285714285715 L 124.46949782999253,57.14285714285715 L 124.5015554534675,57.14285714285715 L 125.98987855741396,57.14285714285715 L 126.01424880220208,57.14285714285715 L 126.04892264313224,57.14285714285715 L 127.53400235420615,57.14285714285715 L 127.5654865601567,57.14285714285715 L 127.59781297309625,57.14285714285715 L 129.0876771366396,57.14285714285715 L 129.11281791122616,57.14285714285715 L 129.14231307513887,57.14285714285715 L 130.637983091117,57.14285714285715 L 130.6651308270391,57.14285714285715 L 130.69812025399125,57.14285714285715 L 132.18359418961322,57.14285714285715 L 132.21531134643305,57.14285714285715 L 132.25036149261362,57.14285714285715 L 133.73488570546073,57.14285714285715 L 133.75900508008192,57.14285714285715 L 133.79056096322302,57.14285714285715 L 135.2841702599728,57.14285714285715 L 135.30658730131833,57.14285714285715 L 135.33821486165,57.14285714285715 L 136.8289929093729,57.14285714285715 L 136.85372154011378,57.14285714285715 L 136.8846860864328,57.14285714285715 L 138.3777936428487,57.14285714285715 L 138.40587318224794,57.14285714285715 L 139.92849382187416,57.14285714285715 L 139.95429761047336,57.14285714285715 L 139.9787574517497,57.14285714285715 L 141.47741999043345,57.14285714285715 L 141.50714810521544,57.14285714285715 L 141.5409439005613,57.14285714285715 L 143.01580961198135,57.14285714285715 L 143.0520603511037,57.14285714285715 L 143.08297113952983,57.14285714285715 L 144.57038035929673,57.14285714285715 L 144.58978695863902,57.14285714285715 L 144.62657527669052,57.14285714285715 L 146.119109415582,57.14285714285715 L 146.14663345675444,57.14285714285715 L 146.1771500206325,57.14285714285715 L 147.66963040163108,57.14285714285715 L 147.6956313025043,57.14285714285715 L 147.72315534367675,57.14285714285715 L 149.21375419842326,57.14285714285715 L 149.24342855531233,57.14285714285715 L 149.27285204203446,57.14285714285715 L 150.7610676301951,57.14285714285715 L 150.78826912401007,57.14285714285715 L 150.8189469615669,57.14285714285715 L 152.31436610737813,57.14285714285715 L 152.34495434844675,57.14285714285715 L 152.3779437753989,57.14285714285715 L 153.86513796359415,57.14285714285715 L 153.88827177684524,57.14285714285715 L 153.93939553300737,57.14285714285715 L 155.4140820514511,57.14285714285715 L 155.4376100892502,57.14285714285715 L 155.46717693035342,57.14285714285715 L 156.95713069038496,57.14285714285715 L 156.98476224734327,57.14285714285715 L 157.01397070249374,57.14285714285715 L 158.50465915372845,57.14285714285715 L 158.53126931072137,57.14285714285715 L 158.56198298687346,57.14285714285715 L 160.05392578894285,57.14285714285715 L 160.08189781255626,57.14285714285715 L 160.1074865695838,57.14285714285715 L 161.60000278917764,57.14285714285715 L 161.62767018473122,57.14285714285715 L 161.6567352855006,57.14285714285715 L 163.15512903471978,57.14285714285715 L 163.18428373197733,57.14285714285715 L 163.21476445726012,57.14285714285715 L 164.6974967403434,57.14285714285715 L 164.72681271127973,40 L 164.757221759372,40 L 166.2519958104682,40 L 166.27281803432396,40 L 166.30114844389016,40 L 167.79443519328242,40 L 167.81436145225624,40 L 167.8524399597377,40 L 169.3448665828433,40 L 169.3736628941481,40 L 169.39801521963858,40 L 170.88703717619293,40 L 170.91966821719234,40 L 170.95142121260744,40 L 172.44241429190203,40 L 172.4574127440253,40 L 172.49581379886422,40 L 173.99030114119827,40 L 174.02028012614718,40 L 174.0552585951372,40 L 175.5384567799591,40 L 175.5649235825709,40 L 175.60076217784754,40 L 177.08383492758597,40 L 177.11384975113018,40 L 177.1471438061422,40 L 178.63552066798155,40 L 178.65738221110033,40 L 178.6884184346099,40 L 180.17939359460684,40 L 180.2043014183241,40 L 180.23643071898962,40 L 181.7305238367756,40 L 181.75991148490246,40 L 181.78555399982292,40 L 183.2775863983805,40 L 183.31041455165393,40 L 183.33333333333334,40" stroke="#22c55e" stroke-width="4" fill="none" opacity="0.4" stroke-dasharray="14800" stroke-dashoffset="14800">
      <animate attributeName="stroke-dashoffset" values="14800;0" dur="3s" begin="2.6s" fill="freeze"/>
    </path>
    
    <!-- Animated circle that moves along the path and draws the line -->
    <circle r="5" fill="#22c55e" opacity="0" filter="url(#trailGlow)">
      <animate attributeName="opacity" values="0;1;1;1" dur="3.2s" begin="2.4s" fill="freeze"/>
      <animate attributeName="r" values="5;6;5" dur="1s" begin="2.4s" repeatCount="3"/>
      <animateMotion dur="3s" begin="2.4s" fill="freeze">
        <mpath href="#path_followersCount_60"/>
      </animateMotion>
    </circle>
    
    <!-- Small trail dots that fade out -->
    <circle r="2" fill="#22c55e" opacity="0">
      <animate attributeName="opacity" values="0;0.6;0" dur="0.8s" begin="2.8s" fill="freeze"/>
      <animateMotion dur="3s" begin="2.4s" fill="freeze">
        <mpath href="#path_followersCount_60"/>
      </animateMotion>
    </circle>
    
    <!-- Hidden path for motion animation -->
    <path id="path_followersCount_60" d="M 30,160 L 30.025284128967677,160 L 30.053041121009446,160 L 31.546023242341867,160 L 31.57082355027331,160 L 31.595892647669327,160 L 31.6356197305335,160 L 33.09984137915641,160 L 33.12600355370836,160 L 33.15320504752334,160 L 34.647011456547126,160 L 34.67310195390853,160 L 34.701611556451105,160 L 36.19445032340242,160 L 36.21846218223778,160 L 36.24586078832678,160 L 37.73812613775367,160 L 37.76697620695137,160 L 39.29723046737151,160 L 39.314755540461796,160 L 39.342566290396476,160 L 40.83775248533841,160 L 40.86242735818639,160 L 40.89292600276682,160 L 42.38560349603939,160 L 42.4096870320653,160 L 42.43676309079681,160 L 43.93653662593415,160 L 43.962376253128625,160 L 43.99475642396108,160 L 45.48637667867298,160 L 45.514223267202944,160 L 45.54092302068405,160 L 47.03718437348429,160 L 47.054315222026524,160 L 47.083326564902976,160 L 48.58003590014417,160 L 48.60243502219208,160 L 48.62813129500544,160 L 50.12794066873806,160 L 50.14881665048671,160 L 50.18048004941363,160 L 51.675487051379186,160 L 51.69838791376097,160 L 51.72824146362642,160 L 53.22075768322024,160 L 53.242816338613025,160 L 53.27530402523131,160 L 54.768017357099154,160 L 54.80039752793161,160 L 54.833458632074326,160 L 56.321495027258564,160 L 56.345273935224625,160 L 56.37518124298299,160 L 57.869328118661905,160 L 57.89276655997283,160 L 57.9226738677312,160 L 59.418290125816455,160 L 59.4490754791591,160 L 59.485451653364905,160 L 60.966929585613514,160 L 60.98929286906615,160 L 61.01789206809691,160 L 62.516805476947624,160 L 62.535782013146616,160 L 62.56572515950025,160 L 64.05994371236972,160 L 64.08227115722707,160 L 64.11078075976965,160 L 64.1497910707283,160 L 65.61227454748027,160 L 65.64207433945282,160 L 65.67165909985368,160 L 67.15668505303469,160 L 67.18397614333787,160 L 67.21248574588044,160 L 68.70758234433418,160 L 68.7229212631126,160 L 68.758921132068,160 L 70.25416108490285,160 L 70.27960648754927,160 L 70.30051830789319,160 L 71.80355315520072,160 L 71.82760085263135,160 L 71.85686306567473,160 L 73.3526226781411,160 L 73.37831895095445,160 L 73.4064880868419,160 L 74.89947020817432,160 L 74.91988028818437,160 L 74.9514003327302,160 L 76.45049293455727,160 L 76.47253367065242,160 L 76.50344445907854,160 L 77.99762717335273,160 L 78.02330552686846,160 L 78.0542342345922,160 L 79.5449585244222,160 L 79.569740913056,160 L 79.58828738611166,160 L 81.0901574790727,160 L 81.12520762525327,160 L 81.1488790174335,160 L 82.64173570368246,160 L 82.66580132041071,160 L 84.21583848542357,160 L 84.24225153014245,160 L 85.73464231465283,160 L 85.75786572439209,160 L 85.78551520064804,160 L 87.2863280550484,160 L 87.31521396284138,160 L 87.34277384260912,160 L 88.83457329029741,160 L 88.86426556648412,160 L 88.8932410707653,160 L 90.3854705815969,160 L 90.41317381574575,160 L 90.43700648160473,160 L 91.92932558892454,160 L 91.95765599849074,57.14285714285715 L 91.98673901855773,57.14285714285715 L 93.50591915303738,57.14285714285715 L 93.53183045742242,57.14285714285715 L 95.02128247712008,57.14285714285715 L 95.04912906565004,57.14285714285715 L 95.06778305449154,57.14285714285715 L 96.5733624420637,57.14285714285715 L 96.60108359551019,57.14285714285715 L 96.62939608577875,57.14285714285715 L 98.1186509932024,57.14285714285715 L 98.14748314310246,57.14285714285715 L 98.18292751383107,57.14285714285715 L 99.67323965981538,57.14285714285715 L 99.70348743422888,57.14285714285715 L 99.7250085106925,57.14285714285715 L 101.22042765650374,57.14285714285715 L 101.24463662761312,57.14285714285715 L 101.27427514590691,57.14285714285715 L 102.77119951271976,57.14285714285715 L 102.82606840208831,57.14285714285715 L 104.31514411653558,57.14285714285715 L 104.34481847342465,57.14285714285715 L 104.37216332162073,57.14285714285715 L 105.86505584646497,57.14285714285715 L 105.89313538586423,57.14285714285715 L 105.92245135680054,57.14285714285715 L 107.41391033783368,57.14285714285715 L 107.44254537545974,57.14285714285715 L 107.47476427261344,57.14285714285715 L 108.96142088187953,57.14285714285715 L 108.99156114050722,57.14285714285715 L 109.02252568682623,57.14285714285715 L 110.51231817317904,57.14285714285715 L 110.54188501428226,57.14285714285715 L 110.57007206946736,57.14285714285715 L 112.06267788554938,57.14285714285715 L 112.08394809184607,57.14285714285715 L 112.11338949786584,57.14285714285715 L 113.6054577350187,57.14285714285715 L 113.63282050251243,57.14285714285715 L 113.66453765933227,57.14285714285715 L 115.15438390357798,57.14285714285715 L 115.18158539739296,57.14285714285715 L 115.2115285437466,57.14285714285715 L 116.70275457391045,57.14285714285715 L 116.72852252391438,57.14285714285715 L 116.76029343862714,57.14285714285715 L 118.25220040210127,57.14285714285715 L 118.27796835210516,57.14285714285715 L 118.30185477585705,57.14285714285715 L 119.80573183015358,57.14285714285715 L 119.82768296976053,57.14285714285715 L 119.85963307744966,57.14285714285715 L 121.34924637082608,57.14285714285715 L 121.37451258049613,57.14285714285715 L 121.40293258655049,57.14285714285715 L 122.8967389955743,57.14285714285715 L 122.9189947632411,57.14285714285715 L 122.95264720420586,57.14285714285715 L 124.44337149403587,57.14285714285715 L 124.46949782999253,57.14285714285715 L 124.5015554534675,57.14285714285715 L 125.98987855741396,57.14285714285715 L 126.01424880220208,57.14285714285715 L 126.04892264313224,57.14285714285715 L 127.53400235420615,57.14285714285715 L 127.5654865601567,57.14285714285715 L 127.59781297309625,57.14285714285715 L 129.0876771366396,57.14285714285715 L 129.11281791122616,57.14285714285715 L 129.14231307513887,57.14285714285715 L 130.637983091117,57.14285714285715 L 130.6651308270391,57.14285714285715 L 130.69812025399125,57.14285714285715 L 132.18359418961322,57.14285714285715 L 132.21531134643305,57.14285714285715 L 132.25036149261362,57.14285714285715 L 133.73488570546073,57.14285714285715 L 133.75900508008192,57.14285714285715 L 133.79056096322302,57.14285714285715 L 135.2841702599728,57.14285714285715 L 135.30658730131833,57.14285714285715 L 135.33821486165,57.14285714285715 L 136.8289929093729,57.14285714285715 L 136.85372154011378,57.14285714285715 L 136.8846860864328,57.14285714285715 L 138.3777936428487,57.14285714285715 L 138.40587318224794,57.14285714285715 L 139.92849382187416,57.14285714285715 L 139.95429761047336,57.14285714285715 L 139.9787574517497,57.14285714285715 L 141.47741999043345,57.14285714285715 L 141.50714810521544,57.14285714285715 L 141.5409439005613,57.14285714285715 L 143.01580961198135,57.14285714285715 L 143.0520603511037,57.14285714285715 L 143.08297113952983,57.14285714285715 L 144.57038035929673,57.14285714285715 L 144.58978695863902,57.14285714285715 L 144.62657527669052,57.14285714285715 L 146.119109415582,57.14285714285715 L 146.14663345675444,57.14285714285715 L 146.1771500206325,57.14285714285715 L 147.66963040163108,57.14285714285715 L 147.6956313025043,57.14285714285715 L 147.72315534367675,57.14285714285715 L 149.21375419842326,57.14285714285715 L 149.24342855531233,57.14285714285715 L 149.27285204203446,57.14285714285715 L 150.7610676301951,57.14285714285715 L 150.78826912401007,57.14285714285715 L 150.8189469615669,57.14285714285715 L 152.31436610737813,57.14285714285715 L 152.34495434844675,57.14285714285715 L 152.3779437753989,57.14285714285715 L 153.86513796359415,57.14285714285715 L 153.88827177684524,57.14285714285715 L 153.93939553300737,57.14285714285715 L 155.4140820514511,57.14285714285715 L 155.4376100892502,57.14285714285715 L 155.46717693035342,57.14285714285715 L 156.95713069038496,57.14285714285715 L 156.98476224734327,57.14285714285715 L 157.01397070249374,57.14285714285715 L 158.50465915372845,57.14285714285715 L 158.53126931072137,57.14285714285715 L 158.56198298687346,57.14285714285715 L 160.05392578894285,57.14285714285715 L 160.08189781255626,57.14285714285715 L 160.1074865695838,57.14285714285715 L 161.60000278917764,57.14285714285715 L 161.62767018473122,57.14285714285715 L 161.6567352855006,57.14285714285715 L 163.15512903471978,57.14285714285715 L 163.18428373197733,57.14285714285715 L 163.21476445726012,57.14285714285715 L 164.6974967403434,57.14285714285715 L 164.72681271127973,40 L 164.757221759372,40 L 166.2519958104682,40 L 166.27281803432396,40 L 166.30114844389016,40 L 167.79443519328242,40 L 167.81436145225624,40 L 167.8524399597377,40 L 169.3448665828433,40 L 169.3736628941481,40 L 169.39801521963858,40 L 170.88703717619293,40 L 170.91966821719234,40 L 170.95142121260744,40 L 172.44241429190203,40 L 172.4574127440253,40 L 172.49581379886422,40 L 173.99030114119827,40 L 174.02028012614718,40 L 174.0552585951372,40 L 175.5384567799591,40 L 175.5649235825709,40 L 175.60076217784754,40 L 177.08383492758597,40 L 177.11384975113018,40 L 177.1471438061422,40 L 178.63552066798155,40 L 178.65738221110033,40 L 178.6884184346099,40 L 180.17939359460684,40 L 180.2043014183241,40 L 180.23643071898962,40 L 181.7305238367756,40 L 181.75991148490246,40 L 181.78555399982292,40 L 183.2775863983805,40 L 183.31041455165393,40 L 183.33333333333334,40" fill="none" stroke="none"/>
  </g>
  <!-- 🔓 Public Contributions Chart -->
  <g transform="translate(293.33333333333337, 250)">
    <!-- Chart Background -->
    <rect x="0" y="0" width="213.33333333333334" height="200" fill="#0f172a" stroke="#334155" stroke-width="1" rx="8" filter="url(#shadow)">
      <animate attributeName="opacity" values="0;1" dur="0.5s" begin="2.3s" fill="freeze"/>
    </rect>
    
    <!-- Chart Title -->
    <text x="106.66666666666667" y="25" text-anchor="middle" fill="#f8fafc" font-size="14" font-weight="bold" font-family="Arial, sans-serif">
      🔓 Public Contributions
      <animate attributeName="opacity" values="0;1" dur="0.5s" begin="2.5s" fill="freeze"/>
    </text>
    
    <!-- Y-axis labels -->
    <text x="10" y="45" fill="#94a3b8" font-size="10" font-family="Arial, sans-serif">3,434
      <animate attributeName="opacity" values="0;1" dur="0.5s" begin="2.6999999999999997s" fill="freeze"/>
    </text>
    <text x="10" y="185" fill="#94a3b8" font-size="10" font-family="Arial, sans-serif">2,669
      <animate attributeName="opacity" values="0;1" dur="0.5s" begin="2.6999999999999997s" fill="freeze"/>
    </text>
    
    <!-- Chart Line with draw animation that follows the circle -->
    <path d="M 30,160 L 30.025284128967677,160 L 30.053041121009446,160 L 31.546023242341867,160 L 31.57082355027331,160 L 31.595892647669327,160 L 31.6356197305335,160 L 33.09984137915641,160 L 33.12600355370836,160 L 33.15320504752334,160 L 34.647011456547126,160 L 34.67310195390853,160 L 34.701611556451105,160 L 36.19445032340242,160 L 36.21846218223778,160 L 36.24586078832678,160 L 37.73812613775367,160 L 37.76697620695137,160 L 39.29723046737151,160 L 39.314755540461796,160 L 39.342566290396476,160 L 40.83775248533841,160 L 40.86242735818639,160 L 40.89292600276682,160 L 42.38560349603939,160 L 42.4096870320653,160 L 42.43676309079681,160 L 43.93653662593415,160 L 43.962376253128625,160 L 43.99475642396108,160 L 45.48637667867298,160 L 45.514223267202944,160 L 45.54092302068405,160 L 47.03718437348429,160 L 47.054315222026524,160 L 47.083326564902976,160 L 48.58003590014417,160 L 48.60243502219208,160 L 48.62813129500544,160 L 50.12794066873806,160 L 50.14881665048671,160 L 50.18048004941363,160 L 51.675487051379186,160 L 51.69838791376097,160 L 51.72824146362642,160 L 53.22075768322024,160 L 53.242816338613025,160 L 53.27530402523131,160 L 54.768017357099154,160 L 54.80039752793161,160 L 54.833458632074326,160 L 56.321495027258564,160 L 56.345273935224625,160 L 56.37518124298299,160 L 57.869328118661905,160 L 57.89276655997283,160 L 57.9226738677312,160 L 59.418290125816455,160 L 59.4490754791591,160 L 59.485451653364905,160 L 60.966929585613514,160 L 60.98929286906615,160 L 61.01789206809691,160 L 62.516805476947624,160 L 62.535782013146616,160 L 62.56572515950025,160 L 64.05994371236972,160 L 64.08227115722707,160 L 64.11078075976965,160 L 64.1497910707283,160 L 65.61227454748027,160 L 65.64207433945282,160 L 65.67165909985368,160 L 67.15668505303469,160 L 67.18397614333787,160 L 67.21248574588044,160 L 68.70758234433418,160 L 68.7229212631126,160 L 68.758921132068,160 L 70.25416108490285,160 L 70.27960648754927,160 L 70.30051830789319,160 L 71.80355315520072,160 L 71.82760085263135,160 L 71.85686306567473,160 L 73.3526226781411,160 L 73.37831895095445,160 L 73.4064880868419,160 L 74.89947020817432,160 L 74.91988028818437,160 L 74.9514003327302,160 L 76.45049293455727,160 L 76.47253367065242,160 L 76.50344445907854,160 L 77.99762717335273,160 L 78.02330552686846,160 L 78.0542342345922,160 L 79.5449585244222,160 L 79.569740913056,160 L 79.58828738611166,160 L 81.0901574790727,160 L 81.12520762525327,160 L 81.1488790174335,160 L 82.64173570368246,160 L 82.66580132041071,160 L 84.21583848542357,160 L 84.24225153014245,160 L 85.73464231465283,160 L 85.75786572439209,160 L 85.78551520064804,160 L 87.2863280550484,160 L 87.31521396284138,160 L 87.34277384260912,160 L 88.83457329029741,160 L 88.86426556648412,160 L 88.8932410707653,160 L 90.3854705815969,160 L 90.41317381574575,160 L 90.43700648160473,160 L 91.92932558892454,160 L 91.95765599849074,79.84313725490196 L 91.98673901855773,79.84313725490196 L 93.50591915303738,79.84313725490196 L 93.53183045742242,79.84313725490196 L 95.02128247712008,79.84313725490196 L 95.04912906565004,79.84313725490196 L 95.06778305449154,79.84313725490196 L 96.5733624420637,79.84313725490196 L 96.60108359551019,79.84313725490196 L 96.62939608577875,79.84313725490196 L 98.1186509932024,79.84313725490196 L 98.14748314310246,79.84313725490196 L 98.18292751383107,79.84313725490196 L 99.67323965981538,79.84313725490196 L 99.70348743422888,79.84313725490196 L 99.7250085106925,79.84313725490196 L 101.22042765650374,79.84313725490196 L 101.24463662761312,79.84313725490196 L 101.27427514590691,79.84313725490196 L 102.77119951271976,79.84313725490196 L 102.82606840208831,79.84313725490196 L 104.31514411653558,79.84313725490196 L 104.34481847342465,79.84313725490196 L 104.37216332162073,79.84313725490196 L 105.86505584646497,79.84313725490196 L 105.89313538586423,79.84313725490196 L 105.92245135680054,79.84313725490196 L 107.41391033783368,79.84313725490196 L 107.44254537545974,79.84313725490196 L 107.47476427261344,79.84313725490196 L 108.96142088187953,79.84313725490196 L 108.99156114050722,79.84313725490196 L 109.02252568682623,79.84313725490196 L 110.51231817317904,79.84313725490196 L 110.54188501428226,79.84313725490196 L 110.57007206946736,79.84313725490196 L 112.06267788554938,79.84313725490196 L 112.08394809184607,79.84313725490196 L 112.11338949786584,79.84313725490196 L 113.6054577350187,79.84313725490196 L 113.63282050251243,79.84313725490196 L 113.66453765933227,79.84313725490196 L 115.15438390357798,79.84313725490196 L 115.18158539739296,79.84313725490196 L 115.2115285437466,79.84313725490196 L 116.70275457391045,79.84313725490196 L 116.72852252391438,79.84313725490196 L 116.76029343862714,79.84313725490196 L 118.25220040210127,79.84313725490196 L 118.27796835210516,79.84313725490196 L 118.30185477585705,79.84313725490196 L 119.80573183015358,79.84313725490196 L 119.82768296976053,79.84313725490196 L 119.85963307744966,79.84313725490196 L 121.34924637082608,79.84313725490196 L 121.37451258049613,79.84313725490196 L 121.40293258655049,79.84313725490196 L 122.8967389955743,79.84313725490196 L 122.9189947632411,79.84313725490196 L 122.95264720420586,79.84313725490196 L 124.44337149403587,79.84313725490196 L 124.46949782999253,79.84313725490196 L 124.5015554534675,79.84313725490196 L 125.98987855741396,79.84313725490196 L 126.01424880220208,79.84313725490196 L 126.04892264313224,79.84313725490196 L 127.53400235420615,79.84313725490196 L 127.5654865601567,79.84313725490196 L 127.59781297309625,79.84313725490196 L 129.0876771366396,79.84313725490196 L 129.11281791122616,79.84313725490196 L 129.14231307513887,79.84313725490196 L 130.637983091117,79.84313725490196 L 130.6651308270391,79.84313725490196 L 130.69812025399125,79.84313725490196 L 132.18359418961322,79.84313725490196 L 132.21531134643305,79.84313725490196 L 132.25036149261362,79.84313725490196 L 133.73488570546073,79.84313725490196 L 133.75900508008192,79.84313725490196 L 133.79056096322302,79.84313725490196 L 135.2841702599728,79.84313725490196 L 135.30658730131833,79.84313725490196 L 135.33821486165,79.84313725490196 L 136.8289929093729,79.84313725490196 L 136.85372154011378,79.84313725490196 L 136.8846860864328,79.84313725490196 L 138.3777936428487,79.84313725490196 L 138.40587318224794,79.84313725490196 L 139.92849382187416,79.84313725490196 L 139.95429761047336,79.84313725490196 L 139.9787574517497,79.84313725490196 L 141.47741999043345,79.84313725490196 L 141.50714810521544,79.84313725490196 L 141.5409439005613,79.84313725490196 L 143.01580961198135,79.84313725490196 L 143.0520603511037,79.84313725490196 L 143.08297113952983,79.84313725490196 L 144.57038035929673,79.84313725490196 L 144.58978695863902,79.84313725490196 L 144.62657527669052,79.84313725490196 L 146.119109415582,79.84313725490196 L 146.14663345675444,79.84313725490196 L 146.1771500206325,79.84313725490196 L 147.66963040163108,79.84313725490196 L 147.6956313025043,79.84313725490196 L 147.72315534367675,79.84313725490196 L 149.21375419842326,79.84313725490196 L 149.24342855531233,79.84313725490196 L 149.27285204203446,79.84313725490196 L 150.7610676301951,79.84313725490196 L 150.78826912401007,79.84313725490196 L 150.8189469615669,79.84313725490196 L 152.31436610737813,79.84313725490196 L 152.34495434844675,79.84313725490196 L 152.3779437753989,79.84313725490196 L 153.86513796359415,79.84313725490196 L 153.88827177684524,79.84313725490196 L 153.93939553300737,79.84313725490196 L 155.4140820514511,79.84313725490196 L 155.4376100892502,79.84313725490196 L 155.46717693035342,79.84313725490196 L 156.95713069038496,79.84313725490196 L 156.98476224734327,79.84313725490196 L 157.01397070249374,79.84313725490196 L 158.50465915372845,79.84313725490196 L 158.53126931072137,79.84313725490196 L 158.56198298687346,79.84313725490196 L 160.05392578894285,79.84313725490196 L 160.08189781255626,79.84313725490196 L 160.1074865695838,79.84313725490196 L 161.60000278917764,79.84313725490196 L 161.62767018473122,79.84313725490196 L 161.6567352855006,79.84313725490196 L 163.15512903471978,79.84313725490196 L 163.18428373197733,79.84313725490196 L 163.21476445726012,79.84313725490196 L 164.6974967403434,79.84313725490196 L 164.72681271127973,40 L 164.757221759372,40 L 166.2519958104682,40 L 166.27281803432396,40 L 166.30114844389016,40 L 167.79443519328242,40 L 167.81436145225624,40 L 167.8524399597377,40 L 169.3448665828433,40 L 169.3736628941481,40 L 169.39801521963858,40 L 170.88703717619293,40 L 170.91966821719234,40 L 170.95142121260744,40 L 172.44241429190203,40 L 172.4574127440253,40 L 172.49581379886422,40 L 173.99030114119827,40 L 174.02028012614718,40 L 174.0552585951372,40 L 175.5384567799591,40 L 175.5649235825709,40 L 175.60076217784754,40 L 177.08383492758597,40 L 177.11384975113018,40 L 177.1471438061422,40 L 178.63552066798155,40 L 178.65738221110033,40 L 178.6884184346099,40 L 180.17939359460684,40 L 180.2043014183241,40 L 180.23643071898962,40 L 181.7305238367756,40 L 181.75991148490246,40 L 181.78555399982292,40 L 183.2775863983805,40 L 183.31041455165393,40 L 183.33333333333334,40" stroke="#3b82f6" stroke-width="2" fill="none" stroke-dasharray="14800" stroke-dashoffset="14800">
      <animate attributeName="stroke-dashoffset" values="14800;0" dur="3s" begin="3.0999999999999996s" fill="freeze"/>
    </path>
    
    <!-- Glow effect for the line that also follows the circle -->
    <path d="M 30,160 L 30.025284128967677,160 L 30.053041121009446,160 L 31.546023242341867,160 L 31.57082355027331,160 L 31.595892647669327,160 L 31.6356197305335,160 L 33.09984137915641,160 L 33.12600355370836,160 L 33.15320504752334,160 L 34.647011456547126,160 L 34.67310195390853,160 L 34.701611556451105,160 L 36.19445032340242,160 L 36.21846218223778,160 L 36.24586078832678,160 L 37.73812613775367,160 L 37.76697620695137,160 L 39.29723046737151,160 L 39.314755540461796,160 L 39.342566290396476,160 L 40.83775248533841,160 L 40.86242735818639,160 L 40.89292600276682,160 L 42.38560349603939,160 L 42.4096870320653,160 L 42.43676309079681,160 L 43.93653662593415,160 L 43.962376253128625,160 L 43.99475642396108,160 L 45.48637667867298,160 L 45.514223267202944,160 L 45.54092302068405,160 L 47.03718437348429,160 L 47.054315222026524,160 L 47.083326564902976,160 L 48.58003590014417,160 L 48.60243502219208,160 L 48.62813129500544,160 L 50.12794066873806,160 L 50.14881665048671,160 L 50.18048004941363,160 L 51.675487051379186,160 L 51.69838791376097,160 L 51.72824146362642,160 L 53.22075768322024,160 L 53.242816338613025,160 L 53.27530402523131,160 L 54.768017357099154,160 L 54.80039752793161,160 L 54.833458632074326,160 L 56.321495027258564,160 L 56.345273935224625,160 L 56.37518124298299,160 L 57.869328118661905,160 L 57.89276655997283,160 L 57.9226738677312,160 L 59.418290125816455,160 L 59.4490754791591,160 L 59.485451653364905,160 L 60.966929585613514,160 L 60.98929286906615,160 L 61.01789206809691,160 L 62.516805476947624,160 L 62.535782013146616,160 L 62.56572515950025,160 L 64.05994371236972,160 L 64.08227115722707,160 L 64.11078075976965,160 L 64.1497910707283,160 L 65.61227454748027,160 L 65.64207433945282,160 L 65.67165909985368,160 L 67.15668505303469,160 L 67.18397614333787,160 L 67.21248574588044,160 L 68.70758234433418,160 L 68.7229212631126,160 L 68.758921132068,160 L 70.25416108490285,160 L 70.27960648754927,160 L 70.30051830789319,160 L 71.80355315520072,160 L 71.82760085263135,160 L 71.85686306567473,160 L 73.3526226781411,160 L 73.37831895095445,160 L 73.4064880868419,160 L 74.89947020817432,160 L 74.91988028818437,160 L 74.9514003327302,160 L 76.45049293455727,160 L 76.47253367065242,160 L 76.50344445907854,160 L 77.99762717335273,160 L 78.02330552686846,160 L 78.0542342345922,160 L 79.5449585244222,160 L 79.569740913056,160 L 79.58828738611166,160 L 81.0901574790727,160 L 81.12520762525327,160 L 81.1488790174335,160 L 82.64173570368246,160 L 82.66580132041071,160 L 84.21583848542357,160 L 84.24225153014245,160 L 85.73464231465283,160 L 85.75786572439209,160 L 85.78551520064804,160 L 87.2863280550484,160 L 87.31521396284138,160 L 87.34277384260912,160 L 88.83457329029741,160 L 88.86426556648412,160 L 88.8932410707653,160 L 90.3854705815969,160 L 90.41317381574575,160 L 90.43700648160473,160 L 91.92932558892454,160 L 91.95765599849074,79.84313725490196 L 91.98673901855773,79.84313725490196 L 93.50591915303738,79.84313725490196 L 93.53183045742242,79.84313725490196 L 95.02128247712008,79.84313725490196 L 95.04912906565004,79.84313725490196 L 95.06778305449154,79.84313725490196 L 96.5733624420637,79.84313725490196 L 96.60108359551019,79.84313725490196 L 96.62939608577875,79.84313725490196 L 98.1186509932024,79.84313725490196 L 98.14748314310246,79.84313725490196 L 98.18292751383107,79.84313725490196 L 99.67323965981538,79.84313725490196 L 99.70348743422888,79.84313725490196 L 99.7250085106925,79.84313725490196 L 101.22042765650374,79.84313725490196 L 101.24463662761312,79.84313725490196 L 101.27427514590691,79.84313725490196 L 102.77119951271976,79.84313725490196 L 102.82606840208831,79.84313725490196 L 104.31514411653558,79.84313725490196 L 104.34481847342465,79.84313725490196 L 104.37216332162073,79.84313725490196 L 105.86505584646497,79.84313725490196 L 105.89313538586423,79.84313725490196 L 105.92245135680054,79.84313725490196 L 107.41391033783368,79.84313725490196 L 107.44254537545974,79.84313725490196 L 107.47476427261344,79.84313725490196 L 108.96142088187953,79.84313725490196 L 108.99156114050722,79.84313725490196 L 109.02252568682623,79.84313725490196 L 110.51231817317904,79.84313725490196 L 110.54188501428226,79.84313725490196 L 110.57007206946736,79.84313725490196 L 112.06267788554938,79.84313725490196 L 112.08394809184607,79.84313725490196 L 112.11338949786584,79.84313725490196 L 113.6054577350187,79.84313725490196 L 113.63282050251243,79.84313725490196 L 113.66453765933227,79.84313725490196 L 115.15438390357798,79.84313725490196 L 115.18158539739296,79.84313725490196 L 115.2115285437466,79.84313725490196 L 116.70275457391045,79.84313725490196 L 116.72852252391438,79.84313725490196 L 116.76029343862714,79.84313725490196 L 118.25220040210127,79.84313725490196 L 118.27796835210516,79.84313725490196 L 118.30185477585705,79.84313725490196 L 119.80573183015358,79.84313725490196 L 119.82768296976053,79.84313725490196 L 119.85963307744966,79.84313725490196 L 121.34924637082608,79.84313725490196 L 121.37451258049613,79.84313725490196 L 121.40293258655049,79.84313725490196 L 122.8967389955743,79.84313725490196 L 122.9189947632411,79.84313725490196 L 122.95264720420586,79.84313725490196 L 124.44337149403587,79.84313725490196 L 124.46949782999253,79.84313725490196 L 124.5015554534675,79.84313725490196 L 125.98987855741396,79.84313725490196 L 126.01424880220208,79.84313725490196 L 126.04892264313224,79.84313725490196 L 127.53400235420615,79.84313725490196 L 127.5654865601567,79.84313725490196 L 127.59781297309625,79.84313725490196 L 129.0876771366396,79.84313725490196 L 129.11281791122616,79.84313725490196 L 129.14231307513887,79.84313725490196 L 130.637983091117,79.84313725490196 L 130.6651308270391,79.84313725490196 L 130.69812025399125,79.84313725490196 L 132.18359418961322,79.84313725490196 L 132.21531134643305,79.84313725490196 L 132.25036149261362,79.84313725490196 L 133.73488570546073,79.84313725490196 L 133.75900508008192,79.84313725490196 L 133.79056096322302,79.84313725490196 L 135.2841702599728,79.84313725490196 L 135.30658730131833,79.84313725490196 L 135.33821486165,79.84313725490196 L 136.8289929093729,79.84313725490196 L 136.85372154011378,79.84313725490196 L 136.8846860864328,79.84313725490196 L 138.3777936428487,79.84313725490196 L 138.40587318224794,79.84313725490196 L 139.92849382187416,79.84313725490196 L 139.95429761047336,79.84313725490196 L 139.9787574517497,79.84313725490196 L 141.47741999043345,79.84313725490196 L 141.50714810521544,79.84313725490196 L 141.5409439005613,79.84313725490196 L 143.01580961198135,79.84313725490196 L 143.0520603511037,79.84313725490196 L 143.08297113952983,79.84313725490196 L 144.57038035929673,79.84313725490196 L 144.58978695863902,79.84313725490196 L 144.62657527669052,79.84313725490196 L 146.119109415582,79.84313725490196 L 146.14663345675444,79.84313725490196 L 146.1771500206325,79.84313725490196 L 147.66963040163108,79.84313725490196 L 147.6956313025043,79.84313725490196 L 147.72315534367675,79.84313725490196 L 149.21375419842326,79.84313725490196 L 149.24342855531233,79.84313725490196 L 149.27285204203446,79.84313725490196 L 150.7610676301951,79.84313725490196 L 150.78826912401007,79.84313725490196 L 150.8189469615669,79.84313725490196 L 152.31436610737813,79.84313725490196 L 152.34495434844675,79.84313725490196 L 152.3779437753989,79.84313725490196 L 153.86513796359415,79.84313725490196 L 153.88827177684524,79.84313725490196 L 153.93939553300737,79.84313725490196 L 155.4140820514511,79.84313725490196 L 155.4376100892502,79.84313725490196 L 155.46717693035342,79.84313725490196 L 156.95713069038496,79.84313725490196 L 156.98476224734327,79.84313725490196 L 157.01397070249374,79.84313725490196 L 158.50465915372845,79.84313725490196 L 158.53126931072137,79.84313725490196 L 158.56198298687346,79.84313725490196 L 160.05392578894285,79.84313725490196 L 160.08189781255626,79.84313725490196 L 160.1074865695838,79.84313725490196 L 161.60000278917764,79.84313725490196 L 161.62767018473122,79.84313725490196 L 161.6567352855006,79.84313725490196 L 163.15512903471978,79.84313725490196 L 163.18428373197733,79.84313725490196 L 163.21476445726012,79.84313725490196 L 164.6974967403434,79.84313725490196 L 164.72681271127973,40 L 164.757221759372,40 L 166.2519958104682,40 L 166.27281803432396,40 L 166.30114844389016,40 L 167.79443519328242,40 L 167.81436145225624,40 L 167.8524399597377,40 L 169.3448665828433,40 L 169.3736628941481,40 L 169.39801521963858,40 L 170.88703717619293,40 L 170.91966821719234,40 L 170.95142121260744,40 L 172.44241429190203,40 L 172.4574127440253,40 L 172.49581379886422,40 L 173.99030114119827,40 L 174.02028012614718,40 L 174.0552585951372,40 L 175.5384567799591,40 L 175.5649235825709,40 L 175.60076217784754,40 L 177.08383492758597,40 L 177.11384975113018,40 L 177.1471438061422,40 L 178.63552066798155,40 L 178.65738221110033,40 L 178.6884184346099,40 L 180.17939359460684,40 L 180.2043014183241,40 L 180.23643071898962,40 L 181.7305238367756,40 L 181.75991148490246,40 L 181.78555399982292,40 L 183.2775863983805,40 L 183.31041455165393,40 L 183.33333333333334,40" stroke="#3b82f6" stroke-width="4" fill="none" opacity="0.4" stroke-dasharray="14800" stroke-dashoffset="14800">
      <animate attributeName="stroke-dashoffset" values="14800;0" dur="3s" begin="3.0999999999999996s" fill="freeze"/>
    </path>
    
    <!-- Animated circle that moves along the path and draws the line -->
    <circle r="5" fill="#3b82f6" opacity="0" filter="url(#trailGlow)">
      <animate attributeName="opacity" values="0;1;1;1" dur="3.2s" begin="2.9s" fill="freeze"/>
      <animate attributeName="r" values="5;6;5" dur="1s" begin="2.9s" repeatCount="3"/>
      <animateMotion dur="3s" begin="2.9s" fill="freeze">
        <mpath href="#path_publicContributions_293.33333333333337"/>
      </animateMotion>
    </circle>
    
    <!-- Small trail dots that fade out -->
    <circle r="2" fill="#3b82f6" opacity="0">
      <animate attributeName="opacity" values="0;0.6;0" dur="0.8s" begin="3.3s" fill="freeze"/>
      <animateMotion dur="3s" begin="2.9s" fill="freeze">
        <mpath href="#path_publicContributions_293.33333333333337"/>
      </animateMotion>
    </circle>
    
    <!-- Hidden path for motion animation -->
    <path id="path_publicContributions_293.33333333333337" d="M 30,160 L 30.025284128967677,160 L 30.053041121009446,160 L 31.546023242341867,160 L 31.57082355027331,160 L 31.595892647669327,160 L 31.6356197305335,160 L 33.09984137915641,160 L 33.12600355370836,160 L 33.15320504752334,160 L 34.647011456547126,160 L 34.67310195390853,160 L 34.701611556451105,160 L 36.19445032340242,160 L 36.21846218223778,160 L 36.24586078832678,160 L 37.73812613775367,160 L 37.76697620695137,160 L 39.29723046737151,160 L 39.314755540461796,160 L 39.342566290396476,160 L 40.83775248533841,160 L 40.86242735818639,160 L 40.89292600276682,160 L 42.38560349603939,160 L 42.4096870320653,160 L 42.43676309079681,160 L 43.93653662593415,160 L 43.962376253128625,160 L 43.99475642396108,160 L 45.48637667867298,160 L 45.514223267202944,160 L 45.54092302068405,160 L 47.03718437348429,160 L 47.054315222026524,160 L 47.083326564902976,160 L 48.58003590014417,160 L 48.60243502219208,160 L 48.62813129500544,160 L 50.12794066873806,160 L 50.14881665048671,160 L 50.18048004941363,160 L 51.675487051379186,160 L 51.69838791376097,160 L 51.72824146362642,160 L 53.22075768322024,160 L 53.242816338613025,160 L 53.27530402523131,160 L 54.768017357099154,160 L 54.80039752793161,160 L 54.833458632074326,160 L 56.321495027258564,160 L 56.345273935224625,160 L 56.37518124298299,160 L 57.869328118661905,160 L 57.89276655997283,160 L 57.9226738677312,160 L 59.418290125816455,160 L 59.4490754791591,160 L 59.485451653364905,160 L 60.966929585613514,160 L 60.98929286906615,160 L 61.01789206809691,160 L 62.516805476947624,160 L 62.535782013146616,160 L 62.56572515950025,160 L 64.05994371236972,160 L 64.08227115722707,160 L 64.11078075976965,160 L 64.1497910707283,160 L 65.61227454748027,160 L 65.64207433945282,160 L 65.67165909985368,160 L 67.15668505303469,160 L 67.18397614333787,160 L 67.21248574588044,160 L 68.70758234433418,160 L 68.7229212631126,160 L 68.758921132068,160 L 70.25416108490285,160 L 70.27960648754927,160 L 70.30051830789319,160 L 71.80355315520072,160 L 71.82760085263135,160 L 71.85686306567473,160 L 73.3526226781411,160 L 73.37831895095445,160 L 73.4064880868419,160 L 74.89947020817432,160 L 74.91988028818437,160 L 74.9514003327302,160 L 76.45049293455727,160 L 76.47253367065242,160 L 76.50344445907854,160 L 77.99762717335273,160 L 78.02330552686846,160 L 78.0542342345922,160 L 79.5449585244222,160 L 79.569740913056,160 L 79.58828738611166,160 L 81.0901574790727,160 L 81.12520762525327,160 L 81.1488790174335,160 L 82.64173570368246,160 L 82.66580132041071,160 L 84.21583848542357,160 L 84.24225153014245,160 L 85.73464231465283,160 L 85.75786572439209,160 L 85.78551520064804,160 L 87.2863280550484,160 L 87.31521396284138,160 L 87.34277384260912,160 L 88.83457329029741,160 L 88.86426556648412,160 L 88.8932410707653,160 L 90.3854705815969,160 L 90.41317381574575,160 L 90.43700648160473,160 L 91.92932558892454,160 L 91.95765599849074,79.84313725490196 L 91.98673901855773,79.84313725490196 L 93.50591915303738,79.84313725490196 L 93.53183045742242,79.84313725490196 L 95.02128247712008,79.84313725490196 L 95.04912906565004,79.84313725490196 L 95.06778305449154,79.84313725490196 L 96.5733624420637,79.84313725490196 L 96.60108359551019,79.84313725490196 L 96.62939608577875,79.84313725490196 L 98.1186509932024,79.84313725490196 L 98.14748314310246,79.84313725490196 L 98.18292751383107,79.84313725490196 L 99.67323965981538,79.84313725490196 L 99.70348743422888,79.84313725490196 L 99.7250085106925,79.84313725490196 L 101.22042765650374,79.84313725490196 L 101.24463662761312,79.84313725490196 L 101.27427514590691,79.84313725490196 L 102.77119951271976,79.84313725490196 L 102.82606840208831,79.84313725490196 L 104.31514411653558,79.84313725490196 L 104.34481847342465,79.84313725490196 L 104.37216332162073,79.84313725490196 L 105.86505584646497,79.84313725490196 L 105.89313538586423,79.84313725490196 L 105.92245135680054,79.84313725490196 L 107.41391033783368,79.84313725490196 L 107.44254537545974,79.84313725490196 L 107.47476427261344,79.84313725490196 L 108.96142088187953,79.84313725490196 L 108.99156114050722,79.84313725490196 L 109.02252568682623,79.84313725490196 L 110.51231817317904,79.84313725490196 L 110.54188501428226,79.84313725490196 L 110.57007206946736,79.84313725490196 L 112.06267788554938,79.84313725490196 L 112.08394809184607,79.84313725490196 L 112.11338949786584,79.84313725490196 L 113.6054577350187,79.84313725490196 L 113.63282050251243,79.84313725490196 L 113.66453765933227,79.84313725490196 L 115.15438390357798,79.84313725490196 L 115.18158539739296,79.84313725490196 L 115.2115285437466,79.84313725490196 L 116.70275457391045,79.84313725490196 L 116.72852252391438,79.84313725490196 L 116.76029343862714,79.84313725490196 L 118.25220040210127,79.84313725490196 L 118.27796835210516,79.84313725490196 L 118.30185477585705,79.84313725490196 L 119.80573183015358,79.84313725490196 L 119.82768296976053,79.84313725490196 L 119.85963307744966,79.84313725490196 L 121.34924637082608,79.84313725490196 L 121.37451258049613,79.84313725490196 L 121.40293258655049,79.84313725490196 L 122.8967389955743,79.84313725490196 L 122.9189947632411,79.84313725490196 L 122.95264720420586,79.84313725490196 L 124.44337149403587,79.84313725490196 L 124.46949782999253,79.84313725490196 L 124.5015554534675,79.84313725490196 L 125.98987855741396,79.84313725490196 L 126.01424880220208,79.84313725490196 L 126.04892264313224,79.84313725490196 L 127.53400235420615,79.84313725490196 L 127.5654865601567,79.84313725490196 L 127.59781297309625,79.84313725490196 L 129.0876771366396,79.84313725490196 L 129.11281791122616,79.84313725490196 L 129.14231307513887,79.84313725490196 L 130.637983091117,79.84313725490196 L 130.6651308270391,79.84313725490196 L 130.69812025399125,79.84313725490196 L 132.18359418961322,79.84313725490196 L 132.21531134643305,79.84313725490196 L 132.25036149261362,79.84313725490196 L 133.73488570546073,79.84313725490196 L 133.75900508008192,79.84313725490196 L 133.79056096322302,79.84313725490196 L 135.2841702599728,79.84313725490196 L 135.30658730131833,79.84313725490196 L 135.33821486165,79.84313725490196 L 136.8289929093729,79.84313725490196 L 136.85372154011378,79.84313725490196 L 136.8846860864328,79.84313725490196 L 138.3777936428487,79.84313725490196 L 138.40587318224794,79.84313725490196 L 139.92849382187416,79.84313725490196 L 139.95429761047336,79.84313725490196 L 139.9787574517497,79.84313725490196 L 141.47741999043345,79.84313725490196 L 141.50714810521544,79.84313725490196 L 141.5409439005613,79.84313725490196 L 143.01580961198135,79.84313725490196 L 143.0520603511037,79.84313725490196 L 143.08297113952983,79.84313725490196 L 144.57038035929673,79.84313725490196 L 144.58978695863902,79.84313725490196 L 144.62657527669052,79.84313725490196 L 146.119109415582,79.84313725490196 L 146.14663345675444,79.84313725490196 L 146.1771500206325,79.84313725490196 L 147.66963040163108,79.84313725490196 L 147.6956313025043,79.84313725490196 L 147.72315534367675,79.84313725490196 L 149.21375419842326,79.84313725490196 L 149.24342855531233,79.84313725490196 L 149.27285204203446,79.84313725490196 L 150.7610676301951,79.84313725490196 L 150.78826912401007,79.84313725490196 L 150.8189469615669,79.84313725490196 L 152.31436610737813,79.84313725490196 L 152.34495434844675,79.84313725490196 L 152.3779437753989,79.84313725490196 L 153.86513796359415,79.84313725490196 L 153.88827177684524,79.84313725490196 L 153.93939553300737,79.84313725490196 L 155.4140820514511,79.84313725490196 L 155.4376100892502,79.84313725490196 L 155.46717693035342,79.84313725490196 L 156.95713069038496,79.84313725490196 L 156.98476224734327,79.84313725490196 L 157.01397070249374,79.84313725490196 L 158.50465915372845,79.84313725490196 L 158.53126931072137,79.84313725490196 L 158.56198298687346,79.84313725490196 L 160.05392578894285,79.84313725490196 L 160.08189781255626,79.84313725490196 L 160.1074865695838,79.84313725490196 L 161.60000278917764,79.84313725490196 L 161.62767018473122,79.84313725490196 L 161.6567352855006,79.84313725490196 L 163.15512903471978,79.84313725490196 L 163.18428373197733,79.84313725490196 L 163.21476445726012,79.84313725490196 L 164.6974967403434,79.84313725490196 L 164.72681271127973,40 L 164.757221759372,40 L 166.2519958104682,40 L 166.27281803432396,40 L 166.30114844389016,40 L 167.79443519328242,40 L 167.81436145225624,40 L 167.8524399597377,40 L 169.3448665828433,40 L 169.3736628941481,40 L 169.39801521963858,40 L 170.88703717619293,40 L 170.91966821719234,40 L 170.95142121260744,40 L 172.44241429190203,40 L 172.4574127440253,40 L 172.49581379886422,40 L 173.99030114119827,40 L 174.02028012614718,40 L 174.0552585951372,40 L 175.5384567799591,40 L 175.5649235825709,40 L 175.60076217784754,40 L 177.08383492758597,40 L 177.11384975113018,40 L 177.1471438061422,40 L 178.63552066798155,40 L 178.65738221110033,40 L 178.6884184346099,40 L 180.17939359460684,40 L 180.2043014183241,40 L 180.23643071898962,40 L 181.7305238367756,40 L 181.75991148490246,40 L 181.78555399982292,40 L 183.2775863983805,40 L 183.31041455165393,40 L 183.33333333333334,40" fill="none" stroke="none"/>
  </g>
  <!-- 📊 Total Contributions Chart -->
  <g transform="translate(526.6666666666667, 250)">
    <!-- Chart Background -->
    <rect x="0" y="0" width="213.33333333333334" height="200" fill="#0f172a" stroke="#334155" stroke-width="1" rx="8" filter="url(#shadow)">
      <animate attributeName="opacity" values="0;1" dur="0.5s" begin="2.8s" fill="freeze"/>
    </rect>
    
    <!-- Chart Title -->
    <text x="106.66666666666667" y="25" text-anchor="middle" fill="#f8fafc" font-size="14" font-weight="bold" font-family="Arial, sans-serif">
      📊 Total Contributions
      <animate attributeName="opacity" values="0;1" dur="0.5s" begin="3s" fill="freeze"/>
    </text>
    
    <!-- Y-axis labels -->
    <text x="10" y="45" fill="#94a3b8" font-size="10" font-family="Arial, sans-serif">4,917
      <animate attributeName="opacity" values="0;1" dur="0.5s" begin="3.1999999999999997s" fill="freeze"/>
    </text>
    <text x="10" y="185" fill="#94a3b8" font-size="10" font-family="Arial, sans-serif">3,802
      <animate attributeName="opacity" values="0;1" dur="0.5s" begin="3.1999999999999997s" fill="freeze"/>
    </text>
    
    <!-- Chart Line with draw animation that follows the circle -->
    <path d="M 30,160 L 30.025284128967677,160 L 30.053041121009446,160 L 31.546023242341867,160 L 31.57082355027331,160 L 31.595892647669327,160 L 31.6356197305335,160 L 33.09984137915641,160 L 33.12600355370836,160 L 33.15320504752334,160 L 34.647011456547126,160 L 34.67310195390853,160 L 34.701611556451105,160 L 36.19445032340242,160 L 36.21846218223778,160 L 36.24586078832678,160 L 37.73812613775367,160 L 37.76697620695137,160 L 39.29723046737151,160 L 39.314755540461796,160 L 39.342566290396476,160 L 40.83775248533841,160 L 40.86242735818639,160 L 40.89292600276682,160 L 42.38560349603939,160 L 42.4096870320653,160 L 42.43676309079681,160 L 43.93653662593415,160 L 43.962376253128625,160 L 43.99475642396108,160 L 45.48637667867298,160 L 45.514223267202944,160 L 45.54092302068405,160 L 47.03718437348429,160 L 47.054315222026524,160 L 47.083326564902976,160 L 48.58003590014417,160 L 48.60243502219208,160 L 48.62813129500544,160 L 50.12794066873806,160 L 50.14881665048671,160 L 50.18048004941363,160 L 51.675487051379186,160 L 51.69838791376097,160 L 51.72824146362642,160 L 53.22075768322024,160 L 53.242816338613025,160 L 53.27530402523131,160 L 54.768017357099154,160 L 54.80039752793161,160 L 54.833458632074326,160 L 56.321495027258564,160 L 56.345273935224625,160 L 56.37518124298299,160 L 57.869328118661905,160 L 57.89276655997283,160 L 57.9226738677312,160 L 59.418290125816455,160 L 59.4490754791591,160 L 59.485451653364905,160 L 60.966929585613514,160 L 60.98929286906615,160 L 61.01789206809691,160 L 62.516805476947624,160 L 62.535782013146616,160 L 62.56572515950025,160 L 64.05994371236972,160 L 64.08227115722707,160 L 64.11078075976965,160 L 64.1497910707283,160 L 65.61227454748027,160 L 65.64207433945282,160 L 65.67165909985368,160 L 67.15668505303469,160 L 67.18397614333787,160 L 67.21248574588044,160 L 68.70758234433418,160 L 68.7229212631126,160 L 68.758921132068,160 L 70.25416108490285,160 L 70.27960648754927,160 L 70.30051830789319,160 L 71.80355315520072,160 L 71.82760085263135,160 L 71.85686306567473,160 L 73.3526226781411,160 L 73.37831895095445,160 L 73.4064880868419,160 L 74.89947020817432,160 L 74.91988028818437,160 L 74.9514003327302,160 L 76.45049293455727,160 L 76.47253367065242,160 L 76.50344445907854,160 L 77.99762717335273,160 L 78.02330552686846,160 L 78.0542342345922,160 L 79.5449585244222,160 L 79.569740913056,160 L 79.58828738611166,160 L 81.0901574790727,160 L 81.12520762525327,160 L 81.1488790174335,160 L 82.64173570368246,160 L 82.66580132041071,160 L 84.21583848542357,160 L 84.24225153014245,160 L 85.73464231465283,160 L 85.75786572439209,160 L 85.78551520064804,160 L 87.2863280550484,160 L 87.31521396284138,160 L 87.34277384260912,160 L 88.83457329029741,160 L 88.86426556648412,160 L 88.8932410707653,160 L 90.3854705815969,160 L 90.41317381574575,160 L 90.43700648160473,160 L 91.92932558892454,160 L 91.95765599849074,94.78026905829597 L 91.98673901855773,94.78026905829597 L 93.50591915303738,94.78026905829597 L 93.53183045742242,94.78026905829597 L 95.02128247712008,94.78026905829597 L 95.04912906565004,94.78026905829597 L 95.06778305449154,94.78026905829597 L 96.5733624420637,94.78026905829597 L 96.60108359551019,94.78026905829597 L 96.62939608577875,94.78026905829597 L 98.1186509932024,94.78026905829597 L 98.14748314310246,94.78026905829597 L 98.18292751383107,94.78026905829597 L 99.67323965981538,94.78026905829597 L 99.70348743422888,94.78026905829597 L 99.7250085106925,94.78026905829597 L 101.22042765650374,94.78026905829597 L 101.24463662761312,94.78026905829597 L 101.27427514590691,94.78026905829597 L 102.77119951271976,94.78026905829597 L 102.82606840208831,94.78026905829597 L 104.31514411653558,94.78026905829597 L 104.34481847342465,94.78026905829597 L 104.37216332162073,94.78026905829597 L 105.86505584646497,94.78026905829597 L 105.89313538586423,94.78026905829597 L 105.92245135680054,94.78026905829597 L 107.41391033783368,94.78026905829597 L 107.44254537545974,94.78026905829597 L 107.47476427261344,94.78026905829597 L 108.96142088187953,94.78026905829597 L 108.99156114050722,94.78026905829597 L 109.02252568682623,94.78026905829597 L 110.51231817317904,94.78026905829597 L 110.54188501428226,94.78026905829597 L 110.57007206946736,94.78026905829597 L 112.06267788554938,94.78026905829597 L 112.08394809184607,94.78026905829597 L 112.11338949786584,94.78026905829597 L 113.6054577350187,94.78026905829597 L 113.63282050251243,94.78026905829597 L 113.66453765933227,94.78026905829597 L 115.15438390357798,94.78026905829597 L 115.18158539739296,94.78026905829597 L 115.2115285437466,94.78026905829597 L 116.70275457391045,94.78026905829597 L 116.72852252391438,94.78026905829597 L 116.76029343862714,94.78026905829597 L 118.25220040210127,94.78026905829597 L 118.27796835210516,94.78026905829597 L 118.30185477585705,94.78026905829597 L 119.80573183015358,94.78026905829597 L 119.82768296976053,94.78026905829597 L 119.85963307744966,94.78026905829597 L 121.34924637082608,94.78026905829597 L 121.37451258049613,94.78026905829597 L 121.40293258655049,94.78026905829597 L 122.8967389955743,94.78026905829597 L 122.9189947632411,94.78026905829597 L 122.95264720420586,94.78026905829597 L 124.44337149403587,94.78026905829597 L 124.46949782999253,94.78026905829597 L 124.5015554534675,94.78026905829597 L 125.98987855741396,94.78026905829597 L 126.01424880220208,94.78026905829597 L 126.04892264313224,94.78026905829597 L 127.53400235420615,94.78026905829597 L 127.5654865601567,94.78026905829597 L 127.59781297309625,94.78026905829597 L 129.0876771366396,94.78026905829597 L 129.11281791122616,94.78026905829597 L 129.14231307513887,94.78026905829597 L 130.637983091117,94.78026905829597 L 130.6651308270391,94.78026905829597 L 130.69812025399125,94.78026905829597 L 132.18359418961322,94.78026905829597 L 132.21531134643305,94.78026905829597 L 132.25036149261362,94.78026905829597 L 133.73488570546073,94.78026905829597 L 133.75900508008192,94.78026905829597 L 133.79056096322302,94.78026905829597 L 135.2841702599728,94.78026905829597 L 135.30658730131833,94.78026905829597 L 135.33821486165,94.78026905829597 L 136.8289929093729,94.78026905829597 L 136.85372154011378,94.78026905829597 L 136.8846860864328,94.78026905829597 L 138.3777936428487,94.78026905829597 L 138.40587318224794,94.78026905829597 L 139.92849382187416,94.78026905829597 L 139.95429761047336,94.78026905829597 L 139.9787574517497,94.78026905829597 L 141.47741999043345,94.78026905829597 L 141.50714810521544,94.78026905829597 L 141.5409439005613,94.78026905829597 L 143.01580961198135,94.78026905829597 L 143.0520603511037,94.78026905829597 L 143.08297113952983,94.78026905829597 L 144.57038035929673,94.78026905829597 L 144.58978695863902,94.78026905829597 L 144.62657527669052,94.78026905829597 L 146.119109415582,94.78026905829597 L 146.14663345675444,94.78026905829597 L 146.1771500206325,94.78026905829597 L 147.66963040163108,94.78026905829597 L 147.6956313025043,94.78026905829597 L 147.72315534367675,94.78026905829597 L 149.21375419842326,94.78026905829597 L 149.24342855531233,94.78026905829597 L 149.27285204203446,94.78026905829597 L 150.7610676301951,94.78026905829597 L 150.78826912401007,94.78026905829597 L 150.8189469615669,94.78026905829597 L 152.31436610737813,94.78026905829597 L 152.34495434844675,94.78026905829597 L 152.3779437753989,94.78026905829597 L 153.86513796359415,94.78026905829597 L 153.88827177684524,94.78026905829597 L 153.93939553300737,94.78026905829597 L 155.4140820514511,94.78026905829597 L 155.4376100892502,94.78026905829597 L 155.46717693035342,94.78026905829597 L 156.95713069038496,94.78026905829597 L 156.98476224734327,94.78026905829597 L 157.01397070249374,94.78026905829597 L 158.50465915372845,94.78026905829597 L 158.53126931072137,94.78026905829597 L 158.56198298687346,94.78026905829597 L 160.05392578894285,94.78026905829597 L 160.08189781255626,94.78026905829597 L 160.1074865695838,94.78026905829597 L 161.60000278917764,94.78026905829597 L 161.62767018473122,94.78026905829597 L 161.6567352855006,94.78026905829597 L 163.15512903471978,94.78026905829597 L 163.18428373197733,94.78026905829597 L 163.21476445726012,94.78026905829597 L 164.6974967403434,94.78026905829597 L 164.72681271127973,40 L 164.757221759372,40 L 166.2519958104682,40 L 166.27281803432396,40 L 166.30114844389016,40 L 167.79443519328242,40 L 167.81436145225624,40 L 167.8524399597377,40 L 169.3448665828433,40 L 169.3736628941481,40 L 169.39801521963858,40 L 170.88703717619293,40 L 170.91966821719234,40 L 170.95142121260744,40 L 172.44241429190203,40 L 172.4574127440253,40 L 172.49581379886422,40 L 173.99030114119827,40 L 174.02028012614718,40 L 174.0552585951372,40 L 175.5384567799591,40 L 175.5649235825709,40 L 175.60076217784754,40 L 177.08383492758597,40 L 177.11384975113018,40 L 177.1471438061422,40 L 178.63552066798155,40 L 178.65738221110033,40 L 178.6884184346099,40 L 180.17939359460684,40 L 180.2043014183241,40 L 180.23643071898962,40 L 181.7305238367756,40 L 181.75991148490246,40 L 181.78555399982292,40 L 183.2775863983805,40 L 183.31041455165393,40 L 183.33333333333334,40" stroke="#f59e0b" stroke-width="2" fill="none" stroke-dasharray="14800" stroke-dashoffset="14800">
      <animate attributeName="stroke-dashoffset" values="14800;0" dur="3s" begin="3.5999999999999996s" fill="freeze"/>
    </path>
    
    <!-- Glow effect for the line that also follows the circle -->
    <path d="M 30,160 L 30.025284128967677,160 L 30.053041121009446,160 L 31.546023242341867,160 L 31.57082355027331,160 L 31.595892647669327,160 L 31.6356197305335,160 L 33.09984137915641,160 L 33.12600355370836,160 L 33.15320504752334,160 L 34.647011456547126,160 L 34.67310195390853,160 L 34.701611556451105,160 L 36.19445032340242,160 L 36.21846218223778,160 L 36.24586078832678,160 L 37.73812613775367,160 L 37.76697620695137,160 L 39.29723046737151,160 L 39.314755540461796,160 L 39.342566290396476,160 L 40.83775248533841,160 L 40.86242735818639,160 L 40.89292600276682,160 L 42.38560349603939,160 L 42.4096870320653,160 L 42.43676309079681,160 L 43.93653662593415,160 L 43.962376253128625,160 L 43.99475642396108,160 L 45.48637667867298,160 L 45.514223267202944,160 L 45.54092302068405,160 L 47.03718437348429,160 L 47.054315222026524,160 L 47.083326564902976,160 L 48.58003590014417,160 L 48.60243502219208,160 L 48.62813129500544,160 L 50.12794066873806,160 L 50.14881665048671,160 L 50.18048004941363,160 L 51.675487051379186,160 L 51.69838791376097,160 L 51.72824146362642,160 L 53.22075768322024,160 L 53.242816338613025,160 L 53.27530402523131,160 L 54.768017357099154,160 L 54.80039752793161,160 L 54.833458632074326,160 L 56.321495027258564,160 L 56.345273935224625,160 L 56.37518124298299,160 L 57.869328118661905,160 L 57.89276655997283,160 L 57.9226738677312,160 L 59.418290125816455,160 L 59.4490754791591,160 L 59.485451653364905,160 L 60.966929585613514,160 L 60.98929286906615,160 L 61.01789206809691,160 L 62.516805476947624,160 L 62.535782013146616,160 L 62.56572515950025,160 L 64.05994371236972,160 L 64.08227115722707,160 L 64.11078075976965,160 L 64.1497910707283,160 L 65.61227454748027,160 L 65.64207433945282,160 L 65.67165909985368,160 L 67.15668505303469,160 L 67.18397614333787,160 L 67.21248574588044,160 L 68.70758234433418,160 L 68.7229212631126,160 L 68.758921132068,160 L 70.25416108490285,160 L 70.27960648754927,160 L 70.30051830789319,160 L 71.80355315520072,160 L 71.82760085263135,160 L 71.85686306567473,160 L 73.3526226781411,160 L 73.37831895095445,160 L 73.4064880868419,160 L 74.89947020817432,160 L 74.91988028818437,160 L 74.9514003327302,160 L 76.45049293455727,160 L 76.47253367065242,160 L 76.50344445907854,160 L 77.99762717335273,160 L 78.02330552686846,160 L 78.0542342345922,160 L 79.5449585244222,160 L 79.569740913056,160 L 79.58828738611166,160 L 81.0901574790727,160 L 81.12520762525327,160 L 81.1488790174335,160 L 82.64173570368246,160 L 82.66580132041071,160 L 84.21583848542357,160 L 84.24225153014245,160 L 85.73464231465283,160 L 85.75786572439209,160 L 85.78551520064804,160 L 87.2863280550484,160 L 87.31521396284138,160 L 87.34277384260912,160 L 88.83457329029741,160 L 88.86426556648412,160 L 88.8932410707653,160 L 90.3854705815969,160 L 90.41317381574575,160 L 90.43700648160473,160 L 91.92932558892454,160 L 91.95765599849074,94.78026905829597 L 91.98673901855773,94.78026905829597 L 93.50591915303738,94.78026905829597 L 93.53183045742242,94.78026905829597 L 95.02128247712008,94.78026905829597 L 95.04912906565004,94.78026905829597 L 95.06778305449154,94.78026905829597 L 96.5733624420637,94.78026905829597 L 96.60108359551019,94.78026905829597 L 96.62939608577875,94.78026905829597 L 98.1186509932024,94.78026905829597 L 98.14748314310246,94.78026905829597 L 98.18292751383107,94.78026905829597 L 99.67323965981538,94.78026905829597 L 99.70348743422888,94.78026905829597 L 99.7250085106925,94.78026905829597 L 101.22042765650374,94.78026905829597 L 101.24463662761312,94.78026905829597 L 101.27427514590691,94.78026905829597 L 102.77119951271976,94.78026905829597 L 102.82606840208831,94.78026905829597 L 104.31514411653558,94.78026905829597 L 104.34481847342465,94.78026905829597 L 104.37216332162073,94.78026905829597 L 105.86505584646497,94.78026905829597 L 105.89313538586423,94.78026905829597 L 105.92245135680054,94.78026905829597 L 107.41391033783368,94.78026905829597 L 107.44254537545974,94.78026905829597 L 107.47476427261344,94.78026905829597 L 108.96142088187953,94.78026905829597 L 108.99156114050722,94.78026905829597 L 109.02252568682623,94.78026905829597 L 110.51231817317904,94.78026905829597 L 110.54188501428226,94.78026905829597 L 110.57007206946736,94.78026905829597 L 112.06267788554938,94.78026905829597 L 112.08394809184607,94.78026905829597 L 112.11338949786584,94.78026905829597 L 113.6054577350187,94.78026905829597 L 113.63282050251243,94.78026905829597 L 113.66453765933227,94.78026905829597 L 115.15438390357798,94.78026905829597 L 115.18158539739296,94.78026905829597 L 115.2115285437466,94.78026905829597 L 116.70275457391045,94.78026905829597 L 116.72852252391438,94.78026905829597 L 116.76029343862714,94.78026905829597 L 118.25220040210127,94.78026905829597 L 118.27796835210516,94.78026905829597 L 118.30185477585705,94.78026905829597 L 119.80573183015358,94.78026905829597 L 119.82768296976053,94.78026905829597 L 119.85963307744966,94.78026905829597 L 121.34924637082608,94.78026905829597 L 121.37451258049613,94.78026905829597 L 121.40293258655049,94.78026905829597 L 122.8967389955743,94.78026905829597 L 122.9189947632411,94.78026905829597 L 122.95264720420586,94.78026905829597 L 124.44337149403587,94.78026905829597 L 124.46949782999253,94.78026905829597 L 124.5015554534675,94.78026905829597 L 125.98987855741396,94.78026905829597 L 126.01424880220208,94.78026905829597 L 126.04892264313224,94.78026905829597 L 127.53400235420615,94.78026905829597 L 127.5654865601567,94.78026905829597 L 127.59781297309625,94.78026905829597 L 129.0876771366396,94.78026905829597 L 129.11281791122616,94.78026905829597 L 129.14231307513887,94.78026905829597 L 130.637983091117,94.78026905829597 L 130.6651308270391,94.78026905829597 L 130.69812025399125,94.78026905829597 L 132.18359418961322,94.78026905829597 L 132.21531134643305,94.78026905829597 L 132.25036149261362,94.78026905829597 L 133.73488570546073,94.78026905829597 L 133.75900508008192,94.78026905829597 L 133.79056096322302,94.78026905829597 L 135.2841702599728,94.78026905829597 L 135.30658730131833,94.78026905829597 L 135.33821486165,94.78026905829597 L 136.8289929093729,94.78026905829597 L 136.85372154011378,94.78026905829597 L 136.8846860864328,94.78026905829597 L 138.3777936428487,94.78026905829597 L 138.40587318224794,94.78026905829597 L 139.92849382187416,94.78026905829597 L 139.95429761047336,94.78026905829597 L 139.9787574517497,94.78026905829597 L 141.47741999043345,94.78026905829597 L 141.50714810521544,94.78026905829597 L 141.5409439005613,94.78026905829597 L 143.01580961198135,94.78026905829597 L 143.0520603511037,94.78026905829597 L 143.08297113952983,94.78026905829597 L 144.57038035929673,94.78026905829597 L 144.58978695863902,94.78026905829597 L 144.62657527669052,94.78026905829597 L 146.119109415582,94.78026905829597 L 146.14663345675444,94.78026905829597 L 146.1771500206325,94.78026905829597 L 147.66963040163108,94.78026905829597 L 147.6956313025043,94.78026905829597 L 147.72315534367675,94.78026905829597 L 149.21375419842326,94.78026905829597 L 149.24342855531233,94.78026905829597 L 149.27285204203446,94.78026905829597 L 150.7610676301951,94.78026905829597 L 150.78826912401007,94.78026905829597 L 150.8189469615669,94.78026905829597 L 152.31436610737813,94.78026905829597 L 152.34495434844675,94.78026905829597 L 152.3779437753989,94.78026905829597 L 153.86513796359415,94.78026905829597 L 153.88827177684524,94.78026905829597 L 153.93939553300737,94.78026905829597 L 155.4140820514511,94.78026905829597 L 155.4376100892502,94.78026905829597 L 155.46717693035342,94.78026905829597 L 156.95713069038496,94.78026905829597 L 156.98476224734327,94.78026905829597 L 157.01397070249374,94.78026905829597 L 158.50465915372845,94.78026905829597 L 158.53126931072137,94.78026905829597 L 158.56198298687346,94.78026905829597 L 160.05392578894285,94.78026905829597 L 160.08189781255626,94.78026905829597 L 160.1074865695838,94.78026905829597 L 161.60000278917764,94.78026905829597 L 161.62767018473122,94.78026905829597 L 161.6567352855006,94.78026905829597 L 163.15512903471978,94.78026905829597 L 163.18428373197733,94.78026905829597 L 163.21476445726012,94.78026905829597 L 164.6974967403434,94.78026905829597 L 164.72681271127973,40 L 164.757221759372,40 L 166.2519958104682,40 L 166.27281803432396,40 L 166.30114844389016,40 L 167.79443519328242,40 L 167.81436145225624,40 L 167.8524399597377,40 L 169.3448665828433,40 L 169.3736628941481,40 L 169.39801521963858,40 L 170.88703717619293,40 L 170.91966821719234,40 L 170.95142121260744,40 L 172.44241429190203,40 L 172.4574127440253,40 L 172.49581379886422,40 L 173.99030114119827,40 L 174.02028012614718,40 L 174.0552585951372,40 L 175.5384567799591,40 L 175.5649235825709,40 L 175.60076217784754,40 L 177.08383492758597,40 L 177.11384975113018,40 L 177.1471438061422,40 L 178.63552066798155,40 L 178.65738221110033,40 L 178.6884184346099,40 L 180.17939359460684,40 L 180.2043014183241,40 L 180.23643071898962,40 L 181.7305238367756,40 L 181.75991148490246,40 L 181.78555399982292,40 L 183.2775863983805,40 L 183.31041455165393,40 L 183.33333333333334,40" stroke="#f59e0b" stroke-width="4" fill="none" opacity="0.4" stroke-dasharray="14800" stroke-dashoffset="14800">
      <animate attributeName="stroke-dashoffset" values="14800;0" dur="3s" begin="3.5999999999999996s" fill="freeze"/>
    </path>
    
    <!-- Animated circle that moves along the path and draws the line -->
    <circle r="5" fill="#f59e0b" opacity="0" filter="url(#trailGlow)">
      <animate attributeName="opacity" values="0;1;1;1" dur="3.2s" begin="3.4s" fill="freeze"/>
      <animate attributeName="r" values="5;6;5" dur="1s" begin="3.4s" repeatCount="3"/>
      <animateMotion dur="3s" begin="3.4s" fill="freeze">
        <mpath href="#path_totalContributions_526.6666666666667"/>
      </animateMotion>
    </circle>
    
    <!-- Small trail dots that fade out -->
    <circle r="2" fill="#f59e0b" opacity="0">
      <animate attributeName="opacity" values="0;0.6;0" dur="0.8s" begin="3.8s" fill="freeze"/>
      <animateMotion dur="3s" begin="3.4s" fill="freeze">
        <mpath href="#path_totalContributions_526.6666666666667"/>
      </animateMotion>
    </circle>
    
    <!-- Hidden path for motion animation -->
    <path id="path_totalContributions_526.6666666666667" d="M 30,160 L 30.025284128967677,160 L 30.053041121009446,160 L 31.546023242341867,160 L 31.57082355027331,160 L 31.595892647669327,160 L 31.6356197305335,160 L 33.09984137915641,160 L 33.12600355370836,160 L 33.15320504752334,160 L 34.647011456547126,160 L 34.67310195390853,160 L 34.701611556451105,160 L 36.19445032340242,160 L 36.21846218223778,160 L 36.24586078832678,160 L 37.73812613775367,160 L 37.76697620695137,160 L 39.29723046737151,160 L 39.314755540461796,160 L 39.342566290396476,160 L 40.83775248533841,160 L 40.86242735818639,160 L 40.89292600276682,160 L 42.38560349603939,160 L 42.4096870320653,160 L 42.43676309079681,160 L 43.93653662593415,160 L 43.962376253128625,160 L 43.99475642396108,160 L 45.48637667867298,160 L 45.514223267202944,160 L 45.54092302068405,160 L 47.03718437348429,160 L 47.054315222026524,160 L 47.083326564902976,160 L 48.58003590014417,160 L 48.60243502219208,160 L 48.62813129500544,160 L 50.12794066873806,160 L 50.14881665048671,160 L 50.18048004941363,160 L 51.675487051379186,160 L 51.69838791376097,160 L 51.72824146362642,160 L 53.22075768322024,160 L 53.242816338613025,160 L 53.27530402523131,160 L 54.768017357099154,160 L 54.80039752793161,160 L 54.833458632074326,160 L 56.321495027258564,160 L 56.345273935224625,160 L 56.37518124298299,160 L 57.869328118661905,160 L 57.89276655997283,160 L 57.9226738677312,160 L 59.418290125816455,160 L 59.4490754791591,160 L 59.485451653364905,160 L 60.966929585613514,160 L 60.98929286906615,160 L 61.01789206809691,160 L 62.516805476947624,160 L 62.535782013146616,160 L 62.56572515950025,160 L 64.05994371236972,160 L 64.08227115722707,160 L 64.11078075976965,160 L 64.1497910707283,160 L 65.61227454748027,160 L 65.64207433945282,160 L 65.67165909985368,160 L 67.15668505303469,160 L 67.18397614333787,160 L 67.21248574588044,160 L 68.70758234433418,160 L 68.7229212631126,160 L 68.758921132068,160 L 70.25416108490285,160 L 70.27960648754927,160 L 70.30051830789319,160 L 71.80355315520072,160 L 71.82760085263135,160 L 71.85686306567473,160 L 73.3526226781411,160 L 73.37831895095445,160 L 73.4064880868419,160 L 74.89947020817432,160 L 74.91988028818437,160 L 74.9514003327302,160 L 76.45049293455727,160 L 76.47253367065242,160 L 76.50344445907854,160 L 77.99762717335273,160 L 78.02330552686846,160 L 78.0542342345922,160 L 79.5449585244222,160 L 79.569740913056,160 L 79.58828738611166,160 L 81.0901574790727,160 L 81.12520762525327,160 L 81.1488790174335,160 L 82.64173570368246,160 L 82.66580132041071,160 L 84.21583848542357,160 L 84.24225153014245,160 L 85.73464231465283,160 L 85.75786572439209,160 L 85.78551520064804,160 L 87.2863280550484,160 L 87.31521396284138,160 L 87.34277384260912,160 L 88.83457329029741,160 L 88.86426556648412,160 L 88.8932410707653,160 L 90.3854705815969,160 L 90.41317381574575,160 L 90.43700648160473,160 L 91.92932558892454,160 L 91.95765599849074,94.78026905829597 L 91.98673901855773,94.78026905829597 L 93.50591915303738,94.78026905829597 L 93.53183045742242,94.78026905829597 L 95.02128247712008,94.78026905829597 L 95.04912906565004,94.78026905829597 L 95.06778305449154,94.78026905829597 L 96.5733624420637,94.78026905829597 L 96.60108359551019,94.78026905829597 L 96.62939608577875,94.78026905829597 L 98.1186509932024,94.78026905829597 L 98.14748314310246,94.78026905829597 L 98.18292751383107,94.78026905829597 L 99.67323965981538,94.78026905829597 L 99.70348743422888,94.78026905829597 L 99.7250085106925,94.78026905829597 L 101.22042765650374,94.78026905829597 L 101.24463662761312,94.78026905829597 L 101.27427514590691,94.78026905829597 L 102.77119951271976,94.78026905829597 L 102.82606840208831,94.78026905829597 L 104.31514411653558,94.78026905829597 L 104.34481847342465,94.78026905829597 L 104.37216332162073,94.78026905829597 L 105.86505584646497,94.78026905829597 L 105.89313538586423,94.78026905829597 L 105.92245135680054,94.78026905829597 L 107.41391033783368,94.78026905829597 L 107.44254537545974,94.78026905829597 L 107.47476427261344,94.78026905829597 L 108.96142088187953,94.78026905829597 L 108.99156114050722,94.78026905829597 L 109.02252568682623,94.78026905829597 L 110.51231817317904,94.78026905829597 L 110.54188501428226,94.78026905829597 L 110.57007206946736,94.78026905829597 L 112.06267788554938,94.78026905829597 L 112.08394809184607,94.78026905829597 L 112.11338949786584,94.78026905829597 L 113.6054577350187,94.78026905829597 L 113.63282050251243,94.78026905829597 L 113.66453765933227,94.78026905829597 L 115.15438390357798,94.78026905829597 L 115.18158539739296,94.78026905829597 L 115.2115285437466,94.78026905829597 L 116.70275457391045,94.78026905829597 L 116.72852252391438,94.78026905829597 L 116.76029343862714,94.78026905829597 L 118.25220040210127,94.78026905829597 L 118.27796835210516,94.78026905829597 L 118.30185477585705,94.78026905829597 L 119.80573183015358,94.78026905829597 L 119.82768296976053,94.78026905829597 L 119.85963307744966,94.78026905829597 L 121.34924637082608,94.78026905829597 L 121.37451258049613,94.78026905829597 L 121.40293258655049,94.78026905829597 L 122.8967389955743,94.78026905829597 L 122.9189947632411,94.78026905829597 L 122.95264720420586,94.78026905829597 L 124.44337149403587,94.78026905829597 L 124.46949782999253,94.78026905829597 L 124.5015554534675,94.78026905829597 L 125.98987855741396,94.78026905829597 L 126.01424880220208,94.78026905829597 L 126.04892264313224,94.78026905829597 L 127.53400235420615,94.78026905829597 L 127.5654865601567,94.78026905829597 L 127.59781297309625,94.78026905829597 L 129.0876771366396,94.78026905829597 L 129.11281791122616,94.78026905829597 L 129.14231307513887,94.78026905829597 L 130.637983091117,94.78026905829597 L 130.6651308270391,94.78026905829597 L 130.69812025399125,94.78026905829597 L 132.18359418961322,94.78026905829597 L 132.21531134643305,94.78026905829597 L 132.25036149261362,94.78026905829597 L 133.73488570546073,94.78026905829597 L 133.75900508008192,94.78026905829597 L 133.79056096322302,94.78026905829597 L 135.2841702599728,94.78026905829597 L 135.30658730131833,94.78026905829597 L 135.33821486165,94.78026905829597 L 136.8289929093729,94.78026905829597 L 136.85372154011378,94.78026905829597 L 136.8846860864328,94.78026905829597 L 138.3777936428487,94.78026905829597 L 138.40587318224794,94.78026905829597 L 139.92849382187416,94.78026905829597 L 139.95429761047336,94.78026905829597 L 139.9787574517497,94.78026905829597 L 141.47741999043345,94.78026905829597 L 141.50714810521544,94.78026905829597 L 141.5409439005613,94.78026905829597 L 143.01580961198135,94.78026905829597 L 143.0520603511037,94.78026905829597 L 143.08297113952983,94.78026905829597 L 144.57038035929673,94.78026905829597 L 144.58978695863902,94.78026905829597 L 144.62657527669052,94.78026905829597 L 146.119109415582,94.78026905829597 L 146.14663345675444,94.78026905829597 L 146.1771500206325,94.78026905829597 L 147.66963040163108,94.78026905829597 L 147.6956313025043,94.78026905829597 L 147.72315534367675,94.78026905829597 L 149.21375419842326,94.78026905829597 L 149.24342855531233,94.78026905829597 L 149.27285204203446,94.78026905829597 L 150.7610676301951,94.78026905829597 L 150.78826912401007,94.78026905829597 L 150.8189469615669,94.78026905829597 L 152.31436610737813,94.78026905829597 L 152.34495434844675,94.78026905829597 L 152.3779437753989,94.78026905829597 L 153.86513796359415,94.78026905829597 L 153.88827177684524,94.78026905829597 L 153.93939553300737,94.78026905829597 L 155.4140820514511,94.78026905829597 L 155.4376100892502,94.78026905829597 L 155.46717693035342,94.78026905829597 L 156.95713069038496,94.78026905829597 L 156.98476224734327,94.78026905829597 L 157.01397070249374,94.78026905829597 L 158.50465915372845,94.78026905829597 L 158.53126931072137,94.78026905829597 L 158.56198298687346,94.78026905829597 L 160.05392578894285,94.78026905829597 L 160.08189781255626,94.78026905829597 L 160.1074865695838,94.78026905829597 L 161.60000278917764,94.78026905829597 L 161.62767018473122,94.78026905829597 L 161.6567352855006,94.78026905829597 L 163.15512903471978,94.78026905829597 L 163.18428373197733,94.78026905829597 L 163.21476445726012,94.78026905829597 L 164.6974967403434,94.78026905829597 L 164.72681271127973,40 L 164.757221759372,40 L 166.2519958104682,40 L 166.27281803432396,40 L 166.30114844389016,40 L 167.79443519328242,40 L 167.81436145225624,40 L 167.8524399597377,40 L 169.3448665828433,40 L 169.3736628941481,40 L 169.39801521963858,40 L 170.88703717619293,40 L 170.91966821719234,40 L 170.95142121260744,40 L 172.44241429190203,40 L 172.4574127440253,40 L 172.49581379886422,40 L 173.99030114119827,40 L 174.02028012614718,40 L 174.0552585951372,40 L 175.5384567799591,40 L 175.5649235825709,40 L 175.60076217784754,40 L 177.08383492758597,40 L 177.11384975113018,40 L 177.1471438061422,40 L 178.63552066798155,40 L 178.65738221110033,40 L 178.6884184346099,40 L 180.17939359460684,40 L 180.2043014183241,40 L 180.23643071898962,40 L 181.7305238367756,40 L 181.75991148490246,40 L 181.78555399982292,40 L 183.2775863983805,40 L 183.31041455165393,40 L 183.33333333333334,40" fill="none" stroke="none"/>
  </g>
  
  <!-- Footer -->
  <text x="400" y="580" text-anchor="middle" fill="#64748b" font-size="12" font-family="Arial, sans-serif">
    Generated by GitHub User Rank Tracker • 12/20/2025
    <animate attributeName="opacity" values="0;1" dur="0.5s" begin="5s" fill="freeze"/>
  </text>
</svg>