<svg width="800" height="600" xmlns="http://www.w3.org/2000/svg">
  <defs>
    <linearGradient id="bgGradient" x1="0%" y1="0%" x2="100%" y2="100%">
      <stop offset="0%" style="stop-color:#f8fafc;stop-opacity:1" />
      <stop offset="100%" style="stop-color:#e2e8f0;stop-opacity:1" />
    </linearGradient>
    <filter id="shadow" x="-20%" y="-20%" width="140%" height="140%">
      <feDropShadow dx="2" dy="2" stdDeviation="3" flood-color="#00000020" flood-opacity="0.1"/>
    </filter>
    <!-- Trail effect filter -->
    <filter id="trailGlow" x="-50%" y="-50%" width="200%" height="200%">
      <feGaussianBlur stdDeviation="3" result="coloredBlur"/>
      <feMerge> 
        <feMergeNode in="coloredBlur"/>
        <feMergeNode in="SourceGraphic"/>
      </feMerge>
    </filter>
  </defs>
  
  <!-- Background -->
  <rect width="800" height="600" fill="url(#bgGradient)" rx="12"/>
  
  <!-- Header -->
  <text x="400" y="40" text-anchor="middle" fill="#0f172a" font-size="24" font-weight="bold" font-family="Arial, sans-serif">
    GitHub Progress Report
    <animate attributeName="opacity" values="0;1" dur="0.8s" begin="0s" fill="freeze"/>
    <animateTransform attributeName="transform" type="translate" values="0,-20;0,0" dur="0.8s" begin="0s" fill="freeze"/>
  </text>
  
  <!-- User Info -->
  <text x="400" y="70" text-anchor="middle" fill="#475569" font-size="16" font-family="Arial, sans-serif">
    @maifeeulasad • BANGLADESH • 100 days analyzed
    <animate attributeName="opacity" values="0;1" dur="0.6s" begin="0.3s" fill="freeze"/>
  </text>
  
  <!-- Progress Cards -->
  <!-- Followers Card -->
  <g transform="translate(60, 100)">
    <rect width="206.66666666666666" height="120" fill="#ffffff" stroke="#e2e8f0" stroke-width="1" rx="8" filter="url(#shadow)">
      <animate attributeName="opacity" values="0;1" dur="0.6s" begin="0.2s" fill="freeze"/>
      <animateTransform attributeName="transform" type="scale" values="0.8;1" dur="0.6s" begin="0.2s" fill="freeze"/>
    </rect>
    <text x="103.33333333333333" y="25" text-anchor="middle" fill="#64748b" font-size="14" font-weight="bold" font-family="Arial, sans-serif">FOLLOWERS
      <animate attributeName="opacity" values="0;1" dur="0.5s" begin="0.4s" fill="freeze"/>
    </text>
    
    <text x="103.33333333333333" y="50" text-anchor="middle" fill="#22c55e" font-size="32" font-weight="bold" font-family="Arial, sans-serif">
      ↗
      <animate attributeName="opacity" values="0;1" dur="0.5s" begin="0.6s" fill="freeze"/>
      <animateTransform attributeName="transform" type="scale" values="0;1.2;1" dur="0.8s" begin="0.6s" fill="freeze"/>
    </text>
    
    <text x="103.33333333333333" y="75" text-anchor="middle" fill="#1e293b" font-size="18" font-weight="bold" font-family="Arial, sans-serif">
      +6
      <animate attributeName="opacity" values="0;1" dur="0.5s" begin="0.8s" fill="freeze"/>
    </text>
    
    <text x="103.33333333333333" y="95" text-anchor="middle" fill="#64748b" font-size="12" font-family="Arial, sans-serif">
      #473 → #467
      <animate attributeName="opacity" values="0;1" dur="0.5s" begin="1s" fill="freeze"/>
    </text>
  </g>
  
  <!-- Public Contributions Card -->
  <g transform="translate(296.66666666666663, 100)">
    <rect width="206.66666666666666" height="120" fill="#ffffff" stroke="#e2e8f0" stroke-width="1" rx="8" filter="url(#shadow)">
      <animate attributeName="opacity" values="0;1" dur="0.6s" begin="0.4s" fill="freeze"/>
      <animateTransform attributeName="transform" type="scale" values="0.8;1" dur="0.6s" begin="0.4s" fill="freeze"/>
    </rect>
    <text x="103.33333333333333" y="25" text-anchor="middle" fill="#64748b" font-size="14" font-weight="bold" font-family="Arial, sans-serif">PUBLIC
      <animate attributeName="opacity" values="0;1" dur="0.5s" begin="0.6s" fill="freeze"/>
    </text>
    
    <text x="103.33333333333333" y="50" text-anchor="middle" fill="#22c55e" font-size="32" font-weight="bold" font-family="Arial, sans-serif">
      ↗
      <animate attributeName="opacity" values="0;1" dur="0.5s" begin="0.8s" fill="freeze"/>
      <animateTransform attributeName="transform" type="scale" values="0;1.2;1" dur="0.8s" begin="0.8s" fill="freeze"/>
    </text>
    
    <text x="103.33333333333333" y="75" text-anchor="middle" fill="#1e293b" font-size="18" font-weight="bold" font-family="Arial, sans-serif">
      +11
      <animate attributeName="opacity" values="0;1" dur="0.5s" begin="1s" fill="freeze"/>
    </text>
    
    <text x="103.33333333333333" y="95" text-anchor="middle" fill="#64748b" font-size="12" font-family="Arial, sans-serif">
      #18 → #7
      <animate attributeName="opacity" values="0;1" dur="0.5s" begin="1.2s" fill="freeze"/>
    </text>
  </g>
  
  <!-- Total Contributions Card -->
  <g transform="translate(533.3333333333333, 100)">
    <rect width="206.66666666666666" height="120" fill="#ffffff" stroke="#e2e8f0" stroke-width="1" rx="8" filter="url(#shadow)">
      <animate attributeName="opacity" values="0;1" dur="0.6s" begin="0.6s" fill="freeze"/>
      <animateTransform attributeName="transform" type="scale" values="0.8;1" dur="0.6s" begin="0.6s" fill="freeze"/>
    </rect>
    <text x="103.33333333333333" y="25" text-anchor="middle" fill="#64748b" font-size="14" font-weight="bold" font-family="Arial, sans-serif">TOTAL
      <animate attributeName="opacity" values="0;1" dur="0.5s" begin="0.8s" fill="freeze"/>
    </text>
    
    <text x="103.33333333333333" y="50" text-anchor="middle" fill="#22c55e" font-size="32" font-weight="bold" font-family="Arial, sans-serif">
      ↗
      <animate attributeName="opacity" values="0;1" dur="0.5s" begin="1s" fill="freeze"/>
      <animateTransform attributeName="transform" type="scale" values="0;1.2;1" dur="0.8s" begin="1s" fill="freeze"/>
    </text>
    
    <text x="103.33333333333333" y="75" text-anchor="middle" fill="#1e293b" font-size="18" font-weight="bold" font-family="Arial, sans-serif">
      +15
      <animate attributeName="opacity" values="0;1" dur="0.5s" begin="1.2s" fill="freeze"/>
    </text>
    
    <text x="103.33333333333333" y="95" text-anchor="middle" fill="#64748b" font-size="12" font-family="Arial, sans-serif">
      #39 → #24
      <animate attributeName="opacity" values="0;1" dur="0.5s" begin="1.4s" fill="freeze"/>
    </text>
  </g>
  
  <!-- Timeline Charts (if we have snapshots) -->
  
  <!-- 👥 Followers Count Chart -->
  <g transform="translate(60, 250)">
    <!-- Chart Background -->
    <rect x="0" y="0" width="213.33333333333334" height="200" fill="#ffffff" stroke="#e2e8f0" stroke-width="1" rx="8" filter="url(#shadow)">
      <animate attributeName="opacity" values="0;1" dur="0.5s" begin="1.8s" fill="freeze"/>
    </rect>
    
    <!-- Chart Title -->
    <text x="106.66666666666667" y="25" text-anchor="middle" fill="#1e293b" font-size="14" font-weight="bold" font-family="Arial, sans-serif">
      👥 Followers Count
      <animate attributeName="opacity" values="0;1" dur="0.5s" begin="2s" fill="freeze"/>
    </text>
    
    <!-- Y-axis labels -->
    <text x="10" y="45" fill="#64748b" font-size="10" font-family="Arial, sans-serif">143
      <animate attributeName="opacity" values="0;1" dur="0.5s" begin="2.2s" fill="freeze"/>
    </text>
    <text x="10" y="185" fill="#64748b" font-size="10" font-family="Arial, sans-serif">136
      <animate attributeName="opacity" values="0;1" dur="0.5s" begin="2.2s" fill="freeze"/>
    </text>
    
    <!-- Chart Line with draw animation that follows the circle -->
    <path d="M 30,160 L 30.026270199968828,160 L 30.058848115073417,160 L 31.54297105615,160 L 31.5782369180454,160 L 31.60857487749098,160 L 33.09816331037554,160 L 33.12525781402688,160 L 33.15726230048277,160 L 34.647854233502564,160 L 34.674411147795745,160 L 34.70333345526483,160 L 36.19602198678146,160 L 36.223224008304435,160 L 36.25178792286808,160 L 37.74349087389474,160 L 37.77553119964117,160 L 37.80850334694175,160 L 39.29135399320401,160 L 39.32099308648399,160 L 39.354413224916364,160 L 40.8309382363976,160 L 40.87057649173938,160 L 40.90306480861761,160 L 42.387779097988165,160 L 42.41618173574437,160 L 42.447057284548116,160 L 43.93634108346305,160 L 43.96295175669204,160 L 43.99470536811412,160 L 45.482465997180924,160 L 45.510510242031685,160 L 45.542156335582135,160 L 47.03165517024033,160 L 47.05426976257366,160 L 47.08964314234069,160 L 48.582851343570205,160 L 48.61378065130977,160 L 48.65010377227621,160 L 50.133241132862835,160 L 50.15985180609184,160 L 50.191748774676086,160 L 51.67918685012799,57.14285714285715 L 51.70508073754611,57.14285714285715 L 51.738393358106855,57.14285714285715 L 53.22423658512956,57.14285714285715 L 53.249987115385494,57.14285714285715 L 53.28528881657144,57.14285714285715 L 54.76493184633001,57.14285714285715 L 54.80009019035377,57.14285714285715 L 54.835750284445155,57.14285714285715 L 56.32218485976183,57.14285714285715 L 56.344190184155906,57.14285714285715 L 56.37719817074703,57.14285714285715 L 57.8699225415542,57.14285714285715 L 57.895888107553404,57.14285714285715 L 57.92957704066485,57.14285714285715 L 59.412875678058924,57.14285714285715 L 59.45235265659326,57.14285714285715 L 59.48584447360672,57.14285714285715 L 60.96715403037559,57.14285714285715 L 60.999767784770725,57.14285714285715 L 61.032883289233474,57.14285714285715 L 62.51869067696563,57.14285714285715 L 62.54868816315105,57.14285714285715 L 62.58144527470836,57.14285714285715 L 64.0634178583523,57.14285714285715 L 64.09432924644659,57.14285714285715 L 64.1263158132572,57.14285714285715 L 65.61009828107362,57.14285714285715 L 65.6411351066848,57.14285714285715 L 65.67561250418822,57.14285714285715 L 67.16115109724132,57.14285714285715 L 67.19634528055562,57.14285714285715 L 67.23026716905562,57.14285714285715 L 68.7084228682566,57.14285714285715 L 68.73834867586092,57.14285714285715 L 68.76599868851571,57.14285714285715 L 70.26114221143459,57.14285714285715 L 70.29293166214723,57.14285714285715 L 70.32791080971826,57.14285714285715 L 71.80495549091239,57.14285714285715 L 71.83701373630409,57.14285714285715 L 71.87353397336852,57.14285714285715 L 73.35366083354944,57.14285714285715 L 73.38372999831594,57.14285714285715 L 73.41675590455233,57.14285714285715 L 74.90263497086558,57.14285714285715 L 74.92983699238854,57.14285714285715 L 74.96562252399684,57.14285714285715 L 76.45171662605335,57.14285714285715 L 76.48078229068463,57.14285714285715 L 76.51058266077203,57.14285714285715 L 78.00140754918039,57.14285714285715 L 78.02642337398015,57.14285714285715 L 78.05880417298675,57.14285714285715 L 79.54486243575272,57.14285714285715 L 79.56869556396455,57.14285714285715 L 79.59652477307205,57.14285714285715 L 81.09627364482586,57.14285714285715 L 81.12365486280154,57.14285714285715 L 81.15992422483218,57.14285714285715 L 82.64370669264859,57.14285714285715 L 82.67167925891827,57.14285714285715 L 82.70592370103316,57.14285714285715 L 84.18639103447424,57.14285714285715 L 84.21203404685855,57.14285714285715 L 84.24588425677746,57.14285714285715 L 85.73135117124946,57.14285714285715 L 85.76409036316149,57.14285714285715 L 85.79677579613771,57.14285714285715 L 87.28573704143776,57.14285714285715 L 87.31170260743696,57.14285714285715 L 87.34297238843666,57.14285714285715 L 88.83519500917623,57.14285714285715 L 88.86119641446598,57.14285714285715 L 88.8925916329826,57.14285714285715 L 90.38015514595142,57.14285714285715 L 90.4097942392314,57.14285714285715 L 90.44102818094058,57.14285714285715 L 91.9333941588423,57.14285714285715 L 91.96159968050051,57.14285714285715 L 91.99505565822344,57.14285714285715 L 93.48267293012807,57.14285714285715 L 93.50847721931983,57.14285714285715 L 93.54469282241465,57.14285714285715 L 95.02637869173422,57.14285714285715 L 95.0519141862469,57.14285714285715 L 95.08252094037157,57.14285714285715 L 96.57433140926986,57.14285714285715 L 96.60011777881634,57.14285714285715 L 96.63128004194445,57.14285714285715 L 98.12429112707596,57.14285714285715 L 98.14575886211188,57.14285714285715 L 98.17652689304398,57.14285714285715 L 99.67242304106432,57.14285714285715 L 99.69747470515463,57.14285714285715 L 99.71824357402494,57.14285714285715 L 101.21860171371802,57.14285714285715 L 101.24247068122038,57.14285714285715 L 101.2726652835038,57.14285714285715 L 102.76297050219922,57.14285714285715 L 102.79886355167915,57.14285714285715 L 102.83138770784792,57.14285714285715 L 104.3178222831646,57.14285714285715 L 104.34448671532941,57.14285714285715 L 104.3757206570386,57.14285714285715 L 105.86640218828477,57.14285714285715 L 105.8924752721556,57.14285714285715 L 105.91765237376282,57.14285714285715 L 107.41634398644558,57.14285714285715 L 107.4387077037451,57.14285714285715 L 107.46474494832539,57.14285714285715 L 108.96030062308554,57.14285714285715 L 108.98580027830768,57.14285714285715 L 109.0145075500335,57.14285714285715 L 110.51104880528362,57.14285714285715 L 110.53326916542096,57.14285714285715 L 110.56405511599836,57.14285714285715 L 112.0482676553013,57.14285714285715 L 112.08186699018638,57.14285714285715 L 112.11281421757121,57.14285714285715 L 113.60795774049012,57.14285714285715 L 113.63670085150649,57.14285714285715 L 113.66590987329994,57.14285714285715 L 115.1570931546137,57.14285714285715 L 115.18703688186329,57.14285714285715 L 115.22072581497476,57.14285714285715 L 116.70044052331441,57.14285714285715 L 116.7255817856311,57.14285714285715 L 116.75436073593802,57.14285714285715 L 118.24907418737038,57.14285714285715 L 118.26778229703442,57.14285714285715 L 118.30070068539916,57.14285714285715 L 119.79842463723723,57.14285714285715 L 119.8210213099253,57.14285714285715 L 119.85175350156686,57.14285714285715 L 121.34834851575279,57.14285714285715 L 121.37098102773139,57.14285714285715 L 121.39787841528474,57.14285714285715 L 122.89400751869361,40 L 122.9169625842871,40 L 122.94642248111435,40 L 124.44375220075644,40 L 124.46756740932301,40 L 124.50077251201212,40 L 125.9831572474973,40 L 126.01648778770331,40 L 126.04911946174371,40 L 127.54091201099675,40 L 127.55841950442755,40 L 127.58827363345078,40 L 129.08637389783956,40 L 129.11087005292646,40 L 129.1430895751256,40 L 130.62832353420907,40 L 130.66047137782712,40 L 130.6891965691982,40 L 132.18346202949877,40 L 132.20874664897764,40 L 132.23650417950404,40 L 133.72951526463555,40 L 133.7543160536921,40 L 133.7793856374277,40 L 133.81911349099585,40 L 135.2833635454657,40 L 135.3095262275629,40 L 135.33672824908587,40 L 136.8305636378999,40 L 136.85665464141601,40 L 136.88516479704384,40 L 138.37803252501323,40 L 138.40204484967774,40 L 138.42944398729873,40 L 139.92173828661936,40 L 139.95058891550735,40 L 141.48087286280474,40 L 141.49839827588082,40 L 141.52620956534304,40 L 143.02142476684304,40 L 143.04610011838264,40 L 143.07659935463568,40 L 144.56930580579757,40 L 144.5933898090432,40 L 144.62046639304927,40 L 146.1202690237389,40 L 146.1461091522212,40 L 146.1784899512278,40 L 147.67013914331864,40 L 147.6979862720714,40 L 147.72468654352676,40 L 149.22097692374308,40 L 149.23810810462317,40 L 149.2671200103186,40 L 150.76385838166672,40 L 150.78625793825677,40 L 150.81195470957692,40 L 152.31179317955707,40 L 152.33266956629902,40 L 152.36433357949474,40 L 153.85936958454198,40 L 153.88227089119968,40 L 153.9121250202229,40 L 155.40467019457736,40 L 155.42672927790727,40 L 155.45921759478549,40 L 156.95195988523793,40 L 156.9843406842445,40 L 157.01740242977144,40 L 158.5054676928079,40 L 158.5292470620839,40 L 158.55915495004297,40 L 160.05333081211717,40 L 160.076769708133,40 L 160.10667759609206,40 L 161.60232286907856,40 L 161.63310881965597,40 L 161.6694856995582,40 L 163.1509923724251,40 L 163.1733560897246,40 L 163.2019558435788,40 L 164.70089833129538,40 L 164.71987523563848,40 L 164.74981896288807,40 L 166.24406650354337,40 L 166.26639438155235,40 L 166.29490453718017,40 L 166.33391560493743,40 L 167.7964274538159,40 L 167.82622782390334,40 L 167.8558131582475,40 L 169.34086792087822,40 L 169.36815954062757,40 L 169.3966696962554,40 L 170.89179529952904,40 L 170.9071345158819,40 L 170.94313508323344,40 L 172.43840404366927,40 L 172.46384993995557,40 L 172.48476216598806,40 L 173.9878261721172,40 L 174.01187433607228,40 L 174.04113711680154,40 L 175.53692574695023,40 L 175.56262251827036,40 L 175.59079220063802,40 L 177.08380328576953,40 L 177.1042137617344,40 L 177.13573441776794,40 L 178.63485610193723,40 L 178.65689726562186,40 L 178.68780865371616,40 L 180.1820203550809,40 L 180.20769920675573,40 L 180.2386285144953,40 L 181.72938172432254,40 L 181.75416459373378,40 L 181.77271142659038,40 L 183.27461065577683,40 L 183.30966148192897,40 L 183.33333333333334,40" stroke="#22c55e" stroke-width="2" fill="none" stroke-dasharray="15050" stroke-dashoffset="15050">
      <animate attributeName="stroke-dashoffset" values="15050;0" dur="3s" begin="2.6s" fill="freeze"/>
    </path>
    
    <!-- Glow effect for the line that also follows the circle -->
    <path d="M 30,160 L 30.026270199968828,160 L 30.058848115073417,160 L 31.54297105615,160 L 31.5782369180454,160 L 31.60857487749098,160 L 33.09816331037554,160 L 33.12525781402688,160 L 33.15726230048277,160 L 34.647854233502564,160 L 34.674411147795745,160 L 34.70333345526483,160 L 36.19602198678146,160 L 36.223224008304435,160 L 36.25178792286808,160 L 37.74349087389474,160 L 37.77553119964117,160 L 37.80850334694175,160 L 39.29135399320401,160 L 39.32099308648399,160 L 39.354413224916364,160 L 40.8309382363976,160 L 40.87057649173938,160 L 40.90306480861761,160 L 42.387779097988165,160 L 42.41618173574437,160 L 42.447057284548116,160 L 43.93634108346305,160 L 43.96295175669204,160 L 43.99470536811412,160 L 45.482465997180924,160 L 45.510510242031685,160 L 45.542156335582135,160 L 47.03165517024033,160 L 47.05426976257366,160 L 47.08964314234069,160 L 48.582851343570205,160 L 48.61378065130977,160 L 48.65010377227621,160 L 50.133241132862835,160 L 50.15985180609184,160 L 50.191748774676086,160 L 51.67918685012799,57.14285714285715 L 51.70508073754611,57.14285714285715 L 51.738393358106855,57.14285714285715 L 53.22423658512956,57.14285714285715 L 53.249987115385494,57.14285714285715 L 53.28528881657144,57.14285714285715 L 54.76493184633001,57.14285714285715 L 54.80009019035377,57.14285714285715 L 54.835750284445155,57.14285714285715 L 56.32218485976183,57.14285714285715 L 56.344190184155906,57.14285714285715 L 56.37719817074703,57.14285714285715 L 57.8699225415542,57.14285714285715 L 57.895888107553404,57.14285714285715 L 57.92957704066485,57.14285714285715 L 59.412875678058924,57.14285714285715 L 59.45235265659326,57.14285714285715 L 59.48584447360672,57.14285714285715 L 60.96715403037559,57.14285714285715 L 60.999767784770725,57.14285714285715 L 61.032883289233474,57.14285714285715 L 62.51869067696563,57.14285714285715 L 62.54868816315105,57.14285714285715 L 62.58144527470836,57.14285714285715 L 64.0634178583523,57.14285714285715 L 64.09432924644659,57.14285714285715 L 64.1263158132572,57.14285714285715 L 65.61009828107362,57.14285714285715 L 65.6411351066848,57.14285714285715 L 65.67561250418822,57.14285714285715 L 67.16115109724132,57.14285714285715 L 67.19634528055562,57.14285714285715 L 67.23026716905562,57.14285714285715 L 68.7084228682566,57.14285714285715 L 68.73834867586092,57.14285714285715 L 68.76599868851571,57.14285714285715 L 70.26114221143459,57.14285714285715 L 70.29293166214723,57.14285714285715 L 70.32791080971826,57.14285714285715 L 71.80495549091239,57.14285714285715 L 71.83701373630409,57.14285714285715 L 71.87353397336852,57.14285714285715 L 73.35366083354944,57.14285714285715 L 73.38372999831594,57.14285714285715 L 73.41675590455233,57.14285714285715 L 74.90263497086558,57.14285714285715 L 74.92983699238854,57.14285714285715 L 74.96562252399684,57.14285714285715 L 76.45171662605335,57.14285714285715 L 76.48078229068463,57.14285714285715 L 76.51058266077203,57.14285714285715 L 78.00140754918039,57.14285714285715 L 78.02642337398015,57.14285714285715 L 78.05880417298675,57.14285714285715 L 79.54486243575272,57.14285714285715 L 79.56869556396455,57.14285714285715 L 79.59652477307205,57.14285714285715 L 81.09627364482586,57.14285714285715 L 81.12365486280154,57.14285714285715 L 81.15992422483218,57.14285714285715 L 82.64370669264859,57.14285714285715 L 82.67167925891827,57.14285714285715 L 82.70592370103316,57.14285714285715 L 84.18639103447424,57.14285714285715 L 84.21203404685855,57.14285714285715 L 84.24588425677746,57.14285714285715 L 85.73135117124946,57.14285714285715 L 85.76409036316149,57.14285714285715 L 85.79677579613771,57.14285714285715 L 87.28573704143776,57.14285714285715 L 87.31170260743696,57.14285714285715 L 87.34297238843666,57.14285714285715 L 88.83519500917623,57.14285714285715 L 88.86119641446598,57.14285714285715 L 88.8925916329826,57.14285714285715 L 90.38015514595142,57.14285714285715 L 90.4097942392314,57.14285714285715 L 90.44102818094058,57.14285714285715 L 91.9333941588423,57.14285714285715 L 91.96159968050051,57.14285714285715 L 91.99505565822344,57.14285714285715 L 93.48267293012807,57.14285714285715 L 93.50847721931983,57.14285714285715 L 93.54469282241465,57.14285714285715 L 95.02637869173422,57.14285714285715 L 95.0519141862469,57.14285714285715 L 95.08252094037157,57.14285714285715 L 96.57433140926986,57.14285714285715 L 96.60011777881634,57.14285714285715 L 96.63128004194445,57.14285714285715 L 98.12429112707596,57.14285714285715 L 98.14575886211188,57.14285714285715 L 98.17652689304398,57.14285714285715 L 99.67242304106432,57.14285714285715 L 99.69747470515463,57.14285714285715 L 99.71824357402494,57.14285714285715 L 101.21860171371802,57.14285714285715 L 101.24247068122038,57.14285714285715 L 101.2726652835038,57.14285714285715 L 102.76297050219922,57.14285714285715 L 102.79886355167915,57.14285714285715 L 102.83138770784792,57.14285714285715 L 104.3178222831646,57.14285714285715 L 104.34448671532941,57.14285714285715 L 104.3757206570386,57.14285714285715 L 105.86640218828477,57.14285714285715 L 105.8924752721556,57.14285714285715 L 105.91765237376282,57.14285714285715 L 107.41634398644558,57.14285714285715 L 107.4387077037451,57.14285714285715 L 107.46474494832539,57.14285714285715 L 108.96030062308554,57.14285714285715 L 108.98580027830768,57.14285714285715 L 109.0145075500335,57.14285714285715 L 110.51104880528362,57.14285714285715 L 110.53326916542096,57.14285714285715 L 110.56405511599836,57.14285714285715 L 112.0482676553013,57.14285714285715 L 112.08186699018638,57.14285714285715 L 112.11281421757121,57.14285714285715 L 113.60795774049012,57.14285714285715 L 113.63670085150649,57.14285714285715 L 113.66590987329994,57.14285714285715 L 115.1570931546137,57.14285714285715 L 115.18703688186329,57.14285714285715 L 115.22072581497476,57.14285714285715 L 116.70044052331441,57.14285714285715 L 116.7255817856311,57.14285714285715 L 116.75436073593802,57.14285714285715 L 118.24907418737038,57.14285714285715 L 118.26778229703442,57.14285714285715 L 118.30070068539916,57.14285714285715 L 119.79842463723723,57.14285714285715 L 119.8210213099253,57.14285714285715 L 119.85175350156686,57.14285714285715 L 121.34834851575279,57.14285714285715 L 121.37098102773139,57.14285714285715 L 121.39787841528474,57.14285714285715 L 122.89400751869361,40 L 122.9169625842871,40 L 122.94642248111435,40 L 124.44375220075644,40 L 124.46756740932301,40 L 124.50077251201212,40 L 125.9831572474973,40 L 126.01648778770331,40 L 126.04911946174371,40 L 127.54091201099675,40 L 127.55841950442755,40 L 127.58827363345078,40 L 129.08637389783956,40 L 129.11087005292646,40 L 129.1430895751256,40 L 130.62832353420907,40 L 130.66047137782712,40 L 130.6891965691982,40 L 132.18346202949877,40 L 132.20874664897764,40 L 132.23650417950404,40 L 133.72951526463555,40 L 133.7543160536921,40 L 133.7793856374277,40 L 133.81911349099585,40 L 135.2833635454657,40 L 135.3095262275629,40 L 135.33672824908587,40 L 136.8305636378999,40 L 136.85665464141601,40 L 136.88516479704384,40 L 138.37803252501323,40 L 138.40204484967774,40 L 138.42944398729873,40 L 139.92173828661936,40 L 139.95058891550735,40 L 141.48087286280474,40 L 141.49839827588082,40 L 141.52620956534304,40 L 143.02142476684304,40 L 143.04610011838264,40 L 143.07659935463568,40 L 144.56930580579757,40 L 144.5933898090432,40 L 144.62046639304927,40 L 146.1202690237389,40 L 146.1461091522212,40 L 146.1784899512278,40 L 147.67013914331864,40 L 147.6979862720714,40 L 147.72468654352676,40 L 149.22097692374308,40 L 149.23810810462317,40 L 149.2671200103186,40 L 150.76385838166672,40 L 150.78625793825677,40 L 150.81195470957692,40 L 152.31179317955707,40 L 152.33266956629902,40 L 152.36433357949474,40 L 153.85936958454198,40 L 153.88227089119968,40 L 153.9121250202229,40 L 155.40467019457736,40 L 155.42672927790727,40 L 155.45921759478549,40 L 156.95195988523793,40 L 156.9843406842445,40 L 157.01740242977144,40 L 158.5054676928079,40 L 158.5292470620839,40 L 158.55915495004297,40 L 160.05333081211717,40 L 160.076769708133,40 L 160.10667759609206,40 L 161.60232286907856,40 L 161.63310881965597,40 L 161.6694856995582,40 L 163.1509923724251,40 L 163.1733560897246,40 L 163.2019558435788,40 L 164.70089833129538,40 L 164.71987523563848,40 L 164.74981896288807,40 L 166.24406650354337,40 L 166.26639438155235,40 L 166.29490453718017,40 L 166.33391560493743,40 L 167.7964274538159,40 L 167.82622782390334,40 L 167.8558131582475,40 L 169.34086792087822,40 L 169.36815954062757,40 L 169.3966696962554,40 L 170.89179529952904,40 L 170.9071345158819,40 L 170.94313508323344,40 L 172.43840404366927,40 L 172.46384993995557,40 L 172.48476216598806,40 L 173.9878261721172,40 L 174.01187433607228,40 L 174.04113711680154,40 L 175.53692574695023,40 L 175.56262251827036,40 L 175.59079220063802,40 L 177.08380328576953,40 L 177.1042137617344,40 L 177.13573441776794,40 L 178.63485610193723,40 L 178.65689726562186,40 L 178.68780865371616,40 L 180.1820203550809,40 L 180.20769920675573,40 L 180.2386285144953,40 L 181.72938172432254,40 L 181.75416459373378,40 L 181.77271142659038,40 L 183.27461065577683,40 L 183.30966148192897,40 L 183.33333333333334,40" stroke="#22c55e" stroke-width="4" fill="none" opacity="0.4" stroke-dasharray="15050" stroke-dashoffset="15050">
      <animate attributeName="stroke-dashoffset" values="15050;0" dur="3s" begin="2.6s" fill="freeze"/>
    </path>
    
    <!-- Animated circle that moves along the path and draws the line -->
    <circle r="5" fill="#22c55e" opacity="0" filter="url(#trailGlow)">
      <animate attributeName="opacity" values="0;1;1;1" dur="3.2s" begin="2.4s" fill="freeze"/>
      <animate attributeName="r" values="5;6;5" dur="1s" begin="2.4s" repeatCount="3"/>
      <animateMotion dur="3s" begin="2.4s" fill="freeze">
        <mpath href="#path_followersCount_60"/>
      </animateMotion>
    </circle>
    
    <!-- Small trail dots that fade out -->
    <circle r="2" fill="#22c55e" opacity="0">
      <animate attributeName="opacity" values="0;0.6;0" dur="0.8s" begin="2.8s" fill="freeze"/>
      <animateMotion dur="3s" begin="2.4s" fill="freeze">
        <mpath href="#path_followersCount_60"/>
      </animateMotion>
    </circle>
    
    <!-- Hidden path for motion animation -->
    <path id="path_followersCount_60" d="M 30,160 L 30.026270199968828,160 L 30.058848115073417,160 L 31.54297105615,160 L 31.5782369180454,160 L 31.60857487749098,160 L 33.09816331037554,160 L 33.12525781402688,160 L 33.15726230048277,160 L 34.647854233502564,160 L 34.674411147795745,160 L 34.70333345526483,160 L 36.19602198678146,160 L 36.223224008304435,160 L 36.25178792286808,160 L 37.74349087389474,160 L 37.77553119964117,160 L 37.80850334694175,160 L 39.29135399320401,160 L 39.32099308648399,160 L 39.354413224916364,160 L 40.8309382363976,160 L 40.87057649173938,160 L 40.90306480861761,160 L 42.387779097988165,160 L 42.41618173574437,160 L 42.447057284548116,160 L 43.93634108346305,160 L 43.96295175669204,160 L 43.99470536811412,160 L 45.482465997180924,160 L 45.510510242031685,160 L 45.542156335582135,160 L 47.03165517024033,160 L 47.05426976257366,160 L 47.08964314234069,160 L 48.582851343570205,160 L 48.61378065130977,160 L 48.65010377227621,160 L 50.133241132862835,160 L 50.15985180609184,160 L 50.191748774676086,160 L 51.67918685012799,57.14285714285715 L 51.70508073754611,57.14285714285715 L 51.738393358106855,57.14285714285715 L 53.22423658512956,57.14285714285715 L 53.249987115385494,57.14285714285715 L 53.28528881657144,57.14285714285715 L 54.76493184633001,57.14285714285715 L 54.80009019035377,57.14285714285715 L 54.835750284445155,57.14285714285715 L 56.32218485976183,57.14285714285715 L 56.344190184155906,57.14285714285715 L 56.37719817074703,57.14285714285715 L 57.8699225415542,57.14285714285715 L 57.895888107553404,57.14285714285715 L 57.92957704066485,57.14285714285715 L 59.412875678058924,57.14285714285715 L 59.45235265659326,57.14285714285715 L 59.48584447360672,57.14285714285715 L 60.96715403037559,57.14285714285715 L 60.999767784770725,57.14285714285715 L 61.032883289233474,57.14285714285715 L 62.51869067696563,57.14285714285715 L 62.54868816315105,57.14285714285715 L 62.58144527470836,57.14285714285715 L 64.0634178583523,57.14285714285715 L 64.09432924644659,57.14285714285715 L 64.1263158132572,57.14285714285715 L 65.61009828107362,57.14285714285715 L 65.6411351066848,57.14285714285715 L 65.67561250418822,57.14285714285715 L 67.16115109724132,57.14285714285715 L 67.19634528055562,57.14285714285715 L 67.23026716905562,57.14285714285715 L 68.7084228682566,57.14285714285715 L 68.73834867586092,57.14285714285715 L 68.76599868851571,57.14285714285715 L 70.26114221143459,57.14285714285715 L 70.29293166214723,57.14285714285715 L 70.32791080971826,57.14285714285715 L 71.80495549091239,57.14285714285715 L 71.83701373630409,57.14285714285715 L 71.87353397336852,57.14285714285715 L 73.35366083354944,57.14285714285715 L 73.38372999831594,57.14285714285715 L 73.41675590455233,57.14285714285715 L 74.90263497086558,57.14285714285715 L 74.92983699238854,57.14285714285715 L 74.96562252399684,57.14285714285715 L 76.45171662605335,57.14285714285715 L 76.48078229068463,57.14285714285715 L 76.51058266077203,57.14285714285715 L 78.00140754918039,57.14285714285715 L 78.02642337398015,57.14285714285715 L 78.05880417298675,57.14285714285715 L 79.54486243575272,57.14285714285715 L 79.56869556396455,57.14285714285715 L 79.59652477307205,57.14285714285715 L 81.09627364482586,57.14285714285715 L 81.12365486280154,57.14285714285715 L 81.15992422483218,57.14285714285715 L 82.64370669264859,57.14285714285715 L 82.67167925891827,57.14285714285715 L 82.70592370103316,57.14285714285715 L 84.18639103447424,57.14285714285715 L 84.21203404685855,57.14285714285715 L 84.24588425677746,57.14285714285715 L 85.73135117124946,57.14285714285715 L 85.76409036316149,57.14285714285715 L 85.79677579613771,57.14285714285715 L 87.28573704143776,57.14285714285715 L 87.31170260743696,57.14285714285715 L 87.34297238843666,57.14285714285715 L 88.83519500917623,57.14285714285715 L 88.86119641446598,57.14285714285715 L 88.8925916329826,57.14285714285715 L 90.38015514595142,57.14285714285715 L 90.4097942392314,57.14285714285715 L 90.44102818094058,57.14285714285715 L 91.9333941588423,57.14285714285715 L 91.96159968050051,57.14285714285715 L 91.99505565822344,57.14285714285715 L 93.48267293012807,57.14285714285715 L 93.50847721931983,57.14285714285715 L 93.54469282241465,57.14285714285715 L 95.02637869173422,57.14285714285715 L 95.0519141862469,57.14285714285715 L 95.08252094037157,57.14285714285715 L 96.57433140926986,57.14285714285715 L 96.60011777881634,57.14285714285715 L 96.63128004194445,57.14285714285715 L 98.12429112707596,57.14285714285715 L 98.14575886211188,57.14285714285715 L 98.17652689304398,57.14285714285715 L 99.67242304106432,57.14285714285715 L 99.69747470515463,57.14285714285715 L 99.71824357402494,57.14285714285715 L 101.21860171371802,57.14285714285715 L 101.24247068122038,57.14285714285715 L 101.2726652835038,57.14285714285715 L 102.76297050219922,57.14285714285715 L 102.79886355167915,57.14285714285715 L 102.83138770784792,57.14285714285715 L 104.3178222831646,57.14285714285715 L 104.34448671532941,57.14285714285715 L 104.3757206570386,57.14285714285715 L 105.86640218828477,57.14285714285715 L 105.8924752721556,57.14285714285715 L 105.91765237376282,57.14285714285715 L 107.41634398644558,57.14285714285715 L 107.4387077037451,57.14285714285715 L 107.46474494832539,57.14285714285715 L 108.96030062308554,57.14285714285715 L 108.98580027830768,57.14285714285715 L 109.0145075500335,57.14285714285715 L 110.51104880528362,57.14285714285715 L 110.53326916542096,57.14285714285715 L 110.56405511599836,57.14285714285715 L 112.0482676553013,57.14285714285715 L 112.08186699018638,57.14285714285715 L 112.11281421757121,57.14285714285715 L 113.60795774049012,57.14285714285715 L 113.63670085150649,57.14285714285715 L 113.66590987329994,57.14285714285715 L 115.1570931546137,57.14285714285715 L 115.18703688186329,57.14285714285715 L 115.22072581497476,57.14285714285715 L 116.70044052331441,57.14285714285715 L 116.7255817856311,57.14285714285715 L 116.75436073593802,57.14285714285715 L 118.24907418737038,57.14285714285715 L 118.26778229703442,57.14285714285715 L 118.30070068539916,57.14285714285715 L 119.79842463723723,57.14285714285715 L 119.8210213099253,57.14285714285715 L 119.85175350156686,57.14285714285715 L 121.34834851575279,57.14285714285715 L 121.37098102773139,57.14285714285715 L 121.39787841528474,57.14285714285715 L 122.89400751869361,40 L 122.9169625842871,40 L 122.94642248111435,40 L 124.44375220075644,40 L 124.46756740932301,40 L 124.50077251201212,40 L 125.9831572474973,40 L 126.01648778770331,40 L 126.04911946174371,40 L 127.54091201099675,40 L 127.55841950442755,40 L 127.58827363345078,40 L 129.08637389783956,40 L 129.11087005292646,40 L 129.1430895751256,40 L 130.62832353420907,40 L 130.66047137782712,40 L 130.6891965691982,40 L 132.18346202949877,40 L 132.20874664897764,40 L 132.23650417950404,40 L 133.72951526463555,40 L 133.7543160536921,40 L 133.7793856374277,40 L 133.81911349099585,40 L 135.2833635454657,40 L 135.3095262275629,40 L 135.33672824908587,40 L 136.8305636378999,40 L 136.85665464141601,40 L 136.88516479704384,40 L 138.37803252501323,40 L 138.40204484967774,40 L 138.42944398729873,40 L 139.92173828661936,40 L 139.95058891550735,40 L 141.48087286280474,40 L 141.49839827588082,40 L 141.52620956534304,40 L 143.02142476684304,40 L 143.04610011838264,40 L 143.07659935463568,40 L 144.56930580579757,40 L 144.5933898090432,40 L 144.62046639304927,40 L 146.1202690237389,40 L 146.1461091522212,40 L 146.1784899512278,40 L 147.67013914331864,40 L 147.6979862720714,40 L 147.72468654352676,40 L 149.22097692374308,40 L 149.23810810462317,40 L 149.2671200103186,40 L 150.76385838166672,40 L 150.78625793825677,40 L 150.81195470957692,40 L 152.31179317955707,40 L 152.33266956629902,40 L 152.36433357949474,40 L 153.85936958454198,40 L 153.88227089119968,40 L 153.9121250202229,40 L 155.40467019457736,40 L 155.42672927790727,40 L 155.45921759478549,40 L 156.95195988523793,40 L 156.9843406842445,40 L 157.01740242977144,40 L 158.5054676928079,40 L 158.5292470620839,40 L 158.55915495004297,40 L 160.05333081211717,40 L 160.076769708133,40 L 160.10667759609206,40 L 161.60232286907856,40 L 161.63310881965597,40 L 161.6694856995582,40 L 163.1509923724251,40 L 163.1733560897246,40 L 163.2019558435788,40 L 164.70089833129538,40 L 164.71987523563848,40 L 164.74981896288807,40 L 166.24406650354337,40 L 166.26639438155235,40 L 166.29490453718017,40 L 166.33391560493743,40 L 167.7964274538159,40 L 167.82622782390334,40 L 167.8558131582475,40 L 169.34086792087822,40 L 169.36815954062757,40 L 169.3966696962554,40 L 170.89179529952904,40 L 170.9071345158819,40 L 170.94313508323344,40 L 172.43840404366927,40 L 172.46384993995557,40 L 172.48476216598806,40 L 173.9878261721172,40 L 174.01187433607228,40 L 174.04113711680154,40 L 175.53692574695023,40 L 175.56262251827036,40 L 175.59079220063802,40 L 177.08380328576953,40 L 177.1042137617344,40 L 177.13573441776794,40 L 178.63485610193723,40 L 178.65689726562186,40 L 178.68780865371616,40 L 180.1820203550809,40 L 180.20769920675573,40 L 180.2386285144953,40 L 181.72938172432254,40 L 181.75416459373378,40 L 181.77271142659038,40 L 183.27461065577683,40 L 183.30966148192897,40 L 183.33333333333334,40" fill="none" stroke="none"/>
  </g>
  <!-- 🔓 Public Contributions Chart -->
  <g transform="translate(293.33333333333337, 250)">
    <!-- Chart Background -->
    <rect x="0" y="0" width="213.33333333333334" height="200" fill="#ffffff" stroke="#e2e8f0" stroke-width="1" rx="8" filter="url(#shadow)">
      <animate attributeName="opacity" values="0;1" dur="0.5s" begin="2.3s" fill="freeze"/>
    </rect>
    
    <!-- Chart Title -->
    <text x="106.66666666666667" y="25" text-anchor="middle" fill="#1e293b" font-size="14" font-weight="bold" font-family="Arial, sans-serif">
      🔓 Public Contributions
      <animate attributeName="opacity" values="0;1" dur="0.5s" begin="2.5s" fill="freeze"/>
    </text>
    
    <!-- Y-axis labels -->
    <text x="10" y="45" fill="#64748b" font-size="10" font-family="Arial, sans-serif">2,669
      <animate attributeName="opacity" values="0;1" dur="0.5s" begin="2.6999999999999997s" fill="freeze"/>
    </text>
    <text x="10" y="185" fill="#64748b" font-size="10" font-family="Arial, sans-serif">1,491
      <animate attributeName="opacity" values="0;1" dur="0.5s" begin="2.6999999999999997s" fill="freeze"/>
    </text>
    
    <!-- Chart Line with draw animation that follows the circle -->
    <path d="M 30,160 L 30.026270199968828,160 L 30.058848115073417,160 L 31.54297105615,160 L 31.5782369180454,160 L 31.60857487749098,160 L 33.09816331037554,160 L 33.12525781402688,160 L 33.15726230048277,160 L 34.647854233502564,160 L 34.674411147795745,160 L 34.70333345526483,160 L 36.19602198678146,160 L 36.223224008304435,160 L 36.25178792286808,160 L 37.74349087389474,160 L 37.77553119964117,160 L 37.80850334694175,160 L 39.29135399320401,160 L 39.32099308648399,160 L 39.354413224916364,160 L 40.8309382363976,160 L 40.87057649173938,160 L 40.90306480861761,160 L 42.387779097988165,160 L 42.41618173574437,160 L 42.447057284548116,160 L 43.93634108346305,160 L 43.96295175669204,160 L 43.99470536811412,160 L 45.482465997180924,160 L 45.510510242031685,160 L 45.542156335582135,160 L 47.03165517024033,160 L 47.05426976257366,160 L 47.08964314234069,160 L 48.582851343570205,160 L 48.61378065130977,160 L 48.65010377227621,160 L 50.133241132862835,160 L 50.15985180609184,160 L 50.191748774676086,160 L 51.67918685012799,133.3106960950764 L 51.70508073754611,133.3106960950764 L 51.738393358106855,133.3106960950764 L 53.22423658512956,133.3106960950764 L 53.249987115385494,133.3106960950764 L 53.28528881657144,133.3106960950764 L 54.76493184633001,133.3106960950764 L 54.80009019035377,133.3106960950764 L 54.835750284445155,133.3106960950764 L 56.32218485976183,133.3106960950764 L 56.344190184155906,133.3106960950764 L 56.37719817074703,133.3106960950764 L 57.8699225415542,133.3106960950764 L 57.895888107553404,133.3106960950764 L 57.92957704066485,133.3106960950764 L 59.412875678058924,133.3106960950764 L 59.45235265659326,133.3106960950764 L 59.48584447360672,133.3106960950764 L 60.96715403037559,133.3106960950764 L 60.999767784770725,133.3106960950764 L 61.032883289233474,133.3106960950764 L 62.51869067696563,133.3106960950764 L 62.54868816315105,133.3106960950764 L 62.58144527470836,133.3106960950764 L 64.0634178583523,133.3106960950764 L 64.09432924644659,133.3106960950764 L 64.1263158132572,133.3106960950764 L 65.61009828107362,133.3106960950764 L 65.6411351066848,133.3106960950764 L 65.67561250418822,133.3106960950764 L 67.16115109724132,133.3106960950764 L 67.19634528055562,133.3106960950764 L 67.23026716905562,133.3106960950764 L 68.7084228682566,133.3106960950764 L 68.73834867586092,133.3106960950764 L 68.76599868851571,133.3106960950764 L 70.26114221143459,133.3106960950764 L 70.29293166214723,133.3106960950764 L 70.32791080971826,133.3106960950764 L 71.80495549091239,133.3106960950764 L 71.83701373630409,133.3106960950764 L 71.87353397336852,133.3106960950764 L 73.35366083354944,133.3106960950764 L 73.38372999831594,133.3106960950764 L 73.41675590455233,133.3106960950764 L 74.90263497086558,133.3106960950764 L 74.92983699238854,133.3106960950764 L 74.96562252399684,133.3106960950764 L 76.45171662605335,133.3106960950764 L 76.48078229068463,133.3106960950764 L 76.51058266077203,133.3106960950764 L 78.00140754918039,133.3106960950764 L 78.02642337398015,133.3106960950764 L 78.05880417298675,133.3106960950764 L 79.54486243575272,133.3106960950764 L 79.56869556396455,133.3106960950764 L 79.59652477307205,133.3106960950764 L 81.09627364482586,133.3106960950764 L 81.12365486280154,133.3106960950764 L 81.15992422483218,133.3106960950764 L 82.64370669264859,133.3106960950764 L 82.67167925891827,133.3106960950764 L 82.70592370103316,133.3106960950764 L 84.18639103447424,133.3106960950764 L 84.21203404685855,133.3106960950764 L 84.24588425677746,133.3106960950764 L 85.73135117124946,133.3106960950764 L 85.76409036316149,133.3106960950764 L 85.79677579613771,133.3106960950764 L 87.28573704143776,133.3106960950764 L 87.31170260743696,133.3106960950764 L 87.34297238843666,133.3106960950764 L 88.83519500917623,133.3106960950764 L 88.86119641446598,133.3106960950764 L 88.8925916329826,133.3106960950764 L 90.38015514595142,133.3106960950764 L 90.4097942392314,133.3106960950764 L 90.44102818094058,133.3106960950764 L 91.9333941588423,133.3106960950764 L 91.96159968050051,133.3106960950764 L 91.99505565822344,133.3106960950764 L 93.48267293012807,133.3106960950764 L 93.50847721931983,133.3106960950764 L 93.54469282241465,133.3106960950764 L 95.02637869173422,133.3106960950764 L 95.0519141862469,133.3106960950764 L 95.08252094037157,133.3106960950764 L 96.57433140926986,133.3106960950764 L 96.60011777881634,133.3106960950764 L 96.63128004194445,133.3106960950764 L 98.12429112707596,133.3106960950764 L 98.14575886211188,133.3106960950764 L 98.17652689304398,133.3106960950764 L 99.67242304106432,133.3106960950764 L 99.69747470515463,133.3106960950764 L 99.71824357402494,133.3106960950764 L 101.21860171371802,133.3106960950764 L 101.24247068122038,133.3106960950764 L 101.2726652835038,133.3106960950764 L 102.76297050219922,133.3106960950764 L 102.79886355167915,133.3106960950764 L 102.83138770784792,133.3106960950764 L 104.3178222831646,133.3106960950764 L 104.34448671532941,133.3106960950764 L 104.3757206570386,133.3106960950764 L 105.86640218828477,133.3106960950764 L 105.8924752721556,133.3106960950764 L 105.91765237376282,133.3106960950764 L 107.41634398644558,133.3106960950764 L 107.4387077037451,133.3106960950764 L 107.46474494832539,133.3106960950764 L 108.96030062308554,133.3106960950764 L 108.98580027830768,133.3106960950764 L 109.0145075500335,133.3106960950764 L 110.51104880528362,133.3106960950764 L 110.53326916542096,133.3106960950764 L 110.56405511599836,133.3106960950764 L 112.0482676553013,133.3106960950764 L 112.08186699018638,133.3106960950764 L 112.11281421757121,133.3106960950764 L 113.60795774049012,133.3106960950764 L 113.63670085150649,133.3106960950764 L 113.66590987329994,133.3106960950764 L 115.1570931546137,133.3106960950764 L 115.18703688186329,133.3106960950764 L 115.22072581497476,133.3106960950764 L 116.70044052331441,133.3106960950764 L 116.7255817856311,133.3106960950764 L 116.75436073593802,133.3106960950764 L 118.24907418737038,133.3106960950764 L 118.26778229703442,133.3106960950764 L 118.30070068539916,133.3106960950764 L 119.79842463723723,133.3106960950764 L 119.8210213099253,133.3106960950764 L 119.85175350156686,133.3106960950764 L 121.34834851575279,133.3106960950764 L 121.37098102773139,133.3106960950764 L 121.39787841528474,133.3106960950764 L 122.89400751869361,40 L 122.9169625842871,40 L 122.94642248111435,40 L 124.44375220075644,40 L 124.46756740932301,40 L 124.50077251201212,40 L 125.9831572474973,40 L 126.01648778770331,40 L 126.04911946174371,40 L 127.54091201099675,40 L 127.55841950442755,40 L 127.58827363345078,40 L 129.08637389783956,40 L 129.11087005292646,40 L 129.1430895751256,40 L 130.62832353420907,40 L 130.66047137782712,40 L 130.6891965691982,40 L 132.18346202949877,40 L 132.20874664897764,40 L 132.23650417950404,40 L 133.72951526463555,40 L 133.7543160536921,40 L 133.7793856374277,40 L 133.81911349099585,40 L 135.2833635454657,40 L 135.3095262275629,40 L 135.33672824908587,40 L 136.8305636378999,40 L 136.85665464141601,40 L 136.88516479704384,40 L 138.37803252501323,40 L 138.40204484967774,40 L 138.42944398729873,40 L 139.92173828661936,40 L 139.95058891550735,40 L 141.48087286280474,40 L 141.49839827588082,40 L 141.52620956534304,40 L 143.02142476684304,40 L 143.04610011838264,40 L 143.07659935463568,40 L 144.56930580579757,40 L 144.5933898090432,40 L 144.62046639304927,40 L 146.1202690237389,40 L 146.1461091522212,40 L 146.1784899512278,40 L 147.67013914331864,40 L 147.6979862720714,40 L 147.72468654352676,40 L 149.22097692374308,40 L 149.23810810462317,40 L 149.2671200103186,40 L 150.76385838166672,40 L 150.78625793825677,40 L 150.81195470957692,40 L 152.31179317955707,40 L 152.33266956629902,40 L 152.36433357949474,40 L 153.85936958454198,40 L 153.88227089119968,40 L 153.9121250202229,40 L 155.40467019457736,40 L 155.42672927790727,40 L 155.45921759478549,40 L 156.95195988523793,40 L 156.9843406842445,40 L 157.01740242977144,40 L 158.5054676928079,40 L 158.5292470620839,40 L 158.55915495004297,40 L 160.05333081211717,40 L 160.076769708133,40 L 160.10667759609206,40 L 161.60232286907856,40 L 161.63310881965597,40 L 161.6694856995582,40 L 163.1509923724251,40 L 163.1733560897246,40 L 163.2019558435788,40 L 164.70089833129538,40 L 164.71987523563848,40 L 164.74981896288807,40 L 166.24406650354337,40 L 166.26639438155235,40 L 166.29490453718017,40 L 166.33391560493743,40 L 167.7964274538159,40 L 167.82622782390334,40 L 167.8558131582475,40 L 169.34086792087822,40 L 169.36815954062757,40 L 169.3966696962554,40 L 170.89179529952904,40 L 170.9071345158819,40 L 170.94313508323344,40 L 172.43840404366927,40 L 172.46384993995557,40 L 172.48476216598806,40 L 173.9878261721172,40 L 174.01187433607228,40 L 174.04113711680154,40 L 175.53692574695023,40 L 175.56262251827036,40 L 175.59079220063802,40 L 177.08380328576953,40 L 177.1042137617344,40 L 177.13573441776794,40 L 178.63485610193723,40 L 178.65689726562186,40 L 178.68780865371616,40 L 180.1820203550809,40 L 180.20769920675573,40 L 180.2386285144953,40 L 181.72938172432254,40 L 181.75416459373378,40 L 181.77271142659038,40 L 183.27461065577683,40 L 183.30966148192897,40 L 183.33333333333334,40" stroke="#3b82f6" stroke-width="2" fill="none" stroke-dasharray="15050" stroke-dashoffset="15050">
      <animate attributeName="stroke-dashoffset" values="15050;0" dur="3s" begin="3.0999999999999996s" fill="freeze"/>
    </path>
    
    <!-- Glow effect for the line that also follows the circle -->
    <path d="M 30,160 L 30.026270199968828,160 L 30.058848115073417,160 L 31.54297105615,160 L 31.5782369180454,160 L 31.60857487749098,160 L 33.09816331037554,160 L 33.12525781402688,160 L 33.15726230048277,160 L 34.647854233502564,160 L 34.674411147795745,160 L 34.70333345526483,160 L 36.19602198678146,160 L 36.223224008304435,160 L 36.25178792286808,160 L 37.74349087389474,160 L 37.77553119964117,160 L 37.80850334694175,160 L 39.29135399320401,160 L 39.32099308648399,160 L 39.354413224916364,160 L 40.8309382363976,160 L 40.87057649173938,160 L 40.90306480861761,160 L 42.387779097988165,160 L 42.41618173574437,160 L 42.447057284548116,160 L 43.93634108346305,160 L 43.96295175669204,160 L 43.99470536811412,160 L 45.482465997180924,160 L 45.510510242031685,160 L 45.542156335582135,160 L 47.03165517024033,160 L 47.05426976257366,160 L 47.08964314234069,160 L 48.582851343570205,160 L 48.61378065130977,160 L 48.65010377227621,160 L 50.133241132862835,160 L 50.15985180609184,160 L 50.191748774676086,160 L 51.67918685012799,133.3106960950764 L 51.70508073754611,133.3106960950764 L 51.738393358106855,133.3106960950764 L 53.22423658512956,133.3106960950764 L 53.249987115385494,133.3106960950764 L 53.28528881657144,133.3106960950764 L 54.76493184633001,133.3106960950764 L 54.80009019035377,133.3106960950764 L 54.835750284445155,133.3106960950764 L 56.32218485976183,133.3106960950764 L 56.344190184155906,133.3106960950764 L 56.37719817074703,133.3106960950764 L 57.8699225415542,133.3106960950764 L 57.895888107553404,133.3106960950764 L 57.92957704066485,133.3106960950764 L 59.412875678058924,133.3106960950764 L 59.45235265659326,133.3106960950764 L 59.48584447360672,133.3106960950764 L 60.96715403037559,133.3106960950764 L 60.999767784770725,133.3106960950764 L 61.032883289233474,133.3106960950764 L 62.51869067696563,133.3106960950764 L 62.54868816315105,133.3106960950764 L 62.58144527470836,133.3106960950764 L 64.0634178583523,133.3106960950764 L 64.09432924644659,133.3106960950764 L 64.1263158132572,133.3106960950764 L 65.61009828107362,133.3106960950764 L 65.6411351066848,133.3106960950764 L 65.67561250418822,133.3106960950764 L 67.16115109724132,133.3106960950764 L 67.19634528055562,133.3106960950764 L 67.23026716905562,133.3106960950764 L 68.7084228682566,133.3106960950764 L 68.73834867586092,133.3106960950764 L 68.76599868851571,133.3106960950764 L 70.26114221143459,133.3106960950764 L 70.29293166214723,133.3106960950764 L 70.32791080971826,133.3106960950764 L 71.80495549091239,133.3106960950764 L 71.83701373630409,133.3106960950764 L 71.87353397336852,133.3106960950764 L 73.35366083354944,133.3106960950764 L 73.38372999831594,133.3106960950764 L 73.41675590455233,133.3106960950764 L 74.90263497086558,133.3106960950764 L 74.92983699238854,133.3106960950764 L 74.96562252399684,133.3106960950764 L 76.45171662605335,133.3106960950764 L 76.48078229068463,133.3106960950764 L 76.51058266077203,133.3106960950764 L 78.00140754918039,133.3106960950764 L 78.02642337398015,133.3106960950764 L 78.05880417298675,133.3106960950764 L 79.54486243575272,133.3106960950764 L 79.56869556396455,133.3106960950764 L 79.59652477307205,133.3106960950764 L 81.09627364482586,133.3106960950764 L 81.12365486280154,133.3106960950764 L 81.15992422483218,133.3106960950764 L 82.64370669264859,133.3106960950764 L 82.67167925891827,133.3106960950764 L 82.70592370103316,133.3106960950764 L 84.18639103447424,133.3106960950764 L 84.21203404685855,133.3106960950764 L 84.24588425677746,133.3106960950764 L 85.73135117124946,133.3106960950764 L 85.76409036316149,133.3106960950764 L 85.79677579613771,133.3106960950764 L 87.28573704143776,133.3106960950764 L 87.31170260743696,133.3106960950764 L 87.34297238843666,133.3106960950764 L 88.83519500917623,133.3106960950764 L 88.86119641446598,133.3106960950764 L 88.8925916329826,133.3106960950764 L 90.38015514595142,133.3106960950764 L 90.4097942392314,133.3106960950764 L 90.44102818094058,133.3106960950764 L 91.9333941588423,133.3106960950764 L 91.96159968050051,133.3106960950764 L 91.99505565822344,133.3106960950764 L 93.48267293012807,133.3106960950764 L 93.50847721931983,133.3106960950764 L 93.54469282241465,133.3106960950764 L 95.02637869173422,133.3106960950764 L 95.0519141862469,133.3106960950764 L 95.08252094037157,133.3106960950764 L 96.57433140926986,133.3106960950764 L 96.60011777881634,133.3106960950764 L 96.63128004194445,133.3106960950764 L 98.12429112707596,133.3106960950764 L 98.14575886211188,133.3106960950764 L 98.17652689304398,133.3106960950764 L 99.67242304106432,133.3106960950764 L 99.69747470515463,133.3106960950764 L 99.71824357402494,133.3106960950764 L 101.21860171371802,133.3106960950764 L 101.24247068122038,133.3106960950764 L 101.2726652835038,133.3106960950764 L 102.76297050219922,133.3106960950764 L 102.79886355167915,133.3106960950764 L 102.83138770784792,133.3106960950764 L 104.3178222831646,133.3106960950764 L 104.34448671532941,133.3106960950764 L 104.3757206570386,133.3106960950764 L 105.86640218828477,133.3106960950764 L 105.8924752721556,133.3106960950764 L 105.91765237376282,133.3106960950764 L 107.41634398644558,133.3106960950764 L 107.4387077037451,133.3106960950764 L 107.46474494832539,133.3106960950764 L 108.96030062308554,133.3106960950764 L 108.98580027830768,133.3106960950764 L 109.0145075500335,133.3106960950764 L 110.51104880528362,133.3106960950764 L 110.53326916542096,133.3106960950764 L 110.56405511599836,133.3106960950764 L 112.0482676553013,133.3106960950764 L 112.08186699018638,133.3106960950764 L 112.11281421757121,133.3106960950764 L 113.60795774049012,133.3106960950764 L 113.63670085150649,133.3106960950764 L 113.66590987329994,133.3106960950764 L 115.1570931546137,133.3106960950764 L 115.18703688186329,133.3106960950764 L 115.22072581497476,133.3106960950764 L 116.70044052331441,133.3106960950764 L 116.7255817856311,133.3106960950764 L 116.75436073593802,133.3106960950764 L 118.24907418737038,133.3106960950764 L 118.26778229703442,133.3106960950764 L 118.30070068539916,133.3106960950764 L 119.79842463723723,133.3106960950764 L 119.8210213099253,133.3106960950764 L 119.85175350156686,133.3106960950764 L 121.34834851575279,133.3106960950764 L 121.37098102773139,133.3106960950764 L 121.39787841528474,133.3106960950764 L 122.89400751869361,40 L 122.9169625842871,40 L 122.94642248111435,40 L 124.44375220075644,40 L 124.46756740932301,40 L 124.50077251201212,40 L 125.9831572474973,40 L 126.01648778770331,40 L 126.04911946174371,40 L 127.54091201099675,40 L 127.55841950442755,40 L 127.58827363345078,40 L 129.08637389783956,40 L 129.11087005292646,40 L 129.1430895751256,40 L 130.62832353420907,40 L 130.66047137782712,40 L 130.6891965691982,40 L 132.18346202949877,40 L 132.20874664897764,40 L 132.23650417950404,40 L 133.72951526463555,40 L 133.7543160536921,40 L 133.7793856374277,40 L 133.81911349099585,40 L 135.2833635454657,40 L 135.3095262275629,40 L 135.33672824908587,40 L 136.8305636378999,40 L 136.85665464141601,40 L 136.88516479704384,40 L 138.37803252501323,40 L 138.40204484967774,40 L 138.42944398729873,40 L 139.92173828661936,40 L 139.95058891550735,40 L 141.48087286280474,40 L 141.49839827588082,40 L 141.52620956534304,40 L 143.02142476684304,40 L 143.04610011838264,40 L 143.07659935463568,40 L 144.56930580579757,40 L 144.5933898090432,40 L 144.62046639304927,40 L 146.1202690237389,40 L 146.1461091522212,40 L 146.1784899512278,40 L 147.67013914331864,40 L 147.6979862720714,40 L 147.72468654352676,40 L 149.22097692374308,40 L 149.23810810462317,40 L 149.2671200103186,40 L 150.76385838166672,40 L 150.78625793825677,40 L 150.81195470957692,40 L 152.31179317955707,40 L 152.33266956629902,40 L 152.36433357949474,40 L 153.85936958454198,40 L 153.88227089119968,40 L 153.9121250202229,40 L 155.40467019457736,40 L 155.42672927790727,40 L 155.45921759478549,40 L 156.95195988523793,40 L 156.9843406842445,40 L 157.01740242977144,40 L 158.5054676928079,40 L 158.5292470620839,40 L 158.55915495004297,40 L 160.05333081211717,40 L 160.076769708133,40 L 160.10667759609206,40 L 161.60232286907856,40 L 161.63310881965597,40 L 161.6694856995582,40 L 163.1509923724251,40 L 163.1733560897246,40 L 163.2019558435788,40 L 164.70089833129538,40 L 164.71987523563848,40 L 164.74981896288807,40 L 166.24406650354337,40 L 166.26639438155235,40 L 166.29490453718017,40 L 166.33391560493743,40 L 167.7964274538159,40 L 167.82622782390334,40 L 167.8558131582475,40 L 169.34086792087822,40 L 169.36815954062757,40 L 169.3966696962554,40 L 170.89179529952904,40 L 170.9071345158819,40 L 170.94313508323344,40 L 172.43840404366927,40 L 172.46384993995557,40 L 172.48476216598806,40 L 173.9878261721172,40 L 174.01187433607228,40 L 174.04113711680154,40 L 175.53692574695023,40 L 175.56262251827036,40 L 175.59079220063802,40 L 177.08380328576953,40 L 177.1042137617344,40 L 177.13573441776794,40 L 178.63485610193723,40 L 178.65689726562186,40 L 178.68780865371616,40 L 180.1820203550809,40 L 180.20769920675573,40 L 180.2386285144953,40 L 181.72938172432254,40 L 181.75416459373378,40 L 181.77271142659038,40 L 183.27461065577683,40 L 183.30966148192897,40 L 183.33333333333334,40" stroke="#3b82f6" stroke-width="4" fill="none" opacity="0.4" stroke-dasharray="15050" stroke-dashoffset="15050">
      <animate attributeName="stroke-dashoffset" values="15050;0" dur="3s" begin="3.0999999999999996s" fill="freeze"/>
    </path>
    
    <!-- Animated circle that moves along the path and draws the line -->
    <circle r="5" fill="#3b82f6" opacity="0" filter="url(#trailGlow)">
      <animate attributeName="opacity" values="0;1;1;1" dur="3.2s" begin="2.9s" fill="freeze"/>
      <animate attributeName="r" values="5;6;5" dur="1s" begin="2.9s" repeatCount="3"/>
      <animateMotion dur="3s" begin="2.9s" fill="freeze">
        <mpath href="#path_publicContributions_293.33333333333337"/>
      </animateMotion>
    </circle>
    
    <!-- Small trail dots that fade out -->
    <circle r="2" fill="#3b82f6" opacity="0">
      <animate attributeName="opacity" values="0;0.6;0" dur="0.8s" begin="3.3s" fill="freeze"/>
      <animateMotion dur="3s" begin="2.9s" fill="freeze">
        <mpath href="#path_publicContributions_293.33333333333337"/>
      </animateMotion>
    </circle>
    
    <!-- Hidden path for motion animation -->
    <path id="path_publicContributions_293.33333333333337" d="M 30,160 L 30.026270199968828,160 L 30.058848115073417,160 L 31.54297105615,160 L 31.5782369180454,160 L 31.60857487749098,160 L 33.09816331037554,160 L 33.12525781402688,160 L 33.15726230048277,160 L 34.647854233502564,160 L 34.674411147795745,160 L 34.70333345526483,160 L 36.19602198678146,160 L 36.223224008304435,160 L 36.25178792286808,160 L 37.74349087389474,160 L 37.77553119964117,160 L 37.80850334694175,160 L 39.29135399320401,160 L 39.32099308648399,160 L 39.354413224916364,160 L 40.8309382363976,160 L 40.87057649173938,160 L 40.90306480861761,160 L 42.387779097988165,160 L 42.41618173574437,160 L 42.447057284548116,160 L 43.93634108346305,160 L 43.96295175669204,160 L 43.99470536811412,160 L 45.482465997180924,160 L 45.510510242031685,160 L 45.542156335582135,160 L 47.03165517024033,160 L 47.05426976257366,160 L 47.08964314234069,160 L 48.582851343570205,160 L 48.61378065130977,160 L 48.65010377227621,160 L 50.133241132862835,160 L 50.15985180609184,160 L 50.191748774676086,160 L 51.67918685012799,133.3106960950764 L 51.70508073754611,133.3106960950764 L 51.738393358106855,133.3106960950764 L 53.22423658512956,133.3106960950764 L 53.249987115385494,133.3106960950764 L 53.28528881657144,133.3106960950764 L 54.76493184633001,133.3106960950764 L 54.80009019035377,133.3106960950764 L 54.835750284445155,133.3106960950764 L 56.32218485976183,133.3106960950764 L 56.344190184155906,133.3106960950764 L 56.37719817074703,133.3106960950764 L 57.8699225415542,133.3106960950764 L 57.895888107553404,133.3106960950764 L 57.92957704066485,133.3106960950764 L 59.412875678058924,133.3106960950764 L 59.45235265659326,133.3106960950764 L 59.48584447360672,133.3106960950764 L 60.96715403037559,133.3106960950764 L 60.999767784770725,133.3106960950764 L 61.032883289233474,133.3106960950764 L 62.51869067696563,133.3106960950764 L 62.54868816315105,133.3106960950764 L 62.58144527470836,133.3106960950764 L 64.0634178583523,133.3106960950764 L 64.09432924644659,133.3106960950764 L 64.1263158132572,133.3106960950764 L 65.61009828107362,133.3106960950764 L 65.6411351066848,133.3106960950764 L 65.67561250418822,133.3106960950764 L 67.16115109724132,133.3106960950764 L 67.19634528055562,133.3106960950764 L 67.23026716905562,133.3106960950764 L 68.7084228682566,133.3106960950764 L 68.73834867586092,133.3106960950764 L 68.76599868851571,133.3106960950764 L 70.26114221143459,133.3106960950764 L 70.29293166214723,133.3106960950764 L 70.32791080971826,133.3106960950764 L 71.80495549091239,133.3106960950764 L 71.83701373630409,133.3106960950764 L 71.87353397336852,133.3106960950764 L 73.35366083354944,133.3106960950764 L 73.38372999831594,133.3106960950764 L 73.41675590455233,133.3106960950764 L 74.90263497086558,133.3106960950764 L 74.92983699238854,133.3106960950764 L 74.96562252399684,133.3106960950764 L 76.45171662605335,133.3106960950764 L 76.48078229068463,133.3106960950764 L 76.51058266077203,133.3106960950764 L 78.00140754918039,133.3106960950764 L 78.02642337398015,133.3106960950764 L 78.05880417298675,133.3106960950764 L 79.54486243575272,133.3106960950764 L 79.56869556396455,133.3106960950764 L 79.59652477307205,133.3106960950764 L 81.09627364482586,133.3106960950764 L 81.12365486280154,133.3106960950764 L 81.15992422483218,133.3106960950764 L 82.64370669264859,133.3106960950764 L 82.67167925891827,133.3106960950764 L 82.70592370103316,133.3106960950764 L 84.18639103447424,133.3106960950764 L 84.21203404685855,133.3106960950764 L 84.24588425677746,133.3106960950764 L 85.73135117124946,133.3106960950764 L 85.76409036316149,133.3106960950764 L 85.79677579613771,133.3106960950764 L 87.28573704143776,133.3106960950764 L 87.31170260743696,133.3106960950764 L 87.34297238843666,133.3106960950764 L 88.83519500917623,133.3106960950764 L 88.86119641446598,133.3106960950764 L 88.8925916329826,133.3106960950764 L 90.38015514595142,133.3106960950764 L 90.4097942392314,133.3106960950764 L 90.44102818094058,133.3106960950764 L 91.9333941588423,133.3106960950764 L 91.96159968050051,133.3106960950764 L 91.99505565822344,133.3106960950764 L 93.48267293012807,133.3106960950764 L 93.50847721931983,133.3106960950764 L 93.54469282241465,133.3106960950764 L 95.02637869173422,133.3106960950764 L 95.0519141862469,133.3106960950764 L 95.08252094037157,133.3106960950764 L 96.57433140926986,133.3106960950764 L 96.60011777881634,133.3106960950764 L 96.63128004194445,133.3106960950764 L 98.12429112707596,133.3106960950764 L 98.14575886211188,133.3106960950764 L 98.17652689304398,133.3106960950764 L 99.67242304106432,133.3106960950764 L 99.69747470515463,133.3106960950764 L 99.71824357402494,133.3106960950764 L 101.21860171371802,133.3106960950764 L 101.24247068122038,133.3106960950764 L 101.2726652835038,133.3106960950764 L 102.76297050219922,133.3106960950764 L 102.79886355167915,133.3106960950764 L 102.83138770784792,133.3106960950764 L 104.3178222831646,133.3106960950764 L 104.34448671532941,133.3106960950764 L 104.3757206570386,133.3106960950764 L 105.86640218828477,133.3106960950764 L 105.8924752721556,133.3106960950764 L 105.91765237376282,133.3106960950764 L 107.41634398644558,133.3106960950764 L 107.4387077037451,133.3106960950764 L 107.46474494832539,133.3106960950764 L 108.96030062308554,133.3106960950764 L 108.98580027830768,133.3106960950764 L 109.0145075500335,133.3106960950764 L 110.51104880528362,133.3106960950764 L 110.53326916542096,133.3106960950764 L 110.56405511599836,133.3106960950764 L 112.0482676553013,133.3106960950764 L 112.08186699018638,133.3106960950764 L 112.11281421757121,133.3106960950764 L 113.60795774049012,133.3106960950764 L 113.63670085150649,133.3106960950764 L 113.66590987329994,133.3106960950764 L 115.1570931546137,133.3106960950764 L 115.18703688186329,133.3106960950764 L 115.22072581497476,133.3106960950764 L 116.70044052331441,133.3106960950764 L 116.7255817856311,133.3106960950764 L 116.75436073593802,133.3106960950764 L 118.24907418737038,133.3106960950764 L 118.26778229703442,133.3106960950764 L 118.30070068539916,133.3106960950764 L 119.79842463723723,133.3106960950764 L 119.8210213099253,133.3106960950764 L 119.85175350156686,133.3106960950764 L 121.34834851575279,133.3106960950764 L 121.37098102773139,133.3106960950764 L 121.39787841528474,133.3106960950764 L 122.89400751869361,40 L 122.9169625842871,40 L 122.94642248111435,40 L 124.44375220075644,40 L 124.46756740932301,40 L 124.50077251201212,40 L 125.9831572474973,40 L 126.01648778770331,40 L 126.04911946174371,40 L 127.54091201099675,40 L 127.55841950442755,40 L 127.58827363345078,40 L 129.08637389783956,40 L 129.11087005292646,40 L 129.1430895751256,40 L 130.62832353420907,40 L 130.66047137782712,40 L 130.6891965691982,40 L 132.18346202949877,40 L 132.20874664897764,40 L 132.23650417950404,40 L 133.72951526463555,40 L 133.7543160536921,40 L 133.7793856374277,40 L 133.81911349099585,40 L 135.2833635454657,40 L 135.3095262275629,40 L 135.33672824908587,40 L 136.8305636378999,40 L 136.85665464141601,40 L 136.88516479704384,40 L 138.37803252501323,40 L 138.40204484967774,40 L 138.42944398729873,40 L 139.92173828661936,40 L 139.95058891550735,40 L 141.48087286280474,40 L 141.49839827588082,40 L 141.52620956534304,40 L 143.02142476684304,40 L 143.04610011838264,40 L 143.07659935463568,40 L 144.56930580579757,40 L 144.5933898090432,40 L 144.62046639304927,40 L 146.1202690237389,40 L 146.1461091522212,40 L 146.1784899512278,40 L 147.67013914331864,40 L 147.6979862720714,40 L 147.72468654352676,40 L 149.22097692374308,40 L 149.23810810462317,40 L 149.2671200103186,40 L 150.76385838166672,40 L 150.78625793825677,40 L 150.81195470957692,40 L 152.31179317955707,40 L 152.33266956629902,40 L 152.36433357949474,40 L 153.85936958454198,40 L 153.88227089119968,40 L 153.9121250202229,40 L 155.40467019457736,40 L 155.42672927790727,40 L 155.45921759478549,40 L 156.95195988523793,40 L 156.9843406842445,40 L 157.01740242977144,40 L 158.5054676928079,40 L 158.5292470620839,40 L 158.55915495004297,40 L 160.05333081211717,40 L 160.076769708133,40 L 160.10667759609206,40 L 161.60232286907856,40 L 161.63310881965597,40 L 161.6694856995582,40 L 163.1509923724251,40 L 163.1733560897246,40 L 163.2019558435788,40 L 164.70089833129538,40 L 164.71987523563848,40 L 164.74981896288807,40 L 166.24406650354337,40 L 166.26639438155235,40 L 166.29490453718017,40 L 166.33391560493743,40 L 167.7964274538159,40 L 167.82622782390334,40 L 167.8558131582475,40 L 169.34086792087822,40 L 169.36815954062757,40 L 169.3966696962554,40 L 170.89179529952904,40 L 170.9071345158819,40 L 170.94313508323344,40 L 172.43840404366927,40 L 172.46384993995557,40 L 172.48476216598806,40 L 173.9878261721172,40 L 174.01187433607228,40 L 174.04113711680154,40 L 175.53692574695023,40 L 175.56262251827036,40 L 175.59079220063802,40 L 177.08380328576953,40 L 177.1042137617344,40 L 177.13573441776794,40 L 178.63485610193723,40 L 178.65689726562186,40 L 178.68780865371616,40 L 180.1820203550809,40 L 180.20769920675573,40 L 180.2386285144953,40 L 181.72938172432254,40 L 181.75416459373378,40 L 181.77271142659038,40 L 183.27461065577683,40 L 183.30966148192897,40 L 183.33333333333334,40" fill="none" stroke="none"/>
  </g>
  <!-- 📊 Total Contributions Chart -->
  <g transform="translate(526.6666666666667, 250)">
    <!-- Chart Background -->
    <rect x="0" y="0" width="213.33333333333334" height="200" fill="#ffffff" stroke="#e2e8f0" stroke-width="1" rx="8" filter="url(#shadow)">
      <animate attributeName="opacity" values="0;1" dur="0.5s" begin="2.8s" fill="freeze"/>
    </rect>
    
    <!-- Chart Title -->
    <text x="106.66666666666667" y="25" text-anchor="middle" fill="#1e293b" font-size="14" font-weight="bold" font-family="Arial, sans-serif">
      📊 Total Contributions
      <animate attributeName="opacity" values="0;1" dur="0.5s" begin="3s" fill="freeze"/>
    </text>
    
    <!-- Y-axis labels -->
    <text x="10" y="45" fill="#64748b" font-size="10" font-family="Arial, sans-serif">3,802
      <animate attributeName="opacity" values="0;1" dur="0.5s" begin="3.1999999999999997s" fill="freeze"/>
    </text>
    <text x="10" y="185" fill="#64748b" font-size="10" font-family="Arial, sans-serif">2,320
      <animate attributeName="opacity" values="0;1" dur="0.5s" begin="3.1999999999999997s" fill="freeze"/>
    </text>
    
    <!-- Chart Line with draw animation that follows the circle -->
    <path d="M 30,160 L 30.026270199968828,160 L 30.058848115073417,160 L 31.54297105615,160 L 31.5782369180454,160 L 31.60857487749098,160 L 33.09816331037554,160 L 33.12525781402688,160 L 33.15726230048277,160 L 34.647854233502564,160 L 34.674411147795745,160 L 34.70333345526483,160 L 36.19602198678146,160 L 36.223224008304435,160 L 36.25178792286808,160 L 37.74349087389474,160 L 37.77553119964117,160 L 37.80850334694175,160 L 39.29135399320401,160 L 39.32099308648399,160 L 39.354413224916364,160 L 40.8309382363976,160 L 40.87057649173938,160 L 40.90306480861761,160 L 42.387779097988165,160 L 42.41618173574437,160 L 42.447057284548116,160 L 43.93634108346305,160 L 43.96295175669204,160 L 43.99470536811412,160 L 45.482465997180924,160 L 45.510510242031685,160 L 45.542156335582135,160 L 47.03165517024033,160 L 47.05426976257366,160 L 47.08964314234069,160 L 48.582851343570205,160 L 48.61378065130977,160 L 48.65010377227621,160 L 50.133241132862835,160 L 50.15985180609184,160 L 50.191748774676086,160 L 51.67918685012799,137.48987854251013 L 51.70508073754611,137.48987854251013 L 51.738393358106855,137.48987854251013 L 53.22423658512956,137.48987854251013 L 53.249987115385494,137.48987854251013 L 53.28528881657144,137.48987854251013 L 54.76493184633001,137.48987854251013 L 54.80009019035377,137.48987854251013 L 54.835750284445155,137.48987854251013 L 56.32218485976183,137.48987854251013 L 56.344190184155906,137.48987854251013 L 56.37719817074703,137.48987854251013 L 57.8699225415542,137.48987854251013 L 57.895888107553404,137.48987854251013 L 57.92957704066485,137.48987854251013 L 59.412875678058924,137.48987854251013 L 59.45235265659326,137.48987854251013 L 59.48584447360672,137.48987854251013 L 60.96715403037559,137.48987854251013 L 60.999767784770725,137.48987854251013 L 61.032883289233474,137.48987854251013 L 62.51869067696563,137.48987854251013 L 62.54868816315105,137.48987854251013 L 62.58144527470836,137.48987854251013 L 64.0634178583523,137.48987854251013 L 64.09432924644659,137.48987854251013 L 64.1263158132572,137.48987854251013 L 65.61009828107362,137.48987854251013 L 65.6411351066848,137.48987854251013 L 65.67561250418822,137.48987854251013 L 67.16115109724132,137.48987854251013 L 67.19634528055562,137.48987854251013 L 67.23026716905562,137.48987854251013 L 68.7084228682566,137.48987854251013 L 68.73834867586092,137.48987854251013 L 68.76599868851571,137.48987854251013 L 70.26114221143459,137.48987854251013 L 70.29293166214723,137.48987854251013 L 70.32791080971826,137.48987854251013 L 71.80495549091239,137.48987854251013 L 71.83701373630409,137.48987854251013 L 71.87353397336852,137.48987854251013 L 73.35366083354944,137.48987854251013 L 73.38372999831594,137.48987854251013 L 73.41675590455233,137.48987854251013 L 74.90263497086558,137.48987854251013 L 74.92983699238854,137.48987854251013 L 74.96562252399684,137.48987854251013 L 76.45171662605335,137.48987854251013 L 76.48078229068463,137.48987854251013 L 76.51058266077203,137.48987854251013 L 78.00140754918039,137.48987854251013 L 78.02642337398015,137.48987854251013 L 78.05880417298675,137.48987854251013 L 79.54486243575272,137.48987854251013 L 79.56869556396455,137.48987854251013 L 79.59652477307205,137.48987854251013 L 81.09627364482586,137.48987854251013 L 81.12365486280154,137.48987854251013 L 81.15992422483218,137.48987854251013 L 82.64370669264859,137.48987854251013 L 82.67167925891827,137.48987854251013 L 82.70592370103316,137.48987854251013 L 84.18639103447424,137.48987854251013 L 84.21203404685855,137.48987854251013 L 84.24588425677746,137.48987854251013 L 85.73135117124946,137.48987854251013 L 85.76409036316149,137.48987854251013 L 85.79677579613771,137.48987854251013 L 87.28573704143776,137.48987854251013 L 87.31170260743696,137.48987854251013 L 87.34297238843666,137.48987854251013 L 88.83519500917623,137.48987854251013 L 88.86119641446598,137.48987854251013 L 88.8925916329826,137.48987854251013 L 90.38015514595142,137.48987854251013 L 90.4097942392314,137.48987854251013 L 90.44102818094058,137.48987854251013 L 91.9333941588423,137.48987854251013 L 91.96159968050051,137.48987854251013 L 91.99505565822344,137.48987854251013 L 93.48267293012807,137.48987854251013 L 93.50847721931983,137.48987854251013 L 93.54469282241465,137.48987854251013 L 95.02637869173422,137.48987854251013 L 95.0519141862469,137.48987854251013 L 95.08252094037157,137.48987854251013 L 96.57433140926986,137.48987854251013 L 96.60011777881634,137.48987854251013 L 96.63128004194445,137.48987854251013 L 98.12429112707596,137.48987854251013 L 98.14575886211188,137.48987854251013 L 98.17652689304398,137.48987854251013 L 99.67242304106432,137.48987854251013 L 99.69747470515463,137.48987854251013 L 99.71824357402494,137.48987854251013 L 101.21860171371802,137.48987854251013 L 101.24247068122038,137.48987854251013 L 101.2726652835038,137.48987854251013 L 102.76297050219922,137.48987854251013 L 102.79886355167915,137.48987854251013 L 102.83138770784792,137.48987854251013 L 104.3178222831646,137.48987854251013 L 104.34448671532941,137.48987854251013 L 104.3757206570386,137.48987854251013 L 105.86640218828477,137.48987854251013 L 105.8924752721556,137.48987854251013 L 105.91765237376282,137.48987854251013 L 107.41634398644558,137.48987854251013 L 107.4387077037451,137.48987854251013 L 107.46474494832539,137.48987854251013 L 108.96030062308554,137.48987854251013 L 108.98580027830768,137.48987854251013 L 109.0145075500335,137.48987854251013 L 110.51104880528362,137.48987854251013 L 110.53326916542096,137.48987854251013 L 110.56405511599836,137.48987854251013 L 112.0482676553013,137.48987854251013 L 112.08186699018638,137.48987854251013 L 112.11281421757121,137.48987854251013 L 113.60795774049012,137.48987854251013 L 113.63670085150649,137.48987854251013 L 113.66590987329994,137.48987854251013 L 115.1570931546137,137.48987854251013 L 115.18703688186329,137.48987854251013 L 115.22072581497476,137.48987854251013 L 116.70044052331441,137.48987854251013 L 116.7255817856311,137.48987854251013 L 116.75436073593802,137.48987854251013 L 118.24907418737038,137.48987854251013 L 118.26778229703442,137.48987854251013 L 118.30070068539916,137.48987854251013 L 119.79842463723723,137.48987854251013 L 119.8210213099253,137.48987854251013 L 119.85175350156686,137.48987854251013 L 121.34834851575279,137.48987854251013 L 121.37098102773139,137.48987854251013 L 121.39787841528474,137.48987854251013 L 122.89400751869361,40 L 122.9169625842871,40 L 122.94642248111435,40 L 124.44375220075644,40 L 124.46756740932301,40 L 124.50077251201212,40 L 125.9831572474973,40 L 126.01648778770331,40 L 126.04911946174371,40 L 127.54091201099675,40 L 127.55841950442755,40 L 127.58827363345078,40 L 129.08637389783956,40 L 129.11087005292646,40 L 129.1430895751256,40 L 130.62832353420907,40 L 130.66047137782712,40 L 130.6891965691982,40 L 132.18346202949877,40 L 132.20874664897764,40 L 132.23650417950404,40 L 133.72951526463555,40 L 133.7543160536921,40 L 133.7793856374277,40 L 133.81911349099585,40 L 135.2833635454657,40 L 135.3095262275629,40 L 135.33672824908587,40 L 136.8305636378999,40 L 136.85665464141601,40 L 136.88516479704384,40 L 138.37803252501323,40 L 138.40204484967774,40 L 138.42944398729873,40 L 139.92173828661936,40 L 139.95058891550735,40 L 141.48087286280474,40 L 141.49839827588082,40 L 141.52620956534304,40 L 143.02142476684304,40 L 143.04610011838264,40 L 143.07659935463568,40 L 144.56930580579757,40 L 144.5933898090432,40 L 144.62046639304927,40 L 146.1202690237389,40 L 146.1461091522212,40 L 146.1784899512278,40 L 147.67013914331864,40 L 147.6979862720714,40 L 147.72468654352676,40 L 149.22097692374308,40 L 149.23810810462317,40 L 149.2671200103186,40 L 150.76385838166672,40 L 150.78625793825677,40 L 150.81195470957692,40 L 152.31179317955707,40 L 152.33266956629902,40 L 152.36433357949474,40 L 153.85936958454198,40 L 153.88227089119968,40 L 153.9121250202229,40 L 155.40467019457736,40 L 155.42672927790727,40 L 155.45921759478549,40 L 156.95195988523793,40 L 156.9843406842445,40 L 157.01740242977144,40 L 158.5054676928079,40 L 158.5292470620839,40 L 158.55915495004297,40 L 160.05333081211717,40 L 160.076769708133,40 L 160.10667759609206,40 L 161.60232286907856,40 L 161.63310881965597,40 L 161.6694856995582,40 L 163.1509923724251,40 L 163.1733560897246,40 L 163.2019558435788,40 L 164.70089833129538,40 L 164.71987523563848,40 L 164.74981896288807,40 L 166.24406650354337,40 L 166.26639438155235,40 L 166.29490453718017,40 L 166.33391560493743,40 L 167.7964274538159,40 L 167.82622782390334,40 L 167.8558131582475,40 L 169.34086792087822,40 L 169.36815954062757,40 L 169.3966696962554,40 L 170.89179529952904,40 L 170.9071345158819,40 L 170.94313508323344,40 L 172.43840404366927,40 L 172.46384993995557,40 L 172.48476216598806,40 L 173.9878261721172,40 L 174.01187433607228,40 L 174.04113711680154,40 L 175.53692574695023,40 L 175.56262251827036,40 L 175.59079220063802,40 L 177.08380328576953,40 L 177.1042137617344,40 L 177.13573441776794,40 L 178.63485610193723,40 L 178.65689726562186,40 L 178.68780865371616,40 L 180.1820203550809,40 L 180.20769920675573,40 L 180.2386285144953,40 L 181.72938172432254,40 L 181.75416459373378,40 L 181.77271142659038,40 L 183.27461065577683,40 L 183.30966148192897,40 L 183.33333333333334,40" stroke="#f59e0b" stroke-width="2" fill="none" stroke-dasharray="15050" stroke-dashoffset="15050">
      <animate attributeName="stroke-dashoffset" values="15050;0" dur="3s" begin="3.5999999999999996s" fill="freeze"/>
    </path>
    
    <!-- Glow effect for the line that also follows the circle -->
    <path d="M 30,160 L 30.026270199968828,160 L 30.058848115073417,160 L 31.54297105615,160 L 31.5782369180454,160 L 31.60857487749098,160 L 33.09816331037554,160 L 33.12525781402688,160 L 33.15726230048277,160 L 34.647854233502564,160 L 34.674411147795745,160 L 34.70333345526483,160 L 36.19602198678146,160 L 36.223224008304435,160 L 36.25178792286808,160 L 37.74349087389474,160 L 37.77553119964117,160 L 37.80850334694175,160 L 39.29135399320401,160 L 39.32099308648399,160 L 39.354413224916364,160 L 40.8309382363976,160 L 40.87057649173938,160 L 40.90306480861761,160 L 42.387779097988165,160 L 42.41618173574437,160 L 42.447057284548116,160 L 43.93634108346305,160 L 43.96295175669204,160 L 43.99470536811412,160 L 45.482465997180924,160 L 45.510510242031685,160 L 45.542156335582135,160 L 47.03165517024033,160 L 47.05426976257366,160 L 47.08964314234069,160 L 48.582851343570205,160 L 48.61378065130977,160 L 48.65010377227621,160 L 50.133241132862835,160 L 50.15985180609184,160 L 50.191748774676086,160 L 51.67918685012799,137.48987854251013 L 51.70508073754611,137.48987854251013 L 51.738393358106855,137.48987854251013 L 53.22423658512956,137.48987854251013 L 53.249987115385494,137.48987854251013 L 53.28528881657144,137.48987854251013 L 54.76493184633001,137.48987854251013 L 54.80009019035377,137.48987854251013 L 54.835750284445155,137.48987854251013 L 56.32218485976183,137.48987854251013 L 56.344190184155906,137.48987854251013 L 56.37719817074703,137.48987854251013 L 57.8699225415542,137.48987854251013 L 57.895888107553404,137.48987854251013 L 57.92957704066485,137.48987854251013 L 59.412875678058924,137.48987854251013 L 59.45235265659326,137.48987854251013 L 59.48584447360672,137.48987854251013 L 60.96715403037559,137.48987854251013 L 60.999767784770725,137.48987854251013 L 61.032883289233474,137.48987854251013 L 62.51869067696563,137.48987854251013 L 62.54868816315105,137.48987854251013 L 62.58144527470836,137.48987854251013 L 64.0634178583523,137.48987854251013 L 64.09432924644659,137.48987854251013 L 64.1263158132572,137.48987854251013 L 65.61009828107362,137.48987854251013 L 65.6411351066848,137.48987854251013 L 65.67561250418822,137.48987854251013 L 67.16115109724132,137.48987854251013 L 67.19634528055562,137.48987854251013 L 67.23026716905562,137.48987854251013 L 68.7084228682566,137.48987854251013 L 68.73834867586092,137.48987854251013 L 68.76599868851571,137.48987854251013 L 70.26114221143459,137.48987854251013 L 70.29293166214723,137.48987854251013 L 70.32791080971826,137.48987854251013 L 71.80495549091239,137.48987854251013 L 71.83701373630409,137.48987854251013 L 71.87353397336852,137.48987854251013 L 73.35366083354944,137.48987854251013 L 73.38372999831594,137.48987854251013 L 73.41675590455233,137.48987854251013 L 74.90263497086558,137.48987854251013 L 74.92983699238854,137.48987854251013 L 74.96562252399684,137.48987854251013 L 76.45171662605335,137.48987854251013 L 76.48078229068463,137.48987854251013 L 76.51058266077203,137.48987854251013 L 78.00140754918039,137.48987854251013 L 78.02642337398015,137.48987854251013 L 78.05880417298675,137.48987854251013 L 79.54486243575272,137.48987854251013 L 79.56869556396455,137.48987854251013 L 79.59652477307205,137.48987854251013 L 81.09627364482586,137.48987854251013 L 81.12365486280154,137.48987854251013 L 81.15992422483218,137.48987854251013 L 82.64370669264859,137.48987854251013 L 82.67167925891827,137.48987854251013 L 82.70592370103316,137.48987854251013 L 84.18639103447424,137.48987854251013 L 84.21203404685855,137.48987854251013 L 84.24588425677746,137.48987854251013 L 85.73135117124946,137.48987854251013 L 85.76409036316149,137.48987854251013 L 85.79677579613771,137.48987854251013 L 87.28573704143776,137.48987854251013 L 87.31170260743696,137.48987854251013 L 87.34297238843666,137.48987854251013 L 88.83519500917623,137.48987854251013 L 88.86119641446598,137.48987854251013 L 88.8925916329826,137.48987854251013 L 90.38015514595142,137.48987854251013 L 90.4097942392314,137.48987854251013 L 90.44102818094058,137.48987854251013 L 91.9333941588423,137.48987854251013 L 91.96159968050051,137.48987854251013 L 91.99505565822344,137.48987854251013 L 93.48267293012807,137.48987854251013 L 93.50847721931983,137.48987854251013 L 93.54469282241465,137.48987854251013 L 95.02637869173422,137.48987854251013 L 95.0519141862469,137.48987854251013 L 95.08252094037157,137.48987854251013 L 96.57433140926986,137.48987854251013 L 96.60011777881634,137.48987854251013 L 96.63128004194445,137.48987854251013 L 98.12429112707596,137.48987854251013 L 98.14575886211188,137.48987854251013 L 98.17652689304398,137.48987854251013 L 99.67242304106432,137.48987854251013 L 99.69747470515463,137.48987854251013 L 99.71824357402494,137.48987854251013 L 101.21860171371802,137.48987854251013 L 101.24247068122038,137.48987854251013 L 101.2726652835038,137.48987854251013 L 102.76297050219922,137.48987854251013 L 102.79886355167915,137.48987854251013 L 102.83138770784792,137.48987854251013 L 104.3178222831646,137.48987854251013 L 104.34448671532941,137.48987854251013 L 104.3757206570386,137.48987854251013 L 105.86640218828477,137.48987854251013 L 105.8924752721556,137.48987854251013 L 105.91765237376282,137.48987854251013 L 107.41634398644558,137.48987854251013 L 107.4387077037451,137.48987854251013 L 107.46474494832539,137.48987854251013 L 108.96030062308554,137.48987854251013 L 108.98580027830768,137.48987854251013 L 109.0145075500335,137.48987854251013 L 110.51104880528362,137.48987854251013 L 110.53326916542096,137.48987854251013 L 110.56405511599836,137.48987854251013 L 112.0482676553013,137.48987854251013 L 112.08186699018638,137.48987854251013 L 112.11281421757121,137.48987854251013 L 113.60795774049012,137.48987854251013 L 113.63670085150649,137.48987854251013 L 113.66590987329994,137.48987854251013 L 115.1570931546137,137.48987854251013 L 115.18703688186329,137.48987854251013 L 115.22072581497476,137.48987854251013 L 116.70044052331441,137.48987854251013 L 116.7255817856311,137.48987854251013 L 116.75436073593802,137.48987854251013 L 118.24907418737038,137.48987854251013 L 118.26778229703442,137.48987854251013 L 118.30070068539916,137.48987854251013 L 119.79842463723723,137.48987854251013 L 119.8210213099253,137.48987854251013 L 119.85175350156686,137.48987854251013 L 121.34834851575279,137.48987854251013 L 121.37098102773139,137.48987854251013 L 121.39787841528474,137.48987854251013 L 122.89400751869361,40 L 122.9169625842871,40 L 122.94642248111435,40 L 124.44375220075644,40 L 124.46756740932301,40 L 124.50077251201212,40 L 125.9831572474973,40 L 126.01648778770331,40 L 126.04911946174371,40 L 127.54091201099675,40 L 127.55841950442755,40 L 127.58827363345078,40 L 129.08637389783956,40 L 129.11087005292646,40 L 129.1430895751256,40 L 130.62832353420907,40 L 130.66047137782712,40 L 130.6891965691982,40 L 132.18346202949877,40 L 132.20874664897764,40 L 132.23650417950404,40 L 133.72951526463555,40 L 133.7543160536921,40 L 133.7793856374277,40 L 133.81911349099585,40 L 135.2833635454657,40 L 135.3095262275629,40 L 135.33672824908587,40 L 136.8305636378999,40 L 136.85665464141601,40 L 136.88516479704384,40 L 138.37803252501323,40 L 138.40204484967774,40 L 138.42944398729873,40 L 139.92173828661936,40 L 139.95058891550735,40 L 141.48087286280474,40 L 141.49839827588082,40 L 141.52620956534304,40 L 143.02142476684304,40 L 143.04610011838264,40 L 143.07659935463568,40 L 144.56930580579757,40 L 144.5933898090432,40 L 144.62046639304927,40 L 146.1202690237389,40 L 146.1461091522212,40 L 146.1784899512278,40 L 147.67013914331864,40 L 147.6979862720714,40 L 147.72468654352676,40 L 149.22097692374308,40 L 149.23810810462317,40 L 149.2671200103186,40 L 150.76385838166672,40 L 150.78625793825677,40 L 150.81195470957692,40 L 152.31179317955707,40 L 152.33266956629902,40 L 152.36433357949474,40 L 153.85936958454198,40 L 153.88227089119968,40 L 153.9121250202229,40 L 155.40467019457736,40 L 155.42672927790727,40 L 155.45921759478549,40 L 156.95195988523793,40 L 156.9843406842445,40 L 157.01740242977144,40 L 158.5054676928079,40 L 158.5292470620839,40 L 158.55915495004297,40 L 160.05333081211717,40 L 160.076769708133,40 L 160.10667759609206,40 L 161.60232286907856,40 L 161.63310881965597,40 L 161.6694856995582,40 L 163.1509923724251,40 L 163.1733560897246,40 L 163.2019558435788,40 L 164.70089833129538,40 L 164.71987523563848,40 L 164.74981896288807,40 L 166.24406650354337,40 L 166.26639438155235,40 L 166.29490453718017,40 L 166.33391560493743,40 L 167.7964274538159,40 L 167.82622782390334,40 L 167.8558131582475,40 L 169.34086792087822,40 L 169.36815954062757,40 L 169.3966696962554,40 L 170.89179529952904,40 L 170.9071345158819,40 L 170.94313508323344,40 L 172.43840404366927,40 L 172.46384993995557,40 L 172.48476216598806,40 L 173.9878261721172,40 L 174.01187433607228,40 L 174.04113711680154,40 L 175.53692574695023,40 L 175.56262251827036,40 L 175.59079220063802,40 L 177.08380328576953,40 L 177.1042137617344,40 L 177.13573441776794,40 L 178.63485610193723,40 L 178.65689726562186,40 L 178.68780865371616,40 L 180.1820203550809,40 L 180.20769920675573,40 L 180.2386285144953,40 L 181.72938172432254,40 L 181.75416459373378,40 L 181.77271142659038,40 L 183.27461065577683,40 L 183.30966148192897,40 L 183.33333333333334,40" stroke="#f59e0b" stroke-width="4" fill="none" opacity="0.4" stroke-dasharray="15050" stroke-dashoffset="15050">
      <animate attributeName="stroke-dashoffset" values="15050;0" dur="3s" begin="3.5999999999999996s" fill="freeze"/>
    </path>
    
    <!-- Animated circle that moves along the path and draws the line -->
    <circle r="5" fill="#f59e0b" opacity="0" filter="url(#trailGlow)">
      <animate attributeName="opacity" values="0;1;1;1" dur="3.2s" begin="3.4s" fill="freeze"/>
      <animate attributeName="r" values="5;6;5" dur="1s" begin="3.4s" repeatCount="3"/>
      <animateMotion dur="3s" begin="3.4s" fill="freeze">
        <mpath href="#path_totalContributions_526.6666666666667"/>
      </animateMotion>
    </circle>
    
    <!-- Small trail dots that fade out -->
    <circle r="2" fill="#f59e0b" opacity="0">
      <animate attributeName="opacity" values="0;0.6;0" dur="0.8s" begin="3.8s" fill="freeze"/>
      <animateMotion dur="3s" begin="3.4s" fill="freeze">
        <mpath href="#path_totalContributions_526.6666666666667"/>
      </animateMotion>
    </circle>
    
    <!-- Hidden path for motion animation -->
    <path id="path_totalContributions_526.6666666666667" d="M 30,160 L 30.026270199968828,160 L 30.058848115073417,160 L 31.54297105615,160 L 31.5782369180454,160 L 31.60857487749098,160 L 33.09816331037554,160 L 33.12525781402688,160 L 33.15726230048277,160 L 34.647854233502564,160 L 34.674411147795745,160 L 34.70333345526483,160 L 36.19602198678146,160 L 36.223224008304435,160 L 36.25178792286808,160 L 37.74349087389474,160 L 37.77553119964117,160 L 37.80850334694175,160 L 39.29135399320401,160 L 39.32099308648399,160 L 39.354413224916364,160 L 40.8309382363976,160 L 40.87057649173938,160 L 40.90306480861761,160 L 42.387779097988165,160 L 42.41618173574437,160 L 42.447057284548116,160 L 43.93634108346305,160 L 43.96295175669204,160 L 43.99470536811412,160 L 45.482465997180924,160 L 45.510510242031685,160 L 45.542156335582135,160 L 47.03165517024033,160 L 47.05426976257366,160 L 47.08964314234069,160 L 48.582851343570205,160 L 48.61378065130977,160 L 48.65010377227621,160 L 50.133241132862835,160 L 50.15985180609184,160 L 50.191748774676086,160 L 51.67918685012799,137.48987854251013 L 51.70508073754611,137.48987854251013 L 51.738393358106855,137.48987854251013 L 53.22423658512956,137.48987854251013 L 53.249987115385494,137.48987854251013 L 53.28528881657144,137.48987854251013 L 54.76493184633001,137.48987854251013 L 54.80009019035377,137.48987854251013 L 54.835750284445155,137.48987854251013 L 56.32218485976183,137.48987854251013 L 56.344190184155906,137.48987854251013 L 56.37719817074703,137.48987854251013 L 57.8699225415542,137.48987854251013 L 57.895888107553404,137.48987854251013 L 57.92957704066485,137.48987854251013 L 59.412875678058924,137.48987854251013 L 59.45235265659326,137.48987854251013 L 59.48584447360672,137.48987854251013 L 60.96715403037559,137.48987854251013 L 60.999767784770725,137.48987854251013 L 61.032883289233474,137.48987854251013 L 62.51869067696563,137.48987854251013 L 62.54868816315105,137.48987854251013 L 62.58144527470836,137.48987854251013 L 64.0634178583523,137.48987854251013 L 64.09432924644659,137.48987854251013 L 64.1263158132572,137.48987854251013 L 65.61009828107362,137.48987854251013 L 65.6411351066848,137.48987854251013 L 65.67561250418822,137.48987854251013 L 67.16115109724132,137.48987854251013 L 67.19634528055562,137.48987854251013 L 67.23026716905562,137.48987854251013 L 68.7084228682566,137.48987854251013 L 68.73834867586092,137.48987854251013 L 68.76599868851571,137.48987854251013 L 70.26114221143459,137.48987854251013 L 70.29293166214723,137.48987854251013 L 70.32791080971826,137.48987854251013 L 71.80495549091239,137.48987854251013 L 71.83701373630409,137.48987854251013 L 71.87353397336852,137.48987854251013 L 73.35366083354944,137.48987854251013 L 73.38372999831594,137.48987854251013 L 73.41675590455233,137.48987854251013 L 74.90263497086558,137.48987854251013 L 74.92983699238854,137.48987854251013 L 74.96562252399684,137.48987854251013 L 76.45171662605335,137.48987854251013 L 76.48078229068463,137.48987854251013 L 76.51058266077203,137.48987854251013 L 78.00140754918039,137.48987854251013 L 78.02642337398015,137.48987854251013 L 78.05880417298675,137.48987854251013 L 79.54486243575272,137.48987854251013 L 79.56869556396455,137.48987854251013 L 79.59652477307205,137.48987854251013 L 81.09627364482586,137.48987854251013 L 81.12365486280154,137.48987854251013 L 81.15992422483218,137.48987854251013 L 82.64370669264859,137.48987854251013 L 82.67167925891827,137.48987854251013 L 82.70592370103316,137.48987854251013 L 84.18639103447424,137.48987854251013 L 84.21203404685855,137.48987854251013 L 84.24588425677746,137.48987854251013 L 85.73135117124946,137.48987854251013 L 85.76409036316149,137.48987854251013 L 85.79677579613771,137.48987854251013 L 87.28573704143776,137.48987854251013 L 87.31170260743696,137.48987854251013 L 87.34297238843666,137.48987854251013 L 88.83519500917623,137.48987854251013 L 88.86119641446598,137.48987854251013 L 88.8925916329826,137.48987854251013 L 90.38015514595142,137.48987854251013 L 90.4097942392314,137.48987854251013 L 90.44102818094058,137.48987854251013 L 91.9333941588423,137.48987854251013 L 91.96159968050051,137.48987854251013 L 91.99505565822344,137.48987854251013 L 93.48267293012807,137.48987854251013 L 93.50847721931983,137.48987854251013 L 93.54469282241465,137.48987854251013 L 95.02637869173422,137.48987854251013 L 95.0519141862469,137.48987854251013 L 95.08252094037157,137.48987854251013 L 96.57433140926986,137.48987854251013 L 96.60011777881634,137.48987854251013 L 96.63128004194445,137.48987854251013 L 98.12429112707596,137.48987854251013 L 98.14575886211188,137.48987854251013 L 98.17652689304398,137.48987854251013 L 99.67242304106432,137.48987854251013 L 99.69747470515463,137.48987854251013 L 99.71824357402494,137.48987854251013 L 101.21860171371802,137.48987854251013 L 101.24247068122038,137.48987854251013 L 101.2726652835038,137.48987854251013 L 102.76297050219922,137.48987854251013 L 102.79886355167915,137.48987854251013 L 102.83138770784792,137.48987854251013 L 104.3178222831646,137.48987854251013 L 104.34448671532941,137.48987854251013 L 104.3757206570386,137.48987854251013 L 105.86640218828477,137.48987854251013 L 105.8924752721556,137.48987854251013 L 105.91765237376282,137.48987854251013 L 107.41634398644558,137.48987854251013 L 107.4387077037451,137.48987854251013 L 107.46474494832539,137.48987854251013 L 108.96030062308554,137.48987854251013 L 108.98580027830768,137.48987854251013 L 109.0145075500335,137.48987854251013 L 110.51104880528362,137.48987854251013 L 110.53326916542096,137.48987854251013 L 110.56405511599836,137.48987854251013 L 112.0482676553013,137.48987854251013 L 112.08186699018638,137.48987854251013 L 112.11281421757121,137.48987854251013 L 113.60795774049012,137.48987854251013 L 113.63670085150649,137.48987854251013 L 113.66590987329994,137.48987854251013 L 115.1570931546137,137.48987854251013 L 115.18703688186329,137.48987854251013 L 115.22072581497476,137.48987854251013 L 116.70044052331441,137.48987854251013 L 116.7255817856311,137.48987854251013 L 116.75436073593802,137.48987854251013 L 118.24907418737038,137.48987854251013 L 118.26778229703442,137.48987854251013 L 118.30070068539916,137.48987854251013 L 119.79842463723723,137.48987854251013 L 119.8210213099253,137.48987854251013 L 119.85175350156686,137.48987854251013 L 121.34834851575279,137.48987854251013 L 121.37098102773139,137.48987854251013 L 121.39787841528474,137.48987854251013 L 122.89400751869361,40 L 122.9169625842871,40 L 122.94642248111435,40 L 124.44375220075644,40 L 124.46756740932301,40 L 124.50077251201212,40 L 125.9831572474973,40 L 126.01648778770331,40 L 126.04911946174371,40 L 127.54091201099675,40 L 127.55841950442755,40 L 127.58827363345078,40 L 129.08637389783956,40 L 129.11087005292646,40 L 129.1430895751256,40 L 130.62832353420907,40 L 130.66047137782712,40 L 130.6891965691982,40 L 132.18346202949877,40 L 132.20874664897764,40 L 132.23650417950404,40 L 133.72951526463555,40 L 133.7543160536921,40 L 133.7793856374277,40 L 133.81911349099585,40 L 135.2833635454657,40 L 135.3095262275629,40 L 135.33672824908587,40 L 136.8305636378999,40 L 136.85665464141601,40 L 136.88516479704384,40 L 138.37803252501323,40 L 138.40204484967774,40 L 138.42944398729873,40 L 139.92173828661936,40 L 139.95058891550735,40 L 141.48087286280474,40 L 141.49839827588082,40 L 141.52620956534304,40 L 143.02142476684304,40 L 143.04610011838264,40 L 143.07659935463568,40 L 144.56930580579757,40 L 144.5933898090432,40 L 144.62046639304927,40 L 146.1202690237389,40 L 146.1461091522212,40 L 146.1784899512278,40 L 147.67013914331864,40 L 147.6979862720714,40 L 147.72468654352676,40 L 149.22097692374308,40 L 149.23810810462317,40 L 149.2671200103186,40 L 150.76385838166672,40 L 150.78625793825677,40 L 150.81195470957692,40 L 152.31179317955707,40 L 152.33266956629902,40 L 152.36433357949474,40 L 153.85936958454198,40 L 153.88227089119968,40 L 153.9121250202229,40 L 155.40467019457736,40 L 155.42672927790727,40 L 155.45921759478549,40 L 156.95195988523793,40 L 156.9843406842445,40 L 157.01740242977144,40 L 158.5054676928079,40 L 158.5292470620839,40 L 158.55915495004297,40 L 160.05333081211717,40 L 160.076769708133,40 L 160.10667759609206,40 L 161.60232286907856,40 L 161.63310881965597,40 L 161.6694856995582,40 L 163.1509923724251,40 L 163.1733560897246,40 L 163.2019558435788,40 L 164.70089833129538,40 L 164.71987523563848,40 L 164.74981896288807,40 L 166.24406650354337,40 L 166.26639438155235,40 L 166.29490453718017,40 L 166.33391560493743,40 L 167.7964274538159,40 L 167.82622782390334,40 L 167.8558131582475,40 L 169.34086792087822,40 L 169.36815954062757,40 L 169.3966696962554,40 L 170.89179529952904,40 L 170.9071345158819,40 L 170.94313508323344,40 L 172.43840404366927,40 L 172.46384993995557,40 L 172.48476216598806,40 L 173.9878261721172,40 L 174.01187433607228,40 L 174.04113711680154,40 L 175.53692574695023,40 L 175.56262251827036,40 L 175.59079220063802,40 L 177.08380328576953,40 L 177.1042137617344,40 L 177.13573441776794,40 L 178.63485610193723,40 L 178.65689726562186,40 L 178.68780865371616,40 L 180.1820203550809,40 L 180.20769920675573,40 L 180.2386285144953,40 L 181.72938172432254,40 L 181.75416459373378,40 L 181.77271142659038,40 L 183.27461065577683,40 L 183.30966148192897,40 L 183.33333333333334,40" fill="none" stroke="none"/>
  </g>
  
  <!-- Footer -->
  <text x="400" y="580" text-anchor="middle" fill="#94a3b8" font-size="12" font-family="Arial, sans-serif">
    Generated by GitHub User Rank Tracker • 10/15/2025
    <animate attributeName="opacity" values="0;1" dur="0.5s" begin="5s" fill="freeze"/>
  </text>
</svg>