<svg width="800" height="600" xmlns="http://www.w3.org/2000/svg">
  <defs>
    <linearGradient id="bgGradient" x1="0%" y1="0%" x2="100%" y2="100%">
      <stop offset="0%" style="stop-color:#f8fafc;stop-opacity:1" />
      <stop offset="100%" style="stop-color:#e2e8f0;stop-opacity:1" />
    </linearGradient>
    <filter id="shadow" x="-20%" y="-20%" width="140%" height="140%">
      <feDropShadow dx="2" dy="2" stdDeviation="3" flood-color="#00000020" flood-opacity="0.1"/>
    </filter>
    <!-- Trail effect filter -->
    <filter id="trailGlow" x="-50%" y="-50%" width="200%" height="200%">
      <feGaussianBlur stdDeviation="3" result="coloredBlur"/>
      <feMerge> 
        <feMergeNode in="coloredBlur"/>
        <feMergeNode in="SourceGraphic"/>
      </feMerge>
    </filter>
  </defs>
  
  <!-- Background -->
  <rect width="800" height="600" fill="url(#bgGradient)" rx="12"/>
  
  <!-- Header -->
  <text x="400" y="40" text-anchor="middle" fill="#0f172a" font-size="24" font-weight="bold" font-family="Arial, sans-serif">
    GitHub Progress Report
    <animate attributeName="opacity" values="0;1" dur="0.8s" begin="0s" fill="freeze"/>
    <animateTransform attributeName="transform" type="translate" values="0,-20;0,0" dur="0.8s" begin="0s" fill="freeze"/>
  </text>
  
  <!-- User Info -->
  <text x="400" y="70" text-anchor="middle" fill="#475569" font-size="16" font-family="Arial, sans-serif">
    @maifeeulasad • BANGLADESH • 100 days analyzed
    <animate attributeName="opacity" values="0;1" dur="0.6s" begin="0.3s" fill="freeze"/>
  </text>
  
  <!-- Progress Cards -->
  <!-- Followers Card -->
  <g transform="translate(60, 100)">
    <rect width="206.66666666666666" height="120" fill="#ffffff" stroke="#e2e8f0" stroke-width="1" rx="8" filter="url(#shadow)">
      <animate attributeName="opacity" values="0;1" dur="0.6s" begin="0.2s" fill="freeze"/>
      <animateTransform attributeName="transform" type="scale" values="0.8;1" dur="0.6s" begin="0.2s" fill="freeze"/>
    </rect>
    <text x="103.33333333333333" y="25" text-anchor="middle" fill="#64748b" font-size="14" font-weight="bold" font-family="Arial, sans-serif">FOLLOWERS
      <animate attributeName="opacity" values="0;1" dur="0.5s" begin="0.4s" fill="freeze"/>
    </text>
    
    <text x="103.33333333333333" y="50" text-anchor="middle" fill="#ef4444" font-size="32" font-weight="bold" font-family="Arial, sans-serif">
      ↘
      <animate attributeName="opacity" values="0;1" dur="0.5s" begin="0.6s" fill="freeze"/>
      <animateTransform attributeName="transform" type="scale" values="0;1.2;1" dur="0.8s" begin="0.6s" fill="freeze"/>
    </text>
    
    <text x="103.33333333333333" y="75" text-anchor="middle" fill="#1e293b" font-size="18" font-weight="bold" font-family="Arial, sans-serif">
      -14
      <animate attributeName="opacity" values="0;1" dur="0.5s" begin="0.8s" fill="freeze"/>
    </text>
    
    <text x="103.33333333333333" y="95" text-anchor="middle" fill="#64748b" font-size="12" font-family="Arial, sans-serif">
      #458 → #472
      <animate attributeName="opacity" values="0;1" dur="0.5s" begin="1s" fill="freeze"/>
    </text>
  </g>
  
  <!-- Public Contributions Card -->
  <g transform="translate(296.66666666666663, 100)">
    <rect width="206.66666666666666" height="120" fill="#ffffff" stroke="#e2e8f0" stroke-width="1" rx="8" filter="url(#shadow)">
      <animate attributeName="opacity" values="0;1" dur="0.6s" begin="0.4s" fill="freeze"/>
      <animateTransform attributeName="transform" type="scale" values="0.8;1" dur="0.6s" begin="0.4s" fill="freeze"/>
    </rect>
    <text x="103.33333333333333" y="25" text-anchor="middle" fill="#64748b" font-size="14" font-weight="bold" font-family="Arial, sans-serif">PUBLIC
      <animate attributeName="opacity" values="0;1" dur="0.5s" begin="0.6s" fill="freeze"/>
    </text>
    
    <text x="103.33333333333333" y="50" text-anchor="middle" fill="#6b7280" font-size="32" font-weight="bold" font-family="Arial, sans-serif">
      →
      <animate attributeName="opacity" values="0;1" dur="0.5s" begin="0.8s" fill="freeze"/>
      <animateTransform attributeName="transform" type="scale" values="0;1.2;1" dur="0.8s" begin="0.8s" fill="freeze"/>
    </text>
    
    <text x="103.33333333333333" y="75" text-anchor="middle" fill="#1e293b" font-size="18" font-weight="bold" font-family="Arial, sans-serif">
      0
      <animate attributeName="opacity" values="0;1" dur="0.5s" begin="1s" fill="freeze"/>
    </text>
    
    <text x="103.33333333333333" y="95" text-anchor="middle" fill="#64748b" font-size="12" font-family="Arial, sans-serif">
      #6 → #6
      <animate attributeName="opacity" values="0;1" dur="0.5s" begin="1.2s" fill="freeze"/>
    </text>
  </g>
  
  <!-- Total Contributions Card -->
  <g transform="translate(533.3333333333333, 100)">
    <rect width="206.66666666666666" height="120" fill="#ffffff" stroke="#e2e8f0" stroke-width="1" rx="8" filter="url(#shadow)">
      <animate attributeName="opacity" values="0;1" dur="0.6s" begin="0.6s" fill="freeze"/>
      <animateTransform attributeName="transform" type="scale" values="0.8;1" dur="0.6s" begin="0.6s" fill="freeze"/>
    </rect>
    <text x="103.33333333333333" y="25" text-anchor="middle" fill="#64748b" font-size="14" font-weight="bold" font-family="Arial, sans-serif">TOTAL
      <animate attributeName="opacity" values="0;1" dur="0.5s" begin="0.8s" fill="freeze"/>
    </text>
    
    <text x="103.33333333333333" y="50" text-anchor="middle" fill="#22c55e" font-size="32" font-weight="bold" font-family="Arial, sans-serif">
      ↗
      <animate attributeName="opacity" values="0;1" dur="0.5s" begin="1s" fill="freeze"/>
      <animateTransform attributeName="transform" type="scale" values="0;1.2;1" dur="0.8s" begin="1s" fill="freeze"/>
    </text>
    
    <text x="103.33333333333333" y="75" text-anchor="middle" fill="#1e293b" font-size="18" font-weight="bold" font-family="Arial, sans-serif">
      +5
      <animate attributeName="opacity" values="0;1" dur="0.5s" begin="1.2s" fill="freeze"/>
    </text>
    
    <text x="103.33333333333333" y="95" text-anchor="middle" fill="#64748b" font-size="12" font-family="Arial, sans-serif">
      #18 → #13
      <animate attributeName="opacity" values="0;1" dur="0.5s" begin="1.4s" fill="freeze"/>
    </text>
  </g>
  
  <!-- Timeline Charts (if we have snapshots) -->
  
  <!-- 👥 Followers Count Chart -->
  <g transform="translate(60, 250)">
    <!-- Chart Background -->
    <rect x="0" y="0" width="213.33333333333334" height="200" fill="#ffffff" stroke="#e2e8f0" stroke-width="1" rx="8" filter="url(#shadow)">
      <animate attributeName="opacity" values="0;1" dur="0.5s" begin="1.8s" fill="freeze"/>
    </rect>
    
    <!-- Chart Title -->
    <text x="106.66666666666667" y="25" text-anchor="middle" fill="#1e293b" font-size="14" font-weight="bold" font-family="Arial, sans-serif">
      👥 Followers Count
      <animate attributeName="opacity" values="0;1" dur="0.5s" begin="2s" fill="freeze"/>
    </text>
    
    <!-- Y-axis labels -->
    <text x="10" y="45" fill="#64748b" font-size="10" font-family="Arial, sans-serif">153
      <animate attributeName="opacity" values="0;1" dur="0.5s" begin="2.2s" fill="freeze"/>
    </text>
    <text x="10" y="185" fill="#64748b" font-size="10" font-family="Arial, sans-serif">149
      <animate attributeName="opacity" values="0;1" dur="0.5s" begin="2.2s" fill="freeze"/>
    </text>
    
    <!-- Chart Line with draw animation that follows the circle -->
    <path d="M 30,160 L 30.025996735626993,160 L 30.053516367551918,160 L 31.54387643398603,160 L 31.573546037155086,160 L 31.60296481034566,160 L 33.09094199198419,160 L 33.118139128222495,160 L 33.148812051305484,160 L 34.64399163661186,160 L 34.67457497755967,160 L 34.70755911973011,160 L 36.19451506502767,160 L 36.217645172329156,160 L 36.26876073865846,160 L 37.74321101788597,160 L 37.76673528658221,160 L 37.79629739118906,160 L 39.28601246624993,160 L 39.31363959673706,160 L 39.34284337280322,160 L 40.833293021372505,160 L 40.85989891551867,160 L 40.890607671455726,160 L 42.382311469917425,160 L 42.41027901251821,160 L 42.43586367032341,160 L 43.92814079445021,160 L 43.95580375779141,160 L 43.984864202441294,160 L 45.4830179146354,160 L 45.51216794142045,160 L 45.54264378380606,160 L 47.02513853877205,160 L 47.05444981340041,130 L 47.08485399007788,130 L 48.57938858401103,130 L 48.600207472225065,130 L 48.628533343366534,130 L 50.12158087385581,130 L 50.141503940718124,130 L 50.17957634816634,130 L 51.67176389015797,130 L 51.70055558840234,130 L 51.72490401274216,130 L 53.213687433597244,130 L 53.246313247226986,130 L 53.278061155932036,130 L 54.76881538376091,130 L 54.783811433188745,130 L 54.82220633632359,130 L 56.31645426742418,130 L 56.346428449852816,130 L 56.38140131542407,130 L 57.864361897492955,130 L 57.890824460222845,130 L 57.92665731429176,130 L 59.4094924813714,130 L 59.439502496654114,130 L 59.472791218084126,130 L 60.96092964756597,130 L 60.982787688548,130 L 61.013818940171674,130 L 62.504555251573514,130 L 62.5294590851514,130 L 62.561583238824184,130 L 64.05543700853002,130 L 64.08481994886651,130 L 64.11045835595283,130 L 65.60225173654969,130 L 65.63507463087682,130 L 65.65798974105388,130 L 67.15223767215447,130 L 67.181118952534,130 L 67.21437184110997,130 L 68.70071862788836,130 L 68.72890116761354,130 L 68.76292446255198,130 L 70.24778418588653,130 L 70.27344050939986,130 L 70.30545716451043,130 L 71.79716096297213,130 L 71.82514642199993,130 L 71.85759307135933,130 L 73.34125239408257,130 L 73.37885897442789,130 L 73.40062743327475,130 L 74.88946460341094,130 L 74.91875796161227,130 L 74.94790798839733,130 L 76.43330520454289,130 L 76.46562643891305,130 L 76.49264441088101,130 L 77.5727182982261,130 L 77.98789566189552,130 L 78.0200198155683,130 L 78.05386394623639,130 L 79.5356957934021,130 L 79.56378875099213,130 L 79.59668331102739,130 L 81.08177594791337,130 L 81.10343690819802,130 L 81.1397714222239,130 L 82.63183354922629,130 L 82.65888735404832,130 L 82.69034859992081,130 L 84.17990242713837,130 L 84.21238490935184,130 L 84.2458527950522,130 L 85.72600049807667,130 L 85.75366346141787,130 L 85.79008755757891,130 L 87.2782976527689,130 L 87.30189358717328,130 L 87.33095403182315,130 L 88.8249690493723,130 L 88.85847276792674,130 L 88.88984443166406,130 L 90.37205252379749,130 L 90.40220587049649,130 L 90.4360679175916,130 L 91.91784601547621,130 L 91.94724687223976,130 L 91.9803922622535,130 L 93.46905026811933,130 L 93.4965340671902,130 L 93.52464494120724,130 L 95.01527375404687,130 L 95.04306213237732,130 L 95.07645835236954,130 L 96.55434858558768,130 L 96.59114892671644,130 L 96.62201893049681,130 L 98.11040818995713,130 L 98.13214081594992,130 L 98.17121654331207,130 L 99.6602328777186,130 L 99.69289452420242,130 L 99.7273119805356,130 L 101.21041589402076,130 L 101.24030049431423,130 L 101.27195882088411,130 L 102.74922197915603,130 L 102.78168654494247,130 L 102.81406152859373,130 L 104.30198496095115,130 L 104.33237122120158,130 L 104.36709325679436,130 L 105.85044800025801,130 L 105.87841554285879,130 L 105.90928554663915,130 L 107.39955603093809,130 L 107.4194790978004,130 L 107.46839094360446,130 L 108.94490161194095,130 L 108.97505495863994,130 L 109.00479622751713,130 L 110.49574753604338,130 L 110.52998582810622,130 L 110.56114249471914,130 L 112.04297434188486,130 L 112.07312768858384,130 L 112.10788555703068,130 L 113.58883949927171,130 L 113.61847326958669,130 L 113.64547332512761,130 L 115.13916584699012,130 L 115.16978502079202,130 L 115.20131793237266,130 L 116.69180341379602,130 L 116.72061302846743,130 L 116.74902848174406,130 L 118.23397778721376,130 L 118.26477612528599,40 L 118.2968644461047,40 L 119.7877440889228,40 L 119.80911838637493,40 L 119.8385909088466,40 L 121.3318534364603,40 L 121.35575395012425,40 L 121.3981621329148,40 L 122.88167812422175,40 L 122.9131572865213,40 L 122.94080233343546,40 L 124.42338667053662,40 L 124.45787579257795,40 L 124.4916482575379,40 L 125.98089750549588,40 L 125.99616230132924,40 L 126.03753133135179,40 L 127.52577725939582,40 L 127.55840307302557,40 L 127.59525716343545,40 L 129.073881970162,40 L 129.1046265589531,40 L 129.14402478200188,40 L 130.61947838114332,40 L 130.6521758604812,40 L 130.69031993363757,40 L 132.17603964546976,40 L 132.2124637416308,40 L 133.71807068747123,40 L 133.7946634130435,40 L 135.26630081322662,40 L 135.30437322067485,40 L 135.34051065400334,40 L 136.8139038640358,40 L 136.85401874416596,40 L 136.88162795822606,40 L 138.36516186596003,40 L 138.3987372502226,40 L 138.4364334127031,40 L 139.9076945679185,40 L 139.94125203575402,40 L 139.97900194751563,40 L 141.45803883206395,40 L 141.4910229742344,40 L 141.52640791762744,40 L 143.01148263808636,40 L 143.05482247508274,40 L 144.59370022592617,40 L 144.63472884383503,40 L 146.11093493291196,40 L 146.144761147153,40 L 147.66296334119866,40 L 147.69177295587008,40 L 147.7392156546573,40 L 149.19908196227877,40 L 149.23204818802213,40 L 149.26734354928004,40 L 150.74892456646728,40 L 150.78791071169422,40 L 150.8270401883375,40 L 152.2941626489079,40 L 152.3257672261967,40 L 152.3641800457586,40 L 153.84088779479242,40 L 153.8768102309965,40 L 153.92376918625382,40 L 155.38408340455112,40 L 155.42496869104377,40 L 155.46454607836287,40 L 156.9392113547148,40 L 156.97210591475005,40 L 157.0096587458143,40 L 158.48715481763767,40 L 158.52044353906768,40 L 158.55882052577547,40 L 160.03312747358672,40 L 160.07171945741894,40 L 160.1133034845659,40 L 161.58266549851564,40 L 161.61339217087973,40 L 161.65042542555994,40 L 163.13200644274718,40 L 163.1595798239532,40 L 163.19724015357963,40 L 164.67611579028465,40 L 164.71146490082361,40 L 164.75050479533172,40 L 166.2251521552566,40 L 166.26266915346676,40 L 166.30256903647248,40 L 167.77728806210553,40 L 167.80443144906272,40 L 167.84325634644637,40 L 169.32397737513597,40 L 169.36054480271326,40 L 169.393152699916,40 L 170.86728048345688,40 L 170.90074836915724,40 L 170.93928660370835,40 L 172.41257231517864,40 L 172.4531709388387,40 L 172.49031169208112,40 L 173.96399156494616,40 L 173.99462865517506,40 L 174.02902819508122,40 L 175.5181161951959,40 L 175.55550777841682,40 L 175.59759346552073,40 L 177.06485925750744,40 L 177.09825547749966,40 L 177.1316516974919,40 L 178.60934485001266,40 L 178.64643185397398,40 L 178.68290969941611,40 L 180.15071298421384,40 L 180.19098911218728,40 L 180.22933026604102,40 L 181.6974560465254,40 L 181.7377142580718,40 L 181.78189616713877,40 L 183.25991181534616,40 L 183.29192847045672,40 L 183.33333333333334,40" stroke="#22c55e" stroke-width="2" fill="none" stroke-dasharray="14800" stroke-dashoffset="14800">
      <animate attributeName="stroke-dashoffset" values="14800;0" dur="3s" begin="2.6s" fill="freeze"/>
    </path>
    
    <!-- Glow effect for the line that also follows the circle -->
    <path d="M 30,160 L 30.025996735626993,160 L 30.053516367551918,160 L 31.54387643398603,160 L 31.573546037155086,160 L 31.60296481034566,160 L 33.09094199198419,160 L 33.118139128222495,160 L 33.148812051305484,160 L 34.64399163661186,160 L 34.67457497755967,160 L 34.70755911973011,160 L 36.19451506502767,160 L 36.217645172329156,160 L 36.26876073865846,160 L 37.74321101788597,160 L 37.76673528658221,160 L 37.79629739118906,160 L 39.28601246624993,160 L 39.31363959673706,160 L 39.34284337280322,160 L 40.833293021372505,160 L 40.85989891551867,160 L 40.890607671455726,160 L 42.382311469917425,160 L 42.41027901251821,160 L 42.43586367032341,160 L 43.92814079445021,160 L 43.95580375779141,160 L 43.984864202441294,160 L 45.4830179146354,160 L 45.51216794142045,160 L 45.54264378380606,160 L 47.02513853877205,160 L 47.05444981340041,130 L 47.08485399007788,130 L 48.57938858401103,130 L 48.600207472225065,130 L 48.628533343366534,130 L 50.12158087385581,130 L 50.141503940718124,130 L 50.17957634816634,130 L 51.67176389015797,130 L 51.70055558840234,130 L 51.72490401274216,130 L 53.213687433597244,130 L 53.246313247226986,130 L 53.278061155932036,130 L 54.76881538376091,130 L 54.783811433188745,130 L 54.82220633632359,130 L 56.31645426742418,130 L 56.346428449852816,130 L 56.38140131542407,130 L 57.864361897492955,130 L 57.890824460222845,130 L 57.92665731429176,130 L 59.4094924813714,130 L 59.439502496654114,130 L 59.472791218084126,130 L 60.96092964756597,130 L 60.982787688548,130 L 61.013818940171674,130 L 62.504555251573514,130 L 62.5294590851514,130 L 62.561583238824184,130 L 64.05543700853002,130 L 64.08481994886651,130 L 64.11045835595283,130 L 65.60225173654969,130 L 65.63507463087682,130 L 65.65798974105388,130 L 67.15223767215447,130 L 67.181118952534,130 L 67.21437184110997,130 L 68.70071862788836,130 L 68.72890116761354,130 L 68.76292446255198,130 L 70.24778418588653,130 L 70.27344050939986,130 L 70.30545716451043,130 L 71.79716096297213,130 L 71.82514642199993,130 L 71.85759307135933,130 L 73.34125239408257,130 L 73.37885897442789,130 L 73.40062743327475,130 L 74.88946460341094,130 L 74.91875796161227,130 L 74.94790798839733,130 L 76.43330520454289,130 L 76.46562643891305,130 L 76.49264441088101,130 L 77.5727182982261,130 L 77.98789566189552,130 L 78.0200198155683,130 L 78.05386394623639,130 L 79.5356957934021,130 L 79.56378875099213,130 L 79.59668331102739,130 L 81.08177594791337,130 L 81.10343690819802,130 L 81.1397714222239,130 L 82.63183354922629,130 L 82.65888735404832,130 L 82.69034859992081,130 L 84.17990242713837,130 L 84.21238490935184,130 L 84.2458527950522,130 L 85.72600049807667,130 L 85.75366346141787,130 L 85.79008755757891,130 L 87.2782976527689,130 L 87.30189358717328,130 L 87.33095403182315,130 L 88.8249690493723,130 L 88.85847276792674,130 L 88.88984443166406,130 L 90.37205252379749,130 L 90.40220587049649,130 L 90.4360679175916,130 L 91.91784601547621,130 L 91.94724687223976,130 L 91.9803922622535,130 L 93.46905026811933,130 L 93.4965340671902,130 L 93.52464494120724,130 L 95.01527375404687,130 L 95.04306213237732,130 L 95.07645835236954,130 L 96.55434858558768,130 L 96.59114892671644,130 L 96.62201893049681,130 L 98.11040818995713,130 L 98.13214081594992,130 L 98.17121654331207,130 L 99.6602328777186,130 L 99.69289452420242,130 L 99.7273119805356,130 L 101.21041589402076,130 L 101.24030049431423,130 L 101.27195882088411,130 L 102.74922197915603,130 L 102.78168654494247,130 L 102.81406152859373,130 L 104.30198496095115,130 L 104.33237122120158,130 L 104.36709325679436,130 L 105.85044800025801,130 L 105.87841554285879,130 L 105.90928554663915,130 L 107.39955603093809,130 L 107.4194790978004,130 L 107.46839094360446,130 L 108.94490161194095,130 L 108.97505495863994,130 L 109.00479622751713,130 L 110.49574753604338,130 L 110.52998582810622,130 L 110.56114249471914,130 L 112.04297434188486,130 L 112.07312768858384,130 L 112.10788555703068,130 L 113.58883949927171,130 L 113.61847326958669,130 L 113.64547332512761,130 L 115.13916584699012,130 L 115.16978502079202,130 L 115.20131793237266,130 L 116.69180341379602,130 L 116.72061302846743,130 L 116.74902848174406,130 L 118.23397778721376,130 L 118.26477612528599,40 L 118.2968644461047,40 L 119.7877440889228,40 L 119.80911838637493,40 L 119.8385909088466,40 L 121.3318534364603,40 L 121.35575395012425,40 L 121.3981621329148,40 L 122.88167812422175,40 L 122.9131572865213,40 L 122.94080233343546,40 L 124.42338667053662,40 L 124.45787579257795,40 L 124.4916482575379,40 L 125.98089750549588,40 L 125.99616230132924,40 L 126.03753133135179,40 L 127.52577725939582,40 L 127.55840307302557,40 L 127.59525716343545,40 L 129.073881970162,40 L 129.1046265589531,40 L 129.14402478200188,40 L 130.61947838114332,40 L 130.6521758604812,40 L 130.69031993363757,40 L 132.17603964546976,40 L 132.2124637416308,40 L 133.71807068747123,40 L 133.7946634130435,40 L 135.26630081322662,40 L 135.30437322067485,40 L 135.34051065400334,40 L 136.8139038640358,40 L 136.85401874416596,40 L 136.88162795822606,40 L 138.36516186596003,40 L 138.3987372502226,40 L 138.4364334127031,40 L 139.9076945679185,40 L 139.94125203575402,40 L 139.97900194751563,40 L 141.45803883206395,40 L 141.4910229742344,40 L 141.52640791762744,40 L 143.01148263808636,40 L 143.05482247508274,40 L 144.59370022592617,40 L 144.63472884383503,40 L 146.11093493291196,40 L 146.144761147153,40 L 147.66296334119866,40 L 147.69177295587008,40 L 147.7392156546573,40 L 149.19908196227877,40 L 149.23204818802213,40 L 149.26734354928004,40 L 150.74892456646728,40 L 150.78791071169422,40 L 150.8270401883375,40 L 152.2941626489079,40 L 152.3257672261967,40 L 152.3641800457586,40 L 153.84088779479242,40 L 153.8768102309965,40 L 153.92376918625382,40 L 155.38408340455112,40 L 155.42496869104377,40 L 155.46454607836287,40 L 156.9392113547148,40 L 156.97210591475005,40 L 157.0096587458143,40 L 158.48715481763767,40 L 158.52044353906768,40 L 158.55882052577547,40 L 160.03312747358672,40 L 160.07171945741894,40 L 160.1133034845659,40 L 161.58266549851564,40 L 161.61339217087973,40 L 161.65042542555994,40 L 163.13200644274718,40 L 163.1595798239532,40 L 163.19724015357963,40 L 164.67611579028465,40 L 164.71146490082361,40 L 164.75050479533172,40 L 166.2251521552566,40 L 166.26266915346676,40 L 166.30256903647248,40 L 167.77728806210553,40 L 167.80443144906272,40 L 167.84325634644637,40 L 169.32397737513597,40 L 169.36054480271326,40 L 169.393152699916,40 L 170.86728048345688,40 L 170.90074836915724,40 L 170.93928660370835,40 L 172.41257231517864,40 L 172.4531709388387,40 L 172.49031169208112,40 L 173.96399156494616,40 L 173.99462865517506,40 L 174.02902819508122,40 L 175.5181161951959,40 L 175.55550777841682,40 L 175.59759346552073,40 L 177.06485925750744,40 L 177.09825547749966,40 L 177.1316516974919,40 L 178.60934485001266,40 L 178.64643185397398,40 L 178.68290969941611,40 L 180.15071298421384,40 L 180.19098911218728,40 L 180.22933026604102,40 L 181.6974560465254,40 L 181.7377142580718,40 L 181.78189616713877,40 L 183.25991181534616,40 L 183.29192847045672,40 L 183.33333333333334,40" stroke="#22c55e" stroke-width="4" fill="none" opacity="0.4" stroke-dasharray="14800" stroke-dashoffset="14800">
      <animate attributeName="stroke-dashoffset" values="14800;0" dur="3s" begin="2.6s" fill="freeze"/>
    </path>
    
    <!-- Animated circle that moves along the path and draws the line -->
    <circle r="5" fill="#22c55e" opacity="0" filter="url(#trailGlow)">
      <animate attributeName="opacity" values="0;1;1;1" dur="3.2s" begin="2.4s" fill="freeze"/>
      <animate attributeName="r" values="5;6;5" dur="1s" begin="2.4s" repeatCount="3"/>
      <animateMotion dur="3s" begin="2.4s" fill="freeze">
        <mpath href="#path_followersCount_60"/>
      </animateMotion>
    </circle>
    
    <!-- Small trail dots that fade out -->
    <circle r="2" fill="#22c55e" opacity="0">
      <animate attributeName="opacity" values="0;0.6;0" dur="0.8s" begin="2.8s" fill="freeze"/>
      <animateMotion dur="3s" begin="2.4s" fill="freeze">
        <mpath href="#path_followersCount_60"/>
      </animateMotion>
    </circle>
    
    <!-- Hidden path for motion animation -->
    <path id="path_followersCount_60" d="M 30,160 L 30.025996735626993,160 L 30.053516367551918,160 L 31.54387643398603,160 L 31.573546037155086,160 L 31.60296481034566,160 L 33.09094199198419,160 L 33.118139128222495,160 L 33.148812051305484,160 L 34.64399163661186,160 L 34.67457497755967,160 L 34.70755911973011,160 L 36.19451506502767,160 L 36.217645172329156,160 L 36.26876073865846,160 L 37.74321101788597,160 L 37.76673528658221,160 L 37.79629739118906,160 L 39.28601246624993,160 L 39.31363959673706,160 L 39.34284337280322,160 L 40.833293021372505,160 L 40.85989891551867,160 L 40.890607671455726,160 L 42.382311469917425,160 L 42.41027901251821,160 L 42.43586367032341,160 L 43.92814079445021,160 L 43.95580375779141,160 L 43.984864202441294,160 L 45.4830179146354,160 L 45.51216794142045,160 L 45.54264378380606,160 L 47.02513853877205,160 L 47.05444981340041,130 L 47.08485399007788,130 L 48.57938858401103,130 L 48.600207472225065,130 L 48.628533343366534,130 L 50.12158087385581,130 L 50.141503940718124,130 L 50.17957634816634,130 L 51.67176389015797,130 L 51.70055558840234,130 L 51.72490401274216,130 L 53.213687433597244,130 L 53.246313247226986,130 L 53.278061155932036,130 L 54.76881538376091,130 L 54.783811433188745,130 L 54.82220633632359,130 L 56.31645426742418,130 L 56.346428449852816,130 L 56.38140131542407,130 L 57.864361897492955,130 L 57.890824460222845,130 L 57.92665731429176,130 L 59.4094924813714,130 L 59.439502496654114,130 L 59.472791218084126,130 L 60.96092964756597,130 L 60.982787688548,130 L 61.013818940171674,130 L 62.504555251573514,130 L 62.5294590851514,130 L 62.561583238824184,130 L 64.05543700853002,130 L 64.08481994886651,130 L 64.11045835595283,130 L 65.60225173654969,130 L 65.63507463087682,130 L 65.65798974105388,130 L 67.15223767215447,130 L 67.181118952534,130 L 67.21437184110997,130 L 68.70071862788836,130 L 68.72890116761354,130 L 68.76292446255198,130 L 70.24778418588653,130 L 70.27344050939986,130 L 70.30545716451043,130 L 71.79716096297213,130 L 71.82514642199993,130 L 71.85759307135933,130 L 73.34125239408257,130 L 73.37885897442789,130 L 73.40062743327475,130 L 74.88946460341094,130 L 74.91875796161227,130 L 74.94790798839733,130 L 76.43330520454289,130 L 76.46562643891305,130 L 76.49264441088101,130 L 77.5727182982261,130 L 77.98789566189552,130 L 78.0200198155683,130 L 78.05386394623639,130 L 79.5356957934021,130 L 79.56378875099213,130 L 79.59668331102739,130 L 81.08177594791337,130 L 81.10343690819802,130 L 81.1397714222239,130 L 82.63183354922629,130 L 82.65888735404832,130 L 82.69034859992081,130 L 84.17990242713837,130 L 84.21238490935184,130 L 84.2458527950522,130 L 85.72600049807667,130 L 85.75366346141787,130 L 85.79008755757891,130 L 87.2782976527689,130 L 87.30189358717328,130 L 87.33095403182315,130 L 88.8249690493723,130 L 88.85847276792674,130 L 88.88984443166406,130 L 90.37205252379749,130 L 90.40220587049649,130 L 90.4360679175916,130 L 91.91784601547621,130 L 91.94724687223976,130 L 91.9803922622535,130 L 93.46905026811933,130 L 93.4965340671902,130 L 93.52464494120724,130 L 95.01527375404687,130 L 95.04306213237732,130 L 95.07645835236954,130 L 96.55434858558768,130 L 96.59114892671644,130 L 96.62201893049681,130 L 98.11040818995713,130 L 98.13214081594992,130 L 98.17121654331207,130 L 99.6602328777186,130 L 99.69289452420242,130 L 99.7273119805356,130 L 101.21041589402076,130 L 101.24030049431423,130 L 101.27195882088411,130 L 102.74922197915603,130 L 102.78168654494247,130 L 102.81406152859373,130 L 104.30198496095115,130 L 104.33237122120158,130 L 104.36709325679436,130 L 105.85044800025801,130 L 105.87841554285879,130 L 105.90928554663915,130 L 107.39955603093809,130 L 107.4194790978004,130 L 107.46839094360446,130 L 108.94490161194095,130 L 108.97505495863994,130 L 109.00479622751713,130 L 110.49574753604338,130 L 110.52998582810622,130 L 110.56114249471914,130 L 112.04297434188486,130 L 112.07312768858384,130 L 112.10788555703068,130 L 113.58883949927171,130 L 113.61847326958669,130 L 113.64547332512761,130 L 115.13916584699012,130 L 115.16978502079202,130 L 115.20131793237266,130 L 116.69180341379602,130 L 116.72061302846743,130 L 116.74902848174406,130 L 118.23397778721376,130 L 118.26477612528599,40 L 118.2968644461047,40 L 119.7877440889228,40 L 119.80911838637493,40 L 119.8385909088466,40 L 121.3318534364603,40 L 121.35575395012425,40 L 121.3981621329148,40 L 122.88167812422175,40 L 122.9131572865213,40 L 122.94080233343546,40 L 124.42338667053662,40 L 124.45787579257795,40 L 124.4916482575379,40 L 125.98089750549588,40 L 125.99616230132924,40 L 126.03753133135179,40 L 127.52577725939582,40 L 127.55840307302557,40 L 127.59525716343545,40 L 129.073881970162,40 L 129.1046265589531,40 L 129.14402478200188,40 L 130.61947838114332,40 L 130.6521758604812,40 L 130.69031993363757,40 L 132.17603964546976,40 L 132.2124637416308,40 L 133.71807068747123,40 L 133.7946634130435,40 L 135.26630081322662,40 L 135.30437322067485,40 L 135.34051065400334,40 L 136.8139038640358,40 L 136.85401874416596,40 L 136.88162795822606,40 L 138.36516186596003,40 L 138.3987372502226,40 L 138.4364334127031,40 L 139.9076945679185,40 L 139.94125203575402,40 L 139.97900194751563,40 L 141.45803883206395,40 L 141.4910229742344,40 L 141.52640791762744,40 L 143.01148263808636,40 L 143.05482247508274,40 L 144.59370022592617,40 L 144.63472884383503,40 L 146.11093493291196,40 L 146.144761147153,40 L 147.66296334119866,40 L 147.69177295587008,40 L 147.7392156546573,40 L 149.19908196227877,40 L 149.23204818802213,40 L 149.26734354928004,40 L 150.74892456646728,40 L 150.78791071169422,40 L 150.8270401883375,40 L 152.2941626489079,40 L 152.3257672261967,40 L 152.3641800457586,40 L 153.84088779479242,40 L 153.8768102309965,40 L 153.92376918625382,40 L 155.38408340455112,40 L 155.42496869104377,40 L 155.46454607836287,40 L 156.9392113547148,40 L 156.97210591475005,40 L 157.0096587458143,40 L 158.48715481763767,40 L 158.52044353906768,40 L 158.55882052577547,40 L 160.03312747358672,40 L 160.07171945741894,40 L 160.1133034845659,40 L 161.58266549851564,40 L 161.61339217087973,40 L 161.65042542555994,40 L 163.13200644274718,40 L 163.1595798239532,40 L 163.19724015357963,40 L 164.67611579028465,40 L 164.71146490082361,40 L 164.75050479533172,40 L 166.2251521552566,40 L 166.26266915346676,40 L 166.30256903647248,40 L 167.77728806210553,40 L 167.80443144906272,40 L 167.84325634644637,40 L 169.32397737513597,40 L 169.36054480271326,40 L 169.393152699916,40 L 170.86728048345688,40 L 170.90074836915724,40 L 170.93928660370835,40 L 172.41257231517864,40 L 172.4531709388387,40 L 172.49031169208112,40 L 173.96399156494616,40 L 173.99462865517506,40 L 174.02902819508122,40 L 175.5181161951959,40 L 175.55550777841682,40 L 175.59759346552073,40 L 177.06485925750744,40 L 177.09825547749966,40 L 177.1316516974919,40 L 178.60934485001266,40 L 178.64643185397398,40 L 178.68290969941611,40 L 180.15071298421384,40 L 180.19098911218728,40 L 180.22933026604102,40 L 181.6974560465254,40 L 181.7377142580718,40 L 181.78189616713877,40 L 183.25991181534616,40 L 183.29192847045672,40 L 183.33333333333334,40" fill="none" stroke="none"/>
  </g>
  <!-- 🔓 Public Contributions Chart -->
  <g transform="translate(293.33333333333337, 250)">
    <!-- Chart Background -->
    <rect x="0" y="0" width="213.33333333333334" height="200" fill="#ffffff" stroke="#e2e8f0" stroke-width="1" rx="8" filter="url(#shadow)">
      <animate attributeName="opacity" values="0;1" dur="0.5s" begin="2.3s" fill="freeze"/>
    </rect>
    
    <!-- Chart Title -->
    <text x="106.66666666666667" y="25" text-anchor="middle" fill="#1e293b" font-size="14" font-weight="bold" font-family="Arial, sans-serif">
      🔓 Public Contributions
      <animate attributeName="opacity" values="0;1" dur="0.5s" begin="2.5s" fill="freeze"/>
    </text>
    
    <!-- Y-axis labels -->
    <text x="10" y="45" fill="#64748b" font-size="10" font-family="Arial, sans-serif">3,861
      <animate attributeName="opacity" values="0;1" dur="0.5s" begin="2.6999999999999997s" fill="freeze"/>
    </text>
    <text x="10" y="185" fill="#64748b" font-size="10" font-family="Arial, sans-serif">3,180
      <animate attributeName="opacity" values="0;1" dur="0.5s" begin="2.6999999999999997s" fill="freeze"/>
    </text>
    
    <!-- Chart Line with draw animation that follows the circle -->
    <path d="M 30,160 L 30.025996735626993,160 L 30.053516367551918,160 L 31.54387643398603,160 L 31.573546037155086,160 L 31.60296481034566,160 L 33.09094199198419,160 L 33.118139128222495,160 L 33.148812051305484,160 L 34.64399163661186,160 L 34.67457497755967,160 L 34.70755911973011,160 L 36.19451506502767,160 L 36.217645172329156,160 L 36.26876073865846,160 L 37.74321101788597,160 L 37.76673528658221,160 L 37.79629739118906,160 L 39.28601246624993,160 L 39.31363959673706,160 L 39.34284337280322,160 L 40.833293021372505,160 L 40.85989891551867,160 L 40.890607671455726,160 L 42.382311469917425,160 L 42.41027901251821,160 L 42.43586367032341,160 L 43.92814079445021,160 L 43.95580375779141,160 L 43.984864202441294,160 L 45.4830179146354,160 L 45.51216794142045,160 L 45.54264378380606,160 L 47.02513853877205,160 L 47.05444981340041,115.24229074889868 L 47.08485399007788,115.24229074889868 L 48.57938858401103,115.24229074889868 L 48.600207472225065,115.24229074889868 L 48.628533343366534,115.24229074889868 L 50.12158087385581,115.24229074889868 L 50.141503940718124,115.24229074889868 L 50.17957634816634,115.24229074889868 L 51.67176389015797,115.24229074889868 L 51.70055558840234,115.24229074889868 L 51.72490401274216,115.24229074889868 L 53.213687433597244,115.24229074889868 L 53.246313247226986,115.24229074889868 L 53.278061155932036,115.24229074889868 L 54.76881538376091,115.24229074889868 L 54.783811433188745,115.24229074889868 L 54.82220633632359,115.24229074889868 L 56.31645426742418,115.24229074889868 L 56.346428449852816,115.24229074889868 L 56.38140131542407,115.24229074889868 L 57.864361897492955,115.24229074889868 L 57.890824460222845,115.24229074889868 L 57.92665731429176,115.24229074889868 L 59.4094924813714,115.24229074889868 L 59.439502496654114,115.24229074889868 L 59.472791218084126,115.24229074889868 L 60.96092964756597,115.24229074889868 L 60.982787688548,115.24229074889868 L 61.013818940171674,115.24229074889868 L 62.504555251573514,115.24229074889868 L 62.5294590851514,115.24229074889868 L 62.561583238824184,115.24229074889868 L 64.05543700853002,115.24229074889868 L 64.08481994886651,115.24229074889868 L 64.11045835595283,115.24229074889868 L 65.60225173654969,115.24229074889868 L 65.63507463087682,115.24229074889868 L 65.65798974105388,115.24229074889868 L 67.15223767215447,115.24229074889868 L 67.181118952534,115.24229074889868 L 67.21437184110997,115.24229074889868 L 68.70071862788836,115.24229074889868 L 68.72890116761354,115.24229074889868 L 68.76292446255198,115.24229074889868 L 70.24778418588653,115.24229074889868 L 70.27344050939986,115.24229074889868 L 70.30545716451043,115.24229074889868 L 71.79716096297213,115.24229074889868 L 71.82514642199993,115.24229074889868 L 71.85759307135933,115.24229074889868 L 73.34125239408257,115.24229074889868 L 73.37885897442789,115.24229074889868 L 73.40062743327475,115.24229074889868 L 74.88946460341094,115.24229074889868 L 74.91875796161227,115.24229074889868 L 74.94790798839733,115.24229074889868 L 76.43330520454289,115.24229074889868 L 76.46562643891305,115.24229074889868 L 76.49264441088101,115.24229074889868 L 77.5727182982261,115.24229074889868 L 77.98789566189552,115.24229074889868 L 78.0200198155683,115.24229074889868 L 78.05386394623639,115.24229074889868 L 79.5356957934021,115.24229074889868 L 79.56378875099213,115.24229074889868 L 79.59668331102739,115.24229074889868 L 81.08177594791337,115.24229074889868 L 81.10343690819802,115.24229074889868 L 81.1397714222239,115.24229074889868 L 82.63183354922629,115.24229074889868 L 82.65888735404832,115.24229074889868 L 82.69034859992081,115.24229074889868 L 84.17990242713837,115.24229074889868 L 84.21238490935184,115.24229074889868 L 84.2458527950522,115.24229074889868 L 85.72600049807667,115.24229074889868 L 85.75366346141787,115.24229074889868 L 85.79008755757891,115.24229074889868 L 87.2782976527689,115.24229074889868 L 87.30189358717328,115.24229074889868 L 87.33095403182315,115.24229074889868 L 88.8249690493723,115.24229074889868 L 88.85847276792674,115.24229074889868 L 88.88984443166406,115.24229074889868 L 90.37205252379749,115.24229074889868 L 90.40220587049649,115.24229074889868 L 90.4360679175916,115.24229074889868 L 91.91784601547621,115.24229074889868 L 91.94724687223976,115.24229074889868 L 91.9803922622535,115.24229074889868 L 93.46905026811933,115.24229074889868 L 93.4965340671902,115.24229074889868 L 93.52464494120724,115.24229074889868 L 95.01527375404687,115.24229074889868 L 95.04306213237732,115.24229074889868 L 95.07645835236954,115.24229074889868 L 96.55434858558768,115.24229074889868 L 96.59114892671644,115.24229074889868 L 96.62201893049681,115.24229074889868 L 98.11040818995713,115.24229074889868 L 98.13214081594992,115.24229074889868 L 98.17121654331207,115.24229074889868 L 99.6602328777186,115.24229074889868 L 99.69289452420242,115.24229074889868 L 99.7273119805356,115.24229074889868 L 101.21041589402076,115.24229074889868 L 101.24030049431423,115.24229074889868 L 101.27195882088411,115.24229074889868 L 102.74922197915603,115.24229074889868 L 102.78168654494247,115.24229074889868 L 102.81406152859373,115.24229074889868 L 104.30198496095115,115.24229074889868 L 104.33237122120158,115.24229074889868 L 104.36709325679436,115.24229074889868 L 105.85044800025801,115.24229074889868 L 105.87841554285879,115.24229074889868 L 105.90928554663915,115.24229074889868 L 107.39955603093809,115.24229074889868 L 107.4194790978004,115.24229074889868 L 107.46839094360446,115.24229074889868 L 108.94490161194095,115.24229074889868 L 108.97505495863994,115.24229074889868 L 109.00479622751713,115.24229074889868 L 110.49574753604338,115.24229074889868 L 110.52998582810622,115.24229074889868 L 110.56114249471914,115.24229074889868 L 112.04297434188486,115.24229074889868 L 112.07312768858384,115.24229074889868 L 112.10788555703068,115.24229074889868 L 113.58883949927171,115.24229074889868 L 113.61847326958669,115.24229074889868 L 113.64547332512761,115.24229074889868 L 115.13916584699012,115.24229074889868 L 115.16978502079202,115.24229074889868 L 115.20131793237266,115.24229074889868 L 116.69180341379602,115.24229074889868 L 116.72061302846743,115.24229074889868 L 116.74902848174406,115.24229074889868 L 118.23397778721376,115.24229074889868 L 118.26477612528599,40 L 118.2968644461047,40 L 119.7877440889228,40 L 119.80911838637493,40 L 119.8385909088466,40 L 121.3318534364603,40 L 121.35575395012425,40 L 121.3981621329148,40 L 122.88167812422175,40 L 122.9131572865213,40 L 122.94080233343546,40 L 124.42338667053662,40 L 124.45787579257795,40 L 124.4916482575379,40 L 125.98089750549588,40 L 125.99616230132924,40 L 126.03753133135179,40 L 127.52577725939582,40 L 127.55840307302557,40 L 127.59525716343545,40 L 129.073881970162,40 L 129.1046265589531,40 L 129.14402478200188,40 L 130.61947838114332,40 L 130.6521758604812,40 L 130.69031993363757,40 L 132.17603964546976,40 L 132.2124637416308,40 L 133.71807068747123,40 L 133.7946634130435,40 L 135.26630081322662,40 L 135.30437322067485,40 L 135.34051065400334,40 L 136.8139038640358,40 L 136.85401874416596,40 L 136.88162795822606,40 L 138.36516186596003,40 L 138.3987372502226,40 L 138.4364334127031,40 L 139.9076945679185,40 L 139.94125203575402,40 L 139.97900194751563,40 L 141.45803883206395,40 L 141.4910229742344,40 L 141.52640791762744,40 L 143.01148263808636,40 L 143.05482247508274,40 L 144.59370022592617,40 L 144.63472884383503,40 L 146.11093493291196,40 L 146.144761147153,40 L 147.66296334119866,40 L 147.69177295587008,40 L 147.7392156546573,40 L 149.19908196227877,40 L 149.23204818802213,40 L 149.26734354928004,40 L 150.74892456646728,40 L 150.78791071169422,40 L 150.8270401883375,40 L 152.2941626489079,40 L 152.3257672261967,40 L 152.3641800457586,40 L 153.84088779479242,40 L 153.8768102309965,40 L 153.92376918625382,40 L 155.38408340455112,40 L 155.42496869104377,40 L 155.46454607836287,40 L 156.9392113547148,40 L 156.97210591475005,40 L 157.0096587458143,40 L 158.48715481763767,40 L 158.52044353906768,40 L 158.55882052577547,40 L 160.03312747358672,40 L 160.07171945741894,40 L 160.1133034845659,40 L 161.58266549851564,40 L 161.61339217087973,40 L 161.65042542555994,40 L 163.13200644274718,40 L 163.1595798239532,40 L 163.19724015357963,40 L 164.67611579028465,40 L 164.71146490082361,40 L 164.75050479533172,40 L 166.2251521552566,40 L 166.26266915346676,40 L 166.30256903647248,40 L 167.77728806210553,40 L 167.80443144906272,40 L 167.84325634644637,40 L 169.32397737513597,40 L 169.36054480271326,40 L 169.393152699916,40 L 170.86728048345688,40 L 170.90074836915724,40 L 170.93928660370835,40 L 172.41257231517864,40 L 172.4531709388387,40 L 172.49031169208112,40 L 173.96399156494616,40 L 173.99462865517506,40 L 174.02902819508122,40 L 175.5181161951959,40 L 175.55550777841682,40 L 175.59759346552073,40 L 177.06485925750744,40 L 177.09825547749966,40 L 177.1316516974919,40 L 178.60934485001266,40 L 178.64643185397398,40 L 178.68290969941611,40 L 180.15071298421384,40 L 180.19098911218728,40 L 180.22933026604102,40 L 181.6974560465254,40 L 181.7377142580718,40 L 181.78189616713877,40 L 183.25991181534616,40 L 183.29192847045672,40 L 183.33333333333334,40" stroke="#3b82f6" stroke-width="2" fill="none" stroke-dasharray="14800" stroke-dashoffset="14800">
      <animate attributeName="stroke-dashoffset" values="14800;0" dur="3s" begin="3.0999999999999996s" fill="freeze"/>
    </path>
    
    <!-- Glow effect for the line that also follows the circle -->
    <path d="M 30,160 L 30.025996735626993,160 L 30.053516367551918,160 L 31.54387643398603,160 L 31.573546037155086,160 L 31.60296481034566,160 L 33.09094199198419,160 L 33.118139128222495,160 L 33.148812051305484,160 L 34.64399163661186,160 L 34.67457497755967,160 L 34.70755911973011,160 L 36.19451506502767,160 L 36.217645172329156,160 L 36.26876073865846,160 L 37.74321101788597,160 L 37.76673528658221,160 L 37.79629739118906,160 L 39.28601246624993,160 L 39.31363959673706,160 L 39.34284337280322,160 L 40.833293021372505,160 L 40.85989891551867,160 L 40.890607671455726,160 L 42.382311469917425,160 L 42.41027901251821,160 L 42.43586367032341,160 L 43.92814079445021,160 L 43.95580375779141,160 L 43.984864202441294,160 L 45.4830179146354,160 L 45.51216794142045,160 L 45.54264378380606,160 L 47.02513853877205,160 L 47.05444981340041,115.24229074889868 L 47.08485399007788,115.24229074889868 L 48.57938858401103,115.24229074889868 L 48.600207472225065,115.24229074889868 L 48.628533343366534,115.24229074889868 L 50.12158087385581,115.24229074889868 L 50.141503940718124,115.24229074889868 L 50.17957634816634,115.24229074889868 L 51.67176389015797,115.24229074889868 L 51.70055558840234,115.24229074889868 L 51.72490401274216,115.24229074889868 L 53.213687433597244,115.24229074889868 L 53.246313247226986,115.24229074889868 L 53.278061155932036,115.24229074889868 L 54.76881538376091,115.24229074889868 L 54.783811433188745,115.24229074889868 L 54.82220633632359,115.24229074889868 L 56.31645426742418,115.24229074889868 L 56.346428449852816,115.24229074889868 L 56.38140131542407,115.24229074889868 L 57.864361897492955,115.24229074889868 L 57.890824460222845,115.24229074889868 L 57.92665731429176,115.24229074889868 L 59.4094924813714,115.24229074889868 L 59.439502496654114,115.24229074889868 L 59.472791218084126,115.24229074889868 L 60.96092964756597,115.24229074889868 L 60.982787688548,115.24229074889868 L 61.013818940171674,115.24229074889868 L 62.504555251573514,115.24229074889868 L 62.5294590851514,115.24229074889868 L 62.561583238824184,115.24229074889868 L 64.05543700853002,115.24229074889868 L 64.08481994886651,115.24229074889868 L 64.11045835595283,115.24229074889868 L 65.60225173654969,115.24229074889868 L 65.63507463087682,115.24229074889868 L 65.65798974105388,115.24229074889868 L 67.15223767215447,115.24229074889868 L 67.181118952534,115.24229074889868 L 67.21437184110997,115.24229074889868 L 68.70071862788836,115.24229074889868 L 68.72890116761354,115.24229074889868 L 68.76292446255198,115.24229074889868 L 70.24778418588653,115.24229074889868 L 70.27344050939986,115.24229074889868 L 70.30545716451043,115.24229074889868 L 71.79716096297213,115.24229074889868 L 71.82514642199993,115.24229074889868 L 71.85759307135933,115.24229074889868 L 73.34125239408257,115.24229074889868 L 73.37885897442789,115.24229074889868 L 73.40062743327475,115.24229074889868 L 74.88946460341094,115.24229074889868 L 74.91875796161227,115.24229074889868 L 74.94790798839733,115.24229074889868 L 76.43330520454289,115.24229074889868 L 76.46562643891305,115.24229074889868 L 76.49264441088101,115.24229074889868 L 77.5727182982261,115.24229074889868 L 77.98789566189552,115.24229074889868 L 78.0200198155683,115.24229074889868 L 78.05386394623639,115.24229074889868 L 79.5356957934021,115.24229074889868 L 79.56378875099213,115.24229074889868 L 79.59668331102739,115.24229074889868 L 81.08177594791337,115.24229074889868 L 81.10343690819802,115.24229074889868 L 81.1397714222239,115.24229074889868 L 82.63183354922629,115.24229074889868 L 82.65888735404832,115.24229074889868 L 82.69034859992081,115.24229074889868 L 84.17990242713837,115.24229074889868 L 84.21238490935184,115.24229074889868 L 84.2458527950522,115.24229074889868 L 85.72600049807667,115.24229074889868 L 85.75366346141787,115.24229074889868 L 85.79008755757891,115.24229074889868 L 87.2782976527689,115.24229074889868 L 87.30189358717328,115.24229074889868 L 87.33095403182315,115.24229074889868 L 88.8249690493723,115.24229074889868 L 88.85847276792674,115.24229074889868 L 88.88984443166406,115.24229074889868 L 90.37205252379749,115.24229074889868 L 90.40220587049649,115.24229074889868 L 90.4360679175916,115.24229074889868 L 91.91784601547621,115.24229074889868 L 91.94724687223976,115.24229074889868 L 91.9803922622535,115.24229074889868 L 93.46905026811933,115.24229074889868 L 93.4965340671902,115.24229074889868 L 93.52464494120724,115.24229074889868 L 95.01527375404687,115.24229074889868 L 95.04306213237732,115.24229074889868 L 95.07645835236954,115.24229074889868 L 96.55434858558768,115.24229074889868 L 96.59114892671644,115.24229074889868 L 96.62201893049681,115.24229074889868 L 98.11040818995713,115.24229074889868 L 98.13214081594992,115.24229074889868 L 98.17121654331207,115.24229074889868 L 99.6602328777186,115.24229074889868 L 99.69289452420242,115.24229074889868 L 99.7273119805356,115.24229074889868 L 101.21041589402076,115.24229074889868 L 101.24030049431423,115.24229074889868 L 101.27195882088411,115.24229074889868 L 102.74922197915603,115.24229074889868 L 102.78168654494247,115.24229074889868 L 102.81406152859373,115.24229074889868 L 104.30198496095115,115.24229074889868 L 104.33237122120158,115.24229074889868 L 104.36709325679436,115.24229074889868 L 105.85044800025801,115.24229074889868 L 105.87841554285879,115.24229074889868 L 105.90928554663915,115.24229074889868 L 107.39955603093809,115.24229074889868 L 107.4194790978004,115.24229074889868 L 107.46839094360446,115.24229074889868 L 108.94490161194095,115.24229074889868 L 108.97505495863994,115.24229074889868 L 109.00479622751713,115.24229074889868 L 110.49574753604338,115.24229074889868 L 110.52998582810622,115.24229074889868 L 110.56114249471914,115.24229074889868 L 112.04297434188486,115.24229074889868 L 112.07312768858384,115.24229074889868 L 112.10788555703068,115.24229074889868 L 113.58883949927171,115.24229074889868 L 113.61847326958669,115.24229074889868 L 113.64547332512761,115.24229074889868 L 115.13916584699012,115.24229074889868 L 115.16978502079202,115.24229074889868 L 115.20131793237266,115.24229074889868 L 116.69180341379602,115.24229074889868 L 116.72061302846743,115.24229074889868 L 116.74902848174406,115.24229074889868 L 118.23397778721376,115.24229074889868 L 118.26477612528599,40 L 118.2968644461047,40 L 119.7877440889228,40 L 119.80911838637493,40 L 119.8385909088466,40 L 121.3318534364603,40 L 121.35575395012425,40 L 121.3981621329148,40 L 122.88167812422175,40 L 122.9131572865213,40 L 122.94080233343546,40 L 124.42338667053662,40 L 124.45787579257795,40 L 124.4916482575379,40 L 125.98089750549588,40 L 125.99616230132924,40 L 126.03753133135179,40 L 127.52577725939582,40 L 127.55840307302557,40 L 127.59525716343545,40 L 129.073881970162,40 L 129.1046265589531,40 L 129.14402478200188,40 L 130.61947838114332,40 L 130.6521758604812,40 L 130.69031993363757,40 L 132.17603964546976,40 L 132.2124637416308,40 L 133.71807068747123,40 L 133.7946634130435,40 L 135.26630081322662,40 L 135.30437322067485,40 L 135.34051065400334,40 L 136.8139038640358,40 L 136.85401874416596,40 L 136.88162795822606,40 L 138.36516186596003,40 L 138.3987372502226,40 L 138.4364334127031,40 L 139.9076945679185,40 L 139.94125203575402,40 L 139.97900194751563,40 L 141.45803883206395,40 L 141.4910229742344,40 L 141.52640791762744,40 L 143.01148263808636,40 L 143.05482247508274,40 L 144.59370022592617,40 L 144.63472884383503,40 L 146.11093493291196,40 L 146.144761147153,40 L 147.66296334119866,40 L 147.69177295587008,40 L 147.7392156546573,40 L 149.19908196227877,40 L 149.23204818802213,40 L 149.26734354928004,40 L 150.74892456646728,40 L 150.78791071169422,40 L 150.8270401883375,40 L 152.2941626489079,40 L 152.3257672261967,40 L 152.3641800457586,40 L 153.84088779479242,40 L 153.8768102309965,40 L 153.92376918625382,40 L 155.38408340455112,40 L 155.42496869104377,40 L 155.46454607836287,40 L 156.9392113547148,40 L 156.97210591475005,40 L 157.0096587458143,40 L 158.48715481763767,40 L 158.52044353906768,40 L 158.55882052577547,40 L 160.03312747358672,40 L 160.07171945741894,40 L 160.1133034845659,40 L 161.58266549851564,40 L 161.61339217087973,40 L 161.65042542555994,40 L 163.13200644274718,40 L 163.1595798239532,40 L 163.19724015357963,40 L 164.67611579028465,40 L 164.71146490082361,40 L 164.75050479533172,40 L 166.2251521552566,40 L 166.26266915346676,40 L 166.30256903647248,40 L 167.77728806210553,40 L 167.80443144906272,40 L 167.84325634644637,40 L 169.32397737513597,40 L 169.36054480271326,40 L 169.393152699916,40 L 170.86728048345688,40 L 170.90074836915724,40 L 170.93928660370835,40 L 172.41257231517864,40 L 172.4531709388387,40 L 172.49031169208112,40 L 173.96399156494616,40 L 173.99462865517506,40 L 174.02902819508122,40 L 175.5181161951959,40 L 175.55550777841682,40 L 175.59759346552073,40 L 177.06485925750744,40 L 177.09825547749966,40 L 177.1316516974919,40 L 178.60934485001266,40 L 178.64643185397398,40 L 178.68290969941611,40 L 180.15071298421384,40 L 180.19098911218728,40 L 180.22933026604102,40 L 181.6974560465254,40 L 181.7377142580718,40 L 181.78189616713877,40 L 183.25991181534616,40 L 183.29192847045672,40 L 183.33333333333334,40" stroke="#3b82f6" stroke-width="4" fill="none" opacity="0.4" stroke-dasharray="14800" stroke-dashoffset="14800">
      <animate attributeName="stroke-dashoffset" values="14800;0" dur="3s" begin="3.0999999999999996s" fill="freeze"/>
    </path>
    
    <!-- Animated circle that moves along the path and draws the line -->
    <circle r="5" fill="#3b82f6" opacity="0" filter="url(#trailGlow)">
      <animate attributeName="opacity" values="0;1;1;1" dur="3.2s" begin="2.9s" fill="freeze"/>
      <animate attributeName="r" values="5;6;5" dur="1s" begin="2.9s" repeatCount="3"/>
      <animateMotion dur="3s" begin="2.9s" fill="freeze">
        <mpath href="#path_publicContributions_293.33333333333337"/>
      </animateMotion>
    </circle>
    
    <!-- Small trail dots that fade out -->
    <circle r="2" fill="#3b82f6" opacity="0">
      <animate attributeName="opacity" values="0;0.6;0" dur="0.8s" begin="3.3s" fill="freeze"/>
      <animateMotion dur="3s" begin="2.9s" fill="freeze">
        <mpath href="#path_publicContributions_293.33333333333337"/>
      </animateMotion>
    </circle>
    
    <!-- Hidden path for motion animation -->
    <path id="path_publicContributions_293.33333333333337" d="M 30,160 L 30.025996735626993,160 L 30.053516367551918,160 L 31.54387643398603,160 L 31.573546037155086,160 L 31.60296481034566,160 L 33.09094199198419,160 L 33.118139128222495,160 L 33.148812051305484,160 L 34.64399163661186,160 L 34.67457497755967,160 L 34.70755911973011,160 L 36.19451506502767,160 L 36.217645172329156,160 L 36.26876073865846,160 L 37.74321101788597,160 L 37.76673528658221,160 L 37.79629739118906,160 L 39.28601246624993,160 L 39.31363959673706,160 L 39.34284337280322,160 L 40.833293021372505,160 L 40.85989891551867,160 L 40.890607671455726,160 L 42.382311469917425,160 L 42.41027901251821,160 L 42.43586367032341,160 L 43.92814079445021,160 L 43.95580375779141,160 L 43.984864202441294,160 L 45.4830179146354,160 L 45.51216794142045,160 L 45.54264378380606,160 L 47.02513853877205,160 L 47.05444981340041,115.24229074889868 L 47.08485399007788,115.24229074889868 L 48.57938858401103,115.24229074889868 L 48.600207472225065,115.24229074889868 L 48.628533343366534,115.24229074889868 L 50.12158087385581,115.24229074889868 L 50.141503940718124,115.24229074889868 L 50.17957634816634,115.24229074889868 L 51.67176389015797,115.24229074889868 L 51.70055558840234,115.24229074889868 L 51.72490401274216,115.24229074889868 L 53.213687433597244,115.24229074889868 L 53.246313247226986,115.24229074889868 L 53.278061155932036,115.24229074889868 L 54.76881538376091,115.24229074889868 L 54.783811433188745,115.24229074889868 L 54.82220633632359,115.24229074889868 L 56.31645426742418,115.24229074889868 L 56.346428449852816,115.24229074889868 L 56.38140131542407,115.24229074889868 L 57.864361897492955,115.24229074889868 L 57.890824460222845,115.24229074889868 L 57.92665731429176,115.24229074889868 L 59.4094924813714,115.24229074889868 L 59.439502496654114,115.24229074889868 L 59.472791218084126,115.24229074889868 L 60.96092964756597,115.24229074889868 L 60.982787688548,115.24229074889868 L 61.013818940171674,115.24229074889868 L 62.504555251573514,115.24229074889868 L 62.5294590851514,115.24229074889868 L 62.561583238824184,115.24229074889868 L 64.05543700853002,115.24229074889868 L 64.08481994886651,115.24229074889868 L 64.11045835595283,115.24229074889868 L 65.60225173654969,115.24229074889868 L 65.63507463087682,115.24229074889868 L 65.65798974105388,115.24229074889868 L 67.15223767215447,115.24229074889868 L 67.181118952534,115.24229074889868 L 67.21437184110997,115.24229074889868 L 68.70071862788836,115.24229074889868 L 68.72890116761354,115.24229074889868 L 68.76292446255198,115.24229074889868 L 70.24778418588653,115.24229074889868 L 70.27344050939986,115.24229074889868 L 70.30545716451043,115.24229074889868 L 71.79716096297213,115.24229074889868 L 71.82514642199993,115.24229074889868 L 71.85759307135933,115.24229074889868 L 73.34125239408257,115.24229074889868 L 73.37885897442789,115.24229074889868 L 73.40062743327475,115.24229074889868 L 74.88946460341094,115.24229074889868 L 74.91875796161227,115.24229074889868 L 74.94790798839733,115.24229074889868 L 76.43330520454289,115.24229074889868 L 76.46562643891305,115.24229074889868 L 76.49264441088101,115.24229074889868 L 77.5727182982261,115.24229074889868 L 77.98789566189552,115.24229074889868 L 78.0200198155683,115.24229074889868 L 78.05386394623639,115.24229074889868 L 79.5356957934021,115.24229074889868 L 79.56378875099213,115.24229074889868 L 79.59668331102739,115.24229074889868 L 81.08177594791337,115.24229074889868 L 81.10343690819802,115.24229074889868 L 81.1397714222239,115.24229074889868 L 82.63183354922629,115.24229074889868 L 82.65888735404832,115.24229074889868 L 82.69034859992081,115.24229074889868 L 84.17990242713837,115.24229074889868 L 84.21238490935184,115.24229074889868 L 84.2458527950522,115.24229074889868 L 85.72600049807667,115.24229074889868 L 85.75366346141787,115.24229074889868 L 85.79008755757891,115.24229074889868 L 87.2782976527689,115.24229074889868 L 87.30189358717328,115.24229074889868 L 87.33095403182315,115.24229074889868 L 88.8249690493723,115.24229074889868 L 88.85847276792674,115.24229074889868 L 88.88984443166406,115.24229074889868 L 90.37205252379749,115.24229074889868 L 90.40220587049649,115.24229074889868 L 90.4360679175916,115.24229074889868 L 91.91784601547621,115.24229074889868 L 91.94724687223976,115.24229074889868 L 91.9803922622535,115.24229074889868 L 93.46905026811933,115.24229074889868 L 93.4965340671902,115.24229074889868 L 93.52464494120724,115.24229074889868 L 95.01527375404687,115.24229074889868 L 95.04306213237732,115.24229074889868 L 95.07645835236954,115.24229074889868 L 96.55434858558768,115.24229074889868 L 96.59114892671644,115.24229074889868 L 96.62201893049681,115.24229074889868 L 98.11040818995713,115.24229074889868 L 98.13214081594992,115.24229074889868 L 98.17121654331207,115.24229074889868 L 99.6602328777186,115.24229074889868 L 99.69289452420242,115.24229074889868 L 99.7273119805356,115.24229074889868 L 101.21041589402076,115.24229074889868 L 101.24030049431423,115.24229074889868 L 101.27195882088411,115.24229074889868 L 102.74922197915603,115.24229074889868 L 102.78168654494247,115.24229074889868 L 102.81406152859373,115.24229074889868 L 104.30198496095115,115.24229074889868 L 104.33237122120158,115.24229074889868 L 104.36709325679436,115.24229074889868 L 105.85044800025801,115.24229074889868 L 105.87841554285879,115.24229074889868 L 105.90928554663915,115.24229074889868 L 107.39955603093809,115.24229074889868 L 107.4194790978004,115.24229074889868 L 107.46839094360446,115.24229074889868 L 108.94490161194095,115.24229074889868 L 108.97505495863994,115.24229074889868 L 109.00479622751713,115.24229074889868 L 110.49574753604338,115.24229074889868 L 110.52998582810622,115.24229074889868 L 110.56114249471914,115.24229074889868 L 112.04297434188486,115.24229074889868 L 112.07312768858384,115.24229074889868 L 112.10788555703068,115.24229074889868 L 113.58883949927171,115.24229074889868 L 113.61847326958669,115.24229074889868 L 113.64547332512761,115.24229074889868 L 115.13916584699012,115.24229074889868 L 115.16978502079202,115.24229074889868 L 115.20131793237266,115.24229074889868 L 116.69180341379602,115.24229074889868 L 116.72061302846743,115.24229074889868 L 116.74902848174406,115.24229074889868 L 118.23397778721376,115.24229074889868 L 118.26477612528599,40 L 118.2968644461047,40 L 119.7877440889228,40 L 119.80911838637493,40 L 119.8385909088466,40 L 121.3318534364603,40 L 121.35575395012425,40 L 121.3981621329148,40 L 122.88167812422175,40 L 122.9131572865213,40 L 122.94080233343546,40 L 124.42338667053662,40 L 124.45787579257795,40 L 124.4916482575379,40 L 125.98089750549588,40 L 125.99616230132924,40 L 126.03753133135179,40 L 127.52577725939582,40 L 127.55840307302557,40 L 127.59525716343545,40 L 129.073881970162,40 L 129.1046265589531,40 L 129.14402478200188,40 L 130.61947838114332,40 L 130.6521758604812,40 L 130.69031993363757,40 L 132.17603964546976,40 L 132.2124637416308,40 L 133.71807068747123,40 L 133.7946634130435,40 L 135.26630081322662,40 L 135.30437322067485,40 L 135.34051065400334,40 L 136.8139038640358,40 L 136.85401874416596,40 L 136.88162795822606,40 L 138.36516186596003,40 L 138.3987372502226,40 L 138.4364334127031,40 L 139.9076945679185,40 L 139.94125203575402,40 L 139.97900194751563,40 L 141.45803883206395,40 L 141.4910229742344,40 L 141.52640791762744,40 L 143.01148263808636,40 L 143.05482247508274,40 L 144.59370022592617,40 L 144.63472884383503,40 L 146.11093493291196,40 L 146.144761147153,40 L 147.66296334119866,40 L 147.69177295587008,40 L 147.7392156546573,40 L 149.19908196227877,40 L 149.23204818802213,40 L 149.26734354928004,40 L 150.74892456646728,40 L 150.78791071169422,40 L 150.8270401883375,40 L 152.2941626489079,40 L 152.3257672261967,40 L 152.3641800457586,40 L 153.84088779479242,40 L 153.8768102309965,40 L 153.92376918625382,40 L 155.38408340455112,40 L 155.42496869104377,40 L 155.46454607836287,40 L 156.9392113547148,40 L 156.97210591475005,40 L 157.0096587458143,40 L 158.48715481763767,40 L 158.52044353906768,40 L 158.55882052577547,40 L 160.03312747358672,40 L 160.07171945741894,40 L 160.1133034845659,40 L 161.58266549851564,40 L 161.61339217087973,40 L 161.65042542555994,40 L 163.13200644274718,40 L 163.1595798239532,40 L 163.19724015357963,40 L 164.67611579028465,40 L 164.71146490082361,40 L 164.75050479533172,40 L 166.2251521552566,40 L 166.26266915346676,40 L 166.30256903647248,40 L 167.77728806210553,40 L 167.80443144906272,40 L 167.84325634644637,40 L 169.32397737513597,40 L 169.36054480271326,40 L 169.393152699916,40 L 170.86728048345688,40 L 170.90074836915724,40 L 170.93928660370835,40 L 172.41257231517864,40 L 172.4531709388387,40 L 172.49031169208112,40 L 173.96399156494616,40 L 173.99462865517506,40 L 174.02902819508122,40 L 175.5181161951959,40 L 175.55550777841682,40 L 175.59759346552073,40 L 177.06485925750744,40 L 177.09825547749966,40 L 177.1316516974919,40 L 178.60934485001266,40 L 178.64643185397398,40 L 178.68290969941611,40 L 180.15071298421384,40 L 180.19098911218728,40 L 180.22933026604102,40 L 181.6974560465254,40 L 181.7377142580718,40 L 181.78189616713877,40 L 183.25991181534616,40 L 183.29192847045672,40 L 183.33333333333334,40" fill="none" stroke="none"/>
  </g>
  <!-- 📊 Total Contributions Chart -->
  <g transform="translate(526.6666666666667, 250)">
    <!-- Chart Background -->
    <rect x="0" y="0" width="213.33333333333334" height="200" fill="#ffffff" stroke="#e2e8f0" stroke-width="1" rx="8" filter="url(#shadow)">
      <animate attributeName="opacity" values="0;1" dur="0.5s" begin="2.8s" fill="freeze"/>
    </rect>
    
    <!-- Chart Title -->
    <text x="106.66666666666667" y="25" text-anchor="middle" fill="#1e293b" font-size="14" font-weight="bold" font-family="Arial, sans-serif">
      📊 Total Contributions
      <animate attributeName="opacity" values="0;1" dur="0.5s" begin="3s" fill="freeze"/>
    </text>
    
    <!-- Y-axis labels -->
    <text x="10" y="45" fill="#64748b" font-size="10" font-family="Arial, sans-serif">5,314
      <animate attributeName="opacity" values="0;1" dur="0.5s" begin="3.1999999999999997s" fill="freeze"/>
    </text>
    <text x="10" y="185" fill="#64748b" font-size="10" font-family="Arial, sans-serif">4,408
      <animate attributeName="opacity" values="0;1" dur="0.5s" begin="3.1999999999999997s" fill="freeze"/>
    </text>
    
    <!-- Chart Line with draw animation that follows the circle -->
    <path d="M 30,160 L 30.025996735626993,160 L 30.053516367551918,160 L 31.54387643398603,160 L 31.573546037155086,160 L 31.60296481034566,160 L 33.09094199198419,160 L 33.118139128222495,160 L 33.148812051305484,160 L 34.64399163661186,160 L 34.67457497755967,160 L 34.70755911973011,160 L 36.19451506502767,160 L 36.217645172329156,160 L 36.26876073865846,160 L 37.74321101788597,160 L 37.76673528658221,160 L 37.79629739118906,160 L 39.28601246624993,160 L 39.31363959673706,160 L 39.34284337280322,160 L 40.833293021372505,160 L 40.85989891551867,160 L 40.890607671455726,160 L 42.382311469917425,160 L 42.41027901251821,160 L 42.43586367032341,160 L 43.92814079445021,160 L 43.95580375779141,160 L 43.984864202441294,160 L 45.4830179146354,160 L 45.51216794142045,160 L 45.54264378380606,160 L 47.02513853877205,160 L 47.05444981340041,92.58278145695365 L 47.08485399007788,92.58278145695365 L 48.57938858401103,92.58278145695365 L 48.600207472225065,92.58278145695365 L 48.628533343366534,92.58278145695365 L 50.12158087385581,92.58278145695365 L 50.141503940718124,92.58278145695365 L 50.17957634816634,92.58278145695365 L 51.67176389015797,92.58278145695365 L 51.70055558840234,92.58278145695365 L 51.72490401274216,92.58278145695365 L 53.213687433597244,92.58278145695365 L 53.246313247226986,92.58278145695365 L 53.278061155932036,92.58278145695365 L 54.76881538376091,92.58278145695365 L 54.783811433188745,92.58278145695365 L 54.82220633632359,92.58278145695365 L 56.31645426742418,92.58278145695365 L 56.346428449852816,92.58278145695365 L 56.38140131542407,92.58278145695365 L 57.864361897492955,92.58278145695365 L 57.890824460222845,92.58278145695365 L 57.92665731429176,92.58278145695365 L 59.4094924813714,92.58278145695365 L 59.439502496654114,92.58278145695365 L 59.472791218084126,92.58278145695365 L 60.96092964756597,92.58278145695365 L 60.982787688548,92.58278145695365 L 61.013818940171674,92.58278145695365 L 62.504555251573514,92.58278145695365 L 62.5294590851514,92.58278145695365 L 62.561583238824184,92.58278145695365 L 64.05543700853002,92.58278145695365 L 64.08481994886651,92.58278145695365 L 64.11045835595283,92.58278145695365 L 65.60225173654969,92.58278145695365 L 65.63507463087682,92.58278145695365 L 65.65798974105388,92.58278145695365 L 67.15223767215447,92.58278145695365 L 67.181118952534,92.58278145695365 L 67.21437184110997,92.58278145695365 L 68.70071862788836,92.58278145695365 L 68.72890116761354,92.58278145695365 L 68.76292446255198,92.58278145695365 L 70.24778418588653,92.58278145695365 L 70.27344050939986,92.58278145695365 L 70.30545716451043,92.58278145695365 L 71.79716096297213,92.58278145695365 L 71.82514642199993,92.58278145695365 L 71.85759307135933,92.58278145695365 L 73.34125239408257,92.58278145695365 L 73.37885897442789,92.58278145695365 L 73.40062743327475,92.58278145695365 L 74.88946460341094,92.58278145695365 L 74.91875796161227,92.58278145695365 L 74.94790798839733,92.58278145695365 L 76.43330520454289,92.58278145695365 L 76.46562643891305,92.58278145695365 L 76.49264441088101,92.58278145695365 L 77.5727182982261,92.58278145695365 L 77.98789566189552,92.58278145695365 L 78.0200198155683,92.58278145695365 L 78.05386394623639,92.58278145695365 L 79.5356957934021,92.58278145695365 L 79.56378875099213,92.58278145695365 L 79.59668331102739,92.58278145695365 L 81.08177594791337,92.58278145695365 L 81.10343690819802,92.58278145695365 L 81.1397714222239,92.58278145695365 L 82.63183354922629,92.58278145695365 L 82.65888735404832,92.58278145695365 L 82.69034859992081,92.58278145695365 L 84.17990242713837,92.58278145695365 L 84.21238490935184,92.58278145695365 L 84.2458527950522,92.58278145695365 L 85.72600049807667,92.58278145695365 L 85.75366346141787,92.58278145695365 L 85.79008755757891,92.58278145695365 L 87.2782976527689,92.58278145695365 L 87.30189358717328,92.58278145695365 L 87.33095403182315,92.58278145695365 L 88.8249690493723,92.58278145695365 L 88.85847276792674,92.58278145695365 L 88.88984443166406,92.58278145695365 L 90.37205252379749,92.58278145695365 L 90.40220587049649,92.58278145695365 L 90.4360679175916,92.58278145695365 L 91.91784601547621,92.58278145695365 L 91.94724687223976,92.58278145695365 L 91.9803922622535,92.58278145695365 L 93.46905026811933,92.58278145695365 L 93.4965340671902,92.58278145695365 L 93.52464494120724,92.58278145695365 L 95.01527375404687,92.58278145695365 L 95.04306213237732,92.58278145695365 L 95.07645835236954,92.58278145695365 L 96.55434858558768,92.58278145695365 L 96.59114892671644,92.58278145695365 L 96.62201893049681,92.58278145695365 L 98.11040818995713,92.58278145695365 L 98.13214081594992,92.58278145695365 L 98.17121654331207,92.58278145695365 L 99.6602328777186,92.58278145695365 L 99.69289452420242,92.58278145695365 L 99.7273119805356,92.58278145695365 L 101.21041589402076,92.58278145695365 L 101.24030049431423,92.58278145695365 L 101.27195882088411,92.58278145695365 L 102.74922197915603,92.58278145695365 L 102.78168654494247,92.58278145695365 L 102.81406152859373,92.58278145695365 L 104.30198496095115,92.58278145695365 L 104.33237122120158,92.58278145695365 L 104.36709325679436,92.58278145695365 L 105.85044800025801,92.58278145695365 L 105.87841554285879,92.58278145695365 L 105.90928554663915,92.58278145695365 L 107.39955603093809,92.58278145695365 L 107.4194790978004,92.58278145695365 L 107.46839094360446,92.58278145695365 L 108.94490161194095,92.58278145695365 L 108.97505495863994,92.58278145695365 L 109.00479622751713,92.58278145695365 L 110.49574753604338,92.58278145695365 L 110.52998582810622,92.58278145695365 L 110.56114249471914,92.58278145695365 L 112.04297434188486,92.58278145695365 L 112.07312768858384,92.58278145695365 L 112.10788555703068,92.58278145695365 L 113.58883949927171,92.58278145695365 L 113.61847326958669,92.58278145695365 L 113.64547332512761,92.58278145695365 L 115.13916584699012,92.58278145695365 L 115.16978502079202,92.58278145695365 L 115.20131793237266,92.58278145695365 L 116.69180341379602,92.58278145695365 L 116.72061302846743,92.58278145695365 L 116.74902848174406,92.58278145695365 L 118.23397778721376,92.58278145695365 L 118.26477612528599,40 L 118.2968644461047,40 L 119.7877440889228,40 L 119.80911838637493,40 L 119.8385909088466,40 L 121.3318534364603,40 L 121.35575395012425,40 L 121.3981621329148,40 L 122.88167812422175,40 L 122.9131572865213,40 L 122.94080233343546,40 L 124.42338667053662,40 L 124.45787579257795,40 L 124.4916482575379,40 L 125.98089750549588,40 L 125.99616230132924,40 L 126.03753133135179,40 L 127.52577725939582,40 L 127.55840307302557,40 L 127.59525716343545,40 L 129.073881970162,40 L 129.1046265589531,40 L 129.14402478200188,40 L 130.61947838114332,40 L 130.6521758604812,40 L 130.69031993363757,40 L 132.17603964546976,40 L 132.2124637416308,40 L 133.71807068747123,40 L 133.7946634130435,40 L 135.26630081322662,40 L 135.30437322067485,40 L 135.34051065400334,40 L 136.8139038640358,40 L 136.85401874416596,40 L 136.88162795822606,40 L 138.36516186596003,40 L 138.3987372502226,40 L 138.4364334127031,40 L 139.9076945679185,40 L 139.94125203575402,40 L 139.97900194751563,40 L 141.45803883206395,40 L 141.4910229742344,40 L 141.52640791762744,40 L 143.01148263808636,40 L 143.05482247508274,40 L 144.59370022592617,40 L 144.63472884383503,40 L 146.11093493291196,40 L 146.144761147153,40 L 147.66296334119866,40 L 147.69177295587008,40 L 147.7392156546573,40 L 149.19908196227877,40 L 149.23204818802213,40 L 149.26734354928004,40 L 150.74892456646728,40 L 150.78791071169422,40 L 150.8270401883375,40 L 152.2941626489079,40 L 152.3257672261967,40 L 152.3641800457586,40 L 153.84088779479242,40 L 153.8768102309965,40 L 153.92376918625382,40 L 155.38408340455112,40 L 155.42496869104377,40 L 155.46454607836287,40 L 156.9392113547148,40 L 156.97210591475005,40 L 157.0096587458143,40 L 158.48715481763767,40 L 158.52044353906768,40 L 158.55882052577547,40 L 160.03312747358672,40 L 160.07171945741894,40 L 160.1133034845659,40 L 161.58266549851564,40 L 161.61339217087973,40 L 161.65042542555994,40 L 163.13200644274718,40 L 163.1595798239532,40 L 163.19724015357963,40 L 164.67611579028465,40 L 164.71146490082361,40 L 164.75050479533172,40 L 166.2251521552566,40 L 166.26266915346676,40 L 166.30256903647248,40 L 167.77728806210553,40 L 167.80443144906272,40 L 167.84325634644637,40 L 169.32397737513597,40 L 169.36054480271326,40 L 169.393152699916,40 L 170.86728048345688,40 L 170.90074836915724,40 L 170.93928660370835,40 L 172.41257231517864,40 L 172.4531709388387,40 L 172.49031169208112,40 L 173.96399156494616,40 L 173.99462865517506,40 L 174.02902819508122,40 L 175.5181161951959,40 L 175.55550777841682,40 L 175.59759346552073,40 L 177.06485925750744,40 L 177.09825547749966,40 L 177.1316516974919,40 L 178.60934485001266,40 L 178.64643185397398,40 L 178.68290969941611,40 L 180.15071298421384,40 L 180.19098911218728,40 L 180.22933026604102,40 L 181.6974560465254,40 L 181.7377142580718,40 L 181.78189616713877,40 L 183.25991181534616,40 L 183.29192847045672,40 L 183.33333333333334,40" stroke="#f59e0b" stroke-width="2" fill="none" stroke-dasharray="14800" stroke-dashoffset="14800">
      <animate attributeName="stroke-dashoffset" values="14800;0" dur="3s" begin="3.5999999999999996s" fill="freeze"/>
    </path>
    
    <!-- Glow effect for the line that also follows the circle -->
    <path d="M 30,160 L 30.025996735626993,160 L 30.053516367551918,160 L 31.54387643398603,160 L 31.573546037155086,160 L 31.60296481034566,160 L 33.09094199198419,160 L 33.118139128222495,160 L 33.148812051305484,160 L 34.64399163661186,160 L 34.67457497755967,160 L 34.70755911973011,160 L 36.19451506502767,160 L 36.217645172329156,160 L 36.26876073865846,160 L 37.74321101788597,160 L 37.76673528658221,160 L 37.79629739118906,160 L 39.28601246624993,160 L 39.31363959673706,160 L 39.34284337280322,160 L 40.833293021372505,160 L 40.85989891551867,160 L 40.890607671455726,160 L 42.382311469917425,160 L 42.41027901251821,160 L 42.43586367032341,160 L 43.92814079445021,160 L 43.95580375779141,160 L 43.984864202441294,160 L 45.4830179146354,160 L 45.51216794142045,160 L 45.54264378380606,160 L 47.02513853877205,160 L 47.05444981340041,92.58278145695365 L 47.08485399007788,92.58278145695365 L 48.57938858401103,92.58278145695365 L 48.600207472225065,92.58278145695365 L 48.628533343366534,92.58278145695365 L 50.12158087385581,92.58278145695365 L 50.141503940718124,92.58278145695365 L 50.17957634816634,92.58278145695365 L 51.67176389015797,92.58278145695365 L 51.70055558840234,92.58278145695365 L 51.72490401274216,92.58278145695365 L 53.213687433597244,92.58278145695365 L 53.246313247226986,92.58278145695365 L 53.278061155932036,92.58278145695365 L 54.76881538376091,92.58278145695365 L 54.783811433188745,92.58278145695365 L 54.82220633632359,92.58278145695365 L 56.31645426742418,92.58278145695365 L 56.346428449852816,92.58278145695365 L 56.38140131542407,92.58278145695365 L 57.864361897492955,92.58278145695365 L 57.890824460222845,92.58278145695365 L 57.92665731429176,92.58278145695365 L 59.4094924813714,92.58278145695365 L 59.439502496654114,92.58278145695365 L 59.472791218084126,92.58278145695365 L 60.96092964756597,92.58278145695365 L 60.982787688548,92.58278145695365 L 61.013818940171674,92.58278145695365 L 62.504555251573514,92.58278145695365 L 62.5294590851514,92.58278145695365 L 62.561583238824184,92.58278145695365 L 64.05543700853002,92.58278145695365 L 64.08481994886651,92.58278145695365 L 64.11045835595283,92.58278145695365 L 65.60225173654969,92.58278145695365 L 65.63507463087682,92.58278145695365 L 65.65798974105388,92.58278145695365 L 67.15223767215447,92.58278145695365 L 67.181118952534,92.58278145695365 L 67.21437184110997,92.58278145695365 L 68.70071862788836,92.58278145695365 L 68.72890116761354,92.58278145695365 L 68.76292446255198,92.58278145695365 L 70.24778418588653,92.58278145695365 L 70.27344050939986,92.58278145695365 L 70.30545716451043,92.58278145695365 L 71.79716096297213,92.58278145695365 L 71.82514642199993,92.58278145695365 L 71.85759307135933,92.58278145695365 L 73.34125239408257,92.58278145695365 L 73.37885897442789,92.58278145695365 L 73.40062743327475,92.58278145695365 L 74.88946460341094,92.58278145695365 L 74.91875796161227,92.58278145695365 L 74.94790798839733,92.58278145695365 L 76.43330520454289,92.58278145695365 L 76.46562643891305,92.58278145695365 L 76.49264441088101,92.58278145695365 L 77.5727182982261,92.58278145695365 L 77.98789566189552,92.58278145695365 L 78.0200198155683,92.58278145695365 L 78.05386394623639,92.58278145695365 L 79.5356957934021,92.58278145695365 L 79.56378875099213,92.58278145695365 L 79.59668331102739,92.58278145695365 L 81.08177594791337,92.58278145695365 L 81.10343690819802,92.58278145695365 L 81.1397714222239,92.58278145695365 L 82.63183354922629,92.58278145695365 L 82.65888735404832,92.58278145695365 L 82.69034859992081,92.58278145695365 L 84.17990242713837,92.58278145695365 L 84.21238490935184,92.58278145695365 L 84.2458527950522,92.58278145695365 L 85.72600049807667,92.58278145695365 L 85.75366346141787,92.58278145695365 L 85.79008755757891,92.58278145695365 L 87.2782976527689,92.58278145695365 L 87.30189358717328,92.58278145695365 L 87.33095403182315,92.58278145695365 L 88.8249690493723,92.58278145695365 L 88.85847276792674,92.58278145695365 L 88.88984443166406,92.58278145695365 L 90.37205252379749,92.58278145695365 L 90.40220587049649,92.58278145695365 L 90.4360679175916,92.58278145695365 L 91.91784601547621,92.58278145695365 L 91.94724687223976,92.58278145695365 L 91.9803922622535,92.58278145695365 L 93.46905026811933,92.58278145695365 L 93.4965340671902,92.58278145695365 L 93.52464494120724,92.58278145695365 L 95.01527375404687,92.58278145695365 L 95.04306213237732,92.58278145695365 L 95.07645835236954,92.58278145695365 L 96.55434858558768,92.58278145695365 L 96.59114892671644,92.58278145695365 L 96.62201893049681,92.58278145695365 L 98.11040818995713,92.58278145695365 L 98.13214081594992,92.58278145695365 L 98.17121654331207,92.58278145695365 L 99.6602328777186,92.58278145695365 L 99.69289452420242,92.58278145695365 L 99.7273119805356,92.58278145695365 L 101.21041589402076,92.58278145695365 L 101.24030049431423,92.58278145695365 L 101.27195882088411,92.58278145695365 L 102.74922197915603,92.58278145695365 L 102.78168654494247,92.58278145695365 L 102.81406152859373,92.58278145695365 L 104.30198496095115,92.58278145695365 L 104.33237122120158,92.58278145695365 L 104.36709325679436,92.58278145695365 L 105.85044800025801,92.58278145695365 L 105.87841554285879,92.58278145695365 L 105.90928554663915,92.58278145695365 L 107.39955603093809,92.58278145695365 L 107.4194790978004,92.58278145695365 L 107.46839094360446,92.58278145695365 L 108.94490161194095,92.58278145695365 L 108.97505495863994,92.58278145695365 L 109.00479622751713,92.58278145695365 L 110.49574753604338,92.58278145695365 L 110.52998582810622,92.58278145695365 L 110.56114249471914,92.58278145695365 L 112.04297434188486,92.58278145695365 L 112.07312768858384,92.58278145695365 L 112.10788555703068,92.58278145695365 L 113.58883949927171,92.58278145695365 L 113.61847326958669,92.58278145695365 L 113.64547332512761,92.58278145695365 L 115.13916584699012,92.58278145695365 L 115.16978502079202,92.58278145695365 L 115.20131793237266,92.58278145695365 L 116.69180341379602,92.58278145695365 L 116.72061302846743,92.58278145695365 L 116.74902848174406,92.58278145695365 L 118.23397778721376,92.58278145695365 L 118.26477612528599,40 L 118.2968644461047,40 L 119.7877440889228,40 L 119.80911838637493,40 L 119.8385909088466,40 L 121.3318534364603,40 L 121.35575395012425,40 L 121.3981621329148,40 L 122.88167812422175,40 L 122.9131572865213,40 L 122.94080233343546,40 L 124.42338667053662,40 L 124.45787579257795,40 L 124.4916482575379,40 L 125.98089750549588,40 L 125.99616230132924,40 L 126.03753133135179,40 L 127.52577725939582,40 L 127.55840307302557,40 L 127.59525716343545,40 L 129.073881970162,40 L 129.1046265589531,40 L 129.14402478200188,40 L 130.61947838114332,40 L 130.6521758604812,40 L 130.69031993363757,40 L 132.17603964546976,40 L 132.2124637416308,40 L 133.71807068747123,40 L 133.7946634130435,40 L 135.26630081322662,40 L 135.30437322067485,40 L 135.34051065400334,40 L 136.8139038640358,40 L 136.85401874416596,40 L 136.88162795822606,40 L 138.36516186596003,40 L 138.3987372502226,40 L 138.4364334127031,40 L 139.9076945679185,40 L 139.94125203575402,40 L 139.97900194751563,40 L 141.45803883206395,40 L 141.4910229742344,40 L 141.52640791762744,40 L 143.01148263808636,40 L 143.05482247508274,40 L 144.59370022592617,40 L 144.63472884383503,40 L 146.11093493291196,40 L 146.144761147153,40 L 147.66296334119866,40 L 147.69177295587008,40 L 147.7392156546573,40 L 149.19908196227877,40 L 149.23204818802213,40 L 149.26734354928004,40 L 150.74892456646728,40 L 150.78791071169422,40 L 150.8270401883375,40 L 152.2941626489079,40 L 152.3257672261967,40 L 152.3641800457586,40 L 153.84088779479242,40 L 153.8768102309965,40 L 153.92376918625382,40 L 155.38408340455112,40 L 155.42496869104377,40 L 155.46454607836287,40 L 156.9392113547148,40 L 156.97210591475005,40 L 157.0096587458143,40 L 158.48715481763767,40 L 158.52044353906768,40 L 158.55882052577547,40 L 160.03312747358672,40 L 160.07171945741894,40 L 160.1133034845659,40 L 161.58266549851564,40 L 161.61339217087973,40 L 161.65042542555994,40 L 163.13200644274718,40 L 163.1595798239532,40 L 163.19724015357963,40 L 164.67611579028465,40 L 164.71146490082361,40 L 164.75050479533172,40 L 166.2251521552566,40 L 166.26266915346676,40 L 166.30256903647248,40 L 167.77728806210553,40 L 167.80443144906272,40 L 167.84325634644637,40 L 169.32397737513597,40 L 169.36054480271326,40 L 169.393152699916,40 L 170.86728048345688,40 L 170.90074836915724,40 L 170.93928660370835,40 L 172.41257231517864,40 L 172.4531709388387,40 L 172.49031169208112,40 L 173.96399156494616,40 L 173.99462865517506,40 L 174.02902819508122,40 L 175.5181161951959,40 L 175.55550777841682,40 L 175.59759346552073,40 L 177.06485925750744,40 L 177.09825547749966,40 L 177.1316516974919,40 L 178.60934485001266,40 L 178.64643185397398,40 L 178.68290969941611,40 L 180.15071298421384,40 L 180.19098911218728,40 L 180.22933026604102,40 L 181.6974560465254,40 L 181.7377142580718,40 L 181.78189616713877,40 L 183.25991181534616,40 L 183.29192847045672,40 L 183.33333333333334,40" stroke="#f59e0b" stroke-width="4" fill="none" opacity="0.4" stroke-dasharray="14800" stroke-dashoffset="14800">
      <animate attributeName="stroke-dashoffset" values="14800;0" dur="3s" begin="3.5999999999999996s" fill="freeze"/>
    </path>
    
    <!-- Animated circle that moves along the path and draws the line -->
    <circle r="5" fill="#f59e0b" opacity="0" filter="url(#trailGlow)">
      <animate attributeName="opacity" values="0;1;1;1" dur="3.2s" begin="3.4s" fill="freeze"/>
      <animate attributeName="r" values="5;6;5" dur="1s" begin="3.4s" repeatCount="3"/>
      <animateMotion dur="3s" begin="3.4s" fill="freeze">
        <mpath href="#path_totalContributions_526.6666666666667"/>
      </animateMotion>
    </circle>
    
    <!-- Small trail dots that fade out -->
    <circle r="2" fill="#f59e0b" opacity="0">
      <animate attributeName="opacity" values="0;0.6;0" dur="0.8s" begin="3.8s" fill="freeze"/>
      <animateMotion dur="3s" begin="3.4s" fill="freeze">
        <mpath href="#path_totalContributions_526.6666666666667"/>
      </animateMotion>
    </circle>
    
    <!-- Hidden path for motion animation -->
    <path id="path_totalContributions_526.6666666666667" d="M 30,160 L 30.025996735626993,160 L 30.053516367551918,160 L 31.54387643398603,160 L 31.573546037155086,160 L 31.60296481034566,160 L 33.09094199198419,160 L 33.118139128222495,160 L 33.148812051305484,160 L 34.64399163661186,160 L 34.67457497755967,160 L 34.70755911973011,160 L 36.19451506502767,160 L 36.217645172329156,160 L 36.26876073865846,160 L 37.74321101788597,160 L 37.76673528658221,160 L 37.79629739118906,160 L 39.28601246624993,160 L 39.31363959673706,160 L 39.34284337280322,160 L 40.833293021372505,160 L 40.85989891551867,160 L 40.890607671455726,160 L 42.382311469917425,160 L 42.41027901251821,160 L 42.43586367032341,160 L 43.92814079445021,160 L 43.95580375779141,160 L 43.984864202441294,160 L 45.4830179146354,160 L 45.51216794142045,160 L 45.54264378380606,160 L 47.02513853877205,160 L 47.05444981340041,92.58278145695365 L 47.08485399007788,92.58278145695365 L 48.57938858401103,92.58278145695365 L 48.600207472225065,92.58278145695365 L 48.628533343366534,92.58278145695365 L 50.12158087385581,92.58278145695365 L 50.141503940718124,92.58278145695365 L 50.17957634816634,92.58278145695365 L 51.67176389015797,92.58278145695365 L 51.70055558840234,92.58278145695365 L 51.72490401274216,92.58278145695365 L 53.213687433597244,92.58278145695365 L 53.246313247226986,92.58278145695365 L 53.278061155932036,92.58278145695365 L 54.76881538376091,92.58278145695365 L 54.783811433188745,92.58278145695365 L 54.82220633632359,92.58278145695365 L 56.31645426742418,92.58278145695365 L 56.346428449852816,92.58278145695365 L 56.38140131542407,92.58278145695365 L 57.864361897492955,92.58278145695365 L 57.890824460222845,92.58278145695365 L 57.92665731429176,92.58278145695365 L 59.4094924813714,92.58278145695365 L 59.439502496654114,92.58278145695365 L 59.472791218084126,92.58278145695365 L 60.96092964756597,92.58278145695365 L 60.982787688548,92.58278145695365 L 61.013818940171674,92.58278145695365 L 62.504555251573514,92.58278145695365 L 62.5294590851514,92.58278145695365 L 62.561583238824184,92.58278145695365 L 64.05543700853002,92.58278145695365 L 64.08481994886651,92.58278145695365 L 64.11045835595283,92.58278145695365 L 65.60225173654969,92.58278145695365 L 65.63507463087682,92.58278145695365 L 65.65798974105388,92.58278145695365 L 67.15223767215447,92.58278145695365 L 67.181118952534,92.58278145695365 L 67.21437184110997,92.58278145695365 L 68.70071862788836,92.58278145695365 L 68.72890116761354,92.58278145695365 L 68.76292446255198,92.58278145695365 L 70.24778418588653,92.58278145695365 L 70.27344050939986,92.58278145695365 L 70.30545716451043,92.58278145695365 L 71.79716096297213,92.58278145695365 L 71.82514642199993,92.58278145695365 L 71.85759307135933,92.58278145695365 L 73.34125239408257,92.58278145695365 L 73.37885897442789,92.58278145695365 L 73.40062743327475,92.58278145695365 L 74.88946460341094,92.58278145695365 L 74.91875796161227,92.58278145695365 L 74.94790798839733,92.58278145695365 L 76.43330520454289,92.58278145695365 L 76.46562643891305,92.58278145695365 L 76.49264441088101,92.58278145695365 L 77.5727182982261,92.58278145695365 L 77.98789566189552,92.58278145695365 L 78.0200198155683,92.58278145695365 L 78.05386394623639,92.58278145695365 L 79.5356957934021,92.58278145695365 L 79.56378875099213,92.58278145695365 L 79.59668331102739,92.58278145695365 L 81.08177594791337,92.58278145695365 L 81.10343690819802,92.58278145695365 L 81.1397714222239,92.58278145695365 L 82.63183354922629,92.58278145695365 L 82.65888735404832,92.58278145695365 L 82.69034859992081,92.58278145695365 L 84.17990242713837,92.58278145695365 L 84.21238490935184,92.58278145695365 L 84.2458527950522,92.58278145695365 L 85.72600049807667,92.58278145695365 L 85.75366346141787,92.58278145695365 L 85.79008755757891,92.58278145695365 L 87.2782976527689,92.58278145695365 L 87.30189358717328,92.58278145695365 L 87.33095403182315,92.58278145695365 L 88.8249690493723,92.58278145695365 L 88.85847276792674,92.58278145695365 L 88.88984443166406,92.58278145695365 L 90.37205252379749,92.58278145695365 L 90.40220587049649,92.58278145695365 L 90.4360679175916,92.58278145695365 L 91.91784601547621,92.58278145695365 L 91.94724687223976,92.58278145695365 L 91.9803922622535,92.58278145695365 L 93.46905026811933,92.58278145695365 L 93.4965340671902,92.58278145695365 L 93.52464494120724,92.58278145695365 L 95.01527375404687,92.58278145695365 L 95.04306213237732,92.58278145695365 L 95.07645835236954,92.58278145695365 L 96.55434858558768,92.58278145695365 L 96.59114892671644,92.58278145695365 L 96.62201893049681,92.58278145695365 L 98.11040818995713,92.58278145695365 L 98.13214081594992,92.58278145695365 L 98.17121654331207,92.58278145695365 L 99.6602328777186,92.58278145695365 L 99.69289452420242,92.58278145695365 L 99.7273119805356,92.58278145695365 L 101.21041589402076,92.58278145695365 L 101.24030049431423,92.58278145695365 L 101.27195882088411,92.58278145695365 L 102.74922197915603,92.58278145695365 L 102.78168654494247,92.58278145695365 L 102.81406152859373,92.58278145695365 L 104.30198496095115,92.58278145695365 L 104.33237122120158,92.58278145695365 L 104.36709325679436,92.58278145695365 L 105.85044800025801,92.58278145695365 L 105.87841554285879,92.58278145695365 L 105.90928554663915,92.58278145695365 L 107.39955603093809,92.58278145695365 L 107.4194790978004,92.58278145695365 L 107.46839094360446,92.58278145695365 L 108.94490161194095,92.58278145695365 L 108.97505495863994,92.58278145695365 L 109.00479622751713,92.58278145695365 L 110.49574753604338,92.58278145695365 L 110.52998582810622,92.58278145695365 L 110.56114249471914,92.58278145695365 L 112.04297434188486,92.58278145695365 L 112.07312768858384,92.58278145695365 L 112.10788555703068,92.58278145695365 L 113.58883949927171,92.58278145695365 L 113.61847326958669,92.58278145695365 L 113.64547332512761,92.58278145695365 L 115.13916584699012,92.58278145695365 L 115.16978502079202,92.58278145695365 L 115.20131793237266,92.58278145695365 L 116.69180341379602,92.58278145695365 L 116.72061302846743,92.58278145695365 L 116.74902848174406,92.58278145695365 L 118.23397778721376,92.58278145695365 L 118.26477612528599,40 L 118.2968644461047,40 L 119.7877440889228,40 L 119.80911838637493,40 L 119.8385909088466,40 L 121.3318534364603,40 L 121.35575395012425,40 L 121.3981621329148,40 L 122.88167812422175,40 L 122.9131572865213,40 L 122.94080233343546,40 L 124.42338667053662,40 L 124.45787579257795,40 L 124.4916482575379,40 L 125.98089750549588,40 L 125.99616230132924,40 L 126.03753133135179,40 L 127.52577725939582,40 L 127.55840307302557,40 L 127.59525716343545,40 L 129.073881970162,40 L 129.1046265589531,40 L 129.14402478200188,40 L 130.61947838114332,40 L 130.6521758604812,40 L 130.69031993363757,40 L 132.17603964546976,40 L 132.2124637416308,40 L 133.71807068747123,40 L 133.7946634130435,40 L 135.26630081322662,40 L 135.30437322067485,40 L 135.34051065400334,40 L 136.8139038640358,40 L 136.85401874416596,40 L 136.88162795822606,40 L 138.36516186596003,40 L 138.3987372502226,40 L 138.4364334127031,40 L 139.9076945679185,40 L 139.94125203575402,40 L 139.97900194751563,40 L 141.45803883206395,40 L 141.4910229742344,40 L 141.52640791762744,40 L 143.01148263808636,40 L 143.05482247508274,40 L 144.59370022592617,40 L 144.63472884383503,40 L 146.11093493291196,40 L 146.144761147153,40 L 147.66296334119866,40 L 147.69177295587008,40 L 147.7392156546573,40 L 149.19908196227877,40 L 149.23204818802213,40 L 149.26734354928004,40 L 150.74892456646728,40 L 150.78791071169422,40 L 150.8270401883375,40 L 152.2941626489079,40 L 152.3257672261967,40 L 152.3641800457586,40 L 153.84088779479242,40 L 153.8768102309965,40 L 153.92376918625382,40 L 155.38408340455112,40 L 155.42496869104377,40 L 155.46454607836287,40 L 156.9392113547148,40 L 156.97210591475005,40 L 157.0096587458143,40 L 158.48715481763767,40 L 158.52044353906768,40 L 158.55882052577547,40 L 160.03312747358672,40 L 160.07171945741894,40 L 160.1133034845659,40 L 161.58266549851564,40 L 161.61339217087973,40 L 161.65042542555994,40 L 163.13200644274718,40 L 163.1595798239532,40 L 163.19724015357963,40 L 164.67611579028465,40 L 164.71146490082361,40 L 164.75050479533172,40 L 166.2251521552566,40 L 166.26266915346676,40 L 166.30256903647248,40 L 167.77728806210553,40 L 167.80443144906272,40 L 167.84325634644637,40 L 169.32397737513597,40 L 169.36054480271326,40 L 169.393152699916,40 L 170.86728048345688,40 L 170.90074836915724,40 L 170.93928660370835,40 L 172.41257231517864,40 L 172.4531709388387,40 L 172.49031169208112,40 L 173.96399156494616,40 L 173.99462865517506,40 L 174.02902819508122,40 L 175.5181161951959,40 L 175.55550777841682,40 L 175.59759346552073,40 L 177.06485925750744,40 L 177.09825547749966,40 L 177.1316516974919,40 L 178.60934485001266,40 L 178.64643185397398,40 L 178.68290969941611,40 L 180.15071298421384,40 L 180.19098911218728,40 L 180.22933026604102,40 L 181.6974560465254,40 L 181.7377142580718,40 L 181.78189616713877,40 L 183.25991181534616,40 L 183.29192847045672,40 L 183.33333333333334,40" fill="none" stroke="none"/>
  </g>
  
  <!-- Footer -->
  <text x="400" y="580" text-anchor="middle" fill="#94a3b8" font-size="12" font-family="Arial, sans-serif">
    Generated by GitHub User Rank Tracker • 3/6/2026
    <animate attributeName="opacity" values="0;1" dur="0.5s" begin="5s" fill="freeze"/>
  </text>
</svg>