<svg width="800" height="600" xmlns="http://www.w3.org/2000/svg">
  <defs>
    <linearGradient id="bgGradient" x1="0%" y1="0%" x2="100%" y2="100%">
      <stop offset="0%" style="stop-color:#1e293b;stop-opacity:1" />
      <stop offset="100%" style="stop-color:#0f172a;stop-opacity:1" />
    </linearGradient>
    <filter id="shadow" x="-20%" y="-20%" width="140%" height="140%">
      <feDropShadow dx="2" dy="2" stdDeviation="3" flood-color="#000" flood-opacity="0.3"/>
    </filter>
    <!-- Trail effect filter -->
    <filter id="trailGlow" x="-50%" y="-50%" width="200%" height="200%">
      <feGaussianBlur stdDeviation="3" result="coloredBlur"/>
      <feMerge> 
        <feMergeNode in="coloredBlur"/>
        <feMergeNode in="SourceGraphic"/>
      </feMerge>
    </filter>
  </defs>
  
  <!-- Background -->
  <rect width="800" height="600" fill="url(#bgGradient)" rx="12"/>
  
  <!-- Header -->
  <text x="400" y="40" text-anchor="middle" fill="#f8fafc" font-size="24" font-weight="bold" font-family="Arial, sans-serif">
    GitHub Progress Report
    <animate attributeName="opacity" values="0;1" dur="0.8s" begin="0s" fill="freeze"/>
    <animateTransform attributeName="transform" type="translate" values="0,-20;0,0" dur="0.8s" begin="0s" fill="freeze"/>
  </text>
  
  <!-- User Info -->
  <text x="400" y="70" text-anchor="middle" fill="#cbd5e1" font-size="16" font-family="Arial, sans-serif">
    @maifeeulasad • BANGLADESH • 100 days analyzed
    <animate attributeName="opacity" values="0;1" dur="0.6s" begin="0.3s" fill="freeze"/>
  </text>
  
  <!-- Progress Cards -->
  <!-- Followers Card -->
  <g transform="translate(60, 100)">
    <rect width="206.66666666666666" height="120" fill="#1e293b" stroke="#334155" stroke-width="1" rx="8" filter="url(#shadow)">
      <animate attributeName="opacity" values="0;1" dur="0.6s" begin="0.2s" fill="freeze"/>
      <animateTransform attributeName="transform" type="scale" values="0.8;1" dur="0.6s" begin="0.2s" fill="freeze"/>
    </rect>
    <text x="103.33333333333333" y="25" text-anchor="middle" fill="#94a3b8" font-size="14" font-weight="bold" font-family="Arial, sans-serif">FOLLOWERS
      <animate attributeName="opacity" values="0;1" dur="0.5s" begin="0.4s" fill="freeze"/>
    </text>
    
    <text x="103.33333333333333" y="50" text-anchor="middle" fill="#22c55e" font-size="32" font-weight="bold" font-family="Arial, sans-serif">
      ↗
      <animate attributeName="opacity" values="0;1" dur="0.5s" begin="0.6s" fill="freeze"/>
      <animateTransform attributeName="transform" type="scale" values="0;1.2;1" dur="0.8s" begin="0.6s" fill="freeze"/>
    </text>
    
    <text x="103.33333333333333" y="75" text-anchor="middle" fill="#f8fafc" font-size="18" font-weight="bold" font-family="Arial, sans-serif">
      +6
      <animate attributeName="opacity" values="0;1" dur="0.5s" begin="0.8s" fill="freeze"/>
    </text>
    
    <text x="103.33333333333333" y="95" text-anchor="middle" fill="#94a3b8" font-size="12" font-family="Arial, sans-serif">
      #464 → #458
      <animate attributeName="opacity" values="0;1" dur="0.5s" begin="1s" fill="freeze"/>
    </text>
  </g>
  
  <!-- Public Contributions Card -->
  <g transform="translate(296.66666666666663, 100)">
    <rect width="206.66666666666666" height="120" fill="#1e293b" stroke="#334155" stroke-width="1" rx="8" filter="url(#shadow)">
      <animate attributeName="opacity" values="0;1" dur="0.6s" begin="0.4s" fill="freeze"/>
      <animateTransform attributeName="transform" type="scale" values="0.8;1" dur="0.6s" begin="0.4s" fill="freeze"/>
    </rect>
    <text x="103.33333333333333" y="25" text-anchor="middle" fill="#94a3b8" font-size="14" font-weight="bold" font-family="Arial, sans-serif">PUBLIC
      <animate attributeName="opacity" values="0;1" dur="0.5s" begin="0.6s" fill="freeze"/>
    </text>
    
    <text x="103.33333333333333" y="50" text-anchor="middle" fill="#22c55e" font-size="32" font-weight="bold" font-family="Arial, sans-serif">
      ↗
      <animate attributeName="opacity" values="0;1" dur="0.5s" begin="0.8s" fill="freeze"/>
      <animateTransform attributeName="transform" type="scale" values="0;1.2;1" dur="0.8s" begin="0.8s" fill="freeze"/>
    </text>
    
    <text x="103.33333333333333" y="75" text-anchor="middle" fill="#f8fafc" font-size="18" font-weight="bold" font-family="Arial, sans-serif">
      +12
      <animate attributeName="opacity" values="0;1" dur="0.5s" begin="1s" fill="freeze"/>
    </text>
    
    <text x="103.33333333333333" y="95" text-anchor="middle" fill="#94a3b8" font-size="12" font-family="Arial, sans-serif">
      #18 → #6
      <animate attributeName="opacity" values="0;1" dur="0.5s" begin="1.2s" fill="freeze"/>
    </text>
  </g>
  
  <!-- Total Contributions Card -->
  <g transform="translate(533.3333333333333, 100)">
    <rect width="206.66666666666666" height="120" fill="#1e293b" stroke="#334155" stroke-width="1" rx="8" filter="url(#shadow)">
      <animate attributeName="opacity" values="0;1" dur="0.6s" begin="0.6s" fill="freeze"/>
      <animateTransform attributeName="transform" type="scale" values="0.8;1" dur="0.6s" begin="0.6s" fill="freeze"/>
    </rect>
    <text x="103.33333333333333" y="25" text-anchor="middle" fill="#94a3b8" font-size="14" font-weight="bold" font-family="Arial, sans-serif">TOTAL
      <animate attributeName="opacity" values="0;1" dur="0.5s" begin="0.8s" fill="freeze"/>
    </text>
    
    <text x="103.33333333333333" y="50" text-anchor="middle" fill="#22c55e" font-size="32" font-weight="bold" font-family="Arial, sans-serif">
      ↗
      <animate attributeName="opacity" values="0;1" dur="0.5s" begin="1s" fill="freeze"/>
      <animateTransform attributeName="transform" type="scale" values="0;1.2;1" dur="0.8s" begin="1s" fill="freeze"/>
    </text>
    
    <text x="103.33333333333333" y="75" text-anchor="middle" fill="#f8fafc" font-size="18" font-weight="bold" font-family="Arial, sans-serif">
      +23
      <animate attributeName="opacity" values="0;1" dur="0.5s" begin="1.2s" fill="freeze"/>
    </text>
    
    <text x="103.33333333333333" y="95" text-anchor="middle" fill="#94a3b8" font-size="12" font-family="Arial, sans-serif">
      #41 → #18
      <animate attributeName="opacity" values="0;1" dur="0.5s" begin="1.4s" fill="freeze"/>
    </text>
  </g>
  
  <!-- Timeline Charts (if we have snapshots) -->
  
  <!-- 👥 Followers Count Chart -->
  <g transform="translate(60, 250)">
    <!-- Chart Background -->
    <rect x="0" y="0" width="213.33333333333334" height="200" fill="#0f172a" stroke="#334155" stroke-width="1" rx="8" filter="url(#shadow)">
      <animate attributeName="opacity" values="0;1" dur="0.5s" begin="1.8s" fill="freeze"/>
    </rect>
    
    <!-- Chart Title -->
    <text x="106.66666666666667" y="25" text-anchor="middle" fill="#f8fafc" font-size="14" font-weight="bold" font-family="Arial, sans-serif">
      👥 Followers Count
      <animate attributeName="opacity" values="0;1" dur="0.5s" begin="2s" fill="freeze"/>
    </text>
    
    <!-- Y-axis labels -->
    <text x="10" y="45" fill="#94a3b8" font-size="10" font-family="Arial, sans-serif">149
      <animate attributeName="opacity" values="0;1" dur="0.5s" begin="2.2s" fill="freeze"/>
    </text>
    <text x="10" y="185" fill="#94a3b8" font-size="10" font-family="Arial, sans-serif">142
      <animate attributeName="opacity" values="0;1" dur="0.5s" begin="2.2s" fill="freeze"/>
    </text>
    
    <!-- Chart Line with draw animation that follows the circle -->
    <path d="M 30,160 L 30.026073056447057,160 L 30.05125013157291,160 L 31.549940167925598,160 L 31.572303861702867,160 L 31.598341078897075,160 L 33.09389518062555,160 L 33.119394809027035,160 L 33.148102050558435,160 L 34.64464173174023,160 L 34.666862068506106,160 L 34.697647986702705,160 L 36.18185896490473,160 L 36.2154582644499,160 L 36.24640545928431,160 L 37.74154740960503,160 L 37.77029049038928,160 L 37.79949948146055,160 L 39.290681194341545,160 L 39.320624890096205,160 L 39.3543137877735,160 L 40.834026939743076,160 L 40.85916817561608,160 L 40.887947095653175,160 L 42.382658974939716,160 L 42.40136706492647,160 L 42.43428541866753,160 L 43.932007795193314,160 L 43.9546044441141,160 L 43.98533660343142,160 L 45.48193004349249,160 L 45.504562531666124,160 L 45.53145989092869,160 L 47.02758742070273,142.85714285714286 L 47.050542462151995,142.85714285714286 L 47.08000232799321,142.85714285714286 L 48.57733047273767,142.85714285714286 L 48.601145656255284,142.85714285714286 L 48.63435072401913,142.85714285714286 L 50.1167339003259,142.85714285714286 L 50.150064405474716,142.85714285714286 L 50.18269604519298,142.85714285714286 L 51.6744870253724,142.85714285714286 L 51.69199450038874,142.85714285714286 L 51.721848598011285,142.85714285714286 L 53.219947286691976,142.85714285714286 L 53.24444341601371,142.85714285714286 L 53.276662904324226,142.85714285714286 L 54.76189530123243,142.85714285714286 L 54.794043111037254,142.85714285714286 L 54.82276827219508,142.85714285714286 L 56.317032160821014,142.85714285714286 L 56.34231675370541,142.85714285714286 L 56.37007425503633,142.85714285714286 L 57.86308376981258,142.85714285714286 L 57.88788453278353,142.85714285714286 L 57.91295409015084,142.85714285714286 L 57.952681901933055,142.85714285714286 L 59.416930416298634,142.85714285714286 L 59.44309307087781,142.85714285714286 L 59.47029506378959,142.85714285714286 L 60.96412888138135,142.85714285714286 L 60.99021985745483,142.85714285714286 L 61.01872998309556,142.85714285714286 L 62.51159614086042,142.85714285714286 L 62.5356084402687,142.85714285714286 L 62.563007549071145,142.85714285714286 L 64.05530027879044,142.85714285714286 L 64.08415087733323,142.85714285714286 L 65.61443321507159,142.85714285714286 L 65.63195860971436,142.85714285714286 L 65.65976986992456,142.85714285714286 L 67.15498349875097,142.85714285714286 L 67.17965882433694,142.85714285714286 L 67.21015802851075,142.85714285714286 L 68.70286290963779,142.85714285714286 L 68.72694688755178,142.85714285714286 L 68.75402344307858,142.85714285714286 L 70.25382449626957,142.85714285714286 L 70.27966459757312,142.85714285714286 L 70.31204536252145,142.85714285714286 L 71.80369298568948,142.85714285714286 L 71.83154008515251,142.85714285714286 L 71.8582403285244,142.85714285714286 L 73.35452913493627,142.85714285714286 L 73.3716602977977,142.85714285714286 L 73.40067217297832,142.85714285714286 L 74.89740897005078,142.85714285714286 L 74.9198085030809,142.85714285714286 L 74.94550524737303,142.85714285714286 L 76.44534213981689,142.85714285714286 L 76.46621850460095,142.85714285714286 L 76.49788248449232,142.85714285714286 L 77.99291691705449,142.85714285714286 L 78.01581819962448,142.85714285714286 L 78.04567229724702,142.85714285714286 L 79.53821590173624,142.85714285714286 L 79.56027496186431,142.85714285714286 L 79.59276324457119,142.85714285714286 L 81.08550396495107,142.85714285714286 L 81.11788472989943,142.85714285714286 L 81.15094644065188,142.85714285714286 L 82.63901013853507,142.85714285714286 L 82.66278948279985,142.85714285714286 L 82.69269733930167,142.85714285714286 L 84.18687162979549,142.85714285714286 L 84.2103105011582,142.85714285714286 L 84.24021835766001,142.85714285714286 L 85.7358620575206,142.85714285714286 L 85.7666479757172,142.85714285714286 L 85.80302481735811,142.85714285714286 L 87.28452993197008,142.85714285714286 L 87.30689362574736,142.85714285714286 L 87.33549334952022,142.85714285714286 L 88.83443426064284,142.85714285714286 L 88.85341114502594,142.85714285714286 L 88.88335484078061,142.85714285714286 L 90.37760080978013,142.85714285714286 L 90.39992866430455,142.85714285714286 L 90.42843878994529,142.85714285714286 L 90.46744981667054,142.85714285714286 L 91.92996012727298,142.85714285714286 L 91.95976046601625,142.85714285714286 L 91.98934576924243,142.85714285714286 L 93.47439896988638,142.85714285714286 L 93.50169056093029,142.85714285714286 L 93.53020068657102,142.85714285714286 L 95.0253247172653,142.85714285714286 L 95.04066391748434,142.85714285714286 L 95.07666444697034,142.85714285714286 L 96.57193183467602,142.85714285714286 L 96.59737770419824,142.85714285714286 L 96.61828990823516,142.85714285714286 L 98.12135233343533,142.85714285714286 L 98.14540047209645,142.85714285714286 L 98.174663222047,142.85714285714286 L 99.67045027891899,142.85714285714286 L 99.69614702321114,142.85714285714286 L 99.72431667594982,142.85714285714286 L 101.21732619072607,142.85714285714286 L 101.23773664522311,142.85714285714286 L 101.26925726810309,142.85714285714286 L 102.76837737548996,142.85714285714286 L 102.7904185159916,142.85714285714286 L 102.82132987157316,142.85714285714286 L 104.31554000131982,142.85714285714286 L 104.34121882598555,142.85714285714286 L 104.37214810119355,142.85714285714286 L 105.86289974304034,142.85714285714286 L 105.88768258638488,142.85714285714286 L 105.90622939973382,142.85714285714286 L 107.4081270492164,142.85714285714286 L 107.44317783850195,142.85714285714286 L 107.46684966500817,142.85714285714286 L 108.95973374239945,142.85714285714286 L 108.98379980068701,142.85714285714286 L 110.53386540599759,142.85714285714286 L 110.56027893534669,142.85714285714286 L 112.05269710245095,142.85714285714286 L 112.07592093829658,142.85714285714286 L 112.10357092186895,142.85714285714286 L 113.60441131339253,142.85714285714286 L 113.63329775118817,142.85714285714286 L 113.66085813662843,142.85714285714286 L 115.1526849560607,142.85714285714286 L 115.18237777704542,142.85714285714286 L 115.21135381297317,142.85714285714286 L 116.70361070343962,142.85714285714286 L 116.73131444589126,142.85714285714286 L 116.7551475490353,142.85714285714286 L 118.24749403763387,142.85714285714286 L 118.27582496701037,40 L 118.30490852069666,40 L 119.82411652930494,40 L 119.8500283091142,40 L 121.33950765748489,40 L 121.36735475694793,40 L 121.38600908805542,40 L 122.8916161002078,40 L 122.91933776228588,40 L 122.94765077203596,40 L 124.43693300451598,40 L 124.46576568343235,40 L 124.50121070449921,40 L 125.99155019493827,40 L 126.02179852434215,40 L 126.04331999567748,40 L 127.5387665796474,40 L 127.56297599494636,40 L 127.5926150570518,40 L 129.08956688964136,40 L 129.14443678575196,40 L 130.63353982196773,40 L 130.66321472332604,40 L 130.6905600732492,40 L 132.18347998989333,40 L 132.2115600444999,40 L 132.2408765533297,40 L 133.7323628998599,40 L 133.76099846288562,40 L 133.79321795119614,40 L 135.2799018378447,40 L 135.31004264949001,40 L 135.34100776395084,40 L 136.83082758522363,40 L 136.86039496882336,40 L 136.88858254118847,40 L 138.38121574380983,40 L 138.40248634037522,40 L 138.43192828659,40 L 139.9240239004186,40 L 139.9513871699682,40 L 139.98310490873885,40 L 141.47297848889087,40 L 141.50018048180266,40 L 141.53012417755733,40 L 143.021377568944,40 L 143.04714599174184,40 L 143.07891748939176,40 L 144.57085182658258,40 L 144.59662024938044,40 L 144.62050711140375,40 L 146.12441175904587,40 L 146.14636330141536,40 L 146.17831399532952,40 L 147.66795462033804,40 L 147.69322129359603,40 L 147.72164182110464,40 L 149.2154756386964,40 L 149.23773181471512,40 L 149.27138487313957,40 L 150.7621365149864,40 L 150.7882633303127,40 L 150.8203215419854,40 L 152.3086719538914,40 L 152.3330426458282,40 L 152.3677171229588,40 L 153.85282408248202,40 L 153.88430886610917,40 L 153.91663587217823,40 L 155.40652737195668,40 L 155.4316686078297,40 L 155.46116431292376,40 L 156.95686177166363,40 L 156.98401000569612,40 L 157.01700003794286,40 L 158.50250122924743,40 L 158.53421896801808,40 L 158.5692697573036,40 L 160.05382120840767,40 L 160.0779410255745,40 L 160.10949748770733,40 L 161.60313418940845,40 L 161.62555164206498,40 L 161.6571797827035,40 L 163.1479851834296,40 L 163.17271426789483,40 L 163.2036793823557,40 L 164.6968143345169,40 L 164.72489438912345,40 L 166.24754296600514,40 L 166.27334722805585,40 L 166.29780751812473,40 L 167.79649755447744,40 L 167.826226214715,40 L 167.86002263015084,40 L 169.33491540261232,40 L 169.37116680686827,40 L 169.40207816244984,40 L 170.8895146734082,40 L 170.9089216288255,40 L 170.94571062187416,40 L 172.4382721459898,40 L 172.4657966921772,40 L 172.49631381597743,40 L 173.9888215812138,40 L 174.01482295915517,40 L 174.0423475053426,40 L 175.53297370980442,40 L 175.56264861116273,40 L 175.5920726377511,40 L 177.08031553189855,40 L 177.1075175248103,40 L 177.13819592524837,40 L 178.6336425092183,40 L 178.66423131152422,40 L 178.697221343771,40 L 180.18444281921225,40 L 180.20757705692577,40 L 180.2587017511137,40 L 181.73341532731095,40 L 181.75694379680579,40 L 181.78651118040554,40 L 183.2764922783161,40 L 183.30412434226207,40 L 183.33333333333334,40" stroke="#22c55e" stroke-width="2" fill="none" stroke-dasharray="14800" stroke-dashoffset="14800">
      <animate attributeName="stroke-dashoffset" values="14800;0" dur="3s" begin="2.6s" fill="freeze"/>
    </path>
    
    <!-- Glow effect for the line that also follows the circle -->
    <path d="M 30,160 L 30.026073056447057,160 L 30.05125013157291,160 L 31.549940167925598,160 L 31.572303861702867,160 L 31.598341078897075,160 L 33.09389518062555,160 L 33.119394809027035,160 L 33.148102050558435,160 L 34.64464173174023,160 L 34.666862068506106,160 L 34.697647986702705,160 L 36.18185896490473,160 L 36.2154582644499,160 L 36.24640545928431,160 L 37.74154740960503,160 L 37.77029049038928,160 L 37.79949948146055,160 L 39.290681194341545,160 L 39.320624890096205,160 L 39.3543137877735,160 L 40.834026939743076,160 L 40.85916817561608,160 L 40.887947095653175,160 L 42.382658974939716,160 L 42.40136706492647,160 L 42.43428541866753,160 L 43.932007795193314,160 L 43.9546044441141,160 L 43.98533660343142,160 L 45.48193004349249,160 L 45.504562531666124,160 L 45.53145989092869,160 L 47.02758742070273,142.85714285714286 L 47.050542462151995,142.85714285714286 L 47.08000232799321,142.85714285714286 L 48.57733047273767,142.85714285714286 L 48.601145656255284,142.85714285714286 L 48.63435072401913,142.85714285714286 L 50.1167339003259,142.85714285714286 L 50.150064405474716,142.85714285714286 L 50.18269604519298,142.85714285714286 L 51.6744870253724,142.85714285714286 L 51.69199450038874,142.85714285714286 L 51.721848598011285,142.85714285714286 L 53.219947286691976,142.85714285714286 L 53.24444341601371,142.85714285714286 L 53.276662904324226,142.85714285714286 L 54.76189530123243,142.85714285714286 L 54.794043111037254,142.85714285714286 L 54.82276827219508,142.85714285714286 L 56.317032160821014,142.85714285714286 L 56.34231675370541,142.85714285714286 L 56.37007425503633,142.85714285714286 L 57.86308376981258,142.85714285714286 L 57.88788453278353,142.85714285714286 L 57.91295409015084,142.85714285714286 L 57.952681901933055,142.85714285714286 L 59.416930416298634,142.85714285714286 L 59.44309307087781,142.85714285714286 L 59.47029506378959,142.85714285714286 L 60.96412888138135,142.85714285714286 L 60.99021985745483,142.85714285714286 L 61.01872998309556,142.85714285714286 L 62.51159614086042,142.85714285714286 L 62.5356084402687,142.85714285714286 L 62.563007549071145,142.85714285714286 L 64.05530027879044,142.85714285714286 L 64.08415087733323,142.85714285714286 L 65.61443321507159,142.85714285714286 L 65.63195860971436,142.85714285714286 L 65.65976986992456,142.85714285714286 L 67.15498349875097,142.85714285714286 L 67.17965882433694,142.85714285714286 L 67.21015802851075,142.85714285714286 L 68.70286290963779,142.85714285714286 L 68.72694688755178,142.85714285714286 L 68.75402344307858,142.85714285714286 L 70.25382449626957,142.85714285714286 L 70.27966459757312,142.85714285714286 L 70.31204536252145,142.85714285714286 L 71.80369298568948,142.85714285714286 L 71.83154008515251,142.85714285714286 L 71.8582403285244,142.85714285714286 L 73.35452913493627,142.85714285714286 L 73.3716602977977,142.85714285714286 L 73.40067217297832,142.85714285714286 L 74.89740897005078,142.85714285714286 L 74.9198085030809,142.85714285714286 L 74.94550524737303,142.85714285714286 L 76.44534213981689,142.85714285714286 L 76.46621850460095,142.85714285714286 L 76.49788248449232,142.85714285714286 L 77.99291691705449,142.85714285714286 L 78.01581819962448,142.85714285714286 L 78.04567229724702,142.85714285714286 L 79.53821590173624,142.85714285714286 L 79.56027496186431,142.85714285714286 L 79.59276324457119,142.85714285714286 L 81.08550396495107,142.85714285714286 L 81.11788472989943,142.85714285714286 L 81.15094644065188,142.85714285714286 L 82.63901013853507,142.85714285714286 L 82.66278948279985,142.85714285714286 L 82.69269733930167,142.85714285714286 L 84.18687162979549,142.85714285714286 L 84.2103105011582,142.85714285714286 L 84.24021835766001,142.85714285714286 L 85.7358620575206,142.85714285714286 L 85.7666479757172,142.85714285714286 L 85.80302481735811,142.85714285714286 L 87.28452993197008,142.85714285714286 L 87.30689362574736,142.85714285714286 L 87.33549334952022,142.85714285714286 L 88.83443426064284,142.85714285714286 L 88.85341114502594,142.85714285714286 L 88.88335484078061,142.85714285714286 L 90.37760080978013,142.85714285714286 L 90.39992866430455,142.85714285714286 L 90.42843878994529,142.85714285714286 L 90.46744981667054,142.85714285714286 L 91.92996012727298,142.85714285714286 L 91.95976046601625,142.85714285714286 L 91.98934576924243,142.85714285714286 L 93.47439896988638,142.85714285714286 L 93.50169056093029,142.85714285714286 L 93.53020068657102,142.85714285714286 L 95.0253247172653,142.85714285714286 L 95.04066391748434,142.85714285714286 L 95.07666444697034,142.85714285714286 L 96.57193183467602,142.85714285714286 L 96.59737770419824,142.85714285714286 L 96.61828990823516,142.85714285714286 L 98.12135233343533,142.85714285714286 L 98.14540047209645,142.85714285714286 L 98.174663222047,142.85714285714286 L 99.67045027891899,142.85714285714286 L 99.69614702321114,142.85714285714286 L 99.72431667594982,142.85714285714286 L 101.21732619072607,142.85714285714286 L 101.23773664522311,142.85714285714286 L 101.26925726810309,142.85714285714286 L 102.76837737548996,142.85714285714286 L 102.7904185159916,142.85714285714286 L 102.82132987157316,142.85714285714286 L 104.31554000131982,142.85714285714286 L 104.34121882598555,142.85714285714286 L 104.37214810119355,142.85714285714286 L 105.86289974304034,142.85714285714286 L 105.88768258638488,142.85714285714286 L 105.90622939973382,142.85714285714286 L 107.4081270492164,142.85714285714286 L 107.44317783850195,142.85714285714286 L 107.46684966500817,142.85714285714286 L 108.95973374239945,142.85714285714286 L 108.98379980068701,142.85714285714286 L 110.53386540599759,142.85714285714286 L 110.56027893534669,142.85714285714286 L 112.05269710245095,142.85714285714286 L 112.07592093829658,142.85714285714286 L 112.10357092186895,142.85714285714286 L 113.60441131339253,142.85714285714286 L 113.63329775118817,142.85714285714286 L 113.66085813662843,142.85714285714286 L 115.1526849560607,142.85714285714286 L 115.18237777704542,142.85714285714286 L 115.21135381297317,142.85714285714286 L 116.70361070343962,142.85714285714286 L 116.73131444589126,142.85714285714286 L 116.7551475490353,142.85714285714286 L 118.24749403763387,142.85714285714286 L 118.27582496701037,40 L 118.30490852069666,40 L 119.82411652930494,40 L 119.8500283091142,40 L 121.33950765748489,40 L 121.36735475694793,40 L 121.38600908805542,40 L 122.8916161002078,40 L 122.91933776228588,40 L 122.94765077203596,40 L 124.43693300451598,40 L 124.46576568343235,40 L 124.50121070449921,40 L 125.99155019493827,40 L 126.02179852434215,40 L 126.04331999567748,40 L 127.5387665796474,40 L 127.56297599494636,40 L 127.5926150570518,40 L 129.08956688964136,40 L 129.14443678575196,40 L 130.63353982196773,40 L 130.66321472332604,40 L 130.6905600732492,40 L 132.18347998989333,40 L 132.2115600444999,40 L 132.2408765533297,40 L 133.7323628998599,40 L 133.76099846288562,40 L 133.79321795119614,40 L 135.2799018378447,40 L 135.31004264949001,40 L 135.34100776395084,40 L 136.83082758522363,40 L 136.86039496882336,40 L 136.88858254118847,40 L 138.38121574380983,40 L 138.40248634037522,40 L 138.43192828659,40 L 139.9240239004186,40 L 139.9513871699682,40 L 139.98310490873885,40 L 141.47297848889087,40 L 141.50018048180266,40 L 141.53012417755733,40 L 143.021377568944,40 L 143.04714599174184,40 L 143.07891748939176,40 L 144.57085182658258,40 L 144.59662024938044,40 L 144.62050711140375,40 L 146.12441175904587,40 L 146.14636330141536,40 L 146.17831399532952,40 L 147.66795462033804,40 L 147.69322129359603,40 L 147.72164182110464,40 L 149.2154756386964,40 L 149.23773181471512,40 L 149.27138487313957,40 L 150.7621365149864,40 L 150.7882633303127,40 L 150.8203215419854,40 L 152.3086719538914,40 L 152.3330426458282,40 L 152.3677171229588,40 L 153.85282408248202,40 L 153.88430886610917,40 L 153.91663587217823,40 L 155.40652737195668,40 L 155.4316686078297,40 L 155.46116431292376,40 L 156.95686177166363,40 L 156.98401000569612,40 L 157.01700003794286,40 L 158.50250122924743,40 L 158.53421896801808,40 L 158.5692697573036,40 L 160.05382120840767,40 L 160.0779410255745,40 L 160.10949748770733,40 L 161.60313418940845,40 L 161.62555164206498,40 L 161.6571797827035,40 L 163.1479851834296,40 L 163.17271426789483,40 L 163.2036793823557,40 L 164.6968143345169,40 L 164.72489438912345,40 L 166.24754296600514,40 L 166.27334722805585,40 L 166.29780751812473,40 L 167.79649755447744,40 L 167.826226214715,40 L 167.86002263015084,40 L 169.33491540261232,40 L 169.37116680686827,40 L 169.40207816244984,40 L 170.8895146734082,40 L 170.9089216288255,40 L 170.94571062187416,40 L 172.4382721459898,40 L 172.4657966921772,40 L 172.49631381597743,40 L 173.9888215812138,40 L 174.01482295915517,40 L 174.0423475053426,40 L 175.53297370980442,40 L 175.56264861116273,40 L 175.5920726377511,40 L 177.08031553189855,40 L 177.1075175248103,40 L 177.13819592524837,40 L 178.6336425092183,40 L 178.66423131152422,40 L 178.697221343771,40 L 180.18444281921225,40 L 180.20757705692577,40 L 180.2587017511137,40 L 181.73341532731095,40 L 181.75694379680579,40 L 181.78651118040554,40 L 183.2764922783161,40 L 183.30412434226207,40 L 183.33333333333334,40" stroke="#22c55e" stroke-width="4" fill="none" opacity="0.4" stroke-dasharray="14800" stroke-dashoffset="14800">
      <animate attributeName="stroke-dashoffset" values="14800;0" dur="3s" begin="2.6s" fill="freeze"/>
    </path>
    
    <!-- Animated circle that moves along the path and draws the line -->
    <circle r="5" fill="#22c55e" opacity="0" filter="url(#trailGlow)">
      <animate attributeName="opacity" values="0;1;1;1" dur="3.2s" begin="2.4s" fill="freeze"/>
      <animate attributeName="r" values="5;6;5" dur="1s" begin="2.4s" repeatCount="3"/>
      <animateMotion dur="3s" begin="2.4s" fill="freeze">
        <mpath href="#path_followersCount_60"/>
      </animateMotion>
    </circle>
    
    <!-- Small trail dots that fade out -->
    <circle r="2" fill="#22c55e" opacity="0">
      <animate attributeName="opacity" values="0;0.6;0" dur="0.8s" begin="2.8s" fill="freeze"/>
      <animateMotion dur="3s" begin="2.4s" fill="freeze">
        <mpath href="#path_followersCount_60"/>
      </animateMotion>
    </circle>
    
    <!-- Hidden path for motion animation -->
    <path id="path_followersCount_60" d="M 30,160 L 30.026073056447057,160 L 30.05125013157291,160 L 31.549940167925598,160 L 31.572303861702867,160 L 31.598341078897075,160 L 33.09389518062555,160 L 33.119394809027035,160 L 33.148102050558435,160 L 34.64464173174023,160 L 34.666862068506106,160 L 34.697647986702705,160 L 36.18185896490473,160 L 36.2154582644499,160 L 36.24640545928431,160 L 37.74154740960503,160 L 37.77029049038928,160 L 37.79949948146055,160 L 39.290681194341545,160 L 39.320624890096205,160 L 39.3543137877735,160 L 40.834026939743076,160 L 40.85916817561608,160 L 40.887947095653175,160 L 42.382658974939716,160 L 42.40136706492647,160 L 42.43428541866753,160 L 43.932007795193314,160 L 43.9546044441141,160 L 43.98533660343142,160 L 45.48193004349249,160 L 45.504562531666124,160 L 45.53145989092869,160 L 47.02758742070273,142.85714285714286 L 47.050542462151995,142.85714285714286 L 47.08000232799321,142.85714285714286 L 48.57733047273767,142.85714285714286 L 48.601145656255284,142.85714285714286 L 48.63435072401913,142.85714285714286 L 50.1167339003259,142.85714285714286 L 50.150064405474716,142.85714285714286 L 50.18269604519298,142.85714285714286 L 51.6744870253724,142.85714285714286 L 51.69199450038874,142.85714285714286 L 51.721848598011285,142.85714285714286 L 53.219947286691976,142.85714285714286 L 53.24444341601371,142.85714285714286 L 53.276662904324226,142.85714285714286 L 54.76189530123243,142.85714285714286 L 54.794043111037254,142.85714285714286 L 54.82276827219508,142.85714285714286 L 56.317032160821014,142.85714285714286 L 56.34231675370541,142.85714285714286 L 56.37007425503633,142.85714285714286 L 57.86308376981258,142.85714285714286 L 57.88788453278353,142.85714285714286 L 57.91295409015084,142.85714285714286 L 57.952681901933055,142.85714285714286 L 59.416930416298634,142.85714285714286 L 59.44309307087781,142.85714285714286 L 59.47029506378959,142.85714285714286 L 60.96412888138135,142.85714285714286 L 60.99021985745483,142.85714285714286 L 61.01872998309556,142.85714285714286 L 62.51159614086042,142.85714285714286 L 62.5356084402687,142.85714285714286 L 62.563007549071145,142.85714285714286 L 64.05530027879044,142.85714285714286 L 64.08415087733323,142.85714285714286 L 65.61443321507159,142.85714285714286 L 65.63195860971436,142.85714285714286 L 65.65976986992456,142.85714285714286 L 67.15498349875097,142.85714285714286 L 67.17965882433694,142.85714285714286 L 67.21015802851075,142.85714285714286 L 68.70286290963779,142.85714285714286 L 68.72694688755178,142.85714285714286 L 68.75402344307858,142.85714285714286 L 70.25382449626957,142.85714285714286 L 70.27966459757312,142.85714285714286 L 70.31204536252145,142.85714285714286 L 71.80369298568948,142.85714285714286 L 71.83154008515251,142.85714285714286 L 71.8582403285244,142.85714285714286 L 73.35452913493627,142.85714285714286 L 73.3716602977977,142.85714285714286 L 73.40067217297832,142.85714285714286 L 74.89740897005078,142.85714285714286 L 74.9198085030809,142.85714285714286 L 74.94550524737303,142.85714285714286 L 76.44534213981689,142.85714285714286 L 76.46621850460095,142.85714285714286 L 76.49788248449232,142.85714285714286 L 77.99291691705449,142.85714285714286 L 78.01581819962448,142.85714285714286 L 78.04567229724702,142.85714285714286 L 79.53821590173624,142.85714285714286 L 79.56027496186431,142.85714285714286 L 79.59276324457119,142.85714285714286 L 81.08550396495107,142.85714285714286 L 81.11788472989943,142.85714285714286 L 81.15094644065188,142.85714285714286 L 82.63901013853507,142.85714285714286 L 82.66278948279985,142.85714285714286 L 82.69269733930167,142.85714285714286 L 84.18687162979549,142.85714285714286 L 84.2103105011582,142.85714285714286 L 84.24021835766001,142.85714285714286 L 85.7358620575206,142.85714285714286 L 85.7666479757172,142.85714285714286 L 85.80302481735811,142.85714285714286 L 87.28452993197008,142.85714285714286 L 87.30689362574736,142.85714285714286 L 87.33549334952022,142.85714285714286 L 88.83443426064284,142.85714285714286 L 88.85341114502594,142.85714285714286 L 88.88335484078061,142.85714285714286 L 90.37760080978013,142.85714285714286 L 90.39992866430455,142.85714285714286 L 90.42843878994529,142.85714285714286 L 90.46744981667054,142.85714285714286 L 91.92996012727298,142.85714285714286 L 91.95976046601625,142.85714285714286 L 91.98934576924243,142.85714285714286 L 93.47439896988638,142.85714285714286 L 93.50169056093029,142.85714285714286 L 93.53020068657102,142.85714285714286 L 95.0253247172653,142.85714285714286 L 95.04066391748434,142.85714285714286 L 95.07666444697034,142.85714285714286 L 96.57193183467602,142.85714285714286 L 96.59737770419824,142.85714285714286 L 96.61828990823516,142.85714285714286 L 98.12135233343533,142.85714285714286 L 98.14540047209645,142.85714285714286 L 98.174663222047,142.85714285714286 L 99.67045027891899,142.85714285714286 L 99.69614702321114,142.85714285714286 L 99.72431667594982,142.85714285714286 L 101.21732619072607,142.85714285714286 L 101.23773664522311,142.85714285714286 L 101.26925726810309,142.85714285714286 L 102.76837737548996,142.85714285714286 L 102.7904185159916,142.85714285714286 L 102.82132987157316,142.85714285714286 L 104.31554000131982,142.85714285714286 L 104.34121882598555,142.85714285714286 L 104.37214810119355,142.85714285714286 L 105.86289974304034,142.85714285714286 L 105.88768258638488,142.85714285714286 L 105.90622939973382,142.85714285714286 L 107.4081270492164,142.85714285714286 L 107.44317783850195,142.85714285714286 L 107.46684966500817,142.85714285714286 L 108.95973374239945,142.85714285714286 L 108.98379980068701,142.85714285714286 L 110.53386540599759,142.85714285714286 L 110.56027893534669,142.85714285714286 L 112.05269710245095,142.85714285714286 L 112.07592093829658,142.85714285714286 L 112.10357092186895,142.85714285714286 L 113.60441131339253,142.85714285714286 L 113.63329775118817,142.85714285714286 L 113.66085813662843,142.85714285714286 L 115.1526849560607,142.85714285714286 L 115.18237777704542,142.85714285714286 L 115.21135381297317,142.85714285714286 L 116.70361070343962,142.85714285714286 L 116.73131444589126,142.85714285714286 L 116.7551475490353,142.85714285714286 L 118.24749403763387,142.85714285714286 L 118.27582496701037,40 L 118.30490852069666,40 L 119.82411652930494,40 L 119.8500283091142,40 L 121.33950765748489,40 L 121.36735475694793,40 L 121.38600908805542,40 L 122.8916161002078,40 L 122.91933776228588,40 L 122.94765077203596,40 L 124.43693300451598,40 L 124.46576568343235,40 L 124.50121070449921,40 L 125.99155019493827,40 L 126.02179852434215,40 L 126.04331999567748,40 L 127.5387665796474,40 L 127.56297599494636,40 L 127.5926150570518,40 L 129.08956688964136,40 L 129.14443678575196,40 L 130.63353982196773,40 L 130.66321472332604,40 L 130.6905600732492,40 L 132.18347998989333,40 L 132.2115600444999,40 L 132.2408765533297,40 L 133.7323628998599,40 L 133.76099846288562,40 L 133.79321795119614,40 L 135.2799018378447,40 L 135.31004264949001,40 L 135.34100776395084,40 L 136.83082758522363,40 L 136.86039496882336,40 L 136.88858254118847,40 L 138.38121574380983,40 L 138.40248634037522,40 L 138.43192828659,40 L 139.9240239004186,40 L 139.9513871699682,40 L 139.98310490873885,40 L 141.47297848889087,40 L 141.50018048180266,40 L 141.53012417755733,40 L 143.021377568944,40 L 143.04714599174184,40 L 143.07891748939176,40 L 144.57085182658258,40 L 144.59662024938044,40 L 144.62050711140375,40 L 146.12441175904587,40 L 146.14636330141536,40 L 146.17831399532952,40 L 147.66795462033804,40 L 147.69322129359603,40 L 147.72164182110464,40 L 149.2154756386964,40 L 149.23773181471512,40 L 149.27138487313957,40 L 150.7621365149864,40 L 150.7882633303127,40 L 150.8203215419854,40 L 152.3086719538914,40 L 152.3330426458282,40 L 152.3677171229588,40 L 153.85282408248202,40 L 153.88430886610917,40 L 153.91663587217823,40 L 155.40652737195668,40 L 155.4316686078297,40 L 155.46116431292376,40 L 156.95686177166363,40 L 156.98401000569612,40 L 157.01700003794286,40 L 158.50250122924743,40 L 158.53421896801808,40 L 158.5692697573036,40 L 160.05382120840767,40 L 160.0779410255745,40 L 160.10949748770733,40 L 161.60313418940845,40 L 161.62555164206498,40 L 161.6571797827035,40 L 163.1479851834296,40 L 163.17271426789483,40 L 163.2036793823557,40 L 164.6968143345169,40 L 164.72489438912345,40 L 166.24754296600514,40 L 166.27334722805585,40 L 166.29780751812473,40 L 167.79649755447744,40 L 167.826226214715,40 L 167.86002263015084,40 L 169.33491540261232,40 L 169.37116680686827,40 L 169.40207816244984,40 L 170.8895146734082,40 L 170.9089216288255,40 L 170.94571062187416,40 L 172.4382721459898,40 L 172.4657966921772,40 L 172.49631381597743,40 L 173.9888215812138,40 L 174.01482295915517,40 L 174.0423475053426,40 L 175.53297370980442,40 L 175.56264861116273,40 L 175.5920726377511,40 L 177.08031553189855,40 L 177.1075175248103,40 L 177.13819592524837,40 L 178.6336425092183,40 L 178.66423131152422,40 L 178.697221343771,40 L 180.18444281921225,40 L 180.20757705692577,40 L 180.2587017511137,40 L 181.73341532731095,40 L 181.75694379680579,40 L 181.78651118040554,40 L 183.2764922783161,40 L 183.30412434226207,40 L 183.33333333333334,40" fill="none" stroke="none"/>
  </g>
  <!-- 🔓 Public Contributions Chart -->
  <g transform="translate(293.33333333333337, 250)">
    <!-- Chart Background -->
    <rect x="0" y="0" width="213.33333333333334" height="200" fill="#0f172a" stroke="#334155" stroke-width="1" rx="8" filter="url(#shadow)">
      <animate attributeName="opacity" values="0;1" dur="0.5s" begin="2.3s" fill="freeze"/>
    </rect>
    
    <!-- Chart Title -->
    <text x="106.66666666666667" y="25" text-anchor="middle" fill="#f8fafc" font-size="14" font-weight="bold" font-family="Arial, sans-serif">
      🔓 Public Contributions
      <animate attributeName="opacity" values="0;1" dur="0.5s" begin="2.5s" fill="freeze"/>
    </text>
    
    <!-- Y-axis labels -->
    <text x="10" y="45" fill="#94a3b8" font-size="10" font-family="Arial, sans-serif">3,180
      <animate attributeName="opacity" values="0;1" dur="0.5s" begin="2.6999999999999997s" fill="freeze"/>
    </text>
    <text x="10" y="185" fill="#94a3b8" font-size="10" font-family="Arial, sans-serif">1,753
      <animate attributeName="opacity" values="0;1" dur="0.5s" begin="2.6999999999999997s" fill="freeze"/>
    </text>
    
    <!-- Chart Line with draw animation that follows the circle -->
    <path d="M 30,160 L 30.026073056447057,160 L 30.05125013157291,160 L 31.549940167925598,160 L 31.572303861702867,160 L 31.598341078897075,160 L 33.09389518062555,160 L 33.119394809027035,160 L 33.148102050558435,160 L 34.64464173174023,160 L 34.666862068506106,160 L 34.697647986702705,160 L 36.18185896490473,160 L 36.2154582644499,160 L 36.24640545928431,160 L 37.74154740960503,160 L 37.77029049038928,160 L 37.79949948146055,160 L 39.290681194341545,160 L 39.320624890096205,160 L 39.3543137877735,160 L 40.834026939743076,160 L 40.85916817561608,160 L 40.887947095653175,160 L 42.382658974939716,160 L 42.40136706492647,160 L 42.43428541866753,160 L 43.932007795193314,160 L 43.9546044441141,160 L 43.98533660343142,160 L 45.48193004349249,160 L 45.504562531666124,160 L 45.53145989092869,160 L 47.02758742070273,82.97126839523476 L 47.050542462151995,82.97126839523476 L 47.08000232799321,82.97126839523476 L 48.57733047273767,82.97126839523476 L 48.601145656255284,82.97126839523476 L 48.63435072401913,82.97126839523476 L 50.1167339003259,82.97126839523476 L 50.150064405474716,82.97126839523476 L 50.18269604519298,82.97126839523476 L 51.6744870253724,82.97126839523476 L 51.69199450038874,82.97126839523476 L 51.721848598011285,82.97126839523476 L 53.219947286691976,82.97126839523476 L 53.24444341601371,82.97126839523476 L 53.276662904324226,82.97126839523476 L 54.76189530123243,82.97126839523476 L 54.794043111037254,82.97126839523476 L 54.82276827219508,82.97126839523476 L 56.317032160821014,82.97126839523476 L 56.34231675370541,82.97126839523476 L 56.37007425503633,82.97126839523476 L 57.86308376981258,82.97126839523476 L 57.88788453278353,82.97126839523476 L 57.91295409015084,82.97126839523476 L 57.952681901933055,82.97126839523476 L 59.416930416298634,82.97126839523476 L 59.44309307087781,82.97126839523476 L 59.47029506378959,82.97126839523476 L 60.96412888138135,82.97126839523476 L 60.99021985745483,82.97126839523476 L 61.01872998309556,82.97126839523476 L 62.51159614086042,82.97126839523476 L 62.5356084402687,82.97126839523476 L 62.563007549071145,82.97126839523476 L 64.05530027879044,82.97126839523476 L 64.08415087733323,82.97126839523476 L 65.61443321507159,82.97126839523476 L 65.63195860971436,82.97126839523476 L 65.65976986992456,82.97126839523476 L 67.15498349875097,82.97126839523476 L 67.17965882433694,82.97126839523476 L 67.21015802851075,82.97126839523476 L 68.70286290963779,82.97126839523476 L 68.72694688755178,82.97126839523476 L 68.75402344307858,82.97126839523476 L 70.25382449626957,82.97126839523476 L 70.27966459757312,82.97126839523476 L 70.31204536252145,82.97126839523476 L 71.80369298568948,82.97126839523476 L 71.83154008515251,82.97126839523476 L 71.8582403285244,82.97126839523476 L 73.35452913493627,82.97126839523476 L 73.3716602977977,82.97126839523476 L 73.40067217297832,82.97126839523476 L 74.89740897005078,82.97126839523476 L 74.9198085030809,82.97126839523476 L 74.94550524737303,82.97126839523476 L 76.44534213981689,82.97126839523476 L 76.46621850460095,82.97126839523476 L 76.49788248449232,82.97126839523476 L 77.99291691705449,82.97126839523476 L 78.01581819962448,82.97126839523476 L 78.04567229724702,82.97126839523476 L 79.53821590173624,82.97126839523476 L 79.56027496186431,82.97126839523476 L 79.59276324457119,82.97126839523476 L 81.08550396495107,82.97126839523476 L 81.11788472989943,82.97126839523476 L 81.15094644065188,82.97126839523476 L 82.63901013853507,82.97126839523476 L 82.66278948279985,82.97126839523476 L 82.69269733930167,82.97126839523476 L 84.18687162979549,82.97126839523476 L 84.2103105011582,82.97126839523476 L 84.24021835766001,82.97126839523476 L 85.7358620575206,82.97126839523476 L 85.7666479757172,82.97126839523476 L 85.80302481735811,82.97126839523476 L 87.28452993197008,82.97126839523476 L 87.30689362574736,82.97126839523476 L 87.33549334952022,82.97126839523476 L 88.83443426064284,82.97126839523476 L 88.85341114502594,82.97126839523476 L 88.88335484078061,82.97126839523476 L 90.37760080978013,82.97126839523476 L 90.39992866430455,82.97126839523476 L 90.42843878994529,82.97126839523476 L 90.46744981667054,82.97126839523476 L 91.92996012727298,82.97126839523476 L 91.95976046601625,82.97126839523476 L 91.98934576924243,82.97126839523476 L 93.47439896988638,82.97126839523476 L 93.50169056093029,82.97126839523476 L 93.53020068657102,82.97126839523476 L 95.0253247172653,82.97126839523476 L 95.04066391748434,82.97126839523476 L 95.07666444697034,82.97126839523476 L 96.57193183467602,82.97126839523476 L 96.59737770419824,82.97126839523476 L 96.61828990823516,82.97126839523476 L 98.12135233343533,82.97126839523476 L 98.14540047209645,82.97126839523476 L 98.174663222047,82.97126839523476 L 99.67045027891899,82.97126839523476 L 99.69614702321114,82.97126839523476 L 99.72431667594982,82.97126839523476 L 101.21732619072607,82.97126839523476 L 101.23773664522311,82.97126839523476 L 101.26925726810309,82.97126839523476 L 102.76837737548996,82.97126839523476 L 102.7904185159916,82.97126839523476 L 102.82132987157316,82.97126839523476 L 104.31554000131982,82.97126839523476 L 104.34121882598555,82.97126839523476 L 104.37214810119355,82.97126839523476 L 105.86289974304034,82.97126839523476 L 105.88768258638488,82.97126839523476 L 105.90622939973382,82.97126839523476 L 107.4081270492164,82.97126839523476 L 107.44317783850195,82.97126839523476 L 107.46684966500817,82.97126839523476 L 108.95973374239945,82.97126839523476 L 108.98379980068701,82.97126839523476 L 110.53386540599759,82.97126839523476 L 110.56027893534669,82.97126839523476 L 112.05269710245095,82.97126839523476 L 112.07592093829658,82.97126839523476 L 112.10357092186895,82.97126839523476 L 113.60441131339253,82.97126839523476 L 113.63329775118817,82.97126839523476 L 113.66085813662843,82.97126839523476 L 115.1526849560607,82.97126839523476 L 115.18237777704542,82.97126839523476 L 115.21135381297317,82.97126839523476 L 116.70361070343962,82.97126839523476 L 116.73131444589126,82.97126839523476 L 116.7551475490353,82.97126839523476 L 118.24749403763387,82.97126839523476 L 118.27582496701037,40 L 118.30490852069666,40 L 119.82411652930494,40 L 119.8500283091142,40 L 121.33950765748489,40 L 121.36735475694793,40 L 121.38600908805542,40 L 122.8916161002078,40 L 122.91933776228588,40 L 122.94765077203596,40 L 124.43693300451598,40 L 124.46576568343235,40 L 124.50121070449921,40 L 125.99155019493827,40 L 126.02179852434215,40 L 126.04331999567748,40 L 127.5387665796474,40 L 127.56297599494636,40 L 127.5926150570518,40 L 129.08956688964136,40 L 129.14443678575196,40 L 130.63353982196773,40 L 130.66321472332604,40 L 130.6905600732492,40 L 132.18347998989333,40 L 132.2115600444999,40 L 132.2408765533297,40 L 133.7323628998599,40 L 133.76099846288562,40 L 133.79321795119614,40 L 135.2799018378447,40 L 135.31004264949001,40 L 135.34100776395084,40 L 136.83082758522363,40 L 136.86039496882336,40 L 136.88858254118847,40 L 138.38121574380983,40 L 138.40248634037522,40 L 138.43192828659,40 L 139.9240239004186,40 L 139.9513871699682,40 L 139.98310490873885,40 L 141.47297848889087,40 L 141.50018048180266,40 L 141.53012417755733,40 L 143.021377568944,40 L 143.04714599174184,40 L 143.07891748939176,40 L 144.57085182658258,40 L 144.59662024938044,40 L 144.62050711140375,40 L 146.12441175904587,40 L 146.14636330141536,40 L 146.17831399532952,40 L 147.66795462033804,40 L 147.69322129359603,40 L 147.72164182110464,40 L 149.2154756386964,40 L 149.23773181471512,40 L 149.27138487313957,40 L 150.7621365149864,40 L 150.7882633303127,40 L 150.8203215419854,40 L 152.3086719538914,40 L 152.3330426458282,40 L 152.3677171229588,40 L 153.85282408248202,40 L 153.88430886610917,40 L 153.91663587217823,40 L 155.40652737195668,40 L 155.4316686078297,40 L 155.46116431292376,40 L 156.95686177166363,40 L 156.98401000569612,40 L 157.01700003794286,40 L 158.50250122924743,40 L 158.53421896801808,40 L 158.5692697573036,40 L 160.05382120840767,40 L 160.0779410255745,40 L 160.10949748770733,40 L 161.60313418940845,40 L 161.62555164206498,40 L 161.6571797827035,40 L 163.1479851834296,40 L 163.17271426789483,40 L 163.2036793823557,40 L 164.6968143345169,40 L 164.72489438912345,40 L 166.24754296600514,40 L 166.27334722805585,40 L 166.29780751812473,40 L 167.79649755447744,40 L 167.826226214715,40 L 167.86002263015084,40 L 169.33491540261232,40 L 169.37116680686827,40 L 169.40207816244984,40 L 170.8895146734082,40 L 170.9089216288255,40 L 170.94571062187416,40 L 172.4382721459898,40 L 172.4657966921772,40 L 172.49631381597743,40 L 173.9888215812138,40 L 174.01482295915517,40 L 174.0423475053426,40 L 175.53297370980442,40 L 175.56264861116273,40 L 175.5920726377511,40 L 177.08031553189855,40 L 177.1075175248103,40 L 177.13819592524837,40 L 178.6336425092183,40 L 178.66423131152422,40 L 178.697221343771,40 L 180.18444281921225,40 L 180.20757705692577,40 L 180.2587017511137,40 L 181.73341532731095,40 L 181.75694379680579,40 L 181.78651118040554,40 L 183.2764922783161,40 L 183.30412434226207,40 L 183.33333333333334,40" stroke="#3b82f6" stroke-width="2" fill="none" stroke-dasharray="14800" stroke-dashoffset="14800">
      <animate attributeName="stroke-dashoffset" values="14800;0" dur="3s" begin="3.0999999999999996s" fill="freeze"/>
    </path>
    
    <!-- Glow effect for the line that also follows the circle -->
    <path d="M 30,160 L 30.026073056447057,160 L 30.05125013157291,160 L 31.549940167925598,160 L 31.572303861702867,160 L 31.598341078897075,160 L 33.09389518062555,160 L 33.119394809027035,160 L 33.148102050558435,160 L 34.64464173174023,160 L 34.666862068506106,160 L 34.697647986702705,160 L 36.18185896490473,160 L 36.2154582644499,160 L 36.24640545928431,160 L 37.74154740960503,160 L 37.77029049038928,160 L 37.79949948146055,160 L 39.290681194341545,160 L 39.320624890096205,160 L 39.3543137877735,160 L 40.834026939743076,160 L 40.85916817561608,160 L 40.887947095653175,160 L 42.382658974939716,160 L 42.40136706492647,160 L 42.43428541866753,160 L 43.932007795193314,160 L 43.9546044441141,160 L 43.98533660343142,160 L 45.48193004349249,160 L 45.504562531666124,160 L 45.53145989092869,160 L 47.02758742070273,82.97126839523476 L 47.050542462151995,82.97126839523476 L 47.08000232799321,82.97126839523476 L 48.57733047273767,82.97126839523476 L 48.601145656255284,82.97126839523476 L 48.63435072401913,82.97126839523476 L 50.1167339003259,82.97126839523476 L 50.150064405474716,82.97126839523476 L 50.18269604519298,82.97126839523476 L 51.6744870253724,82.97126839523476 L 51.69199450038874,82.97126839523476 L 51.721848598011285,82.97126839523476 L 53.219947286691976,82.97126839523476 L 53.24444341601371,82.97126839523476 L 53.276662904324226,82.97126839523476 L 54.76189530123243,82.97126839523476 L 54.794043111037254,82.97126839523476 L 54.82276827219508,82.97126839523476 L 56.317032160821014,82.97126839523476 L 56.34231675370541,82.97126839523476 L 56.37007425503633,82.97126839523476 L 57.86308376981258,82.97126839523476 L 57.88788453278353,82.97126839523476 L 57.91295409015084,82.97126839523476 L 57.952681901933055,82.97126839523476 L 59.416930416298634,82.97126839523476 L 59.44309307087781,82.97126839523476 L 59.47029506378959,82.97126839523476 L 60.96412888138135,82.97126839523476 L 60.99021985745483,82.97126839523476 L 61.01872998309556,82.97126839523476 L 62.51159614086042,82.97126839523476 L 62.5356084402687,82.97126839523476 L 62.563007549071145,82.97126839523476 L 64.05530027879044,82.97126839523476 L 64.08415087733323,82.97126839523476 L 65.61443321507159,82.97126839523476 L 65.63195860971436,82.97126839523476 L 65.65976986992456,82.97126839523476 L 67.15498349875097,82.97126839523476 L 67.17965882433694,82.97126839523476 L 67.21015802851075,82.97126839523476 L 68.70286290963779,82.97126839523476 L 68.72694688755178,82.97126839523476 L 68.75402344307858,82.97126839523476 L 70.25382449626957,82.97126839523476 L 70.27966459757312,82.97126839523476 L 70.31204536252145,82.97126839523476 L 71.80369298568948,82.97126839523476 L 71.83154008515251,82.97126839523476 L 71.8582403285244,82.97126839523476 L 73.35452913493627,82.97126839523476 L 73.3716602977977,82.97126839523476 L 73.40067217297832,82.97126839523476 L 74.89740897005078,82.97126839523476 L 74.9198085030809,82.97126839523476 L 74.94550524737303,82.97126839523476 L 76.44534213981689,82.97126839523476 L 76.46621850460095,82.97126839523476 L 76.49788248449232,82.97126839523476 L 77.99291691705449,82.97126839523476 L 78.01581819962448,82.97126839523476 L 78.04567229724702,82.97126839523476 L 79.53821590173624,82.97126839523476 L 79.56027496186431,82.97126839523476 L 79.59276324457119,82.97126839523476 L 81.08550396495107,82.97126839523476 L 81.11788472989943,82.97126839523476 L 81.15094644065188,82.97126839523476 L 82.63901013853507,82.97126839523476 L 82.66278948279985,82.97126839523476 L 82.69269733930167,82.97126839523476 L 84.18687162979549,82.97126839523476 L 84.2103105011582,82.97126839523476 L 84.24021835766001,82.97126839523476 L 85.7358620575206,82.97126839523476 L 85.7666479757172,82.97126839523476 L 85.80302481735811,82.97126839523476 L 87.28452993197008,82.97126839523476 L 87.30689362574736,82.97126839523476 L 87.33549334952022,82.97126839523476 L 88.83443426064284,82.97126839523476 L 88.85341114502594,82.97126839523476 L 88.88335484078061,82.97126839523476 L 90.37760080978013,82.97126839523476 L 90.39992866430455,82.97126839523476 L 90.42843878994529,82.97126839523476 L 90.46744981667054,82.97126839523476 L 91.92996012727298,82.97126839523476 L 91.95976046601625,82.97126839523476 L 91.98934576924243,82.97126839523476 L 93.47439896988638,82.97126839523476 L 93.50169056093029,82.97126839523476 L 93.53020068657102,82.97126839523476 L 95.0253247172653,82.97126839523476 L 95.04066391748434,82.97126839523476 L 95.07666444697034,82.97126839523476 L 96.57193183467602,82.97126839523476 L 96.59737770419824,82.97126839523476 L 96.61828990823516,82.97126839523476 L 98.12135233343533,82.97126839523476 L 98.14540047209645,82.97126839523476 L 98.174663222047,82.97126839523476 L 99.67045027891899,82.97126839523476 L 99.69614702321114,82.97126839523476 L 99.72431667594982,82.97126839523476 L 101.21732619072607,82.97126839523476 L 101.23773664522311,82.97126839523476 L 101.26925726810309,82.97126839523476 L 102.76837737548996,82.97126839523476 L 102.7904185159916,82.97126839523476 L 102.82132987157316,82.97126839523476 L 104.31554000131982,82.97126839523476 L 104.34121882598555,82.97126839523476 L 104.37214810119355,82.97126839523476 L 105.86289974304034,82.97126839523476 L 105.88768258638488,82.97126839523476 L 105.90622939973382,82.97126839523476 L 107.4081270492164,82.97126839523476 L 107.44317783850195,82.97126839523476 L 107.46684966500817,82.97126839523476 L 108.95973374239945,82.97126839523476 L 108.98379980068701,82.97126839523476 L 110.53386540599759,82.97126839523476 L 110.56027893534669,82.97126839523476 L 112.05269710245095,82.97126839523476 L 112.07592093829658,82.97126839523476 L 112.10357092186895,82.97126839523476 L 113.60441131339253,82.97126839523476 L 113.63329775118817,82.97126839523476 L 113.66085813662843,82.97126839523476 L 115.1526849560607,82.97126839523476 L 115.18237777704542,82.97126839523476 L 115.21135381297317,82.97126839523476 L 116.70361070343962,82.97126839523476 L 116.73131444589126,82.97126839523476 L 116.7551475490353,82.97126839523476 L 118.24749403763387,82.97126839523476 L 118.27582496701037,40 L 118.30490852069666,40 L 119.82411652930494,40 L 119.8500283091142,40 L 121.33950765748489,40 L 121.36735475694793,40 L 121.38600908805542,40 L 122.8916161002078,40 L 122.91933776228588,40 L 122.94765077203596,40 L 124.43693300451598,40 L 124.46576568343235,40 L 124.50121070449921,40 L 125.99155019493827,40 L 126.02179852434215,40 L 126.04331999567748,40 L 127.5387665796474,40 L 127.56297599494636,40 L 127.5926150570518,40 L 129.08956688964136,40 L 129.14443678575196,40 L 130.63353982196773,40 L 130.66321472332604,40 L 130.6905600732492,40 L 132.18347998989333,40 L 132.2115600444999,40 L 132.2408765533297,40 L 133.7323628998599,40 L 133.76099846288562,40 L 133.79321795119614,40 L 135.2799018378447,40 L 135.31004264949001,40 L 135.34100776395084,40 L 136.83082758522363,40 L 136.86039496882336,40 L 136.88858254118847,40 L 138.38121574380983,40 L 138.40248634037522,40 L 138.43192828659,40 L 139.9240239004186,40 L 139.9513871699682,40 L 139.98310490873885,40 L 141.47297848889087,40 L 141.50018048180266,40 L 141.53012417755733,40 L 143.021377568944,40 L 143.04714599174184,40 L 143.07891748939176,40 L 144.57085182658258,40 L 144.59662024938044,40 L 144.62050711140375,40 L 146.12441175904587,40 L 146.14636330141536,40 L 146.17831399532952,40 L 147.66795462033804,40 L 147.69322129359603,40 L 147.72164182110464,40 L 149.2154756386964,40 L 149.23773181471512,40 L 149.27138487313957,40 L 150.7621365149864,40 L 150.7882633303127,40 L 150.8203215419854,40 L 152.3086719538914,40 L 152.3330426458282,40 L 152.3677171229588,40 L 153.85282408248202,40 L 153.88430886610917,40 L 153.91663587217823,40 L 155.40652737195668,40 L 155.4316686078297,40 L 155.46116431292376,40 L 156.95686177166363,40 L 156.98401000569612,40 L 157.01700003794286,40 L 158.50250122924743,40 L 158.53421896801808,40 L 158.5692697573036,40 L 160.05382120840767,40 L 160.0779410255745,40 L 160.10949748770733,40 L 161.60313418940845,40 L 161.62555164206498,40 L 161.6571797827035,40 L 163.1479851834296,40 L 163.17271426789483,40 L 163.2036793823557,40 L 164.6968143345169,40 L 164.72489438912345,40 L 166.24754296600514,40 L 166.27334722805585,40 L 166.29780751812473,40 L 167.79649755447744,40 L 167.826226214715,40 L 167.86002263015084,40 L 169.33491540261232,40 L 169.37116680686827,40 L 169.40207816244984,40 L 170.8895146734082,40 L 170.9089216288255,40 L 170.94571062187416,40 L 172.4382721459898,40 L 172.4657966921772,40 L 172.49631381597743,40 L 173.9888215812138,40 L 174.01482295915517,40 L 174.0423475053426,40 L 175.53297370980442,40 L 175.56264861116273,40 L 175.5920726377511,40 L 177.08031553189855,40 L 177.1075175248103,40 L 177.13819592524837,40 L 178.6336425092183,40 L 178.66423131152422,40 L 178.697221343771,40 L 180.18444281921225,40 L 180.20757705692577,40 L 180.2587017511137,40 L 181.73341532731095,40 L 181.75694379680579,40 L 181.78651118040554,40 L 183.2764922783161,40 L 183.30412434226207,40 L 183.33333333333334,40" stroke="#3b82f6" stroke-width="4" fill="none" opacity="0.4" stroke-dasharray="14800" stroke-dashoffset="14800">
      <animate attributeName="stroke-dashoffset" values="14800;0" dur="3s" begin="3.0999999999999996s" fill="freeze"/>
    </path>
    
    <!-- Animated circle that moves along the path and draws the line -->
    <circle r="5" fill="#3b82f6" opacity="0" filter="url(#trailGlow)">
      <animate attributeName="opacity" values="0;1;1;1" dur="3.2s" begin="2.9s" fill="freeze"/>
      <animate attributeName="r" values="5;6;5" dur="1s" begin="2.9s" repeatCount="3"/>
      <animateMotion dur="3s" begin="2.9s" fill="freeze">
        <mpath href="#path_publicContributions_293.33333333333337"/>
      </animateMotion>
    </circle>
    
    <!-- Small trail dots that fade out -->
    <circle r="2" fill="#3b82f6" opacity="0">
      <animate attributeName="opacity" values="0;0.6;0" dur="0.8s" begin="3.3s" fill="freeze"/>
      <animateMotion dur="3s" begin="2.9s" fill="freeze">
        <mpath href="#path_publicContributions_293.33333333333337"/>
      </animateMotion>
    </circle>
    
    <!-- Hidden path for motion animation -->
    <path id="path_publicContributions_293.33333333333337" d="M 30,160 L 30.026073056447057,160 L 30.05125013157291,160 L 31.549940167925598,160 L 31.572303861702867,160 L 31.598341078897075,160 L 33.09389518062555,160 L 33.119394809027035,160 L 33.148102050558435,160 L 34.64464173174023,160 L 34.666862068506106,160 L 34.697647986702705,160 L 36.18185896490473,160 L 36.2154582644499,160 L 36.24640545928431,160 L 37.74154740960503,160 L 37.77029049038928,160 L 37.79949948146055,160 L 39.290681194341545,160 L 39.320624890096205,160 L 39.3543137877735,160 L 40.834026939743076,160 L 40.85916817561608,160 L 40.887947095653175,160 L 42.382658974939716,160 L 42.40136706492647,160 L 42.43428541866753,160 L 43.932007795193314,160 L 43.9546044441141,160 L 43.98533660343142,160 L 45.48193004349249,160 L 45.504562531666124,160 L 45.53145989092869,160 L 47.02758742070273,82.97126839523476 L 47.050542462151995,82.97126839523476 L 47.08000232799321,82.97126839523476 L 48.57733047273767,82.97126839523476 L 48.601145656255284,82.97126839523476 L 48.63435072401913,82.97126839523476 L 50.1167339003259,82.97126839523476 L 50.150064405474716,82.97126839523476 L 50.18269604519298,82.97126839523476 L 51.6744870253724,82.97126839523476 L 51.69199450038874,82.97126839523476 L 51.721848598011285,82.97126839523476 L 53.219947286691976,82.97126839523476 L 53.24444341601371,82.97126839523476 L 53.276662904324226,82.97126839523476 L 54.76189530123243,82.97126839523476 L 54.794043111037254,82.97126839523476 L 54.82276827219508,82.97126839523476 L 56.317032160821014,82.97126839523476 L 56.34231675370541,82.97126839523476 L 56.37007425503633,82.97126839523476 L 57.86308376981258,82.97126839523476 L 57.88788453278353,82.97126839523476 L 57.91295409015084,82.97126839523476 L 57.952681901933055,82.97126839523476 L 59.416930416298634,82.97126839523476 L 59.44309307087781,82.97126839523476 L 59.47029506378959,82.97126839523476 L 60.96412888138135,82.97126839523476 L 60.99021985745483,82.97126839523476 L 61.01872998309556,82.97126839523476 L 62.51159614086042,82.97126839523476 L 62.5356084402687,82.97126839523476 L 62.563007549071145,82.97126839523476 L 64.05530027879044,82.97126839523476 L 64.08415087733323,82.97126839523476 L 65.61443321507159,82.97126839523476 L 65.63195860971436,82.97126839523476 L 65.65976986992456,82.97126839523476 L 67.15498349875097,82.97126839523476 L 67.17965882433694,82.97126839523476 L 67.21015802851075,82.97126839523476 L 68.70286290963779,82.97126839523476 L 68.72694688755178,82.97126839523476 L 68.75402344307858,82.97126839523476 L 70.25382449626957,82.97126839523476 L 70.27966459757312,82.97126839523476 L 70.31204536252145,82.97126839523476 L 71.80369298568948,82.97126839523476 L 71.83154008515251,82.97126839523476 L 71.8582403285244,82.97126839523476 L 73.35452913493627,82.97126839523476 L 73.3716602977977,82.97126839523476 L 73.40067217297832,82.97126839523476 L 74.89740897005078,82.97126839523476 L 74.9198085030809,82.97126839523476 L 74.94550524737303,82.97126839523476 L 76.44534213981689,82.97126839523476 L 76.46621850460095,82.97126839523476 L 76.49788248449232,82.97126839523476 L 77.99291691705449,82.97126839523476 L 78.01581819962448,82.97126839523476 L 78.04567229724702,82.97126839523476 L 79.53821590173624,82.97126839523476 L 79.56027496186431,82.97126839523476 L 79.59276324457119,82.97126839523476 L 81.08550396495107,82.97126839523476 L 81.11788472989943,82.97126839523476 L 81.15094644065188,82.97126839523476 L 82.63901013853507,82.97126839523476 L 82.66278948279985,82.97126839523476 L 82.69269733930167,82.97126839523476 L 84.18687162979549,82.97126839523476 L 84.2103105011582,82.97126839523476 L 84.24021835766001,82.97126839523476 L 85.7358620575206,82.97126839523476 L 85.7666479757172,82.97126839523476 L 85.80302481735811,82.97126839523476 L 87.28452993197008,82.97126839523476 L 87.30689362574736,82.97126839523476 L 87.33549334952022,82.97126839523476 L 88.83443426064284,82.97126839523476 L 88.85341114502594,82.97126839523476 L 88.88335484078061,82.97126839523476 L 90.37760080978013,82.97126839523476 L 90.39992866430455,82.97126839523476 L 90.42843878994529,82.97126839523476 L 90.46744981667054,82.97126839523476 L 91.92996012727298,82.97126839523476 L 91.95976046601625,82.97126839523476 L 91.98934576924243,82.97126839523476 L 93.47439896988638,82.97126839523476 L 93.50169056093029,82.97126839523476 L 93.53020068657102,82.97126839523476 L 95.0253247172653,82.97126839523476 L 95.04066391748434,82.97126839523476 L 95.07666444697034,82.97126839523476 L 96.57193183467602,82.97126839523476 L 96.59737770419824,82.97126839523476 L 96.61828990823516,82.97126839523476 L 98.12135233343533,82.97126839523476 L 98.14540047209645,82.97126839523476 L 98.174663222047,82.97126839523476 L 99.67045027891899,82.97126839523476 L 99.69614702321114,82.97126839523476 L 99.72431667594982,82.97126839523476 L 101.21732619072607,82.97126839523476 L 101.23773664522311,82.97126839523476 L 101.26925726810309,82.97126839523476 L 102.76837737548996,82.97126839523476 L 102.7904185159916,82.97126839523476 L 102.82132987157316,82.97126839523476 L 104.31554000131982,82.97126839523476 L 104.34121882598555,82.97126839523476 L 104.37214810119355,82.97126839523476 L 105.86289974304034,82.97126839523476 L 105.88768258638488,82.97126839523476 L 105.90622939973382,82.97126839523476 L 107.4081270492164,82.97126839523476 L 107.44317783850195,82.97126839523476 L 107.46684966500817,82.97126839523476 L 108.95973374239945,82.97126839523476 L 108.98379980068701,82.97126839523476 L 110.53386540599759,82.97126839523476 L 110.56027893534669,82.97126839523476 L 112.05269710245095,82.97126839523476 L 112.07592093829658,82.97126839523476 L 112.10357092186895,82.97126839523476 L 113.60441131339253,82.97126839523476 L 113.63329775118817,82.97126839523476 L 113.66085813662843,82.97126839523476 L 115.1526849560607,82.97126839523476 L 115.18237777704542,82.97126839523476 L 115.21135381297317,82.97126839523476 L 116.70361070343962,82.97126839523476 L 116.73131444589126,82.97126839523476 L 116.7551475490353,82.97126839523476 L 118.24749403763387,82.97126839523476 L 118.27582496701037,40 L 118.30490852069666,40 L 119.82411652930494,40 L 119.8500283091142,40 L 121.33950765748489,40 L 121.36735475694793,40 L 121.38600908805542,40 L 122.8916161002078,40 L 122.91933776228588,40 L 122.94765077203596,40 L 124.43693300451598,40 L 124.46576568343235,40 L 124.50121070449921,40 L 125.99155019493827,40 L 126.02179852434215,40 L 126.04331999567748,40 L 127.5387665796474,40 L 127.56297599494636,40 L 127.5926150570518,40 L 129.08956688964136,40 L 129.14443678575196,40 L 130.63353982196773,40 L 130.66321472332604,40 L 130.6905600732492,40 L 132.18347998989333,40 L 132.2115600444999,40 L 132.2408765533297,40 L 133.7323628998599,40 L 133.76099846288562,40 L 133.79321795119614,40 L 135.2799018378447,40 L 135.31004264949001,40 L 135.34100776395084,40 L 136.83082758522363,40 L 136.86039496882336,40 L 136.88858254118847,40 L 138.38121574380983,40 L 138.40248634037522,40 L 138.43192828659,40 L 139.9240239004186,40 L 139.9513871699682,40 L 139.98310490873885,40 L 141.47297848889087,40 L 141.50018048180266,40 L 141.53012417755733,40 L 143.021377568944,40 L 143.04714599174184,40 L 143.07891748939176,40 L 144.57085182658258,40 L 144.59662024938044,40 L 144.62050711140375,40 L 146.12441175904587,40 L 146.14636330141536,40 L 146.17831399532952,40 L 147.66795462033804,40 L 147.69322129359603,40 L 147.72164182110464,40 L 149.2154756386964,40 L 149.23773181471512,40 L 149.27138487313957,40 L 150.7621365149864,40 L 150.7882633303127,40 L 150.8203215419854,40 L 152.3086719538914,40 L 152.3330426458282,40 L 152.3677171229588,40 L 153.85282408248202,40 L 153.88430886610917,40 L 153.91663587217823,40 L 155.40652737195668,40 L 155.4316686078297,40 L 155.46116431292376,40 L 156.95686177166363,40 L 156.98401000569612,40 L 157.01700003794286,40 L 158.50250122924743,40 L 158.53421896801808,40 L 158.5692697573036,40 L 160.05382120840767,40 L 160.0779410255745,40 L 160.10949748770733,40 L 161.60313418940845,40 L 161.62555164206498,40 L 161.6571797827035,40 L 163.1479851834296,40 L 163.17271426789483,40 L 163.2036793823557,40 L 164.6968143345169,40 L 164.72489438912345,40 L 166.24754296600514,40 L 166.27334722805585,40 L 166.29780751812473,40 L 167.79649755447744,40 L 167.826226214715,40 L 167.86002263015084,40 L 169.33491540261232,40 L 169.37116680686827,40 L 169.40207816244984,40 L 170.8895146734082,40 L 170.9089216288255,40 L 170.94571062187416,40 L 172.4382721459898,40 L 172.4657966921772,40 L 172.49631381597743,40 L 173.9888215812138,40 L 174.01482295915517,40 L 174.0423475053426,40 L 175.53297370980442,40 L 175.56264861116273,40 L 175.5920726377511,40 L 177.08031553189855,40 L 177.1075175248103,40 L 177.13819592524837,40 L 178.6336425092183,40 L 178.66423131152422,40 L 178.697221343771,40 L 180.18444281921225,40 L 180.20757705692577,40 L 180.2587017511137,40 L 181.73341532731095,40 L 181.75694379680579,40 L 181.78651118040554,40 L 183.2764922783161,40 L 183.30412434226207,40 L 183.33333333333334,40" fill="none" stroke="none"/>
  </g>
  <!-- 📊 Total Contributions Chart -->
  <g transform="translate(526.6666666666667, 250)">
    <!-- Chart Background -->
    <rect x="0" y="0" width="213.33333333333334" height="200" fill="#0f172a" stroke="#334155" stroke-width="1" rx="8" filter="url(#shadow)">
      <animate attributeName="opacity" values="0;1" dur="0.5s" begin="2.8s" fill="freeze"/>
    </rect>
    
    <!-- Chart Title -->
    <text x="106.66666666666667" y="25" text-anchor="middle" fill="#f8fafc" font-size="14" font-weight="bold" font-family="Arial, sans-serif">
      📊 Total Contributions
      <animate attributeName="opacity" values="0;1" dur="0.5s" begin="3s" fill="freeze"/>
    </text>
    
    <!-- Y-axis labels -->
    <text x="10" y="45" fill="#94a3b8" font-size="10" font-family="Arial, sans-serif">4,408
      <animate attributeName="opacity" values="0;1" dur="0.5s" begin="3.1999999999999997s" fill="freeze"/>
    </text>
    <text x="10" y="185" fill="#94a3b8" font-size="10" font-family="Arial, sans-serif">2,598
      <animate attributeName="opacity" values="0;1" dur="0.5s" begin="3.1999999999999997s" fill="freeze"/>
    </text>
    
    <!-- Chart Line with draw animation that follows the circle -->
    <path d="M 30,160 L 30.026073056447057,160 L 30.05125013157291,160 L 31.549940167925598,160 L 31.572303861702867,160 L 31.598341078897075,160 L 33.09389518062555,160 L 33.119394809027035,160 L 33.148102050558435,160 L 34.64464173174023,160 L 34.666862068506106,160 L 34.697647986702705,160 L 36.18185896490473,160 L 36.2154582644499,160 L 36.24640545928431,160 L 37.74154740960503,160 L 37.77029049038928,160 L 37.79949948146055,160 L 39.290681194341545,160 L 39.320624890096205,160 L 39.3543137877735,160 L 40.834026939743076,160 L 40.85916817561608,160 L 40.887947095653175,160 L 42.382658974939716,160 L 42.40136706492647,160 L 42.43428541866753,160 L 43.932007795193314,160 L 43.9546044441141,160 L 43.98533660343142,160 L 45.48193004349249,160 L 45.504562531666124,160 L 45.53145989092869,160 L 47.02758742070273,80.1767955801105 L 47.050542462151995,80.1767955801105 L 47.08000232799321,80.1767955801105 L 48.57733047273767,80.1767955801105 L 48.601145656255284,80.1767955801105 L 48.63435072401913,80.1767955801105 L 50.1167339003259,80.1767955801105 L 50.150064405474716,80.1767955801105 L 50.18269604519298,80.1767955801105 L 51.6744870253724,80.1767955801105 L 51.69199450038874,80.1767955801105 L 51.721848598011285,80.1767955801105 L 53.219947286691976,80.1767955801105 L 53.24444341601371,80.1767955801105 L 53.276662904324226,80.1767955801105 L 54.76189530123243,80.1767955801105 L 54.794043111037254,80.1767955801105 L 54.82276827219508,80.1767955801105 L 56.317032160821014,80.1767955801105 L 56.34231675370541,80.1767955801105 L 56.37007425503633,80.1767955801105 L 57.86308376981258,80.1767955801105 L 57.88788453278353,80.1767955801105 L 57.91295409015084,80.1767955801105 L 57.952681901933055,80.1767955801105 L 59.416930416298634,80.1767955801105 L 59.44309307087781,80.1767955801105 L 59.47029506378959,80.1767955801105 L 60.96412888138135,80.1767955801105 L 60.99021985745483,80.1767955801105 L 61.01872998309556,80.1767955801105 L 62.51159614086042,80.1767955801105 L 62.5356084402687,80.1767955801105 L 62.563007549071145,80.1767955801105 L 64.05530027879044,80.1767955801105 L 64.08415087733323,80.1767955801105 L 65.61443321507159,80.1767955801105 L 65.63195860971436,80.1767955801105 L 65.65976986992456,80.1767955801105 L 67.15498349875097,80.1767955801105 L 67.17965882433694,80.1767955801105 L 67.21015802851075,80.1767955801105 L 68.70286290963779,80.1767955801105 L 68.72694688755178,80.1767955801105 L 68.75402344307858,80.1767955801105 L 70.25382449626957,80.1767955801105 L 70.27966459757312,80.1767955801105 L 70.31204536252145,80.1767955801105 L 71.80369298568948,80.1767955801105 L 71.83154008515251,80.1767955801105 L 71.8582403285244,80.1767955801105 L 73.35452913493627,80.1767955801105 L 73.3716602977977,80.1767955801105 L 73.40067217297832,80.1767955801105 L 74.89740897005078,80.1767955801105 L 74.9198085030809,80.1767955801105 L 74.94550524737303,80.1767955801105 L 76.44534213981689,80.1767955801105 L 76.46621850460095,80.1767955801105 L 76.49788248449232,80.1767955801105 L 77.99291691705449,80.1767955801105 L 78.01581819962448,80.1767955801105 L 78.04567229724702,80.1767955801105 L 79.53821590173624,80.1767955801105 L 79.56027496186431,80.1767955801105 L 79.59276324457119,80.1767955801105 L 81.08550396495107,80.1767955801105 L 81.11788472989943,80.1767955801105 L 81.15094644065188,80.1767955801105 L 82.63901013853507,80.1767955801105 L 82.66278948279985,80.1767955801105 L 82.69269733930167,80.1767955801105 L 84.18687162979549,80.1767955801105 L 84.2103105011582,80.1767955801105 L 84.24021835766001,80.1767955801105 L 85.7358620575206,80.1767955801105 L 85.7666479757172,80.1767955801105 L 85.80302481735811,80.1767955801105 L 87.28452993197008,80.1767955801105 L 87.30689362574736,80.1767955801105 L 87.33549334952022,80.1767955801105 L 88.83443426064284,80.1767955801105 L 88.85341114502594,80.1767955801105 L 88.88335484078061,80.1767955801105 L 90.37760080978013,80.1767955801105 L 90.39992866430455,80.1767955801105 L 90.42843878994529,80.1767955801105 L 90.46744981667054,80.1767955801105 L 91.92996012727298,80.1767955801105 L 91.95976046601625,80.1767955801105 L 91.98934576924243,80.1767955801105 L 93.47439896988638,80.1767955801105 L 93.50169056093029,80.1767955801105 L 93.53020068657102,80.1767955801105 L 95.0253247172653,80.1767955801105 L 95.04066391748434,80.1767955801105 L 95.07666444697034,80.1767955801105 L 96.57193183467602,80.1767955801105 L 96.59737770419824,80.1767955801105 L 96.61828990823516,80.1767955801105 L 98.12135233343533,80.1767955801105 L 98.14540047209645,80.1767955801105 L 98.174663222047,80.1767955801105 L 99.67045027891899,80.1767955801105 L 99.69614702321114,80.1767955801105 L 99.72431667594982,80.1767955801105 L 101.21732619072607,80.1767955801105 L 101.23773664522311,80.1767955801105 L 101.26925726810309,80.1767955801105 L 102.76837737548996,80.1767955801105 L 102.7904185159916,80.1767955801105 L 102.82132987157316,80.1767955801105 L 104.31554000131982,80.1767955801105 L 104.34121882598555,80.1767955801105 L 104.37214810119355,80.1767955801105 L 105.86289974304034,80.1767955801105 L 105.88768258638488,80.1767955801105 L 105.90622939973382,80.1767955801105 L 107.4081270492164,80.1767955801105 L 107.44317783850195,80.1767955801105 L 107.46684966500817,80.1767955801105 L 108.95973374239945,80.1767955801105 L 108.98379980068701,80.1767955801105 L 110.53386540599759,80.1767955801105 L 110.56027893534669,80.1767955801105 L 112.05269710245095,80.1767955801105 L 112.07592093829658,80.1767955801105 L 112.10357092186895,80.1767955801105 L 113.60441131339253,80.1767955801105 L 113.63329775118817,80.1767955801105 L 113.66085813662843,80.1767955801105 L 115.1526849560607,80.1767955801105 L 115.18237777704542,80.1767955801105 L 115.21135381297317,80.1767955801105 L 116.70361070343962,80.1767955801105 L 116.73131444589126,80.1767955801105 L 116.7551475490353,80.1767955801105 L 118.24749403763387,80.1767955801105 L 118.27582496701037,40 L 118.30490852069666,40 L 119.82411652930494,40 L 119.8500283091142,40 L 121.33950765748489,40 L 121.36735475694793,40 L 121.38600908805542,40 L 122.8916161002078,40 L 122.91933776228588,40 L 122.94765077203596,40 L 124.43693300451598,40 L 124.46576568343235,40 L 124.50121070449921,40 L 125.99155019493827,40 L 126.02179852434215,40 L 126.04331999567748,40 L 127.5387665796474,40 L 127.56297599494636,40 L 127.5926150570518,40 L 129.08956688964136,40 L 129.14443678575196,40 L 130.63353982196773,40 L 130.66321472332604,40 L 130.6905600732492,40 L 132.18347998989333,40 L 132.2115600444999,40 L 132.2408765533297,40 L 133.7323628998599,40 L 133.76099846288562,40 L 133.79321795119614,40 L 135.2799018378447,40 L 135.31004264949001,40 L 135.34100776395084,40 L 136.83082758522363,40 L 136.86039496882336,40 L 136.88858254118847,40 L 138.38121574380983,40 L 138.40248634037522,40 L 138.43192828659,40 L 139.9240239004186,40 L 139.9513871699682,40 L 139.98310490873885,40 L 141.47297848889087,40 L 141.50018048180266,40 L 141.53012417755733,40 L 143.021377568944,40 L 143.04714599174184,40 L 143.07891748939176,40 L 144.57085182658258,40 L 144.59662024938044,40 L 144.62050711140375,40 L 146.12441175904587,40 L 146.14636330141536,40 L 146.17831399532952,40 L 147.66795462033804,40 L 147.69322129359603,40 L 147.72164182110464,40 L 149.2154756386964,40 L 149.23773181471512,40 L 149.27138487313957,40 L 150.7621365149864,40 L 150.7882633303127,40 L 150.8203215419854,40 L 152.3086719538914,40 L 152.3330426458282,40 L 152.3677171229588,40 L 153.85282408248202,40 L 153.88430886610917,40 L 153.91663587217823,40 L 155.40652737195668,40 L 155.4316686078297,40 L 155.46116431292376,40 L 156.95686177166363,40 L 156.98401000569612,40 L 157.01700003794286,40 L 158.50250122924743,40 L 158.53421896801808,40 L 158.5692697573036,40 L 160.05382120840767,40 L 160.0779410255745,40 L 160.10949748770733,40 L 161.60313418940845,40 L 161.62555164206498,40 L 161.6571797827035,40 L 163.1479851834296,40 L 163.17271426789483,40 L 163.2036793823557,40 L 164.6968143345169,40 L 164.72489438912345,40 L 166.24754296600514,40 L 166.27334722805585,40 L 166.29780751812473,40 L 167.79649755447744,40 L 167.826226214715,40 L 167.86002263015084,40 L 169.33491540261232,40 L 169.37116680686827,40 L 169.40207816244984,40 L 170.8895146734082,40 L 170.9089216288255,40 L 170.94571062187416,40 L 172.4382721459898,40 L 172.4657966921772,40 L 172.49631381597743,40 L 173.9888215812138,40 L 174.01482295915517,40 L 174.0423475053426,40 L 175.53297370980442,40 L 175.56264861116273,40 L 175.5920726377511,40 L 177.08031553189855,40 L 177.1075175248103,40 L 177.13819592524837,40 L 178.6336425092183,40 L 178.66423131152422,40 L 178.697221343771,40 L 180.18444281921225,40 L 180.20757705692577,40 L 180.2587017511137,40 L 181.73341532731095,40 L 181.75694379680579,40 L 181.78651118040554,40 L 183.2764922783161,40 L 183.30412434226207,40 L 183.33333333333334,40" stroke="#f59e0b" stroke-width="2" fill="none" stroke-dasharray="14800" stroke-dashoffset="14800">
      <animate attributeName="stroke-dashoffset" values="14800;0" dur="3s" begin="3.5999999999999996s" fill="freeze"/>
    </path>
    
    <!-- Glow effect for the line that also follows the circle -->
    <path d="M 30,160 L 30.026073056447057,160 L 30.05125013157291,160 L 31.549940167925598,160 L 31.572303861702867,160 L 31.598341078897075,160 L 33.09389518062555,160 L 33.119394809027035,160 L 33.148102050558435,160 L 34.64464173174023,160 L 34.666862068506106,160 L 34.697647986702705,160 L 36.18185896490473,160 L 36.2154582644499,160 L 36.24640545928431,160 L 37.74154740960503,160 L 37.77029049038928,160 L 37.79949948146055,160 L 39.290681194341545,160 L 39.320624890096205,160 L 39.3543137877735,160 L 40.834026939743076,160 L 40.85916817561608,160 L 40.887947095653175,160 L 42.382658974939716,160 L 42.40136706492647,160 L 42.43428541866753,160 L 43.932007795193314,160 L 43.9546044441141,160 L 43.98533660343142,160 L 45.48193004349249,160 L 45.504562531666124,160 L 45.53145989092869,160 L 47.02758742070273,80.1767955801105 L 47.050542462151995,80.1767955801105 L 47.08000232799321,80.1767955801105 L 48.57733047273767,80.1767955801105 L 48.601145656255284,80.1767955801105 L 48.63435072401913,80.1767955801105 L 50.1167339003259,80.1767955801105 L 50.150064405474716,80.1767955801105 L 50.18269604519298,80.1767955801105 L 51.6744870253724,80.1767955801105 L 51.69199450038874,80.1767955801105 L 51.721848598011285,80.1767955801105 L 53.219947286691976,80.1767955801105 L 53.24444341601371,80.1767955801105 L 53.276662904324226,80.1767955801105 L 54.76189530123243,80.1767955801105 L 54.794043111037254,80.1767955801105 L 54.82276827219508,80.1767955801105 L 56.317032160821014,80.1767955801105 L 56.34231675370541,80.1767955801105 L 56.37007425503633,80.1767955801105 L 57.86308376981258,80.1767955801105 L 57.88788453278353,80.1767955801105 L 57.91295409015084,80.1767955801105 L 57.952681901933055,80.1767955801105 L 59.416930416298634,80.1767955801105 L 59.44309307087781,80.1767955801105 L 59.47029506378959,80.1767955801105 L 60.96412888138135,80.1767955801105 L 60.99021985745483,80.1767955801105 L 61.01872998309556,80.1767955801105 L 62.51159614086042,80.1767955801105 L 62.5356084402687,80.1767955801105 L 62.563007549071145,80.1767955801105 L 64.05530027879044,80.1767955801105 L 64.08415087733323,80.1767955801105 L 65.61443321507159,80.1767955801105 L 65.63195860971436,80.1767955801105 L 65.65976986992456,80.1767955801105 L 67.15498349875097,80.1767955801105 L 67.17965882433694,80.1767955801105 L 67.21015802851075,80.1767955801105 L 68.70286290963779,80.1767955801105 L 68.72694688755178,80.1767955801105 L 68.75402344307858,80.1767955801105 L 70.25382449626957,80.1767955801105 L 70.27966459757312,80.1767955801105 L 70.31204536252145,80.1767955801105 L 71.80369298568948,80.1767955801105 L 71.83154008515251,80.1767955801105 L 71.8582403285244,80.1767955801105 L 73.35452913493627,80.1767955801105 L 73.3716602977977,80.1767955801105 L 73.40067217297832,80.1767955801105 L 74.89740897005078,80.1767955801105 L 74.9198085030809,80.1767955801105 L 74.94550524737303,80.1767955801105 L 76.44534213981689,80.1767955801105 L 76.46621850460095,80.1767955801105 L 76.49788248449232,80.1767955801105 L 77.99291691705449,80.1767955801105 L 78.01581819962448,80.1767955801105 L 78.04567229724702,80.1767955801105 L 79.53821590173624,80.1767955801105 L 79.56027496186431,80.1767955801105 L 79.59276324457119,80.1767955801105 L 81.08550396495107,80.1767955801105 L 81.11788472989943,80.1767955801105 L 81.15094644065188,80.1767955801105 L 82.63901013853507,80.1767955801105 L 82.66278948279985,80.1767955801105 L 82.69269733930167,80.1767955801105 L 84.18687162979549,80.1767955801105 L 84.2103105011582,80.1767955801105 L 84.24021835766001,80.1767955801105 L 85.7358620575206,80.1767955801105 L 85.7666479757172,80.1767955801105 L 85.80302481735811,80.1767955801105 L 87.28452993197008,80.1767955801105 L 87.30689362574736,80.1767955801105 L 87.33549334952022,80.1767955801105 L 88.83443426064284,80.1767955801105 L 88.85341114502594,80.1767955801105 L 88.88335484078061,80.1767955801105 L 90.37760080978013,80.1767955801105 L 90.39992866430455,80.1767955801105 L 90.42843878994529,80.1767955801105 L 90.46744981667054,80.1767955801105 L 91.92996012727298,80.1767955801105 L 91.95976046601625,80.1767955801105 L 91.98934576924243,80.1767955801105 L 93.47439896988638,80.1767955801105 L 93.50169056093029,80.1767955801105 L 93.53020068657102,80.1767955801105 L 95.0253247172653,80.1767955801105 L 95.04066391748434,80.1767955801105 L 95.07666444697034,80.1767955801105 L 96.57193183467602,80.1767955801105 L 96.59737770419824,80.1767955801105 L 96.61828990823516,80.1767955801105 L 98.12135233343533,80.1767955801105 L 98.14540047209645,80.1767955801105 L 98.174663222047,80.1767955801105 L 99.67045027891899,80.1767955801105 L 99.69614702321114,80.1767955801105 L 99.72431667594982,80.1767955801105 L 101.21732619072607,80.1767955801105 L 101.23773664522311,80.1767955801105 L 101.26925726810309,80.1767955801105 L 102.76837737548996,80.1767955801105 L 102.7904185159916,80.1767955801105 L 102.82132987157316,80.1767955801105 L 104.31554000131982,80.1767955801105 L 104.34121882598555,80.1767955801105 L 104.37214810119355,80.1767955801105 L 105.86289974304034,80.1767955801105 L 105.88768258638488,80.1767955801105 L 105.90622939973382,80.1767955801105 L 107.4081270492164,80.1767955801105 L 107.44317783850195,80.1767955801105 L 107.46684966500817,80.1767955801105 L 108.95973374239945,80.1767955801105 L 108.98379980068701,80.1767955801105 L 110.53386540599759,80.1767955801105 L 110.56027893534669,80.1767955801105 L 112.05269710245095,80.1767955801105 L 112.07592093829658,80.1767955801105 L 112.10357092186895,80.1767955801105 L 113.60441131339253,80.1767955801105 L 113.63329775118817,80.1767955801105 L 113.66085813662843,80.1767955801105 L 115.1526849560607,80.1767955801105 L 115.18237777704542,80.1767955801105 L 115.21135381297317,80.1767955801105 L 116.70361070343962,80.1767955801105 L 116.73131444589126,80.1767955801105 L 116.7551475490353,80.1767955801105 L 118.24749403763387,80.1767955801105 L 118.27582496701037,40 L 118.30490852069666,40 L 119.82411652930494,40 L 119.8500283091142,40 L 121.33950765748489,40 L 121.36735475694793,40 L 121.38600908805542,40 L 122.8916161002078,40 L 122.91933776228588,40 L 122.94765077203596,40 L 124.43693300451598,40 L 124.46576568343235,40 L 124.50121070449921,40 L 125.99155019493827,40 L 126.02179852434215,40 L 126.04331999567748,40 L 127.5387665796474,40 L 127.56297599494636,40 L 127.5926150570518,40 L 129.08956688964136,40 L 129.14443678575196,40 L 130.63353982196773,40 L 130.66321472332604,40 L 130.6905600732492,40 L 132.18347998989333,40 L 132.2115600444999,40 L 132.2408765533297,40 L 133.7323628998599,40 L 133.76099846288562,40 L 133.79321795119614,40 L 135.2799018378447,40 L 135.31004264949001,40 L 135.34100776395084,40 L 136.83082758522363,40 L 136.86039496882336,40 L 136.88858254118847,40 L 138.38121574380983,40 L 138.40248634037522,40 L 138.43192828659,40 L 139.9240239004186,40 L 139.9513871699682,40 L 139.98310490873885,40 L 141.47297848889087,40 L 141.50018048180266,40 L 141.53012417755733,40 L 143.021377568944,40 L 143.04714599174184,40 L 143.07891748939176,40 L 144.57085182658258,40 L 144.59662024938044,40 L 144.62050711140375,40 L 146.12441175904587,40 L 146.14636330141536,40 L 146.17831399532952,40 L 147.66795462033804,40 L 147.69322129359603,40 L 147.72164182110464,40 L 149.2154756386964,40 L 149.23773181471512,40 L 149.27138487313957,40 L 150.7621365149864,40 L 150.7882633303127,40 L 150.8203215419854,40 L 152.3086719538914,40 L 152.3330426458282,40 L 152.3677171229588,40 L 153.85282408248202,40 L 153.88430886610917,40 L 153.91663587217823,40 L 155.40652737195668,40 L 155.4316686078297,40 L 155.46116431292376,40 L 156.95686177166363,40 L 156.98401000569612,40 L 157.01700003794286,40 L 158.50250122924743,40 L 158.53421896801808,40 L 158.5692697573036,40 L 160.05382120840767,40 L 160.0779410255745,40 L 160.10949748770733,40 L 161.60313418940845,40 L 161.62555164206498,40 L 161.6571797827035,40 L 163.1479851834296,40 L 163.17271426789483,40 L 163.2036793823557,40 L 164.6968143345169,40 L 164.72489438912345,40 L 166.24754296600514,40 L 166.27334722805585,40 L 166.29780751812473,40 L 167.79649755447744,40 L 167.826226214715,40 L 167.86002263015084,40 L 169.33491540261232,40 L 169.37116680686827,40 L 169.40207816244984,40 L 170.8895146734082,40 L 170.9089216288255,40 L 170.94571062187416,40 L 172.4382721459898,40 L 172.4657966921772,40 L 172.49631381597743,40 L 173.9888215812138,40 L 174.01482295915517,40 L 174.0423475053426,40 L 175.53297370980442,40 L 175.56264861116273,40 L 175.5920726377511,40 L 177.08031553189855,40 L 177.1075175248103,40 L 177.13819592524837,40 L 178.6336425092183,40 L 178.66423131152422,40 L 178.697221343771,40 L 180.18444281921225,40 L 180.20757705692577,40 L 180.2587017511137,40 L 181.73341532731095,40 L 181.75694379680579,40 L 181.78651118040554,40 L 183.2764922783161,40 L 183.30412434226207,40 L 183.33333333333334,40" stroke="#f59e0b" stroke-width="4" fill="none" opacity="0.4" stroke-dasharray="14800" stroke-dashoffset="14800">
      <animate attributeName="stroke-dashoffset" values="14800;0" dur="3s" begin="3.5999999999999996s" fill="freeze"/>
    </path>
    
    <!-- Animated circle that moves along the path and draws the line -->
    <circle r="5" fill="#f59e0b" opacity="0" filter="url(#trailGlow)">
      <animate attributeName="opacity" values="0;1;1;1" dur="3.2s" begin="3.4s" fill="freeze"/>
      <animate attributeName="r" values="5;6;5" dur="1s" begin="3.4s" repeatCount="3"/>
      <animateMotion dur="3s" begin="3.4s" fill="freeze">
        <mpath href="#path_totalContributions_526.6666666666667"/>
      </animateMotion>
    </circle>
    
    <!-- Small trail dots that fade out -->
    <circle r="2" fill="#f59e0b" opacity="0">
      <animate attributeName="opacity" values="0;0.6;0" dur="0.8s" begin="3.8s" fill="freeze"/>
      <animateMotion dur="3s" begin="3.4s" fill="freeze">
        <mpath href="#path_totalContributions_526.6666666666667"/>
      </animateMotion>
    </circle>
    
    <!-- Hidden path for motion animation -->
    <path id="path_totalContributions_526.6666666666667" d="M 30,160 L 30.026073056447057,160 L 30.05125013157291,160 L 31.549940167925598,160 L 31.572303861702867,160 L 31.598341078897075,160 L 33.09389518062555,160 L 33.119394809027035,160 L 33.148102050558435,160 L 34.64464173174023,160 L 34.666862068506106,160 L 34.697647986702705,160 L 36.18185896490473,160 L 36.2154582644499,160 L 36.24640545928431,160 L 37.74154740960503,160 L 37.77029049038928,160 L 37.79949948146055,160 L 39.290681194341545,160 L 39.320624890096205,160 L 39.3543137877735,160 L 40.834026939743076,160 L 40.85916817561608,160 L 40.887947095653175,160 L 42.382658974939716,160 L 42.40136706492647,160 L 42.43428541866753,160 L 43.932007795193314,160 L 43.9546044441141,160 L 43.98533660343142,160 L 45.48193004349249,160 L 45.504562531666124,160 L 45.53145989092869,160 L 47.02758742070273,80.1767955801105 L 47.050542462151995,80.1767955801105 L 47.08000232799321,80.1767955801105 L 48.57733047273767,80.1767955801105 L 48.601145656255284,80.1767955801105 L 48.63435072401913,80.1767955801105 L 50.1167339003259,80.1767955801105 L 50.150064405474716,80.1767955801105 L 50.18269604519298,80.1767955801105 L 51.6744870253724,80.1767955801105 L 51.69199450038874,80.1767955801105 L 51.721848598011285,80.1767955801105 L 53.219947286691976,80.1767955801105 L 53.24444341601371,80.1767955801105 L 53.276662904324226,80.1767955801105 L 54.76189530123243,80.1767955801105 L 54.794043111037254,80.1767955801105 L 54.82276827219508,80.1767955801105 L 56.317032160821014,80.1767955801105 L 56.34231675370541,80.1767955801105 L 56.37007425503633,80.1767955801105 L 57.86308376981258,80.1767955801105 L 57.88788453278353,80.1767955801105 L 57.91295409015084,80.1767955801105 L 57.952681901933055,80.1767955801105 L 59.416930416298634,80.1767955801105 L 59.44309307087781,80.1767955801105 L 59.47029506378959,80.1767955801105 L 60.96412888138135,80.1767955801105 L 60.99021985745483,80.1767955801105 L 61.01872998309556,80.1767955801105 L 62.51159614086042,80.1767955801105 L 62.5356084402687,80.1767955801105 L 62.563007549071145,80.1767955801105 L 64.05530027879044,80.1767955801105 L 64.08415087733323,80.1767955801105 L 65.61443321507159,80.1767955801105 L 65.63195860971436,80.1767955801105 L 65.65976986992456,80.1767955801105 L 67.15498349875097,80.1767955801105 L 67.17965882433694,80.1767955801105 L 67.21015802851075,80.1767955801105 L 68.70286290963779,80.1767955801105 L 68.72694688755178,80.1767955801105 L 68.75402344307858,80.1767955801105 L 70.25382449626957,80.1767955801105 L 70.27966459757312,80.1767955801105 L 70.31204536252145,80.1767955801105 L 71.80369298568948,80.1767955801105 L 71.83154008515251,80.1767955801105 L 71.8582403285244,80.1767955801105 L 73.35452913493627,80.1767955801105 L 73.3716602977977,80.1767955801105 L 73.40067217297832,80.1767955801105 L 74.89740897005078,80.1767955801105 L 74.9198085030809,80.1767955801105 L 74.94550524737303,80.1767955801105 L 76.44534213981689,80.1767955801105 L 76.46621850460095,80.1767955801105 L 76.49788248449232,80.1767955801105 L 77.99291691705449,80.1767955801105 L 78.01581819962448,80.1767955801105 L 78.04567229724702,80.1767955801105 L 79.53821590173624,80.1767955801105 L 79.56027496186431,80.1767955801105 L 79.59276324457119,80.1767955801105 L 81.08550396495107,80.1767955801105 L 81.11788472989943,80.1767955801105 L 81.15094644065188,80.1767955801105 L 82.63901013853507,80.1767955801105 L 82.66278948279985,80.1767955801105 L 82.69269733930167,80.1767955801105 L 84.18687162979549,80.1767955801105 L 84.2103105011582,80.1767955801105 L 84.24021835766001,80.1767955801105 L 85.7358620575206,80.1767955801105 L 85.7666479757172,80.1767955801105 L 85.80302481735811,80.1767955801105 L 87.28452993197008,80.1767955801105 L 87.30689362574736,80.1767955801105 L 87.33549334952022,80.1767955801105 L 88.83443426064284,80.1767955801105 L 88.85341114502594,80.1767955801105 L 88.88335484078061,80.1767955801105 L 90.37760080978013,80.1767955801105 L 90.39992866430455,80.1767955801105 L 90.42843878994529,80.1767955801105 L 90.46744981667054,80.1767955801105 L 91.92996012727298,80.1767955801105 L 91.95976046601625,80.1767955801105 L 91.98934576924243,80.1767955801105 L 93.47439896988638,80.1767955801105 L 93.50169056093029,80.1767955801105 L 93.53020068657102,80.1767955801105 L 95.0253247172653,80.1767955801105 L 95.04066391748434,80.1767955801105 L 95.07666444697034,80.1767955801105 L 96.57193183467602,80.1767955801105 L 96.59737770419824,80.1767955801105 L 96.61828990823516,80.1767955801105 L 98.12135233343533,80.1767955801105 L 98.14540047209645,80.1767955801105 L 98.174663222047,80.1767955801105 L 99.67045027891899,80.1767955801105 L 99.69614702321114,80.1767955801105 L 99.72431667594982,80.1767955801105 L 101.21732619072607,80.1767955801105 L 101.23773664522311,80.1767955801105 L 101.26925726810309,80.1767955801105 L 102.76837737548996,80.1767955801105 L 102.7904185159916,80.1767955801105 L 102.82132987157316,80.1767955801105 L 104.31554000131982,80.1767955801105 L 104.34121882598555,80.1767955801105 L 104.37214810119355,80.1767955801105 L 105.86289974304034,80.1767955801105 L 105.88768258638488,80.1767955801105 L 105.90622939973382,80.1767955801105 L 107.4081270492164,80.1767955801105 L 107.44317783850195,80.1767955801105 L 107.46684966500817,80.1767955801105 L 108.95973374239945,80.1767955801105 L 108.98379980068701,80.1767955801105 L 110.53386540599759,80.1767955801105 L 110.56027893534669,80.1767955801105 L 112.05269710245095,80.1767955801105 L 112.07592093829658,80.1767955801105 L 112.10357092186895,80.1767955801105 L 113.60441131339253,80.1767955801105 L 113.63329775118817,80.1767955801105 L 113.66085813662843,80.1767955801105 L 115.1526849560607,80.1767955801105 L 115.18237777704542,80.1767955801105 L 115.21135381297317,80.1767955801105 L 116.70361070343962,80.1767955801105 L 116.73131444589126,80.1767955801105 L 116.7551475490353,80.1767955801105 L 118.24749403763387,80.1767955801105 L 118.27582496701037,40 L 118.30490852069666,40 L 119.82411652930494,40 L 119.8500283091142,40 L 121.33950765748489,40 L 121.36735475694793,40 L 121.38600908805542,40 L 122.8916161002078,40 L 122.91933776228588,40 L 122.94765077203596,40 L 124.43693300451598,40 L 124.46576568343235,40 L 124.50121070449921,40 L 125.99155019493827,40 L 126.02179852434215,40 L 126.04331999567748,40 L 127.5387665796474,40 L 127.56297599494636,40 L 127.5926150570518,40 L 129.08956688964136,40 L 129.14443678575196,40 L 130.63353982196773,40 L 130.66321472332604,40 L 130.6905600732492,40 L 132.18347998989333,40 L 132.2115600444999,40 L 132.2408765533297,40 L 133.7323628998599,40 L 133.76099846288562,40 L 133.79321795119614,40 L 135.2799018378447,40 L 135.31004264949001,40 L 135.34100776395084,40 L 136.83082758522363,40 L 136.86039496882336,40 L 136.88858254118847,40 L 138.38121574380983,40 L 138.40248634037522,40 L 138.43192828659,40 L 139.9240239004186,40 L 139.9513871699682,40 L 139.98310490873885,40 L 141.47297848889087,40 L 141.50018048180266,40 L 141.53012417755733,40 L 143.021377568944,40 L 143.04714599174184,40 L 143.07891748939176,40 L 144.57085182658258,40 L 144.59662024938044,40 L 144.62050711140375,40 L 146.12441175904587,40 L 146.14636330141536,40 L 146.17831399532952,40 L 147.66795462033804,40 L 147.69322129359603,40 L 147.72164182110464,40 L 149.2154756386964,40 L 149.23773181471512,40 L 149.27138487313957,40 L 150.7621365149864,40 L 150.7882633303127,40 L 150.8203215419854,40 L 152.3086719538914,40 L 152.3330426458282,40 L 152.3677171229588,40 L 153.85282408248202,40 L 153.88430886610917,40 L 153.91663587217823,40 L 155.40652737195668,40 L 155.4316686078297,40 L 155.46116431292376,40 L 156.95686177166363,40 L 156.98401000569612,40 L 157.01700003794286,40 L 158.50250122924743,40 L 158.53421896801808,40 L 158.5692697573036,40 L 160.05382120840767,40 L 160.0779410255745,40 L 160.10949748770733,40 L 161.60313418940845,40 L 161.62555164206498,40 L 161.6571797827035,40 L 163.1479851834296,40 L 163.17271426789483,40 L 163.2036793823557,40 L 164.6968143345169,40 L 164.72489438912345,40 L 166.24754296600514,40 L 166.27334722805585,40 L 166.29780751812473,40 L 167.79649755447744,40 L 167.826226214715,40 L 167.86002263015084,40 L 169.33491540261232,40 L 169.37116680686827,40 L 169.40207816244984,40 L 170.8895146734082,40 L 170.9089216288255,40 L 170.94571062187416,40 L 172.4382721459898,40 L 172.4657966921772,40 L 172.49631381597743,40 L 173.9888215812138,40 L 174.01482295915517,40 L 174.0423475053426,40 L 175.53297370980442,40 L 175.56264861116273,40 L 175.5920726377511,40 L 177.08031553189855,40 L 177.1075175248103,40 L 177.13819592524837,40 L 178.6336425092183,40 L 178.66423131152422,40 L 178.697221343771,40 L 180.18444281921225,40 L 180.20757705692577,40 L 180.2587017511137,40 L 181.73341532731095,40 L 181.75694379680579,40 L 181.78651118040554,40 L 183.2764922783161,40 L 183.30412434226207,40 L 183.33333333333334,40" fill="none" stroke="none"/>
  </g>
  
  <!-- Footer -->
  <text x="400" y="580" text-anchor="middle" fill="#64748b" font-size="12" font-family="Arial, sans-serif">
    Generated by GitHub User Rank Tracker • 12/3/2025
    <animate attributeName="opacity" values="0;1" dur="0.5s" begin="5s" fill="freeze"/>
  </text>
</svg>