<svg width="800" height="600" xmlns="http://www.w3.org/2000/svg">
  <defs>
    <linearGradient id="bgGradient" x1="0%" y1="0%" x2="100%" y2="100%">
      <stop offset="0%" style="stop-color:#1e293b;stop-opacity:1" />
      <stop offset="100%" style="stop-color:#0f172a;stop-opacity:1" />
    </linearGradient>
    <filter id="shadow" x="-20%" y="-20%" width="140%" height="140%">
      <feDropShadow dx="2" dy="2" stdDeviation="3" flood-color="#000" flood-opacity="0.3"/>
    </filter>
    <!-- Trail effect filter -->
    <filter id="trailGlow" x="-50%" y="-50%" width="200%" height="200%">
      <feGaussianBlur stdDeviation="3" result="coloredBlur"/>
      <feMerge> 
        <feMergeNode in="coloredBlur"/>
        <feMergeNode in="SourceGraphic"/>
      </feMerge>
    </filter>
  </defs>
  
  <!-- Background -->
  <rect width="800" height="600" fill="url(#bgGradient)" rx="12"/>
  
  <!-- Header -->
  <text x="400" y="40" text-anchor="middle" fill="#f8fafc" font-size="24" font-weight="bold" font-family="Arial, sans-serif">
    GitHub Progress Report
    <animate attributeName="opacity" values="0;1" dur="0.8s" begin="0s" fill="freeze"/>
    <animateTransform attributeName="transform" type="translate" values="0,-20;0,0" dur="0.8s" begin="0s" fill="freeze"/>
  </text>
  
  <!-- User Info -->
  <text x="400" y="70" text-anchor="middle" fill="#cbd5e1" font-size="16" font-family="Arial, sans-serif">
    @maifeeulasad • BANGLADESH • 100 days analyzed
    <animate attributeName="opacity" values="0;1" dur="0.6s" begin="0.3s" fill="freeze"/>
  </text>
  
  <!-- Progress Cards -->
  <!-- Followers Card -->
  <g transform="translate(60, 100)">
    <rect width="206.66666666666666" height="120" fill="#1e293b" stroke="#334155" stroke-width="1" rx="8" filter="url(#shadow)">
      <animate attributeName="opacity" values="0;1" dur="0.6s" begin="0.2s" fill="freeze"/>
      <animateTransform attributeName="transform" type="scale" values="0.8;1" dur="0.6s" begin="0.2s" fill="freeze"/>
    </rect>
    <text x="103.33333333333333" y="25" text-anchor="middle" fill="#94a3b8" font-size="14" font-weight="bold" font-family="Arial, sans-serif">FOLLOWERS
      <animate attributeName="opacity" values="0;1" dur="0.5s" begin="0.4s" fill="freeze"/>
    </text>
    
    <text x="103.33333333333333" y="50" text-anchor="middle" fill="#22c55e" font-size="32" font-weight="bold" font-family="Arial, sans-serif">
      ↗
      <animate attributeName="opacity" values="0;1" dur="0.5s" begin="0.6s" fill="freeze"/>
      <animateTransform attributeName="transform" type="scale" values="0;1.2;1" dur="0.8s" begin="0.6s" fill="freeze"/>
    </text>
    
    <text x="103.33333333333333" y="75" text-anchor="middle" fill="#f8fafc" font-size="18" font-weight="bold" font-family="Arial, sans-serif">
      +6
      <animate attributeName="opacity" values="0;1" dur="0.5s" begin="0.8s" fill="freeze"/>
    </text>
    
    <text x="103.33333333333333" y="95" text-anchor="middle" fill="#94a3b8" font-size="12" font-family="Arial, sans-serif">
      #473 → #467
      <animate attributeName="opacity" values="0;1" dur="0.5s" begin="1s" fill="freeze"/>
    </text>
  </g>
  
  <!-- Public Contributions Card -->
  <g transform="translate(296.66666666666663, 100)">
    <rect width="206.66666666666666" height="120" fill="#1e293b" stroke="#334155" stroke-width="1" rx="8" filter="url(#shadow)">
      <animate attributeName="opacity" values="0;1" dur="0.6s" begin="0.4s" fill="freeze"/>
      <animateTransform attributeName="transform" type="scale" values="0.8;1" dur="0.6s" begin="0.4s" fill="freeze"/>
    </rect>
    <text x="103.33333333333333" y="25" text-anchor="middle" fill="#94a3b8" font-size="14" font-weight="bold" font-family="Arial, sans-serif">PUBLIC
      <animate attributeName="opacity" values="0;1" dur="0.5s" begin="0.6s" fill="freeze"/>
    </text>
    
    <text x="103.33333333333333" y="50" text-anchor="middle" fill="#22c55e" font-size="32" font-weight="bold" font-family="Arial, sans-serif">
      ↗
      <animate attributeName="opacity" values="0;1" dur="0.5s" begin="0.8s" fill="freeze"/>
      <animateTransform attributeName="transform" type="scale" values="0;1.2;1" dur="0.8s" begin="0.8s" fill="freeze"/>
    </text>
    
    <text x="103.33333333333333" y="75" text-anchor="middle" fill="#f8fafc" font-size="18" font-weight="bold" font-family="Arial, sans-serif">
      +11
      <animate attributeName="opacity" values="0;1" dur="0.5s" begin="1s" fill="freeze"/>
    </text>
    
    <text x="103.33333333333333" y="95" text-anchor="middle" fill="#94a3b8" font-size="12" font-family="Arial, sans-serif">
      #18 → #7
      <animate attributeName="opacity" values="0;1" dur="0.5s" begin="1.2s" fill="freeze"/>
    </text>
  </g>
  
  <!-- Total Contributions Card -->
  <g transform="translate(533.3333333333333, 100)">
    <rect width="206.66666666666666" height="120" fill="#1e293b" stroke="#334155" stroke-width="1" rx="8" filter="url(#shadow)">
      <animate attributeName="opacity" values="0;1" dur="0.6s" begin="0.6s" fill="freeze"/>
      <animateTransform attributeName="transform" type="scale" values="0.8;1" dur="0.6s" begin="0.6s" fill="freeze"/>
    </rect>
    <text x="103.33333333333333" y="25" text-anchor="middle" fill="#94a3b8" font-size="14" font-weight="bold" font-family="Arial, sans-serif">TOTAL
      <animate attributeName="opacity" values="0;1" dur="0.5s" begin="0.8s" fill="freeze"/>
    </text>
    
    <text x="103.33333333333333" y="50" text-anchor="middle" fill="#22c55e" font-size="32" font-weight="bold" font-family="Arial, sans-serif">
      ↗
      <animate attributeName="opacity" values="0;1" dur="0.5s" begin="1s" fill="freeze"/>
      <animateTransform attributeName="transform" type="scale" values="0;1.2;1" dur="0.8s" begin="1s" fill="freeze"/>
    </text>
    
    <text x="103.33333333333333" y="75" text-anchor="middle" fill="#f8fafc" font-size="18" font-weight="bold" font-family="Arial, sans-serif">
      +15
      <animate attributeName="opacity" values="0;1" dur="0.5s" begin="1.2s" fill="freeze"/>
    </text>
    
    <text x="103.33333333333333" y="95" text-anchor="middle" fill="#94a3b8" font-size="12" font-family="Arial, sans-serif">
      #39 → #24
      <animate attributeName="opacity" values="0;1" dur="0.5s" begin="1.4s" fill="freeze"/>
    </text>
  </g>
  
  <!-- Timeline Charts (if we have snapshots) -->
  
  <!-- 👥 Followers Count Chart -->
  <g transform="translate(60, 250)">
    <!-- Chart Background -->
    <rect x="0" y="0" width="213.33333333333334" height="200" fill="#0f172a" stroke="#334155" stroke-width="1" rx="8" filter="url(#shadow)">
      <animate attributeName="opacity" values="0;1" dur="0.5s" begin="1.8s" fill="freeze"/>
    </rect>
    
    <!-- Chart Title -->
    <text x="106.66666666666667" y="25" text-anchor="middle" fill="#f8fafc" font-size="14" font-weight="bold" font-family="Arial, sans-serif">
      👥 Followers Count
      <animate attributeName="opacity" values="0;1" dur="0.5s" begin="2s" fill="freeze"/>
    </text>
    
    <!-- Y-axis labels -->
    <text x="10" y="45" fill="#94a3b8" font-size="10" font-family="Arial, sans-serif">143
      <animate attributeName="opacity" values="0;1" dur="0.5s" begin="2.2s" fill="freeze"/>
    </text>
    <text x="10" y="185" fill="#94a3b8" font-size="10" font-family="Arial, sans-serif">136
      <animate attributeName="opacity" values="0;1" dur="0.5s" begin="2.2s" fill="freeze"/>
    </text>
    
    <!-- Chart Line with draw animation that follows the circle -->
    <path d="M 30,160 L 30.030893742844494,160 L 30.06133949057814,160 L 31.548486140764815,160 L 31.575652564287005,160 L 31.607263099308867,160 L 33.12390574759418,160 L 33.15268495351545,160 L 34.64515378561907,160 L 34.66922008297415,160 L 34.70068725956054,160 L 36.19048604080347,160 L 36.21668479488622,160 L 36.249406357783,160 L 37.73832706860866,160 L 37.767285472574265,160 L 37.79685314989063,160 L 39.286634011329134,160 L 39.312868605020746,160 L 39.344407460824875,160 L 40.838739952589656,160 L 40.86803883283951,160 L 40.8988250568574,160 L 42.387638248856454,160 L 42.41319188997957,160 L 42.44523250030785,160 L 43.934565366635496,160 L 43.95744895689792,160 L 43.98533217259748,160 L 45.481384965587935,160 L 45.50989537444269,160 L 45.538513302124045,160 L 47.02766697040735,160 L 47.05512011080049,160 L 47.08655144777801,160 L 48.57437905053319,160 L 48.60025524813612,160 L 48.635055508347264,160 L 50.11822396194955,160 L 50.14931482264282,160 L 50.18031608431393,160 L 51.675096571189556,160 L 51.704789687136966,160 L 51.738066763971204,160 L 53.22573308848648,160 L 53.25069537606326,160 L 53.28413373113741,160 L 54.77054566934228,160 L 54.80452161854946,160 L 54.84032538780892,160 L 56.31908556952041,160 L 56.344818408687864,160 L 56.3765185427319,160 L 57.870116322514875,160 L 57.89230104040437,160 L 57.924664207212466,160 L 59.414086672562284,160 L 59.440482544493804,160 L 59.47177052303586,160 L 60.961784341932,160 L 60.98837733171229,160 L 61.01936067357896,160 L 62.514624995174316,160 L 62.541827258305375,160 L 62.57768478697813,160 L 64.06060236331835,160 L 64.09387944015259,160 L 64.11565200254009,160 L 65.60760116031514,160 L 65.63387159361561,160 L 65.66644979807691,160 L 67.15058592111866,160 L 67.1858520962451,160 L 67.21619032515213,160 L 68.70579198854628,160 L 68.73288673285074,160 L 68.76489150357014,160 L 70.25549667601263,160 L 70.28205382618405,160 L 70.31097639054079,160 L 71.80367818010207,160 L 71.83088044323313,160 L 71.85944461150117,160 L 73.35116081181857,160 L 73.38320142214684,160 L 73.4161738623057,160 L 74.8990376792326,160 L 74.92867703576673,160 L 74.96209747103644,160 L 76.4386355969981,160 L 76.47827420440646,160 L 76.5107628098456,160 L 77.99549028643366,160 L 78.02389317646181,160 L 78.05476899950187,160 L 79.54406602622066,160 L 79.57067693580538,160 L 79.60243082926272,160 L 81.09020467260459,160 L 81.11824916654405,160 L 81.14989554117479,160 L 82.63940760554678,160 L 82.66202239874269,160 L 82.69739609269573,160 L 84.19061755658558,160 L 84.22154713903895,160 L 84.25787058262699,160 L 85.74102111642486,160 L 85.76763202600958,160 L 85.7995292779024,160 L 87.28698056476446,57.14285714285715 L 87.31287468217181,57.14285714285715 L 87.34618759861493,57.14285714285715 L 88.83204402288234,57.14285714285715 L 88.85779478185424,57.14285714285715 L 88.89309679658953,57.14285714285715 L 90.37275296852273,57.14285714285715 L 90.40791162482256,57.14285714285715 L 90.44357203564655,57.14285714285715 L 91.93001981346029,57.14285714285715 L 91.95202533330544,57.14285714285715 L 91.98503361307317,57.14285714285715 L 93.4777712422433,57.14285714285715 L 93.50373703886842,57.14285714285715 L 93.53742627120464,57.14285714285715 L 95.0207380832424,57.14285714285715 L 95.06021541241087,57.14285714285715 L 95.09370752689831,57.14285714285715 L 96.57503024064388,57.14285714285715 L 96.60764428471407,57.14285714285715 L 96.6407600833084,57.14285714285715 L 98.12658066796695,57.14285714285715 L 98.15657842058974,57.14285714285715 L 98.18933582309538,57.14285714285715 L 99.67132156960503,57.14285714285715 L 99.70223323225396,57.14285714285715 L 99.73422008316894,57.14285714285715 L 101.21801572992642,57.14285714285715 L 101.24905283120638,57.14285714285715 L 101.28353053493773,57.14285714285715 L 102.76908232252975,57.14285714285715 L 102.80427681843845,57.14285714285715 L 102.83819900823232,57.14285714285715 L 104.31636783639749,57.14285714285715 L 104.34629390980254,57.14285714285715 L 104.37394416804445,57.14285714285715 L 105.86910097081321,57.14285714285715 L 105.9008907038794,57.14285714285715 L 105.93587016213489,57.14285714285715 L 107.41292796242514,57.14285714285715 L 107.44498649255786,57.14285714285715 L 107.48150705399468,57.14285714285715 L 108.96164706064759,57.14285714285715 L 108.99171649248812,57.14285714285715 L 109.02474269206029,57.14285714285715 L 110.51063495593657,57.14285714285715 L 110.53783721906763,57.14285714285715 L 110.57362306852265,57.14285714285715 L 112.05973037005215,57.14285714285715 L 112.08879629284436,57.14285714285715 L 112.11859692761837,57.14285714285715 L 113.6094350575185,57.14285714285715 L 113.63445110450857,57.14285714285715 L 113.6668321911211,57.14285714285715 L 115.15290365304175,57.14285714285715 L 115.17673699293918,57.14285714285715 L 115.20456644922542,57.14285714285715 L 116.70432864173375,57.14285714285715 L 116.73171010290915,57.14285714285715 L 116.76797978708389,57.14285714285715 L 118.25177543384139,57.14285714285715 L 118.27974824856312,57.14285714285715 L 118.31399299483681,57.14285714285715 L 119.79447347777398,57.14285714285715 L 119.82011671791926,57.14285714285715 L 119.85396722849539,57.14285714285715 L 121.3394473368697,57.14285714285715 L 121.37218681957091,57.14285714285715 L 121.40487254285883,57.14285714285715 L 122.89384701309778,57.14285714285715 L 122.9198128097229,57.14285714285715 L 122.9510828684605,57.14285714285715 L 124.44331874310647,57.14285714285715 L 124.46932037934045,57.14285714285715 L 124.50071587670911,57.14285714285715 L 125.9882926022022,57.14285714285715 L 126.0179319587363,57.14285714285715 L 126.04916617786505,57.14285714285715 L 127.5415454109465,57.14285714285715 L 127.56975118312587,57.14285714285715 L 127.60320745800446,57.14285714285715 L 129.09083794291087,57.14285714285715 L 129.11664246129607,57.14285714285715 L 129.1528583860575,57.14285714285715 L 130.63455741569618,57.14285714285715 L 130.66009313701488,57.14285714285715 L 130.69070016298843,57.14285714285715 L 132.18252388213241,57.14285714285715 L 132.20831048071318,57.14285714285715 L 132.2394730206242,57.14285714285715 L 133.73249736666526,57.14285714285715 L 133.7539652923774,57.14285714285715 L 133.78473359659085,57.14285714285715 L 135.28064303114584,57.14285714285715 L 135.3056949177448,57.14285714285715 L 135.32646397108397,57.14285714285715 L 136.8268354369431,57.14285714285715 L 136.85070461644938,57.14285714285715 L 136.88089948692095,57.14285714285715 L 138.37121794249248,57.14285714285715 L 138.4071113107741,57.14285714285715 L 138.4396357558221,57.14285714285715 L 139.92608353363585,57.14285714285715 L 139.95274820263387,57.14285714285715 L 139.98398242176262,57.14285714285715 L 141.47467719322725,57.14285714285715 L 141.50075050867898,57.14285714285715 L 141.52592783390895,57.14285714285715 L 143.0246327579557,57.14285714285715 L 143.0469966738895,57.14285714285715 L 143.07303414973236,57.14285714285715 L 144.56860310800312,57.14285714285715 L 144.59410298971292,57.14285714285715 L 144.62281051641645,57.14285714285715 L 146.11936506393107,57.14285714285715 L 146.1415856214294,57.14285714285715 L 146.1723718454473,57.14285714285715 L 147.6565975675112,57.14285714285715 L 147.69019720082525,57.14285714285715 L 147.72114470308304,57.14285714285715 L 149.21630150585182,57.14285714285715 L 149.24504487216421,57.14285714285715 L 149.2742541533919,57.14285714285715 L 150.7654506793807,57.14285714285715 L 150.7953946725902,57.14285714285715 L 150.8290839049264,57.14285714285715 L 152.30881175607735,57.14285714285715 L 152.33395324169848,57.14285714285715 L 152.36273244761975,57.14285714285715 L 153.85745917508206,57.14285714285715 L 153.87616745091134,57.14285714285715 L 153.9090861316569,57.14285714285715 L 155.40682338626414,57.14285714285715 L 155.42942025965564,57.14285714285715 L 155.46015272426024,57.14285714285715 L 156.95676103118814,57.14285714285715 L 156.97939374418849,57.14285714285715 L 157.0062913706442,57.14285714285715 L 158.5024337626568,40 L 158.52538903213696,40 L 158.55484919062673,40 L 160.05219220953643,40 L 160.07600762962943,40 L 160.10921302724594,40 L 161.59161092925757,40 L 161.6249417655051,40 L 161.65757372937972,40 L 163.14937952871927,40 L 163.16688717765146,40 L 163.19674157183877,40 L 164.69485514233915,40 L 164.71935151500065,40 L 164.75157132337327,40 L 166.23681847428995,40 L 166.26896660344482,40 L 166.2976920499528,40 L 167.79197078230428,40 L 167.81725562636086,40 L 167.8450134034294,40 L 169.3380377494705,40 L 169.36283875880736,40 L 169.38790856521075,40 L 169.4276367716413,40 L 170.89189983156552,40 L 170.91806274603942,40 L 170.94526500917047,40 L 172.43911366621552,40 L 172.46520490147165,40 L 172.49371531032642,40 L 173.98659629793204,40 L 174.01060883587382,40 L 174.03800821685365,40 L 175.53031577071735,40 L 175.55916665585636,40 L 177.0894641951205,40 L 177.10698976385711,40 L 177.13480130033892,40 L 178.6300297823254,40 L 178.65470535303126,40 L 178.6852048601782,40 L 180.1779245695439,40 L 180.2020087867034,40 L 180.22908561120343,40 L 181.72890156312508,40 L 181.75474192111915,40 L 181.78712300773168,40 L 183.27878544863577,40 L 183.30663282472645,40 L 183.33333333333334,40" stroke="#22c55e" stroke-width="2" fill="none" stroke-dasharray="14950" stroke-dashoffset="14950">
      <animate attributeName="stroke-dashoffset" values="14950;0" dur="3s" begin="2.6s" fill="freeze"/>
    </path>
    
    <!-- Glow effect for the line that also follows the circle -->
    <path d="M 30,160 L 30.030893742844494,160 L 30.06133949057814,160 L 31.548486140764815,160 L 31.575652564287005,160 L 31.607263099308867,160 L 33.12390574759418,160 L 33.15268495351545,160 L 34.64515378561907,160 L 34.66922008297415,160 L 34.70068725956054,160 L 36.19048604080347,160 L 36.21668479488622,160 L 36.249406357783,160 L 37.73832706860866,160 L 37.767285472574265,160 L 37.79685314989063,160 L 39.286634011329134,160 L 39.312868605020746,160 L 39.344407460824875,160 L 40.838739952589656,160 L 40.86803883283951,160 L 40.8988250568574,160 L 42.387638248856454,160 L 42.41319188997957,160 L 42.44523250030785,160 L 43.934565366635496,160 L 43.95744895689792,160 L 43.98533217259748,160 L 45.481384965587935,160 L 45.50989537444269,160 L 45.538513302124045,160 L 47.02766697040735,160 L 47.05512011080049,160 L 47.08655144777801,160 L 48.57437905053319,160 L 48.60025524813612,160 L 48.635055508347264,160 L 50.11822396194955,160 L 50.14931482264282,160 L 50.18031608431393,160 L 51.675096571189556,160 L 51.704789687136966,160 L 51.738066763971204,160 L 53.22573308848648,160 L 53.25069537606326,160 L 53.28413373113741,160 L 54.77054566934228,160 L 54.80452161854946,160 L 54.84032538780892,160 L 56.31908556952041,160 L 56.344818408687864,160 L 56.3765185427319,160 L 57.870116322514875,160 L 57.89230104040437,160 L 57.924664207212466,160 L 59.414086672562284,160 L 59.440482544493804,160 L 59.47177052303586,160 L 60.961784341932,160 L 60.98837733171229,160 L 61.01936067357896,160 L 62.514624995174316,160 L 62.541827258305375,160 L 62.57768478697813,160 L 64.06060236331835,160 L 64.09387944015259,160 L 64.11565200254009,160 L 65.60760116031514,160 L 65.63387159361561,160 L 65.66644979807691,160 L 67.15058592111866,160 L 67.1858520962451,160 L 67.21619032515213,160 L 68.70579198854628,160 L 68.73288673285074,160 L 68.76489150357014,160 L 70.25549667601263,160 L 70.28205382618405,160 L 70.31097639054079,160 L 71.80367818010207,160 L 71.83088044323313,160 L 71.85944461150117,160 L 73.35116081181857,160 L 73.38320142214684,160 L 73.4161738623057,160 L 74.8990376792326,160 L 74.92867703576673,160 L 74.96209747103644,160 L 76.4386355969981,160 L 76.47827420440646,160 L 76.5107628098456,160 L 77.99549028643366,160 L 78.02389317646181,160 L 78.05476899950187,160 L 79.54406602622066,160 L 79.57067693580538,160 L 79.60243082926272,160 L 81.09020467260459,160 L 81.11824916654405,160 L 81.14989554117479,160 L 82.63940760554678,160 L 82.66202239874269,160 L 82.69739609269573,160 L 84.19061755658558,160 L 84.22154713903895,160 L 84.25787058262699,160 L 85.74102111642486,160 L 85.76763202600958,160 L 85.7995292779024,160 L 87.28698056476446,57.14285714285715 L 87.31287468217181,57.14285714285715 L 87.34618759861493,57.14285714285715 L 88.83204402288234,57.14285714285715 L 88.85779478185424,57.14285714285715 L 88.89309679658953,57.14285714285715 L 90.37275296852273,57.14285714285715 L 90.40791162482256,57.14285714285715 L 90.44357203564655,57.14285714285715 L 91.93001981346029,57.14285714285715 L 91.95202533330544,57.14285714285715 L 91.98503361307317,57.14285714285715 L 93.4777712422433,57.14285714285715 L 93.50373703886842,57.14285714285715 L 93.53742627120464,57.14285714285715 L 95.0207380832424,57.14285714285715 L 95.06021541241087,57.14285714285715 L 95.09370752689831,57.14285714285715 L 96.57503024064388,57.14285714285715 L 96.60764428471407,57.14285714285715 L 96.6407600833084,57.14285714285715 L 98.12658066796695,57.14285714285715 L 98.15657842058974,57.14285714285715 L 98.18933582309538,57.14285714285715 L 99.67132156960503,57.14285714285715 L 99.70223323225396,57.14285714285715 L 99.73422008316894,57.14285714285715 L 101.21801572992642,57.14285714285715 L 101.24905283120638,57.14285714285715 L 101.28353053493773,57.14285714285715 L 102.76908232252975,57.14285714285715 L 102.80427681843845,57.14285714285715 L 102.83819900823232,57.14285714285715 L 104.31636783639749,57.14285714285715 L 104.34629390980254,57.14285714285715 L 104.37394416804445,57.14285714285715 L 105.86910097081321,57.14285714285715 L 105.9008907038794,57.14285714285715 L 105.93587016213489,57.14285714285715 L 107.41292796242514,57.14285714285715 L 107.44498649255786,57.14285714285715 L 107.48150705399468,57.14285714285715 L 108.96164706064759,57.14285714285715 L 108.99171649248812,57.14285714285715 L 109.02474269206029,57.14285714285715 L 110.51063495593657,57.14285714285715 L 110.53783721906763,57.14285714285715 L 110.57362306852265,57.14285714285715 L 112.05973037005215,57.14285714285715 L 112.08879629284436,57.14285714285715 L 112.11859692761837,57.14285714285715 L 113.6094350575185,57.14285714285715 L 113.63445110450857,57.14285714285715 L 113.6668321911211,57.14285714285715 L 115.15290365304175,57.14285714285715 L 115.17673699293918,57.14285714285715 L 115.20456644922542,57.14285714285715 L 116.70432864173375,57.14285714285715 L 116.73171010290915,57.14285714285715 L 116.76797978708389,57.14285714285715 L 118.25177543384139,57.14285714285715 L 118.27974824856312,57.14285714285715 L 118.31399299483681,57.14285714285715 L 119.79447347777398,57.14285714285715 L 119.82011671791926,57.14285714285715 L 119.85396722849539,57.14285714285715 L 121.3394473368697,57.14285714285715 L 121.37218681957091,57.14285714285715 L 121.40487254285883,57.14285714285715 L 122.89384701309778,57.14285714285715 L 122.9198128097229,57.14285714285715 L 122.9510828684605,57.14285714285715 L 124.44331874310647,57.14285714285715 L 124.46932037934045,57.14285714285715 L 124.50071587670911,57.14285714285715 L 125.9882926022022,57.14285714285715 L 126.0179319587363,57.14285714285715 L 126.04916617786505,57.14285714285715 L 127.5415454109465,57.14285714285715 L 127.56975118312587,57.14285714285715 L 127.60320745800446,57.14285714285715 L 129.09083794291087,57.14285714285715 L 129.11664246129607,57.14285714285715 L 129.1528583860575,57.14285714285715 L 130.63455741569618,57.14285714285715 L 130.66009313701488,57.14285714285715 L 130.69070016298843,57.14285714285715 L 132.18252388213241,57.14285714285715 L 132.20831048071318,57.14285714285715 L 132.2394730206242,57.14285714285715 L 133.73249736666526,57.14285714285715 L 133.7539652923774,57.14285714285715 L 133.78473359659085,57.14285714285715 L 135.28064303114584,57.14285714285715 L 135.3056949177448,57.14285714285715 L 135.32646397108397,57.14285714285715 L 136.8268354369431,57.14285714285715 L 136.85070461644938,57.14285714285715 L 136.88089948692095,57.14285714285715 L 138.37121794249248,57.14285714285715 L 138.4071113107741,57.14285714285715 L 138.4396357558221,57.14285714285715 L 139.92608353363585,57.14285714285715 L 139.95274820263387,57.14285714285715 L 139.98398242176262,57.14285714285715 L 141.47467719322725,57.14285714285715 L 141.50075050867898,57.14285714285715 L 141.52592783390895,57.14285714285715 L 143.0246327579557,57.14285714285715 L 143.0469966738895,57.14285714285715 L 143.07303414973236,57.14285714285715 L 144.56860310800312,57.14285714285715 L 144.59410298971292,57.14285714285715 L 144.62281051641645,57.14285714285715 L 146.11936506393107,57.14285714285715 L 146.1415856214294,57.14285714285715 L 146.1723718454473,57.14285714285715 L 147.6565975675112,57.14285714285715 L 147.69019720082525,57.14285714285715 L 147.72114470308304,57.14285714285715 L 149.21630150585182,57.14285714285715 L 149.24504487216421,57.14285714285715 L 149.2742541533919,57.14285714285715 L 150.7654506793807,57.14285714285715 L 150.7953946725902,57.14285714285715 L 150.8290839049264,57.14285714285715 L 152.30881175607735,57.14285714285715 L 152.33395324169848,57.14285714285715 L 152.36273244761975,57.14285714285715 L 153.85745917508206,57.14285714285715 L 153.87616745091134,57.14285714285715 L 153.9090861316569,57.14285714285715 L 155.40682338626414,57.14285714285715 L 155.42942025965564,57.14285714285715 L 155.46015272426024,57.14285714285715 L 156.95676103118814,57.14285714285715 L 156.97939374418849,57.14285714285715 L 157.0062913706442,57.14285714285715 L 158.5024337626568,40 L 158.52538903213696,40 L 158.55484919062673,40 L 160.05219220953643,40 L 160.07600762962943,40 L 160.10921302724594,40 L 161.59161092925757,40 L 161.6249417655051,40 L 161.65757372937972,40 L 163.14937952871927,40 L 163.16688717765146,40 L 163.19674157183877,40 L 164.69485514233915,40 L 164.71935151500065,40 L 164.75157132337327,40 L 166.23681847428995,40 L 166.26896660344482,40 L 166.2976920499528,40 L 167.79197078230428,40 L 167.81725562636086,40 L 167.8450134034294,40 L 169.3380377494705,40 L 169.36283875880736,40 L 169.38790856521075,40 L 169.4276367716413,40 L 170.89189983156552,40 L 170.91806274603942,40 L 170.94526500917047,40 L 172.43911366621552,40 L 172.46520490147165,40 L 172.49371531032642,40 L 173.98659629793204,40 L 174.01060883587382,40 L 174.03800821685365,40 L 175.53031577071735,40 L 175.55916665585636,40 L 177.0894641951205,40 L 177.10698976385711,40 L 177.13480130033892,40 L 178.6300297823254,40 L 178.65470535303126,40 L 178.6852048601782,40 L 180.1779245695439,40 L 180.2020087867034,40 L 180.22908561120343,40 L 181.72890156312508,40 L 181.75474192111915,40 L 181.78712300773168,40 L 183.27878544863577,40 L 183.30663282472645,40 L 183.33333333333334,40" stroke="#22c55e" stroke-width="4" fill="none" opacity="0.4" stroke-dasharray="14950" stroke-dashoffset="14950">
      <animate attributeName="stroke-dashoffset" values="14950;0" dur="3s" begin="2.6s" fill="freeze"/>
    </path>
    
    <!-- Animated circle that moves along the path and draws the line -->
    <circle r="5" fill="#22c55e" opacity="0" filter="url(#trailGlow)">
      <animate attributeName="opacity" values="0;1;1;1" dur="3.2s" begin="2.4s" fill="freeze"/>
      <animate attributeName="r" values="5;6;5" dur="1s" begin="2.4s" repeatCount="3"/>
      <animateMotion dur="3s" begin="2.4s" fill="freeze">
        <mpath href="#path_followersCount_60"/>
      </animateMotion>
    </circle>
    
    <!-- Small trail dots that fade out -->
    <circle r="2" fill="#22c55e" opacity="0">
      <animate attributeName="opacity" values="0;0.6;0" dur="0.8s" begin="2.8s" fill="freeze"/>
      <animateMotion dur="3s" begin="2.4s" fill="freeze">
        <mpath href="#path_followersCount_60"/>
      </animateMotion>
    </circle>
    
    <!-- Hidden path for motion animation -->
    <path id="path_followersCount_60" d="M 30,160 L 30.030893742844494,160 L 30.06133949057814,160 L 31.548486140764815,160 L 31.575652564287005,160 L 31.607263099308867,160 L 33.12390574759418,160 L 33.15268495351545,160 L 34.64515378561907,160 L 34.66922008297415,160 L 34.70068725956054,160 L 36.19048604080347,160 L 36.21668479488622,160 L 36.249406357783,160 L 37.73832706860866,160 L 37.767285472574265,160 L 37.79685314989063,160 L 39.286634011329134,160 L 39.312868605020746,160 L 39.344407460824875,160 L 40.838739952589656,160 L 40.86803883283951,160 L 40.8988250568574,160 L 42.387638248856454,160 L 42.41319188997957,160 L 42.44523250030785,160 L 43.934565366635496,160 L 43.95744895689792,160 L 43.98533217259748,160 L 45.481384965587935,160 L 45.50989537444269,160 L 45.538513302124045,160 L 47.02766697040735,160 L 47.05512011080049,160 L 47.08655144777801,160 L 48.57437905053319,160 L 48.60025524813612,160 L 48.635055508347264,160 L 50.11822396194955,160 L 50.14931482264282,160 L 50.18031608431393,160 L 51.675096571189556,160 L 51.704789687136966,160 L 51.738066763971204,160 L 53.22573308848648,160 L 53.25069537606326,160 L 53.28413373113741,160 L 54.77054566934228,160 L 54.80452161854946,160 L 54.84032538780892,160 L 56.31908556952041,160 L 56.344818408687864,160 L 56.3765185427319,160 L 57.870116322514875,160 L 57.89230104040437,160 L 57.924664207212466,160 L 59.414086672562284,160 L 59.440482544493804,160 L 59.47177052303586,160 L 60.961784341932,160 L 60.98837733171229,160 L 61.01936067357896,160 L 62.514624995174316,160 L 62.541827258305375,160 L 62.57768478697813,160 L 64.06060236331835,160 L 64.09387944015259,160 L 64.11565200254009,160 L 65.60760116031514,160 L 65.63387159361561,160 L 65.66644979807691,160 L 67.15058592111866,160 L 67.1858520962451,160 L 67.21619032515213,160 L 68.70579198854628,160 L 68.73288673285074,160 L 68.76489150357014,160 L 70.25549667601263,160 L 70.28205382618405,160 L 70.31097639054079,160 L 71.80367818010207,160 L 71.83088044323313,160 L 71.85944461150117,160 L 73.35116081181857,160 L 73.38320142214684,160 L 73.4161738623057,160 L 74.8990376792326,160 L 74.92867703576673,160 L 74.96209747103644,160 L 76.4386355969981,160 L 76.47827420440646,160 L 76.5107628098456,160 L 77.99549028643366,160 L 78.02389317646181,160 L 78.05476899950187,160 L 79.54406602622066,160 L 79.57067693580538,160 L 79.60243082926272,160 L 81.09020467260459,160 L 81.11824916654405,160 L 81.14989554117479,160 L 82.63940760554678,160 L 82.66202239874269,160 L 82.69739609269573,160 L 84.19061755658558,160 L 84.22154713903895,160 L 84.25787058262699,160 L 85.74102111642486,160 L 85.76763202600958,160 L 85.7995292779024,160 L 87.28698056476446,57.14285714285715 L 87.31287468217181,57.14285714285715 L 87.34618759861493,57.14285714285715 L 88.83204402288234,57.14285714285715 L 88.85779478185424,57.14285714285715 L 88.89309679658953,57.14285714285715 L 90.37275296852273,57.14285714285715 L 90.40791162482256,57.14285714285715 L 90.44357203564655,57.14285714285715 L 91.93001981346029,57.14285714285715 L 91.95202533330544,57.14285714285715 L 91.98503361307317,57.14285714285715 L 93.4777712422433,57.14285714285715 L 93.50373703886842,57.14285714285715 L 93.53742627120464,57.14285714285715 L 95.0207380832424,57.14285714285715 L 95.06021541241087,57.14285714285715 L 95.09370752689831,57.14285714285715 L 96.57503024064388,57.14285714285715 L 96.60764428471407,57.14285714285715 L 96.6407600833084,57.14285714285715 L 98.12658066796695,57.14285714285715 L 98.15657842058974,57.14285714285715 L 98.18933582309538,57.14285714285715 L 99.67132156960503,57.14285714285715 L 99.70223323225396,57.14285714285715 L 99.73422008316894,57.14285714285715 L 101.21801572992642,57.14285714285715 L 101.24905283120638,57.14285714285715 L 101.28353053493773,57.14285714285715 L 102.76908232252975,57.14285714285715 L 102.80427681843845,57.14285714285715 L 102.83819900823232,57.14285714285715 L 104.31636783639749,57.14285714285715 L 104.34629390980254,57.14285714285715 L 104.37394416804445,57.14285714285715 L 105.86910097081321,57.14285714285715 L 105.9008907038794,57.14285714285715 L 105.93587016213489,57.14285714285715 L 107.41292796242514,57.14285714285715 L 107.44498649255786,57.14285714285715 L 107.48150705399468,57.14285714285715 L 108.96164706064759,57.14285714285715 L 108.99171649248812,57.14285714285715 L 109.02474269206029,57.14285714285715 L 110.51063495593657,57.14285714285715 L 110.53783721906763,57.14285714285715 L 110.57362306852265,57.14285714285715 L 112.05973037005215,57.14285714285715 L 112.08879629284436,57.14285714285715 L 112.11859692761837,57.14285714285715 L 113.6094350575185,57.14285714285715 L 113.63445110450857,57.14285714285715 L 113.6668321911211,57.14285714285715 L 115.15290365304175,57.14285714285715 L 115.17673699293918,57.14285714285715 L 115.20456644922542,57.14285714285715 L 116.70432864173375,57.14285714285715 L 116.73171010290915,57.14285714285715 L 116.76797978708389,57.14285714285715 L 118.25177543384139,57.14285714285715 L 118.27974824856312,57.14285714285715 L 118.31399299483681,57.14285714285715 L 119.79447347777398,57.14285714285715 L 119.82011671791926,57.14285714285715 L 119.85396722849539,57.14285714285715 L 121.3394473368697,57.14285714285715 L 121.37218681957091,57.14285714285715 L 121.40487254285883,57.14285714285715 L 122.89384701309778,57.14285714285715 L 122.9198128097229,57.14285714285715 L 122.9510828684605,57.14285714285715 L 124.44331874310647,57.14285714285715 L 124.46932037934045,57.14285714285715 L 124.50071587670911,57.14285714285715 L 125.9882926022022,57.14285714285715 L 126.0179319587363,57.14285714285715 L 126.04916617786505,57.14285714285715 L 127.5415454109465,57.14285714285715 L 127.56975118312587,57.14285714285715 L 127.60320745800446,57.14285714285715 L 129.09083794291087,57.14285714285715 L 129.11664246129607,57.14285714285715 L 129.1528583860575,57.14285714285715 L 130.63455741569618,57.14285714285715 L 130.66009313701488,57.14285714285715 L 130.69070016298843,57.14285714285715 L 132.18252388213241,57.14285714285715 L 132.20831048071318,57.14285714285715 L 132.2394730206242,57.14285714285715 L 133.73249736666526,57.14285714285715 L 133.7539652923774,57.14285714285715 L 133.78473359659085,57.14285714285715 L 135.28064303114584,57.14285714285715 L 135.3056949177448,57.14285714285715 L 135.32646397108397,57.14285714285715 L 136.8268354369431,57.14285714285715 L 136.85070461644938,57.14285714285715 L 136.88089948692095,57.14285714285715 L 138.37121794249248,57.14285714285715 L 138.4071113107741,57.14285714285715 L 138.4396357558221,57.14285714285715 L 139.92608353363585,57.14285714285715 L 139.95274820263387,57.14285714285715 L 139.98398242176262,57.14285714285715 L 141.47467719322725,57.14285714285715 L 141.50075050867898,57.14285714285715 L 141.52592783390895,57.14285714285715 L 143.0246327579557,57.14285714285715 L 143.0469966738895,57.14285714285715 L 143.07303414973236,57.14285714285715 L 144.56860310800312,57.14285714285715 L 144.59410298971292,57.14285714285715 L 144.62281051641645,57.14285714285715 L 146.11936506393107,57.14285714285715 L 146.1415856214294,57.14285714285715 L 146.1723718454473,57.14285714285715 L 147.6565975675112,57.14285714285715 L 147.69019720082525,57.14285714285715 L 147.72114470308304,57.14285714285715 L 149.21630150585182,57.14285714285715 L 149.24504487216421,57.14285714285715 L 149.2742541533919,57.14285714285715 L 150.7654506793807,57.14285714285715 L 150.7953946725902,57.14285714285715 L 150.8290839049264,57.14285714285715 L 152.30881175607735,57.14285714285715 L 152.33395324169848,57.14285714285715 L 152.36273244761975,57.14285714285715 L 153.85745917508206,57.14285714285715 L 153.87616745091134,57.14285714285715 L 153.9090861316569,57.14285714285715 L 155.40682338626414,57.14285714285715 L 155.42942025965564,57.14285714285715 L 155.46015272426024,57.14285714285715 L 156.95676103118814,57.14285714285715 L 156.97939374418849,57.14285714285715 L 157.0062913706442,57.14285714285715 L 158.5024337626568,40 L 158.52538903213696,40 L 158.55484919062673,40 L 160.05219220953643,40 L 160.07600762962943,40 L 160.10921302724594,40 L 161.59161092925757,40 L 161.6249417655051,40 L 161.65757372937972,40 L 163.14937952871927,40 L 163.16688717765146,40 L 163.19674157183877,40 L 164.69485514233915,40 L 164.71935151500065,40 L 164.75157132337327,40 L 166.23681847428995,40 L 166.26896660344482,40 L 166.2976920499528,40 L 167.79197078230428,40 L 167.81725562636086,40 L 167.8450134034294,40 L 169.3380377494705,40 L 169.36283875880736,40 L 169.38790856521075,40 L 169.4276367716413,40 L 170.89189983156552,40 L 170.91806274603942,40 L 170.94526500917047,40 L 172.43911366621552,40 L 172.46520490147165,40 L 172.49371531032642,40 L 173.98659629793204,40 L 174.01060883587382,40 L 174.03800821685365,40 L 175.53031577071735,40 L 175.55916665585636,40 L 177.0894641951205,40 L 177.10698976385711,40 L 177.13480130033892,40 L 178.6300297823254,40 L 178.65470535303126,40 L 178.6852048601782,40 L 180.1779245695439,40 L 180.2020087867034,40 L 180.22908561120343,40 L 181.72890156312508,40 L 181.75474192111915,40 L 181.78712300773168,40 L 183.27878544863577,40 L 183.30663282472645,40 L 183.33333333333334,40" fill="none" stroke="none"/>
  </g>
  <!-- 🔓 Public Contributions Chart -->
  <g transform="translate(293.33333333333337, 250)">
    <!-- Chart Background -->
    <rect x="0" y="0" width="213.33333333333334" height="200" fill="#0f172a" stroke="#334155" stroke-width="1" rx="8" filter="url(#shadow)">
      <animate attributeName="opacity" values="0;1" dur="0.5s" begin="2.3s" fill="freeze"/>
    </rect>
    
    <!-- Chart Title -->
    <text x="106.66666666666667" y="25" text-anchor="middle" fill="#f8fafc" font-size="14" font-weight="bold" font-family="Arial, sans-serif">
      🔓 Public Contributions
      <animate attributeName="opacity" values="0;1" dur="0.5s" begin="2.5s" fill="freeze"/>
    </text>
    
    <!-- Y-axis labels -->
    <text x="10" y="45" fill="#94a3b8" font-size="10" font-family="Arial, sans-serif">2,669
      <animate attributeName="opacity" values="0;1" dur="0.5s" begin="2.6999999999999997s" fill="freeze"/>
    </text>
    <text x="10" y="185" fill="#94a3b8" font-size="10" font-family="Arial, sans-serif">1,491
      <animate attributeName="opacity" values="0;1" dur="0.5s" begin="2.6999999999999997s" fill="freeze"/>
    </text>
    
    <!-- Chart Line with draw animation that follows the circle -->
    <path d="M 30,160 L 30.030893742844494,160 L 30.06133949057814,160 L 31.548486140764815,160 L 31.575652564287005,160 L 31.607263099308867,160 L 33.12390574759418,160 L 33.15268495351545,160 L 34.64515378561907,160 L 34.66922008297415,160 L 34.70068725956054,160 L 36.19048604080347,160 L 36.21668479488622,160 L 36.249406357783,160 L 37.73832706860866,160 L 37.767285472574265,160 L 37.79685314989063,160 L 39.286634011329134,160 L 39.312868605020746,160 L 39.344407460824875,160 L 40.838739952589656,160 L 40.86803883283951,160 L 40.8988250568574,160 L 42.387638248856454,160 L 42.41319188997957,160 L 42.44523250030785,160 L 43.934565366635496,160 L 43.95744895689792,160 L 43.98533217259748,160 L 45.481384965587935,160 L 45.50989537444269,160 L 45.538513302124045,160 L 47.02766697040735,160 L 47.05512011080049,160 L 47.08655144777801,160 L 48.57437905053319,160 L 48.60025524813612,160 L 48.635055508347264,160 L 50.11822396194955,160 L 50.14931482264282,160 L 50.18031608431393,160 L 51.675096571189556,160 L 51.704789687136966,160 L 51.738066763971204,160 L 53.22573308848648,160 L 53.25069537606326,160 L 53.28413373113741,160 L 54.77054566934228,160 L 54.80452161854946,160 L 54.84032538780892,160 L 56.31908556952041,160 L 56.344818408687864,160 L 56.3765185427319,160 L 57.870116322514875,160 L 57.89230104040437,160 L 57.924664207212466,160 L 59.414086672562284,160 L 59.440482544493804,160 L 59.47177052303586,160 L 60.961784341932,160 L 60.98837733171229,160 L 61.01936067357896,160 L 62.514624995174316,160 L 62.541827258305375,160 L 62.57768478697813,160 L 64.06060236331835,160 L 64.09387944015259,160 L 64.11565200254009,160 L 65.60760116031514,160 L 65.63387159361561,160 L 65.66644979807691,160 L 67.15058592111866,160 L 67.1858520962451,160 L 67.21619032515213,160 L 68.70579198854628,160 L 68.73288673285074,160 L 68.76489150357014,160 L 70.25549667601263,160 L 70.28205382618405,160 L 70.31097639054079,160 L 71.80367818010207,160 L 71.83088044323313,160 L 71.85944461150117,160 L 73.35116081181857,160 L 73.38320142214684,160 L 73.4161738623057,160 L 74.8990376792326,160 L 74.92867703576673,160 L 74.96209747103644,160 L 76.4386355969981,160 L 76.47827420440646,160 L 76.5107628098456,160 L 77.99549028643366,160 L 78.02389317646181,160 L 78.05476899950187,160 L 79.54406602622066,160 L 79.57067693580538,160 L 79.60243082926272,160 L 81.09020467260459,160 L 81.11824916654405,160 L 81.14989554117479,160 L 82.63940760554678,160 L 82.66202239874269,160 L 82.69739609269573,160 L 84.19061755658558,160 L 84.22154713903895,160 L 84.25787058262699,160 L 85.74102111642486,160 L 85.76763202600958,160 L 85.7995292779024,160 L 87.28698056476446,133.3106960950764 L 87.31287468217181,133.3106960950764 L 87.34618759861493,133.3106960950764 L 88.83204402288234,133.3106960950764 L 88.85779478185424,133.3106960950764 L 88.89309679658953,133.3106960950764 L 90.37275296852273,133.3106960950764 L 90.40791162482256,133.3106960950764 L 90.44357203564655,133.3106960950764 L 91.93001981346029,133.3106960950764 L 91.95202533330544,133.3106960950764 L 91.98503361307317,133.3106960950764 L 93.4777712422433,133.3106960950764 L 93.50373703886842,133.3106960950764 L 93.53742627120464,133.3106960950764 L 95.0207380832424,133.3106960950764 L 95.06021541241087,133.3106960950764 L 95.09370752689831,133.3106960950764 L 96.57503024064388,133.3106960950764 L 96.60764428471407,133.3106960950764 L 96.6407600833084,133.3106960950764 L 98.12658066796695,133.3106960950764 L 98.15657842058974,133.3106960950764 L 98.18933582309538,133.3106960950764 L 99.67132156960503,133.3106960950764 L 99.70223323225396,133.3106960950764 L 99.73422008316894,133.3106960950764 L 101.21801572992642,133.3106960950764 L 101.24905283120638,133.3106960950764 L 101.28353053493773,133.3106960950764 L 102.76908232252975,133.3106960950764 L 102.80427681843845,133.3106960950764 L 102.83819900823232,133.3106960950764 L 104.31636783639749,133.3106960950764 L 104.34629390980254,133.3106960950764 L 104.37394416804445,133.3106960950764 L 105.86910097081321,133.3106960950764 L 105.9008907038794,133.3106960950764 L 105.93587016213489,133.3106960950764 L 107.41292796242514,133.3106960950764 L 107.44498649255786,133.3106960950764 L 107.48150705399468,133.3106960950764 L 108.96164706064759,133.3106960950764 L 108.99171649248812,133.3106960950764 L 109.02474269206029,133.3106960950764 L 110.51063495593657,133.3106960950764 L 110.53783721906763,133.3106960950764 L 110.57362306852265,133.3106960950764 L 112.05973037005215,133.3106960950764 L 112.08879629284436,133.3106960950764 L 112.11859692761837,133.3106960950764 L 113.6094350575185,133.3106960950764 L 113.63445110450857,133.3106960950764 L 113.6668321911211,133.3106960950764 L 115.15290365304175,133.3106960950764 L 115.17673699293918,133.3106960950764 L 115.20456644922542,133.3106960950764 L 116.70432864173375,133.3106960950764 L 116.73171010290915,133.3106960950764 L 116.76797978708389,133.3106960950764 L 118.25177543384139,133.3106960950764 L 118.27974824856312,133.3106960950764 L 118.31399299483681,133.3106960950764 L 119.79447347777398,133.3106960950764 L 119.82011671791926,133.3106960950764 L 119.85396722849539,133.3106960950764 L 121.3394473368697,133.3106960950764 L 121.37218681957091,133.3106960950764 L 121.40487254285883,133.3106960950764 L 122.89384701309778,133.3106960950764 L 122.9198128097229,133.3106960950764 L 122.9510828684605,133.3106960950764 L 124.44331874310647,133.3106960950764 L 124.46932037934045,133.3106960950764 L 124.50071587670911,133.3106960950764 L 125.9882926022022,133.3106960950764 L 126.0179319587363,133.3106960950764 L 126.04916617786505,133.3106960950764 L 127.5415454109465,133.3106960950764 L 127.56975118312587,133.3106960950764 L 127.60320745800446,133.3106960950764 L 129.09083794291087,133.3106960950764 L 129.11664246129607,133.3106960950764 L 129.1528583860575,133.3106960950764 L 130.63455741569618,133.3106960950764 L 130.66009313701488,133.3106960950764 L 130.69070016298843,133.3106960950764 L 132.18252388213241,133.3106960950764 L 132.20831048071318,133.3106960950764 L 132.2394730206242,133.3106960950764 L 133.73249736666526,133.3106960950764 L 133.7539652923774,133.3106960950764 L 133.78473359659085,133.3106960950764 L 135.28064303114584,133.3106960950764 L 135.3056949177448,133.3106960950764 L 135.32646397108397,133.3106960950764 L 136.8268354369431,133.3106960950764 L 136.85070461644938,133.3106960950764 L 136.88089948692095,133.3106960950764 L 138.37121794249248,133.3106960950764 L 138.4071113107741,133.3106960950764 L 138.4396357558221,133.3106960950764 L 139.92608353363585,133.3106960950764 L 139.95274820263387,133.3106960950764 L 139.98398242176262,133.3106960950764 L 141.47467719322725,133.3106960950764 L 141.50075050867898,133.3106960950764 L 141.52592783390895,133.3106960950764 L 143.0246327579557,133.3106960950764 L 143.0469966738895,133.3106960950764 L 143.07303414973236,133.3106960950764 L 144.56860310800312,133.3106960950764 L 144.59410298971292,133.3106960950764 L 144.62281051641645,133.3106960950764 L 146.11936506393107,133.3106960950764 L 146.1415856214294,133.3106960950764 L 146.1723718454473,133.3106960950764 L 147.6565975675112,133.3106960950764 L 147.69019720082525,133.3106960950764 L 147.72114470308304,133.3106960950764 L 149.21630150585182,133.3106960950764 L 149.24504487216421,133.3106960950764 L 149.2742541533919,133.3106960950764 L 150.7654506793807,133.3106960950764 L 150.7953946725902,133.3106960950764 L 150.8290839049264,133.3106960950764 L 152.30881175607735,133.3106960950764 L 152.33395324169848,133.3106960950764 L 152.36273244761975,133.3106960950764 L 153.85745917508206,133.3106960950764 L 153.87616745091134,133.3106960950764 L 153.9090861316569,133.3106960950764 L 155.40682338626414,133.3106960950764 L 155.42942025965564,133.3106960950764 L 155.46015272426024,133.3106960950764 L 156.95676103118814,133.3106960950764 L 156.97939374418849,133.3106960950764 L 157.0062913706442,133.3106960950764 L 158.5024337626568,40 L 158.52538903213696,40 L 158.55484919062673,40 L 160.05219220953643,40 L 160.07600762962943,40 L 160.10921302724594,40 L 161.59161092925757,40 L 161.6249417655051,40 L 161.65757372937972,40 L 163.14937952871927,40 L 163.16688717765146,40 L 163.19674157183877,40 L 164.69485514233915,40 L 164.71935151500065,40 L 164.75157132337327,40 L 166.23681847428995,40 L 166.26896660344482,40 L 166.2976920499528,40 L 167.79197078230428,40 L 167.81725562636086,40 L 167.8450134034294,40 L 169.3380377494705,40 L 169.36283875880736,40 L 169.38790856521075,40 L 169.4276367716413,40 L 170.89189983156552,40 L 170.91806274603942,40 L 170.94526500917047,40 L 172.43911366621552,40 L 172.46520490147165,40 L 172.49371531032642,40 L 173.98659629793204,40 L 174.01060883587382,40 L 174.03800821685365,40 L 175.53031577071735,40 L 175.55916665585636,40 L 177.0894641951205,40 L 177.10698976385711,40 L 177.13480130033892,40 L 178.6300297823254,40 L 178.65470535303126,40 L 178.6852048601782,40 L 180.1779245695439,40 L 180.2020087867034,40 L 180.22908561120343,40 L 181.72890156312508,40 L 181.75474192111915,40 L 181.78712300773168,40 L 183.27878544863577,40 L 183.30663282472645,40 L 183.33333333333334,40" stroke="#3b82f6" stroke-width="2" fill="none" stroke-dasharray="14950" stroke-dashoffset="14950">
      <animate attributeName="stroke-dashoffset" values="14950;0" dur="3s" begin="3.0999999999999996s" fill="freeze"/>
    </path>
    
    <!-- Glow effect for the line that also follows the circle -->
    <path d="M 30,160 L 30.030893742844494,160 L 30.06133949057814,160 L 31.548486140764815,160 L 31.575652564287005,160 L 31.607263099308867,160 L 33.12390574759418,160 L 33.15268495351545,160 L 34.64515378561907,160 L 34.66922008297415,160 L 34.70068725956054,160 L 36.19048604080347,160 L 36.21668479488622,160 L 36.249406357783,160 L 37.73832706860866,160 L 37.767285472574265,160 L 37.79685314989063,160 L 39.286634011329134,160 L 39.312868605020746,160 L 39.344407460824875,160 L 40.838739952589656,160 L 40.86803883283951,160 L 40.8988250568574,160 L 42.387638248856454,160 L 42.41319188997957,160 L 42.44523250030785,160 L 43.934565366635496,160 L 43.95744895689792,160 L 43.98533217259748,160 L 45.481384965587935,160 L 45.50989537444269,160 L 45.538513302124045,160 L 47.02766697040735,160 L 47.05512011080049,160 L 47.08655144777801,160 L 48.57437905053319,160 L 48.60025524813612,160 L 48.635055508347264,160 L 50.11822396194955,160 L 50.14931482264282,160 L 50.18031608431393,160 L 51.675096571189556,160 L 51.704789687136966,160 L 51.738066763971204,160 L 53.22573308848648,160 L 53.25069537606326,160 L 53.28413373113741,160 L 54.77054566934228,160 L 54.80452161854946,160 L 54.84032538780892,160 L 56.31908556952041,160 L 56.344818408687864,160 L 56.3765185427319,160 L 57.870116322514875,160 L 57.89230104040437,160 L 57.924664207212466,160 L 59.414086672562284,160 L 59.440482544493804,160 L 59.47177052303586,160 L 60.961784341932,160 L 60.98837733171229,160 L 61.01936067357896,160 L 62.514624995174316,160 L 62.541827258305375,160 L 62.57768478697813,160 L 64.06060236331835,160 L 64.09387944015259,160 L 64.11565200254009,160 L 65.60760116031514,160 L 65.63387159361561,160 L 65.66644979807691,160 L 67.15058592111866,160 L 67.1858520962451,160 L 67.21619032515213,160 L 68.70579198854628,160 L 68.73288673285074,160 L 68.76489150357014,160 L 70.25549667601263,160 L 70.28205382618405,160 L 70.31097639054079,160 L 71.80367818010207,160 L 71.83088044323313,160 L 71.85944461150117,160 L 73.35116081181857,160 L 73.38320142214684,160 L 73.4161738623057,160 L 74.8990376792326,160 L 74.92867703576673,160 L 74.96209747103644,160 L 76.4386355969981,160 L 76.47827420440646,160 L 76.5107628098456,160 L 77.99549028643366,160 L 78.02389317646181,160 L 78.05476899950187,160 L 79.54406602622066,160 L 79.57067693580538,160 L 79.60243082926272,160 L 81.09020467260459,160 L 81.11824916654405,160 L 81.14989554117479,160 L 82.63940760554678,160 L 82.66202239874269,160 L 82.69739609269573,160 L 84.19061755658558,160 L 84.22154713903895,160 L 84.25787058262699,160 L 85.74102111642486,160 L 85.76763202600958,160 L 85.7995292779024,160 L 87.28698056476446,133.3106960950764 L 87.31287468217181,133.3106960950764 L 87.34618759861493,133.3106960950764 L 88.83204402288234,133.3106960950764 L 88.85779478185424,133.3106960950764 L 88.89309679658953,133.3106960950764 L 90.37275296852273,133.3106960950764 L 90.40791162482256,133.3106960950764 L 90.44357203564655,133.3106960950764 L 91.93001981346029,133.3106960950764 L 91.95202533330544,133.3106960950764 L 91.98503361307317,133.3106960950764 L 93.4777712422433,133.3106960950764 L 93.50373703886842,133.3106960950764 L 93.53742627120464,133.3106960950764 L 95.0207380832424,133.3106960950764 L 95.06021541241087,133.3106960950764 L 95.09370752689831,133.3106960950764 L 96.57503024064388,133.3106960950764 L 96.60764428471407,133.3106960950764 L 96.6407600833084,133.3106960950764 L 98.12658066796695,133.3106960950764 L 98.15657842058974,133.3106960950764 L 98.18933582309538,133.3106960950764 L 99.67132156960503,133.3106960950764 L 99.70223323225396,133.3106960950764 L 99.73422008316894,133.3106960950764 L 101.21801572992642,133.3106960950764 L 101.24905283120638,133.3106960950764 L 101.28353053493773,133.3106960950764 L 102.76908232252975,133.3106960950764 L 102.80427681843845,133.3106960950764 L 102.83819900823232,133.3106960950764 L 104.31636783639749,133.3106960950764 L 104.34629390980254,133.3106960950764 L 104.37394416804445,133.3106960950764 L 105.86910097081321,133.3106960950764 L 105.9008907038794,133.3106960950764 L 105.93587016213489,133.3106960950764 L 107.41292796242514,133.3106960950764 L 107.44498649255786,133.3106960950764 L 107.48150705399468,133.3106960950764 L 108.96164706064759,133.3106960950764 L 108.99171649248812,133.3106960950764 L 109.02474269206029,133.3106960950764 L 110.51063495593657,133.3106960950764 L 110.53783721906763,133.3106960950764 L 110.57362306852265,133.3106960950764 L 112.05973037005215,133.3106960950764 L 112.08879629284436,133.3106960950764 L 112.11859692761837,133.3106960950764 L 113.6094350575185,133.3106960950764 L 113.63445110450857,133.3106960950764 L 113.6668321911211,133.3106960950764 L 115.15290365304175,133.3106960950764 L 115.17673699293918,133.3106960950764 L 115.20456644922542,133.3106960950764 L 116.70432864173375,133.3106960950764 L 116.73171010290915,133.3106960950764 L 116.76797978708389,133.3106960950764 L 118.25177543384139,133.3106960950764 L 118.27974824856312,133.3106960950764 L 118.31399299483681,133.3106960950764 L 119.79447347777398,133.3106960950764 L 119.82011671791926,133.3106960950764 L 119.85396722849539,133.3106960950764 L 121.3394473368697,133.3106960950764 L 121.37218681957091,133.3106960950764 L 121.40487254285883,133.3106960950764 L 122.89384701309778,133.3106960950764 L 122.9198128097229,133.3106960950764 L 122.9510828684605,133.3106960950764 L 124.44331874310647,133.3106960950764 L 124.46932037934045,133.3106960950764 L 124.50071587670911,133.3106960950764 L 125.9882926022022,133.3106960950764 L 126.0179319587363,133.3106960950764 L 126.04916617786505,133.3106960950764 L 127.5415454109465,133.3106960950764 L 127.56975118312587,133.3106960950764 L 127.60320745800446,133.3106960950764 L 129.09083794291087,133.3106960950764 L 129.11664246129607,133.3106960950764 L 129.1528583860575,133.3106960950764 L 130.63455741569618,133.3106960950764 L 130.66009313701488,133.3106960950764 L 130.69070016298843,133.3106960950764 L 132.18252388213241,133.3106960950764 L 132.20831048071318,133.3106960950764 L 132.2394730206242,133.3106960950764 L 133.73249736666526,133.3106960950764 L 133.7539652923774,133.3106960950764 L 133.78473359659085,133.3106960950764 L 135.28064303114584,133.3106960950764 L 135.3056949177448,133.3106960950764 L 135.32646397108397,133.3106960950764 L 136.8268354369431,133.3106960950764 L 136.85070461644938,133.3106960950764 L 136.88089948692095,133.3106960950764 L 138.37121794249248,133.3106960950764 L 138.4071113107741,133.3106960950764 L 138.4396357558221,133.3106960950764 L 139.92608353363585,133.3106960950764 L 139.95274820263387,133.3106960950764 L 139.98398242176262,133.3106960950764 L 141.47467719322725,133.3106960950764 L 141.50075050867898,133.3106960950764 L 141.52592783390895,133.3106960950764 L 143.0246327579557,133.3106960950764 L 143.0469966738895,133.3106960950764 L 143.07303414973236,133.3106960950764 L 144.56860310800312,133.3106960950764 L 144.59410298971292,133.3106960950764 L 144.62281051641645,133.3106960950764 L 146.11936506393107,133.3106960950764 L 146.1415856214294,133.3106960950764 L 146.1723718454473,133.3106960950764 L 147.6565975675112,133.3106960950764 L 147.69019720082525,133.3106960950764 L 147.72114470308304,133.3106960950764 L 149.21630150585182,133.3106960950764 L 149.24504487216421,133.3106960950764 L 149.2742541533919,133.3106960950764 L 150.7654506793807,133.3106960950764 L 150.7953946725902,133.3106960950764 L 150.8290839049264,133.3106960950764 L 152.30881175607735,133.3106960950764 L 152.33395324169848,133.3106960950764 L 152.36273244761975,133.3106960950764 L 153.85745917508206,133.3106960950764 L 153.87616745091134,133.3106960950764 L 153.9090861316569,133.3106960950764 L 155.40682338626414,133.3106960950764 L 155.42942025965564,133.3106960950764 L 155.46015272426024,133.3106960950764 L 156.95676103118814,133.3106960950764 L 156.97939374418849,133.3106960950764 L 157.0062913706442,133.3106960950764 L 158.5024337626568,40 L 158.52538903213696,40 L 158.55484919062673,40 L 160.05219220953643,40 L 160.07600762962943,40 L 160.10921302724594,40 L 161.59161092925757,40 L 161.6249417655051,40 L 161.65757372937972,40 L 163.14937952871927,40 L 163.16688717765146,40 L 163.19674157183877,40 L 164.69485514233915,40 L 164.71935151500065,40 L 164.75157132337327,40 L 166.23681847428995,40 L 166.26896660344482,40 L 166.2976920499528,40 L 167.79197078230428,40 L 167.81725562636086,40 L 167.8450134034294,40 L 169.3380377494705,40 L 169.36283875880736,40 L 169.38790856521075,40 L 169.4276367716413,40 L 170.89189983156552,40 L 170.91806274603942,40 L 170.94526500917047,40 L 172.43911366621552,40 L 172.46520490147165,40 L 172.49371531032642,40 L 173.98659629793204,40 L 174.01060883587382,40 L 174.03800821685365,40 L 175.53031577071735,40 L 175.55916665585636,40 L 177.0894641951205,40 L 177.10698976385711,40 L 177.13480130033892,40 L 178.6300297823254,40 L 178.65470535303126,40 L 178.6852048601782,40 L 180.1779245695439,40 L 180.2020087867034,40 L 180.22908561120343,40 L 181.72890156312508,40 L 181.75474192111915,40 L 181.78712300773168,40 L 183.27878544863577,40 L 183.30663282472645,40 L 183.33333333333334,40" stroke="#3b82f6" stroke-width="4" fill="none" opacity="0.4" stroke-dasharray="14950" stroke-dashoffset="14950">
      <animate attributeName="stroke-dashoffset" values="14950;0" dur="3s" begin="3.0999999999999996s" fill="freeze"/>
    </path>
    
    <!-- Animated circle that moves along the path and draws the line -->
    <circle r="5" fill="#3b82f6" opacity="0" filter="url(#trailGlow)">
      <animate attributeName="opacity" values="0;1;1;1" dur="3.2s" begin="2.9s" fill="freeze"/>
      <animate attributeName="r" values="5;6;5" dur="1s" begin="2.9s" repeatCount="3"/>
      <animateMotion dur="3s" begin="2.9s" fill="freeze">
        <mpath href="#path_publicContributions_293.33333333333337"/>
      </animateMotion>
    </circle>
    
    <!-- Small trail dots that fade out -->
    <circle r="2" fill="#3b82f6" opacity="0">
      <animate attributeName="opacity" values="0;0.6;0" dur="0.8s" begin="3.3s" fill="freeze"/>
      <animateMotion dur="3s" begin="2.9s" fill="freeze">
        <mpath href="#path_publicContributions_293.33333333333337"/>
      </animateMotion>
    </circle>
    
    <!-- Hidden path for motion animation -->
    <path id="path_publicContributions_293.33333333333337" d="M 30,160 L 30.030893742844494,160 L 30.06133949057814,160 L 31.548486140764815,160 L 31.575652564287005,160 L 31.607263099308867,160 L 33.12390574759418,160 L 33.15268495351545,160 L 34.64515378561907,160 L 34.66922008297415,160 L 34.70068725956054,160 L 36.19048604080347,160 L 36.21668479488622,160 L 36.249406357783,160 L 37.73832706860866,160 L 37.767285472574265,160 L 37.79685314989063,160 L 39.286634011329134,160 L 39.312868605020746,160 L 39.344407460824875,160 L 40.838739952589656,160 L 40.86803883283951,160 L 40.8988250568574,160 L 42.387638248856454,160 L 42.41319188997957,160 L 42.44523250030785,160 L 43.934565366635496,160 L 43.95744895689792,160 L 43.98533217259748,160 L 45.481384965587935,160 L 45.50989537444269,160 L 45.538513302124045,160 L 47.02766697040735,160 L 47.05512011080049,160 L 47.08655144777801,160 L 48.57437905053319,160 L 48.60025524813612,160 L 48.635055508347264,160 L 50.11822396194955,160 L 50.14931482264282,160 L 50.18031608431393,160 L 51.675096571189556,160 L 51.704789687136966,160 L 51.738066763971204,160 L 53.22573308848648,160 L 53.25069537606326,160 L 53.28413373113741,160 L 54.77054566934228,160 L 54.80452161854946,160 L 54.84032538780892,160 L 56.31908556952041,160 L 56.344818408687864,160 L 56.3765185427319,160 L 57.870116322514875,160 L 57.89230104040437,160 L 57.924664207212466,160 L 59.414086672562284,160 L 59.440482544493804,160 L 59.47177052303586,160 L 60.961784341932,160 L 60.98837733171229,160 L 61.01936067357896,160 L 62.514624995174316,160 L 62.541827258305375,160 L 62.57768478697813,160 L 64.06060236331835,160 L 64.09387944015259,160 L 64.11565200254009,160 L 65.60760116031514,160 L 65.63387159361561,160 L 65.66644979807691,160 L 67.15058592111866,160 L 67.1858520962451,160 L 67.21619032515213,160 L 68.70579198854628,160 L 68.73288673285074,160 L 68.76489150357014,160 L 70.25549667601263,160 L 70.28205382618405,160 L 70.31097639054079,160 L 71.80367818010207,160 L 71.83088044323313,160 L 71.85944461150117,160 L 73.35116081181857,160 L 73.38320142214684,160 L 73.4161738623057,160 L 74.8990376792326,160 L 74.92867703576673,160 L 74.96209747103644,160 L 76.4386355969981,160 L 76.47827420440646,160 L 76.5107628098456,160 L 77.99549028643366,160 L 78.02389317646181,160 L 78.05476899950187,160 L 79.54406602622066,160 L 79.57067693580538,160 L 79.60243082926272,160 L 81.09020467260459,160 L 81.11824916654405,160 L 81.14989554117479,160 L 82.63940760554678,160 L 82.66202239874269,160 L 82.69739609269573,160 L 84.19061755658558,160 L 84.22154713903895,160 L 84.25787058262699,160 L 85.74102111642486,160 L 85.76763202600958,160 L 85.7995292779024,160 L 87.28698056476446,133.3106960950764 L 87.31287468217181,133.3106960950764 L 87.34618759861493,133.3106960950764 L 88.83204402288234,133.3106960950764 L 88.85779478185424,133.3106960950764 L 88.89309679658953,133.3106960950764 L 90.37275296852273,133.3106960950764 L 90.40791162482256,133.3106960950764 L 90.44357203564655,133.3106960950764 L 91.93001981346029,133.3106960950764 L 91.95202533330544,133.3106960950764 L 91.98503361307317,133.3106960950764 L 93.4777712422433,133.3106960950764 L 93.50373703886842,133.3106960950764 L 93.53742627120464,133.3106960950764 L 95.0207380832424,133.3106960950764 L 95.06021541241087,133.3106960950764 L 95.09370752689831,133.3106960950764 L 96.57503024064388,133.3106960950764 L 96.60764428471407,133.3106960950764 L 96.6407600833084,133.3106960950764 L 98.12658066796695,133.3106960950764 L 98.15657842058974,133.3106960950764 L 98.18933582309538,133.3106960950764 L 99.67132156960503,133.3106960950764 L 99.70223323225396,133.3106960950764 L 99.73422008316894,133.3106960950764 L 101.21801572992642,133.3106960950764 L 101.24905283120638,133.3106960950764 L 101.28353053493773,133.3106960950764 L 102.76908232252975,133.3106960950764 L 102.80427681843845,133.3106960950764 L 102.83819900823232,133.3106960950764 L 104.31636783639749,133.3106960950764 L 104.34629390980254,133.3106960950764 L 104.37394416804445,133.3106960950764 L 105.86910097081321,133.3106960950764 L 105.9008907038794,133.3106960950764 L 105.93587016213489,133.3106960950764 L 107.41292796242514,133.3106960950764 L 107.44498649255786,133.3106960950764 L 107.48150705399468,133.3106960950764 L 108.96164706064759,133.3106960950764 L 108.99171649248812,133.3106960950764 L 109.02474269206029,133.3106960950764 L 110.51063495593657,133.3106960950764 L 110.53783721906763,133.3106960950764 L 110.57362306852265,133.3106960950764 L 112.05973037005215,133.3106960950764 L 112.08879629284436,133.3106960950764 L 112.11859692761837,133.3106960950764 L 113.6094350575185,133.3106960950764 L 113.63445110450857,133.3106960950764 L 113.6668321911211,133.3106960950764 L 115.15290365304175,133.3106960950764 L 115.17673699293918,133.3106960950764 L 115.20456644922542,133.3106960950764 L 116.70432864173375,133.3106960950764 L 116.73171010290915,133.3106960950764 L 116.76797978708389,133.3106960950764 L 118.25177543384139,133.3106960950764 L 118.27974824856312,133.3106960950764 L 118.31399299483681,133.3106960950764 L 119.79447347777398,133.3106960950764 L 119.82011671791926,133.3106960950764 L 119.85396722849539,133.3106960950764 L 121.3394473368697,133.3106960950764 L 121.37218681957091,133.3106960950764 L 121.40487254285883,133.3106960950764 L 122.89384701309778,133.3106960950764 L 122.9198128097229,133.3106960950764 L 122.9510828684605,133.3106960950764 L 124.44331874310647,133.3106960950764 L 124.46932037934045,133.3106960950764 L 124.50071587670911,133.3106960950764 L 125.9882926022022,133.3106960950764 L 126.0179319587363,133.3106960950764 L 126.04916617786505,133.3106960950764 L 127.5415454109465,133.3106960950764 L 127.56975118312587,133.3106960950764 L 127.60320745800446,133.3106960950764 L 129.09083794291087,133.3106960950764 L 129.11664246129607,133.3106960950764 L 129.1528583860575,133.3106960950764 L 130.63455741569618,133.3106960950764 L 130.66009313701488,133.3106960950764 L 130.69070016298843,133.3106960950764 L 132.18252388213241,133.3106960950764 L 132.20831048071318,133.3106960950764 L 132.2394730206242,133.3106960950764 L 133.73249736666526,133.3106960950764 L 133.7539652923774,133.3106960950764 L 133.78473359659085,133.3106960950764 L 135.28064303114584,133.3106960950764 L 135.3056949177448,133.3106960950764 L 135.32646397108397,133.3106960950764 L 136.8268354369431,133.3106960950764 L 136.85070461644938,133.3106960950764 L 136.88089948692095,133.3106960950764 L 138.37121794249248,133.3106960950764 L 138.4071113107741,133.3106960950764 L 138.4396357558221,133.3106960950764 L 139.92608353363585,133.3106960950764 L 139.95274820263387,133.3106960950764 L 139.98398242176262,133.3106960950764 L 141.47467719322725,133.3106960950764 L 141.50075050867898,133.3106960950764 L 141.52592783390895,133.3106960950764 L 143.0246327579557,133.3106960950764 L 143.0469966738895,133.3106960950764 L 143.07303414973236,133.3106960950764 L 144.56860310800312,133.3106960950764 L 144.59410298971292,133.3106960950764 L 144.62281051641645,133.3106960950764 L 146.11936506393107,133.3106960950764 L 146.1415856214294,133.3106960950764 L 146.1723718454473,133.3106960950764 L 147.6565975675112,133.3106960950764 L 147.69019720082525,133.3106960950764 L 147.72114470308304,133.3106960950764 L 149.21630150585182,133.3106960950764 L 149.24504487216421,133.3106960950764 L 149.2742541533919,133.3106960950764 L 150.7654506793807,133.3106960950764 L 150.7953946725902,133.3106960950764 L 150.8290839049264,133.3106960950764 L 152.30881175607735,133.3106960950764 L 152.33395324169848,133.3106960950764 L 152.36273244761975,133.3106960950764 L 153.85745917508206,133.3106960950764 L 153.87616745091134,133.3106960950764 L 153.9090861316569,133.3106960950764 L 155.40682338626414,133.3106960950764 L 155.42942025965564,133.3106960950764 L 155.46015272426024,133.3106960950764 L 156.95676103118814,133.3106960950764 L 156.97939374418849,133.3106960950764 L 157.0062913706442,133.3106960950764 L 158.5024337626568,40 L 158.52538903213696,40 L 158.55484919062673,40 L 160.05219220953643,40 L 160.07600762962943,40 L 160.10921302724594,40 L 161.59161092925757,40 L 161.6249417655051,40 L 161.65757372937972,40 L 163.14937952871927,40 L 163.16688717765146,40 L 163.19674157183877,40 L 164.69485514233915,40 L 164.71935151500065,40 L 164.75157132337327,40 L 166.23681847428995,40 L 166.26896660344482,40 L 166.2976920499528,40 L 167.79197078230428,40 L 167.81725562636086,40 L 167.8450134034294,40 L 169.3380377494705,40 L 169.36283875880736,40 L 169.38790856521075,40 L 169.4276367716413,40 L 170.89189983156552,40 L 170.91806274603942,40 L 170.94526500917047,40 L 172.43911366621552,40 L 172.46520490147165,40 L 172.49371531032642,40 L 173.98659629793204,40 L 174.01060883587382,40 L 174.03800821685365,40 L 175.53031577071735,40 L 175.55916665585636,40 L 177.0894641951205,40 L 177.10698976385711,40 L 177.13480130033892,40 L 178.6300297823254,40 L 178.65470535303126,40 L 178.6852048601782,40 L 180.1779245695439,40 L 180.2020087867034,40 L 180.22908561120343,40 L 181.72890156312508,40 L 181.75474192111915,40 L 181.78712300773168,40 L 183.27878544863577,40 L 183.30663282472645,40 L 183.33333333333334,40" fill="none" stroke="none"/>
  </g>
  <!-- 📊 Total Contributions Chart -->
  <g transform="translate(526.6666666666667, 250)">
    <!-- Chart Background -->
    <rect x="0" y="0" width="213.33333333333334" height="200" fill="#0f172a" stroke="#334155" stroke-width="1" rx="8" filter="url(#shadow)">
      <animate attributeName="opacity" values="0;1" dur="0.5s" begin="2.8s" fill="freeze"/>
    </rect>
    
    <!-- Chart Title -->
    <text x="106.66666666666667" y="25" text-anchor="middle" fill="#f8fafc" font-size="14" font-weight="bold" font-family="Arial, sans-serif">
      📊 Total Contributions
      <animate attributeName="opacity" values="0;1" dur="0.5s" begin="3s" fill="freeze"/>
    </text>
    
    <!-- Y-axis labels -->
    <text x="10" y="45" fill="#94a3b8" font-size="10" font-family="Arial, sans-serif">3,802
      <animate attributeName="opacity" values="0;1" dur="0.5s" begin="3.1999999999999997s" fill="freeze"/>
    </text>
    <text x="10" y="185" fill="#94a3b8" font-size="10" font-family="Arial, sans-serif">2,320
      <animate attributeName="opacity" values="0;1" dur="0.5s" begin="3.1999999999999997s" fill="freeze"/>
    </text>
    
    <!-- Chart Line with draw animation that follows the circle -->
    <path d="M 30,160 L 30.030893742844494,160 L 30.06133949057814,160 L 31.548486140764815,160 L 31.575652564287005,160 L 31.607263099308867,160 L 33.12390574759418,160 L 33.15268495351545,160 L 34.64515378561907,160 L 34.66922008297415,160 L 34.70068725956054,160 L 36.19048604080347,160 L 36.21668479488622,160 L 36.249406357783,160 L 37.73832706860866,160 L 37.767285472574265,160 L 37.79685314989063,160 L 39.286634011329134,160 L 39.312868605020746,160 L 39.344407460824875,160 L 40.838739952589656,160 L 40.86803883283951,160 L 40.8988250568574,160 L 42.387638248856454,160 L 42.41319188997957,160 L 42.44523250030785,160 L 43.934565366635496,160 L 43.95744895689792,160 L 43.98533217259748,160 L 45.481384965587935,160 L 45.50989537444269,160 L 45.538513302124045,160 L 47.02766697040735,160 L 47.05512011080049,160 L 47.08655144777801,160 L 48.57437905053319,160 L 48.60025524813612,160 L 48.635055508347264,160 L 50.11822396194955,160 L 50.14931482264282,160 L 50.18031608431393,160 L 51.675096571189556,160 L 51.704789687136966,160 L 51.738066763971204,160 L 53.22573308848648,160 L 53.25069537606326,160 L 53.28413373113741,160 L 54.77054566934228,160 L 54.80452161854946,160 L 54.84032538780892,160 L 56.31908556952041,160 L 56.344818408687864,160 L 56.3765185427319,160 L 57.870116322514875,160 L 57.89230104040437,160 L 57.924664207212466,160 L 59.414086672562284,160 L 59.440482544493804,160 L 59.47177052303586,160 L 60.961784341932,160 L 60.98837733171229,160 L 61.01936067357896,160 L 62.514624995174316,160 L 62.541827258305375,160 L 62.57768478697813,160 L 64.06060236331835,160 L 64.09387944015259,160 L 64.11565200254009,160 L 65.60760116031514,160 L 65.63387159361561,160 L 65.66644979807691,160 L 67.15058592111866,160 L 67.1858520962451,160 L 67.21619032515213,160 L 68.70579198854628,160 L 68.73288673285074,160 L 68.76489150357014,160 L 70.25549667601263,160 L 70.28205382618405,160 L 70.31097639054079,160 L 71.80367818010207,160 L 71.83088044323313,160 L 71.85944461150117,160 L 73.35116081181857,160 L 73.38320142214684,160 L 73.4161738623057,160 L 74.8990376792326,160 L 74.92867703576673,160 L 74.96209747103644,160 L 76.4386355969981,160 L 76.47827420440646,160 L 76.5107628098456,160 L 77.99549028643366,160 L 78.02389317646181,160 L 78.05476899950187,160 L 79.54406602622066,160 L 79.57067693580538,160 L 79.60243082926272,160 L 81.09020467260459,160 L 81.11824916654405,160 L 81.14989554117479,160 L 82.63940760554678,160 L 82.66202239874269,160 L 82.69739609269573,160 L 84.19061755658558,160 L 84.22154713903895,160 L 84.25787058262699,160 L 85.74102111642486,160 L 85.76763202600958,160 L 85.7995292779024,160 L 87.28698056476446,137.48987854251013 L 87.31287468217181,137.48987854251013 L 87.34618759861493,137.48987854251013 L 88.83204402288234,137.48987854251013 L 88.85779478185424,137.48987854251013 L 88.89309679658953,137.48987854251013 L 90.37275296852273,137.48987854251013 L 90.40791162482256,137.48987854251013 L 90.44357203564655,137.48987854251013 L 91.93001981346029,137.48987854251013 L 91.95202533330544,137.48987854251013 L 91.98503361307317,137.48987854251013 L 93.4777712422433,137.48987854251013 L 93.50373703886842,137.48987854251013 L 93.53742627120464,137.48987854251013 L 95.0207380832424,137.48987854251013 L 95.06021541241087,137.48987854251013 L 95.09370752689831,137.48987854251013 L 96.57503024064388,137.48987854251013 L 96.60764428471407,137.48987854251013 L 96.6407600833084,137.48987854251013 L 98.12658066796695,137.48987854251013 L 98.15657842058974,137.48987854251013 L 98.18933582309538,137.48987854251013 L 99.67132156960503,137.48987854251013 L 99.70223323225396,137.48987854251013 L 99.73422008316894,137.48987854251013 L 101.21801572992642,137.48987854251013 L 101.24905283120638,137.48987854251013 L 101.28353053493773,137.48987854251013 L 102.76908232252975,137.48987854251013 L 102.80427681843845,137.48987854251013 L 102.83819900823232,137.48987854251013 L 104.31636783639749,137.48987854251013 L 104.34629390980254,137.48987854251013 L 104.37394416804445,137.48987854251013 L 105.86910097081321,137.48987854251013 L 105.9008907038794,137.48987854251013 L 105.93587016213489,137.48987854251013 L 107.41292796242514,137.48987854251013 L 107.44498649255786,137.48987854251013 L 107.48150705399468,137.48987854251013 L 108.96164706064759,137.48987854251013 L 108.99171649248812,137.48987854251013 L 109.02474269206029,137.48987854251013 L 110.51063495593657,137.48987854251013 L 110.53783721906763,137.48987854251013 L 110.57362306852265,137.48987854251013 L 112.05973037005215,137.48987854251013 L 112.08879629284436,137.48987854251013 L 112.11859692761837,137.48987854251013 L 113.6094350575185,137.48987854251013 L 113.63445110450857,137.48987854251013 L 113.6668321911211,137.48987854251013 L 115.15290365304175,137.48987854251013 L 115.17673699293918,137.48987854251013 L 115.20456644922542,137.48987854251013 L 116.70432864173375,137.48987854251013 L 116.73171010290915,137.48987854251013 L 116.76797978708389,137.48987854251013 L 118.25177543384139,137.48987854251013 L 118.27974824856312,137.48987854251013 L 118.31399299483681,137.48987854251013 L 119.79447347777398,137.48987854251013 L 119.82011671791926,137.48987854251013 L 119.85396722849539,137.48987854251013 L 121.3394473368697,137.48987854251013 L 121.37218681957091,137.48987854251013 L 121.40487254285883,137.48987854251013 L 122.89384701309778,137.48987854251013 L 122.9198128097229,137.48987854251013 L 122.9510828684605,137.48987854251013 L 124.44331874310647,137.48987854251013 L 124.46932037934045,137.48987854251013 L 124.50071587670911,137.48987854251013 L 125.9882926022022,137.48987854251013 L 126.0179319587363,137.48987854251013 L 126.04916617786505,137.48987854251013 L 127.5415454109465,137.48987854251013 L 127.56975118312587,137.48987854251013 L 127.60320745800446,137.48987854251013 L 129.09083794291087,137.48987854251013 L 129.11664246129607,137.48987854251013 L 129.1528583860575,137.48987854251013 L 130.63455741569618,137.48987854251013 L 130.66009313701488,137.48987854251013 L 130.69070016298843,137.48987854251013 L 132.18252388213241,137.48987854251013 L 132.20831048071318,137.48987854251013 L 132.2394730206242,137.48987854251013 L 133.73249736666526,137.48987854251013 L 133.7539652923774,137.48987854251013 L 133.78473359659085,137.48987854251013 L 135.28064303114584,137.48987854251013 L 135.3056949177448,137.48987854251013 L 135.32646397108397,137.48987854251013 L 136.8268354369431,137.48987854251013 L 136.85070461644938,137.48987854251013 L 136.88089948692095,137.48987854251013 L 138.37121794249248,137.48987854251013 L 138.4071113107741,137.48987854251013 L 138.4396357558221,137.48987854251013 L 139.92608353363585,137.48987854251013 L 139.95274820263387,137.48987854251013 L 139.98398242176262,137.48987854251013 L 141.47467719322725,137.48987854251013 L 141.50075050867898,137.48987854251013 L 141.52592783390895,137.48987854251013 L 143.0246327579557,137.48987854251013 L 143.0469966738895,137.48987854251013 L 143.07303414973236,137.48987854251013 L 144.56860310800312,137.48987854251013 L 144.59410298971292,137.48987854251013 L 144.62281051641645,137.48987854251013 L 146.11936506393107,137.48987854251013 L 146.1415856214294,137.48987854251013 L 146.1723718454473,137.48987854251013 L 147.6565975675112,137.48987854251013 L 147.69019720082525,137.48987854251013 L 147.72114470308304,137.48987854251013 L 149.21630150585182,137.48987854251013 L 149.24504487216421,137.48987854251013 L 149.2742541533919,137.48987854251013 L 150.7654506793807,137.48987854251013 L 150.7953946725902,137.48987854251013 L 150.8290839049264,137.48987854251013 L 152.30881175607735,137.48987854251013 L 152.33395324169848,137.48987854251013 L 152.36273244761975,137.48987854251013 L 153.85745917508206,137.48987854251013 L 153.87616745091134,137.48987854251013 L 153.9090861316569,137.48987854251013 L 155.40682338626414,137.48987854251013 L 155.42942025965564,137.48987854251013 L 155.46015272426024,137.48987854251013 L 156.95676103118814,137.48987854251013 L 156.97939374418849,137.48987854251013 L 157.0062913706442,137.48987854251013 L 158.5024337626568,40 L 158.52538903213696,40 L 158.55484919062673,40 L 160.05219220953643,40 L 160.07600762962943,40 L 160.10921302724594,40 L 161.59161092925757,40 L 161.6249417655051,40 L 161.65757372937972,40 L 163.14937952871927,40 L 163.16688717765146,40 L 163.19674157183877,40 L 164.69485514233915,40 L 164.71935151500065,40 L 164.75157132337327,40 L 166.23681847428995,40 L 166.26896660344482,40 L 166.2976920499528,40 L 167.79197078230428,40 L 167.81725562636086,40 L 167.8450134034294,40 L 169.3380377494705,40 L 169.36283875880736,40 L 169.38790856521075,40 L 169.4276367716413,40 L 170.89189983156552,40 L 170.91806274603942,40 L 170.94526500917047,40 L 172.43911366621552,40 L 172.46520490147165,40 L 172.49371531032642,40 L 173.98659629793204,40 L 174.01060883587382,40 L 174.03800821685365,40 L 175.53031577071735,40 L 175.55916665585636,40 L 177.0894641951205,40 L 177.10698976385711,40 L 177.13480130033892,40 L 178.6300297823254,40 L 178.65470535303126,40 L 178.6852048601782,40 L 180.1779245695439,40 L 180.2020087867034,40 L 180.22908561120343,40 L 181.72890156312508,40 L 181.75474192111915,40 L 181.78712300773168,40 L 183.27878544863577,40 L 183.30663282472645,40 L 183.33333333333334,40" stroke="#f59e0b" stroke-width="2" fill="none" stroke-dasharray="14950" stroke-dashoffset="14950">
      <animate attributeName="stroke-dashoffset" values="14950;0" dur="3s" begin="3.5999999999999996s" fill="freeze"/>
    </path>
    
    <!-- Glow effect for the line that also follows the circle -->
    <path d="M 30,160 L 30.030893742844494,160 L 30.06133949057814,160 L 31.548486140764815,160 L 31.575652564287005,160 L 31.607263099308867,160 L 33.12390574759418,160 L 33.15268495351545,160 L 34.64515378561907,160 L 34.66922008297415,160 L 34.70068725956054,160 L 36.19048604080347,160 L 36.21668479488622,160 L 36.249406357783,160 L 37.73832706860866,160 L 37.767285472574265,160 L 37.79685314989063,160 L 39.286634011329134,160 L 39.312868605020746,160 L 39.344407460824875,160 L 40.838739952589656,160 L 40.86803883283951,160 L 40.8988250568574,160 L 42.387638248856454,160 L 42.41319188997957,160 L 42.44523250030785,160 L 43.934565366635496,160 L 43.95744895689792,160 L 43.98533217259748,160 L 45.481384965587935,160 L 45.50989537444269,160 L 45.538513302124045,160 L 47.02766697040735,160 L 47.05512011080049,160 L 47.08655144777801,160 L 48.57437905053319,160 L 48.60025524813612,160 L 48.635055508347264,160 L 50.11822396194955,160 L 50.14931482264282,160 L 50.18031608431393,160 L 51.675096571189556,160 L 51.704789687136966,160 L 51.738066763971204,160 L 53.22573308848648,160 L 53.25069537606326,160 L 53.28413373113741,160 L 54.77054566934228,160 L 54.80452161854946,160 L 54.84032538780892,160 L 56.31908556952041,160 L 56.344818408687864,160 L 56.3765185427319,160 L 57.870116322514875,160 L 57.89230104040437,160 L 57.924664207212466,160 L 59.414086672562284,160 L 59.440482544493804,160 L 59.47177052303586,160 L 60.961784341932,160 L 60.98837733171229,160 L 61.01936067357896,160 L 62.514624995174316,160 L 62.541827258305375,160 L 62.57768478697813,160 L 64.06060236331835,160 L 64.09387944015259,160 L 64.11565200254009,160 L 65.60760116031514,160 L 65.63387159361561,160 L 65.66644979807691,160 L 67.15058592111866,160 L 67.1858520962451,160 L 67.21619032515213,160 L 68.70579198854628,160 L 68.73288673285074,160 L 68.76489150357014,160 L 70.25549667601263,160 L 70.28205382618405,160 L 70.31097639054079,160 L 71.80367818010207,160 L 71.83088044323313,160 L 71.85944461150117,160 L 73.35116081181857,160 L 73.38320142214684,160 L 73.4161738623057,160 L 74.8990376792326,160 L 74.92867703576673,160 L 74.96209747103644,160 L 76.4386355969981,160 L 76.47827420440646,160 L 76.5107628098456,160 L 77.99549028643366,160 L 78.02389317646181,160 L 78.05476899950187,160 L 79.54406602622066,160 L 79.57067693580538,160 L 79.60243082926272,160 L 81.09020467260459,160 L 81.11824916654405,160 L 81.14989554117479,160 L 82.63940760554678,160 L 82.66202239874269,160 L 82.69739609269573,160 L 84.19061755658558,160 L 84.22154713903895,160 L 84.25787058262699,160 L 85.74102111642486,160 L 85.76763202600958,160 L 85.7995292779024,160 L 87.28698056476446,137.48987854251013 L 87.31287468217181,137.48987854251013 L 87.34618759861493,137.48987854251013 L 88.83204402288234,137.48987854251013 L 88.85779478185424,137.48987854251013 L 88.89309679658953,137.48987854251013 L 90.37275296852273,137.48987854251013 L 90.40791162482256,137.48987854251013 L 90.44357203564655,137.48987854251013 L 91.93001981346029,137.48987854251013 L 91.95202533330544,137.48987854251013 L 91.98503361307317,137.48987854251013 L 93.4777712422433,137.48987854251013 L 93.50373703886842,137.48987854251013 L 93.53742627120464,137.48987854251013 L 95.0207380832424,137.48987854251013 L 95.06021541241087,137.48987854251013 L 95.09370752689831,137.48987854251013 L 96.57503024064388,137.48987854251013 L 96.60764428471407,137.48987854251013 L 96.6407600833084,137.48987854251013 L 98.12658066796695,137.48987854251013 L 98.15657842058974,137.48987854251013 L 98.18933582309538,137.48987854251013 L 99.67132156960503,137.48987854251013 L 99.70223323225396,137.48987854251013 L 99.73422008316894,137.48987854251013 L 101.21801572992642,137.48987854251013 L 101.24905283120638,137.48987854251013 L 101.28353053493773,137.48987854251013 L 102.76908232252975,137.48987854251013 L 102.80427681843845,137.48987854251013 L 102.83819900823232,137.48987854251013 L 104.31636783639749,137.48987854251013 L 104.34629390980254,137.48987854251013 L 104.37394416804445,137.48987854251013 L 105.86910097081321,137.48987854251013 L 105.9008907038794,137.48987854251013 L 105.93587016213489,137.48987854251013 L 107.41292796242514,137.48987854251013 L 107.44498649255786,137.48987854251013 L 107.48150705399468,137.48987854251013 L 108.96164706064759,137.48987854251013 L 108.99171649248812,137.48987854251013 L 109.02474269206029,137.48987854251013 L 110.51063495593657,137.48987854251013 L 110.53783721906763,137.48987854251013 L 110.57362306852265,137.48987854251013 L 112.05973037005215,137.48987854251013 L 112.08879629284436,137.48987854251013 L 112.11859692761837,137.48987854251013 L 113.6094350575185,137.48987854251013 L 113.63445110450857,137.48987854251013 L 113.6668321911211,137.48987854251013 L 115.15290365304175,137.48987854251013 L 115.17673699293918,137.48987854251013 L 115.20456644922542,137.48987854251013 L 116.70432864173375,137.48987854251013 L 116.73171010290915,137.48987854251013 L 116.76797978708389,137.48987854251013 L 118.25177543384139,137.48987854251013 L 118.27974824856312,137.48987854251013 L 118.31399299483681,137.48987854251013 L 119.79447347777398,137.48987854251013 L 119.82011671791926,137.48987854251013 L 119.85396722849539,137.48987854251013 L 121.3394473368697,137.48987854251013 L 121.37218681957091,137.48987854251013 L 121.40487254285883,137.48987854251013 L 122.89384701309778,137.48987854251013 L 122.9198128097229,137.48987854251013 L 122.9510828684605,137.48987854251013 L 124.44331874310647,137.48987854251013 L 124.46932037934045,137.48987854251013 L 124.50071587670911,137.48987854251013 L 125.9882926022022,137.48987854251013 L 126.0179319587363,137.48987854251013 L 126.04916617786505,137.48987854251013 L 127.5415454109465,137.48987854251013 L 127.56975118312587,137.48987854251013 L 127.60320745800446,137.48987854251013 L 129.09083794291087,137.48987854251013 L 129.11664246129607,137.48987854251013 L 129.1528583860575,137.48987854251013 L 130.63455741569618,137.48987854251013 L 130.66009313701488,137.48987854251013 L 130.69070016298843,137.48987854251013 L 132.18252388213241,137.48987854251013 L 132.20831048071318,137.48987854251013 L 132.2394730206242,137.48987854251013 L 133.73249736666526,137.48987854251013 L 133.7539652923774,137.48987854251013 L 133.78473359659085,137.48987854251013 L 135.28064303114584,137.48987854251013 L 135.3056949177448,137.48987854251013 L 135.32646397108397,137.48987854251013 L 136.8268354369431,137.48987854251013 L 136.85070461644938,137.48987854251013 L 136.88089948692095,137.48987854251013 L 138.37121794249248,137.48987854251013 L 138.4071113107741,137.48987854251013 L 138.4396357558221,137.48987854251013 L 139.92608353363585,137.48987854251013 L 139.95274820263387,137.48987854251013 L 139.98398242176262,137.48987854251013 L 141.47467719322725,137.48987854251013 L 141.50075050867898,137.48987854251013 L 141.52592783390895,137.48987854251013 L 143.0246327579557,137.48987854251013 L 143.0469966738895,137.48987854251013 L 143.07303414973236,137.48987854251013 L 144.56860310800312,137.48987854251013 L 144.59410298971292,137.48987854251013 L 144.62281051641645,137.48987854251013 L 146.11936506393107,137.48987854251013 L 146.1415856214294,137.48987854251013 L 146.1723718454473,137.48987854251013 L 147.6565975675112,137.48987854251013 L 147.69019720082525,137.48987854251013 L 147.72114470308304,137.48987854251013 L 149.21630150585182,137.48987854251013 L 149.24504487216421,137.48987854251013 L 149.2742541533919,137.48987854251013 L 150.7654506793807,137.48987854251013 L 150.7953946725902,137.48987854251013 L 150.8290839049264,137.48987854251013 L 152.30881175607735,137.48987854251013 L 152.33395324169848,137.48987854251013 L 152.36273244761975,137.48987854251013 L 153.85745917508206,137.48987854251013 L 153.87616745091134,137.48987854251013 L 153.9090861316569,137.48987854251013 L 155.40682338626414,137.48987854251013 L 155.42942025965564,137.48987854251013 L 155.46015272426024,137.48987854251013 L 156.95676103118814,137.48987854251013 L 156.97939374418849,137.48987854251013 L 157.0062913706442,137.48987854251013 L 158.5024337626568,40 L 158.52538903213696,40 L 158.55484919062673,40 L 160.05219220953643,40 L 160.07600762962943,40 L 160.10921302724594,40 L 161.59161092925757,40 L 161.6249417655051,40 L 161.65757372937972,40 L 163.14937952871927,40 L 163.16688717765146,40 L 163.19674157183877,40 L 164.69485514233915,40 L 164.71935151500065,40 L 164.75157132337327,40 L 166.23681847428995,40 L 166.26896660344482,40 L 166.2976920499528,40 L 167.79197078230428,40 L 167.81725562636086,40 L 167.8450134034294,40 L 169.3380377494705,40 L 169.36283875880736,40 L 169.38790856521075,40 L 169.4276367716413,40 L 170.89189983156552,40 L 170.91806274603942,40 L 170.94526500917047,40 L 172.43911366621552,40 L 172.46520490147165,40 L 172.49371531032642,40 L 173.98659629793204,40 L 174.01060883587382,40 L 174.03800821685365,40 L 175.53031577071735,40 L 175.55916665585636,40 L 177.0894641951205,40 L 177.10698976385711,40 L 177.13480130033892,40 L 178.6300297823254,40 L 178.65470535303126,40 L 178.6852048601782,40 L 180.1779245695439,40 L 180.2020087867034,40 L 180.22908561120343,40 L 181.72890156312508,40 L 181.75474192111915,40 L 181.78712300773168,40 L 183.27878544863577,40 L 183.30663282472645,40 L 183.33333333333334,40" stroke="#f59e0b" stroke-width="4" fill="none" opacity="0.4" stroke-dasharray="14950" stroke-dashoffset="14950">
      <animate attributeName="stroke-dashoffset" values="14950;0" dur="3s" begin="3.5999999999999996s" fill="freeze"/>
    </path>
    
    <!-- Animated circle that moves along the path and draws the line -->
    <circle r="5" fill="#f59e0b" opacity="0" filter="url(#trailGlow)">
      <animate attributeName="opacity" values="0;1;1;1" dur="3.2s" begin="3.4s" fill="freeze"/>
      <animate attributeName="r" values="5;6;5" dur="1s" begin="3.4s" repeatCount="3"/>
      <animateMotion dur="3s" begin="3.4s" fill="freeze">
        <mpath href="#path_totalContributions_526.6666666666667"/>
      </animateMotion>
    </circle>
    
    <!-- Small trail dots that fade out -->
    <circle r="2" fill="#f59e0b" opacity="0">
      <animate attributeName="opacity" values="0;0.6;0" dur="0.8s" begin="3.8s" fill="freeze"/>
      <animateMotion dur="3s" begin="3.4s" fill="freeze">
        <mpath href="#path_totalContributions_526.6666666666667"/>
      </animateMotion>
    </circle>
    
    <!-- Hidden path for motion animation -->
    <path id="path_totalContributions_526.6666666666667" d="M 30,160 L 30.030893742844494,160 L 30.06133949057814,160 L 31.548486140764815,160 L 31.575652564287005,160 L 31.607263099308867,160 L 33.12390574759418,160 L 33.15268495351545,160 L 34.64515378561907,160 L 34.66922008297415,160 L 34.70068725956054,160 L 36.19048604080347,160 L 36.21668479488622,160 L 36.249406357783,160 L 37.73832706860866,160 L 37.767285472574265,160 L 37.79685314989063,160 L 39.286634011329134,160 L 39.312868605020746,160 L 39.344407460824875,160 L 40.838739952589656,160 L 40.86803883283951,160 L 40.8988250568574,160 L 42.387638248856454,160 L 42.41319188997957,160 L 42.44523250030785,160 L 43.934565366635496,160 L 43.95744895689792,160 L 43.98533217259748,160 L 45.481384965587935,160 L 45.50989537444269,160 L 45.538513302124045,160 L 47.02766697040735,160 L 47.05512011080049,160 L 47.08655144777801,160 L 48.57437905053319,160 L 48.60025524813612,160 L 48.635055508347264,160 L 50.11822396194955,160 L 50.14931482264282,160 L 50.18031608431393,160 L 51.675096571189556,160 L 51.704789687136966,160 L 51.738066763971204,160 L 53.22573308848648,160 L 53.25069537606326,160 L 53.28413373113741,160 L 54.77054566934228,160 L 54.80452161854946,160 L 54.84032538780892,160 L 56.31908556952041,160 L 56.344818408687864,160 L 56.3765185427319,160 L 57.870116322514875,160 L 57.89230104040437,160 L 57.924664207212466,160 L 59.414086672562284,160 L 59.440482544493804,160 L 59.47177052303586,160 L 60.961784341932,160 L 60.98837733171229,160 L 61.01936067357896,160 L 62.514624995174316,160 L 62.541827258305375,160 L 62.57768478697813,160 L 64.06060236331835,160 L 64.09387944015259,160 L 64.11565200254009,160 L 65.60760116031514,160 L 65.63387159361561,160 L 65.66644979807691,160 L 67.15058592111866,160 L 67.1858520962451,160 L 67.21619032515213,160 L 68.70579198854628,160 L 68.73288673285074,160 L 68.76489150357014,160 L 70.25549667601263,160 L 70.28205382618405,160 L 70.31097639054079,160 L 71.80367818010207,160 L 71.83088044323313,160 L 71.85944461150117,160 L 73.35116081181857,160 L 73.38320142214684,160 L 73.4161738623057,160 L 74.8990376792326,160 L 74.92867703576673,160 L 74.96209747103644,160 L 76.4386355969981,160 L 76.47827420440646,160 L 76.5107628098456,160 L 77.99549028643366,160 L 78.02389317646181,160 L 78.05476899950187,160 L 79.54406602622066,160 L 79.57067693580538,160 L 79.60243082926272,160 L 81.09020467260459,160 L 81.11824916654405,160 L 81.14989554117479,160 L 82.63940760554678,160 L 82.66202239874269,160 L 82.69739609269573,160 L 84.19061755658558,160 L 84.22154713903895,160 L 84.25787058262699,160 L 85.74102111642486,160 L 85.76763202600958,160 L 85.7995292779024,160 L 87.28698056476446,137.48987854251013 L 87.31287468217181,137.48987854251013 L 87.34618759861493,137.48987854251013 L 88.83204402288234,137.48987854251013 L 88.85779478185424,137.48987854251013 L 88.89309679658953,137.48987854251013 L 90.37275296852273,137.48987854251013 L 90.40791162482256,137.48987854251013 L 90.44357203564655,137.48987854251013 L 91.93001981346029,137.48987854251013 L 91.95202533330544,137.48987854251013 L 91.98503361307317,137.48987854251013 L 93.4777712422433,137.48987854251013 L 93.50373703886842,137.48987854251013 L 93.53742627120464,137.48987854251013 L 95.0207380832424,137.48987854251013 L 95.06021541241087,137.48987854251013 L 95.09370752689831,137.48987854251013 L 96.57503024064388,137.48987854251013 L 96.60764428471407,137.48987854251013 L 96.6407600833084,137.48987854251013 L 98.12658066796695,137.48987854251013 L 98.15657842058974,137.48987854251013 L 98.18933582309538,137.48987854251013 L 99.67132156960503,137.48987854251013 L 99.70223323225396,137.48987854251013 L 99.73422008316894,137.48987854251013 L 101.21801572992642,137.48987854251013 L 101.24905283120638,137.48987854251013 L 101.28353053493773,137.48987854251013 L 102.76908232252975,137.48987854251013 L 102.80427681843845,137.48987854251013 L 102.83819900823232,137.48987854251013 L 104.31636783639749,137.48987854251013 L 104.34629390980254,137.48987854251013 L 104.37394416804445,137.48987854251013 L 105.86910097081321,137.48987854251013 L 105.9008907038794,137.48987854251013 L 105.93587016213489,137.48987854251013 L 107.41292796242514,137.48987854251013 L 107.44498649255786,137.48987854251013 L 107.48150705399468,137.48987854251013 L 108.96164706064759,137.48987854251013 L 108.99171649248812,137.48987854251013 L 109.02474269206029,137.48987854251013 L 110.51063495593657,137.48987854251013 L 110.53783721906763,137.48987854251013 L 110.57362306852265,137.48987854251013 L 112.05973037005215,137.48987854251013 L 112.08879629284436,137.48987854251013 L 112.11859692761837,137.48987854251013 L 113.6094350575185,137.48987854251013 L 113.63445110450857,137.48987854251013 L 113.6668321911211,137.48987854251013 L 115.15290365304175,137.48987854251013 L 115.17673699293918,137.48987854251013 L 115.20456644922542,137.48987854251013 L 116.70432864173375,137.48987854251013 L 116.73171010290915,137.48987854251013 L 116.76797978708389,137.48987854251013 L 118.25177543384139,137.48987854251013 L 118.27974824856312,137.48987854251013 L 118.31399299483681,137.48987854251013 L 119.79447347777398,137.48987854251013 L 119.82011671791926,137.48987854251013 L 119.85396722849539,137.48987854251013 L 121.3394473368697,137.48987854251013 L 121.37218681957091,137.48987854251013 L 121.40487254285883,137.48987854251013 L 122.89384701309778,137.48987854251013 L 122.9198128097229,137.48987854251013 L 122.9510828684605,137.48987854251013 L 124.44331874310647,137.48987854251013 L 124.46932037934045,137.48987854251013 L 124.50071587670911,137.48987854251013 L 125.9882926022022,137.48987854251013 L 126.0179319587363,137.48987854251013 L 126.04916617786505,137.48987854251013 L 127.5415454109465,137.48987854251013 L 127.56975118312587,137.48987854251013 L 127.60320745800446,137.48987854251013 L 129.09083794291087,137.48987854251013 L 129.11664246129607,137.48987854251013 L 129.1528583860575,137.48987854251013 L 130.63455741569618,137.48987854251013 L 130.66009313701488,137.48987854251013 L 130.69070016298843,137.48987854251013 L 132.18252388213241,137.48987854251013 L 132.20831048071318,137.48987854251013 L 132.2394730206242,137.48987854251013 L 133.73249736666526,137.48987854251013 L 133.7539652923774,137.48987854251013 L 133.78473359659085,137.48987854251013 L 135.28064303114584,137.48987854251013 L 135.3056949177448,137.48987854251013 L 135.32646397108397,137.48987854251013 L 136.8268354369431,137.48987854251013 L 136.85070461644938,137.48987854251013 L 136.88089948692095,137.48987854251013 L 138.37121794249248,137.48987854251013 L 138.4071113107741,137.48987854251013 L 138.4396357558221,137.48987854251013 L 139.92608353363585,137.48987854251013 L 139.95274820263387,137.48987854251013 L 139.98398242176262,137.48987854251013 L 141.47467719322725,137.48987854251013 L 141.50075050867898,137.48987854251013 L 141.52592783390895,137.48987854251013 L 143.0246327579557,137.48987854251013 L 143.0469966738895,137.48987854251013 L 143.07303414973236,137.48987854251013 L 144.56860310800312,137.48987854251013 L 144.59410298971292,137.48987854251013 L 144.62281051641645,137.48987854251013 L 146.11936506393107,137.48987854251013 L 146.1415856214294,137.48987854251013 L 146.1723718454473,137.48987854251013 L 147.6565975675112,137.48987854251013 L 147.69019720082525,137.48987854251013 L 147.72114470308304,137.48987854251013 L 149.21630150585182,137.48987854251013 L 149.24504487216421,137.48987854251013 L 149.2742541533919,137.48987854251013 L 150.7654506793807,137.48987854251013 L 150.7953946725902,137.48987854251013 L 150.8290839049264,137.48987854251013 L 152.30881175607735,137.48987854251013 L 152.33395324169848,137.48987854251013 L 152.36273244761975,137.48987854251013 L 153.85745917508206,137.48987854251013 L 153.87616745091134,137.48987854251013 L 153.9090861316569,137.48987854251013 L 155.40682338626414,137.48987854251013 L 155.42942025965564,137.48987854251013 L 155.46015272426024,137.48987854251013 L 156.95676103118814,137.48987854251013 L 156.97939374418849,137.48987854251013 L 157.0062913706442,137.48987854251013 L 158.5024337626568,40 L 158.52538903213696,40 L 158.55484919062673,40 L 160.05219220953643,40 L 160.07600762962943,40 L 160.10921302724594,40 L 161.59161092925757,40 L 161.6249417655051,40 L 161.65757372937972,40 L 163.14937952871927,40 L 163.16688717765146,40 L 163.19674157183877,40 L 164.69485514233915,40 L 164.71935151500065,40 L 164.75157132337327,40 L 166.23681847428995,40 L 166.26896660344482,40 L 166.2976920499528,40 L 167.79197078230428,40 L 167.81725562636086,40 L 167.8450134034294,40 L 169.3380377494705,40 L 169.36283875880736,40 L 169.38790856521075,40 L 169.4276367716413,40 L 170.89189983156552,40 L 170.91806274603942,40 L 170.94526500917047,40 L 172.43911366621552,40 L 172.46520490147165,40 L 172.49371531032642,40 L 173.98659629793204,40 L 174.01060883587382,40 L 174.03800821685365,40 L 175.53031577071735,40 L 175.55916665585636,40 L 177.0894641951205,40 L 177.10698976385711,40 L 177.13480130033892,40 L 178.6300297823254,40 L 178.65470535303126,40 L 178.6852048601782,40 L 180.1779245695439,40 L 180.2020087867034,40 L 180.22908561120343,40 L 181.72890156312508,40 L 181.75474192111915,40 L 181.78712300773168,40 L 183.27878544863577,40 L 183.30663282472645,40 L 183.33333333333334,40" fill="none" stroke="none"/>
  </g>
  
  <!-- Footer -->
  <text x="400" y="580" text-anchor="middle" fill="#64748b" font-size="12" font-family="Arial, sans-serif">
    Generated by GitHub User Rank Tracker • 9/22/2025
    <animate attributeName="opacity" values="0;1" dur="0.5s" begin="5s" fill="freeze"/>
  </text>
</svg>