<svg width="800" height="600" xmlns="http://www.w3.org/2000/svg">
  <defs>
    <linearGradient id="bgGradient" x1="0%" y1="0%" x2="100%" y2="100%">
      <stop offset="0%" style="stop-color:#1e293b;stop-opacity:1" />
      <stop offset="100%" style="stop-color:#0f172a;stop-opacity:1" />
    </linearGradient>
    <filter id="shadow" x="-20%" y="-20%" width="140%" height="140%">
      <feDropShadow dx="2" dy="2" stdDeviation="3" flood-color="#000" flood-opacity="0.3"/>
    </filter>
    <!-- Trail effect filter -->
    <filter id="trailGlow" x="-50%" y="-50%" width="200%" height="200%">
      <feGaussianBlur stdDeviation="3" result="coloredBlur"/>
      <feMerge> 
        <feMergeNode in="coloredBlur"/>
        <feMergeNode in="SourceGraphic"/>
      </feMerge>
    </filter>
  </defs>
  
  <!-- Background -->
  <rect width="800" height="600" fill="url(#bgGradient)" rx="12"/>
  
  <!-- Header -->
  <text x="400" y="40" text-anchor="middle" fill="#f8fafc" font-size="24" font-weight="bold" font-family="Arial, sans-serif">
    GitHub Progress Report
    <animate attributeName="opacity" values="0;1" dur="0.8s" begin="0s" fill="freeze"/>
    <animateTransform attributeName="transform" type="translate" values="0,-20;0,0" dur="0.8s" begin="0s" fill="freeze"/>
  </text>
  
  <!-- User Info -->
  <text x="400" y="70" text-anchor="middle" fill="#cbd5e1" font-size="16" font-family="Arial, sans-serif">
    @maifeeulasad • BANGLADESH • 100 days analyzed
    <animate attributeName="opacity" values="0;1" dur="0.6s" begin="0.3s" fill="freeze"/>
  </text>
  
  <!-- Progress Cards -->
  <!-- Followers Card -->
  <g transform="translate(60, 100)">
    <rect width="206.66666666666666" height="120" fill="#1e293b" stroke="#334155" stroke-width="1" rx="8" filter="url(#shadow)">
      <animate attributeName="opacity" values="0;1" dur="0.6s" begin="0.2s" fill="freeze"/>
      <animateTransform attributeName="transform" type="scale" values="0.8;1" dur="0.6s" begin="0.2s" fill="freeze"/>
    </rect>
    <text x="103.33333333333333" y="25" text-anchor="middle" fill="#94a3b8" font-size="14" font-weight="bold" font-family="Arial, sans-serif">FOLLOWERS
      <animate attributeName="opacity" values="0;1" dur="0.5s" begin="0.4s" fill="freeze"/>
    </text>
    
    <text x="103.33333333333333" y="50" text-anchor="middle" fill="#22c55e" font-size="32" font-weight="bold" font-family="Arial, sans-serif">
      ↗
      <animate attributeName="opacity" values="0;1" dur="0.5s" begin="0.6s" fill="freeze"/>
      <animateTransform attributeName="transform" type="scale" values="0;1.2;1" dur="0.8s" begin="0.6s" fill="freeze"/>
    </text>
    
    <text x="103.33333333333333" y="75" text-anchor="middle" fill="#f8fafc" font-size="18" font-weight="bold" font-family="Arial, sans-serif">
      +6
      <animate attributeName="opacity" values="0;1" dur="0.5s" begin="0.8s" fill="freeze"/>
    </text>
    
    <text x="103.33333333333333" y="95" text-anchor="middle" fill="#94a3b8" font-size="12" font-family="Arial, sans-serif">
      #473 → #467
      <animate attributeName="opacity" values="0;1" dur="0.5s" begin="1s" fill="freeze"/>
    </text>
  </g>
  
  <!-- Public Contributions Card -->
  <g transform="translate(296.66666666666663, 100)">
    <rect width="206.66666666666666" height="120" fill="#1e293b" stroke="#334155" stroke-width="1" rx="8" filter="url(#shadow)">
      <animate attributeName="opacity" values="0;1" dur="0.6s" begin="0.4s" fill="freeze"/>
      <animateTransform attributeName="transform" type="scale" values="0.8;1" dur="0.6s" begin="0.4s" fill="freeze"/>
    </rect>
    <text x="103.33333333333333" y="25" text-anchor="middle" fill="#94a3b8" font-size="14" font-weight="bold" font-family="Arial, sans-serif">PUBLIC
      <animate attributeName="opacity" values="0;1" dur="0.5s" begin="0.6s" fill="freeze"/>
    </text>
    
    <text x="103.33333333333333" y="50" text-anchor="middle" fill="#22c55e" font-size="32" font-weight="bold" font-family="Arial, sans-serif">
      ↗
      <animate attributeName="opacity" values="0;1" dur="0.5s" begin="0.8s" fill="freeze"/>
      <animateTransform attributeName="transform" type="scale" values="0;1.2;1" dur="0.8s" begin="0.8s" fill="freeze"/>
    </text>
    
    <text x="103.33333333333333" y="75" text-anchor="middle" fill="#f8fafc" font-size="18" font-weight="bold" font-family="Arial, sans-serif">
      +11
      <animate attributeName="opacity" values="0;1" dur="0.5s" begin="1s" fill="freeze"/>
    </text>
    
    <text x="103.33333333333333" y="95" text-anchor="middle" fill="#94a3b8" font-size="12" font-family="Arial, sans-serif">
      #18 → #7
      <animate attributeName="opacity" values="0;1" dur="0.5s" begin="1.2s" fill="freeze"/>
    </text>
  </g>
  
  <!-- Total Contributions Card -->
  <g transform="translate(533.3333333333333, 100)">
    <rect width="206.66666666666666" height="120" fill="#1e293b" stroke="#334155" stroke-width="1" rx="8" filter="url(#shadow)">
      <animate attributeName="opacity" values="0;1" dur="0.6s" begin="0.6s" fill="freeze"/>
      <animateTransform attributeName="transform" type="scale" values="0.8;1" dur="0.6s" begin="0.6s" fill="freeze"/>
    </rect>
    <text x="103.33333333333333" y="25" text-anchor="middle" fill="#94a3b8" font-size="14" font-weight="bold" font-family="Arial, sans-serif">TOTAL
      <animate attributeName="opacity" values="0;1" dur="0.5s" begin="0.8s" fill="freeze"/>
    </text>
    
    <text x="103.33333333333333" y="50" text-anchor="middle" fill="#22c55e" font-size="32" font-weight="bold" font-family="Arial, sans-serif">
      ↗
      <animate attributeName="opacity" values="0;1" dur="0.5s" begin="1s" fill="freeze"/>
      <animateTransform attributeName="transform" type="scale" values="0;1.2;1" dur="0.8s" begin="1s" fill="freeze"/>
    </text>
    
    <text x="103.33333333333333" y="75" text-anchor="middle" fill="#f8fafc" font-size="18" font-weight="bold" font-family="Arial, sans-serif">
      +15
      <animate attributeName="opacity" values="0;1" dur="0.5s" begin="1.2s" fill="freeze"/>
    </text>
    
    <text x="103.33333333333333" y="95" text-anchor="middle" fill="#94a3b8" font-size="12" font-family="Arial, sans-serif">
      #39 → #24
      <animate attributeName="opacity" values="0;1" dur="0.5s" begin="1.4s" fill="freeze"/>
    </text>
  </g>
  
  <!-- Timeline Charts (if we have snapshots) -->
  
  <!-- 👥 Followers Count Chart -->
  <g transform="translate(60, 250)">
    <!-- Chart Background -->
    <rect x="0" y="0" width="213.33333333333334" height="200" fill="#0f172a" stroke="#334155" stroke-width="1" rx="8" filter="url(#shadow)">
      <animate attributeName="opacity" values="0;1" dur="0.5s" begin="1.8s" fill="freeze"/>
    </rect>
    
    <!-- Chart Title -->
    <text x="106.66666666666667" y="25" text-anchor="middle" fill="#f8fafc" font-size="14" font-weight="bold" font-family="Arial, sans-serif">
      👥 Followers Count
      <animate attributeName="opacity" values="0;1" dur="0.5s" begin="2s" fill="freeze"/>
    </text>
    
    <!-- Y-axis labels -->
    <text x="10" y="45" fill="#94a3b8" font-size="10" font-family="Arial, sans-serif">143
      <animate attributeName="opacity" values="0;1" dur="0.5s" begin="2.2s" fill="freeze"/>
    </text>
    <text x="10" y="185" fill="#94a3b8" font-size="10" font-family="Arial, sans-serif">136
      <animate attributeName="opacity" values="0;1" dur="0.5s" begin="2.2s" fill="freeze"/>
    </text>
    
    <!-- Chart Line with draw animation that follows the circle -->
    <path d="M 30,160 L 30.028981939531615,160 L 30.05052571894844,160 L 31.54961071615611,160 L 31.576190936518127,160 L 31.60644542874408,160 L 33.09805641928219,160 L 33.12434986720605,160 L 33.15248941270057,160 L 34.64707566728459,160 L 34.67236541167489,160 L 34.7036236074344,160 L 36.19648922738946,160 L 36.22145635278683,160 L 36.24832334558701,160 L 37.745956557326494,160 L 37.77685628753831,160 L 37.8073079358155,160 L 39.294742802722894,160 L 39.321914491238616,160 L 39.353531152545834,160 L 40.870467734029006,160 L 40.89925251750938,160 L 42.39201059780014,160 L 42.41608155932825,160 L 42.44755483441639,160 L 43.93764234637676,160 L 43.963846177913695,160 L 43.99657408241879,160 L 45.4857833537873,160 L 45.51474737004153,160 L 45.54432077772685,160 L 47.034390366409845,160 L 47.06063004450155,160 L 47.09217501269923,160 L 48.58679711383802,160 L 48.61610167236257,160 L 48.646893862910076,160 L 50.13599559461427,160 L 50.16155418816535,160 L 50.193601008129804,160 L 51.68322251487817,160 L 51.70611054009888,160 L 51.73399915971,160 L 53.23034189547776,160 L 53.258857829797364,160 L 53.28748130378128,160 L 54.776923577755795,160 L 54.80438203870969,160 L 54.83581946724305,160 L 56.32393541869108,160 L 56.34981663123507,160 L 56.38462363591683,160 L 57.868079535244746,160 L 57.89917642150779,160 L 57.93018369138392,160 L 59.42525387445734,160 L 59.454952745084356,160 L 59.488236271188384,160 L 60.976190913139945,160 L 61.00115803853731,160 L 61.0346028741378,160 L 62.5213028866724,160 L 62.55528542059445,160 L 62.59109612880977,160 L 64.07014290190097,160 L 64.09588072822588,160 L 64.12758700592002,160 L 65.62147425268603,160 L 65.64366327008872,160 L 65.6760327090461,160 L 67.16574383218139,160 L 67.19214481976957,160 L 67.22343886208385,160 L 68.71374145337285,160 L 68.74033959701225,160 L 68.771328943611,160 L 70.26688305517382,160 L 70.29409059024431,160 L 70.32995506829178,160 L 71.8131600417363,160 L 71.84644356784034,160 L 71.86822034986315,160 L 73.36045865510974,160 L 73.38673417975622,160 L 73.41931869804222,160 L 74.90374245434893,160 L 74.93901546424269,160 L 74.96935957285558,160 L 76.45924992876472,160 L 76.4863499241709,160 L 76.51836089758058,160 L 78.0092549570233,160 L 78.03581725410794,160 L 78.06474542380738,160 L 79.55773650670415,160 L 79.58494404177465,160 L 79.61351374592641,160 L 81.10551904856698,160 L 81.13756586853144,160 L 81.17054469891991,160 L 82.65369590253229,160 L 82.68334100332714,160 L 82.71676791565025,160 L 84.1935922023457,160 L 84.23323849192141,160 L 84.26573339382051,160 L 85.75074861828091,160 L 85.77915701293621,160 L 85.81003881987064,160 L 87.29962448006424,160 L 87.32624054698103,160 L 87.35800059450733,160 L 88.84606277612319,160 L 88.87411270523077,160 L 88.90576521309276,160 L 90.39556595261499,160 L 90.4181851286749,160 L 90.45356567823299,160 L 91.94707653617391,160 L 91.97801211294049,160 L 92.01434259619998,160 L 93.49778057225052,160 L 93.52439663916729,160 L 93.55630007291268,160 L 95.04403963553561,57.14285714285715 L 95.069938771357,57.14285714285715 L 95.1032581440158,57.14285714285715 L 96.58940253495146,57.14285714285715 L 96.61515828455377,57.14285714285715 L 96.65046714100231,57.14285714285715 L 98.13041007796275,57.14285714285715 L 98.16557554819221,57.14285714285715 L 98.20124287018845,57.14285714285715 L 99.68797872927783,57.14285714285715 L 99.70998851390665,57.14285714285715 L 99.7430031908499,57.14285714285715 L 101.23603012030144,57.14285714285715 L 101.26200094923236,57.14285714285715 L 101.29569671071624,57.14285714285715 L 102.77929599626324,57.14285714285715 L 102.81878097634248,57.14285714285715 L 102.85227958177514,57.14285714285715 L 104.3338893835324,57.14285714285715 L 104.36650974837316,57.14285714285715 L 104.39963196498073,57.14285714285715 L 105.88574050936163,57.14285714285715 L 105.9157440757042,57.14285714285715 L 105.94850782676404,57.14285714285715 L 107.43078078978455,57.14285714285715 L 107.46169844327375,57.14285714285715 L 107.49369149340605,57.14285714285715 L 108.97777470744245,57.14285714285715 L 109.00881782387333,57.14285714285715 L 109.04330220956216,57.14285714285715 L 110.52914190478228,57.14285714285715 L 110.56434322156652,57.14285714285715 L 110.5982719856564,57.14285714285715 L 112.07672729059388,57.14285714285715 L 112.1066591638269,57.14285714285715 L 112.13431478083203,57.14285714285715 L 113.62976135273054,57.14285714285715 L 113.6615572468116,57.14285714285715 L 113.69654348426721,57.14285714285715 L 115.17388754600682,57.14285714285715 L 115.20595228924866,57.14285714285715 L 115.24247992855938,57.14285714285715 L 116.72290679400922,57.14285714285715 L 116.75298205346131,57.14285714285715 L 116.78601465368196,57.14285714285715 L 118.27219489117239,57.14285714285715 L 118.29940242624289,57.14285714285715 L 118.33519521118083,57.14285714285715 L 119.82159052799989,57.14285714285715 L 119.85066208391842,57.14285714285715 L 119.88046849420975,57.14285714285715 L 121.37159555625846,57.14285714285715 L 121.39661645148799,57.14285714285715 L 121.42900381372276,57.14285714285715 L 122.91536328398705,57.14285714285715 L 122.93920124290915,57.14285714285715 L 122.96703609268813,57.14285714285715 L 124.4670889468746,57.14285714285715 L 124.49447571471894,57.14285714285715 L 124.53075242814627,57.14285714285715 L 126.01483564218266,57.14285714285715 L 126.04281387818071,57.14285714285715 L 126.07706526126353,57.14285714285715 L 127.55783266898368,57.14285714285715 L 127.58348087892169,57.14285714285715 L 127.61733794990204,57.14285714285715 L 129.1031059520126,57.14285714285715 L 129.13585177979508,57.14285714285715 L 129.1685438377454,57.14285714285715 L 130.65780687894608,57.14285714285715 L 130.683777707877,57.14285714285715 L 130.7150538269139,57.14285714285715 L 132.20757890459865,57.14285714285715 L 132.23358558008437,57.14285714285715 L 132.26498716206294,57.14285714285715 L 133.75285218762758,57.14285714285715 L 133.78249728842246,57.14285714285715 L 133.81373756090454,57.14285714285715 L 135.30640602480838,57.14285714285715 L 135.33461726341244,57.14285714285715 L 135.36808002229031,57.14285714285715 L 136.85599881768712,57.14285714285715 L 136.88180833712158,57.14285714285715 L 136.91803128071678,57.14285714285715 L 138.4000174712991,57.14285714285715 L 138.42555814157276,57.14285714285715 L 138.45617109934642,57.14285714285715 L 139.9482839416513,57.14285714285715 L 139.9740755378084,57.14285714285715 L 140.005244117181,57.14285714285715 L 141.4985578190707,57.14285714285715 L 141.52002990537795,57.14285714285715 L 141.5508041726481,57.14285714285715 L 143.04700352219675,57.14285714285715 L 143.07206026398106,57.14285714285715 L 143.09283334247033,57.14285714285715 L 144.59349558808788,57.14285714285715 L 144.61736939356473,57.14285714285715 L 144.64757011595856,57.14285714285715 L 146.1381774029631,57.14285714285715 L 146.17407772756533,57.14285714285715 L 146.2066084760192,57.14285714285715 L 147.69334433510858,57.14285714285715 L 147.7200141718575,57.14285714285715 L 147.75125444433965,57.14285714285715 L 149.24223812016925,57.14285714285715 L 149.2683164887645,57.14285714285715 L 149.2934986934905,57.14285714285715 L 150.79249407431124,57.14285714285715 L 150.81486232448776,57.14285714285715 L 150.84090484652825,57.14285714285715 L 152.3367636538066,57.14285714285715 L 152.3622684775255,57.14285714285715 L 152.39098156789638,57.14285714285715 L 153.8878261554309,57.14285714285715 L 153.91005101938836,57.14285714285715 L 153.94084320993585,57.14285714285715 L 155.4253565826295,57.14285714285715 L 155.45896272772643,57.14285714285715 L 155.4899162277704,57.14285714285715 L 156.98536279966893,57.14285714285715 L 157.01411173659454,57.14285714285715 L 157.04332667873217,57.14285714285715 L 158.53481220632855,57.14285714285715 L 158.564762002839,57.14285714285715 L 158.59845776432286,57.14285714285715 L 160.07847239439283,57.14285714285715 L 160.10361875256407,57.14285714285715 L 160.13240353604445,57.14285714285715 L 161.62741994928572,57.14285714285715 L 161.6461318508757,57.14285714285715 L 161.679056911432,57.14285714285715 L 163.17708443527397,57.14285714285715 L 163.19968568805652,57.14285714285715 L 163.23042410877184,57.14285714285715 L 164.72732246613856,57.14285714285715 L 164.74995956547588,57.14285714285715 L 164.7768624048308,57.14285714285715 L 166.27329475698548,40 L 166.29625447531575,40 L 166.32572034333677,40 L 167.82335355507624,40 L 167.84717359072096,40 L 167.88038542371544,40 L 169.3630706221158,40 L 169.39640791805198,40 L 169.42904620617014,40 L 170.92114112519766,40 L 170.93865216720283,40 L 170.9685123473263,40 L 172.46691625999335,40 L 172.49141738017872,40 L 172.52364343291703,40 L 174.0091784324216,40 L 174.04133279205035,40 L 174.0700638056986,40 L 175.56463213700522,40 L 175.58992188139553,40 L 175.61768503806496,40 L 177.11099873995465,40 L 177.13580455585554,40 L 177.16087922091722,40 L 177.20061512687985,40 L 178.66516196856654,40 L 178.69132995354872,40 L 178.7185374886192,40 L 180.2126756612686,40 L 180.23877195314122,40 L 180.26728788746084,40 L 181.76045820313146,40 L 181.7844753948274,40 L 181.81188008594916,40 L 183.30447685674343,40 L 183.33333333333334,40" stroke="#22c55e" stroke-width="2" fill="none" stroke-dasharray="14950" stroke-dashoffset="14950">
      <animate attributeName="stroke-dashoffset" values="14950;0" dur="3s" begin="2.6s" fill="freeze"/>
    </path>
    
    <!-- Glow effect for the line that also follows the circle -->
    <path d="M 30,160 L 30.028981939531615,160 L 30.05052571894844,160 L 31.54961071615611,160 L 31.576190936518127,160 L 31.60644542874408,160 L 33.09805641928219,160 L 33.12434986720605,160 L 33.15248941270057,160 L 34.64707566728459,160 L 34.67236541167489,160 L 34.7036236074344,160 L 36.19648922738946,160 L 36.22145635278683,160 L 36.24832334558701,160 L 37.745956557326494,160 L 37.77685628753831,160 L 37.8073079358155,160 L 39.294742802722894,160 L 39.321914491238616,160 L 39.353531152545834,160 L 40.870467734029006,160 L 40.89925251750938,160 L 42.39201059780014,160 L 42.41608155932825,160 L 42.44755483441639,160 L 43.93764234637676,160 L 43.963846177913695,160 L 43.99657408241879,160 L 45.4857833537873,160 L 45.51474737004153,160 L 45.54432077772685,160 L 47.034390366409845,160 L 47.06063004450155,160 L 47.09217501269923,160 L 48.58679711383802,160 L 48.61610167236257,160 L 48.646893862910076,160 L 50.13599559461427,160 L 50.16155418816535,160 L 50.193601008129804,160 L 51.68322251487817,160 L 51.70611054009888,160 L 51.73399915971,160 L 53.23034189547776,160 L 53.258857829797364,160 L 53.28748130378128,160 L 54.776923577755795,160 L 54.80438203870969,160 L 54.83581946724305,160 L 56.32393541869108,160 L 56.34981663123507,160 L 56.38462363591683,160 L 57.868079535244746,160 L 57.89917642150779,160 L 57.93018369138392,160 L 59.42525387445734,160 L 59.454952745084356,160 L 59.488236271188384,160 L 60.976190913139945,160 L 61.00115803853731,160 L 61.0346028741378,160 L 62.5213028866724,160 L 62.55528542059445,160 L 62.59109612880977,160 L 64.07014290190097,160 L 64.09588072822588,160 L 64.12758700592002,160 L 65.62147425268603,160 L 65.64366327008872,160 L 65.6760327090461,160 L 67.16574383218139,160 L 67.19214481976957,160 L 67.22343886208385,160 L 68.71374145337285,160 L 68.74033959701225,160 L 68.771328943611,160 L 70.26688305517382,160 L 70.29409059024431,160 L 70.32995506829178,160 L 71.8131600417363,160 L 71.84644356784034,160 L 71.86822034986315,160 L 73.36045865510974,160 L 73.38673417975622,160 L 73.41931869804222,160 L 74.90374245434893,160 L 74.93901546424269,160 L 74.96935957285558,160 L 76.45924992876472,160 L 76.4863499241709,160 L 76.51836089758058,160 L 78.0092549570233,160 L 78.03581725410794,160 L 78.06474542380738,160 L 79.55773650670415,160 L 79.58494404177465,160 L 79.61351374592641,160 L 81.10551904856698,160 L 81.13756586853144,160 L 81.17054469891991,160 L 82.65369590253229,160 L 82.68334100332714,160 L 82.71676791565025,160 L 84.1935922023457,160 L 84.23323849192141,160 L 84.26573339382051,160 L 85.75074861828091,160 L 85.77915701293621,160 L 85.81003881987064,160 L 87.29962448006424,160 L 87.32624054698103,160 L 87.35800059450733,160 L 88.84606277612319,160 L 88.87411270523077,160 L 88.90576521309276,160 L 90.39556595261499,160 L 90.4181851286749,160 L 90.45356567823299,160 L 91.94707653617391,160 L 91.97801211294049,160 L 92.01434259619998,160 L 93.49778057225052,160 L 93.52439663916729,160 L 93.55630007291268,160 L 95.04403963553561,57.14285714285715 L 95.069938771357,57.14285714285715 L 95.1032581440158,57.14285714285715 L 96.58940253495146,57.14285714285715 L 96.61515828455377,57.14285714285715 L 96.65046714100231,57.14285714285715 L 98.13041007796275,57.14285714285715 L 98.16557554819221,57.14285714285715 L 98.20124287018845,57.14285714285715 L 99.68797872927783,57.14285714285715 L 99.70998851390665,57.14285714285715 L 99.7430031908499,57.14285714285715 L 101.23603012030144,57.14285714285715 L 101.26200094923236,57.14285714285715 L 101.29569671071624,57.14285714285715 L 102.77929599626324,57.14285714285715 L 102.81878097634248,57.14285714285715 L 102.85227958177514,57.14285714285715 L 104.3338893835324,57.14285714285715 L 104.36650974837316,57.14285714285715 L 104.39963196498073,57.14285714285715 L 105.88574050936163,57.14285714285715 L 105.9157440757042,57.14285714285715 L 105.94850782676404,57.14285714285715 L 107.43078078978455,57.14285714285715 L 107.46169844327375,57.14285714285715 L 107.49369149340605,57.14285714285715 L 108.97777470744245,57.14285714285715 L 109.00881782387333,57.14285714285715 L 109.04330220956216,57.14285714285715 L 110.52914190478228,57.14285714285715 L 110.56434322156652,57.14285714285715 L 110.5982719856564,57.14285714285715 L 112.07672729059388,57.14285714285715 L 112.1066591638269,57.14285714285715 L 112.13431478083203,57.14285714285715 L 113.62976135273054,57.14285714285715 L 113.6615572468116,57.14285714285715 L 113.69654348426721,57.14285714285715 L 115.17388754600682,57.14285714285715 L 115.20595228924866,57.14285714285715 L 115.24247992855938,57.14285714285715 L 116.72290679400922,57.14285714285715 L 116.75298205346131,57.14285714285715 L 116.78601465368196,57.14285714285715 L 118.27219489117239,57.14285714285715 L 118.29940242624289,57.14285714285715 L 118.33519521118083,57.14285714285715 L 119.82159052799989,57.14285714285715 L 119.85066208391842,57.14285714285715 L 119.88046849420975,57.14285714285715 L 121.37159555625846,57.14285714285715 L 121.39661645148799,57.14285714285715 L 121.42900381372276,57.14285714285715 L 122.91536328398705,57.14285714285715 L 122.93920124290915,57.14285714285715 L 122.96703609268813,57.14285714285715 L 124.4670889468746,57.14285714285715 L 124.49447571471894,57.14285714285715 L 124.53075242814627,57.14285714285715 L 126.01483564218266,57.14285714285715 L 126.04281387818071,57.14285714285715 L 126.07706526126353,57.14285714285715 L 127.55783266898368,57.14285714285715 L 127.58348087892169,57.14285714285715 L 127.61733794990204,57.14285714285715 L 129.1031059520126,57.14285714285715 L 129.13585177979508,57.14285714285715 L 129.1685438377454,57.14285714285715 L 130.65780687894608,57.14285714285715 L 130.683777707877,57.14285714285715 L 130.7150538269139,57.14285714285715 L 132.20757890459865,57.14285714285715 L 132.23358558008437,57.14285714285715 L 132.26498716206294,57.14285714285715 L 133.75285218762758,57.14285714285715 L 133.78249728842246,57.14285714285715 L 133.81373756090454,57.14285714285715 L 135.30640602480838,57.14285714285715 L 135.33461726341244,57.14285714285715 L 135.36808002229031,57.14285714285715 L 136.85599881768712,57.14285714285715 L 136.88180833712158,57.14285714285715 L 136.91803128071678,57.14285714285715 L 138.4000174712991,57.14285714285715 L 138.42555814157276,57.14285714285715 L 138.45617109934642,57.14285714285715 L 139.9482839416513,57.14285714285715 L 139.9740755378084,57.14285714285715 L 140.005244117181,57.14285714285715 L 141.4985578190707,57.14285714285715 L 141.52002990537795,57.14285714285715 L 141.5508041726481,57.14285714285715 L 143.04700352219675,57.14285714285715 L 143.07206026398106,57.14285714285715 L 143.09283334247033,57.14285714285715 L 144.59349558808788,57.14285714285715 L 144.61736939356473,57.14285714285715 L 144.64757011595856,57.14285714285715 L 146.1381774029631,57.14285714285715 L 146.17407772756533,57.14285714285715 L 146.2066084760192,57.14285714285715 L 147.69334433510858,57.14285714285715 L 147.7200141718575,57.14285714285715 L 147.75125444433965,57.14285714285715 L 149.24223812016925,57.14285714285715 L 149.2683164887645,57.14285714285715 L 149.2934986934905,57.14285714285715 L 150.79249407431124,57.14285714285715 L 150.81486232448776,57.14285714285715 L 150.84090484652825,57.14285714285715 L 152.3367636538066,57.14285714285715 L 152.3622684775255,57.14285714285715 L 152.39098156789638,57.14285714285715 L 153.8878261554309,57.14285714285715 L 153.91005101938836,57.14285714285715 L 153.94084320993585,57.14285714285715 L 155.4253565826295,57.14285714285715 L 155.45896272772643,57.14285714285715 L 155.4899162277704,57.14285714285715 L 156.98536279966893,57.14285714285715 L 157.01411173659454,57.14285714285715 L 157.04332667873217,57.14285714285715 L 158.53481220632855,57.14285714285715 L 158.564762002839,57.14285714285715 L 158.59845776432286,57.14285714285715 L 160.07847239439283,57.14285714285715 L 160.10361875256407,57.14285714285715 L 160.13240353604445,57.14285714285715 L 161.62741994928572,57.14285714285715 L 161.6461318508757,57.14285714285715 L 161.679056911432,57.14285714285715 L 163.17708443527397,57.14285714285715 L 163.19968568805652,57.14285714285715 L 163.23042410877184,57.14285714285715 L 164.72732246613856,57.14285714285715 L 164.74995956547588,57.14285714285715 L 164.7768624048308,57.14285714285715 L 166.27329475698548,40 L 166.29625447531575,40 L 166.32572034333677,40 L 167.82335355507624,40 L 167.84717359072096,40 L 167.88038542371544,40 L 169.3630706221158,40 L 169.39640791805198,40 L 169.42904620617014,40 L 170.92114112519766,40 L 170.93865216720283,40 L 170.9685123473263,40 L 172.46691625999335,40 L 172.49141738017872,40 L 172.52364343291703,40 L 174.0091784324216,40 L 174.04133279205035,40 L 174.0700638056986,40 L 175.56463213700522,40 L 175.58992188139553,40 L 175.61768503806496,40 L 177.11099873995465,40 L 177.13580455585554,40 L 177.16087922091722,40 L 177.20061512687985,40 L 178.66516196856654,40 L 178.69132995354872,40 L 178.7185374886192,40 L 180.2126756612686,40 L 180.23877195314122,40 L 180.26728788746084,40 L 181.76045820313146,40 L 181.7844753948274,40 L 181.81188008594916,40 L 183.30447685674343,40 L 183.33333333333334,40" stroke="#22c55e" stroke-width="4" fill="none" opacity="0.4" stroke-dasharray="14950" stroke-dashoffset="14950">
      <animate attributeName="stroke-dashoffset" values="14950;0" dur="3s" begin="2.6s" fill="freeze"/>
    </path>
    
    <!-- Animated circle that moves along the path and draws the line -->
    <circle r="5" fill="#22c55e" opacity="0" filter="url(#trailGlow)">
      <animate attributeName="opacity" values="0;1;1;1" dur="3.2s" begin="2.4s" fill="freeze"/>
      <animate attributeName="r" values="5;6;5" dur="1s" begin="2.4s" repeatCount="3"/>
      <animateMotion dur="3s" begin="2.4s" fill="freeze">
        <mpath href="#path_followersCount_60"/>
      </animateMotion>
    </circle>
    
    <!-- Small trail dots that fade out -->
    <circle r="2" fill="#22c55e" opacity="0">
      <animate attributeName="opacity" values="0;0.6;0" dur="0.8s" begin="2.8s" fill="freeze"/>
      <animateMotion dur="3s" begin="2.4s" fill="freeze">
        <mpath href="#path_followersCount_60"/>
      </animateMotion>
    </circle>
    
    <!-- Hidden path for motion animation -->
    <path id="path_followersCount_60" d="M 30,160 L 30.028981939531615,160 L 30.05052571894844,160 L 31.54961071615611,160 L 31.576190936518127,160 L 31.60644542874408,160 L 33.09805641928219,160 L 33.12434986720605,160 L 33.15248941270057,160 L 34.64707566728459,160 L 34.67236541167489,160 L 34.7036236074344,160 L 36.19648922738946,160 L 36.22145635278683,160 L 36.24832334558701,160 L 37.745956557326494,160 L 37.77685628753831,160 L 37.8073079358155,160 L 39.294742802722894,160 L 39.321914491238616,160 L 39.353531152545834,160 L 40.870467734029006,160 L 40.89925251750938,160 L 42.39201059780014,160 L 42.41608155932825,160 L 42.44755483441639,160 L 43.93764234637676,160 L 43.963846177913695,160 L 43.99657408241879,160 L 45.4857833537873,160 L 45.51474737004153,160 L 45.54432077772685,160 L 47.034390366409845,160 L 47.06063004450155,160 L 47.09217501269923,160 L 48.58679711383802,160 L 48.61610167236257,160 L 48.646893862910076,160 L 50.13599559461427,160 L 50.16155418816535,160 L 50.193601008129804,160 L 51.68322251487817,160 L 51.70611054009888,160 L 51.73399915971,160 L 53.23034189547776,160 L 53.258857829797364,160 L 53.28748130378128,160 L 54.776923577755795,160 L 54.80438203870969,160 L 54.83581946724305,160 L 56.32393541869108,160 L 56.34981663123507,160 L 56.38462363591683,160 L 57.868079535244746,160 L 57.89917642150779,160 L 57.93018369138392,160 L 59.42525387445734,160 L 59.454952745084356,160 L 59.488236271188384,160 L 60.976190913139945,160 L 61.00115803853731,160 L 61.0346028741378,160 L 62.5213028866724,160 L 62.55528542059445,160 L 62.59109612880977,160 L 64.07014290190097,160 L 64.09588072822588,160 L 64.12758700592002,160 L 65.62147425268603,160 L 65.64366327008872,160 L 65.6760327090461,160 L 67.16574383218139,160 L 67.19214481976957,160 L 67.22343886208385,160 L 68.71374145337285,160 L 68.74033959701225,160 L 68.771328943611,160 L 70.26688305517382,160 L 70.29409059024431,160 L 70.32995506829178,160 L 71.8131600417363,160 L 71.84644356784034,160 L 71.86822034986315,160 L 73.36045865510974,160 L 73.38673417975622,160 L 73.41931869804222,160 L 74.90374245434893,160 L 74.93901546424269,160 L 74.96935957285558,160 L 76.45924992876472,160 L 76.4863499241709,160 L 76.51836089758058,160 L 78.0092549570233,160 L 78.03581725410794,160 L 78.06474542380738,160 L 79.55773650670415,160 L 79.58494404177465,160 L 79.61351374592641,160 L 81.10551904856698,160 L 81.13756586853144,160 L 81.17054469891991,160 L 82.65369590253229,160 L 82.68334100332714,160 L 82.71676791565025,160 L 84.1935922023457,160 L 84.23323849192141,160 L 84.26573339382051,160 L 85.75074861828091,160 L 85.77915701293621,160 L 85.81003881987064,160 L 87.29962448006424,160 L 87.32624054698103,160 L 87.35800059450733,160 L 88.84606277612319,160 L 88.87411270523077,160 L 88.90576521309276,160 L 90.39556595261499,160 L 90.4181851286749,160 L 90.45356567823299,160 L 91.94707653617391,160 L 91.97801211294049,160 L 92.01434259619998,160 L 93.49778057225052,160 L 93.52439663916729,160 L 93.55630007291268,160 L 95.04403963553561,57.14285714285715 L 95.069938771357,57.14285714285715 L 95.1032581440158,57.14285714285715 L 96.58940253495146,57.14285714285715 L 96.61515828455377,57.14285714285715 L 96.65046714100231,57.14285714285715 L 98.13041007796275,57.14285714285715 L 98.16557554819221,57.14285714285715 L 98.20124287018845,57.14285714285715 L 99.68797872927783,57.14285714285715 L 99.70998851390665,57.14285714285715 L 99.7430031908499,57.14285714285715 L 101.23603012030144,57.14285714285715 L 101.26200094923236,57.14285714285715 L 101.29569671071624,57.14285714285715 L 102.77929599626324,57.14285714285715 L 102.81878097634248,57.14285714285715 L 102.85227958177514,57.14285714285715 L 104.3338893835324,57.14285714285715 L 104.36650974837316,57.14285714285715 L 104.39963196498073,57.14285714285715 L 105.88574050936163,57.14285714285715 L 105.9157440757042,57.14285714285715 L 105.94850782676404,57.14285714285715 L 107.43078078978455,57.14285714285715 L 107.46169844327375,57.14285714285715 L 107.49369149340605,57.14285714285715 L 108.97777470744245,57.14285714285715 L 109.00881782387333,57.14285714285715 L 109.04330220956216,57.14285714285715 L 110.52914190478228,57.14285714285715 L 110.56434322156652,57.14285714285715 L 110.5982719856564,57.14285714285715 L 112.07672729059388,57.14285714285715 L 112.1066591638269,57.14285714285715 L 112.13431478083203,57.14285714285715 L 113.62976135273054,57.14285714285715 L 113.6615572468116,57.14285714285715 L 113.69654348426721,57.14285714285715 L 115.17388754600682,57.14285714285715 L 115.20595228924866,57.14285714285715 L 115.24247992855938,57.14285714285715 L 116.72290679400922,57.14285714285715 L 116.75298205346131,57.14285714285715 L 116.78601465368196,57.14285714285715 L 118.27219489117239,57.14285714285715 L 118.29940242624289,57.14285714285715 L 118.33519521118083,57.14285714285715 L 119.82159052799989,57.14285714285715 L 119.85066208391842,57.14285714285715 L 119.88046849420975,57.14285714285715 L 121.37159555625846,57.14285714285715 L 121.39661645148799,57.14285714285715 L 121.42900381372276,57.14285714285715 L 122.91536328398705,57.14285714285715 L 122.93920124290915,57.14285714285715 L 122.96703609268813,57.14285714285715 L 124.4670889468746,57.14285714285715 L 124.49447571471894,57.14285714285715 L 124.53075242814627,57.14285714285715 L 126.01483564218266,57.14285714285715 L 126.04281387818071,57.14285714285715 L 126.07706526126353,57.14285714285715 L 127.55783266898368,57.14285714285715 L 127.58348087892169,57.14285714285715 L 127.61733794990204,57.14285714285715 L 129.1031059520126,57.14285714285715 L 129.13585177979508,57.14285714285715 L 129.1685438377454,57.14285714285715 L 130.65780687894608,57.14285714285715 L 130.683777707877,57.14285714285715 L 130.7150538269139,57.14285714285715 L 132.20757890459865,57.14285714285715 L 132.23358558008437,57.14285714285715 L 132.26498716206294,57.14285714285715 L 133.75285218762758,57.14285714285715 L 133.78249728842246,57.14285714285715 L 133.81373756090454,57.14285714285715 L 135.30640602480838,57.14285714285715 L 135.33461726341244,57.14285714285715 L 135.36808002229031,57.14285714285715 L 136.85599881768712,57.14285714285715 L 136.88180833712158,57.14285714285715 L 136.91803128071678,57.14285714285715 L 138.4000174712991,57.14285714285715 L 138.42555814157276,57.14285714285715 L 138.45617109934642,57.14285714285715 L 139.9482839416513,57.14285714285715 L 139.9740755378084,57.14285714285715 L 140.005244117181,57.14285714285715 L 141.4985578190707,57.14285714285715 L 141.52002990537795,57.14285714285715 L 141.5508041726481,57.14285714285715 L 143.04700352219675,57.14285714285715 L 143.07206026398106,57.14285714285715 L 143.09283334247033,57.14285714285715 L 144.59349558808788,57.14285714285715 L 144.61736939356473,57.14285714285715 L 144.64757011595856,57.14285714285715 L 146.1381774029631,57.14285714285715 L 146.17407772756533,57.14285714285715 L 146.2066084760192,57.14285714285715 L 147.69334433510858,57.14285714285715 L 147.7200141718575,57.14285714285715 L 147.75125444433965,57.14285714285715 L 149.24223812016925,57.14285714285715 L 149.2683164887645,57.14285714285715 L 149.2934986934905,57.14285714285715 L 150.79249407431124,57.14285714285715 L 150.81486232448776,57.14285714285715 L 150.84090484652825,57.14285714285715 L 152.3367636538066,57.14285714285715 L 152.3622684775255,57.14285714285715 L 152.39098156789638,57.14285714285715 L 153.8878261554309,57.14285714285715 L 153.91005101938836,57.14285714285715 L 153.94084320993585,57.14285714285715 L 155.4253565826295,57.14285714285715 L 155.45896272772643,57.14285714285715 L 155.4899162277704,57.14285714285715 L 156.98536279966893,57.14285714285715 L 157.01411173659454,57.14285714285715 L 157.04332667873217,57.14285714285715 L 158.53481220632855,57.14285714285715 L 158.564762002839,57.14285714285715 L 158.59845776432286,57.14285714285715 L 160.07847239439283,57.14285714285715 L 160.10361875256407,57.14285714285715 L 160.13240353604445,57.14285714285715 L 161.62741994928572,57.14285714285715 L 161.6461318508757,57.14285714285715 L 161.679056911432,57.14285714285715 L 163.17708443527397,57.14285714285715 L 163.19968568805652,57.14285714285715 L 163.23042410877184,57.14285714285715 L 164.72732246613856,57.14285714285715 L 164.74995956547588,57.14285714285715 L 164.7768624048308,57.14285714285715 L 166.27329475698548,40 L 166.29625447531575,40 L 166.32572034333677,40 L 167.82335355507624,40 L 167.84717359072096,40 L 167.88038542371544,40 L 169.3630706221158,40 L 169.39640791805198,40 L 169.42904620617014,40 L 170.92114112519766,40 L 170.93865216720283,40 L 170.9685123473263,40 L 172.46691625999335,40 L 172.49141738017872,40 L 172.52364343291703,40 L 174.0091784324216,40 L 174.04133279205035,40 L 174.0700638056986,40 L 175.56463213700522,40 L 175.58992188139553,40 L 175.61768503806496,40 L 177.11099873995465,40 L 177.13580455585554,40 L 177.16087922091722,40 L 177.20061512687985,40 L 178.66516196856654,40 L 178.69132995354872,40 L 178.7185374886192,40 L 180.2126756612686,40 L 180.23877195314122,40 L 180.26728788746084,40 L 181.76045820313146,40 L 181.7844753948274,40 L 181.81188008594916,40 L 183.30447685674343,40 L 183.33333333333334,40" fill="none" stroke="none"/>
  </g>
  <!-- 🔓 Public Contributions Chart -->
  <g transform="translate(293.33333333333337, 250)">
    <!-- Chart Background -->
    <rect x="0" y="0" width="213.33333333333334" height="200" fill="#0f172a" stroke="#334155" stroke-width="1" rx="8" filter="url(#shadow)">
      <animate attributeName="opacity" values="0;1" dur="0.5s" begin="2.3s" fill="freeze"/>
    </rect>
    
    <!-- Chart Title -->
    <text x="106.66666666666667" y="25" text-anchor="middle" fill="#f8fafc" font-size="14" font-weight="bold" font-family="Arial, sans-serif">
      🔓 Public Contributions
      <animate attributeName="opacity" values="0;1" dur="0.5s" begin="2.5s" fill="freeze"/>
    </text>
    
    <!-- Y-axis labels -->
    <text x="10" y="45" fill="#94a3b8" font-size="10" font-family="Arial, sans-serif">2,669
      <animate attributeName="opacity" values="0;1" dur="0.5s" begin="2.6999999999999997s" fill="freeze"/>
    </text>
    <text x="10" y="185" fill="#94a3b8" font-size="10" font-family="Arial, sans-serif">1,491
      <animate attributeName="opacity" values="0;1" dur="0.5s" begin="2.6999999999999997s" fill="freeze"/>
    </text>
    
    <!-- Chart Line with draw animation that follows the circle -->
    <path d="M 30,160 L 30.028981939531615,160 L 30.05052571894844,160 L 31.54961071615611,160 L 31.576190936518127,160 L 31.60644542874408,160 L 33.09805641928219,160 L 33.12434986720605,160 L 33.15248941270057,160 L 34.64707566728459,160 L 34.67236541167489,160 L 34.7036236074344,160 L 36.19648922738946,160 L 36.22145635278683,160 L 36.24832334558701,160 L 37.745956557326494,160 L 37.77685628753831,160 L 37.8073079358155,160 L 39.294742802722894,160 L 39.321914491238616,160 L 39.353531152545834,160 L 40.870467734029006,160 L 40.89925251750938,160 L 42.39201059780014,160 L 42.41608155932825,160 L 42.44755483441639,160 L 43.93764234637676,160 L 43.963846177913695,160 L 43.99657408241879,160 L 45.4857833537873,160 L 45.51474737004153,160 L 45.54432077772685,160 L 47.034390366409845,160 L 47.06063004450155,160 L 47.09217501269923,160 L 48.58679711383802,160 L 48.61610167236257,160 L 48.646893862910076,160 L 50.13599559461427,160 L 50.16155418816535,160 L 50.193601008129804,160 L 51.68322251487817,160 L 51.70611054009888,160 L 51.73399915971,160 L 53.23034189547776,160 L 53.258857829797364,160 L 53.28748130378128,160 L 54.776923577755795,160 L 54.80438203870969,160 L 54.83581946724305,160 L 56.32393541869108,160 L 56.34981663123507,160 L 56.38462363591683,160 L 57.868079535244746,160 L 57.89917642150779,160 L 57.93018369138392,160 L 59.42525387445734,160 L 59.454952745084356,160 L 59.488236271188384,160 L 60.976190913139945,160 L 61.00115803853731,160 L 61.0346028741378,160 L 62.5213028866724,160 L 62.55528542059445,160 L 62.59109612880977,160 L 64.07014290190097,160 L 64.09588072822588,160 L 64.12758700592002,160 L 65.62147425268603,160 L 65.64366327008872,160 L 65.6760327090461,160 L 67.16574383218139,160 L 67.19214481976957,160 L 67.22343886208385,160 L 68.71374145337285,160 L 68.74033959701225,160 L 68.771328943611,160 L 70.26688305517382,160 L 70.29409059024431,160 L 70.32995506829178,160 L 71.8131600417363,160 L 71.84644356784034,160 L 71.86822034986315,160 L 73.36045865510974,160 L 73.38673417975622,160 L 73.41931869804222,160 L 74.90374245434893,160 L 74.93901546424269,160 L 74.96935957285558,160 L 76.45924992876472,160 L 76.4863499241709,160 L 76.51836089758058,160 L 78.0092549570233,160 L 78.03581725410794,160 L 78.06474542380738,160 L 79.55773650670415,160 L 79.58494404177465,160 L 79.61351374592641,160 L 81.10551904856698,160 L 81.13756586853144,160 L 81.17054469891991,160 L 82.65369590253229,160 L 82.68334100332714,160 L 82.71676791565025,160 L 84.1935922023457,160 L 84.23323849192141,160 L 84.26573339382051,160 L 85.75074861828091,160 L 85.77915701293621,160 L 85.81003881987064,160 L 87.29962448006424,160 L 87.32624054698103,160 L 87.35800059450733,160 L 88.84606277612319,160 L 88.87411270523077,160 L 88.90576521309276,160 L 90.39556595261499,160 L 90.4181851286749,160 L 90.45356567823299,160 L 91.94707653617391,160 L 91.97801211294049,160 L 92.01434259619998,160 L 93.49778057225052,160 L 93.52439663916729,160 L 93.55630007291268,160 L 95.04403963553561,133.3106960950764 L 95.069938771357,133.3106960950764 L 95.1032581440158,133.3106960950764 L 96.58940253495146,133.3106960950764 L 96.61515828455377,133.3106960950764 L 96.65046714100231,133.3106960950764 L 98.13041007796275,133.3106960950764 L 98.16557554819221,133.3106960950764 L 98.20124287018845,133.3106960950764 L 99.68797872927783,133.3106960950764 L 99.70998851390665,133.3106960950764 L 99.7430031908499,133.3106960950764 L 101.23603012030144,133.3106960950764 L 101.26200094923236,133.3106960950764 L 101.29569671071624,133.3106960950764 L 102.77929599626324,133.3106960950764 L 102.81878097634248,133.3106960950764 L 102.85227958177514,133.3106960950764 L 104.3338893835324,133.3106960950764 L 104.36650974837316,133.3106960950764 L 104.39963196498073,133.3106960950764 L 105.88574050936163,133.3106960950764 L 105.9157440757042,133.3106960950764 L 105.94850782676404,133.3106960950764 L 107.43078078978455,133.3106960950764 L 107.46169844327375,133.3106960950764 L 107.49369149340605,133.3106960950764 L 108.97777470744245,133.3106960950764 L 109.00881782387333,133.3106960950764 L 109.04330220956216,133.3106960950764 L 110.52914190478228,133.3106960950764 L 110.56434322156652,133.3106960950764 L 110.5982719856564,133.3106960950764 L 112.07672729059388,133.3106960950764 L 112.1066591638269,133.3106960950764 L 112.13431478083203,133.3106960950764 L 113.62976135273054,133.3106960950764 L 113.6615572468116,133.3106960950764 L 113.69654348426721,133.3106960950764 L 115.17388754600682,133.3106960950764 L 115.20595228924866,133.3106960950764 L 115.24247992855938,133.3106960950764 L 116.72290679400922,133.3106960950764 L 116.75298205346131,133.3106960950764 L 116.78601465368196,133.3106960950764 L 118.27219489117239,133.3106960950764 L 118.29940242624289,133.3106960950764 L 118.33519521118083,133.3106960950764 L 119.82159052799989,133.3106960950764 L 119.85066208391842,133.3106960950764 L 119.88046849420975,133.3106960950764 L 121.37159555625846,133.3106960950764 L 121.39661645148799,133.3106960950764 L 121.42900381372276,133.3106960950764 L 122.91536328398705,133.3106960950764 L 122.93920124290915,133.3106960950764 L 122.96703609268813,133.3106960950764 L 124.4670889468746,133.3106960950764 L 124.49447571471894,133.3106960950764 L 124.53075242814627,133.3106960950764 L 126.01483564218266,133.3106960950764 L 126.04281387818071,133.3106960950764 L 126.07706526126353,133.3106960950764 L 127.55783266898368,133.3106960950764 L 127.58348087892169,133.3106960950764 L 127.61733794990204,133.3106960950764 L 129.1031059520126,133.3106960950764 L 129.13585177979508,133.3106960950764 L 129.1685438377454,133.3106960950764 L 130.65780687894608,133.3106960950764 L 130.683777707877,133.3106960950764 L 130.7150538269139,133.3106960950764 L 132.20757890459865,133.3106960950764 L 132.23358558008437,133.3106960950764 L 132.26498716206294,133.3106960950764 L 133.75285218762758,133.3106960950764 L 133.78249728842246,133.3106960950764 L 133.81373756090454,133.3106960950764 L 135.30640602480838,133.3106960950764 L 135.33461726341244,133.3106960950764 L 135.36808002229031,133.3106960950764 L 136.85599881768712,133.3106960950764 L 136.88180833712158,133.3106960950764 L 136.91803128071678,133.3106960950764 L 138.4000174712991,133.3106960950764 L 138.42555814157276,133.3106960950764 L 138.45617109934642,133.3106960950764 L 139.9482839416513,133.3106960950764 L 139.9740755378084,133.3106960950764 L 140.005244117181,133.3106960950764 L 141.4985578190707,133.3106960950764 L 141.52002990537795,133.3106960950764 L 141.5508041726481,133.3106960950764 L 143.04700352219675,133.3106960950764 L 143.07206026398106,133.3106960950764 L 143.09283334247033,133.3106960950764 L 144.59349558808788,133.3106960950764 L 144.61736939356473,133.3106960950764 L 144.64757011595856,133.3106960950764 L 146.1381774029631,133.3106960950764 L 146.17407772756533,133.3106960950764 L 146.2066084760192,133.3106960950764 L 147.69334433510858,133.3106960950764 L 147.7200141718575,133.3106960950764 L 147.75125444433965,133.3106960950764 L 149.24223812016925,133.3106960950764 L 149.2683164887645,133.3106960950764 L 149.2934986934905,133.3106960950764 L 150.79249407431124,133.3106960950764 L 150.81486232448776,133.3106960950764 L 150.84090484652825,133.3106960950764 L 152.3367636538066,133.3106960950764 L 152.3622684775255,133.3106960950764 L 152.39098156789638,133.3106960950764 L 153.8878261554309,133.3106960950764 L 153.91005101938836,133.3106960950764 L 153.94084320993585,133.3106960950764 L 155.4253565826295,133.3106960950764 L 155.45896272772643,133.3106960950764 L 155.4899162277704,133.3106960950764 L 156.98536279966893,133.3106960950764 L 157.01411173659454,133.3106960950764 L 157.04332667873217,133.3106960950764 L 158.53481220632855,133.3106960950764 L 158.564762002839,133.3106960950764 L 158.59845776432286,133.3106960950764 L 160.07847239439283,133.3106960950764 L 160.10361875256407,133.3106960950764 L 160.13240353604445,133.3106960950764 L 161.62741994928572,133.3106960950764 L 161.6461318508757,133.3106960950764 L 161.679056911432,133.3106960950764 L 163.17708443527397,133.3106960950764 L 163.19968568805652,133.3106960950764 L 163.23042410877184,133.3106960950764 L 164.72732246613856,133.3106960950764 L 164.74995956547588,133.3106960950764 L 164.7768624048308,133.3106960950764 L 166.27329475698548,40 L 166.29625447531575,40 L 166.32572034333677,40 L 167.82335355507624,40 L 167.84717359072096,40 L 167.88038542371544,40 L 169.3630706221158,40 L 169.39640791805198,40 L 169.42904620617014,40 L 170.92114112519766,40 L 170.93865216720283,40 L 170.9685123473263,40 L 172.46691625999335,40 L 172.49141738017872,40 L 172.52364343291703,40 L 174.0091784324216,40 L 174.04133279205035,40 L 174.0700638056986,40 L 175.56463213700522,40 L 175.58992188139553,40 L 175.61768503806496,40 L 177.11099873995465,40 L 177.13580455585554,40 L 177.16087922091722,40 L 177.20061512687985,40 L 178.66516196856654,40 L 178.69132995354872,40 L 178.7185374886192,40 L 180.2126756612686,40 L 180.23877195314122,40 L 180.26728788746084,40 L 181.76045820313146,40 L 181.7844753948274,40 L 181.81188008594916,40 L 183.30447685674343,40 L 183.33333333333334,40" stroke="#3b82f6" stroke-width="2" fill="none" stroke-dasharray="14950" stroke-dashoffset="14950">
      <animate attributeName="stroke-dashoffset" values="14950;0" dur="3s" begin="3.0999999999999996s" fill="freeze"/>
    </path>
    
    <!-- Glow effect for the line that also follows the circle -->
    <path d="M 30,160 L 30.028981939531615,160 L 30.05052571894844,160 L 31.54961071615611,160 L 31.576190936518127,160 L 31.60644542874408,160 L 33.09805641928219,160 L 33.12434986720605,160 L 33.15248941270057,160 L 34.64707566728459,160 L 34.67236541167489,160 L 34.7036236074344,160 L 36.19648922738946,160 L 36.22145635278683,160 L 36.24832334558701,160 L 37.745956557326494,160 L 37.77685628753831,160 L 37.8073079358155,160 L 39.294742802722894,160 L 39.321914491238616,160 L 39.353531152545834,160 L 40.870467734029006,160 L 40.89925251750938,160 L 42.39201059780014,160 L 42.41608155932825,160 L 42.44755483441639,160 L 43.93764234637676,160 L 43.963846177913695,160 L 43.99657408241879,160 L 45.4857833537873,160 L 45.51474737004153,160 L 45.54432077772685,160 L 47.034390366409845,160 L 47.06063004450155,160 L 47.09217501269923,160 L 48.58679711383802,160 L 48.61610167236257,160 L 48.646893862910076,160 L 50.13599559461427,160 L 50.16155418816535,160 L 50.193601008129804,160 L 51.68322251487817,160 L 51.70611054009888,160 L 51.73399915971,160 L 53.23034189547776,160 L 53.258857829797364,160 L 53.28748130378128,160 L 54.776923577755795,160 L 54.80438203870969,160 L 54.83581946724305,160 L 56.32393541869108,160 L 56.34981663123507,160 L 56.38462363591683,160 L 57.868079535244746,160 L 57.89917642150779,160 L 57.93018369138392,160 L 59.42525387445734,160 L 59.454952745084356,160 L 59.488236271188384,160 L 60.976190913139945,160 L 61.00115803853731,160 L 61.0346028741378,160 L 62.5213028866724,160 L 62.55528542059445,160 L 62.59109612880977,160 L 64.07014290190097,160 L 64.09588072822588,160 L 64.12758700592002,160 L 65.62147425268603,160 L 65.64366327008872,160 L 65.6760327090461,160 L 67.16574383218139,160 L 67.19214481976957,160 L 67.22343886208385,160 L 68.71374145337285,160 L 68.74033959701225,160 L 68.771328943611,160 L 70.26688305517382,160 L 70.29409059024431,160 L 70.32995506829178,160 L 71.8131600417363,160 L 71.84644356784034,160 L 71.86822034986315,160 L 73.36045865510974,160 L 73.38673417975622,160 L 73.41931869804222,160 L 74.90374245434893,160 L 74.93901546424269,160 L 74.96935957285558,160 L 76.45924992876472,160 L 76.4863499241709,160 L 76.51836089758058,160 L 78.0092549570233,160 L 78.03581725410794,160 L 78.06474542380738,160 L 79.55773650670415,160 L 79.58494404177465,160 L 79.61351374592641,160 L 81.10551904856698,160 L 81.13756586853144,160 L 81.17054469891991,160 L 82.65369590253229,160 L 82.68334100332714,160 L 82.71676791565025,160 L 84.1935922023457,160 L 84.23323849192141,160 L 84.26573339382051,160 L 85.75074861828091,160 L 85.77915701293621,160 L 85.81003881987064,160 L 87.29962448006424,160 L 87.32624054698103,160 L 87.35800059450733,160 L 88.84606277612319,160 L 88.87411270523077,160 L 88.90576521309276,160 L 90.39556595261499,160 L 90.4181851286749,160 L 90.45356567823299,160 L 91.94707653617391,160 L 91.97801211294049,160 L 92.01434259619998,160 L 93.49778057225052,160 L 93.52439663916729,160 L 93.55630007291268,160 L 95.04403963553561,133.3106960950764 L 95.069938771357,133.3106960950764 L 95.1032581440158,133.3106960950764 L 96.58940253495146,133.3106960950764 L 96.61515828455377,133.3106960950764 L 96.65046714100231,133.3106960950764 L 98.13041007796275,133.3106960950764 L 98.16557554819221,133.3106960950764 L 98.20124287018845,133.3106960950764 L 99.68797872927783,133.3106960950764 L 99.70998851390665,133.3106960950764 L 99.7430031908499,133.3106960950764 L 101.23603012030144,133.3106960950764 L 101.26200094923236,133.3106960950764 L 101.29569671071624,133.3106960950764 L 102.77929599626324,133.3106960950764 L 102.81878097634248,133.3106960950764 L 102.85227958177514,133.3106960950764 L 104.3338893835324,133.3106960950764 L 104.36650974837316,133.3106960950764 L 104.39963196498073,133.3106960950764 L 105.88574050936163,133.3106960950764 L 105.9157440757042,133.3106960950764 L 105.94850782676404,133.3106960950764 L 107.43078078978455,133.3106960950764 L 107.46169844327375,133.3106960950764 L 107.49369149340605,133.3106960950764 L 108.97777470744245,133.3106960950764 L 109.00881782387333,133.3106960950764 L 109.04330220956216,133.3106960950764 L 110.52914190478228,133.3106960950764 L 110.56434322156652,133.3106960950764 L 110.5982719856564,133.3106960950764 L 112.07672729059388,133.3106960950764 L 112.1066591638269,133.3106960950764 L 112.13431478083203,133.3106960950764 L 113.62976135273054,133.3106960950764 L 113.6615572468116,133.3106960950764 L 113.69654348426721,133.3106960950764 L 115.17388754600682,133.3106960950764 L 115.20595228924866,133.3106960950764 L 115.24247992855938,133.3106960950764 L 116.72290679400922,133.3106960950764 L 116.75298205346131,133.3106960950764 L 116.78601465368196,133.3106960950764 L 118.27219489117239,133.3106960950764 L 118.29940242624289,133.3106960950764 L 118.33519521118083,133.3106960950764 L 119.82159052799989,133.3106960950764 L 119.85066208391842,133.3106960950764 L 119.88046849420975,133.3106960950764 L 121.37159555625846,133.3106960950764 L 121.39661645148799,133.3106960950764 L 121.42900381372276,133.3106960950764 L 122.91536328398705,133.3106960950764 L 122.93920124290915,133.3106960950764 L 122.96703609268813,133.3106960950764 L 124.4670889468746,133.3106960950764 L 124.49447571471894,133.3106960950764 L 124.53075242814627,133.3106960950764 L 126.01483564218266,133.3106960950764 L 126.04281387818071,133.3106960950764 L 126.07706526126353,133.3106960950764 L 127.55783266898368,133.3106960950764 L 127.58348087892169,133.3106960950764 L 127.61733794990204,133.3106960950764 L 129.1031059520126,133.3106960950764 L 129.13585177979508,133.3106960950764 L 129.1685438377454,133.3106960950764 L 130.65780687894608,133.3106960950764 L 130.683777707877,133.3106960950764 L 130.7150538269139,133.3106960950764 L 132.20757890459865,133.3106960950764 L 132.23358558008437,133.3106960950764 L 132.26498716206294,133.3106960950764 L 133.75285218762758,133.3106960950764 L 133.78249728842246,133.3106960950764 L 133.81373756090454,133.3106960950764 L 135.30640602480838,133.3106960950764 L 135.33461726341244,133.3106960950764 L 135.36808002229031,133.3106960950764 L 136.85599881768712,133.3106960950764 L 136.88180833712158,133.3106960950764 L 136.91803128071678,133.3106960950764 L 138.4000174712991,133.3106960950764 L 138.42555814157276,133.3106960950764 L 138.45617109934642,133.3106960950764 L 139.9482839416513,133.3106960950764 L 139.9740755378084,133.3106960950764 L 140.005244117181,133.3106960950764 L 141.4985578190707,133.3106960950764 L 141.52002990537795,133.3106960950764 L 141.5508041726481,133.3106960950764 L 143.04700352219675,133.3106960950764 L 143.07206026398106,133.3106960950764 L 143.09283334247033,133.3106960950764 L 144.59349558808788,133.3106960950764 L 144.61736939356473,133.3106960950764 L 144.64757011595856,133.3106960950764 L 146.1381774029631,133.3106960950764 L 146.17407772756533,133.3106960950764 L 146.2066084760192,133.3106960950764 L 147.69334433510858,133.3106960950764 L 147.7200141718575,133.3106960950764 L 147.75125444433965,133.3106960950764 L 149.24223812016925,133.3106960950764 L 149.2683164887645,133.3106960950764 L 149.2934986934905,133.3106960950764 L 150.79249407431124,133.3106960950764 L 150.81486232448776,133.3106960950764 L 150.84090484652825,133.3106960950764 L 152.3367636538066,133.3106960950764 L 152.3622684775255,133.3106960950764 L 152.39098156789638,133.3106960950764 L 153.8878261554309,133.3106960950764 L 153.91005101938836,133.3106960950764 L 153.94084320993585,133.3106960950764 L 155.4253565826295,133.3106960950764 L 155.45896272772643,133.3106960950764 L 155.4899162277704,133.3106960950764 L 156.98536279966893,133.3106960950764 L 157.01411173659454,133.3106960950764 L 157.04332667873217,133.3106960950764 L 158.53481220632855,133.3106960950764 L 158.564762002839,133.3106960950764 L 158.59845776432286,133.3106960950764 L 160.07847239439283,133.3106960950764 L 160.10361875256407,133.3106960950764 L 160.13240353604445,133.3106960950764 L 161.62741994928572,133.3106960950764 L 161.6461318508757,133.3106960950764 L 161.679056911432,133.3106960950764 L 163.17708443527397,133.3106960950764 L 163.19968568805652,133.3106960950764 L 163.23042410877184,133.3106960950764 L 164.72732246613856,133.3106960950764 L 164.74995956547588,133.3106960950764 L 164.7768624048308,133.3106960950764 L 166.27329475698548,40 L 166.29625447531575,40 L 166.32572034333677,40 L 167.82335355507624,40 L 167.84717359072096,40 L 167.88038542371544,40 L 169.3630706221158,40 L 169.39640791805198,40 L 169.42904620617014,40 L 170.92114112519766,40 L 170.93865216720283,40 L 170.9685123473263,40 L 172.46691625999335,40 L 172.49141738017872,40 L 172.52364343291703,40 L 174.0091784324216,40 L 174.04133279205035,40 L 174.0700638056986,40 L 175.56463213700522,40 L 175.58992188139553,40 L 175.61768503806496,40 L 177.11099873995465,40 L 177.13580455585554,40 L 177.16087922091722,40 L 177.20061512687985,40 L 178.66516196856654,40 L 178.69132995354872,40 L 178.7185374886192,40 L 180.2126756612686,40 L 180.23877195314122,40 L 180.26728788746084,40 L 181.76045820313146,40 L 181.7844753948274,40 L 181.81188008594916,40 L 183.30447685674343,40 L 183.33333333333334,40" stroke="#3b82f6" stroke-width="4" fill="none" opacity="0.4" stroke-dasharray="14950" stroke-dashoffset="14950">
      <animate attributeName="stroke-dashoffset" values="14950;0" dur="3s" begin="3.0999999999999996s" fill="freeze"/>
    </path>
    
    <!-- Animated circle that moves along the path and draws the line -->
    <circle r="5" fill="#3b82f6" opacity="0" filter="url(#trailGlow)">
      <animate attributeName="opacity" values="0;1;1;1" dur="3.2s" begin="2.9s" fill="freeze"/>
      <animate attributeName="r" values="5;6;5" dur="1s" begin="2.9s" repeatCount="3"/>
      <animateMotion dur="3s" begin="2.9s" fill="freeze">
        <mpath href="#path_publicContributions_293.33333333333337"/>
      </animateMotion>
    </circle>
    
    <!-- Small trail dots that fade out -->
    <circle r="2" fill="#3b82f6" opacity="0">
      <animate attributeName="opacity" values="0;0.6;0" dur="0.8s" begin="3.3s" fill="freeze"/>
      <animateMotion dur="3s" begin="2.9s" fill="freeze">
        <mpath href="#path_publicContributions_293.33333333333337"/>
      </animateMotion>
    </circle>
    
    <!-- Hidden path for motion animation -->
    <path id="path_publicContributions_293.33333333333337" d="M 30,160 L 30.028981939531615,160 L 30.05052571894844,160 L 31.54961071615611,160 L 31.576190936518127,160 L 31.60644542874408,160 L 33.09805641928219,160 L 33.12434986720605,160 L 33.15248941270057,160 L 34.64707566728459,160 L 34.67236541167489,160 L 34.7036236074344,160 L 36.19648922738946,160 L 36.22145635278683,160 L 36.24832334558701,160 L 37.745956557326494,160 L 37.77685628753831,160 L 37.8073079358155,160 L 39.294742802722894,160 L 39.321914491238616,160 L 39.353531152545834,160 L 40.870467734029006,160 L 40.89925251750938,160 L 42.39201059780014,160 L 42.41608155932825,160 L 42.44755483441639,160 L 43.93764234637676,160 L 43.963846177913695,160 L 43.99657408241879,160 L 45.4857833537873,160 L 45.51474737004153,160 L 45.54432077772685,160 L 47.034390366409845,160 L 47.06063004450155,160 L 47.09217501269923,160 L 48.58679711383802,160 L 48.61610167236257,160 L 48.646893862910076,160 L 50.13599559461427,160 L 50.16155418816535,160 L 50.193601008129804,160 L 51.68322251487817,160 L 51.70611054009888,160 L 51.73399915971,160 L 53.23034189547776,160 L 53.258857829797364,160 L 53.28748130378128,160 L 54.776923577755795,160 L 54.80438203870969,160 L 54.83581946724305,160 L 56.32393541869108,160 L 56.34981663123507,160 L 56.38462363591683,160 L 57.868079535244746,160 L 57.89917642150779,160 L 57.93018369138392,160 L 59.42525387445734,160 L 59.454952745084356,160 L 59.488236271188384,160 L 60.976190913139945,160 L 61.00115803853731,160 L 61.0346028741378,160 L 62.5213028866724,160 L 62.55528542059445,160 L 62.59109612880977,160 L 64.07014290190097,160 L 64.09588072822588,160 L 64.12758700592002,160 L 65.62147425268603,160 L 65.64366327008872,160 L 65.6760327090461,160 L 67.16574383218139,160 L 67.19214481976957,160 L 67.22343886208385,160 L 68.71374145337285,160 L 68.74033959701225,160 L 68.771328943611,160 L 70.26688305517382,160 L 70.29409059024431,160 L 70.32995506829178,160 L 71.8131600417363,160 L 71.84644356784034,160 L 71.86822034986315,160 L 73.36045865510974,160 L 73.38673417975622,160 L 73.41931869804222,160 L 74.90374245434893,160 L 74.93901546424269,160 L 74.96935957285558,160 L 76.45924992876472,160 L 76.4863499241709,160 L 76.51836089758058,160 L 78.0092549570233,160 L 78.03581725410794,160 L 78.06474542380738,160 L 79.55773650670415,160 L 79.58494404177465,160 L 79.61351374592641,160 L 81.10551904856698,160 L 81.13756586853144,160 L 81.17054469891991,160 L 82.65369590253229,160 L 82.68334100332714,160 L 82.71676791565025,160 L 84.1935922023457,160 L 84.23323849192141,160 L 84.26573339382051,160 L 85.75074861828091,160 L 85.77915701293621,160 L 85.81003881987064,160 L 87.29962448006424,160 L 87.32624054698103,160 L 87.35800059450733,160 L 88.84606277612319,160 L 88.87411270523077,160 L 88.90576521309276,160 L 90.39556595261499,160 L 90.4181851286749,160 L 90.45356567823299,160 L 91.94707653617391,160 L 91.97801211294049,160 L 92.01434259619998,160 L 93.49778057225052,160 L 93.52439663916729,160 L 93.55630007291268,160 L 95.04403963553561,133.3106960950764 L 95.069938771357,133.3106960950764 L 95.1032581440158,133.3106960950764 L 96.58940253495146,133.3106960950764 L 96.61515828455377,133.3106960950764 L 96.65046714100231,133.3106960950764 L 98.13041007796275,133.3106960950764 L 98.16557554819221,133.3106960950764 L 98.20124287018845,133.3106960950764 L 99.68797872927783,133.3106960950764 L 99.70998851390665,133.3106960950764 L 99.7430031908499,133.3106960950764 L 101.23603012030144,133.3106960950764 L 101.26200094923236,133.3106960950764 L 101.29569671071624,133.3106960950764 L 102.77929599626324,133.3106960950764 L 102.81878097634248,133.3106960950764 L 102.85227958177514,133.3106960950764 L 104.3338893835324,133.3106960950764 L 104.36650974837316,133.3106960950764 L 104.39963196498073,133.3106960950764 L 105.88574050936163,133.3106960950764 L 105.9157440757042,133.3106960950764 L 105.94850782676404,133.3106960950764 L 107.43078078978455,133.3106960950764 L 107.46169844327375,133.3106960950764 L 107.49369149340605,133.3106960950764 L 108.97777470744245,133.3106960950764 L 109.00881782387333,133.3106960950764 L 109.04330220956216,133.3106960950764 L 110.52914190478228,133.3106960950764 L 110.56434322156652,133.3106960950764 L 110.5982719856564,133.3106960950764 L 112.07672729059388,133.3106960950764 L 112.1066591638269,133.3106960950764 L 112.13431478083203,133.3106960950764 L 113.62976135273054,133.3106960950764 L 113.6615572468116,133.3106960950764 L 113.69654348426721,133.3106960950764 L 115.17388754600682,133.3106960950764 L 115.20595228924866,133.3106960950764 L 115.24247992855938,133.3106960950764 L 116.72290679400922,133.3106960950764 L 116.75298205346131,133.3106960950764 L 116.78601465368196,133.3106960950764 L 118.27219489117239,133.3106960950764 L 118.29940242624289,133.3106960950764 L 118.33519521118083,133.3106960950764 L 119.82159052799989,133.3106960950764 L 119.85066208391842,133.3106960950764 L 119.88046849420975,133.3106960950764 L 121.37159555625846,133.3106960950764 L 121.39661645148799,133.3106960950764 L 121.42900381372276,133.3106960950764 L 122.91536328398705,133.3106960950764 L 122.93920124290915,133.3106960950764 L 122.96703609268813,133.3106960950764 L 124.4670889468746,133.3106960950764 L 124.49447571471894,133.3106960950764 L 124.53075242814627,133.3106960950764 L 126.01483564218266,133.3106960950764 L 126.04281387818071,133.3106960950764 L 126.07706526126353,133.3106960950764 L 127.55783266898368,133.3106960950764 L 127.58348087892169,133.3106960950764 L 127.61733794990204,133.3106960950764 L 129.1031059520126,133.3106960950764 L 129.13585177979508,133.3106960950764 L 129.1685438377454,133.3106960950764 L 130.65780687894608,133.3106960950764 L 130.683777707877,133.3106960950764 L 130.7150538269139,133.3106960950764 L 132.20757890459865,133.3106960950764 L 132.23358558008437,133.3106960950764 L 132.26498716206294,133.3106960950764 L 133.75285218762758,133.3106960950764 L 133.78249728842246,133.3106960950764 L 133.81373756090454,133.3106960950764 L 135.30640602480838,133.3106960950764 L 135.33461726341244,133.3106960950764 L 135.36808002229031,133.3106960950764 L 136.85599881768712,133.3106960950764 L 136.88180833712158,133.3106960950764 L 136.91803128071678,133.3106960950764 L 138.4000174712991,133.3106960950764 L 138.42555814157276,133.3106960950764 L 138.45617109934642,133.3106960950764 L 139.9482839416513,133.3106960950764 L 139.9740755378084,133.3106960950764 L 140.005244117181,133.3106960950764 L 141.4985578190707,133.3106960950764 L 141.52002990537795,133.3106960950764 L 141.5508041726481,133.3106960950764 L 143.04700352219675,133.3106960950764 L 143.07206026398106,133.3106960950764 L 143.09283334247033,133.3106960950764 L 144.59349558808788,133.3106960950764 L 144.61736939356473,133.3106960950764 L 144.64757011595856,133.3106960950764 L 146.1381774029631,133.3106960950764 L 146.17407772756533,133.3106960950764 L 146.2066084760192,133.3106960950764 L 147.69334433510858,133.3106960950764 L 147.7200141718575,133.3106960950764 L 147.75125444433965,133.3106960950764 L 149.24223812016925,133.3106960950764 L 149.2683164887645,133.3106960950764 L 149.2934986934905,133.3106960950764 L 150.79249407431124,133.3106960950764 L 150.81486232448776,133.3106960950764 L 150.84090484652825,133.3106960950764 L 152.3367636538066,133.3106960950764 L 152.3622684775255,133.3106960950764 L 152.39098156789638,133.3106960950764 L 153.8878261554309,133.3106960950764 L 153.91005101938836,133.3106960950764 L 153.94084320993585,133.3106960950764 L 155.4253565826295,133.3106960950764 L 155.45896272772643,133.3106960950764 L 155.4899162277704,133.3106960950764 L 156.98536279966893,133.3106960950764 L 157.01411173659454,133.3106960950764 L 157.04332667873217,133.3106960950764 L 158.53481220632855,133.3106960950764 L 158.564762002839,133.3106960950764 L 158.59845776432286,133.3106960950764 L 160.07847239439283,133.3106960950764 L 160.10361875256407,133.3106960950764 L 160.13240353604445,133.3106960950764 L 161.62741994928572,133.3106960950764 L 161.6461318508757,133.3106960950764 L 161.679056911432,133.3106960950764 L 163.17708443527397,133.3106960950764 L 163.19968568805652,133.3106960950764 L 163.23042410877184,133.3106960950764 L 164.72732246613856,133.3106960950764 L 164.74995956547588,133.3106960950764 L 164.7768624048308,133.3106960950764 L 166.27329475698548,40 L 166.29625447531575,40 L 166.32572034333677,40 L 167.82335355507624,40 L 167.84717359072096,40 L 167.88038542371544,40 L 169.3630706221158,40 L 169.39640791805198,40 L 169.42904620617014,40 L 170.92114112519766,40 L 170.93865216720283,40 L 170.9685123473263,40 L 172.46691625999335,40 L 172.49141738017872,40 L 172.52364343291703,40 L 174.0091784324216,40 L 174.04133279205035,40 L 174.0700638056986,40 L 175.56463213700522,40 L 175.58992188139553,40 L 175.61768503806496,40 L 177.11099873995465,40 L 177.13580455585554,40 L 177.16087922091722,40 L 177.20061512687985,40 L 178.66516196856654,40 L 178.69132995354872,40 L 178.7185374886192,40 L 180.2126756612686,40 L 180.23877195314122,40 L 180.26728788746084,40 L 181.76045820313146,40 L 181.7844753948274,40 L 181.81188008594916,40 L 183.30447685674343,40 L 183.33333333333334,40" fill="none" stroke="none"/>
  </g>
  <!-- 📊 Total Contributions Chart -->
  <g transform="translate(526.6666666666667, 250)">
    <!-- Chart Background -->
    <rect x="0" y="0" width="213.33333333333334" height="200" fill="#0f172a" stroke="#334155" stroke-width="1" rx="8" filter="url(#shadow)">
      <animate attributeName="opacity" values="0;1" dur="0.5s" begin="2.8s" fill="freeze"/>
    </rect>
    
    <!-- Chart Title -->
    <text x="106.66666666666667" y="25" text-anchor="middle" fill="#f8fafc" font-size="14" font-weight="bold" font-family="Arial, sans-serif">
      📊 Total Contributions
      <animate attributeName="opacity" values="0;1" dur="0.5s" begin="3s" fill="freeze"/>
    </text>
    
    <!-- Y-axis labels -->
    <text x="10" y="45" fill="#94a3b8" font-size="10" font-family="Arial, sans-serif">3,802
      <animate attributeName="opacity" values="0;1" dur="0.5s" begin="3.1999999999999997s" fill="freeze"/>
    </text>
    <text x="10" y="185" fill="#94a3b8" font-size="10" font-family="Arial, sans-serif">2,320
      <animate attributeName="opacity" values="0;1" dur="0.5s" begin="3.1999999999999997s" fill="freeze"/>
    </text>
    
    <!-- Chart Line with draw animation that follows the circle -->
    <path d="M 30,160 L 30.028981939531615,160 L 30.05052571894844,160 L 31.54961071615611,160 L 31.576190936518127,160 L 31.60644542874408,160 L 33.09805641928219,160 L 33.12434986720605,160 L 33.15248941270057,160 L 34.64707566728459,160 L 34.67236541167489,160 L 34.7036236074344,160 L 36.19648922738946,160 L 36.22145635278683,160 L 36.24832334558701,160 L 37.745956557326494,160 L 37.77685628753831,160 L 37.8073079358155,160 L 39.294742802722894,160 L 39.321914491238616,160 L 39.353531152545834,160 L 40.870467734029006,160 L 40.89925251750938,160 L 42.39201059780014,160 L 42.41608155932825,160 L 42.44755483441639,160 L 43.93764234637676,160 L 43.963846177913695,160 L 43.99657408241879,160 L 45.4857833537873,160 L 45.51474737004153,160 L 45.54432077772685,160 L 47.034390366409845,160 L 47.06063004450155,160 L 47.09217501269923,160 L 48.58679711383802,160 L 48.61610167236257,160 L 48.646893862910076,160 L 50.13599559461427,160 L 50.16155418816535,160 L 50.193601008129804,160 L 51.68322251487817,160 L 51.70611054009888,160 L 51.73399915971,160 L 53.23034189547776,160 L 53.258857829797364,160 L 53.28748130378128,160 L 54.776923577755795,160 L 54.80438203870969,160 L 54.83581946724305,160 L 56.32393541869108,160 L 56.34981663123507,160 L 56.38462363591683,160 L 57.868079535244746,160 L 57.89917642150779,160 L 57.93018369138392,160 L 59.42525387445734,160 L 59.454952745084356,160 L 59.488236271188384,160 L 60.976190913139945,160 L 61.00115803853731,160 L 61.0346028741378,160 L 62.5213028866724,160 L 62.55528542059445,160 L 62.59109612880977,160 L 64.07014290190097,160 L 64.09588072822588,160 L 64.12758700592002,160 L 65.62147425268603,160 L 65.64366327008872,160 L 65.6760327090461,160 L 67.16574383218139,160 L 67.19214481976957,160 L 67.22343886208385,160 L 68.71374145337285,160 L 68.74033959701225,160 L 68.771328943611,160 L 70.26688305517382,160 L 70.29409059024431,160 L 70.32995506829178,160 L 71.8131600417363,160 L 71.84644356784034,160 L 71.86822034986315,160 L 73.36045865510974,160 L 73.38673417975622,160 L 73.41931869804222,160 L 74.90374245434893,160 L 74.93901546424269,160 L 74.96935957285558,160 L 76.45924992876472,160 L 76.4863499241709,160 L 76.51836089758058,160 L 78.0092549570233,160 L 78.03581725410794,160 L 78.06474542380738,160 L 79.55773650670415,160 L 79.58494404177465,160 L 79.61351374592641,160 L 81.10551904856698,160 L 81.13756586853144,160 L 81.17054469891991,160 L 82.65369590253229,160 L 82.68334100332714,160 L 82.71676791565025,160 L 84.1935922023457,160 L 84.23323849192141,160 L 84.26573339382051,160 L 85.75074861828091,160 L 85.77915701293621,160 L 85.81003881987064,160 L 87.29962448006424,160 L 87.32624054698103,160 L 87.35800059450733,160 L 88.84606277612319,160 L 88.87411270523077,160 L 88.90576521309276,160 L 90.39556595261499,160 L 90.4181851286749,160 L 90.45356567823299,160 L 91.94707653617391,160 L 91.97801211294049,160 L 92.01434259619998,160 L 93.49778057225052,160 L 93.52439663916729,160 L 93.55630007291268,160 L 95.04403963553561,137.48987854251013 L 95.069938771357,137.48987854251013 L 95.1032581440158,137.48987854251013 L 96.58940253495146,137.48987854251013 L 96.61515828455377,137.48987854251013 L 96.65046714100231,137.48987854251013 L 98.13041007796275,137.48987854251013 L 98.16557554819221,137.48987854251013 L 98.20124287018845,137.48987854251013 L 99.68797872927783,137.48987854251013 L 99.70998851390665,137.48987854251013 L 99.7430031908499,137.48987854251013 L 101.23603012030144,137.48987854251013 L 101.26200094923236,137.48987854251013 L 101.29569671071624,137.48987854251013 L 102.77929599626324,137.48987854251013 L 102.81878097634248,137.48987854251013 L 102.85227958177514,137.48987854251013 L 104.3338893835324,137.48987854251013 L 104.36650974837316,137.48987854251013 L 104.39963196498073,137.48987854251013 L 105.88574050936163,137.48987854251013 L 105.9157440757042,137.48987854251013 L 105.94850782676404,137.48987854251013 L 107.43078078978455,137.48987854251013 L 107.46169844327375,137.48987854251013 L 107.49369149340605,137.48987854251013 L 108.97777470744245,137.48987854251013 L 109.00881782387333,137.48987854251013 L 109.04330220956216,137.48987854251013 L 110.52914190478228,137.48987854251013 L 110.56434322156652,137.48987854251013 L 110.5982719856564,137.48987854251013 L 112.07672729059388,137.48987854251013 L 112.1066591638269,137.48987854251013 L 112.13431478083203,137.48987854251013 L 113.62976135273054,137.48987854251013 L 113.6615572468116,137.48987854251013 L 113.69654348426721,137.48987854251013 L 115.17388754600682,137.48987854251013 L 115.20595228924866,137.48987854251013 L 115.24247992855938,137.48987854251013 L 116.72290679400922,137.48987854251013 L 116.75298205346131,137.48987854251013 L 116.78601465368196,137.48987854251013 L 118.27219489117239,137.48987854251013 L 118.29940242624289,137.48987854251013 L 118.33519521118083,137.48987854251013 L 119.82159052799989,137.48987854251013 L 119.85066208391842,137.48987854251013 L 119.88046849420975,137.48987854251013 L 121.37159555625846,137.48987854251013 L 121.39661645148799,137.48987854251013 L 121.42900381372276,137.48987854251013 L 122.91536328398705,137.48987854251013 L 122.93920124290915,137.48987854251013 L 122.96703609268813,137.48987854251013 L 124.4670889468746,137.48987854251013 L 124.49447571471894,137.48987854251013 L 124.53075242814627,137.48987854251013 L 126.01483564218266,137.48987854251013 L 126.04281387818071,137.48987854251013 L 126.07706526126353,137.48987854251013 L 127.55783266898368,137.48987854251013 L 127.58348087892169,137.48987854251013 L 127.61733794990204,137.48987854251013 L 129.1031059520126,137.48987854251013 L 129.13585177979508,137.48987854251013 L 129.1685438377454,137.48987854251013 L 130.65780687894608,137.48987854251013 L 130.683777707877,137.48987854251013 L 130.7150538269139,137.48987854251013 L 132.20757890459865,137.48987854251013 L 132.23358558008437,137.48987854251013 L 132.26498716206294,137.48987854251013 L 133.75285218762758,137.48987854251013 L 133.78249728842246,137.48987854251013 L 133.81373756090454,137.48987854251013 L 135.30640602480838,137.48987854251013 L 135.33461726341244,137.48987854251013 L 135.36808002229031,137.48987854251013 L 136.85599881768712,137.48987854251013 L 136.88180833712158,137.48987854251013 L 136.91803128071678,137.48987854251013 L 138.4000174712991,137.48987854251013 L 138.42555814157276,137.48987854251013 L 138.45617109934642,137.48987854251013 L 139.9482839416513,137.48987854251013 L 139.9740755378084,137.48987854251013 L 140.005244117181,137.48987854251013 L 141.4985578190707,137.48987854251013 L 141.52002990537795,137.48987854251013 L 141.5508041726481,137.48987854251013 L 143.04700352219675,137.48987854251013 L 143.07206026398106,137.48987854251013 L 143.09283334247033,137.48987854251013 L 144.59349558808788,137.48987854251013 L 144.61736939356473,137.48987854251013 L 144.64757011595856,137.48987854251013 L 146.1381774029631,137.48987854251013 L 146.17407772756533,137.48987854251013 L 146.2066084760192,137.48987854251013 L 147.69334433510858,137.48987854251013 L 147.7200141718575,137.48987854251013 L 147.75125444433965,137.48987854251013 L 149.24223812016925,137.48987854251013 L 149.2683164887645,137.48987854251013 L 149.2934986934905,137.48987854251013 L 150.79249407431124,137.48987854251013 L 150.81486232448776,137.48987854251013 L 150.84090484652825,137.48987854251013 L 152.3367636538066,137.48987854251013 L 152.3622684775255,137.48987854251013 L 152.39098156789638,137.48987854251013 L 153.8878261554309,137.48987854251013 L 153.91005101938836,137.48987854251013 L 153.94084320993585,137.48987854251013 L 155.4253565826295,137.48987854251013 L 155.45896272772643,137.48987854251013 L 155.4899162277704,137.48987854251013 L 156.98536279966893,137.48987854251013 L 157.01411173659454,137.48987854251013 L 157.04332667873217,137.48987854251013 L 158.53481220632855,137.48987854251013 L 158.564762002839,137.48987854251013 L 158.59845776432286,137.48987854251013 L 160.07847239439283,137.48987854251013 L 160.10361875256407,137.48987854251013 L 160.13240353604445,137.48987854251013 L 161.62741994928572,137.48987854251013 L 161.6461318508757,137.48987854251013 L 161.679056911432,137.48987854251013 L 163.17708443527397,137.48987854251013 L 163.19968568805652,137.48987854251013 L 163.23042410877184,137.48987854251013 L 164.72732246613856,137.48987854251013 L 164.74995956547588,137.48987854251013 L 164.7768624048308,137.48987854251013 L 166.27329475698548,40 L 166.29625447531575,40 L 166.32572034333677,40 L 167.82335355507624,40 L 167.84717359072096,40 L 167.88038542371544,40 L 169.3630706221158,40 L 169.39640791805198,40 L 169.42904620617014,40 L 170.92114112519766,40 L 170.93865216720283,40 L 170.9685123473263,40 L 172.46691625999335,40 L 172.49141738017872,40 L 172.52364343291703,40 L 174.0091784324216,40 L 174.04133279205035,40 L 174.0700638056986,40 L 175.56463213700522,40 L 175.58992188139553,40 L 175.61768503806496,40 L 177.11099873995465,40 L 177.13580455585554,40 L 177.16087922091722,40 L 177.20061512687985,40 L 178.66516196856654,40 L 178.69132995354872,40 L 178.7185374886192,40 L 180.2126756612686,40 L 180.23877195314122,40 L 180.26728788746084,40 L 181.76045820313146,40 L 181.7844753948274,40 L 181.81188008594916,40 L 183.30447685674343,40 L 183.33333333333334,40" stroke="#f59e0b" stroke-width="2" fill="none" stroke-dasharray="14950" stroke-dashoffset="14950">
      <animate attributeName="stroke-dashoffset" values="14950;0" dur="3s" begin="3.5999999999999996s" fill="freeze"/>
    </path>
    
    <!-- Glow effect for the line that also follows the circle -->
    <path d="M 30,160 L 30.028981939531615,160 L 30.05052571894844,160 L 31.54961071615611,160 L 31.576190936518127,160 L 31.60644542874408,160 L 33.09805641928219,160 L 33.12434986720605,160 L 33.15248941270057,160 L 34.64707566728459,160 L 34.67236541167489,160 L 34.7036236074344,160 L 36.19648922738946,160 L 36.22145635278683,160 L 36.24832334558701,160 L 37.745956557326494,160 L 37.77685628753831,160 L 37.8073079358155,160 L 39.294742802722894,160 L 39.321914491238616,160 L 39.353531152545834,160 L 40.870467734029006,160 L 40.89925251750938,160 L 42.39201059780014,160 L 42.41608155932825,160 L 42.44755483441639,160 L 43.93764234637676,160 L 43.963846177913695,160 L 43.99657408241879,160 L 45.4857833537873,160 L 45.51474737004153,160 L 45.54432077772685,160 L 47.034390366409845,160 L 47.06063004450155,160 L 47.09217501269923,160 L 48.58679711383802,160 L 48.61610167236257,160 L 48.646893862910076,160 L 50.13599559461427,160 L 50.16155418816535,160 L 50.193601008129804,160 L 51.68322251487817,160 L 51.70611054009888,160 L 51.73399915971,160 L 53.23034189547776,160 L 53.258857829797364,160 L 53.28748130378128,160 L 54.776923577755795,160 L 54.80438203870969,160 L 54.83581946724305,160 L 56.32393541869108,160 L 56.34981663123507,160 L 56.38462363591683,160 L 57.868079535244746,160 L 57.89917642150779,160 L 57.93018369138392,160 L 59.42525387445734,160 L 59.454952745084356,160 L 59.488236271188384,160 L 60.976190913139945,160 L 61.00115803853731,160 L 61.0346028741378,160 L 62.5213028866724,160 L 62.55528542059445,160 L 62.59109612880977,160 L 64.07014290190097,160 L 64.09588072822588,160 L 64.12758700592002,160 L 65.62147425268603,160 L 65.64366327008872,160 L 65.6760327090461,160 L 67.16574383218139,160 L 67.19214481976957,160 L 67.22343886208385,160 L 68.71374145337285,160 L 68.74033959701225,160 L 68.771328943611,160 L 70.26688305517382,160 L 70.29409059024431,160 L 70.32995506829178,160 L 71.8131600417363,160 L 71.84644356784034,160 L 71.86822034986315,160 L 73.36045865510974,160 L 73.38673417975622,160 L 73.41931869804222,160 L 74.90374245434893,160 L 74.93901546424269,160 L 74.96935957285558,160 L 76.45924992876472,160 L 76.4863499241709,160 L 76.51836089758058,160 L 78.0092549570233,160 L 78.03581725410794,160 L 78.06474542380738,160 L 79.55773650670415,160 L 79.58494404177465,160 L 79.61351374592641,160 L 81.10551904856698,160 L 81.13756586853144,160 L 81.17054469891991,160 L 82.65369590253229,160 L 82.68334100332714,160 L 82.71676791565025,160 L 84.1935922023457,160 L 84.23323849192141,160 L 84.26573339382051,160 L 85.75074861828091,160 L 85.77915701293621,160 L 85.81003881987064,160 L 87.29962448006424,160 L 87.32624054698103,160 L 87.35800059450733,160 L 88.84606277612319,160 L 88.87411270523077,160 L 88.90576521309276,160 L 90.39556595261499,160 L 90.4181851286749,160 L 90.45356567823299,160 L 91.94707653617391,160 L 91.97801211294049,160 L 92.01434259619998,160 L 93.49778057225052,160 L 93.52439663916729,160 L 93.55630007291268,160 L 95.04403963553561,137.48987854251013 L 95.069938771357,137.48987854251013 L 95.1032581440158,137.48987854251013 L 96.58940253495146,137.48987854251013 L 96.61515828455377,137.48987854251013 L 96.65046714100231,137.48987854251013 L 98.13041007796275,137.48987854251013 L 98.16557554819221,137.48987854251013 L 98.20124287018845,137.48987854251013 L 99.68797872927783,137.48987854251013 L 99.70998851390665,137.48987854251013 L 99.7430031908499,137.48987854251013 L 101.23603012030144,137.48987854251013 L 101.26200094923236,137.48987854251013 L 101.29569671071624,137.48987854251013 L 102.77929599626324,137.48987854251013 L 102.81878097634248,137.48987854251013 L 102.85227958177514,137.48987854251013 L 104.3338893835324,137.48987854251013 L 104.36650974837316,137.48987854251013 L 104.39963196498073,137.48987854251013 L 105.88574050936163,137.48987854251013 L 105.9157440757042,137.48987854251013 L 105.94850782676404,137.48987854251013 L 107.43078078978455,137.48987854251013 L 107.46169844327375,137.48987854251013 L 107.49369149340605,137.48987854251013 L 108.97777470744245,137.48987854251013 L 109.00881782387333,137.48987854251013 L 109.04330220956216,137.48987854251013 L 110.52914190478228,137.48987854251013 L 110.56434322156652,137.48987854251013 L 110.5982719856564,137.48987854251013 L 112.07672729059388,137.48987854251013 L 112.1066591638269,137.48987854251013 L 112.13431478083203,137.48987854251013 L 113.62976135273054,137.48987854251013 L 113.6615572468116,137.48987854251013 L 113.69654348426721,137.48987854251013 L 115.17388754600682,137.48987854251013 L 115.20595228924866,137.48987854251013 L 115.24247992855938,137.48987854251013 L 116.72290679400922,137.48987854251013 L 116.75298205346131,137.48987854251013 L 116.78601465368196,137.48987854251013 L 118.27219489117239,137.48987854251013 L 118.29940242624289,137.48987854251013 L 118.33519521118083,137.48987854251013 L 119.82159052799989,137.48987854251013 L 119.85066208391842,137.48987854251013 L 119.88046849420975,137.48987854251013 L 121.37159555625846,137.48987854251013 L 121.39661645148799,137.48987854251013 L 121.42900381372276,137.48987854251013 L 122.91536328398705,137.48987854251013 L 122.93920124290915,137.48987854251013 L 122.96703609268813,137.48987854251013 L 124.4670889468746,137.48987854251013 L 124.49447571471894,137.48987854251013 L 124.53075242814627,137.48987854251013 L 126.01483564218266,137.48987854251013 L 126.04281387818071,137.48987854251013 L 126.07706526126353,137.48987854251013 L 127.55783266898368,137.48987854251013 L 127.58348087892169,137.48987854251013 L 127.61733794990204,137.48987854251013 L 129.1031059520126,137.48987854251013 L 129.13585177979508,137.48987854251013 L 129.1685438377454,137.48987854251013 L 130.65780687894608,137.48987854251013 L 130.683777707877,137.48987854251013 L 130.7150538269139,137.48987854251013 L 132.20757890459865,137.48987854251013 L 132.23358558008437,137.48987854251013 L 132.26498716206294,137.48987854251013 L 133.75285218762758,137.48987854251013 L 133.78249728842246,137.48987854251013 L 133.81373756090454,137.48987854251013 L 135.30640602480838,137.48987854251013 L 135.33461726341244,137.48987854251013 L 135.36808002229031,137.48987854251013 L 136.85599881768712,137.48987854251013 L 136.88180833712158,137.48987854251013 L 136.91803128071678,137.48987854251013 L 138.4000174712991,137.48987854251013 L 138.42555814157276,137.48987854251013 L 138.45617109934642,137.48987854251013 L 139.9482839416513,137.48987854251013 L 139.9740755378084,137.48987854251013 L 140.005244117181,137.48987854251013 L 141.4985578190707,137.48987854251013 L 141.52002990537795,137.48987854251013 L 141.5508041726481,137.48987854251013 L 143.04700352219675,137.48987854251013 L 143.07206026398106,137.48987854251013 L 143.09283334247033,137.48987854251013 L 144.59349558808788,137.48987854251013 L 144.61736939356473,137.48987854251013 L 144.64757011595856,137.48987854251013 L 146.1381774029631,137.48987854251013 L 146.17407772756533,137.48987854251013 L 146.2066084760192,137.48987854251013 L 147.69334433510858,137.48987854251013 L 147.7200141718575,137.48987854251013 L 147.75125444433965,137.48987854251013 L 149.24223812016925,137.48987854251013 L 149.2683164887645,137.48987854251013 L 149.2934986934905,137.48987854251013 L 150.79249407431124,137.48987854251013 L 150.81486232448776,137.48987854251013 L 150.84090484652825,137.48987854251013 L 152.3367636538066,137.48987854251013 L 152.3622684775255,137.48987854251013 L 152.39098156789638,137.48987854251013 L 153.8878261554309,137.48987854251013 L 153.91005101938836,137.48987854251013 L 153.94084320993585,137.48987854251013 L 155.4253565826295,137.48987854251013 L 155.45896272772643,137.48987854251013 L 155.4899162277704,137.48987854251013 L 156.98536279966893,137.48987854251013 L 157.01411173659454,137.48987854251013 L 157.04332667873217,137.48987854251013 L 158.53481220632855,137.48987854251013 L 158.564762002839,137.48987854251013 L 158.59845776432286,137.48987854251013 L 160.07847239439283,137.48987854251013 L 160.10361875256407,137.48987854251013 L 160.13240353604445,137.48987854251013 L 161.62741994928572,137.48987854251013 L 161.6461318508757,137.48987854251013 L 161.679056911432,137.48987854251013 L 163.17708443527397,137.48987854251013 L 163.19968568805652,137.48987854251013 L 163.23042410877184,137.48987854251013 L 164.72732246613856,137.48987854251013 L 164.74995956547588,137.48987854251013 L 164.7768624048308,137.48987854251013 L 166.27329475698548,40 L 166.29625447531575,40 L 166.32572034333677,40 L 167.82335355507624,40 L 167.84717359072096,40 L 167.88038542371544,40 L 169.3630706221158,40 L 169.39640791805198,40 L 169.42904620617014,40 L 170.92114112519766,40 L 170.93865216720283,40 L 170.9685123473263,40 L 172.46691625999335,40 L 172.49141738017872,40 L 172.52364343291703,40 L 174.0091784324216,40 L 174.04133279205035,40 L 174.0700638056986,40 L 175.56463213700522,40 L 175.58992188139553,40 L 175.61768503806496,40 L 177.11099873995465,40 L 177.13580455585554,40 L 177.16087922091722,40 L 177.20061512687985,40 L 178.66516196856654,40 L 178.69132995354872,40 L 178.7185374886192,40 L 180.2126756612686,40 L 180.23877195314122,40 L 180.26728788746084,40 L 181.76045820313146,40 L 181.7844753948274,40 L 181.81188008594916,40 L 183.30447685674343,40 L 183.33333333333334,40" stroke="#f59e0b" stroke-width="4" fill="none" opacity="0.4" stroke-dasharray="14950" stroke-dashoffset="14950">
      <animate attributeName="stroke-dashoffset" values="14950;0" dur="3s" begin="3.5999999999999996s" fill="freeze"/>
    </path>
    
    <!-- Animated circle that moves along the path and draws the line -->
    <circle r="5" fill="#f59e0b" opacity="0" filter="url(#trailGlow)">
      <animate attributeName="opacity" values="0;1;1;1" dur="3.2s" begin="3.4s" fill="freeze"/>
      <animate attributeName="r" values="5;6;5" dur="1s" begin="3.4s" repeatCount="3"/>
      <animateMotion dur="3s" begin="3.4s" fill="freeze">
        <mpath href="#path_totalContributions_526.6666666666667"/>
      </animateMotion>
    </circle>
    
    <!-- Small trail dots that fade out -->
    <circle r="2" fill="#f59e0b" opacity="0">
      <animate attributeName="opacity" values="0;0.6;0" dur="0.8s" begin="3.8s" fill="freeze"/>
      <animateMotion dur="3s" begin="3.4s" fill="freeze">
        <mpath href="#path_totalContributions_526.6666666666667"/>
      </animateMotion>
    </circle>
    
    <!-- Hidden path for motion animation -->
    <path id="path_totalContributions_526.6666666666667" d="M 30,160 L 30.028981939531615,160 L 30.05052571894844,160 L 31.54961071615611,160 L 31.576190936518127,160 L 31.60644542874408,160 L 33.09805641928219,160 L 33.12434986720605,160 L 33.15248941270057,160 L 34.64707566728459,160 L 34.67236541167489,160 L 34.7036236074344,160 L 36.19648922738946,160 L 36.22145635278683,160 L 36.24832334558701,160 L 37.745956557326494,160 L 37.77685628753831,160 L 37.8073079358155,160 L 39.294742802722894,160 L 39.321914491238616,160 L 39.353531152545834,160 L 40.870467734029006,160 L 40.89925251750938,160 L 42.39201059780014,160 L 42.41608155932825,160 L 42.44755483441639,160 L 43.93764234637676,160 L 43.963846177913695,160 L 43.99657408241879,160 L 45.4857833537873,160 L 45.51474737004153,160 L 45.54432077772685,160 L 47.034390366409845,160 L 47.06063004450155,160 L 47.09217501269923,160 L 48.58679711383802,160 L 48.61610167236257,160 L 48.646893862910076,160 L 50.13599559461427,160 L 50.16155418816535,160 L 50.193601008129804,160 L 51.68322251487817,160 L 51.70611054009888,160 L 51.73399915971,160 L 53.23034189547776,160 L 53.258857829797364,160 L 53.28748130378128,160 L 54.776923577755795,160 L 54.80438203870969,160 L 54.83581946724305,160 L 56.32393541869108,160 L 56.34981663123507,160 L 56.38462363591683,160 L 57.868079535244746,160 L 57.89917642150779,160 L 57.93018369138392,160 L 59.42525387445734,160 L 59.454952745084356,160 L 59.488236271188384,160 L 60.976190913139945,160 L 61.00115803853731,160 L 61.0346028741378,160 L 62.5213028866724,160 L 62.55528542059445,160 L 62.59109612880977,160 L 64.07014290190097,160 L 64.09588072822588,160 L 64.12758700592002,160 L 65.62147425268603,160 L 65.64366327008872,160 L 65.6760327090461,160 L 67.16574383218139,160 L 67.19214481976957,160 L 67.22343886208385,160 L 68.71374145337285,160 L 68.74033959701225,160 L 68.771328943611,160 L 70.26688305517382,160 L 70.29409059024431,160 L 70.32995506829178,160 L 71.8131600417363,160 L 71.84644356784034,160 L 71.86822034986315,160 L 73.36045865510974,160 L 73.38673417975622,160 L 73.41931869804222,160 L 74.90374245434893,160 L 74.93901546424269,160 L 74.96935957285558,160 L 76.45924992876472,160 L 76.4863499241709,160 L 76.51836089758058,160 L 78.0092549570233,160 L 78.03581725410794,160 L 78.06474542380738,160 L 79.55773650670415,160 L 79.58494404177465,160 L 79.61351374592641,160 L 81.10551904856698,160 L 81.13756586853144,160 L 81.17054469891991,160 L 82.65369590253229,160 L 82.68334100332714,160 L 82.71676791565025,160 L 84.1935922023457,160 L 84.23323849192141,160 L 84.26573339382051,160 L 85.75074861828091,160 L 85.77915701293621,160 L 85.81003881987064,160 L 87.29962448006424,160 L 87.32624054698103,160 L 87.35800059450733,160 L 88.84606277612319,160 L 88.87411270523077,160 L 88.90576521309276,160 L 90.39556595261499,160 L 90.4181851286749,160 L 90.45356567823299,160 L 91.94707653617391,160 L 91.97801211294049,160 L 92.01434259619998,160 L 93.49778057225052,160 L 93.52439663916729,160 L 93.55630007291268,160 L 95.04403963553561,137.48987854251013 L 95.069938771357,137.48987854251013 L 95.1032581440158,137.48987854251013 L 96.58940253495146,137.48987854251013 L 96.61515828455377,137.48987854251013 L 96.65046714100231,137.48987854251013 L 98.13041007796275,137.48987854251013 L 98.16557554819221,137.48987854251013 L 98.20124287018845,137.48987854251013 L 99.68797872927783,137.48987854251013 L 99.70998851390665,137.48987854251013 L 99.7430031908499,137.48987854251013 L 101.23603012030144,137.48987854251013 L 101.26200094923236,137.48987854251013 L 101.29569671071624,137.48987854251013 L 102.77929599626324,137.48987854251013 L 102.81878097634248,137.48987854251013 L 102.85227958177514,137.48987854251013 L 104.3338893835324,137.48987854251013 L 104.36650974837316,137.48987854251013 L 104.39963196498073,137.48987854251013 L 105.88574050936163,137.48987854251013 L 105.9157440757042,137.48987854251013 L 105.94850782676404,137.48987854251013 L 107.43078078978455,137.48987854251013 L 107.46169844327375,137.48987854251013 L 107.49369149340605,137.48987854251013 L 108.97777470744245,137.48987854251013 L 109.00881782387333,137.48987854251013 L 109.04330220956216,137.48987854251013 L 110.52914190478228,137.48987854251013 L 110.56434322156652,137.48987854251013 L 110.5982719856564,137.48987854251013 L 112.07672729059388,137.48987854251013 L 112.1066591638269,137.48987854251013 L 112.13431478083203,137.48987854251013 L 113.62976135273054,137.48987854251013 L 113.6615572468116,137.48987854251013 L 113.69654348426721,137.48987854251013 L 115.17388754600682,137.48987854251013 L 115.20595228924866,137.48987854251013 L 115.24247992855938,137.48987854251013 L 116.72290679400922,137.48987854251013 L 116.75298205346131,137.48987854251013 L 116.78601465368196,137.48987854251013 L 118.27219489117239,137.48987854251013 L 118.29940242624289,137.48987854251013 L 118.33519521118083,137.48987854251013 L 119.82159052799989,137.48987854251013 L 119.85066208391842,137.48987854251013 L 119.88046849420975,137.48987854251013 L 121.37159555625846,137.48987854251013 L 121.39661645148799,137.48987854251013 L 121.42900381372276,137.48987854251013 L 122.91536328398705,137.48987854251013 L 122.93920124290915,137.48987854251013 L 122.96703609268813,137.48987854251013 L 124.4670889468746,137.48987854251013 L 124.49447571471894,137.48987854251013 L 124.53075242814627,137.48987854251013 L 126.01483564218266,137.48987854251013 L 126.04281387818071,137.48987854251013 L 126.07706526126353,137.48987854251013 L 127.55783266898368,137.48987854251013 L 127.58348087892169,137.48987854251013 L 127.61733794990204,137.48987854251013 L 129.1031059520126,137.48987854251013 L 129.13585177979508,137.48987854251013 L 129.1685438377454,137.48987854251013 L 130.65780687894608,137.48987854251013 L 130.683777707877,137.48987854251013 L 130.7150538269139,137.48987854251013 L 132.20757890459865,137.48987854251013 L 132.23358558008437,137.48987854251013 L 132.26498716206294,137.48987854251013 L 133.75285218762758,137.48987854251013 L 133.78249728842246,137.48987854251013 L 133.81373756090454,137.48987854251013 L 135.30640602480838,137.48987854251013 L 135.33461726341244,137.48987854251013 L 135.36808002229031,137.48987854251013 L 136.85599881768712,137.48987854251013 L 136.88180833712158,137.48987854251013 L 136.91803128071678,137.48987854251013 L 138.4000174712991,137.48987854251013 L 138.42555814157276,137.48987854251013 L 138.45617109934642,137.48987854251013 L 139.9482839416513,137.48987854251013 L 139.9740755378084,137.48987854251013 L 140.005244117181,137.48987854251013 L 141.4985578190707,137.48987854251013 L 141.52002990537795,137.48987854251013 L 141.5508041726481,137.48987854251013 L 143.04700352219675,137.48987854251013 L 143.07206026398106,137.48987854251013 L 143.09283334247033,137.48987854251013 L 144.59349558808788,137.48987854251013 L 144.61736939356473,137.48987854251013 L 144.64757011595856,137.48987854251013 L 146.1381774029631,137.48987854251013 L 146.17407772756533,137.48987854251013 L 146.2066084760192,137.48987854251013 L 147.69334433510858,137.48987854251013 L 147.7200141718575,137.48987854251013 L 147.75125444433965,137.48987854251013 L 149.24223812016925,137.48987854251013 L 149.2683164887645,137.48987854251013 L 149.2934986934905,137.48987854251013 L 150.79249407431124,137.48987854251013 L 150.81486232448776,137.48987854251013 L 150.84090484652825,137.48987854251013 L 152.3367636538066,137.48987854251013 L 152.3622684775255,137.48987854251013 L 152.39098156789638,137.48987854251013 L 153.8878261554309,137.48987854251013 L 153.91005101938836,137.48987854251013 L 153.94084320993585,137.48987854251013 L 155.4253565826295,137.48987854251013 L 155.45896272772643,137.48987854251013 L 155.4899162277704,137.48987854251013 L 156.98536279966893,137.48987854251013 L 157.01411173659454,137.48987854251013 L 157.04332667873217,137.48987854251013 L 158.53481220632855,137.48987854251013 L 158.564762002839,137.48987854251013 L 158.59845776432286,137.48987854251013 L 160.07847239439283,137.48987854251013 L 160.10361875256407,137.48987854251013 L 160.13240353604445,137.48987854251013 L 161.62741994928572,137.48987854251013 L 161.6461318508757,137.48987854251013 L 161.679056911432,137.48987854251013 L 163.17708443527397,137.48987854251013 L 163.19968568805652,137.48987854251013 L 163.23042410877184,137.48987854251013 L 164.72732246613856,137.48987854251013 L 164.74995956547588,137.48987854251013 L 164.7768624048308,137.48987854251013 L 166.27329475698548,40 L 166.29625447531575,40 L 166.32572034333677,40 L 167.82335355507624,40 L 167.84717359072096,40 L 167.88038542371544,40 L 169.3630706221158,40 L 169.39640791805198,40 L 169.42904620617014,40 L 170.92114112519766,40 L 170.93865216720283,40 L 170.9685123473263,40 L 172.46691625999335,40 L 172.49141738017872,40 L 172.52364343291703,40 L 174.0091784324216,40 L 174.04133279205035,40 L 174.0700638056986,40 L 175.56463213700522,40 L 175.58992188139553,40 L 175.61768503806496,40 L 177.11099873995465,40 L 177.13580455585554,40 L 177.16087922091722,40 L 177.20061512687985,40 L 178.66516196856654,40 L 178.69132995354872,40 L 178.7185374886192,40 L 180.2126756612686,40 L 180.23877195314122,40 L 180.26728788746084,40 L 181.76045820313146,40 L 181.7844753948274,40 L 181.81188008594916,40 L 183.30447685674343,40 L 183.33333333333334,40" fill="none" stroke="none"/>
  </g>
  
  <!-- Footer -->
  <text x="400" y="580" text-anchor="middle" fill="#64748b" font-size="12" font-family="Arial, sans-serif">
    Generated by GitHub User Rank Tracker • 9/17/2025
    <animate attributeName="opacity" values="0;1" dur="0.5s" begin="5s" fill="freeze"/>
  </text>
</svg>