<svg width="800" height="600" xmlns="http://www.w3.org/2000/svg">
  <defs>
    <linearGradient id="bgGradient" x1="0%" y1="0%" x2="100%" y2="100%">
      <stop offset="0%" style="stop-color:#f8fafc;stop-opacity:1" />
      <stop offset="100%" style="stop-color:#e2e8f0;stop-opacity:1" />
    </linearGradient>
    <filter id="shadow" x="-20%" y="-20%" width="140%" height="140%">
      <feDropShadow dx="2" dy="2" stdDeviation="3" flood-color="#00000020" flood-opacity="0.1"/>
    </filter>
    <!-- Trail effect filter -->
    <filter id="trailGlow" x="-50%" y="-50%" width="200%" height="200%">
      <feGaussianBlur stdDeviation="3" result="coloredBlur"/>
      <feMerge> 
        <feMergeNode in="coloredBlur"/>
        <feMergeNode in="SourceGraphic"/>
      </feMerge>
    </filter>
  </defs>
  
  <!-- Background -->
  <rect width="800" height="600" fill="url(#bgGradient)" rx="12"/>
  
  <!-- Header -->
  <text x="400" y="40" text-anchor="middle" fill="#0f172a" font-size="24" font-weight="bold" font-family="Arial, sans-serif">
    GitHub Progress Report
    <animate attributeName="opacity" values="0;1" dur="0.8s" begin="0s" fill="freeze"/>
    <animateTransform attributeName="transform" type="translate" values="0,-20;0,0" dur="0.8s" begin="0s" fill="freeze"/>
  </text>
  
  <!-- User Info -->
  <text x="400" y="70" text-anchor="middle" fill="#475569" font-size="16" font-family="Arial, sans-serif">
    @maifeeulasad • BANGLADESH • 100 days analyzed
    <animate attributeName="opacity" values="0;1" dur="0.6s" begin="0.3s" fill="freeze"/>
  </text>
  
  <!-- Progress Cards -->
  <!-- Followers Card -->
  <g transform="translate(60, 100)">
    <rect width="206.66666666666666" height="120" fill="#ffffff" stroke="#e2e8f0" stroke-width="1" rx="8" filter="url(#shadow)">
      <animate attributeName="opacity" values="0;1" dur="0.6s" begin="0.2s" fill="freeze"/>
      <animateTransform attributeName="transform" type="scale" values="0.8;1" dur="0.6s" begin="0.2s" fill="freeze"/>
    </rect>
    <text x="103.33333333333333" y="25" text-anchor="middle" fill="#64748b" font-size="14" font-weight="bold" font-family="Arial, sans-serif">FOLLOWERS
      <animate attributeName="opacity" values="0;1" dur="0.5s" begin="0.4s" fill="freeze"/>
    </text>
    
    <text x="103.33333333333333" y="50" text-anchor="middle" fill="#22c55e" font-size="32" font-weight="bold" font-family="Arial, sans-serif">
      ↗
      <animate attributeName="opacity" values="0;1" dur="0.5s" begin="0.6s" fill="freeze"/>
      <animateTransform attributeName="transform" type="scale" values="0;1.2;1" dur="0.8s" begin="0.6s" fill="freeze"/>
    </text>
    
    <text x="103.33333333333333" y="75" text-anchor="middle" fill="#1e293b" font-size="18" font-weight="bold" font-family="Arial, sans-serif">
      +6
      <animate attributeName="opacity" values="0;1" dur="0.5s" begin="0.8s" fill="freeze"/>
    </text>
    
    <text x="103.33333333333333" y="95" text-anchor="middle" fill="#64748b" font-size="12" font-family="Arial, sans-serif">
      #473 → #467
      <animate attributeName="opacity" values="0;1" dur="0.5s" begin="1s" fill="freeze"/>
    </text>
  </g>
  
  <!-- Public Contributions Card -->
  <g transform="translate(296.66666666666663, 100)">
    <rect width="206.66666666666666" height="120" fill="#ffffff" stroke="#e2e8f0" stroke-width="1" rx="8" filter="url(#shadow)">
      <animate attributeName="opacity" values="0;1" dur="0.6s" begin="0.4s" fill="freeze"/>
      <animateTransform attributeName="transform" type="scale" values="0.8;1" dur="0.6s" begin="0.4s" fill="freeze"/>
    </rect>
    <text x="103.33333333333333" y="25" text-anchor="middle" fill="#64748b" font-size="14" font-weight="bold" font-family="Arial, sans-serif">PUBLIC
      <animate attributeName="opacity" values="0;1" dur="0.5s" begin="0.6s" fill="freeze"/>
    </text>
    
    <text x="103.33333333333333" y="50" text-anchor="middle" fill="#22c55e" font-size="32" font-weight="bold" font-family="Arial, sans-serif">
      ↗
      <animate attributeName="opacity" values="0;1" dur="0.5s" begin="0.8s" fill="freeze"/>
      <animateTransform attributeName="transform" type="scale" values="0;1.2;1" dur="0.8s" begin="0.8s" fill="freeze"/>
    </text>
    
    <text x="103.33333333333333" y="75" text-anchor="middle" fill="#1e293b" font-size="18" font-weight="bold" font-family="Arial, sans-serif">
      +11
      <animate attributeName="opacity" values="0;1" dur="0.5s" begin="1s" fill="freeze"/>
    </text>
    
    <text x="103.33333333333333" y="95" text-anchor="middle" fill="#64748b" font-size="12" font-family="Arial, sans-serif">
      #18 → #7
      <animate attributeName="opacity" values="0;1" dur="0.5s" begin="1.2s" fill="freeze"/>
    </text>
  </g>
  
  <!-- Total Contributions Card -->
  <g transform="translate(533.3333333333333, 100)">
    <rect width="206.66666666666666" height="120" fill="#ffffff" stroke="#e2e8f0" stroke-width="1" rx="8" filter="url(#shadow)">
      <animate attributeName="opacity" values="0;1" dur="0.6s" begin="0.6s" fill="freeze"/>
      <animateTransform attributeName="transform" type="scale" values="0.8;1" dur="0.6s" begin="0.6s" fill="freeze"/>
    </rect>
    <text x="103.33333333333333" y="25" text-anchor="middle" fill="#64748b" font-size="14" font-weight="bold" font-family="Arial, sans-serif">TOTAL
      <animate attributeName="opacity" values="0;1" dur="0.5s" begin="0.8s" fill="freeze"/>
    </text>
    
    <text x="103.33333333333333" y="50" text-anchor="middle" fill="#22c55e" font-size="32" font-weight="bold" font-family="Arial, sans-serif">
      ↗
      <animate attributeName="opacity" values="0;1" dur="0.5s" begin="1s" fill="freeze"/>
      <animateTransform attributeName="transform" type="scale" values="0;1.2;1" dur="0.8s" begin="1s" fill="freeze"/>
    </text>
    
    <text x="103.33333333333333" y="75" text-anchor="middle" fill="#1e293b" font-size="18" font-weight="bold" font-family="Arial, sans-serif">
      +15
      <animate attributeName="opacity" values="0;1" dur="0.5s" begin="1.2s" fill="freeze"/>
    </text>
    
    <text x="103.33333333333333" y="95" text-anchor="middle" fill="#64748b" font-size="12" font-family="Arial, sans-serif">
      #39 → #24
      <animate attributeName="opacity" values="0;1" dur="0.5s" begin="1.4s" fill="freeze"/>
    </text>
  </g>
  
  <!-- Timeline Charts (if we have snapshots) -->
  
  <!-- 👥 Followers Count Chart -->
  <g transform="translate(60, 250)">
    <!-- Chart Background -->
    <rect x="0" y="0" width="213.33333333333334" height="200" fill="#ffffff" stroke="#e2e8f0" stroke-width="1" rx="8" filter="url(#shadow)">
      <animate attributeName="opacity" values="0;1" dur="0.5s" begin="1.8s" fill="freeze"/>
    </rect>
    
    <!-- Chart Title -->
    <text x="106.66666666666667" y="25" text-anchor="middle" fill="#1e293b" font-size="14" font-weight="bold" font-family="Arial, sans-serif">
      👥 Followers Count
      <animate attributeName="opacity" values="0;1" dur="0.5s" begin="2s" fill="freeze"/>
    </text>
    
    <!-- Y-axis labels -->
    <text x="10" y="45" fill="#64748b" font-size="10" font-family="Arial, sans-serif">143
      <animate attributeName="opacity" values="0;1" dur="0.5s" begin="2.2s" fill="freeze"/>
    </text>
    <text x="10" y="185" fill="#64748b" font-size="10" font-family="Arial, sans-serif">136
      <animate attributeName="opacity" values="0;1" dur="0.5s" begin="2.2s" fill="freeze"/>
    </text>
    
    <!-- Chart Line with draw animation that follows the circle -->
    <path d="M 30,160 L 30.024067155224696,160 L 30.055535453493178,160 L 31.545387340250937,160 L 31.571587028217063,160 L 31.604309757509913,160 L 33.093283542550616,160 L 33.12224297877035,160 L 33.15181171005907,160 L 34.64164567637363,160 L 34.667881205226166,160 L 34.69942118526746,160 L 36.19380694415616,160 L 36.2231068687968,160 L 36.25389419022348,160 L 37.74276045260495,160 L 37.76831500461569,160 L 37.80035675706673,160 L 39.289742712301155,160 L 39.3126271182743,160 L 39.34051132790172,160 L 40.83661744933813,160 L 40.86512887447773,160 L 40.89374782227658,160 L 42.38295457307895,160 L 42.41040869206944,160 L 42.44184114945151,160 L 43.929721787456685,160 L 43.95559890744512,160 L 43.99040040814978,160 L 45.473621730921586,160 L 45.50471369988276,160 L 45.5357160666279,160 L 47.03054983659672,160 L 47.06024401098789,160 L 47.093522274020096,160 L 48.58124162803642,160 L 48.606204805421385,160 L 48.639644352442446,160 L 50.12610927543441,160 L 50.16008643575162,160 L 50.19589148127579,160 L 51.67470437501909,160 L 51.70043813146188,160 L 51.73213939549203,160 L 53.22579041620931,160 L 53.247975924897446,160 L 53.280340245326194,160 L 54.76981580277664,160 L 54.796212615618025,160 L 54.82750170945445,160 L 56.31756864153068,160 L 56.34416257924732,160 L 56.37514702554925,160 L 57.870464647484624,160 L 57.89766788027025,160 L 57.93352668712402,160 L 59.41649712369095,160 L 59.44977538672316,160 L 59.47154872521759,160 L 60.96355106515998,160 L 60.989822434898926,160 L 61.022401800646136,160 L 62.506590827351026,160 L 62.54185825957902,160 L 62.57219756992557,160 L 64.06185233180807,160 L 64.08894804193446,160 L 64.12095395349911,160 L 65.6116122602011,160 L 65.63817035703133,160 L 65.66709395236467,160 L 67.15984895092168,160 L 67.1870521837073,160 L 67.21561737017652,160 L 68.70738674435725,160 L 68.7394284968083,160 L 68.77240211230603,160 L 70.25531878754333,160 L 70.28495920060487,160 L 70.31838082718272,160 L 71.79497158596857,160 L 71.83461160633865,160 L 71.86710136986986,160 L 73.35188177120051,160 L 73.38028567368089,160 L 73.4111625973236,160 L 74.90051271167161,160 L 74.92712456983145,160 L 74.95887959519122,160 L 76.44670647186678,160 L 76.47475196548305,160 L 76.50639946818359,160 L 77.99596462785006,160 L 78.01858022717512,160 L 78.05395518206237,160 L 79.54722987347232,160 L 79.57816055844464,160 L 79.61448529682175,160 L 81.09768869915035,160 L 81.1243005573102,160 L 81.15619894621561,160 L 82.64370325491348,57.14285714285715 L 82.66959829534511,57.14285714285715 L 82.70291239926374,57.14285714285715 L 84.18882178851634,57.14285714285715 L 84.21457346540232,57.14285714285715 L 84.24987673851675,57.14285714285715 L 85.7295856544203,57.14285714285715 L 85.76474556398908,57.14285714285715 L 85.80040724596759,57.14285714285715 L 87.28690800984597,57.14285714285715 L 87.30891431410205,57.14285714285715 L 87.34192377048618,57.14285714285715 L 88.83471460992962,57.14285714285715 L 88.86068133213408,57.14285714285715 L 88.89437176536,57.14285714285715 L 90.37773645167745,57.14285714285715 L 90.41721518805869,57.14285714285715 L 90.45070849640938,57.14285714285715 L 91.93208401353102,57.14285714285715 L 91.96469922016465,57.14285714285715 L 91.99781619920802,57.14285714285715 L 93.4836897475742,57.14285714285715 L 93.51368856949985,57.14285714285715 L 93.54644713967912,57.14285714285715 L 95.02848571319936,57.14285714285715 L 95.05939847772848,57.14285714285715 L 95.0913864688499,57.14285714285715 L 96.5752350071339,57.14285714285715 L 96.60627321476545,57.14285714285715 L 96.64075214749242,57.14285714285715 L 98.12635688921053,57.14285714285715 L 98.1615526396657,57.14285714285715 L 98.19547603865331,57.14285714285715 L 99.67369755777084,57.14285714285715 L 99.70362469792366,57.14285714285715 L 99.73127594178942,57.14285714285715 L 101.22648604106556,57.14285714285715 L 101.25827690731174,57.14285714285715 L 101.29325761244846,57.14285714285715 L 102.77036806408725,57.14285714285715 L 102.8024277369815,57.14285714285715 L 102.83894960023387,57.14285714285715 L 104.31914236810398,57.14285714285715 L 104.34921287180245,57.14285714285715 L 104.3822402486298,57.14285714285715 L 105.8681854787688,57.14285714285715 L 105.89538871155442,57.14285714285715 L 105.93117583663538,57.14285714285715 L 107.41733611209285,57.14285714285715 L 107.44640307097181,57.14285714285715 L 107.47620476802221,57.14285714285715 L 108.96709604048587,57.14285714285715 L 108.99211297920046,57.14285714285715 L 109.0244952200724,57.14285714285715 L 110.51061965464345,57.14285714285715 L 110.5344538441065,57.14285714285715 L 110.5622842924043,57.14285714285715 L 112.06209994558418,57.14285714285715 L 112.08948238280186,57.14285714285715 L 112.12575335984936,57.14285714285715 L 113.60960189813335,57.14285714285715 L 113.6375757099768,57.14285714285715 L 113.67182167694209,57.14285714285715 L 115.15235493323311,57.14285714285715 L 115.17799908745988,57.14285714285715 L 115.21185080467465,57.14285714285715 L 116.69738386461995,57.14285714285715 L 116.73012451435599,57.14285714285715 L 116.76281140276244,57.14285714285715 L 118.25183894913276,57.14285714285715 L 118.27780567133722,57.14285714285715 L 118.30907684473044,57.14285714285715 L 119.80136591176411,57.14285714285715 L 119.82736847485498,57.14285714285715 L 119.85876509135063,57.14285714285715 L 121.34639484315095,57.14285714285715 L 121.37603525621248,57.14285714285715 L 121.40727058871929,57.14285714285715 L 122.89970301929861,57.14285714285715 L 122.92790979690373,57.14285714285715 L 122.961367264368,57.14285714285715 L 124.4490507774979,57.14285714285715 L 124.47485621571352,57.14285714285715 L 124.5110734314314,57.14285714285715 L 125.99282527786038,57.14285714285715 L 126.01836190942791,57.14285714285715 L 126.04897002642254,57.14285714285715 L 127.54084692326249,57.14285714285715 L 127.56663444103489,57.14285714285715 L 127.59779809176888,57.14285714285715 L 129.0908756583036,57.14285714285715 L 129.11234434926354,57.14285714285715 L 129.14311375024698,57.14285714285715 L 130.63907650813775,57.14285714285715 L 130.66412928773875,57.14285714285715 L 130.68489908141368,57.14285714285715 L 132.18532402966255,57.14285714285715 L 132.20919406001198,57.14285714285715 L 132.2393900068129,57.14285714285715 L 133.7297615864236,57.14285714285715 L 133.7656562341638,57.14285714285715 L 133.7981818385814,57.14285714285715 L 135.28468260245972,57.14285714285715 L 135.31134822194923,57.14285714285715 L 135.34258355445604,57.14285714285715 L 136.83333146337407,57.14285714285715 L 136.85940570823772,57.14285714285715 L 136.88458393094118,57.14285714285715 L 138.38334227797196,57.14285714285715 L 138.40570699109213,57.14285714285715 L 138.4317453950694,57.14285714285715 L 139.9273676645393,57.14285714285715 L 139.95286845522043,57.14285714285715 L 139.98157700523527,57.14285714285715 L 141.4781848990814,57.14285714285715 L 141.50040624865596,57.14285714285715 L 141.53119357008265,57.14285714285715 L 143.01547219900357,57.14285714285715 L 143.04907303001346,57.14285714285715 L 143.080021635429,57.14285714285715 L 144.57523173470514,57.14285714285715 L 144.60397612560644,57.14285714285715 L 144.63318644803104,57.14285714285715 L 146.1244361293588,57.14285714285715 L 146.15438118995485,57.14285714285715 L 146.18807162318078,57.14285714285715 L 147.66785222085716,57.14285714285715 L 147.69299460267416,57.14285714285715 L 147.72177483446185,57.14285714285715 L 149.21655484310108,57.14285714285715 L 149.23526378580738,57.14285714285715 L 149.26818363997552,57.14285714285715 L 150.7659742830732,57.14285714285715 L 150.78857196195506,57.14285714285715 L 150.8193055220521,57.14285714285715 L 152.3159671772279,57.14285714285715 L 152.33860069699617,57.14285714285715 L 152.3654992822473,57.14285714285715 L 153.86169500589972,40 L 153.8846510936457,40 L 153.91411230227519,40 L 155.41150869562236,40 L 155.43532496464218,40 L 155.46853154590158,40 L 156.95098228961558,40 L 156.9843143139774,40 L 157.0169474410542,40 L 158.50880641745098,40 L 158.52631469046253,40 L 158.55617014884254,40 L 160.05433712124756,40 L 160.07883436710918,40 L 160.11105532399228,40 L 161.59635541817588,40 L 161.62850469328617,40 L 161.65723116374426,40 L 163.15156316130333,40 L 163.17684890666598,40 L 163.20460767319096,40 L 164.69768523972567,40 L 164.72248713312177,40 L 164.74755783316598,40 L 164.7872874557521,40 L 166.25160271094234,40 L 166.27776655802205,40 L 166.30496979080766,40 L 167.79887169772982,40 L 167.82496386303671,40 L 167.85347528817633,40 L 169.3464094911654,40 L 169.37042288506046,40 L 169.39782324272136,40 L 170.89018399152783,40 L 170.91903590508835,40 L 172.44938799349006,40 L 172.46691418694482,40 L 172.49472671479944,40 L 173.9900084958484,40 L 174.01468494614207,40 L 174.04518554047746,40 L 175.5379584594777,40 L 175.5620435351456,40 L 175.58912132482877,40 L 177.08899073933827,40 L 177.1148320184403,40 L 177.14721425931225,40 L 178.63892987216337,40 L 178.6667782409044,40 L 178.69347970128024,40 L 180.18983670892152,40 L 180.20696865262576,40 L 180.23598185017514,40 L 181.73278686889654,40 L 181.75518742290316,40 L 181.7808853384595,40 L 183.28079059385544,40 L 183.3016679101896,40 L 183.33333333333334,40" stroke="#22c55e" stroke-width="2" fill="none" stroke-dasharray="15000" stroke-dashoffset="15000">
      <animate attributeName="stroke-dashoffset" values="15000;0" dur="3s" begin="2.6s" fill="freeze"/>
    </path>
    
    <!-- Glow effect for the line that also follows the circle -->
    <path d="M 30,160 L 30.024067155224696,160 L 30.055535453493178,160 L 31.545387340250937,160 L 31.571587028217063,160 L 31.604309757509913,160 L 33.093283542550616,160 L 33.12224297877035,160 L 33.15181171005907,160 L 34.64164567637363,160 L 34.667881205226166,160 L 34.69942118526746,160 L 36.19380694415616,160 L 36.2231068687968,160 L 36.25389419022348,160 L 37.74276045260495,160 L 37.76831500461569,160 L 37.80035675706673,160 L 39.289742712301155,160 L 39.3126271182743,160 L 39.34051132790172,160 L 40.83661744933813,160 L 40.86512887447773,160 L 40.89374782227658,160 L 42.38295457307895,160 L 42.41040869206944,160 L 42.44184114945151,160 L 43.929721787456685,160 L 43.95559890744512,160 L 43.99040040814978,160 L 45.473621730921586,160 L 45.50471369988276,160 L 45.5357160666279,160 L 47.03054983659672,160 L 47.06024401098789,160 L 47.093522274020096,160 L 48.58124162803642,160 L 48.606204805421385,160 L 48.639644352442446,160 L 50.12610927543441,160 L 50.16008643575162,160 L 50.19589148127579,160 L 51.67470437501909,160 L 51.70043813146188,160 L 51.73213939549203,160 L 53.22579041620931,160 L 53.247975924897446,160 L 53.280340245326194,160 L 54.76981580277664,160 L 54.796212615618025,160 L 54.82750170945445,160 L 56.31756864153068,160 L 56.34416257924732,160 L 56.37514702554925,160 L 57.870464647484624,160 L 57.89766788027025,160 L 57.93352668712402,160 L 59.41649712369095,160 L 59.44977538672316,160 L 59.47154872521759,160 L 60.96355106515998,160 L 60.989822434898926,160 L 61.022401800646136,160 L 62.506590827351026,160 L 62.54185825957902,160 L 62.57219756992557,160 L 64.06185233180807,160 L 64.08894804193446,160 L 64.12095395349911,160 L 65.6116122602011,160 L 65.63817035703133,160 L 65.66709395236467,160 L 67.15984895092168,160 L 67.1870521837073,160 L 67.21561737017652,160 L 68.70738674435725,160 L 68.7394284968083,160 L 68.77240211230603,160 L 70.25531878754333,160 L 70.28495920060487,160 L 70.31838082718272,160 L 71.79497158596857,160 L 71.83461160633865,160 L 71.86710136986986,160 L 73.35188177120051,160 L 73.38028567368089,160 L 73.4111625973236,160 L 74.90051271167161,160 L 74.92712456983145,160 L 74.95887959519122,160 L 76.44670647186678,160 L 76.47475196548305,160 L 76.50639946818359,160 L 77.99596462785006,160 L 78.01858022717512,160 L 78.05395518206237,160 L 79.54722987347232,160 L 79.57816055844464,160 L 79.61448529682175,160 L 81.09768869915035,160 L 81.1243005573102,160 L 81.15619894621561,160 L 82.64370325491348,57.14285714285715 L 82.66959829534511,57.14285714285715 L 82.70291239926374,57.14285714285715 L 84.18882178851634,57.14285714285715 L 84.21457346540232,57.14285714285715 L 84.24987673851675,57.14285714285715 L 85.7295856544203,57.14285714285715 L 85.76474556398908,57.14285714285715 L 85.80040724596759,57.14285714285715 L 87.28690800984597,57.14285714285715 L 87.30891431410205,57.14285714285715 L 87.34192377048618,57.14285714285715 L 88.83471460992962,57.14285714285715 L 88.86068133213408,57.14285714285715 L 88.89437176536,57.14285714285715 L 90.37773645167745,57.14285714285715 L 90.41721518805869,57.14285714285715 L 90.45070849640938,57.14285714285715 L 91.93208401353102,57.14285714285715 L 91.96469922016465,57.14285714285715 L 91.99781619920802,57.14285714285715 L 93.4836897475742,57.14285714285715 L 93.51368856949985,57.14285714285715 L 93.54644713967912,57.14285714285715 L 95.02848571319936,57.14285714285715 L 95.05939847772848,57.14285714285715 L 95.0913864688499,57.14285714285715 L 96.5752350071339,57.14285714285715 L 96.60627321476545,57.14285714285715 L 96.64075214749242,57.14285714285715 L 98.12635688921053,57.14285714285715 L 98.1615526396657,57.14285714285715 L 98.19547603865331,57.14285714285715 L 99.67369755777084,57.14285714285715 L 99.70362469792366,57.14285714285715 L 99.73127594178942,57.14285714285715 L 101.22648604106556,57.14285714285715 L 101.25827690731174,57.14285714285715 L 101.29325761244846,57.14285714285715 L 102.77036806408725,57.14285714285715 L 102.8024277369815,57.14285714285715 L 102.83894960023387,57.14285714285715 L 104.31914236810398,57.14285714285715 L 104.34921287180245,57.14285714285715 L 104.3822402486298,57.14285714285715 L 105.8681854787688,57.14285714285715 L 105.89538871155442,57.14285714285715 L 105.93117583663538,57.14285714285715 L 107.41733611209285,57.14285714285715 L 107.44640307097181,57.14285714285715 L 107.47620476802221,57.14285714285715 L 108.96709604048587,57.14285714285715 L 108.99211297920046,57.14285714285715 L 109.0244952200724,57.14285714285715 L 110.51061965464345,57.14285714285715 L 110.5344538441065,57.14285714285715 L 110.5622842924043,57.14285714285715 L 112.06209994558418,57.14285714285715 L 112.08948238280186,57.14285714285715 L 112.12575335984936,57.14285714285715 L 113.60960189813335,57.14285714285715 L 113.6375757099768,57.14285714285715 L 113.67182167694209,57.14285714285715 L 115.15235493323311,57.14285714285715 L 115.17799908745988,57.14285714285715 L 115.21185080467465,57.14285714285715 L 116.69738386461995,57.14285714285715 L 116.73012451435599,57.14285714285715 L 116.76281140276244,57.14285714285715 L 118.25183894913276,57.14285714285715 L 118.27780567133722,57.14285714285715 L 118.30907684473044,57.14285714285715 L 119.80136591176411,57.14285714285715 L 119.82736847485498,57.14285714285715 L 119.85876509135063,57.14285714285715 L 121.34639484315095,57.14285714285715 L 121.37603525621248,57.14285714285715 L 121.40727058871929,57.14285714285715 L 122.89970301929861,57.14285714285715 L 122.92790979690373,57.14285714285715 L 122.961367264368,57.14285714285715 L 124.4490507774979,57.14285714285715 L 124.47485621571352,57.14285714285715 L 124.5110734314314,57.14285714285715 L 125.99282527786038,57.14285714285715 L 126.01836190942791,57.14285714285715 L 126.04897002642254,57.14285714285715 L 127.54084692326249,57.14285714285715 L 127.56663444103489,57.14285714285715 L 127.59779809176888,57.14285714285715 L 129.0908756583036,57.14285714285715 L 129.11234434926354,57.14285714285715 L 129.14311375024698,57.14285714285715 L 130.63907650813775,57.14285714285715 L 130.66412928773875,57.14285714285715 L 130.68489908141368,57.14285714285715 L 132.18532402966255,57.14285714285715 L 132.20919406001198,57.14285714285715 L 132.2393900068129,57.14285714285715 L 133.7297615864236,57.14285714285715 L 133.7656562341638,57.14285714285715 L 133.7981818385814,57.14285714285715 L 135.28468260245972,57.14285714285715 L 135.31134822194923,57.14285714285715 L 135.34258355445604,57.14285714285715 L 136.83333146337407,57.14285714285715 L 136.85940570823772,57.14285714285715 L 136.88458393094118,57.14285714285715 L 138.38334227797196,57.14285714285715 L 138.40570699109213,57.14285714285715 L 138.4317453950694,57.14285714285715 L 139.9273676645393,57.14285714285715 L 139.95286845522043,57.14285714285715 L 139.98157700523527,57.14285714285715 L 141.4781848990814,57.14285714285715 L 141.50040624865596,57.14285714285715 L 141.53119357008265,57.14285714285715 L 143.01547219900357,57.14285714285715 L 143.04907303001346,57.14285714285715 L 143.080021635429,57.14285714285715 L 144.57523173470514,57.14285714285715 L 144.60397612560644,57.14285714285715 L 144.63318644803104,57.14285714285715 L 146.1244361293588,57.14285714285715 L 146.15438118995485,57.14285714285715 L 146.18807162318078,57.14285714285715 L 147.66785222085716,57.14285714285715 L 147.69299460267416,57.14285714285715 L 147.72177483446185,57.14285714285715 L 149.21655484310108,57.14285714285715 L 149.23526378580738,57.14285714285715 L 149.26818363997552,57.14285714285715 L 150.7659742830732,57.14285714285715 L 150.78857196195506,57.14285714285715 L 150.8193055220521,57.14285714285715 L 152.3159671772279,57.14285714285715 L 152.33860069699617,57.14285714285715 L 152.3654992822473,57.14285714285715 L 153.86169500589972,40 L 153.8846510936457,40 L 153.91411230227519,40 L 155.41150869562236,40 L 155.43532496464218,40 L 155.46853154590158,40 L 156.95098228961558,40 L 156.9843143139774,40 L 157.0169474410542,40 L 158.50880641745098,40 L 158.52631469046253,40 L 158.55617014884254,40 L 160.05433712124756,40 L 160.07883436710918,40 L 160.11105532399228,40 L 161.59635541817588,40 L 161.62850469328617,40 L 161.65723116374426,40 L 163.15156316130333,40 L 163.17684890666598,40 L 163.20460767319096,40 L 164.69768523972567,40 L 164.72248713312177,40 L 164.74755783316598,40 L 164.7872874557521,40 L 166.25160271094234,40 L 166.27776655802205,40 L 166.30496979080766,40 L 167.79887169772982,40 L 167.82496386303671,40 L 167.85347528817633,40 L 169.3464094911654,40 L 169.37042288506046,40 L 169.39782324272136,40 L 170.89018399152783,40 L 170.91903590508835,40 L 172.44938799349006,40 L 172.46691418694482,40 L 172.49472671479944,40 L 173.9900084958484,40 L 174.01468494614207,40 L 174.04518554047746,40 L 175.5379584594777,40 L 175.5620435351456,40 L 175.58912132482877,40 L 177.08899073933827,40 L 177.1148320184403,40 L 177.14721425931225,40 L 178.63892987216337,40 L 178.6667782409044,40 L 178.69347970128024,40 L 180.18983670892152,40 L 180.20696865262576,40 L 180.23598185017514,40 L 181.73278686889654,40 L 181.75518742290316,40 L 181.7808853384595,40 L 183.28079059385544,40 L 183.3016679101896,40 L 183.33333333333334,40" stroke="#22c55e" stroke-width="4" fill="none" opacity="0.4" stroke-dasharray="15000" stroke-dashoffset="15000">
      <animate attributeName="stroke-dashoffset" values="15000;0" dur="3s" begin="2.6s" fill="freeze"/>
    </path>
    
    <!-- Animated circle that moves along the path and draws the line -->
    <circle r="5" fill="#22c55e" opacity="0" filter="url(#trailGlow)">
      <animate attributeName="opacity" values="0;1;1;1" dur="3.2s" begin="2.4s" fill="freeze"/>
      <animate attributeName="r" values="5;6;5" dur="1s" begin="2.4s" repeatCount="3"/>
      <animateMotion dur="3s" begin="2.4s" fill="freeze">
        <mpath href="#path_followersCount_60"/>
      </animateMotion>
    </circle>
    
    <!-- Small trail dots that fade out -->
    <circle r="2" fill="#22c55e" opacity="0">
      <animate attributeName="opacity" values="0;0.6;0" dur="0.8s" begin="2.8s" fill="freeze"/>
      <animateMotion dur="3s" begin="2.4s" fill="freeze">
        <mpath href="#path_followersCount_60"/>
      </animateMotion>
    </circle>
    
    <!-- Hidden path for motion animation -->
    <path id="path_followersCount_60" d="M 30,160 L 30.024067155224696,160 L 30.055535453493178,160 L 31.545387340250937,160 L 31.571587028217063,160 L 31.604309757509913,160 L 33.093283542550616,160 L 33.12224297877035,160 L 33.15181171005907,160 L 34.64164567637363,160 L 34.667881205226166,160 L 34.69942118526746,160 L 36.19380694415616,160 L 36.2231068687968,160 L 36.25389419022348,160 L 37.74276045260495,160 L 37.76831500461569,160 L 37.80035675706673,160 L 39.289742712301155,160 L 39.3126271182743,160 L 39.34051132790172,160 L 40.83661744933813,160 L 40.86512887447773,160 L 40.89374782227658,160 L 42.38295457307895,160 L 42.41040869206944,160 L 42.44184114945151,160 L 43.929721787456685,160 L 43.95559890744512,160 L 43.99040040814978,160 L 45.473621730921586,160 L 45.50471369988276,160 L 45.5357160666279,160 L 47.03054983659672,160 L 47.06024401098789,160 L 47.093522274020096,160 L 48.58124162803642,160 L 48.606204805421385,160 L 48.639644352442446,160 L 50.12610927543441,160 L 50.16008643575162,160 L 50.19589148127579,160 L 51.67470437501909,160 L 51.70043813146188,160 L 51.73213939549203,160 L 53.22579041620931,160 L 53.247975924897446,160 L 53.280340245326194,160 L 54.76981580277664,160 L 54.796212615618025,160 L 54.82750170945445,160 L 56.31756864153068,160 L 56.34416257924732,160 L 56.37514702554925,160 L 57.870464647484624,160 L 57.89766788027025,160 L 57.93352668712402,160 L 59.41649712369095,160 L 59.44977538672316,160 L 59.47154872521759,160 L 60.96355106515998,160 L 60.989822434898926,160 L 61.022401800646136,160 L 62.506590827351026,160 L 62.54185825957902,160 L 62.57219756992557,160 L 64.06185233180807,160 L 64.08894804193446,160 L 64.12095395349911,160 L 65.6116122602011,160 L 65.63817035703133,160 L 65.66709395236467,160 L 67.15984895092168,160 L 67.1870521837073,160 L 67.21561737017652,160 L 68.70738674435725,160 L 68.7394284968083,160 L 68.77240211230603,160 L 70.25531878754333,160 L 70.28495920060487,160 L 70.31838082718272,160 L 71.79497158596857,160 L 71.83461160633865,160 L 71.86710136986986,160 L 73.35188177120051,160 L 73.38028567368089,160 L 73.4111625973236,160 L 74.90051271167161,160 L 74.92712456983145,160 L 74.95887959519122,160 L 76.44670647186678,160 L 76.47475196548305,160 L 76.50639946818359,160 L 77.99596462785006,160 L 78.01858022717512,160 L 78.05395518206237,160 L 79.54722987347232,160 L 79.57816055844464,160 L 79.61448529682175,160 L 81.09768869915035,160 L 81.1243005573102,160 L 81.15619894621561,160 L 82.64370325491348,57.14285714285715 L 82.66959829534511,57.14285714285715 L 82.70291239926374,57.14285714285715 L 84.18882178851634,57.14285714285715 L 84.21457346540232,57.14285714285715 L 84.24987673851675,57.14285714285715 L 85.7295856544203,57.14285714285715 L 85.76474556398908,57.14285714285715 L 85.80040724596759,57.14285714285715 L 87.28690800984597,57.14285714285715 L 87.30891431410205,57.14285714285715 L 87.34192377048618,57.14285714285715 L 88.83471460992962,57.14285714285715 L 88.86068133213408,57.14285714285715 L 88.89437176536,57.14285714285715 L 90.37773645167745,57.14285714285715 L 90.41721518805869,57.14285714285715 L 90.45070849640938,57.14285714285715 L 91.93208401353102,57.14285714285715 L 91.96469922016465,57.14285714285715 L 91.99781619920802,57.14285714285715 L 93.4836897475742,57.14285714285715 L 93.51368856949985,57.14285714285715 L 93.54644713967912,57.14285714285715 L 95.02848571319936,57.14285714285715 L 95.05939847772848,57.14285714285715 L 95.0913864688499,57.14285714285715 L 96.5752350071339,57.14285714285715 L 96.60627321476545,57.14285714285715 L 96.64075214749242,57.14285714285715 L 98.12635688921053,57.14285714285715 L 98.1615526396657,57.14285714285715 L 98.19547603865331,57.14285714285715 L 99.67369755777084,57.14285714285715 L 99.70362469792366,57.14285714285715 L 99.73127594178942,57.14285714285715 L 101.22648604106556,57.14285714285715 L 101.25827690731174,57.14285714285715 L 101.29325761244846,57.14285714285715 L 102.77036806408725,57.14285714285715 L 102.8024277369815,57.14285714285715 L 102.83894960023387,57.14285714285715 L 104.31914236810398,57.14285714285715 L 104.34921287180245,57.14285714285715 L 104.3822402486298,57.14285714285715 L 105.8681854787688,57.14285714285715 L 105.89538871155442,57.14285714285715 L 105.93117583663538,57.14285714285715 L 107.41733611209285,57.14285714285715 L 107.44640307097181,57.14285714285715 L 107.47620476802221,57.14285714285715 L 108.96709604048587,57.14285714285715 L 108.99211297920046,57.14285714285715 L 109.0244952200724,57.14285714285715 L 110.51061965464345,57.14285714285715 L 110.5344538441065,57.14285714285715 L 110.5622842924043,57.14285714285715 L 112.06209994558418,57.14285714285715 L 112.08948238280186,57.14285714285715 L 112.12575335984936,57.14285714285715 L 113.60960189813335,57.14285714285715 L 113.6375757099768,57.14285714285715 L 113.67182167694209,57.14285714285715 L 115.15235493323311,57.14285714285715 L 115.17799908745988,57.14285714285715 L 115.21185080467465,57.14285714285715 L 116.69738386461995,57.14285714285715 L 116.73012451435599,57.14285714285715 L 116.76281140276244,57.14285714285715 L 118.25183894913276,57.14285714285715 L 118.27780567133722,57.14285714285715 L 118.30907684473044,57.14285714285715 L 119.80136591176411,57.14285714285715 L 119.82736847485498,57.14285714285715 L 119.85876509135063,57.14285714285715 L 121.34639484315095,57.14285714285715 L 121.37603525621248,57.14285714285715 L 121.40727058871929,57.14285714285715 L 122.89970301929861,57.14285714285715 L 122.92790979690373,57.14285714285715 L 122.961367264368,57.14285714285715 L 124.4490507774979,57.14285714285715 L 124.47485621571352,57.14285714285715 L 124.5110734314314,57.14285714285715 L 125.99282527786038,57.14285714285715 L 126.01836190942791,57.14285714285715 L 126.04897002642254,57.14285714285715 L 127.54084692326249,57.14285714285715 L 127.56663444103489,57.14285714285715 L 127.59779809176888,57.14285714285715 L 129.0908756583036,57.14285714285715 L 129.11234434926354,57.14285714285715 L 129.14311375024698,57.14285714285715 L 130.63907650813775,57.14285714285715 L 130.66412928773875,57.14285714285715 L 130.68489908141368,57.14285714285715 L 132.18532402966255,57.14285714285715 L 132.20919406001198,57.14285714285715 L 132.2393900068129,57.14285714285715 L 133.7297615864236,57.14285714285715 L 133.7656562341638,57.14285714285715 L 133.7981818385814,57.14285714285715 L 135.28468260245972,57.14285714285715 L 135.31134822194923,57.14285714285715 L 135.34258355445604,57.14285714285715 L 136.83333146337407,57.14285714285715 L 136.85940570823772,57.14285714285715 L 136.88458393094118,57.14285714285715 L 138.38334227797196,57.14285714285715 L 138.40570699109213,57.14285714285715 L 138.4317453950694,57.14285714285715 L 139.9273676645393,57.14285714285715 L 139.95286845522043,57.14285714285715 L 139.98157700523527,57.14285714285715 L 141.4781848990814,57.14285714285715 L 141.50040624865596,57.14285714285715 L 141.53119357008265,57.14285714285715 L 143.01547219900357,57.14285714285715 L 143.04907303001346,57.14285714285715 L 143.080021635429,57.14285714285715 L 144.57523173470514,57.14285714285715 L 144.60397612560644,57.14285714285715 L 144.63318644803104,57.14285714285715 L 146.1244361293588,57.14285714285715 L 146.15438118995485,57.14285714285715 L 146.18807162318078,57.14285714285715 L 147.66785222085716,57.14285714285715 L 147.69299460267416,57.14285714285715 L 147.72177483446185,57.14285714285715 L 149.21655484310108,57.14285714285715 L 149.23526378580738,57.14285714285715 L 149.26818363997552,57.14285714285715 L 150.7659742830732,57.14285714285715 L 150.78857196195506,57.14285714285715 L 150.8193055220521,57.14285714285715 L 152.3159671772279,57.14285714285715 L 152.33860069699617,57.14285714285715 L 152.3654992822473,57.14285714285715 L 153.86169500589972,40 L 153.8846510936457,40 L 153.91411230227519,40 L 155.41150869562236,40 L 155.43532496464218,40 L 155.46853154590158,40 L 156.95098228961558,40 L 156.9843143139774,40 L 157.0169474410542,40 L 158.50880641745098,40 L 158.52631469046253,40 L 158.55617014884254,40 L 160.05433712124756,40 L 160.07883436710918,40 L 160.11105532399228,40 L 161.59635541817588,40 L 161.62850469328617,40 L 161.65723116374426,40 L 163.15156316130333,40 L 163.17684890666598,40 L 163.20460767319096,40 L 164.69768523972567,40 L 164.72248713312177,40 L 164.74755783316598,40 L 164.7872874557521,40 L 166.25160271094234,40 L 166.27776655802205,40 L 166.30496979080766,40 L 167.79887169772982,40 L 167.82496386303671,40 L 167.85347528817633,40 L 169.3464094911654,40 L 169.37042288506046,40 L 169.39782324272136,40 L 170.89018399152783,40 L 170.91903590508835,40 L 172.44938799349006,40 L 172.46691418694482,40 L 172.49472671479944,40 L 173.9900084958484,40 L 174.01468494614207,40 L 174.04518554047746,40 L 175.5379584594777,40 L 175.5620435351456,40 L 175.58912132482877,40 L 177.08899073933827,40 L 177.1148320184403,40 L 177.14721425931225,40 L 178.63892987216337,40 L 178.6667782409044,40 L 178.69347970128024,40 L 180.18983670892152,40 L 180.20696865262576,40 L 180.23598185017514,40 L 181.73278686889654,40 L 181.75518742290316,40 L 181.7808853384595,40 L 183.28079059385544,40 L 183.3016679101896,40 L 183.33333333333334,40" fill="none" stroke="none"/>
  </g>
  <!-- 🔓 Public Contributions Chart -->
  <g transform="translate(293.33333333333337, 250)">
    <!-- Chart Background -->
    <rect x="0" y="0" width="213.33333333333334" height="200" fill="#ffffff" stroke="#e2e8f0" stroke-width="1" rx="8" filter="url(#shadow)">
      <animate attributeName="opacity" values="0;1" dur="0.5s" begin="2.3s" fill="freeze"/>
    </rect>
    
    <!-- Chart Title -->
    <text x="106.66666666666667" y="25" text-anchor="middle" fill="#1e293b" font-size="14" font-weight="bold" font-family="Arial, sans-serif">
      🔓 Public Contributions
      <animate attributeName="opacity" values="0;1" dur="0.5s" begin="2.5s" fill="freeze"/>
    </text>
    
    <!-- Y-axis labels -->
    <text x="10" y="45" fill="#64748b" font-size="10" font-family="Arial, sans-serif">2,669
      <animate attributeName="opacity" values="0;1" dur="0.5s" begin="2.6999999999999997s" fill="freeze"/>
    </text>
    <text x="10" y="185" fill="#64748b" font-size="10" font-family="Arial, sans-serif">1,491
      <animate attributeName="opacity" values="0;1" dur="0.5s" begin="2.6999999999999997s" fill="freeze"/>
    </text>
    
    <!-- Chart Line with draw animation that follows the circle -->
    <path d="M 30,160 L 30.024067155224696,160 L 30.055535453493178,160 L 31.545387340250937,160 L 31.571587028217063,160 L 31.604309757509913,160 L 33.093283542550616,160 L 33.12224297877035,160 L 33.15181171005907,160 L 34.64164567637363,160 L 34.667881205226166,160 L 34.69942118526746,160 L 36.19380694415616,160 L 36.2231068687968,160 L 36.25389419022348,160 L 37.74276045260495,160 L 37.76831500461569,160 L 37.80035675706673,160 L 39.289742712301155,160 L 39.3126271182743,160 L 39.34051132790172,160 L 40.83661744933813,160 L 40.86512887447773,160 L 40.89374782227658,160 L 42.38295457307895,160 L 42.41040869206944,160 L 42.44184114945151,160 L 43.929721787456685,160 L 43.95559890744512,160 L 43.99040040814978,160 L 45.473621730921586,160 L 45.50471369988276,160 L 45.5357160666279,160 L 47.03054983659672,160 L 47.06024401098789,160 L 47.093522274020096,160 L 48.58124162803642,160 L 48.606204805421385,160 L 48.639644352442446,160 L 50.12610927543441,160 L 50.16008643575162,160 L 50.19589148127579,160 L 51.67470437501909,160 L 51.70043813146188,160 L 51.73213939549203,160 L 53.22579041620931,160 L 53.247975924897446,160 L 53.280340245326194,160 L 54.76981580277664,160 L 54.796212615618025,160 L 54.82750170945445,160 L 56.31756864153068,160 L 56.34416257924732,160 L 56.37514702554925,160 L 57.870464647484624,160 L 57.89766788027025,160 L 57.93352668712402,160 L 59.41649712369095,160 L 59.44977538672316,160 L 59.47154872521759,160 L 60.96355106515998,160 L 60.989822434898926,160 L 61.022401800646136,160 L 62.506590827351026,160 L 62.54185825957902,160 L 62.57219756992557,160 L 64.06185233180807,160 L 64.08894804193446,160 L 64.12095395349911,160 L 65.6116122602011,160 L 65.63817035703133,160 L 65.66709395236467,160 L 67.15984895092168,160 L 67.1870521837073,160 L 67.21561737017652,160 L 68.70738674435725,160 L 68.7394284968083,160 L 68.77240211230603,160 L 70.25531878754333,160 L 70.28495920060487,160 L 70.31838082718272,160 L 71.79497158596857,160 L 71.83461160633865,160 L 71.86710136986986,160 L 73.35188177120051,160 L 73.38028567368089,160 L 73.4111625973236,160 L 74.90051271167161,160 L 74.92712456983145,160 L 74.95887959519122,160 L 76.44670647186678,160 L 76.47475196548305,160 L 76.50639946818359,160 L 77.99596462785006,160 L 78.01858022717512,160 L 78.05395518206237,160 L 79.54722987347232,160 L 79.57816055844464,160 L 79.61448529682175,160 L 81.09768869915035,160 L 81.1243005573102,160 L 81.15619894621561,160 L 82.64370325491348,133.3106960950764 L 82.66959829534511,133.3106960950764 L 82.70291239926374,133.3106960950764 L 84.18882178851634,133.3106960950764 L 84.21457346540232,133.3106960950764 L 84.24987673851675,133.3106960950764 L 85.7295856544203,133.3106960950764 L 85.76474556398908,133.3106960950764 L 85.80040724596759,133.3106960950764 L 87.28690800984597,133.3106960950764 L 87.30891431410205,133.3106960950764 L 87.34192377048618,133.3106960950764 L 88.83471460992962,133.3106960950764 L 88.86068133213408,133.3106960950764 L 88.89437176536,133.3106960950764 L 90.37773645167745,133.3106960950764 L 90.41721518805869,133.3106960950764 L 90.45070849640938,133.3106960950764 L 91.93208401353102,133.3106960950764 L 91.96469922016465,133.3106960950764 L 91.99781619920802,133.3106960950764 L 93.4836897475742,133.3106960950764 L 93.51368856949985,133.3106960950764 L 93.54644713967912,133.3106960950764 L 95.02848571319936,133.3106960950764 L 95.05939847772848,133.3106960950764 L 95.0913864688499,133.3106960950764 L 96.5752350071339,133.3106960950764 L 96.60627321476545,133.3106960950764 L 96.64075214749242,133.3106960950764 L 98.12635688921053,133.3106960950764 L 98.1615526396657,133.3106960950764 L 98.19547603865331,133.3106960950764 L 99.67369755777084,133.3106960950764 L 99.70362469792366,133.3106960950764 L 99.73127594178942,133.3106960950764 L 101.22648604106556,133.3106960950764 L 101.25827690731174,133.3106960950764 L 101.29325761244846,133.3106960950764 L 102.77036806408725,133.3106960950764 L 102.8024277369815,133.3106960950764 L 102.83894960023387,133.3106960950764 L 104.31914236810398,133.3106960950764 L 104.34921287180245,133.3106960950764 L 104.3822402486298,133.3106960950764 L 105.8681854787688,133.3106960950764 L 105.89538871155442,133.3106960950764 L 105.93117583663538,133.3106960950764 L 107.41733611209285,133.3106960950764 L 107.44640307097181,133.3106960950764 L 107.47620476802221,133.3106960950764 L 108.96709604048587,133.3106960950764 L 108.99211297920046,133.3106960950764 L 109.0244952200724,133.3106960950764 L 110.51061965464345,133.3106960950764 L 110.5344538441065,133.3106960950764 L 110.5622842924043,133.3106960950764 L 112.06209994558418,133.3106960950764 L 112.08948238280186,133.3106960950764 L 112.12575335984936,133.3106960950764 L 113.60960189813335,133.3106960950764 L 113.6375757099768,133.3106960950764 L 113.67182167694209,133.3106960950764 L 115.15235493323311,133.3106960950764 L 115.17799908745988,133.3106960950764 L 115.21185080467465,133.3106960950764 L 116.69738386461995,133.3106960950764 L 116.73012451435599,133.3106960950764 L 116.76281140276244,133.3106960950764 L 118.25183894913276,133.3106960950764 L 118.27780567133722,133.3106960950764 L 118.30907684473044,133.3106960950764 L 119.80136591176411,133.3106960950764 L 119.82736847485498,133.3106960950764 L 119.85876509135063,133.3106960950764 L 121.34639484315095,133.3106960950764 L 121.37603525621248,133.3106960950764 L 121.40727058871929,133.3106960950764 L 122.89970301929861,133.3106960950764 L 122.92790979690373,133.3106960950764 L 122.961367264368,133.3106960950764 L 124.4490507774979,133.3106960950764 L 124.47485621571352,133.3106960950764 L 124.5110734314314,133.3106960950764 L 125.99282527786038,133.3106960950764 L 126.01836190942791,133.3106960950764 L 126.04897002642254,133.3106960950764 L 127.54084692326249,133.3106960950764 L 127.56663444103489,133.3106960950764 L 127.59779809176888,133.3106960950764 L 129.0908756583036,133.3106960950764 L 129.11234434926354,133.3106960950764 L 129.14311375024698,133.3106960950764 L 130.63907650813775,133.3106960950764 L 130.66412928773875,133.3106960950764 L 130.68489908141368,133.3106960950764 L 132.18532402966255,133.3106960950764 L 132.20919406001198,133.3106960950764 L 132.2393900068129,133.3106960950764 L 133.7297615864236,133.3106960950764 L 133.7656562341638,133.3106960950764 L 133.7981818385814,133.3106960950764 L 135.28468260245972,133.3106960950764 L 135.31134822194923,133.3106960950764 L 135.34258355445604,133.3106960950764 L 136.83333146337407,133.3106960950764 L 136.85940570823772,133.3106960950764 L 136.88458393094118,133.3106960950764 L 138.38334227797196,133.3106960950764 L 138.40570699109213,133.3106960950764 L 138.4317453950694,133.3106960950764 L 139.9273676645393,133.3106960950764 L 139.95286845522043,133.3106960950764 L 139.98157700523527,133.3106960950764 L 141.4781848990814,133.3106960950764 L 141.50040624865596,133.3106960950764 L 141.53119357008265,133.3106960950764 L 143.01547219900357,133.3106960950764 L 143.04907303001346,133.3106960950764 L 143.080021635429,133.3106960950764 L 144.57523173470514,133.3106960950764 L 144.60397612560644,133.3106960950764 L 144.63318644803104,133.3106960950764 L 146.1244361293588,133.3106960950764 L 146.15438118995485,133.3106960950764 L 146.18807162318078,133.3106960950764 L 147.66785222085716,133.3106960950764 L 147.69299460267416,133.3106960950764 L 147.72177483446185,133.3106960950764 L 149.21655484310108,133.3106960950764 L 149.23526378580738,133.3106960950764 L 149.26818363997552,133.3106960950764 L 150.7659742830732,133.3106960950764 L 150.78857196195506,133.3106960950764 L 150.8193055220521,133.3106960950764 L 152.3159671772279,133.3106960950764 L 152.33860069699617,133.3106960950764 L 152.3654992822473,133.3106960950764 L 153.86169500589972,40 L 153.8846510936457,40 L 153.91411230227519,40 L 155.41150869562236,40 L 155.43532496464218,40 L 155.46853154590158,40 L 156.95098228961558,40 L 156.9843143139774,40 L 157.0169474410542,40 L 158.50880641745098,40 L 158.52631469046253,40 L 158.55617014884254,40 L 160.05433712124756,40 L 160.07883436710918,40 L 160.11105532399228,40 L 161.59635541817588,40 L 161.62850469328617,40 L 161.65723116374426,40 L 163.15156316130333,40 L 163.17684890666598,40 L 163.20460767319096,40 L 164.69768523972567,40 L 164.72248713312177,40 L 164.74755783316598,40 L 164.7872874557521,40 L 166.25160271094234,40 L 166.27776655802205,40 L 166.30496979080766,40 L 167.79887169772982,40 L 167.82496386303671,40 L 167.85347528817633,40 L 169.3464094911654,40 L 169.37042288506046,40 L 169.39782324272136,40 L 170.89018399152783,40 L 170.91903590508835,40 L 172.44938799349006,40 L 172.46691418694482,40 L 172.49472671479944,40 L 173.9900084958484,40 L 174.01468494614207,40 L 174.04518554047746,40 L 175.5379584594777,40 L 175.5620435351456,40 L 175.58912132482877,40 L 177.08899073933827,40 L 177.1148320184403,40 L 177.14721425931225,40 L 178.63892987216337,40 L 178.6667782409044,40 L 178.69347970128024,40 L 180.18983670892152,40 L 180.20696865262576,40 L 180.23598185017514,40 L 181.73278686889654,40 L 181.75518742290316,40 L 181.7808853384595,40 L 183.28079059385544,40 L 183.3016679101896,40 L 183.33333333333334,40" stroke="#3b82f6" stroke-width="2" fill="none" stroke-dasharray="15000" stroke-dashoffset="15000">
      <animate attributeName="stroke-dashoffset" values="15000;0" dur="3s" begin="3.0999999999999996s" fill="freeze"/>
    </path>
    
    <!-- Glow effect for the line that also follows the circle -->
    <path d="M 30,160 L 30.024067155224696,160 L 30.055535453493178,160 L 31.545387340250937,160 L 31.571587028217063,160 L 31.604309757509913,160 L 33.093283542550616,160 L 33.12224297877035,160 L 33.15181171005907,160 L 34.64164567637363,160 L 34.667881205226166,160 L 34.69942118526746,160 L 36.19380694415616,160 L 36.2231068687968,160 L 36.25389419022348,160 L 37.74276045260495,160 L 37.76831500461569,160 L 37.80035675706673,160 L 39.289742712301155,160 L 39.3126271182743,160 L 39.34051132790172,160 L 40.83661744933813,160 L 40.86512887447773,160 L 40.89374782227658,160 L 42.38295457307895,160 L 42.41040869206944,160 L 42.44184114945151,160 L 43.929721787456685,160 L 43.95559890744512,160 L 43.99040040814978,160 L 45.473621730921586,160 L 45.50471369988276,160 L 45.5357160666279,160 L 47.03054983659672,160 L 47.06024401098789,160 L 47.093522274020096,160 L 48.58124162803642,160 L 48.606204805421385,160 L 48.639644352442446,160 L 50.12610927543441,160 L 50.16008643575162,160 L 50.19589148127579,160 L 51.67470437501909,160 L 51.70043813146188,160 L 51.73213939549203,160 L 53.22579041620931,160 L 53.247975924897446,160 L 53.280340245326194,160 L 54.76981580277664,160 L 54.796212615618025,160 L 54.82750170945445,160 L 56.31756864153068,160 L 56.34416257924732,160 L 56.37514702554925,160 L 57.870464647484624,160 L 57.89766788027025,160 L 57.93352668712402,160 L 59.41649712369095,160 L 59.44977538672316,160 L 59.47154872521759,160 L 60.96355106515998,160 L 60.989822434898926,160 L 61.022401800646136,160 L 62.506590827351026,160 L 62.54185825957902,160 L 62.57219756992557,160 L 64.06185233180807,160 L 64.08894804193446,160 L 64.12095395349911,160 L 65.6116122602011,160 L 65.63817035703133,160 L 65.66709395236467,160 L 67.15984895092168,160 L 67.1870521837073,160 L 67.21561737017652,160 L 68.70738674435725,160 L 68.7394284968083,160 L 68.77240211230603,160 L 70.25531878754333,160 L 70.28495920060487,160 L 70.31838082718272,160 L 71.79497158596857,160 L 71.83461160633865,160 L 71.86710136986986,160 L 73.35188177120051,160 L 73.38028567368089,160 L 73.4111625973236,160 L 74.90051271167161,160 L 74.92712456983145,160 L 74.95887959519122,160 L 76.44670647186678,160 L 76.47475196548305,160 L 76.50639946818359,160 L 77.99596462785006,160 L 78.01858022717512,160 L 78.05395518206237,160 L 79.54722987347232,160 L 79.57816055844464,160 L 79.61448529682175,160 L 81.09768869915035,160 L 81.1243005573102,160 L 81.15619894621561,160 L 82.64370325491348,133.3106960950764 L 82.66959829534511,133.3106960950764 L 82.70291239926374,133.3106960950764 L 84.18882178851634,133.3106960950764 L 84.21457346540232,133.3106960950764 L 84.24987673851675,133.3106960950764 L 85.7295856544203,133.3106960950764 L 85.76474556398908,133.3106960950764 L 85.80040724596759,133.3106960950764 L 87.28690800984597,133.3106960950764 L 87.30891431410205,133.3106960950764 L 87.34192377048618,133.3106960950764 L 88.83471460992962,133.3106960950764 L 88.86068133213408,133.3106960950764 L 88.89437176536,133.3106960950764 L 90.37773645167745,133.3106960950764 L 90.41721518805869,133.3106960950764 L 90.45070849640938,133.3106960950764 L 91.93208401353102,133.3106960950764 L 91.96469922016465,133.3106960950764 L 91.99781619920802,133.3106960950764 L 93.4836897475742,133.3106960950764 L 93.51368856949985,133.3106960950764 L 93.54644713967912,133.3106960950764 L 95.02848571319936,133.3106960950764 L 95.05939847772848,133.3106960950764 L 95.0913864688499,133.3106960950764 L 96.5752350071339,133.3106960950764 L 96.60627321476545,133.3106960950764 L 96.64075214749242,133.3106960950764 L 98.12635688921053,133.3106960950764 L 98.1615526396657,133.3106960950764 L 98.19547603865331,133.3106960950764 L 99.67369755777084,133.3106960950764 L 99.70362469792366,133.3106960950764 L 99.73127594178942,133.3106960950764 L 101.22648604106556,133.3106960950764 L 101.25827690731174,133.3106960950764 L 101.29325761244846,133.3106960950764 L 102.77036806408725,133.3106960950764 L 102.8024277369815,133.3106960950764 L 102.83894960023387,133.3106960950764 L 104.31914236810398,133.3106960950764 L 104.34921287180245,133.3106960950764 L 104.3822402486298,133.3106960950764 L 105.8681854787688,133.3106960950764 L 105.89538871155442,133.3106960950764 L 105.93117583663538,133.3106960950764 L 107.41733611209285,133.3106960950764 L 107.44640307097181,133.3106960950764 L 107.47620476802221,133.3106960950764 L 108.96709604048587,133.3106960950764 L 108.99211297920046,133.3106960950764 L 109.0244952200724,133.3106960950764 L 110.51061965464345,133.3106960950764 L 110.5344538441065,133.3106960950764 L 110.5622842924043,133.3106960950764 L 112.06209994558418,133.3106960950764 L 112.08948238280186,133.3106960950764 L 112.12575335984936,133.3106960950764 L 113.60960189813335,133.3106960950764 L 113.6375757099768,133.3106960950764 L 113.67182167694209,133.3106960950764 L 115.15235493323311,133.3106960950764 L 115.17799908745988,133.3106960950764 L 115.21185080467465,133.3106960950764 L 116.69738386461995,133.3106960950764 L 116.73012451435599,133.3106960950764 L 116.76281140276244,133.3106960950764 L 118.25183894913276,133.3106960950764 L 118.27780567133722,133.3106960950764 L 118.30907684473044,133.3106960950764 L 119.80136591176411,133.3106960950764 L 119.82736847485498,133.3106960950764 L 119.85876509135063,133.3106960950764 L 121.34639484315095,133.3106960950764 L 121.37603525621248,133.3106960950764 L 121.40727058871929,133.3106960950764 L 122.89970301929861,133.3106960950764 L 122.92790979690373,133.3106960950764 L 122.961367264368,133.3106960950764 L 124.4490507774979,133.3106960950764 L 124.47485621571352,133.3106960950764 L 124.5110734314314,133.3106960950764 L 125.99282527786038,133.3106960950764 L 126.01836190942791,133.3106960950764 L 126.04897002642254,133.3106960950764 L 127.54084692326249,133.3106960950764 L 127.56663444103489,133.3106960950764 L 127.59779809176888,133.3106960950764 L 129.0908756583036,133.3106960950764 L 129.11234434926354,133.3106960950764 L 129.14311375024698,133.3106960950764 L 130.63907650813775,133.3106960950764 L 130.66412928773875,133.3106960950764 L 130.68489908141368,133.3106960950764 L 132.18532402966255,133.3106960950764 L 132.20919406001198,133.3106960950764 L 132.2393900068129,133.3106960950764 L 133.7297615864236,133.3106960950764 L 133.7656562341638,133.3106960950764 L 133.7981818385814,133.3106960950764 L 135.28468260245972,133.3106960950764 L 135.31134822194923,133.3106960950764 L 135.34258355445604,133.3106960950764 L 136.83333146337407,133.3106960950764 L 136.85940570823772,133.3106960950764 L 136.88458393094118,133.3106960950764 L 138.38334227797196,133.3106960950764 L 138.40570699109213,133.3106960950764 L 138.4317453950694,133.3106960950764 L 139.9273676645393,133.3106960950764 L 139.95286845522043,133.3106960950764 L 139.98157700523527,133.3106960950764 L 141.4781848990814,133.3106960950764 L 141.50040624865596,133.3106960950764 L 141.53119357008265,133.3106960950764 L 143.01547219900357,133.3106960950764 L 143.04907303001346,133.3106960950764 L 143.080021635429,133.3106960950764 L 144.57523173470514,133.3106960950764 L 144.60397612560644,133.3106960950764 L 144.63318644803104,133.3106960950764 L 146.1244361293588,133.3106960950764 L 146.15438118995485,133.3106960950764 L 146.18807162318078,133.3106960950764 L 147.66785222085716,133.3106960950764 L 147.69299460267416,133.3106960950764 L 147.72177483446185,133.3106960950764 L 149.21655484310108,133.3106960950764 L 149.23526378580738,133.3106960950764 L 149.26818363997552,133.3106960950764 L 150.7659742830732,133.3106960950764 L 150.78857196195506,133.3106960950764 L 150.8193055220521,133.3106960950764 L 152.3159671772279,133.3106960950764 L 152.33860069699617,133.3106960950764 L 152.3654992822473,133.3106960950764 L 153.86169500589972,40 L 153.8846510936457,40 L 153.91411230227519,40 L 155.41150869562236,40 L 155.43532496464218,40 L 155.46853154590158,40 L 156.95098228961558,40 L 156.9843143139774,40 L 157.0169474410542,40 L 158.50880641745098,40 L 158.52631469046253,40 L 158.55617014884254,40 L 160.05433712124756,40 L 160.07883436710918,40 L 160.11105532399228,40 L 161.59635541817588,40 L 161.62850469328617,40 L 161.65723116374426,40 L 163.15156316130333,40 L 163.17684890666598,40 L 163.20460767319096,40 L 164.69768523972567,40 L 164.72248713312177,40 L 164.74755783316598,40 L 164.7872874557521,40 L 166.25160271094234,40 L 166.27776655802205,40 L 166.30496979080766,40 L 167.79887169772982,40 L 167.82496386303671,40 L 167.85347528817633,40 L 169.3464094911654,40 L 169.37042288506046,40 L 169.39782324272136,40 L 170.89018399152783,40 L 170.91903590508835,40 L 172.44938799349006,40 L 172.46691418694482,40 L 172.49472671479944,40 L 173.9900084958484,40 L 174.01468494614207,40 L 174.04518554047746,40 L 175.5379584594777,40 L 175.5620435351456,40 L 175.58912132482877,40 L 177.08899073933827,40 L 177.1148320184403,40 L 177.14721425931225,40 L 178.63892987216337,40 L 178.6667782409044,40 L 178.69347970128024,40 L 180.18983670892152,40 L 180.20696865262576,40 L 180.23598185017514,40 L 181.73278686889654,40 L 181.75518742290316,40 L 181.7808853384595,40 L 183.28079059385544,40 L 183.3016679101896,40 L 183.33333333333334,40" stroke="#3b82f6" stroke-width="4" fill="none" opacity="0.4" stroke-dasharray="15000" stroke-dashoffset="15000">
      <animate attributeName="stroke-dashoffset" values="15000;0" dur="3s" begin="3.0999999999999996s" fill="freeze"/>
    </path>
    
    <!-- Animated circle that moves along the path and draws the line -->
    <circle r="5" fill="#3b82f6" opacity="0" filter="url(#trailGlow)">
      <animate attributeName="opacity" values="0;1;1;1" dur="3.2s" begin="2.9s" fill="freeze"/>
      <animate attributeName="r" values="5;6;5" dur="1s" begin="2.9s" repeatCount="3"/>
      <animateMotion dur="3s" begin="2.9s" fill="freeze">
        <mpath href="#path_publicContributions_293.33333333333337"/>
      </animateMotion>
    </circle>
    
    <!-- Small trail dots that fade out -->
    <circle r="2" fill="#3b82f6" opacity="0">
      <animate attributeName="opacity" values="0;0.6;0" dur="0.8s" begin="3.3s" fill="freeze"/>
      <animateMotion dur="3s" begin="2.9s" fill="freeze">
        <mpath href="#path_publicContributions_293.33333333333337"/>
      </animateMotion>
    </circle>
    
    <!-- Hidden path for motion animation -->
    <path id="path_publicContributions_293.33333333333337" d="M 30,160 L 30.024067155224696,160 L 30.055535453493178,160 L 31.545387340250937,160 L 31.571587028217063,160 L 31.604309757509913,160 L 33.093283542550616,160 L 33.12224297877035,160 L 33.15181171005907,160 L 34.64164567637363,160 L 34.667881205226166,160 L 34.69942118526746,160 L 36.19380694415616,160 L 36.2231068687968,160 L 36.25389419022348,160 L 37.74276045260495,160 L 37.76831500461569,160 L 37.80035675706673,160 L 39.289742712301155,160 L 39.3126271182743,160 L 39.34051132790172,160 L 40.83661744933813,160 L 40.86512887447773,160 L 40.89374782227658,160 L 42.38295457307895,160 L 42.41040869206944,160 L 42.44184114945151,160 L 43.929721787456685,160 L 43.95559890744512,160 L 43.99040040814978,160 L 45.473621730921586,160 L 45.50471369988276,160 L 45.5357160666279,160 L 47.03054983659672,160 L 47.06024401098789,160 L 47.093522274020096,160 L 48.58124162803642,160 L 48.606204805421385,160 L 48.639644352442446,160 L 50.12610927543441,160 L 50.16008643575162,160 L 50.19589148127579,160 L 51.67470437501909,160 L 51.70043813146188,160 L 51.73213939549203,160 L 53.22579041620931,160 L 53.247975924897446,160 L 53.280340245326194,160 L 54.76981580277664,160 L 54.796212615618025,160 L 54.82750170945445,160 L 56.31756864153068,160 L 56.34416257924732,160 L 56.37514702554925,160 L 57.870464647484624,160 L 57.89766788027025,160 L 57.93352668712402,160 L 59.41649712369095,160 L 59.44977538672316,160 L 59.47154872521759,160 L 60.96355106515998,160 L 60.989822434898926,160 L 61.022401800646136,160 L 62.506590827351026,160 L 62.54185825957902,160 L 62.57219756992557,160 L 64.06185233180807,160 L 64.08894804193446,160 L 64.12095395349911,160 L 65.6116122602011,160 L 65.63817035703133,160 L 65.66709395236467,160 L 67.15984895092168,160 L 67.1870521837073,160 L 67.21561737017652,160 L 68.70738674435725,160 L 68.7394284968083,160 L 68.77240211230603,160 L 70.25531878754333,160 L 70.28495920060487,160 L 70.31838082718272,160 L 71.79497158596857,160 L 71.83461160633865,160 L 71.86710136986986,160 L 73.35188177120051,160 L 73.38028567368089,160 L 73.4111625973236,160 L 74.90051271167161,160 L 74.92712456983145,160 L 74.95887959519122,160 L 76.44670647186678,160 L 76.47475196548305,160 L 76.50639946818359,160 L 77.99596462785006,160 L 78.01858022717512,160 L 78.05395518206237,160 L 79.54722987347232,160 L 79.57816055844464,160 L 79.61448529682175,160 L 81.09768869915035,160 L 81.1243005573102,160 L 81.15619894621561,160 L 82.64370325491348,133.3106960950764 L 82.66959829534511,133.3106960950764 L 82.70291239926374,133.3106960950764 L 84.18882178851634,133.3106960950764 L 84.21457346540232,133.3106960950764 L 84.24987673851675,133.3106960950764 L 85.7295856544203,133.3106960950764 L 85.76474556398908,133.3106960950764 L 85.80040724596759,133.3106960950764 L 87.28690800984597,133.3106960950764 L 87.30891431410205,133.3106960950764 L 87.34192377048618,133.3106960950764 L 88.83471460992962,133.3106960950764 L 88.86068133213408,133.3106960950764 L 88.89437176536,133.3106960950764 L 90.37773645167745,133.3106960950764 L 90.41721518805869,133.3106960950764 L 90.45070849640938,133.3106960950764 L 91.93208401353102,133.3106960950764 L 91.96469922016465,133.3106960950764 L 91.99781619920802,133.3106960950764 L 93.4836897475742,133.3106960950764 L 93.51368856949985,133.3106960950764 L 93.54644713967912,133.3106960950764 L 95.02848571319936,133.3106960950764 L 95.05939847772848,133.3106960950764 L 95.0913864688499,133.3106960950764 L 96.5752350071339,133.3106960950764 L 96.60627321476545,133.3106960950764 L 96.64075214749242,133.3106960950764 L 98.12635688921053,133.3106960950764 L 98.1615526396657,133.3106960950764 L 98.19547603865331,133.3106960950764 L 99.67369755777084,133.3106960950764 L 99.70362469792366,133.3106960950764 L 99.73127594178942,133.3106960950764 L 101.22648604106556,133.3106960950764 L 101.25827690731174,133.3106960950764 L 101.29325761244846,133.3106960950764 L 102.77036806408725,133.3106960950764 L 102.8024277369815,133.3106960950764 L 102.83894960023387,133.3106960950764 L 104.31914236810398,133.3106960950764 L 104.34921287180245,133.3106960950764 L 104.3822402486298,133.3106960950764 L 105.8681854787688,133.3106960950764 L 105.89538871155442,133.3106960950764 L 105.93117583663538,133.3106960950764 L 107.41733611209285,133.3106960950764 L 107.44640307097181,133.3106960950764 L 107.47620476802221,133.3106960950764 L 108.96709604048587,133.3106960950764 L 108.99211297920046,133.3106960950764 L 109.0244952200724,133.3106960950764 L 110.51061965464345,133.3106960950764 L 110.5344538441065,133.3106960950764 L 110.5622842924043,133.3106960950764 L 112.06209994558418,133.3106960950764 L 112.08948238280186,133.3106960950764 L 112.12575335984936,133.3106960950764 L 113.60960189813335,133.3106960950764 L 113.6375757099768,133.3106960950764 L 113.67182167694209,133.3106960950764 L 115.15235493323311,133.3106960950764 L 115.17799908745988,133.3106960950764 L 115.21185080467465,133.3106960950764 L 116.69738386461995,133.3106960950764 L 116.73012451435599,133.3106960950764 L 116.76281140276244,133.3106960950764 L 118.25183894913276,133.3106960950764 L 118.27780567133722,133.3106960950764 L 118.30907684473044,133.3106960950764 L 119.80136591176411,133.3106960950764 L 119.82736847485498,133.3106960950764 L 119.85876509135063,133.3106960950764 L 121.34639484315095,133.3106960950764 L 121.37603525621248,133.3106960950764 L 121.40727058871929,133.3106960950764 L 122.89970301929861,133.3106960950764 L 122.92790979690373,133.3106960950764 L 122.961367264368,133.3106960950764 L 124.4490507774979,133.3106960950764 L 124.47485621571352,133.3106960950764 L 124.5110734314314,133.3106960950764 L 125.99282527786038,133.3106960950764 L 126.01836190942791,133.3106960950764 L 126.04897002642254,133.3106960950764 L 127.54084692326249,133.3106960950764 L 127.56663444103489,133.3106960950764 L 127.59779809176888,133.3106960950764 L 129.0908756583036,133.3106960950764 L 129.11234434926354,133.3106960950764 L 129.14311375024698,133.3106960950764 L 130.63907650813775,133.3106960950764 L 130.66412928773875,133.3106960950764 L 130.68489908141368,133.3106960950764 L 132.18532402966255,133.3106960950764 L 132.20919406001198,133.3106960950764 L 132.2393900068129,133.3106960950764 L 133.7297615864236,133.3106960950764 L 133.7656562341638,133.3106960950764 L 133.7981818385814,133.3106960950764 L 135.28468260245972,133.3106960950764 L 135.31134822194923,133.3106960950764 L 135.34258355445604,133.3106960950764 L 136.83333146337407,133.3106960950764 L 136.85940570823772,133.3106960950764 L 136.88458393094118,133.3106960950764 L 138.38334227797196,133.3106960950764 L 138.40570699109213,133.3106960950764 L 138.4317453950694,133.3106960950764 L 139.9273676645393,133.3106960950764 L 139.95286845522043,133.3106960950764 L 139.98157700523527,133.3106960950764 L 141.4781848990814,133.3106960950764 L 141.50040624865596,133.3106960950764 L 141.53119357008265,133.3106960950764 L 143.01547219900357,133.3106960950764 L 143.04907303001346,133.3106960950764 L 143.080021635429,133.3106960950764 L 144.57523173470514,133.3106960950764 L 144.60397612560644,133.3106960950764 L 144.63318644803104,133.3106960950764 L 146.1244361293588,133.3106960950764 L 146.15438118995485,133.3106960950764 L 146.18807162318078,133.3106960950764 L 147.66785222085716,133.3106960950764 L 147.69299460267416,133.3106960950764 L 147.72177483446185,133.3106960950764 L 149.21655484310108,133.3106960950764 L 149.23526378580738,133.3106960950764 L 149.26818363997552,133.3106960950764 L 150.7659742830732,133.3106960950764 L 150.78857196195506,133.3106960950764 L 150.8193055220521,133.3106960950764 L 152.3159671772279,133.3106960950764 L 152.33860069699617,133.3106960950764 L 152.3654992822473,133.3106960950764 L 153.86169500589972,40 L 153.8846510936457,40 L 153.91411230227519,40 L 155.41150869562236,40 L 155.43532496464218,40 L 155.46853154590158,40 L 156.95098228961558,40 L 156.9843143139774,40 L 157.0169474410542,40 L 158.50880641745098,40 L 158.52631469046253,40 L 158.55617014884254,40 L 160.05433712124756,40 L 160.07883436710918,40 L 160.11105532399228,40 L 161.59635541817588,40 L 161.62850469328617,40 L 161.65723116374426,40 L 163.15156316130333,40 L 163.17684890666598,40 L 163.20460767319096,40 L 164.69768523972567,40 L 164.72248713312177,40 L 164.74755783316598,40 L 164.7872874557521,40 L 166.25160271094234,40 L 166.27776655802205,40 L 166.30496979080766,40 L 167.79887169772982,40 L 167.82496386303671,40 L 167.85347528817633,40 L 169.3464094911654,40 L 169.37042288506046,40 L 169.39782324272136,40 L 170.89018399152783,40 L 170.91903590508835,40 L 172.44938799349006,40 L 172.46691418694482,40 L 172.49472671479944,40 L 173.9900084958484,40 L 174.01468494614207,40 L 174.04518554047746,40 L 175.5379584594777,40 L 175.5620435351456,40 L 175.58912132482877,40 L 177.08899073933827,40 L 177.1148320184403,40 L 177.14721425931225,40 L 178.63892987216337,40 L 178.6667782409044,40 L 178.69347970128024,40 L 180.18983670892152,40 L 180.20696865262576,40 L 180.23598185017514,40 L 181.73278686889654,40 L 181.75518742290316,40 L 181.7808853384595,40 L 183.28079059385544,40 L 183.3016679101896,40 L 183.33333333333334,40" fill="none" stroke="none"/>
  </g>
  <!-- 📊 Total Contributions Chart -->
  <g transform="translate(526.6666666666667, 250)">
    <!-- Chart Background -->
    <rect x="0" y="0" width="213.33333333333334" height="200" fill="#ffffff" stroke="#e2e8f0" stroke-width="1" rx="8" filter="url(#shadow)">
      <animate attributeName="opacity" values="0;1" dur="0.5s" begin="2.8s" fill="freeze"/>
    </rect>
    
    <!-- Chart Title -->
    <text x="106.66666666666667" y="25" text-anchor="middle" fill="#1e293b" font-size="14" font-weight="bold" font-family="Arial, sans-serif">
      📊 Total Contributions
      <animate attributeName="opacity" values="0;1" dur="0.5s" begin="3s" fill="freeze"/>
    </text>
    
    <!-- Y-axis labels -->
    <text x="10" y="45" fill="#64748b" font-size="10" font-family="Arial, sans-serif">3,802
      <animate attributeName="opacity" values="0;1" dur="0.5s" begin="3.1999999999999997s" fill="freeze"/>
    </text>
    <text x="10" y="185" fill="#64748b" font-size="10" font-family="Arial, sans-serif">2,320
      <animate attributeName="opacity" values="0;1" dur="0.5s" begin="3.1999999999999997s" fill="freeze"/>
    </text>
    
    <!-- Chart Line with draw animation that follows the circle -->
    <path d="M 30,160 L 30.024067155224696,160 L 30.055535453493178,160 L 31.545387340250937,160 L 31.571587028217063,160 L 31.604309757509913,160 L 33.093283542550616,160 L 33.12224297877035,160 L 33.15181171005907,160 L 34.64164567637363,160 L 34.667881205226166,160 L 34.69942118526746,160 L 36.19380694415616,160 L 36.2231068687968,160 L 36.25389419022348,160 L 37.74276045260495,160 L 37.76831500461569,160 L 37.80035675706673,160 L 39.289742712301155,160 L 39.3126271182743,160 L 39.34051132790172,160 L 40.83661744933813,160 L 40.86512887447773,160 L 40.89374782227658,160 L 42.38295457307895,160 L 42.41040869206944,160 L 42.44184114945151,160 L 43.929721787456685,160 L 43.95559890744512,160 L 43.99040040814978,160 L 45.473621730921586,160 L 45.50471369988276,160 L 45.5357160666279,160 L 47.03054983659672,160 L 47.06024401098789,160 L 47.093522274020096,160 L 48.58124162803642,160 L 48.606204805421385,160 L 48.639644352442446,160 L 50.12610927543441,160 L 50.16008643575162,160 L 50.19589148127579,160 L 51.67470437501909,160 L 51.70043813146188,160 L 51.73213939549203,160 L 53.22579041620931,160 L 53.247975924897446,160 L 53.280340245326194,160 L 54.76981580277664,160 L 54.796212615618025,160 L 54.82750170945445,160 L 56.31756864153068,160 L 56.34416257924732,160 L 56.37514702554925,160 L 57.870464647484624,160 L 57.89766788027025,160 L 57.93352668712402,160 L 59.41649712369095,160 L 59.44977538672316,160 L 59.47154872521759,160 L 60.96355106515998,160 L 60.989822434898926,160 L 61.022401800646136,160 L 62.506590827351026,160 L 62.54185825957902,160 L 62.57219756992557,160 L 64.06185233180807,160 L 64.08894804193446,160 L 64.12095395349911,160 L 65.6116122602011,160 L 65.63817035703133,160 L 65.66709395236467,160 L 67.15984895092168,160 L 67.1870521837073,160 L 67.21561737017652,160 L 68.70738674435725,160 L 68.7394284968083,160 L 68.77240211230603,160 L 70.25531878754333,160 L 70.28495920060487,160 L 70.31838082718272,160 L 71.79497158596857,160 L 71.83461160633865,160 L 71.86710136986986,160 L 73.35188177120051,160 L 73.38028567368089,160 L 73.4111625973236,160 L 74.90051271167161,160 L 74.92712456983145,160 L 74.95887959519122,160 L 76.44670647186678,160 L 76.47475196548305,160 L 76.50639946818359,160 L 77.99596462785006,160 L 78.01858022717512,160 L 78.05395518206237,160 L 79.54722987347232,160 L 79.57816055844464,160 L 79.61448529682175,160 L 81.09768869915035,160 L 81.1243005573102,160 L 81.15619894621561,160 L 82.64370325491348,137.48987854251013 L 82.66959829534511,137.48987854251013 L 82.70291239926374,137.48987854251013 L 84.18882178851634,137.48987854251013 L 84.21457346540232,137.48987854251013 L 84.24987673851675,137.48987854251013 L 85.7295856544203,137.48987854251013 L 85.76474556398908,137.48987854251013 L 85.80040724596759,137.48987854251013 L 87.28690800984597,137.48987854251013 L 87.30891431410205,137.48987854251013 L 87.34192377048618,137.48987854251013 L 88.83471460992962,137.48987854251013 L 88.86068133213408,137.48987854251013 L 88.89437176536,137.48987854251013 L 90.37773645167745,137.48987854251013 L 90.41721518805869,137.48987854251013 L 90.45070849640938,137.48987854251013 L 91.93208401353102,137.48987854251013 L 91.96469922016465,137.48987854251013 L 91.99781619920802,137.48987854251013 L 93.4836897475742,137.48987854251013 L 93.51368856949985,137.48987854251013 L 93.54644713967912,137.48987854251013 L 95.02848571319936,137.48987854251013 L 95.05939847772848,137.48987854251013 L 95.0913864688499,137.48987854251013 L 96.5752350071339,137.48987854251013 L 96.60627321476545,137.48987854251013 L 96.64075214749242,137.48987854251013 L 98.12635688921053,137.48987854251013 L 98.1615526396657,137.48987854251013 L 98.19547603865331,137.48987854251013 L 99.67369755777084,137.48987854251013 L 99.70362469792366,137.48987854251013 L 99.73127594178942,137.48987854251013 L 101.22648604106556,137.48987854251013 L 101.25827690731174,137.48987854251013 L 101.29325761244846,137.48987854251013 L 102.77036806408725,137.48987854251013 L 102.8024277369815,137.48987854251013 L 102.83894960023387,137.48987854251013 L 104.31914236810398,137.48987854251013 L 104.34921287180245,137.48987854251013 L 104.3822402486298,137.48987854251013 L 105.8681854787688,137.48987854251013 L 105.89538871155442,137.48987854251013 L 105.93117583663538,137.48987854251013 L 107.41733611209285,137.48987854251013 L 107.44640307097181,137.48987854251013 L 107.47620476802221,137.48987854251013 L 108.96709604048587,137.48987854251013 L 108.99211297920046,137.48987854251013 L 109.0244952200724,137.48987854251013 L 110.51061965464345,137.48987854251013 L 110.5344538441065,137.48987854251013 L 110.5622842924043,137.48987854251013 L 112.06209994558418,137.48987854251013 L 112.08948238280186,137.48987854251013 L 112.12575335984936,137.48987854251013 L 113.60960189813335,137.48987854251013 L 113.6375757099768,137.48987854251013 L 113.67182167694209,137.48987854251013 L 115.15235493323311,137.48987854251013 L 115.17799908745988,137.48987854251013 L 115.21185080467465,137.48987854251013 L 116.69738386461995,137.48987854251013 L 116.73012451435599,137.48987854251013 L 116.76281140276244,137.48987854251013 L 118.25183894913276,137.48987854251013 L 118.27780567133722,137.48987854251013 L 118.30907684473044,137.48987854251013 L 119.80136591176411,137.48987854251013 L 119.82736847485498,137.48987854251013 L 119.85876509135063,137.48987854251013 L 121.34639484315095,137.48987854251013 L 121.37603525621248,137.48987854251013 L 121.40727058871929,137.48987854251013 L 122.89970301929861,137.48987854251013 L 122.92790979690373,137.48987854251013 L 122.961367264368,137.48987854251013 L 124.4490507774979,137.48987854251013 L 124.47485621571352,137.48987854251013 L 124.5110734314314,137.48987854251013 L 125.99282527786038,137.48987854251013 L 126.01836190942791,137.48987854251013 L 126.04897002642254,137.48987854251013 L 127.54084692326249,137.48987854251013 L 127.56663444103489,137.48987854251013 L 127.59779809176888,137.48987854251013 L 129.0908756583036,137.48987854251013 L 129.11234434926354,137.48987854251013 L 129.14311375024698,137.48987854251013 L 130.63907650813775,137.48987854251013 L 130.66412928773875,137.48987854251013 L 130.68489908141368,137.48987854251013 L 132.18532402966255,137.48987854251013 L 132.20919406001198,137.48987854251013 L 132.2393900068129,137.48987854251013 L 133.7297615864236,137.48987854251013 L 133.7656562341638,137.48987854251013 L 133.7981818385814,137.48987854251013 L 135.28468260245972,137.48987854251013 L 135.31134822194923,137.48987854251013 L 135.34258355445604,137.48987854251013 L 136.83333146337407,137.48987854251013 L 136.85940570823772,137.48987854251013 L 136.88458393094118,137.48987854251013 L 138.38334227797196,137.48987854251013 L 138.40570699109213,137.48987854251013 L 138.4317453950694,137.48987854251013 L 139.9273676645393,137.48987854251013 L 139.95286845522043,137.48987854251013 L 139.98157700523527,137.48987854251013 L 141.4781848990814,137.48987854251013 L 141.50040624865596,137.48987854251013 L 141.53119357008265,137.48987854251013 L 143.01547219900357,137.48987854251013 L 143.04907303001346,137.48987854251013 L 143.080021635429,137.48987854251013 L 144.57523173470514,137.48987854251013 L 144.60397612560644,137.48987854251013 L 144.63318644803104,137.48987854251013 L 146.1244361293588,137.48987854251013 L 146.15438118995485,137.48987854251013 L 146.18807162318078,137.48987854251013 L 147.66785222085716,137.48987854251013 L 147.69299460267416,137.48987854251013 L 147.72177483446185,137.48987854251013 L 149.21655484310108,137.48987854251013 L 149.23526378580738,137.48987854251013 L 149.26818363997552,137.48987854251013 L 150.7659742830732,137.48987854251013 L 150.78857196195506,137.48987854251013 L 150.8193055220521,137.48987854251013 L 152.3159671772279,137.48987854251013 L 152.33860069699617,137.48987854251013 L 152.3654992822473,137.48987854251013 L 153.86169500589972,40 L 153.8846510936457,40 L 153.91411230227519,40 L 155.41150869562236,40 L 155.43532496464218,40 L 155.46853154590158,40 L 156.95098228961558,40 L 156.9843143139774,40 L 157.0169474410542,40 L 158.50880641745098,40 L 158.52631469046253,40 L 158.55617014884254,40 L 160.05433712124756,40 L 160.07883436710918,40 L 160.11105532399228,40 L 161.59635541817588,40 L 161.62850469328617,40 L 161.65723116374426,40 L 163.15156316130333,40 L 163.17684890666598,40 L 163.20460767319096,40 L 164.69768523972567,40 L 164.72248713312177,40 L 164.74755783316598,40 L 164.7872874557521,40 L 166.25160271094234,40 L 166.27776655802205,40 L 166.30496979080766,40 L 167.79887169772982,40 L 167.82496386303671,40 L 167.85347528817633,40 L 169.3464094911654,40 L 169.37042288506046,40 L 169.39782324272136,40 L 170.89018399152783,40 L 170.91903590508835,40 L 172.44938799349006,40 L 172.46691418694482,40 L 172.49472671479944,40 L 173.9900084958484,40 L 174.01468494614207,40 L 174.04518554047746,40 L 175.5379584594777,40 L 175.5620435351456,40 L 175.58912132482877,40 L 177.08899073933827,40 L 177.1148320184403,40 L 177.14721425931225,40 L 178.63892987216337,40 L 178.6667782409044,40 L 178.69347970128024,40 L 180.18983670892152,40 L 180.20696865262576,40 L 180.23598185017514,40 L 181.73278686889654,40 L 181.75518742290316,40 L 181.7808853384595,40 L 183.28079059385544,40 L 183.3016679101896,40 L 183.33333333333334,40" stroke="#f59e0b" stroke-width="2" fill="none" stroke-dasharray="15000" stroke-dashoffset="15000">
      <animate attributeName="stroke-dashoffset" values="15000;0" dur="3s" begin="3.5999999999999996s" fill="freeze"/>
    </path>
    
    <!-- Glow effect for the line that also follows the circle -->
    <path d="M 30,160 L 30.024067155224696,160 L 30.055535453493178,160 L 31.545387340250937,160 L 31.571587028217063,160 L 31.604309757509913,160 L 33.093283542550616,160 L 33.12224297877035,160 L 33.15181171005907,160 L 34.64164567637363,160 L 34.667881205226166,160 L 34.69942118526746,160 L 36.19380694415616,160 L 36.2231068687968,160 L 36.25389419022348,160 L 37.74276045260495,160 L 37.76831500461569,160 L 37.80035675706673,160 L 39.289742712301155,160 L 39.3126271182743,160 L 39.34051132790172,160 L 40.83661744933813,160 L 40.86512887447773,160 L 40.89374782227658,160 L 42.38295457307895,160 L 42.41040869206944,160 L 42.44184114945151,160 L 43.929721787456685,160 L 43.95559890744512,160 L 43.99040040814978,160 L 45.473621730921586,160 L 45.50471369988276,160 L 45.5357160666279,160 L 47.03054983659672,160 L 47.06024401098789,160 L 47.093522274020096,160 L 48.58124162803642,160 L 48.606204805421385,160 L 48.639644352442446,160 L 50.12610927543441,160 L 50.16008643575162,160 L 50.19589148127579,160 L 51.67470437501909,160 L 51.70043813146188,160 L 51.73213939549203,160 L 53.22579041620931,160 L 53.247975924897446,160 L 53.280340245326194,160 L 54.76981580277664,160 L 54.796212615618025,160 L 54.82750170945445,160 L 56.31756864153068,160 L 56.34416257924732,160 L 56.37514702554925,160 L 57.870464647484624,160 L 57.89766788027025,160 L 57.93352668712402,160 L 59.41649712369095,160 L 59.44977538672316,160 L 59.47154872521759,160 L 60.96355106515998,160 L 60.989822434898926,160 L 61.022401800646136,160 L 62.506590827351026,160 L 62.54185825957902,160 L 62.57219756992557,160 L 64.06185233180807,160 L 64.08894804193446,160 L 64.12095395349911,160 L 65.6116122602011,160 L 65.63817035703133,160 L 65.66709395236467,160 L 67.15984895092168,160 L 67.1870521837073,160 L 67.21561737017652,160 L 68.70738674435725,160 L 68.7394284968083,160 L 68.77240211230603,160 L 70.25531878754333,160 L 70.28495920060487,160 L 70.31838082718272,160 L 71.79497158596857,160 L 71.83461160633865,160 L 71.86710136986986,160 L 73.35188177120051,160 L 73.38028567368089,160 L 73.4111625973236,160 L 74.90051271167161,160 L 74.92712456983145,160 L 74.95887959519122,160 L 76.44670647186678,160 L 76.47475196548305,160 L 76.50639946818359,160 L 77.99596462785006,160 L 78.01858022717512,160 L 78.05395518206237,160 L 79.54722987347232,160 L 79.57816055844464,160 L 79.61448529682175,160 L 81.09768869915035,160 L 81.1243005573102,160 L 81.15619894621561,160 L 82.64370325491348,137.48987854251013 L 82.66959829534511,137.48987854251013 L 82.70291239926374,137.48987854251013 L 84.18882178851634,137.48987854251013 L 84.21457346540232,137.48987854251013 L 84.24987673851675,137.48987854251013 L 85.7295856544203,137.48987854251013 L 85.76474556398908,137.48987854251013 L 85.80040724596759,137.48987854251013 L 87.28690800984597,137.48987854251013 L 87.30891431410205,137.48987854251013 L 87.34192377048618,137.48987854251013 L 88.83471460992962,137.48987854251013 L 88.86068133213408,137.48987854251013 L 88.89437176536,137.48987854251013 L 90.37773645167745,137.48987854251013 L 90.41721518805869,137.48987854251013 L 90.45070849640938,137.48987854251013 L 91.93208401353102,137.48987854251013 L 91.96469922016465,137.48987854251013 L 91.99781619920802,137.48987854251013 L 93.4836897475742,137.48987854251013 L 93.51368856949985,137.48987854251013 L 93.54644713967912,137.48987854251013 L 95.02848571319936,137.48987854251013 L 95.05939847772848,137.48987854251013 L 95.0913864688499,137.48987854251013 L 96.5752350071339,137.48987854251013 L 96.60627321476545,137.48987854251013 L 96.64075214749242,137.48987854251013 L 98.12635688921053,137.48987854251013 L 98.1615526396657,137.48987854251013 L 98.19547603865331,137.48987854251013 L 99.67369755777084,137.48987854251013 L 99.70362469792366,137.48987854251013 L 99.73127594178942,137.48987854251013 L 101.22648604106556,137.48987854251013 L 101.25827690731174,137.48987854251013 L 101.29325761244846,137.48987854251013 L 102.77036806408725,137.48987854251013 L 102.8024277369815,137.48987854251013 L 102.83894960023387,137.48987854251013 L 104.31914236810398,137.48987854251013 L 104.34921287180245,137.48987854251013 L 104.3822402486298,137.48987854251013 L 105.8681854787688,137.48987854251013 L 105.89538871155442,137.48987854251013 L 105.93117583663538,137.48987854251013 L 107.41733611209285,137.48987854251013 L 107.44640307097181,137.48987854251013 L 107.47620476802221,137.48987854251013 L 108.96709604048587,137.48987854251013 L 108.99211297920046,137.48987854251013 L 109.0244952200724,137.48987854251013 L 110.51061965464345,137.48987854251013 L 110.5344538441065,137.48987854251013 L 110.5622842924043,137.48987854251013 L 112.06209994558418,137.48987854251013 L 112.08948238280186,137.48987854251013 L 112.12575335984936,137.48987854251013 L 113.60960189813335,137.48987854251013 L 113.6375757099768,137.48987854251013 L 113.67182167694209,137.48987854251013 L 115.15235493323311,137.48987854251013 L 115.17799908745988,137.48987854251013 L 115.21185080467465,137.48987854251013 L 116.69738386461995,137.48987854251013 L 116.73012451435599,137.48987854251013 L 116.76281140276244,137.48987854251013 L 118.25183894913276,137.48987854251013 L 118.27780567133722,137.48987854251013 L 118.30907684473044,137.48987854251013 L 119.80136591176411,137.48987854251013 L 119.82736847485498,137.48987854251013 L 119.85876509135063,137.48987854251013 L 121.34639484315095,137.48987854251013 L 121.37603525621248,137.48987854251013 L 121.40727058871929,137.48987854251013 L 122.89970301929861,137.48987854251013 L 122.92790979690373,137.48987854251013 L 122.961367264368,137.48987854251013 L 124.4490507774979,137.48987854251013 L 124.47485621571352,137.48987854251013 L 124.5110734314314,137.48987854251013 L 125.99282527786038,137.48987854251013 L 126.01836190942791,137.48987854251013 L 126.04897002642254,137.48987854251013 L 127.54084692326249,137.48987854251013 L 127.56663444103489,137.48987854251013 L 127.59779809176888,137.48987854251013 L 129.0908756583036,137.48987854251013 L 129.11234434926354,137.48987854251013 L 129.14311375024698,137.48987854251013 L 130.63907650813775,137.48987854251013 L 130.66412928773875,137.48987854251013 L 130.68489908141368,137.48987854251013 L 132.18532402966255,137.48987854251013 L 132.20919406001198,137.48987854251013 L 132.2393900068129,137.48987854251013 L 133.7297615864236,137.48987854251013 L 133.7656562341638,137.48987854251013 L 133.7981818385814,137.48987854251013 L 135.28468260245972,137.48987854251013 L 135.31134822194923,137.48987854251013 L 135.34258355445604,137.48987854251013 L 136.83333146337407,137.48987854251013 L 136.85940570823772,137.48987854251013 L 136.88458393094118,137.48987854251013 L 138.38334227797196,137.48987854251013 L 138.40570699109213,137.48987854251013 L 138.4317453950694,137.48987854251013 L 139.9273676645393,137.48987854251013 L 139.95286845522043,137.48987854251013 L 139.98157700523527,137.48987854251013 L 141.4781848990814,137.48987854251013 L 141.50040624865596,137.48987854251013 L 141.53119357008265,137.48987854251013 L 143.01547219900357,137.48987854251013 L 143.04907303001346,137.48987854251013 L 143.080021635429,137.48987854251013 L 144.57523173470514,137.48987854251013 L 144.60397612560644,137.48987854251013 L 144.63318644803104,137.48987854251013 L 146.1244361293588,137.48987854251013 L 146.15438118995485,137.48987854251013 L 146.18807162318078,137.48987854251013 L 147.66785222085716,137.48987854251013 L 147.69299460267416,137.48987854251013 L 147.72177483446185,137.48987854251013 L 149.21655484310108,137.48987854251013 L 149.23526378580738,137.48987854251013 L 149.26818363997552,137.48987854251013 L 150.7659742830732,137.48987854251013 L 150.78857196195506,137.48987854251013 L 150.8193055220521,137.48987854251013 L 152.3159671772279,137.48987854251013 L 152.33860069699617,137.48987854251013 L 152.3654992822473,137.48987854251013 L 153.86169500589972,40 L 153.8846510936457,40 L 153.91411230227519,40 L 155.41150869562236,40 L 155.43532496464218,40 L 155.46853154590158,40 L 156.95098228961558,40 L 156.9843143139774,40 L 157.0169474410542,40 L 158.50880641745098,40 L 158.52631469046253,40 L 158.55617014884254,40 L 160.05433712124756,40 L 160.07883436710918,40 L 160.11105532399228,40 L 161.59635541817588,40 L 161.62850469328617,40 L 161.65723116374426,40 L 163.15156316130333,40 L 163.17684890666598,40 L 163.20460767319096,40 L 164.69768523972567,40 L 164.72248713312177,40 L 164.74755783316598,40 L 164.7872874557521,40 L 166.25160271094234,40 L 166.27776655802205,40 L 166.30496979080766,40 L 167.79887169772982,40 L 167.82496386303671,40 L 167.85347528817633,40 L 169.3464094911654,40 L 169.37042288506046,40 L 169.39782324272136,40 L 170.89018399152783,40 L 170.91903590508835,40 L 172.44938799349006,40 L 172.46691418694482,40 L 172.49472671479944,40 L 173.9900084958484,40 L 174.01468494614207,40 L 174.04518554047746,40 L 175.5379584594777,40 L 175.5620435351456,40 L 175.58912132482877,40 L 177.08899073933827,40 L 177.1148320184403,40 L 177.14721425931225,40 L 178.63892987216337,40 L 178.6667782409044,40 L 178.69347970128024,40 L 180.18983670892152,40 L 180.20696865262576,40 L 180.23598185017514,40 L 181.73278686889654,40 L 181.75518742290316,40 L 181.7808853384595,40 L 183.28079059385544,40 L 183.3016679101896,40 L 183.33333333333334,40" stroke="#f59e0b" stroke-width="4" fill="none" opacity="0.4" stroke-dasharray="15000" stroke-dashoffset="15000">
      <animate attributeName="stroke-dashoffset" values="15000;0" dur="3s" begin="3.5999999999999996s" fill="freeze"/>
    </path>
    
    <!-- Animated circle that moves along the path and draws the line -->
    <circle r="5" fill="#f59e0b" opacity="0" filter="url(#trailGlow)">
      <animate attributeName="opacity" values="0;1;1;1" dur="3.2s" begin="3.4s" fill="freeze"/>
      <animate attributeName="r" values="5;6;5" dur="1s" begin="3.4s" repeatCount="3"/>
      <animateMotion dur="3s" begin="3.4s" fill="freeze">
        <mpath href="#path_totalContributions_526.6666666666667"/>
      </animateMotion>
    </circle>
    
    <!-- Small trail dots that fade out -->
    <circle r="2" fill="#f59e0b" opacity="0">
      <animate attributeName="opacity" values="0;0.6;0" dur="0.8s" begin="3.8s" fill="freeze"/>
      <animateMotion dur="3s" begin="3.4s" fill="freeze">
        <mpath href="#path_totalContributions_526.6666666666667"/>
      </animateMotion>
    </circle>
    
    <!-- Hidden path for motion animation -->
    <path id="path_totalContributions_526.6666666666667" d="M 30,160 L 30.024067155224696,160 L 30.055535453493178,160 L 31.545387340250937,160 L 31.571587028217063,160 L 31.604309757509913,160 L 33.093283542550616,160 L 33.12224297877035,160 L 33.15181171005907,160 L 34.64164567637363,160 L 34.667881205226166,160 L 34.69942118526746,160 L 36.19380694415616,160 L 36.2231068687968,160 L 36.25389419022348,160 L 37.74276045260495,160 L 37.76831500461569,160 L 37.80035675706673,160 L 39.289742712301155,160 L 39.3126271182743,160 L 39.34051132790172,160 L 40.83661744933813,160 L 40.86512887447773,160 L 40.89374782227658,160 L 42.38295457307895,160 L 42.41040869206944,160 L 42.44184114945151,160 L 43.929721787456685,160 L 43.95559890744512,160 L 43.99040040814978,160 L 45.473621730921586,160 L 45.50471369988276,160 L 45.5357160666279,160 L 47.03054983659672,160 L 47.06024401098789,160 L 47.093522274020096,160 L 48.58124162803642,160 L 48.606204805421385,160 L 48.639644352442446,160 L 50.12610927543441,160 L 50.16008643575162,160 L 50.19589148127579,160 L 51.67470437501909,160 L 51.70043813146188,160 L 51.73213939549203,160 L 53.22579041620931,160 L 53.247975924897446,160 L 53.280340245326194,160 L 54.76981580277664,160 L 54.796212615618025,160 L 54.82750170945445,160 L 56.31756864153068,160 L 56.34416257924732,160 L 56.37514702554925,160 L 57.870464647484624,160 L 57.89766788027025,160 L 57.93352668712402,160 L 59.41649712369095,160 L 59.44977538672316,160 L 59.47154872521759,160 L 60.96355106515998,160 L 60.989822434898926,160 L 61.022401800646136,160 L 62.506590827351026,160 L 62.54185825957902,160 L 62.57219756992557,160 L 64.06185233180807,160 L 64.08894804193446,160 L 64.12095395349911,160 L 65.6116122602011,160 L 65.63817035703133,160 L 65.66709395236467,160 L 67.15984895092168,160 L 67.1870521837073,160 L 67.21561737017652,160 L 68.70738674435725,160 L 68.7394284968083,160 L 68.77240211230603,160 L 70.25531878754333,160 L 70.28495920060487,160 L 70.31838082718272,160 L 71.79497158596857,160 L 71.83461160633865,160 L 71.86710136986986,160 L 73.35188177120051,160 L 73.38028567368089,160 L 73.4111625973236,160 L 74.90051271167161,160 L 74.92712456983145,160 L 74.95887959519122,160 L 76.44670647186678,160 L 76.47475196548305,160 L 76.50639946818359,160 L 77.99596462785006,160 L 78.01858022717512,160 L 78.05395518206237,160 L 79.54722987347232,160 L 79.57816055844464,160 L 79.61448529682175,160 L 81.09768869915035,160 L 81.1243005573102,160 L 81.15619894621561,160 L 82.64370325491348,137.48987854251013 L 82.66959829534511,137.48987854251013 L 82.70291239926374,137.48987854251013 L 84.18882178851634,137.48987854251013 L 84.21457346540232,137.48987854251013 L 84.24987673851675,137.48987854251013 L 85.7295856544203,137.48987854251013 L 85.76474556398908,137.48987854251013 L 85.80040724596759,137.48987854251013 L 87.28690800984597,137.48987854251013 L 87.30891431410205,137.48987854251013 L 87.34192377048618,137.48987854251013 L 88.83471460992962,137.48987854251013 L 88.86068133213408,137.48987854251013 L 88.89437176536,137.48987854251013 L 90.37773645167745,137.48987854251013 L 90.41721518805869,137.48987854251013 L 90.45070849640938,137.48987854251013 L 91.93208401353102,137.48987854251013 L 91.96469922016465,137.48987854251013 L 91.99781619920802,137.48987854251013 L 93.4836897475742,137.48987854251013 L 93.51368856949985,137.48987854251013 L 93.54644713967912,137.48987854251013 L 95.02848571319936,137.48987854251013 L 95.05939847772848,137.48987854251013 L 95.0913864688499,137.48987854251013 L 96.5752350071339,137.48987854251013 L 96.60627321476545,137.48987854251013 L 96.64075214749242,137.48987854251013 L 98.12635688921053,137.48987854251013 L 98.1615526396657,137.48987854251013 L 98.19547603865331,137.48987854251013 L 99.67369755777084,137.48987854251013 L 99.70362469792366,137.48987854251013 L 99.73127594178942,137.48987854251013 L 101.22648604106556,137.48987854251013 L 101.25827690731174,137.48987854251013 L 101.29325761244846,137.48987854251013 L 102.77036806408725,137.48987854251013 L 102.8024277369815,137.48987854251013 L 102.83894960023387,137.48987854251013 L 104.31914236810398,137.48987854251013 L 104.34921287180245,137.48987854251013 L 104.3822402486298,137.48987854251013 L 105.8681854787688,137.48987854251013 L 105.89538871155442,137.48987854251013 L 105.93117583663538,137.48987854251013 L 107.41733611209285,137.48987854251013 L 107.44640307097181,137.48987854251013 L 107.47620476802221,137.48987854251013 L 108.96709604048587,137.48987854251013 L 108.99211297920046,137.48987854251013 L 109.0244952200724,137.48987854251013 L 110.51061965464345,137.48987854251013 L 110.5344538441065,137.48987854251013 L 110.5622842924043,137.48987854251013 L 112.06209994558418,137.48987854251013 L 112.08948238280186,137.48987854251013 L 112.12575335984936,137.48987854251013 L 113.60960189813335,137.48987854251013 L 113.6375757099768,137.48987854251013 L 113.67182167694209,137.48987854251013 L 115.15235493323311,137.48987854251013 L 115.17799908745988,137.48987854251013 L 115.21185080467465,137.48987854251013 L 116.69738386461995,137.48987854251013 L 116.73012451435599,137.48987854251013 L 116.76281140276244,137.48987854251013 L 118.25183894913276,137.48987854251013 L 118.27780567133722,137.48987854251013 L 118.30907684473044,137.48987854251013 L 119.80136591176411,137.48987854251013 L 119.82736847485498,137.48987854251013 L 119.85876509135063,137.48987854251013 L 121.34639484315095,137.48987854251013 L 121.37603525621248,137.48987854251013 L 121.40727058871929,137.48987854251013 L 122.89970301929861,137.48987854251013 L 122.92790979690373,137.48987854251013 L 122.961367264368,137.48987854251013 L 124.4490507774979,137.48987854251013 L 124.47485621571352,137.48987854251013 L 124.5110734314314,137.48987854251013 L 125.99282527786038,137.48987854251013 L 126.01836190942791,137.48987854251013 L 126.04897002642254,137.48987854251013 L 127.54084692326249,137.48987854251013 L 127.56663444103489,137.48987854251013 L 127.59779809176888,137.48987854251013 L 129.0908756583036,137.48987854251013 L 129.11234434926354,137.48987854251013 L 129.14311375024698,137.48987854251013 L 130.63907650813775,137.48987854251013 L 130.66412928773875,137.48987854251013 L 130.68489908141368,137.48987854251013 L 132.18532402966255,137.48987854251013 L 132.20919406001198,137.48987854251013 L 132.2393900068129,137.48987854251013 L 133.7297615864236,137.48987854251013 L 133.7656562341638,137.48987854251013 L 133.7981818385814,137.48987854251013 L 135.28468260245972,137.48987854251013 L 135.31134822194923,137.48987854251013 L 135.34258355445604,137.48987854251013 L 136.83333146337407,137.48987854251013 L 136.85940570823772,137.48987854251013 L 136.88458393094118,137.48987854251013 L 138.38334227797196,137.48987854251013 L 138.40570699109213,137.48987854251013 L 138.4317453950694,137.48987854251013 L 139.9273676645393,137.48987854251013 L 139.95286845522043,137.48987854251013 L 139.98157700523527,137.48987854251013 L 141.4781848990814,137.48987854251013 L 141.50040624865596,137.48987854251013 L 141.53119357008265,137.48987854251013 L 143.01547219900357,137.48987854251013 L 143.04907303001346,137.48987854251013 L 143.080021635429,137.48987854251013 L 144.57523173470514,137.48987854251013 L 144.60397612560644,137.48987854251013 L 144.63318644803104,137.48987854251013 L 146.1244361293588,137.48987854251013 L 146.15438118995485,137.48987854251013 L 146.18807162318078,137.48987854251013 L 147.66785222085716,137.48987854251013 L 147.69299460267416,137.48987854251013 L 147.72177483446185,137.48987854251013 L 149.21655484310108,137.48987854251013 L 149.23526378580738,137.48987854251013 L 149.26818363997552,137.48987854251013 L 150.7659742830732,137.48987854251013 L 150.78857196195506,137.48987854251013 L 150.8193055220521,137.48987854251013 L 152.3159671772279,137.48987854251013 L 152.33860069699617,137.48987854251013 L 152.3654992822473,137.48987854251013 L 153.86169500589972,40 L 153.8846510936457,40 L 153.91411230227519,40 L 155.41150869562236,40 L 155.43532496464218,40 L 155.46853154590158,40 L 156.95098228961558,40 L 156.9843143139774,40 L 157.0169474410542,40 L 158.50880641745098,40 L 158.52631469046253,40 L 158.55617014884254,40 L 160.05433712124756,40 L 160.07883436710918,40 L 160.11105532399228,40 L 161.59635541817588,40 L 161.62850469328617,40 L 161.65723116374426,40 L 163.15156316130333,40 L 163.17684890666598,40 L 163.20460767319096,40 L 164.69768523972567,40 L 164.72248713312177,40 L 164.74755783316598,40 L 164.7872874557521,40 L 166.25160271094234,40 L 166.27776655802205,40 L 166.30496979080766,40 L 167.79887169772982,40 L 167.82496386303671,40 L 167.85347528817633,40 L 169.3464094911654,40 L 169.37042288506046,40 L 169.39782324272136,40 L 170.89018399152783,40 L 170.91903590508835,40 L 172.44938799349006,40 L 172.46691418694482,40 L 172.49472671479944,40 L 173.9900084958484,40 L 174.01468494614207,40 L 174.04518554047746,40 L 175.5379584594777,40 L 175.5620435351456,40 L 175.58912132482877,40 L 177.08899073933827,40 L 177.1148320184403,40 L 177.14721425931225,40 L 178.63892987216337,40 L 178.6667782409044,40 L 178.69347970128024,40 L 180.18983670892152,40 L 180.20696865262576,40 L 180.23598185017514,40 L 181.73278686889654,40 L 181.75518742290316,40 L 181.7808853384595,40 L 183.28079059385544,40 L 183.3016679101896,40 L 183.33333333333334,40" fill="none" stroke="none"/>
  </g>
  
  <!-- Footer -->
  <text x="400" y="580" text-anchor="middle" fill="#94a3b8" font-size="12" font-family="Arial, sans-serif">
    Generated by GitHub User Rank Tracker • 9/25/2025
    <animate attributeName="opacity" values="0;1" dur="0.5s" begin="5s" fill="freeze"/>
  </text>
</svg>