<svg width="800" height="600" xmlns="http://www.w3.org/2000/svg">
  <defs>
    <linearGradient id="bgGradient" x1="0%" y1="0%" x2="100%" y2="100%">
      <stop offset="0%" style="stop-color:#f8fafc;stop-opacity:1" />
      <stop offset="100%" style="stop-color:#e2e8f0;stop-opacity:1" />
    </linearGradient>
    <filter id="shadow" x="-20%" y="-20%" width="140%" height="140%">
      <feDropShadow dx="2" dy="2" stdDeviation="3" flood-color="#00000020" flood-opacity="0.1"/>
    </filter>
    <!-- Trail effect filter -->
    <filter id="trailGlow" x="-50%" y="-50%" width="200%" height="200%">
      <feGaussianBlur stdDeviation="3" result="coloredBlur"/>
      <feMerge> 
        <feMergeNode in="coloredBlur"/>
        <feMergeNode in="SourceGraphic"/>
      </feMerge>
    </filter>
  </defs>
  
  <!-- Background -->
  <rect width="800" height="600" fill="url(#bgGradient)" rx="12"/>
  
  <!-- Header -->
  <text x="400" y="40" text-anchor="middle" fill="#0f172a" font-size="24" font-weight="bold" font-family="Arial, sans-serif">
    GitHub Progress Report
    <animate attributeName="opacity" values="0;1" dur="0.8s" begin="0s" fill="freeze"/>
    <animateTransform attributeName="transform" type="translate" values="0,-20;0,0" dur="0.8s" begin="0s" fill="freeze"/>
  </text>
  
  <!-- User Info -->
  <text x="400" y="70" text-anchor="middle" fill="#475569" font-size="16" font-family="Arial, sans-serif">
    @maifeeulasad • BANGLADESH • 100 days analyzed
    <animate attributeName="opacity" values="0;1" dur="0.6s" begin="0.3s" fill="freeze"/>
  </text>
  
  <!-- Progress Cards -->
  <!-- Followers Card -->
  <g transform="translate(60, 100)">
    <rect width="206.66666666666666" height="120" fill="#ffffff" stroke="#e2e8f0" stroke-width="1" rx="8" filter="url(#shadow)">
      <animate attributeName="opacity" values="0;1" dur="0.6s" begin="0.2s" fill="freeze"/>
      <animateTransform attributeName="transform" type="scale" values="0.8;1" dur="0.6s" begin="0.2s" fill="freeze"/>
    </rect>
    <text x="103.33333333333333" y="25" text-anchor="middle" fill="#64748b" font-size="14" font-weight="bold" font-family="Arial, sans-serif">FOLLOWERS
      <animate attributeName="opacity" values="0;1" dur="0.5s" begin="0.4s" fill="freeze"/>
    </text>
    
    <text x="103.33333333333333" y="50" text-anchor="middle" fill="#ef4444" font-size="32" font-weight="bold" font-family="Arial, sans-serif">
      ↘
      <animate attributeName="opacity" values="0;1" dur="0.5s" begin="0.6s" fill="freeze"/>
      <animateTransform attributeName="transform" type="scale" values="0;1.2;1" dur="0.8s" begin="0.6s" fill="freeze"/>
    </text>
    
    <text x="103.33333333333333" y="75" text-anchor="middle" fill="#1e293b" font-size="18" font-weight="bold" font-family="Arial, sans-serif">
      -15
      <animate attributeName="opacity" values="0;1" dur="0.5s" begin="0.8s" fill="freeze"/>
    </text>
    
    <text x="103.33333333333333" y="95" text-anchor="middle" fill="#64748b" font-size="12" font-family="Arial, sans-serif">
      #466 → #481
      <animate attributeName="opacity" values="0;1" dur="0.5s" begin="1s" fill="freeze"/>
    </text>
  </g>
  
  <!-- Public Contributions Card -->
  <g transform="translate(296.66666666666663, 100)">
    <rect width="206.66666666666666" height="120" fill="#ffffff" stroke="#e2e8f0" stroke-width="1" rx="8" filter="url(#shadow)">
      <animate attributeName="opacity" values="0;1" dur="0.6s" begin="0.4s" fill="freeze"/>
      <animateTransform attributeName="transform" type="scale" values="0.8;1" dur="0.6s" begin="0.4s" fill="freeze"/>
    </rect>
    <text x="103.33333333333333" y="25" text-anchor="middle" fill="#64748b" font-size="14" font-weight="bold" font-family="Arial, sans-serif">PUBLIC
      <animate attributeName="opacity" values="0;1" dur="0.5s" begin="0.6s" fill="freeze"/>
    </text>
    
    <text x="103.33333333333333" y="50" text-anchor="middle" fill="#6b7280" font-size="32" font-weight="bold" font-family="Arial, sans-serif">
      →
      <animate attributeName="opacity" values="0;1" dur="0.5s" begin="0.8s" fill="freeze"/>
      <animateTransform attributeName="transform" type="scale" values="0;1.2;1" dur="0.8s" begin="0.8s" fill="freeze"/>
    </text>
    
    <text x="103.33333333333333" y="75" text-anchor="middle" fill="#1e293b" font-size="18" font-weight="bold" font-family="Arial, sans-serif">
      0
      <animate attributeName="opacity" values="0;1" dur="0.5s" begin="1s" fill="freeze"/>
    </text>
    
    <text x="103.33333333333333" y="95" text-anchor="middle" fill="#64748b" font-size="12" font-family="Arial, sans-serif">
      #7 → #7
      <animate attributeName="opacity" values="0;1" dur="0.5s" begin="1.2s" fill="freeze"/>
    </text>
  </g>
  
  <!-- Total Contributions Card -->
  <g transform="translate(533.3333333333333, 100)">
    <rect width="206.66666666666666" height="120" fill="#ffffff" stroke="#e2e8f0" stroke-width="1" rx="8" filter="url(#shadow)">
      <animate attributeName="opacity" values="0;1" dur="0.6s" begin="0.6s" fill="freeze"/>
      <animateTransform attributeName="transform" type="scale" values="0.8;1" dur="0.6s" begin="0.6s" fill="freeze"/>
    </rect>
    <text x="103.33333333333333" y="25" text-anchor="middle" fill="#64748b" font-size="14" font-weight="bold" font-family="Arial, sans-serif">TOTAL
      <animate attributeName="opacity" values="0;1" dur="0.5s" begin="0.8s" fill="freeze"/>
    </text>
    
    <text x="103.33333333333333" y="50" text-anchor="middle" fill="#22c55e" font-size="32" font-weight="bold" font-family="Arial, sans-serif">
      ↗
      <animate attributeName="opacity" values="0;1" dur="0.5s" begin="1s" fill="freeze"/>
      <animateTransform attributeName="transform" type="scale" values="0;1.2;1" dur="0.8s" begin="1s" fill="freeze"/>
    </text>
    
    <text x="103.33333333333333" y="75" text-anchor="middle" fill="#1e293b" font-size="18" font-weight="bold" font-family="Arial, sans-serif">
      +3
      <animate attributeName="opacity" values="0;1" dur="0.5s" begin="1.2s" fill="freeze"/>
    </text>
    
    <text x="103.33333333333333" y="95" text-anchor="middle" fill="#64748b" font-size="12" font-family="Arial, sans-serif">
      #15 → #12
      <animate attributeName="opacity" values="0;1" dur="0.5s" begin="1.4s" fill="freeze"/>
    </text>
  </g>
  
  <!-- Timeline Charts (if we have snapshots) -->
  
  <!-- 👥 Followers Count Chart -->
  <g transform="translate(60, 250)">
    <!-- Chart Background -->
    <rect x="0" y="0" width="213.33333333333334" height="200" fill="#ffffff" stroke="#e2e8f0" stroke-width="1" rx="8" filter="url(#shadow)">
      <animate attributeName="opacity" values="0;1" dur="0.5s" begin="1.8s" fill="freeze"/>
    </rect>
    
    <!-- Chart Title -->
    <text x="106.66666666666667" y="25" text-anchor="middle" fill="#1e293b" font-size="14" font-weight="bold" font-family="Arial, sans-serif">
      👥 Followers Count
      <animate attributeName="opacity" values="0;1" dur="0.5s" begin="2s" fill="freeze"/>
    </text>
    
    <!-- Y-axis labels -->
    <text x="10" y="45" fill="#64748b" font-size="10" font-family="Arial, sans-serif">154
      <animate attributeName="opacity" values="0;1" dur="0.5s" begin="2.2s" fill="freeze"/>
    </text>
    <text x="10" y="185" fill="#64748b" font-size="10" font-family="Arial, sans-serif">150
      <animate attributeName="opacity" values="0;1" dur="0.5s" begin="2.2s" fill="freeze"/>
    </text>
    
    <!-- Chart Line with draw animation that follows the circle -->
    <path d="M 30,160 L 30.019927674913053,160 L 30.06885083364743,160 L 31.545703007441908,160 L 31.57586332837596,160 L 31.605611476177813,160 L 33.09690763017006,160 L 33.131153841284124,160 L 33.16231771419221,160 L 34.64449229756329,160 L 34.67465261849734,160 L 34.709418526169394,160 L 36.19071500156318,160 L 36.22035562593925,160 L 36.24736192638346,160 L 37.74139992773335,160 L 37.772026183512494,160 L 37.80356638841084,160 L 39.294396607558,160 L 39.323212885669676,160 L 39.35163491122013,160 L 40.83692767393911,160 L 40.8677331354279,70 L 40.89982887802616,70 L 42.391053349734555,70 L 42.41243259089576,70 L 42.441911930133145,70 L 43.93551983777988,70 L 43.95942587944715,70 L 44.00184387092125,70 L 45.48570298796302,70 L 45.51718943114848,70 L 45.54484087214744,70 L 47.027768119499044,70 L 47.06226521860662,70 L 47.0960454948756,70 L 48.58563919462617,70 L 48.60090752108833,70 L 48.64228611944645,70 L 50.13087626722299,70 L 50.1635096269502,70 L 50.20037224142516,70 L 51.6793390425935,70 L 51.710090742369395,70 L 51.74949807792137,70 L 53.225292938028915,70 L 53.25799798003999,70 L 53.29615087562442,70 L 54.78221422289489,70 L 54.81864674366669,70 L 56.324601924708276,70 L 56.40121236558355,70 L 57.87319014407555,70 L 57.91127135737612,70 L 57.947417149012466,70 L 59.42115114345904,70 L 59.46127530184962,70 L 59.48889090170664,70 L 60.9727679393194,70 L 61.00635108930775,70 L 61.044055970618054,70 L 62.5156574171198,70 L 62.54922264653719,70 L 62.58698128956039,70 L 64.06636026386093,70 L 64.09935203500746,70 L 64.13474516266328,70 L 65.62016336937901,70 L 65.66351323054329,70 L 67.20274691186683,70 L 67.24378501937662,70 L 68.72033254346469,70 L 68.75416658144655,70 L 70.27271992387654,70 L 70.30153620198821,70 L 70.34898987390346,70 L 71.80919383727148,70 L 71.84216768784702,70 L 71.87747121264803,70 L 73.35939490802559,70 L 73.39839007044537,70 L 73.43752859743289,70 L 74.90499039204173,70 L 74.93660227922392,70 L 74.97502398337284,70 L 76.45207328344792,70 L 76.4880040282327,70 L 76.5349738447319,70 L 77.99562582237402,70 L 78.0365205653161,70 L 78.07610710657772,70 L 79.5511134615628,70 L 79.58401562985452,70 L 79.6215771465971,70 L 81.09941495179464,70 L 81.13271137264756,70 L 81.17109723565454,70 L 82.64574517922031,70 L 82.68434608907887,70 L 82.72593973428859,70 L 84.19564160026803,70 L 84.22637537947296,70 L 84.26341719965757,70 L 85.74534089503513,70 L 85.77292065375022,70 L 85.8105896939186,70 L 87.28980738308044,70 L 87.32516466959436,70 L 87.36421359372702,70 L 88.83920202814114,70 L 88.8767277037418,70 L 88.9166368152808,70 L 90.39169693197877,70 L 90.4188465969907,70 L 90.45768047427181,70 L 91.93874398224305,70 L 91.97531986758256,70 L 92.00793530673882,70 L 93.48240404459494,70 L 93.51587967115752,70 L 93.55442681930319,70 L 95.02805329032397,70 L 95.0686613041306,70 L 95.105810647741,70 L 96.579831371323,70 L 96.6104755476731,70 L 96.64488304392586,70 L 98.13431545853774,70 L 98.17171569014164,70 L 98.21381111133837,70 L 99.68141627051492,70 L 99.71482021479363,70 L 99.74822415907235,70 L 101.2262590905505,70 L 101.263354672448,70 L 101.29984095493269,70 L 102.76798373123819,70 L 102.80826917476745,70 L 102.84661919663249,70 L 104.31508454321536,70 L 104.35535206617367,70 L 104.39954419417329,70 L 105.87790169592881,70 L 105.90992575624323,70 L 105.95134019574328,70 L 107.42236818397414,70 L 107.45003754554406,70 L 107.48510810292251,70 L 108.96631497546149,70 L 109.00292670194293,70 L 109.04005812498234,70 L 110.51542289138673,70 L 110.54739318998826,70 L 110.58873594720444,70 L 112.06341973191215,70 L 112.0955871567943,70 L 112.13368629066582,70 L 113.61224091870197,70 L 113.64376320302935,70 L 113.67790189071765,70 L 115.15887579583405,40 L 115.18871354649073,40 L 116.70597660781124,40 L 116.74240912858302,40 L 116.77681662483577,40 L 118.25589094942991,40 L 118.28097974878087,40 L 118.32368446939041,40 L 119.81263302858625,40 L 119.85048127446426,40 L 121.35340787901278,40 L 121.39283313513572,40 L 121.44430101494713,40 L 122.90405696404102,40 L 122.94263995332861,40 L 122.9663847098572,40 L 124.4544193199338,40 L 124.49029630300569,40 L 124.52812662831275,40 L 126.00368852099774,40 L 126.03788097039893,40 L 126.07664316539616,40 L 127.55035923927177,40 L 127.5810930184767,40 L 127.61972976947717,40 L 129.09855320607778,40 L 129.13106112180827,40 L 129.16299557926786,40 L 130.6463529203226,40 L 130.68348434336204,40 L 130.72455829201377,40 L 132.19777258990234,40 L 132.23420511067414,40 L 132.2787377295221,40 L 133.7367016215195,40 L 133.7740480914105,40 L 133.81698577944258,40 L 135.29217134013732,40 L 135.32781535578664,40 L 135.36455252626484,40 L 136.84142262063028,40 L 136.8831596304077,40 L 136.92735175840733,40 L 138.39031548970394,40 L 138.42798452987233,40 L 138.47438088810065,40 L 139.93574968858138,40 L 139.9751928652753,40 L 140.01164330661805,40 L 141.49043090207675,40 L 141.52639748800345,40 L 143.0421910625048,40 L 143.07511115136748,40 L 144.58461460546013,40 L 144.6218714724963,40 L 144.66611736220884,40 L 146.1309448328858,40 L 146.17798633166888,40 L 147.68257954931715,40 L 147.71458568906058,40 L 147.75677071311213,40 L 149.2274761310656,40 L 149.26639961120154,40 L 149.310663421485,40 L 150.7715483665497,40 L 150.80912780386325,40 L 150.84095473789705,40 L 152.32511850464522,40 L 152.3683787629547,40 L 153.87451314970593,40 L 153.91332910641609,40 L 155.4230476073603,40 L 155.46161267607692,40 L 156.97099068617283,40 L 157.0091794228992,40 L 158.51386224340226,40 L 158.54916576820327,40 L 158.57997122969206,40 L 160.07035343456508,40 L 160.10606913249828,40 L 161.61625356828762,40 L 161.65415557587855,40 L 161.6948890336819,40 L 163.16663384475137,40 L 163.20815580767723,40 L 164.7139676241511,40 L 164.7582135138636,40 L 166.2659069902888,40 L 166.30936437487887,40 L 167.82083909177769,40 L 167.85814972052677,40 L 169.36236660618476,40 L 169.40673793989401,40 L 170.91068601698754,40 L 170.95281727932618,40 L 172.44805595893075,40 L 172.49282154520122,40 L 174.0049772437967,40 L 174.0511406346025,40 L 175.5486373061486,40 L 175.5987790637086,40 L 177.10552274987265,40 L 177.1463278899599,40 L 178.65074190189853,40 L 178.69120655113744,40 L 180.2066417142195,40 L 180.24474084809103,40 L 181.74960287430375,40 L 181.7944580634291,40 L 183.29767139711305,40 L 183.33333333333334,40" stroke="#22c55e" stroke-width="2" fill="none" stroke-dasharray="13550" stroke-dashoffset="13550">
      <animate attributeName="stroke-dashoffset" values="13550;0" dur="3s" begin="2.6s" fill="freeze"/>
    </path>
    
    <!-- Glow effect for the line that also follows the circle -->
    <path d="M 30,160 L 30.019927674913053,160 L 30.06885083364743,160 L 31.545703007441908,160 L 31.57586332837596,160 L 31.605611476177813,160 L 33.09690763017006,160 L 33.131153841284124,160 L 33.16231771419221,160 L 34.64449229756329,160 L 34.67465261849734,160 L 34.709418526169394,160 L 36.19071500156318,160 L 36.22035562593925,160 L 36.24736192638346,160 L 37.74139992773335,160 L 37.772026183512494,160 L 37.80356638841084,160 L 39.294396607558,160 L 39.323212885669676,160 L 39.35163491122013,160 L 40.83692767393911,160 L 40.8677331354279,70 L 40.89982887802616,70 L 42.391053349734555,70 L 42.41243259089576,70 L 42.441911930133145,70 L 43.93551983777988,70 L 43.95942587944715,70 L 44.00184387092125,70 L 45.48570298796302,70 L 45.51718943114848,70 L 45.54484087214744,70 L 47.027768119499044,70 L 47.06226521860662,70 L 47.0960454948756,70 L 48.58563919462617,70 L 48.60090752108833,70 L 48.64228611944645,70 L 50.13087626722299,70 L 50.1635096269502,70 L 50.20037224142516,70 L 51.6793390425935,70 L 51.710090742369395,70 L 51.74949807792137,70 L 53.225292938028915,70 L 53.25799798003999,70 L 53.29615087562442,70 L 54.78221422289489,70 L 54.81864674366669,70 L 56.324601924708276,70 L 56.40121236558355,70 L 57.87319014407555,70 L 57.91127135737612,70 L 57.947417149012466,70 L 59.42115114345904,70 L 59.46127530184962,70 L 59.48889090170664,70 L 60.9727679393194,70 L 61.00635108930775,70 L 61.044055970618054,70 L 62.5156574171198,70 L 62.54922264653719,70 L 62.58698128956039,70 L 64.06636026386093,70 L 64.09935203500746,70 L 64.13474516266328,70 L 65.62016336937901,70 L 65.66351323054329,70 L 67.20274691186683,70 L 67.24378501937662,70 L 68.72033254346469,70 L 68.75416658144655,70 L 70.27271992387654,70 L 70.30153620198821,70 L 70.34898987390346,70 L 71.80919383727148,70 L 71.84216768784702,70 L 71.87747121264803,70 L 73.35939490802559,70 L 73.39839007044537,70 L 73.43752859743289,70 L 74.90499039204173,70 L 74.93660227922392,70 L 74.97502398337284,70 L 76.45207328344792,70 L 76.4880040282327,70 L 76.5349738447319,70 L 77.99562582237402,70 L 78.0365205653161,70 L 78.07610710657772,70 L 79.5511134615628,70 L 79.58401562985452,70 L 79.6215771465971,70 L 81.09941495179464,70 L 81.13271137264756,70 L 81.17109723565454,70 L 82.64574517922031,70 L 82.68434608907887,70 L 82.72593973428859,70 L 84.19564160026803,70 L 84.22637537947296,70 L 84.26341719965757,70 L 85.74534089503513,70 L 85.77292065375022,70 L 85.8105896939186,70 L 87.28980738308044,70 L 87.32516466959436,70 L 87.36421359372702,70 L 88.83920202814114,70 L 88.8767277037418,70 L 88.9166368152808,70 L 90.39169693197877,70 L 90.4188465969907,70 L 90.45768047427181,70 L 91.93874398224305,70 L 91.97531986758256,70 L 92.00793530673882,70 L 93.48240404459494,70 L 93.51587967115752,70 L 93.55442681930319,70 L 95.02805329032397,70 L 95.0686613041306,70 L 95.105810647741,70 L 96.579831371323,70 L 96.6104755476731,70 L 96.64488304392586,70 L 98.13431545853774,70 L 98.17171569014164,70 L 98.21381111133837,70 L 99.68141627051492,70 L 99.71482021479363,70 L 99.74822415907235,70 L 101.2262590905505,70 L 101.263354672448,70 L 101.29984095493269,70 L 102.76798373123819,70 L 102.80826917476745,70 L 102.84661919663249,70 L 104.31508454321536,70 L 104.35535206617367,70 L 104.39954419417329,70 L 105.87790169592881,70 L 105.90992575624323,70 L 105.95134019574328,70 L 107.42236818397414,70 L 107.45003754554406,70 L 107.48510810292251,70 L 108.96631497546149,70 L 109.00292670194293,70 L 109.04005812498234,70 L 110.51542289138673,70 L 110.54739318998826,70 L 110.58873594720444,70 L 112.06341973191215,70 L 112.0955871567943,70 L 112.13368629066582,70 L 113.61224091870197,70 L 113.64376320302935,70 L 113.67790189071765,70 L 115.15887579583405,40 L 115.18871354649073,40 L 116.70597660781124,40 L 116.74240912858302,40 L 116.77681662483577,40 L 118.25589094942991,40 L 118.28097974878087,40 L 118.32368446939041,40 L 119.81263302858625,40 L 119.85048127446426,40 L 121.35340787901278,40 L 121.39283313513572,40 L 121.44430101494713,40 L 122.90405696404102,40 L 122.94263995332861,40 L 122.9663847098572,40 L 124.4544193199338,40 L 124.49029630300569,40 L 124.52812662831275,40 L 126.00368852099774,40 L 126.03788097039893,40 L 126.07664316539616,40 L 127.55035923927177,40 L 127.5810930184767,40 L 127.61972976947717,40 L 129.09855320607778,40 L 129.13106112180827,40 L 129.16299557926786,40 L 130.6463529203226,40 L 130.68348434336204,40 L 130.72455829201377,40 L 132.19777258990234,40 L 132.23420511067414,40 L 132.2787377295221,40 L 133.7367016215195,40 L 133.7740480914105,40 L 133.81698577944258,40 L 135.29217134013732,40 L 135.32781535578664,40 L 135.36455252626484,40 L 136.84142262063028,40 L 136.8831596304077,40 L 136.92735175840733,40 L 138.39031548970394,40 L 138.42798452987233,40 L 138.47438088810065,40 L 139.93574968858138,40 L 139.9751928652753,40 L 140.01164330661805,40 L 141.49043090207675,40 L 141.52639748800345,40 L 143.0421910625048,40 L 143.07511115136748,40 L 144.58461460546013,40 L 144.6218714724963,40 L 144.66611736220884,40 L 146.1309448328858,40 L 146.17798633166888,40 L 147.68257954931715,40 L 147.71458568906058,40 L 147.75677071311213,40 L 149.2274761310656,40 L 149.26639961120154,40 L 149.310663421485,40 L 150.7715483665497,40 L 150.80912780386325,40 L 150.84095473789705,40 L 152.32511850464522,40 L 152.3683787629547,40 L 153.87451314970593,40 L 153.91332910641609,40 L 155.4230476073603,40 L 155.46161267607692,40 L 156.97099068617283,40 L 157.0091794228992,40 L 158.51386224340226,40 L 158.54916576820327,40 L 158.57997122969206,40 L 160.07035343456508,40 L 160.10606913249828,40 L 161.61625356828762,40 L 161.65415557587855,40 L 161.6948890336819,40 L 163.16663384475137,40 L 163.20815580767723,40 L 164.7139676241511,40 L 164.7582135138636,40 L 166.2659069902888,40 L 166.30936437487887,40 L 167.82083909177769,40 L 167.85814972052677,40 L 169.36236660618476,40 L 169.40673793989401,40 L 170.91068601698754,40 L 170.95281727932618,40 L 172.44805595893075,40 L 172.49282154520122,40 L 174.0049772437967,40 L 174.0511406346025,40 L 175.5486373061486,40 L 175.5987790637086,40 L 177.10552274987265,40 L 177.1463278899599,40 L 178.65074190189853,40 L 178.69120655113744,40 L 180.2066417142195,40 L 180.24474084809103,40 L 181.74960287430375,40 L 181.7944580634291,40 L 183.29767139711305,40 L 183.33333333333334,40" stroke="#22c55e" stroke-width="4" fill="none" opacity="0.4" stroke-dasharray="13550" stroke-dashoffset="13550">
      <animate attributeName="stroke-dashoffset" values="13550;0" dur="3s" begin="2.6s" fill="freeze"/>
    </path>
    
    <!-- Animated circle that moves along the path and draws the line -->
    <circle r="5" fill="#22c55e" opacity="0" filter="url(#trailGlow)">
      <animate attributeName="opacity" values="0;1;1;1" dur="3.2s" begin="2.4s" fill="freeze"/>
      <animate attributeName="r" values="5;6;5" dur="1s" begin="2.4s" repeatCount="3"/>
      <animateMotion dur="3s" begin="2.4s" fill="freeze">
        <mpath href="#path_followersCount_60"/>
      </animateMotion>
    </circle>
    
    <!-- Small trail dots that fade out -->
    <circle r="2" fill="#22c55e" opacity="0">
      <animate attributeName="opacity" values="0;0.6;0" dur="0.8s" begin="2.8s" fill="freeze"/>
      <animateMotion dur="3s" begin="2.4s" fill="freeze">
        <mpath href="#path_followersCount_60"/>
      </animateMotion>
    </circle>
    
    <!-- Hidden path for motion animation -->
    <path id="path_followersCount_60" d="M 30,160 L 30.019927674913053,160 L 30.06885083364743,160 L 31.545703007441908,160 L 31.57586332837596,160 L 31.605611476177813,160 L 33.09690763017006,160 L 33.131153841284124,160 L 33.16231771419221,160 L 34.64449229756329,160 L 34.67465261849734,160 L 34.709418526169394,160 L 36.19071500156318,160 L 36.22035562593925,160 L 36.24736192638346,160 L 37.74139992773335,160 L 37.772026183512494,160 L 37.80356638841084,160 L 39.294396607558,160 L 39.323212885669676,160 L 39.35163491122013,160 L 40.83692767393911,160 L 40.8677331354279,70 L 40.89982887802616,70 L 42.391053349734555,70 L 42.41243259089576,70 L 42.441911930133145,70 L 43.93551983777988,70 L 43.95942587944715,70 L 44.00184387092125,70 L 45.48570298796302,70 L 45.51718943114848,70 L 45.54484087214744,70 L 47.027768119499044,70 L 47.06226521860662,70 L 47.0960454948756,70 L 48.58563919462617,70 L 48.60090752108833,70 L 48.64228611944645,70 L 50.13087626722299,70 L 50.1635096269502,70 L 50.20037224142516,70 L 51.6793390425935,70 L 51.710090742369395,70 L 51.74949807792137,70 L 53.225292938028915,70 L 53.25799798003999,70 L 53.29615087562442,70 L 54.78221422289489,70 L 54.81864674366669,70 L 56.324601924708276,70 L 56.40121236558355,70 L 57.87319014407555,70 L 57.91127135737612,70 L 57.947417149012466,70 L 59.42115114345904,70 L 59.46127530184962,70 L 59.48889090170664,70 L 60.9727679393194,70 L 61.00635108930775,70 L 61.044055970618054,70 L 62.5156574171198,70 L 62.54922264653719,70 L 62.58698128956039,70 L 64.06636026386093,70 L 64.09935203500746,70 L 64.13474516266328,70 L 65.62016336937901,70 L 65.66351323054329,70 L 67.20274691186683,70 L 67.24378501937662,70 L 68.72033254346469,70 L 68.75416658144655,70 L 70.27271992387654,70 L 70.30153620198821,70 L 70.34898987390346,70 L 71.80919383727148,70 L 71.84216768784702,70 L 71.87747121264803,70 L 73.35939490802559,70 L 73.39839007044537,70 L 73.43752859743289,70 L 74.90499039204173,70 L 74.93660227922392,70 L 74.97502398337284,70 L 76.45207328344792,70 L 76.4880040282327,70 L 76.5349738447319,70 L 77.99562582237402,70 L 78.0365205653161,70 L 78.07610710657772,70 L 79.5511134615628,70 L 79.58401562985452,70 L 79.6215771465971,70 L 81.09941495179464,70 L 81.13271137264756,70 L 81.17109723565454,70 L 82.64574517922031,70 L 82.68434608907887,70 L 82.72593973428859,70 L 84.19564160026803,70 L 84.22637537947296,70 L 84.26341719965757,70 L 85.74534089503513,70 L 85.77292065375022,70 L 85.8105896939186,70 L 87.28980738308044,70 L 87.32516466959436,70 L 87.36421359372702,70 L 88.83920202814114,70 L 88.8767277037418,70 L 88.9166368152808,70 L 90.39169693197877,70 L 90.4188465969907,70 L 90.45768047427181,70 L 91.93874398224305,70 L 91.97531986758256,70 L 92.00793530673882,70 L 93.48240404459494,70 L 93.51587967115752,70 L 93.55442681930319,70 L 95.02805329032397,70 L 95.0686613041306,70 L 95.105810647741,70 L 96.579831371323,70 L 96.6104755476731,70 L 96.64488304392586,70 L 98.13431545853774,70 L 98.17171569014164,70 L 98.21381111133837,70 L 99.68141627051492,70 L 99.71482021479363,70 L 99.74822415907235,70 L 101.2262590905505,70 L 101.263354672448,70 L 101.29984095493269,70 L 102.76798373123819,70 L 102.80826917476745,70 L 102.84661919663249,70 L 104.31508454321536,70 L 104.35535206617367,70 L 104.39954419417329,70 L 105.87790169592881,70 L 105.90992575624323,70 L 105.95134019574328,70 L 107.42236818397414,70 L 107.45003754554406,70 L 107.48510810292251,70 L 108.96631497546149,70 L 109.00292670194293,70 L 109.04005812498234,70 L 110.51542289138673,70 L 110.54739318998826,70 L 110.58873594720444,70 L 112.06341973191215,70 L 112.0955871567943,70 L 112.13368629066582,70 L 113.61224091870197,70 L 113.64376320302935,70 L 113.67790189071765,70 L 115.15887579583405,40 L 115.18871354649073,40 L 116.70597660781124,40 L 116.74240912858302,40 L 116.77681662483577,40 L 118.25589094942991,40 L 118.28097974878087,40 L 118.32368446939041,40 L 119.81263302858625,40 L 119.85048127446426,40 L 121.35340787901278,40 L 121.39283313513572,40 L 121.44430101494713,40 L 122.90405696404102,40 L 122.94263995332861,40 L 122.9663847098572,40 L 124.4544193199338,40 L 124.49029630300569,40 L 124.52812662831275,40 L 126.00368852099774,40 L 126.03788097039893,40 L 126.07664316539616,40 L 127.55035923927177,40 L 127.5810930184767,40 L 127.61972976947717,40 L 129.09855320607778,40 L 129.13106112180827,40 L 129.16299557926786,40 L 130.6463529203226,40 L 130.68348434336204,40 L 130.72455829201377,40 L 132.19777258990234,40 L 132.23420511067414,40 L 132.2787377295221,40 L 133.7367016215195,40 L 133.7740480914105,40 L 133.81698577944258,40 L 135.29217134013732,40 L 135.32781535578664,40 L 135.36455252626484,40 L 136.84142262063028,40 L 136.8831596304077,40 L 136.92735175840733,40 L 138.39031548970394,40 L 138.42798452987233,40 L 138.47438088810065,40 L 139.93574968858138,40 L 139.9751928652753,40 L 140.01164330661805,40 L 141.49043090207675,40 L 141.52639748800345,40 L 143.0421910625048,40 L 143.07511115136748,40 L 144.58461460546013,40 L 144.6218714724963,40 L 144.66611736220884,40 L 146.1309448328858,40 L 146.17798633166888,40 L 147.68257954931715,40 L 147.71458568906058,40 L 147.75677071311213,40 L 149.2274761310656,40 L 149.26639961120154,40 L 149.310663421485,40 L 150.7715483665497,40 L 150.80912780386325,40 L 150.84095473789705,40 L 152.32511850464522,40 L 152.3683787629547,40 L 153.87451314970593,40 L 153.91332910641609,40 L 155.4230476073603,40 L 155.46161267607692,40 L 156.97099068617283,40 L 157.0091794228992,40 L 158.51386224340226,40 L 158.54916576820327,40 L 158.57997122969206,40 L 160.07035343456508,40 L 160.10606913249828,40 L 161.61625356828762,40 L 161.65415557587855,40 L 161.6948890336819,40 L 163.16663384475137,40 L 163.20815580767723,40 L 164.7139676241511,40 L 164.7582135138636,40 L 166.2659069902888,40 L 166.30936437487887,40 L 167.82083909177769,40 L 167.85814972052677,40 L 169.36236660618476,40 L 169.40673793989401,40 L 170.91068601698754,40 L 170.95281727932618,40 L 172.44805595893075,40 L 172.49282154520122,40 L 174.0049772437967,40 L 174.0511406346025,40 L 175.5486373061486,40 L 175.5987790637086,40 L 177.10552274987265,40 L 177.1463278899599,40 L 178.65074190189853,40 L 178.69120655113744,40 L 180.2066417142195,40 L 180.24474084809103,40 L 181.74960287430375,40 L 181.7944580634291,40 L 183.29767139711305,40 L 183.33333333333334,40" fill="none" stroke="none"/>
  </g>
  <!-- 🔓 Public Contributions Chart -->
  <g transform="translate(293.33333333333337, 250)">
    <!-- Chart Background -->
    <rect x="0" y="0" width="213.33333333333334" height="200" fill="#ffffff" stroke="#e2e8f0" stroke-width="1" rx="8" filter="url(#shadow)">
      <animate attributeName="opacity" values="0;1" dur="0.5s" begin="2.3s" fill="freeze"/>
    </rect>
    
    <!-- Chart Title -->
    <text x="106.66666666666667" y="25" text-anchor="middle" fill="#1e293b" font-size="14" font-weight="bold" font-family="Arial, sans-serif">
      🔓 Public Contributions
      <animate attributeName="opacity" values="0;1" dur="0.5s" begin="2.5s" fill="freeze"/>
    </text>
    
    <!-- Y-axis labels -->
    <text x="10" y="45" fill="#64748b" font-size="10" font-family="Arial, sans-serif">3,861
      <animate attributeName="opacity" values="0;1" dur="0.5s" begin="2.6999999999999997s" fill="freeze"/>
    </text>
    <text x="10" y="185" fill="#64748b" font-size="10" font-family="Arial, sans-serif">3,434
      <animate attributeName="opacity" values="0;1" dur="0.5s" begin="2.6999999999999997s" fill="freeze"/>
    </text>
    
    <!-- Chart Line with draw animation that follows the circle -->
    <path d="M 30,160 L 30.019927674913053,160 L 30.06885083364743,160 L 31.545703007441908,160 L 31.57586332837596,160 L 31.605611476177813,160 L 33.09690763017006,160 L 33.131153841284124,160 L 33.16231771419221,160 L 34.64449229756329,160 L 34.67465261849734,160 L 34.709418526169394,160 L 36.19071500156318,160 L 36.22035562593925,160 L 36.24736192638346,160 L 37.74139992773335,160 L 37.772026183512494,160 L 37.80356638841084,160 L 39.294396607558,160 L 39.323212885669676,160 L 39.35163491122013,160 L 40.83692767393911,160 L 40.8677331354279,40 L 40.89982887802616,40 L 42.391053349734555,40 L 42.41243259089576,40 L 42.441911930133145,40 L 43.93551983777988,40 L 43.95942587944715,40 L 44.00184387092125,40 L 45.48570298796302,40 L 45.51718943114848,40 L 45.54484087214744,40 L 47.027768119499044,40 L 47.06226521860662,40 L 47.0960454948756,40 L 48.58563919462617,40 L 48.60090752108833,40 L 48.64228611944645,40 L 50.13087626722299,40 L 50.1635096269502,40 L 50.20037224142516,40 L 51.6793390425935,40 L 51.710090742369395,40 L 51.74949807792137,40 L 53.225292938028915,40 L 53.25799798003999,40 L 53.29615087562442,40 L 54.78221422289489,40 L 54.81864674366669,40 L 56.324601924708276,40 L 56.40121236558355,40 L 57.87319014407555,40 L 57.91127135737612,40 L 57.947417149012466,40 L 59.42115114345904,40 L 59.46127530184962,40 L 59.48889090170664,40 L 60.9727679393194,40 L 61.00635108930775,40 L 61.044055970618054,40 L 62.5156574171198,40 L 62.54922264653719,40 L 62.58698128956039,40 L 64.06636026386093,40 L 64.09935203500746,40 L 64.13474516266328,40 L 65.62016336937901,40 L 65.66351323054329,40 L 67.20274691186683,40 L 67.24378501937662,40 L 68.72033254346469,40 L 68.75416658144655,40 L 70.27271992387654,40 L 70.30153620198821,40 L 70.34898987390346,40 L 71.80919383727148,40 L 71.84216768784702,40 L 71.87747121264803,40 L 73.35939490802559,40 L 73.39839007044537,40 L 73.43752859743289,40 L 74.90499039204173,40 L 74.93660227922392,40 L 74.97502398337284,40 L 76.45207328344792,40 L 76.4880040282327,40 L 76.5349738447319,40 L 77.99562582237402,40 L 78.0365205653161,40 L 78.07610710657772,40 L 79.5511134615628,40 L 79.58401562985452,40 L 79.6215771465971,40 L 81.09941495179464,40 L 81.13271137264756,40 L 81.17109723565454,40 L 82.64574517922031,40 L 82.68434608907887,40 L 82.72593973428859,40 L 84.19564160026803,40 L 84.22637537947296,40 L 84.26341719965757,40 L 85.74534089503513,40 L 85.77292065375022,40 L 85.8105896939186,40 L 87.28980738308044,40 L 87.32516466959436,40 L 87.36421359372702,40 L 88.83920202814114,40 L 88.8767277037418,40 L 88.9166368152808,40 L 90.39169693197877,40 L 90.4188465969907,40 L 90.45768047427181,40 L 91.93874398224305,40 L 91.97531986758256,40 L 92.00793530673882,40 L 93.48240404459494,40 L 93.51587967115752,40 L 93.55442681930319,40 L 95.02805329032397,40 L 95.0686613041306,40 L 95.105810647741,40 L 96.579831371323,40 L 96.6104755476731,40 L 96.64488304392586,40 L 98.13431545853774,40 L 98.17171569014164,40 L 98.21381111133837,40 L 99.68141627051492,40 L 99.71482021479363,40 L 99.74822415907235,40 L 101.2262590905505,40 L 101.263354672448,40 L 101.29984095493269,40 L 102.76798373123819,40 L 102.80826917476745,40 L 102.84661919663249,40 L 104.31508454321536,40 L 104.35535206617367,40 L 104.39954419417329,40 L 105.87790169592881,40 L 105.90992575624323,40 L 105.95134019574328,40 L 107.42236818397414,40 L 107.45003754554406,40 L 107.48510810292251,40 L 108.96631497546149,40 L 109.00292670194293,40 L 109.04005812498234,40 L 110.51542289138673,40 L 110.54739318998826,40 L 110.58873594720444,40 L 112.06341973191215,40 L 112.0955871567943,40 L 112.13368629066582,40 L 113.61224091870197,40 L 113.64376320302935,40 L 113.67790189071765,40 L 115.15887579583405,66.4168618266979 L 115.18871354649073,66.4168618266979 L 116.70597660781124,66.4168618266979 L 116.74240912858302,66.4168618266979 L 116.77681662483577,66.4168618266979 L 118.25589094942991,66.4168618266979 L 118.28097974878087,66.4168618266979 L 118.32368446939041,66.4168618266979 L 119.81263302858625,66.4168618266979 L 119.85048127446426,66.4168618266979 L 121.35340787901278,66.4168618266979 L 121.39283313513572,66.4168618266979 L 121.44430101494713,66.4168618266979 L 122.90405696404102,66.4168618266979 L 122.94263995332861,66.4168618266979 L 122.9663847098572,66.4168618266979 L 124.4544193199338,66.4168618266979 L 124.49029630300569,66.4168618266979 L 124.52812662831275,66.4168618266979 L 126.00368852099774,66.4168618266979 L 126.03788097039893,66.4168618266979 L 126.07664316539616,66.4168618266979 L 127.55035923927177,66.4168618266979 L 127.5810930184767,66.4168618266979 L 127.61972976947717,66.4168618266979 L 129.09855320607778,66.4168618266979 L 129.13106112180827,66.4168618266979 L 129.16299557926786,66.4168618266979 L 130.6463529203226,66.4168618266979 L 130.68348434336204,66.4168618266979 L 130.72455829201377,66.4168618266979 L 132.19777258990234,66.4168618266979 L 132.23420511067414,66.4168618266979 L 132.2787377295221,66.4168618266979 L 133.7367016215195,66.4168618266979 L 133.7740480914105,66.4168618266979 L 133.81698577944258,66.4168618266979 L 135.29217134013732,66.4168618266979 L 135.32781535578664,66.4168618266979 L 135.36455252626484,66.4168618266979 L 136.84142262063028,66.4168618266979 L 136.8831596304077,66.4168618266979 L 136.92735175840733,66.4168618266979 L 138.39031548970394,66.4168618266979 L 138.42798452987233,66.4168618266979 L 138.47438088810065,66.4168618266979 L 139.93574968858138,66.4168618266979 L 139.9751928652753,66.4168618266979 L 140.01164330661805,66.4168618266979 L 141.49043090207675,66.4168618266979 L 141.52639748800345,66.4168618266979 L 143.0421910625048,66.4168618266979 L 143.07511115136748,66.4168618266979 L 144.58461460546013,66.4168618266979 L 144.6218714724963,66.4168618266979 L 144.66611736220884,66.4168618266979 L 146.1309448328858,66.4168618266979 L 146.17798633166888,66.4168618266979 L 147.68257954931715,66.4168618266979 L 147.71458568906058,66.4168618266979 L 147.75677071311213,66.4168618266979 L 149.2274761310656,66.4168618266979 L 149.26639961120154,66.4168618266979 L 149.310663421485,66.4168618266979 L 150.7715483665497,66.4168618266979 L 150.80912780386325,66.4168618266979 L 150.84095473789705,66.4168618266979 L 152.32511850464522,66.4168618266979 L 152.3683787629547,66.4168618266979 L 153.87451314970593,66.4168618266979 L 153.91332910641609,66.4168618266979 L 155.4230476073603,66.4168618266979 L 155.46161267607692,66.4168618266979 L 156.97099068617283,66.4168618266979 L 157.0091794228992,66.4168618266979 L 158.51386224340226,66.4168618266979 L 158.54916576820327,66.4168618266979 L 158.57997122969206,66.4168618266979 L 160.07035343456508,66.4168618266979 L 160.10606913249828,66.4168618266979 L 161.61625356828762,66.4168618266979 L 161.65415557587855,66.4168618266979 L 161.6948890336819,66.4168618266979 L 163.16663384475137,66.4168618266979 L 163.20815580767723,66.4168618266979 L 164.7139676241511,66.4168618266979 L 164.7582135138636,66.4168618266979 L 166.2659069902888,66.4168618266979 L 166.30936437487887,66.4168618266979 L 167.82083909177769,66.4168618266979 L 167.85814972052677,66.4168618266979 L 169.36236660618476,66.4168618266979 L 169.40673793989401,66.4168618266979 L 170.91068601698754,66.4168618266979 L 170.95281727932618,66.4168618266979 L 172.44805595893075,66.4168618266979 L 172.49282154520122,66.4168618266979 L 174.0049772437967,66.4168618266979 L 174.0511406346025,66.4168618266979 L 175.5486373061486,66.4168618266979 L 175.5987790637086,66.4168618266979 L 177.10552274987265,66.4168618266979 L 177.1463278899599,66.4168618266979 L 178.65074190189853,66.4168618266979 L 178.69120655113744,66.4168618266979 L 180.2066417142195,66.4168618266979 L 180.24474084809103,66.4168618266979 L 181.74960287430375,66.4168618266979 L 181.7944580634291,66.4168618266979 L 183.29767139711305,66.4168618266979 L 183.33333333333334,66.4168618266979" stroke="#3b82f6" stroke-width="2" fill="none" stroke-dasharray="13550" stroke-dashoffset="13550">
      <animate attributeName="stroke-dashoffset" values="13550;0" dur="3s" begin="3.0999999999999996s" fill="freeze"/>
    </path>
    
    <!-- Glow effect for the line that also follows the circle -->
    <path d="M 30,160 L 30.019927674913053,160 L 30.06885083364743,160 L 31.545703007441908,160 L 31.57586332837596,160 L 31.605611476177813,160 L 33.09690763017006,160 L 33.131153841284124,160 L 33.16231771419221,160 L 34.64449229756329,160 L 34.67465261849734,160 L 34.709418526169394,160 L 36.19071500156318,160 L 36.22035562593925,160 L 36.24736192638346,160 L 37.74139992773335,160 L 37.772026183512494,160 L 37.80356638841084,160 L 39.294396607558,160 L 39.323212885669676,160 L 39.35163491122013,160 L 40.83692767393911,160 L 40.8677331354279,40 L 40.89982887802616,40 L 42.391053349734555,40 L 42.41243259089576,40 L 42.441911930133145,40 L 43.93551983777988,40 L 43.95942587944715,40 L 44.00184387092125,40 L 45.48570298796302,40 L 45.51718943114848,40 L 45.54484087214744,40 L 47.027768119499044,40 L 47.06226521860662,40 L 47.0960454948756,40 L 48.58563919462617,40 L 48.60090752108833,40 L 48.64228611944645,40 L 50.13087626722299,40 L 50.1635096269502,40 L 50.20037224142516,40 L 51.6793390425935,40 L 51.710090742369395,40 L 51.74949807792137,40 L 53.225292938028915,40 L 53.25799798003999,40 L 53.29615087562442,40 L 54.78221422289489,40 L 54.81864674366669,40 L 56.324601924708276,40 L 56.40121236558355,40 L 57.87319014407555,40 L 57.91127135737612,40 L 57.947417149012466,40 L 59.42115114345904,40 L 59.46127530184962,40 L 59.48889090170664,40 L 60.9727679393194,40 L 61.00635108930775,40 L 61.044055970618054,40 L 62.5156574171198,40 L 62.54922264653719,40 L 62.58698128956039,40 L 64.06636026386093,40 L 64.09935203500746,40 L 64.13474516266328,40 L 65.62016336937901,40 L 65.66351323054329,40 L 67.20274691186683,40 L 67.24378501937662,40 L 68.72033254346469,40 L 68.75416658144655,40 L 70.27271992387654,40 L 70.30153620198821,40 L 70.34898987390346,40 L 71.80919383727148,40 L 71.84216768784702,40 L 71.87747121264803,40 L 73.35939490802559,40 L 73.39839007044537,40 L 73.43752859743289,40 L 74.90499039204173,40 L 74.93660227922392,40 L 74.97502398337284,40 L 76.45207328344792,40 L 76.4880040282327,40 L 76.5349738447319,40 L 77.99562582237402,40 L 78.0365205653161,40 L 78.07610710657772,40 L 79.5511134615628,40 L 79.58401562985452,40 L 79.6215771465971,40 L 81.09941495179464,40 L 81.13271137264756,40 L 81.17109723565454,40 L 82.64574517922031,40 L 82.68434608907887,40 L 82.72593973428859,40 L 84.19564160026803,40 L 84.22637537947296,40 L 84.26341719965757,40 L 85.74534089503513,40 L 85.77292065375022,40 L 85.8105896939186,40 L 87.28980738308044,40 L 87.32516466959436,40 L 87.36421359372702,40 L 88.83920202814114,40 L 88.8767277037418,40 L 88.9166368152808,40 L 90.39169693197877,40 L 90.4188465969907,40 L 90.45768047427181,40 L 91.93874398224305,40 L 91.97531986758256,40 L 92.00793530673882,40 L 93.48240404459494,40 L 93.51587967115752,40 L 93.55442681930319,40 L 95.02805329032397,40 L 95.0686613041306,40 L 95.105810647741,40 L 96.579831371323,40 L 96.6104755476731,40 L 96.64488304392586,40 L 98.13431545853774,40 L 98.17171569014164,40 L 98.21381111133837,40 L 99.68141627051492,40 L 99.71482021479363,40 L 99.74822415907235,40 L 101.2262590905505,40 L 101.263354672448,40 L 101.29984095493269,40 L 102.76798373123819,40 L 102.80826917476745,40 L 102.84661919663249,40 L 104.31508454321536,40 L 104.35535206617367,40 L 104.39954419417329,40 L 105.87790169592881,40 L 105.90992575624323,40 L 105.95134019574328,40 L 107.42236818397414,40 L 107.45003754554406,40 L 107.48510810292251,40 L 108.96631497546149,40 L 109.00292670194293,40 L 109.04005812498234,40 L 110.51542289138673,40 L 110.54739318998826,40 L 110.58873594720444,40 L 112.06341973191215,40 L 112.0955871567943,40 L 112.13368629066582,40 L 113.61224091870197,40 L 113.64376320302935,40 L 113.67790189071765,40 L 115.15887579583405,66.4168618266979 L 115.18871354649073,66.4168618266979 L 116.70597660781124,66.4168618266979 L 116.74240912858302,66.4168618266979 L 116.77681662483577,66.4168618266979 L 118.25589094942991,66.4168618266979 L 118.28097974878087,66.4168618266979 L 118.32368446939041,66.4168618266979 L 119.81263302858625,66.4168618266979 L 119.85048127446426,66.4168618266979 L 121.35340787901278,66.4168618266979 L 121.39283313513572,66.4168618266979 L 121.44430101494713,66.4168618266979 L 122.90405696404102,66.4168618266979 L 122.94263995332861,66.4168618266979 L 122.9663847098572,66.4168618266979 L 124.4544193199338,66.4168618266979 L 124.49029630300569,66.4168618266979 L 124.52812662831275,66.4168618266979 L 126.00368852099774,66.4168618266979 L 126.03788097039893,66.4168618266979 L 126.07664316539616,66.4168618266979 L 127.55035923927177,66.4168618266979 L 127.5810930184767,66.4168618266979 L 127.61972976947717,66.4168618266979 L 129.09855320607778,66.4168618266979 L 129.13106112180827,66.4168618266979 L 129.16299557926786,66.4168618266979 L 130.6463529203226,66.4168618266979 L 130.68348434336204,66.4168618266979 L 130.72455829201377,66.4168618266979 L 132.19777258990234,66.4168618266979 L 132.23420511067414,66.4168618266979 L 132.2787377295221,66.4168618266979 L 133.7367016215195,66.4168618266979 L 133.7740480914105,66.4168618266979 L 133.81698577944258,66.4168618266979 L 135.29217134013732,66.4168618266979 L 135.32781535578664,66.4168618266979 L 135.36455252626484,66.4168618266979 L 136.84142262063028,66.4168618266979 L 136.8831596304077,66.4168618266979 L 136.92735175840733,66.4168618266979 L 138.39031548970394,66.4168618266979 L 138.42798452987233,66.4168618266979 L 138.47438088810065,66.4168618266979 L 139.93574968858138,66.4168618266979 L 139.9751928652753,66.4168618266979 L 140.01164330661805,66.4168618266979 L 141.49043090207675,66.4168618266979 L 141.52639748800345,66.4168618266979 L 143.0421910625048,66.4168618266979 L 143.07511115136748,66.4168618266979 L 144.58461460546013,66.4168618266979 L 144.6218714724963,66.4168618266979 L 144.66611736220884,66.4168618266979 L 146.1309448328858,66.4168618266979 L 146.17798633166888,66.4168618266979 L 147.68257954931715,66.4168618266979 L 147.71458568906058,66.4168618266979 L 147.75677071311213,66.4168618266979 L 149.2274761310656,66.4168618266979 L 149.26639961120154,66.4168618266979 L 149.310663421485,66.4168618266979 L 150.7715483665497,66.4168618266979 L 150.80912780386325,66.4168618266979 L 150.84095473789705,66.4168618266979 L 152.32511850464522,66.4168618266979 L 152.3683787629547,66.4168618266979 L 153.87451314970593,66.4168618266979 L 153.91332910641609,66.4168618266979 L 155.4230476073603,66.4168618266979 L 155.46161267607692,66.4168618266979 L 156.97099068617283,66.4168618266979 L 157.0091794228992,66.4168618266979 L 158.51386224340226,66.4168618266979 L 158.54916576820327,66.4168618266979 L 158.57997122969206,66.4168618266979 L 160.07035343456508,66.4168618266979 L 160.10606913249828,66.4168618266979 L 161.61625356828762,66.4168618266979 L 161.65415557587855,66.4168618266979 L 161.6948890336819,66.4168618266979 L 163.16663384475137,66.4168618266979 L 163.20815580767723,66.4168618266979 L 164.7139676241511,66.4168618266979 L 164.7582135138636,66.4168618266979 L 166.2659069902888,66.4168618266979 L 166.30936437487887,66.4168618266979 L 167.82083909177769,66.4168618266979 L 167.85814972052677,66.4168618266979 L 169.36236660618476,66.4168618266979 L 169.40673793989401,66.4168618266979 L 170.91068601698754,66.4168618266979 L 170.95281727932618,66.4168618266979 L 172.44805595893075,66.4168618266979 L 172.49282154520122,66.4168618266979 L 174.0049772437967,66.4168618266979 L 174.0511406346025,66.4168618266979 L 175.5486373061486,66.4168618266979 L 175.5987790637086,66.4168618266979 L 177.10552274987265,66.4168618266979 L 177.1463278899599,66.4168618266979 L 178.65074190189853,66.4168618266979 L 178.69120655113744,66.4168618266979 L 180.2066417142195,66.4168618266979 L 180.24474084809103,66.4168618266979 L 181.74960287430375,66.4168618266979 L 181.7944580634291,66.4168618266979 L 183.29767139711305,66.4168618266979 L 183.33333333333334,66.4168618266979" stroke="#3b82f6" stroke-width="4" fill="none" opacity="0.4" stroke-dasharray="13550" stroke-dashoffset="13550">
      <animate attributeName="stroke-dashoffset" values="13550;0" dur="3s" begin="3.0999999999999996s" fill="freeze"/>
    </path>
    
    <!-- Animated circle that moves along the path and draws the line -->
    <circle r="5" fill="#3b82f6" opacity="0" filter="url(#trailGlow)">
      <animate attributeName="opacity" values="0;1;1;1" dur="3.2s" begin="2.9s" fill="freeze"/>
      <animate attributeName="r" values="5;6;5" dur="1s" begin="2.9s" repeatCount="3"/>
      <animateMotion dur="3s" begin="2.9s" fill="freeze">
        <mpath href="#path_publicContributions_293.33333333333337"/>
      </animateMotion>
    </circle>
    
    <!-- Small trail dots that fade out -->
    <circle r="2" fill="#3b82f6" opacity="0">
      <animate attributeName="opacity" values="0;0.6;0" dur="0.8s" begin="3.3s" fill="freeze"/>
      <animateMotion dur="3s" begin="2.9s" fill="freeze">
        <mpath href="#path_publicContributions_293.33333333333337"/>
      </animateMotion>
    </circle>
    
    <!-- Hidden path for motion animation -->
    <path id="path_publicContributions_293.33333333333337" d="M 30,160 L 30.019927674913053,160 L 30.06885083364743,160 L 31.545703007441908,160 L 31.57586332837596,160 L 31.605611476177813,160 L 33.09690763017006,160 L 33.131153841284124,160 L 33.16231771419221,160 L 34.64449229756329,160 L 34.67465261849734,160 L 34.709418526169394,160 L 36.19071500156318,160 L 36.22035562593925,160 L 36.24736192638346,160 L 37.74139992773335,160 L 37.772026183512494,160 L 37.80356638841084,160 L 39.294396607558,160 L 39.323212885669676,160 L 39.35163491122013,160 L 40.83692767393911,160 L 40.8677331354279,40 L 40.89982887802616,40 L 42.391053349734555,40 L 42.41243259089576,40 L 42.441911930133145,40 L 43.93551983777988,40 L 43.95942587944715,40 L 44.00184387092125,40 L 45.48570298796302,40 L 45.51718943114848,40 L 45.54484087214744,40 L 47.027768119499044,40 L 47.06226521860662,40 L 47.0960454948756,40 L 48.58563919462617,40 L 48.60090752108833,40 L 48.64228611944645,40 L 50.13087626722299,40 L 50.1635096269502,40 L 50.20037224142516,40 L 51.6793390425935,40 L 51.710090742369395,40 L 51.74949807792137,40 L 53.225292938028915,40 L 53.25799798003999,40 L 53.29615087562442,40 L 54.78221422289489,40 L 54.81864674366669,40 L 56.324601924708276,40 L 56.40121236558355,40 L 57.87319014407555,40 L 57.91127135737612,40 L 57.947417149012466,40 L 59.42115114345904,40 L 59.46127530184962,40 L 59.48889090170664,40 L 60.9727679393194,40 L 61.00635108930775,40 L 61.044055970618054,40 L 62.5156574171198,40 L 62.54922264653719,40 L 62.58698128956039,40 L 64.06636026386093,40 L 64.09935203500746,40 L 64.13474516266328,40 L 65.62016336937901,40 L 65.66351323054329,40 L 67.20274691186683,40 L 67.24378501937662,40 L 68.72033254346469,40 L 68.75416658144655,40 L 70.27271992387654,40 L 70.30153620198821,40 L 70.34898987390346,40 L 71.80919383727148,40 L 71.84216768784702,40 L 71.87747121264803,40 L 73.35939490802559,40 L 73.39839007044537,40 L 73.43752859743289,40 L 74.90499039204173,40 L 74.93660227922392,40 L 74.97502398337284,40 L 76.45207328344792,40 L 76.4880040282327,40 L 76.5349738447319,40 L 77.99562582237402,40 L 78.0365205653161,40 L 78.07610710657772,40 L 79.5511134615628,40 L 79.58401562985452,40 L 79.6215771465971,40 L 81.09941495179464,40 L 81.13271137264756,40 L 81.17109723565454,40 L 82.64574517922031,40 L 82.68434608907887,40 L 82.72593973428859,40 L 84.19564160026803,40 L 84.22637537947296,40 L 84.26341719965757,40 L 85.74534089503513,40 L 85.77292065375022,40 L 85.8105896939186,40 L 87.28980738308044,40 L 87.32516466959436,40 L 87.36421359372702,40 L 88.83920202814114,40 L 88.8767277037418,40 L 88.9166368152808,40 L 90.39169693197877,40 L 90.4188465969907,40 L 90.45768047427181,40 L 91.93874398224305,40 L 91.97531986758256,40 L 92.00793530673882,40 L 93.48240404459494,40 L 93.51587967115752,40 L 93.55442681930319,40 L 95.02805329032397,40 L 95.0686613041306,40 L 95.105810647741,40 L 96.579831371323,40 L 96.6104755476731,40 L 96.64488304392586,40 L 98.13431545853774,40 L 98.17171569014164,40 L 98.21381111133837,40 L 99.68141627051492,40 L 99.71482021479363,40 L 99.74822415907235,40 L 101.2262590905505,40 L 101.263354672448,40 L 101.29984095493269,40 L 102.76798373123819,40 L 102.80826917476745,40 L 102.84661919663249,40 L 104.31508454321536,40 L 104.35535206617367,40 L 104.39954419417329,40 L 105.87790169592881,40 L 105.90992575624323,40 L 105.95134019574328,40 L 107.42236818397414,40 L 107.45003754554406,40 L 107.48510810292251,40 L 108.96631497546149,40 L 109.00292670194293,40 L 109.04005812498234,40 L 110.51542289138673,40 L 110.54739318998826,40 L 110.58873594720444,40 L 112.06341973191215,40 L 112.0955871567943,40 L 112.13368629066582,40 L 113.61224091870197,40 L 113.64376320302935,40 L 113.67790189071765,40 L 115.15887579583405,66.4168618266979 L 115.18871354649073,66.4168618266979 L 116.70597660781124,66.4168618266979 L 116.74240912858302,66.4168618266979 L 116.77681662483577,66.4168618266979 L 118.25589094942991,66.4168618266979 L 118.28097974878087,66.4168618266979 L 118.32368446939041,66.4168618266979 L 119.81263302858625,66.4168618266979 L 119.85048127446426,66.4168618266979 L 121.35340787901278,66.4168618266979 L 121.39283313513572,66.4168618266979 L 121.44430101494713,66.4168618266979 L 122.90405696404102,66.4168618266979 L 122.94263995332861,66.4168618266979 L 122.9663847098572,66.4168618266979 L 124.4544193199338,66.4168618266979 L 124.49029630300569,66.4168618266979 L 124.52812662831275,66.4168618266979 L 126.00368852099774,66.4168618266979 L 126.03788097039893,66.4168618266979 L 126.07664316539616,66.4168618266979 L 127.55035923927177,66.4168618266979 L 127.5810930184767,66.4168618266979 L 127.61972976947717,66.4168618266979 L 129.09855320607778,66.4168618266979 L 129.13106112180827,66.4168618266979 L 129.16299557926786,66.4168618266979 L 130.6463529203226,66.4168618266979 L 130.68348434336204,66.4168618266979 L 130.72455829201377,66.4168618266979 L 132.19777258990234,66.4168618266979 L 132.23420511067414,66.4168618266979 L 132.2787377295221,66.4168618266979 L 133.7367016215195,66.4168618266979 L 133.7740480914105,66.4168618266979 L 133.81698577944258,66.4168618266979 L 135.29217134013732,66.4168618266979 L 135.32781535578664,66.4168618266979 L 135.36455252626484,66.4168618266979 L 136.84142262063028,66.4168618266979 L 136.8831596304077,66.4168618266979 L 136.92735175840733,66.4168618266979 L 138.39031548970394,66.4168618266979 L 138.42798452987233,66.4168618266979 L 138.47438088810065,66.4168618266979 L 139.93574968858138,66.4168618266979 L 139.9751928652753,66.4168618266979 L 140.01164330661805,66.4168618266979 L 141.49043090207675,66.4168618266979 L 141.52639748800345,66.4168618266979 L 143.0421910625048,66.4168618266979 L 143.07511115136748,66.4168618266979 L 144.58461460546013,66.4168618266979 L 144.6218714724963,66.4168618266979 L 144.66611736220884,66.4168618266979 L 146.1309448328858,66.4168618266979 L 146.17798633166888,66.4168618266979 L 147.68257954931715,66.4168618266979 L 147.71458568906058,66.4168618266979 L 147.75677071311213,66.4168618266979 L 149.2274761310656,66.4168618266979 L 149.26639961120154,66.4168618266979 L 149.310663421485,66.4168618266979 L 150.7715483665497,66.4168618266979 L 150.80912780386325,66.4168618266979 L 150.84095473789705,66.4168618266979 L 152.32511850464522,66.4168618266979 L 152.3683787629547,66.4168618266979 L 153.87451314970593,66.4168618266979 L 153.91332910641609,66.4168618266979 L 155.4230476073603,66.4168618266979 L 155.46161267607692,66.4168618266979 L 156.97099068617283,66.4168618266979 L 157.0091794228992,66.4168618266979 L 158.51386224340226,66.4168618266979 L 158.54916576820327,66.4168618266979 L 158.57997122969206,66.4168618266979 L 160.07035343456508,66.4168618266979 L 160.10606913249828,66.4168618266979 L 161.61625356828762,66.4168618266979 L 161.65415557587855,66.4168618266979 L 161.6948890336819,66.4168618266979 L 163.16663384475137,66.4168618266979 L 163.20815580767723,66.4168618266979 L 164.7139676241511,66.4168618266979 L 164.7582135138636,66.4168618266979 L 166.2659069902888,66.4168618266979 L 166.30936437487887,66.4168618266979 L 167.82083909177769,66.4168618266979 L 167.85814972052677,66.4168618266979 L 169.36236660618476,66.4168618266979 L 169.40673793989401,66.4168618266979 L 170.91068601698754,66.4168618266979 L 170.95281727932618,66.4168618266979 L 172.44805595893075,66.4168618266979 L 172.49282154520122,66.4168618266979 L 174.0049772437967,66.4168618266979 L 174.0511406346025,66.4168618266979 L 175.5486373061486,66.4168618266979 L 175.5987790637086,66.4168618266979 L 177.10552274987265,66.4168618266979 L 177.1463278899599,66.4168618266979 L 178.65074190189853,66.4168618266979 L 178.69120655113744,66.4168618266979 L 180.2066417142195,66.4168618266979 L 180.24474084809103,66.4168618266979 L 181.74960287430375,66.4168618266979 L 181.7944580634291,66.4168618266979 L 183.29767139711305,66.4168618266979 L 183.33333333333334,66.4168618266979" fill="none" stroke="none"/>
  </g>
  <!-- 📊 Total Contributions Chart -->
  <g transform="translate(526.6666666666667, 250)">
    <!-- Chart Background -->
    <rect x="0" y="0" width="213.33333333333334" height="200" fill="#ffffff" stroke="#e2e8f0" stroke-width="1" rx="8" filter="url(#shadow)">
      <animate attributeName="opacity" values="0;1" dur="0.5s" begin="2.8s" fill="freeze"/>
    </rect>
    
    <!-- Chart Title -->
    <text x="106.66666666666667" y="25" text-anchor="middle" fill="#1e293b" font-size="14" font-weight="bold" font-family="Arial, sans-serif">
      📊 Total Contributions
      <animate attributeName="opacity" values="0;1" dur="0.5s" begin="3s" fill="freeze"/>
    </text>
    
    <!-- Y-axis labels -->
    <text x="10" y="45" fill="#64748b" font-size="10" font-family="Arial, sans-serif">5,314
      <animate attributeName="opacity" values="0;1" dur="0.5s" begin="3.1999999999999997s" fill="freeze"/>
    </text>
    <text x="10" y="185" fill="#64748b" font-size="10" font-family="Arial, sans-serif">4,917
      <animate attributeName="opacity" values="0;1" dur="0.5s" begin="3.1999999999999997s" fill="freeze"/>
    </text>
    
    <!-- Chart Line with draw animation that follows the circle -->
    <path d="M 30,160 L 30.019927674913053,160 L 30.06885083364743,160 L 31.545703007441908,160 L 31.57586332837596,160 L 31.605611476177813,160 L 33.09690763017006,160 L 33.131153841284124,160 L 33.16231771419221,160 L 34.64449229756329,160 L 34.67465261849734,160 L 34.709418526169394,160 L 36.19071500156318,160 L 36.22035562593925,160 L 36.24736192638346,160 L 37.74139992773335,160 L 37.772026183512494,160 L 37.80356638841084,160 L 39.294396607558,160 L 39.323212885669676,160 L 39.35163491122013,160 L 40.83692767393911,160 L 40.8677331354279,40 L 40.89982887802616,40 L 42.391053349734555,40 L 42.41243259089576,40 L 42.441911930133145,40 L 43.93551983777988,40 L 43.95942587944715,40 L 44.00184387092125,40 L 45.48570298796302,40 L 45.51718943114848,40 L 45.54484087214744,40 L 47.027768119499044,40 L 47.06226521860662,40 L 47.0960454948756,40 L 48.58563919462617,40 L 48.60090752108833,40 L 48.64228611944645,40 L 50.13087626722299,40 L 50.1635096269502,40 L 50.20037224142516,40 L 51.6793390425935,40 L 51.710090742369395,40 L 51.74949807792137,40 L 53.225292938028915,40 L 53.25799798003999,40 L 53.29615087562442,40 L 54.78221422289489,40 L 54.81864674366669,40 L 56.324601924708276,40 L 56.40121236558355,40 L 57.87319014407555,40 L 57.91127135737612,40 L 57.947417149012466,40 L 59.42115114345904,40 L 59.46127530184962,40 L 59.48889090170664,40 L 60.9727679393194,40 L 61.00635108930775,40 L 61.044055970618054,40 L 62.5156574171198,40 L 62.54922264653719,40 L 62.58698128956039,40 L 64.06636026386093,40 L 64.09935203500746,40 L 64.13474516266328,40 L 65.62016336937901,40 L 65.66351323054329,40 L 67.20274691186683,40 L 67.24378501937662,40 L 68.72033254346469,40 L 68.75416658144655,40 L 70.27271992387654,40 L 70.30153620198821,40 L 70.34898987390346,40 L 71.80919383727148,40 L 71.84216768784702,40 L 71.87747121264803,40 L 73.35939490802559,40 L 73.39839007044537,40 L 73.43752859743289,40 L 74.90499039204173,40 L 74.93660227922392,40 L 74.97502398337284,40 L 76.45207328344792,40 L 76.4880040282327,40 L 76.5349738447319,40 L 77.99562582237402,40 L 78.0365205653161,40 L 78.07610710657772,40 L 79.5511134615628,40 L 79.58401562985452,40 L 79.6215771465971,40 L 81.09941495179464,40 L 81.13271137264756,40 L 81.17109723565454,40 L 82.64574517922031,40 L 82.68434608907887,40 L 82.72593973428859,40 L 84.19564160026803,40 L 84.22637537947296,40 L 84.26341719965757,40 L 85.74534089503513,40 L 85.77292065375022,40 L 85.8105896939186,40 L 87.28980738308044,40 L 87.32516466959436,40 L 87.36421359372702,40 L 88.83920202814114,40 L 88.8767277037418,40 L 88.9166368152808,40 L 90.39169693197877,40 L 90.4188465969907,40 L 90.45768047427181,40 L 91.93874398224305,40 L 91.97531986758256,40 L 92.00793530673882,40 L 93.48240404459494,40 L 93.51587967115752,40 L 93.55442681930319,40 L 95.02805329032397,40 L 95.0686613041306,40 L 95.105810647741,40 L 96.579831371323,40 L 96.6104755476731,40 L 96.64488304392586,40 L 98.13431545853774,40 L 98.17171569014164,40 L 98.21381111133837,40 L 99.68141627051492,40 L 99.71482021479363,40 L 99.74822415907235,40 L 101.2262590905505,40 L 101.263354672448,40 L 101.29984095493269,40 L 102.76798373123819,40 L 102.80826917476745,40 L 102.84661919663249,40 L 104.31508454321536,40 L 104.35535206617367,40 L 104.39954419417329,40 L 105.87790169592881,40 L 105.90992575624323,40 L 105.95134019574328,40 L 107.42236818397414,40 L 107.45003754554406,40 L 107.48510810292251,40 L 108.96631497546149,40 L 109.00292670194293,40 L 109.04005812498234,40 L 110.51542289138673,40 L 110.54739318998826,40 L 110.58873594720444,40 L 112.06341973191215,40 L 112.0955871567943,40 L 112.13368629066582,40 L 113.61224091870197,40 L 113.64376320302935,40 L 113.67790189071765,40 L 115.15887579583405,72.04030226700252 L 115.18871354649073,72.04030226700252 L 116.70597660781124,72.04030226700252 L 116.74240912858302,72.04030226700252 L 116.77681662483577,72.04030226700252 L 118.25589094942991,72.04030226700252 L 118.28097974878087,72.04030226700252 L 118.32368446939041,72.04030226700252 L 119.81263302858625,72.04030226700252 L 119.85048127446426,72.04030226700252 L 121.35340787901278,72.04030226700252 L 121.39283313513572,72.04030226700252 L 121.44430101494713,72.04030226700252 L 122.90405696404102,72.04030226700252 L 122.94263995332861,72.04030226700252 L 122.9663847098572,72.04030226700252 L 124.4544193199338,72.04030226700252 L 124.49029630300569,72.04030226700252 L 124.52812662831275,72.04030226700252 L 126.00368852099774,72.04030226700252 L 126.03788097039893,72.04030226700252 L 126.07664316539616,72.04030226700252 L 127.55035923927177,72.04030226700252 L 127.5810930184767,72.04030226700252 L 127.61972976947717,72.04030226700252 L 129.09855320607778,72.04030226700252 L 129.13106112180827,72.04030226700252 L 129.16299557926786,72.04030226700252 L 130.6463529203226,72.04030226700252 L 130.68348434336204,72.04030226700252 L 130.72455829201377,72.04030226700252 L 132.19777258990234,72.04030226700252 L 132.23420511067414,72.04030226700252 L 132.2787377295221,72.04030226700252 L 133.7367016215195,72.04030226700252 L 133.7740480914105,72.04030226700252 L 133.81698577944258,72.04030226700252 L 135.29217134013732,72.04030226700252 L 135.32781535578664,72.04030226700252 L 135.36455252626484,72.04030226700252 L 136.84142262063028,72.04030226700252 L 136.8831596304077,72.04030226700252 L 136.92735175840733,72.04030226700252 L 138.39031548970394,72.04030226700252 L 138.42798452987233,72.04030226700252 L 138.47438088810065,72.04030226700252 L 139.93574968858138,72.04030226700252 L 139.9751928652753,72.04030226700252 L 140.01164330661805,72.04030226700252 L 141.49043090207675,72.04030226700252 L 141.52639748800345,72.04030226700252 L 143.0421910625048,72.04030226700252 L 143.07511115136748,72.04030226700252 L 144.58461460546013,72.04030226700252 L 144.6218714724963,72.04030226700252 L 144.66611736220884,72.04030226700252 L 146.1309448328858,72.04030226700252 L 146.17798633166888,72.04030226700252 L 147.68257954931715,72.04030226700252 L 147.71458568906058,72.04030226700252 L 147.75677071311213,72.04030226700252 L 149.2274761310656,72.04030226700252 L 149.26639961120154,72.04030226700252 L 149.310663421485,72.04030226700252 L 150.7715483665497,72.04030226700252 L 150.80912780386325,72.04030226700252 L 150.84095473789705,72.04030226700252 L 152.32511850464522,72.04030226700252 L 152.3683787629547,72.04030226700252 L 153.87451314970593,72.04030226700252 L 153.91332910641609,72.04030226700252 L 155.4230476073603,72.04030226700252 L 155.46161267607692,72.04030226700252 L 156.97099068617283,72.04030226700252 L 157.0091794228992,72.04030226700252 L 158.51386224340226,72.04030226700252 L 158.54916576820327,72.04030226700252 L 158.57997122969206,72.04030226700252 L 160.07035343456508,72.04030226700252 L 160.10606913249828,72.04030226700252 L 161.61625356828762,72.04030226700252 L 161.65415557587855,72.04030226700252 L 161.6948890336819,72.04030226700252 L 163.16663384475137,72.04030226700252 L 163.20815580767723,72.04030226700252 L 164.7139676241511,72.04030226700252 L 164.7582135138636,72.04030226700252 L 166.2659069902888,72.04030226700252 L 166.30936437487887,72.04030226700252 L 167.82083909177769,72.04030226700252 L 167.85814972052677,72.04030226700252 L 169.36236660618476,72.04030226700252 L 169.40673793989401,72.04030226700252 L 170.91068601698754,72.04030226700252 L 170.95281727932618,72.04030226700252 L 172.44805595893075,72.04030226700252 L 172.49282154520122,72.04030226700252 L 174.0049772437967,72.04030226700252 L 174.0511406346025,72.04030226700252 L 175.5486373061486,72.04030226700252 L 175.5987790637086,72.04030226700252 L 177.10552274987265,72.04030226700252 L 177.1463278899599,72.04030226700252 L 178.65074190189853,72.04030226700252 L 178.69120655113744,72.04030226700252 L 180.2066417142195,72.04030226700252 L 180.24474084809103,72.04030226700252 L 181.74960287430375,72.04030226700252 L 181.7944580634291,72.04030226700252 L 183.29767139711305,72.04030226700252 L 183.33333333333334,72.04030226700252" stroke="#f59e0b" stroke-width="2" fill="none" stroke-dasharray="13550" stroke-dashoffset="13550">
      <animate attributeName="stroke-dashoffset" values="13550;0" dur="3s" begin="3.5999999999999996s" fill="freeze"/>
    </path>
    
    <!-- Glow effect for the line that also follows the circle -->
    <path d="M 30,160 L 30.019927674913053,160 L 30.06885083364743,160 L 31.545703007441908,160 L 31.57586332837596,160 L 31.605611476177813,160 L 33.09690763017006,160 L 33.131153841284124,160 L 33.16231771419221,160 L 34.64449229756329,160 L 34.67465261849734,160 L 34.709418526169394,160 L 36.19071500156318,160 L 36.22035562593925,160 L 36.24736192638346,160 L 37.74139992773335,160 L 37.772026183512494,160 L 37.80356638841084,160 L 39.294396607558,160 L 39.323212885669676,160 L 39.35163491122013,160 L 40.83692767393911,160 L 40.8677331354279,40 L 40.89982887802616,40 L 42.391053349734555,40 L 42.41243259089576,40 L 42.441911930133145,40 L 43.93551983777988,40 L 43.95942587944715,40 L 44.00184387092125,40 L 45.48570298796302,40 L 45.51718943114848,40 L 45.54484087214744,40 L 47.027768119499044,40 L 47.06226521860662,40 L 47.0960454948756,40 L 48.58563919462617,40 L 48.60090752108833,40 L 48.64228611944645,40 L 50.13087626722299,40 L 50.1635096269502,40 L 50.20037224142516,40 L 51.6793390425935,40 L 51.710090742369395,40 L 51.74949807792137,40 L 53.225292938028915,40 L 53.25799798003999,40 L 53.29615087562442,40 L 54.78221422289489,40 L 54.81864674366669,40 L 56.324601924708276,40 L 56.40121236558355,40 L 57.87319014407555,40 L 57.91127135737612,40 L 57.947417149012466,40 L 59.42115114345904,40 L 59.46127530184962,40 L 59.48889090170664,40 L 60.9727679393194,40 L 61.00635108930775,40 L 61.044055970618054,40 L 62.5156574171198,40 L 62.54922264653719,40 L 62.58698128956039,40 L 64.06636026386093,40 L 64.09935203500746,40 L 64.13474516266328,40 L 65.62016336937901,40 L 65.66351323054329,40 L 67.20274691186683,40 L 67.24378501937662,40 L 68.72033254346469,40 L 68.75416658144655,40 L 70.27271992387654,40 L 70.30153620198821,40 L 70.34898987390346,40 L 71.80919383727148,40 L 71.84216768784702,40 L 71.87747121264803,40 L 73.35939490802559,40 L 73.39839007044537,40 L 73.43752859743289,40 L 74.90499039204173,40 L 74.93660227922392,40 L 74.97502398337284,40 L 76.45207328344792,40 L 76.4880040282327,40 L 76.5349738447319,40 L 77.99562582237402,40 L 78.0365205653161,40 L 78.07610710657772,40 L 79.5511134615628,40 L 79.58401562985452,40 L 79.6215771465971,40 L 81.09941495179464,40 L 81.13271137264756,40 L 81.17109723565454,40 L 82.64574517922031,40 L 82.68434608907887,40 L 82.72593973428859,40 L 84.19564160026803,40 L 84.22637537947296,40 L 84.26341719965757,40 L 85.74534089503513,40 L 85.77292065375022,40 L 85.8105896939186,40 L 87.28980738308044,40 L 87.32516466959436,40 L 87.36421359372702,40 L 88.83920202814114,40 L 88.8767277037418,40 L 88.9166368152808,40 L 90.39169693197877,40 L 90.4188465969907,40 L 90.45768047427181,40 L 91.93874398224305,40 L 91.97531986758256,40 L 92.00793530673882,40 L 93.48240404459494,40 L 93.51587967115752,40 L 93.55442681930319,40 L 95.02805329032397,40 L 95.0686613041306,40 L 95.105810647741,40 L 96.579831371323,40 L 96.6104755476731,40 L 96.64488304392586,40 L 98.13431545853774,40 L 98.17171569014164,40 L 98.21381111133837,40 L 99.68141627051492,40 L 99.71482021479363,40 L 99.74822415907235,40 L 101.2262590905505,40 L 101.263354672448,40 L 101.29984095493269,40 L 102.76798373123819,40 L 102.80826917476745,40 L 102.84661919663249,40 L 104.31508454321536,40 L 104.35535206617367,40 L 104.39954419417329,40 L 105.87790169592881,40 L 105.90992575624323,40 L 105.95134019574328,40 L 107.42236818397414,40 L 107.45003754554406,40 L 107.48510810292251,40 L 108.96631497546149,40 L 109.00292670194293,40 L 109.04005812498234,40 L 110.51542289138673,40 L 110.54739318998826,40 L 110.58873594720444,40 L 112.06341973191215,40 L 112.0955871567943,40 L 112.13368629066582,40 L 113.61224091870197,40 L 113.64376320302935,40 L 113.67790189071765,40 L 115.15887579583405,72.04030226700252 L 115.18871354649073,72.04030226700252 L 116.70597660781124,72.04030226700252 L 116.74240912858302,72.04030226700252 L 116.77681662483577,72.04030226700252 L 118.25589094942991,72.04030226700252 L 118.28097974878087,72.04030226700252 L 118.32368446939041,72.04030226700252 L 119.81263302858625,72.04030226700252 L 119.85048127446426,72.04030226700252 L 121.35340787901278,72.04030226700252 L 121.39283313513572,72.04030226700252 L 121.44430101494713,72.04030226700252 L 122.90405696404102,72.04030226700252 L 122.94263995332861,72.04030226700252 L 122.9663847098572,72.04030226700252 L 124.4544193199338,72.04030226700252 L 124.49029630300569,72.04030226700252 L 124.52812662831275,72.04030226700252 L 126.00368852099774,72.04030226700252 L 126.03788097039893,72.04030226700252 L 126.07664316539616,72.04030226700252 L 127.55035923927177,72.04030226700252 L 127.5810930184767,72.04030226700252 L 127.61972976947717,72.04030226700252 L 129.09855320607778,72.04030226700252 L 129.13106112180827,72.04030226700252 L 129.16299557926786,72.04030226700252 L 130.6463529203226,72.04030226700252 L 130.68348434336204,72.04030226700252 L 130.72455829201377,72.04030226700252 L 132.19777258990234,72.04030226700252 L 132.23420511067414,72.04030226700252 L 132.2787377295221,72.04030226700252 L 133.7367016215195,72.04030226700252 L 133.7740480914105,72.04030226700252 L 133.81698577944258,72.04030226700252 L 135.29217134013732,72.04030226700252 L 135.32781535578664,72.04030226700252 L 135.36455252626484,72.04030226700252 L 136.84142262063028,72.04030226700252 L 136.8831596304077,72.04030226700252 L 136.92735175840733,72.04030226700252 L 138.39031548970394,72.04030226700252 L 138.42798452987233,72.04030226700252 L 138.47438088810065,72.04030226700252 L 139.93574968858138,72.04030226700252 L 139.9751928652753,72.04030226700252 L 140.01164330661805,72.04030226700252 L 141.49043090207675,72.04030226700252 L 141.52639748800345,72.04030226700252 L 143.0421910625048,72.04030226700252 L 143.07511115136748,72.04030226700252 L 144.58461460546013,72.04030226700252 L 144.6218714724963,72.04030226700252 L 144.66611736220884,72.04030226700252 L 146.1309448328858,72.04030226700252 L 146.17798633166888,72.04030226700252 L 147.68257954931715,72.04030226700252 L 147.71458568906058,72.04030226700252 L 147.75677071311213,72.04030226700252 L 149.2274761310656,72.04030226700252 L 149.26639961120154,72.04030226700252 L 149.310663421485,72.04030226700252 L 150.7715483665497,72.04030226700252 L 150.80912780386325,72.04030226700252 L 150.84095473789705,72.04030226700252 L 152.32511850464522,72.04030226700252 L 152.3683787629547,72.04030226700252 L 153.87451314970593,72.04030226700252 L 153.91332910641609,72.04030226700252 L 155.4230476073603,72.04030226700252 L 155.46161267607692,72.04030226700252 L 156.97099068617283,72.04030226700252 L 157.0091794228992,72.04030226700252 L 158.51386224340226,72.04030226700252 L 158.54916576820327,72.04030226700252 L 158.57997122969206,72.04030226700252 L 160.07035343456508,72.04030226700252 L 160.10606913249828,72.04030226700252 L 161.61625356828762,72.04030226700252 L 161.65415557587855,72.04030226700252 L 161.6948890336819,72.04030226700252 L 163.16663384475137,72.04030226700252 L 163.20815580767723,72.04030226700252 L 164.7139676241511,72.04030226700252 L 164.7582135138636,72.04030226700252 L 166.2659069902888,72.04030226700252 L 166.30936437487887,72.04030226700252 L 167.82083909177769,72.04030226700252 L 167.85814972052677,72.04030226700252 L 169.36236660618476,72.04030226700252 L 169.40673793989401,72.04030226700252 L 170.91068601698754,72.04030226700252 L 170.95281727932618,72.04030226700252 L 172.44805595893075,72.04030226700252 L 172.49282154520122,72.04030226700252 L 174.0049772437967,72.04030226700252 L 174.0511406346025,72.04030226700252 L 175.5486373061486,72.04030226700252 L 175.5987790637086,72.04030226700252 L 177.10552274987265,72.04030226700252 L 177.1463278899599,72.04030226700252 L 178.65074190189853,72.04030226700252 L 178.69120655113744,72.04030226700252 L 180.2066417142195,72.04030226700252 L 180.24474084809103,72.04030226700252 L 181.74960287430375,72.04030226700252 L 181.7944580634291,72.04030226700252 L 183.29767139711305,72.04030226700252 L 183.33333333333334,72.04030226700252" stroke="#f59e0b" stroke-width="4" fill="none" opacity="0.4" stroke-dasharray="13550" stroke-dashoffset="13550">
      <animate attributeName="stroke-dashoffset" values="13550;0" dur="3s" begin="3.5999999999999996s" fill="freeze"/>
    </path>
    
    <!-- Animated circle that moves along the path and draws the line -->
    <circle r="5" fill="#f59e0b" opacity="0" filter="url(#trailGlow)">
      <animate attributeName="opacity" values="0;1;1;1" dur="3.2s" begin="3.4s" fill="freeze"/>
      <animate attributeName="r" values="5;6;5" dur="1s" begin="3.4s" repeatCount="3"/>
      <animateMotion dur="3s" begin="3.4s" fill="freeze">
        <mpath href="#path_totalContributions_526.6666666666667"/>
      </animateMotion>
    </circle>
    
    <!-- Small trail dots that fade out -->
    <circle r="2" fill="#f59e0b" opacity="0">
      <animate attributeName="opacity" values="0;0.6;0" dur="0.8s" begin="3.8s" fill="freeze"/>
      <animateMotion dur="3s" begin="3.4s" fill="freeze">
        <mpath href="#path_totalContributions_526.6666666666667"/>
      </animateMotion>
    </circle>
    
    <!-- Hidden path for motion animation -->
    <path id="path_totalContributions_526.6666666666667" d="M 30,160 L 30.019927674913053,160 L 30.06885083364743,160 L 31.545703007441908,160 L 31.57586332837596,160 L 31.605611476177813,160 L 33.09690763017006,160 L 33.131153841284124,160 L 33.16231771419221,160 L 34.64449229756329,160 L 34.67465261849734,160 L 34.709418526169394,160 L 36.19071500156318,160 L 36.22035562593925,160 L 36.24736192638346,160 L 37.74139992773335,160 L 37.772026183512494,160 L 37.80356638841084,160 L 39.294396607558,160 L 39.323212885669676,160 L 39.35163491122013,160 L 40.83692767393911,160 L 40.8677331354279,40 L 40.89982887802616,40 L 42.391053349734555,40 L 42.41243259089576,40 L 42.441911930133145,40 L 43.93551983777988,40 L 43.95942587944715,40 L 44.00184387092125,40 L 45.48570298796302,40 L 45.51718943114848,40 L 45.54484087214744,40 L 47.027768119499044,40 L 47.06226521860662,40 L 47.0960454948756,40 L 48.58563919462617,40 L 48.60090752108833,40 L 48.64228611944645,40 L 50.13087626722299,40 L 50.1635096269502,40 L 50.20037224142516,40 L 51.6793390425935,40 L 51.710090742369395,40 L 51.74949807792137,40 L 53.225292938028915,40 L 53.25799798003999,40 L 53.29615087562442,40 L 54.78221422289489,40 L 54.81864674366669,40 L 56.324601924708276,40 L 56.40121236558355,40 L 57.87319014407555,40 L 57.91127135737612,40 L 57.947417149012466,40 L 59.42115114345904,40 L 59.46127530184962,40 L 59.48889090170664,40 L 60.9727679393194,40 L 61.00635108930775,40 L 61.044055970618054,40 L 62.5156574171198,40 L 62.54922264653719,40 L 62.58698128956039,40 L 64.06636026386093,40 L 64.09935203500746,40 L 64.13474516266328,40 L 65.62016336937901,40 L 65.66351323054329,40 L 67.20274691186683,40 L 67.24378501937662,40 L 68.72033254346469,40 L 68.75416658144655,40 L 70.27271992387654,40 L 70.30153620198821,40 L 70.34898987390346,40 L 71.80919383727148,40 L 71.84216768784702,40 L 71.87747121264803,40 L 73.35939490802559,40 L 73.39839007044537,40 L 73.43752859743289,40 L 74.90499039204173,40 L 74.93660227922392,40 L 74.97502398337284,40 L 76.45207328344792,40 L 76.4880040282327,40 L 76.5349738447319,40 L 77.99562582237402,40 L 78.0365205653161,40 L 78.07610710657772,40 L 79.5511134615628,40 L 79.58401562985452,40 L 79.6215771465971,40 L 81.09941495179464,40 L 81.13271137264756,40 L 81.17109723565454,40 L 82.64574517922031,40 L 82.68434608907887,40 L 82.72593973428859,40 L 84.19564160026803,40 L 84.22637537947296,40 L 84.26341719965757,40 L 85.74534089503513,40 L 85.77292065375022,40 L 85.8105896939186,40 L 87.28980738308044,40 L 87.32516466959436,40 L 87.36421359372702,40 L 88.83920202814114,40 L 88.8767277037418,40 L 88.9166368152808,40 L 90.39169693197877,40 L 90.4188465969907,40 L 90.45768047427181,40 L 91.93874398224305,40 L 91.97531986758256,40 L 92.00793530673882,40 L 93.48240404459494,40 L 93.51587967115752,40 L 93.55442681930319,40 L 95.02805329032397,40 L 95.0686613041306,40 L 95.105810647741,40 L 96.579831371323,40 L 96.6104755476731,40 L 96.64488304392586,40 L 98.13431545853774,40 L 98.17171569014164,40 L 98.21381111133837,40 L 99.68141627051492,40 L 99.71482021479363,40 L 99.74822415907235,40 L 101.2262590905505,40 L 101.263354672448,40 L 101.29984095493269,40 L 102.76798373123819,40 L 102.80826917476745,40 L 102.84661919663249,40 L 104.31508454321536,40 L 104.35535206617367,40 L 104.39954419417329,40 L 105.87790169592881,40 L 105.90992575624323,40 L 105.95134019574328,40 L 107.42236818397414,40 L 107.45003754554406,40 L 107.48510810292251,40 L 108.96631497546149,40 L 109.00292670194293,40 L 109.04005812498234,40 L 110.51542289138673,40 L 110.54739318998826,40 L 110.58873594720444,40 L 112.06341973191215,40 L 112.0955871567943,40 L 112.13368629066582,40 L 113.61224091870197,40 L 113.64376320302935,40 L 113.67790189071765,40 L 115.15887579583405,72.04030226700252 L 115.18871354649073,72.04030226700252 L 116.70597660781124,72.04030226700252 L 116.74240912858302,72.04030226700252 L 116.77681662483577,72.04030226700252 L 118.25589094942991,72.04030226700252 L 118.28097974878087,72.04030226700252 L 118.32368446939041,72.04030226700252 L 119.81263302858625,72.04030226700252 L 119.85048127446426,72.04030226700252 L 121.35340787901278,72.04030226700252 L 121.39283313513572,72.04030226700252 L 121.44430101494713,72.04030226700252 L 122.90405696404102,72.04030226700252 L 122.94263995332861,72.04030226700252 L 122.9663847098572,72.04030226700252 L 124.4544193199338,72.04030226700252 L 124.49029630300569,72.04030226700252 L 124.52812662831275,72.04030226700252 L 126.00368852099774,72.04030226700252 L 126.03788097039893,72.04030226700252 L 126.07664316539616,72.04030226700252 L 127.55035923927177,72.04030226700252 L 127.5810930184767,72.04030226700252 L 127.61972976947717,72.04030226700252 L 129.09855320607778,72.04030226700252 L 129.13106112180827,72.04030226700252 L 129.16299557926786,72.04030226700252 L 130.6463529203226,72.04030226700252 L 130.68348434336204,72.04030226700252 L 130.72455829201377,72.04030226700252 L 132.19777258990234,72.04030226700252 L 132.23420511067414,72.04030226700252 L 132.2787377295221,72.04030226700252 L 133.7367016215195,72.04030226700252 L 133.7740480914105,72.04030226700252 L 133.81698577944258,72.04030226700252 L 135.29217134013732,72.04030226700252 L 135.32781535578664,72.04030226700252 L 135.36455252626484,72.04030226700252 L 136.84142262063028,72.04030226700252 L 136.8831596304077,72.04030226700252 L 136.92735175840733,72.04030226700252 L 138.39031548970394,72.04030226700252 L 138.42798452987233,72.04030226700252 L 138.47438088810065,72.04030226700252 L 139.93574968858138,72.04030226700252 L 139.9751928652753,72.04030226700252 L 140.01164330661805,72.04030226700252 L 141.49043090207675,72.04030226700252 L 141.52639748800345,72.04030226700252 L 143.0421910625048,72.04030226700252 L 143.07511115136748,72.04030226700252 L 144.58461460546013,72.04030226700252 L 144.6218714724963,72.04030226700252 L 144.66611736220884,72.04030226700252 L 146.1309448328858,72.04030226700252 L 146.17798633166888,72.04030226700252 L 147.68257954931715,72.04030226700252 L 147.71458568906058,72.04030226700252 L 147.75677071311213,72.04030226700252 L 149.2274761310656,72.04030226700252 L 149.26639961120154,72.04030226700252 L 149.310663421485,72.04030226700252 L 150.7715483665497,72.04030226700252 L 150.80912780386325,72.04030226700252 L 150.84095473789705,72.04030226700252 L 152.32511850464522,72.04030226700252 L 152.3683787629547,72.04030226700252 L 153.87451314970593,72.04030226700252 L 153.91332910641609,72.04030226700252 L 155.4230476073603,72.04030226700252 L 155.46161267607692,72.04030226700252 L 156.97099068617283,72.04030226700252 L 157.0091794228992,72.04030226700252 L 158.51386224340226,72.04030226700252 L 158.54916576820327,72.04030226700252 L 158.57997122969206,72.04030226700252 L 160.07035343456508,72.04030226700252 L 160.10606913249828,72.04030226700252 L 161.61625356828762,72.04030226700252 L 161.65415557587855,72.04030226700252 L 161.6948890336819,72.04030226700252 L 163.16663384475137,72.04030226700252 L 163.20815580767723,72.04030226700252 L 164.7139676241511,72.04030226700252 L 164.7582135138636,72.04030226700252 L 166.2659069902888,72.04030226700252 L 166.30936437487887,72.04030226700252 L 167.82083909177769,72.04030226700252 L 167.85814972052677,72.04030226700252 L 169.36236660618476,72.04030226700252 L 169.40673793989401,72.04030226700252 L 170.91068601698754,72.04030226700252 L 170.95281727932618,72.04030226700252 L 172.44805595893075,72.04030226700252 L 172.49282154520122,72.04030226700252 L 174.0049772437967,72.04030226700252 L 174.0511406346025,72.04030226700252 L 175.5486373061486,72.04030226700252 L 175.5987790637086,72.04030226700252 L 177.10552274987265,72.04030226700252 L 177.1463278899599,72.04030226700252 L 178.65074190189853,72.04030226700252 L 178.69120655113744,72.04030226700252 L 180.2066417142195,72.04030226700252 L 180.24474084809103,72.04030226700252 L 181.74960287430375,72.04030226700252 L 181.7944580634291,72.04030226700252 L 183.29767139711305,72.04030226700252 L 183.33333333333334,72.04030226700252" fill="none" stroke="none"/>
  </g>
  
  <!-- Footer -->
  <text x="400" y="580" text-anchor="middle" fill="#94a3b8" font-size="12" font-family="Arial, sans-serif">
    Generated by GitHub User Rank Tracker • 4/25/2026
    <animate attributeName="opacity" values="0;1" dur="0.5s" begin="5s" fill="freeze"/>
  </text>
</svg>