<svg width="800" height="600" xmlns="http://www.w3.org/2000/svg">
  <defs>
    <linearGradient id="bgGradient" x1="0%" y1="0%" x2="100%" y2="100%">
      <stop offset="0%" style="stop-color:#f8fafc;stop-opacity:1" />
      <stop offset="100%" style="stop-color:#e2e8f0;stop-opacity:1" />
    </linearGradient>
    <filter id="shadow" x="-20%" y="-20%" width="140%" height="140%">
      <feDropShadow dx="2" dy="2" stdDeviation="3" flood-color="#00000020" flood-opacity="0.1"/>
    </filter>
    <!-- Trail effect filter -->
    <filter id="trailGlow" x="-50%" y="-50%" width="200%" height="200%">
      <feGaussianBlur stdDeviation="3" result="coloredBlur"/>
      <feMerge> 
        <feMergeNode in="coloredBlur"/>
        <feMergeNode in="SourceGraphic"/>
      </feMerge>
    </filter>
  </defs>
  
  <!-- Background -->
  <rect width="800" height="600" fill="url(#bgGradient)" rx="12"/>
  
  <!-- Header -->
  <text x="400" y="40" text-anchor="middle" fill="#0f172a" font-size="24" font-weight="bold" font-family="Arial, sans-serif">
    GitHub Progress Report
    <animate attributeName="opacity" values="0;1" dur="0.8s" begin="0s" fill="freeze"/>
    <animateTransform attributeName="transform" type="translate" values="0,-20;0,0" dur="0.8s" begin="0s" fill="freeze"/>
  </text>
  
  <!-- User Info -->
  <text x="400" y="70" text-anchor="middle" fill="#475569" font-size="16" font-family="Arial, sans-serif">
    @maifeeulasad • BANGLADESH • 100 days analyzed
    <animate attributeName="opacity" values="0;1" dur="0.6s" begin="0.3s" fill="freeze"/>
  </text>
  
  <!-- Progress Cards -->
  <!-- Followers Card -->
  <g transform="translate(60, 100)">
    <rect width="206.66666666666666" height="120" fill="#ffffff" stroke="#e2e8f0" stroke-width="1" rx="8" filter="url(#shadow)">
      <animate attributeName="opacity" values="0;1" dur="0.6s" begin="0.2s" fill="freeze"/>
      <animateTransform attributeName="transform" type="scale" values="0.8;1" dur="0.6s" begin="0.2s" fill="freeze"/>
    </rect>
    <text x="103.33333333333333" y="25" text-anchor="middle" fill="#64748b" font-size="14" font-weight="bold" font-family="Arial, sans-serif">FOLLOWERS
      <animate attributeName="opacity" values="0;1" dur="0.5s" begin="0.4s" fill="freeze"/>
    </text>
    
    <text x="103.33333333333333" y="50" text-anchor="middle" fill="#ef4444" font-size="32" font-weight="bold" font-family="Arial, sans-serif">
      ↘
      <animate attributeName="opacity" values="0;1" dur="0.5s" begin="0.6s" fill="freeze"/>
      <animateTransform attributeName="transform" type="scale" values="0;1.2;1" dur="0.8s" begin="0.6s" fill="freeze"/>
    </text>
    
    <text x="103.33333333333333" y="75" text-anchor="middle" fill="#1e293b" font-size="18" font-weight="bold" font-family="Arial, sans-serif">
      -15
      <animate attributeName="opacity" values="0;1" dur="0.5s" begin="0.8s" fill="freeze"/>
    </text>
    
    <text x="103.33333333333333" y="95" text-anchor="middle" fill="#64748b" font-size="12" font-family="Arial, sans-serif">
      #466 → #481
      <animate attributeName="opacity" values="0;1" dur="0.5s" begin="1s" fill="freeze"/>
    </text>
  </g>
  
  <!-- Public Contributions Card -->
  <g transform="translate(296.66666666666663, 100)">
    <rect width="206.66666666666666" height="120" fill="#ffffff" stroke="#e2e8f0" stroke-width="1" rx="8" filter="url(#shadow)">
      <animate attributeName="opacity" values="0;1" dur="0.6s" begin="0.4s" fill="freeze"/>
      <animateTransform attributeName="transform" type="scale" values="0.8;1" dur="0.6s" begin="0.4s" fill="freeze"/>
    </rect>
    <text x="103.33333333333333" y="25" text-anchor="middle" fill="#64748b" font-size="14" font-weight="bold" font-family="Arial, sans-serif">PUBLIC
      <animate attributeName="opacity" values="0;1" dur="0.5s" begin="0.6s" fill="freeze"/>
    </text>
    
    <text x="103.33333333333333" y="50" text-anchor="middle" fill="#6b7280" font-size="32" font-weight="bold" font-family="Arial, sans-serif">
      →
      <animate attributeName="opacity" values="0;1" dur="0.5s" begin="0.8s" fill="freeze"/>
      <animateTransform attributeName="transform" type="scale" values="0;1.2;1" dur="0.8s" begin="0.8s" fill="freeze"/>
    </text>
    
    <text x="103.33333333333333" y="75" text-anchor="middle" fill="#1e293b" font-size="18" font-weight="bold" font-family="Arial, sans-serif">
      0
      <animate attributeName="opacity" values="0;1" dur="0.5s" begin="1s" fill="freeze"/>
    </text>
    
    <text x="103.33333333333333" y="95" text-anchor="middle" fill="#64748b" font-size="12" font-family="Arial, sans-serif">
      #7 → #7
      <animate attributeName="opacity" values="0;1" dur="0.5s" begin="1.2s" fill="freeze"/>
    </text>
  </g>
  
  <!-- Total Contributions Card -->
  <g transform="translate(533.3333333333333, 100)">
    <rect width="206.66666666666666" height="120" fill="#ffffff" stroke="#e2e8f0" stroke-width="1" rx="8" filter="url(#shadow)">
      <animate attributeName="opacity" values="0;1" dur="0.6s" begin="0.6s" fill="freeze"/>
      <animateTransform attributeName="transform" type="scale" values="0.8;1" dur="0.6s" begin="0.6s" fill="freeze"/>
    </rect>
    <text x="103.33333333333333" y="25" text-anchor="middle" fill="#64748b" font-size="14" font-weight="bold" font-family="Arial, sans-serif">TOTAL
      <animate attributeName="opacity" values="0;1" dur="0.5s" begin="0.8s" fill="freeze"/>
    </text>
    
    <text x="103.33333333333333" y="50" text-anchor="middle" fill="#22c55e" font-size="32" font-weight="bold" font-family="Arial, sans-serif">
      ↗
      <animate attributeName="opacity" values="0;1" dur="0.5s" begin="1s" fill="freeze"/>
      <animateTransform attributeName="transform" type="scale" values="0;1.2;1" dur="0.8s" begin="1s" fill="freeze"/>
    </text>
    
    <text x="103.33333333333333" y="75" text-anchor="middle" fill="#1e293b" font-size="18" font-weight="bold" font-family="Arial, sans-serif">
      +3
      <animate attributeName="opacity" values="0;1" dur="0.5s" begin="1.2s" fill="freeze"/>
    </text>
    
    <text x="103.33333333333333" y="95" text-anchor="middle" fill="#64748b" font-size="12" font-family="Arial, sans-serif">
      #15 → #12
      <animate attributeName="opacity" values="0;1" dur="0.5s" begin="1.4s" fill="freeze"/>
    </text>
  </g>
  
  <!-- Timeline Charts (if we have snapshots) -->
  
  <!-- 👥 Followers Count Chart -->
  <g transform="translate(60, 250)">
    <!-- Chart Background -->
    <rect x="0" y="0" width="213.33333333333334" height="200" fill="#ffffff" stroke="#e2e8f0" stroke-width="1" rx="8" filter="url(#shadow)">
      <animate attributeName="opacity" values="0;1" dur="0.5s" begin="1.8s" fill="freeze"/>
    </rect>
    
    <!-- Chart Title -->
    <text x="106.66666666666667" y="25" text-anchor="middle" fill="#1e293b" font-size="14" font-weight="bold" font-family="Arial, sans-serif">
      👥 Followers Count
      <animate attributeName="opacity" values="0;1" dur="0.5s" begin="2s" fill="freeze"/>
    </text>
    
    <!-- Y-axis labels -->
    <text x="10" y="45" fill="#64748b" font-size="10" font-family="Arial, sans-serif">154
      <animate attributeName="opacity" values="0;1" dur="0.5s" begin="2.2s" fill="freeze"/>
    </text>
    <text x="10" y="185" fill="#64748b" font-size="10" font-family="Arial, sans-serif">150
      <animate attributeName="opacity" values="0;1" dur="0.5s" begin="2.2s" fill="freeze"/>
    </text>
    
    <!-- Chart Line with draw animation that follows the circle -->
    <path d="M 30,160 L 30.029295312761644,160 L 30.058447284543412,160 L 31.543943611839794,160 L 31.576267002801263,160 L 31.603286777507417,160 L 32.68343273134406,160 L 33.0986377971701,160 L 33.130764094284245,160 L 33.16461048315687,160 L 34.6465412035789,160 L 34.6746360356341,160 L 34.70753279051507,160 L 36.19272451822921,160 L 36.2143869238126,160 L 36.25072386221052,160 L 37.74288554507102,160 L 37.76994115502214,160 L 37.80140450010437,160 L 39.29105771581708,160 L 39.32354236538091,160 L 39.35701248418137,160 L 40.83725894808988,160 L 40.86492375720547,160 L 40.901350283715814,160 L 42.389659677742216,160 L 42.413257186553885,160 L 42.44231957022323,160 L 43.93643427393451,160 L 43.96994022797993,160 L 44.001313984949746,160 L 45.48362097544394,160 L 45.513776334084824,160 L 45.547640640579935,160 L 47.02951760813451,160 L 47.058920426631055,160 L 47.092068028226805,160 L 48.580825362815304,160 L 48.60831099570604,160 L 48.63642374538373,160 L 50.12715201844549,160 L 50.15494225091847,160 L 50.18834069922899,160 L 51.666329542704496,160 L 51.70313233928701,160 L 51.73400440282726,160 L 53.2224929730785,160 L 53.24422704915182,160 L 53.28330538378983,160 L 54.77242107082802,160 L 54.805084896616684,160 L 54.83950464940881,160 L 56.32270752102721,160 L 56.35259411533083,160 L 56.38425455426038,160 L 57.861616280948944,160 L 57.89408301289029,160 L 57.926460156719216,160 L 59.41448286878587,160 L 59.44487115651904,160 L 59.4795955088934,160 L 60.96304922722658,160 L 60.99101863592439,160 L 61.02189069946464,160 L 62.512260620076724,160 L 62.532185016279136,160 L 62.58110012566096,160 L 64.05770931220519,160 L 64.08786467084607,160 L 64.11760792416982,160 L 65.6086587144363,160 L 65.64289929100357,160 L 65.67405803650357,160 L 67.15598875692561,160 L 67.18614411556649,160 L 67.2209043031858,160 L 68.70195706010611,160 L 68.73159280769494,160 L 68.75859466477863,160 L 70.25238685128517,160 L 70.28300806811065,160 L 70.31454308368282,160 L 71.8051280157647,160 L 71.83393955271927,160 L 71.8623569019792,160 L 73.34740528871347,160 L 73.37820568176377,70 L 73.41029614363296,70 L 74.9012752634095,70 L 74.92265098703314,70 L 74.95212547601962,70 L 76.44548763958656,70 L 76.46938974798046,70 L 76.51180076040053,70 L 77.99541573733606,70 L 78.02689700004078,70 L 78.05454389153388,70 L 79.53722715210024,70 L 79.5717185753823,70 L 79.605493293765,70 L 81.09484190989548,70 L 81.110107724252,70 L 81.151479514568,70 L 82.63982474383936,70 L 82.67245273438306,70 L 82.70930928383302,70 L 84.18803274983037,70 L 84.21877939001325,70 L 84.25818024185597,70 L 85.73373228867362,70 L 85.76643194970725,70 L 85.8045785679761,70 L 87.29039741247719,70 L 87.32682393898753,70 L 88.83253134444608,70 L 88.90912918056597,70 L 90.3808647737945,70 L 90.4189397215734,70 L 90.455079566124,70 L 91.92857108635597,70 L 91.96868864309806,70 L 91.9962996993462,70 L 93.47993259390422,70 L 93.51351021843958,70 L 93.5512088961463,70 L 95.02256821930267,70 L 95.05612792621555,70 L 95.09388035678973,70 L 96.57301592810423,70 L 96.60600227109761,70 L 96.64138957550388,70 L 98.12656338559553,70 L 98.16990611438477,70 L 99.70888654479646,70 L 99.74991790028524,70 L 101.22622248724724,70 L 101.26005095849737,70 L 102.77835445256231,70 L 102.80716598951688,70 L 102.85461185385499,70 L 104.31457556911141,70 L 104.34754399448231,70 L 104.38284171077615,70 L 105.86452158448341,70 L 105.90351033100899,70 L 105.94264241851445,70 L 107.40986277087696,70 L 107.44146945693906,70 L 107.47988483954516,70 L 108.95669111993672,70 L 108.9926159530175,70 L 109.03957804154855,70 L 110.49998969736707,70 L 110.54087771187599,70 L 110.58045773994355,70 L 112.05522141137192,70 L 112.08811816625287,70 L 112.12567350297972,70 L 113.60326815876059,70 L 113.6365591013362,70 L 113.67493864869732,70 L 115.14934396767599,70 L 115.18793852650693,70 L 115.22952532829272,70 L 116.69898538346575,70 L 116.72971410602612,70 L 116.76674983170093,70 L 118.24842970540818,70 L 118.27600492641136,70 L 118.31366776887312,70 L 119.79264208158526,70 L 119.82799355074656,70 L 119.86703605013959,70 L 121.34178180394547,70 L 121.37930130542735,70 L 121.41920385069962,70 L 122.89402127499542,70 L 122.92116647305896,70 L 122.95999396098219,70 L 124.44081378881022,70 L 124.47738365630043,70 L 124.50999372922166,70 L 125.98421987197548,70 L 126.01768999077595,70 L 126.05623079673941,70 L 127.5296148112365,70 L 127.57021614378566,70 L 127.60735937519537,70 L 129.0811375773871,70 L 129.11177671183503,70 L 129.1461785470047,70 L 130.63536590453282,70 L 130.6727599826573,70 L 130.71484847787266,70 L 132.18221217121504,70 L 132.21561061952556,70 L 132.24900906783608,70 L 133.72680081746427,70 L 133.76389029600654,70 L 133.8003705753843,70 L 135.26827179740127,70 L 135.3085506127457,70 L 135.34689432486184,70 L 136.8151180640835,70 L 136.85537896180546,70 L 136.89956381885145,70 L 138.37767808568435,70 L 138.4096968770636,70 L 138.45110450262453,70 L 139.92189046186138,70 L 139.949555270977,70 L 139.98462005817854,70 L 141.4655832269864,70 L 141.5021889297216,70 L 141.53931424350884,70 L 143.01443626738688,70 L 143.04640130589866,70 L 143.08773726096967,70 L 144.5621784151933,70 L 144.5943405475524,70 L 144.6324334129538,70 L 146.11074477363402,70 L 146.14226187158368,70 L 146.17639494241607,70 L 147.65712518213167,40 L 147.68695802356785,40 L 149.2039714488139,40 L 149.24039797532424,40 L 149.2747998104939,40 L 150.75363078222614,40 L 150.77871545370402,40 L 150.82141314808382,40 L 152.31011672980486,40 L 152.34795874849146,40 L 153.85063807575017,40 L 153.89005684521538,40 L 153.94151625698998,40 L 155.40103203168428,40 L 155.43960867289275,40 L 155.46334952268427,40 L 156.95113930565864,40 L 156.98701038587197,40 L 157.0248344869361,40 L 158.50015360466145,40 L 158.53434042836128,40 L 158.57309624579457,40 L 160.04656984840406,40 L 160.07729857096444,40 L 160.11592896504035,40 L 161.59450909005784,40 L 161.62701165724414,40 L 161.65894086051097,40 L 163.14205414401695,40 L 163.1791794578042,40 L 163.22024664853794,40 L 164.69321855771787,40 L 164.72964508422822,40 L 164.77417037610144,40 L 166.23189438854732,40 L 166.26923471380437,40 L 166.31216533727647,40 L 167.78710818492965,40 L 167.8227463360507,40 L 167.85947746214327,40 L 169.33610456630998,40 L 169.37783470907567,40 L 169.42201956612166,40 L 170.88474259524062,40 L 170.92240543770242,40 L 170.96879416231397,40 L 172.42992252303185,40 L 172.46935921011953,40 L 172.50580365425236,40 L 173.9843479440249,40 L 174.02030861235065,40 L 175.53585279255302,40 L 175.56876746505645,40 L 177.07802255976688,40 L 177.11527329691148,40 L 177.15951190682495,40 L 178.62409836868227,40 L 178.67113212770326,40 L 180.175477793853,40 L 180.20747866760976,40 L 180.24965675093753,40 L 181.7201201929697,40 L 181.75903726900535,40 L 181.80329379654128,40 L 183.26393838145208,40 L 183.30151163580143,40 L 183.33333333333334,40" stroke="#22c55e" stroke-width="2" fill="none" stroke-dasharray="14550" stroke-dashoffset="14550">
      <animate attributeName="stroke-dashoffset" values="14550;0" dur="3s" begin="2.6s" fill="freeze"/>
    </path>
    
    <!-- Glow effect for the line that also follows the circle -->
    <path d="M 30,160 L 30.029295312761644,160 L 30.058447284543412,160 L 31.543943611839794,160 L 31.576267002801263,160 L 31.603286777507417,160 L 32.68343273134406,160 L 33.0986377971701,160 L 33.130764094284245,160 L 33.16461048315687,160 L 34.6465412035789,160 L 34.6746360356341,160 L 34.70753279051507,160 L 36.19272451822921,160 L 36.2143869238126,160 L 36.25072386221052,160 L 37.74288554507102,160 L 37.76994115502214,160 L 37.80140450010437,160 L 39.29105771581708,160 L 39.32354236538091,160 L 39.35701248418137,160 L 40.83725894808988,160 L 40.86492375720547,160 L 40.901350283715814,160 L 42.389659677742216,160 L 42.413257186553885,160 L 42.44231957022323,160 L 43.93643427393451,160 L 43.96994022797993,160 L 44.001313984949746,160 L 45.48362097544394,160 L 45.513776334084824,160 L 45.547640640579935,160 L 47.02951760813451,160 L 47.058920426631055,160 L 47.092068028226805,160 L 48.580825362815304,160 L 48.60831099570604,160 L 48.63642374538373,160 L 50.12715201844549,160 L 50.15494225091847,160 L 50.18834069922899,160 L 51.666329542704496,160 L 51.70313233928701,160 L 51.73400440282726,160 L 53.2224929730785,160 L 53.24422704915182,160 L 53.28330538378983,160 L 54.77242107082802,160 L 54.805084896616684,160 L 54.83950464940881,160 L 56.32270752102721,160 L 56.35259411533083,160 L 56.38425455426038,160 L 57.861616280948944,160 L 57.89408301289029,160 L 57.926460156719216,160 L 59.41448286878587,160 L 59.44487115651904,160 L 59.4795955088934,160 L 60.96304922722658,160 L 60.99101863592439,160 L 61.02189069946464,160 L 62.512260620076724,160 L 62.532185016279136,160 L 62.58110012566096,160 L 64.05770931220519,160 L 64.08786467084607,160 L 64.11760792416982,160 L 65.6086587144363,160 L 65.64289929100357,160 L 65.67405803650357,160 L 67.15598875692561,160 L 67.18614411556649,160 L 67.2209043031858,160 L 68.70195706010611,160 L 68.73159280769494,160 L 68.75859466477863,160 L 70.25238685128517,160 L 70.28300806811065,160 L 70.31454308368282,160 L 71.8051280157647,160 L 71.83393955271927,160 L 71.8623569019792,160 L 73.34740528871347,160 L 73.37820568176377,70 L 73.41029614363296,70 L 74.9012752634095,70 L 74.92265098703314,70 L 74.95212547601962,70 L 76.44548763958656,70 L 76.46938974798046,70 L 76.51180076040053,70 L 77.99541573733606,70 L 78.02689700004078,70 L 78.05454389153388,70 L 79.53722715210024,70 L 79.5717185753823,70 L 79.605493293765,70 L 81.09484190989548,70 L 81.110107724252,70 L 81.151479514568,70 L 82.63982474383936,70 L 82.67245273438306,70 L 82.70930928383302,70 L 84.18803274983037,70 L 84.21877939001325,70 L 84.25818024185597,70 L 85.73373228867362,70 L 85.76643194970725,70 L 85.8045785679761,70 L 87.29039741247719,70 L 87.32682393898753,70 L 88.83253134444608,70 L 88.90912918056597,70 L 90.3808647737945,70 L 90.4189397215734,70 L 90.455079566124,70 L 91.92857108635597,70 L 91.96868864309806,70 L 91.9962996993462,70 L 93.47993259390422,70 L 93.51351021843958,70 L 93.5512088961463,70 L 95.02256821930267,70 L 95.05612792621555,70 L 95.09388035678973,70 L 96.57301592810423,70 L 96.60600227109761,70 L 96.64138957550388,70 L 98.12656338559553,70 L 98.16990611438477,70 L 99.70888654479646,70 L 99.74991790028524,70 L 101.22622248724724,70 L 101.26005095849737,70 L 102.77835445256231,70 L 102.80716598951688,70 L 102.85461185385499,70 L 104.31457556911141,70 L 104.34754399448231,70 L 104.38284171077615,70 L 105.86452158448341,70 L 105.90351033100899,70 L 105.94264241851445,70 L 107.40986277087696,70 L 107.44146945693906,70 L 107.47988483954516,70 L 108.95669111993672,70 L 108.9926159530175,70 L 109.03957804154855,70 L 110.49998969736707,70 L 110.54087771187599,70 L 110.58045773994355,70 L 112.05522141137192,70 L 112.08811816625287,70 L 112.12567350297972,70 L 113.60326815876059,70 L 113.6365591013362,70 L 113.67493864869732,70 L 115.14934396767599,70 L 115.18793852650693,70 L 115.22952532829272,70 L 116.69898538346575,70 L 116.72971410602612,70 L 116.76674983170093,70 L 118.24842970540818,70 L 118.27600492641136,70 L 118.31366776887312,70 L 119.79264208158526,70 L 119.82799355074656,70 L 119.86703605013959,70 L 121.34178180394547,70 L 121.37930130542735,70 L 121.41920385069962,70 L 122.89402127499542,70 L 122.92116647305896,70 L 122.95999396098219,70 L 124.44081378881022,70 L 124.47738365630043,70 L 124.50999372922166,70 L 125.98421987197548,70 L 126.01768999077595,70 L 126.05623079673941,70 L 127.5296148112365,70 L 127.57021614378566,70 L 127.60735937519537,70 L 129.0811375773871,70 L 129.11177671183503,70 L 129.1461785470047,70 L 130.63536590453282,70 L 130.6727599826573,70 L 130.71484847787266,70 L 132.18221217121504,70 L 132.21561061952556,70 L 132.24900906783608,70 L 133.72680081746427,70 L 133.76389029600654,70 L 133.8003705753843,70 L 135.26827179740127,70 L 135.3085506127457,70 L 135.34689432486184,70 L 136.8151180640835,70 L 136.85537896180546,70 L 136.89956381885145,70 L 138.37767808568435,70 L 138.4096968770636,70 L 138.45110450262453,70 L 139.92189046186138,70 L 139.949555270977,70 L 139.98462005817854,70 L 141.4655832269864,70 L 141.5021889297216,70 L 141.53931424350884,70 L 143.01443626738688,70 L 143.04640130589866,70 L 143.08773726096967,70 L 144.5621784151933,70 L 144.5943405475524,70 L 144.6324334129538,70 L 146.11074477363402,70 L 146.14226187158368,70 L 146.17639494241607,70 L 147.65712518213167,40 L 147.68695802356785,40 L 149.2039714488139,40 L 149.24039797532424,40 L 149.2747998104939,40 L 150.75363078222614,40 L 150.77871545370402,40 L 150.82141314808382,40 L 152.31011672980486,40 L 152.34795874849146,40 L 153.85063807575017,40 L 153.89005684521538,40 L 153.94151625698998,40 L 155.40103203168428,40 L 155.43960867289275,40 L 155.46334952268427,40 L 156.95113930565864,40 L 156.98701038587197,40 L 157.0248344869361,40 L 158.50015360466145,40 L 158.53434042836128,40 L 158.57309624579457,40 L 160.04656984840406,40 L 160.07729857096444,40 L 160.11592896504035,40 L 161.59450909005784,40 L 161.62701165724414,40 L 161.65894086051097,40 L 163.14205414401695,40 L 163.1791794578042,40 L 163.22024664853794,40 L 164.69321855771787,40 L 164.72964508422822,40 L 164.77417037610144,40 L 166.23189438854732,40 L 166.26923471380437,40 L 166.31216533727647,40 L 167.78710818492965,40 L 167.8227463360507,40 L 167.85947746214327,40 L 169.33610456630998,40 L 169.37783470907567,40 L 169.42201956612166,40 L 170.88474259524062,40 L 170.92240543770242,40 L 170.96879416231397,40 L 172.42992252303185,40 L 172.46935921011953,40 L 172.50580365425236,40 L 173.9843479440249,40 L 174.02030861235065,40 L 175.53585279255302,40 L 175.56876746505645,40 L 177.07802255976688,40 L 177.11527329691148,40 L 177.15951190682495,40 L 178.62409836868227,40 L 178.67113212770326,40 L 180.175477793853,40 L 180.20747866760976,40 L 180.24965675093753,40 L 181.7201201929697,40 L 181.75903726900535,40 L 181.80329379654128,40 L 183.26393838145208,40 L 183.30151163580143,40 L 183.33333333333334,40" stroke="#22c55e" stroke-width="4" fill="none" opacity="0.4" stroke-dasharray="14550" stroke-dashoffset="14550">
      <animate attributeName="stroke-dashoffset" values="14550;0" dur="3s" begin="2.6s" fill="freeze"/>
    </path>
    
    <!-- Animated circle that moves along the path and draws the line -->
    <circle r="5" fill="#22c55e" opacity="0" filter="url(#trailGlow)">
      <animate attributeName="opacity" values="0;1;1;1" dur="3.2s" begin="2.4s" fill="freeze"/>
      <animate attributeName="r" values="5;6;5" dur="1s" begin="2.4s" repeatCount="3"/>
      <animateMotion dur="3s" begin="2.4s" fill="freeze">
        <mpath href="#path_followersCount_60"/>
      </animateMotion>
    </circle>
    
    <!-- Small trail dots that fade out -->
    <circle r="2" fill="#22c55e" opacity="0">
      <animate attributeName="opacity" values="0;0.6;0" dur="0.8s" begin="2.8s" fill="freeze"/>
      <animateMotion dur="3s" begin="2.4s" fill="freeze">
        <mpath href="#path_followersCount_60"/>
      </animateMotion>
    </circle>
    
    <!-- Hidden path for motion animation -->
    <path id="path_followersCount_60" d="M 30,160 L 30.029295312761644,160 L 30.058447284543412,160 L 31.543943611839794,160 L 31.576267002801263,160 L 31.603286777507417,160 L 32.68343273134406,160 L 33.0986377971701,160 L 33.130764094284245,160 L 33.16461048315687,160 L 34.6465412035789,160 L 34.6746360356341,160 L 34.70753279051507,160 L 36.19272451822921,160 L 36.2143869238126,160 L 36.25072386221052,160 L 37.74288554507102,160 L 37.76994115502214,160 L 37.80140450010437,160 L 39.29105771581708,160 L 39.32354236538091,160 L 39.35701248418137,160 L 40.83725894808988,160 L 40.86492375720547,160 L 40.901350283715814,160 L 42.389659677742216,160 L 42.413257186553885,160 L 42.44231957022323,160 L 43.93643427393451,160 L 43.96994022797993,160 L 44.001313984949746,160 L 45.48362097544394,160 L 45.513776334084824,160 L 45.547640640579935,160 L 47.02951760813451,160 L 47.058920426631055,160 L 47.092068028226805,160 L 48.580825362815304,160 L 48.60831099570604,160 L 48.63642374538373,160 L 50.12715201844549,160 L 50.15494225091847,160 L 50.18834069922899,160 L 51.666329542704496,160 L 51.70313233928701,160 L 51.73400440282726,160 L 53.2224929730785,160 L 53.24422704915182,160 L 53.28330538378983,160 L 54.77242107082802,160 L 54.805084896616684,160 L 54.83950464940881,160 L 56.32270752102721,160 L 56.35259411533083,160 L 56.38425455426038,160 L 57.861616280948944,160 L 57.89408301289029,160 L 57.926460156719216,160 L 59.41448286878587,160 L 59.44487115651904,160 L 59.4795955088934,160 L 60.96304922722658,160 L 60.99101863592439,160 L 61.02189069946464,160 L 62.512260620076724,160 L 62.532185016279136,160 L 62.58110012566096,160 L 64.05770931220519,160 L 64.08786467084607,160 L 64.11760792416982,160 L 65.6086587144363,160 L 65.64289929100357,160 L 65.67405803650357,160 L 67.15598875692561,160 L 67.18614411556649,160 L 67.2209043031858,160 L 68.70195706010611,160 L 68.73159280769494,160 L 68.75859466477863,160 L 70.25238685128517,160 L 70.28300806811065,160 L 70.31454308368282,160 L 71.8051280157647,160 L 71.83393955271927,160 L 71.8623569019792,160 L 73.34740528871347,160 L 73.37820568176377,70 L 73.41029614363296,70 L 74.9012752634095,70 L 74.92265098703314,70 L 74.95212547601962,70 L 76.44548763958656,70 L 76.46938974798046,70 L 76.51180076040053,70 L 77.99541573733606,70 L 78.02689700004078,70 L 78.05454389153388,70 L 79.53722715210024,70 L 79.5717185753823,70 L 79.605493293765,70 L 81.09484190989548,70 L 81.110107724252,70 L 81.151479514568,70 L 82.63982474383936,70 L 82.67245273438306,70 L 82.70930928383302,70 L 84.18803274983037,70 L 84.21877939001325,70 L 84.25818024185597,70 L 85.73373228867362,70 L 85.76643194970725,70 L 85.8045785679761,70 L 87.29039741247719,70 L 87.32682393898753,70 L 88.83253134444608,70 L 88.90912918056597,70 L 90.3808647737945,70 L 90.4189397215734,70 L 90.455079566124,70 L 91.92857108635597,70 L 91.96868864309806,70 L 91.9962996993462,70 L 93.47993259390422,70 L 93.51351021843958,70 L 93.5512088961463,70 L 95.02256821930267,70 L 95.05612792621555,70 L 95.09388035678973,70 L 96.57301592810423,70 L 96.60600227109761,70 L 96.64138957550388,70 L 98.12656338559553,70 L 98.16990611438477,70 L 99.70888654479646,70 L 99.74991790028524,70 L 101.22622248724724,70 L 101.26005095849737,70 L 102.77835445256231,70 L 102.80716598951688,70 L 102.85461185385499,70 L 104.31457556911141,70 L 104.34754399448231,70 L 104.38284171077615,70 L 105.86452158448341,70 L 105.90351033100899,70 L 105.94264241851445,70 L 107.40986277087696,70 L 107.44146945693906,70 L 107.47988483954516,70 L 108.95669111993672,70 L 108.9926159530175,70 L 109.03957804154855,70 L 110.49998969736707,70 L 110.54087771187599,70 L 110.58045773994355,70 L 112.05522141137192,70 L 112.08811816625287,70 L 112.12567350297972,70 L 113.60326815876059,70 L 113.6365591013362,70 L 113.67493864869732,70 L 115.14934396767599,70 L 115.18793852650693,70 L 115.22952532829272,70 L 116.69898538346575,70 L 116.72971410602612,70 L 116.76674983170093,70 L 118.24842970540818,70 L 118.27600492641136,70 L 118.31366776887312,70 L 119.79264208158526,70 L 119.82799355074656,70 L 119.86703605013959,70 L 121.34178180394547,70 L 121.37930130542735,70 L 121.41920385069962,70 L 122.89402127499542,70 L 122.92116647305896,70 L 122.95999396098219,70 L 124.44081378881022,70 L 124.47738365630043,70 L 124.50999372922166,70 L 125.98421987197548,70 L 126.01768999077595,70 L 126.05623079673941,70 L 127.5296148112365,70 L 127.57021614378566,70 L 127.60735937519537,70 L 129.0811375773871,70 L 129.11177671183503,70 L 129.1461785470047,70 L 130.63536590453282,70 L 130.6727599826573,70 L 130.71484847787266,70 L 132.18221217121504,70 L 132.21561061952556,70 L 132.24900906783608,70 L 133.72680081746427,70 L 133.76389029600654,70 L 133.8003705753843,70 L 135.26827179740127,70 L 135.3085506127457,70 L 135.34689432486184,70 L 136.8151180640835,70 L 136.85537896180546,70 L 136.89956381885145,70 L 138.37767808568435,70 L 138.4096968770636,70 L 138.45110450262453,70 L 139.92189046186138,70 L 139.949555270977,70 L 139.98462005817854,70 L 141.4655832269864,70 L 141.5021889297216,70 L 141.53931424350884,70 L 143.01443626738688,70 L 143.04640130589866,70 L 143.08773726096967,70 L 144.5621784151933,70 L 144.5943405475524,70 L 144.6324334129538,70 L 146.11074477363402,70 L 146.14226187158368,70 L 146.17639494241607,70 L 147.65712518213167,40 L 147.68695802356785,40 L 149.2039714488139,40 L 149.24039797532424,40 L 149.2747998104939,40 L 150.75363078222614,40 L 150.77871545370402,40 L 150.82141314808382,40 L 152.31011672980486,40 L 152.34795874849146,40 L 153.85063807575017,40 L 153.89005684521538,40 L 153.94151625698998,40 L 155.40103203168428,40 L 155.43960867289275,40 L 155.46334952268427,40 L 156.95113930565864,40 L 156.98701038587197,40 L 157.0248344869361,40 L 158.50015360466145,40 L 158.53434042836128,40 L 158.57309624579457,40 L 160.04656984840406,40 L 160.07729857096444,40 L 160.11592896504035,40 L 161.59450909005784,40 L 161.62701165724414,40 L 161.65894086051097,40 L 163.14205414401695,40 L 163.1791794578042,40 L 163.22024664853794,40 L 164.69321855771787,40 L 164.72964508422822,40 L 164.77417037610144,40 L 166.23189438854732,40 L 166.26923471380437,40 L 166.31216533727647,40 L 167.78710818492965,40 L 167.8227463360507,40 L 167.85947746214327,40 L 169.33610456630998,40 L 169.37783470907567,40 L 169.42201956612166,40 L 170.88474259524062,40 L 170.92240543770242,40 L 170.96879416231397,40 L 172.42992252303185,40 L 172.46935921011953,40 L 172.50580365425236,40 L 173.9843479440249,40 L 174.02030861235065,40 L 175.53585279255302,40 L 175.56876746505645,40 L 177.07802255976688,40 L 177.11527329691148,40 L 177.15951190682495,40 L 178.62409836868227,40 L 178.67113212770326,40 L 180.175477793853,40 L 180.20747866760976,40 L 180.24965675093753,40 L 181.7201201929697,40 L 181.75903726900535,40 L 181.80329379654128,40 L 183.26393838145208,40 L 183.30151163580143,40 L 183.33333333333334,40" fill="none" stroke="none"/>
  </g>
  <!-- 🔓 Public Contributions Chart -->
  <g transform="translate(293.33333333333337, 250)">
    <!-- Chart Background -->
    <rect x="0" y="0" width="213.33333333333334" height="200" fill="#ffffff" stroke="#e2e8f0" stroke-width="1" rx="8" filter="url(#shadow)">
      <animate attributeName="opacity" values="0;1" dur="0.5s" begin="2.3s" fill="freeze"/>
    </rect>
    
    <!-- Chart Title -->
    <text x="106.66666666666667" y="25" text-anchor="middle" fill="#1e293b" font-size="14" font-weight="bold" font-family="Arial, sans-serif">
      🔓 Public Contributions
      <animate attributeName="opacity" values="0;1" dur="0.5s" begin="2.5s" fill="freeze"/>
    </text>
    
    <!-- Y-axis labels -->
    <text x="10" y="45" fill="#64748b" font-size="10" font-family="Arial, sans-serif">3,861
      <animate attributeName="opacity" values="0;1" dur="0.5s" begin="2.6999999999999997s" fill="freeze"/>
    </text>
    <text x="10" y="185" fill="#64748b" font-size="10" font-family="Arial, sans-serif">3,434
      <animate attributeName="opacity" values="0;1" dur="0.5s" begin="2.6999999999999997s" fill="freeze"/>
    </text>
    
    <!-- Chart Line with draw animation that follows the circle -->
    <path d="M 30,160 L 30.029295312761644,160 L 30.058447284543412,160 L 31.543943611839794,160 L 31.576267002801263,160 L 31.603286777507417,160 L 32.68343273134406,160 L 33.0986377971701,160 L 33.130764094284245,160 L 33.16461048315687,160 L 34.6465412035789,160 L 34.6746360356341,160 L 34.70753279051507,160 L 36.19272451822921,160 L 36.2143869238126,160 L 36.25072386221052,160 L 37.74288554507102,160 L 37.76994115502214,160 L 37.80140450010437,160 L 39.29105771581708,160 L 39.32354236538091,160 L 39.35701248418137,160 L 40.83725894808988,160 L 40.86492375720547,160 L 40.901350283715814,160 L 42.389659677742216,160 L 42.413257186553885,160 L 42.44231957022323,160 L 43.93643427393451,160 L 43.96994022797993,160 L 44.001313984949746,160 L 45.48362097544394,160 L 45.513776334084824,160 L 45.547640640579935,160 L 47.02951760813451,160 L 47.058920426631055,160 L 47.092068028226805,160 L 48.580825362815304,160 L 48.60831099570604,160 L 48.63642374538373,160 L 50.12715201844549,160 L 50.15494225091847,160 L 50.18834069922899,160 L 51.666329542704496,160 L 51.70313233928701,160 L 51.73400440282726,160 L 53.2224929730785,160 L 53.24422704915182,160 L 53.28330538378983,160 L 54.77242107082802,160 L 54.805084896616684,160 L 54.83950464940881,160 L 56.32270752102721,160 L 56.35259411533083,160 L 56.38425455426038,160 L 57.861616280948944,160 L 57.89408301289029,160 L 57.926460156719216,160 L 59.41448286878587,160 L 59.44487115651904,160 L 59.4795955088934,160 L 60.96304922722658,160 L 60.99101863592439,160 L 61.02189069946464,160 L 62.512260620076724,160 L 62.532185016279136,160 L 62.58110012566096,160 L 64.05770931220519,160 L 64.08786467084607,160 L 64.11760792416982,160 L 65.6086587144363,160 L 65.64289929100357,160 L 65.67405803650357,160 L 67.15598875692561,160 L 67.18614411556649,160 L 67.2209043031858,160 L 68.70195706010611,160 L 68.73159280769494,160 L 68.75859466477863,160 L 70.25238685128517,160 L 70.28300806811065,160 L 70.31454308368282,160 L 71.8051280157647,160 L 71.83393955271927,160 L 71.8623569019792,160 L 73.34740528871347,160 L 73.37820568176377,40 L 73.41029614363296,40 L 74.9012752634095,40 L 74.92265098703314,40 L 74.95212547601962,40 L 76.44548763958656,40 L 76.46938974798046,40 L 76.51180076040053,40 L 77.99541573733606,40 L 78.02689700004078,40 L 78.05454389153388,40 L 79.53722715210024,40 L 79.5717185753823,40 L 79.605493293765,40 L 81.09484190989548,40 L 81.110107724252,40 L 81.151479514568,40 L 82.63982474383936,40 L 82.67245273438306,40 L 82.70930928383302,40 L 84.18803274983037,40 L 84.21877939001325,40 L 84.25818024185597,40 L 85.73373228867362,40 L 85.76643194970725,40 L 85.8045785679761,40 L 87.29039741247719,40 L 87.32682393898753,40 L 88.83253134444608,40 L 88.90912918056597,40 L 90.3808647737945,40 L 90.4189397215734,40 L 90.455079566124,40 L 91.92857108635597,40 L 91.96868864309806,40 L 91.9962996993462,40 L 93.47993259390422,40 L 93.51351021843958,40 L 93.5512088961463,40 L 95.02256821930267,40 L 95.05612792621555,40 L 95.09388035678973,40 L 96.57301592810423,40 L 96.60600227109761,40 L 96.64138957550388,40 L 98.12656338559553,40 L 98.16990611438477,40 L 99.70888654479646,40 L 99.74991790028524,40 L 101.22622248724724,40 L 101.26005095849737,40 L 102.77835445256231,40 L 102.80716598951688,40 L 102.85461185385499,40 L 104.31457556911141,40 L 104.34754399448231,40 L 104.38284171077615,40 L 105.86452158448341,40 L 105.90351033100899,40 L 105.94264241851445,40 L 107.40986277087696,40 L 107.44146945693906,40 L 107.47988483954516,40 L 108.95669111993672,40 L 108.9926159530175,40 L 109.03957804154855,40 L 110.49998969736707,40 L 110.54087771187599,40 L 110.58045773994355,40 L 112.05522141137192,40 L 112.08811816625287,40 L 112.12567350297972,40 L 113.60326815876059,40 L 113.6365591013362,40 L 113.67493864869732,40 L 115.14934396767599,40 L 115.18793852650693,40 L 115.22952532829272,40 L 116.69898538346575,40 L 116.72971410602612,40 L 116.76674983170093,40 L 118.24842970540818,40 L 118.27600492641136,40 L 118.31366776887312,40 L 119.79264208158526,40 L 119.82799355074656,40 L 119.86703605013959,40 L 121.34178180394547,40 L 121.37930130542735,40 L 121.41920385069962,40 L 122.89402127499542,40 L 122.92116647305896,40 L 122.95999396098219,40 L 124.44081378881022,40 L 124.47738365630043,40 L 124.50999372922166,40 L 125.98421987197548,40 L 126.01768999077595,40 L 126.05623079673941,40 L 127.5296148112365,40 L 127.57021614378566,40 L 127.60735937519537,40 L 129.0811375773871,40 L 129.11177671183503,40 L 129.1461785470047,40 L 130.63536590453282,40 L 130.6727599826573,40 L 130.71484847787266,40 L 132.18221217121504,40 L 132.21561061952556,40 L 132.24900906783608,40 L 133.72680081746427,40 L 133.76389029600654,40 L 133.8003705753843,40 L 135.26827179740127,40 L 135.3085506127457,40 L 135.34689432486184,40 L 136.8151180640835,40 L 136.85537896180546,40 L 136.89956381885145,40 L 138.37767808568435,40 L 138.4096968770636,40 L 138.45110450262453,40 L 139.92189046186138,40 L 139.949555270977,40 L 139.98462005817854,40 L 141.4655832269864,40 L 141.5021889297216,40 L 141.53931424350884,40 L 143.01443626738688,40 L 143.04640130589866,40 L 143.08773726096967,40 L 144.5621784151933,40 L 144.5943405475524,40 L 144.6324334129538,40 L 146.11074477363402,40 L 146.14226187158368,40 L 146.17639494241607,40 L 147.65712518213167,66.4168618266979 L 147.68695802356785,66.4168618266979 L 149.2039714488139,66.4168618266979 L 149.24039797532424,66.4168618266979 L 149.2747998104939,66.4168618266979 L 150.75363078222614,66.4168618266979 L 150.77871545370402,66.4168618266979 L 150.82141314808382,66.4168618266979 L 152.31011672980486,66.4168618266979 L 152.34795874849146,66.4168618266979 L 153.85063807575017,66.4168618266979 L 153.89005684521538,66.4168618266979 L 153.94151625698998,66.4168618266979 L 155.40103203168428,66.4168618266979 L 155.43960867289275,66.4168618266979 L 155.46334952268427,66.4168618266979 L 156.95113930565864,66.4168618266979 L 156.98701038587197,66.4168618266979 L 157.0248344869361,66.4168618266979 L 158.50015360466145,66.4168618266979 L 158.53434042836128,66.4168618266979 L 158.57309624579457,66.4168618266979 L 160.04656984840406,66.4168618266979 L 160.07729857096444,66.4168618266979 L 160.11592896504035,66.4168618266979 L 161.59450909005784,66.4168618266979 L 161.62701165724414,66.4168618266979 L 161.65894086051097,66.4168618266979 L 163.14205414401695,66.4168618266979 L 163.1791794578042,66.4168618266979 L 163.22024664853794,66.4168618266979 L 164.69321855771787,66.4168618266979 L 164.72964508422822,66.4168618266979 L 164.77417037610144,66.4168618266979 L 166.23189438854732,66.4168618266979 L 166.26923471380437,66.4168618266979 L 166.31216533727647,66.4168618266979 L 167.78710818492965,66.4168618266979 L 167.8227463360507,66.4168618266979 L 167.85947746214327,66.4168618266979 L 169.33610456630998,66.4168618266979 L 169.37783470907567,66.4168618266979 L 169.42201956612166,66.4168618266979 L 170.88474259524062,66.4168618266979 L 170.92240543770242,66.4168618266979 L 170.96879416231397,66.4168618266979 L 172.42992252303185,66.4168618266979 L 172.46935921011953,66.4168618266979 L 172.50580365425236,66.4168618266979 L 173.9843479440249,66.4168618266979 L 174.02030861235065,66.4168618266979 L 175.53585279255302,66.4168618266979 L 175.56876746505645,66.4168618266979 L 177.07802255976688,66.4168618266979 L 177.11527329691148,66.4168618266979 L 177.15951190682495,66.4168618266979 L 178.62409836868227,66.4168618266979 L 178.67113212770326,66.4168618266979 L 180.175477793853,66.4168618266979 L 180.20747866760976,66.4168618266979 L 180.24965675093753,66.4168618266979 L 181.7201201929697,66.4168618266979 L 181.75903726900535,66.4168618266979 L 181.80329379654128,66.4168618266979 L 183.26393838145208,66.4168618266979 L 183.30151163580143,66.4168618266979 L 183.33333333333334,66.4168618266979" stroke="#3b82f6" stroke-width="2" fill="none" stroke-dasharray="14550" stroke-dashoffset="14550">
      <animate attributeName="stroke-dashoffset" values="14550;0" dur="3s" begin="3.0999999999999996s" fill="freeze"/>
    </path>
    
    <!-- Glow effect for the line that also follows the circle -->
    <path d="M 30,160 L 30.029295312761644,160 L 30.058447284543412,160 L 31.543943611839794,160 L 31.576267002801263,160 L 31.603286777507417,160 L 32.68343273134406,160 L 33.0986377971701,160 L 33.130764094284245,160 L 33.16461048315687,160 L 34.6465412035789,160 L 34.6746360356341,160 L 34.70753279051507,160 L 36.19272451822921,160 L 36.2143869238126,160 L 36.25072386221052,160 L 37.74288554507102,160 L 37.76994115502214,160 L 37.80140450010437,160 L 39.29105771581708,160 L 39.32354236538091,160 L 39.35701248418137,160 L 40.83725894808988,160 L 40.86492375720547,160 L 40.901350283715814,160 L 42.389659677742216,160 L 42.413257186553885,160 L 42.44231957022323,160 L 43.93643427393451,160 L 43.96994022797993,160 L 44.001313984949746,160 L 45.48362097544394,160 L 45.513776334084824,160 L 45.547640640579935,160 L 47.02951760813451,160 L 47.058920426631055,160 L 47.092068028226805,160 L 48.580825362815304,160 L 48.60831099570604,160 L 48.63642374538373,160 L 50.12715201844549,160 L 50.15494225091847,160 L 50.18834069922899,160 L 51.666329542704496,160 L 51.70313233928701,160 L 51.73400440282726,160 L 53.2224929730785,160 L 53.24422704915182,160 L 53.28330538378983,160 L 54.77242107082802,160 L 54.805084896616684,160 L 54.83950464940881,160 L 56.32270752102721,160 L 56.35259411533083,160 L 56.38425455426038,160 L 57.861616280948944,160 L 57.89408301289029,160 L 57.926460156719216,160 L 59.41448286878587,160 L 59.44487115651904,160 L 59.4795955088934,160 L 60.96304922722658,160 L 60.99101863592439,160 L 61.02189069946464,160 L 62.512260620076724,160 L 62.532185016279136,160 L 62.58110012566096,160 L 64.05770931220519,160 L 64.08786467084607,160 L 64.11760792416982,160 L 65.6086587144363,160 L 65.64289929100357,160 L 65.67405803650357,160 L 67.15598875692561,160 L 67.18614411556649,160 L 67.2209043031858,160 L 68.70195706010611,160 L 68.73159280769494,160 L 68.75859466477863,160 L 70.25238685128517,160 L 70.28300806811065,160 L 70.31454308368282,160 L 71.8051280157647,160 L 71.83393955271927,160 L 71.8623569019792,160 L 73.34740528871347,160 L 73.37820568176377,40 L 73.41029614363296,40 L 74.9012752634095,40 L 74.92265098703314,40 L 74.95212547601962,40 L 76.44548763958656,40 L 76.46938974798046,40 L 76.51180076040053,40 L 77.99541573733606,40 L 78.02689700004078,40 L 78.05454389153388,40 L 79.53722715210024,40 L 79.5717185753823,40 L 79.605493293765,40 L 81.09484190989548,40 L 81.110107724252,40 L 81.151479514568,40 L 82.63982474383936,40 L 82.67245273438306,40 L 82.70930928383302,40 L 84.18803274983037,40 L 84.21877939001325,40 L 84.25818024185597,40 L 85.73373228867362,40 L 85.76643194970725,40 L 85.8045785679761,40 L 87.29039741247719,40 L 87.32682393898753,40 L 88.83253134444608,40 L 88.90912918056597,40 L 90.3808647737945,40 L 90.4189397215734,40 L 90.455079566124,40 L 91.92857108635597,40 L 91.96868864309806,40 L 91.9962996993462,40 L 93.47993259390422,40 L 93.51351021843958,40 L 93.5512088961463,40 L 95.02256821930267,40 L 95.05612792621555,40 L 95.09388035678973,40 L 96.57301592810423,40 L 96.60600227109761,40 L 96.64138957550388,40 L 98.12656338559553,40 L 98.16990611438477,40 L 99.70888654479646,40 L 99.74991790028524,40 L 101.22622248724724,40 L 101.26005095849737,40 L 102.77835445256231,40 L 102.80716598951688,40 L 102.85461185385499,40 L 104.31457556911141,40 L 104.34754399448231,40 L 104.38284171077615,40 L 105.86452158448341,40 L 105.90351033100899,40 L 105.94264241851445,40 L 107.40986277087696,40 L 107.44146945693906,40 L 107.47988483954516,40 L 108.95669111993672,40 L 108.9926159530175,40 L 109.03957804154855,40 L 110.49998969736707,40 L 110.54087771187599,40 L 110.58045773994355,40 L 112.05522141137192,40 L 112.08811816625287,40 L 112.12567350297972,40 L 113.60326815876059,40 L 113.6365591013362,40 L 113.67493864869732,40 L 115.14934396767599,40 L 115.18793852650693,40 L 115.22952532829272,40 L 116.69898538346575,40 L 116.72971410602612,40 L 116.76674983170093,40 L 118.24842970540818,40 L 118.27600492641136,40 L 118.31366776887312,40 L 119.79264208158526,40 L 119.82799355074656,40 L 119.86703605013959,40 L 121.34178180394547,40 L 121.37930130542735,40 L 121.41920385069962,40 L 122.89402127499542,40 L 122.92116647305896,40 L 122.95999396098219,40 L 124.44081378881022,40 L 124.47738365630043,40 L 124.50999372922166,40 L 125.98421987197548,40 L 126.01768999077595,40 L 126.05623079673941,40 L 127.5296148112365,40 L 127.57021614378566,40 L 127.60735937519537,40 L 129.0811375773871,40 L 129.11177671183503,40 L 129.1461785470047,40 L 130.63536590453282,40 L 130.6727599826573,40 L 130.71484847787266,40 L 132.18221217121504,40 L 132.21561061952556,40 L 132.24900906783608,40 L 133.72680081746427,40 L 133.76389029600654,40 L 133.8003705753843,40 L 135.26827179740127,40 L 135.3085506127457,40 L 135.34689432486184,40 L 136.8151180640835,40 L 136.85537896180546,40 L 136.89956381885145,40 L 138.37767808568435,40 L 138.4096968770636,40 L 138.45110450262453,40 L 139.92189046186138,40 L 139.949555270977,40 L 139.98462005817854,40 L 141.4655832269864,40 L 141.5021889297216,40 L 141.53931424350884,40 L 143.01443626738688,40 L 143.04640130589866,40 L 143.08773726096967,40 L 144.5621784151933,40 L 144.5943405475524,40 L 144.6324334129538,40 L 146.11074477363402,40 L 146.14226187158368,40 L 146.17639494241607,40 L 147.65712518213167,66.4168618266979 L 147.68695802356785,66.4168618266979 L 149.2039714488139,66.4168618266979 L 149.24039797532424,66.4168618266979 L 149.2747998104939,66.4168618266979 L 150.75363078222614,66.4168618266979 L 150.77871545370402,66.4168618266979 L 150.82141314808382,66.4168618266979 L 152.31011672980486,66.4168618266979 L 152.34795874849146,66.4168618266979 L 153.85063807575017,66.4168618266979 L 153.89005684521538,66.4168618266979 L 153.94151625698998,66.4168618266979 L 155.40103203168428,66.4168618266979 L 155.43960867289275,66.4168618266979 L 155.46334952268427,66.4168618266979 L 156.95113930565864,66.4168618266979 L 156.98701038587197,66.4168618266979 L 157.0248344869361,66.4168618266979 L 158.50015360466145,66.4168618266979 L 158.53434042836128,66.4168618266979 L 158.57309624579457,66.4168618266979 L 160.04656984840406,66.4168618266979 L 160.07729857096444,66.4168618266979 L 160.11592896504035,66.4168618266979 L 161.59450909005784,66.4168618266979 L 161.62701165724414,66.4168618266979 L 161.65894086051097,66.4168618266979 L 163.14205414401695,66.4168618266979 L 163.1791794578042,66.4168618266979 L 163.22024664853794,66.4168618266979 L 164.69321855771787,66.4168618266979 L 164.72964508422822,66.4168618266979 L 164.77417037610144,66.4168618266979 L 166.23189438854732,66.4168618266979 L 166.26923471380437,66.4168618266979 L 166.31216533727647,66.4168618266979 L 167.78710818492965,66.4168618266979 L 167.8227463360507,66.4168618266979 L 167.85947746214327,66.4168618266979 L 169.33610456630998,66.4168618266979 L 169.37783470907567,66.4168618266979 L 169.42201956612166,66.4168618266979 L 170.88474259524062,66.4168618266979 L 170.92240543770242,66.4168618266979 L 170.96879416231397,66.4168618266979 L 172.42992252303185,66.4168618266979 L 172.46935921011953,66.4168618266979 L 172.50580365425236,66.4168618266979 L 173.9843479440249,66.4168618266979 L 174.02030861235065,66.4168618266979 L 175.53585279255302,66.4168618266979 L 175.56876746505645,66.4168618266979 L 177.07802255976688,66.4168618266979 L 177.11527329691148,66.4168618266979 L 177.15951190682495,66.4168618266979 L 178.62409836868227,66.4168618266979 L 178.67113212770326,66.4168618266979 L 180.175477793853,66.4168618266979 L 180.20747866760976,66.4168618266979 L 180.24965675093753,66.4168618266979 L 181.7201201929697,66.4168618266979 L 181.75903726900535,66.4168618266979 L 181.80329379654128,66.4168618266979 L 183.26393838145208,66.4168618266979 L 183.30151163580143,66.4168618266979 L 183.33333333333334,66.4168618266979" stroke="#3b82f6" stroke-width="4" fill="none" opacity="0.4" stroke-dasharray="14550" stroke-dashoffset="14550">
      <animate attributeName="stroke-dashoffset" values="14550;0" dur="3s" begin="3.0999999999999996s" fill="freeze"/>
    </path>
    
    <!-- Animated circle that moves along the path and draws the line -->
    <circle r="5" fill="#3b82f6" opacity="0" filter="url(#trailGlow)">
      <animate attributeName="opacity" values="0;1;1;1" dur="3.2s" begin="2.9s" fill="freeze"/>
      <animate attributeName="r" values="5;6;5" dur="1s" begin="2.9s" repeatCount="3"/>
      <animateMotion dur="3s" begin="2.9s" fill="freeze">
        <mpath href="#path_publicContributions_293.33333333333337"/>
      </animateMotion>
    </circle>
    
    <!-- Small trail dots that fade out -->
    <circle r="2" fill="#3b82f6" opacity="0">
      <animate attributeName="opacity" values="0;0.6;0" dur="0.8s" begin="3.3s" fill="freeze"/>
      <animateMotion dur="3s" begin="2.9s" fill="freeze">
        <mpath href="#path_publicContributions_293.33333333333337"/>
      </animateMotion>
    </circle>
    
    <!-- Hidden path for motion animation -->
    <path id="path_publicContributions_293.33333333333337" d="M 30,160 L 30.029295312761644,160 L 30.058447284543412,160 L 31.543943611839794,160 L 31.576267002801263,160 L 31.603286777507417,160 L 32.68343273134406,160 L 33.0986377971701,160 L 33.130764094284245,160 L 33.16461048315687,160 L 34.6465412035789,160 L 34.6746360356341,160 L 34.70753279051507,160 L 36.19272451822921,160 L 36.2143869238126,160 L 36.25072386221052,160 L 37.74288554507102,160 L 37.76994115502214,160 L 37.80140450010437,160 L 39.29105771581708,160 L 39.32354236538091,160 L 39.35701248418137,160 L 40.83725894808988,160 L 40.86492375720547,160 L 40.901350283715814,160 L 42.389659677742216,160 L 42.413257186553885,160 L 42.44231957022323,160 L 43.93643427393451,160 L 43.96994022797993,160 L 44.001313984949746,160 L 45.48362097544394,160 L 45.513776334084824,160 L 45.547640640579935,160 L 47.02951760813451,160 L 47.058920426631055,160 L 47.092068028226805,160 L 48.580825362815304,160 L 48.60831099570604,160 L 48.63642374538373,160 L 50.12715201844549,160 L 50.15494225091847,160 L 50.18834069922899,160 L 51.666329542704496,160 L 51.70313233928701,160 L 51.73400440282726,160 L 53.2224929730785,160 L 53.24422704915182,160 L 53.28330538378983,160 L 54.77242107082802,160 L 54.805084896616684,160 L 54.83950464940881,160 L 56.32270752102721,160 L 56.35259411533083,160 L 56.38425455426038,160 L 57.861616280948944,160 L 57.89408301289029,160 L 57.926460156719216,160 L 59.41448286878587,160 L 59.44487115651904,160 L 59.4795955088934,160 L 60.96304922722658,160 L 60.99101863592439,160 L 61.02189069946464,160 L 62.512260620076724,160 L 62.532185016279136,160 L 62.58110012566096,160 L 64.05770931220519,160 L 64.08786467084607,160 L 64.11760792416982,160 L 65.6086587144363,160 L 65.64289929100357,160 L 65.67405803650357,160 L 67.15598875692561,160 L 67.18614411556649,160 L 67.2209043031858,160 L 68.70195706010611,160 L 68.73159280769494,160 L 68.75859466477863,160 L 70.25238685128517,160 L 70.28300806811065,160 L 70.31454308368282,160 L 71.8051280157647,160 L 71.83393955271927,160 L 71.8623569019792,160 L 73.34740528871347,160 L 73.37820568176377,40 L 73.41029614363296,40 L 74.9012752634095,40 L 74.92265098703314,40 L 74.95212547601962,40 L 76.44548763958656,40 L 76.46938974798046,40 L 76.51180076040053,40 L 77.99541573733606,40 L 78.02689700004078,40 L 78.05454389153388,40 L 79.53722715210024,40 L 79.5717185753823,40 L 79.605493293765,40 L 81.09484190989548,40 L 81.110107724252,40 L 81.151479514568,40 L 82.63982474383936,40 L 82.67245273438306,40 L 82.70930928383302,40 L 84.18803274983037,40 L 84.21877939001325,40 L 84.25818024185597,40 L 85.73373228867362,40 L 85.76643194970725,40 L 85.8045785679761,40 L 87.29039741247719,40 L 87.32682393898753,40 L 88.83253134444608,40 L 88.90912918056597,40 L 90.3808647737945,40 L 90.4189397215734,40 L 90.455079566124,40 L 91.92857108635597,40 L 91.96868864309806,40 L 91.9962996993462,40 L 93.47993259390422,40 L 93.51351021843958,40 L 93.5512088961463,40 L 95.02256821930267,40 L 95.05612792621555,40 L 95.09388035678973,40 L 96.57301592810423,40 L 96.60600227109761,40 L 96.64138957550388,40 L 98.12656338559553,40 L 98.16990611438477,40 L 99.70888654479646,40 L 99.74991790028524,40 L 101.22622248724724,40 L 101.26005095849737,40 L 102.77835445256231,40 L 102.80716598951688,40 L 102.85461185385499,40 L 104.31457556911141,40 L 104.34754399448231,40 L 104.38284171077615,40 L 105.86452158448341,40 L 105.90351033100899,40 L 105.94264241851445,40 L 107.40986277087696,40 L 107.44146945693906,40 L 107.47988483954516,40 L 108.95669111993672,40 L 108.9926159530175,40 L 109.03957804154855,40 L 110.49998969736707,40 L 110.54087771187599,40 L 110.58045773994355,40 L 112.05522141137192,40 L 112.08811816625287,40 L 112.12567350297972,40 L 113.60326815876059,40 L 113.6365591013362,40 L 113.67493864869732,40 L 115.14934396767599,40 L 115.18793852650693,40 L 115.22952532829272,40 L 116.69898538346575,40 L 116.72971410602612,40 L 116.76674983170093,40 L 118.24842970540818,40 L 118.27600492641136,40 L 118.31366776887312,40 L 119.79264208158526,40 L 119.82799355074656,40 L 119.86703605013959,40 L 121.34178180394547,40 L 121.37930130542735,40 L 121.41920385069962,40 L 122.89402127499542,40 L 122.92116647305896,40 L 122.95999396098219,40 L 124.44081378881022,40 L 124.47738365630043,40 L 124.50999372922166,40 L 125.98421987197548,40 L 126.01768999077595,40 L 126.05623079673941,40 L 127.5296148112365,40 L 127.57021614378566,40 L 127.60735937519537,40 L 129.0811375773871,40 L 129.11177671183503,40 L 129.1461785470047,40 L 130.63536590453282,40 L 130.6727599826573,40 L 130.71484847787266,40 L 132.18221217121504,40 L 132.21561061952556,40 L 132.24900906783608,40 L 133.72680081746427,40 L 133.76389029600654,40 L 133.8003705753843,40 L 135.26827179740127,40 L 135.3085506127457,40 L 135.34689432486184,40 L 136.8151180640835,40 L 136.85537896180546,40 L 136.89956381885145,40 L 138.37767808568435,40 L 138.4096968770636,40 L 138.45110450262453,40 L 139.92189046186138,40 L 139.949555270977,40 L 139.98462005817854,40 L 141.4655832269864,40 L 141.5021889297216,40 L 141.53931424350884,40 L 143.01443626738688,40 L 143.04640130589866,40 L 143.08773726096967,40 L 144.5621784151933,40 L 144.5943405475524,40 L 144.6324334129538,40 L 146.11074477363402,40 L 146.14226187158368,40 L 146.17639494241607,40 L 147.65712518213167,66.4168618266979 L 147.68695802356785,66.4168618266979 L 149.2039714488139,66.4168618266979 L 149.24039797532424,66.4168618266979 L 149.2747998104939,66.4168618266979 L 150.75363078222614,66.4168618266979 L 150.77871545370402,66.4168618266979 L 150.82141314808382,66.4168618266979 L 152.31011672980486,66.4168618266979 L 152.34795874849146,66.4168618266979 L 153.85063807575017,66.4168618266979 L 153.89005684521538,66.4168618266979 L 153.94151625698998,66.4168618266979 L 155.40103203168428,66.4168618266979 L 155.43960867289275,66.4168618266979 L 155.46334952268427,66.4168618266979 L 156.95113930565864,66.4168618266979 L 156.98701038587197,66.4168618266979 L 157.0248344869361,66.4168618266979 L 158.50015360466145,66.4168618266979 L 158.53434042836128,66.4168618266979 L 158.57309624579457,66.4168618266979 L 160.04656984840406,66.4168618266979 L 160.07729857096444,66.4168618266979 L 160.11592896504035,66.4168618266979 L 161.59450909005784,66.4168618266979 L 161.62701165724414,66.4168618266979 L 161.65894086051097,66.4168618266979 L 163.14205414401695,66.4168618266979 L 163.1791794578042,66.4168618266979 L 163.22024664853794,66.4168618266979 L 164.69321855771787,66.4168618266979 L 164.72964508422822,66.4168618266979 L 164.77417037610144,66.4168618266979 L 166.23189438854732,66.4168618266979 L 166.26923471380437,66.4168618266979 L 166.31216533727647,66.4168618266979 L 167.78710818492965,66.4168618266979 L 167.8227463360507,66.4168618266979 L 167.85947746214327,66.4168618266979 L 169.33610456630998,66.4168618266979 L 169.37783470907567,66.4168618266979 L 169.42201956612166,66.4168618266979 L 170.88474259524062,66.4168618266979 L 170.92240543770242,66.4168618266979 L 170.96879416231397,66.4168618266979 L 172.42992252303185,66.4168618266979 L 172.46935921011953,66.4168618266979 L 172.50580365425236,66.4168618266979 L 173.9843479440249,66.4168618266979 L 174.02030861235065,66.4168618266979 L 175.53585279255302,66.4168618266979 L 175.56876746505645,66.4168618266979 L 177.07802255976688,66.4168618266979 L 177.11527329691148,66.4168618266979 L 177.15951190682495,66.4168618266979 L 178.62409836868227,66.4168618266979 L 178.67113212770326,66.4168618266979 L 180.175477793853,66.4168618266979 L 180.20747866760976,66.4168618266979 L 180.24965675093753,66.4168618266979 L 181.7201201929697,66.4168618266979 L 181.75903726900535,66.4168618266979 L 181.80329379654128,66.4168618266979 L 183.26393838145208,66.4168618266979 L 183.30151163580143,66.4168618266979 L 183.33333333333334,66.4168618266979" fill="none" stroke="none"/>
  </g>
  <!-- 📊 Total Contributions Chart -->
  <g transform="translate(526.6666666666667, 250)">
    <!-- Chart Background -->
    <rect x="0" y="0" width="213.33333333333334" height="200" fill="#ffffff" stroke="#e2e8f0" stroke-width="1" rx="8" filter="url(#shadow)">
      <animate attributeName="opacity" values="0;1" dur="0.5s" begin="2.8s" fill="freeze"/>
    </rect>
    
    <!-- Chart Title -->
    <text x="106.66666666666667" y="25" text-anchor="middle" fill="#1e293b" font-size="14" font-weight="bold" font-family="Arial, sans-serif">
      📊 Total Contributions
      <animate attributeName="opacity" values="0;1" dur="0.5s" begin="3s" fill="freeze"/>
    </text>
    
    <!-- Y-axis labels -->
    <text x="10" y="45" fill="#64748b" font-size="10" font-family="Arial, sans-serif">5,314
      <animate attributeName="opacity" values="0;1" dur="0.5s" begin="3.1999999999999997s" fill="freeze"/>
    </text>
    <text x="10" y="185" fill="#64748b" font-size="10" font-family="Arial, sans-serif">4,917
      <animate attributeName="opacity" values="0;1" dur="0.5s" begin="3.1999999999999997s" fill="freeze"/>
    </text>
    
    <!-- Chart Line with draw animation that follows the circle -->
    <path d="M 30,160 L 30.029295312761644,160 L 30.058447284543412,160 L 31.543943611839794,160 L 31.576267002801263,160 L 31.603286777507417,160 L 32.68343273134406,160 L 33.0986377971701,160 L 33.130764094284245,160 L 33.16461048315687,160 L 34.6465412035789,160 L 34.6746360356341,160 L 34.70753279051507,160 L 36.19272451822921,160 L 36.2143869238126,160 L 36.25072386221052,160 L 37.74288554507102,160 L 37.76994115502214,160 L 37.80140450010437,160 L 39.29105771581708,160 L 39.32354236538091,160 L 39.35701248418137,160 L 40.83725894808988,160 L 40.86492375720547,160 L 40.901350283715814,160 L 42.389659677742216,160 L 42.413257186553885,160 L 42.44231957022323,160 L 43.93643427393451,160 L 43.96994022797993,160 L 44.001313984949746,160 L 45.48362097544394,160 L 45.513776334084824,160 L 45.547640640579935,160 L 47.02951760813451,160 L 47.058920426631055,160 L 47.092068028226805,160 L 48.580825362815304,160 L 48.60831099570604,160 L 48.63642374538373,160 L 50.12715201844549,160 L 50.15494225091847,160 L 50.18834069922899,160 L 51.666329542704496,160 L 51.70313233928701,160 L 51.73400440282726,160 L 53.2224929730785,160 L 53.24422704915182,160 L 53.28330538378983,160 L 54.77242107082802,160 L 54.805084896616684,160 L 54.83950464940881,160 L 56.32270752102721,160 L 56.35259411533083,160 L 56.38425455426038,160 L 57.861616280948944,160 L 57.89408301289029,160 L 57.926460156719216,160 L 59.41448286878587,160 L 59.44487115651904,160 L 59.4795955088934,160 L 60.96304922722658,160 L 60.99101863592439,160 L 61.02189069946464,160 L 62.512260620076724,160 L 62.532185016279136,160 L 62.58110012566096,160 L 64.05770931220519,160 L 64.08786467084607,160 L 64.11760792416982,160 L 65.6086587144363,160 L 65.64289929100357,160 L 65.67405803650357,160 L 67.15598875692561,160 L 67.18614411556649,160 L 67.2209043031858,160 L 68.70195706010611,160 L 68.73159280769494,160 L 68.75859466477863,160 L 70.25238685128517,160 L 70.28300806811065,160 L 70.31454308368282,160 L 71.8051280157647,160 L 71.83393955271927,160 L 71.8623569019792,160 L 73.34740528871347,160 L 73.37820568176377,40 L 73.41029614363296,40 L 74.9012752634095,40 L 74.92265098703314,40 L 74.95212547601962,40 L 76.44548763958656,40 L 76.46938974798046,40 L 76.51180076040053,40 L 77.99541573733606,40 L 78.02689700004078,40 L 78.05454389153388,40 L 79.53722715210024,40 L 79.5717185753823,40 L 79.605493293765,40 L 81.09484190989548,40 L 81.110107724252,40 L 81.151479514568,40 L 82.63982474383936,40 L 82.67245273438306,40 L 82.70930928383302,40 L 84.18803274983037,40 L 84.21877939001325,40 L 84.25818024185597,40 L 85.73373228867362,40 L 85.76643194970725,40 L 85.8045785679761,40 L 87.29039741247719,40 L 87.32682393898753,40 L 88.83253134444608,40 L 88.90912918056597,40 L 90.3808647737945,40 L 90.4189397215734,40 L 90.455079566124,40 L 91.92857108635597,40 L 91.96868864309806,40 L 91.9962996993462,40 L 93.47993259390422,40 L 93.51351021843958,40 L 93.5512088961463,40 L 95.02256821930267,40 L 95.05612792621555,40 L 95.09388035678973,40 L 96.57301592810423,40 L 96.60600227109761,40 L 96.64138957550388,40 L 98.12656338559553,40 L 98.16990611438477,40 L 99.70888654479646,40 L 99.74991790028524,40 L 101.22622248724724,40 L 101.26005095849737,40 L 102.77835445256231,40 L 102.80716598951688,40 L 102.85461185385499,40 L 104.31457556911141,40 L 104.34754399448231,40 L 104.38284171077615,40 L 105.86452158448341,40 L 105.90351033100899,40 L 105.94264241851445,40 L 107.40986277087696,40 L 107.44146945693906,40 L 107.47988483954516,40 L 108.95669111993672,40 L 108.9926159530175,40 L 109.03957804154855,40 L 110.49998969736707,40 L 110.54087771187599,40 L 110.58045773994355,40 L 112.05522141137192,40 L 112.08811816625287,40 L 112.12567350297972,40 L 113.60326815876059,40 L 113.6365591013362,40 L 113.67493864869732,40 L 115.14934396767599,40 L 115.18793852650693,40 L 115.22952532829272,40 L 116.69898538346575,40 L 116.72971410602612,40 L 116.76674983170093,40 L 118.24842970540818,40 L 118.27600492641136,40 L 118.31366776887312,40 L 119.79264208158526,40 L 119.82799355074656,40 L 119.86703605013959,40 L 121.34178180394547,40 L 121.37930130542735,40 L 121.41920385069962,40 L 122.89402127499542,40 L 122.92116647305896,40 L 122.95999396098219,40 L 124.44081378881022,40 L 124.47738365630043,40 L 124.50999372922166,40 L 125.98421987197548,40 L 126.01768999077595,40 L 126.05623079673941,40 L 127.5296148112365,40 L 127.57021614378566,40 L 127.60735937519537,40 L 129.0811375773871,40 L 129.11177671183503,40 L 129.1461785470047,40 L 130.63536590453282,40 L 130.6727599826573,40 L 130.71484847787266,40 L 132.18221217121504,40 L 132.21561061952556,40 L 132.24900906783608,40 L 133.72680081746427,40 L 133.76389029600654,40 L 133.8003705753843,40 L 135.26827179740127,40 L 135.3085506127457,40 L 135.34689432486184,40 L 136.8151180640835,40 L 136.85537896180546,40 L 136.89956381885145,40 L 138.37767808568435,40 L 138.4096968770636,40 L 138.45110450262453,40 L 139.92189046186138,40 L 139.949555270977,40 L 139.98462005817854,40 L 141.4655832269864,40 L 141.5021889297216,40 L 141.53931424350884,40 L 143.01443626738688,40 L 143.04640130589866,40 L 143.08773726096967,40 L 144.5621784151933,40 L 144.5943405475524,40 L 144.6324334129538,40 L 146.11074477363402,40 L 146.14226187158368,40 L 146.17639494241607,40 L 147.65712518213167,72.04030226700252 L 147.68695802356785,72.04030226700252 L 149.2039714488139,72.04030226700252 L 149.24039797532424,72.04030226700252 L 149.2747998104939,72.04030226700252 L 150.75363078222614,72.04030226700252 L 150.77871545370402,72.04030226700252 L 150.82141314808382,72.04030226700252 L 152.31011672980486,72.04030226700252 L 152.34795874849146,72.04030226700252 L 153.85063807575017,72.04030226700252 L 153.89005684521538,72.04030226700252 L 153.94151625698998,72.04030226700252 L 155.40103203168428,72.04030226700252 L 155.43960867289275,72.04030226700252 L 155.46334952268427,72.04030226700252 L 156.95113930565864,72.04030226700252 L 156.98701038587197,72.04030226700252 L 157.0248344869361,72.04030226700252 L 158.50015360466145,72.04030226700252 L 158.53434042836128,72.04030226700252 L 158.57309624579457,72.04030226700252 L 160.04656984840406,72.04030226700252 L 160.07729857096444,72.04030226700252 L 160.11592896504035,72.04030226700252 L 161.59450909005784,72.04030226700252 L 161.62701165724414,72.04030226700252 L 161.65894086051097,72.04030226700252 L 163.14205414401695,72.04030226700252 L 163.1791794578042,72.04030226700252 L 163.22024664853794,72.04030226700252 L 164.69321855771787,72.04030226700252 L 164.72964508422822,72.04030226700252 L 164.77417037610144,72.04030226700252 L 166.23189438854732,72.04030226700252 L 166.26923471380437,72.04030226700252 L 166.31216533727647,72.04030226700252 L 167.78710818492965,72.04030226700252 L 167.8227463360507,72.04030226700252 L 167.85947746214327,72.04030226700252 L 169.33610456630998,72.04030226700252 L 169.37783470907567,72.04030226700252 L 169.42201956612166,72.04030226700252 L 170.88474259524062,72.04030226700252 L 170.92240543770242,72.04030226700252 L 170.96879416231397,72.04030226700252 L 172.42992252303185,72.04030226700252 L 172.46935921011953,72.04030226700252 L 172.50580365425236,72.04030226700252 L 173.9843479440249,72.04030226700252 L 174.02030861235065,72.04030226700252 L 175.53585279255302,72.04030226700252 L 175.56876746505645,72.04030226700252 L 177.07802255976688,72.04030226700252 L 177.11527329691148,72.04030226700252 L 177.15951190682495,72.04030226700252 L 178.62409836868227,72.04030226700252 L 178.67113212770326,72.04030226700252 L 180.175477793853,72.04030226700252 L 180.20747866760976,72.04030226700252 L 180.24965675093753,72.04030226700252 L 181.7201201929697,72.04030226700252 L 181.75903726900535,72.04030226700252 L 181.80329379654128,72.04030226700252 L 183.26393838145208,72.04030226700252 L 183.30151163580143,72.04030226700252 L 183.33333333333334,72.04030226700252" stroke="#f59e0b" stroke-width="2" fill="none" stroke-dasharray="14550" stroke-dashoffset="14550">
      <animate attributeName="stroke-dashoffset" values="14550;0" dur="3s" begin="3.5999999999999996s" fill="freeze"/>
    </path>
    
    <!-- Glow effect for the line that also follows the circle -->
    <path d="M 30,160 L 30.029295312761644,160 L 30.058447284543412,160 L 31.543943611839794,160 L 31.576267002801263,160 L 31.603286777507417,160 L 32.68343273134406,160 L 33.0986377971701,160 L 33.130764094284245,160 L 33.16461048315687,160 L 34.6465412035789,160 L 34.6746360356341,160 L 34.70753279051507,160 L 36.19272451822921,160 L 36.2143869238126,160 L 36.25072386221052,160 L 37.74288554507102,160 L 37.76994115502214,160 L 37.80140450010437,160 L 39.29105771581708,160 L 39.32354236538091,160 L 39.35701248418137,160 L 40.83725894808988,160 L 40.86492375720547,160 L 40.901350283715814,160 L 42.389659677742216,160 L 42.413257186553885,160 L 42.44231957022323,160 L 43.93643427393451,160 L 43.96994022797993,160 L 44.001313984949746,160 L 45.48362097544394,160 L 45.513776334084824,160 L 45.547640640579935,160 L 47.02951760813451,160 L 47.058920426631055,160 L 47.092068028226805,160 L 48.580825362815304,160 L 48.60831099570604,160 L 48.63642374538373,160 L 50.12715201844549,160 L 50.15494225091847,160 L 50.18834069922899,160 L 51.666329542704496,160 L 51.70313233928701,160 L 51.73400440282726,160 L 53.2224929730785,160 L 53.24422704915182,160 L 53.28330538378983,160 L 54.77242107082802,160 L 54.805084896616684,160 L 54.83950464940881,160 L 56.32270752102721,160 L 56.35259411533083,160 L 56.38425455426038,160 L 57.861616280948944,160 L 57.89408301289029,160 L 57.926460156719216,160 L 59.41448286878587,160 L 59.44487115651904,160 L 59.4795955088934,160 L 60.96304922722658,160 L 60.99101863592439,160 L 61.02189069946464,160 L 62.512260620076724,160 L 62.532185016279136,160 L 62.58110012566096,160 L 64.05770931220519,160 L 64.08786467084607,160 L 64.11760792416982,160 L 65.6086587144363,160 L 65.64289929100357,160 L 65.67405803650357,160 L 67.15598875692561,160 L 67.18614411556649,160 L 67.2209043031858,160 L 68.70195706010611,160 L 68.73159280769494,160 L 68.75859466477863,160 L 70.25238685128517,160 L 70.28300806811065,160 L 70.31454308368282,160 L 71.8051280157647,160 L 71.83393955271927,160 L 71.8623569019792,160 L 73.34740528871347,160 L 73.37820568176377,40 L 73.41029614363296,40 L 74.9012752634095,40 L 74.92265098703314,40 L 74.95212547601962,40 L 76.44548763958656,40 L 76.46938974798046,40 L 76.51180076040053,40 L 77.99541573733606,40 L 78.02689700004078,40 L 78.05454389153388,40 L 79.53722715210024,40 L 79.5717185753823,40 L 79.605493293765,40 L 81.09484190989548,40 L 81.110107724252,40 L 81.151479514568,40 L 82.63982474383936,40 L 82.67245273438306,40 L 82.70930928383302,40 L 84.18803274983037,40 L 84.21877939001325,40 L 84.25818024185597,40 L 85.73373228867362,40 L 85.76643194970725,40 L 85.8045785679761,40 L 87.29039741247719,40 L 87.32682393898753,40 L 88.83253134444608,40 L 88.90912918056597,40 L 90.3808647737945,40 L 90.4189397215734,40 L 90.455079566124,40 L 91.92857108635597,40 L 91.96868864309806,40 L 91.9962996993462,40 L 93.47993259390422,40 L 93.51351021843958,40 L 93.5512088961463,40 L 95.02256821930267,40 L 95.05612792621555,40 L 95.09388035678973,40 L 96.57301592810423,40 L 96.60600227109761,40 L 96.64138957550388,40 L 98.12656338559553,40 L 98.16990611438477,40 L 99.70888654479646,40 L 99.74991790028524,40 L 101.22622248724724,40 L 101.26005095849737,40 L 102.77835445256231,40 L 102.80716598951688,40 L 102.85461185385499,40 L 104.31457556911141,40 L 104.34754399448231,40 L 104.38284171077615,40 L 105.86452158448341,40 L 105.90351033100899,40 L 105.94264241851445,40 L 107.40986277087696,40 L 107.44146945693906,40 L 107.47988483954516,40 L 108.95669111993672,40 L 108.9926159530175,40 L 109.03957804154855,40 L 110.49998969736707,40 L 110.54087771187599,40 L 110.58045773994355,40 L 112.05522141137192,40 L 112.08811816625287,40 L 112.12567350297972,40 L 113.60326815876059,40 L 113.6365591013362,40 L 113.67493864869732,40 L 115.14934396767599,40 L 115.18793852650693,40 L 115.22952532829272,40 L 116.69898538346575,40 L 116.72971410602612,40 L 116.76674983170093,40 L 118.24842970540818,40 L 118.27600492641136,40 L 118.31366776887312,40 L 119.79264208158526,40 L 119.82799355074656,40 L 119.86703605013959,40 L 121.34178180394547,40 L 121.37930130542735,40 L 121.41920385069962,40 L 122.89402127499542,40 L 122.92116647305896,40 L 122.95999396098219,40 L 124.44081378881022,40 L 124.47738365630043,40 L 124.50999372922166,40 L 125.98421987197548,40 L 126.01768999077595,40 L 126.05623079673941,40 L 127.5296148112365,40 L 127.57021614378566,40 L 127.60735937519537,40 L 129.0811375773871,40 L 129.11177671183503,40 L 129.1461785470047,40 L 130.63536590453282,40 L 130.6727599826573,40 L 130.71484847787266,40 L 132.18221217121504,40 L 132.21561061952556,40 L 132.24900906783608,40 L 133.72680081746427,40 L 133.76389029600654,40 L 133.8003705753843,40 L 135.26827179740127,40 L 135.3085506127457,40 L 135.34689432486184,40 L 136.8151180640835,40 L 136.85537896180546,40 L 136.89956381885145,40 L 138.37767808568435,40 L 138.4096968770636,40 L 138.45110450262453,40 L 139.92189046186138,40 L 139.949555270977,40 L 139.98462005817854,40 L 141.4655832269864,40 L 141.5021889297216,40 L 141.53931424350884,40 L 143.01443626738688,40 L 143.04640130589866,40 L 143.08773726096967,40 L 144.5621784151933,40 L 144.5943405475524,40 L 144.6324334129538,40 L 146.11074477363402,40 L 146.14226187158368,40 L 146.17639494241607,40 L 147.65712518213167,72.04030226700252 L 147.68695802356785,72.04030226700252 L 149.2039714488139,72.04030226700252 L 149.24039797532424,72.04030226700252 L 149.2747998104939,72.04030226700252 L 150.75363078222614,72.04030226700252 L 150.77871545370402,72.04030226700252 L 150.82141314808382,72.04030226700252 L 152.31011672980486,72.04030226700252 L 152.34795874849146,72.04030226700252 L 153.85063807575017,72.04030226700252 L 153.89005684521538,72.04030226700252 L 153.94151625698998,72.04030226700252 L 155.40103203168428,72.04030226700252 L 155.43960867289275,72.04030226700252 L 155.46334952268427,72.04030226700252 L 156.95113930565864,72.04030226700252 L 156.98701038587197,72.04030226700252 L 157.0248344869361,72.04030226700252 L 158.50015360466145,72.04030226700252 L 158.53434042836128,72.04030226700252 L 158.57309624579457,72.04030226700252 L 160.04656984840406,72.04030226700252 L 160.07729857096444,72.04030226700252 L 160.11592896504035,72.04030226700252 L 161.59450909005784,72.04030226700252 L 161.62701165724414,72.04030226700252 L 161.65894086051097,72.04030226700252 L 163.14205414401695,72.04030226700252 L 163.1791794578042,72.04030226700252 L 163.22024664853794,72.04030226700252 L 164.69321855771787,72.04030226700252 L 164.72964508422822,72.04030226700252 L 164.77417037610144,72.04030226700252 L 166.23189438854732,72.04030226700252 L 166.26923471380437,72.04030226700252 L 166.31216533727647,72.04030226700252 L 167.78710818492965,72.04030226700252 L 167.8227463360507,72.04030226700252 L 167.85947746214327,72.04030226700252 L 169.33610456630998,72.04030226700252 L 169.37783470907567,72.04030226700252 L 169.42201956612166,72.04030226700252 L 170.88474259524062,72.04030226700252 L 170.92240543770242,72.04030226700252 L 170.96879416231397,72.04030226700252 L 172.42992252303185,72.04030226700252 L 172.46935921011953,72.04030226700252 L 172.50580365425236,72.04030226700252 L 173.9843479440249,72.04030226700252 L 174.02030861235065,72.04030226700252 L 175.53585279255302,72.04030226700252 L 175.56876746505645,72.04030226700252 L 177.07802255976688,72.04030226700252 L 177.11527329691148,72.04030226700252 L 177.15951190682495,72.04030226700252 L 178.62409836868227,72.04030226700252 L 178.67113212770326,72.04030226700252 L 180.175477793853,72.04030226700252 L 180.20747866760976,72.04030226700252 L 180.24965675093753,72.04030226700252 L 181.7201201929697,72.04030226700252 L 181.75903726900535,72.04030226700252 L 181.80329379654128,72.04030226700252 L 183.26393838145208,72.04030226700252 L 183.30151163580143,72.04030226700252 L 183.33333333333334,72.04030226700252" stroke="#f59e0b" stroke-width="4" fill="none" opacity="0.4" stroke-dasharray="14550" stroke-dashoffset="14550">
      <animate attributeName="stroke-dashoffset" values="14550;0" dur="3s" begin="3.5999999999999996s" fill="freeze"/>
    </path>
    
    <!-- Animated circle that moves along the path and draws the line -->
    <circle r="5" fill="#f59e0b" opacity="0" filter="url(#trailGlow)">
      <animate attributeName="opacity" values="0;1;1;1" dur="3.2s" begin="3.4s" fill="freeze"/>
      <animate attributeName="r" values="5;6;5" dur="1s" begin="3.4s" repeatCount="3"/>
      <animateMotion dur="3s" begin="3.4s" fill="freeze">
        <mpath href="#path_totalContributions_526.6666666666667"/>
      </animateMotion>
    </circle>
    
    <!-- Small trail dots that fade out -->
    <circle r="2" fill="#f59e0b" opacity="0">
      <animate attributeName="opacity" values="0;0.6;0" dur="0.8s" begin="3.8s" fill="freeze"/>
      <animateMotion dur="3s" begin="3.4s" fill="freeze">
        <mpath href="#path_totalContributions_526.6666666666667"/>
      </animateMotion>
    </circle>
    
    <!-- Hidden path for motion animation -->
    <path id="path_totalContributions_526.6666666666667" d="M 30,160 L 30.029295312761644,160 L 30.058447284543412,160 L 31.543943611839794,160 L 31.576267002801263,160 L 31.603286777507417,160 L 32.68343273134406,160 L 33.0986377971701,160 L 33.130764094284245,160 L 33.16461048315687,160 L 34.6465412035789,160 L 34.6746360356341,160 L 34.70753279051507,160 L 36.19272451822921,160 L 36.2143869238126,160 L 36.25072386221052,160 L 37.74288554507102,160 L 37.76994115502214,160 L 37.80140450010437,160 L 39.29105771581708,160 L 39.32354236538091,160 L 39.35701248418137,160 L 40.83725894808988,160 L 40.86492375720547,160 L 40.901350283715814,160 L 42.389659677742216,160 L 42.413257186553885,160 L 42.44231957022323,160 L 43.93643427393451,160 L 43.96994022797993,160 L 44.001313984949746,160 L 45.48362097544394,160 L 45.513776334084824,160 L 45.547640640579935,160 L 47.02951760813451,160 L 47.058920426631055,160 L 47.092068028226805,160 L 48.580825362815304,160 L 48.60831099570604,160 L 48.63642374538373,160 L 50.12715201844549,160 L 50.15494225091847,160 L 50.18834069922899,160 L 51.666329542704496,160 L 51.70313233928701,160 L 51.73400440282726,160 L 53.2224929730785,160 L 53.24422704915182,160 L 53.28330538378983,160 L 54.77242107082802,160 L 54.805084896616684,160 L 54.83950464940881,160 L 56.32270752102721,160 L 56.35259411533083,160 L 56.38425455426038,160 L 57.861616280948944,160 L 57.89408301289029,160 L 57.926460156719216,160 L 59.41448286878587,160 L 59.44487115651904,160 L 59.4795955088934,160 L 60.96304922722658,160 L 60.99101863592439,160 L 61.02189069946464,160 L 62.512260620076724,160 L 62.532185016279136,160 L 62.58110012566096,160 L 64.05770931220519,160 L 64.08786467084607,160 L 64.11760792416982,160 L 65.6086587144363,160 L 65.64289929100357,160 L 65.67405803650357,160 L 67.15598875692561,160 L 67.18614411556649,160 L 67.2209043031858,160 L 68.70195706010611,160 L 68.73159280769494,160 L 68.75859466477863,160 L 70.25238685128517,160 L 70.28300806811065,160 L 70.31454308368282,160 L 71.8051280157647,160 L 71.83393955271927,160 L 71.8623569019792,160 L 73.34740528871347,160 L 73.37820568176377,40 L 73.41029614363296,40 L 74.9012752634095,40 L 74.92265098703314,40 L 74.95212547601962,40 L 76.44548763958656,40 L 76.46938974798046,40 L 76.51180076040053,40 L 77.99541573733606,40 L 78.02689700004078,40 L 78.05454389153388,40 L 79.53722715210024,40 L 79.5717185753823,40 L 79.605493293765,40 L 81.09484190989548,40 L 81.110107724252,40 L 81.151479514568,40 L 82.63982474383936,40 L 82.67245273438306,40 L 82.70930928383302,40 L 84.18803274983037,40 L 84.21877939001325,40 L 84.25818024185597,40 L 85.73373228867362,40 L 85.76643194970725,40 L 85.8045785679761,40 L 87.29039741247719,40 L 87.32682393898753,40 L 88.83253134444608,40 L 88.90912918056597,40 L 90.3808647737945,40 L 90.4189397215734,40 L 90.455079566124,40 L 91.92857108635597,40 L 91.96868864309806,40 L 91.9962996993462,40 L 93.47993259390422,40 L 93.51351021843958,40 L 93.5512088961463,40 L 95.02256821930267,40 L 95.05612792621555,40 L 95.09388035678973,40 L 96.57301592810423,40 L 96.60600227109761,40 L 96.64138957550388,40 L 98.12656338559553,40 L 98.16990611438477,40 L 99.70888654479646,40 L 99.74991790028524,40 L 101.22622248724724,40 L 101.26005095849737,40 L 102.77835445256231,40 L 102.80716598951688,40 L 102.85461185385499,40 L 104.31457556911141,40 L 104.34754399448231,40 L 104.38284171077615,40 L 105.86452158448341,40 L 105.90351033100899,40 L 105.94264241851445,40 L 107.40986277087696,40 L 107.44146945693906,40 L 107.47988483954516,40 L 108.95669111993672,40 L 108.9926159530175,40 L 109.03957804154855,40 L 110.49998969736707,40 L 110.54087771187599,40 L 110.58045773994355,40 L 112.05522141137192,40 L 112.08811816625287,40 L 112.12567350297972,40 L 113.60326815876059,40 L 113.6365591013362,40 L 113.67493864869732,40 L 115.14934396767599,40 L 115.18793852650693,40 L 115.22952532829272,40 L 116.69898538346575,40 L 116.72971410602612,40 L 116.76674983170093,40 L 118.24842970540818,40 L 118.27600492641136,40 L 118.31366776887312,40 L 119.79264208158526,40 L 119.82799355074656,40 L 119.86703605013959,40 L 121.34178180394547,40 L 121.37930130542735,40 L 121.41920385069962,40 L 122.89402127499542,40 L 122.92116647305896,40 L 122.95999396098219,40 L 124.44081378881022,40 L 124.47738365630043,40 L 124.50999372922166,40 L 125.98421987197548,40 L 126.01768999077595,40 L 126.05623079673941,40 L 127.5296148112365,40 L 127.57021614378566,40 L 127.60735937519537,40 L 129.0811375773871,40 L 129.11177671183503,40 L 129.1461785470047,40 L 130.63536590453282,40 L 130.6727599826573,40 L 130.71484847787266,40 L 132.18221217121504,40 L 132.21561061952556,40 L 132.24900906783608,40 L 133.72680081746427,40 L 133.76389029600654,40 L 133.8003705753843,40 L 135.26827179740127,40 L 135.3085506127457,40 L 135.34689432486184,40 L 136.8151180640835,40 L 136.85537896180546,40 L 136.89956381885145,40 L 138.37767808568435,40 L 138.4096968770636,40 L 138.45110450262453,40 L 139.92189046186138,40 L 139.949555270977,40 L 139.98462005817854,40 L 141.4655832269864,40 L 141.5021889297216,40 L 141.53931424350884,40 L 143.01443626738688,40 L 143.04640130589866,40 L 143.08773726096967,40 L 144.5621784151933,40 L 144.5943405475524,40 L 144.6324334129538,40 L 146.11074477363402,40 L 146.14226187158368,40 L 146.17639494241607,40 L 147.65712518213167,72.04030226700252 L 147.68695802356785,72.04030226700252 L 149.2039714488139,72.04030226700252 L 149.24039797532424,72.04030226700252 L 149.2747998104939,72.04030226700252 L 150.75363078222614,72.04030226700252 L 150.77871545370402,72.04030226700252 L 150.82141314808382,72.04030226700252 L 152.31011672980486,72.04030226700252 L 152.34795874849146,72.04030226700252 L 153.85063807575017,72.04030226700252 L 153.89005684521538,72.04030226700252 L 153.94151625698998,72.04030226700252 L 155.40103203168428,72.04030226700252 L 155.43960867289275,72.04030226700252 L 155.46334952268427,72.04030226700252 L 156.95113930565864,72.04030226700252 L 156.98701038587197,72.04030226700252 L 157.0248344869361,72.04030226700252 L 158.50015360466145,72.04030226700252 L 158.53434042836128,72.04030226700252 L 158.57309624579457,72.04030226700252 L 160.04656984840406,72.04030226700252 L 160.07729857096444,72.04030226700252 L 160.11592896504035,72.04030226700252 L 161.59450909005784,72.04030226700252 L 161.62701165724414,72.04030226700252 L 161.65894086051097,72.04030226700252 L 163.14205414401695,72.04030226700252 L 163.1791794578042,72.04030226700252 L 163.22024664853794,72.04030226700252 L 164.69321855771787,72.04030226700252 L 164.72964508422822,72.04030226700252 L 164.77417037610144,72.04030226700252 L 166.23189438854732,72.04030226700252 L 166.26923471380437,72.04030226700252 L 166.31216533727647,72.04030226700252 L 167.78710818492965,72.04030226700252 L 167.8227463360507,72.04030226700252 L 167.85947746214327,72.04030226700252 L 169.33610456630998,72.04030226700252 L 169.37783470907567,72.04030226700252 L 169.42201956612166,72.04030226700252 L 170.88474259524062,72.04030226700252 L 170.92240543770242,72.04030226700252 L 170.96879416231397,72.04030226700252 L 172.42992252303185,72.04030226700252 L 172.46935921011953,72.04030226700252 L 172.50580365425236,72.04030226700252 L 173.9843479440249,72.04030226700252 L 174.02030861235065,72.04030226700252 L 175.53585279255302,72.04030226700252 L 175.56876746505645,72.04030226700252 L 177.07802255976688,72.04030226700252 L 177.11527329691148,72.04030226700252 L 177.15951190682495,72.04030226700252 L 178.62409836868227,72.04030226700252 L 178.67113212770326,72.04030226700252 L 180.175477793853,72.04030226700252 L 180.20747866760976,72.04030226700252 L 180.24965675093753,72.04030226700252 L 181.7201201929697,72.04030226700252 L 181.75903726900535,72.04030226700252 L 181.80329379654128,72.04030226700252 L 183.26393838145208,72.04030226700252 L 183.30151163580143,72.04030226700252 L 183.33333333333334,72.04030226700252" fill="none" stroke="none"/>
  </g>
  
  <!-- Footer -->
  <text x="400" y="580" text-anchor="middle" fill="#94a3b8" font-size="12" font-family="Arial, sans-serif">
    Generated by GitHub User Rank Tracker • 4/4/2026
    <animate attributeName="opacity" values="0;1" dur="0.5s" begin="5s" fill="freeze"/>
  </text>
</svg>