<svg width="800" height="600" xmlns="http://www.w3.org/2000/svg">
  <defs>
    <linearGradient id="bgGradient" x1="0%" y1="0%" x2="100%" y2="100%">
      <stop offset="0%" style="stop-color:#f8fafc;stop-opacity:1" />
      <stop offset="100%" style="stop-color:#e2e8f0;stop-opacity:1" />
    </linearGradient>
    <filter id="shadow" x="-20%" y="-20%" width="140%" height="140%">
      <feDropShadow dx="2" dy="2" stdDeviation="3" flood-color="#00000020" flood-opacity="0.1"/>
    </filter>
    <!-- Trail effect filter -->
    <filter id="trailGlow" x="-50%" y="-50%" width="200%" height="200%">
      <feGaussianBlur stdDeviation="3" result="coloredBlur"/>
      <feMerge> 
        <feMergeNode in="coloredBlur"/>
        <feMergeNode in="SourceGraphic"/>
      </feMerge>
    </filter>
  </defs>
  
  <!-- Background -->
  <rect width="800" height="600" fill="url(#bgGradient)" rx="12"/>
  
  <!-- Header -->
  <text x="400" y="40" text-anchor="middle" fill="#0f172a" font-size="24" font-weight="bold" font-family="Arial, sans-serif">
    GitHub Progress Report
    <animate attributeName="opacity" values="0;1" dur="0.8s" begin="0s" fill="freeze"/>
    <animateTransform attributeName="transform" type="translate" values="0,-20;0,0" dur="0.8s" begin="0s" fill="freeze"/>
  </text>
  
  <!-- User Info -->
  <text x="400" y="70" text-anchor="middle" fill="#475569" font-size="16" font-family="Arial, sans-serif">
    @maifeeulasad • BANGLADESH • 100 days analyzed
    <animate attributeName="opacity" values="0;1" dur="0.6s" begin="0.3s" fill="freeze"/>
  </text>
  
  <!-- Progress Cards -->
  <!-- Followers Card -->
  <g transform="translate(60, 100)">
    <rect width="206.66666666666666" height="120" fill="#ffffff" stroke="#e2e8f0" stroke-width="1" rx="8" filter="url(#shadow)">
      <animate attributeName="opacity" values="0;1" dur="0.6s" begin="0.2s" fill="freeze"/>
      <animateTransform attributeName="transform" type="scale" values="0.8;1" dur="0.6s" begin="0.2s" fill="freeze"/>
    </rect>
    <text x="103.33333333333333" y="25" text-anchor="middle" fill="#64748b" font-size="14" font-weight="bold" font-family="Arial, sans-serif">FOLLOWERS
      <animate attributeName="opacity" values="0;1" dur="0.5s" begin="0.4s" fill="freeze"/>
    </text>
    
    <text x="103.33333333333333" y="50" text-anchor="middle" fill="#ef4444" font-size="32" font-weight="bold" font-family="Arial, sans-serif">
      ↘
      <animate attributeName="opacity" values="0;1" dur="0.5s" begin="0.6s" fill="freeze"/>
      <animateTransform attributeName="transform" type="scale" values="0;1.2;1" dur="0.8s" begin="0.6s" fill="freeze"/>
    </text>
    
    <text x="103.33333333333333" y="75" text-anchor="middle" fill="#1e293b" font-size="18" font-weight="bold" font-family="Arial, sans-serif">
      -15
      <animate attributeName="opacity" values="0;1" dur="0.5s" begin="0.8s" fill="freeze"/>
    </text>
    
    <text x="103.33333333333333" y="95" text-anchor="middle" fill="#64748b" font-size="12" font-family="Arial, sans-serif">
      #466 → #481
      <animate attributeName="opacity" values="0;1" dur="0.5s" begin="1s" fill="freeze"/>
    </text>
  </g>
  
  <!-- Public Contributions Card -->
  <g transform="translate(296.66666666666663, 100)">
    <rect width="206.66666666666666" height="120" fill="#ffffff" stroke="#e2e8f0" stroke-width="1" rx="8" filter="url(#shadow)">
      <animate attributeName="opacity" values="0;1" dur="0.6s" begin="0.4s" fill="freeze"/>
      <animateTransform attributeName="transform" type="scale" values="0.8;1" dur="0.6s" begin="0.4s" fill="freeze"/>
    </rect>
    <text x="103.33333333333333" y="25" text-anchor="middle" fill="#64748b" font-size="14" font-weight="bold" font-family="Arial, sans-serif">PUBLIC
      <animate attributeName="opacity" values="0;1" dur="0.5s" begin="0.6s" fill="freeze"/>
    </text>
    
    <text x="103.33333333333333" y="50" text-anchor="middle" fill="#6b7280" font-size="32" font-weight="bold" font-family="Arial, sans-serif">
      →
      <animate attributeName="opacity" values="0;1" dur="0.5s" begin="0.8s" fill="freeze"/>
      <animateTransform attributeName="transform" type="scale" values="0;1.2;1" dur="0.8s" begin="0.8s" fill="freeze"/>
    </text>
    
    <text x="103.33333333333333" y="75" text-anchor="middle" fill="#1e293b" font-size="18" font-weight="bold" font-family="Arial, sans-serif">
      0
      <animate attributeName="opacity" values="0;1" dur="0.5s" begin="1s" fill="freeze"/>
    </text>
    
    <text x="103.33333333333333" y="95" text-anchor="middle" fill="#64748b" font-size="12" font-family="Arial, sans-serif">
      #7 → #7
      <animate attributeName="opacity" values="0;1" dur="0.5s" begin="1.2s" fill="freeze"/>
    </text>
  </g>
  
  <!-- Total Contributions Card -->
  <g transform="translate(533.3333333333333, 100)">
    <rect width="206.66666666666666" height="120" fill="#ffffff" stroke="#e2e8f0" stroke-width="1" rx="8" filter="url(#shadow)">
      <animate attributeName="opacity" values="0;1" dur="0.6s" begin="0.6s" fill="freeze"/>
      <animateTransform attributeName="transform" type="scale" values="0.8;1" dur="0.6s" begin="0.6s" fill="freeze"/>
    </rect>
    <text x="103.33333333333333" y="25" text-anchor="middle" fill="#64748b" font-size="14" font-weight="bold" font-family="Arial, sans-serif">TOTAL
      <animate attributeName="opacity" values="0;1" dur="0.5s" begin="0.8s" fill="freeze"/>
    </text>
    
    <text x="103.33333333333333" y="50" text-anchor="middle" fill="#22c55e" font-size="32" font-weight="bold" font-family="Arial, sans-serif">
      ↗
      <animate attributeName="opacity" values="0;1" dur="0.5s" begin="1s" fill="freeze"/>
      <animateTransform attributeName="transform" type="scale" values="0;1.2;1" dur="0.8s" begin="1s" fill="freeze"/>
    </text>
    
    <text x="103.33333333333333" y="75" text-anchor="middle" fill="#1e293b" font-size="18" font-weight="bold" font-family="Arial, sans-serif">
      +3
      <animate attributeName="opacity" values="0;1" dur="0.5s" begin="1.2s" fill="freeze"/>
    </text>
    
    <text x="103.33333333333333" y="95" text-anchor="middle" fill="#64748b" font-size="12" font-family="Arial, sans-serif">
      #15 → #12
      <animate attributeName="opacity" values="0;1" dur="0.5s" begin="1.4s" fill="freeze"/>
    </text>
  </g>
  
  <!-- Timeline Charts (if we have snapshots) -->
  
  <!-- 👥 Followers Count Chart -->
  <g transform="translate(60, 250)">
    <!-- Chart Background -->
    <rect x="0" y="0" width="213.33333333333334" height="200" fill="#ffffff" stroke="#e2e8f0" stroke-width="1" rx="8" filter="url(#shadow)">
      <animate attributeName="opacity" values="0;1" dur="0.5s" begin="1.8s" fill="freeze"/>
    </rect>
    
    <!-- Chart Title -->
    <text x="106.66666666666667" y="25" text-anchor="middle" fill="#1e293b" font-size="14" font-weight="bold" font-family="Arial, sans-serif">
      👥 Followers Count
      <animate attributeName="opacity" values="0;1" dur="0.5s" begin="2s" fill="freeze"/>
    </text>
    
    <!-- Y-axis labels -->
    <text x="10" y="45" fill="#64748b" font-size="10" font-family="Arial, sans-serif">154
      <animate attributeName="opacity" values="0;1" dur="0.5s" begin="2.2s" fill="freeze"/>
    </text>
    <text x="10" y="185" fill="#64748b" font-size="10" font-family="Arial, sans-serif">150
      <animate attributeName="opacity" values="0;1" dur="0.5s" begin="2.2s" fill="freeze"/>
    </text>
    
    <!-- Chart Line with draw animation that follows the circle -->
    <path d="M 30,160 L 30.0299732333161,160 L 30.064944991494833,160 L 31.547858616603524,160 L 31.57432034141397,160 L 31.610152060859395,160 L 33.092940274950024,160 L 33.12294933998557,160 L 33.15623700735037,160 L 34.644328315918926,160 L 34.666185664780635,160 L 34.697215933820374,160 L 36.18790504204872,160 L 36.21280808706329,160 L 36.24493122354612,160 L 37.73873769136621,160 L 37.76811970131146,160 L 37.79375729657466,160 L 39.28550344052665,160 L 39.318325295538656,160 L 39.34123968012401,160 L 40.83544029685801,160 L 40.86432066273102,160 L 40.89757249837638,160 L 42.383872220972655,160 L 42.412053868316484,160 L 42.44607608592992,160 L 43.93088879216921,160 L 43.95654430329214,160 L 43.988559944616625,160 L 45.480216509269994,160 L 45.50820108215687,160 L 45.54064670411471,160 L 47.02425904775258,160 L 47.06186443731056,160 L 47.08363220687365,160 L 48.572422233971395,160 L 48.60171466461803,160 L 48.63086376838688,160 L 50.11621395041786,160 L 50.14853416135763,160 L 50.17555127781949,160 L 51.25559096534353,160 L 51.67075518269795,160 L 51.70287831918078,160 L 51.73672137819699,160 L 53.21850630414314,160 L 53.24659837218836,160 L 53.27949189063926,160 L 54.764537503054946,160 L 54.786197777459705,160 L 54.822531140977375,160 L 56.3145460228252,160 L 56.34159897100649,160 L 56.37305922067958,160 L 57.86256588216622,160 L 57.8950473358435,160 L 57.92851416180553,160 L 59.40861499693776,160 L 59.43627708434962,160 L 59.4727000271659,160 L 60.960862999173344,160 L 60.98445818642816,160 L 61.0135177108984,160 L 62.507485421455996,160 L 62.54098807913747,160 L 62.57235874951194,160 L 64.05451990851228,160 L 64.08467230042561,160 L 64.11853327530153,160 L 65.60026445366853,160 L 65.6296643794735,160 L 65.66280871996051,160 L 67.15141958846101,160 L 67.17890251727566,160 L 67.2070125011806,160 L 68.6975941142506,160 L 68.72538161268054,160 L 68.75877677520367,160 L 70.23662021201083,160 L 70.27341938788129,160 L 70.30428841418353,160 L 71.79263054478818,160 L 71.81436248263185,160 L 71.85343697268708,160 L 73.34240615838203,160 L 73.37506677065656,160 L 73.40948313718388,160 L 74.89254008917035,160 L 74.92242374318784,160 L 74.95408106731787,160 L 76.43129744903473,160 L 76.4637609868523,160 L 76.49613494537124,160 L 77.98401126362312,160 L 78.01439656171284,160 L 78.04911749785545,160 L 79.53242527187805,160 L 79.5603919289052,160 L 79.59126095520743,160 L 81.081484251083,160 L 81.10140668709464,160 L 81.15031698413765,160 L 82.62678089974617,160 L 82.6569332916595,160 L 82.6866736187992,160 L 84.1775777173442,160 L 84.21181492527433,160 L 84.24297060533212,160 L 85.72475553127828,160 L 85.75490792319161,160 L 85.78966469105366,160 L 87.2705717398734,160 L 87.30020457185478,160 L 87.3272037724569,160 L 88.8208489975395,160 L 88.8514672018056,160 L 88.8829991149176,160 L 90.37343740110981,160 L 90.40224610354394,160 L 90.43066065706415,160 L 91.91556294260207,160 L 91.9463603054654,70 L 91.97844761022878,70 L 93.46928004533493,70 L 93.49065366598411,70 L 93.52012525522798,70 L 95.01334049967723,70 L 95.03724025654732,70 L 95.07964709651098,70 L 96.56311611327108,70 L 96.5945942788039,70 L 96.62223845035604,70 L 98.10477584241055,70 L 98.13926387237677,70 L 98.17303526795408,70 L 99.66223735982544,70 L 99.67750167230919,70 L 99.71886939240893,70 L 101.20706819613582,70 L 101.23969297669089,70 L 101.2765459001405,70 L 102.7551238871963,70 L 102.78586750248047,70 L 102.82526447801072,70 L 104.3006713578956,70 L 104.33336780188954,70 L 104.3715106672392,70 L 105.85718333474519,70 L 105.89360627756146,70 L 107.39916554935965,70 L 107.47575584967426,70 L 108.9473466514382,70 L 108.98541785334895,70 L 109.02155414240967,70 L 110.49490069842643,70 L 110.53501430834558,70 L 110.56262264817829,70 L 112.04610958079809,70 L 112.07968390191846,70 L 112.11737887077504,70 L 113.5885934394848,70 L 113.62214984474545,70 L 113.6598985611812,70 L 115.13888861301062,70 L 115.17187171076014,70 L 115.20725553371248,70 L 116.69228323026846,70 L 116.7356216949377,70 L 118.27445071824098,70 L 118.31547803700599,70 L 119.79163738299923,70 L 119.8254625261557,70 L 121.34361664733896,70 L 121.3724253497731,70 L 121.41986654631884,70 L 122.87968662824495,70 L 122.91265181013473,70 L 122.94794605378848,70 L 124.42948015769852,70 L 124.46846506845513,70 L 124.50759330608955,70 L 125.97466931120337,70 L 126.00627288775424,70 L 126.04468449099971,70 L 127.52134548106517,70 L 127.55726677980923,70 L 127.60422424814246,70 L 129.06449222656164,70 L 129.10537621844884,70 L 129.14495235257635,70 L 130.6195709346334,70 L 130.6524644530843,70 L 130.69001609506313,70 L 132.16746538295638,70 L 132.20075305032117,70 L 132.23912882184723,70 L 133.71338908670984,70 L 133.7519798485526,70 L 133.79356255896897,70 L 135.2628780465481,70 L 135.2936037459726,70 L 135.33063582801944,70 L 136.81216993192947,70 L 136.83974244004276,70 L 136.87740157717988,70 L 138.3562303862718,70 L 138.3915783775047,70 L 138.4306170358405,70 L 139.90521770203782,70 L 139.9427335122972,70 L 139.9826321318997,70 L 141.4573044615359,70 L 141.48444698901582,70 L 141.52327065703494,70 L 143.00394479967832,70 L 143.04051106937237,70 L 143.07311793406768,70 L 144.54719904033308,70 L 144.5806658662951,70 L 144.61920288055867,70 L 146.0924419414171,70 L 146.13303927954877,70 L 146.17017885675395,70 L 147.64381206652627,70 L 147.6744481866521,70 L 147.7088466373197,70 L 149.19788748645357,70 L 149.23527788569487,70 L 149.27736224018352,70 L 150.74458157217512,70 L 150.77797673469826,70 L 150.8113718972214,70 L 152.2890182595716,70 L 152.3261040891976,70 L 152.3625807795931,70 L 153.83033758737633,70 L 153.870612440033,70 L 153.9089523798396,70 L 155.3770316730979,70 L 155.41728860989483,70 L 155.46146911997104,70 L 156.93943796779627,70 L 156.97145360912072,70 L 157.01285716093992,70 L 158.48349842213855,70 L 158.51116050955042,70 L 158.5462218470278,70 L 160.0270393165489,70 L 160.0636414179624,70 L 160.10076307930788,70 L 161.5757399785594,70 L 161.60770187230472,70 L 161.64903376068503,70 L 163.1233298572671,70 L 163.15548882546935,70 L 163.19357794323983,70 L 164.671743865522,70 L 164.70325786277425,70 L 164.73738757554602,70 L 166.21797213889076,40 L 166.24780204532908,40 L 167.7646662246123,40 L 167.8010891674286,40 L 167.8354876180962,40 L 169.31417310031034,40 L 169.33925530392213,40 L 169.38194879764134,40 L 170.87050591856269,40 L 170.90834421429705,40 L 172.4108757058021,40 L 172.4502905971921,40 L 172.5017449463157,40 L 173.96111713174875,40 L 173.99968997773175,40 L 174.02342849186437,40 L 175.51107190393984,40 L 175.5469394551047,40 L 175.58475983497937,40 L 177.05993380868784,40 L 177.09411726903878,40 L 177.132869273619,40 L 178.60619791377604,40 L 178.63692361320048,40 L 178.67555020676267,40 L 180.15398486694068,40 L 180.18648423647767,40 L 180.21841029850356,40 L 181.7013776711914,40 L 181.73849933253686,40 L 181.77956248302132,40 L 183.2523894791061,40 L 183.2888124219224,40 L 183.33333333333334,40" stroke="#22c55e" stroke-width="2" fill="none" stroke-dasharray="14700" stroke-dashoffset="14700">
      <animate attributeName="stroke-dashoffset" values="14700;0" dur="3s" begin="2.6s" fill="freeze"/>
    </path>
    
    <!-- Glow effect for the line that also follows the circle -->
    <path d="M 30,160 L 30.0299732333161,160 L 30.064944991494833,160 L 31.547858616603524,160 L 31.57432034141397,160 L 31.610152060859395,160 L 33.092940274950024,160 L 33.12294933998557,160 L 33.15623700735037,160 L 34.644328315918926,160 L 34.666185664780635,160 L 34.697215933820374,160 L 36.18790504204872,160 L 36.21280808706329,160 L 36.24493122354612,160 L 37.73873769136621,160 L 37.76811970131146,160 L 37.79375729657466,160 L 39.28550344052665,160 L 39.318325295538656,160 L 39.34123968012401,160 L 40.83544029685801,160 L 40.86432066273102,160 L 40.89757249837638,160 L 42.383872220972655,160 L 42.412053868316484,160 L 42.44607608592992,160 L 43.93088879216921,160 L 43.95654430329214,160 L 43.988559944616625,160 L 45.480216509269994,160 L 45.50820108215687,160 L 45.54064670411471,160 L 47.02425904775258,160 L 47.06186443731056,160 L 47.08363220687365,160 L 48.572422233971395,160 L 48.60171466461803,160 L 48.63086376838688,160 L 50.11621395041786,160 L 50.14853416135763,160 L 50.17555127781949,160 L 51.25559096534353,160 L 51.67075518269795,160 L 51.70287831918078,160 L 51.73672137819699,160 L 53.21850630414314,160 L 53.24659837218836,160 L 53.27949189063926,160 L 54.764537503054946,160 L 54.786197777459705,160 L 54.822531140977375,160 L 56.3145460228252,160 L 56.34159897100649,160 L 56.37305922067958,160 L 57.86256588216622,160 L 57.8950473358435,160 L 57.92851416180553,160 L 59.40861499693776,160 L 59.43627708434962,160 L 59.4727000271659,160 L 60.960862999173344,160 L 60.98445818642816,160 L 61.0135177108984,160 L 62.507485421455996,160 L 62.54098807913747,160 L 62.57235874951194,160 L 64.05451990851228,160 L 64.08467230042561,160 L 64.11853327530153,160 L 65.60026445366853,160 L 65.6296643794735,160 L 65.66280871996051,160 L 67.15141958846101,160 L 67.17890251727566,160 L 67.2070125011806,160 L 68.6975941142506,160 L 68.72538161268054,160 L 68.75877677520367,160 L 70.23662021201083,160 L 70.27341938788129,160 L 70.30428841418353,160 L 71.79263054478818,160 L 71.81436248263185,160 L 71.85343697268708,160 L 73.34240615838203,160 L 73.37506677065656,160 L 73.40948313718388,160 L 74.89254008917035,160 L 74.92242374318784,160 L 74.95408106731787,160 L 76.43129744903473,160 L 76.4637609868523,160 L 76.49613494537124,160 L 77.98401126362312,160 L 78.01439656171284,160 L 78.04911749785545,160 L 79.53242527187805,160 L 79.5603919289052,160 L 79.59126095520743,160 L 81.081484251083,160 L 81.10140668709464,160 L 81.15031698413765,160 L 82.62678089974617,160 L 82.6569332916595,160 L 82.6866736187992,160 L 84.1775777173442,160 L 84.21181492527433,160 L 84.24297060533212,160 L 85.72475553127828,160 L 85.75490792319161,160 L 85.78966469105366,160 L 87.2705717398734,160 L 87.30020457185478,160 L 87.3272037724569,160 L 88.8208489975395,160 L 88.8514672018056,160 L 88.8829991149176,160 L 90.37343740110981,160 L 90.40224610354394,160 L 90.43066065706415,160 L 91.91556294260207,160 L 91.9463603054654,70 L 91.97844761022878,70 L 93.46928004533493,70 L 93.49065366598411,70 L 93.52012525522798,70 L 95.01334049967723,70 L 95.03724025654732,70 L 95.07964709651098,70 L 96.56311611327108,70 L 96.5945942788039,70 L 96.62223845035604,70 L 98.10477584241055,70 L 98.13926387237677,70 L 98.17303526795408,70 L 99.66223735982544,70 L 99.67750167230919,70 L 99.71886939240893,70 L 101.20706819613582,70 L 101.23969297669089,70 L 101.2765459001405,70 L 102.7551238871963,70 L 102.78586750248047,70 L 102.82526447801072,70 L 104.3006713578956,70 L 104.33336780188954,70 L 104.3715106672392,70 L 105.85718333474519,70 L 105.89360627756146,70 L 107.39916554935965,70 L 107.47575584967426,70 L 108.9473466514382,70 L 108.98541785334895,70 L 109.02155414240967,70 L 110.49490069842643,70 L 110.53501430834558,70 L 110.56262264817829,70 L 112.04610958079809,70 L 112.07968390191846,70 L 112.11737887077504,70 L 113.5885934394848,70 L 113.62214984474545,70 L 113.6598985611812,70 L 115.13888861301062,70 L 115.17187171076014,70 L 115.20725553371248,70 L 116.69228323026846,70 L 116.7356216949377,70 L 118.27445071824098,70 L 118.31547803700599,70 L 119.79163738299923,70 L 119.8254625261557,70 L 121.34361664733896,70 L 121.3724253497731,70 L 121.41986654631884,70 L 122.87968662824495,70 L 122.91265181013473,70 L 122.94794605378848,70 L 124.42948015769852,70 L 124.46846506845513,70 L 124.50759330608955,70 L 125.97466931120337,70 L 126.00627288775424,70 L 126.04468449099971,70 L 127.52134548106517,70 L 127.55726677980923,70 L 127.60422424814246,70 L 129.06449222656164,70 L 129.10537621844884,70 L 129.14495235257635,70 L 130.6195709346334,70 L 130.6524644530843,70 L 130.69001609506313,70 L 132.16746538295638,70 L 132.20075305032117,70 L 132.23912882184723,70 L 133.71338908670984,70 L 133.7519798485526,70 L 133.79356255896897,70 L 135.2628780465481,70 L 135.2936037459726,70 L 135.33063582801944,70 L 136.81216993192947,70 L 136.83974244004276,70 L 136.87740157717988,70 L 138.3562303862718,70 L 138.3915783775047,70 L 138.4306170358405,70 L 139.90521770203782,70 L 139.9427335122972,70 L 139.9826321318997,70 L 141.4573044615359,70 L 141.48444698901582,70 L 141.52327065703494,70 L 143.00394479967832,70 L 143.04051106937237,70 L 143.07311793406768,70 L 144.54719904033308,70 L 144.5806658662951,70 L 144.61920288055867,70 L 146.0924419414171,70 L 146.13303927954877,70 L 146.17017885675395,70 L 147.64381206652627,70 L 147.6744481866521,70 L 147.7088466373197,70 L 149.19788748645357,70 L 149.23527788569487,70 L 149.27736224018352,70 L 150.74458157217512,70 L 150.77797673469826,70 L 150.8113718972214,70 L 152.2890182595716,70 L 152.3261040891976,70 L 152.3625807795931,70 L 153.83033758737633,70 L 153.870612440033,70 L 153.9089523798396,70 L 155.3770316730979,70 L 155.41728860989483,70 L 155.46146911997104,70 L 156.93943796779627,70 L 156.97145360912072,70 L 157.01285716093992,70 L 158.48349842213855,70 L 158.51116050955042,70 L 158.5462218470278,70 L 160.0270393165489,70 L 160.0636414179624,70 L 160.10076307930788,70 L 161.5757399785594,70 L 161.60770187230472,70 L 161.64903376068503,70 L 163.1233298572671,70 L 163.15548882546935,70 L 163.19357794323983,70 L 164.671743865522,70 L 164.70325786277425,70 L 164.73738757554602,70 L 166.21797213889076,40 L 166.24780204532908,40 L 167.7646662246123,40 L 167.8010891674286,40 L 167.8354876180962,40 L 169.31417310031034,40 L 169.33925530392213,40 L 169.38194879764134,40 L 170.87050591856269,40 L 170.90834421429705,40 L 172.4108757058021,40 L 172.4502905971921,40 L 172.5017449463157,40 L 173.96111713174875,40 L 173.99968997773175,40 L 174.02342849186437,40 L 175.51107190393984,40 L 175.5469394551047,40 L 175.58475983497937,40 L 177.05993380868784,40 L 177.09411726903878,40 L 177.132869273619,40 L 178.60619791377604,40 L 178.63692361320048,40 L 178.67555020676267,40 L 180.15398486694068,40 L 180.18648423647767,40 L 180.21841029850356,40 L 181.7013776711914,40 L 181.73849933253686,40 L 181.77956248302132,40 L 183.2523894791061,40 L 183.2888124219224,40 L 183.33333333333334,40" stroke="#22c55e" stroke-width="4" fill="none" opacity="0.4" stroke-dasharray="14700" stroke-dashoffset="14700">
      <animate attributeName="stroke-dashoffset" values="14700;0" dur="3s" begin="2.6s" fill="freeze"/>
    </path>
    
    <!-- Animated circle that moves along the path and draws the line -->
    <circle r="5" fill="#22c55e" opacity="0" filter="url(#trailGlow)">
      <animate attributeName="opacity" values="0;1;1;1" dur="3.2s" begin="2.4s" fill="freeze"/>
      <animate attributeName="r" values="5;6;5" dur="1s" begin="2.4s" repeatCount="3"/>
      <animateMotion dur="3s" begin="2.4s" fill="freeze">
        <mpath href="#path_followersCount_60"/>
      </animateMotion>
    </circle>
    
    <!-- Small trail dots that fade out -->
    <circle r="2" fill="#22c55e" opacity="0">
      <animate attributeName="opacity" values="0;0.6;0" dur="0.8s" begin="2.8s" fill="freeze"/>
      <animateMotion dur="3s" begin="2.4s" fill="freeze">
        <mpath href="#path_followersCount_60"/>
      </animateMotion>
    </circle>
    
    <!-- Hidden path for motion animation -->
    <path id="path_followersCount_60" d="M 30,160 L 30.0299732333161,160 L 30.064944991494833,160 L 31.547858616603524,160 L 31.57432034141397,160 L 31.610152060859395,160 L 33.092940274950024,160 L 33.12294933998557,160 L 33.15623700735037,160 L 34.644328315918926,160 L 34.666185664780635,160 L 34.697215933820374,160 L 36.18790504204872,160 L 36.21280808706329,160 L 36.24493122354612,160 L 37.73873769136621,160 L 37.76811970131146,160 L 37.79375729657466,160 L 39.28550344052665,160 L 39.318325295538656,160 L 39.34123968012401,160 L 40.83544029685801,160 L 40.86432066273102,160 L 40.89757249837638,160 L 42.383872220972655,160 L 42.412053868316484,160 L 42.44607608592992,160 L 43.93088879216921,160 L 43.95654430329214,160 L 43.988559944616625,160 L 45.480216509269994,160 L 45.50820108215687,160 L 45.54064670411471,160 L 47.02425904775258,160 L 47.06186443731056,160 L 47.08363220687365,160 L 48.572422233971395,160 L 48.60171466461803,160 L 48.63086376838688,160 L 50.11621395041786,160 L 50.14853416135763,160 L 50.17555127781949,160 L 51.25559096534353,160 L 51.67075518269795,160 L 51.70287831918078,160 L 51.73672137819699,160 L 53.21850630414314,160 L 53.24659837218836,160 L 53.27949189063926,160 L 54.764537503054946,160 L 54.786197777459705,160 L 54.822531140977375,160 L 56.3145460228252,160 L 56.34159897100649,160 L 56.37305922067958,160 L 57.86256588216622,160 L 57.8950473358435,160 L 57.92851416180553,160 L 59.40861499693776,160 L 59.43627708434962,160 L 59.4727000271659,160 L 60.960862999173344,160 L 60.98445818642816,160 L 61.0135177108984,160 L 62.507485421455996,160 L 62.54098807913747,160 L 62.57235874951194,160 L 64.05451990851228,160 L 64.08467230042561,160 L 64.11853327530153,160 L 65.60026445366853,160 L 65.6296643794735,160 L 65.66280871996051,160 L 67.15141958846101,160 L 67.17890251727566,160 L 67.2070125011806,160 L 68.6975941142506,160 L 68.72538161268054,160 L 68.75877677520367,160 L 70.23662021201083,160 L 70.27341938788129,160 L 70.30428841418353,160 L 71.79263054478818,160 L 71.81436248263185,160 L 71.85343697268708,160 L 73.34240615838203,160 L 73.37506677065656,160 L 73.40948313718388,160 L 74.89254008917035,160 L 74.92242374318784,160 L 74.95408106731787,160 L 76.43129744903473,160 L 76.4637609868523,160 L 76.49613494537124,160 L 77.98401126362312,160 L 78.01439656171284,160 L 78.04911749785545,160 L 79.53242527187805,160 L 79.5603919289052,160 L 79.59126095520743,160 L 81.081484251083,160 L 81.10140668709464,160 L 81.15031698413765,160 L 82.62678089974617,160 L 82.6569332916595,160 L 82.6866736187992,160 L 84.1775777173442,160 L 84.21181492527433,160 L 84.24297060533212,160 L 85.72475553127828,160 L 85.75490792319161,160 L 85.78966469105366,160 L 87.2705717398734,160 L 87.30020457185478,160 L 87.3272037724569,160 L 88.8208489975395,160 L 88.8514672018056,160 L 88.8829991149176,160 L 90.37343740110981,160 L 90.40224610354394,160 L 90.43066065706415,160 L 91.91556294260207,160 L 91.9463603054654,70 L 91.97844761022878,70 L 93.46928004533493,70 L 93.49065366598411,70 L 93.52012525522798,70 L 95.01334049967723,70 L 95.03724025654732,70 L 95.07964709651098,70 L 96.56311611327108,70 L 96.5945942788039,70 L 96.62223845035604,70 L 98.10477584241055,70 L 98.13926387237677,70 L 98.17303526795408,70 L 99.66223735982544,70 L 99.67750167230919,70 L 99.71886939240893,70 L 101.20706819613582,70 L 101.23969297669089,70 L 101.2765459001405,70 L 102.7551238871963,70 L 102.78586750248047,70 L 102.82526447801072,70 L 104.3006713578956,70 L 104.33336780188954,70 L 104.3715106672392,70 L 105.85718333474519,70 L 105.89360627756146,70 L 107.39916554935965,70 L 107.47575584967426,70 L 108.9473466514382,70 L 108.98541785334895,70 L 109.02155414240967,70 L 110.49490069842643,70 L 110.53501430834558,70 L 110.56262264817829,70 L 112.04610958079809,70 L 112.07968390191846,70 L 112.11737887077504,70 L 113.5885934394848,70 L 113.62214984474545,70 L 113.6598985611812,70 L 115.13888861301062,70 L 115.17187171076014,70 L 115.20725553371248,70 L 116.69228323026846,70 L 116.7356216949377,70 L 118.27445071824098,70 L 118.31547803700599,70 L 119.79163738299923,70 L 119.8254625261557,70 L 121.34361664733896,70 L 121.3724253497731,70 L 121.41986654631884,70 L 122.87968662824495,70 L 122.91265181013473,70 L 122.94794605378848,70 L 124.42948015769852,70 L 124.46846506845513,70 L 124.50759330608955,70 L 125.97466931120337,70 L 126.00627288775424,70 L 126.04468449099971,70 L 127.52134548106517,70 L 127.55726677980923,70 L 127.60422424814246,70 L 129.06449222656164,70 L 129.10537621844884,70 L 129.14495235257635,70 L 130.6195709346334,70 L 130.6524644530843,70 L 130.69001609506313,70 L 132.16746538295638,70 L 132.20075305032117,70 L 132.23912882184723,70 L 133.71338908670984,70 L 133.7519798485526,70 L 133.79356255896897,70 L 135.2628780465481,70 L 135.2936037459726,70 L 135.33063582801944,70 L 136.81216993192947,70 L 136.83974244004276,70 L 136.87740157717988,70 L 138.3562303862718,70 L 138.3915783775047,70 L 138.4306170358405,70 L 139.90521770203782,70 L 139.9427335122972,70 L 139.9826321318997,70 L 141.4573044615359,70 L 141.48444698901582,70 L 141.52327065703494,70 L 143.00394479967832,70 L 143.04051106937237,70 L 143.07311793406768,70 L 144.54719904033308,70 L 144.5806658662951,70 L 144.61920288055867,70 L 146.0924419414171,70 L 146.13303927954877,70 L 146.17017885675395,70 L 147.64381206652627,70 L 147.6744481866521,70 L 147.7088466373197,70 L 149.19788748645357,70 L 149.23527788569487,70 L 149.27736224018352,70 L 150.74458157217512,70 L 150.77797673469826,70 L 150.8113718972214,70 L 152.2890182595716,70 L 152.3261040891976,70 L 152.3625807795931,70 L 153.83033758737633,70 L 153.870612440033,70 L 153.9089523798396,70 L 155.3770316730979,70 L 155.41728860989483,70 L 155.46146911997104,70 L 156.93943796779627,70 L 156.97145360912072,70 L 157.01285716093992,70 L 158.48349842213855,70 L 158.51116050955042,70 L 158.5462218470278,70 L 160.0270393165489,70 L 160.0636414179624,70 L 160.10076307930788,70 L 161.5757399785594,70 L 161.60770187230472,70 L 161.64903376068503,70 L 163.1233298572671,70 L 163.15548882546935,70 L 163.19357794323983,70 L 164.671743865522,70 L 164.70325786277425,70 L 164.73738757554602,70 L 166.21797213889076,40 L 166.24780204532908,40 L 167.7646662246123,40 L 167.8010891674286,40 L 167.8354876180962,40 L 169.31417310031034,40 L 169.33925530392213,40 L 169.38194879764134,40 L 170.87050591856269,40 L 170.90834421429705,40 L 172.4108757058021,40 L 172.4502905971921,40 L 172.5017449463157,40 L 173.96111713174875,40 L 173.99968997773175,40 L 174.02342849186437,40 L 175.51107190393984,40 L 175.5469394551047,40 L 175.58475983497937,40 L 177.05993380868784,40 L 177.09411726903878,40 L 177.132869273619,40 L 178.60619791377604,40 L 178.63692361320048,40 L 178.67555020676267,40 L 180.15398486694068,40 L 180.18648423647767,40 L 180.21841029850356,40 L 181.7013776711914,40 L 181.73849933253686,40 L 181.77956248302132,40 L 183.2523894791061,40 L 183.2888124219224,40 L 183.33333333333334,40" fill="none" stroke="none"/>
  </g>
  <!-- 🔓 Public Contributions Chart -->
  <g transform="translate(293.33333333333337, 250)">
    <!-- Chart Background -->
    <rect x="0" y="0" width="213.33333333333334" height="200" fill="#ffffff" stroke="#e2e8f0" stroke-width="1" rx="8" filter="url(#shadow)">
      <animate attributeName="opacity" values="0;1" dur="0.5s" begin="2.3s" fill="freeze"/>
    </rect>
    
    <!-- Chart Title -->
    <text x="106.66666666666667" y="25" text-anchor="middle" fill="#1e293b" font-size="14" font-weight="bold" font-family="Arial, sans-serif">
      🔓 Public Contributions
      <animate attributeName="opacity" values="0;1" dur="0.5s" begin="2.5s" fill="freeze"/>
    </text>
    
    <!-- Y-axis labels -->
    <text x="10" y="45" fill="#64748b" font-size="10" font-family="Arial, sans-serif">3,861
      <animate attributeName="opacity" values="0;1" dur="0.5s" begin="2.6999999999999997s" fill="freeze"/>
    </text>
    <text x="10" y="185" fill="#64748b" font-size="10" font-family="Arial, sans-serif">3,434
      <animate attributeName="opacity" values="0;1" dur="0.5s" begin="2.6999999999999997s" fill="freeze"/>
    </text>
    
    <!-- Chart Line with draw animation that follows the circle -->
    <path d="M 30,160 L 30.0299732333161,160 L 30.064944991494833,160 L 31.547858616603524,160 L 31.57432034141397,160 L 31.610152060859395,160 L 33.092940274950024,160 L 33.12294933998557,160 L 33.15623700735037,160 L 34.644328315918926,160 L 34.666185664780635,160 L 34.697215933820374,160 L 36.18790504204872,160 L 36.21280808706329,160 L 36.24493122354612,160 L 37.73873769136621,160 L 37.76811970131146,160 L 37.79375729657466,160 L 39.28550344052665,160 L 39.318325295538656,160 L 39.34123968012401,160 L 40.83544029685801,160 L 40.86432066273102,160 L 40.89757249837638,160 L 42.383872220972655,160 L 42.412053868316484,160 L 42.44607608592992,160 L 43.93088879216921,160 L 43.95654430329214,160 L 43.988559944616625,160 L 45.480216509269994,160 L 45.50820108215687,160 L 45.54064670411471,160 L 47.02425904775258,160 L 47.06186443731056,160 L 47.08363220687365,160 L 48.572422233971395,160 L 48.60171466461803,160 L 48.63086376838688,160 L 50.11621395041786,160 L 50.14853416135763,160 L 50.17555127781949,160 L 51.25559096534353,160 L 51.67075518269795,160 L 51.70287831918078,160 L 51.73672137819699,160 L 53.21850630414314,160 L 53.24659837218836,160 L 53.27949189063926,160 L 54.764537503054946,160 L 54.786197777459705,160 L 54.822531140977375,160 L 56.3145460228252,160 L 56.34159897100649,160 L 56.37305922067958,160 L 57.86256588216622,160 L 57.8950473358435,160 L 57.92851416180553,160 L 59.40861499693776,160 L 59.43627708434962,160 L 59.4727000271659,160 L 60.960862999173344,160 L 60.98445818642816,160 L 61.0135177108984,160 L 62.507485421455996,160 L 62.54098807913747,160 L 62.57235874951194,160 L 64.05451990851228,160 L 64.08467230042561,160 L 64.11853327530153,160 L 65.60026445366853,160 L 65.6296643794735,160 L 65.66280871996051,160 L 67.15141958846101,160 L 67.17890251727566,160 L 67.2070125011806,160 L 68.6975941142506,160 L 68.72538161268054,160 L 68.75877677520367,160 L 70.23662021201083,160 L 70.27341938788129,160 L 70.30428841418353,160 L 71.79263054478818,160 L 71.81436248263185,160 L 71.85343697268708,160 L 73.34240615838203,160 L 73.37506677065656,160 L 73.40948313718388,160 L 74.89254008917035,160 L 74.92242374318784,160 L 74.95408106731787,160 L 76.43129744903473,160 L 76.4637609868523,160 L 76.49613494537124,160 L 77.98401126362312,160 L 78.01439656171284,160 L 78.04911749785545,160 L 79.53242527187805,160 L 79.5603919289052,160 L 79.59126095520743,160 L 81.081484251083,160 L 81.10140668709464,160 L 81.15031698413765,160 L 82.62678089974617,160 L 82.6569332916595,160 L 82.6866736187992,160 L 84.1775777173442,160 L 84.21181492527433,160 L 84.24297060533212,160 L 85.72475553127828,160 L 85.75490792319161,160 L 85.78966469105366,160 L 87.2705717398734,160 L 87.30020457185478,160 L 87.3272037724569,160 L 88.8208489975395,160 L 88.8514672018056,160 L 88.8829991149176,160 L 90.37343740110981,160 L 90.40224610354394,160 L 90.43066065706415,160 L 91.91556294260207,160 L 91.9463603054654,40 L 91.97844761022878,40 L 93.46928004533493,40 L 93.49065366598411,40 L 93.52012525522798,40 L 95.01334049967723,40 L 95.03724025654732,40 L 95.07964709651098,40 L 96.56311611327108,40 L 96.5945942788039,40 L 96.62223845035604,40 L 98.10477584241055,40 L 98.13926387237677,40 L 98.17303526795408,40 L 99.66223735982544,40 L 99.67750167230919,40 L 99.71886939240893,40 L 101.20706819613582,40 L 101.23969297669089,40 L 101.2765459001405,40 L 102.7551238871963,40 L 102.78586750248047,40 L 102.82526447801072,40 L 104.3006713578956,40 L 104.33336780188954,40 L 104.3715106672392,40 L 105.85718333474519,40 L 105.89360627756146,40 L 107.39916554935965,40 L 107.47575584967426,40 L 108.9473466514382,40 L 108.98541785334895,40 L 109.02155414240967,40 L 110.49490069842643,40 L 110.53501430834558,40 L 110.56262264817829,40 L 112.04610958079809,40 L 112.07968390191846,40 L 112.11737887077504,40 L 113.5885934394848,40 L 113.62214984474545,40 L 113.6598985611812,40 L 115.13888861301062,40 L 115.17187171076014,40 L 115.20725553371248,40 L 116.69228323026846,40 L 116.7356216949377,40 L 118.27445071824098,40 L 118.31547803700599,40 L 119.79163738299923,40 L 119.8254625261557,40 L 121.34361664733896,40 L 121.3724253497731,40 L 121.41986654631884,40 L 122.87968662824495,40 L 122.91265181013473,40 L 122.94794605378848,40 L 124.42948015769852,40 L 124.46846506845513,40 L 124.50759330608955,40 L 125.97466931120337,40 L 126.00627288775424,40 L 126.04468449099971,40 L 127.52134548106517,40 L 127.55726677980923,40 L 127.60422424814246,40 L 129.06449222656164,40 L 129.10537621844884,40 L 129.14495235257635,40 L 130.6195709346334,40 L 130.6524644530843,40 L 130.69001609506313,40 L 132.16746538295638,40 L 132.20075305032117,40 L 132.23912882184723,40 L 133.71338908670984,40 L 133.7519798485526,40 L 133.79356255896897,40 L 135.2628780465481,40 L 135.2936037459726,40 L 135.33063582801944,40 L 136.81216993192947,40 L 136.83974244004276,40 L 136.87740157717988,40 L 138.3562303862718,40 L 138.3915783775047,40 L 138.4306170358405,40 L 139.90521770203782,40 L 139.9427335122972,40 L 139.9826321318997,40 L 141.4573044615359,40 L 141.48444698901582,40 L 141.52327065703494,40 L 143.00394479967832,40 L 143.04051106937237,40 L 143.07311793406768,40 L 144.54719904033308,40 L 144.5806658662951,40 L 144.61920288055867,40 L 146.0924419414171,40 L 146.13303927954877,40 L 146.17017885675395,40 L 147.64381206652627,40 L 147.6744481866521,40 L 147.7088466373197,40 L 149.19788748645357,40 L 149.23527788569487,40 L 149.27736224018352,40 L 150.74458157217512,40 L 150.77797673469826,40 L 150.8113718972214,40 L 152.2890182595716,40 L 152.3261040891976,40 L 152.3625807795931,40 L 153.83033758737633,40 L 153.870612440033,40 L 153.9089523798396,40 L 155.3770316730979,40 L 155.41728860989483,40 L 155.46146911997104,40 L 156.93943796779627,40 L 156.97145360912072,40 L 157.01285716093992,40 L 158.48349842213855,40 L 158.51116050955042,40 L 158.5462218470278,40 L 160.0270393165489,40 L 160.0636414179624,40 L 160.10076307930788,40 L 161.5757399785594,40 L 161.60770187230472,40 L 161.64903376068503,40 L 163.1233298572671,40 L 163.15548882546935,40 L 163.19357794323983,40 L 164.671743865522,40 L 164.70325786277425,40 L 164.73738757554602,40 L 166.21797213889076,66.4168618266979 L 166.24780204532908,66.4168618266979 L 167.7646662246123,66.4168618266979 L 167.8010891674286,66.4168618266979 L 167.8354876180962,66.4168618266979 L 169.31417310031034,66.4168618266979 L 169.33925530392213,66.4168618266979 L 169.38194879764134,66.4168618266979 L 170.87050591856269,66.4168618266979 L 170.90834421429705,66.4168618266979 L 172.4108757058021,66.4168618266979 L 172.4502905971921,66.4168618266979 L 172.5017449463157,66.4168618266979 L 173.96111713174875,66.4168618266979 L 173.99968997773175,66.4168618266979 L 174.02342849186437,66.4168618266979 L 175.51107190393984,66.4168618266979 L 175.5469394551047,66.4168618266979 L 175.58475983497937,66.4168618266979 L 177.05993380868784,66.4168618266979 L 177.09411726903878,66.4168618266979 L 177.132869273619,66.4168618266979 L 178.60619791377604,66.4168618266979 L 178.63692361320048,66.4168618266979 L 178.67555020676267,66.4168618266979 L 180.15398486694068,66.4168618266979 L 180.18648423647767,66.4168618266979 L 180.21841029850356,66.4168618266979 L 181.7013776711914,66.4168618266979 L 181.73849933253686,66.4168618266979 L 181.77956248302132,66.4168618266979 L 183.2523894791061,66.4168618266979 L 183.2888124219224,66.4168618266979 L 183.33333333333334,66.4168618266979" stroke="#3b82f6" stroke-width="2" fill="none" stroke-dasharray="14700" stroke-dashoffset="14700">
      <animate attributeName="stroke-dashoffset" values="14700;0" dur="3s" begin="3.0999999999999996s" fill="freeze"/>
    </path>
    
    <!-- Glow effect for the line that also follows the circle -->
    <path d="M 30,160 L 30.0299732333161,160 L 30.064944991494833,160 L 31.547858616603524,160 L 31.57432034141397,160 L 31.610152060859395,160 L 33.092940274950024,160 L 33.12294933998557,160 L 33.15623700735037,160 L 34.644328315918926,160 L 34.666185664780635,160 L 34.697215933820374,160 L 36.18790504204872,160 L 36.21280808706329,160 L 36.24493122354612,160 L 37.73873769136621,160 L 37.76811970131146,160 L 37.79375729657466,160 L 39.28550344052665,160 L 39.318325295538656,160 L 39.34123968012401,160 L 40.83544029685801,160 L 40.86432066273102,160 L 40.89757249837638,160 L 42.383872220972655,160 L 42.412053868316484,160 L 42.44607608592992,160 L 43.93088879216921,160 L 43.95654430329214,160 L 43.988559944616625,160 L 45.480216509269994,160 L 45.50820108215687,160 L 45.54064670411471,160 L 47.02425904775258,160 L 47.06186443731056,160 L 47.08363220687365,160 L 48.572422233971395,160 L 48.60171466461803,160 L 48.63086376838688,160 L 50.11621395041786,160 L 50.14853416135763,160 L 50.17555127781949,160 L 51.25559096534353,160 L 51.67075518269795,160 L 51.70287831918078,160 L 51.73672137819699,160 L 53.21850630414314,160 L 53.24659837218836,160 L 53.27949189063926,160 L 54.764537503054946,160 L 54.786197777459705,160 L 54.822531140977375,160 L 56.3145460228252,160 L 56.34159897100649,160 L 56.37305922067958,160 L 57.86256588216622,160 L 57.8950473358435,160 L 57.92851416180553,160 L 59.40861499693776,160 L 59.43627708434962,160 L 59.4727000271659,160 L 60.960862999173344,160 L 60.98445818642816,160 L 61.0135177108984,160 L 62.507485421455996,160 L 62.54098807913747,160 L 62.57235874951194,160 L 64.05451990851228,160 L 64.08467230042561,160 L 64.11853327530153,160 L 65.60026445366853,160 L 65.6296643794735,160 L 65.66280871996051,160 L 67.15141958846101,160 L 67.17890251727566,160 L 67.2070125011806,160 L 68.6975941142506,160 L 68.72538161268054,160 L 68.75877677520367,160 L 70.23662021201083,160 L 70.27341938788129,160 L 70.30428841418353,160 L 71.79263054478818,160 L 71.81436248263185,160 L 71.85343697268708,160 L 73.34240615838203,160 L 73.37506677065656,160 L 73.40948313718388,160 L 74.89254008917035,160 L 74.92242374318784,160 L 74.95408106731787,160 L 76.43129744903473,160 L 76.4637609868523,160 L 76.49613494537124,160 L 77.98401126362312,160 L 78.01439656171284,160 L 78.04911749785545,160 L 79.53242527187805,160 L 79.5603919289052,160 L 79.59126095520743,160 L 81.081484251083,160 L 81.10140668709464,160 L 81.15031698413765,160 L 82.62678089974617,160 L 82.6569332916595,160 L 82.6866736187992,160 L 84.1775777173442,160 L 84.21181492527433,160 L 84.24297060533212,160 L 85.72475553127828,160 L 85.75490792319161,160 L 85.78966469105366,160 L 87.2705717398734,160 L 87.30020457185478,160 L 87.3272037724569,160 L 88.8208489975395,160 L 88.8514672018056,160 L 88.8829991149176,160 L 90.37343740110981,160 L 90.40224610354394,160 L 90.43066065706415,160 L 91.91556294260207,160 L 91.9463603054654,40 L 91.97844761022878,40 L 93.46928004533493,40 L 93.49065366598411,40 L 93.52012525522798,40 L 95.01334049967723,40 L 95.03724025654732,40 L 95.07964709651098,40 L 96.56311611327108,40 L 96.5945942788039,40 L 96.62223845035604,40 L 98.10477584241055,40 L 98.13926387237677,40 L 98.17303526795408,40 L 99.66223735982544,40 L 99.67750167230919,40 L 99.71886939240893,40 L 101.20706819613582,40 L 101.23969297669089,40 L 101.2765459001405,40 L 102.7551238871963,40 L 102.78586750248047,40 L 102.82526447801072,40 L 104.3006713578956,40 L 104.33336780188954,40 L 104.3715106672392,40 L 105.85718333474519,40 L 105.89360627756146,40 L 107.39916554935965,40 L 107.47575584967426,40 L 108.9473466514382,40 L 108.98541785334895,40 L 109.02155414240967,40 L 110.49490069842643,40 L 110.53501430834558,40 L 110.56262264817829,40 L 112.04610958079809,40 L 112.07968390191846,40 L 112.11737887077504,40 L 113.5885934394848,40 L 113.62214984474545,40 L 113.6598985611812,40 L 115.13888861301062,40 L 115.17187171076014,40 L 115.20725553371248,40 L 116.69228323026846,40 L 116.7356216949377,40 L 118.27445071824098,40 L 118.31547803700599,40 L 119.79163738299923,40 L 119.8254625261557,40 L 121.34361664733896,40 L 121.3724253497731,40 L 121.41986654631884,40 L 122.87968662824495,40 L 122.91265181013473,40 L 122.94794605378848,40 L 124.42948015769852,40 L 124.46846506845513,40 L 124.50759330608955,40 L 125.97466931120337,40 L 126.00627288775424,40 L 126.04468449099971,40 L 127.52134548106517,40 L 127.55726677980923,40 L 127.60422424814246,40 L 129.06449222656164,40 L 129.10537621844884,40 L 129.14495235257635,40 L 130.6195709346334,40 L 130.6524644530843,40 L 130.69001609506313,40 L 132.16746538295638,40 L 132.20075305032117,40 L 132.23912882184723,40 L 133.71338908670984,40 L 133.7519798485526,40 L 133.79356255896897,40 L 135.2628780465481,40 L 135.2936037459726,40 L 135.33063582801944,40 L 136.81216993192947,40 L 136.83974244004276,40 L 136.87740157717988,40 L 138.3562303862718,40 L 138.3915783775047,40 L 138.4306170358405,40 L 139.90521770203782,40 L 139.9427335122972,40 L 139.9826321318997,40 L 141.4573044615359,40 L 141.48444698901582,40 L 141.52327065703494,40 L 143.00394479967832,40 L 143.04051106937237,40 L 143.07311793406768,40 L 144.54719904033308,40 L 144.5806658662951,40 L 144.61920288055867,40 L 146.0924419414171,40 L 146.13303927954877,40 L 146.17017885675395,40 L 147.64381206652627,40 L 147.6744481866521,40 L 147.7088466373197,40 L 149.19788748645357,40 L 149.23527788569487,40 L 149.27736224018352,40 L 150.74458157217512,40 L 150.77797673469826,40 L 150.8113718972214,40 L 152.2890182595716,40 L 152.3261040891976,40 L 152.3625807795931,40 L 153.83033758737633,40 L 153.870612440033,40 L 153.9089523798396,40 L 155.3770316730979,40 L 155.41728860989483,40 L 155.46146911997104,40 L 156.93943796779627,40 L 156.97145360912072,40 L 157.01285716093992,40 L 158.48349842213855,40 L 158.51116050955042,40 L 158.5462218470278,40 L 160.0270393165489,40 L 160.0636414179624,40 L 160.10076307930788,40 L 161.5757399785594,40 L 161.60770187230472,40 L 161.64903376068503,40 L 163.1233298572671,40 L 163.15548882546935,40 L 163.19357794323983,40 L 164.671743865522,40 L 164.70325786277425,40 L 164.73738757554602,40 L 166.21797213889076,66.4168618266979 L 166.24780204532908,66.4168618266979 L 167.7646662246123,66.4168618266979 L 167.8010891674286,66.4168618266979 L 167.8354876180962,66.4168618266979 L 169.31417310031034,66.4168618266979 L 169.33925530392213,66.4168618266979 L 169.38194879764134,66.4168618266979 L 170.87050591856269,66.4168618266979 L 170.90834421429705,66.4168618266979 L 172.4108757058021,66.4168618266979 L 172.4502905971921,66.4168618266979 L 172.5017449463157,66.4168618266979 L 173.96111713174875,66.4168618266979 L 173.99968997773175,66.4168618266979 L 174.02342849186437,66.4168618266979 L 175.51107190393984,66.4168618266979 L 175.5469394551047,66.4168618266979 L 175.58475983497937,66.4168618266979 L 177.05993380868784,66.4168618266979 L 177.09411726903878,66.4168618266979 L 177.132869273619,66.4168618266979 L 178.60619791377604,66.4168618266979 L 178.63692361320048,66.4168618266979 L 178.67555020676267,66.4168618266979 L 180.15398486694068,66.4168618266979 L 180.18648423647767,66.4168618266979 L 180.21841029850356,66.4168618266979 L 181.7013776711914,66.4168618266979 L 181.73849933253686,66.4168618266979 L 181.77956248302132,66.4168618266979 L 183.2523894791061,66.4168618266979 L 183.2888124219224,66.4168618266979 L 183.33333333333334,66.4168618266979" stroke="#3b82f6" stroke-width="4" fill="none" opacity="0.4" stroke-dasharray="14700" stroke-dashoffset="14700">
      <animate attributeName="stroke-dashoffset" values="14700;0" dur="3s" begin="3.0999999999999996s" fill="freeze"/>
    </path>
    
    <!-- Animated circle that moves along the path and draws the line -->
    <circle r="5" fill="#3b82f6" opacity="0" filter="url(#trailGlow)">
      <animate attributeName="opacity" values="0;1;1;1" dur="3.2s" begin="2.9s" fill="freeze"/>
      <animate attributeName="r" values="5;6;5" dur="1s" begin="2.9s" repeatCount="3"/>
      <animateMotion dur="3s" begin="2.9s" fill="freeze">
        <mpath href="#path_publicContributions_293.33333333333337"/>
      </animateMotion>
    </circle>
    
    <!-- Small trail dots that fade out -->
    <circle r="2" fill="#3b82f6" opacity="0">
      <animate attributeName="opacity" values="0;0.6;0" dur="0.8s" begin="3.3s" fill="freeze"/>
      <animateMotion dur="3s" begin="2.9s" fill="freeze">
        <mpath href="#path_publicContributions_293.33333333333337"/>
      </animateMotion>
    </circle>
    
    <!-- Hidden path for motion animation -->
    <path id="path_publicContributions_293.33333333333337" d="M 30,160 L 30.0299732333161,160 L 30.064944991494833,160 L 31.547858616603524,160 L 31.57432034141397,160 L 31.610152060859395,160 L 33.092940274950024,160 L 33.12294933998557,160 L 33.15623700735037,160 L 34.644328315918926,160 L 34.666185664780635,160 L 34.697215933820374,160 L 36.18790504204872,160 L 36.21280808706329,160 L 36.24493122354612,160 L 37.73873769136621,160 L 37.76811970131146,160 L 37.79375729657466,160 L 39.28550344052665,160 L 39.318325295538656,160 L 39.34123968012401,160 L 40.83544029685801,160 L 40.86432066273102,160 L 40.89757249837638,160 L 42.383872220972655,160 L 42.412053868316484,160 L 42.44607608592992,160 L 43.93088879216921,160 L 43.95654430329214,160 L 43.988559944616625,160 L 45.480216509269994,160 L 45.50820108215687,160 L 45.54064670411471,160 L 47.02425904775258,160 L 47.06186443731056,160 L 47.08363220687365,160 L 48.572422233971395,160 L 48.60171466461803,160 L 48.63086376838688,160 L 50.11621395041786,160 L 50.14853416135763,160 L 50.17555127781949,160 L 51.25559096534353,160 L 51.67075518269795,160 L 51.70287831918078,160 L 51.73672137819699,160 L 53.21850630414314,160 L 53.24659837218836,160 L 53.27949189063926,160 L 54.764537503054946,160 L 54.786197777459705,160 L 54.822531140977375,160 L 56.3145460228252,160 L 56.34159897100649,160 L 56.37305922067958,160 L 57.86256588216622,160 L 57.8950473358435,160 L 57.92851416180553,160 L 59.40861499693776,160 L 59.43627708434962,160 L 59.4727000271659,160 L 60.960862999173344,160 L 60.98445818642816,160 L 61.0135177108984,160 L 62.507485421455996,160 L 62.54098807913747,160 L 62.57235874951194,160 L 64.05451990851228,160 L 64.08467230042561,160 L 64.11853327530153,160 L 65.60026445366853,160 L 65.6296643794735,160 L 65.66280871996051,160 L 67.15141958846101,160 L 67.17890251727566,160 L 67.2070125011806,160 L 68.6975941142506,160 L 68.72538161268054,160 L 68.75877677520367,160 L 70.23662021201083,160 L 70.27341938788129,160 L 70.30428841418353,160 L 71.79263054478818,160 L 71.81436248263185,160 L 71.85343697268708,160 L 73.34240615838203,160 L 73.37506677065656,160 L 73.40948313718388,160 L 74.89254008917035,160 L 74.92242374318784,160 L 74.95408106731787,160 L 76.43129744903473,160 L 76.4637609868523,160 L 76.49613494537124,160 L 77.98401126362312,160 L 78.01439656171284,160 L 78.04911749785545,160 L 79.53242527187805,160 L 79.5603919289052,160 L 79.59126095520743,160 L 81.081484251083,160 L 81.10140668709464,160 L 81.15031698413765,160 L 82.62678089974617,160 L 82.6569332916595,160 L 82.6866736187992,160 L 84.1775777173442,160 L 84.21181492527433,160 L 84.24297060533212,160 L 85.72475553127828,160 L 85.75490792319161,160 L 85.78966469105366,160 L 87.2705717398734,160 L 87.30020457185478,160 L 87.3272037724569,160 L 88.8208489975395,160 L 88.8514672018056,160 L 88.8829991149176,160 L 90.37343740110981,160 L 90.40224610354394,160 L 90.43066065706415,160 L 91.91556294260207,160 L 91.9463603054654,40 L 91.97844761022878,40 L 93.46928004533493,40 L 93.49065366598411,40 L 93.52012525522798,40 L 95.01334049967723,40 L 95.03724025654732,40 L 95.07964709651098,40 L 96.56311611327108,40 L 96.5945942788039,40 L 96.62223845035604,40 L 98.10477584241055,40 L 98.13926387237677,40 L 98.17303526795408,40 L 99.66223735982544,40 L 99.67750167230919,40 L 99.71886939240893,40 L 101.20706819613582,40 L 101.23969297669089,40 L 101.2765459001405,40 L 102.7551238871963,40 L 102.78586750248047,40 L 102.82526447801072,40 L 104.3006713578956,40 L 104.33336780188954,40 L 104.3715106672392,40 L 105.85718333474519,40 L 105.89360627756146,40 L 107.39916554935965,40 L 107.47575584967426,40 L 108.9473466514382,40 L 108.98541785334895,40 L 109.02155414240967,40 L 110.49490069842643,40 L 110.53501430834558,40 L 110.56262264817829,40 L 112.04610958079809,40 L 112.07968390191846,40 L 112.11737887077504,40 L 113.5885934394848,40 L 113.62214984474545,40 L 113.6598985611812,40 L 115.13888861301062,40 L 115.17187171076014,40 L 115.20725553371248,40 L 116.69228323026846,40 L 116.7356216949377,40 L 118.27445071824098,40 L 118.31547803700599,40 L 119.79163738299923,40 L 119.8254625261557,40 L 121.34361664733896,40 L 121.3724253497731,40 L 121.41986654631884,40 L 122.87968662824495,40 L 122.91265181013473,40 L 122.94794605378848,40 L 124.42948015769852,40 L 124.46846506845513,40 L 124.50759330608955,40 L 125.97466931120337,40 L 126.00627288775424,40 L 126.04468449099971,40 L 127.52134548106517,40 L 127.55726677980923,40 L 127.60422424814246,40 L 129.06449222656164,40 L 129.10537621844884,40 L 129.14495235257635,40 L 130.6195709346334,40 L 130.6524644530843,40 L 130.69001609506313,40 L 132.16746538295638,40 L 132.20075305032117,40 L 132.23912882184723,40 L 133.71338908670984,40 L 133.7519798485526,40 L 133.79356255896897,40 L 135.2628780465481,40 L 135.2936037459726,40 L 135.33063582801944,40 L 136.81216993192947,40 L 136.83974244004276,40 L 136.87740157717988,40 L 138.3562303862718,40 L 138.3915783775047,40 L 138.4306170358405,40 L 139.90521770203782,40 L 139.9427335122972,40 L 139.9826321318997,40 L 141.4573044615359,40 L 141.48444698901582,40 L 141.52327065703494,40 L 143.00394479967832,40 L 143.04051106937237,40 L 143.07311793406768,40 L 144.54719904033308,40 L 144.5806658662951,40 L 144.61920288055867,40 L 146.0924419414171,40 L 146.13303927954877,40 L 146.17017885675395,40 L 147.64381206652627,40 L 147.6744481866521,40 L 147.7088466373197,40 L 149.19788748645357,40 L 149.23527788569487,40 L 149.27736224018352,40 L 150.74458157217512,40 L 150.77797673469826,40 L 150.8113718972214,40 L 152.2890182595716,40 L 152.3261040891976,40 L 152.3625807795931,40 L 153.83033758737633,40 L 153.870612440033,40 L 153.9089523798396,40 L 155.3770316730979,40 L 155.41728860989483,40 L 155.46146911997104,40 L 156.93943796779627,40 L 156.97145360912072,40 L 157.01285716093992,40 L 158.48349842213855,40 L 158.51116050955042,40 L 158.5462218470278,40 L 160.0270393165489,40 L 160.0636414179624,40 L 160.10076307930788,40 L 161.5757399785594,40 L 161.60770187230472,40 L 161.64903376068503,40 L 163.1233298572671,40 L 163.15548882546935,40 L 163.19357794323983,40 L 164.671743865522,40 L 164.70325786277425,40 L 164.73738757554602,40 L 166.21797213889076,66.4168618266979 L 166.24780204532908,66.4168618266979 L 167.7646662246123,66.4168618266979 L 167.8010891674286,66.4168618266979 L 167.8354876180962,66.4168618266979 L 169.31417310031034,66.4168618266979 L 169.33925530392213,66.4168618266979 L 169.38194879764134,66.4168618266979 L 170.87050591856269,66.4168618266979 L 170.90834421429705,66.4168618266979 L 172.4108757058021,66.4168618266979 L 172.4502905971921,66.4168618266979 L 172.5017449463157,66.4168618266979 L 173.96111713174875,66.4168618266979 L 173.99968997773175,66.4168618266979 L 174.02342849186437,66.4168618266979 L 175.51107190393984,66.4168618266979 L 175.5469394551047,66.4168618266979 L 175.58475983497937,66.4168618266979 L 177.05993380868784,66.4168618266979 L 177.09411726903878,66.4168618266979 L 177.132869273619,66.4168618266979 L 178.60619791377604,66.4168618266979 L 178.63692361320048,66.4168618266979 L 178.67555020676267,66.4168618266979 L 180.15398486694068,66.4168618266979 L 180.18648423647767,66.4168618266979 L 180.21841029850356,66.4168618266979 L 181.7013776711914,66.4168618266979 L 181.73849933253686,66.4168618266979 L 181.77956248302132,66.4168618266979 L 183.2523894791061,66.4168618266979 L 183.2888124219224,66.4168618266979 L 183.33333333333334,66.4168618266979" fill="none" stroke="none"/>
  </g>
  <!-- 📊 Total Contributions Chart -->
  <g transform="translate(526.6666666666667, 250)">
    <!-- Chart Background -->
    <rect x="0" y="0" width="213.33333333333334" height="200" fill="#ffffff" stroke="#e2e8f0" stroke-width="1" rx="8" filter="url(#shadow)">
      <animate attributeName="opacity" values="0;1" dur="0.5s" begin="2.8s" fill="freeze"/>
    </rect>
    
    <!-- Chart Title -->
    <text x="106.66666666666667" y="25" text-anchor="middle" fill="#1e293b" font-size="14" font-weight="bold" font-family="Arial, sans-serif">
      📊 Total Contributions
      <animate attributeName="opacity" values="0;1" dur="0.5s" begin="3s" fill="freeze"/>
    </text>
    
    <!-- Y-axis labels -->
    <text x="10" y="45" fill="#64748b" font-size="10" font-family="Arial, sans-serif">5,314
      <animate attributeName="opacity" values="0;1" dur="0.5s" begin="3.1999999999999997s" fill="freeze"/>
    </text>
    <text x="10" y="185" fill="#64748b" font-size="10" font-family="Arial, sans-serif">4,917
      <animate attributeName="opacity" values="0;1" dur="0.5s" begin="3.1999999999999997s" fill="freeze"/>
    </text>
    
    <!-- Chart Line with draw animation that follows the circle -->
    <path d="M 30,160 L 30.0299732333161,160 L 30.064944991494833,160 L 31.547858616603524,160 L 31.57432034141397,160 L 31.610152060859395,160 L 33.092940274950024,160 L 33.12294933998557,160 L 33.15623700735037,160 L 34.644328315918926,160 L 34.666185664780635,160 L 34.697215933820374,160 L 36.18790504204872,160 L 36.21280808706329,160 L 36.24493122354612,160 L 37.73873769136621,160 L 37.76811970131146,160 L 37.79375729657466,160 L 39.28550344052665,160 L 39.318325295538656,160 L 39.34123968012401,160 L 40.83544029685801,160 L 40.86432066273102,160 L 40.89757249837638,160 L 42.383872220972655,160 L 42.412053868316484,160 L 42.44607608592992,160 L 43.93088879216921,160 L 43.95654430329214,160 L 43.988559944616625,160 L 45.480216509269994,160 L 45.50820108215687,160 L 45.54064670411471,160 L 47.02425904775258,160 L 47.06186443731056,160 L 47.08363220687365,160 L 48.572422233971395,160 L 48.60171466461803,160 L 48.63086376838688,160 L 50.11621395041786,160 L 50.14853416135763,160 L 50.17555127781949,160 L 51.25559096534353,160 L 51.67075518269795,160 L 51.70287831918078,160 L 51.73672137819699,160 L 53.21850630414314,160 L 53.24659837218836,160 L 53.27949189063926,160 L 54.764537503054946,160 L 54.786197777459705,160 L 54.822531140977375,160 L 56.3145460228252,160 L 56.34159897100649,160 L 56.37305922067958,160 L 57.86256588216622,160 L 57.8950473358435,160 L 57.92851416180553,160 L 59.40861499693776,160 L 59.43627708434962,160 L 59.4727000271659,160 L 60.960862999173344,160 L 60.98445818642816,160 L 61.0135177108984,160 L 62.507485421455996,160 L 62.54098807913747,160 L 62.57235874951194,160 L 64.05451990851228,160 L 64.08467230042561,160 L 64.11853327530153,160 L 65.60026445366853,160 L 65.6296643794735,160 L 65.66280871996051,160 L 67.15141958846101,160 L 67.17890251727566,160 L 67.2070125011806,160 L 68.6975941142506,160 L 68.72538161268054,160 L 68.75877677520367,160 L 70.23662021201083,160 L 70.27341938788129,160 L 70.30428841418353,160 L 71.79263054478818,160 L 71.81436248263185,160 L 71.85343697268708,160 L 73.34240615838203,160 L 73.37506677065656,160 L 73.40948313718388,160 L 74.89254008917035,160 L 74.92242374318784,160 L 74.95408106731787,160 L 76.43129744903473,160 L 76.4637609868523,160 L 76.49613494537124,160 L 77.98401126362312,160 L 78.01439656171284,160 L 78.04911749785545,160 L 79.53242527187805,160 L 79.5603919289052,160 L 79.59126095520743,160 L 81.081484251083,160 L 81.10140668709464,160 L 81.15031698413765,160 L 82.62678089974617,160 L 82.6569332916595,160 L 82.6866736187992,160 L 84.1775777173442,160 L 84.21181492527433,160 L 84.24297060533212,160 L 85.72475553127828,160 L 85.75490792319161,160 L 85.78966469105366,160 L 87.2705717398734,160 L 87.30020457185478,160 L 87.3272037724569,160 L 88.8208489975395,160 L 88.8514672018056,160 L 88.8829991149176,160 L 90.37343740110981,160 L 90.40224610354394,160 L 90.43066065706415,160 L 91.91556294260207,160 L 91.9463603054654,40 L 91.97844761022878,40 L 93.46928004533493,40 L 93.49065366598411,40 L 93.52012525522798,40 L 95.01334049967723,40 L 95.03724025654732,40 L 95.07964709651098,40 L 96.56311611327108,40 L 96.5945942788039,40 L 96.62223845035604,40 L 98.10477584241055,40 L 98.13926387237677,40 L 98.17303526795408,40 L 99.66223735982544,40 L 99.67750167230919,40 L 99.71886939240893,40 L 101.20706819613582,40 L 101.23969297669089,40 L 101.2765459001405,40 L 102.7551238871963,40 L 102.78586750248047,40 L 102.82526447801072,40 L 104.3006713578956,40 L 104.33336780188954,40 L 104.3715106672392,40 L 105.85718333474519,40 L 105.89360627756146,40 L 107.39916554935965,40 L 107.47575584967426,40 L 108.9473466514382,40 L 108.98541785334895,40 L 109.02155414240967,40 L 110.49490069842643,40 L 110.53501430834558,40 L 110.56262264817829,40 L 112.04610958079809,40 L 112.07968390191846,40 L 112.11737887077504,40 L 113.5885934394848,40 L 113.62214984474545,40 L 113.6598985611812,40 L 115.13888861301062,40 L 115.17187171076014,40 L 115.20725553371248,40 L 116.69228323026846,40 L 116.7356216949377,40 L 118.27445071824098,40 L 118.31547803700599,40 L 119.79163738299923,40 L 119.8254625261557,40 L 121.34361664733896,40 L 121.3724253497731,40 L 121.41986654631884,40 L 122.87968662824495,40 L 122.91265181013473,40 L 122.94794605378848,40 L 124.42948015769852,40 L 124.46846506845513,40 L 124.50759330608955,40 L 125.97466931120337,40 L 126.00627288775424,40 L 126.04468449099971,40 L 127.52134548106517,40 L 127.55726677980923,40 L 127.60422424814246,40 L 129.06449222656164,40 L 129.10537621844884,40 L 129.14495235257635,40 L 130.6195709346334,40 L 130.6524644530843,40 L 130.69001609506313,40 L 132.16746538295638,40 L 132.20075305032117,40 L 132.23912882184723,40 L 133.71338908670984,40 L 133.7519798485526,40 L 133.79356255896897,40 L 135.2628780465481,40 L 135.2936037459726,40 L 135.33063582801944,40 L 136.81216993192947,40 L 136.83974244004276,40 L 136.87740157717988,40 L 138.3562303862718,40 L 138.3915783775047,40 L 138.4306170358405,40 L 139.90521770203782,40 L 139.9427335122972,40 L 139.9826321318997,40 L 141.4573044615359,40 L 141.48444698901582,40 L 141.52327065703494,40 L 143.00394479967832,40 L 143.04051106937237,40 L 143.07311793406768,40 L 144.54719904033308,40 L 144.5806658662951,40 L 144.61920288055867,40 L 146.0924419414171,40 L 146.13303927954877,40 L 146.17017885675395,40 L 147.64381206652627,40 L 147.6744481866521,40 L 147.7088466373197,40 L 149.19788748645357,40 L 149.23527788569487,40 L 149.27736224018352,40 L 150.74458157217512,40 L 150.77797673469826,40 L 150.8113718972214,40 L 152.2890182595716,40 L 152.3261040891976,40 L 152.3625807795931,40 L 153.83033758737633,40 L 153.870612440033,40 L 153.9089523798396,40 L 155.3770316730979,40 L 155.41728860989483,40 L 155.46146911997104,40 L 156.93943796779627,40 L 156.97145360912072,40 L 157.01285716093992,40 L 158.48349842213855,40 L 158.51116050955042,40 L 158.5462218470278,40 L 160.0270393165489,40 L 160.0636414179624,40 L 160.10076307930788,40 L 161.5757399785594,40 L 161.60770187230472,40 L 161.64903376068503,40 L 163.1233298572671,40 L 163.15548882546935,40 L 163.19357794323983,40 L 164.671743865522,40 L 164.70325786277425,40 L 164.73738757554602,40 L 166.21797213889076,72.04030226700252 L 166.24780204532908,72.04030226700252 L 167.7646662246123,72.04030226700252 L 167.8010891674286,72.04030226700252 L 167.8354876180962,72.04030226700252 L 169.31417310031034,72.04030226700252 L 169.33925530392213,72.04030226700252 L 169.38194879764134,72.04030226700252 L 170.87050591856269,72.04030226700252 L 170.90834421429705,72.04030226700252 L 172.4108757058021,72.04030226700252 L 172.4502905971921,72.04030226700252 L 172.5017449463157,72.04030226700252 L 173.96111713174875,72.04030226700252 L 173.99968997773175,72.04030226700252 L 174.02342849186437,72.04030226700252 L 175.51107190393984,72.04030226700252 L 175.5469394551047,72.04030226700252 L 175.58475983497937,72.04030226700252 L 177.05993380868784,72.04030226700252 L 177.09411726903878,72.04030226700252 L 177.132869273619,72.04030226700252 L 178.60619791377604,72.04030226700252 L 178.63692361320048,72.04030226700252 L 178.67555020676267,72.04030226700252 L 180.15398486694068,72.04030226700252 L 180.18648423647767,72.04030226700252 L 180.21841029850356,72.04030226700252 L 181.7013776711914,72.04030226700252 L 181.73849933253686,72.04030226700252 L 181.77956248302132,72.04030226700252 L 183.2523894791061,72.04030226700252 L 183.2888124219224,72.04030226700252 L 183.33333333333334,72.04030226700252" stroke="#f59e0b" stroke-width="2" fill="none" stroke-dasharray="14700" stroke-dashoffset="14700">
      <animate attributeName="stroke-dashoffset" values="14700;0" dur="3s" begin="3.5999999999999996s" fill="freeze"/>
    </path>
    
    <!-- Glow effect for the line that also follows the circle -->
    <path d="M 30,160 L 30.0299732333161,160 L 30.064944991494833,160 L 31.547858616603524,160 L 31.57432034141397,160 L 31.610152060859395,160 L 33.092940274950024,160 L 33.12294933998557,160 L 33.15623700735037,160 L 34.644328315918926,160 L 34.666185664780635,160 L 34.697215933820374,160 L 36.18790504204872,160 L 36.21280808706329,160 L 36.24493122354612,160 L 37.73873769136621,160 L 37.76811970131146,160 L 37.79375729657466,160 L 39.28550344052665,160 L 39.318325295538656,160 L 39.34123968012401,160 L 40.83544029685801,160 L 40.86432066273102,160 L 40.89757249837638,160 L 42.383872220972655,160 L 42.412053868316484,160 L 42.44607608592992,160 L 43.93088879216921,160 L 43.95654430329214,160 L 43.988559944616625,160 L 45.480216509269994,160 L 45.50820108215687,160 L 45.54064670411471,160 L 47.02425904775258,160 L 47.06186443731056,160 L 47.08363220687365,160 L 48.572422233971395,160 L 48.60171466461803,160 L 48.63086376838688,160 L 50.11621395041786,160 L 50.14853416135763,160 L 50.17555127781949,160 L 51.25559096534353,160 L 51.67075518269795,160 L 51.70287831918078,160 L 51.73672137819699,160 L 53.21850630414314,160 L 53.24659837218836,160 L 53.27949189063926,160 L 54.764537503054946,160 L 54.786197777459705,160 L 54.822531140977375,160 L 56.3145460228252,160 L 56.34159897100649,160 L 56.37305922067958,160 L 57.86256588216622,160 L 57.8950473358435,160 L 57.92851416180553,160 L 59.40861499693776,160 L 59.43627708434962,160 L 59.4727000271659,160 L 60.960862999173344,160 L 60.98445818642816,160 L 61.0135177108984,160 L 62.507485421455996,160 L 62.54098807913747,160 L 62.57235874951194,160 L 64.05451990851228,160 L 64.08467230042561,160 L 64.11853327530153,160 L 65.60026445366853,160 L 65.6296643794735,160 L 65.66280871996051,160 L 67.15141958846101,160 L 67.17890251727566,160 L 67.2070125011806,160 L 68.6975941142506,160 L 68.72538161268054,160 L 68.75877677520367,160 L 70.23662021201083,160 L 70.27341938788129,160 L 70.30428841418353,160 L 71.79263054478818,160 L 71.81436248263185,160 L 71.85343697268708,160 L 73.34240615838203,160 L 73.37506677065656,160 L 73.40948313718388,160 L 74.89254008917035,160 L 74.92242374318784,160 L 74.95408106731787,160 L 76.43129744903473,160 L 76.4637609868523,160 L 76.49613494537124,160 L 77.98401126362312,160 L 78.01439656171284,160 L 78.04911749785545,160 L 79.53242527187805,160 L 79.5603919289052,160 L 79.59126095520743,160 L 81.081484251083,160 L 81.10140668709464,160 L 81.15031698413765,160 L 82.62678089974617,160 L 82.6569332916595,160 L 82.6866736187992,160 L 84.1775777173442,160 L 84.21181492527433,160 L 84.24297060533212,160 L 85.72475553127828,160 L 85.75490792319161,160 L 85.78966469105366,160 L 87.2705717398734,160 L 87.30020457185478,160 L 87.3272037724569,160 L 88.8208489975395,160 L 88.8514672018056,160 L 88.8829991149176,160 L 90.37343740110981,160 L 90.40224610354394,160 L 90.43066065706415,160 L 91.91556294260207,160 L 91.9463603054654,40 L 91.97844761022878,40 L 93.46928004533493,40 L 93.49065366598411,40 L 93.52012525522798,40 L 95.01334049967723,40 L 95.03724025654732,40 L 95.07964709651098,40 L 96.56311611327108,40 L 96.5945942788039,40 L 96.62223845035604,40 L 98.10477584241055,40 L 98.13926387237677,40 L 98.17303526795408,40 L 99.66223735982544,40 L 99.67750167230919,40 L 99.71886939240893,40 L 101.20706819613582,40 L 101.23969297669089,40 L 101.2765459001405,40 L 102.7551238871963,40 L 102.78586750248047,40 L 102.82526447801072,40 L 104.3006713578956,40 L 104.33336780188954,40 L 104.3715106672392,40 L 105.85718333474519,40 L 105.89360627756146,40 L 107.39916554935965,40 L 107.47575584967426,40 L 108.9473466514382,40 L 108.98541785334895,40 L 109.02155414240967,40 L 110.49490069842643,40 L 110.53501430834558,40 L 110.56262264817829,40 L 112.04610958079809,40 L 112.07968390191846,40 L 112.11737887077504,40 L 113.5885934394848,40 L 113.62214984474545,40 L 113.6598985611812,40 L 115.13888861301062,40 L 115.17187171076014,40 L 115.20725553371248,40 L 116.69228323026846,40 L 116.7356216949377,40 L 118.27445071824098,40 L 118.31547803700599,40 L 119.79163738299923,40 L 119.8254625261557,40 L 121.34361664733896,40 L 121.3724253497731,40 L 121.41986654631884,40 L 122.87968662824495,40 L 122.91265181013473,40 L 122.94794605378848,40 L 124.42948015769852,40 L 124.46846506845513,40 L 124.50759330608955,40 L 125.97466931120337,40 L 126.00627288775424,40 L 126.04468449099971,40 L 127.52134548106517,40 L 127.55726677980923,40 L 127.60422424814246,40 L 129.06449222656164,40 L 129.10537621844884,40 L 129.14495235257635,40 L 130.6195709346334,40 L 130.6524644530843,40 L 130.69001609506313,40 L 132.16746538295638,40 L 132.20075305032117,40 L 132.23912882184723,40 L 133.71338908670984,40 L 133.7519798485526,40 L 133.79356255896897,40 L 135.2628780465481,40 L 135.2936037459726,40 L 135.33063582801944,40 L 136.81216993192947,40 L 136.83974244004276,40 L 136.87740157717988,40 L 138.3562303862718,40 L 138.3915783775047,40 L 138.4306170358405,40 L 139.90521770203782,40 L 139.9427335122972,40 L 139.9826321318997,40 L 141.4573044615359,40 L 141.48444698901582,40 L 141.52327065703494,40 L 143.00394479967832,40 L 143.04051106937237,40 L 143.07311793406768,40 L 144.54719904033308,40 L 144.5806658662951,40 L 144.61920288055867,40 L 146.0924419414171,40 L 146.13303927954877,40 L 146.17017885675395,40 L 147.64381206652627,40 L 147.6744481866521,40 L 147.7088466373197,40 L 149.19788748645357,40 L 149.23527788569487,40 L 149.27736224018352,40 L 150.74458157217512,40 L 150.77797673469826,40 L 150.8113718972214,40 L 152.2890182595716,40 L 152.3261040891976,40 L 152.3625807795931,40 L 153.83033758737633,40 L 153.870612440033,40 L 153.9089523798396,40 L 155.3770316730979,40 L 155.41728860989483,40 L 155.46146911997104,40 L 156.93943796779627,40 L 156.97145360912072,40 L 157.01285716093992,40 L 158.48349842213855,40 L 158.51116050955042,40 L 158.5462218470278,40 L 160.0270393165489,40 L 160.0636414179624,40 L 160.10076307930788,40 L 161.5757399785594,40 L 161.60770187230472,40 L 161.64903376068503,40 L 163.1233298572671,40 L 163.15548882546935,40 L 163.19357794323983,40 L 164.671743865522,40 L 164.70325786277425,40 L 164.73738757554602,40 L 166.21797213889076,72.04030226700252 L 166.24780204532908,72.04030226700252 L 167.7646662246123,72.04030226700252 L 167.8010891674286,72.04030226700252 L 167.8354876180962,72.04030226700252 L 169.31417310031034,72.04030226700252 L 169.33925530392213,72.04030226700252 L 169.38194879764134,72.04030226700252 L 170.87050591856269,72.04030226700252 L 170.90834421429705,72.04030226700252 L 172.4108757058021,72.04030226700252 L 172.4502905971921,72.04030226700252 L 172.5017449463157,72.04030226700252 L 173.96111713174875,72.04030226700252 L 173.99968997773175,72.04030226700252 L 174.02342849186437,72.04030226700252 L 175.51107190393984,72.04030226700252 L 175.5469394551047,72.04030226700252 L 175.58475983497937,72.04030226700252 L 177.05993380868784,72.04030226700252 L 177.09411726903878,72.04030226700252 L 177.132869273619,72.04030226700252 L 178.60619791377604,72.04030226700252 L 178.63692361320048,72.04030226700252 L 178.67555020676267,72.04030226700252 L 180.15398486694068,72.04030226700252 L 180.18648423647767,72.04030226700252 L 180.21841029850356,72.04030226700252 L 181.7013776711914,72.04030226700252 L 181.73849933253686,72.04030226700252 L 181.77956248302132,72.04030226700252 L 183.2523894791061,72.04030226700252 L 183.2888124219224,72.04030226700252 L 183.33333333333334,72.04030226700252" stroke="#f59e0b" stroke-width="4" fill="none" opacity="0.4" stroke-dasharray="14700" stroke-dashoffset="14700">
      <animate attributeName="stroke-dashoffset" values="14700;0" dur="3s" begin="3.5999999999999996s" fill="freeze"/>
    </path>
    
    <!-- Animated circle that moves along the path and draws the line -->
    <circle r="5" fill="#f59e0b" opacity="0" filter="url(#trailGlow)">
      <animate attributeName="opacity" values="0;1;1;1" dur="3.2s" begin="3.4s" fill="freeze"/>
      <animate attributeName="r" values="5;6;5" dur="1s" begin="3.4s" repeatCount="3"/>
      <animateMotion dur="3s" begin="3.4s" fill="freeze">
        <mpath href="#path_totalContributions_526.6666666666667"/>
      </animateMotion>
    </circle>
    
    <!-- Small trail dots that fade out -->
    <circle r="2" fill="#f59e0b" opacity="0">
      <animate attributeName="opacity" values="0;0.6;0" dur="0.8s" begin="3.8s" fill="freeze"/>
      <animateMotion dur="3s" begin="3.4s" fill="freeze">
        <mpath href="#path_totalContributions_526.6666666666667"/>
      </animateMotion>
    </circle>
    
    <!-- Hidden path for motion animation -->
    <path id="path_totalContributions_526.6666666666667" d="M 30,160 L 30.0299732333161,160 L 30.064944991494833,160 L 31.547858616603524,160 L 31.57432034141397,160 L 31.610152060859395,160 L 33.092940274950024,160 L 33.12294933998557,160 L 33.15623700735037,160 L 34.644328315918926,160 L 34.666185664780635,160 L 34.697215933820374,160 L 36.18790504204872,160 L 36.21280808706329,160 L 36.24493122354612,160 L 37.73873769136621,160 L 37.76811970131146,160 L 37.79375729657466,160 L 39.28550344052665,160 L 39.318325295538656,160 L 39.34123968012401,160 L 40.83544029685801,160 L 40.86432066273102,160 L 40.89757249837638,160 L 42.383872220972655,160 L 42.412053868316484,160 L 42.44607608592992,160 L 43.93088879216921,160 L 43.95654430329214,160 L 43.988559944616625,160 L 45.480216509269994,160 L 45.50820108215687,160 L 45.54064670411471,160 L 47.02425904775258,160 L 47.06186443731056,160 L 47.08363220687365,160 L 48.572422233971395,160 L 48.60171466461803,160 L 48.63086376838688,160 L 50.11621395041786,160 L 50.14853416135763,160 L 50.17555127781949,160 L 51.25559096534353,160 L 51.67075518269795,160 L 51.70287831918078,160 L 51.73672137819699,160 L 53.21850630414314,160 L 53.24659837218836,160 L 53.27949189063926,160 L 54.764537503054946,160 L 54.786197777459705,160 L 54.822531140977375,160 L 56.3145460228252,160 L 56.34159897100649,160 L 56.37305922067958,160 L 57.86256588216622,160 L 57.8950473358435,160 L 57.92851416180553,160 L 59.40861499693776,160 L 59.43627708434962,160 L 59.4727000271659,160 L 60.960862999173344,160 L 60.98445818642816,160 L 61.0135177108984,160 L 62.507485421455996,160 L 62.54098807913747,160 L 62.57235874951194,160 L 64.05451990851228,160 L 64.08467230042561,160 L 64.11853327530153,160 L 65.60026445366853,160 L 65.6296643794735,160 L 65.66280871996051,160 L 67.15141958846101,160 L 67.17890251727566,160 L 67.2070125011806,160 L 68.6975941142506,160 L 68.72538161268054,160 L 68.75877677520367,160 L 70.23662021201083,160 L 70.27341938788129,160 L 70.30428841418353,160 L 71.79263054478818,160 L 71.81436248263185,160 L 71.85343697268708,160 L 73.34240615838203,160 L 73.37506677065656,160 L 73.40948313718388,160 L 74.89254008917035,160 L 74.92242374318784,160 L 74.95408106731787,160 L 76.43129744903473,160 L 76.4637609868523,160 L 76.49613494537124,160 L 77.98401126362312,160 L 78.01439656171284,160 L 78.04911749785545,160 L 79.53242527187805,160 L 79.5603919289052,160 L 79.59126095520743,160 L 81.081484251083,160 L 81.10140668709464,160 L 81.15031698413765,160 L 82.62678089974617,160 L 82.6569332916595,160 L 82.6866736187992,160 L 84.1775777173442,160 L 84.21181492527433,160 L 84.24297060533212,160 L 85.72475553127828,160 L 85.75490792319161,160 L 85.78966469105366,160 L 87.2705717398734,160 L 87.30020457185478,160 L 87.3272037724569,160 L 88.8208489975395,160 L 88.8514672018056,160 L 88.8829991149176,160 L 90.37343740110981,160 L 90.40224610354394,160 L 90.43066065706415,160 L 91.91556294260207,160 L 91.9463603054654,40 L 91.97844761022878,40 L 93.46928004533493,40 L 93.49065366598411,40 L 93.52012525522798,40 L 95.01334049967723,40 L 95.03724025654732,40 L 95.07964709651098,40 L 96.56311611327108,40 L 96.5945942788039,40 L 96.62223845035604,40 L 98.10477584241055,40 L 98.13926387237677,40 L 98.17303526795408,40 L 99.66223735982544,40 L 99.67750167230919,40 L 99.71886939240893,40 L 101.20706819613582,40 L 101.23969297669089,40 L 101.2765459001405,40 L 102.7551238871963,40 L 102.78586750248047,40 L 102.82526447801072,40 L 104.3006713578956,40 L 104.33336780188954,40 L 104.3715106672392,40 L 105.85718333474519,40 L 105.89360627756146,40 L 107.39916554935965,40 L 107.47575584967426,40 L 108.9473466514382,40 L 108.98541785334895,40 L 109.02155414240967,40 L 110.49490069842643,40 L 110.53501430834558,40 L 110.56262264817829,40 L 112.04610958079809,40 L 112.07968390191846,40 L 112.11737887077504,40 L 113.5885934394848,40 L 113.62214984474545,40 L 113.6598985611812,40 L 115.13888861301062,40 L 115.17187171076014,40 L 115.20725553371248,40 L 116.69228323026846,40 L 116.7356216949377,40 L 118.27445071824098,40 L 118.31547803700599,40 L 119.79163738299923,40 L 119.8254625261557,40 L 121.34361664733896,40 L 121.3724253497731,40 L 121.41986654631884,40 L 122.87968662824495,40 L 122.91265181013473,40 L 122.94794605378848,40 L 124.42948015769852,40 L 124.46846506845513,40 L 124.50759330608955,40 L 125.97466931120337,40 L 126.00627288775424,40 L 126.04468449099971,40 L 127.52134548106517,40 L 127.55726677980923,40 L 127.60422424814246,40 L 129.06449222656164,40 L 129.10537621844884,40 L 129.14495235257635,40 L 130.6195709346334,40 L 130.6524644530843,40 L 130.69001609506313,40 L 132.16746538295638,40 L 132.20075305032117,40 L 132.23912882184723,40 L 133.71338908670984,40 L 133.7519798485526,40 L 133.79356255896897,40 L 135.2628780465481,40 L 135.2936037459726,40 L 135.33063582801944,40 L 136.81216993192947,40 L 136.83974244004276,40 L 136.87740157717988,40 L 138.3562303862718,40 L 138.3915783775047,40 L 138.4306170358405,40 L 139.90521770203782,40 L 139.9427335122972,40 L 139.9826321318997,40 L 141.4573044615359,40 L 141.48444698901582,40 L 141.52327065703494,40 L 143.00394479967832,40 L 143.04051106937237,40 L 143.07311793406768,40 L 144.54719904033308,40 L 144.5806658662951,40 L 144.61920288055867,40 L 146.0924419414171,40 L 146.13303927954877,40 L 146.17017885675395,40 L 147.64381206652627,40 L 147.6744481866521,40 L 147.7088466373197,40 L 149.19788748645357,40 L 149.23527788569487,40 L 149.27736224018352,40 L 150.74458157217512,40 L 150.77797673469826,40 L 150.8113718972214,40 L 152.2890182595716,40 L 152.3261040891976,40 L 152.3625807795931,40 L 153.83033758737633,40 L 153.870612440033,40 L 153.9089523798396,40 L 155.3770316730979,40 L 155.41728860989483,40 L 155.46146911997104,40 L 156.93943796779627,40 L 156.97145360912072,40 L 157.01285716093992,40 L 158.48349842213855,40 L 158.51116050955042,40 L 158.5462218470278,40 L 160.0270393165489,40 L 160.0636414179624,40 L 160.10076307930788,40 L 161.5757399785594,40 L 161.60770187230472,40 L 161.64903376068503,40 L 163.1233298572671,40 L 163.15548882546935,40 L 163.19357794323983,40 L 164.671743865522,40 L 164.70325786277425,40 L 164.73738757554602,40 L 166.21797213889076,72.04030226700252 L 166.24780204532908,72.04030226700252 L 167.7646662246123,72.04030226700252 L 167.8010891674286,72.04030226700252 L 167.8354876180962,72.04030226700252 L 169.31417310031034,72.04030226700252 L 169.33925530392213,72.04030226700252 L 169.38194879764134,72.04030226700252 L 170.87050591856269,72.04030226700252 L 170.90834421429705,72.04030226700252 L 172.4108757058021,72.04030226700252 L 172.4502905971921,72.04030226700252 L 172.5017449463157,72.04030226700252 L 173.96111713174875,72.04030226700252 L 173.99968997773175,72.04030226700252 L 174.02342849186437,72.04030226700252 L 175.51107190393984,72.04030226700252 L 175.5469394551047,72.04030226700252 L 175.58475983497937,72.04030226700252 L 177.05993380868784,72.04030226700252 L 177.09411726903878,72.04030226700252 L 177.132869273619,72.04030226700252 L 178.60619791377604,72.04030226700252 L 178.63692361320048,72.04030226700252 L 178.67555020676267,72.04030226700252 L 180.15398486694068,72.04030226700252 L 180.18648423647767,72.04030226700252 L 180.21841029850356,72.04030226700252 L 181.7013776711914,72.04030226700252 L 181.73849933253686,72.04030226700252 L 181.77956248302132,72.04030226700252 L 183.2523894791061,72.04030226700252 L 183.2888124219224,72.04030226700252 L 183.33333333333334,72.04030226700252" fill="none" stroke="none"/>
  </g>
  
  <!-- Footer -->
  <text x="400" y="580" text-anchor="middle" fill="#94a3b8" font-size="12" font-family="Arial, sans-serif">
    Generated by GitHub User Rank Tracker • 3/23/2026
    <animate attributeName="opacity" values="0;1" dur="0.5s" begin="5s" fill="freeze"/>
  </text>
</svg>