<svg width="800" height="600" xmlns="http://www.w3.org/2000/svg">
  <defs>
    <linearGradient id="bgGradient" x1="0%" y1="0%" x2="100%" y2="100%">
      <stop offset="0%" style="stop-color:#f8fafc;stop-opacity:1" />
      <stop offset="100%" style="stop-color:#e2e8f0;stop-opacity:1" />
    </linearGradient>
    <filter id="shadow" x="-20%" y="-20%" width="140%" height="140%">
      <feDropShadow dx="2" dy="2" stdDeviation="3" flood-color="#00000020" flood-opacity="0.1"/>
    </filter>
    <!-- Trail effect filter -->
    <filter id="trailGlow" x="-50%" y="-50%" width="200%" height="200%">
      <feGaussianBlur stdDeviation="3" result="coloredBlur"/>
      <feMerge> 
        <feMergeNode in="coloredBlur"/>
        <feMergeNode in="SourceGraphic"/>
      </feMerge>
    </filter>
  </defs>
  
  <!-- Background -->
  <rect width="800" height="600" fill="url(#bgGradient)" rx="12"/>
  
  <!-- Header -->
  <text x="400" y="40" text-anchor="middle" fill="#0f172a" font-size="24" font-weight="bold" font-family="Arial, sans-serif">
    GitHub Progress Report
    <animate attributeName="opacity" values="0;1" dur="0.8s" begin="0s" fill="freeze"/>
    <animateTransform attributeName="transform" type="translate" values="0,-20;0,0" dur="0.8s" begin="0s" fill="freeze"/>
  </text>
  
  <!-- User Info -->
  <text x="400" y="70" text-anchor="middle" fill="#475569" font-size="16" font-family="Arial, sans-serif">
    @maifeeulasad • BANGLADESH • 100 days analyzed
    <animate attributeName="opacity" values="0;1" dur="0.6s" begin="0.3s" fill="freeze"/>
  </text>
  
  <!-- Progress Cards -->
  <!-- Followers Card -->
  <g transform="translate(60, 100)">
    <rect width="206.66666666666666" height="120" fill="#ffffff" stroke="#e2e8f0" stroke-width="1" rx="8" filter="url(#shadow)">
      <animate attributeName="opacity" values="0;1" dur="0.6s" begin="0.2s" fill="freeze"/>
      <animateTransform attributeName="transform" type="scale" values="0.8;1" dur="0.6s" begin="0.2s" fill="freeze"/>
    </rect>
    <text x="103.33333333333333" y="25" text-anchor="middle" fill="#64748b" font-size="14" font-weight="bold" font-family="Arial, sans-serif">FOLLOWERS
      <animate attributeName="opacity" values="0;1" dur="0.5s" begin="0.4s" fill="freeze"/>
    </text>
    
    <text x="103.33333333333333" y="50" text-anchor="middle" fill="#ef4444" font-size="32" font-weight="bold" font-family="Arial, sans-serif">
      ↘
      <animate attributeName="opacity" values="0;1" dur="0.5s" begin="0.6s" fill="freeze"/>
      <animateTransform attributeName="transform" type="scale" values="0;1.2;1" dur="0.8s" begin="0.6s" fill="freeze"/>
    </text>
    
    <text x="103.33333333333333" y="75" text-anchor="middle" fill="#1e293b" font-size="18" font-weight="bold" font-family="Arial, sans-serif">
      -15
      <animate attributeName="opacity" values="0;1" dur="0.5s" begin="0.8s" fill="freeze"/>
    </text>
    
    <text x="103.33333333333333" y="95" text-anchor="middle" fill="#64748b" font-size="12" font-family="Arial, sans-serif">
      #466 → #481
      <animate attributeName="opacity" values="0;1" dur="0.5s" begin="1s" fill="freeze"/>
    </text>
  </g>
  
  <!-- Public Contributions Card -->
  <g transform="translate(296.66666666666663, 100)">
    <rect width="206.66666666666666" height="120" fill="#ffffff" stroke="#e2e8f0" stroke-width="1" rx="8" filter="url(#shadow)">
      <animate attributeName="opacity" values="0;1" dur="0.6s" begin="0.4s" fill="freeze"/>
      <animateTransform attributeName="transform" type="scale" values="0.8;1" dur="0.6s" begin="0.4s" fill="freeze"/>
    </rect>
    <text x="103.33333333333333" y="25" text-anchor="middle" fill="#64748b" font-size="14" font-weight="bold" font-family="Arial, sans-serif">PUBLIC
      <animate attributeName="opacity" values="0;1" dur="0.5s" begin="0.6s" fill="freeze"/>
    </text>
    
    <text x="103.33333333333333" y="50" text-anchor="middle" fill="#6b7280" font-size="32" font-weight="bold" font-family="Arial, sans-serif">
      →
      <animate attributeName="opacity" values="0;1" dur="0.5s" begin="0.8s" fill="freeze"/>
      <animateTransform attributeName="transform" type="scale" values="0;1.2;1" dur="0.8s" begin="0.8s" fill="freeze"/>
    </text>
    
    <text x="103.33333333333333" y="75" text-anchor="middle" fill="#1e293b" font-size="18" font-weight="bold" font-family="Arial, sans-serif">
      0
      <animate attributeName="opacity" values="0;1" dur="0.5s" begin="1s" fill="freeze"/>
    </text>
    
    <text x="103.33333333333333" y="95" text-anchor="middle" fill="#64748b" font-size="12" font-family="Arial, sans-serif">
      #7 → #7
      <animate attributeName="opacity" values="0;1" dur="0.5s" begin="1.2s" fill="freeze"/>
    </text>
  </g>
  
  <!-- Total Contributions Card -->
  <g transform="translate(533.3333333333333, 100)">
    <rect width="206.66666666666666" height="120" fill="#ffffff" stroke="#e2e8f0" stroke-width="1" rx="8" filter="url(#shadow)">
      <animate attributeName="opacity" values="0;1" dur="0.6s" begin="0.6s" fill="freeze"/>
      <animateTransform attributeName="transform" type="scale" values="0.8;1" dur="0.6s" begin="0.6s" fill="freeze"/>
    </rect>
    <text x="103.33333333333333" y="25" text-anchor="middle" fill="#64748b" font-size="14" font-weight="bold" font-family="Arial, sans-serif">TOTAL
      <animate attributeName="opacity" values="0;1" dur="0.5s" begin="0.8s" fill="freeze"/>
    </text>
    
    <text x="103.33333333333333" y="50" text-anchor="middle" fill="#22c55e" font-size="32" font-weight="bold" font-family="Arial, sans-serif">
      ↗
      <animate attributeName="opacity" values="0;1" dur="0.5s" begin="1s" fill="freeze"/>
      <animateTransform attributeName="transform" type="scale" values="0;1.2;1" dur="0.8s" begin="1s" fill="freeze"/>
    </text>
    
    <text x="103.33333333333333" y="75" text-anchor="middle" fill="#1e293b" font-size="18" font-weight="bold" font-family="Arial, sans-serif">
      +3
      <animate attributeName="opacity" values="0;1" dur="0.5s" begin="1.2s" fill="freeze"/>
    </text>
    
    <text x="103.33333333333333" y="95" text-anchor="middle" fill="#64748b" font-size="12" font-family="Arial, sans-serif">
      #15 → #12
      <animate attributeName="opacity" values="0;1" dur="0.5s" begin="1.4s" fill="freeze"/>
    </text>
  </g>
  
  <!-- Timeline Charts (if we have snapshots) -->
  
  <!-- 👥 Followers Count Chart -->
  <g transform="translate(60, 250)">
    <!-- Chart Background -->
    <rect x="0" y="0" width="213.33333333333334" height="200" fill="#ffffff" stroke="#e2e8f0" stroke-width="1" rx="8" filter="url(#shadow)">
      <animate attributeName="opacity" values="0;1" dur="0.5s" begin="1.8s" fill="freeze"/>
    </rect>
    
    <!-- Chart Title -->
    <text x="106.66666666666667" y="25" text-anchor="middle" fill="#1e293b" font-size="14" font-weight="bold" font-family="Arial, sans-serif">
      👥 Followers Count
      <animate attributeName="opacity" values="0;1" dur="0.5s" begin="2s" fill="freeze"/>
    </text>
    
    <!-- Y-axis labels -->
    <text x="10" y="45" fill="#64748b" font-size="10" font-family="Arial, sans-serif">154
      <animate attributeName="opacity" values="0;1" dur="0.5s" begin="2.2s" fill="freeze"/>
    </text>
    <text x="10" y="185" fill="#64748b" font-size="10" font-family="Arial, sans-serif">150
      <animate attributeName="opacity" values="0;1" dur="0.5s" begin="2.2s" fill="freeze"/>
    </text>
    
    <!-- Chart Line with draw animation that follows the circle -->
    <path d="M 30,160 L 30.032627388146146,160 L 30.064376829000057,160 L 31.555203000382924,160 L 31.570199773517643,160 L 31.608596529584194,160 L 33.10291657284433,160 L 33.13289220182209,160 L 33.16786675517809,160 L 34.6508989046809,160 L 34.67736274448972,160 L 34.71319732784628,160 L 36.19610405630735,160 L 36.226115519868465,160 L 36.25940584780671,160 L 37.747616094604545,160 L 37.76947519045205,160 L 37.80050793963883,160 L 39.29131619373001,160 L 39.31622122916282,160 L 39.348346933141976,160 L 40.84227279598519,160 L 40.87165715433756,160 L 40.89729679872918,160 L 42.38916217302939,160 L 42.421986651383996,160 L 42.44490286744052,160 L 43.93922291070065,160 L 43.96810558488603,160 L 44.00136007824092,160 L 45.48777859587093,160 L 45.51596249568086,160 L 45.549987432577915,160 L 47.03491881499863,160 L 47.06057637668192,160 L 47.09259457691101,160 L 48.58437036475283,160 L 48.612357174354294,160 L 48.64480538958366,160 L 50.12853631346193,160 L 50.16614470869463,160 L 50.18791421808375,160 L 51.67682323925703,160 L 51.70611801115102,160 L 51.73526944471158,160 L 53.22073834588265,160 L 53.25306114007026,160 L 53.280080415921105,160 L 54.36020642745447,160 L 54.77540382751522,160 L 54.80752953149437,160 L 54.84137529547464,160 L 56.323278655601726,160 L 56.35137296895327,160 L 56.38426911647459,160 L 57.86943342368712,160 L 57.89109542932616,160 L 57.92743169684971,160 L 59.41956583052509,160 L 59.44662094095929,160 L 59.47808370514635,160 L 60.967709417986775,160 L 61.00019346779949,160 L 61.03366296865452,160 L 62.51388210336385,160 L 62.54154640171511,160 L 62.57797225569705,160 L 64.0662541716616,160 L 64.08985124480189,160 L 64.11891309190406,160 L 65.61300021037238,160 L 65.64650554581075,160 L 65.67787872353942,160 L 67.16015834679175,160 L 67.1903131486863,160 L 67.22417682995824,160 L 68.7060264382103,160 L 68.73542871385435,160 L 68.76857570345916,160 L 70.25730555171567,160 L 70.28479067715016,160 L 70.31290290779339,160 L 71.80360365813449,160 L 71.8313933775275,160 L 71.86479120921581,160 L 73.34275276517369,160 L 73.37955488228087,160 L 73.41042637584253,160 L 74.89888746472387,160 L 74.92062113952963,160 L 74.95969875267996,160 L 76.44878694677003,160 L 76.48145016949952,160 L 76.51586928681351,160 L 77.99904477464975,160 L 78.02893081716911,160 L 78.06059067156463,160 L 79.53792512231375,160 L 79.57039125483479,160 L 79.60276780089745,160 L 81.09076304019514,160 L 81.12115076688151,160 L 81.15587447815402,160 L 82.63930080807376,160 L 82.66726970038354,160 L 82.69814119394522,160 L 84.18848359845278,160 L 84.20840762679902,160 L 84.25732183308072,160 L 85.73390375757936,160 L 85.76405855947391,160 L 85.79380126365984,160 L 87.28482452525117,160 L 87.31906446964837,160 L 87.3502226398769,160 L 88.83212600000397,160 L 88.86228080189852,160 L 88.89704034775438,160 L 90.37806576058924,160 L 90.4077009610251,160 L 90.43470231958426,160 L 91.92846692680237,160 L 91.95908757828056,160 L 91.99062201163431,160 L 93.48117942364202,160 L 93.5099904286607,160 L 93.53840725326245,160 L 95.02342822214155,160 L 95.05422804653651,70 L 95.0863179159323,70 L 96.57726950835692,70 L 96.5986448373291,70 L 96.62811878213988,70 L 98.12145337435771,70 L 98.14535504145653,70 L 98.18776527085902,70 L 99.67135285640386,70 L 99.7028335378826,70 L 99.73047991894218,70 L 101.21313580531975,70 L 101.24762659180044,70 L 101.28140068661399,70 L 102.77072180549588,70 L 102.78598733800578,70 L 102.82735836449092,70 L 104.31567611503884,70 L 104.34830350318498,70 L 104.3851593721672,70 L 105.86385553708386,70 L 105.8946016096038,70 L 105.93400173400434,70 L 107.40952653829396,70 L 107.44222559560681,70 L 107.48037150958987,70 L 108.96616292201114,70 L 109.00258877599308,70 L 110.50826838217725,70 L 110.58486480410188,70 L 112.05657322526402,70 L 112.09464747008037,70 L 112.13078664739547,70 L 113.60425096314206,70 L 113.64436777920974,70 L 113.67197832568597,70 L 115.15558382852248,70 L 115.18916083312757,70 L 115.22685881481868,70 L 116.69819097285558,70 L 116.73175006016899,70 L 116.76950179373513,70 L 118.2486100563604,70 L 118.28159579034012,70 L 118.31698244140472,70 L 119.80212883132558,70 L 119.84547075989532,70 L 121.38442277672604,70 L 121.4254533746693,70 L 122.90173070520942,70 L 122.93555855189801,70 L 124.453834014132,70 L 124.48264501915067,70 L 124.53009000751474,70 L 125.99002676804426,70 L 126.0229945847323,70 L 126.05829164933851,70 L 127.53994416738209,70 L 127.57893219407404,70 L 127.6180635590994,70 L 129.0852568227586,70 L 129.11686292527912,70 L 129.15527759863733,70 L 130.63205661334445,70 L 130.66798078315935,70 L 130.71494200464815,70 L 132.1753266974696,70 L 132.21621395707945,70 L 132.25579325439676,70 L 133.73052969785255,70 L 133.76342584537386,70 L 133.80098048873154,70 L 135.27854786427247,70 L 135.3118381922107,70 L 135.3502170309856,70 L 136.8245951286078,70 L 136.8631889748828,70 L 136.90477500886809,70 L 138.3742079339871,70 L 138.40493608921537,70 L 138.44197113111434,70 L 139.92362364915795,70 L 139.9511983610508,70 L 139.98886050815855,70 L 141.4678075151587,70 L 141.50315833163995,70 L 141.54220011020692,70 L 143.01691863637103,70 L 143.05443744514534,70 L 143.09433925371286,70 L 144.56912944904366,70 L 144.59627414593626,70 L 144.63510091700311,70 L 146.11589340504614,70 L 146.15246259736148,70 L 146.18507206821596,70 L 147.6592709929214,70 L 147.69274049377643,70 L 147.7312805881764,70 L 149.20463740017294,70 L 149.2452379831159,70 L 149.28238052876497,70 L 150.75613152117847,70 L 150.78677008994833,70 L 150.8211712899706,70 L 152.31033115322742,70 L 152.34772454095997,70 L 152.38981225911226,70 L 153.8571488611049,70 L 153.8905466927932,70 L 153.9239445244815,70 L 155.40170899023093,70 L 155.43879778400495,70 L 155.47527738986193,70 L 156.94315151060493,70 L 156.98342958229767,70 L 157.0217725864892,70 L 158.48996921848243,70 L 158.5302293728835,70 L 158.57441341416214,70 L 160.05250039116174,70 L 160.08451859139083,70 L 160.12592545245934,70 L 161.59668425716254,70 L 161.6243485555138,70 L 161.65941269532817,70 L 163.14034852170465,70 L 163.17695354860336,70 L 163.21407817696075,70 L 164.6891729662501,70 L 164.72113741460416,70 L 164.76247260650595,70 L 166.2368865387115,70 L 166.26904807727402,70 L 166.30714023938205,70 L 167.7854243065901,70 L 167.8169408226522,70 L 167.85107326329933,70 L 169.33177616488396,40 L 169.36160845552828,40 L 170.87859387276146,40 L 170.9150197267434,40 L 170.9494209267657,40 L 172.42822459543243,40 L 172.45330880378202,40 L 172.49600570985137,40 L 173.98468180623283,40 L 174.02252312625737,40 L 175.5251747101479,40 L 175.5645927518401,40 L 175.61605121354012,40 L 177.07554004177769,40 L 177.11411597076102,40 L 177.13785638223473,40 L 178.62561869674062,40 L 178.66148911468053,40 L 178.69931251741338,40 L 180.17460439691118,40 L 180.20879058943333,40 L 180.24754569133347,40 L 181.72099208978838,40 L 181.75172024501663,40 L 181.790349925875,40 L 183.26890275245825,40 L 183.30140471956264,40 L 183.33333333333334,40" stroke="#22c55e" stroke-width="2" fill="none" stroke-dasharray="14700" stroke-dashoffset="14700">
      <animate attributeName="stroke-dashoffset" values="14700;0" dur="3s" begin="2.6s" fill="freeze"/>
    </path>
    
    <!-- Glow effect for the line that also follows the circle -->
    <path d="M 30,160 L 30.032627388146146,160 L 30.064376829000057,160 L 31.555203000382924,160 L 31.570199773517643,160 L 31.608596529584194,160 L 33.10291657284433,160 L 33.13289220182209,160 L 33.16786675517809,160 L 34.6508989046809,160 L 34.67736274448972,160 L 34.71319732784628,160 L 36.19610405630735,160 L 36.226115519868465,160 L 36.25940584780671,160 L 37.747616094604545,160 L 37.76947519045205,160 L 37.80050793963883,160 L 39.29131619373001,160 L 39.31622122916282,160 L 39.348346933141976,160 L 40.84227279598519,160 L 40.87165715433756,160 L 40.89729679872918,160 L 42.38916217302939,160 L 42.421986651383996,160 L 42.44490286744052,160 L 43.93922291070065,160 L 43.96810558488603,160 L 44.00136007824092,160 L 45.48777859587093,160 L 45.51596249568086,160 L 45.549987432577915,160 L 47.03491881499863,160 L 47.06057637668192,160 L 47.09259457691101,160 L 48.58437036475283,160 L 48.612357174354294,160 L 48.64480538958366,160 L 50.12853631346193,160 L 50.16614470869463,160 L 50.18791421808375,160 L 51.67682323925703,160 L 51.70611801115102,160 L 51.73526944471158,160 L 53.22073834588265,160 L 53.25306114007026,160 L 53.280080415921105,160 L 54.36020642745447,160 L 54.77540382751522,160 L 54.80752953149437,160 L 54.84137529547464,160 L 56.323278655601726,160 L 56.35137296895327,160 L 56.38426911647459,160 L 57.86943342368712,160 L 57.89109542932616,160 L 57.92743169684971,160 L 59.41956583052509,160 L 59.44662094095929,160 L 59.47808370514635,160 L 60.967709417986775,160 L 61.00019346779949,160 L 61.03366296865452,160 L 62.51388210336385,160 L 62.54154640171511,160 L 62.57797225569705,160 L 64.0662541716616,160 L 64.08985124480189,160 L 64.11891309190406,160 L 65.61300021037238,160 L 65.64650554581075,160 L 65.67787872353942,160 L 67.16015834679175,160 L 67.1903131486863,160 L 67.22417682995824,160 L 68.7060264382103,160 L 68.73542871385435,160 L 68.76857570345916,160 L 70.25730555171567,160 L 70.28479067715016,160 L 70.31290290779339,160 L 71.80360365813449,160 L 71.8313933775275,160 L 71.86479120921581,160 L 73.34275276517369,160 L 73.37955488228087,160 L 73.41042637584253,160 L 74.89888746472387,160 L 74.92062113952963,160 L 74.95969875267996,160 L 76.44878694677003,160 L 76.48145016949952,160 L 76.51586928681351,160 L 77.99904477464975,160 L 78.02893081716911,160 L 78.06059067156463,160 L 79.53792512231375,160 L 79.57039125483479,160 L 79.60276780089745,160 L 81.09076304019514,160 L 81.12115076688151,160 L 81.15587447815402,160 L 82.63930080807376,160 L 82.66726970038354,160 L 82.69814119394522,160 L 84.18848359845278,160 L 84.20840762679902,160 L 84.25732183308072,160 L 85.73390375757936,160 L 85.76405855947391,160 L 85.79380126365984,160 L 87.28482452525117,160 L 87.31906446964837,160 L 87.3502226398769,160 L 88.83212600000397,160 L 88.86228080189852,160 L 88.89704034775438,160 L 90.37806576058924,160 L 90.4077009610251,160 L 90.43470231958426,160 L 91.92846692680237,160 L 91.95908757828056,160 L 91.99062201163431,160 L 93.48117942364202,160 L 93.5099904286607,160 L 93.53840725326245,160 L 95.02342822214155,160 L 95.05422804653651,70 L 95.0863179159323,70 L 96.57726950835692,70 L 96.5986448373291,70 L 96.62811878213988,70 L 98.12145337435771,70 L 98.14535504145653,70 L 98.18776527085902,70 L 99.67135285640386,70 L 99.7028335378826,70 L 99.73047991894218,70 L 101.21313580531975,70 L 101.24762659180044,70 L 101.28140068661399,70 L 102.77072180549588,70 L 102.78598733800578,70 L 102.82735836449092,70 L 104.31567611503884,70 L 104.34830350318498,70 L 104.3851593721672,70 L 105.86385553708386,70 L 105.8946016096038,70 L 105.93400173400434,70 L 107.40952653829396,70 L 107.44222559560681,70 L 107.48037150958987,70 L 108.96616292201114,70 L 109.00258877599308,70 L 110.50826838217725,70 L 110.58486480410188,70 L 112.05657322526402,70 L 112.09464747008037,70 L 112.13078664739547,70 L 113.60425096314206,70 L 113.64436777920974,70 L 113.67197832568597,70 L 115.15558382852248,70 L 115.18916083312757,70 L 115.22685881481868,70 L 116.69819097285558,70 L 116.73175006016899,70 L 116.76950179373513,70 L 118.2486100563604,70 L 118.28159579034012,70 L 118.31698244140472,70 L 119.80212883132558,70 L 119.84547075989532,70 L 121.38442277672604,70 L 121.4254533746693,70 L 122.90173070520942,70 L 122.93555855189801,70 L 124.453834014132,70 L 124.48264501915067,70 L 124.53009000751474,70 L 125.99002676804426,70 L 126.0229945847323,70 L 126.05829164933851,70 L 127.53994416738209,70 L 127.57893219407404,70 L 127.6180635590994,70 L 129.0852568227586,70 L 129.11686292527912,70 L 129.15527759863733,70 L 130.63205661334445,70 L 130.66798078315935,70 L 130.71494200464815,70 L 132.1753266974696,70 L 132.21621395707945,70 L 132.25579325439676,70 L 133.73052969785255,70 L 133.76342584537386,70 L 133.80098048873154,70 L 135.27854786427247,70 L 135.3118381922107,70 L 135.3502170309856,70 L 136.8245951286078,70 L 136.8631889748828,70 L 136.90477500886809,70 L 138.3742079339871,70 L 138.40493608921537,70 L 138.44197113111434,70 L 139.92362364915795,70 L 139.9511983610508,70 L 139.98886050815855,70 L 141.4678075151587,70 L 141.50315833163995,70 L 141.54220011020692,70 L 143.01691863637103,70 L 143.05443744514534,70 L 143.09433925371286,70 L 144.56912944904366,70 L 144.59627414593626,70 L 144.63510091700311,70 L 146.11589340504614,70 L 146.15246259736148,70 L 146.18507206821596,70 L 147.6592709929214,70 L 147.69274049377643,70 L 147.7312805881764,70 L 149.20463740017294,70 L 149.2452379831159,70 L 149.28238052876497,70 L 150.75613152117847,70 L 150.78677008994833,70 L 150.8211712899706,70 L 152.31033115322742,70 L 152.34772454095997,70 L 152.38981225911226,70 L 153.8571488611049,70 L 153.8905466927932,70 L 153.9239445244815,70 L 155.40170899023093,70 L 155.43879778400495,70 L 155.47527738986193,70 L 156.94315151060493,70 L 156.98342958229767,70 L 157.0217725864892,70 L 158.48996921848243,70 L 158.5302293728835,70 L 158.57441341416214,70 L 160.05250039116174,70 L 160.08451859139083,70 L 160.12592545245934,70 L 161.59668425716254,70 L 161.6243485555138,70 L 161.65941269532817,70 L 163.14034852170465,70 L 163.17695354860336,70 L 163.21407817696075,70 L 164.6891729662501,70 L 164.72113741460416,70 L 164.76247260650595,70 L 166.2368865387115,70 L 166.26904807727402,70 L 166.30714023938205,70 L 167.7854243065901,70 L 167.8169408226522,70 L 167.85107326329933,70 L 169.33177616488396,40 L 169.36160845552828,40 L 170.87859387276146,40 L 170.9150197267434,40 L 170.9494209267657,40 L 172.42822459543243,40 L 172.45330880378202,40 L 172.49600570985137,40 L 173.98468180623283,40 L 174.02252312625737,40 L 175.5251747101479,40 L 175.5645927518401,40 L 175.61605121354012,40 L 177.07554004177769,40 L 177.11411597076102,40 L 177.13785638223473,40 L 178.62561869674062,40 L 178.66148911468053,40 L 178.69931251741338,40 L 180.17460439691118,40 L 180.20879058943333,40 L 180.24754569133347,40 L 181.72099208978838,40 L 181.75172024501663,40 L 181.790349925875,40 L 183.26890275245825,40 L 183.30140471956264,40 L 183.33333333333334,40" stroke="#22c55e" stroke-width="4" fill="none" opacity="0.4" stroke-dasharray="14700" stroke-dashoffset="14700">
      <animate attributeName="stroke-dashoffset" values="14700;0" dur="3s" begin="2.6s" fill="freeze"/>
    </path>
    
    <!-- Animated circle that moves along the path and draws the line -->
    <circle r="5" fill="#22c55e" opacity="0" filter="url(#trailGlow)">
      <animate attributeName="opacity" values="0;1;1;1" dur="3.2s" begin="2.4s" fill="freeze"/>
      <animate attributeName="r" values="5;6;5" dur="1s" begin="2.4s" repeatCount="3"/>
      <animateMotion dur="3s" begin="2.4s" fill="freeze">
        <mpath href="#path_followersCount_60"/>
      </animateMotion>
    </circle>
    
    <!-- Small trail dots that fade out -->
    <circle r="2" fill="#22c55e" opacity="0">
      <animate attributeName="opacity" values="0;0.6;0" dur="0.8s" begin="2.8s" fill="freeze"/>
      <animateMotion dur="3s" begin="2.4s" fill="freeze">
        <mpath href="#path_followersCount_60"/>
      </animateMotion>
    </circle>
    
    <!-- Hidden path for motion animation -->
    <path id="path_followersCount_60" d="M 30,160 L 30.032627388146146,160 L 30.064376829000057,160 L 31.555203000382924,160 L 31.570199773517643,160 L 31.608596529584194,160 L 33.10291657284433,160 L 33.13289220182209,160 L 33.16786675517809,160 L 34.6508989046809,160 L 34.67736274448972,160 L 34.71319732784628,160 L 36.19610405630735,160 L 36.226115519868465,160 L 36.25940584780671,160 L 37.747616094604545,160 L 37.76947519045205,160 L 37.80050793963883,160 L 39.29131619373001,160 L 39.31622122916282,160 L 39.348346933141976,160 L 40.84227279598519,160 L 40.87165715433756,160 L 40.89729679872918,160 L 42.38916217302939,160 L 42.421986651383996,160 L 42.44490286744052,160 L 43.93922291070065,160 L 43.96810558488603,160 L 44.00136007824092,160 L 45.48777859587093,160 L 45.51596249568086,160 L 45.549987432577915,160 L 47.03491881499863,160 L 47.06057637668192,160 L 47.09259457691101,160 L 48.58437036475283,160 L 48.612357174354294,160 L 48.64480538958366,160 L 50.12853631346193,160 L 50.16614470869463,160 L 50.18791421808375,160 L 51.67682323925703,160 L 51.70611801115102,160 L 51.73526944471158,160 L 53.22073834588265,160 L 53.25306114007026,160 L 53.280080415921105,160 L 54.36020642745447,160 L 54.77540382751522,160 L 54.80752953149437,160 L 54.84137529547464,160 L 56.323278655601726,160 L 56.35137296895327,160 L 56.38426911647459,160 L 57.86943342368712,160 L 57.89109542932616,160 L 57.92743169684971,160 L 59.41956583052509,160 L 59.44662094095929,160 L 59.47808370514635,160 L 60.967709417986775,160 L 61.00019346779949,160 L 61.03366296865452,160 L 62.51388210336385,160 L 62.54154640171511,160 L 62.57797225569705,160 L 64.0662541716616,160 L 64.08985124480189,160 L 64.11891309190406,160 L 65.61300021037238,160 L 65.64650554581075,160 L 65.67787872353942,160 L 67.16015834679175,160 L 67.1903131486863,160 L 67.22417682995824,160 L 68.7060264382103,160 L 68.73542871385435,160 L 68.76857570345916,160 L 70.25730555171567,160 L 70.28479067715016,160 L 70.31290290779339,160 L 71.80360365813449,160 L 71.8313933775275,160 L 71.86479120921581,160 L 73.34275276517369,160 L 73.37955488228087,160 L 73.41042637584253,160 L 74.89888746472387,160 L 74.92062113952963,160 L 74.95969875267996,160 L 76.44878694677003,160 L 76.48145016949952,160 L 76.51586928681351,160 L 77.99904477464975,160 L 78.02893081716911,160 L 78.06059067156463,160 L 79.53792512231375,160 L 79.57039125483479,160 L 79.60276780089745,160 L 81.09076304019514,160 L 81.12115076688151,160 L 81.15587447815402,160 L 82.63930080807376,160 L 82.66726970038354,160 L 82.69814119394522,160 L 84.18848359845278,160 L 84.20840762679902,160 L 84.25732183308072,160 L 85.73390375757936,160 L 85.76405855947391,160 L 85.79380126365984,160 L 87.28482452525117,160 L 87.31906446964837,160 L 87.3502226398769,160 L 88.83212600000397,160 L 88.86228080189852,160 L 88.89704034775438,160 L 90.37806576058924,160 L 90.4077009610251,160 L 90.43470231958426,160 L 91.92846692680237,160 L 91.95908757828056,160 L 91.99062201163431,160 L 93.48117942364202,160 L 93.5099904286607,160 L 93.53840725326245,160 L 95.02342822214155,160 L 95.05422804653651,70 L 95.0863179159323,70 L 96.57726950835692,70 L 96.5986448373291,70 L 96.62811878213988,70 L 98.12145337435771,70 L 98.14535504145653,70 L 98.18776527085902,70 L 99.67135285640386,70 L 99.7028335378826,70 L 99.73047991894218,70 L 101.21313580531975,70 L 101.24762659180044,70 L 101.28140068661399,70 L 102.77072180549588,70 L 102.78598733800578,70 L 102.82735836449092,70 L 104.31567611503884,70 L 104.34830350318498,70 L 104.3851593721672,70 L 105.86385553708386,70 L 105.8946016096038,70 L 105.93400173400434,70 L 107.40952653829396,70 L 107.44222559560681,70 L 107.48037150958987,70 L 108.96616292201114,70 L 109.00258877599308,70 L 110.50826838217725,70 L 110.58486480410188,70 L 112.05657322526402,70 L 112.09464747008037,70 L 112.13078664739547,70 L 113.60425096314206,70 L 113.64436777920974,70 L 113.67197832568597,70 L 115.15558382852248,70 L 115.18916083312757,70 L 115.22685881481868,70 L 116.69819097285558,70 L 116.73175006016899,70 L 116.76950179373513,70 L 118.2486100563604,70 L 118.28159579034012,70 L 118.31698244140472,70 L 119.80212883132558,70 L 119.84547075989532,70 L 121.38442277672604,70 L 121.4254533746693,70 L 122.90173070520942,70 L 122.93555855189801,70 L 124.453834014132,70 L 124.48264501915067,70 L 124.53009000751474,70 L 125.99002676804426,70 L 126.0229945847323,70 L 126.05829164933851,70 L 127.53994416738209,70 L 127.57893219407404,70 L 127.6180635590994,70 L 129.0852568227586,70 L 129.11686292527912,70 L 129.15527759863733,70 L 130.63205661334445,70 L 130.66798078315935,70 L 130.71494200464815,70 L 132.1753266974696,70 L 132.21621395707945,70 L 132.25579325439676,70 L 133.73052969785255,70 L 133.76342584537386,70 L 133.80098048873154,70 L 135.27854786427247,70 L 135.3118381922107,70 L 135.3502170309856,70 L 136.8245951286078,70 L 136.8631889748828,70 L 136.90477500886809,70 L 138.3742079339871,70 L 138.40493608921537,70 L 138.44197113111434,70 L 139.92362364915795,70 L 139.9511983610508,70 L 139.98886050815855,70 L 141.4678075151587,70 L 141.50315833163995,70 L 141.54220011020692,70 L 143.01691863637103,70 L 143.05443744514534,70 L 143.09433925371286,70 L 144.56912944904366,70 L 144.59627414593626,70 L 144.63510091700311,70 L 146.11589340504614,70 L 146.15246259736148,70 L 146.18507206821596,70 L 147.6592709929214,70 L 147.69274049377643,70 L 147.7312805881764,70 L 149.20463740017294,70 L 149.2452379831159,70 L 149.28238052876497,70 L 150.75613152117847,70 L 150.78677008994833,70 L 150.8211712899706,70 L 152.31033115322742,70 L 152.34772454095997,70 L 152.38981225911226,70 L 153.8571488611049,70 L 153.8905466927932,70 L 153.9239445244815,70 L 155.40170899023093,70 L 155.43879778400495,70 L 155.47527738986193,70 L 156.94315151060493,70 L 156.98342958229767,70 L 157.0217725864892,70 L 158.48996921848243,70 L 158.5302293728835,70 L 158.57441341416214,70 L 160.05250039116174,70 L 160.08451859139083,70 L 160.12592545245934,70 L 161.59668425716254,70 L 161.6243485555138,70 L 161.65941269532817,70 L 163.14034852170465,70 L 163.17695354860336,70 L 163.21407817696075,70 L 164.6891729662501,70 L 164.72113741460416,70 L 164.76247260650595,70 L 166.2368865387115,70 L 166.26904807727402,70 L 166.30714023938205,70 L 167.7854243065901,70 L 167.8169408226522,70 L 167.85107326329933,70 L 169.33177616488396,40 L 169.36160845552828,40 L 170.87859387276146,40 L 170.9150197267434,40 L 170.9494209267657,40 L 172.42822459543243,40 L 172.45330880378202,40 L 172.49600570985137,40 L 173.98468180623283,40 L 174.02252312625737,40 L 175.5251747101479,40 L 175.5645927518401,40 L 175.61605121354012,40 L 177.07554004177769,40 L 177.11411597076102,40 L 177.13785638223473,40 L 178.62561869674062,40 L 178.66148911468053,40 L 178.69931251741338,40 L 180.17460439691118,40 L 180.20879058943333,40 L 180.24754569133347,40 L 181.72099208978838,40 L 181.75172024501663,40 L 181.790349925875,40 L 183.26890275245825,40 L 183.30140471956264,40 L 183.33333333333334,40" fill="none" stroke="none"/>
  </g>
  <!-- 🔓 Public Contributions Chart -->
  <g transform="translate(293.33333333333337, 250)">
    <!-- Chart Background -->
    <rect x="0" y="0" width="213.33333333333334" height="200" fill="#ffffff" stroke="#e2e8f0" stroke-width="1" rx="8" filter="url(#shadow)">
      <animate attributeName="opacity" values="0;1" dur="0.5s" begin="2.3s" fill="freeze"/>
    </rect>
    
    <!-- Chart Title -->
    <text x="106.66666666666667" y="25" text-anchor="middle" fill="#1e293b" font-size="14" font-weight="bold" font-family="Arial, sans-serif">
      🔓 Public Contributions
      <animate attributeName="opacity" values="0;1" dur="0.5s" begin="2.5s" fill="freeze"/>
    </text>
    
    <!-- Y-axis labels -->
    <text x="10" y="45" fill="#64748b" font-size="10" font-family="Arial, sans-serif">3,861
      <animate attributeName="opacity" values="0;1" dur="0.5s" begin="2.6999999999999997s" fill="freeze"/>
    </text>
    <text x="10" y="185" fill="#64748b" font-size="10" font-family="Arial, sans-serif">3,434
      <animate attributeName="opacity" values="0;1" dur="0.5s" begin="2.6999999999999997s" fill="freeze"/>
    </text>
    
    <!-- Chart Line with draw animation that follows the circle -->
    <path d="M 30,160 L 30.032627388146146,160 L 30.064376829000057,160 L 31.555203000382924,160 L 31.570199773517643,160 L 31.608596529584194,160 L 33.10291657284433,160 L 33.13289220182209,160 L 33.16786675517809,160 L 34.6508989046809,160 L 34.67736274448972,160 L 34.71319732784628,160 L 36.19610405630735,160 L 36.226115519868465,160 L 36.25940584780671,160 L 37.747616094604545,160 L 37.76947519045205,160 L 37.80050793963883,160 L 39.29131619373001,160 L 39.31622122916282,160 L 39.348346933141976,160 L 40.84227279598519,160 L 40.87165715433756,160 L 40.89729679872918,160 L 42.38916217302939,160 L 42.421986651383996,160 L 42.44490286744052,160 L 43.93922291070065,160 L 43.96810558488603,160 L 44.00136007824092,160 L 45.48777859587093,160 L 45.51596249568086,160 L 45.549987432577915,160 L 47.03491881499863,160 L 47.06057637668192,160 L 47.09259457691101,160 L 48.58437036475283,160 L 48.612357174354294,160 L 48.64480538958366,160 L 50.12853631346193,160 L 50.16614470869463,160 L 50.18791421808375,160 L 51.67682323925703,160 L 51.70611801115102,160 L 51.73526944471158,160 L 53.22073834588265,160 L 53.25306114007026,160 L 53.280080415921105,160 L 54.36020642745447,160 L 54.77540382751522,160 L 54.80752953149437,160 L 54.84137529547464,160 L 56.323278655601726,160 L 56.35137296895327,160 L 56.38426911647459,160 L 57.86943342368712,160 L 57.89109542932616,160 L 57.92743169684971,160 L 59.41956583052509,160 L 59.44662094095929,160 L 59.47808370514635,160 L 60.967709417986775,160 L 61.00019346779949,160 L 61.03366296865452,160 L 62.51388210336385,160 L 62.54154640171511,160 L 62.57797225569705,160 L 64.0662541716616,160 L 64.08985124480189,160 L 64.11891309190406,160 L 65.61300021037238,160 L 65.64650554581075,160 L 65.67787872353942,160 L 67.16015834679175,160 L 67.1903131486863,160 L 67.22417682995824,160 L 68.7060264382103,160 L 68.73542871385435,160 L 68.76857570345916,160 L 70.25730555171567,160 L 70.28479067715016,160 L 70.31290290779339,160 L 71.80360365813449,160 L 71.8313933775275,160 L 71.86479120921581,160 L 73.34275276517369,160 L 73.37955488228087,160 L 73.41042637584253,160 L 74.89888746472387,160 L 74.92062113952963,160 L 74.95969875267996,160 L 76.44878694677003,160 L 76.48145016949952,160 L 76.51586928681351,160 L 77.99904477464975,160 L 78.02893081716911,160 L 78.06059067156463,160 L 79.53792512231375,160 L 79.57039125483479,160 L 79.60276780089745,160 L 81.09076304019514,160 L 81.12115076688151,160 L 81.15587447815402,160 L 82.63930080807376,160 L 82.66726970038354,160 L 82.69814119394522,160 L 84.18848359845278,160 L 84.20840762679902,160 L 84.25732183308072,160 L 85.73390375757936,160 L 85.76405855947391,160 L 85.79380126365984,160 L 87.28482452525117,160 L 87.31906446964837,160 L 87.3502226398769,160 L 88.83212600000397,160 L 88.86228080189852,160 L 88.89704034775438,160 L 90.37806576058924,160 L 90.4077009610251,160 L 90.43470231958426,160 L 91.92846692680237,160 L 91.95908757828056,160 L 91.99062201163431,160 L 93.48117942364202,160 L 93.5099904286607,160 L 93.53840725326245,160 L 95.02342822214155,160 L 95.05422804653651,40 L 95.0863179159323,40 L 96.57726950835692,40 L 96.5986448373291,40 L 96.62811878213988,40 L 98.12145337435771,40 L 98.14535504145653,40 L 98.18776527085902,40 L 99.67135285640386,40 L 99.7028335378826,40 L 99.73047991894218,40 L 101.21313580531975,40 L 101.24762659180044,40 L 101.28140068661399,40 L 102.77072180549588,40 L 102.78598733800578,40 L 102.82735836449092,40 L 104.31567611503884,40 L 104.34830350318498,40 L 104.3851593721672,40 L 105.86385553708386,40 L 105.8946016096038,40 L 105.93400173400434,40 L 107.40952653829396,40 L 107.44222559560681,40 L 107.48037150958987,40 L 108.96616292201114,40 L 109.00258877599308,40 L 110.50826838217725,40 L 110.58486480410188,40 L 112.05657322526402,40 L 112.09464747008037,40 L 112.13078664739547,40 L 113.60425096314206,40 L 113.64436777920974,40 L 113.67197832568597,40 L 115.15558382852248,40 L 115.18916083312757,40 L 115.22685881481868,40 L 116.69819097285558,40 L 116.73175006016899,40 L 116.76950179373513,40 L 118.2486100563604,40 L 118.28159579034012,40 L 118.31698244140472,40 L 119.80212883132558,40 L 119.84547075989532,40 L 121.38442277672604,40 L 121.4254533746693,40 L 122.90173070520942,40 L 122.93555855189801,40 L 124.453834014132,40 L 124.48264501915067,40 L 124.53009000751474,40 L 125.99002676804426,40 L 126.0229945847323,40 L 126.05829164933851,40 L 127.53994416738209,40 L 127.57893219407404,40 L 127.6180635590994,40 L 129.0852568227586,40 L 129.11686292527912,40 L 129.15527759863733,40 L 130.63205661334445,40 L 130.66798078315935,40 L 130.71494200464815,40 L 132.1753266974696,40 L 132.21621395707945,40 L 132.25579325439676,40 L 133.73052969785255,40 L 133.76342584537386,40 L 133.80098048873154,40 L 135.27854786427247,40 L 135.3118381922107,40 L 135.3502170309856,40 L 136.8245951286078,40 L 136.8631889748828,40 L 136.90477500886809,40 L 138.3742079339871,40 L 138.40493608921537,40 L 138.44197113111434,40 L 139.92362364915795,40 L 139.9511983610508,40 L 139.98886050815855,40 L 141.4678075151587,40 L 141.50315833163995,40 L 141.54220011020692,40 L 143.01691863637103,40 L 143.05443744514534,40 L 143.09433925371286,40 L 144.56912944904366,40 L 144.59627414593626,40 L 144.63510091700311,40 L 146.11589340504614,40 L 146.15246259736148,40 L 146.18507206821596,40 L 147.6592709929214,40 L 147.69274049377643,40 L 147.7312805881764,40 L 149.20463740017294,40 L 149.2452379831159,40 L 149.28238052876497,40 L 150.75613152117847,40 L 150.78677008994833,40 L 150.8211712899706,40 L 152.31033115322742,40 L 152.34772454095997,40 L 152.38981225911226,40 L 153.8571488611049,40 L 153.8905466927932,40 L 153.9239445244815,40 L 155.40170899023093,40 L 155.43879778400495,40 L 155.47527738986193,40 L 156.94315151060493,40 L 156.98342958229767,40 L 157.0217725864892,40 L 158.48996921848243,40 L 158.5302293728835,40 L 158.57441341416214,40 L 160.05250039116174,40 L 160.08451859139083,40 L 160.12592545245934,40 L 161.59668425716254,40 L 161.6243485555138,40 L 161.65941269532817,40 L 163.14034852170465,40 L 163.17695354860336,40 L 163.21407817696075,40 L 164.6891729662501,40 L 164.72113741460416,40 L 164.76247260650595,40 L 166.2368865387115,40 L 166.26904807727402,40 L 166.30714023938205,40 L 167.7854243065901,40 L 167.8169408226522,40 L 167.85107326329933,40 L 169.33177616488396,66.4168618266979 L 169.36160845552828,66.4168618266979 L 170.87859387276146,66.4168618266979 L 170.9150197267434,66.4168618266979 L 170.9494209267657,66.4168618266979 L 172.42822459543243,66.4168618266979 L 172.45330880378202,66.4168618266979 L 172.49600570985137,66.4168618266979 L 173.98468180623283,66.4168618266979 L 174.02252312625737,66.4168618266979 L 175.5251747101479,66.4168618266979 L 175.5645927518401,66.4168618266979 L 175.61605121354012,66.4168618266979 L 177.07554004177769,66.4168618266979 L 177.11411597076102,66.4168618266979 L 177.13785638223473,66.4168618266979 L 178.62561869674062,66.4168618266979 L 178.66148911468053,66.4168618266979 L 178.69931251741338,66.4168618266979 L 180.17460439691118,66.4168618266979 L 180.20879058943333,66.4168618266979 L 180.24754569133347,66.4168618266979 L 181.72099208978838,66.4168618266979 L 181.75172024501663,66.4168618266979 L 181.790349925875,66.4168618266979 L 183.26890275245825,66.4168618266979 L 183.30140471956264,66.4168618266979 L 183.33333333333334,66.4168618266979" stroke="#3b82f6" stroke-width="2" fill="none" stroke-dasharray="14700" stroke-dashoffset="14700">
      <animate attributeName="stroke-dashoffset" values="14700;0" dur="3s" begin="3.0999999999999996s" fill="freeze"/>
    </path>
    
    <!-- Glow effect for the line that also follows the circle -->
    <path d="M 30,160 L 30.032627388146146,160 L 30.064376829000057,160 L 31.555203000382924,160 L 31.570199773517643,160 L 31.608596529584194,160 L 33.10291657284433,160 L 33.13289220182209,160 L 33.16786675517809,160 L 34.6508989046809,160 L 34.67736274448972,160 L 34.71319732784628,160 L 36.19610405630735,160 L 36.226115519868465,160 L 36.25940584780671,160 L 37.747616094604545,160 L 37.76947519045205,160 L 37.80050793963883,160 L 39.29131619373001,160 L 39.31622122916282,160 L 39.348346933141976,160 L 40.84227279598519,160 L 40.87165715433756,160 L 40.89729679872918,160 L 42.38916217302939,160 L 42.421986651383996,160 L 42.44490286744052,160 L 43.93922291070065,160 L 43.96810558488603,160 L 44.00136007824092,160 L 45.48777859587093,160 L 45.51596249568086,160 L 45.549987432577915,160 L 47.03491881499863,160 L 47.06057637668192,160 L 47.09259457691101,160 L 48.58437036475283,160 L 48.612357174354294,160 L 48.64480538958366,160 L 50.12853631346193,160 L 50.16614470869463,160 L 50.18791421808375,160 L 51.67682323925703,160 L 51.70611801115102,160 L 51.73526944471158,160 L 53.22073834588265,160 L 53.25306114007026,160 L 53.280080415921105,160 L 54.36020642745447,160 L 54.77540382751522,160 L 54.80752953149437,160 L 54.84137529547464,160 L 56.323278655601726,160 L 56.35137296895327,160 L 56.38426911647459,160 L 57.86943342368712,160 L 57.89109542932616,160 L 57.92743169684971,160 L 59.41956583052509,160 L 59.44662094095929,160 L 59.47808370514635,160 L 60.967709417986775,160 L 61.00019346779949,160 L 61.03366296865452,160 L 62.51388210336385,160 L 62.54154640171511,160 L 62.57797225569705,160 L 64.0662541716616,160 L 64.08985124480189,160 L 64.11891309190406,160 L 65.61300021037238,160 L 65.64650554581075,160 L 65.67787872353942,160 L 67.16015834679175,160 L 67.1903131486863,160 L 67.22417682995824,160 L 68.7060264382103,160 L 68.73542871385435,160 L 68.76857570345916,160 L 70.25730555171567,160 L 70.28479067715016,160 L 70.31290290779339,160 L 71.80360365813449,160 L 71.8313933775275,160 L 71.86479120921581,160 L 73.34275276517369,160 L 73.37955488228087,160 L 73.41042637584253,160 L 74.89888746472387,160 L 74.92062113952963,160 L 74.95969875267996,160 L 76.44878694677003,160 L 76.48145016949952,160 L 76.51586928681351,160 L 77.99904477464975,160 L 78.02893081716911,160 L 78.06059067156463,160 L 79.53792512231375,160 L 79.57039125483479,160 L 79.60276780089745,160 L 81.09076304019514,160 L 81.12115076688151,160 L 81.15587447815402,160 L 82.63930080807376,160 L 82.66726970038354,160 L 82.69814119394522,160 L 84.18848359845278,160 L 84.20840762679902,160 L 84.25732183308072,160 L 85.73390375757936,160 L 85.76405855947391,160 L 85.79380126365984,160 L 87.28482452525117,160 L 87.31906446964837,160 L 87.3502226398769,160 L 88.83212600000397,160 L 88.86228080189852,160 L 88.89704034775438,160 L 90.37806576058924,160 L 90.4077009610251,160 L 90.43470231958426,160 L 91.92846692680237,160 L 91.95908757828056,160 L 91.99062201163431,160 L 93.48117942364202,160 L 93.5099904286607,160 L 93.53840725326245,160 L 95.02342822214155,160 L 95.05422804653651,40 L 95.0863179159323,40 L 96.57726950835692,40 L 96.5986448373291,40 L 96.62811878213988,40 L 98.12145337435771,40 L 98.14535504145653,40 L 98.18776527085902,40 L 99.67135285640386,40 L 99.7028335378826,40 L 99.73047991894218,40 L 101.21313580531975,40 L 101.24762659180044,40 L 101.28140068661399,40 L 102.77072180549588,40 L 102.78598733800578,40 L 102.82735836449092,40 L 104.31567611503884,40 L 104.34830350318498,40 L 104.3851593721672,40 L 105.86385553708386,40 L 105.8946016096038,40 L 105.93400173400434,40 L 107.40952653829396,40 L 107.44222559560681,40 L 107.48037150958987,40 L 108.96616292201114,40 L 109.00258877599308,40 L 110.50826838217725,40 L 110.58486480410188,40 L 112.05657322526402,40 L 112.09464747008037,40 L 112.13078664739547,40 L 113.60425096314206,40 L 113.64436777920974,40 L 113.67197832568597,40 L 115.15558382852248,40 L 115.18916083312757,40 L 115.22685881481868,40 L 116.69819097285558,40 L 116.73175006016899,40 L 116.76950179373513,40 L 118.2486100563604,40 L 118.28159579034012,40 L 118.31698244140472,40 L 119.80212883132558,40 L 119.84547075989532,40 L 121.38442277672604,40 L 121.4254533746693,40 L 122.90173070520942,40 L 122.93555855189801,40 L 124.453834014132,40 L 124.48264501915067,40 L 124.53009000751474,40 L 125.99002676804426,40 L 126.0229945847323,40 L 126.05829164933851,40 L 127.53994416738209,40 L 127.57893219407404,40 L 127.6180635590994,40 L 129.0852568227586,40 L 129.11686292527912,40 L 129.15527759863733,40 L 130.63205661334445,40 L 130.66798078315935,40 L 130.71494200464815,40 L 132.1753266974696,40 L 132.21621395707945,40 L 132.25579325439676,40 L 133.73052969785255,40 L 133.76342584537386,40 L 133.80098048873154,40 L 135.27854786427247,40 L 135.3118381922107,40 L 135.3502170309856,40 L 136.8245951286078,40 L 136.8631889748828,40 L 136.90477500886809,40 L 138.3742079339871,40 L 138.40493608921537,40 L 138.44197113111434,40 L 139.92362364915795,40 L 139.9511983610508,40 L 139.98886050815855,40 L 141.4678075151587,40 L 141.50315833163995,40 L 141.54220011020692,40 L 143.01691863637103,40 L 143.05443744514534,40 L 143.09433925371286,40 L 144.56912944904366,40 L 144.59627414593626,40 L 144.63510091700311,40 L 146.11589340504614,40 L 146.15246259736148,40 L 146.18507206821596,40 L 147.6592709929214,40 L 147.69274049377643,40 L 147.7312805881764,40 L 149.20463740017294,40 L 149.2452379831159,40 L 149.28238052876497,40 L 150.75613152117847,40 L 150.78677008994833,40 L 150.8211712899706,40 L 152.31033115322742,40 L 152.34772454095997,40 L 152.38981225911226,40 L 153.8571488611049,40 L 153.8905466927932,40 L 153.9239445244815,40 L 155.40170899023093,40 L 155.43879778400495,40 L 155.47527738986193,40 L 156.94315151060493,40 L 156.98342958229767,40 L 157.0217725864892,40 L 158.48996921848243,40 L 158.5302293728835,40 L 158.57441341416214,40 L 160.05250039116174,40 L 160.08451859139083,40 L 160.12592545245934,40 L 161.59668425716254,40 L 161.6243485555138,40 L 161.65941269532817,40 L 163.14034852170465,40 L 163.17695354860336,40 L 163.21407817696075,40 L 164.6891729662501,40 L 164.72113741460416,40 L 164.76247260650595,40 L 166.2368865387115,40 L 166.26904807727402,40 L 166.30714023938205,40 L 167.7854243065901,40 L 167.8169408226522,40 L 167.85107326329933,40 L 169.33177616488396,66.4168618266979 L 169.36160845552828,66.4168618266979 L 170.87859387276146,66.4168618266979 L 170.9150197267434,66.4168618266979 L 170.9494209267657,66.4168618266979 L 172.42822459543243,66.4168618266979 L 172.45330880378202,66.4168618266979 L 172.49600570985137,66.4168618266979 L 173.98468180623283,66.4168618266979 L 174.02252312625737,66.4168618266979 L 175.5251747101479,66.4168618266979 L 175.5645927518401,66.4168618266979 L 175.61605121354012,66.4168618266979 L 177.07554004177769,66.4168618266979 L 177.11411597076102,66.4168618266979 L 177.13785638223473,66.4168618266979 L 178.62561869674062,66.4168618266979 L 178.66148911468053,66.4168618266979 L 178.69931251741338,66.4168618266979 L 180.17460439691118,66.4168618266979 L 180.20879058943333,66.4168618266979 L 180.24754569133347,66.4168618266979 L 181.72099208978838,66.4168618266979 L 181.75172024501663,66.4168618266979 L 181.790349925875,66.4168618266979 L 183.26890275245825,66.4168618266979 L 183.30140471956264,66.4168618266979 L 183.33333333333334,66.4168618266979" stroke="#3b82f6" stroke-width="4" fill="none" opacity="0.4" stroke-dasharray="14700" stroke-dashoffset="14700">
      <animate attributeName="stroke-dashoffset" values="14700;0" dur="3s" begin="3.0999999999999996s" fill="freeze"/>
    </path>
    
    <!-- Animated circle that moves along the path and draws the line -->
    <circle r="5" fill="#3b82f6" opacity="0" filter="url(#trailGlow)">
      <animate attributeName="opacity" values="0;1;1;1" dur="3.2s" begin="2.9s" fill="freeze"/>
      <animate attributeName="r" values="5;6;5" dur="1s" begin="2.9s" repeatCount="3"/>
      <animateMotion dur="3s" begin="2.9s" fill="freeze">
        <mpath href="#path_publicContributions_293.33333333333337"/>
      </animateMotion>
    </circle>
    
    <!-- Small trail dots that fade out -->
    <circle r="2" fill="#3b82f6" opacity="0">
      <animate attributeName="opacity" values="0;0.6;0" dur="0.8s" begin="3.3s" fill="freeze"/>
      <animateMotion dur="3s" begin="2.9s" fill="freeze">
        <mpath href="#path_publicContributions_293.33333333333337"/>
      </animateMotion>
    </circle>
    
    <!-- Hidden path for motion animation -->
    <path id="path_publicContributions_293.33333333333337" d="M 30,160 L 30.032627388146146,160 L 30.064376829000057,160 L 31.555203000382924,160 L 31.570199773517643,160 L 31.608596529584194,160 L 33.10291657284433,160 L 33.13289220182209,160 L 33.16786675517809,160 L 34.6508989046809,160 L 34.67736274448972,160 L 34.71319732784628,160 L 36.19610405630735,160 L 36.226115519868465,160 L 36.25940584780671,160 L 37.747616094604545,160 L 37.76947519045205,160 L 37.80050793963883,160 L 39.29131619373001,160 L 39.31622122916282,160 L 39.348346933141976,160 L 40.84227279598519,160 L 40.87165715433756,160 L 40.89729679872918,160 L 42.38916217302939,160 L 42.421986651383996,160 L 42.44490286744052,160 L 43.93922291070065,160 L 43.96810558488603,160 L 44.00136007824092,160 L 45.48777859587093,160 L 45.51596249568086,160 L 45.549987432577915,160 L 47.03491881499863,160 L 47.06057637668192,160 L 47.09259457691101,160 L 48.58437036475283,160 L 48.612357174354294,160 L 48.64480538958366,160 L 50.12853631346193,160 L 50.16614470869463,160 L 50.18791421808375,160 L 51.67682323925703,160 L 51.70611801115102,160 L 51.73526944471158,160 L 53.22073834588265,160 L 53.25306114007026,160 L 53.280080415921105,160 L 54.36020642745447,160 L 54.77540382751522,160 L 54.80752953149437,160 L 54.84137529547464,160 L 56.323278655601726,160 L 56.35137296895327,160 L 56.38426911647459,160 L 57.86943342368712,160 L 57.89109542932616,160 L 57.92743169684971,160 L 59.41956583052509,160 L 59.44662094095929,160 L 59.47808370514635,160 L 60.967709417986775,160 L 61.00019346779949,160 L 61.03366296865452,160 L 62.51388210336385,160 L 62.54154640171511,160 L 62.57797225569705,160 L 64.0662541716616,160 L 64.08985124480189,160 L 64.11891309190406,160 L 65.61300021037238,160 L 65.64650554581075,160 L 65.67787872353942,160 L 67.16015834679175,160 L 67.1903131486863,160 L 67.22417682995824,160 L 68.7060264382103,160 L 68.73542871385435,160 L 68.76857570345916,160 L 70.25730555171567,160 L 70.28479067715016,160 L 70.31290290779339,160 L 71.80360365813449,160 L 71.8313933775275,160 L 71.86479120921581,160 L 73.34275276517369,160 L 73.37955488228087,160 L 73.41042637584253,160 L 74.89888746472387,160 L 74.92062113952963,160 L 74.95969875267996,160 L 76.44878694677003,160 L 76.48145016949952,160 L 76.51586928681351,160 L 77.99904477464975,160 L 78.02893081716911,160 L 78.06059067156463,160 L 79.53792512231375,160 L 79.57039125483479,160 L 79.60276780089745,160 L 81.09076304019514,160 L 81.12115076688151,160 L 81.15587447815402,160 L 82.63930080807376,160 L 82.66726970038354,160 L 82.69814119394522,160 L 84.18848359845278,160 L 84.20840762679902,160 L 84.25732183308072,160 L 85.73390375757936,160 L 85.76405855947391,160 L 85.79380126365984,160 L 87.28482452525117,160 L 87.31906446964837,160 L 87.3502226398769,160 L 88.83212600000397,160 L 88.86228080189852,160 L 88.89704034775438,160 L 90.37806576058924,160 L 90.4077009610251,160 L 90.43470231958426,160 L 91.92846692680237,160 L 91.95908757828056,160 L 91.99062201163431,160 L 93.48117942364202,160 L 93.5099904286607,160 L 93.53840725326245,160 L 95.02342822214155,160 L 95.05422804653651,40 L 95.0863179159323,40 L 96.57726950835692,40 L 96.5986448373291,40 L 96.62811878213988,40 L 98.12145337435771,40 L 98.14535504145653,40 L 98.18776527085902,40 L 99.67135285640386,40 L 99.7028335378826,40 L 99.73047991894218,40 L 101.21313580531975,40 L 101.24762659180044,40 L 101.28140068661399,40 L 102.77072180549588,40 L 102.78598733800578,40 L 102.82735836449092,40 L 104.31567611503884,40 L 104.34830350318498,40 L 104.3851593721672,40 L 105.86385553708386,40 L 105.8946016096038,40 L 105.93400173400434,40 L 107.40952653829396,40 L 107.44222559560681,40 L 107.48037150958987,40 L 108.96616292201114,40 L 109.00258877599308,40 L 110.50826838217725,40 L 110.58486480410188,40 L 112.05657322526402,40 L 112.09464747008037,40 L 112.13078664739547,40 L 113.60425096314206,40 L 113.64436777920974,40 L 113.67197832568597,40 L 115.15558382852248,40 L 115.18916083312757,40 L 115.22685881481868,40 L 116.69819097285558,40 L 116.73175006016899,40 L 116.76950179373513,40 L 118.2486100563604,40 L 118.28159579034012,40 L 118.31698244140472,40 L 119.80212883132558,40 L 119.84547075989532,40 L 121.38442277672604,40 L 121.4254533746693,40 L 122.90173070520942,40 L 122.93555855189801,40 L 124.453834014132,40 L 124.48264501915067,40 L 124.53009000751474,40 L 125.99002676804426,40 L 126.0229945847323,40 L 126.05829164933851,40 L 127.53994416738209,40 L 127.57893219407404,40 L 127.6180635590994,40 L 129.0852568227586,40 L 129.11686292527912,40 L 129.15527759863733,40 L 130.63205661334445,40 L 130.66798078315935,40 L 130.71494200464815,40 L 132.1753266974696,40 L 132.21621395707945,40 L 132.25579325439676,40 L 133.73052969785255,40 L 133.76342584537386,40 L 133.80098048873154,40 L 135.27854786427247,40 L 135.3118381922107,40 L 135.3502170309856,40 L 136.8245951286078,40 L 136.8631889748828,40 L 136.90477500886809,40 L 138.3742079339871,40 L 138.40493608921537,40 L 138.44197113111434,40 L 139.92362364915795,40 L 139.9511983610508,40 L 139.98886050815855,40 L 141.4678075151587,40 L 141.50315833163995,40 L 141.54220011020692,40 L 143.01691863637103,40 L 143.05443744514534,40 L 143.09433925371286,40 L 144.56912944904366,40 L 144.59627414593626,40 L 144.63510091700311,40 L 146.11589340504614,40 L 146.15246259736148,40 L 146.18507206821596,40 L 147.6592709929214,40 L 147.69274049377643,40 L 147.7312805881764,40 L 149.20463740017294,40 L 149.2452379831159,40 L 149.28238052876497,40 L 150.75613152117847,40 L 150.78677008994833,40 L 150.8211712899706,40 L 152.31033115322742,40 L 152.34772454095997,40 L 152.38981225911226,40 L 153.8571488611049,40 L 153.8905466927932,40 L 153.9239445244815,40 L 155.40170899023093,40 L 155.43879778400495,40 L 155.47527738986193,40 L 156.94315151060493,40 L 156.98342958229767,40 L 157.0217725864892,40 L 158.48996921848243,40 L 158.5302293728835,40 L 158.57441341416214,40 L 160.05250039116174,40 L 160.08451859139083,40 L 160.12592545245934,40 L 161.59668425716254,40 L 161.6243485555138,40 L 161.65941269532817,40 L 163.14034852170465,40 L 163.17695354860336,40 L 163.21407817696075,40 L 164.6891729662501,40 L 164.72113741460416,40 L 164.76247260650595,40 L 166.2368865387115,40 L 166.26904807727402,40 L 166.30714023938205,40 L 167.7854243065901,40 L 167.8169408226522,40 L 167.85107326329933,40 L 169.33177616488396,66.4168618266979 L 169.36160845552828,66.4168618266979 L 170.87859387276146,66.4168618266979 L 170.9150197267434,66.4168618266979 L 170.9494209267657,66.4168618266979 L 172.42822459543243,66.4168618266979 L 172.45330880378202,66.4168618266979 L 172.49600570985137,66.4168618266979 L 173.98468180623283,66.4168618266979 L 174.02252312625737,66.4168618266979 L 175.5251747101479,66.4168618266979 L 175.5645927518401,66.4168618266979 L 175.61605121354012,66.4168618266979 L 177.07554004177769,66.4168618266979 L 177.11411597076102,66.4168618266979 L 177.13785638223473,66.4168618266979 L 178.62561869674062,66.4168618266979 L 178.66148911468053,66.4168618266979 L 178.69931251741338,66.4168618266979 L 180.17460439691118,66.4168618266979 L 180.20879058943333,66.4168618266979 L 180.24754569133347,66.4168618266979 L 181.72099208978838,66.4168618266979 L 181.75172024501663,66.4168618266979 L 181.790349925875,66.4168618266979 L 183.26890275245825,66.4168618266979 L 183.30140471956264,66.4168618266979 L 183.33333333333334,66.4168618266979" fill="none" stroke="none"/>
  </g>
  <!-- 📊 Total Contributions Chart -->
  <g transform="translate(526.6666666666667, 250)">
    <!-- Chart Background -->
    <rect x="0" y="0" width="213.33333333333334" height="200" fill="#ffffff" stroke="#e2e8f0" stroke-width="1" rx="8" filter="url(#shadow)">
      <animate attributeName="opacity" values="0;1" dur="0.5s" begin="2.8s" fill="freeze"/>
    </rect>
    
    <!-- Chart Title -->
    <text x="106.66666666666667" y="25" text-anchor="middle" fill="#1e293b" font-size="14" font-weight="bold" font-family="Arial, sans-serif">
      📊 Total Contributions
      <animate attributeName="opacity" values="0;1" dur="0.5s" begin="3s" fill="freeze"/>
    </text>
    
    <!-- Y-axis labels -->
    <text x="10" y="45" fill="#64748b" font-size="10" font-family="Arial, sans-serif">5,314
      <animate attributeName="opacity" values="0;1" dur="0.5s" begin="3.1999999999999997s" fill="freeze"/>
    </text>
    <text x="10" y="185" fill="#64748b" font-size="10" font-family="Arial, sans-serif">4,917
      <animate attributeName="opacity" values="0;1" dur="0.5s" begin="3.1999999999999997s" fill="freeze"/>
    </text>
    
    <!-- Chart Line with draw animation that follows the circle -->
    <path d="M 30,160 L 30.032627388146146,160 L 30.064376829000057,160 L 31.555203000382924,160 L 31.570199773517643,160 L 31.608596529584194,160 L 33.10291657284433,160 L 33.13289220182209,160 L 33.16786675517809,160 L 34.6508989046809,160 L 34.67736274448972,160 L 34.71319732784628,160 L 36.19610405630735,160 L 36.226115519868465,160 L 36.25940584780671,160 L 37.747616094604545,160 L 37.76947519045205,160 L 37.80050793963883,160 L 39.29131619373001,160 L 39.31622122916282,160 L 39.348346933141976,160 L 40.84227279598519,160 L 40.87165715433756,160 L 40.89729679872918,160 L 42.38916217302939,160 L 42.421986651383996,160 L 42.44490286744052,160 L 43.93922291070065,160 L 43.96810558488603,160 L 44.00136007824092,160 L 45.48777859587093,160 L 45.51596249568086,160 L 45.549987432577915,160 L 47.03491881499863,160 L 47.06057637668192,160 L 47.09259457691101,160 L 48.58437036475283,160 L 48.612357174354294,160 L 48.64480538958366,160 L 50.12853631346193,160 L 50.16614470869463,160 L 50.18791421808375,160 L 51.67682323925703,160 L 51.70611801115102,160 L 51.73526944471158,160 L 53.22073834588265,160 L 53.25306114007026,160 L 53.280080415921105,160 L 54.36020642745447,160 L 54.77540382751522,160 L 54.80752953149437,160 L 54.84137529547464,160 L 56.323278655601726,160 L 56.35137296895327,160 L 56.38426911647459,160 L 57.86943342368712,160 L 57.89109542932616,160 L 57.92743169684971,160 L 59.41956583052509,160 L 59.44662094095929,160 L 59.47808370514635,160 L 60.967709417986775,160 L 61.00019346779949,160 L 61.03366296865452,160 L 62.51388210336385,160 L 62.54154640171511,160 L 62.57797225569705,160 L 64.0662541716616,160 L 64.08985124480189,160 L 64.11891309190406,160 L 65.61300021037238,160 L 65.64650554581075,160 L 65.67787872353942,160 L 67.16015834679175,160 L 67.1903131486863,160 L 67.22417682995824,160 L 68.7060264382103,160 L 68.73542871385435,160 L 68.76857570345916,160 L 70.25730555171567,160 L 70.28479067715016,160 L 70.31290290779339,160 L 71.80360365813449,160 L 71.8313933775275,160 L 71.86479120921581,160 L 73.34275276517369,160 L 73.37955488228087,160 L 73.41042637584253,160 L 74.89888746472387,160 L 74.92062113952963,160 L 74.95969875267996,160 L 76.44878694677003,160 L 76.48145016949952,160 L 76.51586928681351,160 L 77.99904477464975,160 L 78.02893081716911,160 L 78.06059067156463,160 L 79.53792512231375,160 L 79.57039125483479,160 L 79.60276780089745,160 L 81.09076304019514,160 L 81.12115076688151,160 L 81.15587447815402,160 L 82.63930080807376,160 L 82.66726970038354,160 L 82.69814119394522,160 L 84.18848359845278,160 L 84.20840762679902,160 L 84.25732183308072,160 L 85.73390375757936,160 L 85.76405855947391,160 L 85.79380126365984,160 L 87.28482452525117,160 L 87.31906446964837,160 L 87.3502226398769,160 L 88.83212600000397,160 L 88.86228080189852,160 L 88.89704034775438,160 L 90.37806576058924,160 L 90.4077009610251,160 L 90.43470231958426,160 L 91.92846692680237,160 L 91.95908757828056,160 L 91.99062201163431,160 L 93.48117942364202,160 L 93.5099904286607,160 L 93.53840725326245,160 L 95.02342822214155,160 L 95.05422804653651,40 L 95.0863179159323,40 L 96.57726950835692,40 L 96.5986448373291,40 L 96.62811878213988,40 L 98.12145337435771,40 L 98.14535504145653,40 L 98.18776527085902,40 L 99.67135285640386,40 L 99.7028335378826,40 L 99.73047991894218,40 L 101.21313580531975,40 L 101.24762659180044,40 L 101.28140068661399,40 L 102.77072180549588,40 L 102.78598733800578,40 L 102.82735836449092,40 L 104.31567611503884,40 L 104.34830350318498,40 L 104.3851593721672,40 L 105.86385553708386,40 L 105.8946016096038,40 L 105.93400173400434,40 L 107.40952653829396,40 L 107.44222559560681,40 L 107.48037150958987,40 L 108.96616292201114,40 L 109.00258877599308,40 L 110.50826838217725,40 L 110.58486480410188,40 L 112.05657322526402,40 L 112.09464747008037,40 L 112.13078664739547,40 L 113.60425096314206,40 L 113.64436777920974,40 L 113.67197832568597,40 L 115.15558382852248,40 L 115.18916083312757,40 L 115.22685881481868,40 L 116.69819097285558,40 L 116.73175006016899,40 L 116.76950179373513,40 L 118.2486100563604,40 L 118.28159579034012,40 L 118.31698244140472,40 L 119.80212883132558,40 L 119.84547075989532,40 L 121.38442277672604,40 L 121.4254533746693,40 L 122.90173070520942,40 L 122.93555855189801,40 L 124.453834014132,40 L 124.48264501915067,40 L 124.53009000751474,40 L 125.99002676804426,40 L 126.0229945847323,40 L 126.05829164933851,40 L 127.53994416738209,40 L 127.57893219407404,40 L 127.6180635590994,40 L 129.0852568227586,40 L 129.11686292527912,40 L 129.15527759863733,40 L 130.63205661334445,40 L 130.66798078315935,40 L 130.71494200464815,40 L 132.1753266974696,40 L 132.21621395707945,40 L 132.25579325439676,40 L 133.73052969785255,40 L 133.76342584537386,40 L 133.80098048873154,40 L 135.27854786427247,40 L 135.3118381922107,40 L 135.3502170309856,40 L 136.8245951286078,40 L 136.8631889748828,40 L 136.90477500886809,40 L 138.3742079339871,40 L 138.40493608921537,40 L 138.44197113111434,40 L 139.92362364915795,40 L 139.9511983610508,40 L 139.98886050815855,40 L 141.4678075151587,40 L 141.50315833163995,40 L 141.54220011020692,40 L 143.01691863637103,40 L 143.05443744514534,40 L 143.09433925371286,40 L 144.56912944904366,40 L 144.59627414593626,40 L 144.63510091700311,40 L 146.11589340504614,40 L 146.15246259736148,40 L 146.18507206821596,40 L 147.6592709929214,40 L 147.69274049377643,40 L 147.7312805881764,40 L 149.20463740017294,40 L 149.2452379831159,40 L 149.28238052876497,40 L 150.75613152117847,40 L 150.78677008994833,40 L 150.8211712899706,40 L 152.31033115322742,40 L 152.34772454095997,40 L 152.38981225911226,40 L 153.8571488611049,40 L 153.8905466927932,40 L 153.9239445244815,40 L 155.40170899023093,40 L 155.43879778400495,40 L 155.47527738986193,40 L 156.94315151060493,40 L 156.98342958229767,40 L 157.0217725864892,40 L 158.48996921848243,40 L 158.5302293728835,40 L 158.57441341416214,40 L 160.05250039116174,40 L 160.08451859139083,40 L 160.12592545245934,40 L 161.59668425716254,40 L 161.6243485555138,40 L 161.65941269532817,40 L 163.14034852170465,40 L 163.17695354860336,40 L 163.21407817696075,40 L 164.6891729662501,40 L 164.72113741460416,40 L 164.76247260650595,40 L 166.2368865387115,40 L 166.26904807727402,40 L 166.30714023938205,40 L 167.7854243065901,40 L 167.8169408226522,40 L 167.85107326329933,40 L 169.33177616488396,72.04030226700252 L 169.36160845552828,72.04030226700252 L 170.87859387276146,72.04030226700252 L 170.9150197267434,72.04030226700252 L 170.9494209267657,72.04030226700252 L 172.42822459543243,72.04030226700252 L 172.45330880378202,72.04030226700252 L 172.49600570985137,72.04030226700252 L 173.98468180623283,72.04030226700252 L 174.02252312625737,72.04030226700252 L 175.5251747101479,72.04030226700252 L 175.5645927518401,72.04030226700252 L 175.61605121354012,72.04030226700252 L 177.07554004177769,72.04030226700252 L 177.11411597076102,72.04030226700252 L 177.13785638223473,72.04030226700252 L 178.62561869674062,72.04030226700252 L 178.66148911468053,72.04030226700252 L 178.69931251741338,72.04030226700252 L 180.17460439691118,72.04030226700252 L 180.20879058943333,72.04030226700252 L 180.24754569133347,72.04030226700252 L 181.72099208978838,72.04030226700252 L 181.75172024501663,72.04030226700252 L 181.790349925875,72.04030226700252 L 183.26890275245825,72.04030226700252 L 183.30140471956264,72.04030226700252 L 183.33333333333334,72.04030226700252" stroke="#f59e0b" stroke-width="2" fill="none" stroke-dasharray="14700" stroke-dashoffset="14700">
      <animate attributeName="stroke-dashoffset" values="14700;0" dur="3s" begin="3.5999999999999996s" fill="freeze"/>
    </path>
    
    <!-- Glow effect for the line that also follows the circle -->
    <path d="M 30,160 L 30.032627388146146,160 L 30.064376829000057,160 L 31.555203000382924,160 L 31.570199773517643,160 L 31.608596529584194,160 L 33.10291657284433,160 L 33.13289220182209,160 L 33.16786675517809,160 L 34.6508989046809,160 L 34.67736274448972,160 L 34.71319732784628,160 L 36.19610405630735,160 L 36.226115519868465,160 L 36.25940584780671,160 L 37.747616094604545,160 L 37.76947519045205,160 L 37.80050793963883,160 L 39.29131619373001,160 L 39.31622122916282,160 L 39.348346933141976,160 L 40.84227279598519,160 L 40.87165715433756,160 L 40.89729679872918,160 L 42.38916217302939,160 L 42.421986651383996,160 L 42.44490286744052,160 L 43.93922291070065,160 L 43.96810558488603,160 L 44.00136007824092,160 L 45.48777859587093,160 L 45.51596249568086,160 L 45.549987432577915,160 L 47.03491881499863,160 L 47.06057637668192,160 L 47.09259457691101,160 L 48.58437036475283,160 L 48.612357174354294,160 L 48.64480538958366,160 L 50.12853631346193,160 L 50.16614470869463,160 L 50.18791421808375,160 L 51.67682323925703,160 L 51.70611801115102,160 L 51.73526944471158,160 L 53.22073834588265,160 L 53.25306114007026,160 L 53.280080415921105,160 L 54.36020642745447,160 L 54.77540382751522,160 L 54.80752953149437,160 L 54.84137529547464,160 L 56.323278655601726,160 L 56.35137296895327,160 L 56.38426911647459,160 L 57.86943342368712,160 L 57.89109542932616,160 L 57.92743169684971,160 L 59.41956583052509,160 L 59.44662094095929,160 L 59.47808370514635,160 L 60.967709417986775,160 L 61.00019346779949,160 L 61.03366296865452,160 L 62.51388210336385,160 L 62.54154640171511,160 L 62.57797225569705,160 L 64.0662541716616,160 L 64.08985124480189,160 L 64.11891309190406,160 L 65.61300021037238,160 L 65.64650554581075,160 L 65.67787872353942,160 L 67.16015834679175,160 L 67.1903131486863,160 L 67.22417682995824,160 L 68.7060264382103,160 L 68.73542871385435,160 L 68.76857570345916,160 L 70.25730555171567,160 L 70.28479067715016,160 L 70.31290290779339,160 L 71.80360365813449,160 L 71.8313933775275,160 L 71.86479120921581,160 L 73.34275276517369,160 L 73.37955488228087,160 L 73.41042637584253,160 L 74.89888746472387,160 L 74.92062113952963,160 L 74.95969875267996,160 L 76.44878694677003,160 L 76.48145016949952,160 L 76.51586928681351,160 L 77.99904477464975,160 L 78.02893081716911,160 L 78.06059067156463,160 L 79.53792512231375,160 L 79.57039125483479,160 L 79.60276780089745,160 L 81.09076304019514,160 L 81.12115076688151,160 L 81.15587447815402,160 L 82.63930080807376,160 L 82.66726970038354,160 L 82.69814119394522,160 L 84.18848359845278,160 L 84.20840762679902,160 L 84.25732183308072,160 L 85.73390375757936,160 L 85.76405855947391,160 L 85.79380126365984,160 L 87.28482452525117,160 L 87.31906446964837,160 L 87.3502226398769,160 L 88.83212600000397,160 L 88.86228080189852,160 L 88.89704034775438,160 L 90.37806576058924,160 L 90.4077009610251,160 L 90.43470231958426,160 L 91.92846692680237,160 L 91.95908757828056,160 L 91.99062201163431,160 L 93.48117942364202,160 L 93.5099904286607,160 L 93.53840725326245,160 L 95.02342822214155,160 L 95.05422804653651,40 L 95.0863179159323,40 L 96.57726950835692,40 L 96.5986448373291,40 L 96.62811878213988,40 L 98.12145337435771,40 L 98.14535504145653,40 L 98.18776527085902,40 L 99.67135285640386,40 L 99.7028335378826,40 L 99.73047991894218,40 L 101.21313580531975,40 L 101.24762659180044,40 L 101.28140068661399,40 L 102.77072180549588,40 L 102.78598733800578,40 L 102.82735836449092,40 L 104.31567611503884,40 L 104.34830350318498,40 L 104.3851593721672,40 L 105.86385553708386,40 L 105.8946016096038,40 L 105.93400173400434,40 L 107.40952653829396,40 L 107.44222559560681,40 L 107.48037150958987,40 L 108.96616292201114,40 L 109.00258877599308,40 L 110.50826838217725,40 L 110.58486480410188,40 L 112.05657322526402,40 L 112.09464747008037,40 L 112.13078664739547,40 L 113.60425096314206,40 L 113.64436777920974,40 L 113.67197832568597,40 L 115.15558382852248,40 L 115.18916083312757,40 L 115.22685881481868,40 L 116.69819097285558,40 L 116.73175006016899,40 L 116.76950179373513,40 L 118.2486100563604,40 L 118.28159579034012,40 L 118.31698244140472,40 L 119.80212883132558,40 L 119.84547075989532,40 L 121.38442277672604,40 L 121.4254533746693,40 L 122.90173070520942,40 L 122.93555855189801,40 L 124.453834014132,40 L 124.48264501915067,40 L 124.53009000751474,40 L 125.99002676804426,40 L 126.0229945847323,40 L 126.05829164933851,40 L 127.53994416738209,40 L 127.57893219407404,40 L 127.6180635590994,40 L 129.0852568227586,40 L 129.11686292527912,40 L 129.15527759863733,40 L 130.63205661334445,40 L 130.66798078315935,40 L 130.71494200464815,40 L 132.1753266974696,40 L 132.21621395707945,40 L 132.25579325439676,40 L 133.73052969785255,40 L 133.76342584537386,40 L 133.80098048873154,40 L 135.27854786427247,40 L 135.3118381922107,40 L 135.3502170309856,40 L 136.8245951286078,40 L 136.8631889748828,40 L 136.90477500886809,40 L 138.3742079339871,40 L 138.40493608921537,40 L 138.44197113111434,40 L 139.92362364915795,40 L 139.9511983610508,40 L 139.98886050815855,40 L 141.4678075151587,40 L 141.50315833163995,40 L 141.54220011020692,40 L 143.01691863637103,40 L 143.05443744514534,40 L 143.09433925371286,40 L 144.56912944904366,40 L 144.59627414593626,40 L 144.63510091700311,40 L 146.11589340504614,40 L 146.15246259736148,40 L 146.18507206821596,40 L 147.6592709929214,40 L 147.69274049377643,40 L 147.7312805881764,40 L 149.20463740017294,40 L 149.2452379831159,40 L 149.28238052876497,40 L 150.75613152117847,40 L 150.78677008994833,40 L 150.8211712899706,40 L 152.31033115322742,40 L 152.34772454095997,40 L 152.38981225911226,40 L 153.8571488611049,40 L 153.8905466927932,40 L 153.9239445244815,40 L 155.40170899023093,40 L 155.43879778400495,40 L 155.47527738986193,40 L 156.94315151060493,40 L 156.98342958229767,40 L 157.0217725864892,40 L 158.48996921848243,40 L 158.5302293728835,40 L 158.57441341416214,40 L 160.05250039116174,40 L 160.08451859139083,40 L 160.12592545245934,40 L 161.59668425716254,40 L 161.6243485555138,40 L 161.65941269532817,40 L 163.14034852170465,40 L 163.17695354860336,40 L 163.21407817696075,40 L 164.6891729662501,40 L 164.72113741460416,40 L 164.76247260650595,40 L 166.2368865387115,40 L 166.26904807727402,40 L 166.30714023938205,40 L 167.7854243065901,40 L 167.8169408226522,40 L 167.85107326329933,40 L 169.33177616488396,72.04030226700252 L 169.36160845552828,72.04030226700252 L 170.87859387276146,72.04030226700252 L 170.9150197267434,72.04030226700252 L 170.9494209267657,72.04030226700252 L 172.42822459543243,72.04030226700252 L 172.45330880378202,72.04030226700252 L 172.49600570985137,72.04030226700252 L 173.98468180623283,72.04030226700252 L 174.02252312625737,72.04030226700252 L 175.5251747101479,72.04030226700252 L 175.5645927518401,72.04030226700252 L 175.61605121354012,72.04030226700252 L 177.07554004177769,72.04030226700252 L 177.11411597076102,72.04030226700252 L 177.13785638223473,72.04030226700252 L 178.62561869674062,72.04030226700252 L 178.66148911468053,72.04030226700252 L 178.69931251741338,72.04030226700252 L 180.17460439691118,72.04030226700252 L 180.20879058943333,72.04030226700252 L 180.24754569133347,72.04030226700252 L 181.72099208978838,72.04030226700252 L 181.75172024501663,72.04030226700252 L 181.790349925875,72.04030226700252 L 183.26890275245825,72.04030226700252 L 183.30140471956264,72.04030226700252 L 183.33333333333334,72.04030226700252" stroke="#f59e0b" stroke-width="4" fill="none" opacity="0.4" stroke-dasharray="14700" stroke-dashoffset="14700">
      <animate attributeName="stroke-dashoffset" values="14700;0" dur="3s" begin="3.5999999999999996s" fill="freeze"/>
    </path>
    
    <!-- Animated circle that moves along the path and draws the line -->
    <circle r="5" fill="#f59e0b" opacity="0" filter="url(#trailGlow)">
      <animate attributeName="opacity" values="0;1;1;1" dur="3.2s" begin="3.4s" fill="freeze"/>
      <animate attributeName="r" values="5;6;5" dur="1s" begin="3.4s" repeatCount="3"/>
      <animateMotion dur="3s" begin="3.4s" fill="freeze">
        <mpath href="#path_totalContributions_526.6666666666667"/>
      </animateMotion>
    </circle>
    
    <!-- Small trail dots that fade out -->
    <circle r="2" fill="#f59e0b" opacity="0">
      <animate attributeName="opacity" values="0;0.6;0" dur="0.8s" begin="3.8s" fill="freeze"/>
      <animateMotion dur="3s" begin="3.4s" fill="freeze">
        <mpath href="#path_totalContributions_526.6666666666667"/>
      </animateMotion>
    </circle>
    
    <!-- Hidden path for motion animation -->
    <path id="path_totalContributions_526.6666666666667" d="M 30,160 L 30.032627388146146,160 L 30.064376829000057,160 L 31.555203000382924,160 L 31.570199773517643,160 L 31.608596529584194,160 L 33.10291657284433,160 L 33.13289220182209,160 L 33.16786675517809,160 L 34.6508989046809,160 L 34.67736274448972,160 L 34.71319732784628,160 L 36.19610405630735,160 L 36.226115519868465,160 L 36.25940584780671,160 L 37.747616094604545,160 L 37.76947519045205,160 L 37.80050793963883,160 L 39.29131619373001,160 L 39.31622122916282,160 L 39.348346933141976,160 L 40.84227279598519,160 L 40.87165715433756,160 L 40.89729679872918,160 L 42.38916217302939,160 L 42.421986651383996,160 L 42.44490286744052,160 L 43.93922291070065,160 L 43.96810558488603,160 L 44.00136007824092,160 L 45.48777859587093,160 L 45.51596249568086,160 L 45.549987432577915,160 L 47.03491881499863,160 L 47.06057637668192,160 L 47.09259457691101,160 L 48.58437036475283,160 L 48.612357174354294,160 L 48.64480538958366,160 L 50.12853631346193,160 L 50.16614470869463,160 L 50.18791421808375,160 L 51.67682323925703,160 L 51.70611801115102,160 L 51.73526944471158,160 L 53.22073834588265,160 L 53.25306114007026,160 L 53.280080415921105,160 L 54.36020642745447,160 L 54.77540382751522,160 L 54.80752953149437,160 L 54.84137529547464,160 L 56.323278655601726,160 L 56.35137296895327,160 L 56.38426911647459,160 L 57.86943342368712,160 L 57.89109542932616,160 L 57.92743169684971,160 L 59.41956583052509,160 L 59.44662094095929,160 L 59.47808370514635,160 L 60.967709417986775,160 L 61.00019346779949,160 L 61.03366296865452,160 L 62.51388210336385,160 L 62.54154640171511,160 L 62.57797225569705,160 L 64.0662541716616,160 L 64.08985124480189,160 L 64.11891309190406,160 L 65.61300021037238,160 L 65.64650554581075,160 L 65.67787872353942,160 L 67.16015834679175,160 L 67.1903131486863,160 L 67.22417682995824,160 L 68.7060264382103,160 L 68.73542871385435,160 L 68.76857570345916,160 L 70.25730555171567,160 L 70.28479067715016,160 L 70.31290290779339,160 L 71.80360365813449,160 L 71.8313933775275,160 L 71.86479120921581,160 L 73.34275276517369,160 L 73.37955488228087,160 L 73.41042637584253,160 L 74.89888746472387,160 L 74.92062113952963,160 L 74.95969875267996,160 L 76.44878694677003,160 L 76.48145016949952,160 L 76.51586928681351,160 L 77.99904477464975,160 L 78.02893081716911,160 L 78.06059067156463,160 L 79.53792512231375,160 L 79.57039125483479,160 L 79.60276780089745,160 L 81.09076304019514,160 L 81.12115076688151,160 L 81.15587447815402,160 L 82.63930080807376,160 L 82.66726970038354,160 L 82.69814119394522,160 L 84.18848359845278,160 L 84.20840762679902,160 L 84.25732183308072,160 L 85.73390375757936,160 L 85.76405855947391,160 L 85.79380126365984,160 L 87.28482452525117,160 L 87.31906446964837,160 L 87.3502226398769,160 L 88.83212600000397,160 L 88.86228080189852,160 L 88.89704034775438,160 L 90.37806576058924,160 L 90.4077009610251,160 L 90.43470231958426,160 L 91.92846692680237,160 L 91.95908757828056,160 L 91.99062201163431,160 L 93.48117942364202,160 L 93.5099904286607,160 L 93.53840725326245,160 L 95.02342822214155,160 L 95.05422804653651,40 L 95.0863179159323,40 L 96.57726950835692,40 L 96.5986448373291,40 L 96.62811878213988,40 L 98.12145337435771,40 L 98.14535504145653,40 L 98.18776527085902,40 L 99.67135285640386,40 L 99.7028335378826,40 L 99.73047991894218,40 L 101.21313580531975,40 L 101.24762659180044,40 L 101.28140068661399,40 L 102.77072180549588,40 L 102.78598733800578,40 L 102.82735836449092,40 L 104.31567611503884,40 L 104.34830350318498,40 L 104.3851593721672,40 L 105.86385553708386,40 L 105.8946016096038,40 L 105.93400173400434,40 L 107.40952653829396,40 L 107.44222559560681,40 L 107.48037150958987,40 L 108.96616292201114,40 L 109.00258877599308,40 L 110.50826838217725,40 L 110.58486480410188,40 L 112.05657322526402,40 L 112.09464747008037,40 L 112.13078664739547,40 L 113.60425096314206,40 L 113.64436777920974,40 L 113.67197832568597,40 L 115.15558382852248,40 L 115.18916083312757,40 L 115.22685881481868,40 L 116.69819097285558,40 L 116.73175006016899,40 L 116.76950179373513,40 L 118.2486100563604,40 L 118.28159579034012,40 L 118.31698244140472,40 L 119.80212883132558,40 L 119.84547075989532,40 L 121.38442277672604,40 L 121.4254533746693,40 L 122.90173070520942,40 L 122.93555855189801,40 L 124.453834014132,40 L 124.48264501915067,40 L 124.53009000751474,40 L 125.99002676804426,40 L 126.0229945847323,40 L 126.05829164933851,40 L 127.53994416738209,40 L 127.57893219407404,40 L 127.6180635590994,40 L 129.0852568227586,40 L 129.11686292527912,40 L 129.15527759863733,40 L 130.63205661334445,40 L 130.66798078315935,40 L 130.71494200464815,40 L 132.1753266974696,40 L 132.21621395707945,40 L 132.25579325439676,40 L 133.73052969785255,40 L 133.76342584537386,40 L 133.80098048873154,40 L 135.27854786427247,40 L 135.3118381922107,40 L 135.3502170309856,40 L 136.8245951286078,40 L 136.8631889748828,40 L 136.90477500886809,40 L 138.3742079339871,40 L 138.40493608921537,40 L 138.44197113111434,40 L 139.92362364915795,40 L 139.9511983610508,40 L 139.98886050815855,40 L 141.4678075151587,40 L 141.50315833163995,40 L 141.54220011020692,40 L 143.01691863637103,40 L 143.05443744514534,40 L 143.09433925371286,40 L 144.56912944904366,40 L 144.59627414593626,40 L 144.63510091700311,40 L 146.11589340504614,40 L 146.15246259736148,40 L 146.18507206821596,40 L 147.6592709929214,40 L 147.69274049377643,40 L 147.7312805881764,40 L 149.20463740017294,40 L 149.2452379831159,40 L 149.28238052876497,40 L 150.75613152117847,40 L 150.78677008994833,40 L 150.8211712899706,40 L 152.31033115322742,40 L 152.34772454095997,40 L 152.38981225911226,40 L 153.8571488611049,40 L 153.8905466927932,40 L 153.9239445244815,40 L 155.40170899023093,40 L 155.43879778400495,40 L 155.47527738986193,40 L 156.94315151060493,40 L 156.98342958229767,40 L 157.0217725864892,40 L 158.48996921848243,40 L 158.5302293728835,40 L 158.57441341416214,40 L 160.05250039116174,40 L 160.08451859139083,40 L 160.12592545245934,40 L 161.59668425716254,40 L 161.6243485555138,40 L 161.65941269532817,40 L 163.14034852170465,40 L 163.17695354860336,40 L 163.21407817696075,40 L 164.6891729662501,40 L 164.72113741460416,40 L 164.76247260650595,40 L 166.2368865387115,40 L 166.26904807727402,40 L 166.30714023938205,40 L 167.7854243065901,40 L 167.8169408226522,40 L 167.85107326329933,40 L 169.33177616488396,72.04030226700252 L 169.36160845552828,72.04030226700252 L 170.87859387276146,72.04030226700252 L 170.9150197267434,72.04030226700252 L 170.9494209267657,72.04030226700252 L 172.42822459543243,72.04030226700252 L 172.45330880378202,72.04030226700252 L 172.49600570985137,72.04030226700252 L 173.98468180623283,72.04030226700252 L 174.02252312625737,72.04030226700252 L 175.5251747101479,72.04030226700252 L 175.5645927518401,72.04030226700252 L 175.61605121354012,72.04030226700252 L 177.07554004177769,72.04030226700252 L 177.11411597076102,72.04030226700252 L 177.13785638223473,72.04030226700252 L 178.62561869674062,72.04030226700252 L 178.66148911468053,72.04030226700252 L 178.69931251741338,72.04030226700252 L 180.17460439691118,72.04030226700252 L 180.20879058943333,72.04030226700252 L 180.24754569133347,72.04030226700252 L 181.72099208978838,72.04030226700252 L 181.75172024501663,72.04030226700252 L 181.790349925875,72.04030226700252 L 183.26890275245825,72.04030226700252 L 183.30140471956264,72.04030226700252 L 183.33333333333334,72.04030226700252" fill="none" stroke="none"/>
  </g>
  
  <!-- Footer -->
  <text x="400" y="580" text-anchor="middle" fill="#94a3b8" font-size="12" font-family="Arial, sans-serif">
    Generated by GitHub User Rank Tracker • 3/21/2026
    <animate attributeName="opacity" values="0;1" dur="0.5s" begin="5s" fill="freeze"/>
  </text>
</svg>