<svg width="800" height="600" xmlns="http://www.w3.org/2000/svg">
  <defs>
    <linearGradient id="bgGradient" x1="0%" y1="0%" x2="100%" y2="100%">
      <stop offset="0%" style="stop-color:#f8fafc;stop-opacity:1" />
      <stop offset="100%" style="stop-color:#e2e8f0;stop-opacity:1" />
    </linearGradient>
    <filter id="shadow" x="-20%" y="-20%" width="140%" height="140%">
      <feDropShadow dx="2" dy="2" stdDeviation="3" flood-color="#00000020" flood-opacity="0.1"/>
    </filter>
    <!-- Trail effect filter -->
    <filter id="trailGlow" x="-50%" y="-50%" width="200%" height="200%">
      <feGaussianBlur stdDeviation="3" result="coloredBlur"/>
      <feMerge> 
        <feMergeNode in="coloredBlur"/>
        <feMergeNode in="SourceGraphic"/>
      </feMerge>
    </filter>
  </defs>
  
  <!-- Background -->
  <rect width="800" height="600" fill="url(#bgGradient)" rx="12"/>
  
  <!-- Header -->
  <text x="400" y="40" text-anchor="middle" fill="#0f172a" font-size="24" font-weight="bold" font-family="Arial, sans-serif">
    GitHub Progress Report
    <animate attributeName="opacity" values="0;1" dur="0.8s" begin="0s" fill="freeze"/>
    <animateTransform attributeName="transform" type="translate" values="0,-20;0,0" dur="0.8s" begin="0s" fill="freeze"/>
  </text>
  
  <!-- User Info -->
  <text x="400" y="70" text-anchor="middle" fill="#475569" font-size="16" font-family="Arial, sans-serif">
    @maifeeulasad • BANGLADESH • 100 days analyzed
    <animate attributeName="opacity" values="0;1" dur="0.6s" begin="0.3s" fill="freeze"/>
  </text>
  
  <!-- Progress Cards -->
  <!-- Followers Card -->
  <g transform="translate(60, 100)">
    <rect width="206.66666666666666" height="120" fill="#ffffff" stroke="#e2e8f0" stroke-width="1" rx="8" filter="url(#shadow)">
      <animate attributeName="opacity" values="0;1" dur="0.6s" begin="0.2s" fill="freeze"/>
      <animateTransform attributeName="transform" type="scale" values="0.8;1" dur="0.6s" begin="0.2s" fill="freeze"/>
    </rect>
    <text x="103.33333333333333" y="25" text-anchor="middle" fill="#64748b" font-size="14" font-weight="bold" font-family="Arial, sans-serif">FOLLOWERS
      <animate attributeName="opacity" values="0;1" dur="0.5s" begin="0.4s" fill="freeze"/>
    </text>
    
    <text x="103.33333333333333" y="50" text-anchor="middle" fill="#22c55e" font-size="32" font-weight="bold" font-family="Arial, sans-serif">
      ↗
      <animate attributeName="opacity" values="0;1" dur="0.5s" begin="0.6s" fill="freeze"/>
      <animateTransform attributeName="transform" type="scale" values="0;1.2;1" dur="0.8s" begin="0.6s" fill="freeze"/>
    </text>
    
    <text x="103.33333333333333" y="75" text-anchor="middle" fill="#1e293b" font-size="18" font-weight="bold" font-family="Arial, sans-serif">
      +1
      <animate attributeName="opacity" values="0;1" dur="0.5s" begin="0.8s" fill="freeze"/>
    </text>
    
    <text x="103.33333333333333" y="95" text-anchor="middle" fill="#64748b" font-size="12" font-family="Arial, sans-serif">
      #467 → #466
      <animate attributeName="opacity" values="0;1" dur="0.5s" begin="1s" fill="freeze"/>
    </text>
  </g>
  
  <!-- Public Contributions Card -->
  <g transform="translate(296.66666666666663, 100)">
    <rect width="206.66666666666666" height="120" fill="#ffffff" stroke="#e2e8f0" stroke-width="1" rx="8" filter="url(#shadow)">
      <animate attributeName="opacity" values="0;1" dur="0.6s" begin="0.4s" fill="freeze"/>
      <animateTransform attributeName="transform" type="scale" values="0.8;1" dur="0.6s" begin="0.4s" fill="freeze"/>
    </rect>
    <text x="103.33333333333333" y="25" text-anchor="middle" fill="#64748b" font-size="14" font-weight="bold" font-family="Arial, sans-serif">PUBLIC
      <animate attributeName="opacity" values="0;1" dur="0.5s" begin="0.6s" fill="freeze"/>
    </text>
    
    <text x="103.33333333333333" y="50" text-anchor="middle" fill="#6b7280" font-size="32" font-weight="bold" font-family="Arial, sans-serif">
      →
      <animate attributeName="opacity" values="0;1" dur="0.5s" begin="0.8s" fill="freeze"/>
      <animateTransform attributeName="transform" type="scale" values="0;1.2;1" dur="0.8s" begin="0.8s" fill="freeze"/>
    </text>
    
    <text x="103.33333333333333" y="75" text-anchor="middle" fill="#1e293b" font-size="18" font-weight="bold" font-family="Arial, sans-serif">
      0
      <animate attributeName="opacity" values="0;1" dur="0.5s" begin="1s" fill="freeze"/>
    </text>
    
    <text x="103.33333333333333" y="95" text-anchor="middle" fill="#64748b" font-size="12" font-family="Arial, sans-serif">
      #7 → #7
      <animate attributeName="opacity" values="0;1" dur="0.5s" begin="1.2s" fill="freeze"/>
    </text>
  </g>
  
  <!-- Total Contributions Card -->
  <g transform="translate(533.3333333333333, 100)">
    <rect width="206.66666666666666" height="120" fill="#ffffff" stroke="#e2e8f0" stroke-width="1" rx="8" filter="url(#shadow)">
      <animate attributeName="opacity" values="0;1" dur="0.6s" begin="0.6s" fill="freeze"/>
      <animateTransform attributeName="transform" type="scale" values="0.8;1" dur="0.6s" begin="0.6s" fill="freeze"/>
    </rect>
    <text x="103.33333333333333" y="25" text-anchor="middle" fill="#64748b" font-size="14" font-weight="bold" font-family="Arial, sans-serif">TOTAL
      <animate attributeName="opacity" values="0;1" dur="0.5s" begin="0.8s" fill="freeze"/>
    </text>
    
    <text x="103.33333333333333" y="50" text-anchor="middle" fill="#22c55e" font-size="32" font-weight="bold" font-family="Arial, sans-serif">
      ↗
      <animate attributeName="opacity" values="0;1" dur="0.5s" begin="1s" fill="freeze"/>
      <animateTransform attributeName="transform" type="scale" values="0;1.2;1" dur="0.8s" begin="1s" fill="freeze"/>
    </text>
    
    <text x="103.33333333333333" y="75" text-anchor="middle" fill="#1e293b" font-size="18" font-weight="bold" font-family="Arial, sans-serif">
      +9
      <animate attributeName="opacity" values="0;1" dur="0.5s" begin="1.2s" fill="freeze"/>
    </text>
    
    <text x="103.33333333333333" y="95" text-anchor="middle" fill="#64748b" font-size="12" font-family="Arial, sans-serif">
      #24 → #15
      <animate attributeName="opacity" values="0;1" dur="0.5s" begin="1.4s" fill="freeze"/>
    </text>
  </g>
  
  <!-- Timeline Charts (if we have snapshots) -->
  
  <!-- 👥 Followers Count Chart -->
  <g transform="translate(60, 250)">
    <!-- Chart Background -->
    <rect x="0" y="0" width="213.33333333333334" height="200" fill="#ffffff" stroke="#e2e8f0" stroke-width="1" rx="8" filter="url(#shadow)">
      <animate attributeName="opacity" values="0;1" dur="0.5s" begin="1.8s" fill="freeze"/>
    </rect>
    
    <!-- Chart Title -->
    <text x="106.66666666666667" y="25" text-anchor="middle" fill="#1e293b" font-size="14" font-weight="bold" font-family="Arial, sans-serif">
      👥 Followers Count
      <animate attributeName="opacity" values="0;1" dur="0.5s" begin="2s" fill="freeze"/>
    </text>
    
    <!-- Y-axis labels -->
    <text x="10" y="45" fill="#64748b" font-size="10" font-family="Arial, sans-serif">150
      <animate attributeName="opacity" values="0;1" dur="0.5s" begin="2.2s" fill="freeze"/>
    </text>
    <text x="10" y="185" fill="#64748b" font-size="10" font-family="Arial, sans-serif">143
      <animate attributeName="opacity" values="0;1" dur="0.5s" begin="2.2s" fill="freeze"/>
    </text>
    
    <!-- Chart Line with draw animation that follows the circle -->
    <path d="M 30,160 L 30.025444807925005,160 L 30.046356139508443,160 L 31.549355857208194,160 L 31.57340299258521,160 L 31.602664521698962,160 L 33.09838917459762,160 L 33.124084846826115,160 L 33.152253324331824,160 L 34.64520055101332,160 L 34.66561015398978,160 L 34.69712946183491,160 L 36.19618702619417,160 L 36.21822724714329,160 L 36.24913731310853,160 L 37.74328510467099,160 L 37.76896285802066,160 L 37.79989084286472,160 L 39.29058029081483,160 L 39.31536210022348,160 L 39.333908139802624,160 L 40.83574313037905,160 L 40.870792457351804,160 L 40.894463296273585,160 L 42.38728509080333,160 L 42.41135014505917,160 L 43.961351081904894,160 L 43.987763509286204,160 L 45.48011941296662,160 L 45.503342279917895,160 L 45.530991109937816,160 L 47.03176888666383,160 L 47.060654119322365,160 L 47.08821335494818,160 L 48.579977935627525,160 L 48.60966951783297,160 L 48.6386443448856,160 L 50.13083897865663,160 L 50.15854156531301,160 L 50.18237367414417,160 L 51.67465790230931,160 L 51.702987649724406,57.14285714285715 L 51.732069990049965,57.14285714285715 L 53.251214617566916,57.14285714285715 L 53.277125316341255,57.14285714285715 L 54.76654252389512,57.14285714285715 L 54.79438846158206,57.14285714285715 L 54.813042014434124,57.14285714285715 L 56.31858621292638,57.14285714285715 L 56.34630671846158,57.14285714285715 L 56.37461854699785,57.14285714285715 L 57.863838646884695,57.14285714285715 L 57.892670122906765,57.14285714285715 L 57.928113665213566,57.14285714285715 L 59.41839097895081,57.14285714285715 L 59.448638046399694,57.14285714285715 L 59.47015861986303,57.14285714285715 L 60.965542814064094,57.14285714285715 L 60.989751219350495,57.14285714285715 L 61.01938904491948,57.14285714285715 L 62.51627842494146,57.14285714285715 L 62.57114603188961,57.14285714285715 L 64.06018694298825,57.14285714285715 L 64.08986060631487,57.14285714285715 L 64.11720481539484,57.14285714285715 L 65.61006244768222,57.14285714285715 L 65.63814133079384,57.14285714285715 L 65.66745661654406,57.14285714285715 L 67.15888073852582,57.14285714285715 L 67.18751510688085,57.14285714285715 L 67.21973325099998,57.14285714285715 L 68.70635511345787,57.14285714285715 L 68.73649466763382,57.14285714285715 L 68.76745849023551,57.14285714285715 L 70.25721615648698,57.14285714285715 L 70.28678230654067,57.14285714285715 L 70.3149687029252,57.14285714285715 L 71.80753963315146,57.14285714285715 L 71.82880934231132,57.14285714285715 L 71.85825006021327,57.14285714285715 L 73.35028342407493,57.14285714285715 L 73.37764555203373,57.14285714285715 L 73.40936196754588,57.14285714285715 L 74.89917339043379,57.14285714285715 L 74.9263742484832,57.14285714285715 L 74.95631669499214,57.14285714285715 L 76.44750787154922,57.14285714285715 L 76.47327521929299,57.14285714285715 L 76.50504539144161,57.14285714285715 L 77.99691748539388,57.14285714285715 L 78.02268483313765,57.14285714285715 L 78.04657069860528,57.14285714285715 L 79.55041260360959,57.14285714285715 L 79.57236323016461,57.14285714285715 L 79.60431259110143,57.14285714285715 L 81.09389106856469,57.14285714285715 L 81.11915668770149,57.14285714285715 L 81.14757602951069,57.14285714285715 L 82.64134752461791,57.14285714285715 L 82.66360277211288,57.14285714285715 L 82.69725442653765,57.14285714285715 L 84.18794387448776,57.14285714285715 L 84.21406959980794,57.14285714285715 L 84.2461264740177,57.14285714285715 L 85.73441479220587,57.14285714285715 L 85.75878446740165,57.14285714285715 L 85.79345749791918,57.14285714285715 L 87.27850249904085,57.14285714285715 L 87.30998596912835,57.14285714285715 L 87.3423116265204,57.14285714285715 L 88.83214096828713,57.14285714285715 L 88.85728115527219,57.14285714285715 L 88.88677562981061,57.14285714285715 L 90.38241068831516,57.14285714285715 L 90.40955778972811,57.14285714285715 L 90.44254644563652,57.14285714285715 L 91.92798566209225,57.14285714285715 L 91.9597020776044,57.14285714285715 L 91.99475140457716,57.14285714285715 L 93.47924092045542,57.14285714285715 L 93.5033597313477,57.14285714285715 L 93.53491487695048,57.14285714285715 L 95.02848926439069,57.14285714285715 L 95.05090578179504,57.14285714285715 L 95.08253260291309,57.14285714285715 L 96.57327580749967,57.14285714285715 L 96.59800386027186,57.14285714285715 L 96.62896768287355,57.14285714285715 L 98.12204034170679,57.14285714285715 L 98.1501192248184,57.14285714285715 L 99.67270427706887,57.14285714285715 L 99.69850746257029,57.14285714285715 L 99.72296673216017,57.14285714285715 L 101.22159424342775,57.14285714285715 L 101.25132166339083,57.14285714285715 L 101.28511666884616,57.14285714285715 L 102.75994790904019,57.14285714285715 L 102.79619780089392,57.14285714285715 L 102.82710786685915,57.14285714285715 L 104.31448232222749,57.14285714285715 L 104.33388846799001,57.14285714285715 L 104.37067592620835,57.14285714285715 L 105.86317518091933,57.14285714285715 L 105.89069857878751,57.14285714285715 L 105.92121442941868,57.14285714285715 L 107.41365992749321,57.14285714285715 L 107.43966022066165,57.14285714285715 L 107.46718361852983,57.14285714285715 L 108.9577476343282,57.14285714285715 L 108.98742129765482,57.14285714285715 L 109.01684409667796,57.14285714285715 L 110.50502490159322,57.14285714285715 L 110.53222575964263,57.14285714285715 L 110.5629028801832,57.14285714285715 L 112.05828707438427,57.14285714285715 L 112.08887460053073,57.14285714285715 L 112.12186325643916,57.14285714285715 L 113.60902268526164,57.14285714285715 L 113.63215595781881,57.14285714285715 L 113.68327851909349,57.14285714285715 L 115.15793057049932,57.14285714285715 L 115.18145805839055,57.14285714285715 L 115.21102420844426,57.14285714285715 L 116.70094314460509,57.14285714285715 L 116.72857405574618,57.14285714285715 L 116.75778182822347,57.14285714285715 L 118.24843543841595,57.14285714285715 L 118.27504497346429,57.14285714285715 L 118.3057579317625,57.14285714285715 L 119.7976658634724,57.14285714285715 L 119.8256372333111,57.14285714285715 L 119.85122539226666,57.14285714285715 L 121.34370672809882,57.14285714285715 L 121.37137347699756,57.14285714285715 L 121.4004378984443,57.14285714285715 L 122.89879662652955,57.14285714285715 L 122.92795064237038,57.14285714285715 L 122.95843065524393,57.14285714285715 L 124.44112828324015,57.14285714285715 L 124.47044356899035,40 L 124.50085190634861,40 L 125.99559102091216,40 L 126.0164127581015,40 L 126.04474250551658,40 L 127.53799435313802,40 L 127.55792014638635,40 L 127.59599776387975,40 L 129.08838950531782,40 L 129.11718514358222,40 L 129.14153689989917,40 L 130.6305240543614,40 L 130.66315433269335,40 L 130.69490658596317,40 L 132.1858648170956,40 L 132.2008629186683,40 L 132.23926307598046,40 L 133.73371548848286,40 L 133.76369377274943,40 L 133.79867142420693,40 L 135.28183494305244,40 L 135.3083011270702,40 L 135.34413888471107,40 L 136.82717697140487,40 L 136.8571910934291,40 L 136.89048437027742,40 L 138.37882644510208,40 L 138.40068747726298,40 L 138.43172297537996,40 L 139.92266328763355,40 L 139.94757052919397,40 L 139.979699078919,40 L 141.47375727608735,40 L 141.50314423735284,40 L 141.5287861529449,40 L 143.0207836790489,40 L 143.0536110650479,40 L 143.07652931105923,40 L 144.57098172356166,40 L 144.59986695622018,40 L 144.6331243953109,40 L 146.11967458225348,40 L 146.14786097863802,40 L 146.181888929518,40 L 147.6669518495185,40 L 147.69261168398936,40 L 147.72463272044146,40 L 149.21654065215137,40 L 149.2445299408689,40 L 149.27698103041266,40 L 150.7608433855322,40 L 150.79845511217627,40 L 150.8202265499431,40 L 152.30926746104174,40 L 152.33856482791316,40 L 152.36771884375398,40 L 153.85331933011906,40 L 153.8856449875111,40 L 153.91266665677233,40 L 154.99288834758295,40 L 155.40812252648868,40 L 155.4402510762137,40 L 155.4740998383055,40 L 156.95613446778535,40 L 156.98423126977576,40 L 157.0171303312901,40 L 158.50242619671525,40 L 158.52409012120916,40 L 158.56042960745697,40 L 160.0526959167433,40 L 160.07975342376213,40 L 160.1112189749708,40 L 161.60097664122227,40 L 161.6334635685237,40 L 161.66693603416024,40 L 163.14728628903097,40 L 163.1749530379297,40 L 163.21138211857163,40 L 164.69979586891156,40 L 164.72339503231808,40 L 164.7524594537648,40 L 166.24667892084253,40 L 166.28018722423676,40 L 166.3115631810513,40 L 167.79397410698638,40 L 167.82413158004115,40 L 167.85799826101177,40 L 169.33997913385517,40 L 169.36938401399948,40 L 169.40253393981726,40 L 170.8913956621277,40 L 170.91888322223824,40 L 170.94699794310748,40 L 172.43783074208818,40 L 172.46562292313865,40 L 172.49902371325993,40 L 173.97711618939928,40 L 174.01392156649644,40 L 174.04479579470404,40 L 175.53338873383217,40 L 175.55512433384135,40 L 175.5942054085487,40 L 177.08342550843554,40 L 177.11609162452518,40 L 177.1505137907392,40 L 178.63382066061533,40 L 178.66370935048778,40 L 178.69537200936347,40 L 180.17283732474414,40 L 180.20530633316673,40 L 180.23768574719523,40 L 181.72581279547404,40 L 181.75620321395348,40 L 181.79093000110748,40 L 183.27448773528707,40 L 183.30245910512576,40 L 183.33333333333334,40" stroke="#22c55e" stroke-width="2" fill="none" stroke-dasharray="14800" stroke-dashoffset="14800">
      <animate attributeName="stroke-dashoffset" values="14800;0" dur="3s" begin="2.6s" fill="freeze"/>
    </path>
    
    <!-- Glow effect for the line that also follows the circle -->
    <path d="M 30,160 L 30.025444807925005,160 L 30.046356139508443,160 L 31.549355857208194,160 L 31.57340299258521,160 L 31.602664521698962,160 L 33.09838917459762,160 L 33.124084846826115,160 L 33.152253324331824,160 L 34.64520055101332,160 L 34.66561015398978,160 L 34.69712946183491,160 L 36.19618702619417,160 L 36.21822724714329,160 L 36.24913731310853,160 L 37.74328510467099,160 L 37.76896285802066,160 L 37.79989084286472,160 L 39.29058029081483,160 L 39.31536210022348,160 L 39.333908139802624,160 L 40.83574313037905,160 L 40.870792457351804,160 L 40.894463296273585,160 L 42.38728509080333,160 L 42.41135014505917,160 L 43.961351081904894,160 L 43.987763509286204,160 L 45.48011941296662,160 L 45.503342279917895,160 L 45.530991109937816,160 L 47.03176888666383,160 L 47.060654119322365,160 L 47.08821335494818,160 L 48.579977935627525,160 L 48.60966951783297,160 L 48.6386443448856,160 L 50.13083897865663,160 L 50.15854156531301,160 L 50.18237367414417,160 L 51.67465790230931,160 L 51.702987649724406,57.14285714285715 L 51.732069990049965,57.14285714285715 L 53.251214617566916,57.14285714285715 L 53.277125316341255,57.14285714285715 L 54.76654252389512,57.14285714285715 L 54.79438846158206,57.14285714285715 L 54.813042014434124,57.14285714285715 L 56.31858621292638,57.14285714285715 L 56.34630671846158,57.14285714285715 L 56.37461854699785,57.14285714285715 L 57.863838646884695,57.14285714285715 L 57.892670122906765,57.14285714285715 L 57.928113665213566,57.14285714285715 L 59.41839097895081,57.14285714285715 L 59.448638046399694,57.14285714285715 L 59.47015861986303,57.14285714285715 L 60.965542814064094,57.14285714285715 L 60.989751219350495,57.14285714285715 L 61.01938904491948,57.14285714285715 L 62.51627842494146,57.14285714285715 L 62.57114603188961,57.14285714285715 L 64.06018694298825,57.14285714285715 L 64.08986060631487,57.14285714285715 L 64.11720481539484,57.14285714285715 L 65.61006244768222,57.14285714285715 L 65.63814133079384,57.14285714285715 L 65.66745661654406,57.14285714285715 L 67.15888073852582,57.14285714285715 L 67.18751510688085,57.14285714285715 L 67.21973325099998,57.14285714285715 L 68.70635511345787,57.14285714285715 L 68.73649466763382,57.14285714285715 L 68.76745849023551,57.14285714285715 L 70.25721615648698,57.14285714285715 L 70.28678230654067,57.14285714285715 L 70.3149687029252,57.14285714285715 L 71.80753963315146,57.14285714285715 L 71.82880934231132,57.14285714285715 L 71.85825006021327,57.14285714285715 L 73.35028342407493,57.14285714285715 L 73.37764555203373,57.14285714285715 L 73.40936196754588,57.14285714285715 L 74.89917339043379,57.14285714285715 L 74.9263742484832,57.14285714285715 L 74.95631669499214,57.14285714285715 L 76.44750787154922,57.14285714285715 L 76.47327521929299,57.14285714285715 L 76.50504539144161,57.14285714285715 L 77.99691748539388,57.14285714285715 L 78.02268483313765,57.14285714285715 L 78.04657069860528,57.14285714285715 L 79.55041260360959,57.14285714285715 L 79.57236323016461,57.14285714285715 L 79.60431259110143,57.14285714285715 L 81.09389106856469,57.14285714285715 L 81.11915668770149,57.14285714285715 L 81.14757602951069,57.14285714285715 L 82.64134752461791,57.14285714285715 L 82.66360277211288,57.14285714285715 L 82.69725442653765,57.14285714285715 L 84.18794387448776,57.14285714285715 L 84.21406959980794,57.14285714285715 L 84.2461264740177,57.14285714285715 L 85.73441479220587,57.14285714285715 L 85.75878446740165,57.14285714285715 L 85.79345749791918,57.14285714285715 L 87.27850249904085,57.14285714285715 L 87.30998596912835,57.14285714285715 L 87.3423116265204,57.14285714285715 L 88.83214096828713,57.14285714285715 L 88.85728115527219,57.14285714285715 L 88.88677562981061,57.14285714285715 L 90.38241068831516,57.14285714285715 L 90.40955778972811,57.14285714285715 L 90.44254644563652,57.14285714285715 L 91.92798566209225,57.14285714285715 L 91.9597020776044,57.14285714285715 L 91.99475140457716,57.14285714285715 L 93.47924092045542,57.14285714285715 L 93.5033597313477,57.14285714285715 L 93.53491487695048,57.14285714285715 L 95.02848926439069,57.14285714285715 L 95.05090578179504,57.14285714285715 L 95.08253260291309,57.14285714285715 L 96.57327580749967,57.14285714285715 L 96.59800386027186,57.14285714285715 L 96.62896768287355,57.14285714285715 L 98.12204034170679,57.14285714285715 L 98.1501192248184,57.14285714285715 L 99.67270427706887,57.14285714285715 L 99.69850746257029,57.14285714285715 L 99.72296673216017,57.14285714285715 L 101.22159424342775,57.14285714285715 L 101.25132166339083,57.14285714285715 L 101.28511666884616,57.14285714285715 L 102.75994790904019,57.14285714285715 L 102.79619780089392,57.14285714285715 L 102.82710786685915,57.14285714285715 L 104.31448232222749,57.14285714285715 L 104.33388846799001,57.14285714285715 L 104.37067592620835,57.14285714285715 L 105.86317518091933,57.14285714285715 L 105.89069857878751,57.14285714285715 L 105.92121442941868,57.14285714285715 L 107.41365992749321,57.14285714285715 L 107.43966022066165,57.14285714285715 L 107.46718361852983,57.14285714285715 L 108.9577476343282,57.14285714285715 L 108.98742129765482,57.14285714285715 L 109.01684409667796,57.14285714285715 L 110.50502490159322,57.14285714285715 L 110.53222575964263,57.14285714285715 L 110.5629028801832,57.14285714285715 L 112.05828707438427,57.14285714285715 L 112.08887460053073,57.14285714285715 L 112.12186325643916,57.14285714285715 L 113.60902268526164,57.14285714285715 L 113.63215595781881,57.14285714285715 L 113.68327851909349,57.14285714285715 L 115.15793057049932,57.14285714285715 L 115.18145805839055,57.14285714285715 L 115.21102420844426,57.14285714285715 L 116.70094314460509,57.14285714285715 L 116.72857405574618,57.14285714285715 L 116.75778182822347,57.14285714285715 L 118.24843543841595,57.14285714285715 L 118.27504497346429,57.14285714285715 L 118.3057579317625,57.14285714285715 L 119.7976658634724,57.14285714285715 L 119.8256372333111,57.14285714285715 L 119.85122539226666,57.14285714285715 L 121.34370672809882,57.14285714285715 L 121.37137347699756,57.14285714285715 L 121.4004378984443,57.14285714285715 L 122.89879662652955,57.14285714285715 L 122.92795064237038,57.14285714285715 L 122.95843065524393,57.14285714285715 L 124.44112828324015,57.14285714285715 L 124.47044356899035,40 L 124.50085190634861,40 L 125.99559102091216,40 L 126.0164127581015,40 L 126.04474250551658,40 L 127.53799435313802,40 L 127.55792014638635,40 L 127.59599776387975,40 L 129.08838950531782,40 L 129.11718514358222,40 L 129.14153689989917,40 L 130.6305240543614,40 L 130.66315433269335,40 L 130.69490658596317,40 L 132.1858648170956,40 L 132.2008629186683,40 L 132.23926307598046,40 L 133.73371548848286,40 L 133.76369377274943,40 L 133.79867142420693,40 L 135.28183494305244,40 L 135.3083011270702,40 L 135.34413888471107,40 L 136.82717697140487,40 L 136.8571910934291,40 L 136.89048437027742,40 L 138.37882644510208,40 L 138.40068747726298,40 L 138.43172297537996,40 L 139.92266328763355,40 L 139.94757052919397,40 L 139.979699078919,40 L 141.47375727608735,40 L 141.50314423735284,40 L 141.5287861529449,40 L 143.0207836790489,40 L 143.0536110650479,40 L 143.07652931105923,40 L 144.57098172356166,40 L 144.59986695622018,40 L 144.6331243953109,40 L 146.11967458225348,40 L 146.14786097863802,40 L 146.181888929518,40 L 147.6669518495185,40 L 147.69261168398936,40 L 147.72463272044146,40 L 149.21654065215137,40 L 149.2445299408689,40 L 149.27698103041266,40 L 150.7608433855322,40 L 150.79845511217627,40 L 150.8202265499431,40 L 152.30926746104174,40 L 152.33856482791316,40 L 152.36771884375398,40 L 153.85331933011906,40 L 153.8856449875111,40 L 153.91266665677233,40 L 154.99288834758295,40 L 155.40812252648868,40 L 155.4402510762137,40 L 155.4740998383055,40 L 156.95613446778535,40 L 156.98423126977576,40 L 157.0171303312901,40 L 158.50242619671525,40 L 158.52409012120916,40 L 158.56042960745697,40 L 160.0526959167433,40 L 160.07975342376213,40 L 160.1112189749708,40 L 161.60097664122227,40 L 161.6334635685237,40 L 161.66693603416024,40 L 163.14728628903097,40 L 163.1749530379297,40 L 163.21138211857163,40 L 164.69979586891156,40 L 164.72339503231808,40 L 164.7524594537648,40 L 166.24667892084253,40 L 166.28018722423676,40 L 166.3115631810513,40 L 167.79397410698638,40 L 167.82413158004115,40 L 167.85799826101177,40 L 169.33997913385517,40 L 169.36938401399948,40 L 169.40253393981726,40 L 170.8913956621277,40 L 170.91888322223824,40 L 170.94699794310748,40 L 172.43783074208818,40 L 172.46562292313865,40 L 172.49902371325993,40 L 173.97711618939928,40 L 174.01392156649644,40 L 174.04479579470404,40 L 175.53338873383217,40 L 175.55512433384135,40 L 175.5942054085487,40 L 177.08342550843554,40 L 177.11609162452518,40 L 177.1505137907392,40 L 178.63382066061533,40 L 178.66370935048778,40 L 178.69537200936347,40 L 180.17283732474414,40 L 180.20530633316673,40 L 180.23768574719523,40 L 181.72581279547404,40 L 181.75620321395348,40 L 181.79093000110748,40 L 183.27448773528707,40 L 183.30245910512576,40 L 183.33333333333334,40" stroke="#22c55e" stroke-width="4" fill="none" opacity="0.4" stroke-dasharray="14800" stroke-dashoffset="14800">
      <animate attributeName="stroke-dashoffset" values="14800;0" dur="3s" begin="2.6s" fill="freeze"/>
    </path>
    
    <!-- Animated circle that moves along the path and draws the line -->
    <circle r="5" fill="#22c55e" opacity="0" filter="url(#trailGlow)">
      <animate attributeName="opacity" values="0;1;1;1" dur="3.2s" begin="2.4s" fill="freeze"/>
      <animate attributeName="r" values="5;6;5" dur="1s" begin="2.4s" repeatCount="3"/>
      <animateMotion dur="3s" begin="2.4s" fill="freeze">
        <mpath href="#path_followersCount_60"/>
      </animateMotion>
    </circle>
    
    <!-- Small trail dots that fade out -->
    <circle r="2" fill="#22c55e" opacity="0">
      <animate attributeName="opacity" values="0;0.6;0" dur="0.8s" begin="2.8s" fill="freeze"/>
      <animateMotion dur="3s" begin="2.4s" fill="freeze">
        <mpath href="#path_followersCount_60"/>
      </animateMotion>
    </circle>
    
    <!-- Hidden path for motion animation -->
    <path id="path_followersCount_60" d="M 30,160 L 30.025444807925005,160 L 30.046356139508443,160 L 31.549355857208194,160 L 31.57340299258521,160 L 31.602664521698962,160 L 33.09838917459762,160 L 33.124084846826115,160 L 33.152253324331824,160 L 34.64520055101332,160 L 34.66561015398978,160 L 34.69712946183491,160 L 36.19618702619417,160 L 36.21822724714329,160 L 36.24913731310853,160 L 37.74328510467099,160 L 37.76896285802066,160 L 37.79989084286472,160 L 39.29058029081483,160 L 39.31536210022348,160 L 39.333908139802624,160 L 40.83574313037905,160 L 40.870792457351804,160 L 40.894463296273585,160 L 42.38728509080333,160 L 42.41135014505917,160 L 43.961351081904894,160 L 43.987763509286204,160 L 45.48011941296662,160 L 45.503342279917895,160 L 45.530991109937816,160 L 47.03176888666383,160 L 47.060654119322365,160 L 47.08821335494818,160 L 48.579977935627525,160 L 48.60966951783297,160 L 48.6386443448856,160 L 50.13083897865663,160 L 50.15854156531301,160 L 50.18237367414417,160 L 51.67465790230931,160 L 51.702987649724406,57.14285714285715 L 51.732069990049965,57.14285714285715 L 53.251214617566916,57.14285714285715 L 53.277125316341255,57.14285714285715 L 54.76654252389512,57.14285714285715 L 54.79438846158206,57.14285714285715 L 54.813042014434124,57.14285714285715 L 56.31858621292638,57.14285714285715 L 56.34630671846158,57.14285714285715 L 56.37461854699785,57.14285714285715 L 57.863838646884695,57.14285714285715 L 57.892670122906765,57.14285714285715 L 57.928113665213566,57.14285714285715 L 59.41839097895081,57.14285714285715 L 59.448638046399694,57.14285714285715 L 59.47015861986303,57.14285714285715 L 60.965542814064094,57.14285714285715 L 60.989751219350495,57.14285714285715 L 61.01938904491948,57.14285714285715 L 62.51627842494146,57.14285714285715 L 62.57114603188961,57.14285714285715 L 64.06018694298825,57.14285714285715 L 64.08986060631487,57.14285714285715 L 64.11720481539484,57.14285714285715 L 65.61006244768222,57.14285714285715 L 65.63814133079384,57.14285714285715 L 65.66745661654406,57.14285714285715 L 67.15888073852582,57.14285714285715 L 67.18751510688085,57.14285714285715 L 67.21973325099998,57.14285714285715 L 68.70635511345787,57.14285714285715 L 68.73649466763382,57.14285714285715 L 68.76745849023551,57.14285714285715 L 70.25721615648698,57.14285714285715 L 70.28678230654067,57.14285714285715 L 70.3149687029252,57.14285714285715 L 71.80753963315146,57.14285714285715 L 71.82880934231132,57.14285714285715 L 71.85825006021327,57.14285714285715 L 73.35028342407493,57.14285714285715 L 73.37764555203373,57.14285714285715 L 73.40936196754588,57.14285714285715 L 74.89917339043379,57.14285714285715 L 74.9263742484832,57.14285714285715 L 74.95631669499214,57.14285714285715 L 76.44750787154922,57.14285714285715 L 76.47327521929299,57.14285714285715 L 76.50504539144161,57.14285714285715 L 77.99691748539388,57.14285714285715 L 78.02268483313765,57.14285714285715 L 78.04657069860528,57.14285714285715 L 79.55041260360959,57.14285714285715 L 79.57236323016461,57.14285714285715 L 79.60431259110143,57.14285714285715 L 81.09389106856469,57.14285714285715 L 81.11915668770149,57.14285714285715 L 81.14757602951069,57.14285714285715 L 82.64134752461791,57.14285714285715 L 82.66360277211288,57.14285714285715 L 82.69725442653765,57.14285714285715 L 84.18794387448776,57.14285714285715 L 84.21406959980794,57.14285714285715 L 84.2461264740177,57.14285714285715 L 85.73441479220587,57.14285714285715 L 85.75878446740165,57.14285714285715 L 85.79345749791918,57.14285714285715 L 87.27850249904085,57.14285714285715 L 87.30998596912835,57.14285714285715 L 87.3423116265204,57.14285714285715 L 88.83214096828713,57.14285714285715 L 88.85728115527219,57.14285714285715 L 88.88677562981061,57.14285714285715 L 90.38241068831516,57.14285714285715 L 90.40955778972811,57.14285714285715 L 90.44254644563652,57.14285714285715 L 91.92798566209225,57.14285714285715 L 91.9597020776044,57.14285714285715 L 91.99475140457716,57.14285714285715 L 93.47924092045542,57.14285714285715 L 93.5033597313477,57.14285714285715 L 93.53491487695048,57.14285714285715 L 95.02848926439069,57.14285714285715 L 95.05090578179504,57.14285714285715 L 95.08253260291309,57.14285714285715 L 96.57327580749967,57.14285714285715 L 96.59800386027186,57.14285714285715 L 96.62896768287355,57.14285714285715 L 98.12204034170679,57.14285714285715 L 98.1501192248184,57.14285714285715 L 99.67270427706887,57.14285714285715 L 99.69850746257029,57.14285714285715 L 99.72296673216017,57.14285714285715 L 101.22159424342775,57.14285714285715 L 101.25132166339083,57.14285714285715 L 101.28511666884616,57.14285714285715 L 102.75994790904019,57.14285714285715 L 102.79619780089392,57.14285714285715 L 102.82710786685915,57.14285714285715 L 104.31448232222749,57.14285714285715 L 104.33388846799001,57.14285714285715 L 104.37067592620835,57.14285714285715 L 105.86317518091933,57.14285714285715 L 105.89069857878751,57.14285714285715 L 105.92121442941868,57.14285714285715 L 107.41365992749321,57.14285714285715 L 107.43966022066165,57.14285714285715 L 107.46718361852983,57.14285714285715 L 108.9577476343282,57.14285714285715 L 108.98742129765482,57.14285714285715 L 109.01684409667796,57.14285714285715 L 110.50502490159322,57.14285714285715 L 110.53222575964263,57.14285714285715 L 110.5629028801832,57.14285714285715 L 112.05828707438427,57.14285714285715 L 112.08887460053073,57.14285714285715 L 112.12186325643916,57.14285714285715 L 113.60902268526164,57.14285714285715 L 113.63215595781881,57.14285714285715 L 113.68327851909349,57.14285714285715 L 115.15793057049932,57.14285714285715 L 115.18145805839055,57.14285714285715 L 115.21102420844426,57.14285714285715 L 116.70094314460509,57.14285714285715 L 116.72857405574618,57.14285714285715 L 116.75778182822347,57.14285714285715 L 118.24843543841595,57.14285714285715 L 118.27504497346429,57.14285714285715 L 118.3057579317625,57.14285714285715 L 119.7976658634724,57.14285714285715 L 119.8256372333111,57.14285714285715 L 119.85122539226666,57.14285714285715 L 121.34370672809882,57.14285714285715 L 121.37137347699756,57.14285714285715 L 121.4004378984443,57.14285714285715 L 122.89879662652955,57.14285714285715 L 122.92795064237038,57.14285714285715 L 122.95843065524393,57.14285714285715 L 124.44112828324015,57.14285714285715 L 124.47044356899035,40 L 124.50085190634861,40 L 125.99559102091216,40 L 126.0164127581015,40 L 126.04474250551658,40 L 127.53799435313802,40 L 127.55792014638635,40 L 127.59599776387975,40 L 129.08838950531782,40 L 129.11718514358222,40 L 129.14153689989917,40 L 130.6305240543614,40 L 130.66315433269335,40 L 130.69490658596317,40 L 132.1858648170956,40 L 132.2008629186683,40 L 132.23926307598046,40 L 133.73371548848286,40 L 133.76369377274943,40 L 133.79867142420693,40 L 135.28183494305244,40 L 135.3083011270702,40 L 135.34413888471107,40 L 136.82717697140487,40 L 136.8571910934291,40 L 136.89048437027742,40 L 138.37882644510208,40 L 138.40068747726298,40 L 138.43172297537996,40 L 139.92266328763355,40 L 139.94757052919397,40 L 139.979699078919,40 L 141.47375727608735,40 L 141.50314423735284,40 L 141.5287861529449,40 L 143.0207836790489,40 L 143.0536110650479,40 L 143.07652931105923,40 L 144.57098172356166,40 L 144.59986695622018,40 L 144.6331243953109,40 L 146.11967458225348,40 L 146.14786097863802,40 L 146.181888929518,40 L 147.6669518495185,40 L 147.69261168398936,40 L 147.72463272044146,40 L 149.21654065215137,40 L 149.2445299408689,40 L 149.27698103041266,40 L 150.7608433855322,40 L 150.79845511217627,40 L 150.8202265499431,40 L 152.30926746104174,40 L 152.33856482791316,40 L 152.36771884375398,40 L 153.85331933011906,40 L 153.8856449875111,40 L 153.91266665677233,40 L 154.99288834758295,40 L 155.40812252648868,40 L 155.4402510762137,40 L 155.4740998383055,40 L 156.95613446778535,40 L 156.98423126977576,40 L 157.0171303312901,40 L 158.50242619671525,40 L 158.52409012120916,40 L 158.56042960745697,40 L 160.0526959167433,40 L 160.07975342376213,40 L 160.1112189749708,40 L 161.60097664122227,40 L 161.6334635685237,40 L 161.66693603416024,40 L 163.14728628903097,40 L 163.1749530379297,40 L 163.21138211857163,40 L 164.69979586891156,40 L 164.72339503231808,40 L 164.7524594537648,40 L 166.24667892084253,40 L 166.28018722423676,40 L 166.3115631810513,40 L 167.79397410698638,40 L 167.82413158004115,40 L 167.85799826101177,40 L 169.33997913385517,40 L 169.36938401399948,40 L 169.40253393981726,40 L 170.8913956621277,40 L 170.91888322223824,40 L 170.94699794310748,40 L 172.43783074208818,40 L 172.46562292313865,40 L 172.49902371325993,40 L 173.97711618939928,40 L 174.01392156649644,40 L 174.04479579470404,40 L 175.53338873383217,40 L 175.55512433384135,40 L 175.5942054085487,40 L 177.08342550843554,40 L 177.11609162452518,40 L 177.1505137907392,40 L 178.63382066061533,40 L 178.66370935048778,40 L 178.69537200936347,40 L 180.17283732474414,40 L 180.20530633316673,40 L 180.23768574719523,40 L 181.72581279547404,40 L 181.75620321395348,40 L 181.79093000110748,40 L 183.27448773528707,40 L 183.30245910512576,40 L 183.33333333333334,40" fill="none" stroke="none"/>
  </g>
  <!-- 🔓 Public Contributions Chart -->
  <g transform="translate(293.33333333333337, 250)">
    <!-- Chart Background -->
    <rect x="0" y="0" width="213.33333333333334" height="200" fill="#ffffff" stroke="#e2e8f0" stroke-width="1" rx="8" filter="url(#shadow)">
      <animate attributeName="opacity" values="0;1" dur="0.5s" begin="2.3s" fill="freeze"/>
    </rect>
    
    <!-- Chart Title -->
    <text x="106.66666666666667" y="25" text-anchor="middle" fill="#1e293b" font-size="14" font-weight="bold" font-family="Arial, sans-serif">
      🔓 Public Contributions
      <animate attributeName="opacity" values="0;1" dur="0.5s" begin="2.5s" fill="freeze"/>
    </text>
    
    <!-- Y-axis labels -->
    <text x="10" y="45" fill="#64748b" font-size="10" font-family="Arial, sans-serif">3,434
      <animate attributeName="opacity" values="0;1" dur="0.5s" begin="2.6999999999999997s" fill="freeze"/>
    </text>
    <text x="10" y="185" fill="#64748b" font-size="10" font-family="Arial, sans-serif">2,669
      <animate attributeName="opacity" values="0;1" dur="0.5s" begin="2.6999999999999997s" fill="freeze"/>
    </text>
    
    <!-- Chart Line with draw animation that follows the circle -->
    <path d="M 30,160 L 30.025444807925005,160 L 30.046356139508443,160 L 31.549355857208194,160 L 31.57340299258521,160 L 31.602664521698962,160 L 33.09838917459762,160 L 33.124084846826115,160 L 33.152253324331824,160 L 34.64520055101332,160 L 34.66561015398978,160 L 34.69712946183491,160 L 36.19618702619417,160 L 36.21822724714329,160 L 36.24913731310853,160 L 37.74328510467099,160 L 37.76896285802066,160 L 37.79989084286472,160 L 39.29058029081483,160 L 39.31536210022348,160 L 39.333908139802624,160 L 40.83574313037905,160 L 40.870792457351804,160 L 40.894463296273585,160 L 42.38728509080333,160 L 42.41135014505917,160 L 43.961351081904894,160 L 43.987763509286204,160 L 45.48011941296662,160 L 45.503342279917895,160 L 45.530991109937816,160 L 47.03176888666383,160 L 47.060654119322365,160 L 47.08821335494818,160 L 48.579977935627525,160 L 48.60966951783297,160 L 48.6386443448856,160 L 50.13083897865663,160 L 50.15854156531301,160 L 50.18237367414417,160 L 51.67465790230931,160 L 51.702987649724406,79.84313725490196 L 51.732069990049965,79.84313725490196 L 53.251214617566916,79.84313725490196 L 53.277125316341255,79.84313725490196 L 54.76654252389512,79.84313725490196 L 54.79438846158206,79.84313725490196 L 54.813042014434124,79.84313725490196 L 56.31858621292638,79.84313725490196 L 56.34630671846158,79.84313725490196 L 56.37461854699785,79.84313725490196 L 57.863838646884695,79.84313725490196 L 57.892670122906765,79.84313725490196 L 57.928113665213566,79.84313725490196 L 59.41839097895081,79.84313725490196 L 59.448638046399694,79.84313725490196 L 59.47015861986303,79.84313725490196 L 60.965542814064094,79.84313725490196 L 60.989751219350495,79.84313725490196 L 61.01938904491948,79.84313725490196 L 62.51627842494146,79.84313725490196 L 62.57114603188961,79.84313725490196 L 64.06018694298825,79.84313725490196 L 64.08986060631487,79.84313725490196 L 64.11720481539484,79.84313725490196 L 65.61006244768222,79.84313725490196 L 65.63814133079384,79.84313725490196 L 65.66745661654406,79.84313725490196 L 67.15888073852582,79.84313725490196 L 67.18751510688085,79.84313725490196 L 67.21973325099998,79.84313725490196 L 68.70635511345787,79.84313725490196 L 68.73649466763382,79.84313725490196 L 68.76745849023551,79.84313725490196 L 70.25721615648698,79.84313725490196 L 70.28678230654067,79.84313725490196 L 70.3149687029252,79.84313725490196 L 71.80753963315146,79.84313725490196 L 71.82880934231132,79.84313725490196 L 71.85825006021327,79.84313725490196 L 73.35028342407493,79.84313725490196 L 73.37764555203373,79.84313725490196 L 73.40936196754588,79.84313725490196 L 74.89917339043379,79.84313725490196 L 74.9263742484832,79.84313725490196 L 74.95631669499214,79.84313725490196 L 76.44750787154922,79.84313725490196 L 76.47327521929299,79.84313725490196 L 76.50504539144161,79.84313725490196 L 77.99691748539388,79.84313725490196 L 78.02268483313765,79.84313725490196 L 78.04657069860528,79.84313725490196 L 79.55041260360959,79.84313725490196 L 79.57236323016461,79.84313725490196 L 79.60431259110143,79.84313725490196 L 81.09389106856469,79.84313725490196 L 81.11915668770149,79.84313725490196 L 81.14757602951069,79.84313725490196 L 82.64134752461791,79.84313725490196 L 82.66360277211288,79.84313725490196 L 82.69725442653765,79.84313725490196 L 84.18794387448776,79.84313725490196 L 84.21406959980794,79.84313725490196 L 84.2461264740177,79.84313725490196 L 85.73441479220587,79.84313725490196 L 85.75878446740165,79.84313725490196 L 85.79345749791918,79.84313725490196 L 87.27850249904085,79.84313725490196 L 87.30998596912835,79.84313725490196 L 87.3423116265204,79.84313725490196 L 88.83214096828713,79.84313725490196 L 88.85728115527219,79.84313725490196 L 88.88677562981061,79.84313725490196 L 90.38241068831516,79.84313725490196 L 90.40955778972811,79.84313725490196 L 90.44254644563652,79.84313725490196 L 91.92798566209225,79.84313725490196 L 91.9597020776044,79.84313725490196 L 91.99475140457716,79.84313725490196 L 93.47924092045542,79.84313725490196 L 93.5033597313477,79.84313725490196 L 93.53491487695048,79.84313725490196 L 95.02848926439069,79.84313725490196 L 95.05090578179504,79.84313725490196 L 95.08253260291309,79.84313725490196 L 96.57327580749967,79.84313725490196 L 96.59800386027186,79.84313725490196 L 96.62896768287355,79.84313725490196 L 98.12204034170679,79.84313725490196 L 98.1501192248184,79.84313725490196 L 99.67270427706887,79.84313725490196 L 99.69850746257029,79.84313725490196 L 99.72296673216017,79.84313725490196 L 101.22159424342775,79.84313725490196 L 101.25132166339083,79.84313725490196 L 101.28511666884616,79.84313725490196 L 102.75994790904019,79.84313725490196 L 102.79619780089392,79.84313725490196 L 102.82710786685915,79.84313725490196 L 104.31448232222749,79.84313725490196 L 104.33388846799001,79.84313725490196 L 104.37067592620835,79.84313725490196 L 105.86317518091933,79.84313725490196 L 105.89069857878751,79.84313725490196 L 105.92121442941868,79.84313725490196 L 107.41365992749321,79.84313725490196 L 107.43966022066165,79.84313725490196 L 107.46718361852983,79.84313725490196 L 108.9577476343282,79.84313725490196 L 108.98742129765482,79.84313725490196 L 109.01684409667796,79.84313725490196 L 110.50502490159322,79.84313725490196 L 110.53222575964263,79.84313725490196 L 110.5629028801832,79.84313725490196 L 112.05828707438427,79.84313725490196 L 112.08887460053073,79.84313725490196 L 112.12186325643916,79.84313725490196 L 113.60902268526164,79.84313725490196 L 113.63215595781881,79.84313725490196 L 113.68327851909349,79.84313725490196 L 115.15793057049932,79.84313725490196 L 115.18145805839055,79.84313725490196 L 115.21102420844426,79.84313725490196 L 116.70094314460509,79.84313725490196 L 116.72857405574618,79.84313725490196 L 116.75778182822347,79.84313725490196 L 118.24843543841595,79.84313725490196 L 118.27504497346429,79.84313725490196 L 118.3057579317625,79.84313725490196 L 119.7976658634724,79.84313725490196 L 119.8256372333111,79.84313725490196 L 119.85122539226666,79.84313725490196 L 121.34370672809882,79.84313725490196 L 121.37137347699756,79.84313725490196 L 121.4004378984443,79.84313725490196 L 122.89879662652955,79.84313725490196 L 122.92795064237038,79.84313725490196 L 122.95843065524393,79.84313725490196 L 124.44112828324015,79.84313725490196 L 124.47044356899035,40 L 124.50085190634861,40 L 125.99559102091216,40 L 126.0164127581015,40 L 126.04474250551658,40 L 127.53799435313802,40 L 127.55792014638635,40 L 127.59599776387975,40 L 129.08838950531782,40 L 129.11718514358222,40 L 129.14153689989917,40 L 130.6305240543614,40 L 130.66315433269335,40 L 130.69490658596317,40 L 132.1858648170956,40 L 132.2008629186683,40 L 132.23926307598046,40 L 133.73371548848286,40 L 133.76369377274943,40 L 133.79867142420693,40 L 135.28183494305244,40 L 135.3083011270702,40 L 135.34413888471107,40 L 136.82717697140487,40 L 136.8571910934291,40 L 136.89048437027742,40 L 138.37882644510208,40 L 138.40068747726298,40 L 138.43172297537996,40 L 139.92266328763355,40 L 139.94757052919397,40 L 139.979699078919,40 L 141.47375727608735,40 L 141.50314423735284,40 L 141.5287861529449,40 L 143.0207836790489,40 L 143.0536110650479,40 L 143.07652931105923,40 L 144.57098172356166,40 L 144.59986695622018,40 L 144.6331243953109,40 L 146.11967458225348,40 L 146.14786097863802,40 L 146.181888929518,40 L 147.6669518495185,40 L 147.69261168398936,40 L 147.72463272044146,40 L 149.21654065215137,40 L 149.2445299408689,40 L 149.27698103041266,40 L 150.7608433855322,40 L 150.79845511217627,40 L 150.8202265499431,40 L 152.30926746104174,40 L 152.33856482791316,40 L 152.36771884375398,40 L 153.85331933011906,40 L 153.8856449875111,40 L 153.91266665677233,40 L 154.99288834758295,40 L 155.40812252648868,40 L 155.4402510762137,40 L 155.4740998383055,40 L 156.95613446778535,40 L 156.98423126977576,40 L 157.0171303312901,40 L 158.50242619671525,40 L 158.52409012120916,40 L 158.56042960745697,40 L 160.0526959167433,40 L 160.07975342376213,40 L 160.1112189749708,40 L 161.60097664122227,40 L 161.6334635685237,40 L 161.66693603416024,40 L 163.14728628903097,40 L 163.1749530379297,40 L 163.21138211857163,40 L 164.69979586891156,40 L 164.72339503231808,40 L 164.7524594537648,40 L 166.24667892084253,40 L 166.28018722423676,40 L 166.3115631810513,40 L 167.79397410698638,40 L 167.82413158004115,40 L 167.85799826101177,40 L 169.33997913385517,40 L 169.36938401399948,40 L 169.40253393981726,40 L 170.8913956621277,40 L 170.91888322223824,40 L 170.94699794310748,40 L 172.43783074208818,40 L 172.46562292313865,40 L 172.49902371325993,40 L 173.97711618939928,40 L 174.01392156649644,40 L 174.04479579470404,40 L 175.53338873383217,40 L 175.55512433384135,40 L 175.5942054085487,40 L 177.08342550843554,40 L 177.11609162452518,40 L 177.1505137907392,40 L 178.63382066061533,40 L 178.66370935048778,40 L 178.69537200936347,40 L 180.17283732474414,40 L 180.20530633316673,40 L 180.23768574719523,40 L 181.72581279547404,40 L 181.75620321395348,40 L 181.79093000110748,40 L 183.27448773528707,40 L 183.30245910512576,40 L 183.33333333333334,40" stroke="#3b82f6" stroke-width="2" fill="none" stroke-dasharray="14800" stroke-dashoffset="14800">
      <animate attributeName="stroke-dashoffset" values="14800;0" dur="3s" begin="3.0999999999999996s" fill="freeze"/>
    </path>
    
    <!-- Glow effect for the line that also follows the circle -->
    <path d="M 30,160 L 30.025444807925005,160 L 30.046356139508443,160 L 31.549355857208194,160 L 31.57340299258521,160 L 31.602664521698962,160 L 33.09838917459762,160 L 33.124084846826115,160 L 33.152253324331824,160 L 34.64520055101332,160 L 34.66561015398978,160 L 34.69712946183491,160 L 36.19618702619417,160 L 36.21822724714329,160 L 36.24913731310853,160 L 37.74328510467099,160 L 37.76896285802066,160 L 37.79989084286472,160 L 39.29058029081483,160 L 39.31536210022348,160 L 39.333908139802624,160 L 40.83574313037905,160 L 40.870792457351804,160 L 40.894463296273585,160 L 42.38728509080333,160 L 42.41135014505917,160 L 43.961351081904894,160 L 43.987763509286204,160 L 45.48011941296662,160 L 45.503342279917895,160 L 45.530991109937816,160 L 47.03176888666383,160 L 47.060654119322365,160 L 47.08821335494818,160 L 48.579977935627525,160 L 48.60966951783297,160 L 48.6386443448856,160 L 50.13083897865663,160 L 50.15854156531301,160 L 50.18237367414417,160 L 51.67465790230931,160 L 51.702987649724406,79.84313725490196 L 51.732069990049965,79.84313725490196 L 53.251214617566916,79.84313725490196 L 53.277125316341255,79.84313725490196 L 54.76654252389512,79.84313725490196 L 54.79438846158206,79.84313725490196 L 54.813042014434124,79.84313725490196 L 56.31858621292638,79.84313725490196 L 56.34630671846158,79.84313725490196 L 56.37461854699785,79.84313725490196 L 57.863838646884695,79.84313725490196 L 57.892670122906765,79.84313725490196 L 57.928113665213566,79.84313725490196 L 59.41839097895081,79.84313725490196 L 59.448638046399694,79.84313725490196 L 59.47015861986303,79.84313725490196 L 60.965542814064094,79.84313725490196 L 60.989751219350495,79.84313725490196 L 61.01938904491948,79.84313725490196 L 62.51627842494146,79.84313725490196 L 62.57114603188961,79.84313725490196 L 64.06018694298825,79.84313725490196 L 64.08986060631487,79.84313725490196 L 64.11720481539484,79.84313725490196 L 65.61006244768222,79.84313725490196 L 65.63814133079384,79.84313725490196 L 65.66745661654406,79.84313725490196 L 67.15888073852582,79.84313725490196 L 67.18751510688085,79.84313725490196 L 67.21973325099998,79.84313725490196 L 68.70635511345787,79.84313725490196 L 68.73649466763382,79.84313725490196 L 68.76745849023551,79.84313725490196 L 70.25721615648698,79.84313725490196 L 70.28678230654067,79.84313725490196 L 70.3149687029252,79.84313725490196 L 71.80753963315146,79.84313725490196 L 71.82880934231132,79.84313725490196 L 71.85825006021327,79.84313725490196 L 73.35028342407493,79.84313725490196 L 73.37764555203373,79.84313725490196 L 73.40936196754588,79.84313725490196 L 74.89917339043379,79.84313725490196 L 74.9263742484832,79.84313725490196 L 74.95631669499214,79.84313725490196 L 76.44750787154922,79.84313725490196 L 76.47327521929299,79.84313725490196 L 76.50504539144161,79.84313725490196 L 77.99691748539388,79.84313725490196 L 78.02268483313765,79.84313725490196 L 78.04657069860528,79.84313725490196 L 79.55041260360959,79.84313725490196 L 79.57236323016461,79.84313725490196 L 79.60431259110143,79.84313725490196 L 81.09389106856469,79.84313725490196 L 81.11915668770149,79.84313725490196 L 81.14757602951069,79.84313725490196 L 82.64134752461791,79.84313725490196 L 82.66360277211288,79.84313725490196 L 82.69725442653765,79.84313725490196 L 84.18794387448776,79.84313725490196 L 84.21406959980794,79.84313725490196 L 84.2461264740177,79.84313725490196 L 85.73441479220587,79.84313725490196 L 85.75878446740165,79.84313725490196 L 85.79345749791918,79.84313725490196 L 87.27850249904085,79.84313725490196 L 87.30998596912835,79.84313725490196 L 87.3423116265204,79.84313725490196 L 88.83214096828713,79.84313725490196 L 88.85728115527219,79.84313725490196 L 88.88677562981061,79.84313725490196 L 90.38241068831516,79.84313725490196 L 90.40955778972811,79.84313725490196 L 90.44254644563652,79.84313725490196 L 91.92798566209225,79.84313725490196 L 91.9597020776044,79.84313725490196 L 91.99475140457716,79.84313725490196 L 93.47924092045542,79.84313725490196 L 93.5033597313477,79.84313725490196 L 93.53491487695048,79.84313725490196 L 95.02848926439069,79.84313725490196 L 95.05090578179504,79.84313725490196 L 95.08253260291309,79.84313725490196 L 96.57327580749967,79.84313725490196 L 96.59800386027186,79.84313725490196 L 96.62896768287355,79.84313725490196 L 98.12204034170679,79.84313725490196 L 98.1501192248184,79.84313725490196 L 99.67270427706887,79.84313725490196 L 99.69850746257029,79.84313725490196 L 99.72296673216017,79.84313725490196 L 101.22159424342775,79.84313725490196 L 101.25132166339083,79.84313725490196 L 101.28511666884616,79.84313725490196 L 102.75994790904019,79.84313725490196 L 102.79619780089392,79.84313725490196 L 102.82710786685915,79.84313725490196 L 104.31448232222749,79.84313725490196 L 104.33388846799001,79.84313725490196 L 104.37067592620835,79.84313725490196 L 105.86317518091933,79.84313725490196 L 105.89069857878751,79.84313725490196 L 105.92121442941868,79.84313725490196 L 107.41365992749321,79.84313725490196 L 107.43966022066165,79.84313725490196 L 107.46718361852983,79.84313725490196 L 108.9577476343282,79.84313725490196 L 108.98742129765482,79.84313725490196 L 109.01684409667796,79.84313725490196 L 110.50502490159322,79.84313725490196 L 110.53222575964263,79.84313725490196 L 110.5629028801832,79.84313725490196 L 112.05828707438427,79.84313725490196 L 112.08887460053073,79.84313725490196 L 112.12186325643916,79.84313725490196 L 113.60902268526164,79.84313725490196 L 113.63215595781881,79.84313725490196 L 113.68327851909349,79.84313725490196 L 115.15793057049932,79.84313725490196 L 115.18145805839055,79.84313725490196 L 115.21102420844426,79.84313725490196 L 116.70094314460509,79.84313725490196 L 116.72857405574618,79.84313725490196 L 116.75778182822347,79.84313725490196 L 118.24843543841595,79.84313725490196 L 118.27504497346429,79.84313725490196 L 118.3057579317625,79.84313725490196 L 119.7976658634724,79.84313725490196 L 119.8256372333111,79.84313725490196 L 119.85122539226666,79.84313725490196 L 121.34370672809882,79.84313725490196 L 121.37137347699756,79.84313725490196 L 121.4004378984443,79.84313725490196 L 122.89879662652955,79.84313725490196 L 122.92795064237038,79.84313725490196 L 122.95843065524393,79.84313725490196 L 124.44112828324015,79.84313725490196 L 124.47044356899035,40 L 124.50085190634861,40 L 125.99559102091216,40 L 126.0164127581015,40 L 126.04474250551658,40 L 127.53799435313802,40 L 127.55792014638635,40 L 127.59599776387975,40 L 129.08838950531782,40 L 129.11718514358222,40 L 129.14153689989917,40 L 130.6305240543614,40 L 130.66315433269335,40 L 130.69490658596317,40 L 132.1858648170956,40 L 132.2008629186683,40 L 132.23926307598046,40 L 133.73371548848286,40 L 133.76369377274943,40 L 133.79867142420693,40 L 135.28183494305244,40 L 135.3083011270702,40 L 135.34413888471107,40 L 136.82717697140487,40 L 136.8571910934291,40 L 136.89048437027742,40 L 138.37882644510208,40 L 138.40068747726298,40 L 138.43172297537996,40 L 139.92266328763355,40 L 139.94757052919397,40 L 139.979699078919,40 L 141.47375727608735,40 L 141.50314423735284,40 L 141.5287861529449,40 L 143.0207836790489,40 L 143.0536110650479,40 L 143.07652931105923,40 L 144.57098172356166,40 L 144.59986695622018,40 L 144.6331243953109,40 L 146.11967458225348,40 L 146.14786097863802,40 L 146.181888929518,40 L 147.6669518495185,40 L 147.69261168398936,40 L 147.72463272044146,40 L 149.21654065215137,40 L 149.2445299408689,40 L 149.27698103041266,40 L 150.7608433855322,40 L 150.79845511217627,40 L 150.8202265499431,40 L 152.30926746104174,40 L 152.33856482791316,40 L 152.36771884375398,40 L 153.85331933011906,40 L 153.8856449875111,40 L 153.91266665677233,40 L 154.99288834758295,40 L 155.40812252648868,40 L 155.4402510762137,40 L 155.4740998383055,40 L 156.95613446778535,40 L 156.98423126977576,40 L 157.0171303312901,40 L 158.50242619671525,40 L 158.52409012120916,40 L 158.56042960745697,40 L 160.0526959167433,40 L 160.07975342376213,40 L 160.1112189749708,40 L 161.60097664122227,40 L 161.6334635685237,40 L 161.66693603416024,40 L 163.14728628903097,40 L 163.1749530379297,40 L 163.21138211857163,40 L 164.69979586891156,40 L 164.72339503231808,40 L 164.7524594537648,40 L 166.24667892084253,40 L 166.28018722423676,40 L 166.3115631810513,40 L 167.79397410698638,40 L 167.82413158004115,40 L 167.85799826101177,40 L 169.33997913385517,40 L 169.36938401399948,40 L 169.40253393981726,40 L 170.8913956621277,40 L 170.91888322223824,40 L 170.94699794310748,40 L 172.43783074208818,40 L 172.46562292313865,40 L 172.49902371325993,40 L 173.97711618939928,40 L 174.01392156649644,40 L 174.04479579470404,40 L 175.53338873383217,40 L 175.55512433384135,40 L 175.5942054085487,40 L 177.08342550843554,40 L 177.11609162452518,40 L 177.1505137907392,40 L 178.63382066061533,40 L 178.66370935048778,40 L 178.69537200936347,40 L 180.17283732474414,40 L 180.20530633316673,40 L 180.23768574719523,40 L 181.72581279547404,40 L 181.75620321395348,40 L 181.79093000110748,40 L 183.27448773528707,40 L 183.30245910512576,40 L 183.33333333333334,40" stroke="#3b82f6" stroke-width="4" fill="none" opacity="0.4" stroke-dasharray="14800" stroke-dashoffset="14800">
      <animate attributeName="stroke-dashoffset" values="14800;0" dur="3s" begin="3.0999999999999996s" fill="freeze"/>
    </path>
    
    <!-- Animated circle that moves along the path and draws the line -->
    <circle r="5" fill="#3b82f6" opacity="0" filter="url(#trailGlow)">
      <animate attributeName="opacity" values="0;1;1;1" dur="3.2s" begin="2.9s" fill="freeze"/>
      <animate attributeName="r" values="5;6;5" dur="1s" begin="2.9s" repeatCount="3"/>
      <animateMotion dur="3s" begin="2.9s" fill="freeze">
        <mpath href="#path_publicContributions_293.33333333333337"/>
      </animateMotion>
    </circle>
    
    <!-- Small trail dots that fade out -->
    <circle r="2" fill="#3b82f6" opacity="0">
      <animate attributeName="opacity" values="0;0.6;0" dur="0.8s" begin="3.3s" fill="freeze"/>
      <animateMotion dur="3s" begin="2.9s" fill="freeze">
        <mpath href="#path_publicContributions_293.33333333333337"/>
      </animateMotion>
    </circle>
    
    <!-- Hidden path for motion animation -->
    <path id="path_publicContributions_293.33333333333337" d="M 30,160 L 30.025444807925005,160 L 30.046356139508443,160 L 31.549355857208194,160 L 31.57340299258521,160 L 31.602664521698962,160 L 33.09838917459762,160 L 33.124084846826115,160 L 33.152253324331824,160 L 34.64520055101332,160 L 34.66561015398978,160 L 34.69712946183491,160 L 36.19618702619417,160 L 36.21822724714329,160 L 36.24913731310853,160 L 37.74328510467099,160 L 37.76896285802066,160 L 37.79989084286472,160 L 39.29058029081483,160 L 39.31536210022348,160 L 39.333908139802624,160 L 40.83574313037905,160 L 40.870792457351804,160 L 40.894463296273585,160 L 42.38728509080333,160 L 42.41135014505917,160 L 43.961351081904894,160 L 43.987763509286204,160 L 45.48011941296662,160 L 45.503342279917895,160 L 45.530991109937816,160 L 47.03176888666383,160 L 47.060654119322365,160 L 47.08821335494818,160 L 48.579977935627525,160 L 48.60966951783297,160 L 48.6386443448856,160 L 50.13083897865663,160 L 50.15854156531301,160 L 50.18237367414417,160 L 51.67465790230931,160 L 51.702987649724406,79.84313725490196 L 51.732069990049965,79.84313725490196 L 53.251214617566916,79.84313725490196 L 53.277125316341255,79.84313725490196 L 54.76654252389512,79.84313725490196 L 54.79438846158206,79.84313725490196 L 54.813042014434124,79.84313725490196 L 56.31858621292638,79.84313725490196 L 56.34630671846158,79.84313725490196 L 56.37461854699785,79.84313725490196 L 57.863838646884695,79.84313725490196 L 57.892670122906765,79.84313725490196 L 57.928113665213566,79.84313725490196 L 59.41839097895081,79.84313725490196 L 59.448638046399694,79.84313725490196 L 59.47015861986303,79.84313725490196 L 60.965542814064094,79.84313725490196 L 60.989751219350495,79.84313725490196 L 61.01938904491948,79.84313725490196 L 62.51627842494146,79.84313725490196 L 62.57114603188961,79.84313725490196 L 64.06018694298825,79.84313725490196 L 64.08986060631487,79.84313725490196 L 64.11720481539484,79.84313725490196 L 65.61006244768222,79.84313725490196 L 65.63814133079384,79.84313725490196 L 65.66745661654406,79.84313725490196 L 67.15888073852582,79.84313725490196 L 67.18751510688085,79.84313725490196 L 67.21973325099998,79.84313725490196 L 68.70635511345787,79.84313725490196 L 68.73649466763382,79.84313725490196 L 68.76745849023551,79.84313725490196 L 70.25721615648698,79.84313725490196 L 70.28678230654067,79.84313725490196 L 70.3149687029252,79.84313725490196 L 71.80753963315146,79.84313725490196 L 71.82880934231132,79.84313725490196 L 71.85825006021327,79.84313725490196 L 73.35028342407493,79.84313725490196 L 73.37764555203373,79.84313725490196 L 73.40936196754588,79.84313725490196 L 74.89917339043379,79.84313725490196 L 74.9263742484832,79.84313725490196 L 74.95631669499214,79.84313725490196 L 76.44750787154922,79.84313725490196 L 76.47327521929299,79.84313725490196 L 76.50504539144161,79.84313725490196 L 77.99691748539388,79.84313725490196 L 78.02268483313765,79.84313725490196 L 78.04657069860528,79.84313725490196 L 79.55041260360959,79.84313725490196 L 79.57236323016461,79.84313725490196 L 79.60431259110143,79.84313725490196 L 81.09389106856469,79.84313725490196 L 81.11915668770149,79.84313725490196 L 81.14757602951069,79.84313725490196 L 82.64134752461791,79.84313725490196 L 82.66360277211288,79.84313725490196 L 82.69725442653765,79.84313725490196 L 84.18794387448776,79.84313725490196 L 84.21406959980794,79.84313725490196 L 84.2461264740177,79.84313725490196 L 85.73441479220587,79.84313725490196 L 85.75878446740165,79.84313725490196 L 85.79345749791918,79.84313725490196 L 87.27850249904085,79.84313725490196 L 87.30998596912835,79.84313725490196 L 87.3423116265204,79.84313725490196 L 88.83214096828713,79.84313725490196 L 88.85728115527219,79.84313725490196 L 88.88677562981061,79.84313725490196 L 90.38241068831516,79.84313725490196 L 90.40955778972811,79.84313725490196 L 90.44254644563652,79.84313725490196 L 91.92798566209225,79.84313725490196 L 91.9597020776044,79.84313725490196 L 91.99475140457716,79.84313725490196 L 93.47924092045542,79.84313725490196 L 93.5033597313477,79.84313725490196 L 93.53491487695048,79.84313725490196 L 95.02848926439069,79.84313725490196 L 95.05090578179504,79.84313725490196 L 95.08253260291309,79.84313725490196 L 96.57327580749967,79.84313725490196 L 96.59800386027186,79.84313725490196 L 96.62896768287355,79.84313725490196 L 98.12204034170679,79.84313725490196 L 98.1501192248184,79.84313725490196 L 99.67270427706887,79.84313725490196 L 99.69850746257029,79.84313725490196 L 99.72296673216017,79.84313725490196 L 101.22159424342775,79.84313725490196 L 101.25132166339083,79.84313725490196 L 101.28511666884616,79.84313725490196 L 102.75994790904019,79.84313725490196 L 102.79619780089392,79.84313725490196 L 102.82710786685915,79.84313725490196 L 104.31448232222749,79.84313725490196 L 104.33388846799001,79.84313725490196 L 104.37067592620835,79.84313725490196 L 105.86317518091933,79.84313725490196 L 105.89069857878751,79.84313725490196 L 105.92121442941868,79.84313725490196 L 107.41365992749321,79.84313725490196 L 107.43966022066165,79.84313725490196 L 107.46718361852983,79.84313725490196 L 108.9577476343282,79.84313725490196 L 108.98742129765482,79.84313725490196 L 109.01684409667796,79.84313725490196 L 110.50502490159322,79.84313725490196 L 110.53222575964263,79.84313725490196 L 110.5629028801832,79.84313725490196 L 112.05828707438427,79.84313725490196 L 112.08887460053073,79.84313725490196 L 112.12186325643916,79.84313725490196 L 113.60902268526164,79.84313725490196 L 113.63215595781881,79.84313725490196 L 113.68327851909349,79.84313725490196 L 115.15793057049932,79.84313725490196 L 115.18145805839055,79.84313725490196 L 115.21102420844426,79.84313725490196 L 116.70094314460509,79.84313725490196 L 116.72857405574618,79.84313725490196 L 116.75778182822347,79.84313725490196 L 118.24843543841595,79.84313725490196 L 118.27504497346429,79.84313725490196 L 118.3057579317625,79.84313725490196 L 119.7976658634724,79.84313725490196 L 119.8256372333111,79.84313725490196 L 119.85122539226666,79.84313725490196 L 121.34370672809882,79.84313725490196 L 121.37137347699756,79.84313725490196 L 121.4004378984443,79.84313725490196 L 122.89879662652955,79.84313725490196 L 122.92795064237038,79.84313725490196 L 122.95843065524393,79.84313725490196 L 124.44112828324015,79.84313725490196 L 124.47044356899035,40 L 124.50085190634861,40 L 125.99559102091216,40 L 126.0164127581015,40 L 126.04474250551658,40 L 127.53799435313802,40 L 127.55792014638635,40 L 127.59599776387975,40 L 129.08838950531782,40 L 129.11718514358222,40 L 129.14153689989917,40 L 130.6305240543614,40 L 130.66315433269335,40 L 130.69490658596317,40 L 132.1858648170956,40 L 132.2008629186683,40 L 132.23926307598046,40 L 133.73371548848286,40 L 133.76369377274943,40 L 133.79867142420693,40 L 135.28183494305244,40 L 135.3083011270702,40 L 135.34413888471107,40 L 136.82717697140487,40 L 136.8571910934291,40 L 136.89048437027742,40 L 138.37882644510208,40 L 138.40068747726298,40 L 138.43172297537996,40 L 139.92266328763355,40 L 139.94757052919397,40 L 139.979699078919,40 L 141.47375727608735,40 L 141.50314423735284,40 L 141.5287861529449,40 L 143.0207836790489,40 L 143.0536110650479,40 L 143.07652931105923,40 L 144.57098172356166,40 L 144.59986695622018,40 L 144.6331243953109,40 L 146.11967458225348,40 L 146.14786097863802,40 L 146.181888929518,40 L 147.6669518495185,40 L 147.69261168398936,40 L 147.72463272044146,40 L 149.21654065215137,40 L 149.2445299408689,40 L 149.27698103041266,40 L 150.7608433855322,40 L 150.79845511217627,40 L 150.8202265499431,40 L 152.30926746104174,40 L 152.33856482791316,40 L 152.36771884375398,40 L 153.85331933011906,40 L 153.8856449875111,40 L 153.91266665677233,40 L 154.99288834758295,40 L 155.40812252648868,40 L 155.4402510762137,40 L 155.4740998383055,40 L 156.95613446778535,40 L 156.98423126977576,40 L 157.0171303312901,40 L 158.50242619671525,40 L 158.52409012120916,40 L 158.56042960745697,40 L 160.0526959167433,40 L 160.07975342376213,40 L 160.1112189749708,40 L 161.60097664122227,40 L 161.6334635685237,40 L 161.66693603416024,40 L 163.14728628903097,40 L 163.1749530379297,40 L 163.21138211857163,40 L 164.69979586891156,40 L 164.72339503231808,40 L 164.7524594537648,40 L 166.24667892084253,40 L 166.28018722423676,40 L 166.3115631810513,40 L 167.79397410698638,40 L 167.82413158004115,40 L 167.85799826101177,40 L 169.33997913385517,40 L 169.36938401399948,40 L 169.40253393981726,40 L 170.8913956621277,40 L 170.91888322223824,40 L 170.94699794310748,40 L 172.43783074208818,40 L 172.46562292313865,40 L 172.49902371325993,40 L 173.97711618939928,40 L 174.01392156649644,40 L 174.04479579470404,40 L 175.53338873383217,40 L 175.55512433384135,40 L 175.5942054085487,40 L 177.08342550843554,40 L 177.11609162452518,40 L 177.1505137907392,40 L 178.63382066061533,40 L 178.66370935048778,40 L 178.69537200936347,40 L 180.17283732474414,40 L 180.20530633316673,40 L 180.23768574719523,40 L 181.72581279547404,40 L 181.75620321395348,40 L 181.79093000110748,40 L 183.27448773528707,40 L 183.30245910512576,40 L 183.33333333333334,40" fill="none" stroke="none"/>
  </g>
  <!-- 📊 Total Contributions Chart -->
  <g transform="translate(526.6666666666667, 250)">
    <!-- Chart Background -->
    <rect x="0" y="0" width="213.33333333333334" height="200" fill="#ffffff" stroke="#e2e8f0" stroke-width="1" rx="8" filter="url(#shadow)">
      <animate attributeName="opacity" values="0;1" dur="0.5s" begin="2.8s" fill="freeze"/>
    </rect>
    
    <!-- Chart Title -->
    <text x="106.66666666666667" y="25" text-anchor="middle" fill="#1e293b" font-size="14" font-weight="bold" font-family="Arial, sans-serif">
      📊 Total Contributions
      <animate attributeName="opacity" values="0;1" dur="0.5s" begin="3s" fill="freeze"/>
    </text>
    
    <!-- Y-axis labels -->
    <text x="10" y="45" fill="#64748b" font-size="10" font-family="Arial, sans-serif">4,917
      <animate attributeName="opacity" values="0;1" dur="0.5s" begin="3.1999999999999997s" fill="freeze"/>
    </text>
    <text x="10" y="185" fill="#64748b" font-size="10" font-family="Arial, sans-serif">3,802
      <animate attributeName="opacity" values="0;1" dur="0.5s" begin="3.1999999999999997s" fill="freeze"/>
    </text>
    
    <!-- Chart Line with draw animation that follows the circle -->
    <path d="M 30,160 L 30.025444807925005,160 L 30.046356139508443,160 L 31.549355857208194,160 L 31.57340299258521,160 L 31.602664521698962,160 L 33.09838917459762,160 L 33.124084846826115,160 L 33.152253324331824,160 L 34.64520055101332,160 L 34.66561015398978,160 L 34.69712946183491,160 L 36.19618702619417,160 L 36.21822724714329,160 L 36.24913731310853,160 L 37.74328510467099,160 L 37.76896285802066,160 L 37.79989084286472,160 L 39.29058029081483,160 L 39.31536210022348,160 L 39.333908139802624,160 L 40.83574313037905,160 L 40.870792457351804,160 L 40.894463296273585,160 L 42.38728509080333,160 L 42.41135014505917,160 L 43.961351081904894,160 L 43.987763509286204,160 L 45.48011941296662,160 L 45.503342279917895,160 L 45.530991109937816,160 L 47.03176888666383,160 L 47.060654119322365,160 L 47.08821335494818,160 L 48.579977935627525,160 L 48.60966951783297,160 L 48.6386443448856,160 L 50.13083897865663,160 L 50.15854156531301,160 L 50.18237367414417,160 L 51.67465790230931,160 L 51.702987649724406,94.78026905829597 L 51.732069990049965,94.78026905829597 L 53.251214617566916,94.78026905829597 L 53.277125316341255,94.78026905829597 L 54.76654252389512,94.78026905829597 L 54.79438846158206,94.78026905829597 L 54.813042014434124,94.78026905829597 L 56.31858621292638,94.78026905829597 L 56.34630671846158,94.78026905829597 L 56.37461854699785,94.78026905829597 L 57.863838646884695,94.78026905829597 L 57.892670122906765,94.78026905829597 L 57.928113665213566,94.78026905829597 L 59.41839097895081,94.78026905829597 L 59.448638046399694,94.78026905829597 L 59.47015861986303,94.78026905829597 L 60.965542814064094,94.78026905829597 L 60.989751219350495,94.78026905829597 L 61.01938904491948,94.78026905829597 L 62.51627842494146,94.78026905829597 L 62.57114603188961,94.78026905829597 L 64.06018694298825,94.78026905829597 L 64.08986060631487,94.78026905829597 L 64.11720481539484,94.78026905829597 L 65.61006244768222,94.78026905829597 L 65.63814133079384,94.78026905829597 L 65.66745661654406,94.78026905829597 L 67.15888073852582,94.78026905829597 L 67.18751510688085,94.78026905829597 L 67.21973325099998,94.78026905829597 L 68.70635511345787,94.78026905829597 L 68.73649466763382,94.78026905829597 L 68.76745849023551,94.78026905829597 L 70.25721615648698,94.78026905829597 L 70.28678230654067,94.78026905829597 L 70.3149687029252,94.78026905829597 L 71.80753963315146,94.78026905829597 L 71.82880934231132,94.78026905829597 L 71.85825006021327,94.78026905829597 L 73.35028342407493,94.78026905829597 L 73.37764555203373,94.78026905829597 L 73.40936196754588,94.78026905829597 L 74.89917339043379,94.78026905829597 L 74.9263742484832,94.78026905829597 L 74.95631669499214,94.78026905829597 L 76.44750787154922,94.78026905829597 L 76.47327521929299,94.78026905829597 L 76.50504539144161,94.78026905829597 L 77.99691748539388,94.78026905829597 L 78.02268483313765,94.78026905829597 L 78.04657069860528,94.78026905829597 L 79.55041260360959,94.78026905829597 L 79.57236323016461,94.78026905829597 L 79.60431259110143,94.78026905829597 L 81.09389106856469,94.78026905829597 L 81.11915668770149,94.78026905829597 L 81.14757602951069,94.78026905829597 L 82.64134752461791,94.78026905829597 L 82.66360277211288,94.78026905829597 L 82.69725442653765,94.78026905829597 L 84.18794387448776,94.78026905829597 L 84.21406959980794,94.78026905829597 L 84.2461264740177,94.78026905829597 L 85.73441479220587,94.78026905829597 L 85.75878446740165,94.78026905829597 L 85.79345749791918,94.78026905829597 L 87.27850249904085,94.78026905829597 L 87.30998596912835,94.78026905829597 L 87.3423116265204,94.78026905829597 L 88.83214096828713,94.78026905829597 L 88.85728115527219,94.78026905829597 L 88.88677562981061,94.78026905829597 L 90.38241068831516,94.78026905829597 L 90.40955778972811,94.78026905829597 L 90.44254644563652,94.78026905829597 L 91.92798566209225,94.78026905829597 L 91.9597020776044,94.78026905829597 L 91.99475140457716,94.78026905829597 L 93.47924092045542,94.78026905829597 L 93.5033597313477,94.78026905829597 L 93.53491487695048,94.78026905829597 L 95.02848926439069,94.78026905829597 L 95.05090578179504,94.78026905829597 L 95.08253260291309,94.78026905829597 L 96.57327580749967,94.78026905829597 L 96.59800386027186,94.78026905829597 L 96.62896768287355,94.78026905829597 L 98.12204034170679,94.78026905829597 L 98.1501192248184,94.78026905829597 L 99.67270427706887,94.78026905829597 L 99.69850746257029,94.78026905829597 L 99.72296673216017,94.78026905829597 L 101.22159424342775,94.78026905829597 L 101.25132166339083,94.78026905829597 L 101.28511666884616,94.78026905829597 L 102.75994790904019,94.78026905829597 L 102.79619780089392,94.78026905829597 L 102.82710786685915,94.78026905829597 L 104.31448232222749,94.78026905829597 L 104.33388846799001,94.78026905829597 L 104.37067592620835,94.78026905829597 L 105.86317518091933,94.78026905829597 L 105.89069857878751,94.78026905829597 L 105.92121442941868,94.78026905829597 L 107.41365992749321,94.78026905829597 L 107.43966022066165,94.78026905829597 L 107.46718361852983,94.78026905829597 L 108.9577476343282,94.78026905829597 L 108.98742129765482,94.78026905829597 L 109.01684409667796,94.78026905829597 L 110.50502490159322,94.78026905829597 L 110.53222575964263,94.78026905829597 L 110.5629028801832,94.78026905829597 L 112.05828707438427,94.78026905829597 L 112.08887460053073,94.78026905829597 L 112.12186325643916,94.78026905829597 L 113.60902268526164,94.78026905829597 L 113.63215595781881,94.78026905829597 L 113.68327851909349,94.78026905829597 L 115.15793057049932,94.78026905829597 L 115.18145805839055,94.78026905829597 L 115.21102420844426,94.78026905829597 L 116.70094314460509,94.78026905829597 L 116.72857405574618,94.78026905829597 L 116.75778182822347,94.78026905829597 L 118.24843543841595,94.78026905829597 L 118.27504497346429,94.78026905829597 L 118.3057579317625,94.78026905829597 L 119.7976658634724,94.78026905829597 L 119.8256372333111,94.78026905829597 L 119.85122539226666,94.78026905829597 L 121.34370672809882,94.78026905829597 L 121.37137347699756,94.78026905829597 L 121.4004378984443,94.78026905829597 L 122.89879662652955,94.78026905829597 L 122.92795064237038,94.78026905829597 L 122.95843065524393,94.78026905829597 L 124.44112828324015,94.78026905829597 L 124.47044356899035,40 L 124.50085190634861,40 L 125.99559102091216,40 L 126.0164127581015,40 L 126.04474250551658,40 L 127.53799435313802,40 L 127.55792014638635,40 L 127.59599776387975,40 L 129.08838950531782,40 L 129.11718514358222,40 L 129.14153689989917,40 L 130.6305240543614,40 L 130.66315433269335,40 L 130.69490658596317,40 L 132.1858648170956,40 L 132.2008629186683,40 L 132.23926307598046,40 L 133.73371548848286,40 L 133.76369377274943,40 L 133.79867142420693,40 L 135.28183494305244,40 L 135.3083011270702,40 L 135.34413888471107,40 L 136.82717697140487,40 L 136.8571910934291,40 L 136.89048437027742,40 L 138.37882644510208,40 L 138.40068747726298,40 L 138.43172297537996,40 L 139.92266328763355,40 L 139.94757052919397,40 L 139.979699078919,40 L 141.47375727608735,40 L 141.50314423735284,40 L 141.5287861529449,40 L 143.0207836790489,40 L 143.0536110650479,40 L 143.07652931105923,40 L 144.57098172356166,40 L 144.59986695622018,40 L 144.6331243953109,40 L 146.11967458225348,40 L 146.14786097863802,40 L 146.181888929518,40 L 147.6669518495185,40 L 147.69261168398936,40 L 147.72463272044146,40 L 149.21654065215137,40 L 149.2445299408689,40 L 149.27698103041266,40 L 150.7608433855322,40 L 150.79845511217627,40 L 150.8202265499431,40 L 152.30926746104174,40 L 152.33856482791316,40 L 152.36771884375398,40 L 153.85331933011906,40 L 153.8856449875111,40 L 153.91266665677233,40 L 154.99288834758295,40 L 155.40812252648868,40 L 155.4402510762137,40 L 155.4740998383055,40 L 156.95613446778535,40 L 156.98423126977576,40 L 157.0171303312901,40 L 158.50242619671525,40 L 158.52409012120916,40 L 158.56042960745697,40 L 160.0526959167433,40 L 160.07975342376213,40 L 160.1112189749708,40 L 161.60097664122227,40 L 161.6334635685237,40 L 161.66693603416024,40 L 163.14728628903097,40 L 163.1749530379297,40 L 163.21138211857163,40 L 164.69979586891156,40 L 164.72339503231808,40 L 164.7524594537648,40 L 166.24667892084253,40 L 166.28018722423676,40 L 166.3115631810513,40 L 167.79397410698638,40 L 167.82413158004115,40 L 167.85799826101177,40 L 169.33997913385517,40 L 169.36938401399948,40 L 169.40253393981726,40 L 170.8913956621277,40 L 170.91888322223824,40 L 170.94699794310748,40 L 172.43783074208818,40 L 172.46562292313865,40 L 172.49902371325993,40 L 173.97711618939928,40 L 174.01392156649644,40 L 174.04479579470404,40 L 175.53338873383217,40 L 175.55512433384135,40 L 175.5942054085487,40 L 177.08342550843554,40 L 177.11609162452518,40 L 177.1505137907392,40 L 178.63382066061533,40 L 178.66370935048778,40 L 178.69537200936347,40 L 180.17283732474414,40 L 180.20530633316673,40 L 180.23768574719523,40 L 181.72581279547404,40 L 181.75620321395348,40 L 181.79093000110748,40 L 183.27448773528707,40 L 183.30245910512576,40 L 183.33333333333334,40" stroke="#f59e0b" stroke-width="2" fill="none" stroke-dasharray="14800" stroke-dashoffset="14800">
      <animate attributeName="stroke-dashoffset" values="14800;0" dur="3s" begin="3.5999999999999996s" fill="freeze"/>
    </path>
    
    <!-- Glow effect for the line that also follows the circle -->
    <path d="M 30,160 L 30.025444807925005,160 L 30.046356139508443,160 L 31.549355857208194,160 L 31.57340299258521,160 L 31.602664521698962,160 L 33.09838917459762,160 L 33.124084846826115,160 L 33.152253324331824,160 L 34.64520055101332,160 L 34.66561015398978,160 L 34.69712946183491,160 L 36.19618702619417,160 L 36.21822724714329,160 L 36.24913731310853,160 L 37.74328510467099,160 L 37.76896285802066,160 L 37.79989084286472,160 L 39.29058029081483,160 L 39.31536210022348,160 L 39.333908139802624,160 L 40.83574313037905,160 L 40.870792457351804,160 L 40.894463296273585,160 L 42.38728509080333,160 L 42.41135014505917,160 L 43.961351081904894,160 L 43.987763509286204,160 L 45.48011941296662,160 L 45.503342279917895,160 L 45.530991109937816,160 L 47.03176888666383,160 L 47.060654119322365,160 L 47.08821335494818,160 L 48.579977935627525,160 L 48.60966951783297,160 L 48.6386443448856,160 L 50.13083897865663,160 L 50.15854156531301,160 L 50.18237367414417,160 L 51.67465790230931,160 L 51.702987649724406,94.78026905829597 L 51.732069990049965,94.78026905829597 L 53.251214617566916,94.78026905829597 L 53.277125316341255,94.78026905829597 L 54.76654252389512,94.78026905829597 L 54.79438846158206,94.78026905829597 L 54.813042014434124,94.78026905829597 L 56.31858621292638,94.78026905829597 L 56.34630671846158,94.78026905829597 L 56.37461854699785,94.78026905829597 L 57.863838646884695,94.78026905829597 L 57.892670122906765,94.78026905829597 L 57.928113665213566,94.78026905829597 L 59.41839097895081,94.78026905829597 L 59.448638046399694,94.78026905829597 L 59.47015861986303,94.78026905829597 L 60.965542814064094,94.78026905829597 L 60.989751219350495,94.78026905829597 L 61.01938904491948,94.78026905829597 L 62.51627842494146,94.78026905829597 L 62.57114603188961,94.78026905829597 L 64.06018694298825,94.78026905829597 L 64.08986060631487,94.78026905829597 L 64.11720481539484,94.78026905829597 L 65.61006244768222,94.78026905829597 L 65.63814133079384,94.78026905829597 L 65.66745661654406,94.78026905829597 L 67.15888073852582,94.78026905829597 L 67.18751510688085,94.78026905829597 L 67.21973325099998,94.78026905829597 L 68.70635511345787,94.78026905829597 L 68.73649466763382,94.78026905829597 L 68.76745849023551,94.78026905829597 L 70.25721615648698,94.78026905829597 L 70.28678230654067,94.78026905829597 L 70.3149687029252,94.78026905829597 L 71.80753963315146,94.78026905829597 L 71.82880934231132,94.78026905829597 L 71.85825006021327,94.78026905829597 L 73.35028342407493,94.78026905829597 L 73.37764555203373,94.78026905829597 L 73.40936196754588,94.78026905829597 L 74.89917339043379,94.78026905829597 L 74.9263742484832,94.78026905829597 L 74.95631669499214,94.78026905829597 L 76.44750787154922,94.78026905829597 L 76.47327521929299,94.78026905829597 L 76.50504539144161,94.78026905829597 L 77.99691748539388,94.78026905829597 L 78.02268483313765,94.78026905829597 L 78.04657069860528,94.78026905829597 L 79.55041260360959,94.78026905829597 L 79.57236323016461,94.78026905829597 L 79.60431259110143,94.78026905829597 L 81.09389106856469,94.78026905829597 L 81.11915668770149,94.78026905829597 L 81.14757602951069,94.78026905829597 L 82.64134752461791,94.78026905829597 L 82.66360277211288,94.78026905829597 L 82.69725442653765,94.78026905829597 L 84.18794387448776,94.78026905829597 L 84.21406959980794,94.78026905829597 L 84.2461264740177,94.78026905829597 L 85.73441479220587,94.78026905829597 L 85.75878446740165,94.78026905829597 L 85.79345749791918,94.78026905829597 L 87.27850249904085,94.78026905829597 L 87.30998596912835,94.78026905829597 L 87.3423116265204,94.78026905829597 L 88.83214096828713,94.78026905829597 L 88.85728115527219,94.78026905829597 L 88.88677562981061,94.78026905829597 L 90.38241068831516,94.78026905829597 L 90.40955778972811,94.78026905829597 L 90.44254644563652,94.78026905829597 L 91.92798566209225,94.78026905829597 L 91.9597020776044,94.78026905829597 L 91.99475140457716,94.78026905829597 L 93.47924092045542,94.78026905829597 L 93.5033597313477,94.78026905829597 L 93.53491487695048,94.78026905829597 L 95.02848926439069,94.78026905829597 L 95.05090578179504,94.78026905829597 L 95.08253260291309,94.78026905829597 L 96.57327580749967,94.78026905829597 L 96.59800386027186,94.78026905829597 L 96.62896768287355,94.78026905829597 L 98.12204034170679,94.78026905829597 L 98.1501192248184,94.78026905829597 L 99.67270427706887,94.78026905829597 L 99.69850746257029,94.78026905829597 L 99.72296673216017,94.78026905829597 L 101.22159424342775,94.78026905829597 L 101.25132166339083,94.78026905829597 L 101.28511666884616,94.78026905829597 L 102.75994790904019,94.78026905829597 L 102.79619780089392,94.78026905829597 L 102.82710786685915,94.78026905829597 L 104.31448232222749,94.78026905829597 L 104.33388846799001,94.78026905829597 L 104.37067592620835,94.78026905829597 L 105.86317518091933,94.78026905829597 L 105.89069857878751,94.78026905829597 L 105.92121442941868,94.78026905829597 L 107.41365992749321,94.78026905829597 L 107.43966022066165,94.78026905829597 L 107.46718361852983,94.78026905829597 L 108.9577476343282,94.78026905829597 L 108.98742129765482,94.78026905829597 L 109.01684409667796,94.78026905829597 L 110.50502490159322,94.78026905829597 L 110.53222575964263,94.78026905829597 L 110.5629028801832,94.78026905829597 L 112.05828707438427,94.78026905829597 L 112.08887460053073,94.78026905829597 L 112.12186325643916,94.78026905829597 L 113.60902268526164,94.78026905829597 L 113.63215595781881,94.78026905829597 L 113.68327851909349,94.78026905829597 L 115.15793057049932,94.78026905829597 L 115.18145805839055,94.78026905829597 L 115.21102420844426,94.78026905829597 L 116.70094314460509,94.78026905829597 L 116.72857405574618,94.78026905829597 L 116.75778182822347,94.78026905829597 L 118.24843543841595,94.78026905829597 L 118.27504497346429,94.78026905829597 L 118.3057579317625,94.78026905829597 L 119.7976658634724,94.78026905829597 L 119.8256372333111,94.78026905829597 L 119.85122539226666,94.78026905829597 L 121.34370672809882,94.78026905829597 L 121.37137347699756,94.78026905829597 L 121.4004378984443,94.78026905829597 L 122.89879662652955,94.78026905829597 L 122.92795064237038,94.78026905829597 L 122.95843065524393,94.78026905829597 L 124.44112828324015,94.78026905829597 L 124.47044356899035,40 L 124.50085190634861,40 L 125.99559102091216,40 L 126.0164127581015,40 L 126.04474250551658,40 L 127.53799435313802,40 L 127.55792014638635,40 L 127.59599776387975,40 L 129.08838950531782,40 L 129.11718514358222,40 L 129.14153689989917,40 L 130.6305240543614,40 L 130.66315433269335,40 L 130.69490658596317,40 L 132.1858648170956,40 L 132.2008629186683,40 L 132.23926307598046,40 L 133.73371548848286,40 L 133.76369377274943,40 L 133.79867142420693,40 L 135.28183494305244,40 L 135.3083011270702,40 L 135.34413888471107,40 L 136.82717697140487,40 L 136.8571910934291,40 L 136.89048437027742,40 L 138.37882644510208,40 L 138.40068747726298,40 L 138.43172297537996,40 L 139.92266328763355,40 L 139.94757052919397,40 L 139.979699078919,40 L 141.47375727608735,40 L 141.50314423735284,40 L 141.5287861529449,40 L 143.0207836790489,40 L 143.0536110650479,40 L 143.07652931105923,40 L 144.57098172356166,40 L 144.59986695622018,40 L 144.6331243953109,40 L 146.11967458225348,40 L 146.14786097863802,40 L 146.181888929518,40 L 147.6669518495185,40 L 147.69261168398936,40 L 147.72463272044146,40 L 149.21654065215137,40 L 149.2445299408689,40 L 149.27698103041266,40 L 150.7608433855322,40 L 150.79845511217627,40 L 150.8202265499431,40 L 152.30926746104174,40 L 152.33856482791316,40 L 152.36771884375398,40 L 153.85331933011906,40 L 153.8856449875111,40 L 153.91266665677233,40 L 154.99288834758295,40 L 155.40812252648868,40 L 155.4402510762137,40 L 155.4740998383055,40 L 156.95613446778535,40 L 156.98423126977576,40 L 157.0171303312901,40 L 158.50242619671525,40 L 158.52409012120916,40 L 158.56042960745697,40 L 160.0526959167433,40 L 160.07975342376213,40 L 160.1112189749708,40 L 161.60097664122227,40 L 161.6334635685237,40 L 161.66693603416024,40 L 163.14728628903097,40 L 163.1749530379297,40 L 163.21138211857163,40 L 164.69979586891156,40 L 164.72339503231808,40 L 164.7524594537648,40 L 166.24667892084253,40 L 166.28018722423676,40 L 166.3115631810513,40 L 167.79397410698638,40 L 167.82413158004115,40 L 167.85799826101177,40 L 169.33997913385517,40 L 169.36938401399948,40 L 169.40253393981726,40 L 170.8913956621277,40 L 170.91888322223824,40 L 170.94699794310748,40 L 172.43783074208818,40 L 172.46562292313865,40 L 172.49902371325993,40 L 173.97711618939928,40 L 174.01392156649644,40 L 174.04479579470404,40 L 175.53338873383217,40 L 175.55512433384135,40 L 175.5942054085487,40 L 177.08342550843554,40 L 177.11609162452518,40 L 177.1505137907392,40 L 178.63382066061533,40 L 178.66370935048778,40 L 178.69537200936347,40 L 180.17283732474414,40 L 180.20530633316673,40 L 180.23768574719523,40 L 181.72581279547404,40 L 181.75620321395348,40 L 181.79093000110748,40 L 183.27448773528707,40 L 183.30245910512576,40 L 183.33333333333334,40" stroke="#f59e0b" stroke-width="4" fill="none" opacity="0.4" stroke-dasharray="14800" stroke-dashoffset="14800">
      <animate attributeName="stroke-dashoffset" values="14800;0" dur="3s" begin="3.5999999999999996s" fill="freeze"/>
    </path>
    
    <!-- Animated circle that moves along the path and draws the line -->
    <circle r="5" fill="#f59e0b" opacity="0" filter="url(#trailGlow)">
      <animate attributeName="opacity" values="0;1;1;1" dur="3.2s" begin="3.4s" fill="freeze"/>
      <animate attributeName="r" values="5;6;5" dur="1s" begin="3.4s" repeatCount="3"/>
      <animateMotion dur="3s" begin="3.4s" fill="freeze">
        <mpath href="#path_totalContributions_526.6666666666667"/>
      </animateMotion>
    </circle>
    
    <!-- Small trail dots that fade out -->
    <circle r="2" fill="#f59e0b" opacity="0">
      <animate attributeName="opacity" values="0;0.6;0" dur="0.8s" begin="3.8s" fill="freeze"/>
      <animateMotion dur="3s" begin="3.4s" fill="freeze">
        <mpath href="#path_totalContributions_526.6666666666667"/>
      </animateMotion>
    </circle>
    
    <!-- Hidden path for motion animation -->
    <path id="path_totalContributions_526.6666666666667" d="M 30,160 L 30.025444807925005,160 L 30.046356139508443,160 L 31.549355857208194,160 L 31.57340299258521,160 L 31.602664521698962,160 L 33.09838917459762,160 L 33.124084846826115,160 L 33.152253324331824,160 L 34.64520055101332,160 L 34.66561015398978,160 L 34.69712946183491,160 L 36.19618702619417,160 L 36.21822724714329,160 L 36.24913731310853,160 L 37.74328510467099,160 L 37.76896285802066,160 L 37.79989084286472,160 L 39.29058029081483,160 L 39.31536210022348,160 L 39.333908139802624,160 L 40.83574313037905,160 L 40.870792457351804,160 L 40.894463296273585,160 L 42.38728509080333,160 L 42.41135014505917,160 L 43.961351081904894,160 L 43.987763509286204,160 L 45.48011941296662,160 L 45.503342279917895,160 L 45.530991109937816,160 L 47.03176888666383,160 L 47.060654119322365,160 L 47.08821335494818,160 L 48.579977935627525,160 L 48.60966951783297,160 L 48.6386443448856,160 L 50.13083897865663,160 L 50.15854156531301,160 L 50.18237367414417,160 L 51.67465790230931,160 L 51.702987649724406,94.78026905829597 L 51.732069990049965,94.78026905829597 L 53.251214617566916,94.78026905829597 L 53.277125316341255,94.78026905829597 L 54.76654252389512,94.78026905829597 L 54.79438846158206,94.78026905829597 L 54.813042014434124,94.78026905829597 L 56.31858621292638,94.78026905829597 L 56.34630671846158,94.78026905829597 L 56.37461854699785,94.78026905829597 L 57.863838646884695,94.78026905829597 L 57.892670122906765,94.78026905829597 L 57.928113665213566,94.78026905829597 L 59.41839097895081,94.78026905829597 L 59.448638046399694,94.78026905829597 L 59.47015861986303,94.78026905829597 L 60.965542814064094,94.78026905829597 L 60.989751219350495,94.78026905829597 L 61.01938904491948,94.78026905829597 L 62.51627842494146,94.78026905829597 L 62.57114603188961,94.78026905829597 L 64.06018694298825,94.78026905829597 L 64.08986060631487,94.78026905829597 L 64.11720481539484,94.78026905829597 L 65.61006244768222,94.78026905829597 L 65.63814133079384,94.78026905829597 L 65.66745661654406,94.78026905829597 L 67.15888073852582,94.78026905829597 L 67.18751510688085,94.78026905829597 L 67.21973325099998,94.78026905829597 L 68.70635511345787,94.78026905829597 L 68.73649466763382,94.78026905829597 L 68.76745849023551,94.78026905829597 L 70.25721615648698,94.78026905829597 L 70.28678230654067,94.78026905829597 L 70.3149687029252,94.78026905829597 L 71.80753963315146,94.78026905829597 L 71.82880934231132,94.78026905829597 L 71.85825006021327,94.78026905829597 L 73.35028342407493,94.78026905829597 L 73.37764555203373,94.78026905829597 L 73.40936196754588,94.78026905829597 L 74.89917339043379,94.78026905829597 L 74.9263742484832,94.78026905829597 L 74.95631669499214,94.78026905829597 L 76.44750787154922,94.78026905829597 L 76.47327521929299,94.78026905829597 L 76.50504539144161,94.78026905829597 L 77.99691748539388,94.78026905829597 L 78.02268483313765,94.78026905829597 L 78.04657069860528,94.78026905829597 L 79.55041260360959,94.78026905829597 L 79.57236323016461,94.78026905829597 L 79.60431259110143,94.78026905829597 L 81.09389106856469,94.78026905829597 L 81.11915668770149,94.78026905829597 L 81.14757602951069,94.78026905829597 L 82.64134752461791,94.78026905829597 L 82.66360277211288,94.78026905829597 L 82.69725442653765,94.78026905829597 L 84.18794387448776,94.78026905829597 L 84.21406959980794,94.78026905829597 L 84.2461264740177,94.78026905829597 L 85.73441479220587,94.78026905829597 L 85.75878446740165,94.78026905829597 L 85.79345749791918,94.78026905829597 L 87.27850249904085,94.78026905829597 L 87.30998596912835,94.78026905829597 L 87.3423116265204,94.78026905829597 L 88.83214096828713,94.78026905829597 L 88.85728115527219,94.78026905829597 L 88.88677562981061,94.78026905829597 L 90.38241068831516,94.78026905829597 L 90.40955778972811,94.78026905829597 L 90.44254644563652,94.78026905829597 L 91.92798566209225,94.78026905829597 L 91.9597020776044,94.78026905829597 L 91.99475140457716,94.78026905829597 L 93.47924092045542,94.78026905829597 L 93.5033597313477,94.78026905829597 L 93.53491487695048,94.78026905829597 L 95.02848926439069,94.78026905829597 L 95.05090578179504,94.78026905829597 L 95.08253260291309,94.78026905829597 L 96.57327580749967,94.78026905829597 L 96.59800386027186,94.78026905829597 L 96.62896768287355,94.78026905829597 L 98.12204034170679,94.78026905829597 L 98.1501192248184,94.78026905829597 L 99.67270427706887,94.78026905829597 L 99.69850746257029,94.78026905829597 L 99.72296673216017,94.78026905829597 L 101.22159424342775,94.78026905829597 L 101.25132166339083,94.78026905829597 L 101.28511666884616,94.78026905829597 L 102.75994790904019,94.78026905829597 L 102.79619780089392,94.78026905829597 L 102.82710786685915,94.78026905829597 L 104.31448232222749,94.78026905829597 L 104.33388846799001,94.78026905829597 L 104.37067592620835,94.78026905829597 L 105.86317518091933,94.78026905829597 L 105.89069857878751,94.78026905829597 L 105.92121442941868,94.78026905829597 L 107.41365992749321,94.78026905829597 L 107.43966022066165,94.78026905829597 L 107.46718361852983,94.78026905829597 L 108.9577476343282,94.78026905829597 L 108.98742129765482,94.78026905829597 L 109.01684409667796,94.78026905829597 L 110.50502490159322,94.78026905829597 L 110.53222575964263,94.78026905829597 L 110.5629028801832,94.78026905829597 L 112.05828707438427,94.78026905829597 L 112.08887460053073,94.78026905829597 L 112.12186325643916,94.78026905829597 L 113.60902268526164,94.78026905829597 L 113.63215595781881,94.78026905829597 L 113.68327851909349,94.78026905829597 L 115.15793057049932,94.78026905829597 L 115.18145805839055,94.78026905829597 L 115.21102420844426,94.78026905829597 L 116.70094314460509,94.78026905829597 L 116.72857405574618,94.78026905829597 L 116.75778182822347,94.78026905829597 L 118.24843543841595,94.78026905829597 L 118.27504497346429,94.78026905829597 L 118.3057579317625,94.78026905829597 L 119.7976658634724,94.78026905829597 L 119.8256372333111,94.78026905829597 L 119.85122539226666,94.78026905829597 L 121.34370672809882,94.78026905829597 L 121.37137347699756,94.78026905829597 L 121.4004378984443,94.78026905829597 L 122.89879662652955,94.78026905829597 L 122.92795064237038,94.78026905829597 L 122.95843065524393,94.78026905829597 L 124.44112828324015,94.78026905829597 L 124.47044356899035,40 L 124.50085190634861,40 L 125.99559102091216,40 L 126.0164127581015,40 L 126.04474250551658,40 L 127.53799435313802,40 L 127.55792014638635,40 L 127.59599776387975,40 L 129.08838950531782,40 L 129.11718514358222,40 L 129.14153689989917,40 L 130.6305240543614,40 L 130.66315433269335,40 L 130.69490658596317,40 L 132.1858648170956,40 L 132.2008629186683,40 L 132.23926307598046,40 L 133.73371548848286,40 L 133.76369377274943,40 L 133.79867142420693,40 L 135.28183494305244,40 L 135.3083011270702,40 L 135.34413888471107,40 L 136.82717697140487,40 L 136.8571910934291,40 L 136.89048437027742,40 L 138.37882644510208,40 L 138.40068747726298,40 L 138.43172297537996,40 L 139.92266328763355,40 L 139.94757052919397,40 L 139.979699078919,40 L 141.47375727608735,40 L 141.50314423735284,40 L 141.5287861529449,40 L 143.0207836790489,40 L 143.0536110650479,40 L 143.07652931105923,40 L 144.57098172356166,40 L 144.59986695622018,40 L 144.6331243953109,40 L 146.11967458225348,40 L 146.14786097863802,40 L 146.181888929518,40 L 147.6669518495185,40 L 147.69261168398936,40 L 147.72463272044146,40 L 149.21654065215137,40 L 149.2445299408689,40 L 149.27698103041266,40 L 150.7608433855322,40 L 150.79845511217627,40 L 150.8202265499431,40 L 152.30926746104174,40 L 152.33856482791316,40 L 152.36771884375398,40 L 153.85331933011906,40 L 153.8856449875111,40 L 153.91266665677233,40 L 154.99288834758295,40 L 155.40812252648868,40 L 155.4402510762137,40 L 155.4740998383055,40 L 156.95613446778535,40 L 156.98423126977576,40 L 157.0171303312901,40 L 158.50242619671525,40 L 158.52409012120916,40 L 158.56042960745697,40 L 160.0526959167433,40 L 160.07975342376213,40 L 160.1112189749708,40 L 161.60097664122227,40 L 161.6334635685237,40 L 161.66693603416024,40 L 163.14728628903097,40 L 163.1749530379297,40 L 163.21138211857163,40 L 164.69979586891156,40 L 164.72339503231808,40 L 164.7524594537648,40 L 166.24667892084253,40 L 166.28018722423676,40 L 166.3115631810513,40 L 167.79397410698638,40 L 167.82413158004115,40 L 167.85799826101177,40 L 169.33997913385517,40 L 169.36938401399948,40 L 169.40253393981726,40 L 170.8913956621277,40 L 170.91888322223824,40 L 170.94699794310748,40 L 172.43783074208818,40 L 172.46562292313865,40 L 172.49902371325993,40 L 173.97711618939928,40 L 174.01392156649644,40 L 174.04479579470404,40 L 175.53338873383217,40 L 175.55512433384135,40 L 175.5942054085487,40 L 177.08342550843554,40 L 177.11609162452518,40 L 177.1505137907392,40 L 178.63382066061533,40 L 178.66370935048778,40 L 178.69537200936347,40 L 180.17283732474414,40 L 180.20530633316673,40 L 180.23768574719523,40 L 181.72581279547404,40 L 181.75620321395348,40 L 181.79093000110748,40 L 183.27448773528707,40 L 183.30245910512576,40 L 183.33333333333334,40" fill="none" stroke="none"/>
  </g>
  
  <!-- Footer -->
  <text x="400" y="580" text-anchor="middle" fill="#94a3b8" font-size="12" font-family="Arial, sans-serif">
    Generated by GitHub User Rank Tracker • 1/15/2026
    <animate attributeName="opacity" values="0;1" dur="0.5s" begin="5s" fill="freeze"/>
  </text>
</svg>