<svg width="800" height="600" xmlns="http://www.w3.org/2000/svg">
  <defs>
    <linearGradient id="bgGradient" x1="0%" y1="0%" x2="100%" y2="100%">
      <stop offset="0%" style="stop-color:#1e293b;stop-opacity:1" />
      <stop offset="100%" style="stop-color:#0f172a;stop-opacity:1" />
    </linearGradient>
    <filter id="shadow" x="-20%" y="-20%" width="140%" height="140%">
      <feDropShadow dx="2" dy="2" stdDeviation="3" flood-color="#000" flood-opacity="0.3"/>
    </filter>
    <!-- Trail effect filter -->
    <filter id="trailGlow" x="-50%" y="-50%" width="200%" height="200%">
      <feGaussianBlur stdDeviation="3" result="coloredBlur"/>
      <feMerge> 
        <feMergeNode in="coloredBlur"/>
        <feMergeNode in="SourceGraphic"/>
      </feMerge>
    </filter>
  </defs>
  
  <!-- Background -->
  <rect width="800" height="600" fill="url(#bgGradient)" rx="12"/>
  
  <!-- Header -->
  <text x="400" y="40" text-anchor="middle" fill="#f8fafc" font-size="24" font-weight="bold" font-family="Arial, sans-serif">
    GitHub Progress Report
    <animate attributeName="opacity" values="0;1" dur="0.8s" begin="0s" fill="freeze"/>
    <animateTransform attributeName="transform" type="translate" values="0,-20;0,0" dur="0.8s" begin="0s" fill="freeze"/>
  </text>
  
  <!-- User Info -->
  <text x="400" y="70" text-anchor="middle" fill="#cbd5e1" font-size="16" font-family="Arial, sans-serif">
    @maifeeulasad • BANGLADESH • 100 days analyzed
    <animate attributeName="opacity" values="0;1" dur="0.6s" begin="0.3s" fill="freeze"/>
  </text>
  
  <!-- Progress Cards -->
  <!-- Followers Card -->
  <g transform="translate(60, 100)">
    <rect width="206.66666666666666" height="120" fill="#1e293b" stroke="#334155" stroke-width="1" rx="8" filter="url(#shadow)">
      <animate attributeName="opacity" values="0;1" dur="0.6s" begin="0.2s" fill="freeze"/>
      <animateTransform attributeName="transform" type="scale" values="0.8;1" dur="0.6s" begin="0.2s" fill="freeze"/>
    </rect>
    <text x="103.33333333333333" y="25" text-anchor="middle" fill="#94a3b8" font-size="14" font-weight="bold" font-family="Arial, sans-serif">FOLLOWERS
      <animate attributeName="opacity" values="0;1" dur="0.5s" begin="0.4s" fill="freeze"/>
    </text>
    
    <text x="103.33333333333333" y="50" text-anchor="middle" fill="#ef4444" font-size="32" font-weight="bold" font-family="Arial, sans-serif">
      ↘
      <animate attributeName="opacity" values="0;1" dur="0.5s" begin="0.6s" fill="freeze"/>
      <animateTransform attributeName="transform" type="scale" values="0;1.2;1" dur="0.8s" begin="0.6s" fill="freeze"/>
    </text>
    
    <text x="103.33333333333333" y="75" text-anchor="middle" fill="#f8fafc" font-size="18" font-weight="bold" font-family="Arial, sans-serif">
      -15
      <animate attributeName="opacity" values="0;1" dur="0.5s" begin="0.8s" fill="freeze"/>
    </text>
    
    <text x="103.33333333333333" y="95" text-anchor="middle" fill="#94a3b8" font-size="12" font-family="Arial, sans-serif">
      #466 → #481
      <animate attributeName="opacity" values="0;1" dur="0.5s" begin="1s" fill="freeze"/>
    </text>
  </g>
  
  <!-- Public Contributions Card -->
  <g transform="translate(296.66666666666663, 100)">
    <rect width="206.66666666666666" height="120" fill="#1e293b" stroke="#334155" stroke-width="1" rx="8" filter="url(#shadow)">
      <animate attributeName="opacity" values="0;1" dur="0.6s" begin="0.4s" fill="freeze"/>
      <animateTransform attributeName="transform" type="scale" values="0.8;1" dur="0.6s" begin="0.4s" fill="freeze"/>
    </rect>
    <text x="103.33333333333333" y="25" text-anchor="middle" fill="#94a3b8" font-size="14" font-weight="bold" font-family="Arial, sans-serif">PUBLIC
      <animate attributeName="opacity" values="0;1" dur="0.5s" begin="0.6s" fill="freeze"/>
    </text>
    
    <text x="103.33333333333333" y="50" text-anchor="middle" fill="#6b7280" font-size="32" font-weight="bold" font-family="Arial, sans-serif">
      →
      <animate attributeName="opacity" values="0;1" dur="0.5s" begin="0.8s" fill="freeze"/>
      <animateTransform attributeName="transform" type="scale" values="0;1.2;1" dur="0.8s" begin="0.8s" fill="freeze"/>
    </text>
    
    <text x="103.33333333333333" y="75" text-anchor="middle" fill="#f8fafc" font-size="18" font-weight="bold" font-family="Arial, sans-serif">
      0
      <animate attributeName="opacity" values="0;1" dur="0.5s" begin="1s" fill="freeze"/>
    </text>
    
    <text x="103.33333333333333" y="95" text-anchor="middle" fill="#94a3b8" font-size="12" font-family="Arial, sans-serif">
      #7 → #7
      <animate attributeName="opacity" values="0;1" dur="0.5s" begin="1.2s" fill="freeze"/>
    </text>
  </g>
  
  <!-- Total Contributions Card -->
  <g transform="translate(533.3333333333333, 100)">
    <rect width="206.66666666666666" height="120" fill="#1e293b" stroke="#334155" stroke-width="1" rx="8" filter="url(#shadow)">
      <animate attributeName="opacity" values="0;1" dur="0.6s" begin="0.6s" fill="freeze"/>
      <animateTransform attributeName="transform" type="scale" values="0.8;1" dur="0.6s" begin="0.6s" fill="freeze"/>
    </rect>
    <text x="103.33333333333333" y="25" text-anchor="middle" fill="#94a3b8" font-size="14" font-weight="bold" font-family="Arial, sans-serif">TOTAL
      <animate attributeName="opacity" values="0;1" dur="0.5s" begin="0.8s" fill="freeze"/>
    </text>
    
    <text x="103.33333333333333" y="50" text-anchor="middle" fill="#22c55e" font-size="32" font-weight="bold" font-family="Arial, sans-serif">
      ↗
      <animate attributeName="opacity" values="0;1" dur="0.5s" begin="1s" fill="freeze"/>
      <animateTransform attributeName="transform" type="scale" values="0;1.2;1" dur="0.8s" begin="1s" fill="freeze"/>
    </text>
    
    <text x="103.33333333333333" y="75" text-anchor="middle" fill="#f8fafc" font-size="18" font-weight="bold" font-family="Arial, sans-serif">
      +3
      <animate attributeName="opacity" values="0;1" dur="0.5s" begin="1.2s" fill="freeze"/>
    </text>
    
    <text x="103.33333333333333" y="95" text-anchor="middle" fill="#94a3b8" font-size="12" font-family="Arial, sans-serif">
      #15 → #12
      <animate attributeName="opacity" values="0;1" dur="0.5s" begin="1.4s" fill="freeze"/>
    </text>
  </g>
  
  <!-- Timeline Charts (if we have snapshots) -->
  
  <!-- 👥 Followers Count Chart -->
  <g transform="translate(60, 250)">
    <!-- Chart Background -->
    <rect x="0" y="0" width="213.33333333333334" height="200" fill="#0f172a" stroke="#334155" stroke-width="1" rx="8" filter="url(#shadow)">
      <animate attributeName="opacity" values="0;1" dur="0.5s" begin="1.8s" fill="freeze"/>
    </rect>
    
    <!-- Chart Title -->
    <text x="106.66666666666667" y="25" text-anchor="middle" fill="#f8fafc" font-size="14" font-weight="bold" font-family="Arial, sans-serif">
      👥 Followers Count
      <animate attributeName="opacity" values="0;1" dur="0.5s" begin="2s" fill="freeze"/>
    </text>
    
    <!-- Y-axis labels -->
    <text x="10" y="45" fill="#94a3b8" font-size="10" font-family="Arial, sans-serif">154
      <animate attributeName="opacity" values="0;1" dur="0.5s" begin="2.2s" fill="freeze"/>
    </text>
    <text x="10" y="185" fill="#94a3b8" font-size="10" font-family="Arial, sans-serif">150
      <animate attributeName="opacity" values="0;1" dur="0.5s" begin="2.2s" fill="freeze"/>
    </text>
    
    <!-- Chart Line with draw animation that follows the circle -->
    <path d="M 30,160 L 30.021856912158892,160 L 30.05288656122381,160 L 31.543545885962068,160 L 31.56844843342179,160 L 31.600570928094655,160 L 33.09434755014082,160 L 33.12372897304294,160 L 33.14936605607521,160 L 34.64108239541787,160 L 34.67390359465975,160 L 34.69681752142304,160 L 36.19098828450814,160 L 36.21986807336071,160 L 36.253119244645056,160 L 37.73938927144977,160 L 37.76757035573332,160 L 37.80159189359376,160 L 39.28637493375159,160 L 39.31202993228563,160 L 39.344044933947885,160 L 40.8356716957817,160 L 40.86365570954578,160 L 40.8961006832505,160 L 42.37968338478977,160 L 42.41728802300413,160 L 42.43905535765417,160 L 43.92781563920485,160 L 43.957107484598126,160 L 43.98625600597724,160 L 45.471576511188154,160 L 45.503896076380485,160 L 45.530912653049015,160 L 46.610930761726635,160 L 47.026086684233206,160 L 47.05820917890607,160 L 47.09205156174882,160 L 48.57380688210759,160 L 48.60189838888229,160 L 48.63479125013125,160 L 50.119807191812086,160 L 50.14146703345151,160 L 50.17779967104023,160 L 51.66978474290944,160 L 51.6968371505815,160 L 51.728296771688896,160 L 53.21777367331036,160 L 53.25025447801862,160 L 53.2837206353242,160 L 54.76379189851663,160 L 54.79145343324887,160 L 54.827875648346435,160 L 56.31600888733517,160 L 56.33960360316571,160 L 56.36866254703598,160 L 57.86260040859807,160 L 57.896102396907196,160 L 57.92747244050574,160 L 59.40960398640167,160 L 59.439755775879874,160 L 59.473616074224395,160 L 60.95531764807785,160 L 60.98471698648174,160 L 61.017860664755474,160 L 62.50644179128846,160 L 62.533924171003,160 L 62.56203359327947,160 L 64.05258542500712,160 L 64.08037236825174,160 L 64.11376686355024,160 L 65.59158077351971,160 L 65.62837921415444,160 L 65.65924762370344,160 L 67.14756001770986,160 L 67.16929152135637,160 L 67.20836523071583,160 L 68.69730466728421,160 L 68.72996462701016,160 L 68.76438030590953,160 L 70.24740762689395,160 L 70.27729068384562,160 L 70.30894737547246,160 L 71.78613424288,160 L 71.81859713208648,160 L 71.85097044378412,160 L 73.33881703474455,160 L 73.36920172574577,160 L 73.40392196817521,160 L 74.88720010618441,160 L 74.91516620444673,160 L 74.94603461399572,160 L 76.43622813568797,160 L 76.45615017365574,160 L 76.5050594934867,160 L 77.9814939098199,160 L 78.01164569929811,160 L 78.04138543223563,160 L 79.53225974299512,160 L 79.5664962668768,160 L 79.59765132445409,160 L 81.07940664481288,160 L 81.10955843429109,160 L 81.14431450772408,160 L 82.62519196849614,160 L 82.65482420842304,160 L 82.6818228695898,160 L 84.17543825212003,160 L 84.20605584464425,160 L 84.23758712775872,160 L 85.7279956354722,160 L 85.7568037623177,160 L 85.78521774812425,160 L 87.27009036579094,160 L 87.30088711333283,70 L 87.33297377700217,70 L 88.82377642575457,70 L 88.84514961936569,70 L 88.87462061977666,70 L 90.36780603026443,70 L 90.39170530962505,70 L 90.43411130231365,70 L 91.91755067983877,70 L 91.94902821644793,70 L 91.9766718356784,70 L 93.45917960711148,70 L 93.49366694801793,70 L 93.52743766885361,70 L 95.01661000694499,70 L 95.03187401445268,70 L 95.07324090803864,70 L 96.56140997803092,70 L 96.59403410675334,70 L 96.63088629389337,70 L 98.10943473943539,70 L 98.140177740472,70 L 98.17957392886332,70 L 99.65495133059211,70 L 99.6876471213216,70 L 99.72578922458905,70 L 101.21143220883182,70 L 101.24785442392938,70 L 102.75338361513639,70 L 102.82997238520137,70 L 104.30153378505324,70 L 104.33960422631361,70 L 104.37573979338286,70 L 105.84905691240816,70 L 105.88916972087026,70 L 105.91677750909719,70 L 107.40023480212406,70 L 107.43380845244027,70 L 107.47150266816347,70 L 108.94268784247818,70 L 108.97624357729262,70 L 109.01399153952113,70 L 110.49295204160384,70 L 110.52593448036166,70 L 110.56131759635659,70 L 112.04631562253564,70 L 112.08965322131627,70 L 113.6284514993094,70 L 113.66947799836176,70 L 115.14560785116487,70 L 115.17943231850585,70 L 116.69755610745688,70 L 116.72636423430237,70 L 116.77380448298823,70 L 118.23359539817748,70 L 118.26655992143353,70 L 118.3018534599196,70 L 119.78335796325361,70 L 119.8223420951042,70 L 119.86146955096899,70 L 121.32851624437494,70 L 121.36011918949647,70 L 121.39853002529046,70 L 122.87516151214312,70 L 122.91108209319115,70 L 122.95803862332923,70 L 124.41827742606273,70 L 124.45916060110092,70 L 124.49873594450993,70 L 125.97332506416087,70 L 126.00621792540983,70 L 126.04376881711889,70 L 127.5211885860494,70 L 127.5544755883373,70 L 127.59285059312775,70 L 129.06708140274327,70 L 129.10567139355499,70 L 129.1472532731622,70 L 130.6165394042893,70 L 130.64726448982415,70 L 130.6842958319819,70 L 132.1658003353159,70 L 132.19337229253927,70 L 132.23103067725896,70 L 133.70982993982574,70 L 133.74517722481713,70 L 133.78421510317304,70 L 135.25878630732223,70 L 135.2963013680277,70 L 135.3361991904686,70 L 136.81084205662484,70 L 136.83798404180575,70 L 136.87680693414046,70 L 138.35745149338948,70 L 138.3940170325012,70 L 138.42662324572188,70 L 139.9006749003197,70 L 139.9341410576253,70 L 139.97267730193167,70 L 141.44588692794633,70 L 141.48648345495621,70 L 141.5236222901246,70 L 142.99722605717818,70 L 143.02786156520418,70 L 143.06225932860178,70 L 144.55127042717723,70 L 144.58866007937036,70 L 144.6307435930271,70 L 146.09793361044723,70 L 146.1313281057457,70 L 146.16472260104422,70 L 147.6423394404942,70 L 147.67942452915725,70 L 147.71590049076013,70 L 149.18362797323334,70 L 149.22390202121133,70 L 149.26224119499824,70 L 150.73029115650328,70 L 150.77054728897954,70 L 150.81472691634332,70 L 152.29266623482516,70 L 152.32468123648744,70 L 152.36608396107692,70 L 153.83669583933505,70 L 153.86435737406725,70 L 153.89941801103035,70 L 155.38020589429357,70 L 155.41680726440882,70 L 155.4539281840754,70 L 156.9288756137617,70 L 156.96083686891865,70 L 157.0021679315011,70 L 158.47643457212018,70 L 158.5085928977966,70 L 158.54668125455873,70 L 160.02481764356006,70 L 160.05633101117274,70 L 160.0904600420438,70 L 161.571015023784,40 L 161.60084433423037,40 L 163.11767820705398,40 L 163.15410042215154,40 L 163.18849818554915,40 L 164.66715412410178,40 L 164.6922358265792,40 L 164.73492846729613,40 L 166.22345584732378,40 L 166.26129338706116,40 L 167.7637948584691,40 L 167.8032089623622,40 L 167.85466228344444,40 L 169.31400531108946,40 L 169.35257738639936,40 L 169.37631542624408,40 L 170.8639291156815,40 L 170.8997959502242,40 L 170.93761557445978,40 L 172.41276007466558,40 L 172.44694285204196,40 L 172.48569408236958,40 L 173.9589932858931,40 L 173.98971837142793,40 L 174.02834419324316,40 L 175.506749314771,40 L 175.53924803498103,40 L 175.57117345913443,40 L 177.05411120261002,40 L 177.09123212227658,40 L 177.13229445233247,40 L 178.60509202180646,40 L 178.64151423690402,40 L 178.6860342588014,40 L 180.1435857362695,40 L 180.1809216419573,40 L 180.2238471841972,40 L 181.69861545886585,40 L 181.73424939188556,40 L 181.77097617051322,40 L 183.24742850234819,40 L 183.28915370596954,40 L 183.33333333333334,40" stroke="#22c55e" stroke-width="2" fill="none" stroke-dasharray="14700" stroke-dashoffset="14700">
      <animate attributeName="stroke-dashoffset" values="14700;0" dur="3s" begin="2.6s" fill="freeze"/>
    </path>
    
    <!-- Glow effect for the line that also follows the circle -->
    <path d="M 30,160 L 30.021856912158892,160 L 30.05288656122381,160 L 31.543545885962068,160 L 31.56844843342179,160 L 31.600570928094655,160 L 33.09434755014082,160 L 33.12372897304294,160 L 33.14936605607521,160 L 34.64108239541787,160 L 34.67390359465975,160 L 34.69681752142304,160 L 36.19098828450814,160 L 36.21986807336071,160 L 36.253119244645056,160 L 37.73938927144977,160 L 37.76757035573332,160 L 37.80159189359376,160 L 39.28637493375159,160 L 39.31202993228563,160 L 39.344044933947885,160 L 40.8356716957817,160 L 40.86365570954578,160 L 40.8961006832505,160 L 42.37968338478977,160 L 42.41728802300413,160 L 42.43905535765417,160 L 43.92781563920485,160 L 43.957107484598126,160 L 43.98625600597724,160 L 45.471576511188154,160 L 45.503896076380485,160 L 45.530912653049015,160 L 46.610930761726635,160 L 47.026086684233206,160 L 47.05820917890607,160 L 47.09205156174882,160 L 48.57380688210759,160 L 48.60189838888229,160 L 48.63479125013125,160 L 50.119807191812086,160 L 50.14146703345151,160 L 50.17779967104023,160 L 51.66978474290944,160 L 51.6968371505815,160 L 51.728296771688896,160 L 53.21777367331036,160 L 53.25025447801862,160 L 53.2837206353242,160 L 54.76379189851663,160 L 54.79145343324887,160 L 54.827875648346435,160 L 56.31600888733517,160 L 56.33960360316571,160 L 56.36866254703598,160 L 57.86260040859807,160 L 57.896102396907196,160 L 57.92747244050574,160 L 59.40960398640167,160 L 59.439755775879874,160 L 59.473616074224395,160 L 60.95531764807785,160 L 60.98471698648174,160 L 61.017860664755474,160 L 62.50644179128846,160 L 62.533924171003,160 L 62.56203359327947,160 L 64.05258542500712,160 L 64.08037236825174,160 L 64.11376686355024,160 L 65.59158077351971,160 L 65.62837921415444,160 L 65.65924762370344,160 L 67.14756001770986,160 L 67.16929152135637,160 L 67.20836523071583,160 L 68.69730466728421,160 L 68.72996462701016,160 L 68.76438030590953,160 L 70.24740762689395,160 L 70.27729068384562,160 L 70.30894737547246,160 L 71.78613424288,160 L 71.81859713208648,160 L 71.85097044378412,160 L 73.33881703474455,160 L 73.36920172574577,160 L 73.40392196817521,160 L 74.88720010618441,160 L 74.91516620444673,160 L 74.94603461399572,160 L 76.43622813568797,160 L 76.45615017365574,160 L 76.5050594934867,160 L 77.9814939098199,160 L 78.01164569929811,160 L 78.04138543223563,160 L 79.53225974299512,160 L 79.5664962668768,160 L 79.59765132445409,160 L 81.07940664481288,160 L 81.10955843429109,160 L 81.14431450772408,160 L 82.62519196849614,160 L 82.65482420842304,160 L 82.6818228695898,160 L 84.17543825212003,160 L 84.20605584464425,160 L 84.23758712775872,160 L 85.7279956354722,160 L 85.7568037623177,160 L 85.78521774812425,160 L 87.27009036579094,160 L 87.30088711333283,70 L 87.33297377700217,70 L 88.82377642575457,70 L 88.84514961936569,70 L 88.87462061977666,70 L 90.36780603026443,70 L 90.39170530962505,70 L 90.43411130231365,70 L 91.91755067983877,70 L 91.94902821644793,70 L 91.9766718356784,70 L 93.45917960711148,70 L 93.49366694801793,70 L 93.52743766885361,70 L 95.01661000694499,70 L 95.03187401445268,70 L 95.07324090803864,70 L 96.56140997803092,70 L 96.59403410675334,70 L 96.63088629389337,70 L 98.10943473943539,70 L 98.140177740472,70 L 98.17957392886332,70 L 99.65495133059211,70 L 99.6876471213216,70 L 99.72578922458905,70 L 101.21143220883182,70 L 101.24785442392938,70 L 102.75338361513639,70 L 102.82997238520137,70 L 104.30153378505324,70 L 104.33960422631361,70 L 104.37573979338286,70 L 105.84905691240816,70 L 105.88916972087026,70 L 105.91677750909719,70 L 107.40023480212406,70 L 107.43380845244027,70 L 107.47150266816347,70 L 108.94268784247818,70 L 108.97624357729262,70 L 109.01399153952113,70 L 110.49295204160384,70 L 110.52593448036166,70 L 110.56131759635659,70 L 112.04631562253564,70 L 112.08965322131627,70 L 113.6284514993094,70 L 113.66947799836176,70 L 115.14560785116487,70 L 115.17943231850585,70 L 116.69755610745688,70 L 116.72636423430237,70 L 116.77380448298823,70 L 118.23359539817748,70 L 118.26655992143353,70 L 118.3018534599196,70 L 119.78335796325361,70 L 119.8223420951042,70 L 119.86146955096899,70 L 121.32851624437494,70 L 121.36011918949647,70 L 121.39853002529046,70 L 122.87516151214312,70 L 122.91108209319115,70 L 122.95803862332923,70 L 124.41827742606273,70 L 124.45916060110092,70 L 124.49873594450993,70 L 125.97332506416087,70 L 126.00621792540983,70 L 126.04376881711889,70 L 127.5211885860494,70 L 127.5544755883373,70 L 127.59285059312775,70 L 129.06708140274327,70 L 129.10567139355499,70 L 129.1472532731622,70 L 130.6165394042893,70 L 130.64726448982415,70 L 130.6842958319819,70 L 132.1658003353159,70 L 132.19337229253927,70 L 132.23103067725896,70 L 133.70982993982574,70 L 133.74517722481713,70 L 133.78421510317304,70 L 135.25878630732223,70 L 135.2963013680277,70 L 135.3361991904686,70 L 136.81084205662484,70 L 136.83798404180575,70 L 136.87680693414046,70 L 138.35745149338948,70 L 138.3940170325012,70 L 138.42662324572188,70 L 139.9006749003197,70 L 139.9341410576253,70 L 139.97267730193167,70 L 141.44588692794633,70 L 141.48648345495621,70 L 141.5236222901246,70 L 142.99722605717818,70 L 143.02786156520418,70 L 143.06225932860178,70 L 144.55127042717723,70 L 144.58866007937036,70 L 144.6307435930271,70 L 146.09793361044723,70 L 146.1313281057457,70 L 146.16472260104422,70 L 147.6423394404942,70 L 147.67942452915725,70 L 147.71590049076013,70 L 149.18362797323334,70 L 149.22390202121133,70 L 149.26224119499824,70 L 150.73029115650328,70 L 150.77054728897954,70 L 150.81472691634332,70 L 152.29266623482516,70 L 152.32468123648744,70 L 152.36608396107692,70 L 153.83669583933505,70 L 153.86435737406725,70 L 153.89941801103035,70 L 155.38020589429357,70 L 155.41680726440882,70 L 155.4539281840754,70 L 156.9288756137617,70 L 156.96083686891865,70 L 157.0021679315011,70 L 158.47643457212018,70 L 158.5085928977966,70 L 158.54668125455873,70 L 160.02481764356006,70 L 160.05633101117274,70 L 160.0904600420438,70 L 161.571015023784,40 L 161.60084433423037,40 L 163.11767820705398,40 L 163.15410042215154,40 L 163.18849818554915,40 L 164.66715412410178,40 L 164.6922358265792,40 L 164.73492846729613,40 L 166.22345584732378,40 L 166.26129338706116,40 L 167.7637948584691,40 L 167.8032089623622,40 L 167.85466228344444,40 L 169.31400531108946,40 L 169.35257738639936,40 L 169.37631542624408,40 L 170.8639291156815,40 L 170.8997959502242,40 L 170.93761557445978,40 L 172.41276007466558,40 L 172.44694285204196,40 L 172.48569408236958,40 L 173.9589932858931,40 L 173.98971837142793,40 L 174.02834419324316,40 L 175.506749314771,40 L 175.53924803498103,40 L 175.57117345913443,40 L 177.05411120261002,40 L 177.09123212227658,40 L 177.13229445233247,40 L 178.60509202180646,40 L 178.64151423690402,40 L 178.6860342588014,40 L 180.1435857362695,40 L 180.1809216419573,40 L 180.2238471841972,40 L 181.69861545886585,40 L 181.73424939188556,40 L 181.77097617051322,40 L 183.24742850234819,40 L 183.28915370596954,40 L 183.33333333333334,40" stroke="#22c55e" stroke-width="4" fill="none" opacity="0.4" stroke-dasharray="14700" stroke-dashoffset="14700">
      <animate attributeName="stroke-dashoffset" values="14700;0" dur="3s" begin="2.6s" fill="freeze"/>
    </path>
    
    <!-- Animated circle that moves along the path and draws the line -->
    <circle r="5" fill="#22c55e" opacity="0" filter="url(#trailGlow)">
      <animate attributeName="opacity" values="0;1;1;1" dur="3.2s" begin="2.4s" fill="freeze"/>
      <animate attributeName="r" values="5;6;5" dur="1s" begin="2.4s" repeatCount="3"/>
      <animateMotion dur="3s" begin="2.4s" fill="freeze">
        <mpath href="#path_followersCount_60"/>
      </animateMotion>
    </circle>
    
    <!-- Small trail dots that fade out -->
    <circle r="2" fill="#22c55e" opacity="0">
      <animate attributeName="opacity" values="0;0.6;0" dur="0.8s" begin="2.8s" fill="freeze"/>
      <animateMotion dur="3s" begin="2.4s" fill="freeze">
        <mpath href="#path_followersCount_60"/>
      </animateMotion>
    </circle>
    
    <!-- Hidden path for motion animation -->
    <path id="path_followersCount_60" d="M 30,160 L 30.021856912158892,160 L 30.05288656122381,160 L 31.543545885962068,160 L 31.56844843342179,160 L 31.600570928094655,160 L 33.09434755014082,160 L 33.12372897304294,160 L 33.14936605607521,160 L 34.64108239541787,160 L 34.67390359465975,160 L 34.69681752142304,160 L 36.19098828450814,160 L 36.21986807336071,160 L 36.253119244645056,160 L 37.73938927144977,160 L 37.76757035573332,160 L 37.80159189359376,160 L 39.28637493375159,160 L 39.31202993228563,160 L 39.344044933947885,160 L 40.8356716957817,160 L 40.86365570954578,160 L 40.8961006832505,160 L 42.37968338478977,160 L 42.41728802300413,160 L 42.43905535765417,160 L 43.92781563920485,160 L 43.957107484598126,160 L 43.98625600597724,160 L 45.471576511188154,160 L 45.503896076380485,160 L 45.530912653049015,160 L 46.610930761726635,160 L 47.026086684233206,160 L 47.05820917890607,160 L 47.09205156174882,160 L 48.57380688210759,160 L 48.60189838888229,160 L 48.63479125013125,160 L 50.119807191812086,160 L 50.14146703345151,160 L 50.17779967104023,160 L 51.66978474290944,160 L 51.6968371505815,160 L 51.728296771688896,160 L 53.21777367331036,160 L 53.25025447801862,160 L 53.2837206353242,160 L 54.76379189851663,160 L 54.79145343324887,160 L 54.827875648346435,160 L 56.31600888733517,160 L 56.33960360316571,160 L 56.36866254703598,160 L 57.86260040859807,160 L 57.896102396907196,160 L 57.92747244050574,160 L 59.40960398640167,160 L 59.439755775879874,160 L 59.473616074224395,160 L 60.95531764807785,160 L 60.98471698648174,160 L 61.017860664755474,160 L 62.50644179128846,160 L 62.533924171003,160 L 62.56203359327947,160 L 64.05258542500712,160 L 64.08037236825174,160 L 64.11376686355024,160 L 65.59158077351971,160 L 65.62837921415444,160 L 65.65924762370344,160 L 67.14756001770986,160 L 67.16929152135637,160 L 67.20836523071583,160 L 68.69730466728421,160 L 68.72996462701016,160 L 68.76438030590953,160 L 70.24740762689395,160 L 70.27729068384562,160 L 70.30894737547246,160 L 71.78613424288,160 L 71.81859713208648,160 L 71.85097044378412,160 L 73.33881703474455,160 L 73.36920172574577,160 L 73.40392196817521,160 L 74.88720010618441,160 L 74.91516620444673,160 L 74.94603461399572,160 L 76.43622813568797,160 L 76.45615017365574,160 L 76.5050594934867,160 L 77.9814939098199,160 L 78.01164569929811,160 L 78.04138543223563,160 L 79.53225974299512,160 L 79.5664962668768,160 L 79.59765132445409,160 L 81.07940664481288,160 L 81.10955843429109,160 L 81.14431450772408,160 L 82.62519196849614,160 L 82.65482420842304,160 L 82.6818228695898,160 L 84.17543825212003,160 L 84.20605584464425,160 L 84.23758712775872,160 L 85.7279956354722,160 L 85.7568037623177,160 L 85.78521774812425,160 L 87.27009036579094,160 L 87.30088711333283,70 L 87.33297377700217,70 L 88.82377642575457,70 L 88.84514961936569,70 L 88.87462061977666,70 L 90.36780603026443,70 L 90.39170530962505,70 L 90.43411130231365,70 L 91.91755067983877,70 L 91.94902821644793,70 L 91.9766718356784,70 L 93.45917960711148,70 L 93.49366694801793,70 L 93.52743766885361,70 L 95.01661000694499,70 L 95.03187401445268,70 L 95.07324090803864,70 L 96.56140997803092,70 L 96.59403410675334,70 L 96.63088629389337,70 L 98.10943473943539,70 L 98.140177740472,70 L 98.17957392886332,70 L 99.65495133059211,70 L 99.6876471213216,70 L 99.72578922458905,70 L 101.21143220883182,70 L 101.24785442392938,70 L 102.75338361513639,70 L 102.82997238520137,70 L 104.30153378505324,70 L 104.33960422631361,70 L 104.37573979338286,70 L 105.84905691240816,70 L 105.88916972087026,70 L 105.91677750909719,70 L 107.40023480212406,70 L 107.43380845244027,70 L 107.47150266816347,70 L 108.94268784247818,70 L 108.97624357729262,70 L 109.01399153952113,70 L 110.49295204160384,70 L 110.52593448036166,70 L 110.56131759635659,70 L 112.04631562253564,70 L 112.08965322131627,70 L 113.6284514993094,70 L 113.66947799836176,70 L 115.14560785116487,70 L 115.17943231850585,70 L 116.69755610745688,70 L 116.72636423430237,70 L 116.77380448298823,70 L 118.23359539817748,70 L 118.26655992143353,70 L 118.3018534599196,70 L 119.78335796325361,70 L 119.8223420951042,70 L 119.86146955096899,70 L 121.32851624437494,70 L 121.36011918949647,70 L 121.39853002529046,70 L 122.87516151214312,70 L 122.91108209319115,70 L 122.95803862332923,70 L 124.41827742606273,70 L 124.45916060110092,70 L 124.49873594450993,70 L 125.97332506416087,70 L 126.00621792540983,70 L 126.04376881711889,70 L 127.5211885860494,70 L 127.5544755883373,70 L 127.59285059312775,70 L 129.06708140274327,70 L 129.10567139355499,70 L 129.1472532731622,70 L 130.6165394042893,70 L 130.64726448982415,70 L 130.6842958319819,70 L 132.1658003353159,70 L 132.19337229253927,70 L 132.23103067725896,70 L 133.70982993982574,70 L 133.74517722481713,70 L 133.78421510317304,70 L 135.25878630732223,70 L 135.2963013680277,70 L 135.3361991904686,70 L 136.81084205662484,70 L 136.83798404180575,70 L 136.87680693414046,70 L 138.35745149338948,70 L 138.3940170325012,70 L 138.42662324572188,70 L 139.9006749003197,70 L 139.9341410576253,70 L 139.97267730193167,70 L 141.44588692794633,70 L 141.48648345495621,70 L 141.5236222901246,70 L 142.99722605717818,70 L 143.02786156520418,70 L 143.06225932860178,70 L 144.55127042717723,70 L 144.58866007937036,70 L 144.6307435930271,70 L 146.09793361044723,70 L 146.1313281057457,70 L 146.16472260104422,70 L 147.6423394404942,70 L 147.67942452915725,70 L 147.71590049076013,70 L 149.18362797323334,70 L 149.22390202121133,70 L 149.26224119499824,70 L 150.73029115650328,70 L 150.77054728897954,70 L 150.81472691634332,70 L 152.29266623482516,70 L 152.32468123648744,70 L 152.36608396107692,70 L 153.83669583933505,70 L 153.86435737406725,70 L 153.89941801103035,70 L 155.38020589429357,70 L 155.41680726440882,70 L 155.4539281840754,70 L 156.9288756137617,70 L 156.96083686891865,70 L 157.0021679315011,70 L 158.47643457212018,70 L 158.5085928977966,70 L 158.54668125455873,70 L 160.02481764356006,70 L 160.05633101117274,70 L 160.0904600420438,70 L 161.571015023784,40 L 161.60084433423037,40 L 163.11767820705398,40 L 163.15410042215154,40 L 163.18849818554915,40 L 164.66715412410178,40 L 164.6922358265792,40 L 164.73492846729613,40 L 166.22345584732378,40 L 166.26129338706116,40 L 167.7637948584691,40 L 167.8032089623622,40 L 167.85466228344444,40 L 169.31400531108946,40 L 169.35257738639936,40 L 169.37631542624408,40 L 170.8639291156815,40 L 170.8997959502242,40 L 170.93761557445978,40 L 172.41276007466558,40 L 172.44694285204196,40 L 172.48569408236958,40 L 173.9589932858931,40 L 173.98971837142793,40 L 174.02834419324316,40 L 175.506749314771,40 L 175.53924803498103,40 L 175.57117345913443,40 L 177.05411120261002,40 L 177.09123212227658,40 L 177.13229445233247,40 L 178.60509202180646,40 L 178.64151423690402,40 L 178.6860342588014,40 L 180.1435857362695,40 L 180.1809216419573,40 L 180.2238471841972,40 L 181.69861545886585,40 L 181.73424939188556,40 L 181.77097617051322,40 L 183.24742850234819,40 L 183.28915370596954,40 L 183.33333333333334,40" fill="none" stroke="none"/>
  </g>
  <!-- 🔓 Public Contributions Chart -->
  <g transform="translate(293.33333333333337, 250)">
    <!-- Chart Background -->
    <rect x="0" y="0" width="213.33333333333334" height="200" fill="#0f172a" stroke="#334155" stroke-width="1" rx="8" filter="url(#shadow)">
      <animate attributeName="opacity" values="0;1" dur="0.5s" begin="2.3s" fill="freeze"/>
    </rect>
    
    <!-- Chart Title -->
    <text x="106.66666666666667" y="25" text-anchor="middle" fill="#f8fafc" font-size="14" font-weight="bold" font-family="Arial, sans-serif">
      🔓 Public Contributions
      <animate attributeName="opacity" values="0;1" dur="0.5s" begin="2.5s" fill="freeze"/>
    </text>
    
    <!-- Y-axis labels -->
    <text x="10" y="45" fill="#94a3b8" font-size="10" font-family="Arial, sans-serif">3,861
      <animate attributeName="opacity" values="0;1" dur="0.5s" begin="2.6999999999999997s" fill="freeze"/>
    </text>
    <text x="10" y="185" fill="#94a3b8" font-size="10" font-family="Arial, sans-serif">3,434
      <animate attributeName="opacity" values="0;1" dur="0.5s" begin="2.6999999999999997s" fill="freeze"/>
    </text>
    
    <!-- Chart Line with draw animation that follows the circle -->
    <path d="M 30,160 L 30.021856912158892,160 L 30.05288656122381,160 L 31.543545885962068,160 L 31.56844843342179,160 L 31.600570928094655,160 L 33.09434755014082,160 L 33.12372897304294,160 L 33.14936605607521,160 L 34.64108239541787,160 L 34.67390359465975,160 L 34.69681752142304,160 L 36.19098828450814,160 L 36.21986807336071,160 L 36.253119244645056,160 L 37.73938927144977,160 L 37.76757035573332,160 L 37.80159189359376,160 L 39.28637493375159,160 L 39.31202993228563,160 L 39.344044933947885,160 L 40.8356716957817,160 L 40.86365570954578,160 L 40.8961006832505,160 L 42.37968338478977,160 L 42.41728802300413,160 L 42.43905535765417,160 L 43.92781563920485,160 L 43.957107484598126,160 L 43.98625600597724,160 L 45.471576511188154,160 L 45.503896076380485,160 L 45.530912653049015,160 L 46.610930761726635,160 L 47.026086684233206,160 L 47.05820917890607,160 L 47.09205156174882,160 L 48.57380688210759,160 L 48.60189838888229,160 L 48.63479125013125,160 L 50.119807191812086,160 L 50.14146703345151,160 L 50.17779967104023,160 L 51.66978474290944,160 L 51.6968371505815,160 L 51.728296771688896,160 L 53.21777367331036,160 L 53.25025447801862,160 L 53.2837206353242,160 L 54.76379189851663,160 L 54.79145343324887,160 L 54.827875648346435,160 L 56.31600888733517,160 L 56.33960360316571,160 L 56.36866254703598,160 L 57.86260040859807,160 L 57.896102396907196,160 L 57.92747244050574,160 L 59.40960398640167,160 L 59.439755775879874,160 L 59.473616074224395,160 L 60.95531764807785,160 L 60.98471698648174,160 L 61.017860664755474,160 L 62.50644179128846,160 L 62.533924171003,160 L 62.56203359327947,160 L 64.05258542500712,160 L 64.08037236825174,160 L 64.11376686355024,160 L 65.59158077351971,160 L 65.62837921415444,160 L 65.65924762370344,160 L 67.14756001770986,160 L 67.16929152135637,160 L 67.20836523071583,160 L 68.69730466728421,160 L 68.72996462701016,160 L 68.76438030590953,160 L 70.24740762689395,160 L 70.27729068384562,160 L 70.30894737547246,160 L 71.78613424288,160 L 71.81859713208648,160 L 71.85097044378412,160 L 73.33881703474455,160 L 73.36920172574577,160 L 73.40392196817521,160 L 74.88720010618441,160 L 74.91516620444673,160 L 74.94603461399572,160 L 76.43622813568797,160 L 76.45615017365574,160 L 76.5050594934867,160 L 77.9814939098199,160 L 78.01164569929811,160 L 78.04138543223563,160 L 79.53225974299512,160 L 79.5664962668768,160 L 79.59765132445409,160 L 81.07940664481288,160 L 81.10955843429109,160 L 81.14431450772408,160 L 82.62519196849614,160 L 82.65482420842304,160 L 82.6818228695898,160 L 84.17543825212003,160 L 84.20605584464425,160 L 84.23758712775872,160 L 85.7279956354722,160 L 85.7568037623177,160 L 85.78521774812425,160 L 87.27009036579094,160 L 87.30088711333283,40 L 87.33297377700217,40 L 88.82377642575457,40 L 88.84514961936569,40 L 88.87462061977666,40 L 90.36780603026443,40 L 90.39170530962505,40 L 90.43411130231365,40 L 91.91755067983877,40 L 91.94902821644793,40 L 91.9766718356784,40 L 93.45917960711148,40 L 93.49366694801793,40 L 93.52743766885361,40 L 95.01661000694499,40 L 95.03187401445268,40 L 95.07324090803864,40 L 96.56140997803092,40 L 96.59403410675334,40 L 96.63088629389337,40 L 98.10943473943539,40 L 98.140177740472,40 L 98.17957392886332,40 L 99.65495133059211,40 L 99.6876471213216,40 L 99.72578922458905,40 L 101.21143220883182,40 L 101.24785442392938,40 L 102.75338361513639,40 L 102.82997238520137,40 L 104.30153378505324,40 L 104.33960422631361,40 L 104.37573979338286,40 L 105.84905691240816,40 L 105.88916972087026,40 L 105.91677750909719,40 L 107.40023480212406,40 L 107.43380845244027,40 L 107.47150266816347,40 L 108.94268784247818,40 L 108.97624357729262,40 L 109.01399153952113,40 L 110.49295204160384,40 L 110.52593448036166,40 L 110.56131759635659,40 L 112.04631562253564,40 L 112.08965322131627,40 L 113.6284514993094,40 L 113.66947799836176,40 L 115.14560785116487,40 L 115.17943231850585,40 L 116.69755610745688,40 L 116.72636423430237,40 L 116.77380448298823,40 L 118.23359539817748,40 L 118.26655992143353,40 L 118.3018534599196,40 L 119.78335796325361,40 L 119.8223420951042,40 L 119.86146955096899,40 L 121.32851624437494,40 L 121.36011918949647,40 L 121.39853002529046,40 L 122.87516151214312,40 L 122.91108209319115,40 L 122.95803862332923,40 L 124.41827742606273,40 L 124.45916060110092,40 L 124.49873594450993,40 L 125.97332506416087,40 L 126.00621792540983,40 L 126.04376881711889,40 L 127.5211885860494,40 L 127.5544755883373,40 L 127.59285059312775,40 L 129.06708140274327,40 L 129.10567139355499,40 L 129.1472532731622,40 L 130.6165394042893,40 L 130.64726448982415,40 L 130.6842958319819,40 L 132.1658003353159,40 L 132.19337229253927,40 L 132.23103067725896,40 L 133.70982993982574,40 L 133.74517722481713,40 L 133.78421510317304,40 L 135.25878630732223,40 L 135.2963013680277,40 L 135.3361991904686,40 L 136.81084205662484,40 L 136.83798404180575,40 L 136.87680693414046,40 L 138.35745149338948,40 L 138.3940170325012,40 L 138.42662324572188,40 L 139.9006749003197,40 L 139.9341410576253,40 L 139.97267730193167,40 L 141.44588692794633,40 L 141.48648345495621,40 L 141.5236222901246,40 L 142.99722605717818,40 L 143.02786156520418,40 L 143.06225932860178,40 L 144.55127042717723,40 L 144.58866007937036,40 L 144.6307435930271,40 L 146.09793361044723,40 L 146.1313281057457,40 L 146.16472260104422,40 L 147.6423394404942,40 L 147.67942452915725,40 L 147.71590049076013,40 L 149.18362797323334,40 L 149.22390202121133,40 L 149.26224119499824,40 L 150.73029115650328,40 L 150.77054728897954,40 L 150.81472691634332,40 L 152.29266623482516,40 L 152.32468123648744,40 L 152.36608396107692,40 L 153.83669583933505,40 L 153.86435737406725,40 L 153.89941801103035,40 L 155.38020589429357,40 L 155.41680726440882,40 L 155.4539281840754,40 L 156.9288756137617,40 L 156.96083686891865,40 L 157.0021679315011,40 L 158.47643457212018,40 L 158.5085928977966,40 L 158.54668125455873,40 L 160.02481764356006,40 L 160.05633101117274,40 L 160.0904600420438,40 L 161.571015023784,66.4168618266979 L 161.60084433423037,66.4168618266979 L 163.11767820705398,66.4168618266979 L 163.15410042215154,66.4168618266979 L 163.18849818554915,66.4168618266979 L 164.66715412410178,66.4168618266979 L 164.6922358265792,66.4168618266979 L 164.73492846729613,66.4168618266979 L 166.22345584732378,66.4168618266979 L 166.26129338706116,66.4168618266979 L 167.7637948584691,66.4168618266979 L 167.8032089623622,66.4168618266979 L 167.85466228344444,66.4168618266979 L 169.31400531108946,66.4168618266979 L 169.35257738639936,66.4168618266979 L 169.37631542624408,66.4168618266979 L 170.8639291156815,66.4168618266979 L 170.8997959502242,66.4168618266979 L 170.93761557445978,66.4168618266979 L 172.41276007466558,66.4168618266979 L 172.44694285204196,66.4168618266979 L 172.48569408236958,66.4168618266979 L 173.9589932858931,66.4168618266979 L 173.98971837142793,66.4168618266979 L 174.02834419324316,66.4168618266979 L 175.506749314771,66.4168618266979 L 175.53924803498103,66.4168618266979 L 175.57117345913443,66.4168618266979 L 177.05411120261002,66.4168618266979 L 177.09123212227658,66.4168618266979 L 177.13229445233247,66.4168618266979 L 178.60509202180646,66.4168618266979 L 178.64151423690402,66.4168618266979 L 178.6860342588014,66.4168618266979 L 180.1435857362695,66.4168618266979 L 180.1809216419573,66.4168618266979 L 180.2238471841972,66.4168618266979 L 181.69861545886585,66.4168618266979 L 181.73424939188556,66.4168618266979 L 181.77097617051322,66.4168618266979 L 183.24742850234819,66.4168618266979 L 183.28915370596954,66.4168618266979 L 183.33333333333334,66.4168618266979" stroke="#3b82f6" stroke-width="2" fill="none" stroke-dasharray="14700" stroke-dashoffset="14700">
      <animate attributeName="stroke-dashoffset" values="14700;0" dur="3s" begin="3.0999999999999996s" fill="freeze"/>
    </path>
    
    <!-- Glow effect for the line that also follows the circle -->
    <path d="M 30,160 L 30.021856912158892,160 L 30.05288656122381,160 L 31.543545885962068,160 L 31.56844843342179,160 L 31.600570928094655,160 L 33.09434755014082,160 L 33.12372897304294,160 L 33.14936605607521,160 L 34.64108239541787,160 L 34.67390359465975,160 L 34.69681752142304,160 L 36.19098828450814,160 L 36.21986807336071,160 L 36.253119244645056,160 L 37.73938927144977,160 L 37.76757035573332,160 L 37.80159189359376,160 L 39.28637493375159,160 L 39.31202993228563,160 L 39.344044933947885,160 L 40.8356716957817,160 L 40.86365570954578,160 L 40.8961006832505,160 L 42.37968338478977,160 L 42.41728802300413,160 L 42.43905535765417,160 L 43.92781563920485,160 L 43.957107484598126,160 L 43.98625600597724,160 L 45.471576511188154,160 L 45.503896076380485,160 L 45.530912653049015,160 L 46.610930761726635,160 L 47.026086684233206,160 L 47.05820917890607,160 L 47.09205156174882,160 L 48.57380688210759,160 L 48.60189838888229,160 L 48.63479125013125,160 L 50.119807191812086,160 L 50.14146703345151,160 L 50.17779967104023,160 L 51.66978474290944,160 L 51.6968371505815,160 L 51.728296771688896,160 L 53.21777367331036,160 L 53.25025447801862,160 L 53.2837206353242,160 L 54.76379189851663,160 L 54.79145343324887,160 L 54.827875648346435,160 L 56.31600888733517,160 L 56.33960360316571,160 L 56.36866254703598,160 L 57.86260040859807,160 L 57.896102396907196,160 L 57.92747244050574,160 L 59.40960398640167,160 L 59.439755775879874,160 L 59.473616074224395,160 L 60.95531764807785,160 L 60.98471698648174,160 L 61.017860664755474,160 L 62.50644179128846,160 L 62.533924171003,160 L 62.56203359327947,160 L 64.05258542500712,160 L 64.08037236825174,160 L 64.11376686355024,160 L 65.59158077351971,160 L 65.62837921415444,160 L 65.65924762370344,160 L 67.14756001770986,160 L 67.16929152135637,160 L 67.20836523071583,160 L 68.69730466728421,160 L 68.72996462701016,160 L 68.76438030590953,160 L 70.24740762689395,160 L 70.27729068384562,160 L 70.30894737547246,160 L 71.78613424288,160 L 71.81859713208648,160 L 71.85097044378412,160 L 73.33881703474455,160 L 73.36920172574577,160 L 73.40392196817521,160 L 74.88720010618441,160 L 74.91516620444673,160 L 74.94603461399572,160 L 76.43622813568797,160 L 76.45615017365574,160 L 76.5050594934867,160 L 77.9814939098199,160 L 78.01164569929811,160 L 78.04138543223563,160 L 79.53225974299512,160 L 79.5664962668768,160 L 79.59765132445409,160 L 81.07940664481288,160 L 81.10955843429109,160 L 81.14431450772408,160 L 82.62519196849614,160 L 82.65482420842304,160 L 82.6818228695898,160 L 84.17543825212003,160 L 84.20605584464425,160 L 84.23758712775872,160 L 85.7279956354722,160 L 85.7568037623177,160 L 85.78521774812425,160 L 87.27009036579094,160 L 87.30088711333283,40 L 87.33297377700217,40 L 88.82377642575457,40 L 88.84514961936569,40 L 88.87462061977666,40 L 90.36780603026443,40 L 90.39170530962505,40 L 90.43411130231365,40 L 91.91755067983877,40 L 91.94902821644793,40 L 91.9766718356784,40 L 93.45917960711148,40 L 93.49366694801793,40 L 93.52743766885361,40 L 95.01661000694499,40 L 95.03187401445268,40 L 95.07324090803864,40 L 96.56140997803092,40 L 96.59403410675334,40 L 96.63088629389337,40 L 98.10943473943539,40 L 98.140177740472,40 L 98.17957392886332,40 L 99.65495133059211,40 L 99.6876471213216,40 L 99.72578922458905,40 L 101.21143220883182,40 L 101.24785442392938,40 L 102.75338361513639,40 L 102.82997238520137,40 L 104.30153378505324,40 L 104.33960422631361,40 L 104.37573979338286,40 L 105.84905691240816,40 L 105.88916972087026,40 L 105.91677750909719,40 L 107.40023480212406,40 L 107.43380845244027,40 L 107.47150266816347,40 L 108.94268784247818,40 L 108.97624357729262,40 L 109.01399153952113,40 L 110.49295204160384,40 L 110.52593448036166,40 L 110.56131759635659,40 L 112.04631562253564,40 L 112.08965322131627,40 L 113.6284514993094,40 L 113.66947799836176,40 L 115.14560785116487,40 L 115.17943231850585,40 L 116.69755610745688,40 L 116.72636423430237,40 L 116.77380448298823,40 L 118.23359539817748,40 L 118.26655992143353,40 L 118.3018534599196,40 L 119.78335796325361,40 L 119.8223420951042,40 L 119.86146955096899,40 L 121.32851624437494,40 L 121.36011918949647,40 L 121.39853002529046,40 L 122.87516151214312,40 L 122.91108209319115,40 L 122.95803862332923,40 L 124.41827742606273,40 L 124.45916060110092,40 L 124.49873594450993,40 L 125.97332506416087,40 L 126.00621792540983,40 L 126.04376881711889,40 L 127.5211885860494,40 L 127.5544755883373,40 L 127.59285059312775,40 L 129.06708140274327,40 L 129.10567139355499,40 L 129.1472532731622,40 L 130.6165394042893,40 L 130.64726448982415,40 L 130.6842958319819,40 L 132.1658003353159,40 L 132.19337229253927,40 L 132.23103067725896,40 L 133.70982993982574,40 L 133.74517722481713,40 L 133.78421510317304,40 L 135.25878630732223,40 L 135.2963013680277,40 L 135.3361991904686,40 L 136.81084205662484,40 L 136.83798404180575,40 L 136.87680693414046,40 L 138.35745149338948,40 L 138.3940170325012,40 L 138.42662324572188,40 L 139.9006749003197,40 L 139.9341410576253,40 L 139.97267730193167,40 L 141.44588692794633,40 L 141.48648345495621,40 L 141.5236222901246,40 L 142.99722605717818,40 L 143.02786156520418,40 L 143.06225932860178,40 L 144.55127042717723,40 L 144.58866007937036,40 L 144.6307435930271,40 L 146.09793361044723,40 L 146.1313281057457,40 L 146.16472260104422,40 L 147.6423394404942,40 L 147.67942452915725,40 L 147.71590049076013,40 L 149.18362797323334,40 L 149.22390202121133,40 L 149.26224119499824,40 L 150.73029115650328,40 L 150.77054728897954,40 L 150.81472691634332,40 L 152.29266623482516,40 L 152.32468123648744,40 L 152.36608396107692,40 L 153.83669583933505,40 L 153.86435737406725,40 L 153.89941801103035,40 L 155.38020589429357,40 L 155.41680726440882,40 L 155.4539281840754,40 L 156.9288756137617,40 L 156.96083686891865,40 L 157.0021679315011,40 L 158.47643457212018,40 L 158.5085928977966,40 L 158.54668125455873,40 L 160.02481764356006,40 L 160.05633101117274,40 L 160.0904600420438,40 L 161.571015023784,66.4168618266979 L 161.60084433423037,66.4168618266979 L 163.11767820705398,66.4168618266979 L 163.15410042215154,66.4168618266979 L 163.18849818554915,66.4168618266979 L 164.66715412410178,66.4168618266979 L 164.6922358265792,66.4168618266979 L 164.73492846729613,66.4168618266979 L 166.22345584732378,66.4168618266979 L 166.26129338706116,66.4168618266979 L 167.7637948584691,66.4168618266979 L 167.8032089623622,66.4168618266979 L 167.85466228344444,66.4168618266979 L 169.31400531108946,66.4168618266979 L 169.35257738639936,66.4168618266979 L 169.37631542624408,66.4168618266979 L 170.8639291156815,66.4168618266979 L 170.8997959502242,66.4168618266979 L 170.93761557445978,66.4168618266979 L 172.41276007466558,66.4168618266979 L 172.44694285204196,66.4168618266979 L 172.48569408236958,66.4168618266979 L 173.9589932858931,66.4168618266979 L 173.98971837142793,66.4168618266979 L 174.02834419324316,66.4168618266979 L 175.506749314771,66.4168618266979 L 175.53924803498103,66.4168618266979 L 175.57117345913443,66.4168618266979 L 177.05411120261002,66.4168618266979 L 177.09123212227658,66.4168618266979 L 177.13229445233247,66.4168618266979 L 178.60509202180646,66.4168618266979 L 178.64151423690402,66.4168618266979 L 178.6860342588014,66.4168618266979 L 180.1435857362695,66.4168618266979 L 180.1809216419573,66.4168618266979 L 180.2238471841972,66.4168618266979 L 181.69861545886585,66.4168618266979 L 181.73424939188556,66.4168618266979 L 181.77097617051322,66.4168618266979 L 183.24742850234819,66.4168618266979 L 183.28915370596954,66.4168618266979 L 183.33333333333334,66.4168618266979" stroke="#3b82f6" stroke-width="4" fill="none" opacity="0.4" stroke-dasharray="14700" stroke-dashoffset="14700">
      <animate attributeName="stroke-dashoffset" values="14700;0" dur="3s" begin="3.0999999999999996s" fill="freeze"/>
    </path>
    
    <!-- Animated circle that moves along the path and draws the line -->
    <circle r="5" fill="#3b82f6" opacity="0" filter="url(#trailGlow)">
      <animate attributeName="opacity" values="0;1;1;1" dur="3.2s" begin="2.9s" fill="freeze"/>
      <animate attributeName="r" values="5;6;5" dur="1s" begin="2.9s" repeatCount="3"/>
      <animateMotion dur="3s" begin="2.9s" fill="freeze">
        <mpath href="#path_publicContributions_293.33333333333337"/>
      </animateMotion>
    </circle>
    
    <!-- Small trail dots that fade out -->
    <circle r="2" fill="#3b82f6" opacity="0">
      <animate attributeName="opacity" values="0;0.6;0" dur="0.8s" begin="3.3s" fill="freeze"/>
      <animateMotion dur="3s" begin="2.9s" fill="freeze">
        <mpath href="#path_publicContributions_293.33333333333337"/>
      </animateMotion>
    </circle>
    
    <!-- Hidden path for motion animation -->
    <path id="path_publicContributions_293.33333333333337" d="M 30,160 L 30.021856912158892,160 L 30.05288656122381,160 L 31.543545885962068,160 L 31.56844843342179,160 L 31.600570928094655,160 L 33.09434755014082,160 L 33.12372897304294,160 L 33.14936605607521,160 L 34.64108239541787,160 L 34.67390359465975,160 L 34.69681752142304,160 L 36.19098828450814,160 L 36.21986807336071,160 L 36.253119244645056,160 L 37.73938927144977,160 L 37.76757035573332,160 L 37.80159189359376,160 L 39.28637493375159,160 L 39.31202993228563,160 L 39.344044933947885,160 L 40.8356716957817,160 L 40.86365570954578,160 L 40.8961006832505,160 L 42.37968338478977,160 L 42.41728802300413,160 L 42.43905535765417,160 L 43.92781563920485,160 L 43.957107484598126,160 L 43.98625600597724,160 L 45.471576511188154,160 L 45.503896076380485,160 L 45.530912653049015,160 L 46.610930761726635,160 L 47.026086684233206,160 L 47.05820917890607,160 L 47.09205156174882,160 L 48.57380688210759,160 L 48.60189838888229,160 L 48.63479125013125,160 L 50.119807191812086,160 L 50.14146703345151,160 L 50.17779967104023,160 L 51.66978474290944,160 L 51.6968371505815,160 L 51.728296771688896,160 L 53.21777367331036,160 L 53.25025447801862,160 L 53.2837206353242,160 L 54.76379189851663,160 L 54.79145343324887,160 L 54.827875648346435,160 L 56.31600888733517,160 L 56.33960360316571,160 L 56.36866254703598,160 L 57.86260040859807,160 L 57.896102396907196,160 L 57.92747244050574,160 L 59.40960398640167,160 L 59.439755775879874,160 L 59.473616074224395,160 L 60.95531764807785,160 L 60.98471698648174,160 L 61.017860664755474,160 L 62.50644179128846,160 L 62.533924171003,160 L 62.56203359327947,160 L 64.05258542500712,160 L 64.08037236825174,160 L 64.11376686355024,160 L 65.59158077351971,160 L 65.62837921415444,160 L 65.65924762370344,160 L 67.14756001770986,160 L 67.16929152135637,160 L 67.20836523071583,160 L 68.69730466728421,160 L 68.72996462701016,160 L 68.76438030590953,160 L 70.24740762689395,160 L 70.27729068384562,160 L 70.30894737547246,160 L 71.78613424288,160 L 71.81859713208648,160 L 71.85097044378412,160 L 73.33881703474455,160 L 73.36920172574577,160 L 73.40392196817521,160 L 74.88720010618441,160 L 74.91516620444673,160 L 74.94603461399572,160 L 76.43622813568797,160 L 76.45615017365574,160 L 76.5050594934867,160 L 77.9814939098199,160 L 78.01164569929811,160 L 78.04138543223563,160 L 79.53225974299512,160 L 79.5664962668768,160 L 79.59765132445409,160 L 81.07940664481288,160 L 81.10955843429109,160 L 81.14431450772408,160 L 82.62519196849614,160 L 82.65482420842304,160 L 82.6818228695898,160 L 84.17543825212003,160 L 84.20605584464425,160 L 84.23758712775872,160 L 85.7279956354722,160 L 85.7568037623177,160 L 85.78521774812425,160 L 87.27009036579094,160 L 87.30088711333283,40 L 87.33297377700217,40 L 88.82377642575457,40 L 88.84514961936569,40 L 88.87462061977666,40 L 90.36780603026443,40 L 90.39170530962505,40 L 90.43411130231365,40 L 91.91755067983877,40 L 91.94902821644793,40 L 91.9766718356784,40 L 93.45917960711148,40 L 93.49366694801793,40 L 93.52743766885361,40 L 95.01661000694499,40 L 95.03187401445268,40 L 95.07324090803864,40 L 96.56140997803092,40 L 96.59403410675334,40 L 96.63088629389337,40 L 98.10943473943539,40 L 98.140177740472,40 L 98.17957392886332,40 L 99.65495133059211,40 L 99.6876471213216,40 L 99.72578922458905,40 L 101.21143220883182,40 L 101.24785442392938,40 L 102.75338361513639,40 L 102.82997238520137,40 L 104.30153378505324,40 L 104.33960422631361,40 L 104.37573979338286,40 L 105.84905691240816,40 L 105.88916972087026,40 L 105.91677750909719,40 L 107.40023480212406,40 L 107.43380845244027,40 L 107.47150266816347,40 L 108.94268784247818,40 L 108.97624357729262,40 L 109.01399153952113,40 L 110.49295204160384,40 L 110.52593448036166,40 L 110.56131759635659,40 L 112.04631562253564,40 L 112.08965322131627,40 L 113.6284514993094,40 L 113.66947799836176,40 L 115.14560785116487,40 L 115.17943231850585,40 L 116.69755610745688,40 L 116.72636423430237,40 L 116.77380448298823,40 L 118.23359539817748,40 L 118.26655992143353,40 L 118.3018534599196,40 L 119.78335796325361,40 L 119.8223420951042,40 L 119.86146955096899,40 L 121.32851624437494,40 L 121.36011918949647,40 L 121.39853002529046,40 L 122.87516151214312,40 L 122.91108209319115,40 L 122.95803862332923,40 L 124.41827742606273,40 L 124.45916060110092,40 L 124.49873594450993,40 L 125.97332506416087,40 L 126.00621792540983,40 L 126.04376881711889,40 L 127.5211885860494,40 L 127.5544755883373,40 L 127.59285059312775,40 L 129.06708140274327,40 L 129.10567139355499,40 L 129.1472532731622,40 L 130.6165394042893,40 L 130.64726448982415,40 L 130.6842958319819,40 L 132.1658003353159,40 L 132.19337229253927,40 L 132.23103067725896,40 L 133.70982993982574,40 L 133.74517722481713,40 L 133.78421510317304,40 L 135.25878630732223,40 L 135.2963013680277,40 L 135.3361991904686,40 L 136.81084205662484,40 L 136.83798404180575,40 L 136.87680693414046,40 L 138.35745149338948,40 L 138.3940170325012,40 L 138.42662324572188,40 L 139.9006749003197,40 L 139.9341410576253,40 L 139.97267730193167,40 L 141.44588692794633,40 L 141.48648345495621,40 L 141.5236222901246,40 L 142.99722605717818,40 L 143.02786156520418,40 L 143.06225932860178,40 L 144.55127042717723,40 L 144.58866007937036,40 L 144.6307435930271,40 L 146.09793361044723,40 L 146.1313281057457,40 L 146.16472260104422,40 L 147.6423394404942,40 L 147.67942452915725,40 L 147.71590049076013,40 L 149.18362797323334,40 L 149.22390202121133,40 L 149.26224119499824,40 L 150.73029115650328,40 L 150.77054728897954,40 L 150.81472691634332,40 L 152.29266623482516,40 L 152.32468123648744,40 L 152.36608396107692,40 L 153.83669583933505,40 L 153.86435737406725,40 L 153.89941801103035,40 L 155.38020589429357,40 L 155.41680726440882,40 L 155.4539281840754,40 L 156.9288756137617,40 L 156.96083686891865,40 L 157.0021679315011,40 L 158.47643457212018,40 L 158.5085928977966,40 L 158.54668125455873,40 L 160.02481764356006,40 L 160.05633101117274,40 L 160.0904600420438,40 L 161.571015023784,66.4168618266979 L 161.60084433423037,66.4168618266979 L 163.11767820705398,66.4168618266979 L 163.15410042215154,66.4168618266979 L 163.18849818554915,66.4168618266979 L 164.66715412410178,66.4168618266979 L 164.6922358265792,66.4168618266979 L 164.73492846729613,66.4168618266979 L 166.22345584732378,66.4168618266979 L 166.26129338706116,66.4168618266979 L 167.7637948584691,66.4168618266979 L 167.8032089623622,66.4168618266979 L 167.85466228344444,66.4168618266979 L 169.31400531108946,66.4168618266979 L 169.35257738639936,66.4168618266979 L 169.37631542624408,66.4168618266979 L 170.8639291156815,66.4168618266979 L 170.8997959502242,66.4168618266979 L 170.93761557445978,66.4168618266979 L 172.41276007466558,66.4168618266979 L 172.44694285204196,66.4168618266979 L 172.48569408236958,66.4168618266979 L 173.9589932858931,66.4168618266979 L 173.98971837142793,66.4168618266979 L 174.02834419324316,66.4168618266979 L 175.506749314771,66.4168618266979 L 175.53924803498103,66.4168618266979 L 175.57117345913443,66.4168618266979 L 177.05411120261002,66.4168618266979 L 177.09123212227658,66.4168618266979 L 177.13229445233247,66.4168618266979 L 178.60509202180646,66.4168618266979 L 178.64151423690402,66.4168618266979 L 178.6860342588014,66.4168618266979 L 180.1435857362695,66.4168618266979 L 180.1809216419573,66.4168618266979 L 180.2238471841972,66.4168618266979 L 181.69861545886585,66.4168618266979 L 181.73424939188556,66.4168618266979 L 181.77097617051322,66.4168618266979 L 183.24742850234819,66.4168618266979 L 183.28915370596954,66.4168618266979 L 183.33333333333334,66.4168618266979" fill="none" stroke="none"/>
  </g>
  <!-- 📊 Total Contributions Chart -->
  <g transform="translate(526.6666666666667, 250)">
    <!-- Chart Background -->
    <rect x="0" y="0" width="213.33333333333334" height="200" fill="#0f172a" stroke="#334155" stroke-width="1" rx="8" filter="url(#shadow)">
      <animate attributeName="opacity" values="0;1" dur="0.5s" begin="2.8s" fill="freeze"/>
    </rect>
    
    <!-- Chart Title -->
    <text x="106.66666666666667" y="25" text-anchor="middle" fill="#f8fafc" font-size="14" font-weight="bold" font-family="Arial, sans-serif">
      📊 Total Contributions
      <animate attributeName="opacity" values="0;1" dur="0.5s" begin="3s" fill="freeze"/>
    </text>
    
    <!-- Y-axis labels -->
    <text x="10" y="45" fill="#94a3b8" font-size="10" font-family="Arial, sans-serif">5,314
      <animate attributeName="opacity" values="0;1" dur="0.5s" begin="3.1999999999999997s" fill="freeze"/>
    </text>
    <text x="10" y="185" fill="#94a3b8" font-size="10" font-family="Arial, sans-serif">4,917
      <animate attributeName="opacity" values="0;1" dur="0.5s" begin="3.1999999999999997s" fill="freeze"/>
    </text>
    
    <!-- Chart Line with draw animation that follows the circle -->
    <path d="M 30,160 L 30.021856912158892,160 L 30.05288656122381,160 L 31.543545885962068,160 L 31.56844843342179,160 L 31.600570928094655,160 L 33.09434755014082,160 L 33.12372897304294,160 L 33.14936605607521,160 L 34.64108239541787,160 L 34.67390359465975,160 L 34.69681752142304,160 L 36.19098828450814,160 L 36.21986807336071,160 L 36.253119244645056,160 L 37.73938927144977,160 L 37.76757035573332,160 L 37.80159189359376,160 L 39.28637493375159,160 L 39.31202993228563,160 L 39.344044933947885,160 L 40.8356716957817,160 L 40.86365570954578,160 L 40.8961006832505,160 L 42.37968338478977,160 L 42.41728802300413,160 L 42.43905535765417,160 L 43.92781563920485,160 L 43.957107484598126,160 L 43.98625600597724,160 L 45.471576511188154,160 L 45.503896076380485,160 L 45.530912653049015,160 L 46.610930761726635,160 L 47.026086684233206,160 L 47.05820917890607,160 L 47.09205156174882,160 L 48.57380688210759,160 L 48.60189838888229,160 L 48.63479125013125,160 L 50.119807191812086,160 L 50.14146703345151,160 L 50.17779967104023,160 L 51.66978474290944,160 L 51.6968371505815,160 L 51.728296771688896,160 L 53.21777367331036,160 L 53.25025447801862,160 L 53.2837206353242,160 L 54.76379189851663,160 L 54.79145343324887,160 L 54.827875648346435,160 L 56.31600888733517,160 L 56.33960360316571,160 L 56.36866254703598,160 L 57.86260040859807,160 L 57.896102396907196,160 L 57.92747244050574,160 L 59.40960398640167,160 L 59.439755775879874,160 L 59.473616074224395,160 L 60.95531764807785,160 L 60.98471698648174,160 L 61.017860664755474,160 L 62.50644179128846,160 L 62.533924171003,160 L 62.56203359327947,160 L 64.05258542500712,160 L 64.08037236825174,160 L 64.11376686355024,160 L 65.59158077351971,160 L 65.62837921415444,160 L 65.65924762370344,160 L 67.14756001770986,160 L 67.16929152135637,160 L 67.20836523071583,160 L 68.69730466728421,160 L 68.72996462701016,160 L 68.76438030590953,160 L 70.24740762689395,160 L 70.27729068384562,160 L 70.30894737547246,160 L 71.78613424288,160 L 71.81859713208648,160 L 71.85097044378412,160 L 73.33881703474455,160 L 73.36920172574577,160 L 73.40392196817521,160 L 74.88720010618441,160 L 74.91516620444673,160 L 74.94603461399572,160 L 76.43622813568797,160 L 76.45615017365574,160 L 76.5050594934867,160 L 77.9814939098199,160 L 78.01164569929811,160 L 78.04138543223563,160 L 79.53225974299512,160 L 79.5664962668768,160 L 79.59765132445409,160 L 81.07940664481288,160 L 81.10955843429109,160 L 81.14431450772408,160 L 82.62519196849614,160 L 82.65482420842304,160 L 82.6818228695898,160 L 84.17543825212003,160 L 84.20605584464425,160 L 84.23758712775872,160 L 85.7279956354722,160 L 85.7568037623177,160 L 85.78521774812425,160 L 87.27009036579094,160 L 87.30088711333283,40 L 87.33297377700217,40 L 88.82377642575457,40 L 88.84514961936569,40 L 88.87462061977666,40 L 90.36780603026443,40 L 90.39170530962505,40 L 90.43411130231365,40 L 91.91755067983877,40 L 91.94902821644793,40 L 91.9766718356784,40 L 93.45917960711148,40 L 93.49366694801793,40 L 93.52743766885361,40 L 95.01661000694499,40 L 95.03187401445268,40 L 95.07324090803864,40 L 96.56140997803092,40 L 96.59403410675334,40 L 96.63088629389337,40 L 98.10943473943539,40 L 98.140177740472,40 L 98.17957392886332,40 L 99.65495133059211,40 L 99.6876471213216,40 L 99.72578922458905,40 L 101.21143220883182,40 L 101.24785442392938,40 L 102.75338361513639,40 L 102.82997238520137,40 L 104.30153378505324,40 L 104.33960422631361,40 L 104.37573979338286,40 L 105.84905691240816,40 L 105.88916972087026,40 L 105.91677750909719,40 L 107.40023480212406,40 L 107.43380845244027,40 L 107.47150266816347,40 L 108.94268784247818,40 L 108.97624357729262,40 L 109.01399153952113,40 L 110.49295204160384,40 L 110.52593448036166,40 L 110.56131759635659,40 L 112.04631562253564,40 L 112.08965322131627,40 L 113.6284514993094,40 L 113.66947799836176,40 L 115.14560785116487,40 L 115.17943231850585,40 L 116.69755610745688,40 L 116.72636423430237,40 L 116.77380448298823,40 L 118.23359539817748,40 L 118.26655992143353,40 L 118.3018534599196,40 L 119.78335796325361,40 L 119.8223420951042,40 L 119.86146955096899,40 L 121.32851624437494,40 L 121.36011918949647,40 L 121.39853002529046,40 L 122.87516151214312,40 L 122.91108209319115,40 L 122.95803862332923,40 L 124.41827742606273,40 L 124.45916060110092,40 L 124.49873594450993,40 L 125.97332506416087,40 L 126.00621792540983,40 L 126.04376881711889,40 L 127.5211885860494,40 L 127.5544755883373,40 L 127.59285059312775,40 L 129.06708140274327,40 L 129.10567139355499,40 L 129.1472532731622,40 L 130.6165394042893,40 L 130.64726448982415,40 L 130.6842958319819,40 L 132.1658003353159,40 L 132.19337229253927,40 L 132.23103067725896,40 L 133.70982993982574,40 L 133.74517722481713,40 L 133.78421510317304,40 L 135.25878630732223,40 L 135.2963013680277,40 L 135.3361991904686,40 L 136.81084205662484,40 L 136.83798404180575,40 L 136.87680693414046,40 L 138.35745149338948,40 L 138.3940170325012,40 L 138.42662324572188,40 L 139.9006749003197,40 L 139.9341410576253,40 L 139.97267730193167,40 L 141.44588692794633,40 L 141.48648345495621,40 L 141.5236222901246,40 L 142.99722605717818,40 L 143.02786156520418,40 L 143.06225932860178,40 L 144.55127042717723,40 L 144.58866007937036,40 L 144.6307435930271,40 L 146.09793361044723,40 L 146.1313281057457,40 L 146.16472260104422,40 L 147.6423394404942,40 L 147.67942452915725,40 L 147.71590049076013,40 L 149.18362797323334,40 L 149.22390202121133,40 L 149.26224119499824,40 L 150.73029115650328,40 L 150.77054728897954,40 L 150.81472691634332,40 L 152.29266623482516,40 L 152.32468123648744,40 L 152.36608396107692,40 L 153.83669583933505,40 L 153.86435737406725,40 L 153.89941801103035,40 L 155.38020589429357,40 L 155.41680726440882,40 L 155.4539281840754,40 L 156.9288756137617,40 L 156.96083686891865,40 L 157.0021679315011,40 L 158.47643457212018,40 L 158.5085928977966,40 L 158.54668125455873,40 L 160.02481764356006,40 L 160.05633101117274,40 L 160.0904600420438,40 L 161.571015023784,72.04030226700252 L 161.60084433423037,72.04030226700252 L 163.11767820705398,72.04030226700252 L 163.15410042215154,72.04030226700252 L 163.18849818554915,72.04030226700252 L 164.66715412410178,72.04030226700252 L 164.6922358265792,72.04030226700252 L 164.73492846729613,72.04030226700252 L 166.22345584732378,72.04030226700252 L 166.26129338706116,72.04030226700252 L 167.7637948584691,72.04030226700252 L 167.8032089623622,72.04030226700252 L 167.85466228344444,72.04030226700252 L 169.31400531108946,72.04030226700252 L 169.35257738639936,72.04030226700252 L 169.37631542624408,72.04030226700252 L 170.8639291156815,72.04030226700252 L 170.8997959502242,72.04030226700252 L 170.93761557445978,72.04030226700252 L 172.41276007466558,72.04030226700252 L 172.44694285204196,72.04030226700252 L 172.48569408236958,72.04030226700252 L 173.9589932858931,72.04030226700252 L 173.98971837142793,72.04030226700252 L 174.02834419324316,72.04030226700252 L 175.506749314771,72.04030226700252 L 175.53924803498103,72.04030226700252 L 175.57117345913443,72.04030226700252 L 177.05411120261002,72.04030226700252 L 177.09123212227658,72.04030226700252 L 177.13229445233247,72.04030226700252 L 178.60509202180646,72.04030226700252 L 178.64151423690402,72.04030226700252 L 178.6860342588014,72.04030226700252 L 180.1435857362695,72.04030226700252 L 180.1809216419573,72.04030226700252 L 180.2238471841972,72.04030226700252 L 181.69861545886585,72.04030226700252 L 181.73424939188556,72.04030226700252 L 181.77097617051322,72.04030226700252 L 183.24742850234819,72.04030226700252 L 183.28915370596954,72.04030226700252 L 183.33333333333334,72.04030226700252" stroke="#f59e0b" stroke-width="2" fill="none" stroke-dasharray="14700" stroke-dashoffset="14700">
      <animate attributeName="stroke-dashoffset" values="14700;0" dur="3s" begin="3.5999999999999996s" fill="freeze"/>
    </path>
    
    <!-- Glow effect for the line that also follows the circle -->
    <path d="M 30,160 L 30.021856912158892,160 L 30.05288656122381,160 L 31.543545885962068,160 L 31.56844843342179,160 L 31.600570928094655,160 L 33.09434755014082,160 L 33.12372897304294,160 L 33.14936605607521,160 L 34.64108239541787,160 L 34.67390359465975,160 L 34.69681752142304,160 L 36.19098828450814,160 L 36.21986807336071,160 L 36.253119244645056,160 L 37.73938927144977,160 L 37.76757035573332,160 L 37.80159189359376,160 L 39.28637493375159,160 L 39.31202993228563,160 L 39.344044933947885,160 L 40.8356716957817,160 L 40.86365570954578,160 L 40.8961006832505,160 L 42.37968338478977,160 L 42.41728802300413,160 L 42.43905535765417,160 L 43.92781563920485,160 L 43.957107484598126,160 L 43.98625600597724,160 L 45.471576511188154,160 L 45.503896076380485,160 L 45.530912653049015,160 L 46.610930761726635,160 L 47.026086684233206,160 L 47.05820917890607,160 L 47.09205156174882,160 L 48.57380688210759,160 L 48.60189838888229,160 L 48.63479125013125,160 L 50.119807191812086,160 L 50.14146703345151,160 L 50.17779967104023,160 L 51.66978474290944,160 L 51.6968371505815,160 L 51.728296771688896,160 L 53.21777367331036,160 L 53.25025447801862,160 L 53.2837206353242,160 L 54.76379189851663,160 L 54.79145343324887,160 L 54.827875648346435,160 L 56.31600888733517,160 L 56.33960360316571,160 L 56.36866254703598,160 L 57.86260040859807,160 L 57.896102396907196,160 L 57.92747244050574,160 L 59.40960398640167,160 L 59.439755775879874,160 L 59.473616074224395,160 L 60.95531764807785,160 L 60.98471698648174,160 L 61.017860664755474,160 L 62.50644179128846,160 L 62.533924171003,160 L 62.56203359327947,160 L 64.05258542500712,160 L 64.08037236825174,160 L 64.11376686355024,160 L 65.59158077351971,160 L 65.62837921415444,160 L 65.65924762370344,160 L 67.14756001770986,160 L 67.16929152135637,160 L 67.20836523071583,160 L 68.69730466728421,160 L 68.72996462701016,160 L 68.76438030590953,160 L 70.24740762689395,160 L 70.27729068384562,160 L 70.30894737547246,160 L 71.78613424288,160 L 71.81859713208648,160 L 71.85097044378412,160 L 73.33881703474455,160 L 73.36920172574577,160 L 73.40392196817521,160 L 74.88720010618441,160 L 74.91516620444673,160 L 74.94603461399572,160 L 76.43622813568797,160 L 76.45615017365574,160 L 76.5050594934867,160 L 77.9814939098199,160 L 78.01164569929811,160 L 78.04138543223563,160 L 79.53225974299512,160 L 79.5664962668768,160 L 79.59765132445409,160 L 81.07940664481288,160 L 81.10955843429109,160 L 81.14431450772408,160 L 82.62519196849614,160 L 82.65482420842304,160 L 82.6818228695898,160 L 84.17543825212003,160 L 84.20605584464425,160 L 84.23758712775872,160 L 85.7279956354722,160 L 85.7568037623177,160 L 85.78521774812425,160 L 87.27009036579094,160 L 87.30088711333283,40 L 87.33297377700217,40 L 88.82377642575457,40 L 88.84514961936569,40 L 88.87462061977666,40 L 90.36780603026443,40 L 90.39170530962505,40 L 90.43411130231365,40 L 91.91755067983877,40 L 91.94902821644793,40 L 91.9766718356784,40 L 93.45917960711148,40 L 93.49366694801793,40 L 93.52743766885361,40 L 95.01661000694499,40 L 95.03187401445268,40 L 95.07324090803864,40 L 96.56140997803092,40 L 96.59403410675334,40 L 96.63088629389337,40 L 98.10943473943539,40 L 98.140177740472,40 L 98.17957392886332,40 L 99.65495133059211,40 L 99.6876471213216,40 L 99.72578922458905,40 L 101.21143220883182,40 L 101.24785442392938,40 L 102.75338361513639,40 L 102.82997238520137,40 L 104.30153378505324,40 L 104.33960422631361,40 L 104.37573979338286,40 L 105.84905691240816,40 L 105.88916972087026,40 L 105.91677750909719,40 L 107.40023480212406,40 L 107.43380845244027,40 L 107.47150266816347,40 L 108.94268784247818,40 L 108.97624357729262,40 L 109.01399153952113,40 L 110.49295204160384,40 L 110.52593448036166,40 L 110.56131759635659,40 L 112.04631562253564,40 L 112.08965322131627,40 L 113.6284514993094,40 L 113.66947799836176,40 L 115.14560785116487,40 L 115.17943231850585,40 L 116.69755610745688,40 L 116.72636423430237,40 L 116.77380448298823,40 L 118.23359539817748,40 L 118.26655992143353,40 L 118.3018534599196,40 L 119.78335796325361,40 L 119.8223420951042,40 L 119.86146955096899,40 L 121.32851624437494,40 L 121.36011918949647,40 L 121.39853002529046,40 L 122.87516151214312,40 L 122.91108209319115,40 L 122.95803862332923,40 L 124.41827742606273,40 L 124.45916060110092,40 L 124.49873594450993,40 L 125.97332506416087,40 L 126.00621792540983,40 L 126.04376881711889,40 L 127.5211885860494,40 L 127.5544755883373,40 L 127.59285059312775,40 L 129.06708140274327,40 L 129.10567139355499,40 L 129.1472532731622,40 L 130.6165394042893,40 L 130.64726448982415,40 L 130.6842958319819,40 L 132.1658003353159,40 L 132.19337229253927,40 L 132.23103067725896,40 L 133.70982993982574,40 L 133.74517722481713,40 L 133.78421510317304,40 L 135.25878630732223,40 L 135.2963013680277,40 L 135.3361991904686,40 L 136.81084205662484,40 L 136.83798404180575,40 L 136.87680693414046,40 L 138.35745149338948,40 L 138.3940170325012,40 L 138.42662324572188,40 L 139.9006749003197,40 L 139.9341410576253,40 L 139.97267730193167,40 L 141.44588692794633,40 L 141.48648345495621,40 L 141.5236222901246,40 L 142.99722605717818,40 L 143.02786156520418,40 L 143.06225932860178,40 L 144.55127042717723,40 L 144.58866007937036,40 L 144.6307435930271,40 L 146.09793361044723,40 L 146.1313281057457,40 L 146.16472260104422,40 L 147.6423394404942,40 L 147.67942452915725,40 L 147.71590049076013,40 L 149.18362797323334,40 L 149.22390202121133,40 L 149.26224119499824,40 L 150.73029115650328,40 L 150.77054728897954,40 L 150.81472691634332,40 L 152.29266623482516,40 L 152.32468123648744,40 L 152.36608396107692,40 L 153.83669583933505,40 L 153.86435737406725,40 L 153.89941801103035,40 L 155.38020589429357,40 L 155.41680726440882,40 L 155.4539281840754,40 L 156.9288756137617,40 L 156.96083686891865,40 L 157.0021679315011,40 L 158.47643457212018,40 L 158.5085928977966,40 L 158.54668125455873,40 L 160.02481764356006,40 L 160.05633101117274,40 L 160.0904600420438,40 L 161.571015023784,72.04030226700252 L 161.60084433423037,72.04030226700252 L 163.11767820705398,72.04030226700252 L 163.15410042215154,72.04030226700252 L 163.18849818554915,72.04030226700252 L 164.66715412410178,72.04030226700252 L 164.6922358265792,72.04030226700252 L 164.73492846729613,72.04030226700252 L 166.22345584732378,72.04030226700252 L 166.26129338706116,72.04030226700252 L 167.7637948584691,72.04030226700252 L 167.8032089623622,72.04030226700252 L 167.85466228344444,72.04030226700252 L 169.31400531108946,72.04030226700252 L 169.35257738639936,72.04030226700252 L 169.37631542624408,72.04030226700252 L 170.8639291156815,72.04030226700252 L 170.8997959502242,72.04030226700252 L 170.93761557445978,72.04030226700252 L 172.41276007466558,72.04030226700252 L 172.44694285204196,72.04030226700252 L 172.48569408236958,72.04030226700252 L 173.9589932858931,72.04030226700252 L 173.98971837142793,72.04030226700252 L 174.02834419324316,72.04030226700252 L 175.506749314771,72.04030226700252 L 175.53924803498103,72.04030226700252 L 175.57117345913443,72.04030226700252 L 177.05411120261002,72.04030226700252 L 177.09123212227658,72.04030226700252 L 177.13229445233247,72.04030226700252 L 178.60509202180646,72.04030226700252 L 178.64151423690402,72.04030226700252 L 178.6860342588014,72.04030226700252 L 180.1435857362695,72.04030226700252 L 180.1809216419573,72.04030226700252 L 180.2238471841972,72.04030226700252 L 181.69861545886585,72.04030226700252 L 181.73424939188556,72.04030226700252 L 181.77097617051322,72.04030226700252 L 183.24742850234819,72.04030226700252 L 183.28915370596954,72.04030226700252 L 183.33333333333334,72.04030226700252" stroke="#f59e0b" stroke-width="4" fill="none" opacity="0.4" stroke-dasharray="14700" stroke-dashoffset="14700">
      <animate attributeName="stroke-dashoffset" values="14700;0" dur="3s" begin="3.5999999999999996s" fill="freeze"/>
    </path>
    
    <!-- Animated circle that moves along the path and draws the line -->
    <circle r="5" fill="#f59e0b" opacity="0" filter="url(#trailGlow)">
      <animate attributeName="opacity" values="0;1;1;1" dur="3.2s" begin="3.4s" fill="freeze"/>
      <animate attributeName="r" values="5;6;5" dur="1s" begin="3.4s" repeatCount="3"/>
      <animateMotion dur="3s" begin="3.4s" fill="freeze">
        <mpath href="#path_totalContributions_526.6666666666667"/>
      </animateMotion>
    </circle>
    
    <!-- Small trail dots that fade out -->
    <circle r="2" fill="#f59e0b" opacity="0">
      <animate attributeName="opacity" values="0;0.6;0" dur="0.8s" begin="3.8s" fill="freeze"/>
      <animateMotion dur="3s" begin="3.4s" fill="freeze">
        <mpath href="#path_totalContributions_526.6666666666667"/>
      </animateMotion>
    </circle>
    
    <!-- Hidden path for motion animation -->
    <path id="path_totalContributions_526.6666666666667" d="M 30,160 L 30.021856912158892,160 L 30.05288656122381,160 L 31.543545885962068,160 L 31.56844843342179,160 L 31.600570928094655,160 L 33.09434755014082,160 L 33.12372897304294,160 L 33.14936605607521,160 L 34.64108239541787,160 L 34.67390359465975,160 L 34.69681752142304,160 L 36.19098828450814,160 L 36.21986807336071,160 L 36.253119244645056,160 L 37.73938927144977,160 L 37.76757035573332,160 L 37.80159189359376,160 L 39.28637493375159,160 L 39.31202993228563,160 L 39.344044933947885,160 L 40.8356716957817,160 L 40.86365570954578,160 L 40.8961006832505,160 L 42.37968338478977,160 L 42.41728802300413,160 L 42.43905535765417,160 L 43.92781563920485,160 L 43.957107484598126,160 L 43.98625600597724,160 L 45.471576511188154,160 L 45.503896076380485,160 L 45.530912653049015,160 L 46.610930761726635,160 L 47.026086684233206,160 L 47.05820917890607,160 L 47.09205156174882,160 L 48.57380688210759,160 L 48.60189838888229,160 L 48.63479125013125,160 L 50.119807191812086,160 L 50.14146703345151,160 L 50.17779967104023,160 L 51.66978474290944,160 L 51.6968371505815,160 L 51.728296771688896,160 L 53.21777367331036,160 L 53.25025447801862,160 L 53.2837206353242,160 L 54.76379189851663,160 L 54.79145343324887,160 L 54.827875648346435,160 L 56.31600888733517,160 L 56.33960360316571,160 L 56.36866254703598,160 L 57.86260040859807,160 L 57.896102396907196,160 L 57.92747244050574,160 L 59.40960398640167,160 L 59.439755775879874,160 L 59.473616074224395,160 L 60.95531764807785,160 L 60.98471698648174,160 L 61.017860664755474,160 L 62.50644179128846,160 L 62.533924171003,160 L 62.56203359327947,160 L 64.05258542500712,160 L 64.08037236825174,160 L 64.11376686355024,160 L 65.59158077351971,160 L 65.62837921415444,160 L 65.65924762370344,160 L 67.14756001770986,160 L 67.16929152135637,160 L 67.20836523071583,160 L 68.69730466728421,160 L 68.72996462701016,160 L 68.76438030590953,160 L 70.24740762689395,160 L 70.27729068384562,160 L 70.30894737547246,160 L 71.78613424288,160 L 71.81859713208648,160 L 71.85097044378412,160 L 73.33881703474455,160 L 73.36920172574577,160 L 73.40392196817521,160 L 74.88720010618441,160 L 74.91516620444673,160 L 74.94603461399572,160 L 76.43622813568797,160 L 76.45615017365574,160 L 76.5050594934867,160 L 77.9814939098199,160 L 78.01164569929811,160 L 78.04138543223563,160 L 79.53225974299512,160 L 79.5664962668768,160 L 79.59765132445409,160 L 81.07940664481288,160 L 81.10955843429109,160 L 81.14431450772408,160 L 82.62519196849614,160 L 82.65482420842304,160 L 82.6818228695898,160 L 84.17543825212003,160 L 84.20605584464425,160 L 84.23758712775872,160 L 85.7279956354722,160 L 85.7568037623177,160 L 85.78521774812425,160 L 87.27009036579094,160 L 87.30088711333283,40 L 87.33297377700217,40 L 88.82377642575457,40 L 88.84514961936569,40 L 88.87462061977666,40 L 90.36780603026443,40 L 90.39170530962505,40 L 90.43411130231365,40 L 91.91755067983877,40 L 91.94902821644793,40 L 91.9766718356784,40 L 93.45917960711148,40 L 93.49366694801793,40 L 93.52743766885361,40 L 95.01661000694499,40 L 95.03187401445268,40 L 95.07324090803864,40 L 96.56140997803092,40 L 96.59403410675334,40 L 96.63088629389337,40 L 98.10943473943539,40 L 98.140177740472,40 L 98.17957392886332,40 L 99.65495133059211,40 L 99.6876471213216,40 L 99.72578922458905,40 L 101.21143220883182,40 L 101.24785442392938,40 L 102.75338361513639,40 L 102.82997238520137,40 L 104.30153378505324,40 L 104.33960422631361,40 L 104.37573979338286,40 L 105.84905691240816,40 L 105.88916972087026,40 L 105.91677750909719,40 L 107.40023480212406,40 L 107.43380845244027,40 L 107.47150266816347,40 L 108.94268784247818,40 L 108.97624357729262,40 L 109.01399153952113,40 L 110.49295204160384,40 L 110.52593448036166,40 L 110.56131759635659,40 L 112.04631562253564,40 L 112.08965322131627,40 L 113.6284514993094,40 L 113.66947799836176,40 L 115.14560785116487,40 L 115.17943231850585,40 L 116.69755610745688,40 L 116.72636423430237,40 L 116.77380448298823,40 L 118.23359539817748,40 L 118.26655992143353,40 L 118.3018534599196,40 L 119.78335796325361,40 L 119.8223420951042,40 L 119.86146955096899,40 L 121.32851624437494,40 L 121.36011918949647,40 L 121.39853002529046,40 L 122.87516151214312,40 L 122.91108209319115,40 L 122.95803862332923,40 L 124.41827742606273,40 L 124.45916060110092,40 L 124.49873594450993,40 L 125.97332506416087,40 L 126.00621792540983,40 L 126.04376881711889,40 L 127.5211885860494,40 L 127.5544755883373,40 L 127.59285059312775,40 L 129.06708140274327,40 L 129.10567139355499,40 L 129.1472532731622,40 L 130.6165394042893,40 L 130.64726448982415,40 L 130.6842958319819,40 L 132.1658003353159,40 L 132.19337229253927,40 L 132.23103067725896,40 L 133.70982993982574,40 L 133.74517722481713,40 L 133.78421510317304,40 L 135.25878630732223,40 L 135.2963013680277,40 L 135.3361991904686,40 L 136.81084205662484,40 L 136.83798404180575,40 L 136.87680693414046,40 L 138.35745149338948,40 L 138.3940170325012,40 L 138.42662324572188,40 L 139.9006749003197,40 L 139.9341410576253,40 L 139.97267730193167,40 L 141.44588692794633,40 L 141.48648345495621,40 L 141.5236222901246,40 L 142.99722605717818,40 L 143.02786156520418,40 L 143.06225932860178,40 L 144.55127042717723,40 L 144.58866007937036,40 L 144.6307435930271,40 L 146.09793361044723,40 L 146.1313281057457,40 L 146.16472260104422,40 L 147.6423394404942,40 L 147.67942452915725,40 L 147.71590049076013,40 L 149.18362797323334,40 L 149.22390202121133,40 L 149.26224119499824,40 L 150.73029115650328,40 L 150.77054728897954,40 L 150.81472691634332,40 L 152.29266623482516,40 L 152.32468123648744,40 L 152.36608396107692,40 L 153.83669583933505,40 L 153.86435737406725,40 L 153.89941801103035,40 L 155.38020589429357,40 L 155.41680726440882,40 L 155.4539281840754,40 L 156.9288756137617,40 L 156.96083686891865,40 L 157.0021679315011,40 L 158.47643457212018,40 L 158.5085928977966,40 L 158.54668125455873,40 L 160.02481764356006,40 L 160.05633101117274,40 L 160.0904600420438,40 L 161.571015023784,72.04030226700252 L 161.60084433423037,72.04030226700252 L 163.11767820705398,72.04030226700252 L 163.15410042215154,72.04030226700252 L 163.18849818554915,72.04030226700252 L 164.66715412410178,72.04030226700252 L 164.6922358265792,72.04030226700252 L 164.73492846729613,72.04030226700252 L 166.22345584732378,72.04030226700252 L 166.26129338706116,72.04030226700252 L 167.7637948584691,72.04030226700252 L 167.8032089623622,72.04030226700252 L 167.85466228344444,72.04030226700252 L 169.31400531108946,72.04030226700252 L 169.35257738639936,72.04030226700252 L 169.37631542624408,72.04030226700252 L 170.8639291156815,72.04030226700252 L 170.8997959502242,72.04030226700252 L 170.93761557445978,72.04030226700252 L 172.41276007466558,72.04030226700252 L 172.44694285204196,72.04030226700252 L 172.48569408236958,72.04030226700252 L 173.9589932858931,72.04030226700252 L 173.98971837142793,72.04030226700252 L 174.02834419324316,72.04030226700252 L 175.506749314771,72.04030226700252 L 175.53924803498103,72.04030226700252 L 175.57117345913443,72.04030226700252 L 177.05411120261002,72.04030226700252 L 177.09123212227658,72.04030226700252 L 177.13229445233247,72.04030226700252 L 178.60509202180646,72.04030226700252 L 178.64151423690402,72.04030226700252 L 178.6860342588014,72.04030226700252 L 180.1435857362695,72.04030226700252 L 180.1809216419573,72.04030226700252 L 180.2238471841972,72.04030226700252 L 181.69861545886585,72.04030226700252 L 181.73424939188556,72.04030226700252 L 181.77097617051322,72.04030226700252 L 183.24742850234819,72.04030226700252 L 183.28915370596954,72.04030226700252 L 183.33333333333334,72.04030226700252" fill="none" stroke="none"/>
  </g>
  
  <!-- Footer -->
  <text x="400" y="580" text-anchor="middle" fill="#64748b" font-size="12" font-family="Arial, sans-serif">
    Generated by GitHub User Rank Tracker • 3/26/2026
    <animate attributeName="opacity" values="0;1" dur="0.5s" begin="5s" fill="freeze"/>
  </text>
</svg>