<svg width="800" height="600" xmlns="http://www.w3.org/2000/svg">
  <defs>
    <linearGradient id="bgGradient" x1="0%" y1="0%" x2="100%" y2="100%">
      <stop offset="0%" style="stop-color:#1e293b;stop-opacity:1" />
      <stop offset="100%" style="stop-color:#0f172a;stop-opacity:1" />
    </linearGradient>
    <filter id="shadow" x="-20%" y="-20%" width="140%" height="140%">
      <feDropShadow dx="2" dy="2" stdDeviation="3" flood-color="#000" flood-opacity="0.3"/>
    </filter>
    <!-- Trail effect filter -->
    <filter id="trailGlow" x="-50%" y="-50%" width="200%" height="200%">
      <feGaussianBlur stdDeviation="3" result="coloredBlur"/>
      <feMerge> 
        <feMergeNode in="coloredBlur"/>
        <feMergeNode in="SourceGraphic"/>
      </feMerge>
    </filter>
  </defs>
  
  <!-- Background -->
  <rect width="800" height="600" fill="url(#bgGradient)" rx="12"/>
  
  <!-- Header -->
  <text x="400" y="40" text-anchor="middle" fill="#f8fafc" font-size="24" font-weight="bold" font-family="Arial, sans-serif">
    GitHub Progress Report
    <animate attributeName="opacity" values="0;1" dur="0.8s" begin="0s" fill="freeze"/>
    <animateTransform attributeName="transform" type="translate" values="0,-20;0,0" dur="0.8s" begin="0s" fill="freeze"/>
  </text>
  
  <!-- User Info -->
  <text x="400" y="70" text-anchor="middle" fill="#cbd5e1" font-size="16" font-family="Arial, sans-serif">
    @maifeeulasad • BANGLADESH • 100 days analyzed
    <animate attributeName="opacity" values="0;1" dur="0.6s" begin="0.3s" fill="freeze"/>
  </text>
  
  <!-- Progress Cards -->
  <!-- Followers Card -->
  <g transform="translate(60, 100)">
    <rect width="206.66666666666666" height="120" fill="#1e293b" stroke="#334155" stroke-width="1" rx="8" filter="url(#shadow)">
      <animate attributeName="opacity" values="0;1" dur="0.6s" begin="0.2s" fill="freeze"/>
      <animateTransform attributeName="transform" type="scale" values="0.8;1" dur="0.6s" begin="0.2s" fill="freeze"/>
    </rect>
    <text x="103.33333333333333" y="25" text-anchor="middle" fill="#94a3b8" font-size="14" font-weight="bold" font-family="Arial, sans-serif">FOLLOWERS
      <animate attributeName="opacity" values="0;1" dur="0.5s" begin="0.4s" fill="freeze"/>
    </text>
    
    <text x="103.33333333333333" y="50" text-anchor="middle" fill="#ef4444" font-size="32" font-weight="bold" font-family="Arial, sans-serif">
      ↘
      <animate attributeName="opacity" values="0;1" dur="0.5s" begin="0.6s" fill="freeze"/>
      <animateTransform attributeName="transform" type="scale" values="0;1.2;1" dur="0.8s" begin="0.6s" fill="freeze"/>
    </text>
    
    <text x="103.33333333333333" y="75" text-anchor="middle" fill="#f8fafc" font-size="18" font-weight="bold" font-family="Arial, sans-serif">
      -15
      <animate attributeName="opacity" values="0;1" dur="0.5s" begin="0.8s" fill="freeze"/>
    </text>
    
    <text x="103.33333333333333" y="95" text-anchor="middle" fill="#94a3b8" font-size="12" font-family="Arial, sans-serif">
      #466 → #481
      <animate attributeName="opacity" values="0;1" dur="0.5s" begin="1s" fill="freeze"/>
    </text>
  </g>
  
  <!-- Public Contributions Card -->
  <g transform="translate(296.66666666666663, 100)">
    <rect width="206.66666666666666" height="120" fill="#1e293b" stroke="#334155" stroke-width="1" rx="8" filter="url(#shadow)">
      <animate attributeName="opacity" values="0;1" dur="0.6s" begin="0.4s" fill="freeze"/>
      <animateTransform attributeName="transform" type="scale" values="0.8;1" dur="0.6s" begin="0.4s" fill="freeze"/>
    </rect>
    <text x="103.33333333333333" y="25" text-anchor="middle" fill="#94a3b8" font-size="14" font-weight="bold" font-family="Arial, sans-serif">PUBLIC
      <animate attributeName="opacity" values="0;1" dur="0.5s" begin="0.6s" fill="freeze"/>
    </text>
    
    <text x="103.33333333333333" y="50" text-anchor="middle" fill="#6b7280" font-size="32" font-weight="bold" font-family="Arial, sans-serif">
      →
      <animate attributeName="opacity" values="0;1" dur="0.5s" begin="0.8s" fill="freeze"/>
      <animateTransform attributeName="transform" type="scale" values="0;1.2;1" dur="0.8s" begin="0.8s" fill="freeze"/>
    </text>
    
    <text x="103.33333333333333" y="75" text-anchor="middle" fill="#f8fafc" font-size="18" font-weight="bold" font-family="Arial, sans-serif">
      0
      <animate attributeName="opacity" values="0;1" dur="0.5s" begin="1s" fill="freeze"/>
    </text>
    
    <text x="103.33333333333333" y="95" text-anchor="middle" fill="#94a3b8" font-size="12" font-family="Arial, sans-serif">
      #7 → #7
      <animate attributeName="opacity" values="0;1" dur="0.5s" begin="1.2s" fill="freeze"/>
    </text>
  </g>
  
  <!-- Total Contributions Card -->
  <g transform="translate(533.3333333333333, 100)">
    <rect width="206.66666666666666" height="120" fill="#1e293b" stroke="#334155" stroke-width="1" rx="8" filter="url(#shadow)">
      <animate attributeName="opacity" values="0;1" dur="0.6s" begin="0.6s" fill="freeze"/>
      <animateTransform attributeName="transform" type="scale" values="0.8;1" dur="0.6s" begin="0.6s" fill="freeze"/>
    </rect>
    <text x="103.33333333333333" y="25" text-anchor="middle" fill="#94a3b8" font-size="14" font-weight="bold" font-family="Arial, sans-serif">TOTAL
      <animate attributeName="opacity" values="0;1" dur="0.5s" begin="0.8s" fill="freeze"/>
    </text>
    
    <text x="103.33333333333333" y="50" text-anchor="middle" fill="#22c55e" font-size="32" font-weight="bold" font-family="Arial, sans-serif">
      ↗
      <animate attributeName="opacity" values="0;1" dur="0.5s" begin="1s" fill="freeze"/>
      <animateTransform attributeName="transform" type="scale" values="0;1.2;1" dur="0.8s" begin="1s" fill="freeze"/>
    </text>
    
    <text x="103.33333333333333" y="75" text-anchor="middle" fill="#f8fafc" font-size="18" font-weight="bold" font-family="Arial, sans-serif">
      +3
      <animate attributeName="opacity" values="0;1" dur="0.5s" begin="1.2s" fill="freeze"/>
    </text>
    
    <text x="103.33333333333333" y="95" text-anchor="middle" fill="#94a3b8" font-size="12" font-family="Arial, sans-serif">
      #15 → #12
      <animate attributeName="opacity" values="0;1" dur="0.5s" begin="1.4s" fill="freeze"/>
    </text>
  </g>
  
  <!-- Timeline Charts (if we have snapshots) -->
  
  <!-- 👥 Followers Count Chart -->
  <g transform="translate(60, 250)">
    <!-- Chart Background -->
    <rect x="0" y="0" width="213.33333333333334" height="200" fill="#0f172a" stroke="#334155" stroke-width="1" rx="8" filter="url(#shadow)">
      <animate attributeName="opacity" values="0;1" dur="0.5s" begin="1.8s" fill="freeze"/>
    </rect>
    
    <!-- Chart Title -->
    <text x="106.66666666666667" y="25" text-anchor="middle" fill="#f8fafc" font-size="14" font-weight="bold" font-family="Arial, sans-serif">
      👥 Followers Count
      <animate attributeName="opacity" values="0;1" dur="0.5s" begin="2s" fill="freeze"/>
    </text>
    
    <!-- Y-axis labels -->
    <text x="10" y="45" fill="#94a3b8" font-size="10" font-family="Arial, sans-serif">154
      <animate attributeName="opacity" values="0;1" dur="0.5s" begin="2.2s" fill="freeze"/>
    </text>
    <text x="10" y="185" fill="#94a3b8" font-size="10" font-family="Arial, sans-serif">150
      <animate attributeName="opacity" values="0;1" dur="0.5s" begin="2.2s" fill="freeze"/>
    </text>
    
    <!-- Chart Line with draw animation that follows the circle -->
    <path d="M 30,160 L 30.03680712345069,160 L 30.06768281658873,160 L 31.55634638695995,160 L 31.578083018286968,160 L 31.61716594732589,160 L 33.10645670821356,160 L 33.13912437425572,160 L 33.173548173743924,160 L 34.65692542404799,160 L 34.68681553208876,160 L 34.718479693304616,160 L 36.196015111941236,160 L 36.22848566096395,160 L 36.26086661134145,160 L 37.7490642687576,160 L 37.77945612921153,160 L 37.81418456409344,160 L 39.297812690604076,160 L 39.32578538763744,160 L 39.35666108077548,160 L 40.84720622269603,160 L 40.86713296138988,160 L 40.91605382167244,160 L 42.39283661168933,160 L 42.42299551566572,160 L 42.452742265874164,160 L 43.943968357498285,160 L 43.97821295969607,160 L 44.00937536849878,160 L 45.491480318040914,160 L 45.5216392220173,160 L 45.55640349635729,160 L 47.037630379176406,160 L 47.0672696110106,160 L 47.094274642675735,160 L 48.58824245284316,160 L 48.618867269774626,160 L 48.650405992887194,160 L 50.14116617155624,160 L 50.16998109585454,160 L 50.198401786113934,160 L 51.68362476850924,160 L 51.71442878273112,70 L 51.74652301744396,70 L 53.23767743015192,70 L 53.25905566689811,70 L 53.28853362117093,70 L 54.782071357841374,70 L 54.80597627638237,70 L 54.84839227502297,70 L 56.33218167909497,70 L 56.36366664302042,70 L 56.391316784931035,70 L 57.874174363092905,70 L 57.90866984149727,70 L 57.942448530739995,70 L 59.4319722481052,70 L 59.44723985724832,70 L 59.488616511604526,70 L 60.97713672414342,70 L 61.0097685507275,70 L 61.04662943336531,70 L 62.52552675140907,70 L 62.55627700644382,70 L 62.59568249060549,70 L 64.07140801660894,70 L 64.10411152210919,70 L 64.14226262523798,70 L 65.62825615598206,70 L 65.66468696512287,70 L 67.17057139510271,70 L 67.24717823675398,70 L 68.71908686047166,70 L 68.75716628468427,70 L 68.79331037816043,70 L 70.26697513532415,70 L 70.30709740864746,70 L 70.3347117111,70 L 71.81851903490104,70 L 71.85210060712433,70 L 71.88980371702706,70 L 73.36133602643488,70 L 73.39489967892911,70 L 73.43265654801897,70 L 74.91196601983067,70 L 74.94495624099558,70 L 74.98034770585201,70 L 76.46569612635062,70 L 76.50904395090134,70 L 78.04820531771077,70 L 78.08924149721517,70 L 79.56571965183836,70 L 79.59955210026821,70 L 81.11803409976403,70 L 81.14684902406233,70 L 81.19430046656352,70 L 82.6544358283011,70 L 82.68740812973698,70 L 82.7227099959482,70 L 84.20456406928375,70 L 84.24355739967747,70 L 84.28269408790352,70 L 85.75008693990281,70 L 85.78169734193153,70 L 85.82011724099593,70 L 87.29709714803228,70 L 87.33302620475993,70 L 87.379993814577,70 L 88.84057716954062,70 L 88.88146999121271,70 L 88.92105467266478,70 L 90.39599173059044,70 L 90.42889235311014,70 L 90.46645210518057,70 L 91.94422048029472,70 L 91.97751533685332,70 L 92.01589939645964,70 L 93.49047805980445,70 L 93.52907715615926,70 L 93.57066884726396,70 L 95.0403016653934,70 L 95.0710340006991,70 L 95.10807408062733,70 L 96.58992815396289,70 L 96.61750661695734,70 L 96.65517388740201,70 L 98.13432208165234,70 L 98.1696777070507,70 L 98.20872479663153,70 L 99.68364393482814,70 L 99.72116784744047,70 L 99.76107508401529,70 L 101.23606590112806,70 L 101.26321429062551,70 L 101.30204634345787,70 L 102.78304026979944,70 L 102.8196144367726,70 L 102.85222834362763,70 L 104.32662780968204,70 L 104.36010186353106,70 L 104.39864720069875,70 L 105.87220443948821,70 L 105.91281054549565,70 L 105.94995814379811,70 L 107.42390961662649,70 L 107.45455235328699,70 L 107.48895823304616,70 L 108.97832067284999,70 L 109.01571914735905,70 L 109.05781259087689,70 L 110.5253488007085,70 L 110.55875117564136,70 L 110.59215355057421,70 L 112.07011904270782,70 L 112.10721288182316,70 L 112.14369745015112,70 L 113.61177125185397,70 L 113.65205480273866,70 L 113.69040302288688,70 L 115.15879937971248,70 L 115.19906501086813,70 L 115.2432550626838,70 L 116.72154310994016,70 L 116.75356566573683,70 L 116.79497815955112,70 L 118.2659370376296,70 L 118.29360509926926,70 L 118.32867400900295,70 L 119.80981129317686,70 L 119.8464212996081,70 L 119.88355097818152,70 L 121.35884643068799,70 L 121.39081522729754,70 L 121.43215604219567,70 L 122.90677054499857,70 L 122.93893645862758,70 L 122.97703380256922,70 L 124.45551896684503,70 L 124.48703977022856,70 L 124.52117685405211,70 L 126.00208118174848,40 L 126.03191753060213,40 L 127.54910930960699,40 L 127.58554011874782,40 L 127.61994599850698,40 L 129.09895083492498,40 L 129.1240384555827,40 L 129.16674116988798,40 L 130.6556197770077,40 L 130.69346624474275,40 L 132.19632224051463,40 L 132.23574564440534,40 L 132.28721110621177,40 L 133.7468984747233,40 L 133.78547965134908,40 L 133.8092232923287,40 L 135.29718799326733,40 L 135.3330632908079,40 L 135.37089183881392,40 L 136.84638440833984,40 L 136.8805752513505,40 L 136.91933562526668,40 L 138.39298246270135,40 L 138.42371479800707,40 L 138.46234973381996,40 L 139.94110369403137,40 L 139.97361008251215,40 L 140.00554303966365,40 L 141.4888306913225,40 L 141.52596036989593,40 L 141.56703238885842,40 L 143.04017747387996,40 L 143.0766082830208,40 L 143.12113880968823,40 L 144.57903420529567,40 L 144.6163789206176,40 L 144.65931459140037,40 L 146.13443084661645,40 L 146.17007318767946,40 L 146.20680863221398,40 L 147.68360934195988,40 L 147.72534439089694,40 L 147.7695344427126,40 L 149.23242944272255,40 L 149.27009671316722,40 L 149.31649089165495,40 L 150.77779103578024,40 L 150.81723235939995,40 L 150.85368108826984,40 L 152.33239920902315,40 L 152.3683641052089,40 L 153.8840864664324,40 L 153.91700500868114,40 L 155.42643754501114,40 L 155.46369266168787,40 L 155.5079364726907,40 L 156.9726951245209,40 L 157.01973441325413,40 L 158.52425694382683,40 L 158.55626157989448,40 L 158.59844462205754,40 L 160.0690809450133,40 L 160.10800259649085,40 L 160.15226432722267,40 L 161.61308063866383,40 L 161.65065831046329,40 L 161.6824837492405,40 L 163.1665777887062,40 L 163.20983601461174,40 L 164.715899641882,40 L 164.75471377498533,40 L 166.26436134806383,40 L 166.30292460496054,40 L 167.81223170318728,40 L 167.85041864577414,40 L 169.35503077499206,40 L 169.3903326412033,40 L 169.42113665542516,40 L 170.9114488408682,40 L 170.94716286084736,40 L 172.45727634688092,40 L 172.49517657380312,40 L 172.53590811791386,40 L 174.007583785154,40 L 174.04910379734253,40 L 175.55484486949004,40 L 175.59908868049283,40 L 177.1067113241897,40 L 177.15016666711466,40 L 178.66157037363922,40 L 178.69887924950305,40 L 180.2030254657659,40 L 180.247394714872,40 L 181.75127213519923,40 L 181.79340141817516,40 L 183.28856985018834,40 L 183.33333333333334,40" stroke="#22c55e" stroke-width="2" fill="none" stroke-dasharray="13900" stroke-dashoffset="13900">
      <animate attributeName="stroke-dashoffset" values="13900;0" dur="3s" begin="2.6s" fill="freeze"/>
    </path>
    
    <!-- Glow effect for the line that also follows the circle -->
    <path d="M 30,160 L 30.03680712345069,160 L 30.06768281658873,160 L 31.55634638695995,160 L 31.578083018286968,160 L 31.61716594732589,160 L 33.10645670821356,160 L 33.13912437425572,160 L 33.173548173743924,160 L 34.65692542404799,160 L 34.68681553208876,160 L 34.718479693304616,160 L 36.196015111941236,160 L 36.22848566096395,160 L 36.26086661134145,160 L 37.7490642687576,160 L 37.77945612921153,160 L 37.81418456409344,160 L 39.297812690604076,160 L 39.32578538763744,160 L 39.35666108077548,160 L 40.84720622269603,160 L 40.86713296138988,160 L 40.91605382167244,160 L 42.39283661168933,160 L 42.42299551566572,160 L 42.452742265874164,160 L 43.943968357498285,160 L 43.97821295969607,160 L 44.00937536849878,160 L 45.491480318040914,160 L 45.5216392220173,160 L 45.55640349635729,160 L 47.037630379176406,160 L 47.0672696110106,160 L 47.094274642675735,160 L 48.58824245284316,160 L 48.618867269774626,160 L 48.650405992887194,160 L 50.14116617155624,160 L 50.16998109585454,160 L 50.198401786113934,160 L 51.68362476850924,160 L 51.71442878273112,70 L 51.74652301744396,70 L 53.23767743015192,70 L 53.25905566689811,70 L 53.28853362117093,70 L 54.782071357841374,70 L 54.80597627638237,70 L 54.84839227502297,70 L 56.33218167909497,70 L 56.36366664302042,70 L 56.391316784931035,70 L 57.874174363092905,70 L 57.90866984149727,70 L 57.942448530739995,70 L 59.4319722481052,70 L 59.44723985724832,70 L 59.488616511604526,70 L 60.97713672414342,70 L 61.0097685507275,70 L 61.04662943336531,70 L 62.52552675140907,70 L 62.55627700644382,70 L 62.59568249060549,70 L 64.07140801660894,70 L 64.10411152210919,70 L 64.14226262523798,70 L 65.62825615598206,70 L 65.66468696512287,70 L 67.17057139510271,70 L 67.24717823675398,70 L 68.71908686047166,70 L 68.75716628468427,70 L 68.79331037816043,70 L 70.26697513532415,70 L 70.30709740864746,70 L 70.3347117111,70 L 71.81851903490104,70 L 71.85210060712433,70 L 71.88980371702706,70 L 73.36133602643488,70 L 73.39489967892911,70 L 73.43265654801897,70 L 74.91196601983067,70 L 74.94495624099558,70 L 74.98034770585201,70 L 76.46569612635062,70 L 76.50904395090134,70 L 78.04820531771077,70 L 78.08924149721517,70 L 79.56571965183836,70 L 79.59955210026821,70 L 81.11803409976403,70 L 81.14684902406233,70 L 81.19430046656352,70 L 82.6544358283011,70 L 82.68740812973698,70 L 82.7227099959482,70 L 84.20456406928375,70 L 84.24355739967747,70 L 84.28269408790352,70 L 85.75008693990281,70 L 85.78169734193153,70 L 85.82011724099593,70 L 87.29709714803228,70 L 87.33302620475993,70 L 87.379993814577,70 L 88.84057716954062,70 L 88.88146999121271,70 L 88.92105467266478,70 L 90.39599173059044,70 L 90.42889235311014,70 L 90.46645210518057,70 L 91.94422048029472,70 L 91.97751533685332,70 L 92.01589939645964,70 L 93.49047805980445,70 L 93.52907715615926,70 L 93.57066884726396,70 L 95.0403016653934,70 L 95.0710340006991,70 L 95.10807408062733,70 L 96.58992815396289,70 L 96.61750661695734,70 L 96.65517388740201,70 L 98.13432208165234,70 L 98.1696777070507,70 L 98.20872479663153,70 L 99.68364393482814,70 L 99.72116784744047,70 L 99.76107508401529,70 L 101.23606590112806,70 L 101.26321429062551,70 L 101.30204634345787,70 L 102.78304026979944,70 L 102.8196144367726,70 L 102.85222834362763,70 L 104.32662780968204,70 L 104.36010186353106,70 L 104.39864720069875,70 L 105.87220443948821,70 L 105.91281054549565,70 L 105.94995814379811,70 L 107.42390961662649,70 L 107.45455235328699,70 L 107.48895823304616,70 L 108.97832067284999,70 L 109.01571914735905,70 L 109.05781259087689,70 L 110.5253488007085,70 L 110.55875117564136,70 L 110.59215355057421,70 L 112.07011904270782,70 L 112.10721288182316,70 L 112.14369745015112,70 L 113.61177125185397,70 L 113.65205480273866,70 L 113.69040302288688,70 L 115.15879937971248,70 L 115.19906501086813,70 L 115.2432550626838,70 L 116.72154310994016,70 L 116.75356566573683,70 L 116.79497815955112,70 L 118.2659370376296,70 L 118.29360509926926,70 L 118.32867400900295,70 L 119.80981129317686,70 L 119.8464212996081,70 L 119.88355097818152,70 L 121.35884643068799,70 L 121.39081522729754,70 L 121.43215604219567,70 L 122.90677054499857,70 L 122.93893645862758,70 L 122.97703380256922,70 L 124.45551896684503,70 L 124.48703977022856,70 L 124.52117685405211,70 L 126.00208118174848,40 L 126.03191753060213,40 L 127.54910930960699,40 L 127.58554011874782,40 L 127.61994599850698,40 L 129.09895083492498,40 L 129.1240384555827,40 L 129.16674116988798,40 L 130.6556197770077,40 L 130.69346624474275,40 L 132.19632224051463,40 L 132.23574564440534,40 L 132.28721110621177,40 L 133.7468984747233,40 L 133.78547965134908,40 L 133.8092232923287,40 L 135.29718799326733,40 L 135.3330632908079,40 L 135.37089183881392,40 L 136.84638440833984,40 L 136.8805752513505,40 L 136.91933562526668,40 L 138.39298246270135,40 L 138.42371479800707,40 L 138.46234973381996,40 L 139.94110369403137,40 L 139.97361008251215,40 L 140.00554303966365,40 L 141.4888306913225,40 L 141.52596036989593,40 L 141.56703238885842,40 L 143.04017747387996,40 L 143.0766082830208,40 L 143.12113880968823,40 L 144.57903420529567,40 L 144.6163789206176,40 L 144.65931459140037,40 L 146.13443084661645,40 L 146.17007318767946,40 L 146.20680863221398,40 L 147.68360934195988,40 L 147.72534439089694,40 L 147.7695344427126,40 L 149.23242944272255,40 L 149.27009671316722,40 L 149.31649089165495,40 L 150.77779103578024,40 L 150.81723235939995,40 L 150.85368108826984,40 L 152.33239920902315,40 L 152.3683641052089,40 L 153.8840864664324,40 L 153.91700500868114,40 L 155.42643754501114,40 L 155.46369266168787,40 L 155.5079364726907,40 L 156.9726951245209,40 L 157.01973441325413,40 L 158.52425694382683,40 L 158.55626157989448,40 L 158.59844462205754,40 L 160.0690809450133,40 L 160.10800259649085,40 L 160.15226432722267,40 L 161.61308063866383,40 L 161.65065831046329,40 L 161.6824837492405,40 L 163.1665777887062,40 L 163.20983601461174,40 L 164.715899641882,40 L 164.75471377498533,40 L 166.26436134806383,40 L 166.30292460496054,40 L 167.81223170318728,40 L 167.85041864577414,40 L 169.35503077499206,40 L 169.3903326412033,40 L 169.42113665542516,40 L 170.9114488408682,40 L 170.94716286084736,40 L 172.45727634688092,40 L 172.49517657380312,40 L 172.53590811791386,40 L 174.007583785154,40 L 174.04910379734253,40 L 175.55484486949004,40 L 175.59908868049283,40 L 177.1067113241897,40 L 177.15016666711466,40 L 178.66157037363922,40 L 178.69887924950305,40 L 180.2030254657659,40 L 180.247394714872,40 L 181.75127213519923,40 L 181.79340141817516,40 L 183.28856985018834,40 L 183.33333333333334,40" stroke="#22c55e" stroke-width="4" fill="none" opacity="0.4" stroke-dasharray="13900" stroke-dashoffset="13900">
      <animate attributeName="stroke-dashoffset" values="13900;0" dur="3s" begin="2.6s" fill="freeze"/>
    </path>
    
    <!-- Animated circle that moves along the path and draws the line -->
    <circle r="5" fill="#22c55e" opacity="0" filter="url(#trailGlow)">
      <animate attributeName="opacity" values="0;1;1;1" dur="3.2s" begin="2.4s" fill="freeze"/>
      <animate attributeName="r" values="5;6;5" dur="1s" begin="2.4s" repeatCount="3"/>
      <animateMotion dur="3s" begin="2.4s" fill="freeze">
        <mpath href="#path_followersCount_60"/>
      </animateMotion>
    </circle>
    
    <!-- Small trail dots that fade out -->
    <circle r="2" fill="#22c55e" opacity="0">
      <animate attributeName="opacity" values="0;0.6;0" dur="0.8s" begin="2.8s" fill="freeze"/>
      <animateMotion dur="3s" begin="2.4s" fill="freeze">
        <mpath href="#path_followersCount_60"/>
      </animateMotion>
    </circle>
    
    <!-- Hidden path for motion animation -->
    <path id="path_followersCount_60" d="M 30,160 L 30.03680712345069,160 L 30.06768281658873,160 L 31.55634638695995,160 L 31.578083018286968,160 L 31.61716594732589,160 L 33.10645670821356,160 L 33.13912437425572,160 L 33.173548173743924,160 L 34.65692542404799,160 L 34.68681553208876,160 L 34.718479693304616,160 L 36.196015111941236,160 L 36.22848566096395,160 L 36.26086661134145,160 L 37.7490642687576,160 L 37.77945612921153,160 L 37.81418456409344,160 L 39.297812690604076,160 L 39.32578538763744,160 L 39.35666108077548,160 L 40.84720622269603,160 L 40.86713296138988,160 L 40.91605382167244,160 L 42.39283661168933,160 L 42.42299551566572,160 L 42.452742265874164,160 L 43.943968357498285,160 L 43.97821295969607,160 L 44.00937536849878,160 L 45.491480318040914,160 L 45.5216392220173,160 L 45.55640349635729,160 L 47.037630379176406,160 L 47.0672696110106,160 L 47.094274642675735,160 L 48.58824245284316,160 L 48.618867269774626,160 L 48.650405992887194,160 L 50.14116617155624,160 L 50.16998109585454,160 L 50.198401786113934,160 L 51.68362476850924,160 L 51.71442878273112,70 L 51.74652301744396,70 L 53.23767743015192,70 L 53.25905566689811,70 L 53.28853362117093,70 L 54.782071357841374,70 L 54.80597627638237,70 L 54.84839227502297,70 L 56.33218167909497,70 L 56.36366664302042,70 L 56.391316784931035,70 L 57.874174363092905,70 L 57.90866984149727,70 L 57.942448530739995,70 L 59.4319722481052,70 L 59.44723985724832,70 L 59.488616511604526,70 L 60.97713672414342,70 L 61.0097685507275,70 L 61.04662943336531,70 L 62.52552675140907,70 L 62.55627700644382,70 L 62.59568249060549,70 L 64.07140801660894,70 L 64.10411152210919,70 L 64.14226262523798,70 L 65.62825615598206,70 L 65.66468696512287,70 L 67.17057139510271,70 L 67.24717823675398,70 L 68.71908686047166,70 L 68.75716628468427,70 L 68.79331037816043,70 L 70.26697513532415,70 L 70.30709740864746,70 L 70.3347117111,70 L 71.81851903490104,70 L 71.85210060712433,70 L 71.88980371702706,70 L 73.36133602643488,70 L 73.39489967892911,70 L 73.43265654801897,70 L 74.91196601983067,70 L 74.94495624099558,70 L 74.98034770585201,70 L 76.46569612635062,70 L 76.50904395090134,70 L 78.04820531771077,70 L 78.08924149721517,70 L 79.56571965183836,70 L 79.59955210026821,70 L 81.11803409976403,70 L 81.14684902406233,70 L 81.19430046656352,70 L 82.6544358283011,70 L 82.68740812973698,70 L 82.7227099959482,70 L 84.20456406928375,70 L 84.24355739967747,70 L 84.28269408790352,70 L 85.75008693990281,70 L 85.78169734193153,70 L 85.82011724099593,70 L 87.29709714803228,70 L 87.33302620475993,70 L 87.379993814577,70 L 88.84057716954062,70 L 88.88146999121271,70 L 88.92105467266478,70 L 90.39599173059044,70 L 90.42889235311014,70 L 90.46645210518057,70 L 91.94422048029472,70 L 91.97751533685332,70 L 92.01589939645964,70 L 93.49047805980445,70 L 93.52907715615926,70 L 93.57066884726396,70 L 95.0403016653934,70 L 95.0710340006991,70 L 95.10807408062733,70 L 96.58992815396289,70 L 96.61750661695734,70 L 96.65517388740201,70 L 98.13432208165234,70 L 98.1696777070507,70 L 98.20872479663153,70 L 99.68364393482814,70 L 99.72116784744047,70 L 99.76107508401529,70 L 101.23606590112806,70 L 101.26321429062551,70 L 101.30204634345787,70 L 102.78304026979944,70 L 102.8196144367726,70 L 102.85222834362763,70 L 104.32662780968204,70 L 104.36010186353106,70 L 104.39864720069875,70 L 105.87220443948821,70 L 105.91281054549565,70 L 105.94995814379811,70 L 107.42390961662649,70 L 107.45455235328699,70 L 107.48895823304616,70 L 108.97832067284999,70 L 109.01571914735905,70 L 109.05781259087689,70 L 110.5253488007085,70 L 110.55875117564136,70 L 110.59215355057421,70 L 112.07011904270782,70 L 112.10721288182316,70 L 112.14369745015112,70 L 113.61177125185397,70 L 113.65205480273866,70 L 113.69040302288688,70 L 115.15879937971248,70 L 115.19906501086813,70 L 115.2432550626838,70 L 116.72154310994016,70 L 116.75356566573683,70 L 116.79497815955112,70 L 118.2659370376296,70 L 118.29360509926926,70 L 118.32867400900295,70 L 119.80981129317686,70 L 119.8464212996081,70 L 119.88355097818152,70 L 121.35884643068799,70 L 121.39081522729754,70 L 121.43215604219567,70 L 122.90677054499857,70 L 122.93893645862758,70 L 122.97703380256922,70 L 124.45551896684503,70 L 124.48703977022856,70 L 124.52117685405211,70 L 126.00208118174848,40 L 126.03191753060213,40 L 127.54910930960699,40 L 127.58554011874782,40 L 127.61994599850698,40 L 129.09895083492498,40 L 129.1240384555827,40 L 129.16674116988798,40 L 130.6556197770077,40 L 130.69346624474275,40 L 132.19632224051463,40 L 132.23574564440534,40 L 132.28721110621177,40 L 133.7468984747233,40 L 133.78547965134908,40 L 133.8092232923287,40 L 135.29718799326733,40 L 135.3330632908079,40 L 135.37089183881392,40 L 136.84638440833984,40 L 136.8805752513505,40 L 136.91933562526668,40 L 138.39298246270135,40 L 138.42371479800707,40 L 138.46234973381996,40 L 139.94110369403137,40 L 139.97361008251215,40 L 140.00554303966365,40 L 141.4888306913225,40 L 141.52596036989593,40 L 141.56703238885842,40 L 143.04017747387996,40 L 143.0766082830208,40 L 143.12113880968823,40 L 144.57903420529567,40 L 144.6163789206176,40 L 144.65931459140037,40 L 146.13443084661645,40 L 146.17007318767946,40 L 146.20680863221398,40 L 147.68360934195988,40 L 147.72534439089694,40 L 147.7695344427126,40 L 149.23242944272255,40 L 149.27009671316722,40 L 149.31649089165495,40 L 150.77779103578024,40 L 150.81723235939995,40 L 150.85368108826984,40 L 152.33239920902315,40 L 152.3683641052089,40 L 153.8840864664324,40 L 153.91700500868114,40 L 155.42643754501114,40 L 155.46369266168787,40 L 155.5079364726907,40 L 156.9726951245209,40 L 157.01973441325413,40 L 158.52425694382683,40 L 158.55626157989448,40 L 158.59844462205754,40 L 160.0690809450133,40 L 160.10800259649085,40 L 160.15226432722267,40 L 161.61308063866383,40 L 161.65065831046329,40 L 161.6824837492405,40 L 163.1665777887062,40 L 163.20983601461174,40 L 164.715899641882,40 L 164.75471377498533,40 L 166.26436134806383,40 L 166.30292460496054,40 L 167.81223170318728,40 L 167.85041864577414,40 L 169.35503077499206,40 L 169.3903326412033,40 L 169.42113665542516,40 L 170.9114488408682,40 L 170.94716286084736,40 L 172.45727634688092,40 L 172.49517657380312,40 L 172.53590811791386,40 L 174.007583785154,40 L 174.04910379734253,40 L 175.55484486949004,40 L 175.59908868049283,40 L 177.1067113241897,40 L 177.15016666711466,40 L 178.66157037363922,40 L 178.69887924950305,40 L 180.2030254657659,40 L 180.247394714872,40 L 181.75127213519923,40 L 181.79340141817516,40 L 183.28856985018834,40 L 183.33333333333334,40" fill="none" stroke="none"/>
  </g>
  <!-- 🔓 Public Contributions Chart -->
  <g transform="translate(293.33333333333337, 250)">
    <!-- Chart Background -->
    <rect x="0" y="0" width="213.33333333333334" height="200" fill="#0f172a" stroke="#334155" stroke-width="1" rx="8" filter="url(#shadow)">
      <animate attributeName="opacity" values="0;1" dur="0.5s" begin="2.3s" fill="freeze"/>
    </rect>
    
    <!-- Chart Title -->
    <text x="106.66666666666667" y="25" text-anchor="middle" fill="#f8fafc" font-size="14" font-weight="bold" font-family="Arial, sans-serif">
      🔓 Public Contributions
      <animate attributeName="opacity" values="0;1" dur="0.5s" begin="2.5s" fill="freeze"/>
    </text>
    
    <!-- Y-axis labels -->
    <text x="10" y="45" fill="#94a3b8" font-size="10" font-family="Arial, sans-serif">3,861
      <animate attributeName="opacity" values="0;1" dur="0.5s" begin="2.6999999999999997s" fill="freeze"/>
    </text>
    <text x="10" y="185" fill="#94a3b8" font-size="10" font-family="Arial, sans-serif">3,434
      <animate attributeName="opacity" values="0;1" dur="0.5s" begin="2.6999999999999997s" fill="freeze"/>
    </text>
    
    <!-- Chart Line with draw animation that follows the circle -->
    <path d="M 30,160 L 30.03680712345069,160 L 30.06768281658873,160 L 31.55634638695995,160 L 31.578083018286968,160 L 31.61716594732589,160 L 33.10645670821356,160 L 33.13912437425572,160 L 33.173548173743924,160 L 34.65692542404799,160 L 34.68681553208876,160 L 34.718479693304616,160 L 36.196015111941236,160 L 36.22848566096395,160 L 36.26086661134145,160 L 37.7490642687576,160 L 37.77945612921153,160 L 37.81418456409344,160 L 39.297812690604076,160 L 39.32578538763744,160 L 39.35666108077548,160 L 40.84720622269603,160 L 40.86713296138988,160 L 40.91605382167244,160 L 42.39283661168933,160 L 42.42299551566572,160 L 42.452742265874164,160 L 43.943968357498285,160 L 43.97821295969607,160 L 44.00937536849878,160 L 45.491480318040914,160 L 45.5216392220173,160 L 45.55640349635729,160 L 47.037630379176406,160 L 47.0672696110106,160 L 47.094274642675735,160 L 48.58824245284316,160 L 48.618867269774626,160 L 48.650405992887194,160 L 50.14116617155624,160 L 50.16998109585454,160 L 50.198401786113934,160 L 51.68362476850924,160 L 51.71442878273112,40 L 51.74652301744396,40 L 53.23767743015192,40 L 53.25905566689811,40 L 53.28853362117093,40 L 54.782071357841374,40 L 54.80597627638237,40 L 54.84839227502297,40 L 56.33218167909497,40 L 56.36366664302042,40 L 56.391316784931035,40 L 57.874174363092905,40 L 57.90866984149727,40 L 57.942448530739995,40 L 59.4319722481052,40 L 59.44723985724832,40 L 59.488616511604526,40 L 60.97713672414342,40 L 61.0097685507275,40 L 61.04662943336531,40 L 62.52552675140907,40 L 62.55627700644382,40 L 62.59568249060549,40 L 64.07140801660894,40 L 64.10411152210919,40 L 64.14226262523798,40 L 65.62825615598206,40 L 65.66468696512287,40 L 67.17057139510271,40 L 67.24717823675398,40 L 68.71908686047166,40 L 68.75716628468427,40 L 68.79331037816043,40 L 70.26697513532415,40 L 70.30709740864746,40 L 70.3347117111,40 L 71.81851903490104,40 L 71.85210060712433,40 L 71.88980371702706,40 L 73.36133602643488,40 L 73.39489967892911,40 L 73.43265654801897,40 L 74.91196601983067,40 L 74.94495624099558,40 L 74.98034770585201,40 L 76.46569612635062,40 L 76.50904395090134,40 L 78.04820531771077,40 L 78.08924149721517,40 L 79.56571965183836,40 L 79.59955210026821,40 L 81.11803409976403,40 L 81.14684902406233,40 L 81.19430046656352,40 L 82.6544358283011,40 L 82.68740812973698,40 L 82.7227099959482,40 L 84.20456406928375,40 L 84.24355739967747,40 L 84.28269408790352,40 L 85.75008693990281,40 L 85.78169734193153,40 L 85.82011724099593,40 L 87.29709714803228,40 L 87.33302620475993,40 L 87.379993814577,40 L 88.84057716954062,40 L 88.88146999121271,40 L 88.92105467266478,40 L 90.39599173059044,40 L 90.42889235311014,40 L 90.46645210518057,40 L 91.94422048029472,40 L 91.97751533685332,40 L 92.01589939645964,40 L 93.49047805980445,40 L 93.52907715615926,40 L 93.57066884726396,40 L 95.0403016653934,40 L 95.0710340006991,40 L 95.10807408062733,40 L 96.58992815396289,40 L 96.61750661695734,40 L 96.65517388740201,40 L 98.13432208165234,40 L 98.1696777070507,40 L 98.20872479663153,40 L 99.68364393482814,40 L 99.72116784744047,40 L 99.76107508401529,40 L 101.23606590112806,40 L 101.26321429062551,40 L 101.30204634345787,40 L 102.78304026979944,40 L 102.8196144367726,40 L 102.85222834362763,40 L 104.32662780968204,40 L 104.36010186353106,40 L 104.39864720069875,40 L 105.87220443948821,40 L 105.91281054549565,40 L 105.94995814379811,40 L 107.42390961662649,40 L 107.45455235328699,40 L 107.48895823304616,40 L 108.97832067284999,40 L 109.01571914735905,40 L 109.05781259087689,40 L 110.5253488007085,40 L 110.55875117564136,40 L 110.59215355057421,40 L 112.07011904270782,40 L 112.10721288182316,40 L 112.14369745015112,40 L 113.61177125185397,40 L 113.65205480273866,40 L 113.69040302288688,40 L 115.15879937971248,40 L 115.19906501086813,40 L 115.2432550626838,40 L 116.72154310994016,40 L 116.75356566573683,40 L 116.79497815955112,40 L 118.2659370376296,40 L 118.29360509926926,40 L 118.32867400900295,40 L 119.80981129317686,40 L 119.8464212996081,40 L 119.88355097818152,40 L 121.35884643068799,40 L 121.39081522729754,40 L 121.43215604219567,40 L 122.90677054499857,40 L 122.93893645862758,40 L 122.97703380256922,40 L 124.45551896684503,40 L 124.48703977022856,40 L 124.52117685405211,40 L 126.00208118174848,66.4168618266979 L 126.03191753060213,66.4168618266979 L 127.54910930960699,66.4168618266979 L 127.58554011874782,66.4168618266979 L 127.61994599850698,66.4168618266979 L 129.09895083492498,66.4168618266979 L 129.1240384555827,66.4168618266979 L 129.16674116988798,66.4168618266979 L 130.6556197770077,66.4168618266979 L 130.69346624474275,66.4168618266979 L 132.19632224051463,66.4168618266979 L 132.23574564440534,66.4168618266979 L 132.28721110621177,66.4168618266979 L 133.7468984747233,66.4168618266979 L 133.78547965134908,66.4168618266979 L 133.8092232923287,66.4168618266979 L 135.29718799326733,66.4168618266979 L 135.3330632908079,66.4168618266979 L 135.37089183881392,66.4168618266979 L 136.84638440833984,66.4168618266979 L 136.8805752513505,66.4168618266979 L 136.91933562526668,66.4168618266979 L 138.39298246270135,66.4168618266979 L 138.42371479800707,66.4168618266979 L 138.46234973381996,66.4168618266979 L 139.94110369403137,66.4168618266979 L 139.97361008251215,66.4168618266979 L 140.00554303966365,66.4168618266979 L 141.4888306913225,66.4168618266979 L 141.52596036989593,66.4168618266979 L 141.56703238885842,66.4168618266979 L 143.04017747387996,66.4168618266979 L 143.0766082830208,66.4168618266979 L 143.12113880968823,66.4168618266979 L 144.57903420529567,66.4168618266979 L 144.6163789206176,66.4168618266979 L 144.65931459140037,66.4168618266979 L 146.13443084661645,66.4168618266979 L 146.17007318767946,66.4168618266979 L 146.20680863221398,66.4168618266979 L 147.68360934195988,66.4168618266979 L 147.72534439089694,66.4168618266979 L 147.7695344427126,66.4168618266979 L 149.23242944272255,66.4168618266979 L 149.27009671316722,66.4168618266979 L 149.31649089165495,66.4168618266979 L 150.77779103578024,66.4168618266979 L 150.81723235939995,66.4168618266979 L 150.85368108826984,66.4168618266979 L 152.33239920902315,66.4168618266979 L 152.3683641052089,66.4168618266979 L 153.8840864664324,66.4168618266979 L 153.91700500868114,66.4168618266979 L 155.42643754501114,66.4168618266979 L 155.46369266168787,66.4168618266979 L 155.5079364726907,66.4168618266979 L 156.9726951245209,66.4168618266979 L 157.01973441325413,66.4168618266979 L 158.52425694382683,66.4168618266979 L 158.55626157989448,66.4168618266979 L 158.59844462205754,66.4168618266979 L 160.0690809450133,66.4168618266979 L 160.10800259649085,66.4168618266979 L 160.15226432722267,66.4168618266979 L 161.61308063866383,66.4168618266979 L 161.65065831046329,66.4168618266979 L 161.6824837492405,66.4168618266979 L 163.1665777887062,66.4168618266979 L 163.20983601461174,66.4168618266979 L 164.715899641882,66.4168618266979 L 164.75471377498533,66.4168618266979 L 166.26436134806383,66.4168618266979 L 166.30292460496054,66.4168618266979 L 167.81223170318728,66.4168618266979 L 167.85041864577414,66.4168618266979 L 169.35503077499206,66.4168618266979 L 169.3903326412033,66.4168618266979 L 169.42113665542516,66.4168618266979 L 170.9114488408682,66.4168618266979 L 170.94716286084736,66.4168618266979 L 172.45727634688092,66.4168618266979 L 172.49517657380312,66.4168618266979 L 172.53590811791386,66.4168618266979 L 174.007583785154,66.4168618266979 L 174.04910379734253,66.4168618266979 L 175.55484486949004,66.4168618266979 L 175.59908868049283,66.4168618266979 L 177.1067113241897,66.4168618266979 L 177.15016666711466,66.4168618266979 L 178.66157037363922,66.4168618266979 L 178.69887924950305,66.4168618266979 L 180.2030254657659,66.4168618266979 L 180.247394714872,66.4168618266979 L 181.75127213519923,66.4168618266979 L 181.79340141817516,66.4168618266979 L 183.28856985018834,66.4168618266979 L 183.33333333333334,66.4168618266979" stroke="#3b82f6" stroke-width="2" fill="none" stroke-dasharray="13900" stroke-dashoffset="13900">
      <animate attributeName="stroke-dashoffset" values="13900;0" dur="3s" begin="3.0999999999999996s" fill="freeze"/>
    </path>
    
    <!-- Glow effect for the line that also follows the circle -->
    <path d="M 30,160 L 30.03680712345069,160 L 30.06768281658873,160 L 31.55634638695995,160 L 31.578083018286968,160 L 31.61716594732589,160 L 33.10645670821356,160 L 33.13912437425572,160 L 33.173548173743924,160 L 34.65692542404799,160 L 34.68681553208876,160 L 34.718479693304616,160 L 36.196015111941236,160 L 36.22848566096395,160 L 36.26086661134145,160 L 37.7490642687576,160 L 37.77945612921153,160 L 37.81418456409344,160 L 39.297812690604076,160 L 39.32578538763744,160 L 39.35666108077548,160 L 40.84720622269603,160 L 40.86713296138988,160 L 40.91605382167244,160 L 42.39283661168933,160 L 42.42299551566572,160 L 42.452742265874164,160 L 43.943968357498285,160 L 43.97821295969607,160 L 44.00937536849878,160 L 45.491480318040914,160 L 45.5216392220173,160 L 45.55640349635729,160 L 47.037630379176406,160 L 47.0672696110106,160 L 47.094274642675735,160 L 48.58824245284316,160 L 48.618867269774626,160 L 48.650405992887194,160 L 50.14116617155624,160 L 50.16998109585454,160 L 50.198401786113934,160 L 51.68362476850924,160 L 51.71442878273112,40 L 51.74652301744396,40 L 53.23767743015192,40 L 53.25905566689811,40 L 53.28853362117093,40 L 54.782071357841374,40 L 54.80597627638237,40 L 54.84839227502297,40 L 56.33218167909497,40 L 56.36366664302042,40 L 56.391316784931035,40 L 57.874174363092905,40 L 57.90866984149727,40 L 57.942448530739995,40 L 59.4319722481052,40 L 59.44723985724832,40 L 59.488616511604526,40 L 60.97713672414342,40 L 61.0097685507275,40 L 61.04662943336531,40 L 62.52552675140907,40 L 62.55627700644382,40 L 62.59568249060549,40 L 64.07140801660894,40 L 64.10411152210919,40 L 64.14226262523798,40 L 65.62825615598206,40 L 65.66468696512287,40 L 67.17057139510271,40 L 67.24717823675398,40 L 68.71908686047166,40 L 68.75716628468427,40 L 68.79331037816043,40 L 70.26697513532415,40 L 70.30709740864746,40 L 70.3347117111,40 L 71.81851903490104,40 L 71.85210060712433,40 L 71.88980371702706,40 L 73.36133602643488,40 L 73.39489967892911,40 L 73.43265654801897,40 L 74.91196601983067,40 L 74.94495624099558,40 L 74.98034770585201,40 L 76.46569612635062,40 L 76.50904395090134,40 L 78.04820531771077,40 L 78.08924149721517,40 L 79.56571965183836,40 L 79.59955210026821,40 L 81.11803409976403,40 L 81.14684902406233,40 L 81.19430046656352,40 L 82.6544358283011,40 L 82.68740812973698,40 L 82.7227099959482,40 L 84.20456406928375,40 L 84.24355739967747,40 L 84.28269408790352,40 L 85.75008693990281,40 L 85.78169734193153,40 L 85.82011724099593,40 L 87.29709714803228,40 L 87.33302620475993,40 L 87.379993814577,40 L 88.84057716954062,40 L 88.88146999121271,40 L 88.92105467266478,40 L 90.39599173059044,40 L 90.42889235311014,40 L 90.46645210518057,40 L 91.94422048029472,40 L 91.97751533685332,40 L 92.01589939645964,40 L 93.49047805980445,40 L 93.52907715615926,40 L 93.57066884726396,40 L 95.0403016653934,40 L 95.0710340006991,40 L 95.10807408062733,40 L 96.58992815396289,40 L 96.61750661695734,40 L 96.65517388740201,40 L 98.13432208165234,40 L 98.1696777070507,40 L 98.20872479663153,40 L 99.68364393482814,40 L 99.72116784744047,40 L 99.76107508401529,40 L 101.23606590112806,40 L 101.26321429062551,40 L 101.30204634345787,40 L 102.78304026979944,40 L 102.8196144367726,40 L 102.85222834362763,40 L 104.32662780968204,40 L 104.36010186353106,40 L 104.39864720069875,40 L 105.87220443948821,40 L 105.91281054549565,40 L 105.94995814379811,40 L 107.42390961662649,40 L 107.45455235328699,40 L 107.48895823304616,40 L 108.97832067284999,40 L 109.01571914735905,40 L 109.05781259087689,40 L 110.5253488007085,40 L 110.55875117564136,40 L 110.59215355057421,40 L 112.07011904270782,40 L 112.10721288182316,40 L 112.14369745015112,40 L 113.61177125185397,40 L 113.65205480273866,40 L 113.69040302288688,40 L 115.15879937971248,40 L 115.19906501086813,40 L 115.2432550626838,40 L 116.72154310994016,40 L 116.75356566573683,40 L 116.79497815955112,40 L 118.2659370376296,40 L 118.29360509926926,40 L 118.32867400900295,40 L 119.80981129317686,40 L 119.8464212996081,40 L 119.88355097818152,40 L 121.35884643068799,40 L 121.39081522729754,40 L 121.43215604219567,40 L 122.90677054499857,40 L 122.93893645862758,40 L 122.97703380256922,40 L 124.45551896684503,40 L 124.48703977022856,40 L 124.52117685405211,40 L 126.00208118174848,66.4168618266979 L 126.03191753060213,66.4168618266979 L 127.54910930960699,66.4168618266979 L 127.58554011874782,66.4168618266979 L 127.61994599850698,66.4168618266979 L 129.09895083492498,66.4168618266979 L 129.1240384555827,66.4168618266979 L 129.16674116988798,66.4168618266979 L 130.6556197770077,66.4168618266979 L 130.69346624474275,66.4168618266979 L 132.19632224051463,66.4168618266979 L 132.23574564440534,66.4168618266979 L 132.28721110621177,66.4168618266979 L 133.7468984747233,66.4168618266979 L 133.78547965134908,66.4168618266979 L 133.8092232923287,66.4168618266979 L 135.29718799326733,66.4168618266979 L 135.3330632908079,66.4168618266979 L 135.37089183881392,66.4168618266979 L 136.84638440833984,66.4168618266979 L 136.8805752513505,66.4168618266979 L 136.91933562526668,66.4168618266979 L 138.39298246270135,66.4168618266979 L 138.42371479800707,66.4168618266979 L 138.46234973381996,66.4168618266979 L 139.94110369403137,66.4168618266979 L 139.97361008251215,66.4168618266979 L 140.00554303966365,66.4168618266979 L 141.4888306913225,66.4168618266979 L 141.52596036989593,66.4168618266979 L 141.56703238885842,66.4168618266979 L 143.04017747387996,66.4168618266979 L 143.0766082830208,66.4168618266979 L 143.12113880968823,66.4168618266979 L 144.57903420529567,66.4168618266979 L 144.6163789206176,66.4168618266979 L 144.65931459140037,66.4168618266979 L 146.13443084661645,66.4168618266979 L 146.17007318767946,66.4168618266979 L 146.20680863221398,66.4168618266979 L 147.68360934195988,66.4168618266979 L 147.72534439089694,66.4168618266979 L 147.7695344427126,66.4168618266979 L 149.23242944272255,66.4168618266979 L 149.27009671316722,66.4168618266979 L 149.31649089165495,66.4168618266979 L 150.77779103578024,66.4168618266979 L 150.81723235939995,66.4168618266979 L 150.85368108826984,66.4168618266979 L 152.33239920902315,66.4168618266979 L 152.3683641052089,66.4168618266979 L 153.8840864664324,66.4168618266979 L 153.91700500868114,66.4168618266979 L 155.42643754501114,66.4168618266979 L 155.46369266168787,66.4168618266979 L 155.5079364726907,66.4168618266979 L 156.9726951245209,66.4168618266979 L 157.01973441325413,66.4168618266979 L 158.52425694382683,66.4168618266979 L 158.55626157989448,66.4168618266979 L 158.59844462205754,66.4168618266979 L 160.0690809450133,66.4168618266979 L 160.10800259649085,66.4168618266979 L 160.15226432722267,66.4168618266979 L 161.61308063866383,66.4168618266979 L 161.65065831046329,66.4168618266979 L 161.6824837492405,66.4168618266979 L 163.1665777887062,66.4168618266979 L 163.20983601461174,66.4168618266979 L 164.715899641882,66.4168618266979 L 164.75471377498533,66.4168618266979 L 166.26436134806383,66.4168618266979 L 166.30292460496054,66.4168618266979 L 167.81223170318728,66.4168618266979 L 167.85041864577414,66.4168618266979 L 169.35503077499206,66.4168618266979 L 169.3903326412033,66.4168618266979 L 169.42113665542516,66.4168618266979 L 170.9114488408682,66.4168618266979 L 170.94716286084736,66.4168618266979 L 172.45727634688092,66.4168618266979 L 172.49517657380312,66.4168618266979 L 172.53590811791386,66.4168618266979 L 174.007583785154,66.4168618266979 L 174.04910379734253,66.4168618266979 L 175.55484486949004,66.4168618266979 L 175.59908868049283,66.4168618266979 L 177.1067113241897,66.4168618266979 L 177.15016666711466,66.4168618266979 L 178.66157037363922,66.4168618266979 L 178.69887924950305,66.4168618266979 L 180.2030254657659,66.4168618266979 L 180.247394714872,66.4168618266979 L 181.75127213519923,66.4168618266979 L 181.79340141817516,66.4168618266979 L 183.28856985018834,66.4168618266979 L 183.33333333333334,66.4168618266979" stroke="#3b82f6" stroke-width="4" fill="none" opacity="0.4" stroke-dasharray="13900" stroke-dashoffset="13900">
      <animate attributeName="stroke-dashoffset" values="13900;0" dur="3s" begin="3.0999999999999996s" fill="freeze"/>
    </path>
    
    <!-- Animated circle that moves along the path and draws the line -->
    <circle r="5" fill="#3b82f6" opacity="0" filter="url(#trailGlow)">
      <animate attributeName="opacity" values="0;1;1;1" dur="3.2s" begin="2.9s" fill="freeze"/>
      <animate attributeName="r" values="5;6;5" dur="1s" begin="2.9s" repeatCount="3"/>
      <animateMotion dur="3s" begin="2.9s" fill="freeze">
        <mpath href="#path_publicContributions_293.33333333333337"/>
      </animateMotion>
    </circle>
    
    <!-- Small trail dots that fade out -->
    <circle r="2" fill="#3b82f6" opacity="0">
      <animate attributeName="opacity" values="0;0.6;0" dur="0.8s" begin="3.3s" fill="freeze"/>
      <animateMotion dur="3s" begin="2.9s" fill="freeze">
        <mpath href="#path_publicContributions_293.33333333333337"/>
      </animateMotion>
    </circle>
    
    <!-- Hidden path for motion animation -->
    <path id="path_publicContributions_293.33333333333337" d="M 30,160 L 30.03680712345069,160 L 30.06768281658873,160 L 31.55634638695995,160 L 31.578083018286968,160 L 31.61716594732589,160 L 33.10645670821356,160 L 33.13912437425572,160 L 33.173548173743924,160 L 34.65692542404799,160 L 34.68681553208876,160 L 34.718479693304616,160 L 36.196015111941236,160 L 36.22848566096395,160 L 36.26086661134145,160 L 37.7490642687576,160 L 37.77945612921153,160 L 37.81418456409344,160 L 39.297812690604076,160 L 39.32578538763744,160 L 39.35666108077548,160 L 40.84720622269603,160 L 40.86713296138988,160 L 40.91605382167244,160 L 42.39283661168933,160 L 42.42299551566572,160 L 42.452742265874164,160 L 43.943968357498285,160 L 43.97821295969607,160 L 44.00937536849878,160 L 45.491480318040914,160 L 45.5216392220173,160 L 45.55640349635729,160 L 47.037630379176406,160 L 47.0672696110106,160 L 47.094274642675735,160 L 48.58824245284316,160 L 48.618867269774626,160 L 48.650405992887194,160 L 50.14116617155624,160 L 50.16998109585454,160 L 50.198401786113934,160 L 51.68362476850924,160 L 51.71442878273112,40 L 51.74652301744396,40 L 53.23767743015192,40 L 53.25905566689811,40 L 53.28853362117093,40 L 54.782071357841374,40 L 54.80597627638237,40 L 54.84839227502297,40 L 56.33218167909497,40 L 56.36366664302042,40 L 56.391316784931035,40 L 57.874174363092905,40 L 57.90866984149727,40 L 57.942448530739995,40 L 59.4319722481052,40 L 59.44723985724832,40 L 59.488616511604526,40 L 60.97713672414342,40 L 61.0097685507275,40 L 61.04662943336531,40 L 62.52552675140907,40 L 62.55627700644382,40 L 62.59568249060549,40 L 64.07140801660894,40 L 64.10411152210919,40 L 64.14226262523798,40 L 65.62825615598206,40 L 65.66468696512287,40 L 67.17057139510271,40 L 67.24717823675398,40 L 68.71908686047166,40 L 68.75716628468427,40 L 68.79331037816043,40 L 70.26697513532415,40 L 70.30709740864746,40 L 70.3347117111,40 L 71.81851903490104,40 L 71.85210060712433,40 L 71.88980371702706,40 L 73.36133602643488,40 L 73.39489967892911,40 L 73.43265654801897,40 L 74.91196601983067,40 L 74.94495624099558,40 L 74.98034770585201,40 L 76.46569612635062,40 L 76.50904395090134,40 L 78.04820531771077,40 L 78.08924149721517,40 L 79.56571965183836,40 L 79.59955210026821,40 L 81.11803409976403,40 L 81.14684902406233,40 L 81.19430046656352,40 L 82.6544358283011,40 L 82.68740812973698,40 L 82.7227099959482,40 L 84.20456406928375,40 L 84.24355739967747,40 L 84.28269408790352,40 L 85.75008693990281,40 L 85.78169734193153,40 L 85.82011724099593,40 L 87.29709714803228,40 L 87.33302620475993,40 L 87.379993814577,40 L 88.84057716954062,40 L 88.88146999121271,40 L 88.92105467266478,40 L 90.39599173059044,40 L 90.42889235311014,40 L 90.46645210518057,40 L 91.94422048029472,40 L 91.97751533685332,40 L 92.01589939645964,40 L 93.49047805980445,40 L 93.52907715615926,40 L 93.57066884726396,40 L 95.0403016653934,40 L 95.0710340006991,40 L 95.10807408062733,40 L 96.58992815396289,40 L 96.61750661695734,40 L 96.65517388740201,40 L 98.13432208165234,40 L 98.1696777070507,40 L 98.20872479663153,40 L 99.68364393482814,40 L 99.72116784744047,40 L 99.76107508401529,40 L 101.23606590112806,40 L 101.26321429062551,40 L 101.30204634345787,40 L 102.78304026979944,40 L 102.8196144367726,40 L 102.85222834362763,40 L 104.32662780968204,40 L 104.36010186353106,40 L 104.39864720069875,40 L 105.87220443948821,40 L 105.91281054549565,40 L 105.94995814379811,40 L 107.42390961662649,40 L 107.45455235328699,40 L 107.48895823304616,40 L 108.97832067284999,40 L 109.01571914735905,40 L 109.05781259087689,40 L 110.5253488007085,40 L 110.55875117564136,40 L 110.59215355057421,40 L 112.07011904270782,40 L 112.10721288182316,40 L 112.14369745015112,40 L 113.61177125185397,40 L 113.65205480273866,40 L 113.69040302288688,40 L 115.15879937971248,40 L 115.19906501086813,40 L 115.2432550626838,40 L 116.72154310994016,40 L 116.75356566573683,40 L 116.79497815955112,40 L 118.2659370376296,40 L 118.29360509926926,40 L 118.32867400900295,40 L 119.80981129317686,40 L 119.8464212996081,40 L 119.88355097818152,40 L 121.35884643068799,40 L 121.39081522729754,40 L 121.43215604219567,40 L 122.90677054499857,40 L 122.93893645862758,40 L 122.97703380256922,40 L 124.45551896684503,40 L 124.48703977022856,40 L 124.52117685405211,40 L 126.00208118174848,66.4168618266979 L 126.03191753060213,66.4168618266979 L 127.54910930960699,66.4168618266979 L 127.58554011874782,66.4168618266979 L 127.61994599850698,66.4168618266979 L 129.09895083492498,66.4168618266979 L 129.1240384555827,66.4168618266979 L 129.16674116988798,66.4168618266979 L 130.6556197770077,66.4168618266979 L 130.69346624474275,66.4168618266979 L 132.19632224051463,66.4168618266979 L 132.23574564440534,66.4168618266979 L 132.28721110621177,66.4168618266979 L 133.7468984747233,66.4168618266979 L 133.78547965134908,66.4168618266979 L 133.8092232923287,66.4168618266979 L 135.29718799326733,66.4168618266979 L 135.3330632908079,66.4168618266979 L 135.37089183881392,66.4168618266979 L 136.84638440833984,66.4168618266979 L 136.8805752513505,66.4168618266979 L 136.91933562526668,66.4168618266979 L 138.39298246270135,66.4168618266979 L 138.42371479800707,66.4168618266979 L 138.46234973381996,66.4168618266979 L 139.94110369403137,66.4168618266979 L 139.97361008251215,66.4168618266979 L 140.00554303966365,66.4168618266979 L 141.4888306913225,66.4168618266979 L 141.52596036989593,66.4168618266979 L 141.56703238885842,66.4168618266979 L 143.04017747387996,66.4168618266979 L 143.0766082830208,66.4168618266979 L 143.12113880968823,66.4168618266979 L 144.57903420529567,66.4168618266979 L 144.6163789206176,66.4168618266979 L 144.65931459140037,66.4168618266979 L 146.13443084661645,66.4168618266979 L 146.17007318767946,66.4168618266979 L 146.20680863221398,66.4168618266979 L 147.68360934195988,66.4168618266979 L 147.72534439089694,66.4168618266979 L 147.7695344427126,66.4168618266979 L 149.23242944272255,66.4168618266979 L 149.27009671316722,66.4168618266979 L 149.31649089165495,66.4168618266979 L 150.77779103578024,66.4168618266979 L 150.81723235939995,66.4168618266979 L 150.85368108826984,66.4168618266979 L 152.33239920902315,66.4168618266979 L 152.3683641052089,66.4168618266979 L 153.8840864664324,66.4168618266979 L 153.91700500868114,66.4168618266979 L 155.42643754501114,66.4168618266979 L 155.46369266168787,66.4168618266979 L 155.5079364726907,66.4168618266979 L 156.9726951245209,66.4168618266979 L 157.01973441325413,66.4168618266979 L 158.52425694382683,66.4168618266979 L 158.55626157989448,66.4168618266979 L 158.59844462205754,66.4168618266979 L 160.0690809450133,66.4168618266979 L 160.10800259649085,66.4168618266979 L 160.15226432722267,66.4168618266979 L 161.61308063866383,66.4168618266979 L 161.65065831046329,66.4168618266979 L 161.6824837492405,66.4168618266979 L 163.1665777887062,66.4168618266979 L 163.20983601461174,66.4168618266979 L 164.715899641882,66.4168618266979 L 164.75471377498533,66.4168618266979 L 166.26436134806383,66.4168618266979 L 166.30292460496054,66.4168618266979 L 167.81223170318728,66.4168618266979 L 167.85041864577414,66.4168618266979 L 169.35503077499206,66.4168618266979 L 169.3903326412033,66.4168618266979 L 169.42113665542516,66.4168618266979 L 170.9114488408682,66.4168618266979 L 170.94716286084736,66.4168618266979 L 172.45727634688092,66.4168618266979 L 172.49517657380312,66.4168618266979 L 172.53590811791386,66.4168618266979 L 174.007583785154,66.4168618266979 L 174.04910379734253,66.4168618266979 L 175.55484486949004,66.4168618266979 L 175.59908868049283,66.4168618266979 L 177.1067113241897,66.4168618266979 L 177.15016666711466,66.4168618266979 L 178.66157037363922,66.4168618266979 L 178.69887924950305,66.4168618266979 L 180.2030254657659,66.4168618266979 L 180.247394714872,66.4168618266979 L 181.75127213519923,66.4168618266979 L 181.79340141817516,66.4168618266979 L 183.28856985018834,66.4168618266979 L 183.33333333333334,66.4168618266979" fill="none" stroke="none"/>
  </g>
  <!-- 📊 Total Contributions Chart -->
  <g transform="translate(526.6666666666667, 250)">
    <!-- Chart Background -->
    <rect x="0" y="0" width="213.33333333333334" height="200" fill="#0f172a" stroke="#334155" stroke-width="1" rx="8" filter="url(#shadow)">
      <animate attributeName="opacity" values="0;1" dur="0.5s" begin="2.8s" fill="freeze"/>
    </rect>
    
    <!-- Chart Title -->
    <text x="106.66666666666667" y="25" text-anchor="middle" fill="#f8fafc" font-size="14" font-weight="bold" font-family="Arial, sans-serif">
      📊 Total Contributions
      <animate attributeName="opacity" values="0;1" dur="0.5s" begin="3s" fill="freeze"/>
    </text>
    
    <!-- Y-axis labels -->
    <text x="10" y="45" fill="#94a3b8" font-size="10" font-family="Arial, sans-serif">5,314
      <animate attributeName="opacity" values="0;1" dur="0.5s" begin="3.1999999999999997s" fill="freeze"/>
    </text>
    <text x="10" y="185" fill="#94a3b8" font-size="10" font-family="Arial, sans-serif">4,917
      <animate attributeName="opacity" values="0;1" dur="0.5s" begin="3.1999999999999997s" fill="freeze"/>
    </text>
    
    <!-- Chart Line with draw animation that follows the circle -->
    <path d="M 30,160 L 30.03680712345069,160 L 30.06768281658873,160 L 31.55634638695995,160 L 31.578083018286968,160 L 31.61716594732589,160 L 33.10645670821356,160 L 33.13912437425572,160 L 33.173548173743924,160 L 34.65692542404799,160 L 34.68681553208876,160 L 34.718479693304616,160 L 36.196015111941236,160 L 36.22848566096395,160 L 36.26086661134145,160 L 37.7490642687576,160 L 37.77945612921153,160 L 37.81418456409344,160 L 39.297812690604076,160 L 39.32578538763744,160 L 39.35666108077548,160 L 40.84720622269603,160 L 40.86713296138988,160 L 40.91605382167244,160 L 42.39283661168933,160 L 42.42299551566572,160 L 42.452742265874164,160 L 43.943968357498285,160 L 43.97821295969607,160 L 44.00937536849878,160 L 45.491480318040914,160 L 45.5216392220173,160 L 45.55640349635729,160 L 47.037630379176406,160 L 47.0672696110106,160 L 47.094274642675735,160 L 48.58824245284316,160 L 48.618867269774626,160 L 48.650405992887194,160 L 50.14116617155624,160 L 50.16998109585454,160 L 50.198401786113934,160 L 51.68362476850924,160 L 51.71442878273112,40 L 51.74652301744396,40 L 53.23767743015192,40 L 53.25905566689811,40 L 53.28853362117093,40 L 54.782071357841374,40 L 54.80597627638237,40 L 54.84839227502297,40 L 56.33218167909497,40 L 56.36366664302042,40 L 56.391316784931035,40 L 57.874174363092905,40 L 57.90866984149727,40 L 57.942448530739995,40 L 59.4319722481052,40 L 59.44723985724832,40 L 59.488616511604526,40 L 60.97713672414342,40 L 61.0097685507275,40 L 61.04662943336531,40 L 62.52552675140907,40 L 62.55627700644382,40 L 62.59568249060549,40 L 64.07140801660894,40 L 64.10411152210919,40 L 64.14226262523798,40 L 65.62825615598206,40 L 65.66468696512287,40 L 67.17057139510271,40 L 67.24717823675398,40 L 68.71908686047166,40 L 68.75716628468427,40 L 68.79331037816043,40 L 70.26697513532415,40 L 70.30709740864746,40 L 70.3347117111,40 L 71.81851903490104,40 L 71.85210060712433,40 L 71.88980371702706,40 L 73.36133602643488,40 L 73.39489967892911,40 L 73.43265654801897,40 L 74.91196601983067,40 L 74.94495624099558,40 L 74.98034770585201,40 L 76.46569612635062,40 L 76.50904395090134,40 L 78.04820531771077,40 L 78.08924149721517,40 L 79.56571965183836,40 L 79.59955210026821,40 L 81.11803409976403,40 L 81.14684902406233,40 L 81.19430046656352,40 L 82.6544358283011,40 L 82.68740812973698,40 L 82.7227099959482,40 L 84.20456406928375,40 L 84.24355739967747,40 L 84.28269408790352,40 L 85.75008693990281,40 L 85.78169734193153,40 L 85.82011724099593,40 L 87.29709714803228,40 L 87.33302620475993,40 L 87.379993814577,40 L 88.84057716954062,40 L 88.88146999121271,40 L 88.92105467266478,40 L 90.39599173059044,40 L 90.42889235311014,40 L 90.46645210518057,40 L 91.94422048029472,40 L 91.97751533685332,40 L 92.01589939645964,40 L 93.49047805980445,40 L 93.52907715615926,40 L 93.57066884726396,40 L 95.0403016653934,40 L 95.0710340006991,40 L 95.10807408062733,40 L 96.58992815396289,40 L 96.61750661695734,40 L 96.65517388740201,40 L 98.13432208165234,40 L 98.1696777070507,40 L 98.20872479663153,40 L 99.68364393482814,40 L 99.72116784744047,40 L 99.76107508401529,40 L 101.23606590112806,40 L 101.26321429062551,40 L 101.30204634345787,40 L 102.78304026979944,40 L 102.8196144367726,40 L 102.85222834362763,40 L 104.32662780968204,40 L 104.36010186353106,40 L 104.39864720069875,40 L 105.87220443948821,40 L 105.91281054549565,40 L 105.94995814379811,40 L 107.42390961662649,40 L 107.45455235328699,40 L 107.48895823304616,40 L 108.97832067284999,40 L 109.01571914735905,40 L 109.05781259087689,40 L 110.5253488007085,40 L 110.55875117564136,40 L 110.59215355057421,40 L 112.07011904270782,40 L 112.10721288182316,40 L 112.14369745015112,40 L 113.61177125185397,40 L 113.65205480273866,40 L 113.69040302288688,40 L 115.15879937971248,40 L 115.19906501086813,40 L 115.2432550626838,40 L 116.72154310994016,40 L 116.75356566573683,40 L 116.79497815955112,40 L 118.2659370376296,40 L 118.29360509926926,40 L 118.32867400900295,40 L 119.80981129317686,40 L 119.8464212996081,40 L 119.88355097818152,40 L 121.35884643068799,40 L 121.39081522729754,40 L 121.43215604219567,40 L 122.90677054499857,40 L 122.93893645862758,40 L 122.97703380256922,40 L 124.45551896684503,40 L 124.48703977022856,40 L 124.52117685405211,40 L 126.00208118174848,72.04030226700252 L 126.03191753060213,72.04030226700252 L 127.54910930960699,72.04030226700252 L 127.58554011874782,72.04030226700252 L 127.61994599850698,72.04030226700252 L 129.09895083492498,72.04030226700252 L 129.1240384555827,72.04030226700252 L 129.16674116988798,72.04030226700252 L 130.6556197770077,72.04030226700252 L 130.69346624474275,72.04030226700252 L 132.19632224051463,72.04030226700252 L 132.23574564440534,72.04030226700252 L 132.28721110621177,72.04030226700252 L 133.7468984747233,72.04030226700252 L 133.78547965134908,72.04030226700252 L 133.8092232923287,72.04030226700252 L 135.29718799326733,72.04030226700252 L 135.3330632908079,72.04030226700252 L 135.37089183881392,72.04030226700252 L 136.84638440833984,72.04030226700252 L 136.8805752513505,72.04030226700252 L 136.91933562526668,72.04030226700252 L 138.39298246270135,72.04030226700252 L 138.42371479800707,72.04030226700252 L 138.46234973381996,72.04030226700252 L 139.94110369403137,72.04030226700252 L 139.97361008251215,72.04030226700252 L 140.00554303966365,72.04030226700252 L 141.4888306913225,72.04030226700252 L 141.52596036989593,72.04030226700252 L 141.56703238885842,72.04030226700252 L 143.04017747387996,72.04030226700252 L 143.0766082830208,72.04030226700252 L 143.12113880968823,72.04030226700252 L 144.57903420529567,72.04030226700252 L 144.6163789206176,72.04030226700252 L 144.65931459140037,72.04030226700252 L 146.13443084661645,72.04030226700252 L 146.17007318767946,72.04030226700252 L 146.20680863221398,72.04030226700252 L 147.68360934195988,72.04030226700252 L 147.72534439089694,72.04030226700252 L 147.7695344427126,72.04030226700252 L 149.23242944272255,72.04030226700252 L 149.27009671316722,72.04030226700252 L 149.31649089165495,72.04030226700252 L 150.77779103578024,72.04030226700252 L 150.81723235939995,72.04030226700252 L 150.85368108826984,72.04030226700252 L 152.33239920902315,72.04030226700252 L 152.3683641052089,72.04030226700252 L 153.8840864664324,72.04030226700252 L 153.91700500868114,72.04030226700252 L 155.42643754501114,72.04030226700252 L 155.46369266168787,72.04030226700252 L 155.5079364726907,72.04030226700252 L 156.9726951245209,72.04030226700252 L 157.01973441325413,72.04030226700252 L 158.52425694382683,72.04030226700252 L 158.55626157989448,72.04030226700252 L 158.59844462205754,72.04030226700252 L 160.0690809450133,72.04030226700252 L 160.10800259649085,72.04030226700252 L 160.15226432722267,72.04030226700252 L 161.61308063866383,72.04030226700252 L 161.65065831046329,72.04030226700252 L 161.6824837492405,72.04030226700252 L 163.1665777887062,72.04030226700252 L 163.20983601461174,72.04030226700252 L 164.715899641882,72.04030226700252 L 164.75471377498533,72.04030226700252 L 166.26436134806383,72.04030226700252 L 166.30292460496054,72.04030226700252 L 167.81223170318728,72.04030226700252 L 167.85041864577414,72.04030226700252 L 169.35503077499206,72.04030226700252 L 169.3903326412033,72.04030226700252 L 169.42113665542516,72.04030226700252 L 170.9114488408682,72.04030226700252 L 170.94716286084736,72.04030226700252 L 172.45727634688092,72.04030226700252 L 172.49517657380312,72.04030226700252 L 172.53590811791386,72.04030226700252 L 174.007583785154,72.04030226700252 L 174.04910379734253,72.04030226700252 L 175.55484486949004,72.04030226700252 L 175.59908868049283,72.04030226700252 L 177.1067113241897,72.04030226700252 L 177.15016666711466,72.04030226700252 L 178.66157037363922,72.04030226700252 L 178.69887924950305,72.04030226700252 L 180.2030254657659,72.04030226700252 L 180.247394714872,72.04030226700252 L 181.75127213519923,72.04030226700252 L 181.79340141817516,72.04030226700252 L 183.28856985018834,72.04030226700252 L 183.33333333333334,72.04030226700252" stroke="#f59e0b" stroke-width="2" fill="none" stroke-dasharray="13900" stroke-dashoffset="13900">
      <animate attributeName="stroke-dashoffset" values="13900;0" dur="3s" begin="3.5999999999999996s" fill="freeze"/>
    </path>
    
    <!-- Glow effect for the line that also follows the circle -->
    <path d="M 30,160 L 30.03680712345069,160 L 30.06768281658873,160 L 31.55634638695995,160 L 31.578083018286968,160 L 31.61716594732589,160 L 33.10645670821356,160 L 33.13912437425572,160 L 33.173548173743924,160 L 34.65692542404799,160 L 34.68681553208876,160 L 34.718479693304616,160 L 36.196015111941236,160 L 36.22848566096395,160 L 36.26086661134145,160 L 37.7490642687576,160 L 37.77945612921153,160 L 37.81418456409344,160 L 39.297812690604076,160 L 39.32578538763744,160 L 39.35666108077548,160 L 40.84720622269603,160 L 40.86713296138988,160 L 40.91605382167244,160 L 42.39283661168933,160 L 42.42299551566572,160 L 42.452742265874164,160 L 43.943968357498285,160 L 43.97821295969607,160 L 44.00937536849878,160 L 45.491480318040914,160 L 45.5216392220173,160 L 45.55640349635729,160 L 47.037630379176406,160 L 47.0672696110106,160 L 47.094274642675735,160 L 48.58824245284316,160 L 48.618867269774626,160 L 48.650405992887194,160 L 50.14116617155624,160 L 50.16998109585454,160 L 50.198401786113934,160 L 51.68362476850924,160 L 51.71442878273112,40 L 51.74652301744396,40 L 53.23767743015192,40 L 53.25905566689811,40 L 53.28853362117093,40 L 54.782071357841374,40 L 54.80597627638237,40 L 54.84839227502297,40 L 56.33218167909497,40 L 56.36366664302042,40 L 56.391316784931035,40 L 57.874174363092905,40 L 57.90866984149727,40 L 57.942448530739995,40 L 59.4319722481052,40 L 59.44723985724832,40 L 59.488616511604526,40 L 60.97713672414342,40 L 61.0097685507275,40 L 61.04662943336531,40 L 62.52552675140907,40 L 62.55627700644382,40 L 62.59568249060549,40 L 64.07140801660894,40 L 64.10411152210919,40 L 64.14226262523798,40 L 65.62825615598206,40 L 65.66468696512287,40 L 67.17057139510271,40 L 67.24717823675398,40 L 68.71908686047166,40 L 68.75716628468427,40 L 68.79331037816043,40 L 70.26697513532415,40 L 70.30709740864746,40 L 70.3347117111,40 L 71.81851903490104,40 L 71.85210060712433,40 L 71.88980371702706,40 L 73.36133602643488,40 L 73.39489967892911,40 L 73.43265654801897,40 L 74.91196601983067,40 L 74.94495624099558,40 L 74.98034770585201,40 L 76.46569612635062,40 L 76.50904395090134,40 L 78.04820531771077,40 L 78.08924149721517,40 L 79.56571965183836,40 L 79.59955210026821,40 L 81.11803409976403,40 L 81.14684902406233,40 L 81.19430046656352,40 L 82.6544358283011,40 L 82.68740812973698,40 L 82.7227099959482,40 L 84.20456406928375,40 L 84.24355739967747,40 L 84.28269408790352,40 L 85.75008693990281,40 L 85.78169734193153,40 L 85.82011724099593,40 L 87.29709714803228,40 L 87.33302620475993,40 L 87.379993814577,40 L 88.84057716954062,40 L 88.88146999121271,40 L 88.92105467266478,40 L 90.39599173059044,40 L 90.42889235311014,40 L 90.46645210518057,40 L 91.94422048029472,40 L 91.97751533685332,40 L 92.01589939645964,40 L 93.49047805980445,40 L 93.52907715615926,40 L 93.57066884726396,40 L 95.0403016653934,40 L 95.0710340006991,40 L 95.10807408062733,40 L 96.58992815396289,40 L 96.61750661695734,40 L 96.65517388740201,40 L 98.13432208165234,40 L 98.1696777070507,40 L 98.20872479663153,40 L 99.68364393482814,40 L 99.72116784744047,40 L 99.76107508401529,40 L 101.23606590112806,40 L 101.26321429062551,40 L 101.30204634345787,40 L 102.78304026979944,40 L 102.8196144367726,40 L 102.85222834362763,40 L 104.32662780968204,40 L 104.36010186353106,40 L 104.39864720069875,40 L 105.87220443948821,40 L 105.91281054549565,40 L 105.94995814379811,40 L 107.42390961662649,40 L 107.45455235328699,40 L 107.48895823304616,40 L 108.97832067284999,40 L 109.01571914735905,40 L 109.05781259087689,40 L 110.5253488007085,40 L 110.55875117564136,40 L 110.59215355057421,40 L 112.07011904270782,40 L 112.10721288182316,40 L 112.14369745015112,40 L 113.61177125185397,40 L 113.65205480273866,40 L 113.69040302288688,40 L 115.15879937971248,40 L 115.19906501086813,40 L 115.2432550626838,40 L 116.72154310994016,40 L 116.75356566573683,40 L 116.79497815955112,40 L 118.2659370376296,40 L 118.29360509926926,40 L 118.32867400900295,40 L 119.80981129317686,40 L 119.8464212996081,40 L 119.88355097818152,40 L 121.35884643068799,40 L 121.39081522729754,40 L 121.43215604219567,40 L 122.90677054499857,40 L 122.93893645862758,40 L 122.97703380256922,40 L 124.45551896684503,40 L 124.48703977022856,40 L 124.52117685405211,40 L 126.00208118174848,72.04030226700252 L 126.03191753060213,72.04030226700252 L 127.54910930960699,72.04030226700252 L 127.58554011874782,72.04030226700252 L 127.61994599850698,72.04030226700252 L 129.09895083492498,72.04030226700252 L 129.1240384555827,72.04030226700252 L 129.16674116988798,72.04030226700252 L 130.6556197770077,72.04030226700252 L 130.69346624474275,72.04030226700252 L 132.19632224051463,72.04030226700252 L 132.23574564440534,72.04030226700252 L 132.28721110621177,72.04030226700252 L 133.7468984747233,72.04030226700252 L 133.78547965134908,72.04030226700252 L 133.8092232923287,72.04030226700252 L 135.29718799326733,72.04030226700252 L 135.3330632908079,72.04030226700252 L 135.37089183881392,72.04030226700252 L 136.84638440833984,72.04030226700252 L 136.8805752513505,72.04030226700252 L 136.91933562526668,72.04030226700252 L 138.39298246270135,72.04030226700252 L 138.42371479800707,72.04030226700252 L 138.46234973381996,72.04030226700252 L 139.94110369403137,72.04030226700252 L 139.97361008251215,72.04030226700252 L 140.00554303966365,72.04030226700252 L 141.4888306913225,72.04030226700252 L 141.52596036989593,72.04030226700252 L 141.56703238885842,72.04030226700252 L 143.04017747387996,72.04030226700252 L 143.0766082830208,72.04030226700252 L 143.12113880968823,72.04030226700252 L 144.57903420529567,72.04030226700252 L 144.6163789206176,72.04030226700252 L 144.65931459140037,72.04030226700252 L 146.13443084661645,72.04030226700252 L 146.17007318767946,72.04030226700252 L 146.20680863221398,72.04030226700252 L 147.68360934195988,72.04030226700252 L 147.72534439089694,72.04030226700252 L 147.7695344427126,72.04030226700252 L 149.23242944272255,72.04030226700252 L 149.27009671316722,72.04030226700252 L 149.31649089165495,72.04030226700252 L 150.77779103578024,72.04030226700252 L 150.81723235939995,72.04030226700252 L 150.85368108826984,72.04030226700252 L 152.33239920902315,72.04030226700252 L 152.3683641052089,72.04030226700252 L 153.8840864664324,72.04030226700252 L 153.91700500868114,72.04030226700252 L 155.42643754501114,72.04030226700252 L 155.46369266168787,72.04030226700252 L 155.5079364726907,72.04030226700252 L 156.9726951245209,72.04030226700252 L 157.01973441325413,72.04030226700252 L 158.52425694382683,72.04030226700252 L 158.55626157989448,72.04030226700252 L 158.59844462205754,72.04030226700252 L 160.0690809450133,72.04030226700252 L 160.10800259649085,72.04030226700252 L 160.15226432722267,72.04030226700252 L 161.61308063866383,72.04030226700252 L 161.65065831046329,72.04030226700252 L 161.6824837492405,72.04030226700252 L 163.1665777887062,72.04030226700252 L 163.20983601461174,72.04030226700252 L 164.715899641882,72.04030226700252 L 164.75471377498533,72.04030226700252 L 166.26436134806383,72.04030226700252 L 166.30292460496054,72.04030226700252 L 167.81223170318728,72.04030226700252 L 167.85041864577414,72.04030226700252 L 169.35503077499206,72.04030226700252 L 169.3903326412033,72.04030226700252 L 169.42113665542516,72.04030226700252 L 170.9114488408682,72.04030226700252 L 170.94716286084736,72.04030226700252 L 172.45727634688092,72.04030226700252 L 172.49517657380312,72.04030226700252 L 172.53590811791386,72.04030226700252 L 174.007583785154,72.04030226700252 L 174.04910379734253,72.04030226700252 L 175.55484486949004,72.04030226700252 L 175.59908868049283,72.04030226700252 L 177.1067113241897,72.04030226700252 L 177.15016666711466,72.04030226700252 L 178.66157037363922,72.04030226700252 L 178.69887924950305,72.04030226700252 L 180.2030254657659,72.04030226700252 L 180.247394714872,72.04030226700252 L 181.75127213519923,72.04030226700252 L 181.79340141817516,72.04030226700252 L 183.28856985018834,72.04030226700252 L 183.33333333333334,72.04030226700252" stroke="#f59e0b" stroke-width="4" fill="none" opacity="0.4" stroke-dasharray="13900" stroke-dashoffset="13900">
      <animate attributeName="stroke-dashoffset" values="13900;0" dur="3s" begin="3.5999999999999996s" fill="freeze"/>
    </path>
    
    <!-- Animated circle that moves along the path and draws the line -->
    <circle r="5" fill="#f59e0b" opacity="0" filter="url(#trailGlow)">
      <animate attributeName="opacity" values="0;1;1;1" dur="3.2s" begin="3.4s" fill="freeze"/>
      <animate attributeName="r" values="5;6;5" dur="1s" begin="3.4s" repeatCount="3"/>
      <animateMotion dur="3s" begin="3.4s" fill="freeze">
        <mpath href="#path_totalContributions_526.6666666666667"/>
      </animateMotion>
    </circle>
    
    <!-- Small trail dots that fade out -->
    <circle r="2" fill="#f59e0b" opacity="0">
      <animate attributeName="opacity" values="0;0.6;0" dur="0.8s" begin="3.8s" fill="freeze"/>
      <animateMotion dur="3s" begin="3.4s" fill="freeze">
        <mpath href="#path_totalContributions_526.6666666666667"/>
      </animateMotion>
    </circle>
    
    <!-- Hidden path for motion animation -->
    <path id="path_totalContributions_526.6666666666667" d="M 30,160 L 30.03680712345069,160 L 30.06768281658873,160 L 31.55634638695995,160 L 31.578083018286968,160 L 31.61716594732589,160 L 33.10645670821356,160 L 33.13912437425572,160 L 33.173548173743924,160 L 34.65692542404799,160 L 34.68681553208876,160 L 34.718479693304616,160 L 36.196015111941236,160 L 36.22848566096395,160 L 36.26086661134145,160 L 37.7490642687576,160 L 37.77945612921153,160 L 37.81418456409344,160 L 39.297812690604076,160 L 39.32578538763744,160 L 39.35666108077548,160 L 40.84720622269603,160 L 40.86713296138988,160 L 40.91605382167244,160 L 42.39283661168933,160 L 42.42299551566572,160 L 42.452742265874164,160 L 43.943968357498285,160 L 43.97821295969607,160 L 44.00937536849878,160 L 45.491480318040914,160 L 45.5216392220173,160 L 45.55640349635729,160 L 47.037630379176406,160 L 47.0672696110106,160 L 47.094274642675735,160 L 48.58824245284316,160 L 48.618867269774626,160 L 48.650405992887194,160 L 50.14116617155624,160 L 50.16998109585454,160 L 50.198401786113934,160 L 51.68362476850924,160 L 51.71442878273112,40 L 51.74652301744396,40 L 53.23767743015192,40 L 53.25905566689811,40 L 53.28853362117093,40 L 54.782071357841374,40 L 54.80597627638237,40 L 54.84839227502297,40 L 56.33218167909497,40 L 56.36366664302042,40 L 56.391316784931035,40 L 57.874174363092905,40 L 57.90866984149727,40 L 57.942448530739995,40 L 59.4319722481052,40 L 59.44723985724832,40 L 59.488616511604526,40 L 60.97713672414342,40 L 61.0097685507275,40 L 61.04662943336531,40 L 62.52552675140907,40 L 62.55627700644382,40 L 62.59568249060549,40 L 64.07140801660894,40 L 64.10411152210919,40 L 64.14226262523798,40 L 65.62825615598206,40 L 65.66468696512287,40 L 67.17057139510271,40 L 67.24717823675398,40 L 68.71908686047166,40 L 68.75716628468427,40 L 68.79331037816043,40 L 70.26697513532415,40 L 70.30709740864746,40 L 70.3347117111,40 L 71.81851903490104,40 L 71.85210060712433,40 L 71.88980371702706,40 L 73.36133602643488,40 L 73.39489967892911,40 L 73.43265654801897,40 L 74.91196601983067,40 L 74.94495624099558,40 L 74.98034770585201,40 L 76.46569612635062,40 L 76.50904395090134,40 L 78.04820531771077,40 L 78.08924149721517,40 L 79.56571965183836,40 L 79.59955210026821,40 L 81.11803409976403,40 L 81.14684902406233,40 L 81.19430046656352,40 L 82.6544358283011,40 L 82.68740812973698,40 L 82.7227099959482,40 L 84.20456406928375,40 L 84.24355739967747,40 L 84.28269408790352,40 L 85.75008693990281,40 L 85.78169734193153,40 L 85.82011724099593,40 L 87.29709714803228,40 L 87.33302620475993,40 L 87.379993814577,40 L 88.84057716954062,40 L 88.88146999121271,40 L 88.92105467266478,40 L 90.39599173059044,40 L 90.42889235311014,40 L 90.46645210518057,40 L 91.94422048029472,40 L 91.97751533685332,40 L 92.01589939645964,40 L 93.49047805980445,40 L 93.52907715615926,40 L 93.57066884726396,40 L 95.0403016653934,40 L 95.0710340006991,40 L 95.10807408062733,40 L 96.58992815396289,40 L 96.61750661695734,40 L 96.65517388740201,40 L 98.13432208165234,40 L 98.1696777070507,40 L 98.20872479663153,40 L 99.68364393482814,40 L 99.72116784744047,40 L 99.76107508401529,40 L 101.23606590112806,40 L 101.26321429062551,40 L 101.30204634345787,40 L 102.78304026979944,40 L 102.8196144367726,40 L 102.85222834362763,40 L 104.32662780968204,40 L 104.36010186353106,40 L 104.39864720069875,40 L 105.87220443948821,40 L 105.91281054549565,40 L 105.94995814379811,40 L 107.42390961662649,40 L 107.45455235328699,40 L 107.48895823304616,40 L 108.97832067284999,40 L 109.01571914735905,40 L 109.05781259087689,40 L 110.5253488007085,40 L 110.55875117564136,40 L 110.59215355057421,40 L 112.07011904270782,40 L 112.10721288182316,40 L 112.14369745015112,40 L 113.61177125185397,40 L 113.65205480273866,40 L 113.69040302288688,40 L 115.15879937971248,40 L 115.19906501086813,40 L 115.2432550626838,40 L 116.72154310994016,40 L 116.75356566573683,40 L 116.79497815955112,40 L 118.2659370376296,40 L 118.29360509926926,40 L 118.32867400900295,40 L 119.80981129317686,40 L 119.8464212996081,40 L 119.88355097818152,40 L 121.35884643068799,40 L 121.39081522729754,40 L 121.43215604219567,40 L 122.90677054499857,40 L 122.93893645862758,40 L 122.97703380256922,40 L 124.45551896684503,40 L 124.48703977022856,40 L 124.52117685405211,40 L 126.00208118174848,72.04030226700252 L 126.03191753060213,72.04030226700252 L 127.54910930960699,72.04030226700252 L 127.58554011874782,72.04030226700252 L 127.61994599850698,72.04030226700252 L 129.09895083492498,72.04030226700252 L 129.1240384555827,72.04030226700252 L 129.16674116988798,72.04030226700252 L 130.6556197770077,72.04030226700252 L 130.69346624474275,72.04030226700252 L 132.19632224051463,72.04030226700252 L 132.23574564440534,72.04030226700252 L 132.28721110621177,72.04030226700252 L 133.7468984747233,72.04030226700252 L 133.78547965134908,72.04030226700252 L 133.8092232923287,72.04030226700252 L 135.29718799326733,72.04030226700252 L 135.3330632908079,72.04030226700252 L 135.37089183881392,72.04030226700252 L 136.84638440833984,72.04030226700252 L 136.8805752513505,72.04030226700252 L 136.91933562526668,72.04030226700252 L 138.39298246270135,72.04030226700252 L 138.42371479800707,72.04030226700252 L 138.46234973381996,72.04030226700252 L 139.94110369403137,72.04030226700252 L 139.97361008251215,72.04030226700252 L 140.00554303966365,72.04030226700252 L 141.4888306913225,72.04030226700252 L 141.52596036989593,72.04030226700252 L 141.56703238885842,72.04030226700252 L 143.04017747387996,72.04030226700252 L 143.0766082830208,72.04030226700252 L 143.12113880968823,72.04030226700252 L 144.57903420529567,72.04030226700252 L 144.6163789206176,72.04030226700252 L 144.65931459140037,72.04030226700252 L 146.13443084661645,72.04030226700252 L 146.17007318767946,72.04030226700252 L 146.20680863221398,72.04030226700252 L 147.68360934195988,72.04030226700252 L 147.72534439089694,72.04030226700252 L 147.7695344427126,72.04030226700252 L 149.23242944272255,72.04030226700252 L 149.27009671316722,72.04030226700252 L 149.31649089165495,72.04030226700252 L 150.77779103578024,72.04030226700252 L 150.81723235939995,72.04030226700252 L 150.85368108826984,72.04030226700252 L 152.33239920902315,72.04030226700252 L 152.3683641052089,72.04030226700252 L 153.8840864664324,72.04030226700252 L 153.91700500868114,72.04030226700252 L 155.42643754501114,72.04030226700252 L 155.46369266168787,72.04030226700252 L 155.5079364726907,72.04030226700252 L 156.9726951245209,72.04030226700252 L 157.01973441325413,72.04030226700252 L 158.52425694382683,72.04030226700252 L 158.55626157989448,72.04030226700252 L 158.59844462205754,72.04030226700252 L 160.0690809450133,72.04030226700252 L 160.10800259649085,72.04030226700252 L 160.15226432722267,72.04030226700252 L 161.61308063866383,72.04030226700252 L 161.65065831046329,72.04030226700252 L 161.6824837492405,72.04030226700252 L 163.1665777887062,72.04030226700252 L 163.20983601461174,72.04030226700252 L 164.715899641882,72.04030226700252 L 164.75471377498533,72.04030226700252 L 166.26436134806383,72.04030226700252 L 166.30292460496054,72.04030226700252 L 167.81223170318728,72.04030226700252 L 167.85041864577414,72.04030226700252 L 169.35503077499206,72.04030226700252 L 169.3903326412033,72.04030226700252 L 169.42113665542516,72.04030226700252 L 170.9114488408682,72.04030226700252 L 170.94716286084736,72.04030226700252 L 172.45727634688092,72.04030226700252 L 172.49517657380312,72.04030226700252 L 172.53590811791386,72.04030226700252 L 174.007583785154,72.04030226700252 L 174.04910379734253,72.04030226700252 L 175.55484486949004,72.04030226700252 L 175.59908868049283,72.04030226700252 L 177.1067113241897,72.04030226700252 L 177.15016666711466,72.04030226700252 L 178.66157037363922,72.04030226700252 L 178.69887924950305,72.04030226700252 L 180.2030254657659,72.04030226700252 L 180.247394714872,72.04030226700252 L 181.75127213519923,72.04030226700252 L 181.79340141817516,72.04030226700252 L 183.28856985018834,72.04030226700252 L 183.33333333333334,72.04030226700252" fill="none" stroke="none"/>
  </g>
  
  <!-- Footer -->
  <text x="400" y="580" text-anchor="middle" fill="#64748b" font-size="12" font-family="Arial, sans-serif">
    Generated by GitHub User Rank Tracker • 4/18/2026
    <animate attributeName="opacity" values="0;1" dur="0.5s" begin="5s" fill="freeze"/>
  </text>
</svg>