<svg width="800" height="600" xmlns="http://www.w3.org/2000/svg">
  <defs>
    <linearGradient id="bgGradient" x1="0%" y1="0%" x2="100%" y2="100%">
      <stop offset="0%" style="stop-color:#1e293b;stop-opacity:1" />
      <stop offset="100%" style="stop-color:#0f172a;stop-opacity:1" />
    </linearGradient>
    <filter id="shadow" x="-20%" y="-20%" width="140%" height="140%">
      <feDropShadow dx="2" dy="2" stdDeviation="3" flood-color="#000" flood-opacity="0.3"/>
    </filter>
    <!-- Trail effect filter -->
    <filter id="trailGlow" x="-50%" y="-50%" width="200%" height="200%">
      <feGaussianBlur stdDeviation="3" result="coloredBlur"/>
      <feMerge> 
        <feMergeNode in="coloredBlur"/>
        <feMergeNode in="SourceGraphic"/>
      </feMerge>
    </filter>
  </defs>
  
  <!-- Background -->
  <rect width="800" height="600" fill="url(#bgGradient)" rx="12"/>
  
  <!-- Header -->
  <text x="400" y="40" text-anchor="middle" fill="#f8fafc" font-size="24" font-weight="bold" font-family="Arial, sans-serif">
    GitHub Progress Report
    <animate attributeName="opacity" values="0;1" dur="0.8s" begin="0s" fill="freeze"/>
    <animateTransform attributeName="transform" type="translate" values="0,-20;0,0" dur="0.8s" begin="0s" fill="freeze"/>
  </text>
  
  <!-- User Info -->
  <text x="400" y="70" text-anchor="middle" fill="#cbd5e1" font-size="16" font-family="Arial, sans-serif">
    @maifeeulasad • BANGLADESH • 100 days analyzed
    <animate attributeName="opacity" values="0;1" dur="0.6s" begin="0.3s" fill="freeze"/>
  </text>
  
  <!-- Progress Cards -->
  <!-- Followers Card -->
  <g transform="translate(60, 100)">
    <rect width="206.66666666666666" height="120" fill="#1e293b" stroke="#334155" stroke-width="1" rx="8" filter="url(#shadow)">
      <animate attributeName="opacity" values="0;1" dur="0.6s" begin="0.2s" fill="freeze"/>
      <animateTransform attributeName="transform" type="scale" values="0.8;1" dur="0.6s" begin="0.2s" fill="freeze"/>
    </rect>
    <text x="103.33333333333333" y="25" text-anchor="middle" fill="#94a3b8" font-size="14" font-weight="bold" font-family="Arial, sans-serif">FOLLOWERS
      <animate attributeName="opacity" values="0;1" dur="0.5s" begin="0.4s" fill="freeze"/>
    </text>
    
    <text x="103.33333333333333" y="50" text-anchor="middle" fill="#22c55e" font-size="32" font-weight="bold" font-family="Arial, sans-serif">
      ↗
      <animate attributeName="opacity" values="0;1" dur="0.5s" begin="0.6s" fill="freeze"/>
      <animateTransform attributeName="transform" type="scale" values="0;1.2;1" dur="0.8s" begin="0.6s" fill="freeze"/>
    </text>
    
    <text x="103.33333333333333" y="75" text-anchor="middle" fill="#f8fafc" font-size="18" font-weight="bold" font-family="Arial, sans-serif">
      +6
      <animate attributeName="opacity" values="0;1" dur="0.5s" begin="0.8s" fill="freeze"/>
    </text>
    
    <text x="103.33333333333333" y="95" text-anchor="middle" fill="#94a3b8" font-size="12" font-family="Arial, sans-serif">
      #473 → #467
      <animate attributeName="opacity" values="0;1" dur="0.5s" begin="1s" fill="freeze"/>
    </text>
  </g>
  
  <!-- Public Contributions Card -->
  <g transform="translate(296.66666666666663, 100)">
    <rect width="206.66666666666666" height="120" fill="#1e293b" stroke="#334155" stroke-width="1" rx="8" filter="url(#shadow)">
      <animate attributeName="opacity" values="0;1" dur="0.6s" begin="0.4s" fill="freeze"/>
      <animateTransform attributeName="transform" type="scale" values="0.8;1" dur="0.6s" begin="0.4s" fill="freeze"/>
    </rect>
    <text x="103.33333333333333" y="25" text-anchor="middle" fill="#94a3b8" font-size="14" font-weight="bold" font-family="Arial, sans-serif">PUBLIC
      <animate attributeName="opacity" values="0;1" dur="0.5s" begin="0.6s" fill="freeze"/>
    </text>
    
    <text x="103.33333333333333" y="50" text-anchor="middle" fill="#22c55e" font-size="32" font-weight="bold" font-family="Arial, sans-serif">
      ↗
      <animate attributeName="opacity" values="0;1" dur="0.5s" begin="0.8s" fill="freeze"/>
      <animateTransform attributeName="transform" type="scale" values="0;1.2;1" dur="0.8s" begin="0.8s" fill="freeze"/>
    </text>
    
    <text x="103.33333333333333" y="75" text-anchor="middle" fill="#f8fafc" font-size="18" font-weight="bold" font-family="Arial, sans-serif">
      +11
      <animate attributeName="opacity" values="0;1" dur="0.5s" begin="1s" fill="freeze"/>
    </text>
    
    <text x="103.33333333333333" y="95" text-anchor="middle" fill="#94a3b8" font-size="12" font-family="Arial, sans-serif">
      #18 → #7
      <animate attributeName="opacity" values="0;1" dur="0.5s" begin="1.2s" fill="freeze"/>
    </text>
  </g>
  
  <!-- Total Contributions Card -->
  <g transform="translate(533.3333333333333, 100)">
    <rect width="206.66666666666666" height="120" fill="#1e293b" stroke="#334155" stroke-width="1" rx="8" filter="url(#shadow)">
      <animate attributeName="opacity" values="0;1" dur="0.6s" begin="0.6s" fill="freeze"/>
      <animateTransform attributeName="transform" type="scale" values="0.8;1" dur="0.6s" begin="0.6s" fill="freeze"/>
    </rect>
    <text x="103.33333333333333" y="25" text-anchor="middle" fill="#94a3b8" font-size="14" font-weight="bold" font-family="Arial, sans-serif">TOTAL
      <animate attributeName="opacity" values="0;1" dur="0.5s" begin="0.8s" fill="freeze"/>
    </text>
    
    <text x="103.33333333333333" y="50" text-anchor="middle" fill="#22c55e" font-size="32" font-weight="bold" font-family="Arial, sans-serif">
      ↗
      <animate attributeName="opacity" values="0;1" dur="0.5s" begin="1s" fill="freeze"/>
      <animateTransform attributeName="transform" type="scale" values="0;1.2;1" dur="0.8s" begin="1s" fill="freeze"/>
    </text>
    
    <text x="103.33333333333333" y="75" text-anchor="middle" fill="#f8fafc" font-size="18" font-weight="bold" font-family="Arial, sans-serif">
      +15
      <animate attributeName="opacity" values="0;1" dur="0.5s" begin="1.2s" fill="freeze"/>
    </text>
    
    <text x="103.33333333333333" y="95" text-anchor="middle" fill="#94a3b8" font-size="12" font-family="Arial, sans-serif">
      #39 → #24
      <animate attributeName="opacity" values="0;1" dur="0.5s" begin="1.4s" fill="freeze"/>
    </text>
  </g>
  
  <!-- Timeline Charts (if we have snapshots) -->
  
  <!-- 👥 Followers Count Chart -->
  <g transform="translate(60, 250)">
    <!-- Chart Background -->
    <rect x="0" y="0" width="213.33333333333334" height="200" fill="#0f172a" stroke="#334155" stroke-width="1" rx="8" filter="url(#shadow)">
      <animate attributeName="opacity" values="0;1" dur="0.5s" begin="1.8s" fill="freeze"/>
    </rect>
    
    <!-- Chart Title -->
    <text x="106.66666666666667" y="25" text-anchor="middle" fill="#f8fafc" font-size="14" font-weight="bold" font-family="Arial, sans-serif">
      👥 Followers Count
      <animate attributeName="opacity" values="0;1" dur="0.5s" begin="2s" fill="freeze"/>
    </text>
    
    <!-- Y-axis labels -->
    <text x="10" y="45" fill="#94a3b8" font-size="10" font-family="Arial, sans-serif">143
      <animate attributeName="opacity" values="0;1" dur="0.5s" begin="2.2s" fill="freeze"/>
    </text>
    <text x="10" y="185" fill="#94a3b8" font-size="10" font-family="Arial, sans-serif">136
      <animate attributeName="opacity" values="0;1" dur="0.5s" begin="2.2s" fill="freeze"/>
    </text>
    
    <!-- Chart Line with draw animation that follows the circle -->
    <path d="M 30,160 L 30.026199265413922,160 L 30.058921466950054,160 L 31.547871237614935,160 L 31.57683020677287,160 L 31.606398461172986,160 L 33.0962083992386,160 L 33.122443504960884,160 L 33.15398297632101,160 L 34.64834463354882,160 L 34.67764408563621,160 L 34.7084309105207,160 L 36.19727316026049,160 L 36.22282730012386,160 L 36.25486853580108,160 L 37.74423047001214,160 L 37.767114506902416,160 L 37.794998266809436,160 L 39.291080258838704,160 L 39.319591224142094,160 L 39.34820971037057,160 L 40.83739244303982,160 L 40.86484611924647,160 L 40.89627806968151,160 L 42.38413471094129,160 L 42.41001141357994,160 L 42.44481235300117,160 L 43.92800975417366,160 L 43.95910122167924,160 L 43.99010308841391,160 L 45.48491274949627,160 L 45.51460644497566,160 L 45.54788417129143,160 L 47.03557953116358,160 L 47.06054230593895,160 L 47.09398131364236,160 L 48.58042226272177,160 L 48.61439887505064,160 L 48.65020334310606,160 L 50.1289923863498,160 L 50.15472572775499,160 L 50.18642648050276,160 L 51.68005341140911,160 L 51.70223856228629,160 L 51.73460236073878,160 L 53.22405389572076,160 L 53.250450282830684,160 L 53.28173887203226,160 L 54.77178177210223,160 L 54.79837528090816,160 L 54.82935922748865,160 L 56.32465273273391,160 L 56.351855526782025,160 L 56.387713755299984,160 L 57.870660274313934,160 L 57.9039380006297,160 L 57.9257109879607,160 L 59.41768926468231,160 L 59.443960210712966,160 L 59.47653905101564,160 L 60.960704140513954,160 L 60.995971003943914,160 L 61.02630982497385,160 L 62.51594056149765,160 L 62.54303583462067,160 L 62.57504122998952,160 L 64.0656754951475,160 L 64.09223316364506,160 L 64.12115629249463,160 L 65.61388721569189,160 L 65.64109000974,160 L 65.66965473550593,160 L 67.16140005022318,160 L 67.1934412859004,160 L 67.22641436959509,160 L 68.70930712814648,160 L 68.73894706316332,160 L 68.77236815071254,160 L 70.24893509483775,160 L 70.28857447588808,160 L 70.32106371541985,160 L 71.80582017000617,160 L 71.83422361438446,160 L 71.86510004003986,160 L 73.35442613394255,160 L 73.38103756290266,160 L 73.41279207611298,160 L 74.90059495691021,160 L 74.92863999820487,160 L 74.96028699049009,160 L 76.44982812624298,160 L 76.4724433608205,160 L 76.50781774517557,160 L 78.0010683528441,160 L 78.03199853896203,160 L 78.06832269148873,160 L 79.55150217250704,160 L 79.57811360146715,160 L 79.61001147591091,160 L 81.09749179393287,57.14285714285715 L 81.12338641672571,57.14285714285715 L 81.15669998334985,57.14285714285715 L 82.64258540764962,57.14285714285715 L 82.668336669209,57.14285714285715 L 82.70363937294732,57.14285714285715 L 84.18332442390016,57.14285714285715 L 84.21848376640503,57.14285714285715 L 84.25414487322699,57.14285714285715 L 85.74062166261477,57.14285714285715 L 85.76262761195014,57.14285714285715 L 85.79563653595318,57.14285714285715 L 87.28840329945879,57.14285714285715 L 87.31436960286835,57.14285714285715 L 87.3480594927303,57.14285714285715 L 88.83140025513626,57.14285714285715 L 88.87087835479895,57.14285714285715 L 88.9043711229649,57.14285714285715 L 90.38572274825667,57.14285714285715 L 90.4183374288677,57.14285714285715 L 90.45145387379584,57.14285714285715 L 91.93730345778724,57.14285714285715 L 91.96730179588772,57.14285714285715 L 92.00005983773224,57.14285714285715 L 93.48207450872872,57.14285714285715 L 93.51298677469248,57.14285714285715 L 93.54497424990716,57.14285714285715 L 95.028798856476,57.14285714285715 L 95.05983656351904,57.14285714285715 L 95.094314940165,57.14285714285715 L 96.57989572184368,57.14285714285715 L 96.61509090465691,57.14285714285715 L 96.64901375652323,57.14285714285715 L 98.12721143467898,57.14285714285715 L 98.15713809216274,57.14285714285715 L 98.18478889006539,57.14285714285715 L 99.67997487438556,57.14285714285715 L 99.71176522790424,57.14285714285715 L 99.7467453688673,57.14285714285715 L 101.22383199746376,57.14285714285715 L 101.25589115329515,57.14285714285715 L 101.29241242751785,57.14285714285715 L 102.77258132263361,57.14285714285715 L 102.80265134135081,57.14285714285715 L 102.83567818550804,57.14285714285715 L 104.32159945011618,57.14285714285715 L 104.34880224416429,57.14285714285715 L 104.38458879206553,57.14285714285715 L 105.87072509852385,57.14285714285715 L 105.89979158860687,57.14285714285715 L 105.92959280501135,57.14285714285715 L 107.4204600321737,57.14285714285715 L 107.44547656741162,57.14285714285715 L 107.47785828601829,57.14285714285715 L 108.96395875216824,57.14285714285715 L 108.98779255723016,57.14285714285715 L 109.01562255667464,57.14285714285715 L 110.51541402061956,57.14285714285715 L 110.54279601620948,57.14285714285715 L 110.57906640827363,57.14285714285715 L 112.06289101484249,57.14285714285715 L 112.09086437552043,57.14285714285715 L 112.12510979016201,57.14285714285715 L 113.60561916820723,57.14285714285715 L 113.6312629088415,57.14285714285715 L 113.66511408009109,57.14285714285715 L 115.15062318115305,57.14285714285715 L 115.18336330284336,57.14285714285715 L 115.21604966407114,57.14285714285715 L 116.70505319519856,57.14285714285715 L 116.73101949860812,57.14285714285715 L 116.76229016765551,57.14285714285715 L 118.25455516684406,57.14285714285715 L 118.28055731056196,57.14285714285715 L 118.31195342068864,57.14285714285715 L 119.79955917978988,57.14285714285715 L 119.82919911480671,57.14285714285715 L 119.86043394354576,57.14285714285715 L 121.35284230396773,57.14285714285715 L 121.38104862665003,57.14285714285715 L 121.41450555450763,57.14285714285715 L 122.9021650740714,57.14285714285715 L 122.92797009609332,57.14285714285715 L 122.96418672769494,57.14285714285715 L 124.4459146762245,57.14285714285715 L 124.4714508959337,57.14285714285715 L 124.50205851927636,57.14285714285715 L 125.99391135491871,57.14285714285715 L 126.01969845678646,57.14285714285715 L 126.05086160490875,57.14285714285715 L 127.5439150908813,57.14285714285715 L 127.56538343559119,57.14285714285715 L 127.5961523403215,57.14285714285715 L 129.09209097111733,57.14285714285715 L 129.1171433466636,57.14285714285715 L 129.13791280536043,57.14285714285715 L 130.6383135545475,57.14285714285715 L 130.6621831999178,57.14285714285715 L 130.69237865971428,57.14285714285715 L 132.18272620240532,57.14285714285715 L 132.21862027123166,57.14285714285715 L 132.25114535107178,57.14285714285715 L 133.73762214045956,57.14285714285715 L 133.76428732988222,57.14285714285715 L 133.79552215862128,57.14285714285715 L 135.28624602455017,57.14285714285715 L 135.3123198488848,57.14285714285715 L 135.33749766551034,57.14285714285715 L 136.83623184035855,57.14285714285715 L 136.85859619277755,57.14285714285715 L 136.88463417680384,57.14285714285715 L 138.3802323246702,57.14285714285715 L 138.40573270407103,57.14285714285715 L 138.43444079107041,57.14285714285715 L 139.93102454741677,57.14285714285715 L 139.95324553860235,57.14285714285715 L 139.9840323634868,57.14285714285715 L 141.46828705375603,57.14285714285715 L 141.50188734284706,57.14285714285715 L 141.5328354491192,57.14285714285715 L 143.02802143343936,57.14285714285715 L 143.05676536074714,57.14285714285715 L 143.0859752120636,57.14285714285715 L 144.5772008423096,57.14285714285715 L 144.60714541994753,57.14285714285715 L 144.64083530980946,57.14285714285715 L 146.12059204137904,57.14285714285715 L 146.14573401769624,57.14285714285715 L 146.17451378531234,57.14285714285715 L 147.66926968593216,57.14285714285715 L 147.68797832689808,57.14285714285715 L 147.72089765013018,57.14285714285715 L 149.21866413665256,57.14285714285715 L 149.24126145107593,57.14285714285715 L 149.27199451549785,57.14285714285715 L 150.76863203230675,57.14285714285715 L 150.7912651870385,57.14285714285715 L 150.81816333846552,57.14285714285715 L 152.3143349312657,40 L 152.3372906487727,40 L 152.36675138224774,40 L 153.8641236253781,40 L 153.88793951028583,40 L 153.92114555598488,40 L 155.40357239052753,40 L 155.43690387730584,40 L 155.46953647807106,40 L 156.96137139355926,40 L 156.97887938419495,40 L 157.00873436106195,40 L 158.50687717082215,40 L 158.53137402158882,40 L 158.56359445880784,40 L 160.04887059786543,40 L 160.08101935446774,40 L 160.10974536162132,40 L 161.60405325838659,40 L 161.62933859593724,40 L 161.65709691476496,40 L 163.15015040073752,40 L 163.17495189412523,40 L 163.20002218982572,40 L 163.23975117164696,40 L 164.70404281015757,40 L 164.73020623526313,40 L 164.75740902931122,40 L 166.25128684237612,40 L 166.27737858686496,40 L 166.30588955216834,40 L 167.7987996769074,40 L 167.82281268351116,40 L 167.85021259925526,40 L 169.3425492790605,40 L 169.37140072729338,40 L 170.9017281339642,40 L 170.91925404475413,40 L 170.94706612404443,40 L 172.4423237889813,40 L 172.46699984128978,40 L 172.49749994370734,40 L 173.9902487870588,40 L 174.01433347427925,40 L 174.0414108272481,40 L 175.54125605165555,40 L 175.56709691398584,40 L 175.59947863259254,40 L 177.09117018684722,40 L 177.11901810644588,40 L 177.1457191361769,40 L 178.64205201036472,40 L 178.6591836777626,40 L 178.6881964073831,40 L 180.18497728542545,40 L 180.2073774781528,40 L 180.23307497924964,40 L 181.73295604396546,40 L 181.75383302358736,40 L 181.7854979360268,40 L 183.28057639942185,40 L 183.30347835646631,40 L 183.33333333333334,40" stroke="#22c55e" stroke-width="2" fill="none" stroke-dasharray="15000" stroke-dashoffset="15000">
      <animate attributeName="stroke-dashoffset" values="15000;0" dur="3s" begin="2.6s" fill="freeze"/>
    </path>
    
    <!-- Glow effect for the line that also follows the circle -->
    <path d="M 30,160 L 30.026199265413922,160 L 30.058921466950054,160 L 31.547871237614935,160 L 31.57683020677287,160 L 31.606398461172986,160 L 33.0962083992386,160 L 33.122443504960884,160 L 33.15398297632101,160 L 34.64834463354882,160 L 34.67764408563621,160 L 34.7084309105207,160 L 36.19727316026049,160 L 36.22282730012386,160 L 36.25486853580108,160 L 37.74423047001214,160 L 37.767114506902416,160 L 37.794998266809436,160 L 39.291080258838704,160 L 39.319591224142094,160 L 39.34820971037057,160 L 40.83739244303982,160 L 40.86484611924647,160 L 40.89627806968151,160 L 42.38413471094129,160 L 42.41001141357994,160 L 42.44481235300117,160 L 43.92800975417366,160 L 43.95910122167924,160 L 43.99010308841391,160 L 45.48491274949627,160 L 45.51460644497566,160 L 45.54788417129143,160 L 47.03557953116358,160 L 47.06054230593895,160 L 47.09398131364236,160 L 48.58042226272177,160 L 48.61439887505064,160 L 48.65020334310606,160 L 50.1289923863498,160 L 50.15472572775499,160 L 50.18642648050276,160 L 51.68005341140911,160 L 51.70223856228629,160 L 51.73460236073878,160 L 53.22405389572076,160 L 53.250450282830684,160 L 53.28173887203226,160 L 54.77178177210223,160 L 54.79837528090816,160 L 54.82935922748865,160 L 56.32465273273391,160 L 56.351855526782025,160 L 56.387713755299984,160 L 57.870660274313934,160 L 57.9039380006297,160 L 57.9257109879607,160 L 59.41768926468231,160 L 59.443960210712966,160 L 59.47653905101564,160 L 60.960704140513954,160 L 60.995971003943914,160 L 61.02630982497385,160 L 62.51594056149765,160 L 62.54303583462067,160 L 62.57504122998952,160 L 64.0656754951475,160 L 64.09223316364506,160 L 64.12115629249463,160 L 65.61388721569189,160 L 65.64109000974,160 L 65.66965473550593,160 L 67.16140005022318,160 L 67.1934412859004,160 L 67.22641436959509,160 L 68.70930712814648,160 L 68.73894706316332,160 L 68.77236815071254,160 L 70.24893509483775,160 L 70.28857447588808,160 L 70.32106371541985,160 L 71.80582017000617,160 L 71.83422361438446,160 L 71.86510004003986,160 L 73.35442613394255,160 L 73.38103756290266,160 L 73.41279207611298,160 L 74.90059495691021,160 L 74.92863999820487,160 L 74.96028699049009,160 L 76.44982812624298,160 L 76.4724433608205,160 L 76.50781774517557,160 L 78.0010683528441,160 L 78.03199853896203,160 L 78.06832269148873,160 L 79.55150217250704,160 L 79.57811360146715,160 L 79.61001147591091,160 L 81.09749179393287,57.14285714285715 L 81.12338641672571,57.14285714285715 L 81.15669998334985,57.14285714285715 L 82.64258540764962,57.14285714285715 L 82.668336669209,57.14285714285715 L 82.70363937294732,57.14285714285715 L 84.18332442390016,57.14285714285715 L 84.21848376640503,57.14285714285715 L 84.25414487322699,57.14285714285715 L 85.74062166261477,57.14285714285715 L 85.76262761195014,57.14285714285715 L 85.79563653595318,57.14285714285715 L 87.28840329945879,57.14285714285715 L 87.31436960286835,57.14285714285715 L 87.3480594927303,57.14285714285715 L 88.83140025513626,57.14285714285715 L 88.87087835479895,57.14285714285715 L 88.9043711229649,57.14285714285715 L 90.38572274825667,57.14285714285715 L 90.4183374288677,57.14285714285715 L 90.45145387379584,57.14285714285715 L 91.93730345778724,57.14285714285715 L 91.96730179588772,57.14285714285715 L 92.00005983773224,57.14285714285715 L 93.48207450872872,57.14285714285715 L 93.51298677469248,57.14285714285715 L 93.54497424990716,57.14285714285715 L 95.028798856476,57.14285714285715 L 95.05983656351904,57.14285714285715 L 95.094314940165,57.14285714285715 L 96.57989572184368,57.14285714285715 L 96.61509090465691,57.14285714285715 L 96.64901375652323,57.14285714285715 L 98.12721143467898,57.14285714285715 L 98.15713809216274,57.14285714285715 L 98.18478889006539,57.14285714285715 L 99.67997487438556,57.14285714285715 L 99.71176522790424,57.14285714285715 L 99.7467453688673,57.14285714285715 L 101.22383199746376,57.14285714285715 L 101.25589115329515,57.14285714285715 L 101.29241242751785,57.14285714285715 L 102.77258132263361,57.14285714285715 L 102.80265134135081,57.14285714285715 L 102.83567818550804,57.14285714285715 L 104.32159945011618,57.14285714285715 L 104.34880224416429,57.14285714285715 L 104.38458879206553,57.14285714285715 L 105.87072509852385,57.14285714285715 L 105.89979158860687,57.14285714285715 L 105.92959280501135,57.14285714285715 L 107.4204600321737,57.14285714285715 L 107.44547656741162,57.14285714285715 L 107.47785828601829,57.14285714285715 L 108.96395875216824,57.14285714285715 L 108.98779255723016,57.14285714285715 L 109.01562255667464,57.14285714285715 L 110.51541402061956,57.14285714285715 L 110.54279601620948,57.14285714285715 L 110.57906640827363,57.14285714285715 L 112.06289101484249,57.14285714285715 L 112.09086437552043,57.14285714285715 L 112.12510979016201,57.14285714285715 L 113.60561916820723,57.14285714285715 L 113.6312629088415,57.14285714285715 L 113.66511408009109,57.14285714285715 L 115.15062318115305,57.14285714285715 L 115.18336330284336,57.14285714285715 L 115.21604966407114,57.14285714285715 L 116.70505319519856,57.14285714285715 L 116.73101949860812,57.14285714285715 L 116.76229016765551,57.14285714285715 L 118.25455516684406,57.14285714285715 L 118.28055731056196,57.14285714285715 L 118.31195342068864,57.14285714285715 L 119.79955917978988,57.14285714285715 L 119.82919911480671,57.14285714285715 L 119.86043394354576,57.14285714285715 L 121.35284230396773,57.14285714285715 L 121.38104862665003,57.14285714285715 L 121.41450555450763,57.14285714285715 L 122.9021650740714,57.14285714285715 L 122.92797009609332,57.14285714285715 L 122.96418672769494,57.14285714285715 L 124.4459146762245,57.14285714285715 L 124.4714508959337,57.14285714285715 L 124.50205851927636,57.14285714285715 L 125.99391135491871,57.14285714285715 L 126.01969845678646,57.14285714285715 L 126.05086160490875,57.14285714285715 L 127.5439150908813,57.14285714285715 L 127.56538343559119,57.14285714285715 L 127.5961523403215,57.14285714285715 L 129.09209097111733,57.14285714285715 L 129.1171433466636,57.14285714285715 L 129.13791280536043,57.14285714285715 L 130.6383135545475,57.14285714285715 L 130.6621831999178,57.14285714285715 L 130.69237865971428,57.14285714285715 L 132.18272620240532,57.14285714285715 L 132.21862027123166,57.14285714285715 L 132.25114535107178,57.14285714285715 L 133.73762214045956,57.14285714285715 L 133.76428732988222,57.14285714285715 L 133.79552215862128,57.14285714285715 L 135.28624602455017,57.14285714285715 L 135.3123198488848,57.14285714285715 L 135.33749766551034,57.14285714285715 L 136.83623184035855,57.14285714285715 L 136.85859619277755,57.14285714285715 L 136.88463417680384,57.14285714285715 L 138.3802323246702,57.14285714285715 L 138.40573270407103,57.14285714285715 L 138.43444079107041,57.14285714285715 L 139.93102454741677,57.14285714285715 L 139.95324553860235,57.14285714285715 L 139.9840323634868,57.14285714285715 L 141.46828705375603,57.14285714285715 L 141.50188734284706,57.14285714285715 L 141.5328354491192,57.14285714285715 L 143.02802143343936,57.14285714285715 L 143.05676536074714,57.14285714285715 L 143.0859752120636,57.14285714285715 L 144.5772008423096,57.14285714285715 L 144.60714541994753,57.14285714285715 L 144.64083530980946,57.14285714285715 L 146.12059204137904,57.14285714285715 L 146.14573401769624,57.14285714285715 L 146.17451378531234,57.14285714285715 L 147.66926968593216,57.14285714285715 L 147.68797832689808,57.14285714285715 L 147.72089765013018,57.14285714285715 L 149.21866413665256,57.14285714285715 L 149.24126145107593,57.14285714285715 L 149.27199451549785,57.14285714285715 L 150.76863203230675,57.14285714285715 L 150.7912651870385,57.14285714285715 L 150.81816333846552,57.14285714285715 L 152.3143349312657,40 L 152.3372906487727,40 L 152.36675138224774,40 L 153.8641236253781,40 L 153.88793951028583,40 L 153.92114555598488,40 L 155.40357239052753,40 L 155.43690387730584,40 L 155.46953647807106,40 L 156.96137139355926,40 L 156.97887938419495,40 L 157.00873436106195,40 L 158.50687717082215,40 L 158.53137402158882,40 L 158.56359445880784,40 L 160.04887059786543,40 L 160.08101935446774,40 L 160.10974536162132,40 L 161.60405325838659,40 L 161.62933859593724,40 L 161.65709691476496,40 L 163.15015040073752,40 L 163.17495189412523,40 L 163.20002218982572,40 L 163.23975117164696,40 L 164.70404281015757,40 L 164.73020623526313,40 L 164.75740902931122,40 L 166.25128684237612,40 L 166.27737858686496,40 L 166.30588955216834,40 L 167.7987996769074,40 L 167.82281268351116,40 L 167.85021259925526,40 L 169.3425492790605,40 L 169.37140072729338,40 L 170.9017281339642,40 L 170.91925404475413,40 L 170.94706612404443,40 L 172.4423237889813,40 L 172.46699984128978,40 L 172.49749994370734,40 L 173.9902487870588,40 L 174.01433347427925,40 L 174.0414108272481,40 L 175.54125605165555,40 L 175.56709691398584,40 L 175.59947863259254,40 L 177.09117018684722,40 L 177.11901810644588,40 L 177.1457191361769,40 L 178.64205201036472,40 L 178.6591836777626,40 L 178.6881964073831,40 L 180.18497728542545,40 L 180.2073774781528,40 L 180.23307497924964,40 L 181.73295604396546,40 L 181.75383302358736,40 L 181.7854979360268,40 L 183.28057639942185,40 L 183.30347835646631,40 L 183.33333333333334,40" stroke="#22c55e" stroke-width="4" fill="none" opacity="0.4" stroke-dasharray="15000" stroke-dashoffset="15000">
      <animate attributeName="stroke-dashoffset" values="15000;0" dur="3s" begin="2.6s" fill="freeze"/>
    </path>
    
    <!-- Animated circle that moves along the path and draws the line -->
    <circle r="5" fill="#22c55e" opacity="0" filter="url(#trailGlow)">
      <animate attributeName="opacity" values="0;1;1;1" dur="3.2s" begin="2.4s" fill="freeze"/>
      <animate attributeName="r" values="5;6;5" dur="1s" begin="2.4s" repeatCount="3"/>
      <animateMotion dur="3s" begin="2.4s" fill="freeze">
        <mpath href="#path_followersCount_60"/>
      </animateMotion>
    </circle>
    
    <!-- Small trail dots that fade out -->
    <circle r="2" fill="#22c55e" opacity="0">
      <animate attributeName="opacity" values="0;0.6;0" dur="0.8s" begin="2.8s" fill="freeze"/>
      <animateMotion dur="3s" begin="2.4s" fill="freeze">
        <mpath href="#path_followersCount_60"/>
      </animateMotion>
    </circle>
    
    <!-- Hidden path for motion animation -->
    <path id="path_followersCount_60" d="M 30,160 L 30.026199265413922,160 L 30.058921466950054,160 L 31.547871237614935,160 L 31.57683020677287,160 L 31.606398461172986,160 L 33.0962083992386,160 L 33.122443504960884,160 L 33.15398297632101,160 L 34.64834463354882,160 L 34.67764408563621,160 L 34.7084309105207,160 L 36.19727316026049,160 L 36.22282730012386,160 L 36.25486853580108,160 L 37.74423047001214,160 L 37.767114506902416,160 L 37.794998266809436,160 L 39.291080258838704,160 L 39.319591224142094,160 L 39.34820971037057,160 L 40.83739244303982,160 L 40.86484611924647,160 L 40.89627806968151,160 L 42.38413471094129,160 L 42.41001141357994,160 L 42.44481235300117,160 L 43.92800975417366,160 L 43.95910122167924,160 L 43.99010308841391,160 L 45.48491274949627,160 L 45.51460644497566,160 L 45.54788417129143,160 L 47.03557953116358,160 L 47.06054230593895,160 L 47.09398131364236,160 L 48.58042226272177,160 L 48.61439887505064,160 L 48.65020334310606,160 L 50.1289923863498,160 L 50.15472572775499,160 L 50.18642648050276,160 L 51.68005341140911,160 L 51.70223856228629,160 L 51.73460236073878,160 L 53.22405389572076,160 L 53.250450282830684,160 L 53.28173887203226,160 L 54.77178177210223,160 L 54.79837528090816,160 L 54.82935922748865,160 L 56.32465273273391,160 L 56.351855526782025,160 L 56.387713755299984,160 L 57.870660274313934,160 L 57.9039380006297,160 L 57.9257109879607,160 L 59.41768926468231,160 L 59.443960210712966,160 L 59.47653905101564,160 L 60.960704140513954,160 L 60.995971003943914,160 L 61.02630982497385,160 L 62.51594056149765,160 L 62.54303583462067,160 L 62.57504122998952,160 L 64.0656754951475,160 L 64.09223316364506,160 L 64.12115629249463,160 L 65.61388721569189,160 L 65.64109000974,160 L 65.66965473550593,160 L 67.16140005022318,160 L 67.1934412859004,160 L 67.22641436959509,160 L 68.70930712814648,160 L 68.73894706316332,160 L 68.77236815071254,160 L 70.24893509483775,160 L 70.28857447588808,160 L 70.32106371541985,160 L 71.80582017000617,160 L 71.83422361438446,160 L 71.86510004003986,160 L 73.35442613394255,160 L 73.38103756290266,160 L 73.41279207611298,160 L 74.90059495691021,160 L 74.92863999820487,160 L 74.96028699049009,160 L 76.44982812624298,160 L 76.4724433608205,160 L 76.50781774517557,160 L 78.0010683528441,160 L 78.03199853896203,160 L 78.06832269148873,160 L 79.55150217250704,160 L 79.57811360146715,160 L 79.61001147591091,160 L 81.09749179393287,57.14285714285715 L 81.12338641672571,57.14285714285715 L 81.15669998334985,57.14285714285715 L 82.64258540764962,57.14285714285715 L 82.668336669209,57.14285714285715 L 82.70363937294732,57.14285714285715 L 84.18332442390016,57.14285714285715 L 84.21848376640503,57.14285714285715 L 84.25414487322699,57.14285714285715 L 85.74062166261477,57.14285714285715 L 85.76262761195014,57.14285714285715 L 85.79563653595318,57.14285714285715 L 87.28840329945879,57.14285714285715 L 87.31436960286835,57.14285714285715 L 87.3480594927303,57.14285714285715 L 88.83140025513626,57.14285714285715 L 88.87087835479895,57.14285714285715 L 88.9043711229649,57.14285714285715 L 90.38572274825667,57.14285714285715 L 90.4183374288677,57.14285714285715 L 90.45145387379584,57.14285714285715 L 91.93730345778724,57.14285714285715 L 91.96730179588772,57.14285714285715 L 92.00005983773224,57.14285714285715 L 93.48207450872872,57.14285714285715 L 93.51298677469248,57.14285714285715 L 93.54497424990716,57.14285714285715 L 95.028798856476,57.14285714285715 L 95.05983656351904,57.14285714285715 L 95.094314940165,57.14285714285715 L 96.57989572184368,57.14285714285715 L 96.61509090465691,57.14285714285715 L 96.64901375652323,57.14285714285715 L 98.12721143467898,57.14285714285715 L 98.15713809216274,57.14285714285715 L 98.18478889006539,57.14285714285715 L 99.67997487438556,57.14285714285715 L 99.71176522790424,57.14285714285715 L 99.7467453688673,57.14285714285715 L 101.22383199746376,57.14285714285715 L 101.25589115329515,57.14285714285715 L 101.29241242751785,57.14285714285715 L 102.77258132263361,57.14285714285715 L 102.80265134135081,57.14285714285715 L 102.83567818550804,57.14285714285715 L 104.32159945011618,57.14285714285715 L 104.34880224416429,57.14285714285715 L 104.38458879206553,57.14285714285715 L 105.87072509852385,57.14285714285715 L 105.89979158860687,57.14285714285715 L 105.92959280501135,57.14285714285715 L 107.4204600321737,57.14285714285715 L 107.44547656741162,57.14285714285715 L 107.47785828601829,57.14285714285715 L 108.96395875216824,57.14285714285715 L 108.98779255723016,57.14285714285715 L 109.01562255667464,57.14285714285715 L 110.51541402061956,57.14285714285715 L 110.54279601620948,57.14285714285715 L 110.57906640827363,57.14285714285715 L 112.06289101484249,57.14285714285715 L 112.09086437552043,57.14285714285715 L 112.12510979016201,57.14285714285715 L 113.60561916820723,57.14285714285715 L 113.6312629088415,57.14285714285715 L 113.66511408009109,57.14285714285715 L 115.15062318115305,57.14285714285715 L 115.18336330284336,57.14285714285715 L 115.21604966407114,57.14285714285715 L 116.70505319519856,57.14285714285715 L 116.73101949860812,57.14285714285715 L 116.76229016765551,57.14285714285715 L 118.25455516684406,57.14285714285715 L 118.28055731056196,57.14285714285715 L 118.31195342068864,57.14285714285715 L 119.79955917978988,57.14285714285715 L 119.82919911480671,57.14285714285715 L 119.86043394354576,57.14285714285715 L 121.35284230396773,57.14285714285715 L 121.38104862665003,57.14285714285715 L 121.41450555450763,57.14285714285715 L 122.9021650740714,57.14285714285715 L 122.92797009609332,57.14285714285715 L 122.96418672769494,57.14285714285715 L 124.4459146762245,57.14285714285715 L 124.4714508959337,57.14285714285715 L 124.50205851927636,57.14285714285715 L 125.99391135491871,57.14285714285715 L 126.01969845678646,57.14285714285715 L 126.05086160490875,57.14285714285715 L 127.5439150908813,57.14285714285715 L 127.56538343559119,57.14285714285715 L 127.5961523403215,57.14285714285715 L 129.09209097111733,57.14285714285715 L 129.1171433466636,57.14285714285715 L 129.13791280536043,57.14285714285715 L 130.6383135545475,57.14285714285715 L 130.6621831999178,57.14285714285715 L 130.69237865971428,57.14285714285715 L 132.18272620240532,57.14285714285715 L 132.21862027123166,57.14285714285715 L 132.25114535107178,57.14285714285715 L 133.73762214045956,57.14285714285715 L 133.76428732988222,57.14285714285715 L 133.79552215862128,57.14285714285715 L 135.28624602455017,57.14285714285715 L 135.3123198488848,57.14285714285715 L 135.33749766551034,57.14285714285715 L 136.83623184035855,57.14285714285715 L 136.85859619277755,57.14285714285715 L 136.88463417680384,57.14285714285715 L 138.3802323246702,57.14285714285715 L 138.40573270407103,57.14285714285715 L 138.43444079107041,57.14285714285715 L 139.93102454741677,57.14285714285715 L 139.95324553860235,57.14285714285715 L 139.9840323634868,57.14285714285715 L 141.46828705375603,57.14285714285715 L 141.50188734284706,57.14285714285715 L 141.5328354491192,57.14285714285715 L 143.02802143343936,57.14285714285715 L 143.05676536074714,57.14285714285715 L 143.0859752120636,57.14285714285715 L 144.5772008423096,57.14285714285715 L 144.60714541994753,57.14285714285715 L 144.64083530980946,57.14285714285715 L 146.12059204137904,57.14285714285715 L 146.14573401769624,57.14285714285715 L 146.17451378531234,57.14285714285715 L 147.66926968593216,57.14285714285715 L 147.68797832689808,57.14285714285715 L 147.72089765013018,57.14285714285715 L 149.21866413665256,57.14285714285715 L 149.24126145107593,57.14285714285715 L 149.27199451549785,57.14285714285715 L 150.76863203230675,57.14285714285715 L 150.7912651870385,57.14285714285715 L 150.81816333846552,57.14285714285715 L 152.3143349312657,40 L 152.3372906487727,40 L 152.36675138224774,40 L 153.8641236253781,40 L 153.88793951028583,40 L 153.92114555598488,40 L 155.40357239052753,40 L 155.43690387730584,40 L 155.46953647807106,40 L 156.96137139355926,40 L 156.97887938419495,40 L 157.00873436106195,40 L 158.50687717082215,40 L 158.53137402158882,40 L 158.56359445880784,40 L 160.04887059786543,40 L 160.08101935446774,40 L 160.10974536162132,40 L 161.60405325838659,40 L 161.62933859593724,40 L 161.65709691476496,40 L 163.15015040073752,40 L 163.17495189412523,40 L 163.20002218982572,40 L 163.23975117164696,40 L 164.70404281015757,40 L 164.73020623526313,40 L 164.75740902931122,40 L 166.25128684237612,40 L 166.27737858686496,40 L 166.30588955216834,40 L 167.7987996769074,40 L 167.82281268351116,40 L 167.85021259925526,40 L 169.3425492790605,40 L 169.37140072729338,40 L 170.9017281339642,40 L 170.91925404475413,40 L 170.94706612404443,40 L 172.4423237889813,40 L 172.46699984128978,40 L 172.49749994370734,40 L 173.9902487870588,40 L 174.01433347427925,40 L 174.0414108272481,40 L 175.54125605165555,40 L 175.56709691398584,40 L 175.59947863259254,40 L 177.09117018684722,40 L 177.11901810644588,40 L 177.1457191361769,40 L 178.64205201036472,40 L 178.6591836777626,40 L 178.6881964073831,40 L 180.18497728542545,40 L 180.2073774781528,40 L 180.23307497924964,40 L 181.73295604396546,40 L 181.75383302358736,40 L 181.7854979360268,40 L 183.28057639942185,40 L 183.30347835646631,40 L 183.33333333333334,40" fill="none" stroke="none"/>
  </g>
  <!-- 🔓 Public Contributions Chart -->
  <g transform="translate(293.33333333333337, 250)">
    <!-- Chart Background -->
    <rect x="0" y="0" width="213.33333333333334" height="200" fill="#0f172a" stroke="#334155" stroke-width="1" rx="8" filter="url(#shadow)">
      <animate attributeName="opacity" values="0;1" dur="0.5s" begin="2.3s" fill="freeze"/>
    </rect>
    
    <!-- Chart Title -->
    <text x="106.66666666666667" y="25" text-anchor="middle" fill="#f8fafc" font-size="14" font-weight="bold" font-family="Arial, sans-serif">
      🔓 Public Contributions
      <animate attributeName="opacity" values="0;1" dur="0.5s" begin="2.5s" fill="freeze"/>
    </text>
    
    <!-- Y-axis labels -->
    <text x="10" y="45" fill="#94a3b8" font-size="10" font-family="Arial, sans-serif">2,669
      <animate attributeName="opacity" values="0;1" dur="0.5s" begin="2.6999999999999997s" fill="freeze"/>
    </text>
    <text x="10" y="185" fill="#94a3b8" font-size="10" font-family="Arial, sans-serif">1,491
      <animate attributeName="opacity" values="0;1" dur="0.5s" begin="2.6999999999999997s" fill="freeze"/>
    </text>
    
    <!-- Chart Line with draw animation that follows the circle -->
    <path d="M 30,160 L 30.026199265413922,160 L 30.058921466950054,160 L 31.547871237614935,160 L 31.57683020677287,160 L 31.606398461172986,160 L 33.0962083992386,160 L 33.122443504960884,160 L 33.15398297632101,160 L 34.64834463354882,160 L 34.67764408563621,160 L 34.7084309105207,160 L 36.19727316026049,160 L 36.22282730012386,160 L 36.25486853580108,160 L 37.74423047001214,160 L 37.767114506902416,160 L 37.794998266809436,160 L 39.291080258838704,160 L 39.319591224142094,160 L 39.34820971037057,160 L 40.83739244303982,160 L 40.86484611924647,160 L 40.89627806968151,160 L 42.38413471094129,160 L 42.41001141357994,160 L 42.44481235300117,160 L 43.92800975417366,160 L 43.95910122167924,160 L 43.99010308841391,160 L 45.48491274949627,160 L 45.51460644497566,160 L 45.54788417129143,160 L 47.03557953116358,160 L 47.06054230593895,160 L 47.09398131364236,160 L 48.58042226272177,160 L 48.61439887505064,160 L 48.65020334310606,160 L 50.1289923863498,160 L 50.15472572775499,160 L 50.18642648050276,160 L 51.68005341140911,160 L 51.70223856228629,160 L 51.73460236073878,160 L 53.22405389572076,160 L 53.250450282830684,160 L 53.28173887203226,160 L 54.77178177210223,160 L 54.79837528090816,160 L 54.82935922748865,160 L 56.32465273273391,160 L 56.351855526782025,160 L 56.387713755299984,160 L 57.870660274313934,160 L 57.9039380006297,160 L 57.9257109879607,160 L 59.41768926468231,160 L 59.443960210712966,160 L 59.47653905101564,160 L 60.960704140513954,160 L 60.995971003943914,160 L 61.02630982497385,160 L 62.51594056149765,160 L 62.54303583462067,160 L 62.57504122998952,160 L 64.0656754951475,160 L 64.09223316364506,160 L 64.12115629249463,160 L 65.61388721569189,160 L 65.64109000974,160 L 65.66965473550593,160 L 67.16140005022318,160 L 67.1934412859004,160 L 67.22641436959509,160 L 68.70930712814648,160 L 68.73894706316332,160 L 68.77236815071254,160 L 70.24893509483775,160 L 70.28857447588808,160 L 70.32106371541985,160 L 71.80582017000617,160 L 71.83422361438446,160 L 71.86510004003986,160 L 73.35442613394255,160 L 73.38103756290266,160 L 73.41279207611298,160 L 74.90059495691021,160 L 74.92863999820487,160 L 74.96028699049009,160 L 76.44982812624298,160 L 76.4724433608205,160 L 76.50781774517557,160 L 78.0010683528441,160 L 78.03199853896203,160 L 78.06832269148873,160 L 79.55150217250704,160 L 79.57811360146715,160 L 79.61001147591091,160 L 81.09749179393287,133.3106960950764 L 81.12338641672571,133.3106960950764 L 81.15669998334985,133.3106960950764 L 82.64258540764962,133.3106960950764 L 82.668336669209,133.3106960950764 L 82.70363937294732,133.3106960950764 L 84.18332442390016,133.3106960950764 L 84.21848376640503,133.3106960950764 L 84.25414487322699,133.3106960950764 L 85.74062166261477,133.3106960950764 L 85.76262761195014,133.3106960950764 L 85.79563653595318,133.3106960950764 L 87.28840329945879,133.3106960950764 L 87.31436960286835,133.3106960950764 L 87.3480594927303,133.3106960950764 L 88.83140025513626,133.3106960950764 L 88.87087835479895,133.3106960950764 L 88.9043711229649,133.3106960950764 L 90.38572274825667,133.3106960950764 L 90.4183374288677,133.3106960950764 L 90.45145387379584,133.3106960950764 L 91.93730345778724,133.3106960950764 L 91.96730179588772,133.3106960950764 L 92.00005983773224,133.3106960950764 L 93.48207450872872,133.3106960950764 L 93.51298677469248,133.3106960950764 L 93.54497424990716,133.3106960950764 L 95.028798856476,133.3106960950764 L 95.05983656351904,133.3106960950764 L 95.094314940165,133.3106960950764 L 96.57989572184368,133.3106960950764 L 96.61509090465691,133.3106960950764 L 96.64901375652323,133.3106960950764 L 98.12721143467898,133.3106960950764 L 98.15713809216274,133.3106960950764 L 98.18478889006539,133.3106960950764 L 99.67997487438556,133.3106960950764 L 99.71176522790424,133.3106960950764 L 99.7467453688673,133.3106960950764 L 101.22383199746376,133.3106960950764 L 101.25589115329515,133.3106960950764 L 101.29241242751785,133.3106960950764 L 102.77258132263361,133.3106960950764 L 102.80265134135081,133.3106960950764 L 102.83567818550804,133.3106960950764 L 104.32159945011618,133.3106960950764 L 104.34880224416429,133.3106960950764 L 104.38458879206553,133.3106960950764 L 105.87072509852385,133.3106960950764 L 105.89979158860687,133.3106960950764 L 105.92959280501135,133.3106960950764 L 107.4204600321737,133.3106960950764 L 107.44547656741162,133.3106960950764 L 107.47785828601829,133.3106960950764 L 108.96395875216824,133.3106960950764 L 108.98779255723016,133.3106960950764 L 109.01562255667464,133.3106960950764 L 110.51541402061956,133.3106960950764 L 110.54279601620948,133.3106960950764 L 110.57906640827363,133.3106960950764 L 112.06289101484249,133.3106960950764 L 112.09086437552043,133.3106960950764 L 112.12510979016201,133.3106960950764 L 113.60561916820723,133.3106960950764 L 113.6312629088415,133.3106960950764 L 113.66511408009109,133.3106960950764 L 115.15062318115305,133.3106960950764 L 115.18336330284336,133.3106960950764 L 115.21604966407114,133.3106960950764 L 116.70505319519856,133.3106960950764 L 116.73101949860812,133.3106960950764 L 116.76229016765551,133.3106960950764 L 118.25455516684406,133.3106960950764 L 118.28055731056196,133.3106960950764 L 118.31195342068864,133.3106960950764 L 119.79955917978988,133.3106960950764 L 119.82919911480671,133.3106960950764 L 119.86043394354576,133.3106960950764 L 121.35284230396773,133.3106960950764 L 121.38104862665003,133.3106960950764 L 121.41450555450763,133.3106960950764 L 122.9021650740714,133.3106960950764 L 122.92797009609332,133.3106960950764 L 122.96418672769494,133.3106960950764 L 124.4459146762245,133.3106960950764 L 124.4714508959337,133.3106960950764 L 124.50205851927636,133.3106960950764 L 125.99391135491871,133.3106960950764 L 126.01969845678646,133.3106960950764 L 126.05086160490875,133.3106960950764 L 127.5439150908813,133.3106960950764 L 127.56538343559119,133.3106960950764 L 127.5961523403215,133.3106960950764 L 129.09209097111733,133.3106960950764 L 129.1171433466636,133.3106960950764 L 129.13791280536043,133.3106960950764 L 130.6383135545475,133.3106960950764 L 130.6621831999178,133.3106960950764 L 130.69237865971428,133.3106960950764 L 132.18272620240532,133.3106960950764 L 132.21862027123166,133.3106960950764 L 132.25114535107178,133.3106960950764 L 133.73762214045956,133.3106960950764 L 133.76428732988222,133.3106960950764 L 133.79552215862128,133.3106960950764 L 135.28624602455017,133.3106960950764 L 135.3123198488848,133.3106960950764 L 135.33749766551034,133.3106960950764 L 136.83623184035855,133.3106960950764 L 136.85859619277755,133.3106960950764 L 136.88463417680384,133.3106960950764 L 138.3802323246702,133.3106960950764 L 138.40573270407103,133.3106960950764 L 138.43444079107041,133.3106960950764 L 139.93102454741677,133.3106960950764 L 139.95324553860235,133.3106960950764 L 139.9840323634868,133.3106960950764 L 141.46828705375603,133.3106960950764 L 141.50188734284706,133.3106960950764 L 141.5328354491192,133.3106960950764 L 143.02802143343936,133.3106960950764 L 143.05676536074714,133.3106960950764 L 143.0859752120636,133.3106960950764 L 144.5772008423096,133.3106960950764 L 144.60714541994753,133.3106960950764 L 144.64083530980946,133.3106960950764 L 146.12059204137904,133.3106960950764 L 146.14573401769624,133.3106960950764 L 146.17451378531234,133.3106960950764 L 147.66926968593216,133.3106960950764 L 147.68797832689808,133.3106960950764 L 147.72089765013018,133.3106960950764 L 149.21866413665256,133.3106960950764 L 149.24126145107593,133.3106960950764 L 149.27199451549785,133.3106960950764 L 150.76863203230675,133.3106960950764 L 150.7912651870385,133.3106960950764 L 150.81816333846552,133.3106960950764 L 152.3143349312657,40 L 152.3372906487727,40 L 152.36675138224774,40 L 153.8641236253781,40 L 153.88793951028583,40 L 153.92114555598488,40 L 155.40357239052753,40 L 155.43690387730584,40 L 155.46953647807106,40 L 156.96137139355926,40 L 156.97887938419495,40 L 157.00873436106195,40 L 158.50687717082215,40 L 158.53137402158882,40 L 158.56359445880784,40 L 160.04887059786543,40 L 160.08101935446774,40 L 160.10974536162132,40 L 161.60405325838659,40 L 161.62933859593724,40 L 161.65709691476496,40 L 163.15015040073752,40 L 163.17495189412523,40 L 163.20002218982572,40 L 163.23975117164696,40 L 164.70404281015757,40 L 164.73020623526313,40 L 164.75740902931122,40 L 166.25128684237612,40 L 166.27737858686496,40 L 166.30588955216834,40 L 167.7987996769074,40 L 167.82281268351116,40 L 167.85021259925526,40 L 169.3425492790605,40 L 169.37140072729338,40 L 170.9017281339642,40 L 170.91925404475413,40 L 170.94706612404443,40 L 172.4423237889813,40 L 172.46699984128978,40 L 172.49749994370734,40 L 173.9902487870588,40 L 174.01433347427925,40 L 174.0414108272481,40 L 175.54125605165555,40 L 175.56709691398584,40 L 175.59947863259254,40 L 177.09117018684722,40 L 177.11901810644588,40 L 177.1457191361769,40 L 178.64205201036472,40 L 178.6591836777626,40 L 178.6881964073831,40 L 180.18497728542545,40 L 180.2073774781528,40 L 180.23307497924964,40 L 181.73295604396546,40 L 181.75383302358736,40 L 181.7854979360268,40 L 183.28057639942185,40 L 183.30347835646631,40 L 183.33333333333334,40" stroke="#3b82f6" stroke-width="2" fill="none" stroke-dasharray="15000" stroke-dashoffset="15000">
      <animate attributeName="stroke-dashoffset" values="15000;0" dur="3s" begin="3.0999999999999996s" fill="freeze"/>
    </path>
    
    <!-- Glow effect for the line that also follows the circle -->
    <path d="M 30,160 L 30.026199265413922,160 L 30.058921466950054,160 L 31.547871237614935,160 L 31.57683020677287,160 L 31.606398461172986,160 L 33.0962083992386,160 L 33.122443504960884,160 L 33.15398297632101,160 L 34.64834463354882,160 L 34.67764408563621,160 L 34.7084309105207,160 L 36.19727316026049,160 L 36.22282730012386,160 L 36.25486853580108,160 L 37.74423047001214,160 L 37.767114506902416,160 L 37.794998266809436,160 L 39.291080258838704,160 L 39.319591224142094,160 L 39.34820971037057,160 L 40.83739244303982,160 L 40.86484611924647,160 L 40.89627806968151,160 L 42.38413471094129,160 L 42.41001141357994,160 L 42.44481235300117,160 L 43.92800975417366,160 L 43.95910122167924,160 L 43.99010308841391,160 L 45.48491274949627,160 L 45.51460644497566,160 L 45.54788417129143,160 L 47.03557953116358,160 L 47.06054230593895,160 L 47.09398131364236,160 L 48.58042226272177,160 L 48.61439887505064,160 L 48.65020334310606,160 L 50.1289923863498,160 L 50.15472572775499,160 L 50.18642648050276,160 L 51.68005341140911,160 L 51.70223856228629,160 L 51.73460236073878,160 L 53.22405389572076,160 L 53.250450282830684,160 L 53.28173887203226,160 L 54.77178177210223,160 L 54.79837528090816,160 L 54.82935922748865,160 L 56.32465273273391,160 L 56.351855526782025,160 L 56.387713755299984,160 L 57.870660274313934,160 L 57.9039380006297,160 L 57.9257109879607,160 L 59.41768926468231,160 L 59.443960210712966,160 L 59.47653905101564,160 L 60.960704140513954,160 L 60.995971003943914,160 L 61.02630982497385,160 L 62.51594056149765,160 L 62.54303583462067,160 L 62.57504122998952,160 L 64.0656754951475,160 L 64.09223316364506,160 L 64.12115629249463,160 L 65.61388721569189,160 L 65.64109000974,160 L 65.66965473550593,160 L 67.16140005022318,160 L 67.1934412859004,160 L 67.22641436959509,160 L 68.70930712814648,160 L 68.73894706316332,160 L 68.77236815071254,160 L 70.24893509483775,160 L 70.28857447588808,160 L 70.32106371541985,160 L 71.80582017000617,160 L 71.83422361438446,160 L 71.86510004003986,160 L 73.35442613394255,160 L 73.38103756290266,160 L 73.41279207611298,160 L 74.90059495691021,160 L 74.92863999820487,160 L 74.96028699049009,160 L 76.44982812624298,160 L 76.4724433608205,160 L 76.50781774517557,160 L 78.0010683528441,160 L 78.03199853896203,160 L 78.06832269148873,160 L 79.55150217250704,160 L 79.57811360146715,160 L 79.61001147591091,160 L 81.09749179393287,133.3106960950764 L 81.12338641672571,133.3106960950764 L 81.15669998334985,133.3106960950764 L 82.64258540764962,133.3106960950764 L 82.668336669209,133.3106960950764 L 82.70363937294732,133.3106960950764 L 84.18332442390016,133.3106960950764 L 84.21848376640503,133.3106960950764 L 84.25414487322699,133.3106960950764 L 85.74062166261477,133.3106960950764 L 85.76262761195014,133.3106960950764 L 85.79563653595318,133.3106960950764 L 87.28840329945879,133.3106960950764 L 87.31436960286835,133.3106960950764 L 87.3480594927303,133.3106960950764 L 88.83140025513626,133.3106960950764 L 88.87087835479895,133.3106960950764 L 88.9043711229649,133.3106960950764 L 90.38572274825667,133.3106960950764 L 90.4183374288677,133.3106960950764 L 90.45145387379584,133.3106960950764 L 91.93730345778724,133.3106960950764 L 91.96730179588772,133.3106960950764 L 92.00005983773224,133.3106960950764 L 93.48207450872872,133.3106960950764 L 93.51298677469248,133.3106960950764 L 93.54497424990716,133.3106960950764 L 95.028798856476,133.3106960950764 L 95.05983656351904,133.3106960950764 L 95.094314940165,133.3106960950764 L 96.57989572184368,133.3106960950764 L 96.61509090465691,133.3106960950764 L 96.64901375652323,133.3106960950764 L 98.12721143467898,133.3106960950764 L 98.15713809216274,133.3106960950764 L 98.18478889006539,133.3106960950764 L 99.67997487438556,133.3106960950764 L 99.71176522790424,133.3106960950764 L 99.7467453688673,133.3106960950764 L 101.22383199746376,133.3106960950764 L 101.25589115329515,133.3106960950764 L 101.29241242751785,133.3106960950764 L 102.77258132263361,133.3106960950764 L 102.80265134135081,133.3106960950764 L 102.83567818550804,133.3106960950764 L 104.32159945011618,133.3106960950764 L 104.34880224416429,133.3106960950764 L 104.38458879206553,133.3106960950764 L 105.87072509852385,133.3106960950764 L 105.89979158860687,133.3106960950764 L 105.92959280501135,133.3106960950764 L 107.4204600321737,133.3106960950764 L 107.44547656741162,133.3106960950764 L 107.47785828601829,133.3106960950764 L 108.96395875216824,133.3106960950764 L 108.98779255723016,133.3106960950764 L 109.01562255667464,133.3106960950764 L 110.51541402061956,133.3106960950764 L 110.54279601620948,133.3106960950764 L 110.57906640827363,133.3106960950764 L 112.06289101484249,133.3106960950764 L 112.09086437552043,133.3106960950764 L 112.12510979016201,133.3106960950764 L 113.60561916820723,133.3106960950764 L 113.6312629088415,133.3106960950764 L 113.66511408009109,133.3106960950764 L 115.15062318115305,133.3106960950764 L 115.18336330284336,133.3106960950764 L 115.21604966407114,133.3106960950764 L 116.70505319519856,133.3106960950764 L 116.73101949860812,133.3106960950764 L 116.76229016765551,133.3106960950764 L 118.25455516684406,133.3106960950764 L 118.28055731056196,133.3106960950764 L 118.31195342068864,133.3106960950764 L 119.79955917978988,133.3106960950764 L 119.82919911480671,133.3106960950764 L 119.86043394354576,133.3106960950764 L 121.35284230396773,133.3106960950764 L 121.38104862665003,133.3106960950764 L 121.41450555450763,133.3106960950764 L 122.9021650740714,133.3106960950764 L 122.92797009609332,133.3106960950764 L 122.96418672769494,133.3106960950764 L 124.4459146762245,133.3106960950764 L 124.4714508959337,133.3106960950764 L 124.50205851927636,133.3106960950764 L 125.99391135491871,133.3106960950764 L 126.01969845678646,133.3106960950764 L 126.05086160490875,133.3106960950764 L 127.5439150908813,133.3106960950764 L 127.56538343559119,133.3106960950764 L 127.5961523403215,133.3106960950764 L 129.09209097111733,133.3106960950764 L 129.1171433466636,133.3106960950764 L 129.13791280536043,133.3106960950764 L 130.6383135545475,133.3106960950764 L 130.6621831999178,133.3106960950764 L 130.69237865971428,133.3106960950764 L 132.18272620240532,133.3106960950764 L 132.21862027123166,133.3106960950764 L 132.25114535107178,133.3106960950764 L 133.73762214045956,133.3106960950764 L 133.76428732988222,133.3106960950764 L 133.79552215862128,133.3106960950764 L 135.28624602455017,133.3106960950764 L 135.3123198488848,133.3106960950764 L 135.33749766551034,133.3106960950764 L 136.83623184035855,133.3106960950764 L 136.85859619277755,133.3106960950764 L 136.88463417680384,133.3106960950764 L 138.3802323246702,133.3106960950764 L 138.40573270407103,133.3106960950764 L 138.43444079107041,133.3106960950764 L 139.93102454741677,133.3106960950764 L 139.95324553860235,133.3106960950764 L 139.9840323634868,133.3106960950764 L 141.46828705375603,133.3106960950764 L 141.50188734284706,133.3106960950764 L 141.5328354491192,133.3106960950764 L 143.02802143343936,133.3106960950764 L 143.05676536074714,133.3106960950764 L 143.0859752120636,133.3106960950764 L 144.5772008423096,133.3106960950764 L 144.60714541994753,133.3106960950764 L 144.64083530980946,133.3106960950764 L 146.12059204137904,133.3106960950764 L 146.14573401769624,133.3106960950764 L 146.17451378531234,133.3106960950764 L 147.66926968593216,133.3106960950764 L 147.68797832689808,133.3106960950764 L 147.72089765013018,133.3106960950764 L 149.21866413665256,133.3106960950764 L 149.24126145107593,133.3106960950764 L 149.27199451549785,133.3106960950764 L 150.76863203230675,133.3106960950764 L 150.7912651870385,133.3106960950764 L 150.81816333846552,133.3106960950764 L 152.3143349312657,40 L 152.3372906487727,40 L 152.36675138224774,40 L 153.8641236253781,40 L 153.88793951028583,40 L 153.92114555598488,40 L 155.40357239052753,40 L 155.43690387730584,40 L 155.46953647807106,40 L 156.96137139355926,40 L 156.97887938419495,40 L 157.00873436106195,40 L 158.50687717082215,40 L 158.53137402158882,40 L 158.56359445880784,40 L 160.04887059786543,40 L 160.08101935446774,40 L 160.10974536162132,40 L 161.60405325838659,40 L 161.62933859593724,40 L 161.65709691476496,40 L 163.15015040073752,40 L 163.17495189412523,40 L 163.20002218982572,40 L 163.23975117164696,40 L 164.70404281015757,40 L 164.73020623526313,40 L 164.75740902931122,40 L 166.25128684237612,40 L 166.27737858686496,40 L 166.30588955216834,40 L 167.7987996769074,40 L 167.82281268351116,40 L 167.85021259925526,40 L 169.3425492790605,40 L 169.37140072729338,40 L 170.9017281339642,40 L 170.91925404475413,40 L 170.94706612404443,40 L 172.4423237889813,40 L 172.46699984128978,40 L 172.49749994370734,40 L 173.9902487870588,40 L 174.01433347427925,40 L 174.0414108272481,40 L 175.54125605165555,40 L 175.56709691398584,40 L 175.59947863259254,40 L 177.09117018684722,40 L 177.11901810644588,40 L 177.1457191361769,40 L 178.64205201036472,40 L 178.6591836777626,40 L 178.6881964073831,40 L 180.18497728542545,40 L 180.2073774781528,40 L 180.23307497924964,40 L 181.73295604396546,40 L 181.75383302358736,40 L 181.7854979360268,40 L 183.28057639942185,40 L 183.30347835646631,40 L 183.33333333333334,40" stroke="#3b82f6" stroke-width="4" fill="none" opacity="0.4" stroke-dasharray="15000" stroke-dashoffset="15000">
      <animate attributeName="stroke-dashoffset" values="15000;0" dur="3s" begin="3.0999999999999996s" fill="freeze"/>
    </path>
    
    <!-- Animated circle that moves along the path and draws the line -->
    <circle r="5" fill="#3b82f6" opacity="0" filter="url(#trailGlow)">
      <animate attributeName="opacity" values="0;1;1;1" dur="3.2s" begin="2.9s" fill="freeze"/>
      <animate attributeName="r" values="5;6;5" dur="1s" begin="2.9s" repeatCount="3"/>
      <animateMotion dur="3s" begin="2.9s" fill="freeze">
        <mpath href="#path_publicContributions_293.33333333333337"/>
      </animateMotion>
    </circle>
    
    <!-- Small trail dots that fade out -->
    <circle r="2" fill="#3b82f6" opacity="0">
      <animate attributeName="opacity" values="0;0.6;0" dur="0.8s" begin="3.3s" fill="freeze"/>
      <animateMotion dur="3s" begin="2.9s" fill="freeze">
        <mpath href="#path_publicContributions_293.33333333333337"/>
      </animateMotion>
    </circle>
    
    <!-- Hidden path for motion animation -->
    <path id="path_publicContributions_293.33333333333337" d="M 30,160 L 30.026199265413922,160 L 30.058921466950054,160 L 31.547871237614935,160 L 31.57683020677287,160 L 31.606398461172986,160 L 33.0962083992386,160 L 33.122443504960884,160 L 33.15398297632101,160 L 34.64834463354882,160 L 34.67764408563621,160 L 34.7084309105207,160 L 36.19727316026049,160 L 36.22282730012386,160 L 36.25486853580108,160 L 37.74423047001214,160 L 37.767114506902416,160 L 37.794998266809436,160 L 39.291080258838704,160 L 39.319591224142094,160 L 39.34820971037057,160 L 40.83739244303982,160 L 40.86484611924647,160 L 40.89627806968151,160 L 42.38413471094129,160 L 42.41001141357994,160 L 42.44481235300117,160 L 43.92800975417366,160 L 43.95910122167924,160 L 43.99010308841391,160 L 45.48491274949627,160 L 45.51460644497566,160 L 45.54788417129143,160 L 47.03557953116358,160 L 47.06054230593895,160 L 47.09398131364236,160 L 48.58042226272177,160 L 48.61439887505064,160 L 48.65020334310606,160 L 50.1289923863498,160 L 50.15472572775499,160 L 50.18642648050276,160 L 51.68005341140911,160 L 51.70223856228629,160 L 51.73460236073878,160 L 53.22405389572076,160 L 53.250450282830684,160 L 53.28173887203226,160 L 54.77178177210223,160 L 54.79837528090816,160 L 54.82935922748865,160 L 56.32465273273391,160 L 56.351855526782025,160 L 56.387713755299984,160 L 57.870660274313934,160 L 57.9039380006297,160 L 57.9257109879607,160 L 59.41768926468231,160 L 59.443960210712966,160 L 59.47653905101564,160 L 60.960704140513954,160 L 60.995971003943914,160 L 61.02630982497385,160 L 62.51594056149765,160 L 62.54303583462067,160 L 62.57504122998952,160 L 64.0656754951475,160 L 64.09223316364506,160 L 64.12115629249463,160 L 65.61388721569189,160 L 65.64109000974,160 L 65.66965473550593,160 L 67.16140005022318,160 L 67.1934412859004,160 L 67.22641436959509,160 L 68.70930712814648,160 L 68.73894706316332,160 L 68.77236815071254,160 L 70.24893509483775,160 L 70.28857447588808,160 L 70.32106371541985,160 L 71.80582017000617,160 L 71.83422361438446,160 L 71.86510004003986,160 L 73.35442613394255,160 L 73.38103756290266,160 L 73.41279207611298,160 L 74.90059495691021,160 L 74.92863999820487,160 L 74.96028699049009,160 L 76.44982812624298,160 L 76.4724433608205,160 L 76.50781774517557,160 L 78.0010683528441,160 L 78.03199853896203,160 L 78.06832269148873,160 L 79.55150217250704,160 L 79.57811360146715,160 L 79.61001147591091,160 L 81.09749179393287,133.3106960950764 L 81.12338641672571,133.3106960950764 L 81.15669998334985,133.3106960950764 L 82.64258540764962,133.3106960950764 L 82.668336669209,133.3106960950764 L 82.70363937294732,133.3106960950764 L 84.18332442390016,133.3106960950764 L 84.21848376640503,133.3106960950764 L 84.25414487322699,133.3106960950764 L 85.74062166261477,133.3106960950764 L 85.76262761195014,133.3106960950764 L 85.79563653595318,133.3106960950764 L 87.28840329945879,133.3106960950764 L 87.31436960286835,133.3106960950764 L 87.3480594927303,133.3106960950764 L 88.83140025513626,133.3106960950764 L 88.87087835479895,133.3106960950764 L 88.9043711229649,133.3106960950764 L 90.38572274825667,133.3106960950764 L 90.4183374288677,133.3106960950764 L 90.45145387379584,133.3106960950764 L 91.93730345778724,133.3106960950764 L 91.96730179588772,133.3106960950764 L 92.00005983773224,133.3106960950764 L 93.48207450872872,133.3106960950764 L 93.51298677469248,133.3106960950764 L 93.54497424990716,133.3106960950764 L 95.028798856476,133.3106960950764 L 95.05983656351904,133.3106960950764 L 95.094314940165,133.3106960950764 L 96.57989572184368,133.3106960950764 L 96.61509090465691,133.3106960950764 L 96.64901375652323,133.3106960950764 L 98.12721143467898,133.3106960950764 L 98.15713809216274,133.3106960950764 L 98.18478889006539,133.3106960950764 L 99.67997487438556,133.3106960950764 L 99.71176522790424,133.3106960950764 L 99.7467453688673,133.3106960950764 L 101.22383199746376,133.3106960950764 L 101.25589115329515,133.3106960950764 L 101.29241242751785,133.3106960950764 L 102.77258132263361,133.3106960950764 L 102.80265134135081,133.3106960950764 L 102.83567818550804,133.3106960950764 L 104.32159945011618,133.3106960950764 L 104.34880224416429,133.3106960950764 L 104.38458879206553,133.3106960950764 L 105.87072509852385,133.3106960950764 L 105.89979158860687,133.3106960950764 L 105.92959280501135,133.3106960950764 L 107.4204600321737,133.3106960950764 L 107.44547656741162,133.3106960950764 L 107.47785828601829,133.3106960950764 L 108.96395875216824,133.3106960950764 L 108.98779255723016,133.3106960950764 L 109.01562255667464,133.3106960950764 L 110.51541402061956,133.3106960950764 L 110.54279601620948,133.3106960950764 L 110.57906640827363,133.3106960950764 L 112.06289101484249,133.3106960950764 L 112.09086437552043,133.3106960950764 L 112.12510979016201,133.3106960950764 L 113.60561916820723,133.3106960950764 L 113.6312629088415,133.3106960950764 L 113.66511408009109,133.3106960950764 L 115.15062318115305,133.3106960950764 L 115.18336330284336,133.3106960950764 L 115.21604966407114,133.3106960950764 L 116.70505319519856,133.3106960950764 L 116.73101949860812,133.3106960950764 L 116.76229016765551,133.3106960950764 L 118.25455516684406,133.3106960950764 L 118.28055731056196,133.3106960950764 L 118.31195342068864,133.3106960950764 L 119.79955917978988,133.3106960950764 L 119.82919911480671,133.3106960950764 L 119.86043394354576,133.3106960950764 L 121.35284230396773,133.3106960950764 L 121.38104862665003,133.3106960950764 L 121.41450555450763,133.3106960950764 L 122.9021650740714,133.3106960950764 L 122.92797009609332,133.3106960950764 L 122.96418672769494,133.3106960950764 L 124.4459146762245,133.3106960950764 L 124.4714508959337,133.3106960950764 L 124.50205851927636,133.3106960950764 L 125.99391135491871,133.3106960950764 L 126.01969845678646,133.3106960950764 L 126.05086160490875,133.3106960950764 L 127.5439150908813,133.3106960950764 L 127.56538343559119,133.3106960950764 L 127.5961523403215,133.3106960950764 L 129.09209097111733,133.3106960950764 L 129.1171433466636,133.3106960950764 L 129.13791280536043,133.3106960950764 L 130.6383135545475,133.3106960950764 L 130.6621831999178,133.3106960950764 L 130.69237865971428,133.3106960950764 L 132.18272620240532,133.3106960950764 L 132.21862027123166,133.3106960950764 L 132.25114535107178,133.3106960950764 L 133.73762214045956,133.3106960950764 L 133.76428732988222,133.3106960950764 L 133.79552215862128,133.3106960950764 L 135.28624602455017,133.3106960950764 L 135.3123198488848,133.3106960950764 L 135.33749766551034,133.3106960950764 L 136.83623184035855,133.3106960950764 L 136.85859619277755,133.3106960950764 L 136.88463417680384,133.3106960950764 L 138.3802323246702,133.3106960950764 L 138.40573270407103,133.3106960950764 L 138.43444079107041,133.3106960950764 L 139.93102454741677,133.3106960950764 L 139.95324553860235,133.3106960950764 L 139.9840323634868,133.3106960950764 L 141.46828705375603,133.3106960950764 L 141.50188734284706,133.3106960950764 L 141.5328354491192,133.3106960950764 L 143.02802143343936,133.3106960950764 L 143.05676536074714,133.3106960950764 L 143.0859752120636,133.3106960950764 L 144.5772008423096,133.3106960950764 L 144.60714541994753,133.3106960950764 L 144.64083530980946,133.3106960950764 L 146.12059204137904,133.3106960950764 L 146.14573401769624,133.3106960950764 L 146.17451378531234,133.3106960950764 L 147.66926968593216,133.3106960950764 L 147.68797832689808,133.3106960950764 L 147.72089765013018,133.3106960950764 L 149.21866413665256,133.3106960950764 L 149.24126145107593,133.3106960950764 L 149.27199451549785,133.3106960950764 L 150.76863203230675,133.3106960950764 L 150.7912651870385,133.3106960950764 L 150.81816333846552,133.3106960950764 L 152.3143349312657,40 L 152.3372906487727,40 L 152.36675138224774,40 L 153.8641236253781,40 L 153.88793951028583,40 L 153.92114555598488,40 L 155.40357239052753,40 L 155.43690387730584,40 L 155.46953647807106,40 L 156.96137139355926,40 L 156.97887938419495,40 L 157.00873436106195,40 L 158.50687717082215,40 L 158.53137402158882,40 L 158.56359445880784,40 L 160.04887059786543,40 L 160.08101935446774,40 L 160.10974536162132,40 L 161.60405325838659,40 L 161.62933859593724,40 L 161.65709691476496,40 L 163.15015040073752,40 L 163.17495189412523,40 L 163.20002218982572,40 L 163.23975117164696,40 L 164.70404281015757,40 L 164.73020623526313,40 L 164.75740902931122,40 L 166.25128684237612,40 L 166.27737858686496,40 L 166.30588955216834,40 L 167.7987996769074,40 L 167.82281268351116,40 L 167.85021259925526,40 L 169.3425492790605,40 L 169.37140072729338,40 L 170.9017281339642,40 L 170.91925404475413,40 L 170.94706612404443,40 L 172.4423237889813,40 L 172.46699984128978,40 L 172.49749994370734,40 L 173.9902487870588,40 L 174.01433347427925,40 L 174.0414108272481,40 L 175.54125605165555,40 L 175.56709691398584,40 L 175.59947863259254,40 L 177.09117018684722,40 L 177.11901810644588,40 L 177.1457191361769,40 L 178.64205201036472,40 L 178.6591836777626,40 L 178.6881964073831,40 L 180.18497728542545,40 L 180.2073774781528,40 L 180.23307497924964,40 L 181.73295604396546,40 L 181.75383302358736,40 L 181.7854979360268,40 L 183.28057639942185,40 L 183.30347835646631,40 L 183.33333333333334,40" fill="none" stroke="none"/>
  </g>
  <!-- 📊 Total Contributions Chart -->
  <g transform="translate(526.6666666666667, 250)">
    <!-- Chart Background -->
    <rect x="0" y="0" width="213.33333333333334" height="200" fill="#0f172a" stroke="#334155" stroke-width="1" rx="8" filter="url(#shadow)">
      <animate attributeName="opacity" values="0;1" dur="0.5s" begin="2.8s" fill="freeze"/>
    </rect>
    
    <!-- Chart Title -->
    <text x="106.66666666666667" y="25" text-anchor="middle" fill="#f8fafc" font-size="14" font-weight="bold" font-family="Arial, sans-serif">
      📊 Total Contributions
      <animate attributeName="opacity" values="0;1" dur="0.5s" begin="3s" fill="freeze"/>
    </text>
    
    <!-- Y-axis labels -->
    <text x="10" y="45" fill="#94a3b8" font-size="10" font-family="Arial, sans-serif">3,802
      <animate attributeName="opacity" values="0;1" dur="0.5s" begin="3.1999999999999997s" fill="freeze"/>
    </text>
    <text x="10" y="185" fill="#94a3b8" font-size="10" font-family="Arial, sans-serif">2,320
      <animate attributeName="opacity" values="0;1" dur="0.5s" begin="3.1999999999999997s" fill="freeze"/>
    </text>
    
    <!-- Chart Line with draw animation that follows the circle -->
    <path d="M 30,160 L 30.026199265413922,160 L 30.058921466950054,160 L 31.547871237614935,160 L 31.57683020677287,160 L 31.606398461172986,160 L 33.0962083992386,160 L 33.122443504960884,160 L 33.15398297632101,160 L 34.64834463354882,160 L 34.67764408563621,160 L 34.7084309105207,160 L 36.19727316026049,160 L 36.22282730012386,160 L 36.25486853580108,160 L 37.74423047001214,160 L 37.767114506902416,160 L 37.794998266809436,160 L 39.291080258838704,160 L 39.319591224142094,160 L 39.34820971037057,160 L 40.83739244303982,160 L 40.86484611924647,160 L 40.89627806968151,160 L 42.38413471094129,160 L 42.41001141357994,160 L 42.44481235300117,160 L 43.92800975417366,160 L 43.95910122167924,160 L 43.99010308841391,160 L 45.48491274949627,160 L 45.51460644497566,160 L 45.54788417129143,160 L 47.03557953116358,160 L 47.06054230593895,160 L 47.09398131364236,160 L 48.58042226272177,160 L 48.61439887505064,160 L 48.65020334310606,160 L 50.1289923863498,160 L 50.15472572775499,160 L 50.18642648050276,160 L 51.68005341140911,160 L 51.70223856228629,160 L 51.73460236073878,160 L 53.22405389572076,160 L 53.250450282830684,160 L 53.28173887203226,160 L 54.77178177210223,160 L 54.79837528090816,160 L 54.82935922748865,160 L 56.32465273273391,160 L 56.351855526782025,160 L 56.387713755299984,160 L 57.870660274313934,160 L 57.9039380006297,160 L 57.9257109879607,160 L 59.41768926468231,160 L 59.443960210712966,160 L 59.47653905101564,160 L 60.960704140513954,160 L 60.995971003943914,160 L 61.02630982497385,160 L 62.51594056149765,160 L 62.54303583462067,160 L 62.57504122998952,160 L 64.0656754951475,160 L 64.09223316364506,160 L 64.12115629249463,160 L 65.61388721569189,160 L 65.64109000974,160 L 65.66965473550593,160 L 67.16140005022318,160 L 67.1934412859004,160 L 67.22641436959509,160 L 68.70930712814648,160 L 68.73894706316332,160 L 68.77236815071254,160 L 70.24893509483775,160 L 70.28857447588808,160 L 70.32106371541985,160 L 71.80582017000617,160 L 71.83422361438446,160 L 71.86510004003986,160 L 73.35442613394255,160 L 73.38103756290266,160 L 73.41279207611298,160 L 74.90059495691021,160 L 74.92863999820487,160 L 74.96028699049009,160 L 76.44982812624298,160 L 76.4724433608205,160 L 76.50781774517557,160 L 78.0010683528441,160 L 78.03199853896203,160 L 78.06832269148873,160 L 79.55150217250704,160 L 79.57811360146715,160 L 79.61001147591091,160 L 81.09749179393287,137.48987854251013 L 81.12338641672571,137.48987854251013 L 81.15669998334985,137.48987854251013 L 82.64258540764962,137.48987854251013 L 82.668336669209,137.48987854251013 L 82.70363937294732,137.48987854251013 L 84.18332442390016,137.48987854251013 L 84.21848376640503,137.48987854251013 L 84.25414487322699,137.48987854251013 L 85.74062166261477,137.48987854251013 L 85.76262761195014,137.48987854251013 L 85.79563653595318,137.48987854251013 L 87.28840329945879,137.48987854251013 L 87.31436960286835,137.48987854251013 L 87.3480594927303,137.48987854251013 L 88.83140025513626,137.48987854251013 L 88.87087835479895,137.48987854251013 L 88.9043711229649,137.48987854251013 L 90.38572274825667,137.48987854251013 L 90.4183374288677,137.48987854251013 L 90.45145387379584,137.48987854251013 L 91.93730345778724,137.48987854251013 L 91.96730179588772,137.48987854251013 L 92.00005983773224,137.48987854251013 L 93.48207450872872,137.48987854251013 L 93.51298677469248,137.48987854251013 L 93.54497424990716,137.48987854251013 L 95.028798856476,137.48987854251013 L 95.05983656351904,137.48987854251013 L 95.094314940165,137.48987854251013 L 96.57989572184368,137.48987854251013 L 96.61509090465691,137.48987854251013 L 96.64901375652323,137.48987854251013 L 98.12721143467898,137.48987854251013 L 98.15713809216274,137.48987854251013 L 98.18478889006539,137.48987854251013 L 99.67997487438556,137.48987854251013 L 99.71176522790424,137.48987854251013 L 99.7467453688673,137.48987854251013 L 101.22383199746376,137.48987854251013 L 101.25589115329515,137.48987854251013 L 101.29241242751785,137.48987854251013 L 102.77258132263361,137.48987854251013 L 102.80265134135081,137.48987854251013 L 102.83567818550804,137.48987854251013 L 104.32159945011618,137.48987854251013 L 104.34880224416429,137.48987854251013 L 104.38458879206553,137.48987854251013 L 105.87072509852385,137.48987854251013 L 105.89979158860687,137.48987854251013 L 105.92959280501135,137.48987854251013 L 107.4204600321737,137.48987854251013 L 107.44547656741162,137.48987854251013 L 107.47785828601829,137.48987854251013 L 108.96395875216824,137.48987854251013 L 108.98779255723016,137.48987854251013 L 109.01562255667464,137.48987854251013 L 110.51541402061956,137.48987854251013 L 110.54279601620948,137.48987854251013 L 110.57906640827363,137.48987854251013 L 112.06289101484249,137.48987854251013 L 112.09086437552043,137.48987854251013 L 112.12510979016201,137.48987854251013 L 113.60561916820723,137.48987854251013 L 113.6312629088415,137.48987854251013 L 113.66511408009109,137.48987854251013 L 115.15062318115305,137.48987854251013 L 115.18336330284336,137.48987854251013 L 115.21604966407114,137.48987854251013 L 116.70505319519856,137.48987854251013 L 116.73101949860812,137.48987854251013 L 116.76229016765551,137.48987854251013 L 118.25455516684406,137.48987854251013 L 118.28055731056196,137.48987854251013 L 118.31195342068864,137.48987854251013 L 119.79955917978988,137.48987854251013 L 119.82919911480671,137.48987854251013 L 119.86043394354576,137.48987854251013 L 121.35284230396773,137.48987854251013 L 121.38104862665003,137.48987854251013 L 121.41450555450763,137.48987854251013 L 122.9021650740714,137.48987854251013 L 122.92797009609332,137.48987854251013 L 122.96418672769494,137.48987854251013 L 124.4459146762245,137.48987854251013 L 124.4714508959337,137.48987854251013 L 124.50205851927636,137.48987854251013 L 125.99391135491871,137.48987854251013 L 126.01969845678646,137.48987854251013 L 126.05086160490875,137.48987854251013 L 127.5439150908813,137.48987854251013 L 127.56538343559119,137.48987854251013 L 127.5961523403215,137.48987854251013 L 129.09209097111733,137.48987854251013 L 129.1171433466636,137.48987854251013 L 129.13791280536043,137.48987854251013 L 130.6383135545475,137.48987854251013 L 130.6621831999178,137.48987854251013 L 130.69237865971428,137.48987854251013 L 132.18272620240532,137.48987854251013 L 132.21862027123166,137.48987854251013 L 132.25114535107178,137.48987854251013 L 133.73762214045956,137.48987854251013 L 133.76428732988222,137.48987854251013 L 133.79552215862128,137.48987854251013 L 135.28624602455017,137.48987854251013 L 135.3123198488848,137.48987854251013 L 135.33749766551034,137.48987854251013 L 136.83623184035855,137.48987854251013 L 136.85859619277755,137.48987854251013 L 136.88463417680384,137.48987854251013 L 138.3802323246702,137.48987854251013 L 138.40573270407103,137.48987854251013 L 138.43444079107041,137.48987854251013 L 139.93102454741677,137.48987854251013 L 139.95324553860235,137.48987854251013 L 139.9840323634868,137.48987854251013 L 141.46828705375603,137.48987854251013 L 141.50188734284706,137.48987854251013 L 141.5328354491192,137.48987854251013 L 143.02802143343936,137.48987854251013 L 143.05676536074714,137.48987854251013 L 143.0859752120636,137.48987854251013 L 144.5772008423096,137.48987854251013 L 144.60714541994753,137.48987854251013 L 144.64083530980946,137.48987854251013 L 146.12059204137904,137.48987854251013 L 146.14573401769624,137.48987854251013 L 146.17451378531234,137.48987854251013 L 147.66926968593216,137.48987854251013 L 147.68797832689808,137.48987854251013 L 147.72089765013018,137.48987854251013 L 149.21866413665256,137.48987854251013 L 149.24126145107593,137.48987854251013 L 149.27199451549785,137.48987854251013 L 150.76863203230675,137.48987854251013 L 150.7912651870385,137.48987854251013 L 150.81816333846552,137.48987854251013 L 152.3143349312657,40 L 152.3372906487727,40 L 152.36675138224774,40 L 153.8641236253781,40 L 153.88793951028583,40 L 153.92114555598488,40 L 155.40357239052753,40 L 155.43690387730584,40 L 155.46953647807106,40 L 156.96137139355926,40 L 156.97887938419495,40 L 157.00873436106195,40 L 158.50687717082215,40 L 158.53137402158882,40 L 158.56359445880784,40 L 160.04887059786543,40 L 160.08101935446774,40 L 160.10974536162132,40 L 161.60405325838659,40 L 161.62933859593724,40 L 161.65709691476496,40 L 163.15015040073752,40 L 163.17495189412523,40 L 163.20002218982572,40 L 163.23975117164696,40 L 164.70404281015757,40 L 164.73020623526313,40 L 164.75740902931122,40 L 166.25128684237612,40 L 166.27737858686496,40 L 166.30588955216834,40 L 167.7987996769074,40 L 167.82281268351116,40 L 167.85021259925526,40 L 169.3425492790605,40 L 169.37140072729338,40 L 170.9017281339642,40 L 170.91925404475413,40 L 170.94706612404443,40 L 172.4423237889813,40 L 172.46699984128978,40 L 172.49749994370734,40 L 173.9902487870588,40 L 174.01433347427925,40 L 174.0414108272481,40 L 175.54125605165555,40 L 175.56709691398584,40 L 175.59947863259254,40 L 177.09117018684722,40 L 177.11901810644588,40 L 177.1457191361769,40 L 178.64205201036472,40 L 178.6591836777626,40 L 178.6881964073831,40 L 180.18497728542545,40 L 180.2073774781528,40 L 180.23307497924964,40 L 181.73295604396546,40 L 181.75383302358736,40 L 181.7854979360268,40 L 183.28057639942185,40 L 183.30347835646631,40 L 183.33333333333334,40" stroke="#f59e0b" stroke-width="2" fill="none" stroke-dasharray="15000" stroke-dashoffset="15000">
      <animate attributeName="stroke-dashoffset" values="15000;0" dur="3s" begin="3.5999999999999996s" fill="freeze"/>
    </path>
    
    <!-- Glow effect for the line that also follows the circle -->
    <path d="M 30,160 L 30.026199265413922,160 L 30.058921466950054,160 L 31.547871237614935,160 L 31.57683020677287,160 L 31.606398461172986,160 L 33.0962083992386,160 L 33.122443504960884,160 L 33.15398297632101,160 L 34.64834463354882,160 L 34.67764408563621,160 L 34.7084309105207,160 L 36.19727316026049,160 L 36.22282730012386,160 L 36.25486853580108,160 L 37.74423047001214,160 L 37.767114506902416,160 L 37.794998266809436,160 L 39.291080258838704,160 L 39.319591224142094,160 L 39.34820971037057,160 L 40.83739244303982,160 L 40.86484611924647,160 L 40.89627806968151,160 L 42.38413471094129,160 L 42.41001141357994,160 L 42.44481235300117,160 L 43.92800975417366,160 L 43.95910122167924,160 L 43.99010308841391,160 L 45.48491274949627,160 L 45.51460644497566,160 L 45.54788417129143,160 L 47.03557953116358,160 L 47.06054230593895,160 L 47.09398131364236,160 L 48.58042226272177,160 L 48.61439887505064,160 L 48.65020334310606,160 L 50.1289923863498,160 L 50.15472572775499,160 L 50.18642648050276,160 L 51.68005341140911,160 L 51.70223856228629,160 L 51.73460236073878,160 L 53.22405389572076,160 L 53.250450282830684,160 L 53.28173887203226,160 L 54.77178177210223,160 L 54.79837528090816,160 L 54.82935922748865,160 L 56.32465273273391,160 L 56.351855526782025,160 L 56.387713755299984,160 L 57.870660274313934,160 L 57.9039380006297,160 L 57.9257109879607,160 L 59.41768926468231,160 L 59.443960210712966,160 L 59.47653905101564,160 L 60.960704140513954,160 L 60.995971003943914,160 L 61.02630982497385,160 L 62.51594056149765,160 L 62.54303583462067,160 L 62.57504122998952,160 L 64.0656754951475,160 L 64.09223316364506,160 L 64.12115629249463,160 L 65.61388721569189,160 L 65.64109000974,160 L 65.66965473550593,160 L 67.16140005022318,160 L 67.1934412859004,160 L 67.22641436959509,160 L 68.70930712814648,160 L 68.73894706316332,160 L 68.77236815071254,160 L 70.24893509483775,160 L 70.28857447588808,160 L 70.32106371541985,160 L 71.80582017000617,160 L 71.83422361438446,160 L 71.86510004003986,160 L 73.35442613394255,160 L 73.38103756290266,160 L 73.41279207611298,160 L 74.90059495691021,160 L 74.92863999820487,160 L 74.96028699049009,160 L 76.44982812624298,160 L 76.4724433608205,160 L 76.50781774517557,160 L 78.0010683528441,160 L 78.03199853896203,160 L 78.06832269148873,160 L 79.55150217250704,160 L 79.57811360146715,160 L 79.61001147591091,160 L 81.09749179393287,137.48987854251013 L 81.12338641672571,137.48987854251013 L 81.15669998334985,137.48987854251013 L 82.64258540764962,137.48987854251013 L 82.668336669209,137.48987854251013 L 82.70363937294732,137.48987854251013 L 84.18332442390016,137.48987854251013 L 84.21848376640503,137.48987854251013 L 84.25414487322699,137.48987854251013 L 85.74062166261477,137.48987854251013 L 85.76262761195014,137.48987854251013 L 85.79563653595318,137.48987854251013 L 87.28840329945879,137.48987854251013 L 87.31436960286835,137.48987854251013 L 87.3480594927303,137.48987854251013 L 88.83140025513626,137.48987854251013 L 88.87087835479895,137.48987854251013 L 88.9043711229649,137.48987854251013 L 90.38572274825667,137.48987854251013 L 90.4183374288677,137.48987854251013 L 90.45145387379584,137.48987854251013 L 91.93730345778724,137.48987854251013 L 91.96730179588772,137.48987854251013 L 92.00005983773224,137.48987854251013 L 93.48207450872872,137.48987854251013 L 93.51298677469248,137.48987854251013 L 93.54497424990716,137.48987854251013 L 95.028798856476,137.48987854251013 L 95.05983656351904,137.48987854251013 L 95.094314940165,137.48987854251013 L 96.57989572184368,137.48987854251013 L 96.61509090465691,137.48987854251013 L 96.64901375652323,137.48987854251013 L 98.12721143467898,137.48987854251013 L 98.15713809216274,137.48987854251013 L 98.18478889006539,137.48987854251013 L 99.67997487438556,137.48987854251013 L 99.71176522790424,137.48987854251013 L 99.7467453688673,137.48987854251013 L 101.22383199746376,137.48987854251013 L 101.25589115329515,137.48987854251013 L 101.29241242751785,137.48987854251013 L 102.77258132263361,137.48987854251013 L 102.80265134135081,137.48987854251013 L 102.83567818550804,137.48987854251013 L 104.32159945011618,137.48987854251013 L 104.34880224416429,137.48987854251013 L 104.38458879206553,137.48987854251013 L 105.87072509852385,137.48987854251013 L 105.89979158860687,137.48987854251013 L 105.92959280501135,137.48987854251013 L 107.4204600321737,137.48987854251013 L 107.44547656741162,137.48987854251013 L 107.47785828601829,137.48987854251013 L 108.96395875216824,137.48987854251013 L 108.98779255723016,137.48987854251013 L 109.01562255667464,137.48987854251013 L 110.51541402061956,137.48987854251013 L 110.54279601620948,137.48987854251013 L 110.57906640827363,137.48987854251013 L 112.06289101484249,137.48987854251013 L 112.09086437552043,137.48987854251013 L 112.12510979016201,137.48987854251013 L 113.60561916820723,137.48987854251013 L 113.6312629088415,137.48987854251013 L 113.66511408009109,137.48987854251013 L 115.15062318115305,137.48987854251013 L 115.18336330284336,137.48987854251013 L 115.21604966407114,137.48987854251013 L 116.70505319519856,137.48987854251013 L 116.73101949860812,137.48987854251013 L 116.76229016765551,137.48987854251013 L 118.25455516684406,137.48987854251013 L 118.28055731056196,137.48987854251013 L 118.31195342068864,137.48987854251013 L 119.79955917978988,137.48987854251013 L 119.82919911480671,137.48987854251013 L 119.86043394354576,137.48987854251013 L 121.35284230396773,137.48987854251013 L 121.38104862665003,137.48987854251013 L 121.41450555450763,137.48987854251013 L 122.9021650740714,137.48987854251013 L 122.92797009609332,137.48987854251013 L 122.96418672769494,137.48987854251013 L 124.4459146762245,137.48987854251013 L 124.4714508959337,137.48987854251013 L 124.50205851927636,137.48987854251013 L 125.99391135491871,137.48987854251013 L 126.01969845678646,137.48987854251013 L 126.05086160490875,137.48987854251013 L 127.5439150908813,137.48987854251013 L 127.56538343559119,137.48987854251013 L 127.5961523403215,137.48987854251013 L 129.09209097111733,137.48987854251013 L 129.1171433466636,137.48987854251013 L 129.13791280536043,137.48987854251013 L 130.6383135545475,137.48987854251013 L 130.6621831999178,137.48987854251013 L 130.69237865971428,137.48987854251013 L 132.18272620240532,137.48987854251013 L 132.21862027123166,137.48987854251013 L 132.25114535107178,137.48987854251013 L 133.73762214045956,137.48987854251013 L 133.76428732988222,137.48987854251013 L 133.79552215862128,137.48987854251013 L 135.28624602455017,137.48987854251013 L 135.3123198488848,137.48987854251013 L 135.33749766551034,137.48987854251013 L 136.83623184035855,137.48987854251013 L 136.85859619277755,137.48987854251013 L 136.88463417680384,137.48987854251013 L 138.3802323246702,137.48987854251013 L 138.40573270407103,137.48987854251013 L 138.43444079107041,137.48987854251013 L 139.93102454741677,137.48987854251013 L 139.95324553860235,137.48987854251013 L 139.9840323634868,137.48987854251013 L 141.46828705375603,137.48987854251013 L 141.50188734284706,137.48987854251013 L 141.5328354491192,137.48987854251013 L 143.02802143343936,137.48987854251013 L 143.05676536074714,137.48987854251013 L 143.0859752120636,137.48987854251013 L 144.5772008423096,137.48987854251013 L 144.60714541994753,137.48987854251013 L 144.64083530980946,137.48987854251013 L 146.12059204137904,137.48987854251013 L 146.14573401769624,137.48987854251013 L 146.17451378531234,137.48987854251013 L 147.66926968593216,137.48987854251013 L 147.68797832689808,137.48987854251013 L 147.72089765013018,137.48987854251013 L 149.21866413665256,137.48987854251013 L 149.24126145107593,137.48987854251013 L 149.27199451549785,137.48987854251013 L 150.76863203230675,137.48987854251013 L 150.7912651870385,137.48987854251013 L 150.81816333846552,137.48987854251013 L 152.3143349312657,40 L 152.3372906487727,40 L 152.36675138224774,40 L 153.8641236253781,40 L 153.88793951028583,40 L 153.92114555598488,40 L 155.40357239052753,40 L 155.43690387730584,40 L 155.46953647807106,40 L 156.96137139355926,40 L 156.97887938419495,40 L 157.00873436106195,40 L 158.50687717082215,40 L 158.53137402158882,40 L 158.56359445880784,40 L 160.04887059786543,40 L 160.08101935446774,40 L 160.10974536162132,40 L 161.60405325838659,40 L 161.62933859593724,40 L 161.65709691476496,40 L 163.15015040073752,40 L 163.17495189412523,40 L 163.20002218982572,40 L 163.23975117164696,40 L 164.70404281015757,40 L 164.73020623526313,40 L 164.75740902931122,40 L 166.25128684237612,40 L 166.27737858686496,40 L 166.30588955216834,40 L 167.7987996769074,40 L 167.82281268351116,40 L 167.85021259925526,40 L 169.3425492790605,40 L 169.37140072729338,40 L 170.9017281339642,40 L 170.91925404475413,40 L 170.94706612404443,40 L 172.4423237889813,40 L 172.46699984128978,40 L 172.49749994370734,40 L 173.9902487870588,40 L 174.01433347427925,40 L 174.0414108272481,40 L 175.54125605165555,40 L 175.56709691398584,40 L 175.59947863259254,40 L 177.09117018684722,40 L 177.11901810644588,40 L 177.1457191361769,40 L 178.64205201036472,40 L 178.6591836777626,40 L 178.6881964073831,40 L 180.18497728542545,40 L 180.2073774781528,40 L 180.23307497924964,40 L 181.73295604396546,40 L 181.75383302358736,40 L 181.7854979360268,40 L 183.28057639942185,40 L 183.30347835646631,40 L 183.33333333333334,40" stroke="#f59e0b" stroke-width="4" fill="none" opacity="0.4" stroke-dasharray="15000" stroke-dashoffset="15000">
      <animate attributeName="stroke-dashoffset" values="15000;0" dur="3s" begin="3.5999999999999996s" fill="freeze"/>
    </path>
    
    <!-- Animated circle that moves along the path and draws the line -->
    <circle r="5" fill="#f59e0b" opacity="0" filter="url(#trailGlow)">
      <animate attributeName="opacity" values="0;1;1;1" dur="3.2s" begin="3.4s" fill="freeze"/>
      <animate attributeName="r" values="5;6;5" dur="1s" begin="3.4s" repeatCount="3"/>
      <animateMotion dur="3s" begin="3.4s" fill="freeze">
        <mpath href="#path_totalContributions_526.6666666666667"/>
      </animateMotion>
    </circle>
    
    <!-- Small trail dots that fade out -->
    <circle r="2" fill="#f59e0b" opacity="0">
      <animate attributeName="opacity" values="0;0.6;0" dur="0.8s" begin="3.8s" fill="freeze"/>
      <animateMotion dur="3s" begin="3.4s" fill="freeze">
        <mpath href="#path_totalContributions_526.6666666666667"/>
      </animateMotion>
    </circle>
    
    <!-- Hidden path for motion animation -->
    <path id="path_totalContributions_526.6666666666667" d="M 30,160 L 30.026199265413922,160 L 30.058921466950054,160 L 31.547871237614935,160 L 31.57683020677287,160 L 31.606398461172986,160 L 33.0962083992386,160 L 33.122443504960884,160 L 33.15398297632101,160 L 34.64834463354882,160 L 34.67764408563621,160 L 34.7084309105207,160 L 36.19727316026049,160 L 36.22282730012386,160 L 36.25486853580108,160 L 37.74423047001214,160 L 37.767114506902416,160 L 37.794998266809436,160 L 39.291080258838704,160 L 39.319591224142094,160 L 39.34820971037057,160 L 40.83739244303982,160 L 40.86484611924647,160 L 40.89627806968151,160 L 42.38413471094129,160 L 42.41001141357994,160 L 42.44481235300117,160 L 43.92800975417366,160 L 43.95910122167924,160 L 43.99010308841391,160 L 45.48491274949627,160 L 45.51460644497566,160 L 45.54788417129143,160 L 47.03557953116358,160 L 47.06054230593895,160 L 47.09398131364236,160 L 48.58042226272177,160 L 48.61439887505064,160 L 48.65020334310606,160 L 50.1289923863498,160 L 50.15472572775499,160 L 50.18642648050276,160 L 51.68005341140911,160 L 51.70223856228629,160 L 51.73460236073878,160 L 53.22405389572076,160 L 53.250450282830684,160 L 53.28173887203226,160 L 54.77178177210223,160 L 54.79837528090816,160 L 54.82935922748865,160 L 56.32465273273391,160 L 56.351855526782025,160 L 56.387713755299984,160 L 57.870660274313934,160 L 57.9039380006297,160 L 57.9257109879607,160 L 59.41768926468231,160 L 59.443960210712966,160 L 59.47653905101564,160 L 60.960704140513954,160 L 60.995971003943914,160 L 61.02630982497385,160 L 62.51594056149765,160 L 62.54303583462067,160 L 62.57504122998952,160 L 64.0656754951475,160 L 64.09223316364506,160 L 64.12115629249463,160 L 65.61388721569189,160 L 65.64109000974,160 L 65.66965473550593,160 L 67.16140005022318,160 L 67.1934412859004,160 L 67.22641436959509,160 L 68.70930712814648,160 L 68.73894706316332,160 L 68.77236815071254,160 L 70.24893509483775,160 L 70.28857447588808,160 L 70.32106371541985,160 L 71.80582017000617,160 L 71.83422361438446,160 L 71.86510004003986,160 L 73.35442613394255,160 L 73.38103756290266,160 L 73.41279207611298,160 L 74.90059495691021,160 L 74.92863999820487,160 L 74.96028699049009,160 L 76.44982812624298,160 L 76.4724433608205,160 L 76.50781774517557,160 L 78.0010683528441,160 L 78.03199853896203,160 L 78.06832269148873,160 L 79.55150217250704,160 L 79.57811360146715,160 L 79.61001147591091,160 L 81.09749179393287,137.48987854251013 L 81.12338641672571,137.48987854251013 L 81.15669998334985,137.48987854251013 L 82.64258540764962,137.48987854251013 L 82.668336669209,137.48987854251013 L 82.70363937294732,137.48987854251013 L 84.18332442390016,137.48987854251013 L 84.21848376640503,137.48987854251013 L 84.25414487322699,137.48987854251013 L 85.74062166261477,137.48987854251013 L 85.76262761195014,137.48987854251013 L 85.79563653595318,137.48987854251013 L 87.28840329945879,137.48987854251013 L 87.31436960286835,137.48987854251013 L 87.3480594927303,137.48987854251013 L 88.83140025513626,137.48987854251013 L 88.87087835479895,137.48987854251013 L 88.9043711229649,137.48987854251013 L 90.38572274825667,137.48987854251013 L 90.4183374288677,137.48987854251013 L 90.45145387379584,137.48987854251013 L 91.93730345778724,137.48987854251013 L 91.96730179588772,137.48987854251013 L 92.00005983773224,137.48987854251013 L 93.48207450872872,137.48987854251013 L 93.51298677469248,137.48987854251013 L 93.54497424990716,137.48987854251013 L 95.028798856476,137.48987854251013 L 95.05983656351904,137.48987854251013 L 95.094314940165,137.48987854251013 L 96.57989572184368,137.48987854251013 L 96.61509090465691,137.48987854251013 L 96.64901375652323,137.48987854251013 L 98.12721143467898,137.48987854251013 L 98.15713809216274,137.48987854251013 L 98.18478889006539,137.48987854251013 L 99.67997487438556,137.48987854251013 L 99.71176522790424,137.48987854251013 L 99.7467453688673,137.48987854251013 L 101.22383199746376,137.48987854251013 L 101.25589115329515,137.48987854251013 L 101.29241242751785,137.48987854251013 L 102.77258132263361,137.48987854251013 L 102.80265134135081,137.48987854251013 L 102.83567818550804,137.48987854251013 L 104.32159945011618,137.48987854251013 L 104.34880224416429,137.48987854251013 L 104.38458879206553,137.48987854251013 L 105.87072509852385,137.48987854251013 L 105.89979158860687,137.48987854251013 L 105.92959280501135,137.48987854251013 L 107.4204600321737,137.48987854251013 L 107.44547656741162,137.48987854251013 L 107.47785828601829,137.48987854251013 L 108.96395875216824,137.48987854251013 L 108.98779255723016,137.48987854251013 L 109.01562255667464,137.48987854251013 L 110.51541402061956,137.48987854251013 L 110.54279601620948,137.48987854251013 L 110.57906640827363,137.48987854251013 L 112.06289101484249,137.48987854251013 L 112.09086437552043,137.48987854251013 L 112.12510979016201,137.48987854251013 L 113.60561916820723,137.48987854251013 L 113.6312629088415,137.48987854251013 L 113.66511408009109,137.48987854251013 L 115.15062318115305,137.48987854251013 L 115.18336330284336,137.48987854251013 L 115.21604966407114,137.48987854251013 L 116.70505319519856,137.48987854251013 L 116.73101949860812,137.48987854251013 L 116.76229016765551,137.48987854251013 L 118.25455516684406,137.48987854251013 L 118.28055731056196,137.48987854251013 L 118.31195342068864,137.48987854251013 L 119.79955917978988,137.48987854251013 L 119.82919911480671,137.48987854251013 L 119.86043394354576,137.48987854251013 L 121.35284230396773,137.48987854251013 L 121.38104862665003,137.48987854251013 L 121.41450555450763,137.48987854251013 L 122.9021650740714,137.48987854251013 L 122.92797009609332,137.48987854251013 L 122.96418672769494,137.48987854251013 L 124.4459146762245,137.48987854251013 L 124.4714508959337,137.48987854251013 L 124.50205851927636,137.48987854251013 L 125.99391135491871,137.48987854251013 L 126.01969845678646,137.48987854251013 L 126.05086160490875,137.48987854251013 L 127.5439150908813,137.48987854251013 L 127.56538343559119,137.48987854251013 L 127.5961523403215,137.48987854251013 L 129.09209097111733,137.48987854251013 L 129.1171433466636,137.48987854251013 L 129.13791280536043,137.48987854251013 L 130.6383135545475,137.48987854251013 L 130.6621831999178,137.48987854251013 L 130.69237865971428,137.48987854251013 L 132.18272620240532,137.48987854251013 L 132.21862027123166,137.48987854251013 L 132.25114535107178,137.48987854251013 L 133.73762214045956,137.48987854251013 L 133.76428732988222,137.48987854251013 L 133.79552215862128,137.48987854251013 L 135.28624602455017,137.48987854251013 L 135.3123198488848,137.48987854251013 L 135.33749766551034,137.48987854251013 L 136.83623184035855,137.48987854251013 L 136.85859619277755,137.48987854251013 L 136.88463417680384,137.48987854251013 L 138.3802323246702,137.48987854251013 L 138.40573270407103,137.48987854251013 L 138.43444079107041,137.48987854251013 L 139.93102454741677,137.48987854251013 L 139.95324553860235,137.48987854251013 L 139.9840323634868,137.48987854251013 L 141.46828705375603,137.48987854251013 L 141.50188734284706,137.48987854251013 L 141.5328354491192,137.48987854251013 L 143.02802143343936,137.48987854251013 L 143.05676536074714,137.48987854251013 L 143.0859752120636,137.48987854251013 L 144.5772008423096,137.48987854251013 L 144.60714541994753,137.48987854251013 L 144.64083530980946,137.48987854251013 L 146.12059204137904,137.48987854251013 L 146.14573401769624,137.48987854251013 L 146.17451378531234,137.48987854251013 L 147.66926968593216,137.48987854251013 L 147.68797832689808,137.48987854251013 L 147.72089765013018,137.48987854251013 L 149.21866413665256,137.48987854251013 L 149.24126145107593,137.48987854251013 L 149.27199451549785,137.48987854251013 L 150.76863203230675,137.48987854251013 L 150.7912651870385,137.48987854251013 L 150.81816333846552,137.48987854251013 L 152.3143349312657,40 L 152.3372906487727,40 L 152.36675138224774,40 L 153.8641236253781,40 L 153.88793951028583,40 L 153.92114555598488,40 L 155.40357239052753,40 L 155.43690387730584,40 L 155.46953647807106,40 L 156.96137139355926,40 L 156.97887938419495,40 L 157.00873436106195,40 L 158.50687717082215,40 L 158.53137402158882,40 L 158.56359445880784,40 L 160.04887059786543,40 L 160.08101935446774,40 L 160.10974536162132,40 L 161.60405325838659,40 L 161.62933859593724,40 L 161.65709691476496,40 L 163.15015040073752,40 L 163.17495189412523,40 L 163.20002218982572,40 L 163.23975117164696,40 L 164.70404281015757,40 L 164.73020623526313,40 L 164.75740902931122,40 L 166.25128684237612,40 L 166.27737858686496,40 L 166.30588955216834,40 L 167.7987996769074,40 L 167.82281268351116,40 L 167.85021259925526,40 L 169.3425492790605,40 L 169.37140072729338,40 L 170.9017281339642,40 L 170.91925404475413,40 L 170.94706612404443,40 L 172.4423237889813,40 L 172.46699984128978,40 L 172.49749994370734,40 L 173.9902487870588,40 L 174.01433347427925,40 L 174.0414108272481,40 L 175.54125605165555,40 L 175.56709691398584,40 L 175.59947863259254,40 L 177.09117018684722,40 L 177.11901810644588,40 L 177.1457191361769,40 L 178.64205201036472,40 L 178.6591836777626,40 L 178.6881964073831,40 L 180.18497728542545,40 L 180.2073774781528,40 L 180.23307497924964,40 L 181.73295604396546,40 L 181.75383302358736,40 L 181.7854979360268,40 L 183.28057639942185,40 L 183.30347835646631,40 L 183.33333333333334,40" fill="none" stroke="none"/>
  </g>
  
  <!-- Footer -->
  <text x="400" y="580" text-anchor="middle" fill="#64748b" font-size="12" font-family="Arial, sans-serif">
    Generated by GitHub User Rank Tracker • 9/26/2025
    <animate attributeName="opacity" values="0;1" dur="0.5s" begin="5s" fill="freeze"/>
  </text>
</svg>