<svg width="800" height="600" xmlns="http://www.w3.org/2000/svg">
  <defs>
    <linearGradient id="bgGradient" x1="0%" y1="0%" x2="100%" y2="100%">
      <stop offset="0%" style="stop-color:#1e293b;stop-opacity:1" />
      <stop offset="100%" style="stop-color:#0f172a;stop-opacity:1" />
    </linearGradient>
    <filter id="shadow" x="-20%" y="-20%" width="140%" height="140%">
      <feDropShadow dx="2" dy="2" stdDeviation="3" flood-color="#000" flood-opacity="0.3"/>
    </filter>
    <!-- Trail effect filter -->
    <filter id="trailGlow" x="-50%" y="-50%" width="200%" height="200%">
      <feGaussianBlur stdDeviation="3" result="coloredBlur"/>
      <feMerge> 
        <feMergeNode in="coloredBlur"/>
        <feMergeNode in="SourceGraphic"/>
      </feMerge>
    </filter>
  </defs>
  
  <!-- Background -->
  <rect width="800" height="600" fill="url(#bgGradient)" rx="12"/>
  
  <!-- Header -->
  <text x="400" y="40" text-anchor="middle" fill="#f8fafc" font-size="24" font-weight="bold" font-family="Arial, sans-serif">
    GitHub Progress Report
    <animate attributeName="opacity" values="0;1" dur="0.8s" begin="0s" fill="freeze"/>
    <animateTransform attributeName="transform" type="translate" values="0,-20;0,0" dur="0.8s" begin="0s" fill="freeze"/>
  </text>
  
  <!-- User Info -->
  <text x="400" y="70" text-anchor="middle" fill="#cbd5e1" font-size="16" font-family="Arial, sans-serif">
    @maifeeulasad • BANGLADESH • 100 days analyzed
    <animate attributeName="opacity" values="0;1" dur="0.6s" begin="0.3s" fill="freeze"/>
  </text>
  
  <!-- Progress Cards -->
  <!-- Followers Card -->
  <g transform="translate(60, 100)">
    <rect width="206.66666666666666" height="120" fill="#1e293b" stroke="#334155" stroke-width="1" rx="8" filter="url(#shadow)">
      <animate attributeName="opacity" values="0;1" dur="0.6s" begin="0.2s" fill="freeze"/>
      <animateTransform attributeName="transform" type="scale" values="0.8;1" dur="0.6s" begin="0.2s" fill="freeze"/>
    </rect>
    <text x="103.33333333333333" y="25" text-anchor="middle" fill="#94a3b8" font-size="14" font-weight="bold" font-family="Arial, sans-serif">FOLLOWERS
      <animate attributeName="opacity" values="0;1" dur="0.5s" begin="0.4s" fill="freeze"/>
    </text>
    
    <text x="103.33333333333333" y="50" text-anchor="middle" fill="#ef4444" font-size="32" font-weight="bold" font-family="Arial, sans-serif">
      ↘
      <animate attributeName="opacity" values="0;1" dur="0.5s" begin="0.6s" fill="freeze"/>
      <animateTransform attributeName="transform" type="scale" values="0;1.2;1" dur="0.8s" begin="0.6s" fill="freeze"/>
    </text>
    
    <text x="103.33333333333333" y="75" text-anchor="middle" fill="#f8fafc" font-size="18" font-weight="bold" font-family="Arial, sans-serif">
      -15
      <animate attributeName="opacity" values="0;1" dur="0.5s" begin="0.8s" fill="freeze"/>
    </text>
    
    <text x="103.33333333333333" y="95" text-anchor="middle" fill="#94a3b8" font-size="12" font-family="Arial, sans-serif">
      #466 → #481
      <animate attributeName="opacity" values="0;1" dur="0.5s" begin="1s" fill="freeze"/>
    </text>
  </g>
  
  <!-- Public Contributions Card -->
  <g transform="translate(296.66666666666663, 100)">
    <rect width="206.66666666666666" height="120" fill="#1e293b" stroke="#334155" stroke-width="1" rx="8" filter="url(#shadow)">
      <animate attributeName="opacity" values="0;1" dur="0.6s" begin="0.4s" fill="freeze"/>
      <animateTransform attributeName="transform" type="scale" values="0.8;1" dur="0.6s" begin="0.4s" fill="freeze"/>
    </rect>
    <text x="103.33333333333333" y="25" text-anchor="middle" fill="#94a3b8" font-size="14" font-weight="bold" font-family="Arial, sans-serif">PUBLIC
      <animate attributeName="opacity" values="0;1" dur="0.5s" begin="0.6s" fill="freeze"/>
    </text>
    
    <text x="103.33333333333333" y="50" text-anchor="middle" fill="#6b7280" font-size="32" font-weight="bold" font-family="Arial, sans-serif">
      →
      <animate attributeName="opacity" values="0;1" dur="0.5s" begin="0.8s" fill="freeze"/>
      <animateTransform attributeName="transform" type="scale" values="0;1.2;1" dur="0.8s" begin="0.8s" fill="freeze"/>
    </text>
    
    <text x="103.33333333333333" y="75" text-anchor="middle" fill="#f8fafc" font-size="18" font-weight="bold" font-family="Arial, sans-serif">
      0
      <animate attributeName="opacity" values="0;1" dur="0.5s" begin="1s" fill="freeze"/>
    </text>
    
    <text x="103.33333333333333" y="95" text-anchor="middle" fill="#94a3b8" font-size="12" font-family="Arial, sans-serif">
      #7 → #7
      <animate attributeName="opacity" values="0;1" dur="0.5s" begin="1.2s" fill="freeze"/>
    </text>
  </g>
  
  <!-- Total Contributions Card -->
  <g transform="translate(533.3333333333333, 100)">
    <rect width="206.66666666666666" height="120" fill="#1e293b" stroke="#334155" stroke-width="1" rx="8" filter="url(#shadow)">
      <animate attributeName="opacity" values="0;1" dur="0.6s" begin="0.6s" fill="freeze"/>
      <animateTransform attributeName="transform" type="scale" values="0.8;1" dur="0.6s" begin="0.6s" fill="freeze"/>
    </rect>
    <text x="103.33333333333333" y="25" text-anchor="middle" fill="#94a3b8" font-size="14" font-weight="bold" font-family="Arial, sans-serif">TOTAL
      <animate attributeName="opacity" values="0;1" dur="0.5s" begin="0.8s" fill="freeze"/>
    </text>
    
    <text x="103.33333333333333" y="50" text-anchor="middle" fill="#22c55e" font-size="32" font-weight="bold" font-family="Arial, sans-serif">
      ↗
      <animate attributeName="opacity" values="0;1" dur="0.5s" begin="1s" fill="freeze"/>
      <animateTransform attributeName="transform" type="scale" values="0;1.2;1" dur="0.8s" begin="1s" fill="freeze"/>
    </text>
    
    <text x="103.33333333333333" y="75" text-anchor="middle" fill="#f8fafc" font-size="18" font-weight="bold" font-family="Arial, sans-serif">
      +3
      <animate attributeName="opacity" values="0;1" dur="0.5s" begin="1.2s" fill="freeze"/>
    </text>
    
    <text x="103.33333333333333" y="95" text-anchor="middle" fill="#94a3b8" font-size="12" font-family="Arial, sans-serif">
      #15 → #12
      <animate attributeName="opacity" values="0;1" dur="0.5s" begin="1.4s" fill="freeze"/>
    </text>
  </g>
  
  <!-- Timeline Charts (if we have snapshots) -->
  
  <!-- 👥 Followers Count Chart -->
  <g transform="translate(60, 250)">
    <!-- Chart Background -->
    <rect x="0" y="0" width="213.33333333333334" height="200" fill="#0f172a" stroke="#334155" stroke-width="1" rx="8" filter="url(#shadow)">
      <animate attributeName="opacity" values="0;1" dur="0.5s" begin="1.8s" fill="freeze"/>
    </rect>
    
    <!-- Chart Title -->
    <text x="106.66666666666667" y="25" text-anchor="middle" fill="#f8fafc" font-size="14" font-weight="bold" font-family="Arial, sans-serif">
      👥 Followers Count
      <animate attributeName="opacity" values="0;1" dur="0.5s" begin="2s" fill="freeze"/>
    </text>
    
    <!-- Y-axis labels -->
    <text x="10" y="45" fill="#94a3b8" font-size="10" font-family="Arial, sans-serif">154
      <animate attributeName="opacity" values="0;1" dur="0.5s" begin="2.2s" fill="freeze"/>
    </text>
    <text x="10" y="185" fill="#94a3b8" font-size="10" font-family="Arial, sans-serif">150
      <animate attributeName="opacity" values="0;1" dur="0.5s" begin="2.2s" fill="freeze"/>
    </text>
    
    <!-- Chart Line with draw animation that follows the circle -->
    <path d="M 30,160 L 30.41415589333255,160 L 30.446201011217383,160 L 30.479961874398896,160 L 31.95814793687456,160 L 31.986171776720305,160 L 32.018985405519274,160 L 33.500424235119894,160 L 33.52203190244993,160 L 33.55827702184226,160 L 35.04666819436379,160 L 35.07365543809279,160 L 35.105039279144535,160 L 36.59092832310841,160 L 36.62333088793005,160 L 36.65671643182792,160 L 38.13322249370058,160 L 38.160817397222154,160 L 38.197151878348684,160 L 39.68170049629953,160 L 39.705238377088335,160 L 39.73422732366346,160 L 41.224566581990594,160 L 41.25798787058214,160 L 41.28928234989968,160 L 42.76784373165899,160 L 42.79792289139138,160 L 42.83170162691973,160 L 44.309834072354874,160 L 44.33916259351997,160 L 44.37222643517471,160 L 45.85722186179656,160 L 45.88463804184973,160 L 45.912679754042315,160 L 47.39964113881662,160 L 47.427361148766074,160 L 47.46067520327658,160 L 48.93492934944736,160 L 48.97163914985753,160 L 49.00243320346354,160 L 50.487160544882784,160 L 50.50883970160019,160 L 50.547819290059095,160 L 52.03317216361776,160 L 52.06575345190781,160 L 52.10008623018821,160 L 53.579541229289546,160 L 53.60935230381933,160 L 53.64093274068631,160 L 55.11456135471768,160 L 55.14694604719247,160 L 55.179241377933074,160 L 56.66350403833448,160 L 56.69381553857579,160 L 56.72845214675249,160 L 58.208157358709585,160 L 58.23605609212744,160 L 58.26685014573345,160 L 59.753454083570944,160 L 59.773328133257465,160 L 59.82211964013175,160 L 61.29499761559582,160 L 61.325076775328206,160 L 61.35474487108327,160 L 62.842027958100694,160 L 62.87618201291269,160 L 62.907262024068146,160 L 64.38544808654382,160 L 64.41552724627621,160 L 64.45019959914657,160 L 65.92750991662706,160 L 65.95707077830107,160 L 65.98400440498955,160 L 67.47402196107356,160 L 67.50456580182382,160 L 67.5360211322629,160 L 69.02283953826247,160 L 69.05157827198184,160 L 69.07992381407071,160 L 70.56121966489661,160 L 70.59194222911525,70 L 70.6239516023064,70 L 72.11116319993647,70 L 72.13248490971708,70 L 72.16188492026953,70 L 73.65147354002936,70 L 73.67531525071445,70 L 73.71761909568568,70 L 75.19748515876432,70 L 75.22888687216292,70 L 75.25646390333765,70 L 76.7354006043806,70 L 76.76980487204838,70 L 76.80349424584253,70 L 78.28907945991011,70 L 78.30430669941813,70 L 78.34557394827262,70 L 79.83015831091714,70 L 79.86270385451351,70 L 79.8994672719642,70 L 81.37445418435544,70 L 81.40512313153357,70 L 81.4444244222356,70 L 82.91624792923608,70 L 82.9488649622198,70 L 82.98691518864301,70 L 84.46897955038304,70 L 84.50531403150957,70 L 86.00721669824244,70 L 86.08362098098515,70 L 87.55163767810862,70 L 87.58961641514448,70 L 87.62566493872154,70 L 89.0954331258354,70 L 89.13544931041105,70 L 89.16299059689209,70 L 90.64287453231759,70 L 90.67636731029651,70 L 90.71397072804871,70 L 92.18161210588853,70 L 92.21508701152061,70 L 92.25274404631332,70 L 93.72814202268188,70 L 93.76104501321504,70 L 93.79634289822485,70 L 95.27776385547861,70 L 95.32099706248553,70 L 96.85608867730103,70 L 96.89701635156554,70 L 98.36959049713332,70 L 98.40333348796798,70 L 99.91780041452967,70 L 99.94653914824903,70 L 99.9938651226824,70 L 101.45013968793174,70 L 101.48302480611807,70 L 101.51823332939365,70 L 102.99616917901355,70 L 103.03505940573825,70 L 103.07409261123769,70 L 104.53760547695738,70 L 104.56913229678385,70 L 104.60745060840966,70 L 106.08052517968898,70 L 106.11635923510397,70 L 106.16320265617266,70 L 107.61992403009299,70 L 107.6607087255828,70 L 107.70018873975323,70 L 109.17122586349272,70 L 109.2040394922917,70 L 109.24149993126917,70 L 110.71536088580946,70 L 110.74856770623893,70 L 110.78685027317105,70 L 112.25752994997376,70 L 112.29602698506797,70 L 112.33750870208455,70 L 113.80325561115929,70 L 113.83390668599056,70 L 113.87084882690968,70 L 115.34878467652958,70 L 115.37629021831694,70 L 115.41385789137546,70 L 116.88909501662245,70 L 116.92435715693857,70 L 116.9633010007038,70 L 118.43432025209646,70 L 118.47174494638026,70 L 118.51154666279382,70 L 119.98263740357385,70 L 120.00971400903704,70 L 120.04844338464018,70 L 121.52552136161174,70 L 121.561998821513,70 L 121.59452649276251,70 L 123.06502744609682,70 L 123.09841298999469,70 L 123.13685640804839,70 L 124.60651736108116,70 L 124.64701609902151,70 L 124.68406547402165,70 L 126.15411961868494,70 L 126.18468133178202,70 L 126.21899623771559,70 L 127.70442060066162,70 L 127.74172018851752,70 L 127.7837023312456,70 L 129.24735817574003,70 L 129.28067223025056,70 L 129.31398628476103,70 L 130.78804383511658,70 L 130.8250395930762,70 L 130.86142769124325,70 L 132.3256197061429,70 L 132.3657967418401,70 L 132.40404356407856,70 L 133.8685572812213,70 L 133.90871644457167,70 L 133.9527896518801,70 L 135.42716890447878,70 L 135.45910678828255,70 L 135.5004097818307,70 L 136.96747924457165,70 L 136.99507414809324,70 L 137.0300503308599,70 L 138.50727128660617,70 L 138.5437844912011,70 L 138.5808159938544,70 L 140.05221056453072,70 L 140.08409483129398,70 L 140.1253263354548,70 L 141.59604175695117,70 L 141.62812261952968,70 L 141.66611922891235,70 L 143.14069507732626,70 L 143.17213253541854,70 L 143.2061793561495,70 L 144.68316797138687,40 L 144.71292542887613,40 L 146.22610554646528,40 L 146.26244002759182,40 L 146.2967549335254,40 L 147.77184907999765,40 L 147.7968703655742,40 L 147.8394601680949,40 L 149.3244019776762,40 L 149.36214837420312,40 L 150.86103061432,40 L 150.90034977736883,40 L 150.95167915749448,40 L 152.40750691407277,40 L 152.44598607682016,40 L 152.4696669363837,40 L 153.95369725627617,40 L 153.98947769465065,40 L 154.0272062188307,40 L 155.4987973853223,40 L 155.53289782309378,40 L 155.57155570930956,40 L 157.04130602407656,40 L 157.07195709890783,40 L 157.11048987869572,40 L 158.58533381231223,40 L 158.61775424948073,40 L 158.6496027715503,40 L 160.12896840891744,40 L 160.16599991157074,40 L 160.20696333052894,40 L 161.6762132195844,40 L 161.71254770071093,40 L 161.75696048260932,40 L 163.2110010045036,40 L 163.248246975319,40 L 163.2910691183486,40 L 164.7622849655565,40 L 164.79783306342205,40 L 164.83447137444486,40 L 166.30736722225578,40 L 166.34899191804706,40 L 166.39306512535546,40 L 167.85209203201822,40 L 167.88965970507675,40 L 167.93593121104655,40 L 169.3933674788405,40 L 169.43270451423624,40 L 169.4690568677096,40 L 170.94386505663243,40 L 170.9797348567411,40 L 172.49144944188936,40 L 172.52428094303517,40 L 174.02972233444245,40 L 174.06687894352362,40 L 174.11100576787257,40 L 175.57189139860674,40 L 175.61880630906276,40 L 177.1193506774358,40 L 177.15127068889274,40 L 177.19334219335502,40 L 178.66008995385283,40 L 178.69890869119018,40 L 178.74305338788596,40 L 180.20000710231523,40 L 180.23748541363955,40 L 180.2692267016281,40 L 181.74939659460304,40 L 181.79254043987575,40 L 183.29462183007703,40 L 183.33333333333334,40" stroke="#22c55e" stroke-width="2" fill="none" stroke-dasharray="14450" stroke-dashoffset="14450">
      <animate attributeName="stroke-dashoffset" values="14450;0" dur="3s" begin="2.6s" fill="freeze"/>
    </path>
    
    <!-- Glow effect for the line that also follows the circle -->
    <path d="M 30,160 L 30.41415589333255,160 L 30.446201011217383,160 L 30.479961874398896,160 L 31.95814793687456,160 L 31.986171776720305,160 L 32.018985405519274,160 L 33.500424235119894,160 L 33.52203190244993,160 L 33.55827702184226,160 L 35.04666819436379,160 L 35.07365543809279,160 L 35.105039279144535,160 L 36.59092832310841,160 L 36.62333088793005,160 L 36.65671643182792,160 L 38.13322249370058,160 L 38.160817397222154,160 L 38.197151878348684,160 L 39.68170049629953,160 L 39.705238377088335,160 L 39.73422732366346,160 L 41.224566581990594,160 L 41.25798787058214,160 L 41.28928234989968,160 L 42.76784373165899,160 L 42.79792289139138,160 L 42.83170162691973,160 L 44.309834072354874,160 L 44.33916259351997,160 L 44.37222643517471,160 L 45.85722186179656,160 L 45.88463804184973,160 L 45.912679754042315,160 L 47.39964113881662,160 L 47.427361148766074,160 L 47.46067520327658,160 L 48.93492934944736,160 L 48.97163914985753,160 L 49.00243320346354,160 L 50.487160544882784,160 L 50.50883970160019,160 L 50.547819290059095,160 L 52.03317216361776,160 L 52.06575345190781,160 L 52.10008623018821,160 L 53.579541229289546,160 L 53.60935230381933,160 L 53.64093274068631,160 L 55.11456135471768,160 L 55.14694604719247,160 L 55.179241377933074,160 L 56.66350403833448,160 L 56.69381553857579,160 L 56.72845214675249,160 L 58.208157358709585,160 L 58.23605609212744,160 L 58.26685014573345,160 L 59.753454083570944,160 L 59.773328133257465,160 L 59.82211964013175,160 L 61.29499761559582,160 L 61.325076775328206,160 L 61.35474487108327,160 L 62.842027958100694,160 L 62.87618201291269,160 L 62.907262024068146,160 L 64.38544808654382,160 L 64.41552724627621,160 L 64.45019959914657,160 L 65.92750991662706,160 L 65.95707077830107,160 L 65.98400440498955,160 L 67.47402196107356,160 L 67.50456580182382,160 L 67.5360211322629,160 L 69.02283953826247,160 L 69.05157827198184,160 L 69.07992381407071,160 L 70.56121966489661,160 L 70.59194222911525,70 L 70.6239516023064,70 L 72.11116319993647,70 L 72.13248490971708,70 L 72.16188492026953,70 L 73.65147354002936,70 L 73.67531525071445,70 L 73.71761909568568,70 L 75.19748515876432,70 L 75.22888687216292,70 L 75.25646390333765,70 L 76.7354006043806,70 L 76.76980487204838,70 L 76.80349424584253,70 L 78.28907945991011,70 L 78.30430669941813,70 L 78.34557394827262,70 L 79.83015831091714,70 L 79.86270385451351,70 L 79.8994672719642,70 L 81.37445418435544,70 L 81.40512313153357,70 L 81.4444244222356,70 L 82.91624792923608,70 L 82.9488649622198,70 L 82.98691518864301,70 L 84.46897955038304,70 L 84.50531403150957,70 L 86.00721669824244,70 L 86.08362098098515,70 L 87.55163767810862,70 L 87.58961641514448,70 L 87.62566493872154,70 L 89.0954331258354,70 L 89.13544931041105,70 L 89.16299059689209,70 L 90.64287453231759,70 L 90.67636731029651,70 L 90.71397072804871,70 L 92.18161210588853,70 L 92.21508701152061,70 L 92.25274404631332,70 L 93.72814202268188,70 L 93.76104501321504,70 L 93.79634289822485,70 L 95.27776385547861,70 L 95.32099706248553,70 L 96.85608867730103,70 L 96.89701635156554,70 L 98.36959049713332,70 L 98.40333348796798,70 L 99.91780041452967,70 L 99.94653914824903,70 L 99.9938651226824,70 L 101.45013968793174,70 L 101.48302480611807,70 L 101.51823332939365,70 L 102.99616917901355,70 L 103.03505940573825,70 L 103.07409261123769,70 L 104.53760547695738,70 L 104.56913229678385,70 L 104.60745060840966,70 L 106.08052517968898,70 L 106.11635923510397,70 L 106.16320265617266,70 L 107.61992403009299,70 L 107.6607087255828,70 L 107.70018873975323,70 L 109.17122586349272,70 L 109.2040394922917,70 L 109.24149993126917,70 L 110.71536088580946,70 L 110.74856770623893,70 L 110.78685027317105,70 L 112.25752994997376,70 L 112.29602698506797,70 L 112.33750870208455,70 L 113.80325561115929,70 L 113.83390668599056,70 L 113.87084882690968,70 L 115.34878467652958,70 L 115.37629021831694,70 L 115.41385789137546,70 L 116.88909501662245,70 L 116.92435715693857,70 L 116.9633010007038,70 L 118.43432025209646,70 L 118.47174494638026,70 L 118.51154666279382,70 L 119.98263740357385,70 L 120.00971400903704,70 L 120.04844338464018,70 L 121.52552136161174,70 L 121.561998821513,70 L 121.59452649276251,70 L 123.06502744609682,70 L 123.09841298999469,70 L 123.13685640804839,70 L 124.60651736108116,70 L 124.64701609902151,70 L 124.68406547402165,70 L 126.15411961868494,70 L 126.18468133178202,70 L 126.21899623771559,70 L 127.70442060066162,70 L 127.74172018851752,70 L 127.7837023312456,70 L 129.24735817574003,70 L 129.28067223025056,70 L 129.31398628476103,70 L 130.78804383511658,70 L 130.8250395930762,70 L 130.86142769124325,70 L 132.3256197061429,70 L 132.3657967418401,70 L 132.40404356407856,70 L 133.8685572812213,70 L 133.90871644457167,70 L 133.9527896518801,70 L 135.42716890447878,70 L 135.45910678828255,70 L 135.5004097818307,70 L 136.96747924457165,70 L 136.99507414809324,70 L 137.0300503308599,70 L 138.50727128660617,70 L 138.5437844912011,70 L 138.5808159938544,70 L 140.05221056453072,70 L 140.08409483129398,70 L 140.1253263354548,70 L 141.59604175695117,70 L 141.62812261952968,70 L 141.66611922891235,70 L 143.14069507732626,70 L 143.17213253541854,70 L 143.2061793561495,70 L 144.68316797138687,40 L 144.71292542887613,40 L 146.22610554646528,40 L 146.26244002759182,40 L 146.2967549335254,40 L 147.77184907999765,40 L 147.7968703655742,40 L 147.8394601680949,40 L 149.3244019776762,40 L 149.36214837420312,40 L 150.86103061432,40 L 150.90034977736883,40 L 150.95167915749448,40 L 152.40750691407277,40 L 152.44598607682016,40 L 152.4696669363837,40 L 153.95369725627617,40 L 153.98947769465065,40 L 154.0272062188307,40 L 155.4987973853223,40 L 155.53289782309378,40 L 155.57155570930956,40 L 157.04130602407656,40 L 157.07195709890783,40 L 157.11048987869572,40 L 158.58533381231223,40 L 158.61775424948073,40 L 158.6496027715503,40 L 160.12896840891744,40 L 160.16599991157074,40 L 160.20696333052894,40 L 161.6762132195844,40 L 161.71254770071093,40 L 161.75696048260932,40 L 163.2110010045036,40 L 163.248246975319,40 L 163.2910691183486,40 L 164.7622849655565,40 L 164.79783306342205,40 L 164.83447137444486,40 L 166.30736722225578,40 L 166.34899191804706,40 L 166.39306512535546,40 L 167.85209203201822,40 L 167.88965970507675,40 L 167.93593121104655,40 L 169.3933674788405,40 L 169.43270451423624,40 L 169.4690568677096,40 L 170.94386505663243,40 L 170.9797348567411,40 L 172.49144944188936,40 L 172.52428094303517,40 L 174.02972233444245,40 L 174.06687894352362,40 L 174.11100576787257,40 L 175.57189139860674,40 L 175.61880630906276,40 L 177.1193506774358,40 L 177.15127068889274,40 L 177.19334219335502,40 L 178.66008995385283,40 L 178.69890869119018,40 L 178.74305338788596,40 L 180.20000710231523,40 L 180.23748541363955,40 L 180.2692267016281,40 L 181.74939659460304,40 L 181.79254043987575,40 L 183.29462183007703,40 L 183.33333333333334,40" stroke="#22c55e" stroke-width="4" fill="none" opacity="0.4" stroke-dasharray="14450" stroke-dashoffset="14450">
      <animate attributeName="stroke-dashoffset" values="14450;0" dur="3s" begin="2.6s" fill="freeze"/>
    </path>
    
    <!-- Animated circle that moves along the path and draws the line -->
    <circle r="5" fill="#22c55e" opacity="0" filter="url(#trailGlow)">
      <animate attributeName="opacity" values="0;1;1;1" dur="3.2s" begin="2.4s" fill="freeze"/>
      <animate attributeName="r" values="5;6;5" dur="1s" begin="2.4s" repeatCount="3"/>
      <animateMotion dur="3s" begin="2.4s" fill="freeze">
        <mpath href="#path_followersCount_60"/>
      </animateMotion>
    </circle>
    
    <!-- Small trail dots that fade out -->
    <circle r="2" fill="#22c55e" opacity="0">
      <animate attributeName="opacity" values="0;0.6;0" dur="0.8s" begin="2.8s" fill="freeze"/>
      <animateMotion dur="3s" begin="2.4s" fill="freeze">
        <mpath href="#path_followersCount_60"/>
      </animateMotion>
    </circle>
    
    <!-- Hidden path for motion animation -->
    <path id="path_followersCount_60" d="M 30,160 L 30.41415589333255,160 L 30.446201011217383,160 L 30.479961874398896,160 L 31.95814793687456,160 L 31.986171776720305,160 L 32.018985405519274,160 L 33.500424235119894,160 L 33.52203190244993,160 L 33.55827702184226,160 L 35.04666819436379,160 L 35.07365543809279,160 L 35.105039279144535,160 L 36.59092832310841,160 L 36.62333088793005,160 L 36.65671643182792,160 L 38.13322249370058,160 L 38.160817397222154,160 L 38.197151878348684,160 L 39.68170049629953,160 L 39.705238377088335,160 L 39.73422732366346,160 L 41.224566581990594,160 L 41.25798787058214,160 L 41.28928234989968,160 L 42.76784373165899,160 L 42.79792289139138,160 L 42.83170162691973,160 L 44.309834072354874,160 L 44.33916259351997,160 L 44.37222643517471,160 L 45.85722186179656,160 L 45.88463804184973,160 L 45.912679754042315,160 L 47.39964113881662,160 L 47.427361148766074,160 L 47.46067520327658,160 L 48.93492934944736,160 L 48.97163914985753,160 L 49.00243320346354,160 L 50.487160544882784,160 L 50.50883970160019,160 L 50.547819290059095,160 L 52.03317216361776,160 L 52.06575345190781,160 L 52.10008623018821,160 L 53.579541229289546,160 L 53.60935230381933,160 L 53.64093274068631,160 L 55.11456135471768,160 L 55.14694604719247,160 L 55.179241377933074,160 L 56.66350403833448,160 L 56.69381553857579,160 L 56.72845214675249,160 L 58.208157358709585,160 L 58.23605609212744,160 L 58.26685014573345,160 L 59.753454083570944,160 L 59.773328133257465,160 L 59.82211964013175,160 L 61.29499761559582,160 L 61.325076775328206,160 L 61.35474487108327,160 L 62.842027958100694,160 L 62.87618201291269,160 L 62.907262024068146,160 L 64.38544808654382,160 L 64.41552724627621,160 L 64.45019959914657,160 L 65.92750991662706,160 L 65.95707077830107,160 L 65.98400440498955,160 L 67.47402196107356,160 L 67.50456580182382,160 L 67.5360211322629,160 L 69.02283953826247,160 L 69.05157827198184,160 L 69.07992381407071,160 L 70.56121966489661,160 L 70.59194222911525,70 L 70.6239516023064,70 L 72.11116319993647,70 L 72.13248490971708,70 L 72.16188492026953,70 L 73.65147354002936,70 L 73.67531525071445,70 L 73.71761909568568,70 L 75.19748515876432,70 L 75.22888687216292,70 L 75.25646390333765,70 L 76.7354006043806,70 L 76.76980487204838,70 L 76.80349424584253,70 L 78.28907945991011,70 L 78.30430669941813,70 L 78.34557394827262,70 L 79.83015831091714,70 L 79.86270385451351,70 L 79.8994672719642,70 L 81.37445418435544,70 L 81.40512313153357,70 L 81.4444244222356,70 L 82.91624792923608,70 L 82.9488649622198,70 L 82.98691518864301,70 L 84.46897955038304,70 L 84.50531403150957,70 L 86.00721669824244,70 L 86.08362098098515,70 L 87.55163767810862,70 L 87.58961641514448,70 L 87.62566493872154,70 L 89.0954331258354,70 L 89.13544931041105,70 L 89.16299059689209,70 L 90.64287453231759,70 L 90.67636731029651,70 L 90.71397072804871,70 L 92.18161210588853,70 L 92.21508701152061,70 L 92.25274404631332,70 L 93.72814202268188,70 L 93.76104501321504,70 L 93.79634289822485,70 L 95.27776385547861,70 L 95.32099706248553,70 L 96.85608867730103,70 L 96.89701635156554,70 L 98.36959049713332,70 L 98.40333348796798,70 L 99.91780041452967,70 L 99.94653914824903,70 L 99.9938651226824,70 L 101.45013968793174,70 L 101.48302480611807,70 L 101.51823332939365,70 L 102.99616917901355,70 L 103.03505940573825,70 L 103.07409261123769,70 L 104.53760547695738,70 L 104.56913229678385,70 L 104.60745060840966,70 L 106.08052517968898,70 L 106.11635923510397,70 L 106.16320265617266,70 L 107.61992403009299,70 L 107.6607087255828,70 L 107.70018873975323,70 L 109.17122586349272,70 L 109.2040394922917,70 L 109.24149993126917,70 L 110.71536088580946,70 L 110.74856770623893,70 L 110.78685027317105,70 L 112.25752994997376,70 L 112.29602698506797,70 L 112.33750870208455,70 L 113.80325561115929,70 L 113.83390668599056,70 L 113.87084882690968,70 L 115.34878467652958,70 L 115.37629021831694,70 L 115.41385789137546,70 L 116.88909501662245,70 L 116.92435715693857,70 L 116.9633010007038,70 L 118.43432025209646,70 L 118.47174494638026,70 L 118.51154666279382,70 L 119.98263740357385,70 L 120.00971400903704,70 L 120.04844338464018,70 L 121.52552136161174,70 L 121.561998821513,70 L 121.59452649276251,70 L 123.06502744609682,70 L 123.09841298999469,70 L 123.13685640804839,70 L 124.60651736108116,70 L 124.64701609902151,70 L 124.68406547402165,70 L 126.15411961868494,70 L 126.18468133178202,70 L 126.21899623771559,70 L 127.70442060066162,70 L 127.74172018851752,70 L 127.7837023312456,70 L 129.24735817574003,70 L 129.28067223025056,70 L 129.31398628476103,70 L 130.78804383511658,70 L 130.8250395930762,70 L 130.86142769124325,70 L 132.3256197061429,70 L 132.3657967418401,70 L 132.40404356407856,70 L 133.8685572812213,70 L 133.90871644457167,70 L 133.9527896518801,70 L 135.42716890447878,70 L 135.45910678828255,70 L 135.5004097818307,70 L 136.96747924457165,70 L 136.99507414809324,70 L 137.0300503308599,70 L 138.50727128660617,70 L 138.5437844912011,70 L 138.5808159938544,70 L 140.05221056453072,70 L 140.08409483129398,70 L 140.1253263354548,70 L 141.59604175695117,70 L 141.62812261952968,70 L 141.66611922891235,70 L 143.14069507732626,70 L 143.17213253541854,70 L 143.2061793561495,70 L 144.68316797138687,40 L 144.71292542887613,40 L 146.22610554646528,40 L 146.26244002759182,40 L 146.2967549335254,40 L 147.77184907999765,40 L 147.7968703655742,40 L 147.8394601680949,40 L 149.3244019776762,40 L 149.36214837420312,40 L 150.86103061432,40 L 150.90034977736883,40 L 150.95167915749448,40 L 152.40750691407277,40 L 152.44598607682016,40 L 152.4696669363837,40 L 153.95369725627617,40 L 153.98947769465065,40 L 154.0272062188307,40 L 155.4987973853223,40 L 155.53289782309378,40 L 155.57155570930956,40 L 157.04130602407656,40 L 157.07195709890783,40 L 157.11048987869572,40 L 158.58533381231223,40 L 158.61775424948073,40 L 158.6496027715503,40 L 160.12896840891744,40 L 160.16599991157074,40 L 160.20696333052894,40 L 161.6762132195844,40 L 161.71254770071093,40 L 161.75696048260932,40 L 163.2110010045036,40 L 163.248246975319,40 L 163.2910691183486,40 L 164.7622849655565,40 L 164.79783306342205,40 L 164.83447137444486,40 L 166.30736722225578,40 L 166.34899191804706,40 L 166.39306512535546,40 L 167.85209203201822,40 L 167.88965970507675,40 L 167.93593121104655,40 L 169.3933674788405,40 L 169.43270451423624,40 L 169.4690568677096,40 L 170.94386505663243,40 L 170.9797348567411,40 L 172.49144944188936,40 L 172.52428094303517,40 L 174.02972233444245,40 L 174.06687894352362,40 L 174.11100576787257,40 L 175.57189139860674,40 L 175.61880630906276,40 L 177.1193506774358,40 L 177.15127068889274,40 L 177.19334219335502,40 L 178.66008995385283,40 L 178.69890869119018,40 L 178.74305338788596,40 L 180.20000710231523,40 L 180.23748541363955,40 L 180.2692267016281,40 L 181.74939659460304,40 L 181.79254043987575,40 L 183.29462183007703,40 L 183.33333333333334,40" fill="none" stroke="none"/>
  </g>
  <!-- 🔓 Public Contributions Chart -->
  <g transform="translate(293.33333333333337, 250)">
    <!-- Chart Background -->
    <rect x="0" y="0" width="213.33333333333334" height="200" fill="#0f172a" stroke="#334155" stroke-width="1" rx="8" filter="url(#shadow)">
      <animate attributeName="opacity" values="0;1" dur="0.5s" begin="2.3s" fill="freeze"/>
    </rect>
    
    <!-- Chart Title -->
    <text x="106.66666666666667" y="25" text-anchor="middle" fill="#f8fafc" font-size="14" font-weight="bold" font-family="Arial, sans-serif">
      🔓 Public Contributions
      <animate attributeName="opacity" values="0;1" dur="0.5s" begin="2.5s" fill="freeze"/>
    </text>
    
    <!-- Y-axis labels -->
    <text x="10" y="45" fill="#94a3b8" font-size="10" font-family="Arial, sans-serif">3,861
      <animate attributeName="opacity" values="0;1" dur="0.5s" begin="2.6999999999999997s" fill="freeze"/>
    </text>
    <text x="10" y="185" fill="#94a3b8" font-size="10" font-family="Arial, sans-serif">3,434
      <animate attributeName="opacity" values="0;1" dur="0.5s" begin="2.6999999999999997s" fill="freeze"/>
    </text>
    
    <!-- Chart Line with draw animation that follows the circle -->
    <path d="M 30,160 L 30.41415589333255,160 L 30.446201011217383,160 L 30.479961874398896,160 L 31.95814793687456,160 L 31.986171776720305,160 L 32.018985405519274,160 L 33.500424235119894,160 L 33.52203190244993,160 L 33.55827702184226,160 L 35.04666819436379,160 L 35.07365543809279,160 L 35.105039279144535,160 L 36.59092832310841,160 L 36.62333088793005,160 L 36.65671643182792,160 L 38.13322249370058,160 L 38.160817397222154,160 L 38.197151878348684,160 L 39.68170049629953,160 L 39.705238377088335,160 L 39.73422732366346,160 L 41.224566581990594,160 L 41.25798787058214,160 L 41.28928234989968,160 L 42.76784373165899,160 L 42.79792289139138,160 L 42.83170162691973,160 L 44.309834072354874,160 L 44.33916259351997,160 L 44.37222643517471,160 L 45.85722186179656,160 L 45.88463804184973,160 L 45.912679754042315,160 L 47.39964113881662,160 L 47.427361148766074,160 L 47.46067520327658,160 L 48.93492934944736,160 L 48.97163914985753,160 L 49.00243320346354,160 L 50.487160544882784,160 L 50.50883970160019,160 L 50.547819290059095,160 L 52.03317216361776,160 L 52.06575345190781,160 L 52.10008623018821,160 L 53.579541229289546,160 L 53.60935230381933,160 L 53.64093274068631,160 L 55.11456135471768,160 L 55.14694604719247,160 L 55.179241377933074,160 L 56.66350403833448,160 L 56.69381553857579,160 L 56.72845214675249,160 L 58.208157358709585,160 L 58.23605609212744,160 L 58.26685014573345,160 L 59.753454083570944,160 L 59.773328133257465,160 L 59.82211964013175,160 L 61.29499761559582,160 L 61.325076775328206,160 L 61.35474487108327,160 L 62.842027958100694,160 L 62.87618201291269,160 L 62.907262024068146,160 L 64.38544808654382,160 L 64.41552724627621,160 L 64.45019959914657,160 L 65.92750991662706,160 L 65.95707077830107,160 L 65.98400440498955,160 L 67.47402196107356,160 L 67.50456580182382,160 L 67.5360211322629,160 L 69.02283953826247,160 L 69.05157827198184,160 L 69.07992381407071,160 L 70.56121966489661,160 L 70.59194222911525,40 L 70.6239516023064,40 L 72.11116319993647,40 L 72.13248490971708,40 L 72.16188492026953,40 L 73.65147354002936,40 L 73.67531525071445,40 L 73.71761909568568,40 L 75.19748515876432,40 L 75.22888687216292,40 L 75.25646390333765,40 L 76.7354006043806,40 L 76.76980487204838,40 L 76.80349424584253,40 L 78.28907945991011,40 L 78.30430669941813,40 L 78.34557394827262,40 L 79.83015831091714,40 L 79.86270385451351,40 L 79.8994672719642,40 L 81.37445418435544,40 L 81.40512313153357,40 L 81.4444244222356,40 L 82.91624792923608,40 L 82.9488649622198,40 L 82.98691518864301,40 L 84.46897955038304,40 L 84.50531403150957,40 L 86.00721669824244,40 L 86.08362098098515,40 L 87.55163767810862,40 L 87.58961641514448,40 L 87.62566493872154,40 L 89.0954331258354,40 L 89.13544931041105,40 L 89.16299059689209,40 L 90.64287453231759,40 L 90.67636731029651,40 L 90.71397072804871,40 L 92.18161210588853,40 L 92.21508701152061,40 L 92.25274404631332,40 L 93.72814202268188,40 L 93.76104501321504,40 L 93.79634289822485,40 L 95.27776385547861,40 L 95.32099706248553,40 L 96.85608867730103,40 L 96.89701635156554,40 L 98.36959049713332,40 L 98.40333348796798,40 L 99.91780041452967,40 L 99.94653914824903,40 L 99.9938651226824,40 L 101.45013968793174,40 L 101.48302480611807,40 L 101.51823332939365,40 L 102.99616917901355,40 L 103.03505940573825,40 L 103.07409261123769,40 L 104.53760547695738,40 L 104.56913229678385,40 L 104.60745060840966,40 L 106.08052517968898,40 L 106.11635923510397,40 L 106.16320265617266,40 L 107.61992403009299,40 L 107.6607087255828,40 L 107.70018873975323,40 L 109.17122586349272,40 L 109.2040394922917,40 L 109.24149993126917,40 L 110.71536088580946,40 L 110.74856770623893,40 L 110.78685027317105,40 L 112.25752994997376,40 L 112.29602698506797,40 L 112.33750870208455,40 L 113.80325561115929,40 L 113.83390668599056,40 L 113.87084882690968,40 L 115.34878467652958,40 L 115.37629021831694,40 L 115.41385789137546,40 L 116.88909501662245,40 L 116.92435715693857,40 L 116.9633010007038,40 L 118.43432025209646,40 L 118.47174494638026,40 L 118.51154666279382,40 L 119.98263740357385,40 L 120.00971400903704,40 L 120.04844338464018,40 L 121.52552136161174,40 L 121.561998821513,40 L 121.59452649276251,40 L 123.06502744609682,40 L 123.09841298999469,40 L 123.13685640804839,40 L 124.60651736108116,40 L 124.64701609902151,40 L 124.68406547402165,40 L 126.15411961868494,40 L 126.18468133178202,40 L 126.21899623771559,40 L 127.70442060066162,40 L 127.74172018851752,40 L 127.7837023312456,40 L 129.24735817574003,40 L 129.28067223025056,40 L 129.31398628476103,40 L 130.78804383511658,40 L 130.8250395930762,40 L 130.86142769124325,40 L 132.3256197061429,40 L 132.3657967418401,40 L 132.40404356407856,40 L 133.8685572812213,40 L 133.90871644457167,40 L 133.9527896518801,40 L 135.42716890447878,40 L 135.45910678828255,40 L 135.5004097818307,40 L 136.96747924457165,40 L 136.99507414809324,40 L 137.0300503308599,40 L 138.50727128660617,40 L 138.5437844912011,40 L 138.5808159938544,40 L 140.05221056453072,40 L 140.08409483129398,40 L 140.1253263354548,40 L 141.59604175695117,40 L 141.62812261952968,40 L 141.66611922891235,40 L 143.14069507732626,40 L 143.17213253541854,40 L 143.2061793561495,40 L 144.68316797138687,66.4168618266979 L 144.71292542887613,66.4168618266979 L 146.22610554646528,66.4168618266979 L 146.26244002759182,66.4168618266979 L 146.2967549335254,66.4168618266979 L 147.77184907999765,66.4168618266979 L 147.7968703655742,66.4168618266979 L 147.8394601680949,66.4168618266979 L 149.3244019776762,66.4168618266979 L 149.36214837420312,66.4168618266979 L 150.86103061432,66.4168618266979 L 150.90034977736883,66.4168618266979 L 150.95167915749448,66.4168618266979 L 152.40750691407277,66.4168618266979 L 152.44598607682016,66.4168618266979 L 152.4696669363837,66.4168618266979 L 153.95369725627617,66.4168618266979 L 153.98947769465065,66.4168618266979 L 154.0272062188307,66.4168618266979 L 155.4987973853223,66.4168618266979 L 155.53289782309378,66.4168618266979 L 155.57155570930956,66.4168618266979 L 157.04130602407656,66.4168618266979 L 157.07195709890783,66.4168618266979 L 157.11048987869572,66.4168618266979 L 158.58533381231223,66.4168618266979 L 158.61775424948073,66.4168618266979 L 158.6496027715503,66.4168618266979 L 160.12896840891744,66.4168618266979 L 160.16599991157074,66.4168618266979 L 160.20696333052894,66.4168618266979 L 161.6762132195844,66.4168618266979 L 161.71254770071093,66.4168618266979 L 161.75696048260932,66.4168618266979 L 163.2110010045036,66.4168618266979 L 163.248246975319,66.4168618266979 L 163.2910691183486,66.4168618266979 L 164.7622849655565,66.4168618266979 L 164.79783306342205,66.4168618266979 L 164.83447137444486,66.4168618266979 L 166.30736722225578,66.4168618266979 L 166.34899191804706,66.4168618266979 L 166.39306512535546,66.4168618266979 L 167.85209203201822,66.4168618266979 L 167.88965970507675,66.4168618266979 L 167.93593121104655,66.4168618266979 L 169.3933674788405,66.4168618266979 L 169.43270451423624,66.4168618266979 L 169.4690568677096,66.4168618266979 L 170.94386505663243,66.4168618266979 L 170.9797348567411,66.4168618266979 L 172.49144944188936,66.4168618266979 L 172.52428094303517,66.4168618266979 L 174.02972233444245,66.4168618266979 L 174.06687894352362,66.4168618266979 L 174.11100576787257,66.4168618266979 L 175.57189139860674,66.4168618266979 L 175.61880630906276,66.4168618266979 L 177.1193506774358,66.4168618266979 L 177.15127068889274,66.4168618266979 L 177.19334219335502,66.4168618266979 L 178.66008995385283,66.4168618266979 L 178.69890869119018,66.4168618266979 L 178.74305338788596,66.4168618266979 L 180.20000710231523,66.4168618266979 L 180.23748541363955,66.4168618266979 L 180.2692267016281,66.4168618266979 L 181.74939659460304,66.4168618266979 L 181.79254043987575,66.4168618266979 L 183.29462183007703,66.4168618266979 L 183.33333333333334,66.4168618266979" stroke="#3b82f6" stroke-width="2" fill="none" stroke-dasharray="14450" stroke-dashoffset="14450">
      <animate attributeName="stroke-dashoffset" values="14450;0" dur="3s" begin="3.0999999999999996s" fill="freeze"/>
    </path>
    
    <!-- Glow effect for the line that also follows the circle -->
    <path d="M 30,160 L 30.41415589333255,160 L 30.446201011217383,160 L 30.479961874398896,160 L 31.95814793687456,160 L 31.986171776720305,160 L 32.018985405519274,160 L 33.500424235119894,160 L 33.52203190244993,160 L 33.55827702184226,160 L 35.04666819436379,160 L 35.07365543809279,160 L 35.105039279144535,160 L 36.59092832310841,160 L 36.62333088793005,160 L 36.65671643182792,160 L 38.13322249370058,160 L 38.160817397222154,160 L 38.197151878348684,160 L 39.68170049629953,160 L 39.705238377088335,160 L 39.73422732366346,160 L 41.224566581990594,160 L 41.25798787058214,160 L 41.28928234989968,160 L 42.76784373165899,160 L 42.79792289139138,160 L 42.83170162691973,160 L 44.309834072354874,160 L 44.33916259351997,160 L 44.37222643517471,160 L 45.85722186179656,160 L 45.88463804184973,160 L 45.912679754042315,160 L 47.39964113881662,160 L 47.427361148766074,160 L 47.46067520327658,160 L 48.93492934944736,160 L 48.97163914985753,160 L 49.00243320346354,160 L 50.487160544882784,160 L 50.50883970160019,160 L 50.547819290059095,160 L 52.03317216361776,160 L 52.06575345190781,160 L 52.10008623018821,160 L 53.579541229289546,160 L 53.60935230381933,160 L 53.64093274068631,160 L 55.11456135471768,160 L 55.14694604719247,160 L 55.179241377933074,160 L 56.66350403833448,160 L 56.69381553857579,160 L 56.72845214675249,160 L 58.208157358709585,160 L 58.23605609212744,160 L 58.26685014573345,160 L 59.753454083570944,160 L 59.773328133257465,160 L 59.82211964013175,160 L 61.29499761559582,160 L 61.325076775328206,160 L 61.35474487108327,160 L 62.842027958100694,160 L 62.87618201291269,160 L 62.907262024068146,160 L 64.38544808654382,160 L 64.41552724627621,160 L 64.45019959914657,160 L 65.92750991662706,160 L 65.95707077830107,160 L 65.98400440498955,160 L 67.47402196107356,160 L 67.50456580182382,160 L 67.5360211322629,160 L 69.02283953826247,160 L 69.05157827198184,160 L 69.07992381407071,160 L 70.56121966489661,160 L 70.59194222911525,40 L 70.6239516023064,40 L 72.11116319993647,40 L 72.13248490971708,40 L 72.16188492026953,40 L 73.65147354002936,40 L 73.67531525071445,40 L 73.71761909568568,40 L 75.19748515876432,40 L 75.22888687216292,40 L 75.25646390333765,40 L 76.7354006043806,40 L 76.76980487204838,40 L 76.80349424584253,40 L 78.28907945991011,40 L 78.30430669941813,40 L 78.34557394827262,40 L 79.83015831091714,40 L 79.86270385451351,40 L 79.8994672719642,40 L 81.37445418435544,40 L 81.40512313153357,40 L 81.4444244222356,40 L 82.91624792923608,40 L 82.9488649622198,40 L 82.98691518864301,40 L 84.46897955038304,40 L 84.50531403150957,40 L 86.00721669824244,40 L 86.08362098098515,40 L 87.55163767810862,40 L 87.58961641514448,40 L 87.62566493872154,40 L 89.0954331258354,40 L 89.13544931041105,40 L 89.16299059689209,40 L 90.64287453231759,40 L 90.67636731029651,40 L 90.71397072804871,40 L 92.18161210588853,40 L 92.21508701152061,40 L 92.25274404631332,40 L 93.72814202268188,40 L 93.76104501321504,40 L 93.79634289822485,40 L 95.27776385547861,40 L 95.32099706248553,40 L 96.85608867730103,40 L 96.89701635156554,40 L 98.36959049713332,40 L 98.40333348796798,40 L 99.91780041452967,40 L 99.94653914824903,40 L 99.9938651226824,40 L 101.45013968793174,40 L 101.48302480611807,40 L 101.51823332939365,40 L 102.99616917901355,40 L 103.03505940573825,40 L 103.07409261123769,40 L 104.53760547695738,40 L 104.56913229678385,40 L 104.60745060840966,40 L 106.08052517968898,40 L 106.11635923510397,40 L 106.16320265617266,40 L 107.61992403009299,40 L 107.6607087255828,40 L 107.70018873975323,40 L 109.17122586349272,40 L 109.2040394922917,40 L 109.24149993126917,40 L 110.71536088580946,40 L 110.74856770623893,40 L 110.78685027317105,40 L 112.25752994997376,40 L 112.29602698506797,40 L 112.33750870208455,40 L 113.80325561115929,40 L 113.83390668599056,40 L 113.87084882690968,40 L 115.34878467652958,40 L 115.37629021831694,40 L 115.41385789137546,40 L 116.88909501662245,40 L 116.92435715693857,40 L 116.9633010007038,40 L 118.43432025209646,40 L 118.47174494638026,40 L 118.51154666279382,40 L 119.98263740357385,40 L 120.00971400903704,40 L 120.04844338464018,40 L 121.52552136161174,40 L 121.561998821513,40 L 121.59452649276251,40 L 123.06502744609682,40 L 123.09841298999469,40 L 123.13685640804839,40 L 124.60651736108116,40 L 124.64701609902151,40 L 124.68406547402165,40 L 126.15411961868494,40 L 126.18468133178202,40 L 126.21899623771559,40 L 127.70442060066162,40 L 127.74172018851752,40 L 127.7837023312456,40 L 129.24735817574003,40 L 129.28067223025056,40 L 129.31398628476103,40 L 130.78804383511658,40 L 130.8250395930762,40 L 130.86142769124325,40 L 132.3256197061429,40 L 132.3657967418401,40 L 132.40404356407856,40 L 133.8685572812213,40 L 133.90871644457167,40 L 133.9527896518801,40 L 135.42716890447878,40 L 135.45910678828255,40 L 135.5004097818307,40 L 136.96747924457165,40 L 136.99507414809324,40 L 137.0300503308599,40 L 138.50727128660617,40 L 138.5437844912011,40 L 138.5808159938544,40 L 140.05221056453072,40 L 140.08409483129398,40 L 140.1253263354548,40 L 141.59604175695117,40 L 141.62812261952968,40 L 141.66611922891235,40 L 143.14069507732626,40 L 143.17213253541854,40 L 143.2061793561495,40 L 144.68316797138687,66.4168618266979 L 144.71292542887613,66.4168618266979 L 146.22610554646528,66.4168618266979 L 146.26244002759182,66.4168618266979 L 146.2967549335254,66.4168618266979 L 147.77184907999765,66.4168618266979 L 147.7968703655742,66.4168618266979 L 147.8394601680949,66.4168618266979 L 149.3244019776762,66.4168618266979 L 149.36214837420312,66.4168618266979 L 150.86103061432,66.4168618266979 L 150.90034977736883,66.4168618266979 L 150.95167915749448,66.4168618266979 L 152.40750691407277,66.4168618266979 L 152.44598607682016,66.4168618266979 L 152.4696669363837,66.4168618266979 L 153.95369725627617,66.4168618266979 L 153.98947769465065,66.4168618266979 L 154.0272062188307,66.4168618266979 L 155.4987973853223,66.4168618266979 L 155.53289782309378,66.4168618266979 L 155.57155570930956,66.4168618266979 L 157.04130602407656,66.4168618266979 L 157.07195709890783,66.4168618266979 L 157.11048987869572,66.4168618266979 L 158.58533381231223,66.4168618266979 L 158.61775424948073,66.4168618266979 L 158.6496027715503,66.4168618266979 L 160.12896840891744,66.4168618266979 L 160.16599991157074,66.4168618266979 L 160.20696333052894,66.4168618266979 L 161.6762132195844,66.4168618266979 L 161.71254770071093,66.4168618266979 L 161.75696048260932,66.4168618266979 L 163.2110010045036,66.4168618266979 L 163.248246975319,66.4168618266979 L 163.2910691183486,66.4168618266979 L 164.7622849655565,66.4168618266979 L 164.79783306342205,66.4168618266979 L 164.83447137444486,66.4168618266979 L 166.30736722225578,66.4168618266979 L 166.34899191804706,66.4168618266979 L 166.39306512535546,66.4168618266979 L 167.85209203201822,66.4168618266979 L 167.88965970507675,66.4168618266979 L 167.93593121104655,66.4168618266979 L 169.3933674788405,66.4168618266979 L 169.43270451423624,66.4168618266979 L 169.4690568677096,66.4168618266979 L 170.94386505663243,66.4168618266979 L 170.9797348567411,66.4168618266979 L 172.49144944188936,66.4168618266979 L 172.52428094303517,66.4168618266979 L 174.02972233444245,66.4168618266979 L 174.06687894352362,66.4168618266979 L 174.11100576787257,66.4168618266979 L 175.57189139860674,66.4168618266979 L 175.61880630906276,66.4168618266979 L 177.1193506774358,66.4168618266979 L 177.15127068889274,66.4168618266979 L 177.19334219335502,66.4168618266979 L 178.66008995385283,66.4168618266979 L 178.69890869119018,66.4168618266979 L 178.74305338788596,66.4168618266979 L 180.20000710231523,66.4168618266979 L 180.23748541363955,66.4168618266979 L 180.2692267016281,66.4168618266979 L 181.74939659460304,66.4168618266979 L 181.79254043987575,66.4168618266979 L 183.29462183007703,66.4168618266979 L 183.33333333333334,66.4168618266979" stroke="#3b82f6" stroke-width="4" fill="none" opacity="0.4" stroke-dasharray="14450" stroke-dashoffset="14450">
      <animate attributeName="stroke-dashoffset" values="14450;0" dur="3s" begin="3.0999999999999996s" fill="freeze"/>
    </path>
    
    <!-- Animated circle that moves along the path and draws the line -->
    <circle r="5" fill="#3b82f6" opacity="0" filter="url(#trailGlow)">
      <animate attributeName="opacity" values="0;1;1;1" dur="3.2s" begin="2.9s" fill="freeze"/>
      <animate attributeName="r" values="5;6;5" dur="1s" begin="2.9s" repeatCount="3"/>
      <animateMotion dur="3s" begin="2.9s" fill="freeze">
        <mpath href="#path_publicContributions_293.33333333333337"/>
      </animateMotion>
    </circle>
    
    <!-- Small trail dots that fade out -->
    <circle r="2" fill="#3b82f6" opacity="0">
      <animate attributeName="opacity" values="0;0.6;0" dur="0.8s" begin="3.3s" fill="freeze"/>
      <animateMotion dur="3s" begin="2.9s" fill="freeze">
        <mpath href="#path_publicContributions_293.33333333333337"/>
      </animateMotion>
    </circle>
    
    <!-- Hidden path for motion animation -->
    <path id="path_publicContributions_293.33333333333337" d="M 30,160 L 30.41415589333255,160 L 30.446201011217383,160 L 30.479961874398896,160 L 31.95814793687456,160 L 31.986171776720305,160 L 32.018985405519274,160 L 33.500424235119894,160 L 33.52203190244993,160 L 33.55827702184226,160 L 35.04666819436379,160 L 35.07365543809279,160 L 35.105039279144535,160 L 36.59092832310841,160 L 36.62333088793005,160 L 36.65671643182792,160 L 38.13322249370058,160 L 38.160817397222154,160 L 38.197151878348684,160 L 39.68170049629953,160 L 39.705238377088335,160 L 39.73422732366346,160 L 41.224566581990594,160 L 41.25798787058214,160 L 41.28928234989968,160 L 42.76784373165899,160 L 42.79792289139138,160 L 42.83170162691973,160 L 44.309834072354874,160 L 44.33916259351997,160 L 44.37222643517471,160 L 45.85722186179656,160 L 45.88463804184973,160 L 45.912679754042315,160 L 47.39964113881662,160 L 47.427361148766074,160 L 47.46067520327658,160 L 48.93492934944736,160 L 48.97163914985753,160 L 49.00243320346354,160 L 50.487160544882784,160 L 50.50883970160019,160 L 50.547819290059095,160 L 52.03317216361776,160 L 52.06575345190781,160 L 52.10008623018821,160 L 53.579541229289546,160 L 53.60935230381933,160 L 53.64093274068631,160 L 55.11456135471768,160 L 55.14694604719247,160 L 55.179241377933074,160 L 56.66350403833448,160 L 56.69381553857579,160 L 56.72845214675249,160 L 58.208157358709585,160 L 58.23605609212744,160 L 58.26685014573345,160 L 59.753454083570944,160 L 59.773328133257465,160 L 59.82211964013175,160 L 61.29499761559582,160 L 61.325076775328206,160 L 61.35474487108327,160 L 62.842027958100694,160 L 62.87618201291269,160 L 62.907262024068146,160 L 64.38544808654382,160 L 64.41552724627621,160 L 64.45019959914657,160 L 65.92750991662706,160 L 65.95707077830107,160 L 65.98400440498955,160 L 67.47402196107356,160 L 67.50456580182382,160 L 67.5360211322629,160 L 69.02283953826247,160 L 69.05157827198184,160 L 69.07992381407071,160 L 70.56121966489661,160 L 70.59194222911525,40 L 70.6239516023064,40 L 72.11116319993647,40 L 72.13248490971708,40 L 72.16188492026953,40 L 73.65147354002936,40 L 73.67531525071445,40 L 73.71761909568568,40 L 75.19748515876432,40 L 75.22888687216292,40 L 75.25646390333765,40 L 76.7354006043806,40 L 76.76980487204838,40 L 76.80349424584253,40 L 78.28907945991011,40 L 78.30430669941813,40 L 78.34557394827262,40 L 79.83015831091714,40 L 79.86270385451351,40 L 79.8994672719642,40 L 81.37445418435544,40 L 81.40512313153357,40 L 81.4444244222356,40 L 82.91624792923608,40 L 82.9488649622198,40 L 82.98691518864301,40 L 84.46897955038304,40 L 84.50531403150957,40 L 86.00721669824244,40 L 86.08362098098515,40 L 87.55163767810862,40 L 87.58961641514448,40 L 87.62566493872154,40 L 89.0954331258354,40 L 89.13544931041105,40 L 89.16299059689209,40 L 90.64287453231759,40 L 90.67636731029651,40 L 90.71397072804871,40 L 92.18161210588853,40 L 92.21508701152061,40 L 92.25274404631332,40 L 93.72814202268188,40 L 93.76104501321504,40 L 93.79634289822485,40 L 95.27776385547861,40 L 95.32099706248553,40 L 96.85608867730103,40 L 96.89701635156554,40 L 98.36959049713332,40 L 98.40333348796798,40 L 99.91780041452967,40 L 99.94653914824903,40 L 99.9938651226824,40 L 101.45013968793174,40 L 101.48302480611807,40 L 101.51823332939365,40 L 102.99616917901355,40 L 103.03505940573825,40 L 103.07409261123769,40 L 104.53760547695738,40 L 104.56913229678385,40 L 104.60745060840966,40 L 106.08052517968898,40 L 106.11635923510397,40 L 106.16320265617266,40 L 107.61992403009299,40 L 107.6607087255828,40 L 107.70018873975323,40 L 109.17122586349272,40 L 109.2040394922917,40 L 109.24149993126917,40 L 110.71536088580946,40 L 110.74856770623893,40 L 110.78685027317105,40 L 112.25752994997376,40 L 112.29602698506797,40 L 112.33750870208455,40 L 113.80325561115929,40 L 113.83390668599056,40 L 113.87084882690968,40 L 115.34878467652958,40 L 115.37629021831694,40 L 115.41385789137546,40 L 116.88909501662245,40 L 116.92435715693857,40 L 116.9633010007038,40 L 118.43432025209646,40 L 118.47174494638026,40 L 118.51154666279382,40 L 119.98263740357385,40 L 120.00971400903704,40 L 120.04844338464018,40 L 121.52552136161174,40 L 121.561998821513,40 L 121.59452649276251,40 L 123.06502744609682,40 L 123.09841298999469,40 L 123.13685640804839,40 L 124.60651736108116,40 L 124.64701609902151,40 L 124.68406547402165,40 L 126.15411961868494,40 L 126.18468133178202,40 L 126.21899623771559,40 L 127.70442060066162,40 L 127.74172018851752,40 L 127.7837023312456,40 L 129.24735817574003,40 L 129.28067223025056,40 L 129.31398628476103,40 L 130.78804383511658,40 L 130.8250395930762,40 L 130.86142769124325,40 L 132.3256197061429,40 L 132.3657967418401,40 L 132.40404356407856,40 L 133.8685572812213,40 L 133.90871644457167,40 L 133.9527896518801,40 L 135.42716890447878,40 L 135.45910678828255,40 L 135.5004097818307,40 L 136.96747924457165,40 L 136.99507414809324,40 L 137.0300503308599,40 L 138.50727128660617,40 L 138.5437844912011,40 L 138.5808159938544,40 L 140.05221056453072,40 L 140.08409483129398,40 L 140.1253263354548,40 L 141.59604175695117,40 L 141.62812261952968,40 L 141.66611922891235,40 L 143.14069507732626,40 L 143.17213253541854,40 L 143.2061793561495,40 L 144.68316797138687,66.4168618266979 L 144.71292542887613,66.4168618266979 L 146.22610554646528,66.4168618266979 L 146.26244002759182,66.4168618266979 L 146.2967549335254,66.4168618266979 L 147.77184907999765,66.4168618266979 L 147.7968703655742,66.4168618266979 L 147.8394601680949,66.4168618266979 L 149.3244019776762,66.4168618266979 L 149.36214837420312,66.4168618266979 L 150.86103061432,66.4168618266979 L 150.90034977736883,66.4168618266979 L 150.95167915749448,66.4168618266979 L 152.40750691407277,66.4168618266979 L 152.44598607682016,66.4168618266979 L 152.4696669363837,66.4168618266979 L 153.95369725627617,66.4168618266979 L 153.98947769465065,66.4168618266979 L 154.0272062188307,66.4168618266979 L 155.4987973853223,66.4168618266979 L 155.53289782309378,66.4168618266979 L 155.57155570930956,66.4168618266979 L 157.04130602407656,66.4168618266979 L 157.07195709890783,66.4168618266979 L 157.11048987869572,66.4168618266979 L 158.58533381231223,66.4168618266979 L 158.61775424948073,66.4168618266979 L 158.6496027715503,66.4168618266979 L 160.12896840891744,66.4168618266979 L 160.16599991157074,66.4168618266979 L 160.20696333052894,66.4168618266979 L 161.6762132195844,66.4168618266979 L 161.71254770071093,66.4168618266979 L 161.75696048260932,66.4168618266979 L 163.2110010045036,66.4168618266979 L 163.248246975319,66.4168618266979 L 163.2910691183486,66.4168618266979 L 164.7622849655565,66.4168618266979 L 164.79783306342205,66.4168618266979 L 164.83447137444486,66.4168618266979 L 166.30736722225578,66.4168618266979 L 166.34899191804706,66.4168618266979 L 166.39306512535546,66.4168618266979 L 167.85209203201822,66.4168618266979 L 167.88965970507675,66.4168618266979 L 167.93593121104655,66.4168618266979 L 169.3933674788405,66.4168618266979 L 169.43270451423624,66.4168618266979 L 169.4690568677096,66.4168618266979 L 170.94386505663243,66.4168618266979 L 170.9797348567411,66.4168618266979 L 172.49144944188936,66.4168618266979 L 172.52428094303517,66.4168618266979 L 174.02972233444245,66.4168618266979 L 174.06687894352362,66.4168618266979 L 174.11100576787257,66.4168618266979 L 175.57189139860674,66.4168618266979 L 175.61880630906276,66.4168618266979 L 177.1193506774358,66.4168618266979 L 177.15127068889274,66.4168618266979 L 177.19334219335502,66.4168618266979 L 178.66008995385283,66.4168618266979 L 178.69890869119018,66.4168618266979 L 178.74305338788596,66.4168618266979 L 180.20000710231523,66.4168618266979 L 180.23748541363955,66.4168618266979 L 180.2692267016281,66.4168618266979 L 181.74939659460304,66.4168618266979 L 181.79254043987575,66.4168618266979 L 183.29462183007703,66.4168618266979 L 183.33333333333334,66.4168618266979" fill="none" stroke="none"/>
  </g>
  <!-- 📊 Total Contributions Chart -->
  <g transform="translate(526.6666666666667, 250)">
    <!-- Chart Background -->
    <rect x="0" y="0" width="213.33333333333334" height="200" fill="#0f172a" stroke="#334155" stroke-width="1" rx="8" filter="url(#shadow)">
      <animate attributeName="opacity" values="0;1" dur="0.5s" begin="2.8s" fill="freeze"/>
    </rect>
    
    <!-- Chart Title -->
    <text x="106.66666666666667" y="25" text-anchor="middle" fill="#f8fafc" font-size="14" font-weight="bold" font-family="Arial, sans-serif">
      📊 Total Contributions
      <animate attributeName="opacity" values="0;1" dur="0.5s" begin="3s" fill="freeze"/>
    </text>
    
    <!-- Y-axis labels -->
    <text x="10" y="45" fill="#94a3b8" font-size="10" font-family="Arial, sans-serif">5,314
      <animate attributeName="opacity" values="0;1" dur="0.5s" begin="3.1999999999999997s" fill="freeze"/>
    </text>
    <text x="10" y="185" fill="#94a3b8" font-size="10" font-family="Arial, sans-serif">4,917
      <animate attributeName="opacity" values="0;1" dur="0.5s" begin="3.1999999999999997s" fill="freeze"/>
    </text>
    
    <!-- Chart Line with draw animation that follows the circle -->
    <path d="M 30,160 L 30.41415589333255,160 L 30.446201011217383,160 L 30.479961874398896,160 L 31.95814793687456,160 L 31.986171776720305,160 L 32.018985405519274,160 L 33.500424235119894,160 L 33.52203190244993,160 L 33.55827702184226,160 L 35.04666819436379,160 L 35.07365543809279,160 L 35.105039279144535,160 L 36.59092832310841,160 L 36.62333088793005,160 L 36.65671643182792,160 L 38.13322249370058,160 L 38.160817397222154,160 L 38.197151878348684,160 L 39.68170049629953,160 L 39.705238377088335,160 L 39.73422732366346,160 L 41.224566581990594,160 L 41.25798787058214,160 L 41.28928234989968,160 L 42.76784373165899,160 L 42.79792289139138,160 L 42.83170162691973,160 L 44.309834072354874,160 L 44.33916259351997,160 L 44.37222643517471,160 L 45.85722186179656,160 L 45.88463804184973,160 L 45.912679754042315,160 L 47.39964113881662,160 L 47.427361148766074,160 L 47.46067520327658,160 L 48.93492934944736,160 L 48.97163914985753,160 L 49.00243320346354,160 L 50.487160544882784,160 L 50.50883970160019,160 L 50.547819290059095,160 L 52.03317216361776,160 L 52.06575345190781,160 L 52.10008623018821,160 L 53.579541229289546,160 L 53.60935230381933,160 L 53.64093274068631,160 L 55.11456135471768,160 L 55.14694604719247,160 L 55.179241377933074,160 L 56.66350403833448,160 L 56.69381553857579,160 L 56.72845214675249,160 L 58.208157358709585,160 L 58.23605609212744,160 L 58.26685014573345,160 L 59.753454083570944,160 L 59.773328133257465,160 L 59.82211964013175,160 L 61.29499761559582,160 L 61.325076775328206,160 L 61.35474487108327,160 L 62.842027958100694,160 L 62.87618201291269,160 L 62.907262024068146,160 L 64.38544808654382,160 L 64.41552724627621,160 L 64.45019959914657,160 L 65.92750991662706,160 L 65.95707077830107,160 L 65.98400440498955,160 L 67.47402196107356,160 L 67.50456580182382,160 L 67.5360211322629,160 L 69.02283953826247,160 L 69.05157827198184,160 L 69.07992381407071,160 L 70.56121966489661,160 L 70.59194222911525,40 L 70.6239516023064,40 L 72.11116319993647,40 L 72.13248490971708,40 L 72.16188492026953,40 L 73.65147354002936,40 L 73.67531525071445,40 L 73.71761909568568,40 L 75.19748515876432,40 L 75.22888687216292,40 L 75.25646390333765,40 L 76.7354006043806,40 L 76.76980487204838,40 L 76.80349424584253,40 L 78.28907945991011,40 L 78.30430669941813,40 L 78.34557394827262,40 L 79.83015831091714,40 L 79.86270385451351,40 L 79.8994672719642,40 L 81.37445418435544,40 L 81.40512313153357,40 L 81.4444244222356,40 L 82.91624792923608,40 L 82.9488649622198,40 L 82.98691518864301,40 L 84.46897955038304,40 L 84.50531403150957,40 L 86.00721669824244,40 L 86.08362098098515,40 L 87.55163767810862,40 L 87.58961641514448,40 L 87.62566493872154,40 L 89.0954331258354,40 L 89.13544931041105,40 L 89.16299059689209,40 L 90.64287453231759,40 L 90.67636731029651,40 L 90.71397072804871,40 L 92.18161210588853,40 L 92.21508701152061,40 L 92.25274404631332,40 L 93.72814202268188,40 L 93.76104501321504,40 L 93.79634289822485,40 L 95.27776385547861,40 L 95.32099706248553,40 L 96.85608867730103,40 L 96.89701635156554,40 L 98.36959049713332,40 L 98.40333348796798,40 L 99.91780041452967,40 L 99.94653914824903,40 L 99.9938651226824,40 L 101.45013968793174,40 L 101.48302480611807,40 L 101.51823332939365,40 L 102.99616917901355,40 L 103.03505940573825,40 L 103.07409261123769,40 L 104.53760547695738,40 L 104.56913229678385,40 L 104.60745060840966,40 L 106.08052517968898,40 L 106.11635923510397,40 L 106.16320265617266,40 L 107.61992403009299,40 L 107.6607087255828,40 L 107.70018873975323,40 L 109.17122586349272,40 L 109.2040394922917,40 L 109.24149993126917,40 L 110.71536088580946,40 L 110.74856770623893,40 L 110.78685027317105,40 L 112.25752994997376,40 L 112.29602698506797,40 L 112.33750870208455,40 L 113.80325561115929,40 L 113.83390668599056,40 L 113.87084882690968,40 L 115.34878467652958,40 L 115.37629021831694,40 L 115.41385789137546,40 L 116.88909501662245,40 L 116.92435715693857,40 L 116.9633010007038,40 L 118.43432025209646,40 L 118.47174494638026,40 L 118.51154666279382,40 L 119.98263740357385,40 L 120.00971400903704,40 L 120.04844338464018,40 L 121.52552136161174,40 L 121.561998821513,40 L 121.59452649276251,40 L 123.06502744609682,40 L 123.09841298999469,40 L 123.13685640804839,40 L 124.60651736108116,40 L 124.64701609902151,40 L 124.68406547402165,40 L 126.15411961868494,40 L 126.18468133178202,40 L 126.21899623771559,40 L 127.70442060066162,40 L 127.74172018851752,40 L 127.7837023312456,40 L 129.24735817574003,40 L 129.28067223025056,40 L 129.31398628476103,40 L 130.78804383511658,40 L 130.8250395930762,40 L 130.86142769124325,40 L 132.3256197061429,40 L 132.3657967418401,40 L 132.40404356407856,40 L 133.8685572812213,40 L 133.90871644457167,40 L 133.9527896518801,40 L 135.42716890447878,40 L 135.45910678828255,40 L 135.5004097818307,40 L 136.96747924457165,40 L 136.99507414809324,40 L 137.0300503308599,40 L 138.50727128660617,40 L 138.5437844912011,40 L 138.5808159938544,40 L 140.05221056453072,40 L 140.08409483129398,40 L 140.1253263354548,40 L 141.59604175695117,40 L 141.62812261952968,40 L 141.66611922891235,40 L 143.14069507732626,40 L 143.17213253541854,40 L 143.2061793561495,40 L 144.68316797138687,72.04030226700252 L 144.71292542887613,72.04030226700252 L 146.22610554646528,72.04030226700252 L 146.26244002759182,72.04030226700252 L 146.2967549335254,72.04030226700252 L 147.77184907999765,72.04030226700252 L 147.7968703655742,72.04030226700252 L 147.8394601680949,72.04030226700252 L 149.3244019776762,72.04030226700252 L 149.36214837420312,72.04030226700252 L 150.86103061432,72.04030226700252 L 150.90034977736883,72.04030226700252 L 150.95167915749448,72.04030226700252 L 152.40750691407277,72.04030226700252 L 152.44598607682016,72.04030226700252 L 152.4696669363837,72.04030226700252 L 153.95369725627617,72.04030226700252 L 153.98947769465065,72.04030226700252 L 154.0272062188307,72.04030226700252 L 155.4987973853223,72.04030226700252 L 155.53289782309378,72.04030226700252 L 155.57155570930956,72.04030226700252 L 157.04130602407656,72.04030226700252 L 157.07195709890783,72.04030226700252 L 157.11048987869572,72.04030226700252 L 158.58533381231223,72.04030226700252 L 158.61775424948073,72.04030226700252 L 158.6496027715503,72.04030226700252 L 160.12896840891744,72.04030226700252 L 160.16599991157074,72.04030226700252 L 160.20696333052894,72.04030226700252 L 161.6762132195844,72.04030226700252 L 161.71254770071093,72.04030226700252 L 161.75696048260932,72.04030226700252 L 163.2110010045036,72.04030226700252 L 163.248246975319,72.04030226700252 L 163.2910691183486,72.04030226700252 L 164.7622849655565,72.04030226700252 L 164.79783306342205,72.04030226700252 L 164.83447137444486,72.04030226700252 L 166.30736722225578,72.04030226700252 L 166.34899191804706,72.04030226700252 L 166.39306512535546,72.04030226700252 L 167.85209203201822,72.04030226700252 L 167.88965970507675,72.04030226700252 L 167.93593121104655,72.04030226700252 L 169.3933674788405,72.04030226700252 L 169.43270451423624,72.04030226700252 L 169.4690568677096,72.04030226700252 L 170.94386505663243,72.04030226700252 L 170.9797348567411,72.04030226700252 L 172.49144944188936,72.04030226700252 L 172.52428094303517,72.04030226700252 L 174.02972233444245,72.04030226700252 L 174.06687894352362,72.04030226700252 L 174.11100576787257,72.04030226700252 L 175.57189139860674,72.04030226700252 L 175.61880630906276,72.04030226700252 L 177.1193506774358,72.04030226700252 L 177.15127068889274,72.04030226700252 L 177.19334219335502,72.04030226700252 L 178.66008995385283,72.04030226700252 L 178.69890869119018,72.04030226700252 L 178.74305338788596,72.04030226700252 L 180.20000710231523,72.04030226700252 L 180.23748541363955,72.04030226700252 L 180.2692267016281,72.04030226700252 L 181.74939659460304,72.04030226700252 L 181.79254043987575,72.04030226700252 L 183.29462183007703,72.04030226700252 L 183.33333333333334,72.04030226700252" stroke="#f59e0b" stroke-width="2" fill="none" stroke-dasharray="14450" stroke-dashoffset="14450">
      <animate attributeName="stroke-dashoffset" values="14450;0" dur="3s" begin="3.5999999999999996s" fill="freeze"/>
    </path>
    
    <!-- Glow effect for the line that also follows the circle -->
    <path d="M 30,160 L 30.41415589333255,160 L 30.446201011217383,160 L 30.479961874398896,160 L 31.95814793687456,160 L 31.986171776720305,160 L 32.018985405519274,160 L 33.500424235119894,160 L 33.52203190244993,160 L 33.55827702184226,160 L 35.04666819436379,160 L 35.07365543809279,160 L 35.105039279144535,160 L 36.59092832310841,160 L 36.62333088793005,160 L 36.65671643182792,160 L 38.13322249370058,160 L 38.160817397222154,160 L 38.197151878348684,160 L 39.68170049629953,160 L 39.705238377088335,160 L 39.73422732366346,160 L 41.224566581990594,160 L 41.25798787058214,160 L 41.28928234989968,160 L 42.76784373165899,160 L 42.79792289139138,160 L 42.83170162691973,160 L 44.309834072354874,160 L 44.33916259351997,160 L 44.37222643517471,160 L 45.85722186179656,160 L 45.88463804184973,160 L 45.912679754042315,160 L 47.39964113881662,160 L 47.427361148766074,160 L 47.46067520327658,160 L 48.93492934944736,160 L 48.97163914985753,160 L 49.00243320346354,160 L 50.487160544882784,160 L 50.50883970160019,160 L 50.547819290059095,160 L 52.03317216361776,160 L 52.06575345190781,160 L 52.10008623018821,160 L 53.579541229289546,160 L 53.60935230381933,160 L 53.64093274068631,160 L 55.11456135471768,160 L 55.14694604719247,160 L 55.179241377933074,160 L 56.66350403833448,160 L 56.69381553857579,160 L 56.72845214675249,160 L 58.208157358709585,160 L 58.23605609212744,160 L 58.26685014573345,160 L 59.753454083570944,160 L 59.773328133257465,160 L 59.82211964013175,160 L 61.29499761559582,160 L 61.325076775328206,160 L 61.35474487108327,160 L 62.842027958100694,160 L 62.87618201291269,160 L 62.907262024068146,160 L 64.38544808654382,160 L 64.41552724627621,160 L 64.45019959914657,160 L 65.92750991662706,160 L 65.95707077830107,160 L 65.98400440498955,160 L 67.47402196107356,160 L 67.50456580182382,160 L 67.5360211322629,160 L 69.02283953826247,160 L 69.05157827198184,160 L 69.07992381407071,160 L 70.56121966489661,160 L 70.59194222911525,40 L 70.6239516023064,40 L 72.11116319993647,40 L 72.13248490971708,40 L 72.16188492026953,40 L 73.65147354002936,40 L 73.67531525071445,40 L 73.71761909568568,40 L 75.19748515876432,40 L 75.22888687216292,40 L 75.25646390333765,40 L 76.7354006043806,40 L 76.76980487204838,40 L 76.80349424584253,40 L 78.28907945991011,40 L 78.30430669941813,40 L 78.34557394827262,40 L 79.83015831091714,40 L 79.86270385451351,40 L 79.8994672719642,40 L 81.37445418435544,40 L 81.40512313153357,40 L 81.4444244222356,40 L 82.91624792923608,40 L 82.9488649622198,40 L 82.98691518864301,40 L 84.46897955038304,40 L 84.50531403150957,40 L 86.00721669824244,40 L 86.08362098098515,40 L 87.55163767810862,40 L 87.58961641514448,40 L 87.62566493872154,40 L 89.0954331258354,40 L 89.13544931041105,40 L 89.16299059689209,40 L 90.64287453231759,40 L 90.67636731029651,40 L 90.71397072804871,40 L 92.18161210588853,40 L 92.21508701152061,40 L 92.25274404631332,40 L 93.72814202268188,40 L 93.76104501321504,40 L 93.79634289822485,40 L 95.27776385547861,40 L 95.32099706248553,40 L 96.85608867730103,40 L 96.89701635156554,40 L 98.36959049713332,40 L 98.40333348796798,40 L 99.91780041452967,40 L 99.94653914824903,40 L 99.9938651226824,40 L 101.45013968793174,40 L 101.48302480611807,40 L 101.51823332939365,40 L 102.99616917901355,40 L 103.03505940573825,40 L 103.07409261123769,40 L 104.53760547695738,40 L 104.56913229678385,40 L 104.60745060840966,40 L 106.08052517968898,40 L 106.11635923510397,40 L 106.16320265617266,40 L 107.61992403009299,40 L 107.6607087255828,40 L 107.70018873975323,40 L 109.17122586349272,40 L 109.2040394922917,40 L 109.24149993126917,40 L 110.71536088580946,40 L 110.74856770623893,40 L 110.78685027317105,40 L 112.25752994997376,40 L 112.29602698506797,40 L 112.33750870208455,40 L 113.80325561115929,40 L 113.83390668599056,40 L 113.87084882690968,40 L 115.34878467652958,40 L 115.37629021831694,40 L 115.41385789137546,40 L 116.88909501662245,40 L 116.92435715693857,40 L 116.9633010007038,40 L 118.43432025209646,40 L 118.47174494638026,40 L 118.51154666279382,40 L 119.98263740357385,40 L 120.00971400903704,40 L 120.04844338464018,40 L 121.52552136161174,40 L 121.561998821513,40 L 121.59452649276251,40 L 123.06502744609682,40 L 123.09841298999469,40 L 123.13685640804839,40 L 124.60651736108116,40 L 124.64701609902151,40 L 124.68406547402165,40 L 126.15411961868494,40 L 126.18468133178202,40 L 126.21899623771559,40 L 127.70442060066162,40 L 127.74172018851752,40 L 127.7837023312456,40 L 129.24735817574003,40 L 129.28067223025056,40 L 129.31398628476103,40 L 130.78804383511658,40 L 130.8250395930762,40 L 130.86142769124325,40 L 132.3256197061429,40 L 132.3657967418401,40 L 132.40404356407856,40 L 133.8685572812213,40 L 133.90871644457167,40 L 133.9527896518801,40 L 135.42716890447878,40 L 135.45910678828255,40 L 135.5004097818307,40 L 136.96747924457165,40 L 136.99507414809324,40 L 137.0300503308599,40 L 138.50727128660617,40 L 138.5437844912011,40 L 138.5808159938544,40 L 140.05221056453072,40 L 140.08409483129398,40 L 140.1253263354548,40 L 141.59604175695117,40 L 141.62812261952968,40 L 141.66611922891235,40 L 143.14069507732626,40 L 143.17213253541854,40 L 143.2061793561495,40 L 144.68316797138687,72.04030226700252 L 144.71292542887613,72.04030226700252 L 146.22610554646528,72.04030226700252 L 146.26244002759182,72.04030226700252 L 146.2967549335254,72.04030226700252 L 147.77184907999765,72.04030226700252 L 147.7968703655742,72.04030226700252 L 147.8394601680949,72.04030226700252 L 149.3244019776762,72.04030226700252 L 149.36214837420312,72.04030226700252 L 150.86103061432,72.04030226700252 L 150.90034977736883,72.04030226700252 L 150.95167915749448,72.04030226700252 L 152.40750691407277,72.04030226700252 L 152.44598607682016,72.04030226700252 L 152.4696669363837,72.04030226700252 L 153.95369725627617,72.04030226700252 L 153.98947769465065,72.04030226700252 L 154.0272062188307,72.04030226700252 L 155.4987973853223,72.04030226700252 L 155.53289782309378,72.04030226700252 L 155.57155570930956,72.04030226700252 L 157.04130602407656,72.04030226700252 L 157.07195709890783,72.04030226700252 L 157.11048987869572,72.04030226700252 L 158.58533381231223,72.04030226700252 L 158.61775424948073,72.04030226700252 L 158.6496027715503,72.04030226700252 L 160.12896840891744,72.04030226700252 L 160.16599991157074,72.04030226700252 L 160.20696333052894,72.04030226700252 L 161.6762132195844,72.04030226700252 L 161.71254770071093,72.04030226700252 L 161.75696048260932,72.04030226700252 L 163.2110010045036,72.04030226700252 L 163.248246975319,72.04030226700252 L 163.2910691183486,72.04030226700252 L 164.7622849655565,72.04030226700252 L 164.79783306342205,72.04030226700252 L 164.83447137444486,72.04030226700252 L 166.30736722225578,72.04030226700252 L 166.34899191804706,72.04030226700252 L 166.39306512535546,72.04030226700252 L 167.85209203201822,72.04030226700252 L 167.88965970507675,72.04030226700252 L 167.93593121104655,72.04030226700252 L 169.3933674788405,72.04030226700252 L 169.43270451423624,72.04030226700252 L 169.4690568677096,72.04030226700252 L 170.94386505663243,72.04030226700252 L 170.9797348567411,72.04030226700252 L 172.49144944188936,72.04030226700252 L 172.52428094303517,72.04030226700252 L 174.02972233444245,72.04030226700252 L 174.06687894352362,72.04030226700252 L 174.11100576787257,72.04030226700252 L 175.57189139860674,72.04030226700252 L 175.61880630906276,72.04030226700252 L 177.1193506774358,72.04030226700252 L 177.15127068889274,72.04030226700252 L 177.19334219335502,72.04030226700252 L 178.66008995385283,72.04030226700252 L 178.69890869119018,72.04030226700252 L 178.74305338788596,72.04030226700252 L 180.20000710231523,72.04030226700252 L 180.23748541363955,72.04030226700252 L 180.2692267016281,72.04030226700252 L 181.74939659460304,72.04030226700252 L 181.79254043987575,72.04030226700252 L 183.29462183007703,72.04030226700252 L 183.33333333333334,72.04030226700252" stroke="#f59e0b" stroke-width="4" fill="none" opacity="0.4" stroke-dasharray="14450" stroke-dashoffset="14450">
      <animate attributeName="stroke-dashoffset" values="14450;0" dur="3s" begin="3.5999999999999996s" fill="freeze"/>
    </path>
    
    <!-- Animated circle that moves along the path and draws the line -->
    <circle r="5" fill="#f59e0b" opacity="0" filter="url(#trailGlow)">
      <animate attributeName="opacity" values="0;1;1;1" dur="3.2s" begin="3.4s" fill="freeze"/>
      <animate attributeName="r" values="5;6;5" dur="1s" begin="3.4s" repeatCount="3"/>
      <animateMotion dur="3s" begin="3.4s" fill="freeze">
        <mpath href="#path_totalContributions_526.6666666666667"/>
      </animateMotion>
    </circle>
    
    <!-- Small trail dots that fade out -->
    <circle r="2" fill="#f59e0b" opacity="0">
      <animate attributeName="opacity" values="0;0.6;0" dur="0.8s" begin="3.8s" fill="freeze"/>
      <animateMotion dur="3s" begin="3.4s" fill="freeze">
        <mpath href="#path_totalContributions_526.6666666666667"/>
      </animateMotion>
    </circle>
    
    <!-- Hidden path for motion animation -->
    <path id="path_totalContributions_526.6666666666667" d="M 30,160 L 30.41415589333255,160 L 30.446201011217383,160 L 30.479961874398896,160 L 31.95814793687456,160 L 31.986171776720305,160 L 32.018985405519274,160 L 33.500424235119894,160 L 33.52203190244993,160 L 33.55827702184226,160 L 35.04666819436379,160 L 35.07365543809279,160 L 35.105039279144535,160 L 36.59092832310841,160 L 36.62333088793005,160 L 36.65671643182792,160 L 38.13322249370058,160 L 38.160817397222154,160 L 38.197151878348684,160 L 39.68170049629953,160 L 39.705238377088335,160 L 39.73422732366346,160 L 41.224566581990594,160 L 41.25798787058214,160 L 41.28928234989968,160 L 42.76784373165899,160 L 42.79792289139138,160 L 42.83170162691973,160 L 44.309834072354874,160 L 44.33916259351997,160 L 44.37222643517471,160 L 45.85722186179656,160 L 45.88463804184973,160 L 45.912679754042315,160 L 47.39964113881662,160 L 47.427361148766074,160 L 47.46067520327658,160 L 48.93492934944736,160 L 48.97163914985753,160 L 49.00243320346354,160 L 50.487160544882784,160 L 50.50883970160019,160 L 50.547819290059095,160 L 52.03317216361776,160 L 52.06575345190781,160 L 52.10008623018821,160 L 53.579541229289546,160 L 53.60935230381933,160 L 53.64093274068631,160 L 55.11456135471768,160 L 55.14694604719247,160 L 55.179241377933074,160 L 56.66350403833448,160 L 56.69381553857579,160 L 56.72845214675249,160 L 58.208157358709585,160 L 58.23605609212744,160 L 58.26685014573345,160 L 59.753454083570944,160 L 59.773328133257465,160 L 59.82211964013175,160 L 61.29499761559582,160 L 61.325076775328206,160 L 61.35474487108327,160 L 62.842027958100694,160 L 62.87618201291269,160 L 62.907262024068146,160 L 64.38544808654382,160 L 64.41552724627621,160 L 64.45019959914657,160 L 65.92750991662706,160 L 65.95707077830107,160 L 65.98400440498955,160 L 67.47402196107356,160 L 67.50456580182382,160 L 67.5360211322629,160 L 69.02283953826247,160 L 69.05157827198184,160 L 69.07992381407071,160 L 70.56121966489661,160 L 70.59194222911525,40 L 70.6239516023064,40 L 72.11116319993647,40 L 72.13248490971708,40 L 72.16188492026953,40 L 73.65147354002936,40 L 73.67531525071445,40 L 73.71761909568568,40 L 75.19748515876432,40 L 75.22888687216292,40 L 75.25646390333765,40 L 76.7354006043806,40 L 76.76980487204838,40 L 76.80349424584253,40 L 78.28907945991011,40 L 78.30430669941813,40 L 78.34557394827262,40 L 79.83015831091714,40 L 79.86270385451351,40 L 79.8994672719642,40 L 81.37445418435544,40 L 81.40512313153357,40 L 81.4444244222356,40 L 82.91624792923608,40 L 82.9488649622198,40 L 82.98691518864301,40 L 84.46897955038304,40 L 84.50531403150957,40 L 86.00721669824244,40 L 86.08362098098515,40 L 87.55163767810862,40 L 87.58961641514448,40 L 87.62566493872154,40 L 89.0954331258354,40 L 89.13544931041105,40 L 89.16299059689209,40 L 90.64287453231759,40 L 90.67636731029651,40 L 90.71397072804871,40 L 92.18161210588853,40 L 92.21508701152061,40 L 92.25274404631332,40 L 93.72814202268188,40 L 93.76104501321504,40 L 93.79634289822485,40 L 95.27776385547861,40 L 95.32099706248553,40 L 96.85608867730103,40 L 96.89701635156554,40 L 98.36959049713332,40 L 98.40333348796798,40 L 99.91780041452967,40 L 99.94653914824903,40 L 99.9938651226824,40 L 101.45013968793174,40 L 101.48302480611807,40 L 101.51823332939365,40 L 102.99616917901355,40 L 103.03505940573825,40 L 103.07409261123769,40 L 104.53760547695738,40 L 104.56913229678385,40 L 104.60745060840966,40 L 106.08052517968898,40 L 106.11635923510397,40 L 106.16320265617266,40 L 107.61992403009299,40 L 107.6607087255828,40 L 107.70018873975323,40 L 109.17122586349272,40 L 109.2040394922917,40 L 109.24149993126917,40 L 110.71536088580946,40 L 110.74856770623893,40 L 110.78685027317105,40 L 112.25752994997376,40 L 112.29602698506797,40 L 112.33750870208455,40 L 113.80325561115929,40 L 113.83390668599056,40 L 113.87084882690968,40 L 115.34878467652958,40 L 115.37629021831694,40 L 115.41385789137546,40 L 116.88909501662245,40 L 116.92435715693857,40 L 116.9633010007038,40 L 118.43432025209646,40 L 118.47174494638026,40 L 118.51154666279382,40 L 119.98263740357385,40 L 120.00971400903704,40 L 120.04844338464018,40 L 121.52552136161174,40 L 121.561998821513,40 L 121.59452649276251,40 L 123.06502744609682,40 L 123.09841298999469,40 L 123.13685640804839,40 L 124.60651736108116,40 L 124.64701609902151,40 L 124.68406547402165,40 L 126.15411961868494,40 L 126.18468133178202,40 L 126.21899623771559,40 L 127.70442060066162,40 L 127.74172018851752,40 L 127.7837023312456,40 L 129.24735817574003,40 L 129.28067223025056,40 L 129.31398628476103,40 L 130.78804383511658,40 L 130.8250395930762,40 L 130.86142769124325,40 L 132.3256197061429,40 L 132.3657967418401,40 L 132.40404356407856,40 L 133.8685572812213,40 L 133.90871644457167,40 L 133.9527896518801,40 L 135.42716890447878,40 L 135.45910678828255,40 L 135.5004097818307,40 L 136.96747924457165,40 L 136.99507414809324,40 L 137.0300503308599,40 L 138.50727128660617,40 L 138.5437844912011,40 L 138.5808159938544,40 L 140.05221056453072,40 L 140.08409483129398,40 L 140.1253263354548,40 L 141.59604175695117,40 L 141.62812261952968,40 L 141.66611922891235,40 L 143.14069507732626,40 L 143.17213253541854,40 L 143.2061793561495,40 L 144.68316797138687,72.04030226700252 L 144.71292542887613,72.04030226700252 L 146.22610554646528,72.04030226700252 L 146.26244002759182,72.04030226700252 L 146.2967549335254,72.04030226700252 L 147.77184907999765,72.04030226700252 L 147.7968703655742,72.04030226700252 L 147.8394601680949,72.04030226700252 L 149.3244019776762,72.04030226700252 L 149.36214837420312,72.04030226700252 L 150.86103061432,72.04030226700252 L 150.90034977736883,72.04030226700252 L 150.95167915749448,72.04030226700252 L 152.40750691407277,72.04030226700252 L 152.44598607682016,72.04030226700252 L 152.4696669363837,72.04030226700252 L 153.95369725627617,72.04030226700252 L 153.98947769465065,72.04030226700252 L 154.0272062188307,72.04030226700252 L 155.4987973853223,72.04030226700252 L 155.53289782309378,72.04030226700252 L 155.57155570930956,72.04030226700252 L 157.04130602407656,72.04030226700252 L 157.07195709890783,72.04030226700252 L 157.11048987869572,72.04030226700252 L 158.58533381231223,72.04030226700252 L 158.61775424948073,72.04030226700252 L 158.6496027715503,72.04030226700252 L 160.12896840891744,72.04030226700252 L 160.16599991157074,72.04030226700252 L 160.20696333052894,72.04030226700252 L 161.6762132195844,72.04030226700252 L 161.71254770071093,72.04030226700252 L 161.75696048260932,72.04030226700252 L 163.2110010045036,72.04030226700252 L 163.248246975319,72.04030226700252 L 163.2910691183486,72.04030226700252 L 164.7622849655565,72.04030226700252 L 164.79783306342205,72.04030226700252 L 164.83447137444486,72.04030226700252 L 166.30736722225578,72.04030226700252 L 166.34899191804706,72.04030226700252 L 166.39306512535546,72.04030226700252 L 167.85209203201822,72.04030226700252 L 167.88965970507675,72.04030226700252 L 167.93593121104655,72.04030226700252 L 169.3933674788405,72.04030226700252 L 169.43270451423624,72.04030226700252 L 169.4690568677096,72.04030226700252 L 170.94386505663243,72.04030226700252 L 170.9797348567411,72.04030226700252 L 172.49144944188936,72.04030226700252 L 172.52428094303517,72.04030226700252 L 174.02972233444245,72.04030226700252 L 174.06687894352362,72.04030226700252 L 174.11100576787257,72.04030226700252 L 175.57189139860674,72.04030226700252 L 175.61880630906276,72.04030226700252 L 177.1193506774358,72.04030226700252 L 177.15127068889274,72.04030226700252 L 177.19334219335502,72.04030226700252 L 178.66008995385283,72.04030226700252 L 178.69890869119018,72.04030226700252 L 178.74305338788596,72.04030226700252 L 180.20000710231523,72.04030226700252 L 180.23748541363955,72.04030226700252 L 180.2692267016281,72.04030226700252 L 181.74939659460304,72.04030226700252 L 181.79254043987575,72.04030226700252 L 183.29462183007703,72.04030226700252 L 183.33333333333334,72.04030226700252" fill="none" stroke="none"/>
  </g>
  
  <!-- Footer -->
  <text x="400" y="580" text-anchor="middle" fill="#64748b" font-size="12" font-family="Arial, sans-serif">
    Generated by GitHub User Rank Tracker • 4/6/2026
    <animate attributeName="opacity" values="0;1" dur="0.5s" begin="5s" fill="freeze"/>
  </text>
</svg>