<svg width="800" height="600" xmlns="http://www.w3.org/2000/svg">
  <defs>
    <linearGradient id="bgGradient" x1="0%" y1="0%" x2="100%" y2="100%">
      <stop offset="0%" style="stop-color:#f8fafc;stop-opacity:1" />
      <stop offset="100%" style="stop-color:#e2e8f0;stop-opacity:1" />
    </linearGradient>
    <filter id="shadow" x="-20%" y="-20%" width="140%" height="140%">
      <feDropShadow dx="2" dy="2" stdDeviation="3" flood-color="#00000020" flood-opacity="0.1"/>
    </filter>
    <!-- Trail effect filter -->
    <filter id="trailGlow" x="-50%" y="-50%" width="200%" height="200%">
      <feGaussianBlur stdDeviation="3" result="coloredBlur"/>
      <feMerge> 
        <feMergeNode in="coloredBlur"/>
        <feMergeNode in="SourceGraphic"/>
      </feMerge>
    </filter>
  </defs>
  
  <!-- Background -->
  <rect width="800" height="600" fill="url(#bgGradient)" rx="12"/>
  
  <!-- Header -->
  <text x="400" y="40" text-anchor="middle" fill="#0f172a" font-size="24" font-weight="bold" font-family="Arial, sans-serif">
    GitHub Progress Report
    <animate attributeName="opacity" values="0;1" dur="0.8s" begin="0s" fill="freeze"/>
    <animateTransform attributeName="transform" type="translate" values="0,-20;0,0" dur="0.8s" begin="0s" fill="freeze"/>
  </text>
  
  <!-- User Info -->
  <text x="400" y="70" text-anchor="middle" fill="#475569" font-size="16" font-family="Arial, sans-serif">
    @maifeeulasad • BANGLADESH • 100 days analyzed
    <animate attributeName="opacity" values="0;1" dur="0.6s" begin="0.3s" fill="freeze"/>
  </text>
  
  <!-- Progress Cards -->
  <!-- Followers Card -->
  <g transform="translate(60, 100)">
    <rect width="206.66666666666666" height="120" fill="#ffffff" stroke="#e2e8f0" stroke-width="1" rx="8" filter="url(#shadow)">
      <animate attributeName="opacity" values="0;1" dur="0.6s" begin="0.2s" fill="freeze"/>
      <animateTransform attributeName="transform" type="scale" values="0.8;1" dur="0.6s" begin="0.2s" fill="freeze"/>
    </rect>
    <text x="103.33333333333333" y="25" text-anchor="middle" fill="#64748b" font-size="14" font-weight="bold" font-family="Arial, sans-serif">FOLLOWERS
      <animate attributeName="opacity" values="0;1" dur="0.5s" begin="0.4s" fill="freeze"/>
    </text>
    
    <text x="103.33333333333333" y="50" text-anchor="middle" fill="#ef4444" font-size="32" font-weight="bold" font-family="Arial, sans-serif">
      ↘
      <animate attributeName="opacity" values="0;1" dur="0.5s" begin="0.6s" fill="freeze"/>
      <animateTransform attributeName="transform" type="scale" values="0;1.2;1" dur="0.8s" begin="0.6s" fill="freeze"/>
    </text>
    
    <text x="103.33333333333333" y="75" text-anchor="middle" fill="#1e293b" font-size="18" font-weight="bold" font-family="Arial, sans-serif">
      -15
      <animate attributeName="opacity" values="0;1" dur="0.5s" begin="0.8s" fill="freeze"/>
    </text>
    
    <text x="103.33333333333333" y="95" text-anchor="middle" fill="#64748b" font-size="12" font-family="Arial, sans-serif">
      #466 → #481
      <animate attributeName="opacity" values="0;1" dur="0.5s" begin="1s" fill="freeze"/>
    </text>
  </g>
  
  <!-- Public Contributions Card -->
  <g transform="translate(296.66666666666663, 100)">
    <rect width="206.66666666666666" height="120" fill="#ffffff" stroke="#e2e8f0" stroke-width="1" rx="8" filter="url(#shadow)">
      <animate attributeName="opacity" values="0;1" dur="0.6s" begin="0.4s" fill="freeze"/>
      <animateTransform attributeName="transform" type="scale" values="0.8;1" dur="0.6s" begin="0.4s" fill="freeze"/>
    </rect>
    <text x="103.33333333333333" y="25" text-anchor="middle" fill="#64748b" font-size="14" font-weight="bold" font-family="Arial, sans-serif">PUBLIC
      <animate attributeName="opacity" values="0;1" dur="0.5s" begin="0.6s" fill="freeze"/>
    </text>
    
    <text x="103.33333333333333" y="50" text-anchor="middle" fill="#6b7280" font-size="32" font-weight="bold" font-family="Arial, sans-serif">
      →
      <animate attributeName="opacity" values="0;1" dur="0.5s" begin="0.8s" fill="freeze"/>
      <animateTransform attributeName="transform" type="scale" values="0;1.2;1" dur="0.8s" begin="0.8s" fill="freeze"/>
    </text>
    
    <text x="103.33333333333333" y="75" text-anchor="middle" fill="#1e293b" font-size="18" font-weight="bold" font-family="Arial, sans-serif">
      0
      <animate attributeName="opacity" values="0;1" dur="0.5s" begin="1s" fill="freeze"/>
    </text>
    
    <text x="103.33333333333333" y="95" text-anchor="middle" fill="#64748b" font-size="12" font-family="Arial, sans-serif">
      #7 → #7
      <animate attributeName="opacity" values="0;1" dur="0.5s" begin="1.2s" fill="freeze"/>
    </text>
  </g>
  
  <!-- Total Contributions Card -->
  <g transform="translate(533.3333333333333, 100)">
    <rect width="206.66666666666666" height="120" fill="#ffffff" stroke="#e2e8f0" stroke-width="1" rx="8" filter="url(#shadow)">
      <animate attributeName="opacity" values="0;1" dur="0.6s" begin="0.6s" fill="freeze"/>
      <animateTransform attributeName="transform" type="scale" values="0.8;1" dur="0.6s" begin="0.6s" fill="freeze"/>
    </rect>
    <text x="103.33333333333333" y="25" text-anchor="middle" fill="#64748b" font-size="14" font-weight="bold" font-family="Arial, sans-serif">TOTAL
      <animate attributeName="opacity" values="0;1" dur="0.5s" begin="0.8s" fill="freeze"/>
    </text>
    
    <text x="103.33333333333333" y="50" text-anchor="middle" fill="#22c55e" font-size="32" font-weight="bold" font-family="Arial, sans-serif">
      ↗
      <animate attributeName="opacity" values="0;1" dur="0.5s" begin="1s" fill="freeze"/>
      <animateTransform attributeName="transform" type="scale" values="0;1.2;1" dur="0.8s" begin="1s" fill="freeze"/>
    </text>
    
    <text x="103.33333333333333" y="75" text-anchor="middle" fill="#1e293b" font-size="18" font-weight="bold" font-family="Arial, sans-serif">
      +3
      <animate attributeName="opacity" values="0;1" dur="0.5s" begin="1.2s" fill="freeze"/>
    </text>
    
    <text x="103.33333333333333" y="95" text-anchor="middle" fill="#64748b" font-size="12" font-family="Arial, sans-serif">
      #15 → #12
      <animate attributeName="opacity" values="0;1" dur="0.5s" begin="1.4s" fill="freeze"/>
    </text>
  </g>
  
  <!-- Timeline Charts (if we have snapshots) -->
  
  <!-- 👥 Followers Count Chart -->
  <g transform="translate(60, 250)">
    <!-- Chart Background -->
    <rect x="0" y="0" width="213.33333333333334" height="200" fill="#ffffff" stroke="#e2e8f0" stroke-width="1" rx="8" filter="url(#shadow)">
      <animate attributeName="opacity" values="0;1" dur="0.5s" begin="1.8s" fill="freeze"/>
    </rect>
    
    <!-- Chart Title -->
    <text x="106.66666666666667" y="25" text-anchor="middle" fill="#1e293b" font-size="14" font-weight="bold" font-family="Arial, sans-serif">
      👥 Followers Count
      <animate attributeName="opacity" values="0;1" dur="0.5s" begin="2s" fill="freeze"/>
    </text>
    
    <!-- Y-axis labels -->
    <text x="10" y="45" fill="#64748b" font-size="10" font-family="Arial, sans-serif">154
      <animate attributeName="opacity" values="0;1" dur="0.5s" begin="2.2s" fill="freeze"/>
    </text>
    <text x="10" y="185" fill="#64748b" font-size="10" font-family="Arial, sans-serif">150
      <animate attributeName="opacity" values="0;1" dur="0.5s" begin="2.2s" fill="freeze"/>
    </text>
    
    <!-- Chart Line with draw animation that follows the circle -->
    <path d="M 30,160 L 30.02797207918569,160 L 30.058847090356057,160 L 31.549359309822076,160 L 31.569285608383566,160 L 31.618205388125357,160 L 33.094955559664015,160 L 33.12511379750484,160 L 33.15485989068116,160 L 34.64605304481025,160 L 34.680296890629506,160 L 34.71145861113169,160 L 36.19353082464226,160 L 36.223689062483075,160 L 36.258452568966256,160 L 37.73964673514813,160 L 37.76928531232502,160 L 37.796289747515814,160 L 39.29022455963044,160 L 39.320848700135464,160 L 39.352386726635665,160 L 40.84311397810055,160 L 40.87192826594846,160 L 40.90034832846512,160 L 42.38553850595923,160 L 42.416341839796644,70 L 42.44843536562725,70 L 43.939556842423386,70 L 43.96093460697721,70 L 43.99041191015496,70 L 45.48391665827185,70 L 45.507821048812346,70 L 45.550236110588465,70 L 47.033992741423475,70 L 47.06547700992397,70 L 47.09312654111135,70 L 48.57595136661795,70 L 48.610446083102545,70 L 48.64422402625759,70 L 50.133714843729,70 L 50.14898211564842,70 L 50.190357856096696,70 L 51.678845190906735,70 L 51.7114762967345,70 L 51.74833636520661,70 L 53.22720101806744,70 L 53.257950593905136,70 L 53.29735520769715,70 L 54.77304813857472,70 L 54.805750921735445,70 L 54.84390118220074,70 L 56.32986189102412,70 L 56.3662918954985,70 L 57.87214306421689,70 L 57.94874821381255,70 L 59.42062432671027,70 L 59.458702909842614,70 L 59.49484620498518,70 L 60.96847841254029,70 L 61.00859979966185,70 L 61.03621349218277,70 L 62.519988042351024,70 L 62.553568872840444,70 L 62.59127114997477,70 L 64.06277095687449,70 L 64.09633386803065,70 L 64.1340899031647,70 L 65.61336670069002,70 L 65.64635619318257,70 L 65.6817468763291,70 L 67.16706248915588,70 L 67.21040935626041,70 L 68.74953672680317,70 L 68.7905719999199,70 L 70.26701754279352,70 L 70.30084924394828,70 L 71.8192977039335,70 L 71.84811199178142,70 L 71.89556238619762,70 L 73.3556654971575,70 L 73.38863707031679,70 L 73.42393815679713,70 L 74.90575949964236,70 L 74.94475196876988,70 L 74.98388779256331,70 L 76.45124823348486,70 L 76.48285793731802,70 L 76.5212769877819,70 L 77.99822427198619,70 L 78.03415253512989,70 L 78.08111910754864,70 L 79.54167020183948,70 L 79.5825621202903,70 L 79.6221459274147,70 L 81.09705040762978,70 L 81.12995030345613,70 L 81.16750922592453,70 L 82.64524496079133,70 L 82.67853908194894,70 L 82.71692229374634,70 L 84.19146838729662,70 L 84.23006663109291,70 L 84.27165740354005,70 L 85.74125776111643,70 L 85.77198941762089,70 L 85.80902867942538,70 L 87.2908500222706,70 L 87.31842787612506,70 L 87.35609431459291,70 L 88.83520983811908,70 L 88.87056468259914,70 L 88.90961090972638,70 L 90.38449747060821,70 L 90.42202055441015,70 L 90.46192690953285,70 L 91.93688514774763,70 L 91.96403293760434,70 L 92.00286413273271,70 L 93.48382534758247,70 L 93.52039870672277,70 L 93.5530118932173,70 L 95.0273787934352,70 L 95.06085210792519,70 L 95.09939659372174,70 L 96.57292128527742,70 L 96.61352649439642,70 L 96.65067327220036,70 L 98.12459218908731,70 L 98.15523424892557,70 L 98.18963936874397,70 L 99.67896891221623,70 L 99.7163665606855,70 L 99.75845907446333,70 L 101.2259628700508,70 L 101.25936450720782,70 L 101.29276614436485,70 L 102.77069899189728,70 L 102.80779201170148,70 L 102.84427577417559,70 L 104.3123171497602,70 L 104.35259981088092,70 L 104.39094718401185,70 L 105.85931110759476,70 L 105.89957584938224,70 L 105.943764925149,70 L 107.42202032067972,70 L 107.45404216917736,70 L 107.49545374829212,70 L 108.96638013652819,70 L 108.99404758704881,70 L 109.02911572219705,70 L 110.51022029171273,70 L 110.5468294895195,70 L 110.58395834799018,70 L 112.05922121487004,70 L 112.09118930536796,70 L 112.13252920714976,70 L 113.60711113936654,70 L 113.63927634253008,70 L 113.67737284499566,70 L 115.155825353192,70 L 115.18734546035897,70 L 115.22148179017879,70 L 116.70235340836237,40 L 116.73218909820488,40 L 118.24934736619693,40 L 118.28577737067131,40 L 118.32018249048971,40 L 119.79915465934997,40 L 119.82424172588422,40 L 119.86694349699216,40 L 121.35578921846698,40 L 121.39363485026723,40 L 122.89645765166827,40 L 122.93588018479352,40 L 122.98734450985522,40 L 124.4469996374841,40 L 124.48557996194712,40 L 124.50932307848848,40 L 125.99725491396812,40 L 126.0331294191121,40 L 126.07095713157909,40 L 127.54641711112457,40 L 127.5806071989441,40 L 127.61936671673953,40 L 129.09298100496142,40 L 129.12371266146585,40 L 129.1623467439286,40 L 130.64106804212352,40 L 130.67357371261863,40 L 130.70550596445008,40 L 132.1887608539544,40 L 132.2258897124251,40 L 132.2669608242083,40 L 133.7400733710995,40 L 133.7765033755739,40 L 133.8210329186722,40 L 135.2788961129772,40 L 135.31624000344675,40 L 135.35917472588682,40 L 136.83425839943425,40 L 136.86989995324612,40 L 136.90663458638556,40 L 138.38340267725746,40 L 138.4251368043705,40 L 138.46932588013726,40 L 139.9321885684159,40 L 139.96985500688376,40 L 140.0162481606389,40 L 141.47751602825926,40 L 141.51695648071774,40 L 141.55340440452537,40 L 143.03208986405383,40 L 143.06805396586398,40 L 144.58374284853045,40 L 144.61666066369003,40 L 146.12605986038972,40 L 146.16331415419307,40 L 146.20755698795955,40 L 147.672283286895,40 L 147.7193215366467,40 L 149.22381083603898,40 L 149.25581476520338,40 L 149.29799687564739,40 L 150.76860071588516,40 L 150.80752150767972,40 L 150.85178226077943,40 L 152.31256630640237,40 L 152.35014314820404,40 L 152.38196788403604,40 L 153.86602914353614,40 L 153.90928641397446,40 L 155.41531677602524,40 L 155.45413005182039,40 L 156.9637442805189,40 L 157.0023066856487,40 L 158.5115804470157,40 L 158.54976654614748,40 L 160.0543454422059,40 L 160.08964652868625,40 L 160.12044986252366,40 L 161.61072913065757,40 L 161.6464423618024,40 L 163.15652249316514,40 L 163.1944218829651,40 L 163.2351525274168,40 L 164.7067956889824,40 L 164.74831478409658,40 L 166.25402259814908,40 L 166.29826543191552,40 L 167.8058547759581,40 L 167.84930915906207,40 L 169.360679482418,40 L 169.39798753422107,40 L 170.9021005276153,40 L 170.94646879671444,40 L 172.4503130001101,40 L 172.4924413525544,40 L 173.98757675999602,40 L 174.0323392544264,40 L 175.54439051244543,40 L 175.59055071486844,40 L 177.08794395829813,40 L 177.13808225270017,40 L 178.64472187208105,40 L 178.6855241938657,40 L 180.18983429992554,40 L 180.23029615437866,40 L 181.74562665038033,40 L 181.7837231528459,40 L 183.28848124223677,40 L 183.33333333333334,40" stroke="#22c55e" stroke-width="2" fill="none" stroke-dasharray="13600" stroke-dashoffset="13600">
      <animate attributeName="stroke-dashoffset" values="13600;0" dur="3s" begin="2.6s" fill="freeze"/>
    </path>
    
    <!-- Glow effect for the line that also follows the circle -->
    <path d="M 30,160 L 30.02797207918569,160 L 30.058847090356057,160 L 31.549359309822076,160 L 31.569285608383566,160 L 31.618205388125357,160 L 33.094955559664015,160 L 33.12511379750484,160 L 33.15485989068116,160 L 34.64605304481025,160 L 34.680296890629506,160 L 34.71145861113169,160 L 36.19353082464226,160 L 36.223689062483075,160 L 36.258452568966256,160 L 37.73964673514813,160 L 37.76928531232502,160 L 37.796289747515814,160 L 39.29022455963044,160 L 39.320848700135464,160 L 39.352386726635665,160 L 40.84311397810055,160 L 40.87192826594846,160 L 40.90034832846512,160 L 42.38553850595923,160 L 42.416341839796644,70 L 42.44843536562725,70 L 43.939556842423386,70 L 43.96093460697721,70 L 43.99041191015496,70 L 45.48391665827185,70 L 45.507821048812346,70 L 45.550236110588465,70 L 47.033992741423475,70 L 47.06547700992397,70 L 47.09312654111135,70 L 48.57595136661795,70 L 48.610446083102545,70 L 48.64422402625759,70 L 50.133714843729,70 L 50.14898211564842,70 L 50.190357856096696,70 L 51.678845190906735,70 L 51.7114762967345,70 L 51.74833636520661,70 L 53.22720101806744,70 L 53.257950593905136,70 L 53.29735520769715,70 L 54.77304813857472,70 L 54.805750921735445,70 L 54.84390118220074,70 L 56.32986189102412,70 L 56.3662918954985,70 L 57.87214306421689,70 L 57.94874821381255,70 L 59.42062432671027,70 L 59.458702909842614,70 L 59.49484620498518,70 L 60.96847841254029,70 L 61.00859979966185,70 L 61.03621349218277,70 L 62.519988042351024,70 L 62.553568872840444,70 L 62.59127114997477,70 L 64.06277095687449,70 L 64.09633386803065,70 L 64.1340899031647,70 L 65.61336670069002,70 L 65.64635619318257,70 L 65.6817468763291,70 L 67.16706248915588,70 L 67.21040935626041,70 L 68.74953672680317,70 L 68.7905719999199,70 L 70.26701754279352,70 L 70.30084924394828,70 L 71.8192977039335,70 L 71.84811199178142,70 L 71.89556238619762,70 L 73.3556654971575,70 L 73.38863707031679,70 L 73.42393815679713,70 L 74.90575949964236,70 L 74.94475196876988,70 L 74.98388779256331,70 L 76.45124823348486,70 L 76.48285793731802,70 L 76.5212769877819,70 L 77.99822427198619,70 L 78.03415253512989,70 L 78.08111910754864,70 L 79.54167020183948,70 L 79.5825621202903,70 L 79.6221459274147,70 L 81.09705040762978,70 L 81.12995030345613,70 L 81.16750922592453,70 L 82.64524496079133,70 L 82.67853908194894,70 L 82.71692229374634,70 L 84.19146838729662,70 L 84.23006663109291,70 L 84.27165740354005,70 L 85.74125776111643,70 L 85.77198941762089,70 L 85.80902867942538,70 L 87.2908500222706,70 L 87.31842787612506,70 L 87.35609431459291,70 L 88.83520983811908,70 L 88.87056468259914,70 L 88.90961090972638,70 L 90.38449747060821,70 L 90.42202055441015,70 L 90.46192690953285,70 L 91.93688514774763,70 L 91.96403293760434,70 L 92.00286413273271,70 L 93.48382534758247,70 L 93.52039870672277,70 L 93.5530118932173,70 L 95.0273787934352,70 L 95.06085210792519,70 L 95.09939659372174,70 L 96.57292128527742,70 L 96.61352649439642,70 L 96.65067327220036,70 L 98.12459218908731,70 L 98.15523424892557,70 L 98.18963936874397,70 L 99.67896891221623,70 L 99.7163665606855,70 L 99.75845907446333,70 L 101.2259628700508,70 L 101.25936450720782,70 L 101.29276614436485,70 L 102.77069899189728,70 L 102.80779201170148,70 L 102.84427577417559,70 L 104.3123171497602,70 L 104.35259981088092,70 L 104.39094718401185,70 L 105.85931110759476,70 L 105.89957584938224,70 L 105.943764925149,70 L 107.42202032067972,70 L 107.45404216917736,70 L 107.49545374829212,70 L 108.96638013652819,70 L 108.99404758704881,70 L 109.02911572219705,70 L 110.51022029171273,70 L 110.5468294895195,70 L 110.58395834799018,70 L 112.05922121487004,70 L 112.09118930536796,70 L 112.13252920714976,70 L 113.60711113936654,70 L 113.63927634253008,70 L 113.67737284499566,70 L 115.155825353192,70 L 115.18734546035897,70 L 115.22148179017879,70 L 116.70235340836237,40 L 116.73218909820488,40 L 118.24934736619693,40 L 118.28577737067131,40 L 118.32018249048971,40 L 119.79915465934997,40 L 119.82424172588422,40 L 119.86694349699216,40 L 121.35578921846698,40 L 121.39363485026723,40 L 122.89645765166827,40 L 122.93588018479352,40 L 122.98734450985522,40 L 124.4469996374841,40 L 124.48557996194712,40 L 124.50932307848848,40 L 125.99725491396812,40 L 126.0331294191121,40 L 126.07095713157909,40 L 127.54641711112457,40 L 127.5806071989441,40 L 127.61936671673953,40 L 129.09298100496142,40 L 129.12371266146585,40 L 129.1623467439286,40 L 130.64106804212352,40 L 130.67357371261863,40 L 130.70550596445008,40 L 132.1887608539544,40 L 132.2258897124251,40 L 132.2669608242083,40 L 133.7400733710995,40 L 133.7765033755739,40 L 133.8210329186722,40 L 135.2788961129772,40 L 135.31624000344675,40 L 135.35917472588682,40 L 136.83425839943425,40 L 136.86989995324612,40 L 136.90663458638556,40 L 138.38340267725746,40 L 138.4251368043705,40 L 138.46932588013726,40 L 139.9321885684159,40 L 139.96985500688376,40 L 140.0162481606389,40 L 141.47751602825926,40 L 141.51695648071774,40 L 141.55340440452537,40 L 143.03208986405383,40 L 143.06805396586398,40 L 144.58374284853045,40 L 144.61666066369003,40 L 146.12605986038972,40 L 146.16331415419307,40 L 146.20755698795955,40 L 147.672283286895,40 L 147.7193215366467,40 L 149.22381083603898,40 L 149.25581476520338,40 L 149.29799687564739,40 L 150.76860071588516,40 L 150.80752150767972,40 L 150.85178226077943,40 L 152.31256630640237,40 L 152.35014314820404,40 L 152.38196788403604,40 L 153.86602914353614,40 L 153.90928641397446,40 L 155.41531677602524,40 L 155.45413005182039,40 L 156.9637442805189,40 L 157.0023066856487,40 L 158.5115804470157,40 L 158.54976654614748,40 L 160.0543454422059,40 L 160.08964652868625,40 L 160.12044986252366,40 L 161.61072913065757,40 L 161.6464423618024,40 L 163.15652249316514,40 L 163.1944218829651,40 L 163.2351525274168,40 L 164.7067956889824,40 L 164.74831478409658,40 L 166.25402259814908,40 L 166.29826543191552,40 L 167.8058547759581,40 L 167.84930915906207,40 L 169.360679482418,40 L 169.39798753422107,40 L 170.9021005276153,40 L 170.94646879671444,40 L 172.4503130001101,40 L 172.4924413525544,40 L 173.98757675999602,40 L 174.0323392544264,40 L 175.54439051244543,40 L 175.59055071486844,40 L 177.08794395829813,40 L 177.13808225270017,40 L 178.64472187208105,40 L 178.6855241938657,40 L 180.18983429992554,40 L 180.23029615437866,40 L 181.74562665038033,40 L 181.7837231528459,40 L 183.28848124223677,40 L 183.33333333333334,40" stroke="#22c55e" stroke-width="4" fill="none" opacity="0.4" stroke-dasharray="13600" stroke-dashoffset="13600">
      <animate attributeName="stroke-dashoffset" values="13600;0" dur="3s" begin="2.6s" fill="freeze"/>
    </path>
    
    <!-- Animated circle that moves along the path and draws the line -->
    <circle r="5" fill="#22c55e" opacity="0" filter="url(#trailGlow)">
      <animate attributeName="opacity" values="0;1;1;1" dur="3.2s" begin="2.4s" fill="freeze"/>
      <animate attributeName="r" values="5;6;5" dur="1s" begin="2.4s" repeatCount="3"/>
      <animateMotion dur="3s" begin="2.4s" fill="freeze">
        <mpath href="#path_followersCount_60"/>
      </animateMotion>
    </circle>
    
    <!-- Small trail dots that fade out -->
    <circle r="2" fill="#22c55e" opacity="0">
      <animate attributeName="opacity" values="0;0.6;0" dur="0.8s" begin="2.8s" fill="freeze"/>
      <animateMotion dur="3s" begin="2.4s" fill="freeze">
        <mpath href="#path_followersCount_60"/>
      </animateMotion>
    </circle>
    
    <!-- Hidden path for motion animation -->
    <path id="path_followersCount_60" d="M 30,160 L 30.02797207918569,160 L 30.058847090356057,160 L 31.549359309822076,160 L 31.569285608383566,160 L 31.618205388125357,160 L 33.094955559664015,160 L 33.12511379750484,160 L 33.15485989068116,160 L 34.64605304481025,160 L 34.680296890629506,160 L 34.71145861113169,160 L 36.19353082464226,160 L 36.223689062483075,160 L 36.258452568966256,160 L 37.73964673514813,160 L 37.76928531232502,160 L 37.796289747515814,160 L 39.29022455963044,160 L 39.320848700135464,160 L 39.352386726635665,160 L 40.84311397810055,160 L 40.87192826594846,160 L 40.90034832846512,160 L 42.38553850595923,160 L 42.416341839796644,70 L 42.44843536562725,70 L 43.939556842423386,70 L 43.96093460697721,70 L 43.99041191015496,70 L 45.48391665827185,70 L 45.507821048812346,70 L 45.550236110588465,70 L 47.033992741423475,70 L 47.06547700992397,70 L 47.09312654111135,70 L 48.57595136661795,70 L 48.610446083102545,70 L 48.64422402625759,70 L 50.133714843729,70 L 50.14898211564842,70 L 50.190357856096696,70 L 51.678845190906735,70 L 51.7114762967345,70 L 51.74833636520661,70 L 53.22720101806744,70 L 53.257950593905136,70 L 53.29735520769715,70 L 54.77304813857472,70 L 54.805750921735445,70 L 54.84390118220074,70 L 56.32986189102412,70 L 56.3662918954985,70 L 57.87214306421689,70 L 57.94874821381255,70 L 59.42062432671027,70 L 59.458702909842614,70 L 59.49484620498518,70 L 60.96847841254029,70 L 61.00859979966185,70 L 61.03621349218277,70 L 62.519988042351024,70 L 62.553568872840444,70 L 62.59127114997477,70 L 64.06277095687449,70 L 64.09633386803065,70 L 64.1340899031647,70 L 65.61336670069002,70 L 65.64635619318257,70 L 65.6817468763291,70 L 67.16706248915588,70 L 67.21040935626041,70 L 68.74953672680317,70 L 68.7905719999199,70 L 70.26701754279352,70 L 70.30084924394828,70 L 71.8192977039335,70 L 71.84811199178142,70 L 71.89556238619762,70 L 73.3556654971575,70 L 73.38863707031679,70 L 73.42393815679713,70 L 74.90575949964236,70 L 74.94475196876988,70 L 74.98388779256331,70 L 76.45124823348486,70 L 76.48285793731802,70 L 76.5212769877819,70 L 77.99822427198619,70 L 78.03415253512989,70 L 78.08111910754864,70 L 79.54167020183948,70 L 79.5825621202903,70 L 79.6221459274147,70 L 81.09705040762978,70 L 81.12995030345613,70 L 81.16750922592453,70 L 82.64524496079133,70 L 82.67853908194894,70 L 82.71692229374634,70 L 84.19146838729662,70 L 84.23006663109291,70 L 84.27165740354005,70 L 85.74125776111643,70 L 85.77198941762089,70 L 85.80902867942538,70 L 87.2908500222706,70 L 87.31842787612506,70 L 87.35609431459291,70 L 88.83520983811908,70 L 88.87056468259914,70 L 88.90961090972638,70 L 90.38449747060821,70 L 90.42202055441015,70 L 90.46192690953285,70 L 91.93688514774763,70 L 91.96403293760434,70 L 92.00286413273271,70 L 93.48382534758247,70 L 93.52039870672277,70 L 93.5530118932173,70 L 95.0273787934352,70 L 95.06085210792519,70 L 95.09939659372174,70 L 96.57292128527742,70 L 96.61352649439642,70 L 96.65067327220036,70 L 98.12459218908731,70 L 98.15523424892557,70 L 98.18963936874397,70 L 99.67896891221623,70 L 99.7163665606855,70 L 99.75845907446333,70 L 101.2259628700508,70 L 101.25936450720782,70 L 101.29276614436485,70 L 102.77069899189728,70 L 102.80779201170148,70 L 102.84427577417559,70 L 104.3123171497602,70 L 104.35259981088092,70 L 104.39094718401185,70 L 105.85931110759476,70 L 105.89957584938224,70 L 105.943764925149,70 L 107.42202032067972,70 L 107.45404216917736,70 L 107.49545374829212,70 L 108.96638013652819,70 L 108.99404758704881,70 L 109.02911572219705,70 L 110.51022029171273,70 L 110.5468294895195,70 L 110.58395834799018,70 L 112.05922121487004,70 L 112.09118930536796,70 L 112.13252920714976,70 L 113.60711113936654,70 L 113.63927634253008,70 L 113.67737284499566,70 L 115.155825353192,70 L 115.18734546035897,70 L 115.22148179017879,70 L 116.70235340836237,40 L 116.73218909820488,40 L 118.24934736619693,40 L 118.28577737067131,40 L 118.32018249048971,40 L 119.79915465934997,40 L 119.82424172588422,40 L 119.86694349699216,40 L 121.35578921846698,40 L 121.39363485026723,40 L 122.89645765166827,40 L 122.93588018479352,40 L 122.98734450985522,40 L 124.4469996374841,40 L 124.48557996194712,40 L 124.50932307848848,40 L 125.99725491396812,40 L 126.0331294191121,40 L 126.07095713157909,40 L 127.54641711112457,40 L 127.5806071989441,40 L 127.61936671673953,40 L 129.09298100496142,40 L 129.12371266146585,40 L 129.1623467439286,40 L 130.64106804212352,40 L 130.67357371261863,40 L 130.70550596445008,40 L 132.1887608539544,40 L 132.2258897124251,40 L 132.2669608242083,40 L 133.7400733710995,40 L 133.7765033755739,40 L 133.8210329186722,40 L 135.2788961129772,40 L 135.31624000344675,40 L 135.35917472588682,40 L 136.83425839943425,40 L 136.86989995324612,40 L 136.90663458638556,40 L 138.38340267725746,40 L 138.4251368043705,40 L 138.46932588013726,40 L 139.9321885684159,40 L 139.96985500688376,40 L 140.0162481606389,40 L 141.47751602825926,40 L 141.51695648071774,40 L 141.55340440452537,40 L 143.03208986405383,40 L 143.06805396586398,40 L 144.58374284853045,40 L 144.61666066369003,40 L 146.12605986038972,40 L 146.16331415419307,40 L 146.20755698795955,40 L 147.672283286895,40 L 147.7193215366467,40 L 149.22381083603898,40 L 149.25581476520338,40 L 149.29799687564739,40 L 150.76860071588516,40 L 150.80752150767972,40 L 150.85178226077943,40 L 152.31256630640237,40 L 152.35014314820404,40 L 152.38196788403604,40 L 153.86602914353614,40 L 153.90928641397446,40 L 155.41531677602524,40 L 155.45413005182039,40 L 156.9637442805189,40 L 157.0023066856487,40 L 158.5115804470157,40 L 158.54976654614748,40 L 160.0543454422059,40 L 160.08964652868625,40 L 160.12044986252366,40 L 161.61072913065757,40 L 161.6464423618024,40 L 163.15652249316514,40 L 163.1944218829651,40 L 163.2351525274168,40 L 164.7067956889824,40 L 164.74831478409658,40 L 166.25402259814908,40 L 166.29826543191552,40 L 167.8058547759581,40 L 167.84930915906207,40 L 169.360679482418,40 L 169.39798753422107,40 L 170.9021005276153,40 L 170.94646879671444,40 L 172.4503130001101,40 L 172.4924413525544,40 L 173.98757675999602,40 L 174.0323392544264,40 L 175.54439051244543,40 L 175.59055071486844,40 L 177.08794395829813,40 L 177.13808225270017,40 L 178.64472187208105,40 L 178.6855241938657,40 L 180.18983429992554,40 L 180.23029615437866,40 L 181.74562665038033,40 L 181.7837231528459,40 L 183.28848124223677,40 L 183.33333333333334,40" fill="none" stroke="none"/>
  </g>
  <!-- 🔓 Public Contributions Chart -->
  <g transform="translate(293.33333333333337, 250)">
    <!-- Chart Background -->
    <rect x="0" y="0" width="213.33333333333334" height="200" fill="#ffffff" stroke="#e2e8f0" stroke-width="1" rx="8" filter="url(#shadow)">
      <animate attributeName="opacity" values="0;1" dur="0.5s" begin="2.3s" fill="freeze"/>
    </rect>
    
    <!-- Chart Title -->
    <text x="106.66666666666667" y="25" text-anchor="middle" fill="#1e293b" font-size="14" font-weight="bold" font-family="Arial, sans-serif">
      🔓 Public Contributions
      <animate attributeName="opacity" values="0;1" dur="0.5s" begin="2.5s" fill="freeze"/>
    </text>
    
    <!-- Y-axis labels -->
    <text x="10" y="45" fill="#64748b" font-size="10" font-family="Arial, sans-serif">3,861
      <animate attributeName="opacity" values="0;1" dur="0.5s" begin="2.6999999999999997s" fill="freeze"/>
    </text>
    <text x="10" y="185" fill="#64748b" font-size="10" font-family="Arial, sans-serif">3,434
      <animate attributeName="opacity" values="0;1" dur="0.5s" begin="2.6999999999999997s" fill="freeze"/>
    </text>
    
    <!-- Chart Line with draw animation that follows the circle -->
    <path d="M 30,160 L 30.02797207918569,160 L 30.058847090356057,160 L 31.549359309822076,160 L 31.569285608383566,160 L 31.618205388125357,160 L 33.094955559664015,160 L 33.12511379750484,160 L 33.15485989068116,160 L 34.64605304481025,160 L 34.680296890629506,160 L 34.71145861113169,160 L 36.19353082464226,160 L 36.223689062483075,160 L 36.258452568966256,160 L 37.73964673514813,160 L 37.76928531232502,160 L 37.796289747515814,160 L 39.29022455963044,160 L 39.320848700135464,160 L 39.352386726635665,160 L 40.84311397810055,160 L 40.87192826594846,160 L 40.90034832846512,160 L 42.38553850595923,160 L 42.416341839796644,40 L 42.44843536562725,40 L 43.939556842423386,40 L 43.96093460697721,40 L 43.99041191015496,40 L 45.48391665827185,40 L 45.507821048812346,40 L 45.550236110588465,40 L 47.033992741423475,40 L 47.06547700992397,40 L 47.09312654111135,40 L 48.57595136661795,40 L 48.610446083102545,40 L 48.64422402625759,40 L 50.133714843729,40 L 50.14898211564842,40 L 50.190357856096696,40 L 51.678845190906735,40 L 51.7114762967345,40 L 51.74833636520661,40 L 53.22720101806744,40 L 53.257950593905136,40 L 53.29735520769715,40 L 54.77304813857472,40 L 54.805750921735445,40 L 54.84390118220074,40 L 56.32986189102412,40 L 56.3662918954985,40 L 57.87214306421689,40 L 57.94874821381255,40 L 59.42062432671027,40 L 59.458702909842614,40 L 59.49484620498518,40 L 60.96847841254029,40 L 61.00859979966185,40 L 61.03621349218277,40 L 62.519988042351024,40 L 62.553568872840444,40 L 62.59127114997477,40 L 64.06277095687449,40 L 64.09633386803065,40 L 64.1340899031647,40 L 65.61336670069002,40 L 65.64635619318257,40 L 65.6817468763291,40 L 67.16706248915588,40 L 67.21040935626041,40 L 68.74953672680317,40 L 68.7905719999199,40 L 70.26701754279352,40 L 70.30084924394828,40 L 71.8192977039335,40 L 71.84811199178142,40 L 71.89556238619762,40 L 73.3556654971575,40 L 73.38863707031679,40 L 73.42393815679713,40 L 74.90575949964236,40 L 74.94475196876988,40 L 74.98388779256331,40 L 76.45124823348486,40 L 76.48285793731802,40 L 76.5212769877819,40 L 77.99822427198619,40 L 78.03415253512989,40 L 78.08111910754864,40 L 79.54167020183948,40 L 79.5825621202903,40 L 79.6221459274147,40 L 81.09705040762978,40 L 81.12995030345613,40 L 81.16750922592453,40 L 82.64524496079133,40 L 82.67853908194894,40 L 82.71692229374634,40 L 84.19146838729662,40 L 84.23006663109291,40 L 84.27165740354005,40 L 85.74125776111643,40 L 85.77198941762089,40 L 85.80902867942538,40 L 87.2908500222706,40 L 87.31842787612506,40 L 87.35609431459291,40 L 88.83520983811908,40 L 88.87056468259914,40 L 88.90961090972638,40 L 90.38449747060821,40 L 90.42202055441015,40 L 90.46192690953285,40 L 91.93688514774763,40 L 91.96403293760434,40 L 92.00286413273271,40 L 93.48382534758247,40 L 93.52039870672277,40 L 93.5530118932173,40 L 95.0273787934352,40 L 95.06085210792519,40 L 95.09939659372174,40 L 96.57292128527742,40 L 96.61352649439642,40 L 96.65067327220036,40 L 98.12459218908731,40 L 98.15523424892557,40 L 98.18963936874397,40 L 99.67896891221623,40 L 99.7163665606855,40 L 99.75845907446333,40 L 101.2259628700508,40 L 101.25936450720782,40 L 101.29276614436485,40 L 102.77069899189728,40 L 102.80779201170148,40 L 102.84427577417559,40 L 104.3123171497602,40 L 104.35259981088092,40 L 104.39094718401185,40 L 105.85931110759476,40 L 105.89957584938224,40 L 105.943764925149,40 L 107.42202032067972,40 L 107.45404216917736,40 L 107.49545374829212,40 L 108.96638013652819,40 L 108.99404758704881,40 L 109.02911572219705,40 L 110.51022029171273,40 L 110.5468294895195,40 L 110.58395834799018,40 L 112.05922121487004,40 L 112.09118930536796,40 L 112.13252920714976,40 L 113.60711113936654,40 L 113.63927634253008,40 L 113.67737284499566,40 L 115.155825353192,40 L 115.18734546035897,40 L 115.22148179017879,40 L 116.70235340836237,66.4168618266979 L 116.73218909820488,66.4168618266979 L 118.24934736619693,66.4168618266979 L 118.28577737067131,66.4168618266979 L 118.32018249048971,66.4168618266979 L 119.79915465934997,66.4168618266979 L 119.82424172588422,66.4168618266979 L 119.86694349699216,66.4168618266979 L 121.35578921846698,66.4168618266979 L 121.39363485026723,66.4168618266979 L 122.89645765166827,66.4168618266979 L 122.93588018479352,66.4168618266979 L 122.98734450985522,66.4168618266979 L 124.4469996374841,66.4168618266979 L 124.48557996194712,66.4168618266979 L 124.50932307848848,66.4168618266979 L 125.99725491396812,66.4168618266979 L 126.0331294191121,66.4168618266979 L 126.07095713157909,66.4168618266979 L 127.54641711112457,66.4168618266979 L 127.5806071989441,66.4168618266979 L 127.61936671673953,66.4168618266979 L 129.09298100496142,66.4168618266979 L 129.12371266146585,66.4168618266979 L 129.1623467439286,66.4168618266979 L 130.64106804212352,66.4168618266979 L 130.67357371261863,66.4168618266979 L 130.70550596445008,66.4168618266979 L 132.1887608539544,66.4168618266979 L 132.2258897124251,66.4168618266979 L 132.2669608242083,66.4168618266979 L 133.7400733710995,66.4168618266979 L 133.7765033755739,66.4168618266979 L 133.8210329186722,66.4168618266979 L 135.2788961129772,66.4168618266979 L 135.31624000344675,66.4168618266979 L 135.35917472588682,66.4168618266979 L 136.83425839943425,66.4168618266979 L 136.86989995324612,66.4168618266979 L 136.90663458638556,66.4168618266979 L 138.38340267725746,66.4168618266979 L 138.4251368043705,66.4168618266979 L 138.46932588013726,66.4168618266979 L 139.9321885684159,66.4168618266979 L 139.96985500688376,66.4168618266979 L 140.0162481606389,66.4168618266979 L 141.47751602825926,66.4168618266979 L 141.51695648071774,66.4168618266979 L 141.55340440452537,66.4168618266979 L 143.03208986405383,66.4168618266979 L 143.06805396586398,66.4168618266979 L 144.58374284853045,66.4168618266979 L 144.61666066369003,66.4168618266979 L 146.12605986038972,66.4168618266979 L 146.16331415419307,66.4168618266979 L 146.20755698795955,66.4168618266979 L 147.672283286895,66.4168618266979 L 147.7193215366467,66.4168618266979 L 149.22381083603898,66.4168618266979 L 149.25581476520338,66.4168618266979 L 149.29799687564739,66.4168618266979 L 150.76860071588516,66.4168618266979 L 150.80752150767972,66.4168618266979 L 150.85178226077943,66.4168618266979 L 152.31256630640237,66.4168618266979 L 152.35014314820404,66.4168618266979 L 152.38196788403604,66.4168618266979 L 153.86602914353614,66.4168618266979 L 153.90928641397446,66.4168618266979 L 155.41531677602524,66.4168618266979 L 155.45413005182039,66.4168618266979 L 156.9637442805189,66.4168618266979 L 157.0023066856487,66.4168618266979 L 158.5115804470157,66.4168618266979 L 158.54976654614748,66.4168618266979 L 160.0543454422059,66.4168618266979 L 160.08964652868625,66.4168618266979 L 160.12044986252366,66.4168618266979 L 161.61072913065757,66.4168618266979 L 161.6464423618024,66.4168618266979 L 163.15652249316514,66.4168618266979 L 163.1944218829651,66.4168618266979 L 163.2351525274168,66.4168618266979 L 164.7067956889824,66.4168618266979 L 164.74831478409658,66.4168618266979 L 166.25402259814908,66.4168618266979 L 166.29826543191552,66.4168618266979 L 167.8058547759581,66.4168618266979 L 167.84930915906207,66.4168618266979 L 169.360679482418,66.4168618266979 L 169.39798753422107,66.4168618266979 L 170.9021005276153,66.4168618266979 L 170.94646879671444,66.4168618266979 L 172.4503130001101,66.4168618266979 L 172.4924413525544,66.4168618266979 L 173.98757675999602,66.4168618266979 L 174.0323392544264,66.4168618266979 L 175.54439051244543,66.4168618266979 L 175.59055071486844,66.4168618266979 L 177.08794395829813,66.4168618266979 L 177.13808225270017,66.4168618266979 L 178.64472187208105,66.4168618266979 L 178.6855241938657,66.4168618266979 L 180.18983429992554,66.4168618266979 L 180.23029615437866,66.4168618266979 L 181.74562665038033,66.4168618266979 L 181.7837231528459,66.4168618266979 L 183.28848124223677,66.4168618266979 L 183.33333333333334,66.4168618266979" stroke="#3b82f6" stroke-width="2" fill="none" stroke-dasharray="13600" stroke-dashoffset="13600">
      <animate attributeName="stroke-dashoffset" values="13600;0" dur="3s" begin="3.0999999999999996s" fill="freeze"/>
    </path>
    
    <!-- Glow effect for the line that also follows the circle -->
    <path d="M 30,160 L 30.02797207918569,160 L 30.058847090356057,160 L 31.549359309822076,160 L 31.569285608383566,160 L 31.618205388125357,160 L 33.094955559664015,160 L 33.12511379750484,160 L 33.15485989068116,160 L 34.64605304481025,160 L 34.680296890629506,160 L 34.71145861113169,160 L 36.19353082464226,160 L 36.223689062483075,160 L 36.258452568966256,160 L 37.73964673514813,160 L 37.76928531232502,160 L 37.796289747515814,160 L 39.29022455963044,160 L 39.320848700135464,160 L 39.352386726635665,160 L 40.84311397810055,160 L 40.87192826594846,160 L 40.90034832846512,160 L 42.38553850595923,160 L 42.416341839796644,40 L 42.44843536562725,40 L 43.939556842423386,40 L 43.96093460697721,40 L 43.99041191015496,40 L 45.48391665827185,40 L 45.507821048812346,40 L 45.550236110588465,40 L 47.033992741423475,40 L 47.06547700992397,40 L 47.09312654111135,40 L 48.57595136661795,40 L 48.610446083102545,40 L 48.64422402625759,40 L 50.133714843729,40 L 50.14898211564842,40 L 50.190357856096696,40 L 51.678845190906735,40 L 51.7114762967345,40 L 51.74833636520661,40 L 53.22720101806744,40 L 53.257950593905136,40 L 53.29735520769715,40 L 54.77304813857472,40 L 54.805750921735445,40 L 54.84390118220074,40 L 56.32986189102412,40 L 56.3662918954985,40 L 57.87214306421689,40 L 57.94874821381255,40 L 59.42062432671027,40 L 59.458702909842614,40 L 59.49484620498518,40 L 60.96847841254029,40 L 61.00859979966185,40 L 61.03621349218277,40 L 62.519988042351024,40 L 62.553568872840444,40 L 62.59127114997477,40 L 64.06277095687449,40 L 64.09633386803065,40 L 64.1340899031647,40 L 65.61336670069002,40 L 65.64635619318257,40 L 65.6817468763291,40 L 67.16706248915588,40 L 67.21040935626041,40 L 68.74953672680317,40 L 68.7905719999199,40 L 70.26701754279352,40 L 70.30084924394828,40 L 71.8192977039335,40 L 71.84811199178142,40 L 71.89556238619762,40 L 73.3556654971575,40 L 73.38863707031679,40 L 73.42393815679713,40 L 74.90575949964236,40 L 74.94475196876988,40 L 74.98388779256331,40 L 76.45124823348486,40 L 76.48285793731802,40 L 76.5212769877819,40 L 77.99822427198619,40 L 78.03415253512989,40 L 78.08111910754864,40 L 79.54167020183948,40 L 79.5825621202903,40 L 79.6221459274147,40 L 81.09705040762978,40 L 81.12995030345613,40 L 81.16750922592453,40 L 82.64524496079133,40 L 82.67853908194894,40 L 82.71692229374634,40 L 84.19146838729662,40 L 84.23006663109291,40 L 84.27165740354005,40 L 85.74125776111643,40 L 85.77198941762089,40 L 85.80902867942538,40 L 87.2908500222706,40 L 87.31842787612506,40 L 87.35609431459291,40 L 88.83520983811908,40 L 88.87056468259914,40 L 88.90961090972638,40 L 90.38449747060821,40 L 90.42202055441015,40 L 90.46192690953285,40 L 91.93688514774763,40 L 91.96403293760434,40 L 92.00286413273271,40 L 93.48382534758247,40 L 93.52039870672277,40 L 93.5530118932173,40 L 95.0273787934352,40 L 95.06085210792519,40 L 95.09939659372174,40 L 96.57292128527742,40 L 96.61352649439642,40 L 96.65067327220036,40 L 98.12459218908731,40 L 98.15523424892557,40 L 98.18963936874397,40 L 99.67896891221623,40 L 99.7163665606855,40 L 99.75845907446333,40 L 101.2259628700508,40 L 101.25936450720782,40 L 101.29276614436485,40 L 102.77069899189728,40 L 102.80779201170148,40 L 102.84427577417559,40 L 104.3123171497602,40 L 104.35259981088092,40 L 104.39094718401185,40 L 105.85931110759476,40 L 105.89957584938224,40 L 105.943764925149,40 L 107.42202032067972,40 L 107.45404216917736,40 L 107.49545374829212,40 L 108.96638013652819,40 L 108.99404758704881,40 L 109.02911572219705,40 L 110.51022029171273,40 L 110.5468294895195,40 L 110.58395834799018,40 L 112.05922121487004,40 L 112.09118930536796,40 L 112.13252920714976,40 L 113.60711113936654,40 L 113.63927634253008,40 L 113.67737284499566,40 L 115.155825353192,40 L 115.18734546035897,40 L 115.22148179017879,40 L 116.70235340836237,66.4168618266979 L 116.73218909820488,66.4168618266979 L 118.24934736619693,66.4168618266979 L 118.28577737067131,66.4168618266979 L 118.32018249048971,66.4168618266979 L 119.79915465934997,66.4168618266979 L 119.82424172588422,66.4168618266979 L 119.86694349699216,66.4168618266979 L 121.35578921846698,66.4168618266979 L 121.39363485026723,66.4168618266979 L 122.89645765166827,66.4168618266979 L 122.93588018479352,66.4168618266979 L 122.98734450985522,66.4168618266979 L 124.4469996374841,66.4168618266979 L 124.48557996194712,66.4168618266979 L 124.50932307848848,66.4168618266979 L 125.99725491396812,66.4168618266979 L 126.0331294191121,66.4168618266979 L 126.07095713157909,66.4168618266979 L 127.54641711112457,66.4168618266979 L 127.5806071989441,66.4168618266979 L 127.61936671673953,66.4168618266979 L 129.09298100496142,66.4168618266979 L 129.12371266146585,66.4168618266979 L 129.1623467439286,66.4168618266979 L 130.64106804212352,66.4168618266979 L 130.67357371261863,66.4168618266979 L 130.70550596445008,66.4168618266979 L 132.1887608539544,66.4168618266979 L 132.2258897124251,66.4168618266979 L 132.2669608242083,66.4168618266979 L 133.7400733710995,66.4168618266979 L 133.7765033755739,66.4168618266979 L 133.8210329186722,66.4168618266979 L 135.2788961129772,66.4168618266979 L 135.31624000344675,66.4168618266979 L 135.35917472588682,66.4168618266979 L 136.83425839943425,66.4168618266979 L 136.86989995324612,66.4168618266979 L 136.90663458638556,66.4168618266979 L 138.38340267725746,66.4168618266979 L 138.4251368043705,66.4168618266979 L 138.46932588013726,66.4168618266979 L 139.9321885684159,66.4168618266979 L 139.96985500688376,66.4168618266979 L 140.0162481606389,66.4168618266979 L 141.47751602825926,66.4168618266979 L 141.51695648071774,66.4168618266979 L 141.55340440452537,66.4168618266979 L 143.03208986405383,66.4168618266979 L 143.06805396586398,66.4168618266979 L 144.58374284853045,66.4168618266979 L 144.61666066369003,66.4168618266979 L 146.12605986038972,66.4168618266979 L 146.16331415419307,66.4168618266979 L 146.20755698795955,66.4168618266979 L 147.672283286895,66.4168618266979 L 147.7193215366467,66.4168618266979 L 149.22381083603898,66.4168618266979 L 149.25581476520338,66.4168618266979 L 149.29799687564739,66.4168618266979 L 150.76860071588516,66.4168618266979 L 150.80752150767972,66.4168618266979 L 150.85178226077943,66.4168618266979 L 152.31256630640237,66.4168618266979 L 152.35014314820404,66.4168618266979 L 152.38196788403604,66.4168618266979 L 153.86602914353614,66.4168618266979 L 153.90928641397446,66.4168618266979 L 155.41531677602524,66.4168618266979 L 155.45413005182039,66.4168618266979 L 156.9637442805189,66.4168618266979 L 157.0023066856487,66.4168618266979 L 158.5115804470157,66.4168618266979 L 158.54976654614748,66.4168618266979 L 160.0543454422059,66.4168618266979 L 160.08964652868625,66.4168618266979 L 160.12044986252366,66.4168618266979 L 161.61072913065757,66.4168618266979 L 161.6464423618024,66.4168618266979 L 163.15652249316514,66.4168618266979 L 163.1944218829651,66.4168618266979 L 163.2351525274168,66.4168618266979 L 164.7067956889824,66.4168618266979 L 164.74831478409658,66.4168618266979 L 166.25402259814908,66.4168618266979 L 166.29826543191552,66.4168618266979 L 167.8058547759581,66.4168618266979 L 167.84930915906207,66.4168618266979 L 169.360679482418,66.4168618266979 L 169.39798753422107,66.4168618266979 L 170.9021005276153,66.4168618266979 L 170.94646879671444,66.4168618266979 L 172.4503130001101,66.4168618266979 L 172.4924413525544,66.4168618266979 L 173.98757675999602,66.4168618266979 L 174.0323392544264,66.4168618266979 L 175.54439051244543,66.4168618266979 L 175.59055071486844,66.4168618266979 L 177.08794395829813,66.4168618266979 L 177.13808225270017,66.4168618266979 L 178.64472187208105,66.4168618266979 L 178.6855241938657,66.4168618266979 L 180.18983429992554,66.4168618266979 L 180.23029615437866,66.4168618266979 L 181.74562665038033,66.4168618266979 L 181.7837231528459,66.4168618266979 L 183.28848124223677,66.4168618266979 L 183.33333333333334,66.4168618266979" stroke="#3b82f6" stroke-width="4" fill="none" opacity="0.4" stroke-dasharray="13600" stroke-dashoffset="13600">
      <animate attributeName="stroke-dashoffset" values="13600;0" dur="3s" begin="3.0999999999999996s" fill="freeze"/>
    </path>
    
    <!-- Animated circle that moves along the path and draws the line -->
    <circle r="5" fill="#3b82f6" opacity="0" filter="url(#trailGlow)">
      <animate attributeName="opacity" values="0;1;1;1" dur="3.2s" begin="2.9s" fill="freeze"/>
      <animate attributeName="r" values="5;6;5" dur="1s" begin="2.9s" repeatCount="3"/>
      <animateMotion dur="3s" begin="2.9s" fill="freeze">
        <mpath href="#path_publicContributions_293.33333333333337"/>
      </animateMotion>
    </circle>
    
    <!-- Small trail dots that fade out -->
    <circle r="2" fill="#3b82f6" opacity="0">
      <animate attributeName="opacity" values="0;0.6;0" dur="0.8s" begin="3.3s" fill="freeze"/>
      <animateMotion dur="3s" begin="2.9s" fill="freeze">
        <mpath href="#path_publicContributions_293.33333333333337"/>
      </animateMotion>
    </circle>
    
    <!-- Hidden path for motion animation -->
    <path id="path_publicContributions_293.33333333333337" d="M 30,160 L 30.02797207918569,160 L 30.058847090356057,160 L 31.549359309822076,160 L 31.569285608383566,160 L 31.618205388125357,160 L 33.094955559664015,160 L 33.12511379750484,160 L 33.15485989068116,160 L 34.64605304481025,160 L 34.680296890629506,160 L 34.71145861113169,160 L 36.19353082464226,160 L 36.223689062483075,160 L 36.258452568966256,160 L 37.73964673514813,160 L 37.76928531232502,160 L 37.796289747515814,160 L 39.29022455963044,160 L 39.320848700135464,160 L 39.352386726635665,160 L 40.84311397810055,160 L 40.87192826594846,160 L 40.90034832846512,160 L 42.38553850595923,160 L 42.416341839796644,40 L 42.44843536562725,40 L 43.939556842423386,40 L 43.96093460697721,40 L 43.99041191015496,40 L 45.48391665827185,40 L 45.507821048812346,40 L 45.550236110588465,40 L 47.033992741423475,40 L 47.06547700992397,40 L 47.09312654111135,40 L 48.57595136661795,40 L 48.610446083102545,40 L 48.64422402625759,40 L 50.133714843729,40 L 50.14898211564842,40 L 50.190357856096696,40 L 51.678845190906735,40 L 51.7114762967345,40 L 51.74833636520661,40 L 53.22720101806744,40 L 53.257950593905136,40 L 53.29735520769715,40 L 54.77304813857472,40 L 54.805750921735445,40 L 54.84390118220074,40 L 56.32986189102412,40 L 56.3662918954985,40 L 57.87214306421689,40 L 57.94874821381255,40 L 59.42062432671027,40 L 59.458702909842614,40 L 59.49484620498518,40 L 60.96847841254029,40 L 61.00859979966185,40 L 61.03621349218277,40 L 62.519988042351024,40 L 62.553568872840444,40 L 62.59127114997477,40 L 64.06277095687449,40 L 64.09633386803065,40 L 64.1340899031647,40 L 65.61336670069002,40 L 65.64635619318257,40 L 65.6817468763291,40 L 67.16706248915588,40 L 67.21040935626041,40 L 68.74953672680317,40 L 68.7905719999199,40 L 70.26701754279352,40 L 70.30084924394828,40 L 71.8192977039335,40 L 71.84811199178142,40 L 71.89556238619762,40 L 73.3556654971575,40 L 73.38863707031679,40 L 73.42393815679713,40 L 74.90575949964236,40 L 74.94475196876988,40 L 74.98388779256331,40 L 76.45124823348486,40 L 76.48285793731802,40 L 76.5212769877819,40 L 77.99822427198619,40 L 78.03415253512989,40 L 78.08111910754864,40 L 79.54167020183948,40 L 79.5825621202903,40 L 79.6221459274147,40 L 81.09705040762978,40 L 81.12995030345613,40 L 81.16750922592453,40 L 82.64524496079133,40 L 82.67853908194894,40 L 82.71692229374634,40 L 84.19146838729662,40 L 84.23006663109291,40 L 84.27165740354005,40 L 85.74125776111643,40 L 85.77198941762089,40 L 85.80902867942538,40 L 87.2908500222706,40 L 87.31842787612506,40 L 87.35609431459291,40 L 88.83520983811908,40 L 88.87056468259914,40 L 88.90961090972638,40 L 90.38449747060821,40 L 90.42202055441015,40 L 90.46192690953285,40 L 91.93688514774763,40 L 91.96403293760434,40 L 92.00286413273271,40 L 93.48382534758247,40 L 93.52039870672277,40 L 93.5530118932173,40 L 95.0273787934352,40 L 95.06085210792519,40 L 95.09939659372174,40 L 96.57292128527742,40 L 96.61352649439642,40 L 96.65067327220036,40 L 98.12459218908731,40 L 98.15523424892557,40 L 98.18963936874397,40 L 99.67896891221623,40 L 99.7163665606855,40 L 99.75845907446333,40 L 101.2259628700508,40 L 101.25936450720782,40 L 101.29276614436485,40 L 102.77069899189728,40 L 102.80779201170148,40 L 102.84427577417559,40 L 104.3123171497602,40 L 104.35259981088092,40 L 104.39094718401185,40 L 105.85931110759476,40 L 105.89957584938224,40 L 105.943764925149,40 L 107.42202032067972,40 L 107.45404216917736,40 L 107.49545374829212,40 L 108.96638013652819,40 L 108.99404758704881,40 L 109.02911572219705,40 L 110.51022029171273,40 L 110.5468294895195,40 L 110.58395834799018,40 L 112.05922121487004,40 L 112.09118930536796,40 L 112.13252920714976,40 L 113.60711113936654,40 L 113.63927634253008,40 L 113.67737284499566,40 L 115.155825353192,40 L 115.18734546035897,40 L 115.22148179017879,40 L 116.70235340836237,66.4168618266979 L 116.73218909820488,66.4168618266979 L 118.24934736619693,66.4168618266979 L 118.28577737067131,66.4168618266979 L 118.32018249048971,66.4168618266979 L 119.79915465934997,66.4168618266979 L 119.82424172588422,66.4168618266979 L 119.86694349699216,66.4168618266979 L 121.35578921846698,66.4168618266979 L 121.39363485026723,66.4168618266979 L 122.89645765166827,66.4168618266979 L 122.93588018479352,66.4168618266979 L 122.98734450985522,66.4168618266979 L 124.4469996374841,66.4168618266979 L 124.48557996194712,66.4168618266979 L 124.50932307848848,66.4168618266979 L 125.99725491396812,66.4168618266979 L 126.0331294191121,66.4168618266979 L 126.07095713157909,66.4168618266979 L 127.54641711112457,66.4168618266979 L 127.5806071989441,66.4168618266979 L 127.61936671673953,66.4168618266979 L 129.09298100496142,66.4168618266979 L 129.12371266146585,66.4168618266979 L 129.1623467439286,66.4168618266979 L 130.64106804212352,66.4168618266979 L 130.67357371261863,66.4168618266979 L 130.70550596445008,66.4168618266979 L 132.1887608539544,66.4168618266979 L 132.2258897124251,66.4168618266979 L 132.2669608242083,66.4168618266979 L 133.7400733710995,66.4168618266979 L 133.7765033755739,66.4168618266979 L 133.8210329186722,66.4168618266979 L 135.2788961129772,66.4168618266979 L 135.31624000344675,66.4168618266979 L 135.35917472588682,66.4168618266979 L 136.83425839943425,66.4168618266979 L 136.86989995324612,66.4168618266979 L 136.90663458638556,66.4168618266979 L 138.38340267725746,66.4168618266979 L 138.4251368043705,66.4168618266979 L 138.46932588013726,66.4168618266979 L 139.9321885684159,66.4168618266979 L 139.96985500688376,66.4168618266979 L 140.0162481606389,66.4168618266979 L 141.47751602825926,66.4168618266979 L 141.51695648071774,66.4168618266979 L 141.55340440452537,66.4168618266979 L 143.03208986405383,66.4168618266979 L 143.06805396586398,66.4168618266979 L 144.58374284853045,66.4168618266979 L 144.61666066369003,66.4168618266979 L 146.12605986038972,66.4168618266979 L 146.16331415419307,66.4168618266979 L 146.20755698795955,66.4168618266979 L 147.672283286895,66.4168618266979 L 147.7193215366467,66.4168618266979 L 149.22381083603898,66.4168618266979 L 149.25581476520338,66.4168618266979 L 149.29799687564739,66.4168618266979 L 150.76860071588516,66.4168618266979 L 150.80752150767972,66.4168618266979 L 150.85178226077943,66.4168618266979 L 152.31256630640237,66.4168618266979 L 152.35014314820404,66.4168618266979 L 152.38196788403604,66.4168618266979 L 153.86602914353614,66.4168618266979 L 153.90928641397446,66.4168618266979 L 155.41531677602524,66.4168618266979 L 155.45413005182039,66.4168618266979 L 156.9637442805189,66.4168618266979 L 157.0023066856487,66.4168618266979 L 158.5115804470157,66.4168618266979 L 158.54976654614748,66.4168618266979 L 160.0543454422059,66.4168618266979 L 160.08964652868625,66.4168618266979 L 160.12044986252366,66.4168618266979 L 161.61072913065757,66.4168618266979 L 161.6464423618024,66.4168618266979 L 163.15652249316514,66.4168618266979 L 163.1944218829651,66.4168618266979 L 163.2351525274168,66.4168618266979 L 164.7067956889824,66.4168618266979 L 164.74831478409658,66.4168618266979 L 166.25402259814908,66.4168618266979 L 166.29826543191552,66.4168618266979 L 167.8058547759581,66.4168618266979 L 167.84930915906207,66.4168618266979 L 169.360679482418,66.4168618266979 L 169.39798753422107,66.4168618266979 L 170.9021005276153,66.4168618266979 L 170.94646879671444,66.4168618266979 L 172.4503130001101,66.4168618266979 L 172.4924413525544,66.4168618266979 L 173.98757675999602,66.4168618266979 L 174.0323392544264,66.4168618266979 L 175.54439051244543,66.4168618266979 L 175.59055071486844,66.4168618266979 L 177.08794395829813,66.4168618266979 L 177.13808225270017,66.4168618266979 L 178.64472187208105,66.4168618266979 L 178.6855241938657,66.4168618266979 L 180.18983429992554,66.4168618266979 L 180.23029615437866,66.4168618266979 L 181.74562665038033,66.4168618266979 L 181.7837231528459,66.4168618266979 L 183.28848124223677,66.4168618266979 L 183.33333333333334,66.4168618266979" fill="none" stroke="none"/>
  </g>
  <!-- 📊 Total Contributions Chart -->
  <g transform="translate(526.6666666666667, 250)">
    <!-- Chart Background -->
    <rect x="0" y="0" width="213.33333333333334" height="200" fill="#ffffff" stroke="#e2e8f0" stroke-width="1" rx="8" filter="url(#shadow)">
      <animate attributeName="opacity" values="0;1" dur="0.5s" begin="2.8s" fill="freeze"/>
    </rect>
    
    <!-- Chart Title -->
    <text x="106.66666666666667" y="25" text-anchor="middle" fill="#1e293b" font-size="14" font-weight="bold" font-family="Arial, sans-serif">
      📊 Total Contributions
      <animate attributeName="opacity" values="0;1" dur="0.5s" begin="3s" fill="freeze"/>
    </text>
    
    <!-- Y-axis labels -->
    <text x="10" y="45" fill="#64748b" font-size="10" font-family="Arial, sans-serif">5,314
      <animate attributeName="opacity" values="0;1" dur="0.5s" begin="3.1999999999999997s" fill="freeze"/>
    </text>
    <text x="10" y="185" fill="#64748b" font-size="10" font-family="Arial, sans-serif">4,917
      <animate attributeName="opacity" values="0;1" dur="0.5s" begin="3.1999999999999997s" fill="freeze"/>
    </text>
    
    <!-- Chart Line with draw animation that follows the circle -->
    <path d="M 30,160 L 30.02797207918569,160 L 30.058847090356057,160 L 31.549359309822076,160 L 31.569285608383566,160 L 31.618205388125357,160 L 33.094955559664015,160 L 33.12511379750484,160 L 33.15485989068116,160 L 34.64605304481025,160 L 34.680296890629506,160 L 34.71145861113169,160 L 36.19353082464226,160 L 36.223689062483075,160 L 36.258452568966256,160 L 37.73964673514813,160 L 37.76928531232502,160 L 37.796289747515814,160 L 39.29022455963044,160 L 39.320848700135464,160 L 39.352386726635665,160 L 40.84311397810055,160 L 40.87192826594846,160 L 40.90034832846512,160 L 42.38553850595923,160 L 42.416341839796644,40 L 42.44843536562725,40 L 43.939556842423386,40 L 43.96093460697721,40 L 43.99041191015496,40 L 45.48391665827185,40 L 45.507821048812346,40 L 45.550236110588465,40 L 47.033992741423475,40 L 47.06547700992397,40 L 47.09312654111135,40 L 48.57595136661795,40 L 48.610446083102545,40 L 48.64422402625759,40 L 50.133714843729,40 L 50.14898211564842,40 L 50.190357856096696,40 L 51.678845190906735,40 L 51.7114762967345,40 L 51.74833636520661,40 L 53.22720101806744,40 L 53.257950593905136,40 L 53.29735520769715,40 L 54.77304813857472,40 L 54.805750921735445,40 L 54.84390118220074,40 L 56.32986189102412,40 L 56.3662918954985,40 L 57.87214306421689,40 L 57.94874821381255,40 L 59.42062432671027,40 L 59.458702909842614,40 L 59.49484620498518,40 L 60.96847841254029,40 L 61.00859979966185,40 L 61.03621349218277,40 L 62.519988042351024,40 L 62.553568872840444,40 L 62.59127114997477,40 L 64.06277095687449,40 L 64.09633386803065,40 L 64.1340899031647,40 L 65.61336670069002,40 L 65.64635619318257,40 L 65.6817468763291,40 L 67.16706248915588,40 L 67.21040935626041,40 L 68.74953672680317,40 L 68.7905719999199,40 L 70.26701754279352,40 L 70.30084924394828,40 L 71.8192977039335,40 L 71.84811199178142,40 L 71.89556238619762,40 L 73.3556654971575,40 L 73.38863707031679,40 L 73.42393815679713,40 L 74.90575949964236,40 L 74.94475196876988,40 L 74.98388779256331,40 L 76.45124823348486,40 L 76.48285793731802,40 L 76.5212769877819,40 L 77.99822427198619,40 L 78.03415253512989,40 L 78.08111910754864,40 L 79.54167020183948,40 L 79.5825621202903,40 L 79.6221459274147,40 L 81.09705040762978,40 L 81.12995030345613,40 L 81.16750922592453,40 L 82.64524496079133,40 L 82.67853908194894,40 L 82.71692229374634,40 L 84.19146838729662,40 L 84.23006663109291,40 L 84.27165740354005,40 L 85.74125776111643,40 L 85.77198941762089,40 L 85.80902867942538,40 L 87.2908500222706,40 L 87.31842787612506,40 L 87.35609431459291,40 L 88.83520983811908,40 L 88.87056468259914,40 L 88.90961090972638,40 L 90.38449747060821,40 L 90.42202055441015,40 L 90.46192690953285,40 L 91.93688514774763,40 L 91.96403293760434,40 L 92.00286413273271,40 L 93.48382534758247,40 L 93.52039870672277,40 L 93.5530118932173,40 L 95.0273787934352,40 L 95.06085210792519,40 L 95.09939659372174,40 L 96.57292128527742,40 L 96.61352649439642,40 L 96.65067327220036,40 L 98.12459218908731,40 L 98.15523424892557,40 L 98.18963936874397,40 L 99.67896891221623,40 L 99.7163665606855,40 L 99.75845907446333,40 L 101.2259628700508,40 L 101.25936450720782,40 L 101.29276614436485,40 L 102.77069899189728,40 L 102.80779201170148,40 L 102.84427577417559,40 L 104.3123171497602,40 L 104.35259981088092,40 L 104.39094718401185,40 L 105.85931110759476,40 L 105.89957584938224,40 L 105.943764925149,40 L 107.42202032067972,40 L 107.45404216917736,40 L 107.49545374829212,40 L 108.96638013652819,40 L 108.99404758704881,40 L 109.02911572219705,40 L 110.51022029171273,40 L 110.5468294895195,40 L 110.58395834799018,40 L 112.05922121487004,40 L 112.09118930536796,40 L 112.13252920714976,40 L 113.60711113936654,40 L 113.63927634253008,40 L 113.67737284499566,40 L 115.155825353192,40 L 115.18734546035897,40 L 115.22148179017879,40 L 116.70235340836237,72.04030226700252 L 116.73218909820488,72.04030226700252 L 118.24934736619693,72.04030226700252 L 118.28577737067131,72.04030226700252 L 118.32018249048971,72.04030226700252 L 119.79915465934997,72.04030226700252 L 119.82424172588422,72.04030226700252 L 119.86694349699216,72.04030226700252 L 121.35578921846698,72.04030226700252 L 121.39363485026723,72.04030226700252 L 122.89645765166827,72.04030226700252 L 122.93588018479352,72.04030226700252 L 122.98734450985522,72.04030226700252 L 124.4469996374841,72.04030226700252 L 124.48557996194712,72.04030226700252 L 124.50932307848848,72.04030226700252 L 125.99725491396812,72.04030226700252 L 126.0331294191121,72.04030226700252 L 126.07095713157909,72.04030226700252 L 127.54641711112457,72.04030226700252 L 127.5806071989441,72.04030226700252 L 127.61936671673953,72.04030226700252 L 129.09298100496142,72.04030226700252 L 129.12371266146585,72.04030226700252 L 129.1623467439286,72.04030226700252 L 130.64106804212352,72.04030226700252 L 130.67357371261863,72.04030226700252 L 130.70550596445008,72.04030226700252 L 132.1887608539544,72.04030226700252 L 132.2258897124251,72.04030226700252 L 132.2669608242083,72.04030226700252 L 133.7400733710995,72.04030226700252 L 133.7765033755739,72.04030226700252 L 133.8210329186722,72.04030226700252 L 135.2788961129772,72.04030226700252 L 135.31624000344675,72.04030226700252 L 135.35917472588682,72.04030226700252 L 136.83425839943425,72.04030226700252 L 136.86989995324612,72.04030226700252 L 136.90663458638556,72.04030226700252 L 138.38340267725746,72.04030226700252 L 138.4251368043705,72.04030226700252 L 138.46932588013726,72.04030226700252 L 139.9321885684159,72.04030226700252 L 139.96985500688376,72.04030226700252 L 140.0162481606389,72.04030226700252 L 141.47751602825926,72.04030226700252 L 141.51695648071774,72.04030226700252 L 141.55340440452537,72.04030226700252 L 143.03208986405383,72.04030226700252 L 143.06805396586398,72.04030226700252 L 144.58374284853045,72.04030226700252 L 144.61666066369003,72.04030226700252 L 146.12605986038972,72.04030226700252 L 146.16331415419307,72.04030226700252 L 146.20755698795955,72.04030226700252 L 147.672283286895,72.04030226700252 L 147.7193215366467,72.04030226700252 L 149.22381083603898,72.04030226700252 L 149.25581476520338,72.04030226700252 L 149.29799687564739,72.04030226700252 L 150.76860071588516,72.04030226700252 L 150.80752150767972,72.04030226700252 L 150.85178226077943,72.04030226700252 L 152.31256630640237,72.04030226700252 L 152.35014314820404,72.04030226700252 L 152.38196788403604,72.04030226700252 L 153.86602914353614,72.04030226700252 L 153.90928641397446,72.04030226700252 L 155.41531677602524,72.04030226700252 L 155.45413005182039,72.04030226700252 L 156.9637442805189,72.04030226700252 L 157.0023066856487,72.04030226700252 L 158.5115804470157,72.04030226700252 L 158.54976654614748,72.04030226700252 L 160.0543454422059,72.04030226700252 L 160.08964652868625,72.04030226700252 L 160.12044986252366,72.04030226700252 L 161.61072913065757,72.04030226700252 L 161.6464423618024,72.04030226700252 L 163.15652249316514,72.04030226700252 L 163.1944218829651,72.04030226700252 L 163.2351525274168,72.04030226700252 L 164.7067956889824,72.04030226700252 L 164.74831478409658,72.04030226700252 L 166.25402259814908,72.04030226700252 L 166.29826543191552,72.04030226700252 L 167.8058547759581,72.04030226700252 L 167.84930915906207,72.04030226700252 L 169.360679482418,72.04030226700252 L 169.39798753422107,72.04030226700252 L 170.9021005276153,72.04030226700252 L 170.94646879671444,72.04030226700252 L 172.4503130001101,72.04030226700252 L 172.4924413525544,72.04030226700252 L 173.98757675999602,72.04030226700252 L 174.0323392544264,72.04030226700252 L 175.54439051244543,72.04030226700252 L 175.59055071486844,72.04030226700252 L 177.08794395829813,72.04030226700252 L 177.13808225270017,72.04030226700252 L 178.64472187208105,72.04030226700252 L 178.6855241938657,72.04030226700252 L 180.18983429992554,72.04030226700252 L 180.23029615437866,72.04030226700252 L 181.74562665038033,72.04030226700252 L 181.7837231528459,72.04030226700252 L 183.28848124223677,72.04030226700252 L 183.33333333333334,72.04030226700252" stroke="#f59e0b" stroke-width="2" fill="none" stroke-dasharray="13600" stroke-dashoffset="13600">
      <animate attributeName="stroke-dashoffset" values="13600;0" dur="3s" begin="3.5999999999999996s" fill="freeze"/>
    </path>
    
    <!-- Glow effect for the line that also follows the circle -->
    <path d="M 30,160 L 30.02797207918569,160 L 30.058847090356057,160 L 31.549359309822076,160 L 31.569285608383566,160 L 31.618205388125357,160 L 33.094955559664015,160 L 33.12511379750484,160 L 33.15485989068116,160 L 34.64605304481025,160 L 34.680296890629506,160 L 34.71145861113169,160 L 36.19353082464226,160 L 36.223689062483075,160 L 36.258452568966256,160 L 37.73964673514813,160 L 37.76928531232502,160 L 37.796289747515814,160 L 39.29022455963044,160 L 39.320848700135464,160 L 39.352386726635665,160 L 40.84311397810055,160 L 40.87192826594846,160 L 40.90034832846512,160 L 42.38553850595923,160 L 42.416341839796644,40 L 42.44843536562725,40 L 43.939556842423386,40 L 43.96093460697721,40 L 43.99041191015496,40 L 45.48391665827185,40 L 45.507821048812346,40 L 45.550236110588465,40 L 47.033992741423475,40 L 47.06547700992397,40 L 47.09312654111135,40 L 48.57595136661795,40 L 48.610446083102545,40 L 48.64422402625759,40 L 50.133714843729,40 L 50.14898211564842,40 L 50.190357856096696,40 L 51.678845190906735,40 L 51.7114762967345,40 L 51.74833636520661,40 L 53.22720101806744,40 L 53.257950593905136,40 L 53.29735520769715,40 L 54.77304813857472,40 L 54.805750921735445,40 L 54.84390118220074,40 L 56.32986189102412,40 L 56.3662918954985,40 L 57.87214306421689,40 L 57.94874821381255,40 L 59.42062432671027,40 L 59.458702909842614,40 L 59.49484620498518,40 L 60.96847841254029,40 L 61.00859979966185,40 L 61.03621349218277,40 L 62.519988042351024,40 L 62.553568872840444,40 L 62.59127114997477,40 L 64.06277095687449,40 L 64.09633386803065,40 L 64.1340899031647,40 L 65.61336670069002,40 L 65.64635619318257,40 L 65.6817468763291,40 L 67.16706248915588,40 L 67.21040935626041,40 L 68.74953672680317,40 L 68.7905719999199,40 L 70.26701754279352,40 L 70.30084924394828,40 L 71.8192977039335,40 L 71.84811199178142,40 L 71.89556238619762,40 L 73.3556654971575,40 L 73.38863707031679,40 L 73.42393815679713,40 L 74.90575949964236,40 L 74.94475196876988,40 L 74.98388779256331,40 L 76.45124823348486,40 L 76.48285793731802,40 L 76.5212769877819,40 L 77.99822427198619,40 L 78.03415253512989,40 L 78.08111910754864,40 L 79.54167020183948,40 L 79.5825621202903,40 L 79.6221459274147,40 L 81.09705040762978,40 L 81.12995030345613,40 L 81.16750922592453,40 L 82.64524496079133,40 L 82.67853908194894,40 L 82.71692229374634,40 L 84.19146838729662,40 L 84.23006663109291,40 L 84.27165740354005,40 L 85.74125776111643,40 L 85.77198941762089,40 L 85.80902867942538,40 L 87.2908500222706,40 L 87.31842787612506,40 L 87.35609431459291,40 L 88.83520983811908,40 L 88.87056468259914,40 L 88.90961090972638,40 L 90.38449747060821,40 L 90.42202055441015,40 L 90.46192690953285,40 L 91.93688514774763,40 L 91.96403293760434,40 L 92.00286413273271,40 L 93.48382534758247,40 L 93.52039870672277,40 L 93.5530118932173,40 L 95.0273787934352,40 L 95.06085210792519,40 L 95.09939659372174,40 L 96.57292128527742,40 L 96.61352649439642,40 L 96.65067327220036,40 L 98.12459218908731,40 L 98.15523424892557,40 L 98.18963936874397,40 L 99.67896891221623,40 L 99.7163665606855,40 L 99.75845907446333,40 L 101.2259628700508,40 L 101.25936450720782,40 L 101.29276614436485,40 L 102.77069899189728,40 L 102.80779201170148,40 L 102.84427577417559,40 L 104.3123171497602,40 L 104.35259981088092,40 L 104.39094718401185,40 L 105.85931110759476,40 L 105.89957584938224,40 L 105.943764925149,40 L 107.42202032067972,40 L 107.45404216917736,40 L 107.49545374829212,40 L 108.96638013652819,40 L 108.99404758704881,40 L 109.02911572219705,40 L 110.51022029171273,40 L 110.5468294895195,40 L 110.58395834799018,40 L 112.05922121487004,40 L 112.09118930536796,40 L 112.13252920714976,40 L 113.60711113936654,40 L 113.63927634253008,40 L 113.67737284499566,40 L 115.155825353192,40 L 115.18734546035897,40 L 115.22148179017879,40 L 116.70235340836237,72.04030226700252 L 116.73218909820488,72.04030226700252 L 118.24934736619693,72.04030226700252 L 118.28577737067131,72.04030226700252 L 118.32018249048971,72.04030226700252 L 119.79915465934997,72.04030226700252 L 119.82424172588422,72.04030226700252 L 119.86694349699216,72.04030226700252 L 121.35578921846698,72.04030226700252 L 121.39363485026723,72.04030226700252 L 122.89645765166827,72.04030226700252 L 122.93588018479352,72.04030226700252 L 122.98734450985522,72.04030226700252 L 124.4469996374841,72.04030226700252 L 124.48557996194712,72.04030226700252 L 124.50932307848848,72.04030226700252 L 125.99725491396812,72.04030226700252 L 126.0331294191121,72.04030226700252 L 126.07095713157909,72.04030226700252 L 127.54641711112457,72.04030226700252 L 127.5806071989441,72.04030226700252 L 127.61936671673953,72.04030226700252 L 129.09298100496142,72.04030226700252 L 129.12371266146585,72.04030226700252 L 129.1623467439286,72.04030226700252 L 130.64106804212352,72.04030226700252 L 130.67357371261863,72.04030226700252 L 130.70550596445008,72.04030226700252 L 132.1887608539544,72.04030226700252 L 132.2258897124251,72.04030226700252 L 132.2669608242083,72.04030226700252 L 133.7400733710995,72.04030226700252 L 133.7765033755739,72.04030226700252 L 133.8210329186722,72.04030226700252 L 135.2788961129772,72.04030226700252 L 135.31624000344675,72.04030226700252 L 135.35917472588682,72.04030226700252 L 136.83425839943425,72.04030226700252 L 136.86989995324612,72.04030226700252 L 136.90663458638556,72.04030226700252 L 138.38340267725746,72.04030226700252 L 138.4251368043705,72.04030226700252 L 138.46932588013726,72.04030226700252 L 139.9321885684159,72.04030226700252 L 139.96985500688376,72.04030226700252 L 140.0162481606389,72.04030226700252 L 141.47751602825926,72.04030226700252 L 141.51695648071774,72.04030226700252 L 141.55340440452537,72.04030226700252 L 143.03208986405383,72.04030226700252 L 143.06805396586398,72.04030226700252 L 144.58374284853045,72.04030226700252 L 144.61666066369003,72.04030226700252 L 146.12605986038972,72.04030226700252 L 146.16331415419307,72.04030226700252 L 146.20755698795955,72.04030226700252 L 147.672283286895,72.04030226700252 L 147.7193215366467,72.04030226700252 L 149.22381083603898,72.04030226700252 L 149.25581476520338,72.04030226700252 L 149.29799687564739,72.04030226700252 L 150.76860071588516,72.04030226700252 L 150.80752150767972,72.04030226700252 L 150.85178226077943,72.04030226700252 L 152.31256630640237,72.04030226700252 L 152.35014314820404,72.04030226700252 L 152.38196788403604,72.04030226700252 L 153.86602914353614,72.04030226700252 L 153.90928641397446,72.04030226700252 L 155.41531677602524,72.04030226700252 L 155.45413005182039,72.04030226700252 L 156.9637442805189,72.04030226700252 L 157.0023066856487,72.04030226700252 L 158.5115804470157,72.04030226700252 L 158.54976654614748,72.04030226700252 L 160.0543454422059,72.04030226700252 L 160.08964652868625,72.04030226700252 L 160.12044986252366,72.04030226700252 L 161.61072913065757,72.04030226700252 L 161.6464423618024,72.04030226700252 L 163.15652249316514,72.04030226700252 L 163.1944218829651,72.04030226700252 L 163.2351525274168,72.04030226700252 L 164.7067956889824,72.04030226700252 L 164.74831478409658,72.04030226700252 L 166.25402259814908,72.04030226700252 L 166.29826543191552,72.04030226700252 L 167.8058547759581,72.04030226700252 L 167.84930915906207,72.04030226700252 L 169.360679482418,72.04030226700252 L 169.39798753422107,72.04030226700252 L 170.9021005276153,72.04030226700252 L 170.94646879671444,72.04030226700252 L 172.4503130001101,72.04030226700252 L 172.4924413525544,72.04030226700252 L 173.98757675999602,72.04030226700252 L 174.0323392544264,72.04030226700252 L 175.54439051244543,72.04030226700252 L 175.59055071486844,72.04030226700252 L 177.08794395829813,72.04030226700252 L 177.13808225270017,72.04030226700252 L 178.64472187208105,72.04030226700252 L 178.6855241938657,72.04030226700252 L 180.18983429992554,72.04030226700252 L 180.23029615437866,72.04030226700252 L 181.74562665038033,72.04030226700252 L 181.7837231528459,72.04030226700252 L 183.28848124223677,72.04030226700252 L 183.33333333333334,72.04030226700252" stroke="#f59e0b" stroke-width="4" fill="none" opacity="0.4" stroke-dasharray="13600" stroke-dashoffset="13600">
      <animate attributeName="stroke-dashoffset" values="13600;0" dur="3s" begin="3.5999999999999996s" fill="freeze"/>
    </path>
    
    <!-- Animated circle that moves along the path and draws the line -->
    <circle r="5" fill="#f59e0b" opacity="0" filter="url(#trailGlow)">
      <animate attributeName="opacity" values="0;1;1;1" dur="3.2s" begin="3.4s" fill="freeze"/>
      <animate attributeName="r" values="5;6;5" dur="1s" begin="3.4s" repeatCount="3"/>
      <animateMotion dur="3s" begin="3.4s" fill="freeze">
        <mpath href="#path_totalContributions_526.6666666666667"/>
      </animateMotion>
    </circle>
    
    <!-- Small trail dots that fade out -->
    <circle r="2" fill="#f59e0b" opacity="0">
      <animate attributeName="opacity" values="0;0.6;0" dur="0.8s" begin="3.8s" fill="freeze"/>
      <animateMotion dur="3s" begin="3.4s" fill="freeze">
        <mpath href="#path_totalContributions_526.6666666666667"/>
      </animateMotion>
    </circle>
    
    <!-- Hidden path for motion animation -->
    <path id="path_totalContributions_526.6666666666667" d="M 30,160 L 30.02797207918569,160 L 30.058847090356057,160 L 31.549359309822076,160 L 31.569285608383566,160 L 31.618205388125357,160 L 33.094955559664015,160 L 33.12511379750484,160 L 33.15485989068116,160 L 34.64605304481025,160 L 34.680296890629506,160 L 34.71145861113169,160 L 36.19353082464226,160 L 36.223689062483075,160 L 36.258452568966256,160 L 37.73964673514813,160 L 37.76928531232502,160 L 37.796289747515814,160 L 39.29022455963044,160 L 39.320848700135464,160 L 39.352386726635665,160 L 40.84311397810055,160 L 40.87192826594846,160 L 40.90034832846512,160 L 42.38553850595923,160 L 42.416341839796644,40 L 42.44843536562725,40 L 43.939556842423386,40 L 43.96093460697721,40 L 43.99041191015496,40 L 45.48391665827185,40 L 45.507821048812346,40 L 45.550236110588465,40 L 47.033992741423475,40 L 47.06547700992397,40 L 47.09312654111135,40 L 48.57595136661795,40 L 48.610446083102545,40 L 48.64422402625759,40 L 50.133714843729,40 L 50.14898211564842,40 L 50.190357856096696,40 L 51.678845190906735,40 L 51.7114762967345,40 L 51.74833636520661,40 L 53.22720101806744,40 L 53.257950593905136,40 L 53.29735520769715,40 L 54.77304813857472,40 L 54.805750921735445,40 L 54.84390118220074,40 L 56.32986189102412,40 L 56.3662918954985,40 L 57.87214306421689,40 L 57.94874821381255,40 L 59.42062432671027,40 L 59.458702909842614,40 L 59.49484620498518,40 L 60.96847841254029,40 L 61.00859979966185,40 L 61.03621349218277,40 L 62.519988042351024,40 L 62.553568872840444,40 L 62.59127114997477,40 L 64.06277095687449,40 L 64.09633386803065,40 L 64.1340899031647,40 L 65.61336670069002,40 L 65.64635619318257,40 L 65.6817468763291,40 L 67.16706248915588,40 L 67.21040935626041,40 L 68.74953672680317,40 L 68.7905719999199,40 L 70.26701754279352,40 L 70.30084924394828,40 L 71.8192977039335,40 L 71.84811199178142,40 L 71.89556238619762,40 L 73.3556654971575,40 L 73.38863707031679,40 L 73.42393815679713,40 L 74.90575949964236,40 L 74.94475196876988,40 L 74.98388779256331,40 L 76.45124823348486,40 L 76.48285793731802,40 L 76.5212769877819,40 L 77.99822427198619,40 L 78.03415253512989,40 L 78.08111910754864,40 L 79.54167020183948,40 L 79.5825621202903,40 L 79.6221459274147,40 L 81.09705040762978,40 L 81.12995030345613,40 L 81.16750922592453,40 L 82.64524496079133,40 L 82.67853908194894,40 L 82.71692229374634,40 L 84.19146838729662,40 L 84.23006663109291,40 L 84.27165740354005,40 L 85.74125776111643,40 L 85.77198941762089,40 L 85.80902867942538,40 L 87.2908500222706,40 L 87.31842787612506,40 L 87.35609431459291,40 L 88.83520983811908,40 L 88.87056468259914,40 L 88.90961090972638,40 L 90.38449747060821,40 L 90.42202055441015,40 L 90.46192690953285,40 L 91.93688514774763,40 L 91.96403293760434,40 L 92.00286413273271,40 L 93.48382534758247,40 L 93.52039870672277,40 L 93.5530118932173,40 L 95.0273787934352,40 L 95.06085210792519,40 L 95.09939659372174,40 L 96.57292128527742,40 L 96.61352649439642,40 L 96.65067327220036,40 L 98.12459218908731,40 L 98.15523424892557,40 L 98.18963936874397,40 L 99.67896891221623,40 L 99.7163665606855,40 L 99.75845907446333,40 L 101.2259628700508,40 L 101.25936450720782,40 L 101.29276614436485,40 L 102.77069899189728,40 L 102.80779201170148,40 L 102.84427577417559,40 L 104.3123171497602,40 L 104.35259981088092,40 L 104.39094718401185,40 L 105.85931110759476,40 L 105.89957584938224,40 L 105.943764925149,40 L 107.42202032067972,40 L 107.45404216917736,40 L 107.49545374829212,40 L 108.96638013652819,40 L 108.99404758704881,40 L 109.02911572219705,40 L 110.51022029171273,40 L 110.5468294895195,40 L 110.58395834799018,40 L 112.05922121487004,40 L 112.09118930536796,40 L 112.13252920714976,40 L 113.60711113936654,40 L 113.63927634253008,40 L 113.67737284499566,40 L 115.155825353192,40 L 115.18734546035897,40 L 115.22148179017879,40 L 116.70235340836237,72.04030226700252 L 116.73218909820488,72.04030226700252 L 118.24934736619693,72.04030226700252 L 118.28577737067131,72.04030226700252 L 118.32018249048971,72.04030226700252 L 119.79915465934997,72.04030226700252 L 119.82424172588422,72.04030226700252 L 119.86694349699216,72.04030226700252 L 121.35578921846698,72.04030226700252 L 121.39363485026723,72.04030226700252 L 122.89645765166827,72.04030226700252 L 122.93588018479352,72.04030226700252 L 122.98734450985522,72.04030226700252 L 124.4469996374841,72.04030226700252 L 124.48557996194712,72.04030226700252 L 124.50932307848848,72.04030226700252 L 125.99725491396812,72.04030226700252 L 126.0331294191121,72.04030226700252 L 126.07095713157909,72.04030226700252 L 127.54641711112457,72.04030226700252 L 127.5806071989441,72.04030226700252 L 127.61936671673953,72.04030226700252 L 129.09298100496142,72.04030226700252 L 129.12371266146585,72.04030226700252 L 129.1623467439286,72.04030226700252 L 130.64106804212352,72.04030226700252 L 130.67357371261863,72.04030226700252 L 130.70550596445008,72.04030226700252 L 132.1887608539544,72.04030226700252 L 132.2258897124251,72.04030226700252 L 132.2669608242083,72.04030226700252 L 133.7400733710995,72.04030226700252 L 133.7765033755739,72.04030226700252 L 133.8210329186722,72.04030226700252 L 135.2788961129772,72.04030226700252 L 135.31624000344675,72.04030226700252 L 135.35917472588682,72.04030226700252 L 136.83425839943425,72.04030226700252 L 136.86989995324612,72.04030226700252 L 136.90663458638556,72.04030226700252 L 138.38340267725746,72.04030226700252 L 138.4251368043705,72.04030226700252 L 138.46932588013726,72.04030226700252 L 139.9321885684159,72.04030226700252 L 139.96985500688376,72.04030226700252 L 140.0162481606389,72.04030226700252 L 141.47751602825926,72.04030226700252 L 141.51695648071774,72.04030226700252 L 141.55340440452537,72.04030226700252 L 143.03208986405383,72.04030226700252 L 143.06805396586398,72.04030226700252 L 144.58374284853045,72.04030226700252 L 144.61666066369003,72.04030226700252 L 146.12605986038972,72.04030226700252 L 146.16331415419307,72.04030226700252 L 146.20755698795955,72.04030226700252 L 147.672283286895,72.04030226700252 L 147.7193215366467,72.04030226700252 L 149.22381083603898,72.04030226700252 L 149.25581476520338,72.04030226700252 L 149.29799687564739,72.04030226700252 L 150.76860071588516,72.04030226700252 L 150.80752150767972,72.04030226700252 L 150.85178226077943,72.04030226700252 L 152.31256630640237,72.04030226700252 L 152.35014314820404,72.04030226700252 L 152.38196788403604,72.04030226700252 L 153.86602914353614,72.04030226700252 L 153.90928641397446,72.04030226700252 L 155.41531677602524,72.04030226700252 L 155.45413005182039,72.04030226700252 L 156.9637442805189,72.04030226700252 L 157.0023066856487,72.04030226700252 L 158.5115804470157,72.04030226700252 L 158.54976654614748,72.04030226700252 L 160.0543454422059,72.04030226700252 L 160.08964652868625,72.04030226700252 L 160.12044986252366,72.04030226700252 L 161.61072913065757,72.04030226700252 L 161.6464423618024,72.04030226700252 L 163.15652249316514,72.04030226700252 L 163.1944218829651,72.04030226700252 L 163.2351525274168,72.04030226700252 L 164.7067956889824,72.04030226700252 L 164.74831478409658,72.04030226700252 L 166.25402259814908,72.04030226700252 L 166.29826543191552,72.04030226700252 L 167.8058547759581,72.04030226700252 L 167.84930915906207,72.04030226700252 L 169.360679482418,72.04030226700252 L 169.39798753422107,72.04030226700252 L 170.9021005276153,72.04030226700252 L 170.94646879671444,72.04030226700252 L 172.4503130001101,72.04030226700252 L 172.4924413525544,72.04030226700252 L 173.98757675999602,72.04030226700252 L 174.0323392544264,72.04030226700252 L 175.54439051244543,72.04030226700252 L 175.59055071486844,72.04030226700252 L 177.08794395829813,72.04030226700252 L 177.13808225270017,72.04030226700252 L 178.64472187208105,72.04030226700252 L 178.6855241938657,72.04030226700252 L 180.18983429992554,72.04030226700252 L 180.23029615437866,72.04030226700252 L 181.74562665038033,72.04030226700252 L 181.7837231528459,72.04030226700252 L 183.28848124223677,72.04030226700252 L 183.33333333333334,72.04030226700252" fill="none" stroke="none"/>
  </g>
  
  <!-- Footer -->
  <text x="400" y="580" text-anchor="middle" fill="#94a3b8" font-size="12" font-family="Arial, sans-serif">
    Generated by GitHub User Rank Tracker • 4/24/2026
    <animate attributeName="opacity" values="0;1" dur="0.5s" begin="5s" fill="freeze"/>
  </text>
</svg>