<svg width="800" height="600" xmlns="http://www.w3.org/2000/svg">
  <defs>
    <linearGradient id="bgGradient" x1="0%" y1="0%" x2="100%" y2="100%">
      <stop offset="0%" style="stop-color:#1e293b;stop-opacity:1" />
      <stop offset="100%" style="stop-color:#0f172a;stop-opacity:1" />
    </linearGradient>
    <filter id="shadow" x="-20%" y="-20%" width="140%" height="140%">
      <feDropShadow dx="2" dy="2" stdDeviation="3" flood-color="#000" flood-opacity="0.3"/>
    </filter>
    <!-- Trail effect filter -->
    <filter id="trailGlow" x="-50%" y="-50%" width="200%" height="200%">
      <feGaussianBlur stdDeviation="3" result="coloredBlur"/>
      <feMerge> 
        <feMergeNode in="coloredBlur"/>
        <feMergeNode in="SourceGraphic"/>
      </feMerge>
    </filter>
  </defs>
  
  <!-- Background -->
  <rect width="800" height="600" fill="url(#bgGradient)" rx="12"/>
  
  <!-- Header -->
  <text x="400" y="40" text-anchor="middle" fill="#f8fafc" font-size="24" font-weight="bold" font-family="Arial, sans-serif">
    GitHub Progress Report
    <animate attributeName="opacity" values="0;1" dur="0.8s" begin="0s" fill="freeze"/>
    <animateTransform attributeName="transform" type="translate" values="0,-20;0,0" dur="0.8s" begin="0s" fill="freeze"/>
  </text>
  
  <!-- User Info -->
  <text x="400" y="70" text-anchor="middle" fill="#cbd5e1" font-size="16" font-family="Arial, sans-serif">
    @maifeeulasad • BANGLADESH • 100 days analyzed
    <animate attributeName="opacity" values="0;1" dur="0.6s" begin="0.3s" fill="freeze"/>
  </text>
  
  <!-- Progress Cards -->
  <!-- Followers Card -->
  <g transform="translate(60, 100)">
    <rect width="206.66666666666666" height="120" fill="#1e293b" stroke="#334155" stroke-width="1" rx="8" filter="url(#shadow)">
      <animate attributeName="opacity" values="0;1" dur="0.6s" begin="0.2s" fill="freeze"/>
      <animateTransform attributeName="transform" type="scale" values="0.8;1" dur="0.6s" begin="0.2s" fill="freeze"/>
    </rect>
    <text x="103.33333333333333" y="25" text-anchor="middle" fill="#94a3b8" font-size="14" font-weight="bold" font-family="Arial, sans-serif">FOLLOWERS
      <animate attributeName="opacity" values="0;1" dur="0.5s" begin="0.4s" fill="freeze"/>
    </text>
    
    <text x="103.33333333333333" y="50" text-anchor="middle" fill="#ef4444" font-size="32" font-weight="bold" font-family="Arial, sans-serif">
      ↘
      <animate attributeName="opacity" values="0;1" dur="0.5s" begin="0.6s" fill="freeze"/>
      <animateTransform attributeName="transform" type="scale" values="0;1.2;1" dur="0.8s" begin="0.6s" fill="freeze"/>
    </text>
    
    <text x="103.33333333333333" y="75" text-anchor="middle" fill="#f8fafc" font-size="18" font-weight="bold" font-family="Arial, sans-serif">
      -14
      <animate attributeName="opacity" values="0;1" dur="0.5s" begin="0.8s" fill="freeze"/>
    </text>
    
    <text x="103.33333333333333" y="95" text-anchor="middle" fill="#94a3b8" font-size="12" font-family="Arial, sans-serif">
      #458 → #472
      <animate attributeName="opacity" values="0;1" dur="0.5s" begin="1s" fill="freeze"/>
    </text>
  </g>
  
  <!-- Public Contributions Card -->
  <g transform="translate(296.66666666666663, 100)">
    <rect width="206.66666666666666" height="120" fill="#1e293b" stroke="#334155" stroke-width="1" rx="8" filter="url(#shadow)">
      <animate attributeName="opacity" values="0;1" dur="0.6s" begin="0.4s" fill="freeze"/>
      <animateTransform attributeName="transform" type="scale" values="0.8;1" dur="0.6s" begin="0.4s" fill="freeze"/>
    </rect>
    <text x="103.33333333333333" y="25" text-anchor="middle" fill="#94a3b8" font-size="14" font-weight="bold" font-family="Arial, sans-serif">PUBLIC
      <animate attributeName="opacity" values="0;1" dur="0.5s" begin="0.6s" fill="freeze"/>
    </text>
    
    <text x="103.33333333333333" y="50" text-anchor="middle" fill="#6b7280" font-size="32" font-weight="bold" font-family="Arial, sans-serif">
      →
      <animate attributeName="opacity" values="0;1" dur="0.5s" begin="0.8s" fill="freeze"/>
      <animateTransform attributeName="transform" type="scale" values="0;1.2;1" dur="0.8s" begin="0.8s" fill="freeze"/>
    </text>
    
    <text x="103.33333333333333" y="75" text-anchor="middle" fill="#f8fafc" font-size="18" font-weight="bold" font-family="Arial, sans-serif">
      0
      <animate attributeName="opacity" values="0;1" dur="0.5s" begin="1s" fill="freeze"/>
    </text>
    
    <text x="103.33333333333333" y="95" text-anchor="middle" fill="#94a3b8" font-size="12" font-family="Arial, sans-serif">
      #6 → #6
      <animate attributeName="opacity" values="0;1" dur="0.5s" begin="1.2s" fill="freeze"/>
    </text>
  </g>
  
  <!-- Total Contributions Card -->
  <g transform="translate(533.3333333333333, 100)">
    <rect width="206.66666666666666" height="120" fill="#1e293b" stroke="#334155" stroke-width="1" rx="8" filter="url(#shadow)">
      <animate attributeName="opacity" values="0;1" dur="0.6s" begin="0.6s" fill="freeze"/>
      <animateTransform attributeName="transform" type="scale" values="0.8;1" dur="0.6s" begin="0.6s" fill="freeze"/>
    </rect>
    <text x="103.33333333333333" y="25" text-anchor="middle" fill="#94a3b8" font-size="14" font-weight="bold" font-family="Arial, sans-serif">TOTAL
      <animate attributeName="opacity" values="0;1" dur="0.5s" begin="0.8s" fill="freeze"/>
    </text>
    
    <text x="103.33333333333333" y="50" text-anchor="middle" fill="#22c55e" font-size="32" font-weight="bold" font-family="Arial, sans-serif">
      ↗
      <animate attributeName="opacity" values="0;1" dur="0.5s" begin="1s" fill="freeze"/>
      <animateTransform attributeName="transform" type="scale" values="0;1.2;1" dur="0.8s" begin="1s" fill="freeze"/>
    </text>
    
    <text x="103.33333333333333" y="75" text-anchor="middle" fill="#f8fafc" font-size="18" font-weight="bold" font-family="Arial, sans-serif">
      +5
      <animate attributeName="opacity" values="0;1" dur="0.5s" begin="1.2s" fill="freeze"/>
    </text>
    
    <text x="103.33333333333333" y="95" text-anchor="middle" fill="#94a3b8" font-size="12" font-family="Arial, sans-serif">
      #18 → #13
      <animate attributeName="opacity" values="0;1" dur="0.5s" begin="1.4s" fill="freeze"/>
    </text>
  </g>
  
  <!-- Timeline Charts (if we have snapshots) -->
  
  <!-- 👥 Followers Count Chart -->
  <g transform="translate(60, 250)">
    <!-- Chart Background -->
    <rect x="0" y="0" width="213.33333333333334" height="200" fill="#0f172a" stroke="#334155" stroke-width="1" rx="8" filter="url(#shadow)">
      <animate attributeName="opacity" values="0;1" dur="0.5s" begin="1.8s" fill="freeze"/>
    </rect>
    
    <!-- Chart Title -->
    <text x="106.66666666666667" y="25" text-anchor="middle" fill="#f8fafc" font-size="14" font-weight="bold" font-family="Arial, sans-serif">
      👥 Followers Count
      <animate attributeName="opacity" values="0;1" dur="0.5s" begin="2s" fill="freeze"/>
    </text>
    
    <!-- Y-axis labels -->
    <text x="10" y="45" fill="#94a3b8" font-size="10" font-family="Arial, sans-serif">153
      <animate attributeName="opacity" values="0;1" dur="0.5s" begin="2.2s" fill="freeze"/>
    </text>
    <text x="10" y="185" fill="#94a3b8" font-size="10" font-family="Arial, sans-serif">149
      <animate attributeName="opacity" values="0;1" dur="0.5s" begin="2.2s" fill="freeze"/>
    </text>
    
    <!-- Chart Line with draw animation that follows the circle -->
    <path d="M 30,160 L 30.027842690434923,160 L 30.046494068004264,160 L 31.551862697568144,160 L 31.579579970478584,160 L 31.60788849743301,160 L 33.096934932025064,160 L 33.12576304586663,160 L 33.1612024549273,160 L 34.65130598008284,160 L 34.68154952027213,160 L 34.70306758411533,160 L 36.1982773941962,160 L 36.222482976421155,160 L 36.25211734577724,160 L 37.74883216615189,160 L 37.803693374718,160 L 39.292560641417936,160 L 39.32223084435245,160 L 39.34957186468945,160 L 40.84225540749147,160 L 40.87033101618614,160 L 40.899642883336426,160 L 42.390893083001515,160 L 42.41952411216175,160 L 42.45173849916432,160 L 43.93818699932068,160 L 43.9683230387747,160 L 43.99928325053245,160 L 45.48886718880085,160 L 45.518429891000096,160 L 45.54661300043004,160 L 47.03900987460467,160 L 47.06027710339892,160 L 47.08971438807369,160 L 48.58157375857196,160 L 48.60893269569817,160 L 48.64064541260282,160 L 50.13028310123886,160 L 50.15748078726216,160 L 50.18741974203485,160 L 51.67843702344019,160 L 51.70420136632656,160 L 51.735967833598835,160 L 53.227665952994215,160 L 53.253430295880584,160 L 53.27731337589973,160 L 54.780979910488504,160 L 54.80292797727279,160 L 54.83487361243718,160 L 56.32427838281347,160 L 56.34954105560191,160 L 56.37795708329161,160 L 57.871554382343426,160 L 57.89380703454431,160 L 57.927454764683816,160 L 59.417970375991224,160 L 59.44409305466183,160 L 59.476146190561494,160 L 60.96426095211454,160 L 60.988627785442404,160 L 61.023296772566965,160 L 62.50816859527271,160 L 62.539648393917595,160 L 62.57197028165544,160 L 64.06162588708068,160 L 64.08676314234465,160 L 64.11625417738705,160 L 65.61171482251687,160 L 65.63885875817255,160 L 65.67184356711121,160 L 67.15710955917962,160 L 67.18882227608424,160 L 67.22386751578226,160 L 68.70818391802243,160 L 68.73229991630134,160 L 68.76385138210307,160 L 70.25725159647355,160 L 70.27966549977734,160 L 70.31128863273594,160 L 71.80185799441098,160 L 71.82658316352307,160 L 71.85754337528081,160 L 73.35044191955339,160 L 73.37851752824807,160 L 74.90092502435223,160 L 74.92672520081703,160 L 74.95118161809094,160 L 76.44963436701912,160 L 76.47935832032127,160 L 76.51314938477447,160 L 77.98780863762954,160 L 78.02405430220475,160 L 78.05496076359486,160 L 79.54216176889811,160 L 79.56156565161436,160 L 79.59834881986589,160 L 81.09067402688368,160 L 81.1181942151128,160 L 81.14870650714025,160 L 82.6409779637904,160 L 82.66697522493652,160 L 82.69449541316564,160 L 84.18488560694857,160 L 84.21455580988308,160 L 84.24397517776863,160 L 85.73198243858641,160 L 85.75918012460971,160 L 85.78985366774009,160 L 87.28506347782096,160 L 87.31564743700525,160 L 87.34863224594392,160 L 88.83561824977664,160 L 88.8587488246489,160 L 88.90986542426977,160 L 90.38434550923273,160 L 90.40787025346765,160 L 90.43743295566689,160 L 91.9271781450382,160 L 91.95480583400258,160 L 91.9840102004176,160 L 93.47448997814658,160 L 93.5010964101259,160 L 93.5318057868347,160 L 95.0235397398085,160 L 95.05150784776791,160 L 95.07709302276216,160 L 96.56940031299074,160 L 96.59706383553353,160 L 96.62612486763486,160 L 98.12430886472485,160 L 98.15345948077224,160 L 98.18393593922127,160 L 99.66646066254027,160 L 99.69577252969056,130 L 99.72617732098274,130 L 101.220742126652,130 L 101.24156143571595,130 L 101.26988787945959,130 L 102.76296559162427,130 L 102.78288906122764,130 L 102.82096223830241,130 L 104.31317994458493,130 L 104.34197222484808,130 L 104.36632114138672,130 L 105.85513465771903,130 L 105.88776113087347,130 L 105.91950968135653,130 L 107.41029404450211,130 L 107.42529039707227,130 L 107.46368607635287,130 L 108.95796421339473,130 L 108.98793900174584,130 L 109.022912574287,130 L 110.50590313412552,130 L 110.53236623179114,130 L 110.56819981021447,130 L 112.0510649525285,130 L 112.08107557445803,130 L 112.1143649688133,130 L 113.60253348073398,130 L 113.62439196357221,130 L 113.65542384248681,130 L 115.14619028884319,130 L 115.17109462584739,130 L 115.2032194289039,130 L 116.69710339658312,130 L 116.72648693089023,130 L 116.75212585625214,130 L 118.24394939317197,130 L 118.27677295100776,130 L 118.29968852440948,130 L 119.79396666145132,130 L 119.82284852566053,130 L 119.85610208643737,130 L 121.34247891943689,130 L 121.37066202886683,130 L 121.40468601157978,130 L 122.88957575107473,130 L 122.91523259322582,130 L 122.94724989554707,130 L 124.43898384852086,130 L 124.46696987326949,130 L 124.49941717853181,130 L 125.98310649314959,130 L 126.02071383370485,130 L 126.04248273259702,130 L 127.53134999929696,130 L 127.56064394965803,130 L 127.5897945657054,130 L 129.0752218088767,130 L 129.10754369661456,130 L 129.13456221474573,130 L 130.21465793558158,130 L 130.62984369198344,130 L 130.66196849503996,130 L 130.6958133098608,130 L 132.17767511197894,130 L 132.20576863746285,130 L 132.23866386245544,130 L 133.72378652021018,130 L 133.74544791836706,130 L 133.78178316688832,130 L 135.27387545564636,130 L 135.30092980735597,130 L 135.33239168921165,130 L 136.82197562748004,130 L 136.8544587663208,130 L 136.88792732856817,130 L 138.36810495250046,130 L 138.39576847504327,130 L 138.43219330751057,130 L 139.92043348658808,130 L 139.94402989797987,130 L 139.97309093008118,130 L 141.4671361488633,130 L 141.50064054468908,130 L 141.5320128425987,130 L 143.01425089729034,130 L 143.04440485353356,130 L 143.0782675851436,130 L 144.56007563689414,130 L 144.5894770879905,130 L 144.62262314803206,130 L 146.11131124683988,130 L 146.13879560149059,130 L 146.16690704376367,130 L 147.65756598938478,130 L 147.68535492945207,130 L 147.7187518245426,130 L 149.19667193303422,130 L 149.23347301807496,130 L 149.26434364588664,130 L 150.75276299285633,130 L 150.77449605817006,130 L 150.81357257544067,130 L 152.30261901003274,130 L 152.33528131676562,130 L 152.36969946884122,130 L 153.8528333629934,130 L 153.88271856739846,130 L 153.91437753393546,130 L 155.3916705548047,130 L 155.42413577685622,130 L 155.4565114149617,130 L 156.94446492541184,130 L 156.9748517999148,130 L 157.00957453740702,130 L 158.49295926660818,130 L 158.5209273745676,130 L 158.5517980023793,130 L 160.04209861221614,130 L 160.06202208181952,130 L 160.11093491636737,130 L 161.58747543208966,130 L 161.6176293883329,130 L 161.64737125842427,130 L 163.13835270625117,130 L 163.17259169043467,130 L 163.20374898687373,130 L 164.6856107889919,130 L 164.71576474523513,130 L 164.75052331630576,130 L 166.23150719575258,130 L 166.26114156510866,130 L 166.28814216645063,130 L 167.78186488302694,130 L 167.81248467578968,130 L 167.8440182248022,130 L 169.3345338361096,130 L 169.36334403316195,130 L 169.39176006085165,130 L 170.87673938429265,130 L 170.9075383449475,40 L 170.9396273144256,40 L 172.43053709509567,40 L 172.45191182462517,40 L 172.48138494287835,40 L 173.9746776565136,40 L 173.99857865332194,40 L 174.04098769338594,40 L 175.52453367369003,40 L 175.5560134723349,40 L 175.58365907808852,40 L 177.06627338535358,40 L 177.10076320458603,40 L 177.13453635225,40 L 178.6238157051018,40 L 178.63908080951015,40 L 178.68045067579988,40 L 180.16872668845585,40 L 180.20135316161026,40 L 180.23820799701866,40 L 181.71686269386794,40 L 181.74760790415516,40 L 181.7870069236316,40 L 183.26249034879044,40 L 183.29518848910172,40 L 183.33333333333334,40" stroke="#22c55e" stroke-width="2" fill="none" stroke-dasharray="14950" stroke-dashoffset="14950">
      <animate attributeName="stroke-dashoffset" values="14950;0" dur="3s" begin="2.6s" fill="freeze"/>
    </path>
    
    <!-- Glow effect for the line that also follows the circle -->
    <path d="M 30,160 L 30.027842690434923,160 L 30.046494068004264,160 L 31.551862697568144,160 L 31.579579970478584,160 L 31.60788849743301,160 L 33.096934932025064,160 L 33.12576304586663,160 L 33.1612024549273,160 L 34.65130598008284,160 L 34.68154952027213,160 L 34.70306758411533,160 L 36.1982773941962,160 L 36.222482976421155,160 L 36.25211734577724,160 L 37.74883216615189,160 L 37.803693374718,160 L 39.292560641417936,160 L 39.32223084435245,160 L 39.34957186468945,160 L 40.84225540749147,160 L 40.87033101618614,160 L 40.899642883336426,160 L 42.390893083001515,160 L 42.41952411216175,160 L 42.45173849916432,160 L 43.93818699932068,160 L 43.9683230387747,160 L 43.99928325053245,160 L 45.48886718880085,160 L 45.518429891000096,160 L 45.54661300043004,160 L 47.03900987460467,160 L 47.06027710339892,160 L 47.08971438807369,160 L 48.58157375857196,160 L 48.60893269569817,160 L 48.64064541260282,160 L 50.13028310123886,160 L 50.15748078726216,160 L 50.18741974203485,160 L 51.67843702344019,160 L 51.70420136632656,160 L 51.735967833598835,160 L 53.227665952994215,160 L 53.253430295880584,160 L 53.27731337589973,160 L 54.780979910488504,160 L 54.80292797727279,160 L 54.83487361243718,160 L 56.32427838281347,160 L 56.34954105560191,160 L 56.37795708329161,160 L 57.871554382343426,160 L 57.89380703454431,160 L 57.927454764683816,160 L 59.417970375991224,160 L 59.44409305466183,160 L 59.476146190561494,160 L 60.96426095211454,160 L 60.988627785442404,160 L 61.023296772566965,160 L 62.50816859527271,160 L 62.539648393917595,160 L 62.57197028165544,160 L 64.06162588708068,160 L 64.08676314234465,160 L 64.11625417738705,160 L 65.61171482251687,160 L 65.63885875817255,160 L 65.67184356711121,160 L 67.15710955917962,160 L 67.18882227608424,160 L 67.22386751578226,160 L 68.70818391802243,160 L 68.73229991630134,160 L 68.76385138210307,160 L 70.25725159647355,160 L 70.27966549977734,160 L 70.31128863273594,160 L 71.80185799441098,160 L 71.82658316352307,160 L 71.85754337528081,160 L 73.35044191955339,160 L 73.37851752824807,160 L 74.90092502435223,160 L 74.92672520081703,160 L 74.95118161809094,160 L 76.44963436701912,160 L 76.47935832032127,160 L 76.51314938477447,160 L 77.98780863762954,160 L 78.02405430220475,160 L 78.05496076359486,160 L 79.54216176889811,160 L 79.56156565161436,160 L 79.59834881986589,160 L 81.09067402688368,160 L 81.1181942151128,160 L 81.14870650714025,160 L 82.6409779637904,160 L 82.66697522493652,160 L 82.69449541316564,160 L 84.18488560694857,160 L 84.21455580988308,160 L 84.24397517776863,160 L 85.73198243858641,160 L 85.75918012460971,160 L 85.78985366774009,160 L 87.28506347782096,160 L 87.31564743700525,160 L 87.34863224594392,160 L 88.83561824977664,160 L 88.8587488246489,160 L 88.90986542426977,160 L 90.38434550923273,160 L 90.40787025346765,160 L 90.43743295566689,160 L 91.9271781450382,160 L 91.95480583400258,160 L 91.9840102004176,160 L 93.47448997814658,160 L 93.5010964101259,160 L 93.5318057868347,160 L 95.0235397398085,160 L 95.05150784776791,160 L 95.07709302276216,160 L 96.56940031299074,160 L 96.59706383553353,160 L 96.62612486763486,160 L 98.12430886472485,160 L 98.15345948077224,160 L 98.18393593922127,160 L 99.66646066254027,160 L 99.69577252969056,130 L 99.72617732098274,130 L 101.220742126652,130 L 101.24156143571595,130 L 101.26988787945959,130 L 102.76296559162427,130 L 102.78288906122764,130 L 102.82096223830241,130 L 104.31317994458493,130 L 104.34197222484808,130 L 104.36632114138672,130 L 105.85513465771903,130 L 105.88776113087347,130 L 105.91950968135653,130 L 107.41029404450211,130 L 107.42529039707227,130 L 107.46368607635287,130 L 108.95796421339473,130 L 108.98793900174584,130 L 109.022912574287,130 L 110.50590313412552,130 L 110.53236623179114,130 L 110.56819981021447,130 L 112.0510649525285,130 L 112.08107557445803,130 L 112.1143649688133,130 L 113.60253348073398,130 L 113.62439196357221,130 L 113.65542384248681,130 L 115.14619028884319,130 L 115.17109462584739,130 L 115.2032194289039,130 L 116.69710339658312,130 L 116.72648693089023,130 L 116.75212585625214,130 L 118.24394939317197,130 L 118.27677295100776,130 L 118.29968852440948,130 L 119.79396666145132,130 L 119.82284852566053,130 L 119.85610208643737,130 L 121.34247891943689,130 L 121.37066202886683,130 L 121.40468601157978,130 L 122.88957575107473,130 L 122.91523259322582,130 L 122.94724989554707,130 L 124.43898384852086,130 L 124.46696987326949,130 L 124.49941717853181,130 L 125.98310649314959,130 L 126.02071383370485,130 L 126.04248273259702,130 L 127.53134999929696,130 L 127.56064394965803,130 L 127.5897945657054,130 L 129.0752218088767,130 L 129.10754369661456,130 L 129.13456221474573,130 L 130.21465793558158,130 L 130.62984369198344,130 L 130.66196849503996,130 L 130.6958133098608,130 L 132.17767511197894,130 L 132.20576863746285,130 L 132.23866386245544,130 L 133.72378652021018,130 L 133.74544791836706,130 L 133.78178316688832,130 L 135.27387545564636,130 L 135.30092980735597,130 L 135.33239168921165,130 L 136.82197562748004,130 L 136.8544587663208,130 L 136.88792732856817,130 L 138.36810495250046,130 L 138.39576847504327,130 L 138.43219330751057,130 L 139.92043348658808,130 L 139.94402989797987,130 L 139.97309093008118,130 L 141.4671361488633,130 L 141.50064054468908,130 L 141.5320128425987,130 L 143.01425089729034,130 L 143.04440485353356,130 L 143.0782675851436,130 L 144.56007563689414,130 L 144.5894770879905,130 L 144.62262314803206,130 L 146.11131124683988,130 L 146.13879560149059,130 L 146.16690704376367,130 L 147.65756598938478,130 L 147.68535492945207,130 L 147.7187518245426,130 L 149.19667193303422,130 L 149.23347301807496,130 L 149.26434364588664,130 L 150.75276299285633,130 L 150.77449605817006,130 L 150.81357257544067,130 L 152.30261901003274,130 L 152.33528131676562,130 L 152.36969946884122,130 L 153.8528333629934,130 L 153.88271856739846,130 L 153.91437753393546,130 L 155.3916705548047,130 L 155.42413577685622,130 L 155.4565114149617,130 L 156.94446492541184,130 L 156.9748517999148,130 L 157.00957453740702,130 L 158.49295926660818,130 L 158.5209273745676,130 L 158.5517980023793,130 L 160.04209861221614,130 L 160.06202208181952,130 L 160.11093491636737,130 L 161.58747543208966,130 L 161.6176293883329,130 L 161.64737125842427,130 L 163.13835270625117,130 L 163.17259169043467,130 L 163.20374898687373,130 L 164.6856107889919,130 L 164.71576474523513,130 L 164.75052331630576,130 L 166.23150719575258,130 L 166.26114156510866,130 L 166.28814216645063,130 L 167.78186488302694,130 L 167.81248467578968,130 L 167.8440182248022,130 L 169.3345338361096,130 L 169.36334403316195,130 L 169.39176006085165,130 L 170.87673938429265,130 L 170.9075383449475,40 L 170.9396273144256,40 L 172.43053709509567,40 L 172.45191182462517,40 L 172.48138494287835,40 L 173.9746776565136,40 L 173.99857865332194,40 L 174.04098769338594,40 L 175.52453367369003,40 L 175.5560134723349,40 L 175.58365907808852,40 L 177.06627338535358,40 L 177.10076320458603,40 L 177.13453635225,40 L 178.6238157051018,40 L 178.63908080951015,40 L 178.68045067579988,40 L 180.16872668845585,40 L 180.20135316161026,40 L 180.23820799701866,40 L 181.71686269386794,40 L 181.74760790415516,40 L 181.7870069236316,40 L 183.26249034879044,40 L 183.29518848910172,40 L 183.33333333333334,40" stroke="#22c55e" stroke-width="4" fill="none" opacity="0.4" stroke-dasharray="14950" stroke-dashoffset="14950">
      <animate attributeName="stroke-dashoffset" values="14950;0" dur="3s" begin="2.6s" fill="freeze"/>
    </path>
    
    <!-- Animated circle that moves along the path and draws the line -->
    <circle r="5" fill="#22c55e" opacity="0" filter="url(#trailGlow)">
      <animate attributeName="opacity" values="0;1;1;1" dur="3.2s" begin="2.4s" fill="freeze"/>
      <animate attributeName="r" values="5;6;5" dur="1s" begin="2.4s" repeatCount="3"/>
      <animateMotion dur="3s" begin="2.4s" fill="freeze">
        <mpath href="#path_followersCount_60"/>
      </animateMotion>
    </circle>
    
    <!-- Small trail dots that fade out -->
    <circle r="2" fill="#22c55e" opacity="0">
      <animate attributeName="opacity" values="0;0.6;0" dur="0.8s" begin="2.8s" fill="freeze"/>
      <animateMotion dur="3s" begin="2.4s" fill="freeze">
        <mpath href="#path_followersCount_60"/>
      </animateMotion>
    </circle>
    
    <!-- Hidden path for motion animation -->
    <path id="path_followersCount_60" d="M 30,160 L 30.027842690434923,160 L 30.046494068004264,160 L 31.551862697568144,160 L 31.579579970478584,160 L 31.60788849743301,160 L 33.096934932025064,160 L 33.12576304586663,160 L 33.1612024549273,160 L 34.65130598008284,160 L 34.68154952027213,160 L 34.70306758411533,160 L 36.1982773941962,160 L 36.222482976421155,160 L 36.25211734577724,160 L 37.74883216615189,160 L 37.803693374718,160 L 39.292560641417936,160 L 39.32223084435245,160 L 39.34957186468945,160 L 40.84225540749147,160 L 40.87033101618614,160 L 40.899642883336426,160 L 42.390893083001515,160 L 42.41952411216175,160 L 42.45173849916432,160 L 43.93818699932068,160 L 43.9683230387747,160 L 43.99928325053245,160 L 45.48886718880085,160 L 45.518429891000096,160 L 45.54661300043004,160 L 47.03900987460467,160 L 47.06027710339892,160 L 47.08971438807369,160 L 48.58157375857196,160 L 48.60893269569817,160 L 48.64064541260282,160 L 50.13028310123886,160 L 50.15748078726216,160 L 50.18741974203485,160 L 51.67843702344019,160 L 51.70420136632656,160 L 51.735967833598835,160 L 53.227665952994215,160 L 53.253430295880584,160 L 53.27731337589973,160 L 54.780979910488504,160 L 54.80292797727279,160 L 54.83487361243718,160 L 56.32427838281347,160 L 56.34954105560191,160 L 56.37795708329161,160 L 57.871554382343426,160 L 57.89380703454431,160 L 57.927454764683816,160 L 59.417970375991224,160 L 59.44409305466183,160 L 59.476146190561494,160 L 60.96426095211454,160 L 60.988627785442404,160 L 61.023296772566965,160 L 62.50816859527271,160 L 62.539648393917595,160 L 62.57197028165544,160 L 64.06162588708068,160 L 64.08676314234465,160 L 64.11625417738705,160 L 65.61171482251687,160 L 65.63885875817255,160 L 65.67184356711121,160 L 67.15710955917962,160 L 67.18882227608424,160 L 67.22386751578226,160 L 68.70818391802243,160 L 68.73229991630134,160 L 68.76385138210307,160 L 70.25725159647355,160 L 70.27966549977734,160 L 70.31128863273594,160 L 71.80185799441098,160 L 71.82658316352307,160 L 71.85754337528081,160 L 73.35044191955339,160 L 73.37851752824807,160 L 74.90092502435223,160 L 74.92672520081703,160 L 74.95118161809094,160 L 76.44963436701912,160 L 76.47935832032127,160 L 76.51314938477447,160 L 77.98780863762954,160 L 78.02405430220475,160 L 78.05496076359486,160 L 79.54216176889811,160 L 79.56156565161436,160 L 79.59834881986589,160 L 81.09067402688368,160 L 81.1181942151128,160 L 81.14870650714025,160 L 82.6409779637904,160 L 82.66697522493652,160 L 82.69449541316564,160 L 84.18488560694857,160 L 84.21455580988308,160 L 84.24397517776863,160 L 85.73198243858641,160 L 85.75918012460971,160 L 85.78985366774009,160 L 87.28506347782096,160 L 87.31564743700525,160 L 87.34863224594392,160 L 88.83561824977664,160 L 88.8587488246489,160 L 88.90986542426977,160 L 90.38434550923273,160 L 90.40787025346765,160 L 90.43743295566689,160 L 91.9271781450382,160 L 91.95480583400258,160 L 91.9840102004176,160 L 93.47448997814658,160 L 93.5010964101259,160 L 93.5318057868347,160 L 95.0235397398085,160 L 95.05150784776791,160 L 95.07709302276216,160 L 96.56940031299074,160 L 96.59706383553353,160 L 96.62612486763486,160 L 98.12430886472485,160 L 98.15345948077224,160 L 98.18393593922127,160 L 99.66646066254027,160 L 99.69577252969056,130 L 99.72617732098274,130 L 101.220742126652,130 L 101.24156143571595,130 L 101.26988787945959,130 L 102.76296559162427,130 L 102.78288906122764,130 L 102.82096223830241,130 L 104.31317994458493,130 L 104.34197222484808,130 L 104.36632114138672,130 L 105.85513465771903,130 L 105.88776113087347,130 L 105.91950968135653,130 L 107.41029404450211,130 L 107.42529039707227,130 L 107.46368607635287,130 L 108.95796421339473,130 L 108.98793900174584,130 L 109.022912574287,130 L 110.50590313412552,130 L 110.53236623179114,130 L 110.56819981021447,130 L 112.0510649525285,130 L 112.08107557445803,130 L 112.1143649688133,130 L 113.60253348073398,130 L 113.62439196357221,130 L 113.65542384248681,130 L 115.14619028884319,130 L 115.17109462584739,130 L 115.2032194289039,130 L 116.69710339658312,130 L 116.72648693089023,130 L 116.75212585625214,130 L 118.24394939317197,130 L 118.27677295100776,130 L 118.29968852440948,130 L 119.79396666145132,130 L 119.82284852566053,130 L 119.85610208643737,130 L 121.34247891943689,130 L 121.37066202886683,130 L 121.40468601157978,130 L 122.88957575107473,130 L 122.91523259322582,130 L 122.94724989554707,130 L 124.43898384852086,130 L 124.46696987326949,130 L 124.49941717853181,130 L 125.98310649314959,130 L 126.02071383370485,130 L 126.04248273259702,130 L 127.53134999929696,130 L 127.56064394965803,130 L 127.5897945657054,130 L 129.0752218088767,130 L 129.10754369661456,130 L 129.13456221474573,130 L 130.21465793558158,130 L 130.62984369198344,130 L 130.66196849503996,130 L 130.6958133098608,130 L 132.17767511197894,130 L 132.20576863746285,130 L 132.23866386245544,130 L 133.72378652021018,130 L 133.74544791836706,130 L 133.78178316688832,130 L 135.27387545564636,130 L 135.30092980735597,130 L 135.33239168921165,130 L 136.82197562748004,130 L 136.8544587663208,130 L 136.88792732856817,130 L 138.36810495250046,130 L 138.39576847504327,130 L 138.43219330751057,130 L 139.92043348658808,130 L 139.94402989797987,130 L 139.97309093008118,130 L 141.4671361488633,130 L 141.50064054468908,130 L 141.5320128425987,130 L 143.01425089729034,130 L 143.04440485353356,130 L 143.0782675851436,130 L 144.56007563689414,130 L 144.5894770879905,130 L 144.62262314803206,130 L 146.11131124683988,130 L 146.13879560149059,130 L 146.16690704376367,130 L 147.65756598938478,130 L 147.68535492945207,130 L 147.7187518245426,130 L 149.19667193303422,130 L 149.23347301807496,130 L 149.26434364588664,130 L 150.75276299285633,130 L 150.77449605817006,130 L 150.81357257544067,130 L 152.30261901003274,130 L 152.33528131676562,130 L 152.36969946884122,130 L 153.8528333629934,130 L 153.88271856739846,130 L 153.91437753393546,130 L 155.3916705548047,130 L 155.42413577685622,130 L 155.4565114149617,130 L 156.94446492541184,130 L 156.9748517999148,130 L 157.00957453740702,130 L 158.49295926660818,130 L 158.5209273745676,130 L 158.5517980023793,130 L 160.04209861221614,130 L 160.06202208181952,130 L 160.11093491636737,130 L 161.58747543208966,130 L 161.6176293883329,130 L 161.64737125842427,130 L 163.13835270625117,130 L 163.17259169043467,130 L 163.20374898687373,130 L 164.6856107889919,130 L 164.71576474523513,130 L 164.75052331630576,130 L 166.23150719575258,130 L 166.26114156510866,130 L 166.28814216645063,130 L 167.78186488302694,130 L 167.81248467578968,130 L 167.8440182248022,130 L 169.3345338361096,130 L 169.36334403316195,130 L 169.39176006085165,130 L 170.87673938429265,130 L 170.9075383449475,40 L 170.9396273144256,40 L 172.43053709509567,40 L 172.45191182462517,40 L 172.48138494287835,40 L 173.9746776565136,40 L 173.99857865332194,40 L 174.04098769338594,40 L 175.52453367369003,40 L 175.5560134723349,40 L 175.58365907808852,40 L 177.06627338535358,40 L 177.10076320458603,40 L 177.13453635225,40 L 178.6238157051018,40 L 178.63908080951015,40 L 178.68045067579988,40 L 180.16872668845585,40 L 180.20135316161026,40 L 180.23820799701866,40 L 181.71686269386794,40 L 181.74760790415516,40 L 181.7870069236316,40 L 183.26249034879044,40 L 183.29518848910172,40 L 183.33333333333334,40" fill="none" stroke="none"/>
  </g>
  <!-- 🔓 Public Contributions Chart -->
  <g transform="translate(293.33333333333337, 250)">
    <!-- Chart Background -->
    <rect x="0" y="0" width="213.33333333333334" height="200" fill="#0f172a" stroke="#334155" stroke-width="1" rx="8" filter="url(#shadow)">
      <animate attributeName="opacity" values="0;1" dur="0.5s" begin="2.3s" fill="freeze"/>
    </rect>
    
    <!-- Chart Title -->
    <text x="106.66666666666667" y="25" text-anchor="middle" fill="#f8fafc" font-size="14" font-weight="bold" font-family="Arial, sans-serif">
      🔓 Public Contributions
      <animate attributeName="opacity" values="0;1" dur="0.5s" begin="2.5s" fill="freeze"/>
    </text>
    
    <!-- Y-axis labels -->
    <text x="10" y="45" fill="#94a3b8" font-size="10" font-family="Arial, sans-serif">3,861
      <animate attributeName="opacity" values="0;1" dur="0.5s" begin="2.6999999999999997s" fill="freeze"/>
    </text>
    <text x="10" y="185" fill="#94a3b8" font-size="10" font-family="Arial, sans-serif">3,180
      <animate attributeName="opacity" values="0;1" dur="0.5s" begin="2.6999999999999997s" fill="freeze"/>
    </text>
    
    <!-- Chart Line with draw animation that follows the circle -->
    <path d="M 30,160 L 30.027842690434923,160 L 30.046494068004264,160 L 31.551862697568144,160 L 31.579579970478584,160 L 31.60788849743301,160 L 33.096934932025064,160 L 33.12576304586663,160 L 33.1612024549273,160 L 34.65130598008284,160 L 34.68154952027213,160 L 34.70306758411533,160 L 36.1982773941962,160 L 36.222482976421155,160 L 36.25211734577724,160 L 37.74883216615189,160 L 37.803693374718,160 L 39.292560641417936,160 L 39.32223084435245,160 L 39.34957186468945,160 L 40.84225540749147,160 L 40.87033101618614,160 L 40.899642883336426,160 L 42.390893083001515,160 L 42.41952411216175,160 L 42.45173849916432,160 L 43.93818699932068,160 L 43.9683230387747,160 L 43.99928325053245,160 L 45.48886718880085,160 L 45.518429891000096,160 L 45.54661300043004,160 L 47.03900987460467,160 L 47.06027710339892,160 L 47.08971438807369,160 L 48.58157375857196,160 L 48.60893269569817,160 L 48.64064541260282,160 L 50.13028310123886,160 L 50.15748078726216,160 L 50.18741974203485,160 L 51.67843702344019,160 L 51.70420136632656,160 L 51.735967833598835,160 L 53.227665952994215,160 L 53.253430295880584,160 L 53.27731337589973,160 L 54.780979910488504,160 L 54.80292797727279,160 L 54.83487361243718,160 L 56.32427838281347,160 L 56.34954105560191,160 L 56.37795708329161,160 L 57.871554382343426,160 L 57.89380703454431,160 L 57.927454764683816,160 L 59.417970375991224,160 L 59.44409305466183,160 L 59.476146190561494,160 L 60.96426095211454,160 L 60.988627785442404,160 L 61.023296772566965,160 L 62.50816859527271,160 L 62.539648393917595,160 L 62.57197028165544,160 L 64.06162588708068,160 L 64.08676314234465,160 L 64.11625417738705,160 L 65.61171482251687,160 L 65.63885875817255,160 L 65.67184356711121,160 L 67.15710955917962,160 L 67.18882227608424,160 L 67.22386751578226,160 L 68.70818391802243,160 L 68.73229991630134,160 L 68.76385138210307,160 L 70.25725159647355,160 L 70.27966549977734,160 L 70.31128863273594,160 L 71.80185799441098,160 L 71.82658316352307,160 L 71.85754337528081,160 L 73.35044191955339,160 L 73.37851752824807,160 L 74.90092502435223,160 L 74.92672520081703,160 L 74.95118161809094,160 L 76.44963436701912,160 L 76.47935832032127,160 L 76.51314938477447,160 L 77.98780863762954,160 L 78.02405430220475,160 L 78.05496076359486,160 L 79.54216176889811,160 L 79.56156565161436,160 L 79.59834881986589,160 L 81.09067402688368,160 L 81.1181942151128,160 L 81.14870650714025,160 L 82.6409779637904,160 L 82.66697522493652,160 L 82.69449541316564,160 L 84.18488560694857,160 L 84.21455580988308,160 L 84.24397517776863,160 L 85.73198243858641,160 L 85.75918012460971,160 L 85.78985366774009,160 L 87.28506347782096,160 L 87.31564743700525,160 L 87.34863224594392,160 L 88.83561824977664,160 L 88.8587488246489,160 L 88.90986542426977,160 L 90.38434550923273,160 L 90.40787025346765,160 L 90.43743295566689,160 L 91.9271781450382,160 L 91.95480583400258,160 L 91.9840102004176,160 L 93.47448997814658,160 L 93.5010964101259,160 L 93.5318057868347,160 L 95.0235397398085,160 L 95.05150784776791,160 L 95.07709302276216,160 L 96.56940031299074,160 L 96.59706383553353,160 L 96.62612486763486,160 L 98.12430886472485,160 L 98.15345948077224,160 L 98.18393593922127,160 L 99.66646066254027,160 L 99.69577252969056,115.24229074889868 L 99.72617732098274,115.24229074889868 L 101.220742126652,115.24229074889868 L 101.24156143571595,115.24229074889868 L 101.26988787945959,115.24229074889868 L 102.76296559162427,115.24229074889868 L 102.78288906122764,115.24229074889868 L 102.82096223830241,115.24229074889868 L 104.31317994458493,115.24229074889868 L 104.34197222484808,115.24229074889868 L 104.36632114138672,115.24229074889868 L 105.85513465771903,115.24229074889868 L 105.88776113087347,115.24229074889868 L 105.91950968135653,115.24229074889868 L 107.41029404450211,115.24229074889868 L 107.42529039707227,115.24229074889868 L 107.46368607635287,115.24229074889868 L 108.95796421339473,115.24229074889868 L 108.98793900174584,115.24229074889868 L 109.022912574287,115.24229074889868 L 110.50590313412552,115.24229074889868 L 110.53236623179114,115.24229074889868 L 110.56819981021447,115.24229074889868 L 112.0510649525285,115.24229074889868 L 112.08107557445803,115.24229074889868 L 112.1143649688133,115.24229074889868 L 113.60253348073398,115.24229074889868 L 113.62439196357221,115.24229074889868 L 113.65542384248681,115.24229074889868 L 115.14619028884319,115.24229074889868 L 115.17109462584739,115.24229074889868 L 115.2032194289039,115.24229074889868 L 116.69710339658312,115.24229074889868 L 116.72648693089023,115.24229074889868 L 116.75212585625214,115.24229074889868 L 118.24394939317197,115.24229074889868 L 118.27677295100776,115.24229074889868 L 118.29968852440948,115.24229074889868 L 119.79396666145132,115.24229074889868 L 119.82284852566053,115.24229074889868 L 119.85610208643737,115.24229074889868 L 121.34247891943689,115.24229074889868 L 121.37066202886683,115.24229074889868 L 121.40468601157978,115.24229074889868 L 122.88957575107473,115.24229074889868 L 122.91523259322582,115.24229074889868 L 122.94724989554707,115.24229074889868 L 124.43898384852086,115.24229074889868 L 124.46696987326949,115.24229074889868 L 124.49941717853181,115.24229074889868 L 125.98310649314959,115.24229074889868 L 126.02071383370485,115.24229074889868 L 126.04248273259702,115.24229074889868 L 127.53134999929696,115.24229074889868 L 127.56064394965803,115.24229074889868 L 127.5897945657054,115.24229074889868 L 129.0752218088767,115.24229074889868 L 129.10754369661456,115.24229074889868 L 129.13456221474573,115.24229074889868 L 130.21465793558158,115.24229074889868 L 130.62984369198344,115.24229074889868 L 130.66196849503996,115.24229074889868 L 130.6958133098608,115.24229074889868 L 132.17767511197894,115.24229074889868 L 132.20576863746285,115.24229074889868 L 132.23866386245544,115.24229074889868 L 133.72378652021018,115.24229074889868 L 133.74544791836706,115.24229074889868 L 133.78178316688832,115.24229074889868 L 135.27387545564636,115.24229074889868 L 135.30092980735597,115.24229074889868 L 135.33239168921165,115.24229074889868 L 136.82197562748004,115.24229074889868 L 136.8544587663208,115.24229074889868 L 136.88792732856817,115.24229074889868 L 138.36810495250046,115.24229074889868 L 138.39576847504327,115.24229074889868 L 138.43219330751057,115.24229074889868 L 139.92043348658808,115.24229074889868 L 139.94402989797987,115.24229074889868 L 139.97309093008118,115.24229074889868 L 141.4671361488633,115.24229074889868 L 141.50064054468908,115.24229074889868 L 141.5320128425987,115.24229074889868 L 143.01425089729034,115.24229074889868 L 143.04440485353356,115.24229074889868 L 143.0782675851436,115.24229074889868 L 144.56007563689414,115.24229074889868 L 144.5894770879905,115.24229074889868 L 144.62262314803206,115.24229074889868 L 146.11131124683988,115.24229074889868 L 146.13879560149059,115.24229074889868 L 146.16690704376367,115.24229074889868 L 147.65756598938478,115.24229074889868 L 147.68535492945207,115.24229074889868 L 147.7187518245426,115.24229074889868 L 149.19667193303422,115.24229074889868 L 149.23347301807496,115.24229074889868 L 149.26434364588664,115.24229074889868 L 150.75276299285633,115.24229074889868 L 150.77449605817006,115.24229074889868 L 150.81357257544067,115.24229074889868 L 152.30261901003274,115.24229074889868 L 152.33528131676562,115.24229074889868 L 152.36969946884122,115.24229074889868 L 153.8528333629934,115.24229074889868 L 153.88271856739846,115.24229074889868 L 153.91437753393546,115.24229074889868 L 155.3916705548047,115.24229074889868 L 155.42413577685622,115.24229074889868 L 155.4565114149617,115.24229074889868 L 156.94446492541184,115.24229074889868 L 156.9748517999148,115.24229074889868 L 157.00957453740702,115.24229074889868 L 158.49295926660818,115.24229074889868 L 158.5209273745676,115.24229074889868 L 158.5517980023793,115.24229074889868 L 160.04209861221614,115.24229074889868 L 160.06202208181952,115.24229074889868 L 160.11093491636737,115.24229074889868 L 161.58747543208966,115.24229074889868 L 161.6176293883329,115.24229074889868 L 161.64737125842427,115.24229074889868 L 163.13835270625117,115.24229074889868 L 163.17259169043467,115.24229074889868 L 163.20374898687373,115.24229074889868 L 164.6856107889919,115.24229074889868 L 164.71576474523513,115.24229074889868 L 164.75052331630576,115.24229074889868 L 166.23150719575258,115.24229074889868 L 166.26114156510866,115.24229074889868 L 166.28814216645063,115.24229074889868 L 167.78186488302694,115.24229074889868 L 167.81248467578968,115.24229074889868 L 167.8440182248022,115.24229074889868 L 169.3345338361096,115.24229074889868 L 169.36334403316195,115.24229074889868 L 169.39176006085165,115.24229074889868 L 170.87673938429265,115.24229074889868 L 170.9075383449475,40 L 170.9396273144256,40 L 172.43053709509567,40 L 172.45191182462517,40 L 172.48138494287835,40 L 173.9746776565136,40 L 173.99857865332194,40 L 174.04098769338594,40 L 175.52453367369003,40 L 175.5560134723349,40 L 175.58365907808852,40 L 177.06627338535358,40 L 177.10076320458603,40 L 177.13453635225,40 L 178.6238157051018,40 L 178.63908080951015,40 L 178.68045067579988,40 L 180.16872668845585,40 L 180.20135316161026,40 L 180.23820799701866,40 L 181.71686269386794,40 L 181.74760790415516,40 L 181.7870069236316,40 L 183.26249034879044,40 L 183.29518848910172,40 L 183.33333333333334,40" stroke="#3b82f6" stroke-width="2" fill="none" stroke-dasharray="14950" stroke-dashoffset="14950">
      <animate attributeName="stroke-dashoffset" values="14950;0" dur="3s" begin="3.0999999999999996s" fill="freeze"/>
    </path>
    
    <!-- Glow effect for the line that also follows the circle -->
    <path d="M 30,160 L 30.027842690434923,160 L 30.046494068004264,160 L 31.551862697568144,160 L 31.579579970478584,160 L 31.60788849743301,160 L 33.096934932025064,160 L 33.12576304586663,160 L 33.1612024549273,160 L 34.65130598008284,160 L 34.68154952027213,160 L 34.70306758411533,160 L 36.1982773941962,160 L 36.222482976421155,160 L 36.25211734577724,160 L 37.74883216615189,160 L 37.803693374718,160 L 39.292560641417936,160 L 39.32223084435245,160 L 39.34957186468945,160 L 40.84225540749147,160 L 40.87033101618614,160 L 40.899642883336426,160 L 42.390893083001515,160 L 42.41952411216175,160 L 42.45173849916432,160 L 43.93818699932068,160 L 43.9683230387747,160 L 43.99928325053245,160 L 45.48886718880085,160 L 45.518429891000096,160 L 45.54661300043004,160 L 47.03900987460467,160 L 47.06027710339892,160 L 47.08971438807369,160 L 48.58157375857196,160 L 48.60893269569817,160 L 48.64064541260282,160 L 50.13028310123886,160 L 50.15748078726216,160 L 50.18741974203485,160 L 51.67843702344019,160 L 51.70420136632656,160 L 51.735967833598835,160 L 53.227665952994215,160 L 53.253430295880584,160 L 53.27731337589973,160 L 54.780979910488504,160 L 54.80292797727279,160 L 54.83487361243718,160 L 56.32427838281347,160 L 56.34954105560191,160 L 56.37795708329161,160 L 57.871554382343426,160 L 57.89380703454431,160 L 57.927454764683816,160 L 59.417970375991224,160 L 59.44409305466183,160 L 59.476146190561494,160 L 60.96426095211454,160 L 60.988627785442404,160 L 61.023296772566965,160 L 62.50816859527271,160 L 62.539648393917595,160 L 62.57197028165544,160 L 64.06162588708068,160 L 64.08676314234465,160 L 64.11625417738705,160 L 65.61171482251687,160 L 65.63885875817255,160 L 65.67184356711121,160 L 67.15710955917962,160 L 67.18882227608424,160 L 67.22386751578226,160 L 68.70818391802243,160 L 68.73229991630134,160 L 68.76385138210307,160 L 70.25725159647355,160 L 70.27966549977734,160 L 70.31128863273594,160 L 71.80185799441098,160 L 71.82658316352307,160 L 71.85754337528081,160 L 73.35044191955339,160 L 73.37851752824807,160 L 74.90092502435223,160 L 74.92672520081703,160 L 74.95118161809094,160 L 76.44963436701912,160 L 76.47935832032127,160 L 76.51314938477447,160 L 77.98780863762954,160 L 78.02405430220475,160 L 78.05496076359486,160 L 79.54216176889811,160 L 79.56156565161436,160 L 79.59834881986589,160 L 81.09067402688368,160 L 81.1181942151128,160 L 81.14870650714025,160 L 82.6409779637904,160 L 82.66697522493652,160 L 82.69449541316564,160 L 84.18488560694857,160 L 84.21455580988308,160 L 84.24397517776863,160 L 85.73198243858641,160 L 85.75918012460971,160 L 85.78985366774009,160 L 87.28506347782096,160 L 87.31564743700525,160 L 87.34863224594392,160 L 88.83561824977664,160 L 88.8587488246489,160 L 88.90986542426977,160 L 90.38434550923273,160 L 90.40787025346765,160 L 90.43743295566689,160 L 91.9271781450382,160 L 91.95480583400258,160 L 91.9840102004176,160 L 93.47448997814658,160 L 93.5010964101259,160 L 93.5318057868347,160 L 95.0235397398085,160 L 95.05150784776791,160 L 95.07709302276216,160 L 96.56940031299074,160 L 96.59706383553353,160 L 96.62612486763486,160 L 98.12430886472485,160 L 98.15345948077224,160 L 98.18393593922127,160 L 99.66646066254027,160 L 99.69577252969056,115.24229074889868 L 99.72617732098274,115.24229074889868 L 101.220742126652,115.24229074889868 L 101.24156143571595,115.24229074889868 L 101.26988787945959,115.24229074889868 L 102.76296559162427,115.24229074889868 L 102.78288906122764,115.24229074889868 L 102.82096223830241,115.24229074889868 L 104.31317994458493,115.24229074889868 L 104.34197222484808,115.24229074889868 L 104.36632114138672,115.24229074889868 L 105.85513465771903,115.24229074889868 L 105.88776113087347,115.24229074889868 L 105.91950968135653,115.24229074889868 L 107.41029404450211,115.24229074889868 L 107.42529039707227,115.24229074889868 L 107.46368607635287,115.24229074889868 L 108.95796421339473,115.24229074889868 L 108.98793900174584,115.24229074889868 L 109.022912574287,115.24229074889868 L 110.50590313412552,115.24229074889868 L 110.53236623179114,115.24229074889868 L 110.56819981021447,115.24229074889868 L 112.0510649525285,115.24229074889868 L 112.08107557445803,115.24229074889868 L 112.1143649688133,115.24229074889868 L 113.60253348073398,115.24229074889868 L 113.62439196357221,115.24229074889868 L 113.65542384248681,115.24229074889868 L 115.14619028884319,115.24229074889868 L 115.17109462584739,115.24229074889868 L 115.2032194289039,115.24229074889868 L 116.69710339658312,115.24229074889868 L 116.72648693089023,115.24229074889868 L 116.75212585625214,115.24229074889868 L 118.24394939317197,115.24229074889868 L 118.27677295100776,115.24229074889868 L 118.29968852440948,115.24229074889868 L 119.79396666145132,115.24229074889868 L 119.82284852566053,115.24229074889868 L 119.85610208643737,115.24229074889868 L 121.34247891943689,115.24229074889868 L 121.37066202886683,115.24229074889868 L 121.40468601157978,115.24229074889868 L 122.88957575107473,115.24229074889868 L 122.91523259322582,115.24229074889868 L 122.94724989554707,115.24229074889868 L 124.43898384852086,115.24229074889868 L 124.46696987326949,115.24229074889868 L 124.49941717853181,115.24229074889868 L 125.98310649314959,115.24229074889868 L 126.02071383370485,115.24229074889868 L 126.04248273259702,115.24229074889868 L 127.53134999929696,115.24229074889868 L 127.56064394965803,115.24229074889868 L 127.5897945657054,115.24229074889868 L 129.0752218088767,115.24229074889868 L 129.10754369661456,115.24229074889868 L 129.13456221474573,115.24229074889868 L 130.21465793558158,115.24229074889868 L 130.62984369198344,115.24229074889868 L 130.66196849503996,115.24229074889868 L 130.6958133098608,115.24229074889868 L 132.17767511197894,115.24229074889868 L 132.20576863746285,115.24229074889868 L 132.23866386245544,115.24229074889868 L 133.72378652021018,115.24229074889868 L 133.74544791836706,115.24229074889868 L 133.78178316688832,115.24229074889868 L 135.27387545564636,115.24229074889868 L 135.30092980735597,115.24229074889868 L 135.33239168921165,115.24229074889868 L 136.82197562748004,115.24229074889868 L 136.8544587663208,115.24229074889868 L 136.88792732856817,115.24229074889868 L 138.36810495250046,115.24229074889868 L 138.39576847504327,115.24229074889868 L 138.43219330751057,115.24229074889868 L 139.92043348658808,115.24229074889868 L 139.94402989797987,115.24229074889868 L 139.97309093008118,115.24229074889868 L 141.4671361488633,115.24229074889868 L 141.50064054468908,115.24229074889868 L 141.5320128425987,115.24229074889868 L 143.01425089729034,115.24229074889868 L 143.04440485353356,115.24229074889868 L 143.0782675851436,115.24229074889868 L 144.56007563689414,115.24229074889868 L 144.5894770879905,115.24229074889868 L 144.62262314803206,115.24229074889868 L 146.11131124683988,115.24229074889868 L 146.13879560149059,115.24229074889868 L 146.16690704376367,115.24229074889868 L 147.65756598938478,115.24229074889868 L 147.68535492945207,115.24229074889868 L 147.7187518245426,115.24229074889868 L 149.19667193303422,115.24229074889868 L 149.23347301807496,115.24229074889868 L 149.26434364588664,115.24229074889868 L 150.75276299285633,115.24229074889868 L 150.77449605817006,115.24229074889868 L 150.81357257544067,115.24229074889868 L 152.30261901003274,115.24229074889868 L 152.33528131676562,115.24229074889868 L 152.36969946884122,115.24229074889868 L 153.8528333629934,115.24229074889868 L 153.88271856739846,115.24229074889868 L 153.91437753393546,115.24229074889868 L 155.3916705548047,115.24229074889868 L 155.42413577685622,115.24229074889868 L 155.4565114149617,115.24229074889868 L 156.94446492541184,115.24229074889868 L 156.9748517999148,115.24229074889868 L 157.00957453740702,115.24229074889868 L 158.49295926660818,115.24229074889868 L 158.5209273745676,115.24229074889868 L 158.5517980023793,115.24229074889868 L 160.04209861221614,115.24229074889868 L 160.06202208181952,115.24229074889868 L 160.11093491636737,115.24229074889868 L 161.58747543208966,115.24229074889868 L 161.6176293883329,115.24229074889868 L 161.64737125842427,115.24229074889868 L 163.13835270625117,115.24229074889868 L 163.17259169043467,115.24229074889868 L 163.20374898687373,115.24229074889868 L 164.6856107889919,115.24229074889868 L 164.71576474523513,115.24229074889868 L 164.75052331630576,115.24229074889868 L 166.23150719575258,115.24229074889868 L 166.26114156510866,115.24229074889868 L 166.28814216645063,115.24229074889868 L 167.78186488302694,115.24229074889868 L 167.81248467578968,115.24229074889868 L 167.8440182248022,115.24229074889868 L 169.3345338361096,115.24229074889868 L 169.36334403316195,115.24229074889868 L 169.39176006085165,115.24229074889868 L 170.87673938429265,115.24229074889868 L 170.9075383449475,40 L 170.9396273144256,40 L 172.43053709509567,40 L 172.45191182462517,40 L 172.48138494287835,40 L 173.9746776565136,40 L 173.99857865332194,40 L 174.04098769338594,40 L 175.52453367369003,40 L 175.5560134723349,40 L 175.58365907808852,40 L 177.06627338535358,40 L 177.10076320458603,40 L 177.13453635225,40 L 178.6238157051018,40 L 178.63908080951015,40 L 178.68045067579988,40 L 180.16872668845585,40 L 180.20135316161026,40 L 180.23820799701866,40 L 181.71686269386794,40 L 181.74760790415516,40 L 181.7870069236316,40 L 183.26249034879044,40 L 183.29518848910172,40 L 183.33333333333334,40" stroke="#3b82f6" stroke-width="4" fill="none" opacity="0.4" stroke-dasharray="14950" stroke-dashoffset="14950">
      <animate attributeName="stroke-dashoffset" values="14950;0" dur="3s" begin="3.0999999999999996s" fill="freeze"/>
    </path>
    
    <!-- Animated circle that moves along the path and draws the line -->
    <circle r="5" fill="#3b82f6" opacity="0" filter="url(#trailGlow)">
      <animate attributeName="opacity" values="0;1;1;1" dur="3.2s" begin="2.9s" fill="freeze"/>
      <animate attributeName="r" values="5;6;5" dur="1s" begin="2.9s" repeatCount="3"/>
      <animateMotion dur="3s" begin="2.9s" fill="freeze">
        <mpath href="#path_publicContributions_293.33333333333337"/>
      </animateMotion>
    </circle>
    
    <!-- Small trail dots that fade out -->
    <circle r="2" fill="#3b82f6" opacity="0">
      <animate attributeName="opacity" values="0;0.6;0" dur="0.8s" begin="3.3s" fill="freeze"/>
      <animateMotion dur="3s" begin="2.9s" fill="freeze">
        <mpath href="#path_publicContributions_293.33333333333337"/>
      </animateMotion>
    </circle>
    
    <!-- Hidden path for motion animation -->
    <path id="path_publicContributions_293.33333333333337" d="M 30,160 L 30.027842690434923,160 L 30.046494068004264,160 L 31.551862697568144,160 L 31.579579970478584,160 L 31.60788849743301,160 L 33.096934932025064,160 L 33.12576304586663,160 L 33.1612024549273,160 L 34.65130598008284,160 L 34.68154952027213,160 L 34.70306758411533,160 L 36.1982773941962,160 L 36.222482976421155,160 L 36.25211734577724,160 L 37.74883216615189,160 L 37.803693374718,160 L 39.292560641417936,160 L 39.32223084435245,160 L 39.34957186468945,160 L 40.84225540749147,160 L 40.87033101618614,160 L 40.899642883336426,160 L 42.390893083001515,160 L 42.41952411216175,160 L 42.45173849916432,160 L 43.93818699932068,160 L 43.9683230387747,160 L 43.99928325053245,160 L 45.48886718880085,160 L 45.518429891000096,160 L 45.54661300043004,160 L 47.03900987460467,160 L 47.06027710339892,160 L 47.08971438807369,160 L 48.58157375857196,160 L 48.60893269569817,160 L 48.64064541260282,160 L 50.13028310123886,160 L 50.15748078726216,160 L 50.18741974203485,160 L 51.67843702344019,160 L 51.70420136632656,160 L 51.735967833598835,160 L 53.227665952994215,160 L 53.253430295880584,160 L 53.27731337589973,160 L 54.780979910488504,160 L 54.80292797727279,160 L 54.83487361243718,160 L 56.32427838281347,160 L 56.34954105560191,160 L 56.37795708329161,160 L 57.871554382343426,160 L 57.89380703454431,160 L 57.927454764683816,160 L 59.417970375991224,160 L 59.44409305466183,160 L 59.476146190561494,160 L 60.96426095211454,160 L 60.988627785442404,160 L 61.023296772566965,160 L 62.50816859527271,160 L 62.539648393917595,160 L 62.57197028165544,160 L 64.06162588708068,160 L 64.08676314234465,160 L 64.11625417738705,160 L 65.61171482251687,160 L 65.63885875817255,160 L 65.67184356711121,160 L 67.15710955917962,160 L 67.18882227608424,160 L 67.22386751578226,160 L 68.70818391802243,160 L 68.73229991630134,160 L 68.76385138210307,160 L 70.25725159647355,160 L 70.27966549977734,160 L 70.31128863273594,160 L 71.80185799441098,160 L 71.82658316352307,160 L 71.85754337528081,160 L 73.35044191955339,160 L 73.37851752824807,160 L 74.90092502435223,160 L 74.92672520081703,160 L 74.95118161809094,160 L 76.44963436701912,160 L 76.47935832032127,160 L 76.51314938477447,160 L 77.98780863762954,160 L 78.02405430220475,160 L 78.05496076359486,160 L 79.54216176889811,160 L 79.56156565161436,160 L 79.59834881986589,160 L 81.09067402688368,160 L 81.1181942151128,160 L 81.14870650714025,160 L 82.6409779637904,160 L 82.66697522493652,160 L 82.69449541316564,160 L 84.18488560694857,160 L 84.21455580988308,160 L 84.24397517776863,160 L 85.73198243858641,160 L 85.75918012460971,160 L 85.78985366774009,160 L 87.28506347782096,160 L 87.31564743700525,160 L 87.34863224594392,160 L 88.83561824977664,160 L 88.8587488246489,160 L 88.90986542426977,160 L 90.38434550923273,160 L 90.40787025346765,160 L 90.43743295566689,160 L 91.9271781450382,160 L 91.95480583400258,160 L 91.9840102004176,160 L 93.47448997814658,160 L 93.5010964101259,160 L 93.5318057868347,160 L 95.0235397398085,160 L 95.05150784776791,160 L 95.07709302276216,160 L 96.56940031299074,160 L 96.59706383553353,160 L 96.62612486763486,160 L 98.12430886472485,160 L 98.15345948077224,160 L 98.18393593922127,160 L 99.66646066254027,160 L 99.69577252969056,115.24229074889868 L 99.72617732098274,115.24229074889868 L 101.220742126652,115.24229074889868 L 101.24156143571595,115.24229074889868 L 101.26988787945959,115.24229074889868 L 102.76296559162427,115.24229074889868 L 102.78288906122764,115.24229074889868 L 102.82096223830241,115.24229074889868 L 104.31317994458493,115.24229074889868 L 104.34197222484808,115.24229074889868 L 104.36632114138672,115.24229074889868 L 105.85513465771903,115.24229074889868 L 105.88776113087347,115.24229074889868 L 105.91950968135653,115.24229074889868 L 107.41029404450211,115.24229074889868 L 107.42529039707227,115.24229074889868 L 107.46368607635287,115.24229074889868 L 108.95796421339473,115.24229074889868 L 108.98793900174584,115.24229074889868 L 109.022912574287,115.24229074889868 L 110.50590313412552,115.24229074889868 L 110.53236623179114,115.24229074889868 L 110.56819981021447,115.24229074889868 L 112.0510649525285,115.24229074889868 L 112.08107557445803,115.24229074889868 L 112.1143649688133,115.24229074889868 L 113.60253348073398,115.24229074889868 L 113.62439196357221,115.24229074889868 L 113.65542384248681,115.24229074889868 L 115.14619028884319,115.24229074889868 L 115.17109462584739,115.24229074889868 L 115.2032194289039,115.24229074889868 L 116.69710339658312,115.24229074889868 L 116.72648693089023,115.24229074889868 L 116.75212585625214,115.24229074889868 L 118.24394939317197,115.24229074889868 L 118.27677295100776,115.24229074889868 L 118.29968852440948,115.24229074889868 L 119.79396666145132,115.24229074889868 L 119.82284852566053,115.24229074889868 L 119.85610208643737,115.24229074889868 L 121.34247891943689,115.24229074889868 L 121.37066202886683,115.24229074889868 L 121.40468601157978,115.24229074889868 L 122.88957575107473,115.24229074889868 L 122.91523259322582,115.24229074889868 L 122.94724989554707,115.24229074889868 L 124.43898384852086,115.24229074889868 L 124.46696987326949,115.24229074889868 L 124.49941717853181,115.24229074889868 L 125.98310649314959,115.24229074889868 L 126.02071383370485,115.24229074889868 L 126.04248273259702,115.24229074889868 L 127.53134999929696,115.24229074889868 L 127.56064394965803,115.24229074889868 L 127.5897945657054,115.24229074889868 L 129.0752218088767,115.24229074889868 L 129.10754369661456,115.24229074889868 L 129.13456221474573,115.24229074889868 L 130.21465793558158,115.24229074889868 L 130.62984369198344,115.24229074889868 L 130.66196849503996,115.24229074889868 L 130.6958133098608,115.24229074889868 L 132.17767511197894,115.24229074889868 L 132.20576863746285,115.24229074889868 L 132.23866386245544,115.24229074889868 L 133.72378652021018,115.24229074889868 L 133.74544791836706,115.24229074889868 L 133.78178316688832,115.24229074889868 L 135.27387545564636,115.24229074889868 L 135.30092980735597,115.24229074889868 L 135.33239168921165,115.24229074889868 L 136.82197562748004,115.24229074889868 L 136.8544587663208,115.24229074889868 L 136.88792732856817,115.24229074889868 L 138.36810495250046,115.24229074889868 L 138.39576847504327,115.24229074889868 L 138.43219330751057,115.24229074889868 L 139.92043348658808,115.24229074889868 L 139.94402989797987,115.24229074889868 L 139.97309093008118,115.24229074889868 L 141.4671361488633,115.24229074889868 L 141.50064054468908,115.24229074889868 L 141.5320128425987,115.24229074889868 L 143.01425089729034,115.24229074889868 L 143.04440485353356,115.24229074889868 L 143.0782675851436,115.24229074889868 L 144.56007563689414,115.24229074889868 L 144.5894770879905,115.24229074889868 L 144.62262314803206,115.24229074889868 L 146.11131124683988,115.24229074889868 L 146.13879560149059,115.24229074889868 L 146.16690704376367,115.24229074889868 L 147.65756598938478,115.24229074889868 L 147.68535492945207,115.24229074889868 L 147.7187518245426,115.24229074889868 L 149.19667193303422,115.24229074889868 L 149.23347301807496,115.24229074889868 L 149.26434364588664,115.24229074889868 L 150.75276299285633,115.24229074889868 L 150.77449605817006,115.24229074889868 L 150.81357257544067,115.24229074889868 L 152.30261901003274,115.24229074889868 L 152.33528131676562,115.24229074889868 L 152.36969946884122,115.24229074889868 L 153.8528333629934,115.24229074889868 L 153.88271856739846,115.24229074889868 L 153.91437753393546,115.24229074889868 L 155.3916705548047,115.24229074889868 L 155.42413577685622,115.24229074889868 L 155.4565114149617,115.24229074889868 L 156.94446492541184,115.24229074889868 L 156.9748517999148,115.24229074889868 L 157.00957453740702,115.24229074889868 L 158.49295926660818,115.24229074889868 L 158.5209273745676,115.24229074889868 L 158.5517980023793,115.24229074889868 L 160.04209861221614,115.24229074889868 L 160.06202208181952,115.24229074889868 L 160.11093491636737,115.24229074889868 L 161.58747543208966,115.24229074889868 L 161.6176293883329,115.24229074889868 L 161.64737125842427,115.24229074889868 L 163.13835270625117,115.24229074889868 L 163.17259169043467,115.24229074889868 L 163.20374898687373,115.24229074889868 L 164.6856107889919,115.24229074889868 L 164.71576474523513,115.24229074889868 L 164.75052331630576,115.24229074889868 L 166.23150719575258,115.24229074889868 L 166.26114156510866,115.24229074889868 L 166.28814216645063,115.24229074889868 L 167.78186488302694,115.24229074889868 L 167.81248467578968,115.24229074889868 L 167.8440182248022,115.24229074889868 L 169.3345338361096,115.24229074889868 L 169.36334403316195,115.24229074889868 L 169.39176006085165,115.24229074889868 L 170.87673938429265,115.24229074889868 L 170.9075383449475,40 L 170.9396273144256,40 L 172.43053709509567,40 L 172.45191182462517,40 L 172.48138494287835,40 L 173.9746776565136,40 L 173.99857865332194,40 L 174.04098769338594,40 L 175.52453367369003,40 L 175.5560134723349,40 L 175.58365907808852,40 L 177.06627338535358,40 L 177.10076320458603,40 L 177.13453635225,40 L 178.6238157051018,40 L 178.63908080951015,40 L 178.68045067579988,40 L 180.16872668845585,40 L 180.20135316161026,40 L 180.23820799701866,40 L 181.71686269386794,40 L 181.74760790415516,40 L 181.7870069236316,40 L 183.26249034879044,40 L 183.29518848910172,40 L 183.33333333333334,40" fill="none" stroke="none"/>
  </g>
  <!-- 📊 Total Contributions Chart -->
  <g transform="translate(526.6666666666667, 250)">
    <!-- Chart Background -->
    <rect x="0" y="0" width="213.33333333333334" height="200" fill="#0f172a" stroke="#334155" stroke-width="1" rx="8" filter="url(#shadow)">
      <animate attributeName="opacity" values="0;1" dur="0.5s" begin="2.8s" fill="freeze"/>
    </rect>
    
    <!-- Chart Title -->
    <text x="106.66666666666667" y="25" text-anchor="middle" fill="#f8fafc" font-size="14" font-weight="bold" font-family="Arial, sans-serif">
      📊 Total Contributions
      <animate attributeName="opacity" values="0;1" dur="0.5s" begin="3s" fill="freeze"/>
    </text>
    
    <!-- Y-axis labels -->
    <text x="10" y="45" fill="#94a3b8" font-size="10" font-family="Arial, sans-serif">5,314
      <animate attributeName="opacity" values="0;1" dur="0.5s" begin="3.1999999999999997s" fill="freeze"/>
    </text>
    <text x="10" y="185" fill="#94a3b8" font-size="10" font-family="Arial, sans-serif">4,408
      <animate attributeName="opacity" values="0;1" dur="0.5s" begin="3.1999999999999997s" fill="freeze"/>
    </text>
    
    <!-- Chart Line with draw animation that follows the circle -->
    <path d="M 30,160 L 30.027842690434923,160 L 30.046494068004264,160 L 31.551862697568144,160 L 31.579579970478584,160 L 31.60788849743301,160 L 33.096934932025064,160 L 33.12576304586663,160 L 33.1612024549273,160 L 34.65130598008284,160 L 34.68154952027213,160 L 34.70306758411533,160 L 36.1982773941962,160 L 36.222482976421155,160 L 36.25211734577724,160 L 37.74883216615189,160 L 37.803693374718,160 L 39.292560641417936,160 L 39.32223084435245,160 L 39.34957186468945,160 L 40.84225540749147,160 L 40.87033101618614,160 L 40.899642883336426,160 L 42.390893083001515,160 L 42.41952411216175,160 L 42.45173849916432,160 L 43.93818699932068,160 L 43.9683230387747,160 L 43.99928325053245,160 L 45.48886718880085,160 L 45.518429891000096,160 L 45.54661300043004,160 L 47.03900987460467,160 L 47.06027710339892,160 L 47.08971438807369,160 L 48.58157375857196,160 L 48.60893269569817,160 L 48.64064541260282,160 L 50.13028310123886,160 L 50.15748078726216,160 L 50.18741974203485,160 L 51.67843702344019,160 L 51.70420136632656,160 L 51.735967833598835,160 L 53.227665952994215,160 L 53.253430295880584,160 L 53.27731337589973,160 L 54.780979910488504,160 L 54.80292797727279,160 L 54.83487361243718,160 L 56.32427838281347,160 L 56.34954105560191,160 L 56.37795708329161,160 L 57.871554382343426,160 L 57.89380703454431,160 L 57.927454764683816,160 L 59.417970375991224,160 L 59.44409305466183,160 L 59.476146190561494,160 L 60.96426095211454,160 L 60.988627785442404,160 L 61.023296772566965,160 L 62.50816859527271,160 L 62.539648393917595,160 L 62.57197028165544,160 L 64.06162588708068,160 L 64.08676314234465,160 L 64.11625417738705,160 L 65.61171482251687,160 L 65.63885875817255,160 L 65.67184356711121,160 L 67.15710955917962,160 L 67.18882227608424,160 L 67.22386751578226,160 L 68.70818391802243,160 L 68.73229991630134,160 L 68.76385138210307,160 L 70.25725159647355,160 L 70.27966549977734,160 L 70.31128863273594,160 L 71.80185799441098,160 L 71.82658316352307,160 L 71.85754337528081,160 L 73.35044191955339,160 L 73.37851752824807,160 L 74.90092502435223,160 L 74.92672520081703,160 L 74.95118161809094,160 L 76.44963436701912,160 L 76.47935832032127,160 L 76.51314938477447,160 L 77.98780863762954,160 L 78.02405430220475,160 L 78.05496076359486,160 L 79.54216176889811,160 L 79.56156565161436,160 L 79.59834881986589,160 L 81.09067402688368,160 L 81.1181942151128,160 L 81.14870650714025,160 L 82.6409779637904,160 L 82.66697522493652,160 L 82.69449541316564,160 L 84.18488560694857,160 L 84.21455580988308,160 L 84.24397517776863,160 L 85.73198243858641,160 L 85.75918012460971,160 L 85.78985366774009,160 L 87.28506347782096,160 L 87.31564743700525,160 L 87.34863224594392,160 L 88.83561824977664,160 L 88.8587488246489,160 L 88.90986542426977,160 L 90.38434550923273,160 L 90.40787025346765,160 L 90.43743295566689,160 L 91.9271781450382,160 L 91.95480583400258,160 L 91.9840102004176,160 L 93.47448997814658,160 L 93.5010964101259,160 L 93.5318057868347,160 L 95.0235397398085,160 L 95.05150784776791,160 L 95.07709302276216,160 L 96.56940031299074,160 L 96.59706383553353,160 L 96.62612486763486,160 L 98.12430886472485,160 L 98.15345948077224,160 L 98.18393593922127,160 L 99.66646066254027,160 L 99.69577252969056,92.58278145695365 L 99.72617732098274,92.58278145695365 L 101.220742126652,92.58278145695365 L 101.24156143571595,92.58278145695365 L 101.26988787945959,92.58278145695365 L 102.76296559162427,92.58278145695365 L 102.78288906122764,92.58278145695365 L 102.82096223830241,92.58278145695365 L 104.31317994458493,92.58278145695365 L 104.34197222484808,92.58278145695365 L 104.36632114138672,92.58278145695365 L 105.85513465771903,92.58278145695365 L 105.88776113087347,92.58278145695365 L 105.91950968135653,92.58278145695365 L 107.41029404450211,92.58278145695365 L 107.42529039707227,92.58278145695365 L 107.46368607635287,92.58278145695365 L 108.95796421339473,92.58278145695365 L 108.98793900174584,92.58278145695365 L 109.022912574287,92.58278145695365 L 110.50590313412552,92.58278145695365 L 110.53236623179114,92.58278145695365 L 110.56819981021447,92.58278145695365 L 112.0510649525285,92.58278145695365 L 112.08107557445803,92.58278145695365 L 112.1143649688133,92.58278145695365 L 113.60253348073398,92.58278145695365 L 113.62439196357221,92.58278145695365 L 113.65542384248681,92.58278145695365 L 115.14619028884319,92.58278145695365 L 115.17109462584739,92.58278145695365 L 115.2032194289039,92.58278145695365 L 116.69710339658312,92.58278145695365 L 116.72648693089023,92.58278145695365 L 116.75212585625214,92.58278145695365 L 118.24394939317197,92.58278145695365 L 118.27677295100776,92.58278145695365 L 118.29968852440948,92.58278145695365 L 119.79396666145132,92.58278145695365 L 119.82284852566053,92.58278145695365 L 119.85610208643737,92.58278145695365 L 121.34247891943689,92.58278145695365 L 121.37066202886683,92.58278145695365 L 121.40468601157978,92.58278145695365 L 122.88957575107473,92.58278145695365 L 122.91523259322582,92.58278145695365 L 122.94724989554707,92.58278145695365 L 124.43898384852086,92.58278145695365 L 124.46696987326949,92.58278145695365 L 124.49941717853181,92.58278145695365 L 125.98310649314959,92.58278145695365 L 126.02071383370485,92.58278145695365 L 126.04248273259702,92.58278145695365 L 127.53134999929696,92.58278145695365 L 127.56064394965803,92.58278145695365 L 127.5897945657054,92.58278145695365 L 129.0752218088767,92.58278145695365 L 129.10754369661456,92.58278145695365 L 129.13456221474573,92.58278145695365 L 130.21465793558158,92.58278145695365 L 130.62984369198344,92.58278145695365 L 130.66196849503996,92.58278145695365 L 130.6958133098608,92.58278145695365 L 132.17767511197894,92.58278145695365 L 132.20576863746285,92.58278145695365 L 132.23866386245544,92.58278145695365 L 133.72378652021018,92.58278145695365 L 133.74544791836706,92.58278145695365 L 133.78178316688832,92.58278145695365 L 135.27387545564636,92.58278145695365 L 135.30092980735597,92.58278145695365 L 135.33239168921165,92.58278145695365 L 136.82197562748004,92.58278145695365 L 136.8544587663208,92.58278145695365 L 136.88792732856817,92.58278145695365 L 138.36810495250046,92.58278145695365 L 138.39576847504327,92.58278145695365 L 138.43219330751057,92.58278145695365 L 139.92043348658808,92.58278145695365 L 139.94402989797987,92.58278145695365 L 139.97309093008118,92.58278145695365 L 141.4671361488633,92.58278145695365 L 141.50064054468908,92.58278145695365 L 141.5320128425987,92.58278145695365 L 143.01425089729034,92.58278145695365 L 143.04440485353356,92.58278145695365 L 143.0782675851436,92.58278145695365 L 144.56007563689414,92.58278145695365 L 144.5894770879905,92.58278145695365 L 144.62262314803206,92.58278145695365 L 146.11131124683988,92.58278145695365 L 146.13879560149059,92.58278145695365 L 146.16690704376367,92.58278145695365 L 147.65756598938478,92.58278145695365 L 147.68535492945207,92.58278145695365 L 147.7187518245426,92.58278145695365 L 149.19667193303422,92.58278145695365 L 149.23347301807496,92.58278145695365 L 149.26434364588664,92.58278145695365 L 150.75276299285633,92.58278145695365 L 150.77449605817006,92.58278145695365 L 150.81357257544067,92.58278145695365 L 152.30261901003274,92.58278145695365 L 152.33528131676562,92.58278145695365 L 152.36969946884122,92.58278145695365 L 153.8528333629934,92.58278145695365 L 153.88271856739846,92.58278145695365 L 153.91437753393546,92.58278145695365 L 155.3916705548047,92.58278145695365 L 155.42413577685622,92.58278145695365 L 155.4565114149617,92.58278145695365 L 156.94446492541184,92.58278145695365 L 156.9748517999148,92.58278145695365 L 157.00957453740702,92.58278145695365 L 158.49295926660818,92.58278145695365 L 158.5209273745676,92.58278145695365 L 158.5517980023793,92.58278145695365 L 160.04209861221614,92.58278145695365 L 160.06202208181952,92.58278145695365 L 160.11093491636737,92.58278145695365 L 161.58747543208966,92.58278145695365 L 161.6176293883329,92.58278145695365 L 161.64737125842427,92.58278145695365 L 163.13835270625117,92.58278145695365 L 163.17259169043467,92.58278145695365 L 163.20374898687373,92.58278145695365 L 164.6856107889919,92.58278145695365 L 164.71576474523513,92.58278145695365 L 164.75052331630576,92.58278145695365 L 166.23150719575258,92.58278145695365 L 166.26114156510866,92.58278145695365 L 166.28814216645063,92.58278145695365 L 167.78186488302694,92.58278145695365 L 167.81248467578968,92.58278145695365 L 167.8440182248022,92.58278145695365 L 169.3345338361096,92.58278145695365 L 169.36334403316195,92.58278145695365 L 169.39176006085165,92.58278145695365 L 170.87673938429265,92.58278145695365 L 170.9075383449475,40 L 170.9396273144256,40 L 172.43053709509567,40 L 172.45191182462517,40 L 172.48138494287835,40 L 173.9746776565136,40 L 173.99857865332194,40 L 174.04098769338594,40 L 175.52453367369003,40 L 175.5560134723349,40 L 175.58365907808852,40 L 177.06627338535358,40 L 177.10076320458603,40 L 177.13453635225,40 L 178.6238157051018,40 L 178.63908080951015,40 L 178.68045067579988,40 L 180.16872668845585,40 L 180.20135316161026,40 L 180.23820799701866,40 L 181.71686269386794,40 L 181.74760790415516,40 L 181.7870069236316,40 L 183.26249034879044,40 L 183.29518848910172,40 L 183.33333333333334,40" stroke="#f59e0b" stroke-width="2" fill="none" stroke-dasharray="14950" stroke-dashoffset="14950">
      <animate attributeName="stroke-dashoffset" values="14950;0" dur="3s" begin="3.5999999999999996s" fill="freeze"/>
    </path>
    
    <!-- Glow effect for the line that also follows the circle -->
    <path d="M 30,160 L 30.027842690434923,160 L 30.046494068004264,160 L 31.551862697568144,160 L 31.579579970478584,160 L 31.60788849743301,160 L 33.096934932025064,160 L 33.12576304586663,160 L 33.1612024549273,160 L 34.65130598008284,160 L 34.68154952027213,160 L 34.70306758411533,160 L 36.1982773941962,160 L 36.222482976421155,160 L 36.25211734577724,160 L 37.74883216615189,160 L 37.803693374718,160 L 39.292560641417936,160 L 39.32223084435245,160 L 39.34957186468945,160 L 40.84225540749147,160 L 40.87033101618614,160 L 40.899642883336426,160 L 42.390893083001515,160 L 42.41952411216175,160 L 42.45173849916432,160 L 43.93818699932068,160 L 43.9683230387747,160 L 43.99928325053245,160 L 45.48886718880085,160 L 45.518429891000096,160 L 45.54661300043004,160 L 47.03900987460467,160 L 47.06027710339892,160 L 47.08971438807369,160 L 48.58157375857196,160 L 48.60893269569817,160 L 48.64064541260282,160 L 50.13028310123886,160 L 50.15748078726216,160 L 50.18741974203485,160 L 51.67843702344019,160 L 51.70420136632656,160 L 51.735967833598835,160 L 53.227665952994215,160 L 53.253430295880584,160 L 53.27731337589973,160 L 54.780979910488504,160 L 54.80292797727279,160 L 54.83487361243718,160 L 56.32427838281347,160 L 56.34954105560191,160 L 56.37795708329161,160 L 57.871554382343426,160 L 57.89380703454431,160 L 57.927454764683816,160 L 59.417970375991224,160 L 59.44409305466183,160 L 59.476146190561494,160 L 60.96426095211454,160 L 60.988627785442404,160 L 61.023296772566965,160 L 62.50816859527271,160 L 62.539648393917595,160 L 62.57197028165544,160 L 64.06162588708068,160 L 64.08676314234465,160 L 64.11625417738705,160 L 65.61171482251687,160 L 65.63885875817255,160 L 65.67184356711121,160 L 67.15710955917962,160 L 67.18882227608424,160 L 67.22386751578226,160 L 68.70818391802243,160 L 68.73229991630134,160 L 68.76385138210307,160 L 70.25725159647355,160 L 70.27966549977734,160 L 70.31128863273594,160 L 71.80185799441098,160 L 71.82658316352307,160 L 71.85754337528081,160 L 73.35044191955339,160 L 73.37851752824807,160 L 74.90092502435223,160 L 74.92672520081703,160 L 74.95118161809094,160 L 76.44963436701912,160 L 76.47935832032127,160 L 76.51314938477447,160 L 77.98780863762954,160 L 78.02405430220475,160 L 78.05496076359486,160 L 79.54216176889811,160 L 79.56156565161436,160 L 79.59834881986589,160 L 81.09067402688368,160 L 81.1181942151128,160 L 81.14870650714025,160 L 82.6409779637904,160 L 82.66697522493652,160 L 82.69449541316564,160 L 84.18488560694857,160 L 84.21455580988308,160 L 84.24397517776863,160 L 85.73198243858641,160 L 85.75918012460971,160 L 85.78985366774009,160 L 87.28506347782096,160 L 87.31564743700525,160 L 87.34863224594392,160 L 88.83561824977664,160 L 88.8587488246489,160 L 88.90986542426977,160 L 90.38434550923273,160 L 90.40787025346765,160 L 90.43743295566689,160 L 91.9271781450382,160 L 91.95480583400258,160 L 91.9840102004176,160 L 93.47448997814658,160 L 93.5010964101259,160 L 93.5318057868347,160 L 95.0235397398085,160 L 95.05150784776791,160 L 95.07709302276216,160 L 96.56940031299074,160 L 96.59706383553353,160 L 96.62612486763486,160 L 98.12430886472485,160 L 98.15345948077224,160 L 98.18393593922127,160 L 99.66646066254027,160 L 99.69577252969056,92.58278145695365 L 99.72617732098274,92.58278145695365 L 101.220742126652,92.58278145695365 L 101.24156143571595,92.58278145695365 L 101.26988787945959,92.58278145695365 L 102.76296559162427,92.58278145695365 L 102.78288906122764,92.58278145695365 L 102.82096223830241,92.58278145695365 L 104.31317994458493,92.58278145695365 L 104.34197222484808,92.58278145695365 L 104.36632114138672,92.58278145695365 L 105.85513465771903,92.58278145695365 L 105.88776113087347,92.58278145695365 L 105.91950968135653,92.58278145695365 L 107.41029404450211,92.58278145695365 L 107.42529039707227,92.58278145695365 L 107.46368607635287,92.58278145695365 L 108.95796421339473,92.58278145695365 L 108.98793900174584,92.58278145695365 L 109.022912574287,92.58278145695365 L 110.50590313412552,92.58278145695365 L 110.53236623179114,92.58278145695365 L 110.56819981021447,92.58278145695365 L 112.0510649525285,92.58278145695365 L 112.08107557445803,92.58278145695365 L 112.1143649688133,92.58278145695365 L 113.60253348073398,92.58278145695365 L 113.62439196357221,92.58278145695365 L 113.65542384248681,92.58278145695365 L 115.14619028884319,92.58278145695365 L 115.17109462584739,92.58278145695365 L 115.2032194289039,92.58278145695365 L 116.69710339658312,92.58278145695365 L 116.72648693089023,92.58278145695365 L 116.75212585625214,92.58278145695365 L 118.24394939317197,92.58278145695365 L 118.27677295100776,92.58278145695365 L 118.29968852440948,92.58278145695365 L 119.79396666145132,92.58278145695365 L 119.82284852566053,92.58278145695365 L 119.85610208643737,92.58278145695365 L 121.34247891943689,92.58278145695365 L 121.37066202886683,92.58278145695365 L 121.40468601157978,92.58278145695365 L 122.88957575107473,92.58278145695365 L 122.91523259322582,92.58278145695365 L 122.94724989554707,92.58278145695365 L 124.43898384852086,92.58278145695365 L 124.46696987326949,92.58278145695365 L 124.49941717853181,92.58278145695365 L 125.98310649314959,92.58278145695365 L 126.02071383370485,92.58278145695365 L 126.04248273259702,92.58278145695365 L 127.53134999929696,92.58278145695365 L 127.56064394965803,92.58278145695365 L 127.5897945657054,92.58278145695365 L 129.0752218088767,92.58278145695365 L 129.10754369661456,92.58278145695365 L 129.13456221474573,92.58278145695365 L 130.21465793558158,92.58278145695365 L 130.62984369198344,92.58278145695365 L 130.66196849503996,92.58278145695365 L 130.6958133098608,92.58278145695365 L 132.17767511197894,92.58278145695365 L 132.20576863746285,92.58278145695365 L 132.23866386245544,92.58278145695365 L 133.72378652021018,92.58278145695365 L 133.74544791836706,92.58278145695365 L 133.78178316688832,92.58278145695365 L 135.27387545564636,92.58278145695365 L 135.30092980735597,92.58278145695365 L 135.33239168921165,92.58278145695365 L 136.82197562748004,92.58278145695365 L 136.8544587663208,92.58278145695365 L 136.88792732856817,92.58278145695365 L 138.36810495250046,92.58278145695365 L 138.39576847504327,92.58278145695365 L 138.43219330751057,92.58278145695365 L 139.92043348658808,92.58278145695365 L 139.94402989797987,92.58278145695365 L 139.97309093008118,92.58278145695365 L 141.4671361488633,92.58278145695365 L 141.50064054468908,92.58278145695365 L 141.5320128425987,92.58278145695365 L 143.01425089729034,92.58278145695365 L 143.04440485353356,92.58278145695365 L 143.0782675851436,92.58278145695365 L 144.56007563689414,92.58278145695365 L 144.5894770879905,92.58278145695365 L 144.62262314803206,92.58278145695365 L 146.11131124683988,92.58278145695365 L 146.13879560149059,92.58278145695365 L 146.16690704376367,92.58278145695365 L 147.65756598938478,92.58278145695365 L 147.68535492945207,92.58278145695365 L 147.7187518245426,92.58278145695365 L 149.19667193303422,92.58278145695365 L 149.23347301807496,92.58278145695365 L 149.26434364588664,92.58278145695365 L 150.75276299285633,92.58278145695365 L 150.77449605817006,92.58278145695365 L 150.81357257544067,92.58278145695365 L 152.30261901003274,92.58278145695365 L 152.33528131676562,92.58278145695365 L 152.36969946884122,92.58278145695365 L 153.8528333629934,92.58278145695365 L 153.88271856739846,92.58278145695365 L 153.91437753393546,92.58278145695365 L 155.3916705548047,92.58278145695365 L 155.42413577685622,92.58278145695365 L 155.4565114149617,92.58278145695365 L 156.94446492541184,92.58278145695365 L 156.9748517999148,92.58278145695365 L 157.00957453740702,92.58278145695365 L 158.49295926660818,92.58278145695365 L 158.5209273745676,92.58278145695365 L 158.5517980023793,92.58278145695365 L 160.04209861221614,92.58278145695365 L 160.06202208181952,92.58278145695365 L 160.11093491636737,92.58278145695365 L 161.58747543208966,92.58278145695365 L 161.6176293883329,92.58278145695365 L 161.64737125842427,92.58278145695365 L 163.13835270625117,92.58278145695365 L 163.17259169043467,92.58278145695365 L 163.20374898687373,92.58278145695365 L 164.6856107889919,92.58278145695365 L 164.71576474523513,92.58278145695365 L 164.75052331630576,92.58278145695365 L 166.23150719575258,92.58278145695365 L 166.26114156510866,92.58278145695365 L 166.28814216645063,92.58278145695365 L 167.78186488302694,92.58278145695365 L 167.81248467578968,92.58278145695365 L 167.8440182248022,92.58278145695365 L 169.3345338361096,92.58278145695365 L 169.36334403316195,92.58278145695365 L 169.39176006085165,92.58278145695365 L 170.87673938429265,92.58278145695365 L 170.9075383449475,40 L 170.9396273144256,40 L 172.43053709509567,40 L 172.45191182462517,40 L 172.48138494287835,40 L 173.9746776565136,40 L 173.99857865332194,40 L 174.04098769338594,40 L 175.52453367369003,40 L 175.5560134723349,40 L 175.58365907808852,40 L 177.06627338535358,40 L 177.10076320458603,40 L 177.13453635225,40 L 178.6238157051018,40 L 178.63908080951015,40 L 178.68045067579988,40 L 180.16872668845585,40 L 180.20135316161026,40 L 180.23820799701866,40 L 181.71686269386794,40 L 181.74760790415516,40 L 181.7870069236316,40 L 183.26249034879044,40 L 183.29518848910172,40 L 183.33333333333334,40" stroke="#f59e0b" stroke-width="4" fill="none" opacity="0.4" stroke-dasharray="14950" stroke-dashoffset="14950">
      <animate attributeName="stroke-dashoffset" values="14950;0" dur="3s" begin="3.5999999999999996s" fill="freeze"/>
    </path>
    
    <!-- Animated circle that moves along the path and draws the line -->
    <circle r="5" fill="#f59e0b" opacity="0" filter="url(#trailGlow)">
      <animate attributeName="opacity" values="0;1;1;1" dur="3.2s" begin="3.4s" fill="freeze"/>
      <animate attributeName="r" values="5;6;5" dur="1s" begin="3.4s" repeatCount="3"/>
      <animateMotion dur="3s" begin="3.4s" fill="freeze">
        <mpath href="#path_totalContributions_526.6666666666667"/>
      </animateMotion>
    </circle>
    
    <!-- Small trail dots that fade out -->
    <circle r="2" fill="#f59e0b" opacity="0">
      <animate attributeName="opacity" values="0;0.6;0" dur="0.8s" begin="3.8s" fill="freeze"/>
      <animateMotion dur="3s" begin="3.4s" fill="freeze">
        <mpath href="#path_totalContributions_526.6666666666667"/>
      </animateMotion>
    </circle>
    
    <!-- Hidden path for motion animation -->
    <path id="path_totalContributions_526.6666666666667" d="M 30,160 L 30.027842690434923,160 L 30.046494068004264,160 L 31.551862697568144,160 L 31.579579970478584,160 L 31.60788849743301,160 L 33.096934932025064,160 L 33.12576304586663,160 L 33.1612024549273,160 L 34.65130598008284,160 L 34.68154952027213,160 L 34.70306758411533,160 L 36.1982773941962,160 L 36.222482976421155,160 L 36.25211734577724,160 L 37.74883216615189,160 L 37.803693374718,160 L 39.292560641417936,160 L 39.32223084435245,160 L 39.34957186468945,160 L 40.84225540749147,160 L 40.87033101618614,160 L 40.899642883336426,160 L 42.390893083001515,160 L 42.41952411216175,160 L 42.45173849916432,160 L 43.93818699932068,160 L 43.9683230387747,160 L 43.99928325053245,160 L 45.48886718880085,160 L 45.518429891000096,160 L 45.54661300043004,160 L 47.03900987460467,160 L 47.06027710339892,160 L 47.08971438807369,160 L 48.58157375857196,160 L 48.60893269569817,160 L 48.64064541260282,160 L 50.13028310123886,160 L 50.15748078726216,160 L 50.18741974203485,160 L 51.67843702344019,160 L 51.70420136632656,160 L 51.735967833598835,160 L 53.227665952994215,160 L 53.253430295880584,160 L 53.27731337589973,160 L 54.780979910488504,160 L 54.80292797727279,160 L 54.83487361243718,160 L 56.32427838281347,160 L 56.34954105560191,160 L 56.37795708329161,160 L 57.871554382343426,160 L 57.89380703454431,160 L 57.927454764683816,160 L 59.417970375991224,160 L 59.44409305466183,160 L 59.476146190561494,160 L 60.96426095211454,160 L 60.988627785442404,160 L 61.023296772566965,160 L 62.50816859527271,160 L 62.539648393917595,160 L 62.57197028165544,160 L 64.06162588708068,160 L 64.08676314234465,160 L 64.11625417738705,160 L 65.61171482251687,160 L 65.63885875817255,160 L 65.67184356711121,160 L 67.15710955917962,160 L 67.18882227608424,160 L 67.22386751578226,160 L 68.70818391802243,160 L 68.73229991630134,160 L 68.76385138210307,160 L 70.25725159647355,160 L 70.27966549977734,160 L 70.31128863273594,160 L 71.80185799441098,160 L 71.82658316352307,160 L 71.85754337528081,160 L 73.35044191955339,160 L 73.37851752824807,160 L 74.90092502435223,160 L 74.92672520081703,160 L 74.95118161809094,160 L 76.44963436701912,160 L 76.47935832032127,160 L 76.51314938477447,160 L 77.98780863762954,160 L 78.02405430220475,160 L 78.05496076359486,160 L 79.54216176889811,160 L 79.56156565161436,160 L 79.59834881986589,160 L 81.09067402688368,160 L 81.1181942151128,160 L 81.14870650714025,160 L 82.6409779637904,160 L 82.66697522493652,160 L 82.69449541316564,160 L 84.18488560694857,160 L 84.21455580988308,160 L 84.24397517776863,160 L 85.73198243858641,160 L 85.75918012460971,160 L 85.78985366774009,160 L 87.28506347782096,160 L 87.31564743700525,160 L 87.34863224594392,160 L 88.83561824977664,160 L 88.8587488246489,160 L 88.90986542426977,160 L 90.38434550923273,160 L 90.40787025346765,160 L 90.43743295566689,160 L 91.9271781450382,160 L 91.95480583400258,160 L 91.9840102004176,160 L 93.47448997814658,160 L 93.5010964101259,160 L 93.5318057868347,160 L 95.0235397398085,160 L 95.05150784776791,160 L 95.07709302276216,160 L 96.56940031299074,160 L 96.59706383553353,160 L 96.62612486763486,160 L 98.12430886472485,160 L 98.15345948077224,160 L 98.18393593922127,160 L 99.66646066254027,160 L 99.69577252969056,92.58278145695365 L 99.72617732098274,92.58278145695365 L 101.220742126652,92.58278145695365 L 101.24156143571595,92.58278145695365 L 101.26988787945959,92.58278145695365 L 102.76296559162427,92.58278145695365 L 102.78288906122764,92.58278145695365 L 102.82096223830241,92.58278145695365 L 104.31317994458493,92.58278145695365 L 104.34197222484808,92.58278145695365 L 104.36632114138672,92.58278145695365 L 105.85513465771903,92.58278145695365 L 105.88776113087347,92.58278145695365 L 105.91950968135653,92.58278145695365 L 107.41029404450211,92.58278145695365 L 107.42529039707227,92.58278145695365 L 107.46368607635287,92.58278145695365 L 108.95796421339473,92.58278145695365 L 108.98793900174584,92.58278145695365 L 109.022912574287,92.58278145695365 L 110.50590313412552,92.58278145695365 L 110.53236623179114,92.58278145695365 L 110.56819981021447,92.58278145695365 L 112.0510649525285,92.58278145695365 L 112.08107557445803,92.58278145695365 L 112.1143649688133,92.58278145695365 L 113.60253348073398,92.58278145695365 L 113.62439196357221,92.58278145695365 L 113.65542384248681,92.58278145695365 L 115.14619028884319,92.58278145695365 L 115.17109462584739,92.58278145695365 L 115.2032194289039,92.58278145695365 L 116.69710339658312,92.58278145695365 L 116.72648693089023,92.58278145695365 L 116.75212585625214,92.58278145695365 L 118.24394939317197,92.58278145695365 L 118.27677295100776,92.58278145695365 L 118.29968852440948,92.58278145695365 L 119.79396666145132,92.58278145695365 L 119.82284852566053,92.58278145695365 L 119.85610208643737,92.58278145695365 L 121.34247891943689,92.58278145695365 L 121.37066202886683,92.58278145695365 L 121.40468601157978,92.58278145695365 L 122.88957575107473,92.58278145695365 L 122.91523259322582,92.58278145695365 L 122.94724989554707,92.58278145695365 L 124.43898384852086,92.58278145695365 L 124.46696987326949,92.58278145695365 L 124.49941717853181,92.58278145695365 L 125.98310649314959,92.58278145695365 L 126.02071383370485,92.58278145695365 L 126.04248273259702,92.58278145695365 L 127.53134999929696,92.58278145695365 L 127.56064394965803,92.58278145695365 L 127.5897945657054,92.58278145695365 L 129.0752218088767,92.58278145695365 L 129.10754369661456,92.58278145695365 L 129.13456221474573,92.58278145695365 L 130.21465793558158,92.58278145695365 L 130.62984369198344,92.58278145695365 L 130.66196849503996,92.58278145695365 L 130.6958133098608,92.58278145695365 L 132.17767511197894,92.58278145695365 L 132.20576863746285,92.58278145695365 L 132.23866386245544,92.58278145695365 L 133.72378652021018,92.58278145695365 L 133.74544791836706,92.58278145695365 L 133.78178316688832,92.58278145695365 L 135.27387545564636,92.58278145695365 L 135.30092980735597,92.58278145695365 L 135.33239168921165,92.58278145695365 L 136.82197562748004,92.58278145695365 L 136.8544587663208,92.58278145695365 L 136.88792732856817,92.58278145695365 L 138.36810495250046,92.58278145695365 L 138.39576847504327,92.58278145695365 L 138.43219330751057,92.58278145695365 L 139.92043348658808,92.58278145695365 L 139.94402989797987,92.58278145695365 L 139.97309093008118,92.58278145695365 L 141.4671361488633,92.58278145695365 L 141.50064054468908,92.58278145695365 L 141.5320128425987,92.58278145695365 L 143.01425089729034,92.58278145695365 L 143.04440485353356,92.58278145695365 L 143.0782675851436,92.58278145695365 L 144.56007563689414,92.58278145695365 L 144.5894770879905,92.58278145695365 L 144.62262314803206,92.58278145695365 L 146.11131124683988,92.58278145695365 L 146.13879560149059,92.58278145695365 L 146.16690704376367,92.58278145695365 L 147.65756598938478,92.58278145695365 L 147.68535492945207,92.58278145695365 L 147.7187518245426,92.58278145695365 L 149.19667193303422,92.58278145695365 L 149.23347301807496,92.58278145695365 L 149.26434364588664,92.58278145695365 L 150.75276299285633,92.58278145695365 L 150.77449605817006,92.58278145695365 L 150.81357257544067,92.58278145695365 L 152.30261901003274,92.58278145695365 L 152.33528131676562,92.58278145695365 L 152.36969946884122,92.58278145695365 L 153.8528333629934,92.58278145695365 L 153.88271856739846,92.58278145695365 L 153.91437753393546,92.58278145695365 L 155.3916705548047,92.58278145695365 L 155.42413577685622,92.58278145695365 L 155.4565114149617,92.58278145695365 L 156.94446492541184,92.58278145695365 L 156.9748517999148,92.58278145695365 L 157.00957453740702,92.58278145695365 L 158.49295926660818,92.58278145695365 L 158.5209273745676,92.58278145695365 L 158.5517980023793,92.58278145695365 L 160.04209861221614,92.58278145695365 L 160.06202208181952,92.58278145695365 L 160.11093491636737,92.58278145695365 L 161.58747543208966,92.58278145695365 L 161.6176293883329,92.58278145695365 L 161.64737125842427,92.58278145695365 L 163.13835270625117,92.58278145695365 L 163.17259169043467,92.58278145695365 L 163.20374898687373,92.58278145695365 L 164.6856107889919,92.58278145695365 L 164.71576474523513,92.58278145695365 L 164.75052331630576,92.58278145695365 L 166.23150719575258,92.58278145695365 L 166.26114156510866,92.58278145695365 L 166.28814216645063,92.58278145695365 L 167.78186488302694,92.58278145695365 L 167.81248467578968,92.58278145695365 L 167.8440182248022,92.58278145695365 L 169.3345338361096,92.58278145695365 L 169.36334403316195,92.58278145695365 L 169.39176006085165,92.58278145695365 L 170.87673938429265,92.58278145695365 L 170.9075383449475,40 L 170.9396273144256,40 L 172.43053709509567,40 L 172.45191182462517,40 L 172.48138494287835,40 L 173.9746776565136,40 L 173.99857865332194,40 L 174.04098769338594,40 L 175.52453367369003,40 L 175.5560134723349,40 L 175.58365907808852,40 L 177.06627338535358,40 L 177.10076320458603,40 L 177.13453635225,40 L 178.6238157051018,40 L 178.63908080951015,40 L 178.68045067579988,40 L 180.16872668845585,40 L 180.20135316161026,40 L 180.23820799701866,40 L 181.71686269386794,40 L 181.74760790415516,40 L 181.7870069236316,40 L 183.26249034879044,40 L 183.29518848910172,40 L 183.33333333333334,40" fill="none" stroke="none"/>
  </g>
  
  <!-- Footer -->
  <text x="400" y="580" text-anchor="middle" fill="#64748b" font-size="12" font-family="Arial, sans-serif">
    Generated by GitHub User Rank Tracker • 1/31/2026
    <animate attributeName="opacity" values="0;1" dur="0.5s" begin="5s" fill="freeze"/>
  </text>
</svg>