<svg width="800" height="600" xmlns="http://www.w3.org/2000/svg">
  <defs>
    <linearGradient id="bgGradient" x1="0%" y1="0%" x2="100%" y2="100%">
      <stop offset="0%" style="stop-color:#1e293b;stop-opacity:1" />
      <stop offset="100%" style="stop-color:#0f172a;stop-opacity:1" />
    </linearGradient>
    <filter id="shadow" x="-20%" y="-20%" width="140%" height="140%">
      <feDropShadow dx="2" dy="2" stdDeviation="3" flood-color="#000" flood-opacity="0.3"/>
    </filter>
    <!-- Trail effect filter -->
    <filter id="trailGlow" x="-50%" y="-50%" width="200%" height="200%">
      <feGaussianBlur stdDeviation="3" result="coloredBlur"/>
      <feMerge> 
        <feMergeNode in="coloredBlur"/>
        <feMergeNode in="SourceGraphic"/>
      </feMerge>
    </filter>
  </defs>
  
  <!-- Background -->
  <rect width="800" height="600" fill="url(#bgGradient)" rx="12"/>
  
  <!-- Header -->
  <text x="400" y="40" text-anchor="middle" fill="#f8fafc" font-size="24" font-weight="bold" font-family="Arial, sans-serif">
    GitHub Progress Report
    <animate attributeName="opacity" values="0;1" dur="0.8s" begin="0s" fill="freeze"/>
    <animateTransform attributeName="transform" type="translate" values="0,-20;0,0" dur="0.8s" begin="0s" fill="freeze"/>
  </text>
  
  <!-- User Info -->
  <text x="400" y="70" text-anchor="middle" fill="#cbd5e1" font-size="16" font-family="Arial, sans-serif">
    @maifeeulasad • BANGLADESH • 100 days analyzed
    <animate attributeName="opacity" values="0;1" dur="0.6s" begin="0.3s" fill="freeze"/>
  </text>
  
  <!-- Progress Cards -->
  <!-- Followers Card -->
  <g transform="translate(60, 100)">
    <rect width="206.66666666666666" height="120" fill="#1e293b" stroke="#334155" stroke-width="1" rx="8" filter="url(#shadow)">
      <animate attributeName="opacity" values="0;1" dur="0.6s" begin="0.2s" fill="freeze"/>
      <animateTransform attributeName="transform" type="scale" values="0.8;1" dur="0.6s" begin="0.2s" fill="freeze"/>
    </rect>
    <text x="103.33333333333333" y="25" text-anchor="middle" fill="#94a3b8" font-size="14" font-weight="bold" font-family="Arial, sans-serif">FOLLOWERS
      <animate attributeName="opacity" values="0;1" dur="0.5s" begin="0.4s" fill="freeze"/>
    </text>
    
    <text x="103.33333333333333" y="50" text-anchor="middle" fill="#22c55e" font-size="32" font-weight="bold" font-family="Arial, sans-serif">
      ↗
      <animate attributeName="opacity" values="0;1" dur="0.5s" begin="0.6s" fill="freeze"/>
      <animateTransform attributeName="transform" type="scale" values="0;1.2;1" dur="0.8s" begin="0.6s" fill="freeze"/>
    </text>
    
    <text x="103.33333333333333" y="75" text-anchor="middle" fill="#f8fafc" font-size="18" font-weight="bold" font-family="Arial, sans-serif">
      +1
      <animate attributeName="opacity" values="0;1" dur="0.5s" begin="0.8s" fill="freeze"/>
    </text>
    
    <text x="103.33333333333333" y="95" text-anchor="middle" fill="#94a3b8" font-size="12" font-family="Arial, sans-serif">
      #467 → #466
      <animate attributeName="opacity" values="0;1" dur="0.5s" begin="1s" fill="freeze"/>
    </text>
  </g>
  
  <!-- Public Contributions Card -->
  <g transform="translate(296.66666666666663, 100)">
    <rect width="206.66666666666666" height="120" fill="#1e293b" stroke="#334155" stroke-width="1" rx="8" filter="url(#shadow)">
      <animate attributeName="opacity" values="0;1" dur="0.6s" begin="0.4s" fill="freeze"/>
      <animateTransform attributeName="transform" type="scale" values="0.8;1" dur="0.6s" begin="0.4s" fill="freeze"/>
    </rect>
    <text x="103.33333333333333" y="25" text-anchor="middle" fill="#94a3b8" font-size="14" font-weight="bold" font-family="Arial, sans-serif">PUBLIC
      <animate attributeName="opacity" values="0;1" dur="0.5s" begin="0.6s" fill="freeze"/>
    </text>
    
    <text x="103.33333333333333" y="50" text-anchor="middle" fill="#6b7280" font-size="32" font-weight="bold" font-family="Arial, sans-serif">
      →
      <animate attributeName="opacity" values="0;1" dur="0.5s" begin="0.8s" fill="freeze"/>
      <animateTransform attributeName="transform" type="scale" values="0;1.2;1" dur="0.8s" begin="0.8s" fill="freeze"/>
    </text>
    
    <text x="103.33333333333333" y="75" text-anchor="middle" fill="#f8fafc" font-size="18" font-weight="bold" font-family="Arial, sans-serif">
      0
      <animate attributeName="opacity" values="0;1" dur="0.5s" begin="1s" fill="freeze"/>
    </text>
    
    <text x="103.33333333333333" y="95" text-anchor="middle" fill="#94a3b8" font-size="12" font-family="Arial, sans-serif">
      #7 → #7
      <animate attributeName="opacity" values="0;1" dur="0.5s" begin="1.2s" fill="freeze"/>
    </text>
  </g>
  
  <!-- Total Contributions Card -->
  <g transform="translate(533.3333333333333, 100)">
    <rect width="206.66666666666666" height="120" fill="#1e293b" stroke="#334155" stroke-width="1" rx="8" filter="url(#shadow)">
      <animate attributeName="opacity" values="0;1" dur="0.6s" begin="0.6s" fill="freeze"/>
      <animateTransform attributeName="transform" type="scale" values="0.8;1" dur="0.6s" begin="0.6s" fill="freeze"/>
    </rect>
    <text x="103.33333333333333" y="25" text-anchor="middle" fill="#94a3b8" font-size="14" font-weight="bold" font-family="Arial, sans-serif">TOTAL
      <animate attributeName="opacity" values="0;1" dur="0.5s" begin="0.8s" fill="freeze"/>
    </text>
    
    <text x="103.33333333333333" y="50" text-anchor="middle" fill="#22c55e" font-size="32" font-weight="bold" font-family="Arial, sans-serif">
      ↗
      <animate attributeName="opacity" values="0;1" dur="0.5s" begin="1s" fill="freeze"/>
      <animateTransform attributeName="transform" type="scale" values="0;1.2;1" dur="0.8s" begin="1s" fill="freeze"/>
    </text>
    
    <text x="103.33333333333333" y="75" text-anchor="middle" fill="#f8fafc" font-size="18" font-weight="bold" font-family="Arial, sans-serif">
      +9
      <animate attributeName="opacity" values="0;1" dur="0.5s" begin="1.2s" fill="freeze"/>
    </text>
    
    <text x="103.33333333333333" y="95" text-anchor="middle" fill="#94a3b8" font-size="12" font-family="Arial, sans-serif">
      #24 → #15
      <animate attributeName="opacity" values="0;1" dur="0.5s" begin="1.4s" fill="freeze"/>
    </text>
  </g>
  
  <!-- Timeline Charts (if we have snapshots) -->
  
  <!-- 👥 Followers Count Chart -->
  <g transform="translate(60, 250)">
    <!-- Chart Background -->
    <rect x="0" y="0" width="213.33333333333334" height="200" fill="#0f172a" stroke="#334155" stroke-width="1" rx="8" filter="url(#shadow)">
      <animate attributeName="opacity" values="0;1" dur="0.5s" begin="1.8s" fill="freeze"/>
    </rect>
    
    <!-- Chart Title -->
    <text x="106.66666666666667" y="25" text-anchor="middle" fill="#f8fafc" font-size="14" font-weight="bold" font-family="Arial, sans-serif">
      👥 Followers Count
      <animate attributeName="opacity" values="0;1" dur="0.5s" begin="2s" fill="freeze"/>
    </text>
    
    <!-- Y-axis labels -->
    <text x="10" y="45" fill="#94a3b8" font-size="10" font-family="Arial, sans-serif">150
      <animate attributeName="opacity" values="0;1" dur="0.5s" begin="2.2s" fill="freeze"/>
    </text>
    <text x="10" y="185" fill="#94a3b8" font-size="10" font-family="Arial, sans-serif">143
      <animate attributeName="opacity" values="0;1" dur="0.5s" begin="2.2s" fill="freeze"/>
    </text>
    
    <!-- Chart Line with draw animation that follows the circle -->
    <path d="M 30,160 L 30.028848986966615,160 L 31.559045844102037,160 L 31.57657025978735,160 L 31.60437996647815,160 L 33.0995100736175,160 L 33.12418402085541,160 L 33.154681521362974,160 L 34.647303020940015,160 L 34.67138565353824,160 L 34.698460696585784,160 L 36.19817797183909,160 L 36.224016629730926,160 L 36.25639558591023,160 L 37.74795988658601,160 L 37.7758054305277,160 L 37.8025041824409,160 L 39.29870940710696,160 L 39.31583961303248,160 L 39.3448498676281,160 L 40.8415030579303,160 L 40.86390133973667,160 L 40.889596648624945,160 L 42.38934976112914,160 L 42.410224959772684,160 L 42.44188717093418,160 L 43.93683809181909,160 L 43.95973809513793,160 L 43.98959052512947,160 L 45.48205075707751,160 L 45.50410858500043,160 L 45.5365950529324,160 L 47.02925238976033,160 L 47.06163134593963,160 L 47.094691209885845,160 L 48.58267178547261,160 L 48.60644980143826,160 L 48.63635598730613,160 L 50.13044681416967,160 L 50.15388437625187,160 L 50.183790562119746,160 L 51.67935071626979,160 L 51.710134914784476,160 L 51.74650972443803,160 L 53.22793208311188,160 L 53.25029452766737,160 L 53.278892653877755,160 L 54.77774983510969,160 L 54.79672565945606,160 L 54.82666768257482,160 L 56.320830183940146,160 L 56.343156791244745,160 L 56.3716653243279,160 L 56.41067417192189,160 L 57.873102787623935,160 L 57.90290146173914,160 L 57.932485112349,160 L 59.41745535886099,160 L 59.444745425413885,160 L 59.47325395849704,160 L 60.96829447250917,160 L 60.983632815890175,160 L 61.01963133440939,160 L 62.51481519742508,160 L 62.54025964555713,160 L 62.56117068145156,160 L 64.06414914653587,160 L 64.0881959418832,160 L 64.11745705723504,160 L 65.61316056038865,160 L 65.63885586927694,160 L 65.66702394847664,160 L 67.15995006468623,160 L 67.18035937906822,160 L 67.21187824122615,160 L 68.71091460871253,160 L 68.73295451801002,160 L 68.76386414690282,160 L 70.25799081101725,160 L 70.28366820128008,160 L 70.31459574879833,160 L 71.80526411820185,160 L 71.83004557719244,160 L 71.84859135452811,160 L 73.35040510895848,160 L 73.38545394032911,160 L 73.4091244445421,160 L 74.90192513037358,160 L 74.92598984434636,160 L 76.47596886397318,160 L 76.50238091787926,160 L 77.99471571944918,160 L 78.01793825802602,160 L 78.04558669708783,160 L 79.54634325261694,160 L 79.57522807683445,160 L 79.60278692276901,160 L 81.09453040969925,160 L 81.12422157206178,160 L 81.15319598940651,160 L 82.64536952334743,160 L 82.67307171828556,160 L 82.69690349012754,160 L 84.1891666171957,160 L 84.2174959640244,57.14285714285715 L 84.2465778931218,57.14285714285715 L 85.76570103973214,57.14285714285715 L 85.79161137212577,57.14285714285715 L 87.28100751912268,57.14285714285715 L 87.30885306306438,57.14285714285715 L 87.32750635215272,57.14285714285715 L 88.83302926205025,57.14285714285715 L 88.8607493756138,57.14285714285715 L 88.88906080381707,57.14285714285715 L 90.37825984593411,57.14285714285715 L 90.40709091427527,57.14285714285715 L 90.4425339554057,57.14285714285715 L 91.93279019642398,57.14285714285715 L 91.96303683617532,57.14285714285715 L 91.98455710533487,57.14285714285715 L 93.47992015460503,57.14285714285715 L 93.50412821758135,57.14285714285715 L 93.53376562406754,57.14285714285715 L 95.03063383787509,57.14285714285715 L 95.08550066898799,57.14285714285715 L 96.57452052485057,57.14285714285715 L 96.60419376858765,57.14285714285715 L 96.63153759101688,57.14285714285715 L 98.12437411409927,57.14285714285715 L 98.15245260017174,57.14285714285715 L 98.18176747139992,57.14285714285715 L 99.6731705044467,57.14285714285715 L 99.70180446790798,57.14285714285715 L 99.73402215645827,57.14285714285715 L 101.22062299788576,57.14285714285715 L 101.25076212588442,57.14285714285715 L 101.28172551065356,57.14285714285715 L 102.77146211153395,57.14285714285715 L 102.80102784351837,57.14285714285715 L 102.8292138413435,57.14285714285715 L 104.32176366641878,57.14285714285715 L 104.3430330748221,57.14285714285715 L 104.37247337642842,57.14285714285715 L 105.86448564274032,57.14285714285715 L 105.891847383795,57.14285714285715 L 105.92356335083282,57.14285714285715 L 107.41335370758954,57.14285714285715 L 107.44055418101522,57.14285714285715 L 107.47049620413398,57.14285714285715 L 108.96166629504995,57.14285714285715 L 108.98743327844001,57.14285714285715 L 109.0192030013542,57.14285714285715 L 110.51105400003708,57.14285714285715 L 110.53682098342713,57.14285714285715 L 110.56070651114547,57.14285714285715 L 112.0645271516257,57.14285714285715 L 112.08647746779594,57.14285714285715 L 112.11842637696456,57.14285714285715 L 113.6079837915905,57.14285714285715 L 113.63324905346809,57.14285714285715 L 113.66166799342403,57.14285714285715 L 115.15541836640412,57.14285714285715 L 115.17767329920693,57.14285714285715 L 115.21132447779283,57.14285714285715 L 116.70199284719637,57.14285714285715 L 116.72811820309532,57.14285714285715 L 116.76017462401661,57.14285714285715 L 118.24844189761048,57.14285714285715 L 118.27281122821583,57.14285714285715 L 118.3074837684521,57.14285714285715 L 119.79250777084042,57.14285714285715 L 119.82399079574746,57.14285714285715 L 119.85631599605044,57.14285714285715 L 121.3461242714326,57.14285714285715 L 121.37126410293207,57.14285714285715 L 121.40075816041471,57.14285714285715 L 122.89637207044109,57.14285714285715 L 122.92351878799042,57.14285714285715 L 122.95650697743484,57.14285714285715 L 124.44192518958296,57.14285714285715 L 124.47364115662079,57.14285714285715 L 124.50868998799142,57.14285714285715 L 125.99315851299093,57.14285714285715 L 126.01727698284003,57.14285714285715 L 126.04883168224886,57.14285714285715 L 127.54238495034905,57.14285714285715 L 127.56480115078088,57.14285714285715 L 127.59642752469148,57.14285714285715 L 129.08714964997134,57.14285714285715 L 129.1118773530856,57.14285714285715 L 129.14284073785473,57.14285714285715 L 130.63589228444243,57.14285714285715 L 130.66397077051494,57.14285714285715 L 132.18653429321074,57.14285714285715 L 132.21233711385167,57.14285714285715 L 132.23679603758427,57.14285714285715 L 133.73540235805996,57.14285714285715 L 133.76512935767337,57.14285714285715 L 133.79892388526284,57.14285714285715 L 135.27373427114748,57.14285714285715 L 135.3099836504229,57.14285714285715 L 135.3408932793157,57.14285714285715 L 136.82824670301187,57.14285714285715 L 136.8476525743689,57.14285714285715 L 136.8844395124077,57.14285714285715 L 138.3769176629812,57.14285714285715 L 138.40444067166487,57.14285714285715 L 138.43495609079787,57.14285714285715 L 139.92738048549504,57.14285714285715 L 139.95338041101587,57.14285714285715 L 139.98090341969956,57.14285714285715 L 141.47144635872496,57.14285714285715 L 141.50111960246207,57.14285714285715 L 141.53054198544294,57.14285714285715 L 143.01870174728413,57.14285714285715 L 143.0459022207098,57.14285714285715 L 143.0765789074718,57.14285714285715 L 144.57194195674197,57.14285714285715 L 144.60252905037675,57.14285714285715 L 144.63551723982118,57.14285714285715 L 146.122655640012,57.14285714285715 L 146.14578858546164,57.14285714285715 L 146.19691042385654,57.14285714285715 L 147.6715416234867,57.14285714285715 L 147.6950687786961,57.14285714285715 L 147.72463451068052,57.14285714285715 L 149.2145323791899,57.14285714285715 L 149.24216289962627,57.14285714285715 L 149.2713702591018,57.14285714285715 L 150.76200279125442,57.14285714285715 L 150.78861195004038,57.14285714285715 L 150.8193244740533,57.14285714285715 L 152.31121130998707,57.14285714285715 L 152.3391822843069,57.14285714285715 L 152.3647700814425,57.14285714285715 L 153.85723031339052,57.14285714285715 L 153.8848966710778,57.14285714285715 L 153.91396068154972,57.14285714285715 L 155.41229822264376,57.14285714285715 L 155.44145182624294,57.14285714285715 L 155.47193140812504,57.14285714285715 L 156.95460807058006,57.14285714285715 L 156.98392294180826,40 L 157.01433084918858,40 L 158.5090488279427,40 L 158.52987027070992,40 L 158.55819961753863,40 L 160.05143035038083,40 L 160.07135586187576,40 L 160.1094329409466,40 L 161.60180357976742,40 L 161.6305988108577,40 L 161.65495022283758,40 L 163.14391632282386,40 L 163.17654613975938,40 L 163.2082979440481,40 L 164.69923509283328,40 L 164.71423298233083,40 L 164.7526325966597,40 L 166.2470638774067,40 L 166.27704173777636,40 L 166.31201889464518,40 L 167.79516144136178,40 L 167.8216272511442,40 L 167.8574645020344,40 L 169.34048161837285,40 L 169.37049531599342,40 L 169.4037881220704,40 L 170.89210915154064,40 L 170.91396987458367,40 L 170.94500493385456,40 L 172.43592416401432,40 L 172.460831053383,40 L 172.49295914880608,40 L 173.9869962197933,40 L 174.01638276552328,40 L 174.0420243185352,40 L 175.53400074759622,40 L 175.56682766941165,40 L 175.58974559135595,40 L 177.08417687210294,40 L 177.11306169632044,40 L 177.14631866514654,40 L 178.63284783207226,40 L 178.6610338298974,40 L 178.69506129961766,40 L 180.18010322063142,40 L 180.20576269226882,40 L 180.2377832759392,40 L 181.729670111873,40 L 181.75765900481824,40 L 181.79010963549933,40 L 183.27395100860826,40 L 183.31156220341754,40 L 183.33333333333334,40" stroke="#22c55e" stroke-width="2" fill="none" stroke-dasharray="14750" stroke-dashoffset="14750">
      <animate attributeName="stroke-dashoffset" values="14750;0" dur="3s" begin="2.6s" fill="freeze"/>
    </path>
    
    <!-- Glow effect for the line that also follows the circle -->
    <path d="M 30,160 L 30.028848986966615,160 L 31.559045844102037,160 L 31.57657025978735,160 L 31.60437996647815,160 L 33.0995100736175,160 L 33.12418402085541,160 L 33.154681521362974,160 L 34.647303020940015,160 L 34.67138565353824,160 L 34.698460696585784,160 L 36.19817797183909,160 L 36.224016629730926,160 L 36.25639558591023,160 L 37.74795988658601,160 L 37.7758054305277,160 L 37.8025041824409,160 L 39.29870940710696,160 L 39.31583961303248,160 L 39.3448498676281,160 L 40.8415030579303,160 L 40.86390133973667,160 L 40.889596648624945,160 L 42.38934976112914,160 L 42.410224959772684,160 L 42.44188717093418,160 L 43.93683809181909,160 L 43.95973809513793,160 L 43.98959052512947,160 L 45.48205075707751,160 L 45.50410858500043,160 L 45.5365950529324,160 L 47.02925238976033,160 L 47.06163134593963,160 L 47.094691209885845,160 L 48.58267178547261,160 L 48.60644980143826,160 L 48.63635598730613,160 L 50.13044681416967,160 L 50.15388437625187,160 L 50.183790562119746,160 L 51.67935071626979,160 L 51.710134914784476,160 L 51.74650972443803,160 L 53.22793208311188,160 L 53.25029452766737,160 L 53.278892653877755,160 L 54.77774983510969,160 L 54.79672565945606,160 L 54.82666768257482,160 L 56.320830183940146,160 L 56.343156791244745,160 L 56.3716653243279,160 L 56.41067417192189,160 L 57.873102787623935,160 L 57.90290146173914,160 L 57.932485112349,160 L 59.41745535886099,160 L 59.444745425413885,160 L 59.47325395849704,160 L 60.96829447250917,160 L 60.983632815890175,160 L 61.01963133440939,160 L 62.51481519742508,160 L 62.54025964555713,160 L 62.56117068145156,160 L 64.06414914653587,160 L 64.0881959418832,160 L 64.11745705723504,160 L 65.61316056038865,160 L 65.63885586927694,160 L 65.66702394847664,160 L 67.15995006468623,160 L 67.18035937906822,160 L 67.21187824122615,160 L 68.71091460871253,160 L 68.73295451801002,160 L 68.76386414690282,160 L 70.25799081101725,160 L 70.28366820128008,160 L 70.31459574879833,160 L 71.80526411820185,160 L 71.83004557719244,160 L 71.84859135452811,160 L 73.35040510895848,160 L 73.38545394032911,160 L 73.4091244445421,160 L 74.90192513037358,160 L 74.92598984434636,160 L 76.47596886397318,160 L 76.50238091787926,160 L 77.99471571944918,160 L 78.01793825802602,160 L 78.04558669708783,160 L 79.54634325261694,160 L 79.57522807683445,160 L 79.60278692276901,160 L 81.09453040969925,160 L 81.12422157206178,160 L 81.15319598940651,160 L 82.64536952334743,160 L 82.67307171828556,160 L 82.69690349012754,160 L 84.1891666171957,160 L 84.2174959640244,57.14285714285715 L 84.2465778931218,57.14285714285715 L 85.76570103973214,57.14285714285715 L 85.79161137212577,57.14285714285715 L 87.28100751912268,57.14285714285715 L 87.30885306306438,57.14285714285715 L 87.32750635215272,57.14285714285715 L 88.83302926205025,57.14285714285715 L 88.8607493756138,57.14285714285715 L 88.88906080381707,57.14285714285715 L 90.37825984593411,57.14285714285715 L 90.40709091427527,57.14285714285715 L 90.4425339554057,57.14285714285715 L 91.93279019642398,57.14285714285715 L 91.96303683617532,57.14285714285715 L 91.98455710533487,57.14285714285715 L 93.47992015460503,57.14285714285715 L 93.50412821758135,57.14285714285715 L 93.53376562406754,57.14285714285715 L 95.03063383787509,57.14285714285715 L 95.08550066898799,57.14285714285715 L 96.57452052485057,57.14285714285715 L 96.60419376858765,57.14285714285715 L 96.63153759101688,57.14285714285715 L 98.12437411409927,57.14285714285715 L 98.15245260017174,57.14285714285715 L 98.18176747139992,57.14285714285715 L 99.6731705044467,57.14285714285715 L 99.70180446790798,57.14285714285715 L 99.73402215645827,57.14285714285715 L 101.22062299788576,57.14285714285715 L 101.25076212588442,57.14285714285715 L 101.28172551065356,57.14285714285715 L 102.77146211153395,57.14285714285715 L 102.80102784351837,57.14285714285715 L 102.8292138413435,57.14285714285715 L 104.32176366641878,57.14285714285715 L 104.3430330748221,57.14285714285715 L 104.37247337642842,57.14285714285715 L 105.86448564274032,57.14285714285715 L 105.891847383795,57.14285714285715 L 105.92356335083282,57.14285714285715 L 107.41335370758954,57.14285714285715 L 107.44055418101522,57.14285714285715 L 107.47049620413398,57.14285714285715 L 108.96166629504995,57.14285714285715 L 108.98743327844001,57.14285714285715 L 109.0192030013542,57.14285714285715 L 110.51105400003708,57.14285714285715 L 110.53682098342713,57.14285714285715 L 110.56070651114547,57.14285714285715 L 112.0645271516257,57.14285714285715 L 112.08647746779594,57.14285714285715 L 112.11842637696456,57.14285714285715 L 113.6079837915905,57.14285714285715 L 113.63324905346809,57.14285714285715 L 113.66166799342403,57.14285714285715 L 115.15541836640412,57.14285714285715 L 115.17767329920693,57.14285714285715 L 115.21132447779283,57.14285714285715 L 116.70199284719637,57.14285714285715 L 116.72811820309532,57.14285714285715 L 116.76017462401661,57.14285714285715 L 118.24844189761048,57.14285714285715 L 118.27281122821583,57.14285714285715 L 118.3074837684521,57.14285714285715 L 119.79250777084042,57.14285714285715 L 119.82399079574746,57.14285714285715 L 119.85631599605044,57.14285714285715 L 121.3461242714326,57.14285714285715 L 121.37126410293207,57.14285714285715 L 121.40075816041471,57.14285714285715 L 122.89637207044109,57.14285714285715 L 122.92351878799042,57.14285714285715 L 122.95650697743484,57.14285714285715 L 124.44192518958296,57.14285714285715 L 124.47364115662079,57.14285714285715 L 124.50868998799142,57.14285714285715 L 125.99315851299093,57.14285714285715 L 126.01727698284003,57.14285714285715 L 126.04883168224886,57.14285714285715 L 127.54238495034905,57.14285714285715 L 127.56480115078088,57.14285714285715 L 127.59642752469148,57.14285714285715 L 129.08714964997134,57.14285714285715 L 129.1118773530856,57.14285714285715 L 129.14284073785473,57.14285714285715 L 130.63589228444243,57.14285714285715 L 130.66397077051494,57.14285714285715 L 132.18653429321074,57.14285714285715 L 132.21233711385167,57.14285714285715 L 132.23679603758427,57.14285714285715 L 133.73540235805996,57.14285714285715 L 133.76512935767337,57.14285714285715 L 133.79892388526284,57.14285714285715 L 135.27373427114748,57.14285714285715 L 135.3099836504229,57.14285714285715 L 135.3408932793157,57.14285714285715 L 136.82824670301187,57.14285714285715 L 136.8476525743689,57.14285714285715 L 136.8844395124077,57.14285714285715 L 138.3769176629812,57.14285714285715 L 138.40444067166487,57.14285714285715 L 138.43495609079787,57.14285714285715 L 139.92738048549504,57.14285714285715 L 139.95338041101587,57.14285714285715 L 139.98090341969956,57.14285714285715 L 141.47144635872496,57.14285714285715 L 141.50111960246207,57.14285714285715 L 141.53054198544294,57.14285714285715 L 143.01870174728413,57.14285714285715 L 143.0459022207098,57.14285714285715 L 143.0765789074718,57.14285714285715 L 144.57194195674197,57.14285714285715 L 144.60252905037675,57.14285714285715 L 144.63551723982118,57.14285714285715 L 146.122655640012,57.14285714285715 L 146.14578858546164,57.14285714285715 L 146.19691042385654,57.14285714285715 L 147.6715416234867,57.14285714285715 L 147.6950687786961,57.14285714285715 L 147.72463451068052,57.14285714285715 L 149.2145323791899,57.14285714285715 L 149.24216289962627,57.14285714285715 L 149.2713702591018,57.14285714285715 L 150.76200279125442,57.14285714285715 L 150.78861195004038,57.14285714285715 L 150.8193244740533,57.14285714285715 L 152.31121130998707,57.14285714285715 L 152.3391822843069,57.14285714285715 L 152.3647700814425,57.14285714285715 L 153.85723031339052,57.14285714285715 L 153.8848966710778,57.14285714285715 L 153.91396068154972,57.14285714285715 L 155.41229822264376,57.14285714285715 L 155.44145182624294,57.14285714285715 L 155.47193140812504,57.14285714285715 L 156.95460807058006,57.14285714285715 L 156.98392294180826,40 L 157.01433084918858,40 L 158.5090488279427,40 L 158.52987027070992,40 L 158.55819961753863,40 L 160.05143035038083,40 L 160.07135586187576,40 L 160.1094329409466,40 L 161.60180357976742,40 L 161.6305988108577,40 L 161.65495022283758,40 L 163.14391632282386,40 L 163.17654613975938,40 L 163.2082979440481,40 L 164.69923509283328,40 L 164.71423298233083,40 L 164.7526325966597,40 L 166.2470638774067,40 L 166.27704173777636,40 L 166.31201889464518,40 L 167.79516144136178,40 L 167.8216272511442,40 L 167.8574645020344,40 L 169.34048161837285,40 L 169.37049531599342,40 L 169.4037881220704,40 L 170.89210915154064,40 L 170.91396987458367,40 L 170.94500493385456,40 L 172.43592416401432,40 L 172.460831053383,40 L 172.49295914880608,40 L 173.9869962197933,40 L 174.01638276552328,40 L 174.0420243185352,40 L 175.53400074759622,40 L 175.56682766941165,40 L 175.58974559135595,40 L 177.08417687210294,40 L 177.11306169632044,40 L 177.14631866514654,40 L 178.63284783207226,40 L 178.6610338298974,40 L 178.69506129961766,40 L 180.18010322063142,40 L 180.20576269226882,40 L 180.2377832759392,40 L 181.729670111873,40 L 181.75765900481824,40 L 181.79010963549933,40 L 183.27395100860826,40 L 183.31156220341754,40 L 183.33333333333334,40" stroke="#22c55e" stroke-width="4" fill="none" opacity="0.4" stroke-dasharray="14750" stroke-dashoffset="14750">
      <animate attributeName="stroke-dashoffset" values="14750;0" dur="3s" begin="2.6s" fill="freeze"/>
    </path>
    
    <!-- Animated circle that moves along the path and draws the line -->
    <circle r="5" fill="#22c55e" opacity="0" filter="url(#trailGlow)">
      <animate attributeName="opacity" values="0;1;1;1" dur="3.2s" begin="2.4s" fill="freeze"/>
      <animate attributeName="r" values="5;6;5" dur="1s" begin="2.4s" repeatCount="3"/>
      <animateMotion dur="3s" begin="2.4s" fill="freeze">
        <mpath href="#path_followersCount_60"/>
      </animateMotion>
    </circle>
    
    <!-- Small trail dots that fade out -->
    <circle r="2" fill="#22c55e" opacity="0">
      <animate attributeName="opacity" values="0;0.6;0" dur="0.8s" begin="2.8s" fill="freeze"/>
      <animateMotion dur="3s" begin="2.4s" fill="freeze">
        <mpath href="#path_followersCount_60"/>
      </animateMotion>
    </circle>
    
    <!-- Hidden path for motion animation -->
    <path id="path_followersCount_60" d="M 30,160 L 30.028848986966615,160 L 31.559045844102037,160 L 31.57657025978735,160 L 31.60437996647815,160 L 33.0995100736175,160 L 33.12418402085541,160 L 33.154681521362974,160 L 34.647303020940015,160 L 34.67138565353824,160 L 34.698460696585784,160 L 36.19817797183909,160 L 36.224016629730926,160 L 36.25639558591023,160 L 37.74795988658601,160 L 37.7758054305277,160 L 37.8025041824409,160 L 39.29870940710696,160 L 39.31583961303248,160 L 39.3448498676281,160 L 40.8415030579303,160 L 40.86390133973667,160 L 40.889596648624945,160 L 42.38934976112914,160 L 42.410224959772684,160 L 42.44188717093418,160 L 43.93683809181909,160 L 43.95973809513793,160 L 43.98959052512947,160 L 45.48205075707751,160 L 45.50410858500043,160 L 45.5365950529324,160 L 47.02925238976033,160 L 47.06163134593963,160 L 47.094691209885845,160 L 48.58267178547261,160 L 48.60644980143826,160 L 48.63635598730613,160 L 50.13044681416967,160 L 50.15388437625187,160 L 50.183790562119746,160 L 51.67935071626979,160 L 51.710134914784476,160 L 51.74650972443803,160 L 53.22793208311188,160 L 53.25029452766737,160 L 53.278892653877755,160 L 54.77774983510969,160 L 54.79672565945606,160 L 54.82666768257482,160 L 56.320830183940146,160 L 56.343156791244745,160 L 56.3716653243279,160 L 56.41067417192189,160 L 57.873102787623935,160 L 57.90290146173914,160 L 57.932485112349,160 L 59.41745535886099,160 L 59.444745425413885,160 L 59.47325395849704,160 L 60.96829447250917,160 L 60.983632815890175,160 L 61.01963133440939,160 L 62.51481519742508,160 L 62.54025964555713,160 L 62.56117068145156,160 L 64.06414914653587,160 L 64.0881959418832,160 L 64.11745705723504,160 L 65.61316056038865,160 L 65.63885586927694,160 L 65.66702394847664,160 L 67.15995006468623,160 L 67.18035937906822,160 L 67.21187824122615,160 L 68.71091460871253,160 L 68.73295451801002,160 L 68.76386414690282,160 L 70.25799081101725,160 L 70.28366820128008,160 L 70.31459574879833,160 L 71.80526411820185,160 L 71.83004557719244,160 L 71.84859135452811,160 L 73.35040510895848,160 L 73.38545394032911,160 L 73.4091244445421,160 L 74.90192513037358,160 L 74.92598984434636,160 L 76.47596886397318,160 L 76.50238091787926,160 L 77.99471571944918,160 L 78.01793825802602,160 L 78.04558669708783,160 L 79.54634325261694,160 L 79.57522807683445,160 L 79.60278692276901,160 L 81.09453040969925,160 L 81.12422157206178,160 L 81.15319598940651,160 L 82.64536952334743,160 L 82.67307171828556,160 L 82.69690349012754,160 L 84.1891666171957,160 L 84.2174959640244,57.14285714285715 L 84.2465778931218,57.14285714285715 L 85.76570103973214,57.14285714285715 L 85.79161137212577,57.14285714285715 L 87.28100751912268,57.14285714285715 L 87.30885306306438,57.14285714285715 L 87.32750635215272,57.14285714285715 L 88.83302926205025,57.14285714285715 L 88.8607493756138,57.14285714285715 L 88.88906080381707,57.14285714285715 L 90.37825984593411,57.14285714285715 L 90.40709091427527,57.14285714285715 L 90.4425339554057,57.14285714285715 L 91.93279019642398,57.14285714285715 L 91.96303683617532,57.14285714285715 L 91.98455710533487,57.14285714285715 L 93.47992015460503,57.14285714285715 L 93.50412821758135,57.14285714285715 L 93.53376562406754,57.14285714285715 L 95.03063383787509,57.14285714285715 L 95.08550066898799,57.14285714285715 L 96.57452052485057,57.14285714285715 L 96.60419376858765,57.14285714285715 L 96.63153759101688,57.14285714285715 L 98.12437411409927,57.14285714285715 L 98.15245260017174,57.14285714285715 L 98.18176747139992,57.14285714285715 L 99.6731705044467,57.14285714285715 L 99.70180446790798,57.14285714285715 L 99.73402215645827,57.14285714285715 L 101.22062299788576,57.14285714285715 L 101.25076212588442,57.14285714285715 L 101.28172551065356,57.14285714285715 L 102.77146211153395,57.14285714285715 L 102.80102784351837,57.14285714285715 L 102.8292138413435,57.14285714285715 L 104.32176366641878,57.14285714285715 L 104.3430330748221,57.14285714285715 L 104.37247337642842,57.14285714285715 L 105.86448564274032,57.14285714285715 L 105.891847383795,57.14285714285715 L 105.92356335083282,57.14285714285715 L 107.41335370758954,57.14285714285715 L 107.44055418101522,57.14285714285715 L 107.47049620413398,57.14285714285715 L 108.96166629504995,57.14285714285715 L 108.98743327844001,57.14285714285715 L 109.0192030013542,57.14285714285715 L 110.51105400003708,57.14285714285715 L 110.53682098342713,57.14285714285715 L 110.56070651114547,57.14285714285715 L 112.0645271516257,57.14285714285715 L 112.08647746779594,57.14285714285715 L 112.11842637696456,57.14285714285715 L 113.6079837915905,57.14285714285715 L 113.63324905346809,57.14285714285715 L 113.66166799342403,57.14285714285715 L 115.15541836640412,57.14285714285715 L 115.17767329920693,57.14285714285715 L 115.21132447779283,57.14285714285715 L 116.70199284719637,57.14285714285715 L 116.72811820309532,57.14285714285715 L 116.76017462401661,57.14285714285715 L 118.24844189761048,57.14285714285715 L 118.27281122821583,57.14285714285715 L 118.3074837684521,57.14285714285715 L 119.79250777084042,57.14285714285715 L 119.82399079574746,57.14285714285715 L 119.85631599605044,57.14285714285715 L 121.3461242714326,57.14285714285715 L 121.37126410293207,57.14285714285715 L 121.40075816041471,57.14285714285715 L 122.89637207044109,57.14285714285715 L 122.92351878799042,57.14285714285715 L 122.95650697743484,57.14285714285715 L 124.44192518958296,57.14285714285715 L 124.47364115662079,57.14285714285715 L 124.50868998799142,57.14285714285715 L 125.99315851299093,57.14285714285715 L 126.01727698284003,57.14285714285715 L 126.04883168224886,57.14285714285715 L 127.54238495034905,57.14285714285715 L 127.56480115078088,57.14285714285715 L 127.59642752469148,57.14285714285715 L 129.08714964997134,57.14285714285715 L 129.1118773530856,57.14285714285715 L 129.14284073785473,57.14285714285715 L 130.63589228444243,57.14285714285715 L 130.66397077051494,57.14285714285715 L 132.18653429321074,57.14285714285715 L 132.21233711385167,57.14285714285715 L 132.23679603758427,57.14285714285715 L 133.73540235805996,57.14285714285715 L 133.76512935767337,57.14285714285715 L 133.79892388526284,57.14285714285715 L 135.27373427114748,57.14285714285715 L 135.3099836504229,57.14285714285715 L 135.3408932793157,57.14285714285715 L 136.82824670301187,57.14285714285715 L 136.8476525743689,57.14285714285715 L 136.8844395124077,57.14285714285715 L 138.3769176629812,57.14285714285715 L 138.40444067166487,57.14285714285715 L 138.43495609079787,57.14285714285715 L 139.92738048549504,57.14285714285715 L 139.95338041101587,57.14285714285715 L 139.98090341969956,57.14285714285715 L 141.47144635872496,57.14285714285715 L 141.50111960246207,57.14285714285715 L 141.53054198544294,57.14285714285715 L 143.01870174728413,57.14285714285715 L 143.0459022207098,57.14285714285715 L 143.0765789074718,57.14285714285715 L 144.57194195674197,57.14285714285715 L 144.60252905037675,57.14285714285715 L 144.63551723982118,57.14285714285715 L 146.122655640012,57.14285714285715 L 146.14578858546164,57.14285714285715 L 146.19691042385654,57.14285714285715 L 147.6715416234867,57.14285714285715 L 147.6950687786961,57.14285714285715 L 147.72463451068052,57.14285714285715 L 149.2145323791899,57.14285714285715 L 149.24216289962627,57.14285714285715 L 149.2713702591018,57.14285714285715 L 150.76200279125442,57.14285714285715 L 150.78861195004038,57.14285714285715 L 150.8193244740533,57.14285714285715 L 152.31121130998707,57.14285714285715 L 152.3391822843069,57.14285714285715 L 152.3647700814425,57.14285714285715 L 153.85723031339052,57.14285714285715 L 153.8848966710778,57.14285714285715 L 153.91396068154972,57.14285714285715 L 155.41229822264376,57.14285714285715 L 155.44145182624294,57.14285714285715 L 155.47193140812504,57.14285714285715 L 156.95460807058006,57.14285714285715 L 156.98392294180826,40 L 157.01433084918858,40 L 158.5090488279427,40 L 158.52987027070992,40 L 158.55819961753863,40 L 160.05143035038083,40 L 160.07135586187576,40 L 160.1094329409466,40 L 161.60180357976742,40 L 161.6305988108577,40 L 161.65495022283758,40 L 163.14391632282386,40 L 163.17654613975938,40 L 163.2082979440481,40 L 164.69923509283328,40 L 164.71423298233083,40 L 164.7526325966597,40 L 166.2470638774067,40 L 166.27704173777636,40 L 166.31201889464518,40 L 167.79516144136178,40 L 167.8216272511442,40 L 167.8574645020344,40 L 169.34048161837285,40 L 169.37049531599342,40 L 169.4037881220704,40 L 170.89210915154064,40 L 170.91396987458367,40 L 170.94500493385456,40 L 172.43592416401432,40 L 172.460831053383,40 L 172.49295914880608,40 L 173.9869962197933,40 L 174.01638276552328,40 L 174.0420243185352,40 L 175.53400074759622,40 L 175.56682766941165,40 L 175.58974559135595,40 L 177.08417687210294,40 L 177.11306169632044,40 L 177.14631866514654,40 L 178.63284783207226,40 L 178.6610338298974,40 L 178.69506129961766,40 L 180.18010322063142,40 L 180.20576269226882,40 L 180.2377832759392,40 L 181.729670111873,40 L 181.75765900481824,40 L 181.79010963549933,40 L 183.27395100860826,40 L 183.31156220341754,40 L 183.33333333333334,40" fill="none" stroke="none"/>
  </g>
  <!-- 🔓 Public Contributions Chart -->
  <g transform="translate(293.33333333333337, 250)">
    <!-- Chart Background -->
    <rect x="0" y="0" width="213.33333333333334" height="200" fill="#0f172a" stroke="#334155" stroke-width="1" rx="8" filter="url(#shadow)">
      <animate attributeName="opacity" values="0;1" dur="0.5s" begin="2.3s" fill="freeze"/>
    </rect>
    
    <!-- Chart Title -->
    <text x="106.66666666666667" y="25" text-anchor="middle" fill="#f8fafc" font-size="14" font-weight="bold" font-family="Arial, sans-serif">
      🔓 Public Contributions
      <animate attributeName="opacity" values="0;1" dur="0.5s" begin="2.5s" fill="freeze"/>
    </text>
    
    <!-- Y-axis labels -->
    <text x="10" y="45" fill="#94a3b8" font-size="10" font-family="Arial, sans-serif">3,434
      <animate attributeName="opacity" values="0;1" dur="0.5s" begin="2.6999999999999997s" fill="freeze"/>
    </text>
    <text x="10" y="185" fill="#94a3b8" font-size="10" font-family="Arial, sans-serif">2,669
      <animate attributeName="opacity" values="0;1" dur="0.5s" begin="2.6999999999999997s" fill="freeze"/>
    </text>
    
    <!-- Chart Line with draw animation that follows the circle -->
    <path d="M 30,160 L 30.028848986966615,160 L 31.559045844102037,160 L 31.57657025978735,160 L 31.60437996647815,160 L 33.0995100736175,160 L 33.12418402085541,160 L 33.154681521362974,160 L 34.647303020940015,160 L 34.67138565353824,160 L 34.698460696585784,160 L 36.19817797183909,160 L 36.224016629730926,160 L 36.25639558591023,160 L 37.74795988658601,160 L 37.7758054305277,160 L 37.8025041824409,160 L 39.29870940710696,160 L 39.31583961303248,160 L 39.3448498676281,160 L 40.8415030579303,160 L 40.86390133973667,160 L 40.889596648624945,160 L 42.38934976112914,160 L 42.410224959772684,160 L 42.44188717093418,160 L 43.93683809181909,160 L 43.95973809513793,160 L 43.98959052512947,160 L 45.48205075707751,160 L 45.50410858500043,160 L 45.5365950529324,160 L 47.02925238976033,160 L 47.06163134593963,160 L 47.094691209885845,160 L 48.58267178547261,160 L 48.60644980143826,160 L 48.63635598730613,160 L 50.13044681416967,160 L 50.15388437625187,160 L 50.183790562119746,160 L 51.67935071626979,160 L 51.710134914784476,160 L 51.74650972443803,160 L 53.22793208311188,160 L 53.25029452766737,160 L 53.278892653877755,160 L 54.77774983510969,160 L 54.79672565945606,160 L 54.82666768257482,160 L 56.320830183940146,160 L 56.343156791244745,160 L 56.3716653243279,160 L 56.41067417192189,160 L 57.873102787623935,160 L 57.90290146173914,160 L 57.932485112349,160 L 59.41745535886099,160 L 59.444745425413885,160 L 59.47325395849704,160 L 60.96829447250917,160 L 60.983632815890175,160 L 61.01963133440939,160 L 62.51481519742508,160 L 62.54025964555713,160 L 62.56117068145156,160 L 64.06414914653587,160 L 64.0881959418832,160 L 64.11745705723504,160 L 65.61316056038865,160 L 65.63885586927694,160 L 65.66702394847664,160 L 67.15995006468623,160 L 67.18035937906822,160 L 67.21187824122615,160 L 68.71091460871253,160 L 68.73295451801002,160 L 68.76386414690282,160 L 70.25799081101725,160 L 70.28366820128008,160 L 70.31459574879833,160 L 71.80526411820185,160 L 71.83004557719244,160 L 71.84859135452811,160 L 73.35040510895848,160 L 73.38545394032911,160 L 73.4091244445421,160 L 74.90192513037358,160 L 74.92598984434636,160 L 76.47596886397318,160 L 76.50238091787926,160 L 77.99471571944918,160 L 78.01793825802602,160 L 78.04558669708783,160 L 79.54634325261694,160 L 79.57522807683445,160 L 79.60278692276901,160 L 81.09453040969925,160 L 81.12422157206178,160 L 81.15319598940651,160 L 82.64536952334743,160 L 82.67307171828556,160 L 82.69690349012754,160 L 84.1891666171957,160 L 84.2174959640244,79.84313725490196 L 84.2465778931218,79.84313725490196 L 85.76570103973214,79.84313725490196 L 85.79161137212577,79.84313725490196 L 87.28100751912268,79.84313725490196 L 87.30885306306438,79.84313725490196 L 87.32750635215272,79.84313725490196 L 88.83302926205025,79.84313725490196 L 88.8607493756138,79.84313725490196 L 88.88906080381707,79.84313725490196 L 90.37825984593411,79.84313725490196 L 90.40709091427527,79.84313725490196 L 90.4425339554057,79.84313725490196 L 91.93279019642398,79.84313725490196 L 91.96303683617532,79.84313725490196 L 91.98455710533487,79.84313725490196 L 93.47992015460503,79.84313725490196 L 93.50412821758135,79.84313725490196 L 93.53376562406754,79.84313725490196 L 95.03063383787509,79.84313725490196 L 95.08550066898799,79.84313725490196 L 96.57452052485057,79.84313725490196 L 96.60419376858765,79.84313725490196 L 96.63153759101688,79.84313725490196 L 98.12437411409927,79.84313725490196 L 98.15245260017174,79.84313725490196 L 98.18176747139992,79.84313725490196 L 99.6731705044467,79.84313725490196 L 99.70180446790798,79.84313725490196 L 99.73402215645827,79.84313725490196 L 101.22062299788576,79.84313725490196 L 101.25076212588442,79.84313725490196 L 101.28172551065356,79.84313725490196 L 102.77146211153395,79.84313725490196 L 102.80102784351837,79.84313725490196 L 102.8292138413435,79.84313725490196 L 104.32176366641878,79.84313725490196 L 104.3430330748221,79.84313725490196 L 104.37247337642842,79.84313725490196 L 105.86448564274032,79.84313725490196 L 105.891847383795,79.84313725490196 L 105.92356335083282,79.84313725490196 L 107.41335370758954,79.84313725490196 L 107.44055418101522,79.84313725490196 L 107.47049620413398,79.84313725490196 L 108.96166629504995,79.84313725490196 L 108.98743327844001,79.84313725490196 L 109.0192030013542,79.84313725490196 L 110.51105400003708,79.84313725490196 L 110.53682098342713,79.84313725490196 L 110.56070651114547,79.84313725490196 L 112.0645271516257,79.84313725490196 L 112.08647746779594,79.84313725490196 L 112.11842637696456,79.84313725490196 L 113.6079837915905,79.84313725490196 L 113.63324905346809,79.84313725490196 L 113.66166799342403,79.84313725490196 L 115.15541836640412,79.84313725490196 L 115.17767329920693,79.84313725490196 L 115.21132447779283,79.84313725490196 L 116.70199284719637,79.84313725490196 L 116.72811820309532,79.84313725490196 L 116.76017462401661,79.84313725490196 L 118.24844189761048,79.84313725490196 L 118.27281122821583,79.84313725490196 L 118.3074837684521,79.84313725490196 L 119.79250777084042,79.84313725490196 L 119.82399079574746,79.84313725490196 L 119.85631599605044,79.84313725490196 L 121.3461242714326,79.84313725490196 L 121.37126410293207,79.84313725490196 L 121.40075816041471,79.84313725490196 L 122.89637207044109,79.84313725490196 L 122.92351878799042,79.84313725490196 L 122.95650697743484,79.84313725490196 L 124.44192518958296,79.84313725490196 L 124.47364115662079,79.84313725490196 L 124.50868998799142,79.84313725490196 L 125.99315851299093,79.84313725490196 L 126.01727698284003,79.84313725490196 L 126.04883168224886,79.84313725490196 L 127.54238495034905,79.84313725490196 L 127.56480115078088,79.84313725490196 L 127.59642752469148,79.84313725490196 L 129.08714964997134,79.84313725490196 L 129.1118773530856,79.84313725490196 L 129.14284073785473,79.84313725490196 L 130.63589228444243,79.84313725490196 L 130.66397077051494,79.84313725490196 L 132.18653429321074,79.84313725490196 L 132.21233711385167,79.84313725490196 L 132.23679603758427,79.84313725490196 L 133.73540235805996,79.84313725490196 L 133.76512935767337,79.84313725490196 L 133.79892388526284,79.84313725490196 L 135.27373427114748,79.84313725490196 L 135.3099836504229,79.84313725490196 L 135.3408932793157,79.84313725490196 L 136.82824670301187,79.84313725490196 L 136.8476525743689,79.84313725490196 L 136.8844395124077,79.84313725490196 L 138.3769176629812,79.84313725490196 L 138.40444067166487,79.84313725490196 L 138.43495609079787,79.84313725490196 L 139.92738048549504,79.84313725490196 L 139.95338041101587,79.84313725490196 L 139.98090341969956,79.84313725490196 L 141.47144635872496,79.84313725490196 L 141.50111960246207,79.84313725490196 L 141.53054198544294,79.84313725490196 L 143.01870174728413,79.84313725490196 L 143.0459022207098,79.84313725490196 L 143.0765789074718,79.84313725490196 L 144.57194195674197,79.84313725490196 L 144.60252905037675,79.84313725490196 L 144.63551723982118,79.84313725490196 L 146.122655640012,79.84313725490196 L 146.14578858546164,79.84313725490196 L 146.19691042385654,79.84313725490196 L 147.6715416234867,79.84313725490196 L 147.6950687786961,79.84313725490196 L 147.72463451068052,79.84313725490196 L 149.2145323791899,79.84313725490196 L 149.24216289962627,79.84313725490196 L 149.2713702591018,79.84313725490196 L 150.76200279125442,79.84313725490196 L 150.78861195004038,79.84313725490196 L 150.8193244740533,79.84313725490196 L 152.31121130998707,79.84313725490196 L 152.3391822843069,79.84313725490196 L 152.3647700814425,79.84313725490196 L 153.85723031339052,79.84313725490196 L 153.8848966710778,79.84313725490196 L 153.91396068154972,79.84313725490196 L 155.41229822264376,79.84313725490196 L 155.44145182624294,79.84313725490196 L 155.47193140812504,79.84313725490196 L 156.95460807058006,79.84313725490196 L 156.98392294180826,40 L 157.01433084918858,40 L 158.5090488279427,40 L 158.52987027070992,40 L 158.55819961753863,40 L 160.05143035038083,40 L 160.07135586187576,40 L 160.1094329409466,40 L 161.60180357976742,40 L 161.6305988108577,40 L 161.65495022283758,40 L 163.14391632282386,40 L 163.17654613975938,40 L 163.2082979440481,40 L 164.69923509283328,40 L 164.71423298233083,40 L 164.7526325966597,40 L 166.2470638774067,40 L 166.27704173777636,40 L 166.31201889464518,40 L 167.79516144136178,40 L 167.8216272511442,40 L 167.8574645020344,40 L 169.34048161837285,40 L 169.37049531599342,40 L 169.4037881220704,40 L 170.89210915154064,40 L 170.91396987458367,40 L 170.94500493385456,40 L 172.43592416401432,40 L 172.460831053383,40 L 172.49295914880608,40 L 173.9869962197933,40 L 174.01638276552328,40 L 174.0420243185352,40 L 175.53400074759622,40 L 175.56682766941165,40 L 175.58974559135595,40 L 177.08417687210294,40 L 177.11306169632044,40 L 177.14631866514654,40 L 178.63284783207226,40 L 178.6610338298974,40 L 178.69506129961766,40 L 180.18010322063142,40 L 180.20576269226882,40 L 180.2377832759392,40 L 181.729670111873,40 L 181.75765900481824,40 L 181.79010963549933,40 L 183.27395100860826,40 L 183.31156220341754,40 L 183.33333333333334,40" stroke="#3b82f6" stroke-width="2" fill="none" stroke-dasharray="14750" stroke-dashoffset="14750">
      <animate attributeName="stroke-dashoffset" values="14750;0" dur="3s" begin="3.0999999999999996s" fill="freeze"/>
    </path>
    
    <!-- Glow effect for the line that also follows the circle -->
    <path d="M 30,160 L 30.028848986966615,160 L 31.559045844102037,160 L 31.57657025978735,160 L 31.60437996647815,160 L 33.0995100736175,160 L 33.12418402085541,160 L 33.154681521362974,160 L 34.647303020940015,160 L 34.67138565353824,160 L 34.698460696585784,160 L 36.19817797183909,160 L 36.224016629730926,160 L 36.25639558591023,160 L 37.74795988658601,160 L 37.7758054305277,160 L 37.8025041824409,160 L 39.29870940710696,160 L 39.31583961303248,160 L 39.3448498676281,160 L 40.8415030579303,160 L 40.86390133973667,160 L 40.889596648624945,160 L 42.38934976112914,160 L 42.410224959772684,160 L 42.44188717093418,160 L 43.93683809181909,160 L 43.95973809513793,160 L 43.98959052512947,160 L 45.48205075707751,160 L 45.50410858500043,160 L 45.5365950529324,160 L 47.02925238976033,160 L 47.06163134593963,160 L 47.094691209885845,160 L 48.58267178547261,160 L 48.60644980143826,160 L 48.63635598730613,160 L 50.13044681416967,160 L 50.15388437625187,160 L 50.183790562119746,160 L 51.67935071626979,160 L 51.710134914784476,160 L 51.74650972443803,160 L 53.22793208311188,160 L 53.25029452766737,160 L 53.278892653877755,160 L 54.77774983510969,160 L 54.79672565945606,160 L 54.82666768257482,160 L 56.320830183940146,160 L 56.343156791244745,160 L 56.3716653243279,160 L 56.41067417192189,160 L 57.873102787623935,160 L 57.90290146173914,160 L 57.932485112349,160 L 59.41745535886099,160 L 59.444745425413885,160 L 59.47325395849704,160 L 60.96829447250917,160 L 60.983632815890175,160 L 61.01963133440939,160 L 62.51481519742508,160 L 62.54025964555713,160 L 62.56117068145156,160 L 64.06414914653587,160 L 64.0881959418832,160 L 64.11745705723504,160 L 65.61316056038865,160 L 65.63885586927694,160 L 65.66702394847664,160 L 67.15995006468623,160 L 67.18035937906822,160 L 67.21187824122615,160 L 68.71091460871253,160 L 68.73295451801002,160 L 68.76386414690282,160 L 70.25799081101725,160 L 70.28366820128008,160 L 70.31459574879833,160 L 71.80526411820185,160 L 71.83004557719244,160 L 71.84859135452811,160 L 73.35040510895848,160 L 73.38545394032911,160 L 73.4091244445421,160 L 74.90192513037358,160 L 74.92598984434636,160 L 76.47596886397318,160 L 76.50238091787926,160 L 77.99471571944918,160 L 78.01793825802602,160 L 78.04558669708783,160 L 79.54634325261694,160 L 79.57522807683445,160 L 79.60278692276901,160 L 81.09453040969925,160 L 81.12422157206178,160 L 81.15319598940651,160 L 82.64536952334743,160 L 82.67307171828556,160 L 82.69690349012754,160 L 84.1891666171957,160 L 84.2174959640244,79.84313725490196 L 84.2465778931218,79.84313725490196 L 85.76570103973214,79.84313725490196 L 85.79161137212577,79.84313725490196 L 87.28100751912268,79.84313725490196 L 87.30885306306438,79.84313725490196 L 87.32750635215272,79.84313725490196 L 88.83302926205025,79.84313725490196 L 88.8607493756138,79.84313725490196 L 88.88906080381707,79.84313725490196 L 90.37825984593411,79.84313725490196 L 90.40709091427527,79.84313725490196 L 90.4425339554057,79.84313725490196 L 91.93279019642398,79.84313725490196 L 91.96303683617532,79.84313725490196 L 91.98455710533487,79.84313725490196 L 93.47992015460503,79.84313725490196 L 93.50412821758135,79.84313725490196 L 93.53376562406754,79.84313725490196 L 95.03063383787509,79.84313725490196 L 95.08550066898799,79.84313725490196 L 96.57452052485057,79.84313725490196 L 96.60419376858765,79.84313725490196 L 96.63153759101688,79.84313725490196 L 98.12437411409927,79.84313725490196 L 98.15245260017174,79.84313725490196 L 98.18176747139992,79.84313725490196 L 99.6731705044467,79.84313725490196 L 99.70180446790798,79.84313725490196 L 99.73402215645827,79.84313725490196 L 101.22062299788576,79.84313725490196 L 101.25076212588442,79.84313725490196 L 101.28172551065356,79.84313725490196 L 102.77146211153395,79.84313725490196 L 102.80102784351837,79.84313725490196 L 102.8292138413435,79.84313725490196 L 104.32176366641878,79.84313725490196 L 104.3430330748221,79.84313725490196 L 104.37247337642842,79.84313725490196 L 105.86448564274032,79.84313725490196 L 105.891847383795,79.84313725490196 L 105.92356335083282,79.84313725490196 L 107.41335370758954,79.84313725490196 L 107.44055418101522,79.84313725490196 L 107.47049620413398,79.84313725490196 L 108.96166629504995,79.84313725490196 L 108.98743327844001,79.84313725490196 L 109.0192030013542,79.84313725490196 L 110.51105400003708,79.84313725490196 L 110.53682098342713,79.84313725490196 L 110.56070651114547,79.84313725490196 L 112.0645271516257,79.84313725490196 L 112.08647746779594,79.84313725490196 L 112.11842637696456,79.84313725490196 L 113.6079837915905,79.84313725490196 L 113.63324905346809,79.84313725490196 L 113.66166799342403,79.84313725490196 L 115.15541836640412,79.84313725490196 L 115.17767329920693,79.84313725490196 L 115.21132447779283,79.84313725490196 L 116.70199284719637,79.84313725490196 L 116.72811820309532,79.84313725490196 L 116.76017462401661,79.84313725490196 L 118.24844189761048,79.84313725490196 L 118.27281122821583,79.84313725490196 L 118.3074837684521,79.84313725490196 L 119.79250777084042,79.84313725490196 L 119.82399079574746,79.84313725490196 L 119.85631599605044,79.84313725490196 L 121.3461242714326,79.84313725490196 L 121.37126410293207,79.84313725490196 L 121.40075816041471,79.84313725490196 L 122.89637207044109,79.84313725490196 L 122.92351878799042,79.84313725490196 L 122.95650697743484,79.84313725490196 L 124.44192518958296,79.84313725490196 L 124.47364115662079,79.84313725490196 L 124.50868998799142,79.84313725490196 L 125.99315851299093,79.84313725490196 L 126.01727698284003,79.84313725490196 L 126.04883168224886,79.84313725490196 L 127.54238495034905,79.84313725490196 L 127.56480115078088,79.84313725490196 L 127.59642752469148,79.84313725490196 L 129.08714964997134,79.84313725490196 L 129.1118773530856,79.84313725490196 L 129.14284073785473,79.84313725490196 L 130.63589228444243,79.84313725490196 L 130.66397077051494,79.84313725490196 L 132.18653429321074,79.84313725490196 L 132.21233711385167,79.84313725490196 L 132.23679603758427,79.84313725490196 L 133.73540235805996,79.84313725490196 L 133.76512935767337,79.84313725490196 L 133.79892388526284,79.84313725490196 L 135.27373427114748,79.84313725490196 L 135.3099836504229,79.84313725490196 L 135.3408932793157,79.84313725490196 L 136.82824670301187,79.84313725490196 L 136.8476525743689,79.84313725490196 L 136.8844395124077,79.84313725490196 L 138.3769176629812,79.84313725490196 L 138.40444067166487,79.84313725490196 L 138.43495609079787,79.84313725490196 L 139.92738048549504,79.84313725490196 L 139.95338041101587,79.84313725490196 L 139.98090341969956,79.84313725490196 L 141.47144635872496,79.84313725490196 L 141.50111960246207,79.84313725490196 L 141.53054198544294,79.84313725490196 L 143.01870174728413,79.84313725490196 L 143.0459022207098,79.84313725490196 L 143.0765789074718,79.84313725490196 L 144.57194195674197,79.84313725490196 L 144.60252905037675,79.84313725490196 L 144.63551723982118,79.84313725490196 L 146.122655640012,79.84313725490196 L 146.14578858546164,79.84313725490196 L 146.19691042385654,79.84313725490196 L 147.6715416234867,79.84313725490196 L 147.6950687786961,79.84313725490196 L 147.72463451068052,79.84313725490196 L 149.2145323791899,79.84313725490196 L 149.24216289962627,79.84313725490196 L 149.2713702591018,79.84313725490196 L 150.76200279125442,79.84313725490196 L 150.78861195004038,79.84313725490196 L 150.8193244740533,79.84313725490196 L 152.31121130998707,79.84313725490196 L 152.3391822843069,79.84313725490196 L 152.3647700814425,79.84313725490196 L 153.85723031339052,79.84313725490196 L 153.8848966710778,79.84313725490196 L 153.91396068154972,79.84313725490196 L 155.41229822264376,79.84313725490196 L 155.44145182624294,79.84313725490196 L 155.47193140812504,79.84313725490196 L 156.95460807058006,79.84313725490196 L 156.98392294180826,40 L 157.01433084918858,40 L 158.5090488279427,40 L 158.52987027070992,40 L 158.55819961753863,40 L 160.05143035038083,40 L 160.07135586187576,40 L 160.1094329409466,40 L 161.60180357976742,40 L 161.6305988108577,40 L 161.65495022283758,40 L 163.14391632282386,40 L 163.17654613975938,40 L 163.2082979440481,40 L 164.69923509283328,40 L 164.71423298233083,40 L 164.7526325966597,40 L 166.2470638774067,40 L 166.27704173777636,40 L 166.31201889464518,40 L 167.79516144136178,40 L 167.8216272511442,40 L 167.8574645020344,40 L 169.34048161837285,40 L 169.37049531599342,40 L 169.4037881220704,40 L 170.89210915154064,40 L 170.91396987458367,40 L 170.94500493385456,40 L 172.43592416401432,40 L 172.460831053383,40 L 172.49295914880608,40 L 173.9869962197933,40 L 174.01638276552328,40 L 174.0420243185352,40 L 175.53400074759622,40 L 175.56682766941165,40 L 175.58974559135595,40 L 177.08417687210294,40 L 177.11306169632044,40 L 177.14631866514654,40 L 178.63284783207226,40 L 178.6610338298974,40 L 178.69506129961766,40 L 180.18010322063142,40 L 180.20576269226882,40 L 180.2377832759392,40 L 181.729670111873,40 L 181.75765900481824,40 L 181.79010963549933,40 L 183.27395100860826,40 L 183.31156220341754,40 L 183.33333333333334,40" stroke="#3b82f6" stroke-width="4" fill="none" opacity="0.4" stroke-dasharray="14750" stroke-dashoffset="14750">
      <animate attributeName="stroke-dashoffset" values="14750;0" dur="3s" begin="3.0999999999999996s" fill="freeze"/>
    </path>
    
    <!-- Animated circle that moves along the path and draws the line -->
    <circle r="5" fill="#3b82f6" opacity="0" filter="url(#trailGlow)">
      <animate attributeName="opacity" values="0;1;1;1" dur="3.2s" begin="2.9s" fill="freeze"/>
      <animate attributeName="r" values="5;6;5" dur="1s" begin="2.9s" repeatCount="3"/>
      <animateMotion dur="3s" begin="2.9s" fill="freeze">
        <mpath href="#path_publicContributions_293.33333333333337"/>
      </animateMotion>
    </circle>
    
    <!-- Small trail dots that fade out -->
    <circle r="2" fill="#3b82f6" opacity="0">
      <animate attributeName="opacity" values="0;0.6;0" dur="0.8s" begin="3.3s" fill="freeze"/>
      <animateMotion dur="3s" begin="2.9s" fill="freeze">
        <mpath href="#path_publicContributions_293.33333333333337"/>
      </animateMotion>
    </circle>
    
    <!-- Hidden path for motion animation -->
    <path id="path_publicContributions_293.33333333333337" d="M 30,160 L 30.028848986966615,160 L 31.559045844102037,160 L 31.57657025978735,160 L 31.60437996647815,160 L 33.0995100736175,160 L 33.12418402085541,160 L 33.154681521362974,160 L 34.647303020940015,160 L 34.67138565353824,160 L 34.698460696585784,160 L 36.19817797183909,160 L 36.224016629730926,160 L 36.25639558591023,160 L 37.74795988658601,160 L 37.7758054305277,160 L 37.8025041824409,160 L 39.29870940710696,160 L 39.31583961303248,160 L 39.3448498676281,160 L 40.8415030579303,160 L 40.86390133973667,160 L 40.889596648624945,160 L 42.38934976112914,160 L 42.410224959772684,160 L 42.44188717093418,160 L 43.93683809181909,160 L 43.95973809513793,160 L 43.98959052512947,160 L 45.48205075707751,160 L 45.50410858500043,160 L 45.5365950529324,160 L 47.02925238976033,160 L 47.06163134593963,160 L 47.094691209885845,160 L 48.58267178547261,160 L 48.60644980143826,160 L 48.63635598730613,160 L 50.13044681416967,160 L 50.15388437625187,160 L 50.183790562119746,160 L 51.67935071626979,160 L 51.710134914784476,160 L 51.74650972443803,160 L 53.22793208311188,160 L 53.25029452766737,160 L 53.278892653877755,160 L 54.77774983510969,160 L 54.79672565945606,160 L 54.82666768257482,160 L 56.320830183940146,160 L 56.343156791244745,160 L 56.3716653243279,160 L 56.41067417192189,160 L 57.873102787623935,160 L 57.90290146173914,160 L 57.932485112349,160 L 59.41745535886099,160 L 59.444745425413885,160 L 59.47325395849704,160 L 60.96829447250917,160 L 60.983632815890175,160 L 61.01963133440939,160 L 62.51481519742508,160 L 62.54025964555713,160 L 62.56117068145156,160 L 64.06414914653587,160 L 64.0881959418832,160 L 64.11745705723504,160 L 65.61316056038865,160 L 65.63885586927694,160 L 65.66702394847664,160 L 67.15995006468623,160 L 67.18035937906822,160 L 67.21187824122615,160 L 68.71091460871253,160 L 68.73295451801002,160 L 68.76386414690282,160 L 70.25799081101725,160 L 70.28366820128008,160 L 70.31459574879833,160 L 71.80526411820185,160 L 71.83004557719244,160 L 71.84859135452811,160 L 73.35040510895848,160 L 73.38545394032911,160 L 73.4091244445421,160 L 74.90192513037358,160 L 74.92598984434636,160 L 76.47596886397318,160 L 76.50238091787926,160 L 77.99471571944918,160 L 78.01793825802602,160 L 78.04558669708783,160 L 79.54634325261694,160 L 79.57522807683445,160 L 79.60278692276901,160 L 81.09453040969925,160 L 81.12422157206178,160 L 81.15319598940651,160 L 82.64536952334743,160 L 82.67307171828556,160 L 82.69690349012754,160 L 84.1891666171957,160 L 84.2174959640244,79.84313725490196 L 84.2465778931218,79.84313725490196 L 85.76570103973214,79.84313725490196 L 85.79161137212577,79.84313725490196 L 87.28100751912268,79.84313725490196 L 87.30885306306438,79.84313725490196 L 87.32750635215272,79.84313725490196 L 88.83302926205025,79.84313725490196 L 88.8607493756138,79.84313725490196 L 88.88906080381707,79.84313725490196 L 90.37825984593411,79.84313725490196 L 90.40709091427527,79.84313725490196 L 90.4425339554057,79.84313725490196 L 91.93279019642398,79.84313725490196 L 91.96303683617532,79.84313725490196 L 91.98455710533487,79.84313725490196 L 93.47992015460503,79.84313725490196 L 93.50412821758135,79.84313725490196 L 93.53376562406754,79.84313725490196 L 95.03063383787509,79.84313725490196 L 95.08550066898799,79.84313725490196 L 96.57452052485057,79.84313725490196 L 96.60419376858765,79.84313725490196 L 96.63153759101688,79.84313725490196 L 98.12437411409927,79.84313725490196 L 98.15245260017174,79.84313725490196 L 98.18176747139992,79.84313725490196 L 99.6731705044467,79.84313725490196 L 99.70180446790798,79.84313725490196 L 99.73402215645827,79.84313725490196 L 101.22062299788576,79.84313725490196 L 101.25076212588442,79.84313725490196 L 101.28172551065356,79.84313725490196 L 102.77146211153395,79.84313725490196 L 102.80102784351837,79.84313725490196 L 102.8292138413435,79.84313725490196 L 104.32176366641878,79.84313725490196 L 104.3430330748221,79.84313725490196 L 104.37247337642842,79.84313725490196 L 105.86448564274032,79.84313725490196 L 105.891847383795,79.84313725490196 L 105.92356335083282,79.84313725490196 L 107.41335370758954,79.84313725490196 L 107.44055418101522,79.84313725490196 L 107.47049620413398,79.84313725490196 L 108.96166629504995,79.84313725490196 L 108.98743327844001,79.84313725490196 L 109.0192030013542,79.84313725490196 L 110.51105400003708,79.84313725490196 L 110.53682098342713,79.84313725490196 L 110.56070651114547,79.84313725490196 L 112.0645271516257,79.84313725490196 L 112.08647746779594,79.84313725490196 L 112.11842637696456,79.84313725490196 L 113.6079837915905,79.84313725490196 L 113.63324905346809,79.84313725490196 L 113.66166799342403,79.84313725490196 L 115.15541836640412,79.84313725490196 L 115.17767329920693,79.84313725490196 L 115.21132447779283,79.84313725490196 L 116.70199284719637,79.84313725490196 L 116.72811820309532,79.84313725490196 L 116.76017462401661,79.84313725490196 L 118.24844189761048,79.84313725490196 L 118.27281122821583,79.84313725490196 L 118.3074837684521,79.84313725490196 L 119.79250777084042,79.84313725490196 L 119.82399079574746,79.84313725490196 L 119.85631599605044,79.84313725490196 L 121.3461242714326,79.84313725490196 L 121.37126410293207,79.84313725490196 L 121.40075816041471,79.84313725490196 L 122.89637207044109,79.84313725490196 L 122.92351878799042,79.84313725490196 L 122.95650697743484,79.84313725490196 L 124.44192518958296,79.84313725490196 L 124.47364115662079,79.84313725490196 L 124.50868998799142,79.84313725490196 L 125.99315851299093,79.84313725490196 L 126.01727698284003,79.84313725490196 L 126.04883168224886,79.84313725490196 L 127.54238495034905,79.84313725490196 L 127.56480115078088,79.84313725490196 L 127.59642752469148,79.84313725490196 L 129.08714964997134,79.84313725490196 L 129.1118773530856,79.84313725490196 L 129.14284073785473,79.84313725490196 L 130.63589228444243,79.84313725490196 L 130.66397077051494,79.84313725490196 L 132.18653429321074,79.84313725490196 L 132.21233711385167,79.84313725490196 L 132.23679603758427,79.84313725490196 L 133.73540235805996,79.84313725490196 L 133.76512935767337,79.84313725490196 L 133.79892388526284,79.84313725490196 L 135.27373427114748,79.84313725490196 L 135.3099836504229,79.84313725490196 L 135.3408932793157,79.84313725490196 L 136.82824670301187,79.84313725490196 L 136.8476525743689,79.84313725490196 L 136.8844395124077,79.84313725490196 L 138.3769176629812,79.84313725490196 L 138.40444067166487,79.84313725490196 L 138.43495609079787,79.84313725490196 L 139.92738048549504,79.84313725490196 L 139.95338041101587,79.84313725490196 L 139.98090341969956,79.84313725490196 L 141.47144635872496,79.84313725490196 L 141.50111960246207,79.84313725490196 L 141.53054198544294,79.84313725490196 L 143.01870174728413,79.84313725490196 L 143.0459022207098,79.84313725490196 L 143.0765789074718,79.84313725490196 L 144.57194195674197,79.84313725490196 L 144.60252905037675,79.84313725490196 L 144.63551723982118,79.84313725490196 L 146.122655640012,79.84313725490196 L 146.14578858546164,79.84313725490196 L 146.19691042385654,79.84313725490196 L 147.6715416234867,79.84313725490196 L 147.6950687786961,79.84313725490196 L 147.72463451068052,79.84313725490196 L 149.2145323791899,79.84313725490196 L 149.24216289962627,79.84313725490196 L 149.2713702591018,79.84313725490196 L 150.76200279125442,79.84313725490196 L 150.78861195004038,79.84313725490196 L 150.8193244740533,79.84313725490196 L 152.31121130998707,79.84313725490196 L 152.3391822843069,79.84313725490196 L 152.3647700814425,79.84313725490196 L 153.85723031339052,79.84313725490196 L 153.8848966710778,79.84313725490196 L 153.91396068154972,79.84313725490196 L 155.41229822264376,79.84313725490196 L 155.44145182624294,79.84313725490196 L 155.47193140812504,79.84313725490196 L 156.95460807058006,79.84313725490196 L 156.98392294180826,40 L 157.01433084918858,40 L 158.5090488279427,40 L 158.52987027070992,40 L 158.55819961753863,40 L 160.05143035038083,40 L 160.07135586187576,40 L 160.1094329409466,40 L 161.60180357976742,40 L 161.6305988108577,40 L 161.65495022283758,40 L 163.14391632282386,40 L 163.17654613975938,40 L 163.2082979440481,40 L 164.69923509283328,40 L 164.71423298233083,40 L 164.7526325966597,40 L 166.2470638774067,40 L 166.27704173777636,40 L 166.31201889464518,40 L 167.79516144136178,40 L 167.8216272511442,40 L 167.8574645020344,40 L 169.34048161837285,40 L 169.37049531599342,40 L 169.4037881220704,40 L 170.89210915154064,40 L 170.91396987458367,40 L 170.94500493385456,40 L 172.43592416401432,40 L 172.460831053383,40 L 172.49295914880608,40 L 173.9869962197933,40 L 174.01638276552328,40 L 174.0420243185352,40 L 175.53400074759622,40 L 175.56682766941165,40 L 175.58974559135595,40 L 177.08417687210294,40 L 177.11306169632044,40 L 177.14631866514654,40 L 178.63284783207226,40 L 178.6610338298974,40 L 178.69506129961766,40 L 180.18010322063142,40 L 180.20576269226882,40 L 180.2377832759392,40 L 181.729670111873,40 L 181.75765900481824,40 L 181.79010963549933,40 L 183.27395100860826,40 L 183.31156220341754,40 L 183.33333333333334,40" fill="none" stroke="none"/>
  </g>
  <!-- 📊 Total Contributions Chart -->
  <g transform="translate(526.6666666666667, 250)">
    <!-- Chart Background -->
    <rect x="0" y="0" width="213.33333333333334" height="200" fill="#0f172a" stroke="#334155" stroke-width="1" rx="8" filter="url(#shadow)">
      <animate attributeName="opacity" values="0;1" dur="0.5s" begin="2.8s" fill="freeze"/>
    </rect>
    
    <!-- Chart Title -->
    <text x="106.66666666666667" y="25" text-anchor="middle" fill="#f8fafc" font-size="14" font-weight="bold" font-family="Arial, sans-serif">
      📊 Total Contributions
      <animate attributeName="opacity" values="0;1" dur="0.5s" begin="3s" fill="freeze"/>
    </text>
    
    <!-- Y-axis labels -->
    <text x="10" y="45" fill="#94a3b8" font-size="10" font-family="Arial, sans-serif">4,917
      <animate attributeName="opacity" values="0;1" dur="0.5s" begin="3.1999999999999997s" fill="freeze"/>
    </text>
    <text x="10" y="185" fill="#94a3b8" font-size="10" font-family="Arial, sans-serif">3,802
      <animate attributeName="opacity" values="0;1" dur="0.5s" begin="3.1999999999999997s" fill="freeze"/>
    </text>
    
    <!-- Chart Line with draw animation that follows the circle -->
    <path d="M 30,160 L 30.028848986966615,160 L 31.559045844102037,160 L 31.57657025978735,160 L 31.60437996647815,160 L 33.0995100736175,160 L 33.12418402085541,160 L 33.154681521362974,160 L 34.647303020940015,160 L 34.67138565353824,160 L 34.698460696585784,160 L 36.19817797183909,160 L 36.224016629730926,160 L 36.25639558591023,160 L 37.74795988658601,160 L 37.7758054305277,160 L 37.8025041824409,160 L 39.29870940710696,160 L 39.31583961303248,160 L 39.3448498676281,160 L 40.8415030579303,160 L 40.86390133973667,160 L 40.889596648624945,160 L 42.38934976112914,160 L 42.410224959772684,160 L 42.44188717093418,160 L 43.93683809181909,160 L 43.95973809513793,160 L 43.98959052512947,160 L 45.48205075707751,160 L 45.50410858500043,160 L 45.5365950529324,160 L 47.02925238976033,160 L 47.06163134593963,160 L 47.094691209885845,160 L 48.58267178547261,160 L 48.60644980143826,160 L 48.63635598730613,160 L 50.13044681416967,160 L 50.15388437625187,160 L 50.183790562119746,160 L 51.67935071626979,160 L 51.710134914784476,160 L 51.74650972443803,160 L 53.22793208311188,160 L 53.25029452766737,160 L 53.278892653877755,160 L 54.77774983510969,160 L 54.79672565945606,160 L 54.82666768257482,160 L 56.320830183940146,160 L 56.343156791244745,160 L 56.3716653243279,160 L 56.41067417192189,160 L 57.873102787623935,160 L 57.90290146173914,160 L 57.932485112349,160 L 59.41745535886099,160 L 59.444745425413885,160 L 59.47325395849704,160 L 60.96829447250917,160 L 60.983632815890175,160 L 61.01963133440939,160 L 62.51481519742508,160 L 62.54025964555713,160 L 62.56117068145156,160 L 64.06414914653587,160 L 64.0881959418832,160 L 64.11745705723504,160 L 65.61316056038865,160 L 65.63885586927694,160 L 65.66702394847664,160 L 67.15995006468623,160 L 67.18035937906822,160 L 67.21187824122615,160 L 68.71091460871253,160 L 68.73295451801002,160 L 68.76386414690282,160 L 70.25799081101725,160 L 70.28366820128008,160 L 70.31459574879833,160 L 71.80526411820185,160 L 71.83004557719244,160 L 71.84859135452811,160 L 73.35040510895848,160 L 73.38545394032911,160 L 73.4091244445421,160 L 74.90192513037358,160 L 74.92598984434636,160 L 76.47596886397318,160 L 76.50238091787926,160 L 77.99471571944918,160 L 78.01793825802602,160 L 78.04558669708783,160 L 79.54634325261694,160 L 79.57522807683445,160 L 79.60278692276901,160 L 81.09453040969925,160 L 81.12422157206178,160 L 81.15319598940651,160 L 82.64536952334743,160 L 82.67307171828556,160 L 82.69690349012754,160 L 84.1891666171957,160 L 84.2174959640244,94.78026905829597 L 84.2465778931218,94.78026905829597 L 85.76570103973214,94.78026905829597 L 85.79161137212577,94.78026905829597 L 87.28100751912268,94.78026905829597 L 87.30885306306438,94.78026905829597 L 87.32750635215272,94.78026905829597 L 88.83302926205025,94.78026905829597 L 88.8607493756138,94.78026905829597 L 88.88906080381707,94.78026905829597 L 90.37825984593411,94.78026905829597 L 90.40709091427527,94.78026905829597 L 90.4425339554057,94.78026905829597 L 91.93279019642398,94.78026905829597 L 91.96303683617532,94.78026905829597 L 91.98455710533487,94.78026905829597 L 93.47992015460503,94.78026905829597 L 93.50412821758135,94.78026905829597 L 93.53376562406754,94.78026905829597 L 95.03063383787509,94.78026905829597 L 95.08550066898799,94.78026905829597 L 96.57452052485057,94.78026905829597 L 96.60419376858765,94.78026905829597 L 96.63153759101688,94.78026905829597 L 98.12437411409927,94.78026905829597 L 98.15245260017174,94.78026905829597 L 98.18176747139992,94.78026905829597 L 99.6731705044467,94.78026905829597 L 99.70180446790798,94.78026905829597 L 99.73402215645827,94.78026905829597 L 101.22062299788576,94.78026905829597 L 101.25076212588442,94.78026905829597 L 101.28172551065356,94.78026905829597 L 102.77146211153395,94.78026905829597 L 102.80102784351837,94.78026905829597 L 102.8292138413435,94.78026905829597 L 104.32176366641878,94.78026905829597 L 104.3430330748221,94.78026905829597 L 104.37247337642842,94.78026905829597 L 105.86448564274032,94.78026905829597 L 105.891847383795,94.78026905829597 L 105.92356335083282,94.78026905829597 L 107.41335370758954,94.78026905829597 L 107.44055418101522,94.78026905829597 L 107.47049620413398,94.78026905829597 L 108.96166629504995,94.78026905829597 L 108.98743327844001,94.78026905829597 L 109.0192030013542,94.78026905829597 L 110.51105400003708,94.78026905829597 L 110.53682098342713,94.78026905829597 L 110.56070651114547,94.78026905829597 L 112.0645271516257,94.78026905829597 L 112.08647746779594,94.78026905829597 L 112.11842637696456,94.78026905829597 L 113.6079837915905,94.78026905829597 L 113.63324905346809,94.78026905829597 L 113.66166799342403,94.78026905829597 L 115.15541836640412,94.78026905829597 L 115.17767329920693,94.78026905829597 L 115.21132447779283,94.78026905829597 L 116.70199284719637,94.78026905829597 L 116.72811820309532,94.78026905829597 L 116.76017462401661,94.78026905829597 L 118.24844189761048,94.78026905829597 L 118.27281122821583,94.78026905829597 L 118.3074837684521,94.78026905829597 L 119.79250777084042,94.78026905829597 L 119.82399079574746,94.78026905829597 L 119.85631599605044,94.78026905829597 L 121.3461242714326,94.78026905829597 L 121.37126410293207,94.78026905829597 L 121.40075816041471,94.78026905829597 L 122.89637207044109,94.78026905829597 L 122.92351878799042,94.78026905829597 L 122.95650697743484,94.78026905829597 L 124.44192518958296,94.78026905829597 L 124.47364115662079,94.78026905829597 L 124.50868998799142,94.78026905829597 L 125.99315851299093,94.78026905829597 L 126.01727698284003,94.78026905829597 L 126.04883168224886,94.78026905829597 L 127.54238495034905,94.78026905829597 L 127.56480115078088,94.78026905829597 L 127.59642752469148,94.78026905829597 L 129.08714964997134,94.78026905829597 L 129.1118773530856,94.78026905829597 L 129.14284073785473,94.78026905829597 L 130.63589228444243,94.78026905829597 L 130.66397077051494,94.78026905829597 L 132.18653429321074,94.78026905829597 L 132.21233711385167,94.78026905829597 L 132.23679603758427,94.78026905829597 L 133.73540235805996,94.78026905829597 L 133.76512935767337,94.78026905829597 L 133.79892388526284,94.78026905829597 L 135.27373427114748,94.78026905829597 L 135.3099836504229,94.78026905829597 L 135.3408932793157,94.78026905829597 L 136.82824670301187,94.78026905829597 L 136.8476525743689,94.78026905829597 L 136.8844395124077,94.78026905829597 L 138.3769176629812,94.78026905829597 L 138.40444067166487,94.78026905829597 L 138.43495609079787,94.78026905829597 L 139.92738048549504,94.78026905829597 L 139.95338041101587,94.78026905829597 L 139.98090341969956,94.78026905829597 L 141.47144635872496,94.78026905829597 L 141.50111960246207,94.78026905829597 L 141.53054198544294,94.78026905829597 L 143.01870174728413,94.78026905829597 L 143.0459022207098,94.78026905829597 L 143.0765789074718,94.78026905829597 L 144.57194195674197,94.78026905829597 L 144.60252905037675,94.78026905829597 L 144.63551723982118,94.78026905829597 L 146.122655640012,94.78026905829597 L 146.14578858546164,94.78026905829597 L 146.19691042385654,94.78026905829597 L 147.6715416234867,94.78026905829597 L 147.6950687786961,94.78026905829597 L 147.72463451068052,94.78026905829597 L 149.2145323791899,94.78026905829597 L 149.24216289962627,94.78026905829597 L 149.2713702591018,94.78026905829597 L 150.76200279125442,94.78026905829597 L 150.78861195004038,94.78026905829597 L 150.8193244740533,94.78026905829597 L 152.31121130998707,94.78026905829597 L 152.3391822843069,94.78026905829597 L 152.3647700814425,94.78026905829597 L 153.85723031339052,94.78026905829597 L 153.8848966710778,94.78026905829597 L 153.91396068154972,94.78026905829597 L 155.41229822264376,94.78026905829597 L 155.44145182624294,94.78026905829597 L 155.47193140812504,94.78026905829597 L 156.95460807058006,94.78026905829597 L 156.98392294180826,40 L 157.01433084918858,40 L 158.5090488279427,40 L 158.52987027070992,40 L 158.55819961753863,40 L 160.05143035038083,40 L 160.07135586187576,40 L 160.1094329409466,40 L 161.60180357976742,40 L 161.6305988108577,40 L 161.65495022283758,40 L 163.14391632282386,40 L 163.17654613975938,40 L 163.2082979440481,40 L 164.69923509283328,40 L 164.71423298233083,40 L 164.7526325966597,40 L 166.2470638774067,40 L 166.27704173777636,40 L 166.31201889464518,40 L 167.79516144136178,40 L 167.8216272511442,40 L 167.8574645020344,40 L 169.34048161837285,40 L 169.37049531599342,40 L 169.4037881220704,40 L 170.89210915154064,40 L 170.91396987458367,40 L 170.94500493385456,40 L 172.43592416401432,40 L 172.460831053383,40 L 172.49295914880608,40 L 173.9869962197933,40 L 174.01638276552328,40 L 174.0420243185352,40 L 175.53400074759622,40 L 175.56682766941165,40 L 175.58974559135595,40 L 177.08417687210294,40 L 177.11306169632044,40 L 177.14631866514654,40 L 178.63284783207226,40 L 178.6610338298974,40 L 178.69506129961766,40 L 180.18010322063142,40 L 180.20576269226882,40 L 180.2377832759392,40 L 181.729670111873,40 L 181.75765900481824,40 L 181.79010963549933,40 L 183.27395100860826,40 L 183.31156220341754,40 L 183.33333333333334,40" stroke="#f59e0b" stroke-width="2" fill="none" stroke-dasharray="14750" stroke-dashoffset="14750">
      <animate attributeName="stroke-dashoffset" values="14750;0" dur="3s" begin="3.5999999999999996s" fill="freeze"/>
    </path>
    
    <!-- Glow effect for the line that also follows the circle -->
    <path d="M 30,160 L 30.028848986966615,160 L 31.559045844102037,160 L 31.57657025978735,160 L 31.60437996647815,160 L 33.0995100736175,160 L 33.12418402085541,160 L 33.154681521362974,160 L 34.647303020940015,160 L 34.67138565353824,160 L 34.698460696585784,160 L 36.19817797183909,160 L 36.224016629730926,160 L 36.25639558591023,160 L 37.74795988658601,160 L 37.7758054305277,160 L 37.8025041824409,160 L 39.29870940710696,160 L 39.31583961303248,160 L 39.3448498676281,160 L 40.8415030579303,160 L 40.86390133973667,160 L 40.889596648624945,160 L 42.38934976112914,160 L 42.410224959772684,160 L 42.44188717093418,160 L 43.93683809181909,160 L 43.95973809513793,160 L 43.98959052512947,160 L 45.48205075707751,160 L 45.50410858500043,160 L 45.5365950529324,160 L 47.02925238976033,160 L 47.06163134593963,160 L 47.094691209885845,160 L 48.58267178547261,160 L 48.60644980143826,160 L 48.63635598730613,160 L 50.13044681416967,160 L 50.15388437625187,160 L 50.183790562119746,160 L 51.67935071626979,160 L 51.710134914784476,160 L 51.74650972443803,160 L 53.22793208311188,160 L 53.25029452766737,160 L 53.278892653877755,160 L 54.77774983510969,160 L 54.79672565945606,160 L 54.82666768257482,160 L 56.320830183940146,160 L 56.343156791244745,160 L 56.3716653243279,160 L 56.41067417192189,160 L 57.873102787623935,160 L 57.90290146173914,160 L 57.932485112349,160 L 59.41745535886099,160 L 59.444745425413885,160 L 59.47325395849704,160 L 60.96829447250917,160 L 60.983632815890175,160 L 61.01963133440939,160 L 62.51481519742508,160 L 62.54025964555713,160 L 62.56117068145156,160 L 64.06414914653587,160 L 64.0881959418832,160 L 64.11745705723504,160 L 65.61316056038865,160 L 65.63885586927694,160 L 65.66702394847664,160 L 67.15995006468623,160 L 67.18035937906822,160 L 67.21187824122615,160 L 68.71091460871253,160 L 68.73295451801002,160 L 68.76386414690282,160 L 70.25799081101725,160 L 70.28366820128008,160 L 70.31459574879833,160 L 71.80526411820185,160 L 71.83004557719244,160 L 71.84859135452811,160 L 73.35040510895848,160 L 73.38545394032911,160 L 73.4091244445421,160 L 74.90192513037358,160 L 74.92598984434636,160 L 76.47596886397318,160 L 76.50238091787926,160 L 77.99471571944918,160 L 78.01793825802602,160 L 78.04558669708783,160 L 79.54634325261694,160 L 79.57522807683445,160 L 79.60278692276901,160 L 81.09453040969925,160 L 81.12422157206178,160 L 81.15319598940651,160 L 82.64536952334743,160 L 82.67307171828556,160 L 82.69690349012754,160 L 84.1891666171957,160 L 84.2174959640244,94.78026905829597 L 84.2465778931218,94.78026905829597 L 85.76570103973214,94.78026905829597 L 85.79161137212577,94.78026905829597 L 87.28100751912268,94.78026905829597 L 87.30885306306438,94.78026905829597 L 87.32750635215272,94.78026905829597 L 88.83302926205025,94.78026905829597 L 88.8607493756138,94.78026905829597 L 88.88906080381707,94.78026905829597 L 90.37825984593411,94.78026905829597 L 90.40709091427527,94.78026905829597 L 90.4425339554057,94.78026905829597 L 91.93279019642398,94.78026905829597 L 91.96303683617532,94.78026905829597 L 91.98455710533487,94.78026905829597 L 93.47992015460503,94.78026905829597 L 93.50412821758135,94.78026905829597 L 93.53376562406754,94.78026905829597 L 95.03063383787509,94.78026905829597 L 95.08550066898799,94.78026905829597 L 96.57452052485057,94.78026905829597 L 96.60419376858765,94.78026905829597 L 96.63153759101688,94.78026905829597 L 98.12437411409927,94.78026905829597 L 98.15245260017174,94.78026905829597 L 98.18176747139992,94.78026905829597 L 99.6731705044467,94.78026905829597 L 99.70180446790798,94.78026905829597 L 99.73402215645827,94.78026905829597 L 101.22062299788576,94.78026905829597 L 101.25076212588442,94.78026905829597 L 101.28172551065356,94.78026905829597 L 102.77146211153395,94.78026905829597 L 102.80102784351837,94.78026905829597 L 102.8292138413435,94.78026905829597 L 104.32176366641878,94.78026905829597 L 104.3430330748221,94.78026905829597 L 104.37247337642842,94.78026905829597 L 105.86448564274032,94.78026905829597 L 105.891847383795,94.78026905829597 L 105.92356335083282,94.78026905829597 L 107.41335370758954,94.78026905829597 L 107.44055418101522,94.78026905829597 L 107.47049620413398,94.78026905829597 L 108.96166629504995,94.78026905829597 L 108.98743327844001,94.78026905829597 L 109.0192030013542,94.78026905829597 L 110.51105400003708,94.78026905829597 L 110.53682098342713,94.78026905829597 L 110.56070651114547,94.78026905829597 L 112.0645271516257,94.78026905829597 L 112.08647746779594,94.78026905829597 L 112.11842637696456,94.78026905829597 L 113.6079837915905,94.78026905829597 L 113.63324905346809,94.78026905829597 L 113.66166799342403,94.78026905829597 L 115.15541836640412,94.78026905829597 L 115.17767329920693,94.78026905829597 L 115.21132447779283,94.78026905829597 L 116.70199284719637,94.78026905829597 L 116.72811820309532,94.78026905829597 L 116.76017462401661,94.78026905829597 L 118.24844189761048,94.78026905829597 L 118.27281122821583,94.78026905829597 L 118.3074837684521,94.78026905829597 L 119.79250777084042,94.78026905829597 L 119.82399079574746,94.78026905829597 L 119.85631599605044,94.78026905829597 L 121.3461242714326,94.78026905829597 L 121.37126410293207,94.78026905829597 L 121.40075816041471,94.78026905829597 L 122.89637207044109,94.78026905829597 L 122.92351878799042,94.78026905829597 L 122.95650697743484,94.78026905829597 L 124.44192518958296,94.78026905829597 L 124.47364115662079,94.78026905829597 L 124.50868998799142,94.78026905829597 L 125.99315851299093,94.78026905829597 L 126.01727698284003,94.78026905829597 L 126.04883168224886,94.78026905829597 L 127.54238495034905,94.78026905829597 L 127.56480115078088,94.78026905829597 L 127.59642752469148,94.78026905829597 L 129.08714964997134,94.78026905829597 L 129.1118773530856,94.78026905829597 L 129.14284073785473,94.78026905829597 L 130.63589228444243,94.78026905829597 L 130.66397077051494,94.78026905829597 L 132.18653429321074,94.78026905829597 L 132.21233711385167,94.78026905829597 L 132.23679603758427,94.78026905829597 L 133.73540235805996,94.78026905829597 L 133.76512935767337,94.78026905829597 L 133.79892388526284,94.78026905829597 L 135.27373427114748,94.78026905829597 L 135.3099836504229,94.78026905829597 L 135.3408932793157,94.78026905829597 L 136.82824670301187,94.78026905829597 L 136.8476525743689,94.78026905829597 L 136.8844395124077,94.78026905829597 L 138.3769176629812,94.78026905829597 L 138.40444067166487,94.78026905829597 L 138.43495609079787,94.78026905829597 L 139.92738048549504,94.78026905829597 L 139.95338041101587,94.78026905829597 L 139.98090341969956,94.78026905829597 L 141.47144635872496,94.78026905829597 L 141.50111960246207,94.78026905829597 L 141.53054198544294,94.78026905829597 L 143.01870174728413,94.78026905829597 L 143.0459022207098,94.78026905829597 L 143.0765789074718,94.78026905829597 L 144.57194195674197,94.78026905829597 L 144.60252905037675,94.78026905829597 L 144.63551723982118,94.78026905829597 L 146.122655640012,94.78026905829597 L 146.14578858546164,94.78026905829597 L 146.19691042385654,94.78026905829597 L 147.6715416234867,94.78026905829597 L 147.6950687786961,94.78026905829597 L 147.72463451068052,94.78026905829597 L 149.2145323791899,94.78026905829597 L 149.24216289962627,94.78026905829597 L 149.2713702591018,94.78026905829597 L 150.76200279125442,94.78026905829597 L 150.78861195004038,94.78026905829597 L 150.8193244740533,94.78026905829597 L 152.31121130998707,94.78026905829597 L 152.3391822843069,94.78026905829597 L 152.3647700814425,94.78026905829597 L 153.85723031339052,94.78026905829597 L 153.8848966710778,94.78026905829597 L 153.91396068154972,94.78026905829597 L 155.41229822264376,94.78026905829597 L 155.44145182624294,94.78026905829597 L 155.47193140812504,94.78026905829597 L 156.95460807058006,94.78026905829597 L 156.98392294180826,40 L 157.01433084918858,40 L 158.5090488279427,40 L 158.52987027070992,40 L 158.55819961753863,40 L 160.05143035038083,40 L 160.07135586187576,40 L 160.1094329409466,40 L 161.60180357976742,40 L 161.6305988108577,40 L 161.65495022283758,40 L 163.14391632282386,40 L 163.17654613975938,40 L 163.2082979440481,40 L 164.69923509283328,40 L 164.71423298233083,40 L 164.7526325966597,40 L 166.2470638774067,40 L 166.27704173777636,40 L 166.31201889464518,40 L 167.79516144136178,40 L 167.8216272511442,40 L 167.8574645020344,40 L 169.34048161837285,40 L 169.37049531599342,40 L 169.4037881220704,40 L 170.89210915154064,40 L 170.91396987458367,40 L 170.94500493385456,40 L 172.43592416401432,40 L 172.460831053383,40 L 172.49295914880608,40 L 173.9869962197933,40 L 174.01638276552328,40 L 174.0420243185352,40 L 175.53400074759622,40 L 175.56682766941165,40 L 175.58974559135595,40 L 177.08417687210294,40 L 177.11306169632044,40 L 177.14631866514654,40 L 178.63284783207226,40 L 178.6610338298974,40 L 178.69506129961766,40 L 180.18010322063142,40 L 180.20576269226882,40 L 180.2377832759392,40 L 181.729670111873,40 L 181.75765900481824,40 L 181.79010963549933,40 L 183.27395100860826,40 L 183.31156220341754,40 L 183.33333333333334,40" stroke="#f59e0b" stroke-width="4" fill="none" opacity="0.4" stroke-dasharray="14750" stroke-dashoffset="14750">
      <animate attributeName="stroke-dashoffset" values="14750;0" dur="3s" begin="3.5999999999999996s" fill="freeze"/>
    </path>
    
    <!-- Animated circle that moves along the path and draws the line -->
    <circle r="5" fill="#f59e0b" opacity="0" filter="url(#trailGlow)">
      <animate attributeName="opacity" values="0;1;1;1" dur="3.2s" begin="3.4s" fill="freeze"/>
      <animate attributeName="r" values="5;6;5" dur="1s" begin="3.4s" repeatCount="3"/>
      <animateMotion dur="3s" begin="3.4s" fill="freeze">
        <mpath href="#path_totalContributions_526.6666666666667"/>
      </animateMotion>
    </circle>
    
    <!-- Small trail dots that fade out -->
    <circle r="2" fill="#f59e0b" opacity="0">
      <animate attributeName="opacity" values="0;0.6;0" dur="0.8s" begin="3.8s" fill="freeze"/>
      <animateMotion dur="3s" begin="3.4s" fill="freeze">
        <mpath href="#path_totalContributions_526.6666666666667"/>
      </animateMotion>
    </circle>
    
    <!-- Hidden path for motion animation -->
    <path id="path_totalContributions_526.6666666666667" d="M 30,160 L 30.028848986966615,160 L 31.559045844102037,160 L 31.57657025978735,160 L 31.60437996647815,160 L 33.0995100736175,160 L 33.12418402085541,160 L 33.154681521362974,160 L 34.647303020940015,160 L 34.67138565353824,160 L 34.698460696585784,160 L 36.19817797183909,160 L 36.224016629730926,160 L 36.25639558591023,160 L 37.74795988658601,160 L 37.7758054305277,160 L 37.8025041824409,160 L 39.29870940710696,160 L 39.31583961303248,160 L 39.3448498676281,160 L 40.8415030579303,160 L 40.86390133973667,160 L 40.889596648624945,160 L 42.38934976112914,160 L 42.410224959772684,160 L 42.44188717093418,160 L 43.93683809181909,160 L 43.95973809513793,160 L 43.98959052512947,160 L 45.48205075707751,160 L 45.50410858500043,160 L 45.5365950529324,160 L 47.02925238976033,160 L 47.06163134593963,160 L 47.094691209885845,160 L 48.58267178547261,160 L 48.60644980143826,160 L 48.63635598730613,160 L 50.13044681416967,160 L 50.15388437625187,160 L 50.183790562119746,160 L 51.67935071626979,160 L 51.710134914784476,160 L 51.74650972443803,160 L 53.22793208311188,160 L 53.25029452766737,160 L 53.278892653877755,160 L 54.77774983510969,160 L 54.79672565945606,160 L 54.82666768257482,160 L 56.320830183940146,160 L 56.343156791244745,160 L 56.3716653243279,160 L 56.41067417192189,160 L 57.873102787623935,160 L 57.90290146173914,160 L 57.932485112349,160 L 59.41745535886099,160 L 59.444745425413885,160 L 59.47325395849704,160 L 60.96829447250917,160 L 60.983632815890175,160 L 61.01963133440939,160 L 62.51481519742508,160 L 62.54025964555713,160 L 62.56117068145156,160 L 64.06414914653587,160 L 64.0881959418832,160 L 64.11745705723504,160 L 65.61316056038865,160 L 65.63885586927694,160 L 65.66702394847664,160 L 67.15995006468623,160 L 67.18035937906822,160 L 67.21187824122615,160 L 68.71091460871253,160 L 68.73295451801002,160 L 68.76386414690282,160 L 70.25799081101725,160 L 70.28366820128008,160 L 70.31459574879833,160 L 71.80526411820185,160 L 71.83004557719244,160 L 71.84859135452811,160 L 73.35040510895848,160 L 73.38545394032911,160 L 73.4091244445421,160 L 74.90192513037358,160 L 74.92598984434636,160 L 76.47596886397318,160 L 76.50238091787926,160 L 77.99471571944918,160 L 78.01793825802602,160 L 78.04558669708783,160 L 79.54634325261694,160 L 79.57522807683445,160 L 79.60278692276901,160 L 81.09453040969925,160 L 81.12422157206178,160 L 81.15319598940651,160 L 82.64536952334743,160 L 82.67307171828556,160 L 82.69690349012754,160 L 84.1891666171957,160 L 84.2174959640244,94.78026905829597 L 84.2465778931218,94.78026905829597 L 85.76570103973214,94.78026905829597 L 85.79161137212577,94.78026905829597 L 87.28100751912268,94.78026905829597 L 87.30885306306438,94.78026905829597 L 87.32750635215272,94.78026905829597 L 88.83302926205025,94.78026905829597 L 88.8607493756138,94.78026905829597 L 88.88906080381707,94.78026905829597 L 90.37825984593411,94.78026905829597 L 90.40709091427527,94.78026905829597 L 90.4425339554057,94.78026905829597 L 91.93279019642398,94.78026905829597 L 91.96303683617532,94.78026905829597 L 91.98455710533487,94.78026905829597 L 93.47992015460503,94.78026905829597 L 93.50412821758135,94.78026905829597 L 93.53376562406754,94.78026905829597 L 95.03063383787509,94.78026905829597 L 95.08550066898799,94.78026905829597 L 96.57452052485057,94.78026905829597 L 96.60419376858765,94.78026905829597 L 96.63153759101688,94.78026905829597 L 98.12437411409927,94.78026905829597 L 98.15245260017174,94.78026905829597 L 98.18176747139992,94.78026905829597 L 99.6731705044467,94.78026905829597 L 99.70180446790798,94.78026905829597 L 99.73402215645827,94.78026905829597 L 101.22062299788576,94.78026905829597 L 101.25076212588442,94.78026905829597 L 101.28172551065356,94.78026905829597 L 102.77146211153395,94.78026905829597 L 102.80102784351837,94.78026905829597 L 102.8292138413435,94.78026905829597 L 104.32176366641878,94.78026905829597 L 104.3430330748221,94.78026905829597 L 104.37247337642842,94.78026905829597 L 105.86448564274032,94.78026905829597 L 105.891847383795,94.78026905829597 L 105.92356335083282,94.78026905829597 L 107.41335370758954,94.78026905829597 L 107.44055418101522,94.78026905829597 L 107.47049620413398,94.78026905829597 L 108.96166629504995,94.78026905829597 L 108.98743327844001,94.78026905829597 L 109.0192030013542,94.78026905829597 L 110.51105400003708,94.78026905829597 L 110.53682098342713,94.78026905829597 L 110.56070651114547,94.78026905829597 L 112.0645271516257,94.78026905829597 L 112.08647746779594,94.78026905829597 L 112.11842637696456,94.78026905829597 L 113.6079837915905,94.78026905829597 L 113.63324905346809,94.78026905829597 L 113.66166799342403,94.78026905829597 L 115.15541836640412,94.78026905829597 L 115.17767329920693,94.78026905829597 L 115.21132447779283,94.78026905829597 L 116.70199284719637,94.78026905829597 L 116.72811820309532,94.78026905829597 L 116.76017462401661,94.78026905829597 L 118.24844189761048,94.78026905829597 L 118.27281122821583,94.78026905829597 L 118.3074837684521,94.78026905829597 L 119.79250777084042,94.78026905829597 L 119.82399079574746,94.78026905829597 L 119.85631599605044,94.78026905829597 L 121.3461242714326,94.78026905829597 L 121.37126410293207,94.78026905829597 L 121.40075816041471,94.78026905829597 L 122.89637207044109,94.78026905829597 L 122.92351878799042,94.78026905829597 L 122.95650697743484,94.78026905829597 L 124.44192518958296,94.78026905829597 L 124.47364115662079,94.78026905829597 L 124.50868998799142,94.78026905829597 L 125.99315851299093,94.78026905829597 L 126.01727698284003,94.78026905829597 L 126.04883168224886,94.78026905829597 L 127.54238495034905,94.78026905829597 L 127.56480115078088,94.78026905829597 L 127.59642752469148,94.78026905829597 L 129.08714964997134,94.78026905829597 L 129.1118773530856,94.78026905829597 L 129.14284073785473,94.78026905829597 L 130.63589228444243,94.78026905829597 L 130.66397077051494,94.78026905829597 L 132.18653429321074,94.78026905829597 L 132.21233711385167,94.78026905829597 L 132.23679603758427,94.78026905829597 L 133.73540235805996,94.78026905829597 L 133.76512935767337,94.78026905829597 L 133.79892388526284,94.78026905829597 L 135.27373427114748,94.78026905829597 L 135.3099836504229,94.78026905829597 L 135.3408932793157,94.78026905829597 L 136.82824670301187,94.78026905829597 L 136.8476525743689,94.78026905829597 L 136.8844395124077,94.78026905829597 L 138.3769176629812,94.78026905829597 L 138.40444067166487,94.78026905829597 L 138.43495609079787,94.78026905829597 L 139.92738048549504,94.78026905829597 L 139.95338041101587,94.78026905829597 L 139.98090341969956,94.78026905829597 L 141.47144635872496,94.78026905829597 L 141.50111960246207,94.78026905829597 L 141.53054198544294,94.78026905829597 L 143.01870174728413,94.78026905829597 L 143.0459022207098,94.78026905829597 L 143.0765789074718,94.78026905829597 L 144.57194195674197,94.78026905829597 L 144.60252905037675,94.78026905829597 L 144.63551723982118,94.78026905829597 L 146.122655640012,94.78026905829597 L 146.14578858546164,94.78026905829597 L 146.19691042385654,94.78026905829597 L 147.6715416234867,94.78026905829597 L 147.6950687786961,94.78026905829597 L 147.72463451068052,94.78026905829597 L 149.2145323791899,94.78026905829597 L 149.24216289962627,94.78026905829597 L 149.2713702591018,94.78026905829597 L 150.76200279125442,94.78026905829597 L 150.78861195004038,94.78026905829597 L 150.8193244740533,94.78026905829597 L 152.31121130998707,94.78026905829597 L 152.3391822843069,94.78026905829597 L 152.3647700814425,94.78026905829597 L 153.85723031339052,94.78026905829597 L 153.8848966710778,94.78026905829597 L 153.91396068154972,94.78026905829597 L 155.41229822264376,94.78026905829597 L 155.44145182624294,94.78026905829597 L 155.47193140812504,94.78026905829597 L 156.95460807058006,94.78026905829597 L 156.98392294180826,40 L 157.01433084918858,40 L 158.5090488279427,40 L 158.52987027070992,40 L 158.55819961753863,40 L 160.05143035038083,40 L 160.07135586187576,40 L 160.1094329409466,40 L 161.60180357976742,40 L 161.6305988108577,40 L 161.65495022283758,40 L 163.14391632282386,40 L 163.17654613975938,40 L 163.2082979440481,40 L 164.69923509283328,40 L 164.71423298233083,40 L 164.7526325966597,40 L 166.2470638774067,40 L 166.27704173777636,40 L 166.31201889464518,40 L 167.79516144136178,40 L 167.8216272511442,40 L 167.8574645020344,40 L 169.34048161837285,40 L 169.37049531599342,40 L 169.4037881220704,40 L 170.89210915154064,40 L 170.91396987458367,40 L 170.94500493385456,40 L 172.43592416401432,40 L 172.460831053383,40 L 172.49295914880608,40 L 173.9869962197933,40 L 174.01638276552328,40 L 174.0420243185352,40 L 175.53400074759622,40 L 175.56682766941165,40 L 175.58974559135595,40 L 177.08417687210294,40 L 177.11306169632044,40 L 177.14631866514654,40 L 178.63284783207226,40 L 178.6610338298974,40 L 178.69506129961766,40 L 180.18010322063142,40 L 180.20576269226882,40 L 180.2377832759392,40 L 181.729670111873,40 L 181.75765900481824,40 L 181.79010963549933,40 L 183.27395100860826,40 L 183.31156220341754,40 L 183.33333333333334,40" fill="none" stroke="none"/>
  </g>
  
  <!-- Footer -->
  <text x="400" y="580" text-anchor="middle" fill="#64748b" font-size="12" font-family="Arial, sans-serif">
    Generated by GitHub User Rank Tracker • 12/25/2025
    <animate attributeName="opacity" values="0;1" dur="0.5s" begin="5s" fill="freeze"/>
  </text>
</svg>