<svg width="800" height="600" xmlns="http://www.w3.org/2000/svg">
  <defs>
    <linearGradient id="bgGradient" x1="0%" y1="0%" x2="100%" y2="100%">
      <stop offset="0%" style="stop-color:#f8fafc;stop-opacity:1" />
      <stop offset="100%" style="stop-color:#e2e8f0;stop-opacity:1" />
    </linearGradient>
    <filter id="shadow" x="-20%" y="-20%" width="140%" height="140%">
      <feDropShadow dx="2" dy="2" stdDeviation="3" flood-color="#00000020" flood-opacity="0.1"/>
    </filter>
    <!-- Trail effect filter -->
    <filter id="trailGlow" x="-50%" y="-50%" width="200%" height="200%">
      <feGaussianBlur stdDeviation="3" result="coloredBlur"/>
      <feMerge> 
        <feMergeNode in="coloredBlur"/>
        <feMergeNode in="SourceGraphic"/>
      </feMerge>
    </filter>
  </defs>
  
  <!-- Background -->
  <rect width="800" height="600" fill="url(#bgGradient)" rx="12"/>
  
  <!-- Header -->
  <text x="400" y="40" text-anchor="middle" fill="#0f172a" font-size="24" font-weight="bold" font-family="Arial, sans-serif">
    GitHub Progress Report
    <animate attributeName="opacity" values="0;1" dur="0.8s" begin="0s" fill="freeze"/>
    <animateTransform attributeName="transform" type="translate" values="0,-20;0,0" dur="0.8s" begin="0s" fill="freeze"/>
  </text>
  
  <!-- User Info -->
  <text x="400" y="70" text-anchor="middle" fill="#475569" font-size="16" font-family="Arial, sans-serif">
    @maifeeulasad • BANGLADESH • 100 days analyzed
    <animate attributeName="opacity" values="0;1" dur="0.6s" begin="0.3s" fill="freeze"/>
  </text>
  
  <!-- Progress Cards -->
  <!-- Followers Card -->
  <g transform="translate(60, 100)">
    <rect width="206.66666666666666" height="120" fill="#ffffff" stroke="#e2e8f0" stroke-width="1" rx="8" filter="url(#shadow)">
      <animate attributeName="opacity" values="0;1" dur="0.6s" begin="0.2s" fill="freeze"/>
      <animateTransform attributeName="transform" type="scale" values="0.8;1" dur="0.6s" begin="0.2s" fill="freeze"/>
    </rect>
    <text x="103.33333333333333" y="25" text-anchor="middle" fill="#64748b" font-size="14" font-weight="bold" font-family="Arial, sans-serif">FOLLOWERS
      <animate attributeName="opacity" values="0;1" dur="0.5s" begin="0.4s" fill="freeze"/>
    </text>
    
    <text x="103.33333333333333" y="50" text-anchor="middle" fill="#ef4444" font-size="32" font-weight="bold" font-family="Arial, sans-serif">
      ↘
      <animate attributeName="opacity" values="0;1" dur="0.5s" begin="0.6s" fill="freeze"/>
      <animateTransform attributeName="transform" type="scale" values="0;1.2;1" dur="0.8s" begin="0.6s" fill="freeze"/>
    </text>
    
    <text x="103.33333333333333" y="75" text-anchor="middle" fill="#1e293b" font-size="18" font-weight="bold" font-family="Arial, sans-serif">
      -14
      <animate attributeName="opacity" values="0;1" dur="0.5s" begin="0.8s" fill="freeze"/>
    </text>
    
    <text x="103.33333333333333" y="95" text-anchor="middle" fill="#64748b" font-size="12" font-family="Arial, sans-serif">
      #458 → #472
      <animate attributeName="opacity" values="0;1" dur="0.5s" begin="1s" fill="freeze"/>
    </text>
  </g>
  
  <!-- Public Contributions Card -->
  <g transform="translate(296.66666666666663, 100)">
    <rect width="206.66666666666666" height="120" fill="#ffffff" stroke="#e2e8f0" stroke-width="1" rx="8" filter="url(#shadow)">
      <animate attributeName="opacity" values="0;1" dur="0.6s" begin="0.4s" fill="freeze"/>
      <animateTransform attributeName="transform" type="scale" values="0.8;1" dur="0.6s" begin="0.4s" fill="freeze"/>
    </rect>
    <text x="103.33333333333333" y="25" text-anchor="middle" fill="#64748b" font-size="14" font-weight="bold" font-family="Arial, sans-serif">PUBLIC
      <animate attributeName="opacity" values="0;1" dur="0.5s" begin="0.6s" fill="freeze"/>
    </text>
    
    <text x="103.33333333333333" y="50" text-anchor="middle" fill="#6b7280" font-size="32" font-weight="bold" font-family="Arial, sans-serif">
      →
      <animate attributeName="opacity" values="0;1" dur="0.5s" begin="0.8s" fill="freeze"/>
      <animateTransform attributeName="transform" type="scale" values="0;1.2;1" dur="0.8s" begin="0.8s" fill="freeze"/>
    </text>
    
    <text x="103.33333333333333" y="75" text-anchor="middle" fill="#1e293b" font-size="18" font-weight="bold" font-family="Arial, sans-serif">
      0
      <animate attributeName="opacity" values="0;1" dur="0.5s" begin="1s" fill="freeze"/>
    </text>
    
    <text x="103.33333333333333" y="95" text-anchor="middle" fill="#64748b" font-size="12" font-family="Arial, sans-serif">
      #6 → #6
      <animate attributeName="opacity" values="0;1" dur="0.5s" begin="1.2s" fill="freeze"/>
    </text>
  </g>
  
  <!-- Total Contributions Card -->
  <g transform="translate(533.3333333333333, 100)">
    <rect width="206.66666666666666" height="120" fill="#ffffff" stroke="#e2e8f0" stroke-width="1" rx="8" filter="url(#shadow)">
      <animate attributeName="opacity" values="0;1" dur="0.6s" begin="0.6s" fill="freeze"/>
      <animateTransform attributeName="transform" type="scale" values="0.8;1" dur="0.6s" begin="0.6s" fill="freeze"/>
    </rect>
    <text x="103.33333333333333" y="25" text-anchor="middle" fill="#64748b" font-size="14" font-weight="bold" font-family="Arial, sans-serif">TOTAL
      <animate attributeName="opacity" values="0;1" dur="0.5s" begin="0.8s" fill="freeze"/>
    </text>
    
    <text x="103.33333333333333" y="50" text-anchor="middle" fill="#22c55e" font-size="32" font-weight="bold" font-family="Arial, sans-serif">
      ↗
      <animate attributeName="opacity" values="0;1" dur="0.5s" begin="1s" fill="freeze"/>
      <animateTransform attributeName="transform" type="scale" values="0;1.2;1" dur="0.8s" begin="1s" fill="freeze"/>
    </text>
    
    <text x="103.33333333333333" y="75" text-anchor="middle" fill="#1e293b" font-size="18" font-weight="bold" font-family="Arial, sans-serif">
      +5
      <animate attributeName="opacity" values="0;1" dur="0.5s" begin="1.2s" fill="freeze"/>
    </text>
    
    <text x="103.33333333333333" y="95" text-anchor="middle" fill="#64748b" font-size="12" font-family="Arial, sans-serif">
      #18 → #13
      <animate attributeName="opacity" values="0;1" dur="0.5s" begin="1.4s" fill="freeze"/>
    </text>
  </g>
  
  <!-- Timeline Charts (if we have snapshots) -->
  
  <!-- 👥 Followers Count Chart -->
  <g transform="translate(60, 250)">
    <!-- Chart Background -->
    <rect x="0" y="0" width="213.33333333333334" height="200" fill="#ffffff" stroke="#e2e8f0" stroke-width="1" rx="8" filter="url(#shadow)">
      <animate attributeName="opacity" values="0;1" dur="0.5s" begin="1.8s" fill="freeze"/>
    </rect>
    
    <!-- Chart Title -->
    <text x="106.66666666666667" y="25" text-anchor="middle" fill="#1e293b" font-size="14" font-weight="bold" font-family="Arial, sans-serif">
      👥 Followers Count
      <animate attributeName="opacity" values="0;1" dur="0.5s" begin="2s" fill="freeze"/>
    </text>
    
    <!-- Y-axis labels -->
    <text x="10" y="45" fill="#64748b" font-size="10" font-family="Arial, sans-serif">153
      <animate attributeName="opacity" values="0;1" dur="0.5s" begin="2.2s" fill="freeze"/>
    </text>
    <text x="10" y="185" fill="#64748b" font-size="10" font-family="Arial, sans-serif">149
      <animate attributeName="opacity" values="0;1" dur="0.5s" begin="2.2s" fill="freeze"/>
    </text>
    
    <!-- Chart Line with draw animation that follows the circle -->
    <path d="M 30,160 L 30.030584870503326,160 L 30.063570662299824,160 L 31.550600974281707,160 L 31.573732238382348,160 L 31.624850361139227,160 L 33.09937438160891,160 L 33.12289982681739,160 L 33.15246340990496,160 L 34.64225298964168,160 L 34.66988150183625,160 L 34.69908673846216,160 L 36.189610928445305,160 L 36.21621815322412,160 L 36.246928444989024,160 L 37.738706847588006,160 L 37.76667578892116,160 L 37.792261726284224,160 L 39.28461348322187,160 L 39.312277830062605,160 L 39.34133972810385,160 L 40.83956836701284,160 L 40.868719851669496,160 L 40.89919721823432,160 L 42.38176611676844,160 L 42.411078857332846,130 L 42.44148455460534,130 L 43.93609389425149,130 L 43.95691382367438,130 L 43.9852411114692,130 L 45.47836331329943,130 L 45.49828737656814,130 L 45.53636168812032,130 L 47.02862385844256,130 L 47.05741699663754,130 L 47.081766638707855,130 L 48.57062451764424,130 L 48.60325196297907,130 L 48.63500145948282,130 L 50.125830243958376,130 L 50.14082704337916,130 L 50.17922386674684,130 L 51.673546529223664,130 L 51.70352221074215,130 L 51.73849682540091,130 L 53.221531574335195,130 L 53.247995460529346,130 L 53.2838301066961,130 L 54.76673943436881,130 L 54.796750950533465,130 L 54.83004133682238,130 L 56.31825419212777,130 L 56.34011332628949,130 L 56.3711461298699,130 L 57.861956997022375,130 L 57.88686207610827,130 L 57.91898783639677,130 L 59.41291631776575,130 L 59.442300727622495,130 L 59.467940416954804,130 L 60.9598084061692,130 L 60.99263294205795,130 L 61.01554919828159,130 L 62.50987186075841,130 L 62.53875458556882,130 L 62.572009137211566,130 L 64.05843026020861,130 L 64.08661420941877,130 L 64.12063920595409,130 L 65.60557319113522,130 L 65.63123079779064,130 L 65.66324905414062,130 L 67.15502745673959,130 L 67.18301431539584,130 L 67.21546258749984,130 L 68.69919611203437,130 L 68.73680457318639,130 L 68.75857412073269,130 L 70.24748575163832,130 L 70.27678057487965,130 L 70.3059320595363,130 L 71.79140356440993,130 L 71.82372641525235,130 L 71.85074573846208,130 L 72.93087364322045,130 L 73.34607177103157,130 L 73.37819753132007,130 L 73.41204335462456,130 L 74.8939493122046,130 L 74.92204367479934,130 L 74.95493987998043,130 L 76.44010679036163,130 L 76.46176883396944,130 L 76.49810516518252,130 L 77.99024191424317,130 L 78.01729707209908,130 L 78.04875989143349,130 L 79.53838821526247,130 L 79.57087232201263,130 L 79.60434188153238,130 L 81.08456361074258,130 L 81.11222795758331,130 L 81.14865387541182,130 L 82.63693840000954,130 L 82.66053551451034,130 L 82.68959741255159,130 L 84.18368714982833,130 L 84.21719254399423,130 L 84.24856577671324,130 L 85.73084799807802,130 L 85.76100285282735,130 L 85.79486659345494,130 L 87.27671879906572,130 L 87.30612112624553,130 L 87.33926817394979,130 L 88.82800063162459,130 L 88.8554858052345,130 L 88.88359808515231,130 L 90.37430144836628,130 L 90.40209121646862,130 L 90.43548910669602,130 L 91.91345325319773,130 L 91.95025543481097,130 L 91.98112698248363,130 L 93.4695906803122,130 L 93.49132439321232,130 L 93.53040207485718,130 L 95.01949287899365,130 L 95.05215615897464,130 L 95.08657533661781,130 L 96.56975342413678,130 L 96.59963951903984,130 L 96.63129942892817,130 L 98.10863646912195,130 L 98.14110265854903,130 L 98.1734792613607,130 L 99.66147710878907,130 L 99.6918648887385,130 L 99.72658866087407,130 L 101.2100175909162,130 L 101.23798653224937,130 L 101.26885807992201,130 L 102.75920309667433,130 L 102.77912715994304,130 L 102.82804145196066,130 L 104.30462596458494,130 L 104.33478081933426,130 L 104.36452357565267,130 L 105.85554945068215,130 L 105.88978945509447,130 L 105.92094767993648,130 L 107.40285363751651,130 L 107.43300849226583,130 L 107.4677680990476,130 L 108.94879610779654,130 L 108.97843136017644,130 L 109.00543276606311,130 L 110.49919999152432,130 L 110.52982069667382,130 L 110.56135518530057,130 L 112.05191520992987,130 L 112.08072626544795,130 L 112.10914313985819,130 L 113.59416671165472,130 L 113.62496659003506,40 L 113.6570565156774,40 L 115.14801072141454,40 L 115.169386087853,40 L 115.19886008432516,40 L 116.6921972940324,40 L 116.71609900302562,40 L 116.75850930676397,40 L 118.24209949271385,40 L 118.27358022937135,40 L 118.301226658889,40 L 119.78388514403854,40 L 119.81837599097403,40 L 119.8521501449862,40 L 121.34147387432276,40 L 121.35673943358981,40 L 121.39811053258931,40 L 122.8864308918332,40 L 122.91905833716802,40 L 122.95591427075055,40 L 124.43461302749866,40 L 124.46535915390973,40 L 124.50475934737008,40 L 125.98028673793243,40 L 126.0129858525596,40 L 126.05113183340411,40 L 127.53692585009324,40 L 127.57335176792175,40 L 129.07903401323344,40 L 129.15563056941488,40 L 130.62734157016047,40 L 130.66541588171265,40 L 130.70155512237181,40 L 132.17502202077958,40 L 132.21513890716327,40 L 132.24274950203477,40 L 133.72635760530773,40 L 133.75993466876594,40 L 133.79763271653337,40 L 135.26896745349424,40 L 135.3025265996294,40 L 135.34027839936607,40 L 136.81938925454511,40 L 136.8523750463416,40 L 136.88776175943127,40 L 138.37291075248942,40 L 138.41625275702808,40 L 139.95520747130558,40 L 139.99623814116654,40 L 141.4725180592984,40 L 141.50634596527982,40 L 143.02462408871912,40 L 143.0534351442372,40 L 143.10088021576198,40 L 144.56081953524176,40 L 144.59378740971522,40 L 144.62908453618945,40 L 146.11073965124632,40 L 146.14972774627574,40 L 146.18885917988985,40 L 147.65605501521844,40 L 147.6876611731375,40 L 147.72607591382825,40 L 149.20285751700646,40 L 149.23878174978864,40 L 149.28574305359018,40 L 150.74613030614708,40 L 150.78701763742333,40 L 150.82659700411455,40 L 152.30133603246122,40 L 152.3342322376423,40 L 152.37178694682507,40 L 153.84935691221892,40 L 153.88264729850783,40 L 153.92102620455242,40 L 155.39540688643746,40 L 155.43400080035906,40 L 155.47558690723554,40 L 156.94502240794958,40 L 156.97575061703753,40 L 157.0127857238509,40 L 158.49444083890776,40 L 158.52201559913308,40 L 158.55967781225434,40 L 160.03862741152562,40 L 160.07397828996915,40 L 160.11302013696783,40 L 161.5877412479914,40 L 161.625260122528,40 L 161.6651620010347,40 L 163.13995478135064,40 L 163.16709952582195,40 L 163.20592636494362,40 L 164.6867214484925,40 L 164.72329070490568,40 L 164.7559002329174,40 L 166.2301017415716,40 L 166.26357130109136,40 L 166.3021114630437,40 L 167.77547085751297,40 L 167.8160715116199,40 L 167.85321412237172,40 L 169.32696769794885,40 L 169.3576063204214,40 L 169.3920075807415,40 L 170.8811700541703,40 L 170.91856350744533,40 L 170.96065129936818,40 L 172.42799047328143,40 L 172.46138836350883,40 L 172.49478625373627,40 L 173.97255330968403,40 L 174.00964216846663,40 L 174.04612183826438,40 L 175.51399853187013,40 L 175.55427667416157,40 L 175.59261974556,40 L 177.06081895098126,40 L 177.1010791759496,40 L 177.1452632946732,40 L 178.6233528624365,40 L 178.6553711187865,40 L 178.69677805243217,40 L 180.16753943505435,40 L 180.1952037818951,40 L 180.23026798316926,40 L 181.7112064053028,40 L 181.74781149636215,40 L 181.7849361897909,40 L 183.26003356459924,40 L 183.29199806897998,40 L 183.33333333333334,40" stroke="#22c55e" stroke-width="2" fill="none" stroke-dasharray="14800" stroke-dashoffset="14800">
      <animate attributeName="stroke-dashoffset" values="14800;0" dur="3s" begin="2.6s" fill="freeze"/>
    </path>
    
    <!-- Glow effect for the line that also follows the circle -->
    <path d="M 30,160 L 30.030584870503326,160 L 30.063570662299824,160 L 31.550600974281707,160 L 31.573732238382348,160 L 31.624850361139227,160 L 33.09937438160891,160 L 33.12289982681739,160 L 33.15246340990496,160 L 34.64225298964168,160 L 34.66988150183625,160 L 34.69908673846216,160 L 36.189610928445305,160 L 36.21621815322412,160 L 36.246928444989024,160 L 37.738706847588006,160 L 37.76667578892116,160 L 37.792261726284224,160 L 39.28461348322187,160 L 39.312277830062605,160 L 39.34133972810385,160 L 40.83956836701284,160 L 40.868719851669496,160 L 40.89919721823432,160 L 42.38176611676844,160 L 42.411078857332846,130 L 42.44148455460534,130 L 43.93609389425149,130 L 43.95691382367438,130 L 43.9852411114692,130 L 45.47836331329943,130 L 45.49828737656814,130 L 45.53636168812032,130 L 47.02862385844256,130 L 47.05741699663754,130 L 47.081766638707855,130 L 48.57062451764424,130 L 48.60325196297907,130 L 48.63500145948282,130 L 50.125830243958376,130 L 50.14082704337916,130 L 50.17922386674684,130 L 51.673546529223664,130 L 51.70352221074215,130 L 51.73849682540091,130 L 53.221531574335195,130 L 53.247995460529346,130 L 53.2838301066961,130 L 54.76673943436881,130 L 54.796750950533465,130 L 54.83004133682238,130 L 56.31825419212777,130 L 56.34011332628949,130 L 56.3711461298699,130 L 57.861956997022375,130 L 57.88686207610827,130 L 57.91898783639677,130 L 59.41291631776575,130 L 59.442300727622495,130 L 59.467940416954804,130 L 60.9598084061692,130 L 60.99263294205795,130 L 61.01554919828159,130 L 62.50987186075841,130 L 62.53875458556882,130 L 62.572009137211566,130 L 64.05843026020861,130 L 64.08661420941877,130 L 64.12063920595409,130 L 65.60557319113522,130 L 65.63123079779064,130 L 65.66324905414062,130 L 67.15502745673959,130 L 67.18301431539584,130 L 67.21546258749984,130 L 68.69919611203437,130 L 68.73680457318639,130 L 68.75857412073269,130 L 70.24748575163832,130 L 70.27678057487965,130 L 70.3059320595363,130 L 71.79140356440993,130 L 71.82372641525235,130 L 71.85074573846208,130 L 72.93087364322045,130 L 73.34607177103157,130 L 73.37819753132007,130 L 73.41204335462456,130 L 74.8939493122046,130 L 74.92204367479934,130 L 74.95493987998043,130 L 76.44010679036163,130 L 76.46176883396944,130 L 76.49810516518252,130 L 77.99024191424317,130 L 78.01729707209908,130 L 78.04875989143349,130 L 79.53838821526247,130 L 79.57087232201263,130 L 79.60434188153238,130 L 81.08456361074258,130 L 81.11222795758331,130 L 81.14865387541182,130 L 82.63693840000954,130 L 82.66053551451034,130 L 82.68959741255159,130 L 84.18368714982833,130 L 84.21719254399423,130 L 84.24856577671324,130 L 85.73084799807802,130 L 85.76100285282735,130 L 85.79486659345494,130 L 87.27671879906572,130 L 87.30612112624553,130 L 87.33926817394979,130 L 88.82800063162459,130 L 88.8554858052345,130 L 88.88359808515231,130 L 90.37430144836628,130 L 90.40209121646862,130 L 90.43548910669602,130 L 91.91345325319773,130 L 91.95025543481097,130 L 91.98112698248363,130 L 93.4695906803122,130 L 93.49132439321232,130 L 93.53040207485718,130 L 95.01949287899365,130 L 95.05215615897464,130 L 95.08657533661781,130 L 96.56975342413678,130 L 96.59963951903984,130 L 96.63129942892817,130 L 98.10863646912195,130 L 98.14110265854903,130 L 98.1734792613607,130 L 99.66147710878907,130 L 99.6918648887385,130 L 99.72658866087407,130 L 101.2100175909162,130 L 101.23798653224937,130 L 101.26885807992201,130 L 102.75920309667433,130 L 102.77912715994304,130 L 102.82804145196066,130 L 104.30462596458494,130 L 104.33478081933426,130 L 104.36452357565267,130 L 105.85554945068215,130 L 105.88978945509447,130 L 105.92094767993648,130 L 107.40285363751651,130 L 107.43300849226583,130 L 107.4677680990476,130 L 108.94879610779654,130 L 108.97843136017644,130 L 109.00543276606311,130 L 110.49919999152432,130 L 110.52982069667382,130 L 110.56135518530057,130 L 112.05191520992987,130 L 112.08072626544795,130 L 112.10914313985819,130 L 113.59416671165472,130 L 113.62496659003506,40 L 113.6570565156774,40 L 115.14801072141454,40 L 115.169386087853,40 L 115.19886008432516,40 L 116.6921972940324,40 L 116.71609900302562,40 L 116.75850930676397,40 L 118.24209949271385,40 L 118.27358022937135,40 L 118.301226658889,40 L 119.78388514403854,40 L 119.81837599097403,40 L 119.8521501449862,40 L 121.34147387432276,40 L 121.35673943358981,40 L 121.39811053258931,40 L 122.8864308918332,40 L 122.91905833716802,40 L 122.95591427075055,40 L 124.43461302749866,40 L 124.46535915390973,40 L 124.50475934737008,40 L 125.98028673793243,40 L 126.0129858525596,40 L 126.05113183340411,40 L 127.53692585009324,40 L 127.57335176792175,40 L 129.07903401323344,40 L 129.15563056941488,40 L 130.62734157016047,40 L 130.66541588171265,40 L 130.70155512237181,40 L 132.17502202077958,40 L 132.21513890716327,40 L 132.24274950203477,40 L 133.72635760530773,40 L 133.75993466876594,40 L 133.79763271653337,40 L 135.26896745349424,40 L 135.3025265996294,40 L 135.34027839936607,40 L 136.81938925454511,40 L 136.8523750463416,40 L 136.88776175943127,40 L 138.37291075248942,40 L 138.41625275702808,40 L 139.95520747130558,40 L 139.99623814116654,40 L 141.4725180592984,40 L 141.50634596527982,40 L 143.02462408871912,40 L 143.0534351442372,40 L 143.10088021576198,40 L 144.56081953524176,40 L 144.59378740971522,40 L 144.62908453618945,40 L 146.11073965124632,40 L 146.14972774627574,40 L 146.18885917988985,40 L 147.65605501521844,40 L 147.6876611731375,40 L 147.72607591382825,40 L 149.20285751700646,40 L 149.23878174978864,40 L 149.28574305359018,40 L 150.74613030614708,40 L 150.78701763742333,40 L 150.82659700411455,40 L 152.30133603246122,40 L 152.3342322376423,40 L 152.37178694682507,40 L 153.84935691221892,40 L 153.88264729850783,40 L 153.92102620455242,40 L 155.39540688643746,40 L 155.43400080035906,40 L 155.47558690723554,40 L 156.94502240794958,40 L 156.97575061703753,40 L 157.0127857238509,40 L 158.49444083890776,40 L 158.52201559913308,40 L 158.55967781225434,40 L 160.03862741152562,40 L 160.07397828996915,40 L 160.11302013696783,40 L 161.5877412479914,40 L 161.625260122528,40 L 161.6651620010347,40 L 163.13995478135064,40 L 163.16709952582195,40 L 163.20592636494362,40 L 164.6867214484925,40 L 164.72329070490568,40 L 164.7559002329174,40 L 166.2301017415716,40 L 166.26357130109136,40 L 166.3021114630437,40 L 167.77547085751297,40 L 167.8160715116199,40 L 167.85321412237172,40 L 169.32696769794885,40 L 169.3576063204214,40 L 169.3920075807415,40 L 170.8811700541703,40 L 170.91856350744533,40 L 170.96065129936818,40 L 172.42799047328143,40 L 172.46138836350883,40 L 172.49478625373627,40 L 173.97255330968403,40 L 174.00964216846663,40 L 174.04612183826438,40 L 175.51399853187013,40 L 175.55427667416157,40 L 175.59261974556,40 L 177.06081895098126,40 L 177.1010791759496,40 L 177.1452632946732,40 L 178.6233528624365,40 L 178.6553711187865,40 L 178.69677805243217,40 L 180.16753943505435,40 L 180.1952037818951,40 L 180.23026798316926,40 L 181.7112064053028,40 L 181.74781149636215,40 L 181.7849361897909,40 L 183.26003356459924,40 L 183.29199806897998,40 L 183.33333333333334,40" stroke="#22c55e" stroke-width="4" fill="none" opacity="0.4" stroke-dasharray="14800" stroke-dashoffset="14800">
      <animate attributeName="stroke-dashoffset" values="14800;0" dur="3s" begin="2.6s" fill="freeze"/>
    </path>
    
    <!-- Animated circle that moves along the path and draws the line -->
    <circle r="5" fill="#22c55e" opacity="0" filter="url(#trailGlow)">
      <animate attributeName="opacity" values="0;1;1;1" dur="3.2s" begin="2.4s" fill="freeze"/>
      <animate attributeName="r" values="5;6;5" dur="1s" begin="2.4s" repeatCount="3"/>
      <animateMotion dur="3s" begin="2.4s" fill="freeze">
        <mpath href="#path_followersCount_60"/>
      </animateMotion>
    </circle>
    
    <!-- Small trail dots that fade out -->
    <circle r="2" fill="#22c55e" opacity="0">
      <animate attributeName="opacity" values="0;0.6;0" dur="0.8s" begin="2.8s" fill="freeze"/>
      <animateMotion dur="3s" begin="2.4s" fill="freeze">
        <mpath href="#path_followersCount_60"/>
      </animateMotion>
    </circle>
    
    <!-- Hidden path for motion animation -->
    <path id="path_followersCount_60" d="M 30,160 L 30.030584870503326,160 L 30.063570662299824,160 L 31.550600974281707,160 L 31.573732238382348,160 L 31.624850361139227,160 L 33.09937438160891,160 L 33.12289982681739,160 L 33.15246340990496,160 L 34.64225298964168,160 L 34.66988150183625,160 L 34.69908673846216,160 L 36.189610928445305,160 L 36.21621815322412,160 L 36.246928444989024,160 L 37.738706847588006,160 L 37.76667578892116,160 L 37.792261726284224,160 L 39.28461348322187,160 L 39.312277830062605,160 L 39.34133972810385,160 L 40.83956836701284,160 L 40.868719851669496,160 L 40.89919721823432,160 L 42.38176611676844,160 L 42.411078857332846,130 L 42.44148455460534,130 L 43.93609389425149,130 L 43.95691382367438,130 L 43.9852411114692,130 L 45.47836331329943,130 L 45.49828737656814,130 L 45.53636168812032,130 L 47.02862385844256,130 L 47.05741699663754,130 L 47.081766638707855,130 L 48.57062451764424,130 L 48.60325196297907,130 L 48.63500145948282,130 L 50.125830243958376,130 L 50.14082704337916,130 L 50.17922386674684,130 L 51.673546529223664,130 L 51.70352221074215,130 L 51.73849682540091,130 L 53.221531574335195,130 L 53.247995460529346,130 L 53.2838301066961,130 L 54.76673943436881,130 L 54.796750950533465,130 L 54.83004133682238,130 L 56.31825419212777,130 L 56.34011332628949,130 L 56.3711461298699,130 L 57.861956997022375,130 L 57.88686207610827,130 L 57.91898783639677,130 L 59.41291631776575,130 L 59.442300727622495,130 L 59.467940416954804,130 L 60.9598084061692,130 L 60.99263294205795,130 L 61.01554919828159,130 L 62.50987186075841,130 L 62.53875458556882,130 L 62.572009137211566,130 L 64.05843026020861,130 L 64.08661420941877,130 L 64.12063920595409,130 L 65.60557319113522,130 L 65.63123079779064,130 L 65.66324905414062,130 L 67.15502745673959,130 L 67.18301431539584,130 L 67.21546258749984,130 L 68.69919611203437,130 L 68.73680457318639,130 L 68.75857412073269,130 L 70.24748575163832,130 L 70.27678057487965,130 L 70.3059320595363,130 L 71.79140356440993,130 L 71.82372641525235,130 L 71.85074573846208,130 L 72.93087364322045,130 L 73.34607177103157,130 L 73.37819753132007,130 L 73.41204335462456,130 L 74.8939493122046,130 L 74.92204367479934,130 L 74.95493987998043,130 L 76.44010679036163,130 L 76.46176883396944,130 L 76.49810516518252,130 L 77.99024191424317,130 L 78.01729707209908,130 L 78.04875989143349,130 L 79.53838821526247,130 L 79.57087232201263,130 L 79.60434188153238,130 L 81.08456361074258,130 L 81.11222795758331,130 L 81.14865387541182,130 L 82.63693840000954,130 L 82.66053551451034,130 L 82.68959741255159,130 L 84.18368714982833,130 L 84.21719254399423,130 L 84.24856577671324,130 L 85.73084799807802,130 L 85.76100285282735,130 L 85.79486659345494,130 L 87.27671879906572,130 L 87.30612112624553,130 L 87.33926817394979,130 L 88.82800063162459,130 L 88.8554858052345,130 L 88.88359808515231,130 L 90.37430144836628,130 L 90.40209121646862,130 L 90.43548910669602,130 L 91.91345325319773,130 L 91.95025543481097,130 L 91.98112698248363,130 L 93.4695906803122,130 L 93.49132439321232,130 L 93.53040207485718,130 L 95.01949287899365,130 L 95.05215615897464,130 L 95.08657533661781,130 L 96.56975342413678,130 L 96.59963951903984,130 L 96.63129942892817,130 L 98.10863646912195,130 L 98.14110265854903,130 L 98.1734792613607,130 L 99.66147710878907,130 L 99.6918648887385,130 L 99.72658866087407,130 L 101.2100175909162,130 L 101.23798653224937,130 L 101.26885807992201,130 L 102.75920309667433,130 L 102.77912715994304,130 L 102.82804145196066,130 L 104.30462596458494,130 L 104.33478081933426,130 L 104.36452357565267,130 L 105.85554945068215,130 L 105.88978945509447,130 L 105.92094767993648,130 L 107.40285363751651,130 L 107.43300849226583,130 L 107.4677680990476,130 L 108.94879610779654,130 L 108.97843136017644,130 L 109.00543276606311,130 L 110.49919999152432,130 L 110.52982069667382,130 L 110.56135518530057,130 L 112.05191520992987,130 L 112.08072626544795,130 L 112.10914313985819,130 L 113.59416671165472,130 L 113.62496659003506,40 L 113.6570565156774,40 L 115.14801072141454,40 L 115.169386087853,40 L 115.19886008432516,40 L 116.6921972940324,40 L 116.71609900302562,40 L 116.75850930676397,40 L 118.24209949271385,40 L 118.27358022937135,40 L 118.301226658889,40 L 119.78388514403854,40 L 119.81837599097403,40 L 119.8521501449862,40 L 121.34147387432276,40 L 121.35673943358981,40 L 121.39811053258931,40 L 122.8864308918332,40 L 122.91905833716802,40 L 122.95591427075055,40 L 124.43461302749866,40 L 124.46535915390973,40 L 124.50475934737008,40 L 125.98028673793243,40 L 126.0129858525596,40 L 126.05113183340411,40 L 127.53692585009324,40 L 127.57335176792175,40 L 129.07903401323344,40 L 129.15563056941488,40 L 130.62734157016047,40 L 130.66541588171265,40 L 130.70155512237181,40 L 132.17502202077958,40 L 132.21513890716327,40 L 132.24274950203477,40 L 133.72635760530773,40 L 133.75993466876594,40 L 133.79763271653337,40 L 135.26896745349424,40 L 135.3025265996294,40 L 135.34027839936607,40 L 136.81938925454511,40 L 136.8523750463416,40 L 136.88776175943127,40 L 138.37291075248942,40 L 138.41625275702808,40 L 139.95520747130558,40 L 139.99623814116654,40 L 141.4725180592984,40 L 141.50634596527982,40 L 143.02462408871912,40 L 143.0534351442372,40 L 143.10088021576198,40 L 144.56081953524176,40 L 144.59378740971522,40 L 144.62908453618945,40 L 146.11073965124632,40 L 146.14972774627574,40 L 146.18885917988985,40 L 147.65605501521844,40 L 147.6876611731375,40 L 147.72607591382825,40 L 149.20285751700646,40 L 149.23878174978864,40 L 149.28574305359018,40 L 150.74613030614708,40 L 150.78701763742333,40 L 150.82659700411455,40 L 152.30133603246122,40 L 152.3342322376423,40 L 152.37178694682507,40 L 153.84935691221892,40 L 153.88264729850783,40 L 153.92102620455242,40 L 155.39540688643746,40 L 155.43400080035906,40 L 155.47558690723554,40 L 156.94502240794958,40 L 156.97575061703753,40 L 157.0127857238509,40 L 158.49444083890776,40 L 158.52201559913308,40 L 158.55967781225434,40 L 160.03862741152562,40 L 160.07397828996915,40 L 160.11302013696783,40 L 161.5877412479914,40 L 161.625260122528,40 L 161.6651620010347,40 L 163.13995478135064,40 L 163.16709952582195,40 L 163.20592636494362,40 L 164.6867214484925,40 L 164.72329070490568,40 L 164.7559002329174,40 L 166.2301017415716,40 L 166.26357130109136,40 L 166.3021114630437,40 L 167.77547085751297,40 L 167.8160715116199,40 L 167.85321412237172,40 L 169.32696769794885,40 L 169.3576063204214,40 L 169.3920075807415,40 L 170.8811700541703,40 L 170.91856350744533,40 L 170.96065129936818,40 L 172.42799047328143,40 L 172.46138836350883,40 L 172.49478625373627,40 L 173.97255330968403,40 L 174.00964216846663,40 L 174.04612183826438,40 L 175.51399853187013,40 L 175.55427667416157,40 L 175.59261974556,40 L 177.06081895098126,40 L 177.1010791759496,40 L 177.1452632946732,40 L 178.6233528624365,40 L 178.6553711187865,40 L 178.69677805243217,40 L 180.16753943505435,40 L 180.1952037818951,40 L 180.23026798316926,40 L 181.7112064053028,40 L 181.74781149636215,40 L 181.7849361897909,40 L 183.26003356459924,40 L 183.29199806897998,40 L 183.33333333333334,40" fill="none" stroke="none"/>
  </g>
  <!-- 🔓 Public Contributions Chart -->
  <g transform="translate(293.33333333333337, 250)">
    <!-- Chart Background -->
    <rect x="0" y="0" width="213.33333333333334" height="200" fill="#ffffff" stroke="#e2e8f0" stroke-width="1" rx="8" filter="url(#shadow)">
      <animate attributeName="opacity" values="0;1" dur="0.5s" begin="2.3s" fill="freeze"/>
    </rect>
    
    <!-- Chart Title -->
    <text x="106.66666666666667" y="25" text-anchor="middle" fill="#1e293b" font-size="14" font-weight="bold" font-family="Arial, sans-serif">
      🔓 Public Contributions
      <animate attributeName="opacity" values="0;1" dur="0.5s" begin="2.5s" fill="freeze"/>
    </text>
    
    <!-- Y-axis labels -->
    <text x="10" y="45" fill="#64748b" font-size="10" font-family="Arial, sans-serif">3,861
      <animate attributeName="opacity" values="0;1" dur="0.5s" begin="2.6999999999999997s" fill="freeze"/>
    </text>
    <text x="10" y="185" fill="#64748b" font-size="10" font-family="Arial, sans-serif">3,180
      <animate attributeName="opacity" values="0;1" dur="0.5s" begin="2.6999999999999997s" fill="freeze"/>
    </text>
    
    <!-- Chart Line with draw animation that follows the circle -->
    <path d="M 30,160 L 30.030584870503326,160 L 30.063570662299824,160 L 31.550600974281707,160 L 31.573732238382348,160 L 31.624850361139227,160 L 33.09937438160891,160 L 33.12289982681739,160 L 33.15246340990496,160 L 34.64225298964168,160 L 34.66988150183625,160 L 34.69908673846216,160 L 36.189610928445305,160 L 36.21621815322412,160 L 36.246928444989024,160 L 37.738706847588006,160 L 37.76667578892116,160 L 37.792261726284224,160 L 39.28461348322187,160 L 39.312277830062605,160 L 39.34133972810385,160 L 40.83956836701284,160 L 40.868719851669496,160 L 40.89919721823432,160 L 42.38176611676844,160 L 42.411078857332846,115.24229074889868 L 42.44148455460534,115.24229074889868 L 43.93609389425149,115.24229074889868 L 43.95691382367438,115.24229074889868 L 43.9852411114692,115.24229074889868 L 45.47836331329943,115.24229074889868 L 45.49828737656814,115.24229074889868 L 45.53636168812032,115.24229074889868 L 47.02862385844256,115.24229074889868 L 47.05741699663754,115.24229074889868 L 47.081766638707855,115.24229074889868 L 48.57062451764424,115.24229074889868 L 48.60325196297907,115.24229074889868 L 48.63500145948282,115.24229074889868 L 50.125830243958376,115.24229074889868 L 50.14082704337916,115.24229074889868 L 50.17922386674684,115.24229074889868 L 51.673546529223664,115.24229074889868 L 51.70352221074215,115.24229074889868 L 51.73849682540091,115.24229074889868 L 53.221531574335195,115.24229074889868 L 53.247995460529346,115.24229074889868 L 53.2838301066961,115.24229074889868 L 54.76673943436881,115.24229074889868 L 54.796750950533465,115.24229074889868 L 54.83004133682238,115.24229074889868 L 56.31825419212777,115.24229074889868 L 56.34011332628949,115.24229074889868 L 56.3711461298699,115.24229074889868 L 57.861956997022375,115.24229074889868 L 57.88686207610827,115.24229074889868 L 57.91898783639677,115.24229074889868 L 59.41291631776575,115.24229074889868 L 59.442300727622495,115.24229074889868 L 59.467940416954804,115.24229074889868 L 60.9598084061692,115.24229074889868 L 60.99263294205795,115.24229074889868 L 61.01554919828159,115.24229074889868 L 62.50987186075841,115.24229074889868 L 62.53875458556882,115.24229074889868 L 62.572009137211566,115.24229074889868 L 64.05843026020861,115.24229074889868 L 64.08661420941877,115.24229074889868 L 64.12063920595409,115.24229074889868 L 65.60557319113522,115.24229074889868 L 65.63123079779064,115.24229074889868 L 65.66324905414062,115.24229074889868 L 67.15502745673959,115.24229074889868 L 67.18301431539584,115.24229074889868 L 67.21546258749984,115.24229074889868 L 68.69919611203437,115.24229074889868 L 68.73680457318639,115.24229074889868 L 68.75857412073269,115.24229074889868 L 70.24748575163832,115.24229074889868 L 70.27678057487965,115.24229074889868 L 70.3059320595363,115.24229074889868 L 71.79140356440993,115.24229074889868 L 71.82372641525235,115.24229074889868 L 71.85074573846208,115.24229074889868 L 72.93087364322045,115.24229074889868 L 73.34607177103157,115.24229074889868 L 73.37819753132007,115.24229074889868 L 73.41204335462456,115.24229074889868 L 74.8939493122046,115.24229074889868 L 74.92204367479934,115.24229074889868 L 74.95493987998043,115.24229074889868 L 76.44010679036163,115.24229074889868 L 76.46176883396944,115.24229074889868 L 76.49810516518252,115.24229074889868 L 77.99024191424317,115.24229074889868 L 78.01729707209908,115.24229074889868 L 78.04875989143349,115.24229074889868 L 79.53838821526247,115.24229074889868 L 79.57087232201263,115.24229074889868 L 79.60434188153238,115.24229074889868 L 81.08456361074258,115.24229074889868 L 81.11222795758331,115.24229074889868 L 81.14865387541182,115.24229074889868 L 82.63693840000954,115.24229074889868 L 82.66053551451034,115.24229074889868 L 82.68959741255159,115.24229074889868 L 84.18368714982833,115.24229074889868 L 84.21719254399423,115.24229074889868 L 84.24856577671324,115.24229074889868 L 85.73084799807802,115.24229074889868 L 85.76100285282735,115.24229074889868 L 85.79486659345494,115.24229074889868 L 87.27671879906572,115.24229074889868 L 87.30612112624553,115.24229074889868 L 87.33926817394979,115.24229074889868 L 88.82800063162459,115.24229074889868 L 88.8554858052345,115.24229074889868 L 88.88359808515231,115.24229074889868 L 90.37430144836628,115.24229074889868 L 90.40209121646862,115.24229074889868 L 90.43548910669602,115.24229074889868 L 91.91345325319773,115.24229074889868 L 91.95025543481097,115.24229074889868 L 91.98112698248363,115.24229074889868 L 93.4695906803122,115.24229074889868 L 93.49132439321232,115.24229074889868 L 93.53040207485718,115.24229074889868 L 95.01949287899365,115.24229074889868 L 95.05215615897464,115.24229074889868 L 95.08657533661781,115.24229074889868 L 96.56975342413678,115.24229074889868 L 96.59963951903984,115.24229074889868 L 96.63129942892817,115.24229074889868 L 98.10863646912195,115.24229074889868 L 98.14110265854903,115.24229074889868 L 98.1734792613607,115.24229074889868 L 99.66147710878907,115.24229074889868 L 99.6918648887385,115.24229074889868 L 99.72658866087407,115.24229074889868 L 101.2100175909162,115.24229074889868 L 101.23798653224937,115.24229074889868 L 101.26885807992201,115.24229074889868 L 102.75920309667433,115.24229074889868 L 102.77912715994304,115.24229074889868 L 102.82804145196066,115.24229074889868 L 104.30462596458494,115.24229074889868 L 104.33478081933426,115.24229074889868 L 104.36452357565267,115.24229074889868 L 105.85554945068215,115.24229074889868 L 105.88978945509447,115.24229074889868 L 105.92094767993648,115.24229074889868 L 107.40285363751651,115.24229074889868 L 107.43300849226583,115.24229074889868 L 107.4677680990476,115.24229074889868 L 108.94879610779654,115.24229074889868 L 108.97843136017644,115.24229074889868 L 109.00543276606311,115.24229074889868 L 110.49919999152432,115.24229074889868 L 110.52982069667382,115.24229074889868 L 110.56135518530057,115.24229074889868 L 112.05191520992987,115.24229074889868 L 112.08072626544795,115.24229074889868 L 112.10914313985819,115.24229074889868 L 113.59416671165472,115.24229074889868 L 113.62496659003506,40 L 113.6570565156774,40 L 115.14801072141454,40 L 115.169386087853,40 L 115.19886008432516,40 L 116.6921972940324,40 L 116.71609900302562,40 L 116.75850930676397,40 L 118.24209949271385,40 L 118.27358022937135,40 L 118.301226658889,40 L 119.78388514403854,40 L 119.81837599097403,40 L 119.8521501449862,40 L 121.34147387432276,40 L 121.35673943358981,40 L 121.39811053258931,40 L 122.8864308918332,40 L 122.91905833716802,40 L 122.95591427075055,40 L 124.43461302749866,40 L 124.46535915390973,40 L 124.50475934737008,40 L 125.98028673793243,40 L 126.0129858525596,40 L 126.05113183340411,40 L 127.53692585009324,40 L 127.57335176792175,40 L 129.07903401323344,40 L 129.15563056941488,40 L 130.62734157016047,40 L 130.66541588171265,40 L 130.70155512237181,40 L 132.17502202077958,40 L 132.21513890716327,40 L 132.24274950203477,40 L 133.72635760530773,40 L 133.75993466876594,40 L 133.79763271653337,40 L 135.26896745349424,40 L 135.3025265996294,40 L 135.34027839936607,40 L 136.81938925454511,40 L 136.8523750463416,40 L 136.88776175943127,40 L 138.37291075248942,40 L 138.41625275702808,40 L 139.95520747130558,40 L 139.99623814116654,40 L 141.4725180592984,40 L 141.50634596527982,40 L 143.02462408871912,40 L 143.0534351442372,40 L 143.10088021576198,40 L 144.56081953524176,40 L 144.59378740971522,40 L 144.62908453618945,40 L 146.11073965124632,40 L 146.14972774627574,40 L 146.18885917988985,40 L 147.65605501521844,40 L 147.6876611731375,40 L 147.72607591382825,40 L 149.20285751700646,40 L 149.23878174978864,40 L 149.28574305359018,40 L 150.74613030614708,40 L 150.78701763742333,40 L 150.82659700411455,40 L 152.30133603246122,40 L 152.3342322376423,40 L 152.37178694682507,40 L 153.84935691221892,40 L 153.88264729850783,40 L 153.92102620455242,40 L 155.39540688643746,40 L 155.43400080035906,40 L 155.47558690723554,40 L 156.94502240794958,40 L 156.97575061703753,40 L 157.0127857238509,40 L 158.49444083890776,40 L 158.52201559913308,40 L 158.55967781225434,40 L 160.03862741152562,40 L 160.07397828996915,40 L 160.11302013696783,40 L 161.5877412479914,40 L 161.625260122528,40 L 161.6651620010347,40 L 163.13995478135064,40 L 163.16709952582195,40 L 163.20592636494362,40 L 164.6867214484925,40 L 164.72329070490568,40 L 164.7559002329174,40 L 166.2301017415716,40 L 166.26357130109136,40 L 166.3021114630437,40 L 167.77547085751297,40 L 167.8160715116199,40 L 167.85321412237172,40 L 169.32696769794885,40 L 169.3576063204214,40 L 169.3920075807415,40 L 170.8811700541703,40 L 170.91856350744533,40 L 170.96065129936818,40 L 172.42799047328143,40 L 172.46138836350883,40 L 172.49478625373627,40 L 173.97255330968403,40 L 174.00964216846663,40 L 174.04612183826438,40 L 175.51399853187013,40 L 175.55427667416157,40 L 175.59261974556,40 L 177.06081895098126,40 L 177.1010791759496,40 L 177.1452632946732,40 L 178.6233528624365,40 L 178.6553711187865,40 L 178.69677805243217,40 L 180.16753943505435,40 L 180.1952037818951,40 L 180.23026798316926,40 L 181.7112064053028,40 L 181.74781149636215,40 L 181.7849361897909,40 L 183.26003356459924,40 L 183.29199806897998,40 L 183.33333333333334,40" stroke="#3b82f6" stroke-width="2" fill="none" stroke-dasharray="14800" stroke-dashoffset="14800">
      <animate attributeName="stroke-dashoffset" values="14800;0" dur="3s" begin="3.0999999999999996s" fill="freeze"/>
    </path>
    
    <!-- Glow effect for the line that also follows the circle -->
    <path d="M 30,160 L 30.030584870503326,160 L 30.063570662299824,160 L 31.550600974281707,160 L 31.573732238382348,160 L 31.624850361139227,160 L 33.09937438160891,160 L 33.12289982681739,160 L 33.15246340990496,160 L 34.64225298964168,160 L 34.66988150183625,160 L 34.69908673846216,160 L 36.189610928445305,160 L 36.21621815322412,160 L 36.246928444989024,160 L 37.738706847588006,160 L 37.76667578892116,160 L 37.792261726284224,160 L 39.28461348322187,160 L 39.312277830062605,160 L 39.34133972810385,160 L 40.83956836701284,160 L 40.868719851669496,160 L 40.89919721823432,160 L 42.38176611676844,160 L 42.411078857332846,115.24229074889868 L 42.44148455460534,115.24229074889868 L 43.93609389425149,115.24229074889868 L 43.95691382367438,115.24229074889868 L 43.9852411114692,115.24229074889868 L 45.47836331329943,115.24229074889868 L 45.49828737656814,115.24229074889868 L 45.53636168812032,115.24229074889868 L 47.02862385844256,115.24229074889868 L 47.05741699663754,115.24229074889868 L 47.081766638707855,115.24229074889868 L 48.57062451764424,115.24229074889868 L 48.60325196297907,115.24229074889868 L 48.63500145948282,115.24229074889868 L 50.125830243958376,115.24229074889868 L 50.14082704337916,115.24229074889868 L 50.17922386674684,115.24229074889868 L 51.673546529223664,115.24229074889868 L 51.70352221074215,115.24229074889868 L 51.73849682540091,115.24229074889868 L 53.221531574335195,115.24229074889868 L 53.247995460529346,115.24229074889868 L 53.2838301066961,115.24229074889868 L 54.76673943436881,115.24229074889868 L 54.796750950533465,115.24229074889868 L 54.83004133682238,115.24229074889868 L 56.31825419212777,115.24229074889868 L 56.34011332628949,115.24229074889868 L 56.3711461298699,115.24229074889868 L 57.861956997022375,115.24229074889868 L 57.88686207610827,115.24229074889868 L 57.91898783639677,115.24229074889868 L 59.41291631776575,115.24229074889868 L 59.442300727622495,115.24229074889868 L 59.467940416954804,115.24229074889868 L 60.9598084061692,115.24229074889868 L 60.99263294205795,115.24229074889868 L 61.01554919828159,115.24229074889868 L 62.50987186075841,115.24229074889868 L 62.53875458556882,115.24229074889868 L 62.572009137211566,115.24229074889868 L 64.05843026020861,115.24229074889868 L 64.08661420941877,115.24229074889868 L 64.12063920595409,115.24229074889868 L 65.60557319113522,115.24229074889868 L 65.63123079779064,115.24229074889868 L 65.66324905414062,115.24229074889868 L 67.15502745673959,115.24229074889868 L 67.18301431539584,115.24229074889868 L 67.21546258749984,115.24229074889868 L 68.69919611203437,115.24229074889868 L 68.73680457318639,115.24229074889868 L 68.75857412073269,115.24229074889868 L 70.24748575163832,115.24229074889868 L 70.27678057487965,115.24229074889868 L 70.3059320595363,115.24229074889868 L 71.79140356440993,115.24229074889868 L 71.82372641525235,115.24229074889868 L 71.85074573846208,115.24229074889868 L 72.93087364322045,115.24229074889868 L 73.34607177103157,115.24229074889868 L 73.37819753132007,115.24229074889868 L 73.41204335462456,115.24229074889868 L 74.8939493122046,115.24229074889868 L 74.92204367479934,115.24229074889868 L 74.95493987998043,115.24229074889868 L 76.44010679036163,115.24229074889868 L 76.46176883396944,115.24229074889868 L 76.49810516518252,115.24229074889868 L 77.99024191424317,115.24229074889868 L 78.01729707209908,115.24229074889868 L 78.04875989143349,115.24229074889868 L 79.53838821526247,115.24229074889868 L 79.57087232201263,115.24229074889868 L 79.60434188153238,115.24229074889868 L 81.08456361074258,115.24229074889868 L 81.11222795758331,115.24229074889868 L 81.14865387541182,115.24229074889868 L 82.63693840000954,115.24229074889868 L 82.66053551451034,115.24229074889868 L 82.68959741255159,115.24229074889868 L 84.18368714982833,115.24229074889868 L 84.21719254399423,115.24229074889868 L 84.24856577671324,115.24229074889868 L 85.73084799807802,115.24229074889868 L 85.76100285282735,115.24229074889868 L 85.79486659345494,115.24229074889868 L 87.27671879906572,115.24229074889868 L 87.30612112624553,115.24229074889868 L 87.33926817394979,115.24229074889868 L 88.82800063162459,115.24229074889868 L 88.8554858052345,115.24229074889868 L 88.88359808515231,115.24229074889868 L 90.37430144836628,115.24229074889868 L 90.40209121646862,115.24229074889868 L 90.43548910669602,115.24229074889868 L 91.91345325319773,115.24229074889868 L 91.95025543481097,115.24229074889868 L 91.98112698248363,115.24229074889868 L 93.4695906803122,115.24229074889868 L 93.49132439321232,115.24229074889868 L 93.53040207485718,115.24229074889868 L 95.01949287899365,115.24229074889868 L 95.05215615897464,115.24229074889868 L 95.08657533661781,115.24229074889868 L 96.56975342413678,115.24229074889868 L 96.59963951903984,115.24229074889868 L 96.63129942892817,115.24229074889868 L 98.10863646912195,115.24229074889868 L 98.14110265854903,115.24229074889868 L 98.1734792613607,115.24229074889868 L 99.66147710878907,115.24229074889868 L 99.6918648887385,115.24229074889868 L 99.72658866087407,115.24229074889868 L 101.2100175909162,115.24229074889868 L 101.23798653224937,115.24229074889868 L 101.26885807992201,115.24229074889868 L 102.75920309667433,115.24229074889868 L 102.77912715994304,115.24229074889868 L 102.82804145196066,115.24229074889868 L 104.30462596458494,115.24229074889868 L 104.33478081933426,115.24229074889868 L 104.36452357565267,115.24229074889868 L 105.85554945068215,115.24229074889868 L 105.88978945509447,115.24229074889868 L 105.92094767993648,115.24229074889868 L 107.40285363751651,115.24229074889868 L 107.43300849226583,115.24229074889868 L 107.4677680990476,115.24229074889868 L 108.94879610779654,115.24229074889868 L 108.97843136017644,115.24229074889868 L 109.00543276606311,115.24229074889868 L 110.49919999152432,115.24229074889868 L 110.52982069667382,115.24229074889868 L 110.56135518530057,115.24229074889868 L 112.05191520992987,115.24229074889868 L 112.08072626544795,115.24229074889868 L 112.10914313985819,115.24229074889868 L 113.59416671165472,115.24229074889868 L 113.62496659003506,40 L 113.6570565156774,40 L 115.14801072141454,40 L 115.169386087853,40 L 115.19886008432516,40 L 116.6921972940324,40 L 116.71609900302562,40 L 116.75850930676397,40 L 118.24209949271385,40 L 118.27358022937135,40 L 118.301226658889,40 L 119.78388514403854,40 L 119.81837599097403,40 L 119.8521501449862,40 L 121.34147387432276,40 L 121.35673943358981,40 L 121.39811053258931,40 L 122.8864308918332,40 L 122.91905833716802,40 L 122.95591427075055,40 L 124.43461302749866,40 L 124.46535915390973,40 L 124.50475934737008,40 L 125.98028673793243,40 L 126.0129858525596,40 L 126.05113183340411,40 L 127.53692585009324,40 L 127.57335176792175,40 L 129.07903401323344,40 L 129.15563056941488,40 L 130.62734157016047,40 L 130.66541588171265,40 L 130.70155512237181,40 L 132.17502202077958,40 L 132.21513890716327,40 L 132.24274950203477,40 L 133.72635760530773,40 L 133.75993466876594,40 L 133.79763271653337,40 L 135.26896745349424,40 L 135.3025265996294,40 L 135.34027839936607,40 L 136.81938925454511,40 L 136.8523750463416,40 L 136.88776175943127,40 L 138.37291075248942,40 L 138.41625275702808,40 L 139.95520747130558,40 L 139.99623814116654,40 L 141.4725180592984,40 L 141.50634596527982,40 L 143.02462408871912,40 L 143.0534351442372,40 L 143.10088021576198,40 L 144.56081953524176,40 L 144.59378740971522,40 L 144.62908453618945,40 L 146.11073965124632,40 L 146.14972774627574,40 L 146.18885917988985,40 L 147.65605501521844,40 L 147.6876611731375,40 L 147.72607591382825,40 L 149.20285751700646,40 L 149.23878174978864,40 L 149.28574305359018,40 L 150.74613030614708,40 L 150.78701763742333,40 L 150.82659700411455,40 L 152.30133603246122,40 L 152.3342322376423,40 L 152.37178694682507,40 L 153.84935691221892,40 L 153.88264729850783,40 L 153.92102620455242,40 L 155.39540688643746,40 L 155.43400080035906,40 L 155.47558690723554,40 L 156.94502240794958,40 L 156.97575061703753,40 L 157.0127857238509,40 L 158.49444083890776,40 L 158.52201559913308,40 L 158.55967781225434,40 L 160.03862741152562,40 L 160.07397828996915,40 L 160.11302013696783,40 L 161.5877412479914,40 L 161.625260122528,40 L 161.6651620010347,40 L 163.13995478135064,40 L 163.16709952582195,40 L 163.20592636494362,40 L 164.6867214484925,40 L 164.72329070490568,40 L 164.7559002329174,40 L 166.2301017415716,40 L 166.26357130109136,40 L 166.3021114630437,40 L 167.77547085751297,40 L 167.8160715116199,40 L 167.85321412237172,40 L 169.32696769794885,40 L 169.3576063204214,40 L 169.3920075807415,40 L 170.8811700541703,40 L 170.91856350744533,40 L 170.96065129936818,40 L 172.42799047328143,40 L 172.46138836350883,40 L 172.49478625373627,40 L 173.97255330968403,40 L 174.00964216846663,40 L 174.04612183826438,40 L 175.51399853187013,40 L 175.55427667416157,40 L 175.59261974556,40 L 177.06081895098126,40 L 177.1010791759496,40 L 177.1452632946732,40 L 178.6233528624365,40 L 178.6553711187865,40 L 178.69677805243217,40 L 180.16753943505435,40 L 180.1952037818951,40 L 180.23026798316926,40 L 181.7112064053028,40 L 181.74781149636215,40 L 181.7849361897909,40 L 183.26003356459924,40 L 183.29199806897998,40 L 183.33333333333334,40" stroke="#3b82f6" stroke-width="4" fill="none" opacity="0.4" stroke-dasharray="14800" stroke-dashoffset="14800">
      <animate attributeName="stroke-dashoffset" values="14800;0" dur="3s" begin="3.0999999999999996s" fill="freeze"/>
    </path>
    
    <!-- Animated circle that moves along the path and draws the line -->
    <circle r="5" fill="#3b82f6" opacity="0" filter="url(#trailGlow)">
      <animate attributeName="opacity" values="0;1;1;1" dur="3.2s" begin="2.9s" fill="freeze"/>
      <animate attributeName="r" values="5;6;5" dur="1s" begin="2.9s" repeatCount="3"/>
      <animateMotion dur="3s" begin="2.9s" fill="freeze">
        <mpath href="#path_publicContributions_293.33333333333337"/>
      </animateMotion>
    </circle>
    
    <!-- Small trail dots that fade out -->
    <circle r="2" fill="#3b82f6" opacity="0">
      <animate attributeName="opacity" values="0;0.6;0" dur="0.8s" begin="3.3s" fill="freeze"/>
      <animateMotion dur="3s" begin="2.9s" fill="freeze">
        <mpath href="#path_publicContributions_293.33333333333337"/>
      </animateMotion>
    </circle>
    
    <!-- Hidden path for motion animation -->
    <path id="path_publicContributions_293.33333333333337" d="M 30,160 L 30.030584870503326,160 L 30.063570662299824,160 L 31.550600974281707,160 L 31.573732238382348,160 L 31.624850361139227,160 L 33.09937438160891,160 L 33.12289982681739,160 L 33.15246340990496,160 L 34.64225298964168,160 L 34.66988150183625,160 L 34.69908673846216,160 L 36.189610928445305,160 L 36.21621815322412,160 L 36.246928444989024,160 L 37.738706847588006,160 L 37.76667578892116,160 L 37.792261726284224,160 L 39.28461348322187,160 L 39.312277830062605,160 L 39.34133972810385,160 L 40.83956836701284,160 L 40.868719851669496,160 L 40.89919721823432,160 L 42.38176611676844,160 L 42.411078857332846,115.24229074889868 L 42.44148455460534,115.24229074889868 L 43.93609389425149,115.24229074889868 L 43.95691382367438,115.24229074889868 L 43.9852411114692,115.24229074889868 L 45.47836331329943,115.24229074889868 L 45.49828737656814,115.24229074889868 L 45.53636168812032,115.24229074889868 L 47.02862385844256,115.24229074889868 L 47.05741699663754,115.24229074889868 L 47.081766638707855,115.24229074889868 L 48.57062451764424,115.24229074889868 L 48.60325196297907,115.24229074889868 L 48.63500145948282,115.24229074889868 L 50.125830243958376,115.24229074889868 L 50.14082704337916,115.24229074889868 L 50.17922386674684,115.24229074889868 L 51.673546529223664,115.24229074889868 L 51.70352221074215,115.24229074889868 L 51.73849682540091,115.24229074889868 L 53.221531574335195,115.24229074889868 L 53.247995460529346,115.24229074889868 L 53.2838301066961,115.24229074889868 L 54.76673943436881,115.24229074889868 L 54.796750950533465,115.24229074889868 L 54.83004133682238,115.24229074889868 L 56.31825419212777,115.24229074889868 L 56.34011332628949,115.24229074889868 L 56.3711461298699,115.24229074889868 L 57.861956997022375,115.24229074889868 L 57.88686207610827,115.24229074889868 L 57.91898783639677,115.24229074889868 L 59.41291631776575,115.24229074889868 L 59.442300727622495,115.24229074889868 L 59.467940416954804,115.24229074889868 L 60.9598084061692,115.24229074889868 L 60.99263294205795,115.24229074889868 L 61.01554919828159,115.24229074889868 L 62.50987186075841,115.24229074889868 L 62.53875458556882,115.24229074889868 L 62.572009137211566,115.24229074889868 L 64.05843026020861,115.24229074889868 L 64.08661420941877,115.24229074889868 L 64.12063920595409,115.24229074889868 L 65.60557319113522,115.24229074889868 L 65.63123079779064,115.24229074889868 L 65.66324905414062,115.24229074889868 L 67.15502745673959,115.24229074889868 L 67.18301431539584,115.24229074889868 L 67.21546258749984,115.24229074889868 L 68.69919611203437,115.24229074889868 L 68.73680457318639,115.24229074889868 L 68.75857412073269,115.24229074889868 L 70.24748575163832,115.24229074889868 L 70.27678057487965,115.24229074889868 L 70.3059320595363,115.24229074889868 L 71.79140356440993,115.24229074889868 L 71.82372641525235,115.24229074889868 L 71.85074573846208,115.24229074889868 L 72.93087364322045,115.24229074889868 L 73.34607177103157,115.24229074889868 L 73.37819753132007,115.24229074889868 L 73.41204335462456,115.24229074889868 L 74.8939493122046,115.24229074889868 L 74.92204367479934,115.24229074889868 L 74.95493987998043,115.24229074889868 L 76.44010679036163,115.24229074889868 L 76.46176883396944,115.24229074889868 L 76.49810516518252,115.24229074889868 L 77.99024191424317,115.24229074889868 L 78.01729707209908,115.24229074889868 L 78.04875989143349,115.24229074889868 L 79.53838821526247,115.24229074889868 L 79.57087232201263,115.24229074889868 L 79.60434188153238,115.24229074889868 L 81.08456361074258,115.24229074889868 L 81.11222795758331,115.24229074889868 L 81.14865387541182,115.24229074889868 L 82.63693840000954,115.24229074889868 L 82.66053551451034,115.24229074889868 L 82.68959741255159,115.24229074889868 L 84.18368714982833,115.24229074889868 L 84.21719254399423,115.24229074889868 L 84.24856577671324,115.24229074889868 L 85.73084799807802,115.24229074889868 L 85.76100285282735,115.24229074889868 L 85.79486659345494,115.24229074889868 L 87.27671879906572,115.24229074889868 L 87.30612112624553,115.24229074889868 L 87.33926817394979,115.24229074889868 L 88.82800063162459,115.24229074889868 L 88.8554858052345,115.24229074889868 L 88.88359808515231,115.24229074889868 L 90.37430144836628,115.24229074889868 L 90.40209121646862,115.24229074889868 L 90.43548910669602,115.24229074889868 L 91.91345325319773,115.24229074889868 L 91.95025543481097,115.24229074889868 L 91.98112698248363,115.24229074889868 L 93.4695906803122,115.24229074889868 L 93.49132439321232,115.24229074889868 L 93.53040207485718,115.24229074889868 L 95.01949287899365,115.24229074889868 L 95.05215615897464,115.24229074889868 L 95.08657533661781,115.24229074889868 L 96.56975342413678,115.24229074889868 L 96.59963951903984,115.24229074889868 L 96.63129942892817,115.24229074889868 L 98.10863646912195,115.24229074889868 L 98.14110265854903,115.24229074889868 L 98.1734792613607,115.24229074889868 L 99.66147710878907,115.24229074889868 L 99.6918648887385,115.24229074889868 L 99.72658866087407,115.24229074889868 L 101.2100175909162,115.24229074889868 L 101.23798653224937,115.24229074889868 L 101.26885807992201,115.24229074889868 L 102.75920309667433,115.24229074889868 L 102.77912715994304,115.24229074889868 L 102.82804145196066,115.24229074889868 L 104.30462596458494,115.24229074889868 L 104.33478081933426,115.24229074889868 L 104.36452357565267,115.24229074889868 L 105.85554945068215,115.24229074889868 L 105.88978945509447,115.24229074889868 L 105.92094767993648,115.24229074889868 L 107.40285363751651,115.24229074889868 L 107.43300849226583,115.24229074889868 L 107.4677680990476,115.24229074889868 L 108.94879610779654,115.24229074889868 L 108.97843136017644,115.24229074889868 L 109.00543276606311,115.24229074889868 L 110.49919999152432,115.24229074889868 L 110.52982069667382,115.24229074889868 L 110.56135518530057,115.24229074889868 L 112.05191520992987,115.24229074889868 L 112.08072626544795,115.24229074889868 L 112.10914313985819,115.24229074889868 L 113.59416671165472,115.24229074889868 L 113.62496659003506,40 L 113.6570565156774,40 L 115.14801072141454,40 L 115.169386087853,40 L 115.19886008432516,40 L 116.6921972940324,40 L 116.71609900302562,40 L 116.75850930676397,40 L 118.24209949271385,40 L 118.27358022937135,40 L 118.301226658889,40 L 119.78388514403854,40 L 119.81837599097403,40 L 119.8521501449862,40 L 121.34147387432276,40 L 121.35673943358981,40 L 121.39811053258931,40 L 122.8864308918332,40 L 122.91905833716802,40 L 122.95591427075055,40 L 124.43461302749866,40 L 124.46535915390973,40 L 124.50475934737008,40 L 125.98028673793243,40 L 126.0129858525596,40 L 126.05113183340411,40 L 127.53692585009324,40 L 127.57335176792175,40 L 129.07903401323344,40 L 129.15563056941488,40 L 130.62734157016047,40 L 130.66541588171265,40 L 130.70155512237181,40 L 132.17502202077958,40 L 132.21513890716327,40 L 132.24274950203477,40 L 133.72635760530773,40 L 133.75993466876594,40 L 133.79763271653337,40 L 135.26896745349424,40 L 135.3025265996294,40 L 135.34027839936607,40 L 136.81938925454511,40 L 136.8523750463416,40 L 136.88776175943127,40 L 138.37291075248942,40 L 138.41625275702808,40 L 139.95520747130558,40 L 139.99623814116654,40 L 141.4725180592984,40 L 141.50634596527982,40 L 143.02462408871912,40 L 143.0534351442372,40 L 143.10088021576198,40 L 144.56081953524176,40 L 144.59378740971522,40 L 144.62908453618945,40 L 146.11073965124632,40 L 146.14972774627574,40 L 146.18885917988985,40 L 147.65605501521844,40 L 147.6876611731375,40 L 147.72607591382825,40 L 149.20285751700646,40 L 149.23878174978864,40 L 149.28574305359018,40 L 150.74613030614708,40 L 150.78701763742333,40 L 150.82659700411455,40 L 152.30133603246122,40 L 152.3342322376423,40 L 152.37178694682507,40 L 153.84935691221892,40 L 153.88264729850783,40 L 153.92102620455242,40 L 155.39540688643746,40 L 155.43400080035906,40 L 155.47558690723554,40 L 156.94502240794958,40 L 156.97575061703753,40 L 157.0127857238509,40 L 158.49444083890776,40 L 158.52201559913308,40 L 158.55967781225434,40 L 160.03862741152562,40 L 160.07397828996915,40 L 160.11302013696783,40 L 161.5877412479914,40 L 161.625260122528,40 L 161.6651620010347,40 L 163.13995478135064,40 L 163.16709952582195,40 L 163.20592636494362,40 L 164.6867214484925,40 L 164.72329070490568,40 L 164.7559002329174,40 L 166.2301017415716,40 L 166.26357130109136,40 L 166.3021114630437,40 L 167.77547085751297,40 L 167.8160715116199,40 L 167.85321412237172,40 L 169.32696769794885,40 L 169.3576063204214,40 L 169.3920075807415,40 L 170.8811700541703,40 L 170.91856350744533,40 L 170.96065129936818,40 L 172.42799047328143,40 L 172.46138836350883,40 L 172.49478625373627,40 L 173.97255330968403,40 L 174.00964216846663,40 L 174.04612183826438,40 L 175.51399853187013,40 L 175.55427667416157,40 L 175.59261974556,40 L 177.06081895098126,40 L 177.1010791759496,40 L 177.1452632946732,40 L 178.6233528624365,40 L 178.6553711187865,40 L 178.69677805243217,40 L 180.16753943505435,40 L 180.1952037818951,40 L 180.23026798316926,40 L 181.7112064053028,40 L 181.74781149636215,40 L 181.7849361897909,40 L 183.26003356459924,40 L 183.29199806897998,40 L 183.33333333333334,40" fill="none" stroke="none"/>
  </g>
  <!-- 📊 Total Contributions Chart -->
  <g transform="translate(526.6666666666667, 250)">
    <!-- Chart Background -->
    <rect x="0" y="0" width="213.33333333333334" height="200" fill="#ffffff" stroke="#e2e8f0" stroke-width="1" rx="8" filter="url(#shadow)">
      <animate attributeName="opacity" values="0;1" dur="0.5s" begin="2.8s" fill="freeze"/>
    </rect>
    
    <!-- Chart Title -->
    <text x="106.66666666666667" y="25" text-anchor="middle" fill="#1e293b" font-size="14" font-weight="bold" font-family="Arial, sans-serif">
      📊 Total Contributions
      <animate attributeName="opacity" values="0;1" dur="0.5s" begin="3s" fill="freeze"/>
    </text>
    
    <!-- Y-axis labels -->
    <text x="10" y="45" fill="#64748b" font-size="10" font-family="Arial, sans-serif">5,314
      <animate attributeName="opacity" values="0;1" dur="0.5s" begin="3.1999999999999997s" fill="freeze"/>
    </text>
    <text x="10" y="185" fill="#64748b" font-size="10" font-family="Arial, sans-serif">4,408
      <animate attributeName="opacity" values="0;1" dur="0.5s" begin="3.1999999999999997s" fill="freeze"/>
    </text>
    
    <!-- Chart Line with draw animation that follows the circle -->
    <path d="M 30,160 L 30.030584870503326,160 L 30.063570662299824,160 L 31.550600974281707,160 L 31.573732238382348,160 L 31.624850361139227,160 L 33.09937438160891,160 L 33.12289982681739,160 L 33.15246340990496,160 L 34.64225298964168,160 L 34.66988150183625,160 L 34.69908673846216,160 L 36.189610928445305,160 L 36.21621815322412,160 L 36.246928444989024,160 L 37.738706847588006,160 L 37.76667578892116,160 L 37.792261726284224,160 L 39.28461348322187,160 L 39.312277830062605,160 L 39.34133972810385,160 L 40.83956836701284,160 L 40.868719851669496,160 L 40.89919721823432,160 L 42.38176611676844,160 L 42.411078857332846,92.58278145695365 L 42.44148455460534,92.58278145695365 L 43.93609389425149,92.58278145695365 L 43.95691382367438,92.58278145695365 L 43.9852411114692,92.58278145695365 L 45.47836331329943,92.58278145695365 L 45.49828737656814,92.58278145695365 L 45.53636168812032,92.58278145695365 L 47.02862385844256,92.58278145695365 L 47.05741699663754,92.58278145695365 L 47.081766638707855,92.58278145695365 L 48.57062451764424,92.58278145695365 L 48.60325196297907,92.58278145695365 L 48.63500145948282,92.58278145695365 L 50.125830243958376,92.58278145695365 L 50.14082704337916,92.58278145695365 L 50.17922386674684,92.58278145695365 L 51.673546529223664,92.58278145695365 L 51.70352221074215,92.58278145695365 L 51.73849682540091,92.58278145695365 L 53.221531574335195,92.58278145695365 L 53.247995460529346,92.58278145695365 L 53.2838301066961,92.58278145695365 L 54.76673943436881,92.58278145695365 L 54.796750950533465,92.58278145695365 L 54.83004133682238,92.58278145695365 L 56.31825419212777,92.58278145695365 L 56.34011332628949,92.58278145695365 L 56.3711461298699,92.58278145695365 L 57.861956997022375,92.58278145695365 L 57.88686207610827,92.58278145695365 L 57.91898783639677,92.58278145695365 L 59.41291631776575,92.58278145695365 L 59.442300727622495,92.58278145695365 L 59.467940416954804,92.58278145695365 L 60.9598084061692,92.58278145695365 L 60.99263294205795,92.58278145695365 L 61.01554919828159,92.58278145695365 L 62.50987186075841,92.58278145695365 L 62.53875458556882,92.58278145695365 L 62.572009137211566,92.58278145695365 L 64.05843026020861,92.58278145695365 L 64.08661420941877,92.58278145695365 L 64.12063920595409,92.58278145695365 L 65.60557319113522,92.58278145695365 L 65.63123079779064,92.58278145695365 L 65.66324905414062,92.58278145695365 L 67.15502745673959,92.58278145695365 L 67.18301431539584,92.58278145695365 L 67.21546258749984,92.58278145695365 L 68.69919611203437,92.58278145695365 L 68.73680457318639,92.58278145695365 L 68.75857412073269,92.58278145695365 L 70.24748575163832,92.58278145695365 L 70.27678057487965,92.58278145695365 L 70.3059320595363,92.58278145695365 L 71.79140356440993,92.58278145695365 L 71.82372641525235,92.58278145695365 L 71.85074573846208,92.58278145695365 L 72.93087364322045,92.58278145695365 L 73.34607177103157,92.58278145695365 L 73.37819753132007,92.58278145695365 L 73.41204335462456,92.58278145695365 L 74.8939493122046,92.58278145695365 L 74.92204367479934,92.58278145695365 L 74.95493987998043,92.58278145695365 L 76.44010679036163,92.58278145695365 L 76.46176883396944,92.58278145695365 L 76.49810516518252,92.58278145695365 L 77.99024191424317,92.58278145695365 L 78.01729707209908,92.58278145695365 L 78.04875989143349,92.58278145695365 L 79.53838821526247,92.58278145695365 L 79.57087232201263,92.58278145695365 L 79.60434188153238,92.58278145695365 L 81.08456361074258,92.58278145695365 L 81.11222795758331,92.58278145695365 L 81.14865387541182,92.58278145695365 L 82.63693840000954,92.58278145695365 L 82.66053551451034,92.58278145695365 L 82.68959741255159,92.58278145695365 L 84.18368714982833,92.58278145695365 L 84.21719254399423,92.58278145695365 L 84.24856577671324,92.58278145695365 L 85.73084799807802,92.58278145695365 L 85.76100285282735,92.58278145695365 L 85.79486659345494,92.58278145695365 L 87.27671879906572,92.58278145695365 L 87.30612112624553,92.58278145695365 L 87.33926817394979,92.58278145695365 L 88.82800063162459,92.58278145695365 L 88.8554858052345,92.58278145695365 L 88.88359808515231,92.58278145695365 L 90.37430144836628,92.58278145695365 L 90.40209121646862,92.58278145695365 L 90.43548910669602,92.58278145695365 L 91.91345325319773,92.58278145695365 L 91.95025543481097,92.58278145695365 L 91.98112698248363,92.58278145695365 L 93.4695906803122,92.58278145695365 L 93.49132439321232,92.58278145695365 L 93.53040207485718,92.58278145695365 L 95.01949287899365,92.58278145695365 L 95.05215615897464,92.58278145695365 L 95.08657533661781,92.58278145695365 L 96.56975342413678,92.58278145695365 L 96.59963951903984,92.58278145695365 L 96.63129942892817,92.58278145695365 L 98.10863646912195,92.58278145695365 L 98.14110265854903,92.58278145695365 L 98.1734792613607,92.58278145695365 L 99.66147710878907,92.58278145695365 L 99.6918648887385,92.58278145695365 L 99.72658866087407,92.58278145695365 L 101.2100175909162,92.58278145695365 L 101.23798653224937,92.58278145695365 L 101.26885807992201,92.58278145695365 L 102.75920309667433,92.58278145695365 L 102.77912715994304,92.58278145695365 L 102.82804145196066,92.58278145695365 L 104.30462596458494,92.58278145695365 L 104.33478081933426,92.58278145695365 L 104.36452357565267,92.58278145695365 L 105.85554945068215,92.58278145695365 L 105.88978945509447,92.58278145695365 L 105.92094767993648,92.58278145695365 L 107.40285363751651,92.58278145695365 L 107.43300849226583,92.58278145695365 L 107.4677680990476,92.58278145695365 L 108.94879610779654,92.58278145695365 L 108.97843136017644,92.58278145695365 L 109.00543276606311,92.58278145695365 L 110.49919999152432,92.58278145695365 L 110.52982069667382,92.58278145695365 L 110.56135518530057,92.58278145695365 L 112.05191520992987,92.58278145695365 L 112.08072626544795,92.58278145695365 L 112.10914313985819,92.58278145695365 L 113.59416671165472,92.58278145695365 L 113.62496659003506,40 L 113.6570565156774,40 L 115.14801072141454,40 L 115.169386087853,40 L 115.19886008432516,40 L 116.6921972940324,40 L 116.71609900302562,40 L 116.75850930676397,40 L 118.24209949271385,40 L 118.27358022937135,40 L 118.301226658889,40 L 119.78388514403854,40 L 119.81837599097403,40 L 119.8521501449862,40 L 121.34147387432276,40 L 121.35673943358981,40 L 121.39811053258931,40 L 122.8864308918332,40 L 122.91905833716802,40 L 122.95591427075055,40 L 124.43461302749866,40 L 124.46535915390973,40 L 124.50475934737008,40 L 125.98028673793243,40 L 126.0129858525596,40 L 126.05113183340411,40 L 127.53692585009324,40 L 127.57335176792175,40 L 129.07903401323344,40 L 129.15563056941488,40 L 130.62734157016047,40 L 130.66541588171265,40 L 130.70155512237181,40 L 132.17502202077958,40 L 132.21513890716327,40 L 132.24274950203477,40 L 133.72635760530773,40 L 133.75993466876594,40 L 133.79763271653337,40 L 135.26896745349424,40 L 135.3025265996294,40 L 135.34027839936607,40 L 136.81938925454511,40 L 136.8523750463416,40 L 136.88776175943127,40 L 138.37291075248942,40 L 138.41625275702808,40 L 139.95520747130558,40 L 139.99623814116654,40 L 141.4725180592984,40 L 141.50634596527982,40 L 143.02462408871912,40 L 143.0534351442372,40 L 143.10088021576198,40 L 144.56081953524176,40 L 144.59378740971522,40 L 144.62908453618945,40 L 146.11073965124632,40 L 146.14972774627574,40 L 146.18885917988985,40 L 147.65605501521844,40 L 147.6876611731375,40 L 147.72607591382825,40 L 149.20285751700646,40 L 149.23878174978864,40 L 149.28574305359018,40 L 150.74613030614708,40 L 150.78701763742333,40 L 150.82659700411455,40 L 152.30133603246122,40 L 152.3342322376423,40 L 152.37178694682507,40 L 153.84935691221892,40 L 153.88264729850783,40 L 153.92102620455242,40 L 155.39540688643746,40 L 155.43400080035906,40 L 155.47558690723554,40 L 156.94502240794958,40 L 156.97575061703753,40 L 157.0127857238509,40 L 158.49444083890776,40 L 158.52201559913308,40 L 158.55967781225434,40 L 160.03862741152562,40 L 160.07397828996915,40 L 160.11302013696783,40 L 161.5877412479914,40 L 161.625260122528,40 L 161.6651620010347,40 L 163.13995478135064,40 L 163.16709952582195,40 L 163.20592636494362,40 L 164.6867214484925,40 L 164.72329070490568,40 L 164.7559002329174,40 L 166.2301017415716,40 L 166.26357130109136,40 L 166.3021114630437,40 L 167.77547085751297,40 L 167.8160715116199,40 L 167.85321412237172,40 L 169.32696769794885,40 L 169.3576063204214,40 L 169.3920075807415,40 L 170.8811700541703,40 L 170.91856350744533,40 L 170.96065129936818,40 L 172.42799047328143,40 L 172.46138836350883,40 L 172.49478625373627,40 L 173.97255330968403,40 L 174.00964216846663,40 L 174.04612183826438,40 L 175.51399853187013,40 L 175.55427667416157,40 L 175.59261974556,40 L 177.06081895098126,40 L 177.1010791759496,40 L 177.1452632946732,40 L 178.6233528624365,40 L 178.6553711187865,40 L 178.69677805243217,40 L 180.16753943505435,40 L 180.1952037818951,40 L 180.23026798316926,40 L 181.7112064053028,40 L 181.74781149636215,40 L 181.7849361897909,40 L 183.26003356459924,40 L 183.29199806897998,40 L 183.33333333333334,40" stroke="#f59e0b" stroke-width="2" fill="none" stroke-dasharray="14800" stroke-dashoffset="14800">
      <animate attributeName="stroke-dashoffset" values="14800;0" dur="3s" begin="3.5999999999999996s" fill="freeze"/>
    </path>
    
    <!-- Glow effect for the line that also follows the circle -->
    <path d="M 30,160 L 30.030584870503326,160 L 30.063570662299824,160 L 31.550600974281707,160 L 31.573732238382348,160 L 31.624850361139227,160 L 33.09937438160891,160 L 33.12289982681739,160 L 33.15246340990496,160 L 34.64225298964168,160 L 34.66988150183625,160 L 34.69908673846216,160 L 36.189610928445305,160 L 36.21621815322412,160 L 36.246928444989024,160 L 37.738706847588006,160 L 37.76667578892116,160 L 37.792261726284224,160 L 39.28461348322187,160 L 39.312277830062605,160 L 39.34133972810385,160 L 40.83956836701284,160 L 40.868719851669496,160 L 40.89919721823432,160 L 42.38176611676844,160 L 42.411078857332846,92.58278145695365 L 42.44148455460534,92.58278145695365 L 43.93609389425149,92.58278145695365 L 43.95691382367438,92.58278145695365 L 43.9852411114692,92.58278145695365 L 45.47836331329943,92.58278145695365 L 45.49828737656814,92.58278145695365 L 45.53636168812032,92.58278145695365 L 47.02862385844256,92.58278145695365 L 47.05741699663754,92.58278145695365 L 47.081766638707855,92.58278145695365 L 48.57062451764424,92.58278145695365 L 48.60325196297907,92.58278145695365 L 48.63500145948282,92.58278145695365 L 50.125830243958376,92.58278145695365 L 50.14082704337916,92.58278145695365 L 50.17922386674684,92.58278145695365 L 51.673546529223664,92.58278145695365 L 51.70352221074215,92.58278145695365 L 51.73849682540091,92.58278145695365 L 53.221531574335195,92.58278145695365 L 53.247995460529346,92.58278145695365 L 53.2838301066961,92.58278145695365 L 54.76673943436881,92.58278145695365 L 54.796750950533465,92.58278145695365 L 54.83004133682238,92.58278145695365 L 56.31825419212777,92.58278145695365 L 56.34011332628949,92.58278145695365 L 56.3711461298699,92.58278145695365 L 57.861956997022375,92.58278145695365 L 57.88686207610827,92.58278145695365 L 57.91898783639677,92.58278145695365 L 59.41291631776575,92.58278145695365 L 59.442300727622495,92.58278145695365 L 59.467940416954804,92.58278145695365 L 60.9598084061692,92.58278145695365 L 60.99263294205795,92.58278145695365 L 61.01554919828159,92.58278145695365 L 62.50987186075841,92.58278145695365 L 62.53875458556882,92.58278145695365 L 62.572009137211566,92.58278145695365 L 64.05843026020861,92.58278145695365 L 64.08661420941877,92.58278145695365 L 64.12063920595409,92.58278145695365 L 65.60557319113522,92.58278145695365 L 65.63123079779064,92.58278145695365 L 65.66324905414062,92.58278145695365 L 67.15502745673959,92.58278145695365 L 67.18301431539584,92.58278145695365 L 67.21546258749984,92.58278145695365 L 68.69919611203437,92.58278145695365 L 68.73680457318639,92.58278145695365 L 68.75857412073269,92.58278145695365 L 70.24748575163832,92.58278145695365 L 70.27678057487965,92.58278145695365 L 70.3059320595363,92.58278145695365 L 71.79140356440993,92.58278145695365 L 71.82372641525235,92.58278145695365 L 71.85074573846208,92.58278145695365 L 72.93087364322045,92.58278145695365 L 73.34607177103157,92.58278145695365 L 73.37819753132007,92.58278145695365 L 73.41204335462456,92.58278145695365 L 74.8939493122046,92.58278145695365 L 74.92204367479934,92.58278145695365 L 74.95493987998043,92.58278145695365 L 76.44010679036163,92.58278145695365 L 76.46176883396944,92.58278145695365 L 76.49810516518252,92.58278145695365 L 77.99024191424317,92.58278145695365 L 78.01729707209908,92.58278145695365 L 78.04875989143349,92.58278145695365 L 79.53838821526247,92.58278145695365 L 79.57087232201263,92.58278145695365 L 79.60434188153238,92.58278145695365 L 81.08456361074258,92.58278145695365 L 81.11222795758331,92.58278145695365 L 81.14865387541182,92.58278145695365 L 82.63693840000954,92.58278145695365 L 82.66053551451034,92.58278145695365 L 82.68959741255159,92.58278145695365 L 84.18368714982833,92.58278145695365 L 84.21719254399423,92.58278145695365 L 84.24856577671324,92.58278145695365 L 85.73084799807802,92.58278145695365 L 85.76100285282735,92.58278145695365 L 85.79486659345494,92.58278145695365 L 87.27671879906572,92.58278145695365 L 87.30612112624553,92.58278145695365 L 87.33926817394979,92.58278145695365 L 88.82800063162459,92.58278145695365 L 88.8554858052345,92.58278145695365 L 88.88359808515231,92.58278145695365 L 90.37430144836628,92.58278145695365 L 90.40209121646862,92.58278145695365 L 90.43548910669602,92.58278145695365 L 91.91345325319773,92.58278145695365 L 91.95025543481097,92.58278145695365 L 91.98112698248363,92.58278145695365 L 93.4695906803122,92.58278145695365 L 93.49132439321232,92.58278145695365 L 93.53040207485718,92.58278145695365 L 95.01949287899365,92.58278145695365 L 95.05215615897464,92.58278145695365 L 95.08657533661781,92.58278145695365 L 96.56975342413678,92.58278145695365 L 96.59963951903984,92.58278145695365 L 96.63129942892817,92.58278145695365 L 98.10863646912195,92.58278145695365 L 98.14110265854903,92.58278145695365 L 98.1734792613607,92.58278145695365 L 99.66147710878907,92.58278145695365 L 99.6918648887385,92.58278145695365 L 99.72658866087407,92.58278145695365 L 101.2100175909162,92.58278145695365 L 101.23798653224937,92.58278145695365 L 101.26885807992201,92.58278145695365 L 102.75920309667433,92.58278145695365 L 102.77912715994304,92.58278145695365 L 102.82804145196066,92.58278145695365 L 104.30462596458494,92.58278145695365 L 104.33478081933426,92.58278145695365 L 104.36452357565267,92.58278145695365 L 105.85554945068215,92.58278145695365 L 105.88978945509447,92.58278145695365 L 105.92094767993648,92.58278145695365 L 107.40285363751651,92.58278145695365 L 107.43300849226583,92.58278145695365 L 107.4677680990476,92.58278145695365 L 108.94879610779654,92.58278145695365 L 108.97843136017644,92.58278145695365 L 109.00543276606311,92.58278145695365 L 110.49919999152432,92.58278145695365 L 110.52982069667382,92.58278145695365 L 110.56135518530057,92.58278145695365 L 112.05191520992987,92.58278145695365 L 112.08072626544795,92.58278145695365 L 112.10914313985819,92.58278145695365 L 113.59416671165472,92.58278145695365 L 113.62496659003506,40 L 113.6570565156774,40 L 115.14801072141454,40 L 115.169386087853,40 L 115.19886008432516,40 L 116.6921972940324,40 L 116.71609900302562,40 L 116.75850930676397,40 L 118.24209949271385,40 L 118.27358022937135,40 L 118.301226658889,40 L 119.78388514403854,40 L 119.81837599097403,40 L 119.8521501449862,40 L 121.34147387432276,40 L 121.35673943358981,40 L 121.39811053258931,40 L 122.8864308918332,40 L 122.91905833716802,40 L 122.95591427075055,40 L 124.43461302749866,40 L 124.46535915390973,40 L 124.50475934737008,40 L 125.98028673793243,40 L 126.0129858525596,40 L 126.05113183340411,40 L 127.53692585009324,40 L 127.57335176792175,40 L 129.07903401323344,40 L 129.15563056941488,40 L 130.62734157016047,40 L 130.66541588171265,40 L 130.70155512237181,40 L 132.17502202077958,40 L 132.21513890716327,40 L 132.24274950203477,40 L 133.72635760530773,40 L 133.75993466876594,40 L 133.79763271653337,40 L 135.26896745349424,40 L 135.3025265996294,40 L 135.34027839936607,40 L 136.81938925454511,40 L 136.8523750463416,40 L 136.88776175943127,40 L 138.37291075248942,40 L 138.41625275702808,40 L 139.95520747130558,40 L 139.99623814116654,40 L 141.4725180592984,40 L 141.50634596527982,40 L 143.02462408871912,40 L 143.0534351442372,40 L 143.10088021576198,40 L 144.56081953524176,40 L 144.59378740971522,40 L 144.62908453618945,40 L 146.11073965124632,40 L 146.14972774627574,40 L 146.18885917988985,40 L 147.65605501521844,40 L 147.6876611731375,40 L 147.72607591382825,40 L 149.20285751700646,40 L 149.23878174978864,40 L 149.28574305359018,40 L 150.74613030614708,40 L 150.78701763742333,40 L 150.82659700411455,40 L 152.30133603246122,40 L 152.3342322376423,40 L 152.37178694682507,40 L 153.84935691221892,40 L 153.88264729850783,40 L 153.92102620455242,40 L 155.39540688643746,40 L 155.43400080035906,40 L 155.47558690723554,40 L 156.94502240794958,40 L 156.97575061703753,40 L 157.0127857238509,40 L 158.49444083890776,40 L 158.52201559913308,40 L 158.55967781225434,40 L 160.03862741152562,40 L 160.07397828996915,40 L 160.11302013696783,40 L 161.5877412479914,40 L 161.625260122528,40 L 161.6651620010347,40 L 163.13995478135064,40 L 163.16709952582195,40 L 163.20592636494362,40 L 164.6867214484925,40 L 164.72329070490568,40 L 164.7559002329174,40 L 166.2301017415716,40 L 166.26357130109136,40 L 166.3021114630437,40 L 167.77547085751297,40 L 167.8160715116199,40 L 167.85321412237172,40 L 169.32696769794885,40 L 169.3576063204214,40 L 169.3920075807415,40 L 170.8811700541703,40 L 170.91856350744533,40 L 170.96065129936818,40 L 172.42799047328143,40 L 172.46138836350883,40 L 172.49478625373627,40 L 173.97255330968403,40 L 174.00964216846663,40 L 174.04612183826438,40 L 175.51399853187013,40 L 175.55427667416157,40 L 175.59261974556,40 L 177.06081895098126,40 L 177.1010791759496,40 L 177.1452632946732,40 L 178.6233528624365,40 L 178.6553711187865,40 L 178.69677805243217,40 L 180.16753943505435,40 L 180.1952037818951,40 L 180.23026798316926,40 L 181.7112064053028,40 L 181.74781149636215,40 L 181.7849361897909,40 L 183.26003356459924,40 L 183.29199806897998,40 L 183.33333333333334,40" stroke="#f59e0b" stroke-width="4" fill="none" opacity="0.4" stroke-dasharray="14800" stroke-dashoffset="14800">
      <animate attributeName="stroke-dashoffset" values="14800;0" dur="3s" begin="3.5999999999999996s" fill="freeze"/>
    </path>
    
    <!-- Animated circle that moves along the path and draws the line -->
    <circle r="5" fill="#f59e0b" opacity="0" filter="url(#trailGlow)">
      <animate attributeName="opacity" values="0;1;1;1" dur="3.2s" begin="3.4s" fill="freeze"/>
      <animate attributeName="r" values="5;6;5" dur="1s" begin="3.4s" repeatCount="3"/>
      <animateMotion dur="3s" begin="3.4s" fill="freeze">
        <mpath href="#path_totalContributions_526.6666666666667"/>
      </animateMotion>
    </circle>
    
    <!-- Small trail dots that fade out -->
    <circle r="2" fill="#f59e0b" opacity="0">
      <animate attributeName="opacity" values="0;0.6;0" dur="0.8s" begin="3.8s" fill="freeze"/>
      <animateMotion dur="3s" begin="3.4s" fill="freeze">
        <mpath href="#path_totalContributions_526.6666666666667"/>
      </animateMotion>
    </circle>
    
    <!-- Hidden path for motion animation -->
    <path id="path_totalContributions_526.6666666666667" d="M 30,160 L 30.030584870503326,160 L 30.063570662299824,160 L 31.550600974281707,160 L 31.573732238382348,160 L 31.624850361139227,160 L 33.09937438160891,160 L 33.12289982681739,160 L 33.15246340990496,160 L 34.64225298964168,160 L 34.66988150183625,160 L 34.69908673846216,160 L 36.189610928445305,160 L 36.21621815322412,160 L 36.246928444989024,160 L 37.738706847588006,160 L 37.76667578892116,160 L 37.792261726284224,160 L 39.28461348322187,160 L 39.312277830062605,160 L 39.34133972810385,160 L 40.83956836701284,160 L 40.868719851669496,160 L 40.89919721823432,160 L 42.38176611676844,160 L 42.411078857332846,92.58278145695365 L 42.44148455460534,92.58278145695365 L 43.93609389425149,92.58278145695365 L 43.95691382367438,92.58278145695365 L 43.9852411114692,92.58278145695365 L 45.47836331329943,92.58278145695365 L 45.49828737656814,92.58278145695365 L 45.53636168812032,92.58278145695365 L 47.02862385844256,92.58278145695365 L 47.05741699663754,92.58278145695365 L 47.081766638707855,92.58278145695365 L 48.57062451764424,92.58278145695365 L 48.60325196297907,92.58278145695365 L 48.63500145948282,92.58278145695365 L 50.125830243958376,92.58278145695365 L 50.14082704337916,92.58278145695365 L 50.17922386674684,92.58278145695365 L 51.673546529223664,92.58278145695365 L 51.70352221074215,92.58278145695365 L 51.73849682540091,92.58278145695365 L 53.221531574335195,92.58278145695365 L 53.247995460529346,92.58278145695365 L 53.2838301066961,92.58278145695365 L 54.76673943436881,92.58278145695365 L 54.796750950533465,92.58278145695365 L 54.83004133682238,92.58278145695365 L 56.31825419212777,92.58278145695365 L 56.34011332628949,92.58278145695365 L 56.3711461298699,92.58278145695365 L 57.861956997022375,92.58278145695365 L 57.88686207610827,92.58278145695365 L 57.91898783639677,92.58278145695365 L 59.41291631776575,92.58278145695365 L 59.442300727622495,92.58278145695365 L 59.467940416954804,92.58278145695365 L 60.9598084061692,92.58278145695365 L 60.99263294205795,92.58278145695365 L 61.01554919828159,92.58278145695365 L 62.50987186075841,92.58278145695365 L 62.53875458556882,92.58278145695365 L 62.572009137211566,92.58278145695365 L 64.05843026020861,92.58278145695365 L 64.08661420941877,92.58278145695365 L 64.12063920595409,92.58278145695365 L 65.60557319113522,92.58278145695365 L 65.63123079779064,92.58278145695365 L 65.66324905414062,92.58278145695365 L 67.15502745673959,92.58278145695365 L 67.18301431539584,92.58278145695365 L 67.21546258749984,92.58278145695365 L 68.69919611203437,92.58278145695365 L 68.73680457318639,92.58278145695365 L 68.75857412073269,92.58278145695365 L 70.24748575163832,92.58278145695365 L 70.27678057487965,92.58278145695365 L 70.3059320595363,92.58278145695365 L 71.79140356440993,92.58278145695365 L 71.82372641525235,92.58278145695365 L 71.85074573846208,92.58278145695365 L 72.93087364322045,92.58278145695365 L 73.34607177103157,92.58278145695365 L 73.37819753132007,92.58278145695365 L 73.41204335462456,92.58278145695365 L 74.8939493122046,92.58278145695365 L 74.92204367479934,92.58278145695365 L 74.95493987998043,92.58278145695365 L 76.44010679036163,92.58278145695365 L 76.46176883396944,92.58278145695365 L 76.49810516518252,92.58278145695365 L 77.99024191424317,92.58278145695365 L 78.01729707209908,92.58278145695365 L 78.04875989143349,92.58278145695365 L 79.53838821526247,92.58278145695365 L 79.57087232201263,92.58278145695365 L 79.60434188153238,92.58278145695365 L 81.08456361074258,92.58278145695365 L 81.11222795758331,92.58278145695365 L 81.14865387541182,92.58278145695365 L 82.63693840000954,92.58278145695365 L 82.66053551451034,92.58278145695365 L 82.68959741255159,92.58278145695365 L 84.18368714982833,92.58278145695365 L 84.21719254399423,92.58278145695365 L 84.24856577671324,92.58278145695365 L 85.73084799807802,92.58278145695365 L 85.76100285282735,92.58278145695365 L 85.79486659345494,92.58278145695365 L 87.27671879906572,92.58278145695365 L 87.30612112624553,92.58278145695365 L 87.33926817394979,92.58278145695365 L 88.82800063162459,92.58278145695365 L 88.8554858052345,92.58278145695365 L 88.88359808515231,92.58278145695365 L 90.37430144836628,92.58278145695365 L 90.40209121646862,92.58278145695365 L 90.43548910669602,92.58278145695365 L 91.91345325319773,92.58278145695365 L 91.95025543481097,92.58278145695365 L 91.98112698248363,92.58278145695365 L 93.4695906803122,92.58278145695365 L 93.49132439321232,92.58278145695365 L 93.53040207485718,92.58278145695365 L 95.01949287899365,92.58278145695365 L 95.05215615897464,92.58278145695365 L 95.08657533661781,92.58278145695365 L 96.56975342413678,92.58278145695365 L 96.59963951903984,92.58278145695365 L 96.63129942892817,92.58278145695365 L 98.10863646912195,92.58278145695365 L 98.14110265854903,92.58278145695365 L 98.1734792613607,92.58278145695365 L 99.66147710878907,92.58278145695365 L 99.6918648887385,92.58278145695365 L 99.72658866087407,92.58278145695365 L 101.2100175909162,92.58278145695365 L 101.23798653224937,92.58278145695365 L 101.26885807992201,92.58278145695365 L 102.75920309667433,92.58278145695365 L 102.77912715994304,92.58278145695365 L 102.82804145196066,92.58278145695365 L 104.30462596458494,92.58278145695365 L 104.33478081933426,92.58278145695365 L 104.36452357565267,92.58278145695365 L 105.85554945068215,92.58278145695365 L 105.88978945509447,92.58278145695365 L 105.92094767993648,92.58278145695365 L 107.40285363751651,92.58278145695365 L 107.43300849226583,92.58278145695365 L 107.4677680990476,92.58278145695365 L 108.94879610779654,92.58278145695365 L 108.97843136017644,92.58278145695365 L 109.00543276606311,92.58278145695365 L 110.49919999152432,92.58278145695365 L 110.52982069667382,92.58278145695365 L 110.56135518530057,92.58278145695365 L 112.05191520992987,92.58278145695365 L 112.08072626544795,92.58278145695365 L 112.10914313985819,92.58278145695365 L 113.59416671165472,92.58278145695365 L 113.62496659003506,40 L 113.6570565156774,40 L 115.14801072141454,40 L 115.169386087853,40 L 115.19886008432516,40 L 116.6921972940324,40 L 116.71609900302562,40 L 116.75850930676397,40 L 118.24209949271385,40 L 118.27358022937135,40 L 118.301226658889,40 L 119.78388514403854,40 L 119.81837599097403,40 L 119.8521501449862,40 L 121.34147387432276,40 L 121.35673943358981,40 L 121.39811053258931,40 L 122.8864308918332,40 L 122.91905833716802,40 L 122.95591427075055,40 L 124.43461302749866,40 L 124.46535915390973,40 L 124.50475934737008,40 L 125.98028673793243,40 L 126.0129858525596,40 L 126.05113183340411,40 L 127.53692585009324,40 L 127.57335176792175,40 L 129.07903401323344,40 L 129.15563056941488,40 L 130.62734157016047,40 L 130.66541588171265,40 L 130.70155512237181,40 L 132.17502202077958,40 L 132.21513890716327,40 L 132.24274950203477,40 L 133.72635760530773,40 L 133.75993466876594,40 L 133.79763271653337,40 L 135.26896745349424,40 L 135.3025265996294,40 L 135.34027839936607,40 L 136.81938925454511,40 L 136.8523750463416,40 L 136.88776175943127,40 L 138.37291075248942,40 L 138.41625275702808,40 L 139.95520747130558,40 L 139.99623814116654,40 L 141.4725180592984,40 L 141.50634596527982,40 L 143.02462408871912,40 L 143.0534351442372,40 L 143.10088021576198,40 L 144.56081953524176,40 L 144.59378740971522,40 L 144.62908453618945,40 L 146.11073965124632,40 L 146.14972774627574,40 L 146.18885917988985,40 L 147.65605501521844,40 L 147.6876611731375,40 L 147.72607591382825,40 L 149.20285751700646,40 L 149.23878174978864,40 L 149.28574305359018,40 L 150.74613030614708,40 L 150.78701763742333,40 L 150.82659700411455,40 L 152.30133603246122,40 L 152.3342322376423,40 L 152.37178694682507,40 L 153.84935691221892,40 L 153.88264729850783,40 L 153.92102620455242,40 L 155.39540688643746,40 L 155.43400080035906,40 L 155.47558690723554,40 L 156.94502240794958,40 L 156.97575061703753,40 L 157.0127857238509,40 L 158.49444083890776,40 L 158.52201559913308,40 L 158.55967781225434,40 L 160.03862741152562,40 L 160.07397828996915,40 L 160.11302013696783,40 L 161.5877412479914,40 L 161.625260122528,40 L 161.6651620010347,40 L 163.13995478135064,40 L 163.16709952582195,40 L 163.20592636494362,40 L 164.6867214484925,40 L 164.72329070490568,40 L 164.7559002329174,40 L 166.2301017415716,40 L 166.26357130109136,40 L 166.3021114630437,40 L 167.77547085751297,40 L 167.8160715116199,40 L 167.85321412237172,40 L 169.32696769794885,40 L 169.3576063204214,40 L 169.3920075807415,40 L 170.8811700541703,40 L 170.91856350744533,40 L 170.96065129936818,40 L 172.42799047328143,40 L 172.46138836350883,40 L 172.49478625373627,40 L 173.97255330968403,40 L 174.00964216846663,40 L 174.04612183826438,40 L 175.51399853187013,40 L 175.55427667416157,40 L 175.59261974556,40 L 177.06081895098126,40 L 177.1010791759496,40 L 177.1452632946732,40 L 178.6233528624365,40 L 178.6553711187865,40 L 178.69677805243217,40 L 180.16753943505435,40 L 180.1952037818951,40 L 180.23026798316926,40 L 181.7112064053028,40 L 181.74781149636215,40 L 181.7849361897909,40 L 183.26003356459924,40 L 183.29199806897998,40 L 183.33333333333334,40" fill="none" stroke="none"/>
  </g>
  
  <!-- Footer -->
  <text x="400" y="580" text-anchor="middle" fill="#94a3b8" font-size="12" font-family="Arial, sans-serif">
    Generated by GitHub User Rank Tracker • 3/9/2026
    <animate attributeName="opacity" values="0;1" dur="0.5s" begin="5s" fill="freeze"/>
  </text>
</svg>