<svg width="800" height="600" xmlns="http://www.w3.org/2000/svg">
  <defs>
    <linearGradient id="bgGradient" x1="0%" y1="0%" x2="100%" y2="100%">
      <stop offset="0%" style="stop-color:#1e293b;stop-opacity:1" />
      <stop offset="100%" style="stop-color:#0f172a;stop-opacity:1" />
    </linearGradient>
    <filter id="shadow" x="-20%" y="-20%" width="140%" height="140%">
      <feDropShadow dx="2" dy="2" stdDeviation="3" flood-color="#000" flood-opacity="0.3"/>
    </filter>
    <!-- Trail effect filter -->
    <filter id="trailGlow" x="-50%" y="-50%" width="200%" height="200%">
      <feGaussianBlur stdDeviation="3" result="coloredBlur"/>
      <feMerge> 
        <feMergeNode in="coloredBlur"/>
        <feMergeNode in="SourceGraphic"/>
      </feMerge>
    </filter>
  </defs>
  
  <!-- Background -->
  <rect width="800" height="600" fill="url(#bgGradient)" rx="12"/>
  
  <!-- Header -->
  <text x="400" y="40" text-anchor="middle" fill="#f8fafc" font-size="24" font-weight="bold" font-family="Arial, sans-serif">
    GitHub Progress Report
    <animate attributeName="opacity" values="0;1" dur="0.8s" begin="0s" fill="freeze"/>
    <animateTransform attributeName="transform" type="translate" values="0,-20;0,0" dur="0.8s" begin="0s" fill="freeze"/>
  </text>
  
  <!-- User Info -->
  <text x="400" y="70" text-anchor="middle" fill="#cbd5e1" font-size="16" font-family="Arial, sans-serif">
    @maifeeulasad • BANGLADESH • 100 days analyzed
    <animate attributeName="opacity" values="0;1" dur="0.6s" begin="0.3s" fill="freeze"/>
  </text>
  
  <!-- Progress Cards -->
  <!-- Followers Card -->
  <g transform="translate(60, 100)">
    <rect width="206.66666666666666" height="120" fill="#1e293b" stroke="#334155" stroke-width="1" rx="8" filter="url(#shadow)">
      <animate attributeName="opacity" values="0;1" dur="0.6s" begin="0.2s" fill="freeze"/>
      <animateTransform attributeName="transform" type="scale" values="0.8;1" dur="0.6s" begin="0.2s" fill="freeze"/>
    </rect>
    <text x="103.33333333333333" y="25" text-anchor="middle" fill="#94a3b8" font-size="14" font-weight="bold" font-family="Arial, sans-serif">FOLLOWERS
      <animate attributeName="opacity" values="0;1" dur="0.5s" begin="0.4s" fill="freeze"/>
    </text>
    
    <text x="103.33333333333333" y="50" text-anchor="middle" fill="#22c55e" font-size="32" font-weight="bold" font-family="Arial, sans-serif">
      ↗
      <animate attributeName="opacity" values="0;1" dur="0.5s" begin="0.6s" fill="freeze"/>
      <animateTransform attributeName="transform" type="scale" values="0;1.2;1" dur="0.8s" begin="0.6s" fill="freeze"/>
    </text>
    
    <text x="103.33333333333333" y="75" text-anchor="middle" fill="#f8fafc" font-size="18" font-weight="bold" font-family="Arial, sans-serif">
      +6
      <animate attributeName="opacity" values="0;1" dur="0.5s" begin="0.8s" fill="freeze"/>
    </text>
    
    <text x="103.33333333333333" y="95" text-anchor="middle" fill="#94a3b8" font-size="12" font-family="Arial, sans-serif">
      #464 → #458
      <animate attributeName="opacity" values="0;1" dur="0.5s" begin="1s" fill="freeze"/>
    </text>
  </g>
  
  <!-- Public Contributions Card -->
  <g transform="translate(296.66666666666663, 100)">
    <rect width="206.66666666666666" height="120" fill="#1e293b" stroke="#334155" stroke-width="1" rx="8" filter="url(#shadow)">
      <animate attributeName="opacity" values="0;1" dur="0.6s" begin="0.4s" fill="freeze"/>
      <animateTransform attributeName="transform" type="scale" values="0.8;1" dur="0.6s" begin="0.4s" fill="freeze"/>
    </rect>
    <text x="103.33333333333333" y="25" text-anchor="middle" fill="#94a3b8" font-size="14" font-weight="bold" font-family="Arial, sans-serif">PUBLIC
      <animate attributeName="opacity" values="0;1" dur="0.5s" begin="0.6s" fill="freeze"/>
    </text>
    
    <text x="103.33333333333333" y="50" text-anchor="middle" fill="#22c55e" font-size="32" font-weight="bold" font-family="Arial, sans-serif">
      ↗
      <animate attributeName="opacity" values="0;1" dur="0.5s" begin="0.8s" fill="freeze"/>
      <animateTransform attributeName="transform" type="scale" values="0;1.2;1" dur="0.8s" begin="0.8s" fill="freeze"/>
    </text>
    
    <text x="103.33333333333333" y="75" text-anchor="middle" fill="#f8fafc" font-size="18" font-weight="bold" font-family="Arial, sans-serif">
      +12
      <animate attributeName="opacity" values="0;1" dur="0.5s" begin="1s" fill="freeze"/>
    </text>
    
    <text x="103.33333333333333" y="95" text-anchor="middle" fill="#94a3b8" font-size="12" font-family="Arial, sans-serif">
      #18 → #6
      <animate attributeName="opacity" values="0;1" dur="0.5s" begin="1.2s" fill="freeze"/>
    </text>
  </g>
  
  <!-- Total Contributions Card -->
  <g transform="translate(533.3333333333333, 100)">
    <rect width="206.66666666666666" height="120" fill="#1e293b" stroke="#334155" stroke-width="1" rx="8" filter="url(#shadow)">
      <animate attributeName="opacity" values="0;1" dur="0.6s" begin="0.6s" fill="freeze"/>
      <animateTransform attributeName="transform" type="scale" values="0.8;1" dur="0.6s" begin="0.6s" fill="freeze"/>
    </rect>
    <text x="103.33333333333333" y="25" text-anchor="middle" fill="#94a3b8" font-size="14" font-weight="bold" font-family="Arial, sans-serif">TOTAL
      <animate attributeName="opacity" values="0;1" dur="0.5s" begin="0.8s" fill="freeze"/>
    </text>
    
    <text x="103.33333333333333" y="50" text-anchor="middle" fill="#22c55e" font-size="32" font-weight="bold" font-family="Arial, sans-serif">
      ↗
      <animate attributeName="opacity" values="0;1" dur="0.5s" begin="1s" fill="freeze"/>
      <animateTransform attributeName="transform" type="scale" values="0;1.2;1" dur="0.8s" begin="1s" fill="freeze"/>
    </text>
    
    <text x="103.33333333333333" y="75" text-anchor="middle" fill="#f8fafc" font-size="18" font-weight="bold" font-family="Arial, sans-serif">
      +23
      <animate attributeName="opacity" values="0;1" dur="0.5s" begin="1.2s" fill="freeze"/>
    </text>
    
    <text x="103.33333333333333" y="95" text-anchor="middle" fill="#94a3b8" font-size="12" font-family="Arial, sans-serif">
      #41 → #18
      <animate attributeName="opacity" values="0;1" dur="0.5s" begin="1.4s" fill="freeze"/>
    </text>
  </g>
  
  <!-- Timeline Charts (if we have snapshots) -->
  
  <!-- 👥 Followers Count Chart -->
  <g transform="translate(60, 250)">
    <!-- Chart Background -->
    <rect x="0" y="0" width="213.33333333333334" height="200" fill="#0f172a" stroke="#334155" stroke-width="1" rx="8" filter="url(#shadow)">
      <animate attributeName="opacity" values="0;1" dur="0.5s" begin="1.8s" fill="freeze"/>
    </rect>
    
    <!-- Chart Title -->
    <text x="106.66666666666667" y="25" text-anchor="middle" fill="#f8fafc" font-size="14" font-weight="bold" font-family="Arial, sans-serif">
      👥 Followers Count
      <animate attributeName="opacity" values="0;1" dur="0.5s" begin="2s" fill="freeze"/>
    </text>
    
    <!-- Y-axis labels -->
    <text x="10" y="45" fill="#94a3b8" font-size="10" font-family="Arial, sans-serif">149
      <animate attributeName="opacity" values="0;1" dur="0.5s" begin="2.2s" fill="freeze"/>
    </text>
    <text x="10" y="185" fill="#94a3b8" font-size="10" font-family="Arial, sans-serif">142
      <animate attributeName="opacity" values="0;1" dur="0.5s" begin="2.2s" fill="freeze"/>
    </text>
    
    <!-- Chart Line with draw animation that follows the circle -->
    <path d="M 30,160 L 30.025534969293176,160 L 30.056141093891597,160 L 31.547920878914034,160 L 31.573706718080967,160 L 31.604868340256992,160 L 33.09784871681813,160 L 33.11931601030109,160 L 33.15008340838978,160 L 34.645948788499126,160 L 34.67099993732149,160 L 34.69176837901327,160 L 36.19209565902016,160 L 36.21596413558052,160 L 36.24615811681491,160 L 37.7364326825948,160 L 37.77232499381883,160 L 37.80484848102382,160 L 39.29125248303717,160 L 39.31791636676225,160 L 39.349149666045065,160 L 40.83980053663559,160 L 40.865873084229676,160 L 40.891049667988916,160 L 42.389710455262986,160 L 42.4120737125808,160 L 42.438110421621495,160 L 43.933635335473596,160 L 43.95913446621338,160 L 43.987841147481916,160 L 45.48435162155236,160 L 45.50657152465659,160 L 45.537356842021985,160 L 47.021538853724905,160 L 47.05513749753172,160 L 47.08608408838738,160 L 48.58119685887545,160 L 48.60993937869738,160 L 48.63914779971344,160 L 50.13030041005149,160 L 50.16024352141211,160 L 50.193931761602414,160 L 51.6736160348544,160 L 51.698756780060236,160 L 51.72753513843557,160 L 53.222217846282916,160 L 53.24092557115455,160 L 53.273843282446876,160 L 54.771536428779314,160 L 54.79413263669419,160 L 54.824864196229484,160 L 56.321428428130005,160 L 56.34406047459828,160 L 56.370957308920424,160 L 57.86705563962683,142.85714285714286 L 57.89001023307564,142.85714285714286 L 57.91946952396546,142.85714285714286 L 59.416768446210554,142.85714285714286 L 59.44058316494083,142.85714285714286 L 59.47378758466031,142.85714285714286 L 60.95614183014014,142.85714285714286 L 60.9894716847965,142.85714285714286 L 61.02210268766167,142.85714285714286 L 62.513864553407416,142.85714285714286 L 62.53137168674035,142.85714285714286 L 62.56122520171749,142.85714285714286 L 64.05929465286057,142.85714285714286 L 64.08379030410532,142.85714285714286 L 64.11600916360646,142.85714285714286 L 65.60121257408112,142.85714285714286 L 65.63335975647547,142.85714285714286 L 65.66208435702072,142.85714285714286 L 67.15631908295063,142.85714285714286 L 67.18160318237005,142.85714285714286 L 67.20936014197366,142.85714285714286 L 68.70234051853478,142.85714285714286 L 68.7271407974834,142.85714285714286 L 68.75220986558244,142.85714285714286 L 68.79193690201961,142.85714285714286 L 70.25615683948212,142.85714285714286 L 70.28231898345969,142.85714285714286 L 70.30952044548569,142.85714285714286 L 71.80332510877489,142.85714285714286 L 71.82941557564567,142.85714285714286 L 71.85792514487053,142.85714285714286 L 73.35076216721811,142.85714285714286 L 73.37477399799204,142.85714285714286 L 73.40217257206169,142.85714285714286 L 74.89443617755495,142.85714285714286 L 74.92328621303706,142.85714285714286 L 76.45353868512788,142.85714285714286 L 76.47106373773752,142.85714285714286 L 76.49887445517122,142.85714285714286 L 77.99405890276607,142.85714285714286 L 78.0187337467778,142.85714285714286 L 78.04923235571604,142.85714285714286 L 79.54190810457331,142.85714285714286 L 79.56599161245404,142.85714285714286 L 79.59306763954315,142.85714285714286 L 81.09283942197244,142.85714285714286 L 81.11867901896946,142.85714285714286 L 81.15105915196088,142.85714285714286 L 82.64267766349306,142.85714285714286 L 82.67052421948014,142.85714285714286 L 82.69722394175861,142.85714285714286 L 84.19348354595529,142.85714285714286 L 84.21061437447759,142.85714285714286 L 84.23962568344999,142.85714285714286 L 85.73633326956408,142.85714285714286 L 85.75873236543529,142.85714285714286 L 85.78442860821875,142.85714285714286 L 87.28423622920141,142.85714285714286 L 87.30511218655339,142.85714285714286 L 87.33677554847692,142.85714285714286 L 88.83178080330481,142.85714285714286 L 88.85468163892354,142.85714285714286 L 88.88453515390069,142.85714285714286 L 90.3770496292677,142.85714285714286 L 90.39910825888165,142.85714285714286 L 90.43159590753326,142.85714285714286 L 91.92430749494395,142.85714285714286 L 91.95668762793537,142.85714285714286 L 91.98974869344127,142.85714285714286 L 93.47778334963404,142.85714285714286 L 93.5015622298109,142.85714285714286 L 93.53146950261814,142.85714285714286 L 95.02561463216459,142.85714285714286 L 95.04905304608421,142.85714285714286 L 95.07896031889146,142.85714285714286 L 96.57457482912704,142.85714285714286 L 96.60536014649243,142.85714285714286 L 96.64173627818727,142.85714285714286 L 98.12321247910894,142.85714285714286 L 98.14557573642676,142.85714285714286 L 98.17417490203512,142.85714285714286 L 99.67308655918295,142.85714285714286 L 99.69206307320503,142.85714285714286 L 99.72200618456567,142.85714285714286 L 101.2162229912189,142.85714285714286 L 101.23855040998332,142.85714285714286 L 101.26705997920818,142.85714285714286 L 101.30607024457748,142.85714285714286 L 102.76855201220039,142.85714285714286 L 102.79835176934743,142.85714285714286 L 102.82793649517413,142.85714285714286 L 104.31296071288182,142.85714285714286 L 104.34025177129129,142.85714285714286 L 104.36876134051616,142.85714285714286 L 105.86385619172755,142.85714285714286 L 105.87919509258013,142.85714285714286 L 105.91519491946434,142.85714285714286 L 107.41043312488931,142.85714285714286 L 107.43587849779898,142.85714285714286 L 107.45679029370436,142.85714285714286 L 108.9598233844925,142.85714285714286 L 108.98387105381981,142.85714285714286 L 109.01313323266595,142.85714285714286 L 110.50889109711513,142.85714285714286 L 110.53458733989856,142.85714285714286 L 110.56275644286619,142.85714285714286 L 112.05573681942732,142.85714285714286 L 112.07614687558518,142.85714285714286 L 112.10766688329514,142.85714285714286 L 113.60675773320993,142.85714285714286 L 113.62879844354723,142.85714285714286 L 113.65970919584949,142.85714285714286 L 115.15389016394931,142.85714285714286 L 115.17956848745607,142.85714285714286 L 115.21049715903501,142.85714285714286 L 116.70121970673235,142.85714285714286 L 116.72600206640425,142.85714285714286 L 116.7445485177856,142.85714285714286 L 118.24641685558844,142.85714285714286 L 118.2814669608077,142.85714285714286 L 118.30513832532439,142.85714285714286 L 119.79799326694865,142.85714285714286 L 119.82205885555268,142.85714285714286 L 121.37209420911695,142.85714285714286 L 121.39850722296829,142.85714285714286 L 122.89089626339842,142.85714285714286 L 122.91411964599769,142.85714285714286 L 122.9417690899411,142.85714285714286 L 124.44258019041881,142.85714285714286 L 124.47146606445432,142.85714285714286 L 124.49902591201426,142.85714285714286 L 125.99082361631339,142.85714285714286 L 126.02051585780026,142.85714285714286 L 126.04949132821925,142.85714285714286 L 127.54171909515911,142.85714285714286 L 127.56942229693263,142.85714285714286 L 127.59325493493958,142.85714285714286 L 129.08557229826295,142.85714285714286 L 129.11390267472086,40 L 129.14298566080004,40 L 130.66216401989212,40 L 130.68807529399595,40 L 132.17752557304777,40 L 132.20537212903486,40 L 132.2240260960764,40 L 133.72960372415548,40 L 133.7573248452057,40 L 133.78563730238693,40 L 135.27489046939507,40 L 135.3037225856005,40 L 135.33916691490708,40 L 136.82947731924037,40 L 136.85972505830486,40 L 136.8812461096179,40 L 138.37666350780984,40 L 138.40087245062745,40 L 138.4305109342842,40 L 139.92743355171868,40 L 139.9823023769648,40 L 141.47137635120598,40 L 141.50105067341616,40 L 141.52839548965574,40 L 143.02128626983338,40 L 143.04936577641752,40 L 143.07868171309377,40 L 144.57013895113568,40 L 144.59877395529742,40 L 144.63099281479856,40 L 146.11764768668564,40 L 146.14778791008996,40 L 146.17875242022234,40 L 147.6685431655314,40 L 147.6981099720814,40 L 147.7262969943257,40 L 149.2189010660762,40 L 149.2401712475155,40 L 149.26961261912862,40 L 150.7616791125782,40 L 150.78904184809448,40 L 150.82075896784812,40 L 152.31060347098727,40 L 152.33780493301327,40 L 152.3677480443739,40 L 153.85897233181873,40 L 153.884740251709,40 L 153.9165111292927,40 L 155.408416349252,40 L 155.43418426914224,40 L 155.4580706649793,40 L 156.9619459617722,40 L 156.98389707572596,40 L 157.01584714607668,40 L 158.50545869861878,40 L 158.5307248787615,40 L 158.55914485160287,40 L 160.05294951489208,40 L 160.0752052565497,40 L 160.10885765818662,40 L 161.59958020588394,40 L 161.6257065113081,40 L 161.657764097319,40 L 163.1460854619389,40 L 163.17045567824678,40 L 163.2051294786554,40 L 164.69020745419317,40 L 164.72169162334976,40 L 164.75401799851107,40 L 166.24388042092693,40 L 166.26902116613277,40 L 166.29851629557598,40 L 167.79418456364166,40 L 167.82133226783756,40 L 167.8543216562367,40 L 169.33979385586179,40 L 169.37151097561542,40 L 169.40656108083468,40 L 170.89108355879486,40 L 170.91520290522897,40 L 170.94675875149233,40 L 172.44036630273786,40 L 172.46278331788577,40 L 172.4944108412559,40 L 173.98518714678332,40 L 174.00991574862513,40 L 174.04088025875748,40 L 175.53398607025548,40 L 175.56206557683964,40 L 177.08468443705755,40 L 177.11048819550118,40 L 177.13494800819254,40 L 178.6336087954666,40 L 178.6633368755069,40 L 178.69713263135736,40 L 180.17199661917786,40 L 180.2082473159358,40 L 180.2391580682381,40 L 181.72656554974648,40 L 181.74597212640927,40 L 181.78276040146818,40 L 183.27529279611187,40 L 183.3028168051184,40 L 183.33333333333334,40" stroke="#22c55e" stroke-width="2" fill="none" stroke-dasharray="14800" stroke-dashoffset="14800">
      <animate attributeName="stroke-dashoffset" values="14800;0" dur="3s" begin="2.6s" fill="freeze"/>
    </path>
    
    <!-- Glow effect for the line that also follows the circle -->
    <path d="M 30,160 L 30.025534969293176,160 L 30.056141093891597,160 L 31.547920878914034,160 L 31.573706718080967,160 L 31.604868340256992,160 L 33.09784871681813,160 L 33.11931601030109,160 L 33.15008340838978,160 L 34.645948788499126,160 L 34.67099993732149,160 L 34.69176837901327,160 L 36.19209565902016,160 L 36.21596413558052,160 L 36.24615811681491,160 L 37.7364326825948,160 L 37.77232499381883,160 L 37.80484848102382,160 L 39.29125248303717,160 L 39.31791636676225,160 L 39.349149666045065,160 L 40.83980053663559,160 L 40.865873084229676,160 L 40.891049667988916,160 L 42.389710455262986,160 L 42.4120737125808,160 L 42.438110421621495,160 L 43.933635335473596,160 L 43.95913446621338,160 L 43.987841147481916,160 L 45.48435162155236,160 L 45.50657152465659,160 L 45.537356842021985,160 L 47.021538853724905,160 L 47.05513749753172,160 L 47.08608408838738,160 L 48.58119685887545,160 L 48.60993937869738,160 L 48.63914779971344,160 L 50.13030041005149,160 L 50.16024352141211,160 L 50.193931761602414,160 L 51.6736160348544,160 L 51.698756780060236,160 L 51.72753513843557,160 L 53.222217846282916,160 L 53.24092557115455,160 L 53.273843282446876,160 L 54.771536428779314,160 L 54.79413263669419,160 L 54.824864196229484,160 L 56.321428428130005,160 L 56.34406047459828,160 L 56.370957308920424,160 L 57.86705563962683,142.85714285714286 L 57.89001023307564,142.85714285714286 L 57.91946952396546,142.85714285714286 L 59.416768446210554,142.85714285714286 L 59.44058316494083,142.85714285714286 L 59.47378758466031,142.85714285714286 L 60.95614183014014,142.85714285714286 L 60.9894716847965,142.85714285714286 L 61.02210268766167,142.85714285714286 L 62.513864553407416,142.85714285714286 L 62.53137168674035,142.85714285714286 L 62.56122520171749,142.85714285714286 L 64.05929465286057,142.85714285714286 L 64.08379030410532,142.85714285714286 L 64.11600916360646,142.85714285714286 L 65.60121257408112,142.85714285714286 L 65.63335975647547,142.85714285714286 L 65.66208435702072,142.85714285714286 L 67.15631908295063,142.85714285714286 L 67.18160318237005,142.85714285714286 L 67.20936014197366,142.85714285714286 L 68.70234051853478,142.85714285714286 L 68.7271407974834,142.85714285714286 L 68.75220986558244,142.85714285714286 L 68.79193690201961,142.85714285714286 L 70.25615683948212,142.85714285714286 L 70.28231898345969,142.85714285714286 L 70.30952044548569,142.85714285714286 L 71.80332510877489,142.85714285714286 L 71.82941557564567,142.85714285714286 L 71.85792514487053,142.85714285714286 L 73.35076216721811,142.85714285714286 L 73.37477399799204,142.85714285714286 L 73.40217257206169,142.85714285714286 L 74.89443617755495,142.85714285714286 L 74.92328621303706,142.85714285714286 L 76.45353868512788,142.85714285714286 L 76.47106373773752,142.85714285714286 L 76.49887445517122,142.85714285714286 L 77.99405890276607,142.85714285714286 L 78.0187337467778,142.85714285714286 L 78.04923235571604,142.85714285714286 L 79.54190810457331,142.85714285714286 L 79.56599161245404,142.85714285714286 L 79.59306763954315,142.85714285714286 L 81.09283942197244,142.85714285714286 L 81.11867901896946,142.85714285714286 L 81.15105915196088,142.85714285714286 L 82.64267766349306,142.85714285714286 L 82.67052421948014,142.85714285714286 L 82.69722394175861,142.85714285714286 L 84.19348354595529,142.85714285714286 L 84.21061437447759,142.85714285714286 L 84.23962568344999,142.85714285714286 L 85.73633326956408,142.85714285714286 L 85.75873236543529,142.85714285714286 L 85.78442860821875,142.85714285714286 L 87.28423622920141,142.85714285714286 L 87.30511218655339,142.85714285714286 L 87.33677554847692,142.85714285714286 L 88.83178080330481,142.85714285714286 L 88.85468163892354,142.85714285714286 L 88.88453515390069,142.85714285714286 L 90.3770496292677,142.85714285714286 L 90.39910825888165,142.85714285714286 L 90.43159590753326,142.85714285714286 L 91.92430749494395,142.85714285714286 L 91.95668762793537,142.85714285714286 L 91.98974869344127,142.85714285714286 L 93.47778334963404,142.85714285714286 L 93.5015622298109,142.85714285714286 L 93.53146950261814,142.85714285714286 L 95.02561463216459,142.85714285714286 L 95.04905304608421,142.85714285714286 L 95.07896031889146,142.85714285714286 L 96.57457482912704,142.85714285714286 L 96.60536014649243,142.85714285714286 L 96.64173627818727,142.85714285714286 L 98.12321247910894,142.85714285714286 L 98.14557573642676,142.85714285714286 L 98.17417490203512,142.85714285714286 L 99.67308655918295,142.85714285714286 L 99.69206307320503,142.85714285714286 L 99.72200618456567,142.85714285714286 L 101.2162229912189,142.85714285714286 L 101.23855040998332,142.85714285714286 L 101.26705997920818,142.85714285714286 L 101.30607024457748,142.85714285714286 L 102.76855201220039,142.85714285714286 L 102.79835176934743,142.85714285714286 L 102.82793649517413,142.85714285714286 L 104.31296071288182,142.85714285714286 L 104.34025177129129,142.85714285714286 L 104.36876134051616,142.85714285714286 L 105.86385619172755,142.85714285714286 L 105.87919509258013,142.85714285714286 L 105.91519491946434,142.85714285714286 L 107.41043312488931,142.85714285714286 L 107.43587849779898,142.85714285714286 L 107.45679029370436,142.85714285714286 L 108.9598233844925,142.85714285714286 L 108.98387105381981,142.85714285714286 L 109.01313323266595,142.85714285714286 L 110.50889109711513,142.85714285714286 L 110.53458733989856,142.85714285714286 L 110.56275644286619,142.85714285714286 L 112.05573681942732,142.85714285714286 L 112.07614687558518,142.85714285714286 L 112.10766688329514,142.85714285714286 L 113.60675773320993,142.85714285714286 L 113.62879844354723,142.85714285714286 L 113.65970919584949,142.85714285714286 L 115.15389016394931,142.85714285714286 L 115.17956848745607,142.85714285714286 L 115.21049715903501,142.85714285714286 L 116.70121970673235,142.85714285714286 L 116.72600206640425,142.85714285714286 L 116.7445485177856,142.85714285714286 L 118.24641685558844,142.85714285714286 L 118.2814669608077,142.85714285714286 L 118.30513832532439,142.85714285714286 L 119.79799326694865,142.85714285714286 L 119.82205885555268,142.85714285714286 L 121.37209420911695,142.85714285714286 L 121.39850722296829,142.85714285714286 L 122.89089626339842,142.85714285714286 L 122.91411964599769,142.85714285714286 L 122.9417690899411,142.85714285714286 L 124.44258019041881,142.85714285714286 L 124.47146606445432,142.85714285714286 L 124.49902591201426,142.85714285714286 L 125.99082361631339,142.85714285714286 L 126.02051585780026,142.85714285714286 L 126.04949132821925,142.85714285714286 L 127.54171909515911,142.85714285714286 L 127.56942229693263,142.85714285714286 L 127.59325493493958,142.85714285714286 L 129.08557229826295,142.85714285714286 L 129.11390267472086,40 L 129.14298566080004,40 L 130.66216401989212,40 L 130.68807529399595,40 L 132.17752557304777,40 L 132.20537212903486,40 L 132.2240260960764,40 L 133.72960372415548,40 L 133.7573248452057,40 L 133.78563730238693,40 L 135.27489046939507,40 L 135.3037225856005,40 L 135.33916691490708,40 L 136.82947731924037,40 L 136.85972505830486,40 L 136.8812461096179,40 L 138.37666350780984,40 L 138.40087245062745,40 L 138.4305109342842,40 L 139.92743355171868,40 L 139.9823023769648,40 L 141.47137635120598,40 L 141.50105067341616,40 L 141.52839548965574,40 L 143.02128626983338,40 L 143.04936577641752,40 L 143.07868171309377,40 L 144.57013895113568,40 L 144.59877395529742,40 L 144.63099281479856,40 L 146.11764768668564,40 L 146.14778791008996,40 L 146.17875242022234,40 L 147.6685431655314,40 L 147.6981099720814,40 L 147.7262969943257,40 L 149.2189010660762,40 L 149.2401712475155,40 L 149.26961261912862,40 L 150.7616791125782,40 L 150.78904184809448,40 L 150.82075896784812,40 L 152.31060347098727,40 L 152.33780493301327,40 L 152.3677480443739,40 L 153.85897233181873,40 L 153.884740251709,40 L 153.9165111292927,40 L 155.408416349252,40 L 155.43418426914224,40 L 155.4580706649793,40 L 156.9619459617722,40 L 156.98389707572596,40 L 157.01584714607668,40 L 158.50545869861878,40 L 158.5307248787615,40 L 158.55914485160287,40 L 160.05294951489208,40 L 160.0752052565497,40 L 160.10885765818662,40 L 161.59958020588394,40 L 161.6257065113081,40 L 161.657764097319,40 L 163.1460854619389,40 L 163.17045567824678,40 L 163.2051294786554,40 L 164.69020745419317,40 L 164.72169162334976,40 L 164.75401799851107,40 L 166.24388042092693,40 L 166.26902116613277,40 L 166.29851629557598,40 L 167.79418456364166,40 L 167.82133226783756,40 L 167.8543216562367,40 L 169.33979385586179,40 L 169.37151097561542,40 L 169.40656108083468,40 L 170.89108355879486,40 L 170.91520290522897,40 L 170.94675875149233,40 L 172.44036630273786,40 L 172.46278331788577,40 L 172.4944108412559,40 L 173.98518714678332,40 L 174.00991574862513,40 L 174.04088025875748,40 L 175.53398607025548,40 L 175.56206557683964,40 L 177.08468443705755,40 L 177.11048819550118,40 L 177.13494800819254,40 L 178.6336087954666,40 L 178.6633368755069,40 L 178.69713263135736,40 L 180.17199661917786,40 L 180.2082473159358,40 L 180.2391580682381,40 L 181.72656554974648,40 L 181.74597212640927,40 L 181.78276040146818,40 L 183.27529279611187,40 L 183.3028168051184,40 L 183.33333333333334,40" stroke="#22c55e" stroke-width="4" fill="none" opacity="0.4" stroke-dasharray="14800" stroke-dashoffset="14800">
      <animate attributeName="stroke-dashoffset" values="14800;0" dur="3s" begin="2.6s" fill="freeze"/>
    </path>
    
    <!-- Animated circle that moves along the path and draws the line -->
    <circle r="5" fill="#22c55e" opacity="0" filter="url(#trailGlow)">
      <animate attributeName="opacity" values="0;1;1;1" dur="3.2s" begin="2.4s" fill="freeze"/>
      <animate attributeName="r" values="5;6;5" dur="1s" begin="2.4s" repeatCount="3"/>
      <animateMotion dur="3s" begin="2.4s" fill="freeze">
        <mpath href="#path_followersCount_60"/>
      </animateMotion>
    </circle>
    
    <!-- Small trail dots that fade out -->
    <circle r="2" fill="#22c55e" opacity="0">
      <animate attributeName="opacity" values="0;0.6;0" dur="0.8s" begin="2.8s" fill="freeze"/>
      <animateMotion dur="3s" begin="2.4s" fill="freeze">
        <mpath href="#path_followersCount_60"/>
      </animateMotion>
    </circle>
    
    <!-- Hidden path for motion animation -->
    <path id="path_followersCount_60" d="M 30,160 L 30.025534969293176,160 L 30.056141093891597,160 L 31.547920878914034,160 L 31.573706718080967,160 L 31.604868340256992,160 L 33.09784871681813,160 L 33.11931601030109,160 L 33.15008340838978,160 L 34.645948788499126,160 L 34.67099993732149,160 L 34.69176837901327,160 L 36.19209565902016,160 L 36.21596413558052,160 L 36.24615811681491,160 L 37.7364326825948,160 L 37.77232499381883,160 L 37.80484848102382,160 L 39.29125248303717,160 L 39.31791636676225,160 L 39.349149666045065,160 L 40.83980053663559,160 L 40.865873084229676,160 L 40.891049667988916,160 L 42.389710455262986,160 L 42.4120737125808,160 L 42.438110421621495,160 L 43.933635335473596,160 L 43.95913446621338,160 L 43.987841147481916,160 L 45.48435162155236,160 L 45.50657152465659,160 L 45.537356842021985,160 L 47.021538853724905,160 L 47.05513749753172,160 L 47.08608408838738,160 L 48.58119685887545,160 L 48.60993937869738,160 L 48.63914779971344,160 L 50.13030041005149,160 L 50.16024352141211,160 L 50.193931761602414,160 L 51.6736160348544,160 L 51.698756780060236,160 L 51.72753513843557,160 L 53.222217846282916,160 L 53.24092557115455,160 L 53.273843282446876,160 L 54.771536428779314,160 L 54.79413263669419,160 L 54.824864196229484,160 L 56.321428428130005,160 L 56.34406047459828,160 L 56.370957308920424,160 L 57.86705563962683,142.85714285714286 L 57.89001023307564,142.85714285714286 L 57.91946952396546,142.85714285714286 L 59.416768446210554,142.85714285714286 L 59.44058316494083,142.85714285714286 L 59.47378758466031,142.85714285714286 L 60.95614183014014,142.85714285714286 L 60.9894716847965,142.85714285714286 L 61.02210268766167,142.85714285714286 L 62.513864553407416,142.85714285714286 L 62.53137168674035,142.85714285714286 L 62.56122520171749,142.85714285714286 L 64.05929465286057,142.85714285714286 L 64.08379030410532,142.85714285714286 L 64.11600916360646,142.85714285714286 L 65.60121257408112,142.85714285714286 L 65.63335975647547,142.85714285714286 L 65.66208435702072,142.85714285714286 L 67.15631908295063,142.85714285714286 L 67.18160318237005,142.85714285714286 L 67.20936014197366,142.85714285714286 L 68.70234051853478,142.85714285714286 L 68.7271407974834,142.85714285714286 L 68.75220986558244,142.85714285714286 L 68.79193690201961,142.85714285714286 L 70.25615683948212,142.85714285714286 L 70.28231898345969,142.85714285714286 L 70.30952044548569,142.85714285714286 L 71.80332510877489,142.85714285714286 L 71.82941557564567,142.85714285714286 L 71.85792514487053,142.85714285714286 L 73.35076216721811,142.85714285714286 L 73.37477399799204,142.85714285714286 L 73.40217257206169,142.85714285714286 L 74.89443617755495,142.85714285714286 L 74.92328621303706,142.85714285714286 L 76.45353868512788,142.85714285714286 L 76.47106373773752,142.85714285714286 L 76.49887445517122,142.85714285714286 L 77.99405890276607,142.85714285714286 L 78.0187337467778,142.85714285714286 L 78.04923235571604,142.85714285714286 L 79.54190810457331,142.85714285714286 L 79.56599161245404,142.85714285714286 L 79.59306763954315,142.85714285714286 L 81.09283942197244,142.85714285714286 L 81.11867901896946,142.85714285714286 L 81.15105915196088,142.85714285714286 L 82.64267766349306,142.85714285714286 L 82.67052421948014,142.85714285714286 L 82.69722394175861,142.85714285714286 L 84.19348354595529,142.85714285714286 L 84.21061437447759,142.85714285714286 L 84.23962568344999,142.85714285714286 L 85.73633326956408,142.85714285714286 L 85.75873236543529,142.85714285714286 L 85.78442860821875,142.85714285714286 L 87.28423622920141,142.85714285714286 L 87.30511218655339,142.85714285714286 L 87.33677554847692,142.85714285714286 L 88.83178080330481,142.85714285714286 L 88.85468163892354,142.85714285714286 L 88.88453515390069,142.85714285714286 L 90.3770496292677,142.85714285714286 L 90.39910825888165,142.85714285714286 L 90.43159590753326,142.85714285714286 L 91.92430749494395,142.85714285714286 L 91.95668762793537,142.85714285714286 L 91.98974869344127,142.85714285714286 L 93.47778334963404,142.85714285714286 L 93.5015622298109,142.85714285714286 L 93.53146950261814,142.85714285714286 L 95.02561463216459,142.85714285714286 L 95.04905304608421,142.85714285714286 L 95.07896031889146,142.85714285714286 L 96.57457482912704,142.85714285714286 L 96.60536014649243,142.85714285714286 L 96.64173627818727,142.85714285714286 L 98.12321247910894,142.85714285714286 L 98.14557573642676,142.85714285714286 L 98.17417490203512,142.85714285714286 L 99.67308655918295,142.85714285714286 L 99.69206307320503,142.85714285714286 L 99.72200618456567,142.85714285714286 L 101.2162229912189,142.85714285714286 L 101.23855040998332,142.85714285714286 L 101.26705997920818,142.85714285714286 L 101.30607024457748,142.85714285714286 L 102.76855201220039,142.85714285714286 L 102.79835176934743,142.85714285714286 L 102.82793649517413,142.85714285714286 L 104.31296071288182,142.85714285714286 L 104.34025177129129,142.85714285714286 L 104.36876134051616,142.85714285714286 L 105.86385619172755,142.85714285714286 L 105.87919509258013,142.85714285714286 L 105.91519491946434,142.85714285714286 L 107.41043312488931,142.85714285714286 L 107.43587849779898,142.85714285714286 L 107.45679029370436,142.85714285714286 L 108.9598233844925,142.85714285714286 L 108.98387105381981,142.85714285714286 L 109.01313323266595,142.85714285714286 L 110.50889109711513,142.85714285714286 L 110.53458733989856,142.85714285714286 L 110.56275644286619,142.85714285714286 L 112.05573681942732,142.85714285714286 L 112.07614687558518,142.85714285714286 L 112.10766688329514,142.85714285714286 L 113.60675773320993,142.85714285714286 L 113.62879844354723,142.85714285714286 L 113.65970919584949,142.85714285714286 L 115.15389016394931,142.85714285714286 L 115.17956848745607,142.85714285714286 L 115.21049715903501,142.85714285714286 L 116.70121970673235,142.85714285714286 L 116.72600206640425,142.85714285714286 L 116.7445485177856,142.85714285714286 L 118.24641685558844,142.85714285714286 L 118.2814669608077,142.85714285714286 L 118.30513832532439,142.85714285714286 L 119.79799326694865,142.85714285714286 L 119.82205885555268,142.85714285714286 L 121.37209420911695,142.85714285714286 L 121.39850722296829,142.85714285714286 L 122.89089626339842,142.85714285714286 L 122.91411964599769,142.85714285714286 L 122.9417690899411,142.85714285714286 L 124.44258019041881,142.85714285714286 L 124.47146606445432,142.85714285714286 L 124.49902591201426,142.85714285714286 L 125.99082361631339,142.85714285714286 L 126.02051585780026,142.85714285714286 L 126.04949132821925,142.85714285714286 L 127.54171909515911,142.85714285714286 L 127.56942229693263,142.85714285714286 L 127.59325493493958,142.85714285714286 L 129.08557229826295,142.85714285714286 L 129.11390267472086,40 L 129.14298566080004,40 L 130.66216401989212,40 L 130.68807529399595,40 L 132.17752557304777,40 L 132.20537212903486,40 L 132.2240260960764,40 L 133.72960372415548,40 L 133.7573248452057,40 L 133.78563730238693,40 L 135.27489046939507,40 L 135.3037225856005,40 L 135.33916691490708,40 L 136.82947731924037,40 L 136.85972505830486,40 L 136.8812461096179,40 L 138.37666350780984,40 L 138.40087245062745,40 L 138.4305109342842,40 L 139.92743355171868,40 L 139.9823023769648,40 L 141.47137635120598,40 L 141.50105067341616,40 L 141.52839548965574,40 L 143.02128626983338,40 L 143.04936577641752,40 L 143.07868171309377,40 L 144.57013895113568,40 L 144.59877395529742,40 L 144.63099281479856,40 L 146.11764768668564,40 L 146.14778791008996,40 L 146.17875242022234,40 L 147.6685431655314,40 L 147.6981099720814,40 L 147.7262969943257,40 L 149.2189010660762,40 L 149.2401712475155,40 L 149.26961261912862,40 L 150.7616791125782,40 L 150.78904184809448,40 L 150.82075896784812,40 L 152.31060347098727,40 L 152.33780493301327,40 L 152.3677480443739,40 L 153.85897233181873,40 L 153.884740251709,40 L 153.9165111292927,40 L 155.408416349252,40 L 155.43418426914224,40 L 155.4580706649793,40 L 156.9619459617722,40 L 156.98389707572596,40 L 157.01584714607668,40 L 158.50545869861878,40 L 158.5307248787615,40 L 158.55914485160287,40 L 160.05294951489208,40 L 160.0752052565497,40 L 160.10885765818662,40 L 161.59958020588394,40 L 161.6257065113081,40 L 161.657764097319,40 L 163.1460854619389,40 L 163.17045567824678,40 L 163.2051294786554,40 L 164.69020745419317,40 L 164.72169162334976,40 L 164.75401799851107,40 L 166.24388042092693,40 L 166.26902116613277,40 L 166.29851629557598,40 L 167.79418456364166,40 L 167.82133226783756,40 L 167.8543216562367,40 L 169.33979385586179,40 L 169.37151097561542,40 L 169.40656108083468,40 L 170.89108355879486,40 L 170.91520290522897,40 L 170.94675875149233,40 L 172.44036630273786,40 L 172.46278331788577,40 L 172.4944108412559,40 L 173.98518714678332,40 L 174.00991574862513,40 L 174.04088025875748,40 L 175.53398607025548,40 L 175.56206557683964,40 L 177.08468443705755,40 L 177.11048819550118,40 L 177.13494800819254,40 L 178.6336087954666,40 L 178.6633368755069,40 L 178.69713263135736,40 L 180.17199661917786,40 L 180.2082473159358,40 L 180.2391580682381,40 L 181.72656554974648,40 L 181.74597212640927,40 L 181.78276040146818,40 L 183.27529279611187,40 L 183.3028168051184,40 L 183.33333333333334,40" fill="none" stroke="none"/>
  </g>
  <!-- 🔓 Public Contributions Chart -->
  <g transform="translate(293.33333333333337, 250)">
    <!-- Chart Background -->
    <rect x="0" y="0" width="213.33333333333334" height="200" fill="#0f172a" stroke="#334155" stroke-width="1" rx="8" filter="url(#shadow)">
      <animate attributeName="opacity" values="0;1" dur="0.5s" begin="2.3s" fill="freeze"/>
    </rect>
    
    <!-- Chart Title -->
    <text x="106.66666666666667" y="25" text-anchor="middle" fill="#f8fafc" font-size="14" font-weight="bold" font-family="Arial, sans-serif">
      🔓 Public Contributions
      <animate attributeName="opacity" values="0;1" dur="0.5s" begin="2.5s" fill="freeze"/>
    </text>
    
    <!-- Y-axis labels -->
    <text x="10" y="45" fill="#94a3b8" font-size="10" font-family="Arial, sans-serif">3,180
      <animate attributeName="opacity" values="0;1" dur="0.5s" begin="2.6999999999999997s" fill="freeze"/>
    </text>
    <text x="10" y="185" fill="#94a3b8" font-size="10" font-family="Arial, sans-serif">1,753
      <animate attributeName="opacity" values="0;1" dur="0.5s" begin="2.6999999999999997s" fill="freeze"/>
    </text>
    
    <!-- Chart Line with draw animation that follows the circle -->
    <path d="M 30,160 L 30.025534969293176,160 L 30.056141093891597,160 L 31.547920878914034,160 L 31.573706718080967,160 L 31.604868340256992,160 L 33.09784871681813,160 L 33.11931601030109,160 L 33.15008340838978,160 L 34.645948788499126,160 L 34.67099993732149,160 L 34.69176837901327,160 L 36.19209565902016,160 L 36.21596413558052,160 L 36.24615811681491,160 L 37.7364326825948,160 L 37.77232499381883,160 L 37.80484848102382,160 L 39.29125248303717,160 L 39.31791636676225,160 L 39.349149666045065,160 L 40.83980053663559,160 L 40.865873084229676,160 L 40.891049667988916,160 L 42.389710455262986,160 L 42.4120737125808,160 L 42.438110421621495,160 L 43.933635335473596,160 L 43.95913446621338,160 L 43.987841147481916,160 L 45.48435162155236,160 L 45.50657152465659,160 L 45.537356842021985,160 L 47.021538853724905,160 L 47.05513749753172,160 L 47.08608408838738,160 L 48.58119685887545,160 L 48.60993937869738,160 L 48.63914779971344,160 L 50.13030041005149,160 L 50.16024352141211,160 L 50.193931761602414,160 L 51.6736160348544,160 L 51.698756780060236,160 L 51.72753513843557,160 L 53.222217846282916,160 L 53.24092557115455,160 L 53.273843282446876,160 L 54.771536428779314,160 L 54.79413263669419,160 L 54.824864196229484,160 L 56.321428428130005,160 L 56.34406047459828,160 L 56.370957308920424,160 L 57.86705563962683,82.97126839523476 L 57.89001023307564,82.97126839523476 L 57.91946952396546,82.97126839523476 L 59.416768446210554,82.97126839523476 L 59.44058316494083,82.97126839523476 L 59.47378758466031,82.97126839523476 L 60.95614183014014,82.97126839523476 L 60.9894716847965,82.97126839523476 L 61.02210268766167,82.97126839523476 L 62.513864553407416,82.97126839523476 L 62.53137168674035,82.97126839523476 L 62.56122520171749,82.97126839523476 L 64.05929465286057,82.97126839523476 L 64.08379030410532,82.97126839523476 L 64.11600916360646,82.97126839523476 L 65.60121257408112,82.97126839523476 L 65.63335975647547,82.97126839523476 L 65.66208435702072,82.97126839523476 L 67.15631908295063,82.97126839523476 L 67.18160318237005,82.97126839523476 L 67.20936014197366,82.97126839523476 L 68.70234051853478,82.97126839523476 L 68.7271407974834,82.97126839523476 L 68.75220986558244,82.97126839523476 L 68.79193690201961,82.97126839523476 L 70.25615683948212,82.97126839523476 L 70.28231898345969,82.97126839523476 L 70.30952044548569,82.97126839523476 L 71.80332510877489,82.97126839523476 L 71.82941557564567,82.97126839523476 L 71.85792514487053,82.97126839523476 L 73.35076216721811,82.97126839523476 L 73.37477399799204,82.97126839523476 L 73.40217257206169,82.97126839523476 L 74.89443617755495,82.97126839523476 L 74.92328621303706,82.97126839523476 L 76.45353868512788,82.97126839523476 L 76.47106373773752,82.97126839523476 L 76.49887445517122,82.97126839523476 L 77.99405890276607,82.97126839523476 L 78.0187337467778,82.97126839523476 L 78.04923235571604,82.97126839523476 L 79.54190810457331,82.97126839523476 L 79.56599161245404,82.97126839523476 L 79.59306763954315,82.97126839523476 L 81.09283942197244,82.97126839523476 L 81.11867901896946,82.97126839523476 L 81.15105915196088,82.97126839523476 L 82.64267766349306,82.97126839523476 L 82.67052421948014,82.97126839523476 L 82.69722394175861,82.97126839523476 L 84.19348354595529,82.97126839523476 L 84.21061437447759,82.97126839523476 L 84.23962568344999,82.97126839523476 L 85.73633326956408,82.97126839523476 L 85.75873236543529,82.97126839523476 L 85.78442860821875,82.97126839523476 L 87.28423622920141,82.97126839523476 L 87.30511218655339,82.97126839523476 L 87.33677554847692,82.97126839523476 L 88.83178080330481,82.97126839523476 L 88.85468163892354,82.97126839523476 L 88.88453515390069,82.97126839523476 L 90.3770496292677,82.97126839523476 L 90.39910825888165,82.97126839523476 L 90.43159590753326,82.97126839523476 L 91.92430749494395,82.97126839523476 L 91.95668762793537,82.97126839523476 L 91.98974869344127,82.97126839523476 L 93.47778334963404,82.97126839523476 L 93.5015622298109,82.97126839523476 L 93.53146950261814,82.97126839523476 L 95.02561463216459,82.97126839523476 L 95.04905304608421,82.97126839523476 L 95.07896031889146,82.97126839523476 L 96.57457482912704,82.97126839523476 L 96.60536014649243,82.97126839523476 L 96.64173627818727,82.97126839523476 L 98.12321247910894,82.97126839523476 L 98.14557573642676,82.97126839523476 L 98.17417490203512,82.97126839523476 L 99.67308655918295,82.97126839523476 L 99.69206307320503,82.97126839523476 L 99.72200618456567,82.97126839523476 L 101.2162229912189,82.97126839523476 L 101.23855040998332,82.97126839523476 L 101.26705997920818,82.97126839523476 L 101.30607024457748,82.97126839523476 L 102.76855201220039,82.97126839523476 L 102.79835176934743,82.97126839523476 L 102.82793649517413,82.97126839523476 L 104.31296071288182,82.97126839523476 L 104.34025177129129,82.97126839523476 L 104.36876134051616,82.97126839523476 L 105.86385619172755,82.97126839523476 L 105.87919509258013,82.97126839523476 L 105.91519491946434,82.97126839523476 L 107.41043312488931,82.97126839523476 L 107.43587849779898,82.97126839523476 L 107.45679029370436,82.97126839523476 L 108.9598233844925,82.97126839523476 L 108.98387105381981,82.97126839523476 L 109.01313323266595,82.97126839523476 L 110.50889109711513,82.97126839523476 L 110.53458733989856,82.97126839523476 L 110.56275644286619,82.97126839523476 L 112.05573681942732,82.97126839523476 L 112.07614687558518,82.97126839523476 L 112.10766688329514,82.97126839523476 L 113.60675773320993,82.97126839523476 L 113.62879844354723,82.97126839523476 L 113.65970919584949,82.97126839523476 L 115.15389016394931,82.97126839523476 L 115.17956848745607,82.97126839523476 L 115.21049715903501,82.97126839523476 L 116.70121970673235,82.97126839523476 L 116.72600206640425,82.97126839523476 L 116.7445485177856,82.97126839523476 L 118.24641685558844,82.97126839523476 L 118.2814669608077,82.97126839523476 L 118.30513832532439,82.97126839523476 L 119.79799326694865,82.97126839523476 L 119.82205885555268,82.97126839523476 L 121.37209420911695,82.97126839523476 L 121.39850722296829,82.97126839523476 L 122.89089626339842,82.97126839523476 L 122.91411964599769,82.97126839523476 L 122.9417690899411,82.97126839523476 L 124.44258019041881,82.97126839523476 L 124.47146606445432,82.97126839523476 L 124.49902591201426,82.97126839523476 L 125.99082361631339,82.97126839523476 L 126.02051585780026,82.97126839523476 L 126.04949132821925,82.97126839523476 L 127.54171909515911,82.97126839523476 L 127.56942229693263,82.97126839523476 L 127.59325493493958,82.97126839523476 L 129.08557229826295,82.97126839523476 L 129.11390267472086,40 L 129.14298566080004,40 L 130.66216401989212,40 L 130.68807529399595,40 L 132.17752557304777,40 L 132.20537212903486,40 L 132.2240260960764,40 L 133.72960372415548,40 L 133.7573248452057,40 L 133.78563730238693,40 L 135.27489046939507,40 L 135.3037225856005,40 L 135.33916691490708,40 L 136.82947731924037,40 L 136.85972505830486,40 L 136.8812461096179,40 L 138.37666350780984,40 L 138.40087245062745,40 L 138.4305109342842,40 L 139.92743355171868,40 L 139.9823023769648,40 L 141.47137635120598,40 L 141.50105067341616,40 L 141.52839548965574,40 L 143.02128626983338,40 L 143.04936577641752,40 L 143.07868171309377,40 L 144.57013895113568,40 L 144.59877395529742,40 L 144.63099281479856,40 L 146.11764768668564,40 L 146.14778791008996,40 L 146.17875242022234,40 L 147.6685431655314,40 L 147.6981099720814,40 L 147.7262969943257,40 L 149.2189010660762,40 L 149.2401712475155,40 L 149.26961261912862,40 L 150.7616791125782,40 L 150.78904184809448,40 L 150.82075896784812,40 L 152.31060347098727,40 L 152.33780493301327,40 L 152.3677480443739,40 L 153.85897233181873,40 L 153.884740251709,40 L 153.9165111292927,40 L 155.408416349252,40 L 155.43418426914224,40 L 155.4580706649793,40 L 156.9619459617722,40 L 156.98389707572596,40 L 157.01584714607668,40 L 158.50545869861878,40 L 158.5307248787615,40 L 158.55914485160287,40 L 160.05294951489208,40 L 160.0752052565497,40 L 160.10885765818662,40 L 161.59958020588394,40 L 161.6257065113081,40 L 161.657764097319,40 L 163.1460854619389,40 L 163.17045567824678,40 L 163.2051294786554,40 L 164.69020745419317,40 L 164.72169162334976,40 L 164.75401799851107,40 L 166.24388042092693,40 L 166.26902116613277,40 L 166.29851629557598,40 L 167.79418456364166,40 L 167.82133226783756,40 L 167.8543216562367,40 L 169.33979385586179,40 L 169.37151097561542,40 L 169.40656108083468,40 L 170.89108355879486,40 L 170.91520290522897,40 L 170.94675875149233,40 L 172.44036630273786,40 L 172.46278331788577,40 L 172.4944108412559,40 L 173.98518714678332,40 L 174.00991574862513,40 L 174.04088025875748,40 L 175.53398607025548,40 L 175.56206557683964,40 L 177.08468443705755,40 L 177.11048819550118,40 L 177.13494800819254,40 L 178.6336087954666,40 L 178.6633368755069,40 L 178.69713263135736,40 L 180.17199661917786,40 L 180.2082473159358,40 L 180.2391580682381,40 L 181.72656554974648,40 L 181.74597212640927,40 L 181.78276040146818,40 L 183.27529279611187,40 L 183.3028168051184,40 L 183.33333333333334,40" stroke="#3b82f6" stroke-width="2" fill="none" stroke-dasharray="14800" stroke-dashoffset="14800">
      <animate attributeName="stroke-dashoffset" values="14800;0" dur="3s" begin="3.0999999999999996s" fill="freeze"/>
    </path>
    
    <!-- Glow effect for the line that also follows the circle -->
    <path d="M 30,160 L 30.025534969293176,160 L 30.056141093891597,160 L 31.547920878914034,160 L 31.573706718080967,160 L 31.604868340256992,160 L 33.09784871681813,160 L 33.11931601030109,160 L 33.15008340838978,160 L 34.645948788499126,160 L 34.67099993732149,160 L 34.69176837901327,160 L 36.19209565902016,160 L 36.21596413558052,160 L 36.24615811681491,160 L 37.7364326825948,160 L 37.77232499381883,160 L 37.80484848102382,160 L 39.29125248303717,160 L 39.31791636676225,160 L 39.349149666045065,160 L 40.83980053663559,160 L 40.865873084229676,160 L 40.891049667988916,160 L 42.389710455262986,160 L 42.4120737125808,160 L 42.438110421621495,160 L 43.933635335473596,160 L 43.95913446621338,160 L 43.987841147481916,160 L 45.48435162155236,160 L 45.50657152465659,160 L 45.537356842021985,160 L 47.021538853724905,160 L 47.05513749753172,160 L 47.08608408838738,160 L 48.58119685887545,160 L 48.60993937869738,160 L 48.63914779971344,160 L 50.13030041005149,160 L 50.16024352141211,160 L 50.193931761602414,160 L 51.6736160348544,160 L 51.698756780060236,160 L 51.72753513843557,160 L 53.222217846282916,160 L 53.24092557115455,160 L 53.273843282446876,160 L 54.771536428779314,160 L 54.79413263669419,160 L 54.824864196229484,160 L 56.321428428130005,160 L 56.34406047459828,160 L 56.370957308920424,160 L 57.86705563962683,82.97126839523476 L 57.89001023307564,82.97126839523476 L 57.91946952396546,82.97126839523476 L 59.416768446210554,82.97126839523476 L 59.44058316494083,82.97126839523476 L 59.47378758466031,82.97126839523476 L 60.95614183014014,82.97126839523476 L 60.9894716847965,82.97126839523476 L 61.02210268766167,82.97126839523476 L 62.513864553407416,82.97126839523476 L 62.53137168674035,82.97126839523476 L 62.56122520171749,82.97126839523476 L 64.05929465286057,82.97126839523476 L 64.08379030410532,82.97126839523476 L 64.11600916360646,82.97126839523476 L 65.60121257408112,82.97126839523476 L 65.63335975647547,82.97126839523476 L 65.66208435702072,82.97126839523476 L 67.15631908295063,82.97126839523476 L 67.18160318237005,82.97126839523476 L 67.20936014197366,82.97126839523476 L 68.70234051853478,82.97126839523476 L 68.7271407974834,82.97126839523476 L 68.75220986558244,82.97126839523476 L 68.79193690201961,82.97126839523476 L 70.25615683948212,82.97126839523476 L 70.28231898345969,82.97126839523476 L 70.30952044548569,82.97126839523476 L 71.80332510877489,82.97126839523476 L 71.82941557564567,82.97126839523476 L 71.85792514487053,82.97126839523476 L 73.35076216721811,82.97126839523476 L 73.37477399799204,82.97126839523476 L 73.40217257206169,82.97126839523476 L 74.89443617755495,82.97126839523476 L 74.92328621303706,82.97126839523476 L 76.45353868512788,82.97126839523476 L 76.47106373773752,82.97126839523476 L 76.49887445517122,82.97126839523476 L 77.99405890276607,82.97126839523476 L 78.0187337467778,82.97126839523476 L 78.04923235571604,82.97126839523476 L 79.54190810457331,82.97126839523476 L 79.56599161245404,82.97126839523476 L 79.59306763954315,82.97126839523476 L 81.09283942197244,82.97126839523476 L 81.11867901896946,82.97126839523476 L 81.15105915196088,82.97126839523476 L 82.64267766349306,82.97126839523476 L 82.67052421948014,82.97126839523476 L 82.69722394175861,82.97126839523476 L 84.19348354595529,82.97126839523476 L 84.21061437447759,82.97126839523476 L 84.23962568344999,82.97126839523476 L 85.73633326956408,82.97126839523476 L 85.75873236543529,82.97126839523476 L 85.78442860821875,82.97126839523476 L 87.28423622920141,82.97126839523476 L 87.30511218655339,82.97126839523476 L 87.33677554847692,82.97126839523476 L 88.83178080330481,82.97126839523476 L 88.85468163892354,82.97126839523476 L 88.88453515390069,82.97126839523476 L 90.3770496292677,82.97126839523476 L 90.39910825888165,82.97126839523476 L 90.43159590753326,82.97126839523476 L 91.92430749494395,82.97126839523476 L 91.95668762793537,82.97126839523476 L 91.98974869344127,82.97126839523476 L 93.47778334963404,82.97126839523476 L 93.5015622298109,82.97126839523476 L 93.53146950261814,82.97126839523476 L 95.02561463216459,82.97126839523476 L 95.04905304608421,82.97126839523476 L 95.07896031889146,82.97126839523476 L 96.57457482912704,82.97126839523476 L 96.60536014649243,82.97126839523476 L 96.64173627818727,82.97126839523476 L 98.12321247910894,82.97126839523476 L 98.14557573642676,82.97126839523476 L 98.17417490203512,82.97126839523476 L 99.67308655918295,82.97126839523476 L 99.69206307320503,82.97126839523476 L 99.72200618456567,82.97126839523476 L 101.2162229912189,82.97126839523476 L 101.23855040998332,82.97126839523476 L 101.26705997920818,82.97126839523476 L 101.30607024457748,82.97126839523476 L 102.76855201220039,82.97126839523476 L 102.79835176934743,82.97126839523476 L 102.82793649517413,82.97126839523476 L 104.31296071288182,82.97126839523476 L 104.34025177129129,82.97126839523476 L 104.36876134051616,82.97126839523476 L 105.86385619172755,82.97126839523476 L 105.87919509258013,82.97126839523476 L 105.91519491946434,82.97126839523476 L 107.41043312488931,82.97126839523476 L 107.43587849779898,82.97126839523476 L 107.45679029370436,82.97126839523476 L 108.9598233844925,82.97126839523476 L 108.98387105381981,82.97126839523476 L 109.01313323266595,82.97126839523476 L 110.50889109711513,82.97126839523476 L 110.53458733989856,82.97126839523476 L 110.56275644286619,82.97126839523476 L 112.05573681942732,82.97126839523476 L 112.07614687558518,82.97126839523476 L 112.10766688329514,82.97126839523476 L 113.60675773320993,82.97126839523476 L 113.62879844354723,82.97126839523476 L 113.65970919584949,82.97126839523476 L 115.15389016394931,82.97126839523476 L 115.17956848745607,82.97126839523476 L 115.21049715903501,82.97126839523476 L 116.70121970673235,82.97126839523476 L 116.72600206640425,82.97126839523476 L 116.7445485177856,82.97126839523476 L 118.24641685558844,82.97126839523476 L 118.2814669608077,82.97126839523476 L 118.30513832532439,82.97126839523476 L 119.79799326694865,82.97126839523476 L 119.82205885555268,82.97126839523476 L 121.37209420911695,82.97126839523476 L 121.39850722296829,82.97126839523476 L 122.89089626339842,82.97126839523476 L 122.91411964599769,82.97126839523476 L 122.9417690899411,82.97126839523476 L 124.44258019041881,82.97126839523476 L 124.47146606445432,82.97126839523476 L 124.49902591201426,82.97126839523476 L 125.99082361631339,82.97126839523476 L 126.02051585780026,82.97126839523476 L 126.04949132821925,82.97126839523476 L 127.54171909515911,82.97126839523476 L 127.56942229693263,82.97126839523476 L 127.59325493493958,82.97126839523476 L 129.08557229826295,82.97126839523476 L 129.11390267472086,40 L 129.14298566080004,40 L 130.66216401989212,40 L 130.68807529399595,40 L 132.17752557304777,40 L 132.20537212903486,40 L 132.2240260960764,40 L 133.72960372415548,40 L 133.7573248452057,40 L 133.78563730238693,40 L 135.27489046939507,40 L 135.3037225856005,40 L 135.33916691490708,40 L 136.82947731924037,40 L 136.85972505830486,40 L 136.8812461096179,40 L 138.37666350780984,40 L 138.40087245062745,40 L 138.4305109342842,40 L 139.92743355171868,40 L 139.9823023769648,40 L 141.47137635120598,40 L 141.50105067341616,40 L 141.52839548965574,40 L 143.02128626983338,40 L 143.04936577641752,40 L 143.07868171309377,40 L 144.57013895113568,40 L 144.59877395529742,40 L 144.63099281479856,40 L 146.11764768668564,40 L 146.14778791008996,40 L 146.17875242022234,40 L 147.6685431655314,40 L 147.6981099720814,40 L 147.7262969943257,40 L 149.2189010660762,40 L 149.2401712475155,40 L 149.26961261912862,40 L 150.7616791125782,40 L 150.78904184809448,40 L 150.82075896784812,40 L 152.31060347098727,40 L 152.33780493301327,40 L 152.3677480443739,40 L 153.85897233181873,40 L 153.884740251709,40 L 153.9165111292927,40 L 155.408416349252,40 L 155.43418426914224,40 L 155.4580706649793,40 L 156.9619459617722,40 L 156.98389707572596,40 L 157.01584714607668,40 L 158.50545869861878,40 L 158.5307248787615,40 L 158.55914485160287,40 L 160.05294951489208,40 L 160.0752052565497,40 L 160.10885765818662,40 L 161.59958020588394,40 L 161.6257065113081,40 L 161.657764097319,40 L 163.1460854619389,40 L 163.17045567824678,40 L 163.2051294786554,40 L 164.69020745419317,40 L 164.72169162334976,40 L 164.75401799851107,40 L 166.24388042092693,40 L 166.26902116613277,40 L 166.29851629557598,40 L 167.79418456364166,40 L 167.82133226783756,40 L 167.8543216562367,40 L 169.33979385586179,40 L 169.37151097561542,40 L 169.40656108083468,40 L 170.89108355879486,40 L 170.91520290522897,40 L 170.94675875149233,40 L 172.44036630273786,40 L 172.46278331788577,40 L 172.4944108412559,40 L 173.98518714678332,40 L 174.00991574862513,40 L 174.04088025875748,40 L 175.53398607025548,40 L 175.56206557683964,40 L 177.08468443705755,40 L 177.11048819550118,40 L 177.13494800819254,40 L 178.6336087954666,40 L 178.6633368755069,40 L 178.69713263135736,40 L 180.17199661917786,40 L 180.2082473159358,40 L 180.2391580682381,40 L 181.72656554974648,40 L 181.74597212640927,40 L 181.78276040146818,40 L 183.27529279611187,40 L 183.3028168051184,40 L 183.33333333333334,40" stroke="#3b82f6" stroke-width="4" fill="none" opacity="0.4" stroke-dasharray="14800" stroke-dashoffset="14800">
      <animate attributeName="stroke-dashoffset" values="14800;0" dur="3s" begin="3.0999999999999996s" fill="freeze"/>
    </path>
    
    <!-- Animated circle that moves along the path and draws the line -->
    <circle r="5" fill="#3b82f6" opacity="0" filter="url(#trailGlow)">
      <animate attributeName="opacity" values="0;1;1;1" dur="3.2s" begin="2.9s" fill="freeze"/>
      <animate attributeName="r" values="5;6;5" dur="1s" begin="2.9s" repeatCount="3"/>
      <animateMotion dur="3s" begin="2.9s" fill="freeze">
        <mpath href="#path_publicContributions_293.33333333333337"/>
      </animateMotion>
    </circle>
    
    <!-- Small trail dots that fade out -->
    <circle r="2" fill="#3b82f6" opacity="0">
      <animate attributeName="opacity" values="0;0.6;0" dur="0.8s" begin="3.3s" fill="freeze"/>
      <animateMotion dur="3s" begin="2.9s" fill="freeze">
        <mpath href="#path_publicContributions_293.33333333333337"/>
      </animateMotion>
    </circle>
    
    <!-- Hidden path for motion animation -->
    <path id="path_publicContributions_293.33333333333337" d="M 30,160 L 30.025534969293176,160 L 30.056141093891597,160 L 31.547920878914034,160 L 31.573706718080967,160 L 31.604868340256992,160 L 33.09784871681813,160 L 33.11931601030109,160 L 33.15008340838978,160 L 34.645948788499126,160 L 34.67099993732149,160 L 34.69176837901327,160 L 36.19209565902016,160 L 36.21596413558052,160 L 36.24615811681491,160 L 37.7364326825948,160 L 37.77232499381883,160 L 37.80484848102382,160 L 39.29125248303717,160 L 39.31791636676225,160 L 39.349149666045065,160 L 40.83980053663559,160 L 40.865873084229676,160 L 40.891049667988916,160 L 42.389710455262986,160 L 42.4120737125808,160 L 42.438110421621495,160 L 43.933635335473596,160 L 43.95913446621338,160 L 43.987841147481916,160 L 45.48435162155236,160 L 45.50657152465659,160 L 45.537356842021985,160 L 47.021538853724905,160 L 47.05513749753172,160 L 47.08608408838738,160 L 48.58119685887545,160 L 48.60993937869738,160 L 48.63914779971344,160 L 50.13030041005149,160 L 50.16024352141211,160 L 50.193931761602414,160 L 51.6736160348544,160 L 51.698756780060236,160 L 51.72753513843557,160 L 53.222217846282916,160 L 53.24092557115455,160 L 53.273843282446876,160 L 54.771536428779314,160 L 54.79413263669419,160 L 54.824864196229484,160 L 56.321428428130005,160 L 56.34406047459828,160 L 56.370957308920424,160 L 57.86705563962683,82.97126839523476 L 57.89001023307564,82.97126839523476 L 57.91946952396546,82.97126839523476 L 59.416768446210554,82.97126839523476 L 59.44058316494083,82.97126839523476 L 59.47378758466031,82.97126839523476 L 60.95614183014014,82.97126839523476 L 60.9894716847965,82.97126839523476 L 61.02210268766167,82.97126839523476 L 62.513864553407416,82.97126839523476 L 62.53137168674035,82.97126839523476 L 62.56122520171749,82.97126839523476 L 64.05929465286057,82.97126839523476 L 64.08379030410532,82.97126839523476 L 64.11600916360646,82.97126839523476 L 65.60121257408112,82.97126839523476 L 65.63335975647547,82.97126839523476 L 65.66208435702072,82.97126839523476 L 67.15631908295063,82.97126839523476 L 67.18160318237005,82.97126839523476 L 67.20936014197366,82.97126839523476 L 68.70234051853478,82.97126839523476 L 68.7271407974834,82.97126839523476 L 68.75220986558244,82.97126839523476 L 68.79193690201961,82.97126839523476 L 70.25615683948212,82.97126839523476 L 70.28231898345969,82.97126839523476 L 70.30952044548569,82.97126839523476 L 71.80332510877489,82.97126839523476 L 71.82941557564567,82.97126839523476 L 71.85792514487053,82.97126839523476 L 73.35076216721811,82.97126839523476 L 73.37477399799204,82.97126839523476 L 73.40217257206169,82.97126839523476 L 74.89443617755495,82.97126839523476 L 74.92328621303706,82.97126839523476 L 76.45353868512788,82.97126839523476 L 76.47106373773752,82.97126839523476 L 76.49887445517122,82.97126839523476 L 77.99405890276607,82.97126839523476 L 78.0187337467778,82.97126839523476 L 78.04923235571604,82.97126839523476 L 79.54190810457331,82.97126839523476 L 79.56599161245404,82.97126839523476 L 79.59306763954315,82.97126839523476 L 81.09283942197244,82.97126839523476 L 81.11867901896946,82.97126839523476 L 81.15105915196088,82.97126839523476 L 82.64267766349306,82.97126839523476 L 82.67052421948014,82.97126839523476 L 82.69722394175861,82.97126839523476 L 84.19348354595529,82.97126839523476 L 84.21061437447759,82.97126839523476 L 84.23962568344999,82.97126839523476 L 85.73633326956408,82.97126839523476 L 85.75873236543529,82.97126839523476 L 85.78442860821875,82.97126839523476 L 87.28423622920141,82.97126839523476 L 87.30511218655339,82.97126839523476 L 87.33677554847692,82.97126839523476 L 88.83178080330481,82.97126839523476 L 88.85468163892354,82.97126839523476 L 88.88453515390069,82.97126839523476 L 90.3770496292677,82.97126839523476 L 90.39910825888165,82.97126839523476 L 90.43159590753326,82.97126839523476 L 91.92430749494395,82.97126839523476 L 91.95668762793537,82.97126839523476 L 91.98974869344127,82.97126839523476 L 93.47778334963404,82.97126839523476 L 93.5015622298109,82.97126839523476 L 93.53146950261814,82.97126839523476 L 95.02561463216459,82.97126839523476 L 95.04905304608421,82.97126839523476 L 95.07896031889146,82.97126839523476 L 96.57457482912704,82.97126839523476 L 96.60536014649243,82.97126839523476 L 96.64173627818727,82.97126839523476 L 98.12321247910894,82.97126839523476 L 98.14557573642676,82.97126839523476 L 98.17417490203512,82.97126839523476 L 99.67308655918295,82.97126839523476 L 99.69206307320503,82.97126839523476 L 99.72200618456567,82.97126839523476 L 101.2162229912189,82.97126839523476 L 101.23855040998332,82.97126839523476 L 101.26705997920818,82.97126839523476 L 101.30607024457748,82.97126839523476 L 102.76855201220039,82.97126839523476 L 102.79835176934743,82.97126839523476 L 102.82793649517413,82.97126839523476 L 104.31296071288182,82.97126839523476 L 104.34025177129129,82.97126839523476 L 104.36876134051616,82.97126839523476 L 105.86385619172755,82.97126839523476 L 105.87919509258013,82.97126839523476 L 105.91519491946434,82.97126839523476 L 107.41043312488931,82.97126839523476 L 107.43587849779898,82.97126839523476 L 107.45679029370436,82.97126839523476 L 108.9598233844925,82.97126839523476 L 108.98387105381981,82.97126839523476 L 109.01313323266595,82.97126839523476 L 110.50889109711513,82.97126839523476 L 110.53458733989856,82.97126839523476 L 110.56275644286619,82.97126839523476 L 112.05573681942732,82.97126839523476 L 112.07614687558518,82.97126839523476 L 112.10766688329514,82.97126839523476 L 113.60675773320993,82.97126839523476 L 113.62879844354723,82.97126839523476 L 113.65970919584949,82.97126839523476 L 115.15389016394931,82.97126839523476 L 115.17956848745607,82.97126839523476 L 115.21049715903501,82.97126839523476 L 116.70121970673235,82.97126839523476 L 116.72600206640425,82.97126839523476 L 116.7445485177856,82.97126839523476 L 118.24641685558844,82.97126839523476 L 118.2814669608077,82.97126839523476 L 118.30513832532439,82.97126839523476 L 119.79799326694865,82.97126839523476 L 119.82205885555268,82.97126839523476 L 121.37209420911695,82.97126839523476 L 121.39850722296829,82.97126839523476 L 122.89089626339842,82.97126839523476 L 122.91411964599769,82.97126839523476 L 122.9417690899411,82.97126839523476 L 124.44258019041881,82.97126839523476 L 124.47146606445432,82.97126839523476 L 124.49902591201426,82.97126839523476 L 125.99082361631339,82.97126839523476 L 126.02051585780026,82.97126839523476 L 126.04949132821925,82.97126839523476 L 127.54171909515911,82.97126839523476 L 127.56942229693263,82.97126839523476 L 127.59325493493958,82.97126839523476 L 129.08557229826295,82.97126839523476 L 129.11390267472086,40 L 129.14298566080004,40 L 130.66216401989212,40 L 130.68807529399595,40 L 132.17752557304777,40 L 132.20537212903486,40 L 132.2240260960764,40 L 133.72960372415548,40 L 133.7573248452057,40 L 133.78563730238693,40 L 135.27489046939507,40 L 135.3037225856005,40 L 135.33916691490708,40 L 136.82947731924037,40 L 136.85972505830486,40 L 136.8812461096179,40 L 138.37666350780984,40 L 138.40087245062745,40 L 138.4305109342842,40 L 139.92743355171868,40 L 139.9823023769648,40 L 141.47137635120598,40 L 141.50105067341616,40 L 141.52839548965574,40 L 143.02128626983338,40 L 143.04936577641752,40 L 143.07868171309377,40 L 144.57013895113568,40 L 144.59877395529742,40 L 144.63099281479856,40 L 146.11764768668564,40 L 146.14778791008996,40 L 146.17875242022234,40 L 147.6685431655314,40 L 147.6981099720814,40 L 147.7262969943257,40 L 149.2189010660762,40 L 149.2401712475155,40 L 149.26961261912862,40 L 150.7616791125782,40 L 150.78904184809448,40 L 150.82075896784812,40 L 152.31060347098727,40 L 152.33780493301327,40 L 152.3677480443739,40 L 153.85897233181873,40 L 153.884740251709,40 L 153.9165111292927,40 L 155.408416349252,40 L 155.43418426914224,40 L 155.4580706649793,40 L 156.9619459617722,40 L 156.98389707572596,40 L 157.01584714607668,40 L 158.50545869861878,40 L 158.5307248787615,40 L 158.55914485160287,40 L 160.05294951489208,40 L 160.0752052565497,40 L 160.10885765818662,40 L 161.59958020588394,40 L 161.6257065113081,40 L 161.657764097319,40 L 163.1460854619389,40 L 163.17045567824678,40 L 163.2051294786554,40 L 164.69020745419317,40 L 164.72169162334976,40 L 164.75401799851107,40 L 166.24388042092693,40 L 166.26902116613277,40 L 166.29851629557598,40 L 167.79418456364166,40 L 167.82133226783756,40 L 167.8543216562367,40 L 169.33979385586179,40 L 169.37151097561542,40 L 169.40656108083468,40 L 170.89108355879486,40 L 170.91520290522897,40 L 170.94675875149233,40 L 172.44036630273786,40 L 172.46278331788577,40 L 172.4944108412559,40 L 173.98518714678332,40 L 174.00991574862513,40 L 174.04088025875748,40 L 175.53398607025548,40 L 175.56206557683964,40 L 177.08468443705755,40 L 177.11048819550118,40 L 177.13494800819254,40 L 178.6336087954666,40 L 178.6633368755069,40 L 178.69713263135736,40 L 180.17199661917786,40 L 180.2082473159358,40 L 180.2391580682381,40 L 181.72656554974648,40 L 181.74597212640927,40 L 181.78276040146818,40 L 183.27529279611187,40 L 183.3028168051184,40 L 183.33333333333334,40" fill="none" stroke="none"/>
  </g>
  <!-- 📊 Total Contributions Chart -->
  <g transform="translate(526.6666666666667, 250)">
    <!-- Chart Background -->
    <rect x="0" y="0" width="213.33333333333334" height="200" fill="#0f172a" stroke="#334155" stroke-width="1" rx="8" filter="url(#shadow)">
      <animate attributeName="opacity" values="0;1" dur="0.5s" begin="2.8s" fill="freeze"/>
    </rect>
    
    <!-- Chart Title -->
    <text x="106.66666666666667" y="25" text-anchor="middle" fill="#f8fafc" font-size="14" font-weight="bold" font-family="Arial, sans-serif">
      📊 Total Contributions
      <animate attributeName="opacity" values="0;1" dur="0.5s" begin="3s" fill="freeze"/>
    </text>
    
    <!-- Y-axis labels -->
    <text x="10" y="45" fill="#94a3b8" font-size="10" font-family="Arial, sans-serif">4,408
      <animate attributeName="opacity" values="0;1" dur="0.5s" begin="3.1999999999999997s" fill="freeze"/>
    </text>
    <text x="10" y="185" fill="#94a3b8" font-size="10" font-family="Arial, sans-serif">2,598
      <animate attributeName="opacity" values="0;1" dur="0.5s" begin="3.1999999999999997s" fill="freeze"/>
    </text>
    
    <!-- Chart Line with draw animation that follows the circle -->
    <path d="M 30,160 L 30.025534969293176,160 L 30.056141093891597,160 L 31.547920878914034,160 L 31.573706718080967,160 L 31.604868340256992,160 L 33.09784871681813,160 L 33.11931601030109,160 L 33.15008340838978,160 L 34.645948788499126,160 L 34.67099993732149,160 L 34.69176837901327,160 L 36.19209565902016,160 L 36.21596413558052,160 L 36.24615811681491,160 L 37.7364326825948,160 L 37.77232499381883,160 L 37.80484848102382,160 L 39.29125248303717,160 L 39.31791636676225,160 L 39.349149666045065,160 L 40.83980053663559,160 L 40.865873084229676,160 L 40.891049667988916,160 L 42.389710455262986,160 L 42.4120737125808,160 L 42.438110421621495,160 L 43.933635335473596,160 L 43.95913446621338,160 L 43.987841147481916,160 L 45.48435162155236,160 L 45.50657152465659,160 L 45.537356842021985,160 L 47.021538853724905,160 L 47.05513749753172,160 L 47.08608408838738,160 L 48.58119685887545,160 L 48.60993937869738,160 L 48.63914779971344,160 L 50.13030041005149,160 L 50.16024352141211,160 L 50.193931761602414,160 L 51.6736160348544,160 L 51.698756780060236,160 L 51.72753513843557,160 L 53.222217846282916,160 L 53.24092557115455,160 L 53.273843282446876,160 L 54.771536428779314,160 L 54.79413263669419,160 L 54.824864196229484,160 L 56.321428428130005,160 L 56.34406047459828,160 L 56.370957308920424,160 L 57.86705563962683,80.1767955801105 L 57.89001023307564,80.1767955801105 L 57.91946952396546,80.1767955801105 L 59.416768446210554,80.1767955801105 L 59.44058316494083,80.1767955801105 L 59.47378758466031,80.1767955801105 L 60.95614183014014,80.1767955801105 L 60.9894716847965,80.1767955801105 L 61.02210268766167,80.1767955801105 L 62.513864553407416,80.1767955801105 L 62.53137168674035,80.1767955801105 L 62.56122520171749,80.1767955801105 L 64.05929465286057,80.1767955801105 L 64.08379030410532,80.1767955801105 L 64.11600916360646,80.1767955801105 L 65.60121257408112,80.1767955801105 L 65.63335975647547,80.1767955801105 L 65.66208435702072,80.1767955801105 L 67.15631908295063,80.1767955801105 L 67.18160318237005,80.1767955801105 L 67.20936014197366,80.1767955801105 L 68.70234051853478,80.1767955801105 L 68.7271407974834,80.1767955801105 L 68.75220986558244,80.1767955801105 L 68.79193690201961,80.1767955801105 L 70.25615683948212,80.1767955801105 L 70.28231898345969,80.1767955801105 L 70.30952044548569,80.1767955801105 L 71.80332510877489,80.1767955801105 L 71.82941557564567,80.1767955801105 L 71.85792514487053,80.1767955801105 L 73.35076216721811,80.1767955801105 L 73.37477399799204,80.1767955801105 L 73.40217257206169,80.1767955801105 L 74.89443617755495,80.1767955801105 L 74.92328621303706,80.1767955801105 L 76.45353868512788,80.1767955801105 L 76.47106373773752,80.1767955801105 L 76.49887445517122,80.1767955801105 L 77.99405890276607,80.1767955801105 L 78.0187337467778,80.1767955801105 L 78.04923235571604,80.1767955801105 L 79.54190810457331,80.1767955801105 L 79.56599161245404,80.1767955801105 L 79.59306763954315,80.1767955801105 L 81.09283942197244,80.1767955801105 L 81.11867901896946,80.1767955801105 L 81.15105915196088,80.1767955801105 L 82.64267766349306,80.1767955801105 L 82.67052421948014,80.1767955801105 L 82.69722394175861,80.1767955801105 L 84.19348354595529,80.1767955801105 L 84.21061437447759,80.1767955801105 L 84.23962568344999,80.1767955801105 L 85.73633326956408,80.1767955801105 L 85.75873236543529,80.1767955801105 L 85.78442860821875,80.1767955801105 L 87.28423622920141,80.1767955801105 L 87.30511218655339,80.1767955801105 L 87.33677554847692,80.1767955801105 L 88.83178080330481,80.1767955801105 L 88.85468163892354,80.1767955801105 L 88.88453515390069,80.1767955801105 L 90.3770496292677,80.1767955801105 L 90.39910825888165,80.1767955801105 L 90.43159590753326,80.1767955801105 L 91.92430749494395,80.1767955801105 L 91.95668762793537,80.1767955801105 L 91.98974869344127,80.1767955801105 L 93.47778334963404,80.1767955801105 L 93.5015622298109,80.1767955801105 L 93.53146950261814,80.1767955801105 L 95.02561463216459,80.1767955801105 L 95.04905304608421,80.1767955801105 L 95.07896031889146,80.1767955801105 L 96.57457482912704,80.1767955801105 L 96.60536014649243,80.1767955801105 L 96.64173627818727,80.1767955801105 L 98.12321247910894,80.1767955801105 L 98.14557573642676,80.1767955801105 L 98.17417490203512,80.1767955801105 L 99.67308655918295,80.1767955801105 L 99.69206307320503,80.1767955801105 L 99.72200618456567,80.1767955801105 L 101.2162229912189,80.1767955801105 L 101.23855040998332,80.1767955801105 L 101.26705997920818,80.1767955801105 L 101.30607024457748,80.1767955801105 L 102.76855201220039,80.1767955801105 L 102.79835176934743,80.1767955801105 L 102.82793649517413,80.1767955801105 L 104.31296071288182,80.1767955801105 L 104.34025177129129,80.1767955801105 L 104.36876134051616,80.1767955801105 L 105.86385619172755,80.1767955801105 L 105.87919509258013,80.1767955801105 L 105.91519491946434,80.1767955801105 L 107.41043312488931,80.1767955801105 L 107.43587849779898,80.1767955801105 L 107.45679029370436,80.1767955801105 L 108.9598233844925,80.1767955801105 L 108.98387105381981,80.1767955801105 L 109.01313323266595,80.1767955801105 L 110.50889109711513,80.1767955801105 L 110.53458733989856,80.1767955801105 L 110.56275644286619,80.1767955801105 L 112.05573681942732,80.1767955801105 L 112.07614687558518,80.1767955801105 L 112.10766688329514,80.1767955801105 L 113.60675773320993,80.1767955801105 L 113.62879844354723,80.1767955801105 L 113.65970919584949,80.1767955801105 L 115.15389016394931,80.1767955801105 L 115.17956848745607,80.1767955801105 L 115.21049715903501,80.1767955801105 L 116.70121970673235,80.1767955801105 L 116.72600206640425,80.1767955801105 L 116.7445485177856,80.1767955801105 L 118.24641685558844,80.1767955801105 L 118.2814669608077,80.1767955801105 L 118.30513832532439,80.1767955801105 L 119.79799326694865,80.1767955801105 L 119.82205885555268,80.1767955801105 L 121.37209420911695,80.1767955801105 L 121.39850722296829,80.1767955801105 L 122.89089626339842,80.1767955801105 L 122.91411964599769,80.1767955801105 L 122.9417690899411,80.1767955801105 L 124.44258019041881,80.1767955801105 L 124.47146606445432,80.1767955801105 L 124.49902591201426,80.1767955801105 L 125.99082361631339,80.1767955801105 L 126.02051585780026,80.1767955801105 L 126.04949132821925,80.1767955801105 L 127.54171909515911,80.1767955801105 L 127.56942229693263,80.1767955801105 L 127.59325493493958,80.1767955801105 L 129.08557229826295,80.1767955801105 L 129.11390267472086,40 L 129.14298566080004,40 L 130.66216401989212,40 L 130.68807529399595,40 L 132.17752557304777,40 L 132.20537212903486,40 L 132.2240260960764,40 L 133.72960372415548,40 L 133.7573248452057,40 L 133.78563730238693,40 L 135.27489046939507,40 L 135.3037225856005,40 L 135.33916691490708,40 L 136.82947731924037,40 L 136.85972505830486,40 L 136.8812461096179,40 L 138.37666350780984,40 L 138.40087245062745,40 L 138.4305109342842,40 L 139.92743355171868,40 L 139.9823023769648,40 L 141.47137635120598,40 L 141.50105067341616,40 L 141.52839548965574,40 L 143.02128626983338,40 L 143.04936577641752,40 L 143.07868171309377,40 L 144.57013895113568,40 L 144.59877395529742,40 L 144.63099281479856,40 L 146.11764768668564,40 L 146.14778791008996,40 L 146.17875242022234,40 L 147.6685431655314,40 L 147.6981099720814,40 L 147.7262969943257,40 L 149.2189010660762,40 L 149.2401712475155,40 L 149.26961261912862,40 L 150.7616791125782,40 L 150.78904184809448,40 L 150.82075896784812,40 L 152.31060347098727,40 L 152.33780493301327,40 L 152.3677480443739,40 L 153.85897233181873,40 L 153.884740251709,40 L 153.9165111292927,40 L 155.408416349252,40 L 155.43418426914224,40 L 155.4580706649793,40 L 156.9619459617722,40 L 156.98389707572596,40 L 157.01584714607668,40 L 158.50545869861878,40 L 158.5307248787615,40 L 158.55914485160287,40 L 160.05294951489208,40 L 160.0752052565497,40 L 160.10885765818662,40 L 161.59958020588394,40 L 161.6257065113081,40 L 161.657764097319,40 L 163.1460854619389,40 L 163.17045567824678,40 L 163.2051294786554,40 L 164.69020745419317,40 L 164.72169162334976,40 L 164.75401799851107,40 L 166.24388042092693,40 L 166.26902116613277,40 L 166.29851629557598,40 L 167.79418456364166,40 L 167.82133226783756,40 L 167.8543216562367,40 L 169.33979385586179,40 L 169.37151097561542,40 L 169.40656108083468,40 L 170.89108355879486,40 L 170.91520290522897,40 L 170.94675875149233,40 L 172.44036630273786,40 L 172.46278331788577,40 L 172.4944108412559,40 L 173.98518714678332,40 L 174.00991574862513,40 L 174.04088025875748,40 L 175.53398607025548,40 L 175.56206557683964,40 L 177.08468443705755,40 L 177.11048819550118,40 L 177.13494800819254,40 L 178.6336087954666,40 L 178.6633368755069,40 L 178.69713263135736,40 L 180.17199661917786,40 L 180.2082473159358,40 L 180.2391580682381,40 L 181.72656554974648,40 L 181.74597212640927,40 L 181.78276040146818,40 L 183.27529279611187,40 L 183.3028168051184,40 L 183.33333333333334,40" stroke="#f59e0b" stroke-width="2" fill="none" stroke-dasharray="14800" stroke-dashoffset="14800">
      <animate attributeName="stroke-dashoffset" values="14800;0" dur="3s" begin="3.5999999999999996s" fill="freeze"/>
    </path>
    
    <!-- Glow effect for the line that also follows the circle -->
    <path d="M 30,160 L 30.025534969293176,160 L 30.056141093891597,160 L 31.547920878914034,160 L 31.573706718080967,160 L 31.604868340256992,160 L 33.09784871681813,160 L 33.11931601030109,160 L 33.15008340838978,160 L 34.645948788499126,160 L 34.67099993732149,160 L 34.69176837901327,160 L 36.19209565902016,160 L 36.21596413558052,160 L 36.24615811681491,160 L 37.7364326825948,160 L 37.77232499381883,160 L 37.80484848102382,160 L 39.29125248303717,160 L 39.31791636676225,160 L 39.349149666045065,160 L 40.83980053663559,160 L 40.865873084229676,160 L 40.891049667988916,160 L 42.389710455262986,160 L 42.4120737125808,160 L 42.438110421621495,160 L 43.933635335473596,160 L 43.95913446621338,160 L 43.987841147481916,160 L 45.48435162155236,160 L 45.50657152465659,160 L 45.537356842021985,160 L 47.021538853724905,160 L 47.05513749753172,160 L 47.08608408838738,160 L 48.58119685887545,160 L 48.60993937869738,160 L 48.63914779971344,160 L 50.13030041005149,160 L 50.16024352141211,160 L 50.193931761602414,160 L 51.6736160348544,160 L 51.698756780060236,160 L 51.72753513843557,160 L 53.222217846282916,160 L 53.24092557115455,160 L 53.273843282446876,160 L 54.771536428779314,160 L 54.79413263669419,160 L 54.824864196229484,160 L 56.321428428130005,160 L 56.34406047459828,160 L 56.370957308920424,160 L 57.86705563962683,80.1767955801105 L 57.89001023307564,80.1767955801105 L 57.91946952396546,80.1767955801105 L 59.416768446210554,80.1767955801105 L 59.44058316494083,80.1767955801105 L 59.47378758466031,80.1767955801105 L 60.95614183014014,80.1767955801105 L 60.9894716847965,80.1767955801105 L 61.02210268766167,80.1767955801105 L 62.513864553407416,80.1767955801105 L 62.53137168674035,80.1767955801105 L 62.56122520171749,80.1767955801105 L 64.05929465286057,80.1767955801105 L 64.08379030410532,80.1767955801105 L 64.11600916360646,80.1767955801105 L 65.60121257408112,80.1767955801105 L 65.63335975647547,80.1767955801105 L 65.66208435702072,80.1767955801105 L 67.15631908295063,80.1767955801105 L 67.18160318237005,80.1767955801105 L 67.20936014197366,80.1767955801105 L 68.70234051853478,80.1767955801105 L 68.7271407974834,80.1767955801105 L 68.75220986558244,80.1767955801105 L 68.79193690201961,80.1767955801105 L 70.25615683948212,80.1767955801105 L 70.28231898345969,80.1767955801105 L 70.30952044548569,80.1767955801105 L 71.80332510877489,80.1767955801105 L 71.82941557564567,80.1767955801105 L 71.85792514487053,80.1767955801105 L 73.35076216721811,80.1767955801105 L 73.37477399799204,80.1767955801105 L 73.40217257206169,80.1767955801105 L 74.89443617755495,80.1767955801105 L 74.92328621303706,80.1767955801105 L 76.45353868512788,80.1767955801105 L 76.47106373773752,80.1767955801105 L 76.49887445517122,80.1767955801105 L 77.99405890276607,80.1767955801105 L 78.0187337467778,80.1767955801105 L 78.04923235571604,80.1767955801105 L 79.54190810457331,80.1767955801105 L 79.56599161245404,80.1767955801105 L 79.59306763954315,80.1767955801105 L 81.09283942197244,80.1767955801105 L 81.11867901896946,80.1767955801105 L 81.15105915196088,80.1767955801105 L 82.64267766349306,80.1767955801105 L 82.67052421948014,80.1767955801105 L 82.69722394175861,80.1767955801105 L 84.19348354595529,80.1767955801105 L 84.21061437447759,80.1767955801105 L 84.23962568344999,80.1767955801105 L 85.73633326956408,80.1767955801105 L 85.75873236543529,80.1767955801105 L 85.78442860821875,80.1767955801105 L 87.28423622920141,80.1767955801105 L 87.30511218655339,80.1767955801105 L 87.33677554847692,80.1767955801105 L 88.83178080330481,80.1767955801105 L 88.85468163892354,80.1767955801105 L 88.88453515390069,80.1767955801105 L 90.3770496292677,80.1767955801105 L 90.39910825888165,80.1767955801105 L 90.43159590753326,80.1767955801105 L 91.92430749494395,80.1767955801105 L 91.95668762793537,80.1767955801105 L 91.98974869344127,80.1767955801105 L 93.47778334963404,80.1767955801105 L 93.5015622298109,80.1767955801105 L 93.53146950261814,80.1767955801105 L 95.02561463216459,80.1767955801105 L 95.04905304608421,80.1767955801105 L 95.07896031889146,80.1767955801105 L 96.57457482912704,80.1767955801105 L 96.60536014649243,80.1767955801105 L 96.64173627818727,80.1767955801105 L 98.12321247910894,80.1767955801105 L 98.14557573642676,80.1767955801105 L 98.17417490203512,80.1767955801105 L 99.67308655918295,80.1767955801105 L 99.69206307320503,80.1767955801105 L 99.72200618456567,80.1767955801105 L 101.2162229912189,80.1767955801105 L 101.23855040998332,80.1767955801105 L 101.26705997920818,80.1767955801105 L 101.30607024457748,80.1767955801105 L 102.76855201220039,80.1767955801105 L 102.79835176934743,80.1767955801105 L 102.82793649517413,80.1767955801105 L 104.31296071288182,80.1767955801105 L 104.34025177129129,80.1767955801105 L 104.36876134051616,80.1767955801105 L 105.86385619172755,80.1767955801105 L 105.87919509258013,80.1767955801105 L 105.91519491946434,80.1767955801105 L 107.41043312488931,80.1767955801105 L 107.43587849779898,80.1767955801105 L 107.45679029370436,80.1767955801105 L 108.9598233844925,80.1767955801105 L 108.98387105381981,80.1767955801105 L 109.01313323266595,80.1767955801105 L 110.50889109711513,80.1767955801105 L 110.53458733989856,80.1767955801105 L 110.56275644286619,80.1767955801105 L 112.05573681942732,80.1767955801105 L 112.07614687558518,80.1767955801105 L 112.10766688329514,80.1767955801105 L 113.60675773320993,80.1767955801105 L 113.62879844354723,80.1767955801105 L 113.65970919584949,80.1767955801105 L 115.15389016394931,80.1767955801105 L 115.17956848745607,80.1767955801105 L 115.21049715903501,80.1767955801105 L 116.70121970673235,80.1767955801105 L 116.72600206640425,80.1767955801105 L 116.7445485177856,80.1767955801105 L 118.24641685558844,80.1767955801105 L 118.2814669608077,80.1767955801105 L 118.30513832532439,80.1767955801105 L 119.79799326694865,80.1767955801105 L 119.82205885555268,80.1767955801105 L 121.37209420911695,80.1767955801105 L 121.39850722296829,80.1767955801105 L 122.89089626339842,80.1767955801105 L 122.91411964599769,80.1767955801105 L 122.9417690899411,80.1767955801105 L 124.44258019041881,80.1767955801105 L 124.47146606445432,80.1767955801105 L 124.49902591201426,80.1767955801105 L 125.99082361631339,80.1767955801105 L 126.02051585780026,80.1767955801105 L 126.04949132821925,80.1767955801105 L 127.54171909515911,80.1767955801105 L 127.56942229693263,80.1767955801105 L 127.59325493493958,80.1767955801105 L 129.08557229826295,80.1767955801105 L 129.11390267472086,40 L 129.14298566080004,40 L 130.66216401989212,40 L 130.68807529399595,40 L 132.17752557304777,40 L 132.20537212903486,40 L 132.2240260960764,40 L 133.72960372415548,40 L 133.7573248452057,40 L 133.78563730238693,40 L 135.27489046939507,40 L 135.3037225856005,40 L 135.33916691490708,40 L 136.82947731924037,40 L 136.85972505830486,40 L 136.8812461096179,40 L 138.37666350780984,40 L 138.40087245062745,40 L 138.4305109342842,40 L 139.92743355171868,40 L 139.9823023769648,40 L 141.47137635120598,40 L 141.50105067341616,40 L 141.52839548965574,40 L 143.02128626983338,40 L 143.04936577641752,40 L 143.07868171309377,40 L 144.57013895113568,40 L 144.59877395529742,40 L 144.63099281479856,40 L 146.11764768668564,40 L 146.14778791008996,40 L 146.17875242022234,40 L 147.6685431655314,40 L 147.6981099720814,40 L 147.7262969943257,40 L 149.2189010660762,40 L 149.2401712475155,40 L 149.26961261912862,40 L 150.7616791125782,40 L 150.78904184809448,40 L 150.82075896784812,40 L 152.31060347098727,40 L 152.33780493301327,40 L 152.3677480443739,40 L 153.85897233181873,40 L 153.884740251709,40 L 153.9165111292927,40 L 155.408416349252,40 L 155.43418426914224,40 L 155.4580706649793,40 L 156.9619459617722,40 L 156.98389707572596,40 L 157.01584714607668,40 L 158.50545869861878,40 L 158.5307248787615,40 L 158.55914485160287,40 L 160.05294951489208,40 L 160.0752052565497,40 L 160.10885765818662,40 L 161.59958020588394,40 L 161.6257065113081,40 L 161.657764097319,40 L 163.1460854619389,40 L 163.17045567824678,40 L 163.2051294786554,40 L 164.69020745419317,40 L 164.72169162334976,40 L 164.75401799851107,40 L 166.24388042092693,40 L 166.26902116613277,40 L 166.29851629557598,40 L 167.79418456364166,40 L 167.82133226783756,40 L 167.8543216562367,40 L 169.33979385586179,40 L 169.37151097561542,40 L 169.40656108083468,40 L 170.89108355879486,40 L 170.91520290522897,40 L 170.94675875149233,40 L 172.44036630273786,40 L 172.46278331788577,40 L 172.4944108412559,40 L 173.98518714678332,40 L 174.00991574862513,40 L 174.04088025875748,40 L 175.53398607025548,40 L 175.56206557683964,40 L 177.08468443705755,40 L 177.11048819550118,40 L 177.13494800819254,40 L 178.6336087954666,40 L 178.6633368755069,40 L 178.69713263135736,40 L 180.17199661917786,40 L 180.2082473159358,40 L 180.2391580682381,40 L 181.72656554974648,40 L 181.74597212640927,40 L 181.78276040146818,40 L 183.27529279611187,40 L 183.3028168051184,40 L 183.33333333333334,40" stroke="#f59e0b" stroke-width="4" fill="none" opacity="0.4" stroke-dasharray="14800" stroke-dashoffset="14800">
      <animate attributeName="stroke-dashoffset" values="14800;0" dur="3s" begin="3.5999999999999996s" fill="freeze"/>
    </path>
    
    <!-- Animated circle that moves along the path and draws the line -->
    <circle r="5" fill="#f59e0b" opacity="0" filter="url(#trailGlow)">
      <animate attributeName="opacity" values="0;1;1;1" dur="3.2s" begin="3.4s" fill="freeze"/>
      <animate attributeName="r" values="5;6;5" dur="1s" begin="3.4s" repeatCount="3"/>
      <animateMotion dur="3s" begin="3.4s" fill="freeze">
        <mpath href="#path_totalContributions_526.6666666666667"/>
      </animateMotion>
    </circle>
    
    <!-- Small trail dots that fade out -->
    <circle r="2" fill="#f59e0b" opacity="0">
      <animate attributeName="opacity" values="0;0.6;0" dur="0.8s" begin="3.8s" fill="freeze"/>
      <animateMotion dur="3s" begin="3.4s" fill="freeze">
        <mpath href="#path_totalContributions_526.6666666666667"/>
      </animateMotion>
    </circle>
    
    <!-- Hidden path for motion animation -->
    <path id="path_totalContributions_526.6666666666667" d="M 30,160 L 30.025534969293176,160 L 30.056141093891597,160 L 31.547920878914034,160 L 31.573706718080967,160 L 31.604868340256992,160 L 33.09784871681813,160 L 33.11931601030109,160 L 33.15008340838978,160 L 34.645948788499126,160 L 34.67099993732149,160 L 34.69176837901327,160 L 36.19209565902016,160 L 36.21596413558052,160 L 36.24615811681491,160 L 37.7364326825948,160 L 37.77232499381883,160 L 37.80484848102382,160 L 39.29125248303717,160 L 39.31791636676225,160 L 39.349149666045065,160 L 40.83980053663559,160 L 40.865873084229676,160 L 40.891049667988916,160 L 42.389710455262986,160 L 42.4120737125808,160 L 42.438110421621495,160 L 43.933635335473596,160 L 43.95913446621338,160 L 43.987841147481916,160 L 45.48435162155236,160 L 45.50657152465659,160 L 45.537356842021985,160 L 47.021538853724905,160 L 47.05513749753172,160 L 47.08608408838738,160 L 48.58119685887545,160 L 48.60993937869738,160 L 48.63914779971344,160 L 50.13030041005149,160 L 50.16024352141211,160 L 50.193931761602414,160 L 51.6736160348544,160 L 51.698756780060236,160 L 51.72753513843557,160 L 53.222217846282916,160 L 53.24092557115455,160 L 53.273843282446876,160 L 54.771536428779314,160 L 54.79413263669419,160 L 54.824864196229484,160 L 56.321428428130005,160 L 56.34406047459828,160 L 56.370957308920424,160 L 57.86705563962683,80.1767955801105 L 57.89001023307564,80.1767955801105 L 57.91946952396546,80.1767955801105 L 59.416768446210554,80.1767955801105 L 59.44058316494083,80.1767955801105 L 59.47378758466031,80.1767955801105 L 60.95614183014014,80.1767955801105 L 60.9894716847965,80.1767955801105 L 61.02210268766167,80.1767955801105 L 62.513864553407416,80.1767955801105 L 62.53137168674035,80.1767955801105 L 62.56122520171749,80.1767955801105 L 64.05929465286057,80.1767955801105 L 64.08379030410532,80.1767955801105 L 64.11600916360646,80.1767955801105 L 65.60121257408112,80.1767955801105 L 65.63335975647547,80.1767955801105 L 65.66208435702072,80.1767955801105 L 67.15631908295063,80.1767955801105 L 67.18160318237005,80.1767955801105 L 67.20936014197366,80.1767955801105 L 68.70234051853478,80.1767955801105 L 68.7271407974834,80.1767955801105 L 68.75220986558244,80.1767955801105 L 68.79193690201961,80.1767955801105 L 70.25615683948212,80.1767955801105 L 70.28231898345969,80.1767955801105 L 70.30952044548569,80.1767955801105 L 71.80332510877489,80.1767955801105 L 71.82941557564567,80.1767955801105 L 71.85792514487053,80.1767955801105 L 73.35076216721811,80.1767955801105 L 73.37477399799204,80.1767955801105 L 73.40217257206169,80.1767955801105 L 74.89443617755495,80.1767955801105 L 74.92328621303706,80.1767955801105 L 76.45353868512788,80.1767955801105 L 76.47106373773752,80.1767955801105 L 76.49887445517122,80.1767955801105 L 77.99405890276607,80.1767955801105 L 78.0187337467778,80.1767955801105 L 78.04923235571604,80.1767955801105 L 79.54190810457331,80.1767955801105 L 79.56599161245404,80.1767955801105 L 79.59306763954315,80.1767955801105 L 81.09283942197244,80.1767955801105 L 81.11867901896946,80.1767955801105 L 81.15105915196088,80.1767955801105 L 82.64267766349306,80.1767955801105 L 82.67052421948014,80.1767955801105 L 82.69722394175861,80.1767955801105 L 84.19348354595529,80.1767955801105 L 84.21061437447759,80.1767955801105 L 84.23962568344999,80.1767955801105 L 85.73633326956408,80.1767955801105 L 85.75873236543529,80.1767955801105 L 85.78442860821875,80.1767955801105 L 87.28423622920141,80.1767955801105 L 87.30511218655339,80.1767955801105 L 87.33677554847692,80.1767955801105 L 88.83178080330481,80.1767955801105 L 88.85468163892354,80.1767955801105 L 88.88453515390069,80.1767955801105 L 90.3770496292677,80.1767955801105 L 90.39910825888165,80.1767955801105 L 90.43159590753326,80.1767955801105 L 91.92430749494395,80.1767955801105 L 91.95668762793537,80.1767955801105 L 91.98974869344127,80.1767955801105 L 93.47778334963404,80.1767955801105 L 93.5015622298109,80.1767955801105 L 93.53146950261814,80.1767955801105 L 95.02561463216459,80.1767955801105 L 95.04905304608421,80.1767955801105 L 95.07896031889146,80.1767955801105 L 96.57457482912704,80.1767955801105 L 96.60536014649243,80.1767955801105 L 96.64173627818727,80.1767955801105 L 98.12321247910894,80.1767955801105 L 98.14557573642676,80.1767955801105 L 98.17417490203512,80.1767955801105 L 99.67308655918295,80.1767955801105 L 99.69206307320503,80.1767955801105 L 99.72200618456567,80.1767955801105 L 101.2162229912189,80.1767955801105 L 101.23855040998332,80.1767955801105 L 101.26705997920818,80.1767955801105 L 101.30607024457748,80.1767955801105 L 102.76855201220039,80.1767955801105 L 102.79835176934743,80.1767955801105 L 102.82793649517413,80.1767955801105 L 104.31296071288182,80.1767955801105 L 104.34025177129129,80.1767955801105 L 104.36876134051616,80.1767955801105 L 105.86385619172755,80.1767955801105 L 105.87919509258013,80.1767955801105 L 105.91519491946434,80.1767955801105 L 107.41043312488931,80.1767955801105 L 107.43587849779898,80.1767955801105 L 107.45679029370436,80.1767955801105 L 108.9598233844925,80.1767955801105 L 108.98387105381981,80.1767955801105 L 109.01313323266595,80.1767955801105 L 110.50889109711513,80.1767955801105 L 110.53458733989856,80.1767955801105 L 110.56275644286619,80.1767955801105 L 112.05573681942732,80.1767955801105 L 112.07614687558518,80.1767955801105 L 112.10766688329514,80.1767955801105 L 113.60675773320993,80.1767955801105 L 113.62879844354723,80.1767955801105 L 113.65970919584949,80.1767955801105 L 115.15389016394931,80.1767955801105 L 115.17956848745607,80.1767955801105 L 115.21049715903501,80.1767955801105 L 116.70121970673235,80.1767955801105 L 116.72600206640425,80.1767955801105 L 116.7445485177856,80.1767955801105 L 118.24641685558844,80.1767955801105 L 118.2814669608077,80.1767955801105 L 118.30513832532439,80.1767955801105 L 119.79799326694865,80.1767955801105 L 119.82205885555268,80.1767955801105 L 121.37209420911695,80.1767955801105 L 121.39850722296829,80.1767955801105 L 122.89089626339842,80.1767955801105 L 122.91411964599769,80.1767955801105 L 122.9417690899411,80.1767955801105 L 124.44258019041881,80.1767955801105 L 124.47146606445432,80.1767955801105 L 124.49902591201426,80.1767955801105 L 125.99082361631339,80.1767955801105 L 126.02051585780026,80.1767955801105 L 126.04949132821925,80.1767955801105 L 127.54171909515911,80.1767955801105 L 127.56942229693263,80.1767955801105 L 127.59325493493958,80.1767955801105 L 129.08557229826295,80.1767955801105 L 129.11390267472086,40 L 129.14298566080004,40 L 130.66216401989212,40 L 130.68807529399595,40 L 132.17752557304777,40 L 132.20537212903486,40 L 132.2240260960764,40 L 133.72960372415548,40 L 133.7573248452057,40 L 133.78563730238693,40 L 135.27489046939507,40 L 135.3037225856005,40 L 135.33916691490708,40 L 136.82947731924037,40 L 136.85972505830486,40 L 136.8812461096179,40 L 138.37666350780984,40 L 138.40087245062745,40 L 138.4305109342842,40 L 139.92743355171868,40 L 139.9823023769648,40 L 141.47137635120598,40 L 141.50105067341616,40 L 141.52839548965574,40 L 143.02128626983338,40 L 143.04936577641752,40 L 143.07868171309377,40 L 144.57013895113568,40 L 144.59877395529742,40 L 144.63099281479856,40 L 146.11764768668564,40 L 146.14778791008996,40 L 146.17875242022234,40 L 147.6685431655314,40 L 147.6981099720814,40 L 147.7262969943257,40 L 149.2189010660762,40 L 149.2401712475155,40 L 149.26961261912862,40 L 150.7616791125782,40 L 150.78904184809448,40 L 150.82075896784812,40 L 152.31060347098727,40 L 152.33780493301327,40 L 152.3677480443739,40 L 153.85897233181873,40 L 153.884740251709,40 L 153.9165111292927,40 L 155.408416349252,40 L 155.43418426914224,40 L 155.4580706649793,40 L 156.9619459617722,40 L 156.98389707572596,40 L 157.01584714607668,40 L 158.50545869861878,40 L 158.5307248787615,40 L 158.55914485160287,40 L 160.05294951489208,40 L 160.0752052565497,40 L 160.10885765818662,40 L 161.59958020588394,40 L 161.6257065113081,40 L 161.657764097319,40 L 163.1460854619389,40 L 163.17045567824678,40 L 163.2051294786554,40 L 164.69020745419317,40 L 164.72169162334976,40 L 164.75401799851107,40 L 166.24388042092693,40 L 166.26902116613277,40 L 166.29851629557598,40 L 167.79418456364166,40 L 167.82133226783756,40 L 167.8543216562367,40 L 169.33979385586179,40 L 169.37151097561542,40 L 169.40656108083468,40 L 170.89108355879486,40 L 170.91520290522897,40 L 170.94675875149233,40 L 172.44036630273786,40 L 172.46278331788577,40 L 172.4944108412559,40 L 173.98518714678332,40 L 174.00991574862513,40 L 174.04088025875748,40 L 175.53398607025548,40 L 175.56206557683964,40 L 177.08468443705755,40 L 177.11048819550118,40 L 177.13494800819254,40 L 178.6336087954666,40 L 178.6633368755069,40 L 178.69713263135736,40 L 180.17199661917786,40 L 180.2082473159358,40 L 180.2391580682381,40 L 181.72656554974648,40 L 181.74597212640927,40 L 181.78276040146818,40 L 183.27529279611187,40 L 183.3028168051184,40 L 183.33333333333334,40" fill="none" stroke="none"/>
  </g>
  
  <!-- Footer -->
  <text x="400" y="580" text-anchor="middle" fill="#64748b" font-size="12" font-family="Arial, sans-serif">
    Generated by GitHub User Rank Tracker • 11/26/2025
    <animate attributeName="opacity" values="0;1" dur="0.5s" begin="5s" fill="freeze"/>
  </text>
</svg>