<svg width="800" height="600" xmlns="http://www.w3.org/2000/svg">
  <defs>
    <linearGradient id="bgGradient" x1="0%" y1="0%" x2="100%" y2="100%">
      <stop offset="0%" style="stop-color:#1e293b;stop-opacity:1" />
      <stop offset="100%" style="stop-color:#0f172a;stop-opacity:1" />
    </linearGradient>
    <filter id="shadow" x="-20%" y="-20%" width="140%" height="140%">
      <feDropShadow dx="2" dy="2" stdDeviation="3" flood-color="#000" flood-opacity="0.3"/>
    </filter>
    <!-- Trail effect filter -->
    <filter id="trailGlow" x="-50%" y="-50%" width="200%" height="200%">
      <feGaussianBlur stdDeviation="3" result="coloredBlur"/>
      <feMerge> 
        <feMergeNode in="coloredBlur"/>
        <feMergeNode in="SourceGraphic"/>
      </feMerge>
    </filter>
  </defs>
  
  <!-- Background -->
  <rect width="800" height="600" fill="url(#bgGradient)" rx="12"/>
  
  <!-- Header -->
  <text x="400" y="40" text-anchor="middle" fill="#f8fafc" font-size="24" font-weight="bold" font-family="Arial, sans-serif">
    GitHub Progress Report
    <animate attributeName="opacity" values="0;1" dur="0.8s" begin="0s" fill="freeze"/>
    <animateTransform attributeName="transform" type="translate" values="0,-20;0,0" dur="0.8s" begin="0s" fill="freeze"/>
  </text>
  
  <!-- User Info -->
  <text x="400" y="70" text-anchor="middle" fill="#cbd5e1" font-size="16" font-family="Arial, sans-serif">
    @maifeeulasad • BANGLADESH • 100 days analyzed
    <animate attributeName="opacity" values="0;1" dur="0.6s" begin="0.3s" fill="freeze"/>
  </text>
  
  <!-- Progress Cards -->
  <!-- Followers Card -->
  <g transform="translate(60, 100)">
    <rect width="206.66666666666666" height="120" fill="#1e293b" stroke="#334155" stroke-width="1" rx="8" filter="url(#shadow)">
      <animate attributeName="opacity" values="0;1" dur="0.6s" begin="0.2s" fill="freeze"/>
      <animateTransform attributeName="transform" type="scale" values="0.8;1" dur="0.6s" begin="0.2s" fill="freeze"/>
    </rect>
    <text x="103.33333333333333" y="25" text-anchor="middle" fill="#94a3b8" font-size="14" font-weight="bold" font-family="Arial, sans-serif">FOLLOWERS
      <animate attributeName="opacity" values="0;1" dur="0.5s" begin="0.4s" fill="freeze"/>
    </text>
    
    <text x="103.33333333333333" y="50" text-anchor="middle" fill="#22c55e" font-size="32" font-weight="bold" font-family="Arial, sans-serif">
      ↗
      <animate attributeName="opacity" values="0;1" dur="0.5s" begin="0.6s" fill="freeze"/>
      <animateTransform attributeName="transform" type="scale" values="0;1.2;1" dur="0.8s" begin="0.6s" fill="freeze"/>
    </text>
    
    <text x="103.33333333333333" y="75" text-anchor="middle" fill="#f8fafc" font-size="18" font-weight="bold" font-family="Arial, sans-serif">
      +1
      <animate attributeName="opacity" values="0;1" dur="0.5s" begin="0.8s" fill="freeze"/>
    </text>
    
    <text x="103.33333333333333" y="95" text-anchor="middle" fill="#94a3b8" font-size="12" font-family="Arial, sans-serif">
      #467 → #466
      <animate attributeName="opacity" values="0;1" dur="0.5s" begin="1s" fill="freeze"/>
    </text>
  </g>
  
  <!-- Public Contributions Card -->
  <g transform="translate(296.66666666666663, 100)">
    <rect width="206.66666666666666" height="120" fill="#1e293b" stroke="#334155" stroke-width="1" rx="8" filter="url(#shadow)">
      <animate attributeName="opacity" values="0;1" dur="0.6s" begin="0.4s" fill="freeze"/>
      <animateTransform attributeName="transform" type="scale" values="0.8;1" dur="0.6s" begin="0.4s" fill="freeze"/>
    </rect>
    <text x="103.33333333333333" y="25" text-anchor="middle" fill="#94a3b8" font-size="14" font-weight="bold" font-family="Arial, sans-serif">PUBLIC
      <animate attributeName="opacity" values="0;1" dur="0.5s" begin="0.6s" fill="freeze"/>
    </text>
    
    <text x="103.33333333333333" y="50" text-anchor="middle" fill="#6b7280" font-size="32" font-weight="bold" font-family="Arial, sans-serif">
      →
      <animate attributeName="opacity" values="0;1" dur="0.5s" begin="0.8s" fill="freeze"/>
      <animateTransform attributeName="transform" type="scale" values="0;1.2;1" dur="0.8s" begin="0.8s" fill="freeze"/>
    </text>
    
    <text x="103.33333333333333" y="75" text-anchor="middle" fill="#f8fafc" font-size="18" font-weight="bold" font-family="Arial, sans-serif">
      0
      <animate attributeName="opacity" values="0;1" dur="0.5s" begin="1s" fill="freeze"/>
    </text>
    
    <text x="103.33333333333333" y="95" text-anchor="middle" fill="#94a3b8" font-size="12" font-family="Arial, sans-serif">
      #7 → #7
      <animate attributeName="opacity" values="0;1" dur="0.5s" begin="1.2s" fill="freeze"/>
    </text>
  </g>
  
  <!-- Total Contributions Card -->
  <g transform="translate(533.3333333333333, 100)">
    <rect width="206.66666666666666" height="120" fill="#1e293b" stroke="#334155" stroke-width="1" rx="8" filter="url(#shadow)">
      <animate attributeName="opacity" values="0;1" dur="0.6s" begin="0.6s" fill="freeze"/>
      <animateTransform attributeName="transform" type="scale" values="0.8;1" dur="0.6s" begin="0.6s" fill="freeze"/>
    </rect>
    <text x="103.33333333333333" y="25" text-anchor="middle" fill="#94a3b8" font-size="14" font-weight="bold" font-family="Arial, sans-serif">TOTAL
      <animate attributeName="opacity" values="0;1" dur="0.5s" begin="0.8s" fill="freeze"/>
    </text>
    
    <text x="103.33333333333333" y="50" text-anchor="middle" fill="#22c55e" font-size="32" font-weight="bold" font-family="Arial, sans-serif">
      ↗
      <animate attributeName="opacity" values="0;1" dur="0.5s" begin="1s" fill="freeze"/>
      <animateTransform attributeName="transform" type="scale" values="0;1.2;1" dur="0.8s" begin="1s" fill="freeze"/>
    </text>
    
    <text x="103.33333333333333" y="75" text-anchor="middle" fill="#f8fafc" font-size="18" font-weight="bold" font-family="Arial, sans-serif">
      +9
      <animate attributeName="opacity" values="0;1" dur="0.5s" begin="1.2s" fill="freeze"/>
    </text>
    
    <text x="103.33333333333333" y="95" text-anchor="middle" fill="#94a3b8" font-size="12" font-family="Arial, sans-serif">
      #24 → #15
      <animate attributeName="opacity" values="0;1" dur="0.5s" begin="1.4s" fill="freeze"/>
    </text>
  </g>
  
  <!-- Timeline Charts (if we have snapshots) -->
  
  <!-- 👥 Followers Count Chart -->
  <g transform="translate(60, 250)">
    <!-- Chart Background -->
    <rect x="0" y="0" width="213.33333333333334" height="200" fill="#0f172a" stroke="#334155" stroke-width="1" rx="8" filter="url(#shadow)">
      <animate attributeName="opacity" values="0;1" dur="0.5s" begin="1.8s" fill="freeze"/>
    </rect>
    
    <!-- Chart Title -->
    <text x="106.66666666666667" y="25" text-anchor="middle" fill="#f8fafc" font-size="14" font-weight="bold" font-family="Arial, sans-serif">
      👥 Followers Count
      <animate attributeName="opacity" values="0;1" dur="0.5s" begin="2s" fill="freeze"/>
    </text>
    
    <!-- Y-axis labels -->
    <text x="10" y="45" fill="#94a3b8" font-size="10" font-family="Arial, sans-serif">150
      <animate attributeName="opacity" values="0;1" dur="0.5s" begin="2.2s" fill="freeze"/>
    </text>
    <text x="10" y="185" fill="#94a3b8" font-size="10" font-family="Arial, sans-serif">143
      <animate attributeName="opacity" values="0;1" dur="0.5s" begin="2.2s" fill="freeze"/>
    </text>
    
    <!-- Chart Line with draw animation that follows the circle -->
    <path d="M 30,160 L 30.026161220664793,160 L 30.05336172269846,160 L 31.54711366672529,160 L 31.57320321281292,160 L 31.60171177587983,160 L 33.09449611311495,160 L 33.118507096464825,160 L 33.1459047035857,160 L 34.6381156442035,160 L 34.66696466151194,160 L 36.197163128026574,160 L 36.214687562143126,160 L 36.24249729808268,160 L 37.73762897771992,160 L 37.76230295090856,160 L 37.79280048349177,160 L 39.285423552928265,160 L 39.30950621085531,160 L 39.336581282378944,160 L 40.836300134954655,160 L 40.86213882002222,160 L 40.89451781025597,160 L 42.3860836796793,160 L 42.41392925290745,160 L 42.44062803290097,160 L 43.93683483119566,160 L 43.953965055137814,160 L 43.98297534024487,160 L 45.47963010464683,160 L 45.502028410010524,160 L 45.52772374592375,160 L 47.027478435788055,160 L 47.048353656387015,160 L 47.08001590084913,160 L 48.57496839404345,160 L 48.597868421447295,160 L 48.62772088283602,160 L 50.1201826844739,160 L 50.14224053559607,160 L 50.174727037695575,160 L 51.66738594442066,160 L 51.699764934654404,160 L 51.73282483337122,160 L 53.22080697393636,160 L 53.244585014910456,160 L 53.27449123223206,160 L 54.768583630500416,160 L 54.792021217232985,160 L 54.82192743455458,160 L 56.317489161654805,160 L 56.348273392546666,160 L 56.384648240457295,160 L 57.86607215721195,160 L 57.88843462528706,160 L 57.91703278157543,160 L 59.41589153922518,160 L 59.4348673835293,160 L 59.46480943813948,160 L 60.958973510985004,160 L 60.981300141771534,160 L 61.00980870483845,160 L 61.04881759345986,160 L 62.5112477472661,160 L 62.54104645272195,160 L 62.57063013444632,160 L 64.05560194277058,160 L 64.0828920380257,160 L 64.11140060109261,160 L 65.60644268750839,160 L 65.62178104702144,160 L 65.65777960340198,160 L 67.15296503897207,160 L 67.17840951386523,160 L 67.19932057175278,160 L 68.70230061758946,160 L 68.7263474382279,160 L 68.75560858435503,160 L 70.25131366060958,160 L 70.27700899652282,160 L 70.30517710534819,160 L 71.79810479173764,160 L 71.81851412758503,160 L 71.85003302289283,160 L 73.3490709669855,160 L 73.37111089946336,160 L 73.40202056086525,160 L 74.8961487964222,160 L 74.92182621369113,160 L 74.95275379373732,160 L 76.44342373094611,160 L 76.4682052160005,160 L 76.48675101284164,160 L 77.98856634679939,160 L 78.02361521503249,160 L 78.04728574414085,160 L 79.54008800002026,160 L 79.56415273930301,160 L 81.11413338911485,160 L 81.14054547079972,160 L 82.63288184192757,160 L 82.65610440492864,160 L 82.68375287306958,160 L 84.18451100701418,160 L 84.21339586161119,160 L 84.24095473653068,160 L 85.73269979239693,160 L 85.76239098598704,160 L 85.79136543380551,160 L 87.28354053713474,160 L 87.31124276120855,160 L 87.33507455811552,160 L 88.8273392546662,160 L 88.8556686312902,57.14285714285715 L 88.88475059097442,57.14285714285715 L 90.40387533531724,57.14285714285715 L 90.42978569496196,57.14285714285715 L 91.9191834084261,57.14285714285715 L 91.94702898165423,57.14285714285715 L 91.96568229036112,57.14285714285715 L 93.47120678368711,57.14285714285715 L 93.4989269264052,57.14285714285715 L 93.52723838438493,57.14285714285715 L 95.01643899276185,57.14285714285715 L 95.04527009142599,57.14285714285715 L 95.0807131698335,57.14285714285715 L 96.57097097822358,57.14285714285715 L 96.60121764978672,57.14285714285715 L 96.62273794158017,57.14285714285715 L 98.11810256359317,57.14285714285715 L 98.14231065203025,57.14285714285715 L 98.1719480896875,57.14285714285715 L 99.66881787782096,57.14285714285715 L 99.72368476663985,57.14285714285715 L 101.21270618857388,57.14285714285715 L 101.24237946351968,57.14285714285715 L 101.26972331470769,57.14285714285715 L 102.76256140787568,57.14285714285715 L 102.7906399234796,57.14285714285715 L 102.81995482553961,57.14285714285715 L 104.31135942716432,57.14285714285715 L 104.33999342074127,57.14285714285715 L 104.3722111431764,57.14285714285715 L 105.85881354813114,57.14285714285715 L 105.88895270782852,57.14285714285715 L 105.91991612516328,57.14285714285715 L 107.40965429286895,57.14285714285715 L 107.43922005594902,57.14285714285715 L 107.4674060834187,57.14285714285715 L 108.95995747827803,57.14285714285715 L 108.98122690905139,57.14285714285715 L 109.01066724162142,57.14285714285715 L 110.50268107715205,57.14285714285715 L 110.53004284698432,57.14285714285715 L 110.56175884737931,57.14285714285715 L 112.05155077101784,57.14285714285715 L 112.07875127305152,57.14285714285715 L 112.10869332766171,57.14285714285715 L 113.59986498691063,57.14285714285715 L 113.62563199740102,57.14285714285715 L 113.65740175372889,57.14285714285715 L 115.14925432146087,57.14285714285715 L 115.17502133195127,57.14285714285715 L 115.19890688479111,57.14285714285715 L 116.70272910690946,57.14285714285715 L 116.72467944616588,57.14285714285715 L 116.75662838893665,57.14285714285715 L 118.2461873701994,57.14285714285715 L 118.27145265864964,57.14285714285715 L 118.29987162849508,57.14285714285715 L 119.79362357252192,57.14285714285715 L 119.81587852873129,57.14285714285715 L 119.84952974270969,57.14285714285715 L 121.34019967991848,57.14285714285715 L 121.3663250632947,57.14285714285715 L 121.39838151793121,57.14285714285715 L 122.886650356805,57.14285714285715 L 122.9110197130407,57.14285714285715 L 122.9456922897437,57.14285714285715 L 124.43071785400083,57.14285714285715 L 124.46220091202004,57.14285714285715 L 124.49452614632092,57.14285714285715 L 125.98433598860375,57.14285714285715 L 126.00947584654396,57.14285714285715 L 126.03896993504686,57.14285714285715 L 127.53458541807996,57.14285714285715 L 127.56173216418075,57.14285714285715 L 127.5947203883204,57.14285714285715 L 129.08014016275195,57.14285714285715 L 129.1118561631469,57.14285714285715 L 129.14690503138002,57.14285714285715 L 130.63137511766416,57.14285714285715 L 130.65549361287975,57.14285714285715 L 130.68704834547611,57.14285714285715 L 132.18060318441576,57.14285714285715 L 132.20301940842376,57.14285714285715 L 132.23464581559728,57.14285714285715 L 133.72536950873894,57.14285714285715 L 133.75009723786047,57.14285714285715 L 133.78106065519523,57.14285714285715 L 135.27411377209472,57.14285714285715 L 135.30219228769863,57.14285714285715 L 136.82475741174534,57.14285714285715 L 136.8505602595243,57.14285714285715 L 136.87501920898146,57.14285714285715 L 138.37362710561115,57.14285714285715 L 138.40335413648984,57.14285714285715 L 138.43714869962258,57.14285714285715 L 139.91196063663386,57.14285714285715 L 139.94821005403446,57.14285714285715 L 139.97911971543635,57.14285714285715 L 141.46647470345133,57.14285714285715 L 141.48588059521842,57.14285714285715 L 141.52266757194775,57.14285714285715 L 143.01514729222993,57.14285714285715 L 143.0426703298608,57.14285714285715 L 143.07318578108834,57.14285714285715 L 144.5656117454376,57.14285714285715 L 144.59161169830378,57.14285714285715 L 144.6191347359347,57.14285714285715 L 146.10967924263343,57.14285714285715 L 146.13935251757925,57.14285714285715 L 146.16877493150503,57.14285714285715 L 147.65693625851307,57.14285714285715 L 147.68413676054672,57.14285714285715 L 147.71481347957285,57.14285714285715 L 149.21017810158588,57.14285714285715 L 149.2407652273905,57.14285714285715 L 149.27375345153018,57.14285714285715 L 150.76089341581365,57.14285714285715 L 150.78402638559328,57.14285714285715 L 150.83514827775537,57.14285714285715 L 152.30978102832375,57.14285714285715 L 152.33330820827774,57.14285714285715 L 152.36287397135783,57.14285714285715 L 153.8527734068621,57.14285714285715 L 153.88040395635875,57.14285714285715 L 153.909611346553,57.14285714285715 L 155.4002454464732,57.14285714285715 L 155.42685463324528,57.14285714285715 L 155.45756718956,57.14285714285715 L 156.94945559458057,57.14285714285715 L 156.97742659831874,57.14285714285715 L 157.00301442236622,57.14285714285715 L 158.4954762240041,57.14285714285715 L 158.52314261078934,57.14285714285715 L 158.55220665182924,57.14285714285715 L 160.05054576879456,57.14285714285715 L 160.07969940305597,57.14285714285715 L 160.11017901699486,57.14285714285715 L 161.5928572388499,57.14285714285715 L 161.6221721409099,40 L 161.65258008027163,40 L 163.1472996310902,40 L 163.16812109575628,40 L 163.19645047238026,40 L 164.68968277572267,40 L 164.70960830817418,40 L 164.74768542729248,40 L 166.24005763570892,40 L 166.26885289708449,40 L 166.2932043346759,40 L 167.78217200067704,40 L 167.81480185193084,40 L 167.84655368961444,40 L 169.33749240648757,40 L 169.35249031175908,40 L 169.39088996647462,40 L 170.88532281898452,40 L 170.91530071088326,40 L 170.9502779045392,40 L 172.4334220111458,40 L 172.45988784876354,40 L 172.49572513734546,40 L 173.978743813442,40 L 174.00875754262933,40 L 174.04205038372194,40 L 175.5303729785286,40 L 175.55223372456356,40 L 175.5832688164755,40 L 177.07418961470435,40 L 177.09909653026878,40 L 177.13122465948248,40 L 178.62526330181797,40 L 178.65464987845513,40 L 178.68029145843548,40 L 180.1722694566775,40 L 180.20509641301854,40 L 180.22801435906666,40 L 181.72244721157654,40 L 181.75133206617357,40 L 181.78458906997759,40 L 183.27111980035517,40 L 183.2993058278248,40 L 183.33333333333334,40" stroke="#22c55e" stroke-width="2" fill="none" stroke-dasharray="14750" stroke-dashoffset="14750">
      <animate attributeName="stroke-dashoffset" values="14750;0" dur="3s" begin="2.6s" fill="freeze"/>
    </path>
    
    <!-- Glow effect for the line that also follows the circle -->
    <path d="M 30,160 L 30.026161220664793,160 L 30.05336172269846,160 L 31.54711366672529,160 L 31.57320321281292,160 L 31.60171177587983,160 L 33.09449611311495,160 L 33.118507096464825,160 L 33.1459047035857,160 L 34.6381156442035,160 L 34.66696466151194,160 L 36.197163128026574,160 L 36.214687562143126,160 L 36.24249729808268,160 L 37.73762897771992,160 L 37.76230295090856,160 L 37.79280048349177,160 L 39.285423552928265,160 L 39.30950621085531,160 L 39.336581282378944,160 L 40.836300134954655,160 L 40.86213882002222,160 L 40.89451781025597,160 L 42.3860836796793,160 L 42.41392925290745,160 L 42.44062803290097,160 L 43.93683483119566,160 L 43.953965055137814,160 L 43.98297534024487,160 L 45.47963010464683,160 L 45.502028410010524,160 L 45.52772374592375,160 L 47.027478435788055,160 L 47.048353656387015,160 L 47.08001590084913,160 L 48.57496839404345,160 L 48.597868421447295,160 L 48.62772088283602,160 L 50.1201826844739,160 L 50.14224053559607,160 L 50.174727037695575,160 L 51.66738594442066,160 L 51.699764934654404,160 L 51.73282483337122,160 L 53.22080697393636,160 L 53.244585014910456,160 L 53.27449123223206,160 L 54.768583630500416,160 L 54.792021217232985,160 L 54.82192743455458,160 L 56.317489161654805,160 L 56.348273392546666,160 L 56.384648240457295,160 L 57.86607215721195,160 L 57.88843462528706,160 L 57.91703278157543,160 L 59.41589153922518,160 L 59.4348673835293,160 L 59.46480943813948,160 L 60.958973510985004,160 L 60.981300141771534,160 L 61.00980870483845,160 L 61.04881759345986,160 L 62.5112477472661,160 L 62.54104645272195,160 L 62.57063013444632,160 L 64.05560194277058,160 L 64.0828920380257,160 L 64.11140060109261,160 L 65.60644268750839,160 L 65.62178104702144,160 L 65.65777960340198,160 L 67.15296503897207,160 L 67.17840951386523,160 L 67.19932057175278,160 L 68.70230061758946,160 L 68.7263474382279,160 L 68.75560858435503,160 L 70.25131366060958,160 L 70.27700899652282,160 L 70.30517710534819,160 L 71.79810479173764,160 L 71.81851412758503,160 L 71.85003302289283,160 L 73.3490709669855,160 L 73.37111089946336,160 L 73.40202056086525,160 L 74.8961487964222,160 L 74.92182621369113,160 L 74.95275379373732,160 L 76.44342373094611,160 L 76.4682052160005,160 L 76.48675101284164,160 L 77.98856634679939,160 L 78.02361521503249,160 L 78.04728574414085,160 L 79.54008800002026,160 L 79.56415273930301,160 L 81.11413338911485,160 L 81.14054547079972,160 L 82.63288184192757,160 L 82.65610440492864,160 L 82.68375287306958,160 L 84.18451100701418,160 L 84.21339586161119,160 L 84.24095473653068,160 L 85.73269979239693,160 L 85.76239098598704,160 L 85.79136543380551,160 L 87.28354053713474,160 L 87.31124276120855,160 L 87.33507455811552,160 L 88.8273392546662,160 L 88.8556686312902,57.14285714285715 L 88.88475059097442,57.14285714285715 L 90.40387533531724,57.14285714285715 L 90.42978569496196,57.14285714285715 L 91.9191834084261,57.14285714285715 L 91.94702898165423,57.14285714285715 L 91.96568229036112,57.14285714285715 L 93.47120678368711,57.14285714285715 L 93.4989269264052,57.14285714285715 L 93.52723838438493,57.14285714285715 L 95.01643899276185,57.14285714285715 L 95.04527009142599,57.14285714285715 L 95.0807131698335,57.14285714285715 L 96.57097097822358,57.14285714285715 L 96.60121764978672,57.14285714285715 L 96.62273794158017,57.14285714285715 L 98.11810256359317,57.14285714285715 L 98.14231065203025,57.14285714285715 L 98.1719480896875,57.14285714285715 L 99.66881787782096,57.14285714285715 L 99.72368476663985,57.14285714285715 L 101.21270618857388,57.14285714285715 L 101.24237946351968,57.14285714285715 L 101.26972331470769,57.14285714285715 L 102.76256140787568,57.14285714285715 L 102.7906399234796,57.14285714285715 L 102.81995482553961,57.14285714285715 L 104.31135942716432,57.14285714285715 L 104.33999342074127,57.14285714285715 L 104.3722111431764,57.14285714285715 L 105.85881354813114,57.14285714285715 L 105.88895270782852,57.14285714285715 L 105.91991612516328,57.14285714285715 L 107.40965429286895,57.14285714285715 L 107.43922005594902,57.14285714285715 L 107.4674060834187,57.14285714285715 L 108.95995747827803,57.14285714285715 L 108.98122690905139,57.14285714285715 L 109.01066724162142,57.14285714285715 L 110.50268107715205,57.14285714285715 L 110.53004284698432,57.14285714285715 L 110.56175884737931,57.14285714285715 L 112.05155077101784,57.14285714285715 L 112.07875127305152,57.14285714285715 L 112.10869332766171,57.14285714285715 L 113.59986498691063,57.14285714285715 L 113.62563199740102,57.14285714285715 L 113.65740175372889,57.14285714285715 L 115.14925432146087,57.14285714285715 L 115.17502133195127,57.14285714285715 L 115.19890688479111,57.14285714285715 L 116.70272910690946,57.14285714285715 L 116.72467944616588,57.14285714285715 L 116.75662838893665,57.14285714285715 L 118.2461873701994,57.14285714285715 L 118.27145265864964,57.14285714285715 L 118.29987162849508,57.14285714285715 L 119.79362357252192,57.14285714285715 L 119.81587852873129,57.14285714285715 L 119.84952974270969,57.14285714285715 L 121.34019967991848,57.14285714285715 L 121.3663250632947,57.14285714285715 L 121.39838151793121,57.14285714285715 L 122.886650356805,57.14285714285715 L 122.9110197130407,57.14285714285715 L 122.9456922897437,57.14285714285715 L 124.43071785400083,57.14285714285715 L 124.46220091202004,57.14285714285715 L 124.49452614632092,57.14285714285715 L 125.98433598860375,57.14285714285715 L 126.00947584654396,57.14285714285715 L 126.03896993504686,57.14285714285715 L 127.53458541807996,57.14285714285715 L 127.56173216418075,57.14285714285715 L 127.5947203883204,57.14285714285715 L 129.08014016275195,57.14285714285715 L 129.1118561631469,57.14285714285715 L 129.14690503138002,57.14285714285715 L 130.63137511766416,57.14285714285715 L 130.65549361287975,57.14285714285715 L 130.68704834547611,57.14285714285715 L 132.18060318441576,57.14285714285715 L 132.20301940842376,57.14285714285715 L 132.23464581559728,57.14285714285715 L 133.72536950873894,57.14285714285715 L 133.75009723786047,57.14285714285715 L 133.78106065519523,57.14285714285715 L 135.27411377209472,57.14285714285715 L 135.30219228769863,57.14285714285715 L 136.82475741174534,57.14285714285715 L 136.8505602595243,57.14285714285715 L 136.87501920898146,57.14285714285715 L 138.37362710561115,57.14285714285715 L 138.40335413648984,57.14285714285715 L 138.43714869962258,57.14285714285715 L 139.91196063663386,57.14285714285715 L 139.94821005403446,57.14285714285715 L 139.97911971543635,57.14285714285715 L 141.46647470345133,57.14285714285715 L 141.48588059521842,57.14285714285715 L 141.52266757194775,57.14285714285715 L 143.01514729222993,57.14285714285715 L 143.0426703298608,57.14285714285715 L 143.07318578108834,57.14285714285715 L 144.5656117454376,57.14285714285715 L 144.59161169830378,57.14285714285715 L 144.6191347359347,57.14285714285715 L 146.10967924263343,57.14285714285715 L 146.13935251757925,57.14285714285715 L 146.16877493150503,57.14285714285715 L 147.65693625851307,57.14285714285715 L 147.68413676054672,57.14285714285715 L 147.71481347957285,57.14285714285715 L 149.21017810158588,57.14285714285715 L 149.2407652273905,57.14285714285715 L 149.27375345153018,57.14285714285715 L 150.76089341581365,57.14285714285715 L 150.78402638559328,57.14285714285715 L 150.83514827775537,57.14285714285715 L 152.30978102832375,57.14285714285715 L 152.33330820827774,57.14285714285715 L 152.36287397135783,57.14285714285715 L 153.8527734068621,57.14285714285715 L 153.88040395635875,57.14285714285715 L 153.909611346553,57.14285714285715 L 155.4002454464732,57.14285714285715 L 155.42685463324528,57.14285714285715 L 155.45756718956,57.14285714285715 L 156.94945559458057,57.14285714285715 L 156.97742659831874,57.14285714285715 L 157.00301442236622,57.14285714285715 L 158.4954762240041,57.14285714285715 L 158.52314261078934,57.14285714285715 L 158.55220665182924,57.14285714285715 L 160.05054576879456,57.14285714285715 L 160.07969940305597,57.14285714285715 L 160.11017901699486,57.14285714285715 L 161.5928572388499,57.14285714285715 L 161.6221721409099,40 L 161.65258008027163,40 L 163.1472996310902,40 L 163.16812109575628,40 L 163.19645047238026,40 L 164.68968277572267,40 L 164.70960830817418,40 L 164.74768542729248,40 L 166.24005763570892,40 L 166.26885289708449,40 L 166.2932043346759,40 L 167.78217200067704,40 L 167.81480185193084,40 L 167.84655368961444,40 L 169.33749240648757,40 L 169.35249031175908,40 L 169.39088996647462,40 L 170.88532281898452,40 L 170.91530071088326,40 L 170.9502779045392,40 L 172.4334220111458,40 L 172.45988784876354,40 L 172.49572513734546,40 L 173.978743813442,40 L 174.00875754262933,40 L 174.04205038372194,40 L 175.5303729785286,40 L 175.55223372456356,40 L 175.5832688164755,40 L 177.07418961470435,40 L 177.09909653026878,40 L 177.13122465948248,40 L 178.62526330181797,40 L 178.65464987845513,40 L 178.68029145843548,40 L 180.1722694566775,40 L 180.20509641301854,40 L 180.22801435906666,40 L 181.72244721157654,40 L 181.75133206617357,40 L 181.78458906997759,40 L 183.27111980035517,40 L 183.2993058278248,40 L 183.33333333333334,40" stroke="#22c55e" stroke-width="4" fill="none" opacity="0.4" stroke-dasharray="14750" stroke-dashoffset="14750">
      <animate attributeName="stroke-dashoffset" values="14750;0" dur="3s" begin="2.6s" fill="freeze"/>
    </path>
    
    <!-- Animated circle that moves along the path and draws the line -->
    <circle r="5" fill="#22c55e" opacity="0" filter="url(#trailGlow)">
      <animate attributeName="opacity" values="0;1;1;1" dur="3.2s" begin="2.4s" fill="freeze"/>
      <animate attributeName="r" values="5;6;5" dur="1s" begin="2.4s" repeatCount="3"/>
      <animateMotion dur="3s" begin="2.4s" fill="freeze">
        <mpath href="#path_followersCount_60"/>
      </animateMotion>
    </circle>
    
    <!-- Small trail dots that fade out -->
    <circle r="2" fill="#22c55e" opacity="0">
      <animate attributeName="opacity" values="0;0.6;0" dur="0.8s" begin="2.8s" fill="freeze"/>
      <animateMotion dur="3s" begin="2.4s" fill="freeze">
        <mpath href="#path_followersCount_60"/>
      </animateMotion>
    </circle>
    
    <!-- Hidden path for motion animation -->
    <path id="path_followersCount_60" d="M 30,160 L 30.026161220664793,160 L 30.05336172269846,160 L 31.54711366672529,160 L 31.57320321281292,160 L 31.60171177587983,160 L 33.09449611311495,160 L 33.118507096464825,160 L 33.1459047035857,160 L 34.6381156442035,160 L 34.66696466151194,160 L 36.197163128026574,160 L 36.214687562143126,160 L 36.24249729808268,160 L 37.73762897771992,160 L 37.76230295090856,160 L 37.79280048349177,160 L 39.285423552928265,160 L 39.30950621085531,160 L 39.336581282378944,160 L 40.836300134954655,160 L 40.86213882002222,160 L 40.89451781025597,160 L 42.3860836796793,160 L 42.41392925290745,160 L 42.44062803290097,160 L 43.93683483119566,160 L 43.953965055137814,160 L 43.98297534024487,160 L 45.47963010464683,160 L 45.502028410010524,160 L 45.52772374592375,160 L 47.027478435788055,160 L 47.048353656387015,160 L 47.08001590084913,160 L 48.57496839404345,160 L 48.597868421447295,160 L 48.62772088283602,160 L 50.1201826844739,160 L 50.14224053559607,160 L 50.174727037695575,160 L 51.66738594442066,160 L 51.699764934654404,160 L 51.73282483337122,160 L 53.22080697393636,160 L 53.244585014910456,160 L 53.27449123223206,160 L 54.768583630500416,160 L 54.792021217232985,160 L 54.82192743455458,160 L 56.317489161654805,160 L 56.348273392546666,160 L 56.384648240457295,160 L 57.86607215721195,160 L 57.88843462528706,160 L 57.91703278157543,160 L 59.41589153922518,160 L 59.4348673835293,160 L 59.46480943813948,160 L 60.958973510985004,160 L 60.981300141771534,160 L 61.00980870483845,160 L 61.04881759345986,160 L 62.5112477472661,160 L 62.54104645272195,160 L 62.57063013444632,160 L 64.05560194277058,160 L 64.0828920380257,160 L 64.11140060109261,160 L 65.60644268750839,160 L 65.62178104702144,160 L 65.65777960340198,160 L 67.15296503897207,160 L 67.17840951386523,160 L 67.19932057175278,160 L 68.70230061758946,160 L 68.7263474382279,160 L 68.75560858435503,160 L 70.25131366060958,160 L 70.27700899652282,160 L 70.30517710534819,160 L 71.79810479173764,160 L 71.81851412758503,160 L 71.85003302289283,160 L 73.3490709669855,160 L 73.37111089946336,160 L 73.40202056086525,160 L 74.8961487964222,160 L 74.92182621369113,160 L 74.95275379373732,160 L 76.44342373094611,160 L 76.4682052160005,160 L 76.48675101284164,160 L 77.98856634679939,160 L 78.02361521503249,160 L 78.04728574414085,160 L 79.54008800002026,160 L 79.56415273930301,160 L 81.11413338911485,160 L 81.14054547079972,160 L 82.63288184192757,160 L 82.65610440492864,160 L 82.68375287306958,160 L 84.18451100701418,160 L 84.21339586161119,160 L 84.24095473653068,160 L 85.73269979239693,160 L 85.76239098598704,160 L 85.79136543380551,160 L 87.28354053713474,160 L 87.31124276120855,160 L 87.33507455811552,160 L 88.8273392546662,160 L 88.8556686312902,57.14285714285715 L 88.88475059097442,57.14285714285715 L 90.40387533531724,57.14285714285715 L 90.42978569496196,57.14285714285715 L 91.9191834084261,57.14285714285715 L 91.94702898165423,57.14285714285715 L 91.96568229036112,57.14285714285715 L 93.47120678368711,57.14285714285715 L 93.4989269264052,57.14285714285715 L 93.52723838438493,57.14285714285715 L 95.01643899276185,57.14285714285715 L 95.04527009142599,57.14285714285715 L 95.0807131698335,57.14285714285715 L 96.57097097822358,57.14285714285715 L 96.60121764978672,57.14285714285715 L 96.62273794158017,57.14285714285715 L 98.11810256359317,57.14285714285715 L 98.14231065203025,57.14285714285715 L 98.1719480896875,57.14285714285715 L 99.66881787782096,57.14285714285715 L 99.72368476663985,57.14285714285715 L 101.21270618857388,57.14285714285715 L 101.24237946351968,57.14285714285715 L 101.26972331470769,57.14285714285715 L 102.76256140787568,57.14285714285715 L 102.7906399234796,57.14285714285715 L 102.81995482553961,57.14285714285715 L 104.31135942716432,57.14285714285715 L 104.33999342074127,57.14285714285715 L 104.3722111431764,57.14285714285715 L 105.85881354813114,57.14285714285715 L 105.88895270782852,57.14285714285715 L 105.91991612516328,57.14285714285715 L 107.40965429286895,57.14285714285715 L 107.43922005594902,57.14285714285715 L 107.4674060834187,57.14285714285715 L 108.95995747827803,57.14285714285715 L 108.98122690905139,57.14285714285715 L 109.01066724162142,57.14285714285715 L 110.50268107715205,57.14285714285715 L 110.53004284698432,57.14285714285715 L 110.56175884737931,57.14285714285715 L 112.05155077101784,57.14285714285715 L 112.07875127305152,57.14285714285715 L 112.10869332766171,57.14285714285715 L 113.59986498691063,57.14285714285715 L 113.62563199740102,57.14285714285715 L 113.65740175372889,57.14285714285715 L 115.14925432146087,57.14285714285715 L 115.17502133195127,57.14285714285715 L 115.19890688479111,57.14285714285715 L 116.70272910690946,57.14285714285715 L 116.72467944616588,57.14285714285715 L 116.75662838893665,57.14285714285715 L 118.2461873701994,57.14285714285715 L 118.27145265864964,57.14285714285715 L 118.29987162849508,57.14285714285715 L 119.79362357252192,57.14285714285715 L 119.81587852873129,57.14285714285715 L 119.84952974270969,57.14285714285715 L 121.34019967991848,57.14285714285715 L 121.3663250632947,57.14285714285715 L 121.39838151793121,57.14285714285715 L 122.886650356805,57.14285714285715 L 122.9110197130407,57.14285714285715 L 122.9456922897437,57.14285714285715 L 124.43071785400083,57.14285714285715 L 124.46220091202004,57.14285714285715 L 124.49452614632092,57.14285714285715 L 125.98433598860375,57.14285714285715 L 126.00947584654396,57.14285714285715 L 126.03896993504686,57.14285714285715 L 127.53458541807996,57.14285714285715 L 127.56173216418075,57.14285714285715 L 127.5947203883204,57.14285714285715 L 129.08014016275195,57.14285714285715 L 129.1118561631469,57.14285714285715 L 129.14690503138002,57.14285714285715 L 130.63137511766416,57.14285714285715 L 130.65549361287975,57.14285714285715 L 130.68704834547611,57.14285714285715 L 132.18060318441576,57.14285714285715 L 132.20301940842376,57.14285714285715 L 132.23464581559728,57.14285714285715 L 133.72536950873894,57.14285714285715 L 133.75009723786047,57.14285714285715 L 133.78106065519523,57.14285714285715 L 135.27411377209472,57.14285714285715 L 135.30219228769863,57.14285714285715 L 136.82475741174534,57.14285714285715 L 136.8505602595243,57.14285714285715 L 136.87501920898146,57.14285714285715 L 138.37362710561115,57.14285714285715 L 138.40335413648984,57.14285714285715 L 138.43714869962258,57.14285714285715 L 139.91196063663386,57.14285714285715 L 139.94821005403446,57.14285714285715 L 139.97911971543635,57.14285714285715 L 141.46647470345133,57.14285714285715 L 141.48588059521842,57.14285714285715 L 141.52266757194775,57.14285714285715 L 143.01514729222993,57.14285714285715 L 143.0426703298608,57.14285714285715 L 143.07318578108834,57.14285714285715 L 144.5656117454376,57.14285714285715 L 144.59161169830378,57.14285714285715 L 144.6191347359347,57.14285714285715 L 146.10967924263343,57.14285714285715 L 146.13935251757925,57.14285714285715 L 146.16877493150503,57.14285714285715 L 147.65693625851307,57.14285714285715 L 147.68413676054672,57.14285714285715 L 147.71481347957285,57.14285714285715 L 149.21017810158588,57.14285714285715 L 149.2407652273905,57.14285714285715 L 149.27375345153018,57.14285714285715 L 150.76089341581365,57.14285714285715 L 150.78402638559328,57.14285714285715 L 150.83514827775537,57.14285714285715 L 152.30978102832375,57.14285714285715 L 152.33330820827774,57.14285714285715 L 152.36287397135783,57.14285714285715 L 153.8527734068621,57.14285714285715 L 153.88040395635875,57.14285714285715 L 153.909611346553,57.14285714285715 L 155.4002454464732,57.14285714285715 L 155.42685463324528,57.14285714285715 L 155.45756718956,57.14285714285715 L 156.94945559458057,57.14285714285715 L 156.97742659831874,57.14285714285715 L 157.00301442236622,57.14285714285715 L 158.4954762240041,57.14285714285715 L 158.52314261078934,57.14285714285715 L 158.55220665182924,57.14285714285715 L 160.05054576879456,57.14285714285715 L 160.07969940305597,57.14285714285715 L 160.11017901699486,57.14285714285715 L 161.5928572388499,57.14285714285715 L 161.6221721409099,40 L 161.65258008027163,40 L 163.1472996310902,40 L 163.16812109575628,40 L 163.19645047238026,40 L 164.68968277572267,40 L 164.70960830817418,40 L 164.74768542729248,40 L 166.24005763570892,40 L 166.26885289708449,40 L 166.2932043346759,40 L 167.78217200067704,40 L 167.81480185193084,40 L 167.84655368961444,40 L 169.33749240648757,40 L 169.35249031175908,40 L 169.39088996647462,40 L 170.88532281898452,40 L 170.91530071088326,40 L 170.9502779045392,40 L 172.4334220111458,40 L 172.45988784876354,40 L 172.49572513734546,40 L 173.978743813442,40 L 174.00875754262933,40 L 174.04205038372194,40 L 175.5303729785286,40 L 175.55223372456356,40 L 175.5832688164755,40 L 177.07418961470435,40 L 177.09909653026878,40 L 177.13122465948248,40 L 178.62526330181797,40 L 178.65464987845513,40 L 178.68029145843548,40 L 180.1722694566775,40 L 180.20509641301854,40 L 180.22801435906666,40 L 181.72244721157654,40 L 181.75133206617357,40 L 181.78458906997759,40 L 183.27111980035517,40 L 183.2993058278248,40 L 183.33333333333334,40" fill="none" stroke="none"/>
  </g>
  <!-- 🔓 Public Contributions Chart -->
  <g transform="translate(293.33333333333337, 250)">
    <!-- Chart Background -->
    <rect x="0" y="0" width="213.33333333333334" height="200" fill="#0f172a" stroke="#334155" stroke-width="1" rx="8" filter="url(#shadow)">
      <animate attributeName="opacity" values="0;1" dur="0.5s" begin="2.3s" fill="freeze"/>
    </rect>
    
    <!-- Chart Title -->
    <text x="106.66666666666667" y="25" text-anchor="middle" fill="#f8fafc" font-size="14" font-weight="bold" font-family="Arial, sans-serif">
      🔓 Public Contributions
      <animate attributeName="opacity" values="0;1" dur="0.5s" begin="2.5s" fill="freeze"/>
    </text>
    
    <!-- Y-axis labels -->
    <text x="10" y="45" fill="#94a3b8" font-size="10" font-family="Arial, sans-serif">3,434
      <animate attributeName="opacity" values="0;1" dur="0.5s" begin="2.6999999999999997s" fill="freeze"/>
    </text>
    <text x="10" y="185" fill="#94a3b8" font-size="10" font-family="Arial, sans-serif">2,669
      <animate attributeName="opacity" values="0;1" dur="0.5s" begin="2.6999999999999997s" fill="freeze"/>
    </text>
    
    <!-- Chart Line with draw animation that follows the circle -->
    <path d="M 30,160 L 30.026161220664793,160 L 30.05336172269846,160 L 31.54711366672529,160 L 31.57320321281292,160 L 31.60171177587983,160 L 33.09449611311495,160 L 33.118507096464825,160 L 33.1459047035857,160 L 34.6381156442035,160 L 34.66696466151194,160 L 36.197163128026574,160 L 36.214687562143126,160 L 36.24249729808268,160 L 37.73762897771992,160 L 37.76230295090856,160 L 37.79280048349177,160 L 39.285423552928265,160 L 39.30950621085531,160 L 39.336581282378944,160 L 40.836300134954655,160 L 40.86213882002222,160 L 40.89451781025597,160 L 42.3860836796793,160 L 42.41392925290745,160 L 42.44062803290097,160 L 43.93683483119566,160 L 43.953965055137814,160 L 43.98297534024487,160 L 45.47963010464683,160 L 45.502028410010524,160 L 45.52772374592375,160 L 47.027478435788055,160 L 47.048353656387015,160 L 47.08001590084913,160 L 48.57496839404345,160 L 48.597868421447295,160 L 48.62772088283602,160 L 50.1201826844739,160 L 50.14224053559607,160 L 50.174727037695575,160 L 51.66738594442066,160 L 51.699764934654404,160 L 51.73282483337122,160 L 53.22080697393636,160 L 53.244585014910456,160 L 53.27449123223206,160 L 54.768583630500416,160 L 54.792021217232985,160 L 54.82192743455458,160 L 56.317489161654805,160 L 56.348273392546666,160 L 56.384648240457295,160 L 57.86607215721195,160 L 57.88843462528706,160 L 57.91703278157543,160 L 59.41589153922518,160 L 59.4348673835293,160 L 59.46480943813948,160 L 60.958973510985004,160 L 60.981300141771534,160 L 61.00980870483845,160 L 61.04881759345986,160 L 62.5112477472661,160 L 62.54104645272195,160 L 62.57063013444632,160 L 64.05560194277058,160 L 64.0828920380257,160 L 64.11140060109261,160 L 65.60644268750839,160 L 65.62178104702144,160 L 65.65777960340198,160 L 67.15296503897207,160 L 67.17840951386523,160 L 67.19932057175278,160 L 68.70230061758946,160 L 68.7263474382279,160 L 68.75560858435503,160 L 70.25131366060958,160 L 70.27700899652282,160 L 70.30517710534819,160 L 71.79810479173764,160 L 71.81851412758503,160 L 71.85003302289283,160 L 73.3490709669855,160 L 73.37111089946336,160 L 73.40202056086525,160 L 74.8961487964222,160 L 74.92182621369113,160 L 74.95275379373732,160 L 76.44342373094611,160 L 76.4682052160005,160 L 76.48675101284164,160 L 77.98856634679939,160 L 78.02361521503249,160 L 78.04728574414085,160 L 79.54008800002026,160 L 79.56415273930301,160 L 81.11413338911485,160 L 81.14054547079972,160 L 82.63288184192757,160 L 82.65610440492864,160 L 82.68375287306958,160 L 84.18451100701418,160 L 84.21339586161119,160 L 84.24095473653068,160 L 85.73269979239693,160 L 85.76239098598704,160 L 85.79136543380551,160 L 87.28354053713474,160 L 87.31124276120855,160 L 87.33507455811552,160 L 88.8273392546662,160 L 88.8556686312902,79.84313725490196 L 88.88475059097442,79.84313725490196 L 90.40387533531724,79.84313725490196 L 90.42978569496196,79.84313725490196 L 91.9191834084261,79.84313725490196 L 91.94702898165423,79.84313725490196 L 91.96568229036112,79.84313725490196 L 93.47120678368711,79.84313725490196 L 93.4989269264052,79.84313725490196 L 93.52723838438493,79.84313725490196 L 95.01643899276185,79.84313725490196 L 95.04527009142599,79.84313725490196 L 95.0807131698335,79.84313725490196 L 96.57097097822358,79.84313725490196 L 96.60121764978672,79.84313725490196 L 96.62273794158017,79.84313725490196 L 98.11810256359317,79.84313725490196 L 98.14231065203025,79.84313725490196 L 98.1719480896875,79.84313725490196 L 99.66881787782096,79.84313725490196 L 99.72368476663985,79.84313725490196 L 101.21270618857388,79.84313725490196 L 101.24237946351968,79.84313725490196 L 101.26972331470769,79.84313725490196 L 102.76256140787568,79.84313725490196 L 102.7906399234796,79.84313725490196 L 102.81995482553961,79.84313725490196 L 104.31135942716432,79.84313725490196 L 104.33999342074127,79.84313725490196 L 104.3722111431764,79.84313725490196 L 105.85881354813114,79.84313725490196 L 105.88895270782852,79.84313725490196 L 105.91991612516328,79.84313725490196 L 107.40965429286895,79.84313725490196 L 107.43922005594902,79.84313725490196 L 107.4674060834187,79.84313725490196 L 108.95995747827803,79.84313725490196 L 108.98122690905139,79.84313725490196 L 109.01066724162142,79.84313725490196 L 110.50268107715205,79.84313725490196 L 110.53004284698432,79.84313725490196 L 110.56175884737931,79.84313725490196 L 112.05155077101784,79.84313725490196 L 112.07875127305152,79.84313725490196 L 112.10869332766171,79.84313725490196 L 113.59986498691063,79.84313725490196 L 113.62563199740102,79.84313725490196 L 113.65740175372889,79.84313725490196 L 115.14925432146087,79.84313725490196 L 115.17502133195127,79.84313725490196 L 115.19890688479111,79.84313725490196 L 116.70272910690946,79.84313725490196 L 116.72467944616588,79.84313725490196 L 116.75662838893665,79.84313725490196 L 118.2461873701994,79.84313725490196 L 118.27145265864964,79.84313725490196 L 118.29987162849508,79.84313725490196 L 119.79362357252192,79.84313725490196 L 119.81587852873129,79.84313725490196 L 119.84952974270969,79.84313725490196 L 121.34019967991848,79.84313725490196 L 121.3663250632947,79.84313725490196 L 121.39838151793121,79.84313725490196 L 122.886650356805,79.84313725490196 L 122.9110197130407,79.84313725490196 L 122.9456922897437,79.84313725490196 L 124.43071785400083,79.84313725490196 L 124.46220091202004,79.84313725490196 L 124.49452614632092,79.84313725490196 L 125.98433598860375,79.84313725490196 L 126.00947584654396,79.84313725490196 L 126.03896993504686,79.84313725490196 L 127.53458541807996,79.84313725490196 L 127.56173216418075,79.84313725490196 L 127.5947203883204,79.84313725490196 L 129.08014016275195,79.84313725490196 L 129.1118561631469,79.84313725490196 L 129.14690503138002,79.84313725490196 L 130.63137511766416,79.84313725490196 L 130.65549361287975,79.84313725490196 L 130.68704834547611,79.84313725490196 L 132.18060318441576,79.84313725490196 L 132.20301940842376,79.84313725490196 L 132.23464581559728,79.84313725490196 L 133.72536950873894,79.84313725490196 L 133.75009723786047,79.84313725490196 L 133.78106065519523,79.84313725490196 L 135.27411377209472,79.84313725490196 L 135.30219228769863,79.84313725490196 L 136.82475741174534,79.84313725490196 L 136.8505602595243,79.84313725490196 L 136.87501920898146,79.84313725490196 L 138.37362710561115,79.84313725490196 L 138.40335413648984,79.84313725490196 L 138.43714869962258,79.84313725490196 L 139.91196063663386,79.84313725490196 L 139.94821005403446,79.84313725490196 L 139.97911971543635,79.84313725490196 L 141.46647470345133,79.84313725490196 L 141.48588059521842,79.84313725490196 L 141.52266757194775,79.84313725490196 L 143.01514729222993,79.84313725490196 L 143.0426703298608,79.84313725490196 L 143.07318578108834,79.84313725490196 L 144.5656117454376,79.84313725490196 L 144.59161169830378,79.84313725490196 L 144.6191347359347,79.84313725490196 L 146.10967924263343,79.84313725490196 L 146.13935251757925,79.84313725490196 L 146.16877493150503,79.84313725490196 L 147.65693625851307,79.84313725490196 L 147.68413676054672,79.84313725490196 L 147.71481347957285,79.84313725490196 L 149.21017810158588,79.84313725490196 L 149.2407652273905,79.84313725490196 L 149.27375345153018,79.84313725490196 L 150.76089341581365,79.84313725490196 L 150.78402638559328,79.84313725490196 L 150.83514827775537,79.84313725490196 L 152.30978102832375,79.84313725490196 L 152.33330820827774,79.84313725490196 L 152.36287397135783,79.84313725490196 L 153.8527734068621,79.84313725490196 L 153.88040395635875,79.84313725490196 L 153.909611346553,79.84313725490196 L 155.4002454464732,79.84313725490196 L 155.42685463324528,79.84313725490196 L 155.45756718956,79.84313725490196 L 156.94945559458057,79.84313725490196 L 156.97742659831874,79.84313725490196 L 157.00301442236622,79.84313725490196 L 158.4954762240041,79.84313725490196 L 158.52314261078934,79.84313725490196 L 158.55220665182924,79.84313725490196 L 160.05054576879456,79.84313725490196 L 160.07969940305597,79.84313725490196 L 160.11017901699486,79.84313725490196 L 161.5928572388499,79.84313725490196 L 161.6221721409099,40 L 161.65258008027163,40 L 163.1472996310902,40 L 163.16812109575628,40 L 163.19645047238026,40 L 164.68968277572267,40 L 164.70960830817418,40 L 164.74768542729248,40 L 166.24005763570892,40 L 166.26885289708449,40 L 166.2932043346759,40 L 167.78217200067704,40 L 167.81480185193084,40 L 167.84655368961444,40 L 169.33749240648757,40 L 169.35249031175908,40 L 169.39088996647462,40 L 170.88532281898452,40 L 170.91530071088326,40 L 170.9502779045392,40 L 172.4334220111458,40 L 172.45988784876354,40 L 172.49572513734546,40 L 173.978743813442,40 L 174.00875754262933,40 L 174.04205038372194,40 L 175.5303729785286,40 L 175.55223372456356,40 L 175.5832688164755,40 L 177.07418961470435,40 L 177.09909653026878,40 L 177.13122465948248,40 L 178.62526330181797,40 L 178.65464987845513,40 L 178.68029145843548,40 L 180.1722694566775,40 L 180.20509641301854,40 L 180.22801435906666,40 L 181.72244721157654,40 L 181.75133206617357,40 L 181.78458906997759,40 L 183.27111980035517,40 L 183.2993058278248,40 L 183.33333333333334,40" stroke="#3b82f6" stroke-width="2" fill="none" stroke-dasharray="14750" stroke-dashoffset="14750">
      <animate attributeName="stroke-dashoffset" values="14750;0" dur="3s" begin="3.0999999999999996s" fill="freeze"/>
    </path>
    
    <!-- Glow effect for the line that also follows the circle -->
    <path d="M 30,160 L 30.026161220664793,160 L 30.05336172269846,160 L 31.54711366672529,160 L 31.57320321281292,160 L 31.60171177587983,160 L 33.09449611311495,160 L 33.118507096464825,160 L 33.1459047035857,160 L 34.6381156442035,160 L 34.66696466151194,160 L 36.197163128026574,160 L 36.214687562143126,160 L 36.24249729808268,160 L 37.73762897771992,160 L 37.76230295090856,160 L 37.79280048349177,160 L 39.285423552928265,160 L 39.30950621085531,160 L 39.336581282378944,160 L 40.836300134954655,160 L 40.86213882002222,160 L 40.89451781025597,160 L 42.3860836796793,160 L 42.41392925290745,160 L 42.44062803290097,160 L 43.93683483119566,160 L 43.953965055137814,160 L 43.98297534024487,160 L 45.47963010464683,160 L 45.502028410010524,160 L 45.52772374592375,160 L 47.027478435788055,160 L 47.048353656387015,160 L 47.08001590084913,160 L 48.57496839404345,160 L 48.597868421447295,160 L 48.62772088283602,160 L 50.1201826844739,160 L 50.14224053559607,160 L 50.174727037695575,160 L 51.66738594442066,160 L 51.699764934654404,160 L 51.73282483337122,160 L 53.22080697393636,160 L 53.244585014910456,160 L 53.27449123223206,160 L 54.768583630500416,160 L 54.792021217232985,160 L 54.82192743455458,160 L 56.317489161654805,160 L 56.348273392546666,160 L 56.384648240457295,160 L 57.86607215721195,160 L 57.88843462528706,160 L 57.91703278157543,160 L 59.41589153922518,160 L 59.4348673835293,160 L 59.46480943813948,160 L 60.958973510985004,160 L 60.981300141771534,160 L 61.00980870483845,160 L 61.04881759345986,160 L 62.5112477472661,160 L 62.54104645272195,160 L 62.57063013444632,160 L 64.05560194277058,160 L 64.0828920380257,160 L 64.11140060109261,160 L 65.60644268750839,160 L 65.62178104702144,160 L 65.65777960340198,160 L 67.15296503897207,160 L 67.17840951386523,160 L 67.19932057175278,160 L 68.70230061758946,160 L 68.7263474382279,160 L 68.75560858435503,160 L 70.25131366060958,160 L 70.27700899652282,160 L 70.30517710534819,160 L 71.79810479173764,160 L 71.81851412758503,160 L 71.85003302289283,160 L 73.3490709669855,160 L 73.37111089946336,160 L 73.40202056086525,160 L 74.8961487964222,160 L 74.92182621369113,160 L 74.95275379373732,160 L 76.44342373094611,160 L 76.4682052160005,160 L 76.48675101284164,160 L 77.98856634679939,160 L 78.02361521503249,160 L 78.04728574414085,160 L 79.54008800002026,160 L 79.56415273930301,160 L 81.11413338911485,160 L 81.14054547079972,160 L 82.63288184192757,160 L 82.65610440492864,160 L 82.68375287306958,160 L 84.18451100701418,160 L 84.21339586161119,160 L 84.24095473653068,160 L 85.73269979239693,160 L 85.76239098598704,160 L 85.79136543380551,160 L 87.28354053713474,160 L 87.31124276120855,160 L 87.33507455811552,160 L 88.8273392546662,160 L 88.8556686312902,79.84313725490196 L 88.88475059097442,79.84313725490196 L 90.40387533531724,79.84313725490196 L 90.42978569496196,79.84313725490196 L 91.9191834084261,79.84313725490196 L 91.94702898165423,79.84313725490196 L 91.96568229036112,79.84313725490196 L 93.47120678368711,79.84313725490196 L 93.4989269264052,79.84313725490196 L 93.52723838438493,79.84313725490196 L 95.01643899276185,79.84313725490196 L 95.04527009142599,79.84313725490196 L 95.0807131698335,79.84313725490196 L 96.57097097822358,79.84313725490196 L 96.60121764978672,79.84313725490196 L 96.62273794158017,79.84313725490196 L 98.11810256359317,79.84313725490196 L 98.14231065203025,79.84313725490196 L 98.1719480896875,79.84313725490196 L 99.66881787782096,79.84313725490196 L 99.72368476663985,79.84313725490196 L 101.21270618857388,79.84313725490196 L 101.24237946351968,79.84313725490196 L 101.26972331470769,79.84313725490196 L 102.76256140787568,79.84313725490196 L 102.7906399234796,79.84313725490196 L 102.81995482553961,79.84313725490196 L 104.31135942716432,79.84313725490196 L 104.33999342074127,79.84313725490196 L 104.3722111431764,79.84313725490196 L 105.85881354813114,79.84313725490196 L 105.88895270782852,79.84313725490196 L 105.91991612516328,79.84313725490196 L 107.40965429286895,79.84313725490196 L 107.43922005594902,79.84313725490196 L 107.4674060834187,79.84313725490196 L 108.95995747827803,79.84313725490196 L 108.98122690905139,79.84313725490196 L 109.01066724162142,79.84313725490196 L 110.50268107715205,79.84313725490196 L 110.53004284698432,79.84313725490196 L 110.56175884737931,79.84313725490196 L 112.05155077101784,79.84313725490196 L 112.07875127305152,79.84313725490196 L 112.10869332766171,79.84313725490196 L 113.59986498691063,79.84313725490196 L 113.62563199740102,79.84313725490196 L 113.65740175372889,79.84313725490196 L 115.14925432146087,79.84313725490196 L 115.17502133195127,79.84313725490196 L 115.19890688479111,79.84313725490196 L 116.70272910690946,79.84313725490196 L 116.72467944616588,79.84313725490196 L 116.75662838893665,79.84313725490196 L 118.2461873701994,79.84313725490196 L 118.27145265864964,79.84313725490196 L 118.29987162849508,79.84313725490196 L 119.79362357252192,79.84313725490196 L 119.81587852873129,79.84313725490196 L 119.84952974270969,79.84313725490196 L 121.34019967991848,79.84313725490196 L 121.3663250632947,79.84313725490196 L 121.39838151793121,79.84313725490196 L 122.886650356805,79.84313725490196 L 122.9110197130407,79.84313725490196 L 122.9456922897437,79.84313725490196 L 124.43071785400083,79.84313725490196 L 124.46220091202004,79.84313725490196 L 124.49452614632092,79.84313725490196 L 125.98433598860375,79.84313725490196 L 126.00947584654396,79.84313725490196 L 126.03896993504686,79.84313725490196 L 127.53458541807996,79.84313725490196 L 127.56173216418075,79.84313725490196 L 127.5947203883204,79.84313725490196 L 129.08014016275195,79.84313725490196 L 129.1118561631469,79.84313725490196 L 129.14690503138002,79.84313725490196 L 130.63137511766416,79.84313725490196 L 130.65549361287975,79.84313725490196 L 130.68704834547611,79.84313725490196 L 132.18060318441576,79.84313725490196 L 132.20301940842376,79.84313725490196 L 132.23464581559728,79.84313725490196 L 133.72536950873894,79.84313725490196 L 133.75009723786047,79.84313725490196 L 133.78106065519523,79.84313725490196 L 135.27411377209472,79.84313725490196 L 135.30219228769863,79.84313725490196 L 136.82475741174534,79.84313725490196 L 136.8505602595243,79.84313725490196 L 136.87501920898146,79.84313725490196 L 138.37362710561115,79.84313725490196 L 138.40335413648984,79.84313725490196 L 138.43714869962258,79.84313725490196 L 139.91196063663386,79.84313725490196 L 139.94821005403446,79.84313725490196 L 139.97911971543635,79.84313725490196 L 141.46647470345133,79.84313725490196 L 141.48588059521842,79.84313725490196 L 141.52266757194775,79.84313725490196 L 143.01514729222993,79.84313725490196 L 143.0426703298608,79.84313725490196 L 143.07318578108834,79.84313725490196 L 144.5656117454376,79.84313725490196 L 144.59161169830378,79.84313725490196 L 144.6191347359347,79.84313725490196 L 146.10967924263343,79.84313725490196 L 146.13935251757925,79.84313725490196 L 146.16877493150503,79.84313725490196 L 147.65693625851307,79.84313725490196 L 147.68413676054672,79.84313725490196 L 147.71481347957285,79.84313725490196 L 149.21017810158588,79.84313725490196 L 149.2407652273905,79.84313725490196 L 149.27375345153018,79.84313725490196 L 150.76089341581365,79.84313725490196 L 150.78402638559328,79.84313725490196 L 150.83514827775537,79.84313725490196 L 152.30978102832375,79.84313725490196 L 152.33330820827774,79.84313725490196 L 152.36287397135783,79.84313725490196 L 153.8527734068621,79.84313725490196 L 153.88040395635875,79.84313725490196 L 153.909611346553,79.84313725490196 L 155.4002454464732,79.84313725490196 L 155.42685463324528,79.84313725490196 L 155.45756718956,79.84313725490196 L 156.94945559458057,79.84313725490196 L 156.97742659831874,79.84313725490196 L 157.00301442236622,79.84313725490196 L 158.4954762240041,79.84313725490196 L 158.52314261078934,79.84313725490196 L 158.55220665182924,79.84313725490196 L 160.05054576879456,79.84313725490196 L 160.07969940305597,79.84313725490196 L 160.11017901699486,79.84313725490196 L 161.5928572388499,79.84313725490196 L 161.6221721409099,40 L 161.65258008027163,40 L 163.1472996310902,40 L 163.16812109575628,40 L 163.19645047238026,40 L 164.68968277572267,40 L 164.70960830817418,40 L 164.74768542729248,40 L 166.24005763570892,40 L 166.26885289708449,40 L 166.2932043346759,40 L 167.78217200067704,40 L 167.81480185193084,40 L 167.84655368961444,40 L 169.33749240648757,40 L 169.35249031175908,40 L 169.39088996647462,40 L 170.88532281898452,40 L 170.91530071088326,40 L 170.9502779045392,40 L 172.4334220111458,40 L 172.45988784876354,40 L 172.49572513734546,40 L 173.978743813442,40 L 174.00875754262933,40 L 174.04205038372194,40 L 175.5303729785286,40 L 175.55223372456356,40 L 175.5832688164755,40 L 177.07418961470435,40 L 177.09909653026878,40 L 177.13122465948248,40 L 178.62526330181797,40 L 178.65464987845513,40 L 178.68029145843548,40 L 180.1722694566775,40 L 180.20509641301854,40 L 180.22801435906666,40 L 181.72244721157654,40 L 181.75133206617357,40 L 181.78458906997759,40 L 183.27111980035517,40 L 183.2993058278248,40 L 183.33333333333334,40" stroke="#3b82f6" stroke-width="4" fill="none" opacity="0.4" stroke-dasharray="14750" stroke-dashoffset="14750">
      <animate attributeName="stroke-dashoffset" values="14750;0" dur="3s" begin="3.0999999999999996s" fill="freeze"/>
    </path>
    
    <!-- Animated circle that moves along the path and draws the line -->
    <circle r="5" fill="#3b82f6" opacity="0" filter="url(#trailGlow)">
      <animate attributeName="opacity" values="0;1;1;1" dur="3.2s" begin="2.9s" fill="freeze"/>
      <animate attributeName="r" values="5;6;5" dur="1s" begin="2.9s" repeatCount="3"/>
      <animateMotion dur="3s" begin="2.9s" fill="freeze">
        <mpath href="#path_publicContributions_293.33333333333337"/>
      </animateMotion>
    </circle>
    
    <!-- Small trail dots that fade out -->
    <circle r="2" fill="#3b82f6" opacity="0">
      <animate attributeName="opacity" values="0;0.6;0" dur="0.8s" begin="3.3s" fill="freeze"/>
      <animateMotion dur="3s" begin="2.9s" fill="freeze">
        <mpath href="#path_publicContributions_293.33333333333337"/>
      </animateMotion>
    </circle>
    
    <!-- Hidden path for motion animation -->
    <path id="path_publicContributions_293.33333333333337" d="M 30,160 L 30.026161220664793,160 L 30.05336172269846,160 L 31.54711366672529,160 L 31.57320321281292,160 L 31.60171177587983,160 L 33.09449611311495,160 L 33.118507096464825,160 L 33.1459047035857,160 L 34.6381156442035,160 L 34.66696466151194,160 L 36.197163128026574,160 L 36.214687562143126,160 L 36.24249729808268,160 L 37.73762897771992,160 L 37.76230295090856,160 L 37.79280048349177,160 L 39.285423552928265,160 L 39.30950621085531,160 L 39.336581282378944,160 L 40.836300134954655,160 L 40.86213882002222,160 L 40.89451781025597,160 L 42.3860836796793,160 L 42.41392925290745,160 L 42.44062803290097,160 L 43.93683483119566,160 L 43.953965055137814,160 L 43.98297534024487,160 L 45.47963010464683,160 L 45.502028410010524,160 L 45.52772374592375,160 L 47.027478435788055,160 L 47.048353656387015,160 L 47.08001590084913,160 L 48.57496839404345,160 L 48.597868421447295,160 L 48.62772088283602,160 L 50.1201826844739,160 L 50.14224053559607,160 L 50.174727037695575,160 L 51.66738594442066,160 L 51.699764934654404,160 L 51.73282483337122,160 L 53.22080697393636,160 L 53.244585014910456,160 L 53.27449123223206,160 L 54.768583630500416,160 L 54.792021217232985,160 L 54.82192743455458,160 L 56.317489161654805,160 L 56.348273392546666,160 L 56.384648240457295,160 L 57.86607215721195,160 L 57.88843462528706,160 L 57.91703278157543,160 L 59.41589153922518,160 L 59.4348673835293,160 L 59.46480943813948,160 L 60.958973510985004,160 L 60.981300141771534,160 L 61.00980870483845,160 L 61.04881759345986,160 L 62.5112477472661,160 L 62.54104645272195,160 L 62.57063013444632,160 L 64.05560194277058,160 L 64.0828920380257,160 L 64.11140060109261,160 L 65.60644268750839,160 L 65.62178104702144,160 L 65.65777960340198,160 L 67.15296503897207,160 L 67.17840951386523,160 L 67.19932057175278,160 L 68.70230061758946,160 L 68.7263474382279,160 L 68.75560858435503,160 L 70.25131366060958,160 L 70.27700899652282,160 L 70.30517710534819,160 L 71.79810479173764,160 L 71.81851412758503,160 L 71.85003302289283,160 L 73.3490709669855,160 L 73.37111089946336,160 L 73.40202056086525,160 L 74.8961487964222,160 L 74.92182621369113,160 L 74.95275379373732,160 L 76.44342373094611,160 L 76.4682052160005,160 L 76.48675101284164,160 L 77.98856634679939,160 L 78.02361521503249,160 L 78.04728574414085,160 L 79.54008800002026,160 L 79.56415273930301,160 L 81.11413338911485,160 L 81.14054547079972,160 L 82.63288184192757,160 L 82.65610440492864,160 L 82.68375287306958,160 L 84.18451100701418,160 L 84.21339586161119,160 L 84.24095473653068,160 L 85.73269979239693,160 L 85.76239098598704,160 L 85.79136543380551,160 L 87.28354053713474,160 L 87.31124276120855,160 L 87.33507455811552,160 L 88.8273392546662,160 L 88.8556686312902,79.84313725490196 L 88.88475059097442,79.84313725490196 L 90.40387533531724,79.84313725490196 L 90.42978569496196,79.84313725490196 L 91.9191834084261,79.84313725490196 L 91.94702898165423,79.84313725490196 L 91.96568229036112,79.84313725490196 L 93.47120678368711,79.84313725490196 L 93.4989269264052,79.84313725490196 L 93.52723838438493,79.84313725490196 L 95.01643899276185,79.84313725490196 L 95.04527009142599,79.84313725490196 L 95.0807131698335,79.84313725490196 L 96.57097097822358,79.84313725490196 L 96.60121764978672,79.84313725490196 L 96.62273794158017,79.84313725490196 L 98.11810256359317,79.84313725490196 L 98.14231065203025,79.84313725490196 L 98.1719480896875,79.84313725490196 L 99.66881787782096,79.84313725490196 L 99.72368476663985,79.84313725490196 L 101.21270618857388,79.84313725490196 L 101.24237946351968,79.84313725490196 L 101.26972331470769,79.84313725490196 L 102.76256140787568,79.84313725490196 L 102.7906399234796,79.84313725490196 L 102.81995482553961,79.84313725490196 L 104.31135942716432,79.84313725490196 L 104.33999342074127,79.84313725490196 L 104.3722111431764,79.84313725490196 L 105.85881354813114,79.84313725490196 L 105.88895270782852,79.84313725490196 L 105.91991612516328,79.84313725490196 L 107.40965429286895,79.84313725490196 L 107.43922005594902,79.84313725490196 L 107.4674060834187,79.84313725490196 L 108.95995747827803,79.84313725490196 L 108.98122690905139,79.84313725490196 L 109.01066724162142,79.84313725490196 L 110.50268107715205,79.84313725490196 L 110.53004284698432,79.84313725490196 L 110.56175884737931,79.84313725490196 L 112.05155077101784,79.84313725490196 L 112.07875127305152,79.84313725490196 L 112.10869332766171,79.84313725490196 L 113.59986498691063,79.84313725490196 L 113.62563199740102,79.84313725490196 L 113.65740175372889,79.84313725490196 L 115.14925432146087,79.84313725490196 L 115.17502133195127,79.84313725490196 L 115.19890688479111,79.84313725490196 L 116.70272910690946,79.84313725490196 L 116.72467944616588,79.84313725490196 L 116.75662838893665,79.84313725490196 L 118.2461873701994,79.84313725490196 L 118.27145265864964,79.84313725490196 L 118.29987162849508,79.84313725490196 L 119.79362357252192,79.84313725490196 L 119.81587852873129,79.84313725490196 L 119.84952974270969,79.84313725490196 L 121.34019967991848,79.84313725490196 L 121.3663250632947,79.84313725490196 L 121.39838151793121,79.84313725490196 L 122.886650356805,79.84313725490196 L 122.9110197130407,79.84313725490196 L 122.9456922897437,79.84313725490196 L 124.43071785400083,79.84313725490196 L 124.46220091202004,79.84313725490196 L 124.49452614632092,79.84313725490196 L 125.98433598860375,79.84313725490196 L 126.00947584654396,79.84313725490196 L 126.03896993504686,79.84313725490196 L 127.53458541807996,79.84313725490196 L 127.56173216418075,79.84313725490196 L 127.5947203883204,79.84313725490196 L 129.08014016275195,79.84313725490196 L 129.1118561631469,79.84313725490196 L 129.14690503138002,79.84313725490196 L 130.63137511766416,79.84313725490196 L 130.65549361287975,79.84313725490196 L 130.68704834547611,79.84313725490196 L 132.18060318441576,79.84313725490196 L 132.20301940842376,79.84313725490196 L 132.23464581559728,79.84313725490196 L 133.72536950873894,79.84313725490196 L 133.75009723786047,79.84313725490196 L 133.78106065519523,79.84313725490196 L 135.27411377209472,79.84313725490196 L 135.30219228769863,79.84313725490196 L 136.82475741174534,79.84313725490196 L 136.8505602595243,79.84313725490196 L 136.87501920898146,79.84313725490196 L 138.37362710561115,79.84313725490196 L 138.40335413648984,79.84313725490196 L 138.43714869962258,79.84313725490196 L 139.91196063663386,79.84313725490196 L 139.94821005403446,79.84313725490196 L 139.97911971543635,79.84313725490196 L 141.46647470345133,79.84313725490196 L 141.48588059521842,79.84313725490196 L 141.52266757194775,79.84313725490196 L 143.01514729222993,79.84313725490196 L 143.0426703298608,79.84313725490196 L 143.07318578108834,79.84313725490196 L 144.5656117454376,79.84313725490196 L 144.59161169830378,79.84313725490196 L 144.6191347359347,79.84313725490196 L 146.10967924263343,79.84313725490196 L 146.13935251757925,79.84313725490196 L 146.16877493150503,79.84313725490196 L 147.65693625851307,79.84313725490196 L 147.68413676054672,79.84313725490196 L 147.71481347957285,79.84313725490196 L 149.21017810158588,79.84313725490196 L 149.2407652273905,79.84313725490196 L 149.27375345153018,79.84313725490196 L 150.76089341581365,79.84313725490196 L 150.78402638559328,79.84313725490196 L 150.83514827775537,79.84313725490196 L 152.30978102832375,79.84313725490196 L 152.33330820827774,79.84313725490196 L 152.36287397135783,79.84313725490196 L 153.8527734068621,79.84313725490196 L 153.88040395635875,79.84313725490196 L 153.909611346553,79.84313725490196 L 155.4002454464732,79.84313725490196 L 155.42685463324528,79.84313725490196 L 155.45756718956,79.84313725490196 L 156.94945559458057,79.84313725490196 L 156.97742659831874,79.84313725490196 L 157.00301442236622,79.84313725490196 L 158.4954762240041,79.84313725490196 L 158.52314261078934,79.84313725490196 L 158.55220665182924,79.84313725490196 L 160.05054576879456,79.84313725490196 L 160.07969940305597,79.84313725490196 L 160.11017901699486,79.84313725490196 L 161.5928572388499,79.84313725490196 L 161.6221721409099,40 L 161.65258008027163,40 L 163.1472996310902,40 L 163.16812109575628,40 L 163.19645047238026,40 L 164.68968277572267,40 L 164.70960830817418,40 L 164.74768542729248,40 L 166.24005763570892,40 L 166.26885289708449,40 L 166.2932043346759,40 L 167.78217200067704,40 L 167.81480185193084,40 L 167.84655368961444,40 L 169.33749240648757,40 L 169.35249031175908,40 L 169.39088996647462,40 L 170.88532281898452,40 L 170.91530071088326,40 L 170.9502779045392,40 L 172.4334220111458,40 L 172.45988784876354,40 L 172.49572513734546,40 L 173.978743813442,40 L 174.00875754262933,40 L 174.04205038372194,40 L 175.5303729785286,40 L 175.55223372456356,40 L 175.5832688164755,40 L 177.07418961470435,40 L 177.09909653026878,40 L 177.13122465948248,40 L 178.62526330181797,40 L 178.65464987845513,40 L 178.68029145843548,40 L 180.1722694566775,40 L 180.20509641301854,40 L 180.22801435906666,40 L 181.72244721157654,40 L 181.75133206617357,40 L 181.78458906997759,40 L 183.27111980035517,40 L 183.2993058278248,40 L 183.33333333333334,40" fill="none" stroke="none"/>
  </g>
  <!-- 📊 Total Contributions Chart -->
  <g transform="translate(526.6666666666667, 250)">
    <!-- Chart Background -->
    <rect x="0" y="0" width="213.33333333333334" height="200" fill="#0f172a" stroke="#334155" stroke-width="1" rx="8" filter="url(#shadow)">
      <animate attributeName="opacity" values="0;1" dur="0.5s" begin="2.8s" fill="freeze"/>
    </rect>
    
    <!-- Chart Title -->
    <text x="106.66666666666667" y="25" text-anchor="middle" fill="#f8fafc" font-size="14" font-weight="bold" font-family="Arial, sans-serif">
      📊 Total Contributions
      <animate attributeName="opacity" values="0;1" dur="0.5s" begin="3s" fill="freeze"/>
    </text>
    
    <!-- Y-axis labels -->
    <text x="10" y="45" fill="#94a3b8" font-size="10" font-family="Arial, sans-serif">4,917
      <animate attributeName="opacity" values="0;1" dur="0.5s" begin="3.1999999999999997s" fill="freeze"/>
    </text>
    <text x="10" y="185" fill="#94a3b8" font-size="10" font-family="Arial, sans-serif">3,802
      <animate attributeName="opacity" values="0;1" dur="0.5s" begin="3.1999999999999997s" fill="freeze"/>
    </text>
    
    <!-- Chart Line with draw animation that follows the circle -->
    <path d="M 30,160 L 30.026161220664793,160 L 30.05336172269846,160 L 31.54711366672529,160 L 31.57320321281292,160 L 31.60171177587983,160 L 33.09449611311495,160 L 33.118507096464825,160 L 33.1459047035857,160 L 34.6381156442035,160 L 34.66696466151194,160 L 36.197163128026574,160 L 36.214687562143126,160 L 36.24249729808268,160 L 37.73762897771992,160 L 37.76230295090856,160 L 37.79280048349177,160 L 39.285423552928265,160 L 39.30950621085531,160 L 39.336581282378944,160 L 40.836300134954655,160 L 40.86213882002222,160 L 40.89451781025597,160 L 42.3860836796793,160 L 42.41392925290745,160 L 42.44062803290097,160 L 43.93683483119566,160 L 43.953965055137814,160 L 43.98297534024487,160 L 45.47963010464683,160 L 45.502028410010524,160 L 45.52772374592375,160 L 47.027478435788055,160 L 47.048353656387015,160 L 47.08001590084913,160 L 48.57496839404345,160 L 48.597868421447295,160 L 48.62772088283602,160 L 50.1201826844739,160 L 50.14224053559607,160 L 50.174727037695575,160 L 51.66738594442066,160 L 51.699764934654404,160 L 51.73282483337122,160 L 53.22080697393636,160 L 53.244585014910456,160 L 53.27449123223206,160 L 54.768583630500416,160 L 54.792021217232985,160 L 54.82192743455458,160 L 56.317489161654805,160 L 56.348273392546666,160 L 56.384648240457295,160 L 57.86607215721195,160 L 57.88843462528706,160 L 57.91703278157543,160 L 59.41589153922518,160 L 59.4348673835293,160 L 59.46480943813948,160 L 60.958973510985004,160 L 60.981300141771534,160 L 61.00980870483845,160 L 61.04881759345986,160 L 62.5112477472661,160 L 62.54104645272195,160 L 62.57063013444632,160 L 64.05560194277058,160 L 64.0828920380257,160 L 64.11140060109261,160 L 65.60644268750839,160 L 65.62178104702144,160 L 65.65777960340198,160 L 67.15296503897207,160 L 67.17840951386523,160 L 67.19932057175278,160 L 68.70230061758946,160 L 68.7263474382279,160 L 68.75560858435503,160 L 70.25131366060958,160 L 70.27700899652282,160 L 70.30517710534819,160 L 71.79810479173764,160 L 71.81851412758503,160 L 71.85003302289283,160 L 73.3490709669855,160 L 73.37111089946336,160 L 73.40202056086525,160 L 74.8961487964222,160 L 74.92182621369113,160 L 74.95275379373732,160 L 76.44342373094611,160 L 76.4682052160005,160 L 76.48675101284164,160 L 77.98856634679939,160 L 78.02361521503249,160 L 78.04728574414085,160 L 79.54008800002026,160 L 79.56415273930301,160 L 81.11413338911485,160 L 81.14054547079972,160 L 82.63288184192757,160 L 82.65610440492864,160 L 82.68375287306958,160 L 84.18451100701418,160 L 84.21339586161119,160 L 84.24095473653068,160 L 85.73269979239693,160 L 85.76239098598704,160 L 85.79136543380551,160 L 87.28354053713474,160 L 87.31124276120855,160 L 87.33507455811552,160 L 88.8273392546662,160 L 88.8556686312902,94.78026905829597 L 88.88475059097442,94.78026905829597 L 90.40387533531724,94.78026905829597 L 90.42978569496196,94.78026905829597 L 91.9191834084261,94.78026905829597 L 91.94702898165423,94.78026905829597 L 91.96568229036112,94.78026905829597 L 93.47120678368711,94.78026905829597 L 93.4989269264052,94.78026905829597 L 93.52723838438493,94.78026905829597 L 95.01643899276185,94.78026905829597 L 95.04527009142599,94.78026905829597 L 95.0807131698335,94.78026905829597 L 96.57097097822358,94.78026905829597 L 96.60121764978672,94.78026905829597 L 96.62273794158017,94.78026905829597 L 98.11810256359317,94.78026905829597 L 98.14231065203025,94.78026905829597 L 98.1719480896875,94.78026905829597 L 99.66881787782096,94.78026905829597 L 99.72368476663985,94.78026905829597 L 101.21270618857388,94.78026905829597 L 101.24237946351968,94.78026905829597 L 101.26972331470769,94.78026905829597 L 102.76256140787568,94.78026905829597 L 102.7906399234796,94.78026905829597 L 102.81995482553961,94.78026905829597 L 104.31135942716432,94.78026905829597 L 104.33999342074127,94.78026905829597 L 104.3722111431764,94.78026905829597 L 105.85881354813114,94.78026905829597 L 105.88895270782852,94.78026905829597 L 105.91991612516328,94.78026905829597 L 107.40965429286895,94.78026905829597 L 107.43922005594902,94.78026905829597 L 107.4674060834187,94.78026905829597 L 108.95995747827803,94.78026905829597 L 108.98122690905139,94.78026905829597 L 109.01066724162142,94.78026905829597 L 110.50268107715205,94.78026905829597 L 110.53004284698432,94.78026905829597 L 110.56175884737931,94.78026905829597 L 112.05155077101784,94.78026905829597 L 112.07875127305152,94.78026905829597 L 112.10869332766171,94.78026905829597 L 113.59986498691063,94.78026905829597 L 113.62563199740102,94.78026905829597 L 113.65740175372889,94.78026905829597 L 115.14925432146087,94.78026905829597 L 115.17502133195127,94.78026905829597 L 115.19890688479111,94.78026905829597 L 116.70272910690946,94.78026905829597 L 116.72467944616588,94.78026905829597 L 116.75662838893665,94.78026905829597 L 118.2461873701994,94.78026905829597 L 118.27145265864964,94.78026905829597 L 118.29987162849508,94.78026905829597 L 119.79362357252192,94.78026905829597 L 119.81587852873129,94.78026905829597 L 119.84952974270969,94.78026905829597 L 121.34019967991848,94.78026905829597 L 121.3663250632947,94.78026905829597 L 121.39838151793121,94.78026905829597 L 122.886650356805,94.78026905829597 L 122.9110197130407,94.78026905829597 L 122.9456922897437,94.78026905829597 L 124.43071785400083,94.78026905829597 L 124.46220091202004,94.78026905829597 L 124.49452614632092,94.78026905829597 L 125.98433598860375,94.78026905829597 L 126.00947584654396,94.78026905829597 L 126.03896993504686,94.78026905829597 L 127.53458541807996,94.78026905829597 L 127.56173216418075,94.78026905829597 L 127.5947203883204,94.78026905829597 L 129.08014016275195,94.78026905829597 L 129.1118561631469,94.78026905829597 L 129.14690503138002,94.78026905829597 L 130.63137511766416,94.78026905829597 L 130.65549361287975,94.78026905829597 L 130.68704834547611,94.78026905829597 L 132.18060318441576,94.78026905829597 L 132.20301940842376,94.78026905829597 L 132.23464581559728,94.78026905829597 L 133.72536950873894,94.78026905829597 L 133.75009723786047,94.78026905829597 L 133.78106065519523,94.78026905829597 L 135.27411377209472,94.78026905829597 L 135.30219228769863,94.78026905829597 L 136.82475741174534,94.78026905829597 L 136.8505602595243,94.78026905829597 L 136.87501920898146,94.78026905829597 L 138.37362710561115,94.78026905829597 L 138.40335413648984,94.78026905829597 L 138.43714869962258,94.78026905829597 L 139.91196063663386,94.78026905829597 L 139.94821005403446,94.78026905829597 L 139.97911971543635,94.78026905829597 L 141.46647470345133,94.78026905829597 L 141.48588059521842,94.78026905829597 L 141.52266757194775,94.78026905829597 L 143.01514729222993,94.78026905829597 L 143.0426703298608,94.78026905829597 L 143.07318578108834,94.78026905829597 L 144.5656117454376,94.78026905829597 L 144.59161169830378,94.78026905829597 L 144.6191347359347,94.78026905829597 L 146.10967924263343,94.78026905829597 L 146.13935251757925,94.78026905829597 L 146.16877493150503,94.78026905829597 L 147.65693625851307,94.78026905829597 L 147.68413676054672,94.78026905829597 L 147.71481347957285,94.78026905829597 L 149.21017810158588,94.78026905829597 L 149.2407652273905,94.78026905829597 L 149.27375345153018,94.78026905829597 L 150.76089341581365,94.78026905829597 L 150.78402638559328,94.78026905829597 L 150.83514827775537,94.78026905829597 L 152.30978102832375,94.78026905829597 L 152.33330820827774,94.78026905829597 L 152.36287397135783,94.78026905829597 L 153.8527734068621,94.78026905829597 L 153.88040395635875,94.78026905829597 L 153.909611346553,94.78026905829597 L 155.4002454464732,94.78026905829597 L 155.42685463324528,94.78026905829597 L 155.45756718956,94.78026905829597 L 156.94945559458057,94.78026905829597 L 156.97742659831874,94.78026905829597 L 157.00301442236622,94.78026905829597 L 158.4954762240041,94.78026905829597 L 158.52314261078934,94.78026905829597 L 158.55220665182924,94.78026905829597 L 160.05054576879456,94.78026905829597 L 160.07969940305597,94.78026905829597 L 160.11017901699486,94.78026905829597 L 161.5928572388499,94.78026905829597 L 161.6221721409099,40 L 161.65258008027163,40 L 163.1472996310902,40 L 163.16812109575628,40 L 163.19645047238026,40 L 164.68968277572267,40 L 164.70960830817418,40 L 164.74768542729248,40 L 166.24005763570892,40 L 166.26885289708449,40 L 166.2932043346759,40 L 167.78217200067704,40 L 167.81480185193084,40 L 167.84655368961444,40 L 169.33749240648757,40 L 169.35249031175908,40 L 169.39088996647462,40 L 170.88532281898452,40 L 170.91530071088326,40 L 170.9502779045392,40 L 172.4334220111458,40 L 172.45988784876354,40 L 172.49572513734546,40 L 173.978743813442,40 L 174.00875754262933,40 L 174.04205038372194,40 L 175.5303729785286,40 L 175.55223372456356,40 L 175.5832688164755,40 L 177.07418961470435,40 L 177.09909653026878,40 L 177.13122465948248,40 L 178.62526330181797,40 L 178.65464987845513,40 L 178.68029145843548,40 L 180.1722694566775,40 L 180.20509641301854,40 L 180.22801435906666,40 L 181.72244721157654,40 L 181.75133206617357,40 L 181.78458906997759,40 L 183.27111980035517,40 L 183.2993058278248,40 L 183.33333333333334,40" stroke="#f59e0b" stroke-width="2" fill="none" stroke-dasharray="14750" stroke-dashoffset="14750">
      <animate attributeName="stroke-dashoffset" values="14750;0" dur="3s" begin="3.5999999999999996s" fill="freeze"/>
    </path>
    
    <!-- Glow effect for the line that also follows the circle -->
    <path d="M 30,160 L 30.026161220664793,160 L 30.05336172269846,160 L 31.54711366672529,160 L 31.57320321281292,160 L 31.60171177587983,160 L 33.09449611311495,160 L 33.118507096464825,160 L 33.1459047035857,160 L 34.6381156442035,160 L 34.66696466151194,160 L 36.197163128026574,160 L 36.214687562143126,160 L 36.24249729808268,160 L 37.73762897771992,160 L 37.76230295090856,160 L 37.79280048349177,160 L 39.285423552928265,160 L 39.30950621085531,160 L 39.336581282378944,160 L 40.836300134954655,160 L 40.86213882002222,160 L 40.89451781025597,160 L 42.3860836796793,160 L 42.41392925290745,160 L 42.44062803290097,160 L 43.93683483119566,160 L 43.953965055137814,160 L 43.98297534024487,160 L 45.47963010464683,160 L 45.502028410010524,160 L 45.52772374592375,160 L 47.027478435788055,160 L 47.048353656387015,160 L 47.08001590084913,160 L 48.57496839404345,160 L 48.597868421447295,160 L 48.62772088283602,160 L 50.1201826844739,160 L 50.14224053559607,160 L 50.174727037695575,160 L 51.66738594442066,160 L 51.699764934654404,160 L 51.73282483337122,160 L 53.22080697393636,160 L 53.244585014910456,160 L 53.27449123223206,160 L 54.768583630500416,160 L 54.792021217232985,160 L 54.82192743455458,160 L 56.317489161654805,160 L 56.348273392546666,160 L 56.384648240457295,160 L 57.86607215721195,160 L 57.88843462528706,160 L 57.91703278157543,160 L 59.41589153922518,160 L 59.4348673835293,160 L 59.46480943813948,160 L 60.958973510985004,160 L 60.981300141771534,160 L 61.00980870483845,160 L 61.04881759345986,160 L 62.5112477472661,160 L 62.54104645272195,160 L 62.57063013444632,160 L 64.05560194277058,160 L 64.0828920380257,160 L 64.11140060109261,160 L 65.60644268750839,160 L 65.62178104702144,160 L 65.65777960340198,160 L 67.15296503897207,160 L 67.17840951386523,160 L 67.19932057175278,160 L 68.70230061758946,160 L 68.7263474382279,160 L 68.75560858435503,160 L 70.25131366060958,160 L 70.27700899652282,160 L 70.30517710534819,160 L 71.79810479173764,160 L 71.81851412758503,160 L 71.85003302289283,160 L 73.3490709669855,160 L 73.37111089946336,160 L 73.40202056086525,160 L 74.8961487964222,160 L 74.92182621369113,160 L 74.95275379373732,160 L 76.44342373094611,160 L 76.4682052160005,160 L 76.48675101284164,160 L 77.98856634679939,160 L 78.02361521503249,160 L 78.04728574414085,160 L 79.54008800002026,160 L 79.56415273930301,160 L 81.11413338911485,160 L 81.14054547079972,160 L 82.63288184192757,160 L 82.65610440492864,160 L 82.68375287306958,160 L 84.18451100701418,160 L 84.21339586161119,160 L 84.24095473653068,160 L 85.73269979239693,160 L 85.76239098598704,160 L 85.79136543380551,160 L 87.28354053713474,160 L 87.31124276120855,160 L 87.33507455811552,160 L 88.8273392546662,160 L 88.8556686312902,94.78026905829597 L 88.88475059097442,94.78026905829597 L 90.40387533531724,94.78026905829597 L 90.42978569496196,94.78026905829597 L 91.9191834084261,94.78026905829597 L 91.94702898165423,94.78026905829597 L 91.96568229036112,94.78026905829597 L 93.47120678368711,94.78026905829597 L 93.4989269264052,94.78026905829597 L 93.52723838438493,94.78026905829597 L 95.01643899276185,94.78026905829597 L 95.04527009142599,94.78026905829597 L 95.0807131698335,94.78026905829597 L 96.57097097822358,94.78026905829597 L 96.60121764978672,94.78026905829597 L 96.62273794158017,94.78026905829597 L 98.11810256359317,94.78026905829597 L 98.14231065203025,94.78026905829597 L 98.1719480896875,94.78026905829597 L 99.66881787782096,94.78026905829597 L 99.72368476663985,94.78026905829597 L 101.21270618857388,94.78026905829597 L 101.24237946351968,94.78026905829597 L 101.26972331470769,94.78026905829597 L 102.76256140787568,94.78026905829597 L 102.7906399234796,94.78026905829597 L 102.81995482553961,94.78026905829597 L 104.31135942716432,94.78026905829597 L 104.33999342074127,94.78026905829597 L 104.3722111431764,94.78026905829597 L 105.85881354813114,94.78026905829597 L 105.88895270782852,94.78026905829597 L 105.91991612516328,94.78026905829597 L 107.40965429286895,94.78026905829597 L 107.43922005594902,94.78026905829597 L 107.4674060834187,94.78026905829597 L 108.95995747827803,94.78026905829597 L 108.98122690905139,94.78026905829597 L 109.01066724162142,94.78026905829597 L 110.50268107715205,94.78026905829597 L 110.53004284698432,94.78026905829597 L 110.56175884737931,94.78026905829597 L 112.05155077101784,94.78026905829597 L 112.07875127305152,94.78026905829597 L 112.10869332766171,94.78026905829597 L 113.59986498691063,94.78026905829597 L 113.62563199740102,94.78026905829597 L 113.65740175372889,94.78026905829597 L 115.14925432146087,94.78026905829597 L 115.17502133195127,94.78026905829597 L 115.19890688479111,94.78026905829597 L 116.70272910690946,94.78026905829597 L 116.72467944616588,94.78026905829597 L 116.75662838893665,94.78026905829597 L 118.2461873701994,94.78026905829597 L 118.27145265864964,94.78026905829597 L 118.29987162849508,94.78026905829597 L 119.79362357252192,94.78026905829597 L 119.81587852873129,94.78026905829597 L 119.84952974270969,94.78026905829597 L 121.34019967991848,94.78026905829597 L 121.3663250632947,94.78026905829597 L 121.39838151793121,94.78026905829597 L 122.886650356805,94.78026905829597 L 122.9110197130407,94.78026905829597 L 122.9456922897437,94.78026905829597 L 124.43071785400083,94.78026905829597 L 124.46220091202004,94.78026905829597 L 124.49452614632092,94.78026905829597 L 125.98433598860375,94.78026905829597 L 126.00947584654396,94.78026905829597 L 126.03896993504686,94.78026905829597 L 127.53458541807996,94.78026905829597 L 127.56173216418075,94.78026905829597 L 127.5947203883204,94.78026905829597 L 129.08014016275195,94.78026905829597 L 129.1118561631469,94.78026905829597 L 129.14690503138002,94.78026905829597 L 130.63137511766416,94.78026905829597 L 130.65549361287975,94.78026905829597 L 130.68704834547611,94.78026905829597 L 132.18060318441576,94.78026905829597 L 132.20301940842376,94.78026905829597 L 132.23464581559728,94.78026905829597 L 133.72536950873894,94.78026905829597 L 133.75009723786047,94.78026905829597 L 133.78106065519523,94.78026905829597 L 135.27411377209472,94.78026905829597 L 135.30219228769863,94.78026905829597 L 136.82475741174534,94.78026905829597 L 136.8505602595243,94.78026905829597 L 136.87501920898146,94.78026905829597 L 138.37362710561115,94.78026905829597 L 138.40335413648984,94.78026905829597 L 138.43714869962258,94.78026905829597 L 139.91196063663386,94.78026905829597 L 139.94821005403446,94.78026905829597 L 139.97911971543635,94.78026905829597 L 141.46647470345133,94.78026905829597 L 141.48588059521842,94.78026905829597 L 141.52266757194775,94.78026905829597 L 143.01514729222993,94.78026905829597 L 143.0426703298608,94.78026905829597 L 143.07318578108834,94.78026905829597 L 144.5656117454376,94.78026905829597 L 144.59161169830378,94.78026905829597 L 144.6191347359347,94.78026905829597 L 146.10967924263343,94.78026905829597 L 146.13935251757925,94.78026905829597 L 146.16877493150503,94.78026905829597 L 147.65693625851307,94.78026905829597 L 147.68413676054672,94.78026905829597 L 147.71481347957285,94.78026905829597 L 149.21017810158588,94.78026905829597 L 149.2407652273905,94.78026905829597 L 149.27375345153018,94.78026905829597 L 150.76089341581365,94.78026905829597 L 150.78402638559328,94.78026905829597 L 150.83514827775537,94.78026905829597 L 152.30978102832375,94.78026905829597 L 152.33330820827774,94.78026905829597 L 152.36287397135783,94.78026905829597 L 153.8527734068621,94.78026905829597 L 153.88040395635875,94.78026905829597 L 153.909611346553,94.78026905829597 L 155.4002454464732,94.78026905829597 L 155.42685463324528,94.78026905829597 L 155.45756718956,94.78026905829597 L 156.94945559458057,94.78026905829597 L 156.97742659831874,94.78026905829597 L 157.00301442236622,94.78026905829597 L 158.4954762240041,94.78026905829597 L 158.52314261078934,94.78026905829597 L 158.55220665182924,94.78026905829597 L 160.05054576879456,94.78026905829597 L 160.07969940305597,94.78026905829597 L 160.11017901699486,94.78026905829597 L 161.5928572388499,94.78026905829597 L 161.6221721409099,40 L 161.65258008027163,40 L 163.1472996310902,40 L 163.16812109575628,40 L 163.19645047238026,40 L 164.68968277572267,40 L 164.70960830817418,40 L 164.74768542729248,40 L 166.24005763570892,40 L 166.26885289708449,40 L 166.2932043346759,40 L 167.78217200067704,40 L 167.81480185193084,40 L 167.84655368961444,40 L 169.33749240648757,40 L 169.35249031175908,40 L 169.39088996647462,40 L 170.88532281898452,40 L 170.91530071088326,40 L 170.9502779045392,40 L 172.4334220111458,40 L 172.45988784876354,40 L 172.49572513734546,40 L 173.978743813442,40 L 174.00875754262933,40 L 174.04205038372194,40 L 175.5303729785286,40 L 175.55223372456356,40 L 175.5832688164755,40 L 177.07418961470435,40 L 177.09909653026878,40 L 177.13122465948248,40 L 178.62526330181797,40 L 178.65464987845513,40 L 178.68029145843548,40 L 180.1722694566775,40 L 180.20509641301854,40 L 180.22801435906666,40 L 181.72244721157654,40 L 181.75133206617357,40 L 181.78458906997759,40 L 183.27111980035517,40 L 183.2993058278248,40 L 183.33333333333334,40" stroke="#f59e0b" stroke-width="4" fill="none" opacity="0.4" stroke-dasharray="14750" stroke-dashoffset="14750">
      <animate attributeName="stroke-dashoffset" values="14750;0" dur="3s" begin="3.5999999999999996s" fill="freeze"/>
    </path>
    
    <!-- Animated circle that moves along the path and draws the line -->
    <circle r="5" fill="#f59e0b" opacity="0" filter="url(#trailGlow)">
      <animate attributeName="opacity" values="0;1;1;1" dur="3.2s" begin="3.4s" fill="freeze"/>
      <animate attributeName="r" values="5;6;5" dur="1s" begin="3.4s" repeatCount="3"/>
      <animateMotion dur="3s" begin="3.4s" fill="freeze">
        <mpath href="#path_totalContributions_526.6666666666667"/>
      </animateMotion>
    </circle>
    
    <!-- Small trail dots that fade out -->
    <circle r="2" fill="#f59e0b" opacity="0">
      <animate attributeName="opacity" values="0;0.6;0" dur="0.8s" begin="3.8s" fill="freeze"/>
      <animateMotion dur="3s" begin="3.4s" fill="freeze">
        <mpath href="#path_totalContributions_526.6666666666667"/>
      </animateMotion>
    </circle>
    
    <!-- Hidden path for motion animation -->
    <path id="path_totalContributions_526.6666666666667" d="M 30,160 L 30.026161220664793,160 L 30.05336172269846,160 L 31.54711366672529,160 L 31.57320321281292,160 L 31.60171177587983,160 L 33.09449611311495,160 L 33.118507096464825,160 L 33.1459047035857,160 L 34.6381156442035,160 L 34.66696466151194,160 L 36.197163128026574,160 L 36.214687562143126,160 L 36.24249729808268,160 L 37.73762897771992,160 L 37.76230295090856,160 L 37.79280048349177,160 L 39.285423552928265,160 L 39.30950621085531,160 L 39.336581282378944,160 L 40.836300134954655,160 L 40.86213882002222,160 L 40.89451781025597,160 L 42.3860836796793,160 L 42.41392925290745,160 L 42.44062803290097,160 L 43.93683483119566,160 L 43.953965055137814,160 L 43.98297534024487,160 L 45.47963010464683,160 L 45.502028410010524,160 L 45.52772374592375,160 L 47.027478435788055,160 L 47.048353656387015,160 L 47.08001590084913,160 L 48.57496839404345,160 L 48.597868421447295,160 L 48.62772088283602,160 L 50.1201826844739,160 L 50.14224053559607,160 L 50.174727037695575,160 L 51.66738594442066,160 L 51.699764934654404,160 L 51.73282483337122,160 L 53.22080697393636,160 L 53.244585014910456,160 L 53.27449123223206,160 L 54.768583630500416,160 L 54.792021217232985,160 L 54.82192743455458,160 L 56.317489161654805,160 L 56.348273392546666,160 L 56.384648240457295,160 L 57.86607215721195,160 L 57.88843462528706,160 L 57.91703278157543,160 L 59.41589153922518,160 L 59.4348673835293,160 L 59.46480943813948,160 L 60.958973510985004,160 L 60.981300141771534,160 L 61.00980870483845,160 L 61.04881759345986,160 L 62.5112477472661,160 L 62.54104645272195,160 L 62.57063013444632,160 L 64.05560194277058,160 L 64.0828920380257,160 L 64.11140060109261,160 L 65.60644268750839,160 L 65.62178104702144,160 L 65.65777960340198,160 L 67.15296503897207,160 L 67.17840951386523,160 L 67.19932057175278,160 L 68.70230061758946,160 L 68.7263474382279,160 L 68.75560858435503,160 L 70.25131366060958,160 L 70.27700899652282,160 L 70.30517710534819,160 L 71.79810479173764,160 L 71.81851412758503,160 L 71.85003302289283,160 L 73.3490709669855,160 L 73.37111089946336,160 L 73.40202056086525,160 L 74.8961487964222,160 L 74.92182621369113,160 L 74.95275379373732,160 L 76.44342373094611,160 L 76.4682052160005,160 L 76.48675101284164,160 L 77.98856634679939,160 L 78.02361521503249,160 L 78.04728574414085,160 L 79.54008800002026,160 L 79.56415273930301,160 L 81.11413338911485,160 L 81.14054547079972,160 L 82.63288184192757,160 L 82.65610440492864,160 L 82.68375287306958,160 L 84.18451100701418,160 L 84.21339586161119,160 L 84.24095473653068,160 L 85.73269979239693,160 L 85.76239098598704,160 L 85.79136543380551,160 L 87.28354053713474,160 L 87.31124276120855,160 L 87.33507455811552,160 L 88.8273392546662,160 L 88.8556686312902,94.78026905829597 L 88.88475059097442,94.78026905829597 L 90.40387533531724,94.78026905829597 L 90.42978569496196,94.78026905829597 L 91.9191834084261,94.78026905829597 L 91.94702898165423,94.78026905829597 L 91.96568229036112,94.78026905829597 L 93.47120678368711,94.78026905829597 L 93.4989269264052,94.78026905829597 L 93.52723838438493,94.78026905829597 L 95.01643899276185,94.78026905829597 L 95.04527009142599,94.78026905829597 L 95.0807131698335,94.78026905829597 L 96.57097097822358,94.78026905829597 L 96.60121764978672,94.78026905829597 L 96.62273794158017,94.78026905829597 L 98.11810256359317,94.78026905829597 L 98.14231065203025,94.78026905829597 L 98.1719480896875,94.78026905829597 L 99.66881787782096,94.78026905829597 L 99.72368476663985,94.78026905829597 L 101.21270618857388,94.78026905829597 L 101.24237946351968,94.78026905829597 L 101.26972331470769,94.78026905829597 L 102.76256140787568,94.78026905829597 L 102.7906399234796,94.78026905829597 L 102.81995482553961,94.78026905829597 L 104.31135942716432,94.78026905829597 L 104.33999342074127,94.78026905829597 L 104.3722111431764,94.78026905829597 L 105.85881354813114,94.78026905829597 L 105.88895270782852,94.78026905829597 L 105.91991612516328,94.78026905829597 L 107.40965429286895,94.78026905829597 L 107.43922005594902,94.78026905829597 L 107.4674060834187,94.78026905829597 L 108.95995747827803,94.78026905829597 L 108.98122690905139,94.78026905829597 L 109.01066724162142,94.78026905829597 L 110.50268107715205,94.78026905829597 L 110.53004284698432,94.78026905829597 L 110.56175884737931,94.78026905829597 L 112.05155077101784,94.78026905829597 L 112.07875127305152,94.78026905829597 L 112.10869332766171,94.78026905829597 L 113.59986498691063,94.78026905829597 L 113.62563199740102,94.78026905829597 L 113.65740175372889,94.78026905829597 L 115.14925432146087,94.78026905829597 L 115.17502133195127,94.78026905829597 L 115.19890688479111,94.78026905829597 L 116.70272910690946,94.78026905829597 L 116.72467944616588,94.78026905829597 L 116.75662838893665,94.78026905829597 L 118.2461873701994,94.78026905829597 L 118.27145265864964,94.78026905829597 L 118.29987162849508,94.78026905829597 L 119.79362357252192,94.78026905829597 L 119.81587852873129,94.78026905829597 L 119.84952974270969,94.78026905829597 L 121.34019967991848,94.78026905829597 L 121.3663250632947,94.78026905829597 L 121.39838151793121,94.78026905829597 L 122.886650356805,94.78026905829597 L 122.9110197130407,94.78026905829597 L 122.9456922897437,94.78026905829597 L 124.43071785400083,94.78026905829597 L 124.46220091202004,94.78026905829597 L 124.49452614632092,94.78026905829597 L 125.98433598860375,94.78026905829597 L 126.00947584654396,94.78026905829597 L 126.03896993504686,94.78026905829597 L 127.53458541807996,94.78026905829597 L 127.56173216418075,94.78026905829597 L 127.5947203883204,94.78026905829597 L 129.08014016275195,94.78026905829597 L 129.1118561631469,94.78026905829597 L 129.14690503138002,94.78026905829597 L 130.63137511766416,94.78026905829597 L 130.65549361287975,94.78026905829597 L 130.68704834547611,94.78026905829597 L 132.18060318441576,94.78026905829597 L 132.20301940842376,94.78026905829597 L 132.23464581559728,94.78026905829597 L 133.72536950873894,94.78026905829597 L 133.75009723786047,94.78026905829597 L 133.78106065519523,94.78026905829597 L 135.27411377209472,94.78026905829597 L 135.30219228769863,94.78026905829597 L 136.82475741174534,94.78026905829597 L 136.8505602595243,94.78026905829597 L 136.87501920898146,94.78026905829597 L 138.37362710561115,94.78026905829597 L 138.40335413648984,94.78026905829597 L 138.43714869962258,94.78026905829597 L 139.91196063663386,94.78026905829597 L 139.94821005403446,94.78026905829597 L 139.97911971543635,94.78026905829597 L 141.46647470345133,94.78026905829597 L 141.48588059521842,94.78026905829597 L 141.52266757194775,94.78026905829597 L 143.01514729222993,94.78026905829597 L 143.0426703298608,94.78026905829597 L 143.07318578108834,94.78026905829597 L 144.5656117454376,94.78026905829597 L 144.59161169830378,94.78026905829597 L 144.6191347359347,94.78026905829597 L 146.10967924263343,94.78026905829597 L 146.13935251757925,94.78026905829597 L 146.16877493150503,94.78026905829597 L 147.65693625851307,94.78026905829597 L 147.68413676054672,94.78026905829597 L 147.71481347957285,94.78026905829597 L 149.21017810158588,94.78026905829597 L 149.2407652273905,94.78026905829597 L 149.27375345153018,94.78026905829597 L 150.76089341581365,94.78026905829597 L 150.78402638559328,94.78026905829597 L 150.83514827775537,94.78026905829597 L 152.30978102832375,94.78026905829597 L 152.33330820827774,94.78026905829597 L 152.36287397135783,94.78026905829597 L 153.8527734068621,94.78026905829597 L 153.88040395635875,94.78026905829597 L 153.909611346553,94.78026905829597 L 155.4002454464732,94.78026905829597 L 155.42685463324528,94.78026905829597 L 155.45756718956,94.78026905829597 L 156.94945559458057,94.78026905829597 L 156.97742659831874,94.78026905829597 L 157.00301442236622,94.78026905829597 L 158.4954762240041,94.78026905829597 L 158.52314261078934,94.78026905829597 L 158.55220665182924,94.78026905829597 L 160.05054576879456,94.78026905829597 L 160.07969940305597,94.78026905829597 L 160.11017901699486,94.78026905829597 L 161.5928572388499,94.78026905829597 L 161.6221721409099,40 L 161.65258008027163,40 L 163.1472996310902,40 L 163.16812109575628,40 L 163.19645047238026,40 L 164.68968277572267,40 L 164.70960830817418,40 L 164.74768542729248,40 L 166.24005763570892,40 L 166.26885289708449,40 L 166.2932043346759,40 L 167.78217200067704,40 L 167.81480185193084,40 L 167.84655368961444,40 L 169.33749240648757,40 L 169.35249031175908,40 L 169.39088996647462,40 L 170.88532281898452,40 L 170.91530071088326,40 L 170.9502779045392,40 L 172.4334220111458,40 L 172.45988784876354,40 L 172.49572513734546,40 L 173.978743813442,40 L 174.00875754262933,40 L 174.04205038372194,40 L 175.5303729785286,40 L 175.55223372456356,40 L 175.5832688164755,40 L 177.07418961470435,40 L 177.09909653026878,40 L 177.13122465948248,40 L 178.62526330181797,40 L 178.65464987845513,40 L 178.68029145843548,40 L 180.1722694566775,40 L 180.20509641301854,40 L 180.22801435906666,40 L 181.72244721157654,40 L 181.75133206617357,40 L 181.78458906997759,40 L 183.27111980035517,40 L 183.2993058278248,40 L 183.33333333333334,40" fill="none" stroke="none"/>
  </g>
  
  <!-- Footer -->
  <text x="400" y="580" text-anchor="middle" fill="#64748b" font-size="12" font-family="Arial, sans-serif">
    Generated by GitHub User Rank Tracker • 12/22/2025
    <animate attributeName="opacity" values="0;1" dur="0.5s" begin="5s" fill="freeze"/>
  </text>
</svg>