<svg width="800" height="600" xmlns="http://www.w3.org/2000/svg">
  <defs>
    <linearGradient id="bgGradient" x1="0%" y1="0%" x2="100%" y2="100%">
      <stop offset="0%" style="stop-color:#1e293b;stop-opacity:1" />
      <stop offset="100%" style="stop-color:#0f172a;stop-opacity:1" />
    </linearGradient>
    <filter id="shadow" x="-20%" y="-20%" width="140%" height="140%">
      <feDropShadow dx="2" dy="2" stdDeviation="3" flood-color="#000" flood-opacity="0.3"/>
    </filter>
    <!-- Trail effect filter -->
    <filter id="trailGlow" x="-50%" y="-50%" width="200%" height="200%">
      <feGaussianBlur stdDeviation="3" result="coloredBlur"/>
      <feMerge> 
        <feMergeNode in="coloredBlur"/>
        <feMergeNode in="SourceGraphic"/>
      </feMerge>
    </filter>
  </defs>
  
  <!-- Background -->
  <rect width="800" height="600" fill="url(#bgGradient)" rx="12"/>
  
  <!-- Header -->
  <text x="400" y="40" text-anchor="middle" fill="#f8fafc" font-size="24" font-weight="bold" font-family="Arial, sans-serif">
    GitHub Progress Report
    <animate attributeName="opacity" values="0;1" dur="0.8s" begin="0s" fill="freeze"/>
    <animateTransform attributeName="transform" type="translate" values="0,-20;0,0" dur="0.8s" begin="0s" fill="freeze"/>
  </text>
  
  <!-- User Info -->
  <text x="400" y="70" text-anchor="middle" fill="#cbd5e1" font-size="16" font-family="Arial, sans-serif">
    @maifeeulasad • BANGLADESH • 100 days analyzed
    <animate attributeName="opacity" values="0;1" dur="0.6s" begin="0.3s" fill="freeze"/>
  </text>
  
  <!-- Progress Cards -->
  <!-- Followers Card -->
  <g transform="translate(60, 100)">
    <rect width="206.66666666666666" height="120" fill="#1e293b" stroke="#334155" stroke-width="1" rx="8" filter="url(#shadow)">
      <animate attributeName="opacity" values="0;1" dur="0.6s" begin="0.2s" fill="freeze"/>
      <animateTransform attributeName="transform" type="scale" values="0.8;1" dur="0.6s" begin="0.2s" fill="freeze"/>
    </rect>
    <text x="103.33333333333333" y="25" text-anchor="middle" fill="#94a3b8" font-size="14" font-weight="bold" font-family="Arial, sans-serif">FOLLOWERS
      <animate attributeName="opacity" values="0;1" dur="0.5s" begin="0.4s" fill="freeze"/>
    </text>
    
    <text x="103.33333333333333" y="50" text-anchor="middle" fill="#ef4444" font-size="32" font-weight="bold" font-family="Arial, sans-serif">
      ↘
      <animate attributeName="opacity" values="0;1" dur="0.5s" begin="0.6s" fill="freeze"/>
      <animateTransform attributeName="transform" type="scale" values="0;1.2;1" dur="0.8s" begin="0.6s" fill="freeze"/>
    </text>
    
    <text x="103.33333333333333" y="75" text-anchor="middle" fill="#f8fafc" font-size="18" font-weight="bold" font-family="Arial, sans-serif">
      -14
      <animate attributeName="opacity" values="0;1" dur="0.5s" begin="0.8s" fill="freeze"/>
    </text>
    
    <text x="103.33333333333333" y="95" text-anchor="middle" fill="#94a3b8" font-size="12" font-family="Arial, sans-serif">
      #458 → #472
      <animate attributeName="opacity" values="0;1" dur="0.5s" begin="1s" fill="freeze"/>
    </text>
  </g>
  
  <!-- Public Contributions Card -->
  <g transform="translate(296.66666666666663, 100)">
    <rect width="206.66666666666666" height="120" fill="#1e293b" stroke="#334155" stroke-width="1" rx="8" filter="url(#shadow)">
      <animate attributeName="opacity" values="0;1" dur="0.6s" begin="0.4s" fill="freeze"/>
      <animateTransform attributeName="transform" type="scale" values="0.8;1" dur="0.6s" begin="0.4s" fill="freeze"/>
    </rect>
    <text x="103.33333333333333" y="25" text-anchor="middle" fill="#94a3b8" font-size="14" font-weight="bold" font-family="Arial, sans-serif">PUBLIC
      <animate attributeName="opacity" values="0;1" dur="0.5s" begin="0.6s" fill="freeze"/>
    </text>
    
    <text x="103.33333333333333" y="50" text-anchor="middle" fill="#6b7280" font-size="32" font-weight="bold" font-family="Arial, sans-serif">
      →
      <animate attributeName="opacity" values="0;1" dur="0.5s" begin="0.8s" fill="freeze"/>
      <animateTransform attributeName="transform" type="scale" values="0;1.2;1" dur="0.8s" begin="0.8s" fill="freeze"/>
    </text>
    
    <text x="103.33333333333333" y="75" text-anchor="middle" fill="#f8fafc" font-size="18" font-weight="bold" font-family="Arial, sans-serif">
      0
      <animate attributeName="opacity" values="0;1" dur="0.5s" begin="1s" fill="freeze"/>
    </text>
    
    <text x="103.33333333333333" y="95" text-anchor="middle" fill="#94a3b8" font-size="12" font-family="Arial, sans-serif">
      #6 → #6
      <animate attributeName="opacity" values="0;1" dur="0.5s" begin="1.2s" fill="freeze"/>
    </text>
  </g>
  
  <!-- Total Contributions Card -->
  <g transform="translate(533.3333333333333, 100)">
    <rect width="206.66666666666666" height="120" fill="#1e293b" stroke="#334155" stroke-width="1" rx="8" filter="url(#shadow)">
      <animate attributeName="opacity" values="0;1" dur="0.6s" begin="0.6s" fill="freeze"/>
      <animateTransform attributeName="transform" type="scale" values="0.8;1" dur="0.6s" begin="0.6s" fill="freeze"/>
    </rect>
    <text x="103.33333333333333" y="25" text-anchor="middle" fill="#94a3b8" font-size="14" font-weight="bold" font-family="Arial, sans-serif">TOTAL
      <animate attributeName="opacity" values="0;1" dur="0.5s" begin="0.8s" fill="freeze"/>
    </text>
    
    <text x="103.33333333333333" y="50" text-anchor="middle" fill="#22c55e" font-size="32" font-weight="bold" font-family="Arial, sans-serif">
      ↗
      <animate attributeName="opacity" values="0;1" dur="0.5s" begin="1s" fill="freeze"/>
      <animateTransform attributeName="transform" type="scale" values="0;1.2;1" dur="0.8s" begin="1s" fill="freeze"/>
    </text>
    
    <text x="103.33333333333333" y="75" text-anchor="middle" fill="#f8fafc" font-size="18" font-weight="bold" font-family="Arial, sans-serif">
      +5
      <animate attributeName="opacity" values="0;1" dur="0.5s" begin="1.2s" fill="freeze"/>
    </text>
    
    <text x="103.33333333333333" y="95" text-anchor="middle" fill="#94a3b8" font-size="12" font-family="Arial, sans-serif">
      #18 → #13
      <animate attributeName="opacity" values="0;1" dur="0.5s" begin="1.4s" fill="freeze"/>
    </text>
  </g>
  
  <!-- Timeline Charts (if we have snapshots) -->
  
  <!-- 👥 Followers Count Chart -->
  <g transform="translate(60, 250)">
    <!-- Chart Background -->
    <rect x="0" y="0" width="213.33333333333334" height="200" fill="#0f172a" stroke="#334155" stroke-width="1" rx="8" filter="url(#shadow)">
      <animate attributeName="opacity" values="0;1" dur="0.5s" begin="1.8s" fill="freeze"/>
    </rect>
    
    <!-- Chart Title -->
    <text x="106.66666666666667" y="25" text-anchor="middle" fill="#f8fafc" font-size="14" font-weight="bold" font-family="Arial, sans-serif">
      👥 Followers Count
      <animate attributeName="opacity" values="0;1" dur="0.5s" begin="2s" fill="freeze"/>
    </text>
    
    <!-- Y-axis labels -->
    <text x="10" y="45" fill="#94a3b8" font-size="10" font-family="Arial, sans-serif">153
      <animate attributeName="opacity" values="0;1" dur="0.5s" begin="2.2s" fill="freeze"/>
    </text>
    <text x="10" y="185" fill="#94a3b8" font-size="10" font-family="Arial, sans-serif">149
      <animate attributeName="opacity" values="0;1" dur="0.5s" begin="2.2s" fill="freeze"/>
    </text>
    
    <!-- Chart Line with draw animation that follows the circle -->
    <path d="M 30,160 L 30.02863591107176,160 L 30.060855790988548,160 L 31.547557747282358,160 L 31.57769892526903,160 L 31.608664416090058,160 L 33.098502345123265,160 L 33.12807008809473,160 L 33.15625800306086,160 L 34.64890934763742,160 L 34.67018020273265,160 L 34.69962250679454,160 L 36.191736256044344,160 L 36.21909985817612,160 L 36.250817982454606,160 L 37.74070967102049,160 L 37.76791199455424,160 L 37.79785605425443,160 L 39.289127570825656,160 L 39.314896306821396,160 L 39.34666819063255,160 L 40.838620661284324,160 L 40.864389397280064,160 L 40.88827654963217,160 L 42.392199476226324,160 L 42.41415128540211,160 L 42.44610236765553,160 L 43.93576109824648,160 L 43.96102807860392,160 L 43.98944895154497,160 L 45.48330092568462,160 L 45.50555737221223,160 L 45.53921083966703,160 L 47.02998060059994,160 L 47.05610773348018,160 L 47.08816633479894,160 L 48.57653483660569,160 L 48.60090582475188,160 L 48.6355807233275,160 L 50.1207057333295,160 L 50.152190899633055,160 L 50.184518298615195,160 L 51.674427907025304,160 L 51.69956944847316,160 L 51.729065512067734,160 L 53.224781150006784,160 L 53.25192971400786,160 L 53.28492014722632,160 L 54.770439393801276,160 L 54.80215751807976,160 L 54.83720873338412,160 L 56.32177822821514,160 L 56.34589833854216,160 L 56.377455184222626,160 L 57.871110040075784,160 L 57.893527765201426,160 L 57.92515629025878,160 L 59.41597981072438,160 L 59.440709195755055,160 L 59.47167468657608,160 L 60.96482778679095,160 L 60.99290818269172,160 L 62.51557526634537,160 L 62.54137984202956,160 L 62.565840429396864,160 L 64.06454868132153,160 L 64.094277702891,160 L 64.12807452909962,160 L 65.60298522789329,160 L 65.63923707276072,160 L 65.67014880404908,160 L 67.15760339380034,160 L 67.17701058509616,160 L 67.21380002529035,160 L 68.70637969049001,160 L 68.73390457121982,160 L 68.76442206593521,160 L 70.25694797160219,160 L 70.28294966557286,160 L 70.31047454630266,160 L 71.801118868326,160 L 71.83079413036282,160 L 71.86021851458048,160 L 73.34847949732188,160 L 73.37568182085562,160 L 73.40636059416906,160 L 74.90182535428895,160 L 74.93241452838126,160 L 74.96540496159972,160 L 76.45264451322029,160 L 76.47577903211493,160 L 76.52690434768923,160 L 78.00163584804065,160 L 78.02516460350824,160 L 78.05473234647972,160 L 79.54473155411097,160 L 79.57236395390612,160 L 79.60157329999308,160 L 81.09230722123755,160 L 81.11891818991187,160 L 81.14963280291374,160 L 82.64162111325396,160 L 82.6695939900894,160 L 82.69518352764288,160 L 84.18774527299831,160 L 84.21541351248192,160 L 84.24447949981507,160 L 85.74291895407634,160 L 85.77207454063064,160 L 85.80255619565759,160 L 87.2853337060661,160 L 87.31465057121841,130 L 87.34506054686847,130 L 88.83988019259627,130 L 88.86070305158586,130 L 88.8890343253058,130 L 90.3823666239629,130 L 90.40229349074124,130 L 90.44037315971966,130 L 91.93284530585396,130 L 91.96164249552373,130 L 91.9859955638257,130 L 93.47506293955723,130 L 93.50769497589118,130 L 93.53944893985812,130 L 95.03048749845442,130 L 95.04548640807084,130 L 95.08388863424531,130 L 96.57842156246551,130 L 96.60840146185414,130 L 96.6433809977816,130 L 98.12662442413996,130 L 98.15309203406048,130 L 98.18893172251074,130 L 99.67204970995954,130 L 99.70206544903662,130 L 99.73536051960693,130 L 101.22378278094635,130 L 101.24564499090101,130 L 101.27668216109895,130 L 102.76770279985101,130 L 102.79261138332394,130 L 102.8247416640196,130 L 104.31888035566683,130 L 104.34826890019606,130 L 104.37391219728222,130 L 105.86599010684357,130 L 105.89881926146401,130 L 105.92173874222796,130 L 107.41627167044814,130 L 107.44515845933905,130 L 107.47841769022091,130 L 108.96504796713782,130 L 108.99323588210396,130 L 109.02726566628748,130 L 110.5124085961337,130 L 110.53806981306408,130 L 110.57009257469439,130 L 112.06208088503462,130 L 112.09007168171428,130 L 112.122524519606,130 L 113.60646681988914,130 L 113.64408057291767,130 L 113.66585318365122,130 L 115.15497431891541,130 L 115.18427326422352,130 L 115.2134288507778,130 L 116.69910937595077,130 L 116.73143677493292,130 L 116.75845990002442,130 L 117.83873978929225,130 L 118.25399633952121,130 L 118.28612662021689,130 L 118.31997720595815,130 L 119.80209168213032,130 L 119.83018999787534,130 L 119.86309083187268,130 L 121.34846671969382,130 L 121.37013181136201,130 L 121.40647325545058,130 L 122.8988199626753,130 L 122.92587892745526,130 L 122.95734617391459,130 L 124.44718410294779,130 L 124.47967278052796,130 L 124.5131470495405,130 L 125.99357706035552,130 L 126.02124529983912,130 L 126.05767634314881,130 L 127.54617028386514,130 L 127.56977071870963,130 L 127.5988367060428,130 L 129.09313667628805,130 L 129.12664678498908,130 L 129.15802443222728,130 L 130.64051522512818,130 L 130.6706743229591,130 L 130.70454282854456,130 L 132.18660354518408,130 L 132.21601000955752,130 L 132.249161721374,130 L 133.73810365819597,130 L 133.76559269923732,130 L 133.79370893482655,130 L 135.28462205451325,130 L 135.31241573290646,130 L 135.34581832254207,130 L 136.82399043298471,130 L 136.86079779302315,130 L 136.89167368462307,130 L 138.38034682378162,130 L 138.4020835948267,130 L 138.44116677508174,130 L 139.9304671087882,130 L 139.9631349848106,130 L 139.9975590055671,130 L 141.48094579067924,130 L 141.51083609084674,130 L 141.54250045559257,130 L 143.02004537148733,130 L 143.05251612922328,130 L 143.0848972877381,130 L 144.5731045109468,130 L 144.60349656675263,130 L 144.63822522486095,130 L 146.12186288779225,130 L 146.14983576462768,130 L 146.18071165622757,130 L 147.67126637902982,130 L 147.69119324580817,130 L 147.74011442054274,130 L 149.21690670298005,130 L 149.24706580081096,130 L 149.2768127422247,130 L 150.76804841910746,130 L 150.8022932414217,130 L 150.8334558505292,130 L 152.31557032670136,130 L 152.34572942453224,130 L 152.380493922329,130 L 153.86173032613416,130 L 153.89136974848253,130 L 153.9183749537298,130 L 155.41235236677903,130 L 155.44297738055977,130 L 155.474516306396,130 L 156.96528606732892,130 L 156.99410117684292,130 L 157.02252204978396,130 L 158.50775457885135,130 L 158.53855879107434,40 L 158.57065323208155,40 L 160.0618172295874,40 L 160.083195603748,40 L 160.11267374749835,40 L 161.60622108428615,40 L 161.63012615648248,40 L 161.67254242776337,40 L 163.1563413692927,40 L 163.18782653559626,40 L 163.21547685523564,40 L 164.69834396486527,40 L 164.73283966499866,40 L 164.76661857136304,40 L 166.2561518630444,40 L 166.2714195703242,40 L 166.31279649064004,40 L 167.80132627104481,40 L 167.8339583073788,40 L 167.87081942694988,40 L 169.34972625100576,40 L 169.38047670369608,40 L 169.41988244114717,40 L 170.89561745277518,40 L 170.92832116848604,40 L 170.96647251684135,40 L 172.45247559921037,40 L 172.48890664252008,40 L 173.994800751979,40 L 174.07140808604143,40 L 175.54332617084953,40 L 175.5814058398279,40 L 175.61755016563,40 L 177.09122439517216,40 L 177.13134692639224,40 L 177.15896140634314,40 L 178.64277826771672,40 L 178.67636005579462,40 L 178.7140634080443,40 L 180.18560517612363,40 L 180.2191690443573,40 L 180.25692615613966,40 L 181.73624513661272,40 L 181.76923556983118,40 L 181.8046272621758,40 L 183.28998523015275,40 L 183.33333333333334,40" stroke="#22c55e" stroke-width="2" fill="none" stroke-dasharray="14850" stroke-dashoffset="14850">
      <animate attributeName="stroke-dashoffset" values="14850;0" dur="3s" begin="2.6s" fill="freeze"/>
    </path>
    
    <!-- Glow effect for the line that also follows the circle -->
    <path d="M 30,160 L 30.02863591107176,160 L 30.060855790988548,160 L 31.547557747282358,160 L 31.57769892526903,160 L 31.608664416090058,160 L 33.098502345123265,160 L 33.12807008809473,160 L 33.15625800306086,160 L 34.64890934763742,160 L 34.67018020273265,160 L 34.69962250679454,160 L 36.191736256044344,160 L 36.21909985817612,160 L 36.250817982454606,160 L 37.74070967102049,160 L 37.76791199455424,160 L 37.79785605425443,160 L 39.289127570825656,160 L 39.314896306821396,160 L 39.34666819063255,160 L 40.838620661284324,160 L 40.864389397280064,160 L 40.88827654963217,160 L 42.392199476226324,160 L 42.41415128540211,160 L 42.44610236765553,160 L 43.93576109824648,160 L 43.96102807860392,160 L 43.98944895154497,160 L 45.48330092568462,160 L 45.50555737221223,160 L 45.53921083966703,160 L 47.02998060059994,160 L 47.05610773348018,160 L 47.08816633479894,160 L 48.57653483660569,160 L 48.60090582475188,160 L 48.6355807233275,160 L 50.1207057333295,160 L 50.152190899633055,160 L 50.184518298615195,160 L 51.674427907025304,160 L 51.69956944847316,160 L 51.729065512067734,160 L 53.224781150006784,160 L 53.25192971400786,160 L 53.28492014722632,160 L 54.770439393801276,160 L 54.80215751807976,160 L 54.83720873338412,160 L 56.32177822821514,160 L 56.34589833854216,160 L 56.377455184222626,160 L 57.871110040075784,160 L 57.893527765201426,160 L 57.92515629025878,160 L 59.41597981072438,160 L 59.440709195755055,160 L 59.47167468657608,160 L 60.96482778679095,160 L 60.99290818269172,160 L 62.51557526634537,160 L 62.54137984202956,160 L 62.565840429396864,160 L 64.06454868132153,160 L 64.094277702891,160 L 64.12807452909962,160 L 65.60298522789329,160 L 65.63923707276072,160 L 65.67014880404908,160 L 67.15760339380034,160 L 67.17701058509616,160 L 67.21380002529035,160 L 68.70637969049001,160 L 68.73390457121982,160 L 68.76442206593521,160 L 70.25694797160219,160 L 70.28294966557286,160 L 70.31047454630266,160 L 71.801118868326,160 L 71.83079413036282,160 L 71.86021851458048,160 L 73.34847949732188,160 L 73.37568182085562,160 L 73.40636059416906,160 L 74.90182535428895,160 L 74.93241452838126,160 L 74.96540496159972,160 L 76.45264451322029,160 L 76.47577903211493,160 L 76.52690434768923,160 L 78.00163584804065,160 L 78.02516460350824,160 L 78.05473234647972,160 L 79.54473155411097,160 L 79.57236395390612,160 L 79.60157329999308,160 L 81.09230722123755,160 L 81.11891818991187,160 L 81.14963280291374,160 L 82.64162111325396,160 L 82.6695939900894,160 L 82.69518352764288,160 L 84.18774527299831,160 L 84.21541351248192,160 L 84.24447949981507,160 L 85.74291895407634,160 L 85.77207454063064,160 L 85.80255619565759,160 L 87.2853337060661,160 L 87.31465057121841,130 L 87.34506054686847,130 L 88.83988019259627,130 L 88.86070305158586,130 L 88.8890343253058,130 L 90.3823666239629,130 L 90.40229349074124,130 L 90.44037315971966,130 L 91.93284530585396,130 L 91.96164249552373,130 L 91.9859955638257,130 L 93.47506293955723,130 L 93.50769497589118,130 L 93.53944893985812,130 L 95.03048749845442,130 L 95.04548640807084,130 L 95.08388863424531,130 L 96.57842156246551,130 L 96.60840146185414,130 L 96.6433809977816,130 L 98.12662442413996,130 L 98.15309203406048,130 L 98.18893172251074,130 L 99.67204970995954,130 L 99.70206544903662,130 L 99.73536051960693,130 L 101.22378278094635,130 L 101.24564499090101,130 L 101.27668216109895,130 L 102.76770279985101,130 L 102.79261138332394,130 L 102.8247416640196,130 L 104.31888035566683,130 L 104.34826890019606,130 L 104.37391219728222,130 L 105.86599010684357,130 L 105.89881926146401,130 L 105.92173874222796,130 L 107.41627167044814,130 L 107.44515845933905,130 L 107.47841769022091,130 L 108.96504796713782,130 L 108.99323588210396,130 L 109.02726566628748,130 L 110.5124085961337,130 L 110.53806981306408,130 L 110.57009257469439,130 L 112.06208088503462,130 L 112.09007168171428,130 L 112.122524519606,130 L 113.60646681988914,130 L 113.64408057291767,130 L 113.66585318365122,130 L 115.15497431891541,130 L 115.18427326422352,130 L 115.2134288507778,130 L 116.69910937595077,130 L 116.73143677493292,130 L 116.75845990002442,130 L 117.83873978929225,130 L 118.25399633952121,130 L 118.28612662021689,130 L 118.31997720595815,130 L 119.80209168213032,130 L 119.83018999787534,130 L 119.86309083187268,130 L 121.34846671969382,130 L 121.37013181136201,130 L 121.40647325545058,130 L 122.8988199626753,130 L 122.92587892745526,130 L 122.95734617391459,130 L 124.44718410294779,130 L 124.47967278052796,130 L 124.5131470495405,130 L 125.99357706035552,130 L 126.02124529983912,130 L 126.05767634314881,130 L 127.54617028386514,130 L 127.56977071870963,130 L 127.5988367060428,130 L 129.09313667628805,130 L 129.12664678498908,130 L 129.15802443222728,130 L 130.64051522512818,130 L 130.6706743229591,130 L 130.70454282854456,130 L 132.18660354518408,130 L 132.21601000955752,130 L 132.249161721374,130 L 133.73810365819597,130 L 133.76559269923732,130 L 133.79370893482655,130 L 135.28462205451325,130 L 135.31241573290646,130 L 135.34581832254207,130 L 136.82399043298471,130 L 136.86079779302315,130 L 136.89167368462307,130 L 138.38034682378162,130 L 138.4020835948267,130 L 138.44116677508174,130 L 139.9304671087882,130 L 139.9631349848106,130 L 139.9975590055671,130 L 141.48094579067924,130 L 141.51083609084674,130 L 141.54250045559257,130 L 143.02004537148733,130 L 143.05251612922328,130 L 143.0848972877381,130 L 144.5731045109468,130 L 144.60349656675263,130 L 144.63822522486095,130 L 146.12186288779225,130 L 146.14983576462768,130 L 146.18071165622757,130 L 147.67126637902982,130 L 147.69119324580817,130 L 147.74011442054274,130 L 149.21690670298005,130 L 149.24706580081096,130 L 149.2768127422247,130 L 150.76804841910746,130 L 150.8022932414217,130 L 150.8334558505292,130 L 152.31557032670136,130 L 152.34572942453224,130 L 152.380493922329,130 L 153.86173032613416,130 L 153.89136974848253,130 L 153.9183749537298,130 L 155.41235236677903,130 L 155.44297738055977,130 L 155.474516306396,130 L 156.96528606732892,130 L 156.99410117684292,130 L 157.02252204978396,130 L 158.50775457885135,130 L 158.53855879107434,40 L 158.57065323208155,40 L 160.0618172295874,40 L 160.083195603748,40 L 160.11267374749835,40 L 161.60622108428615,40 L 161.63012615648248,40 L 161.67254242776337,40 L 163.1563413692927,40 L 163.18782653559626,40 L 163.21547685523564,40 L 164.69834396486527,40 L 164.73283966499866,40 L 164.76661857136304,40 L 166.2561518630444,40 L 166.2714195703242,40 L 166.31279649064004,40 L 167.80132627104481,40 L 167.8339583073788,40 L 167.87081942694988,40 L 169.34972625100576,40 L 169.38047670369608,40 L 169.41988244114717,40 L 170.89561745277518,40 L 170.92832116848604,40 L 170.96647251684135,40 L 172.45247559921037,40 L 172.48890664252008,40 L 173.994800751979,40 L 174.07140808604143,40 L 175.54332617084953,40 L 175.5814058398279,40 L 175.61755016563,40 L 177.09122439517216,40 L 177.13134692639224,40 L 177.15896140634314,40 L 178.64277826771672,40 L 178.67636005579462,40 L 178.7140634080443,40 L 180.18560517612363,40 L 180.2191690443573,40 L 180.25692615613966,40 L 181.73624513661272,40 L 181.76923556983118,40 L 181.8046272621758,40 L 183.28998523015275,40 L 183.33333333333334,40" stroke="#22c55e" stroke-width="4" fill="none" opacity="0.4" stroke-dasharray="14850" stroke-dashoffset="14850">
      <animate attributeName="stroke-dashoffset" values="14850;0" dur="3s" begin="2.6s" fill="freeze"/>
    </path>
    
    <!-- Animated circle that moves along the path and draws the line -->
    <circle r="5" fill="#22c55e" opacity="0" filter="url(#trailGlow)">
      <animate attributeName="opacity" values="0;1;1;1" dur="3.2s" begin="2.4s" fill="freeze"/>
      <animate attributeName="r" values="5;6;5" dur="1s" begin="2.4s" repeatCount="3"/>
      <animateMotion dur="3s" begin="2.4s" fill="freeze">
        <mpath href="#path_followersCount_60"/>
      </animateMotion>
    </circle>
    
    <!-- Small trail dots that fade out -->
    <circle r="2" fill="#22c55e" opacity="0">
      <animate attributeName="opacity" values="0;0.6;0" dur="0.8s" begin="2.8s" fill="freeze"/>
      <animateMotion dur="3s" begin="2.4s" fill="freeze">
        <mpath href="#path_followersCount_60"/>
      </animateMotion>
    </circle>
    
    <!-- Hidden path for motion animation -->
    <path id="path_followersCount_60" d="M 30,160 L 30.02863591107176,160 L 30.060855790988548,160 L 31.547557747282358,160 L 31.57769892526903,160 L 31.608664416090058,160 L 33.098502345123265,160 L 33.12807008809473,160 L 33.15625800306086,160 L 34.64890934763742,160 L 34.67018020273265,160 L 34.69962250679454,160 L 36.191736256044344,160 L 36.21909985817612,160 L 36.250817982454606,160 L 37.74070967102049,160 L 37.76791199455424,160 L 37.79785605425443,160 L 39.289127570825656,160 L 39.314896306821396,160 L 39.34666819063255,160 L 40.838620661284324,160 L 40.864389397280064,160 L 40.88827654963217,160 L 42.392199476226324,160 L 42.41415128540211,160 L 42.44610236765553,160 L 43.93576109824648,160 L 43.96102807860392,160 L 43.98944895154497,160 L 45.48330092568462,160 L 45.50555737221223,160 L 45.53921083966703,160 L 47.02998060059994,160 L 47.05610773348018,160 L 47.08816633479894,160 L 48.57653483660569,160 L 48.60090582475188,160 L 48.6355807233275,160 L 50.1207057333295,160 L 50.152190899633055,160 L 50.184518298615195,160 L 51.674427907025304,160 L 51.69956944847316,160 L 51.729065512067734,160 L 53.224781150006784,160 L 53.25192971400786,160 L 53.28492014722632,160 L 54.770439393801276,160 L 54.80215751807976,160 L 54.83720873338412,160 L 56.32177822821514,160 L 56.34589833854216,160 L 56.377455184222626,160 L 57.871110040075784,160 L 57.893527765201426,160 L 57.92515629025878,160 L 59.41597981072438,160 L 59.440709195755055,160 L 59.47167468657608,160 L 60.96482778679095,160 L 60.99290818269172,160 L 62.51557526634537,160 L 62.54137984202956,160 L 62.565840429396864,160 L 64.06454868132153,160 L 64.094277702891,160 L 64.12807452909962,160 L 65.60298522789329,160 L 65.63923707276072,160 L 65.67014880404908,160 L 67.15760339380034,160 L 67.17701058509616,160 L 67.21380002529035,160 L 68.70637969049001,160 L 68.73390457121982,160 L 68.76442206593521,160 L 70.25694797160219,160 L 70.28294966557286,160 L 70.31047454630266,160 L 71.801118868326,160 L 71.83079413036282,160 L 71.86021851458048,160 L 73.34847949732188,160 L 73.37568182085562,160 L 73.40636059416906,160 L 74.90182535428895,160 L 74.93241452838126,160 L 74.96540496159972,160 L 76.45264451322029,160 L 76.47577903211493,160 L 76.52690434768923,160 L 78.00163584804065,160 L 78.02516460350824,160 L 78.05473234647972,160 L 79.54473155411097,160 L 79.57236395390612,160 L 79.60157329999308,160 L 81.09230722123755,160 L 81.11891818991187,160 L 81.14963280291374,160 L 82.64162111325396,160 L 82.6695939900894,160 L 82.69518352764288,160 L 84.18774527299831,160 L 84.21541351248192,160 L 84.24447949981507,160 L 85.74291895407634,160 L 85.77207454063064,160 L 85.80255619565759,160 L 87.2853337060661,160 L 87.31465057121841,130 L 87.34506054686847,130 L 88.83988019259627,130 L 88.86070305158586,130 L 88.8890343253058,130 L 90.3823666239629,130 L 90.40229349074124,130 L 90.44037315971966,130 L 91.93284530585396,130 L 91.96164249552373,130 L 91.9859955638257,130 L 93.47506293955723,130 L 93.50769497589118,130 L 93.53944893985812,130 L 95.03048749845442,130 L 95.04548640807084,130 L 95.08388863424531,130 L 96.57842156246551,130 L 96.60840146185414,130 L 96.6433809977816,130 L 98.12662442413996,130 L 98.15309203406048,130 L 98.18893172251074,130 L 99.67204970995954,130 L 99.70206544903662,130 L 99.73536051960693,130 L 101.22378278094635,130 L 101.24564499090101,130 L 101.27668216109895,130 L 102.76770279985101,130 L 102.79261138332394,130 L 102.8247416640196,130 L 104.31888035566683,130 L 104.34826890019606,130 L 104.37391219728222,130 L 105.86599010684357,130 L 105.89881926146401,130 L 105.92173874222796,130 L 107.41627167044814,130 L 107.44515845933905,130 L 107.47841769022091,130 L 108.96504796713782,130 L 108.99323588210396,130 L 109.02726566628748,130 L 110.5124085961337,130 L 110.53806981306408,130 L 110.57009257469439,130 L 112.06208088503462,130 L 112.09007168171428,130 L 112.122524519606,130 L 113.60646681988914,130 L 113.64408057291767,130 L 113.66585318365122,130 L 115.15497431891541,130 L 115.18427326422352,130 L 115.2134288507778,130 L 116.69910937595077,130 L 116.73143677493292,130 L 116.75845990002442,130 L 117.83873978929225,130 L 118.25399633952121,130 L 118.28612662021689,130 L 118.31997720595815,130 L 119.80209168213032,130 L 119.83018999787534,130 L 119.86309083187268,130 L 121.34846671969382,130 L 121.37013181136201,130 L 121.40647325545058,130 L 122.8988199626753,130 L 122.92587892745526,130 L 122.95734617391459,130 L 124.44718410294779,130 L 124.47967278052796,130 L 124.5131470495405,130 L 125.99357706035552,130 L 126.02124529983912,130 L 126.05767634314881,130 L 127.54617028386514,130 L 127.56977071870963,130 L 127.5988367060428,130 L 129.09313667628805,130 L 129.12664678498908,130 L 129.15802443222728,130 L 130.64051522512818,130 L 130.6706743229591,130 L 130.70454282854456,130 L 132.18660354518408,130 L 132.21601000955752,130 L 132.249161721374,130 L 133.73810365819597,130 L 133.76559269923732,130 L 133.79370893482655,130 L 135.28462205451325,130 L 135.31241573290646,130 L 135.34581832254207,130 L 136.82399043298471,130 L 136.86079779302315,130 L 136.89167368462307,130 L 138.38034682378162,130 L 138.4020835948267,130 L 138.44116677508174,130 L 139.9304671087882,130 L 139.9631349848106,130 L 139.9975590055671,130 L 141.48094579067924,130 L 141.51083609084674,130 L 141.54250045559257,130 L 143.02004537148733,130 L 143.05251612922328,130 L 143.0848972877381,130 L 144.5731045109468,130 L 144.60349656675263,130 L 144.63822522486095,130 L 146.12186288779225,130 L 146.14983576462768,130 L 146.18071165622757,130 L 147.67126637902982,130 L 147.69119324580817,130 L 147.74011442054274,130 L 149.21690670298005,130 L 149.24706580081096,130 L 149.2768127422247,130 L 150.76804841910746,130 L 150.8022932414217,130 L 150.8334558505292,130 L 152.31557032670136,130 L 152.34572942453224,130 L 152.380493922329,130 L 153.86173032613416,130 L 153.89136974848253,130 L 153.9183749537298,130 L 155.41235236677903,130 L 155.44297738055977,130 L 155.474516306396,130 L 156.96528606732892,130 L 156.99410117684292,130 L 157.02252204978396,130 L 158.50775457885135,130 L 158.53855879107434,40 L 158.57065323208155,40 L 160.0618172295874,40 L 160.083195603748,40 L 160.11267374749835,40 L 161.60622108428615,40 L 161.63012615648248,40 L 161.67254242776337,40 L 163.1563413692927,40 L 163.18782653559626,40 L 163.21547685523564,40 L 164.69834396486527,40 L 164.73283966499866,40 L 164.76661857136304,40 L 166.2561518630444,40 L 166.2714195703242,40 L 166.31279649064004,40 L 167.80132627104481,40 L 167.8339583073788,40 L 167.87081942694988,40 L 169.34972625100576,40 L 169.38047670369608,40 L 169.41988244114717,40 L 170.89561745277518,40 L 170.92832116848604,40 L 170.96647251684135,40 L 172.45247559921037,40 L 172.48890664252008,40 L 173.994800751979,40 L 174.07140808604143,40 L 175.54332617084953,40 L 175.5814058398279,40 L 175.61755016563,40 L 177.09122439517216,40 L 177.13134692639224,40 L 177.15896140634314,40 L 178.64277826771672,40 L 178.67636005579462,40 L 178.7140634080443,40 L 180.18560517612363,40 L 180.2191690443573,40 L 180.25692615613966,40 L 181.73624513661272,40 L 181.76923556983118,40 L 181.8046272621758,40 L 183.28998523015275,40 L 183.33333333333334,40" fill="none" stroke="none"/>
  </g>
  <!-- 🔓 Public Contributions Chart -->
  <g transform="translate(293.33333333333337, 250)">
    <!-- Chart Background -->
    <rect x="0" y="0" width="213.33333333333334" height="200" fill="#0f172a" stroke="#334155" stroke-width="1" rx="8" filter="url(#shadow)">
      <animate attributeName="opacity" values="0;1" dur="0.5s" begin="2.3s" fill="freeze"/>
    </rect>
    
    <!-- Chart Title -->
    <text x="106.66666666666667" y="25" text-anchor="middle" fill="#f8fafc" font-size="14" font-weight="bold" font-family="Arial, sans-serif">
      🔓 Public Contributions
      <animate attributeName="opacity" values="0;1" dur="0.5s" begin="2.5s" fill="freeze"/>
    </text>
    
    <!-- Y-axis labels -->
    <text x="10" y="45" fill="#94a3b8" font-size="10" font-family="Arial, sans-serif">3,861
      <animate attributeName="opacity" values="0;1" dur="0.5s" begin="2.6999999999999997s" fill="freeze"/>
    </text>
    <text x="10" y="185" fill="#94a3b8" font-size="10" font-family="Arial, sans-serif">3,180
      <animate attributeName="opacity" values="0;1" dur="0.5s" begin="2.6999999999999997s" fill="freeze"/>
    </text>
    
    <!-- Chart Line with draw animation that follows the circle -->
    <path d="M 30,160 L 30.02863591107176,160 L 30.060855790988548,160 L 31.547557747282358,160 L 31.57769892526903,160 L 31.608664416090058,160 L 33.098502345123265,160 L 33.12807008809473,160 L 33.15625800306086,160 L 34.64890934763742,160 L 34.67018020273265,160 L 34.69962250679454,160 L 36.191736256044344,160 L 36.21909985817612,160 L 36.250817982454606,160 L 37.74070967102049,160 L 37.76791199455424,160 L 37.79785605425443,160 L 39.289127570825656,160 L 39.314896306821396,160 L 39.34666819063255,160 L 40.838620661284324,160 L 40.864389397280064,160 L 40.88827654963217,160 L 42.392199476226324,160 L 42.41415128540211,160 L 42.44610236765553,160 L 43.93576109824648,160 L 43.96102807860392,160 L 43.98944895154497,160 L 45.48330092568462,160 L 45.50555737221223,160 L 45.53921083966703,160 L 47.02998060059994,160 L 47.05610773348018,160 L 47.08816633479894,160 L 48.57653483660569,160 L 48.60090582475188,160 L 48.6355807233275,160 L 50.1207057333295,160 L 50.152190899633055,160 L 50.184518298615195,160 L 51.674427907025304,160 L 51.69956944847316,160 L 51.729065512067734,160 L 53.224781150006784,160 L 53.25192971400786,160 L 53.28492014722632,160 L 54.770439393801276,160 L 54.80215751807976,160 L 54.83720873338412,160 L 56.32177822821514,160 L 56.34589833854216,160 L 56.377455184222626,160 L 57.871110040075784,160 L 57.893527765201426,160 L 57.92515629025878,160 L 59.41597981072438,160 L 59.440709195755055,160 L 59.47167468657608,160 L 60.96482778679095,160 L 60.99290818269172,160 L 62.51557526634537,160 L 62.54137984202956,160 L 62.565840429396864,160 L 64.06454868132153,160 L 64.094277702891,160 L 64.12807452909962,160 L 65.60298522789329,160 L 65.63923707276072,160 L 65.67014880404908,160 L 67.15760339380034,160 L 67.17701058509616,160 L 67.21380002529035,160 L 68.70637969049001,160 L 68.73390457121982,160 L 68.76442206593521,160 L 70.25694797160219,160 L 70.28294966557286,160 L 70.31047454630266,160 L 71.801118868326,160 L 71.83079413036282,160 L 71.86021851458048,160 L 73.34847949732188,160 L 73.37568182085562,160 L 73.40636059416906,160 L 74.90182535428895,160 L 74.93241452838126,160 L 74.96540496159972,160 L 76.45264451322029,160 L 76.47577903211493,160 L 76.52690434768923,160 L 78.00163584804065,160 L 78.02516460350824,160 L 78.05473234647972,160 L 79.54473155411097,160 L 79.57236395390612,160 L 79.60157329999308,160 L 81.09230722123755,160 L 81.11891818991187,160 L 81.14963280291374,160 L 82.64162111325396,160 L 82.6695939900894,160 L 82.69518352764288,160 L 84.18774527299831,160 L 84.21541351248192,160 L 84.24447949981507,160 L 85.74291895407634,160 L 85.77207454063064,160 L 85.80255619565759,160 L 87.2853337060661,160 L 87.31465057121841,115.24229074889868 L 87.34506054686847,115.24229074889868 L 88.83988019259627,115.24229074889868 L 88.86070305158586,115.24229074889868 L 88.8890343253058,115.24229074889868 L 90.3823666239629,115.24229074889868 L 90.40229349074124,115.24229074889868 L 90.44037315971966,115.24229074889868 L 91.93284530585396,115.24229074889868 L 91.96164249552373,115.24229074889868 L 91.9859955638257,115.24229074889868 L 93.47506293955723,115.24229074889868 L 93.50769497589118,115.24229074889868 L 93.53944893985812,115.24229074889868 L 95.03048749845442,115.24229074889868 L 95.04548640807084,115.24229074889868 L 95.08388863424531,115.24229074889868 L 96.57842156246551,115.24229074889868 L 96.60840146185414,115.24229074889868 L 96.6433809977816,115.24229074889868 L 98.12662442413996,115.24229074889868 L 98.15309203406048,115.24229074889868 L 98.18893172251074,115.24229074889868 L 99.67204970995954,115.24229074889868 L 99.70206544903662,115.24229074889868 L 99.73536051960693,115.24229074889868 L 101.22378278094635,115.24229074889868 L 101.24564499090101,115.24229074889868 L 101.27668216109895,115.24229074889868 L 102.76770279985101,115.24229074889868 L 102.79261138332394,115.24229074889868 L 102.8247416640196,115.24229074889868 L 104.31888035566683,115.24229074889868 L 104.34826890019606,115.24229074889868 L 104.37391219728222,115.24229074889868 L 105.86599010684357,115.24229074889868 L 105.89881926146401,115.24229074889868 L 105.92173874222796,115.24229074889868 L 107.41627167044814,115.24229074889868 L 107.44515845933905,115.24229074889868 L 107.47841769022091,115.24229074889868 L 108.96504796713782,115.24229074889868 L 108.99323588210396,115.24229074889868 L 109.02726566628748,115.24229074889868 L 110.5124085961337,115.24229074889868 L 110.53806981306408,115.24229074889868 L 110.57009257469439,115.24229074889868 L 112.06208088503462,115.24229074889868 L 112.09007168171428,115.24229074889868 L 112.122524519606,115.24229074889868 L 113.60646681988914,115.24229074889868 L 113.64408057291767,115.24229074889868 L 113.66585318365122,115.24229074889868 L 115.15497431891541,115.24229074889868 L 115.18427326422352,115.24229074889868 L 115.2134288507778,115.24229074889868 L 116.69910937595077,115.24229074889868 L 116.73143677493292,115.24229074889868 L 116.75845990002442,115.24229074889868 L 117.83873978929225,115.24229074889868 L 118.25399633952121,115.24229074889868 L 118.28612662021689,115.24229074889868 L 118.31997720595815,115.24229074889868 L 119.80209168213032,115.24229074889868 L 119.83018999787534,115.24229074889868 L 119.86309083187268,115.24229074889868 L 121.34846671969382,115.24229074889868 L 121.37013181136201,115.24229074889868 L 121.40647325545058,115.24229074889868 L 122.8988199626753,115.24229074889868 L 122.92587892745526,115.24229074889868 L 122.95734617391459,115.24229074889868 L 124.44718410294779,115.24229074889868 L 124.47967278052796,115.24229074889868 L 124.5131470495405,115.24229074889868 L 125.99357706035552,115.24229074889868 L 126.02124529983912,115.24229074889868 L 126.05767634314881,115.24229074889868 L 127.54617028386514,115.24229074889868 L 127.56977071870963,115.24229074889868 L 127.5988367060428,115.24229074889868 L 129.09313667628805,115.24229074889868 L 129.12664678498908,115.24229074889868 L 129.15802443222728,115.24229074889868 L 130.64051522512818,115.24229074889868 L 130.6706743229591,115.24229074889868 L 130.70454282854456,115.24229074889868 L 132.18660354518408,115.24229074889868 L 132.21601000955752,115.24229074889868 L 132.249161721374,115.24229074889868 L 133.73810365819597,115.24229074889868 L 133.76559269923732,115.24229074889868 L 133.79370893482655,115.24229074889868 L 135.28462205451325,115.24229074889868 L 135.31241573290646,115.24229074889868 L 135.34581832254207,115.24229074889868 L 136.82399043298471,115.24229074889868 L 136.86079779302315,115.24229074889868 L 136.89167368462307,115.24229074889868 L 138.38034682378162,115.24229074889868 L 138.4020835948267,115.24229074889868 L 138.44116677508174,115.24229074889868 L 139.9304671087882,115.24229074889868 L 139.9631349848106,115.24229074889868 L 139.9975590055671,115.24229074889868 L 141.48094579067924,115.24229074889868 L 141.51083609084674,115.24229074889868 L 141.54250045559257,115.24229074889868 L 143.02004537148733,115.24229074889868 L 143.05251612922328,115.24229074889868 L 143.0848972877381,115.24229074889868 L 144.5731045109468,115.24229074889868 L 144.60349656675263,115.24229074889868 L 144.63822522486095,115.24229074889868 L 146.12186288779225,115.24229074889868 L 146.14983576462768,115.24229074889868 L 146.18071165622757,115.24229074889868 L 147.67126637902982,115.24229074889868 L 147.69119324580817,115.24229074889868 L 147.74011442054274,115.24229074889868 L 149.21690670298005,115.24229074889868 L 149.24706580081096,115.24229074889868 L 149.2768127422247,115.24229074889868 L 150.76804841910746,115.24229074889868 L 150.8022932414217,115.24229074889868 L 150.8334558505292,115.24229074889868 L 152.31557032670136,115.24229074889868 L 152.34572942453224,115.24229074889868 L 152.380493922329,115.24229074889868 L 153.86173032613416,115.24229074889868 L 153.89136974848253,115.24229074889868 L 153.9183749537298,115.24229074889868 L 155.41235236677903,115.24229074889868 L 155.44297738055977,115.24229074889868 L 155.474516306396,115.24229074889868 L 156.96528606732892,115.24229074889868 L 156.99410117684292,115.24229074889868 L 157.02252204978396,115.24229074889868 L 158.50775457885135,115.24229074889868 L 158.53855879107434,40 L 158.57065323208155,40 L 160.0618172295874,40 L 160.083195603748,40 L 160.11267374749835,40 L 161.60622108428615,40 L 161.63012615648248,40 L 161.67254242776337,40 L 163.1563413692927,40 L 163.18782653559626,40 L 163.21547685523564,40 L 164.69834396486527,40 L 164.73283966499866,40 L 164.76661857136304,40 L 166.2561518630444,40 L 166.2714195703242,40 L 166.31279649064004,40 L 167.80132627104481,40 L 167.8339583073788,40 L 167.87081942694988,40 L 169.34972625100576,40 L 169.38047670369608,40 L 169.41988244114717,40 L 170.89561745277518,40 L 170.92832116848604,40 L 170.96647251684135,40 L 172.45247559921037,40 L 172.48890664252008,40 L 173.994800751979,40 L 174.07140808604143,40 L 175.54332617084953,40 L 175.5814058398279,40 L 175.61755016563,40 L 177.09122439517216,40 L 177.13134692639224,40 L 177.15896140634314,40 L 178.64277826771672,40 L 178.67636005579462,40 L 178.7140634080443,40 L 180.18560517612363,40 L 180.2191690443573,40 L 180.25692615613966,40 L 181.73624513661272,40 L 181.76923556983118,40 L 181.8046272621758,40 L 183.28998523015275,40 L 183.33333333333334,40" stroke="#3b82f6" stroke-width="2" fill="none" stroke-dasharray="14850" stroke-dashoffset="14850">
      <animate attributeName="stroke-dashoffset" values="14850;0" dur="3s" begin="3.0999999999999996s" fill="freeze"/>
    </path>
    
    <!-- Glow effect for the line that also follows the circle -->
    <path d="M 30,160 L 30.02863591107176,160 L 30.060855790988548,160 L 31.547557747282358,160 L 31.57769892526903,160 L 31.608664416090058,160 L 33.098502345123265,160 L 33.12807008809473,160 L 33.15625800306086,160 L 34.64890934763742,160 L 34.67018020273265,160 L 34.69962250679454,160 L 36.191736256044344,160 L 36.21909985817612,160 L 36.250817982454606,160 L 37.74070967102049,160 L 37.76791199455424,160 L 37.79785605425443,160 L 39.289127570825656,160 L 39.314896306821396,160 L 39.34666819063255,160 L 40.838620661284324,160 L 40.864389397280064,160 L 40.88827654963217,160 L 42.392199476226324,160 L 42.41415128540211,160 L 42.44610236765553,160 L 43.93576109824648,160 L 43.96102807860392,160 L 43.98944895154497,160 L 45.48330092568462,160 L 45.50555737221223,160 L 45.53921083966703,160 L 47.02998060059994,160 L 47.05610773348018,160 L 47.08816633479894,160 L 48.57653483660569,160 L 48.60090582475188,160 L 48.6355807233275,160 L 50.1207057333295,160 L 50.152190899633055,160 L 50.184518298615195,160 L 51.674427907025304,160 L 51.69956944847316,160 L 51.729065512067734,160 L 53.224781150006784,160 L 53.25192971400786,160 L 53.28492014722632,160 L 54.770439393801276,160 L 54.80215751807976,160 L 54.83720873338412,160 L 56.32177822821514,160 L 56.34589833854216,160 L 56.377455184222626,160 L 57.871110040075784,160 L 57.893527765201426,160 L 57.92515629025878,160 L 59.41597981072438,160 L 59.440709195755055,160 L 59.47167468657608,160 L 60.96482778679095,160 L 60.99290818269172,160 L 62.51557526634537,160 L 62.54137984202956,160 L 62.565840429396864,160 L 64.06454868132153,160 L 64.094277702891,160 L 64.12807452909962,160 L 65.60298522789329,160 L 65.63923707276072,160 L 65.67014880404908,160 L 67.15760339380034,160 L 67.17701058509616,160 L 67.21380002529035,160 L 68.70637969049001,160 L 68.73390457121982,160 L 68.76442206593521,160 L 70.25694797160219,160 L 70.28294966557286,160 L 70.31047454630266,160 L 71.801118868326,160 L 71.83079413036282,160 L 71.86021851458048,160 L 73.34847949732188,160 L 73.37568182085562,160 L 73.40636059416906,160 L 74.90182535428895,160 L 74.93241452838126,160 L 74.96540496159972,160 L 76.45264451322029,160 L 76.47577903211493,160 L 76.52690434768923,160 L 78.00163584804065,160 L 78.02516460350824,160 L 78.05473234647972,160 L 79.54473155411097,160 L 79.57236395390612,160 L 79.60157329999308,160 L 81.09230722123755,160 L 81.11891818991187,160 L 81.14963280291374,160 L 82.64162111325396,160 L 82.6695939900894,160 L 82.69518352764288,160 L 84.18774527299831,160 L 84.21541351248192,160 L 84.24447949981507,160 L 85.74291895407634,160 L 85.77207454063064,160 L 85.80255619565759,160 L 87.2853337060661,160 L 87.31465057121841,115.24229074889868 L 87.34506054686847,115.24229074889868 L 88.83988019259627,115.24229074889868 L 88.86070305158586,115.24229074889868 L 88.8890343253058,115.24229074889868 L 90.3823666239629,115.24229074889868 L 90.40229349074124,115.24229074889868 L 90.44037315971966,115.24229074889868 L 91.93284530585396,115.24229074889868 L 91.96164249552373,115.24229074889868 L 91.9859955638257,115.24229074889868 L 93.47506293955723,115.24229074889868 L 93.50769497589118,115.24229074889868 L 93.53944893985812,115.24229074889868 L 95.03048749845442,115.24229074889868 L 95.04548640807084,115.24229074889868 L 95.08388863424531,115.24229074889868 L 96.57842156246551,115.24229074889868 L 96.60840146185414,115.24229074889868 L 96.6433809977816,115.24229074889868 L 98.12662442413996,115.24229074889868 L 98.15309203406048,115.24229074889868 L 98.18893172251074,115.24229074889868 L 99.67204970995954,115.24229074889868 L 99.70206544903662,115.24229074889868 L 99.73536051960693,115.24229074889868 L 101.22378278094635,115.24229074889868 L 101.24564499090101,115.24229074889868 L 101.27668216109895,115.24229074889868 L 102.76770279985101,115.24229074889868 L 102.79261138332394,115.24229074889868 L 102.8247416640196,115.24229074889868 L 104.31888035566683,115.24229074889868 L 104.34826890019606,115.24229074889868 L 104.37391219728222,115.24229074889868 L 105.86599010684357,115.24229074889868 L 105.89881926146401,115.24229074889868 L 105.92173874222796,115.24229074889868 L 107.41627167044814,115.24229074889868 L 107.44515845933905,115.24229074889868 L 107.47841769022091,115.24229074889868 L 108.96504796713782,115.24229074889868 L 108.99323588210396,115.24229074889868 L 109.02726566628748,115.24229074889868 L 110.5124085961337,115.24229074889868 L 110.53806981306408,115.24229074889868 L 110.57009257469439,115.24229074889868 L 112.06208088503462,115.24229074889868 L 112.09007168171428,115.24229074889868 L 112.122524519606,115.24229074889868 L 113.60646681988914,115.24229074889868 L 113.64408057291767,115.24229074889868 L 113.66585318365122,115.24229074889868 L 115.15497431891541,115.24229074889868 L 115.18427326422352,115.24229074889868 L 115.2134288507778,115.24229074889868 L 116.69910937595077,115.24229074889868 L 116.73143677493292,115.24229074889868 L 116.75845990002442,115.24229074889868 L 117.83873978929225,115.24229074889868 L 118.25399633952121,115.24229074889868 L 118.28612662021689,115.24229074889868 L 118.31997720595815,115.24229074889868 L 119.80209168213032,115.24229074889868 L 119.83018999787534,115.24229074889868 L 119.86309083187268,115.24229074889868 L 121.34846671969382,115.24229074889868 L 121.37013181136201,115.24229074889868 L 121.40647325545058,115.24229074889868 L 122.8988199626753,115.24229074889868 L 122.92587892745526,115.24229074889868 L 122.95734617391459,115.24229074889868 L 124.44718410294779,115.24229074889868 L 124.47967278052796,115.24229074889868 L 124.5131470495405,115.24229074889868 L 125.99357706035552,115.24229074889868 L 126.02124529983912,115.24229074889868 L 126.05767634314881,115.24229074889868 L 127.54617028386514,115.24229074889868 L 127.56977071870963,115.24229074889868 L 127.5988367060428,115.24229074889868 L 129.09313667628805,115.24229074889868 L 129.12664678498908,115.24229074889868 L 129.15802443222728,115.24229074889868 L 130.64051522512818,115.24229074889868 L 130.6706743229591,115.24229074889868 L 130.70454282854456,115.24229074889868 L 132.18660354518408,115.24229074889868 L 132.21601000955752,115.24229074889868 L 132.249161721374,115.24229074889868 L 133.73810365819597,115.24229074889868 L 133.76559269923732,115.24229074889868 L 133.79370893482655,115.24229074889868 L 135.28462205451325,115.24229074889868 L 135.31241573290646,115.24229074889868 L 135.34581832254207,115.24229074889868 L 136.82399043298471,115.24229074889868 L 136.86079779302315,115.24229074889868 L 136.89167368462307,115.24229074889868 L 138.38034682378162,115.24229074889868 L 138.4020835948267,115.24229074889868 L 138.44116677508174,115.24229074889868 L 139.9304671087882,115.24229074889868 L 139.9631349848106,115.24229074889868 L 139.9975590055671,115.24229074889868 L 141.48094579067924,115.24229074889868 L 141.51083609084674,115.24229074889868 L 141.54250045559257,115.24229074889868 L 143.02004537148733,115.24229074889868 L 143.05251612922328,115.24229074889868 L 143.0848972877381,115.24229074889868 L 144.5731045109468,115.24229074889868 L 144.60349656675263,115.24229074889868 L 144.63822522486095,115.24229074889868 L 146.12186288779225,115.24229074889868 L 146.14983576462768,115.24229074889868 L 146.18071165622757,115.24229074889868 L 147.67126637902982,115.24229074889868 L 147.69119324580817,115.24229074889868 L 147.74011442054274,115.24229074889868 L 149.21690670298005,115.24229074889868 L 149.24706580081096,115.24229074889868 L 149.2768127422247,115.24229074889868 L 150.76804841910746,115.24229074889868 L 150.8022932414217,115.24229074889868 L 150.8334558505292,115.24229074889868 L 152.31557032670136,115.24229074889868 L 152.34572942453224,115.24229074889868 L 152.380493922329,115.24229074889868 L 153.86173032613416,115.24229074889868 L 153.89136974848253,115.24229074889868 L 153.9183749537298,115.24229074889868 L 155.41235236677903,115.24229074889868 L 155.44297738055977,115.24229074889868 L 155.474516306396,115.24229074889868 L 156.96528606732892,115.24229074889868 L 156.99410117684292,115.24229074889868 L 157.02252204978396,115.24229074889868 L 158.50775457885135,115.24229074889868 L 158.53855879107434,40 L 158.57065323208155,40 L 160.0618172295874,40 L 160.083195603748,40 L 160.11267374749835,40 L 161.60622108428615,40 L 161.63012615648248,40 L 161.67254242776337,40 L 163.1563413692927,40 L 163.18782653559626,40 L 163.21547685523564,40 L 164.69834396486527,40 L 164.73283966499866,40 L 164.76661857136304,40 L 166.2561518630444,40 L 166.2714195703242,40 L 166.31279649064004,40 L 167.80132627104481,40 L 167.8339583073788,40 L 167.87081942694988,40 L 169.34972625100576,40 L 169.38047670369608,40 L 169.41988244114717,40 L 170.89561745277518,40 L 170.92832116848604,40 L 170.96647251684135,40 L 172.45247559921037,40 L 172.48890664252008,40 L 173.994800751979,40 L 174.07140808604143,40 L 175.54332617084953,40 L 175.5814058398279,40 L 175.61755016563,40 L 177.09122439517216,40 L 177.13134692639224,40 L 177.15896140634314,40 L 178.64277826771672,40 L 178.67636005579462,40 L 178.7140634080443,40 L 180.18560517612363,40 L 180.2191690443573,40 L 180.25692615613966,40 L 181.73624513661272,40 L 181.76923556983118,40 L 181.8046272621758,40 L 183.28998523015275,40 L 183.33333333333334,40" stroke="#3b82f6" stroke-width="4" fill="none" opacity="0.4" stroke-dasharray="14850" stroke-dashoffset="14850">
      <animate attributeName="stroke-dashoffset" values="14850;0" dur="3s" begin="3.0999999999999996s" fill="freeze"/>
    </path>
    
    <!-- Animated circle that moves along the path and draws the line -->
    <circle r="5" fill="#3b82f6" opacity="0" filter="url(#trailGlow)">
      <animate attributeName="opacity" values="0;1;1;1" dur="3.2s" begin="2.9s" fill="freeze"/>
      <animate attributeName="r" values="5;6;5" dur="1s" begin="2.9s" repeatCount="3"/>
      <animateMotion dur="3s" begin="2.9s" fill="freeze">
        <mpath href="#path_publicContributions_293.33333333333337"/>
      </animateMotion>
    </circle>
    
    <!-- Small trail dots that fade out -->
    <circle r="2" fill="#3b82f6" opacity="0">
      <animate attributeName="opacity" values="0;0.6;0" dur="0.8s" begin="3.3s" fill="freeze"/>
      <animateMotion dur="3s" begin="2.9s" fill="freeze">
        <mpath href="#path_publicContributions_293.33333333333337"/>
      </animateMotion>
    </circle>
    
    <!-- Hidden path for motion animation -->
    <path id="path_publicContributions_293.33333333333337" d="M 30,160 L 30.02863591107176,160 L 30.060855790988548,160 L 31.547557747282358,160 L 31.57769892526903,160 L 31.608664416090058,160 L 33.098502345123265,160 L 33.12807008809473,160 L 33.15625800306086,160 L 34.64890934763742,160 L 34.67018020273265,160 L 34.69962250679454,160 L 36.191736256044344,160 L 36.21909985817612,160 L 36.250817982454606,160 L 37.74070967102049,160 L 37.76791199455424,160 L 37.79785605425443,160 L 39.289127570825656,160 L 39.314896306821396,160 L 39.34666819063255,160 L 40.838620661284324,160 L 40.864389397280064,160 L 40.88827654963217,160 L 42.392199476226324,160 L 42.41415128540211,160 L 42.44610236765553,160 L 43.93576109824648,160 L 43.96102807860392,160 L 43.98944895154497,160 L 45.48330092568462,160 L 45.50555737221223,160 L 45.53921083966703,160 L 47.02998060059994,160 L 47.05610773348018,160 L 47.08816633479894,160 L 48.57653483660569,160 L 48.60090582475188,160 L 48.6355807233275,160 L 50.1207057333295,160 L 50.152190899633055,160 L 50.184518298615195,160 L 51.674427907025304,160 L 51.69956944847316,160 L 51.729065512067734,160 L 53.224781150006784,160 L 53.25192971400786,160 L 53.28492014722632,160 L 54.770439393801276,160 L 54.80215751807976,160 L 54.83720873338412,160 L 56.32177822821514,160 L 56.34589833854216,160 L 56.377455184222626,160 L 57.871110040075784,160 L 57.893527765201426,160 L 57.92515629025878,160 L 59.41597981072438,160 L 59.440709195755055,160 L 59.47167468657608,160 L 60.96482778679095,160 L 60.99290818269172,160 L 62.51557526634537,160 L 62.54137984202956,160 L 62.565840429396864,160 L 64.06454868132153,160 L 64.094277702891,160 L 64.12807452909962,160 L 65.60298522789329,160 L 65.63923707276072,160 L 65.67014880404908,160 L 67.15760339380034,160 L 67.17701058509616,160 L 67.21380002529035,160 L 68.70637969049001,160 L 68.73390457121982,160 L 68.76442206593521,160 L 70.25694797160219,160 L 70.28294966557286,160 L 70.31047454630266,160 L 71.801118868326,160 L 71.83079413036282,160 L 71.86021851458048,160 L 73.34847949732188,160 L 73.37568182085562,160 L 73.40636059416906,160 L 74.90182535428895,160 L 74.93241452838126,160 L 74.96540496159972,160 L 76.45264451322029,160 L 76.47577903211493,160 L 76.52690434768923,160 L 78.00163584804065,160 L 78.02516460350824,160 L 78.05473234647972,160 L 79.54473155411097,160 L 79.57236395390612,160 L 79.60157329999308,160 L 81.09230722123755,160 L 81.11891818991187,160 L 81.14963280291374,160 L 82.64162111325396,160 L 82.6695939900894,160 L 82.69518352764288,160 L 84.18774527299831,160 L 84.21541351248192,160 L 84.24447949981507,160 L 85.74291895407634,160 L 85.77207454063064,160 L 85.80255619565759,160 L 87.2853337060661,160 L 87.31465057121841,115.24229074889868 L 87.34506054686847,115.24229074889868 L 88.83988019259627,115.24229074889868 L 88.86070305158586,115.24229074889868 L 88.8890343253058,115.24229074889868 L 90.3823666239629,115.24229074889868 L 90.40229349074124,115.24229074889868 L 90.44037315971966,115.24229074889868 L 91.93284530585396,115.24229074889868 L 91.96164249552373,115.24229074889868 L 91.9859955638257,115.24229074889868 L 93.47506293955723,115.24229074889868 L 93.50769497589118,115.24229074889868 L 93.53944893985812,115.24229074889868 L 95.03048749845442,115.24229074889868 L 95.04548640807084,115.24229074889868 L 95.08388863424531,115.24229074889868 L 96.57842156246551,115.24229074889868 L 96.60840146185414,115.24229074889868 L 96.6433809977816,115.24229074889868 L 98.12662442413996,115.24229074889868 L 98.15309203406048,115.24229074889868 L 98.18893172251074,115.24229074889868 L 99.67204970995954,115.24229074889868 L 99.70206544903662,115.24229074889868 L 99.73536051960693,115.24229074889868 L 101.22378278094635,115.24229074889868 L 101.24564499090101,115.24229074889868 L 101.27668216109895,115.24229074889868 L 102.76770279985101,115.24229074889868 L 102.79261138332394,115.24229074889868 L 102.8247416640196,115.24229074889868 L 104.31888035566683,115.24229074889868 L 104.34826890019606,115.24229074889868 L 104.37391219728222,115.24229074889868 L 105.86599010684357,115.24229074889868 L 105.89881926146401,115.24229074889868 L 105.92173874222796,115.24229074889868 L 107.41627167044814,115.24229074889868 L 107.44515845933905,115.24229074889868 L 107.47841769022091,115.24229074889868 L 108.96504796713782,115.24229074889868 L 108.99323588210396,115.24229074889868 L 109.02726566628748,115.24229074889868 L 110.5124085961337,115.24229074889868 L 110.53806981306408,115.24229074889868 L 110.57009257469439,115.24229074889868 L 112.06208088503462,115.24229074889868 L 112.09007168171428,115.24229074889868 L 112.122524519606,115.24229074889868 L 113.60646681988914,115.24229074889868 L 113.64408057291767,115.24229074889868 L 113.66585318365122,115.24229074889868 L 115.15497431891541,115.24229074889868 L 115.18427326422352,115.24229074889868 L 115.2134288507778,115.24229074889868 L 116.69910937595077,115.24229074889868 L 116.73143677493292,115.24229074889868 L 116.75845990002442,115.24229074889868 L 117.83873978929225,115.24229074889868 L 118.25399633952121,115.24229074889868 L 118.28612662021689,115.24229074889868 L 118.31997720595815,115.24229074889868 L 119.80209168213032,115.24229074889868 L 119.83018999787534,115.24229074889868 L 119.86309083187268,115.24229074889868 L 121.34846671969382,115.24229074889868 L 121.37013181136201,115.24229074889868 L 121.40647325545058,115.24229074889868 L 122.8988199626753,115.24229074889868 L 122.92587892745526,115.24229074889868 L 122.95734617391459,115.24229074889868 L 124.44718410294779,115.24229074889868 L 124.47967278052796,115.24229074889868 L 124.5131470495405,115.24229074889868 L 125.99357706035552,115.24229074889868 L 126.02124529983912,115.24229074889868 L 126.05767634314881,115.24229074889868 L 127.54617028386514,115.24229074889868 L 127.56977071870963,115.24229074889868 L 127.5988367060428,115.24229074889868 L 129.09313667628805,115.24229074889868 L 129.12664678498908,115.24229074889868 L 129.15802443222728,115.24229074889868 L 130.64051522512818,115.24229074889868 L 130.6706743229591,115.24229074889868 L 130.70454282854456,115.24229074889868 L 132.18660354518408,115.24229074889868 L 132.21601000955752,115.24229074889868 L 132.249161721374,115.24229074889868 L 133.73810365819597,115.24229074889868 L 133.76559269923732,115.24229074889868 L 133.79370893482655,115.24229074889868 L 135.28462205451325,115.24229074889868 L 135.31241573290646,115.24229074889868 L 135.34581832254207,115.24229074889868 L 136.82399043298471,115.24229074889868 L 136.86079779302315,115.24229074889868 L 136.89167368462307,115.24229074889868 L 138.38034682378162,115.24229074889868 L 138.4020835948267,115.24229074889868 L 138.44116677508174,115.24229074889868 L 139.9304671087882,115.24229074889868 L 139.9631349848106,115.24229074889868 L 139.9975590055671,115.24229074889868 L 141.48094579067924,115.24229074889868 L 141.51083609084674,115.24229074889868 L 141.54250045559257,115.24229074889868 L 143.02004537148733,115.24229074889868 L 143.05251612922328,115.24229074889868 L 143.0848972877381,115.24229074889868 L 144.5731045109468,115.24229074889868 L 144.60349656675263,115.24229074889868 L 144.63822522486095,115.24229074889868 L 146.12186288779225,115.24229074889868 L 146.14983576462768,115.24229074889868 L 146.18071165622757,115.24229074889868 L 147.67126637902982,115.24229074889868 L 147.69119324580817,115.24229074889868 L 147.74011442054274,115.24229074889868 L 149.21690670298005,115.24229074889868 L 149.24706580081096,115.24229074889868 L 149.2768127422247,115.24229074889868 L 150.76804841910746,115.24229074889868 L 150.8022932414217,115.24229074889868 L 150.8334558505292,115.24229074889868 L 152.31557032670136,115.24229074889868 L 152.34572942453224,115.24229074889868 L 152.380493922329,115.24229074889868 L 153.86173032613416,115.24229074889868 L 153.89136974848253,115.24229074889868 L 153.9183749537298,115.24229074889868 L 155.41235236677903,115.24229074889868 L 155.44297738055977,115.24229074889868 L 155.474516306396,115.24229074889868 L 156.96528606732892,115.24229074889868 L 156.99410117684292,115.24229074889868 L 157.02252204978396,115.24229074889868 L 158.50775457885135,115.24229074889868 L 158.53855879107434,40 L 158.57065323208155,40 L 160.0618172295874,40 L 160.083195603748,40 L 160.11267374749835,40 L 161.60622108428615,40 L 161.63012615648248,40 L 161.67254242776337,40 L 163.1563413692927,40 L 163.18782653559626,40 L 163.21547685523564,40 L 164.69834396486527,40 L 164.73283966499866,40 L 164.76661857136304,40 L 166.2561518630444,40 L 166.2714195703242,40 L 166.31279649064004,40 L 167.80132627104481,40 L 167.8339583073788,40 L 167.87081942694988,40 L 169.34972625100576,40 L 169.38047670369608,40 L 169.41988244114717,40 L 170.89561745277518,40 L 170.92832116848604,40 L 170.96647251684135,40 L 172.45247559921037,40 L 172.48890664252008,40 L 173.994800751979,40 L 174.07140808604143,40 L 175.54332617084953,40 L 175.5814058398279,40 L 175.61755016563,40 L 177.09122439517216,40 L 177.13134692639224,40 L 177.15896140634314,40 L 178.64277826771672,40 L 178.67636005579462,40 L 178.7140634080443,40 L 180.18560517612363,40 L 180.2191690443573,40 L 180.25692615613966,40 L 181.73624513661272,40 L 181.76923556983118,40 L 181.8046272621758,40 L 183.28998523015275,40 L 183.33333333333334,40" fill="none" stroke="none"/>
  </g>
  <!-- 📊 Total Contributions Chart -->
  <g transform="translate(526.6666666666667, 250)">
    <!-- Chart Background -->
    <rect x="0" y="0" width="213.33333333333334" height="200" fill="#0f172a" stroke="#334155" stroke-width="1" rx="8" filter="url(#shadow)">
      <animate attributeName="opacity" values="0;1" dur="0.5s" begin="2.8s" fill="freeze"/>
    </rect>
    
    <!-- Chart Title -->
    <text x="106.66666666666667" y="25" text-anchor="middle" fill="#f8fafc" font-size="14" font-weight="bold" font-family="Arial, sans-serif">
      📊 Total Contributions
      <animate attributeName="opacity" values="0;1" dur="0.5s" begin="3s" fill="freeze"/>
    </text>
    
    <!-- Y-axis labels -->
    <text x="10" y="45" fill="#94a3b8" font-size="10" font-family="Arial, sans-serif">5,314
      <animate attributeName="opacity" values="0;1" dur="0.5s" begin="3.1999999999999997s" fill="freeze"/>
    </text>
    <text x="10" y="185" fill="#94a3b8" font-size="10" font-family="Arial, sans-serif">4,408
      <animate attributeName="opacity" values="0;1" dur="0.5s" begin="3.1999999999999997s" fill="freeze"/>
    </text>
    
    <!-- Chart Line with draw animation that follows the circle -->
    <path d="M 30,160 L 30.02863591107176,160 L 30.060855790988548,160 L 31.547557747282358,160 L 31.57769892526903,160 L 31.608664416090058,160 L 33.098502345123265,160 L 33.12807008809473,160 L 33.15625800306086,160 L 34.64890934763742,160 L 34.67018020273265,160 L 34.69962250679454,160 L 36.191736256044344,160 L 36.21909985817612,160 L 36.250817982454606,160 L 37.74070967102049,160 L 37.76791199455424,160 L 37.79785605425443,160 L 39.289127570825656,160 L 39.314896306821396,160 L 39.34666819063255,160 L 40.838620661284324,160 L 40.864389397280064,160 L 40.88827654963217,160 L 42.392199476226324,160 L 42.41415128540211,160 L 42.44610236765553,160 L 43.93576109824648,160 L 43.96102807860392,160 L 43.98944895154497,160 L 45.48330092568462,160 L 45.50555737221223,160 L 45.53921083966703,160 L 47.02998060059994,160 L 47.05610773348018,160 L 47.08816633479894,160 L 48.57653483660569,160 L 48.60090582475188,160 L 48.6355807233275,160 L 50.1207057333295,160 L 50.152190899633055,160 L 50.184518298615195,160 L 51.674427907025304,160 L 51.69956944847316,160 L 51.729065512067734,160 L 53.224781150006784,160 L 53.25192971400786,160 L 53.28492014722632,160 L 54.770439393801276,160 L 54.80215751807976,160 L 54.83720873338412,160 L 56.32177822821514,160 L 56.34589833854216,160 L 56.377455184222626,160 L 57.871110040075784,160 L 57.893527765201426,160 L 57.92515629025878,160 L 59.41597981072438,160 L 59.440709195755055,160 L 59.47167468657608,160 L 60.96482778679095,160 L 60.99290818269172,160 L 62.51557526634537,160 L 62.54137984202956,160 L 62.565840429396864,160 L 64.06454868132153,160 L 64.094277702891,160 L 64.12807452909962,160 L 65.60298522789329,160 L 65.63923707276072,160 L 65.67014880404908,160 L 67.15760339380034,160 L 67.17701058509616,160 L 67.21380002529035,160 L 68.70637969049001,160 L 68.73390457121982,160 L 68.76442206593521,160 L 70.25694797160219,160 L 70.28294966557286,160 L 70.31047454630266,160 L 71.801118868326,160 L 71.83079413036282,160 L 71.86021851458048,160 L 73.34847949732188,160 L 73.37568182085562,160 L 73.40636059416906,160 L 74.90182535428895,160 L 74.93241452838126,160 L 74.96540496159972,160 L 76.45264451322029,160 L 76.47577903211493,160 L 76.52690434768923,160 L 78.00163584804065,160 L 78.02516460350824,160 L 78.05473234647972,160 L 79.54473155411097,160 L 79.57236395390612,160 L 79.60157329999308,160 L 81.09230722123755,160 L 81.11891818991187,160 L 81.14963280291374,160 L 82.64162111325396,160 L 82.6695939900894,160 L 82.69518352764288,160 L 84.18774527299831,160 L 84.21541351248192,160 L 84.24447949981507,160 L 85.74291895407634,160 L 85.77207454063064,160 L 85.80255619565759,160 L 87.2853337060661,160 L 87.31465057121841,92.58278145695365 L 87.34506054686847,92.58278145695365 L 88.83988019259627,92.58278145695365 L 88.86070305158586,92.58278145695365 L 88.8890343253058,92.58278145695365 L 90.3823666239629,92.58278145695365 L 90.40229349074124,92.58278145695365 L 90.44037315971966,92.58278145695365 L 91.93284530585396,92.58278145695365 L 91.96164249552373,92.58278145695365 L 91.9859955638257,92.58278145695365 L 93.47506293955723,92.58278145695365 L 93.50769497589118,92.58278145695365 L 93.53944893985812,92.58278145695365 L 95.03048749845442,92.58278145695365 L 95.04548640807084,92.58278145695365 L 95.08388863424531,92.58278145695365 L 96.57842156246551,92.58278145695365 L 96.60840146185414,92.58278145695365 L 96.6433809977816,92.58278145695365 L 98.12662442413996,92.58278145695365 L 98.15309203406048,92.58278145695365 L 98.18893172251074,92.58278145695365 L 99.67204970995954,92.58278145695365 L 99.70206544903662,92.58278145695365 L 99.73536051960693,92.58278145695365 L 101.22378278094635,92.58278145695365 L 101.24564499090101,92.58278145695365 L 101.27668216109895,92.58278145695365 L 102.76770279985101,92.58278145695365 L 102.79261138332394,92.58278145695365 L 102.8247416640196,92.58278145695365 L 104.31888035566683,92.58278145695365 L 104.34826890019606,92.58278145695365 L 104.37391219728222,92.58278145695365 L 105.86599010684357,92.58278145695365 L 105.89881926146401,92.58278145695365 L 105.92173874222796,92.58278145695365 L 107.41627167044814,92.58278145695365 L 107.44515845933905,92.58278145695365 L 107.47841769022091,92.58278145695365 L 108.96504796713782,92.58278145695365 L 108.99323588210396,92.58278145695365 L 109.02726566628748,92.58278145695365 L 110.5124085961337,92.58278145695365 L 110.53806981306408,92.58278145695365 L 110.57009257469439,92.58278145695365 L 112.06208088503462,92.58278145695365 L 112.09007168171428,92.58278145695365 L 112.122524519606,92.58278145695365 L 113.60646681988914,92.58278145695365 L 113.64408057291767,92.58278145695365 L 113.66585318365122,92.58278145695365 L 115.15497431891541,92.58278145695365 L 115.18427326422352,92.58278145695365 L 115.2134288507778,92.58278145695365 L 116.69910937595077,92.58278145695365 L 116.73143677493292,92.58278145695365 L 116.75845990002442,92.58278145695365 L 117.83873978929225,92.58278145695365 L 118.25399633952121,92.58278145695365 L 118.28612662021689,92.58278145695365 L 118.31997720595815,92.58278145695365 L 119.80209168213032,92.58278145695365 L 119.83018999787534,92.58278145695365 L 119.86309083187268,92.58278145695365 L 121.34846671969382,92.58278145695365 L 121.37013181136201,92.58278145695365 L 121.40647325545058,92.58278145695365 L 122.8988199626753,92.58278145695365 L 122.92587892745526,92.58278145695365 L 122.95734617391459,92.58278145695365 L 124.44718410294779,92.58278145695365 L 124.47967278052796,92.58278145695365 L 124.5131470495405,92.58278145695365 L 125.99357706035552,92.58278145695365 L 126.02124529983912,92.58278145695365 L 126.05767634314881,92.58278145695365 L 127.54617028386514,92.58278145695365 L 127.56977071870963,92.58278145695365 L 127.5988367060428,92.58278145695365 L 129.09313667628805,92.58278145695365 L 129.12664678498908,92.58278145695365 L 129.15802443222728,92.58278145695365 L 130.64051522512818,92.58278145695365 L 130.6706743229591,92.58278145695365 L 130.70454282854456,92.58278145695365 L 132.18660354518408,92.58278145695365 L 132.21601000955752,92.58278145695365 L 132.249161721374,92.58278145695365 L 133.73810365819597,92.58278145695365 L 133.76559269923732,92.58278145695365 L 133.79370893482655,92.58278145695365 L 135.28462205451325,92.58278145695365 L 135.31241573290646,92.58278145695365 L 135.34581832254207,92.58278145695365 L 136.82399043298471,92.58278145695365 L 136.86079779302315,92.58278145695365 L 136.89167368462307,92.58278145695365 L 138.38034682378162,92.58278145695365 L 138.4020835948267,92.58278145695365 L 138.44116677508174,92.58278145695365 L 139.9304671087882,92.58278145695365 L 139.9631349848106,92.58278145695365 L 139.9975590055671,92.58278145695365 L 141.48094579067924,92.58278145695365 L 141.51083609084674,92.58278145695365 L 141.54250045559257,92.58278145695365 L 143.02004537148733,92.58278145695365 L 143.05251612922328,92.58278145695365 L 143.0848972877381,92.58278145695365 L 144.5731045109468,92.58278145695365 L 144.60349656675263,92.58278145695365 L 144.63822522486095,92.58278145695365 L 146.12186288779225,92.58278145695365 L 146.14983576462768,92.58278145695365 L 146.18071165622757,92.58278145695365 L 147.67126637902982,92.58278145695365 L 147.69119324580817,92.58278145695365 L 147.74011442054274,92.58278145695365 L 149.21690670298005,92.58278145695365 L 149.24706580081096,92.58278145695365 L 149.2768127422247,92.58278145695365 L 150.76804841910746,92.58278145695365 L 150.8022932414217,92.58278145695365 L 150.8334558505292,92.58278145695365 L 152.31557032670136,92.58278145695365 L 152.34572942453224,92.58278145695365 L 152.380493922329,92.58278145695365 L 153.86173032613416,92.58278145695365 L 153.89136974848253,92.58278145695365 L 153.9183749537298,92.58278145695365 L 155.41235236677903,92.58278145695365 L 155.44297738055977,92.58278145695365 L 155.474516306396,92.58278145695365 L 156.96528606732892,92.58278145695365 L 156.99410117684292,92.58278145695365 L 157.02252204978396,92.58278145695365 L 158.50775457885135,92.58278145695365 L 158.53855879107434,40 L 158.57065323208155,40 L 160.0618172295874,40 L 160.083195603748,40 L 160.11267374749835,40 L 161.60622108428615,40 L 161.63012615648248,40 L 161.67254242776337,40 L 163.1563413692927,40 L 163.18782653559626,40 L 163.21547685523564,40 L 164.69834396486527,40 L 164.73283966499866,40 L 164.76661857136304,40 L 166.2561518630444,40 L 166.2714195703242,40 L 166.31279649064004,40 L 167.80132627104481,40 L 167.8339583073788,40 L 167.87081942694988,40 L 169.34972625100576,40 L 169.38047670369608,40 L 169.41988244114717,40 L 170.89561745277518,40 L 170.92832116848604,40 L 170.96647251684135,40 L 172.45247559921037,40 L 172.48890664252008,40 L 173.994800751979,40 L 174.07140808604143,40 L 175.54332617084953,40 L 175.5814058398279,40 L 175.61755016563,40 L 177.09122439517216,40 L 177.13134692639224,40 L 177.15896140634314,40 L 178.64277826771672,40 L 178.67636005579462,40 L 178.7140634080443,40 L 180.18560517612363,40 L 180.2191690443573,40 L 180.25692615613966,40 L 181.73624513661272,40 L 181.76923556983118,40 L 181.8046272621758,40 L 183.28998523015275,40 L 183.33333333333334,40" stroke="#f59e0b" stroke-width="2" fill="none" stroke-dasharray="14850" stroke-dashoffset="14850">
      <animate attributeName="stroke-dashoffset" values="14850;0" dur="3s" begin="3.5999999999999996s" fill="freeze"/>
    </path>
    
    <!-- Glow effect for the line that also follows the circle -->
    <path d="M 30,160 L 30.02863591107176,160 L 30.060855790988548,160 L 31.547557747282358,160 L 31.57769892526903,160 L 31.608664416090058,160 L 33.098502345123265,160 L 33.12807008809473,160 L 33.15625800306086,160 L 34.64890934763742,160 L 34.67018020273265,160 L 34.69962250679454,160 L 36.191736256044344,160 L 36.21909985817612,160 L 36.250817982454606,160 L 37.74070967102049,160 L 37.76791199455424,160 L 37.79785605425443,160 L 39.289127570825656,160 L 39.314896306821396,160 L 39.34666819063255,160 L 40.838620661284324,160 L 40.864389397280064,160 L 40.88827654963217,160 L 42.392199476226324,160 L 42.41415128540211,160 L 42.44610236765553,160 L 43.93576109824648,160 L 43.96102807860392,160 L 43.98944895154497,160 L 45.48330092568462,160 L 45.50555737221223,160 L 45.53921083966703,160 L 47.02998060059994,160 L 47.05610773348018,160 L 47.08816633479894,160 L 48.57653483660569,160 L 48.60090582475188,160 L 48.6355807233275,160 L 50.1207057333295,160 L 50.152190899633055,160 L 50.184518298615195,160 L 51.674427907025304,160 L 51.69956944847316,160 L 51.729065512067734,160 L 53.224781150006784,160 L 53.25192971400786,160 L 53.28492014722632,160 L 54.770439393801276,160 L 54.80215751807976,160 L 54.83720873338412,160 L 56.32177822821514,160 L 56.34589833854216,160 L 56.377455184222626,160 L 57.871110040075784,160 L 57.893527765201426,160 L 57.92515629025878,160 L 59.41597981072438,160 L 59.440709195755055,160 L 59.47167468657608,160 L 60.96482778679095,160 L 60.99290818269172,160 L 62.51557526634537,160 L 62.54137984202956,160 L 62.565840429396864,160 L 64.06454868132153,160 L 64.094277702891,160 L 64.12807452909962,160 L 65.60298522789329,160 L 65.63923707276072,160 L 65.67014880404908,160 L 67.15760339380034,160 L 67.17701058509616,160 L 67.21380002529035,160 L 68.70637969049001,160 L 68.73390457121982,160 L 68.76442206593521,160 L 70.25694797160219,160 L 70.28294966557286,160 L 70.31047454630266,160 L 71.801118868326,160 L 71.83079413036282,160 L 71.86021851458048,160 L 73.34847949732188,160 L 73.37568182085562,160 L 73.40636059416906,160 L 74.90182535428895,160 L 74.93241452838126,160 L 74.96540496159972,160 L 76.45264451322029,160 L 76.47577903211493,160 L 76.52690434768923,160 L 78.00163584804065,160 L 78.02516460350824,160 L 78.05473234647972,160 L 79.54473155411097,160 L 79.57236395390612,160 L 79.60157329999308,160 L 81.09230722123755,160 L 81.11891818991187,160 L 81.14963280291374,160 L 82.64162111325396,160 L 82.6695939900894,160 L 82.69518352764288,160 L 84.18774527299831,160 L 84.21541351248192,160 L 84.24447949981507,160 L 85.74291895407634,160 L 85.77207454063064,160 L 85.80255619565759,160 L 87.2853337060661,160 L 87.31465057121841,92.58278145695365 L 87.34506054686847,92.58278145695365 L 88.83988019259627,92.58278145695365 L 88.86070305158586,92.58278145695365 L 88.8890343253058,92.58278145695365 L 90.3823666239629,92.58278145695365 L 90.40229349074124,92.58278145695365 L 90.44037315971966,92.58278145695365 L 91.93284530585396,92.58278145695365 L 91.96164249552373,92.58278145695365 L 91.9859955638257,92.58278145695365 L 93.47506293955723,92.58278145695365 L 93.50769497589118,92.58278145695365 L 93.53944893985812,92.58278145695365 L 95.03048749845442,92.58278145695365 L 95.04548640807084,92.58278145695365 L 95.08388863424531,92.58278145695365 L 96.57842156246551,92.58278145695365 L 96.60840146185414,92.58278145695365 L 96.6433809977816,92.58278145695365 L 98.12662442413996,92.58278145695365 L 98.15309203406048,92.58278145695365 L 98.18893172251074,92.58278145695365 L 99.67204970995954,92.58278145695365 L 99.70206544903662,92.58278145695365 L 99.73536051960693,92.58278145695365 L 101.22378278094635,92.58278145695365 L 101.24564499090101,92.58278145695365 L 101.27668216109895,92.58278145695365 L 102.76770279985101,92.58278145695365 L 102.79261138332394,92.58278145695365 L 102.8247416640196,92.58278145695365 L 104.31888035566683,92.58278145695365 L 104.34826890019606,92.58278145695365 L 104.37391219728222,92.58278145695365 L 105.86599010684357,92.58278145695365 L 105.89881926146401,92.58278145695365 L 105.92173874222796,92.58278145695365 L 107.41627167044814,92.58278145695365 L 107.44515845933905,92.58278145695365 L 107.47841769022091,92.58278145695365 L 108.96504796713782,92.58278145695365 L 108.99323588210396,92.58278145695365 L 109.02726566628748,92.58278145695365 L 110.5124085961337,92.58278145695365 L 110.53806981306408,92.58278145695365 L 110.57009257469439,92.58278145695365 L 112.06208088503462,92.58278145695365 L 112.09007168171428,92.58278145695365 L 112.122524519606,92.58278145695365 L 113.60646681988914,92.58278145695365 L 113.64408057291767,92.58278145695365 L 113.66585318365122,92.58278145695365 L 115.15497431891541,92.58278145695365 L 115.18427326422352,92.58278145695365 L 115.2134288507778,92.58278145695365 L 116.69910937595077,92.58278145695365 L 116.73143677493292,92.58278145695365 L 116.75845990002442,92.58278145695365 L 117.83873978929225,92.58278145695365 L 118.25399633952121,92.58278145695365 L 118.28612662021689,92.58278145695365 L 118.31997720595815,92.58278145695365 L 119.80209168213032,92.58278145695365 L 119.83018999787534,92.58278145695365 L 119.86309083187268,92.58278145695365 L 121.34846671969382,92.58278145695365 L 121.37013181136201,92.58278145695365 L 121.40647325545058,92.58278145695365 L 122.8988199626753,92.58278145695365 L 122.92587892745526,92.58278145695365 L 122.95734617391459,92.58278145695365 L 124.44718410294779,92.58278145695365 L 124.47967278052796,92.58278145695365 L 124.5131470495405,92.58278145695365 L 125.99357706035552,92.58278145695365 L 126.02124529983912,92.58278145695365 L 126.05767634314881,92.58278145695365 L 127.54617028386514,92.58278145695365 L 127.56977071870963,92.58278145695365 L 127.5988367060428,92.58278145695365 L 129.09313667628805,92.58278145695365 L 129.12664678498908,92.58278145695365 L 129.15802443222728,92.58278145695365 L 130.64051522512818,92.58278145695365 L 130.6706743229591,92.58278145695365 L 130.70454282854456,92.58278145695365 L 132.18660354518408,92.58278145695365 L 132.21601000955752,92.58278145695365 L 132.249161721374,92.58278145695365 L 133.73810365819597,92.58278145695365 L 133.76559269923732,92.58278145695365 L 133.79370893482655,92.58278145695365 L 135.28462205451325,92.58278145695365 L 135.31241573290646,92.58278145695365 L 135.34581832254207,92.58278145695365 L 136.82399043298471,92.58278145695365 L 136.86079779302315,92.58278145695365 L 136.89167368462307,92.58278145695365 L 138.38034682378162,92.58278145695365 L 138.4020835948267,92.58278145695365 L 138.44116677508174,92.58278145695365 L 139.9304671087882,92.58278145695365 L 139.9631349848106,92.58278145695365 L 139.9975590055671,92.58278145695365 L 141.48094579067924,92.58278145695365 L 141.51083609084674,92.58278145695365 L 141.54250045559257,92.58278145695365 L 143.02004537148733,92.58278145695365 L 143.05251612922328,92.58278145695365 L 143.0848972877381,92.58278145695365 L 144.5731045109468,92.58278145695365 L 144.60349656675263,92.58278145695365 L 144.63822522486095,92.58278145695365 L 146.12186288779225,92.58278145695365 L 146.14983576462768,92.58278145695365 L 146.18071165622757,92.58278145695365 L 147.67126637902982,92.58278145695365 L 147.69119324580817,92.58278145695365 L 147.74011442054274,92.58278145695365 L 149.21690670298005,92.58278145695365 L 149.24706580081096,92.58278145695365 L 149.2768127422247,92.58278145695365 L 150.76804841910746,92.58278145695365 L 150.8022932414217,92.58278145695365 L 150.8334558505292,92.58278145695365 L 152.31557032670136,92.58278145695365 L 152.34572942453224,92.58278145695365 L 152.380493922329,92.58278145695365 L 153.86173032613416,92.58278145695365 L 153.89136974848253,92.58278145695365 L 153.9183749537298,92.58278145695365 L 155.41235236677903,92.58278145695365 L 155.44297738055977,92.58278145695365 L 155.474516306396,92.58278145695365 L 156.96528606732892,92.58278145695365 L 156.99410117684292,92.58278145695365 L 157.02252204978396,92.58278145695365 L 158.50775457885135,92.58278145695365 L 158.53855879107434,40 L 158.57065323208155,40 L 160.0618172295874,40 L 160.083195603748,40 L 160.11267374749835,40 L 161.60622108428615,40 L 161.63012615648248,40 L 161.67254242776337,40 L 163.1563413692927,40 L 163.18782653559626,40 L 163.21547685523564,40 L 164.69834396486527,40 L 164.73283966499866,40 L 164.76661857136304,40 L 166.2561518630444,40 L 166.2714195703242,40 L 166.31279649064004,40 L 167.80132627104481,40 L 167.8339583073788,40 L 167.87081942694988,40 L 169.34972625100576,40 L 169.38047670369608,40 L 169.41988244114717,40 L 170.89561745277518,40 L 170.92832116848604,40 L 170.96647251684135,40 L 172.45247559921037,40 L 172.48890664252008,40 L 173.994800751979,40 L 174.07140808604143,40 L 175.54332617084953,40 L 175.5814058398279,40 L 175.61755016563,40 L 177.09122439517216,40 L 177.13134692639224,40 L 177.15896140634314,40 L 178.64277826771672,40 L 178.67636005579462,40 L 178.7140634080443,40 L 180.18560517612363,40 L 180.2191690443573,40 L 180.25692615613966,40 L 181.73624513661272,40 L 181.76923556983118,40 L 181.8046272621758,40 L 183.28998523015275,40 L 183.33333333333334,40" stroke="#f59e0b" stroke-width="4" fill="none" opacity="0.4" stroke-dasharray="14850" stroke-dashoffset="14850">
      <animate attributeName="stroke-dashoffset" values="14850;0" dur="3s" begin="3.5999999999999996s" fill="freeze"/>
    </path>
    
    <!-- Animated circle that moves along the path and draws the line -->
    <circle r="5" fill="#f59e0b" opacity="0" filter="url(#trailGlow)">
      <animate attributeName="opacity" values="0;1;1;1" dur="3.2s" begin="3.4s" fill="freeze"/>
      <animate attributeName="r" values="5;6;5" dur="1s" begin="3.4s" repeatCount="3"/>
      <animateMotion dur="3s" begin="3.4s" fill="freeze">
        <mpath href="#path_totalContributions_526.6666666666667"/>
      </animateMotion>
    </circle>
    
    <!-- Small trail dots that fade out -->
    <circle r="2" fill="#f59e0b" opacity="0">
      <animate attributeName="opacity" values="0;0.6;0" dur="0.8s" begin="3.8s" fill="freeze"/>
      <animateMotion dur="3s" begin="3.4s" fill="freeze">
        <mpath href="#path_totalContributions_526.6666666666667"/>
      </animateMotion>
    </circle>
    
    <!-- Hidden path for motion animation -->
    <path id="path_totalContributions_526.6666666666667" d="M 30,160 L 30.02863591107176,160 L 30.060855790988548,160 L 31.547557747282358,160 L 31.57769892526903,160 L 31.608664416090058,160 L 33.098502345123265,160 L 33.12807008809473,160 L 33.15625800306086,160 L 34.64890934763742,160 L 34.67018020273265,160 L 34.69962250679454,160 L 36.191736256044344,160 L 36.21909985817612,160 L 36.250817982454606,160 L 37.74070967102049,160 L 37.76791199455424,160 L 37.79785605425443,160 L 39.289127570825656,160 L 39.314896306821396,160 L 39.34666819063255,160 L 40.838620661284324,160 L 40.864389397280064,160 L 40.88827654963217,160 L 42.392199476226324,160 L 42.41415128540211,160 L 42.44610236765553,160 L 43.93576109824648,160 L 43.96102807860392,160 L 43.98944895154497,160 L 45.48330092568462,160 L 45.50555737221223,160 L 45.53921083966703,160 L 47.02998060059994,160 L 47.05610773348018,160 L 47.08816633479894,160 L 48.57653483660569,160 L 48.60090582475188,160 L 48.6355807233275,160 L 50.1207057333295,160 L 50.152190899633055,160 L 50.184518298615195,160 L 51.674427907025304,160 L 51.69956944847316,160 L 51.729065512067734,160 L 53.224781150006784,160 L 53.25192971400786,160 L 53.28492014722632,160 L 54.770439393801276,160 L 54.80215751807976,160 L 54.83720873338412,160 L 56.32177822821514,160 L 56.34589833854216,160 L 56.377455184222626,160 L 57.871110040075784,160 L 57.893527765201426,160 L 57.92515629025878,160 L 59.41597981072438,160 L 59.440709195755055,160 L 59.47167468657608,160 L 60.96482778679095,160 L 60.99290818269172,160 L 62.51557526634537,160 L 62.54137984202956,160 L 62.565840429396864,160 L 64.06454868132153,160 L 64.094277702891,160 L 64.12807452909962,160 L 65.60298522789329,160 L 65.63923707276072,160 L 65.67014880404908,160 L 67.15760339380034,160 L 67.17701058509616,160 L 67.21380002529035,160 L 68.70637969049001,160 L 68.73390457121982,160 L 68.76442206593521,160 L 70.25694797160219,160 L 70.28294966557286,160 L 70.31047454630266,160 L 71.801118868326,160 L 71.83079413036282,160 L 71.86021851458048,160 L 73.34847949732188,160 L 73.37568182085562,160 L 73.40636059416906,160 L 74.90182535428895,160 L 74.93241452838126,160 L 74.96540496159972,160 L 76.45264451322029,160 L 76.47577903211493,160 L 76.52690434768923,160 L 78.00163584804065,160 L 78.02516460350824,160 L 78.05473234647972,160 L 79.54473155411097,160 L 79.57236395390612,160 L 79.60157329999308,160 L 81.09230722123755,160 L 81.11891818991187,160 L 81.14963280291374,160 L 82.64162111325396,160 L 82.6695939900894,160 L 82.69518352764288,160 L 84.18774527299831,160 L 84.21541351248192,160 L 84.24447949981507,160 L 85.74291895407634,160 L 85.77207454063064,160 L 85.80255619565759,160 L 87.2853337060661,160 L 87.31465057121841,92.58278145695365 L 87.34506054686847,92.58278145695365 L 88.83988019259627,92.58278145695365 L 88.86070305158586,92.58278145695365 L 88.8890343253058,92.58278145695365 L 90.3823666239629,92.58278145695365 L 90.40229349074124,92.58278145695365 L 90.44037315971966,92.58278145695365 L 91.93284530585396,92.58278145695365 L 91.96164249552373,92.58278145695365 L 91.9859955638257,92.58278145695365 L 93.47506293955723,92.58278145695365 L 93.50769497589118,92.58278145695365 L 93.53944893985812,92.58278145695365 L 95.03048749845442,92.58278145695365 L 95.04548640807084,92.58278145695365 L 95.08388863424531,92.58278145695365 L 96.57842156246551,92.58278145695365 L 96.60840146185414,92.58278145695365 L 96.6433809977816,92.58278145695365 L 98.12662442413996,92.58278145695365 L 98.15309203406048,92.58278145695365 L 98.18893172251074,92.58278145695365 L 99.67204970995954,92.58278145695365 L 99.70206544903662,92.58278145695365 L 99.73536051960693,92.58278145695365 L 101.22378278094635,92.58278145695365 L 101.24564499090101,92.58278145695365 L 101.27668216109895,92.58278145695365 L 102.76770279985101,92.58278145695365 L 102.79261138332394,92.58278145695365 L 102.8247416640196,92.58278145695365 L 104.31888035566683,92.58278145695365 L 104.34826890019606,92.58278145695365 L 104.37391219728222,92.58278145695365 L 105.86599010684357,92.58278145695365 L 105.89881926146401,92.58278145695365 L 105.92173874222796,92.58278145695365 L 107.41627167044814,92.58278145695365 L 107.44515845933905,92.58278145695365 L 107.47841769022091,92.58278145695365 L 108.96504796713782,92.58278145695365 L 108.99323588210396,92.58278145695365 L 109.02726566628748,92.58278145695365 L 110.5124085961337,92.58278145695365 L 110.53806981306408,92.58278145695365 L 110.57009257469439,92.58278145695365 L 112.06208088503462,92.58278145695365 L 112.09007168171428,92.58278145695365 L 112.122524519606,92.58278145695365 L 113.60646681988914,92.58278145695365 L 113.64408057291767,92.58278145695365 L 113.66585318365122,92.58278145695365 L 115.15497431891541,92.58278145695365 L 115.18427326422352,92.58278145695365 L 115.2134288507778,92.58278145695365 L 116.69910937595077,92.58278145695365 L 116.73143677493292,92.58278145695365 L 116.75845990002442,92.58278145695365 L 117.83873978929225,92.58278145695365 L 118.25399633952121,92.58278145695365 L 118.28612662021689,92.58278145695365 L 118.31997720595815,92.58278145695365 L 119.80209168213032,92.58278145695365 L 119.83018999787534,92.58278145695365 L 119.86309083187268,92.58278145695365 L 121.34846671969382,92.58278145695365 L 121.37013181136201,92.58278145695365 L 121.40647325545058,92.58278145695365 L 122.8988199626753,92.58278145695365 L 122.92587892745526,92.58278145695365 L 122.95734617391459,92.58278145695365 L 124.44718410294779,92.58278145695365 L 124.47967278052796,92.58278145695365 L 124.5131470495405,92.58278145695365 L 125.99357706035552,92.58278145695365 L 126.02124529983912,92.58278145695365 L 126.05767634314881,92.58278145695365 L 127.54617028386514,92.58278145695365 L 127.56977071870963,92.58278145695365 L 127.5988367060428,92.58278145695365 L 129.09313667628805,92.58278145695365 L 129.12664678498908,92.58278145695365 L 129.15802443222728,92.58278145695365 L 130.64051522512818,92.58278145695365 L 130.6706743229591,92.58278145695365 L 130.70454282854456,92.58278145695365 L 132.18660354518408,92.58278145695365 L 132.21601000955752,92.58278145695365 L 132.249161721374,92.58278145695365 L 133.73810365819597,92.58278145695365 L 133.76559269923732,92.58278145695365 L 133.79370893482655,92.58278145695365 L 135.28462205451325,92.58278145695365 L 135.31241573290646,92.58278145695365 L 135.34581832254207,92.58278145695365 L 136.82399043298471,92.58278145695365 L 136.86079779302315,92.58278145695365 L 136.89167368462307,92.58278145695365 L 138.38034682378162,92.58278145695365 L 138.4020835948267,92.58278145695365 L 138.44116677508174,92.58278145695365 L 139.9304671087882,92.58278145695365 L 139.9631349848106,92.58278145695365 L 139.9975590055671,92.58278145695365 L 141.48094579067924,92.58278145695365 L 141.51083609084674,92.58278145695365 L 141.54250045559257,92.58278145695365 L 143.02004537148733,92.58278145695365 L 143.05251612922328,92.58278145695365 L 143.0848972877381,92.58278145695365 L 144.5731045109468,92.58278145695365 L 144.60349656675263,92.58278145695365 L 144.63822522486095,92.58278145695365 L 146.12186288779225,92.58278145695365 L 146.14983576462768,92.58278145695365 L 146.18071165622757,92.58278145695365 L 147.67126637902982,92.58278145695365 L 147.69119324580817,92.58278145695365 L 147.74011442054274,92.58278145695365 L 149.21690670298005,92.58278145695365 L 149.24706580081096,92.58278145695365 L 149.2768127422247,92.58278145695365 L 150.76804841910746,92.58278145695365 L 150.8022932414217,92.58278145695365 L 150.8334558505292,92.58278145695365 L 152.31557032670136,92.58278145695365 L 152.34572942453224,92.58278145695365 L 152.380493922329,92.58278145695365 L 153.86173032613416,92.58278145695365 L 153.89136974848253,92.58278145695365 L 153.9183749537298,92.58278145695365 L 155.41235236677903,92.58278145695365 L 155.44297738055977,92.58278145695365 L 155.474516306396,92.58278145695365 L 156.96528606732892,92.58278145695365 L 156.99410117684292,92.58278145695365 L 157.02252204978396,92.58278145695365 L 158.50775457885135,92.58278145695365 L 158.53855879107434,40 L 158.57065323208155,40 L 160.0618172295874,40 L 160.083195603748,40 L 160.11267374749835,40 L 161.60622108428615,40 L 161.63012615648248,40 L 161.67254242776337,40 L 163.1563413692927,40 L 163.18782653559626,40 L 163.21547685523564,40 L 164.69834396486527,40 L 164.73283966499866,40 L 164.76661857136304,40 L 166.2561518630444,40 L 166.2714195703242,40 L 166.31279649064004,40 L 167.80132627104481,40 L 167.8339583073788,40 L 167.87081942694988,40 L 169.34972625100576,40 L 169.38047670369608,40 L 169.41988244114717,40 L 170.89561745277518,40 L 170.92832116848604,40 L 170.96647251684135,40 L 172.45247559921037,40 L 172.48890664252008,40 L 173.994800751979,40 L 174.07140808604143,40 L 175.54332617084953,40 L 175.5814058398279,40 L 175.61755016563,40 L 177.09122439517216,40 L 177.13134692639224,40 L 177.15896140634314,40 L 178.64277826771672,40 L 178.67636005579462,40 L 178.7140634080443,40 L 180.18560517612363,40 L 180.2191690443573,40 L 180.25692615613966,40 L 181.73624513661272,40 L 181.76923556983118,40 L 181.8046272621758,40 L 183.28998523015275,40 L 183.33333333333334,40" fill="none" stroke="none"/>
  </g>
  
  <!-- Footer -->
  <text x="400" y="580" text-anchor="middle" fill="#64748b" font-size="12" font-family="Arial, sans-serif">
    Generated by GitHub User Rank Tracker • 2/8/2026
    <animate attributeName="opacity" values="0;1" dur="0.5s" begin="5s" fill="freeze"/>
  </text>
</svg>