<svg width="800" height="600" xmlns="http://www.w3.org/2000/svg">
  <defs>
    <linearGradient id="bgGradient" x1="0%" y1="0%" x2="100%" y2="100%">
      <stop offset="0%" style="stop-color:#f8fafc;stop-opacity:1" />
      <stop offset="100%" style="stop-color:#e2e8f0;stop-opacity:1" />
    </linearGradient>
    <filter id="shadow" x="-20%" y="-20%" width="140%" height="140%">
      <feDropShadow dx="2" dy="2" stdDeviation="3" flood-color="#00000020" flood-opacity="0.1"/>
    </filter>
    <!-- Trail effect filter -->
    <filter id="trailGlow" x="-50%" y="-50%" width="200%" height="200%">
      <feGaussianBlur stdDeviation="3" result="coloredBlur"/>
      <feMerge> 
        <feMergeNode in="coloredBlur"/>
        <feMergeNode in="SourceGraphic"/>
      </feMerge>
    </filter>
  </defs>
  
  <!-- Background -->
  <rect width="800" height="600" fill="url(#bgGradient)" rx="12"/>
  
  <!-- Header -->
  <text x="400" y="40" text-anchor="middle" fill="#0f172a" font-size="24" font-weight="bold" font-family="Arial, sans-serif">
    GitHub Progress Report
    <animate attributeName="opacity" values="0;1" dur="0.8s" begin="0s" fill="freeze"/>
    <animateTransform attributeName="transform" type="translate" values="0,-20;0,0" dur="0.8s" begin="0s" fill="freeze"/>
  </text>
  
  <!-- User Info -->
  <text x="400" y="70" text-anchor="middle" fill="#475569" font-size="16" font-family="Arial, sans-serif">
    @maifeeulasad • BANGLADESH • 100 days analyzed
    <animate attributeName="opacity" values="0;1" dur="0.6s" begin="0.3s" fill="freeze"/>
  </text>
  
  <!-- Progress Cards -->
  <!-- Followers Card -->
  <g transform="translate(60, 100)">
    <rect width="206.66666666666666" height="120" fill="#ffffff" stroke="#e2e8f0" stroke-width="1" rx="8" filter="url(#shadow)">
      <animate attributeName="opacity" values="0;1" dur="0.6s" begin="0.2s" fill="freeze"/>
      <animateTransform attributeName="transform" type="scale" values="0.8;1" dur="0.6s" begin="0.2s" fill="freeze"/>
    </rect>
    <text x="103.33333333333333" y="25" text-anchor="middle" fill="#64748b" font-size="14" font-weight="bold" font-family="Arial, sans-serif">FOLLOWERS
      <animate attributeName="opacity" values="0;1" dur="0.5s" begin="0.4s" fill="freeze"/>
    </text>
    
    <text x="103.33333333333333" y="50" text-anchor="middle" fill="#22c55e" font-size="32" font-weight="bold" font-family="Arial, sans-serif">
      ↗
      <animate attributeName="opacity" values="0;1" dur="0.5s" begin="0.6s" fill="freeze"/>
      <animateTransform attributeName="transform" type="scale" values="0;1.2;1" dur="0.8s" begin="0.6s" fill="freeze"/>
    </text>
    
    <text x="103.33333333333333" y="75" text-anchor="middle" fill="#1e293b" font-size="18" font-weight="bold" font-family="Arial, sans-serif">
      +6
      <animate attributeName="opacity" values="0;1" dur="0.5s" begin="0.8s" fill="freeze"/>
    </text>
    
    <text x="103.33333333333333" y="95" text-anchor="middle" fill="#64748b" font-size="12" font-family="Arial, sans-serif">
      #473 → #467
      <animate attributeName="opacity" values="0;1" dur="0.5s" begin="1s" fill="freeze"/>
    </text>
  </g>
  
  <!-- Public Contributions Card -->
  <g transform="translate(296.66666666666663, 100)">
    <rect width="206.66666666666666" height="120" fill="#ffffff" stroke="#e2e8f0" stroke-width="1" rx="8" filter="url(#shadow)">
      <animate attributeName="opacity" values="0;1" dur="0.6s" begin="0.4s" fill="freeze"/>
      <animateTransform attributeName="transform" type="scale" values="0.8;1" dur="0.6s" begin="0.4s" fill="freeze"/>
    </rect>
    <text x="103.33333333333333" y="25" text-anchor="middle" fill="#64748b" font-size="14" font-weight="bold" font-family="Arial, sans-serif">PUBLIC
      <animate attributeName="opacity" values="0;1" dur="0.5s" begin="0.6s" fill="freeze"/>
    </text>
    
    <text x="103.33333333333333" y="50" text-anchor="middle" fill="#22c55e" font-size="32" font-weight="bold" font-family="Arial, sans-serif">
      ↗
      <animate attributeName="opacity" values="0;1" dur="0.5s" begin="0.8s" fill="freeze"/>
      <animateTransform attributeName="transform" type="scale" values="0;1.2;1" dur="0.8s" begin="0.8s" fill="freeze"/>
    </text>
    
    <text x="103.33333333333333" y="75" text-anchor="middle" fill="#1e293b" font-size="18" font-weight="bold" font-family="Arial, sans-serif">
      +11
      <animate attributeName="opacity" values="0;1" dur="0.5s" begin="1s" fill="freeze"/>
    </text>
    
    <text x="103.33333333333333" y="95" text-anchor="middle" fill="#64748b" font-size="12" font-family="Arial, sans-serif">
      #18 → #7
      <animate attributeName="opacity" values="0;1" dur="0.5s" begin="1.2s" fill="freeze"/>
    </text>
  </g>
  
  <!-- Total Contributions Card -->
  <g transform="translate(533.3333333333333, 100)">
    <rect width="206.66666666666666" height="120" fill="#ffffff" stroke="#e2e8f0" stroke-width="1" rx="8" filter="url(#shadow)">
      <animate attributeName="opacity" values="0;1" dur="0.6s" begin="0.6s" fill="freeze"/>
      <animateTransform attributeName="transform" type="scale" values="0.8;1" dur="0.6s" begin="0.6s" fill="freeze"/>
    </rect>
    <text x="103.33333333333333" y="25" text-anchor="middle" fill="#64748b" font-size="14" font-weight="bold" font-family="Arial, sans-serif">TOTAL
      <animate attributeName="opacity" values="0;1" dur="0.5s" begin="0.8s" fill="freeze"/>
    </text>
    
    <text x="103.33333333333333" y="50" text-anchor="middle" fill="#22c55e" font-size="32" font-weight="bold" font-family="Arial, sans-serif">
      ↗
      <animate attributeName="opacity" values="0;1" dur="0.5s" begin="1s" fill="freeze"/>
      <animateTransform attributeName="transform" type="scale" values="0;1.2;1" dur="0.8s" begin="1s" fill="freeze"/>
    </text>
    
    <text x="103.33333333333333" y="75" text-anchor="middle" fill="#1e293b" font-size="18" font-weight="bold" font-family="Arial, sans-serif">
      +15
      <animate attributeName="opacity" values="0;1" dur="0.5s" begin="1.2s" fill="freeze"/>
    </text>
    
    <text x="103.33333333333333" y="95" text-anchor="middle" fill="#64748b" font-size="12" font-family="Arial, sans-serif">
      #39 → #24
      <animate attributeName="opacity" values="0;1" dur="0.5s" begin="1.4s" fill="freeze"/>
    </text>
  </g>
  
  <!-- Timeline Charts (if we have snapshots) -->
  
  <!-- 👥 Followers Count Chart -->
  <g transform="translate(60, 250)">
    <!-- Chart Background -->
    <rect x="0" y="0" width="213.33333333333334" height="200" fill="#ffffff" stroke="#e2e8f0" stroke-width="1" rx="8" filter="url(#shadow)">
      <animate attributeName="opacity" values="0;1" dur="0.5s" begin="1.8s" fill="freeze"/>
    </rect>
    
    <!-- Chart Title -->
    <text x="106.66666666666667" y="25" text-anchor="middle" fill="#1e293b" font-size="14" font-weight="bold" font-family="Arial, sans-serif">
      👥 Followers Count
      <animate attributeName="opacity" values="0;1" dur="0.5s" begin="2s" fill="freeze"/>
    </text>
    
    <!-- Y-axis labels -->
    <text x="10" y="45" fill="#64748b" font-size="10" font-family="Arial, sans-serif">143
      <animate attributeName="opacity" values="0;1" dur="0.5s" begin="2.2s" fill="freeze"/>
    </text>
    <text x="10" y="185" fill="#64748b" font-size="10" font-family="Arial, sans-serif">136
      <animate attributeName="opacity" values="0;1" dur="0.5s" begin="2.2s" fill="freeze"/>
    </text>
    
    <!-- Chart Line with draw animation that follows the circle -->
    <path d="M 30,160 L 31.472238488862025,160 L 31.50589046570152,160 L 31.5413528337001,160 L 33.00601252820007,160 L 33.031499995890734,160 L 33.06289785824784,160 L 34.54225366921568,160 L 34.564226848185776,160 L 34.59628142106137,160 L 36.07150173065601,160 L 36.097645908865175,160 L 36.12863554576484,160 L 37.604441570146236,160 L 37.63078098661765,160 L 37.661468891657464,160 L 39.14247535338801,160 L 39.16941823357912,160 L 39.2049338483765,160 L 40.673711295316735,160 L 40.70667106377188,160 L 40.72823601728453,160 L 42.20595892642261,160 L 42.23197886210125,160 L 42.26424642217203,160 L 43.734230796551664,160 L 43.769160696562274,160 L 43.79920964001653,160 L 45.27460743894049,160 L 45.30144382553401,160 L 45.33314341975096,160 L 46.80953515891912,160 L 46.83583907752468,160 L 46.86448585527729,160 L 48.34295421959852,160 L 48.36989709978964,160 L 48.398188898883596,160 L 49.87568107189356,160 L 49.90741616397638,160 L 49.940074200571665,160 L 51.40879840071311,160 L 51.438155135783006,160 L 51.4712568957016,160 L 52.93371572251797,160 L 52.97297636216405,160 L 53.00515517757017,160 L 54.47572526673656,160 L 54.50385732543413,160 L 54.53443873687635,160 L 56.00953480394047,160 L 56.03589196934482,160 L 56.06734307850071,160 L 57.54093048626559,160 L 57.56870756630451,160 L 57.60005218186282,160 L 59.07536123612212,160 L 59.09776038948259,160 L 59.1327967830908,160 L 60.61177986646706,160 L 60.64241452470807,160 L 60.6783916117617,160 L 62.14739979483005,160 L 62.17375696023441,160 L 62.20535006085376,160 L 63.67861798782585,57.14285714285715 L 63.70426519591292,57.14285714285715 L 63.73726046223392,57.14285714285715 L 65.20894873417504,57.14285714285715 L 65.23445395079864,57.14285714285715 L 65.26941934867513,57.14285714285715 L 66.7349664898217,57.14285714285715 L 66.76978989623473,57.14285714285715 L 66.80511027276984,57.14285714285715 L 68.27738425949774,57.14285714285715 L 68.2991799491385,57.14285714285715 L 68.33187348359965,57.14285714285715 L 69.81037734578675,57.14285714285715 L 69.83609554960555,57.14285714285715 L 69.86946354351812,57.14285714285715 L 71.33863146698289,57.14285714285715 L 71.37773236623256,57.14285714285715 L 71.41090512188289,57.14285714285715 L 72.87810291379216,57.14285714285715 L 72.9104059717288,57.14285714285715 L 72.94320599978755,57.14285714285715 L 74.41485877386282,57.14285714285715 L 74.44457048759136,57.14285714285715 L 74.47701553699146,57.14285714285715 L 75.94487003941921,57.14285714285715 L 75.97548694872731,57.14285714285715 L 76.00716879401133,57.14285714285715 L 77.47681593866525,57.14285714285715 L 77.50755709050387,57.14285714285715 L 77.54170603746545,57.14285714285715 L 79.01309257754673,57.14285714285715 L 79.0479514818256,57.14285714285715 L 79.08155021186631,57.14285714285715 L 80.54562419157952,57.14285714285715 L 80.57526490957633,57.14285714285715 L 80.60265151309075,57.14285714285715 L 82.08355148122371,57.14285714285715 L 82.11503808824546,57.14285714285715 L 82.14968400532916,57.14285714285715 L 83.61265755120056,57.14285714285715 L 83.64441039221632,57.14285714285715 L 83.68058271753218,57.14285714285715 L 85.14660907986791,57.14285714285715 L 85.17639178932819,57.14285714285715 L 85.20910307272229,57.14285714285715 L 86.68082684252927,57.14285714285715 L 86.70776972272039,57.14285714285715 L 86.74321434178603,57.14285714285715 L 88.21515109878821,57.14285714285715 L 88.24393986800428,57.14285714285715 L 88.27345634347057,57.14285714285715 L 89.75007881876684,57.14285714285715 L 89.77485632914023,57.14285714285715 L 89.80692865094876,57.14285714285715 L 91.27882991008508,57.14285714285715 L 91.30243599088493,57.14285714285715 L 91.33000008372866,57.14285714285715 L 92.81546152762519,57.14285714285715 L 92.84258189714564,57.14285714285715 L 92.87850573740045,57.14285714285715 L 94.34815288205438,57.14285714285715 L 94.37585896636158,57.14285714285715 L 94.40977717719505,57.14285714285715 L 95.87614076925651,57.14285714285715 L 95.90153949228252,57.14285714285715 L 95.93506722659149,57.14285714285715 L 97.40638277094104,57.14285714285715 L 97.4388100714082,57.14285714285715 L 97.47118412507658,57.14285714285715 L 98.94596071134791,57.14285714285715 L 98.9716789151667,57.14285714285715 L 99.00265080313343,57.14285714285715 L 100.48065769519843,57.14285714285715 L 100.50641139688308,57.14285714285715 L 100.53750752738034,57.14285714285715 L 102.01089969688296,57.14285714285715 L 102.04025643195286,57.14285714285715 L 102.07119282205372,57.14285714285715 L 103.54934170558217,57.14285714285715 L 103.5772785260175,57.14285714285715 L 103.61041578380195,57.14285714285715 L 105.08386120010336,57.14285714285715 L 105.10941966352577,57.14285714285715 L 105.14529025698178,57.14285714285715 L 106.61286077648263,57.14285714285715 L 106.63815300591105,57.14285714285715 L 106.6684681833593,57.14285714285715 L 108.14606684996684,57.14285714285715 L 108.17160756445632,57.14285714285715 L 108.20247295882545,57.14285714285715 L 109.68126080393947,57.14285714285715 L 109.70252402559227,57.14285714285715 L 109.7329989434369,57.14285714285715 L 111.21464436675299,57.14285714285715 L 111.23945737499226,57.14285714285715 L 111.2600283882607,57.14285714285715 L 112.74609329587692,57.14285714285715 L 112.76973487454264,57.14285714285715 L 112.79964182653345,57.14285714285715 L 114.2757495827747,57.14285714285715 L 114.31130069543792,57.14285714285715 L 114.34351500870991,57.14285714285715 L 115.8157889954378,57.14285714285715 L 115.84219940764093,57.14285714285715 L 115.87313579774181,57.14285714285715 L 117.34961628157463,57.14285714285715 L 117.37544097899101,57.14285714285715 L 117.40037822976079,57.14285714285715 L 118.88479248661433,57.14285714285715 L 118.90694315491372,57.14285714285715 L 118.93273235446425,57.14285714285715 L 120.41404054805464,57.14285714285715 L 120.4392972796172,57.14285714285715 L 120.46773107017461,57.14285714285715 L 121.95001545507628,57.14285714285715 L 121.97202413191224,57.14285714285715 L 122.0025167986898,57.14285714285715 L 123.47258991773408,57.14285714285715 L 123.50586916698201,57.14285714285715 L 123.53652157415594,57.14285714285715 L 125.0174215422889,57.14285714285715 L 125.04589083071218,57.14285714285715 L 125.07482159139171,57.14285714285715 L 126.55179904534664,57.14285714285715 L 126.58145751227639,57.14285714285715 L 126.61482550618896,57.14285714285715 L 128.08044364306727,57.14285714285715 L 128.10534539597117,57.14285714285715 L 128.13385018226035,57.14285714285715 L 129.61432417600292,57.14285714285715 L 129.63285406198412,57.14285714285715 L 129.66545885178064,57.14285714285715 L 131.14891466625585,57.14285714285715 L 131.17129607068335,57.14285714285715 L 131.20173549066212,57.14285714285715 L 132.68407312236258,57.14285714285715 L 132.70649002465598,57.14285714285715 L 132.73313117298724,57.14285714285715 L 134.21500733243147,40 L 134.23774371551764,40 L 134.26692296125822,40 L 135.7499882992089,40 L 135.77357663107583,40 L 135.80646540379922,40 L 137.27472813168444,40 L 137.30774114693838,40 L 137.34006195380795,40 L 138.81764287148258,40 L 138.83498357895735,40 L 138.86455330122243,40 L 140.3483818432892,40 L 140.37264463460755,40 L 140.40455721601967,40 L 141.87564202424113,40 L 141.9074836099215,40 L 141.93593514941188,40 L 143.41596541983114,40 L 143.4410091641985,40 L 143.4685022613105,40 L 144.94729010642453,40 L 144.97185462960272,40 L 144.9966853867749,40 L 145.03603477108567,40 L 146.48633557884347,40 L 146.51224902092451,40 L 146.5391919011156,40 L 148.01879619714452,40 L 148.04463864349384,40 L 148.07287719578898,40 L 149.55152304943954,40 L 149.57530661956872,40 L 149.6024447380221,40 L 151.08052262581882,40 L 151.1090984078397,40 L 152.62480403345273,40 L 152.64216248986043,40 L 152.66970883377127,40 L 154.15067979763595,40 L 154.1751200782836,40 L 154.20532876213426,40 L 155.6838148753884,40 L 155.70766944124932,40 L 155.73448807890992,40 L 157.22000276960523,40 L 157.2455967308935,40 L 157.27766905270204,40 L 158.7551079789132,40 L 158.78268982068985,40 L 158.80913573075887,40 L 160.29117163059948,40 L 160.3081396104827,40 L 160.33687513289996,40 L 161.8193547560639,40 L 161.84154092222917,40 L 161.86699289205396,40 L 163.35254308061516,40 L 163.3732205874812,40 L 163.40458295197246,40 L 164.8853764265078,40 L 164.9080595627952,40 L 164.93762928506027,40 L 166.41595565791803,40 L 166.4378045943576,40 L 166.46998340976373,40 L 167.94850502088374,40 L 167.98057734269227,40 L 168.01332412395223,40 L 169.48721326357696,40 L 169.510766097578,40 L 169.5403890666419,40 L 171.0203305923965,40 L 171.04354619667185,40 L 171.07316916573572,40 L 172.55456610399077,40 L 172.58505877076834,40 L 172.62108910462075,40 L 174.0884821347923,40 L 174.11063280309168,40 L 174.13896010005152,40 L 175.6236228419661,40 L 175.6424189619413,40 L 175.67207742887106,40 L 177.1520899503574,40 L 177.17420512079096,40 L 177.20244367308612,40 L 177.24108310007955,40 L 178.68966226134293,40 L 178.71917873680923,40 L 178.74848222508032,40 L 180.21938954397243,40 L 180.2464211688282,40 L 180.27465972112338,40 L 181.75554194032338,40 L 181.77073502691337,40 L 181.8063926331742,40 L 183.2874168438377,40 L 183.31262032860144,40 L 183.33333333333334,40" stroke="#22c55e" stroke-width="2" fill="none" stroke-dasharray="15100" stroke-dashoffset="15100">
      <animate attributeName="stroke-dashoffset" values="15100;0" dur="3s" begin="2.6s" fill="freeze"/>
    </path>
    
    <!-- Glow effect for the line that also follows the circle -->
    <path d="M 30,160 L 31.472238488862025,160 L 31.50589046570152,160 L 31.5413528337001,160 L 33.00601252820007,160 L 33.031499995890734,160 L 33.06289785824784,160 L 34.54225366921568,160 L 34.564226848185776,160 L 34.59628142106137,160 L 36.07150173065601,160 L 36.097645908865175,160 L 36.12863554576484,160 L 37.604441570146236,160 L 37.63078098661765,160 L 37.661468891657464,160 L 39.14247535338801,160 L 39.16941823357912,160 L 39.2049338483765,160 L 40.673711295316735,160 L 40.70667106377188,160 L 40.72823601728453,160 L 42.20595892642261,160 L 42.23197886210125,160 L 42.26424642217203,160 L 43.734230796551664,160 L 43.769160696562274,160 L 43.79920964001653,160 L 45.27460743894049,160 L 45.30144382553401,160 L 45.33314341975096,160 L 46.80953515891912,160 L 46.83583907752468,160 L 46.86448585527729,160 L 48.34295421959852,160 L 48.36989709978964,160 L 48.398188898883596,160 L 49.87568107189356,160 L 49.90741616397638,160 L 49.940074200571665,160 L 51.40879840071311,160 L 51.438155135783006,160 L 51.4712568957016,160 L 52.93371572251797,160 L 52.97297636216405,160 L 53.00515517757017,160 L 54.47572526673656,160 L 54.50385732543413,160 L 54.53443873687635,160 L 56.00953480394047,160 L 56.03589196934482,160 L 56.06734307850071,160 L 57.54093048626559,160 L 57.56870756630451,160 L 57.60005218186282,160 L 59.07536123612212,160 L 59.09776038948259,160 L 59.1327967830908,160 L 60.61177986646706,160 L 60.64241452470807,160 L 60.6783916117617,160 L 62.14739979483005,160 L 62.17375696023441,160 L 62.20535006085376,160 L 63.67861798782585,57.14285714285715 L 63.70426519591292,57.14285714285715 L 63.73726046223392,57.14285714285715 L 65.20894873417504,57.14285714285715 L 65.23445395079864,57.14285714285715 L 65.26941934867513,57.14285714285715 L 66.7349664898217,57.14285714285715 L 66.76978989623473,57.14285714285715 L 66.80511027276984,57.14285714285715 L 68.27738425949774,57.14285714285715 L 68.2991799491385,57.14285714285715 L 68.33187348359965,57.14285714285715 L 69.81037734578675,57.14285714285715 L 69.83609554960555,57.14285714285715 L 69.86946354351812,57.14285714285715 L 71.33863146698289,57.14285714285715 L 71.37773236623256,57.14285714285715 L 71.41090512188289,57.14285714285715 L 72.87810291379216,57.14285714285715 L 72.9104059717288,57.14285714285715 L 72.94320599978755,57.14285714285715 L 74.41485877386282,57.14285714285715 L 74.44457048759136,57.14285714285715 L 74.47701553699146,57.14285714285715 L 75.94487003941921,57.14285714285715 L 75.97548694872731,57.14285714285715 L 76.00716879401133,57.14285714285715 L 77.47681593866525,57.14285714285715 L 77.50755709050387,57.14285714285715 L 77.54170603746545,57.14285714285715 L 79.01309257754673,57.14285714285715 L 79.0479514818256,57.14285714285715 L 79.08155021186631,57.14285714285715 L 80.54562419157952,57.14285714285715 L 80.57526490957633,57.14285714285715 L 80.60265151309075,57.14285714285715 L 82.08355148122371,57.14285714285715 L 82.11503808824546,57.14285714285715 L 82.14968400532916,57.14285714285715 L 83.61265755120056,57.14285714285715 L 83.64441039221632,57.14285714285715 L 83.68058271753218,57.14285714285715 L 85.14660907986791,57.14285714285715 L 85.17639178932819,57.14285714285715 L 85.20910307272229,57.14285714285715 L 86.68082684252927,57.14285714285715 L 86.70776972272039,57.14285714285715 L 86.74321434178603,57.14285714285715 L 88.21515109878821,57.14285714285715 L 88.24393986800428,57.14285714285715 L 88.27345634347057,57.14285714285715 L 89.75007881876684,57.14285714285715 L 89.77485632914023,57.14285714285715 L 89.80692865094876,57.14285714285715 L 91.27882991008508,57.14285714285715 L 91.30243599088493,57.14285714285715 L 91.33000008372866,57.14285714285715 L 92.81546152762519,57.14285714285715 L 92.84258189714564,57.14285714285715 L 92.87850573740045,57.14285714285715 L 94.34815288205438,57.14285714285715 L 94.37585896636158,57.14285714285715 L 94.40977717719505,57.14285714285715 L 95.87614076925651,57.14285714285715 L 95.90153949228252,57.14285714285715 L 95.93506722659149,57.14285714285715 L 97.40638277094104,57.14285714285715 L 97.4388100714082,57.14285714285715 L 97.47118412507658,57.14285714285715 L 98.94596071134791,57.14285714285715 L 98.9716789151667,57.14285714285715 L 99.00265080313343,57.14285714285715 L 100.48065769519843,57.14285714285715 L 100.50641139688308,57.14285714285715 L 100.53750752738034,57.14285714285715 L 102.01089969688296,57.14285714285715 L 102.04025643195286,57.14285714285715 L 102.07119282205372,57.14285714285715 L 103.54934170558217,57.14285714285715 L 103.5772785260175,57.14285714285715 L 103.61041578380195,57.14285714285715 L 105.08386120010336,57.14285714285715 L 105.10941966352577,57.14285714285715 L 105.14529025698178,57.14285714285715 L 106.61286077648263,57.14285714285715 L 106.63815300591105,57.14285714285715 L 106.6684681833593,57.14285714285715 L 108.14606684996684,57.14285714285715 L 108.17160756445632,57.14285714285715 L 108.20247295882545,57.14285714285715 L 109.68126080393947,57.14285714285715 L 109.70252402559227,57.14285714285715 L 109.7329989434369,57.14285714285715 L 111.21464436675299,57.14285714285715 L 111.23945737499226,57.14285714285715 L 111.2600283882607,57.14285714285715 L 112.74609329587692,57.14285714285715 L 112.76973487454264,57.14285714285715 L 112.79964182653345,57.14285714285715 L 114.2757495827747,57.14285714285715 L 114.31130069543792,57.14285714285715 L 114.34351500870991,57.14285714285715 L 115.8157889954378,57.14285714285715 L 115.84219940764093,57.14285714285715 L 115.87313579774181,57.14285714285715 L 117.34961628157463,57.14285714285715 L 117.37544097899101,57.14285714285715 L 117.40037822976079,57.14285714285715 L 118.88479248661433,57.14285714285715 L 118.90694315491372,57.14285714285715 L 118.93273235446425,57.14285714285715 L 120.41404054805464,57.14285714285715 L 120.4392972796172,57.14285714285715 L 120.46773107017461,57.14285714285715 L 121.95001545507628,57.14285714285715 L 121.97202413191224,57.14285714285715 L 122.0025167986898,57.14285714285715 L 123.47258991773408,57.14285714285715 L 123.50586916698201,57.14285714285715 L 123.53652157415594,57.14285714285715 L 125.0174215422889,57.14285714285715 L 125.04589083071218,57.14285714285715 L 125.07482159139171,57.14285714285715 L 126.55179904534664,57.14285714285715 L 126.58145751227639,57.14285714285715 L 126.61482550618896,57.14285714285715 L 128.08044364306727,57.14285714285715 L 128.10534539597117,57.14285714285715 L 128.13385018226035,57.14285714285715 L 129.61432417600292,57.14285714285715 L 129.63285406198412,57.14285714285715 L 129.66545885178064,57.14285714285715 L 131.14891466625585,57.14285714285715 L 131.17129607068335,57.14285714285715 L 131.20173549066212,57.14285714285715 L 132.68407312236258,57.14285714285715 L 132.70649002465598,57.14285714285715 L 132.73313117298724,57.14285714285715 L 134.21500733243147,40 L 134.23774371551764,40 L 134.26692296125822,40 L 135.7499882992089,40 L 135.77357663107583,40 L 135.80646540379922,40 L 137.27472813168444,40 L 137.30774114693838,40 L 137.34006195380795,40 L 138.81764287148258,40 L 138.83498357895735,40 L 138.86455330122243,40 L 140.3483818432892,40 L 140.37264463460755,40 L 140.40455721601967,40 L 141.87564202424113,40 L 141.9074836099215,40 L 141.93593514941188,40 L 143.41596541983114,40 L 143.4410091641985,40 L 143.4685022613105,40 L 144.94729010642453,40 L 144.97185462960272,40 L 144.9966853867749,40 L 145.03603477108567,40 L 146.48633557884347,40 L 146.51224902092451,40 L 146.5391919011156,40 L 148.01879619714452,40 L 148.04463864349384,40 L 148.07287719578898,40 L 149.55152304943954,40 L 149.57530661956872,40 L 149.6024447380221,40 L 151.08052262581882,40 L 151.1090984078397,40 L 152.62480403345273,40 L 152.64216248986043,40 L 152.66970883377127,40 L 154.15067979763595,40 L 154.1751200782836,40 L 154.20532876213426,40 L 155.6838148753884,40 L 155.70766944124932,40 L 155.73448807890992,40 L 157.22000276960523,40 L 157.2455967308935,40 L 157.27766905270204,40 L 158.7551079789132,40 L 158.78268982068985,40 L 158.80913573075887,40 L 160.29117163059948,40 L 160.3081396104827,40 L 160.33687513289996,40 L 161.8193547560639,40 L 161.84154092222917,40 L 161.86699289205396,40 L 163.35254308061516,40 L 163.3732205874812,40 L 163.40458295197246,40 L 164.8853764265078,40 L 164.9080595627952,40 L 164.93762928506027,40 L 166.41595565791803,40 L 166.4378045943576,40 L 166.46998340976373,40 L 167.94850502088374,40 L 167.98057734269227,40 L 168.01332412395223,40 L 169.48721326357696,40 L 169.510766097578,40 L 169.5403890666419,40 L 171.0203305923965,40 L 171.04354619667185,40 L 171.07316916573572,40 L 172.55456610399077,40 L 172.58505877076834,40 L 172.62108910462075,40 L 174.0884821347923,40 L 174.11063280309168,40 L 174.13896010005152,40 L 175.6236228419661,40 L 175.6424189619413,40 L 175.67207742887106,40 L 177.1520899503574,40 L 177.17420512079096,40 L 177.20244367308612,40 L 177.24108310007955,40 L 178.68966226134293,40 L 178.71917873680923,40 L 178.74848222508032,40 L 180.21938954397243,40 L 180.2464211688282,40 L 180.27465972112338,40 L 181.75554194032338,40 L 181.77073502691337,40 L 181.8063926331742,40 L 183.2874168438377,40 L 183.31262032860144,40 L 183.33333333333334,40" stroke="#22c55e" stroke-width="4" fill="none" opacity="0.4" stroke-dasharray="15100" stroke-dashoffset="15100">
      <animate attributeName="stroke-dashoffset" values="15100;0" dur="3s" begin="2.6s" fill="freeze"/>
    </path>
    
    <!-- Animated circle that moves along the path and draws the line -->
    <circle r="5" fill="#22c55e" opacity="0" filter="url(#trailGlow)">
      <animate attributeName="opacity" values="0;1;1;1" dur="3.2s" begin="2.4s" fill="freeze"/>
      <animate attributeName="r" values="5;6;5" dur="1s" begin="2.4s" repeatCount="3"/>
      <animateMotion dur="3s" begin="2.4s" fill="freeze">
        <mpath href="#path_followersCount_60"/>
      </animateMotion>
    </circle>
    
    <!-- Small trail dots that fade out -->
    <circle r="2" fill="#22c55e" opacity="0">
      <animate attributeName="opacity" values="0;0.6;0" dur="0.8s" begin="2.8s" fill="freeze"/>
      <animateMotion dur="3s" begin="2.4s" fill="freeze">
        <mpath href="#path_followersCount_60"/>
      </animateMotion>
    </circle>
    
    <!-- Hidden path for motion animation -->
    <path id="path_followersCount_60" d="M 30,160 L 31.472238488862025,160 L 31.50589046570152,160 L 31.5413528337001,160 L 33.00601252820007,160 L 33.031499995890734,160 L 33.06289785824784,160 L 34.54225366921568,160 L 34.564226848185776,160 L 34.59628142106137,160 L 36.07150173065601,160 L 36.097645908865175,160 L 36.12863554576484,160 L 37.604441570146236,160 L 37.63078098661765,160 L 37.661468891657464,160 L 39.14247535338801,160 L 39.16941823357912,160 L 39.2049338483765,160 L 40.673711295316735,160 L 40.70667106377188,160 L 40.72823601728453,160 L 42.20595892642261,160 L 42.23197886210125,160 L 42.26424642217203,160 L 43.734230796551664,160 L 43.769160696562274,160 L 43.79920964001653,160 L 45.27460743894049,160 L 45.30144382553401,160 L 45.33314341975096,160 L 46.80953515891912,160 L 46.83583907752468,160 L 46.86448585527729,160 L 48.34295421959852,160 L 48.36989709978964,160 L 48.398188898883596,160 L 49.87568107189356,160 L 49.90741616397638,160 L 49.940074200571665,160 L 51.40879840071311,160 L 51.438155135783006,160 L 51.4712568957016,160 L 52.93371572251797,160 L 52.97297636216405,160 L 53.00515517757017,160 L 54.47572526673656,160 L 54.50385732543413,160 L 54.53443873687635,160 L 56.00953480394047,160 L 56.03589196934482,160 L 56.06734307850071,160 L 57.54093048626559,160 L 57.56870756630451,160 L 57.60005218186282,160 L 59.07536123612212,160 L 59.09776038948259,160 L 59.1327967830908,160 L 60.61177986646706,160 L 60.64241452470807,160 L 60.6783916117617,160 L 62.14739979483005,160 L 62.17375696023441,160 L 62.20535006085376,160 L 63.67861798782585,57.14285714285715 L 63.70426519591292,57.14285714285715 L 63.73726046223392,57.14285714285715 L 65.20894873417504,57.14285714285715 L 65.23445395079864,57.14285714285715 L 65.26941934867513,57.14285714285715 L 66.7349664898217,57.14285714285715 L 66.76978989623473,57.14285714285715 L 66.80511027276984,57.14285714285715 L 68.27738425949774,57.14285714285715 L 68.2991799491385,57.14285714285715 L 68.33187348359965,57.14285714285715 L 69.81037734578675,57.14285714285715 L 69.83609554960555,57.14285714285715 L 69.86946354351812,57.14285714285715 L 71.33863146698289,57.14285714285715 L 71.37773236623256,57.14285714285715 L 71.41090512188289,57.14285714285715 L 72.87810291379216,57.14285714285715 L 72.9104059717288,57.14285714285715 L 72.94320599978755,57.14285714285715 L 74.41485877386282,57.14285714285715 L 74.44457048759136,57.14285714285715 L 74.47701553699146,57.14285714285715 L 75.94487003941921,57.14285714285715 L 75.97548694872731,57.14285714285715 L 76.00716879401133,57.14285714285715 L 77.47681593866525,57.14285714285715 L 77.50755709050387,57.14285714285715 L 77.54170603746545,57.14285714285715 L 79.01309257754673,57.14285714285715 L 79.0479514818256,57.14285714285715 L 79.08155021186631,57.14285714285715 L 80.54562419157952,57.14285714285715 L 80.57526490957633,57.14285714285715 L 80.60265151309075,57.14285714285715 L 82.08355148122371,57.14285714285715 L 82.11503808824546,57.14285714285715 L 82.14968400532916,57.14285714285715 L 83.61265755120056,57.14285714285715 L 83.64441039221632,57.14285714285715 L 83.68058271753218,57.14285714285715 L 85.14660907986791,57.14285714285715 L 85.17639178932819,57.14285714285715 L 85.20910307272229,57.14285714285715 L 86.68082684252927,57.14285714285715 L 86.70776972272039,57.14285714285715 L 86.74321434178603,57.14285714285715 L 88.21515109878821,57.14285714285715 L 88.24393986800428,57.14285714285715 L 88.27345634347057,57.14285714285715 L 89.75007881876684,57.14285714285715 L 89.77485632914023,57.14285714285715 L 89.80692865094876,57.14285714285715 L 91.27882991008508,57.14285714285715 L 91.30243599088493,57.14285714285715 L 91.33000008372866,57.14285714285715 L 92.81546152762519,57.14285714285715 L 92.84258189714564,57.14285714285715 L 92.87850573740045,57.14285714285715 L 94.34815288205438,57.14285714285715 L 94.37585896636158,57.14285714285715 L 94.40977717719505,57.14285714285715 L 95.87614076925651,57.14285714285715 L 95.90153949228252,57.14285714285715 L 95.93506722659149,57.14285714285715 L 97.40638277094104,57.14285714285715 L 97.4388100714082,57.14285714285715 L 97.47118412507658,57.14285714285715 L 98.94596071134791,57.14285714285715 L 98.9716789151667,57.14285714285715 L 99.00265080313343,57.14285714285715 L 100.48065769519843,57.14285714285715 L 100.50641139688308,57.14285714285715 L 100.53750752738034,57.14285714285715 L 102.01089969688296,57.14285714285715 L 102.04025643195286,57.14285714285715 L 102.07119282205372,57.14285714285715 L 103.54934170558217,57.14285714285715 L 103.5772785260175,57.14285714285715 L 103.61041578380195,57.14285714285715 L 105.08386120010336,57.14285714285715 L 105.10941966352577,57.14285714285715 L 105.14529025698178,57.14285714285715 L 106.61286077648263,57.14285714285715 L 106.63815300591105,57.14285714285715 L 106.6684681833593,57.14285714285715 L 108.14606684996684,57.14285714285715 L 108.17160756445632,57.14285714285715 L 108.20247295882545,57.14285714285715 L 109.68126080393947,57.14285714285715 L 109.70252402559227,57.14285714285715 L 109.7329989434369,57.14285714285715 L 111.21464436675299,57.14285714285715 L 111.23945737499226,57.14285714285715 L 111.2600283882607,57.14285714285715 L 112.74609329587692,57.14285714285715 L 112.76973487454264,57.14285714285715 L 112.79964182653345,57.14285714285715 L 114.2757495827747,57.14285714285715 L 114.31130069543792,57.14285714285715 L 114.34351500870991,57.14285714285715 L 115.8157889954378,57.14285714285715 L 115.84219940764093,57.14285714285715 L 115.87313579774181,57.14285714285715 L 117.34961628157463,57.14285714285715 L 117.37544097899101,57.14285714285715 L 117.40037822976079,57.14285714285715 L 118.88479248661433,57.14285714285715 L 118.90694315491372,57.14285714285715 L 118.93273235446425,57.14285714285715 L 120.41404054805464,57.14285714285715 L 120.4392972796172,57.14285714285715 L 120.46773107017461,57.14285714285715 L 121.95001545507628,57.14285714285715 L 121.97202413191224,57.14285714285715 L 122.0025167986898,57.14285714285715 L 123.47258991773408,57.14285714285715 L 123.50586916698201,57.14285714285715 L 123.53652157415594,57.14285714285715 L 125.0174215422889,57.14285714285715 L 125.04589083071218,57.14285714285715 L 125.07482159139171,57.14285714285715 L 126.55179904534664,57.14285714285715 L 126.58145751227639,57.14285714285715 L 126.61482550618896,57.14285714285715 L 128.08044364306727,57.14285714285715 L 128.10534539597117,57.14285714285715 L 128.13385018226035,57.14285714285715 L 129.61432417600292,57.14285714285715 L 129.63285406198412,57.14285714285715 L 129.66545885178064,57.14285714285715 L 131.14891466625585,57.14285714285715 L 131.17129607068335,57.14285714285715 L 131.20173549066212,57.14285714285715 L 132.68407312236258,57.14285714285715 L 132.70649002465598,57.14285714285715 L 132.73313117298724,57.14285714285715 L 134.21500733243147,40 L 134.23774371551764,40 L 134.26692296125822,40 L 135.7499882992089,40 L 135.77357663107583,40 L 135.80646540379922,40 L 137.27472813168444,40 L 137.30774114693838,40 L 137.34006195380795,40 L 138.81764287148258,40 L 138.83498357895735,40 L 138.86455330122243,40 L 140.3483818432892,40 L 140.37264463460755,40 L 140.40455721601967,40 L 141.87564202424113,40 L 141.9074836099215,40 L 141.93593514941188,40 L 143.41596541983114,40 L 143.4410091641985,40 L 143.4685022613105,40 L 144.94729010642453,40 L 144.97185462960272,40 L 144.9966853867749,40 L 145.03603477108567,40 L 146.48633557884347,40 L 146.51224902092451,40 L 146.5391919011156,40 L 148.01879619714452,40 L 148.04463864349384,40 L 148.07287719578898,40 L 149.55152304943954,40 L 149.57530661956872,40 L 149.6024447380221,40 L 151.08052262581882,40 L 151.1090984078397,40 L 152.62480403345273,40 L 152.64216248986043,40 L 152.66970883377127,40 L 154.15067979763595,40 L 154.1751200782836,40 L 154.20532876213426,40 L 155.6838148753884,40 L 155.70766944124932,40 L 155.73448807890992,40 L 157.22000276960523,40 L 157.2455967308935,40 L 157.27766905270204,40 L 158.7551079789132,40 L 158.78268982068985,40 L 158.80913573075887,40 L 160.29117163059948,40 L 160.3081396104827,40 L 160.33687513289996,40 L 161.8193547560639,40 L 161.84154092222917,40 L 161.86699289205396,40 L 163.35254308061516,40 L 163.3732205874812,40 L 163.40458295197246,40 L 164.8853764265078,40 L 164.9080595627952,40 L 164.93762928506027,40 L 166.41595565791803,40 L 166.4378045943576,40 L 166.46998340976373,40 L 167.94850502088374,40 L 167.98057734269227,40 L 168.01332412395223,40 L 169.48721326357696,40 L 169.510766097578,40 L 169.5403890666419,40 L 171.0203305923965,40 L 171.04354619667185,40 L 171.07316916573572,40 L 172.55456610399077,40 L 172.58505877076834,40 L 172.62108910462075,40 L 174.0884821347923,40 L 174.11063280309168,40 L 174.13896010005152,40 L 175.6236228419661,40 L 175.6424189619413,40 L 175.67207742887106,40 L 177.1520899503574,40 L 177.17420512079096,40 L 177.20244367308612,40 L 177.24108310007955,40 L 178.68966226134293,40 L 178.71917873680923,40 L 178.74848222508032,40 L 180.21938954397243,40 L 180.2464211688282,40 L 180.27465972112338,40 L 181.75554194032338,40 L 181.77073502691337,40 L 181.8063926331742,40 L 183.2874168438377,40 L 183.31262032860144,40 L 183.33333333333334,40" fill="none" stroke="none"/>
  </g>
  <!-- 🔓 Public Contributions Chart -->
  <g transform="translate(293.33333333333337, 250)">
    <!-- Chart Background -->
    <rect x="0" y="0" width="213.33333333333334" height="200" fill="#ffffff" stroke="#e2e8f0" stroke-width="1" rx="8" filter="url(#shadow)">
      <animate attributeName="opacity" values="0;1" dur="0.5s" begin="2.3s" fill="freeze"/>
    </rect>
    
    <!-- Chart Title -->
    <text x="106.66666666666667" y="25" text-anchor="middle" fill="#1e293b" font-size="14" font-weight="bold" font-family="Arial, sans-serif">
      🔓 Public Contributions
      <animate attributeName="opacity" values="0;1" dur="0.5s" begin="2.5s" fill="freeze"/>
    </text>
    
    <!-- Y-axis labels -->
    <text x="10" y="45" fill="#64748b" font-size="10" font-family="Arial, sans-serif">2,669
      <animate attributeName="opacity" values="0;1" dur="0.5s" begin="2.6999999999999997s" fill="freeze"/>
    </text>
    <text x="10" y="185" fill="#64748b" font-size="10" font-family="Arial, sans-serif">1,491
      <animate attributeName="opacity" values="0;1" dur="0.5s" begin="2.6999999999999997s" fill="freeze"/>
    </text>
    
    <!-- Chart Line with draw animation that follows the circle -->
    <path d="M 30,160 L 31.472238488862025,160 L 31.50589046570152,160 L 31.5413528337001,160 L 33.00601252820007,160 L 33.031499995890734,160 L 33.06289785824784,160 L 34.54225366921568,160 L 34.564226848185776,160 L 34.59628142106137,160 L 36.07150173065601,160 L 36.097645908865175,160 L 36.12863554576484,160 L 37.604441570146236,160 L 37.63078098661765,160 L 37.661468891657464,160 L 39.14247535338801,160 L 39.16941823357912,160 L 39.2049338483765,160 L 40.673711295316735,160 L 40.70667106377188,160 L 40.72823601728453,160 L 42.20595892642261,160 L 42.23197886210125,160 L 42.26424642217203,160 L 43.734230796551664,160 L 43.769160696562274,160 L 43.79920964001653,160 L 45.27460743894049,160 L 45.30144382553401,160 L 45.33314341975096,160 L 46.80953515891912,160 L 46.83583907752468,160 L 46.86448585527729,160 L 48.34295421959852,160 L 48.36989709978964,160 L 48.398188898883596,160 L 49.87568107189356,160 L 49.90741616397638,160 L 49.940074200571665,160 L 51.40879840071311,160 L 51.438155135783006,160 L 51.4712568957016,160 L 52.93371572251797,160 L 52.97297636216405,160 L 53.00515517757017,160 L 54.47572526673656,160 L 54.50385732543413,160 L 54.53443873687635,160 L 56.00953480394047,160 L 56.03589196934482,160 L 56.06734307850071,160 L 57.54093048626559,160 L 57.56870756630451,160 L 57.60005218186282,160 L 59.07536123612212,160 L 59.09776038948259,160 L 59.1327967830908,160 L 60.61177986646706,160 L 60.64241452470807,160 L 60.6783916117617,160 L 62.14739979483005,160 L 62.17375696023441,160 L 62.20535006085376,160 L 63.67861798782585,133.3106960950764 L 63.70426519591292,133.3106960950764 L 63.73726046223392,133.3106960950764 L 65.20894873417504,133.3106960950764 L 65.23445395079864,133.3106960950764 L 65.26941934867513,133.3106960950764 L 66.7349664898217,133.3106960950764 L 66.76978989623473,133.3106960950764 L 66.80511027276984,133.3106960950764 L 68.27738425949774,133.3106960950764 L 68.2991799491385,133.3106960950764 L 68.33187348359965,133.3106960950764 L 69.81037734578675,133.3106960950764 L 69.83609554960555,133.3106960950764 L 69.86946354351812,133.3106960950764 L 71.33863146698289,133.3106960950764 L 71.37773236623256,133.3106960950764 L 71.41090512188289,133.3106960950764 L 72.87810291379216,133.3106960950764 L 72.9104059717288,133.3106960950764 L 72.94320599978755,133.3106960950764 L 74.41485877386282,133.3106960950764 L 74.44457048759136,133.3106960950764 L 74.47701553699146,133.3106960950764 L 75.94487003941921,133.3106960950764 L 75.97548694872731,133.3106960950764 L 76.00716879401133,133.3106960950764 L 77.47681593866525,133.3106960950764 L 77.50755709050387,133.3106960950764 L 77.54170603746545,133.3106960950764 L 79.01309257754673,133.3106960950764 L 79.0479514818256,133.3106960950764 L 79.08155021186631,133.3106960950764 L 80.54562419157952,133.3106960950764 L 80.57526490957633,133.3106960950764 L 80.60265151309075,133.3106960950764 L 82.08355148122371,133.3106960950764 L 82.11503808824546,133.3106960950764 L 82.14968400532916,133.3106960950764 L 83.61265755120056,133.3106960950764 L 83.64441039221632,133.3106960950764 L 83.68058271753218,133.3106960950764 L 85.14660907986791,133.3106960950764 L 85.17639178932819,133.3106960950764 L 85.20910307272229,133.3106960950764 L 86.68082684252927,133.3106960950764 L 86.70776972272039,133.3106960950764 L 86.74321434178603,133.3106960950764 L 88.21515109878821,133.3106960950764 L 88.24393986800428,133.3106960950764 L 88.27345634347057,133.3106960950764 L 89.75007881876684,133.3106960950764 L 89.77485632914023,133.3106960950764 L 89.80692865094876,133.3106960950764 L 91.27882991008508,133.3106960950764 L 91.30243599088493,133.3106960950764 L 91.33000008372866,133.3106960950764 L 92.81546152762519,133.3106960950764 L 92.84258189714564,133.3106960950764 L 92.87850573740045,133.3106960950764 L 94.34815288205438,133.3106960950764 L 94.37585896636158,133.3106960950764 L 94.40977717719505,133.3106960950764 L 95.87614076925651,133.3106960950764 L 95.90153949228252,133.3106960950764 L 95.93506722659149,133.3106960950764 L 97.40638277094104,133.3106960950764 L 97.4388100714082,133.3106960950764 L 97.47118412507658,133.3106960950764 L 98.94596071134791,133.3106960950764 L 98.9716789151667,133.3106960950764 L 99.00265080313343,133.3106960950764 L 100.48065769519843,133.3106960950764 L 100.50641139688308,133.3106960950764 L 100.53750752738034,133.3106960950764 L 102.01089969688296,133.3106960950764 L 102.04025643195286,133.3106960950764 L 102.07119282205372,133.3106960950764 L 103.54934170558217,133.3106960950764 L 103.5772785260175,133.3106960950764 L 103.61041578380195,133.3106960950764 L 105.08386120010336,133.3106960950764 L 105.10941966352577,133.3106960950764 L 105.14529025698178,133.3106960950764 L 106.61286077648263,133.3106960950764 L 106.63815300591105,133.3106960950764 L 106.6684681833593,133.3106960950764 L 108.14606684996684,133.3106960950764 L 108.17160756445632,133.3106960950764 L 108.20247295882545,133.3106960950764 L 109.68126080393947,133.3106960950764 L 109.70252402559227,133.3106960950764 L 109.7329989434369,133.3106960950764 L 111.21464436675299,133.3106960950764 L 111.23945737499226,133.3106960950764 L 111.2600283882607,133.3106960950764 L 112.74609329587692,133.3106960950764 L 112.76973487454264,133.3106960950764 L 112.79964182653345,133.3106960950764 L 114.2757495827747,133.3106960950764 L 114.31130069543792,133.3106960950764 L 114.34351500870991,133.3106960950764 L 115.8157889954378,133.3106960950764 L 115.84219940764093,133.3106960950764 L 115.87313579774181,133.3106960950764 L 117.34961628157463,133.3106960950764 L 117.37544097899101,133.3106960950764 L 117.40037822976079,133.3106960950764 L 118.88479248661433,133.3106960950764 L 118.90694315491372,133.3106960950764 L 118.93273235446425,133.3106960950764 L 120.41404054805464,133.3106960950764 L 120.4392972796172,133.3106960950764 L 120.46773107017461,133.3106960950764 L 121.95001545507628,133.3106960950764 L 121.97202413191224,133.3106960950764 L 122.0025167986898,133.3106960950764 L 123.47258991773408,133.3106960950764 L 123.50586916698201,133.3106960950764 L 123.53652157415594,133.3106960950764 L 125.0174215422889,133.3106960950764 L 125.04589083071218,133.3106960950764 L 125.07482159139171,133.3106960950764 L 126.55179904534664,133.3106960950764 L 126.58145751227639,133.3106960950764 L 126.61482550618896,133.3106960950764 L 128.08044364306727,133.3106960950764 L 128.10534539597117,133.3106960950764 L 128.13385018226035,133.3106960950764 L 129.61432417600292,133.3106960950764 L 129.63285406198412,133.3106960950764 L 129.66545885178064,133.3106960950764 L 131.14891466625585,133.3106960950764 L 131.17129607068335,133.3106960950764 L 131.20173549066212,133.3106960950764 L 132.68407312236258,133.3106960950764 L 132.70649002465598,133.3106960950764 L 132.73313117298724,133.3106960950764 L 134.21500733243147,40 L 134.23774371551764,40 L 134.26692296125822,40 L 135.7499882992089,40 L 135.77357663107583,40 L 135.80646540379922,40 L 137.27472813168444,40 L 137.30774114693838,40 L 137.34006195380795,40 L 138.81764287148258,40 L 138.83498357895735,40 L 138.86455330122243,40 L 140.3483818432892,40 L 140.37264463460755,40 L 140.40455721601967,40 L 141.87564202424113,40 L 141.9074836099215,40 L 141.93593514941188,40 L 143.41596541983114,40 L 143.4410091641985,40 L 143.4685022613105,40 L 144.94729010642453,40 L 144.97185462960272,40 L 144.9966853867749,40 L 145.03603477108567,40 L 146.48633557884347,40 L 146.51224902092451,40 L 146.5391919011156,40 L 148.01879619714452,40 L 148.04463864349384,40 L 148.07287719578898,40 L 149.55152304943954,40 L 149.57530661956872,40 L 149.6024447380221,40 L 151.08052262581882,40 L 151.1090984078397,40 L 152.62480403345273,40 L 152.64216248986043,40 L 152.66970883377127,40 L 154.15067979763595,40 L 154.1751200782836,40 L 154.20532876213426,40 L 155.6838148753884,40 L 155.70766944124932,40 L 155.73448807890992,40 L 157.22000276960523,40 L 157.2455967308935,40 L 157.27766905270204,40 L 158.7551079789132,40 L 158.78268982068985,40 L 158.80913573075887,40 L 160.29117163059948,40 L 160.3081396104827,40 L 160.33687513289996,40 L 161.8193547560639,40 L 161.84154092222917,40 L 161.86699289205396,40 L 163.35254308061516,40 L 163.3732205874812,40 L 163.40458295197246,40 L 164.8853764265078,40 L 164.9080595627952,40 L 164.93762928506027,40 L 166.41595565791803,40 L 166.4378045943576,40 L 166.46998340976373,40 L 167.94850502088374,40 L 167.98057734269227,40 L 168.01332412395223,40 L 169.48721326357696,40 L 169.510766097578,40 L 169.5403890666419,40 L 171.0203305923965,40 L 171.04354619667185,40 L 171.07316916573572,40 L 172.55456610399077,40 L 172.58505877076834,40 L 172.62108910462075,40 L 174.0884821347923,40 L 174.11063280309168,40 L 174.13896010005152,40 L 175.6236228419661,40 L 175.6424189619413,40 L 175.67207742887106,40 L 177.1520899503574,40 L 177.17420512079096,40 L 177.20244367308612,40 L 177.24108310007955,40 L 178.68966226134293,40 L 178.71917873680923,40 L 178.74848222508032,40 L 180.21938954397243,40 L 180.2464211688282,40 L 180.27465972112338,40 L 181.75554194032338,40 L 181.77073502691337,40 L 181.8063926331742,40 L 183.2874168438377,40 L 183.31262032860144,40 L 183.33333333333334,40" stroke="#3b82f6" stroke-width="2" fill="none" stroke-dasharray="15100" stroke-dashoffset="15100">
      <animate attributeName="stroke-dashoffset" values="15100;0" dur="3s" begin="3.0999999999999996s" fill="freeze"/>
    </path>
    
    <!-- Glow effect for the line that also follows the circle -->
    <path d="M 30,160 L 31.472238488862025,160 L 31.50589046570152,160 L 31.5413528337001,160 L 33.00601252820007,160 L 33.031499995890734,160 L 33.06289785824784,160 L 34.54225366921568,160 L 34.564226848185776,160 L 34.59628142106137,160 L 36.07150173065601,160 L 36.097645908865175,160 L 36.12863554576484,160 L 37.604441570146236,160 L 37.63078098661765,160 L 37.661468891657464,160 L 39.14247535338801,160 L 39.16941823357912,160 L 39.2049338483765,160 L 40.673711295316735,160 L 40.70667106377188,160 L 40.72823601728453,160 L 42.20595892642261,160 L 42.23197886210125,160 L 42.26424642217203,160 L 43.734230796551664,160 L 43.769160696562274,160 L 43.79920964001653,160 L 45.27460743894049,160 L 45.30144382553401,160 L 45.33314341975096,160 L 46.80953515891912,160 L 46.83583907752468,160 L 46.86448585527729,160 L 48.34295421959852,160 L 48.36989709978964,160 L 48.398188898883596,160 L 49.87568107189356,160 L 49.90741616397638,160 L 49.940074200571665,160 L 51.40879840071311,160 L 51.438155135783006,160 L 51.4712568957016,160 L 52.93371572251797,160 L 52.97297636216405,160 L 53.00515517757017,160 L 54.47572526673656,160 L 54.50385732543413,160 L 54.53443873687635,160 L 56.00953480394047,160 L 56.03589196934482,160 L 56.06734307850071,160 L 57.54093048626559,160 L 57.56870756630451,160 L 57.60005218186282,160 L 59.07536123612212,160 L 59.09776038948259,160 L 59.1327967830908,160 L 60.61177986646706,160 L 60.64241452470807,160 L 60.6783916117617,160 L 62.14739979483005,160 L 62.17375696023441,160 L 62.20535006085376,160 L 63.67861798782585,133.3106960950764 L 63.70426519591292,133.3106960950764 L 63.73726046223392,133.3106960950764 L 65.20894873417504,133.3106960950764 L 65.23445395079864,133.3106960950764 L 65.26941934867513,133.3106960950764 L 66.7349664898217,133.3106960950764 L 66.76978989623473,133.3106960950764 L 66.80511027276984,133.3106960950764 L 68.27738425949774,133.3106960950764 L 68.2991799491385,133.3106960950764 L 68.33187348359965,133.3106960950764 L 69.81037734578675,133.3106960950764 L 69.83609554960555,133.3106960950764 L 69.86946354351812,133.3106960950764 L 71.33863146698289,133.3106960950764 L 71.37773236623256,133.3106960950764 L 71.41090512188289,133.3106960950764 L 72.87810291379216,133.3106960950764 L 72.9104059717288,133.3106960950764 L 72.94320599978755,133.3106960950764 L 74.41485877386282,133.3106960950764 L 74.44457048759136,133.3106960950764 L 74.47701553699146,133.3106960950764 L 75.94487003941921,133.3106960950764 L 75.97548694872731,133.3106960950764 L 76.00716879401133,133.3106960950764 L 77.47681593866525,133.3106960950764 L 77.50755709050387,133.3106960950764 L 77.54170603746545,133.3106960950764 L 79.01309257754673,133.3106960950764 L 79.0479514818256,133.3106960950764 L 79.08155021186631,133.3106960950764 L 80.54562419157952,133.3106960950764 L 80.57526490957633,133.3106960950764 L 80.60265151309075,133.3106960950764 L 82.08355148122371,133.3106960950764 L 82.11503808824546,133.3106960950764 L 82.14968400532916,133.3106960950764 L 83.61265755120056,133.3106960950764 L 83.64441039221632,133.3106960950764 L 83.68058271753218,133.3106960950764 L 85.14660907986791,133.3106960950764 L 85.17639178932819,133.3106960950764 L 85.20910307272229,133.3106960950764 L 86.68082684252927,133.3106960950764 L 86.70776972272039,133.3106960950764 L 86.74321434178603,133.3106960950764 L 88.21515109878821,133.3106960950764 L 88.24393986800428,133.3106960950764 L 88.27345634347057,133.3106960950764 L 89.75007881876684,133.3106960950764 L 89.77485632914023,133.3106960950764 L 89.80692865094876,133.3106960950764 L 91.27882991008508,133.3106960950764 L 91.30243599088493,133.3106960950764 L 91.33000008372866,133.3106960950764 L 92.81546152762519,133.3106960950764 L 92.84258189714564,133.3106960950764 L 92.87850573740045,133.3106960950764 L 94.34815288205438,133.3106960950764 L 94.37585896636158,133.3106960950764 L 94.40977717719505,133.3106960950764 L 95.87614076925651,133.3106960950764 L 95.90153949228252,133.3106960950764 L 95.93506722659149,133.3106960950764 L 97.40638277094104,133.3106960950764 L 97.4388100714082,133.3106960950764 L 97.47118412507658,133.3106960950764 L 98.94596071134791,133.3106960950764 L 98.9716789151667,133.3106960950764 L 99.00265080313343,133.3106960950764 L 100.48065769519843,133.3106960950764 L 100.50641139688308,133.3106960950764 L 100.53750752738034,133.3106960950764 L 102.01089969688296,133.3106960950764 L 102.04025643195286,133.3106960950764 L 102.07119282205372,133.3106960950764 L 103.54934170558217,133.3106960950764 L 103.5772785260175,133.3106960950764 L 103.61041578380195,133.3106960950764 L 105.08386120010336,133.3106960950764 L 105.10941966352577,133.3106960950764 L 105.14529025698178,133.3106960950764 L 106.61286077648263,133.3106960950764 L 106.63815300591105,133.3106960950764 L 106.6684681833593,133.3106960950764 L 108.14606684996684,133.3106960950764 L 108.17160756445632,133.3106960950764 L 108.20247295882545,133.3106960950764 L 109.68126080393947,133.3106960950764 L 109.70252402559227,133.3106960950764 L 109.7329989434369,133.3106960950764 L 111.21464436675299,133.3106960950764 L 111.23945737499226,133.3106960950764 L 111.2600283882607,133.3106960950764 L 112.74609329587692,133.3106960950764 L 112.76973487454264,133.3106960950764 L 112.79964182653345,133.3106960950764 L 114.2757495827747,133.3106960950764 L 114.31130069543792,133.3106960950764 L 114.34351500870991,133.3106960950764 L 115.8157889954378,133.3106960950764 L 115.84219940764093,133.3106960950764 L 115.87313579774181,133.3106960950764 L 117.34961628157463,133.3106960950764 L 117.37544097899101,133.3106960950764 L 117.40037822976079,133.3106960950764 L 118.88479248661433,133.3106960950764 L 118.90694315491372,133.3106960950764 L 118.93273235446425,133.3106960950764 L 120.41404054805464,133.3106960950764 L 120.4392972796172,133.3106960950764 L 120.46773107017461,133.3106960950764 L 121.95001545507628,133.3106960950764 L 121.97202413191224,133.3106960950764 L 122.0025167986898,133.3106960950764 L 123.47258991773408,133.3106960950764 L 123.50586916698201,133.3106960950764 L 123.53652157415594,133.3106960950764 L 125.0174215422889,133.3106960950764 L 125.04589083071218,133.3106960950764 L 125.07482159139171,133.3106960950764 L 126.55179904534664,133.3106960950764 L 126.58145751227639,133.3106960950764 L 126.61482550618896,133.3106960950764 L 128.08044364306727,133.3106960950764 L 128.10534539597117,133.3106960950764 L 128.13385018226035,133.3106960950764 L 129.61432417600292,133.3106960950764 L 129.63285406198412,133.3106960950764 L 129.66545885178064,133.3106960950764 L 131.14891466625585,133.3106960950764 L 131.17129607068335,133.3106960950764 L 131.20173549066212,133.3106960950764 L 132.68407312236258,133.3106960950764 L 132.70649002465598,133.3106960950764 L 132.73313117298724,133.3106960950764 L 134.21500733243147,40 L 134.23774371551764,40 L 134.26692296125822,40 L 135.7499882992089,40 L 135.77357663107583,40 L 135.80646540379922,40 L 137.27472813168444,40 L 137.30774114693838,40 L 137.34006195380795,40 L 138.81764287148258,40 L 138.83498357895735,40 L 138.86455330122243,40 L 140.3483818432892,40 L 140.37264463460755,40 L 140.40455721601967,40 L 141.87564202424113,40 L 141.9074836099215,40 L 141.93593514941188,40 L 143.41596541983114,40 L 143.4410091641985,40 L 143.4685022613105,40 L 144.94729010642453,40 L 144.97185462960272,40 L 144.9966853867749,40 L 145.03603477108567,40 L 146.48633557884347,40 L 146.51224902092451,40 L 146.5391919011156,40 L 148.01879619714452,40 L 148.04463864349384,40 L 148.07287719578898,40 L 149.55152304943954,40 L 149.57530661956872,40 L 149.6024447380221,40 L 151.08052262581882,40 L 151.1090984078397,40 L 152.62480403345273,40 L 152.64216248986043,40 L 152.66970883377127,40 L 154.15067979763595,40 L 154.1751200782836,40 L 154.20532876213426,40 L 155.6838148753884,40 L 155.70766944124932,40 L 155.73448807890992,40 L 157.22000276960523,40 L 157.2455967308935,40 L 157.27766905270204,40 L 158.7551079789132,40 L 158.78268982068985,40 L 158.80913573075887,40 L 160.29117163059948,40 L 160.3081396104827,40 L 160.33687513289996,40 L 161.8193547560639,40 L 161.84154092222917,40 L 161.86699289205396,40 L 163.35254308061516,40 L 163.3732205874812,40 L 163.40458295197246,40 L 164.8853764265078,40 L 164.9080595627952,40 L 164.93762928506027,40 L 166.41595565791803,40 L 166.4378045943576,40 L 166.46998340976373,40 L 167.94850502088374,40 L 167.98057734269227,40 L 168.01332412395223,40 L 169.48721326357696,40 L 169.510766097578,40 L 169.5403890666419,40 L 171.0203305923965,40 L 171.04354619667185,40 L 171.07316916573572,40 L 172.55456610399077,40 L 172.58505877076834,40 L 172.62108910462075,40 L 174.0884821347923,40 L 174.11063280309168,40 L 174.13896010005152,40 L 175.6236228419661,40 L 175.6424189619413,40 L 175.67207742887106,40 L 177.1520899503574,40 L 177.17420512079096,40 L 177.20244367308612,40 L 177.24108310007955,40 L 178.68966226134293,40 L 178.71917873680923,40 L 178.74848222508032,40 L 180.21938954397243,40 L 180.2464211688282,40 L 180.27465972112338,40 L 181.75554194032338,40 L 181.77073502691337,40 L 181.8063926331742,40 L 183.2874168438377,40 L 183.31262032860144,40 L 183.33333333333334,40" stroke="#3b82f6" stroke-width="4" fill="none" opacity="0.4" stroke-dasharray="15100" stroke-dashoffset="15100">
      <animate attributeName="stroke-dashoffset" values="15100;0" dur="3s" begin="3.0999999999999996s" fill="freeze"/>
    </path>
    
    <!-- Animated circle that moves along the path and draws the line -->
    <circle r="5" fill="#3b82f6" opacity="0" filter="url(#trailGlow)">
      <animate attributeName="opacity" values="0;1;1;1" dur="3.2s" begin="2.9s" fill="freeze"/>
      <animate attributeName="r" values="5;6;5" dur="1s" begin="2.9s" repeatCount="3"/>
      <animateMotion dur="3s" begin="2.9s" fill="freeze">
        <mpath href="#path_publicContributions_293.33333333333337"/>
      </animateMotion>
    </circle>
    
    <!-- Small trail dots that fade out -->
    <circle r="2" fill="#3b82f6" opacity="0">
      <animate attributeName="opacity" values="0;0.6;0" dur="0.8s" begin="3.3s" fill="freeze"/>
      <animateMotion dur="3s" begin="2.9s" fill="freeze">
        <mpath href="#path_publicContributions_293.33333333333337"/>
      </animateMotion>
    </circle>
    
    <!-- Hidden path for motion animation -->
    <path id="path_publicContributions_293.33333333333337" d="M 30,160 L 31.472238488862025,160 L 31.50589046570152,160 L 31.5413528337001,160 L 33.00601252820007,160 L 33.031499995890734,160 L 33.06289785824784,160 L 34.54225366921568,160 L 34.564226848185776,160 L 34.59628142106137,160 L 36.07150173065601,160 L 36.097645908865175,160 L 36.12863554576484,160 L 37.604441570146236,160 L 37.63078098661765,160 L 37.661468891657464,160 L 39.14247535338801,160 L 39.16941823357912,160 L 39.2049338483765,160 L 40.673711295316735,160 L 40.70667106377188,160 L 40.72823601728453,160 L 42.20595892642261,160 L 42.23197886210125,160 L 42.26424642217203,160 L 43.734230796551664,160 L 43.769160696562274,160 L 43.79920964001653,160 L 45.27460743894049,160 L 45.30144382553401,160 L 45.33314341975096,160 L 46.80953515891912,160 L 46.83583907752468,160 L 46.86448585527729,160 L 48.34295421959852,160 L 48.36989709978964,160 L 48.398188898883596,160 L 49.87568107189356,160 L 49.90741616397638,160 L 49.940074200571665,160 L 51.40879840071311,160 L 51.438155135783006,160 L 51.4712568957016,160 L 52.93371572251797,160 L 52.97297636216405,160 L 53.00515517757017,160 L 54.47572526673656,160 L 54.50385732543413,160 L 54.53443873687635,160 L 56.00953480394047,160 L 56.03589196934482,160 L 56.06734307850071,160 L 57.54093048626559,160 L 57.56870756630451,160 L 57.60005218186282,160 L 59.07536123612212,160 L 59.09776038948259,160 L 59.1327967830908,160 L 60.61177986646706,160 L 60.64241452470807,160 L 60.6783916117617,160 L 62.14739979483005,160 L 62.17375696023441,160 L 62.20535006085376,160 L 63.67861798782585,133.3106960950764 L 63.70426519591292,133.3106960950764 L 63.73726046223392,133.3106960950764 L 65.20894873417504,133.3106960950764 L 65.23445395079864,133.3106960950764 L 65.26941934867513,133.3106960950764 L 66.7349664898217,133.3106960950764 L 66.76978989623473,133.3106960950764 L 66.80511027276984,133.3106960950764 L 68.27738425949774,133.3106960950764 L 68.2991799491385,133.3106960950764 L 68.33187348359965,133.3106960950764 L 69.81037734578675,133.3106960950764 L 69.83609554960555,133.3106960950764 L 69.86946354351812,133.3106960950764 L 71.33863146698289,133.3106960950764 L 71.37773236623256,133.3106960950764 L 71.41090512188289,133.3106960950764 L 72.87810291379216,133.3106960950764 L 72.9104059717288,133.3106960950764 L 72.94320599978755,133.3106960950764 L 74.41485877386282,133.3106960950764 L 74.44457048759136,133.3106960950764 L 74.47701553699146,133.3106960950764 L 75.94487003941921,133.3106960950764 L 75.97548694872731,133.3106960950764 L 76.00716879401133,133.3106960950764 L 77.47681593866525,133.3106960950764 L 77.50755709050387,133.3106960950764 L 77.54170603746545,133.3106960950764 L 79.01309257754673,133.3106960950764 L 79.0479514818256,133.3106960950764 L 79.08155021186631,133.3106960950764 L 80.54562419157952,133.3106960950764 L 80.57526490957633,133.3106960950764 L 80.60265151309075,133.3106960950764 L 82.08355148122371,133.3106960950764 L 82.11503808824546,133.3106960950764 L 82.14968400532916,133.3106960950764 L 83.61265755120056,133.3106960950764 L 83.64441039221632,133.3106960950764 L 83.68058271753218,133.3106960950764 L 85.14660907986791,133.3106960950764 L 85.17639178932819,133.3106960950764 L 85.20910307272229,133.3106960950764 L 86.68082684252927,133.3106960950764 L 86.70776972272039,133.3106960950764 L 86.74321434178603,133.3106960950764 L 88.21515109878821,133.3106960950764 L 88.24393986800428,133.3106960950764 L 88.27345634347057,133.3106960950764 L 89.75007881876684,133.3106960950764 L 89.77485632914023,133.3106960950764 L 89.80692865094876,133.3106960950764 L 91.27882991008508,133.3106960950764 L 91.30243599088493,133.3106960950764 L 91.33000008372866,133.3106960950764 L 92.81546152762519,133.3106960950764 L 92.84258189714564,133.3106960950764 L 92.87850573740045,133.3106960950764 L 94.34815288205438,133.3106960950764 L 94.37585896636158,133.3106960950764 L 94.40977717719505,133.3106960950764 L 95.87614076925651,133.3106960950764 L 95.90153949228252,133.3106960950764 L 95.93506722659149,133.3106960950764 L 97.40638277094104,133.3106960950764 L 97.4388100714082,133.3106960950764 L 97.47118412507658,133.3106960950764 L 98.94596071134791,133.3106960950764 L 98.9716789151667,133.3106960950764 L 99.00265080313343,133.3106960950764 L 100.48065769519843,133.3106960950764 L 100.50641139688308,133.3106960950764 L 100.53750752738034,133.3106960950764 L 102.01089969688296,133.3106960950764 L 102.04025643195286,133.3106960950764 L 102.07119282205372,133.3106960950764 L 103.54934170558217,133.3106960950764 L 103.5772785260175,133.3106960950764 L 103.61041578380195,133.3106960950764 L 105.08386120010336,133.3106960950764 L 105.10941966352577,133.3106960950764 L 105.14529025698178,133.3106960950764 L 106.61286077648263,133.3106960950764 L 106.63815300591105,133.3106960950764 L 106.6684681833593,133.3106960950764 L 108.14606684996684,133.3106960950764 L 108.17160756445632,133.3106960950764 L 108.20247295882545,133.3106960950764 L 109.68126080393947,133.3106960950764 L 109.70252402559227,133.3106960950764 L 109.7329989434369,133.3106960950764 L 111.21464436675299,133.3106960950764 L 111.23945737499226,133.3106960950764 L 111.2600283882607,133.3106960950764 L 112.74609329587692,133.3106960950764 L 112.76973487454264,133.3106960950764 L 112.79964182653345,133.3106960950764 L 114.2757495827747,133.3106960950764 L 114.31130069543792,133.3106960950764 L 114.34351500870991,133.3106960950764 L 115.8157889954378,133.3106960950764 L 115.84219940764093,133.3106960950764 L 115.87313579774181,133.3106960950764 L 117.34961628157463,133.3106960950764 L 117.37544097899101,133.3106960950764 L 117.40037822976079,133.3106960950764 L 118.88479248661433,133.3106960950764 L 118.90694315491372,133.3106960950764 L 118.93273235446425,133.3106960950764 L 120.41404054805464,133.3106960950764 L 120.4392972796172,133.3106960950764 L 120.46773107017461,133.3106960950764 L 121.95001545507628,133.3106960950764 L 121.97202413191224,133.3106960950764 L 122.0025167986898,133.3106960950764 L 123.47258991773408,133.3106960950764 L 123.50586916698201,133.3106960950764 L 123.53652157415594,133.3106960950764 L 125.0174215422889,133.3106960950764 L 125.04589083071218,133.3106960950764 L 125.07482159139171,133.3106960950764 L 126.55179904534664,133.3106960950764 L 126.58145751227639,133.3106960950764 L 126.61482550618896,133.3106960950764 L 128.08044364306727,133.3106960950764 L 128.10534539597117,133.3106960950764 L 128.13385018226035,133.3106960950764 L 129.61432417600292,133.3106960950764 L 129.63285406198412,133.3106960950764 L 129.66545885178064,133.3106960950764 L 131.14891466625585,133.3106960950764 L 131.17129607068335,133.3106960950764 L 131.20173549066212,133.3106960950764 L 132.68407312236258,133.3106960950764 L 132.70649002465598,133.3106960950764 L 132.73313117298724,133.3106960950764 L 134.21500733243147,40 L 134.23774371551764,40 L 134.26692296125822,40 L 135.7499882992089,40 L 135.77357663107583,40 L 135.80646540379922,40 L 137.27472813168444,40 L 137.30774114693838,40 L 137.34006195380795,40 L 138.81764287148258,40 L 138.83498357895735,40 L 138.86455330122243,40 L 140.3483818432892,40 L 140.37264463460755,40 L 140.40455721601967,40 L 141.87564202424113,40 L 141.9074836099215,40 L 141.93593514941188,40 L 143.41596541983114,40 L 143.4410091641985,40 L 143.4685022613105,40 L 144.94729010642453,40 L 144.97185462960272,40 L 144.9966853867749,40 L 145.03603477108567,40 L 146.48633557884347,40 L 146.51224902092451,40 L 146.5391919011156,40 L 148.01879619714452,40 L 148.04463864349384,40 L 148.07287719578898,40 L 149.55152304943954,40 L 149.57530661956872,40 L 149.6024447380221,40 L 151.08052262581882,40 L 151.1090984078397,40 L 152.62480403345273,40 L 152.64216248986043,40 L 152.66970883377127,40 L 154.15067979763595,40 L 154.1751200782836,40 L 154.20532876213426,40 L 155.6838148753884,40 L 155.70766944124932,40 L 155.73448807890992,40 L 157.22000276960523,40 L 157.2455967308935,40 L 157.27766905270204,40 L 158.7551079789132,40 L 158.78268982068985,40 L 158.80913573075887,40 L 160.29117163059948,40 L 160.3081396104827,40 L 160.33687513289996,40 L 161.8193547560639,40 L 161.84154092222917,40 L 161.86699289205396,40 L 163.35254308061516,40 L 163.3732205874812,40 L 163.40458295197246,40 L 164.8853764265078,40 L 164.9080595627952,40 L 164.93762928506027,40 L 166.41595565791803,40 L 166.4378045943576,40 L 166.46998340976373,40 L 167.94850502088374,40 L 167.98057734269227,40 L 168.01332412395223,40 L 169.48721326357696,40 L 169.510766097578,40 L 169.5403890666419,40 L 171.0203305923965,40 L 171.04354619667185,40 L 171.07316916573572,40 L 172.55456610399077,40 L 172.58505877076834,40 L 172.62108910462075,40 L 174.0884821347923,40 L 174.11063280309168,40 L 174.13896010005152,40 L 175.6236228419661,40 L 175.6424189619413,40 L 175.67207742887106,40 L 177.1520899503574,40 L 177.17420512079096,40 L 177.20244367308612,40 L 177.24108310007955,40 L 178.68966226134293,40 L 178.71917873680923,40 L 178.74848222508032,40 L 180.21938954397243,40 L 180.2464211688282,40 L 180.27465972112338,40 L 181.75554194032338,40 L 181.77073502691337,40 L 181.8063926331742,40 L 183.2874168438377,40 L 183.31262032860144,40 L 183.33333333333334,40" fill="none" stroke="none"/>
  </g>
  <!-- 📊 Total Contributions Chart -->
  <g transform="translate(526.6666666666667, 250)">
    <!-- Chart Background -->
    <rect x="0" y="0" width="213.33333333333334" height="200" fill="#ffffff" stroke="#e2e8f0" stroke-width="1" rx="8" filter="url(#shadow)">
      <animate attributeName="opacity" values="0;1" dur="0.5s" begin="2.8s" fill="freeze"/>
    </rect>
    
    <!-- Chart Title -->
    <text x="106.66666666666667" y="25" text-anchor="middle" fill="#1e293b" font-size="14" font-weight="bold" font-family="Arial, sans-serif">
      📊 Total Contributions
      <animate attributeName="opacity" values="0;1" dur="0.5s" begin="3s" fill="freeze"/>
    </text>
    
    <!-- Y-axis labels -->
    <text x="10" y="45" fill="#64748b" font-size="10" font-family="Arial, sans-serif">3,802
      <animate attributeName="opacity" values="0;1" dur="0.5s" begin="3.1999999999999997s" fill="freeze"/>
    </text>
    <text x="10" y="185" fill="#64748b" font-size="10" font-family="Arial, sans-serif">2,320
      <animate attributeName="opacity" values="0;1" dur="0.5s" begin="3.1999999999999997s" fill="freeze"/>
    </text>
    
    <!-- Chart Line with draw animation that follows the circle -->
    <path d="M 30,160 L 31.472238488862025,160 L 31.50589046570152,160 L 31.5413528337001,160 L 33.00601252820007,160 L 33.031499995890734,160 L 33.06289785824784,160 L 34.54225366921568,160 L 34.564226848185776,160 L 34.59628142106137,160 L 36.07150173065601,160 L 36.097645908865175,160 L 36.12863554576484,160 L 37.604441570146236,160 L 37.63078098661765,160 L 37.661468891657464,160 L 39.14247535338801,160 L 39.16941823357912,160 L 39.2049338483765,160 L 40.673711295316735,160 L 40.70667106377188,160 L 40.72823601728453,160 L 42.20595892642261,160 L 42.23197886210125,160 L 42.26424642217203,160 L 43.734230796551664,160 L 43.769160696562274,160 L 43.79920964001653,160 L 45.27460743894049,160 L 45.30144382553401,160 L 45.33314341975096,160 L 46.80953515891912,160 L 46.83583907752468,160 L 46.86448585527729,160 L 48.34295421959852,160 L 48.36989709978964,160 L 48.398188898883596,160 L 49.87568107189356,160 L 49.90741616397638,160 L 49.940074200571665,160 L 51.40879840071311,160 L 51.438155135783006,160 L 51.4712568957016,160 L 52.93371572251797,160 L 52.97297636216405,160 L 53.00515517757017,160 L 54.47572526673656,160 L 54.50385732543413,160 L 54.53443873687635,160 L 56.00953480394047,160 L 56.03589196934482,160 L 56.06734307850071,160 L 57.54093048626559,160 L 57.56870756630451,160 L 57.60005218186282,160 L 59.07536123612212,160 L 59.09776038948259,160 L 59.1327967830908,160 L 60.61177986646706,160 L 60.64241452470807,160 L 60.6783916117617,160 L 62.14739979483005,160 L 62.17375696023441,160 L 62.20535006085376,160 L 63.67861798782585,137.48987854251013 L 63.70426519591292,137.48987854251013 L 63.73726046223392,137.48987854251013 L 65.20894873417504,137.48987854251013 L 65.23445395079864,137.48987854251013 L 65.26941934867513,137.48987854251013 L 66.7349664898217,137.48987854251013 L 66.76978989623473,137.48987854251013 L 66.80511027276984,137.48987854251013 L 68.27738425949774,137.48987854251013 L 68.2991799491385,137.48987854251013 L 68.33187348359965,137.48987854251013 L 69.81037734578675,137.48987854251013 L 69.83609554960555,137.48987854251013 L 69.86946354351812,137.48987854251013 L 71.33863146698289,137.48987854251013 L 71.37773236623256,137.48987854251013 L 71.41090512188289,137.48987854251013 L 72.87810291379216,137.48987854251013 L 72.9104059717288,137.48987854251013 L 72.94320599978755,137.48987854251013 L 74.41485877386282,137.48987854251013 L 74.44457048759136,137.48987854251013 L 74.47701553699146,137.48987854251013 L 75.94487003941921,137.48987854251013 L 75.97548694872731,137.48987854251013 L 76.00716879401133,137.48987854251013 L 77.47681593866525,137.48987854251013 L 77.50755709050387,137.48987854251013 L 77.54170603746545,137.48987854251013 L 79.01309257754673,137.48987854251013 L 79.0479514818256,137.48987854251013 L 79.08155021186631,137.48987854251013 L 80.54562419157952,137.48987854251013 L 80.57526490957633,137.48987854251013 L 80.60265151309075,137.48987854251013 L 82.08355148122371,137.48987854251013 L 82.11503808824546,137.48987854251013 L 82.14968400532916,137.48987854251013 L 83.61265755120056,137.48987854251013 L 83.64441039221632,137.48987854251013 L 83.68058271753218,137.48987854251013 L 85.14660907986791,137.48987854251013 L 85.17639178932819,137.48987854251013 L 85.20910307272229,137.48987854251013 L 86.68082684252927,137.48987854251013 L 86.70776972272039,137.48987854251013 L 86.74321434178603,137.48987854251013 L 88.21515109878821,137.48987854251013 L 88.24393986800428,137.48987854251013 L 88.27345634347057,137.48987854251013 L 89.75007881876684,137.48987854251013 L 89.77485632914023,137.48987854251013 L 89.80692865094876,137.48987854251013 L 91.27882991008508,137.48987854251013 L 91.30243599088493,137.48987854251013 L 91.33000008372866,137.48987854251013 L 92.81546152762519,137.48987854251013 L 92.84258189714564,137.48987854251013 L 92.87850573740045,137.48987854251013 L 94.34815288205438,137.48987854251013 L 94.37585896636158,137.48987854251013 L 94.40977717719505,137.48987854251013 L 95.87614076925651,137.48987854251013 L 95.90153949228252,137.48987854251013 L 95.93506722659149,137.48987854251013 L 97.40638277094104,137.48987854251013 L 97.4388100714082,137.48987854251013 L 97.47118412507658,137.48987854251013 L 98.94596071134791,137.48987854251013 L 98.9716789151667,137.48987854251013 L 99.00265080313343,137.48987854251013 L 100.48065769519843,137.48987854251013 L 100.50641139688308,137.48987854251013 L 100.53750752738034,137.48987854251013 L 102.01089969688296,137.48987854251013 L 102.04025643195286,137.48987854251013 L 102.07119282205372,137.48987854251013 L 103.54934170558217,137.48987854251013 L 103.5772785260175,137.48987854251013 L 103.61041578380195,137.48987854251013 L 105.08386120010336,137.48987854251013 L 105.10941966352577,137.48987854251013 L 105.14529025698178,137.48987854251013 L 106.61286077648263,137.48987854251013 L 106.63815300591105,137.48987854251013 L 106.6684681833593,137.48987854251013 L 108.14606684996684,137.48987854251013 L 108.17160756445632,137.48987854251013 L 108.20247295882545,137.48987854251013 L 109.68126080393947,137.48987854251013 L 109.70252402559227,137.48987854251013 L 109.7329989434369,137.48987854251013 L 111.21464436675299,137.48987854251013 L 111.23945737499226,137.48987854251013 L 111.2600283882607,137.48987854251013 L 112.74609329587692,137.48987854251013 L 112.76973487454264,137.48987854251013 L 112.79964182653345,137.48987854251013 L 114.2757495827747,137.48987854251013 L 114.31130069543792,137.48987854251013 L 114.34351500870991,137.48987854251013 L 115.8157889954378,137.48987854251013 L 115.84219940764093,137.48987854251013 L 115.87313579774181,137.48987854251013 L 117.34961628157463,137.48987854251013 L 117.37544097899101,137.48987854251013 L 117.40037822976079,137.48987854251013 L 118.88479248661433,137.48987854251013 L 118.90694315491372,137.48987854251013 L 118.93273235446425,137.48987854251013 L 120.41404054805464,137.48987854251013 L 120.4392972796172,137.48987854251013 L 120.46773107017461,137.48987854251013 L 121.95001545507628,137.48987854251013 L 121.97202413191224,137.48987854251013 L 122.0025167986898,137.48987854251013 L 123.47258991773408,137.48987854251013 L 123.50586916698201,137.48987854251013 L 123.53652157415594,137.48987854251013 L 125.0174215422889,137.48987854251013 L 125.04589083071218,137.48987854251013 L 125.07482159139171,137.48987854251013 L 126.55179904534664,137.48987854251013 L 126.58145751227639,137.48987854251013 L 126.61482550618896,137.48987854251013 L 128.08044364306727,137.48987854251013 L 128.10534539597117,137.48987854251013 L 128.13385018226035,137.48987854251013 L 129.61432417600292,137.48987854251013 L 129.63285406198412,137.48987854251013 L 129.66545885178064,137.48987854251013 L 131.14891466625585,137.48987854251013 L 131.17129607068335,137.48987854251013 L 131.20173549066212,137.48987854251013 L 132.68407312236258,137.48987854251013 L 132.70649002465598,137.48987854251013 L 132.73313117298724,137.48987854251013 L 134.21500733243147,40 L 134.23774371551764,40 L 134.26692296125822,40 L 135.7499882992089,40 L 135.77357663107583,40 L 135.80646540379922,40 L 137.27472813168444,40 L 137.30774114693838,40 L 137.34006195380795,40 L 138.81764287148258,40 L 138.83498357895735,40 L 138.86455330122243,40 L 140.3483818432892,40 L 140.37264463460755,40 L 140.40455721601967,40 L 141.87564202424113,40 L 141.9074836099215,40 L 141.93593514941188,40 L 143.41596541983114,40 L 143.4410091641985,40 L 143.4685022613105,40 L 144.94729010642453,40 L 144.97185462960272,40 L 144.9966853867749,40 L 145.03603477108567,40 L 146.48633557884347,40 L 146.51224902092451,40 L 146.5391919011156,40 L 148.01879619714452,40 L 148.04463864349384,40 L 148.07287719578898,40 L 149.55152304943954,40 L 149.57530661956872,40 L 149.6024447380221,40 L 151.08052262581882,40 L 151.1090984078397,40 L 152.62480403345273,40 L 152.64216248986043,40 L 152.66970883377127,40 L 154.15067979763595,40 L 154.1751200782836,40 L 154.20532876213426,40 L 155.6838148753884,40 L 155.70766944124932,40 L 155.73448807890992,40 L 157.22000276960523,40 L 157.2455967308935,40 L 157.27766905270204,40 L 158.7551079789132,40 L 158.78268982068985,40 L 158.80913573075887,40 L 160.29117163059948,40 L 160.3081396104827,40 L 160.33687513289996,40 L 161.8193547560639,40 L 161.84154092222917,40 L 161.86699289205396,40 L 163.35254308061516,40 L 163.3732205874812,40 L 163.40458295197246,40 L 164.8853764265078,40 L 164.9080595627952,40 L 164.93762928506027,40 L 166.41595565791803,40 L 166.4378045943576,40 L 166.46998340976373,40 L 167.94850502088374,40 L 167.98057734269227,40 L 168.01332412395223,40 L 169.48721326357696,40 L 169.510766097578,40 L 169.5403890666419,40 L 171.0203305923965,40 L 171.04354619667185,40 L 171.07316916573572,40 L 172.55456610399077,40 L 172.58505877076834,40 L 172.62108910462075,40 L 174.0884821347923,40 L 174.11063280309168,40 L 174.13896010005152,40 L 175.6236228419661,40 L 175.6424189619413,40 L 175.67207742887106,40 L 177.1520899503574,40 L 177.17420512079096,40 L 177.20244367308612,40 L 177.24108310007955,40 L 178.68966226134293,40 L 178.71917873680923,40 L 178.74848222508032,40 L 180.21938954397243,40 L 180.2464211688282,40 L 180.27465972112338,40 L 181.75554194032338,40 L 181.77073502691337,40 L 181.8063926331742,40 L 183.2874168438377,40 L 183.31262032860144,40 L 183.33333333333334,40" stroke="#f59e0b" stroke-width="2" fill="none" stroke-dasharray="15100" stroke-dashoffset="15100">
      <animate attributeName="stroke-dashoffset" values="15100;0" dur="3s" begin="3.5999999999999996s" fill="freeze"/>
    </path>
    
    <!-- Glow effect for the line that also follows the circle -->
    <path d="M 30,160 L 31.472238488862025,160 L 31.50589046570152,160 L 31.5413528337001,160 L 33.00601252820007,160 L 33.031499995890734,160 L 33.06289785824784,160 L 34.54225366921568,160 L 34.564226848185776,160 L 34.59628142106137,160 L 36.07150173065601,160 L 36.097645908865175,160 L 36.12863554576484,160 L 37.604441570146236,160 L 37.63078098661765,160 L 37.661468891657464,160 L 39.14247535338801,160 L 39.16941823357912,160 L 39.2049338483765,160 L 40.673711295316735,160 L 40.70667106377188,160 L 40.72823601728453,160 L 42.20595892642261,160 L 42.23197886210125,160 L 42.26424642217203,160 L 43.734230796551664,160 L 43.769160696562274,160 L 43.79920964001653,160 L 45.27460743894049,160 L 45.30144382553401,160 L 45.33314341975096,160 L 46.80953515891912,160 L 46.83583907752468,160 L 46.86448585527729,160 L 48.34295421959852,160 L 48.36989709978964,160 L 48.398188898883596,160 L 49.87568107189356,160 L 49.90741616397638,160 L 49.940074200571665,160 L 51.40879840071311,160 L 51.438155135783006,160 L 51.4712568957016,160 L 52.93371572251797,160 L 52.97297636216405,160 L 53.00515517757017,160 L 54.47572526673656,160 L 54.50385732543413,160 L 54.53443873687635,160 L 56.00953480394047,160 L 56.03589196934482,160 L 56.06734307850071,160 L 57.54093048626559,160 L 57.56870756630451,160 L 57.60005218186282,160 L 59.07536123612212,160 L 59.09776038948259,160 L 59.1327967830908,160 L 60.61177986646706,160 L 60.64241452470807,160 L 60.6783916117617,160 L 62.14739979483005,160 L 62.17375696023441,160 L 62.20535006085376,160 L 63.67861798782585,137.48987854251013 L 63.70426519591292,137.48987854251013 L 63.73726046223392,137.48987854251013 L 65.20894873417504,137.48987854251013 L 65.23445395079864,137.48987854251013 L 65.26941934867513,137.48987854251013 L 66.7349664898217,137.48987854251013 L 66.76978989623473,137.48987854251013 L 66.80511027276984,137.48987854251013 L 68.27738425949774,137.48987854251013 L 68.2991799491385,137.48987854251013 L 68.33187348359965,137.48987854251013 L 69.81037734578675,137.48987854251013 L 69.83609554960555,137.48987854251013 L 69.86946354351812,137.48987854251013 L 71.33863146698289,137.48987854251013 L 71.37773236623256,137.48987854251013 L 71.41090512188289,137.48987854251013 L 72.87810291379216,137.48987854251013 L 72.9104059717288,137.48987854251013 L 72.94320599978755,137.48987854251013 L 74.41485877386282,137.48987854251013 L 74.44457048759136,137.48987854251013 L 74.47701553699146,137.48987854251013 L 75.94487003941921,137.48987854251013 L 75.97548694872731,137.48987854251013 L 76.00716879401133,137.48987854251013 L 77.47681593866525,137.48987854251013 L 77.50755709050387,137.48987854251013 L 77.54170603746545,137.48987854251013 L 79.01309257754673,137.48987854251013 L 79.0479514818256,137.48987854251013 L 79.08155021186631,137.48987854251013 L 80.54562419157952,137.48987854251013 L 80.57526490957633,137.48987854251013 L 80.60265151309075,137.48987854251013 L 82.08355148122371,137.48987854251013 L 82.11503808824546,137.48987854251013 L 82.14968400532916,137.48987854251013 L 83.61265755120056,137.48987854251013 L 83.64441039221632,137.48987854251013 L 83.68058271753218,137.48987854251013 L 85.14660907986791,137.48987854251013 L 85.17639178932819,137.48987854251013 L 85.20910307272229,137.48987854251013 L 86.68082684252927,137.48987854251013 L 86.70776972272039,137.48987854251013 L 86.74321434178603,137.48987854251013 L 88.21515109878821,137.48987854251013 L 88.24393986800428,137.48987854251013 L 88.27345634347057,137.48987854251013 L 89.75007881876684,137.48987854251013 L 89.77485632914023,137.48987854251013 L 89.80692865094876,137.48987854251013 L 91.27882991008508,137.48987854251013 L 91.30243599088493,137.48987854251013 L 91.33000008372866,137.48987854251013 L 92.81546152762519,137.48987854251013 L 92.84258189714564,137.48987854251013 L 92.87850573740045,137.48987854251013 L 94.34815288205438,137.48987854251013 L 94.37585896636158,137.48987854251013 L 94.40977717719505,137.48987854251013 L 95.87614076925651,137.48987854251013 L 95.90153949228252,137.48987854251013 L 95.93506722659149,137.48987854251013 L 97.40638277094104,137.48987854251013 L 97.4388100714082,137.48987854251013 L 97.47118412507658,137.48987854251013 L 98.94596071134791,137.48987854251013 L 98.9716789151667,137.48987854251013 L 99.00265080313343,137.48987854251013 L 100.48065769519843,137.48987854251013 L 100.50641139688308,137.48987854251013 L 100.53750752738034,137.48987854251013 L 102.01089969688296,137.48987854251013 L 102.04025643195286,137.48987854251013 L 102.07119282205372,137.48987854251013 L 103.54934170558217,137.48987854251013 L 103.5772785260175,137.48987854251013 L 103.61041578380195,137.48987854251013 L 105.08386120010336,137.48987854251013 L 105.10941966352577,137.48987854251013 L 105.14529025698178,137.48987854251013 L 106.61286077648263,137.48987854251013 L 106.63815300591105,137.48987854251013 L 106.6684681833593,137.48987854251013 L 108.14606684996684,137.48987854251013 L 108.17160756445632,137.48987854251013 L 108.20247295882545,137.48987854251013 L 109.68126080393947,137.48987854251013 L 109.70252402559227,137.48987854251013 L 109.7329989434369,137.48987854251013 L 111.21464436675299,137.48987854251013 L 111.23945737499226,137.48987854251013 L 111.2600283882607,137.48987854251013 L 112.74609329587692,137.48987854251013 L 112.76973487454264,137.48987854251013 L 112.79964182653345,137.48987854251013 L 114.2757495827747,137.48987854251013 L 114.31130069543792,137.48987854251013 L 114.34351500870991,137.48987854251013 L 115.8157889954378,137.48987854251013 L 115.84219940764093,137.48987854251013 L 115.87313579774181,137.48987854251013 L 117.34961628157463,137.48987854251013 L 117.37544097899101,137.48987854251013 L 117.40037822976079,137.48987854251013 L 118.88479248661433,137.48987854251013 L 118.90694315491372,137.48987854251013 L 118.93273235446425,137.48987854251013 L 120.41404054805464,137.48987854251013 L 120.4392972796172,137.48987854251013 L 120.46773107017461,137.48987854251013 L 121.95001545507628,137.48987854251013 L 121.97202413191224,137.48987854251013 L 122.0025167986898,137.48987854251013 L 123.47258991773408,137.48987854251013 L 123.50586916698201,137.48987854251013 L 123.53652157415594,137.48987854251013 L 125.0174215422889,137.48987854251013 L 125.04589083071218,137.48987854251013 L 125.07482159139171,137.48987854251013 L 126.55179904534664,137.48987854251013 L 126.58145751227639,137.48987854251013 L 126.61482550618896,137.48987854251013 L 128.08044364306727,137.48987854251013 L 128.10534539597117,137.48987854251013 L 128.13385018226035,137.48987854251013 L 129.61432417600292,137.48987854251013 L 129.63285406198412,137.48987854251013 L 129.66545885178064,137.48987854251013 L 131.14891466625585,137.48987854251013 L 131.17129607068335,137.48987854251013 L 131.20173549066212,137.48987854251013 L 132.68407312236258,137.48987854251013 L 132.70649002465598,137.48987854251013 L 132.73313117298724,137.48987854251013 L 134.21500733243147,40 L 134.23774371551764,40 L 134.26692296125822,40 L 135.7499882992089,40 L 135.77357663107583,40 L 135.80646540379922,40 L 137.27472813168444,40 L 137.30774114693838,40 L 137.34006195380795,40 L 138.81764287148258,40 L 138.83498357895735,40 L 138.86455330122243,40 L 140.3483818432892,40 L 140.37264463460755,40 L 140.40455721601967,40 L 141.87564202424113,40 L 141.9074836099215,40 L 141.93593514941188,40 L 143.41596541983114,40 L 143.4410091641985,40 L 143.4685022613105,40 L 144.94729010642453,40 L 144.97185462960272,40 L 144.9966853867749,40 L 145.03603477108567,40 L 146.48633557884347,40 L 146.51224902092451,40 L 146.5391919011156,40 L 148.01879619714452,40 L 148.04463864349384,40 L 148.07287719578898,40 L 149.55152304943954,40 L 149.57530661956872,40 L 149.6024447380221,40 L 151.08052262581882,40 L 151.1090984078397,40 L 152.62480403345273,40 L 152.64216248986043,40 L 152.66970883377127,40 L 154.15067979763595,40 L 154.1751200782836,40 L 154.20532876213426,40 L 155.6838148753884,40 L 155.70766944124932,40 L 155.73448807890992,40 L 157.22000276960523,40 L 157.2455967308935,40 L 157.27766905270204,40 L 158.7551079789132,40 L 158.78268982068985,40 L 158.80913573075887,40 L 160.29117163059948,40 L 160.3081396104827,40 L 160.33687513289996,40 L 161.8193547560639,40 L 161.84154092222917,40 L 161.86699289205396,40 L 163.35254308061516,40 L 163.3732205874812,40 L 163.40458295197246,40 L 164.8853764265078,40 L 164.9080595627952,40 L 164.93762928506027,40 L 166.41595565791803,40 L 166.4378045943576,40 L 166.46998340976373,40 L 167.94850502088374,40 L 167.98057734269227,40 L 168.01332412395223,40 L 169.48721326357696,40 L 169.510766097578,40 L 169.5403890666419,40 L 171.0203305923965,40 L 171.04354619667185,40 L 171.07316916573572,40 L 172.55456610399077,40 L 172.58505877076834,40 L 172.62108910462075,40 L 174.0884821347923,40 L 174.11063280309168,40 L 174.13896010005152,40 L 175.6236228419661,40 L 175.6424189619413,40 L 175.67207742887106,40 L 177.1520899503574,40 L 177.17420512079096,40 L 177.20244367308612,40 L 177.24108310007955,40 L 178.68966226134293,40 L 178.71917873680923,40 L 178.74848222508032,40 L 180.21938954397243,40 L 180.2464211688282,40 L 180.27465972112338,40 L 181.75554194032338,40 L 181.77073502691337,40 L 181.8063926331742,40 L 183.2874168438377,40 L 183.31262032860144,40 L 183.33333333333334,40" stroke="#f59e0b" stroke-width="4" fill="none" opacity="0.4" stroke-dasharray="15100" stroke-dashoffset="15100">
      <animate attributeName="stroke-dashoffset" values="15100;0" dur="3s" begin="3.5999999999999996s" fill="freeze"/>
    </path>
    
    <!-- Animated circle that moves along the path and draws the line -->
    <circle r="5" fill="#f59e0b" opacity="0" filter="url(#trailGlow)">
      <animate attributeName="opacity" values="0;1;1;1" dur="3.2s" begin="3.4s" fill="freeze"/>
      <animate attributeName="r" values="5;6;5" dur="1s" begin="3.4s" repeatCount="3"/>
      <animateMotion dur="3s" begin="3.4s" fill="freeze">
        <mpath href="#path_totalContributions_526.6666666666667"/>
      </animateMotion>
    </circle>
    
    <!-- Small trail dots that fade out -->
    <circle r="2" fill="#f59e0b" opacity="0">
      <animate attributeName="opacity" values="0;0.6;0" dur="0.8s" begin="3.8s" fill="freeze"/>
      <animateMotion dur="3s" begin="3.4s" fill="freeze">
        <mpath href="#path_totalContributions_526.6666666666667"/>
      </animateMotion>
    </circle>
    
    <!-- Hidden path for motion animation -->
    <path id="path_totalContributions_526.6666666666667" d="M 30,160 L 31.472238488862025,160 L 31.50589046570152,160 L 31.5413528337001,160 L 33.00601252820007,160 L 33.031499995890734,160 L 33.06289785824784,160 L 34.54225366921568,160 L 34.564226848185776,160 L 34.59628142106137,160 L 36.07150173065601,160 L 36.097645908865175,160 L 36.12863554576484,160 L 37.604441570146236,160 L 37.63078098661765,160 L 37.661468891657464,160 L 39.14247535338801,160 L 39.16941823357912,160 L 39.2049338483765,160 L 40.673711295316735,160 L 40.70667106377188,160 L 40.72823601728453,160 L 42.20595892642261,160 L 42.23197886210125,160 L 42.26424642217203,160 L 43.734230796551664,160 L 43.769160696562274,160 L 43.79920964001653,160 L 45.27460743894049,160 L 45.30144382553401,160 L 45.33314341975096,160 L 46.80953515891912,160 L 46.83583907752468,160 L 46.86448585527729,160 L 48.34295421959852,160 L 48.36989709978964,160 L 48.398188898883596,160 L 49.87568107189356,160 L 49.90741616397638,160 L 49.940074200571665,160 L 51.40879840071311,160 L 51.438155135783006,160 L 51.4712568957016,160 L 52.93371572251797,160 L 52.97297636216405,160 L 53.00515517757017,160 L 54.47572526673656,160 L 54.50385732543413,160 L 54.53443873687635,160 L 56.00953480394047,160 L 56.03589196934482,160 L 56.06734307850071,160 L 57.54093048626559,160 L 57.56870756630451,160 L 57.60005218186282,160 L 59.07536123612212,160 L 59.09776038948259,160 L 59.1327967830908,160 L 60.61177986646706,160 L 60.64241452470807,160 L 60.6783916117617,160 L 62.14739979483005,160 L 62.17375696023441,160 L 62.20535006085376,160 L 63.67861798782585,137.48987854251013 L 63.70426519591292,137.48987854251013 L 63.73726046223392,137.48987854251013 L 65.20894873417504,137.48987854251013 L 65.23445395079864,137.48987854251013 L 65.26941934867513,137.48987854251013 L 66.7349664898217,137.48987854251013 L 66.76978989623473,137.48987854251013 L 66.80511027276984,137.48987854251013 L 68.27738425949774,137.48987854251013 L 68.2991799491385,137.48987854251013 L 68.33187348359965,137.48987854251013 L 69.81037734578675,137.48987854251013 L 69.83609554960555,137.48987854251013 L 69.86946354351812,137.48987854251013 L 71.33863146698289,137.48987854251013 L 71.37773236623256,137.48987854251013 L 71.41090512188289,137.48987854251013 L 72.87810291379216,137.48987854251013 L 72.9104059717288,137.48987854251013 L 72.94320599978755,137.48987854251013 L 74.41485877386282,137.48987854251013 L 74.44457048759136,137.48987854251013 L 74.47701553699146,137.48987854251013 L 75.94487003941921,137.48987854251013 L 75.97548694872731,137.48987854251013 L 76.00716879401133,137.48987854251013 L 77.47681593866525,137.48987854251013 L 77.50755709050387,137.48987854251013 L 77.54170603746545,137.48987854251013 L 79.01309257754673,137.48987854251013 L 79.0479514818256,137.48987854251013 L 79.08155021186631,137.48987854251013 L 80.54562419157952,137.48987854251013 L 80.57526490957633,137.48987854251013 L 80.60265151309075,137.48987854251013 L 82.08355148122371,137.48987854251013 L 82.11503808824546,137.48987854251013 L 82.14968400532916,137.48987854251013 L 83.61265755120056,137.48987854251013 L 83.64441039221632,137.48987854251013 L 83.68058271753218,137.48987854251013 L 85.14660907986791,137.48987854251013 L 85.17639178932819,137.48987854251013 L 85.20910307272229,137.48987854251013 L 86.68082684252927,137.48987854251013 L 86.70776972272039,137.48987854251013 L 86.74321434178603,137.48987854251013 L 88.21515109878821,137.48987854251013 L 88.24393986800428,137.48987854251013 L 88.27345634347057,137.48987854251013 L 89.75007881876684,137.48987854251013 L 89.77485632914023,137.48987854251013 L 89.80692865094876,137.48987854251013 L 91.27882991008508,137.48987854251013 L 91.30243599088493,137.48987854251013 L 91.33000008372866,137.48987854251013 L 92.81546152762519,137.48987854251013 L 92.84258189714564,137.48987854251013 L 92.87850573740045,137.48987854251013 L 94.34815288205438,137.48987854251013 L 94.37585896636158,137.48987854251013 L 94.40977717719505,137.48987854251013 L 95.87614076925651,137.48987854251013 L 95.90153949228252,137.48987854251013 L 95.93506722659149,137.48987854251013 L 97.40638277094104,137.48987854251013 L 97.4388100714082,137.48987854251013 L 97.47118412507658,137.48987854251013 L 98.94596071134791,137.48987854251013 L 98.9716789151667,137.48987854251013 L 99.00265080313343,137.48987854251013 L 100.48065769519843,137.48987854251013 L 100.50641139688308,137.48987854251013 L 100.53750752738034,137.48987854251013 L 102.01089969688296,137.48987854251013 L 102.04025643195286,137.48987854251013 L 102.07119282205372,137.48987854251013 L 103.54934170558217,137.48987854251013 L 103.5772785260175,137.48987854251013 L 103.61041578380195,137.48987854251013 L 105.08386120010336,137.48987854251013 L 105.10941966352577,137.48987854251013 L 105.14529025698178,137.48987854251013 L 106.61286077648263,137.48987854251013 L 106.63815300591105,137.48987854251013 L 106.6684681833593,137.48987854251013 L 108.14606684996684,137.48987854251013 L 108.17160756445632,137.48987854251013 L 108.20247295882545,137.48987854251013 L 109.68126080393947,137.48987854251013 L 109.70252402559227,137.48987854251013 L 109.7329989434369,137.48987854251013 L 111.21464436675299,137.48987854251013 L 111.23945737499226,137.48987854251013 L 111.2600283882607,137.48987854251013 L 112.74609329587692,137.48987854251013 L 112.76973487454264,137.48987854251013 L 112.79964182653345,137.48987854251013 L 114.2757495827747,137.48987854251013 L 114.31130069543792,137.48987854251013 L 114.34351500870991,137.48987854251013 L 115.8157889954378,137.48987854251013 L 115.84219940764093,137.48987854251013 L 115.87313579774181,137.48987854251013 L 117.34961628157463,137.48987854251013 L 117.37544097899101,137.48987854251013 L 117.40037822976079,137.48987854251013 L 118.88479248661433,137.48987854251013 L 118.90694315491372,137.48987854251013 L 118.93273235446425,137.48987854251013 L 120.41404054805464,137.48987854251013 L 120.4392972796172,137.48987854251013 L 120.46773107017461,137.48987854251013 L 121.95001545507628,137.48987854251013 L 121.97202413191224,137.48987854251013 L 122.0025167986898,137.48987854251013 L 123.47258991773408,137.48987854251013 L 123.50586916698201,137.48987854251013 L 123.53652157415594,137.48987854251013 L 125.0174215422889,137.48987854251013 L 125.04589083071218,137.48987854251013 L 125.07482159139171,137.48987854251013 L 126.55179904534664,137.48987854251013 L 126.58145751227639,137.48987854251013 L 126.61482550618896,137.48987854251013 L 128.08044364306727,137.48987854251013 L 128.10534539597117,137.48987854251013 L 128.13385018226035,137.48987854251013 L 129.61432417600292,137.48987854251013 L 129.63285406198412,137.48987854251013 L 129.66545885178064,137.48987854251013 L 131.14891466625585,137.48987854251013 L 131.17129607068335,137.48987854251013 L 131.20173549066212,137.48987854251013 L 132.68407312236258,137.48987854251013 L 132.70649002465598,137.48987854251013 L 132.73313117298724,137.48987854251013 L 134.21500733243147,40 L 134.23774371551764,40 L 134.26692296125822,40 L 135.7499882992089,40 L 135.77357663107583,40 L 135.80646540379922,40 L 137.27472813168444,40 L 137.30774114693838,40 L 137.34006195380795,40 L 138.81764287148258,40 L 138.83498357895735,40 L 138.86455330122243,40 L 140.3483818432892,40 L 140.37264463460755,40 L 140.40455721601967,40 L 141.87564202424113,40 L 141.9074836099215,40 L 141.93593514941188,40 L 143.41596541983114,40 L 143.4410091641985,40 L 143.4685022613105,40 L 144.94729010642453,40 L 144.97185462960272,40 L 144.9966853867749,40 L 145.03603477108567,40 L 146.48633557884347,40 L 146.51224902092451,40 L 146.5391919011156,40 L 148.01879619714452,40 L 148.04463864349384,40 L 148.07287719578898,40 L 149.55152304943954,40 L 149.57530661956872,40 L 149.6024447380221,40 L 151.08052262581882,40 L 151.1090984078397,40 L 152.62480403345273,40 L 152.64216248986043,40 L 152.66970883377127,40 L 154.15067979763595,40 L 154.1751200782836,40 L 154.20532876213426,40 L 155.6838148753884,40 L 155.70766944124932,40 L 155.73448807890992,40 L 157.22000276960523,40 L 157.2455967308935,40 L 157.27766905270204,40 L 158.7551079789132,40 L 158.78268982068985,40 L 158.80913573075887,40 L 160.29117163059948,40 L 160.3081396104827,40 L 160.33687513289996,40 L 161.8193547560639,40 L 161.84154092222917,40 L 161.86699289205396,40 L 163.35254308061516,40 L 163.3732205874812,40 L 163.40458295197246,40 L 164.8853764265078,40 L 164.9080595627952,40 L 164.93762928506027,40 L 166.41595565791803,40 L 166.4378045943576,40 L 166.46998340976373,40 L 167.94850502088374,40 L 167.98057734269227,40 L 168.01332412395223,40 L 169.48721326357696,40 L 169.510766097578,40 L 169.5403890666419,40 L 171.0203305923965,40 L 171.04354619667185,40 L 171.07316916573572,40 L 172.55456610399077,40 L 172.58505877076834,40 L 172.62108910462075,40 L 174.0884821347923,40 L 174.11063280309168,40 L 174.13896010005152,40 L 175.6236228419661,40 L 175.6424189619413,40 L 175.67207742887106,40 L 177.1520899503574,40 L 177.17420512079096,40 L 177.20244367308612,40 L 177.24108310007955,40 L 178.68966226134293,40 L 178.71917873680923,40 L 178.74848222508032,40 L 180.21938954397243,40 L 180.2464211688282,40 L 180.27465972112338,40 L 181.75554194032338,40 L 181.77073502691337,40 L 181.8063926331742,40 L 183.2874168438377,40 L 183.31262032860144,40 L 183.33333333333334,40" fill="none" stroke="none"/>
  </g>
  
  <!-- Footer -->
  <text x="400" y="580" text-anchor="middle" fill="#94a3b8" font-size="12" font-family="Arial, sans-serif">
    Generated by GitHub User Rank Tracker • 10/8/2025
    <animate attributeName="opacity" values="0;1" dur="0.5s" begin="5s" fill="freeze"/>
  </text>
</svg>