<svg width="800" height="600" xmlns="http://www.w3.org/2000/svg">
  <defs>
    <linearGradient id="bgGradient" x1="0%" y1="0%" x2="100%" y2="100%">
      <stop offset="0%" style="stop-color:#f8fafc;stop-opacity:1" />
      <stop offset="100%" style="stop-color:#e2e8f0;stop-opacity:1" />
    </linearGradient>
    <filter id="shadow" x="-20%" y="-20%" width="140%" height="140%">
      <feDropShadow dx="2" dy="2" stdDeviation="3" flood-color="#00000020" flood-opacity="0.1"/>
    </filter>
    <!-- Trail effect filter -->
    <filter id="trailGlow" x="-50%" y="-50%" width="200%" height="200%">
      <feGaussianBlur stdDeviation="3" result="coloredBlur"/>
      <feMerge> 
        <feMergeNode in="coloredBlur"/>
        <feMergeNode in="SourceGraphic"/>
      </feMerge>
    </filter>
  </defs>
  
  <!-- Background -->
  <rect width="800" height="600" fill="url(#bgGradient)" rx="12"/>
  
  <!-- Header -->
  <text x="400" y="40" text-anchor="middle" fill="#0f172a" font-size="24" font-weight="bold" font-family="Arial, sans-serif">
    GitHub Progress Report
    <animate attributeName="opacity" values="0;1" dur="0.8s" begin="0s" fill="freeze"/>
    <animateTransform attributeName="transform" type="translate" values="0,-20;0,0" dur="0.8s" begin="0s" fill="freeze"/>
  </text>
  
  <!-- User Info -->
  <text x="400" y="70" text-anchor="middle" fill="#475569" font-size="16" font-family="Arial, sans-serif">
    @maifeeulasad • BANGLADESH • 100 days analyzed
    <animate attributeName="opacity" values="0;1" dur="0.6s" begin="0.3s" fill="freeze"/>
  </text>
  
  <!-- Progress Cards -->
  <!-- Followers Card -->
  <g transform="translate(60, 100)">
    <rect width="206.66666666666666" height="120" fill="#ffffff" stroke="#e2e8f0" stroke-width="1" rx="8" filter="url(#shadow)">
      <animate attributeName="opacity" values="0;1" dur="0.6s" begin="0.2s" fill="freeze"/>
      <animateTransform attributeName="transform" type="scale" values="0.8;1" dur="0.6s" begin="0.2s" fill="freeze"/>
    </rect>
    <text x="103.33333333333333" y="25" text-anchor="middle" fill="#64748b" font-size="14" font-weight="bold" font-family="Arial, sans-serif">FOLLOWERS
      <animate attributeName="opacity" values="0;1" dur="0.5s" begin="0.4s" fill="freeze"/>
    </text>
    
    <text x="103.33333333333333" y="50" text-anchor="middle" fill="#ef4444" font-size="32" font-weight="bold" font-family="Arial, sans-serif">
      ↘
      <animate attributeName="opacity" values="0;1" dur="0.5s" begin="0.6s" fill="freeze"/>
      <animateTransform attributeName="transform" type="scale" values="0;1.2;1" dur="0.8s" begin="0.6s" fill="freeze"/>
    </text>
    
    <text x="103.33333333333333" y="75" text-anchor="middle" fill="#1e293b" font-size="18" font-weight="bold" font-family="Arial, sans-serif">
      -23
      <animate attributeName="opacity" values="0;1" dur="0.5s" begin="0.8s" fill="freeze"/>
    </text>
    
    <text x="103.33333333333333" y="95" text-anchor="middle" fill="#64748b" font-size="12" font-family="Arial, sans-serif">
      #458 → #481
      <animate attributeName="opacity" values="0;1" dur="0.5s" begin="1s" fill="freeze"/>
    </text>
  </g>
  
  <!-- Public Contributions Card -->
  <g transform="translate(296.66666666666663, 100)">
    <rect width="206.66666666666666" height="120" fill="#ffffff" stroke="#e2e8f0" stroke-width="1" rx="8" filter="url(#shadow)">
      <animate attributeName="opacity" values="0;1" dur="0.6s" begin="0.4s" fill="freeze"/>
      <animateTransform attributeName="transform" type="scale" values="0.8;1" dur="0.6s" begin="0.4s" fill="freeze"/>
    </rect>
    <text x="103.33333333333333" y="25" text-anchor="middle" fill="#64748b" font-size="14" font-weight="bold" font-family="Arial, sans-serif">PUBLIC
      <animate attributeName="opacity" values="0;1" dur="0.5s" begin="0.6s" fill="freeze"/>
    </text>
    
    <text x="103.33333333333333" y="50" text-anchor="middle" fill="#ef4444" font-size="32" font-weight="bold" font-family="Arial, sans-serif">
      ↘
      <animate attributeName="opacity" values="0;1" dur="0.5s" begin="0.8s" fill="freeze"/>
      <animateTransform attributeName="transform" type="scale" values="0;1.2;1" dur="0.8s" begin="0.8s" fill="freeze"/>
    </text>
    
    <text x="103.33333333333333" y="75" text-anchor="middle" fill="#1e293b" font-size="18" font-weight="bold" font-family="Arial, sans-serif">
      -1
      <animate attributeName="opacity" values="0;1" dur="0.5s" begin="1s" fill="freeze"/>
    </text>
    
    <text x="103.33333333333333" y="95" text-anchor="middle" fill="#64748b" font-size="12" font-family="Arial, sans-serif">
      #6 → #7
      <animate attributeName="opacity" values="0;1" dur="0.5s" begin="1.2s" fill="freeze"/>
    </text>
  </g>
  
  <!-- Total Contributions Card -->
  <g transform="translate(533.3333333333333, 100)">
    <rect width="206.66666666666666" height="120" fill="#ffffff" stroke="#e2e8f0" stroke-width="1" rx="8" filter="url(#shadow)">
      <animate attributeName="opacity" values="0;1" dur="0.6s" begin="0.6s" fill="freeze"/>
      <animateTransform attributeName="transform" type="scale" values="0.8;1" dur="0.6s" begin="0.6s" fill="freeze"/>
    </rect>
    <text x="103.33333333333333" y="25" text-anchor="middle" fill="#64748b" font-size="14" font-weight="bold" font-family="Arial, sans-serif">TOTAL
      <animate attributeName="opacity" values="0;1" dur="0.5s" begin="0.8s" fill="freeze"/>
    </text>
    
    <text x="103.33333333333333" y="50" text-anchor="middle" fill="#22c55e" font-size="32" font-weight="bold" font-family="Arial, sans-serif">
      ↗
      <animate attributeName="opacity" values="0;1" dur="0.5s" begin="1s" fill="freeze"/>
      <animateTransform attributeName="transform" type="scale" values="0;1.2;1" dur="0.8s" begin="1s" fill="freeze"/>
    </text>
    
    <text x="103.33333333333333" y="75" text-anchor="middle" fill="#1e293b" font-size="18" font-weight="bold" font-family="Arial, sans-serif">
      +6
      <animate attributeName="opacity" values="0;1" dur="0.5s" begin="1.2s" fill="freeze"/>
    </text>
    
    <text x="103.33333333333333" y="95" text-anchor="middle" fill="#64748b" font-size="12" font-family="Arial, sans-serif">
      #18 → #12
      <animate attributeName="opacity" values="0;1" dur="0.5s" begin="1.4s" fill="freeze"/>
    </text>
  </g>
  
  <!-- Timeline Charts (if we have snapshots) -->
  
  <!-- 👥 Followers Count Chart -->
  <g transform="translate(60, 250)">
    <!-- Chart Background -->
    <rect x="0" y="0" width="213.33333333333334" height="200" fill="#ffffff" stroke="#e2e8f0" stroke-width="1" rx="8" filter="url(#shadow)">
      <animate attributeName="opacity" values="0;1" dur="0.5s" begin="1.8s" fill="freeze"/>
    </rect>
    
    <!-- Chart Title -->
    <text x="106.66666666666667" y="25" text-anchor="middle" fill="#1e293b" font-size="14" font-weight="bold" font-family="Arial, sans-serif">
      👥 Followers Count
      <animate attributeName="opacity" values="0;1" dur="0.5s" begin="2s" fill="freeze"/>
    </text>
    
    <!-- Y-axis labels -->
    <text x="10" y="45" fill="#64748b" font-size="10" font-family="Arial, sans-serif">154
      <animate attributeName="opacity" values="0;1" dur="0.5s" begin="2.2s" fill="freeze"/>
    </text>
    <text x="10" y="185" fill="#64748b" font-size="10" font-family="Arial, sans-serif">149
      <animate attributeName="opacity" values="0;1" dur="0.5s" begin="2.2s" fill="freeze"/>
    </text>
    
    <!-- Chart Line with draw animation that follows the circle -->
    <path d="M 30,160 L 30.029313956580552,136 L 30.059720915209645,136 L 31.554392257556778,136 L 31.575213050678173,136 L 31.603541513608402,136 L 33.096725656446864,136 L 33.11665054624978,136 L 33.154726437285035,136 L 34.64705051293776,136 L 34.675844845593595,136 L 34.700195497789785,136 L 36.1891151408323,136 L 36.221743939691216,136 L 36.25349475329803,136 L 37.74438538364119,136 L 37.75938280519249,136 L 37.79778122142239,136 L 39.29216587470761,136 L 39.32214279974384,136 L 39.35711886529716,136 L 40.84021513676957,136 L 40.86668012079737,136 L 40.90251625353643,136 L 42.38548709854426,136 L 42.41549985971323,136 L 42.448791627027816,136 L 43.93706621968103,136 L 43.95892626065185,136 L 43.98996035160388,136 L 45.480833063880674,136 L 45.50573917613432,136 L 45.53786626913489,136 L 47.03185672495998,136 L 47.06124235380601,136 L 47.08688310678081,136 L 48.5788129849734,136 L 48.61163888256239,136 L 48.63455608944901,136 L 50.12894074273423,136 L 50.15782466572192,136 L 50.19108059690377,136 L 51.67756338292003,136 L 51.7057485013193,136 L 51.739774909355035,136 L 53.22477049586262,136 L 53.250429166903785,136 L 53.28244875150614,136 L 54.77428903936689,136 L 54.80227705903609,136 L 54.834726677231316,136 L 56.318521753292146,136 L 56.35613177460179,136 L 56.377902225240774,136 L 57.8668756224824,136 L 57.89617166099657,136 L 57.9253243549798,136 L 59.41085748347847,136 L 59.443181675209104,136 L 59.470202119294356,136 L 60.55037483231514,136 L 60.965590184296275,136 L 60.99771727729684,136 L 61.031564504668886,136 L 62.51353193796002,136 L 62.54162746602745,136 L 62.574525035881905,136 L 64.0597535572523,136 L 64.08141649949306,136 L 64.11775433809046,136 L 65.6099529872786,136 L 65.6370092674966,136 L 65.66847339204149,136 L 67.15816351193789,136 L 67.19064896626585,136 L 67.22411991424414,136 L 68.70440304929653,136 L 68.73206854377109,136 L 68.76849597270035,136 L 70.25684223761903,136 L 70.2804403310277,136 L 70.30950343467909,136 L 71.8036551531015,136 L 71.83716193721253,136 L 71.86853647142559,136 L 73.35088018411048,136 L 73.3810362898104,136 L 73.41490143524881,136 L 74.89681511434084,136 L 74.92621866125323,136 L 74.95936708403687,136 L 76.4481613006148,136 L 76.47564761442565,136 L 76.50376106055944,136 L 77.99452626443801,136 L 78.02231718537716,136 L 78.05571646108996,136 L 79.5337419197798,136 L 79.57054562810282,136 L 79.60141845645754,136 L 81.0899439020399,136 L 81.11167851654615,136 L 81.1507578192981,136 L 82.63991039720341,136 L 82.67257503219507,136 L 82.70699563769094,136 L 84.19023525369431,136 L 84.22012258839868,136 L 84.25178381167365,136 L 85.72918213804056,136 L 85.76164967430213,136 L 85.79402762023187,136 L 87.28208719608867,136 L 87.31247623665138,136 L 87.34720144927553,136 L 88.83069191820809,136 L 88.85866201981091,136 L 88.88953484816562,136 L 90.3799416907168,136 L 90.39986658051973,136 L 90.44878290170854,136 L 91.92542866928792,136 L 91.95558477498784,136 L 91.98532876516127,136 L 93.47641649423448,136 L 93.51065791906666,136 L 93.54181743648329,136 L 95.02378486977442,136 L 95.05394097547435,136 L 95.08870202423122,136 L 96.56979147227025,136 L 96.59942795404547,136 L 96.62643048006434,136 L 98.12025967329211,136 L 98.15088164871764,136 L 98.182417445528,136 L 99.67303930487563,136 L 99.70185155559784,136 L 99.73026960885991,136 L 101.21535478569935,136 L 101.24615594178857,63.99999999999999 L 101.2782471986564,63.99999999999999 L 102.76926325546414,63.99999999999999 L 102.790639508643,63.99999999999999 L 102.82011472782088,63.99999999999999 L 104.31351388745577,63.99999999999999 L 104.33741658799272,63.99999999999999 L 104.37982865108941,63.99999999999999 L 105.86348038261927,63.99999999999999 L 105.89496242523055,63.99999999999999 L 105.92261000163873,63.99999999999999 L 107.40532999371739,63.99999999999999 L 107.43982227147873,63.99999999999999 L 107.4735978265853,63.99999999999999 L 108.96298333935341,63.99999999999999 L 108.97824953190026,63.99999999999999 L 109.0196223471475,63.99999999999999 L 110.50800444819893,63.99999999999999 L 110.54063324705784,63.99999999999999 L 110.57749070957998,63.99999999999999 L 112.05625080899097,63.99999999999999 L 112.08699821088108,63.99999999999999 L 112.12640003882767,63.99999999999999 L 113.60198864049126,63.99999999999999 L 113.63468911161566,63.99999999999999 L 113.6728366749164,63.99999999999999 L 115.15869232860972,63.99999999999999 L 115.19511975753896,63.99999999999999 L 116.70086446490247,63.99999999999999 L 116.7774641986322,63.99999999999999 L 118.24923625215908,63.99999999999999 L 118.28731214319434,63.99999999999999 L 118.32345288306168,63.99999999999999 L 119.79698090709276,63.99999999999999 L 119.83709945769414,63.99999999999999 L 119.8647111979696,63.99999999999999 L 121.34838084756583,63.99999999999999 L 121.38195930394234,63.99999999999999 L 121.41965891558382,63.99999999999999 L 122.89105468971694,63.99999999999999 L 122.92461522802706,63.99999999999999 L 122.96236859386768,63.99999999999999 L 124.44154080880517,63.99999999999999 L 124.47452796899147,63.99999999999999 L 124.50991615007129,63.99999999999999 L 125.99512675337532,63.99999999999999 L 126.03847055592321,63.99999999999999 L 127.57748911253493,63.99999999999999 L 127.61852148452115,63.99999999999999 L 129.09486264497224,63.99999999999999 L 129.12869195427794,63.99999999999999 L 130.64703306229922,63.99999999999999 L 130.6758453130214,63.99999999999999 L 130.72329235276794,63.99999999999999 L 132.18329223669002,63.99999999999999 L 132.21626147880997,63.99999999999999 L 132.25156006955797,63.99999999999999 L 133.7332766499199,63.99999999999999 L 133.77226636234,63.99999999999999 L 133.81139941929104,63.99999999999999 L 135.27865612009282,63.99999999999999 L 135.31026358916864,63.99999999999999 L 135.34867992346494,63.99999999999999 L 136.82552278977437,63.99999999999999 L 136.8614485128453,63.99999999999999 L 136.90841176479984,63.99999999999999 L 138.36885960038117,63.99999999999999 L 138.40974862783645,63.99999999999999 L 138.44932963644672,63.99999999999999 L 139.92412984319003,63.99999999999999 L 139.9570274130445,63.99999999999999 L 139.99458368015505,63.99999999999999 L 141.47221494138478,63.99999999999999 L 141.50550670869933,63.99999999999999 L 141.54388720686288,63.99999999999999 L 143.01832905227883,63.99999999999999 L 143.05692456723875,63.99999999999999 L 143.09851239928247,63.99999999999999 L 144.5680088583804,63.99999999999999 L 144.59873834220414,63.99999999999999 L 144.63577498538996,63.99999999999999 L 146.11749156575195,63.99999999999999 L 146.14506746989463,63.99999999999999 L 146.18273124540337,63.99999999999999 L 147.66174219774354,63.99999999999999 L 147.69709454269065,63.99999999999999 L 147.73613800930985,63.99999999999999 L 149.2109202979868,63.99999999999999 L 149.2484407289646,63.99999999999999 L 149.28834426276956,63.99999999999999 L 150.76319822371198,63.99999999999999 L 150.7903440942618,63.99999999999999 L 150.8291725440846,63.99999999999999 L 152.3100290572608,63.99999999999999 L 152.34659983072103,63.99999999999999 L 152.37921071151357,63.99999999999999 L 153.8534733762658,63.99999999999999 L 153.8869443242441,63.99999999999999 L 153.92548608500496,63.99999999999999 L 155.39890660063782,63.99999999999999 L 155.43950893903116,63.99999999999999 L 155.47665309061523,63.99999999999999 L 156.95046780370822,63.99999999999999 L 156.98110769720012,63.99999999999999 L 157.0155103846296,63.99999999999999 L 158.5047346348004,63.99999999999999 L 158.54212963931363,63.99999999999999 L 158.58421917721563,63.99999999999999 L 160.05161922254834,63.99999999999999 L 160.08501849826115,63.99999999999999 L 160.11841777397396,63.99999999999999 L 161.59624613393373,63.99999999999999 L 161.63333653131866,63.99999999999999 L 161.66981771444702,63.99999999999999 L 163.13775530177082,63.99999999999999 L 163.17803511496953,63.99999999999999 L 163.21637977700033,63.99999999999999 L 164.68463988951876,63.99999999999999 L 164.7249017846511,63.99999999999999 L 164.76908773631837,63.99999999999999 L 166.2472386214728,63.99999999999999 L 166.27925820607513,63.99999999999999 L 166.3206668574551,63.99999999999999 L 167.79148925346442,63.99999999999999 L 167.81915474793897,63.99999999999999 L 167.85422040382414,63.99999999999999 L 169.33522026153133,63.99999999999999 L 169.37182687112428,63.99999999999999 L 169.40895310464194,63.99999999999999 L 170.88411167271266,63.99999999999999 L 170.9160775031159,63.99999999999999 L 170.9574144822304,63.99999999999999 L 172.43189216377908,63.99999999999999 L 172.4640550929124,63.99999999999999 L 172.502148902014,63.99999999999999 L 173.9804968858985,63.99999999999999 L 174.01201476464252,63.99999999999999 L 174.04614868107646,63.99999999999999 L 175.52691560392083,40 L 175.5567491844261,40 L 177.0738001916688,40 L 177.11022762059804,40 L 177.14463030802753,40 L 178.62349791583677,40 L 178.6485832087541,40 L 178.69128196091268,40 L 180.18002242329152,40 L 180.21786537946394,40 L 181.72058193361102,40 L 181.76000167962397,40 L 181.81146236623727,40 L 183.27101429850012,40 L 183.3095918953937,40 L 183.33333333333334,40" stroke="#22c55e" stroke-width="2" fill="none" stroke-dasharray="14700" stroke-dashoffset="14700">
      <animate attributeName="stroke-dashoffset" values="14700;0" dur="3s" begin="2.6s" fill="freeze"/>
    </path>
    
    <!-- Glow effect for the line that also follows the circle -->
    <path d="M 30,160 L 30.029313956580552,136 L 30.059720915209645,136 L 31.554392257556778,136 L 31.575213050678173,136 L 31.603541513608402,136 L 33.096725656446864,136 L 33.11665054624978,136 L 33.154726437285035,136 L 34.64705051293776,136 L 34.675844845593595,136 L 34.700195497789785,136 L 36.1891151408323,136 L 36.221743939691216,136 L 36.25349475329803,136 L 37.74438538364119,136 L 37.75938280519249,136 L 37.79778122142239,136 L 39.29216587470761,136 L 39.32214279974384,136 L 39.35711886529716,136 L 40.84021513676957,136 L 40.86668012079737,136 L 40.90251625353643,136 L 42.38548709854426,136 L 42.41549985971323,136 L 42.448791627027816,136 L 43.93706621968103,136 L 43.95892626065185,136 L 43.98996035160388,136 L 45.480833063880674,136 L 45.50573917613432,136 L 45.53786626913489,136 L 47.03185672495998,136 L 47.06124235380601,136 L 47.08688310678081,136 L 48.5788129849734,136 L 48.61163888256239,136 L 48.63455608944901,136 L 50.12894074273423,136 L 50.15782466572192,136 L 50.19108059690377,136 L 51.67756338292003,136 L 51.7057485013193,136 L 51.739774909355035,136 L 53.22477049586262,136 L 53.250429166903785,136 L 53.28244875150614,136 L 54.77428903936689,136 L 54.80227705903609,136 L 54.834726677231316,136 L 56.318521753292146,136 L 56.35613177460179,136 L 56.377902225240774,136 L 57.8668756224824,136 L 57.89617166099657,136 L 57.9253243549798,136 L 59.41085748347847,136 L 59.443181675209104,136 L 59.470202119294356,136 L 60.55037483231514,136 L 60.965590184296275,136 L 60.99771727729684,136 L 61.031564504668886,136 L 62.51353193796002,136 L 62.54162746602745,136 L 62.574525035881905,136 L 64.0597535572523,136 L 64.08141649949306,136 L 64.11775433809046,136 L 65.6099529872786,136 L 65.6370092674966,136 L 65.66847339204149,136 L 67.15816351193789,136 L 67.19064896626585,136 L 67.22411991424414,136 L 68.70440304929653,136 L 68.73206854377109,136 L 68.76849597270035,136 L 70.25684223761903,136 L 70.2804403310277,136 L 70.30950343467909,136 L 71.8036551531015,136 L 71.83716193721253,136 L 71.86853647142559,136 L 73.35088018411048,136 L 73.3810362898104,136 L 73.41490143524881,136 L 74.89681511434084,136 L 74.92621866125323,136 L 74.95936708403687,136 L 76.4481613006148,136 L 76.47564761442565,136 L 76.50376106055944,136 L 77.99452626443801,136 L 78.02231718537716,136 L 78.05571646108996,136 L 79.5337419197798,136 L 79.57054562810282,136 L 79.60141845645754,136 L 81.0899439020399,136 L 81.11167851654615,136 L 81.1507578192981,136 L 82.63991039720341,136 L 82.67257503219507,136 L 82.70699563769094,136 L 84.19023525369431,136 L 84.22012258839868,136 L 84.25178381167365,136 L 85.72918213804056,136 L 85.76164967430213,136 L 85.79402762023187,136 L 87.28208719608867,136 L 87.31247623665138,136 L 87.34720144927553,136 L 88.83069191820809,136 L 88.85866201981091,136 L 88.88953484816562,136 L 90.3799416907168,136 L 90.39986658051973,136 L 90.44878290170854,136 L 91.92542866928792,136 L 91.95558477498784,136 L 91.98532876516127,136 L 93.47641649423448,136 L 93.51065791906666,136 L 93.54181743648329,136 L 95.02378486977442,136 L 95.05394097547435,136 L 95.08870202423122,136 L 96.56979147227025,136 L 96.59942795404547,136 L 96.62643048006434,136 L 98.12025967329211,136 L 98.15088164871764,136 L 98.182417445528,136 L 99.67303930487563,136 L 99.70185155559784,136 L 99.73026960885991,136 L 101.21535478569935,136 L 101.24615594178857,63.99999999999999 L 101.2782471986564,63.99999999999999 L 102.76926325546414,63.99999999999999 L 102.790639508643,63.99999999999999 L 102.82011472782088,63.99999999999999 L 104.31351388745577,63.99999999999999 L 104.33741658799272,63.99999999999999 L 104.37982865108941,63.99999999999999 L 105.86348038261927,63.99999999999999 L 105.89496242523055,63.99999999999999 L 105.92261000163873,63.99999999999999 L 107.40532999371739,63.99999999999999 L 107.43982227147873,63.99999999999999 L 107.4735978265853,63.99999999999999 L 108.96298333935341,63.99999999999999 L 108.97824953190026,63.99999999999999 L 109.0196223471475,63.99999999999999 L 110.50800444819893,63.99999999999999 L 110.54063324705784,63.99999999999999 L 110.57749070957998,63.99999999999999 L 112.05625080899097,63.99999999999999 L 112.08699821088108,63.99999999999999 L 112.12640003882767,63.99999999999999 L 113.60198864049126,63.99999999999999 L 113.63468911161566,63.99999999999999 L 113.6728366749164,63.99999999999999 L 115.15869232860972,63.99999999999999 L 115.19511975753896,63.99999999999999 L 116.70086446490247,63.99999999999999 L 116.7774641986322,63.99999999999999 L 118.24923625215908,63.99999999999999 L 118.28731214319434,63.99999999999999 L 118.32345288306168,63.99999999999999 L 119.79698090709276,63.99999999999999 L 119.83709945769414,63.99999999999999 L 119.8647111979696,63.99999999999999 L 121.34838084756583,63.99999999999999 L 121.38195930394234,63.99999999999999 L 121.41965891558382,63.99999999999999 L 122.89105468971694,63.99999999999999 L 122.92461522802706,63.99999999999999 L 122.96236859386768,63.99999999999999 L 124.44154080880517,63.99999999999999 L 124.47452796899147,63.99999999999999 L 124.50991615007129,63.99999999999999 L 125.99512675337532,63.99999999999999 L 126.03847055592321,63.99999999999999 L 127.57748911253493,63.99999999999999 L 127.61852148452115,63.99999999999999 L 129.09486264497224,63.99999999999999 L 129.12869195427794,63.99999999999999 L 130.64703306229922,63.99999999999999 L 130.6758453130214,63.99999999999999 L 130.72329235276794,63.99999999999999 L 132.18329223669002,63.99999999999999 L 132.21626147880997,63.99999999999999 L 132.25156006955797,63.99999999999999 L 133.7332766499199,63.99999999999999 L 133.77226636234,63.99999999999999 L 133.81139941929104,63.99999999999999 L 135.27865612009282,63.99999999999999 L 135.31026358916864,63.99999999999999 L 135.34867992346494,63.99999999999999 L 136.82552278977437,63.99999999999999 L 136.8614485128453,63.99999999999999 L 136.90841176479984,63.99999999999999 L 138.36885960038117,63.99999999999999 L 138.40974862783645,63.99999999999999 L 138.44932963644672,63.99999999999999 L 139.92412984319003,63.99999999999999 L 139.9570274130445,63.99999999999999 L 139.99458368015505,63.99999999999999 L 141.47221494138478,63.99999999999999 L 141.50550670869933,63.99999999999999 L 141.54388720686288,63.99999999999999 L 143.01832905227883,63.99999999999999 L 143.05692456723875,63.99999999999999 L 143.09851239928247,63.99999999999999 L 144.5680088583804,63.99999999999999 L 144.59873834220414,63.99999999999999 L 144.63577498538996,63.99999999999999 L 146.11749156575195,63.99999999999999 L 146.14506746989463,63.99999999999999 L 146.18273124540337,63.99999999999999 L 147.66174219774354,63.99999999999999 L 147.69709454269065,63.99999999999999 L 147.73613800930985,63.99999999999999 L 149.2109202979868,63.99999999999999 L 149.2484407289646,63.99999999999999 L 149.28834426276956,63.99999999999999 L 150.76319822371198,63.99999999999999 L 150.7903440942618,63.99999999999999 L 150.8291725440846,63.99999999999999 L 152.3100290572608,63.99999999999999 L 152.34659983072103,63.99999999999999 L 152.37921071151357,63.99999999999999 L 153.8534733762658,63.99999999999999 L 153.8869443242441,63.99999999999999 L 153.92548608500496,63.99999999999999 L 155.39890660063782,63.99999999999999 L 155.43950893903116,63.99999999999999 L 155.47665309061523,63.99999999999999 L 156.95046780370822,63.99999999999999 L 156.98110769720012,63.99999999999999 L 157.0155103846296,63.99999999999999 L 158.5047346348004,63.99999999999999 L 158.54212963931363,63.99999999999999 L 158.58421917721563,63.99999999999999 L 160.05161922254834,63.99999999999999 L 160.08501849826115,63.99999999999999 L 160.11841777397396,63.99999999999999 L 161.59624613393373,63.99999999999999 L 161.63333653131866,63.99999999999999 L 161.66981771444702,63.99999999999999 L 163.13775530177082,63.99999999999999 L 163.17803511496953,63.99999999999999 L 163.21637977700033,63.99999999999999 L 164.68463988951876,63.99999999999999 L 164.7249017846511,63.99999999999999 L 164.76908773631837,63.99999999999999 L 166.2472386214728,63.99999999999999 L 166.27925820607513,63.99999999999999 L 166.3206668574551,63.99999999999999 L 167.79148925346442,63.99999999999999 L 167.81915474793897,63.99999999999999 L 167.85422040382414,63.99999999999999 L 169.33522026153133,63.99999999999999 L 169.37182687112428,63.99999999999999 L 169.40895310464194,63.99999999999999 L 170.88411167271266,63.99999999999999 L 170.9160775031159,63.99999999999999 L 170.9574144822304,63.99999999999999 L 172.43189216377908,63.99999999999999 L 172.4640550929124,63.99999999999999 L 172.502148902014,63.99999999999999 L 173.9804968858985,63.99999999999999 L 174.01201476464252,63.99999999999999 L 174.04614868107646,63.99999999999999 L 175.52691560392083,40 L 175.5567491844261,40 L 177.0738001916688,40 L 177.11022762059804,40 L 177.14463030802753,40 L 178.62349791583677,40 L 178.6485832087541,40 L 178.69128196091268,40 L 180.18002242329152,40 L 180.21786537946394,40 L 181.72058193361102,40 L 181.76000167962397,40 L 181.81146236623727,40 L 183.27101429850012,40 L 183.3095918953937,40 L 183.33333333333334,40" stroke="#22c55e" stroke-width="4" fill="none" opacity="0.4" stroke-dasharray="14700" stroke-dashoffset="14700">
      <animate attributeName="stroke-dashoffset" values="14700;0" dur="3s" begin="2.6s" fill="freeze"/>
    </path>
    
    <!-- Animated circle that moves along the path and draws the line -->
    <circle r="5" fill="#22c55e" opacity="0" filter="url(#trailGlow)">
      <animate attributeName="opacity" values="0;1;1;1" dur="3.2s" begin="2.4s" fill="freeze"/>
      <animate attributeName="r" values="5;6;5" dur="1s" begin="2.4s" repeatCount="3"/>
      <animateMotion dur="3s" begin="2.4s" fill="freeze">
        <mpath href="#path_followersCount_60"/>
      </animateMotion>
    </circle>
    
    <!-- Small trail dots that fade out -->
    <circle r="2" fill="#22c55e" opacity="0">
      <animate attributeName="opacity" values="0;0.6;0" dur="0.8s" begin="2.8s" fill="freeze"/>
      <animateMotion dur="3s" begin="2.4s" fill="freeze">
        <mpath href="#path_followersCount_60"/>
      </animateMotion>
    </circle>
    
    <!-- Hidden path for motion animation -->
    <path id="path_followersCount_60" d="M 30,160 L 30.029313956580552,136 L 30.059720915209645,136 L 31.554392257556778,136 L 31.575213050678173,136 L 31.603541513608402,136 L 33.096725656446864,136 L 33.11665054624978,136 L 33.154726437285035,136 L 34.64705051293776,136 L 34.675844845593595,136 L 34.700195497789785,136 L 36.1891151408323,136 L 36.221743939691216,136 L 36.25349475329803,136 L 37.74438538364119,136 L 37.75938280519249,136 L 37.79778122142239,136 L 39.29216587470761,136 L 39.32214279974384,136 L 39.35711886529716,136 L 40.84021513676957,136 L 40.86668012079737,136 L 40.90251625353643,136 L 42.38548709854426,136 L 42.41549985971323,136 L 42.448791627027816,136 L 43.93706621968103,136 L 43.95892626065185,136 L 43.98996035160388,136 L 45.480833063880674,136 L 45.50573917613432,136 L 45.53786626913489,136 L 47.03185672495998,136 L 47.06124235380601,136 L 47.08688310678081,136 L 48.5788129849734,136 L 48.61163888256239,136 L 48.63455608944901,136 L 50.12894074273423,136 L 50.15782466572192,136 L 50.19108059690377,136 L 51.67756338292003,136 L 51.7057485013193,136 L 51.739774909355035,136 L 53.22477049586262,136 L 53.250429166903785,136 L 53.28244875150614,136 L 54.77428903936689,136 L 54.80227705903609,136 L 54.834726677231316,136 L 56.318521753292146,136 L 56.35613177460179,136 L 56.377902225240774,136 L 57.8668756224824,136 L 57.89617166099657,136 L 57.9253243549798,136 L 59.41085748347847,136 L 59.443181675209104,136 L 59.470202119294356,136 L 60.55037483231514,136 L 60.965590184296275,136 L 60.99771727729684,136 L 61.031564504668886,136 L 62.51353193796002,136 L 62.54162746602745,136 L 62.574525035881905,136 L 64.0597535572523,136 L 64.08141649949306,136 L 64.11775433809046,136 L 65.6099529872786,136 L 65.6370092674966,136 L 65.66847339204149,136 L 67.15816351193789,136 L 67.19064896626585,136 L 67.22411991424414,136 L 68.70440304929653,136 L 68.73206854377109,136 L 68.76849597270035,136 L 70.25684223761903,136 L 70.2804403310277,136 L 70.30950343467909,136 L 71.8036551531015,136 L 71.83716193721253,136 L 71.86853647142559,136 L 73.35088018411048,136 L 73.3810362898104,136 L 73.41490143524881,136 L 74.89681511434084,136 L 74.92621866125323,136 L 74.95936708403687,136 L 76.4481613006148,136 L 76.47564761442565,136 L 76.50376106055944,136 L 77.99452626443801,136 L 78.02231718537716,136 L 78.05571646108996,136 L 79.5337419197798,136 L 79.57054562810282,136 L 79.60141845645754,136 L 81.0899439020399,136 L 81.11167851654615,136 L 81.1507578192981,136 L 82.63991039720341,136 L 82.67257503219507,136 L 82.70699563769094,136 L 84.19023525369431,136 L 84.22012258839868,136 L 84.25178381167365,136 L 85.72918213804056,136 L 85.76164967430213,136 L 85.79402762023187,136 L 87.28208719608867,136 L 87.31247623665138,136 L 87.34720144927553,136 L 88.83069191820809,136 L 88.85866201981091,136 L 88.88953484816562,136 L 90.3799416907168,136 L 90.39986658051973,136 L 90.44878290170854,136 L 91.92542866928792,136 L 91.95558477498784,136 L 91.98532876516127,136 L 93.47641649423448,136 L 93.51065791906666,136 L 93.54181743648329,136 L 95.02378486977442,136 L 95.05394097547435,136 L 95.08870202423122,136 L 96.56979147227025,136 L 96.59942795404547,136 L 96.62643048006434,136 L 98.12025967329211,136 L 98.15088164871764,136 L 98.182417445528,136 L 99.67303930487563,136 L 99.70185155559784,136 L 99.73026960885991,136 L 101.21535478569935,136 L 101.24615594178857,63.99999999999999 L 101.2782471986564,63.99999999999999 L 102.76926325546414,63.99999999999999 L 102.790639508643,63.99999999999999 L 102.82011472782088,63.99999999999999 L 104.31351388745577,63.99999999999999 L 104.33741658799272,63.99999999999999 L 104.37982865108941,63.99999999999999 L 105.86348038261927,63.99999999999999 L 105.89496242523055,63.99999999999999 L 105.92261000163873,63.99999999999999 L 107.40532999371739,63.99999999999999 L 107.43982227147873,63.99999999999999 L 107.4735978265853,63.99999999999999 L 108.96298333935341,63.99999999999999 L 108.97824953190026,63.99999999999999 L 109.0196223471475,63.99999999999999 L 110.50800444819893,63.99999999999999 L 110.54063324705784,63.99999999999999 L 110.57749070957998,63.99999999999999 L 112.05625080899097,63.99999999999999 L 112.08699821088108,63.99999999999999 L 112.12640003882767,63.99999999999999 L 113.60198864049126,63.99999999999999 L 113.63468911161566,63.99999999999999 L 113.6728366749164,63.99999999999999 L 115.15869232860972,63.99999999999999 L 115.19511975753896,63.99999999999999 L 116.70086446490247,63.99999999999999 L 116.7774641986322,63.99999999999999 L 118.24923625215908,63.99999999999999 L 118.28731214319434,63.99999999999999 L 118.32345288306168,63.99999999999999 L 119.79698090709276,63.99999999999999 L 119.83709945769414,63.99999999999999 L 119.8647111979696,63.99999999999999 L 121.34838084756583,63.99999999999999 L 121.38195930394234,63.99999999999999 L 121.41965891558382,63.99999999999999 L 122.89105468971694,63.99999999999999 L 122.92461522802706,63.99999999999999 L 122.96236859386768,63.99999999999999 L 124.44154080880517,63.99999999999999 L 124.47452796899147,63.99999999999999 L 124.50991615007129,63.99999999999999 L 125.99512675337532,63.99999999999999 L 126.03847055592321,63.99999999999999 L 127.57748911253493,63.99999999999999 L 127.61852148452115,63.99999999999999 L 129.09486264497224,63.99999999999999 L 129.12869195427794,63.99999999999999 L 130.64703306229922,63.99999999999999 L 130.6758453130214,63.99999999999999 L 130.72329235276794,63.99999999999999 L 132.18329223669002,63.99999999999999 L 132.21626147880997,63.99999999999999 L 132.25156006955797,63.99999999999999 L 133.7332766499199,63.99999999999999 L 133.77226636234,63.99999999999999 L 133.81139941929104,63.99999999999999 L 135.27865612009282,63.99999999999999 L 135.31026358916864,63.99999999999999 L 135.34867992346494,63.99999999999999 L 136.82552278977437,63.99999999999999 L 136.8614485128453,63.99999999999999 L 136.90841176479984,63.99999999999999 L 138.36885960038117,63.99999999999999 L 138.40974862783645,63.99999999999999 L 138.44932963644672,63.99999999999999 L 139.92412984319003,63.99999999999999 L 139.9570274130445,63.99999999999999 L 139.99458368015505,63.99999999999999 L 141.47221494138478,63.99999999999999 L 141.50550670869933,63.99999999999999 L 141.54388720686288,63.99999999999999 L 143.01832905227883,63.99999999999999 L 143.05692456723875,63.99999999999999 L 143.09851239928247,63.99999999999999 L 144.5680088583804,63.99999999999999 L 144.59873834220414,63.99999999999999 L 144.63577498538996,63.99999999999999 L 146.11749156575195,63.99999999999999 L 146.14506746989463,63.99999999999999 L 146.18273124540337,63.99999999999999 L 147.66174219774354,63.99999999999999 L 147.69709454269065,63.99999999999999 L 147.73613800930985,63.99999999999999 L 149.2109202979868,63.99999999999999 L 149.2484407289646,63.99999999999999 L 149.28834426276956,63.99999999999999 L 150.76319822371198,63.99999999999999 L 150.7903440942618,63.99999999999999 L 150.8291725440846,63.99999999999999 L 152.3100290572608,63.99999999999999 L 152.34659983072103,63.99999999999999 L 152.37921071151357,63.99999999999999 L 153.8534733762658,63.99999999999999 L 153.8869443242441,63.99999999999999 L 153.92548608500496,63.99999999999999 L 155.39890660063782,63.99999999999999 L 155.43950893903116,63.99999999999999 L 155.47665309061523,63.99999999999999 L 156.95046780370822,63.99999999999999 L 156.98110769720012,63.99999999999999 L 157.0155103846296,63.99999999999999 L 158.5047346348004,63.99999999999999 L 158.54212963931363,63.99999999999999 L 158.58421917721563,63.99999999999999 L 160.05161922254834,63.99999999999999 L 160.08501849826115,63.99999999999999 L 160.11841777397396,63.99999999999999 L 161.59624613393373,63.99999999999999 L 161.63333653131866,63.99999999999999 L 161.66981771444702,63.99999999999999 L 163.13775530177082,63.99999999999999 L 163.17803511496953,63.99999999999999 L 163.21637977700033,63.99999999999999 L 164.68463988951876,63.99999999999999 L 164.7249017846511,63.99999999999999 L 164.76908773631837,63.99999999999999 L 166.2472386214728,63.99999999999999 L 166.27925820607513,63.99999999999999 L 166.3206668574551,63.99999999999999 L 167.79148925346442,63.99999999999999 L 167.81915474793897,63.99999999999999 L 167.85422040382414,63.99999999999999 L 169.33522026153133,63.99999999999999 L 169.37182687112428,63.99999999999999 L 169.40895310464194,63.99999999999999 L 170.88411167271266,63.99999999999999 L 170.9160775031159,63.99999999999999 L 170.9574144822304,63.99999999999999 L 172.43189216377908,63.99999999999999 L 172.4640550929124,63.99999999999999 L 172.502148902014,63.99999999999999 L 173.9804968858985,63.99999999999999 L 174.01201476464252,63.99999999999999 L 174.04614868107646,63.99999999999999 L 175.52691560392083,40 L 175.5567491844261,40 L 177.0738001916688,40 L 177.11022762059804,40 L 177.14463030802753,40 L 178.62349791583677,40 L 178.6485832087541,40 L 178.69128196091268,40 L 180.18002242329152,40 L 180.21786537946394,40 L 181.72058193361102,40 L 181.76000167962397,40 L 181.81146236623727,40 L 183.27101429850012,40 L 183.3095918953937,40 L 183.33333333333334,40" fill="none" stroke="none"/>
  </g>
  <!-- 🔓 Public Contributions Chart -->
  <g transform="translate(293.33333333333337, 250)">
    <!-- Chart Background -->
    <rect x="0" y="0" width="213.33333333333334" height="200" fill="#ffffff" stroke="#e2e8f0" stroke-width="1" rx="8" filter="url(#shadow)">
      <animate attributeName="opacity" values="0;1" dur="0.5s" begin="2.3s" fill="freeze"/>
    </rect>
    
    <!-- Chart Title -->
    <text x="106.66666666666667" y="25" text-anchor="middle" fill="#1e293b" font-size="14" font-weight="bold" font-family="Arial, sans-serif">
      🔓 Public Contributions
      <animate attributeName="opacity" values="0;1" dur="0.5s" begin="2.5s" fill="freeze"/>
    </text>
    
    <!-- Y-axis labels -->
    <text x="10" y="45" fill="#64748b" font-size="10" font-family="Arial, sans-serif">3,861
      <animate attributeName="opacity" values="0;1" dur="0.5s" begin="2.6999999999999997s" fill="freeze"/>
    </text>
    <text x="10" y="185" fill="#64748b" font-size="10" font-family="Arial, sans-serif">3,180
      <animate attributeName="opacity" values="0;1" dur="0.5s" begin="2.6999999999999997s" fill="freeze"/>
    </text>
    
    <!-- Chart Line with draw animation that follows the circle -->
    <path d="M 30,160 L 30.029313956580552,115.24229074889868 L 30.059720915209645,115.24229074889868 L 31.554392257556778,115.24229074889868 L 31.575213050678173,115.24229074889868 L 31.603541513608402,115.24229074889868 L 33.096725656446864,115.24229074889868 L 33.11665054624978,115.24229074889868 L 33.154726437285035,115.24229074889868 L 34.64705051293776,115.24229074889868 L 34.675844845593595,115.24229074889868 L 34.700195497789785,115.24229074889868 L 36.1891151408323,115.24229074889868 L 36.221743939691216,115.24229074889868 L 36.25349475329803,115.24229074889868 L 37.74438538364119,115.24229074889868 L 37.75938280519249,115.24229074889868 L 37.79778122142239,115.24229074889868 L 39.29216587470761,115.24229074889868 L 39.32214279974384,115.24229074889868 L 39.35711886529716,115.24229074889868 L 40.84021513676957,115.24229074889868 L 40.86668012079737,115.24229074889868 L 40.90251625353643,115.24229074889868 L 42.38548709854426,115.24229074889868 L 42.41549985971323,115.24229074889868 L 42.448791627027816,115.24229074889868 L 43.93706621968103,115.24229074889868 L 43.95892626065185,115.24229074889868 L 43.98996035160388,115.24229074889868 L 45.480833063880674,115.24229074889868 L 45.50573917613432,115.24229074889868 L 45.53786626913489,115.24229074889868 L 47.03185672495998,115.24229074889868 L 47.06124235380601,115.24229074889868 L 47.08688310678081,115.24229074889868 L 48.5788129849734,115.24229074889868 L 48.61163888256239,115.24229074889868 L 48.63455608944901,115.24229074889868 L 50.12894074273423,115.24229074889868 L 50.15782466572192,115.24229074889868 L 50.19108059690377,115.24229074889868 L 51.67756338292003,115.24229074889868 L 51.7057485013193,115.24229074889868 L 51.739774909355035,115.24229074889868 L 53.22477049586262,115.24229074889868 L 53.250429166903785,115.24229074889868 L 53.28244875150614,115.24229074889868 L 54.77428903936689,115.24229074889868 L 54.80227705903609,115.24229074889868 L 54.834726677231316,115.24229074889868 L 56.318521753292146,115.24229074889868 L 56.35613177460179,115.24229074889868 L 56.377902225240774,115.24229074889868 L 57.8668756224824,115.24229074889868 L 57.89617166099657,115.24229074889868 L 57.9253243549798,115.24229074889868 L 59.41085748347847,115.24229074889868 L 59.443181675209104,115.24229074889868 L 59.470202119294356,115.24229074889868 L 60.55037483231514,115.24229074889868 L 60.965590184296275,115.24229074889868 L 60.99771727729684,115.24229074889868 L 61.031564504668886,115.24229074889868 L 62.51353193796002,115.24229074889868 L 62.54162746602745,115.24229074889868 L 62.574525035881905,115.24229074889868 L 64.0597535572523,115.24229074889868 L 64.08141649949306,115.24229074889868 L 64.11775433809046,115.24229074889868 L 65.6099529872786,115.24229074889868 L 65.6370092674966,115.24229074889868 L 65.66847339204149,115.24229074889868 L 67.15816351193789,115.24229074889868 L 67.19064896626585,115.24229074889868 L 67.22411991424414,115.24229074889868 L 68.70440304929653,115.24229074889868 L 68.73206854377109,115.24229074889868 L 68.76849597270035,115.24229074889868 L 70.25684223761903,115.24229074889868 L 70.2804403310277,115.24229074889868 L 70.30950343467909,115.24229074889868 L 71.8036551531015,115.24229074889868 L 71.83716193721253,115.24229074889868 L 71.86853647142559,115.24229074889868 L 73.35088018411048,115.24229074889868 L 73.3810362898104,115.24229074889868 L 73.41490143524881,115.24229074889868 L 74.89681511434084,115.24229074889868 L 74.92621866125323,115.24229074889868 L 74.95936708403687,115.24229074889868 L 76.4481613006148,115.24229074889868 L 76.47564761442565,115.24229074889868 L 76.50376106055944,115.24229074889868 L 77.99452626443801,115.24229074889868 L 78.02231718537716,115.24229074889868 L 78.05571646108996,115.24229074889868 L 79.5337419197798,115.24229074889868 L 79.57054562810282,115.24229074889868 L 79.60141845645754,115.24229074889868 L 81.0899439020399,115.24229074889868 L 81.11167851654615,115.24229074889868 L 81.1507578192981,115.24229074889868 L 82.63991039720341,115.24229074889868 L 82.67257503219507,115.24229074889868 L 82.70699563769094,115.24229074889868 L 84.19023525369431,115.24229074889868 L 84.22012258839868,115.24229074889868 L 84.25178381167365,115.24229074889868 L 85.72918213804056,115.24229074889868 L 85.76164967430213,115.24229074889868 L 85.79402762023187,115.24229074889868 L 87.28208719608867,115.24229074889868 L 87.31247623665138,115.24229074889868 L 87.34720144927553,115.24229074889868 L 88.83069191820809,115.24229074889868 L 88.85866201981091,115.24229074889868 L 88.88953484816562,115.24229074889868 L 90.3799416907168,115.24229074889868 L 90.39986658051973,115.24229074889868 L 90.44878290170854,115.24229074889868 L 91.92542866928792,115.24229074889868 L 91.95558477498784,115.24229074889868 L 91.98532876516127,115.24229074889868 L 93.47641649423448,115.24229074889868 L 93.51065791906666,115.24229074889868 L 93.54181743648329,115.24229074889868 L 95.02378486977442,115.24229074889868 L 95.05394097547435,115.24229074889868 L 95.08870202423122,115.24229074889868 L 96.56979147227025,115.24229074889868 L 96.59942795404547,115.24229074889868 L 96.62643048006434,115.24229074889868 L 98.12025967329211,115.24229074889868 L 98.15088164871764,115.24229074889868 L 98.182417445528,115.24229074889868 L 99.67303930487563,115.24229074889868 L 99.70185155559784,115.24229074889868 L 99.73026960885991,115.24229074889868 L 101.21535478569935,115.24229074889868 L 101.24615594178857,40 L 101.2782471986564,40 L 102.76926325546414,40 L 102.790639508643,40 L 102.82011472782088,40 L 104.31351388745577,40 L 104.33741658799272,40 L 104.37982865108941,40 L 105.86348038261927,40 L 105.89496242523055,40 L 105.92261000163873,40 L 107.40532999371739,40 L 107.43982227147873,40 L 107.4735978265853,40 L 108.96298333935341,40 L 108.97824953190026,40 L 109.0196223471475,40 L 110.50800444819893,40 L 110.54063324705784,40 L 110.57749070957998,40 L 112.05625080899097,40 L 112.08699821088108,40 L 112.12640003882767,40 L 113.60198864049126,40 L 113.63468911161566,40 L 113.6728366749164,40 L 115.15869232860972,40 L 115.19511975753896,40 L 116.70086446490247,40 L 116.7774641986322,40 L 118.24923625215908,40 L 118.28731214319434,40 L 118.32345288306168,40 L 119.79698090709276,40 L 119.83709945769414,40 L 119.8647111979696,40 L 121.34838084756583,40 L 121.38195930394234,40 L 121.41965891558382,40 L 122.89105468971694,40 L 122.92461522802706,40 L 122.96236859386768,40 L 124.44154080880517,40 L 124.47452796899147,40 L 124.50991615007129,40 L 125.99512675337532,40 L 126.03847055592321,40 L 127.57748911253493,40 L 127.61852148452115,40 L 129.09486264497224,40 L 129.12869195427794,40 L 130.64703306229922,40 L 130.6758453130214,40 L 130.72329235276794,40 L 132.18329223669002,40 L 132.21626147880997,40 L 132.25156006955797,40 L 133.7332766499199,40 L 133.77226636234,40 L 133.81139941929104,40 L 135.27865612009282,40 L 135.31026358916864,40 L 135.34867992346494,40 L 136.82552278977437,40 L 136.8614485128453,40 L 136.90841176479984,40 L 138.36885960038117,40 L 138.40974862783645,40 L 138.44932963644672,40 L 139.92412984319003,40 L 139.9570274130445,40 L 139.99458368015505,40 L 141.47221494138478,40 L 141.50550670869933,40 L 141.54388720686288,40 L 143.01832905227883,40 L 143.05692456723875,40 L 143.09851239928247,40 L 144.5680088583804,40 L 144.59873834220414,40 L 144.63577498538996,40 L 146.11749156575195,40 L 146.14506746989463,40 L 146.18273124540337,40 L 147.66174219774354,40 L 147.69709454269065,40 L 147.73613800930985,40 L 149.2109202979868,40 L 149.2484407289646,40 L 149.28834426276956,40 L 150.76319822371198,40 L 150.7903440942618,40 L 150.8291725440846,40 L 152.3100290572608,40 L 152.34659983072103,40 L 152.37921071151357,40 L 153.8534733762658,40 L 153.8869443242441,40 L 153.92548608500496,40 L 155.39890660063782,40 L 155.43950893903116,40 L 155.47665309061523,40 L 156.95046780370822,40 L 156.98110769720012,40 L 157.0155103846296,40 L 158.5047346348004,40 L 158.54212963931363,40 L 158.58421917721563,40 L 160.05161922254834,40 L 160.08501849826115,40 L 160.11841777397396,40 L 161.59624613393373,40 L 161.63333653131866,40 L 161.66981771444702,40 L 163.13775530177082,40 L 163.17803511496953,40 L 163.21637977700033,40 L 164.68463988951876,40 L 164.7249017846511,40 L 164.76908773631837,40 L 166.2472386214728,40 L 166.27925820607513,40 L 166.3206668574551,40 L 167.79148925346442,40 L 167.81915474793897,40 L 167.85422040382414,40 L 169.33522026153133,40 L 169.37182687112428,40 L 169.40895310464194,40 L 170.88411167271266,40 L 170.9160775031159,40 L 170.9574144822304,40 L 172.43189216377908,40 L 172.4640550929124,40 L 172.502148902014,40 L 173.9804968858985,40 L 174.01201476464252,40 L 174.04614868107646,40 L 175.52691560392083,56.563876651982376 L 175.5567491844261,56.563876651982376 L 177.0738001916688,56.563876651982376 L 177.11022762059804,56.563876651982376 L 177.14463030802753,56.563876651982376 L 178.62349791583677,56.563876651982376 L 178.6485832087541,56.563876651982376 L 178.69128196091268,56.563876651982376 L 180.18002242329152,56.563876651982376 L 180.21786537946394,56.563876651982376 L 181.72058193361102,56.563876651982376 L 181.76000167962397,56.563876651982376 L 181.81146236623727,56.563876651982376 L 183.27101429850012,56.563876651982376 L 183.3095918953937,56.563876651982376 L 183.33333333333334,56.563876651982376" stroke="#3b82f6" stroke-width="2" fill="none" stroke-dasharray="14700" stroke-dashoffset="14700">
      <animate attributeName="stroke-dashoffset" values="14700;0" dur="3s" begin="3.0999999999999996s" fill="freeze"/>
    </path>
    
    <!-- Glow effect for the line that also follows the circle -->
    <path d="M 30,160 L 30.029313956580552,115.24229074889868 L 30.059720915209645,115.24229074889868 L 31.554392257556778,115.24229074889868 L 31.575213050678173,115.24229074889868 L 31.603541513608402,115.24229074889868 L 33.096725656446864,115.24229074889868 L 33.11665054624978,115.24229074889868 L 33.154726437285035,115.24229074889868 L 34.64705051293776,115.24229074889868 L 34.675844845593595,115.24229074889868 L 34.700195497789785,115.24229074889868 L 36.1891151408323,115.24229074889868 L 36.221743939691216,115.24229074889868 L 36.25349475329803,115.24229074889868 L 37.74438538364119,115.24229074889868 L 37.75938280519249,115.24229074889868 L 37.79778122142239,115.24229074889868 L 39.29216587470761,115.24229074889868 L 39.32214279974384,115.24229074889868 L 39.35711886529716,115.24229074889868 L 40.84021513676957,115.24229074889868 L 40.86668012079737,115.24229074889868 L 40.90251625353643,115.24229074889868 L 42.38548709854426,115.24229074889868 L 42.41549985971323,115.24229074889868 L 42.448791627027816,115.24229074889868 L 43.93706621968103,115.24229074889868 L 43.95892626065185,115.24229074889868 L 43.98996035160388,115.24229074889868 L 45.480833063880674,115.24229074889868 L 45.50573917613432,115.24229074889868 L 45.53786626913489,115.24229074889868 L 47.03185672495998,115.24229074889868 L 47.06124235380601,115.24229074889868 L 47.08688310678081,115.24229074889868 L 48.5788129849734,115.24229074889868 L 48.61163888256239,115.24229074889868 L 48.63455608944901,115.24229074889868 L 50.12894074273423,115.24229074889868 L 50.15782466572192,115.24229074889868 L 50.19108059690377,115.24229074889868 L 51.67756338292003,115.24229074889868 L 51.7057485013193,115.24229074889868 L 51.739774909355035,115.24229074889868 L 53.22477049586262,115.24229074889868 L 53.250429166903785,115.24229074889868 L 53.28244875150614,115.24229074889868 L 54.77428903936689,115.24229074889868 L 54.80227705903609,115.24229074889868 L 54.834726677231316,115.24229074889868 L 56.318521753292146,115.24229074889868 L 56.35613177460179,115.24229074889868 L 56.377902225240774,115.24229074889868 L 57.8668756224824,115.24229074889868 L 57.89617166099657,115.24229074889868 L 57.9253243549798,115.24229074889868 L 59.41085748347847,115.24229074889868 L 59.443181675209104,115.24229074889868 L 59.470202119294356,115.24229074889868 L 60.55037483231514,115.24229074889868 L 60.965590184296275,115.24229074889868 L 60.99771727729684,115.24229074889868 L 61.031564504668886,115.24229074889868 L 62.51353193796002,115.24229074889868 L 62.54162746602745,115.24229074889868 L 62.574525035881905,115.24229074889868 L 64.0597535572523,115.24229074889868 L 64.08141649949306,115.24229074889868 L 64.11775433809046,115.24229074889868 L 65.6099529872786,115.24229074889868 L 65.6370092674966,115.24229074889868 L 65.66847339204149,115.24229074889868 L 67.15816351193789,115.24229074889868 L 67.19064896626585,115.24229074889868 L 67.22411991424414,115.24229074889868 L 68.70440304929653,115.24229074889868 L 68.73206854377109,115.24229074889868 L 68.76849597270035,115.24229074889868 L 70.25684223761903,115.24229074889868 L 70.2804403310277,115.24229074889868 L 70.30950343467909,115.24229074889868 L 71.8036551531015,115.24229074889868 L 71.83716193721253,115.24229074889868 L 71.86853647142559,115.24229074889868 L 73.35088018411048,115.24229074889868 L 73.3810362898104,115.24229074889868 L 73.41490143524881,115.24229074889868 L 74.89681511434084,115.24229074889868 L 74.92621866125323,115.24229074889868 L 74.95936708403687,115.24229074889868 L 76.4481613006148,115.24229074889868 L 76.47564761442565,115.24229074889868 L 76.50376106055944,115.24229074889868 L 77.99452626443801,115.24229074889868 L 78.02231718537716,115.24229074889868 L 78.05571646108996,115.24229074889868 L 79.5337419197798,115.24229074889868 L 79.57054562810282,115.24229074889868 L 79.60141845645754,115.24229074889868 L 81.0899439020399,115.24229074889868 L 81.11167851654615,115.24229074889868 L 81.1507578192981,115.24229074889868 L 82.63991039720341,115.24229074889868 L 82.67257503219507,115.24229074889868 L 82.70699563769094,115.24229074889868 L 84.19023525369431,115.24229074889868 L 84.22012258839868,115.24229074889868 L 84.25178381167365,115.24229074889868 L 85.72918213804056,115.24229074889868 L 85.76164967430213,115.24229074889868 L 85.79402762023187,115.24229074889868 L 87.28208719608867,115.24229074889868 L 87.31247623665138,115.24229074889868 L 87.34720144927553,115.24229074889868 L 88.83069191820809,115.24229074889868 L 88.85866201981091,115.24229074889868 L 88.88953484816562,115.24229074889868 L 90.3799416907168,115.24229074889868 L 90.39986658051973,115.24229074889868 L 90.44878290170854,115.24229074889868 L 91.92542866928792,115.24229074889868 L 91.95558477498784,115.24229074889868 L 91.98532876516127,115.24229074889868 L 93.47641649423448,115.24229074889868 L 93.51065791906666,115.24229074889868 L 93.54181743648329,115.24229074889868 L 95.02378486977442,115.24229074889868 L 95.05394097547435,115.24229074889868 L 95.08870202423122,115.24229074889868 L 96.56979147227025,115.24229074889868 L 96.59942795404547,115.24229074889868 L 96.62643048006434,115.24229074889868 L 98.12025967329211,115.24229074889868 L 98.15088164871764,115.24229074889868 L 98.182417445528,115.24229074889868 L 99.67303930487563,115.24229074889868 L 99.70185155559784,115.24229074889868 L 99.73026960885991,115.24229074889868 L 101.21535478569935,115.24229074889868 L 101.24615594178857,40 L 101.2782471986564,40 L 102.76926325546414,40 L 102.790639508643,40 L 102.82011472782088,40 L 104.31351388745577,40 L 104.33741658799272,40 L 104.37982865108941,40 L 105.86348038261927,40 L 105.89496242523055,40 L 105.92261000163873,40 L 107.40532999371739,40 L 107.43982227147873,40 L 107.4735978265853,40 L 108.96298333935341,40 L 108.97824953190026,40 L 109.0196223471475,40 L 110.50800444819893,40 L 110.54063324705784,40 L 110.57749070957998,40 L 112.05625080899097,40 L 112.08699821088108,40 L 112.12640003882767,40 L 113.60198864049126,40 L 113.63468911161566,40 L 113.6728366749164,40 L 115.15869232860972,40 L 115.19511975753896,40 L 116.70086446490247,40 L 116.7774641986322,40 L 118.24923625215908,40 L 118.28731214319434,40 L 118.32345288306168,40 L 119.79698090709276,40 L 119.83709945769414,40 L 119.8647111979696,40 L 121.34838084756583,40 L 121.38195930394234,40 L 121.41965891558382,40 L 122.89105468971694,40 L 122.92461522802706,40 L 122.96236859386768,40 L 124.44154080880517,40 L 124.47452796899147,40 L 124.50991615007129,40 L 125.99512675337532,40 L 126.03847055592321,40 L 127.57748911253493,40 L 127.61852148452115,40 L 129.09486264497224,40 L 129.12869195427794,40 L 130.64703306229922,40 L 130.6758453130214,40 L 130.72329235276794,40 L 132.18329223669002,40 L 132.21626147880997,40 L 132.25156006955797,40 L 133.7332766499199,40 L 133.77226636234,40 L 133.81139941929104,40 L 135.27865612009282,40 L 135.31026358916864,40 L 135.34867992346494,40 L 136.82552278977437,40 L 136.8614485128453,40 L 136.90841176479984,40 L 138.36885960038117,40 L 138.40974862783645,40 L 138.44932963644672,40 L 139.92412984319003,40 L 139.9570274130445,40 L 139.99458368015505,40 L 141.47221494138478,40 L 141.50550670869933,40 L 141.54388720686288,40 L 143.01832905227883,40 L 143.05692456723875,40 L 143.09851239928247,40 L 144.5680088583804,40 L 144.59873834220414,40 L 144.63577498538996,40 L 146.11749156575195,40 L 146.14506746989463,40 L 146.18273124540337,40 L 147.66174219774354,40 L 147.69709454269065,40 L 147.73613800930985,40 L 149.2109202979868,40 L 149.2484407289646,40 L 149.28834426276956,40 L 150.76319822371198,40 L 150.7903440942618,40 L 150.8291725440846,40 L 152.3100290572608,40 L 152.34659983072103,40 L 152.37921071151357,40 L 153.8534733762658,40 L 153.8869443242441,40 L 153.92548608500496,40 L 155.39890660063782,40 L 155.43950893903116,40 L 155.47665309061523,40 L 156.95046780370822,40 L 156.98110769720012,40 L 157.0155103846296,40 L 158.5047346348004,40 L 158.54212963931363,40 L 158.58421917721563,40 L 160.05161922254834,40 L 160.08501849826115,40 L 160.11841777397396,40 L 161.59624613393373,40 L 161.63333653131866,40 L 161.66981771444702,40 L 163.13775530177082,40 L 163.17803511496953,40 L 163.21637977700033,40 L 164.68463988951876,40 L 164.7249017846511,40 L 164.76908773631837,40 L 166.2472386214728,40 L 166.27925820607513,40 L 166.3206668574551,40 L 167.79148925346442,40 L 167.81915474793897,40 L 167.85422040382414,40 L 169.33522026153133,40 L 169.37182687112428,40 L 169.40895310464194,40 L 170.88411167271266,40 L 170.9160775031159,40 L 170.9574144822304,40 L 172.43189216377908,40 L 172.4640550929124,40 L 172.502148902014,40 L 173.9804968858985,40 L 174.01201476464252,40 L 174.04614868107646,40 L 175.52691560392083,56.563876651982376 L 175.5567491844261,56.563876651982376 L 177.0738001916688,56.563876651982376 L 177.11022762059804,56.563876651982376 L 177.14463030802753,56.563876651982376 L 178.62349791583677,56.563876651982376 L 178.6485832087541,56.563876651982376 L 178.69128196091268,56.563876651982376 L 180.18002242329152,56.563876651982376 L 180.21786537946394,56.563876651982376 L 181.72058193361102,56.563876651982376 L 181.76000167962397,56.563876651982376 L 181.81146236623727,56.563876651982376 L 183.27101429850012,56.563876651982376 L 183.3095918953937,56.563876651982376 L 183.33333333333334,56.563876651982376" stroke="#3b82f6" stroke-width="4" fill="none" opacity="0.4" stroke-dasharray="14700" stroke-dashoffset="14700">
      <animate attributeName="stroke-dashoffset" values="14700;0" dur="3s" begin="3.0999999999999996s" fill="freeze"/>
    </path>
    
    <!-- Animated circle that moves along the path and draws the line -->
    <circle r="5" fill="#3b82f6" opacity="0" filter="url(#trailGlow)">
      <animate attributeName="opacity" values="0;1;1;1" dur="3.2s" begin="2.9s" fill="freeze"/>
      <animate attributeName="r" values="5;6;5" dur="1s" begin="2.9s" repeatCount="3"/>
      <animateMotion dur="3s" begin="2.9s" fill="freeze">
        <mpath href="#path_publicContributions_293.33333333333337"/>
      </animateMotion>
    </circle>
    
    <!-- Small trail dots that fade out -->
    <circle r="2" fill="#3b82f6" opacity="0">
      <animate attributeName="opacity" values="0;0.6;0" dur="0.8s" begin="3.3s" fill="freeze"/>
      <animateMotion dur="3s" begin="2.9s" fill="freeze">
        <mpath href="#path_publicContributions_293.33333333333337"/>
      </animateMotion>
    </circle>
    
    <!-- Hidden path for motion animation -->
    <path id="path_publicContributions_293.33333333333337" d="M 30,160 L 30.029313956580552,115.24229074889868 L 30.059720915209645,115.24229074889868 L 31.554392257556778,115.24229074889868 L 31.575213050678173,115.24229074889868 L 31.603541513608402,115.24229074889868 L 33.096725656446864,115.24229074889868 L 33.11665054624978,115.24229074889868 L 33.154726437285035,115.24229074889868 L 34.64705051293776,115.24229074889868 L 34.675844845593595,115.24229074889868 L 34.700195497789785,115.24229074889868 L 36.1891151408323,115.24229074889868 L 36.221743939691216,115.24229074889868 L 36.25349475329803,115.24229074889868 L 37.74438538364119,115.24229074889868 L 37.75938280519249,115.24229074889868 L 37.79778122142239,115.24229074889868 L 39.29216587470761,115.24229074889868 L 39.32214279974384,115.24229074889868 L 39.35711886529716,115.24229074889868 L 40.84021513676957,115.24229074889868 L 40.86668012079737,115.24229074889868 L 40.90251625353643,115.24229074889868 L 42.38548709854426,115.24229074889868 L 42.41549985971323,115.24229074889868 L 42.448791627027816,115.24229074889868 L 43.93706621968103,115.24229074889868 L 43.95892626065185,115.24229074889868 L 43.98996035160388,115.24229074889868 L 45.480833063880674,115.24229074889868 L 45.50573917613432,115.24229074889868 L 45.53786626913489,115.24229074889868 L 47.03185672495998,115.24229074889868 L 47.06124235380601,115.24229074889868 L 47.08688310678081,115.24229074889868 L 48.5788129849734,115.24229074889868 L 48.61163888256239,115.24229074889868 L 48.63455608944901,115.24229074889868 L 50.12894074273423,115.24229074889868 L 50.15782466572192,115.24229074889868 L 50.19108059690377,115.24229074889868 L 51.67756338292003,115.24229074889868 L 51.7057485013193,115.24229074889868 L 51.739774909355035,115.24229074889868 L 53.22477049586262,115.24229074889868 L 53.250429166903785,115.24229074889868 L 53.28244875150614,115.24229074889868 L 54.77428903936689,115.24229074889868 L 54.80227705903609,115.24229074889868 L 54.834726677231316,115.24229074889868 L 56.318521753292146,115.24229074889868 L 56.35613177460179,115.24229074889868 L 56.377902225240774,115.24229074889868 L 57.8668756224824,115.24229074889868 L 57.89617166099657,115.24229074889868 L 57.9253243549798,115.24229074889868 L 59.41085748347847,115.24229074889868 L 59.443181675209104,115.24229074889868 L 59.470202119294356,115.24229074889868 L 60.55037483231514,115.24229074889868 L 60.965590184296275,115.24229074889868 L 60.99771727729684,115.24229074889868 L 61.031564504668886,115.24229074889868 L 62.51353193796002,115.24229074889868 L 62.54162746602745,115.24229074889868 L 62.574525035881905,115.24229074889868 L 64.0597535572523,115.24229074889868 L 64.08141649949306,115.24229074889868 L 64.11775433809046,115.24229074889868 L 65.6099529872786,115.24229074889868 L 65.6370092674966,115.24229074889868 L 65.66847339204149,115.24229074889868 L 67.15816351193789,115.24229074889868 L 67.19064896626585,115.24229074889868 L 67.22411991424414,115.24229074889868 L 68.70440304929653,115.24229074889868 L 68.73206854377109,115.24229074889868 L 68.76849597270035,115.24229074889868 L 70.25684223761903,115.24229074889868 L 70.2804403310277,115.24229074889868 L 70.30950343467909,115.24229074889868 L 71.8036551531015,115.24229074889868 L 71.83716193721253,115.24229074889868 L 71.86853647142559,115.24229074889868 L 73.35088018411048,115.24229074889868 L 73.3810362898104,115.24229074889868 L 73.41490143524881,115.24229074889868 L 74.89681511434084,115.24229074889868 L 74.92621866125323,115.24229074889868 L 74.95936708403687,115.24229074889868 L 76.4481613006148,115.24229074889868 L 76.47564761442565,115.24229074889868 L 76.50376106055944,115.24229074889868 L 77.99452626443801,115.24229074889868 L 78.02231718537716,115.24229074889868 L 78.05571646108996,115.24229074889868 L 79.5337419197798,115.24229074889868 L 79.57054562810282,115.24229074889868 L 79.60141845645754,115.24229074889868 L 81.0899439020399,115.24229074889868 L 81.11167851654615,115.24229074889868 L 81.1507578192981,115.24229074889868 L 82.63991039720341,115.24229074889868 L 82.67257503219507,115.24229074889868 L 82.70699563769094,115.24229074889868 L 84.19023525369431,115.24229074889868 L 84.22012258839868,115.24229074889868 L 84.25178381167365,115.24229074889868 L 85.72918213804056,115.24229074889868 L 85.76164967430213,115.24229074889868 L 85.79402762023187,115.24229074889868 L 87.28208719608867,115.24229074889868 L 87.31247623665138,115.24229074889868 L 87.34720144927553,115.24229074889868 L 88.83069191820809,115.24229074889868 L 88.85866201981091,115.24229074889868 L 88.88953484816562,115.24229074889868 L 90.3799416907168,115.24229074889868 L 90.39986658051973,115.24229074889868 L 90.44878290170854,115.24229074889868 L 91.92542866928792,115.24229074889868 L 91.95558477498784,115.24229074889868 L 91.98532876516127,115.24229074889868 L 93.47641649423448,115.24229074889868 L 93.51065791906666,115.24229074889868 L 93.54181743648329,115.24229074889868 L 95.02378486977442,115.24229074889868 L 95.05394097547435,115.24229074889868 L 95.08870202423122,115.24229074889868 L 96.56979147227025,115.24229074889868 L 96.59942795404547,115.24229074889868 L 96.62643048006434,115.24229074889868 L 98.12025967329211,115.24229074889868 L 98.15088164871764,115.24229074889868 L 98.182417445528,115.24229074889868 L 99.67303930487563,115.24229074889868 L 99.70185155559784,115.24229074889868 L 99.73026960885991,115.24229074889868 L 101.21535478569935,115.24229074889868 L 101.24615594178857,40 L 101.2782471986564,40 L 102.76926325546414,40 L 102.790639508643,40 L 102.82011472782088,40 L 104.31351388745577,40 L 104.33741658799272,40 L 104.37982865108941,40 L 105.86348038261927,40 L 105.89496242523055,40 L 105.92261000163873,40 L 107.40532999371739,40 L 107.43982227147873,40 L 107.4735978265853,40 L 108.96298333935341,40 L 108.97824953190026,40 L 109.0196223471475,40 L 110.50800444819893,40 L 110.54063324705784,40 L 110.57749070957998,40 L 112.05625080899097,40 L 112.08699821088108,40 L 112.12640003882767,40 L 113.60198864049126,40 L 113.63468911161566,40 L 113.6728366749164,40 L 115.15869232860972,40 L 115.19511975753896,40 L 116.70086446490247,40 L 116.7774641986322,40 L 118.24923625215908,40 L 118.28731214319434,40 L 118.32345288306168,40 L 119.79698090709276,40 L 119.83709945769414,40 L 119.8647111979696,40 L 121.34838084756583,40 L 121.38195930394234,40 L 121.41965891558382,40 L 122.89105468971694,40 L 122.92461522802706,40 L 122.96236859386768,40 L 124.44154080880517,40 L 124.47452796899147,40 L 124.50991615007129,40 L 125.99512675337532,40 L 126.03847055592321,40 L 127.57748911253493,40 L 127.61852148452115,40 L 129.09486264497224,40 L 129.12869195427794,40 L 130.64703306229922,40 L 130.6758453130214,40 L 130.72329235276794,40 L 132.18329223669002,40 L 132.21626147880997,40 L 132.25156006955797,40 L 133.7332766499199,40 L 133.77226636234,40 L 133.81139941929104,40 L 135.27865612009282,40 L 135.31026358916864,40 L 135.34867992346494,40 L 136.82552278977437,40 L 136.8614485128453,40 L 136.90841176479984,40 L 138.36885960038117,40 L 138.40974862783645,40 L 138.44932963644672,40 L 139.92412984319003,40 L 139.9570274130445,40 L 139.99458368015505,40 L 141.47221494138478,40 L 141.50550670869933,40 L 141.54388720686288,40 L 143.01832905227883,40 L 143.05692456723875,40 L 143.09851239928247,40 L 144.5680088583804,40 L 144.59873834220414,40 L 144.63577498538996,40 L 146.11749156575195,40 L 146.14506746989463,40 L 146.18273124540337,40 L 147.66174219774354,40 L 147.69709454269065,40 L 147.73613800930985,40 L 149.2109202979868,40 L 149.2484407289646,40 L 149.28834426276956,40 L 150.76319822371198,40 L 150.7903440942618,40 L 150.8291725440846,40 L 152.3100290572608,40 L 152.34659983072103,40 L 152.37921071151357,40 L 153.8534733762658,40 L 153.8869443242441,40 L 153.92548608500496,40 L 155.39890660063782,40 L 155.43950893903116,40 L 155.47665309061523,40 L 156.95046780370822,40 L 156.98110769720012,40 L 157.0155103846296,40 L 158.5047346348004,40 L 158.54212963931363,40 L 158.58421917721563,40 L 160.05161922254834,40 L 160.08501849826115,40 L 160.11841777397396,40 L 161.59624613393373,40 L 161.63333653131866,40 L 161.66981771444702,40 L 163.13775530177082,40 L 163.17803511496953,40 L 163.21637977700033,40 L 164.68463988951876,40 L 164.7249017846511,40 L 164.76908773631837,40 L 166.2472386214728,40 L 166.27925820607513,40 L 166.3206668574551,40 L 167.79148925346442,40 L 167.81915474793897,40 L 167.85422040382414,40 L 169.33522026153133,40 L 169.37182687112428,40 L 169.40895310464194,40 L 170.88411167271266,40 L 170.9160775031159,40 L 170.9574144822304,40 L 172.43189216377908,40 L 172.4640550929124,40 L 172.502148902014,40 L 173.9804968858985,40 L 174.01201476464252,40 L 174.04614868107646,40 L 175.52691560392083,56.563876651982376 L 175.5567491844261,56.563876651982376 L 177.0738001916688,56.563876651982376 L 177.11022762059804,56.563876651982376 L 177.14463030802753,56.563876651982376 L 178.62349791583677,56.563876651982376 L 178.6485832087541,56.563876651982376 L 178.69128196091268,56.563876651982376 L 180.18002242329152,56.563876651982376 L 180.21786537946394,56.563876651982376 L 181.72058193361102,56.563876651982376 L 181.76000167962397,56.563876651982376 L 181.81146236623727,56.563876651982376 L 183.27101429850012,56.563876651982376 L 183.3095918953937,56.563876651982376 L 183.33333333333334,56.563876651982376" fill="none" stroke="none"/>
  </g>
  <!-- 📊 Total Contributions Chart -->
  <g transform="translate(526.6666666666667, 250)">
    <!-- Chart Background -->
    <rect x="0" y="0" width="213.33333333333334" height="200" fill="#ffffff" stroke="#e2e8f0" stroke-width="1" rx="8" filter="url(#shadow)">
      <animate attributeName="opacity" values="0;1" dur="0.5s" begin="2.8s" fill="freeze"/>
    </rect>
    
    <!-- Chart Title -->
    <text x="106.66666666666667" y="25" text-anchor="middle" fill="#1e293b" font-size="14" font-weight="bold" font-family="Arial, sans-serif">
      📊 Total Contributions
      <animate attributeName="opacity" values="0;1" dur="0.5s" begin="3s" fill="freeze"/>
    </text>
    
    <!-- Y-axis labels -->
    <text x="10" y="45" fill="#64748b" font-size="10" font-family="Arial, sans-serif">5,314
      <animate attributeName="opacity" values="0;1" dur="0.5s" begin="3.1999999999999997s" fill="freeze"/>
    </text>
    <text x="10" y="185" fill="#64748b" font-size="10" font-family="Arial, sans-serif">4,408
      <animate attributeName="opacity" values="0;1" dur="0.5s" begin="3.1999999999999997s" fill="freeze"/>
    </text>
    
    <!-- Chart Line with draw animation that follows the circle -->
    <path d="M 30,160 L 30.029313956580552,92.58278145695365 L 30.059720915209645,92.58278145695365 L 31.554392257556778,92.58278145695365 L 31.575213050678173,92.58278145695365 L 31.603541513608402,92.58278145695365 L 33.096725656446864,92.58278145695365 L 33.11665054624978,92.58278145695365 L 33.154726437285035,92.58278145695365 L 34.64705051293776,92.58278145695365 L 34.675844845593595,92.58278145695365 L 34.700195497789785,92.58278145695365 L 36.1891151408323,92.58278145695365 L 36.221743939691216,92.58278145695365 L 36.25349475329803,92.58278145695365 L 37.74438538364119,92.58278145695365 L 37.75938280519249,92.58278145695365 L 37.79778122142239,92.58278145695365 L 39.29216587470761,92.58278145695365 L 39.32214279974384,92.58278145695365 L 39.35711886529716,92.58278145695365 L 40.84021513676957,92.58278145695365 L 40.86668012079737,92.58278145695365 L 40.90251625353643,92.58278145695365 L 42.38548709854426,92.58278145695365 L 42.41549985971323,92.58278145695365 L 42.448791627027816,92.58278145695365 L 43.93706621968103,92.58278145695365 L 43.95892626065185,92.58278145695365 L 43.98996035160388,92.58278145695365 L 45.480833063880674,92.58278145695365 L 45.50573917613432,92.58278145695365 L 45.53786626913489,92.58278145695365 L 47.03185672495998,92.58278145695365 L 47.06124235380601,92.58278145695365 L 47.08688310678081,92.58278145695365 L 48.5788129849734,92.58278145695365 L 48.61163888256239,92.58278145695365 L 48.63455608944901,92.58278145695365 L 50.12894074273423,92.58278145695365 L 50.15782466572192,92.58278145695365 L 50.19108059690377,92.58278145695365 L 51.67756338292003,92.58278145695365 L 51.7057485013193,92.58278145695365 L 51.739774909355035,92.58278145695365 L 53.22477049586262,92.58278145695365 L 53.250429166903785,92.58278145695365 L 53.28244875150614,92.58278145695365 L 54.77428903936689,92.58278145695365 L 54.80227705903609,92.58278145695365 L 54.834726677231316,92.58278145695365 L 56.318521753292146,92.58278145695365 L 56.35613177460179,92.58278145695365 L 56.377902225240774,92.58278145695365 L 57.8668756224824,92.58278145695365 L 57.89617166099657,92.58278145695365 L 57.9253243549798,92.58278145695365 L 59.41085748347847,92.58278145695365 L 59.443181675209104,92.58278145695365 L 59.470202119294356,92.58278145695365 L 60.55037483231514,92.58278145695365 L 60.965590184296275,92.58278145695365 L 60.99771727729684,92.58278145695365 L 61.031564504668886,92.58278145695365 L 62.51353193796002,92.58278145695365 L 62.54162746602745,92.58278145695365 L 62.574525035881905,92.58278145695365 L 64.0597535572523,92.58278145695365 L 64.08141649949306,92.58278145695365 L 64.11775433809046,92.58278145695365 L 65.6099529872786,92.58278145695365 L 65.6370092674966,92.58278145695365 L 65.66847339204149,92.58278145695365 L 67.15816351193789,92.58278145695365 L 67.19064896626585,92.58278145695365 L 67.22411991424414,92.58278145695365 L 68.70440304929653,92.58278145695365 L 68.73206854377109,92.58278145695365 L 68.76849597270035,92.58278145695365 L 70.25684223761903,92.58278145695365 L 70.2804403310277,92.58278145695365 L 70.30950343467909,92.58278145695365 L 71.8036551531015,92.58278145695365 L 71.83716193721253,92.58278145695365 L 71.86853647142559,92.58278145695365 L 73.35088018411048,92.58278145695365 L 73.3810362898104,92.58278145695365 L 73.41490143524881,92.58278145695365 L 74.89681511434084,92.58278145695365 L 74.92621866125323,92.58278145695365 L 74.95936708403687,92.58278145695365 L 76.4481613006148,92.58278145695365 L 76.47564761442565,92.58278145695365 L 76.50376106055944,92.58278145695365 L 77.99452626443801,92.58278145695365 L 78.02231718537716,92.58278145695365 L 78.05571646108996,92.58278145695365 L 79.5337419197798,92.58278145695365 L 79.57054562810282,92.58278145695365 L 79.60141845645754,92.58278145695365 L 81.0899439020399,92.58278145695365 L 81.11167851654615,92.58278145695365 L 81.1507578192981,92.58278145695365 L 82.63991039720341,92.58278145695365 L 82.67257503219507,92.58278145695365 L 82.70699563769094,92.58278145695365 L 84.19023525369431,92.58278145695365 L 84.22012258839868,92.58278145695365 L 84.25178381167365,92.58278145695365 L 85.72918213804056,92.58278145695365 L 85.76164967430213,92.58278145695365 L 85.79402762023187,92.58278145695365 L 87.28208719608867,92.58278145695365 L 87.31247623665138,92.58278145695365 L 87.34720144927553,92.58278145695365 L 88.83069191820809,92.58278145695365 L 88.85866201981091,92.58278145695365 L 88.88953484816562,92.58278145695365 L 90.3799416907168,92.58278145695365 L 90.39986658051973,92.58278145695365 L 90.44878290170854,92.58278145695365 L 91.92542866928792,92.58278145695365 L 91.95558477498784,92.58278145695365 L 91.98532876516127,92.58278145695365 L 93.47641649423448,92.58278145695365 L 93.51065791906666,92.58278145695365 L 93.54181743648329,92.58278145695365 L 95.02378486977442,92.58278145695365 L 95.05394097547435,92.58278145695365 L 95.08870202423122,92.58278145695365 L 96.56979147227025,92.58278145695365 L 96.59942795404547,92.58278145695365 L 96.62643048006434,92.58278145695365 L 98.12025967329211,92.58278145695365 L 98.15088164871764,92.58278145695365 L 98.182417445528,92.58278145695365 L 99.67303930487563,92.58278145695365 L 99.70185155559784,92.58278145695365 L 99.73026960885991,92.58278145695365 L 101.21535478569935,92.58278145695365 L 101.24615594178857,40 L 101.2782471986564,40 L 102.76926325546414,40 L 102.790639508643,40 L 102.82011472782088,40 L 104.31351388745577,40 L 104.33741658799272,40 L 104.37982865108941,40 L 105.86348038261927,40 L 105.89496242523055,40 L 105.92261000163873,40 L 107.40532999371739,40 L 107.43982227147873,40 L 107.4735978265853,40 L 108.96298333935341,40 L 108.97824953190026,40 L 109.0196223471475,40 L 110.50800444819893,40 L 110.54063324705784,40 L 110.57749070957998,40 L 112.05625080899097,40 L 112.08699821088108,40 L 112.12640003882767,40 L 113.60198864049126,40 L 113.63468911161566,40 L 113.6728366749164,40 L 115.15869232860972,40 L 115.19511975753896,40 L 116.70086446490247,40 L 116.7774641986322,40 L 118.24923625215908,40 L 118.28731214319434,40 L 118.32345288306168,40 L 119.79698090709276,40 L 119.83709945769414,40 L 119.8647111979696,40 L 121.34838084756583,40 L 121.38195930394234,40 L 121.41965891558382,40 L 122.89105468971694,40 L 122.92461522802706,40 L 122.96236859386768,40 L 124.44154080880517,40 L 124.47452796899147,40 L 124.50991615007129,40 L 125.99512675337532,40 L 126.03847055592321,40 L 127.57748911253493,40 L 127.61852148452115,40 L 129.09486264497224,40 L 129.12869195427794,40 L 130.64703306229922,40 L 130.6758453130214,40 L 130.72329235276794,40 L 132.18329223669002,40 L 132.21626147880997,40 L 132.25156006955797,40 L 133.7332766499199,40 L 133.77226636234,40 L 133.81139941929104,40 L 135.27865612009282,40 L 135.31026358916864,40 L 135.34867992346494,40 L 136.82552278977437,40 L 136.8614485128453,40 L 136.90841176479984,40 L 138.36885960038117,40 L 138.40974862783645,40 L 138.44932963644672,40 L 139.92412984319003,40 L 139.9570274130445,40 L 139.99458368015505,40 L 141.47221494138478,40 L 141.50550670869933,40 L 141.54388720686288,40 L 143.01832905227883,40 L 143.05692456723875,40 L 143.09851239928247,40 L 144.5680088583804,40 L 144.59873834220414,40 L 144.63577498538996,40 L 146.11749156575195,40 L 146.14506746989463,40 L 146.18273124540337,40 L 147.66174219774354,40 L 147.69709454269065,40 L 147.73613800930985,40 L 149.2109202979868,40 L 149.2484407289646,40 L 149.28834426276956,40 L 150.76319822371198,40 L 150.7903440942618,40 L 150.8291725440846,40 L 152.3100290572608,40 L 152.34659983072103,40 L 152.37921071151357,40 L 153.8534733762658,40 L 153.8869443242441,40 L 153.92548608500496,40 L 155.39890660063782,40 L 155.43950893903116,40 L 155.47665309061523,40 L 156.95046780370822,40 L 156.98110769720012,40 L 157.0155103846296,40 L 158.5047346348004,40 L 158.54212963931363,40 L 158.58421917721563,40 L 160.05161922254834,40 L 160.08501849826115,40 L 160.11841777397396,40 L 161.59624613393373,40 L 161.63333653131866,40 L 161.66981771444702,40 L 163.13775530177082,40 L 163.17803511496953,40 L 163.21637977700033,40 L 164.68463988951876,40 L 164.7249017846511,40 L 164.76908773631837,40 L 166.2472386214728,40 L 166.27925820607513,40 L 166.3206668574551,40 L 167.79148925346442,40 L 167.81915474793897,40 L 167.85422040382414,40 L 169.33522026153133,40 L 169.37182687112428,40 L 169.40895310464194,40 L 170.88411167271266,40 L 170.9160775031159,40 L 170.9574144822304,40 L 172.43189216377908,40 L 172.4640550929124,40 L 172.502148902014,40 L 173.9804968858985,40 L 174.01201476464252,40 L 174.04614868107646,40 L 175.52691560392083,54.039735099337754 L 175.5567491844261,54.039735099337754 L 177.0738001916688,54.039735099337754 L 177.11022762059804,54.039735099337754 L 177.14463030802753,54.039735099337754 L 178.62349791583677,54.039735099337754 L 178.6485832087541,54.039735099337754 L 178.69128196091268,54.039735099337754 L 180.18002242329152,54.039735099337754 L 180.21786537946394,54.039735099337754 L 181.72058193361102,54.039735099337754 L 181.76000167962397,54.039735099337754 L 181.81146236623727,54.039735099337754 L 183.27101429850012,54.039735099337754 L 183.3095918953937,54.039735099337754 L 183.33333333333334,54.039735099337754" stroke="#f59e0b" stroke-width="2" fill="none" stroke-dasharray="14700" stroke-dashoffset="14700">
      <animate attributeName="stroke-dashoffset" values="14700;0" dur="3s" begin="3.5999999999999996s" fill="freeze"/>
    </path>
    
    <!-- Glow effect for the line that also follows the circle -->
    <path d="M 30,160 L 30.029313956580552,92.58278145695365 L 30.059720915209645,92.58278145695365 L 31.554392257556778,92.58278145695365 L 31.575213050678173,92.58278145695365 L 31.603541513608402,92.58278145695365 L 33.096725656446864,92.58278145695365 L 33.11665054624978,92.58278145695365 L 33.154726437285035,92.58278145695365 L 34.64705051293776,92.58278145695365 L 34.675844845593595,92.58278145695365 L 34.700195497789785,92.58278145695365 L 36.1891151408323,92.58278145695365 L 36.221743939691216,92.58278145695365 L 36.25349475329803,92.58278145695365 L 37.74438538364119,92.58278145695365 L 37.75938280519249,92.58278145695365 L 37.79778122142239,92.58278145695365 L 39.29216587470761,92.58278145695365 L 39.32214279974384,92.58278145695365 L 39.35711886529716,92.58278145695365 L 40.84021513676957,92.58278145695365 L 40.86668012079737,92.58278145695365 L 40.90251625353643,92.58278145695365 L 42.38548709854426,92.58278145695365 L 42.41549985971323,92.58278145695365 L 42.448791627027816,92.58278145695365 L 43.93706621968103,92.58278145695365 L 43.95892626065185,92.58278145695365 L 43.98996035160388,92.58278145695365 L 45.480833063880674,92.58278145695365 L 45.50573917613432,92.58278145695365 L 45.53786626913489,92.58278145695365 L 47.03185672495998,92.58278145695365 L 47.06124235380601,92.58278145695365 L 47.08688310678081,92.58278145695365 L 48.5788129849734,92.58278145695365 L 48.61163888256239,92.58278145695365 L 48.63455608944901,92.58278145695365 L 50.12894074273423,92.58278145695365 L 50.15782466572192,92.58278145695365 L 50.19108059690377,92.58278145695365 L 51.67756338292003,92.58278145695365 L 51.7057485013193,92.58278145695365 L 51.739774909355035,92.58278145695365 L 53.22477049586262,92.58278145695365 L 53.250429166903785,92.58278145695365 L 53.28244875150614,92.58278145695365 L 54.77428903936689,92.58278145695365 L 54.80227705903609,92.58278145695365 L 54.834726677231316,92.58278145695365 L 56.318521753292146,92.58278145695365 L 56.35613177460179,92.58278145695365 L 56.377902225240774,92.58278145695365 L 57.8668756224824,92.58278145695365 L 57.89617166099657,92.58278145695365 L 57.9253243549798,92.58278145695365 L 59.41085748347847,92.58278145695365 L 59.443181675209104,92.58278145695365 L 59.470202119294356,92.58278145695365 L 60.55037483231514,92.58278145695365 L 60.965590184296275,92.58278145695365 L 60.99771727729684,92.58278145695365 L 61.031564504668886,92.58278145695365 L 62.51353193796002,92.58278145695365 L 62.54162746602745,92.58278145695365 L 62.574525035881905,92.58278145695365 L 64.0597535572523,92.58278145695365 L 64.08141649949306,92.58278145695365 L 64.11775433809046,92.58278145695365 L 65.6099529872786,92.58278145695365 L 65.6370092674966,92.58278145695365 L 65.66847339204149,92.58278145695365 L 67.15816351193789,92.58278145695365 L 67.19064896626585,92.58278145695365 L 67.22411991424414,92.58278145695365 L 68.70440304929653,92.58278145695365 L 68.73206854377109,92.58278145695365 L 68.76849597270035,92.58278145695365 L 70.25684223761903,92.58278145695365 L 70.2804403310277,92.58278145695365 L 70.30950343467909,92.58278145695365 L 71.8036551531015,92.58278145695365 L 71.83716193721253,92.58278145695365 L 71.86853647142559,92.58278145695365 L 73.35088018411048,92.58278145695365 L 73.3810362898104,92.58278145695365 L 73.41490143524881,92.58278145695365 L 74.89681511434084,92.58278145695365 L 74.92621866125323,92.58278145695365 L 74.95936708403687,92.58278145695365 L 76.4481613006148,92.58278145695365 L 76.47564761442565,92.58278145695365 L 76.50376106055944,92.58278145695365 L 77.99452626443801,92.58278145695365 L 78.02231718537716,92.58278145695365 L 78.05571646108996,92.58278145695365 L 79.5337419197798,92.58278145695365 L 79.57054562810282,92.58278145695365 L 79.60141845645754,92.58278145695365 L 81.0899439020399,92.58278145695365 L 81.11167851654615,92.58278145695365 L 81.1507578192981,92.58278145695365 L 82.63991039720341,92.58278145695365 L 82.67257503219507,92.58278145695365 L 82.70699563769094,92.58278145695365 L 84.19023525369431,92.58278145695365 L 84.22012258839868,92.58278145695365 L 84.25178381167365,92.58278145695365 L 85.72918213804056,92.58278145695365 L 85.76164967430213,92.58278145695365 L 85.79402762023187,92.58278145695365 L 87.28208719608867,92.58278145695365 L 87.31247623665138,92.58278145695365 L 87.34720144927553,92.58278145695365 L 88.83069191820809,92.58278145695365 L 88.85866201981091,92.58278145695365 L 88.88953484816562,92.58278145695365 L 90.3799416907168,92.58278145695365 L 90.39986658051973,92.58278145695365 L 90.44878290170854,92.58278145695365 L 91.92542866928792,92.58278145695365 L 91.95558477498784,92.58278145695365 L 91.98532876516127,92.58278145695365 L 93.47641649423448,92.58278145695365 L 93.51065791906666,92.58278145695365 L 93.54181743648329,92.58278145695365 L 95.02378486977442,92.58278145695365 L 95.05394097547435,92.58278145695365 L 95.08870202423122,92.58278145695365 L 96.56979147227025,92.58278145695365 L 96.59942795404547,92.58278145695365 L 96.62643048006434,92.58278145695365 L 98.12025967329211,92.58278145695365 L 98.15088164871764,92.58278145695365 L 98.182417445528,92.58278145695365 L 99.67303930487563,92.58278145695365 L 99.70185155559784,92.58278145695365 L 99.73026960885991,92.58278145695365 L 101.21535478569935,92.58278145695365 L 101.24615594178857,40 L 101.2782471986564,40 L 102.76926325546414,40 L 102.790639508643,40 L 102.82011472782088,40 L 104.31351388745577,40 L 104.33741658799272,40 L 104.37982865108941,40 L 105.86348038261927,40 L 105.89496242523055,40 L 105.92261000163873,40 L 107.40532999371739,40 L 107.43982227147873,40 L 107.4735978265853,40 L 108.96298333935341,40 L 108.97824953190026,40 L 109.0196223471475,40 L 110.50800444819893,40 L 110.54063324705784,40 L 110.57749070957998,40 L 112.05625080899097,40 L 112.08699821088108,40 L 112.12640003882767,40 L 113.60198864049126,40 L 113.63468911161566,40 L 113.6728366749164,40 L 115.15869232860972,40 L 115.19511975753896,40 L 116.70086446490247,40 L 116.7774641986322,40 L 118.24923625215908,40 L 118.28731214319434,40 L 118.32345288306168,40 L 119.79698090709276,40 L 119.83709945769414,40 L 119.8647111979696,40 L 121.34838084756583,40 L 121.38195930394234,40 L 121.41965891558382,40 L 122.89105468971694,40 L 122.92461522802706,40 L 122.96236859386768,40 L 124.44154080880517,40 L 124.47452796899147,40 L 124.50991615007129,40 L 125.99512675337532,40 L 126.03847055592321,40 L 127.57748911253493,40 L 127.61852148452115,40 L 129.09486264497224,40 L 129.12869195427794,40 L 130.64703306229922,40 L 130.6758453130214,40 L 130.72329235276794,40 L 132.18329223669002,40 L 132.21626147880997,40 L 132.25156006955797,40 L 133.7332766499199,40 L 133.77226636234,40 L 133.81139941929104,40 L 135.27865612009282,40 L 135.31026358916864,40 L 135.34867992346494,40 L 136.82552278977437,40 L 136.8614485128453,40 L 136.90841176479984,40 L 138.36885960038117,40 L 138.40974862783645,40 L 138.44932963644672,40 L 139.92412984319003,40 L 139.9570274130445,40 L 139.99458368015505,40 L 141.47221494138478,40 L 141.50550670869933,40 L 141.54388720686288,40 L 143.01832905227883,40 L 143.05692456723875,40 L 143.09851239928247,40 L 144.5680088583804,40 L 144.59873834220414,40 L 144.63577498538996,40 L 146.11749156575195,40 L 146.14506746989463,40 L 146.18273124540337,40 L 147.66174219774354,40 L 147.69709454269065,40 L 147.73613800930985,40 L 149.2109202979868,40 L 149.2484407289646,40 L 149.28834426276956,40 L 150.76319822371198,40 L 150.7903440942618,40 L 150.8291725440846,40 L 152.3100290572608,40 L 152.34659983072103,40 L 152.37921071151357,40 L 153.8534733762658,40 L 153.8869443242441,40 L 153.92548608500496,40 L 155.39890660063782,40 L 155.43950893903116,40 L 155.47665309061523,40 L 156.95046780370822,40 L 156.98110769720012,40 L 157.0155103846296,40 L 158.5047346348004,40 L 158.54212963931363,40 L 158.58421917721563,40 L 160.05161922254834,40 L 160.08501849826115,40 L 160.11841777397396,40 L 161.59624613393373,40 L 161.63333653131866,40 L 161.66981771444702,40 L 163.13775530177082,40 L 163.17803511496953,40 L 163.21637977700033,40 L 164.68463988951876,40 L 164.7249017846511,40 L 164.76908773631837,40 L 166.2472386214728,40 L 166.27925820607513,40 L 166.3206668574551,40 L 167.79148925346442,40 L 167.81915474793897,40 L 167.85422040382414,40 L 169.33522026153133,40 L 169.37182687112428,40 L 169.40895310464194,40 L 170.88411167271266,40 L 170.9160775031159,40 L 170.9574144822304,40 L 172.43189216377908,40 L 172.4640550929124,40 L 172.502148902014,40 L 173.9804968858985,40 L 174.01201476464252,40 L 174.04614868107646,40 L 175.52691560392083,54.039735099337754 L 175.5567491844261,54.039735099337754 L 177.0738001916688,54.039735099337754 L 177.11022762059804,54.039735099337754 L 177.14463030802753,54.039735099337754 L 178.62349791583677,54.039735099337754 L 178.6485832087541,54.039735099337754 L 178.69128196091268,54.039735099337754 L 180.18002242329152,54.039735099337754 L 180.21786537946394,54.039735099337754 L 181.72058193361102,54.039735099337754 L 181.76000167962397,54.039735099337754 L 181.81146236623727,54.039735099337754 L 183.27101429850012,54.039735099337754 L 183.3095918953937,54.039735099337754 L 183.33333333333334,54.039735099337754" stroke="#f59e0b" stroke-width="4" fill="none" opacity="0.4" stroke-dasharray="14700" stroke-dashoffset="14700">
      <animate attributeName="stroke-dashoffset" values="14700;0" dur="3s" begin="3.5999999999999996s" fill="freeze"/>
    </path>
    
    <!-- Animated circle that moves along the path and draws the line -->
    <circle r="5" fill="#f59e0b" opacity="0" filter="url(#trailGlow)">
      <animate attributeName="opacity" values="0;1;1;1" dur="3.2s" begin="3.4s" fill="freeze"/>
      <animate attributeName="r" values="5;6;5" dur="1s" begin="3.4s" repeatCount="3"/>
      <animateMotion dur="3s" begin="3.4s" fill="freeze">
        <mpath href="#path_totalContributions_526.6666666666667"/>
      </animateMotion>
    </circle>
    
    <!-- Small trail dots that fade out -->
    <circle r="2" fill="#f59e0b" opacity="0">
      <animate attributeName="opacity" values="0;0.6;0" dur="0.8s" begin="3.8s" fill="freeze"/>
      <animateMotion dur="3s" begin="3.4s" fill="freeze">
        <mpath href="#path_totalContributions_526.6666666666667"/>
      </animateMotion>
    </circle>
    
    <!-- Hidden path for motion animation -->
    <path id="path_totalContributions_526.6666666666667" d="M 30,160 L 30.029313956580552,92.58278145695365 L 30.059720915209645,92.58278145695365 L 31.554392257556778,92.58278145695365 L 31.575213050678173,92.58278145695365 L 31.603541513608402,92.58278145695365 L 33.096725656446864,92.58278145695365 L 33.11665054624978,92.58278145695365 L 33.154726437285035,92.58278145695365 L 34.64705051293776,92.58278145695365 L 34.675844845593595,92.58278145695365 L 34.700195497789785,92.58278145695365 L 36.1891151408323,92.58278145695365 L 36.221743939691216,92.58278145695365 L 36.25349475329803,92.58278145695365 L 37.74438538364119,92.58278145695365 L 37.75938280519249,92.58278145695365 L 37.79778122142239,92.58278145695365 L 39.29216587470761,92.58278145695365 L 39.32214279974384,92.58278145695365 L 39.35711886529716,92.58278145695365 L 40.84021513676957,92.58278145695365 L 40.86668012079737,92.58278145695365 L 40.90251625353643,92.58278145695365 L 42.38548709854426,92.58278145695365 L 42.41549985971323,92.58278145695365 L 42.448791627027816,92.58278145695365 L 43.93706621968103,92.58278145695365 L 43.95892626065185,92.58278145695365 L 43.98996035160388,92.58278145695365 L 45.480833063880674,92.58278145695365 L 45.50573917613432,92.58278145695365 L 45.53786626913489,92.58278145695365 L 47.03185672495998,92.58278145695365 L 47.06124235380601,92.58278145695365 L 47.08688310678081,92.58278145695365 L 48.5788129849734,92.58278145695365 L 48.61163888256239,92.58278145695365 L 48.63455608944901,92.58278145695365 L 50.12894074273423,92.58278145695365 L 50.15782466572192,92.58278145695365 L 50.19108059690377,92.58278145695365 L 51.67756338292003,92.58278145695365 L 51.7057485013193,92.58278145695365 L 51.739774909355035,92.58278145695365 L 53.22477049586262,92.58278145695365 L 53.250429166903785,92.58278145695365 L 53.28244875150614,92.58278145695365 L 54.77428903936689,92.58278145695365 L 54.80227705903609,92.58278145695365 L 54.834726677231316,92.58278145695365 L 56.318521753292146,92.58278145695365 L 56.35613177460179,92.58278145695365 L 56.377902225240774,92.58278145695365 L 57.8668756224824,92.58278145695365 L 57.89617166099657,92.58278145695365 L 57.9253243549798,92.58278145695365 L 59.41085748347847,92.58278145695365 L 59.443181675209104,92.58278145695365 L 59.470202119294356,92.58278145695365 L 60.55037483231514,92.58278145695365 L 60.965590184296275,92.58278145695365 L 60.99771727729684,92.58278145695365 L 61.031564504668886,92.58278145695365 L 62.51353193796002,92.58278145695365 L 62.54162746602745,92.58278145695365 L 62.574525035881905,92.58278145695365 L 64.0597535572523,92.58278145695365 L 64.08141649949306,92.58278145695365 L 64.11775433809046,92.58278145695365 L 65.6099529872786,92.58278145695365 L 65.6370092674966,92.58278145695365 L 65.66847339204149,92.58278145695365 L 67.15816351193789,92.58278145695365 L 67.19064896626585,92.58278145695365 L 67.22411991424414,92.58278145695365 L 68.70440304929653,92.58278145695365 L 68.73206854377109,92.58278145695365 L 68.76849597270035,92.58278145695365 L 70.25684223761903,92.58278145695365 L 70.2804403310277,92.58278145695365 L 70.30950343467909,92.58278145695365 L 71.8036551531015,92.58278145695365 L 71.83716193721253,92.58278145695365 L 71.86853647142559,92.58278145695365 L 73.35088018411048,92.58278145695365 L 73.3810362898104,92.58278145695365 L 73.41490143524881,92.58278145695365 L 74.89681511434084,92.58278145695365 L 74.92621866125323,92.58278145695365 L 74.95936708403687,92.58278145695365 L 76.4481613006148,92.58278145695365 L 76.47564761442565,92.58278145695365 L 76.50376106055944,92.58278145695365 L 77.99452626443801,92.58278145695365 L 78.02231718537716,92.58278145695365 L 78.05571646108996,92.58278145695365 L 79.5337419197798,92.58278145695365 L 79.57054562810282,92.58278145695365 L 79.60141845645754,92.58278145695365 L 81.0899439020399,92.58278145695365 L 81.11167851654615,92.58278145695365 L 81.1507578192981,92.58278145695365 L 82.63991039720341,92.58278145695365 L 82.67257503219507,92.58278145695365 L 82.70699563769094,92.58278145695365 L 84.19023525369431,92.58278145695365 L 84.22012258839868,92.58278145695365 L 84.25178381167365,92.58278145695365 L 85.72918213804056,92.58278145695365 L 85.76164967430213,92.58278145695365 L 85.79402762023187,92.58278145695365 L 87.28208719608867,92.58278145695365 L 87.31247623665138,92.58278145695365 L 87.34720144927553,92.58278145695365 L 88.83069191820809,92.58278145695365 L 88.85866201981091,92.58278145695365 L 88.88953484816562,92.58278145695365 L 90.3799416907168,92.58278145695365 L 90.39986658051973,92.58278145695365 L 90.44878290170854,92.58278145695365 L 91.92542866928792,92.58278145695365 L 91.95558477498784,92.58278145695365 L 91.98532876516127,92.58278145695365 L 93.47641649423448,92.58278145695365 L 93.51065791906666,92.58278145695365 L 93.54181743648329,92.58278145695365 L 95.02378486977442,92.58278145695365 L 95.05394097547435,92.58278145695365 L 95.08870202423122,92.58278145695365 L 96.56979147227025,92.58278145695365 L 96.59942795404547,92.58278145695365 L 96.62643048006434,92.58278145695365 L 98.12025967329211,92.58278145695365 L 98.15088164871764,92.58278145695365 L 98.182417445528,92.58278145695365 L 99.67303930487563,92.58278145695365 L 99.70185155559784,92.58278145695365 L 99.73026960885991,92.58278145695365 L 101.21535478569935,92.58278145695365 L 101.24615594178857,40 L 101.2782471986564,40 L 102.76926325546414,40 L 102.790639508643,40 L 102.82011472782088,40 L 104.31351388745577,40 L 104.33741658799272,40 L 104.37982865108941,40 L 105.86348038261927,40 L 105.89496242523055,40 L 105.92261000163873,40 L 107.40532999371739,40 L 107.43982227147873,40 L 107.4735978265853,40 L 108.96298333935341,40 L 108.97824953190026,40 L 109.0196223471475,40 L 110.50800444819893,40 L 110.54063324705784,40 L 110.57749070957998,40 L 112.05625080899097,40 L 112.08699821088108,40 L 112.12640003882767,40 L 113.60198864049126,40 L 113.63468911161566,40 L 113.6728366749164,40 L 115.15869232860972,40 L 115.19511975753896,40 L 116.70086446490247,40 L 116.7774641986322,40 L 118.24923625215908,40 L 118.28731214319434,40 L 118.32345288306168,40 L 119.79698090709276,40 L 119.83709945769414,40 L 119.8647111979696,40 L 121.34838084756583,40 L 121.38195930394234,40 L 121.41965891558382,40 L 122.89105468971694,40 L 122.92461522802706,40 L 122.96236859386768,40 L 124.44154080880517,40 L 124.47452796899147,40 L 124.50991615007129,40 L 125.99512675337532,40 L 126.03847055592321,40 L 127.57748911253493,40 L 127.61852148452115,40 L 129.09486264497224,40 L 129.12869195427794,40 L 130.64703306229922,40 L 130.6758453130214,40 L 130.72329235276794,40 L 132.18329223669002,40 L 132.21626147880997,40 L 132.25156006955797,40 L 133.7332766499199,40 L 133.77226636234,40 L 133.81139941929104,40 L 135.27865612009282,40 L 135.31026358916864,40 L 135.34867992346494,40 L 136.82552278977437,40 L 136.8614485128453,40 L 136.90841176479984,40 L 138.36885960038117,40 L 138.40974862783645,40 L 138.44932963644672,40 L 139.92412984319003,40 L 139.9570274130445,40 L 139.99458368015505,40 L 141.47221494138478,40 L 141.50550670869933,40 L 141.54388720686288,40 L 143.01832905227883,40 L 143.05692456723875,40 L 143.09851239928247,40 L 144.5680088583804,40 L 144.59873834220414,40 L 144.63577498538996,40 L 146.11749156575195,40 L 146.14506746989463,40 L 146.18273124540337,40 L 147.66174219774354,40 L 147.69709454269065,40 L 147.73613800930985,40 L 149.2109202979868,40 L 149.2484407289646,40 L 149.28834426276956,40 L 150.76319822371198,40 L 150.7903440942618,40 L 150.8291725440846,40 L 152.3100290572608,40 L 152.34659983072103,40 L 152.37921071151357,40 L 153.8534733762658,40 L 153.8869443242441,40 L 153.92548608500496,40 L 155.39890660063782,40 L 155.43950893903116,40 L 155.47665309061523,40 L 156.95046780370822,40 L 156.98110769720012,40 L 157.0155103846296,40 L 158.5047346348004,40 L 158.54212963931363,40 L 158.58421917721563,40 L 160.05161922254834,40 L 160.08501849826115,40 L 160.11841777397396,40 L 161.59624613393373,40 L 161.63333653131866,40 L 161.66981771444702,40 L 163.13775530177082,40 L 163.17803511496953,40 L 163.21637977700033,40 L 164.68463988951876,40 L 164.7249017846511,40 L 164.76908773631837,40 L 166.2472386214728,40 L 166.27925820607513,40 L 166.3206668574551,40 L 167.79148925346442,40 L 167.81915474793897,40 L 167.85422040382414,40 L 169.33522026153133,40 L 169.37182687112428,40 L 169.40895310464194,40 L 170.88411167271266,40 L 170.9160775031159,40 L 170.9574144822304,40 L 172.43189216377908,40 L 172.4640550929124,40 L 172.502148902014,40 L 173.9804968858985,40 L 174.01201476464252,40 L 174.04614868107646,40 L 175.52691560392083,54.039735099337754 L 175.5567491844261,54.039735099337754 L 177.0738001916688,54.039735099337754 L 177.11022762059804,54.039735099337754 L 177.14463030802753,54.039735099337754 L 178.62349791583677,54.039735099337754 L 178.6485832087541,54.039735099337754 L 178.69128196091268,54.039735099337754 L 180.18002242329152,54.039735099337754 L 180.21786537946394,54.039735099337754 L 181.72058193361102,54.039735099337754 L 181.76000167962397,54.039735099337754 L 181.81146236623727,54.039735099337754 L 183.27101429850012,54.039735099337754 L 183.3095918953937,54.039735099337754 L 183.33333333333334,54.039735099337754" fill="none" stroke="none"/>
  </g>
  
  <!-- Footer -->
  <text x="400" y="580" text-anchor="middle" fill="#94a3b8" font-size="12" font-family="Arial, sans-serif">
    Generated by GitHub User Rank Tracker • 3/17/2026
    <animate attributeName="opacity" values="0;1" dur="0.5s" begin="5s" fill="freeze"/>
  </text>
</svg>