<svg width="800" height="600" xmlns="http://www.w3.org/2000/svg">
  <defs>
    <linearGradient id="bgGradient" x1="0%" y1="0%" x2="100%" y2="100%">
      <stop offset="0%" style="stop-color:#1e293b;stop-opacity:1" />
      <stop offset="100%" style="stop-color:#0f172a;stop-opacity:1" />
    </linearGradient>
    <filter id="shadow" x="-20%" y="-20%" width="140%" height="140%">
      <feDropShadow dx="2" dy="2" stdDeviation="3" flood-color="#000" flood-opacity="0.3"/>
    </filter>
    <!-- Trail effect filter -->
    <filter id="trailGlow" x="-50%" y="-50%" width="200%" height="200%">
      <feGaussianBlur stdDeviation="3" result="coloredBlur"/>
      <feMerge> 
        <feMergeNode in="coloredBlur"/>
        <feMergeNode in="SourceGraphic"/>
      </feMerge>
    </filter>
  </defs>
  
  <!-- Background -->
  <rect width="800" height="600" fill="url(#bgGradient)" rx="12"/>
  
  <!-- Header -->
  <text x="400" y="40" text-anchor="middle" fill="#f8fafc" font-size="24" font-weight="bold" font-family="Arial, sans-serif">
    GitHub Progress Report
    <animate attributeName="opacity" values="0;1" dur="0.8s" begin="0s" fill="freeze"/>
    <animateTransform attributeName="transform" type="translate" values="0,-20;0,0" dur="0.8s" begin="0s" fill="freeze"/>
  </text>
  
  <!-- User Info -->
  <text x="400" y="70" text-anchor="middle" fill="#cbd5e1" font-size="16" font-family="Arial, sans-serif">
    @maifeeulasad • BANGLADESH • 100 days analyzed
    <animate attributeName="opacity" values="0;1" dur="0.6s" begin="0.3s" fill="freeze"/>
  </text>
  
  <!-- Progress Cards -->
  <!-- Followers Card -->
  <g transform="translate(60, 100)">
    <rect width="206.66666666666666" height="120" fill="#1e293b" stroke="#334155" stroke-width="1" rx="8" filter="url(#shadow)">
      <animate attributeName="opacity" values="0;1" dur="0.6s" begin="0.2s" fill="freeze"/>
      <animateTransform attributeName="transform" type="scale" values="0.8;1" dur="0.6s" begin="0.2s" fill="freeze"/>
    </rect>
    <text x="103.33333333333333" y="25" text-anchor="middle" fill="#94a3b8" font-size="14" font-weight="bold" font-family="Arial, sans-serif">FOLLOWERS
      <animate attributeName="opacity" values="0;1" dur="0.5s" begin="0.4s" fill="freeze"/>
    </text>
    
    <text x="103.33333333333333" y="50" text-anchor="middle" fill="#22c55e" font-size="32" font-weight="bold" font-family="Arial, sans-serif">
      ↗
      <animate attributeName="opacity" values="0;1" dur="0.5s" begin="0.6s" fill="freeze"/>
      <animateTransform attributeName="transform" type="scale" values="0;1.2;1" dur="0.8s" begin="0.6s" fill="freeze"/>
    </text>
    
    <text x="103.33333333333333" y="75" text-anchor="middle" fill="#f8fafc" font-size="18" font-weight="bold" font-family="Arial, sans-serif">
      +6
      <animate attributeName="opacity" values="0;1" dur="0.5s" begin="0.8s" fill="freeze"/>
    </text>
    
    <text x="103.33333333333333" y="95" text-anchor="middle" fill="#94a3b8" font-size="12" font-family="Arial, sans-serif">
      #464 → #458
      <animate attributeName="opacity" values="0;1" dur="0.5s" begin="1s" fill="freeze"/>
    </text>
  </g>
  
  <!-- Public Contributions Card -->
  <g transform="translate(296.66666666666663, 100)">
    <rect width="206.66666666666666" height="120" fill="#1e293b" stroke="#334155" stroke-width="1" rx="8" filter="url(#shadow)">
      <animate attributeName="opacity" values="0;1" dur="0.6s" begin="0.4s" fill="freeze"/>
      <animateTransform attributeName="transform" type="scale" values="0.8;1" dur="0.6s" begin="0.4s" fill="freeze"/>
    </rect>
    <text x="103.33333333333333" y="25" text-anchor="middle" fill="#94a3b8" font-size="14" font-weight="bold" font-family="Arial, sans-serif">PUBLIC
      <animate attributeName="opacity" values="0;1" dur="0.5s" begin="0.6s" fill="freeze"/>
    </text>
    
    <text x="103.33333333333333" y="50" text-anchor="middle" fill="#22c55e" font-size="32" font-weight="bold" font-family="Arial, sans-serif">
      ↗
      <animate attributeName="opacity" values="0;1" dur="0.5s" begin="0.8s" fill="freeze"/>
      <animateTransform attributeName="transform" type="scale" values="0;1.2;1" dur="0.8s" begin="0.8s" fill="freeze"/>
    </text>
    
    <text x="103.33333333333333" y="75" text-anchor="middle" fill="#f8fafc" font-size="18" font-weight="bold" font-family="Arial, sans-serif">
      +12
      <animate attributeName="opacity" values="0;1" dur="0.5s" begin="1s" fill="freeze"/>
    </text>
    
    <text x="103.33333333333333" y="95" text-anchor="middle" fill="#94a3b8" font-size="12" font-family="Arial, sans-serif">
      #18 → #6
      <animate attributeName="opacity" values="0;1" dur="0.5s" begin="1.2s" fill="freeze"/>
    </text>
  </g>
  
  <!-- Total Contributions Card -->
  <g transform="translate(533.3333333333333, 100)">
    <rect width="206.66666666666666" height="120" fill="#1e293b" stroke="#334155" stroke-width="1" rx="8" filter="url(#shadow)">
      <animate attributeName="opacity" values="0;1" dur="0.6s" begin="0.6s" fill="freeze"/>
      <animateTransform attributeName="transform" type="scale" values="0.8;1" dur="0.6s" begin="0.6s" fill="freeze"/>
    </rect>
    <text x="103.33333333333333" y="25" text-anchor="middle" fill="#94a3b8" font-size="14" font-weight="bold" font-family="Arial, sans-serif">TOTAL
      <animate attributeName="opacity" values="0;1" dur="0.5s" begin="0.8s" fill="freeze"/>
    </text>
    
    <text x="103.33333333333333" y="50" text-anchor="middle" fill="#22c55e" font-size="32" font-weight="bold" font-family="Arial, sans-serif">
      ↗
      <animate attributeName="opacity" values="0;1" dur="0.5s" begin="1s" fill="freeze"/>
      <animateTransform attributeName="transform" type="scale" values="0;1.2;1" dur="0.8s" begin="1s" fill="freeze"/>
    </text>
    
    <text x="103.33333333333333" y="75" text-anchor="middle" fill="#f8fafc" font-size="18" font-weight="bold" font-family="Arial, sans-serif">
      +23
      <animate attributeName="opacity" values="0;1" dur="0.5s" begin="1.2s" fill="freeze"/>
    </text>
    
    <text x="103.33333333333333" y="95" text-anchor="middle" fill="#94a3b8" font-size="12" font-family="Arial, sans-serif">
      #41 → #18
      <animate attributeName="opacity" values="0;1" dur="0.5s" begin="1.4s" fill="freeze"/>
    </text>
  </g>
  
  <!-- Timeline Charts (if we have snapshots) -->
  
  <!-- 👥 Followers Count Chart -->
  <g transform="translate(60, 250)">
    <!-- Chart Background -->
    <rect x="0" y="0" width="213.33333333333334" height="200" fill="#0f172a" stroke="#334155" stroke-width="1" rx="8" filter="url(#shadow)">
      <animate attributeName="opacity" values="0;1" dur="0.5s" begin="1.8s" fill="freeze"/>
    </rect>
    
    <!-- Chart Title -->
    <text x="106.66666666666667" y="25" text-anchor="middle" fill="#f8fafc" font-size="14" font-weight="bold" font-family="Arial, sans-serif">
      👥 Followers Count
      <animate attributeName="opacity" values="0;1" dur="0.5s" begin="2s" fill="freeze"/>
    </text>
    
    <!-- Y-axis labels -->
    <text x="10" y="45" fill="#94a3b8" font-size="10" font-family="Arial, sans-serif">149
      <animate attributeName="opacity" values="0;1" dur="0.5s" begin="2.2s" fill="freeze"/>
    </text>
    <text x="10" y="185" fill="#94a3b8" font-size="10" font-family="Arial, sans-serif">142
      <animate attributeName="opacity" values="0;1" dur="0.5s" begin="2.2s" fill="freeze"/>
    </text>
    
    <!-- Chart Line with draw animation that follows the circle -->
    <path d="M 30,160 L 30.022220596451607,160 L 30.053006874438594,160 L 31.537235198390892,160 L 31.570834890606026,160 L 31.601782447115642,160 L 33.09694187093527,160 L 33.12568528763557,160 L 33.15489462006793,160 L 34.64609376016512,160 L 34.67603780586725,160 L 34.70972709726162,160 L 36.18945754241606,160 L 36.2145990721109,160 L 36.243378328482905,160 L 37.73810767624217,160 L 37.75681598486756,160 L 37.789734723320464,160 L 39.287474603502204,160 L 39.310071516506625,160 L 39.340804034986064,160 L 40.83741496550938,160 L 40.8600477181855,160 L 40.886945391793446,160 L 42.383090406584714,142.85714285714286 L 42.406045716306096,142.85714285714286 L 42.43550592644032,142.85714285714286 L 43.93285157023341,142.85714285714286 L 43.956667032075494,142.85714285714286 L 43.98987248790197,142.85714285714286 L 45.472272988597766,142.85714285714286 L 45.50560388327518,142.85714285714286 L 45.538235904354515,142.85714285714286 L 47.030044318870544,142.85714285714286 L 47.047551998494114,142.85714285714286 L 47.077406445017,142.85714285714286 L 48.57552264175155,142.85714285714286 L 48.600019057355865,142.85714285714286 L 48.63223892221069,142.85714285714286 L 50.11748867680633,142.85714285714286 L 50.14963686231777,142.85714285714286 L 50.17836235918223,142.85714285714286 L 51.672643711045296,142.85714285714286 L 51.69792859942693,142.85714285714286 L 51.72568642515559,142.85714285714286 L 53.218713388509286,142.85714285714286 L 53.243514441323015,142.85714285714286 L 53.26858429167447,142.85714285714286 L 53.30831256774964,142.85714285714286 L 54.77257819456719,142.85714285714286 L 54.79874115490537,142.85714285714286 L 54.825943465722744,142.85714285714286 L 56.319794741525456,142.85714285714286 L 56.34588602252025,142.85714285714286 L 56.37439648135453,142.85714285714286 L 57.86728008602145,142.85714285714286 L 57.891292666057865,142.85714285714286 L 57.91869209506956,142.85714285714286 L 59.41100226498934,142.85714285714286 L 59.43985320070473,142.85714285714286 L 60.970153422622424,142.85714285714286 L 60.987679022081835,142.85714285714286 L 61.01549060731804,142.85714285714286 L 62.51072171048106,142.85714285714286 L 62.53539732444385,142.85714285714286 L 62.56589688505726,142.85714285714286 L 64.05861921120155,142.85714285714286 L 64.08270347058135,142.85714285714286 L 64.1097803425478,142.85714285714286 L 65.60959892368791,142.85714285714286 L 65.63543932698084,142.85714285714286 L 65.6678204703583,142.85714285714286 L 67.15948552618755,142.85714285714286 L 67.18733295109544,142.85714285714286 L 67.21403350650908,142.85714285714286 L 68.71033979982298,142.85714285714286 L 68.72747116289372,142.85714285714286 L 68.75648337713176,142.85714285714286 L 70.25323766634185,142.85714285714286 L 70.27563746115194,142.85714285714286 L 70.30133450575806,142.85714285714286 L 71.80118892656989,142.85714285714286 L 71.8220655353329,142.85714285714286 L 71.85372988527644,142.85714285714286 L 73.34878179008096,142.85714285714286 L 73.37168334029481,142.85714285714286 L 73.4015377868177,142.85714285714286 L 74.89409883443933,142.85714285714286 L 74.91615815236831,142.85714285714286 L 74.94864681476086,142.85714285714286 L 76.44140498057685,142.85714285714286 L 76.47378612395431,142.85714285714286 L 76.506848221094,142.85714285714286 L 77.99492930975364,142.85714285714286 L 78.01870893192402,142.85714285714286 L 78.04861713795447,142.85714285714286 L 79.54280889063828,142.85714285714286 L 79.56624803592757,142.85714285714286 L 79.596156241958,142.85714285714286 L 81.09181742118136,142.85714285714286 L 81.12260369916834,142.85714285714286 L 81.15898096593993,142.85714285714286 L 82.64050339467917,142.85714285714286 L 82.66286734981756,142.85714285714286 L 82.69146740783108,142.85714285714286 L 84.1904258368505,142.85714285714286 L 84.2094029430136,142.85714285714286 L 84.23934698871574,142.85714285714286 L 85.73361042074293,142.85714285714286 L 85.75593853620964,142.85714285714286 L 85.78444899504392,142.85714285714286 L 85.82346047768517,142.85714285714286 L 87.28598788042547,142.85714285714286 L 87.31578856744079,142.85714285714286 L 87.34537421642597,142.85714285714286 L 88.83044477266313,142.85714285714286 L 88.85773668265973,142.85714285714286 L 88.88624714149401,142.85714285714286 L 90.38138864547778,142.85714285714286 L 90.39672802496374,142.85714285714286 L 90.4327289751825,142.85714285714286 L 91.92801383785307,142.85714285714286 L 91.95346000475733,142.85714285714286 L 91.97437245319203,142.85714285714286 L 93.4774524444565,142.85714285714286 L 93.50150086416461,142.85714285714286 L 93.53076395610451,142.85714285714286 L 95.02656849401467,142.85714285714286 L 95.0522655386208,142.85714285714286 L 95.08043552057396,142.85714285714286 L 96.57346248392767,142.85714285714286 L 96.59387317695862,142.85714285714286 L 96.62539416821538,142.85714285714286 L 98.12453179559327,142.85714285714286 L 98.1465731936864,142.85714285714286 L 98.17748491052431,142.85714285714286 L 99.67171250287984,142.85714285714286 L 99.69739162765012,142.85714285714286 L 99.7283212643239,142.85714285714286 L 101.21909032836074,142.85714285714286 L 101.24387346133862,142.85714285714286 L 101.26242049144138,142.85714285714286 L 102.76433569337573,142.85714285714286 L 102.79938689229455,142.85714285714286 L 102.82305899544984,142.85714285714286 L 104.31596051995261,142.85714285714286 L 104.34002685949658,142.85714285714286 L 105.89011058019054,142.85714285714286 L 105.9165244182306,142.85714285714286 L 107.40896002700131,142.85714285714286 L 107.43218413426041,142.85714285714286 L 107.45983444097398,142.85714285714286 L 108.96069237259327,142.85714285714286 L 108.98957914798038,142.85714285714286 L 109.01713985551471,142.85714285714286 L 110.50898410970242,142.85714285714286 L 110.53867727770269,142.85714285714286 L 110.56765365226902,142.85714285714286 L 112.0599279825171,142.85714285714286 L 112.08763204873823,142.85714285714286 L 112.11146543041615,142.85714285714286 L 113.60382935984347,142.85714285714286 L 113.63216062031928,40 L 113.66124451390068,40 L 115.18047027726428,40 L 115.20638235990059,40 L 116.69587911559222,40 L 116.72372654050012,40 L 116.74238108961796,40 L 118.24800569757285,40 L 118.27572768362982,40 L 118.30404102426978,40 L 119.79334066176708,40 L 119.82217367764662,40 L 119.8576191129541,40 L 121.34797602076645,40 L 121.37822470367799,40 L 121.39974642653154,40 L 122.89521048756055,40 L 122.9194201857913,40 L 122.94905959428401,40 L 124.4460289215243,40 L 124.50089945889108,40 L 125.9900198980299,40 L 126.01969514619431,40 L 126.04704081569847,40 L 127.53997817987293,40 L 127.56805856264685,40 L 127.5973754140943,40 L 129.0888791914009,40 L 129.1175150890861,40 L 129.14973495394096,40 L 130.63643621524028,40 L 130.66657737913675,40 L 130.69754285548223,40 L 132.18738008805497,40 L 132.21694781720427,40 L 132.2451357189933,40 L 133.7377863657942,40 L 133.75905721094585,40 L 133.78849950124425,40 L 135.28061255296967,40 L 135.30797614230968,40 L 135.33969425176076,40 L 136.82958524384105,40 L 136.8567875546584,40 L 136.88673160036055,40 L 138.37800241980113,40 L 138.40377114375067,40 L 138.43554301270927,40 L 139.92749478591213,40 L 139.95326350986164,40 L 139.9771506510471,40 L 141.48107287459646,40 L 141.50302467351034,40 L 141.53497574082746,40 L 143.0246337750417,40 L 143.0499007435875,40 L 143.07832160324253,40 L 144.57217287904524,40 L 144.59442931516855,40 L 144.62808276689123,40 L 146.11885183092807,40 L 146.14497895159457,40 L 146.17703753792676,40 L 147.66540534395995,40 L 147.68977632071335,40 L 147.72445120307935,40 L 149.20957551882407,40 L 149.24106067040913,40 L 149.27338805427905,40 L 150.76329696619518,40 L 150.78843849589,40 L 150.81793454569595,40 L 152.31364948442683,40 L 152.34079803573667,40 L 152.373788453533,40 L 153.85930700566632,40 L 153.89102511511743,40 L 153.92607631403627,40 L 155.41064511486965,40 L 155.43476521392117,40 L 155.46632204484962,40 L 156.959976202458,40 L 156.98239391710393,40 L 157.01402242737578,40 L 158.50484525092017,40 L 158.5295746243905,40 L 158.56054010073598,40 L 160.0536925029406,40 L 160.08177288571454,40 L 161.60443925756095,40 L 161.63024382118218,40 L 161.65470439711478,40 L 163.15341194843234,40 L 163.18314095610427,40 L 163.21693776651375,40 L 164.69184777582504,40 L 164.72809960374568,40 L 164.7590113205836,40 L 166.24646521498858,40 L 166.265872397212,40 L 166.30266182020813,40 L 167.79524078766562,40 L 167.82276565552826,40 L 167.85328313597753,40 L 169.34580834392747,40 L 169.371810025743,40 L 169.39933489360564,40 L 170.88997851879157,40 L 170.91965376695597,40 L 170.94907813741852,40 L 172.43733842443663,40 L 172.464540735254,40 L 172.4952194942259,40 L 173.99068355525492,40 L 174.0212727150476,40 L 174.0542631328439,40 L 175.54150198921866,40 L 175.56463649729852,40 L 175.61576178897306,40 L 177.09049259992588,40 L 177.1140213443944,40 L 177.14358907354372,40 L 178.6335875846391,40 L 178.66121997151683,40 L 178.69042930394917,40 L 180.18116252831433,40 L 180.2077734845487,40 L 180.2384880831923,40 L 181.73047569606683,40 L 181.75844855982567,40 L 181.78403808541668,40 L 183.27659913303836,40 L 183.30426735958778,40 L 183.33333333333334,40" stroke="#22c55e" stroke-width="2" fill="none" stroke-dasharray="14800" stroke-dashoffset="14800">
      <animate attributeName="stroke-dashoffset" values="14800;0" dur="3s" begin="2.6s" fill="freeze"/>
    </path>
    
    <!-- Glow effect for the line that also follows the circle -->
    <path d="M 30,160 L 30.022220596451607,160 L 30.053006874438594,160 L 31.537235198390892,160 L 31.570834890606026,160 L 31.601782447115642,160 L 33.09694187093527,160 L 33.12568528763557,160 L 33.15489462006793,160 L 34.64609376016512,160 L 34.67603780586725,160 L 34.70972709726162,160 L 36.18945754241606,160 L 36.2145990721109,160 L 36.243378328482905,160 L 37.73810767624217,160 L 37.75681598486756,160 L 37.789734723320464,160 L 39.287474603502204,160 L 39.310071516506625,160 L 39.340804034986064,160 L 40.83741496550938,160 L 40.8600477181855,160 L 40.886945391793446,160 L 42.383090406584714,142.85714285714286 L 42.406045716306096,142.85714285714286 L 42.43550592644032,142.85714285714286 L 43.93285157023341,142.85714285714286 L 43.956667032075494,142.85714285714286 L 43.98987248790197,142.85714285714286 L 45.472272988597766,142.85714285714286 L 45.50560388327518,142.85714285714286 L 45.538235904354515,142.85714285714286 L 47.030044318870544,142.85714285714286 L 47.047551998494114,142.85714285714286 L 47.077406445017,142.85714285714286 L 48.57552264175155,142.85714285714286 L 48.600019057355865,142.85714285714286 L 48.63223892221069,142.85714285714286 L 50.11748867680633,142.85714285714286 L 50.14963686231777,142.85714285714286 L 50.17836235918223,142.85714285714286 L 51.672643711045296,142.85714285714286 L 51.69792859942693,142.85714285714286 L 51.72568642515559,142.85714285714286 L 53.218713388509286,142.85714285714286 L 53.243514441323015,142.85714285714286 L 53.26858429167447,142.85714285714286 L 53.30831256774964,142.85714285714286 L 54.77257819456719,142.85714285714286 L 54.79874115490537,142.85714285714286 L 54.825943465722744,142.85714285714286 L 56.319794741525456,142.85714285714286 L 56.34588602252025,142.85714285714286 L 56.37439648135453,142.85714285714286 L 57.86728008602145,142.85714285714286 L 57.891292666057865,142.85714285714286 L 57.91869209506956,142.85714285714286 L 59.41100226498934,142.85714285714286 L 59.43985320070473,142.85714285714286 L 60.970153422622424,142.85714285714286 L 60.987679022081835,142.85714285714286 L 61.01549060731804,142.85714285714286 L 62.51072171048106,142.85714285714286 L 62.53539732444385,142.85714285714286 L 62.56589688505726,142.85714285714286 L 64.05861921120155,142.85714285714286 L 64.08270347058135,142.85714285714286 L 64.1097803425478,142.85714285714286 L 65.60959892368791,142.85714285714286 L 65.63543932698084,142.85714285714286 L 65.6678204703583,142.85714285714286 L 67.15948552618755,142.85714285714286 L 67.18733295109544,142.85714285714286 L 67.21403350650908,142.85714285714286 L 68.71033979982298,142.85714285714286 L 68.72747116289372,142.85714285714286 L 68.75648337713176,142.85714285714286 L 70.25323766634185,142.85714285714286 L 70.27563746115194,142.85714285714286 L 70.30133450575806,142.85714285714286 L 71.80118892656989,142.85714285714286 L 71.8220655353329,142.85714285714286 L 71.85372988527644,142.85714285714286 L 73.34878179008096,142.85714285714286 L 73.37168334029481,142.85714285714286 L 73.4015377868177,142.85714285714286 L 74.89409883443933,142.85714285714286 L 74.91615815236831,142.85714285714286 L 74.94864681476086,142.85714285714286 L 76.44140498057685,142.85714285714286 L 76.47378612395431,142.85714285714286 L 76.506848221094,142.85714285714286 L 77.99492930975364,142.85714285714286 L 78.01870893192402,142.85714285714286 L 78.04861713795447,142.85714285714286 L 79.54280889063828,142.85714285714286 L 79.56624803592757,142.85714285714286 L 79.596156241958,142.85714285714286 L 81.09181742118136,142.85714285714286 L 81.12260369916834,142.85714285714286 L 81.15898096593993,142.85714285714286 L 82.64050339467917,142.85714285714286 L 82.66286734981756,142.85714285714286 L 82.69146740783108,142.85714285714286 L 84.1904258368505,142.85714285714286 L 84.2094029430136,142.85714285714286 L 84.23934698871574,142.85714285714286 L 85.73361042074293,142.85714285714286 L 85.75593853620964,142.85714285714286 L 85.78444899504392,142.85714285714286 L 85.82346047768517,142.85714285714286 L 87.28598788042547,142.85714285714286 L 87.31578856744079,142.85714285714286 L 87.34537421642597,142.85714285714286 L 88.83044477266313,142.85714285714286 L 88.85773668265973,142.85714285714286 L 88.88624714149401,142.85714285714286 L 90.38138864547778,142.85714285714286 L 90.39672802496374,142.85714285714286 L 90.4327289751825,142.85714285714286 L 91.92801383785307,142.85714285714286 L 91.95346000475733,142.85714285714286 L 91.97437245319203,142.85714285714286 L 93.4774524444565,142.85714285714286 L 93.50150086416461,142.85714285714286 L 93.53076395610451,142.85714285714286 L 95.02656849401467,142.85714285714286 L 95.0522655386208,142.85714285714286 L 95.08043552057396,142.85714285714286 L 96.57346248392767,142.85714285714286 L 96.59387317695862,142.85714285714286 L 96.62539416821538,142.85714285714286 L 98.12453179559327,142.85714285714286 L 98.1465731936864,142.85714285714286 L 98.17748491052431,142.85714285714286 L 99.67171250287984,142.85714285714286 L 99.69739162765012,142.85714285714286 L 99.7283212643239,142.85714285714286 L 101.21909032836074,142.85714285714286 L 101.24387346133862,142.85714285714286 L 101.26242049144138,142.85714285714286 L 102.76433569337573,142.85714285714286 L 102.79938689229455,142.85714285714286 L 102.82305899544984,142.85714285714286 L 104.31596051995261,142.85714285714286 L 104.34002685949658,142.85714285714286 L 105.89011058019054,142.85714285714286 L 105.9165244182306,142.85714285714286 L 107.40896002700131,142.85714285714286 L 107.43218413426041,142.85714285714286 L 107.45983444097398,142.85714285714286 L 108.96069237259327,142.85714285714286 L 108.98957914798038,142.85714285714286 L 109.01713985551471,142.85714285714286 L 110.50898410970242,142.85714285714286 L 110.53867727770269,142.85714285714286 L 110.56765365226902,142.85714285714286 L 112.0599279825171,142.85714285714286 L 112.08763204873823,142.85714285714286 L 112.11146543041615,142.85714285714286 L 113.60382935984347,142.85714285714286 L 113.63216062031928,40 L 113.66124451390068,40 L 115.18047027726428,40 L 115.20638235990059,40 L 116.69587911559222,40 L 116.72372654050012,40 L 116.74238108961796,40 L 118.24800569757285,40 L 118.27572768362982,40 L 118.30404102426978,40 L 119.79334066176708,40 L 119.82217367764662,40 L 119.8576191129541,40 L 121.34797602076645,40 L 121.37822470367799,40 L 121.39974642653154,40 L 122.89521048756055,40 L 122.9194201857913,40 L 122.94905959428401,40 L 124.4460289215243,40 L 124.50089945889108,40 L 125.9900198980299,40 L 126.01969514619431,40 L 126.04704081569847,40 L 127.53997817987293,40 L 127.56805856264685,40 L 127.5973754140943,40 L 129.0888791914009,40 L 129.1175150890861,40 L 129.14973495394096,40 L 130.63643621524028,40 L 130.66657737913675,40 L 130.69754285548223,40 L 132.18738008805497,40 L 132.21694781720427,40 L 132.2451357189933,40 L 133.7377863657942,40 L 133.75905721094585,40 L 133.78849950124425,40 L 135.28061255296967,40 L 135.30797614230968,40 L 135.33969425176076,40 L 136.82958524384105,40 L 136.8567875546584,40 L 136.88673160036055,40 L 138.37800241980113,40 L 138.40377114375067,40 L 138.43554301270927,40 L 139.92749478591213,40 L 139.95326350986164,40 L 139.9771506510471,40 L 141.48107287459646,40 L 141.50302467351034,40 L 141.53497574082746,40 L 143.0246337750417,40 L 143.0499007435875,40 L 143.07832160324253,40 L 144.57217287904524,40 L 144.59442931516855,40 L 144.62808276689123,40 L 146.11885183092807,40 L 146.14497895159457,40 L 146.17703753792676,40 L 147.66540534395995,40 L 147.68977632071335,40 L 147.72445120307935,40 L 149.20957551882407,40 L 149.24106067040913,40 L 149.27338805427905,40 L 150.76329696619518,40 L 150.78843849589,40 L 150.81793454569595,40 L 152.31364948442683,40 L 152.34079803573667,40 L 152.373788453533,40 L 153.85930700566632,40 L 153.89102511511743,40 L 153.92607631403627,40 L 155.41064511486965,40 L 155.43476521392117,40 L 155.46632204484962,40 L 156.959976202458,40 L 156.98239391710393,40 L 157.01402242737578,40 L 158.50484525092017,40 L 158.5295746243905,40 L 158.56054010073598,40 L 160.0536925029406,40 L 160.08177288571454,40 L 161.60443925756095,40 L 161.63024382118218,40 L 161.65470439711478,40 L 163.15341194843234,40 L 163.18314095610427,40 L 163.21693776651375,40 L 164.69184777582504,40 L 164.72809960374568,40 L 164.7590113205836,40 L 166.24646521498858,40 L 166.265872397212,40 L 166.30266182020813,40 L 167.79524078766562,40 L 167.82276565552826,40 L 167.85328313597753,40 L 169.34580834392747,40 L 169.371810025743,40 L 169.39933489360564,40 L 170.88997851879157,40 L 170.91965376695597,40 L 170.94907813741852,40 L 172.43733842443663,40 L 172.464540735254,40 L 172.4952194942259,40 L 173.99068355525492,40 L 174.0212727150476,40 L 174.0542631328439,40 L 175.54150198921866,40 L 175.56463649729852,40 L 175.61576178897306,40 L 177.09049259992588,40 L 177.1140213443944,40 L 177.14358907354372,40 L 178.6335875846391,40 L 178.66121997151683,40 L 178.69042930394917,40 L 180.18116252831433,40 L 180.2077734845487,40 L 180.2384880831923,40 L 181.73047569606683,40 L 181.75844855982567,40 L 181.78403808541668,40 L 183.27659913303836,40 L 183.30426735958778,40 L 183.33333333333334,40" stroke="#22c55e" stroke-width="4" fill="none" opacity="0.4" stroke-dasharray="14800" stroke-dashoffset="14800">
      <animate attributeName="stroke-dashoffset" values="14800;0" dur="3s" begin="2.6s" fill="freeze"/>
    </path>
    
    <!-- Animated circle that moves along the path and draws the line -->
    <circle r="5" fill="#22c55e" opacity="0" filter="url(#trailGlow)">
      <animate attributeName="opacity" values="0;1;1;1" dur="3.2s" begin="2.4s" fill="freeze"/>
      <animate attributeName="r" values="5;6;5" dur="1s" begin="2.4s" repeatCount="3"/>
      <animateMotion dur="3s" begin="2.4s" fill="freeze">
        <mpath href="#path_followersCount_60"/>
      </animateMotion>
    </circle>
    
    <!-- Small trail dots that fade out -->
    <circle r="2" fill="#22c55e" opacity="0">
      <animate attributeName="opacity" values="0;0.6;0" dur="0.8s" begin="2.8s" fill="freeze"/>
      <animateMotion dur="3s" begin="2.4s" fill="freeze">
        <mpath href="#path_followersCount_60"/>
      </animateMotion>
    </circle>
    
    <!-- Hidden path for motion animation -->
    <path id="path_followersCount_60" d="M 30,160 L 30.022220596451607,160 L 30.053006874438594,160 L 31.537235198390892,160 L 31.570834890606026,160 L 31.601782447115642,160 L 33.09694187093527,160 L 33.12568528763557,160 L 33.15489462006793,160 L 34.64609376016512,160 L 34.67603780586725,160 L 34.70972709726162,160 L 36.18945754241606,160 L 36.2145990721109,160 L 36.243378328482905,160 L 37.73810767624217,160 L 37.75681598486756,160 L 37.789734723320464,160 L 39.287474603502204,160 L 39.310071516506625,160 L 39.340804034986064,160 L 40.83741496550938,160 L 40.8600477181855,160 L 40.886945391793446,160 L 42.383090406584714,142.85714285714286 L 42.406045716306096,142.85714285714286 L 42.43550592644032,142.85714285714286 L 43.93285157023341,142.85714285714286 L 43.956667032075494,142.85714285714286 L 43.98987248790197,142.85714285714286 L 45.472272988597766,142.85714285714286 L 45.50560388327518,142.85714285714286 L 45.538235904354515,142.85714285714286 L 47.030044318870544,142.85714285714286 L 47.047551998494114,142.85714285714286 L 47.077406445017,142.85714285714286 L 48.57552264175155,142.85714285714286 L 48.600019057355865,142.85714285714286 L 48.63223892221069,142.85714285714286 L 50.11748867680633,142.85714285714286 L 50.14963686231777,142.85714285714286 L 50.17836235918223,142.85714285714286 L 51.672643711045296,142.85714285714286 L 51.69792859942693,142.85714285714286 L 51.72568642515559,142.85714285714286 L 53.218713388509286,142.85714285714286 L 53.243514441323015,142.85714285714286 L 53.26858429167447,142.85714285714286 L 53.30831256774964,142.85714285714286 L 54.77257819456719,142.85714285714286 L 54.79874115490537,142.85714285714286 L 54.825943465722744,142.85714285714286 L 56.319794741525456,142.85714285714286 L 56.34588602252025,142.85714285714286 L 56.37439648135453,142.85714285714286 L 57.86728008602145,142.85714285714286 L 57.891292666057865,142.85714285714286 L 57.91869209506956,142.85714285714286 L 59.41100226498934,142.85714285714286 L 59.43985320070473,142.85714285714286 L 60.970153422622424,142.85714285714286 L 60.987679022081835,142.85714285714286 L 61.01549060731804,142.85714285714286 L 62.51072171048106,142.85714285714286 L 62.53539732444385,142.85714285714286 L 62.56589688505726,142.85714285714286 L 64.05861921120155,142.85714285714286 L 64.08270347058135,142.85714285714286 L 64.1097803425478,142.85714285714286 L 65.60959892368791,142.85714285714286 L 65.63543932698084,142.85714285714286 L 65.6678204703583,142.85714285714286 L 67.15948552618755,142.85714285714286 L 67.18733295109544,142.85714285714286 L 67.21403350650908,142.85714285714286 L 68.71033979982298,142.85714285714286 L 68.72747116289372,142.85714285714286 L 68.75648337713176,142.85714285714286 L 70.25323766634185,142.85714285714286 L 70.27563746115194,142.85714285714286 L 70.30133450575806,142.85714285714286 L 71.80118892656989,142.85714285714286 L 71.8220655353329,142.85714285714286 L 71.85372988527644,142.85714285714286 L 73.34878179008096,142.85714285714286 L 73.37168334029481,142.85714285714286 L 73.4015377868177,142.85714285714286 L 74.89409883443933,142.85714285714286 L 74.91615815236831,142.85714285714286 L 74.94864681476086,142.85714285714286 L 76.44140498057685,142.85714285714286 L 76.47378612395431,142.85714285714286 L 76.506848221094,142.85714285714286 L 77.99492930975364,142.85714285714286 L 78.01870893192402,142.85714285714286 L 78.04861713795447,142.85714285714286 L 79.54280889063828,142.85714285714286 L 79.56624803592757,142.85714285714286 L 79.596156241958,142.85714285714286 L 81.09181742118136,142.85714285714286 L 81.12260369916834,142.85714285714286 L 81.15898096593993,142.85714285714286 L 82.64050339467917,142.85714285714286 L 82.66286734981756,142.85714285714286 L 82.69146740783108,142.85714285714286 L 84.1904258368505,142.85714285714286 L 84.2094029430136,142.85714285714286 L 84.23934698871574,142.85714285714286 L 85.73361042074293,142.85714285714286 L 85.75593853620964,142.85714285714286 L 85.78444899504392,142.85714285714286 L 85.82346047768517,142.85714285714286 L 87.28598788042547,142.85714285714286 L 87.31578856744079,142.85714285714286 L 87.34537421642597,142.85714285714286 L 88.83044477266313,142.85714285714286 L 88.85773668265973,142.85714285714286 L 88.88624714149401,142.85714285714286 L 90.38138864547778,142.85714285714286 L 90.39672802496374,142.85714285714286 L 90.4327289751825,142.85714285714286 L 91.92801383785307,142.85714285714286 L 91.95346000475733,142.85714285714286 L 91.97437245319203,142.85714285714286 L 93.4774524444565,142.85714285714286 L 93.50150086416461,142.85714285714286 L 93.53076395610451,142.85714285714286 L 95.02656849401467,142.85714285714286 L 95.0522655386208,142.85714285714286 L 95.08043552057396,142.85714285714286 L 96.57346248392767,142.85714285714286 L 96.59387317695862,142.85714285714286 L 96.62539416821538,142.85714285714286 L 98.12453179559327,142.85714285714286 L 98.1465731936864,142.85714285714286 L 98.17748491052431,142.85714285714286 L 99.67171250287984,142.85714285714286 L 99.69739162765012,142.85714285714286 L 99.7283212643239,142.85714285714286 L 101.21909032836074,142.85714285714286 L 101.24387346133862,142.85714285714286 L 101.26242049144138,142.85714285714286 L 102.76433569337573,142.85714285714286 L 102.79938689229455,142.85714285714286 L 102.82305899544984,142.85714285714286 L 104.31596051995261,142.85714285714286 L 104.34002685949658,142.85714285714286 L 105.89011058019054,142.85714285714286 L 105.9165244182306,142.85714285714286 L 107.40896002700131,142.85714285714286 L 107.43218413426041,142.85714285714286 L 107.45983444097398,142.85714285714286 L 108.96069237259327,142.85714285714286 L 108.98957914798038,142.85714285714286 L 109.01713985551471,142.85714285714286 L 110.50898410970242,142.85714285714286 L 110.53867727770269,142.85714285714286 L 110.56765365226902,142.85714285714286 L 112.0599279825171,142.85714285714286 L 112.08763204873823,142.85714285714286 L 112.11146543041615,142.85714285714286 L 113.60382935984347,142.85714285714286 L 113.63216062031928,40 L 113.66124451390068,40 L 115.18047027726428,40 L 115.20638235990059,40 L 116.69587911559222,40 L 116.72372654050012,40 L 116.74238108961796,40 L 118.24800569757285,40 L 118.27572768362982,40 L 118.30404102426978,40 L 119.79334066176708,40 L 119.82217367764662,40 L 119.8576191129541,40 L 121.34797602076645,40 L 121.37822470367799,40 L 121.39974642653154,40 L 122.89521048756055,40 L 122.9194201857913,40 L 122.94905959428401,40 L 124.4460289215243,40 L 124.50089945889108,40 L 125.9900198980299,40 L 126.01969514619431,40 L 126.04704081569847,40 L 127.53997817987293,40 L 127.56805856264685,40 L 127.5973754140943,40 L 129.0888791914009,40 L 129.1175150890861,40 L 129.14973495394096,40 L 130.63643621524028,40 L 130.66657737913675,40 L 130.69754285548223,40 L 132.18738008805497,40 L 132.21694781720427,40 L 132.2451357189933,40 L 133.7377863657942,40 L 133.75905721094585,40 L 133.78849950124425,40 L 135.28061255296967,40 L 135.30797614230968,40 L 135.33969425176076,40 L 136.82958524384105,40 L 136.8567875546584,40 L 136.88673160036055,40 L 138.37800241980113,40 L 138.40377114375067,40 L 138.43554301270927,40 L 139.92749478591213,40 L 139.95326350986164,40 L 139.9771506510471,40 L 141.48107287459646,40 L 141.50302467351034,40 L 141.53497574082746,40 L 143.0246337750417,40 L 143.0499007435875,40 L 143.07832160324253,40 L 144.57217287904524,40 L 144.59442931516855,40 L 144.62808276689123,40 L 146.11885183092807,40 L 146.14497895159457,40 L 146.17703753792676,40 L 147.66540534395995,40 L 147.68977632071335,40 L 147.72445120307935,40 L 149.20957551882407,40 L 149.24106067040913,40 L 149.27338805427905,40 L 150.76329696619518,40 L 150.78843849589,40 L 150.81793454569595,40 L 152.31364948442683,40 L 152.34079803573667,40 L 152.373788453533,40 L 153.85930700566632,40 L 153.89102511511743,40 L 153.92607631403627,40 L 155.41064511486965,40 L 155.43476521392117,40 L 155.46632204484962,40 L 156.959976202458,40 L 156.98239391710393,40 L 157.01402242737578,40 L 158.50484525092017,40 L 158.5295746243905,40 L 158.56054010073598,40 L 160.0536925029406,40 L 160.08177288571454,40 L 161.60443925756095,40 L 161.63024382118218,40 L 161.65470439711478,40 L 163.15341194843234,40 L 163.18314095610427,40 L 163.21693776651375,40 L 164.69184777582504,40 L 164.72809960374568,40 L 164.7590113205836,40 L 166.24646521498858,40 L 166.265872397212,40 L 166.30266182020813,40 L 167.79524078766562,40 L 167.82276565552826,40 L 167.85328313597753,40 L 169.34580834392747,40 L 169.371810025743,40 L 169.39933489360564,40 L 170.88997851879157,40 L 170.91965376695597,40 L 170.94907813741852,40 L 172.43733842443663,40 L 172.464540735254,40 L 172.4952194942259,40 L 173.99068355525492,40 L 174.0212727150476,40 L 174.0542631328439,40 L 175.54150198921866,40 L 175.56463649729852,40 L 175.61576178897306,40 L 177.09049259992588,40 L 177.1140213443944,40 L 177.14358907354372,40 L 178.6335875846391,40 L 178.66121997151683,40 L 178.69042930394917,40 L 180.18116252831433,40 L 180.2077734845487,40 L 180.2384880831923,40 L 181.73047569606683,40 L 181.75844855982567,40 L 181.78403808541668,40 L 183.27659913303836,40 L 183.30426735958778,40 L 183.33333333333334,40" fill="none" stroke="none"/>
  </g>
  <!-- 🔓 Public Contributions Chart -->
  <g transform="translate(293.33333333333337, 250)">
    <!-- Chart Background -->
    <rect x="0" y="0" width="213.33333333333334" height="200" fill="#0f172a" stroke="#334155" stroke-width="1" rx="8" filter="url(#shadow)">
      <animate attributeName="opacity" values="0;1" dur="0.5s" begin="2.3s" fill="freeze"/>
    </rect>
    
    <!-- Chart Title -->
    <text x="106.66666666666667" y="25" text-anchor="middle" fill="#f8fafc" font-size="14" font-weight="bold" font-family="Arial, sans-serif">
      🔓 Public Contributions
      <animate attributeName="opacity" values="0;1" dur="0.5s" begin="2.5s" fill="freeze"/>
    </text>
    
    <!-- Y-axis labels -->
    <text x="10" y="45" fill="#94a3b8" font-size="10" font-family="Arial, sans-serif">3,180
      <animate attributeName="opacity" values="0;1" dur="0.5s" begin="2.6999999999999997s" fill="freeze"/>
    </text>
    <text x="10" y="185" fill="#94a3b8" font-size="10" font-family="Arial, sans-serif">1,753
      <animate attributeName="opacity" values="0;1" dur="0.5s" begin="2.6999999999999997s" fill="freeze"/>
    </text>
    
    <!-- Chart Line with draw animation that follows the circle -->
    <path d="M 30,160 L 30.022220596451607,160 L 30.053006874438594,160 L 31.537235198390892,160 L 31.570834890606026,160 L 31.601782447115642,160 L 33.09694187093527,160 L 33.12568528763557,160 L 33.15489462006793,160 L 34.64609376016512,160 L 34.67603780586725,160 L 34.70972709726162,160 L 36.18945754241606,160 L 36.2145990721109,160 L 36.243378328482905,160 L 37.73810767624217,160 L 37.75681598486756,160 L 37.789734723320464,160 L 39.287474603502204,160 L 39.310071516506625,160 L 39.340804034986064,160 L 40.83741496550938,160 L 40.8600477181855,160 L 40.886945391793446,160 L 42.383090406584714,82.97126839523476 L 42.406045716306096,82.97126839523476 L 42.43550592644032,82.97126839523476 L 43.93285157023341,82.97126839523476 L 43.956667032075494,82.97126839523476 L 43.98987248790197,82.97126839523476 L 45.472272988597766,82.97126839523476 L 45.50560388327518,82.97126839523476 L 45.538235904354515,82.97126839523476 L 47.030044318870544,82.97126839523476 L 47.047551998494114,82.97126839523476 L 47.077406445017,82.97126839523476 L 48.57552264175155,82.97126839523476 L 48.600019057355865,82.97126839523476 L 48.63223892221069,82.97126839523476 L 50.11748867680633,82.97126839523476 L 50.14963686231777,82.97126839523476 L 50.17836235918223,82.97126839523476 L 51.672643711045296,82.97126839523476 L 51.69792859942693,82.97126839523476 L 51.72568642515559,82.97126839523476 L 53.218713388509286,82.97126839523476 L 53.243514441323015,82.97126839523476 L 53.26858429167447,82.97126839523476 L 53.30831256774964,82.97126839523476 L 54.77257819456719,82.97126839523476 L 54.79874115490537,82.97126839523476 L 54.825943465722744,82.97126839523476 L 56.319794741525456,82.97126839523476 L 56.34588602252025,82.97126839523476 L 56.37439648135453,82.97126839523476 L 57.86728008602145,82.97126839523476 L 57.891292666057865,82.97126839523476 L 57.91869209506956,82.97126839523476 L 59.41100226498934,82.97126839523476 L 59.43985320070473,82.97126839523476 L 60.970153422622424,82.97126839523476 L 60.987679022081835,82.97126839523476 L 61.01549060731804,82.97126839523476 L 62.51072171048106,82.97126839523476 L 62.53539732444385,82.97126839523476 L 62.56589688505726,82.97126839523476 L 64.05861921120155,82.97126839523476 L 64.08270347058135,82.97126839523476 L 64.1097803425478,82.97126839523476 L 65.60959892368791,82.97126839523476 L 65.63543932698084,82.97126839523476 L 65.6678204703583,82.97126839523476 L 67.15948552618755,82.97126839523476 L 67.18733295109544,82.97126839523476 L 67.21403350650908,82.97126839523476 L 68.71033979982298,82.97126839523476 L 68.72747116289372,82.97126839523476 L 68.75648337713176,82.97126839523476 L 70.25323766634185,82.97126839523476 L 70.27563746115194,82.97126839523476 L 70.30133450575806,82.97126839523476 L 71.80118892656989,82.97126839523476 L 71.8220655353329,82.97126839523476 L 71.85372988527644,82.97126839523476 L 73.34878179008096,82.97126839523476 L 73.37168334029481,82.97126839523476 L 73.4015377868177,82.97126839523476 L 74.89409883443933,82.97126839523476 L 74.91615815236831,82.97126839523476 L 74.94864681476086,82.97126839523476 L 76.44140498057685,82.97126839523476 L 76.47378612395431,82.97126839523476 L 76.506848221094,82.97126839523476 L 77.99492930975364,82.97126839523476 L 78.01870893192402,82.97126839523476 L 78.04861713795447,82.97126839523476 L 79.54280889063828,82.97126839523476 L 79.56624803592757,82.97126839523476 L 79.596156241958,82.97126839523476 L 81.09181742118136,82.97126839523476 L 81.12260369916834,82.97126839523476 L 81.15898096593993,82.97126839523476 L 82.64050339467917,82.97126839523476 L 82.66286734981756,82.97126839523476 L 82.69146740783108,82.97126839523476 L 84.1904258368505,82.97126839523476 L 84.2094029430136,82.97126839523476 L 84.23934698871574,82.97126839523476 L 85.73361042074293,82.97126839523476 L 85.75593853620964,82.97126839523476 L 85.78444899504392,82.97126839523476 L 85.82346047768517,82.97126839523476 L 87.28598788042547,82.97126839523476 L 87.31578856744079,82.97126839523476 L 87.34537421642597,82.97126839523476 L 88.83044477266313,82.97126839523476 L 88.85773668265973,82.97126839523476 L 88.88624714149401,82.97126839523476 L 90.38138864547778,82.97126839523476 L 90.39672802496374,82.97126839523476 L 90.4327289751825,82.97126839523476 L 91.92801383785307,82.97126839523476 L 91.95346000475733,82.97126839523476 L 91.97437245319203,82.97126839523476 L 93.4774524444565,82.97126839523476 L 93.50150086416461,82.97126839523476 L 93.53076395610451,82.97126839523476 L 95.02656849401467,82.97126839523476 L 95.0522655386208,82.97126839523476 L 95.08043552057396,82.97126839523476 L 96.57346248392767,82.97126839523476 L 96.59387317695862,82.97126839523476 L 96.62539416821538,82.97126839523476 L 98.12453179559327,82.97126839523476 L 98.1465731936864,82.97126839523476 L 98.17748491052431,82.97126839523476 L 99.67171250287984,82.97126839523476 L 99.69739162765012,82.97126839523476 L 99.7283212643239,82.97126839523476 L 101.21909032836074,82.97126839523476 L 101.24387346133862,82.97126839523476 L 101.26242049144138,82.97126839523476 L 102.76433569337573,82.97126839523476 L 102.79938689229455,82.97126839523476 L 102.82305899544984,82.97126839523476 L 104.31596051995261,82.97126839523476 L 104.34002685949658,82.97126839523476 L 105.89011058019054,82.97126839523476 L 105.9165244182306,82.97126839523476 L 107.40896002700131,82.97126839523476 L 107.43218413426041,82.97126839523476 L 107.45983444097398,82.97126839523476 L 108.96069237259327,82.97126839523476 L 108.98957914798038,82.97126839523476 L 109.01713985551471,82.97126839523476 L 110.50898410970242,82.97126839523476 L 110.53867727770269,82.97126839523476 L 110.56765365226902,82.97126839523476 L 112.0599279825171,82.97126839523476 L 112.08763204873823,82.97126839523476 L 112.11146543041615,82.97126839523476 L 113.60382935984347,82.97126839523476 L 113.63216062031928,40 L 113.66124451390068,40 L 115.18047027726428,40 L 115.20638235990059,40 L 116.69587911559222,40 L 116.72372654050012,40 L 116.74238108961796,40 L 118.24800569757285,40 L 118.27572768362982,40 L 118.30404102426978,40 L 119.79334066176708,40 L 119.82217367764662,40 L 119.8576191129541,40 L 121.34797602076645,40 L 121.37822470367799,40 L 121.39974642653154,40 L 122.89521048756055,40 L 122.9194201857913,40 L 122.94905959428401,40 L 124.4460289215243,40 L 124.50089945889108,40 L 125.9900198980299,40 L 126.01969514619431,40 L 126.04704081569847,40 L 127.53997817987293,40 L 127.56805856264685,40 L 127.5973754140943,40 L 129.0888791914009,40 L 129.1175150890861,40 L 129.14973495394096,40 L 130.63643621524028,40 L 130.66657737913675,40 L 130.69754285548223,40 L 132.18738008805497,40 L 132.21694781720427,40 L 132.2451357189933,40 L 133.7377863657942,40 L 133.75905721094585,40 L 133.78849950124425,40 L 135.28061255296967,40 L 135.30797614230968,40 L 135.33969425176076,40 L 136.82958524384105,40 L 136.8567875546584,40 L 136.88673160036055,40 L 138.37800241980113,40 L 138.40377114375067,40 L 138.43554301270927,40 L 139.92749478591213,40 L 139.95326350986164,40 L 139.9771506510471,40 L 141.48107287459646,40 L 141.50302467351034,40 L 141.53497574082746,40 L 143.0246337750417,40 L 143.0499007435875,40 L 143.07832160324253,40 L 144.57217287904524,40 L 144.59442931516855,40 L 144.62808276689123,40 L 146.11885183092807,40 L 146.14497895159457,40 L 146.17703753792676,40 L 147.66540534395995,40 L 147.68977632071335,40 L 147.72445120307935,40 L 149.20957551882407,40 L 149.24106067040913,40 L 149.27338805427905,40 L 150.76329696619518,40 L 150.78843849589,40 L 150.81793454569595,40 L 152.31364948442683,40 L 152.34079803573667,40 L 152.373788453533,40 L 153.85930700566632,40 L 153.89102511511743,40 L 153.92607631403627,40 L 155.41064511486965,40 L 155.43476521392117,40 L 155.46632204484962,40 L 156.959976202458,40 L 156.98239391710393,40 L 157.01402242737578,40 L 158.50484525092017,40 L 158.5295746243905,40 L 158.56054010073598,40 L 160.0536925029406,40 L 160.08177288571454,40 L 161.60443925756095,40 L 161.63024382118218,40 L 161.65470439711478,40 L 163.15341194843234,40 L 163.18314095610427,40 L 163.21693776651375,40 L 164.69184777582504,40 L 164.72809960374568,40 L 164.7590113205836,40 L 166.24646521498858,40 L 166.265872397212,40 L 166.30266182020813,40 L 167.79524078766562,40 L 167.82276565552826,40 L 167.85328313597753,40 L 169.34580834392747,40 L 169.371810025743,40 L 169.39933489360564,40 L 170.88997851879157,40 L 170.91965376695597,40 L 170.94907813741852,40 L 172.43733842443663,40 L 172.464540735254,40 L 172.4952194942259,40 L 173.99068355525492,40 L 174.0212727150476,40 L 174.0542631328439,40 L 175.54150198921866,40 L 175.56463649729852,40 L 175.61576178897306,40 L 177.09049259992588,40 L 177.1140213443944,40 L 177.14358907354372,40 L 178.6335875846391,40 L 178.66121997151683,40 L 178.69042930394917,40 L 180.18116252831433,40 L 180.2077734845487,40 L 180.2384880831923,40 L 181.73047569606683,40 L 181.75844855982567,40 L 181.78403808541668,40 L 183.27659913303836,40 L 183.30426735958778,40 L 183.33333333333334,40" stroke="#3b82f6" stroke-width="2" fill="none" stroke-dasharray="14800" stroke-dashoffset="14800">
      <animate attributeName="stroke-dashoffset" values="14800;0" dur="3s" begin="3.0999999999999996s" fill="freeze"/>
    </path>
    
    <!-- Glow effect for the line that also follows the circle -->
    <path d="M 30,160 L 30.022220596451607,160 L 30.053006874438594,160 L 31.537235198390892,160 L 31.570834890606026,160 L 31.601782447115642,160 L 33.09694187093527,160 L 33.12568528763557,160 L 33.15489462006793,160 L 34.64609376016512,160 L 34.67603780586725,160 L 34.70972709726162,160 L 36.18945754241606,160 L 36.2145990721109,160 L 36.243378328482905,160 L 37.73810767624217,160 L 37.75681598486756,160 L 37.789734723320464,160 L 39.287474603502204,160 L 39.310071516506625,160 L 39.340804034986064,160 L 40.83741496550938,160 L 40.8600477181855,160 L 40.886945391793446,160 L 42.383090406584714,82.97126839523476 L 42.406045716306096,82.97126839523476 L 42.43550592644032,82.97126839523476 L 43.93285157023341,82.97126839523476 L 43.956667032075494,82.97126839523476 L 43.98987248790197,82.97126839523476 L 45.472272988597766,82.97126839523476 L 45.50560388327518,82.97126839523476 L 45.538235904354515,82.97126839523476 L 47.030044318870544,82.97126839523476 L 47.047551998494114,82.97126839523476 L 47.077406445017,82.97126839523476 L 48.57552264175155,82.97126839523476 L 48.600019057355865,82.97126839523476 L 48.63223892221069,82.97126839523476 L 50.11748867680633,82.97126839523476 L 50.14963686231777,82.97126839523476 L 50.17836235918223,82.97126839523476 L 51.672643711045296,82.97126839523476 L 51.69792859942693,82.97126839523476 L 51.72568642515559,82.97126839523476 L 53.218713388509286,82.97126839523476 L 53.243514441323015,82.97126839523476 L 53.26858429167447,82.97126839523476 L 53.30831256774964,82.97126839523476 L 54.77257819456719,82.97126839523476 L 54.79874115490537,82.97126839523476 L 54.825943465722744,82.97126839523476 L 56.319794741525456,82.97126839523476 L 56.34588602252025,82.97126839523476 L 56.37439648135453,82.97126839523476 L 57.86728008602145,82.97126839523476 L 57.891292666057865,82.97126839523476 L 57.91869209506956,82.97126839523476 L 59.41100226498934,82.97126839523476 L 59.43985320070473,82.97126839523476 L 60.970153422622424,82.97126839523476 L 60.987679022081835,82.97126839523476 L 61.01549060731804,82.97126839523476 L 62.51072171048106,82.97126839523476 L 62.53539732444385,82.97126839523476 L 62.56589688505726,82.97126839523476 L 64.05861921120155,82.97126839523476 L 64.08270347058135,82.97126839523476 L 64.1097803425478,82.97126839523476 L 65.60959892368791,82.97126839523476 L 65.63543932698084,82.97126839523476 L 65.6678204703583,82.97126839523476 L 67.15948552618755,82.97126839523476 L 67.18733295109544,82.97126839523476 L 67.21403350650908,82.97126839523476 L 68.71033979982298,82.97126839523476 L 68.72747116289372,82.97126839523476 L 68.75648337713176,82.97126839523476 L 70.25323766634185,82.97126839523476 L 70.27563746115194,82.97126839523476 L 70.30133450575806,82.97126839523476 L 71.80118892656989,82.97126839523476 L 71.8220655353329,82.97126839523476 L 71.85372988527644,82.97126839523476 L 73.34878179008096,82.97126839523476 L 73.37168334029481,82.97126839523476 L 73.4015377868177,82.97126839523476 L 74.89409883443933,82.97126839523476 L 74.91615815236831,82.97126839523476 L 74.94864681476086,82.97126839523476 L 76.44140498057685,82.97126839523476 L 76.47378612395431,82.97126839523476 L 76.506848221094,82.97126839523476 L 77.99492930975364,82.97126839523476 L 78.01870893192402,82.97126839523476 L 78.04861713795447,82.97126839523476 L 79.54280889063828,82.97126839523476 L 79.56624803592757,82.97126839523476 L 79.596156241958,82.97126839523476 L 81.09181742118136,82.97126839523476 L 81.12260369916834,82.97126839523476 L 81.15898096593993,82.97126839523476 L 82.64050339467917,82.97126839523476 L 82.66286734981756,82.97126839523476 L 82.69146740783108,82.97126839523476 L 84.1904258368505,82.97126839523476 L 84.2094029430136,82.97126839523476 L 84.23934698871574,82.97126839523476 L 85.73361042074293,82.97126839523476 L 85.75593853620964,82.97126839523476 L 85.78444899504392,82.97126839523476 L 85.82346047768517,82.97126839523476 L 87.28598788042547,82.97126839523476 L 87.31578856744079,82.97126839523476 L 87.34537421642597,82.97126839523476 L 88.83044477266313,82.97126839523476 L 88.85773668265973,82.97126839523476 L 88.88624714149401,82.97126839523476 L 90.38138864547778,82.97126839523476 L 90.39672802496374,82.97126839523476 L 90.4327289751825,82.97126839523476 L 91.92801383785307,82.97126839523476 L 91.95346000475733,82.97126839523476 L 91.97437245319203,82.97126839523476 L 93.4774524444565,82.97126839523476 L 93.50150086416461,82.97126839523476 L 93.53076395610451,82.97126839523476 L 95.02656849401467,82.97126839523476 L 95.0522655386208,82.97126839523476 L 95.08043552057396,82.97126839523476 L 96.57346248392767,82.97126839523476 L 96.59387317695862,82.97126839523476 L 96.62539416821538,82.97126839523476 L 98.12453179559327,82.97126839523476 L 98.1465731936864,82.97126839523476 L 98.17748491052431,82.97126839523476 L 99.67171250287984,82.97126839523476 L 99.69739162765012,82.97126839523476 L 99.7283212643239,82.97126839523476 L 101.21909032836074,82.97126839523476 L 101.24387346133862,82.97126839523476 L 101.26242049144138,82.97126839523476 L 102.76433569337573,82.97126839523476 L 102.79938689229455,82.97126839523476 L 102.82305899544984,82.97126839523476 L 104.31596051995261,82.97126839523476 L 104.34002685949658,82.97126839523476 L 105.89011058019054,82.97126839523476 L 105.9165244182306,82.97126839523476 L 107.40896002700131,82.97126839523476 L 107.43218413426041,82.97126839523476 L 107.45983444097398,82.97126839523476 L 108.96069237259327,82.97126839523476 L 108.98957914798038,82.97126839523476 L 109.01713985551471,82.97126839523476 L 110.50898410970242,82.97126839523476 L 110.53867727770269,82.97126839523476 L 110.56765365226902,82.97126839523476 L 112.0599279825171,82.97126839523476 L 112.08763204873823,82.97126839523476 L 112.11146543041615,82.97126839523476 L 113.60382935984347,82.97126839523476 L 113.63216062031928,40 L 113.66124451390068,40 L 115.18047027726428,40 L 115.20638235990059,40 L 116.69587911559222,40 L 116.72372654050012,40 L 116.74238108961796,40 L 118.24800569757285,40 L 118.27572768362982,40 L 118.30404102426978,40 L 119.79334066176708,40 L 119.82217367764662,40 L 119.8576191129541,40 L 121.34797602076645,40 L 121.37822470367799,40 L 121.39974642653154,40 L 122.89521048756055,40 L 122.9194201857913,40 L 122.94905959428401,40 L 124.4460289215243,40 L 124.50089945889108,40 L 125.9900198980299,40 L 126.01969514619431,40 L 126.04704081569847,40 L 127.53997817987293,40 L 127.56805856264685,40 L 127.5973754140943,40 L 129.0888791914009,40 L 129.1175150890861,40 L 129.14973495394096,40 L 130.63643621524028,40 L 130.66657737913675,40 L 130.69754285548223,40 L 132.18738008805497,40 L 132.21694781720427,40 L 132.2451357189933,40 L 133.7377863657942,40 L 133.75905721094585,40 L 133.78849950124425,40 L 135.28061255296967,40 L 135.30797614230968,40 L 135.33969425176076,40 L 136.82958524384105,40 L 136.8567875546584,40 L 136.88673160036055,40 L 138.37800241980113,40 L 138.40377114375067,40 L 138.43554301270927,40 L 139.92749478591213,40 L 139.95326350986164,40 L 139.9771506510471,40 L 141.48107287459646,40 L 141.50302467351034,40 L 141.53497574082746,40 L 143.0246337750417,40 L 143.0499007435875,40 L 143.07832160324253,40 L 144.57217287904524,40 L 144.59442931516855,40 L 144.62808276689123,40 L 146.11885183092807,40 L 146.14497895159457,40 L 146.17703753792676,40 L 147.66540534395995,40 L 147.68977632071335,40 L 147.72445120307935,40 L 149.20957551882407,40 L 149.24106067040913,40 L 149.27338805427905,40 L 150.76329696619518,40 L 150.78843849589,40 L 150.81793454569595,40 L 152.31364948442683,40 L 152.34079803573667,40 L 152.373788453533,40 L 153.85930700566632,40 L 153.89102511511743,40 L 153.92607631403627,40 L 155.41064511486965,40 L 155.43476521392117,40 L 155.46632204484962,40 L 156.959976202458,40 L 156.98239391710393,40 L 157.01402242737578,40 L 158.50484525092017,40 L 158.5295746243905,40 L 158.56054010073598,40 L 160.0536925029406,40 L 160.08177288571454,40 L 161.60443925756095,40 L 161.63024382118218,40 L 161.65470439711478,40 L 163.15341194843234,40 L 163.18314095610427,40 L 163.21693776651375,40 L 164.69184777582504,40 L 164.72809960374568,40 L 164.7590113205836,40 L 166.24646521498858,40 L 166.265872397212,40 L 166.30266182020813,40 L 167.79524078766562,40 L 167.82276565552826,40 L 167.85328313597753,40 L 169.34580834392747,40 L 169.371810025743,40 L 169.39933489360564,40 L 170.88997851879157,40 L 170.91965376695597,40 L 170.94907813741852,40 L 172.43733842443663,40 L 172.464540735254,40 L 172.4952194942259,40 L 173.99068355525492,40 L 174.0212727150476,40 L 174.0542631328439,40 L 175.54150198921866,40 L 175.56463649729852,40 L 175.61576178897306,40 L 177.09049259992588,40 L 177.1140213443944,40 L 177.14358907354372,40 L 178.6335875846391,40 L 178.66121997151683,40 L 178.69042930394917,40 L 180.18116252831433,40 L 180.2077734845487,40 L 180.2384880831923,40 L 181.73047569606683,40 L 181.75844855982567,40 L 181.78403808541668,40 L 183.27659913303836,40 L 183.30426735958778,40 L 183.33333333333334,40" stroke="#3b82f6" stroke-width="4" fill="none" opacity="0.4" stroke-dasharray="14800" stroke-dashoffset="14800">
      <animate attributeName="stroke-dashoffset" values="14800;0" dur="3s" begin="3.0999999999999996s" fill="freeze"/>
    </path>
    
    <!-- Animated circle that moves along the path and draws the line -->
    <circle r="5" fill="#3b82f6" opacity="0" filter="url(#trailGlow)">
      <animate attributeName="opacity" values="0;1;1;1" dur="3.2s" begin="2.9s" fill="freeze"/>
      <animate attributeName="r" values="5;6;5" dur="1s" begin="2.9s" repeatCount="3"/>
      <animateMotion dur="3s" begin="2.9s" fill="freeze">
        <mpath href="#path_publicContributions_293.33333333333337"/>
      </animateMotion>
    </circle>
    
    <!-- Small trail dots that fade out -->
    <circle r="2" fill="#3b82f6" opacity="0">
      <animate attributeName="opacity" values="0;0.6;0" dur="0.8s" begin="3.3s" fill="freeze"/>
      <animateMotion dur="3s" begin="2.9s" fill="freeze">
        <mpath href="#path_publicContributions_293.33333333333337"/>
      </animateMotion>
    </circle>
    
    <!-- Hidden path for motion animation -->
    <path id="path_publicContributions_293.33333333333337" d="M 30,160 L 30.022220596451607,160 L 30.053006874438594,160 L 31.537235198390892,160 L 31.570834890606026,160 L 31.601782447115642,160 L 33.09694187093527,160 L 33.12568528763557,160 L 33.15489462006793,160 L 34.64609376016512,160 L 34.67603780586725,160 L 34.70972709726162,160 L 36.18945754241606,160 L 36.2145990721109,160 L 36.243378328482905,160 L 37.73810767624217,160 L 37.75681598486756,160 L 37.789734723320464,160 L 39.287474603502204,160 L 39.310071516506625,160 L 39.340804034986064,160 L 40.83741496550938,160 L 40.8600477181855,160 L 40.886945391793446,160 L 42.383090406584714,82.97126839523476 L 42.406045716306096,82.97126839523476 L 42.43550592644032,82.97126839523476 L 43.93285157023341,82.97126839523476 L 43.956667032075494,82.97126839523476 L 43.98987248790197,82.97126839523476 L 45.472272988597766,82.97126839523476 L 45.50560388327518,82.97126839523476 L 45.538235904354515,82.97126839523476 L 47.030044318870544,82.97126839523476 L 47.047551998494114,82.97126839523476 L 47.077406445017,82.97126839523476 L 48.57552264175155,82.97126839523476 L 48.600019057355865,82.97126839523476 L 48.63223892221069,82.97126839523476 L 50.11748867680633,82.97126839523476 L 50.14963686231777,82.97126839523476 L 50.17836235918223,82.97126839523476 L 51.672643711045296,82.97126839523476 L 51.69792859942693,82.97126839523476 L 51.72568642515559,82.97126839523476 L 53.218713388509286,82.97126839523476 L 53.243514441323015,82.97126839523476 L 53.26858429167447,82.97126839523476 L 53.30831256774964,82.97126839523476 L 54.77257819456719,82.97126839523476 L 54.79874115490537,82.97126839523476 L 54.825943465722744,82.97126839523476 L 56.319794741525456,82.97126839523476 L 56.34588602252025,82.97126839523476 L 56.37439648135453,82.97126839523476 L 57.86728008602145,82.97126839523476 L 57.891292666057865,82.97126839523476 L 57.91869209506956,82.97126839523476 L 59.41100226498934,82.97126839523476 L 59.43985320070473,82.97126839523476 L 60.970153422622424,82.97126839523476 L 60.987679022081835,82.97126839523476 L 61.01549060731804,82.97126839523476 L 62.51072171048106,82.97126839523476 L 62.53539732444385,82.97126839523476 L 62.56589688505726,82.97126839523476 L 64.05861921120155,82.97126839523476 L 64.08270347058135,82.97126839523476 L 64.1097803425478,82.97126839523476 L 65.60959892368791,82.97126839523476 L 65.63543932698084,82.97126839523476 L 65.6678204703583,82.97126839523476 L 67.15948552618755,82.97126839523476 L 67.18733295109544,82.97126839523476 L 67.21403350650908,82.97126839523476 L 68.71033979982298,82.97126839523476 L 68.72747116289372,82.97126839523476 L 68.75648337713176,82.97126839523476 L 70.25323766634185,82.97126839523476 L 70.27563746115194,82.97126839523476 L 70.30133450575806,82.97126839523476 L 71.80118892656989,82.97126839523476 L 71.8220655353329,82.97126839523476 L 71.85372988527644,82.97126839523476 L 73.34878179008096,82.97126839523476 L 73.37168334029481,82.97126839523476 L 73.4015377868177,82.97126839523476 L 74.89409883443933,82.97126839523476 L 74.91615815236831,82.97126839523476 L 74.94864681476086,82.97126839523476 L 76.44140498057685,82.97126839523476 L 76.47378612395431,82.97126839523476 L 76.506848221094,82.97126839523476 L 77.99492930975364,82.97126839523476 L 78.01870893192402,82.97126839523476 L 78.04861713795447,82.97126839523476 L 79.54280889063828,82.97126839523476 L 79.56624803592757,82.97126839523476 L 79.596156241958,82.97126839523476 L 81.09181742118136,82.97126839523476 L 81.12260369916834,82.97126839523476 L 81.15898096593993,82.97126839523476 L 82.64050339467917,82.97126839523476 L 82.66286734981756,82.97126839523476 L 82.69146740783108,82.97126839523476 L 84.1904258368505,82.97126839523476 L 84.2094029430136,82.97126839523476 L 84.23934698871574,82.97126839523476 L 85.73361042074293,82.97126839523476 L 85.75593853620964,82.97126839523476 L 85.78444899504392,82.97126839523476 L 85.82346047768517,82.97126839523476 L 87.28598788042547,82.97126839523476 L 87.31578856744079,82.97126839523476 L 87.34537421642597,82.97126839523476 L 88.83044477266313,82.97126839523476 L 88.85773668265973,82.97126839523476 L 88.88624714149401,82.97126839523476 L 90.38138864547778,82.97126839523476 L 90.39672802496374,82.97126839523476 L 90.4327289751825,82.97126839523476 L 91.92801383785307,82.97126839523476 L 91.95346000475733,82.97126839523476 L 91.97437245319203,82.97126839523476 L 93.4774524444565,82.97126839523476 L 93.50150086416461,82.97126839523476 L 93.53076395610451,82.97126839523476 L 95.02656849401467,82.97126839523476 L 95.0522655386208,82.97126839523476 L 95.08043552057396,82.97126839523476 L 96.57346248392767,82.97126839523476 L 96.59387317695862,82.97126839523476 L 96.62539416821538,82.97126839523476 L 98.12453179559327,82.97126839523476 L 98.1465731936864,82.97126839523476 L 98.17748491052431,82.97126839523476 L 99.67171250287984,82.97126839523476 L 99.69739162765012,82.97126839523476 L 99.7283212643239,82.97126839523476 L 101.21909032836074,82.97126839523476 L 101.24387346133862,82.97126839523476 L 101.26242049144138,82.97126839523476 L 102.76433569337573,82.97126839523476 L 102.79938689229455,82.97126839523476 L 102.82305899544984,82.97126839523476 L 104.31596051995261,82.97126839523476 L 104.34002685949658,82.97126839523476 L 105.89011058019054,82.97126839523476 L 105.9165244182306,82.97126839523476 L 107.40896002700131,82.97126839523476 L 107.43218413426041,82.97126839523476 L 107.45983444097398,82.97126839523476 L 108.96069237259327,82.97126839523476 L 108.98957914798038,82.97126839523476 L 109.01713985551471,82.97126839523476 L 110.50898410970242,82.97126839523476 L 110.53867727770269,82.97126839523476 L 110.56765365226902,82.97126839523476 L 112.0599279825171,82.97126839523476 L 112.08763204873823,82.97126839523476 L 112.11146543041615,82.97126839523476 L 113.60382935984347,82.97126839523476 L 113.63216062031928,40 L 113.66124451390068,40 L 115.18047027726428,40 L 115.20638235990059,40 L 116.69587911559222,40 L 116.72372654050012,40 L 116.74238108961796,40 L 118.24800569757285,40 L 118.27572768362982,40 L 118.30404102426978,40 L 119.79334066176708,40 L 119.82217367764662,40 L 119.8576191129541,40 L 121.34797602076645,40 L 121.37822470367799,40 L 121.39974642653154,40 L 122.89521048756055,40 L 122.9194201857913,40 L 122.94905959428401,40 L 124.4460289215243,40 L 124.50089945889108,40 L 125.9900198980299,40 L 126.01969514619431,40 L 126.04704081569847,40 L 127.53997817987293,40 L 127.56805856264685,40 L 127.5973754140943,40 L 129.0888791914009,40 L 129.1175150890861,40 L 129.14973495394096,40 L 130.63643621524028,40 L 130.66657737913675,40 L 130.69754285548223,40 L 132.18738008805497,40 L 132.21694781720427,40 L 132.2451357189933,40 L 133.7377863657942,40 L 133.75905721094585,40 L 133.78849950124425,40 L 135.28061255296967,40 L 135.30797614230968,40 L 135.33969425176076,40 L 136.82958524384105,40 L 136.8567875546584,40 L 136.88673160036055,40 L 138.37800241980113,40 L 138.40377114375067,40 L 138.43554301270927,40 L 139.92749478591213,40 L 139.95326350986164,40 L 139.9771506510471,40 L 141.48107287459646,40 L 141.50302467351034,40 L 141.53497574082746,40 L 143.0246337750417,40 L 143.0499007435875,40 L 143.07832160324253,40 L 144.57217287904524,40 L 144.59442931516855,40 L 144.62808276689123,40 L 146.11885183092807,40 L 146.14497895159457,40 L 146.17703753792676,40 L 147.66540534395995,40 L 147.68977632071335,40 L 147.72445120307935,40 L 149.20957551882407,40 L 149.24106067040913,40 L 149.27338805427905,40 L 150.76329696619518,40 L 150.78843849589,40 L 150.81793454569595,40 L 152.31364948442683,40 L 152.34079803573667,40 L 152.373788453533,40 L 153.85930700566632,40 L 153.89102511511743,40 L 153.92607631403627,40 L 155.41064511486965,40 L 155.43476521392117,40 L 155.46632204484962,40 L 156.959976202458,40 L 156.98239391710393,40 L 157.01402242737578,40 L 158.50484525092017,40 L 158.5295746243905,40 L 158.56054010073598,40 L 160.0536925029406,40 L 160.08177288571454,40 L 161.60443925756095,40 L 161.63024382118218,40 L 161.65470439711478,40 L 163.15341194843234,40 L 163.18314095610427,40 L 163.21693776651375,40 L 164.69184777582504,40 L 164.72809960374568,40 L 164.7590113205836,40 L 166.24646521498858,40 L 166.265872397212,40 L 166.30266182020813,40 L 167.79524078766562,40 L 167.82276565552826,40 L 167.85328313597753,40 L 169.34580834392747,40 L 169.371810025743,40 L 169.39933489360564,40 L 170.88997851879157,40 L 170.91965376695597,40 L 170.94907813741852,40 L 172.43733842443663,40 L 172.464540735254,40 L 172.4952194942259,40 L 173.99068355525492,40 L 174.0212727150476,40 L 174.0542631328439,40 L 175.54150198921866,40 L 175.56463649729852,40 L 175.61576178897306,40 L 177.09049259992588,40 L 177.1140213443944,40 L 177.14358907354372,40 L 178.6335875846391,40 L 178.66121997151683,40 L 178.69042930394917,40 L 180.18116252831433,40 L 180.2077734845487,40 L 180.2384880831923,40 L 181.73047569606683,40 L 181.75844855982567,40 L 181.78403808541668,40 L 183.27659913303836,40 L 183.30426735958778,40 L 183.33333333333334,40" fill="none" stroke="none"/>
  </g>
  <!-- 📊 Total Contributions Chart -->
  <g transform="translate(526.6666666666667, 250)">
    <!-- Chart Background -->
    <rect x="0" y="0" width="213.33333333333334" height="200" fill="#0f172a" stroke="#334155" stroke-width="1" rx="8" filter="url(#shadow)">
      <animate attributeName="opacity" values="0;1" dur="0.5s" begin="2.8s" fill="freeze"/>
    </rect>
    
    <!-- Chart Title -->
    <text x="106.66666666666667" y="25" text-anchor="middle" fill="#f8fafc" font-size="14" font-weight="bold" font-family="Arial, sans-serif">
      📊 Total Contributions
      <animate attributeName="opacity" values="0;1" dur="0.5s" begin="3s" fill="freeze"/>
    </text>
    
    <!-- Y-axis labels -->
    <text x="10" y="45" fill="#94a3b8" font-size="10" font-family="Arial, sans-serif">4,408
      <animate attributeName="opacity" values="0;1" dur="0.5s" begin="3.1999999999999997s" fill="freeze"/>
    </text>
    <text x="10" y="185" fill="#94a3b8" font-size="10" font-family="Arial, sans-serif">2,598
      <animate attributeName="opacity" values="0;1" dur="0.5s" begin="3.1999999999999997s" fill="freeze"/>
    </text>
    
    <!-- Chart Line with draw animation that follows the circle -->
    <path d="M 30,160 L 30.022220596451607,160 L 30.053006874438594,160 L 31.537235198390892,160 L 31.570834890606026,160 L 31.601782447115642,160 L 33.09694187093527,160 L 33.12568528763557,160 L 33.15489462006793,160 L 34.64609376016512,160 L 34.67603780586725,160 L 34.70972709726162,160 L 36.18945754241606,160 L 36.2145990721109,160 L 36.243378328482905,160 L 37.73810767624217,160 L 37.75681598486756,160 L 37.789734723320464,160 L 39.287474603502204,160 L 39.310071516506625,160 L 39.340804034986064,160 L 40.83741496550938,160 L 40.8600477181855,160 L 40.886945391793446,160 L 42.383090406584714,80.1767955801105 L 42.406045716306096,80.1767955801105 L 42.43550592644032,80.1767955801105 L 43.93285157023341,80.1767955801105 L 43.956667032075494,80.1767955801105 L 43.98987248790197,80.1767955801105 L 45.472272988597766,80.1767955801105 L 45.50560388327518,80.1767955801105 L 45.538235904354515,80.1767955801105 L 47.030044318870544,80.1767955801105 L 47.047551998494114,80.1767955801105 L 47.077406445017,80.1767955801105 L 48.57552264175155,80.1767955801105 L 48.600019057355865,80.1767955801105 L 48.63223892221069,80.1767955801105 L 50.11748867680633,80.1767955801105 L 50.14963686231777,80.1767955801105 L 50.17836235918223,80.1767955801105 L 51.672643711045296,80.1767955801105 L 51.69792859942693,80.1767955801105 L 51.72568642515559,80.1767955801105 L 53.218713388509286,80.1767955801105 L 53.243514441323015,80.1767955801105 L 53.26858429167447,80.1767955801105 L 53.30831256774964,80.1767955801105 L 54.77257819456719,80.1767955801105 L 54.79874115490537,80.1767955801105 L 54.825943465722744,80.1767955801105 L 56.319794741525456,80.1767955801105 L 56.34588602252025,80.1767955801105 L 56.37439648135453,80.1767955801105 L 57.86728008602145,80.1767955801105 L 57.891292666057865,80.1767955801105 L 57.91869209506956,80.1767955801105 L 59.41100226498934,80.1767955801105 L 59.43985320070473,80.1767955801105 L 60.970153422622424,80.1767955801105 L 60.987679022081835,80.1767955801105 L 61.01549060731804,80.1767955801105 L 62.51072171048106,80.1767955801105 L 62.53539732444385,80.1767955801105 L 62.56589688505726,80.1767955801105 L 64.05861921120155,80.1767955801105 L 64.08270347058135,80.1767955801105 L 64.1097803425478,80.1767955801105 L 65.60959892368791,80.1767955801105 L 65.63543932698084,80.1767955801105 L 65.6678204703583,80.1767955801105 L 67.15948552618755,80.1767955801105 L 67.18733295109544,80.1767955801105 L 67.21403350650908,80.1767955801105 L 68.71033979982298,80.1767955801105 L 68.72747116289372,80.1767955801105 L 68.75648337713176,80.1767955801105 L 70.25323766634185,80.1767955801105 L 70.27563746115194,80.1767955801105 L 70.30133450575806,80.1767955801105 L 71.80118892656989,80.1767955801105 L 71.8220655353329,80.1767955801105 L 71.85372988527644,80.1767955801105 L 73.34878179008096,80.1767955801105 L 73.37168334029481,80.1767955801105 L 73.4015377868177,80.1767955801105 L 74.89409883443933,80.1767955801105 L 74.91615815236831,80.1767955801105 L 74.94864681476086,80.1767955801105 L 76.44140498057685,80.1767955801105 L 76.47378612395431,80.1767955801105 L 76.506848221094,80.1767955801105 L 77.99492930975364,80.1767955801105 L 78.01870893192402,80.1767955801105 L 78.04861713795447,80.1767955801105 L 79.54280889063828,80.1767955801105 L 79.56624803592757,80.1767955801105 L 79.596156241958,80.1767955801105 L 81.09181742118136,80.1767955801105 L 81.12260369916834,80.1767955801105 L 81.15898096593993,80.1767955801105 L 82.64050339467917,80.1767955801105 L 82.66286734981756,80.1767955801105 L 82.69146740783108,80.1767955801105 L 84.1904258368505,80.1767955801105 L 84.2094029430136,80.1767955801105 L 84.23934698871574,80.1767955801105 L 85.73361042074293,80.1767955801105 L 85.75593853620964,80.1767955801105 L 85.78444899504392,80.1767955801105 L 85.82346047768517,80.1767955801105 L 87.28598788042547,80.1767955801105 L 87.31578856744079,80.1767955801105 L 87.34537421642597,80.1767955801105 L 88.83044477266313,80.1767955801105 L 88.85773668265973,80.1767955801105 L 88.88624714149401,80.1767955801105 L 90.38138864547778,80.1767955801105 L 90.39672802496374,80.1767955801105 L 90.4327289751825,80.1767955801105 L 91.92801383785307,80.1767955801105 L 91.95346000475733,80.1767955801105 L 91.97437245319203,80.1767955801105 L 93.4774524444565,80.1767955801105 L 93.50150086416461,80.1767955801105 L 93.53076395610451,80.1767955801105 L 95.02656849401467,80.1767955801105 L 95.0522655386208,80.1767955801105 L 95.08043552057396,80.1767955801105 L 96.57346248392767,80.1767955801105 L 96.59387317695862,80.1767955801105 L 96.62539416821538,80.1767955801105 L 98.12453179559327,80.1767955801105 L 98.1465731936864,80.1767955801105 L 98.17748491052431,80.1767955801105 L 99.67171250287984,80.1767955801105 L 99.69739162765012,80.1767955801105 L 99.7283212643239,80.1767955801105 L 101.21909032836074,80.1767955801105 L 101.24387346133862,80.1767955801105 L 101.26242049144138,80.1767955801105 L 102.76433569337573,80.1767955801105 L 102.79938689229455,80.1767955801105 L 102.82305899544984,80.1767955801105 L 104.31596051995261,80.1767955801105 L 104.34002685949658,80.1767955801105 L 105.89011058019054,80.1767955801105 L 105.9165244182306,80.1767955801105 L 107.40896002700131,80.1767955801105 L 107.43218413426041,80.1767955801105 L 107.45983444097398,80.1767955801105 L 108.96069237259327,80.1767955801105 L 108.98957914798038,80.1767955801105 L 109.01713985551471,80.1767955801105 L 110.50898410970242,80.1767955801105 L 110.53867727770269,80.1767955801105 L 110.56765365226902,80.1767955801105 L 112.0599279825171,80.1767955801105 L 112.08763204873823,80.1767955801105 L 112.11146543041615,80.1767955801105 L 113.60382935984347,80.1767955801105 L 113.63216062031928,40 L 113.66124451390068,40 L 115.18047027726428,40 L 115.20638235990059,40 L 116.69587911559222,40 L 116.72372654050012,40 L 116.74238108961796,40 L 118.24800569757285,40 L 118.27572768362982,40 L 118.30404102426978,40 L 119.79334066176708,40 L 119.82217367764662,40 L 119.8576191129541,40 L 121.34797602076645,40 L 121.37822470367799,40 L 121.39974642653154,40 L 122.89521048756055,40 L 122.9194201857913,40 L 122.94905959428401,40 L 124.4460289215243,40 L 124.50089945889108,40 L 125.9900198980299,40 L 126.01969514619431,40 L 126.04704081569847,40 L 127.53997817987293,40 L 127.56805856264685,40 L 127.5973754140943,40 L 129.0888791914009,40 L 129.1175150890861,40 L 129.14973495394096,40 L 130.63643621524028,40 L 130.66657737913675,40 L 130.69754285548223,40 L 132.18738008805497,40 L 132.21694781720427,40 L 132.2451357189933,40 L 133.7377863657942,40 L 133.75905721094585,40 L 133.78849950124425,40 L 135.28061255296967,40 L 135.30797614230968,40 L 135.33969425176076,40 L 136.82958524384105,40 L 136.8567875546584,40 L 136.88673160036055,40 L 138.37800241980113,40 L 138.40377114375067,40 L 138.43554301270927,40 L 139.92749478591213,40 L 139.95326350986164,40 L 139.9771506510471,40 L 141.48107287459646,40 L 141.50302467351034,40 L 141.53497574082746,40 L 143.0246337750417,40 L 143.0499007435875,40 L 143.07832160324253,40 L 144.57217287904524,40 L 144.59442931516855,40 L 144.62808276689123,40 L 146.11885183092807,40 L 146.14497895159457,40 L 146.17703753792676,40 L 147.66540534395995,40 L 147.68977632071335,40 L 147.72445120307935,40 L 149.20957551882407,40 L 149.24106067040913,40 L 149.27338805427905,40 L 150.76329696619518,40 L 150.78843849589,40 L 150.81793454569595,40 L 152.31364948442683,40 L 152.34079803573667,40 L 152.373788453533,40 L 153.85930700566632,40 L 153.89102511511743,40 L 153.92607631403627,40 L 155.41064511486965,40 L 155.43476521392117,40 L 155.46632204484962,40 L 156.959976202458,40 L 156.98239391710393,40 L 157.01402242737578,40 L 158.50484525092017,40 L 158.5295746243905,40 L 158.56054010073598,40 L 160.0536925029406,40 L 160.08177288571454,40 L 161.60443925756095,40 L 161.63024382118218,40 L 161.65470439711478,40 L 163.15341194843234,40 L 163.18314095610427,40 L 163.21693776651375,40 L 164.69184777582504,40 L 164.72809960374568,40 L 164.7590113205836,40 L 166.24646521498858,40 L 166.265872397212,40 L 166.30266182020813,40 L 167.79524078766562,40 L 167.82276565552826,40 L 167.85328313597753,40 L 169.34580834392747,40 L 169.371810025743,40 L 169.39933489360564,40 L 170.88997851879157,40 L 170.91965376695597,40 L 170.94907813741852,40 L 172.43733842443663,40 L 172.464540735254,40 L 172.4952194942259,40 L 173.99068355525492,40 L 174.0212727150476,40 L 174.0542631328439,40 L 175.54150198921866,40 L 175.56463649729852,40 L 175.61576178897306,40 L 177.09049259992588,40 L 177.1140213443944,40 L 177.14358907354372,40 L 178.6335875846391,40 L 178.66121997151683,40 L 178.69042930394917,40 L 180.18116252831433,40 L 180.2077734845487,40 L 180.2384880831923,40 L 181.73047569606683,40 L 181.75844855982567,40 L 181.78403808541668,40 L 183.27659913303836,40 L 183.30426735958778,40 L 183.33333333333334,40" stroke="#f59e0b" stroke-width="2" fill="none" stroke-dasharray="14800" stroke-dashoffset="14800">
      <animate attributeName="stroke-dashoffset" values="14800;0" dur="3s" begin="3.5999999999999996s" fill="freeze"/>
    </path>
    
    <!-- Glow effect for the line that also follows the circle -->
    <path d="M 30,160 L 30.022220596451607,160 L 30.053006874438594,160 L 31.537235198390892,160 L 31.570834890606026,160 L 31.601782447115642,160 L 33.09694187093527,160 L 33.12568528763557,160 L 33.15489462006793,160 L 34.64609376016512,160 L 34.67603780586725,160 L 34.70972709726162,160 L 36.18945754241606,160 L 36.2145990721109,160 L 36.243378328482905,160 L 37.73810767624217,160 L 37.75681598486756,160 L 37.789734723320464,160 L 39.287474603502204,160 L 39.310071516506625,160 L 39.340804034986064,160 L 40.83741496550938,160 L 40.8600477181855,160 L 40.886945391793446,160 L 42.383090406584714,80.1767955801105 L 42.406045716306096,80.1767955801105 L 42.43550592644032,80.1767955801105 L 43.93285157023341,80.1767955801105 L 43.956667032075494,80.1767955801105 L 43.98987248790197,80.1767955801105 L 45.472272988597766,80.1767955801105 L 45.50560388327518,80.1767955801105 L 45.538235904354515,80.1767955801105 L 47.030044318870544,80.1767955801105 L 47.047551998494114,80.1767955801105 L 47.077406445017,80.1767955801105 L 48.57552264175155,80.1767955801105 L 48.600019057355865,80.1767955801105 L 48.63223892221069,80.1767955801105 L 50.11748867680633,80.1767955801105 L 50.14963686231777,80.1767955801105 L 50.17836235918223,80.1767955801105 L 51.672643711045296,80.1767955801105 L 51.69792859942693,80.1767955801105 L 51.72568642515559,80.1767955801105 L 53.218713388509286,80.1767955801105 L 53.243514441323015,80.1767955801105 L 53.26858429167447,80.1767955801105 L 53.30831256774964,80.1767955801105 L 54.77257819456719,80.1767955801105 L 54.79874115490537,80.1767955801105 L 54.825943465722744,80.1767955801105 L 56.319794741525456,80.1767955801105 L 56.34588602252025,80.1767955801105 L 56.37439648135453,80.1767955801105 L 57.86728008602145,80.1767955801105 L 57.891292666057865,80.1767955801105 L 57.91869209506956,80.1767955801105 L 59.41100226498934,80.1767955801105 L 59.43985320070473,80.1767955801105 L 60.970153422622424,80.1767955801105 L 60.987679022081835,80.1767955801105 L 61.01549060731804,80.1767955801105 L 62.51072171048106,80.1767955801105 L 62.53539732444385,80.1767955801105 L 62.56589688505726,80.1767955801105 L 64.05861921120155,80.1767955801105 L 64.08270347058135,80.1767955801105 L 64.1097803425478,80.1767955801105 L 65.60959892368791,80.1767955801105 L 65.63543932698084,80.1767955801105 L 65.6678204703583,80.1767955801105 L 67.15948552618755,80.1767955801105 L 67.18733295109544,80.1767955801105 L 67.21403350650908,80.1767955801105 L 68.71033979982298,80.1767955801105 L 68.72747116289372,80.1767955801105 L 68.75648337713176,80.1767955801105 L 70.25323766634185,80.1767955801105 L 70.27563746115194,80.1767955801105 L 70.30133450575806,80.1767955801105 L 71.80118892656989,80.1767955801105 L 71.8220655353329,80.1767955801105 L 71.85372988527644,80.1767955801105 L 73.34878179008096,80.1767955801105 L 73.37168334029481,80.1767955801105 L 73.4015377868177,80.1767955801105 L 74.89409883443933,80.1767955801105 L 74.91615815236831,80.1767955801105 L 74.94864681476086,80.1767955801105 L 76.44140498057685,80.1767955801105 L 76.47378612395431,80.1767955801105 L 76.506848221094,80.1767955801105 L 77.99492930975364,80.1767955801105 L 78.01870893192402,80.1767955801105 L 78.04861713795447,80.1767955801105 L 79.54280889063828,80.1767955801105 L 79.56624803592757,80.1767955801105 L 79.596156241958,80.1767955801105 L 81.09181742118136,80.1767955801105 L 81.12260369916834,80.1767955801105 L 81.15898096593993,80.1767955801105 L 82.64050339467917,80.1767955801105 L 82.66286734981756,80.1767955801105 L 82.69146740783108,80.1767955801105 L 84.1904258368505,80.1767955801105 L 84.2094029430136,80.1767955801105 L 84.23934698871574,80.1767955801105 L 85.73361042074293,80.1767955801105 L 85.75593853620964,80.1767955801105 L 85.78444899504392,80.1767955801105 L 85.82346047768517,80.1767955801105 L 87.28598788042547,80.1767955801105 L 87.31578856744079,80.1767955801105 L 87.34537421642597,80.1767955801105 L 88.83044477266313,80.1767955801105 L 88.85773668265973,80.1767955801105 L 88.88624714149401,80.1767955801105 L 90.38138864547778,80.1767955801105 L 90.39672802496374,80.1767955801105 L 90.4327289751825,80.1767955801105 L 91.92801383785307,80.1767955801105 L 91.95346000475733,80.1767955801105 L 91.97437245319203,80.1767955801105 L 93.4774524444565,80.1767955801105 L 93.50150086416461,80.1767955801105 L 93.53076395610451,80.1767955801105 L 95.02656849401467,80.1767955801105 L 95.0522655386208,80.1767955801105 L 95.08043552057396,80.1767955801105 L 96.57346248392767,80.1767955801105 L 96.59387317695862,80.1767955801105 L 96.62539416821538,80.1767955801105 L 98.12453179559327,80.1767955801105 L 98.1465731936864,80.1767955801105 L 98.17748491052431,80.1767955801105 L 99.67171250287984,80.1767955801105 L 99.69739162765012,80.1767955801105 L 99.7283212643239,80.1767955801105 L 101.21909032836074,80.1767955801105 L 101.24387346133862,80.1767955801105 L 101.26242049144138,80.1767955801105 L 102.76433569337573,80.1767955801105 L 102.79938689229455,80.1767955801105 L 102.82305899544984,80.1767955801105 L 104.31596051995261,80.1767955801105 L 104.34002685949658,80.1767955801105 L 105.89011058019054,80.1767955801105 L 105.9165244182306,80.1767955801105 L 107.40896002700131,80.1767955801105 L 107.43218413426041,80.1767955801105 L 107.45983444097398,80.1767955801105 L 108.96069237259327,80.1767955801105 L 108.98957914798038,80.1767955801105 L 109.01713985551471,80.1767955801105 L 110.50898410970242,80.1767955801105 L 110.53867727770269,80.1767955801105 L 110.56765365226902,80.1767955801105 L 112.0599279825171,80.1767955801105 L 112.08763204873823,80.1767955801105 L 112.11146543041615,80.1767955801105 L 113.60382935984347,80.1767955801105 L 113.63216062031928,40 L 113.66124451390068,40 L 115.18047027726428,40 L 115.20638235990059,40 L 116.69587911559222,40 L 116.72372654050012,40 L 116.74238108961796,40 L 118.24800569757285,40 L 118.27572768362982,40 L 118.30404102426978,40 L 119.79334066176708,40 L 119.82217367764662,40 L 119.8576191129541,40 L 121.34797602076645,40 L 121.37822470367799,40 L 121.39974642653154,40 L 122.89521048756055,40 L 122.9194201857913,40 L 122.94905959428401,40 L 124.4460289215243,40 L 124.50089945889108,40 L 125.9900198980299,40 L 126.01969514619431,40 L 126.04704081569847,40 L 127.53997817987293,40 L 127.56805856264685,40 L 127.5973754140943,40 L 129.0888791914009,40 L 129.1175150890861,40 L 129.14973495394096,40 L 130.63643621524028,40 L 130.66657737913675,40 L 130.69754285548223,40 L 132.18738008805497,40 L 132.21694781720427,40 L 132.2451357189933,40 L 133.7377863657942,40 L 133.75905721094585,40 L 133.78849950124425,40 L 135.28061255296967,40 L 135.30797614230968,40 L 135.33969425176076,40 L 136.82958524384105,40 L 136.8567875546584,40 L 136.88673160036055,40 L 138.37800241980113,40 L 138.40377114375067,40 L 138.43554301270927,40 L 139.92749478591213,40 L 139.95326350986164,40 L 139.9771506510471,40 L 141.48107287459646,40 L 141.50302467351034,40 L 141.53497574082746,40 L 143.0246337750417,40 L 143.0499007435875,40 L 143.07832160324253,40 L 144.57217287904524,40 L 144.59442931516855,40 L 144.62808276689123,40 L 146.11885183092807,40 L 146.14497895159457,40 L 146.17703753792676,40 L 147.66540534395995,40 L 147.68977632071335,40 L 147.72445120307935,40 L 149.20957551882407,40 L 149.24106067040913,40 L 149.27338805427905,40 L 150.76329696619518,40 L 150.78843849589,40 L 150.81793454569595,40 L 152.31364948442683,40 L 152.34079803573667,40 L 152.373788453533,40 L 153.85930700566632,40 L 153.89102511511743,40 L 153.92607631403627,40 L 155.41064511486965,40 L 155.43476521392117,40 L 155.46632204484962,40 L 156.959976202458,40 L 156.98239391710393,40 L 157.01402242737578,40 L 158.50484525092017,40 L 158.5295746243905,40 L 158.56054010073598,40 L 160.0536925029406,40 L 160.08177288571454,40 L 161.60443925756095,40 L 161.63024382118218,40 L 161.65470439711478,40 L 163.15341194843234,40 L 163.18314095610427,40 L 163.21693776651375,40 L 164.69184777582504,40 L 164.72809960374568,40 L 164.7590113205836,40 L 166.24646521498858,40 L 166.265872397212,40 L 166.30266182020813,40 L 167.79524078766562,40 L 167.82276565552826,40 L 167.85328313597753,40 L 169.34580834392747,40 L 169.371810025743,40 L 169.39933489360564,40 L 170.88997851879157,40 L 170.91965376695597,40 L 170.94907813741852,40 L 172.43733842443663,40 L 172.464540735254,40 L 172.4952194942259,40 L 173.99068355525492,40 L 174.0212727150476,40 L 174.0542631328439,40 L 175.54150198921866,40 L 175.56463649729852,40 L 175.61576178897306,40 L 177.09049259992588,40 L 177.1140213443944,40 L 177.14358907354372,40 L 178.6335875846391,40 L 178.66121997151683,40 L 178.69042930394917,40 L 180.18116252831433,40 L 180.2077734845487,40 L 180.2384880831923,40 L 181.73047569606683,40 L 181.75844855982567,40 L 181.78403808541668,40 L 183.27659913303836,40 L 183.30426735958778,40 L 183.33333333333334,40" stroke="#f59e0b" stroke-width="4" fill="none" opacity="0.4" stroke-dasharray="14800" stroke-dashoffset="14800">
      <animate attributeName="stroke-dashoffset" values="14800;0" dur="3s" begin="3.5999999999999996s" fill="freeze"/>
    </path>
    
    <!-- Animated circle that moves along the path and draws the line -->
    <circle r="5" fill="#f59e0b" opacity="0" filter="url(#trailGlow)">
      <animate attributeName="opacity" values="0;1;1;1" dur="3.2s" begin="3.4s" fill="freeze"/>
      <animate attributeName="r" values="5;6;5" dur="1s" begin="3.4s" repeatCount="3"/>
      <animateMotion dur="3s" begin="3.4s" fill="freeze">
        <mpath href="#path_totalContributions_526.6666666666667"/>
      </animateMotion>
    </circle>
    
    <!-- Small trail dots that fade out -->
    <circle r="2" fill="#f59e0b" opacity="0">
      <animate attributeName="opacity" values="0;0.6;0" dur="0.8s" begin="3.8s" fill="freeze"/>
      <animateMotion dur="3s" begin="3.4s" fill="freeze">
        <mpath href="#path_totalContributions_526.6666666666667"/>
      </animateMotion>
    </circle>
    
    <!-- Hidden path for motion animation -->
    <path id="path_totalContributions_526.6666666666667" d="M 30,160 L 30.022220596451607,160 L 30.053006874438594,160 L 31.537235198390892,160 L 31.570834890606026,160 L 31.601782447115642,160 L 33.09694187093527,160 L 33.12568528763557,160 L 33.15489462006793,160 L 34.64609376016512,160 L 34.67603780586725,160 L 34.70972709726162,160 L 36.18945754241606,160 L 36.2145990721109,160 L 36.243378328482905,160 L 37.73810767624217,160 L 37.75681598486756,160 L 37.789734723320464,160 L 39.287474603502204,160 L 39.310071516506625,160 L 39.340804034986064,160 L 40.83741496550938,160 L 40.8600477181855,160 L 40.886945391793446,160 L 42.383090406584714,80.1767955801105 L 42.406045716306096,80.1767955801105 L 42.43550592644032,80.1767955801105 L 43.93285157023341,80.1767955801105 L 43.956667032075494,80.1767955801105 L 43.98987248790197,80.1767955801105 L 45.472272988597766,80.1767955801105 L 45.50560388327518,80.1767955801105 L 45.538235904354515,80.1767955801105 L 47.030044318870544,80.1767955801105 L 47.047551998494114,80.1767955801105 L 47.077406445017,80.1767955801105 L 48.57552264175155,80.1767955801105 L 48.600019057355865,80.1767955801105 L 48.63223892221069,80.1767955801105 L 50.11748867680633,80.1767955801105 L 50.14963686231777,80.1767955801105 L 50.17836235918223,80.1767955801105 L 51.672643711045296,80.1767955801105 L 51.69792859942693,80.1767955801105 L 51.72568642515559,80.1767955801105 L 53.218713388509286,80.1767955801105 L 53.243514441323015,80.1767955801105 L 53.26858429167447,80.1767955801105 L 53.30831256774964,80.1767955801105 L 54.77257819456719,80.1767955801105 L 54.79874115490537,80.1767955801105 L 54.825943465722744,80.1767955801105 L 56.319794741525456,80.1767955801105 L 56.34588602252025,80.1767955801105 L 56.37439648135453,80.1767955801105 L 57.86728008602145,80.1767955801105 L 57.891292666057865,80.1767955801105 L 57.91869209506956,80.1767955801105 L 59.41100226498934,80.1767955801105 L 59.43985320070473,80.1767955801105 L 60.970153422622424,80.1767955801105 L 60.987679022081835,80.1767955801105 L 61.01549060731804,80.1767955801105 L 62.51072171048106,80.1767955801105 L 62.53539732444385,80.1767955801105 L 62.56589688505726,80.1767955801105 L 64.05861921120155,80.1767955801105 L 64.08270347058135,80.1767955801105 L 64.1097803425478,80.1767955801105 L 65.60959892368791,80.1767955801105 L 65.63543932698084,80.1767955801105 L 65.6678204703583,80.1767955801105 L 67.15948552618755,80.1767955801105 L 67.18733295109544,80.1767955801105 L 67.21403350650908,80.1767955801105 L 68.71033979982298,80.1767955801105 L 68.72747116289372,80.1767955801105 L 68.75648337713176,80.1767955801105 L 70.25323766634185,80.1767955801105 L 70.27563746115194,80.1767955801105 L 70.30133450575806,80.1767955801105 L 71.80118892656989,80.1767955801105 L 71.8220655353329,80.1767955801105 L 71.85372988527644,80.1767955801105 L 73.34878179008096,80.1767955801105 L 73.37168334029481,80.1767955801105 L 73.4015377868177,80.1767955801105 L 74.89409883443933,80.1767955801105 L 74.91615815236831,80.1767955801105 L 74.94864681476086,80.1767955801105 L 76.44140498057685,80.1767955801105 L 76.47378612395431,80.1767955801105 L 76.506848221094,80.1767955801105 L 77.99492930975364,80.1767955801105 L 78.01870893192402,80.1767955801105 L 78.04861713795447,80.1767955801105 L 79.54280889063828,80.1767955801105 L 79.56624803592757,80.1767955801105 L 79.596156241958,80.1767955801105 L 81.09181742118136,80.1767955801105 L 81.12260369916834,80.1767955801105 L 81.15898096593993,80.1767955801105 L 82.64050339467917,80.1767955801105 L 82.66286734981756,80.1767955801105 L 82.69146740783108,80.1767955801105 L 84.1904258368505,80.1767955801105 L 84.2094029430136,80.1767955801105 L 84.23934698871574,80.1767955801105 L 85.73361042074293,80.1767955801105 L 85.75593853620964,80.1767955801105 L 85.78444899504392,80.1767955801105 L 85.82346047768517,80.1767955801105 L 87.28598788042547,80.1767955801105 L 87.31578856744079,80.1767955801105 L 87.34537421642597,80.1767955801105 L 88.83044477266313,80.1767955801105 L 88.85773668265973,80.1767955801105 L 88.88624714149401,80.1767955801105 L 90.38138864547778,80.1767955801105 L 90.39672802496374,80.1767955801105 L 90.4327289751825,80.1767955801105 L 91.92801383785307,80.1767955801105 L 91.95346000475733,80.1767955801105 L 91.97437245319203,80.1767955801105 L 93.4774524444565,80.1767955801105 L 93.50150086416461,80.1767955801105 L 93.53076395610451,80.1767955801105 L 95.02656849401467,80.1767955801105 L 95.0522655386208,80.1767955801105 L 95.08043552057396,80.1767955801105 L 96.57346248392767,80.1767955801105 L 96.59387317695862,80.1767955801105 L 96.62539416821538,80.1767955801105 L 98.12453179559327,80.1767955801105 L 98.1465731936864,80.1767955801105 L 98.17748491052431,80.1767955801105 L 99.67171250287984,80.1767955801105 L 99.69739162765012,80.1767955801105 L 99.7283212643239,80.1767955801105 L 101.21909032836074,80.1767955801105 L 101.24387346133862,80.1767955801105 L 101.26242049144138,80.1767955801105 L 102.76433569337573,80.1767955801105 L 102.79938689229455,80.1767955801105 L 102.82305899544984,80.1767955801105 L 104.31596051995261,80.1767955801105 L 104.34002685949658,80.1767955801105 L 105.89011058019054,80.1767955801105 L 105.9165244182306,80.1767955801105 L 107.40896002700131,80.1767955801105 L 107.43218413426041,80.1767955801105 L 107.45983444097398,80.1767955801105 L 108.96069237259327,80.1767955801105 L 108.98957914798038,80.1767955801105 L 109.01713985551471,80.1767955801105 L 110.50898410970242,80.1767955801105 L 110.53867727770269,80.1767955801105 L 110.56765365226902,80.1767955801105 L 112.0599279825171,80.1767955801105 L 112.08763204873823,80.1767955801105 L 112.11146543041615,80.1767955801105 L 113.60382935984347,80.1767955801105 L 113.63216062031928,40 L 113.66124451390068,40 L 115.18047027726428,40 L 115.20638235990059,40 L 116.69587911559222,40 L 116.72372654050012,40 L 116.74238108961796,40 L 118.24800569757285,40 L 118.27572768362982,40 L 118.30404102426978,40 L 119.79334066176708,40 L 119.82217367764662,40 L 119.8576191129541,40 L 121.34797602076645,40 L 121.37822470367799,40 L 121.39974642653154,40 L 122.89521048756055,40 L 122.9194201857913,40 L 122.94905959428401,40 L 124.4460289215243,40 L 124.50089945889108,40 L 125.9900198980299,40 L 126.01969514619431,40 L 126.04704081569847,40 L 127.53997817987293,40 L 127.56805856264685,40 L 127.5973754140943,40 L 129.0888791914009,40 L 129.1175150890861,40 L 129.14973495394096,40 L 130.63643621524028,40 L 130.66657737913675,40 L 130.69754285548223,40 L 132.18738008805497,40 L 132.21694781720427,40 L 132.2451357189933,40 L 133.7377863657942,40 L 133.75905721094585,40 L 133.78849950124425,40 L 135.28061255296967,40 L 135.30797614230968,40 L 135.33969425176076,40 L 136.82958524384105,40 L 136.8567875546584,40 L 136.88673160036055,40 L 138.37800241980113,40 L 138.40377114375067,40 L 138.43554301270927,40 L 139.92749478591213,40 L 139.95326350986164,40 L 139.9771506510471,40 L 141.48107287459646,40 L 141.50302467351034,40 L 141.53497574082746,40 L 143.0246337750417,40 L 143.0499007435875,40 L 143.07832160324253,40 L 144.57217287904524,40 L 144.59442931516855,40 L 144.62808276689123,40 L 146.11885183092807,40 L 146.14497895159457,40 L 146.17703753792676,40 L 147.66540534395995,40 L 147.68977632071335,40 L 147.72445120307935,40 L 149.20957551882407,40 L 149.24106067040913,40 L 149.27338805427905,40 L 150.76329696619518,40 L 150.78843849589,40 L 150.81793454569595,40 L 152.31364948442683,40 L 152.34079803573667,40 L 152.373788453533,40 L 153.85930700566632,40 L 153.89102511511743,40 L 153.92607631403627,40 L 155.41064511486965,40 L 155.43476521392117,40 L 155.46632204484962,40 L 156.959976202458,40 L 156.98239391710393,40 L 157.01402242737578,40 L 158.50484525092017,40 L 158.5295746243905,40 L 158.56054010073598,40 L 160.0536925029406,40 L 160.08177288571454,40 L 161.60443925756095,40 L 161.63024382118218,40 L 161.65470439711478,40 L 163.15341194843234,40 L 163.18314095610427,40 L 163.21693776651375,40 L 164.69184777582504,40 L 164.72809960374568,40 L 164.7590113205836,40 L 166.24646521498858,40 L 166.265872397212,40 L 166.30266182020813,40 L 167.79524078766562,40 L 167.82276565552826,40 L 167.85328313597753,40 L 169.34580834392747,40 L 169.371810025743,40 L 169.39933489360564,40 L 170.88997851879157,40 L 170.91965376695597,40 L 170.94907813741852,40 L 172.43733842443663,40 L 172.464540735254,40 L 172.4952194942259,40 L 173.99068355525492,40 L 174.0212727150476,40 L 174.0542631328439,40 L 175.54150198921866,40 L 175.56463649729852,40 L 175.61576178897306,40 L 177.09049259992588,40 L 177.1140213443944,40 L 177.14358907354372,40 L 178.6335875846391,40 L 178.66121997151683,40 L 178.69042930394917,40 L 180.18116252831433,40 L 180.2077734845487,40 L 180.2384880831923,40 L 181.73047569606683,40 L 181.75844855982567,40 L 181.78403808541668,40 L 183.27659913303836,40 L 183.30426735958778,40 L 183.33333333333334,40" fill="none" stroke="none"/>
  </g>
  
  <!-- Footer -->
  <text x="400" y="580" text-anchor="middle" fill="#64748b" font-size="12" font-family="Arial, sans-serif">
    Generated by GitHub User Rank Tracker • 12/6/2025
    <animate attributeName="opacity" values="0;1" dur="0.5s" begin="5s" fill="freeze"/>
  </text>
</svg>