<svg width="800" height="600" xmlns="http://www.w3.org/2000/svg">
  <defs>
    <linearGradient id="bgGradient" x1="0%" y1="0%" x2="100%" y2="100%">
      <stop offset="0%" style="stop-color:#1e293b;stop-opacity:1" />
      <stop offset="100%" style="stop-color:#0f172a;stop-opacity:1" />
    </linearGradient>
    <filter id="shadow" x="-20%" y="-20%" width="140%" height="140%">
      <feDropShadow dx="2" dy="2" stdDeviation="3" flood-color="#000" flood-opacity="0.3"/>
    </filter>
    <!-- Trail effect filter -->
    <filter id="trailGlow" x="-50%" y="-50%" width="200%" height="200%">
      <feGaussianBlur stdDeviation="3" result="coloredBlur"/>
      <feMerge> 
        <feMergeNode in="coloredBlur"/>
        <feMergeNode in="SourceGraphic"/>
      </feMerge>
    </filter>
  </defs>
  
  <!-- Background -->
  <rect width="800" height="600" fill="url(#bgGradient)" rx="12"/>
  
  <!-- Header -->
  <text x="400" y="40" text-anchor="middle" fill="#f8fafc" font-size="24" font-weight="bold" font-family="Arial, sans-serif">
    GitHub Progress Report
    <animate attributeName="opacity" values="0;1" dur="0.8s" begin="0s" fill="freeze"/>
    <animateTransform attributeName="transform" type="translate" values="0,-20;0,0" dur="0.8s" begin="0s" fill="freeze"/>
  </text>
  
  <!-- User Info -->
  <text x="400" y="70" text-anchor="middle" fill="#cbd5e1" font-size="16" font-family="Arial, sans-serif">
    @maifeeulasad • BANGLADESH • 100 days analyzed
    <animate attributeName="opacity" values="0;1" dur="0.6s" begin="0.3s" fill="freeze"/>
  </text>
  
  <!-- Progress Cards -->
  <!-- Followers Card -->
  <g transform="translate(60, 100)">
    <rect width="206.66666666666666" height="120" fill="#1e293b" stroke="#334155" stroke-width="1" rx="8" filter="url(#shadow)">
      <animate attributeName="opacity" values="0;1" dur="0.6s" begin="0.2s" fill="freeze"/>
      <animateTransform attributeName="transform" type="scale" values="0.8;1" dur="0.6s" begin="0.2s" fill="freeze"/>
    </rect>
    <text x="103.33333333333333" y="25" text-anchor="middle" fill="#94a3b8" font-size="14" font-weight="bold" font-family="Arial, sans-serif">FOLLOWERS
      <animate attributeName="opacity" values="0;1" dur="0.5s" begin="0.4s" fill="freeze"/>
    </text>
    
    <text x="103.33333333333333" y="50" text-anchor="middle" fill="#ef4444" font-size="32" font-weight="bold" font-family="Arial, sans-serif">
      ↘
      <animate attributeName="opacity" values="0;1" dur="0.5s" begin="0.6s" fill="freeze"/>
      <animateTransform attributeName="transform" type="scale" values="0;1.2;1" dur="0.8s" begin="0.6s" fill="freeze"/>
    </text>
    
    <text x="103.33333333333333" y="75" text-anchor="middle" fill="#f8fafc" font-size="18" font-weight="bold" font-family="Arial, sans-serif">
      -14
      <animate attributeName="opacity" values="0;1" dur="0.5s" begin="0.8s" fill="freeze"/>
    </text>
    
    <text x="103.33333333333333" y="95" text-anchor="middle" fill="#94a3b8" font-size="12" font-family="Arial, sans-serif">
      #458 → #472
      <animate attributeName="opacity" values="0;1" dur="0.5s" begin="1s" fill="freeze"/>
    </text>
  </g>
  
  <!-- Public Contributions Card -->
  <g transform="translate(296.66666666666663, 100)">
    <rect width="206.66666666666666" height="120" fill="#1e293b" stroke="#334155" stroke-width="1" rx="8" filter="url(#shadow)">
      <animate attributeName="opacity" values="0;1" dur="0.6s" begin="0.4s" fill="freeze"/>
      <animateTransform attributeName="transform" type="scale" values="0.8;1" dur="0.6s" begin="0.4s" fill="freeze"/>
    </rect>
    <text x="103.33333333333333" y="25" text-anchor="middle" fill="#94a3b8" font-size="14" font-weight="bold" font-family="Arial, sans-serif">PUBLIC
      <animate attributeName="opacity" values="0;1" dur="0.5s" begin="0.6s" fill="freeze"/>
    </text>
    
    <text x="103.33333333333333" y="50" text-anchor="middle" fill="#6b7280" font-size="32" font-weight="bold" font-family="Arial, sans-serif">
      →
      <animate attributeName="opacity" values="0;1" dur="0.5s" begin="0.8s" fill="freeze"/>
      <animateTransform attributeName="transform" type="scale" values="0;1.2;1" dur="0.8s" begin="0.8s" fill="freeze"/>
    </text>
    
    <text x="103.33333333333333" y="75" text-anchor="middle" fill="#f8fafc" font-size="18" font-weight="bold" font-family="Arial, sans-serif">
      0
      <animate attributeName="opacity" values="0;1" dur="0.5s" begin="1s" fill="freeze"/>
    </text>
    
    <text x="103.33333333333333" y="95" text-anchor="middle" fill="#94a3b8" font-size="12" font-family="Arial, sans-serif">
      #6 → #6
      <animate attributeName="opacity" values="0;1" dur="0.5s" begin="1.2s" fill="freeze"/>
    </text>
  </g>
  
  <!-- Total Contributions Card -->
  <g transform="translate(533.3333333333333, 100)">
    <rect width="206.66666666666666" height="120" fill="#1e293b" stroke="#334155" stroke-width="1" rx="8" filter="url(#shadow)">
      <animate attributeName="opacity" values="0;1" dur="0.6s" begin="0.6s" fill="freeze"/>
      <animateTransform attributeName="transform" type="scale" values="0.8;1" dur="0.6s" begin="0.6s" fill="freeze"/>
    </rect>
    <text x="103.33333333333333" y="25" text-anchor="middle" fill="#94a3b8" font-size="14" font-weight="bold" font-family="Arial, sans-serif">TOTAL
      <animate attributeName="opacity" values="0;1" dur="0.5s" begin="0.8s" fill="freeze"/>
    </text>
    
    <text x="103.33333333333333" y="50" text-anchor="middle" fill="#22c55e" font-size="32" font-weight="bold" font-family="Arial, sans-serif">
      ↗
      <animate attributeName="opacity" values="0;1" dur="0.5s" begin="1s" fill="freeze"/>
      <animateTransform attributeName="transform" type="scale" values="0;1.2;1" dur="0.8s" begin="1s" fill="freeze"/>
    </text>
    
    <text x="103.33333333333333" y="75" text-anchor="middle" fill="#f8fafc" font-size="18" font-weight="bold" font-family="Arial, sans-serif">
      +5
      <animate attributeName="opacity" values="0;1" dur="0.5s" begin="1.2s" fill="freeze"/>
    </text>
    
    <text x="103.33333333333333" y="95" text-anchor="middle" fill="#94a3b8" font-size="12" font-family="Arial, sans-serif">
      #18 → #13
      <animate attributeName="opacity" values="0;1" dur="0.5s" begin="1.4s" fill="freeze"/>
    </text>
  </g>
  
  <!-- Timeline Charts (if we have snapshots) -->
  
  <!-- 👥 Followers Count Chart -->
  <g transform="translate(60, 250)">
    <!-- Chart Background -->
    <rect x="0" y="0" width="213.33333333333334" height="200" fill="#0f172a" stroke="#334155" stroke-width="1" rx="8" filter="url(#shadow)">
      <animate attributeName="opacity" values="0;1" dur="0.5s" begin="1.8s" fill="freeze"/>
    </rect>
    
    <!-- Chart Title -->
    <text x="106.66666666666667" y="25" text-anchor="middle" fill="#f8fafc" font-size="14" font-weight="bold" font-family="Arial, sans-serif">
      👥 Followers Count
      <animate attributeName="opacity" values="0;1" dur="0.5s" begin="2s" fill="freeze"/>
    </text>
    
    <!-- Y-axis labels -->
    <text x="10" y="45" fill="#94a3b8" font-size="10" font-family="Arial, sans-serif">153
      <animate attributeName="opacity" values="0;1" dur="0.5s" begin="2.2s" fill="freeze"/>
    </text>
    <text x="10" y="185" fill="#94a3b8" font-size="10" font-family="Arial, sans-serif">149
      <animate attributeName="opacity" values="0;1" dur="0.5s" begin="2.2s" fill="freeze"/>
    </text>
    
    <!-- Chart Line with draw animation that follows the circle -->
    <path d="M 30,160 L 30.0295692807664,160 L 30.0577586617637,160 L 31.550487637956376,160 L 31.571759599331962,160 L 31.601203434664804,160 L 33.09339478757082,160 L 33.120759812861905,160 L 33.15247958677495,160 L 34.64244876342943,160 L 34.66965250173452,160 L 34.69959811880158,160 L 36.19094719522516,160 L 36.21671727143248,160 L 36.24849080767419,160 L 37.74052087359421,160 L 37.76629094980153,160 L 37.79017934450553,160 L 39.29418048894189,160 L 39.31613343981391,160 L 39.34808618381784,160 L 40.83782239038143,160 L 40.86309068485454,160 L 40.89151303594273,160 L 42.38544270414228,160 L 42.40770030821008,160 L 42.44135552595511,160 L 43.93220282064447,160 L 43.95833131237623,160 L 43.9903915810375,160 L 45.47883749171311,160 L 45.5032097473751,160 L 45.53788644936479,160 L 47.0230886995442,160 L 47.054575503366365,160 L 47.08690458367096,160 L 48.57689168110166,160 L 48.60203453014121,160 L 48.631532127802714,160 L 50.12732555672937,160 L 50.15447553270579,160 L 50.187467681730595,160 L 51.6730641889869,160 L 51.704783962899945,160 L 51.739837001190295,160 L 53.22448370730682,160 L 53.24860507210171,160 L 53.280163559028765,160 L 54.773896098689875,160 L 54.796314989743664,160 L 54.82794515977561,160 L 56.31884621679363,160 L 56.34357688798008,160 L 56.374543989291794,160 L 57.86777474721869,160 L 57.895856603558656,160 L 59.418602879923284,160 L 59.44440879768305,160 L 59.46887065722616,160 L 60.9676568557819,160 L 60.99738742353429,160 L 61.0311860074891,160 L 62.50617341522193,160 L 62.542427145519156,160 L 62.57334048450221,160 L 64.06087243559048,160 L 64.08028063623898,160 L 64.11707198982288,160 L 65.60972928291065,160 L 65.63725559518775,160 L 65.66777467709392,160 L 67.16037820785303,160 L 67.18638125415124,160 L 67.21390756642833,160 L 68.70462941568414,160 L 68.73430622110786,160 L 68.7637321356645,160 L 70.25207052168275,160 L 70.27927425998786,160 L 70.30995462888,160 L 71.80549716693955,160 L 71.8360879319506,160 L 71.86908008097542,160 L 73.35639698274903,160 L 73.37953270485171,160 L 73.43066067941325,160 L 74.90546887938387,160 L 74.92899885856343,160 L 74.95856813932983,160 L 76.44864484064163,160 L 76.47627867757606,160 L 76.50548954281801,160 L 77.99630099595493,160 L 78.02291334864469,160 L 78.0536295590893,160 L 79.54569546656177,160 L 79.5736697982444,160 L 79.5992606666895,160 L 81.09190003900108,160 L 81.11956971748792,160 L 81.14863721652011,160 L 82.64715460343251,160 L 82.6763117063458,160 L 82.70679494669952,160 L 84.18964957519384,160 L 84.21896796509313,130 L 84.24937952234197,130 L 85.74427691245752,130 L 85.76510085442754,130 L 85.79343360163463,130 L 87.28684356732374,130 L 87.30677147048267,130 L 87.34485311995455,130 L 88.83740288838501,130 L 88.86620157577386,130 L 88.89055591065963,130 L 90.3797007316079,130 L 90.41233446510827,130 L 90.44409008057376,130 L 91.93520618690644,130 L 91.95020587660431,130 L 91.98861010004819,130 L 93.48322075774419,130 L 93.51320221636368,130 L 93.54818357154915,130 L 95.03150414022524,130 L 95.05797312670524,130 L 95.09381467914935,130 L 96.5770098023919,130 L 96.60702710256383,130 L 96.64032390478442,130 L 98.1288235777887,130 L 98.1506869247796,130 L 98.18172570919621,130 L 99.6728238947527,130 L 99.69773377370134,130 L 99.7298657254675,130 L 101.22408212608661,130 L 101.2534721990908,130 L 101.27911682986455,130 L 102.77127234121814,130 L 102.80410320325694,130 L 102.82702387604496,130 L 104.32163453374095,130 L 104.35052282501091,130 L 104.38378378567906,130 L 105.87049138106111,130 L 105.89868076205842,130 L 105.93271231610412,130 L 107.41793248705974,130 L 107.44359503860973,130 L 107.47561946571855,130 L 108.96768537319102,130 L 108.99567762564986,130 L 109.02813215138802,130 L 110.51215163033677,130 L 110.54976733962688,130 L 110.57154108273669,130 L 112.06073966601362,130 L 112.09004013513669,130 L 112.11919723804998,130 L 113.60495503229227,130 L 113.63728411259686,130 L 113.66430864313973,130 L 114.74464471691037,130 L 115.15992286430416,130 L 115.19205481607031,130 L 115.22590716235378,130 L 116.7080987221279,130 L 116.73619849924408,130 L 116.76910104438778,130 L 118.2545541854343,130 L 118.27622040388678,130 L 118.31256373806512,130 L 119.80498806106202,130 L 119.83204843315731,130 L 119.86351731620326,130 L 121.35343273052908,130 L 121.38592309781966,130 L 121.41939910780248,130 L 122.89990611461171,130 L 122.92757579309857,130 L 122.96400873115802,130 L 124.45258008726718,130 L 124.47618174955163,130 L 124.50524924858381,130 L 125.9996269361889,130 L 126.03313878772417,130 L 126.064518066889,130 L 127.54708596296376,130 L 127.5772466293455,130 L 127.61111689640518,130 L 129.0932546938506,130 L 129.12266268763102,130 L 129.15581612364184,130 L 130.64483549915656,130 L 130.67232596988117,130 L 130.70044366777358,130 L 132.19143432867273,130 L 132.21922945259314,130 L 132.25263377947107,130 L 133.7308827684763,130 L 133.76769204283642,130 L 133.79856954026704,130 L 135.28732010413842,130 L 135.30905800569576,130 L 135.3481432186361,130 L 136.83752100967524,130 L 136.87019058472805,130 L 136.9046163958506,130 L 138.3880803307365,130 L 138.4179721854749,130 L 138.44963819705927,130 L 139.92725995889674,130 L 139.95973240541113,130 L 139.9921152480444,130 L 141.480399871734,130 L 141.51079350820663,130 L 141.54552397252496,130 L 143.02923879827796,130 L 143.0572131299606,130 L 143.08809062739118,130 L 144.57872287276587,130 L 144.5986507759248,130 L 144.64757449501104,130 L 146.1244435842472,130 L 146.15460425062892,130 L 146.18435273915753,130 L 147.67566597402868,130 L 147.70991257738905,130 L 147.7410768072392,130 L 149.2232683670133,130 L 149.25342903339504,130 L 149.28819533926583,130 L 150.76950878100504,130 L 150.79914974487633,130 L 150.826156354643,130 L 152.32021146827609,130 L 152.3508380748396,130 L 152.3823786409904,130 L 153.87322593567978,130 L 153.90204254384486,130 L 153.93046489493304,130 L 155.41577466976977,130 L 155.44658048409548,40 L 155.4786765943092,40 L 156.96991814607543,40 L 156.99129763210837,40 L 157.02077730899367,40 L 158.51440232399744,40 L 158.53830863947766,40 L 158.5807271167953,40 L 160.06460322953424,40 L 160.0960900333564,40 L 160.12374179106706,40 L 161.6066860234425,40 L 161.64118351766996,40 L 161.67496418084852,40 L 163.16457494197857,40 L 163.17984344331975,40 L 163.2212225156165,40 L 164.7098297132781,40 L 164.7424634467785,40 L 164.77932648346726,40 L 166.25831022429762,40 L 166.28906227629466,40 L 166.32847006320696,40 L 167.80428182664602,40 L 167.8369872432513,40 L 167.87514057582806,40 L 169.36122094404234,40 L 169.3976538821018,40 L 170.90362631192258,40 L 170.9802376302719,40 L 172.45223226837564,40 L 172.49031391784752,40 L 172.5264601234874,40 L 174.00021099766093,40 L 174.04033561562213,40 L 174.0679515317803,40 L 175.5518455652955,40 L 175.58542909993565,40 L 175.62313441310687,40 L 177.09475271490996,40 L 177.12831832877387,40 L 177.16607740427375,40 L 178.64547332295723,40 L 178.678465471982,40 L 178.7138590050206,40 L 180.19929422529088,40 L 180.24264458297205,40 L 181.78189589423718,40 L 181.82293447178571,40 L 183.2994989078261,40 L 183.33333333333334,40" stroke="#22c55e" stroke-width="2" fill="none" stroke-dasharray="14750" stroke-dashoffset="14750">
      <animate attributeName="stroke-dashoffset" values="14750;0" dur="3s" begin="2.6s" fill="freeze"/>
    </path>
    
    <!-- Glow effect for the line that also follows the circle -->
    <path d="M 30,160 L 30.0295692807664,160 L 30.0577586617637,160 L 31.550487637956376,160 L 31.571759599331962,160 L 31.601203434664804,160 L 33.09339478757082,160 L 33.120759812861905,160 L 33.15247958677495,160 L 34.64244876342943,160 L 34.66965250173452,160 L 34.69959811880158,160 L 36.19094719522516,160 L 36.21671727143248,160 L 36.24849080767419,160 L 37.74052087359421,160 L 37.76629094980153,160 L 37.79017934450553,160 L 39.29418048894189,160 L 39.31613343981391,160 L 39.34808618381784,160 L 40.83782239038143,160 L 40.86309068485454,160 L 40.89151303594273,160 L 42.38544270414228,160 L 42.40770030821008,160 L 42.44135552595511,160 L 43.93220282064447,160 L 43.95833131237623,160 L 43.9903915810375,160 L 45.47883749171311,160 L 45.5032097473751,160 L 45.53788644936479,160 L 47.0230886995442,160 L 47.054575503366365,160 L 47.08690458367096,160 L 48.57689168110166,160 L 48.60203453014121,160 L 48.631532127802714,160 L 50.12732555672937,160 L 50.15447553270579,160 L 50.187467681730595,160 L 51.6730641889869,160 L 51.704783962899945,160 L 51.739837001190295,160 L 53.22448370730682,160 L 53.24860507210171,160 L 53.280163559028765,160 L 54.773896098689875,160 L 54.796314989743664,160 L 54.82794515977561,160 L 56.31884621679363,160 L 56.34357688798008,160 L 56.374543989291794,160 L 57.86777474721869,160 L 57.895856603558656,160 L 59.418602879923284,160 L 59.44440879768305,160 L 59.46887065722616,160 L 60.9676568557819,160 L 60.99738742353429,160 L 61.0311860074891,160 L 62.50617341522193,160 L 62.542427145519156,160 L 62.57334048450221,160 L 64.06087243559048,160 L 64.08028063623898,160 L 64.11707198982288,160 L 65.60972928291065,160 L 65.63725559518775,160 L 65.66777467709392,160 L 67.16037820785303,160 L 67.18638125415124,160 L 67.21390756642833,160 L 68.70462941568414,160 L 68.73430622110786,160 L 68.7637321356645,160 L 70.25207052168275,160 L 70.27927425998786,160 L 70.30995462888,160 L 71.80549716693955,160 L 71.8360879319506,160 L 71.86908008097542,160 L 73.35639698274903,160 L 73.37953270485171,160 L 73.43066067941325,160 L 74.90546887938387,160 L 74.92899885856343,160 L 74.95856813932983,160 L 76.44864484064163,160 L 76.47627867757606,160 L 76.50548954281801,160 L 77.99630099595493,160 L 78.02291334864469,160 L 78.0536295590893,160 L 79.54569546656177,160 L 79.5736697982444,160 L 79.5992606666895,160 L 81.09190003900108,160 L 81.11956971748792,160 L 81.14863721652011,160 L 82.64715460343251,160 L 82.6763117063458,160 L 82.70679494669952,160 L 84.18964957519384,160 L 84.21896796509313,130 L 84.24937952234197,130 L 85.74427691245752,130 L 85.76510085442754,130 L 85.79343360163463,130 L 87.28684356732374,130 L 87.30677147048267,130 L 87.34485311995455,130 L 88.83740288838501,130 L 88.86620157577386,130 L 88.89055591065963,130 L 90.3797007316079,130 L 90.41233446510827,130 L 90.44409008057376,130 L 91.93520618690644,130 L 91.95020587660431,130 L 91.98861010004819,130 L 93.48322075774419,130 L 93.51320221636368,130 L 93.54818357154915,130 L 95.03150414022524,130 L 95.05797312670524,130 L 95.09381467914935,130 L 96.5770098023919,130 L 96.60702710256383,130 L 96.64032390478442,130 L 98.1288235777887,130 L 98.1506869247796,130 L 98.18172570919621,130 L 99.6728238947527,130 L 99.69773377370134,130 L 99.7298657254675,130 L 101.22408212608661,130 L 101.2534721990908,130 L 101.27911682986455,130 L 102.77127234121814,130 L 102.80410320325694,130 L 102.82702387604496,130 L 104.32163453374095,130 L 104.35052282501091,130 L 104.38378378567906,130 L 105.87049138106111,130 L 105.89868076205842,130 L 105.93271231610412,130 L 107.41793248705974,130 L 107.44359503860973,130 L 107.47561946571855,130 L 108.96768537319102,130 L 108.99567762564986,130 L 109.02813215138802,130 L 110.51215163033677,130 L 110.54976733962688,130 L 110.57154108273669,130 L 112.06073966601362,130 L 112.09004013513669,130 L 112.11919723804998,130 L 113.60495503229227,130 L 113.63728411259686,130 L 113.66430864313973,130 L 114.74464471691037,130 L 115.15992286430416,130 L 115.19205481607031,130 L 115.22590716235378,130 L 116.7080987221279,130 L 116.73619849924408,130 L 116.76910104438778,130 L 118.2545541854343,130 L 118.27622040388678,130 L 118.31256373806512,130 L 119.80498806106202,130 L 119.83204843315731,130 L 119.86351731620326,130 L 121.35343273052908,130 L 121.38592309781966,130 L 121.41939910780248,130 L 122.89990611461171,130 L 122.92757579309857,130 L 122.96400873115802,130 L 124.45258008726718,130 L 124.47618174955163,130 L 124.50524924858381,130 L 125.9996269361889,130 L 126.03313878772417,130 L 126.064518066889,130 L 127.54708596296376,130 L 127.5772466293455,130 L 127.61111689640518,130 L 129.0932546938506,130 L 129.12266268763102,130 L 129.15581612364184,130 L 130.64483549915656,130 L 130.67232596988117,130 L 130.70044366777358,130 L 132.19143432867273,130 L 132.21922945259314,130 L 132.25263377947107,130 L 133.7308827684763,130 L 133.76769204283642,130 L 133.79856954026704,130 L 135.28732010413842,130 L 135.30905800569576,130 L 135.3481432186361,130 L 136.83752100967524,130 L 136.87019058472805,130 L 136.9046163958506,130 L 138.3880803307365,130 L 138.4179721854749,130 L 138.44963819705927,130 L 139.92725995889674,130 L 139.95973240541113,130 L 139.9921152480444,130 L 141.480399871734,130 L 141.51079350820663,130 L 141.54552397252496,130 L 143.02923879827796,130 L 143.0572131299606,130 L 143.08809062739118,130 L 144.57872287276587,130 L 144.5986507759248,130 L 144.64757449501104,130 L 146.1244435842472,130 L 146.15460425062892,130 L 146.18435273915753,130 L 147.67566597402868,130 L 147.70991257738905,130 L 147.7410768072392,130 L 149.2232683670133,130 L 149.25342903339504,130 L 149.28819533926583,130 L 150.76950878100504,130 L 150.79914974487633,130 L 150.826156354643,130 L 152.32021146827609,130 L 152.3508380748396,130 L 152.3823786409904,130 L 153.87322593567978,130 L 153.90204254384486,130 L 153.93046489493304,130 L 155.41577466976977,130 L 155.44658048409548,40 L 155.4786765943092,40 L 156.96991814607543,40 L 156.99129763210837,40 L 157.02077730899367,40 L 158.51440232399744,40 L 158.53830863947766,40 L 158.5807271167953,40 L 160.06460322953424,40 L 160.0960900333564,40 L 160.12374179106706,40 L 161.6066860234425,40 L 161.64118351766996,40 L 161.67496418084852,40 L 163.16457494197857,40 L 163.17984344331975,40 L 163.2212225156165,40 L 164.7098297132781,40 L 164.7424634467785,40 L 164.77932648346726,40 L 166.25831022429762,40 L 166.28906227629466,40 L 166.32847006320696,40 L 167.80428182664602,40 L 167.8369872432513,40 L 167.87514057582806,40 L 169.36122094404234,40 L 169.3976538821018,40 L 170.90362631192258,40 L 170.9802376302719,40 L 172.45223226837564,40 L 172.49031391784752,40 L 172.5264601234874,40 L 174.00021099766093,40 L 174.04033561562213,40 L 174.0679515317803,40 L 175.5518455652955,40 L 175.58542909993565,40 L 175.62313441310687,40 L 177.09475271490996,40 L 177.12831832877387,40 L 177.16607740427375,40 L 178.64547332295723,40 L 178.678465471982,40 L 178.7138590050206,40 L 180.19929422529088,40 L 180.24264458297205,40 L 181.78189589423718,40 L 181.82293447178571,40 L 183.2994989078261,40 L 183.33333333333334,40" stroke="#22c55e" stroke-width="4" fill="none" opacity="0.4" stroke-dasharray="14750" stroke-dashoffset="14750">
      <animate attributeName="stroke-dashoffset" values="14750;0" dur="3s" begin="2.6s" fill="freeze"/>
    </path>
    
    <!-- Animated circle that moves along the path and draws the line -->
    <circle r="5" fill="#22c55e" opacity="0" filter="url(#trailGlow)">
      <animate attributeName="opacity" values="0;1;1;1" dur="3.2s" begin="2.4s" fill="freeze"/>
      <animate attributeName="r" values="5;6;5" dur="1s" begin="2.4s" repeatCount="3"/>
      <animateMotion dur="3s" begin="2.4s" fill="freeze">
        <mpath href="#path_followersCount_60"/>
      </animateMotion>
    </circle>
    
    <!-- Small trail dots that fade out -->
    <circle r="2" fill="#22c55e" opacity="0">
      <animate attributeName="opacity" values="0;0.6;0" dur="0.8s" begin="2.8s" fill="freeze"/>
      <animateMotion dur="3s" begin="2.4s" fill="freeze">
        <mpath href="#path_followersCount_60"/>
      </animateMotion>
    </circle>
    
    <!-- Hidden path for motion animation -->
    <path id="path_followersCount_60" d="M 30,160 L 30.0295692807664,160 L 30.0577586617637,160 L 31.550487637956376,160 L 31.571759599331962,160 L 31.601203434664804,160 L 33.09339478757082,160 L 33.120759812861905,160 L 33.15247958677495,160 L 34.64244876342943,160 L 34.66965250173452,160 L 34.69959811880158,160 L 36.19094719522516,160 L 36.21671727143248,160 L 36.24849080767419,160 L 37.74052087359421,160 L 37.76629094980153,160 L 37.79017934450553,160 L 39.29418048894189,160 L 39.31613343981391,160 L 39.34808618381784,160 L 40.83782239038143,160 L 40.86309068485454,160 L 40.89151303594273,160 L 42.38544270414228,160 L 42.40770030821008,160 L 42.44135552595511,160 L 43.93220282064447,160 L 43.95833131237623,160 L 43.9903915810375,160 L 45.47883749171311,160 L 45.5032097473751,160 L 45.53788644936479,160 L 47.0230886995442,160 L 47.054575503366365,160 L 47.08690458367096,160 L 48.57689168110166,160 L 48.60203453014121,160 L 48.631532127802714,160 L 50.12732555672937,160 L 50.15447553270579,160 L 50.187467681730595,160 L 51.6730641889869,160 L 51.704783962899945,160 L 51.739837001190295,160 L 53.22448370730682,160 L 53.24860507210171,160 L 53.280163559028765,160 L 54.773896098689875,160 L 54.796314989743664,160 L 54.82794515977561,160 L 56.31884621679363,160 L 56.34357688798008,160 L 56.374543989291794,160 L 57.86777474721869,160 L 57.895856603558656,160 L 59.418602879923284,160 L 59.44440879768305,160 L 59.46887065722616,160 L 60.9676568557819,160 L 60.99738742353429,160 L 61.0311860074891,160 L 62.50617341522193,160 L 62.542427145519156,160 L 62.57334048450221,160 L 64.06087243559048,160 L 64.08028063623898,160 L 64.11707198982288,160 L 65.60972928291065,160 L 65.63725559518775,160 L 65.66777467709392,160 L 67.16037820785303,160 L 67.18638125415124,160 L 67.21390756642833,160 L 68.70462941568414,160 L 68.73430622110786,160 L 68.7637321356645,160 L 70.25207052168275,160 L 70.27927425998786,160 L 70.30995462888,160 L 71.80549716693955,160 L 71.8360879319506,160 L 71.86908008097542,160 L 73.35639698274903,160 L 73.37953270485171,160 L 73.43066067941325,160 L 74.90546887938387,160 L 74.92899885856343,160 L 74.95856813932983,160 L 76.44864484064163,160 L 76.47627867757606,160 L 76.50548954281801,160 L 77.99630099595493,160 L 78.02291334864469,160 L 78.0536295590893,160 L 79.54569546656177,160 L 79.5736697982444,160 L 79.5992606666895,160 L 81.09190003900108,160 L 81.11956971748792,160 L 81.14863721652011,160 L 82.64715460343251,160 L 82.6763117063458,160 L 82.70679494669952,160 L 84.18964957519384,160 L 84.21896796509313,130 L 84.24937952234197,130 L 85.74427691245752,130 L 85.76510085442754,130 L 85.79343360163463,130 L 87.28684356732374,130 L 87.30677147048267,130 L 87.34485311995455,130 L 88.83740288838501,130 L 88.86620157577386,130 L 88.89055591065963,130 L 90.3797007316079,130 L 90.41233446510827,130 L 90.44409008057376,130 L 91.93520618690644,130 L 91.95020587660431,130 L 91.98861010004819,130 L 93.48322075774419,130 L 93.51320221636368,130 L 93.54818357154915,130 L 95.03150414022524,130 L 95.05797312670524,130 L 95.09381467914935,130 L 96.5770098023919,130 L 96.60702710256383,130 L 96.64032390478442,130 L 98.1288235777887,130 L 98.1506869247796,130 L 98.18172570919621,130 L 99.6728238947527,130 L 99.69773377370134,130 L 99.7298657254675,130 L 101.22408212608661,130 L 101.2534721990908,130 L 101.27911682986455,130 L 102.77127234121814,130 L 102.80410320325694,130 L 102.82702387604496,130 L 104.32163453374095,130 L 104.35052282501091,130 L 104.38378378567906,130 L 105.87049138106111,130 L 105.89868076205842,130 L 105.93271231610412,130 L 107.41793248705974,130 L 107.44359503860973,130 L 107.47561946571855,130 L 108.96768537319102,130 L 108.99567762564986,130 L 109.02813215138802,130 L 110.51215163033677,130 L 110.54976733962688,130 L 110.57154108273669,130 L 112.06073966601362,130 L 112.09004013513669,130 L 112.11919723804998,130 L 113.60495503229227,130 L 113.63728411259686,130 L 113.66430864313973,130 L 114.74464471691037,130 L 115.15992286430416,130 L 115.19205481607031,130 L 115.22590716235378,130 L 116.7080987221279,130 L 116.73619849924408,130 L 116.76910104438778,130 L 118.2545541854343,130 L 118.27622040388678,130 L 118.31256373806512,130 L 119.80498806106202,130 L 119.83204843315731,130 L 119.86351731620326,130 L 121.35343273052908,130 L 121.38592309781966,130 L 121.41939910780248,130 L 122.89990611461171,130 L 122.92757579309857,130 L 122.96400873115802,130 L 124.45258008726718,130 L 124.47618174955163,130 L 124.50524924858381,130 L 125.9996269361889,130 L 126.03313878772417,130 L 126.064518066889,130 L 127.54708596296376,130 L 127.5772466293455,130 L 127.61111689640518,130 L 129.0932546938506,130 L 129.12266268763102,130 L 129.15581612364184,130 L 130.64483549915656,130 L 130.67232596988117,130 L 130.70044366777358,130 L 132.19143432867273,130 L 132.21922945259314,130 L 132.25263377947107,130 L 133.7308827684763,130 L 133.76769204283642,130 L 133.79856954026704,130 L 135.28732010413842,130 L 135.30905800569576,130 L 135.3481432186361,130 L 136.83752100967524,130 L 136.87019058472805,130 L 136.9046163958506,130 L 138.3880803307365,130 L 138.4179721854749,130 L 138.44963819705927,130 L 139.92725995889674,130 L 139.95973240541113,130 L 139.9921152480444,130 L 141.480399871734,130 L 141.51079350820663,130 L 141.54552397252496,130 L 143.02923879827796,130 L 143.0572131299606,130 L 143.08809062739118,130 L 144.57872287276587,130 L 144.5986507759248,130 L 144.64757449501104,130 L 146.1244435842472,130 L 146.15460425062892,130 L 146.18435273915753,130 L 147.67566597402868,130 L 147.70991257738905,130 L 147.7410768072392,130 L 149.2232683670133,130 L 149.25342903339504,130 L 149.28819533926583,130 L 150.76950878100504,130 L 150.79914974487633,130 L 150.826156354643,130 L 152.32021146827609,130 L 152.3508380748396,130 L 152.3823786409904,130 L 153.87322593567978,130 L 153.90204254384486,130 L 153.93046489493304,130 L 155.41577466976977,130 L 155.44658048409548,40 L 155.4786765943092,40 L 156.96991814607543,40 L 156.99129763210837,40 L 157.02077730899367,40 L 158.51440232399744,40 L 158.53830863947766,40 L 158.5807271167953,40 L 160.06460322953424,40 L 160.0960900333564,40 L 160.12374179106706,40 L 161.6066860234425,40 L 161.64118351766996,40 L 161.67496418084852,40 L 163.16457494197857,40 L 163.17984344331975,40 L 163.2212225156165,40 L 164.7098297132781,40 L 164.7424634467785,40 L 164.77932648346726,40 L 166.25831022429762,40 L 166.28906227629466,40 L 166.32847006320696,40 L 167.80428182664602,40 L 167.8369872432513,40 L 167.87514057582806,40 L 169.36122094404234,40 L 169.3976538821018,40 L 170.90362631192258,40 L 170.9802376302719,40 L 172.45223226837564,40 L 172.49031391784752,40 L 172.5264601234874,40 L 174.00021099766093,40 L 174.04033561562213,40 L 174.0679515317803,40 L 175.5518455652955,40 L 175.58542909993565,40 L 175.62313441310687,40 L 177.09475271490996,40 L 177.12831832877387,40 L 177.16607740427375,40 L 178.64547332295723,40 L 178.678465471982,40 L 178.7138590050206,40 L 180.19929422529088,40 L 180.24264458297205,40 L 181.78189589423718,40 L 181.82293447178571,40 L 183.2994989078261,40 L 183.33333333333334,40" fill="none" stroke="none"/>
  </g>
  <!-- 🔓 Public Contributions Chart -->
  <g transform="translate(293.33333333333337, 250)">
    <!-- Chart Background -->
    <rect x="0" y="0" width="213.33333333333334" height="200" fill="#0f172a" stroke="#334155" stroke-width="1" rx="8" filter="url(#shadow)">
      <animate attributeName="opacity" values="0;1" dur="0.5s" begin="2.3s" fill="freeze"/>
    </rect>
    
    <!-- Chart Title -->
    <text x="106.66666666666667" y="25" text-anchor="middle" fill="#f8fafc" font-size="14" font-weight="bold" font-family="Arial, sans-serif">
      🔓 Public Contributions
      <animate attributeName="opacity" values="0;1" dur="0.5s" begin="2.5s" fill="freeze"/>
    </text>
    
    <!-- Y-axis labels -->
    <text x="10" y="45" fill="#94a3b8" font-size="10" font-family="Arial, sans-serif">3,861
      <animate attributeName="opacity" values="0;1" dur="0.5s" begin="2.6999999999999997s" fill="freeze"/>
    </text>
    <text x="10" y="185" fill="#94a3b8" font-size="10" font-family="Arial, sans-serif">3,180
      <animate attributeName="opacity" values="0;1" dur="0.5s" begin="2.6999999999999997s" fill="freeze"/>
    </text>
    
    <!-- Chart Line with draw animation that follows the circle -->
    <path d="M 30,160 L 30.0295692807664,160 L 30.0577586617637,160 L 31.550487637956376,160 L 31.571759599331962,160 L 31.601203434664804,160 L 33.09339478757082,160 L 33.120759812861905,160 L 33.15247958677495,160 L 34.64244876342943,160 L 34.66965250173452,160 L 34.69959811880158,160 L 36.19094719522516,160 L 36.21671727143248,160 L 36.24849080767419,160 L 37.74052087359421,160 L 37.76629094980153,160 L 37.79017934450553,160 L 39.29418048894189,160 L 39.31613343981391,160 L 39.34808618381784,160 L 40.83782239038143,160 L 40.86309068485454,160 L 40.89151303594273,160 L 42.38544270414228,160 L 42.40770030821008,160 L 42.44135552595511,160 L 43.93220282064447,160 L 43.95833131237623,160 L 43.9903915810375,160 L 45.47883749171311,160 L 45.5032097473751,160 L 45.53788644936479,160 L 47.0230886995442,160 L 47.054575503366365,160 L 47.08690458367096,160 L 48.57689168110166,160 L 48.60203453014121,160 L 48.631532127802714,160 L 50.12732555672937,160 L 50.15447553270579,160 L 50.187467681730595,160 L 51.6730641889869,160 L 51.704783962899945,160 L 51.739837001190295,160 L 53.22448370730682,160 L 53.24860507210171,160 L 53.280163559028765,160 L 54.773896098689875,160 L 54.796314989743664,160 L 54.82794515977561,160 L 56.31884621679363,160 L 56.34357688798008,160 L 56.374543989291794,160 L 57.86777474721869,160 L 57.895856603558656,160 L 59.418602879923284,160 L 59.44440879768305,160 L 59.46887065722616,160 L 60.9676568557819,160 L 60.99738742353429,160 L 61.0311860074891,160 L 62.50617341522193,160 L 62.542427145519156,160 L 62.57334048450221,160 L 64.06087243559048,160 L 64.08028063623898,160 L 64.11707198982288,160 L 65.60972928291065,160 L 65.63725559518775,160 L 65.66777467709392,160 L 67.16037820785303,160 L 67.18638125415124,160 L 67.21390756642833,160 L 68.70462941568414,160 L 68.73430622110786,160 L 68.7637321356645,160 L 70.25207052168275,160 L 70.27927425998786,160 L 70.30995462888,160 L 71.80549716693955,160 L 71.8360879319506,160 L 71.86908008097542,160 L 73.35639698274903,160 L 73.37953270485171,160 L 73.43066067941325,160 L 74.90546887938387,160 L 74.92899885856343,160 L 74.95856813932983,160 L 76.44864484064163,160 L 76.47627867757606,160 L 76.50548954281801,160 L 77.99630099595493,160 L 78.02291334864469,160 L 78.0536295590893,160 L 79.54569546656177,160 L 79.5736697982444,160 L 79.5992606666895,160 L 81.09190003900108,160 L 81.11956971748792,160 L 81.14863721652011,160 L 82.64715460343251,160 L 82.6763117063458,160 L 82.70679494669952,160 L 84.18964957519384,160 L 84.21896796509313,115.24229074889868 L 84.24937952234197,115.24229074889868 L 85.74427691245752,115.24229074889868 L 85.76510085442754,115.24229074889868 L 85.79343360163463,115.24229074889868 L 87.28684356732374,115.24229074889868 L 87.30677147048267,115.24229074889868 L 87.34485311995455,115.24229074889868 L 88.83740288838501,115.24229074889868 L 88.86620157577386,115.24229074889868 L 88.89055591065963,115.24229074889868 L 90.3797007316079,115.24229074889868 L 90.41233446510827,115.24229074889868 L 90.44409008057376,115.24229074889868 L 91.93520618690644,115.24229074889868 L 91.95020587660431,115.24229074889868 L 91.98861010004819,115.24229074889868 L 93.48322075774419,115.24229074889868 L 93.51320221636368,115.24229074889868 L 93.54818357154915,115.24229074889868 L 95.03150414022524,115.24229074889868 L 95.05797312670524,115.24229074889868 L 95.09381467914935,115.24229074889868 L 96.5770098023919,115.24229074889868 L 96.60702710256383,115.24229074889868 L 96.64032390478442,115.24229074889868 L 98.1288235777887,115.24229074889868 L 98.1506869247796,115.24229074889868 L 98.18172570919621,115.24229074889868 L 99.6728238947527,115.24229074889868 L 99.69773377370134,115.24229074889868 L 99.7298657254675,115.24229074889868 L 101.22408212608661,115.24229074889868 L 101.2534721990908,115.24229074889868 L 101.27911682986455,115.24229074889868 L 102.77127234121814,115.24229074889868 L 102.80410320325694,115.24229074889868 L 102.82702387604496,115.24229074889868 L 104.32163453374095,115.24229074889868 L 104.35052282501091,115.24229074889868 L 104.38378378567906,115.24229074889868 L 105.87049138106111,115.24229074889868 L 105.89868076205842,115.24229074889868 L 105.93271231610412,115.24229074889868 L 107.41793248705974,115.24229074889868 L 107.44359503860973,115.24229074889868 L 107.47561946571855,115.24229074889868 L 108.96768537319102,115.24229074889868 L 108.99567762564986,115.24229074889868 L 109.02813215138802,115.24229074889868 L 110.51215163033677,115.24229074889868 L 110.54976733962688,115.24229074889868 L 110.57154108273669,115.24229074889868 L 112.06073966601362,115.24229074889868 L 112.09004013513669,115.24229074889868 L 112.11919723804998,115.24229074889868 L 113.60495503229227,115.24229074889868 L 113.63728411259686,115.24229074889868 L 113.66430864313973,115.24229074889868 L 114.74464471691037,115.24229074889868 L 115.15992286430416,115.24229074889868 L 115.19205481607031,115.24229074889868 L 115.22590716235378,115.24229074889868 L 116.7080987221279,115.24229074889868 L 116.73619849924408,115.24229074889868 L 116.76910104438778,115.24229074889868 L 118.2545541854343,115.24229074889868 L 118.27622040388678,115.24229074889868 L 118.31256373806512,115.24229074889868 L 119.80498806106202,115.24229074889868 L 119.83204843315731,115.24229074889868 L 119.86351731620326,115.24229074889868 L 121.35343273052908,115.24229074889868 L 121.38592309781966,115.24229074889868 L 121.41939910780248,115.24229074889868 L 122.89990611461171,115.24229074889868 L 122.92757579309857,115.24229074889868 L 122.96400873115802,115.24229074889868 L 124.45258008726718,115.24229074889868 L 124.47618174955163,115.24229074889868 L 124.50524924858381,115.24229074889868 L 125.9996269361889,115.24229074889868 L 126.03313878772417,115.24229074889868 L 126.064518066889,115.24229074889868 L 127.54708596296376,115.24229074889868 L 127.5772466293455,115.24229074889868 L 127.61111689640518,115.24229074889868 L 129.0932546938506,115.24229074889868 L 129.12266268763102,115.24229074889868 L 129.15581612364184,115.24229074889868 L 130.64483549915656,115.24229074889868 L 130.67232596988117,115.24229074889868 L 130.70044366777358,115.24229074889868 L 132.19143432867273,115.24229074889868 L 132.21922945259314,115.24229074889868 L 132.25263377947107,115.24229074889868 L 133.7308827684763,115.24229074889868 L 133.76769204283642,115.24229074889868 L 133.79856954026704,115.24229074889868 L 135.28732010413842,115.24229074889868 L 135.30905800569576,115.24229074889868 L 135.3481432186361,115.24229074889868 L 136.83752100967524,115.24229074889868 L 136.87019058472805,115.24229074889868 L 136.9046163958506,115.24229074889868 L 138.3880803307365,115.24229074889868 L 138.4179721854749,115.24229074889868 L 138.44963819705927,115.24229074889868 L 139.92725995889674,115.24229074889868 L 139.95973240541113,115.24229074889868 L 139.9921152480444,115.24229074889868 L 141.480399871734,115.24229074889868 L 141.51079350820663,115.24229074889868 L 141.54552397252496,115.24229074889868 L 143.02923879827796,115.24229074889868 L 143.0572131299606,115.24229074889868 L 143.08809062739118,115.24229074889868 L 144.57872287276587,115.24229074889868 L 144.5986507759248,115.24229074889868 L 144.64757449501104,115.24229074889868 L 146.1244435842472,115.24229074889868 L 146.15460425062892,115.24229074889868 L 146.18435273915753,115.24229074889868 L 147.67566597402868,115.24229074889868 L 147.70991257738905,115.24229074889868 L 147.7410768072392,115.24229074889868 L 149.2232683670133,115.24229074889868 L 149.25342903339504,115.24229074889868 L 149.28819533926583,115.24229074889868 L 150.76950878100504,115.24229074889868 L 150.79914974487633,115.24229074889868 L 150.826156354643,115.24229074889868 L 152.32021146827609,115.24229074889868 L 152.3508380748396,115.24229074889868 L 152.3823786409904,115.24229074889868 L 153.87322593567978,115.24229074889868 L 153.90204254384486,115.24229074889868 L 153.93046489493304,115.24229074889868 L 155.41577466976977,115.24229074889868 L 155.44658048409548,40 L 155.4786765943092,40 L 156.96991814607543,40 L 156.99129763210837,40 L 157.02077730899367,40 L 158.51440232399744,40 L 158.53830863947766,40 L 158.5807271167953,40 L 160.06460322953424,40 L 160.0960900333564,40 L 160.12374179106706,40 L 161.6066860234425,40 L 161.64118351766996,40 L 161.67496418084852,40 L 163.16457494197857,40 L 163.17984344331975,40 L 163.2212225156165,40 L 164.7098297132781,40 L 164.7424634467785,40 L 164.77932648346726,40 L 166.25831022429762,40 L 166.28906227629466,40 L 166.32847006320696,40 L 167.80428182664602,40 L 167.8369872432513,40 L 167.87514057582806,40 L 169.36122094404234,40 L 169.3976538821018,40 L 170.90362631192258,40 L 170.9802376302719,40 L 172.45223226837564,40 L 172.49031391784752,40 L 172.5264601234874,40 L 174.00021099766093,40 L 174.04033561562213,40 L 174.0679515317803,40 L 175.5518455652955,40 L 175.58542909993565,40 L 175.62313441310687,40 L 177.09475271490996,40 L 177.12831832877387,40 L 177.16607740427375,40 L 178.64547332295723,40 L 178.678465471982,40 L 178.7138590050206,40 L 180.19929422529088,40 L 180.24264458297205,40 L 181.78189589423718,40 L 181.82293447178571,40 L 183.2994989078261,40 L 183.33333333333334,40" stroke="#3b82f6" stroke-width="2" fill="none" stroke-dasharray="14750" stroke-dashoffset="14750">
      <animate attributeName="stroke-dashoffset" values="14750;0" dur="3s" begin="3.0999999999999996s" fill="freeze"/>
    </path>
    
    <!-- Glow effect for the line that also follows the circle -->
    <path d="M 30,160 L 30.0295692807664,160 L 30.0577586617637,160 L 31.550487637956376,160 L 31.571759599331962,160 L 31.601203434664804,160 L 33.09339478757082,160 L 33.120759812861905,160 L 33.15247958677495,160 L 34.64244876342943,160 L 34.66965250173452,160 L 34.69959811880158,160 L 36.19094719522516,160 L 36.21671727143248,160 L 36.24849080767419,160 L 37.74052087359421,160 L 37.76629094980153,160 L 37.79017934450553,160 L 39.29418048894189,160 L 39.31613343981391,160 L 39.34808618381784,160 L 40.83782239038143,160 L 40.86309068485454,160 L 40.89151303594273,160 L 42.38544270414228,160 L 42.40770030821008,160 L 42.44135552595511,160 L 43.93220282064447,160 L 43.95833131237623,160 L 43.9903915810375,160 L 45.47883749171311,160 L 45.5032097473751,160 L 45.53788644936479,160 L 47.0230886995442,160 L 47.054575503366365,160 L 47.08690458367096,160 L 48.57689168110166,160 L 48.60203453014121,160 L 48.631532127802714,160 L 50.12732555672937,160 L 50.15447553270579,160 L 50.187467681730595,160 L 51.6730641889869,160 L 51.704783962899945,160 L 51.739837001190295,160 L 53.22448370730682,160 L 53.24860507210171,160 L 53.280163559028765,160 L 54.773896098689875,160 L 54.796314989743664,160 L 54.82794515977561,160 L 56.31884621679363,160 L 56.34357688798008,160 L 56.374543989291794,160 L 57.86777474721869,160 L 57.895856603558656,160 L 59.418602879923284,160 L 59.44440879768305,160 L 59.46887065722616,160 L 60.9676568557819,160 L 60.99738742353429,160 L 61.0311860074891,160 L 62.50617341522193,160 L 62.542427145519156,160 L 62.57334048450221,160 L 64.06087243559048,160 L 64.08028063623898,160 L 64.11707198982288,160 L 65.60972928291065,160 L 65.63725559518775,160 L 65.66777467709392,160 L 67.16037820785303,160 L 67.18638125415124,160 L 67.21390756642833,160 L 68.70462941568414,160 L 68.73430622110786,160 L 68.7637321356645,160 L 70.25207052168275,160 L 70.27927425998786,160 L 70.30995462888,160 L 71.80549716693955,160 L 71.8360879319506,160 L 71.86908008097542,160 L 73.35639698274903,160 L 73.37953270485171,160 L 73.43066067941325,160 L 74.90546887938387,160 L 74.92899885856343,160 L 74.95856813932983,160 L 76.44864484064163,160 L 76.47627867757606,160 L 76.50548954281801,160 L 77.99630099595493,160 L 78.02291334864469,160 L 78.0536295590893,160 L 79.54569546656177,160 L 79.5736697982444,160 L 79.5992606666895,160 L 81.09190003900108,160 L 81.11956971748792,160 L 81.14863721652011,160 L 82.64715460343251,160 L 82.6763117063458,160 L 82.70679494669952,160 L 84.18964957519384,160 L 84.21896796509313,115.24229074889868 L 84.24937952234197,115.24229074889868 L 85.74427691245752,115.24229074889868 L 85.76510085442754,115.24229074889868 L 85.79343360163463,115.24229074889868 L 87.28684356732374,115.24229074889868 L 87.30677147048267,115.24229074889868 L 87.34485311995455,115.24229074889868 L 88.83740288838501,115.24229074889868 L 88.86620157577386,115.24229074889868 L 88.89055591065963,115.24229074889868 L 90.3797007316079,115.24229074889868 L 90.41233446510827,115.24229074889868 L 90.44409008057376,115.24229074889868 L 91.93520618690644,115.24229074889868 L 91.95020587660431,115.24229074889868 L 91.98861010004819,115.24229074889868 L 93.48322075774419,115.24229074889868 L 93.51320221636368,115.24229074889868 L 93.54818357154915,115.24229074889868 L 95.03150414022524,115.24229074889868 L 95.05797312670524,115.24229074889868 L 95.09381467914935,115.24229074889868 L 96.5770098023919,115.24229074889868 L 96.60702710256383,115.24229074889868 L 96.64032390478442,115.24229074889868 L 98.1288235777887,115.24229074889868 L 98.1506869247796,115.24229074889868 L 98.18172570919621,115.24229074889868 L 99.6728238947527,115.24229074889868 L 99.69773377370134,115.24229074889868 L 99.7298657254675,115.24229074889868 L 101.22408212608661,115.24229074889868 L 101.2534721990908,115.24229074889868 L 101.27911682986455,115.24229074889868 L 102.77127234121814,115.24229074889868 L 102.80410320325694,115.24229074889868 L 102.82702387604496,115.24229074889868 L 104.32163453374095,115.24229074889868 L 104.35052282501091,115.24229074889868 L 104.38378378567906,115.24229074889868 L 105.87049138106111,115.24229074889868 L 105.89868076205842,115.24229074889868 L 105.93271231610412,115.24229074889868 L 107.41793248705974,115.24229074889868 L 107.44359503860973,115.24229074889868 L 107.47561946571855,115.24229074889868 L 108.96768537319102,115.24229074889868 L 108.99567762564986,115.24229074889868 L 109.02813215138802,115.24229074889868 L 110.51215163033677,115.24229074889868 L 110.54976733962688,115.24229074889868 L 110.57154108273669,115.24229074889868 L 112.06073966601362,115.24229074889868 L 112.09004013513669,115.24229074889868 L 112.11919723804998,115.24229074889868 L 113.60495503229227,115.24229074889868 L 113.63728411259686,115.24229074889868 L 113.66430864313973,115.24229074889868 L 114.74464471691037,115.24229074889868 L 115.15992286430416,115.24229074889868 L 115.19205481607031,115.24229074889868 L 115.22590716235378,115.24229074889868 L 116.7080987221279,115.24229074889868 L 116.73619849924408,115.24229074889868 L 116.76910104438778,115.24229074889868 L 118.2545541854343,115.24229074889868 L 118.27622040388678,115.24229074889868 L 118.31256373806512,115.24229074889868 L 119.80498806106202,115.24229074889868 L 119.83204843315731,115.24229074889868 L 119.86351731620326,115.24229074889868 L 121.35343273052908,115.24229074889868 L 121.38592309781966,115.24229074889868 L 121.41939910780248,115.24229074889868 L 122.89990611461171,115.24229074889868 L 122.92757579309857,115.24229074889868 L 122.96400873115802,115.24229074889868 L 124.45258008726718,115.24229074889868 L 124.47618174955163,115.24229074889868 L 124.50524924858381,115.24229074889868 L 125.9996269361889,115.24229074889868 L 126.03313878772417,115.24229074889868 L 126.064518066889,115.24229074889868 L 127.54708596296376,115.24229074889868 L 127.5772466293455,115.24229074889868 L 127.61111689640518,115.24229074889868 L 129.0932546938506,115.24229074889868 L 129.12266268763102,115.24229074889868 L 129.15581612364184,115.24229074889868 L 130.64483549915656,115.24229074889868 L 130.67232596988117,115.24229074889868 L 130.70044366777358,115.24229074889868 L 132.19143432867273,115.24229074889868 L 132.21922945259314,115.24229074889868 L 132.25263377947107,115.24229074889868 L 133.7308827684763,115.24229074889868 L 133.76769204283642,115.24229074889868 L 133.79856954026704,115.24229074889868 L 135.28732010413842,115.24229074889868 L 135.30905800569576,115.24229074889868 L 135.3481432186361,115.24229074889868 L 136.83752100967524,115.24229074889868 L 136.87019058472805,115.24229074889868 L 136.9046163958506,115.24229074889868 L 138.3880803307365,115.24229074889868 L 138.4179721854749,115.24229074889868 L 138.44963819705927,115.24229074889868 L 139.92725995889674,115.24229074889868 L 139.95973240541113,115.24229074889868 L 139.9921152480444,115.24229074889868 L 141.480399871734,115.24229074889868 L 141.51079350820663,115.24229074889868 L 141.54552397252496,115.24229074889868 L 143.02923879827796,115.24229074889868 L 143.0572131299606,115.24229074889868 L 143.08809062739118,115.24229074889868 L 144.57872287276587,115.24229074889868 L 144.5986507759248,115.24229074889868 L 144.64757449501104,115.24229074889868 L 146.1244435842472,115.24229074889868 L 146.15460425062892,115.24229074889868 L 146.18435273915753,115.24229074889868 L 147.67566597402868,115.24229074889868 L 147.70991257738905,115.24229074889868 L 147.7410768072392,115.24229074889868 L 149.2232683670133,115.24229074889868 L 149.25342903339504,115.24229074889868 L 149.28819533926583,115.24229074889868 L 150.76950878100504,115.24229074889868 L 150.79914974487633,115.24229074889868 L 150.826156354643,115.24229074889868 L 152.32021146827609,115.24229074889868 L 152.3508380748396,115.24229074889868 L 152.3823786409904,115.24229074889868 L 153.87322593567978,115.24229074889868 L 153.90204254384486,115.24229074889868 L 153.93046489493304,115.24229074889868 L 155.41577466976977,115.24229074889868 L 155.44658048409548,40 L 155.4786765943092,40 L 156.96991814607543,40 L 156.99129763210837,40 L 157.02077730899367,40 L 158.51440232399744,40 L 158.53830863947766,40 L 158.5807271167953,40 L 160.06460322953424,40 L 160.0960900333564,40 L 160.12374179106706,40 L 161.6066860234425,40 L 161.64118351766996,40 L 161.67496418084852,40 L 163.16457494197857,40 L 163.17984344331975,40 L 163.2212225156165,40 L 164.7098297132781,40 L 164.7424634467785,40 L 164.77932648346726,40 L 166.25831022429762,40 L 166.28906227629466,40 L 166.32847006320696,40 L 167.80428182664602,40 L 167.8369872432513,40 L 167.87514057582806,40 L 169.36122094404234,40 L 169.3976538821018,40 L 170.90362631192258,40 L 170.9802376302719,40 L 172.45223226837564,40 L 172.49031391784752,40 L 172.5264601234874,40 L 174.00021099766093,40 L 174.04033561562213,40 L 174.0679515317803,40 L 175.5518455652955,40 L 175.58542909993565,40 L 175.62313441310687,40 L 177.09475271490996,40 L 177.12831832877387,40 L 177.16607740427375,40 L 178.64547332295723,40 L 178.678465471982,40 L 178.7138590050206,40 L 180.19929422529088,40 L 180.24264458297205,40 L 181.78189589423718,40 L 181.82293447178571,40 L 183.2994989078261,40 L 183.33333333333334,40" stroke="#3b82f6" stroke-width="4" fill="none" opacity="0.4" stroke-dasharray="14750" stroke-dashoffset="14750">
      <animate attributeName="stroke-dashoffset" values="14750;0" dur="3s" begin="3.0999999999999996s" fill="freeze"/>
    </path>
    
    <!-- Animated circle that moves along the path and draws the line -->
    <circle r="5" fill="#3b82f6" opacity="0" filter="url(#trailGlow)">
      <animate attributeName="opacity" values="0;1;1;1" dur="3.2s" begin="2.9s" fill="freeze"/>
      <animate attributeName="r" values="5;6;5" dur="1s" begin="2.9s" repeatCount="3"/>
      <animateMotion dur="3s" begin="2.9s" fill="freeze">
        <mpath href="#path_publicContributions_293.33333333333337"/>
      </animateMotion>
    </circle>
    
    <!-- Small trail dots that fade out -->
    <circle r="2" fill="#3b82f6" opacity="0">
      <animate attributeName="opacity" values="0;0.6;0" dur="0.8s" begin="3.3s" fill="freeze"/>
      <animateMotion dur="3s" begin="2.9s" fill="freeze">
        <mpath href="#path_publicContributions_293.33333333333337"/>
      </animateMotion>
    </circle>
    
    <!-- Hidden path for motion animation -->
    <path id="path_publicContributions_293.33333333333337" d="M 30,160 L 30.0295692807664,160 L 30.0577586617637,160 L 31.550487637956376,160 L 31.571759599331962,160 L 31.601203434664804,160 L 33.09339478757082,160 L 33.120759812861905,160 L 33.15247958677495,160 L 34.64244876342943,160 L 34.66965250173452,160 L 34.69959811880158,160 L 36.19094719522516,160 L 36.21671727143248,160 L 36.24849080767419,160 L 37.74052087359421,160 L 37.76629094980153,160 L 37.79017934450553,160 L 39.29418048894189,160 L 39.31613343981391,160 L 39.34808618381784,160 L 40.83782239038143,160 L 40.86309068485454,160 L 40.89151303594273,160 L 42.38544270414228,160 L 42.40770030821008,160 L 42.44135552595511,160 L 43.93220282064447,160 L 43.95833131237623,160 L 43.9903915810375,160 L 45.47883749171311,160 L 45.5032097473751,160 L 45.53788644936479,160 L 47.0230886995442,160 L 47.054575503366365,160 L 47.08690458367096,160 L 48.57689168110166,160 L 48.60203453014121,160 L 48.631532127802714,160 L 50.12732555672937,160 L 50.15447553270579,160 L 50.187467681730595,160 L 51.6730641889869,160 L 51.704783962899945,160 L 51.739837001190295,160 L 53.22448370730682,160 L 53.24860507210171,160 L 53.280163559028765,160 L 54.773896098689875,160 L 54.796314989743664,160 L 54.82794515977561,160 L 56.31884621679363,160 L 56.34357688798008,160 L 56.374543989291794,160 L 57.86777474721869,160 L 57.895856603558656,160 L 59.418602879923284,160 L 59.44440879768305,160 L 59.46887065722616,160 L 60.9676568557819,160 L 60.99738742353429,160 L 61.0311860074891,160 L 62.50617341522193,160 L 62.542427145519156,160 L 62.57334048450221,160 L 64.06087243559048,160 L 64.08028063623898,160 L 64.11707198982288,160 L 65.60972928291065,160 L 65.63725559518775,160 L 65.66777467709392,160 L 67.16037820785303,160 L 67.18638125415124,160 L 67.21390756642833,160 L 68.70462941568414,160 L 68.73430622110786,160 L 68.7637321356645,160 L 70.25207052168275,160 L 70.27927425998786,160 L 70.30995462888,160 L 71.80549716693955,160 L 71.8360879319506,160 L 71.86908008097542,160 L 73.35639698274903,160 L 73.37953270485171,160 L 73.43066067941325,160 L 74.90546887938387,160 L 74.92899885856343,160 L 74.95856813932983,160 L 76.44864484064163,160 L 76.47627867757606,160 L 76.50548954281801,160 L 77.99630099595493,160 L 78.02291334864469,160 L 78.0536295590893,160 L 79.54569546656177,160 L 79.5736697982444,160 L 79.5992606666895,160 L 81.09190003900108,160 L 81.11956971748792,160 L 81.14863721652011,160 L 82.64715460343251,160 L 82.6763117063458,160 L 82.70679494669952,160 L 84.18964957519384,160 L 84.21896796509313,115.24229074889868 L 84.24937952234197,115.24229074889868 L 85.74427691245752,115.24229074889868 L 85.76510085442754,115.24229074889868 L 85.79343360163463,115.24229074889868 L 87.28684356732374,115.24229074889868 L 87.30677147048267,115.24229074889868 L 87.34485311995455,115.24229074889868 L 88.83740288838501,115.24229074889868 L 88.86620157577386,115.24229074889868 L 88.89055591065963,115.24229074889868 L 90.3797007316079,115.24229074889868 L 90.41233446510827,115.24229074889868 L 90.44409008057376,115.24229074889868 L 91.93520618690644,115.24229074889868 L 91.95020587660431,115.24229074889868 L 91.98861010004819,115.24229074889868 L 93.48322075774419,115.24229074889868 L 93.51320221636368,115.24229074889868 L 93.54818357154915,115.24229074889868 L 95.03150414022524,115.24229074889868 L 95.05797312670524,115.24229074889868 L 95.09381467914935,115.24229074889868 L 96.5770098023919,115.24229074889868 L 96.60702710256383,115.24229074889868 L 96.64032390478442,115.24229074889868 L 98.1288235777887,115.24229074889868 L 98.1506869247796,115.24229074889868 L 98.18172570919621,115.24229074889868 L 99.6728238947527,115.24229074889868 L 99.69773377370134,115.24229074889868 L 99.7298657254675,115.24229074889868 L 101.22408212608661,115.24229074889868 L 101.2534721990908,115.24229074889868 L 101.27911682986455,115.24229074889868 L 102.77127234121814,115.24229074889868 L 102.80410320325694,115.24229074889868 L 102.82702387604496,115.24229074889868 L 104.32163453374095,115.24229074889868 L 104.35052282501091,115.24229074889868 L 104.38378378567906,115.24229074889868 L 105.87049138106111,115.24229074889868 L 105.89868076205842,115.24229074889868 L 105.93271231610412,115.24229074889868 L 107.41793248705974,115.24229074889868 L 107.44359503860973,115.24229074889868 L 107.47561946571855,115.24229074889868 L 108.96768537319102,115.24229074889868 L 108.99567762564986,115.24229074889868 L 109.02813215138802,115.24229074889868 L 110.51215163033677,115.24229074889868 L 110.54976733962688,115.24229074889868 L 110.57154108273669,115.24229074889868 L 112.06073966601362,115.24229074889868 L 112.09004013513669,115.24229074889868 L 112.11919723804998,115.24229074889868 L 113.60495503229227,115.24229074889868 L 113.63728411259686,115.24229074889868 L 113.66430864313973,115.24229074889868 L 114.74464471691037,115.24229074889868 L 115.15992286430416,115.24229074889868 L 115.19205481607031,115.24229074889868 L 115.22590716235378,115.24229074889868 L 116.7080987221279,115.24229074889868 L 116.73619849924408,115.24229074889868 L 116.76910104438778,115.24229074889868 L 118.2545541854343,115.24229074889868 L 118.27622040388678,115.24229074889868 L 118.31256373806512,115.24229074889868 L 119.80498806106202,115.24229074889868 L 119.83204843315731,115.24229074889868 L 119.86351731620326,115.24229074889868 L 121.35343273052908,115.24229074889868 L 121.38592309781966,115.24229074889868 L 121.41939910780248,115.24229074889868 L 122.89990611461171,115.24229074889868 L 122.92757579309857,115.24229074889868 L 122.96400873115802,115.24229074889868 L 124.45258008726718,115.24229074889868 L 124.47618174955163,115.24229074889868 L 124.50524924858381,115.24229074889868 L 125.9996269361889,115.24229074889868 L 126.03313878772417,115.24229074889868 L 126.064518066889,115.24229074889868 L 127.54708596296376,115.24229074889868 L 127.5772466293455,115.24229074889868 L 127.61111689640518,115.24229074889868 L 129.0932546938506,115.24229074889868 L 129.12266268763102,115.24229074889868 L 129.15581612364184,115.24229074889868 L 130.64483549915656,115.24229074889868 L 130.67232596988117,115.24229074889868 L 130.70044366777358,115.24229074889868 L 132.19143432867273,115.24229074889868 L 132.21922945259314,115.24229074889868 L 132.25263377947107,115.24229074889868 L 133.7308827684763,115.24229074889868 L 133.76769204283642,115.24229074889868 L 133.79856954026704,115.24229074889868 L 135.28732010413842,115.24229074889868 L 135.30905800569576,115.24229074889868 L 135.3481432186361,115.24229074889868 L 136.83752100967524,115.24229074889868 L 136.87019058472805,115.24229074889868 L 136.9046163958506,115.24229074889868 L 138.3880803307365,115.24229074889868 L 138.4179721854749,115.24229074889868 L 138.44963819705927,115.24229074889868 L 139.92725995889674,115.24229074889868 L 139.95973240541113,115.24229074889868 L 139.9921152480444,115.24229074889868 L 141.480399871734,115.24229074889868 L 141.51079350820663,115.24229074889868 L 141.54552397252496,115.24229074889868 L 143.02923879827796,115.24229074889868 L 143.0572131299606,115.24229074889868 L 143.08809062739118,115.24229074889868 L 144.57872287276587,115.24229074889868 L 144.5986507759248,115.24229074889868 L 144.64757449501104,115.24229074889868 L 146.1244435842472,115.24229074889868 L 146.15460425062892,115.24229074889868 L 146.18435273915753,115.24229074889868 L 147.67566597402868,115.24229074889868 L 147.70991257738905,115.24229074889868 L 147.7410768072392,115.24229074889868 L 149.2232683670133,115.24229074889868 L 149.25342903339504,115.24229074889868 L 149.28819533926583,115.24229074889868 L 150.76950878100504,115.24229074889868 L 150.79914974487633,115.24229074889868 L 150.826156354643,115.24229074889868 L 152.32021146827609,115.24229074889868 L 152.3508380748396,115.24229074889868 L 152.3823786409904,115.24229074889868 L 153.87322593567978,115.24229074889868 L 153.90204254384486,115.24229074889868 L 153.93046489493304,115.24229074889868 L 155.41577466976977,115.24229074889868 L 155.44658048409548,40 L 155.4786765943092,40 L 156.96991814607543,40 L 156.99129763210837,40 L 157.02077730899367,40 L 158.51440232399744,40 L 158.53830863947766,40 L 158.5807271167953,40 L 160.06460322953424,40 L 160.0960900333564,40 L 160.12374179106706,40 L 161.6066860234425,40 L 161.64118351766996,40 L 161.67496418084852,40 L 163.16457494197857,40 L 163.17984344331975,40 L 163.2212225156165,40 L 164.7098297132781,40 L 164.7424634467785,40 L 164.77932648346726,40 L 166.25831022429762,40 L 166.28906227629466,40 L 166.32847006320696,40 L 167.80428182664602,40 L 167.8369872432513,40 L 167.87514057582806,40 L 169.36122094404234,40 L 169.3976538821018,40 L 170.90362631192258,40 L 170.9802376302719,40 L 172.45223226837564,40 L 172.49031391784752,40 L 172.5264601234874,40 L 174.00021099766093,40 L 174.04033561562213,40 L 174.0679515317803,40 L 175.5518455652955,40 L 175.58542909993565,40 L 175.62313441310687,40 L 177.09475271490996,40 L 177.12831832877387,40 L 177.16607740427375,40 L 178.64547332295723,40 L 178.678465471982,40 L 178.7138590050206,40 L 180.19929422529088,40 L 180.24264458297205,40 L 181.78189589423718,40 L 181.82293447178571,40 L 183.2994989078261,40 L 183.33333333333334,40" fill="none" stroke="none"/>
  </g>
  <!-- 📊 Total Contributions Chart -->
  <g transform="translate(526.6666666666667, 250)">
    <!-- Chart Background -->
    <rect x="0" y="0" width="213.33333333333334" height="200" fill="#0f172a" stroke="#334155" stroke-width="1" rx="8" filter="url(#shadow)">
      <animate attributeName="opacity" values="0;1" dur="0.5s" begin="2.8s" fill="freeze"/>
    </rect>
    
    <!-- Chart Title -->
    <text x="106.66666666666667" y="25" text-anchor="middle" fill="#f8fafc" font-size="14" font-weight="bold" font-family="Arial, sans-serif">
      📊 Total Contributions
      <animate attributeName="opacity" values="0;1" dur="0.5s" begin="3s" fill="freeze"/>
    </text>
    
    <!-- Y-axis labels -->
    <text x="10" y="45" fill="#94a3b8" font-size="10" font-family="Arial, sans-serif">5,314
      <animate attributeName="opacity" values="0;1" dur="0.5s" begin="3.1999999999999997s" fill="freeze"/>
    </text>
    <text x="10" y="185" fill="#94a3b8" font-size="10" font-family="Arial, sans-serif">4,408
      <animate attributeName="opacity" values="0;1" dur="0.5s" begin="3.1999999999999997s" fill="freeze"/>
    </text>
    
    <!-- Chart Line with draw animation that follows the circle -->
    <path d="M 30,160 L 30.0295692807664,160 L 30.0577586617637,160 L 31.550487637956376,160 L 31.571759599331962,160 L 31.601203434664804,160 L 33.09339478757082,160 L 33.120759812861905,160 L 33.15247958677495,160 L 34.64244876342943,160 L 34.66965250173452,160 L 34.69959811880158,160 L 36.19094719522516,160 L 36.21671727143248,160 L 36.24849080767419,160 L 37.74052087359421,160 L 37.76629094980153,160 L 37.79017934450553,160 L 39.29418048894189,160 L 39.31613343981391,160 L 39.34808618381784,160 L 40.83782239038143,160 L 40.86309068485454,160 L 40.89151303594273,160 L 42.38544270414228,160 L 42.40770030821008,160 L 42.44135552595511,160 L 43.93220282064447,160 L 43.95833131237623,160 L 43.9903915810375,160 L 45.47883749171311,160 L 45.5032097473751,160 L 45.53788644936479,160 L 47.0230886995442,160 L 47.054575503366365,160 L 47.08690458367096,160 L 48.57689168110166,160 L 48.60203453014121,160 L 48.631532127802714,160 L 50.12732555672937,160 L 50.15447553270579,160 L 50.187467681730595,160 L 51.6730641889869,160 L 51.704783962899945,160 L 51.739837001190295,160 L 53.22448370730682,160 L 53.24860507210171,160 L 53.280163559028765,160 L 54.773896098689875,160 L 54.796314989743664,160 L 54.82794515977561,160 L 56.31884621679363,160 L 56.34357688798008,160 L 56.374543989291794,160 L 57.86777474721869,160 L 57.895856603558656,160 L 59.418602879923284,160 L 59.44440879768305,160 L 59.46887065722616,160 L 60.9676568557819,160 L 60.99738742353429,160 L 61.0311860074891,160 L 62.50617341522193,160 L 62.542427145519156,160 L 62.57334048450221,160 L 64.06087243559048,160 L 64.08028063623898,160 L 64.11707198982288,160 L 65.60972928291065,160 L 65.63725559518775,160 L 65.66777467709392,160 L 67.16037820785303,160 L 67.18638125415124,160 L 67.21390756642833,160 L 68.70462941568414,160 L 68.73430622110786,160 L 68.7637321356645,160 L 70.25207052168275,160 L 70.27927425998786,160 L 70.30995462888,160 L 71.80549716693955,160 L 71.8360879319506,160 L 71.86908008097542,160 L 73.35639698274903,160 L 73.37953270485171,160 L 73.43066067941325,160 L 74.90546887938387,160 L 74.92899885856343,160 L 74.95856813932983,160 L 76.44864484064163,160 L 76.47627867757606,160 L 76.50548954281801,160 L 77.99630099595493,160 L 78.02291334864469,160 L 78.0536295590893,160 L 79.54569546656177,160 L 79.5736697982444,160 L 79.5992606666895,160 L 81.09190003900108,160 L 81.11956971748792,160 L 81.14863721652011,160 L 82.64715460343251,160 L 82.6763117063458,160 L 82.70679494669952,160 L 84.18964957519384,160 L 84.21896796509313,92.58278145695365 L 84.24937952234197,92.58278145695365 L 85.74427691245752,92.58278145695365 L 85.76510085442754,92.58278145695365 L 85.79343360163463,92.58278145695365 L 87.28684356732374,92.58278145695365 L 87.30677147048267,92.58278145695365 L 87.34485311995455,92.58278145695365 L 88.83740288838501,92.58278145695365 L 88.86620157577386,92.58278145695365 L 88.89055591065963,92.58278145695365 L 90.3797007316079,92.58278145695365 L 90.41233446510827,92.58278145695365 L 90.44409008057376,92.58278145695365 L 91.93520618690644,92.58278145695365 L 91.95020587660431,92.58278145695365 L 91.98861010004819,92.58278145695365 L 93.48322075774419,92.58278145695365 L 93.51320221636368,92.58278145695365 L 93.54818357154915,92.58278145695365 L 95.03150414022524,92.58278145695365 L 95.05797312670524,92.58278145695365 L 95.09381467914935,92.58278145695365 L 96.5770098023919,92.58278145695365 L 96.60702710256383,92.58278145695365 L 96.64032390478442,92.58278145695365 L 98.1288235777887,92.58278145695365 L 98.1506869247796,92.58278145695365 L 98.18172570919621,92.58278145695365 L 99.6728238947527,92.58278145695365 L 99.69773377370134,92.58278145695365 L 99.7298657254675,92.58278145695365 L 101.22408212608661,92.58278145695365 L 101.2534721990908,92.58278145695365 L 101.27911682986455,92.58278145695365 L 102.77127234121814,92.58278145695365 L 102.80410320325694,92.58278145695365 L 102.82702387604496,92.58278145695365 L 104.32163453374095,92.58278145695365 L 104.35052282501091,92.58278145695365 L 104.38378378567906,92.58278145695365 L 105.87049138106111,92.58278145695365 L 105.89868076205842,92.58278145695365 L 105.93271231610412,92.58278145695365 L 107.41793248705974,92.58278145695365 L 107.44359503860973,92.58278145695365 L 107.47561946571855,92.58278145695365 L 108.96768537319102,92.58278145695365 L 108.99567762564986,92.58278145695365 L 109.02813215138802,92.58278145695365 L 110.51215163033677,92.58278145695365 L 110.54976733962688,92.58278145695365 L 110.57154108273669,92.58278145695365 L 112.06073966601362,92.58278145695365 L 112.09004013513669,92.58278145695365 L 112.11919723804998,92.58278145695365 L 113.60495503229227,92.58278145695365 L 113.63728411259686,92.58278145695365 L 113.66430864313973,92.58278145695365 L 114.74464471691037,92.58278145695365 L 115.15992286430416,92.58278145695365 L 115.19205481607031,92.58278145695365 L 115.22590716235378,92.58278145695365 L 116.7080987221279,92.58278145695365 L 116.73619849924408,92.58278145695365 L 116.76910104438778,92.58278145695365 L 118.2545541854343,92.58278145695365 L 118.27622040388678,92.58278145695365 L 118.31256373806512,92.58278145695365 L 119.80498806106202,92.58278145695365 L 119.83204843315731,92.58278145695365 L 119.86351731620326,92.58278145695365 L 121.35343273052908,92.58278145695365 L 121.38592309781966,92.58278145695365 L 121.41939910780248,92.58278145695365 L 122.89990611461171,92.58278145695365 L 122.92757579309857,92.58278145695365 L 122.96400873115802,92.58278145695365 L 124.45258008726718,92.58278145695365 L 124.47618174955163,92.58278145695365 L 124.50524924858381,92.58278145695365 L 125.9996269361889,92.58278145695365 L 126.03313878772417,92.58278145695365 L 126.064518066889,92.58278145695365 L 127.54708596296376,92.58278145695365 L 127.5772466293455,92.58278145695365 L 127.61111689640518,92.58278145695365 L 129.0932546938506,92.58278145695365 L 129.12266268763102,92.58278145695365 L 129.15581612364184,92.58278145695365 L 130.64483549915656,92.58278145695365 L 130.67232596988117,92.58278145695365 L 130.70044366777358,92.58278145695365 L 132.19143432867273,92.58278145695365 L 132.21922945259314,92.58278145695365 L 132.25263377947107,92.58278145695365 L 133.7308827684763,92.58278145695365 L 133.76769204283642,92.58278145695365 L 133.79856954026704,92.58278145695365 L 135.28732010413842,92.58278145695365 L 135.30905800569576,92.58278145695365 L 135.3481432186361,92.58278145695365 L 136.83752100967524,92.58278145695365 L 136.87019058472805,92.58278145695365 L 136.9046163958506,92.58278145695365 L 138.3880803307365,92.58278145695365 L 138.4179721854749,92.58278145695365 L 138.44963819705927,92.58278145695365 L 139.92725995889674,92.58278145695365 L 139.95973240541113,92.58278145695365 L 139.9921152480444,92.58278145695365 L 141.480399871734,92.58278145695365 L 141.51079350820663,92.58278145695365 L 141.54552397252496,92.58278145695365 L 143.02923879827796,92.58278145695365 L 143.0572131299606,92.58278145695365 L 143.08809062739118,92.58278145695365 L 144.57872287276587,92.58278145695365 L 144.5986507759248,92.58278145695365 L 144.64757449501104,92.58278145695365 L 146.1244435842472,92.58278145695365 L 146.15460425062892,92.58278145695365 L 146.18435273915753,92.58278145695365 L 147.67566597402868,92.58278145695365 L 147.70991257738905,92.58278145695365 L 147.7410768072392,92.58278145695365 L 149.2232683670133,92.58278145695365 L 149.25342903339504,92.58278145695365 L 149.28819533926583,92.58278145695365 L 150.76950878100504,92.58278145695365 L 150.79914974487633,92.58278145695365 L 150.826156354643,92.58278145695365 L 152.32021146827609,92.58278145695365 L 152.3508380748396,92.58278145695365 L 152.3823786409904,92.58278145695365 L 153.87322593567978,92.58278145695365 L 153.90204254384486,92.58278145695365 L 153.93046489493304,92.58278145695365 L 155.41577466976977,92.58278145695365 L 155.44658048409548,40 L 155.4786765943092,40 L 156.96991814607543,40 L 156.99129763210837,40 L 157.02077730899367,40 L 158.51440232399744,40 L 158.53830863947766,40 L 158.5807271167953,40 L 160.06460322953424,40 L 160.0960900333564,40 L 160.12374179106706,40 L 161.6066860234425,40 L 161.64118351766996,40 L 161.67496418084852,40 L 163.16457494197857,40 L 163.17984344331975,40 L 163.2212225156165,40 L 164.7098297132781,40 L 164.7424634467785,40 L 164.77932648346726,40 L 166.25831022429762,40 L 166.28906227629466,40 L 166.32847006320696,40 L 167.80428182664602,40 L 167.8369872432513,40 L 167.87514057582806,40 L 169.36122094404234,40 L 169.3976538821018,40 L 170.90362631192258,40 L 170.9802376302719,40 L 172.45223226837564,40 L 172.49031391784752,40 L 172.5264601234874,40 L 174.00021099766093,40 L 174.04033561562213,40 L 174.0679515317803,40 L 175.5518455652955,40 L 175.58542909993565,40 L 175.62313441310687,40 L 177.09475271490996,40 L 177.12831832877387,40 L 177.16607740427375,40 L 178.64547332295723,40 L 178.678465471982,40 L 178.7138590050206,40 L 180.19929422529088,40 L 180.24264458297205,40 L 181.78189589423718,40 L 181.82293447178571,40 L 183.2994989078261,40 L 183.33333333333334,40" stroke="#f59e0b" stroke-width="2" fill="none" stroke-dasharray="14750" stroke-dashoffset="14750">
      <animate attributeName="stroke-dashoffset" values="14750;0" dur="3s" begin="3.5999999999999996s" fill="freeze"/>
    </path>
    
    <!-- Glow effect for the line that also follows the circle -->
    <path d="M 30,160 L 30.0295692807664,160 L 30.0577586617637,160 L 31.550487637956376,160 L 31.571759599331962,160 L 31.601203434664804,160 L 33.09339478757082,160 L 33.120759812861905,160 L 33.15247958677495,160 L 34.64244876342943,160 L 34.66965250173452,160 L 34.69959811880158,160 L 36.19094719522516,160 L 36.21671727143248,160 L 36.24849080767419,160 L 37.74052087359421,160 L 37.76629094980153,160 L 37.79017934450553,160 L 39.29418048894189,160 L 39.31613343981391,160 L 39.34808618381784,160 L 40.83782239038143,160 L 40.86309068485454,160 L 40.89151303594273,160 L 42.38544270414228,160 L 42.40770030821008,160 L 42.44135552595511,160 L 43.93220282064447,160 L 43.95833131237623,160 L 43.9903915810375,160 L 45.47883749171311,160 L 45.5032097473751,160 L 45.53788644936479,160 L 47.0230886995442,160 L 47.054575503366365,160 L 47.08690458367096,160 L 48.57689168110166,160 L 48.60203453014121,160 L 48.631532127802714,160 L 50.12732555672937,160 L 50.15447553270579,160 L 50.187467681730595,160 L 51.6730641889869,160 L 51.704783962899945,160 L 51.739837001190295,160 L 53.22448370730682,160 L 53.24860507210171,160 L 53.280163559028765,160 L 54.773896098689875,160 L 54.796314989743664,160 L 54.82794515977561,160 L 56.31884621679363,160 L 56.34357688798008,160 L 56.374543989291794,160 L 57.86777474721869,160 L 57.895856603558656,160 L 59.418602879923284,160 L 59.44440879768305,160 L 59.46887065722616,160 L 60.9676568557819,160 L 60.99738742353429,160 L 61.0311860074891,160 L 62.50617341522193,160 L 62.542427145519156,160 L 62.57334048450221,160 L 64.06087243559048,160 L 64.08028063623898,160 L 64.11707198982288,160 L 65.60972928291065,160 L 65.63725559518775,160 L 65.66777467709392,160 L 67.16037820785303,160 L 67.18638125415124,160 L 67.21390756642833,160 L 68.70462941568414,160 L 68.73430622110786,160 L 68.7637321356645,160 L 70.25207052168275,160 L 70.27927425998786,160 L 70.30995462888,160 L 71.80549716693955,160 L 71.8360879319506,160 L 71.86908008097542,160 L 73.35639698274903,160 L 73.37953270485171,160 L 73.43066067941325,160 L 74.90546887938387,160 L 74.92899885856343,160 L 74.95856813932983,160 L 76.44864484064163,160 L 76.47627867757606,160 L 76.50548954281801,160 L 77.99630099595493,160 L 78.02291334864469,160 L 78.0536295590893,160 L 79.54569546656177,160 L 79.5736697982444,160 L 79.5992606666895,160 L 81.09190003900108,160 L 81.11956971748792,160 L 81.14863721652011,160 L 82.64715460343251,160 L 82.6763117063458,160 L 82.70679494669952,160 L 84.18964957519384,160 L 84.21896796509313,92.58278145695365 L 84.24937952234197,92.58278145695365 L 85.74427691245752,92.58278145695365 L 85.76510085442754,92.58278145695365 L 85.79343360163463,92.58278145695365 L 87.28684356732374,92.58278145695365 L 87.30677147048267,92.58278145695365 L 87.34485311995455,92.58278145695365 L 88.83740288838501,92.58278145695365 L 88.86620157577386,92.58278145695365 L 88.89055591065963,92.58278145695365 L 90.3797007316079,92.58278145695365 L 90.41233446510827,92.58278145695365 L 90.44409008057376,92.58278145695365 L 91.93520618690644,92.58278145695365 L 91.95020587660431,92.58278145695365 L 91.98861010004819,92.58278145695365 L 93.48322075774419,92.58278145695365 L 93.51320221636368,92.58278145695365 L 93.54818357154915,92.58278145695365 L 95.03150414022524,92.58278145695365 L 95.05797312670524,92.58278145695365 L 95.09381467914935,92.58278145695365 L 96.5770098023919,92.58278145695365 L 96.60702710256383,92.58278145695365 L 96.64032390478442,92.58278145695365 L 98.1288235777887,92.58278145695365 L 98.1506869247796,92.58278145695365 L 98.18172570919621,92.58278145695365 L 99.6728238947527,92.58278145695365 L 99.69773377370134,92.58278145695365 L 99.7298657254675,92.58278145695365 L 101.22408212608661,92.58278145695365 L 101.2534721990908,92.58278145695365 L 101.27911682986455,92.58278145695365 L 102.77127234121814,92.58278145695365 L 102.80410320325694,92.58278145695365 L 102.82702387604496,92.58278145695365 L 104.32163453374095,92.58278145695365 L 104.35052282501091,92.58278145695365 L 104.38378378567906,92.58278145695365 L 105.87049138106111,92.58278145695365 L 105.89868076205842,92.58278145695365 L 105.93271231610412,92.58278145695365 L 107.41793248705974,92.58278145695365 L 107.44359503860973,92.58278145695365 L 107.47561946571855,92.58278145695365 L 108.96768537319102,92.58278145695365 L 108.99567762564986,92.58278145695365 L 109.02813215138802,92.58278145695365 L 110.51215163033677,92.58278145695365 L 110.54976733962688,92.58278145695365 L 110.57154108273669,92.58278145695365 L 112.06073966601362,92.58278145695365 L 112.09004013513669,92.58278145695365 L 112.11919723804998,92.58278145695365 L 113.60495503229227,92.58278145695365 L 113.63728411259686,92.58278145695365 L 113.66430864313973,92.58278145695365 L 114.74464471691037,92.58278145695365 L 115.15992286430416,92.58278145695365 L 115.19205481607031,92.58278145695365 L 115.22590716235378,92.58278145695365 L 116.7080987221279,92.58278145695365 L 116.73619849924408,92.58278145695365 L 116.76910104438778,92.58278145695365 L 118.2545541854343,92.58278145695365 L 118.27622040388678,92.58278145695365 L 118.31256373806512,92.58278145695365 L 119.80498806106202,92.58278145695365 L 119.83204843315731,92.58278145695365 L 119.86351731620326,92.58278145695365 L 121.35343273052908,92.58278145695365 L 121.38592309781966,92.58278145695365 L 121.41939910780248,92.58278145695365 L 122.89990611461171,92.58278145695365 L 122.92757579309857,92.58278145695365 L 122.96400873115802,92.58278145695365 L 124.45258008726718,92.58278145695365 L 124.47618174955163,92.58278145695365 L 124.50524924858381,92.58278145695365 L 125.9996269361889,92.58278145695365 L 126.03313878772417,92.58278145695365 L 126.064518066889,92.58278145695365 L 127.54708596296376,92.58278145695365 L 127.5772466293455,92.58278145695365 L 127.61111689640518,92.58278145695365 L 129.0932546938506,92.58278145695365 L 129.12266268763102,92.58278145695365 L 129.15581612364184,92.58278145695365 L 130.64483549915656,92.58278145695365 L 130.67232596988117,92.58278145695365 L 130.70044366777358,92.58278145695365 L 132.19143432867273,92.58278145695365 L 132.21922945259314,92.58278145695365 L 132.25263377947107,92.58278145695365 L 133.7308827684763,92.58278145695365 L 133.76769204283642,92.58278145695365 L 133.79856954026704,92.58278145695365 L 135.28732010413842,92.58278145695365 L 135.30905800569576,92.58278145695365 L 135.3481432186361,92.58278145695365 L 136.83752100967524,92.58278145695365 L 136.87019058472805,92.58278145695365 L 136.9046163958506,92.58278145695365 L 138.3880803307365,92.58278145695365 L 138.4179721854749,92.58278145695365 L 138.44963819705927,92.58278145695365 L 139.92725995889674,92.58278145695365 L 139.95973240541113,92.58278145695365 L 139.9921152480444,92.58278145695365 L 141.480399871734,92.58278145695365 L 141.51079350820663,92.58278145695365 L 141.54552397252496,92.58278145695365 L 143.02923879827796,92.58278145695365 L 143.0572131299606,92.58278145695365 L 143.08809062739118,92.58278145695365 L 144.57872287276587,92.58278145695365 L 144.5986507759248,92.58278145695365 L 144.64757449501104,92.58278145695365 L 146.1244435842472,92.58278145695365 L 146.15460425062892,92.58278145695365 L 146.18435273915753,92.58278145695365 L 147.67566597402868,92.58278145695365 L 147.70991257738905,92.58278145695365 L 147.7410768072392,92.58278145695365 L 149.2232683670133,92.58278145695365 L 149.25342903339504,92.58278145695365 L 149.28819533926583,92.58278145695365 L 150.76950878100504,92.58278145695365 L 150.79914974487633,92.58278145695365 L 150.826156354643,92.58278145695365 L 152.32021146827609,92.58278145695365 L 152.3508380748396,92.58278145695365 L 152.3823786409904,92.58278145695365 L 153.87322593567978,92.58278145695365 L 153.90204254384486,92.58278145695365 L 153.93046489493304,92.58278145695365 L 155.41577466976977,92.58278145695365 L 155.44658048409548,40 L 155.4786765943092,40 L 156.96991814607543,40 L 156.99129763210837,40 L 157.02077730899367,40 L 158.51440232399744,40 L 158.53830863947766,40 L 158.5807271167953,40 L 160.06460322953424,40 L 160.0960900333564,40 L 160.12374179106706,40 L 161.6066860234425,40 L 161.64118351766996,40 L 161.67496418084852,40 L 163.16457494197857,40 L 163.17984344331975,40 L 163.2212225156165,40 L 164.7098297132781,40 L 164.7424634467785,40 L 164.77932648346726,40 L 166.25831022429762,40 L 166.28906227629466,40 L 166.32847006320696,40 L 167.80428182664602,40 L 167.8369872432513,40 L 167.87514057582806,40 L 169.36122094404234,40 L 169.3976538821018,40 L 170.90362631192258,40 L 170.9802376302719,40 L 172.45223226837564,40 L 172.49031391784752,40 L 172.5264601234874,40 L 174.00021099766093,40 L 174.04033561562213,40 L 174.0679515317803,40 L 175.5518455652955,40 L 175.58542909993565,40 L 175.62313441310687,40 L 177.09475271490996,40 L 177.12831832877387,40 L 177.16607740427375,40 L 178.64547332295723,40 L 178.678465471982,40 L 178.7138590050206,40 L 180.19929422529088,40 L 180.24264458297205,40 L 181.78189589423718,40 L 181.82293447178571,40 L 183.2994989078261,40 L 183.33333333333334,40" stroke="#f59e0b" stroke-width="4" fill="none" opacity="0.4" stroke-dasharray="14750" stroke-dashoffset="14750">
      <animate attributeName="stroke-dashoffset" values="14750;0" dur="3s" begin="3.5999999999999996s" fill="freeze"/>
    </path>
    
    <!-- Animated circle that moves along the path and draws the line -->
    <circle r="5" fill="#f59e0b" opacity="0" filter="url(#trailGlow)">
      <animate attributeName="opacity" values="0;1;1;1" dur="3.2s" begin="3.4s" fill="freeze"/>
      <animate attributeName="r" values="5;6;5" dur="1s" begin="3.4s" repeatCount="3"/>
      <animateMotion dur="3s" begin="3.4s" fill="freeze">
        <mpath href="#path_totalContributions_526.6666666666667"/>
      </animateMotion>
    </circle>
    
    <!-- Small trail dots that fade out -->
    <circle r="2" fill="#f59e0b" opacity="0">
      <animate attributeName="opacity" values="0;0.6;0" dur="0.8s" begin="3.8s" fill="freeze"/>
      <animateMotion dur="3s" begin="3.4s" fill="freeze">
        <mpath href="#path_totalContributions_526.6666666666667"/>
      </animateMotion>
    </circle>
    
    <!-- Hidden path for motion animation -->
    <path id="path_totalContributions_526.6666666666667" d="M 30,160 L 30.0295692807664,160 L 30.0577586617637,160 L 31.550487637956376,160 L 31.571759599331962,160 L 31.601203434664804,160 L 33.09339478757082,160 L 33.120759812861905,160 L 33.15247958677495,160 L 34.64244876342943,160 L 34.66965250173452,160 L 34.69959811880158,160 L 36.19094719522516,160 L 36.21671727143248,160 L 36.24849080767419,160 L 37.74052087359421,160 L 37.76629094980153,160 L 37.79017934450553,160 L 39.29418048894189,160 L 39.31613343981391,160 L 39.34808618381784,160 L 40.83782239038143,160 L 40.86309068485454,160 L 40.89151303594273,160 L 42.38544270414228,160 L 42.40770030821008,160 L 42.44135552595511,160 L 43.93220282064447,160 L 43.95833131237623,160 L 43.9903915810375,160 L 45.47883749171311,160 L 45.5032097473751,160 L 45.53788644936479,160 L 47.0230886995442,160 L 47.054575503366365,160 L 47.08690458367096,160 L 48.57689168110166,160 L 48.60203453014121,160 L 48.631532127802714,160 L 50.12732555672937,160 L 50.15447553270579,160 L 50.187467681730595,160 L 51.6730641889869,160 L 51.704783962899945,160 L 51.739837001190295,160 L 53.22448370730682,160 L 53.24860507210171,160 L 53.280163559028765,160 L 54.773896098689875,160 L 54.796314989743664,160 L 54.82794515977561,160 L 56.31884621679363,160 L 56.34357688798008,160 L 56.374543989291794,160 L 57.86777474721869,160 L 57.895856603558656,160 L 59.418602879923284,160 L 59.44440879768305,160 L 59.46887065722616,160 L 60.9676568557819,160 L 60.99738742353429,160 L 61.0311860074891,160 L 62.50617341522193,160 L 62.542427145519156,160 L 62.57334048450221,160 L 64.06087243559048,160 L 64.08028063623898,160 L 64.11707198982288,160 L 65.60972928291065,160 L 65.63725559518775,160 L 65.66777467709392,160 L 67.16037820785303,160 L 67.18638125415124,160 L 67.21390756642833,160 L 68.70462941568414,160 L 68.73430622110786,160 L 68.7637321356645,160 L 70.25207052168275,160 L 70.27927425998786,160 L 70.30995462888,160 L 71.80549716693955,160 L 71.8360879319506,160 L 71.86908008097542,160 L 73.35639698274903,160 L 73.37953270485171,160 L 73.43066067941325,160 L 74.90546887938387,160 L 74.92899885856343,160 L 74.95856813932983,160 L 76.44864484064163,160 L 76.47627867757606,160 L 76.50548954281801,160 L 77.99630099595493,160 L 78.02291334864469,160 L 78.0536295590893,160 L 79.54569546656177,160 L 79.5736697982444,160 L 79.5992606666895,160 L 81.09190003900108,160 L 81.11956971748792,160 L 81.14863721652011,160 L 82.64715460343251,160 L 82.6763117063458,160 L 82.70679494669952,160 L 84.18964957519384,160 L 84.21896796509313,92.58278145695365 L 84.24937952234197,92.58278145695365 L 85.74427691245752,92.58278145695365 L 85.76510085442754,92.58278145695365 L 85.79343360163463,92.58278145695365 L 87.28684356732374,92.58278145695365 L 87.30677147048267,92.58278145695365 L 87.34485311995455,92.58278145695365 L 88.83740288838501,92.58278145695365 L 88.86620157577386,92.58278145695365 L 88.89055591065963,92.58278145695365 L 90.3797007316079,92.58278145695365 L 90.41233446510827,92.58278145695365 L 90.44409008057376,92.58278145695365 L 91.93520618690644,92.58278145695365 L 91.95020587660431,92.58278145695365 L 91.98861010004819,92.58278145695365 L 93.48322075774419,92.58278145695365 L 93.51320221636368,92.58278145695365 L 93.54818357154915,92.58278145695365 L 95.03150414022524,92.58278145695365 L 95.05797312670524,92.58278145695365 L 95.09381467914935,92.58278145695365 L 96.5770098023919,92.58278145695365 L 96.60702710256383,92.58278145695365 L 96.64032390478442,92.58278145695365 L 98.1288235777887,92.58278145695365 L 98.1506869247796,92.58278145695365 L 98.18172570919621,92.58278145695365 L 99.6728238947527,92.58278145695365 L 99.69773377370134,92.58278145695365 L 99.7298657254675,92.58278145695365 L 101.22408212608661,92.58278145695365 L 101.2534721990908,92.58278145695365 L 101.27911682986455,92.58278145695365 L 102.77127234121814,92.58278145695365 L 102.80410320325694,92.58278145695365 L 102.82702387604496,92.58278145695365 L 104.32163453374095,92.58278145695365 L 104.35052282501091,92.58278145695365 L 104.38378378567906,92.58278145695365 L 105.87049138106111,92.58278145695365 L 105.89868076205842,92.58278145695365 L 105.93271231610412,92.58278145695365 L 107.41793248705974,92.58278145695365 L 107.44359503860973,92.58278145695365 L 107.47561946571855,92.58278145695365 L 108.96768537319102,92.58278145695365 L 108.99567762564986,92.58278145695365 L 109.02813215138802,92.58278145695365 L 110.51215163033677,92.58278145695365 L 110.54976733962688,92.58278145695365 L 110.57154108273669,92.58278145695365 L 112.06073966601362,92.58278145695365 L 112.09004013513669,92.58278145695365 L 112.11919723804998,92.58278145695365 L 113.60495503229227,92.58278145695365 L 113.63728411259686,92.58278145695365 L 113.66430864313973,92.58278145695365 L 114.74464471691037,92.58278145695365 L 115.15992286430416,92.58278145695365 L 115.19205481607031,92.58278145695365 L 115.22590716235378,92.58278145695365 L 116.7080987221279,92.58278145695365 L 116.73619849924408,92.58278145695365 L 116.76910104438778,92.58278145695365 L 118.2545541854343,92.58278145695365 L 118.27622040388678,92.58278145695365 L 118.31256373806512,92.58278145695365 L 119.80498806106202,92.58278145695365 L 119.83204843315731,92.58278145695365 L 119.86351731620326,92.58278145695365 L 121.35343273052908,92.58278145695365 L 121.38592309781966,92.58278145695365 L 121.41939910780248,92.58278145695365 L 122.89990611461171,92.58278145695365 L 122.92757579309857,92.58278145695365 L 122.96400873115802,92.58278145695365 L 124.45258008726718,92.58278145695365 L 124.47618174955163,92.58278145695365 L 124.50524924858381,92.58278145695365 L 125.9996269361889,92.58278145695365 L 126.03313878772417,92.58278145695365 L 126.064518066889,92.58278145695365 L 127.54708596296376,92.58278145695365 L 127.5772466293455,92.58278145695365 L 127.61111689640518,92.58278145695365 L 129.0932546938506,92.58278145695365 L 129.12266268763102,92.58278145695365 L 129.15581612364184,92.58278145695365 L 130.64483549915656,92.58278145695365 L 130.67232596988117,92.58278145695365 L 130.70044366777358,92.58278145695365 L 132.19143432867273,92.58278145695365 L 132.21922945259314,92.58278145695365 L 132.25263377947107,92.58278145695365 L 133.7308827684763,92.58278145695365 L 133.76769204283642,92.58278145695365 L 133.79856954026704,92.58278145695365 L 135.28732010413842,92.58278145695365 L 135.30905800569576,92.58278145695365 L 135.3481432186361,92.58278145695365 L 136.83752100967524,92.58278145695365 L 136.87019058472805,92.58278145695365 L 136.9046163958506,92.58278145695365 L 138.3880803307365,92.58278145695365 L 138.4179721854749,92.58278145695365 L 138.44963819705927,92.58278145695365 L 139.92725995889674,92.58278145695365 L 139.95973240541113,92.58278145695365 L 139.9921152480444,92.58278145695365 L 141.480399871734,92.58278145695365 L 141.51079350820663,92.58278145695365 L 141.54552397252496,92.58278145695365 L 143.02923879827796,92.58278145695365 L 143.0572131299606,92.58278145695365 L 143.08809062739118,92.58278145695365 L 144.57872287276587,92.58278145695365 L 144.5986507759248,92.58278145695365 L 144.64757449501104,92.58278145695365 L 146.1244435842472,92.58278145695365 L 146.15460425062892,92.58278145695365 L 146.18435273915753,92.58278145695365 L 147.67566597402868,92.58278145695365 L 147.70991257738905,92.58278145695365 L 147.7410768072392,92.58278145695365 L 149.2232683670133,92.58278145695365 L 149.25342903339504,92.58278145695365 L 149.28819533926583,92.58278145695365 L 150.76950878100504,92.58278145695365 L 150.79914974487633,92.58278145695365 L 150.826156354643,92.58278145695365 L 152.32021146827609,92.58278145695365 L 152.3508380748396,92.58278145695365 L 152.3823786409904,92.58278145695365 L 153.87322593567978,92.58278145695365 L 153.90204254384486,92.58278145695365 L 153.93046489493304,92.58278145695365 L 155.41577466976977,92.58278145695365 L 155.44658048409548,40 L 155.4786765943092,40 L 156.96991814607543,40 L 156.99129763210837,40 L 157.02077730899367,40 L 158.51440232399744,40 L 158.53830863947766,40 L 158.5807271167953,40 L 160.06460322953424,40 L 160.0960900333564,40 L 160.12374179106706,40 L 161.6066860234425,40 L 161.64118351766996,40 L 161.67496418084852,40 L 163.16457494197857,40 L 163.17984344331975,40 L 163.2212225156165,40 L 164.7098297132781,40 L 164.7424634467785,40 L 164.77932648346726,40 L 166.25831022429762,40 L 166.28906227629466,40 L 166.32847006320696,40 L 167.80428182664602,40 L 167.8369872432513,40 L 167.87514057582806,40 L 169.36122094404234,40 L 169.3976538821018,40 L 170.90362631192258,40 L 170.9802376302719,40 L 172.45223226837564,40 L 172.49031391784752,40 L 172.5264601234874,40 L 174.00021099766093,40 L 174.04033561562213,40 L 174.0679515317803,40 L 175.5518455652955,40 L 175.58542909993565,40 L 175.62313441310687,40 L 177.09475271490996,40 L 177.12831832877387,40 L 177.16607740427375,40 L 178.64547332295723,40 L 178.678465471982,40 L 178.7138590050206,40 L 180.19929422529088,40 L 180.24264458297205,40 L 181.78189589423718,40 L 181.82293447178571,40 L 183.2994989078261,40 L 183.33333333333334,40" fill="none" stroke="none"/>
  </g>
  
  <!-- Footer -->
  <text x="400" y="580" text-anchor="middle" fill="#64748b" font-size="12" font-family="Arial, sans-serif">
    Generated by GitHub User Rank Tracker • 2/10/2026
    <animate attributeName="opacity" values="0;1" dur="0.5s" begin="5s" fill="freeze"/>
  </text>
</svg>