<svg width="800" height="600" xmlns="http://www.w3.org/2000/svg">
  <defs>
    <linearGradient id="bgGradient" x1="0%" y1="0%" x2="100%" y2="100%">
      <stop offset="0%" style="stop-color:#f8fafc;stop-opacity:1" />
      <stop offset="100%" style="stop-color:#e2e8f0;stop-opacity:1" />
    </linearGradient>
    <filter id="shadow" x="-20%" y="-20%" width="140%" height="140%">
      <feDropShadow dx="2" dy="2" stdDeviation="3" flood-color="#00000020" flood-opacity="0.1"/>
    </filter>
    <!-- Trail effect filter -->
    <filter id="trailGlow" x="-50%" y="-50%" width="200%" height="200%">
      <feGaussianBlur stdDeviation="3" result="coloredBlur"/>
      <feMerge> 
        <feMergeNode in="coloredBlur"/>
        <feMergeNode in="SourceGraphic"/>
      </feMerge>
    </filter>
  </defs>
  
  <!-- Background -->
  <rect width="800" height="600" fill="url(#bgGradient)" rx="12"/>
  
  <!-- Header -->
  <text x="400" y="40" text-anchor="middle" fill="#0f172a" font-size="24" font-weight="bold" font-family="Arial, sans-serif">
    GitHub Progress Report
    <animate attributeName="opacity" values="0;1" dur="0.8s" begin="0s" fill="freeze"/>
    <animateTransform attributeName="transform" type="translate" values="0,-20;0,0" dur="0.8s" begin="0s" fill="freeze"/>
  </text>
  
  <!-- User Info -->
  <text x="400" y="70" text-anchor="middle" fill="#475569" font-size="16" font-family="Arial, sans-serif">
    @maifeeulasad • BANGLADESH • 100 days analyzed
    <animate attributeName="opacity" values="0;1" dur="0.6s" begin="0.3s" fill="freeze"/>
  </text>
  
  <!-- Progress Cards -->
  <!-- Followers Card -->
  <g transform="translate(60, 100)">
    <rect width="206.66666666666666" height="120" fill="#ffffff" stroke="#e2e8f0" stroke-width="1" rx="8" filter="url(#shadow)">
      <animate attributeName="opacity" values="0;1" dur="0.6s" begin="0.2s" fill="freeze"/>
      <animateTransform attributeName="transform" type="scale" values="0.8;1" dur="0.6s" begin="0.2s" fill="freeze"/>
    </rect>
    <text x="103.33333333333333" y="25" text-anchor="middle" fill="#64748b" font-size="14" font-weight="bold" font-family="Arial, sans-serif">FOLLOWERS
      <animate attributeName="opacity" values="0;1" dur="0.5s" begin="0.4s" fill="freeze"/>
    </text>
    
    <text x="103.33333333333333" y="50" text-anchor="middle" fill="#ef4444" font-size="32" font-weight="bold" font-family="Arial, sans-serif">
      ↘
      <animate attributeName="opacity" values="0;1" dur="0.5s" begin="0.6s" fill="freeze"/>
      <animateTransform attributeName="transform" type="scale" values="0;1.2;1" dur="0.8s" begin="0.6s" fill="freeze"/>
    </text>
    
    <text x="103.33333333333333" y="75" text-anchor="middle" fill="#1e293b" font-size="18" font-weight="bold" font-family="Arial, sans-serif">
      -15
      <animate attributeName="opacity" values="0;1" dur="0.5s" begin="0.8s" fill="freeze"/>
    </text>
    
    <text x="103.33333333333333" y="95" text-anchor="middle" fill="#64748b" font-size="12" font-family="Arial, sans-serif">
      #466 → #481
      <animate attributeName="opacity" values="0;1" dur="0.5s" begin="1s" fill="freeze"/>
    </text>
  </g>
  
  <!-- Public Contributions Card -->
  <g transform="translate(296.66666666666663, 100)">
    <rect width="206.66666666666666" height="120" fill="#ffffff" stroke="#e2e8f0" stroke-width="1" rx="8" filter="url(#shadow)">
      <animate attributeName="opacity" values="0;1" dur="0.6s" begin="0.4s" fill="freeze"/>
      <animateTransform attributeName="transform" type="scale" values="0.8;1" dur="0.6s" begin="0.4s" fill="freeze"/>
    </rect>
    <text x="103.33333333333333" y="25" text-anchor="middle" fill="#64748b" font-size="14" font-weight="bold" font-family="Arial, sans-serif">PUBLIC
      <animate attributeName="opacity" values="0;1" dur="0.5s" begin="0.6s" fill="freeze"/>
    </text>
    
    <text x="103.33333333333333" y="50" text-anchor="middle" fill="#6b7280" font-size="32" font-weight="bold" font-family="Arial, sans-serif">
      →
      <animate attributeName="opacity" values="0;1" dur="0.5s" begin="0.8s" fill="freeze"/>
      <animateTransform attributeName="transform" type="scale" values="0;1.2;1" dur="0.8s" begin="0.8s" fill="freeze"/>
    </text>
    
    <text x="103.33333333333333" y="75" text-anchor="middle" fill="#1e293b" font-size="18" font-weight="bold" font-family="Arial, sans-serif">
      0
      <animate attributeName="opacity" values="0;1" dur="0.5s" begin="1s" fill="freeze"/>
    </text>
    
    <text x="103.33333333333333" y="95" text-anchor="middle" fill="#64748b" font-size="12" font-family="Arial, sans-serif">
      #7 → #7
      <animate attributeName="opacity" values="0;1" dur="0.5s" begin="1.2s" fill="freeze"/>
    </text>
  </g>
  
  <!-- Total Contributions Card -->
  <g transform="translate(533.3333333333333, 100)">
    <rect width="206.66666666666666" height="120" fill="#ffffff" stroke="#e2e8f0" stroke-width="1" rx="8" filter="url(#shadow)">
      <animate attributeName="opacity" values="0;1" dur="0.6s" begin="0.6s" fill="freeze"/>
      <animateTransform attributeName="transform" type="scale" values="0.8;1" dur="0.6s" begin="0.6s" fill="freeze"/>
    </rect>
    <text x="103.33333333333333" y="25" text-anchor="middle" fill="#64748b" font-size="14" font-weight="bold" font-family="Arial, sans-serif">TOTAL
      <animate attributeName="opacity" values="0;1" dur="0.5s" begin="0.8s" fill="freeze"/>
    </text>
    
    <text x="103.33333333333333" y="50" text-anchor="middle" fill="#22c55e" font-size="32" font-weight="bold" font-family="Arial, sans-serif">
      ↗
      <animate attributeName="opacity" values="0;1" dur="0.5s" begin="1s" fill="freeze"/>
      <animateTransform attributeName="transform" type="scale" values="0;1.2;1" dur="0.8s" begin="1s" fill="freeze"/>
    </text>
    
    <text x="103.33333333333333" y="75" text-anchor="middle" fill="#1e293b" font-size="18" font-weight="bold" font-family="Arial, sans-serif">
      +3
      <animate attributeName="opacity" values="0;1" dur="0.5s" begin="1.2s" fill="freeze"/>
    </text>
    
    <text x="103.33333333333333" y="95" text-anchor="middle" fill="#64748b" font-size="12" font-family="Arial, sans-serif">
      #15 → #12
      <animate attributeName="opacity" values="0;1" dur="0.5s" begin="1.4s" fill="freeze"/>
    </text>
  </g>
  
  <!-- Timeline Charts (if we have snapshots) -->
  
  <!-- 👥 Followers Count Chart -->
  <g transform="translate(60, 250)">
    <!-- Chart Background -->
    <rect x="0" y="0" width="213.33333333333334" height="200" fill="#ffffff" stroke="#e2e8f0" stroke-width="1" rx="8" filter="url(#shadow)">
      <animate attributeName="opacity" values="0;1" dur="0.5s" begin="1.8s" fill="freeze"/>
    </rect>
    
    <!-- Chart Title -->
    <text x="106.66666666666667" y="25" text-anchor="middle" fill="#1e293b" font-size="14" font-weight="bold" font-family="Arial, sans-serif">
      👥 Followers Count
      <animate attributeName="opacity" values="0;1" dur="0.5s" begin="2s" fill="freeze"/>
    </text>
    
    <!-- Y-axis labels -->
    <text x="10" y="45" fill="#64748b" font-size="10" font-family="Arial, sans-serif">154
      <animate attributeName="opacity" values="0;1" dur="0.5s" begin="2.2s" fill="freeze"/>
    </text>
    <text x="10" y="185" fill="#64748b" font-size="10" font-family="Arial, sans-serif">150
      <animate attributeName="opacity" values="0;1" dur="0.5s" begin="2.2s" fill="freeze"/>
    </text>
    
    <!-- Chart Line with draw animation that follows the circle -->
    <path d="M 30,160 L 30.030803420233774,70 L 30.06289703607943,70 L 31.554022695132932,70 L 31.57540051964654,70 L 31.60487790550143,70 L 33.09838684256022,70 L 33.122291300147104,70 L 33.16470648088785,70 L 34.6484672733235,70 L 34.67995163013021,70 L 34.707601238868264,70 L 36.190430223362,70 L 36.224925036596446,70 L 36.25870307449095,70 L 37.7481980696461,70 L 37.76346538438675,70 L 37.804841240884585,70 L 39.29333275056382,70 L 39.32596394791443,70 L 39.362824119770664,70 L 40.84169292051125,70 L 40.87244258259453,70 L 40.91184730690754,70 L 42.38754437676891,70 L 42.42024725165351,70 L 42.458397619121634,70 L 43.94436249572759,70 L 43.980792602379864,70 L 45.48664799466906,70 L 45.56325335912478,70 L 47.03513360030098,70 L 47.07321229023512,70 L 47.109355686751414,70 L 48.58299202751046,70 L 48.62311352716341,70 L 48.650727297134466,70 L 50.13450600895362,70 L 50.168086933629645,70 L 50.205789316510305,70 L 51.67729325063304,70 L 51.71085625592557,70 L 51.74861239695673,70 L 53.22789334351778,70 L 53.26088292853836,70 L 53.29627371094773,70 L 54.781593489747735,70 L 54.824940478430406,70 L 56.36407216587615,70 L 56.40510755408752,70 L 57.88155723805582,70 L 57.915389034100826,70 L 59.43384175298941,70 L 59.46265612165485,70 L 59.51010664915865,70 L 60.9702138553764,70 L 61.00318552101348,70 L 61.03848670650535,70 L 62.520312205523176,70 L 62.55930478401572,70 L 62.59844071757626,70 L 64.06580527411086,70 L 64.09741506660207,70 L 64.13583422482267,70 L 65.61278565152892,70 L 65.64871401544323,70 L 65.69568071959259,70 L 67.15623591039778,70 L 67.19712794354118,70 L 67.23671186168917,70 L 68.7116204786766,70 L 68.74452046677968,70 L 68.78207949459235,70 L 70.25981937417255,70 L 70.2931135887126,70 L 70.3314969081662,70 L 71.80604713748366,70 L 71.84464548953926,70 L 71.88623637863907,70 L 73.35584085811098,70 L 73.38657260081075,70 L 73.42361196650197,70 L 74.90543746551981,70 L 74.93301539672385,70 L 74.97068194083752,70 L 76.44980161294708,70 L 76.48515655658946,70 L 76.5242028932325,70 L 77.99909359083642,70 L 78.03661677988211,70 L 78.07652324693308,70 L 79.55148562207101,70 L 79.57863348807112,70 L 79.61746479211217,70 L 81.09843016072207,70 L 81.13500362244233,70 L 81.16761690040944,70 L 82.64198793589193,70 L 82.67546134426696,70 L 82.71400593817205,70 L 84.18753476263011,70 L 84.2281400856375,70 L 84.26528696762972,70 L 85.73921001852474,70 L 85.76985216430704,70 L 85.804257380624,70 L 87.29359110132765,70 L 87.33098885468884,70 L 87.37308148652662,70 L 88.8405893981292,70 L 88.87399112897026,70 L 88.9073928598113,70 L 90.38532985260997,70 L 90.42242297645168,70 L 90.45890684125445,70 L 91.92695233436199,70 L 91.96723510846643,70 L 92.00558258915302,70 L 93.47395063116355,70 L 93.51421548588448,70 L 93.55840468559157,70 L 95.0366642272932,70 L 95.06868616560486,70 L 95.1100978608697,70 L 96.58102837472049,70 L 96.60869590284204,70 L 96.64376413634844,70 L 98.12487286002633,70 L 98.16148216051359,70 L 98.1986111231223,70 L 99.6738781277797,70 L 99.70584630794087,70 L 99.7471863256717,70 L 101.22177239375617,70 L 101.25393768713583,70 L 101.29203429645345,70 L 102.77049095137357,70 L 102.8020111469473,70 L 102.83614757251176,70 L 104.31702334420417,40 L 104.34685911772903,40 L 105.86402164100572,40 L 105.900451747658,40 L 105.93485696397495,40 L 107.41383328101654,40 L 107.4389204179143,40 L 107.48162230879103,40 L 108.97047220614024,40 L 109.00831794408887,40 L 110.51114496056684,40 L 110.55056760426335,40 L 110.6020320736708,40 L 112.06169129530109,40 L 112.10027172797317,40 L 112.12401491110857,40 L 113.61195091989936,40 L 113.64782552566317,40 L 113.68565334422831,40 L 115.16111746210422,40 L 115.1953076458192,40 L 115.23406727232624,40 L 116.7076856937018,40 L 116.73841743640159,40 L 116.77705162722417,40 L 118.25577707289676,40 L 118.28828283456288,40 L 118.32021517595705,40 L 119.80347422565475,40 L 119.84060318826346,40 L 119.88167441524183,40 L 121.35479109387943,40 L 121.3912212005317,40 L 121.43575086852525,40 L 122.8936181518057,40 L 122.9309621470164,40 L 122.97389698987858,40 L 124.44898480070103,40 L 124.48462645447937,40 L 124.5213611906511,40 L 125.99813342352238,40 L 126.03986766769019,40 L 126.08405686739728,40 L 127.54692365867378,40 L 127.58459020278744,40 L 127.63098348666482,40 L 129.09225545280998,40 L 129.13169601589,40 L 129.16814404192576,40 L 130.64683364883135,40 L 130.68279785151267,40 L 132.1984909853425,40 L 132.23140889282908,40 L 133.74081232305096,40 L 133.77806672134415,40 L 133.82230967920174,40 L 135.28704008636208,40 L 135.33407846804542,40 L 136.83857198718874,40 L 136.8705760061169,40 L 136.91275823487217,40 L 138.38336619982,40 L 138.42228710077853,40 L 138.4665479780196,40 L 139.9273361208103,40 L 139.96491306800647,40 L 139.99673789309966,40 L 141.4808033150548,40 L 141.52406070681997,40 L 143.03009529294414,40 L 143.0689086776017,40 L 144.57852714042556,40 L 144.61708965371415,40 L 146.12636764825155,40 L 146.16455385448666,40 L 147.66913697054747,40 L 147.70443815603934,40 L 147.73524157627313,40 L 149.22552502430221,40 L 149.26123835561452,40 L 150.77132272240937,40 L 150.8092222185085,40 L 150.8499529772004,40 L 152.3216002663911,40 L 152.36311947795696,40 L 153.86883151517816,40 L 153.91307447303575,40 L 155.42066804552428,40 L 155.4641225505079,40 L 156.97549711291464,40 L 157.01280526935835,40 L 158.51692248144818,40 L 158.56129087499025,40 L 160.06513929632763,40 L 160.1072677669324,40 L 161.60240736788955,40 L 161.64716998786858,40 L 163.15922548684824,40 L 163.20538581874015,40 L 164.7027832620181,40 L 164.75292169704665,40 L 166.25956554220977,40 L 166.30036797843567,40 L 167.804682303744,40 L 167.8451442716834,40 L 169.36047901784326,40 L 169.3985756271609,40 L 170.9033379370567,40 L 170.94819015395322,40 L 172.45130388056717,40 L 172.486963453729,40 L 174.00004035756805,40 L 174.04571686610552,40 L 175.54883059271947,40 L 175.59423831050444,40 L 177.10098967196856,40 L 177.14673785804,40 L 178.64194913653114,40 L 178.69045690766134,40 L 180.19921524007728,40 L 180.24388826313884,40 L 181.74823842721418,40 L 181.7951334538295,40 L 183.29566678921967,40 L 183.33333333333334,40" stroke="#22c55e" stroke-width="2" fill="none" stroke-dasharray="13200" stroke-dashoffset="13200">
      <animate attributeName="stroke-dashoffset" values="13200;0" dur="3s" begin="2.6s" fill="freeze"/>
    </path>
    
    <!-- Glow effect for the line that also follows the circle -->
    <path d="M 30,160 L 30.030803420233774,70 L 30.06289703607943,70 L 31.554022695132932,70 L 31.57540051964654,70 L 31.60487790550143,70 L 33.09838684256022,70 L 33.122291300147104,70 L 33.16470648088785,70 L 34.6484672733235,70 L 34.67995163013021,70 L 34.707601238868264,70 L 36.190430223362,70 L 36.224925036596446,70 L 36.25870307449095,70 L 37.7481980696461,70 L 37.76346538438675,70 L 37.804841240884585,70 L 39.29333275056382,70 L 39.32596394791443,70 L 39.362824119770664,70 L 40.84169292051125,70 L 40.87244258259453,70 L 40.91184730690754,70 L 42.38754437676891,70 L 42.42024725165351,70 L 42.458397619121634,70 L 43.94436249572759,70 L 43.980792602379864,70 L 45.48664799466906,70 L 45.56325335912478,70 L 47.03513360030098,70 L 47.07321229023512,70 L 47.109355686751414,70 L 48.58299202751046,70 L 48.62311352716341,70 L 48.650727297134466,70 L 50.13450600895362,70 L 50.168086933629645,70 L 50.205789316510305,70 L 51.67729325063304,70 L 51.71085625592557,70 L 51.74861239695673,70 L 53.22789334351778,70 L 53.26088292853836,70 L 53.29627371094773,70 L 54.781593489747735,70 L 54.824940478430406,70 L 56.36407216587615,70 L 56.40510755408752,70 L 57.88155723805582,70 L 57.915389034100826,70 L 59.43384175298941,70 L 59.46265612165485,70 L 59.51010664915865,70 L 60.9702138553764,70 L 61.00318552101348,70 L 61.03848670650535,70 L 62.520312205523176,70 L 62.55930478401572,70 L 62.59844071757626,70 L 64.06580527411086,70 L 64.09741506660207,70 L 64.13583422482267,70 L 65.61278565152892,70 L 65.64871401544323,70 L 65.69568071959259,70 L 67.15623591039778,70 L 67.19712794354118,70 L 67.23671186168917,70 L 68.7116204786766,70 L 68.74452046677968,70 L 68.78207949459235,70 L 70.25981937417255,70 L 70.2931135887126,70 L 70.3314969081662,70 L 71.80604713748366,70 L 71.84464548953926,70 L 71.88623637863907,70 L 73.35584085811098,70 L 73.38657260081075,70 L 73.42361196650197,70 L 74.90543746551981,70 L 74.93301539672385,70 L 74.97068194083752,70 L 76.44980161294708,70 L 76.48515655658946,70 L 76.5242028932325,70 L 77.99909359083642,70 L 78.03661677988211,70 L 78.07652324693308,70 L 79.55148562207101,70 L 79.57863348807112,70 L 79.61746479211217,70 L 81.09843016072207,70 L 81.13500362244233,70 L 81.16761690040944,70 L 82.64198793589193,70 L 82.67546134426696,70 L 82.71400593817205,70 L 84.18753476263011,70 L 84.2281400856375,70 L 84.26528696762972,70 L 85.73921001852474,70 L 85.76985216430704,70 L 85.804257380624,70 L 87.29359110132765,70 L 87.33098885468884,70 L 87.37308148652662,70 L 88.8405893981292,70 L 88.87399112897026,70 L 88.9073928598113,70 L 90.38532985260997,70 L 90.42242297645168,70 L 90.45890684125445,70 L 91.92695233436199,70 L 91.96723510846643,70 L 92.00558258915302,70 L 93.47395063116355,70 L 93.51421548588448,70 L 93.55840468559157,70 L 95.0366642272932,70 L 95.06868616560486,70 L 95.1100978608697,70 L 96.58102837472049,70 L 96.60869590284204,70 L 96.64376413634844,70 L 98.12487286002633,70 L 98.16148216051359,70 L 98.1986111231223,70 L 99.6738781277797,70 L 99.70584630794087,70 L 99.7471863256717,70 L 101.22177239375617,70 L 101.25393768713583,70 L 101.29203429645345,70 L 102.77049095137357,70 L 102.8020111469473,70 L 102.83614757251176,70 L 104.31702334420417,40 L 104.34685911772903,40 L 105.86402164100572,40 L 105.900451747658,40 L 105.93485696397495,40 L 107.41383328101654,40 L 107.4389204179143,40 L 107.48162230879103,40 L 108.97047220614024,40 L 109.00831794408887,40 L 110.51114496056684,40 L 110.55056760426335,40 L 110.6020320736708,40 L 112.06169129530109,40 L 112.10027172797317,40 L 112.12401491110857,40 L 113.61195091989936,40 L 113.64782552566317,40 L 113.68565334422831,40 L 115.16111746210422,40 L 115.1953076458192,40 L 115.23406727232624,40 L 116.7076856937018,40 L 116.73841743640159,40 L 116.77705162722417,40 L 118.25577707289676,40 L 118.28828283456288,40 L 118.32021517595705,40 L 119.80347422565475,40 L 119.84060318826346,40 L 119.88167441524183,40 L 121.35479109387943,40 L 121.3912212005317,40 L 121.43575086852525,40 L 122.8936181518057,40 L 122.9309621470164,40 L 122.97389698987858,40 L 124.44898480070103,40 L 124.48462645447937,40 L 124.5213611906511,40 L 125.99813342352238,40 L 126.03986766769019,40 L 126.08405686739728,40 L 127.54692365867378,40 L 127.58459020278744,40 L 127.63098348666482,40 L 129.09225545280998,40 L 129.13169601589,40 L 129.16814404192576,40 L 130.64683364883135,40 L 130.68279785151267,40 L 132.1984909853425,40 L 132.23140889282908,40 L 133.74081232305096,40 L 133.77806672134415,40 L 133.82230967920174,40 L 135.28704008636208,40 L 135.33407846804542,40 L 136.83857198718874,40 L 136.8705760061169,40 L 136.91275823487217,40 L 138.38336619982,40 L 138.42228710077853,40 L 138.4665479780196,40 L 139.9273361208103,40 L 139.96491306800647,40 L 139.99673789309966,40 L 141.4808033150548,40 L 141.52406070681997,40 L 143.03009529294414,40 L 143.0689086776017,40 L 144.57852714042556,40 L 144.61708965371415,40 L 146.12636764825155,40 L 146.16455385448666,40 L 147.66913697054747,40 L 147.70443815603934,40 L 147.73524157627313,40 L 149.22552502430221,40 L 149.26123835561452,40 L 150.77132272240937,40 L 150.8092222185085,40 L 150.8499529772004,40 L 152.3216002663911,40 L 152.36311947795696,40 L 153.86883151517816,40 L 153.91307447303575,40 L 155.42066804552428,40 L 155.4641225505079,40 L 156.97549711291464,40 L 157.01280526935835,40 L 158.51692248144818,40 L 158.56129087499025,40 L 160.06513929632763,40 L 160.1072677669324,40 L 161.60240736788955,40 L 161.64716998786858,40 L 163.15922548684824,40 L 163.20538581874015,40 L 164.7027832620181,40 L 164.75292169704665,40 L 166.25956554220977,40 L 166.30036797843567,40 L 167.804682303744,40 L 167.8451442716834,40 L 169.36047901784326,40 L 169.3985756271609,40 L 170.9033379370567,40 L 170.94819015395322,40 L 172.45130388056717,40 L 172.486963453729,40 L 174.00004035756805,40 L 174.04571686610552,40 L 175.54883059271947,40 L 175.59423831050444,40 L 177.10098967196856,40 L 177.14673785804,40 L 178.64194913653114,40 L 178.69045690766134,40 L 180.19921524007728,40 L 180.24388826313884,40 L 181.74823842721418,40 L 181.7951334538295,40 L 183.29566678921967,40 L 183.33333333333334,40" stroke="#22c55e" stroke-width="4" fill="none" opacity="0.4" stroke-dasharray="13200" stroke-dashoffset="13200">
      <animate attributeName="stroke-dashoffset" values="13200;0" dur="3s" begin="2.6s" fill="freeze"/>
    </path>
    
    <!-- Animated circle that moves along the path and draws the line -->
    <circle r="5" fill="#22c55e" opacity="0" filter="url(#trailGlow)">
      <animate attributeName="opacity" values="0;1;1;1" dur="3.2s" begin="2.4s" fill="freeze"/>
      <animate attributeName="r" values="5;6;5" dur="1s" begin="2.4s" repeatCount="3"/>
      <animateMotion dur="3s" begin="2.4s" fill="freeze">
        <mpath href="#path_followersCount_60"/>
      </animateMotion>
    </circle>
    
    <!-- Small trail dots that fade out -->
    <circle r="2" fill="#22c55e" opacity="0">
      <animate attributeName="opacity" values="0;0.6;0" dur="0.8s" begin="2.8s" fill="freeze"/>
      <animateMotion dur="3s" begin="2.4s" fill="freeze">
        <mpath href="#path_followersCount_60"/>
      </animateMotion>
    </circle>
    
    <!-- Hidden path for motion animation -->
    <path id="path_followersCount_60" d="M 30,160 L 30.030803420233774,70 L 30.06289703607943,70 L 31.554022695132932,70 L 31.57540051964654,70 L 31.60487790550143,70 L 33.09838684256022,70 L 33.122291300147104,70 L 33.16470648088785,70 L 34.6484672733235,70 L 34.67995163013021,70 L 34.707601238868264,70 L 36.190430223362,70 L 36.224925036596446,70 L 36.25870307449095,70 L 37.7481980696461,70 L 37.76346538438675,70 L 37.804841240884585,70 L 39.29333275056382,70 L 39.32596394791443,70 L 39.362824119770664,70 L 40.84169292051125,70 L 40.87244258259453,70 L 40.91184730690754,70 L 42.38754437676891,70 L 42.42024725165351,70 L 42.458397619121634,70 L 43.94436249572759,70 L 43.980792602379864,70 L 45.48664799466906,70 L 45.56325335912478,70 L 47.03513360030098,70 L 47.07321229023512,70 L 47.109355686751414,70 L 48.58299202751046,70 L 48.62311352716341,70 L 48.650727297134466,70 L 50.13450600895362,70 L 50.168086933629645,70 L 50.205789316510305,70 L 51.67729325063304,70 L 51.71085625592557,70 L 51.74861239695673,70 L 53.22789334351778,70 L 53.26088292853836,70 L 53.29627371094773,70 L 54.781593489747735,70 L 54.824940478430406,70 L 56.36407216587615,70 L 56.40510755408752,70 L 57.88155723805582,70 L 57.915389034100826,70 L 59.43384175298941,70 L 59.46265612165485,70 L 59.51010664915865,70 L 60.9702138553764,70 L 61.00318552101348,70 L 61.03848670650535,70 L 62.520312205523176,70 L 62.55930478401572,70 L 62.59844071757626,70 L 64.06580527411086,70 L 64.09741506660207,70 L 64.13583422482267,70 L 65.61278565152892,70 L 65.64871401544323,70 L 65.69568071959259,70 L 67.15623591039778,70 L 67.19712794354118,70 L 67.23671186168917,70 L 68.7116204786766,70 L 68.74452046677968,70 L 68.78207949459235,70 L 70.25981937417255,70 L 70.2931135887126,70 L 70.3314969081662,70 L 71.80604713748366,70 L 71.84464548953926,70 L 71.88623637863907,70 L 73.35584085811098,70 L 73.38657260081075,70 L 73.42361196650197,70 L 74.90543746551981,70 L 74.93301539672385,70 L 74.97068194083752,70 L 76.44980161294708,70 L 76.48515655658946,70 L 76.5242028932325,70 L 77.99909359083642,70 L 78.03661677988211,70 L 78.07652324693308,70 L 79.55148562207101,70 L 79.57863348807112,70 L 79.61746479211217,70 L 81.09843016072207,70 L 81.13500362244233,70 L 81.16761690040944,70 L 82.64198793589193,70 L 82.67546134426696,70 L 82.71400593817205,70 L 84.18753476263011,70 L 84.2281400856375,70 L 84.26528696762972,70 L 85.73921001852474,70 L 85.76985216430704,70 L 85.804257380624,70 L 87.29359110132765,70 L 87.33098885468884,70 L 87.37308148652662,70 L 88.8405893981292,70 L 88.87399112897026,70 L 88.9073928598113,70 L 90.38532985260997,70 L 90.42242297645168,70 L 90.45890684125445,70 L 91.92695233436199,70 L 91.96723510846643,70 L 92.00558258915302,70 L 93.47395063116355,70 L 93.51421548588448,70 L 93.55840468559157,70 L 95.0366642272932,70 L 95.06868616560486,70 L 95.1100978608697,70 L 96.58102837472049,70 L 96.60869590284204,70 L 96.64376413634844,70 L 98.12487286002633,70 L 98.16148216051359,70 L 98.1986111231223,70 L 99.6738781277797,70 L 99.70584630794087,70 L 99.7471863256717,70 L 101.22177239375617,70 L 101.25393768713583,70 L 101.29203429645345,70 L 102.77049095137357,70 L 102.8020111469473,70 L 102.83614757251176,70 L 104.31702334420417,40 L 104.34685911772903,40 L 105.86402164100572,40 L 105.900451747658,40 L 105.93485696397495,40 L 107.41383328101654,40 L 107.4389204179143,40 L 107.48162230879103,40 L 108.97047220614024,40 L 109.00831794408887,40 L 110.51114496056684,40 L 110.55056760426335,40 L 110.6020320736708,40 L 112.06169129530109,40 L 112.10027172797317,40 L 112.12401491110857,40 L 113.61195091989936,40 L 113.64782552566317,40 L 113.68565334422831,40 L 115.16111746210422,40 L 115.1953076458192,40 L 115.23406727232624,40 L 116.7076856937018,40 L 116.73841743640159,40 L 116.77705162722417,40 L 118.25577707289676,40 L 118.28828283456288,40 L 118.32021517595705,40 L 119.80347422565475,40 L 119.84060318826346,40 L 119.88167441524183,40 L 121.35479109387943,40 L 121.3912212005317,40 L 121.43575086852525,40 L 122.8936181518057,40 L 122.9309621470164,40 L 122.97389698987858,40 L 124.44898480070103,40 L 124.48462645447937,40 L 124.5213611906511,40 L 125.99813342352238,40 L 126.03986766769019,40 L 126.08405686739728,40 L 127.54692365867378,40 L 127.58459020278744,40 L 127.63098348666482,40 L 129.09225545280998,40 L 129.13169601589,40 L 129.16814404192576,40 L 130.64683364883135,40 L 130.68279785151267,40 L 132.1984909853425,40 L 132.23140889282908,40 L 133.74081232305096,40 L 133.77806672134415,40 L 133.82230967920174,40 L 135.28704008636208,40 L 135.33407846804542,40 L 136.83857198718874,40 L 136.8705760061169,40 L 136.91275823487217,40 L 138.38336619982,40 L 138.42228710077853,40 L 138.4665479780196,40 L 139.9273361208103,40 L 139.96491306800647,40 L 139.99673789309966,40 L 141.4808033150548,40 L 141.52406070681997,40 L 143.03009529294414,40 L 143.0689086776017,40 L 144.57852714042556,40 L 144.61708965371415,40 L 146.12636764825155,40 L 146.16455385448666,40 L 147.66913697054747,40 L 147.70443815603934,40 L 147.73524157627313,40 L 149.22552502430221,40 L 149.26123835561452,40 L 150.77132272240937,40 L 150.8092222185085,40 L 150.8499529772004,40 L 152.3216002663911,40 L 152.36311947795696,40 L 153.86883151517816,40 L 153.91307447303575,40 L 155.42066804552428,40 L 155.4641225505079,40 L 156.97549711291464,40 L 157.01280526935835,40 L 158.51692248144818,40 L 158.56129087499025,40 L 160.06513929632763,40 L 160.1072677669324,40 L 161.60240736788955,40 L 161.64716998786858,40 L 163.15922548684824,40 L 163.20538581874015,40 L 164.7027832620181,40 L 164.75292169704665,40 L 166.25956554220977,40 L 166.30036797843567,40 L 167.804682303744,40 L 167.8451442716834,40 L 169.36047901784326,40 L 169.3985756271609,40 L 170.9033379370567,40 L 170.94819015395322,40 L 172.45130388056717,40 L 172.486963453729,40 L 174.00004035756805,40 L 174.04571686610552,40 L 175.54883059271947,40 L 175.59423831050444,40 L 177.10098967196856,40 L 177.14673785804,40 L 178.64194913653114,40 L 178.69045690766134,40 L 180.19921524007728,40 L 180.24388826313884,40 L 181.74823842721418,40 L 181.7951334538295,40 L 183.29566678921967,40 L 183.33333333333334,40" fill="none" stroke="none"/>
  </g>
  <!-- 🔓 Public Contributions Chart -->
  <g transform="translate(293.33333333333337, 250)">
    <!-- Chart Background -->
    <rect x="0" y="0" width="213.33333333333334" height="200" fill="#ffffff" stroke="#e2e8f0" stroke-width="1" rx="8" filter="url(#shadow)">
      <animate attributeName="opacity" values="0;1" dur="0.5s" begin="2.3s" fill="freeze"/>
    </rect>
    
    <!-- Chart Title -->
    <text x="106.66666666666667" y="25" text-anchor="middle" fill="#1e293b" font-size="14" font-weight="bold" font-family="Arial, sans-serif">
      🔓 Public Contributions
      <animate attributeName="opacity" values="0;1" dur="0.5s" begin="2.5s" fill="freeze"/>
    </text>
    
    <!-- Y-axis labels -->
    <text x="10" y="45" fill="#64748b" font-size="10" font-family="Arial, sans-serif">3,861
      <animate attributeName="opacity" values="0;1" dur="0.5s" begin="2.6999999999999997s" fill="freeze"/>
    </text>
    <text x="10" y="185" fill="#64748b" font-size="10" font-family="Arial, sans-serif">3,434
      <animate attributeName="opacity" values="0;1" dur="0.5s" begin="2.6999999999999997s" fill="freeze"/>
    </text>
    
    <!-- Chart Line with draw animation that follows the circle -->
    <path d="M 30,160 L 30.030803420233774,40 L 30.06289703607943,40 L 31.554022695132932,40 L 31.57540051964654,40 L 31.60487790550143,40 L 33.09838684256022,40 L 33.122291300147104,40 L 33.16470648088785,40 L 34.6484672733235,40 L 34.67995163013021,40 L 34.707601238868264,40 L 36.190430223362,40 L 36.224925036596446,40 L 36.25870307449095,40 L 37.7481980696461,40 L 37.76346538438675,40 L 37.804841240884585,40 L 39.29333275056382,40 L 39.32596394791443,40 L 39.362824119770664,40 L 40.84169292051125,40 L 40.87244258259453,40 L 40.91184730690754,40 L 42.38754437676891,40 L 42.42024725165351,40 L 42.458397619121634,40 L 43.94436249572759,40 L 43.980792602379864,40 L 45.48664799466906,40 L 45.56325335912478,40 L 47.03513360030098,40 L 47.07321229023512,40 L 47.109355686751414,40 L 48.58299202751046,40 L 48.62311352716341,40 L 48.650727297134466,40 L 50.13450600895362,40 L 50.168086933629645,40 L 50.205789316510305,40 L 51.67729325063304,40 L 51.71085625592557,40 L 51.74861239695673,40 L 53.22789334351778,40 L 53.26088292853836,40 L 53.29627371094773,40 L 54.781593489747735,40 L 54.824940478430406,40 L 56.36407216587615,40 L 56.40510755408752,40 L 57.88155723805582,40 L 57.915389034100826,40 L 59.43384175298941,40 L 59.46265612165485,40 L 59.51010664915865,40 L 60.9702138553764,40 L 61.00318552101348,40 L 61.03848670650535,40 L 62.520312205523176,40 L 62.55930478401572,40 L 62.59844071757626,40 L 64.06580527411086,40 L 64.09741506660207,40 L 64.13583422482267,40 L 65.61278565152892,40 L 65.64871401544323,40 L 65.69568071959259,40 L 67.15623591039778,40 L 67.19712794354118,40 L 67.23671186168917,40 L 68.7116204786766,40 L 68.74452046677968,40 L 68.78207949459235,40 L 70.25981937417255,40 L 70.2931135887126,40 L 70.3314969081662,40 L 71.80604713748366,40 L 71.84464548953926,40 L 71.88623637863907,40 L 73.35584085811098,40 L 73.38657260081075,40 L 73.42361196650197,40 L 74.90543746551981,40 L 74.93301539672385,40 L 74.97068194083752,40 L 76.44980161294708,40 L 76.48515655658946,40 L 76.5242028932325,40 L 77.99909359083642,40 L 78.03661677988211,40 L 78.07652324693308,40 L 79.55148562207101,40 L 79.57863348807112,40 L 79.61746479211217,40 L 81.09843016072207,40 L 81.13500362244233,40 L 81.16761690040944,40 L 82.64198793589193,40 L 82.67546134426696,40 L 82.71400593817205,40 L 84.18753476263011,40 L 84.2281400856375,40 L 84.26528696762972,40 L 85.73921001852474,40 L 85.76985216430704,40 L 85.804257380624,40 L 87.29359110132765,40 L 87.33098885468884,40 L 87.37308148652662,40 L 88.8405893981292,40 L 88.87399112897026,40 L 88.9073928598113,40 L 90.38532985260997,40 L 90.42242297645168,40 L 90.45890684125445,40 L 91.92695233436199,40 L 91.96723510846643,40 L 92.00558258915302,40 L 93.47395063116355,40 L 93.51421548588448,40 L 93.55840468559157,40 L 95.0366642272932,40 L 95.06868616560486,40 L 95.1100978608697,40 L 96.58102837472049,40 L 96.60869590284204,40 L 96.64376413634844,40 L 98.12487286002633,40 L 98.16148216051359,40 L 98.1986111231223,40 L 99.6738781277797,40 L 99.70584630794087,40 L 99.7471863256717,40 L 101.22177239375617,40 L 101.25393768713583,40 L 101.29203429645345,40 L 102.77049095137357,40 L 102.8020111469473,40 L 102.83614757251176,40 L 104.31702334420417,66.4168618266979 L 104.34685911772903,66.4168618266979 L 105.86402164100572,66.4168618266979 L 105.900451747658,66.4168618266979 L 105.93485696397495,66.4168618266979 L 107.41383328101654,66.4168618266979 L 107.4389204179143,66.4168618266979 L 107.48162230879103,66.4168618266979 L 108.97047220614024,66.4168618266979 L 109.00831794408887,66.4168618266979 L 110.51114496056684,66.4168618266979 L 110.55056760426335,66.4168618266979 L 110.6020320736708,66.4168618266979 L 112.06169129530109,66.4168618266979 L 112.10027172797317,66.4168618266979 L 112.12401491110857,66.4168618266979 L 113.61195091989936,66.4168618266979 L 113.64782552566317,66.4168618266979 L 113.68565334422831,66.4168618266979 L 115.16111746210422,66.4168618266979 L 115.1953076458192,66.4168618266979 L 115.23406727232624,66.4168618266979 L 116.7076856937018,66.4168618266979 L 116.73841743640159,66.4168618266979 L 116.77705162722417,66.4168618266979 L 118.25577707289676,66.4168618266979 L 118.28828283456288,66.4168618266979 L 118.32021517595705,66.4168618266979 L 119.80347422565475,66.4168618266979 L 119.84060318826346,66.4168618266979 L 119.88167441524183,66.4168618266979 L 121.35479109387943,66.4168618266979 L 121.3912212005317,66.4168618266979 L 121.43575086852525,66.4168618266979 L 122.8936181518057,66.4168618266979 L 122.9309621470164,66.4168618266979 L 122.97389698987858,66.4168618266979 L 124.44898480070103,66.4168618266979 L 124.48462645447937,66.4168618266979 L 124.5213611906511,66.4168618266979 L 125.99813342352238,66.4168618266979 L 126.03986766769019,66.4168618266979 L 126.08405686739728,66.4168618266979 L 127.54692365867378,66.4168618266979 L 127.58459020278744,66.4168618266979 L 127.63098348666482,66.4168618266979 L 129.09225545280998,66.4168618266979 L 129.13169601589,66.4168618266979 L 129.16814404192576,66.4168618266979 L 130.64683364883135,66.4168618266979 L 130.68279785151267,66.4168618266979 L 132.1984909853425,66.4168618266979 L 132.23140889282908,66.4168618266979 L 133.74081232305096,66.4168618266979 L 133.77806672134415,66.4168618266979 L 133.82230967920174,66.4168618266979 L 135.28704008636208,66.4168618266979 L 135.33407846804542,66.4168618266979 L 136.83857198718874,66.4168618266979 L 136.8705760061169,66.4168618266979 L 136.91275823487217,66.4168618266979 L 138.38336619982,66.4168618266979 L 138.42228710077853,66.4168618266979 L 138.4665479780196,66.4168618266979 L 139.9273361208103,66.4168618266979 L 139.96491306800647,66.4168618266979 L 139.99673789309966,66.4168618266979 L 141.4808033150548,66.4168618266979 L 141.52406070681997,66.4168618266979 L 143.03009529294414,66.4168618266979 L 143.0689086776017,66.4168618266979 L 144.57852714042556,66.4168618266979 L 144.61708965371415,66.4168618266979 L 146.12636764825155,66.4168618266979 L 146.16455385448666,66.4168618266979 L 147.66913697054747,66.4168618266979 L 147.70443815603934,66.4168618266979 L 147.73524157627313,66.4168618266979 L 149.22552502430221,66.4168618266979 L 149.26123835561452,66.4168618266979 L 150.77132272240937,66.4168618266979 L 150.8092222185085,66.4168618266979 L 150.8499529772004,66.4168618266979 L 152.3216002663911,66.4168618266979 L 152.36311947795696,66.4168618266979 L 153.86883151517816,66.4168618266979 L 153.91307447303575,66.4168618266979 L 155.42066804552428,66.4168618266979 L 155.4641225505079,66.4168618266979 L 156.97549711291464,66.4168618266979 L 157.01280526935835,66.4168618266979 L 158.51692248144818,66.4168618266979 L 158.56129087499025,66.4168618266979 L 160.06513929632763,66.4168618266979 L 160.1072677669324,66.4168618266979 L 161.60240736788955,66.4168618266979 L 161.64716998786858,66.4168618266979 L 163.15922548684824,66.4168618266979 L 163.20538581874015,66.4168618266979 L 164.7027832620181,66.4168618266979 L 164.75292169704665,66.4168618266979 L 166.25956554220977,66.4168618266979 L 166.30036797843567,66.4168618266979 L 167.804682303744,66.4168618266979 L 167.8451442716834,66.4168618266979 L 169.36047901784326,66.4168618266979 L 169.3985756271609,66.4168618266979 L 170.9033379370567,66.4168618266979 L 170.94819015395322,66.4168618266979 L 172.45130388056717,66.4168618266979 L 172.486963453729,66.4168618266979 L 174.00004035756805,66.4168618266979 L 174.04571686610552,66.4168618266979 L 175.54883059271947,66.4168618266979 L 175.59423831050444,66.4168618266979 L 177.10098967196856,66.4168618266979 L 177.14673785804,66.4168618266979 L 178.64194913653114,66.4168618266979 L 178.69045690766134,66.4168618266979 L 180.19921524007728,66.4168618266979 L 180.24388826313884,66.4168618266979 L 181.74823842721418,66.4168618266979 L 181.7951334538295,66.4168618266979 L 183.29566678921967,66.4168618266979 L 183.33333333333334,66.4168618266979" stroke="#3b82f6" stroke-width="2" fill="none" stroke-dasharray="13200" stroke-dashoffset="13200">
      <animate attributeName="stroke-dashoffset" values="13200;0" dur="3s" begin="3.0999999999999996s" fill="freeze"/>
    </path>
    
    <!-- Glow effect for the line that also follows the circle -->
    <path d="M 30,160 L 30.030803420233774,40 L 30.06289703607943,40 L 31.554022695132932,40 L 31.57540051964654,40 L 31.60487790550143,40 L 33.09838684256022,40 L 33.122291300147104,40 L 33.16470648088785,40 L 34.6484672733235,40 L 34.67995163013021,40 L 34.707601238868264,40 L 36.190430223362,40 L 36.224925036596446,40 L 36.25870307449095,40 L 37.7481980696461,40 L 37.76346538438675,40 L 37.804841240884585,40 L 39.29333275056382,40 L 39.32596394791443,40 L 39.362824119770664,40 L 40.84169292051125,40 L 40.87244258259453,40 L 40.91184730690754,40 L 42.38754437676891,40 L 42.42024725165351,40 L 42.458397619121634,40 L 43.94436249572759,40 L 43.980792602379864,40 L 45.48664799466906,40 L 45.56325335912478,40 L 47.03513360030098,40 L 47.07321229023512,40 L 47.109355686751414,40 L 48.58299202751046,40 L 48.62311352716341,40 L 48.650727297134466,40 L 50.13450600895362,40 L 50.168086933629645,40 L 50.205789316510305,40 L 51.67729325063304,40 L 51.71085625592557,40 L 51.74861239695673,40 L 53.22789334351778,40 L 53.26088292853836,40 L 53.29627371094773,40 L 54.781593489747735,40 L 54.824940478430406,40 L 56.36407216587615,40 L 56.40510755408752,40 L 57.88155723805582,40 L 57.915389034100826,40 L 59.43384175298941,40 L 59.46265612165485,40 L 59.51010664915865,40 L 60.9702138553764,40 L 61.00318552101348,40 L 61.03848670650535,40 L 62.520312205523176,40 L 62.55930478401572,40 L 62.59844071757626,40 L 64.06580527411086,40 L 64.09741506660207,40 L 64.13583422482267,40 L 65.61278565152892,40 L 65.64871401544323,40 L 65.69568071959259,40 L 67.15623591039778,40 L 67.19712794354118,40 L 67.23671186168917,40 L 68.7116204786766,40 L 68.74452046677968,40 L 68.78207949459235,40 L 70.25981937417255,40 L 70.2931135887126,40 L 70.3314969081662,40 L 71.80604713748366,40 L 71.84464548953926,40 L 71.88623637863907,40 L 73.35584085811098,40 L 73.38657260081075,40 L 73.42361196650197,40 L 74.90543746551981,40 L 74.93301539672385,40 L 74.97068194083752,40 L 76.44980161294708,40 L 76.48515655658946,40 L 76.5242028932325,40 L 77.99909359083642,40 L 78.03661677988211,40 L 78.07652324693308,40 L 79.55148562207101,40 L 79.57863348807112,40 L 79.61746479211217,40 L 81.09843016072207,40 L 81.13500362244233,40 L 81.16761690040944,40 L 82.64198793589193,40 L 82.67546134426696,40 L 82.71400593817205,40 L 84.18753476263011,40 L 84.2281400856375,40 L 84.26528696762972,40 L 85.73921001852474,40 L 85.76985216430704,40 L 85.804257380624,40 L 87.29359110132765,40 L 87.33098885468884,40 L 87.37308148652662,40 L 88.8405893981292,40 L 88.87399112897026,40 L 88.9073928598113,40 L 90.38532985260997,40 L 90.42242297645168,40 L 90.45890684125445,40 L 91.92695233436199,40 L 91.96723510846643,40 L 92.00558258915302,40 L 93.47395063116355,40 L 93.51421548588448,40 L 93.55840468559157,40 L 95.0366642272932,40 L 95.06868616560486,40 L 95.1100978608697,40 L 96.58102837472049,40 L 96.60869590284204,40 L 96.64376413634844,40 L 98.12487286002633,40 L 98.16148216051359,40 L 98.1986111231223,40 L 99.6738781277797,40 L 99.70584630794087,40 L 99.7471863256717,40 L 101.22177239375617,40 L 101.25393768713583,40 L 101.29203429645345,40 L 102.77049095137357,40 L 102.8020111469473,40 L 102.83614757251176,40 L 104.31702334420417,66.4168618266979 L 104.34685911772903,66.4168618266979 L 105.86402164100572,66.4168618266979 L 105.900451747658,66.4168618266979 L 105.93485696397495,66.4168618266979 L 107.41383328101654,66.4168618266979 L 107.4389204179143,66.4168618266979 L 107.48162230879103,66.4168618266979 L 108.97047220614024,66.4168618266979 L 109.00831794408887,66.4168618266979 L 110.51114496056684,66.4168618266979 L 110.55056760426335,66.4168618266979 L 110.6020320736708,66.4168618266979 L 112.06169129530109,66.4168618266979 L 112.10027172797317,66.4168618266979 L 112.12401491110857,66.4168618266979 L 113.61195091989936,66.4168618266979 L 113.64782552566317,66.4168618266979 L 113.68565334422831,66.4168618266979 L 115.16111746210422,66.4168618266979 L 115.1953076458192,66.4168618266979 L 115.23406727232624,66.4168618266979 L 116.7076856937018,66.4168618266979 L 116.73841743640159,66.4168618266979 L 116.77705162722417,66.4168618266979 L 118.25577707289676,66.4168618266979 L 118.28828283456288,66.4168618266979 L 118.32021517595705,66.4168618266979 L 119.80347422565475,66.4168618266979 L 119.84060318826346,66.4168618266979 L 119.88167441524183,66.4168618266979 L 121.35479109387943,66.4168618266979 L 121.3912212005317,66.4168618266979 L 121.43575086852525,66.4168618266979 L 122.8936181518057,66.4168618266979 L 122.9309621470164,66.4168618266979 L 122.97389698987858,66.4168618266979 L 124.44898480070103,66.4168618266979 L 124.48462645447937,66.4168618266979 L 124.5213611906511,66.4168618266979 L 125.99813342352238,66.4168618266979 L 126.03986766769019,66.4168618266979 L 126.08405686739728,66.4168618266979 L 127.54692365867378,66.4168618266979 L 127.58459020278744,66.4168618266979 L 127.63098348666482,66.4168618266979 L 129.09225545280998,66.4168618266979 L 129.13169601589,66.4168618266979 L 129.16814404192576,66.4168618266979 L 130.64683364883135,66.4168618266979 L 130.68279785151267,66.4168618266979 L 132.1984909853425,66.4168618266979 L 132.23140889282908,66.4168618266979 L 133.74081232305096,66.4168618266979 L 133.77806672134415,66.4168618266979 L 133.82230967920174,66.4168618266979 L 135.28704008636208,66.4168618266979 L 135.33407846804542,66.4168618266979 L 136.83857198718874,66.4168618266979 L 136.8705760061169,66.4168618266979 L 136.91275823487217,66.4168618266979 L 138.38336619982,66.4168618266979 L 138.42228710077853,66.4168618266979 L 138.4665479780196,66.4168618266979 L 139.9273361208103,66.4168618266979 L 139.96491306800647,66.4168618266979 L 139.99673789309966,66.4168618266979 L 141.4808033150548,66.4168618266979 L 141.52406070681997,66.4168618266979 L 143.03009529294414,66.4168618266979 L 143.0689086776017,66.4168618266979 L 144.57852714042556,66.4168618266979 L 144.61708965371415,66.4168618266979 L 146.12636764825155,66.4168618266979 L 146.16455385448666,66.4168618266979 L 147.66913697054747,66.4168618266979 L 147.70443815603934,66.4168618266979 L 147.73524157627313,66.4168618266979 L 149.22552502430221,66.4168618266979 L 149.26123835561452,66.4168618266979 L 150.77132272240937,66.4168618266979 L 150.8092222185085,66.4168618266979 L 150.8499529772004,66.4168618266979 L 152.3216002663911,66.4168618266979 L 152.36311947795696,66.4168618266979 L 153.86883151517816,66.4168618266979 L 153.91307447303575,66.4168618266979 L 155.42066804552428,66.4168618266979 L 155.4641225505079,66.4168618266979 L 156.97549711291464,66.4168618266979 L 157.01280526935835,66.4168618266979 L 158.51692248144818,66.4168618266979 L 158.56129087499025,66.4168618266979 L 160.06513929632763,66.4168618266979 L 160.1072677669324,66.4168618266979 L 161.60240736788955,66.4168618266979 L 161.64716998786858,66.4168618266979 L 163.15922548684824,66.4168618266979 L 163.20538581874015,66.4168618266979 L 164.7027832620181,66.4168618266979 L 164.75292169704665,66.4168618266979 L 166.25956554220977,66.4168618266979 L 166.30036797843567,66.4168618266979 L 167.804682303744,66.4168618266979 L 167.8451442716834,66.4168618266979 L 169.36047901784326,66.4168618266979 L 169.3985756271609,66.4168618266979 L 170.9033379370567,66.4168618266979 L 170.94819015395322,66.4168618266979 L 172.45130388056717,66.4168618266979 L 172.486963453729,66.4168618266979 L 174.00004035756805,66.4168618266979 L 174.04571686610552,66.4168618266979 L 175.54883059271947,66.4168618266979 L 175.59423831050444,66.4168618266979 L 177.10098967196856,66.4168618266979 L 177.14673785804,66.4168618266979 L 178.64194913653114,66.4168618266979 L 178.69045690766134,66.4168618266979 L 180.19921524007728,66.4168618266979 L 180.24388826313884,66.4168618266979 L 181.74823842721418,66.4168618266979 L 181.7951334538295,66.4168618266979 L 183.29566678921967,66.4168618266979 L 183.33333333333334,66.4168618266979" stroke="#3b82f6" stroke-width="4" fill="none" opacity="0.4" stroke-dasharray="13200" stroke-dashoffset="13200">
      <animate attributeName="stroke-dashoffset" values="13200;0" dur="3s" begin="3.0999999999999996s" fill="freeze"/>
    </path>
    
    <!-- Animated circle that moves along the path and draws the line -->
    <circle r="5" fill="#3b82f6" opacity="0" filter="url(#trailGlow)">
      <animate attributeName="opacity" values="0;1;1;1" dur="3.2s" begin="2.9s" fill="freeze"/>
      <animate attributeName="r" values="5;6;5" dur="1s" begin="2.9s" repeatCount="3"/>
      <animateMotion dur="3s" begin="2.9s" fill="freeze">
        <mpath href="#path_publicContributions_293.33333333333337"/>
      </animateMotion>
    </circle>
    
    <!-- Small trail dots that fade out -->
    <circle r="2" fill="#3b82f6" opacity="0">
      <animate attributeName="opacity" values="0;0.6;0" dur="0.8s" begin="3.3s" fill="freeze"/>
      <animateMotion dur="3s" begin="2.9s" fill="freeze">
        <mpath href="#path_publicContributions_293.33333333333337"/>
      </animateMotion>
    </circle>
    
    <!-- Hidden path for motion animation -->
    <path id="path_publicContributions_293.33333333333337" d="M 30,160 L 30.030803420233774,40 L 30.06289703607943,40 L 31.554022695132932,40 L 31.57540051964654,40 L 31.60487790550143,40 L 33.09838684256022,40 L 33.122291300147104,40 L 33.16470648088785,40 L 34.6484672733235,40 L 34.67995163013021,40 L 34.707601238868264,40 L 36.190430223362,40 L 36.224925036596446,40 L 36.25870307449095,40 L 37.7481980696461,40 L 37.76346538438675,40 L 37.804841240884585,40 L 39.29333275056382,40 L 39.32596394791443,40 L 39.362824119770664,40 L 40.84169292051125,40 L 40.87244258259453,40 L 40.91184730690754,40 L 42.38754437676891,40 L 42.42024725165351,40 L 42.458397619121634,40 L 43.94436249572759,40 L 43.980792602379864,40 L 45.48664799466906,40 L 45.56325335912478,40 L 47.03513360030098,40 L 47.07321229023512,40 L 47.109355686751414,40 L 48.58299202751046,40 L 48.62311352716341,40 L 48.650727297134466,40 L 50.13450600895362,40 L 50.168086933629645,40 L 50.205789316510305,40 L 51.67729325063304,40 L 51.71085625592557,40 L 51.74861239695673,40 L 53.22789334351778,40 L 53.26088292853836,40 L 53.29627371094773,40 L 54.781593489747735,40 L 54.824940478430406,40 L 56.36407216587615,40 L 56.40510755408752,40 L 57.88155723805582,40 L 57.915389034100826,40 L 59.43384175298941,40 L 59.46265612165485,40 L 59.51010664915865,40 L 60.9702138553764,40 L 61.00318552101348,40 L 61.03848670650535,40 L 62.520312205523176,40 L 62.55930478401572,40 L 62.59844071757626,40 L 64.06580527411086,40 L 64.09741506660207,40 L 64.13583422482267,40 L 65.61278565152892,40 L 65.64871401544323,40 L 65.69568071959259,40 L 67.15623591039778,40 L 67.19712794354118,40 L 67.23671186168917,40 L 68.7116204786766,40 L 68.74452046677968,40 L 68.78207949459235,40 L 70.25981937417255,40 L 70.2931135887126,40 L 70.3314969081662,40 L 71.80604713748366,40 L 71.84464548953926,40 L 71.88623637863907,40 L 73.35584085811098,40 L 73.38657260081075,40 L 73.42361196650197,40 L 74.90543746551981,40 L 74.93301539672385,40 L 74.97068194083752,40 L 76.44980161294708,40 L 76.48515655658946,40 L 76.5242028932325,40 L 77.99909359083642,40 L 78.03661677988211,40 L 78.07652324693308,40 L 79.55148562207101,40 L 79.57863348807112,40 L 79.61746479211217,40 L 81.09843016072207,40 L 81.13500362244233,40 L 81.16761690040944,40 L 82.64198793589193,40 L 82.67546134426696,40 L 82.71400593817205,40 L 84.18753476263011,40 L 84.2281400856375,40 L 84.26528696762972,40 L 85.73921001852474,40 L 85.76985216430704,40 L 85.804257380624,40 L 87.29359110132765,40 L 87.33098885468884,40 L 87.37308148652662,40 L 88.8405893981292,40 L 88.87399112897026,40 L 88.9073928598113,40 L 90.38532985260997,40 L 90.42242297645168,40 L 90.45890684125445,40 L 91.92695233436199,40 L 91.96723510846643,40 L 92.00558258915302,40 L 93.47395063116355,40 L 93.51421548588448,40 L 93.55840468559157,40 L 95.0366642272932,40 L 95.06868616560486,40 L 95.1100978608697,40 L 96.58102837472049,40 L 96.60869590284204,40 L 96.64376413634844,40 L 98.12487286002633,40 L 98.16148216051359,40 L 98.1986111231223,40 L 99.6738781277797,40 L 99.70584630794087,40 L 99.7471863256717,40 L 101.22177239375617,40 L 101.25393768713583,40 L 101.29203429645345,40 L 102.77049095137357,40 L 102.8020111469473,40 L 102.83614757251176,40 L 104.31702334420417,66.4168618266979 L 104.34685911772903,66.4168618266979 L 105.86402164100572,66.4168618266979 L 105.900451747658,66.4168618266979 L 105.93485696397495,66.4168618266979 L 107.41383328101654,66.4168618266979 L 107.4389204179143,66.4168618266979 L 107.48162230879103,66.4168618266979 L 108.97047220614024,66.4168618266979 L 109.00831794408887,66.4168618266979 L 110.51114496056684,66.4168618266979 L 110.55056760426335,66.4168618266979 L 110.6020320736708,66.4168618266979 L 112.06169129530109,66.4168618266979 L 112.10027172797317,66.4168618266979 L 112.12401491110857,66.4168618266979 L 113.61195091989936,66.4168618266979 L 113.64782552566317,66.4168618266979 L 113.68565334422831,66.4168618266979 L 115.16111746210422,66.4168618266979 L 115.1953076458192,66.4168618266979 L 115.23406727232624,66.4168618266979 L 116.7076856937018,66.4168618266979 L 116.73841743640159,66.4168618266979 L 116.77705162722417,66.4168618266979 L 118.25577707289676,66.4168618266979 L 118.28828283456288,66.4168618266979 L 118.32021517595705,66.4168618266979 L 119.80347422565475,66.4168618266979 L 119.84060318826346,66.4168618266979 L 119.88167441524183,66.4168618266979 L 121.35479109387943,66.4168618266979 L 121.3912212005317,66.4168618266979 L 121.43575086852525,66.4168618266979 L 122.8936181518057,66.4168618266979 L 122.9309621470164,66.4168618266979 L 122.97389698987858,66.4168618266979 L 124.44898480070103,66.4168618266979 L 124.48462645447937,66.4168618266979 L 124.5213611906511,66.4168618266979 L 125.99813342352238,66.4168618266979 L 126.03986766769019,66.4168618266979 L 126.08405686739728,66.4168618266979 L 127.54692365867378,66.4168618266979 L 127.58459020278744,66.4168618266979 L 127.63098348666482,66.4168618266979 L 129.09225545280998,66.4168618266979 L 129.13169601589,66.4168618266979 L 129.16814404192576,66.4168618266979 L 130.64683364883135,66.4168618266979 L 130.68279785151267,66.4168618266979 L 132.1984909853425,66.4168618266979 L 132.23140889282908,66.4168618266979 L 133.74081232305096,66.4168618266979 L 133.77806672134415,66.4168618266979 L 133.82230967920174,66.4168618266979 L 135.28704008636208,66.4168618266979 L 135.33407846804542,66.4168618266979 L 136.83857198718874,66.4168618266979 L 136.8705760061169,66.4168618266979 L 136.91275823487217,66.4168618266979 L 138.38336619982,66.4168618266979 L 138.42228710077853,66.4168618266979 L 138.4665479780196,66.4168618266979 L 139.9273361208103,66.4168618266979 L 139.96491306800647,66.4168618266979 L 139.99673789309966,66.4168618266979 L 141.4808033150548,66.4168618266979 L 141.52406070681997,66.4168618266979 L 143.03009529294414,66.4168618266979 L 143.0689086776017,66.4168618266979 L 144.57852714042556,66.4168618266979 L 144.61708965371415,66.4168618266979 L 146.12636764825155,66.4168618266979 L 146.16455385448666,66.4168618266979 L 147.66913697054747,66.4168618266979 L 147.70443815603934,66.4168618266979 L 147.73524157627313,66.4168618266979 L 149.22552502430221,66.4168618266979 L 149.26123835561452,66.4168618266979 L 150.77132272240937,66.4168618266979 L 150.8092222185085,66.4168618266979 L 150.8499529772004,66.4168618266979 L 152.3216002663911,66.4168618266979 L 152.36311947795696,66.4168618266979 L 153.86883151517816,66.4168618266979 L 153.91307447303575,66.4168618266979 L 155.42066804552428,66.4168618266979 L 155.4641225505079,66.4168618266979 L 156.97549711291464,66.4168618266979 L 157.01280526935835,66.4168618266979 L 158.51692248144818,66.4168618266979 L 158.56129087499025,66.4168618266979 L 160.06513929632763,66.4168618266979 L 160.1072677669324,66.4168618266979 L 161.60240736788955,66.4168618266979 L 161.64716998786858,66.4168618266979 L 163.15922548684824,66.4168618266979 L 163.20538581874015,66.4168618266979 L 164.7027832620181,66.4168618266979 L 164.75292169704665,66.4168618266979 L 166.25956554220977,66.4168618266979 L 166.30036797843567,66.4168618266979 L 167.804682303744,66.4168618266979 L 167.8451442716834,66.4168618266979 L 169.36047901784326,66.4168618266979 L 169.3985756271609,66.4168618266979 L 170.9033379370567,66.4168618266979 L 170.94819015395322,66.4168618266979 L 172.45130388056717,66.4168618266979 L 172.486963453729,66.4168618266979 L 174.00004035756805,66.4168618266979 L 174.04571686610552,66.4168618266979 L 175.54883059271947,66.4168618266979 L 175.59423831050444,66.4168618266979 L 177.10098967196856,66.4168618266979 L 177.14673785804,66.4168618266979 L 178.64194913653114,66.4168618266979 L 178.69045690766134,66.4168618266979 L 180.19921524007728,66.4168618266979 L 180.24388826313884,66.4168618266979 L 181.74823842721418,66.4168618266979 L 181.7951334538295,66.4168618266979 L 183.29566678921967,66.4168618266979 L 183.33333333333334,66.4168618266979" fill="none" stroke="none"/>
  </g>
  <!-- 📊 Total Contributions Chart -->
  <g transform="translate(526.6666666666667, 250)">
    <!-- Chart Background -->
    <rect x="0" y="0" width="213.33333333333334" height="200" fill="#ffffff" stroke="#e2e8f0" stroke-width="1" rx="8" filter="url(#shadow)">
      <animate attributeName="opacity" values="0;1" dur="0.5s" begin="2.8s" fill="freeze"/>
    </rect>
    
    <!-- Chart Title -->
    <text x="106.66666666666667" y="25" text-anchor="middle" fill="#1e293b" font-size="14" font-weight="bold" font-family="Arial, sans-serif">
      📊 Total Contributions
      <animate attributeName="opacity" values="0;1" dur="0.5s" begin="3s" fill="freeze"/>
    </text>
    
    <!-- Y-axis labels -->
    <text x="10" y="45" fill="#64748b" font-size="10" font-family="Arial, sans-serif">5,314
      <animate attributeName="opacity" values="0;1" dur="0.5s" begin="3.1999999999999997s" fill="freeze"/>
    </text>
    <text x="10" y="185" fill="#64748b" font-size="10" font-family="Arial, sans-serif">4,917
      <animate attributeName="opacity" values="0;1" dur="0.5s" begin="3.1999999999999997s" fill="freeze"/>
    </text>
    
    <!-- Chart Line with draw animation that follows the circle -->
    <path d="M 30,160 L 30.030803420233774,40 L 30.06289703607943,40 L 31.554022695132932,40 L 31.57540051964654,40 L 31.60487790550143,40 L 33.09838684256022,40 L 33.122291300147104,40 L 33.16470648088785,40 L 34.6484672733235,40 L 34.67995163013021,40 L 34.707601238868264,40 L 36.190430223362,40 L 36.224925036596446,40 L 36.25870307449095,40 L 37.7481980696461,40 L 37.76346538438675,40 L 37.804841240884585,40 L 39.29333275056382,40 L 39.32596394791443,40 L 39.362824119770664,40 L 40.84169292051125,40 L 40.87244258259453,40 L 40.91184730690754,40 L 42.38754437676891,40 L 42.42024725165351,40 L 42.458397619121634,40 L 43.94436249572759,40 L 43.980792602379864,40 L 45.48664799466906,40 L 45.56325335912478,40 L 47.03513360030098,40 L 47.07321229023512,40 L 47.109355686751414,40 L 48.58299202751046,40 L 48.62311352716341,40 L 48.650727297134466,40 L 50.13450600895362,40 L 50.168086933629645,40 L 50.205789316510305,40 L 51.67729325063304,40 L 51.71085625592557,40 L 51.74861239695673,40 L 53.22789334351778,40 L 53.26088292853836,40 L 53.29627371094773,40 L 54.781593489747735,40 L 54.824940478430406,40 L 56.36407216587615,40 L 56.40510755408752,40 L 57.88155723805582,40 L 57.915389034100826,40 L 59.43384175298941,40 L 59.46265612165485,40 L 59.51010664915865,40 L 60.9702138553764,40 L 61.00318552101348,40 L 61.03848670650535,40 L 62.520312205523176,40 L 62.55930478401572,40 L 62.59844071757626,40 L 64.06580527411086,40 L 64.09741506660207,40 L 64.13583422482267,40 L 65.61278565152892,40 L 65.64871401544323,40 L 65.69568071959259,40 L 67.15623591039778,40 L 67.19712794354118,40 L 67.23671186168917,40 L 68.7116204786766,40 L 68.74452046677968,40 L 68.78207949459235,40 L 70.25981937417255,40 L 70.2931135887126,40 L 70.3314969081662,40 L 71.80604713748366,40 L 71.84464548953926,40 L 71.88623637863907,40 L 73.35584085811098,40 L 73.38657260081075,40 L 73.42361196650197,40 L 74.90543746551981,40 L 74.93301539672385,40 L 74.97068194083752,40 L 76.44980161294708,40 L 76.48515655658946,40 L 76.5242028932325,40 L 77.99909359083642,40 L 78.03661677988211,40 L 78.07652324693308,40 L 79.55148562207101,40 L 79.57863348807112,40 L 79.61746479211217,40 L 81.09843016072207,40 L 81.13500362244233,40 L 81.16761690040944,40 L 82.64198793589193,40 L 82.67546134426696,40 L 82.71400593817205,40 L 84.18753476263011,40 L 84.2281400856375,40 L 84.26528696762972,40 L 85.73921001852474,40 L 85.76985216430704,40 L 85.804257380624,40 L 87.29359110132765,40 L 87.33098885468884,40 L 87.37308148652662,40 L 88.8405893981292,40 L 88.87399112897026,40 L 88.9073928598113,40 L 90.38532985260997,40 L 90.42242297645168,40 L 90.45890684125445,40 L 91.92695233436199,40 L 91.96723510846643,40 L 92.00558258915302,40 L 93.47395063116355,40 L 93.51421548588448,40 L 93.55840468559157,40 L 95.0366642272932,40 L 95.06868616560486,40 L 95.1100978608697,40 L 96.58102837472049,40 L 96.60869590284204,40 L 96.64376413634844,40 L 98.12487286002633,40 L 98.16148216051359,40 L 98.1986111231223,40 L 99.6738781277797,40 L 99.70584630794087,40 L 99.7471863256717,40 L 101.22177239375617,40 L 101.25393768713583,40 L 101.29203429645345,40 L 102.77049095137357,40 L 102.8020111469473,40 L 102.83614757251176,40 L 104.31702334420417,72.04030226700252 L 104.34685911772903,72.04030226700252 L 105.86402164100572,72.04030226700252 L 105.900451747658,72.04030226700252 L 105.93485696397495,72.04030226700252 L 107.41383328101654,72.04030226700252 L 107.4389204179143,72.04030226700252 L 107.48162230879103,72.04030226700252 L 108.97047220614024,72.04030226700252 L 109.00831794408887,72.04030226700252 L 110.51114496056684,72.04030226700252 L 110.55056760426335,72.04030226700252 L 110.6020320736708,72.04030226700252 L 112.06169129530109,72.04030226700252 L 112.10027172797317,72.04030226700252 L 112.12401491110857,72.04030226700252 L 113.61195091989936,72.04030226700252 L 113.64782552566317,72.04030226700252 L 113.68565334422831,72.04030226700252 L 115.16111746210422,72.04030226700252 L 115.1953076458192,72.04030226700252 L 115.23406727232624,72.04030226700252 L 116.7076856937018,72.04030226700252 L 116.73841743640159,72.04030226700252 L 116.77705162722417,72.04030226700252 L 118.25577707289676,72.04030226700252 L 118.28828283456288,72.04030226700252 L 118.32021517595705,72.04030226700252 L 119.80347422565475,72.04030226700252 L 119.84060318826346,72.04030226700252 L 119.88167441524183,72.04030226700252 L 121.35479109387943,72.04030226700252 L 121.3912212005317,72.04030226700252 L 121.43575086852525,72.04030226700252 L 122.8936181518057,72.04030226700252 L 122.9309621470164,72.04030226700252 L 122.97389698987858,72.04030226700252 L 124.44898480070103,72.04030226700252 L 124.48462645447937,72.04030226700252 L 124.5213611906511,72.04030226700252 L 125.99813342352238,72.04030226700252 L 126.03986766769019,72.04030226700252 L 126.08405686739728,72.04030226700252 L 127.54692365867378,72.04030226700252 L 127.58459020278744,72.04030226700252 L 127.63098348666482,72.04030226700252 L 129.09225545280998,72.04030226700252 L 129.13169601589,72.04030226700252 L 129.16814404192576,72.04030226700252 L 130.64683364883135,72.04030226700252 L 130.68279785151267,72.04030226700252 L 132.1984909853425,72.04030226700252 L 132.23140889282908,72.04030226700252 L 133.74081232305096,72.04030226700252 L 133.77806672134415,72.04030226700252 L 133.82230967920174,72.04030226700252 L 135.28704008636208,72.04030226700252 L 135.33407846804542,72.04030226700252 L 136.83857198718874,72.04030226700252 L 136.8705760061169,72.04030226700252 L 136.91275823487217,72.04030226700252 L 138.38336619982,72.04030226700252 L 138.42228710077853,72.04030226700252 L 138.4665479780196,72.04030226700252 L 139.9273361208103,72.04030226700252 L 139.96491306800647,72.04030226700252 L 139.99673789309966,72.04030226700252 L 141.4808033150548,72.04030226700252 L 141.52406070681997,72.04030226700252 L 143.03009529294414,72.04030226700252 L 143.0689086776017,72.04030226700252 L 144.57852714042556,72.04030226700252 L 144.61708965371415,72.04030226700252 L 146.12636764825155,72.04030226700252 L 146.16455385448666,72.04030226700252 L 147.66913697054747,72.04030226700252 L 147.70443815603934,72.04030226700252 L 147.73524157627313,72.04030226700252 L 149.22552502430221,72.04030226700252 L 149.26123835561452,72.04030226700252 L 150.77132272240937,72.04030226700252 L 150.8092222185085,72.04030226700252 L 150.8499529772004,72.04030226700252 L 152.3216002663911,72.04030226700252 L 152.36311947795696,72.04030226700252 L 153.86883151517816,72.04030226700252 L 153.91307447303575,72.04030226700252 L 155.42066804552428,72.04030226700252 L 155.4641225505079,72.04030226700252 L 156.97549711291464,72.04030226700252 L 157.01280526935835,72.04030226700252 L 158.51692248144818,72.04030226700252 L 158.56129087499025,72.04030226700252 L 160.06513929632763,72.04030226700252 L 160.1072677669324,72.04030226700252 L 161.60240736788955,72.04030226700252 L 161.64716998786858,72.04030226700252 L 163.15922548684824,72.04030226700252 L 163.20538581874015,72.04030226700252 L 164.7027832620181,72.04030226700252 L 164.75292169704665,72.04030226700252 L 166.25956554220977,72.04030226700252 L 166.30036797843567,72.04030226700252 L 167.804682303744,72.04030226700252 L 167.8451442716834,72.04030226700252 L 169.36047901784326,72.04030226700252 L 169.3985756271609,72.04030226700252 L 170.9033379370567,72.04030226700252 L 170.94819015395322,72.04030226700252 L 172.45130388056717,72.04030226700252 L 172.486963453729,72.04030226700252 L 174.00004035756805,72.04030226700252 L 174.04571686610552,72.04030226700252 L 175.54883059271947,72.04030226700252 L 175.59423831050444,72.04030226700252 L 177.10098967196856,72.04030226700252 L 177.14673785804,72.04030226700252 L 178.64194913653114,72.04030226700252 L 178.69045690766134,72.04030226700252 L 180.19921524007728,72.04030226700252 L 180.24388826313884,72.04030226700252 L 181.74823842721418,72.04030226700252 L 181.7951334538295,72.04030226700252 L 183.29566678921967,72.04030226700252 L 183.33333333333334,72.04030226700252" stroke="#f59e0b" stroke-width="2" fill="none" stroke-dasharray="13200" stroke-dashoffset="13200">
      <animate attributeName="stroke-dashoffset" values="13200;0" dur="3s" begin="3.5999999999999996s" fill="freeze"/>
    </path>
    
    <!-- Glow effect for the line that also follows the circle -->
    <path d="M 30,160 L 30.030803420233774,40 L 30.06289703607943,40 L 31.554022695132932,40 L 31.57540051964654,40 L 31.60487790550143,40 L 33.09838684256022,40 L 33.122291300147104,40 L 33.16470648088785,40 L 34.6484672733235,40 L 34.67995163013021,40 L 34.707601238868264,40 L 36.190430223362,40 L 36.224925036596446,40 L 36.25870307449095,40 L 37.7481980696461,40 L 37.76346538438675,40 L 37.804841240884585,40 L 39.29333275056382,40 L 39.32596394791443,40 L 39.362824119770664,40 L 40.84169292051125,40 L 40.87244258259453,40 L 40.91184730690754,40 L 42.38754437676891,40 L 42.42024725165351,40 L 42.458397619121634,40 L 43.94436249572759,40 L 43.980792602379864,40 L 45.48664799466906,40 L 45.56325335912478,40 L 47.03513360030098,40 L 47.07321229023512,40 L 47.109355686751414,40 L 48.58299202751046,40 L 48.62311352716341,40 L 48.650727297134466,40 L 50.13450600895362,40 L 50.168086933629645,40 L 50.205789316510305,40 L 51.67729325063304,40 L 51.71085625592557,40 L 51.74861239695673,40 L 53.22789334351778,40 L 53.26088292853836,40 L 53.29627371094773,40 L 54.781593489747735,40 L 54.824940478430406,40 L 56.36407216587615,40 L 56.40510755408752,40 L 57.88155723805582,40 L 57.915389034100826,40 L 59.43384175298941,40 L 59.46265612165485,40 L 59.51010664915865,40 L 60.9702138553764,40 L 61.00318552101348,40 L 61.03848670650535,40 L 62.520312205523176,40 L 62.55930478401572,40 L 62.59844071757626,40 L 64.06580527411086,40 L 64.09741506660207,40 L 64.13583422482267,40 L 65.61278565152892,40 L 65.64871401544323,40 L 65.69568071959259,40 L 67.15623591039778,40 L 67.19712794354118,40 L 67.23671186168917,40 L 68.7116204786766,40 L 68.74452046677968,40 L 68.78207949459235,40 L 70.25981937417255,40 L 70.2931135887126,40 L 70.3314969081662,40 L 71.80604713748366,40 L 71.84464548953926,40 L 71.88623637863907,40 L 73.35584085811098,40 L 73.38657260081075,40 L 73.42361196650197,40 L 74.90543746551981,40 L 74.93301539672385,40 L 74.97068194083752,40 L 76.44980161294708,40 L 76.48515655658946,40 L 76.5242028932325,40 L 77.99909359083642,40 L 78.03661677988211,40 L 78.07652324693308,40 L 79.55148562207101,40 L 79.57863348807112,40 L 79.61746479211217,40 L 81.09843016072207,40 L 81.13500362244233,40 L 81.16761690040944,40 L 82.64198793589193,40 L 82.67546134426696,40 L 82.71400593817205,40 L 84.18753476263011,40 L 84.2281400856375,40 L 84.26528696762972,40 L 85.73921001852474,40 L 85.76985216430704,40 L 85.804257380624,40 L 87.29359110132765,40 L 87.33098885468884,40 L 87.37308148652662,40 L 88.8405893981292,40 L 88.87399112897026,40 L 88.9073928598113,40 L 90.38532985260997,40 L 90.42242297645168,40 L 90.45890684125445,40 L 91.92695233436199,40 L 91.96723510846643,40 L 92.00558258915302,40 L 93.47395063116355,40 L 93.51421548588448,40 L 93.55840468559157,40 L 95.0366642272932,40 L 95.06868616560486,40 L 95.1100978608697,40 L 96.58102837472049,40 L 96.60869590284204,40 L 96.64376413634844,40 L 98.12487286002633,40 L 98.16148216051359,40 L 98.1986111231223,40 L 99.6738781277797,40 L 99.70584630794087,40 L 99.7471863256717,40 L 101.22177239375617,40 L 101.25393768713583,40 L 101.29203429645345,40 L 102.77049095137357,40 L 102.8020111469473,40 L 102.83614757251176,40 L 104.31702334420417,72.04030226700252 L 104.34685911772903,72.04030226700252 L 105.86402164100572,72.04030226700252 L 105.900451747658,72.04030226700252 L 105.93485696397495,72.04030226700252 L 107.41383328101654,72.04030226700252 L 107.4389204179143,72.04030226700252 L 107.48162230879103,72.04030226700252 L 108.97047220614024,72.04030226700252 L 109.00831794408887,72.04030226700252 L 110.51114496056684,72.04030226700252 L 110.55056760426335,72.04030226700252 L 110.6020320736708,72.04030226700252 L 112.06169129530109,72.04030226700252 L 112.10027172797317,72.04030226700252 L 112.12401491110857,72.04030226700252 L 113.61195091989936,72.04030226700252 L 113.64782552566317,72.04030226700252 L 113.68565334422831,72.04030226700252 L 115.16111746210422,72.04030226700252 L 115.1953076458192,72.04030226700252 L 115.23406727232624,72.04030226700252 L 116.7076856937018,72.04030226700252 L 116.73841743640159,72.04030226700252 L 116.77705162722417,72.04030226700252 L 118.25577707289676,72.04030226700252 L 118.28828283456288,72.04030226700252 L 118.32021517595705,72.04030226700252 L 119.80347422565475,72.04030226700252 L 119.84060318826346,72.04030226700252 L 119.88167441524183,72.04030226700252 L 121.35479109387943,72.04030226700252 L 121.3912212005317,72.04030226700252 L 121.43575086852525,72.04030226700252 L 122.8936181518057,72.04030226700252 L 122.9309621470164,72.04030226700252 L 122.97389698987858,72.04030226700252 L 124.44898480070103,72.04030226700252 L 124.48462645447937,72.04030226700252 L 124.5213611906511,72.04030226700252 L 125.99813342352238,72.04030226700252 L 126.03986766769019,72.04030226700252 L 126.08405686739728,72.04030226700252 L 127.54692365867378,72.04030226700252 L 127.58459020278744,72.04030226700252 L 127.63098348666482,72.04030226700252 L 129.09225545280998,72.04030226700252 L 129.13169601589,72.04030226700252 L 129.16814404192576,72.04030226700252 L 130.64683364883135,72.04030226700252 L 130.68279785151267,72.04030226700252 L 132.1984909853425,72.04030226700252 L 132.23140889282908,72.04030226700252 L 133.74081232305096,72.04030226700252 L 133.77806672134415,72.04030226700252 L 133.82230967920174,72.04030226700252 L 135.28704008636208,72.04030226700252 L 135.33407846804542,72.04030226700252 L 136.83857198718874,72.04030226700252 L 136.8705760061169,72.04030226700252 L 136.91275823487217,72.04030226700252 L 138.38336619982,72.04030226700252 L 138.42228710077853,72.04030226700252 L 138.4665479780196,72.04030226700252 L 139.9273361208103,72.04030226700252 L 139.96491306800647,72.04030226700252 L 139.99673789309966,72.04030226700252 L 141.4808033150548,72.04030226700252 L 141.52406070681997,72.04030226700252 L 143.03009529294414,72.04030226700252 L 143.0689086776017,72.04030226700252 L 144.57852714042556,72.04030226700252 L 144.61708965371415,72.04030226700252 L 146.12636764825155,72.04030226700252 L 146.16455385448666,72.04030226700252 L 147.66913697054747,72.04030226700252 L 147.70443815603934,72.04030226700252 L 147.73524157627313,72.04030226700252 L 149.22552502430221,72.04030226700252 L 149.26123835561452,72.04030226700252 L 150.77132272240937,72.04030226700252 L 150.8092222185085,72.04030226700252 L 150.8499529772004,72.04030226700252 L 152.3216002663911,72.04030226700252 L 152.36311947795696,72.04030226700252 L 153.86883151517816,72.04030226700252 L 153.91307447303575,72.04030226700252 L 155.42066804552428,72.04030226700252 L 155.4641225505079,72.04030226700252 L 156.97549711291464,72.04030226700252 L 157.01280526935835,72.04030226700252 L 158.51692248144818,72.04030226700252 L 158.56129087499025,72.04030226700252 L 160.06513929632763,72.04030226700252 L 160.1072677669324,72.04030226700252 L 161.60240736788955,72.04030226700252 L 161.64716998786858,72.04030226700252 L 163.15922548684824,72.04030226700252 L 163.20538581874015,72.04030226700252 L 164.7027832620181,72.04030226700252 L 164.75292169704665,72.04030226700252 L 166.25956554220977,72.04030226700252 L 166.30036797843567,72.04030226700252 L 167.804682303744,72.04030226700252 L 167.8451442716834,72.04030226700252 L 169.36047901784326,72.04030226700252 L 169.3985756271609,72.04030226700252 L 170.9033379370567,72.04030226700252 L 170.94819015395322,72.04030226700252 L 172.45130388056717,72.04030226700252 L 172.486963453729,72.04030226700252 L 174.00004035756805,72.04030226700252 L 174.04571686610552,72.04030226700252 L 175.54883059271947,72.04030226700252 L 175.59423831050444,72.04030226700252 L 177.10098967196856,72.04030226700252 L 177.14673785804,72.04030226700252 L 178.64194913653114,72.04030226700252 L 178.69045690766134,72.04030226700252 L 180.19921524007728,72.04030226700252 L 180.24388826313884,72.04030226700252 L 181.74823842721418,72.04030226700252 L 181.7951334538295,72.04030226700252 L 183.29566678921967,72.04030226700252 L 183.33333333333334,72.04030226700252" stroke="#f59e0b" stroke-width="4" fill="none" opacity="0.4" stroke-dasharray="13200" stroke-dashoffset="13200">
      <animate attributeName="stroke-dashoffset" values="13200;0" dur="3s" begin="3.5999999999999996s" fill="freeze"/>
    </path>
    
    <!-- Animated circle that moves along the path and draws the line -->
    <circle r="5" fill="#f59e0b" opacity="0" filter="url(#trailGlow)">
      <animate attributeName="opacity" values="0;1;1;1" dur="3.2s" begin="3.4s" fill="freeze"/>
      <animate attributeName="r" values="5;6;5" dur="1s" begin="3.4s" repeatCount="3"/>
      <animateMotion dur="3s" begin="3.4s" fill="freeze">
        <mpath href="#path_totalContributions_526.6666666666667"/>
      </animateMotion>
    </circle>
    
    <!-- Small trail dots that fade out -->
    <circle r="2" fill="#f59e0b" opacity="0">
      <animate attributeName="opacity" values="0;0.6;0" dur="0.8s" begin="3.8s" fill="freeze"/>
      <animateMotion dur="3s" begin="3.4s" fill="freeze">
        <mpath href="#path_totalContributions_526.6666666666667"/>
      </animateMotion>
    </circle>
    
    <!-- Hidden path for motion animation -->
    <path id="path_totalContributions_526.6666666666667" d="M 30,160 L 30.030803420233774,40 L 30.06289703607943,40 L 31.554022695132932,40 L 31.57540051964654,40 L 31.60487790550143,40 L 33.09838684256022,40 L 33.122291300147104,40 L 33.16470648088785,40 L 34.6484672733235,40 L 34.67995163013021,40 L 34.707601238868264,40 L 36.190430223362,40 L 36.224925036596446,40 L 36.25870307449095,40 L 37.7481980696461,40 L 37.76346538438675,40 L 37.804841240884585,40 L 39.29333275056382,40 L 39.32596394791443,40 L 39.362824119770664,40 L 40.84169292051125,40 L 40.87244258259453,40 L 40.91184730690754,40 L 42.38754437676891,40 L 42.42024725165351,40 L 42.458397619121634,40 L 43.94436249572759,40 L 43.980792602379864,40 L 45.48664799466906,40 L 45.56325335912478,40 L 47.03513360030098,40 L 47.07321229023512,40 L 47.109355686751414,40 L 48.58299202751046,40 L 48.62311352716341,40 L 48.650727297134466,40 L 50.13450600895362,40 L 50.168086933629645,40 L 50.205789316510305,40 L 51.67729325063304,40 L 51.71085625592557,40 L 51.74861239695673,40 L 53.22789334351778,40 L 53.26088292853836,40 L 53.29627371094773,40 L 54.781593489747735,40 L 54.824940478430406,40 L 56.36407216587615,40 L 56.40510755408752,40 L 57.88155723805582,40 L 57.915389034100826,40 L 59.43384175298941,40 L 59.46265612165485,40 L 59.51010664915865,40 L 60.9702138553764,40 L 61.00318552101348,40 L 61.03848670650535,40 L 62.520312205523176,40 L 62.55930478401572,40 L 62.59844071757626,40 L 64.06580527411086,40 L 64.09741506660207,40 L 64.13583422482267,40 L 65.61278565152892,40 L 65.64871401544323,40 L 65.69568071959259,40 L 67.15623591039778,40 L 67.19712794354118,40 L 67.23671186168917,40 L 68.7116204786766,40 L 68.74452046677968,40 L 68.78207949459235,40 L 70.25981937417255,40 L 70.2931135887126,40 L 70.3314969081662,40 L 71.80604713748366,40 L 71.84464548953926,40 L 71.88623637863907,40 L 73.35584085811098,40 L 73.38657260081075,40 L 73.42361196650197,40 L 74.90543746551981,40 L 74.93301539672385,40 L 74.97068194083752,40 L 76.44980161294708,40 L 76.48515655658946,40 L 76.5242028932325,40 L 77.99909359083642,40 L 78.03661677988211,40 L 78.07652324693308,40 L 79.55148562207101,40 L 79.57863348807112,40 L 79.61746479211217,40 L 81.09843016072207,40 L 81.13500362244233,40 L 81.16761690040944,40 L 82.64198793589193,40 L 82.67546134426696,40 L 82.71400593817205,40 L 84.18753476263011,40 L 84.2281400856375,40 L 84.26528696762972,40 L 85.73921001852474,40 L 85.76985216430704,40 L 85.804257380624,40 L 87.29359110132765,40 L 87.33098885468884,40 L 87.37308148652662,40 L 88.8405893981292,40 L 88.87399112897026,40 L 88.9073928598113,40 L 90.38532985260997,40 L 90.42242297645168,40 L 90.45890684125445,40 L 91.92695233436199,40 L 91.96723510846643,40 L 92.00558258915302,40 L 93.47395063116355,40 L 93.51421548588448,40 L 93.55840468559157,40 L 95.0366642272932,40 L 95.06868616560486,40 L 95.1100978608697,40 L 96.58102837472049,40 L 96.60869590284204,40 L 96.64376413634844,40 L 98.12487286002633,40 L 98.16148216051359,40 L 98.1986111231223,40 L 99.6738781277797,40 L 99.70584630794087,40 L 99.7471863256717,40 L 101.22177239375617,40 L 101.25393768713583,40 L 101.29203429645345,40 L 102.77049095137357,40 L 102.8020111469473,40 L 102.83614757251176,40 L 104.31702334420417,72.04030226700252 L 104.34685911772903,72.04030226700252 L 105.86402164100572,72.04030226700252 L 105.900451747658,72.04030226700252 L 105.93485696397495,72.04030226700252 L 107.41383328101654,72.04030226700252 L 107.4389204179143,72.04030226700252 L 107.48162230879103,72.04030226700252 L 108.97047220614024,72.04030226700252 L 109.00831794408887,72.04030226700252 L 110.51114496056684,72.04030226700252 L 110.55056760426335,72.04030226700252 L 110.6020320736708,72.04030226700252 L 112.06169129530109,72.04030226700252 L 112.10027172797317,72.04030226700252 L 112.12401491110857,72.04030226700252 L 113.61195091989936,72.04030226700252 L 113.64782552566317,72.04030226700252 L 113.68565334422831,72.04030226700252 L 115.16111746210422,72.04030226700252 L 115.1953076458192,72.04030226700252 L 115.23406727232624,72.04030226700252 L 116.7076856937018,72.04030226700252 L 116.73841743640159,72.04030226700252 L 116.77705162722417,72.04030226700252 L 118.25577707289676,72.04030226700252 L 118.28828283456288,72.04030226700252 L 118.32021517595705,72.04030226700252 L 119.80347422565475,72.04030226700252 L 119.84060318826346,72.04030226700252 L 119.88167441524183,72.04030226700252 L 121.35479109387943,72.04030226700252 L 121.3912212005317,72.04030226700252 L 121.43575086852525,72.04030226700252 L 122.8936181518057,72.04030226700252 L 122.9309621470164,72.04030226700252 L 122.97389698987858,72.04030226700252 L 124.44898480070103,72.04030226700252 L 124.48462645447937,72.04030226700252 L 124.5213611906511,72.04030226700252 L 125.99813342352238,72.04030226700252 L 126.03986766769019,72.04030226700252 L 126.08405686739728,72.04030226700252 L 127.54692365867378,72.04030226700252 L 127.58459020278744,72.04030226700252 L 127.63098348666482,72.04030226700252 L 129.09225545280998,72.04030226700252 L 129.13169601589,72.04030226700252 L 129.16814404192576,72.04030226700252 L 130.64683364883135,72.04030226700252 L 130.68279785151267,72.04030226700252 L 132.1984909853425,72.04030226700252 L 132.23140889282908,72.04030226700252 L 133.74081232305096,72.04030226700252 L 133.77806672134415,72.04030226700252 L 133.82230967920174,72.04030226700252 L 135.28704008636208,72.04030226700252 L 135.33407846804542,72.04030226700252 L 136.83857198718874,72.04030226700252 L 136.8705760061169,72.04030226700252 L 136.91275823487217,72.04030226700252 L 138.38336619982,72.04030226700252 L 138.42228710077853,72.04030226700252 L 138.4665479780196,72.04030226700252 L 139.9273361208103,72.04030226700252 L 139.96491306800647,72.04030226700252 L 139.99673789309966,72.04030226700252 L 141.4808033150548,72.04030226700252 L 141.52406070681997,72.04030226700252 L 143.03009529294414,72.04030226700252 L 143.0689086776017,72.04030226700252 L 144.57852714042556,72.04030226700252 L 144.61708965371415,72.04030226700252 L 146.12636764825155,72.04030226700252 L 146.16455385448666,72.04030226700252 L 147.66913697054747,72.04030226700252 L 147.70443815603934,72.04030226700252 L 147.73524157627313,72.04030226700252 L 149.22552502430221,72.04030226700252 L 149.26123835561452,72.04030226700252 L 150.77132272240937,72.04030226700252 L 150.8092222185085,72.04030226700252 L 150.8499529772004,72.04030226700252 L 152.3216002663911,72.04030226700252 L 152.36311947795696,72.04030226700252 L 153.86883151517816,72.04030226700252 L 153.91307447303575,72.04030226700252 L 155.42066804552428,72.04030226700252 L 155.4641225505079,72.04030226700252 L 156.97549711291464,72.04030226700252 L 157.01280526935835,72.04030226700252 L 158.51692248144818,72.04030226700252 L 158.56129087499025,72.04030226700252 L 160.06513929632763,72.04030226700252 L 160.1072677669324,72.04030226700252 L 161.60240736788955,72.04030226700252 L 161.64716998786858,72.04030226700252 L 163.15922548684824,72.04030226700252 L 163.20538581874015,72.04030226700252 L 164.7027832620181,72.04030226700252 L 164.75292169704665,72.04030226700252 L 166.25956554220977,72.04030226700252 L 166.30036797843567,72.04030226700252 L 167.804682303744,72.04030226700252 L 167.8451442716834,72.04030226700252 L 169.36047901784326,72.04030226700252 L 169.3985756271609,72.04030226700252 L 170.9033379370567,72.04030226700252 L 170.94819015395322,72.04030226700252 L 172.45130388056717,72.04030226700252 L 172.486963453729,72.04030226700252 L 174.00004035756805,72.04030226700252 L 174.04571686610552,72.04030226700252 L 175.54883059271947,72.04030226700252 L 175.59423831050444,72.04030226700252 L 177.10098967196856,72.04030226700252 L 177.14673785804,72.04030226700252 L 178.64194913653114,72.04030226700252 L 178.69045690766134,72.04030226700252 L 180.19921524007728,72.04030226700252 L 180.24388826313884,72.04030226700252 L 181.74823842721418,72.04030226700252 L 181.7951334538295,72.04030226700252 L 183.29566678921967,72.04030226700252 L 183.33333333333334,72.04030226700252" fill="none" stroke="none"/>
  </g>
  
  <!-- Footer -->
  <text x="400" y="580" text-anchor="middle" fill="#94a3b8" font-size="12" font-family="Arial, sans-serif">
    Generated by GitHub User Rank Tracker • 5/2/2026
    <animate attributeName="opacity" values="0;1" dur="0.5s" begin="5s" fill="freeze"/>
  </text>
</svg>