<svg width="800" height="600" xmlns="http://www.w3.org/2000/svg">
  <defs>
    <linearGradient id="bgGradient" x1="0%" y1="0%" x2="100%" y2="100%">
      <stop offset="0%" style="stop-color:#1e293b;stop-opacity:1" />
      <stop offset="100%" style="stop-color:#0f172a;stop-opacity:1" />
    </linearGradient>
    <filter id="shadow" x="-20%" y="-20%" width="140%" height="140%">
      <feDropShadow dx="2" dy="2" stdDeviation="3" flood-color="#000" flood-opacity="0.3"/>
    </filter>
    <!-- Trail effect filter -->
    <filter id="trailGlow" x="-50%" y="-50%" width="200%" height="200%">
      <feGaussianBlur stdDeviation="3" result="coloredBlur"/>
      <feMerge> 
        <feMergeNode in="coloredBlur"/>
        <feMergeNode in="SourceGraphic"/>
      </feMerge>
    </filter>
  </defs>
  
  <!-- Background -->
  <rect width="800" height="600" fill="url(#bgGradient)" rx="12"/>
  
  <!-- Header -->
  <text x="400" y="40" text-anchor="middle" fill="#f8fafc" font-size="24" font-weight="bold" font-family="Arial, sans-serif">
    GitHub Progress Report
    <animate attributeName="opacity" values="0;1" dur="0.8s" begin="0s" fill="freeze"/>
    <animateTransform attributeName="transform" type="translate" values="0,-20;0,0" dur="0.8s" begin="0s" fill="freeze"/>
  </text>
  
  <!-- User Info -->
  <text x="400" y="70" text-anchor="middle" fill="#cbd5e1" font-size="16" font-family="Arial, sans-serif">
    @maifeeulasad • BANGLADESH • 100 days analyzed
    <animate attributeName="opacity" values="0;1" dur="0.6s" begin="0.3s" fill="freeze"/>
  </text>
  
  <!-- Progress Cards -->
  <!-- Followers Card -->
  <g transform="translate(60, 100)">
    <rect width="206.66666666666666" height="120" fill="#1e293b" stroke="#334155" stroke-width="1" rx="8" filter="url(#shadow)">
      <animate attributeName="opacity" values="0;1" dur="0.6s" begin="0.2s" fill="freeze"/>
      <animateTransform attributeName="transform" type="scale" values="0.8;1" dur="0.6s" begin="0.2s" fill="freeze"/>
    </rect>
    <text x="103.33333333333333" y="25" text-anchor="middle" fill="#94a3b8" font-size="14" font-weight="bold" font-family="Arial, sans-serif">FOLLOWERS
      <animate attributeName="opacity" values="0;1" dur="0.5s" begin="0.4s" fill="freeze"/>
    </text>
    
    <text x="103.33333333333333" y="50" text-anchor="middle" fill="#22c55e" font-size="32" font-weight="bold" font-family="Arial, sans-serif">
      ↗
      <animate attributeName="opacity" values="0;1" dur="0.5s" begin="0.6s" fill="freeze"/>
      <animateTransform attributeName="transform" type="scale" values="0;1.2;1" dur="0.8s" begin="0.6s" fill="freeze"/>
    </text>
    
    <text x="103.33333333333333" y="75" text-anchor="middle" fill="#f8fafc" font-size="18" font-weight="bold" font-family="Arial, sans-serif">
      +6
      <animate attributeName="opacity" values="0;1" dur="0.5s" begin="0.8s" fill="freeze"/>
    </text>
    
    <text x="103.33333333333333" y="95" text-anchor="middle" fill="#94a3b8" font-size="12" font-family="Arial, sans-serif">
      #473 → #467
      <animate attributeName="opacity" values="0;1" dur="0.5s" begin="1s" fill="freeze"/>
    </text>
  </g>
  
  <!-- Public Contributions Card -->
  <g transform="translate(296.66666666666663, 100)">
    <rect width="206.66666666666666" height="120" fill="#1e293b" stroke="#334155" stroke-width="1" rx="8" filter="url(#shadow)">
      <animate attributeName="opacity" values="0;1" dur="0.6s" begin="0.4s" fill="freeze"/>
      <animateTransform attributeName="transform" type="scale" values="0.8;1" dur="0.6s" begin="0.4s" fill="freeze"/>
    </rect>
    <text x="103.33333333333333" y="25" text-anchor="middle" fill="#94a3b8" font-size="14" font-weight="bold" font-family="Arial, sans-serif">PUBLIC
      <animate attributeName="opacity" values="0;1" dur="0.5s" begin="0.6s" fill="freeze"/>
    </text>
    
    <text x="103.33333333333333" y="50" text-anchor="middle" fill="#22c55e" font-size="32" font-weight="bold" font-family="Arial, sans-serif">
      ↗
      <animate attributeName="opacity" values="0;1" dur="0.5s" begin="0.8s" fill="freeze"/>
      <animateTransform attributeName="transform" type="scale" values="0;1.2;1" dur="0.8s" begin="0.8s" fill="freeze"/>
    </text>
    
    <text x="103.33333333333333" y="75" text-anchor="middle" fill="#f8fafc" font-size="18" font-weight="bold" font-family="Arial, sans-serif">
      +11
      <animate attributeName="opacity" values="0;1" dur="0.5s" begin="1s" fill="freeze"/>
    </text>
    
    <text x="103.33333333333333" y="95" text-anchor="middle" fill="#94a3b8" font-size="12" font-family="Arial, sans-serif">
      #18 → #7
      <animate attributeName="opacity" values="0;1" dur="0.5s" begin="1.2s" fill="freeze"/>
    </text>
  </g>
  
  <!-- Total Contributions Card -->
  <g transform="translate(533.3333333333333, 100)">
    <rect width="206.66666666666666" height="120" fill="#1e293b" stroke="#334155" stroke-width="1" rx="8" filter="url(#shadow)">
      <animate attributeName="opacity" values="0;1" dur="0.6s" begin="0.6s" fill="freeze"/>
      <animateTransform attributeName="transform" type="scale" values="0.8;1" dur="0.6s" begin="0.6s" fill="freeze"/>
    </rect>
    <text x="103.33333333333333" y="25" text-anchor="middle" fill="#94a3b8" font-size="14" font-weight="bold" font-family="Arial, sans-serif">TOTAL
      <animate attributeName="opacity" values="0;1" dur="0.5s" begin="0.8s" fill="freeze"/>
    </text>
    
    <text x="103.33333333333333" y="50" text-anchor="middle" fill="#22c55e" font-size="32" font-weight="bold" font-family="Arial, sans-serif">
      ↗
      <animate attributeName="opacity" values="0;1" dur="0.5s" begin="1s" fill="freeze"/>
      <animateTransform attributeName="transform" type="scale" values="0;1.2;1" dur="0.8s" begin="1s" fill="freeze"/>
    </text>
    
    <text x="103.33333333333333" y="75" text-anchor="middle" fill="#f8fafc" font-size="18" font-weight="bold" font-family="Arial, sans-serif">
      +15
      <animate attributeName="opacity" values="0;1" dur="0.5s" begin="1.2s" fill="freeze"/>
    </text>
    
    <text x="103.33333333333333" y="95" text-anchor="middle" fill="#94a3b8" font-size="12" font-family="Arial, sans-serif">
      #39 → #24
      <animate attributeName="opacity" values="0;1" dur="0.5s" begin="1.4s" fill="freeze"/>
    </text>
  </g>
  
  <!-- Timeline Charts (if we have snapshots) -->
  
  <!-- 👥 Followers Count Chart -->
  <g transform="translate(60, 250)">
    <!-- Chart Background -->
    <rect x="0" y="0" width="213.33333333333334" height="200" fill="#0f172a" stroke="#334155" stroke-width="1" rx="8" filter="url(#shadow)">
      <animate attributeName="opacity" values="0;1" dur="0.5s" begin="1.8s" fill="freeze"/>
    </rect>
    
    <!-- Chart Title -->
    <text x="106.66666666666667" y="25" text-anchor="middle" fill="#f8fafc" font-size="14" font-weight="bold" font-family="Arial, sans-serif">
      👥 Followers Count
      <animate attributeName="opacity" values="0;1" dur="0.5s" begin="2s" fill="freeze"/>
    </text>
    
    <!-- Y-axis labels -->
    <text x="10" y="45" fill="#94a3b8" font-size="10" font-family="Arial, sans-serif">143
      <animate attributeName="opacity" values="0;1" dur="0.5s" begin="2.2s" fill="freeze"/>
    </text>
    <text x="10" y="185" fill="#94a3b8" font-size="10" font-family="Arial, sans-serif">136
      <animate attributeName="opacity" values="0;1" dur="0.5s" begin="2.2s" fill="freeze"/>
    </text>
    
    <!-- Chart Line with draw animation that follows the circle -->
    <path d="M 30,160 L 30.022882044583255,160 L 30.050763376902395,160 L 31.546715118544938,160 L 31.57522360165532,160 L 31.603839596329912,160 L 33.092892679268815,160 L 33.1203439653311,160 L 33.15177317926926,160 L 34.63950028624954,160 L 34.66537473603671,160 L 34.70017264565353,160 L 36.183240918184595,160 L 36.21432967883608,160 L 36.24532884651739,160 L 37.740008367983414,160 L 37.76969947830013,160 L 37.802974307423945,160 L 39.290540147057904,160 L 39.31550074854927,160 L 39.348936845019395,160 L 40.83524838307087,160 L 40.869222037362064,160 L 40.905023388244864,160 L 42.38368368664321,160 L 42.4094147876781,160 L 42.441112780526794,160 L 43.93460967478648,160 L 43.95679289420235,160 L 43.989153875030354,160 L 45.47847573687979,160 L 45.504869825893984,160 L 45.536155691079856,160 L 47.026068866532455,160 L 47.052660060081045,160 L 47.083641309168314,160 L 48.578804632673304,160 L 48.6060050584191,160 L 48.64186016508401,160 L 50.12467757729858,160 L 50.15795240642238,160 L 50.17972349817544,160 L 51.67157188178386,160 L 51.69784054063982,160 L 51.730416544596245,160 L 53.21445242120522,160 L 53.24971621426697,160 L 53.28005239396896,160 L 54.769553441758745,160 L 54.796646355940325,160 L 54.82864896488762,160 L 56.319153453943386,160 L 56.34570881030391,160 L 56.3746294210771,160 L 57.867230385635025,160 L 57.894430811380815,160 L 57.922993050273305,160 L 59.414608492159275,160 L 59.446646938294634,160 L 59.47961715131984,160 L 60.962380807752304,160 L 60.99201816228691,160 L 61.02543634016301,160 L 62.50187473290096,160 L 62.54151066290735,160 L 62.5739970738936,160 L 64.05862426410575,160 L 64.08702523565191,160 L 64.11789897317497,160 L 65.60709540486616,160 L 65.63370451700878,160 L 65.66545626563958,160 L 67.15312961683775,160 L 67.1811722165032,160 L 67.21281645356979,160 L 68.7022279083894,160 L 68.72484117406212,160 L 68.76021247868808,160 L 70.25333308247302,160 L 70.28426057577819,160 L 70.32058156588802,160 L 71.80363191982505,160 L 71.83024103196766,160 L 71.86213612935074,160 L 73.34948694585628,57.14285714285715 L 73.37537931423748,57.14285714285715 L 73.40868998054937,57.14285714285715 L 74.89444604218575,57.14285714285715 L 74.92019506181467,57.14285714285715 L 74.95549469206449,57.14285714285715 L 76.4350509201646,57.14285714285715 L 76.47020720166213,57.14285714285715 L 76.50586520379265,57.14285714285715 L 77.99221257903221,57.14285714285715 L 78.01421661250771,57.14285714285715 L 78.047222662721,57.14285714285715 L 79.53985946446699,57.14285714285715 L 79.56582350722434,57.14285714285715 L 79.59951046401096,57.14285714285715 L 81.08272208529431,57.14285714285715 L 81.12219674795438,57.14285714285715 L 81.15568660020661,57.14285714285715 L 82.63690925755202,57.14285714285715 L 82.66952109869652,57.14285714285715 L 82.702634660474,57.14285714285715 L 84.18835488492232,57.14285714285715 L 84.21835061133764,57.14285714285715 L 84.25110580123442,57.14285714285715 L 85.73299144655914,57.14285714285715 L 85.76390102127027,57.14285714285715 L 85.79588571162353,57.14285714285715 L 87.27958113494583,57.14285714285715 L 87.31061613981521,57.14285714285715 L 87.3450915147394,57.14285714285715 L 88.83054296027717,57.14285714285715 L 88.86573507896276,57.14285714285715 L 88.89965497747185,57.14285714285715 L 90.37772396226703,57.14285714285715 L 90.4076480143062,57.14285714285715 L 90.43529640490289,57.14285714285715 L 91.93035221684366,57.14285714285715 L 91.96213980266253,57.14285714285715 L 91.9971168982197,57.14285714285715 L 93.47407493018468,57.14285714285715 L 93.50613129491408,57.14285714285715 L 93.5426493895583,57.14285714285715 L 95.02268941969737,57.14285714285715 L 95.05275682048884,57.14285714285715 L 95.08578078929615,57.14285714285715 L 96.5715726881206,57.14285714285715 L 96.5987731138664,57.14285714285715 L 96.63455654615517,57.14285714285715 L 98.12056346810805,57.14285714285715 L 98.14962742763352,57.14285714285715 L 98.17942604951446,57.14285714285715 L 99.67016348029269,57.14285714285715 L 99.69517783756616,57.14285714285715 L 99.72755673698819,57.14285714285715 L 101.213527821753,57.14285714285715 L 101.23735955182013,57.14285714285715 L 101.26518712835717,57.14285714285715 L 102.76484801896505,57.14285714285715 L 102.79222763065118,57.14285714285715 L 102.82849486497892,57.14285714285715 L 104.31219028830122,57.14285714285715 L 104.34016121359055,57.14285714285715 L 104.37440364679226,57.14285714285715 L 105.85478413021801,57.14285714285715 L 105.88042563828272,57.14285714285715 L 105.91427386241566,57.14285714285715 L 107.3996536335773,57.14285714285715 L 107.43239090488004,57.14285714285715 L 107.46507442040068,57.14285714285715 L 108.95394831739922,57.14285714285715 L 108.97991236015658,57.14285714285715 L 109.01118030674841,57.14285714285715 L 110.50331538786142,57.14285714285715 L 110.52931526780684,57.14285714285715 L 110.56070864455693,57.14285714285715 L 112.04818489122071,57.14285714285715 L 112.07782224575531,57.14285714285715 L 112.10905435515909,57.14285714285715 L 113.60133278502437,57.14285714285715 L 113.62953665203614,57.14285714285715 L 113.66299066710029,57.14285714285715 L 115.1505206695462,57.14285714285715 L 115.17632344495722,57.14285714285715 L 115.21253692350284,57.14285714285715 L 116.694135871323,57.14285714285715 L 116.7196698678235,57.14285714285715 L 116.75027482643603,57.14285714285715 L 118.2419977798862,57.14285714285715 L 118.2677826367032,57.14285714285715 L 118.29894307173082,57.14285714285715 L 119.79186657098138,57.14285714285715 L 119.81333304663583,57.14285714285715 L 119.84409927259469,57.14285714285715 L 121.33990766548494,57.14285714285715 L 121.36495785994649,57.14285714285715 L 121.38572551043356,57.14285714285715 L 122.88599563323864,57.14285714285715 L 122.90986320049385,57.14285714285715 L 122.94005603144355,57.14285714285715 L 124.43027382299476,57.14285714285715 L 124.46616476684774,57.14285714285715 L 124.49868701502206,57.14285714285715 L 125.98503439026162,57.14285714285715 L 126.01169725818633,57.14285714285715 L 126.0429293675901,57.14285714285715 L 127.53352344961606,57.14285714285715 L 127.55959500393762,57.14285714285715 L 127.58477062855741,57.14285714285715 L 129.0833743221172,57.14285714285715 L 129.1057367274734,57.14285714285715 L 129.1317724446069,57.14285714285715 L 130.6272403842105,57.14285714285715 L 130.65273854352293,57.14285714285715 L 130.68144413116772,57.14285714285715 L 132.17789759344325,57.14285714285715 L 132.20011665004716,57.14285714285715 L 132.23090079460007,57.14285714285715 L 133.71502626417922,57.14285714285715 L 133.74862362799564,57.14285714285715 L 133.77956903989485,57.14285714285715 L 135.27462485183565,57.14285714285715 L 135.30336627666847,57.14285714285715 L 135.33257358494626,57.14285714285715 L 136.82366938760518,57.14285714285715 L 136.8536113582384,57.14285714285715 L 136.88729831502502,57.14285714285715 L 138.36692621750126,57.14285714285715 L 138.39206600493299,57.14285714285715 L 138.4208432669539,57.14285714285715 L 139.91546903263782,57.14285714285715 L 139.93417604481084,57.14285714285715 L 139.96709250205393,57.14285714285715 L 141.4647285915358,57.14285714285715 L 141.48732393861448,57.14285714285715 L 141.51805432738527,57.14285714285715 L 143.01456154544292,57.14285714285715 L 143.03719272970966,57.14285714285715 L 143.06408853935687,57.14285714285715 L 144.56012987396957,40 L 144.58308359292897,40 L 144.61254176152323,40 L 146.1097836419363,40 L 146.13359745340944,40 L 146.16680060815708,40 L 147.64909838114465,40 L 147.68242696605054,40 L 147.71505672578905,40 L 149.2067617606452,40 L 149.22426822701783,40 L 149.2541206046809,40 L 150.7521329846375,40 L 150.77662770268392,40 L 150.80884533475967,40 L 152.29399216419884,40 L 152.3261381218984,40 L 152.3548616281372,40 L 153.84903942897023,40 L 153.87432256515424,40 L 153.90207846731516,40 L 155.3950019665657,40 L 155.41980130071073,40 L 155.44486941376633,40 L 155.4845949367429,40 L 156.94875909256658,40 L 156.9749202398583,40 L 157.00212066560408,40 L 158.49586842018027,40 L 158.52195789309587,40 L 158.55046637620626,40 L 160.04324652670454,40 L 160.06725744271202,40 L 160.0946549729922,40 L 161.58686172848135,40 L 161.6157106648784,40 L 163.14590483972265,40 L 163.1634292246893,40 L 163.19123888263232,40 L 164.68636636894925,40 L 164.71104027293603,40 L 164.74153771998434,40 L 166.23415660313628,40 L 166.25823919351993,40 L 166.28531418910748,40 L 167.78502883549746,40 L 167.81086744809656,40 L 167.8432463475186,40 L 169.33480803362247,40 L 169.36265352875353,40 L 169.38935223386633,40 L 170.88555483582536,40 L 170.90268501172324,40 L 170.93169521546662,40 L 172.42834578227655,40 L 172.45074402482084,40 L 172.47643928866768,40 L 173.9761897722457,40 L 173.99706493429701,40 L 174.0287270899576,40 L 175.52367539033418,40 L 175.54657535351146,40 L 175.5764277311745,40 L 177.06888534698015,40 L 177.09094313623777,40 L 177.12342954722402,40 L 178.61608426756405,40 L 178.64846316698606,40 L 178.68152297298147,40 L 180.16950094027823,40 L 180.19327891456325,40 L 180.2231850480084,40 L 181.71727325587125,40 L 181.7407107768696,40 L 181.77061691031474,40 L 183.2661744428885,40 L 183.2969585874414,40 L 183.33333333333334,40" stroke="#22c55e" stroke-width="2" fill="none" stroke-dasharray="15000" stroke-dashoffset="15000">
      <animate attributeName="stroke-dashoffset" values="15000;0" dur="3s" begin="2.6s" fill="freeze"/>
    </path>
    
    <!-- Glow effect for the line that also follows the circle -->
    <path d="M 30,160 L 30.022882044583255,160 L 30.050763376902395,160 L 31.546715118544938,160 L 31.57522360165532,160 L 31.603839596329912,160 L 33.092892679268815,160 L 33.1203439653311,160 L 33.15177317926926,160 L 34.63950028624954,160 L 34.66537473603671,160 L 34.70017264565353,160 L 36.183240918184595,160 L 36.21432967883608,160 L 36.24532884651739,160 L 37.740008367983414,160 L 37.76969947830013,160 L 37.802974307423945,160 L 39.290540147057904,160 L 39.31550074854927,160 L 39.348936845019395,160 L 40.83524838307087,160 L 40.869222037362064,160 L 40.905023388244864,160 L 42.38368368664321,160 L 42.4094147876781,160 L 42.441112780526794,160 L 43.93460967478648,160 L 43.95679289420235,160 L 43.989153875030354,160 L 45.47847573687979,160 L 45.504869825893984,160 L 45.536155691079856,160 L 47.026068866532455,160 L 47.052660060081045,160 L 47.083641309168314,160 L 48.578804632673304,160 L 48.6060050584191,160 L 48.64186016508401,160 L 50.12467757729858,160 L 50.15795240642238,160 L 50.17972349817544,160 L 51.67157188178386,160 L 51.69784054063982,160 L 51.730416544596245,160 L 53.21445242120522,160 L 53.24971621426697,160 L 53.28005239396896,160 L 54.769553441758745,160 L 54.796646355940325,160 L 54.82864896488762,160 L 56.319153453943386,160 L 56.34570881030391,160 L 56.3746294210771,160 L 57.867230385635025,160 L 57.894430811380815,160 L 57.922993050273305,160 L 59.414608492159275,160 L 59.446646938294634,160 L 59.47961715131984,160 L 60.962380807752304,160 L 60.99201816228691,160 L 61.02543634016301,160 L 62.50187473290096,160 L 62.54151066290735,160 L 62.5739970738936,160 L 64.05862426410575,160 L 64.08702523565191,160 L 64.11789897317497,160 L 65.60709540486616,160 L 65.63370451700878,160 L 65.66545626563958,160 L 67.15312961683775,160 L 67.1811722165032,160 L 67.21281645356979,160 L 68.7022279083894,160 L 68.72484117406212,160 L 68.76021247868808,160 L 70.25333308247302,160 L 70.28426057577819,160 L 70.32058156588802,160 L 71.80363191982505,160 L 71.83024103196766,160 L 71.86213612935074,160 L 73.34948694585628,57.14285714285715 L 73.37537931423748,57.14285714285715 L 73.40868998054937,57.14285714285715 L 74.89444604218575,57.14285714285715 L 74.92019506181467,57.14285714285715 L 74.95549469206449,57.14285714285715 L 76.4350509201646,57.14285714285715 L 76.47020720166213,57.14285714285715 L 76.50586520379265,57.14285714285715 L 77.99221257903221,57.14285714285715 L 78.01421661250771,57.14285714285715 L 78.047222662721,57.14285714285715 L 79.53985946446699,57.14285714285715 L 79.56582350722434,57.14285714285715 L 79.59951046401096,57.14285714285715 L 81.08272208529431,57.14285714285715 L 81.12219674795438,57.14285714285715 L 81.15568660020661,57.14285714285715 L 82.63690925755202,57.14285714285715 L 82.66952109869652,57.14285714285715 L 82.702634660474,57.14285714285715 L 84.18835488492232,57.14285714285715 L 84.21835061133764,57.14285714285715 L 84.25110580123442,57.14285714285715 L 85.73299144655914,57.14285714285715 L 85.76390102127027,57.14285714285715 L 85.79588571162353,57.14285714285715 L 87.27958113494583,57.14285714285715 L 87.31061613981521,57.14285714285715 L 87.3450915147394,57.14285714285715 L 88.83054296027717,57.14285714285715 L 88.86573507896276,57.14285714285715 L 88.89965497747185,57.14285714285715 L 90.37772396226703,57.14285714285715 L 90.4076480143062,57.14285714285715 L 90.43529640490289,57.14285714285715 L 91.93035221684366,57.14285714285715 L 91.96213980266253,57.14285714285715 L 91.9971168982197,57.14285714285715 L 93.47407493018468,57.14285714285715 L 93.50613129491408,57.14285714285715 L 93.5426493895583,57.14285714285715 L 95.02268941969737,57.14285714285715 L 95.05275682048884,57.14285714285715 L 95.08578078929615,57.14285714285715 L 96.5715726881206,57.14285714285715 L 96.5987731138664,57.14285714285715 L 96.63455654615517,57.14285714285715 L 98.12056346810805,57.14285714285715 L 98.14962742763352,57.14285714285715 L 98.17942604951446,57.14285714285715 L 99.67016348029269,57.14285714285715 L 99.69517783756616,57.14285714285715 L 99.72755673698819,57.14285714285715 L 101.213527821753,57.14285714285715 L 101.23735955182013,57.14285714285715 L 101.26518712835717,57.14285714285715 L 102.76484801896505,57.14285714285715 L 102.79222763065118,57.14285714285715 L 102.82849486497892,57.14285714285715 L 104.31219028830122,57.14285714285715 L 104.34016121359055,57.14285714285715 L 104.37440364679226,57.14285714285715 L 105.85478413021801,57.14285714285715 L 105.88042563828272,57.14285714285715 L 105.91427386241566,57.14285714285715 L 107.3996536335773,57.14285714285715 L 107.43239090488004,57.14285714285715 L 107.46507442040068,57.14285714285715 L 108.95394831739922,57.14285714285715 L 108.97991236015658,57.14285714285715 L 109.01118030674841,57.14285714285715 L 110.50331538786142,57.14285714285715 L 110.52931526780684,57.14285714285715 L 110.56070864455693,57.14285714285715 L 112.04818489122071,57.14285714285715 L 112.07782224575531,57.14285714285715 L 112.10905435515909,57.14285714285715 L 113.60133278502437,57.14285714285715 L 113.62953665203614,57.14285714285715 L 113.66299066710029,57.14285714285715 L 115.1505206695462,57.14285714285715 L 115.17632344495722,57.14285714285715 L 115.21253692350284,57.14285714285715 L 116.694135871323,57.14285714285715 L 116.7196698678235,57.14285714285715 L 116.75027482643603,57.14285714285715 L 118.2419977798862,57.14285714285715 L 118.2677826367032,57.14285714285715 L 118.29894307173082,57.14285714285715 L 119.79186657098138,57.14285714285715 L 119.81333304663583,57.14285714285715 L 119.84409927259469,57.14285714285715 L 121.33990766548494,57.14285714285715 L 121.36495785994649,57.14285714285715 L 121.38572551043356,57.14285714285715 L 122.88599563323864,57.14285714285715 L 122.90986320049385,57.14285714285715 L 122.94005603144355,57.14285714285715 L 124.43027382299476,57.14285714285715 L 124.46616476684774,57.14285714285715 L 124.49868701502206,57.14285714285715 L 125.98503439026162,57.14285714285715 L 126.01169725818633,57.14285714285715 L 126.0429293675901,57.14285714285715 L 127.53352344961606,57.14285714285715 L 127.55959500393762,57.14285714285715 L 127.58477062855741,57.14285714285715 L 129.0833743221172,57.14285714285715 L 129.1057367274734,57.14285714285715 L 129.1317724446069,57.14285714285715 L 130.6272403842105,57.14285714285715 L 130.65273854352293,57.14285714285715 L 130.68144413116772,57.14285714285715 L 132.17789759344325,57.14285714285715 L 132.20011665004716,57.14285714285715 L 132.23090079460007,57.14285714285715 L 133.71502626417922,57.14285714285715 L 133.74862362799564,57.14285714285715 L 133.77956903989485,57.14285714285715 L 135.27462485183565,57.14285714285715 L 135.30336627666847,57.14285714285715 L 135.33257358494626,57.14285714285715 L 136.82366938760518,57.14285714285715 L 136.8536113582384,57.14285714285715 L 136.88729831502502,57.14285714285715 L 138.36692621750126,57.14285714285715 L 138.39206600493299,57.14285714285715 L 138.4208432669539,57.14285714285715 L 139.91546903263782,57.14285714285715 L 139.93417604481084,57.14285714285715 L 139.96709250205393,57.14285714285715 L 141.4647285915358,57.14285714285715 L 141.48732393861448,57.14285714285715 L 141.51805432738527,57.14285714285715 L 143.01456154544292,57.14285714285715 L 143.03719272970966,57.14285714285715 L 143.06408853935687,57.14285714285715 L 144.56012987396957,40 L 144.58308359292897,40 L 144.61254176152323,40 L 146.1097836419363,40 L 146.13359745340944,40 L 146.16680060815708,40 L 147.64909838114465,40 L 147.68242696605054,40 L 147.71505672578905,40 L 149.2067617606452,40 L 149.22426822701783,40 L 149.2541206046809,40 L 150.7521329846375,40 L 150.77662770268392,40 L 150.80884533475967,40 L 152.29399216419884,40 L 152.3261381218984,40 L 152.3548616281372,40 L 153.84903942897023,40 L 153.87432256515424,40 L 153.90207846731516,40 L 155.3950019665657,40 L 155.41980130071073,40 L 155.44486941376633,40 L 155.4845949367429,40 L 156.94875909256658,40 L 156.9749202398583,40 L 157.00212066560408,40 L 158.49586842018027,40 L 158.52195789309587,40 L 158.55046637620626,40 L 160.04324652670454,40 L 160.06725744271202,40 L 160.0946549729922,40 L 161.58686172848135,40 L 161.6157106648784,40 L 163.14590483972265,40 L 163.1634292246893,40 L 163.19123888263232,40 L 164.68636636894925,40 L 164.71104027293603,40 L 164.74153771998434,40 L 166.23415660313628,40 L 166.25823919351993,40 L 166.28531418910748,40 L 167.78502883549746,40 L 167.81086744809656,40 L 167.8432463475186,40 L 169.33480803362247,40 L 169.36265352875353,40 L 169.38935223386633,40 L 170.88555483582536,40 L 170.90268501172324,40 L 170.93169521546662,40 L 172.42834578227655,40 L 172.45074402482084,40 L 172.47643928866768,40 L 173.9761897722457,40 L 173.99706493429701,40 L 174.0287270899576,40 L 175.52367539033418,40 L 175.54657535351146,40 L 175.5764277311745,40 L 177.06888534698015,40 L 177.09094313623777,40 L 177.12342954722402,40 L 178.61608426756405,40 L 178.64846316698606,40 L 178.68152297298147,40 L 180.16950094027823,40 L 180.19327891456325,40 L 180.2231850480084,40 L 181.71727325587125,40 L 181.7407107768696,40 L 181.77061691031474,40 L 183.2661744428885,40 L 183.2969585874414,40 L 183.33333333333334,40" stroke="#22c55e" stroke-width="4" fill="none" opacity="0.4" stroke-dasharray="15000" stroke-dashoffset="15000">
      <animate attributeName="stroke-dashoffset" values="15000;0" dur="3s" begin="2.6s" fill="freeze"/>
    </path>
    
    <!-- Animated circle that moves along the path and draws the line -->
    <circle r="5" fill="#22c55e" opacity="0" filter="url(#trailGlow)">
      <animate attributeName="opacity" values="0;1;1;1" dur="3.2s" begin="2.4s" fill="freeze"/>
      <animate attributeName="r" values="5;6;5" dur="1s" begin="2.4s" repeatCount="3"/>
      <animateMotion dur="3s" begin="2.4s" fill="freeze">
        <mpath href="#path_followersCount_60"/>
      </animateMotion>
    </circle>
    
    <!-- Small trail dots that fade out -->
    <circle r="2" fill="#22c55e" opacity="0">
      <animate attributeName="opacity" values="0;0.6;0" dur="0.8s" begin="2.8s" fill="freeze"/>
      <animateMotion dur="3s" begin="2.4s" fill="freeze">
        <mpath href="#path_followersCount_60"/>
      </animateMotion>
    </circle>
    
    <!-- Hidden path for motion animation -->
    <path id="path_followersCount_60" d="M 30,160 L 30.022882044583255,160 L 30.050763376902395,160 L 31.546715118544938,160 L 31.57522360165532,160 L 31.603839596329912,160 L 33.092892679268815,160 L 33.1203439653311,160 L 33.15177317926926,160 L 34.63950028624954,160 L 34.66537473603671,160 L 34.70017264565353,160 L 36.183240918184595,160 L 36.21432967883608,160 L 36.24532884651739,160 L 37.740008367983414,160 L 37.76969947830013,160 L 37.802974307423945,160 L 39.290540147057904,160 L 39.31550074854927,160 L 39.348936845019395,160 L 40.83524838307087,160 L 40.869222037362064,160 L 40.905023388244864,160 L 42.38368368664321,160 L 42.4094147876781,160 L 42.441112780526794,160 L 43.93460967478648,160 L 43.95679289420235,160 L 43.989153875030354,160 L 45.47847573687979,160 L 45.504869825893984,160 L 45.536155691079856,160 L 47.026068866532455,160 L 47.052660060081045,160 L 47.083641309168314,160 L 48.578804632673304,160 L 48.6060050584191,160 L 48.64186016508401,160 L 50.12467757729858,160 L 50.15795240642238,160 L 50.17972349817544,160 L 51.67157188178386,160 L 51.69784054063982,160 L 51.730416544596245,160 L 53.21445242120522,160 L 53.24971621426697,160 L 53.28005239396896,160 L 54.769553441758745,160 L 54.796646355940325,160 L 54.82864896488762,160 L 56.319153453943386,160 L 56.34570881030391,160 L 56.3746294210771,160 L 57.867230385635025,160 L 57.894430811380815,160 L 57.922993050273305,160 L 59.414608492159275,160 L 59.446646938294634,160 L 59.47961715131984,160 L 60.962380807752304,160 L 60.99201816228691,160 L 61.02543634016301,160 L 62.50187473290096,160 L 62.54151066290735,160 L 62.5739970738936,160 L 64.05862426410575,160 L 64.08702523565191,160 L 64.11789897317497,160 L 65.60709540486616,160 L 65.63370451700878,160 L 65.66545626563958,160 L 67.15312961683775,160 L 67.1811722165032,160 L 67.21281645356979,160 L 68.7022279083894,160 L 68.72484117406212,160 L 68.76021247868808,160 L 70.25333308247302,160 L 70.28426057577819,160 L 70.32058156588802,160 L 71.80363191982505,160 L 71.83024103196766,160 L 71.86213612935074,160 L 73.34948694585628,57.14285714285715 L 73.37537931423748,57.14285714285715 L 73.40868998054937,57.14285714285715 L 74.89444604218575,57.14285714285715 L 74.92019506181467,57.14285714285715 L 74.95549469206449,57.14285714285715 L 76.4350509201646,57.14285714285715 L 76.47020720166213,57.14285714285715 L 76.50586520379265,57.14285714285715 L 77.99221257903221,57.14285714285715 L 78.01421661250771,57.14285714285715 L 78.047222662721,57.14285714285715 L 79.53985946446699,57.14285714285715 L 79.56582350722434,57.14285714285715 L 79.59951046401096,57.14285714285715 L 81.08272208529431,57.14285714285715 L 81.12219674795438,57.14285714285715 L 81.15568660020661,57.14285714285715 L 82.63690925755202,57.14285714285715 L 82.66952109869652,57.14285714285715 L 82.702634660474,57.14285714285715 L 84.18835488492232,57.14285714285715 L 84.21835061133764,57.14285714285715 L 84.25110580123442,57.14285714285715 L 85.73299144655914,57.14285714285715 L 85.76390102127027,57.14285714285715 L 85.79588571162353,57.14285714285715 L 87.27958113494583,57.14285714285715 L 87.31061613981521,57.14285714285715 L 87.3450915147394,57.14285714285715 L 88.83054296027717,57.14285714285715 L 88.86573507896276,57.14285714285715 L 88.89965497747185,57.14285714285715 L 90.37772396226703,57.14285714285715 L 90.4076480143062,57.14285714285715 L 90.43529640490289,57.14285714285715 L 91.93035221684366,57.14285714285715 L 91.96213980266253,57.14285714285715 L 91.9971168982197,57.14285714285715 L 93.47407493018468,57.14285714285715 L 93.50613129491408,57.14285714285715 L 93.5426493895583,57.14285714285715 L 95.02268941969737,57.14285714285715 L 95.05275682048884,57.14285714285715 L 95.08578078929615,57.14285714285715 L 96.5715726881206,57.14285714285715 L 96.5987731138664,57.14285714285715 L 96.63455654615517,57.14285714285715 L 98.12056346810805,57.14285714285715 L 98.14962742763352,57.14285714285715 L 98.17942604951446,57.14285714285715 L 99.67016348029269,57.14285714285715 L 99.69517783756616,57.14285714285715 L 99.72755673698819,57.14285714285715 L 101.213527821753,57.14285714285715 L 101.23735955182013,57.14285714285715 L 101.26518712835717,57.14285714285715 L 102.76484801896505,57.14285714285715 L 102.79222763065118,57.14285714285715 L 102.82849486497892,57.14285714285715 L 104.31219028830122,57.14285714285715 L 104.34016121359055,57.14285714285715 L 104.37440364679226,57.14285714285715 L 105.85478413021801,57.14285714285715 L 105.88042563828272,57.14285714285715 L 105.91427386241566,57.14285714285715 L 107.3996536335773,57.14285714285715 L 107.43239090488004,57.14285714285715 L 107.46507442040068,57.14285714285715 L 108.95394831739922,57.14285714285715 L 108.97991236015658,57.14285714285715 L 109.01118030674841,57.14285714285715 L 110.50331538786142,57.14285714285715 L 110.52931526780684,57.14285714285715 L 110.56070864455693,57.14285714285715 L 112.04818489122071,57.14285714285715 L 112.07782224575531,57.14285714285715 L 112.10905435515909,57.14285714285715 L 113.60133278502437,57.14285714285715 L 113.62953665203614,57.14285714285715 L 113.66299066710029,57.14285714285715 L 115.1505206695462,57.14285714285715 L 115.17632344495722,57.14285714285715 L 115.21253692350284,57.14285714285715 L 116.694135871323,57.14285714285715 L 116.7196698678235,57.14285714285715 L 116.75027482643603,57.14285714285715 L 118.2419977798862,57.14285714285715 L 118.2677826367032,57.14285714285715 L 118.29894307173082,57.14285714285715 L 119.79186657098138,57.14285714285715 L 119.81333304663583,57.14285714285715 L 119.84409927259469,57.14285714285715 L 121.33990766548494,57.14285714285715 L 121.36495785994649,57.14285714285715 L 121.38572551043356,57.14285714285715 L 122.88599563323864,57.14285714285715 L 122.90986320049385,57.14285714285715 L 122.94005603144355,57.14285714285715 L 124.43027382299476,57.14285714285715 L 124.46616476684774,57.14285714285715 L 124.49868701502206,57.14285714285715 L 125.98503439026162,57.14285714285715 L 126.01169725818633,57.14285714285715 L 126.0429293675901,57.14285714285715 L 127.53352344961606,57.14285714285715 L 127.55959500393762,57.14285714285715 L 127.58477062855741,57.14285714285715 L 129.0833743221172,57.14285714285715 L 129.1057367274734,57.14285714285715 L 129.1317724446069,57.14285714285715 L 130.6272403842105,57.14285714285715 L 130.65273854352293,57.14285714285715 L 130.68144413116772,57.14285714285715 L 132.17789759344325,57.14285714285715 L 132.20011665004716,57.14285714285715 L 132.23090079460007,57.14285714285715 L 133.71502626417922,57.14285714285715 L 133.74862362799564,57.14285714285715 L 133.77956903989485,57.14285714285715 L 135.27462485183565,57.14285714285715 L 135.30336627666847,57.14285714285715 L 135.33257358494626,57.14285714285715 L 136.82366938760518,57.14285714285715 L 136.8536113582384,57.14285714285715 L 136.88729831502502,57.14285714285715 L 138.36692621750126,57.14285714285715 L 138.39206600493299,57.14285714285715 L 138.4208432669539,57.14285714285715 L 139.91546903263782,57.14285714285715 L 139.93417604481084,57.14285714285715 L 139.96709250205393,57.14285714285715 L 141.4647285915358,57.14285714285715 L 141.48732393861448,57.14285714285715 L 141.51805432738527,57.14285714285715 L 143.01456154544292,57.14285714285715 L 143.03719272970966,57.14285714285715 L 143.06408853935687,57.14285714285715 L 144.56012987396957,40 L 144.58308359292897,40 L 144.61254176152323,40 L 146.1097836419363,40 L 146.13359745340944,40 L 146.16680060815708,40 L 147.64909838114465,40 L 147.68242696605054,40 L 147.71505672578905,40 L 149.2067617606452,40 L 149.22426822701783,40 L 149.2541206046809,40 L 150.7521329846375,40 L 150.77662770268392,40 L 150.80884533475967,40 L 152.29399216419884,40 L 152.3261381218984,40 L 152.3548616281372,40 L 153.84903942897023,40 L 153.87432256515424,40 L 153.90207846731516,40 L 155.3950019665657,40 L 155.41980130071073,40 L 155.44486941376633,40 L 155.4845949367429,40 L 156.94875909256658,40 L 156.9749202398583,40 L 157.00212066560408,40 L 158.49586842018027,40 L 158.52195789309587,40 L 158.55046637620626,40 L 160.04324652670454,40 L 160.06725744271202,40 L 160.0946549729922,40 L 161.58686172848135,40 L 161.6157106648784,40 L 163.14590483972265,40 L 163.1634292246893,40 L 163.19123888263232,40 L 164.68636636894925,40 L 164.71104027293603,40 L 164.74153771998434,40 L 166.23415660313628,40 L 166.25823919351993,40 L 166.28531418910748,40 L 167.78502883549746,40 L 167.81086744809656,40 L 167.8432463475186,40 L 169.33480803362247,40 L 169.36265352875353,40 L 169.38935223386633,40 L 170.88555483582536,40 L 170.90268501172324,40 L 170.93169521546662,40 L 172.42834578227655,40 L 172.45074402482084,40 L 172.47643928866768,40 L 173.9761897722457,40 L 173.99706493429701,40 L 174.0287270899576,40 L 175.52367539033418,40 L 175.54657535351146,40 L 175.5764277311745,40 L 177.06888534698015,40 L 177.09094313623777,40 L 177.12342954722402,40 L 178.61608426756405,40 L 178.64846316698606,40 L 178.68152297298147,40 L 180.16950094027823,40 L 180.19327891456325,40 L 180.2231850480084,40 L 181.71727325587125,40 L 181.7407107768696,40 L 181.77061691031474,40 L 183.2661744428885,40 L 183.2969585874414,40 L 183.33333333333334,40" fill="none" stroke="none"/>
  </g>
  <!-- 🔓 Public Contributions Chart -->
  <g transform="translate(293.33333333333337, 250)">
    <!-- Chart Background -->
    <rect x="0" y="0" width="213.33333333333334" height="200" fill="#0f172a" stroke="#334155" stroke-width="1" rx="8" filter="url(#shadow)">
      <animate attributeName="opacity" values="0;1" dur="0.5s" begin="2.3s" fill="freeze"/>
    </rect>
    
    <!-- Chart Title -->
    <text x="106.66666666666667" y="25" text-anchor="middle" fill="#f8fafc" font-size="14" font-weight="bold" font-family="Arial, sans-serif">
      🔓 Public Contributions
      <animate attributeName="opacity" values="0;1" dur="0.5s" begin="2.5s" fill="freeze"/>
    </text>
    
    <!-- Y-axis labels -->
    <text x="10" y="45" fill="#94a3b8" font-size="10" font-family="Arial, sans-serif">2,669
      <animate attributeName="opacity" values="0;1" dur="0.5s" begin="2.6999999999999997s" fill="freeze"/>
    </text>
    <text x="10" y="185" fill="#94a3b8" font-size="10" font-family="Arial, sans-serif">1,491
      <animate attributeName="opacity" values="0;1" dur="0.5s" begin="2.6999999999999997s" fill="freeze"/>
    </text>
    
    <!-- Chart Line with draw animation that follows the circle -->
    <path d="M 30,160 L 30.022882044583255,160 L 30.050763376902395,160 L 31.546715118544938,160 L 31.57522360165532,160 L 31.603839596329912,160 L 33.092892679268815,160 L 33.1203439653311,160 L 33.15177317926926,160 L 34.63950028624954,160 L 34.66537473603671,160 L 34.70017264565353,160 L 36.183240918184595,160 L 36.21432967883608,160 L 36.24532884651739,160 L 37.740008367983414,160 L 37.76969947830013,160 L 37.802974307423945,160 L 39.290540147057904,160 L 39.31550074854927,160 L 39.348936845019395,160 L 40.83524838307087,160 L 40.869222037362064,160 L 40.905023388244864,160 L 42.38368368664321,160 L 42.4094147876781,160 L 42.441112780526794,160 L 43.93460967478648,160 L 43.95679289420235,160 L 43.989153875030354,160 L 45.47847573687979,160 L 45.504869825893984,160 L 45.536155691079856,160 L 47.026068866532455,160 L 47.052660060081045,160 L 47.083641309168314,160 L 48.578804632673304,160 L 48.6060050584191,160 L 48.64186016508401,160 L 50.12467757729858,160 L 50.15795240642238,160 L 50.17972349817544,160 L 51.67157188178386,160 L 51.69784054063982,160 L 51.730416544596245,160 L 53.21445242120522,160 L 53.24971621426697,160 L 53.28005239396896,160 L 54.769553441758745,160 L 54.796646355940325,160 L 54.82864896488762,160 L 56.319153453943386,160 L 56.34570881030391,160 L 56.3746294210771,160 L 57.867230385635025,160 L 57.894430811380815,160 L 57.922993050273305,160 L 59.414608492159275,160 L 59.446646938294634,160 L 59.47961715131984,160 L 60.962380807752304,160 L 60.99201816228691,160 L 61.02543634016301,160 L 62.50187473290096,160 L 62.54151066290735,160 L 62.5739970738936,160 L 64.05862426410575,160 L 64.08702523565191,160 L 64.11789897317497,160 L 65.60709540486616,160 L 65.63370451700878,160 L 65.66545626563958,160 L 67.15312961683775,160 L 67.1811722165032,160 L 67.21281645356979,160 L 68.7022279083894,160 L 68.72484117406212,160 L 68.76021247868808,160 L 70.25333308247302,160 L 70.28426057577819,160 L 70.32058156588802,160 L 71.80363191982505,160 L 71.83024103196766,160 L 71.86213612935074,160 L 73.34948694585628,133.3106960950764 L 73.37537931423748,133.3106960950764 L 73.40868998054937,133.3106960950764 L 74.89444604218575,133.3106960950764 L 74.92019506181467,133.3106960950764 L 74.95549469206449,133.3106960950764 L 76.4350509201646,133.3106960950764 L 76.47020720166213,133.3106960950764 L 76.50586520379265,133.3106960950764 L 77.99221257903221,133.3106960950764 L 78.01421661250771,133.3106960950764 L 78.047222662721,133.3106960950764 L 79.53985946446699,133.3106960950764 L 79.56582350722434,133.3106960950764 L 79.59951046401096,133.3106960950764 L 81.08272208529431,133.3106960950764 L 81.12219674795438,133.3106960950764 L 81.15568660020661,133.3106960950764 L 82.63690925755202,133.3106960950764 L 82.66952109869652,133.3106960950764 L 82.702634660474,133.3106960950764 L 84.18835488492232,133.3106960950764 L 84.21835061133764,133.3106960950764 L 84.25110580123442,133.3106960950764 L 85.73299144655914,133.3106960950764 L 85.76390102127027,133.3106960950764 L 85.79588571162353,133.3106960950764 L 87.27958113494583,133.3106960950764 L 87.31061613981521,133.3106960950764 L 87.3450915147394,133.3106960950764 L 88.83054296027717,133.3106960950764 L 88.86573507896276,133.3106960950764 L 88.89965497747185,133.3106960950764 L 90.37772396226703,133.3106960950764 L 90.4076480143062,133.3106960950764 L 90.43529640490289,133.3106960950764 L 91.93035221684366,133.3106960950764 L 91.96213980266253,133.3106960950764 L 91.9971168982197,133.3106960950764 L 93.47407493018468,133.3106960950764 L 93.50613129491408,133.3106960950764 L 93.5426493895583,133.3106960950764 L 95.02268941969737,133.3106960950764 L 95.05275682048884,133.3106960950764 L 95.08578078929615,133.3106960950764 L 96.5715726881206,133.3106960950764 L 96.5987731138664,133.3106960950764 L 96.63455654615517,133.3106960950764 L 98.12056346810805,133.3106960950764 L 98.14962742763352,133.3106960950764 L 98.17942604951446,133.3106960950764 L 99.67016348029269,133.3106960950764 L 99.69517783756616,133.3106960950764 L 99.72755673698819,133.3106960950764 L 101.213527821753,133.3106960950764 L 101.23735955182013,133.3106960950764 L 101.26518712835717,133.3106960950764 L 102.76484801896505,133.3106960950764 L 102.79222763065118,133.3106960950764 L 102.82849486497892,133.3106960950764 L 104.31219028830122,133.3106960950764 L 104.34016121359055,133.3106960950764 L 104.37440364679226,133.3106960950764 L 105.85478413021801,133.3106960950764 L 105.88042563828272,133.3106960950764 L 105.91427386241566,133.3106960950764 L 107.3996536335773,133.3106960950764 L 107.43239090488004,133.3106960950764 L 107.46507442040068,133.3106960950764 L 108.95394831739922,133.3106960950764 L 108.97991236015658,133.3106960950764 L 109.01118030674841,133.3106960950764 L 110.50331538786142,133.3106960950764 L 110.52931526780684,133.3106960950764 L 110.56070864455693,133.3106960950764 L 112.04818489122071,133.3106960950764 L 112.07782224575531,133.3106960950764 L 112.10905435515909,133.3106960950764 L 113.60133278502437,133.3106960950764 L 113.62953665203614,133.3106960950764 L 113.66299066710029,133.3106960950764 L 115.1505206695462,133.3106960950764 L 115.17632344495722,133.3106960950764 L 115.21253692350284,133.3106960950764 L 116.694135871323,133.3106960950764 L 116.7196698678235,133.3106960950764 L 116.75027482643603,133.3106960950764 L 118.2419977798862,133.3106960950764 L 118.2677826367032,133.3106960950764 L 118.29894307173082,133.3106960950764 L 119.79186657098138,133.3106960950764 L 119.81333304663583,133.3106960950764 L 119.84409927259469,133.3106960950764 L 121.33990766548494,133.3106960950764 L 121.36495785994649,133.3106960950764 L 121.38572551043356,133.3106960950764 L 122.88599563323864,133.3106960950764 L 122.90986320049385,133.3106960950764 L 122.94005603144355,133.3106960950764 L 124.43027382299476,133.3106960950764 L 124.46616476684774,133.3106960950764 L 124.49868701502206,133.3106960950764 L 125.98503439026162,133.3106960950764 L 126.01169725818633,133.3106960950764 L 126.0429293675901,133.3106960950764 L 127.53352344961606,133.3106960950764 L 127.55959500393762,133.3106960950764 L 127.58477062855741,133.3106960950764 L 129.0833743221172,133.3106960950764 L 129.1057367274734,133.3106960950764 L 129.1317724446069,133.3106960950764 L 130.6272403842105,133.3106960950764 L 130.65273854352293,133.3106960950764 L 130.68144413116772,133.3106960950764 L 132.17789759344325,133.3106960950764 L 132.20011665004716,133.3106960950764 L 132.23090079460007,133.3106960950764 L 133.71502626417922,133.3106960950764 L 133.74862362799564,133.3106960950764 L 133.77956903989485,133.3106960950764 L 135.27462485183565,133.3106960950764 L 135.30336627666847,133.3106960950764 L 135.33257358494626,133.3106960950764 L 136.82366938760518,133.3106960950764 L 136.8536113582384,133.3106960950764 L 136.88729831502502,133.3106960950764 L 138.36692621750126,133.3106960950764 L 138.39206600493299,133.3106960950764 L 138.4208432669539,133.3106960950764 L 139.91546903263782,133.3106960950764 L 139.93417604481084,133.3106960950764 L 139.96709250205393,133.3106960950764 L 141.4647285915358,133.3106960950764 L 141.48732393861448,133.3106960950764 L 141.51805432738527,133.3106960950764 L 143.01456154544292,133.3106960950764 L 143.03719272970966,133.3106960950764 L 143.06408853935687,133.3106960950764 L 144.56012987396957,40 L 144.58308359292897,40 L 144.61254176152323,40 L 146.1097836419363,40 L 146.13359745340944,40 L 146.16680060815708,40 L 147.64909838114465,40 L 147.68242696605054,40 L 147.71505672578905,40 L 149.2067617606452,40 L 149.22426822701783,40 L 149.2541206046809,40 L 150.7521329846375,40 L 150.77662770268392,40 L 150.80884533475967,40 L 152.29399216419884,40 L 152.3261381218984,40 L 152.3548616281372,40 L 153.84903942897023,40 L 153.87432256515424,40 L 153.90207846731516,40 L 155.3950019665657,40 L 155.41980130071073,40 L 155.44486941376633,40 L 155.4845949367429,40 L 156.94875909256658,40 L 156.9749202398583,40 L 157.00212066560408,40 L 158.49586842018027,40 L 158.52195789309587,40 L 158.55046637620626,40 L 160.04324652670454,40 L 160.06725744271202,40 L 160.0946549729922,40 L 161.58686172848135,40 L 161.6157106648784,40 L 163.14590483972265,40 L 163.1634292246893,40 L 163.19123888263232,40 L 164.68636636894925,40 L 164.71104027293603,40 L 164.74153771998434,40 L 166.23415660313628,40 L 166.25823919351993,40 L 166.28531418910748,40 L 167.78502883549746,40 L 167.81086744809656,40 L 167.8432463475186,40 L 169.33480803362247,40 L 169.36265352875353,40 L 169.38935223386633,40 L 170.88555483582536,40 L 170.90268501172324,40 L 170.93169521546662,40 L 172.42834578227655,40 L 172.45074402482084,40 L 172.47643928866768,40 L 173.9761897722457,40 L 173.99706493429701,40 L 174.0287270899576,40 L 175.52367539033418,40 L 175.54657535351146,40 L 175.5764277311745,40 L 177.06888534698015,40 L 177.09094313623777,40 L 177.12342954722402,40 L 178.61608426756405,40 L 178.64846316698606,40 L 178.68152297298147,40 L 180.16950094027823,40 L 180.19327891456325,40 L 180.2231850480084,40 L 181.71727325587125,40 L 181.7407107768696,40 L 181.77061691031474,40 L 183.2661744428885,40 L 183.2969585874414,40 L 183.33333333333334,40" stroke="#3b82f6" stroke-width="2" fill="none" stroke-dasharray="15000" stroke-dashoffset="15000">
      <animate attributeName="stroke-dashoffset" values="15000;0" dur="3s" begin="3.0999999999999996s" fill="freeze"/>
    </path>
    
    <!-- Glow effect for the line that also follows the circle -->
    <path d="M 30,160 L 30.022882044583255,160 L 30.050763376902395,160 L 31.546715118544938,160 L 31.57522360165532,160 L 31.603839596329912,160 L 33.092892679268815,160 L 33.1203439653311,160 L 33.15177317926926,160 L 34.63950028624954,160 L 34.66537473603671,160 L 34.70017264565353,160 L 36.183240918184595,160 L 36.21432967883608,160 L 36.24532884651739,160 L 37.740008367983414,160 L 37.76969947830013,160 L 37.802974307423945,160 L 39.290540147057904,160 L 39.31550074854927,160 L 39.348936845019395,160 L 40.83524838307087,160 L 40.869222037362064,160 L 40.905023388244864,160 L 42.38368368664321,160 L 42.4094147876781,160 L 42.441112780526794,160 L 43.93460967478648,160 L 43.95679289420235,160 L 43.989153875030354,160 L 45.47847573687979,160 L 45.504869825893984,160 L 45.536155691079856,160 L 47.026068866532455,160 L 47.052660060081045,160 L 47.083641309168314,160 L 48.578804632673304,160 L 48.6060050584191,160 L 48.64186016508401,160 L 50.12467757729858,160 L 50.15795240642238,160 L 50.17972349817544,160 L 51.67157188178386,160 L 51.69784054063982,160 L 51.730416544596245,160 L 53.21445242120522,160 L 53.24971621426697,160 L 53.28005239396896,160 L 54.769553441758745,160 L 54.796646355940325,160 L 54.82864896488762,160 L 56.319153453943386,160 L 56.34570881030391,160 L 56.3746294210771,160 L 57.867230385635025,160 L 57.894430811380815,160 L 57.922993050273305,160 L 59.414608492159275,160 L 59.446646938294634,160 L 59.47961715131984,160 L 60.962380807752304,160 L 60.99201816228691,160 L 61.02543634016301,160 L 62.50187473290096,160 L 62.54151066290735,160 L 62.5739970738936,160 L 64.05862426410575,160 L 64.08702523565191,160 L 64.11789897317497,160 L 65.60709540486616,160 L 65.63370451700878,160 L 65.66545626563958,160 L 67.15312961683775,160 L 67.1811722165032,160 L 67.21281645356979,160 L 68.7022279083894,160 L 68.72484117406212,160 L 68.76021247868808,160 L 70.25333308247302,160 L 70.28426057577819,160 L 70.32058156588802,160 L 71.80363191982505,160 L 71.83024103196766,160 L 71.86213612935074,160 L 73.34948694585628,133.3106960950764 L 73.37537931423748,133.3106960950764 L 73.40868998054937,133.3106960950764 L 74.89444604218575,133.3106960950764 L 74.92019506181467,133.3106960950764 L 74.95549469206449,133.3106960950764 L 76.4350509201646,133.3106960950764 L 76.47020720166213,133.3106960950764 L 76.50586520379265,133.3106960950764 L 77.99221257903221,133.3106960950764 L 78.01421661250771,133.3106960950764 L 78.047222662721,133.3106960950764 L 79.53985946446699,133.3106960950764 L 79.56582350722434,133.3106960950764 L 79.59951046401096,133.3106960950764 L 81.08272208529431,133.3106960950764 L 81.12219674795438,133.3106960950764 L 81.15568660020661,133.3106960950764 L 82.63690925755202,133.3106960950764 L 82.66952109869652,133.3106960950764 L 82.702634660474,133.3106960950764 L 84.18835488492232,133.3106960950764 L 84.21835061133764,133.3106960950764 L 84.25110580123442,133.3106960950764 L 85.73299144655914,133.3106960950764 L 85.76390102127027,133.3106960950764 L 85.79588571162353,133.3106960950764 L 87.27958113494583,133.3106960950764 L 87.31061613981521,133.3106960950764 L 87.3450915147394,133.3106960950764 L 88.83054296027717,133.3106960950764 L 88.86573507896276,133.3106960950764 L 88.89965497747185,133.3106960950764 L 90.37772396226703,133.3106960950764 L 90.4076480143062,133.3106960950764 L 90.43529640490289,133.3106960950764 L 91.93035221684366,133.3106960950764 L 91.96213980266253,133.3106960950764 L 91.9971168982197,133.3106960950764 L 93.47407493018468,133.3106960950764 L 93.50613129491408,133.3106960950764 L 93.5426493895583,133.3106960950764 L 95.02268941969737,133.3106960950764 L 95.05275682048884,133.3106960950764 L 95.08578078929615,133.3106960950764 L 96.5715726881206,133.3106960950764 L 96.5987731138664,133.3106960950764 L 96.63455654615517,133.3106960950764 L 98.12056346810805,133.3106960950764 L 98.14962742763352,133.3106960950764 L 98.17942604951446,133.3106960950764 L 99.67016348029269,133.3106960950764 L 99.69517783756616,133.3106960950764 L 99.72755673698819,133.3106960950764 L 101.213527821753,133.3106960950764 L 101.23735955182013,133.3106960950764 L 101.26518712835717,133.3106960950764 L 102.76484801896505,133.3106960950764 L 102.79222763065118,133.3106960950764 L 102.82849486497892,133.3106960950764 L 104.31219028830122,133.3106960950764 L 104.34016121359055,133.3106960950764 L 104.37440364679226,133.3106960950764 L 105.85478413021801,133.3106960950764 L 105.88042563828272,133.3106960950764 L 105.91427386241566,133.3106960950764 L 107.3996536335773,133.3106960950764 L 107.43239090488004,133.3106960950764 L 107.46507442040068,133.3106960950764 L 108.95394831739922,133.3106960950764 L 108.97991236015658,133.3106960950764 L 109.01118030674841,133.3106960950764 L 110.50331538786142,133.3106960950764 L 110.52931526780684,133.3106960950764 L 110.56070864455693,133.3106960950764 L 112.04818489122071,133.3106960950764 L 112.07782224575531,133.3106960950764 L 112.10905435515909,133.3106960950764 L 113.60133278502437,133.3106960950764 L 113.62953665203614,133.3106960950764 L 113.66299066710029,133.3106960950764 L 115.1505206695462,133.3106960950764 L 115.17632344495722,133.3106960950764 L 115.21253692350284,133.3106960950764 L 116.694135871323,133.3106960950764 L 116.7196698678235,133.3106960950764 L 116.75027482643603,133.3106960950764 L 118.2419977798862,133.3106960950764 L 118.2677826367032,133.3106960950764 L 118.29894307173082,133.3106960950764 L 119.79186657098138,133.3106960950764 L 119.81333304663583,133.3106960950764 L 119.84409927259469,133.3106960950764 L 121.33990766548494,133.3106960950764 L 121.36495785994649,133.3106960950764 L 121.38572551043356,133.3106960950764 L 122.88599563323864,133.3106960950764 L 122.90986320049385,133.3106960950764 L 122.94005603144355,133.3106960950764 L 124.43027382299476,133.3106960950764 L 124.46616476684774,133.3106960950764 L 124.49868701502206,133.3106960950764 L 125.98503439026162,133.3106960950764 L 126.01169725818633,133.3106960950764 L 126.0429293675901,133.3106960950764 L 127.53352344961606,133.3106960950764 L 127.55959500393762,133.3106960950764 L 127.58477062855741,133.3106960950764 L 129.0833743221172,133.3106960950764 L 129.1057367274734,133.3106960950764 L 129.1317724446069,133.3106960950764 L 130.6272403842105,133.3106960950764 L 130.65273854352293,133.3106960950764 L 130.68144413116772,133.3106960950764 L 132.17789759344325,133.3106960950764 L 132.20011665004716,133.3106960950764 L 132.23090079460007,133.3106960950764 L 133.71502626417922,133.3106960950764 L 133.74862362799564,133.3106960950764 L 133.77956903989485,133.3106960950764 L 135.27462485183565,133.3106960950764 L 135.30336627666847,133.3106960950764 L 135.33257358494626,133.3106960950764 L 136.82366938760518,133.3106960950764 L 136.8536113582384,133.3106960950764 L 136.88729831502502,133.3106960950764 L 138.36692621750126,133.3106960950764 L 138.39206600493299,133.3106960950764 L 138.4208432669539,133.3106960950764 L 139.91546903263782,133.3106960950764 L 139.93417604481084,133.3106960950764 L 139.96709250205393,133.3106960950764 L 141.4647285915358,133.3106960950764 L 141.48732393861448,133.3106960950764 L 141.51805432738527,133.3106960950764 L 143.01456154544292,133.3106960950764 L 143.03719272970966,133.3106960950764 L 143.06408853935687,133.3106960950764 L 144.56012987396957,40 L 144.58308359292897,40 L 144.61254176152323,40 L 146.1097836419363,40 L 146.13359745340944,40 L 146.16680060815708,40 L 147.64909838114465,40 L 147.68242696605054,40 L 147.71505672578905,40 L 149.2067617606452,40 L 149.22426822701783,40 L 149.2541206046809,40 L 150.7521329846375,40 L 150.77662770268392,40 L 150.80884533475967,40 L 152.29399216419884,40 L 152.3261381218984,40 L 152.3548616281372,40 L 153.84903942897023,40 L 153.87432256515424,40 L 153.90207846731516,40 L 155.3950019665657,40 L 155.41980130071073,40 L 155.44486941376633,40 L 155.4845949367429,40 L 156.94875909256658,40 L 156.9749202398583,40 L 157.00212066560408,40 L 158.49586842018027,40 L 158.52195789309587,40 L 158.55046637620626,40 L 160.04324652670454,40 L 160.06725744271202,40 L 160.0946549729922,40 L 161.58686172848135,40 L 161.6157106648784,40 L 163.14590483972265,40 L 163.1634292246893,40 L 163.19123888263232,40 L 164.68636636894925,40 L 164.71104027293603,40 L 164.74153771998434,40 L 166.23415660313628,40 L 166.25823919351993,40 L 166.28531418910748,40 L 167.78502883549746,40 L 167.81086744809656,40 L 167.8432463475186,40 L 169.33480803362247,40 L 169.36265352875353,40 L 169.38935223386633,40 L 170.88555483582536,40 L 170.90268501172324,40 L 170.93169521546662,40 L 172.42834578227655,40 L 172.45074402482084,40 L 172.47643928866768,40 L 173.9761897722457,40 L 173.99706493429701,40 L 174.0287270899576,40 L 175.52367539033418,40 L 175.54657535351146,40 L 175.5764277311745,40 L 177.06888534698015,40 L 177.09094313623777,40 L 177.12342954722402,40 L 178.61608426756405,40 L 178.64846316698606,40 L 178.68152297298147,40 L 180.16950094027823,40 L 180.19327891456325,40 L 180.2231850480084,40 L 181.71727325587125,40 L 181.7407107768696,40 L 181.77061691031474,40 L 183.2661744428885,40 L 183.2969585874414,40 L 183.33333333333334,40" stroke="#3b82f6" stroke-width="4" fill="none" opacity="0.4" stroke-dasharray="15000" stroke-dashoffset="15000">
      <animate attributeName="stroke-dashoffset" values="15000;0" dur="3s" begin="3.0999999999999996s" fill="freeze"/>
    </path>
    
    <!-- Animated circle that moves along the path and draws the line -->
    <circle r="5" fill="#3b82f6" opacity="0" filter="url(#trailGlow)">
      <animate attributeName="opacity" values="0;1;1;1" dur="3.2s" begin="2.9s" fill="freeze"/>
      <animate attributeName="r" values="5;6;5" dur="1s" begin="2.9s" repeatCount="3"/>
      <animateMotion dur="3s" begin="2.9s" fill="freeze">
        <mpath href="#path_publicContributions_293.33333333333337"/>
      </animateMotion>
    </circle>
    
    <!-- Small trail dots that fade out -->
    <circle r="2" fill="#3b82f6" opacity="0">
      <animate attributeName="opacity" values="0;0.6;0" dur="0.8s" begin="3.3s" fill="freeze"/>
      <animateMotion dur="3s" begin="2.9s" fill="freeze">
        <mpath href="#path_publicContributions_293.33333333333337"/>
      </animateMotion>
    </circle>
    
    <!-- Hidden path for motion animation -->
    <path id="path_publicContributions_293.33333333333337" d="M 30,160 L 30.022882044583255,160 L 30.050763376902395,160 L 31.546715118544938,160 L 31.57522360165532,160 L 31.603839596329912,160 L 33.092892679268815,160 L 33.1203439653311,160 L 33.15177317926926,160 L 34.63950028624954,160 L 34.66537473603671,160 L 34.70017264565353,160 L 36.183240918184595,160 L 36.21432967883608,160 L 36.24532884651739,160 L 37.740008367983414,160 L 37.76969947830013,160 L 37.802974307423945,160 L 39.290540147057904,160 L 39.31550074854927,160 L 39.348936845019395,160 L 40.83524838307087,160 L 40.869222037362064,160 L 40.905023388244864,160 L 42.38368368664321,160 L 42.4094147876781,160 L 42.441112780526794,160 L 43.93460967478648,160 L 43.95679289420235,160 L 43.989153875030354,160 L 45.47847573687979,160 L 45.504869825893984,160 L 45.536155691079856,160 L 47.026068866532455,160 L 47.052660060081045,160 L 47.083641309168314,160 L 48.578804632673304,160 L 48.6060050584191,160 L 48.64186016508401,160 L 50.12467757729858,160 L 50.15795240642238,160 L 50.17972349817544,160 L 51.67157188178386,160 L 51.69784054063982,160 L 51.730416544596245,160 L 53.21445242120522,160 L 53.24971621426697,160 L 53.28005239396896,160 L 54.769553441758745,160 L 54.796646355940325,160 L 54.82864896488762,160 L 56.319153453943386,160 L 56.34570881030391,160 L 56.3746294210771,160 L 57.867230385635025,160 L 57.894430811380815,160 L 57.922993050273305,160 L 59.414608492159275,160 L 59.446646938294634,160 L 59.47961715131984,160 L 60.962380807752304,160 L 60.99201816228691,160 L 61.02543634016301,160 L 62.50187473290096,160 L 62.54151066290735,160 L 62.5739970738936,160 L 64.05862426410575,160 L 64.08702523565191,160 L 64.11789897317497,160 L 65.60709540486616,160 L 65.63370451700878,160 L 65.66545626563958,160 L 67.15312961683775,160 L 67.1811722165032,160 L 67.21281645356979,160 L 68.7022279083894,160 L 68.72484117406212,160 L 68.76021247868808,160 L 70.25333308247302,160 L 70.28426057577819,160 L 70.32058156588802,160 L 71.80363191982505,160 L 71.83024103196766,160 L 71.86213612935074,160 L 73.34948694585628,133.3106960950764 L 73.37537931423748,133.3106960950764 L 73.40868998054937,133.3106960950764 L 74.89444604218575,133.3106960950764 L 74.92019506181467,133.3106960950764 L 74.95549469206449,133.3106960950764 L 76.4350509201646,133.3106960950764 L 76.47020720166213,133.3106960950764 L 76.50586520379265,133.3106960950764 L 77.99221257903221,133.3106960950764 L 78.01421661250771,133.3106960950764 L 78.047222662721,133.3106960950764 L 79.53985946446699,133.3106960950764 L 79.56582350722434,133.3106960950764 L 79.59951046401096,133.3106960950764 L 81.08272208529431,133.3106960950764 L 81.12219674795438,133.3106960950764 L 81.15568660020661,133.3106960950764 L 82.63690925755202,133.3106960950764 L 82.66952109869652,133.3106960950764 L 82.702634660474,133.3106960950764 L 84.18835488492232,133.3106960950764 L 84.21835061133764,133.3106960950764 L 84.25110580123442,133.3106960950764 L 85.73299144655914,133.3106960950764 L 85.76390102127027,133.3106960950764 L 85.79588571162353,133.3106960950764 L 87.27958113494583,133.3106960950764 L 87.31061613981521,133.3106960950764 L 87.3450915147394,133.3106960950764 L 88.83054296027717,133.3106960950764 L 88.86573507896276,133.3106960950764 L 88.89965497747185,133.3106960950764 L 90.37772396226703,133.3106960950764 L 90.4076480143062,133.3106960950764 L 90.43529640490289,133.3106960950764 L 91.93035221684366,133.3106960950764 L 91.96213980266253,133.3106960950764 L 91.9971168982197,133.3106960950764 L 93.47407493018468,133.3106960950764 L 93.50613129491408,133.3106960950764 L 93.5426493895583,133.3106960950764 L 95.02268941969737,133.3106960950764 L 95.05275682048884,133.3106960950764 L 95.08578078929615,133.3106960950764 L 96.5715726881206,133.3106960950764 L 96.5987731138664,133.3106960950764 L 96.63455654615517,133.3106960950764 L 98.12056346810805,133.3106960950764 L 98.14962742763352,133.3106960950764 L 98.17942604951446,133.3106960950764 L 99.67016348029269,133.3106960950764 L 99.69517783756616,133.3106960950764 L 99.72755673698819,133.3106960950764 L 101.213527821753,133.3106960950764 L 101.23735955182013,133.3106960950764 L 101.26518712835717,133.3106960950764 L 102.76484801896505,133.3106960950764 L 102.79222763065118,133.3106960950764 L 102.82849486497892,133.3106960950764 L 104.31219028830122,133.3106960950764 L 104.34016121359055,133.3106960950764 L 104.37440364679226,133.3106960950764 L 105.85478413021801,133.3106960950764 L 105.88042563828272,133.3106960950764 L 105.91427386241566,133.3106960950764 L 107.3996536335773,133.3106960950764 L 107.43239090488004,133.3106960950764 L 107.46507442040068,133.3106960950764 L 108.95394831739922,133.3106960950764 L 108.97991236015658,133.3106960950764 L 109.01118030674841,133.3106960950764 L 110.50331538786142,133.3106960950764 L 110.52931526780684,133.3106960950764 L 110.56070864455693,133.3106960950764 L 112.04818489122071,133.3106960950764 L 112.07782224575531,133.3106960950764 L 112.10905435515909,133.3106960950764 L 113.60133278502437,133.3106960950764 L 113.62953665203614,133.3106960950764 L 113.66299066710029,133.3106960950764 L 115.1505206695462,133.3106960950764 L 115.17632344495722,133.3106960950764 L 115.21253692350284,133.3106960950764 L 116.694135871323,133.3106960950764 L 116.7196698678235,133.3106960950764 L 116.75027482643603,133.3106960950764 L 118.2419977798862,133.3106960950764 L 118.2677826367032,133.3106960950764 L 118.29894307173082,133.3106960950764 L 119.79186657098138,133.3106960950764 L 119.81333304663583,133.3106960950764 L 119.84409927259469,133.3106960950764 L 121.33990766548494,133.3106960950764 L 121.36495785994649,133.3106960950764 L 121.38572551043356,133.3106960950764 L 122.88599563323864,133.3106960950764 L 122.90986320049385,133.3106960950764 L 122.94005603144355,133.3106960950764 L 124.43027382299476,133.3106960950764 L 124.46616476684774,133.3106960950764 L 124.49868701502206,133.3106960950764 L 125.98503439026162,133.3106960950764 L 126.01169725818633,133.3106960950764 L 126.0429293675901,133.3106960950764 L 127.53352344961606,133.3106960950764 L 127.55959500393762,133.3106960950764 L 127.58477062855741,133.3106960950764 L 129.0833743221172,133.3106960950764 L 129.1057367274734,133.3106960950764 L 129.1317724446069,133.3106960950764 L 130.6272403842105,133.3106960950764 L 130.65273854352293,133.3106960950764 L 130.68144413116772,133.3106960950764 L 132.17789759344325,133.3106960950764 L 132.20011665004716,133.3106960950764 L 132.23090079460007,133.3106960950764 L 133.71502626417922,133.3106960950764 L 133.74862362799564,133.3106960950764 L 133.77956903989485,133.3106960950764 L 135.27462485183565,133.3106960950764 L 135.30336627666847,133.3106960950764 L 135.33257358494626,133.3106960950764 L 136.82366938760518,133.3106960950764 L 136.8536113582384,133.3106960950764 L 136.88729831502502,133.3106960950764 L 138.36692621750126,133.3106960950764 L 138.39206600493299,133.3106960950764 L 138.4208432669539,133.3106960950764 L 139.91546903263782,133.3106960950764 L 139.93417604481084,133.3106960950764 L 139.96709250205393,133.3106960950764 L 141.4647285915358,133.3106960950764 L 141.48732393861448,133.3106960950764 L 141.51805432738527,133.3106960950764 L 143.01456154544292,133.3106960950764 L 143.03719272970966,133.3106960950764 L 143.06408853935687,133.3106960950764 L 144.56012987396957,40 L 144.58308359292897,40 L 144.61254176152323,40 L 146.1097836419363,40 L 146.13359745340944,40 L 146.16680060815708,40 L 147.64909838114465,40 L 147.68242696605054,40 L 147.71505672578905,40 L 149.2067617606452,40 L 149.22426822701783,40 L 149.2541206046809,40 L 150.7521329846375,40 L 150.77662770268392,40 L 150.80884533475967,40 L 152.29399216419884,40 L 152.3261381218984,40 L 152.3548616281372,40 L 153.84903942897023,40 L 153.87432256515424,40 L 153.90207846731516,40 L 155.3950019665657,40 L 155.41980130071073,40 L 155.44486941376633,40 L 155.4845949367429,40 L 156.94875909256658,40 L 156.9749202398583,40 L 157.00212066560408,40 L 158.49586842018027,40 L 158.52195789309587,40 L 158.55046637620626,40 L 160.04324652670454,40 L 160.06725744271202,40 L 160.0946549729922,40 L 161.58686172848135,40 L 161.6157106648784,40 L 163.14590483972265,40 L 163.1634292246893,40 L 163.19123888263232,40 L 164.68636636894925,40 L 164.71104027293603,40 L 164.74153771998434,40 L 166.23415660313628,40 L 166.25823919351993,40 L 166.28531418910748,40 L 167.78502883549746,40 L 167.81086744809656,40 L 167.8432463475186,40 L 169.33480803362247,40 L 169.36265352875353,40 L 169.38935223386633,40 L 170.88555483582536,40 L 170.90268501172324,40 L 170.93169521546662,40 L 172.42834578227655,40 L 172.45074402482084,40 L 172.47643928866768,40 L 173.9761897722457,40 L 173.99706493429701,40 L 174.0287270899576,40 L 175.52367539033418,40 L 175.54657535351146,40 L 175.5764277311745,40 L 177.06888534698015,40 L 177.09094313623777,40 L 177.12342954722402,40 L 178.61608426756405,40 L 178.64846316698606,40 L 178.68152297298147,40 L 180.16950094027823,40 L 180.19327891456325,40 L 180.2231850480084,40 L 181.71727325587125,40 L 181.7407107768696,40 L 181.77061691031474,40 L 183.2661744428885,40 L 183.2969585874414,40 L 183.33333333333334,40" fill="none" stroke="none"/>
  </g>
  <!-- 📊 Total Contributions Chart -->
  <g transform="translate(526.6666666666667, 250)">
    <!-- Chart Background -->
    <rect x="0" y="0" width="213.33333333333334" height="200" fill="#0f172a" stroke="#334155" stroke-width="1" rx="8" filter="url(#shadow)">
      <animate attributeName="opacity" values="0;1" dur="0.5s" begin="2.8s" fill="freeze"/>
    </rect>
    
    <!-- Chart Title -->
    <text x="106.66666666666667" y="25" text-anchor="middle" fill="#f8fafc" font-size="14" font-weight="bold" font-family="Arial, sans-serif">
      📊 Total Contributions
      <animate attributeName="opacity" values="0;1" dur="0.5s" begin="3s" fill="freeze"/>
    </text>
    
    <!-- Y-axis labels -->
    <text x="10" y="45" fill="#94a3b8" font-size="10" font-family="Arial, sans-serif">3,802
      <animate attributeName="opacity" values="0;1" dur="0.5s" begin="3.1999999999999997s" fill="freeze"/>
    </text>
    <text x="10" y="185" fill="#94a3b8" font-size="10" font-family="Arial, sans-serif">2,320
      <animate attributeName="opacity" values="0;1" dur="0.5s" begin="3.1999999999999997s" fill="freeze"/>
    </text>
    
    <!-- Chart Line with draw animation that follows the circle -->
    <path d="M 30,160 L 30.022882044583255,160 L 30.050763376902395,160 L 31.546715118544938,160 L 31.57522360165532,160 L 31.603839596329912,160 L 33.092892679268815,160 L 33.1203439653311,160 L 33.15177317926926,160 L 34.63950028624954,160 L 34.66537473603671,160 L 34.70017264565353,160 L 36.183240918184595,160 L 36.21432967883608,160 L 36.24532884651739,160 L 37.740008367983414,160 L 37.76969947830013,160 L 37.802974307423945,160 L 39.290540147057904,160 L 39.31550074854927,160 L 39.348936845019395,160 L 40.83524838307087,160 L 40.869222037362064,160 L 40.905023388244864,160 L 42.38368368664321,160 L 42.4094147876781,160 L 42.441112780526794,160 L 43.93460967478648,160 L 43.95679289420235,160 L 43.989153875030354,160 L 45.47847573687979,160 L 45.504869825893984,160 L 45.536155691079856,160 L 47.026068866532455,160 L 47.052660060081045,160 L 47.083641309168314,160 L 48.578804632673304,160 L 48.6060050584191,160 L 48.64186016508401,160 L 50.12467757729858,160 L 50.15795240642238,160 L 50.17972349817544,160 L 51.67157188178386,160 L 51.69784054063982,160 L 51.730416544596245,160 L 53.21445242120522,160 L 53.24971621426697,160 L 53.28005239396896,160 L 54.769553441758745,160 L 54.796646355940325,160 L 54.82864896488762,160 L 56.319153453943386,160 L 56.34570881030391,160 L 56.3746294210771,160 L 57.867230385635025,160 L 57.894430811380815,160 L 57.922993050273305,160 L 59.414608492159275,160 L 59.446646938294634,160 L 59.47961715131984,160 L 60.962380807752304,160 L 60.99201816228691,160 L 61.02543634016301,160 L 62.50187473290096,160 L 62.54151066290735,160 L 62.5739970738936,160 L 64.05862426410575,160 L 64.08702523565191,160 L 64.11789897317497,160 L 65.60709540486616,160 L 65.63370451700878,160 L 65.66545626563958,160 L 67.15312961683775,160 L 67.1811722165032,160 L 67.21281645356979,160 L 68.7022279083894,160 L 68.72484117406212,160 L 68.76021247868808,160 L 70.25333308247302,160 L 70.28426057577819,160 L 70.32058156588802,160 L 71.80363191982505,160 L 71.83024103196766,160 L 71.86213612935074,160 L 73.34948694585628,137.48987854251013 L 73.37537931423748,137.48987854251013 L 73.40868998054937,137.48987854251013 L 74.89444604218575,137.48987854251013 L 74.92019506181467,137.48987854251013 L 74.95549469206449,137.48987854251013 L 76.4350509201646,137.48987854251013 L 76.47020720166213,137.48987854251013 L 76.50586520379265,137.48987854251013 L 77.99221257903221,137.48987854251013 L 78.01421661250771,137.48987854251013 L 78.047222662721,137.48987854251013 L 79.53985946446699,137.48987854251013 L 79.56582350722434,137.48987854251013 L 79.59951046401096,137.48987854251013 L 81.08272208529431,137.48987854251013 L 81.12219674795438,137.48987854251013 L 81.15568660020661,137.48987854251013 L 82.63690925755202,137.48987854251013 L 82.66952109869652,137.48987854251013 L 82.702634660474,137.48987854251013 L 84.18835488492232,137.48987854251013 L 84.21835061133764,137.48987854251013 L 84.25110580123442,137.48987854251013 L 85.73299144655914,137.48987854251013 L 85.76390102127027,137.48987854251013 L 85.79588571162353,137.48987854251013 L 87.27958113494583,137.48987854251013 L 87.31061613981521,137.48987854251013 L 87.3450915147394,137.48987854251013 L 88.83054296027717,137.48987854251013 L 88.86573507896276,137.48987854251013 L 88.89965497747185,137.48987854251013 L 90.37772396226703,137.48987854251013 L 90.4076480143062,137.48987854251013 L 90.43529640490289,137.48987854251013 L 91.93035221684366,137.48987854251013 L 91.96213980266253,137.48987854251013 L 91.9971168982197,137.48987854251013 L 93.47407493018468,137.48987854251013 L 93.50613129491408,137.48987854251013 L 93.5426493895583,137.48987854251013 L 95.02268941969737,137.48987854251013 L 95.05275682048884,137.48987854251013 L 95.08578078929615,137.48987854251013 L 96.5715726881206,137.48987854251013 L 96.5987731138664,137.48987854251013 L 96.63455654615517,137.48987854251013 L 98.12056346810805,137.48987854251013 L 98.14962742763352,137.48987854251013 L 98.17942604951446,137.48987854251013 L 99.67016348029269,137.48987854251013 L 99.69517783756616,137.48987854251013 L 99.72755673698819,137.48987854251013 L 101.213527821753,137.48987854251013 L 101.23735955182013,137.48987854251013 L 101.26518712835717,137.48987854251013 L 102.76484801896505,137.48987854251013 L 102.79222763065118,137.48987854251013 L 102.82849486497892,137.48987854251013 L 104.31219028830122,137.48987854251013 L 104.34016121359055,137.48987854251013 L 104.37440364679226,137.48987854251013 L 105.85478413021801,137.48987854251013 L 105.88042563828272,137.48987854251013 L 105.91427386241566,137.48987854251013 L 107.3996536335773,137.48987854251013 L 107.43239090488004,137.48987854251013 L 107.46507442040068,137.48987854251013 L 108.95394831739922,137.48987854251013 L 108.97991236015658,137.48987854251013 L 109.01118030674841,137.48987854251013 L 110.50331538786142,137.48987854251013 L 110.52931526780684,137.48987854251013 L 110.56070864455693,137.48987854251013 L 112.04818489122071,137.48987854251013 L 112.07782224575531,137.48987854251013 L 112.10905435515909,137.48987854251013 L 113.60133278502437,137.48987854251013 L 113.62953665203614,137.48987854251013 L 113.66299066710029,137.48987854251013 L 115.1505206695462,137.48987854251013 L 115.17632344495722,137.48987854251013 L 115.21253692350284,137.48987854251013 L 116.694135871323,137.48987854251013 L 116.7196698678235,137.48987854251013 L 116.75027482643603,137.48987854251013 L 118.2419977798862,137.48987854251013 L 118.2677826367032,137.48987854251013 L 118.29894307173082,137.48987854251013 L 119.79186657098138,137.48987854251013 L 119.81333304663583,137.48987854251013 L 119.84409927259469,137.48987854251013 L 121.33990766548494,137.48987854251013 L 121.36495785994649,137.48987854251013 L 121.38572551043356,137.48987854251013 L 122.88599563323864,137.48987854251013 L 122.90986320049385,137.48987854251013 L 122.94005603144355,137.48987854251013 L 124.43027382299476,137.48987854251013 L 124.46616476684774,137.48987854251013 L 124.49868701502206,137.48987854251013 L 125.98503439026162,137.48987854251013 L 126.01169725818633,137.48987854251013 L 126.0429293675901,137.48987854251013 L 127.53352344961606,137.48987854251013 L 127.55959500393762,137.48987854251013 L 127.58477062855741,137.48987854251013 L 129.0833743221172,137.48987854251013 L 129.1057367274734,137.48987854251013 L 129.1317724446069,137.48987854251013 L 130.6272403842105,137.48987854251013 L 130.65273854352293,137.48987854251013 L 130.68144413116772,137.48987854251013 L 132.17789759344325,137.48987854251013 L 132.20011665004716,137.48987854251013 L 132.23090079460007,137.48987854251013 L 133.71502626417922,137.48987854251013 L 133.74862362799564,137.48987854251013 L 133.77956903989485,137.48987854251013 L 135.27462485183565,137.48987854251013 L 135.30336627666847,137.48987854251013 L 135.33257358494626,137.48987854251013 L 136.82366938760518,137.48987854251013 L 136.8536113582384,137.48987854251013 L 136.88729831502502,137.48987854251013 L 138.36692621750126,137.48987854251013 L 138.39206600493299,137.48987854251013 L 138.4208432669539,137.48987854251013 L 139.91546903263782,137.48987854251013 L 139.93417604481084,137.48987854251013 L 139.96709250205393,137.48987854251013 L 141.4647285915358,137.48987854251013 L 141.48732393861448,137.48987854251013 L 141.51805432738527,137.48987854251013 L 143.01456154544292,137.48987854251013 L 143.03719272970966,137.48987854251013 L 143.06408853935687,137.48987854251013 L 144.56012987396957,40 L 144.58308359292897,40 L 144.61254176152323,40 L 146.1097836419363,40 L 146.13359745340944,40 L 146.16680060815708,40 L 147.64909838114465,40 L 147.68242696605054,40 L 147.71505672578905,40 L 149.2067617606452,40 L 149.22426822701783,40 L 149.2541206046809,40 L 150.7521329846375,40 L 150.77662770268392,40 L 150.80884533475967,40 L 152.29399216419884,40 L 152.3261381218984,40 L 152.3548616281372,40 L 153.84903942897023,40 L 153.87432256515424,40 L 153.90207846731516,40 L 155.3950019665657,40 L 155.41980130071073,40 L 155.44486941376633,40 L 155.4845949367429,40 L 156.94875909256658,40 L 156.9749202398583,40 L 157.00212066560408,40 L 158.49586842018027,40 L 158.52195789309587,40 L 158.55046637620626,40 L 160.04324652670454,40 L 160.06725744271202,40 L 160.0946549729922,40 L 161.58686172848135,40 L 161.6157106648784,40 L 163.14590483972265,40 L 163.1634292246893,40 L 163.19123888263232,40 L 164.68636636894925,40 L 164.71104027293603,40 L 164.74153771998434,40 L 166.23415660313628,40 L 166.25823919351993,40 L 166.28531418910748,40 L 167.78502883549746,40 L 167.81086744809656,40 L 167.8432463475186,40 L 169.33480803362247,40 L 169.36265352875353,40 L 169.38935223386633,40 L 170.88555483582536,40 L 170.90268501172324,40 L 170.93169521546662,40 L 172.42834578227655,40 L 172.45074402482084,40 L 172.47643928866768,40 L 173.9761897722457,40 L 173.99706493429701,40 L 174.0287270899576,40 L 175.52367539033418,40 L 175.54657535351146,40 L 175.5764277311745,40 L 177.06888534698015,40 L 177.09094313623777,40 L 177.12342954722402,40 L 178.61608426756405,40 L 178.64846316698606,40 L 178.68152297298147,40 L 180.16950094027823,40 L 180.19327891456325,40 L 180.2231850480084,40 L 181.71727325587125,40 L 181.7407107768696,40 L 181.77061691031474,40 L 183.2661744428885,40 L 183.2969585874414,40 L 183.33333333333334,40" stroke="#f59e0b" stroke-width="2" fill="none" stroke-dasharray="15000" stroke-dashoffset="15000">
      <animate attributeName="stroke-dashoffset" values="15000;0" dur="3s" begin="3.5999999999999996s" fill="freeze"/>
    </path>
    
    <!-- Glow effect for the line that also follows the circle -->
    <path d="M 30,160 L 30.022882044583255,160 L 30.050763376902395,160 L 31.546715118544938,160 L 31.57522360165532,160 L 31.603839596329912,160 L 33.092892679268815,160 L 33.1203439653311,160 L 33.15177317926926,160 L 34.63950028624954,160 L 34.66537473603671,160 L 34.70017264565353,160 L 36.183240918184595,160 L 36.21432967883608,160 L 36.24532884651739,160 L 37.740008367983414,160 L 37.76969947830013,160 L 37.802974307423945,160 L 39.290540147057904,160 L 39.31550074854927,160 L 39.348936845019395,160 L 40.83524838307087,160 L 40.869222037362064,160 L 40.905023388244864,160 L 42.38368368664321,160 L 42.4094147876781,160 L 42.441112780526794,160 L 43.93460967478648,160 L 43.95679289420235,160 L 43.989153875030354,160 L 45.47847573687979,160 L 45.504869825893984,160 L 45.536155691079856,160 L 47.026068866532455,160 L 47.052660060081045,160 L 47.083641309168314,160 L 48.578804632673304,160 L 48.6060050584191,160 L 48.64186016508401,160 L 50.12467757729858,160 L 50.15795240642238,160 L 50.17972349817544,160 L 51.67157188178386,160 L 51.69784054063982,160 L 51.730416544596245,160 L 53.21445242120522,160 L 53.24971621426697,160 L 53.28005239396896,160 L 54.769553441758745,160 L 54.796646355940325,160 L 54.82864896488762,160 L 56.319153453943386,160 L 56.34570881030391,160 L 56.3746294210771,160 L 57.867230385635025,160 L 57.894430811380815,160 L 57.922993050273305,160 L 59.414608492159275,160 L 59.446646938294634,160 L 59.47961715131984,160 L 60.962380807752304,160 L 60.99201816228691,160 L 61.02543634016301,160 L 62.50187473290096,160 L 62.54151066290735,160 L 62.5739970738936,160 L 64.05862426410575,160 L 64.08702523565191,160 L 64.11789897317497,160 L 65.60709540486616,160 L 65.63370451700878,160 L 65.66545626563958,160 L 67.15312961683775,160 L 67.1811722165032,160 L 67.21281645356979,160 L 68.7022279083894,160 L 68.72484117406212,160 L 68.76021247868808,160 L 70.25333308247302,160 L 70.28426057577819,160 L 70.32058156588802,160 L 71.80363191982505,160 L 71.83024103196766,160 L 71.86213612935074,160 L 73.34948694585628,137.48987854251013 L 73.37537931423748,137.48987854251013 L 73.40868998054937,137.48987854251013 L 74.89444604218575,137.48987854251013 L 74.92019506181467,137.48987854251013 L 74.95549469206449,137.48987854251013 L 76.4350509201646,137.48987854251013 L 76.47020720166213,137.48987854251013 L 76.50586520379265,137.48987854251013 L 77.99221257903221,137.48987854251013 L 78.01421661250771,137.48987854251013 L 78.047222662721,137.48987854251013 L 79.53985946446699,137.48987854251013 L 79.56582350722434,137.48987854251013 L 79.59951046401096,137.48987854251013 L 81.08272208529431,137.48987854251013 L 81.12219674795438,137.48987854251013 L 81.15568660020661,137.48987854251013 L 82.63690925755202,137.48987854251013 L 82.66952109869652,137.48987854251013 L 82.702634660474,137.48987854251013 L 84.18835488492232,137.48987854251013 L 84.21835061133764,137.48987854251013 L 84.25110580123442,137.48987854251013 L 85.73299144655914,137.48987854251013 L 85.76390102127027,137.48987854251013 L 85.79588571162353,137.48987854251013 L 87.27958113494583,137.48987854251013 L 87.31061613981521,137.48987854251013 L 87.3450915147394,137.48987854251013 L 88.83054296027717,137.48987854251013 L 88.86573507896276,137.48987854251013 L 88.89965497747185,137.48987854251013 L 90.37772396226703,137.48987854251013 L 90.4076480143062,137.48987854251013 L 90.43529640490289,137.48987854251013 L 91.93035221684366,137.48987854251013 L 91.96213980266253,137.48987854251013 L 91.9971168982197,137.48987854251013 L 93.47407493018468,137.48987854251013 L 93.50613129491408,137.48987854251013 L 93.5426493895583,137.48987854251013 L 95.02268941969737,137.48987854251013 L 95.05275682048884,137.48987854251013 L 95.08578078929615,137.48987854251013 L 96.5715726881206,137.48987854251013 L 96.5987731138664,137.48987854251013 L 96.63455654615517,137.48987854251013 L 98.12056346810805,137.48987854251013 L 98.14962742763352,137.48987854251013 L 98.17942604951446,137.48987854251013 L 99.67016348029269,137.48987854251013 L 99.69517783756616,137.48987854251013 L 99.72755673698819,137.48987854251013 L 101.213527821753,137.48987854251013 L 101.23735955182013,137.48987854251013 L 101.26518712835717,137.48987854251013 L 102.76484801896505,137.48987854251013 L 102.79222763065118,137.48987854251013 L 102.82849486497892,137.48987854251013 L 104.31219028830122,137.48987854251013 L 104.34016121359055,137.48987854251013 L 104.37440364679226,137.48987854251013 L 105.85478413021801,137.48987854251013 L 105.88042563828272,137.48987854251013 L 105.91427386241566,137.48987854251013 L 107.3996536335773,137.48987854251013 L 107.43239090488004,137.48987854251013 L 107.46507442040068,137.48987854251013 L 108.95394831739922,137.48987854251013 L 108.97991236015658,137.48987854251013 L 109.01118030674841,137.48987854251013 L 110.50331538786142,137.48987854251013 L 110.52931526780684,137.48987854251013 L 110.56070864455693,137.48987854251013 L 112.04818489122071,137.48987854251013 L 112.07782224575531,137.48987854251013 L 112.10905435515909,137.48987854251013 L 113.60133278502437,137.48987854251013 L 113.62953665203614,137.48987854251013 L 113.66299066710029,137.48987854251013 L 115.1505206695462,137.48987854251013 L 115.17632344495722,137.48987854251013 L 115.21253692350284,137.48987854251013 L 116.694135871323,137.48987854251013 L 116.7196698678235,137.48987854251013 L 116.75027482643603,137.48987854251013 L 118.2419977798862,137.48987854251013 L 118.2677826367032,137.48987854251013 L 118.29894307173082,137.48987854251013 L 119.79186657098138,137.48987854251013 L 119.81333304663583,137.48987854251013 L 119.84409927259469,137.48987854251013 L 121.33990766548494,137.48987854251013 L 121.36495785994649,137.48987854251013 L 121.38572551043356,137.48987854251013 L 122.88599563323864,137.48987854251013 L 122.90986320049385,137.48987854251013 L 122.94005603144355,137.48987854251013 L 124.43027382299476,137.48987854251013 L 124.46616476684774,137.48987854251013 L 124.49868701502206,137.48987854251013 L 125.98503439026162,137.48987854251013 L 126.01169725818633,137.48987854251013 L 126.0429293675901,137.48987854251013 L 127.53352344961606,137.48987854251013 L 127.55959500393762,137.48987854251013 L 127.58477062855741,137.48987854251013 L 129.0833743221172,137.48987854251013 L 129.1057367274734,137.48987854251013 L 129.1317724446069,137.48987854251013 L 130.6272403842105,137.48987854251013 L 130.65273854352293,137.48987854251013 L 130.68144413116772,137.48987854251013 L 132.17789759344325,137.48987854251013 L 132.20011665004716,137.48987854251013 L 132.23090079460007,137.48987854251013 L 133.71502626417922,137.48987854251013 L 133.74862362799564,137.48987854251013 L 133.77956903989485,137.48987854251013 L 135.27462485183565,137.48987854251013 L 135.30336627666847,137.48987854251013 L 135.33257358494626,137.48987854251013 L 136.82366938760518,137.48987854251013 L 136.8536113582384,137.48987854251013 L 136.88729831502502,137.48987854251013 L 138.36692621750126,137.48987854251013 L 138.39206600493299,137.48987854251013 L 138.4208432669539,137.48987854251013 L 139.91546903263782,137.48987854251013 L 139.93417604481084,137.48987854251013 L 139.96709250205393,137.48987854251013 L 141.4647285915358,137.48987854251013 L 141.48732393861448,137.48987854251013 L 141.51805432738527,137.48987854251013 L 143.01456154544292,137.48987854251013 L 143.03719272970966,137.48987854251013 L 143.06408853935687,137.48987854251013 L 144.56012987396957,40 L 144.58308359292897,40 L 144.61254176152323,40 L 146.1097836419363,40 L 146.13359745340944,40 L 146.16680060815708,40 L 147.64909838114465,40 L 147.68242696605054,40 L 147.71505672578905,40 L 149.2067617606452,40 L 149.22426822701783,40 L 149.2541206046809,40 L 150.7521329846375,40 L 150.77662770268392,40 L 150.80884533475967,40 L 152.29399216419884,40 L 152.3261381218984,40 L 152.3548616281372,40 L 153.84903942897023,40 L 153.87432256515424,40 L 153.90207846731516,40 L 155.3950019665657,40 L 155.41980130071073,40 L 155.44486941376633,40 L 155.4845949367429,40 L 156.94875909256658,40 L 156.9749202398583,40 L 157.00212066560408,40 L 158.49586842018027,40 L 158.52195789309587,40 L 158.55046637620626,40 L 160.04324652670454,40 L 160.06725744271202,40 L 160.0946549729922,40 L 161.58686172848135,40 L 161.6157106648784,40 L 163.14590483972265,40 L 163.1634292246893,40 L 163.19123888263232,40 L 164.68636636894925,40 L 164.71104027293603,40 L 164.74153771998434,40 L 166.23415660313628,40 L 166.25823919351993,40 L 166.28531418910748,40 L 167.78502883549746,40 L 167.81086744809656,40 L 167.8432463475186,40 L 169.33480803362247,40 L 169.36265352875353,40 L 169.38935223386633,40 L 170.88555483582536,40 L 170.90268501172324,40 L 170.93169521546662,40 L 172.42834578227655,40 L 172.45074402482084,40 L 172.47643928866768,40 L 173.9761897722457,40 L 173.99706493429701,40 L 174.0287270899576,40 L 175.52367539033418,40 L 175.54657535351146,40 L 175.5764277311745,40 L 177.06888534698015,40 L 177.09094313623777,40 L 177.12342954722402,40 L 178.61608426756405,40 L 178.64846316698606,40 L 178.68152297298147,40 L 180.16950094027823,40 L 180.19327891456325,40 L 180.2231850480084,40 L 181.71727325587125,40 L 181.7407107768696,40 L 181.77061691031474,40 L 183.2661744428885,40 L 183.2969585874414,40 L 183.33333333333334,40" stroke="#f59e0b" stroke-width="4" fill="none" opacity="0.4" stroke-dasharray="15000" stroke-dashoffset="15000">
      <animate attributeName="stroke-dashoffset" values="15000;0" dur="3s" begin="3.5999999999999996s" fill="freeze"/>
    </path>
    
    <!-- Animated circle that moves along the path and draws the line -->
    <circle r="5" fill="#f59e0b" opacity="0" filter="url(#trailGlow)">
      <animate attributeName="opacity" values="0;1;1;1" dur="3.2s" begin="3.4s" fill="freeze"/>
      <animate attributeName="r" values="5;6;5" dur="1s" begin="3.4s" repeatCount="3"/>
      <animateMotion dur="3s" begin="3.4s" fill="freeze">
        <mpath href="#path_totalContributions_526.6666666666667"/>
      </animateMotion>
    </circle>
    
    <!-- Small trail dots that fade out -->
    <circle r="2" fill="#f59e0b" opacity="0">
      <animate attributeName="opacity" values="0;0.6;0" dur="0.8s" begin="3.8s" fill="freeze"/>
      <animateMotion dur="3s" begin="3.4s" fill="freeze">
        <mpath href="#path_totalContributions_526.6666666666667"/>
      </animateMotion>
    </circle>
    
    <!-- Hidden path for motion animation -->
    <path id="path_totalContributions_526.6666666666667" d="M 30,160 L 30.022882044583255,160 L 30.050763376902395,160 L 31.546715118544938,160 L 31.57522360165532,160 L 31.603839596329912,160 L 33.092892679268815,160 L 33.1203439653311,160 L 33.15177317926926,160 L 34.63950028624954,160 L 34.66537473603671,160 L 34.70017264565353,160 L 36.183240918184595,160 L 36.21432967883608,160 L 36.24532884651739,160 L 37.740008367983414,160 L 37.76969947830013,160 L 37.802974307423945,160 L 39.290540147057904,160 L 39.31550074854927,160 L 39.348936845019395,160 L 40.83524838307087,160 L 40.869222037362064,160 L 40.905023388244864,160 L 42.38368368664321,160 L 42.4094147876781,160 L 42.441112780526794,160 L 43.93460967478648,160 L 43.95679289420235,160 L 43.989153875030354,160 L 45.47847573687979,160 L 45.504869825893984,160 L 45.536155691079856,160 L 47.026068866532455,160 L 47.052660060081045,160 L 47.083641309168314,160 L 48.578804632673304,160 L 48.6060050584191,160 L 48.64186016508401,160 L 50.12467757729858,160 L 50.15795240642238,160 L 50.17972349817544,160 L 51.67157188178386,160 L 51.69784054063982,160 L 51.730416544596245,160 L 53.21445242120522,160 L 53.24971621426697,160 L 53.28005239396896,160 L 54.769553441758745,160 L 54.796646355940325,160 L 54.82864896488762,160 L 56.319153453943386,160 L 56.34570881030391,160 L 56.3746294210771,160 L 57.867230385635025,160 L 57.894430811380815,160 L 57.922993050273305,160 L 59.414608492159275,160 L 59.446646938294634,160 L 59.47961715131984,160 L 60.962380807752304,160 L 60.99201816228691,160 L 61.02543634016301,160 L 62.50187473290096,160 L 62.54151066290735,160 L 62.5739970738936,160 L 64.05862426410575,160 L 64.08702523565191,160 L 64.11789897317497,160 L 65.60709540486616,160 L 65.63370451700878,160 L 65.66545626563958,160 L 67.15312961683775,160 L 67.1811722165032,160 L 67.21281645356979,160 L 68.7022279083894,160 L 68.72484117406212,160 L 68.76021247868808,160 L 70.25333308247302,160 L 70.28426057577819,160 L 70.32058156588802,160 L 71.80363191982505,160 L 71.83024103196766,160 L 71.86213612935074,160 L 73.34948694585628,137.48987854251013 L 73.37537931423748,137.48987854251013 L 73.40868998054937,137.48987854251013 L 74.89444604218575,137.48987854251013 L 74.92019506181467,137.48987854251013 L 74.95549469206449,137.48987854251013 L 76.4350509201646,137.48987854251013 L 76.47020720166213,137.48987854251013 L 76.50586520379265,137.48987854251013 L 77.99221257903221,137.48987854251013 L 78.01421661250771,137.48987854251013 L 78.047222662721,137.48987854251013 L 79.53985946446699,137.48987854251013 L 79.56582350722434,137.48987854251013 L 79.59951046401096,137.48987854251013 L 81.08272208529431,137.48987854251013 L 81.12219674795438,137.48987854251013 L 81.15568660020661,137.48987854251013 L 82.63690925755202,137.48987854251013 L 82.66952109869652,137.48987854251013 L 82.702634660474,137.48987854251013 L 84.18835488492232,137.48987854251013 L 84.21835061133764,137.48987854251013 L 84.25110580123442,137.48987854251013 L 85.73299144655914,137.48987854251013 L 85.76390102127027,137.48987854251013 L 85.79588571162353,137.48987854251013 L 87.27958113494583,137.48987854251013 L 87.31061613981521,137.48987854251013 L 87.3450915147394,137.48987854251013 L 88.83054296027717,137.48987854251013 L 88.86573507896276,137.48987854251013 L 88.89965497747185,137.48987854251013 L 90.37772396226703,137.48987854251013 L 90.4076480143062,137.48987854251013 L 90.43529640490289,137.48987854251013 L 91.93035221684366,137.48987854251013 L 91.96213980266253,137.48987854251013 L 91.9971168982197,137.48987854251013 L 93.47407493018468,137.48987854251013 L 93.50613129491408,137.48987854251013 L 93.5426493895583,137.48987854251013 L 95.02268941969737,137.48987854251013 L 95.05275682048884,137.48987854251013 L 95.08578078929615,137.48987854251013 L 96.5715726881206,137.48987854251013 L 96.5987731138664,137.48987854251013 L 96.63455654615517,137.48987854251013 L 98.12056346810805,137.48987854251013 L 98.14962742763352,137.48987854251013 L 98.17942604951446,137.48987854251013 L 99.67016348029269,137.48987854251013 L 99.69517783756616,137.48987854251013 L 99.72755673698819,137.48987854251013 L 101.213527821753,137.48987854251013 L 101.23735955182013,137.48987854251013 L 101.26518712835717,137.48987854251013 L 102.76484801896505,137.48987854251013 L 102.79222763065118,137.48987854251013 L 102.82849486497892,137.48987854251013 L 104.31219028830122,137.48987854251013 L 104.34016121359055,137.48987854251013 L 104.37440364679226,137.48987854251013 L 105.85478413021801,137.48987854251013 L 105.88042563828272,137.48987854251013 L 105.91427386241566,137.48987854251013 L 107.3996536335773,137.48987854251013 L 107.43239090488004,137.48987854251013 L 107.46507442040068,137.48987854251013 L 108.95394831739922,137.48987854251013 L 108.97991236015658,137.48987854251013 L 109.01118030674841,137.48987854251013 L 110.50331538786142,137.48987854251013 L 110.52931526780684,137.48987854251013 L 110.56070864455693,137.48987854251013 L 112.04818489122071,137.48987854251013 L 112.07782224575531,137.48987854251013 L 112.10905435515909,137.48987854251013 L 113.60133278502437,137.48987854251013 L 113.62953665203614,137.48987854251013 L 113.66299066710029,137.48987854251013 L 115.1505206695462,137.48987854251013 L 115.17632344495722,137.48987854251013 L 115.21253692350284,137.48987854251013 L 116.694135871323,137.48987854251013 L 116.7196698678235,137.48987854251013 L 116.75027482643603,137.48987854251013 L 118.2419977798862,137.48987854251013 L 118.2677826367032,137.48987854251013 L 118.29894307173082,137.48987854251013 L 119.79186657098138,137.48987854251013 L 119.81333304663583,137.48987854251013 L 119.84409927259469,137.48987854251013 L 121.33990766548494,137.48987854251013 L 121.36495785994649,137.48987854251013 L 121.38572551043356,137.48987854251013 L 122.88599563323864,137.48987854251013 L 122.90986320049385,137.48987854251013 L 122.94005603144355,137.48987854251013 L 124.43027382299476,137.48987854251013 L 124.46616476684774,137.48987854251013 L 124.49868701502206,137.48987854251013 L 125.98503439026162,137.48987854251013 L 126.01169725818633,137.48987854251013 L 126.0429293675901,137.48987854251013 L 127.53352344961606,137.48987854251013 L 127.55959500393762,137.48987854251013 L 127.58477062855741,137.48987854251013 L 129.0833743221172,137.48987854251013 L 129.1057367274734,137.48987854251013 L 129.1317724446069,137.48987854251013 L 130.6272403842105,137.48987854251013 L 130.65273854352293,137.48987854251013 L 130.68144413116772,137.48987854251013 L 132.17789759344325,137.48987854251013 L 132.20011665004716,137.48987854251013 L 132.23090079460007,137.48987854251013 L 133.71502626417922,137.48987854251013 L 133.74862362799564,137.48987854251013 L 133.77956903989485,137.48987854251013 L 135.27462485183565,137.48987854251013 L 135.30336627666847,137.48987854251013 L 135.33257358494626,137.48987854251013 L 136.82366938760518,137.48987854251013 L 136.8536113582384,137.48987854251013 L 136.88729831502502,137.48987854251013 L 138.36692621750126,137.48987854251013 L 138.39206600493299,137.48987854251013 L 138.4208432669539,137.48987854251013 L 139.91546903263782,137.48987854251013 L 139.93417604481084,137.48987854251013 L 139.96709250205393,137.48987854251013 L 141.4647285915358,137.48987854251013 L 141.48732393861448,137.48987854251013 L 141.51805432738527,137.48987854251013 L 143.01456154544292,137.48987854251013 L 143.03719272970966,137.48987854251013 L 143.06408853935687,137.48987854251013 L 144.56012987396957,40 L 144.58308359292897,40 L 144.61254176152323,40 L 146.1097836419363,40 L 146.13359745340944,40 L 146.16680060815708,40 L 147.64909838114465,40 L 147.68242696605054,40 L 147.71505672578905,40 L 149.2067617606452,40 L 149.22426822701783,40 L 149.2541206046809,40 L 150.7521329846375,40 L 150.77662770268392,40 L 150.80884533475967,40 L 152.29399216419884,40 L 152.3261381218984,40 L 152.3548616281372,40 L 153.84903942897023,40 L 153.87432256515424,40 L 153.90207846731516,40 L 155.3950019665657,40 L 155.41980130071073,40 L 155.44486941376633,40 L 155.4845949367429,40 L 156.94875909256658,40 L 156.9749202398583,40 L 157.00212066560408,40 L 158.49586842018027,40 L 158.52195789309587,40 L 158.55046637620626,40 L 160.04324652670454,40 L 160.06725744271202,40 L 160.0946549729922,40 L 161.58686172848135,40 L 161.6157106648784,40 L 163.14590483972265,40 L 163.1634292246893,40 L 163.19123888263232,40 L 164.68636636894925,40 L 164.71104027293603,40 L 164.74153771998434,40 L 166.23415660313628,40 L 166.25823919351993,40 L 166.28531418910748,40 L 167.78502883549746,40 L 167.81086744809656,40 L 167.8432463475186,40 L 169.33480803362247,40 L 169.36265352875353,40 L 169.38935223386633,40 L 170.88555483582536,40 L 170.90268501172324,40 L 170.93169521546662,40 L 172.42834578227655,40 L 172.45074402482084,40 L 172.47643928866768,40 L 173.9761897722457,40 L 173.99706493429701,40 L 174.0287270899576,40 L 175.52367539033418,40 L 175.54657535351146,40 L 175.5764277311745,40 L 177.06888534698015,40 L 177.09094313623777,40 L 177.12342954722402,40 L 178.61608426756405,40 L 178.64846316698606,40 L 178.68152297298147,40 L 180.16950094027823,40 L 180.19327891456325,40 L 180.2231850480084,40 L 181.71727325587125,40 L 181.7407107768696,40 L 181.77061691031474,40 L 183.2661744428885,40 L 183.2969585874414,40 L 183.33333333333334,40" fill="none" stroke="none"/>
  </g>
  
  <!-- Footer -->
  <text x="400" y="580" text-anchor="middle" fill="#64748b" font-size="12" font-family="Arial, sans-serif">
    Generated by GitHub User Rank Tracker • 10/1/2025
    <animate attributeName="opacity" values="0;1" dur="0.5s" begin="5s" fill="freeze"/>
  </text>
</svg>