<svg width="800" height="600" xmlns="http://www.w3.org/2000/svg">
  <defs>
    <linearGradient id="bgGradient" x1="0%" y1="0%" x2="100%" y2="100%">
      <stop offset="0%" style="stop-color:#1e293b;stop-opacity:1" />
      <stop offset="100%" style="stop-color:#0f172a;stop-opacity:1" />
    </linearGradient>
    <filter id="shadow" x="-20%" y="-20%" width="140%" height="140%">
      <feDropShadow dx="2" dy="2" stdDeviation="3" flood-color="#000" flood-opacity="0.3"/>
    </filter>
    <!-- Trail effect filter -->
    <filter id="trailGlow" x="-50%" y="-50%" width="200%" height="200%">
      <feGaussianBlur stdDeviation="3" result="coloredBlur"/>
      <feMerge> 
        <feMergeNode in="coloredBlur"/>
        <feMergeNode in="SourceGraphic"/>
      </feMerge>
    </filter>
  </defs>
  
  <!-- Background -->
  <rect width="800" height="600" fill="url(#bgGradient)" rx="12"/>
  
  <!-- Header -->
  <text x="400" y="40" text-anchor="middle" fill="#f8fafc" font-size="24" font-weight="bold" font-family="Arial, sans-serif">
    GitHub Progress Report
    <animate attributeName="opacity" values="0;1" dur="0.8s" begin="0s" fill="freeze"/>
    <animateTransform attributeName="transform" type="translate" values="0,-20;0,0" dur="0.8s" begin="0s" fill="freeze"/>
  </text>
  
  <!-- User Info -->
  <text x="400" y="70" text-anchor="middle" fill="#cbd5e1" font-size="16" font-family="Arial, sans-serif">
    @maifeeulasad • BANGLADESH • 100 days analyzed
    <animate attributeName="opacity" values="0;1" dur="0.6s" begin="0.3s" fill="freeze"/>
  </text>
  
  <!-- Progress Cards -->
  <!-- Followers Card -->
  <g transform="translate(60, 100)">
    <rect width="206.66666666666666" height="120" fill="#1e293b" stroke="#334155" stroke-width="1" rx="8" filter="url(#shadow)">
      <animate attributeName="opacity" values="0;1" dur="0.6s" begin="0.2s" fill="freeze"/>
      <animateTransform attributeName="transform" type="scale" values="0.8;1" dur="0.6s" begin="0.2s" fill="freeze"/>
    </rect>
    <text x="103.33333333333333" y="25" text-anchor="middle" fill="#94a3b8" font-size="14" font-weight="bold" font-family="Arial, sans-serif">FOLLOWERS
      <animate attributeName="opacity" values="0;1" dur="0.5s" begin="0.4s" fill="freeze"/>
    </text>
    
    <text x="103.33333333333333" y="50" text-anchor="middle" fill="#ef4444" font-size="32" font-weight="bold" font-family="Arial, sans-serif">
      ↘
      <animate attributeName="opacity" values="0;1" dur="0.5s" begin="0.6s" fill="freeze"/>
      <animateTransform attributeName="transform" type="scale" values="0;1.2;1" dur="0.8s" begin="0.6s" fill="freeze"/>
    </text>
    
    <text x="103.33333333333333" y="75" text-anchor="middle" fill="#f8fafc" font-size="18" font-weight="bold" font-family="Arial, sans-serif">
      -15
      <animate attributeName="opacity" values="0;1" dur="0.5s" begin="0.8s" fill="freeze"/>
    </text>
    
    <text x="103.33333333333333" y="95" text-anchor="middle" fill="#94a3b8" font-size="12" font-family="Arial, sans-serif">
      #466 → #481
      <animate attributeName="opacity" values="0;1" dur="0.5s" begin="1s" fill="freeze"/>
    </text>
  </g>
  
  <!-- Public Contributions Card -->
  <g transform="translate(296.66666666666663, 100)">
    <rect width="206.66666666666666" height="120" fill="#1e293b" stroke="#334155" stroke-width="1" rx="8" filter="url(#shadow)">
      <animate attributeName="opacity" values="0;1" dur="0.6s" begin="0.4s" fill="freeze"/>
      <animateTransform attributeName="transform" type="scale" values="0.8;1" dur="0.6s" begin="0.4s" fill="freeze"/>
    </rect>
    <text x="103.33333333333333" y="25" text-anchor="middle" fill="#94a3b8" font-size="14" font-weight="bold" font-family="Arial, sans-serif">PUBLIC
      <animate attributeName="opacity" values="0;1" dur="0.5s" begin="0.6s" fill="freeze"/>
    </text>
    
    <text x="103.33333333333333" y="50" text-anchor="middle" fill="#6b7280" font-size="32" font-weight="bold" font-family="Arial, sans-serif">
      →
      <animate attributeName="opacity" values="0;1" dur="0.5s" begin="0.8s" fill="freeze"/>
      <animateTransform attributeName="transform" type="scale" values="0;1.2;1" dur="0.8s" begin="0.8s" fill="freeze"/>
    </text>
    
    <text x="103.33333333333333" y="75" text-anchor="middle" fill="#f8fafc" font-size="18" font-weight="bold" font-family="Arial, sans-serif">
      0
      <animate attributeName="opacity" values="0;1" dur="0.5s" begin="1s" fill="freeze"/>
    </text>
    
    <text x="103.33333333333333" y="95" text-anchor="middle" fill="#94a3b8" font-size="12" font-family="Arial, sans-serif">
      #7 → #7
      <animate attributeName="opacity" values="0;1" dur="0.5s" begin="1.2s" fill="freeze"/>
    </text>
  </g>
  
  <!-- Total Contributions Card -->
  <g transform="translate(533.3333333333333, 100)">
    <rect width="206.66666666666666" height="120" fill="#1e293b" stroke="#334155" stroke-width="1" rx="8" filter="url(#shadow)">
      <animate attributeName="opacity" values="0;1" dur="0.6s" begin="0.6s" fill="freeze"/>
      <animateTransform attributeName="transform" type="scale" values="0.8;1" dur="0.6s" begin="0.6s" fill="freeze"/>
    </rect>
    <text x="103.33333333333333" y="25" text-anchor="middle" fill="#94a3b8" font-size="14" font-weight="bold" font-family="Arial, sans-serif">TOTAL
      <animate attributeName="opacity" values="0;1" dur="0.5s" begin="0.8s" fill="freeze"/>
    </text>
    
    <text x="103.33333333333333" y="50" text-anchor="middle" fill="#22c55e" font-size="32" font-weight="bold" font-family="Arial, sans-serif">
      ↗
      <animate attributeName="opacity" values="0;1" dur="0.5s" begin="1s" fill="freeze"/>
      <animateTransform attributeName="transform" type="scale" values="0;1.2;1" dur="0.8s" begin="1s" fill="freeze"/>
    </text>
    
    <text x="103.33333333333333" y="75" text-anchor="middle" fill="#f8fafc" font-size="18" font-weight="bold" font-family="Arial, sans-serif">
      +3
      <animate attributeName="opacity" values="0;1" dur="0.5s" begin="1.2s" fill="freeze"/>
    </text>
    
    <text x="103.33333333333333" y="95" text-anchor="middle" fill="#94a3b8" font-size="12" font-family="Arial, sans-serif">
      #15 → #12
      <animate attributeName="opacity" values="0;1" dur="0.5s" begin="1.4s" fill="freeze"/>
    </text>
  </g>
  
  <!-- Timeline Charts (if we have snapshots) -->
  
  <!-- 👥 Followers Count Chart -->
  <g transform="translate(60, 250)">
    <!-- Chart Background -->
    <rect x="0" y="0" width="213.33333333333334" height="200" fill="#0f172a" stroke="#334155" stroke-width="1" rx="8" filter="url(#shadow)">
      <animate attributeName="opacity" values="0;1" dur="0.5s" begin="1.8s" fill="freeze"/>
    </rect>
    
    <!-- Chart Title -->
    <text x="106.66666666666667" y="25" text-anchor="middle" fill="#f8fafc" font-size="14" font-weight="bold" font-family="Arial, sans-serif">
      👥 Followers Count
      <animate attributeName="opacity" values="0;1" dur="0.5s" begin="2s" fill="freeze"/>
    </text>
    
    <!-- Y-axis labels -->
    <text x="10" y="45" fill="#94a3b8" font-size="10" font-family="Arial, sans-serif">154
      <animate attributeName="opacity" values="0;1" dur="0.5s" begin="2.2s" fill="freeze"/>
    </text>
    <text x="10" y="185" fill="#94a3b8" font-size="10" font-family="Arial, sans-serif">150
      <animate attributeName="opacity" values="0;1" dur="0.5s" begin="2.2s" fill="freeze"/>
    </text>
    
    <!-- Chart Line with draw animation that follows the circle -->
    <path d="M 30,160 L 30.032490469818008,160 L 30.065966585438545,160 L 31.546478264172553,160 L 31.57414802997454,160 L 31.610581083002675,160 L 33.09915713648467,160 L 33.12275887324712,160 L 33.151826464005424,160 L 34.64620886730597,160 L 34.67972082459206,160 L 34.71110020277812,160 L 36.19367277728106,160 L 36.223833538838534,160 L 36.25770391278009,160 L 37.73984638729647,160 L 37.76925447387747,160 L 37.80240801450808,160 L 39.291432088809415,160 L 39.31892264628367,160 L 39.34704043290499,160 L 40.83803579881138,160 L 40.86583101044278,160 L 40.89923544273223,160 L 42.3774890965368,160 L 42.41429848705317,160 L 42.44517608192158,160 L 43.93393134373132,160 L 43.95566931388534,160 L 43.99475465016392,160 L 45.48413714112071,160 L 45.516806819266456,160 L 45.55123273902398,160 L 47.03470135516558,160 L 47.06459330423146,160 L 47.0962594157419,160 L 48.5738858403994,160 L 48.60635838938464,160 L 48.638741334206,160 L 50.12703065436362,160 L 50.15742438674715,160 L 50.192154960661824,160 L 51.675874468462254,160 L 51.70384888842139,160 L 51.7347264832898,160 L 53.22536343254073,160 L 53.24529139858465,160 L 53.29421527205578,160 L 54.771089021736806,160 L 54.80124978329428,160 L 54.830998365697965,160 L 56.32231630659428,160 L 56.356563018024076,160 L 56.387727346216856,160 L 57.869923583231554,160 L 57.90008434478903,160 L 57.934850760369244,160 L 59.416168876578055,160 L 59.4458099339851,160 L 59.472816628974485,160 L 60.96687645728511,160 L 60.997503160494695,160 L 61.029043826175716,160 L 62.51989582541992,160 L 62.5487125245194,160 L 62.57713496529787,160 L 64.06244942721511,160 L 64.09325533875244,70 L 64.12535155024943,70 L 65.61659780781466,70 L 65.6379773613132,70 L 65.66745713122529,70 L 67.16108685954937,70 L 67.18499325046896,70 L 67.22741186164339,70 L 68.71129265693878,70 L 68.74277956012148,70 L 68.77043140509069,70 L 70.25338031708188,70 L 70.28787792017049,70 L 70.32165868994818,70 L 71.81127415173103,70 L 71.82654270125389,70 L 71.86792190412744,70 L 73.35653379927498,70 L 73.38916763575517,70 L 73.42603078876988,70 L 74.90501919671814,70 L 74.93577134575716,70 L 74.97517925702564,70 L 76.45099567757305,70 L 76.48370119738433,70 L 76.5218546503587,70 L 78.00793970808522,70 L 78.04437276111335,70 L 79.55034994321824,70 L 79.62696150332413,70 L 81.0989607864908,70 L 81.13704255613409,70 L 81.17318887583785,70 L 82.64694440061632,70 L 82.68706914519575,70 L 82.71468514849943,70 L 84.19858386462758,70 L 84.23216750524477,70 L 84.26987293739981,70 L 85.74149588307824,70 L 85.77506160286265,70 L 85.81282079751603,70 L 87.29222138461807,70 L 87.32521363775375,70 L 87.36060728248103,70 L 88.8460471902277,70 L 88.88939768470632,70 L 90.42865385327124,70 L 90.46969256032212,70 L 91.946261655846,70 L 91.98009618812199,70 L 93.49867171566652,70 L 93.527488414766,70 L 93.57494277994971,70 L 95.03516807598433,70 L 95.06814240828722,70 L 95.10344644885063,70 L 96.58539179420652,70 L 96.62438752632123,70 L 96.66352662509813,70 L 98.13100985840595,70 L 98.16262220741805,70 L 98.20104447288404,70 L 99.67811535172557,70 L 99.71404662143605,70 L 99.76101712413488,70 L 101.22169044098884,70 L 101.26258578137754,70 L 101.30217290097377,70 L 102.77720080487914,70 L 102.81010345385094,70 L 102.84766551934379,70 L 104.32552491482735,70 L 104.35882182212016,70 L 104.39720824592058,70 L 105.87187773317049,70 L 105.9104792069642,70 L 105.95207345983104,70 L 107.42179679723553,70 L 107.45253102544173,70 L 107.48957338678416,70 L 108.97151873214004,70 L 108.99909889377817,70 L 109.03676848426767,70 L 110.51600778387476,70 L 110.5513655869365,70 L 110.59041508154954,70 L 112.06542506462215,70 L 112.10295128844945,70 L 112.1428609830356,70 L 113.6179426494393,70 L 113.64509271109087,70 L 113.68392715571062,70 L 115.16501230109337,70 L 115.20158872078369,70 L 115.23420463643112,70 L 116.70869491535328,70 L 116.74217103097382,70 L 116.7807187422692,70 L 118.25436674205105,70 L 118.29497534911536,70 L 118.33212523545443,70 L 119.80616749355727,70 L 119.83681211759964,70 L 119.87122011652438,70 L 121.36067429081227,70 L 121.39807506881017,70 L 121.44017110499466,70 L 122.90779770496466,70 L 122.94120213725411,70 L 122.97460656954355,70 L 124.45266309418761,70 L 124.48975921802837,70 L 124.52624603355481,70 L 125.99441025850801,70 L 126.0346962905824,70 L 126.07304687271728,70 L 127.5415336726604,70 L 127.58180178390204,70 L 127.62599455752101,70 L 129.104373657155,70 L 129.1363981853209,70 L 129.17781322986002,70 L 130.6488627088897,70 L 130.6765324746917,70 L 130.71160354442907,70 L 132.192832056474,70 L 132.22944431782986,70 L 132.26657628333615,70 L 133.741962603897,70 L 133.7739333695646,70 L 133.8152767307726,70 L 135.28998205968804,70 L 135.32214995451614,70 L 135.36024964499222,70 L 136.8388258737867,70 L 136.87034861863492,70 L 136.90448780506807,70 L 138.385483346287,40 L 138.41532153285453,40 L 139.9326067604394,40 L 139.96903981346753,40 L 140.00344781239227,40 L 141.48254374533718,40 L 141.50763291121982,40 L 141.5503382557186,40 L 143.03930856752163,40 L 143.07715736633884,40 L 144.58010592770503,40 L 144.6195317598063,40 L 144.67100039153124,40 L 146.13077766674652,40 L 146.16936121970747,40 L 146.1931063231321,40 L 147.68116267246367,40 L 147.71704017967585,40 L 147.7548710576603,40 L 149.23045450738164,40 L 149.26464745631313,40 L 149.30341021760177,40 L 150.77714782154746,40 L 150.8078820497537,40 L 150.84651936521294,40 L 152.32536440649903,40 L 152.3578727971498,40 L 152.38980772115184,40 L 153.8731867331296,40 L 153.91031869863588,40 L 153.9513932473523,40 L 155.42462906798033,40 L 155.46106212100847,40 L 155.50559539045014,40 L 156.9635805823881,40 L 157.00092759788768,40 L 157.04386591321253,40 L 158.51907302544564,40 L 158.55471756183175,40 L 158.59145526901705,40 L 160.06834693953084,40 L 160.11008455905986,40 L 160.15427733267884,40 L 161.61726243696057,40 L 161.65493202745006,40 L 161.70132906350014,40 L 163.16271921366504,40 L 163.20216296659908,40 L 163.23861394046,40 L 164.71742314008054,40 L 164.75339025145655,40 L 166.269205970754,40 L 166.30212654055856,40 L 167.81165204755254,40 L 167.84890945888824,40 L 167.89315599500554,40 L 169.35800486589568,40 L 169.4050470519256,40 L 170.90966225073973,40 L 170.94166885807286,40 L 170.9838544984212,40 L 172.454581402461,40 L 172.49350545124463,40 L 172.5377699081947,40 L 173.9986761958747,40 L 174.03625618220033,40 L 174.06808358120574,40 L 175.55226903065827,40 L 175.59552992097304,40 L 177.10168631140564,40 L 177.14050283519262,40 L 178.6502433921799,40 L 178.68880902430806,40 L 180.19820908547263,40 L 180.23639838011255,40 L 181.74110318309053,40 L 181.77640722365393,40 L 181.80721313519126,40 L 183.29761711361613,40 L 183.33333333333334,40" stroke="#22c55e" stroke-width="2" fill="none" stroke-dasharray="14250" stroke-dashoffset="14250">
      <animate attributeName="stroke-dashoffset" values="14250;0" dur="3s" begin="2.6s" fill="freeze"/>
    </path>
    
    <!-- Glow effect for the line that also follows the circle -->
    <path d="M 30,160 L 30.032490469818008,160 L 30.065966585438545,160 L 31.546478264172553,160 L 31.57414802997454,160 L 31.610581083002675,160 L 33.09915713648467,160 L 33.12275887324712,160 L 33.151826464005424,160 L 34.64620886730597,160 L 34.67972082459206,160 L 34.71110020277812,160 L 36.19367277728106,160 L 36.223833538838534,160 L 36.25770391278009,160 L 37.73984638729647,160 L 37.76925447387747,160 L 37.80240801450808,160 L 39.291432088809415,160 L 39.31892264628367,160 L 39.34704043290499,160 L 40.83803579881138,160 L 40.86583101044278,160 L 40.89923544273223,160 L 42.3774890965368,160 L 42.41429848705317,160 L 42.44517608192158,160 L 43.93393134373132,160 L 43.95566931388534,160 L 43.99475465016392,160 L 45.48413714112071,160 L 45.516806819266456,160 L 45.55123273902398,160 L 47.03470135516558,160 L 47.06459330423146,160 L 47.0962594157419,160 L 48.5738858403994,160 L 48.60635838938464,160 L 48.638741334206,160 L 50.12703065436362,160 L 50.15742438674715,160 L 50.192154960661824,160 L 51.675874468462254,160 L 51.70384888842139,160 L 51.7347264832898,160 L 53.22536343254073,160 L 53.24529139858465,160 L 53.29421527205578,160 L 54.771089021736806,160 L 54.80124978329428,160 L 54.830998365697965,160 L 56.32231630659428,160 L 56.356563018024076,160 L 56.387727346216856,160 L 57.869923583231554,160 L 57.90008434478903,160 L 57.934850760369244,160 L 59.416168876578055,160 L 59.4458099339851,160 L 59.472816628974485,160 L 60.96687645728511,160 L 60.997503160494695,160 L 61.029043826175716,160 L 62.51989582541992,160 L 62.5487125245194,160 L 62.57713496529787,160 L 64.06244942721511,160 L 64.09325533875244,70 L 64.12535155024943,70 L 65.61659780781466,70 L 65.6379773613132,70 L 65.66745713122529,70 L 67.16108685954937,70 L 67.18499325046896,70 L 67.22741186164339,70 L 68.71129265693878,70 L 68.74277956012148,70 L 68.77043140509069,70 L 70.25338031708188,70 L 70.28787792017049,70 L 70.32165868994818,70 L 71.81127415173103,70 L 71.82654270125389,70 L 71.86792190412744,70 L 73.35653379927498,70 L 73.38916763575517,70 L 73.42603078876988,70 L 74.90501919671814,70 L 74.93577134575716,70 L 74.97517925702564,70 L 76.45099567757305,70 L 76.48370119738433,70 L 76.5218546503587,70 L 78.00793970808522,70 L 78.04437276111335,70 L 79.55034994321824,70 L 79.62696150332413,70 L 81.0989607864908,70 L 81.13704255613409,70 L 81.17318887583785,70 L 82.64694440061632,70 L 82.68706914519575,70 L 82.71468514849943,70 L 84.19858386462758,70 L 84.23216750524477,70 L 84.26987293739981,70 L 85.74149588307824,70 L 85.77506160286265,70 L 85.81282079751603,70 L 87.29222138461807,70 L 87.32521363775375,70 L 87.36060728248103,70 L 88.8460471902277,70 L 88.88939768470632,70 L 90.42865385327124,70 L 90.46969256032212,70 L 91.946261655846,70 L 91.98009618812199,70 L 93.49867171566652,70 L 93.527488414766,70 L 93.57494277994971,70 L 95.03516807598433,70 L 95.06814240828722,70 L 95.10344644885063,70 L 96.58539179420652,70 L 96.62438752632123,70 L 96.66352662509813,70 L 98.13100985840595,70 L 98.16262220741805,70 L 98.20104447288404,70 L 99.67811535172557,70 L 99.71404662143605,70 L 99.76101712413488,70 L 101.22169044098884,70 L 101.26258578137754,70 L 101.30217290097377,70 L 102.77720080487914,70 L 102.81010345385094,70 L 102.84766551934379,70 L 104.32552491482735,70 L 104.35882182212016,70 L 104.39720824592058,70 L 105.87187773317049,70 L 105.9104792069642,70 L 105.95207345983104,70 L 107.42179679723553,70 L 107.45253102544173,70 L 107.48957338678416,70 L 108.97151873214004,70 L 108.99909889377817,70 L 109.03676848426767,70 L 110.51600778387476,70 L 110.5513655869365,70 L 110.59041508154954,70 L 112.06542506462215,70 L 112.10295128844945,70 L 112.1428609830356,70 L 113.6179426494393,70 L 113.64509271109087,70 L 113.68392715571062,70 L 115.16501230109337,70 L 115.20158872078369,70 L 115.23420463643112,70 L 116.70869491535328,70 L 116.74217103097382,70 L 116.7807187422692,70 L 118.25436674205105,70 L 118.29497534911536,70 L 118.33212523545443,70 L 119.80616749355727,70 L 119.83681211759964,70 L 119.87122011652438,70 L 121.36067429081227,70 L 121.39807506881017,70 L 121.44017110499466,70 L 122.90779770496466,70 L 122.94120213725411,70 L 122.97460656954355,70 L 124.45266309418761,70 L 124.48975921802837,70 L 124.52624603355481,70 L 125.99441025850801,70 L 126.0346962905824,70 L 126.07304687271728,70 L 127.5415336726604,70 L 127.58180178390204,70 L 127.62599455752101,70 L 129.104373657155,70 L 129.1363981853209,70 L 129.17781322986002,70 L 130.6488627088897,70 L 130.6765324746917,70 L 130.71160354442907,70 L 132.192832056474,70 L 132.22944431782986,70 L 132.26657628333615,70 L 133.741962603897,70 L 133.7739333695646,70 L 133.8152767307726,70 L 135.28998205968804,70 L 135.32214995451614,70 L 135.36024964499222,70 L 136.8388258737867,70 L 136.87034861863492,70 L 136.90448780506807,70 L 138.385483346287,40 L 138.41532153285453,40 L 139.9326067604394,40 L 139.96903981346753,40 L 140.00344781239227,40 L 141.48254374533718,40 L 141.50763291121982,40 L 141.5503382557186,40 L 143.03930856752163,40 L 143.07715736633884,40 L 144.58010592770503,40 L 144.6195317598063,40 L 144.67100039153124,40 L 146.13077766674652,40 L 146.16936121970747,40 L 146.1931063231321,40 L 147.68116267246367,40 L 147.71704017967585,40 L 147.7548710576603,40 L 149.23045450738164,40 L 149.26464745631313,40 L 149.30341021760177,40 L 150.77714782154746,40 L 150.8078820497537,40 L 150.84651936521294,40 L 152.32536440649903,40 L 152.3578727971498,40 L 152.38980772115184,40 L 153.8731867331296,40 L 153.91031869863588,40 L 153.9513932473523,40 L 155.42462906798033,40 L 155.46106212100847,40 L 155.50559539045014,40 L 156.9635805823881,40 L 157.00092759788768,40 L 157.04386591321253,40 L 158.51907302544564,40 L 158.55471756183175,40 L 158.59145526901705,40 L 160.06834693953084,40 L 160.11008455905986,40 L 160.15427733267884,40 L 161.61726243696057,40 L 161.65493202745006,40 L 161.70132906350014,40 L 163.16271921366504,40 L 163.20216296659908,40 L 163.23861394046,40 L 164.71742314008054,40 L 164.75339025145655,40 L 166.269205970754,40 L 166.30212654055856,40 L 167.81165204755254,40 L 167.84890945888824,40 L 167.89315599500554,40 L 169.35800486589568,40 L 169.4050470519256,40 L 170.90966225073973,40 L 170.94166885807286,40 L 170.9838544984212,40 L 172.454581402461,40 L 172.49350545124463,40 L 172.5377699081947,40 L 173.9986761958747,40 L 174.03625618220033,40 L 174.06808358120574,40 L 175.55226903065827,40 L 175.59552992097304,40 L 177.10168631140564,40 L 177.14050283519262,40 L 178.6502433921799,40 L 178.68880902430806,40 L 180.19820908547263,40 L 180.23639838011255,40 L 181.74110318309053,40 L 181.77640722365393,40 L 181.80721313519126,40 L 183.29761711361613,40 L 183.33333333333334,40" stroke="#22c55e" stroke-width="4" fill="none" opacity="0.4" stroke-dasharray="14250" stroke-dashoffset="14250">
      <animate attributeName="stroke-dashoffset" values="14250;0" dur="3s" begin="2.6s" fill="freeze"/>
    </path>
    
    <!-- Animated circle that moves along the path and draws the line -->
    <circle r="5" fill="#22c55e" opacity="0" filter="url(#trailGlow)">
      <animate attributeName="opacity" values="0;1;1;1" dur="3.2s" begin="2.4s" fill="freeze"/>
      <animate attributeName="r" values="5;6;5" dur="1s" begin="2.4s" repeatCount="3"/>
      <animateMotion dur="3s" begin="2.4s" fill="freeze">
        <mpath href="#path_followersCount_60"/>
      </animateMotion>
    </circle>
    
    <!-- Small trail dots that fade out -->
    <circle r="2" fill="#22c55e" opacity="0">
      <animate attributeName="opacity" values="0;0.6;0" dur="0.8s" begin="2.8s" fill="freeze"/>
      <animateMotion dur="3s" begin="2.4s" fill="freeze">
        <mpath href="#path_followersCount_60"/>
      </animateMotion>
    </circle>
    
    <!-- Hidden path for motion animation -->
    <path id="path_followersCount_60" d="M 30,160 L 30.032490469818008,160 L 30.065966585438545,160 L 31.546478264172553,160 L 31.57414802997454,160 L 31.610581083002675,160 L 33.09915713648467,160 L 33.12275887324712,160 L 33.151826464005424,160 L 34.64620886730597,160 L 34.67972082459206,160 L 34.71110020277812,160 L 36.19367277728106,160 L 36.223833538838534,160 L 36.25770391278009,160 L 37.73984638729647,160 L 37.76925447387747,160 L 37.80240801450808,160 L 39.291432088809415,160 L 39.31892264628367,160 L 39.34704043290499,160 L 40.83803579881138,160 L 40.86583101044278,160 L 40.89923544273223,160 L 42.3774890965368,160 L 42.41429848705317,160 L 42.44517608192158,160 L 43.93393134373132,160 L 43.95566931388534,160 L 43.99475465016392,160 L 45.48413714112071,160 L 45.516806819266456,160 L 45.55123273902398,160 L 47.03470135516558,160 L 47.06459330423146,160 L 47.0962594157419,160 L 48.5738858403994,160 L 48.60635838938464,160 L 48.638741334206,160 L 50.12703065436362,160 L 50.15742438674715,160 L 50.192154960661824,160 L 51.675874468462254,160 L 51.70384888842139,160 L 51.7347264832898,160 L 53.22536343254073,160 L 53.24529139858465,160 L 53.29421527205578,160 L 54.771089021736806,160 L 54.80124978329428,160 L 54.830998365697965,160 L 56.32231630659428,160 L 56.356563018024076,160 L 56.387727346216856,160 L 57.869923583231554,160 L 57.90008434478903,160 L 57.934850760369244,160 L 59.416168876578055,160 L 59.4458099339851,160 L 59.472816628974485,160 L 60.96687645728511,160 L 60.997503160494695,160 L 61.029043826175716,160 L 62.51989582541992,160 L 62.5487125245194,160 L 62.57713496529787,160 L 64.06244942721511,160 L 64.09325533875244,70 L 64.12535155024943,70 L 65.61659780781466,70 L 65.6379773613132,70 L 65.66745713122529,70 L 67.16108685954937,70 L 67.18499325046896,70 L 67.22741186164339,70 L 68.71129265693878,70 L 68.74277956012148,70 L 68.77043140509069,70 L 70.25338031708188,70 L 70.28787792017049,70 L 70.32165868994818,70 L 71.81127415173103,70 L 71.82654270125389,70 L 71.86792190412744,70 L 73.35653379927498,70 L 73.38916763575517,70 L 73.42603078876988,70 L 74.90501919671814,70 L 74.93577134575716,70 L 74.97517925702564,70 L 76.45099567757305,70 L 76.48370119738433,70 L 76.5218546503587,70 L 78.00793970808522,70 L 78.04437276111335,70 L 79.55034994321824,70 L 79.62696150332413,70 L 81.0989607864908,70 L 81.13704255613409,70 L 81.17318887583785,70 L 82.64694440061632,70 L 82.68706914519575,70 L 82.71468514849943,70 L 84.19858386462758,70 L 84.23216750524477,70 L 84.26987293739981,70 L 85.74149588307824,70 L 85.77506160286265,70 L 85.81282079751603,70 L 87.29222138461807,70 L 87.32521363775375,70 L 87.36060728248103,70 L 88.8460471902277,70 L 88.88939768470632,70 L 90.42865385327124,70 L 90.46969256032212,70 L 91.946261655846,70 L 91.98009618812199,70 L 93.49867171566652,70 L 93.527488414766,70 L 93.57494277994971,70 L 95.03516807598433,70 L 95.06814240828722,70 L 95.10344644885063,70 L 96.58539179420652,70 L 96.62438752632123,70 L 96.66352662509813,70 L 98.13100985840595,70 L 98.16262220741805,70 L 98.20104447288404,70 L 99.67811535172557,70 L 99.71404662143605,70 L 99.76101712413488,70 L 101.22169044098884,70 L 101.26258578137754,70 L 101.30217290097377,70 L 102.77720080487914,70 L 102.81010345385094,70 L 102.84766551934379,70 L 104.32552491482735,70 L 104.35882182212016,70 L 104.39720824592058,70 L 105.87187773317049,70 L 105.9104792069642,70 L 105.95207345983104,70 L 107.42179679723553,70 L 107.45253102544173,70 L 107.48957338678416,70 L 108.97151873214004,70 L 108.99909889377817,70 L 109.03676848426767,70 L 110.51600778387476,70 L 110.5513655869365,70 L 110.59041508154954,70 L 112.06542506462215,70 L 112.10295128844945,70 L 112.1428609830356,70 L 113.6179426494393,70 L 113.64509271109087,70 L 113.68392715571062,70 L 115.16501230109337,70 L 115.20158872078369,70 L 115.23420463643112,70 L 116.70869491535328,70 L 116.74217103097382,70 L 116.7807187422692,70 L 118.25436674205105,70 L 118.29497534911536,70 L 118.33212523545443,70 L 119.80616749355727,70 L 119.83681211759964,70 L 119.87122011652438,70 L 121.36067429081227,70 L 121.39807506881017,70 L 121.44017110499466,70 L 122.90779770496466,70 L 122.94120213725411,70 L 122.97460656954355,70 L 124.45266309418761,70 L 124.48975921802837,70 L 124.52624603355481,70 L 125.99441025850801,70 L 126.0346962905824,70 L 126.07304687271728,70 L 127.5415336726604,70 L 127.58180178390204,70 L 127.62599455752101,70 L 129.104373657155,70 L 129.1363981853209,70 L 129.17781322986002,70 L 130.6488627088897,70 L 130.6765324746917,70 L 130.71160354442907,70 L 132.192832056474,70 L 132.22944431782986,70 L 132.26657628333615,70 L 133.741962603897,70 L 133.7739333695646,70 L 133.8152767307726,70 L 135.28998205968804,70 L 135.32214995451614,70 L 135.36024964499222,70 L 136.8388258737867,70 L 136.87034861863492,70 L 136.90448780506807,70 L 138.385483346287,40 L 138.41532153285453,40 L 139.9326067604394,40 L 139.96903981346753,40 L 140.00344781239227,40 L 141.48254374533718,40 L 141.50763291121982,40 L 141.5503382557186,40 L 143.03930856752163,40 L 143.07715736633884,40 L 144.58010592770503,40 L 144.6195317598063,40 L 144.67100039153124,40 L 146.13077766674652,40 L 146.16936121970747,40 L 146.1931063231321,40 L 147.68116267246367,40 L 147.71704017967585,40 L 147.7548710576603,40 L 149.23045450738164,40 L 149.26464745631313,40 L 149.30341021760177,40 L 150.77714782154746,40 L 150.8078820497537,40 L 150.84651936521294,40 L 152.32536440649903,40 L 152.3578727971498,40 L 152.38980772115184,40 L 153.8731867331296,40 L 153.91031869863588,40 L 153.9513932473523,40 L 155.42462906798033,40 L 155.46106212100847,40 L 155.50559539045014,40 L 156.9635805823881,40 L 157.00092759788768,40 L 157.04386591321253,40 L 158.51907302544564,40 L 158.55471756183175,40 L 158.59145526901705,40 L 160.06834693953084,40 L 160.11008455905986,40 L 160.15427733267884,40 L 161.61726243696057,40 L 161.65493202745006,40 L 161.70132906350014,40 L 163.16271921366504,40 L 163.20216296659908,40 L 163.23861394046,40 L 164.71742314008054,40 L 164.75339025145655,40 L 166.269205970754,40 L 166.30212654055856,40 L 167.81165204755254,40 L 167.84890945888824,40 L 167.89315599500554,40 L 169.35800486589568,40 L 169.4050470519256,40 L 170.90966225073973,40 L 170.94166885807286,40 L 170.9838544984212,40 L 172.454581402461,40 L 172.49350545124463,40 L 172.5377699081947,40 L 173.9986761958747,40 L 174.03625618220033,40 L 174.06808358120574,40 L 175.55226903065827,40 L 175.59552992097304,40 L 177.10168631140564,40 L 177.14050283519262,40 L 178.6502433921799,40 L 178.68880902430806,40 L 180.19820908547263,40 L 180.23639838011255,40 L 181.74110318309053,40 L 181.77640722365393,40 L 181.80721313519126,40 L 183.29761711361613,40 L 183.33333333333334,40" fill="none" stroke="none"/>
  </g>
  <!-- 🔓 Public Contributions Chart -->
  <g transform="translate(293.33333333333337, 250)">
    <!-- Chart Background -->
    <rect x="0" y="0" width="213.33333333333334" height="200" fill="#0f172a" stroke="#334155" stroke-width="1" rx="8" filter="url(#shadow)">
      <animate attributeName="opacity" values="0;1" dur="0.5s" begin="2.3s" fill="freeze"/>
    </rect>
    
    <!-- Chart Title -->
    <text x="106.66666666666667" y="25" text-anchor="middle" fill="#f8fafc" font-size="14" font-weight="bold" font-family="Arial, sans-serif">
      🔓 Public Contributions
      <animate attributeName="opacity" values="0;1" dur="0.5s" begin="2.5s" fill="freeze"/>
    </text>
    
    <!-- Y-axis labels -->
    <text x="10" y="45" fill="#94a3b8" font-size="10" font-family="Arial, sans-serif">3,861
      <animate attributeName="opacity" values="0;1" dur="0.5s" begin="2.6999999999999997s" fill="freeze"/>
    </text>
    <text x="10" y="185" fill="#94a3b8" font-size="10" font-family="Arial, sans-serif">3,434
      <animate attributeName="opacity" values="0;1" dur="0.5s" begin="2.6999999999999997s" fill="freeze"/>
    </text>
    
    <!-- Chart Line with draw animation that follows the circle -->
    <path d="M 30,160 L 30.032490469818008,160 L 30.065966585438545,160 L 31.546478264172553,160 L 31.57414802997454,160 L 31.610581083002675,160 L 33.09915713648467,160 L 33.12275887324712,160 L 33.151826464005424,160 L 34.64620886730597,160 L 34.67972082459206,160 L 34.71110020277812,160 L 36.19367277728106,160 L 36.223833538838534,160 L 36.25770391278009,160 L 37.73984638729647,160 L 37.76925447387747,160 L 37.80240801450808,160 L 39.291432088809415,160 L 39.31892264628367,160 L 39.34704043290499,160 L 40.83803579881138,160 L 40.86583101044278,160 L 40.89923544273223,160 L 42.3774890965368,160 L 42.41429848705317,160 L 42.44517608192158,160 L 43.93393134373132,160 L 43.95566931388534,160 L 43.99475465016392,160 L 45.48413714112071,160 L 45.516806819266456,160 L 45.55123273902398,160 L 47.03470135516558,160 L 47.06459330423146,160 L 47.0962594157419,160 L 48.5738858403994,160 L 48.60635838938464,160 L 48.638741334206,160 L 50.12703065436362,160 L 50.15742438674715,160 L 50.192154960661824,160 L 51.675874468462254,160 L 51.70384888842139,160 L 51.7347264832898,160 L 53.22536343254073,160 L 53.24529139858465,160 L 53.29421527205578,160 L 54.771089021736806,160 L 54.80124978329428,160 L 54.830998365697965,160 L 56.32231630659428,160 L 56.356563018024076,160 L 56.387727346216856,160 L 57.869923583231554,160 L 57.90008434478903,160 L 57.934850760369244,160 L 59.416168876578055,160 L 59.4458099339851,160 L 59.472816628974485,160 L 60.96687645728511,160 L 60.997503160494695,160 L 61.029043826175716,160 L 62.51989582541992,160 L 62.5487125245194,160 L 62.57713496529787,160 L 64.06244942721511,160 L 64.09325533875244,40 L 64.12535155024943,40 L 65.61659780781466,40 L 65.6379773613132,40 L 65.66745713122529,40 L 67.16108685954937,40 L 67.18499325046896,40 L 67.22741186164339,40 L 68.71129265693878,40 L 68.74277956012148,40 L 68.77043140509069,40 L 70.25338031708188,40 L 70.28787792017049,40 L 70.32165868994818,40 L 71.81127415173103,40 L 71.82654270125389,40 L 71.86792190412744,40 L 73.35653379927498,40 L 73.38916763575517,40 L 73.42603078876988,40 L 74.90501919671814,40 L 74.93577134575716,40 L 74.97517925702564,40 L 76.45099567757305,40 L 76.48370119738433,40 L 76.5218546503587,40 L 78.00793970808522,40 L 78.04437276111335,40 L 79.55034994321824,40 L 79.62696150332413,40 L 81.0989607864908,40 L 81.13704255613409,40 L 81.17318887583785,40 L 82.64694440061632,40 L 82.68706914519575,40 L 82.71468514849943,40 L 84.19858386462758,40 L 84.23216750524477,40 L 84.26987293739981,40 L 85.74149588307824,40 L 85.77506160286265,40 L 85.81282079751603,40 L 87.29222138461807,40 L 87.32521363775375,40 L 87.36060728248103,40 L 88.8460471902277,40 L 88.88939768470632,40 L 90.42865385327124,40 L 90.46969256032212,40 L 91.946261655846,40 L 91.98009618812199,40 L 93.49867171566652,40 L 93.527488414766,40 L 93.57494277994971,40 L 95.03516807598433,40 L 95.06814240828722,40 L 95.10344644885063,40 L 96.58539179420652,40 L 96.62438752632123,40 L 96.66352662509813,40 L 98.13100985840595,40 L 98.16262220741805,40 L 98.20104447288404,40 L 99.67811535172557,40 L 99.71404662143605,40 L 99.76101712413488,40 L 101.22169044098884,40 L 101.26258578137754,40 L 101.30217290097377,40 L 102.77720080487914,40 L 102.81010345385094,40 L 102.84766551934379,40 L 104.32552491482735,40 L 104.35882182212016,40 L 104.39720824592058,40 L 105.87187773317049,40 L 105.9104792069642,40 L 105.95207345983104,40 L 107.42179679723553,40 L 107.45253102544173,40 L 107.48957338678416,40 L 108.97151873214004,40 L 108.99909889377817,40 L 109.03676848426767,40 L 110.51600778387476,40 L 110.5513655869365,40 L 110.59041508154954,40 L 112.06542506462215,40 L 112.10295128844945,40 L 112.1428609830356,40 L 113.6179426494393,40 L 113.64509271109087,40 L 113.68392715571062,40 L 115.16501230109337,40 L 115.20158872078369,40 L 115.23420463643112,40 L 116.70869491535328,40 L 116.74217103097382,40 L 116.7807187422692,40 L 118.25436674205105,40 L 118.29497534911536,40 L 118.33212523545443,40 L 119.80616749355727,40 L 119.83681211759964,40 L 119.87122011652438,40 L 121.36067429081227,40 L 121.39807506881017,40 L 121.44017110499466,40 L 122.90779770496466,40 L 122.94120213725411,40 L 122.97460656954355,40 L 124.45266309418761,40 L 124.48975921802837,40 L 124.52624603355481,40 L 125.99441025850801,40 L 126.0346962905824,40 L 126.07304687271728,40 L 127.5415336726604,40 L 127.58180178390204,40 L 127.62599455752101,40 L 129.104373657155,40 L 129.1363981853209,40 L 129.17781322986002,40 L 130.6488627088897,40 L 130.6765324746917,40 L 130.71160354442907,40 L 132.192832056474,40 L 132.22944431782986,40 L 132.26657628333615,40 L 133.741962603897,40 L 133.7739333695646,40 L 133.8152767307726,40 L 135.28998205968804,40 L 135.32214995451614,40 L 135.36024964499222,40 L 136.8388258737867,40 L 136.87034861863492,40 L 136.90448780506807,40 L 138.385483346287,66.4168618266979 L 138.41532153285453,66.4168618266979 L 139.9326067604394,66.4168618266979 L 139.96903981346753,66.4168618266979 L 140.00344781239227,66.4168618266979 L 141.48254374533718,66.4168618266979 L 141.50763291121982,66.4168618266979 L 141.5503382557186,66.4168618266979 L 143.03930856752163,66.4168618266979 L 143.07715736633884,66.4168618266979 L 144.58010592770503,66.4168618266979 L 144.6195317598063,66.4168618266979 L 144.67100039153124,66.4168618266979 L 146.13077766674652,66.4168618266979 L 146.16936121970747,66.4168618266979 L 146.1931063231321,66.4168618266979 L 147.68116267246367,66.4168618266979 L 147.71704017967585,66.4168618266979 L 147.7548710576603,66.4168618266979 L 149.23045450738164,66.4168618266979 L 149.26464745631313,66.4168618266979 L 149.30341021760177,66.4168618266979 L 150.77714782154746,66.4168618266979 L 150.8078820497537,66.4168618266979 L 150.84651936521294,66.4168618266979 L 152.32536440649903,66.4168618266979 L 152.3578727971498,66.4168618266979 L 152.38980772115184,66.4168618266979 L 153.8731867331296,66.4168618266979 L 153.91031869863588,66.4168618266979 L 153.9513932473523,66.4168618266979 L 155.42462906798033,66.4168618266979 L 155.46106212100847,66.4168618266979 L 155.50559539045014,66.4168618266979 L 156.9635805823881,66.4168618266979 L 157.00092759788768,66.4168618266979 L 157.04386591321253,66.4168618266979 L 158.51907302544564,66.4168618266979 L 158.55471756183175,66.4168618266979 L 158.59145526901705,66.4168618266979 L 160.06834693953084,66.4168618266979 L 160.11008455905986,66.4168618266979 L 160.15427733267884,66.4168618266979 L 161.61726243696057,66.4168618266979 L 161.65493202745006,66.4168618266979 L 161.70132906350014,66.4168618266979 L 163.16271921366504,66.4168618266979 L 163.20216296659908,66.4168618266979 L 163.23861394046,66.4168618266979 L 164.71742314008054,66.4168618266979 L 164.75339025145655,66.4168618266979 L 166.269205970754,66.4168618266979 L 166.30212654055856,66.4168618266979 L 167.81165204755254,66.4168618266979 L 167.84890945888824,66.4168618266979 L 167.89315599500554,66.4168618266979 L 169.35800486589568,66.4168618266979 L 169.4050470519256,66.4168618266979 L 170.90966225073973,66.4168618266979 L 170.94166885807286,66.4168618266979 L 170.9838544984212,66.4168618266979 L 172.454581402461,66.4168618266979 L 172.49350545124463,66.4168618266979 L 172.5377699081947,66.4168618266979 L 173.9986761958747,66.4168618266979 L 174.03625618220033,66.4168618266979 L 174.06808358120574,66.4168618266979 L 175.55226903065827,66.4168618266979 L 175.59552992097304,66.4168618266979 L 177.10168631140564,66.4168618266979 L 177.14050283519262,66.4168618266979 L 178.6502433921799,66.4168618266979 L 178.68880902430806,66.4168618266979 L 180.19820908547263,66.4168618266979 L 180.23639838011255,66.4168618266979 L 181.74110318309053,66.4168618266979 L 181.77640722365393,66.4168618266979 L 181.80721313519126,66.4168618266979 L 183.29761711361613,66.4168618266979 L 183.33333333333334,66.4168618266979" stroke="#3b82f6" stroke-width="2" fill="none" stroke-dasharray="14250" stroke-dashoffset="14250">
      <animate attributeName="stroke-dashoffset" values="14250;0" dur="3s" begin="3.0999999999999996s" fill="freeze"/>
    </path>
    
    <!-- Glow effect for the line that also follows the circle -->
    <path d="M 30,160 L 30.032490469818008,160 L 30.065966585438545,160 L 31.546478264172553,160 L 31.57414802997454,160 L 31.610581083002675,160 L 33.09915713648467,160 L 33.12275887324712,160 L 33.151826464005424,160 L 34.64620886730597,160 L 34.67972082459206,160 L 34.71110020277812,160 L 36.19367277728106,160 L 36.223833538838534,160 L 36.25770391278009,160 L 37.73984638729647,160 L 37.76925447387747,160 L 37.80240801450808,160 L 39.291432088809415,160 L 39.31892264628367,160 L 39.34704043290499,160 L 40.83803579881138,160 L 40.86583101044278,160 L 40.89923544273223,160 L 42.3774890965368,160 L 42.41429848705317,160 L 42.44517608192158,160 L 43.93393134373132,160 L 43.95566931388534,160 L 43.99475465016392,160 L 45.48413714112071,160 L 45.516806819266456,160 L 45.55123273902398,160 L 47.03470135516558,160 L 47.06459330423146,160 L 47.0962594157419,160 L 48.5738858403994,160 L 48.60635838938464,160 L 48.638741334206,160 L 50.12703065436362,160 L 50.15742438674715,160 L 50.192154960661824,160 L 51.675874468462254,160 L 51.70384888842139,160 L 51.7347264832898,160 L 53.22536343254073,160 L 53.24529139858465,160 L 53.29421527205578,160 L 54.771089021736806,160 L 54.80124978329428,160 L 54.830998365697965,160 L 56.32231630659428,160 L 56.356563018024076,160 L 56.387727346216856,160 L 57.869923583231554,160 L 57.90008434478903,160 L 57.934850760369244,160 L 59.416168876578055,160 L 59.4458099339851,160 L 59.472816628974485,160 L 60.96687645728511,160 L 60.997503160494695,160 L 61.029043826175716,160 L 62.51989582541992,160 L 62.5487125245194,160 L 62.57713496529787,160 L 64.06244942721511,160 L 64.09325533875244,40 L 64.12535155024943,40 L 65.61659780781466,40 L 65.6379773613132,40 L 65.66745713122529,40 L 67.16108685954937,40 L 67.18499325046896,40 L 67.22741186164339,40 L 68.71129265693878,40 L 68.74277956012148,40 L 68.77043140509069,40 L 70.25338031708188,40 L 70.28787792017049,40 L 70.32165868994818,40 L 71.81127415173103,40 L 71.82654270125389,40 L 71.86792190412744,40 L 73.35653379927498,40 L 73.38916763575517,40 L 73.42603078876988,40 L 74.90501919671814,40 L 74.93577134575716,40 L 74.97517925702564,40 L 76.45099567757305,40 L 76.48370119738433,40 L 76.5218546503587,40 L 78.00793970808522,40 L 78.04437276111335,40 L 79.55034994321824,40 L 79.62696150332413,40 L 81.0989607864908,40 L 81.13704255613409,40 L 81.17318887583785,40 L 82.64694440061632,40 L 82.68706914519575,40 L 82.71468514849943,40 L 84.19858386462758,40 L 84.23216750524477,40 L 84.26987293739981,40 L 85.74149588307824,40 L 85.77506160286265,40 L 85.81282079751603,40 L 87.29222138461807,40 L 87.32521363775375,40 L 87.36060728248103,40 L 88.8460471902277,40 L 88.88939768470632,40 L 90.42865385327124,40 L 90.46969256032212,40 L 91.946261655846,40 L 91.98009618812199,40 L 93.49867171566652,40 L 93.527488414766,40 L 93.57494277994971,40 L 95.03516807598433,40 L 95.06814240828722,40 L 95.10344644885063,40 L 96.58539179420652,40 L 96.62438752632123,40 L 96.66352662509813,40 L 98.13100985840595,40 L 98.16262220741805,40 L 98.20104447288404,40 L 99.67811535172557,40 L 99.71404662143605,40 L 99.76101712413488,40 L 101.22169044098884,40 L 101.26258578137754,40 L 101.30217290097377,40 L 102.77720080487914,40 L 102.81010345385094,40 L 102.84766551934379,40 L 104.32552491482735,40 L 104.35882182212016,40 L 104.39720824592058,40 L 105.87187773317049,40 L 105.9104792069642,40 L 105.95207345983104,40 L 107.42179679723553,40 L 107.45253102544173,40 L 107.48957338678416,40 L 108.97151873214004,40 L 108.99909889377817,40 L 109.03676848426767,40 L 110.51600778387476,40 L 110.5513655869365,40 L 110.59041508154954,40 L 112.06542506462215,40 L 112.10295128844945,40 L 112.1428609830356,40 L 113.6179426494393,40 L 113.64509271109087,40 L 113.68392715571062,40 L 115.16501230109337,40 L 115.20158872078369,40 L 115.23420463643112,40 L 116.70869491535328,40 L 116.74217103097382,40 L 116.7807187422692,40 L 118.25436674205105,40 L 118.29497534911536,40 L 118.33212523545443,40 L 119.80616749355727,40 L 119.83681211759964,40 L 119.87122011652438,40 L 121.36067429081227,40 L 121.39807506881017,40 L 121.44017110499466,40 L 122.90779770496466,40 L 122.94120213725411,40 L 122.97460656954355,40 L 124.45266309418761,40 L 124.48975921802837,40 L 124.52624603355481,40 L 125.99441025850801,40 L 126.0346962905824,40 L 126.07304687271728,40 L 127.5415336726604,40 L 127.58180178390204,40 L 127.62599455752101,40 L 129.104373657155,40 L 129.1363981853209,40 L 129.17781322986002,40 L 130.6488627088897,40 L 130.6765324746917,40 L 130.71160354442907,40 L 132.192832056474,40 L 132.22944431782986,40 L 132.26657628333615,40 L 133.741962603897,40 L 133.7739333695646,40 L 133.8152767307726,40 L 135.28998205968804,40 L 135.32214995451614,40 L 135.36024964499222,40 L 136.8388258737867,40 L 136.87034861863492,40 L 136.90448780506807,40 L 138.385483346287,66.4168618266979 L 138.41532153285453,66.4168618266979 L 139.9326067604394,66.4168618266979 L 139.96903981346753,66.4168618266979 L 140.00344781239227,66.4168618266979 L 141.48254374533718,66.4168618266979 L 141.50763291121982,66.4168618266979 L 141.5503382557186,66.4168618266979 L 143.03930856752163,66.4168618266979 L 143.07715736633884,66.4168618266979 L 144.58010592770503,66.4168618266979 L 144.6195317598063,66.4168618266979 L 144.67100039153124,66.4168618266979 L 146.13077766674652,66.4168618266979 L 146.16936121970747,66.4168618266979 L 146.1931063231321,66.4168618266979 L 147.68116267246367,66.4168618266979 L 147.71704017967585,66.4168618266979 L 147.7548710576603,66.4168618266979 L 149.23045450738164,66.4168618266979 L 149.26464745631313,66.4168618266979 L 149.30341021760177,66.4168618266979 L 150.77714782154746,66.4168618266979 L 150.8078820497537,66.4168618266979 L 150.84651936521294,66.4168618266979 L 152.32536440649903,66.4168618266979 L 152.3578727971498,66.4168618266979 L 152.38980772115184,66.4168618266979 L 153.8731867331296,66.4168618266979 L 153.91031869863588,66.4168618266979 L 153.9513932473523,66.4168618266979 L 155.42462906798033,66.4168618266979 L 155.46106212100847,66.4168618266979 L 155.50559539045014,66.4168618266979 L 156.9635805823881,66.4168618266979 L 157.00092759788768,66.4168618266979 L 157.04386591321253,66.4168618266979 L 158.51907302544564,66.4168618266979 L 158.55471756183175,66.4168618266979 L 158.59145526901705,66.4168618266979 L 160.06834693953084,66.4168618266979 L 160.11008455905986,66.4168618266979 L 160.15427733267884,66.4168618266979 L 161.61726243696057,66.4168618266979 L 161.65493202745006,66.4168618266979 L 161.70132906350014,66.4168618266979 L 163.16271921366504,66.4168618266979 L 163.20216296659908,66.4168618266979 L 163.23861394046,66.4168618266979 L 164.71742314008054,66.4168618266979 L 164.75339025145655,66.4168618266979 L 166.269205970754,66.4168618266979 L 166.30212654055856,66.4168618266979 L 167.81165204755254,66.4168618266979 L 167.84890945888824,66.4168618266979 L 167.89315599500554,66.4168618266979 L 169.35800486589568,66.4168618266979 L 169.4050470519256,66.4168618266979 L 170.90966225073973,66.4168618266979 L 170.94166885807286,66.4168618266979 L 170.9838544984212,66.4168618266979 L 172.454581402461,66.4168618266979 L 172.49350545124463,66.4168618266979 L 172.5377699081947,66.4168618266979 L 173.9986761958747,66.4168618266979 L 174.03625618220033,66.4168618266979 L 174.06808358120574,66.4168618266979 L 175.55226903065827,66.4168618266979 L 175.59552992097304,66.4168618266979 L 177.10168631140564,66.4168618266979 L 177.14050283519262,66.4168618266979 L 178.6502433921799,66.4168618266979 L 178.68880902430806,66.4168618266979 L 180.19820908547263,66.4168618266979 L 180.23639838011255,66.4168618266979 L 181.74110318309053,66.4168618266979 L 181.77640722365393,66.4168618266979 L 181.80721313519126,66.4168618266979 L 183.29761711361613,66.4168618266979 L 183.33333333333334,66.4168618266979" stroke="#3b82f6" stroke-width="4" fill="none" opacity="0.4" stroke-dasharray="14250" stroke-dashoffset="14250">
      <animate attributeName="stroke-dashoffset" values="14250;0" dur="3s" begin="3.0999999999999996s" fill="freeze"/>
    </path>
    
    <!-- Animated circle that moves along the path and draws the line -->
    <circle r="5" fill="#3b82f6" opacity="0" filter="url(#trailGlow)">
      <animate attributeName="opacity" values="0;1;1;1" dur="3.2s" begin="2.9s" fill="freeze"/>
      <animate attributeName="r" values="5;6;5" dur="1s" begin="2.9s" repeatCount="3"/>
      <animateMotion dur="3s" begin="2.9s" fill="freeze">
        <mpath href="#path_publicContributions_293.33333333333337"/>
      </animateMotion>
    </circle>
    
    <!-- Small trail dots that fade out -->
    <circle r="2" fill="#3b82f6" opacity="0">
      <animate attributeName="opacity" values="0;0.6;0" dur="0.8s" begin="3.3s" fill="freeze"/>
      <animateMotion dur="3s" begin="2.9s" fill="freeze">
        <mpath href="#path_publicContributions_293.33333333333337"/>
      </animateMotion>
    </circle>
    
    <!-- Hidden path for motion animation -->
    <path id="path_publicContributions_293.33333333333337" d="M 30,160 L 30.032490469818008,160 L 30.065966585438545,160 L 31.546478264172553,160 L 31.57414802997454,160 L 31.610581083002675,160 L 33.09915713648467,160 L 33.12275887324712,160 L 33.151826464005424,160 L 34.64620886730597,160 L 34.67972082459206,160 L 34.71110020277812,160 L 36.19367277728106,160 L 36.223833538838534,160 L 36.25770391278009,160 L 37.73984638729647,160 L 37.76925447387747,160 L 37.80240801450808,160 L 39.291432088809415,160 L 39.31892264628367,160 L 39.34704043290499,160 L 40.83803579881138,160 L 40.86583101044278,160 L 40.89923544273223,160 L 42.3774890965368,160 L 42.41429848705317,160 L 42.44517608192158,160 L 43.93393134373132,160 L 43.95566931388534,160 L 43.99475465016392,160 L 45.48413714112071,160 L 45.516806819266456,160 L 45.55123273902398,160 L 47.03470135516558,160 L 47.06459330423146,160 L 47.0962594157419,160 L 48.5738858403994,160 L 48.60635838938464,160 L 48.638741334206,160 L 50.12703065436362,160 L 50.15742438674715,160 L 50.192154960661824,160 L 51.675874468462254,160 L 51.70384888842139,160 L 51.7347264832898,160 L 53.22536343254073,160 L 53.24529139858465,160 L 53.29421527205578,160 L 54.771089021736806,160 L 54.80124978329428,160 L 54.830998365697965,160 L 56.32231630659428,160 L 56.356563018024076,160 L 56.387727346216856,160 L 57.869923583231554,160 L 57.90008434478903,160 L 57.934850760369244,160 L 59.416168876578055,160 L 59.4458099339851,160 L 59.472816628974485,160 L 60.96687645728511,160 L 60.997503160494695,160 L 61.029043826175716,160 L 62.51989582541992,160 L 62.5487125245194,160 L 62.57713496529787,160 L 64.06244942721511,160 L 64.09325533875244,40 L 64.12535155024943,40 L 65.61659780781466,40 L 65.6379773613132,40 L 65.66745713122529,40 L 67.16108685954937,40 L 67.18499325046896,40 L 67.22741186164339,40 L 68.71129265693878,40 L 68.74277956012148,40 L 68.77043140509069,40 L 70.25338031708188,40 L 70.28787792017049,40 L 70.32165868994818,40 L 71.81127415173103,40 L 71.82654270125389,40 L 71.86792190412744,40 L 73.35653379927498,40 L 73.38916763575517,40 L 73.42603078876988,40 L 74.90501919671814,40 L 74.93577134575716,40 L 74.97517925702564,40 L 76.45099567757305,40 L 76.48370119738433,40 L 76.5218546503587,40 L 78.00793970808522,40 L 78.04437276111335,40 L 79.55034994321824,40 L 79.62696150332413,40 L 81.0989607864908,40 L 81.13704255613409,40 L 81.17318887583785,40 L 82.64694440061632,40 L 82.68706914519575,40 L 82.71468514849943,40 L 84.19858386462758,40 L 84.23216750524477,40 L 84.26987293739981,40 L 85.74149588307824,40 L 85.77506160286265,40 L 85.81282079751603,40 L 87.29222138461807,40 L 87.32521363775375,40 L 87.36060728248103,40 L 88.8460471902277,40 L 88.88939768470632,40 L 90.42865385327124,40 L 90.46969256032212,40 L 91.946261655846,40 L 91.98009618812199,40 L 93.49867171566652,40 L 93.527488414766,40 L 93.57494277994971,40 L 95.03516807598433,40 L 95.06814240828722,40 L 95.10344644885063,40 L 96.58539179420652,40 L 96.62438752632123,40 L 96.66352662509813,40 L 98.13100985840595,40 L 98.16262220741805,40 L 98.20104447288404,40 L 99.67811535172557,40 L 99.71404662143605,40 L 99.76101712413488,40 L 101.22169044098884,40 L 101.26258578137754,40 L 101.30217290097377,40 L 102.77720080487914,40 L 102.81010345385094,40 L 102.84766551934379,40 L 104.32552491482735,40 L 104.35882182212016,40 L 104.39720824592058,40 L 105.87187773317049,40 L 105.9104792069642,40 L 105.95207345983104,40 L 107.42179679723553,40 L 107.45253102544173,40 L 107.48957338678416,40 L 108.97151873214004,40 L 108.99909889377817,40 L 109.03676848426767,40 L 110.51600778387476,40 L 110.5513655869365,40 L 110.59041508154954,40 L 112.06542506462215,40 L 112.10295128844945,40 L 112.1428609830356,40 L 113.6179426494393,40 L 113.64509271109087,40 L 113.68392715571062,40 L 115.16501230109337,40 L 115.20158872078369,40 L 115.23420463643112,40 L 116.70869491535328,40 L 116.74217103097382,40 L 116.7807187422692,40 L 118.25436674205105,40 L 118.29497534911536,40 L 118.33212523545443,40 L 119.80616749355727,40 L 119.83681211759964,40 L 119.87122011652438,40 L 121.36067429081227,40 L 121.39807506881017,40 L 121.44017110499466,40 L 122.90779770496466,40 L 122.94120213725411,40 L 122.97460656954355,40 L 124.45266309418761,40 L 124.48975921802837,40 L 124.52624603355481,40 L 125.99441025850801,40 L 126.0346962905824,40 L 126.07304687271728,40 L 127.5415336726604,40 L 127.58180178390204,40 L 127.62599455752101,40 L 129.104373657155,40 L 129.1363981853209,40 L 129.17781322986002,40 L 130.6488627088897,40 L 130.6765324746917,40 L 130.71160354442907,40 L 132.192832056474,40 L 132.22944431782986,40 L 132.26657628333615,40 L 133.741962603897,40 L 133.7739333695646,40 L 133.8152767307726,40 L 135.28998205968804,40 L 135.32214995451614,40 L 135.36024964499222,40 L 136.8388258737867,40 L 136.87034861863492,40 L 136.90448780506807,40 L 138.385483346287,66.4168618266979 L 138.41532153285453,66.4168618266979 L 139.9326067604394,66.4168618266979 L 139.96903981346753,66.4168618266979 L 140.00344781239227,66.4168618266979 L 141.48254374533718,66.4168618266979 L 141.50763291121982,66.4168618266979 L 141.5503382557186,66.4168618266979 L 143.03930856752163,66.4168618266979 L 143.07715736633884,66.4168618266979 L 144.58010592770503,66.4168618266979 L 144.6195317598063,66.4168618266979 L 144.67100039153124,66.4168618266979 L 146.13077766674652,66.4168618266979 L 146.16936121970747,66.4168618266979 L 146.1931063231321,66.4168618266979 L 147.68116267246367,66.4168618266979 L 147.71704017967585,66.4168618266979 L 147.7548710576603,66.4168618266979 L 149.23045450738164,66.4168618266979 L 149.26464745631313,66.4168618266979 L 149.30341021760177,66.4168618266979 L 150.77714782154746,66.4168618266979 L 150.8078820497537,66.4168618266979 L 150.84651936521294,66.4168618266979 L 152.32536440649903,66.4168618266979 L 152.3578727971498,66.4168618266979 L 152.38980772115184,66.4168618266979 L 153.8731867331296,66.4168618266979 L 153.91031869863588,66.4168618266979 L 153.9513932473523,66.4168618266979 L 155.42462906798033,66.4168618266979 L 155.46106212100847,66.4168618266979 L 155.50559539045014,66.4168618266979 L 156.9635805823881,66.4168618266979 L 157.00092759788768,66.4168618266979 L 157.04386591321253,66.4168618266979 L 158.51907302544564,66.4168618266979 L 158.55471756183175,66.4168618266979 L 158.59145526901705,66.4168618266979 L 160.06834693953084,66.4168618266979 L 160.11008455905986,66.4168618266979 L 160.15427733267884,66.4168618266979 L 161.61726243696057,66.4168618266979 L 161.65493202745006,66.4168618266979 L 161.70132906350014,66.4168618266979 L 163.16271921366504,66.4168618266979 L 163.20216296659908,66.4168618266979 L 163.23861394046,66.4168618266979 L 164.71742314008054,66.4168618266979 L 164.75339025145655,66.4168618266979 L 166.269205970754,66.4168618266979 L 166.30212654055856,66.4168618266979 L 167.81165204755254,66.4168618266979 L 167.84890945888824,66.4168618266979 L 167.89315599500554,66.4168618266979 L 169.35800486589568,66.4168618266979 L 169.4050470519256,66.4168618266979 L 170.90966225073973,66.4168618266979 L 170.94166885807286,66.4168618266979 L 170.9838544984212,66.4168618266979 L 172.454581402461,66.4168618266979 L 172.49350545124463,66.4168618266979 L 172.5377699081947,66.4168618266979 L 173.9986761958747,66.4168618266979 L 174.03625618220033,66.4168618266979 L 174.06808358120574,66.4168618266979 L 175.55226903065827,66.4168618266979 L 175.59552992097304,66.4168618266979 L 177.10168631140564,66.4168618266979 L 177.14050283519262,66.4168618266979 L 178.6502433921799,66.4168618266979 L 178.68880902430806,66.4168618266979 L 180.19820908547263,66.4168618266979 L 180.23639838011255,66.4168618266979 L 181.74110318309053,66.4168618266979 L 181.77640722365393,66.4168618266979 L 181.80721313519126,66.4168618266979 L 183.29761711361613,66.4168618266979 L 183.33333333333334,66.4168618266979" fill="none" stroke="none"/>
  </g>
  <!-- 📊 Total Contributions Chart -->
  <g transform="translate(526.6666666666667, 250)">
    <!-- Chart Background -->
    <rect x="0" y="0" width="213.33333333333334" height="200" fill="#0f172a" stroke="#334155" stroke-width="1" rx="8" filter="url(#shadow)">
      <animate attributeName="opacity" values="0;1" dur="0.5s" begin="2.8s" fill="freeze"/>
    </rect>
    
    <!-- Chart Title -->
    <text x="106.66666666666667" y="25" text-anchor="middle" fill="#f8fafc" font-size="14" font-weight="bold" font-family="Arial, sans-serif">
      📊 Total Contributions
      <animate attributeName="opacity" values="0;1" dur="0.5s" begin="3s" fill="freeze"/>
    </text>
    
    <!-- Y-axis labels -->
    <text x="10" y="45" fill="#94a3b8" font-size="10" font-family="Arial, sans-serif">5,314
      <animate attributeName="opacity" values="0;1" dur="0.5s" begin="3.1999999999999997s" fill="freeze"/>
    </text>
    <text x="10" y="185" fill="#94a3b8" font-size="10" font-family="Arial, sans-serif">4,917
      <animate attributeName="opacity" values="0;1" dur="0.5s" begin="3.1999999999999997s" fill="freeze"/>
    </text>
    
    <!-- Chart Line with draw animation that follows the circle -->
    <path d="M 30,160 L 30.032490469818008,160 L 30.065966585438545,160 L 31.546478264172553,160 L 31.57414802997454,160 L 31.610581083002675,160 L 33.09915713648467,160 L 33.12275887324712,160 L 33.151826464005424,160 L 34.64620886730597,160 L 34.67972082459206,160 L 34.71110020277812,160 L 36.19367277728106,160 L 36.223833538838534,160 L 36.25770391278009,160 L 37.73984638729647,160 L 37.76925447387747,160 L 37.80240801450808,160 L 39.291432088809415,160 L 39.31892264628367,160 L 39.34704043290499,160 L 40.83803579881138,160 L 40.86583101044278,160 L 40.89923544273223,160 L 42.3774890965368,160 L 42.41429848705317,160 L 42.44517608192158,160 L 43.93393134373132,160 L 43.95566931388534,160 L 43.99475465016392,160 L 45.48413714112071,160 L 45.516806819266456,160 L 45.55123273902398,160 L 47.03470135516558,160 L 47.06459330423146,160 L 47.0962594157419,160 L 48.5738858403994,160 L 48.60635838938464,160 L 48.638741334206,160 L 50.12703065436362,160 L 50.15742438674715,160 L 50.192154960661824,160 L 51.675874468462254,160 L 51.70384888842139,160 L 51.7347264832898,160 L 53.22536343254073,160 L 53.24529139858465,160 L 53.29421527205578,160 L 54.771089021736806,160 L 54.80124978329428,160 L 54.830998365697965,160 L 56.32231630659428,160 L 56.356563018024076,160 L 56.387727346216856,160 L 57.869923583231554,160 L 57.90008434478903,160 L 57.934850760369244,160 L 59.416168876578055,160 L 59.4458099339851,160 L 59.472816628974485,160 L 60.96687645728511,160 L 60.997503160494695,160 L 61.029043826175716,160 L 62.51989582541992,160 L 62.5487125245194,160 L 62.57713496529787,160 L 64.06244942721511,160 L 64.09325533875244,40 L 64.12535155024943,40 L 65.61659780781466,40 L 65.6379773613132,40 L 65.66745713122529,40 L 67.16108685954937,40 L 67.18499325046896,40 L 67.22741186164339,40 L 68.71129265693878,40 L 68.74277956012148,40 L 68.77043140509069,40 L 70.25338031708188,40 L 70.28787792017049,40 L 70.32165868994818,40 L 71.81127415173103,40 L 71.82654270125389,40 L 71.86792190412744,40 L 73.35653379927498,40 L 73.38916763575517,40 L 73.42603078876988,40 L 74.90501919671814,40 L 74.93577134575716,40 L 74.97517925702564,40 L 76.45099567757305,40 L 76.48370119738433,40 L 76.5218546503587,40 L 78.00793970808522,40 L 78.04437276111335,40 L 79.55034994321824,40 L 79.62696150332413,40 L 81.0989607864908,40 L 81.13704255613409,40 L 81.17318887583785,40 L 82.64694440061632,40 L 82.68706914519575,40 L 82.71468514849943,40 L 84.19858386462758,40 L 84.23216750524477,40 L 84.26987293739981,40 L 85.74149588307824,40 L 85.77506160286265,40 L 85.81282079751603,40 L 87.29222138461807,40 L 87.32521363775375,40 L 87.36060728248103,40 L 88.8460471902277,40 L 88.88939768470632,40 L 90.42865385327124,40 L 90.46969256032212,40 L 91.946261655846,40 L 91.98009618812199,40 L 93.49867171566652,40 L 93.527488414766,40 L 93.57494277994971,40 L 95.03516807598433,40 L 95.06814240828722,40 L 95.10344644885063,40 L 96.58539179420652,40 L 96.62438752632123,40 L 96.66352662509813,40 L 98.13100985840595,40 L 98.16262220741805,40 L 98.20104447288404,40 L 99.67811535172557,40 L 99.71404662143605,40 L 99.76101712413488,40 L 101.22169044098884,40 L 101.26258578137754,40 L 101.30217290097377,40 L 102.77720080487914,40 L 102.81010345385094,40 L 102.84766551934379,40 L 104.32552491482735,40 L 104.35882182212016,40 L 104.39720824592058,40 L 105.87187773317049,40 L 105.9104792069642,40 L 105.95207345983104,40 L 107.42179679723553,40 L 107.45253102544173,40 L 107.48957338678416,40 L 108.97151873214004,40 L 108.99909889377817,40 L 109.03676848426767,40 L 110.51600778387476,40 L 110.5513655869365,40 L 110.59041508154954,40 L 112.06542506462215,40 L 112.10295128844945,40 L 112.1428609830356,40 L 113.6179426494393,40 L 113.64509271109087,40 L 113.68392715571062,40 L 115.16501230109337,40 L 115.20158872078369,40 L 115.23420463643112,40 L 116.70869491535328,40 L 116.74217103097382,40 L 116.7807187422692,40 L 118.25436674205105,40 L 118.29497534911536,40 L 118.33212523545443,40 L 119.80616749355727,40 L 119.83681211759964,40 L 119.87122011652438,40 L 121.36067429081227,40 L 121.39807506881017,40 L 121.44017110499466,40 L 122.90779770496466,40 L 122.94120213725411,40 L 122.97460656954355,40 L 124.45266309418761,40 L 124.48975921802837,40 L 124.52624603355481,40 L 125.99441025850801,40 L 126.0346962905824,40 L 126.07304687271728,40 L 127.5415336726604,40 L 127.58180178390204,40 L 127.62599455752101,40 L 129.104373657155,40 L 129.1363981853209,40 L 129.17781322986002,40 L 130.6488627088897,40 L 130.6765324746917,40 L 130.71160354442907,40 L 132.192832056474,40 L 132.22944431782986,40 L 132.26657628333615,40 L 133.741962603897,40 L 133.7739333695646,40 L 133.8152767307726,40 L 135.28998205968804,40 L 135.32214995451614,40 L 135.36024964499222,40 L 136.8388258737867,40 L 136.87034861863492,40 L 136.90448780506807,40 L 138.385483346287,72.04030226700252 L 138.41532153285453,72.04030226700252 L 139.9326067604394,72.04030226700252 L 139.96903981346753,72.04030226700252 L 140.00344781239227,72.04030226700252 L 141.48254374533718,72.04030226700252 L 141.50763291121982,72.04030226700252 L 141.5503382557186,72.04030226700252 L 143.03930856752163,72.04030226700252 L 143.07715736633884,72.04030226700252 L 144.58010592770503,72.04030226700252 L 144.6195317598063,72.04030226700252 L 144.67100039153124,72.04030226700252 L 146.13077766674652,72.04030226700252 L 146.16936121970747,72.04030226700252 L 146.1931063231321,72.04030226700252 L 147.68116267246367,72.04030226700252 L 147.71704017967585,72.04030226700252 L 147.7548710576603,72.04030226700252 L 149.23045450738164,72.04030226700252 L 149.26464745631313,72.04030226700252 L 149.30341021760177,72.04030226700252 L 150.77714782154746,72.04030226700252 L 150.8078820497537,72.04030226700252 L 150.84651936521294,72.04030226700252 L 152.32536440649903,72.04030226700252 L 152.3578727971498,72.04030226700252 L 152.38980772115184,72.04030226700252 L 153.8731867331296,72.04030226700252 L 153.91031869863588,72.04030226700252 L 153.9513932473523,72.04030226700252 L 155.42462906798033,72.04030226700252 L 155.46106212100847,72.04030226700252 L 155.50559539045014,72.04030226700252 L 156.9635805823881,72.04030226700252 L 157.00092759788768,72.04030226700252 L 157.04386591321253,72.04030226700252 L 158.51907302544564,72.04030226700252 L 158.55471756183175,72.04030226700252 L 158.59145526901705,72.04030226700252 L 160.06834693953084,72.04030226700252 L 160.11008455905986,72.04030226700252 L 160.15427733267884,72.04030226700252 L 161.61726243696057,72.04030226700252 L 161.65493202745006,72.04030226700252 L 161.70132906350014,72.04030226700252 L 163.16271921366504,72.04030226700252 L 163.20216296659908,72.04030226700252 L 163.23861394046,72.04030226700252 L 164.71742314008054,72.04030226700252 L 164.75339025145655,72.04030226700252 L 166.269205970754,72.04030226700252 L 166.30212654055856,72.04030226700252 L 167.81165204755254,72.04030226700252 L 167.84890945888824,72.04030226700252 L 167.89315599500554,72.04030226700252 L 169.35800486589568,72.04030226700252 L 169.4050470519256,72.04030226700252 L 170.90966225073973,72.04030226700252 L 170.94166885807286,72.04030226700252 L 170.9838544984212,72.04030226700252 L 172.454581402461,72.04030226700252 L 172.49350545124463,72.04030226700252 L 172.5377699081947,72.04030226700252 L 173.9986761958747,72.04030226700252 L 174.03625618220033,72.04030226700252 L 174.06808358120574,72.04030226700252 L 175.55226903065827,72.04030226700252 L 175.59552992097304,72.04030226700252 L 177.10168631140564,72.04030226700252 L 177.14050283519262,72.04030226700252 L 178.6502433921799,72.04030226700252 L 178.68880902430806,72.04030226700252 L 180.19820908547263,72.04030226700252 L 180.23639838011255,72.04030226700252 L 181.74110318309053,72.04030226700252 L 181.77640722365393,72.04030226700252 L 181.80721313519126,72.04030226700252 L 183.29761711361613,72.04030226700252 L 183.33333333333334,72.04030226700252" stroke="#f59e0b" stroke-width="2" fill="none" stroke-dasharray="14250" stroke-dashoffset="14250">
      <animate attributeName="stroke-dashoffset" values="14250;0" dur="3s" begin="3.5999999999999996s" fill="freeze"/>
    </path>
    
    <!-- Glow effect for the line that also follows the circle -->
    <path d="M 30,160 L 30.032490469818008,160 L 30.065966585438545,160 L 31.546478264172553,160 L 31.57414802997454,160 L 31.610581083002675,160 L 33.09915713648467,160 L 33.12275887324712,160 L 33.151826464005424,160 L 34.64620886730597,160 L 34.67972082459206,160 L 34.71110020277812,160 L 36.19367277728106,160 L 36.223833538838534,160 L 36.25770391278009,160 L 37.73984638729647,160 L 37.76925447387747,160 L 37.80240801450808,160 L 39.291432088809415,160 L 39.31892264628367,160 L 39.34704043290499,160 L 40.83803579881138,160 L 40.86583101044278,160 L 40.89923544273223,160 L 42.3774890965368,160 L 42.41429848705317,160 L 42.44517608192158,160 L 43.93393134373132,160 L 43.95566931388534,160 L 43.99475465016392,160 L 45.48413714112071,160 L 45.516806819266456,160 L 45.55123273902398,160 L 47.03470135516558,160 L 47.06459330423146,160 L 47.0962594157419,160 L 48.5738858403994,160 L 48.60635838938464,160 L 48.638741334206,160 L 50.12703065436362,160 L 50.15742438674715,160 L 50.192154960661824,160 L 51.675874468462254,160 L 51.70384888842139,160 L 51.7347264832898,160 L 53.22536343254073,160 L 53.24529139858465,160 L 53.29421527205578,160 L 54.771089021736806,160 L 54.80124978329428,160 L 54.830998365697965,160 L 56.32231630659428,160 L 56.356563018024076,160 L 56.387727346216856,160 L 57.869923583231554,160 L 57.90008434478903,160 L 57.934850760369244,160 L 59.416168876578055,160 L 59.4458099339851,160 L 59.472816628974485,160 L 60.96687645728511,160 L 60.997503160494695,160 L 61.029043826175716,160 L 62.51989582541992,160 L 62.5487125245194,160 L 62.57713496529787,160 L 64.06244942721511,160 L 64.09325533875244,40 L 64.12535155024943,40 L 65.61659780781466,40 L 65.6379773613132,40 L 65.66745713122529,40 L 67.16108685954937,40 L 67.18499325046896,40 L 67.22741186164339,40 L 68.71129265693878,40 L 68.74277956012148,40 L 68.77043140509069,40 L 70.25338031708188,40 L 70.28787792017049,40 L 70.32165868994818,40 L 71.81127415173103,40 L 71.82654270125389,40 L 71.86792190412744,40 L 73.35653379927498,40 L 73.38916763575517,40 L 73.42603078876988,40 L 74.90501919671814,40 L 74.93577134575716,40 L 74.97517925702564,40 L 76.45099567757305,40 L 76.48370119738433,40 L 76.5218546503587,40 L 78.00793970808522,40 L 78.04437276111335,40 L 79.55034994321824,40 L 79.62696150332413,40 L 81.0989607864908,40 L 81.13704255613409,40 L 81.17318887583785,40 L 82.64694440061632,40 L 82.68706914519575,40 L 82.71468514849943,40 L 84.19858386462758,40 L 84.23216750524477,40 L 84.26987293739981,40 L 85.74149588307824,40 L 85.77506160286265,40 L 85.81282079751603,40 L 87.29222138461807,40 L 87.32521363775375,40 L 87.36060728248103,40 L 88.8460471902277,40 L 88.88939768470632,40 L 90.42865385327124,40 L 90.46969256032212,40 L 91.946261655846,40 L 91.98009618812199,40 L 93.49867171566652,40 L 93.527488414766,40 L 93.57494277994971,40 L 95.03516807598433,40 L 95.06814240828722,40 L 95.10344644885063,40 L 96.58539179420652,40 L 96.62438752632123,40 L 96.66352662509813,40 L 98.13100985840595,40 L 98.16262220741805,40 L 98.20104447288404,40 L 99.67811535172557,40 L 99.71404662143605,40 L 99.76101712413488,40 L 101.22169044098884,40 L 101.26258578137754,40 L 101.30217290097377,40 L 102.77720080487914,40 L 102.81010345385094,40 L 102.84766551934379,40 L 104.32552491482735,40 L 104.35882182212016,40 L 104.39720824592058,40 L 105.87187773317049,40 L 105.9104792069642,40 L 105.95207345983104,40 L 107.42179679723553,40 L 107.45253102544173,40 L 107.48957338678416,40 L 108.97151873214004,40 L 108.99909889377817,40 L 109.03676848426767,40 L 110.51600778387476,40 L 110.5513655869365,40 L 110.59041508154954,40 L 112.06542506462215,40 L 112.10295128844945,40 L 112.1428609830356,40 L 113.6179426494393,40 L 113.64509271109087,40 L 113.68392715571062,40 L 115.16501230109337,40 L 115.20158872078369,40 L 115.23420463643112,40 L 116.70869491535328,40 L 116.74217103097382,40 L 116.7807187422692,40 L 118.25436674205105,40 L 118.29497534911536,40 L 118.33212523545443,40 L 119.80616749355727,40 L 119.83681211759964,40 L 119.87122011652438,40 L 121.36067429081227,40 L 121.39807506881017,40 L 121.44017110499466,40 L 122.90779770496466,40 L 122.94120213725411,40 L 122.97460656954355,40 L 124.45266309418761,40 L 124.48975921802837,40 L 124.52624603355481,40 L 125.99441025850801,40 L 126.0346962905824,40 L 126.07304687271728,40 L 127.5415336726604,40 L 127.58180178390204,40 L 127.62599455752101,40 L 129.104373657155,40 L 129.1363981853209,40 L 129.17781322986002,40 L 130.6488627088897,40 L 130.6765324746917,40 L 130.71160354442907,40 L 132.192832056474,40 L 132.22944431782986,40 L 132.26657628333615,40 L 133.741962603897,40 L 133.7739333695646,40 L 133.8152767307726,40 L 135.28998205968804,40 L 135.32214995451614,40 L 135.36024964499222,40 L 136.8388258737867,40 L 136.87034861863492,40 L 136.90448780506807,40 L 138.385483346287,72.04030226700252 L 138.41532153285453,72.04030226700252 L 139.9326067604394,72.04030226700252 L 139.96903981346753,72.04030226700252 L 140.00344781239227,72.04030226700252 L 141.48254374533718,72.04030226700252 L 141.50763291121982,72.04030226700252 L 141.5503382557186,72.04030226700252 L 143.03930856752163,72.04030226700252 L 143.07715736633884,72.04030226700252 L 144.58010592770503,72.04030226700252 L 144.6195317598063,72.04030226700252 L 144.67100039153124,72.04030226700252 L 146.13077766674652,72.04030226700252 L 146.16936121970747,72.04030226700252 L 146.1931063231321,72.04030226700252 L 147.68116267246367,72.04030226700252 L 147.71704017967585,72.04030226700252 L 147.7548710576603,72.04030226700252 L 149.23045450738164,72.04030226700252 L 149.26464745631313,72.04030226700252 L 149.30341021760177,72.04030226700252 L 150.77714782154746,72.04030226700252 L 150.8078820497537,72.04030226700252 L 150.84651936521294,72.04030226700252 L 152.32536440649903,72.04030226700252 L 152.3578727971498,72.04030226700252 L 152.38980772115184,72.04030226700252 L 153.8731867331296,72.04030226700252 L 153.91031869863588,72.04030226700252 L 153.9513932473523,72.04030226700252 L 155.42462906798033,72.04030226700252 L 155.46106212100847,72.04030226700252 L 155.50559539045014,72.04030226700252 L 156.9635805823881,72.04030226700252 L 157.00092759788768,72.04030226700252 L 157.04386591321253,72.04030226700252 L 158.51907302544564,72.04030226700252 L 158.55471756183175,72.04030226700252 L 158.59145526901705,72.04030226700252 L 160.06834693953084,72.04030226700252 L 160.11008455905986,72.04030226700252 L 160.15427733267884,72.04030226700252 L 161.61726243696057,72.04030226700252 L 161.65493202745006,72.04030226700252 L 161.70132906350014,72.04030226700252 L 163.16271921366504,72.04030226700252 L 163.20216296659908,72.04030226700252 L 163.23861394046,72.04030226700252 L 164.71742314008054,72.04030226700252 L 164.75339025145655,72.04030226700252 L 166.269205970754,72.04030226700252 L 166.30212654055856,72.04030226700252 L 167.81165204755254,72.04030226700252 L 167.84890945888824,72.04030226700252 L 167.89315599500554,72.04030226700252 L 169.35800486589568,72.04030226700252 L 169.4050470519256,72.04030226700252 L 170.90966225073973,72.04030226700252 L 170.94166885807286,72.04030226700252 L 170.9838544984212,72.04030226700252 L 172.454581402461,72.04030226700252 L 172.49350545124463,72.04030226700252 L 172.5377699081947,72.04030226700252 L 173.9986761958747,72.04030226700252 L 174.03625618220033,72.04030226700252 L 174.06808358120574,72.04030226700252 L 175.55226903065827,72.04030226700252 L 175.59552992097304,72.04030226700252 L 177.10168631140564,72.04030226700252 L 177.14050283519262,72.04030226700252 L 178.6502433921799,72.04030226700252 L 178.68880902430806,72.04030226700252 L 180.19820908547263,72.04030226700252 L 180.23639838011255,72.04030226700252 L 181.74110318309053,72.04030226700252 L 181.77640722365393,72.04030226700252 L 181.80721313519126,72.04030226700252 L 183.29761711361613,72.04030226700252 L 183.33333333333334,72.04030226700252" stroke="#f59e0b" stroke-width="4" fill="none" opacity="0.4" stroke-dasharray="14250" stroke-dashoffset="14250">
      <animate attributeName="stroke-dashoffset" values="14250;0" dur="3s" begin="3.5999999999999996s" fill="freeze"/>
    </path>
    
    <!-- Animated circle that moves along the path and draws the line -->
    <circle r="5" fill="#f59e0b" opacity="0" filter="url(#trailGlow)">
      <animate attributeName="opacity" values="0;1;1;1" dur="3.2s" begin="3.4s" fill="freeze"/>
      <animate attributeName="r" values="5;6;5" dur="1s" begin="3.4s" repeatCount="3"/>
      <animateMotion dur="3s" begin="3.4s" fill="freeze">
        <mpath href="#path_totalContributions_526.6666666666667"/>
      </animateMotion>
    </circle>
    
    <!-- Small trail dots that fade out -->
    <circle r="2" fill="#f59e0b" opacity="0">
      <animate attributeName="opacity" values="0;0.6;0" dur="0.8s" begin="3.8s" fill="freeze"/>
      <animateMotion dur="3s" begin="3.4s" fill="freeze">
        <mpath href="#path_totalContributions_526.6666666666667"/>
      </animateMotion>
    </circle>
    
    <!-- Hidden path for motion animation -->
    <path id="path_totalContributions_526.6666666666667" d="M 30,160 L 30.032490469818008,160 L 30.065966585438545,160 L 31.546478264172553,160 L 31.57414802997454,160 L 31.610581083002675,160 L 33.09915713648467,160 L 33.12275887324712,160 L 33.151826464005424,160 L 34.64620886730597,160 L 34.67972082459206,160 L 34.71110020277812,160 L 36.19367277728106,160 L 36.223833538838534,160 L 36.25770391278009,160 L 37.73984638729647,160 L 37.76925447387747,160 L 37.80240801450808,160 L 39.291432088809415,160 L 39.31892264628367,160 L 39.34704043290499,160 L 40.83803579881138,160 L 40.86583101044278,160 L 40.89923544273223,160 L 42.3774890965368,160 L 42.41429848705317,160 L 42.44517608192158,160 L 43.93393134373132,160 L 43.95566931388534,160 L 43.99475465016392,160 L 45.48413714112071,160 L 45.516806819266456,160 L 45.55123273902398,160 L 47.03470135516558,160 L 47.06459330423146,160 L 47.0962594157419,160 L 48.5738858403994,160 L 48.60635838938464,160 L 48.638741334206,160 L 50.12703065436362,160 L 50.15742438674715,160 L 50.192154960661824,160 L 51.675874468462254,160 L 51.70384888842139,160 L 51.7347264832898,160 L 53.22536343254073,160 L 53.24529139858465,160 L 53.29421527205578,160 L 54.771089021736806,160 L 54.80124978329428,160 L 54.830998365697965,160 L 56.32231630659428,160 L 56.356563018024076,160 L 56.387727346216856,160 L 57.869923583231554,160 L 57.90008434478903,160 L 57.934850760369244,160 L 59.416168876578055,160 L 59.4458099339851,160 L 59.472816628974485,160 L 60.96687645728511,160 L 60.997503160494695,160 L 61.029043826175716,160 L 62.51989582541992,160 L 62.5487125245194,160 L 62.57713496529787,160 L 64.06244942721511,160 L 64.09325533875244,40 L 64.12535155024943,40 L 65.61659780781466,40 L 65.6379773613132,40 L 65.66745713122529,40 L 67.16108685954937,40 L 67.18499325046896,40 L 67.22741186164339,40 L 68.71129265693878,40 L 68.74277956012148,40 L 68.77043140509069,40 L 70.25338031708188,40 L 70.28787792017049,40 L 70.32165868994818,40 L 71.81127415173103,40 L 71.82654270125389,40 L 71.86792190412744,40 L 73.35653379927498,40 L 73.38916763575517,40 L 73.42603078876988,40 L 74.90501919671814,40 L 74.93577134575716,40 L 74.97517925702564,40 L 76.45099567757305,40 L 76.48370119738433,40 L 76.5218546503587,40 L 78.00793970808522,40 L 78.04437276111335,40 L 79.55034994321824,40 L 79.62696150332413,40 L 81.0989607864908,40 L 81.13704255613409,40 L 81.17318887583785,40 L 82.64694440061632,40 L 82.68706914519575,40 L 82.71468514849943,40 L 84.19858386462758,40 L 84.23216750524477,40 L 84.26987293739981,40 L 85.74149588307824,40 L 85.77506160286265,40 L 85.81282079751603,40 L 87.29222138461807,40 L 87.32521363775375,40 L 87.36060728248103,40 L 88.8460471902277,40 L 88.88939768470632,40 L 90.42865385327124,40 L 90.46969256032212,40 L 91.946261655846,40 L 91.98009618812199,40 L 93.49867171566652,40 L 93.527488414766,40 L 93.57494277994971,40 L 95.03516807598433,40 L 95.06814240828722,40 L 95.10344644885063,40 L 96.58539179420652,40 L 96.62438752632123,40 L 96.66352662509813,40 L 98.13100985840595,40 L 98.16262220741805,40 L 98.20104447288404,40 L 99.67811535172557,40 L 99.71404662143605,40 L 99.76101712413488,40 L 101.22169044098884,40 L 101.26258578137754,40 L 101.30217290097377,40 L 102.77720080487914,40 L 102.81010345385094,40 L 102.84766551934379,40 L 104.32552491482735,40 L 104.35882182212016,40 L 104.39720824592058,40 L 105.87187773317049,40 L 105.9104792069642,40 L 105.95207345983104,40 L 107.42179679723553,40 L 107.45253102544173,40 L 107.48957338678416,40 L 108.97151873214004,40 L 108.99909889377817,40 L 109.03676848426767,40 L 110.51600778387476,40 L 110.5513655869365,40 L 110.59041508154954,40 L 112.06542506462215,40 L 112.10295128844945,40 L 112.1428609830356,40 L 113.6179426494393,40 L 113.64509271109087,40 L 113.68392715571062,40 L 115.16501230109337,40 L 115.20158872078369,40 L 115.23420463643112,40 L 116.70869491535328,40 L 116.74217103097382,40 L 116.7807187422692,40 L 118.25436674205105,40 L 118.29497534911536,40 L 118.33212523545443,40 L 119.80616749355727,40 L 119.83681211759964,40 L 119.87122011652438,40 L 121.36067429081227,40 L 121.39807506881017,40 L 121.44017110499466,40 L 122.90779770496466,40 L 122.94120213725411,40 L 122.97460656954355,40 L 124.45266309418761,40 L 124.48975921802837,40 L 124.52624603355481,40 L 125.99441025850801,40 L 126.0346962905824,40 L 126.07304687271728,40 L 127.5415336726604,40 L 127.58180178390204,40 L 127.62599455752101,40 L 129.104373657155,40 L 129.1363981853209,40 L 129.17781322986002,40 L 130.6488627088897,40 L 130.6765324746917,40 L 130.71160354442907,40 L 132.192832056474,40 L 132.22944431782986,40 L 132.26657628333615,40 L 133.741962603897,40 L 133.7739333695646,40 L 133.8152767307726,40 L 135.28998205968804,40 L 135.32214995451614,40 L 135.36024964499222,40 L 136.8388258737867,40 L 136.87034861863492,40 L 136.90448780506807,40 L 138.385483346287,72.04030226700252 L 138.41532153285453,72.04030226700252 L 139.9326067604394,72.04030226700252 L 139.96903981346753,72.04030226700252 L 140.00344781239227,72.04030226700252 L 141.48254374533718,72.04030226700252 L 141.50763291121982,72.04030226700252 L 141.5503382557186,72.04030226700252 L 143.03930856752163,72.04030226700252 L 143.07715736633884,72.04030226700252 L 144.58010592770503,72.04030226700252 L 144.6195317598063,72.04030226700252 L 144.67100039153124,72.04030226700252 L 146.13077766674652,72.04030226700252 L 146.16936121970747,72.04030226700252 L 146.1931063231321,72.04030226700252 L 147.68116267246367,72.04030226700252 L 147.71704017967585,72.04030226700252 L 147.7548710576603,72.04030226700252 L 149.23045450738164,72.04030226700252 L 149.26464745631313,72.04030226700252 L 149.30341021760177,72.04030226700252 L 150.77714782154746,72.04030226700252 L 150.8078820497537,72.04030226700252 L 150.84651936521294,72.04030226700252 L 152.32536440649903,72.04030226700252 L 152.3578727971498,72.04030226700252 L 152.38980772115184,72.04030226700252 L 153.8731867331296,72.04030226700252 L 153.91031869863588,72.04030226700252 L 153.9513932473523,72.04030226700252 L 155.42462906798033,72.04030226700252 L 155.46106212100847,72.04030226700252 L 155.50559539045014,72.04030226700252 L 156.9635805823881,72.04030226700252 L 157.00092759788768,72.04030226700252 L 157.04386591321253,72.04030226700252 L 158.51907302544564,72.04030226700252 L 158.55471756183175,72.04030226700252 L 158.59145526901705,72.04030226700252 L 160.06834693953084,72.04030226700252 L 160.11008455905986,72.04030226700252 L 160.15427733267884,72.04030226700252 L 161.61726243696057,72.04030226700252 L 161.65493202745006,72.04030226700252 L 161.70132906350014,72.04030226700252 L 163.16271921366504,72.04030226700252 L 163.20216296659908,72.04030226700252 L 163.23861394046,72.04030226700252 L 164.71742314008054,72.04030226700252 L 164.75339025145655,72.04030226700252 L 166.269205970754,72.04030226700252 L 166.30212654055856,72.04030226700252 L 167.81165204755254,72.04030226700252 L 167.84890945888824,72.04030226700252 L 167.89315599500554,72.04030226700252 L 169.35800486589568,72.04030226700252 L 169.4050470519256,72.04030226700252 L 170.90966225073973,72.04030226700252 L 170.94166885807286,72.04030226700252 L 170.9838544984212,72.04030226700252 L 172.454581402461,72.04030226700252 L 172.49350545124463,72.04030226700252 L 172.5377699081947,72.04030226700252 L 173.9986761958747,72.04030226700252 L 174.03625618220033,72.04030226700252 L 174.06808358120574,72.04030226700252 L 175.55226903065827,72.04030226700252 L 175.59552992097304,72.04030226700252 L 177.10168631140564,72.04030226700252 L 177.14050283519262,72.04030226700252 L 178.6502433921799,72.04030226700252 L 178.68880902430806,72.04030226700252 L 180.19820908547263,72.04030226700252 L 180.23639838011255,72.04030226700252 L 181.74110318309053,72.04030226700252 L 181.77640722365393,72.04030226700252 L 181.80721313519126,72.04030226700252 L 183.29761711361613,72.04030226700252 L 183.33333333333334,72.04030226700252" fill="none" stroke="none"/>
  </g>
  
  <!-- Footer -->
  <text x="400" y="580" text-anchor="middle" fill="#64748b" font-size="12" font-family="Arial, sans-serif">
    Generated by GitHub User Rank Tracker • 4/10/2026
    <animate attributeName="opacity" values="0;1" dur="0.5s" begin="5s" fill="freeze"/>
  </text>
</svg>