<svg width="800" height="600" xmlns="http://www.w3.org/2000/svg">
  <defs>
    <linearGradient id="bgGradient" x1="0%" y1="0%" x2="100%" y2="100%">
      <stop offset="0%" style="stop-color:#f8fafc;stop-opacity:1" />
      <stop offset="100%" style="stop-color:#e2e8f0;stop-opacity:1" />
    </linearGradient>
    <filter id="shadow" x="-20%" y="-20%" width="140%" height="140%">
      <feDropShadow dx="2" dy="2" stdDeviation="3" flood-color="#00000020" flood-opacity="0.1"/>
    </filter>
    <!-- Trail effect filter -->
    <filter id="trailGlow" x="-50%" y="-50%" width="200%" height="200%">
      <feGaussianBlur stdDeviation="3" result="coloredBlur"/>
      <feMerge> 
        <feMergeNode in="coloredBlur"/>
        <feMergeNode in="SourceGraphic"/>
      </feMerge>
    </filter>
  </defs>
  
  <!-- Background -->
  <rect width="800" height="600" fill="url(#bgGradient)" rx="12"/>
  
  <!-- Header -->
  <text x="400" y="40" text-anchor="middle" fill="#0f172a" font-size="24" font-weight="bold" font-family="Arial, sans-serif">
    GitHub Progress Report
    <animate attributeName="opacity" values="0;1" dur="0.8s" begin="0s" fill="freeze"/>
    <animateTransform attributeName="transform" type="translate" values="0,-20;0,0" dur="0.8s" begin="0s" fill="freeze"/>
  </text>
  
  <!-- User Info -->
  <text x="400" y="70" text-anchor="middle" fill="#475569" font-size="16" font-family="Arial, sans-serif">
    @maifeeulasad • BANGLADESH • 100 days analyzed
    <animate attributeName="opacity" values="0;1" dur="0.6s" begin="0.3s" fill="freeze"/>
  </text>
  
  <!-- Progress Cards -->
  <!-- Followers Card -->
  <g transform="translate(60, 100)">
    <rect width="206.66666666666666" height="120" fill="#ffffff" stroke="#e2e8f0" stroke-width="1" rx="8" filter="url(#shadow)">
      <animate attributeName="opacity" values="0;1" dur="0.6s" begin="0.2s" fill="freeze"/>
      <animateTransform attributeName="transform" type="scale" values="0.8;1" dur="0.6s" begin="0.2s" fill="freeze"/>
    </rect>
    <text x="103.33333333333333" y="25" text-anchor="middle" fill="#64748b" font-size="14" font-weight="bold" font-family="Arial, sans-serif">FOLLOWERS
      <animate attributeName="opacity" values="0;1" dur="0.5s" begin="0.4s" fill="freeze"/>
    </text>
    
    <text x="103.33333333333333" y="50" text-anchor="middle" fill="#22c55e" font-size="32" font-weight="bold" font-family="Arial, sans-serif">
      ↗
      <animate attributeName="opacity" values="0;1" dur="0.5s" begin="0.6s" fill="freeze"/>
      <animateTransform attributeName="transform" type="scale" values="0;1.2;1" dur="0.8s" begin="0.6s" fill="freeze"/>
    </text>
    
    <text x="103.33333333333333" y="75" text-anchor="middle" fill="#1e293b" font-size="18" font-weight="bold" font-family="Arial, sans-serif">
      +1
      <animate attributeName="opacity" values="0;1" dur="0.5s" begin="0.8s" fill="freeze"/>
    </text>
    
    <text x="103.33333333333333" y="95" text-anchor="middle" fill="#64748b" font-size="12" font-family="Arial, sans-serif">
      #467 → #466
      <animate attributeName="opacity" values="0;1" dur="0.5s" begin="1s" fill="freeze"/>
    </text>
  </g>
  
  <!-- Public Contributions Card -->
  <g transform="translate(296.66666666666663, 100)">
    <rect width="206.66666666666666" height="120" fill="#ffffff" stroke="#e2e8f0" stroke-width="1" rx="8" filter="url(#shadow)">
      <animate attributeName="opacity" values="0;1" dur="0.6s" begin="0.4s" fill="freeze"/>
      <animateTransform attributeName="transform" type="scale" values="0.8;1" dur="0.6s" begin="0.4s" fill="freeze"/>
    </rect>
    <text x="103.33333333333333" y="25" text-anchor="middle" fill="#64748b" font-size="14" font-weight="bold" font-family="Arial, sans-serif">PUBLIC
      <animate attributeName="opacity" values="0;1" dur="0.5s" begin="0.6s" fill="freeze"/>
    </text>
    
    <text x="103.33333333333333" y="50" text-anchor="middle" fill="#6b7280" font-size="32" font-weight="bold" font-family="Arial, sans-serif">
      →
      <animate attributeName="opacity" values="0;1" dur="0.5s" begin="0.8s" fill="freeze"/>
      <animateTransform attributeName="transform" type="scale" values="0;1.2;1" dur="0.8s" begin="0.8s" fill="freeze"/>
    </text>
    
    <text x="103.33333333333333" y="75" text-anchor="middle" fill="#1e293b" font-size="18" font-weight="bold" font-family="Arial, sans-serif">
      0
      <animate attributeName="opacity" values="0;1" dur="0.5s" begin="1s" fill="freeze"/>
    </text>
    
    <text x="103.33333333333333" y="95" text-anchor="middle" fill="#64748b" font-size="12" font-family="Arial, sans-serif">
      #7 → #7
      <animate attributeName="opacity" values="0;1" dur="0.5s" begin="1.2s" fill="freeze"/>
    </text>
  </g>
  
  <!-- Total Contributions Card -->
  <g transform="translate(533.3333333333333, 100)">
    <rect width="206.66666666666666" height="120" fill="#ffffff" stroke="#e2e8f0" stroke-width="1" rx="8" filter="url(#shadow)">
      <animate attributeName="opacity" values="0;1" dur="0.6s" begin="0.6s" fill="freeze"/>
      <animateTransform attributeName="transform" type="scale" values="0.8;1" dur="0.6s" begin="0.6s" fill="freeze"/>
    </rect>
    <text x="103.33333333333333" y="25" text-anchor="middle" fill="#64748b" font-size="14" font-weight="bold" font-family="Arial, sans-serif">TOTAL
      <animate attributeName="opacity" values="0;1" dur="0.5s" begin="0.8s" fill="freeze"/>
    </text>
    
    <text x="103.33333333333333" y="50" text-anchor="middle" fill="#22c55e" font-size="32" font-weight="bold" font-family="Arial, sans-serif">
      ↗
      <animate attributeName="opacity" values="0;1" dur="0.5s" begin="1s" fill="freeze"/>
      <animateTransform attributeName="transform" type="scale" values="0;1.2;1" dur="0.8s" begin="1s" fill="freeze"/>
    </text>
    
    <text x="103.33333333333333" y="75" text-anchor="middle" fill="#1e293b" font-size="18" font-weight="bold" font-family="Arial, sans-serif">
      +9
      <animate attributeName="opacity" values="0;1" dur="0.5s" begin="1.2s" fill="freeze"/>
    </text>
    
    <text x="103.33333333333333" y="95" text-anchor="middle" fill="#64748b" font-size="12" font-family="Arial, sans-serif">
      #24 → #15
      <animate attributeName="opacity" values="0;1" dur="0.5s" begin="1.4s" fill="freeze"/>
    </text>
  </g>
  
  <!-- Timeline Charts (if we have snapshots) -->
  
  <!-- 👥 Followers Count Chart -->
  <g transform="translate(60, 250)">
    <!-- Chart Background -->
    <rect x="0" y="0" width="213.33333333333334" height="200" fill="#ffffff" stroke="#e2e8f0" stroke-width="1" rx="8" filter="url(#shadow)">
      <animate attributeName="opacity" values="0;1" dur="0.5s" begin="1.8s" fill="freeze"/>
    </rect>
    
    <!-- Chart Title -->
    <text x="106.66666666666667" y="25" text-anchor="middle" fill="#1e293b" font-size="14" font-weight="bold" font-family="Arial, sans-serif">
      👥 Followers Count
      <animate attributeName="opacity" values="0;1" dur="0.5s" begin="2s" fill="freeze"/>
    </text>
    
    <!-- Y-axis labels -->
    <text x="10" y="45" fill="#64748b" font-size="10" font-family="Arial, sans-serif">150
      <animate attributeName="opacity" values="0;1" dur="0.5s" begin="2.2s" fill="freeze"/>
    </text>
    <text x="10" y="185" fill="#64748b" font-size="10" font-family="Arial, sans-serif">143
      <animate attributeName="opacity" values="0;1" dur="0.5s" begin="2.2s" fill="freeze"/>
    </text>
    
    <!-- Chart Line with draw animation that follows the circle -->
    <path d="M 30,160 L 30.017131082779017,160 L 30.046142822338876,160 L 31.54287262267076,160 L 31.565272050990604,160 L 31.59096867515913,160 L 33.09079855637048,160 L 33.11167482356457,160 L 33.1433386554375,160 L 34.63836609921708,160 L 34.66126727473129,160 L 34.69112123279597,160 L 36.18365786014638,160 L 36.20571681715577,160 L 36.238204947990866,160 L 37.730938690310495,160 L 37.76331930388966,160 L 37.79638086008974,160 L 39.28443760177618,160 L 39.30821683488053,160 L 39.33812455157319,160 L 40.83229185730528,160 L 40.85573061909916,160 L 40.88563833579182,160 L 42.38127504402169,160 L 42.41206081830448,160 L 42.44843748989591,160 L 43.9299356789703,160 L 43.95229926820484,160 L 43.98089885828361,160 L 45.479832762362165,160 L 45.498809558034736,160 L 45.528753113812705,160 L 47.022992097715424,160 L 47.04531984786465,160 L 47.07382984023013,160 L 47.11284068459197,160 L 48.575344158451145,160 L 48.60514435788786,160 L 48.634729522812705,160 L 50.11977578133296,160 L 50.14706724479786,160 L 50.17557723716335,160 L 51.670694278656214,160 L 51.686033407169646,160 L 51.72203376836529,160 L 53.217294166199395,160 L 53.24273991677074,160 L 53.26365202305014,160 L 54.76670742193955,160 L 54.79075544818373,160 L 54.820018061340775,160 L 56.315798125911904,160 L 56.34149475008043,160 L 56.36966427113546,160 L 57.86266680659492,160 L 57.883077165679964,160 L 57.91459764121164,160 L 59.413710740716766,160 L 59.43575177818349,160 L 59.466662989264876,160 L 60.96086613408228,160 L 60.98654483870815,160 L 61.01747396933219,160 L 62.508218642417006,160 L 62.53300136991008,160 L 62.55154809655891,160 L 64.05343872517568,160 L 64.08848935061059,160 L 64.11216106645898,160 L 65.60503816511985,160 L 65.6291041109067,160 L 67.17916247018246,160 L 67.20557587605722,160 L 68.69798706660904,160 L 68.72121079389106,160 L 68.74886064820907,160 L 70.24969402380916,160 L 70.27858032657042,160 L 70.30614058317516,160 L 71.79796042881934,160 L 71.82765311100012,160 L 71.85662901147467,160 L 73.34887892614259,160 L 73.37658253908856,160 L 73.40041553082088,160 L 74.89275504320207,160 L 74.92108584014102,57.14285714285715 L 74.9501692578715,57.14285714285715 L 76.46937016469384,57.14285714285715 L 76.49528182337423,57.14285714285715 L 77.9847542089305,57.14285714285715 L 78.01260117821772,57.14285714285715 L 78.03125542212248,57.14285714285715 L 79.53685539606903,57.14285714285715 L 79.56457692855767,57.14285714285715 L 79.59288980595394,57.14285714285715 L 81.08216507654099,57.14285714285715 L 81.1109976206743,57.14285714285715 L 81.14644247604761,57.14285714285715 L 82.63677499965135,57.14285714285715 L 82.66702318765446,57.14285714285715 L 82.68854455838417,57.14285714285715 L 84.18398415164484,57.14285714285715 L 84.20819345377292,57.14285714285715 L 84.23783237732573,57.14285714285715 L 85.73477721216949,57.14285714285715 L 85.78964685178178,57.14285714285715 L 87.27874292694227,57.14285714285715 L 87.30841768958038,57.14285714285715 L 87.33576291167326,57.14285714285715 L 88.82867584941943,57.14285714285715 L 88.85675577276119,57.14285714285715 L 88.8860721445462,57.14285714285715 L 90.37755151887993,57.14285714285715 L 90.40618694804401,57.14285714285715 L 90.43840628573926,57.14285714285715 L 91.9250832226412,57.14285714285715 L 91.95522389338839,57.14285714285715 L 91.98618886309774,57.14285714285715 L 93.47600171996446,57.14285714285715 L 93.50556896534664,57.14285714285715 L 93.53375640594433,57.14285714285715 L 95.02638263100803,57.14285714285715 L 95.04765312814055,57.14285714285715 L 95.07709493672415,57.14285714285715 L 96.56918357550816,57.14285714285715 L 96.59654671714368,57.14285714285715 L 96.62826430764459,57.14285714285715 L 98.11813092313928,57.14285714285715 L 98.14533278889088,57.14285714285715 L 98.17527634466886,57.14285714285715 L 99.66652276494804,57.14285714285715 L 99.69229106728719,57.14285714285715 L 99.72406241641605,57.14285714285715 L 101.21598977931616,57.14285714285715 L 101.2417580816553,57.14285714285715 L 101.26564483201558,57.14285714285715 L 102.76954244940983,57.14285714285715 L 102.79149388916326,57.14285714285715 L 102.82344443371869,57.14285714285715 L 104.31307809515886,57.14285714285715 L 104.33834465030364,57.14285714285715 L 104.36676504495586,57.14285714285715 L 105.86059187937748,57.14285714285715 L 105.88284795135608,57.14285714285715 L 105.91650085246381,57.14285714285715 L 107.40724552554865,57.14285714285715 L 107.4333722187409,57.14285714285715 L 107.46543028055227,57.14285714285715 L 108.95377373492119,57.14285714285715 L 108.97814431293318,57.14285714285715 L 109.0128186279723,57.14285714285715 L 110.49791864512052,57.14285714285715 L 110.52940328156689,57.14285714285715 L 110.5617301365181,57.14285714285715 L 112.05161467155544,57.14285714285715 L 112.07675578990163,57.14285714285715 L 112.1062513571132,57.14285714285715 L 113.60194182397105,57.14285714285715 L 113.6290899310947,57.14285714285715 L 113.66207980912415,57.14285714285715 L 115.1475740562108,57.14285714285715 L 115.1792916467117,57.14285714285715 L 115.2143422721466,57.14285714285715 L 116.69888678347247,57.14285714285715 L 116.72300648788729,57.14285714285715 L 116.75456280250428,57.14285714285715 L 118.2481925219567,57.14285714285715 L 118.2706098698192,57.14285714285715 L 118.30223786260682,57.14285714285715 L 119.7930362943196,57.14285714285715 L 119.81776526318473,57.14285714285715 L 119.84873023289407,57.14285714285715 L 121.34185820515212,57.14285714285715 L 121.36993812849389,57.14285714285715 L 122.89257958750615,57.14285714285715 L 122.91838372893062,57.14285714285715 L 122.94284390465589,57.14285714285715 L 124.44152693513725,57.14285714285715 L 124.47125545640336,57.14285714285715 L 124.50505171385234,57.14285714285715 L 125.9799375916867,57.14285714285715 L 126.01618882647955,57.14285714285715 L 126.04710003756092,57.14285714285715 L 127.53452959525441,57.14285714285715 L 127.55393645995072,57.14285714285715 L 127.59072528102323,57.14285714285715 L 129.0832798279163,57.14285714285715 L 129.11080424543573,57.14285714285715 L 129.14132122657867,57.14285714285715 L 130.63382201484376,57.14285714285715 L 130.65982327123743,57.14285714285715 L 130.68734768875686,57.14285714285715 L 132.1779669250431,57.14285714285715 L 132.20764168768125,57.14285714285715 L 132.23706557672216,57.14285714285715 L 133.72530151383518,57.14285714285715 L 133.75250337958678,57.14285714285715 L 133.78318163661368,57.14285714285715 L 135.27862122987432,57.14285714285715 L 135.30920988918788,57.14285714285715 L 135.34219976721735,57.14285714285715 L 136.82941429039897,57.14285714285715 L 136.85254841996772,57.14285714285715 L 136.90367287516492,57.14285714285715 L 138.3783795575727,57.14285714285715 L 138.40190791707988,57.14285714285715 L 138.43147516246208,57.14285714285715 L 139.9214492952127,57.14285714285715 L 139.94908122998805,57.14285714285715 L 139.97829008451714,57.14285714285715 L 141.46899891851666,57.14285714285715 L 141.49560943936063,57.14285714285715 L 141.52632353547278,57.14285714285715 L 143.0182867374582,57.14285714285715 L 143.04625914354403,57.14285714285715 L 143.0718482504566,57.14285714285715 L 144.56438487780704,57.14285714285715 L 144.5920526516677,57.14285714285715 L 144.62111814985553,57.14285714285715 L 146.11953238719707,57.14285714285715 L 146.14868748309817,57.14285714285715 L 146.17916862515582,57.14285714285715 L 147.66192118221613,57.14285714285715 L 147.69123755400113,40 L 147.72164701788813,40 L 149.21644150761318,40 L 149.23726401617932,40 L 149.26559481311827,40 L 150.75890198080288,40 L 150.7788285122362,40 L 150.81690754037993,40 L 152.30935457001706,40 L 152.33815127506506,40 L 152.3625039335344,40 L 153.85154625006692,40 L 153.88417773724325,40 L 153.91593116682947,40 L 155.40694463305414,40 L 155.4219432902571,40 L 155.46034487016863,40 L 156.9548526472112,40 L 156.98483204207446,40 L 157.01981098933874,40 L 158.5030294545081,40 L 158.5294966190108,40 L 158.56533570432256,40 L 160.04842873269334,40 L 160.0784439666419,40 L 160.11173847689653,40 L 161.60013568989345,40 L 161.6219975319336,40 L 161.65303417981357,40 L 163.1440297264956,40 L 163.16893789078725,40 L 163.20106763076924,40 L 164.69518117787337,40 L 164.724569227829,40 L 164.75021209336956,40 L 166.24226489306824,40 L 166.2750934952138,40 L 166.29801259027067,40 L 167.79252036731324,40 L 167.8214066700745,40 L 167.8546653412438,40 L 169.34127059997513,40 L 169.36945804057282,40 L 169.4034872520763,40 L 170.8886051887672,40 L 170.9142659738504,40 L 170.94628819657646,40 L 172.43825139856187,40 L 172.46624172419035,40 L 172.49869401594015,40 L 173.98261134327308,40 L 174.02022446330776,40 L 174.04199670763464,40 L 175.53109278279513,40 L 175.56039123503749,40 L 175.5895463309386,40 L 177.07520185390914,40 L 177.10752870886034,40 L 177.1345513791854,40 L 178.2148130886521,40 L 178.63006265061668,40 L 178.66219239059868,40 L 178.69604240667562,40 L 180.17813194065764,40 L 180.20622978354206,40 L 180.23913006385825,40 L 181.72448095460365,40 L 181.7461456816746,40 L 181.78248651418073,40 L 183.27480810701925,40 L 183.30186661642963,40 L 183.33333333333334,40" stroke="#22c55e" stroke-width="2" fill="none" stroke-dasharray="14850" stroke-dashoffset="14850">
      <animate attributeName="stroke-dashoffset" values="14850;0" dur="3s" begin="2.6s" fill="freeze"/>
    </path>
    
    <!-- Glow effect for the line that also follows the circle -->
    <path d="M 30,160 L 30.017131082779017,160 L 30.046142822338876,160 L 31.54287262267076,160 L 31.565272050990604,160 L 31.59096867515913,160 L 33.09079855637048,160 L 33.11167482356457,160 L 33.1433386554375,160 L 34.63836609921708,160 L 34.66126727473129,160 L 34.69112123279597,160 L 36.18365786014638,160 L 36.20571681715577,160 L 36.238204947990866,160 L 37.730938690310495,160 L 37.76331930388966,160 L 37.79638086008974,160 L 39.28443760177618,160 L 39.30821683488053,160 L 39.33812455157319,160 L 40.83229185730528,160 L 40.85573061909916,160 L 40.88563833579182,160 L 42.38127504402169,160 L 42.41206081830448,160 L 42.44843748989591,160 L 43.9299356789703,160 L 43.95229926820484,160 L 43.98089885828361,160 L 45.479832762362165,160 L 45.498809558034736,160 L 45.528753113812705,160 L 47.022992097715424,160 L 47.04531984786465,160 L 47.07382984023013,160 L 47.11284068459197,160 L 48.575344158451145,160 L 48.60514435788786,160 L 48.634729522812705,160 L 50.11977578133296,160 L 50.14706724479786,160 L 50.17557723716335,160 L 51.670694278656214,160 L 51.686033407169646,160 L 51.72203376836529,160 L 53.217294166199395,160 L 53.24273991677074,160 L 53.26365202305014,160 L 54.76670742193955,160 L 54.79075544818373,160 L 54.820018061340775,160 L 56.315798125911904,160 L 56.34149475008043,160 L 56.36966427113546,160 L 57.86266680659492,160 L 57.883077165679964,160 L 57.91459764121164,160 L 59.413710740716766,160 L 59.43575177818349,160 L 59.466662989264876,160 L 60.96086613408228,160 L 60.98654483870815,160 L 61.01747396933219,160 L 62.508218642417006,160 L 62.53300136991008,160 L 62.55154809655891,160 L 64.05343872517568,160 L 64.08848935061059,160 L 64.11216106645898,160 L 65.60503816511985,160 L 65.6291041109067,160 L 67.17916247018246,160 L 67.20557587605722,160 L 68.69798706660904,160 L 68.72121079389106,160 L 68.74886064820907,160 L 70.24969402380916,160 L 70.27858032657042,160 L 70.30614058317516,160 L 71.79796042881934,160 L 71.82765311100012,160 L 71.85662901147467,160 L 73.34887892614259,160 L 73.37658253908856,160 L 73.40041553082088,160 L 74.89275504320207,160 L 74.92108584014102,57.14285714285715 L 74.9501692578715,57.14285714285715 L 76.46937016469384,57.14285714285715 L 76.49528182337423,57.14285714285715 L 77.9847542089305,57.14285714285715 L 78.01260117821772,57.14285714285715 L 78.03125542212248,57.14285714285715 L 79.53685539606903,57.14285714285715 L 79.56457692855767,57.14285714285715 L 79.59288980595394,57.14285714285715 L 81.08216507654099,57.14285714285715 L 81.1109976206743,57.14285714285715 L 81.14644247604761,57.14285714285715 L 82.63677499965135,57.14285714285715 L 82.66702318765446,57.14285714285715 L 82.68854455838417,57.14285714285715 L 84.18398415164484,57.14285714285715 L 84.20819345377292,57.14285714285715 L 84.23783237732573,57.14285714285715 L 85.73477721216949,57.14285714285715 L 85.78964685178178,57.14285714285715 L 87.27874292694227,57.14285714285715 L 87.30841768958038,57.14285714285715 L 87.33576291167326,57.14285714285715 L 88.82867584941943,57.14285714285715 L 88.85675577276119,57.14285714285715 L 88.8860721445462,57.14285714285715 L 90.37755151887993,57.14285714285715 L 90.40618694804401,57.14285714285715 L 90.43840628573926,57.14285714285715 L 91.9250832226412,57.14285714285715 L 91.95522389338839,57.14285714285715 L 91.98618886309774,57.14285714285715 L 93.47600171996446,57.14285714285715 L 93.50556896534664,57.14285714285715 L 93.53375640594433,57.14285714285715 L 95.02638263100803,57.14285714285715 L 95.04765312814055,57.14285714285715 L 95.07709493672415,57.14285714285715 L 96.56918357550816,57.14285714285715 L 96.59654671714368,57.14285714285715 L 96.62826430764459,57.14285714285715 L 98.11813092313928,57.14285714285715 L 98.14533278889088,57.14285714285715 L 98.17527634466886,57.14285714285715 L 99.66652276494804,57.14285714285715 L 99.69229106728719,57.14285714285715 L 99.72406241641605,57.14285714285715 L 101.21598977931616,57.14285714285715 L 101.2417580816553,57.14285714285715 L 101.26564483201558,57.14285714285715 L 102.76954244940983,57.14285714285715 L 102.79149388916326,57.14285714285715 L 102.82344443371869,57.14285714285715 L 104.31307809515886,57.14285714285715 L 104.33834465030364,57.14285714285715 L 104.36676504495586,57.14285714285715 L 105.86059187937748,57.14285714285715 L 105.88284795135608,57.14285714285715 L 105.91650085246381,57.14285714285715 L 107.40724552554865,57.14285714285715 L 107.4333722187409,57.14285714285715 L 107.46543028055227,57.14285714285715 L 108.95377373492119,57.14285714285715 L 108.97814431293318,57.14285714285715 L 109.0128186279723,57.14285714285715 L 110.49791864512052,57.14285714285715 L 110.52940328156689,57.14285714285715 L 110.5617301365181,57.14285714285715 L 112.05161467155544,57.14285714285715 L 112.07675578990163,57.14285714285715 L 112.1062513571132,57.14285714285715 L 113.60194182397105,57.14285714285715 L 113.6290899310947,57.14285714285715 L 113.66207980912415,57.14285714285715 L 115.1475740562108,57.14285714285715 L 115.1792916467117,57.14285714285715 L 115.2143422721466,57.14285714285715 L 116.69888678347247,57.14285714285715 L 116.72300648788729,57.14285714285715 L 116.75456280250428,57.14285714285715 L 118.2481925219567,57.14285714285715 L 118.2706098698192,57.14285714285715 L 118.30223786260682,57.14285714285715 L 119.7930362943196,57.14285714285715 L 119.81776526318473,57.14285714285715 L 119.84873023289407,57.14285714285715 L 121.34185820515212,57.14285714285715 L 121.36993812849389,57.14285714285715 L 122.89257958750615,57.14285714285715 L 122.91838372893062,57.14285714285715 L 122.94284390465589,57.14285714285715 L 124.44152693513725,57.14285714285715 L 124.47125545640336,57.14285714285715 L 124.50505171385234,57.14285714285715 L 125.9799375916867,57.14285714285715 L 126.01618882647955,57.14285714285715 L 126.04710003756092,57.14285714285715 L 127.53452959525441,57.14285714285715 L 127.55393645995072,57.14285714285715 L 127.59072528102323,57.14285714285715 L 129.0832798279163,57.14285714285715 L 129.11080424543573,57.14285714285715 L 129.14132122657867,57.14285714285715 L 130.63382201484376,57.14285714285715 L 130.65982327123743,57.14285714285715 L 130.68734768875686,57.14285714285715 L 132.1779669250431,57.14285714285715 L 132.20764168768125,57.14285714285715 L 132.23706557672216,57.14285714285715 L 133.72530151383518,57.14285714285715 L 133.75250337958678,57.14285714285715 L 133.78318163661368,57.14285714285715 L 135.27862122987432,57.14285714285715 L 135.30920988918788,57.14285714285715 L 135.34219976721735,57.14285714285715 L 136.82941429039897,57.14285714285715 L 136.85254841996772,57.14285714285715 L 136.90367287516492,57.14285714285715 L 138.3783795575727,57.14285714285715 L 138.40190791707988,57.14285714285715 L 138.43147516246208,57.14285714285715 L 139.9214492952127,57.14285714285715 L 139.94908122998805,57.14285714285715 L 139.97829008451714,57.14285714285715 L 141.46899891851666,57.14285714285715 L 141.49560943936063,57.14285714285715 L 141.52632353547278,57.14285714285715 L 143.0182867374582,57.14285714285715 L 143.04625914354403,57.14285714285715 L 143.0718482504566,57.14285714285715 L 144.56438487780704,57.14285714285715 L 144.5920526516677,57.14285714285715 L 144.62111814985553,57.14285714285715 L 146.11953238719707,57.14285714285715 L 146.14868748309817,57.14285714285715 L 146.17916862515582,57.14285714285715 L 147.66192118221613,57.14285714285715 L 147.69123755400113,40 L 147.72164701788813,40 L 149.21644150761318,40 L 149.23726401617932,40 L 149.26559481311827,40 L 150.75890198080288,40 L 150.7788285122362,40 L 150.81690754037993,40 L 152.30935457001706,40 L 152.33815127506506,40 L 152.3625039335344,40 L 153.85154625006692,40 L 153.88417773724325,40 L 153.91593116682947,40 L 155.40694463305414,40 L 155.4219432902571,40 L 155.46034487016863,40 L 156.9548526472112,40 L 156.98483204207446,40 L 157.01981098933874,40 L 158.5030294545081,40 L 158.5294966190108,40 L 158.56533570432256,40 L 160.04842873269334,40 L 160.0784439666419,40 L 160.11173847689653,40 L 161.60013568989345,40 L 161.6219975319336,40 L 161.65303417981357,40 L 163.1440297264956,40 L 163.16893789078725,40 L 163.20106763076924,40 L 164.69518117787337,40 L 164.724569227829,40 L 164.75021209336956,40 L 166.24226489306824,40 L 166.2750934952138,40 L 166.29801259027067,40 L 167.79252036731324,40 L 167.8214066700745,40 L 167.8546653412438,40 L 169.34127059997513,40 L 169.36945804057282,40 L 169.4034872520763,40 L 170.8886051887672,40 L 170.9142659738504,40 L 170.94628819657646,40 L 172.43825139856187,40 L 172.46624172419035,40 L 172.49869401594015,40 L 173.98261134327308,40 L 174.02022446330776,40 L 174.04199670763464,40 L 175.53109278279513,40 L 175.56039123503749,40 L 175.5895463309386,40 L 177.07520185390914,40 L 177.10752870886034,40 L 177.1345513791854,40 L 178.2148130886521,40 L 178.63006265061668,40 L 178.66219239059868,40 L 178.69604240667562,40 L 180.17813194065764,40 L 180.20622978354206,40 L 180.23913006385825,40 L 181.72448095460365,40 L 181.7461456816746,40 L 181.78248651418073,40 L 183.27480810701925,40 L 183.30186661642963,40 L 183.33333333333334,40" stroke="#22c55e" stroke-width="4" fill="none" opacity="0.4" stroke-dasharray="14850" stroke-dashoffset="14850">
      <animate attributeName="stroke-dashoffset" values="14850;0" dur="3s" begin="2.6s" fill="freeze"/>
    </path>
    
    <!-- Animated circle that moves along the path and draws the line -->
    <circle r="5" fill="#22c55e" opacity="0" filter="url(#trailGlow)">
      <animate attributeName="opacity" values="0;1;1;1" dur="3.2s" begin="2.4s" fill="freeze"/>
      <animate attributeName="r" values="5;6;5" dur="1s" begin="2.4s" repeatCount="3"/>
      <animateMotion dur="3s" begin="2.4s" fill="freeze">
        <mpath href="#path_followersCount_60"/>
      </animateMotion>
    </circle>
    
    <!-- Small trail dots that fade out -->
    <circle r="2" fill="#22c55e" opacity="0">
      <animate attributeName="opacity" values="0;0.6;0" dur="0.8s" begin="2.8s" fill="freeze"/>
      <animateMotion dur="3s" begin="2.4s" fill="freeze">
        <mpath href="#path_followersCount_60"/>
      </animateMotion>
    </circle>
    
    <!-- Hidden path for motion animation -->
    <path id="path_followersCount_60" d="M 30,160 L 30.017131082779017,160 L 30.046142822338876,160 L 31.54287262267076,160 L 31.565272050990604,160 L 31.59096867515913,160 L 33.09079855637048,160 L 33.11167482356457,160 L 33.1433386554375,160 L 34.63836609921708,160 L 34.66126727473129,160 L 34.69112123279597,160 L 36.18365786014638,160 L 36.20571681715577,160 L 36.238204947990866,160 L 37.730938690310495,160 L 37.76331930388966,160 L 37.79638086008974,160 L 39.28443760177618,160 L 39.30821683488053,160 L 39.33812455157319,160 L 40.83229185730528,160 L 40.85573061909916,160 L 40.88563833579182,160 L 42.38127504402169,160 L 42.41206081830448,160 L 42.44843748989591,160 L 43.9299356789703,160 L 43.95229926820484,160 L 43.98089885828361,160 L 45.479832762362165,160 L 45.498809558034736,160 L 45.528753113812705,160 L 47.022992097715424,160 L 47.04531984786465,160 L 47.07382984023013,160 L 47.11284068459197,160 L 48.575344158451145,160 L 48.60514435788786,160 L 48.634729522812705,160 L 50.11977578133296,160 L 50.14706724479786,160 L 50.17557723716335,160 L 51.670694278656214,160 L 51.686033407169646,160 L 51.72203376836529,160 L 53.217294166199395,160 L 53.24273991677074,160 L 53.26365202305014,160 L 54.76670742193955,160 L 54.79075544818373,160 L 54.820018061340775,160 L 56.315798125911904,160 L 56.34149475008043,160 L 56.36966427113546,160 L 57.86266680659492,160 L 57.883077165679964,160 L 57.91459764121164,160 L 59.413710740716766,160 L 59.43575177818349,160 L 59.466662989264876,160 L 60.96086613408228,160 L 60.98654483870815,160 L 61.01747396933219,160 L 62.508218642417006,160 L 62.53300136991008,160 L 62.55154809655891,160 L 64.05343872517568,160 L 64.08848935061059,160 L 64.11216106645898,160 L 65.60503816511985,160 L 65.6291041109067,160 L 67.17916247018246,160 L 67.20557587605722,160 L 68.69798706660904,160 L 68.72121079389106,160 L 68.74886064820907,160 L 70.24969402380916,160 L 70.27858032657042,160 L 70.30614058317516,160 L 71.79796042881934,160 L 71.82765311100012,160 L 71.85662901147467,160 L 73.34887892614259,160 L 73.37658253908856,160 L 73.40041553082088,160 L 74.89275504320207,160 L 74.92108584014102,57.14285714285715 L 74.9501692578715,57.14285714285715 L 76.46937016469384,57.14285714285715 L 76.49528182337423,57.14285714285715 L 77.9847542089305,57.14285714285715 L 78.01260117821772,57.14285714285715 L 78.03125542212248,57.14285714285715 L 79.53685539606903,57.14285714285715 L 79.56457692855767,57.14285714285715 L 79.59288980595394,57.14285714285715 L 81.08216507654099,57.14285714285715 L 81.1109976206743,57.14285714285715 L 81.14644247604761,57.14285714285715 L 82.63677499965135,57.14285714285715 L 82.66702318765446,57.14285714285715 L 82.68854455838417,57.14285714285715 L 84.18398415164484,57.14285714285715 L 84.20819345377292,57.14285714285715 L 84.23783237732573,57.14285714285715 L 85.73477721216949,57.14285714285715 L 85.78964685178178,57.14285714285715 L 87.27874292694227,57.14285714285715 L 87.30841768958038,57.14285714285715 L 87.33576291167326,57.14285714285715 L 88.82867584941943,57.14285714285715 L 88.85675577276119,57.14285714285715 L 88.8860721445462,57.14285714285715 L 90.37755151887993,57.14285714285715 L 90.40618694804401,57.14285714285715 L 90.43840628573926,57.14285714285715 L 91.9250832226412,57.14285714285715 L 91.95522389338839,57.14285714285715 L 91.98618886309774,57.14285714285715 L 93.47600171996446,57.14285714285715 L 93.50556896534664,57.14285714285715 L 93.53375640594433,57.14285714285715 L 95.02638263100803,57.14285714285715 L 95.04765312814055,57.14285714285715 L 95.07709493672415,57.14285714285715 L 96.56918357550816,57.14285714285715 L 96.59654671714368,57.14285714285715 L 96.62826430764459,57.14285714285715 L 98.11813092313928,57.14285714285715 L 98.14533278889088,57.14285714285715 L 98.17527634466886,57.14285714285715 L 99.66652276494804,57.14285714285715 L 99.69229106728719,57.14285714285715 L 99.72406241641605,57.14285714285715 L 101.21598977931616,57.14285714285715 L 101.2417580816553,57.14285714285715 L 101.26564483201558,57.14285714285715 L 102.76954244940983,57.14285714285715 L 102.79149388916326,57.14285714285715 L 102.82344443371869,57.14285714285715 L 104.31307809515886,57.14285714285715 L 104.33834465030364,57.14285714285715 L 104.36676504495586,57.14285714285715 L 105.86059187937748,57.14285714285715 L 105.88284795135608,57.14285714285715 L 105.91650085246381,57.14285714285715 L 107.40724552554865,57.14285714285715 L 107.4333722187409,57.14285714285715 L 107.46543028055227,57.14285714285715 L 108.95377373492119,57.14285714285715 L 108.97814431293318,57.14285714285715 L 109.0128186279723,57.14285714285715 L 110.49791864512052,57.14285714285715 L 110.52940328156689,57.14285714285715 L 110.5617301365181,57.14285714285715 L 112.05161467155544,57.14285714285715 L 112.07675578990163,57.14285714285715 L 112.1062513571132,57.14285714285715 L 113.60194182397105,57.14285714285715 L 113.6290899310947,57.14285714285715 L 113.66207980912415,57.14285714285715 L 115.1475740562108,57.14285714285715 L 115.1792916467117,57.14285714285715 L 115.2143422721466,57.14285714285715 L 116.69888678347247,57.14285714285715 L 116.72300648788729,57.14285714285715 L 116.75456280250428,57.14285714285715 L 118.2481925219567,57.14285714285715 L 118.2706098698192,57.14285714285715 L 118.30223786260682,57.14285714285715 L 119.7930362943196,57.14285714285715 L 119.81776526318473,57.14285714285715 L 119.84873023289407,57.14285714285715 L 121.34185820515212,57.14285714285715 L 121.36993812849389,57.14285714285715 L 122.89257958750615,57.14285714285715 L 122.91838372893062,57.14285714285715 L 122.94284390465589,57.14285714285715 L 124.44152693513725,57.14285714285715 L 124.47125545640336,57.14285714285715 L 124.50505171385234,57.14285714285715 L 125.9799375916867,57.14285714285715 L 126.01618882647955,57.14285714285715 L 126.04710003756092,57.14285714285715 L 127.53452959525441,57.14285714285715 L 127.55393645995072,57.14285714285715 L 127.59072528102323,57.14285714285715 L 129.0832798279163,57.14285714285715 L 129.11080424543573,57.14285714285715 L 129.14132122657867,57.14285714285715 L 130.63382201484376,57.14285714285715 L 130.65982327123743,57.14285714285715 L 130.68734768875686,57.14285714285715 L 132.1779669250431,57.14285714285715 L 132.20764168768125,57.14285714285715 L 132.23706557672216,57.14285714285715 L 133.72530151383518,57.14285714285715 L 133.75250337958678,57.14285714285715 L 133.78318163661368,57.14285714285715 L 135.27862122987432,57.14285714285715 L 135.30920988918788,57.14285714285715 L 135.34219976721735,57.14285714285715 L 136.82941429039897,57.14285714285715 L 136.85254841996772,57.14285714285715 L 136.90367287516492,57.14285714285715 L 138.3783795575727,57.14285714285715 L 138.40190791707988,57.14285714285715 L 138.43147516246208,57.14285714285715 L 139.9214492952127,57.14285714285715 L 139.94908122998805,57.14285714285715 L 139.97829008451714,57.14285714285715 L 141.46899891851666,57.14285714285715 L 141.49560943936063,57.14285714285715 L 141.52632353547278,57.14285714285715 L 143.0182867374582,57.14285714285715 L 143.04625914354403,57.14285714285715 L 143.0718482504566,57.14285714285715 L 144.56438487780704,57.14285714285715 L 144.5920526516677,57.14285714285715 L 144.62111814985553,57.14285714285715 L 146.11953238719707,57.14285714285715 L 146.14868748309817,57.14285714285715 L 146.17916862515582,57.14285714285715 L 147.66192118221613,57.14285714285715 L 147.69123755400113,40 L 147.72164701788813,40 L 149.21644150761318,40 L 149.23726401617932,40 L 149.26559481311827,40 L 150.75890198080288,40 L 150.7788285122362,40 L 150.81690754037993,40 L 152.30935457001706,40 L 152.33815127506506,40 L 152.3625039335344,40 L 153.85154625006692,40 L 153.88417773724325,40 L 153.91593116682947,40 L 155.40694463305414,40 L 155.4219432902571,40 L 155.46034487016863,40 L 156.9548526472112,40 L 156.98483204207446,40 L 157.01981098933874,40 L 158.5030294545081,40 L 158.5294966190108,40 L 158.56533570432256,40 L 160.04842873269334,40 L 160.0784439666419,40 L 160.11173847689653,40 L 161.60013568989345,40 L 161.6219975319336,40 L 161.65303417981357,40 L 163.1440297264956,40 L 163.16893789078725,40 L 163.20106763076924,40 L 164.69518117787337,40 L 164.724569227829,40 L 164.75021209336956,40 L 166.24226489306824,40 L 166.2750934952138,40 L 166.29801259027067,40 L 167.79252036731324,40 L 167.8214066700745,40 L 167.8546653412438,40 L 169.34127059997513,40 L 169.36945804057282,40 L 169.4034872520763,40 L 170.8886051887672,40 L 170.9142659738504,40 L 170.94628819657646,40 L 172.43825139856187,40 L 172.46624172419035,40 L 172.49869401594015,40 L 173.98261134327308,40 L 174.02022446330776,40 L 174.04199670763464,40 L 175.53109278279513,40 L 175.56039123503749,40 L 175.5895463309386,40 L 177.07520185390914,40 L 177.10752870886034,40 L 177.1345513791854,40 L 178.2148130886521,40 L 178.63006265061668,40 L 178.66219239059868,40 L 178.69604240667562,40 L 180.17813194065764,40 L 180.20622978354206,40 L 180.23913006385825,40 L 181.72448095460365,40 L 181.7461456816746,40 L 181.78248651418073,40 L 183.27480810701925,40 L 183.30186661642963,40 L 183.33333333333334,40" fill="none" stroke="none"/>
  </g>
  <!-- 🔓 Public Contributions Chart -->
  <g transform="translate(293.33333333333337, 250)">
    <!-- Chart Background -->
    <rect x="0" y="0" width="213.33333333333334" height="200" fill="#ffffff" stroke="#e2e8f0" stroke-width="1" rx="8" filter="url(#shadow)">
      <animate attributeName="opacity" values="0;1" dur="0.5s" begin="2.3s" fill="freeze"/>
    </rect>
    
    <!-- Chart Title -->
    <text x="106.66666666666667" y="25" text-anchor="middle" fill="#1e293b" font-size="14" font-weight="bold" font-family="Arial, sans-serif">
      🔓 Public Contributions
      <animate attributeName="opacity" values="0;1" dur="0.5s" begin="2.5s" fill="freeze"/>
    </text>
    
    <!-- Y-axis labels -->
    <text x="10" y="45" fill="#64748b" font-size="10" font-family="Arial, sans-serif">3,434
      <animate attributeName="opacity" values="0;1" dur="0.5s" begin="2.6999999999999997s" fill="freeze"/>
    </text>
    <text x="10" y="185" fill="#64748b" font-size="10" font-family="Arial, sans-serif">2,669
      <animate attributeName="opacity" values="0;1" dur="0.5s" begin="2.6999999999999997s" fill="freeze"/>
    </text>
    
    <!-- Chart Line with draw animation that follows the circle -->
    <path d="M 30,160 L 30.017131082779017,160 L 30.046142822338876,160 L 31.54287262267076,160 L 31.565272050990604,160 L 31.59096867515913,160 L 33.09079855637048,160 L 33.11167482356457,160 L 33.1433386554375,160 L 34.63836609921708,160 L 34.66126727473129,160 L 34.69112123279597,160 L 36.18365786014638,160 L 36.20571681715577,160 L 36.238204947990866,160 L 37.730938690310495,160 L 37.76331930388966,160 L 37.79638086008974,160 L 39.28443760177618,160 L 39.30821683488053,160 L 39.33812455157319,160 L 40.83229185730528,160 L 40.85573061909916,160 L 40.88563833579182,160 L 42.38127504402169,160 L 42.41206081830448,160 L 42.44843748989591,160 L 43.9299356789703,160 L 43.95229926820484,160 L 43.98089885828361,160 L 45.479832762362165,160 L 45.498809558034736,160 L 45.528753113812705,160 L 47.022992097715424,160 L 47.04531984786465,160 L 47.07382984023013,160 L 47.11284068459197,160 L 48.575344158451145,160 L 48.60514435788786,160 L 48.634729522812705,160 L 50.11977578133296,160 L 50.14706724479786,160 L 50.17557723716335,160 L 51.670694278656214,160 L 51.686033407169646,160 L 51.72203376836529,160 L 53.217294166199395,160 L 53.24273991677074,160 L 53.26365202305014,160 L 54.76670742193955,160 L 54.79075544818373,160 L 54.820018061340775,160 L 56.315798125911904,160 L 56.34149475008043,160 L 56.36966427113546,160 L 57.86266680659492,160 L 57.883077165679964,160 L 57.91459764121164,160 L 59.413710740716766,160 L 59.43575177818349,160 L 59.466662989264876,160 L 60.96086613408228,160 L 60.98654483870815,160 L 61.01747396933219,160 L 62.508218642417006,160 L 62.53300136991008,160 L 62.55154809655891,160 L 64.05343872517568,160 L 64.08848935061059,160 L 64.11216106645898,160 L 65.60503816511985,160 L 65.6291041109067,160 L 67.17916247018246,160 L 67.20557587605722,160 L 68.69798706660904,160 L 68.72121079389106,160 L 68.74886064820907,160 L 70.24969402380916,160 L 70.27858032657042,160 L 70.30614058317516,160 L 71.79796042881934,160 L 71.82765311100012,160 L 71.85662901147467,160 L 73.34887892614259,160 L 73.37658253908856,160 L 73.40041553082088,160 L 74.89275504320207,160 L 74.92108584014102,79.84313725490196 L 74.9501692578715,79.84313725490196 L 76.46937016469384,79.84313725490196 L 76.49528182337423,79.84313725490196 L 77.9847542089305,79.84313725490196 L 78.01260117821772,79.84313725490196 L 78.03125542212248,79.84313725490196 L 79.53685539606903,79.84313725490196 L 79.56457692855767,79.84313725490196 L 79.59288980595394,79.84313725490196 L 81.08216507654099,79.84313725490196 L 81.1109976206743,79.84313725490196 L 81.14644247604761,79.84313725490196 L 82.63677499965135,79.84313725490196 L 82.66702318765446,79.84313725490196 L 82.68854455838417,79.84313725490196 L 84.18398415164484,79.84313725490196 L 84.20819345377292,79.84313725490196 L 84.23783237732573,79.84313725490196 L 85.73477721216949,79.84313725490196 L 85.78964685178178,79.84313725490196 L 87.27874292694227,79.84313725490196 L 87.30841768958038,79.84313725490196 L 87.33576291167326,79.84313725490196 L 88.82867584941943,79.84313725490196 L 88.85675577276119,79.84313725490196 L 88.8860721445462,79.84313725490196 L 90.37755151887993,79.84313725490196 L 90.40618694804401,79.84313725490196 L 90.43840628573926,79.84313725490196 L 91.9250832226412,79.84313725490196 L 91.95522389338839,79.84313725490196 L 91.98618886309774,79.84313725490196 L 93.47600171996446,79.84313725490196 L 93.50556896534664,79.84313725490196 L 93.53375640594433,79.84313725490196 L 95.02638263100803,79.84313725490196 L 95.04765312814055,79.84313725490196 L 95.07709493672415,79.84313725490196 L 96.56918357550816,79.84313725490196 L 96.59654671714368,79.84313725490196 L 96.62826430764459,79.84313725490196 L 98.11813092313928,79.84313725490196 L 98.14533278889088,79.84313725490196 L 98.17527634466886,79.84313725490196 L 99.66652276494804,79.84313725490196 L 99.69229106728719,79.84313725490196 L 99.72406241641605,79.84313725490196 L 101.21598977931616,79.84313725490196 L 101.2417580816553,79.84313725490196 L 101.26564483201558,79.84313725490196 L 102.76954244940983,79.84313725490196 L 102.79149388916326,79.84313725490196 L 102.82344443371869,79.84313725490196 L 104.31307809515886,79.84313725490196 L 104.33834465030364,79.84313725490196 L 104.36676504495586,79.84313725490196 L 105.86059187937748,79.84313725490196 L 105.88284795135608,79.84313725490196 L 105.91650085246381,79.84313725490196 L 107.40724552554865,79.84313725490196 L 107.4333722187409,79.84313725490196 L 107.46543028055227,79.84313725490196 L 108.95377373492119,79.84313725490196 L 108.97814431293318,79.84313725490196 L 109.0128186279723,79.84313725490196 L 110.49791864512052,79.84313725490196 L 110.52940328156689,79.84313725490196 L 110.5617301365181,79.84313725490196 L 112.05161467155544,79.84313725490196 L 112.07675578990163,79.84313725490196 L 112.1062513571132,79.84313725490196 L 113.60194182397105,79.84313725490196 L 113.6290899310947,79.84313725490196 L 113.66207980912415,79.84313725490196 L 115.1475740562108,79.84313725490196 L 115.1792916467117,79.84313725490196 L 115.2143422721466,79.84313725490196 L 116.69888678347247,79.84313725490196 L 116.72300648788729,79.84313725490196 L 116.75456280250428,79.84313725490196 L 118.2481925219567,79.84313725490196 L 118.2706098698192,79.84313725490196 L 118.30223786260682,79.84313725490196 L 119.7930362943196,79.84313725490196 L 119.81776526318473,79.84313725490196 L 119.84873023289407,79.84313725490196 L 121.34185820515212,79.84313725490196 L 121.36993812849389,79.84313725490196 L 122.89257958750615,79.84313725490196 L 122.91838372893062,79.84313725490196 L 122.94284390465589,79.84313725490196 L 124.44152693513725,79.84313725490196 L 124.47125545640336,79.84313725490196 L 124.50505171385234,79.84313725490196 L 125.9799375916867,79.84313725490196 L 126.01618882647955,79.84313725490196 L 126.04710003756092,79.84313725490196 L 127.53452959525441,79.84313725490196 L 127.55393645995072,79.84313725490196 L 127.59072528102323,79.84313725490196 L 129.0832798279163,79.84313725490196 L 129.11080424543573,79.84313725490196 L 129.14132122657867,79.84313725490196 L 130.63382201484376,79.84313725490196 L 130.65982327123743,79.84313725490196 L 130.68734768875686,79.84313725490196 L 132.1779669250431,79.84313725490196 L 132.20764168768125,79.84313725490196 L 132.23706557672216,79.84313725490196 L 133.72530151383518,79.84313725490196 L 133.75250337958678,79.84313725490196 L 133.78318163661368,79.84313725490196 L 135.27862122987432,79.84313725490196 L 135.30920988918788,79.84313725490196 L 135.34219976721735,79.84313725490196 L 136.82941429039897,79.84313725490196 L 136.85254841996772,79.84313725490196 L 136.90367287516492,79.84313725490196 L 138.3783795575727,79.84313725490196 L 138.40190791707988,79.84313725490196 L 138.43147516246208,79.84313725490196 L 139.9214492952127,79.84313725490196 L 139.94908122998805,79.84313725490196 L 139.97829008451714,79.84313725490196 L 141.46899891851666,79.84313725490196 L 141.49560943936063,79.84313725490196 L 141.52632353547278,79.84313725490196 L 143.0182867374582,79.84313725490196 L 143.04625914354403,79.84313725490196 L 143.0718482504566,79.84313725490196 L 144.56438487780704,79.84313725490196 L 144.5920526516677,79.84313725490196 L 144.62111814985553,79.84313725490196 L 146.11953238719707,79.84313725490196 L 146.14868748309817,79.84313725490196 L 146.17916862515582,79.84313725490196 L 147.66192118221613,79.84313725490196 L 147.69123755400113,40 L 147.72164701788813,40 L 149.21644150761318,40 L 149.23726401617932,40 L 149.26559481311827,40 L 150.75890198080288,40 L 150.7788285122362,40 L 150.81690754037993,40 L 152.30935457001706,40 L 152.33815127506506,40 L 152.3625039335344,40 L 153.85154625006692,40 L 153.88417773724325,40 L 153.91593116682947,40 L 155.40694463305414,40 L 155.4219432902571,40 L 155.46034487016863,40 L 156.9548526472112,40 L 156.98483204207446,40 L 157.01981098933874,40 L 158.5030294545081,40 L 158.5294966190108,40 L 158.56533570432256,40 L 160.04842873269334,40 L 160.0784439666419,40 L 160.11173847689653,40 L 161.60013568989345,40 L 161.6219975319336,40 L 161.65303417981357,40 L 163.1440297264956,40 L 163.16893789078725,40 L 163.20106763076924,40 L 164.69518117787337,40 L 164.724569227829,40 L 164.75021209336956,40 L 166.24226489306824,40 L 166.2750934952138,40 L 166.29801259027067,40 L 167.79252036731324,40 L 167.8214066700745,40 L 167.8546653412438,40 L 169.34127059997513,40 L 169.36945804057282,40 L 169.4034872520763,40 L 170.8886051887672,40 L 170.9142659738504,40 L 170.94628819657646,40 L 172.43825139856187,40 L 172.46624172419035,40 L 172.49869401594015,40 L 173.98261134327308,40 L 174.02022446330776,40 L 174.04199670763464,40 L 175.53109278279513,40 L 175.56039123503749,40 L 175.5895463309386,40 L 177.07520185390914,40 L 177.10752870886034,40 L 177.1345513791854,40 L 178.2148130886521,40 L 178.63006265061668,40 L 178.66219239059868,40 L 178.69604240667562,40 L 180.17813194065764,40 L 180.20622978354206,40 L 180.23913006385825,40 L 181.72448095460365,40 L 181.7461456816746,40 L 181.78248651418073,40 L 183.27480810701925,40 L 183.30186661642963,40 L 183.33333333333334,40" stroke="#3b82f6" stroke-width="2" fill="none" stroke-dasharray="14850" stroke-dashoffset="14850">
      <animate attributeName="stroke-dashoffset" values="14850;0" dur="3s" begin="3.0999999999999996s" fill="freeze"/>
    </path>
    
    <!-- Glow effect for the line that also follows the circle -->
    <path d="M 30,160 L 30.017131082779017,160 L 30.046142822338876,160 L 31.54287262267076,160 L 31.565272050990604,160 L 31.59096867515913,160 L 33.09079855637048,160 L 33.11167482356457,160 L 33.1433386554375,160 L 34.63836609921708,160 L 34.66126727473129,160 L 34.69112123279597,160 L 36.18365786014638,160 L 36.20571681715577,160 L 36.238204947990866,160 L 37.730938690310495,160 L 37.76331930388966,160 L 37.79638086008974,160 L 39.28443760177618,160 L 39.30821683488053,160 L 39.33812455157319,160 L 40.83229185730528,160 L 40.85573061909916,160 L 40.88563833579182,160 L 42.38127504402169,160 L 42.41206081830448,160 L 42.44843748989591,160 L 43.9299356789703,160 L 43.95229926820484,160 L 43.98089885828361,160 L 45.479832762362165,160 L 45.498809558034736,160 L 45.528753113812705,160 L 47.022992097715424,160 L 47.04531984786465,160 L 47.07382984023013,160 L 47.11284068459197,160 L 48.575344158451145,160 L 48.60514435788786,160 L 48.634729522812705,160 L 50.11977578133296,160 L 50.14706724479786,160 L 50.17557723716335,160 L 51.670694278656214,160 L 51.686033407169646,160 L 51.72203376836529,160 L 53.217294166199395,160 L 53.24273991677074,160 L 53.26365202305014,160 L 54.76670742193955,160 L 54.79075544818373,160 L 54.820018061340775,160 L 56.315798125911904,160 L 56.34149475008043,160 L 56.36966427113546,160 L 57.86266680659492,160 L 57.883077165679964,160 L 57.91459764121164,160 L 59.413710740716766,160 L 59.43575177818349,160 L 59.466662989264876,160 L 60.96086613408228,160 L 60.98654483870815,160 L 61.01747396933219,160 L 62.508218642417006,160 L 62.53300136991008,160 L 62.55154809655891,160 L 64.05343872517568,160 L 64.08848935061059,160 L 64.11216106645898,160 L 65.60503816511985,160 L 65.6291041109067,160 L 67.17916247018246,160 L 67.20557587605722,160 L 68.69798706660904,160 L 68.72121079389106,160 L 68.74886064820907,160 L 70.24969402380916,160 L 70.27858032657042,160 L 70.30614058317516,160 L 71.79796042881934,160 L 71.82765311100012,160 L 71.85662901147467,160 L 73.34887892614259,160 L 73.37658253908856,160 L 73.40041553082088,160 L 74.89275504320207,160 L 74.92108584014102,79.84313725490196 L 74.9501692578715,79.84313725490196 L 76.46937016469384,79.84313725490196 L 76.49528182337423,79.84313725490196 L 77.9847542089305,79.84313725490196 L 78.01260117821772,79.84313725490196 L 78.03125542212248,79.84313725490196 L 79.53685539606903,79.84313725490196 L 79.56457692855767,79.84313725490196 L 79.59288980595394,79.84313725490196 L 81.08216507654099,79.84313725490196 L 81.1109976206743,79.84313725490196 L 81.14644247604761,79.84313725490196 L 82.63677499965135,79.84313725490196 L 82.66702318765446,79.84313725490196 L 82.68854455838417,79.84313725490196 L 84.18398415164484,79.84313725490196 L 84.20819345377292,79.84313725490196 L 84.23783237732573,79.84313725490196 L 85.73477721216949,79.84313725490196 L 85.78964685178178,79.84313725490196 L 87.27874292694227,79.84313725490196 L 87.30841768958038,79.84313725490196 L 87.33576291167326,79.84313725490196 L 88.82867584941943,79.84313725490196 L 88.85675577276119,79.84313725490196 L 88.8860721445462,79.84313725490196 L 90.37755151887993,79.84313725490196 L 90.40618694804401,79.84313725490196 L 90.43840628573926,79.84313725490196 L 91.9250832226412,79.84313725490196 L 91.95522389338839,79.84313725490196 L 91.98618886309774,79.84313725490196 L 93.47600171996446,79.84313725490196 L 93.50556896534664,79.84313725490196 L 93.53375640594433,79.84313725490196 L 95.02638263100803,79.84313725490196 L 95.04765312814055,79.84313725490196 L 95.07709493672415,79.84313725490196 L 96.56918357550816,79.84313725490196 L 96.59654671714368,79.84313725490196 L 96.62826430764459,79.84313725490196 L 98.11813092313928,79.84313725490196 L 98.14533278889088,79.84313725490196 L 98.17527634466886,79.84313725490196 L 99.66652276494804,79.84313725490196 L 99.69229106728719,79.84313725490196 L 99.72406241641605,79.84313725490196 L 101.21598977931616,79.84313725490196 L 101.2417580816553,79.84313725490196 L 101.26564483201558,79.84313725490196 L 102.76954244940983,79.84313725490196 L 102.79149388916326,79.84313725490196 L 102.82344443371869,79.84313725490196 L 104.31307809515886,79.84313725490196 L 104.33834465030364,79.84313725490196 L 104.36676504495586,79.84313725490196 L 105.86059187937748,79.84313725490196 L 105.88284795135608,79.84313725490196 L 105.91650085246381,79.84313725490196 L 107.40724552554865,79.84313725490196 L 107.4333722187409,79.84313725490196 L 107.46543028055227,79.84313725490196 L 108.95377373492119,79.84313725490196 L 108.97814431293318,79.84313725490196 L 109.0128186279723,79.84313725490196 L 110.49791864512052,79.84313725490196 L 110.52940328156689,79.84313725490196 L 110.5617301365181,79.84313725490196 L 112.05161467155544,79.84313725490196 L 112.07675578990163,79.84313725490196 L 112.1062513571132,79.84313725490196 L 113.60194182397105,79.84313725490196 L 113.6290899310947,79.84313725490196 L 113.66207980912415,79.84313725490196 L 115.1475740562108,79.84313725490196 L 115.1792916467117,79.84313725490196 L 115.2143422721466,79.84313725490196 L 116.69888678347247,79.84313725490196 L 116.72300648788729,79.84313725490196 L 116.75456280250428,79.84313725490196 L 118.2481925219567,79.84313725490196 L 118.2706098698192,79.84313725490196 L 118.30223786260682,79.84313725490196 L 119.7930362943196,79.84313725490196 L 119.81776526318473,79.84313725490196 L 119.84873023289407,79.84313725490196 L 121.34185820515212,79.84313725490196 L 121.36993812849389,79.84313725490196 L 122.89257958750615,79.84313725490196 L 122.91838372893062,79.84313725490196 L 122.94284390465589,79.84313725490196 L 124.44152693513725,79.84313725490196 L 124.47125545640336,79.84313725490196 L 124.50505171385234,79.84313725490196 L 125.9799375916867,79.84313725490196 L 126.01618882647955,79.84313725490196 L 126.04710003756092,79.84313725490196 L 127.53452959525441,79.84313725490196 L 127.55393645995072,79.84313725490196 L 127.59072528102323,79.84313725490196 L 129.0832798279163,79.84313725490196 L 129.11080424543573,79.84313725490196 L 129.14132122657867,79.84313725490196 L 130.63382201484376,79.84313725490196 L 130.65982327123743,79.84313725490196 L 130.68734768875686,79.84313725490196 L 132.1779669250431,79.84313725490196 L 132.20764168768125,79.84313725490196 L 132.23706557672216,79.84313725490196 L 133.72530151383518,79.84313725490196 L 133.75250337958678,79.84313725490196 L 133.78318163661368,79.84313725490196 L 135.27862122987432,79.84313725490196 L 135.30920988918788,79.84313725490196 L 135.34219976721735,79.84313725490196 L 136.82941429039897,79.84313725490196 L 136.85254841996772,79.84313725490196 L 136.90367287516492,79.84313725490196 L 138.3783795575727,79.84313725490196 L 138.40190791707988,79.84313725490196 L 138.43147516246208,79.84313725490196 L 139.9214492952127,79.84313725490196 L 139.94908122998805,79.84313725490196 L 139.97829008451714,79.84313725490196 L 141.46899891851666,79.84313725490196 L 141.49560943936063,79.84313725490196 L 141.52632353547278,79.84313725490196 L 143.0182867374582,79.84313725490196 L 143.04625914354403,79.84313725490196 L 143.0718482504566,79.84313725490196 L 144.56438487780704,79.84313725490196 L 144.5920526516677,79.84313725490196 L 144.62111814985553,79.84313725490196 L 146.11953238719707,79.84313725490196 L 146.14868748309817,79.84313725490196 L 146.17916862515582,79.84313725490196 L 147.66192118221613,79.84313725490196 L 147.69123755400113,40 L 147.72164701788813,40 L 149.21644150761318,40 L 149.23726401617932,40 L 149.26559481311827,40 L 150.75890198080288,40 L 150.7788285122362,40 L 150.81690754037993,40 L 152.30935457001706,40 L 152.33815127506506,40 L 152.3625039335344,40 L 153.85154625006692,40 L 153.88417773724325,40 L 153.91593116682947,40 L 155.40694463305414,40 L 155.4219432902571,40 L 155.46034487016863,40 L 156.9548526472112,40 L 156.98483204207446,40 L 157.01981098933874,40 L 158.5030294545081,40 L 158.5294966190108,40 L 158.56533570432256,40 L 160.04842873269334,40 L 160.0784439666419,40 L 160.11173847689653,40 L 161.60013568989345,40 L 161.6219975319336,40 L 161.65303417981357,40 L 163.1440297264956,40 L 163.16893789078725,40 L 163.20106763076924,40 L 164.69518117787337,40 L 164.724569227829,40 L 164.75021209336956,40 L 166.24226489306824,40 L 166.2750934952138,40 L 166.29801259027067,40 L 167.79252036731324,40 L 167.8214066700745,40 L 167.8546653412438,40 L 169.34127059997513,40 L 169.36945804057282,40 L 169.4034872520763,40 L 170.8886051887672,40 L 170.9142659738504,40 L 170.94628819657646,40 L 172.43825139856187,40 L 172.46624172419035,40 L 172.49869401594015,40 L 173.98261134327308,40 L 174.02022446330776,40 L 174.04199670763464,40 L 175.53109278279513,40 L 175.56039123503749,40 L 175.5895463309386,40 L 177.07520185390914,40 L 177.10752870886034,40 L 177.1345513791854,40 L 178.2148130886521,40 L 178.63006265061668,40 L 178.66219239059868,40 L 178.69604240667562,40 L 180.17813194065764,40 L 180.20622978354206,40 L 180.23913006385825,40 L 181.72448095460365,40 L 181.7461456816746,40 L 181.78248651418073,40 L 183.27480810701925,40 L 183.30186661642963,40 L 183.33333333333334,40" stroke="#3b82f6" stroke-width="4" fill="none" opacity="0.4" stroke-dasharray="14850" stroke-dashoffset="14850">
      <animate attributeName="stroke-dashoffset" values="14850;0" dur="3s" begin="3.0999999999999996s" fill="freeze"/>
    </path>
    
    <!-- Animated circle that moves along the path and draws the line -->
    <circle r="5" fill="#3b82f6" opacity="0" filter="url(#trailGlow)">
      <animate attributeName="opacity" values="0;1;1;1" dur="3.2s" begin="2.9s" fill="freeze"/>
      <animate attributeName="r" values="5;6;5" dur="1s" begin="2.9s" repeatCount="3"/>
      <animateMotion dur="3s" begin="2.9s" fill="freeze">
        <mpath href="#path_publicContributions_293.33333333333337"/>
      </animateMotion>
    </circle>
    
    <!-- Small trail dots that fade out -->
    <circle r="2" fill="#3b82f6" opacity="0">
      <animate attributeName="opacity" values="0;0.6;0" dur="0.8s" begin="3.3s" fill="freeze"/>
      <animateMotion dur="3s" begin="2.9s" fill="freeze">
        <mpath href="#path_publicContributions_293.33333333333337"/>
      </animateMotion>
    </circle>
    
    <!-- Hidden path for motion animation -->
    <path id="path_publicContributions_293.33333333333337" d="M 30,160 L 30.017131082779017,160 L 30.046142822338876,160 L 31.54287262267076,160 L 31.565272050990604,160 L 31.59096867515913,160 L 33.09079855637048,160 L 33.11167482356457,160 L 33.1433386554375,160 L 34.63836609921708,160 L 34.66126727473129,160 L 34.69112123279597,160 L 36.18365786014638,160 L 36.20571681715577,160 L 36.238204947990866,160 L 37.730938690310495,160 L 37.76331930388966,160 L 37.79638086008974,160 L 39.28443760177618,160 L 39.30821683488053,160 L 39.33812455157319,160 L 40.83229185730528,160 L 40.85573061909916,160 L 40.88563833579182,160 L 42.38127504402169,160 L 42.41206081830448,160 L 42.44843748989591,160 L 43.9299356789703,160 L 43.95229926820484,160 L 43.98089885828361,160 L 45.479832762362165,160 L 45.498809558034736,160 L 45.528753113812705,160 L 47.022992097715424,160 L 47.04531984786465,160 L 47.07382984023013,160 L 47.11284068459197,160 L 48.575344158451145,160 L 48.60514435788786,160 L 48.634729522812705,160 L 50.11977578133296,160 L 50.14706724479786,160 L 50.17557723716335,160 L 51.670694278656214,160 L 51.686033407169646,160 L 51.72203376836529,160 L 53.217294166199395,160 L 53.24273991677074,160 L 53.26365202305014,160 L 54.76670742193955,160 L 54.79075544818373,160 L 54.820018061340775,160 L 56.315798125911904,160 L 56.34149475008043,160 L 56.36966427113546,160 L 57.86266680659492,160 L 57.883077165679964,160 L 57.91459764121164,160 L 59.413710740716766,160 L 59.43575177818349,160 L 59.466662989264876,160 L 60.96086613408228,160 L 60.98654483870815,160 L 61.01747396933219,160 L 62.508218642417006,160 L 62.53300136991008,160 L 62.55154809655891,160 L 64.05343872517568,160 L 64.08848935061059,160 L 64.11216106645898,160 L 65.60503816511985,160 L 65.6291041109067,160 L 67.17916247018246,160 L 67.20557587605722,160 L 68.69798706660904,160 L 68.72121079389106,160 L 68.74886064820907,160 L 70.24969402380916,160 L 70.27858032657042,160 L 70.30614058317516,160 L 71.79796042881934,160 L 71.82765311100012,160 L 71.85662901147467,160 L 73.34887892614259,160 L 73.37658253908856,160 L 73.40041553082088,160 L 74.89275504320207,160 L 74.92108584014102,79.84313725490196 L 74.9501692578715,79.84313725490196 L 76.46937016469384,79.84313725490196 L 76.49528182337423,79.84313725490196 L 77.9847542089305,79.84313725490196 L 78.01260117821772,79.84313725490196 L 78.03125542212248,79.84313725490196 L 79.53685539606903,79.84313725490196 L 79.56457692855767,79.84313725490196 L 79.59288980595394,79.84313725490196 L 81.08216507654099,79.84313725490196 L 81.1109976206743,79.84313725490196 L 81.14644247604761,79.84313725490196 L 82.63677499965135,79.84313725490196 L 82.66702318765446,79.84313725490196 L 82.68854455838417,79.84313725490196 L 84.18398415164484,79.84313725490196 L 84.20819345377292,79.84313725490196 L 84.23783237732573,79.84313725490196 L 85.73477721216949,79.84313725490196 L 85.78964685178178,79.84313725490196 L 87.27874292694227,79.84313725490196 L 87.30841768958038,79.84313725490196 L 87.33576291167326,79.84313725490196 L 88.82867584941943,79.84313725490196 L 88.85675577276119,79.84313725490196 L 88.8860721445462,79.84313725490196 L 90.37755151887993,79.84313725490196 L 90.40618694804401,79.84313725490196 L 90.43840628573926,79.84313725490196 L 91.9250832226412,79.84313725490196 L 91.95522389338839,79.84313725490196 L 91.98618886309774,79.84313725490196 L 93.47600171996446,79.84313725490196 L 93.50556896534664,79.84313725490196 L 93.53375640594433,79.84313725490196 L 95.02638263100803,79.84313725490196 L 95.04765312814055,79.84313725490196 L 95.07709493672415,79.84313725490196 L 96.56918357550816,79.84313725490196 L 96.59654671714368,79.84313725490196 L 96.62826430764459,79.84313725490196 L 98.11813092313928,79.84313725490196 L 98.14533278889088,79.84313725490196 L 98.17527634466886,79.84313725490196 L 99.66652276494804,79.84313725490196 L 99.69229106728719,79.84313725490196 L 99.72406241641605,79.84313725490196 L 101.21598977931616,79.84313725490196 L 101.2417580816553,79.84313725490196 L 101.26564483201558,79.84313725490196 L 102.76954244940983,79.84313725490196 L 102.79149388916326,79.84313725490196 L 102.82344443371869,79.84313725490196 L 104.31307809515886,79.84313725490196 L 104.33834465030364,79.84313725490196 L 104.36676504495586,79.84313725490196 L 105.86059187937748,79.84313725490196 L 105.88284795135608,79.84313725490196 L 105.91650085246381,79.84313725490196 L 107.40724552554865,79.84313725490196 L 107.4333722187409,79.84313725490196 L 107.46543028055227,79.84313725490196 L 108.95377373492119,79.84313725490196 L 108.97814431293318,79.84313725490196 L 109.0128186279723,79.84313725490196 L 110.49791864512052,79.84313725490196 L 110.52940328156689,79.84313725490196 L 110.5617301365181,79.84313725490196 L 112.05161467155544,79.84313725490196 L 112.07675578990163,79.84313725490196 L 112.1062513571132,79.84313725490196 L 113.60194182397105,79.84313725490196 L 113.6290899310947,79.84313725490196 L 113.66207980912415,79.84313725490196 L 115.1475740562108,79.84313725490196 L 115.1792916467117,79.84313725490196 L 115.2143422721466,79.84313725490196 L 116.69888678347247,79.84313725490196 L 116.72300648788729,79.84313725490196 L 116.75456280250428,79.84313725490196 L 118.2481925219567,79.84313725490196 L 118.2706098698192,79.84313725490196 L 118.30223786260682,79.84313725490196 L 119.7930362943196,79.84313725490196 L 119.81776526318473,79.84313725490196 L 119.84873023289407,79.84313725490196 L 121.34185820515212,79.84313725490196 L 121.36993812849389,79.84313725490196 L 122.89257958750615,79.84313725490196 L 122.91838372893062,79.84313725490196 L 122.94284390465589,79.84313725490196 L 124.44152693513725,79.84313725490196 L 124.47125545640336,79.84313725490196 L 124.50505171385234,79.84313725490196 L 125.9799375916867,79.84313725490196 L 126.01618882647955,79.84313725490196 L 126.04710003756092,79.84313725490196 L 127.53452959525441,79.84313725490196 L 127.55393645995072,79.84313725490196 L 127.59072528102323,79.84313725490196 L 129.0832798279163,79.84313725490196 L 129.11080424543573,79.84313725490196 L 129.14132122657867,79.84313725490196 L 130.63382201484376,79.84313725490196 L 130.65982327123743,79.84313725490196 L 130.68734768875686,79.84313725490196 L 132.1779669250431,79.84313725490196 L 132.20764168768125,79.84313725490196 L 132.23706557672216,79.84313725490196 L 133.72530151383518,79.84313725490196 L 133.75250337958678,79.84313725490196 L 133.78318163661368,79.84313725490196 L 135.27862122987432,79.84313725490196 L 135.30920988918788,79.84313725490196 L 135.34219976721735,79.84313725490196 L 136.82941429039897,79.84313725490196 L 136.85254841996772,79.84313725490196 L 136.90367287516492,79.84313725490196 L 138.3783795575727,79.84313725490196 L 138.40190791707988,79.84313725490196 L 138.43147516246208,79.84313725490196 L 139.9214492952127,79.84313725490196 L 139.94908122998805,79.84313725490196 L 139.97829008451714,79.84313725490196 L 141.46899891851666,79.84313725490196 L 141.49560943936063,79.84313725490196 L 141.52632353547278,79.84313725490196 L 143.0182867374582,79.84313725490196 L 143.04625914354403,79.84313725490196 L 143.0718482504566,79.84313725490196 L 144.56438487780704,79.84313725490196 L 144.5920526516677,79.84313725490196 L 144.62111814985553,79.84313725490196 L 146.11953238719707,79.84313725490196 L 146.14868748309817,79.84313725490196 L 146.17916862515582,79.84313725490196 L 147.66192118221613,79.84313725490196 L 147.69123755400113,40 L 147.72164701788813,40 L 149.21644150761318,40 L 149.23726401617932,40 L 149.26559481311827,40 L 150.75890198080288,40 L 150.7788285122362,40 L 150.81690754037993,40 L 152.30935457001706,40 L 152.33815127506506,40 L 152.3625039335344,40 L 153.85154625006692,40 L 153.88417773724325,40 L 153.91593116682947,40 L 155.40694463305414,40 L 155.4219432902571,40 L 155.46034487016863,40 L 156.9548526472112,40 L 156.98483204207446,40 L 157.01981098933874,40 L 158.5030294545081,40 L 158.5294966190108,40 L 158.56533570432256,40 L 160.04842873269334,40 L 160.0784439666419,40 L 160.11173847689653,40 L 161.60013568989345,40 L 161.6219975319336,40 L 161.65303417981357,40 L 163.1440297264956,40 L 163.16893789078725,40 L 163.20106763076924,40 L 164.69518117787337,40 L 164.724569227829,40 L 164.75021209336956,40 L 166.24226489306824,40 L 166.2750934952138,40 L 166.29801259027067,40 L 167.79252036731324,40 L 167.8214066700745,40 L 167.8546653412438,40 L 169.34127059997513,40 L 169.36945804057282,40 L 169.4034872520763,40 L 170.8886051887672,40 L 170.9142659738504,40 L 170.94628819657646,40 L 172.43825139856187,40 L 172.46624172419035,40 L 172.49869401594015,40 L 173.98261134327308,40 L 174.02022446330776,40 L 174.04199670763464,40 L 175.53109278279513,40 L 175.56039123503749,40 L 175.5895463309386,40 L 177.07520185390914,40 L 177.10752870886034,40 L 177.1345513791854,40 L 178.2148130886521,40 L 178.63006265061668,40 L 178.66219239059868,40 L 178.69604240667562,40 L 180.17813194065764,40 L 180.20622978354206,40 L 180.23913006385825,40 L 181.72448095460365,40 L 181.7461456816746,40 L 181.78248651418073,40 L 183.27480810701925,40 L 183.30186661642963,40 L 183.33333333333334,40" fill="none" stroke="none"/>
  </g>
  <!-- 📊 Total Contributions Chart -->
  <g transform="translate(526.6666666666667, 250)">
    <!-- Chart Background -->
    <rect x="0" y="0" width="213.33333333333334" height="200" fill="#ffffff" stroke="#e2e8f0" stroke-width="1" rx="8" filter="url(#shadow)">
      <animate attributeName="opacity" values="0;1" dur="0.5s" begin="2.8s" fill="freeze"/>
    </rect>
    
    <!-- Chart Title -->
    <text x="106.66666666666667" y="25" text-anchor="middle" fill="#1e293b" font-size="14" font-weight="bold" font-family="Arial, sans-serif">
      📊 Total Contributions
      <animate attributeName="opacity" values="0;1" dur="0.5s" begin="3s" fill="freeze"/>
    </text>
    
    <!-- Y-axis labels -->
    <text x="10" y="45" fill="#64748b" font-size="10" font-family="Arial, sans-serif">4,917
      <animate attributeName="opacity" values="0;1" dur="0.5s" begin="3.1999999999999997s" fill="freeze"/>
    </text>
    <text x="10" y="185" fill="#64748b" font-size="10" font-family="Arial, sans-serif">3,802
      <animate attributeName="opacity" values="0;1" dur="0.5s" begin="3.1999999999999997s" fill="freeze"/>
    </text>
    
    <!-- Chart Line with draw animation that follows the circle -->
    <path d="M 30,160 L 30.017131082779017,160 L 30.046142822338876,160 L 31.54287262267076,160 L 31.565272050990604,160 L 31.59096867515913,160 L 33.09079855637048,160 L 33.11167482356457,160 L 33.1433386554375,160 L 34.63836609921708,160 L 34.66126727473129,160 L 34.69112123279597,160 L 36.18365786014638,160 L 36.20571681715577,160 L 36.238204947990866,160 L 37.730938690310495,160 L 37.76331930388966,160 L 37.79638086008974,160 L 39.28443760177618,160 L 39.30821683488053,160 L 39.33812455157319,160 L 40.83229185730528,160 L 40.85573061909916,160 L 40.88563833579182,160 L 42.38127504402169,160 L 42.41206081830448,160 L 42.44843748989591,160 L 43.9299356789703,160 L 43.95229926820484,160 L 43.98089885828361,160 L 45.479832762362165,160 L 45.498809558034736,160 L 45.528753113812705,160 L 47.022992097715424,160 L 47.04531984786465,160 L 47.07382984023013,160 L 47.11284068459197,160 L 48.575344158451145,160 L 48.60514435788786,160 L 48.634729522812705,160 L 50.11977578133296,160 L 50.14706724479786,160 L 50.17557723716335,160 L 51.670694278656214,160 L 51.686033407169646,160 L 51.72203376836529,160 L 53.217294166199395,160 L 53.24273991677074,160 L 53.26365202305014,160 L 54.76670742193955,160 L 54.79075544818373,160 L 54.820018061340775,160 L 56.315798125911904,160 L 56.34149475008043,160 L 56.36966427113546,160 L 57.86266680659492,160 L 57.883077165679964,160 L 57.91459764121164,160 L 59.413710740716766,160 L 59.43575177818349,160 L 59.466662989264876,160 L 60.96086613408228,160 L 60.98654483870815,160 L 61.01747396933219,160 L 62.508218642417006,160 L 62.53300136991008,160 L 62.55154809655891,160 L 64.05343872517568,160 L 64.08848935061059,160 L 64.11216106645898,160 L 65.60503816511985,160 L 65.6291041109067,160 L 67.17916247018246,160 L 67.20557587605722,160 L 68.69798706660904,160 L 68.72121079389106,160 L 68.74886064820907,160 L 70.24969402380916,160 L 70.27858032657042,160 L 70.30614058317516,160 L 71.79796042881934,160 L 71.82765311100012,160 L 71.85662901147467,160 L 73.34887892614259,160 L 73.37658253908856,160 L 73.40041553082088,160 L 74.89275504320207,160 L 74.92108584014102,94.78026905829597 L 74.9501692578715,94.78026905829597 L 76.46937016469384,94.78026905829597 L 76.49528182337423,94.78026905829597 L 77.9847542089305,94.78026905829597 L 78.01260117821772,94.78026905829597 L 78.03125542212248,94.78026905829597 L 79.53685539606903,94.78026905829597 L 79.56457692855767,94.78026905829597 L 79.59288980595394,94.78026905829597 L 81.08216507654099,94.78026905829597 L 81.1109976206743,94.78026905829597 L 81.14644247604761,94.78026905829597 L 82.63677499965135,94.78026905829597 L 82.66702318765446,94.78026905829597 L 82.68854455838417,94.78026905829597 L 84.18398415164484,94.78026905829597 L 84.20819345377292,94.78026905829597 L 84.23783237732573,94.78026905829597 L 85.73477721216949,94.78026905829597 L 85.78964685178178,94.78026905829597 L 87.27874292694227,94.78026905829597 L 87.30841768958038,94.78026905829597 L 87.33576291167326,94.78026905829597 L 88.82867584941943,94.78026905829597 L 88.85675577276119,94.78026905829597 L 88.8860721445462,94.78026905829597 L 90.37755151887993,94.78026905829597 L 90.40618694804401,94.78026905829597 L 90.43840628573926,94.78026905829597 L 91.9250832226412,94.78026905829597 L 91.95522389338839,94.78026905829597 L 91.98618886309774,94.78026905829597 L 93.47600171996446,94.78026905829597 L 93.50556896534664,94.78026905829597 L 93.53375640594433,94.78026905829597 L 95.02638263100803,94.78026905829597 L 95.04765312814055,94.78026905829597 L 95.07709493672415,94.78026905829597 L 96.56918357550816,94.78026905829597 L 96.59654671714368,94.78026905829597 L 96.62826430764459,94.78026905829597 L 98.11813092313928,94.78026905829597 L 98.14533278889088,94.78026905829597 L 98.17527634466886,94.78026905829597 L 99.66652276494804,94.78026905829597 L 99.69229106728719,94.78026905829597 L 99.72406241641605,94.78026905829597 L 101.21598977931616,94.78026905829597 L 101.2417580816553,94.78026905829597 L 101.26564483201558,94.78026905829597 L 102.76954244940983,94.78026905829597 L 102.79149388916326,94.78026905829597 L 102.82344443371869,94.78026905829597 L 104.31307809515886,94.78026905829597 L 104.33834465030364,94.78026905829597 L 104.36676504495586,94.78026905829597 L 105.86059187937748,94.78026905829597 L 105.88284795135608,94.78026905829597 L 105.91650085246381,94.78026905829597 L 107.40724552554865,94.78026905829597 L 107.4333722187409,94.78026905829597 L 107.46543028055227,94.78026905829597 L 108.95377373492119,94.78026905829597 L 108.97814431293318,94.78026905829597 L 109.0128186279723,94.78026905829597 L 110.49791864512052,94.78026905829597 L 110.52940328156689,94.78026905829597 L 110.5617301365181,94.78026905829597 L 112.05161467155544,94.78026905829597 L 112.07675578990163,94.78026905829597 L 112.1062513571132,94.78026905829597 L 113.60194182397105,94.78026905829597 L 113.6290899310947,94.78026905829597 L 113.66207980912415,94.78026905829597 L 115.1475740562108,94.78026905829597 L 115.1792916467117,94.78026905829597 L 115.2143422721466,94.78026905829597 L 116.69888678347247,94.78026905829597 L 116.72300648788729,94.78026905829597 L 116.75456280250428,94.78026905829597 L 118.2481925219567,94.78026905829597 L 118.2706098698192,94.78026905829597 L 118.30223786260682,94.78026905829597 L 119.7930362943196,94.78026905829597 L 119.81776526318473,94.78026905829597 L 119.84873023289407,94.78026905829597 L 121.34185820515212,94.78026905829597 L 121.36993812849389,94.78026905829597 L 122.89257958750615,94.78026905829597 L 122.91838372893062,94.78026905829597 L 122.94284390465589,94.78026905829597 L 124.44152693513725,94.78026905829597 L 124.47125545640336,94.78026905829597 L 124.50505171385234,94.78026905829597 L 125.9799375916867,94.78026905829597 L 126.01618882647955,94.78026905829597 L 126.04710003756092,94.78026905829597 L 127.53452959525441,94.78026905829597 L 127.55393645995072,94.78026905829597 L 127.59072528102323,94.78026905829597 L 129.0832798279163,94.78026905829597 L 129.11080424543573,94.78026905829597 L 129.14132122657867,94.78026905829597 L 130.63382201484376,94.78026905829597 L 130.65982327123743,94.78026905829597 L 130.68734768875686,94.78026905829597 L 132.1779669250431,94.78026905829597 L 132.20764168768125,94.78026905829597 L 132.23706557672216,94.78026905829597 L 133.72530151383518,94.78026905829597 L 133.75250337958678,94.78026905829597 L 133.78318163661368,94.78026905829597 L 135.27862122987432,94.78026905829597 L 135.30920988918788,94.78026905829597 L 135.34219976721735,94.78026905829597 L 136.82941429039897,94.78026905829597 L 136.85254841996772,94.78026905829597 L 136.90367287516492,94.78026905829597 L 138.3783795575727,94.78026905829597 L 138.40190791707988,94.78026905829597 L 138.43147516246208,94.78026905829597 L 139.9214492952127,94.78026905829597 L 139.94908122998805,94.78026905829597 L 139.97829008451714,94.78026905829597 L 141.46899891851666,94.78026905829597 L 141.49560943936063,94.78026905829597 L 141.52632353547278,94.78026905829597 L 143.0182867374582,94.78026905829597 L 143.04625914354403,94.78026905829597 L 143.0718482504566,94.78026905829597 L 144.56438487780704,94.78026905829597 L 144.5920526516677,94.78026905829597 L 144.62111814985553,94.78026905829597 L 146.11953238719707,94.78026905829597 L 146.14868748309817,94.78026905829597 L 146.17916862515582,94.78026905829597 L 147.66192118221613,94.78026905829597 L 147.69123755400113,40 L 147.72164701788813,40 L 149.21644150761318,40 L 149.23726401617932,40 L 149.26559481311827,40 L 150.75890198080288,40 L 150.7788285122362,40 L 150.81690754037993,40 L 152.30935457001706,40 L 152.33815127506506,40 L 152.3625039335344,40 L 153.85154625006692,40 L 153.88417773724325,40 L 153.91593116682947,40 L 155.40694463305414,40 L 155.4219432902571,40 L 155.46034487016863,40 L 156.9548526472112,40 L 156.98483204207446,40 L 157.01981098933874,40 L 158.5030294545081,40 L 158.5294966190108,40 L 158.56533570432256,40 L 160.04842873269334,40 L 160.0784439666419,40 L 160.11173847689653,40 L 161.60013568989345,40 L 161.6219975319336,40 L 161.65303417981357,40 L 163.1440297264956,40 L 163.16893789078725,40 L 163.20106763076924,40 L 164.69518117787337,40 L 164.724569227829,40 L 164.75021209336956,40 L 166.24226489306824,40 L 166.2750934952138,40 L 166.29801259027067,40 L 167.79252036731324,40 L 167.8214066700745,40 L 167.8546653412438,40 L 169.34127059997513,40 L 169.36945804057282,40 L 169.4034872520763,40 L 170.8886051887672,40 L 170.9142659738504,40 L 170.94628819657646,40 L 172.43825139856187,40 L 172.46624172419035,40 L 172.49869401594015,40 L 173.98261134327308,40 L 174.02022446330776,40 L 174.04199670763464,40 L 175.53109278279513,40 L 175.56039123503749,40 L 175.5895463309386,40 L 177.07520185390914,40 L 177.10752870886034,40 L 177.1345513791854,40 L 178.2148130886521,40 L 178.63006265061668,40 L 178.66219239059868,40 L 178.69604240667562,40 L 180.17813194065764,40 L 180.20622978354206,40 L 180.23913006385825,40 L 181.72448095460365,40 L 181.7461456816746,40 L 181.78248651418073,40 L 183.27480810701925,40 L 183.30186661642963,40 L 183.33333333333334,40" stroke="#f59e0b" stroke-width="2" fill="none" stroke-dasharray="14850" stroke-dashoffset="14850">
      <animate attributeName="stroke-dashoffset" values="14850;0" dur="3s" begin="3.5999999999999996s" fill="freeze"/>
    </path>
    
    <!-- Glow effect for the line that also follows the circle -->
    <path d="M 30,160 L 30.017131082779017,160 L 30.046142822338876,160 L 31.54287262267076,160 L 31.565272050990604,160 L 31.59096867515913,160 L 33.09079855637048,160 L 33.11167482356457,160 L 33.1433386554375,160 L 34.63836609921708,160 L 34.66126727473129,160 L 34.69112123279597,160 L 36.18365786014638,160 L 36.20571681715577,160 L 36.238204947990866,160 L 37.730938690310495,160 L 37.76331930388966,160 L 37.79638086008974,160 L 39.28443760177618,160 L 39.30821683488053,160 L 39.33812455157319,160 L 40.83229185730528,160 L 40.85573061909916,160 L 40.88563833579182,160 L 42.38127504402169,160 L 42.41206081830448,160 L 42.44843748989591,160 L 43.9299356789703,160 L 43.95229926820484,160 L 43.98089885828361,160 L 45.479832762362165,160 L 45.498809558034736,160 L 45.528753113812705,160 L 47.022992097715424,160 L 47.04531984786465,160 L 47.07382984023013,160 L 47.11284068459197,160 L 48.575344158451145,160 L 48.60514435788786,160 L 48.634729522812705,160 L 50.11977578133296,160 L 50.14706724479786,160 L 50.17557723716335,160 L 51.670694278656214,160 L 51.686033407169646,160 L 51.72203376836529,160 L 53.217294166199395,160 L 53.24273991677074,160 L 53.26365202305014,160 L 54.76670742193955,160 L 54.79075544818373,160 L 54.820018061340775,160 L 56.315798125911904,160 L 56.34149475008043,160 L 56.36966427113546,160 L 57.86266680659492,160 L 57.883077165679964,160 L 57.91459764121164,160 L 59.413710740716766,160 L 59.43575177818349,160 L 59.466662989264876,160 L 60.96086613408228,160 L 60.98654483870815,160 L 61.01747396933219,160 L 62.508218642417006,160 L 62.53300136991008,160 L 62.55154809655891,160 L 64.05343872517568,160 L 64.08848935061059,160 L 64.11216106645898,160 L 65.60503816511985,160 L 65.6291041109067,160 L 67.17916247018246,160 L 67.20557587605722,160 L 68.69798706660904,160 L 68.72121079389106,160 L 68.74886064820907,160 L 70.24969402380916,160 L 70.27858032657042,160 L 70.30614058317516,160 L 71.79796042881934,160 L 71.82765311100012,160 L 71.85662901147467,160 L 73.34887892614259,160 L 73.37658253908856,160 L 73.40041553082088,160 L 74.89275504320207,160 L 74.92108584014102,94.78026905829597 L 74.9501692578715,94.78026905829597 L 76.46937016469384,94.78026905829597 L 76.49528182337423,94.78026905829597 L 77.9847542089305,94.78026905829597 L 78.01260117821772,94.78026905829597 L 78.03125542212248,94.78026905829597 L 79.53685539606903,94.78026905829597 L 79.56457692855767,94.78026905829597 L 79.59288980595394,94.78026905829597 L 81.08216507654099,94.78026905829597 L 81.1109976206743,94.78026905829597 L 81.14644247604761,94.78026905829597 L 82.63677499965135,94.78026905829597 L 82.66702318765446,94.78026905829597 L 82.68854455838417,94.78026905829597 L 84.18398415164484,94.78026905829597 L 84.20819345377292,94.78026905829597 L 84.23783237732573,94.78026905829597 L 85.73477721216949,94.78026905829597 L 85.78964685178178,94.78026905829597 L 87.27874292694227,94.78026905829597 L 87.30841768958038,94.78026905829597 L 87.33576291167326,94.78026905829597 L 88.82867584941943,94.78026905829597 L 88.85675577276119,94.78026905829597 L 88.8860721445462,94.78026905829597 L 90.37755151887993,94.78026905829597 L 90.40618694804401,94.78026905829597 L 90.43840628573926,94.78026905829597 L 91.9250832226412,94.78026905829597 L 91.95522389338839,94.78026905829597 L 91.98618886309774,94.78026905829597 L 93.47600171996446,94.78026905829597 L 93.50556896534664,94.78026905829597 L 93.53375640594433,94.78026905829597 L 95.02638263100803,94.78026905829597 L 95.04765312814055,94.78026905829597 L 95.07709493672415,94.78026905829597 L 96.56918357550816,94.78026905829597 L 96.59654671714368,94.78026905829597 L 96.62826430764459,94.78026905829597 L 98.11813092313928,94.78026905829597 L 98.14533278889088,94.78026905829597 L 98.17527634466886,94.78026905829597 L 99.66652276494804,94.78026905829597 L 99.69229106728719,94.78026905829597 L 99.72406241641605,94.78026905829597 L 101.21598977931616,94.78026905829597 L 101.2417580816553,94.78026905829597 L 101.26564483201558,94.78026905829597 L 102.76954244940983,94.78026905829597 L 102.79149388916326,94.78026905829597 L 102.82344443371869,94.78026905829597 L 104.31307809515886,94.78026905829597 L 104.33834465030364,94.78026905829597 L 104.36676504495586,94.78026905829597 L 105.86059187937748,94.78026905829597 L 105.88284795135608,94.78026905829597 L 105.91650085246381,94.78026905829597 L 107.40724552554865,94.78026905829597 L 107.4333722187409,94.78026905829597 L 107.46543028055227,94.78026905829597 L 108.95377373492119,94.78026905829597 L 108.97814431293318,94.78026905829597 L 109.0128186279723,94.78026905829597 L 110.49791864512052,94.78026905829597 L 110.52940328156689,94.78026905829597 L 110.5617301365181,94.78026905829597 L 112.05161467155544,94.78026905829597 L 112.07675578990163,94.78026905829597 L 112.1062513571132,94.78026905829597 L 113.60194182397105,94.78026905829597 L 113.6290899310947,94.78026905829597 L 113.66207980912415,94.78026905829597 L 115.1475740562108,94.78026905829597 L 115.1792916467117,94.78026905829597 L 115.2143422721466,94.78026905829597 L 116.69888678347247,94.78026905829597 L 116.72300648788729,94.78026905829597 L 116.75456280250428,94.78026905829597 L 118.2481925219567,94.78026905829597 L 118.2706098698192,94.78026905829597 L 118.30223786260682,94.78026905829597 L 119.7930362943196,94.78026905829597 L 119.81776526318473,94.78026905829597 L 119.84873023289407,94.78026905829597 L 121.34185820515212,94.78026905829597 L 121.36993812849389,94.78026905829597 L 122.89257958750615,94.78026905829597 L 122.91838372893062,94.78026905829597 L 122.94284390465589,94.78026905829597 L 124.44152693513725,94.78026905829597 L 124.47125545640336,94.78026905829597 L 124.50505171385234,94.78026905829597 L 125.9799375916867,94.78026905829597 L 126.01618882647955,94.78026905829597 L 126.04710003756092,94.78026905829597 L 127.53452959525441,94.78026905829597 L 127.55393645995072,94.78026905829597 L 127.59072528102323,94.78026905829597 L 129.0832798279163,94.78026905829597 L 129.11080424543573,94.78026905829597 L 129.14132122657867,94.78026905829597 L 130.63382201484376,94.78026905829597 L 130.65982327123743,94.78026905829597 L 130.68734768875686,94.78026905829597 L 132.1779669250431,94.78026905829597 L 132.20764168768125,94.78026905829597 L 132.23706557672216,94.78026905829597 L 133.72530151383518,94.78026905829597 L 133.75250337958678,94.78026905829597 L 133.78318163661368,94.78026905829597 L 135.27862122987432,94.78026905829597 L 135.30920988918788,94.78026905829597 L 135.34219976721735,94.78026905829597 L 136.82941429039897,94.78026905829597 L 136.85254841996772,94.78026905829597 L 136.90367287516492,94.78026905829597 L 138.3783795575727,94.78026905829597 L 138.40190791707988,94.78026905829597 L 138.43147516246208,94.78026905829597 L 139.9214492952127,94.78026905829597 L 139.94908122998805,94.78026905829597 L 139.97829008451714,94.78026905829597 L 141.46899891851666,94.78026905829597 L 141.49560943936063,94.78026905829597 L 141.52632353547278,94.78026905829597 L 143.0182867374582,94.78026905829597 L 143.04625914354403,94.78026905829597 L 143.0718482504566,94.78026905829597 L 144.56438487780704,94.78026905829597 L 144.5920526516677,94.78026905829597 L 144.62111814985553,94.78026905829597 L 146.11953238719707,94.78026905829597 L 146.14868748309817,94.78026905829597 L 146.17916862515582,94.78026905829597 L 147.66192118221613,94.78026905829597 L 147.69123755400113,40 L 147.72164701788813,40 L 149.21644150761318,40 L 149.23726401617932,40 L 149.26559481311827,40 L 150.75890198080288,40 L 150.7788285122362,40 L 150.81690754037993,40 L 152.30935457001706,40 L 152.33815127506506,40 L 152.3625039335344,40 L 153.85154625006692,40 L 153.88417773724325,40 L 153.91593116682947,40 L 155.40694463305414,40 L 155.4219432902571,40 L 155.46034487016863,40 L 156.9548526472112,40 L 156.98483204207446,40 L 157.01981098933874,40 L 158.5030294545081,40 L 158.5294966190108,40 L 158.56533570432256,40 L 160.04842873269334,40 L 160.0784439666419,40 L 160.11173847689653,40 L 161.60013568989345,40 L 161.6219975319336,40 L 161.65303417981357,40 L 163.1440297264956,40 L 163.16893789078725,40 L 163.20106763076924,40 L 164.69518117787337,40 L 164.724569227829,40 L 164.75021209336956,40 L 166.24226489306824,40 L 166.2750934952138,40 L 166.29801259027067,40 L 167.79252036731324,40 L 167.8214066700745,40 L 167.8546653412438,40 L 169.34127059997513,40 L 169.36945804057282,40 L 169.4034872520763,40 L 170.8886051887672,40 L 170.9142659738504,40 L 170.94628819657646,40 L 172.43825139856187,40 L 172.46624172419035,40 L 172.49869401594015,40 L 173.98261134327308,40 L 174.02022446330776,40 L 174.04199670763464,40 L 175.53109278279513,40 L 175.56039123503749,40 L 175.5895463309386,40 L 177.07520185390914,40 L 177.10752870886034,40 L 177.1345513791854,40 L 178.2148130886521,40 L 178.63006265061668,40 L 178.66219239059868,40 L 178.69604240667562,40 L 180.17813194065764,40 L 180.20622978354206,40 L 180.23913006385825,40 L 181.72448095460365,40 L 181.7461456816746,40 L 181.78248651418073,40 L 183.27480810701925,40 L 183.30186661642963,40 L 183.33333333333334,40" stroke="#f59e0b" stroke-width="4" fill="none" opacity="0.4" stroke-dasharray="14850" stroke-dashoffset="14850">
      <animate attributeName="stroke-dashoffset" values="14850;0" dur="3s" begin="3.5999999999999996s" fill="freeze"/>
    </path>
    
    <!-- Animated circle that moves along the path and draws the line -->
    <circle r="5" fill="#f59e0b" opacity="0" filter="url(#trailGlow)">
      <animate attributeName="opacity" values="0;1;1;1" dur="3.2s" begin="3.4s" fill="freeze"/>
      <animate attributeName="r" values="5;6;5" dur="1s" begin="3.4s" repeatCount="3"/>
      <animateMotion dur="3s" begin="3.4s" fill="freeze">
        <mpath href="#path_totalContributions_526.6666666666667"/>
      </animateMotion>
    </circle>
    
    <!-- Small trail dots that fade out -->
    <circle r="2" fill="#f59e0b" opacity="0">
      <animate attributeName="opacity" values="0;0.6;0" dur="0.8s" begin="3.8s" fill="freeze"/>
      <animateMotion dur="3s" begin="3.4s" fill="freeze">
        <mpath href="#path_totalContributions_526.6666666666667"/>
      </animateMotion>
    </circle>
    
    <!-- Hidden path for motion animation -->
    <path id="path_totalContributions_526.6666666666667" d="M 30,160 L 30.017131082779017,160 L 30.046142822338876,160 L 31.54287262267076,160 L 31.565272050990604,160 L 31.59096867515913,160 L 33.09079855637048,160 L 33.11167482356457,160 L 33.1433386554375,160 L 34.63836609921708,160 L 34.66126727473129,160 L 34.69112123279597,160 L 36.18365786014638,160 L 36.20571681715577,160 L 36.238204947990866,160 L 37.730938690310495,160 L 37.76331930388966,160 L 37.79638086008974,160 L 39.28443760177618,160 L 39.30821683488053,160 L 39.33812455157319,160 L 40.83229185730528,160 L 40.85573061909916,160 L 40.88563833579182,160 L 42.38127504402169,160 L 42.41206081830448,160 L 42.44843748989591,160 L 43.9299356789703,160 L 43.95229926820484,160 L 43.98089885828361,160 L 45.479832762362165,160 L 45.498809558034736,160 L 45.528753113812705,160 L 47.022992097715424,160 L 47.04531984786465,160 L 47.07382984023013,160 L 47.11284068459197,160 L 48.575344158451145,160 L 48.60514435788786,160 L 48.634729522812705,160 L 50.11977578133296,160 L 50.14706724479786,160 L 50.17557723716335,160 L 51.670694278656214,160 L 51.686033407169646,160 L 51.72203376836529,160 L 53.217294166199395,160 L 53.24273991677074,160 L 53.26365202305014,160 L 54.76670742193955,160 L 54.79075544818373,160 L 54.820018061340775,160 L 56.315798125911904,160 L 56.34149475008043,160 L 56.36966427113546,160 L 57.86266680659492,160 L 57.883077165679964,160 L 57.91459764121164,160 L 59.413710740716766,160 L 59.43575177818349,160 L 59.466662989264876,160 L 60.96086613408228,160 L 60.98654483870815,160 L 61.01747396933219,160 L 62.508218642417006,160 L 62.53300136991008,160 L 62.55154809655891,160 L 64.05343872517568,160 L 64.08848935061059,160 L 64.11216106645898,160 L 65.60503816511985,160 L 65.6291041109067,160 L 67.17916247018246,160 L 67.20557587605722,160 L 68.69798706660904,160 L 68.72121079389106,160 L 68.74886064820907,160 L 70.24969402380916,160 L 70.27858032657042,160 L 70.30614058317516,160 L 71.79796042881934,160 L 71.82765311100012,160 L 71.85662901147467,160 L 73.34887892614259,160 L 73.37658253908856,160 L 73.40041553082088,160 L 74.89275504320207,160 L 74.92108584014102,94.78026905829597 L 74.9501692578715,94.78026905829597 L 76.46937016469384,94.78026905829597 L 76.49528182337423,94.78026905829597 L 77.9847542089305,94.78026905829597 L 78.01260117821772,94.78026905829597 L 78.03125542212248,94.78026905829597 L 79.53685539606903,94.78026905829597 L 79.56457692855767,94.78026905829597 L 79.59288980595394,94.78026905829597 L 81.08216507654099,94.78026905829597 L 81.1109976206743,94.78026905829597 L 81.14644247604761,94.78026905829597 L 82.63677499965135,94.78026905829597 L 82.66702318765446,94.78026905829597 L 82.68854455838417,94.78026905829597 L 84.18398415164484,94.78026905829597 L 84.20819345377292,94.78026905829597 L 84.23783237732573,94.78026905829597 L 85.73477721216949,94.78026905829597 L 85.78964685178178,94.78026905829597 L 87.27874292694227,94.78026905829597 L 87.30841768958038,94.78026905829597 L 87.33576291167326,94.78026905829597 L 88.82867584941943,94.78026905829597 L 88.85675577276119,94.78026905829597 L 88.8860721445462,94.78026905829597 L 90.37755151887993,94.78026905829597 L 90.40618694804401,94.78026905829597 L 90.43840628573926,94.78026905829597 L 91.9250832226412,94.78026905829597 L 91.95522389338839,94.78026905829597 L 91.98618886309774,94.78026905829597 L 93.47600171996446,94.78026905829597 L 93.50556896534664,94.78026905829597 L 93.53375640594433,94.78026905829597 L 95.02638263100803,94.78026905829597 L 95.04765312814055,94.78026905829597 L 95.07709493672415,94.78026905829597 L 96.56918357550816,94.78026905829597 L 96.59654671714368,94.78026905829597 L 96.62826430764459,94.78026905829597 L 98.11813092313928,94.78026905829597 L 98.14533278889088,94.78026905829597 L 98.17527634466886,94.78026905829597 L 99.66652276494804,94.78026905829597 L 99.69229106728719,94.78026905829597 L 99.72406241641605,94.78026905829597 L 101.21598977931616,94.78026905829597 L 101.2417580816553,94.78026905829597 L 101.26564483201558,94.78026905829597 L 102.76954244940983,94.78026905829597 L 102.79149388916326,94.78026905829597 L 102.82344443371869,94.78026905829597 L 104.31307809515886,94.78026905829597 L 104.33834465030364,94.78026905829597 L 104.36676504495586,94.78026905829597 L 105.86059187937748,94.78026905829597 L 105.88284795135608,94.78026905829597 L 105.91650085246381,94.78026905829597 L 107.40724552554865,94.78026905829597 L 107.4333722187409,94.78026905829597 L 107.46543028055227,94.78026905829597 L 108.95377373492119,94.78026905829597 L 108.97814431293318,94.78026905829597 L 109.0128186279723,94.78026905829597 L 110.49791864512052,94.78026905829597 L 110.52940328156689,94.78026905829597 L 110.5617301365181,94.78026905829597 L 112.05161467155544,94.78026905829597 L 112.07675578990163,94.78026905829597 L 112.1062513571132,94.78026905829597 L 113.60194182397105,94.78026905829597 L 113.6290899310947,94.78026905829597 L 113.66207980912415,94.78026905829597 L 115.1475740562108,94.78026905829597 L 115.1792916467117,94.78026905829597 L 115.2143422721466,94.78026905829597 L 116.69888678347247,94.78026905829597 L 116.72300648788729,94.78026905829597 L 116.75456280250428,94.78026905829597 L 118.2481925219567,94.78026905829597 L 118.2706098698192,94.78026905829597 L 118.30223786260682,94.78026905829597 L 119.7930362943196,94.78026905829597 L 119.81776526318473,94.78026905829597 L 119.84873023289407,94.78026905829597 L 121.34185820515212,94.78026905829597 L 121.36993812849389,94.78026905829597 L 122.89257958750615,94.78026905829597 L 122.91838372893062,94.78026905829597 L 122.94284390465589,94.78026905829597 L 124.44152693513725,94.78026905829597 L 124.47125545640336,94.78026905829597 L 124.50505171385234,94.78026905829597 L 125.9799375916867,94.78026905829597 L 126.01618882647955,94.78026905829597 L 126.04710003756092,94.78026905829597 L 127.53452959525441,94.78026905829597 L 127.55393645995072,94.78026905829597 L 127.59072528102323,94.78026905829597 L 129.0832798279163,94.78026905829597 L 129.11080424543573,94.78026905829597 L 129.14132122657867,94.78026905829597 L 130.63382201484376,94.78026905829597 L 130.65982327123743,94.78026905829597 L 130.68734768875686,94.78026905829597 L 132.1779669250431,94.78026905829597 L 132.20764168768125,94.78026905829597 L 132.23706557672216,94.78026905829597 L 133.72530151383518,94.78026905829597 L 133.75250337958678,94.78026905829597 L 133.78318163661368,94.78026905829597 L 135.27862122987432,94.78026905829597 L 135.30920988918788,94.78026905829597 L 135.34219976721735,94.78026905829597 L 136.82941429039897,94.78026905829597 L 136.85254841996772,94.78026905829597 L 136.90367287516492,94.78026905829597 L 138.3783795575727,94.78026905829597 L 138.40190791707988,94.78026905829597 L 138.43147516246208,94.78026905829597 L 139.9214492952127,94.78026905829597 L 139.94908122998805,94.78026905829597 L 139.97829008451714,94.78026905829597 L 141.46899891851666,94.78026905829597 L 141.49560943936063,94.78026905829597 L 141.52632353547278,94.78026905829597 L 143.0182867374582,94.78026905829597 L 143.04625914354403,94.78026905829597 L 143.0718482504566,94.78026905829597 L 144.56438487780704,94.78026905829597 L 144.5920526516677,94.78026905829597 L 144.62111814985553,94.78026905829597 L 146.11953238719707,94.78026905829597 L 146.14868748309817,94.78026905829597 L 146.17916862515582,94.78026905829597 L 147.66192118221613,94.78026905829597 L 147.69123755400113,40 L 147.72164701788813,40 L 149.21644150761318,40 L 149.23726401617932,40 L 149.26559481311827,40 L 150.75890198080288,40 L 150.7788285122362,40 L 150.81690754037993,40 L 152.30935457001706,40 L 152.33815127506506,40 L 152.3625039335344,40 L 153.85154625006692,40 L 153.88417773724325,40 L 153.91593116682947,40 L 155.40694463305414,40 L 155.4219432902571,40 L 155.46034487016863,40 L 156.9548526472112,40 L 156.98483204207446,40 L 157.01981098933874,40 L 158.5030294545081,40 L 158.5294966190108,40 L 158.56533570432256,40 L 160.04842873269334,40 L 160.0784439666419,40 L 160.11173847689653,40 L 161.60013568989345,40 L 161.6219975319336,40 L 161.65303417981357,40 L 163.1440297264956,40 L 163.16893789078725,40 L 163.20106763076924,40 L 164.69518117787337,40 L 164.724569227829,40 L 164.75021209336956,40 L 166.24226489306824,40 L 166.2750934952138,40 L 166.29801259027067,40 L 167.79252036731324,40 L 167.8214066700745,40 L 167.8546653412438,40 L 169.34127059997513,40 L 169.36945804057282,40 L 169.4034872520763,40 L 170.8886051887672,40 L 170.9142659738504,40 L 170.94628819657646,40 L 172.43825139856187,40 L 172.46624172419035,40 L 172.49869401594015,40 L 173.98261134327308,40 L 174.02022446330776,40 L 174.04199670763464,40 L 175.53109278279513,40 L 175.56039123503749,40 L 175.5895463309386,40 L 177.07520185390914,40 L 177.10752870886034,40 L 177.1345513791854,40 L 178.2148130886521,40 L 178.63006265061668,40 L 178.66219239059868,40 L 178.69604240667562,40 L 180.17813194065764,40 L 180.20622978354206,40 L 180.23913006385825,40 L 181.72448095460365,40 L 181.7461456816746,40 L 181.78248651418073,40 L 183.27480810701925,40 L 183.30186661642963,40 L 183.33333333333334,40" fill="none" stroke="none"/>
  </g>
  
  <!-- Footer -->
  <text x="400" y="580" text-anchor="middle" fill="#94a3b8" font-size="12" font-family="Arial, sans-serif">
    Generated by GitHub User Rank Tracker • 12/31/2025
    <animate attributeName="opacity" values="0;1" dur="0.5s" begin="5s" fill="freeze"/>
  </text>
</svg>