<svg width="800" height="600" xmlns="http://www.w3.org/2000/svg">
  <defs>
    <linearGradient id="bgGradient" x1="0%" y1="0%" x2="100%" y2="100%">
      <stop offset="0%" style="stop-color:#f8fafc;stop-opacity:1" />
      <stop offset="100%" style="stop-color:#e2e8f0;stop-opacity:1" />
    </linearGradient>
    <filter id="shadow" x="-20%" y="-20%" width="140%" height="140%">
      <feDropShadow dx="2" dy="2" stdDeviation="3" flood-color="#00000020" flood-opacity="0.1"/>
    </filter>
    <!-- Trail effect filter -->
    <filter id="trailGlow" x="-50%" y="-50%" width="200%" height="200%">
      <feGaussianBlur stdDeviation="3" result="coloredBlur"/>
      <feMerge> 
        <feMergeNode in="coloredBlur"/>
        <feMergeNode in="SourceGraphic"/>
      </feMerge>
    </filter>
  </defs>
  
  <!-- Background -->
  <rect width="800" height="600" fill="url(#bgGradient)" rx="12"/>
  
  <!-- Header -->
  <text x="400" y="40" text-anchor="middle" fill="#0f172a" font-size="24" font-weight="bold" font-family="Arial, sans-serif">
    GitHub Progress Report
    <animate attributeName="opacity" values="0;1" dur="0.8s" begin="0s" fill="freeze"/>
    <animateTransform attributeName="transform" type="translate" values="0,-20;0,0" dur="0.8s" begin="0s" fill="freeze"/>
  </text>
  
  <!-- User Info -->
  <text x="400" y="70" text-anchor="middle" fill="#475569" font-size="16" font-family="Arial, sans-serif">
    @maifeeulasad • BANGLADESH • 100 days analyzed
    <animate attributeName="opacity" values="0;1" dur="0.6s" begin="0.3s" fill="freeze"/>
  </text>
  
  <!-- Progress Cards -->
  <!-- Followers Card -->
  <g transform="translate(60, 100)">
    <rect width="206.66666666666666" height="120" fill="#ffffff" stroke="#e2e8f0" stroke-width="1" rx="8" filter="url(#shadow)">
      <animate attributeName="opacity" values="0;1" dur="0.6s" begin="0.2s" fill="freeze"/>
      <animateTransform attributeName="transform" type="scale" values="0.8;1" dur="0.6s" begin="0.2s" fill="freeze"/>
    </rect>
    <text x="103.33333333333333" y="25" text-anchor="middle" fill="#64748b" font-size="14" font-weight="bold" font-family="Arial, sans-serif">FOLLOWERS
      <animate attributeName="opacity" values="0;1" dur="0.5s" begin="0.4s" fill="freeze"/>
    </text>
    
    <text x="103.33333333333333" y="50" text-anchor="middle" fill="#ef4444" font-size="32" font-weight="bold" font-family="Arial, sans-serif">
      ↘
      <animate attributeName="opacity" values="0;1" dur="0.5s" begin="0.6s" fill="freeze"/>
      <animateTransform attributeName="transform" type="scale" values="0;1.2;1" dur="0.8s" begin="0.6s" fill="freeze"/>
    </text>
    
    <text x="103.33333333333333" y="75" text-anchor="middle" fill="#1e293b" font-size="18" font-weight="bold" font-family="Arial, sans-serif">
      -23
      <animate attributeName="opacity" values="0;1" dur="0.5s" begin="0.8s" fill="freeze"/>
    </text>
    
    <text x="103.33333333333333" y="95" text-anchor="middle" fill="#64748b" font-size="12" font-family="Arial, sans-serif">
      #458 → #481
      <animate attributeName="opacity" values="0;1" dur="0.5s" begin="1s" fill="freeze"/>
    </text>
  </g>
  
  <!-- Public Contributions Card -->
  <g transform="translate(296.66666666666663, 100)">
    <rect width="206.66666666666666" height="120" fill="#ffffff" stroke="#e2e8f0" stroke-width="1" rx="8" filter="url(#shadow)">
      <animate attributeName="opacity" values="0;1" dur="0.6s" begin="0.4s" fill="freeze"/>
      <animateTransform attributeName="transform" type="scale" values="0.8;1" dur="0.6s" begin="0.4s" fill="freeze"/>
    </rect>
    <text x="103.33333333333333" y="25" text-anchor="middle" fill="#64748b" font-size="14" font-weight="bold" font-family="Arial, sans-serif">PUBLIC
      <animate attributeName="opacity" values="0;1" dur="0.5s" begin="0.6s" fill="freeze"/>
    </text>
    
    <text x="103.33333333333333" y="50" text-anchor="middle" fill="#ef4444" font-size="32" font-weight="bold" font-family="Arial, sans-serif">
      ↘
      <animate attributeName="opacity" values="0;1" dur="0.5s" begin="0.8s" fill="freeze"/>
      <animateTransform attributeName="transform" type="scale" values="0;1.2;1" dur="0.8s" begin="0.8s" fill="freeze"/>
    </text>
    
    <text x="103.33333333333333" y="75" text-anchor="middle" fill="#1e293b" font-size="18" font-weight="bold" font-family="Arial, sans-serif">
      -1
      <animate attributeName="opacity" values="0;1" dur="0.5s" begin="1s" fill="freeze"/>
    </text>
    
    <text x="103.33333333333333" y="95" text-anchor="middle" fill="#64748b" font-size="12" font-family="Arial, sans-serif">
      #6 → #7
      <animate attributeName="opacity" values="0;1" dur="0.5s" begin="1.2s" fill="freeze"/>
    </text>
  </g>
  
  <!-- Total Contributions Card -->
  <g transform="translate(533.3333333333333, 100)">
    <rect width="206.66666666666666" height="120" fill="#ffffff" stroke="#e2e8f0" stroke-width="1" rx="8" filter="url(#shadow)">
      <animate attributeName="opacity" values="0;1" dur="0.6s" begin="0.6s" fill="freeze"/>
      <animateTransform attributeName="transform" type="scale" values="0.8;1" dur="0.6s" begin="0.6s" fill="freeze"/>
    </rect>
    <text x="103.33333333333333" y="25" text-anchor="middle" fill="#64748b" font-size="14" font-weight="bold" font-family="Arial, sans-serif">TOTAL
      <animate attributeName="opacity" values="0;1" dur="0.5s" begin="0.8s" fill="freeze"/>
    </text>
    
    <text x="103.33333333333333" y="50" text-anchor="middle" fill="#22c55e" font-size="32" font-weight="bold" font-family="Arial, sans-serif">
      ↗
      <animate attributeName="opacity" values="0;1" dur="0.5s" begin="1s" fill="freeze"/>
      <animateTransform attributeName="transform" type="scale" values="0;1.2;1" dur="0.8s" begin="1s" fill="freeze"/>
    </text>
    
    <text x="103.33333333333333" y="75" text-anchor="middle" fill="#1e293b" font-size="18" font-weight="bold" font-family="Arial, sans-serif">
      +6
      <animate attributeName="opacity" values="0;1" dur="0.5s" begin="1.2s" fill="freeze"/>
    </text>
    
    <text x="103.33333333333333" y="95" text-anchor="middle" fill="#64748b" font-size="12" font-family="Arial, sans-serif">
      #18 → #12
      <animate attributeName="opacity" values="0;1" dur="0.5s" begin="1.4s" fill="freeze"/>
    </text>
  </g>
  
  <!-- Timeline Charts (if we have snapshots) -->
  
  <!-- 👥 Followers Count Chart -->
  <g transform="translate(60, 250)">
    <!-- Chart Background -->
    <rect x="0" y="0" width="213.33333333333334" height="200" fill="#ffffff" stroke="#e2e8f0" stroke-width="1" rx="8" filter="url(#shadow)">
      <animate attributeName="opacity" values="0;1" dur="0.5s" begin="1.8s" fill="freeze"/>
    </rect>
    
    <!-- Chart Title -->
    <text x="106.66666666666667" y="25" text-anchor="middle" fill="#1e293b" font-size="14" font-weight="bold" font-family="Arial, sans-serif">
      👥 Followers Count
      <animate attributeName="opacity" values="0;1" dur="0.5s" begin="2s" fill="freeze"/>
    </text>
    
    <!-- Y-axis labels -->
    <text x="10" y="45" fill="#64748b" font-size="10" font-family="Arial, sans-serif">154
      <animate attributeName="opacity" values="0;1" dur="0.5s" begin="2.2s" fill="freeze"/>
    </text>
    <text x="10" y="185" fill="#64748b" font-size="10" font-family="Arial, sans-serif">149
      <animate attributeName="opacity" values="0;1" dur="0.5s" begin="2.2s" fill="freeze"/>
    </text>
    
    <!-- Chart Line with draw animation that follows the circle -->
    <path d="M 30,160 L 30.026607684935097,160 L 30.05731850781641,160 L 31.549122709844113,160 L 31.577092134883628,160 L 31.602678514740408,160 L 33.095056081022605,160 L 33.12272090630192,160 L 33.151783306951565,160 L 34.65003785684232,160 L 34.67918984565673,160 L 34.70966773930966,160 L 36.19226227799955,160 L 36.221575525510545,136 L 36.25198174863166,136 L 37.74661693666592,136 L 37.76743722615722,136 L 37.7957650038558,136 L 39.28891302835497,136 L 39.30883743619862,136 L 39.34691240622359,136 L 40.83920038434102,136 L 40.86799402049637,136 L 40.8923440836794,136 L 42.38122771153577,136 L 42.41385572114305,136 L 42.44560576673564,136 L 43.93646033421683,136 L 43.95145739299843,136 L 43.98985488041655,136 L 45.484203386323564,136 L 45.51417958625381,136 L 45.549154805777924,136 L 47.03221520292459,136 L 47.05867954679607,136 L 47.09451481270192,136 L 48.57744978641792,136 L 48.60746182161407,136 L 48.64075278364061,136 L 50.12899137671067,136 L 50.15085088891325,136 L 50.181884229187716,136 L 51.67272087903596,136 L 51.697626388840526,136 L 51.72975270472512,136 L 53.223707022707174,136 L 53.25309194074997,136 L 53.27873207350561,136 L 54.77062586369807,136 L 54.803450967267835,136 L 54.826367619814626,136 L 56.320716125721646,136 L 56.34959935004176,136 L 56.38285447680239,136 L 57.86930130657717,136 L 57.89748574321212,136 L 57.93151132818973,136 L 59.4164709944294,136 L 59.442129044818,136 L 59.474147854904885,136 L 60.96595205693258,136 L 60.993939399605054,136 L 61.0263882328828,136 L 62.510147417714634,136 L 62.54775652928283,136 L 62.569526453320634,136 L 64.05846383407587,136 L 64.0877591639539,136 L 64.11691115276831,136 L 65.60240834799657,136 L 65.63473175784367,136 L 65.66175154833667,136 L 66.7418981332709,136 L 67.15710344168906,136 L 67.18922975757366,136 L 67.22307616622172,136 L 68.70500775249236,136 L 68.73310260096255,136 L 68.76599937506413,136 L 70.2511919705322,136 L 70.27285438877229,136 L 70.30919134840082,136 L 71.80135390308757,136 L 71.82840952884649,136 L 71.85987289231184,136 L 73.34952697838519,136 L 73.38201164692885,136 L 73.4154817852849,136 L 74.89572911405797,136 L 74.92339393933729,136 L 74.95982048713059,136 L 76.44813075073247,136 L 76.47172827333146,136 L 76.50079067398111,136 L 77.99490625065974,136 L 78.02841222428171,136 L 78.05978599958229,136 L 79.54209385614493,136 L 79.57224923240472,136 L 79.60611355868573,136 L 81.08799139205752,136 L 81.11739422773327,136 L 81.15054184869618,136 L 82.6393000531219,136 L 82.66678570207168,136 L 82.69489846817481,136 L 84.18562761222535,136 L 84.21341786093532,136 L 84.24681632875959,136 L 85.72480603578059,136 L 85.7616088538659,136 L 85.79248093544379,136 L 87.2809703753752,136 L 87.3027044641471,136 L 87.34178282161743,136 L 88.83089937870218,136 L 88.86356322357537,136 L 88.89798299647794,136 L 90.38118673468824,136 L 90.41107334645372,136 L 90.44273380388154,136 L 91.92009639374918,136 L 91.95256314465988,136 L 91.98494030740582,136 L 93.47296388888046,136 L 93.50335219436863,136 L 93.5380765670314,136 L 95.02153115210302,136 L 95.04950057714254,136 L 95.08037265872044,136 L 96.57074345011189,136 L 96.59066785795555,136 L 96.63958299591704,136 L 98.11619304520066,136 L 98.14634842146043,136 L 98.1760916921623,136 L 99.66714335360598,136 L 99.70138395017902,136 L 99.73254271388416,136 L 101.21447430015479,136 L 101.24462967641456,136 L 101.27938988434325,136 L 102.76044350659919,136 L 102.79007927150332,136 L 102.81708114436339,136 L 104.31087420364886,136 L 104.34149543836541,136 L 104.37303047236256,136 L 105.86361627534947,136 L 105.89242782913776,136 L 105.9208451950011,136 L 107.40589444940555,136 L 107.43669486045164,63.99999999999999 L 107.46878534107033,63.99999999999999 L 108.9597653319822,63.99999999999999 L 108.98114106809504,63.99999999999999 L 109.0106155743026,63.99999999999999 L 110.5039786103972,63.99999999999999 L 110.5278807327564,63.99999999999999 L 110.57029176995599,63.99999999999999 L 112.0539076137242,63.99999999999999 L 112.08538889482249,63.99999999999999 L 112.11303580246886,63.99999999999999 L 113.59571992932351,63.99999999999999 L 113.6302113727579,63.99999999999999 L 113.66398611087416,63.99999999999999 L 115.15333559718731,63.99999999999999 L 115.1686014204632,63.99999999999999 L 115.20997323495152,63.99999999999999 L 116.6983193338193,63.99999999999999 L 116.73094734342656,63.99999999999999 L 116.76780391441075,63.99999999999999 L 118.24652824438282,63.99999999999999 L 118.27727490253002,63.99999999999999 L 118.31667577739351,63.99999999999999 L 119.7922286863329,63.99999999999999 L 119.82492836647201,63.99999999999999 L 119.86307500702878,63.99999999999999 L 121.3488947196502,63.99999999999999 L 121.3853212674435,63.99999999999999 L 122.89102955264268,63.99999999999999 L 122.96762743351643,63.99999999999999 L 124.43936388663685,63.99999999999999 L 124.47743885666182,63.99999999999999 L 124.51357872232788,63.99999999999999 L 125.98707110347769,63.99999999999999 L 126.02718868365929,63.99999999999999 L 126.05479975603974,63.99999999999999 L 127.53843351744092,63.99999999999999 L 127.5720111615947,63.99999999999999 L 127.60970986132766,63.99999999999999 L 129.0810700441561,63.99999999999999 L 129.1146297706769,63.99999999999999 L 129.1523822233087,63.99999999999999 L 130.63151865883867,63.99999999999999 L 130.66450502110501,63.99999999999999 L 130.69989234618708,63.99999999999999 L 132.18506702402217,63.99999999999999 L 132.2284097781353,63.99999999999999 L 133.76739110772806,63.99999999999999 L 133.80842248719028,63.99999999999999 L 135.2847279367137,63.99999999999999 L 135.3185564277288,63.99999999999999 L 136.83686080889387,63.99999999999999 L 136.86567236268218,63.99999999999999 L 136.91311825474153,63.99999999999999 L 138.37308282301188,63.99999999999999 L 138.4060512676453,63.99999999999999 L 138.44134900456254,63.99999999999999 L 139.92302974397182,63.99999999999999 L 139.9620185132774,63.99999999999999 L 140.0011506236466,63.99999999999999 L 141.4683718332629,63.99999999999999 L 141.49997853779183,63.99999999999999 L 141.5383939428429,63.99999999999999 L 143.015201086089,63.99999999999999 L 143.05112594015964,63.99999999999999 L 143.09808805612926,63.99999999999999 L 144.55850056522343,63.99999999999999 L 144.599388603622,63.99999999999999 L 144.63896865481502,63.99999999999999 L 146.11373318790447,63.99999999999999 L 146.14662996200605,63.99999999999999 L 146.1841853206754,63.99999999999999 L 147.6617808397714,63.99999999999999 L 147.69507180179795,63.99999999999999 L 147.7334513715831,63.99999999999999 L 149.20785755201354,63.99999999999999 L 149.24645213339414,63.99999999999999 L 149.2880389594779,63.99999999999999 L 150.75749987321328,63.99999999999999 L 150.78822861372754,63.99999999999999 L 150.82526436104126,63.99999999999999 L 152.30694510045055,63.99999999999999 L 152.3345203375651,63.99999999999999 L 152.37218320203215,63.99999999999999 L 153.85115837886556,63.99999999999999 L 153.88650986868169,63.99999999999999 L 153.92555239088608,63.99999999999999 L 155.4002990063426,63.99999999999999 L 155.43781852974604,63.99999999999999 L 155.4777210983322,63.99999999999999 L 156.95253938432052,63.99999999999999 L 156.97968459824423,63.99999999999999 L 157.0185121088532,63.99999999999999 L 158.49933280188077,63.99999999999999 L 158.5359026907377,63.99999999999999 L 158.56851278271202,63.99999999999999 L 160.0427397868129,63.99999999999999 L 160.07620992516897,63.99999999999999 L 160.1147507536507,63.99999999999999 L 161.5881356290028,63.99999999999999 L 161.62873698527412,63.99999999999999 L 161.66588023838554,63.99999999999999 L 163.1396593016626,63.99999999999999 L 163.1702984540121,63.99999999999999 L 163.20470030928172,63.99999999999999 L 164.6938885368983,63.99999999999999 L 164.73128263687104,63.99999999999999 L 164.77337115667746,63.99999999999999 L 166.24073570735737,63.99999999999999 L 166.27413417518164,63.99999999999999 L 166.3075326430059,63.99999999999999 L 167.7853252560644,63.99999999999999 L 167.82241475627697,63.99999999999999 L 167.85889505696912,63.99999999999999 L 169.32679713663762,63.99999999999999 L 169.3670759755158,63.99999999999999 L 169.40541971003506,63.99999999999999 L 170.87364430709673,63.99999999999999 L 170.91390522834195,63.99999999999999 L 170.95809011120386,63.99999999999999 L 172.43620524165553,63.99999999999999 L 172.4682240517424,63.99999999999999 L 172.5096317014966,63.99999999999999 L 173.98041852007051,63.99999999999999 L 174.00808334534986,63.99999999999999 L 174.04314815303871,63.99999999999999 L 175.5241121871299,63.99999999999999 L 175.56071791125274,63.99999999999999 L 175.5978432467312,63.99999999999999 L 177.0729661324797,63.99999999999999 L 177.10493118966772,63.99999999999999 L 177.14626716889015,63.99999999999999 L 178.62070918458645,63.99999999999999 L 178.65287133573696,63.99999999999999 L 178.69096422339487,63.99999999999999 L 180.169276447809,63.99999999999999 L 180.2007935641732,63.99999999999999 L 180.23492665494854,63.99999999999999 L 181.71565775981134,40 L 181.74549061867796,40 L 183.2625049302704,40 L 183.29893147806374,40 L 183.33333333333334,40" stroke="#22c55e" stroke-width="2" fill="none" stroke-dasharray="14750" stroke-dashoffset="14750">
      <animate attributeName="stroke-dashoffset" values="14750;0" dur="3s" begin="2.6s" fill="freeze"/>
    </path>
    
    <!-- Glow effect for the line that also follows the circle -->
    <path d="M 30,160 L 30.026607684935097,160 L 30.05731850781641,160 L 31.549122709844113,160 L 31.577092134883628,160 L 31.602678514740408,160 L 33.095056081022605,160 L 33.12272090630192,160 L 33.151783306951565,160 L 34.65003785684232,160 L 34.67918984565673,160 L 34.70966773930966,160 L 36.19226227799955,160 L 36.221575525510545,136 L 36.25198174863166,136 L 37.74661693666592,136 L 37.76743722615722,136 L 37.7957650038558,136 L 39.28891302835497,136 L 39.30883743619862,136 L 39.34691240622359,136 L 40.83920038434102,136 L 40.86799402049637,136 L 40.8923440836794,136 L 42.38122771153577,136 L 42.41385572114305,136 L 42.44560576673564,136 L 43.93646033421683,136 L 43.95145739299843,136 L 43.98985488041655,136 L 45.484203386323564,136 L 45.51417958625381,136 L 45.549154805777924,136 L 47.03221520292459,136 L 47.05867954679607,136 L 47.09451481270192,136 L 48.57744978641792,136 L 48.60746182161407,136 L 48.64075278364061,136 L 50.12899137671067,136 L 50.15085088891325,136 L 50.181884229187716,136 L 51.67272087903596,136 L 51.697626388840526,136 L 51.72975270472512,136 L 53.223707022707174,136 L 53.25309194074997,136 L 53.27873207350561,136 L 54.77062586369807,136 L 54.803450967267835,136 L 54.826367619814626,136 L 56.320716125721646,136 L 56.34959935004176,136 L 56.38285447680239,136 L 57.86930130657717,136 L 57.89748574321212,136 L 57.93151132818973,136 L 59.4164709944294,136 L 59.442129044818,136 L 59.474147854904885,136 L 60.96595205693258,136 L 60.993939399605054,136 L 61.0263882328828,136 L 62.510147417714634,136 L 62.54775652928283,136 L 62.569526453320634,136 L 64.05846383407587,136 L 64.0877591639539,136 L 64.11691115276831,136 L 65.60240834799657,136 L 65.63473175784367,136 L 65.66175154833667,136 L 66.7418981332709,136 L 67.15710344168906,136 L 67.18922975757366,136 L 67.22307616622172,136 L 68.70500775249236,136 L 68.73310260096255,136 L 68.76599937506413,136 L 70.2511919705322,136 L 70.27285438877229,136 L 70.30919134840082,136 L 71.80135390308757,136 L 71.82840952884649,136 L 71.85987289231184,136 L 73.34952697838519,136 L 73.38201164692885,136 L 73.4154817852849,136 L 74.89572911405797,136 L 74.92339393933729,136 L 74.95982048713059,136 L 76.44813075073247,136 L 76.47172827333146,136 L 76.50079067398111,136 L 77.99490625065974,136 L 78.02841222428171,136 L 78.05978599958229,136 L 79.54209385614493,136 L 79.57224923240472,136 L 79.60611355868573,136 L 81.08799139205752,136 L 81.11739422773327,136 L 81.15054184869618,136 L 82.6393000531219,136 L 82.66678570207168,136 L 82.69489846817481,136 L 84.18562761222535,136 L 84.21341786093532,136 L 84.24681632875959,136 L 85.72480603578059,136 L 85.7616088538659,136 L 85.79248093544379,136 L 87.2809703753752,136 L 87.3027044641471,136 L 87.34178282161743,136 L 88.83089937870218,136 L 88.86356322357537,136 L 88.89798299647794,136 L 90.38118673468824,136 L 90.41107334645372,136 L 90.44273380388154,136 L 91.92009639374918,136 L 91.95256314465988,136 L 91.98494030740582,136 L 93.47296388888046,136 L 93.50335219436863,136 L 93.5380765670314,136 L 95.02153115210302,136 L 95.04950057714254,136 L 95.08037265872044,136 L 96.57074345011189,136 L 96.59066785795555,136 L 96.63958299591704,136 L 98.11619304520066,136 L 98.14634842146043,136 L 98.1760916921623,136 L 99.66714335360598,136 L 99.70138395017902,136 L 99.73254271388416,136 L 101.21447430015479,136 L 101.24462967641456,136 L 101.27938988434325,136 L 102.76044350659919,136 L 102.79007927150332,136 L 102.81708114436339,136 L 104.31087420364886,136 L 104.34149543836541,136 L 104.37303047236256,136 L 105.86361627534947,136 L 105.89242782913776,136 L 105.9208451950011,136 L 107.40589444940555,136 L 107.43669486045164,63.99999999999999 L 107.46878534107033,63.99999999999999 L 108.9597653319822,63.99999999999999 L 108.98114106809504,63.99999999999999 L 109.0106155743026,63.99999999999999 L 110.5039786103972,63.99999999999999 L 110.5278807327564,63.99999999999999 L 110.57029176995599,63.99999999999999 L 112.0539076137242,63.99999999999999 L 112.08538889482249,63.99999999999999 L 112.11303580246886,63.99999999999999 L 113.59571992932351,63.99999999999999 L 113.6302113727579,63.99999999999999 L 113.66398611087416,63.99999999999999 L 115.15333559718731,63.99999999999999 L 115.1686014204632,63.99999999999999 L 115.20997323495152,63.99999999999999 L 116.6983193338193,63.99999999999999 L 116.73094734342656,63.99999999999999 L 116.76780391441075,63.99999999999999 L 118.24652824438282,63.99999999999999 L 118.27727490253002,63.99999999999999 L 118.31667577739351,63.99999999999999 L 119.7922286863329,63.99999999999999 L 119.82492836647201,63.99999999999999 L 119.86307500702878,63.99999999999999 L 121.3488947196502,63.99999999999999 L 121.3853212674435,63.99999999999999 L 122.89102955264268,63.99999999999999 L 122.96762743351643,63.99999999999999 L 124.43936388663685,63.99999999999999 L 124.47743885666182,63.99999999999999 L 124.51357872232788,63.99999999999999 L 125.98707110347769,63.99999999999999 L 126.02718868365929,63.99999999999999 L 126.05479975603974,63.99999999999999 L 127.53843351744092,63.99999999999999 L 127.5720111615947,63.99999999999999 L 127.60970986132766,63.99999999999999 L 129.0810700441561,63.99999999999999 L 129.1146297706769,63.99999999999999 L 129.1523822233087,63.99999999999999 L 130.63151865883867,63.99999999999999 L 130.66450502110501,63.99999999999999 L 130.69989234618708,63.99999999999999 L 132.18506702402217,63.99999999999999 L 132.2284097781353,63.99999999999999 L 133.76739110772806,63.99999999999999 L 133.80842248719028,63.99999999999999 L 135.2847279367137,63.99999999999999 L 135.3185564277288,63.99999999999999 L 136.83686080889387,63.99999999999999 L 136.86567236268218,63.99999999999999 L 136.91311825474153,63.99999999999999 L 138.37308282301188,63.99999999999999 L 138.4060512676453,63.99999999999999 L 138.44134900456254,63.99999999999999 L 139.92302974397182,63.99999999999999 L 139.9620185132774,63.99999999999999 L 140.0011506236466,63.99999999999999 L 141.4683718332629,63.99999999999999 L 141.49997853779183,63.99999999999999 L 141.5383939428429,63.99999999999999 L 143.015201086089,63.99999999999999 L 143.05112594015964,63.99999999999999 L 143.09808805612926,63.99999999999999 L 144.55850056522343,63.99999999999999 L 144.599388603622,63.99999999999999 L 144.63896865481502,63.99999999999999 L 146.11373318790447,63.99999999999999 L 146.14662996200605,63.99999999999999 L 146.1841853206754,63.99999999999999 L 147.6617808397714,63.99999999999999 L 147.69507180179795,63.99999999999999 L 147.7334513715831,63.99999999999999 L 149.20785755201354,63.99999999999999 L 149.24645213339414,63.99999999999999 L 149.2880389594779,63.99999999999999 L 150.75749987321328,63.99999999999999 L 150.78822861372754,63.99999999999999 L 150.82526436104126,63.99999999999999 L 152.30694510045055,63.99999999999999 L 152.3345203375651,63.99999999999999 L 152.37218320203215,63.99999999999999 L 153.85115837886556,63.99999999999999 L 153.88650986868169,63.99999999999999 L 153.92555239088608,63.99999999999999 L 155.4002990063426,63.99999999999999 L 155.43781852974604,63.99999999999999 L 155.4777210983322,63.99999999999999 L 156.95253938432052,63.99999999999999 L 156.97968459824423,63.99999999999999 L 157.0185121088532,63.99999999999999 L 158.49933280188077,63.99999999999999 L 158.5359026907377,63.99999999999999 L 158.56851278271202,63.99999999999999 L 160.0427397868129,63.99999999999999 L 160.07620992516897,63.99999999999999 L 160.1147507536507,63.99999999999999 L 161.5881356290028,63.99999999999999 L 161.62873698527412,63.99999999999999 L 161.66588023838554,63.99999999999999 L 163.1396593016626,63.99999999999999 L 163.1702984540121,63.99999999999999 L 163.20470030928172,63.99999999999999 L 164.6938885368983,63.99999999999999 L 164.73128263687104,63.99999999999999 L 164.77337115667746,63.99999999999999 L 166.24073570735737,63.99999999999999 L 166.27413417518164,63.99999999999999 L 166.3075326430059,63.99999999999999 L 167.7853252560644,63.99999999999999 L 167.82241475627697,63.99999999999999 L 167.85889505696912,63.99999999999999 L 169.32679713663762,63.99999999999999 L 169.3670759755158,63.99999999999999 L 169.40541971003506,63.99999999999999 L 170.87364430709673,63.99999999999999 L 170.91390522834195,63.99999999999999 L 170.95809011120386,63.99999999999999 L 172.43620524165553,63.99999999999999 L 172.4682240517424,63.99999999999999 L 172.5096317014966,63.99999999999999 L 173.98041852007051,63.99999999999999 L 174.00808334534986,63.99999999999999 L 174.04314815303871,63.99999999999999 L 175.5241121871299,63.99999999999999 L 175.56071791125274,63.99999999999999 L 175.5978432467312,63.99999999999999 L 177.0729661324797,63.99999999999999 L 177.10493118966772,63.99999999999999 L 177.14626716889015,63.99999999999999 L 178.62070918458645,63.99999999999999 L 178.65287133573696,63.99999999999999 L 178.69096422339487,63.99999999999999 L 180.169276447809,63.99999999999999 L 180.2007935641732,63.99999999999999 L 180.23492665494854,63.99999999999999 L 181.71565775981134,40 L 181.74549061867796,40 L 183.2625049302704,40 L 183.29893147806374,40 L 183.33333333333334,40" stroke="#22c55e" stroke-width="4" fill="none" opacity="0.4" stroke-dasharray="14750" stroke-dashoffset="14750">
      <animate attributeName="stroke-dashoffset" values="14750;0" dur="3s" begin="2.6s" fill="freeze"/>
    </path>
    
    <!-- Animated circle that moves along the path and draws the line -->
    <circle r="5" fill="#22c55e" opacity="0" filter="url(#trailGlow)">
      <animate attributeName="opacity" values="0;1;1;1" dur="3.2s" begin="2.4s" fill="freeze"/>
      <animate attributeName="r" values="5;6;5" dur="1s" begin="2.4s" repeatCount="3"/>
      <animateMotion dur="3s" begin="2.4s" fill="freeze">
        <mpath href="#path_followersCount_60"/>
      </animateMotion>
    </circle>
    
    <!-- Small trail dots that fade out -->
    <circle r="2" fill="#22c55e" opacity="0">
      <animate attributeName="opacity" values="0;0.6;0" dur="0.8s" begin="2.8s" fill="freeze"/>
      <animateMotion dur="3s" begin="2.4s" fill="freeze">
        <mpath href="#path_followersCount_60"/>
      </animateMotion>
    </circle>
    
    <!-- Hidden path for motion animation -->
    <path id="path_followersCount_60" d="M 30,160 L 30.026607684935097,160 L 30.05731850781641,160 L 31.549122709844113,160 L 31.577092134883628,160 L 31.602678514740408,160 L 33.095056081022605,160 L 33.12272090630192,160 L 33.151783306951565,160 L 34.65003785684232,160 L 34.67918984565673,160 L 34.70966773930966,160 L 36.19226227799955,160 L 36.221575525510545,136 L 36.25198174863166,136 L 37.74661693666592,136 L 37.76743722615722,136 L 37.7957650038558,136 L 39.28891302835497,136 L 39.30883743619862,136 L 39.34691240622359,136 L 40.83920038434102,136 L 40.86799402049637,136 L 40.8923440836794,136 L 42.38122771153577,136 L 42.41385572114305,136 L 42.44560576673564,136 L 43.93646033421683,136 L 43.95145739299843,136 L 43.98985488041655,136 L 45.484203386323564,136 L 45.51417958625381,136 L 45.549154805777924,136 L 47.03221520292459,136 L 47.05867954679607,136 L 47.09451481270192,136 L 48.57744978641792,136 L 48.60746182161407,136 L 48.64075278364061,136 L 50.12899137671067,136 L 50.15085088891325,136 L 50.181884229187716,136 L 51.67272087903596,136 L 51.697626388840526,136 L 51.72975270472512,136 L 53.223707022707174,136 L 53.25309194074997,136 L 53.27873207350561,136 L 54.77062586369807,136 L 54.803450967267835,136 L 54.826367619814626,136 L 56.320716125721646,136 L 56.34959935004176,136 L 56.38285447680239,136 L 57.86930130657717,136 L 57.89748574321212,136 L 57.93151132818973,136 L 59.4164709944294,136 L 59.442129044818,136 L 59.474147854904885,136 L 60.96595205693258,136 L 60.993939399605054,136 L 61.0263882328828,136 L 62.510147417714634,136 L 62.54775652928283,136 L 62.569526453320634,136 L 64.05846383407587,136 L 64.0877591639539,136 L 64.11691115276831,136 L 65.60240834799657,136 L 65.63473175784367,136 L 65.66175154833667,136 L 66.7418981332709,136 L 67.15710344168906,136 L 67.18922975757366,136 L 67.22307616622172,136 L 68.70500775249236,136 L 68.73310260096255,136 L 68.76599937506413,136 L 70.2511919705322,136 L 70.27285438877229,136 L 70.30919134840082,136 L 71.80135390308757,136 L 71.82840952884649,136 L 71.85987289231184,136 L 73.34952697838519,136 L 73.38201164692885,136 L 73.4154817852849,136 L 74.89572911405797,136 L 74.92339393933729,136 L 74.95982048713059,136 L 76.44813075073247,136 L 76.47172827333146,136 L 76.50079067398111,136 L 77.99490625065974,136 L 78.02841222428171,136 L 78.05978599958229,136 L 79.54209385614493,136 L 79.57224923240472,136 L 79.60611355868573,136 L 81.08799139205752,136 L 81.11739422773327,136 L 81.15054184869618,136 L 82.6393000531219,136 L 82.66678570207168,136 L 82.69489846817481,136 L 84.18562761222535,136 L 84.21341786093532,136 L 84.24681632875959,136 L 85.72480603578059,136 L 85.7616088538659,136 L 85.79248093544379,136 L 87.2809703753752,136 L 87.3027044641471,136 L 87.34178282161743,136 L 88.83089937870218,136 L 88.86356322357537,136 L 88.89798299647794,136 L 90.38118673468824,136 L 90.41107334645372,136 L 90.44273380388154,136 L 91.92009639374918,136 L 91.95256314465988,136 L 91.98494030740582,136 L 93.47296388888046,136 L 93.50335219436863,136 L 93.5380765670314,136 L 95.02153115210302,136 L 95.04950057714254,136 L 95.08037265872044,136 L 96.57074345011189,136 L 96.59066785795555,136 L 96.63958299591704,136 L 98.11619304520066,136 L 98.14634842146043,136 L 98.1760916921623,136 L 99.66714335360598,136 L 99.70138395017902,136 L 99.73254271388416,136 L 101.21447430015479,136 L 101.24462967641456,136 L 101.27938988434325,136 L 102.76044350659919,136 L 102.79007927150332,136 L 102.81708114436339,136 L 104.31087420364886,136 L 104.34149543836541,136 L 104.37303047236256,136 L 105.86361627534947,136 L 105.89242782913776,136 L 105.9208451950011,136 L 107.40589444940555,136 L 107.43669486045164,63.99999999999999 L 107.46878534107033,63.99999999999999 L 108.9597653319822,63.99999999999999 L 108.98114106809504,63.99999999999999 L 109.0106155743026,63.99999999999999 L 110.5039786103972,63.99999999999999 L 110.5278807327564,63.99999999999999 L 110.57029176995599,63.99999999999999 L 112.0539076137242,63.99999999999999 L 112.08538889482249,63.99999999999999 L 112.11303580246886,63.99999999999999 L 113.59571992932351,63.99999999999999 L 113.6302113727579,63.99999999999999 L 113.66398611087416,63.99999999999999 L 115.15333559718731,63.99999999999999 L 115.1686014204632,63.99999999999999 L 115.20997323495152,63.99999999999999 L 116.6983193338193,63.99999999999999 L 116.73094734342656,63.99999999999999 L 116.76780391441075,63.99999999999999 L 118.24652824438282,63.99999999999999 L 118.27727490253002,63.99999999999999 L 118.31667577739351,63.99999999999999 L 119.7922286863329,63.99999999999999 L 119.82492836647201,63.99999999999999 L 119.86307500702878,63.99999999999999 L 121.3488947196502,63.99999999999999 L 121.3853212674435,63.99999999999999 L 122.89102955264268,63.99999999999999 L 122.96762743351643,63.99999999999999 L 124.43936388663685,63.99999999999999 L 124.47743885666182,63.99999999999999 L 124.51357872232788,63.99999999999999 L 125.98707110347769,63.99999999999999 L 126.02718868365929,63.99999999999999 L 126.05479975603974,63.99999999999999 L 127.53843351744092,63.99999999999999 L 127.5720111615947,63.99999999999999 L 127.60970986132766,63.99999999999999 L 129.0810700441561,63.99999999999999 L 129.1146297706769,63.99999999999999 L 129.1523822233087,63.99999999999999 L 130.63151865883867,63.99999999999999 L 130.66450502110501,63.99999999999999 L 130.69989234618708,63.99999999999999 L 132.18506702402217,63.99999999999999 L 132.2284097781353,63.99999999999999 L 133.76739110772806,63.99999999999999 L 133.80842248719028,63.99999999999999 L 135.2847279367137,63.99999999999999 L 135.3185564277288,63.99999999999999 L 136.83686080889387,63.99999999999999 L 136.86567236268218,63.99999999999999 L 136.91311825474153,63.99999999999999 L 138.37308282301188,63.99999999999999 L 138.4060512676453,63.99999999999999 L 138.44134900456254,63.99999999999999 L 139.92302974397182,63.99999999999999 L 139.9620185132774,63.99999999999999 L 140.0011506236466,63.99999999999999 L 141.4683718332629,63.99999999999999 L 141.49997853779183,63.99999999999999 L 141.5383939428429,63.99999999999999 L 143.015201086089,63.99999999999999 L 143.05112594015964,63.99999999999999 L 143.09808805612926,63.99999999999999 L 144.55850056522343,63.99999999999999 L 144.599388603622,63.99999999999999 L 144.63896865481502,63.99999999999999 L 146.11373318790447,63.99999999999999 L 146.14662996200605,63.99999999999999 L 146.1841853206754,63.99999999999999 L 147.6617808397714,63.99999999999999 L 147.69507180179795,63.99999999999999 L 147.7334513715831,63.99999999999999 L 149.20785755201354,63.99999999999999 L 149.24645213339414,63.99999999999999 L 149.2880389594779,63.99999999999999 L 150.75749987321328,63.99999999999999 L 150.78822861372754,63.99999999999999 L 150.82526436104126,63.99999999999999 L 152.30694510045055,63.99999999999999 L 152.3345203375651,63.99999999999999 L 152.37218320203215,63.99999999999999 L 153.85115837886556,63.99999999999999 L 153.88650986868169,63.99999999999999 L 153.92555239088608,63.99999999999999 L 155.4002990063426,63.99999999999999 L 155.43781852974604,63.99999999999999 L 155.4777210983322,63.99999999999999 L 156.95253938432052,63.99999999999999 L 156.97968459824423,63.99999999999999 L 157.0185121088532,63.99999999999999 L 158.49933280188077,63.99999999999999 L 158.5359026907377,63.99999999999999 L 158.56851278271202,63.99999999999999 L 160.0427397868129,63.99999999999999 L 160.07620992516897,63.99999999999999 L 160.1147507536507,63.99999999999999 L 161.5881356290028,63.99999999999999 L 161.62873698527412,63.99999999999999 L 161.66588023838554,63.99999999999999 L 163.1396593016626,63.99999999999999 L 163.1702984540121,63.99999999999999 L 163.20470030928172,63.99999999999999 L 164.6938885368983,63.99999999999999 L 164.73128263687104,63.99999999999999 L 164.77337115667746,63.99999999999999 L 166.24073570735737,63.99999999999999 L 166.27413417518164,63.99999999999999 L 166.3075326430059,63.99999999999999 L 167.7853252560644,63.99999999999999 L 167.82241475627697,63.99999999999999 L 167.85889505696912,63.99999999999999 L 169.32679713663762,63.99999999999999 L 169.3670759755158,63.99999999999999 L 169.40541971003506,63.99999999999999 L 170.87364430709673,63.99999999999999 L 170.91390522834195,63.99999999999999 L 170.95809011120386,63.99999999999999 L 172.43620524165553,63.99999999999999 L 172.4682240517424,63.99999999999999 L 172.5096317014966,63.99999999999999 L 173.98041852007051,63.99999999999999 L 174.00808334534986,63.99999999999999 L 174.04314815303871,63.99999999999999 L 175.5241121871299,63.99999999999999 L 175.56071791125274,63.99999999999999 L 175.5978432467312,63.99999999999999 L 177.0729661324797,63.99999999999999 L 177.10493118966772,63.99999999999999 L 177.14626716889015,63.99999999999999 L 178.62070918458645,63.99999999999999 L 178.65287133573696,63.99999999999999 L 178.69096422339487,63.99999999999999 L 180.169276447809,63.99999999999999 L 180.2007935641732,63.99999999999999 L 180.23492665494854,63.99999999999999 L 181.71565775981134,40 L 181.74549061867796,40 L 183.2625049302704,40 L 183.29893147806374,40 L 183.33333333333334,40" fill="none" stroke="none"/>
  </g>
  <!-- 🔓 Public Contributions Chart -->
  <g transform="translate(293.33333333333337, 250)">
    <!-- Chart Background -->
    <rect x="0" y="0" width="213.33333333333334" height="200" fill="#ffffff" stroke="#e2e8f0" stroke-width="1" rx="8" filter="url(#shadow)">
      <animate attributeName="opacity" values="0;1" dur="0.5s" begin="2.3s" fill="freeze"/>
    </rect>
    
    <!-- Chart Title -->
    <text x="106.66666666666667" y="25" text-anchor="middle" fill="#1e293b" font-size="14" font-weight="bold" font-family="Arial, sans-serif">
      🔓 Public Contributions
      <animate attributeName="opacity" values="0;1" dur="0.5s" begin="2.5s" fill="freeze"/>
    </text>
    
    <!-- Y-axis labels -->
    <text x="10" y="45" fill="#64748b" font-size="10" font-family="Arial, sans-serif">3,861
      <animate attributeName="opacity" values="0;1" dur="0.5s" begin="2.6999999999999997s" fill="freeze"/>
    </text>
    <text x="10" y="185" fill="#64748b" font-size="10" font-family="Arial, sans-serif">3,180
      <animate attributeName="opacity" values="0;1" dur="0.5s" begin="2.6999999999999997s" fill="freeze"/>
    </text>
    
    <!-- Chart Line with draw animation that follows the circle -->
    <path d="M 30,160 L 30.026607684935097,160 L 30.05731850781641,160 L 31.549122709844113,160 L 31.577092134883628,160 L 31.602678514740408,160 L 33.095056081022605,160 L 33.12272090630192,160 L 33.151783306951565,160 L 34.65003785684232,160 L 34.67918984565673,160 L 34.70966773930966,160 L 36.19226227799955,160 L 36.221575525510545,115.24229074889868 L 36.25198174863166,115.24229074889868 L 37.74661693666592,115.24229074889868 L 37.76743722615722,115.24229074889868 L 37.7957650038558,115.24229074889868 L 39.28891302835497,115.24229074889868 L 39.30883743619862,115.24229074889868 L 39.34691240622359,115.24229074889868 L 40.83920038434102,115.24229074889868 L 40.86799402049637,115.24229074889868 L 40.8923440836794,115.24229074889868 L 42.38122771153577,115.24229074889868 L 42.41385572114305,115.24229074889868 L 42.44560576673564,115.24229074889868 L 43.93646033421683,115.24229074889868 L 43.95145739299843,115.24229074889868 L 43.98985488041655,115.24229074889868 L 45.484203386323564,115.24229074889868 L 45.51417958625381,115.24229074889868 L 45.549154805777924,115.24229074889868 L 47.03221520292459,115.24229074889868 L 47.05867954679607,115.24229074889868 L 47.09451481270192,115.24229074889868 L 48.57744978641792,115.24229074889868 L 48.60746182161407,115.24229074889868 L 48.64075278364061,115.24229074889868 L 50.12899137671067,115.24229074889868 L 50.15085088891325,115.24229074889868 L 50.181884229187716,115.24229074889868 L 51.67272087903596,115.24229074889868 L 51.697626388840526,115.24229074889868 L 51.72975270472512,115.24229074889868 L 53.223707022707174,115.24229074889868 L 53.25309194074997,115.24229074889868 L 53.27873207350561,115.24229074889868 L 54.77062586369807,115.24229074889868 L 54.803450967267835,115.24229074889868 L 54.826367619814626,115.24229074889868 L 56.320716125721646,115.24229074889868 L 56.34959935004176,115.24229074889868 L 56.38285447680239,115.24229074889868 L 57.86930130657717,115.24229074889868 L 57.89748574321212,115.24229074889868 L 57.93151132818973,115.24229074889868 L 59.4164709944294,115.24229074889868 L 59.442129044818,115.24229074889868 L 59.474147854904885,115.24229074889868 L 60.96595205693258,115.24229074889868 L 60.993939399605054,115.24229074889868 L 61.0263882328828,115.24229074889868 L 62.510147417714634,115.24229074889868 L 62.54775652928283,115.24229074889868 L 62.569526453320634,115.24229074889868 L 64.05846383407587,115.24229074889868 L 64.0877591639539,115.24229074889868 L 64.11691115276831,115.24229074889868 L 65.60240834799657,115.24229074889868 L 65.63473175784367,115.24229074889868 L 65.66175154833667,115.24229074889868 L 66.7418981332709,115.24229074889868 L 67.15710344168906,115.24229074889868 L 67.18922975757366,115.24229074889868 L 67.22307616622172,115.24229074889868 L 68.70500775249236,115.24229074889868 L 68.73310260096255,115.24229074889868 L 68.76599937506413,115.24229074889868 L 70.2511919705322,115.24229074889868 L 70.27285438877229,115.24229074889868 L 70.30919134840082,115.24229074889868 L 71.80135390308757,115.24229074889868 L 71.82840952884649,115.24229074889868 L 71.85987289231184,115.24229074889868 L 73.34952697838519,115.24229074889868 L 73.38201164692885,115.24229074889868 L 73.4154817852849,115.24229074889868 L 74.89572911405797,115.24229074889868 L 74.92339393933729,115.24229074889868 L 74.95982048713059,115.24229074889868 L 76.44813075073247,115.24229074889868 L 76.47172827333146,115.24229074889868 L 76.50079067398111,115.24229074889868 L 77.99490625065974,115.24229074889868 L 78.02841222428171,115.24229074889868 L 78.05978599958229,115.24229074889868 L 79.54209385614493,115.24229074889868 L 79.57224923240472,115.24229074889868 L 79.60611355868573,115.24229074889868 L 81.08799139205752,115.24229074889868 L 81.11739422773327,115.24229074889868 L 81.15054184869618,115.24229074889868 L 82.6393000531219,115.24229074889868 L 82.66678570207168,115.24229074889868 L 82.69489846817481,115.24229074889868 L 84.18562761222535,115.24229074889868 L 84.21341786093532,115.24229074889868 L 84.24681632875959,115.24229074889868 L 85.72480603578059,115.24229074889868 L 85.7616088538659,115.24229074889868 L 85.79248093544379,115.24229074889868 L 87.2809703753752,115.24229074889868 L 87.3027044641471,115.24229074889868 L 87.34178282161743,115.24229074889868 L 88.83089937870218,115.24229074889868 L 88.86356322357537,115.24229074889868 L 88.89798299647794,115.24229074889868 L 90.38118673468824,115.24229074889868 L 90.41107334645372,115.24229074889868 L 90.44273380388154,115.24229074889868 L 91.92009639374918,115.24229074889868 L 91.95256314465988,115.24229074889868 L 91.98494030740582,115.24229074889868 L 93.47296388888046,115.24229074889868 L 93.50335219436863,115.24229074889868 L 93.5380765670314,115.24229074889868 L 95.02153115210302,115.24229074889868 L 95.04950057714254,115.24229074889868 L 95.08037265872044,115.24229074889868 L 96.57074345011189,115.24229074889868 L 96.59066785795555,115.24229074889868 L 96.63958299591704,115.24229074889868 L 98.11619304520066,115.24229074889868 L 98.14634842146043,115.24229074889868 L 98.1760916921623,115.24229074889868 L 99.66714335360598,115.24229074889868 L 99.70138395017902,115.24229074889868 L 99.73254271388416,115.24229074889868 L 101.21447430015479,115.24229074889868 L 101.24462967641456,115.24229074889868 L 101.27938988434325,115.24229074889868 L 102.76044350659919,115.24229074889868 L 102.79007927150332,115.24229074889868 L 102.81708114436339,115.24229074889868 L 104.31087420364886,115.24229074889868 L 104.34149543836541,115.24229074889868 L 104.37303047236256,115.24229074889868 L 105.86361627534947,115.24229074889868 L 105.89242782913776,115.24229074889868 L 105.9208451950011,115.24229074889868 L 107.40589444940555,115.24229074889868 L 107.43669486045164,40 L 107.46878534107033,40 L 108.9597653319822,40 L 108.98114106809504,40 L 109.0106155743026,40 L 110.5039786103972,40 L 110.5278807327564,40 L 110.57029176995599,40 L 112.0539076137242,40 L 112.08538889482249,40 L 112.11303580246886,40 L 113.59571992932351,40 L 113.6302113727579,40 L 113.66398611087416,40 L 115.15333559718731,40 L 115.1686014204632,40 L 115.20997323495152,40 L 116.6983193338193,40 L 116.73094734342656,40 L 116.76780391441075,40 L 118.24652824438282,40 L 118.27727490253002,40 L 118.31667577739351,40 L 119.7922286863329,40 L 119.82492836647201,40 L 119.86307500702878,40 L 121.3488947196502,40 L 121.3853212674435,40 L 122.89102955264268,40 L 122.96762743351643,40 L 124.43936388663685,40 L 124.47743885666182,40 L 124.51357872232788,40 L 125.98707110347769,40 L 126.02718868365929,40 L 126.05479975603974,40 L 127.53843351744092,40 L 127.5720111615947,40 L 127.60970986132766,40 L 129.0810700441561,40 L 129.1146297706769,40 L 129.1523822233087,40 L 130.63151865883867,40 L 130.66450502110501,40 L 130.69989234618708,40 L 132.18506702402217,40 L 132.2284097781353,40 L 133.76739110772806,40 L 133.80842248719028,40 L 135.2847279367137,40 L 135.3185564277288,40 L 136.83686080889387,40 L 136.86567236268218,40 L 136.91311825474153,40 L 138.37308282301188,40 L 138.4060512676453,40 L 138.44134900456254,40 L 139.92302974397182,40 L 139.9620185132774,40 L 140.0011506236466,40 L 141.4683718332629,40 L 141.49997853779183,40 L 141.5383939428429,40 L 143.015201086089,40 L 143.05112594015964,40 L 143.09808805612926,40 L 144.55850056522343,40 L 144.599388603622,40 L 144.63896865481502,40 L 146.11373318790447,40 L 146.14662996200605,40 L 146.1841853206754,40 L 147.6617808397714,40 L 147.69507180179795,40 L 147.7334513715831,40 L 149.20785755201354,40 L 149.24645213339414,40 L 149.2880389594779,40 L 150.75749987321328,40 L 150.78822861372754,40 L 150.82526436104126,40 L 152.30694510045055,40 L 152.3345203375651,40 L 152.37218320203215,40 L 153.85115837886556,40 L 153.88650986868169,40 L 153.92555239088608,40 L 155.4002990063426,40 L 155.43781852974604,40 L 155.4777210983322,40 L 156.95253938432052,40 L 156.97968459824423,40 L 157.0185121088532,40 L 158.49933280188077,40 L 158.5359026907377,40 L 158.56851278271202,40 L 160.0427397868129,40 L 160.07620992516897,40 L 160.1147507536507,40 L 161.5881356290028,40 L 161.62873698527412,40 L 161.66588023838554,40 L 163.1396593016626,40 L 163.1702984540121,40 L 163.20470030928172,40 L 164.6938885368983,40 L 164.73128263687104,40 L 164.77337115667746,40 L 166.24073570735737,40 L 166.27413417518164,40 L 166.3075326430059,40 L 167.7853252560644,40 L 167.82241475627697,40 L 167.85889505696912,40 L 169.32679713663762,40 L 169.3670759755158,40 L 169.40541971003506,40 L 170.87364430709673,40 L 170.91390522834195,40 L 170.95809011120386,40 L 172.43620524165553,40 L 172.4682240517424,40 L 172.5096317014966,40 L 173.98041852007051,40 L 174.00808334534986,40 L 174.04314815303871,40 L 175.5241121871299,40 L 175.56071791125274,40 L 175.5978432467312,40 L 177.0729661324797,40 L 177.10493118966772,40 L 177.14626716889015,40 L 178.62070918458645,40 L 178.65287133573696,40 L 178.69096422339487,40 L 180.169276447809,40 L 180.2007935641732,40 L 180.23492665494854,40 L 181.71565775981134,56.563876651982376 L 181.74549061867796,56.563876651982376 L 183.2625049302704,56.563876651982376 L 183.29893147806374,56.563876651982376 L 183.33333333333334,56.563876651982376" stroke="#3b82f6" stroke-width="2" fill="none" stroke-dasharray="14750" stroke-dashoffset="14750">
      <animate attributeName="stroke-dashoffset" values="14750;0" dur="3s" begin="3.0999999999999996s" fill="freeze"/>
    </path>
    
    <!-- Glow effect for the line that also follows the circle -->
    <path d="M 30,160 L 30.026607684935097,160 L 30.05731850781641,160 L 31.549122709844113,160 L 31.577092134883628,160 L 31.602678514740408,160 L 33.095056081022605,160 L 33.12272090630192,160 L 33.151783306951565,160 L 34.65003785684232,160 L 34.67918984565673,160 L 34.70966773930966,160 L 36.19226227799955,160 L 36.221575525510545,115.24229074889868 L 36.25198174863166,115.24229074889868 L 37.74661693666592,115.24229074889868 L 37.76743722615722,115.24229074889868 L 37.7957650038558,115.24229074889868 L 39.28891302835497,115.24229074889868 L 39.30883743619862,115.24229074889868 L 39.34691240622359,115.24229074889868 L 40.83920038434102,115.24229074889868 L 40.86799402049637,115.24229074889868 L 40.8923440836794,115.24229074889868 L 42.38122771153577,115.24229074889868 L 42.41385572114305,115.24229074889868 L 42.44560576673564,115.24229074889868 L 43.93646033421683,115.24229074889868 L 43.95145739299843,115.24229074889868 L 43.98985488041655,115.24229074889868 L 45.484203386323564,115.24229074889868 L 45.51417958625381,115.24229074889868 L 45.549154805777924,115.24229074889868 L 47.03221520292459,115.24229074889868 L 47.05867954679607,115.24229074889868 L 47.09451481270192,115.24229074889868 L 48.57744978641792,115.24229074889868 L 48.60746182161407,115.24229074889868 L 48.64075278364061,115.24229074889868 L 50.12899137671067,115.24229074889868 L 50.15085088891325,115.24229074889868 L 50.181884229187716,115.24229074889868 L 51.67272087903596,115.24229074889868 L 51.697626388840526,115.24229074889868 L 51.72975270472512,115.24229074889868 L 53.223707022707174,115.24229074889868 L 53.25309194074997,115.24229074889868 L 53.27873207350561,115.24229074889868 L 54.77062586369807,115.24229074889868 L 54.803450967267835,115.24229074889868 L 54.826367619814626,115.24229074889868 L 56.320716125721646,115.24229074889868 L 56.34959935004176,115.24229074889868 L 56.38285447680239,115.24229074889868 L 57.86930130657717,115.24229074889868 L 57.89748574321212,115.24229074889868 L 57.93151132818973,115.24229074889868 L 59.4164709944294,115.24229074889868 L 59.442129044818,115.24229074889868 L 59.474147854904885,115.24229074889868 L 60.96595205693258,115.24229074889868 L 60.993939399605054,115.24229074889868 L 61.0263882328828,115.24229074889868 L 62.510147417714634,115.24229074889868 L 62.54775652928283,115.24229074889868 L 62.569526453320634,115.24229074889868 L 64.05846383407587,115.24229074889868 L 64.0877591639539,115.24229074889868 L 64.11691115276831,115.24229074889868 L 65.60240834799657,115.24229074889868 L 65.63473175784367,115.24229074889868 L 65.66175154833667,115.24229074889868 L 66.7418981332709,115.24229074889868 L 67.15710344168906,115.24229074889868 L 67.18922975757366,115.24229074889868 L 67.22307616622172,115.24229074889868 L 68.70500775249236,115.24229074889868 L 68.73310260096255,115.24229074889868 L 68.76599937506413,115.24229074889868 L 70.2511919705322,115.24229074889868 L 70.27285438877229,115.24229074889868 L 70.30919134840082,115.24229074889868 L 71.80135390308757,115.24229074889868 L 71.82840952884649,115.24229074889868 L 71.85987289231184,115.24229074889868 L 73.34952697838519,115.24229074889868 L 73.38201164692885,115.24229074889868 L 73.4154817852849,115.24229074889868 L 74.89572911405797,115.24229074889868 L 74.92339393933729,115.24229074889868 L 74.95982048713059,115.24229074889868 L 76.44813075073247,115.24229074889868 L 76.47172827333146,115.24229074889868 L 76.50079067398111,115.24229074889868 L 77.99490625065974,115.24229074889868 L 78.02841222428171,115.24229074889868 L 78.05978599958229,115.24229074889868 L 79.54209385614493,115.24229074889868 L 79.57224923240472,115.24229074889868 L 79.60611355868573,115.24229074889868 L 81.08799139205752,115.24229074889868 L 81.11739422773327,115.24229074889868 L 81.15054184869618,115.24229074889868 L 82.6393000531219,115.24229074889868 L 82.66678570207168,115.24229074889868 L 82.69489846817481,115.24229074889868 L 84.18562761222535,115.24229074889868 L 84.21341786093532,115.24229074889868 L 84.24681632875959,115.24229074889868 L 85.72480603578059,115.24229074889868 L 85.7616088538659,115.24229074889868 L 85.79248093544379,115.24229074889868 L 87.2809703753752,115.24229074889868 L 87.3027044641471,115.24229074889868 L 87.34178282161743,115.24229074889868 L 88.83089937870218,115.24229074889868 L 88.86356322357537,115.24229074889868 L 88.89798299647794,115.24229074889868 L 90.38118673468824,115.24229074889868 L 90.41107334645372,115.24229074889868 L 90.44273380388154,115.24229074889868 L 91.92009639374918,115.24229074889868 L 91.95256314465988,115.24229074889868 L 91.98494030740582,115.24229074889868 L 93.47296388888046,115.24229074889868 L 93.50335219436863,115.24229074889868 L 93.5380765670314,115.24229074889868 L 95.02153115210302,115.24229074889868 L 95.04950057714254,115.24229074889868 L 95.08037265872044,115.24229074889868 L 96.57074345011189,115.24229074889868 L 96.59066785795555,115.24229074889868 L 96.63958299591704,115.24229074889868 L 98.11619304520066,115.24229074889868 L 98.14634842146043,115.24229074889868 L 98.1760916921623,115.24229074889868 L 99.66714335360598,115.24229074889868 L 99.70138395017902,115.24229074889868 L 99.73254271388416,115.24229074889868 L 101.21447430015479,115.24229074889868 L 101.24462967641456,115.24229074889868 L 101.27938988434325,115.24229074889868 L 102.76044350659919,115.24229074889868 L 102.79007927150332,115.24229074889868 L 102.81708114436339,115.24229074889868 L 104.31087420364886,115.24229074889868 L 104.34149543836541,115.24229074889868 L 104.37303047236256,115.24229074889868 L 105.86361627534947,115.24229074889868 L 105.89242782913776,115.24229074889868 L 105.9208451950011,115.24229074889868 L 107.40589444940555,115.24229074889868 L 107.43669486045164,40 L 107.46878534107033,40 L 108.9597653319822,40 L 108.98114106809504,40 L 109.0106155743026,40 L 110.5039786103972,40 L 110.5278807327564,40 L 110.57029176995599,40 L 112.0539076137242,40 L 112.08538889482249,40 L 112.11303580246886,40 L 113.59571992932351,40 L 113.6302113727579,40 L 113.66398611087416,40 L 115.15333559718731,40 L 115.1686014204632,40 L 115.20997323495152,40 L 116.6983193338193,40 L 116.73094734342656,40 L 116.76780391441075,40 L 118.24652824438282,40 L 118.27727490253002,40 L 118.31667577739351,40 L 119.7922286863329,40 L 119.82492836647201,40 L 119.86307500702878,40 L 121.3488947196502,40 L 121.3853212674435,40 L 122.89102955264268,40 L 122.96762743351643,40 L 124.43936388663685,40 L 124.47743885666182,40 L 124.51357872232788,40 L 125.98707110347769,40 L 126.02718868365929,40 L 126.05479975603974,40 L 127.53843351744092,40 L 127.5720111615947,40 L 127.60970986132766,40 L 129.0810700441561,40 L 129.1146297706769,40 L 129.1523822233087,40 L 130.63151865883867,40 L 130.66450502110501,40 L 130.69989234618708,40 L 132.18506702402217,40 L 132.2284097781353,40 L 133.76739110772806,40 L 133.80842248719028,40 L 135.2847279367137,40 L 135.3185564277288,40 L 136.83686080889387,40 L 136.86567236268218,40 L 136.91311825474153,40 L 138.37308282301188,40 L 138.4060512676453,40 L 138.44134900456254,40 L 139.92302974397182,40 L 139.9620185132774,40 L 140.0011506236466,40 L 141.4683718332629,40 L 141.49997853779183,40 L 141.5383939428429,40 L 143.015201086089,40 L 143.05112594015964,40 L 143.09808805612926,40 L 144.55850056522343,40 L 144.599388603622,40 L 144.63896865481502,40 L 146.11373318790447,40 L 146.14662996200605,40 L 146.1841853206754,40 L 147.6617808397714,40 L 147.69507180179795,40 L 147.7334513715831,40 L 149.20785755201354,40 L 149.24645213339414,40 L 149.2880389594779,40 L 150.75749987321328,40 L 150.78822861372754,40 L 150.82526436104126,40 L 152.30694510045055,40 L 152.3345203375651,40 L 152.37218320203215,40 L 153.85115837886556,40 L 153.88650986868169,40 L 153.92555239088608,40 L 155.4002990063426,40 L 155.43781852974604,40 L 155.4777210983322,40 L 156.95253938432052,40 L 156.97968459824423,40 L 157.0185121088532,40 L 158.49933280188077,40 L 158.5359026907377,40 L 158.56851278271202,40 L 160.0427397868129,40 L 160.07620992516897,40 L 160.1147507536507,40 L 161.5881356290028,40 L 161.62873698527412,40 L 161.66588023838554,40 L 163.1396593016626,40 L 163.1702984540121,40 L 163.20470030928172,40 L 164.6938885368983,40 L 164.73128263687104,40 L 164.77337115667746,40 L 166.24073570735737,40 L 166.27413417518164,40 L 166.3075326430059,40 L 167.7853252560644,40 L 167.82241475627697,40 L 167.85889505696912,40 L 169.32679713663762,40 L 169.3670759755158,40 L 169.40541971003506,40 L 170.87364430709673,40 L 170.91390522834195,40 L 170.95809011120386,40 L 172.43620524165553,40 L 172.4682240517424,40 L 172.5096317014966,40 L 173.98041852007051,40 L 174.00808334534986,40 L 174.04314815303871,40 L 175.5241121871299,40 L 175.56071791125274,40 L 175.5978432467312,40 L 177.0729661324797,40 L 177.10493118966772,40 L 177.14626716889015,40 L 178.62070918458645,40 L 178.65287133573696,40 L 178.69096422339487,40 L 180.169276447809,40 L 180.2007935641732,40 L 180.23492665494854,40 L 181.71565775981134,56.563876651982376 L 181.74549061867796,56.563876651982376 L 183.2625049302704,56.563876651982376 L 183.29893147806374,56.563876651982376 L 183.33333333333334,56.563876651982376" stroke="#3b82f6" stroke-width="4" fill="none" opacity="0.4" stroke-dasharray="14750" stroke-dashoffset="14750">
      <animate attributeName="stroke-dashoffset" values="14750;0" dur="3s" begin="3.0999999999999996s" fill="freeze"/>
    </path>
    
    <!-- Animated circle that moves along the path and draws the line -->
    <circle r="5" fill="#3b82f6" opacity="0" filter="url(#trailGlow)">
      <animate attributeName="opacity" values="0;1;1;1" dur="3.2s" begin="2.9s" fill="freeze"/>
      <animate attributeName="r" values="5;6;5" dur="1s" begin="2.9s" repeatCount="3"/>
      <animateMotion dur="3s" begin="2.9s" fill="freeze">
        <mpath href="#path_publicContributions_293.33333333333337"/>
      </animateMotion>
    </circle>
    
    <!-- Small trail dots that fade out -->
    <circle r="2" fill="#3b82f6" opacity="0">
      <animate attributeName="opacity" values="0;0.6;0" dur="0.8s" begin="3.3s" fill="freeze"/>
      <animateMotion dur="3s" begin="2.9s" fill="freeze">
        <mpath href="#path_publicContributions_293.33333333333337"/>
      </animateMotion>
    </circle>
    
    <!-- Hidden path for motion animation -->
    <path id="path_publicContributions_293.33333333333337" d="M 30,160 L 30.026607684935097,160 L 30.05731850781641,160 L 31.549122709844113,160 L 31.577092134883628,160 L 31.602678514740408,160 L 33.095056081022605,160 L 33.12272090630192,160 L 33.151783306951565,160 L 34.65003785684232,160 L 34.67918984565673,160 L 34.70966773930966,160 L 36.19226227799955,160 L 36.221575525510545,115.24229074889868 L 36.25198174863166,115.24229074889868 L 37.74661693666592,115.24229074889868 L 37.76743722615722,115.24229074889868 L 37.7957650038558,115.24229074889868 L 39.28891302835497,115.24229074889868 L 39.30883743619862,115.24229074889868 L 39.34691240622359,115.24229074889868 L 40.83920038434102,115.24229074889868 L 40.86799402049637,115.24229074889868 L 40.8923440836794,115.24229074889868 L 42.38122771153577,115.24229074889868 L 42.41385572114305,115.24229074889868 L 42.44560576673564,115.24229074889868 L 43.93646033421683,115.24229074889868 L 43.95145739299843,115.24229074889868 L 43.98985488041655,115.24229074889868 L 45.484203386323564,115.24229074889868 L 45.51417958625381,115.24229074889868 L 45.549154805777924,115.24229074889868 L 47.03221520292459,115.24229074889868 L 47.05867954679607,115.24229074889868 L 47.09451481270192,115.24229074889868 L 48.57744978641792,115.24229074889868 L 48.60746182161407,115.24229074889868 L 48.64075278364061,115.24229074889868 L 50.12899137671067,115.24229074889868 L 50.15085088891325,115.24229074889868 L 50.181884229187716,115.24229074889868 L 51.67272087903596,115.24229074889868 L 51.697626388840526,115.24229074889868 L 51.72975270472512,115.24229074889868 L 53.223707022707174,115.24229074889868 L 53.25309194074997,115.24229074889868 L 53.27873207350561,115.24229074889868 L 54.77062586369807,115.24229074889868 L 54.803450967267835,115.24229074889868 L 54.826367619814626,115.24229074889868 L 56.320716125721646,115.24229074889868 L 56.34959935004176,115.24229074889868 L 56.38285447680239,115.24229074889868 L 57.86930130657717,115.24229074889868 L 57.89748574321212,115.24229074889868 L 57.93151132818973,115.24229074889868 L 59.4164709944294,115.24229074889868 L 59.442129044818,115.24229074889868 L 59.474147854904885,115.24229074889868 L 60.96595205693258,115.24229074889868 L 60.993939399605054,115.24229074889868 L 61.0263882328828,115.24229074889868 L 62.510147417714634,115.24229074889868 L 62.54775652928283,115.24229074889868 L 62.569526453320634,115.24229074889868 L 64.05846383407587,115.24229074889868 L 64.0877591639539,115.24229074889868 L 64.11691115276831,115.24229074889868 L 65.60240834799657,115.24229074889868 L 65.63473175784367,115.24229074889868 L 65.66175154833667,115.24229074889868 L 66.7418981332709,115.24229074889868 L 67.15710344168906,115.24229074889868 L 67.18922975757366,115.24229074889868 L 67.22307616622172,115.24229074889868 L 68.70500775249236,115.24229074889868 L 68.73310260096255,115.24229074889868 L 68.76599937506413,115.24229074889868 L 70.2511919705322,115.24229074889868 L 70.27285438877229,115.24229074889868 L 70.30919134840082,115.24229074889868 L 71.80135390308757,115.24229074889868 L 71.82840952884649,115.24229074889868 L 71.85987289231184,115.24229074889868 L 73.34952697838519,115.24229074889868 L 73.38201164692885,115.24229074889868 L 73.4154817852849,115.24229074889868 L 74.89572911405797,115.24229074889868 L 74.92339393933729,115.24229074889868 L 74.95982048713059,115.24229074889868 L 76.44813075073247,115.24229074889868 L 76.47172827333146,115.24229074889868 L 76.50079067398111,115.24229074889868 L 77.99490625065974,115.24229074889868 L 78.02841222428171,115.24229074889868 L 78.05978599958229,115.24229074889868 L 79.54209385614493,115.24229074889868 L 79.57224923240472,115.24229074889868 L 79.60611355868573,115.24229074889868 L 81.08799139205752,115.24229074889868 L 81.11739422773327,115.24229074889868 L 81.15054184869618,115.24229074889868 L 82.6393000531219,115.24229074889868 L 82.66678570207168,115.24229074889868 L 82.69489846817481,115.24229074889868 L 84.18562761222535,115.24229074889868 L 84.21341786093532,115.24229074889868 L 84.24681632875959,115.24229074889868 L 85.72480603578059,115.24229074889868 L 85.7616088538659,115.24229074889868 L 85.79248093544379,115.24229074889868 L 87.2809703753752,115.24229074889868 L 87.3027044641471,115.24229074889868 L 87.34178282161743,115.24229074889868 L 88.83089937870218,115.24229074889868 L 88.86356322357537,115.24229074889868 L 88.89798299647794,115.24229074889868 L 90.38118673468824,115.24229074889868 L 90.41107334645372,115.24229074889868 L 90.44273380388154,115.24229074889868 L 91.92009639374918,115.24229074889868 L 91.95256314465988,115.24229074889868 L 91.98494030740582,115.24229074889868 L 93.47296388888046,115.24229074889868 L 93.50335219436863,115.24229074889868 L 93.5380765670314,115.24229074889868 L 95.02153115210302,115.24229074889868 L 95.04950057714254,115.24229074889868 L 95.08037265872044,115.24229074889868 L 96.57074345011189,115.24229074889868 L 96.59066785795555,115.24229074889868 L 96.63958299591704,115.24229074889868 L 98.11619304520066,115.24229074889868 L 98.14634842146043,115.24229074889868 L 98.1760916921623,115.24229074889868 L 99.66714335360598,115.24229074889868 L 99.70138395017902,115.24229074889868 L 99.73254271388416,115.24229074889868 L 101.21447430015479,115.24229074889868 L 101.24462967641456,115.24229074889868 L 101.27938988434325,115.24229074889868 L 102.76044350659919,115.24229074889868 L 102.79007927150332,115.24229074889868 L 102.81708114436339,115.24229074889868 L 104.31087420364886,115.24229074889868 L 104.34149543836541,115.24229074889868 L 104.37303047236256,115.24229074889868 L 105.86361627534947,115.24229074889868 L 105.89242782913776,115.24229074889868 L 105.9208451950011,115.24229074889868 L 107.40589444940555,115.24229074889868 L 107.43669486045164,40 L 107.46878534107033,40 L 108.9597653319822,40 L 108.98114106809504,40 L 109.0106155743026,40 L 110.5039786103972,40 L 110.5278807327564,40 L 110.57029176995599,40 L 112.0539076137242,40 L 112.08538889482249,40 L 112.11303580246886,40 L 113.59571992932351,40 L 113.6302113727579,40 L 113.66398611087416,40 L 115.15333559718731,40 L 115.1686014204632,40 L 115.20997323495152,40 L 116.6983193338193,40 L 116.73094734342656,40 L 116.76780391441075,40 L 118.24652824438282,40 L 118.27727490253002,40 L 118.31667577739351,40 L 119.7922286863329,40 L 119.82492836647201,40 L 119.86307500702878,40 L 121.3488947196502,40 L 121.3853212674435,40 L 122.89102955264268,40 L 122.96762743351643,40 L 124.43936388663685,40 L 124.47743885666182,40 L 124.51357872232788,40 L 125.98707110347769,40 L 126.02718868365929,40 L 126.05479975603974,40 L 127.53843351744092,40 L 127.5720111615947,40 L 127.60970986132766,40 L 129.0810700441561,40 L 129.1146297706769,40 L 129.1523822233087,40 L 130.63151865883867,40 L 130.66450502110501,40 L 130.69989234618708,40 L 132.18506702402217,40 L 132.2284097781353,40 L 133.76739110772806,40 L 133.80842248719028,40 L 135.2847279367137,40 L 135.3185564277288,40 L 136.83686080889387,40 L 136.86567236268218,40 L 136.91311825474153,40 L 138.37308282301188,40 L 138.4060512676453,40 L 138.44134900456254,40 L 139.92302974397182,40 L 139.9620185132774,40 L 140.0011506236466,40 L 141.4683718332629,40 L 141.49997853779183,40 L 141.5383939428429,40 L 143.015201086089,40 L 143.05112594015964,40 L 143.09808805612926,40 L 144.55850056522343,40 L 144.599388603622,40 L 144.63896865481502,40 L 146.11373318790447,40 L 146.14662996200605,40 L 146.1841853206754,40 L 147.6617808397714,40 L 147.69507180179795,40 L 147.7334513715831,40 L 149.20785755201354,40 L 149.24645213339414,40 L 149.2880389594779,40 L 150.75749987321328,40 L 150.78822861372754,40 L 150.82526436104126,40 L 152.30694510045055,40 L 152.3345203375651,40 L 152.37218320203215,40 L 153.85115837886556,40 L 153.88650986868169,40 L 153.92555239088608,40 L 155.4002990063426,40 L 155.43781852974604,40 L 155.4777210983322,40 L 156.95253938432052,40 L 156.97968459824423,40 L 157.0185121088532,40 L 158.49933280188077,40 L 158.5359026907377,40 L 158.56851278271202,40 L 160.0427397868129,40 L 160.07620992516897,40 L 160.1147507536507,40 L 161.5881356290028,40 L 161.62873698527412,40 L 161.66588023838554,40 L 163.1396593016626,40 L 163.1702984540121,40 L 163.20470030928172,40 L 164.6938885368983,40 L 164.73128263687104,40 L 164.77337115667746,40 L 166.24073570735737,40 L 166.27413417518164,40 L 166.3075326430059,40 L 167.7853252560644,40 L 167.82241475627697,40 L 167.85889505696912,40 L 169.32679713663762,40 L 169.3670759755158,40 L 169.40541971003506,40 L 170.87364430709673,40 L 170.91390522834195,40 L 170.95809011120386,40 L 172.43620524165553,40 L 172.4682240517424,40 L 172.5096317014966,40 L 173.98041852007051,40 L 174.00808334534986,40 L 174.04314815303871,40 L 175.5241121871299,40 L 175.56071791125274,40 L 175.5978432467312,40 L 177.0729661324797,40 L 177.10493118966772,40 L 177.14626716889015,40 L 178.62070918458645,40 L 178.65287133573696,40 L 178.69096422339487,40 L 180.169276447809,40 L 180.2007935641732,40 L 180.23492665494854,40 L 181.71565775981134,56.563876651982376 L 181.74549061867796,56.563876651982376 L 183.2625049302704,56.563876651982376 L 183.29893147806374,56.563876651982376 L 183.33333333333334,56.563876651982376" fill="none" stroke="none"/>
  </g>
  <!-- 📊 Total Contributions Chart -->
  <g transform="translate(526.6666666666667, 250)">
    <!-- Chart Background -->
    <rect x="0" y="0" width="213.33333333333334" height="200" fill="#ffffff" stroke="#e2e8f0" stroke-width="1" rx="8" filter="url(#shadow)">
      <animate attributeName="opacity" values="0;1" dur="0.5s" begin="2.8s" fill="freeze"/>
    </rect>
    
    <!-- Chart Title -->
    <text x="106.66666666666667" y="25" text-anchor="middle" fill="#1e293b" font-size="14" font-weight="bold" font-family="Arial, sans-serif">
      📊 Total Contributions
      <animate attributeName="opacity" values="0;1" dur="0.5s" begin="3s" fill="freeze"/>
    </text>
    
    <!-- Y-axis labels -->
    <text x="10" y="45" fill="#64748b" font-size="10" font-family="Arial, sans-serif">5,314
      <animate attributeName="opacity" values="0;1" dur="0.5s" begin="3.1999999999999997s" fill="freeze"/>
    </text>
    <text x="10" y="185" fill="#64748b" font-size="10" font-family="Arial, sans-serif">4,408
      <animate attributeName="opacity" values="0;1" dur="0.5s" begin="3.1999999999999997s" fill="freeze"/>
    </text>
    
    <!-- Chart Line with draw animation that follows the circle -->
    <path d="M 30,160 L 30.026607684935097,160 L 30.05731850781641,160 L 31.549122709844113,160 L 31.577092134883628,160 L 31.602678514740408,160 L 33.095056081022605,160 L 33.12272090630192,160 L 33.151783306951565,160 L 34.65003785684232,160 L 34.67918984565673,160 L 34.70966773930966,160 L 36.19226227799955,160 L 36.221575525510545,92.58278145695365 L 36.25198174863166,92.58278145695365 L 37.74661693666592,92.58278145695365 L 37.76743722615722,92.58278145695365 L 37.7957650038558,92.58278145695365 L 39.28891302835497,92.58278145695365 L 39.30883743619862,92.58278145695365 L 39.34691240622359,92.58278145695365 L 40.83920038434102,92.58278145695365 L 40.86799402049637,92.58278145695365 L 40.8923440836794,92.58278145695365 L 42.38122771153577,92.58278145695365 L 42.41385572114305,92.58278145695365 L 42.44560576673564,92.58278145695365 L 43.93646033421683,92.58278145695365 L 43.95145739299843,92.58278145695365 L 43.98985488041655,92.58278145695365 L 45.484203386323564,92.58278145695365 L 45.51417958625381,92.58278145695365 L 45.549154805777924,92.58278145695365 L 47.03221520292459,92.58278145695365 L 47.05867954679607,92.58278145695365 L 47.09451481270192,92.58278145695365 L 48.57744978641792,92.58278145695365 L 48.60746182161407,92.58278145695365 L 48.64075278364061,92.58278145695365 L 50.12899137671067,92.58278145695365 L 50.15085088891325,92.58278145695365 L 50.181884229187716,92.58278145695365 L 51.67272087903596,92.58278145695365 L 51.697626388840526,92.58278145695365 L 51.72975270472512,92.58278145695365 L 53.223707022707174,92.58278145695365 L 53.25309194074997,92.58278145695365 L 53.27873207350561,92.58278145695365 L 54.77062586369807,92.58278145695365 L 54.803450967267835,92.58278145695365 L 54.826367619814626,92.58278145695365 L 56.320716125721646,92.58278145695365 L 56.34959935004176,92.58278145695365 L 56.38285447680239,92.58278145695365 L 57.86930130657717,92.58278145695365 L 57.89748574321212,92.58278145695365 L 57.93151132818973,92.58278145695365 L 59.4164709944294,92.58278145695365 L 59.442129044818,92.58278145695365 L 59.474147854904885,92.58278145695365 L 60.96595205693258,92.58278145695365 L 60.993939399605054,92.58278145695365 L 61.0263882328828,92.58278145695365 L 62.510147417714634,92.58278145695365 L 62.54775652928283,92.58278145695365 L 62.569526453320634,92.58278145695365 L 64.05846383407587,92.58278145695365 L 64.0877591639539,92.58278145695365 L 64.11691115276831,92.58278145695365 L 65.60240834799657,92.58278145695365 L 65.63473175784367,92.58278145695365 L 65.66175154833667,92.58278145695365 L 66.7418981332709,92.58278145695365 L 67.15710344168906,92.58278145695365 L 67.18922975757366,92.58278145695365 L 67.22307616622172,92.58278145695365 L 68.70500775249236,92.58278145695365 L 68.73310260096255,92.58278145695365 L 68.76599937506413,92.58278145695365 L 70.2511919705322,92.58278145695365 L 70.27285438877229,92.58278145695365 L 70.30919134840082,92.58278145695365 L 71.80135390308757,92.58278145695365 L 71.82840952884649,92.58278145695365 L 71.85987289231184,92.58278145695365 L 73.34952697838519,92.58278145695365 L 73.38201164692885,92.58278145695365 L 73.4154817852849,92.58278145695365 L 74.89572911405797,92.58278145695365 L 74.92339393933729,92.58278145695365 L 74.95982048713059,92.58278145695365 L 76.44813075073247,92.58278145695365 L 76.47172827333146,92.58278145695365 L 76.50079067398111,92.58278145695365 L 77.99490625065974,92.58278145695365 L 78.02841222428171,92.58278145695365 L 78.05978599958229,92.58278145695365 L 79.54209385614493,92.58278145695365 L 79.57224923240472,92.58278145695365 L 79.60611355868573,92.58278145695365 L 81.08799139205752,92.58278145695365 L 81.11739422773327,92.58278145695365 L 81.15054184869618,92.58278145695365 L 82.6393000531219,92.58278145695365 L 82.66678570207168,92.58278145695365 L 82.69489846817481,92.58278145695365 L 84.18562761222535,92.58278145695365 L 84.21341786093532,92.58278145695365 L 84.24681632875959,92.58278145695365 L 85.72480603578059,92.58278145695365 L 85.7616088538659,92.58278145695365 L 85.79248093544379,92.58278145695365 L 87.2809703753752,92.58278145695365 L 87.3027044641471,92.58278145695365 L 87.34178282161743,92.58278145695365 L 88.83089937870218,92.58278145695365 L 88.86356322357537,92.58278145695365 L 88.89798299647794,92.58278145695365 L 90.38118673468824,92.58278145695365 L 90.41107334645372,92.58278145695365 L 90.44273380388154,92.58278145695365 L 91.92009639374918,92.58278145695365 L 91.95256314465988,92.58278145695365 L 91.98494030740582,92.58278145695365 L 93.47296388888046,92.58278145695365 L 93.50335219436863,92.58278145695365 L 93.5380765670314,92.58278145695365 L 95.02153115210302,92.58278145695365 L 95.04950057714254,92.58278145695365 L 95.08037265872044,92.58278145695365 L 96.57074345011189,92.58278145695365 L 96.59066785795555,92.58278145695365 L 96.63958299591704,92.58278145695365 L 98.11619304520066,92.58278145695365 L 98.14634842146043,92.58278145695365 L 98.1760916921623,92.58278145695365 L 99.66714335360598,92.58278145695365 L 99.70138395017902,92.58278145695365 L 99.73254271388416,92.58278145695365 L 101.21447430015479,92.58278145695365 L 101.24462967641456,92.58278145695365 L 101.27938988434325,92.58278145695365 L 102.76044350659919,92.58278145695365 L 102.79007927150332,92.58278145695365 L 102.81708114436339,92.58278145695365 L 104.31087420364886,92.58278145695365 L 104.34149543836541,92.58278145695365 L 104.37303047236256,92.58278145695365 L 105.86361627534947,92.58278145695365 L 105.89242782913776,92.58278145695365 L 105.9208451950011,92.58278145695365 L 107.40589444940555,92.58278145695365 L 107.43669486045164,40 L 107.46878534107033,40 L 108.9597653319822,40 L 108.98114106809504,40 L 109.0106155743026,40 L 110.5039786103972,40 L 110.5278807327564,40 L 110.57029176995599,40 L 112.0539076137242,40 L 112.08538889482249,40 L 112.11303580246886,40 L 113.59571992932351,40 L 113.6302113727579,40 L 113.66398611087416,40 L 115.15333559718731,40 L 115.1686014204632,40 L 115.20997323495152,40 L 116.6983193338193,40 L 116.73094734342656,40 L 116.76780391441075,40 L 118.24652824438282,40 L 118.27727490253002,40 L 118.31667577739351,40 L 119.7922286863329,40 L 119.82492836647201,40 L 119.86307500702878,40 L 121.3488947196502,40 L 121.3853212674435,40 L 122.89102955264268,40 L 122.96762743351643,40 L 124.43936388663685,40 L 124.47743885666182,40 L 124.51357872232788,40 L 125.98707110347769,40 L 126.02718868365929,40 L 126.05479975603974,40 L 127.53843351744092,40 L 127.5720111615947,40 L 127.60970986132766,40 L 129.0810700441561,40 L 129.1146297706769,40 L 129.1523822233087,40 L 130.63151865883867,40 L 130.66450502110501,40 L 130.69989234618708,40 L 132.18506702402217,40 L 132.2284097781353,40 L 133.76739110772806,40 L 133.80842248719028,40 L 135.2847279367137,40 L 135.3185564277288,40 L 136.83686080889387,40 L 136.86567236268218,40 L 136.91311825474153,40 L 138.37308282301188,40 L 138.4060512676453,40 L 138.44134900456254,40 L 139.92302974397182,40 L 139.9620185132774,40 L 140.0011506236466,40 L 141.4683718332629,40 L 141.49997853779183,40 L 141.5383939428429,40 L 143.015201086089,40 L 143.05112594015964,40 L 143.09808805612926,40 L 144.55850056522343,40 L 144.599388603622,40 L 144.63896865481502,40 L 146.11373318790447,40 L 146.14662996200605,40 L 146.1841853206754,40 L 147.6617808397714,40 L 147.69507180179795,40 L 147.7334513715831,40 L 149.20785755201354,40 L 149.24645213339414,40 L 149.2880389594779,40 L 150.75749987321328,40 L 150.78822861372754,40 L 150.82526436104126,40 L 152.30694510045055,40 L 152.3345203375651,40 L 152.37218320203215,40 L 153.85115837886556,40 L 153.88650986868169,40 L 153.92555239088608,40 L 155.4002990063426,40 L 155.43781852974604,40 L 155.4777210983322,40 L 156.95253938432052,40 L 156.97968459824423,40 L 157.0185121088532,40 L 158.49933280188077,40 L 158.5359026907377,40 L 158.56851278271202,40 L 160.0427397868129,40 L 160.07620992516897,40 L 160.1147507536507,40 L 161.5881356290028,40 L 161.62873698527412,40 L 161.66588023838554,40 L 163.1396593016626,40 L 163.1702984540121,40 L 163.20470030928172,40 L 164.6938885368983,40 L 164.73128263687104,40 L 164.77337115667746,40 L 166.24073570735737,40 L 166.27413417518164,40 L 166.3075326430059,40 L 167.7853252560644,40 L 167.82241475627697,40 L 167.85889505696912,40 L 169.32679713663762,40 L 169.3670759755158,40 L 169.40541971003506,40 L 170.87364430709673,40 L 170.91390522834195,40 L 170.95809011120386,40 L 172.43620524165553,40 L 172.4682240517424,40 L 172.5096317014966,40 L 173.98041852007051,40 L 174.00808334534986,40 L 174.04314815303871,40 L 175.5241121871299,40 L 175.56071791125274,40 L 175.5978432467312,40 L 177.0729661324797,40 L 177.10493118966772,40 L 177.14626716889015,40 L 178.62070918458645,40 L 178.65287133573696,40 L 178.69096422339487,40 L 180.169276447809,40 L 180.2007935641732,40 L 180.23492665494854,40 L 181.71565775981134,54.039735099337754 L 181.74549061867796,54.039735099337754 L 183.2625049302704,54.039735099337754 L 183.29893147806374,54.039735099337754 L 183.33333333333334,54.039735099337754" stroke="#f59e0b" stroke-width="2" fill="none" stroke-dasharray="14750" stroke-dashoffset="14750">
      <animate attributeName="stroke-dashoffset" values="14750;0" dur="3s" begin="3.5999999999999996s" fill="freeze"/>
    </path>
    
    <!-- Glow effect for the line that also follows the circle -->
    <path d="M 30,160 L 30.026607684935097,160 L 30.05731850781641,160 L 31.549122709844113,160 L 31.577092134883628,160 L 31.602678514740408,160 L 33.095056081022605,160 L 33.12272090630192,160 L 33.151783306951565,160 L 34.65003785684232,160 L 34.67918984565673,160 L 34.70966773930966,160 L 36.19226227799955,160 L 36.221575525510545,92.58278145695365 L 36.25198174863166,92.58278145695365 L 37.74661693666592,92.58278145695365 L 37.76743722615722,92.58278145695365 L 37.7957650038558,92.58278145695365 L 39.28891302835497,92.58278145695365 L 39.30883743619862,92.58278145695365 L 39.34691240622359,92.58278145695365 L 40.83920038434102,92.58278145695365 L 40.86799402049637,92.58278145695365 L 40.8923440836794,92.58278145695365 L 42.38122771153577,92.58278145695365 L 42.41385572114305,92.58278145695365 L 42.44560576673564,92.58278145695365 L 43.93646033421683,92.58278145695365 L 43.95145739299843,92.58278145695365 L 43.98985488041655,92.58278145695365 L 45.484203386323564,92.58278145695365 L 45.51417958625381,92.58278145695365 L 45.549154805777924,92.58278145695365 L 47.03221520292459,92.58278145695365 L 47.05867954679607,92.58278145695365 L 47.09451481270192,92.58278145695365 L 48.57744978641792,92.58278145695365 L 48.60746182161407,92.58278145695365 L 48.64075278364061,92.58278145695365 L 50.12899137671067,92.58278145695365 L 50.15085088891325,92.58278145695365 L 50.181884229187716,92.58278145695365 L 51.67272087903596,92.58278145695365 L 51.697626388840526,92.58278145695365 L 51.72975270472512,92.58278145695365 L 53.223707022707174,92.58278145695365 L 53.25309194074997,92.58278145695365 L 53.27873207350561,92.58278145695365 L 54.77062586369807,92.58278145695365 L 54.803450967267835,92.58278145695365 L 54.826367619814626,92.58278145695365 L 56.320716125721646,92.58278145695365 L 56.34959935004176,92.58278145695365 L 56.38285447680239,92.58278145695365 L 57.86930130657717,92.58278145695365 L 57.89748574321212,92.58278145695365 L 57.93151132818973,92.58278145695365 L 59.4164709944294,92.58278145695365 L 59.442129044818,92.58278145695365 L 59.474147854904885,92.58278145695365 L 60.96595205693258,92.58278145695365 L 60.993939399605054,92.58278145695365 L 61.0263882328828,92.58278145695365 L 62.510147417714634,92.58278145695365 L 62.54775652928283,92.58278145695365 L 62.569526453320634,92.58278145695365 L 64.05846383407587,92.58278145695365 L 64.0877591639539,92.58278145695365 L 64.11691115276831,92.58278145695365 L 65.60240834799657,92.58278145695365 L 65.63473175784367,92.58278145695365 L 65.66175154833667,92.58278145695365 L 66.7418981332709,92.58278145695365 L 67.15710344168906,92.58278145695365 L 67.18922975757366,92.58278145695365 L 67.22307616622172,92.58278145695365 L 68.70500775249236,92.58278145695365 L 68.73310260096255,92.58278145695365 L 68.76599937506413,92.58278145695365 L 70.2511919705322,92.58278145695365 L 70.27285438877229,92.58278145695365 L 70.30919134840082,92.58278145695365 L 71.80135390308757,92.58278145695365 L 71.82840952884649,92.58278145695365 L 71.85987289231184,92.58278145695365 L 73.34952697838519,92.58278145695365 L 73.38201164692885,92.58278145695365 L 73.4154817852849,92.58278145695365 L 74.89572911405797,92.58278145695365 L 74.92339393933729,92.58278145695365 L 74.95982048713059,92.58278145695365 L 76.44813075073247,92.58278145695365 L 76.47172827333146,92.58278145695365 L 76.50079067398111,92.58278145695365 L 77.99490625065974,92.58278145695365 L 78.02841222428171,92.58278145695365 L 78.05978599958229,92.58278145695365 L 79.54209385614493,92.58278145695365 L 79.57224923240472,92.58278145695365 L 79.60611355868573,92.58278145695365 L 81.08799139205752,92.58278145695365 L 81.11739422773327,92.58278145695365 L 81.15054184869618,92.58278145695365 L 82.6393000531219,92.58278145695365 L 82.66678570207168,92.58278145695365 L 82.69489846817481,92.58278145695365 L 84.18562761222535,92.58278145695365 L 84.21341786093532,92.58278145695365 L 84.24681632875959,92.58278145695365 L 85.72480603578059,92.58278145695365 L 85.7616088538659,92.58278145695365 L 85.79248093544379,92.58278145695365 L 87.2809703753752,92.58278145695365 L 87.3027044641471,92.58278145695365 L 87.34178282161743,92.58278145695365 L 88.83089937870218,92.58278145695365 L 88.86356322357537,92.58278145695365 L 88.89798299647794,92.58278145695365 L 90.38118673468824,92.58278145695365 L 90.41107334645372,92.58278145695365 L 90.44273380388154,92.58278145695365 L 91.92009639374918,92.58278145695365 L 91.95256314465988,92.58278145695365 L 91.98494030740582,92.58278145695365 L 93.47296388888046,92.58278145695365 L 93.50335219436863,92.58278145695365 L 93.5380765670314,92.58278145695365 L 95.02153115210302,92.58278145695365 L 95.04950057714254,92.58278145695365 L 95.08037265872044,92.58278145695365 L 96.57074345011189,92.58278145695365 L 96.59066785795555,92.58278145695365 L 96.63958299591704,92.58278145695365 L 98.11619304520066,92.58278145695365 L 98.14634842146043,92.58278145695365 L 98.1760916921623,92.58278145695365 L 99.66714335360598,92.58278145695365 L 99.70138395017902,92.58278145695365 L 99.73254271388416,92.58278145695365 L 101.21447430015479,92.58278145695365 L 101.24462967641456,92.58278145695365 L 101.27938988434325,92.58278145695365 L 102.76044350659919,92.58278145695365 L 102.79007927150332,92.58278145695365 L 102.81708114436339,92.58278145695365 L 104.31087420364886,92.58278145695365 L 104.34149543836541,92.58278145695365 L 104.37303047236256,92.58278145695365 L 105.86361627534947,92.58278145695365 L 105.89242782913776,92.58278145695365 L 105.9208451950011,92.58278145695365 L 107.40589444940555,92.58278145695365 L 107.43669486045164,40 L 107.46878534107033,40 L 108.9597653319822,40 L 108.98114106809504,40 L 109.0106155743026,40 L 110.5039786103972,40 L 110.5278807327564,40 L 110.57029176995599,40 L 112.0539076137242,40 L 112.08538889482249,40 L 112.11303580246886,40 L 113.59571992932351,40 L 113.6302113727579,40 L 113.66398611087416,40 L 115.15333559718731,40 L 115.1686014204632,40 L 115.20997323495152,40 L 116.6983193338193,40 L 116.73094734342656,40 L 116.76780391441075,40 L 118.24652824438282,40 L 118.27727490253002,40 L 118.31667577739351,40 L 119.7922286863329,40 L 119.82492836647201,40 L 119.86307500702878,40 L 121.3488947196502,40 L 121.3853212674435,40 L 122.89102955264268,40 L 122.96762743351643,40 L 124.43936388663685,40 L 124.47743885666182,40 L 124.51357872232788,40 L 125.98707110347769,40 L 126.02718868365929,40 L 126.05479975603974,40 L 127.53843351744092,40 L 127.5720111615947,40 L 127.60970986132766,40 L 129.0810700441561,40 L 129.1146297706769,40 L 129.1523822233087,40 L 130.63151865883867,40 L 130.66450502110501,40 L 130.69989234618708,40 L 132.18506702402217,40 L 132.2284097781353,40 L 133.76739110772806,40 L 133.80842248719028,40 L 135.2847279367137,40 L 135.3185564277288,40 L 136.83686080889387,40 L 136.86567236268218,40 L 136.91311825474153,40 L 138.37308282301188,40 L 138.4060512676453,40 L 138.44134900456254,40 L 139.92302974397182,40 L 139.9620185132774,40 L 140.0011506236466,40 L 141.4683718332629,40 L 141.49997853779183,40 L 141.5383939428429,40 L 143.015201086089,40 L 143.05112594015964,40 L 143.09808805612926,40 L 144.55850056522343,40 L 144.599388603622,40 L 144.63896865481502,40 L 146.11373318790447,40 L 146.14662996200605,40 L 146.1841853206754,40 L 147.6617808397714,40 L 147.69507180179795,40 L 147.7334513715831,40 L 149.20785755201354,40 L 149.24645213339414,40 L 149.2880389594779,40 L 150.75749987321328,40 L 150.78822861372754,40 L 150.82526436104126,40 L 152.30694510045055,40 L 152.3345203375651,40 L 152.37218320203215,40 L 153.85115837886556,40 L 153.88650986868169,40 L 153.92555239088608,40 L 155.4002990063426,40 L 155.43781852974604,40 L 155.4777210983322,40 L 156.95253938432052,40 L 156.97968459824423,40 L 157.0185121088532,40 L 158.49933280188077,40 L 158.5359026907377,40 L 158.56851278271202,40 L 160.0427397868129,40 L 160.07620992516897,40 L 160.1147507536507,40 L 161.5881356290028,40 L 161.62873698527412,40 L 161.66588023838554,40 L 163.1396593016626,40 L 163.1702984540121,40 L 163.20470030928172,40 L 164.6938885368983,40 L 164.73128263687104,40 L 164.77337115667746,40 L 166.24073570735737,40 L 166.27413417518164,40 L 166.3075326430059,40 L 167.7853252560644,40 L 167.82241475627697,40 L 167.85889505696912,40 L 169.32679713663762,40 L 169.3670759755158,40 L 169.40541971003506,40 L 170.87364430709673,40 L 170.91390522834195,40 L 170.95809011120386,40 L 172.43620524165553,40 L 172.4682240517424,40 L 172.5096317014966,40 L 173.98041852007051,40 L 174.00808334534986,40 L 174.04314815303871,40 L 175.5241121871299,40 L 175.56071791125274,40 L 175.5978432467312,40 L 177.0729661324797,40 L 177.10493118966772,40 L 177.14626716889015,40 L 178.62070918458645,40 L 178.65287133573696,40 L 178.69096422339487,40 L 180.169276447809,40 L 180.2007935641732,40 L 180.23492665494854,40 L 181.71565775981134,54.039735099337754 L 181.74549061867796,54.039735099337754 L 183.2625049302704,54.039735099337754 L 183.29893147806374,54.039735099337754 L 183.33333333333334,54.039735099337754" stroke="#f59e0b" stroke-width="4" fill="none" opacity="0.4" stroke-dasharray="14750" stroke-dashoffset="14750">
      <animate attributeName="stroke-dashoffset" values="14750;0" dur="3s" begin="3.5999999999999996s" fill="freeze"/>
    </path>
    
    <!-- Animated circle that moves along the path and draws the line -->
    <circle r="5" fill="#f59e0b" opacity="0" filter="url(#trailGlow)">
      <animate attributeName="opacity" values="0;1;1;1" dur="3.2s" begin="3.4s" fill="freeze"/>
      <animate attributeName="r" values="5;6;5" dur="1s" begin="3.4s" repeatCount="3"/>
      <animateMotion dur="3s" begin="3.4s" fill="freeze">
        <mpath href="#path_totalContributions_526.6666666666667"/>
      </animateMotion>
    </circle>
    
    <!-- Small trail dots that fade out -->
    <circle r="2" fill="#f59e0b" opacity="0">
      <animate attributeName="opacity" values="0;0.6;0" dur="0.8s" begin="3.8s" fill="freeze"/>
      <animateMotion dur="3s" begin="3.4s" fill="freeze">
        <mpath href="#path_totalContributions_526.6666666666667"/>
      </animateMotion>
    </circle>
    
    <!-- Hidden path for motion animation -->
    <path id="path_totalContributions_526.6666666666667" d="M 30,160 L 30.026607684935097,160 L 30.05731850781641,160 L 31.549122709844113,160 L 31.577092134883628,160 L 31.602678514740408,160 L 33.095056081022605,160 L 33.12272090630192,160 L 33.151783306951565,160 L 34.65003785684232,160 L 34.67918984565673,160 L 34.70966773930966,160 L 36.19226227799955,160 L 36.221575525510545,92.58278145695365 L 36.25198174863166,92.58278145695365 L 37.74661693666592,92.58278145695365 L 37.76743722615722,92.58278145695365 L 37.7957650038558,92.58278145695365 L 39.28891302835497,92.58278145695365 L 39.30883743619862,92.58278145695365 L 39.34691240622359,92.58278145695365 L 40.83920038434102,92.58278145695365 L 40.86799402049637,92.58278145695365 L 40.8923440836794,92.58278145695365 L 42.38122771153577,92.58278145695365 L 42.41385572114305,92.58278145695365 L 42.44560576673564,92.58278145695365 L 43.93646033421683,92.58278145695365 L 43.95145739299843,92.58278145695365 L 43.98985488041655,92.58278145695365 L 45.484203386323564,92.58278145695365 L 45.51417958625381,92.58278145695365 L 45.549154805777924,92.58278145695365 L 47.03221520292459,92.58278145695365 L 47.05867954679607,92.58278145695365 L 47.09451481270192,92.58278145695365 L 48.57744978641792,92.58278145695365 L 48.60746182161407,92.58278145695365 L 48.64075278364061,92.58278145695365 L 50.12899137671067,92.58278145695365 L 50.15085088891325,92.58278145695365 L 50.181884229187716,92.58278145695365 L 51.67272087903596,92.58278145695365 L 51.697626388840526,92.58278145695365 L 51.72975270472512,92.58278145695365 L 53.223707022707174,92.58278145695365 L 53.25309194074997,92.58278145695365 L 53.27873207350561,92.58278145695365 L 54.77062586369807,92.58278145695365 L 54.803450967267835,92.58278145695365 L 54.826367619814626,92.58278145695365 L 56.320716125721646,92.58278145695365 L 56.34959935004176,92.58278145695365 L 56.38285447680239,92.58278145695365 L 57.86930130657717,92.58278145695365 L 57.89748574321212,92.58278145695365 L 57.93151132818973,92.58278145695365 L 59.4164709944294,92.58278145695365 L 59.442129044818,92.58278145695365 L 59.474147854904885,92.58278145695365 L 60.96595205693258,92.58278145695365 L 60.993939399605054,92.58278145695365 L 61.0263882328828,92.58278145695365 L 62.510147417714634,92.58278145695365 L 62.54775652928283,92.58278145695365 L 62.569526453320634,92.58278145695365 L 64.05846383407587,92.58278145695365 L 64.0877591639539,92.58278145695365 L 64.11691115276831,92.58278145695365 L 65.60240834799657,92.58278145695365 L 65.63473175784367,92.58278145695365 L 65.66175154833667,92.58278145695365 L 66.7418981332709,92.58278145695365 L 67.15710344168906,92.58278145695365 L 67.18922975757366,92.58278145695365 L 67.22307616622172,92.58278145695365 L 68.70500775249236,92.58278145695365 L 68.73310260096255,92.58278145695365 L 68.76599937506413,92.58278145695365 L 70.2511919705322,92.58278145695365 L 70.27285438877229,92.58278145695365 L 70.30919134840082,92.58278145695365 L 71.80135390308757,92.58278145695365 L 71.82840952884649,92.58278145695365 L 71.85987289231184,92.58278145695365 L 73.34952697838519,92.58278145695365 L 73.38201164692885,92.58278145695365 L 73.4154817852849,92.58278145695365 L 74.89572911405797,92.58278145695365 L 74.92339393933729,92.58278145695365 L 74.95982048713059,92.58278145695365 L 76.44813075073247,92.58278145695365 L 76.47172827333146,92.58278145695365 L 76.50079067398111,92.58278145695365 L 77.99490625065974,92.58278145695365 L 78.02841222428171,92.58278145695365 L 78.05978599958229,92.58278145695365 L 79.54209385614493,92.58278145695365 L 79.57224923240472,92.58278145695365 L 79.60611355868573,92.58278145695365 L 81.08799139205752,92.58278145695365 L 81.11739422773327,92.58278145695365 L 81.15054184869618,92.58278145695365 L 82.6393000531219,92.58278145695365 L 82.66678570207168,92.58278145695365 L 82.69489846817481,92.58278145695365 L 84.18562761222535,92.58278145695365 L 84.21341786093532,92.58278145695365 L 84.24681632875959,92.58278145695365 L 85.72480603578059,92.58278145695365 L 85.7616088538659,92.58278145695365 L 85.79248093544379,92.58278145695365 L 87.2809703753752,92.58278145695365 L 87.3027044641471,92.58278145695365 L 87.34178282161743,92.58278145695365 L 88.83089937870218,92.58278145695365 L 88.86356322357537,92.58278145695365 L 88.89798299647794,92.58278145695365 L 90.38118673468824,92.58278145695365 L 90.41107334645372,92.58278145695365 L 90.44273380388154,92.58278145695365 L 91.92009639374918,92.58278145695365 L 91.95256314465988,92.58278145695365 L 91.98494030740582,92.58278145695365 L 93.47296388888046,92.58278145695365 L 93.50335219436863,92.58278145695365 L 93.5380765670314,92.58278145695365 L 95.02153115210302,92.58278145695365 L 95.04950057714254,92.58278145695365 L 95.08037265872044,92.58278145695365 L 96.57074345011189,92.58278145695365 L 96.59066785795555,92.58278145695365 L 96.63958299591704,92.58278145695365 L 98.11619304520066,92.58278145695365 L 98.14634842146043,92.58278145695365 L 98.1760916921623,92.58278145695365 L 99.66714335360598,92.58278145695365 L 99.70138395017902,92.58278145695365 L 99.73254271388416,92.58278145695365 L 101.21447430015479,92.58278145695365 L 101.24462967641456,92.58278145695365 L 101.27938988434325,92.58278145695365 L 102.76044350659919,92.58278145695365 L 102.79007927150332,92.58278145695365 L 102.81708114436339,92.58278145695365 L 104.31087420364886,92.58278145695365 L 104.34149543836541,92.58278145695365 L 104.37303047236256,92.58278145695365 L 105.86361627534947,92.58278145695365 L 105.89242782913776,92.58278145695365 L 105.9208451950011,92.58278145695365 L 107.40589444940555,92.58278145695365 L 107.43669486045164,40 L 107.46878534107033,40 L 108.9597653319822,40 L 108.98114106809504,40 L 109.0106155743026,40 L 110.5039786103972,40 L 110.5278807327564,40 L 110.57029176995599,40 L 112.0539076137242,40 L 112.08538889482249,40 L 112.11303580246886,40 L 113.59571992932351,40 L 113.6302113727579,40 L 113.66398611087416,40 L 115.15333559718731,40 L 115.1686014204632,40 L 115.20997323495152,40 L 116.6983193338193,40 L 116.73094734342656,40 L 116.76780391441075,40 L 118.24652824438282,40 L 118.27727490253002,40 L 118.31667577739351,40 L 119.7922286863329,40 L 119.82492836647201,40 L 119.86307500702878,40 L 121.3488947196502,40 L 121.3853212674435,40 L 122.89102955264268,40 L 122.96762743351643,40 L 124.43936388663685,40 L 124.47743885666182,40 L 124.51357872232788,40 L 125.98707110347769,40 L 126.02718868365929,40 L 126.05479975603974,40 L 127.53843351744092,40 L 127.5720111615947,40 L 127.60970986132766,40 L 129.0810700441561,40 L 129.1146297706769,40 L 129.1523822233087,40 L 130.63151865883867,40 L 130.66450502110501,40 L 130.69989234618708,40 L 132.18506702402217,40 L 132.2284097781353,40 L 133.76739110772806,40 L 133.80842248719028,40 L 135.2847279367137,40 L 135.3185564277288,40 L 136.83686080889387,40 L 136.86567236268218,40 L 136.91311825474153,40 L 138.37308282301188,40 L 138.4060512676453,40 L 138.44134900456254,40 L 139.92302974397182,40 L 139.9620185132774,40 L 140.0011506236466,40 L 141.4683718332629,40 L 141.49997853779183,40 L 141.5383939428429,40 L 143.015201086089,40 L 143.05112594015964,40 L 143.09808805612926,40 L 144.55850056522343,40 L 144.599388603622,40 L 144.63896865481502,40 L 146.11373318790447,40 L 146.14662996200605,40 L 146.1841853206754,40 L 147.6617808397714,40 L 147.69507180179795,40 L 147.7334513715831,40 L 149.20785755201354,40 L 149.24645213339414,40 L 149.2880389594779,40 L 150.75749987321328,40 L 150.78822861372754,40 L 150.82526436104126,40 L 152.30694510045055,40 L 152.3345203375651,40 L 152.37218320203215,40 L 153.85115837886556,40 L 153.88650986868169,40 L 153.92555239088608,40 L 155.4002990063426,40 L 155.43781852974604,40 L 155.4777210983322,40 L 156.95253938432052,40 L 156.97968459824423,40 L 157.0185121088532,40 L 158.49933280188077,40 L 158.5359026907377,40 L 158.56851278271202,40 L 160.0427397868129,40 L 160.07620992516897,40 L 160.1147507536507,40 L 161.5881356290028,40 L 161.62873698527412,40 L 161.66588023838554,40 L 163.1396593016626,40 L 163.1702984540121,40 L 163.20470030928172,40 L 164.6938885368983,40 L 164.73128263687104,40 L 164.77337115667746,40 L 166.24073570735737,40 L 166.27413417518164,40 L 166.3075326430059,40 L 167.7853252560644,40 L 167.82241475627697,40 L 167.85889505696912,40 L 169.32679713663762,40 L 169.3670759755158,40 L 169.40541971003506,40 L 170.87364430709673,40 L 170.91390522834195,40 L 170.95809011120386,40 L 172.43620524165553,40 L 172.4682240517424,40 L 172.5096317014966,40 L 173.98041852007051,40 L 174.00808334534986,40 L 174.04314815303871,40 L 175.5241121871299,40 L 175.56071791125274,40 L 175.5978432467312,40 L 177.0729661324797,40 L 177.10493118966772,40 L 177.14626716889015,40 L 178.62070918458645,40 L 178.65287133573696,40 L 178.69096422339487,40 L 180.169276447809,40 L 180.2007935641732,40 L 180.23492665494854,40 L 181.71565775981134,54.039735099337754 L 181.74549061867796,54.039735099337754 L 183.2625049302704,54.039735099337754 L 183.29893147806374,54.039735099337754 L 183.33333333333334,54.039735099337754" fill="none" stroke="none"/>
  </g>
  
  <!-- Footer -->
  <text x="400" y="580" text-anchor="middle" fill="#94a3b8" font-size="12" font-family="Arial, sans-serif">
    Generated by GitHub User Rank Tracker • 3/13/2026
    <animate attributeName="opacity" values="0;1" dur="0.5s" begin="5s" fill="freeze"/>
  </text>
</svg>