<svg width="800" height="600" xmlns="http://www.w3.org/2000/svg">
  <defs>
    <linearGradient id="bgGradient" x1="0%" y1="0%" x2="100%" y2="100%">
      <stop offset="0%" style="stop-color:#f8fafc;stop-opacity:1" />
      <stop offset="100%" style="stop-color:#e2e8f0;stop-opacity:1" />
    </linearGradient>
    <filter id="shadow" x="-20%" y="-20%" width="140%" height="140%">
      <feDropShadow dx="2" dy="2" stdDeviation="3" flood-color="#00000020" flood-opacity="0.1"/>
    </filter>
    <!-- Trail effect filter -->
    <filter id="trailGlow" x="-50%" y="-50%" width="200%" height="200%">
      <feGaussianBlur stdDeviation="3" result="coloredBlur"/>
      <feMerge> 
        <feMergeNode in="coloredBlur"/>
        <feMergeNode in="SourceGraphic"/>
      </feMerge>
    </filter>
  </defs>
  
  <!-- Background -->
  <rect width="800" height="600" fill="url(#bgGradient)" rx="12"/>
  
  <!-- Header -->
  <text x="400" y="40" text-anchor="middle" fill="#0f172a" font-size="24" font-weight="bold" font-family="Arial, sans-serif">
    GitHub Progress Report
    <animate attributeName="opacity" values="0;1" dur="0.8s" begin="0s" fill="freeze"/>
    <animateTransform attributeName="transform" type="translate" values="0,-20;0,0" dur="0.8s" begin="0s" fill="freeze"/>
  </text>
  
  <!-- User Info -->
  <text x="400" y="70" text-anchor="middle" fill="#475569" font-size="16" font-family="Arial, sans-serif">
    @maifeeulasad • BANGLADESH • 100 days analyzed
    <animate attributeName="opacity" values="0;1" dur="0.6s" begin="0.3s" fill="freeze"/>
  </text>
  
  <!-- Progress Cards -->
  <!-- Followers Card -->
  <g transform="translate(60, 100)">
    <rect width="206.66666666666666" height="120" fill="#ffffff" stroke="#e2e8f0" stroke-width="1" rx="8" filter="url(#shadow)">
      <animate attributeName="opacity" values="0;1" dur="0.6s" begin="0.2s" fill="freeze"/>
      <animateTransform attributeName="transform" type="scale" values="0.8;1" dur="0.6s" begin="0.2s" fill="freeze"/>
    </rect>
    <text x="103.33333333333333" y="25" text-anchor="middle" fill="#64748b" font-size="14" font-weight="bold" font-family="Arial, sans-serif">FOLLOWERS
      <animate attributeName="opacity" values="0;1" dur="0.5s" begin="0.4s" fill="freeze"/>
    </text>
    
    <text x="103.33333333333333" y="50" text-anchor="middle" fill="#ef4444" font-size="32" font-weight="bold" font-family="Arial, sans-serif">
      ↘
      <animate attributeName="opacity" values="0;1" dur="0.5s" begin="0.6s" fill="freeze"/>
      <animateTransform attributeName="transform" type="scale" values="0;1.2;1" dur="0.8s" begin="0.6s" fill="freeze"/>
    </text>
    
    <text x="103.33333333333333" y="75" text-anchor="middle" fill="#1e293b" font-size="18" font-weight="bold" font-family="Arial, sans-serif">
      -15
      <animate attributeName="opacity" values="0;1" dur="0.5s" begin="0.8s" fill="freeze"/>
    </text>
    
    <text x="103.33333333333333" y="95" text-anchor="middle" fill="#64748b" font-size="12" font-family="Arial, sans-serif">
      #466 → #481
      <animate attributeName="opacity" values="0;1" dur="0.5s" begin="1s" fill="freeze"/>
    </text>
  </g>
  
  <!-- Public Contributions Card -->
  <g transform="translate(296.66666666666663, 100)">
    <rect width="206.66666666666666" height="120" fill="#ffffff" stroke="#e2e8f0" stroke-width="1" rx="8" filter="url(#shadow)">
      <animate attributeName="opacity" values="0;1" dur="0.6s" begin="0.4s" fill="freeze"/>
      <animateTransform attributeName="transform" type="scale" values="0.8;1" dur="0.6s" begin="0.4s" fill="freeze"/>
    </rect>
    <text x="103.33333333333333" y="25" text-anchor="middle" fill="#64748b" font-size="14" font-weight="bold" font-family="Arial, sans-serif">PUBLIC
      <animate attributeName="opacity" values="0;1" dur="0.5s" begin="0.6s" fill="freeze"/>
    </text>
    
    <text x="103.33333333333333" y="50" text-anchor="middle" fill="#6b7280" font-size="32" font-weight="bold" font-family="Arial, sans-serif">
      →
      <animate attributeName="opacity" values="0;1" dur="0.5s" begin="0.8s" fill="freeze"/>
      <animateTransform attributeName="transform" type="scale" values="0;1.2;1" dur="0.8s" begin="0.8s" fill="freeze"/>
    </text>
    
    <text x="103.33333333333333" y="75" text-anchor="middle" fill="#1e293b" font-size="18" font-weight="bold" font-family="Arial, sans-serif">
      0
      <animate attributeName="opacity" values="0;1" dur="0.5s" begin="1s" fill="freeze"/>
    </text>
    
    <text x="103.33333333333333" y="95" text-anchor="middle" fill="#64748b" font-size="12" font-family="Arial, sans-serif">
      #7 → #7
      <animate attributeName="opacity" values="0;1" dur="0.5s" begin="1.2s" fill="freeze"/>
    </text>
  </g>
  
  <!-- Total Contributions Card -->
  <g transform="translate(533.3333333333333, 100)">
    <rect width="206.66666666666666" height="120" fill="#ffffff" stroke="#e2e8f0" stroke-width="1" rx="8" filter="url(#shadow)">
      <animate attributeName="opacity" values="0;1" dur="0.6s" begin="0.6s" fill="freeze"/>
      <animateTransform attributeName="transform" type="scale" values="0.8;1" dur="0.6s" begin="0.6s" fill="freeze"/>
    </rect>
    <text x="103.33333333333333" y="25" text-anchor="middle" fill="#64748b" font-size="14" font-weight="bold" font-family="Arial, sans-serif">TOTAL
      <animate attributeName="opacity" values="0;1" dur="0.5s" begin="0.8s" fill="freeze"/>
    </text>
    
    <text x="103.33333333333333" y="50" text-anchor="middle" fill="#22c55e" font-size="32" font-weight="bold" font-family="Arial, sans-serif">
      ↗
      <animate attributeName="opacity" values="0;1" dur="0.5s" begin="1s" fill="freeze"/>
      <animateTransform attributeName="transform" type="scale" values="0;1.2;1" dur="0.8s" begin="1s" fill="freeze"/>
    </text>
    
    <text x="103.33333333333333" y="75" text-anchor="middle" fill="#1e293b" font-size="18" font-weight="bold" font-family="Arial, sans-serif">
      +3
      <animate attributeName="opacity" values="0;1" dur="0.5s" begin="1.2s" fill="freeze"/>
    </text>
    
    <text x="103.33333333333333" y="95" text-anchor="middle" fill="#64748b" font-size="12" font-family="Arial, sans-serif">
      #15 → #12
      <animate attributeName="opacity" values="0;1" dur="0.5s" begin="1.4s" fill="freeze"/>
    </text>
  </g>
  
  <!-- Timeline Charts (if we have snapshots) -->
  
  <!-- 👥 Followers Count Chart -->
  <g transform="translate(60, 250)">
    <!-- Chart Background -->
    <rect x="0" y="0" width="213.33333333333334" height="200" fill="#ffffff" stroke="#e2e8f0" stroke-width="1" rx="8" filter="url(#shadow)">
      <animate attributeName="opacity" values="0;1" dur="0.5s" begin="1.8s" fill="freeze"/>
    </rect>
    
    <!-- Chart Title -->
    <text x="106.66666666666667" y="25" text-anchor="middle" fill="#1e293b" font-size="14" font-weight="bold" font-family="Arial, sans-serif">
      👥 Followers Count
      <animate attributeName="opacity" values="0;1" dur="0.5s" begin="2s" fill="freeze"/>
    </text>
    
    <!-- Y-axis labels -->
    <text x="10" y="45" fill="#64748b" font-size="10" font-family="Arial, sans-serif">154
      <animate attributeName="opacity" values="0;1" dur="0.5s" begin="2.2s" fill="freeze"/>
    </text>
    <text x="10" y="185" fill="#64748b" font-size="10" font-family="Arial, sans-serif">150
      <animate attributeName="opacity" values="0;1" dur="0.5s" begin="2.2s" fill="freeze"/>
    </text>
    
    <!-- Chart Line with draw animation that follows the circle -->
    <path d="M 30,160 L 30.032470108836335,160 L 30.064850620242108,160 L 31.553028102935293,160 L 31.583419551382548,160 L 31.618147515469094,160 L 33.10175552920352,160 L 33.129727847025556,160 L 33.16060312159785,160 L 34.651128056971814,160 L 34.67105452552921,160 L 34.71997472261707,160 L 36.19673749265642,160 L 36.22689598778421,160 L 36.2566423347314,160 L 37.74784821057765,160 L 37.782092348539145,160 L 37.81325433488925,160 L 39.2953391923041,160 L 39.325497687431884,160 L 39.36026149049066,160 L 40.841468293085974,160 L 40.87110712311649,160 L 40.89811178868843,160 L 42.39205934590993,160 L 42.42268374767665,160 L 42.45422204323513,160 L 43.94496201244243,160 L 43.973776546111765,160 L 44.002196851086616,160 L 45.48739969908508,160 L 45.51820329571293,70 L 45.5502970953409,70 L 47.041431293242695,70 L 47.06280924017523,70 L 47.09228679483073,70 L 48.58580428438552,70 L 48.60970887885995,70 L 48.65212430248887,70 L 50.13589359159832,70 L 50.16737812869845,70 L 50.19502789577045,70 L 51.67786537160203,70 L 51.71236038236911,70 L 51.746138613691684,70 L 53.23564213835721,70 L 53.250909540525285,70 L 53.29228563395967,70 L 54.78078566740288,70 L 54.81341705161424,70 L 54.850277434548204,70 L 56.32915470394886,70 L 56.35990454211837,70 L 56.39930949208035,70 L 57.87501501243905,70 L 57.907718074594854,70 L 57.94586866052893,70 L 59.43184204643025,70 L 59.4682723616975,70 L 60.974136377183996,70 L 61.05074218031608,70 L 62.52263085013276,70 L 62.560709758122385,70 L 62.59685336161184,70 L 64.07049814106756,70 L 64.11061987047407,70 L 64.13823379857384,70 L 65.6220210071694,70 L 65.65560212414472,70 L 65.69330472292599,70 L 67.1648170835343,70 L 67.1983802810235,70 L 67.23613663826312,70 L 68.71542605584436,70 L 68.74841582977797,70 L 68.78380681485069,70 L 70.26913509925194,70 L 70.31248233615872,70 L 71.85162283735663,70 L 71.89265846055487,70 L 73.36911659933031,70 L 73.4029485891112,70 L 74.92141000333498,70 L 74.9502245370043,70 L 74.99767533623091,70 L 76.45779090367151,70 L 76.49076275811899,70 L 76.52606414576115,70 L 78.00789813037042,70 L 78.0468909321518,70 L 78.0860270898221,70 L 79.55340004913835,70 L 79.58501002264127,70 L 79.62342940086705,70 L 81.10038928525364,70 L 81.13631785490975,70 L 81.18328482801131,70 L 82.64384838260472,70 L 82.68474064991405,70 L 82.72432479473716,70 L 84.1992418577069,70 L 84.23214203420994,70 L 84.2697012771023,70 L 85.74744961887785,70 L 85.78074402407537,70 L 85.81912756332892,70 L 87.2936862365764,70 L 87.33228480966332,70 L 87.37387593693106,70 L 88.84348883201142,70 L 88.8742207506948,70 L 88.9112603284899,70 L 90.39309431309916,70 L 90.4206724022267,70 L 90.45833916203574,70 L 91.93746730424198,70 L 91.97282245034248,70 L 92.01186901058219,70 L 93.48676815406583,70 L 93.52429155798596,70 L 93.5641982535591,70 L 95.03916907498717,70 L 95.06631709644802,70 L 95.10514862285439,70 L 96.58612247213023,70 L 96.6226961432864,70 L 96.65530960801163,70 L 98.12968908639799,70 L 98.16316268645664,70 L 98.2017075010852,70 L 99.67524476362425,70 L 99.71585031915579,70 L 99.75299741386756,70 L 101.22692890510109,70 L 101.25757122635393,70 L 101.29197663969045,70 L 102.78131888898096,70 L 102.8187168564983,70 L 102.8608097293772,70 L 104.32832604458237,70 L 104.36172796669656,70 L 104.39512988881076,70 L 105.87307534493355,70 L 105.91016868118699,70 L 105.94665275491258,70 L 107.41470665470112,70 L 107.45498965948262,70 L 107.49333735976396,70 L 108.96171381030253,70 L 109.00197889559793,70 L 109.04616834835201,70 L 110.52443635522484,70 L 110.55645847690835,70 L 110.59787040931496,70 L 112.06880934636767,70 L 112.09647703292578,70 L 112.13154546724846,70 L 113.61266267241322,70 L 113.64927218254161,70 L 113.68640135776727,70 L 115.16167681045926,70 L 115.19364517368444,70 L 115.23498542814659,70 L 116.7095799403663,70 L 116.7417454179387,70 L 116.77984224541446,70 L 118.25830736663451,70 L 118.28982774270689,70 L 118.3239643637517,70 L 119.80484861559698,40 L 119.83468455997475,40 L 121.35185577119839,40 L 121.38828608646565,40 L 121.42269149980217,40 L 122.9016762861195,40 L 122.9267635666774,40 L 122.96946570208411,40 L 124.45832412524958,40 L 124.49617007991975,40 L 125.99900570225317,40 L 126.03842857170127,40 L 126.08989333581714,40 L 127.54956091610491,40 L 127.5881415697057,40 L 127.61188488880511,40 L 129.09982941817884,40 L 129.13570422937659,40 L 129.17353226456066,40 L 130.64900483159988,40 L 130.68319521110305,40 L 130.72195505956495,40 L 132.19558191953456,40 L 132.226313838218,40 L 132.26494825027711,40 L 133.74368216378886,40 L 133.77618811159743,40 L 133.8081206358504,40 L 135.29138817934867,40 L 135.32851735457433,40 L 135.3695888167448,40 L 136.84271393110325,40 L 136.87914424637052,40 L 136.92367416936074,40 L 138.38154980103724,40 L 138.41889401009624,40 L 138.46182909882242,40 L 139.9369253566533,40 L 139.97256721453158,40 L 140.00930216106275,40 L 141.48608285058822,40 L 141.52781733374485,40 L 141.57200678649895,40 L 143.0348819548009,40 L 143.07254871460995,40 L 143.11894226415592,40 L 144.5802225981938,40 L 144.619663387128,40 L 144.6561116218814,40 L 146.13480969642092,40 L 146.17077410504925,40 L 147.68647591841165,40 L 147.7193940144008,40 L 149.22880608813762,40 L 149.26606069976606,40 L 149.31030391097852,40 L 150.77504270583617,40 L 150.8220813568822,40 L 152.32658349142412,40 L 152.35858769362153,40 L 152.40077016393099,40 L 153.87138655023364,40 L 153.91030767407057,40 L 153.9545688047691,40 L 155.41536531268198,40 L 155.45294247506047,40 L 155.48476748239676,40 L 156.9688414027701,40 L 157.01209904224635,40 L 158.51814225259395,40 L 158.5569558595142,40 L 160.06658296708437,40 L 160.10514570119904,40 L 161.61443233853308,40 L 161.65261876343936,40 L 163.15721049541187,40 L 163.192511883054,40 L 163.22331547968187,40 L 164.71360746173636,40 L 164.7493209975591,40 L 166.2594140117682,40 L 166.29731372489672,40 L 166.33804471683104,40 L 167.80970043332823,40 L 167.85121988265152,40 L 169.3569405422491,40 L 169.40118375346154,40 L 170.90878595910095,40 L 170.95224071292444,40 L 172.46362393013365,40 L 172.50093230022043,40 L 174.00505812555397,40 L 174.0494267731692,40 L 175.55328380621106,40 L 175.59541251806218,40 L 177.09056068085323,40 L 177.13532355716293,40 L 178.64738771484443,40 L 178.6935483110709,40 L 180.19095432911217,40 L 180.24109305125572,40 L 181.74774552413115,40 L 181.78854819400993,40 L 183.2928711336907,40 L 183.33333333333334,40" stroke="#22c55e" stroke-width="2" fill="none" stroke-dasharray="13700" stroke-dashoffset="13700">
      <animate attributeName="stroke-dashoffset" values="13700;0" dur="3s" begin="2.6s" fill="freeze"/>
    </path>
    
    <!-- Glow effect for the line that also follows the circle -->
    <path d="M 30,160 L 30.032470108836335,160 L 30.064850620242108,160 L 31.553028102935293,160 L 31.583419551382548,160 L 31.618147515469094,160 L 33.10175552920352,160 L 33.129727847025556,160 L 33.16060312159785,160 L 34.651128056971814,160 L 34.67105452552921,160 L 34.71997472261707,160 L 36.19673749265642,160 L 36.22689598778421,160 L 36.2566423347314,160 L 37.74784821057765,160 L 37.782092348539145,160 L 37.81325433488925,160 L 39.2953391923041,160 L 39.325497687431884,160 L 39.36026149049066,160 L 40.841468293085974,160 L 40.87110712311649,160 L 40.89811178868843,160 L 42.39205934590993,160 L 42.42268374767665,160 L 42.45422204323513,160 L 43.94496201244243,160 L 43.973776546111765,160 L 44.002196851086616,160 L 45.48739969908508,160 L 45.51820329571293,70 L 45.5502970953409,70 L 47.041431293242695,70 L 47.06280924017523,70 L 47.09228679483073,70 L 48.58580428438552,70 L 48.60970887885995,70 L 48.65212430248887,70 L 50.13589359159832,70 L 50.16737812869845,70 L 50.19502789577045,70 L 51.67786537160203,70 L 51.71236038236911,70 L 51.746138613691684,70 L 53.23564213835721,70 L 53.250909540525285,70 L 53.29228563395967,70 L 54.78078566740288,70 L 54.81341705161424,70 L 54.850277434548204,70 L 56.32915470394886,70 L 56.35990454211837,70 L 56.39930949208035,70 L 57.87501501243905,70 L 57.907718074594854,70 L 57.94586866052893,70 L 59.43184204643025,70 L 59.4682723616975,70 L 60.974136377183996,70 L 61.05074218031608,70 L 62.52263085013276,70 L 62.560709758122385,70 L 62.59685336161184,70 L 64.07049814106756,70 L 64.11061987047407,70 L 64.13823379857384,70 L 65.6220210071694,70 L 65.65560212414472,70 L 65.69330472292599,70 L 67.1648170835343,70 L 67.1983802810235,70 L 67.23613663826312,70 L 68.71542605584436,70 L 68.74841582977797,70 L 68.78380681485069,70 L 70.26913509925194,70 L 70.31248233615872,70 L 71.85162283735663,70 L 71.89265846055487,70 L 73.36911659933031,70 L 73.4029485891112,70 L 74.92141000333498,70 L 74.9502245370043,70 L 74.99767533623091,70 L 76.45779090367151,70 L 76.49076275811899,70 L 76.52606414576115,70 L 78.00789813037042,70 L 78.0468909321518,70 L 78.0860270898221,70 L 79.55340004913835,70 L 79.58501002264127,70 L 79.62342940086705,70 L 81.10038928525364,70 L 81.13631785490975,70 L 81.18328482801131,70 L 82.64384838260472,70 L 82.68474064991405,70 L 82.72432479473716,70 L 84.1992418577069,70 L 84.23214203420994,70 L 84.2697012771023,70 L 85.74744961887785,70 L 85.78074402407537,70 L 85.81912756332892,70 L 87.2936862365764,70 L 87.33228480966332,70 L 87.37387593693106,70 L 88.84348883201142,70 L 88.8742207506948,70 L 88.9112603284899,70 L 90.39309431309916,70 L 90.4206724022267,70 L 90.45833916203574,70 L 91.93746730424198,70 L 91.97282245034248,70 L 92.01186901058219,70 L 93.48676815406583,70 L 93.52429155798596,70 L 93.5641982535591,70 L 95.03916907498717,70 L 95.06631709644802,70 L 95.10514862285439,70 L 96.58612247213023,70 L 96.6226961432864,70 L 96.65530960801163,70 L 98.12968908639799,70 L 98.16316268645664,70 L 98.2017075010852,70 L 99.67524476362425,70 L 99.71585031915579,70 L 99.75299741386756,70 L 101.22692890510109,70 L 101.25757122635393,70 L 101.29197663969045,70 L 102.78131888898096,70 L 102.8187168564983,70 L 102.8608097293772,70 L 104.32832604458237,70 L 104.36172796669656,70 L 104.39512988881076,70 L 105.87307534493355,70 L 105.91016868118699,70 L 105.94665275491258,70 L 107.41470665470112,70 L 107.45498965948262,70 L 107.49333735976396,70 L 108.96171381030253,70 L 109.00197889559793,70 L 109.04616834835201,70 L 110.52443635522484,70 L 110.55645847690835,70 L 110.59787040931496,70 L 112.06880934636767,70 L 112.09647703292578,70 L 112.13154546724846,70 L 113.61266267241322,70 L 113.64927218254161,70 L 113.68640135776727,70 L 115.16167681045926,70 L 115.19364517368444,70 L 115.23498542814659,70 L 116.7095799403663,70 L 116.7417454179387,70 L 116.77984224541446,70 L 118.25830736663451,70 L 118.28982774270689,70 L 118.3239643637517,70 L 119.80484861559698,40 L 119.83468455997475,40 L 121.35185577119839,40 L 121.38828608646565,40 L 121.42269149980217,40 L 122.9016762861195,40 L 122.9267635666774,40 L 122.96946570208411,40 L 124.45832412524958,40 L 124.49617007991975,40 L 125.99900570225317,40 L 126.03842857170127,40 L 126.08989333581714,40 L 127.54956091610491,40 L 127.5881415697057,40 L 127.61188488880511,40 L 129.09982941817884,40 L 129.13570422937659,40 L 129.17353226456066,40 L 130.64900483159988,40 L 130.68319521110305,40 L 130.72195505956495,40 L 132.19558191953456,40 L 132.226313838218,40 L 132.26494825027711,40 L 133.74368216378886,40 L 133.77618811159743,40 L 133.8081206358504,40 L 135.29138817934867,40 L 135.32851735457433,40 L 135.3695888167448,40 L 136.84271393110325,40 L 136.87914424637052,40 L 136.92367416936074,40 L 138.38154980103724,40 L 138.41889401009624,40 L 138.46182909882242,40 L 139.9369253566533,40 L 139.97256721453158,40 L 140.00930216106275,40 L 141.48608285058822,40 L 141.52781733374485,40 L 141.57200678649895,40 L 143.0348819548009,40 L 143.07254871460995,40 L 143.11894226415592,40 L 144.5802225981938,40 L 144.619663387128,40 L 144.6561116218814,40 L 146.13480969642092,40 L 146.17077410504925,40 L 147.68647591841165,40 L 147.7193940144008,40 L 149.22880608813762,40 L 149.26606069976606,40 L 149.31030391097852,40 L 150.77504270583617,40 L 150.8220813568822,40 L 152.32658349142412,40 L 152.35858769362153,40 L 152.40077016393099,40 L 153.87138655023364,40 L 153.91030767407057,40 L 153.9545688047691,40 L 155.41536531268198,40 L 155.45294247506047,40 L 155.48476748239676,40 L 156.9688414027701,40 L 157.01209904224635,40 L 158.51814225259395,40 L 158.5569558595142,40 L 160.06658296708437,40 L 160.10514570119904,40 L 161.61443233853308,40 L 161.65261876343936,40 L 163.15721049541187,40 L 163.192511883054,40 L 163.22331547968187,40 L 164.71360746173636,40 L 164.7493209975591,40 L 166.2594140117682,40 L 166.29731372489672,40 L 166.33804471683104,40 L 167.80970043332823,40 L 167.85121988265152,40 L 169.3569405422491,40 L 169.40118375346154,40 L 170.90878595910095,40 L 170.95224071292444,40 L 172.46362393013365,40 L 172.50093230022043,40 L 174.00505812555397,40 L 174.0494267731692,40 L 175.55328380621106,40 L 175.59541251806218,40 L 177.09056068085323,40 L 177.13532355716293,40 L 178.64738771484443,40 L 178.6935483110709,40 L 180.19095432911217,40 L 180.24109305125572,40 L 181.74774552413115,40 L 181.78854819400993,40 L 183.2928711336907,40 L 183.33333333333334,40" stroke="#22c55e" stroke-width="4" fill="none" opacity="0.4" stroke-dasharray="13700" stroke-dashoffset="13700">
      <animate attributeName="stroke-dashoffset" values="13700;0" dur="3s" begin="2.6s" fill="freeze"/>
    </path>
    
    <!-- Animated circle that moves along the path and draws the line -->
    <circle r="5" fill="#22c55e" opacity="0" filter="url(#trailGlow)">
      <animate attributeName="opacity" values="0;1;1;1" dur="3.2s" begin="2.4s" fill="freeze"/>
      <animate attributeName="r" values="5;6;5" dur="1s" begin="2.4s" repeatCount="3"/>
      <animateMotion dur="3s" begin="2.4s" fill="freeze">
        <mpath href="#path_followersCount_60"/>
      </animateMotion>
    </circle>
    
    <!-- Small trail dots that fade out -->
    <circle r="2" fill="#22c55e" opacity="0">
      <animate attributeName="opacity" values="0;0.6;0" dur="0.8s" begin="2.8s" fill="freeze"/>
      <animateMotion dur="3s" begin="2.4s" fill="freeze">
        <mpath href="#path_followersCount_60"/>
      </animateMotion>
    </circle>
    
    <!-- Hidden path for motion animation -->
    <path id="path_followersCount_60" d="M 30,160 L 30.032470108836335,160 L 30.064850620242108,160 L 31.553028102935293,160 L 31.583419551382548,160 L 31.618147515469094,160 L 33.10175552920352,160 L 33.129727847025556,160 L 33.16060312159785,160 L 34.651128056971814,160 L 34.67105452552921,160 L 34.71997472261707,160 L 36.19673749265642,160 L 36.22689598778421,160 L 36.2566423347314,160 L 37.74784821057765,160 L 37.782092348539145,160 L 37.81325433488925,160 L 39.2953391923041,160 L 39.325497687431884,160 L 39.36026149049066,160 L 40.841468293085974,160 L 40.87110712311649,160 L 40.89811178868843,160 L 42.39205934590993,160 L 42.42268374767665,160 L 42.45422204323513,160 L 43.94496201244243,160 L 43.973776546111765,160 L 44.002196851086616,160 L 45.48739969908508,160 L 45.51820329571293,70 L 45.5502970953409,70 L 47.041431293242695,70 L 47.06280924017523,70 L 47.09228679483073,70 L 48.58580428438552,70 L 48.60970887885995,70 L 48.65212430248887,70 L 50.13589359159832,70 L 50.16737812869845,70 L 50.19502789577045,70 L 51.67786537160203,70 L 51.71236038236911,70 L 51.746138613691684,70 L 53.23564213835721,70 L 53.250909540525285,70 L 53.29228563395967,70 L 54.78078566740288,70 L 54.81341705161424,70 L 54.850277434548204,70 L 56.32915470394886,70 L 56.35990454211837,70 L 56.39930949208035,70 L 57.87501501243905,70 L 57.907718074594854,70 L 57.94586866052893,70 L 59.43184204643025,70 L 59.4682723616975,70 L 60.974136377183996,70 L 61.05074218031608,70 L 62.52263085013276,70 L 62.560709758122385,70 L 62.59685336161184,70 L 64.07049814106756,70 L 64.11061987047407,70 L 64.13823379857384,70 L 65.6220210071694,70 L 65.65560212414472,70 L 65.69330472292599,70 L 67.1648170835343,70 L 67.1983802810235,70 L 67.23613663826312,70 L 68.71542605584436,70 L 68.74841582977797,70 L 68.78380681485069,70 L 70.26913509925194,70 L 70.31248233615872,70 L 71.85162283735663,70 L 71.89265846055487,70 L 73.36911659933031,70 L 73.4029485891112,70 L 74.92141000333498,70 L 74.9502245370043,70 L 74.99767533623091,70 L 76.45779090367151,70 L 76.49076275811899,70 L 76.52606414576115,70 L 78.00789813037042,70 L 78.0468909321518,70 L 78.0860270898221,70 L 79.55340004913835,70 L 79.58501002264127,70 L 79.62342940086705,70 L 81.10038928525364,70 L 81.13631785490975,70 L 81.18328482801131,70 L 82.64384838260472,70 L 82.68474064991405,70 L 82.72432479473716,70 L 84.1992418577069,70 L 84.23214203420994,70 L 84.2697012771023,70 L 85.74744961887785,70 L 85.78074402407537,70 L 85.81912756332892,70 L 87.2936862365764,70 L 87.33228480966332,70 L 87.37387593693106,70 L 88.84348883201142,70 L 88.8742207506948,70 L 88.9112603284899,70 L 90.39309431309916,70 L 90.4206724022267,70 L 90.45833916203574,70 L 91.93746730424198,70 L 91.97282245034248,70 L 92.01186901058219,70 L 93.48676815406583,70 L 93.52429155798596,70 L 93.5641982535591,70 L 95.03916907498717,70 L 95.06631709644802,70 L 95.10514862285439,70 L 96.58612247213023,70 L 96.6226961432864,70 L 96.65530960801163,70 L 98.12968908639799,70 L 98.16316268645664,70 L 98.2017075010852,70 L 99.67524476362425,70 L 99.71585031915579,70 L 99.75299741386756,70 L 101.22692890510109,70 L 101.25757122635393,70 L 101.29197663969045,70 L 102.78131888898096,70 L 102.8187168564983,70 L 102.8608097293772,70 L 104.32832604458237,70 L 104.36172796669656,70 L 104.39512988881076,70 L 105.87307534493355,70 L 105.91016868118699,70 L 105.94665275491258,70 L 107.41470665470112,70 L 107.45498965948262,70 L 107.49333735976396,70 L 108.96171381030253,70 L 109.00197889559793,70 L 109.04616834835201,70 L 110.52443635522484,70 L 110.55645847690835,70 L 110.59787040931496,70 L 112.06880934636767,70 L 112.09647703292578,70 L 112.13154546724846,70 L 113.61266267241322,70 L 113.64927218254161,70 L 113.68640135776727,70 L 115.16167681045926,70 L 115.19364517368444,70 L 115.23498542814659,70 L 116.7095799403663,70 L 116.7417454179387,70 L 116.77984224541446,70 L 118.25830736663451,70 L 118.28982774270689,70 L 118.3239643637517,70 L 119.80484861559698,40 L 119.83468455997475,40 L 121.35185577119839,40 L 121.38828608646565,40 L 121.42269149980217,40 L 122.9016762861195,40 L 122.9267635666774,40 L 122.96946570208411,40 L 124.45832412524958,40 L 124.49617007991975,40 L 125.99900570225317,40 L 126.03842857170127,40 L 126.08989333581714,40 L 127.54956091610491,40 L 127.5881415697057,40 L 127.61188488880511,40 L 129.09982941817884,40 L 129.13570422937659,40 L 129.17353226456066,40 L 130.64900483159988,40 L 130.68319521110305,40 L 130.72195505956495,40 L 132.19558191953456,40 L 132.226313838218,40 L 132.26494825027711,40 L 133.74368216378886,40 L 133.77618811159743,40 L 133.8081206358504,40 L 135.29138817934867,40 L 135.32851735457433,40 L 135.3695888167448,40 L 136.84271393110325,40 L 136.87914424637052,40 L 136.92367416936074,40 L 138.38154980103724,40 L 138.41889401009624,40 L 138.46182909882242,40 L 139.9369253566533,40 L 139.97256721453158,40 L 140.00930216106275,40 L 141.48608285058822,40 L 141.52781733374485,40 L 141.57200678649895,40 L 143.0348819548009,40 L 143.07254871460995,40 L 143.11894226415592,40 L 144.5802225981938,40 L 144.619663387128,40 L 144.6561116218814,40 L 146.13480969642092,40 L 146.17077410504925,40 L 147.68647591841165,40 L 147.7193940144008,40 L 149.22880608813762,40 L 149.26606069976606,40 L 149.31030391097852,40 L 150.77504270583617,40 L 150.8220813568822,40 L 152.32658349142412,40 L 152.35858769362153,40 L 152.40077016393099,40 L 153.87138655023364,40 L 153.91030767407057,40 L 153.9545688047691,40 L 155.41536531268198,40 L 155.45294247506047,40 L 155.48476748239676,40 L 156.9688414027701,40 L 157.01209904224635,40 L 158.51814225259395,40 L 158.5569558595142,40 L 160.06658296708437,40 L 160.10514570119904,40 L 161.61443233853308,40 L 161.65261876343936,40 L 163.15721049541187,40 L 163.192511883054,40 L 163.22331547968187,40 L 164.71360746173636,40 L 164.7493209975591,40 L 166.2594140117682,40 L 166.29731372489672,40 L 166.33804471683104,40 L 167.80970043332823,40 L 167.85121988265152,40 L 169.3569405422491,40 L 169.40118375346154,40 L 170.90878595910095,40 L 170.95224071292444,40 L 172.46362393013365,40 L 172.50093230022043,40 L 174.00505812555397,40 L 174.0494267731692,40 L 175.55328380621106,40 L 175.59541251806218,40 L 177.09056068085323,40 L 177.13532355716293,40 L 178.64738771484443,40 L 178.6935483110709,40 L 180.19095432911217,40 L 180.24109305125572,40 L 181.74774552413115,40 L 181.78854819400993,40 L 183.2928711336907,40 L 183.33333333333334,40" fill="none" stroke="none"/>
  </g>
  <!-- 🔓 Public Contributions Chart -->
  <g transform="translate(293.33333333333337, 250)">
    <!-- Chart Background -->
    <rect x="0" y="0" width="213.33333333333334" height="200" fill="#ffffff" stroke="#e2e8f0" stroke-width="1" rx="8" filter="url(#shadow)">
      <animate attributeName="opacity" values="0;1" dur="0.5s" begin="2.3s" fill="freeze"/>
    </rect>
    
    <!-- Chart Title -->
    <text x="106.66666666666667" y="25" text-anchor="middle" fill="#1e293b" font-size="14" font-weight="bold" font-family="Arial, sans-serif">
      🔓 Public Contributions
      <animate attributeName="opacity" values="0;1" dur="0.5s" begin="2.5s" fill="freeze"/>
    </text>
    
    <!-- Y-axis labels -->
    <text x="10" y="45" fill="#64748b" font-size="10" font-family="Arial, sans-serif">3,861
      <animate attributeName="opacity" values="0;1" dur="0.5s" begin="2.6999999999999997s" fill="freeze"/>
    </text>
    <text x="10" y="185" fill="#64748b" font-size="10" font-family="Arial, sans-serif">3,434
      <animate attributeName="opacity" values="0;1" dur="0.5s" begin="2.6999999999999997s" fill="freeze"/>
    </text>
    
    <!-- Chart Line with draw animation that follows the circle -->
    <path d="M 30,160 L 30.032470108836335,160 L 30.064850620242108,160 L 31.553028102935293,160 L 31.583419551382548,160 L 31.618147515469094,160 L 33.10175552920352,160 L 33.129727847025556,160 L 33.16060312159785,160 L 34.651128056971814,160 L 34.67105452552921,160 L 34.71997472261707,160 L 36.19673749265642,160 L 36.22689598778421,160 L 36.2566423347314,160 L 37.74784821057765,160 L 37.782092348539145,160 L 37.81325433488925,160 L 39.2953391923041,160 L 39.325497687431884,160 L 39.36026149049066,160 L 40.841468293085974,160 L 40.87110712311649,160 L 40.89811178868843,160 L 42.39205934590993,160 L 42.42268374767665,160 L 42.45422204323513,160 L 43.94496201244243,160 L 43.973776546111765,160 L 44.002196851086616,160 L 45.48739969908508,160 L 45.51820329571293,40 L 45.5502970953409,40 L 47.041431293242695,40 L 47.06280924017523,40 L 47.09228679483073,40 L 48.58580428438552,40 L 48.60970887885995,40 L 48.65212430248887,40 L 50.13589359159832,40 L 50.16737812869845,40 L 50.19502789577045,40 L 51.67786537160203,40 L 51.71236038236911,40 L 51.746138613691684,40 L 53.23564213835721,40 L 53.250909540525285,40 L 53.29228563395967,40 L 54.78078566740288,40 L 54.81341705161424,40 L 54.850277434548204,40 L 56.32915470394886,40 L 56.35990454211837,40 L 56.39930949208035,40 L 57.87501501243905,40 L 57.907718074594854,40 L 57.94586866052893,40 L 59.43184204643025,40 L 59.4682723616975,40 L 60.974136377183996,40 L 61.05074218031608,40 L 62.52263085013276,40 L 62.560709758122385,40 L 62.59685336161184,40 L 64.07049814106756,40 L 64.11061987047407,40 L 64.13823379857384,40 L 65.6220210071694,40 L 65.65560212414472,40 L 65.69330472292599,40 L 67.1648170835343,40 L 67.1983802810235,40 L 67.23613663826312,40 L 68.71542605584436,40 L 68.74841582977797,40 L 68.78380681485069,40 L 70.26913509925194,40 L 70.31248233615872,40 L 71.85162283735663,40 L 71.89265846055487,40 L 73.36911659933031,40 L 73.4029485891112,40 L 74.92141000333498,40 L 74.9502245370043,40 L 74.99767533623091,40 L 76.45779090367151,40 L 76.49076275811899,40 L 76.52606414576115,40 L 78.00789813037042,40 L 78.0468909321518,40 L 78.0860270898221,40 L 79.55340004913835,40 L 79.58501002264127,40 L 79.62342940086705,40 L 81.10038928525364,40 L 81.13631785490975,40 L 81.18328482801131,40 L 82.64384838260472,40 L 82.68474064991405,40 L 82.72432479473716,40 L 84.1992418577069,40 L 84.23214203420994,40 L 84.2697012771023,40 L 85.74744961887785,40 L 85.78074402407537,40 L 85.81912756332892,40 L 87.2936862365764,40 L 87.33228480966332,40 L 87.37387593693106,40 L 88.84348883201142,40 L 88.8742207506948,40 L 88.9112603284899,40 L 90.39309431309916,40 L 90.4206724022267,40 L 90.45833916203574,40 L 91.93746730424198,40 L 91.97282245034248,40 L 92.01186901058219,40 L 93.48676815406583,40 L 93.52429155798596,40 L 93.5641982535591,40 L 95.03916907498717,40 L 95.06631709644802,40 L 95.10514862285439,40 L 96.58612247213023,40 L 96.6226961432864,40 L 96.65530960801163,40 L 98.12968908639799,40 L 98.16316268645664,40 L 98.2017075010852,40 L 99.67524476362425,40 L 99.71585031915579,40 L 99.75299741386756,40 L 101.22692890510109,40 L 101.25757122635393,40 L 101.29197663969045,40 L 102.78131888898096,40 L 102.8187168564983,40 L 102.8608097293772,40 L 104.32832604458237,40 L 104.36172796669656,40 L 104.39512988881076,40 L 105.87307534493355,40 L 105.91016868118699,40 L 105.94665275491258,40 L 107.41470665470112,40 L 107.45498965948262,40 L 107.49333735976396,40 L 108.96171381030253,40 L 109.00197889559793,40 L 109.04616834835201,40 L 110.52443635522484,40 L 110.55645847690835,40 L 110.59787040931496,40 L 112.06880934636767,40 L 112.09647703292578,40 L 112.13154546724846,40 L 113.61266267241322,40 L 113.64927218254161,40 L 113.68640135776727,40 L 115.16167681045926,40 L 115.19364517368444,40 L 115.23498542814659,40 L 116.7095799403663,40 L 116.7417454179387,40 L 116.77984224541446,40 L 118.25830736663451,40 L 118.28982774270689,40 L 118.3239643637517,40 L 119.80484861559698,66.4168618266979 L 119.83468455997475,66.4168618266979 L 121.35185577119839,66.4168618266979 L 121.38828608646565,66.4168618266979 L 121.42269149980217,66.4168618266979 L 122.9016762861195,66.4168618266979 L 122.9267635666774,66.4168618266979 L 122.96946570208411,66.4168618266979 L 124.45832412524958,66.4168618266979 L 124.49617007991975,66.4168618266979 L 125.99900570225317,66.4168618266979 L 126.03842857170127,66.4168618266979 L 126.08989333581714,66.4168618266979 L 127.54956091610491,66.4168618266979 L 127.5881415697057,66.4168618266979 L 127.61188488880511,66.4168618266979 L 129.09982941817884,66.4168618266979 L 129.13570422937659,66.4168618266979 L 129.17353226456066,66.4168618266979 L 130.64900483159988,66.4168618266979 L 130.68319521110305,66.4168618266979 L 130.72195505956495,66.4168618266979 L 132.19558191953456,66.4168618266979 L 132.226313838218,66.4168618266979 L 132.26494825027711,66.4168618266979 L 133.74368216378886,66.4168618266979 L 133.77618811159743,66.4168618266979 L 133.8081206358504,66.4168618266979 L 135.29138817934867,66.4168618266979 L 135.32851735457433,66.4168618266979 L 135.3695888167448,66.4168618266979 L 136.84271393110325,66.4168618266979 L 136.87914424637052,66.4168618266979 L 136.92367416936074,66.4168618266979 L 138.38154980103724,66.4168618266979 L 138.41889401009624,66.4168618266979 L 138.46182909882242,66.4168618266979 L 139.9369253566533,66.4168618266979 L 139.97256721453158,66.4168618266979 L 140.00930216106275,66.4168618266979 L 141.48608285058822,66.4168618266979 L 141.52781733374485,66.4168618266979 L 141.57200678649895,66.4168618266979 L 143.0348819548009,66.4168618266979 L 143.07254871460995,66.4168618266979 L 143.11894226415592,66.4168618266979 L 144.5802225981938,66.4168618266979 L 144.619663387128,66.4168618266979 L 144.6561116218814,66.4168618266979 L 146.13480969642092,66.4168618266979 L 146.17077410504925,66.4168618266979 L 147.68647591841165,66.4168618266979 L 147.7193940144008,66.4168618266979 L 149.22880608813762,66.4168618266979 L 149.26606069976606,66.4168618266979 L 149.31030391097852,66.4168618266979 L 150.77504270583617,66.4168618266979 L 150.8220813568822,66.4168618266979 L 152.32658349142412,66.4168618266979 L 152.35858769362153,66.4168618266979 L 152.40077016393099,66.4168618266979 L 153.87138655023364,66.4168618266979 L 153.91030767407057,66.4168618266979 L 153.9545688047691,66.4168618266979 L 155.41536531268198,66.4168618266979 L 155.45294247506047,66.4168618266979 L 155.48476748239676,66.4168618266979 L 156.9688414027701,66.4168618266979 L 157.01209904224635,66.4168618266979 L 158.51814225259395,66.4168618266979 L 158.5569558595142,66.4168618266979 L 160.06658296708437,66.4168618266979 L 160.10514570119904,66.4168618266979 L 161.61443233853308,66.4168618266979 L 161.65261876343936,66.4168618266979 L 163.15721049541187,66.4168618266979 L 163.192511883054,66.4168618266979 L 163.22331547968187,66.4168618266979 L 164.71360746173636,66.4168618266979 L 164.7493209975591,66.4168618266979 L 166.2594140117682,66.4168618266979 L 166.29731372489672,66.4168618266979 L 166.33804471683104,66.4168618266979 L 167.80970043332823,66.4168618266979 L 167.85121988265152,66.4168618266979 L 169.3569405422491,66.4168618266979 L 169.40118375346154,66.4168618266979 L 170.90878595910095,66.4168618266979 L 170.95224071292444,66.4168618266979 L 172.46362393013365,66.4168618266979 L 172.50093230022043,66.4168618266979 L 174.00505812555397,66.4168618266979 L 174.0494267731692,66.4168618266979 L 175.55328380621106,66.4168618266979 L 175.59541251806218,66.4168618266979 L 177.09056068085323,66.4168618266979 L 177.13532355716293,66.4168618266979 L 178.64738771484443,66.4168618266979 L 178.6935483110709,66.4168618266979 L 180.19095432911217,66.4168618266979 L 180.24109305125572,66.4168618266979 L 181.74774552413115,66.4168618266979 L 181.78854819400993,66.4168618266979 L 183.2928711336907,66.4168618266979 L 183.33333333333334,66.4168618266979" stroke="#3b82f6" stroke-width="2" fill="none" stroke-dasharray="13700" stroke-dashoffset="13700">
      <animate attributeName="stroke-dashoffset" values="13700;0" dur="3s" begin="3.0999999999999996s" fill="freeze"/>
    </path>
    
    <!-- Glow effect for the line that also follows the circle -->
    <path d="M 30,160 L 30.032470108836335,160 L 30.064850620242108,160 L 31.553028102935293,160 L 31.583419551382548,160 L 31.618147515469094,160 L 33.10175552920352,160 L 33.129727847025556,160 L 33.16060312159785,160 L 34.651128056971814,160 L 34.67105452552921,160 L 34.71997472261707,160 L 36.19673749265642,160 L 36.22689598778421,160 L 36.2566423347314,160 L 37.74784821057765,160 L 37.782092348539145,160 L 37.81325433488925,160 L 39.2953391923041,160 L 39.325497687431884,160 L 39.36026149049066,160 L 40.841468293085974,160 L 40.87110712311649,160 L 40.89811178868843,160 L 42.39205934590993,160 L 42.42268374767665,160 L 42.45422204323513,160 L 43.94496201244243,160 L 43.973776546111765,160 L 44.002196851086616,160 L 45.48739969908508,160 L 45.51820329571293,40 L 45.5502970953409,40 L 47.041431293242695,40 L 47.06280924017523,40 L 47.09228679483073,40 L 48.58580428438552,40 L 48.60970887885995,40 L 48.65212430248887,40 L 50.13589359159832,40 L 50.16737812869845,40 L 50.19502789577045,40 L 51.67786537160203,40 L 51.71236038236911,40 L 51.746138613691684,40 L 53.23564213835721,40 L 53.250909540525285,40 L 53.29228563395967,40 L 54.78078566740288,40 L 54.81341705161424,40 L 54.850277434548204,40 L 56.32915470394886,40 L 56.35990454211837,40 L 56.39930949208035,40 L 57.87501501243905,40 L 57.907718074594854,40 L 57.94586866052893,40 L 59.43184204643025,40 L 59.4682723616975,40 L 60.974136377183996,40 L 61.05074218031608,40 L 62.52263085013276,40 L 62.560709758122385,40 L 62.59685336161184,40 L 64.07049814106756,40 L 64.11061987047407,40 L 64.13823379857384,40 L 65.6220210071694,40 L 65.65560212414472,40 L 65.69330472292599,40 L 67.1648170835343,40 L 67.1983802810235,40 L 67.23613663826312,40 L 68.71542605584436,40 L 68.74841582977797,40 L 68.78380681485069,40 L 70.26913509925194,40 L 70.31248233615872,40 L 71.85162283735663,40 L 71.89265846055487,40 L 73.36911659933031,40 L 73.4029485891112,40 L 74.92141000333498,40 L 74.9502245370043,40 L 74.99767533623091,40 L 76.45779090367151,40 L 76.49076275811899,40 L 76.52606414576115,40 L 78.00789813037042,40 L 78.0468909321518,40 L 78.0860270898221,40 L 79.55340004913835,40 L 79.58501002264127,40 L 79.62342940086705,40 L 81.10038928525364,40 L 81.13631785490975,40 L 81.18328482801131,40 L 82.64384838260472,40 L 82.68474064991405,40 L 82.72432479473716,40 L 84.1992418577069,40 L 84.23214203420994,40 L 84.2697012771023,40 L 85.74744961887785,40 L 85.78074402407537,40 L 85.81912756332892,40 L 87.2936862365764,40 L 87.33228480966332,40 L 87.37387593693106,40 L 88.84348883201142,40 L 88.8742207506948,40 L 88.9112603284899,40 L 90.39309431309916,40 L 90.4206724022267,40 L 90.45833916203574,40 L 91.93746730424198,40 L 91.97282245034248,40 L 92.01186901058219,40 L 93.48676815406583,40 L 93.52429155798596,40 L 93.5641982535591,40 L 95.03916907498717,40 L 95.06631709644802,40 L 95.10514862285439,40 L 96.58612247213023,40 L 96.6226961432864,40 L 96.65530960801163,40 L 98.12968908639799,40 L 98.16316268645664,40 L 98.2017075010852,40 L 99.67524476362425,40 L 99.71585031915579,40 L 99.75299741386756,40 L 101.22692890510109,40 L 101.25757122635393,40 L 101.29197663969045,40 L 102.78131888898096,40 L 102.8187168564983,40 L 102.8608097293772,40 L 104.32832604458237,40 L 104.36172796669656,40 L 104.39512988881076,40 L 105.87307534493355,40 L 105.91016868118699,40 L 105.94665275491258,40 L 107.41470665470112,40 L 107.45498965948262,40 L 107.49333735976396,40 L 108.96171381030253,40 L 109.00197889559793,40 L 109.04616834835201,40 L 110.52443635522484,40 L 110.55645847690835,40 L 110.59787040931496,40 L 112.06880934636767,40 L 112.09647703292578,40 L 112.13154546724846,40 L 113.61266267241322,40 L 113.64927218254161,40 L 113.68640135776727,40 L 115.16167681045926,40 L 115.19364517368444,40 L 115.23498542814659,40 L 116.7095799403663,40 L 116.7417454179387,40 L 116.77984224541446,40 L 118.25830736663451,40 L 118.28982774270689,40 L 118.3239643637517,40 L 119.80484861559698,66.4168618266979 L 119.83468455997475,66.4168618266979 L 121.35185577119839,66.4168618266979 L 121.38828608646565,66.4168618266979 L 121.42269149980217,66.4168618266979 L 122.9016762861195,66.4168618266979 L 122.9267635666774,66.4168618266979 L 122.96946570208411,66.4168618266979 L 124.45832412524958,66.4168618266979 L 124.49617007991975,66.4168618266979 L 125.99900570225317,66.4168618266979 L 126.03842857170127,66.4168618266979 L 126.08989333581714,66.4168618266979 L 127.54956091610491,66.4168618266979 L 127.5881415697057,66.4168618266979 L 127.61188488880511,66.4168618266979 L 129.09982941817884,66.4168618266979 L 129.13570422937659,66.4168618266979 L 129.17353226456066,66.4168618266979 L 130.64900483159988,66.4168618266979 L 130.68319521110305,66.4168618266979 L 130.72195505956495,66.4168618266979 L 132.19558191953456,66.4168618266979 L 132.226313838218,66.4168618266979 L 132.26494825027711,66.4168618266979 L 133.74368216378886,66.4168618266979 L 133.77618811159743,66.4168618266979 L 133.8081206358504,66.4168618266979 L 135.29138817934867,66.4168618266979 L 135.32851735457433,66.4168618266979 L 135.3695888167448,66.4168618266979 L 136.84271393110325,66.4168618266979 L 136.87914424637052,66.4168618266979 L 136.92367416936074,66.4168618266979 L 138.38154980103724,66.4168618266979 L 138.41889401009624,66.4168618266979 L 138.46182909882242,66.4168618266979 L 139.9369253566533,66.4168618266979 L 139.97256721453158,66.4168618266979 L 140.00930216106275,66.4168618266979 L 141.48608285058822,66.4168618266979 L 141.52781733374485,66.4168618266979 L 141.57200678649895,66.4168618266979 L 143.0348819548009,66.4168618266979 L 143.07254871460995,66.4168618266979 L 143.11894226415592,66.4168618266979 L 144.5802225981938,66.4168618266979 L 144.619663387128,66.4168618266979 L 144.6561116218814,66.4168618266979 L 146.13480969642092,66.4168618266979 L 146.17077410504925,66.4168618266979 L 147.68647591841165,66.4168618266979 L 147.7193940144008,66.4168618266979 L 149.22880608813762,66.4168618266979 L 149.26606069976606,66.4168618266979 L 149.31030391097852,66.4168618266979 L 150.77504270583617,66.4168618266979 L 150.8220813568822,66.4168618266979 L 152.32658349142412,66.4168618266979 L 152.35858769362153,66.4168618266979 L 152.40077016393099,66.4168618266979 L 153.87138655023364,66.4168618266979 L 153.91030767407057,66.4168618266979 L 153.9545688047691,66.4168618266979 L 155.41536531268198,66.4168618266979 L 155.45294247506047,66.4168618266979 L 155.48476748239676,66.4168618266979 L 156.9688414027701,66.4168618266979 L 157.01209904224635,66.4168618266979 L 158.51814225259395,66.4168618266979 L 158.5569558595142,66.4168618266979 L 160.06658296708437,66.4168618266979 L 160.10514570119904,66.4168618266979 L 161.61443233853308,66.4168618266979 L 161.65261876343936,66.4168618266979 L 163.15721049541187,66.4168618266979 L 163.192511883054,66.4168618266979 L 163.22331547968187,66.4168618266979 L 164.71360746173636,66.4168618266979 L 164.7493209975591,66.4168618266979 L 166.2594140117682,66.4168618266979 L 166.29731372489672,66.4168618266979 L 166.33804471683104,66.4168618266979 L 167.80970043332823,66.4168618266979 L 167.85121988265152,66.4168618266979 L 169.3569405422491,66.4168618266979 L 169.40118375346154,66.4168618266979 L 170.90878595910095,66.4168618266979 L 170.95224071292444,66.4168618266979 L 172.46362393013365,66.4168618266979 L 172.50093230022043,66.4168618266979 L 174.00505812555397,66.4168618266979 L 174.0494267731692,66.4168618266979 L 175.55328380621106,66.4168618266979 L 175.59541251806218,66.4168618266979 L 177.09056068085323,66.4168618266979 L 177.13532355716293,66.4168618266979 L 178.64738771484443,66.4168618266979 L 178.6935483110709,66.4168618266979 L 180.19095432911217,66.4168618266979 L 180.24109305125572,66.4168618266979 L 181.74774552413115,66.4168618266979 L 181.78854819400993,66.4168618266979 L 183.2928711336907,66.4168618266979 L 183.33333333333334,66.4168618266979" stroke="#3b82f6" stroke-width="4" fill="none" opacity="0.4" stroke-dasharray="13700" stroke-dashoffset="13700">
      <animate attributeName="stroke-dashoffset" values="13700;0" dur="3s" begin="3.0999999999999996s" fill="freeze"/>
    </path>
    
    <!-- Animated circle that moves along the path and draws the line -->
    <circle r="5" fill="#3b82f6" opacity="0" filter="url(#trailGlow)">
      <animate attributeName="opacity" values="0;1;1;1" dur="3.2s" begin="2.9s" fill="freeze"/>
      <animate attributeName="r" values="5;6;5" dur="1s" begin="2.9s" repeatCount="3"/>
      <animateMotion dur="3s" begin="2.9s" fill="freeze">
        <mpath href="#path_publicContributions_293.33333333333337"/>
      </animateMotion>
    </circle>
    
    <!-- Small trail dots that fade out -->
    <circle r="2" fill="#3b82f6" opacity="0">
      <animate attributeName="opacity" values="0;0.6;0" dur="0.8s" begin="3.3s" fill="freeze"/>
      <animateMotion dur="3s" begin="2.9s" fill="freeze">
        <mpath href="#path_publicContributions_293.33333333333337"/>
      </animateMotion>
    </circle>
    
    <!-- Hidden path for motion animation -->
    <path id="path_publicContributions_293.33333333333337" d="M 30,160 L 30.032470108836335,160 L 30.064850620242108,160 L 31.553028102935293,160 L 31.583419551382548,160 L 31.618147515469094,160 L 33.10175552920352,160 L 33.129727847025556,160 L 33.16060312159785,160 L 34.651128056971814,160 L 34.67105452552921,160 L 34.71997472261707,160 L 36.19673749265642,160 L 36.22689598778421,160 L 36.2566423347314,160 L 37.74784821057765,160 L 37.782092348539145,160 L 37.81325433488925,160 L 39.2953391923041,160 L 39.325497687431884,160 L 39.36026149049066,160 L 40.841468293085974,160 L 40.87110712311649,160 L 40.89811178868843,160 L 42.39205934590993,160 L 42.42268374767665,160 L 42.45422204323513,160 L 43.94496201244243,160 L 43.973776546111765,160 L 44.002196851086616,160 L 45.48739969908508,160 L 45.51820329571293,40 L 45.5502970953409,40 L 47.041431293242695,40 L 47.06280924017523,40 L 47.09228679483073,40 L 48.58580428438552,40 L 48.60970887885995,40 L 48.65212430248887,40 L 50.13589359159832,40 L 50.16737812869845,40 L 50.19502789577045,40 L 51.67786537160203,40 L 51.71236038236911,40 L 51.746138613691684,40 L 53.23564213835721,40 L 53.250909540525285,40 L 53.29228563395967,40 L 54.78078566740288,40 L 54.81341705161424,40 L 54.850277434548204,40 L 56.32915470394886,40 L 56.35990454211837,40 L 56.39930949208035,40 L 57.87501501243905,40 L 57.907718074594854,40 L 57.94586866052893,40 L 59.43184204643025,40 L 59.4682723616975,40 L 60.974136377183996,40 L 61.05074218031608,40 L 62.52263085013276,40 L 62.560709758122385,40 L 62.59685336161184,40 L 64.07049814106756,40 L 64.11061987047407,40 L 64.13823379857384,40 L 65.6220210071694,40 L 65.65560212414472,40 L 65.69330472292599,40 L 67.1648170835343,40 L 67.1983802810235,40 L 67.23613663826312,40 L 68.71542605584436,40 L 68.74841582977797,40 L 68.78380681485069,40 L 70.26913509925194,40 L 70.31248233615872,40 L 71.85162283735663,40 L 71.89265846055487,40 L 73.36911659933031,40 L 73.4029485891112,40 L 74.92141000333498,40 L 74.9502245370043,40 L 74.99767533623091,40 L 76.45779090367151,40 L 76.49076275811899,40 L 76.52606414576115,40 L 78.00789813037042,40 L 78.0468909321518,40 L 78.0860270898221,40 L 79.55340004913835,40 L 79.58501002264127,40 L 79.62342940086705,40 L 81.10038928525364,40 L 81.13631785490975,40 L 81.18328482801131,40 L 82.64384838260472,40 L 82.68474064991405,40 L 82.72432479473716,40 L 84.1992418577069,40 L 84.23214203420994,40 L 84.2697012771023,40 L 85.74744961887785,40 L 85.78074402407537,40 L 85.81912756332892,40 L 87.2936862365764,40 L 87.33228480966332,40 L 87.37387593693106,40 L 88.84348883201142,40 L 88.8742207506948,40 L 88.9112603284899,40 L 90.39309431309916,40 L 90.4206724022267,40 L 90.45833916203574,40 L 91.93746730424198,40 L 91.97282245034248,40 L 92.01186901058219,40 L 93.48676815406583,40 L 93.52429155798596,40 L 93.5641982535591,40 L 95.03916907498717,40 L 95.06631709644802,40 L 95.10514862285439,40 L 96.58612247213023,40 L 96.6226961432864,40 L 96.65530960801163,40 L 98.12968908639799,40 L 98.16316268645664,40 L 98.2017075010852,40 L 99.67524476362425,40 L 99.71585031915579,40 L 99.75299741386756,40 L 101.22692890510109,40 L 101.25757122635393,40 L 101.29197663969045,40 L 102.78131888898096,40 L 102.8187168564983,40 L 102.8608097293772,40 L 104.32832604458237,40 L 104.36172796669656,40 L 104.39512988881076,40 L 105.87307534493355,40 L 105.91016868118699,40 L 105.94665275491258,40 L 107.41470665470112,40 L 107.45498965948262,40 L 107.49333735976396,40 L 108.96171381030253,40 L 109.00197889559793,40 L 109.04616834835201,40 L 110.52443635522484,40 L 110.55645847690835,40 L 110.59787040931496,40 L 112.06880934636767,40 L 112.09647703292578,40 L 112.13154546724846,40 L 113.61266267241322,40 L 113.64927218254161,40 L 113.68640135776727,40 L 115.16167681045926,40 L 115.19364517368444,40 L 115.23498542814659,40 L 116.7095799403663,40 L 116.7417454179387,40 L 116.77984224541446,40 L 118.25830736663451,40 L 118.28982774270689,40 L 118.3239643637517,40 L 119.80484861559698,66.4168618266979 L 119.83468455997475,66.4168618266979 L 121.35185577119839,66.4168618266979 L 121.38828608646565,66.4168618266979 L 121.42269149980217,66.4168618266979 L 122.9016762861195,66.4168618266979 L 122.9267635666774,66.4168618266979 L 122.96946570208411,66.4168618266979 L 124.45832412524958,66.4168618266979 L 124.49617007991975,66.4168618266979 L 125.99900570225317,66.4168618266979 L 126.03842857170127,66.4168618266979 L 126.08989333581714,66.4168618266979 L 127.54956091610491,66.4168618266979 L 127.5881415697057,66.4168618266979 L 127.61188488880511,66.4168618266979 L 129.09982941817884,66.4168618266979 L 129.13570422937659,66.4168618266979 L 129.17353226456066,66.4168618266979 L 130.64900483159988,66.4168618266979 L 130.68319521110305,66.4168618266979 L 130.72195505956495,66.4168618266979 L 132.19558191953456,66.4168618266979 L 132.226313838218,66.4168618266979 L 132.26494825027711,66.4168618266979 L 133.74368216378886,66.4168618266979 L 133.77618811159743,66.4168618266979 L 133.8081206358504,66.4168618266979 L 135.29138817934867,66.4168618266979 L 135.32851735457433,66.4168618266979 L 135.3695888167448,66.4168618266979 L 136.84271393110325,66.4168618266979 L 136.87914424637052,66.4168618266979 L 136.92367416936074,66.4168618266979 L 138.38154980103724,66.4168618266979 L 138.41889401009624,66.4168618266979 L 138.46182909882242,66.4168618266979 L 139.9369253566533,66.4168618266979 L 139.97256721453158,66.4168618266979 L 140.00930216106275,66.4168618266979 L 141.48608285058822,66.4168618266979 L 141.52781733374485,66.4168618266979 L 141.57200678649895,66.4168618266979 L 143.0348819548009,66.4168618266979 L 143.07254871460995,66.4168618266979 L 143.11894226415592,66.4168618266979 L 144.5802225981938,66.4168618266979 L 144.619663387128,66.4168618266979 L 144.6561116218814,66.4168618266979 L 146.13480969642092,66.4168618266979 L 146.17077410504925,66.4168618266979 L 147.68647591841165,66.4168618266979 L 147.7193940144008,66.4168618266979 L 149.22880608813762,66.4168618266979 L 149.26606069976606,66.4168618266979 L 149.31030391097852,66.4168618266979 L 150.77504270583617,66.4168618266979 L 150.8220813568822,66.4168618266979 L 152.32658349142412,66.4168618266979 L 152.35858769362153,66.4168618266979 L 152.40077016393099,66.4168618266979 L 153.87138655023364,66.4168618266979 L 153.91030767407057,66.4168618266979 L 153.9545688047691,66.4168618266979 L 155.41536531268198,66.4168618266979 L 155.45294247506047,66.4168618266979 L 155.48476748239676,66.4168618266979 L 156.9688414027701,66.4168618266979 L 157.01209904224635,66.4168618266979 L 158.51814225259395,66.4168618266979 L 158.5569558595142,66.4168618266979 L 160.06658296708437,66.4168618266979 L 160.10514570119904,66.4168618266979 L 161.61443233853308,66.4168618266979 L 161.65261876343936,66.4168618266979 L 163.15721049541187,66.4168618266979 L 163.192511883054,66.4168618266979 L 163.22331547968187,66.4168618266979 L 164.71360746173636,66.4168618266979 L 164.7493209975591,66.4168618266979 L 166.2594140117682,66.4168618266979 L 166.29731372489672,66.4168618266979 L 166.33804471683104,66.4168618266979 L 167.80970043332823,66.4168618266979 L 167.85121988265152,66.4168618266979 L 169.3569405422491,66.4168618266979 L 169.40118375346154,66.4168618266979 L 170.90878595910095,66.4168618266979 L 170.95224071292444,66.4168618266979 L 172.46362393013365,66.4168618266979 L 172.50093230022043,66.4168618266979 L 174.00505812555397,66.4168618266979 L 174.0494267731692,66.4168618266979 L 175.55328380621106,66.4168618266979 L 175.59541251806218,66.4168618266979 L 177.09056068085323,66.4168618266979 L 177.13532355716293,66.4168618266979 L 178.64738771484443,66.4168618266979 L 178.6935483110709,66.4168618266979 L 180.19095432911217,66.4168618266979 L 180.24109305125572,66.4168618266979 L 181.74774552413115,66.4168618266979 L 181.78854819400993,66.4168618266979 L 183.2928711336907,66.4168618266979 L 183.33333333333334,66.4168618266979" fill="none" stroke="none"/>
  </g>
  <!-- 📊 Total Contributions Chart -->
  <g transform="translate(526.6666666666667, 250)">
    <!-- Chart Background -->
    <rect x="0" y="0" width="213.33333333333334" height="200" fill="#ffffff" stroke="#e2e8f0" stroke-width="1" rx="8" filter="url(#shadow)">
      <animate attributeName="opacity" values="0;1" dur="0.5s" begin="2.8s" fill="freeze"/>
    </rect>
    
    <!-- Chart Title -->
    <text x="106.66666666666667" y="25" text-anchor="middle" fill="#1e293b" font-size="14" font-weight="bold" font-family="Arial, sans-serif">
      📊 Total Contributions
      <animate attributeName="opacity" values="0;1" dur="0.5s" begin="3s" fill="freeze"/>
    </text>
    
    <!-- Y-axis labels -->
    <text x="10" y="45" fill="#64748b" font-size="10" font-family="Arial, sans-serif">5,314
      <animate attributeName="opacity" values="0;1" dur="0.5s" begin="3.1999999999999997s" fill="freeze"/>
    </text>
    <text x="10" y="185" fill="#64748b" font-size="10" font-family="Arial, sans-serif">4,917
      <animate attributeName="opacity" values="0;1" dur="0.5s" begin="3.1999999999999997s" fill="freeze"/>
    </text>
    
    <!-- Chart Line with draw animation that follows the circle -->
    <path d="M 30,160 L 30.032470108836335,160 L 30.064850620242108,160 L 31.553028102935293,160 L 31.583419551382548,160 L 31.618147515469094,160 L 33.10175552920352,160 L 33.129727847025556,160 L 33.16060312159785,160 L 34.651128056971814,160 L 34.67105452552921,160 L 34.71997472261707,160 L 36.19673749265642,160 L 36.22689598778421,160 L 36.2566423347314,160 L 37.74784821057765,160 L 37.782092348539145,160 L 37.81325433488925,160 L 39.2953391923041,160 L 39.325497687431884,160 L 39.36026149049066,160 L 40.841468293085974,160 L 40.87110712311649,160 L 40.89811178868843,160 L 42.39205934590993,160 L 42.42268374767665,160 L 42.45422204323513,160 L 43.94496201244243,160 L 43.973776546111765,160 L 44.002196851086616,160 L 45.48739969908508,160 L 45.51820329571293,40 L 45.5502970953409,40 L 47.041431293242695,40 L 47.06280924017523,40 L 47.09228679483073,40 L 48.58580428438552,40 L 48.60970887885995,40 L 48.65212430248887,40 L 50.13589359159832,40 L 50.16737812869845,40 L 50.19502789577045,40 L 51.67786537160203,40 L 51.71236038236911,40 L 51.746138613691684,40 L 53.23564213835721,40 L 53.250909540525285,40 L 53.29228563395967,40 L 54.78078566740288,40 L 54.81341705161424,40 L 54.850277434548204,40 L 56.32915470394886,40 L 56.35990454211837,40 L 56.39930949208035,40 L 57.87501501243905,40 L 57.907718074594854,40 L 57.94586866052893,40 L 59.43184204643025,40 L 59.4682723616975,40 L 60.974136377183996,40 L 61.05074218031608,40 L 62.52263085013276,40 L 62.560709758122385,40 L 62.59685336161184,40 L 64.07049814106756,40 L 64.11061987047407,40 L 64.13823379857384,40 L 65.6220210071694,40 L 65.65560212414472,40 L 65.69330472292599,40 L 67.1648170835343,40 L 67.1983802810235,40 L 67.23613663826312,40 L 68.71542605584436,40 L 68.74841582977797,40 L 68.78380681485069,40 L 70.26913509925194,40 L 70.31248233615872,40 L 71.85162283735663,40 L 71.89265846055487,40 L 73.36911659933031,40 L 73.4029485891112,40 L 74.92141000333498,40 L 74.9502245370043,40 L 74.99767533623091,40 L 76.45779090367151,40 L 76.49076275811899,40 L 76.52606414576115,40 L 78.00789813037042,40 L 78.0468909321518,40 L 78.0860270898221,40 L 79.55340004913835,40 L 79.58501002264127,40 L 79.62342940086705,40 L 81.10038928525364,40 L 81.13631785490975,40 L 81.18328482801131,40 L 82.64384838260472,40 L 82.68474064991405,40 L 82.72432479473716,40 L 84.1992418577069,40 L 84.23214203420994,40 L 84.2697012771023,40 L 85.74744961887785,40 L 85.78074402407537,40 L 85.81912756332892,40 L 87.2936862365764,40 L 87.33228480966332,40 L 87.37387593693106,40 L 88.84348883201142,40 L 88.8742207506948,40 L 88.9112603284899,40 L 90.39309431309916,40 L 90.4206724022267,40 L 90.45833916203574,40 L 91.93746730424198,40 L 91.97282245034248,40 L 92.01186901058219,40 L 93.48676815406583,40 L 93.52429155798596,40 L 93.5641982535591,40 L 95.03916907498717,40 L 95.06631709644802,40 L 95.10514862285439,40 L 96.58612247213023,40 L 96.6226961432864,40 L 96.65530960801163,40 L 98.12968908639799,40 L 98.16316268645664,40 L 98.2017075010852,40 L 99.67524476362425,40 L 99.71585031915579,40 L 99.75299741386756,40 L 101.22692890510109,40 L 101.25757122635393,40 L 101.29197663969045,40 L 102.78131888898096,40 L 102.8187168564983,40 L 102.8608097293772,40 L 104.32832604458237,40 L 104.36172796669656,40 L 104.39512988881076,40 L 105.87307534493355,40 L 105.91016868118699,40 L 105.94665275491258,40 L 107.41470665470112,40 L 107.45498965948262,40 L 107.49333735976396,40 L 108.96171381030253,40 L 109.00197889559793,40 L 109.04616834835201,40 L 110.52443635522484,40 L 110.55645847690835,40 L 110.59787040931496,40 L 112.06880934636767,40 L 112.09647703292578,40 L 112.13154546724846,40 L 113.61266267241322,40 L 113.64927218254161,40 L 113.68640135776727,40 L 115.16167681045926,40 L 115.19364517368444,40 L 115.23498542814659,40 L 116.7095799403663,40 L 116.7417454179387,40 L 116.77984224541446,40 L 118.25830736663451,40 L 118.28982774270689,40 L 118.3239643637517,40 L 119.80484861559698,72.04030226700252 L 119.83468455997475,72.04030226700252 L 121.35185577119839,72.04030226700252 L 121.38828608646565,72.04030226700252 L 121.42269149980217,72.04030226700252 L 122.9016762861195,72.04030226700252 L 122.9267635666774,72.04030226700252 L 122.96946570208411,72.04030226700252 L 124.45832412524958,72.04030226700252 L 124.49617007991975,72.04030226700252 L 125.99900570225317,72.04030226700252 L 126.03842857170127,72.04030226700252 L 126.08989333581714,72.04030226700252 L 127.54956091610491,72.04030226700252 L 127.5881415697057,72.04030226700252 L 127.61188488880511,72.04030226700252 L 129.09982941817884,72.04030226700252 L 129.13570422937659,72.04030226700252 L 129.17353226456066,72.04030226700252 L 130.64900483159988,72.04030226700252 L 130.68319521110305,72.04030226700252 L 130.72195505956495,72.04030226700252 L 132.19558191953456,72.04030226700252 L 132.226313838218,72.04030226700252 L 132.26494825027711,72.04030226700252 L 133.74368216378886,72.04030226700252 L 133.77618811159743,72.04030226700252 L 133.8081206358504,72.04030226700252 L 135.29138817934867,72.04030226700252 L 135.32851735457433,72.04030226700252 L 135.3695888167448,72.04030226700252 L 136.84271393110325,72.04030226700252 L 136.87914424637052,72.04030226700252 L 136.92367416936074,72.04030226700252 L 138.38154980103724,72.04030226700252 L 138.41889401009624,72.04030226700252 L 138.46182909882242,72.04030226700252 L 139.9369253566533,72.04030226700252 L 139.97256721453158,72.04030226700252 L 140.00930216106275,72.04030226700252 L 141.48608285058822,72.04030226700252 L 141.52781733374485,72.04030226700252 L 141.57200678649895,72.04030226700252 L 143.0348819548009,72.04030226700252 L 143.07254871460995,72.04030226700252 L 143.11894226415592,72.04030226700252 L 144.5802225981938,72.04030226700252 L 144.619663387128,72.04030226700252 L 144.6561116218814,72.04030226700252 L 146.13480969642092,72.04030226700252 L 146.17077410504925,72.04030226700252 L 147.68647591841165,72.04030226700252 L 147.7193940144008,72.04030226700252 L 149.22880608813762,72.04030226700252 L 149.26606069976606,72.04030226700252 L 149.31030391097852,72.04030226700252 L 150.77504270583617,72.04030226700252 L 150.8220813568822,72.04030226700252 L 152.32658349142412,72.04030226700252 L 152.35858769362153,72.04030226700252 L 152.40077016393099,72.04030226700252 L 153.87138655023364,72.04030226700252 L 153.91030767407057,72.04030226700252 L 153.9545688047691,72.04030226700252 L 155.41536531268198,72.04030226700252 L 155.45294247506047,72.04030226700252 L 155.48476748239676,72.04030226700252 L 156.9688414027701,72.04030226700252 L 157.01209904224635,72.04030226700252 L 158.51814225259395,72.04030226700252 L 158.5569558595142,72.04030226700252 L 160.06658296708437,72.04030226700252 L 160.10514570119904,72.04030226700252 L 161.61443233853308,72.04030226700252 L 161.65261876343936,72.04030226700252 L 163.15721049541187,72.04030226700252 L 163.192511883054,72.04030226700252 L 163.22331547968187,72.04030226700252 L 164.71360746173636,72.04030226700252 L 164.7493209975591,72.04030226700252 L 166.2594140117682,72.04030226700252 L 166.29731372489672,72.04030226700252 L 166.33804471683104,72.04030226700252 L 167.80970043332823,72.04030226700252 L 167.85121988265152,72.04030226700252 L 169.3569405422491,72.04030226700252 L 169.40118375346154,72.04030226700252 L 170.90878595910095,72.04030226700252 L 170.95224071292444,72.04030226700252 L 172.46362393013365,72.04030226700252 L 172.50093230022043,72.04030226700252 L 174.00505812555397,72.04030226700252 L 174.0494267731692,72.04030226700252 L 175.55328380621106,72.04030226700252 L 175.59541251806218,72.04030226700252 L 177.09056068085323,72.04030226700252 L 177.13532355716293,72.04030226700252 L 178.64738771484443,72.04030226700252 L 178.6935483110709,72.04030226700252 L 180.19095432911217,72.04030226700252 L 180.24109305125572,72.04030226700252 L 181.74774552413115,72.04030226700252 L 181.78854819400993,72.04030226700252 L 183.2928711336907,72.04030226700252 L 183.33333333333334,72.04030226700252" stroke="#f59e0b" stroke-width="2" fill="none" stroke-dasharray="13700" stroke-dashoffset="13700">
      <animate attributeName="stroke-dashoffset" values="13700;0" dur="3s" begin="3.5999999999999996s" fill="freeze"/>
    </path>
    
    <!-- Glow effect for the line that also follows the circle -->
    <path d="M 30,160 L 30.032470108836335,160 L 30.064850620242108,160 L 31.553028102935293,160 L 31.583419551382548,160 L 31.618147515469094,160 L 33.10175552920352,160 L 33.129727847025556,160 L 33.16060312159785,160 L 34.651128056971814,160 L 34.67105452552921,160 L 34.71997472261707,160 L 36.19673749265642,160 L 36.22689598778421,160 L 36.2566423347314,160 L 37.74784821057765,160 L 37.782092348539145,160 L 37.81325433488925,160 L 39.2953391923041,160 L 39.325497687431884,160 L 39.36026149049066,160 L 40.841468293085974,160 L 40.87110712311649,160 L 40.89811178868843,160 L 42.39205934590993,160 L 42.42268374767665,160 L 42.45422204323513,160 L 43.94496201244243,160 L 43.973776546111765,160 L 44.002196851086616,160 L 45.48739969908508,160 L 45.51820329571293,40 L 45.5502970953409,40 L 47.041431293242695,40 L 47.06280924017523,40 L 47.09228679483073,40 L 48.58580428438552,40 L 48.60970887885995,40 L 48.65212430248887,40 L 50.13589359159832,40 L 50.16737812869845,40 L 50.19502789577045,40 L 51.67786537160203,40 L 51.71236038236911,40 L 51.746138613691684,40 L 53.23564213835721,40 L 53.250909540525285,40 L 53.29228563395967,40 L 54.78078566740288,40 L 54.81341705161424,40 L 54.850277434548204,40 L 56.32915470394886,40 L 56.35990454211837,40 L 56.39930949208035,40 L 57.87501501243905,40 L 57.907718074594854,40 L 57.94586866052893,40 L 59.43184204643025,40 L 59.4682723616975,40 L 60.974136377183996,40 L 61.05074218031608,40 L 62.52263085013276,40 L 62.560709758122385,40 L 62.59685336161184,40 L 64.07049814106756,40 L 64.11061987047407,40 L 64.13823379857384,40 L 65.6220210071694,40 L 65.65560212414472,40 L 65.69330472292599,40 L 67.1648170835343,40 L 67.1983802810235,40 L 67.23613663826312,40 L 68.71542605584436,40 L 68.74841582977797,40 L 68.78380681485069,40 L 70.26913509925194,40 L 70.31248233615872,40 L 71.85162283735663,40 L 71.89265846055487,40 L 73.36911659933031,40 L 73.4029485891112,40 L 74.92141000333498,40 L 74.9502245370043,40 L 74.99767533623091,40 L 76.45779090367151,40 L 76.49076275811899,40 L 76.52606414576115,40 L 78.00789813037042,40 L 78.0468909321518,40 L 78.0860270898221,40 L 79.55340004913835,40 L 79.58501002264127,40 L 79.62342940086705,40 L 81.10038928525364,40 L 81.13631785490975,40 L 81.18328482801131,40 L 82.64384838260472,40 L 82.68474064991405,40 L 82.72432479473716,40 L 84.1992418577069,40 L 84.23214203420994,40 L 84.2697012771023,40 L 85.74744961887785,40 L 85.78074402407537,40 L 85.81912756332892,40 L 87.2936862365764,40 L 87.33228480966332,40 L 87.37387593693106,40 L 88.84348883201142,40 L 88.8742207506948,40 L 88.9112603284899,40 L 90.39309431309916,40 L 90.4206724022267,40 L 90.45833916203574,40 L 91.93746730424198,40 L 91.97282245034248,40 L 92.01186901058219,40 L 93.48676815406583,40 L 93.52429155798596,40 L 93.5641982535591,40 L 95.03916907498717,40 L 95.06631709644802,40 L 95.10514862285439,40 L 96.58612247213023,40 L 96.6226961432864,40 L 96.65530960801163,40 L 98.12968908639799,40 L 98.16316268645664,40 L 98.2017075010852,40 L 99.67524476362425,40 L 99.71585031915579,40 L 99.75299741386756,40 L 101.22692890510109,40 L 101.25757122635393,40 L 101.29197663969045,40 L 102.78131888898096,40 L 102.8187168564983,40 L 102.8608097293772,40 L 104.32832604458237,40 L 104.36172796669656,40 L 104.39512988881076,40 L 105.87307534493355,40 L 105.91016868118699,40 L 105.94665275491258,40 L 107.41470665470112,40 L 107.45498965948262,40 L 107.49333735976396,40 L 108.96171381030253,40 L 109.00197889559793,40 L 109.04616834835201,40 L 110.52443635522484,40 L 110.55645847690835,40 L 110.59787040931496,40 L 112.06880934636767,40 L 112.09647703292578,40 L 112.13154546724846,40 L 113.61266267241322,40 L 113.64927218254161,40 L 113.68640135776727,40 L 115.16167681045926,40 L 115.19364517368444,40 L 115.23498542814659,40 L 116.7095799403663,40 L 116.7417454179387,40 L 116.77984224541446,40 L 118.25830736663451,40 L 118.28982774270689,40 L 118.3239643637517,40 L 119.80484861559698,72.04030226700252 L 119.83468455997475,72.04030226700252 L 121.35185577119839,72.04030226700252 L 121.38828608646565,72.04030226700252 L 121.42269149980217,72.04030226700252 L 122.9016762861195,72.04030226700252 L 122.9267635666774,72.04030226700252 L 122.96946570208411,72.04030226700252 L 124.45832412524958,72.04030226700252 L 124.49617007991975,72.04030226700252 L 125.99900570225317,72.04030226700252 L 126.03842857170127,72.04030226700252 L 126.08989333581714,72.04030226700252 L 127.54956091610491,72.04030226700252 L 127.5881415697057,72.04030226700252 L 127.61188488880511,72.04030226700252 L 129.09982941817884,72.04030226700252 L 129.13570422937659,72.04030226700252 L 129.17353226456066,72.04030226700252 L 130.64900483159988,72.04030226700252 L 130.68319521110305,72.04030226700252 L 130.72195505956495,72.04030226700252 L 132.19558191953456,72.04030226700252 L 132.226313838218,72.04030226700252 L 132.26494825027711,72.04030226700252 L 133.74368216378886,72.04030226700252 L 133.77618811159743,72.04030226700252 L 133.8081206358504,72.04030226700252 L 135.29138817934867,72.04030226700252 L 135.32851735457433,72.04030226700252 L 135.3695888167448,72.04030226700252 L 136.84271393110325,72.04030226700252 L 136.87914424637052,72.04030226700252 L 136.92367416936074,72.04030226700252 L 138.38154980103724,72.04030226700252 L 138.41889401009624,72.04030226700252 L 138.46182909882242,72.04030226700252 L 139.9369253566533,72.04030226700252 L 139.97256721453158,72.04030226700252 L 140.00930216106275,72.04030226700252 L 141.48608285058822,72.04030226700252 L 141.52781733374485,72.04030226700252 L 141.57200678649895,72.04030226700252 L 143.0348819548009,72.04030226700252 L 143.07254871460995,72.04030226700252 L 143.11894226415592,72.04030226700252 L 144.5802225981938,72.04030226700252 L 144.619663387128,72.04030226700252 L 144.6561116218814,72.04030226700252 L 146.13480969642092,72.04030226700252 L 146.17077410504925,72.04030226700252 L 147.68647591841165,72.04030226700252 L 147.7193940144008,72.04030226700252 L 149.22880608813762,72.04030226700252 L 149.26606069976606,72.04030226700252 L 149.31030391097852,72.04030226700252 L 150.77504270583617,72.04030226700252 L 150.8220813568822,72.04030226700252 L 152.32658349142412,72.04030226700252 L 152.35858769362153,72.04030226700252 L 152.40077016393099,72.04030226700252 L 153.87138655023364,72.04030226700252 L 153.91030767407057,72.04030226700252 L 153.9545688047691,72.04030226700252 L 155.41536531268198,72.04030226700252 L 155.45294247506047,72.04030226700252 L 155.48476748239676,72.04030226700252 L 156.9688414027701,72.04030226700252 L 157.01209904224635,72.04030226700252 L 158.51814225259395,72.04030226700252 L 158.5569558595142,72.04030226700252 L 160.06658296708437,72.04030226700252 L 160.10514570119904,72.04030226700252 L 161.61443233853308,72.04030226700252 L 161.65261876343936,72.04030226700252 L 163.15721049541187,72.04030226700252 L 163.192511883054,72.04030226700252 L 163.22331547968187,72.04030226700252 L 164.71360746173636,72.04030226700252 L 164.7493209975591,72.04030226700252 L 166.2594140117682,72.04030226700252 L 166.29731372489672,72.04030226700252 L 166.33804471683104,72.04030226700252 L 167.80970043332823,72.04030226700252 L 167.85121988265152,72.04030226700252 L 169.3569405422491,72.04030226700252 L 169.40118375346154,72.04030226700252 L 170.90878595910095,72.04030226700252 L 170.95224071292444,72.04030226700252 L 172.46362393013365,72.04030226700252 L 172.50093230022043,72.04030226700252 L 174.00505812555397,72.04030226700252 L 174.0494267731692,72.04030226700252 L 175.55328380621106,72.04030226700252 L 175.59541251806218,72.04030226700252 L 177.09056068085323,72.04030226700252 L 177.13532355716293,72.04030226700252 L 178.64738771484443,72.04030226700252 L 178.6935483110709,72.04030226700252 L 180.19095432911217,72.04030226700252 L 180.24109305125572,72.04030226700252 L 181.74774552413115,72.04030226700252 L 181.78854819400993,72.04030226700252 L 183.2928711336907,72.04030226700252 L 183.33333333333334,72.04030226700252" stroke="#f59e0b" stroke-width="4" fill="none" opacity="0.4" stroke-dasharray="13700" stroke-dashoffset="13700">
      <animate attributeName="stroke-dashoffset" values="13700;0" dur="3s" begin="3.5999999999999996s" fill="freeze"/>
    </path>
    
    <!-- Animated circle that moves along the path and draws the line -->
    <circle r="5" fill="#f59e0b" opacity="0" filter="url(#trailGlow)">
      <animate attributeName="opacity" values="0;1;1;1" dur="3.2s" begin="3.4s" fill="freeze"/>
      <animate attributeName="r" values="5;6;5" dur="1s" begin="3.4s" repeatCount="3"/>
      <animateMotion dur="3s" begin="3.4s" fill="freeze">
        <mpath href="#path_totalContributions_526.6666666666667"/>
      </animateMotion>
    </circle>
    
    <!-- Small trail dots that fade out -->
    <circle r="2" fill="#f59e0b" opacity="0">
      <animate attributeName="opacity" values="0;0.6;0" dur="0.8s" begin="3.8s" fill="freeze"/>
      <animateMotion dur="3s" begin="3.4s" fill="freeze">
        <mpath href="#path_totalContributions_526.6666666666667"/>
      </animateMotion>
    </circle>
    
    <!-- Hidden path for motion animation -->
    <path id="path_totalContributions_526.6666666666667" d="M 30,160 L 30.032470108836335,160 L 30.064850620242108,160 L 31.553028102935293,160 L 31.583419551382548,160 L 31.618147515469094,160 L 33.10175552920352,160 L 33.129727847025556,160 L 33.16060312159785,160 L 34.651128056971814,160 L 34.67105452552921,160 L 34.71997472261707,160 L 36.19673749265642,160 L 36.22689598778421,160 L 36.2566423347314,160 L 37.74784821057765,160 L 37.782092348539145,160 L 37.81325433488925,160 L 39.2953391923041,160 L 39.325497687431884,160 L 39.36026149049066,160 L 40.841468293085974,160 L 40.87110712311649,160 L 40.89811178868843,160 L 42.39205934590993,160 L 42.42268374767665,160 L 42.45422204323513,160 L 43.94496201244243,160 L 43.973776546111765,160 L 44.002196851086616,160 L 45.48739969908508,160 L 45.51820329571293,40 L 45.5502970953409,40 L 47.041431293242695,40 L 47.06280924017523,40 L 47.09228679483073,40 L 48.58580428438552,40 L 48.60970887885995,40 L 48.65212430248887,40 L 50.13589359159832,40 L 50.16737812869845,40 L 50.19502789577045,40 L 51.67786537160203,40 L 51.71236038236911,40 L 51.746138613691684,40 L 53.23564213835721,40 L 53.250909540525285,40 L 53.29228563395967,40 L 54.78078566740288,40 L 54.81341705161424,40 L 54.850277434548204,40 L 56.32915470394886,40 L 56.35990454211837,40 L 56.39930949208035,40 L 57.87501501243905,40 L 57.907718074594854,40 L 57.94586866052893,40 L 59.43184204643025,40 L 59.4682723616975,40 L 60.974136377183996,40 L 61.05074218031608,40 L 62.52263085013276,40 L 62.560709758122385,40 L 62.59685336161184,40 L 64.07049814106756,40 L 64.11061987047407,40 L 64.13823379857384,40 L 65.6220210071694,40 L 65.65560212414472,40 L 65.69330472292599,40 L 67.1648170835343,40 L 67.1983802810235,40 L 67.23613663826312,40 L 68.71542605584436,40 L 68.74841582977797,40 L 68.78380681485069,40 L 70.26913509925194,40 L 70.31248233615872,40 L 71.85162283735663,40 L 71.89265846055487,40 L 73.36911659933031,40 L 73.4029485891112,40 L 74.92141000333498,40 L 74.9502245370043,40 L 74.99767533623091,40 L 76.45779090367151,40 L 76.49076275811899,40 L 76.52606414576115,40 L 78.00789813037042,40 L 78.0468909321518,40 L 78.0860270898221,40 L 79.55340004913835,40 L 79.58501002264127,40 L 79.62342940086705,40 L 81.10038928525364,40 L 81.13631785490975,40 L 81.18328482801131,40 L 82.64384838260472,40 L 82.68474064991405,40 L 82.72432479473716,40 L 84.1992418577069,40 L 84.23214203420994,40 L 84.2697012771023,40 L 85.74744961887785,40 L 85.78074402407537,40 L 85.81912756332892,40 L 87.2936862365764,40 L 87.33228480966332,40 L 87.37387593693106,40 L 88.84348883201142,40 L 88.8742207506948,40 L 88.9112603284899,40 L 90.39309431309916,40 L 90.4206724022267,40 L 90.45833916203574,40 L 91.93746730424198,40 L 91.97282245034248,40 L 92.01186901058219,40 L 93.48676815406583,40 L 93.52429155798596,40 L 93.5641982535591,40 L 95.03916907498717,40 L 95.06631709644802,40 L 95.10514862285439,40 L 96.58612247213023,40 L 96.6226961432864,40 L 96.65530960801163,40 L 98.12968908639799,40 L 98.16316268645664,40 L 98.2017075010852,40 L 99.67524476362425,40 L 99.71585031915579,40 L 99.75299741386756,40 L 101.22692890510109,40 L 101.25757122635393,40 L 101.29197663969045,40 L 102.78131888898096,40 L 102.8187168564983,40 L 102.8608097293772,40 L 104.32832604458237,40 L 104.36172796669656,40 L 104.39512988881076,40 L 105.87307534493355,40 L 105.91016868118699,40 L 105.94665275491258,40 L 107.41470665470112,40 L 107.45498965948262,40 L 107.49333735976396,40 L 108.96171381030253,40 L 109.00197889559793,40 L 109.04616834835201,40 L 110.52443635522484,40 L 110.55645847690835,40 L 110.59787040931496,40 L 112.06880934636767,40 L 112.09647703292578,40 L 112.13154546724846,40 L 113.61266267241322,40 L 113.64927218254161,40 L 113.68640135776727,40 L 115.16167681045926,40 L 115.19364517368444,40 L 115.23498542814659,40 L 116.7095799403663,40 L 116.7417454179387,40 L 116.77984224541446,40 L 118.25830736663451,40 L 118.28982774270689,40 L 118.3239643637517,40 L 119.80484861559698,72.04030226700252 L 119.83468455997475,72.04030226700252 L 121.35185577119839,72.04030226700252 L 121.38828608646565,72.04030226700252 L 121.42269149980217,72.04030226700252 L 122.9016762861195,72.04030226700252 L 122.9267635666774,72.04030226700252 L 122.96946570208411,72.04030226700252 L 124.45832412524958,72.04030226700252 L 124.49617007991975,72.04030226700252 L 125.99900570225317,72.04030226700252 L 126.03842857170127,72.04030226700252 L 126.08989333581714,72.04030226700252 L 127.54956091610491,72.04030226700252 L 127.5881415697057,72.04030226700252 L 127.61188488880511,72.04030226700252 L 129.09982941817884,72.04030226700252 L 129.13570422937659,72.04030226700252 L 129.17353226456066,72.04030226700252 L 130.64900483159988,72.04030226700252 L 130.68319521110305,72.04030226700252 L 130.72195505956495,72.04030226700252 L 132.19558191953456,72.04030226700252 L 132.226313838218,72.04030226700252 L 132.26494825027711,72.04030226700252 L 133.74368216378886,72.04030226700252 L 133.77618811159743,72.04030226700252 L 133.8081206358504,72.04030226700252 L 135.29138817934867,72.04030226700252 L 135.32851735457433,72.04030226700252 L 135.3695888167448,72.04030226700252 L 136.84271393110325,72.04030226700252 L 136.87914424637052,72.04030226700252 L 136.92367416936074,72.04030226700252 L 138.38154980103724,72.04030226700252 L 138.41889401009624,72.04030226700252 L 138.46182909882242,72.04030226700252 L 139.9369253566533,72.04030226700252 L 139.97256721453158,72.04030226700252 L 140.00930216106275,72.04030226700252 L 141.48608285058822,72.04030226700252 L 141.52781733374485,72.04030226700252 L 141.57200678649895,72.04030226700252 L 143.0348819548009,72.04030226700252 L 143.07254871460995,72.04030226700252 L 143.11894226415592,72.04030226700252 L 144.5802225981938,72.04030226700252 L 144.619663387128,72.04030226700252 L 144.6561116218814,72.04030226700252 L 146.13480969642092,72.04030226700252 L 146.17077410504925,72.04030226700252 L 147.68647591841165,72.04030226700252 L 147.7193940144008,72.04030226700252 L 149.22880608813762,72.04030226700252 L 149.26606069976606,72.04030226700252 L 149.31030391097852,72.04030226700252 L 150.77504270583617,72.04030226700252 L 150.8220813568822,72.04030226700252 L 152.32658349142412,72.04030226700252 L 152.35858769362153,72.04030226700252 L 152.40077016393099,72.04030226700252 L 153.87138655023364,72.04030226700252 L 153.91030767407057,72.04030226700252 L 153.9545688047691,72.04030226700252 L 155.41536531268198,72.04030226700252 L 155.45294247506047,72.04030226700252 L 155.48476748239676,72.04030226700252 L 156.9688414027701,72.04030226700252 L 157.01209904224635,72.04030226700252 L 158.51814225259395,72.04030226700252 L 158.5569558595142,72.04030226700252 L 160.06658296708437,72.04030226700252 L 160.10514570119904,72.04030226700252 L 161.61443233853308,72.04030226700252 L 161.65261876343936,72.04030226700252 L 163.15721049541187,72.04030226700252 L 163.192511883054,72.04030226700252 L 163.22331547968187,72.04030226700252 L 164.71360746173636,72.04030226700252 L 164.7493209975591,72.04030226700252 L 166.2594140117682,72.04030226700252 L 166.29731372489672,72.04030226700252 L 166.33804471683104,72.04030226700252 L 167.80970043332823,72.04030226700252 L 167.85121988265152,72.04030226700252 L 169.3569405422491,72.04030226700252 L 169.40118375346154,72.04030226700252 L 170.90878595910095,72.04030226700252 L 170.95224071292444,72.04030226700252 L 172.46362393013365,72.04030226700252 L 172.50093230022043,72.04030226700252 L 174.00505812555397,72.04030226700252 L 174.0494267731692,72.04030226700252 L 175.55328380621106,72.04030226700252 L 175.59541251806218,72.04030226700252 L 177.09056068085323,72.04030226700252 L 177.13532355716293,72.04030226700252 L 178.64738771484443,72.04030226700252 L 178.6935483110709,72.04030226700252 L 180.19095432911217,72.04030226700252 L 180.24109305125572,72.04030226700252 L 181.74774552413115,72.04030226700252 L 181.78854819400993,72.04030226700252 L 183.2928711336907,72.04030226700252 L 183.33333333333334,72.04030226700252" fill="none" stroke="none"/>
  </g>
  
  <!-- Footer -->
  <text x="400" y="580" text-anchor="middle" fill="#94a3b8" font-size="12" font-family="Arial, sans-serif">
    Generated by GitHub User Rank Tracker • 4/22/2026
    <animate attributeName="opacity" values="0;1" dur="0.5s" begin="5s" fill="freeze"/>
  </text>
</svg>