<svg width="800" height="600" xmlns="http://www.w3.org/2000/svg">
  <defs>
    <linearGradient id="bgGradient" x1="0%" y1="0%" x2="100%" y2="100%">
      <stop offset="0%" style="stop-color:#f8fafc;stop-opacity:1" />
      <stop offset="100%" style="stop-color:#e2e8f0;stop-opacity:1" />
    </linearGradient>
    <filter id="shadow" x="-20%" y="-20%" width="140%" height="140%">
      <feDropShadow dx="2" dy="2" stdDeviation="3" flood-color="#00000020" flood-opacity="0.1"/>
    </filter>
    <!-- Trail effect filter -->
    <filter id="trailGlow" x="-50%" y="-50%" width="200%" height="200%">
      <feGaussianBlur stdDeviation="3" result="coloredBlur"/>
      <feMerge> 
        <feMergeNode in="coloredBlur"/>
        <feMergeNode in="SourceGraphic"/>
      </feMerge>
    </filter>
  </defs>
  
  <!-- Background -->
  <rect width="800" height="600" fill="url(#bgGradient)" rx="12"/>
  
  <!-- Header -->
  <text x="400" y="40" text-anchor="middle" fill="#0f172a" font-size="24" font-weight="bold" font-family="Arial, sans-serif">
    GitHub Progress Report
    <animate attributeName="opacity" values="0;1" dur="0.8s" begin="0s" fill="freeze"/>
    <animateTransform attributeName="transform" type="translate" values="0,-20;0,0" dur="0.8s" begin="0s" fill="freeze"/>
  </text>
  
  <!-- User Info -->
  <text x="400" y="70" text-anchor="middle" fill="#475569" font-size="16" font-family="Arial, sans-serif">
    @maifeeulasad • BANGLADESH • 100 days analyzed
    <animate attributeName="opacity" values="0;1" dur="0.6s" begin="0.3s" fill="freeze"/>
  </text>
  
  <!-- Progress Cards -->
  <!-- Followers Card -->
  <g transform="translate(60, 100)">
    <rect width="206.66666666666666" height="120" fill="#ffffff" stroke="#e2e8f0" stroke-width="1" rx="8" filter="url(#shadow)">
      <animate attributeName="opacity" values="0;1" dur="0.6s" begin="0.2s" fill="freeze"/>
      <animateTransform attributeName="transform" type="scale" values="0.8;1" dur="0.6s" begin="0.2s" fill="freeze"/>
    </rect>
    <text x="103.33333333333333" y="25" text-anchor="middle" fill="#64748b" font-size="14" font-weight="bold" font-family="Arial, sans-serif">FOLLOWERS
      <animate attributeName="opacity" values="0;1" dur="0.5s" begin="0.4s" fill="freeze"/>
    </text>
    
    <text x="103.33333333333333" y="50" text-anchor="middle" fill="#22c55e" font-size="32" font-weight="bold" font-family="Arial, sans-serif">
      ↗
      <animate attributeName="opacity" values="0;1" dur="0.5s" begin="0.6s" fill="freeze"/>
      <animateTransform attributeName="transform" type="scale" values="0;1.2;1" dur="0.8s" begin="0.6s" fill="freeze"/>
    </text>
    
    <text x="103.33333333333333" y="75" text-anchor="middle" fill="#1e293b" font-size="18" font-weight="bold" font-family="Arial, sans-serif">
      +6
      <animate attributeName="opacity" values="0;1" dur="0.5s" begin="0.8s" fill="freeze"/>
    </text>
    
    <text x="103.33333333333333" y="95" text-anchor="middle" fill="#64748b" font-size="12" font-family="Arial, sans-serif">
      #473 → #467
      <animate attributeName="opacity" values="0;1" dur="0.5s" begin="1s" fill="freeze"/>
    </text>
  </g>
  
  <!-- Public Contributions Card -->
  <g transform="translate(296.66666666666663, 100)">
    <rect width="206.66666666666666" height="120" fill="#ffffff" stroke="#e2e8f0" stroke-width="1" rx="8" filter="url(#shadow)">
      <animate attributeName="opacity" values="0;1" dur="0.6s" begin="0.4s" fill="freeze"/>
      <animateTransform attributeName="transform" type="scale" values="0.8;1" dur="0.6s" begin="0.4s" fill="freeze"/>
    </rect>
    <text x="103.33333333333333" y="25" text-anchor="middle" fill="#64748b" font-size="14" font-weight="bold" font-family="Arial, sans-serif">PUBLIC
      <animate attributeName="opacity" values="0;1" dur="0.5s" begin="0.6s" fill="freeze"/>
    </text>
    
    <text x="103.33333333333333" y="50" text-anchor="middle" fill="#22c55e" font-size="32" font-weight="bold" font-family="Arial, sans-serif">
      ↗
      <animate attributeName="opacity" values="0;1" dur="0.5s" begin="0.8s" fill="freeze"/>
      <animateTransform attributeName="transform" type="scale" values="0;1.2;1" dur="0.8s" begin="0.8s" fill="freeze"/>
    </text>
    
    <text x="103.33333333333333" y="75" text-anchor="middle" fill="#1e293b" font-size="18" font-weight="bold" font-family="Arial, sans-serif">
      +11
      <animate attributeName="opacity" values="0;1" dur="0.5s" begin="1s" fill="freeze"/>
    </text>
    
    <text x="103.33333333333333" y="95" text-anchor="middle" fill="#64748b" font-size="12" font-family="Arial, sans-serif">
      #18 → #7
      <animate attributeName="opacity" values="0;1" dur="0.5s" begin="1.2s" fill="freeze"/>
    </text>
  </g>
  
  <!-- Total Contributions Card -->
  <g transform="translate(533.3333333333333, 100)">
    <rect width="206.66666666666666" height="120" fill="#ffffff" stroke="#e2e8f0" stroke-width="1" rx="8" filter="url(#shadow)">
      <animate attributeName="opacity" values="0;1" dur="0.6s" begin="0.6s" fill="freeze"/>
      <animateTransform attributeName="transform" type="scale" values="0.8;1" dur="0.6s" begin="0.6s" fill="freeze"/>
    </rect>
    <text x="103.33333333333333" y="25" text-anchor="middle" fill="#64748b" font-size="14" font-weight="bold" font-family="Arial, sans-serif">TOTAL
      <animate attributeName="opacity" values="0;1" dur="0.5s" begin="0.8s" fill="freeze"/>
    </text>
    
    <text x="103.33333333333333" y="50" text-anchor="middle" fill="#22c55e" font-size="32" font-weight="bold" font-family="Arial, sans-serif">
      ↗
      <animate attributeName="opacity" values="0;1" dur="0.5s" begin="1s" fill="freeze"/>
      <animateTransform attributeName="transform" type="scale" values="0;1.2;1" dur="0.8s" begin="1s" fill="freeze"/>
    </text>
    
    <text x="103.33333333333333" y="75" text-anchor="middle" fill="#1e293b" font-size="18" font-weight="bold" font-family="Arial, sans-serif">
      +15
      <animate attributeName="opacity" values="0;1" dur="0.5s" begin="1.2s" fill="freeze"/>
    </text>
    
    <text x="103.33333333333333" y="95" text-anchor="middle" fill="#64748b" font-size="12" font-family="Arial, sans-serif">
      #39 → #24
      <animate attributeName="opacity" values="0;1" dur="0.5s" begin="1.4s" fill="freeze"/>
    </text>
  </g>
  
  <!-- Timeline Charts (if we have snapshots) -->
  
  <!-- 👥 Followers Count Chart -->
  <g transform="translate(60, 250)">
    <!-- Chart Background -->
    <rect x="0" y="0" width="213.33333333333334" height="200" fill="#ffffff" stroke="#e2e8f0" stroke-width="1" rx="8" filter="url(#shadow)">
      <animate attributeName="opacity" values="0;1" dur="0.5s" begin="1.8s" fill="freeze"/>
    </rect>
    
    <!-- Chart Title -->
    <text x="106.66666666666667" y="25" text-anchor="middle" fill="#1e293b" font-size="14" font-weight="bold" font-family="Arial, sans-serif">
      👥 Followers Count
      <animate attributeName="opacity" values="0;1" dur="0.5s" begin="2s" fill="freeze"/>
    </text>
    
    <!-- Y-axis labels -->
    <text x="10" y="45" fill="#64748b" font-size="10" font-family="Arial, sans-serif">143
      <animate attributeName="opacity" values="0;1" dur="0.5s" begin="2.2s" fill="freeze"/>
    </text>
    <text x="10" y="185" fill="#64748b" font-size="10" font-family="Arial, sans-serif">136
      <animate attributeName="opacity" values="0;1" dur="0.5s" begin="2.2s" fill="freeze"/>
    </text>
    
    <!-- Chart Line with draw animation that follows the circle -->
    <path d="M 30,160 L 30.024961806231595,160 L 30.05182307510536,160 L 31.5491372209054,160 L 31.580030368029067,160 L 31.610475528680524,160 L 33.097593502373044,160 L 33.124759402047914,160 L 33.156369327527116,160 L 34.672982730550004,160 L 34.70176138152483,160 L 36.19420143450722,160 L 36.218267267794396,160 L 36.24973383760249,160 L 37.7395038912105,160 L 37.76570214010539,160 L 37.79842307203568,160 L 39.28731507215816,160 L 39.31627291772187,160 L 39.34584002488779,160 L 40.83559215903691,160 L 40.86182624684958,160 L 40.893364494493234,160 L 42.38766817120002,160 L 42.416966486482615,160 L 42.447752116852946,160 L 43.93653660022209,160 L 43.962089748597,160 L 43.99412974108953,160 L 45.48343388876644,160 L 45.506317037766976,160 L 45.534199715797385,160 L 47.03022366055745,160 L 47.05873351964896,160 L 47.0873508954938,160 L 48.57647584858182,160 L 48.603928459598905,160 L 48.635359190489226,160 L 50.1231581036195,160 L 50.14903380225441,160 L 50.18383339141575,160 L 51.66697324523504,160 L 51.698063506406484,160 L 51.72906417028348,160 L 53.22381583346247,160 L 53.253508376840614,160 L 53.28678481199644,160 L 54.77442244999672,160 L 54.79938425622832,160 L 54.83282196651414,160 L 56.31920524239224,160 L 56.35318053644471,160 L 56.388983615303815,160 L 57.867715282236546,160 L 57.89344762520034,160 L 57.92514714797399,160 L 59.41871612686634,160 L 59.44090041697022,160 L 59.473262959722746,160 L 60.9626567046941,160 L 60.98905206763676,160 L 61.02033944285598,160 L 62.510324529970646,160 L 62.53691700696109,160 L 62.567899751379194,160 L 64.06313523994817,160 L 64.09033697854082,160 L 64.12619381577659,160 L 65.60908279717144,160 L 65.64235923232727,160 L 65.66413137487672,160 L 67.15605176355135,160 L 67.18232169028178,160 L 67.21489926654097,160 L 68.69900677114023,160 L 68.73427226623267,160 L 68.76460991013079,160 L 70.25418284969103,160 L 70.28127707153035,160 L 70.3132812251051,160 L 71.8038576543631,160 L 71.83041429243576,160 L 71.85933629908169,160 L 73.35200930502963,160 L 73.37921104362228,160 L 73.40777466109046,160 L 74.89946209679951,160 L 74.93150208929204,160 L 74.96447389364677,160 L 76.44730911666495,160 L 76.47694790166642,160 L 76.51036769249336,160 L 77.98687734652393,160 L 78.02651518958515,160 L 78.05900316854988,160 L 79.54370201529247,160 L 79.57210435763065,160 L 79.60297958529542,160 L 81.09224789405455,160 L 81.11885829050388,160 L 81.1506115716542,160 L 82.6383567264078,160 L 82.66640067956821,160 L 82.6980464439652,160 L 84.18752978623098,160 L 84.2101441433482,160 L 84.24551715519397,160 L 85.73870982544967,160 L 85.76963881149112,160 L 85.80596155465798,160 L 87.28908348901837,160 L 87.31569388546771,160 L 87.34759052228912,160 L 88.83501312678274,57.14285714285715 L 88.86090674487653,57.14285714285715 L 88.89421901895014,57.14285714285715 L 90.3800467916027,57.14285714285715 L 90.40579705402538,57.14285714285715 L 90.4410983880356,57.14285714285715 L 91.92072602791275,57.14285714285715 L 91.95588400625186,57.14285714285715 L 91.99154372943985,57.14285714285715 L 93.47796284423573,57.14285714285715 L 93.49996793975073,57.14285714285715 L 93.53297558302323,57.14285714285715 L 95.02568442788895,57.14285714285715 L 95.05164972381829,57.14285714285715 L 95.08533830652856,57.14285714285715 L 96.56862151601895,57.14285714285715 L 96.60809808395018,57.14285714285715 L 96.64158955261267,57.14285714285715 L 98.12288370216643,57.14285714285715 L 98.1554971173434,57.14285714285715 L 98.18861227736923,57.14285714285715 L 99.674404211104,57.14285714285715 L 99.70440138528325,57.14285714285715 L 99.73715815613131,57.14285714285715 L 101.21911532566396,57.14285714285715 L 101.25002639224653,57.14285714285715 L 101.28201262636239,57.14285714285715 L 102.76577966124276,57.14285714285715 L 102.79681616403754,57.14285714285715 L 102.8312932029389,57.14285714285715 L 104.31681634479034,57.14285714285715 L 104.35201016204724,57.14285714285715 L 104.38593169772304,57.14285714285715 L 105.86407202251246,57.14285714285715 L 105.89399751885614,57.14285714285715 L 105.921647243921,57.14285714285715 L 107.41677521573665,57.14285714285715 L 107.44856433580475,57.14285714285715 L 107.48354311955498,57.14285714285715 L 108.96057243789329,57.14285714285715 L 108.99263034984472,57.14285714285715 L 109.02915020705935,57.14285714285715 L 110.5092616723265,57.14285714285715 L 110.53933052434128,57.14285714285715 L 110.57235608707268,57.14285714285715 L 112.05821969864301,57.14285714285715 L 112.08542143723565,57.14285714285715 L 112.12120659663586,57.14285714285715 L 113.60728524171286,57.14285714285715 L 113.63635060402991,57.14285714285715 L 113.66615066416138,57.14285714285715 L 115.15696004638492,57.14285714285715 L 115.18197561099316,57.14285714285715 L 115.21435607320458,57.14285714285715 L 116.70039887936379,57.14285714285715 L 116.72423175968542,57.14285714285715 L 116.75206067933915,57.14285714285715 L 118.25179395208913,57.14285714285715 L 118.27917488527068,57.14285714285715 L 118.31544387006088,57.14285714285715 L 119.79921090494125,57.14285714285715 L 119.8271831802661,57.14285714285715 L 119.86142726620191,57.14285714285715 L 121.34187920118792,57.14285714285715 L 121.36752194685728,57.14285714285715 L 121.40137180469753,57.14285714285715 L 122.88682326871343,57.14285714285715 L 122.91956212010261,57.14285714285715 L 122.95224721311513,57.14285714285715 L 124.44119297161426,57.14285714285715 L 124.4671582675436,57.14285714285715 L 124.49842772330392,57.14285714285715 L 125.99063482332078,57.14285714285715 L 126.01663595816788,57.14285714285715 L 126.04803085014042,57.14285714285715 L 127.53557889084627,57.14285714285715 L 127.56521767584775,57.14285714285715 L 127.59645129269029,57.14285714285715 L 129.08880174837822,57.14285714285715 L 129.11700697666862,57.14285714285715 L 129.15046260641333,57.14285714285715 L 130.63806440549587,57.14285714285715 L 130.6638684262952,57.14285714285715 L 130.70008365270874,57.14285714285715 L 132.1817541108992,57.14285714285715 L 132.2072893398152,57.14285714285715 L 132.23789577559666,57.14285714285715 L 133.72969072805904,57.14285714285715 L 133.75547682939953,57.14285714285715 L 133.78663876840648,57.14285714285715 L 135.27963432461442,57.14285714285715 L 135.3011018363628,57.14285714285715 L 135.33186954727424,57.14285714285715 L 136.8277501363632,57.14285714285715 L 136.85280153988924,57.14285714285715 L 136.87357019274094,57.14285714285715 L 138.3739127270931,57.14285714285715 L 138.39778144633252,57.14285714285715 L 138.42797573455954,57.14285714285715 L 139.9182654524753,57.14285714285715 L 139.95415812862885,57.14285714285715 L 139.98668194651137,57.14285714285715 L 141.4731010613072,57.14285714285715 L 141.49976521613323,57.14285714285715 L 141.53099883297577,57.14285714285715 L 143.0216648595282,57.14285714285715 L 143.04773767221087,57.14285714285715 L 143.07291451194914,57.14285714285715 L 144.57159053662468,57.14285714285715 L 144.59395402131747,57.14285714285715 L 144.6199909950824,57.14285714285715 L 146.11553111445244,57.14285714285715 L 146.1410305044507,57.14285714285715 L 146.16973747758996,57.14285714285715 L 147.6662631671989,57.14285714285715 L 147.68848329622057,57.14285714285715 L 147.71926892659093,57.14285714285715 L 149.20346602848463,57.14285714285715 L 149.23706501390046,57.14285714285715 L 149.26801191940078,57.14285714285715 L 150.76313989121644,57.14285714285715 L 150.79188270327347,57.14285714285715 L 150.82109142126163,57.14285714285715 L 152.31225919266294,57.14285714285715 L 152.34220260846553,57.14285714285715 L 152.37589119117578,57.14285714285715 L 153.8555905088885,57.14285714285715 L 153.88073150970897,57.14285714285715 L 153.9095101606838,57.14285714285715 L 155.4042080654861,57.14285714285715 L 155.42291598056568,57.14285714285715 L 155.4558340265437,57.14285714285715 L 156.9535424004393,57.14285714285715 L 156.97613883809763,57.14285714285715 L 157.00687071009128,57.14285714285715 L 158.5034501580769,57.14285714285715 L 158.526082434653,57.14285714285715 L 158.55297954244455,57.14285714285715 L 160.04909308449905,40 L 160.07204791133515,40 L 160.10150750174773,40 L 161.59882164754777,40 L 161.62263660841052,40 L 161.6558413657308,40 L 163.13821068281788,40 L 163.17154087635038,40 L 163.2041722109862,40 L 164.69594924398973,40 L 164.71345655532372,40 L 164.74331037383186,40 L 166.2413950563641,40 L 166.2658909566646,40 L 166.29811014374602,40 L 167.78332865479635,40 L 167.81547616404222,40 L 167.84420105664037,40 L 169.3384509749705,40 L 169.36373533146207,40 L 169.39149257328026,40 L 170.8844881294882,40 L 170.9092886605898,40 L 170.93435798357473,40 L 170.97408542393038,40 L 172.43832024862238,40 L 172.46448265859948,40 L 172.49168439719213,40 L 173.98550424850893,40 L 174.0115949806505,40 L 174.040104839742,40 L 175.53295704027883,40 L 175.55696911518933,40 L 175.58436796782976,40 L 177.07664674568215,40 L 177.10549707449252,40 L 178.6357651051884,40 L 178.6532903359813,40 L 178.68110133617614,40 L 180.17630098582737,40 L 180.20097608071674,40 L 180.23147499974485,40 L 181.72416592515168,40 L 181.74824967789775,40 L 181.77532598027815,40 L 183.2751130114048,40 L 183.30095287112195,40 L 183.33333333333334,40" stroke="#22c55e" stroke-width="2" fill="none" stroke-dasharray="14950" stroke-dashoffset="14950">
      <animate attributeName="stroke-dashoffset" values="14950;0" dur="3s" begin="2.6s" fill="freeze"/>
    </path>
    
    <!-- Glow effect for the line that also follows the circle -->
    <path d="M 30,160 L 30.024961806231595,160 L 30.05182307510536,160 L 31.5491372209054,160 L 31.580030368029067,160 L 31.610475528680524,160 L 33.097593502373044,160 L 33.124759402047914,160 L 33.156369327527116,160 L 34.672982730550004,160 L 34.70176138152483,160 L 36.19420143450722,160 L 36.218267267794396,160 L 36.24973383760249,160 L 37.7395038912105,160 L 37.76570214010539,160 L 37.79842307203568,160 L 39.28731507215816,160 L 39.31627291772187,160 L 39.34584002488779,160 L 40.83559215903691,160 L 40.86182624684958,160 L 40.893364494493234,160 L 42.38766817120002,160 L 42.416966486482615,160 L 42.447752116852946,160 L 43.93653660022209,160 L 43.962089748597,160 L 43.99412974108953,160 L 45.48343388876644,160 L 45.506317037766976,160 L 45.534199715797385,160 L 47.03022366055745,160 L 47.05873351964896,160 L 47.0873508954938,160 L 48.57647584858182,160 L 48.603928459598905,160 L 48.635359190489226,160 L 50.1231581036195,160 L 50.14903380225441,160 L 50.18383339141575,160 L 51.66697324523504,160 L 51.698063506406484,160 L 51.72906417028348,160 L 53.22381583346247,160 L 53.253508376840614,160 L 53.28678481199644,160 L 54.77442244999672,160 L 54.79938425622832,160 L 54.83282196651414,160 L 56.31920524239224,160 L 56.35318053644471,160 L 56.388983615303815,160 L 57.867715282236546,160 L 57.89344762520034,160 L 57.92514714797399,160 L 59.41871612686634,160 L 59.44090041697022,160 L 59.473262959722746,160 L 60.9626567046941,160 L 60.98905206763676,160 L 61.02033944285598,160 L 62.510324529970646,160 L 62.53691700696109,160 L 62.567899751379194,160 L 64.06313523994817,160 L 64.09033697854082,160 L 64.12619381577659,160 L 65.60908279717144,160 L 65.64235923232727,160 L 65.66413137487672,160 L 67.15605176355135,160 L 67.18232169028178,160 L 67.21489926654097,160 L 68.69900677114023,160 L 68.73427226623267,160 L 68.76460991013079,160 L 70.25418284969103,160 L 70.28127707153035,160 L 70.3132812251051,160 L 71.8038576543631,160 L 71.83041429243576,160 L 71.85933629908169,160 L 73.35200930502963,160 L 73.37921104362228,160 L 73.40777466109046,160 L 74.89946209679951,160 L 74.93150208929204,160 L 74.96447389364677,160 L 76.44730911666495,160 L 76.47694790166642,160 L 76.51036769249336,160 L 77.98687734652393,160 L 78.02651518958515,160 L 78.05900316854988,160 L 79.54370201529247,160 L 79.57210435763065,160 L 79.60297958529542,160 L 81.09224789405455,160 L 81.11885829050388,160 L 81.1506115716542,160 L 82.6383567264078,160 L 82.66640067956821,160 L 82.6980464439652,160 L 84.18752978623098,160 L 84.2101441433482,160 L 84.24551715519397,160 L 85.73870982544967,160 L 85.76963881149112,160 L 85.80596155465798,160 L 87.28908348901837,160 L 87.31569388546771,160 L 87.34759052228912,160 L 88.83501312678274,57.14285714285715 L 88.86090674487653,57.14285714285715 L 88.89421901895014,57.14285714285715 L 90.3800467916027,57.14285714285715 L 90.40579705402538,57.14285714285715 L 90.4410983880356,57.14285714285715 L 91.92072602791275,57.14285714285715 L 91.95588400625186,57.14285714285715 L 91.99154372943985,57.14285714285715 L 93.47796284423573,57.14285714285715 L 93.49996793975073,57.14285714285715 L 93.53297558302323,57.14285714285715 L 95.02568442788895,57.14285714285715 L 95.05164972381829,57.14285714285715 L 95.08533830652856,57.14285714285715 L 96.56862151601895,57.14285714285715 L 96.60809808395018,57.14285714285715 L 96.64158955261267,57.14285714285715 L 98.12288370216643,57.14285714285715 L 98.1554971173434,57.14285714285715 L 98.18861227736923,57.14285714285715 L 99.674404211104,57.14285714285715 L 99.70440138528325,57.14285714285715 L 99.73715815613131,57.14285714285715 L 101.21911532566396,57.14285714285715 L 101.25002639224653,57.14285714285715 L 101.28201262636239,57.14285714285715 L 102.76577966124276,57.14285714285715 L 102.79681616403754,57.14285714285715 L 102.8312932029389,57.14285714285715 L 104.31681634479034,57.14285714285715 L 104.35201016204724,57.14285714285715 L 104.38593169772304,57.14285714285715 L 105.86407202251246,57.14285714285715 L 105.89399751885614,57.14285714285715 L 105.921647243921,57.14285714285715 L 107.41677521573665,57.14285714285715 L 107.44856433580475,57.14285714285715 L 107.48354311955498,57.14285714285715 L 108.96057243789329,57.14285714285715 L 108.99263034984472,57.14285714285715 L 109.02915020705935,57.14285714285715 L 110.5092616723265,57.14285714285715 L 110.53933052434128,57.14285714285715 L 110.57235608707268,57.14285714285715 L 112.05821969864301,57.14285714285715 L 112.08542143723565,57.14285714285715 L 112.12120659663586,57.14285714285715 L 113.60728524171286,57.14285714285715 L 113.63635060402991,57.14285714285715 L 113.66615066416138,57.14285714285715 L 115.15696004638492,57.14285714285715 L 115.18197561099316,57.14285714285715 L 115.21435607320458,57.14285714285715 L 116.70039887936379,57.14285714285715 L 116.72423175968542,57.14285714285715 L 116.75206067933915,57.14285714285715 L 118.25179395208913,57.14285714285715 L 118.27917488527068,57.14285714285715 L 118.31544387006088,57.14285714285715 L 119.79921090494125,57.14285714285715 L 119.8271831802661,57.14285714285715 L 119.86142726620191,57.14285714285715 L 121.34187920118792,57.14285714285715 L 121.36752194685728,57.14285714285715 L 121.40137180469753,57.14285714285715 L 122.88682326871343,57.14285714285715 L 122.91956212010261,57.14285714285715 L 122.95224721311513,57.14285714285715 L 124.44119297161426,57.14285714285715 L 124.4671582675436,57.14285714285715 L 124.49842772330392,57.14285714285715 L 125.99063482332078,57.14285714285715 L 126.01663595816788,57.14285714285715 L 126.04803085014042,57.14285714285715 L 127.53557889084627,57.14285714285715 L 127.56521767584775,57.14285714285715 L 127.59645129269029,57.14285714285715 L 129.08880174837822,57.14285714285715 L 129.11700697666862,57.14285714285715 L 129.15046260641333,57.14285714285715 L 130.63806440549587,57.14285714285715 L 130.6638684262952,57.14285714285715 L 130.70008365270874,57.14285714285715 L 132.1817541108992,57.14285714285715 L 132.2072893398152,57.14285714285715 L 132.23789577559666,57.14285714285715 L 133.72969072805904,57.14285714285715 L 133.75547682939953,57.14285714285715 L 133.78663876840648,57.14285714285715 L 135.27963432461442,57.14285714285715 L 135.3011018363628,57.14285714285715 L 135.33186954727424,57.14285714285715 L 136.8277501363632,57.14285714285715 L 136.85280153988924,57.14285714285715 L 136.87357019274094,57.14285714285715 L 138.3739127270931,57.14285714285715 L 138.39778144633252,57.14285714285715 L 138.42797573455954,57.14285714285715 L 139.9182654524753,57.14285714285715 L 139.95415812862885,57.14285714285715 L 139.98668194651137,57.14285714285715 L 141.4731010613072,57.14285714285715 L 141.49976521613323,57.14285714285715 L 141.53099883297577,57.14285714285715 L 143.0216648595282,57.14285714285715 L 143.04773767221087,57.14285714285715 L 143.07291451194914,57.14285714285715 L 144.57159053662468,57.14285714285715 L 144.59395402131747,57.14285714285715 L 144.6199909950824,57.14285714285715 L 146.11553111445244,57.14285714285715 L 146.1410305044507,57.14285714285715 L 146.16973747758996,57.14285714285715 L 147.6662631671989,57.14285714285715 L 147.68848329622057,57.14285714285715 L 147.71926892659093,57.14285714285715 L 149.20346602848463,57.14285714285715 L 149.23706501390046,57.14285714285715 L 149.26801191940078,57.14285714285715 L 150.76313989121644,57.14285714285715 L 150.79188270327347,57.14285714285715 L 150.82109142126163,57.14285714285715 L 152.31225919266294,57.14285714285715 L 152.34220260846553,57.14285714285715 L 152.37589119117578,57.14285714285715 L 153.8555905088885,57.14285714285715 L 153.88073150970897,57.14285714285715 L 153.9095101606838,57.14285714285715 L 155.4042080654861,57.14285714285715 L 155.42291598056568,57.14285714285715 L 155.4558340265437,57.14285714285715 L 156.9535424004393,57.14285714285715 L 156.97613883809763,57.14285714285715 L 157.00687071009128,57.14285714285715 L 158.5034501580769,57.14285714285715 L 158.526082434653,57.14285714285715 L 158.55297954244455,57.14285714285715 L 160.04909308449905,40 L 160.07204791133515,40 L 160.10150750174773,40 L 161.59882164754777,40 L 161.62263660841052,40 L 161.6558413657308,40 L 163.13821068281788,40 L 163.17154087635038,40 L 163.2041722109862,40 L 164.69594924398973,40 L 164.71345655532372,40 L 164.74331037383186,40 L 166.2413950563641,40 L 166.2658909566646,40 L 166.29811014374602,40 L 167.78332865479635,40 L 167.81547616404222,40 L 167.84420105664037,40 L 169.3384509749705,40 L 169.36373533146207,40 L 169.39149257328026,40 L 170.8844881294882,40 L 170.9092886605898,40 L 170.93435798357473,40 L 170.97408542393038,40 L 172.43832024862238,40 L 172.46448265859948,40 L 172.49168439719213,40 L 173.98550424850893,40 L 174.0115949806505,40 L 174.040104839742,40 L 175.53295704027883,40 L 175.55696911518933,40 L 175.58436796782976,40 L 177.07664674568215,40 L 177.10549707449252,40 L 178.6357651051884,40 L 178.6532903359813,40 L 178.68110133617614,40 L 180.17630098582737,40 L 180.20097608071674,40 L 180.23147499974485,40 L 181.72416592515168,40 L 181.74824967789775,40 L 181.77532598027815,40 L 183.2751130114048,40 L 183.30095287112195,40 L 183.33333333333334,40" stroke="#22c55e" stroke-width="4" fill="none" opacity="0.4" stroke-dasharray="14950" stroke-dashoffset="14950">
      <animate attributeName="stroke-dashoffset" values="14950;0" dur="3s" begin="2.6s" fill="freeze"/>
    </path>
    
    <!-- Animated circle that moves along the path and draws the line -->
    <circle r="5" fill="#22c55e" opacity="0" filter="url(#trailGlow)">
      <animate attributeName="opacity" values="0;1;1;1" dur="3.2s" begin="2.4s" fill="freeze"/>
      <animate attributeName="r" values="5;6;5" dur="1s" begin="2.4s" repeatCount="3"/>
      <animateMotion dur="3s" begin="2.4s" fill="freeze">
        <mpath href="#path_followersCount_60"/>
      </animateMotion>
    </circle>
    
    <!-- Small trail dots that fade out -->
    <circle r="2" fill="#22c55e" opacity="0">
      <animate attributeName="opacity" values="0;0.6;0" dur="0.8s" begin="2.8s" fill="freeze"/>
      <animateMotion dur="3s" begin="2.4s" fill="freeze">
        <mpath href="#path_followersCount_60"/>
      </animateMotion>
    </circle>
    
    <!-- Hidden path for motion animation -->
    <path id="path_followersCount_60" d="M 30,160 L 30.024961806231595,160 L 30.05182307510536,160 L 31.5491372209054,160 L 31.580030368029067,160 L 31.610475528680524,160 L 33.097593502373044,160 L 33.124759402047914,160 L 33.156369327527116,160 L 34.672982730550004,160 L 34.70176138152483,160 L 36.19420143450722,160 L 36.218267267794396,160 L 36.24973383760249,160 L 37.7395038912105,160 L 37.76570214010539,160 L 37.79842307203568,160 L 39.28731507215816,160 L 39.31627291772187,160 L 39.34584002488779,160 L 40.83559215903691,160 L 40.86182624684958,160 L 40.893364494493234,160 L 42.38766817120002,160 L 42.416966486482615,160 L 42.447752116852946,160 L 43.93653660022209,160 L 43.962089748597,160 L 43.99412974108953,160 L 45.48343388876644,160 L 45.506317037766976,160 L 45.534199715797385,160 L 47.03022366055745,160 L 47.05873351964896,160 L 47.0873508954938,160 L 48.57647584858182,160 L 48.603928459598905,160 L 48.635359190489226,160 L 50.1231581036195,160 L 50.14903380225441,160 L 50.18383339141575,160 L 51.66697324523504,160 L 51.698063506406484,160 L 51.72906417028348,160 L 53.22381583346247,160 L 53.253508376840614,160 L 53.28678481199644,160 L 54.77442244999672,160 L 54.79938425622832,160 L 54.83282196651414,160 L 56.31920524239224,160 L 56.35318053644471,160 L 56.388983615303815,160 L 57.867715282236546,160 L 57.89344762520034,160 L 57.92514714797399,160 L 59.41871612686634,160 L 59.44090041697022,160 L 59.473262959722746,160 L 60.9626567046941,160 L 60.98905206763676,160 L 61.02033944285598,160 L 62.510324529970646,160 L 62.53691700696109,160 L 62.567899751379194,160 L 64.06313523994817,160 L 64.09033697854082,160 L 64.12619381577659,160 L 65.60908279717144,160 L 65.64235923232727,160 L 65.66413137487672,160 L 67.15605176355135,160 L 67.18232169028178,160 L 67.21489926654097,160 L 68.69900677114023,160 L 68.73427226623267,160 L 68.76460991013079,160 L 70.25418284969103,160 L 70.28127707153035,160 L 70.3132812251051,160 L 71.8038576543631,160 L 71.83041429243576,160 L 71.85933629908169,160 L 73.35200930502963,160 L 73.37921104362228,160 L 73.40777466109046,160 L 74.89946209679951,160 L 74.93150208929204,160 L 74.96447389364677,160 L 76.44730911666495,160 L 76.47694790166642,160 L 76.51036769249336,160 L 77.98687734652393,160 L 78.02651518958515,160 L 78.05900316854988,160 L 79.54370201529247,160 L 79.57210435763065,160 L 79.60297958529542,160 L 81.09224789405455,160 L 81.11885829050388,160 L 81.1506115716542,160 L 82.6383567264078,160 L 82.66640067956821,160 L 82.6980464439652,160 L 84.18752978623098,160 L 84.2101441433482,160 L 84.24551715519397,160 L 85.73870982544967,160 L 85.76963881149112,160 L 85.80596155465798,160 L 87.28908348901837,160 L 87.31569388546771,160 L 87.34759052228912,160 L 88.83501312678274,57.14285714285715 L 88.86090674487653,57.14285714285715 L 88.89421901895014,57.14285714285715 L 90.3800467916027,57.14285714285715 L 90.40579705402538,57.14285714285715 L 90.4410983880356,57.14285714285715 L 91.92072602791275,57.14285714285715 L 91.95588400625186,57.14285714285715 L 91.99154372943985,57.14285714285715 L 93.47796284423573,57.14285714285715 L 93.49996793975073,57.14285714285715 L 93.53297558302323,57.14285714285715 L 95.02568442788895,57.14285714285715 L 95.05164972381829,57.14285714285715 L 95.08533830652856,57.14285714285715 L 96.56862151601895,57.14285714285715 L 96.60809808395018,57.14285714285715 L 96.64158955261267,57.14285714285715 L 98.12288370216643,57.14285714285715 L 98.1554971173434,57.14285714285715 L 98.18861227736923,57.14285714285715 L 99.674404211104,57.14285714285715 L 99.70440138528325,57.14285714285715 L 99.73715815613131,57.14285714285715 L 101.21911532566396,57.14285714285715 L 101.25002639224653,57.14285714285715 L 101.28201262636239,57.14285714285715 L 102.76577966124276,57.14285714285715 L 102.79681616403754,57.14285714285715 L 102.8312932029389,57.14285714285715 L 104.31681634479034,57.14285714285715 L 104.35201016204724,57.14285714285715 L 104.38593169772304,57.14285714285715 L 105.86407202251246,57.14285714285715 L 105.89399751885614,57.14285714285715 L 105.921647243921,57.14285714285715 L 107.41677521573665,57.14285714285715 L 107.44856433580475,57.14285714285715 L 107.48354311955498,57.14285714285715 L 108.96057243789329,57.14285714285715 L 108.99263034984472,57.14285714285715 L 109.02915020705935,57.14285714285715 L 110.5092616723265,57.14285714285715 L 110.53933052434128,57.14285714285715 L 110.57235608707268,57.14285714285715 L 112.05821969864301,57.14285714285715 L 112.08542143723565,57.14285714285715 L 112.12120659663586,57.14285714285715 L 113.60728524171286,57.14285714285715 L 113.63635060402991,57.14285714285715 L 113.66615066416138,57.14285714285715 L 115.15696004638492,57.14285714285715 L 115.18197561099316,57.14285714285715 L 115.21435607320458,57.14285714285715 L 116.70039887936379,57.14285714285715 L 116.72423175968542,57.14285714285715 L 116.75206067933915,57.14285714285715 L 118.25179395208913,57.14285714285715 L 118.27917488527068,57.14285714285715 L 118.31544387006088,57.14285714285715 L 119.79921090494125,57.14285714285715 L 119.8271831802661,57.14285714285715 L 119.86142726620191,57.14285714285715 L 121.34187920118792,57.14285714285715 L 121.36752194685728,57.14285714285715 L 121.40137180469753,57.14285714285715 L 122.88682326871343,57.14285714285715 L 122.91956212010261,57.14285714285715 L 122.95224721311513,57.14285714285715 L 124.44119297161426,57.14285714285715 L 124.4671582675436,57.14285714285715 L 124.49842772330392,57.14285714285715 L 125.99063482332078,57.14285714285715 L 126.01663595816788,57.14285714285715 L 126.04803085014042,57.14285714285715 L 127.53557889084627,57.14285714285715 L 127.56521767584775,57.14285714285715 L 127.59645129269029,57.14285714285715 L 129.08880174837822,57.14285714285715 L 129.11700697666862,57.14285714285715 L 129.15046260641333,57.14285714285715 L 130.63806440549587,57.14285714285715 L 130.6638684262952,57.14285714285715 L 130.70008365270874,57.14285714285715 L 132.1817541108992,57.14285714285715 L 132.2072893398152,57.14285714285715 L 132.23789577559666,57.14285714285715 L 133.72969072805904,57.14285714285715 L 133.75547682939953,57.14285714285715 L 133.78663876840648,57.14285714285715 L 135.27963432461442,57.14285714285715 L 135.3011018363628,57.14285714285715 L 135.33186954727424,57.14285714285715 L 136.8277501363632,57.14285714285715 L 136.85280153988924,57.14285714285715 L 136.87357019274094,57.14285714285715 L 138.3739127270931,57.14285714285715 L 138.39778144633252,57.14285714285715 L 138.42797573455954,57.14285714285715 L 139.9182654524753,57.14285714285715 L 139.95415812862885,57.14285714285715 L 139.98668194651137,57.14285714285715 L 141.4731010613072,57.14285714285715 L 141.49976521613323,57.14285714285715 L 141.53099883297577,57.14285714285715 L 143.0216648595282,57.14285714285715 L 143.04773767221087,57.14285714285715 L 143.07291451194914,57.14285714285715 L 144.57159053662468,57.14285714285715 L 144.59395402131747,57.14285714285715 L 144.6199909950824,57.14285714285715 L 146.11553111445244,57.14285714285715 L 146.1410305044507,57.14285714285715 L 146.16973747758996,57.14285714285715 L 147.6662631671989,57.14285714285715 L 147.68848329622057,57.14285714285715 L 147.71926892659093,57.14285714285715 L 149.20346602848463,57.14285714285715 L 149.23706501390046,57.14285714285715 L 149.26801191940078,57.14285714285715 L 150.76313989121644,57.14285714285715 L 150.79188270327347,57.14285714285715 L 150.82109142126163,57.14285714285715 L 152.31225919266294,57.14285714285715 L 152.34220260846553,57.14285714285715 L 152.37589119117578,57.14285714285715 L 153.8555905088885,57.14285714285715 L 153.88073150970897,57.14285714285715 L 153.9095101606838,57.14285714285715 L 155.4042080654861,57.14285714285715 L 155.42291598056568,57.14285714285715 L 155.4558340265437,57.14285714285715 L 156.9535424004393,57.14285714285715 L 156.97613883809763,57.14285714285715 L 157.00687071009128,57.14285714285715 L 158.5034501580769,57.14285714285715 L 158.526082434653,57.14285714285715 L 158.55297954244455,57.14285714285715 L 160.04909308449905,40 L 160.07204791133515,40 L 160.10150750174773,40 L 161.59882164754777,40 L 161.62263660841052,40 L 161.6558413657308,40 L 163.13821068281788,40 L 163.17154087635038,40 L 163.2041722109862,40 L 164.69594924398973,40 L 164.71345655532372,40 L 164.74331037383186,40 L 166.2413950563641,40 L 166.2658909566646,40 L 166.29811014374602,40 L 167.78332865479635,40 L 167.81547616404222,40 L 167.84420105664037,40 L 169.3384509749705,40 L 169.36373533146207,40 L 169.39149257328026,40 L 170.8844881294882,40 L 170.9092886605898,40 L 170.93435798357473,40 L 170.97408542393038,40 L 172.43832024862238,40 L 172.46448265859948,40 L 172.49168439719213,40 L 173.98550424850893,40 L 174.0115949806505,40 L 174.040104839742,40 L 175.53295704027883,40 L 175.55696911518933,40 L 175.58436796782976,40 L 177.07664674568215,40 L 177.10549707449252,40 L 178.6357651051884,40 L 178.6532903359813,40 L 178.68110133617614,40 L 180.17630098582737,40 L 180.20097608071674,40 L 180.23147499974485,40 L 181.72416592515168,40 L 181.74824967789775,40 L 181.77532598027815,40 L 183.2751130114048,40 L 183.30095287112195,40 L 183.33333333333334,40" fill="none" stroke="none"/>
  </g>
  <!-- 🔓 Public Contributions Chart -->
  <g transform="translate(293.33333333333337, 250)">
    <!-- Chart Background -->
    <rect x="0" y="0" width="213.33333333333334" height="200" fill="#ffffff" stroke="#e2e8f0" stroke-width="1" rx="8" filter="url(#shadow)">
      <animate attributeName="opacity" values="0;1" dur="0.5s" begin="2.3s" fill="freeze"/>
    </rect>
    
    <!-- Chart Title -->
    <text x="106.66666666666667" y="25" text-anchor="middle" fill="#1e293b" font-size="14" font-weight="bold" font-family="Arial, sans-serif">
      🔓 Public Contributions
      <animate attributeName="opacity" values="0;1" dur="0.5s" begin="2.5s" fill="freeze"/>
    </text>
    
    <!-- Y-axis labels -->
    <text x="10" y="45" fill="#64748b" font-size="10" font-family="Arial, sans-serif">2,669
      <animate attributeName="opacity" values="0;1" dur="0.5s" begin="2.6999999999999997s" fill="freeze"/>
    </text>
    <text x="10" y="185" fill="#64748b" font-size="10" font-family="Arial, sans-serif">1,491
      <animate attributeName="opacity" values="0;1" dur="0.5s" begin="2.6999999999999997s" fill="freeze"/>
    </text>
    
    <!-- Chart Line with draw animation that follows the circle -->
    <path d="M 30,160 L 30.024961806231595,160 L 30.05182307510536,160 L 31.5491372209054,160 L 31.580030368029067,160 L 31.610475528680524,160 L 33.097593502373044,160 L 33.124759402047914,160 L 33.156369327527116,160 L 34.672982730550004,160 L 34.70176138152483,160 L 36.19420143450722,160 L 36.218267267794396,160 L 36.24973383760249,160 L 37.7395038912105,160 L 37.76570214010539,160 L 37.79842307203568,160 L 39.28731507215816,160 L 39.31627291772187,160 L 39.34584002488779,160 L 40.83559215903691,160 L 40.86182624684958,160 L 40.893364494493234,160 L 42.38766817120002,160 L 42.416966486482615,160 L 42.447752116852946,160 L 43.93653660022209,160 L 43.962089748597,160 L 43.99412974108953,160 L 45.48343388876644,160 L 45.506317037766976,160 L 45.534199715797385,160 L 47.03022366055745,160 L 47.05873351964896,160 L 47.0873508954938,160 L 48.57647584858182,160 L 48.603928459598905,160 L 48.635359190489226,160 L 50.1231581036195,160 L 50.14903380225441,160 L 50.18383339141575,160 L 51.66697324523504,160 L 51.698063506406484,160 L 51.72906417028348,160 L 53.22381583346247,160 L 53.253508376840614,160 L 53.28678481199644,160 L 54.77442244999672,160 L 54.79938425622832,160 L 54.83282196651414,160 L 56.31920524239224,160 L 56.35318053644471,160 L 56.388983615303815,160 L 57.867715282236546,160 L 57.89344762520034,160 L 57.92514714797399,160 L 59.41871612686634,160 L 59.44090041697022,160 L 59.473262959722746,160 L 60.9626567046941,160 L 60.98905206763676,160 L 61.02033944285598,160 L 62.510324529970646,160 L 62.53691700696109,160 L 62.567899751379194,160 L 64.06313523994817,160 L 64.09033697854082,160 L 64.12619381577659,160 L 65.60908279717144,160 L 65.64235923232727,160 L 65.66413137487672,160 L 67.15605176355135,160 L 67.18232169028178,160 L 67.21489926654097,160 L 68.69900677114023,160 L 68.73427226623267,160 L 68.76460991013079,160 L 70.25418284969103,160 L 70.28127707153035,160 L 70.3132812251051,160 L 71.8038576543631,160 L 71.83041429243576,160 L 71.85933629908169,160 L 73.35200930502963,160 L 73.37921104362228,160 L 73.40777466109046,160 L 74.89946209679951,160 L 74.93150208929204,160 L 74.96447389364677,160 L 76.44730911666495,160 L 76.47694790166642,160 L 76.51036769249336,160 L 77.98687734652393,160 L 78.02651518958515,160 L 78.05900316854988,160 L 79.54370201529247,160 L 79.57210435763065,160 L 79.60297958529542,160 L 81.09224789405455,160 L 81.11885829050388,160 L 81.1506115716542,160 L 82.6383567264078,160 L 82.66640067956821,160 L 82.6980464439652,160 L 84.18752978623098,160 L 84.2101441433482,160 L 84.24551715519397,160 L 85.73870982544967,160 L 85.76963881149112,160 L 85.80596155465798,160 L 87.28908348901837,160 L 87.31569388546771,160 L 87.34759052228912,160 L 88.83501312678274,133.3106960950764 L 88.86090674487653,133.3106960950764 L 88.89421901895014,133.3106960950764 L 90.3800467916027,133.3106960950764 L 90.40579705402538,133.3106960950764 L 90.4410983880356,133.3106960950764 L 91.92072602791275,133.3106960950764 L 91.95588400625186,133.3106960950764 L 91.99154372943985,133.3106960950764 L 93.47796284423573,133.3106960950764 L 93.49996793975073,133.3106960950764 L 93.53297558302323,133.3106960950764 L 95.02568442788895,133.3106960950764 L 95.05164972381829,133.3106960950764 L 95.08533830652856,133.3106960950764 L 96.56862151601895,133.3106960950764 L 96.60809808395018,133.3106960950764 L 96.64158955261267,133.3106960950764 L 98.12288370216643,133.3106960950764 L 98.1554971173434,133.3106960950764 L 98.18861227736923,133.3106960950764 L 99.674404211104,133.3106960950764 L 99.70440138528325,133.3106960950764 L 99.73715815613131,133.3106960950764 L 101.21911532566396,133.3106960950764 L 101.25002639224653,133.3106960950764 L 101.28201262636239,133.3106960950764 L 102.76577966124276,133.3106960950764 L 102.79681616403754,133.3106960950764 L 102.8312932029389,133.3106960950764 L 104.31681634479034,133.3106960950764 L 104.35201016204724,133.3106960950764 L 104.38593169772304,133.3106960950764 L 105.86407202251246,133.3106960950764 L 105.89399751885614,133.3106960950764 L 105.921647243921,133.3106960950764 L 107.41677521573665,133.3106960950764 L 107.44856433580475,133.3106960950764 L 107.48354311955498,133.3106960950764 L 108.96057243789329,133.3106960950764 L 108.99263034984472,133.3106960950764 L 109.02915020705935,133.3106960950764 L 110.5092616723265,133.3106960950764 L 110.53933052434128,133.3106960950764 L 110.57235608707268,133.3106960950764 L 112.05821969864301,133.3106960950764 L 112.08542143723565,133.3106960950764 L 112.12120659663586,133.3106960950764 L 113.60728524171286,133.3106960950764 L 113.63635060402991,133.3106960950764 L 113.66615066416138,133.3106960950764 L 115.15696004638492,133.3106960950764 L 115.18197561099316,133.3106960950764 L 115.21435607320458,133.3106960950764 L 116.70039887936379,133.3106960950764 L 116.72423175968542,133.3106960950764 L 116.75206067933915,133.3106960950764 L 118.25179395208913,133.3106960950764 L 118.27917488527068,133.3106960950764 L 118.31544387006088,133.3106960950764 L 119.79921090494125,133.3106960950764 L 119.8271831802661,133.3106960950764 L 119.86142726620191,133.3106960950764 L 121.34187920118792,133.3106960950764 L 121.36752194685728,133.3106960950764 L 121.40137180469753,133.3106960950764 L 122.88682326871343,133.3106960950764 L 122.91956212010261,133.3106960950764 L 122.95224721311513,133.3106960950764 L 124.44119297161426,133.3106960950764 L 124.4671582675436,133.3106960950764 L 124.49842772330392,133.3106960950764 L 125.99063482332078,133.3106960950764 L 126.01663595816788,133.3106960950764 L 126.04803085014042,133.3106960950764 L 127.53557889084627,133.3106960950764 L 127.56521767584775,133.3106960950764 L 127.59645129269029,133.3106960950764 L 129.08880174837822,133.3106960950764 L 129.11700697666862,133.3106960950764 L 129.15046260641333,133.3106960950764 L 130.63806440549587,133.3106960950764 L 130.6638684262952,133.3106960950764 L 130.70008365270874,133.3106960950764 L 132.1817541108992,133.3106960950764 L 132.2072893398152,133.3106960950764 L 132.23789577559666,133.3106960950764 L 133.72969072805904,133.3106960950764 L 133.75547682939953,133.3106960950764 L 133.78663876840648,133.3106960950764 L 135.27963432461442,133.3106960950764 L 135.3011018363628,133.3106960950764 L 135.33186954727424,133.3106960950764 L 136.8277501363632,133.3106960950764 L 136.85280153988924,133.3106960950764 L 136.87357019274094,133.3106960950764 L 138.3739127270931,133.3106960950764 L 138.39778144633252,133.3106960950764 L 138.42797573455954,133.3106960950764 L 139.9182654524753,133.3106960950764 L 139.95415812862885,133.3106960950764 L 139.98668194651137,133.3106960950764 L 141.4731010613072,133.3106960950764 L 141.49976521613323,133.3106960950764 L 141.53099883297577,133.3106960950764 L 143.0216648595282,133.3106960950764 L 143.04773767221087,133.3106960950764 L 143.07291451194914,133.3106960950764 L 144.57159053662468,133.3106960950764 L 144.59395402131747,133.3106960950764 L 144.6199909950824,133.3106960950764 L 146.11553111445244,133.3106960950764 L 146.1410305044507,133.3106960950764 L 146.16973747758996,133.3106960950764 L 147.6662631671989,133.3106960950764 L 147.68848329622057,133.3106960950764 L 147.71926892659093,133.3106960950764 L 149.20346602848463,133.3106960950764 L 149.23706501390046,133.3106960950764 L 149.26801191940078,133.3106960950764 L 150.76313989121644,133.3106960950764 L 150.79188270327347,133.3106960950764 L 150.82109142126163,133.3106960950764 L 152.31225919266294,133.3106960950764 L 152.34220260846553,133.3106960950764 L 152.37589119117578,133.3106960950764 L 153.8555905088885,133.3106960950764 L 153.88073150970897,133.3106960950764 L 153.9095101606838,133.3106960950764 L 155.4042080654861,133.3106960950764 L 155.42291598056568,133.3106960950764 L 155.4558340265437,133.3106960950764 L 156.9535424004393,133.3106960950764 L 156.97613883809763,133.3106960950764 L 157.00687071009128,133.3106960950764 L 158.5034501580769,133.3106960950764 L 158.526082434653,133.3106960950764 L 158.55297954244455,133.3106960950764 L 160.04909308449905,40 L 160.07204791133515,40 L 160.10150750174773,40 L 161.59882164754777,40 L 161.62263660841052,40 L 161.6558413657308,40 L 163.13821068281788,40 L 163.17154087635038,40 L 163.2041722109862,40 L 164.69594924398973,40 L 164.71345655532372,40 L 164.74331037383186,40 L 166.2413950563641,40 L 166.2658909566646,40 L 166.29811014374602,40 L 167.78332865479635,40 L 167.81547616404222,40 L 167.84420105664037,40 L 169.3384509749705,40 L 169.36373533146207,40 L 169.39149257328026,40 L 170.8844881294882,40 L 170.9092886605898,40 L 170.93435798357473,40 L 170.97408542393038,40 L 172.43832024862238,40 L 172.46448265859948,40 L 172.49168439719213,40 L 173.98550424850893,40 L 174.0115949806505,40 L 174.040104839742,40 L 175.53295704027883,40 L 175.55696911518933,40 L 175.58436796782976,40 L 177.07664674568215,40 L 177.10549707449252,40 L 178.6357651051884,40 L 178.6532903359813,40 L 178.68110133617614,40 L 180.17630098582737,40 L 180.20097608071674,40 L 180.23147499974485,40 L 181.72416592515168,40 L 181.74824967789775,40 L 181.77532598027815,40 L 183.2751130114048,40 L 183.30095287112195,40 L 183.33333333333334,40" stroke="#3b82f6" stroke-width="2" fill="none" stroke-dasharray="14950" stroke-dashoffset="14950">
      <animate attributeName="stroke-dashoffset" values="14950;0" dur="3s" begin="3.0999999999999996s" fill="freeze"/>
    </path>
    
    <!-- Glow effect for the line that also follows the circle -->
    <path d="M 30,160 L 30.024961806231595,160 L 30.05182307510536,160 L 31.5491372209054,160 L 31.580030368029067,160 L 31.610475528680524,160 L 33.097593502373044,160 L 33.124759402047914,160 L 33.156369327527116,160 L 34.672982730550004,160 L 34.70176138152483,160 L 36.19420143450722,160 L 36.218267267794396,160 L 36.24973383760249,160 L 37.7395038912105,160 L 37.76570214010539,160 L 37.79842307203568,160 L 39.28731507215816,160 L 39.31627291772187,160 L 39.34584002488779,160 L 40.83559215903691,160 L 40.86182624684958,160 L 40.893364494493234,160 L 42.38766817120002,160 L 42.416966486482615,160 L 42.447752116852946,160 L 43.93653660022209,160 L 43.962089748597,160 L 43.99412974108953,160 L 45.48343388876644,160 L 45.506317037766976,160 L 45.534199715797385,160 L 47.03022366055745,160 L 47.05873351964896,160 L 47.0873508954938,160 L 48.57647584858182,160 L 48.603928459598905,160 L 48.635359190489226,160 L 50.1231581036195,160 L 50.14903380225441,160 L 50.18383339141575,160 L 51.66697324523504,160 L 51.698063506406484,160 L 51.72906417028348,160 L 53.22381583346247,160 L 53.253508376840614,160 L 53.28678481199644,160 L 54.77442244999672,160 L 54.79938425622832,160 L 54.83282196651414,160 L 56.31920524239224,160 L 56.35318053644471,160 L 56.388983615303815,160 L 57.867715282236546,160 L 57.89344762520034,160 L 57.92514714797399,160 L 59.41871612686634,160 L 59.44090041697022,160 L 59.473262959722746,160 L 60.9626567046941,160 L 60.98905206763676,160 L 61.02033944285598,160 L 62.510324529970646,160 L 62.53691700696109,160 L 62.567899751379194,160 L 64.06313523994817,160 L 64.09033697854082,160 L 64.12619381577659,160 L 65.60908279717144,160 L 65.64235923232727,160 L 65.66413137487672,160 L 67.15605176355135,160 L 67.18232169028178,160 L 67.21489926654097,160 L 68.69900677114023,160 L 68.73427226623267,160 L 68.76460991013079,160 L 70.25418284969103,160 L 70.28127707153035,160 L 70.3132812251051,160 L 71.8038576543631,160 L 71.83041429243576,160 L 71.85933629908169,160 L 73.35200930502963,160 L 73.37921104362228,160 L 73.40777466109046,160 L 74.89946209679951,160 L 74.93150208929204,160 L 74.96447389364677,160 L 76.44730911666495,160 L 76.47694790166642,160 L 76.51036769249336,160 L 77.98687734652393,160 L 78.02651518958515,160 L 78.05900316854988,160 L 79.54370201529247,160 L 79.57210435763065,160 L 79.60297958529542,160 L 81.09224789405455,160 L 81.11885829050388,160 L 81.1506115716542,160 L 82.6383567264078,160 L 82.66640067956821,160 L 82.6980464439652,160 L 84.18752978623098,160 L 84.2101441433482,160 L 84.24551715519397,160 L 85.73870982544967,160 L 85.76963881149112,160 L 85.80596155465798,160 L 87.28908348901837,160 L 87.31569388546771,160 L 87.34759052228912,160 L 88.83501312678274,133.3106960950764 L 88.86090674487653,133.3106960950764 L 88.89421901895014,133.3106960950764 L 90.3800467916027,133.3106960950764 L 90.40579705402538,133.3106960950764 L 90.4410983880356,133.3106960950764 L 91.92072602791275,133.3106960950764 L 91.95588400625186,133.3106960950764 L 91.99154372943985,133.3106960950764 L 93.47796284423573,133.3106960950764 L 93.49996793975073,133.3106960950764 L 93.53297558302323,133.3106960950764 L 95.02568442788895,133.3106960950764 L 95.05164972381829,133.3106960950764 L 95.08533830652856,133.3106960950764 L 96.56862151601895,133.3106960950764 L 96.60809808395018,133.3106960950764 L 96.64158955261267,133.3106960950764 L 98.12288370216643,133.3106960950764 L 98.1554971173434,133.3106960950764 L 98.18861227736923,133.3106960950764 L 99.674404211104,133.3106960950764 L 99.70440138528325,133.3106960950764 L 99.73715815613131,133.3106960950764 L 101.21911532566396,133.3106960950764 L 101.25002639224653,133.3106960950764 L 101.28201262636239,133.3106960950764 L 102.76577966124276,133.3106960950764 L 102.79681616403754,133.3106960950764 L 102.8312932029389,133.3106960950764 L 104.31681634479034,133.3106960950764 L 104.35201016204724,133.3106960950764 L 104.38593169772304,133.3106960950764 L 105.86407202251246,133.3106960950764 L 105.89399751885614,133.3106960950764 L 105.921647243921,133.3106960950764 L 107.41677521573665,133.3106960950764 L 107.44856433580475,133.3106960950764 L 107.48354311955498,133.3106960950764 L 108.96057243789329,133.3106960950764 L 108.99263034984472,133.3106960950764 L 109.02915020705935,133.3106960950764 L 110.5092616723265,133.3106960950764 L 110.53933052434128,133.3106960950764 L 110.57235608707268,133.3106960950764 L 112.05821969864301,133.3106960950764 L 112.08542143723565,133.3106960950764 L 112.12120659663586,133.3106960950764 L 113.60728524171286,133.3106960950764 L 113.63635060402991,133.3106960950764 L 113.66615066416138,133.3106960950764 L 115.15696004638492,133.3106960950764 L 115.18197561099316,133.3106960950764 L 115.21435607320458,133.3106960950764 L 116.70039887936379,133.3106960950764 L 116.72423175968542,133.3106960950764 L 116.75206067933915,133.3106960950764 L 118.25179395208913,133.3106960950764 L 118.27917488527068,133.3106960950764 L 118.31544387006088,133.3106960950764 L 119.79921090494125,133.3106960950764 L 119.8271831802661,133.3106960950764 L 119.86142726620191,133.3106960950764 L 121.34187920118792,133.3106960950764 L 121.36752194685728,133.3106960950764 L 121.40137180469753,133.3106960950764 L 122.88682326871343,133.3106960950764 L 122.91956212010261,133.3106960950764 L 122.95224721311513,133.3106960950764 L 124.44119297161426,133.3106960950764 L 124.4671582675436,133.3106960950764 L 124.49842772330392,133.3106960950764 L 125.99063482332078,133.3106960950764 L 126.01663595816788,133.3106960950764 L 126.04803085014042,133.3106960950764 L 127.53557889084627,133.3106960950764 L 127.56521767584775,133.3106960950764 L 127.59645129269029,133.3106960950764 L 129.08880174837822,133.3106960950764 L 129.11700697666862,133.3106960950764 L 129.15046260641333,133.3106960950764 L 130.63806440549587,133.3106960950764 L 130.6638684262952,133.3106960950764 L 130.70008365270874,133.3106960950764 L 132.1817541108992,133.3106960950764 L 132.2072893398152,133.3106960950764 L 132.23789577559666,133.3106960950764 L 133.72969072805904,133.3106960950764 L 133.75547682939953,133.3106960950764 L 133.78663876840648,133.3106960950764 L 135.27963432461442,133.3106960950764 L 135.3011018363628,133.3106960950764 L 135.33186954727424,133.3106960950764 L 136.8277501363632,133.3106960950764 L 136.85280153988924,133.3106960950764 L 136.87357019274094,133.3106960950764 L 138.3739127270931,133.3106960950764 L 138.39778144633252,133.3106960950764 L 138.42797573455954,133.3106960950764 L 139.9182654524753,133.3106960950764 L 139.95415812862885,133.3106960950764 L 139.98668194651137,133.3106960950764 L 141.4731010613072,133.3106960950764 L 141.49976521613323,133.3106960950764 L 141.53099883297577,133.3106960950764 L 143.0216648595282,133.3106960950764 L 143.04773767221087,133.3106960950764 L 143.07291451194914,133.3106960950764 L 144.57159053662468,133.3106960950764 L 144.59395402131747,133.3106960950764 L 144.6199909950824,133.3106960950764 L 146.11553111445244,133.3106960950764 L 146.1410305044507,133.3106960950764 L 146.16973747758996,133.3106960950764 L 147.6662631671989,133.3106960950764 L 147.68848329622057,133.3106960950764 L 147.71926892659093,133.3106960950764 L 149.20346602848463,133.3106960950764 L 149.23706501390046,133.3106960950764 L 149.26801191940078,133.3106960950764 L 150.76313989121644,133.3106960950764 L 150.79188270327347,133.3106960950764 L 150.82109142126163,133.3106960950764 L 152.31225919266294,133.3106960950764 L 152.34220260846553,133.3106960950764 L 152.37589119117578,133.3106960950764 L 153.8555905088885,133.3106960950764 L 153.88073150970897,133.3106960950764 L 153.9095101606838,133.3106960950764 L 155.4042080654861,133.3106960950764 L 155.42291598056568,133.3106960950764 L 155.4558340265437,133.3106960950764 L 156.9535424004393,133.3106960950764 L 156.97613883809763,133.3106960950764 L 157.00687071009128,133.3106960950764 L 158.5034501580769,133.3106960950764 L 158.526082434653,133.3106960950764 L 158.55297954244455,133.3106960950764 L 160.04909308449905,40 L 160.07204791133515,40 L 160.10150750174773,40 L 161.59882164754777,40 L 161.62263660841052,40 L 161.6558413657308,40 L 163.13821068281788,40 L 163.17154087635038,40 L 163.2041722109862,40 L 164.69594924398973,40 L 164.71345655532372,40 L 164.74331037383186,40 L 166.2413950563641,40 L 166.2658909566646,40 L 166.29811014374602,40 L 167.78332865479635,40 L 167.81547616404222,40 L 167.84420105664037,40 L 169.3384509749705,40 L 169.36373533146207,40 L 169.39149257328026,40 L 170.8844881294882,40 L 170.9092886605898,40 L 170.93435798357473,40 L 170.97408542393038,40 L 172.43832024862238,40 L 172.46448265859948,40 L 172.49168439719213,40 L 173.98550424850893,40 L 174.0115949806505,40 L 174.040104839742,40 L 175.53295704027883,40 L 175.55696911518933,40 L 175.58436796782976,40 L 177.07664674568215,40 L 177.10549707449252,40 L 178.6357651051884,40 L 178.6532903359813,40 L 178.68110133617614,40 L 180.17630098582737,40 L 180.20097608071674,40 L 180.23147499974485,40 L 181.72416592515168,40 L 181.74824967789775,40 L 181.77532598027815,40 L 183.2751130114048,40 L 183.30095287112195,40 L 183.33333333333334,40" stroke="#3b82f6" stroke-width="4" fill="none" opacity="0.4" stroke-dasharray="14950" stroke-dashoffset="14950">
      <animate attributeName="stroke-dashoffset" values="14950;0" dur="3s" begin="3.0999999999999996s" fill="freeze"/>
    </path>
    
    <!-- Animated circle that moves along the path and draws the line -->
    <circle r="5" fill="#3b82f6" opacity="0" filter="url(#trailGlow)">
      <animate attributeName="opacity" values="0;1;1;1" dur="3.2s" begin="2.9s" fill="freeze"/>
      <animate attributeName="r" values="5;6;5" dur="1s" begin="2.9s" repeatCount="3"/>
      <animateMotion dur="3s" begin="2.9s" fill="freeze">
        <mpath href="#path_publicContributions_293.33333333333337"/>
      </animateMotion>
    </circle>
    
    <!-- Small trail dots that fade out -->
    <circle r="2" fill="#3b82f6" opacity="0">
      <animate attributeName="opacity" values="0;0.6;0" dur="0.8s" begin="3.3s" fill="freeze"/>
      <animateMotion dur="3s" begin="2.9s" fill="freeze">
        <mpath href="#path_publicContributions_293.33333333333337"/>
      </animateMotion>
    </circle>
    
    <!-- Hidden path for motion animation -->
    <path id="path_publicContributions_293.33333333333337" d="M 30,160 L 30.024961806231595,160 L 30.05182307510536,160 L 31.5491372209054,160 L 31.580030368029067,160 L 31.610475528680524,160 L 33.097593502373044,160 L 33.124759402047914,160 L 33.156369327527116,160 L 34.672982730550004,160 L 34.70176138152483,160 L 36.19420143450722,160 L 36.218267267794396,160 L 36.24973383760249,160 L 37.7395038912105,160 L 37.76570214010539,160 L 37.79842307203568,160 L 39.28731507215816,160 L 39.31627291772187,160 L 39.34584002488779,160 L 40.83559215903691,160 L 40.86182624684958,160 L 40.893364494493234,160 L 42.38766817120002,160 L 42.416966486482615,160 L 42.447752116852946,160 L 43.93653660022209,160 L 43.962089748597,160 L 43.99412974108953,160 L 45.48343388876644,160 L 45.506317037766976,160 L 45.534199715797385,160 L 47.03022366055745,160 L 47.05873351964896,160 L 47.0873508954938,160 L 48.57647584858182,160 L 48.603928459598905,160 L 48.635359190489226,160 L 50.1231581036195,160 L 50.14903380225441,160 L 50.18383339141575,160 L 51.66697324523504,160 L 51.698063506406484,160 L 51.72906417028348,160 L 53.22381583346247,160 L 53.253508376840614,160 L 53.28678481199644,160 L 54.77442244999672,160 L 54.79938425622832,160 L 54.83282196651414,160 L 56.31920524239224,160 L 56.35318053644471,160 L 56.388983615303815,160 L 57.867715282236546,160 L 57.89344762520034,160 L 57.92514714797399,160 L 59.41871612686634,160 L 59.44090041697022,160 L 59.473262959722746,160 L 60.9626567046941,160 L 60.98905206763676,160 L 61.02033944285598,160 L 62.510324529970646,160 L 62.53691700696109,160 L 62.567899751379194,160 L 64.06313523994817,160 L 64.09033697854082,160 L 64.12619381577659,160 L 65.60908279717144,160 L 65.64235923232727,160 L 65.66413137487672,160 L 67.15605176355135,160 L 67.18232169028178,160 L 67.21489926654097,160 L 68.69900677114023,160 L 68.73427226623267,160 L 68.76460991013079,160 L 70.25418284969103,160 L 70.28127707153035,160 L 70.3132812251051,160 L 71.8038576543631,160 L 71.83041429243576,160 L 71.85933629908169,160 L 73.35200930502963,160 L 73.37921104362228,160 L 73.40777466109046,160 L 74.89946209679951,160 L 74.93150208929204,160 L 74.96447389364677,160 L 76.44730911666495,160 L 76.47694790166642,160 L 76.51036769249336,160 L 77.98687734652393,160 L 78.02651518958515,160 L 78.05900316854988,160 L 79.54370201529247,160 L 79.57210435763065,160 L 79.60297958529542,160 L 81.09224789405455,160 L 81.11885829050388,160 L 81.1506115716542,160 L 82.6383567264078,160 L 82.66640067956821,160 L 82.6980464439652,160 L 84.18752978623098,160 L 84.2101441433482,160 L 84.24551715519397,160 L 85.73870982544967,160 L 85.76963881149112,160 L 85.80596155465798,160 L 87.28908348901837,160 L 87.31569388546771,160 L 87.34759052228912,160 L 88.83501312678274,133.3106960950764 L 88.86090674487653,133.3106960950764 L 88.89421901895014,133.3106960950764 L 90.3800467916027,133.3106960950764 L 90.40579705402538,133.3106960950764 L 90.4410983880356,133.3106960950764 L 91.92072602791275,133.3106960950764 L 91.95588400625186,133.3106960950764 L 91.99154372943985,133.3106960950764 L 93.47796284423573,133.3106960950764 L 93.49996793975073,133.3106960950764 L 93.53297558302323,133.3106960950764 L 95.02568442788895,133.3106960950764 L 95.05164972381829,133.3106960950764 L 95.08533830652856,133.3106960950764 L 96.56862151601895,133.3106960950764 L 96.60809808395018,133.3106960950764 L 96.64158955261267,133.3106960950764 L 98.12288370216643,133.3106960950764 L 98.1554971173434,133.3106960950764 L 98.18861227736923,133.3106960950764 L 99.674404211104,133.3106960950764 L 99.70440138528325,133.3106960950764 L 99.73715815613131,133.3106960950764 L 101.21911532566396,133.3106960950764 L 101.25002639224653,133.3106960950764 L 101.28201262636239,133.3106960950764 L 102.76577966124276,133.3106960950764 L 102.79681616403754,133.3106960950764 L 102.8312932029389,133.3106960950764 L 104.31681634479034,133.3106960950764 L 104.35201016204724,133.3106960950764 L 104.38593169772304,133.3106960950764 L 105.86407202251246,133.3106960950764 L 105.89399751885614,133.3106960950764 L 105.921647243921,133.3106960950764 L 107.41677521573665,133.3106960950764 L 107.44856433580475,133.3106960950764 L 107.48354311955498,133.3106960950764 L 108.96057243789329,133.3106960950764 L 108.99263034984472,133.3106960950764 L 109.02915020705935,133.3106960950764 L 110.5092616723265,133.3106960950764 L 110.53933052434128,133.3106960950764 L 110.57235608707268,133.3106960950764 L 112.05821969864301,133.3106960950764 L 112.08542143723565,133.3106960950764 L 112.12120659663586,133.3106960950764 L 113.60728524171286,133.3106960950764 L 113.63635060402991,133.3106960950764 L 113.66615066416138,133.3106960950764 L 115.15696004638492,133.3106960950764 L 115.18197561099316,133.3106960950764 L 115.21435607320458,133.3106960950764 L 116.70039887936379,133.3106960950764 L 116.72423175968542,133.3106960950764 L 116.75206067933915,133.3106960950764 L 118.25179395208913,133.3106960950764 L 118.27917488527068,133.3106960950764 L 118.31544387006088,133.3106960950764 L 119.79921090494125,133.3106960950764 L 119.8271831802661,133.3106960950764 L 119.86142726620191,133.3106960950764 L 121.34187920118792,133.3106960950764 L 121.36752194685728,133.3106960950764 L 121.40137180469753,133.3106960950764 L 122.88682326871343,133.3106960950764 L 122.91956212010261,133.3106960950764 L 122.95224721311513,133.3106960950764 L 124.44119297161426,133.3106960950764 L 124.4671582675436,133.3106960950764 L 124.49842772330392,133.3106960950764 L 125.99063482332078,133.3106960950764 L 126.01663595816788,133.3106960950764 L 126.04803085014042,133.3106960950764 L 127.53557889084627,133.3106960950764 L 127.56521767584775,133.3106960950764 L 127.59645129269029,133.3106960950764 L 129.08880174837822,133.3106960950764 L 129.11700697666862,133.3106960950764 L 129.15046260641333,133.3106960950764 L 130.63806440549587,133.3106960950764 L 130.6638684262952,133.3106960950764 L 130.70008365270874,133.3106960950764 L 132.1817541108992,133.3106960950764 L 132.2072893398152,133.3106960950764 L 132.23789577559666,133.3106960950764 L 133.72969072805904,133.3106960950764 L 133.75547682939953,133.3106960950764 L 133.78663876840648,133.3106960950764 L 135.27963432461442,133.3106960950764 L 135.3011018363628,133.3106960950764 L 135.33186954727424,133.3106960950764 L 136.8277501363632,133.3106960950764 L 136.85280153988924,133.3106960950764 L 136.87357019274094,133.3106960950764 L 138.3739127270931,133.3106960950764 L 138.39778144633252,133.3106960950764 L 138.42797573455954,133.3106960950764 L 139.9182654524753,133.3106960950764 L 139.95415812862885,133.3106960950764 L 139.98668194651137,133.3106960950764 L 141.4731010613072,133.3106960950764 L 141.49976521613323,133.3106960950764 L 141.53099883297577,133.3106960950764 L 143.0216648595282,133.3106960950764 L 143.04773767221087,133.3106960950764 L 143.07291451194914,133.3106960950764 L 144.57159053662468,133.3106960950764 L 144.59395402131747,133.3106960950764 L 144.6199909950824,133.3106960950764 L 146.11553111445244,133.3106960950764 L 146.1410305044507,133.3106960950764 L 146.16973747758996,133.3106960950764 L 147.6662631671989,133.3106960950764 L 147.68848329622057,133.3106960950764 L 147.71926892659093,133.3106960950764 L 149.20346602848463,133.3106960950764 L 149.23706501390046,133.3106960950764 L 149.26801191940078,133.3106960950764 L 150.76313989121644,133.3106960950764 L 150.79188270327347,133.3106960950764 L 150.82109142126163,133.3106960950764 L 152.31225919266294,133.3106960950764 L 152.34220260846553,133.3106960950764 L 152.37589119117578,133.3106960950764 L 153.8555905088885,133.3106960950764 L 153.88073150970897,133.3106960950764 L 153.9095101606838,133.3106960950764 L 155.4042080654861,133.3106960950764 L 155.42291598056568,133.3106960950764 L 155.4558340265437,133.3106960950764 L 156.9535424004393,133.3106960950764 L 156.97613883809763,133.3106960950764 L 157.00687071009128,133.3106960950764 L 158.5034501580769,133.3106960950764 L 158.526082434653,133.3106960950764 L 158.55297954244455,133.3106960950764 L 160.04909308449905,40 L 160.07204791133515,40 L 160.10150750174773,40 L 161.59882164754777,40 L 161.62263660841052,40 L 161.6558413657308,40 L 163.13821068281788,40 L 163.17154087635038,40 L 163.2041722109862,40 L 164.69594924398973,40 L 164.71345655532372,40 L 164.74331037383186,40 L 166.2413950563641,40 L 166.2658909566646,40 L 166.29811014374602,40 L 167.78332865479635,40 L 167.81547616404222,40 L 167.84420105664037,40 L 169.3384509749705,40 L 169.36373533146207,40 L 169.39149257328026,40 L 170.8844881294882,40 L 170.9092886605898,40 L 170.93435798357473,40 L 170.97408542393038,40 L 172.43832024862238,40 L 172.46448265859948,40 L 172.49168439719213,40 L 173.98550424850893,40 L 174.0115949806505,40 L 174.040104839742,40 L 175.53295704027883,40 L 175.55696911518933,40 L 175.58436796782976,40 L 177.07664674568215,40 L 177.10549707449252,40 L 178.6357651051884,40 L 178.6532903359813,40 L 178.68110133617614,40 L 180.17630098582737,40 L 180.20097608071674,40 L 180.23147499974485,40 L 181.72416592515168,40 L 181.74824967789775,40 L 181.77532598027815,40 L 183.2751130114048,40 L 183.30095287112195,40 L 183.33333333333334,40" fill="none" stroke="none"/>
  </g>
  <!-- 📊 Total Contributions Chart -->
  <g transform="translate(526.6666666666667, 250)">
    <!-- Chart Background -->
    <rect x="0" y="0" width="213.33333333333334" height="200" fill="#ffffff" stroke="#e2e8f0" stroke-width="1" rx="8" filter="url(#shadow)">
      <animate attributeName="opacity" values="0;1" dur="0.5s" begin="2.8s" fill="freeze"/>
    </rect>
    
    <!-- Chart Title -->
    <text x="106.66666666666667" y="25" text-anchor="middle" fill="#1e293b" font-size="14" font-weight="bold" font-family="Arial, sans-serif">
      📊 Total Contributions
      <animate attributeName="opacity" values="0;1" dur="0.5s" begin="3s" fill="freeze"/>
    </text>
    
    <!-- Y-axis labels -->
    <text x="10" y="45" fill="#64748b" font-size="10" font-family="Arial, sans-serif">3,802
      <animate attributeName="opacity" values="0;1" dur="0.5s" begin="3.1999999999999997s" fill="freeze"/>
    </text>
    <text x="10" y="185" fill="#64748b" font-size="10" font-family="Arial, sans-serif">2,320
      <animate attributeName="opacity" values="0;1" dur="0.5s" begin="3.1999999999999997s" fill="freeze"/>
    </text>
    
    <!-- Chart Line with draw animation that follows the circle -->
    <path d="M 30,160 L 30.024961806231595,160 L 30.05182307510536,160 L 31.5491372209054,160 L 31.580030368029067,160 L 31.610475528680524,160 L 33.097593502373044,160 L 33.124759402047914,160 L 33.156369327527116,160 L 34.672982730550004,160 L 34.70176138152483,160 L 36.19420143450722,160 L 36.218267267794396,160 L 36.24973383760249,160 L 37.7395038912105,160 L 37.76570214010539,160 L 37.79842307203568,160 L 39.28731507215816,160 L 39.31627291772187,160 L 39.34584002488779,160 L 40.83559215903691,160 L 40.86182624684958,160 L 40.893364494493234,160 L 42.38766817120002,160 L 42.416966486482615,160 L 42.447752116852946,160 L 43.93653660022209,160 L 43.962089748597,160 L 43.99412974108953,160 L 45.48343388876644,160 L 45.506317037766976,160 L 45.534199715797385,160 L 47.03022366055745,160 L 47.05873351964896,160 L 47.0873508954938,160 L 48.57647584858182,160 L 48.603928459598905,160 L 48.635359190489226,160 L 50.1231581036195,160 L 50.14903380225441,160 L 50.18383339141575,160 L 51.66697324523504,160 L 51.698063506406484,160 L 51.72906417028348,160 L 53.22381583346247,160 L 53.253508376840614,160 L 53.28678481199644,160 L 54.77442244999672,160 L 54.79938425622832,160 L 54.83282196651414,160 L 56.31920524239224,160 L 56.35318053644471,160 L 56.388983615303815,160 L 57.867715282236546,160 L 57.89344762520034,160 L 57.92514714797399,160 L 59.41871612686634,160 L 59.44090041697022,160 L 59.473262959722746,160 L 60.9626567046941,160 L 60.98905206763676,160 L 61.02033944285598,160 L 62.510324529970646,160 L 62.53691700696109,160 L 62.567899751379194,160 L 64.06313523994817,160 L 64.09033697854082,160 L 64.12619381577659,160 L 65.60908279717144,160 L 65.64235923232727,160 L 65.66413137487672,160 L 67.15605176355135,160 L 67.18232169028178,160 L 67.21489926654097,160 L 68.69900677114023,160 L 68.73427226623267,160 L 68.76460991013079,160 L 70.25418284969103,160 L 70.28127707153035,160 L 70.3132812251051,160 L 71.8038576543631,160 L 71.83041429243576,160 L 71.85933629908169,160 L 73.35200930502963,160 L 73.37921104362228,160 L 73.40777466109046,160 L 74.89946209679951,160 L 74.93150208929204,160 L 74.96447389364677,160 L 76.44730911666495,160 L 76.47694790166642,160 L 76.51036769249336,160 L 77.98687734652393,160 L 78.02651518958515,160 L 78.05900316854988,160 L 79.54370201529247,160 L 79.57210435763065,160 L 79.60297958529542,160 L 81.09224789405455,160 L 81.11885829050388,160 L 81.1506115716542,160 L 82.6383567264078,160 L 82.66640067956821,160 L 82.6980464439652,160 L 84.18752978623098,160 L 84.2101441433482,160 L 84.24551715519397,160 L 85.73870982544967,160 L 85.76963881149112,160 L 85.80596155465798,160 L 87.28908348901837,160 L 87.31569388546771,160 L 87.34759052228912,160 L 88.83501312678274,137.48987854251013 L 88.86090674487653,137.48987854251013 L 88.89421901895014,137.48987854251013 L 90.3800467916027,137.48987854251013 L 90.40579705402538,137.48987854251013 L 90.4410983880356,137.48987854251013 L 91.92072602791275,137.48987854251013 L 91.95588400625186,137.48987854251013 L 91.99154372943985,137.48987854251013 L 93.47796284423573,137.48987854251013 L 93.49996793975073,137.48987854251013 L 93.53297558302323,137.48987854251013 L 95.02568442788895,137.48987854251013 L 95.05164972381829,137.48987854251013 L 95.08533830652856,137.48987854251013 L 96.56862151601895,137.48987854251013 L 96.60809808395018,137.48987854251013 L 96.64158955261267,137.48987854251013 L 98.12288370216643,137.48987854251013 L 98.1554971173434,137.48987854251013 L 98.18861227736923,137.48987854251013 L 99.674404211104,137.48987854251013 L 99.70440138528325,137.48987854251013 L 99.73715815613131,137.48987854251013 L 101.21911532566396,137.48987854251013 L 101.25002639224653,137.48987854251013 L 101.28201262636239,137.48987854251013 L 102.76577966124276,137.48987854251013 L 102.79681616403754,137.48987854251013 L 102.8312932029389,137.48987854251013 L 104.31681634479034,137.48987854251013 L 104.35201016204724,137.48987854251013 L 104.38593169772304,137.48987854251013 L 105.86407202251246,137.48987854251013 L 105.89399751885614,137.48987854251013 L 105.921647243921,137.48987854251013 L 107.41677521573665,137.48987854251013 L 107.44856433580475,137.48987854251013 L 107.48354311955498,137.48987854251013 L 108.96057243789329,137.48987854251013 L 108.99263034984472,137.48987854251013 L 109.02915020705935,137.48987854251013 L 110.5092616723265,137.48987854251013 L 110.53933052434128,137.48987854251013 L 110.57235608707268,137.48987854251013 L 112.05821969864301,137.48987854251013 L 112.08542143723565,137.48987854251013 L 112.12120659663586,137.48987854251013 L 113.60728524171286,137.48987854251013 L 113.63635060402991,137.48987854251013 L 113.66615066416138,137.48987854251013 L 115.15696004638492,137.48987854251013 L 115.18197561099316,137.48987854251013 L 115.21435607320458,137.48987854251013 L 116.70039887936379,137.48987854251013 L 116.72423175968542,137.48987854251013 L 116.75206067933915,137.48987854251013 L 118.25179395208913,137.48987854251013 L 118.27917488527068,137.48987854251013 L 118.31544387006088,137.48987854251013 L 119.79921090494125,137.48987854251013 L 119.8271831802661,137.48987854251013 L 119.86142726620191,137.48987854251013 L 121.34187920118792,137.48987854251013 L 121.36752194685728,137.48987854251013 L 121.40137180469753,137.48987854251013 L 122.88682326871343,137.48987854251013 L 122.91956212010261,137.48987854251013 L 122.95224721311513,137.48987854251013 L 124.44119297161426,137.48987854251013 L 124.4671582675436,137.48987854251013 L 124.49842772330392,137.48987854251013 L 125.99063482332078,137.48987854251013 L 126.01663595816788,137.48987854251013 L 126.04803085014042,137.48987854251013 L 127.53557889084627,137.48987854251013 L 127.56521767584775,137.48987854251013 L 127.59645129269029,137.48987854251013 L 129.08880174837822,137.48987854251013 L 129.11700697666862,137.48987854251013 L 129.15046260641333,137.48987854251013 L 130.63806440549587,137.48987854251013 L 130.6638684262952,137.48987854251013 L 130.70008365270874,137.48987854251013 L 132.1817541108992,137.48987854251013 L 132.2072893398152,137.48987854251013 L 132.23789577559666,137.48987854251013 L 133.72969072805904,137.48987854251013 L 133.75547682939953,137.48987854251013 L 133.78663876840648,137.48987854251013 L 135.27963432461442,137.48987854251013 L 135.3011018363628,137.48987854251013 L 135.33186954727424,137.48987854251013 L 136.8277501363632,137.48987854251013 L 136.85280153988924,137.48987854251013 L 136.87357019274094,137.48987854251013 L 138.3739127270931,137.48987854251013 L 138.39778144633252,137.48987854251013 L 138.42797573455954,137.48987854251013 L 139.9182654524753,137.48987854251013 L 139.95415812862885,137.48987854251013 L 139.98668194651137,137.48987854251013 L 141.4731010613072,137.48987854251013 L 141.49976521613323,137.48987854251013 L 141.53099883297577,137.48987854251013 L 143.0216648595282,137.48987854251013 L 143.04773767221087,137.48987854251013 L 143.07291451194914,137.48987854251013 L 144.57159053662468,137.48987854251013 L 144.59395402131747,137.48987854251013 L 144.6199909950824,137.48987854251013 L 146.11553111445244,137.48987854251013 L 146.1410305044507,137.48987854251013 L 146.16973747758996,137.48987854251013 L 147.6662631671989,137.48987854251013 L 147.68848329622057,137.48987854251013 L 147.71926892659093,137.48987854251013 L 149.20346602848463,137.48987854251013 L 149.23706501390046,137.48987854251013 L 149.26801191940078,137.48987854251013 L 150.76313989121644,137.48987854251013 L 150.79188270327347,137.48987854251013 L 150.82109142126163,137.48987854251013 L 152.31225919266294,137.48987854251013 L 152.34220260846553,137.48987854251013 L 152.37589119117578,137.48987854251013 L 153.8555905088885,137.48987854251013 L 153.88073150970897,137.48987854251013 L 153.9095101606838,137.48987854251013 L 155.4042080654861,137.48987854251013 L 155.42291598056568,137.48987854251013 L 155.4558340265437,137.48987854251013 L 156.9535424004393,137.48987854251013 L 156.97613883809763,137.48987854251013 L 157.00687071009128,137.48987854251013 L 158.5034501580769,137.48987854251013 L 158.526082434653,137.48987854251013 L 158.55297954244455,137.48987854251013 L 160.04909308449905,40 L 160.07204791133515,40 L 160.10150750174773,40 L 161.59882164754777,40 L 161.62263660841052,40 L 161.6558413657308,40 L 163.13821068281788,40 L 163.17154087635038,40 L 163.2041722109862,40 L 164.69594924398973,40 L 164.71345655532372,40 L 164.74331037383186,40 L 166.2413950563641,40 L 166.2658909566646,40 L 166.29811014374602,40 L 167.78332865479635,40 L 167.81547616404222,40 L 167.84420105664037,40 L 169.3384509749705,40 L 169.36373533146207,40 L 169.39149257328026,40 L 170.8844881294882,40 L 170.9092886605898,40 L 170.93435798357473,40 L 170.97408542393038,40 L 172.43832024862238,40 L 172.46448265859948,40 L 172.49168439719213,40 L 173.98550424850893,40 L 174.0115949806505,40 L 174.040104839742,40 L 175.53295704027883,40 L 175.55696911518933,40 L 175.58436796782976,40 L 177.07664674568215,40 L 177.10549707449252,40 L 178.6357651051884,40 L 178.6532903359813,40 L 178.68110133617614,40 L 180.17630098582737,40 L 180.20097608071674,40 L 180.23147499974485,40 L 181.72416592515168,40 L 181.74824967789775,40 L 181.77532598027815,40 L 183.2751130114048,40 L 183.30095287112195,40 L 183.33333333333334,40" stroke="#f59e0b" stroke-width="2" fill="none" stroke-dasharray="14950" stroke-dashoffset="14950">
      <animate attributeName="stroke-dashoffset" values="14950;0" dur="3s" begin="3.5999999999999996s" fill="freeze"/>
    </path>
    
    <!-- Glow effect for the line that also follows the circle -->
    <path d="M 30,160 L 30.024961806231595,160 L 30.05182307510536,160 L 31.5491372209054,160 L 31.580030368029067,160 L 31.610475528680524,160 L 33.097593502373044,160 L 33.124759402047914,160 L 33.156369327527116,160 L 34.672982730550004,160 L 34.70176138152483,160 L 36.19420143450722,160 L 36.218267267794396,160 L 36.24973383760249,160 L 37.7395038912105,160 L 37.76570214010539,160 L 37.79842307203568,160 L 39.28731507215816,160 L 39.31627291772187,160 L 39.34584002488779,160 L 40.83559215903691,160 L 40.86182624684958,160 L 40.893364494493234,160 L 42.38766817120002,160 L 42.416966486482615,160 L 42.447752116852946,160 L 43.93653660022209,160 L 43.962089748597,160 L 43.99412974108953,160 L 45.48343388876644,160 L 45.506317037766976,160 L 45.534199715797385,160 L 47.03022366055745,160 L 47.05873351964896,160 L 47.0873508954938,160 L 48.57647584858182,160 L 48.603928459598905,160 L 48.635359190489226,160 L 50.1231581036195,160 L 50.14903380225441,160 L 50.18383339141575,160 L 51.66697324523504,160 L 51.698063506406484,160 L 51.72906417028348,160 L 53.22381583346247,160 L 53.253508376840614,160 L 53.28678481199644,160 L 54.77442244999672,160 L 54.79938425622832,160 L 54.83282196651414,160 L 56.31920524239224,160 L 56.35318053644471,160 L 56.388983615303815,160 L 57.867715282236546,160 L 57.89344762520034,160 L 57.92514714797399,160 L 59.41871612686634,160 L 59.44090041697022,160 L 59.473262959722746,160 L 60.9626567046941,160 L 60.98905206763676,160 L 61.02033944285598,160 L 62.510324529970646,160 L 62.53691700696109,160 L 62.567899751379194,160 L 64.06313523994817,160 L 64.09033697854082,160 L 64.12619381577659,160 L 65.60908279717144,160 L 65.64235923232727,160 L 65.66413137487672,160 L 67.15605176355135,160 L 67.18232169028178,160 L 67.21489926654097,160 L 68.69900677114023,160 L 68.73427226623267,160 L 68.76460991013079,160 L 70.25418284969103,160 L 70.28127707153035,160 L 70.3132812251051,160 L 71.8038576543631,160 L 71.83041429243576,160 L 71.85933629908169,160 L 73.35200930502963,160 L 73.37921104362228,160 L 73.40777466109046,160 L 74.89946209679951,160 L 74.93150208929204,160 L 74.96447389364677,160 L 76.44730911666495,160 L 76.47694790166642,160 L 76.51036769249336,160 L 77.98687734652393,160 L 78.02651518958515,160 L 78.05900316854988,160 L 79.54370201529247,160 L 79.57210435763065,160 L 79.60297958529542,160 L 81.09224789405455,160 L 81.11885829050388,160 L 81.1506115716542,160 L 82.6383567264078,160 L 82.66640067956821,160 L 82.6980464439652,160 L 84.18752978623098,160 L 84.2101441433482,160 L 84.24551715519397,160 L 85.73870982544967,160 L 85.76963881149112,160 L 85.80596155465798,160 L 87.28908348901837,160 L 87.31569388546771,160 L 87.34759052228912,160 L 88.83501312678274,137.48987854251013 L 88.86090674487653,137.48987854251013 L 88.89421901895014,137.48987854251013 L 90.3800467916027,137.48987854251013 L 90.40579705402538,137.48987854251013 L 90.4410983880356,137.48987854251013 L 91.92072602791275,137.48987854251013 L 91.95588400625186,137.48987854251013 L 91.99154372943985,137.48987854251013 L 93.47796284423573,137.48987854251013 L 93.49996793975073,137.48987854251013 L 93.53297558302323,137.48987854251013 L 95.02568442788895,137.48987854251013 L 95.05164972381829,137.48987854251013 L 95.08533830652856,137.48987854251013 L 96.56862151601895,137.48987854251013 L 96.60809808395018,137.48987854251013 L 96.64158955261267,137.48987854251013 L 98.12288370216643,137.48987854251013 L 98.1554971173434,137.48987854251013 L 98.18861227736923,137.48987854251013 L 99.674404211104,137.48987854251013 L 99.70440138528325,137.48987854251013 L 99.73715815613131,137.48987854251013 L 101.21911532566396,137.48987854251013 L 101.25002639224653,137.48987854251013 L 101.28201262636239,137.48987854251013 L 102.76577966124276,137.48987854251013 L 102.79681616403754,137.48987854251013 L 102.8312932029389,137.48987854251013 L 104.31681634479034,137.48987854251013 L 104.35201016204724,137.48987854251013 L 104.38593169772304,137.48987854251013 L 105.86407202251246,137.48987854251013 L 105.89399751885614,137.48987854251013 L 105.921647243921,137.48987854251013 L 107.41677521573665,137.48987854251013 L 107.44856433580475,137.48987854251013 L 107.48354311955498,137.48987854251013 L 108.96057243789329,137.48987854251013 L 108.99263034984472,137.48987854251013 L 109.02915020705935,137.48987854251013 L 110.5092616723265,137.48987854251013 L 110.53933052434128,137.48987854251013 L 110.57235608707268,137.48987854251013 L 112.05821969864301,137.48987854251013 L 112.08542143723565,137.48987854251013 L 112.12120659663586,137.48987854251013 L 113.60728524171286,137.48987854251013 L 113.63635060402991,137.48987854251013 L 113.66615066416138,137.48987854251013 L 115.15696004638492,137.48987854251013 L 115.18197561099316,137.48987854251013 L 115.21435607320458,137.48987854251013 L 116.70039887936379,137.48987854251013 L 116.72423175968542,137.48987854251013 L 116.75206067933915,137.48987854251013 L 118.25179395208913,137.48987854251013 L 118.27917488527068,137.48987854251013 L 118.31544387006088,137.48987854251013 L 119.79921090494125,137.48987854251013 L 119.8271831802661,137.48987854251013 L 119.86142726620191,137.48987854251013 L 121.34187920118792,137.48987854251013 L 121.36752194685728,137.48987854251013 L 121.40137180469753,137.48987854251013 L 122.88682326871343,137.48987854251013 L 122.91956212010261,137.48987854251013 L 122.95224721311513,137.48987854251013 L 124.44119297161426,137.48987854251013 L 124.4671582675436,137.48987854251013 L 124.49842772330392,137.48987854251013 L 125.99063482332078,137.48987854251013 L 126.01663595816788,137.48987854251013 L 126.04803085014042,137.48987854251013 L 127.53557889084627,137.48987854251013 L 127.56521767584775,137.48987854251013 L 127.59645129269029,137.48987854251013 L 129.08880174837822,137.48987854251013 L 129.11700697666862,137.48987854251013 L 129.15046260641333,137.48987854251013 L 130.63806440549587,137.48987854251013 L 130.6638684262952,137.48987854251013 L 130.70008365270874,137.48987854251013 L 132.1817541108992,137.48987854251013 L 132.2072893398152,137.48987854251013 L 132.23789577559666,137.48987854251013 L 133.72969072805904,137.48987854251013 L 133.75547682939953,137.48987854251013 L 133.78663876840648,137.48987854251013 L 135.27963432461442,137.48987854251013 L 135.3011018363628,137.48987854251013 L 135.33186954727424,137.48987854251013 L 136.8277501363632,137.48987854251013 L 136.85280153988924,137.48987854251013 L 136.87357019274094,137.48987854251013 L 138.3739127270931,137.48987854251013 L 138.39778144633252,137.48987854251013 L 138.42797573455954,137.48987854251013 L 139.9182654524753,137.48987854251013 L 139.95415812862885,137.48987854251013 L 139.98668194651137,137.48987854251013 L 141.4731010613072,137.48987854251013 L 141.49976521613323,137.48987854251013 L 141.53099883297577,137.48987854251013 L 143.0216648595282,137.48987854251013 L 143.04773767221087,137.48987854251013 L 143.07291451194914,137.48987854251013 L 144.57159053662468,137.48987854251013 L 144.59395402131747,137.48987854251013 L 144.6199909950824,137.48987854251013 L 146.11553111445244,137.48987854251013 L 146.1410305044507,137.48987854251013 L 146.16973747758996,137.48987854251013 L 147.6662631671989,137.48987854251013 L 147.68848329622057,137.48987854251013 L 147.71926892659093,137.48987854251013 L 149.20346602848463,137.48987854251013 L 149.23706501390046,137.48987854251013 L 149.26801191940078,137.48987854251013 L 150.76313989121644,137.48987854251013 L 150.79188270327347,137.48987854251013 L 150.82109142126163,137.48987854251013 L 152.31225919266294,137.48987854251013 L 152.34220260846553,137.48987854251013 L 152.37589119117578,137.48987854251013 L 153.8555905088885,137.48987854251013 L 153.88073150970897,137.48987854251013 L 153.9095101606838,137.48987854251013 L 155.4042080654861,137.48987854251013 L 155.42291598056568,137.48987854251013 L 155.4558340265437,137.48987854251013 L 156.9535424004393,137.48987854251013 L 156.97613883809763,137.48987854251013 L 157.00687071009128,137.48987854251013 L 158.5034501580769,137.48987854251013 L 158.526082434653,137.48987854251013 L 158.55297954244455,137.48987854251013 L 160.04909308449905,40 L 160.07204791133515,40 L 160.10150750174773,40 L 161.59882164754777,40 L 161.62263660841052,40 L 161.6558413657308,40 L 163.13821068281788,40 L 163.17154087635038,40 L 163.2041722109862,40 L 164.69594924398973,40 L 164.71345655532372,40 L 164.74331037383186,40 L 166.2413950563641,40 L 166.2658909566646,40 L 166.29811014374602,40 L 167.78332865479635,40 L 167.81547616404222,40 L 167.84420105664037,40 L 169.3384509749705,40 L 169.36373533146207,40 L 169.39149257328026,40 L 170.8844881294882,40 L 170.9092886605898,40 L 170.93435798357473,40 L 170.97408542393038,40 L 172.43832024862238,40 L 172.46448265859948,40 L 172.49168439719213,40 L 173.98550424850893,40 L 174.0115949806505,40 L 174.040104839742,40 L 175.53295704027883,40 L 175.55696911518933,40 L 175.58436796782976,40 L 177.07664674568215,40 L 177.10549707449252,40 L 178.6357651051884,40 L 178.6532903359813,40 L 178.68110133617614,40 L 180.17630098582737,40 L 180.20097608071674,40 L 180.23147499974485,40 L 181.72416592515168,40 L 181.74824967789775,40 L 181.77532598027815,40 L 183.2751130114048,40 L 183.30095287112195,40 L 183.33333333333334,40" stroke="#f59e0b" stroke-width="4" fill="none" opacity="0.4" stroke-dasharray="14950" stroke-dashoffset="14950">
      <animate attributeName="stroke-dashoffset" values="14950;0" dur="3s" begin="3.5999999999999996s" fill="freeze"/>
    </path>
    
    <!-- Animated circle that moves along the path and draws the line -->
    <circle r="5" fill="#f59e0b" opacity="0" filter="url(#trailGlow)">
      <animate attributeName="opacity" values="0;1;1;1" dur="3.2s" begin="3.4s" fill="freeze"/>
      <animate attributeName="r" values="5;6;5" dur="1s" begin="3.4s" repeatCount="3"/>
      <animateMotion dur="3s" begin="3.4s" fill="freeze">
        <mpath href="#path_totalContributions_526.6666666666667"/>
      </animateMotion>
    </circle>
    
    <!-- Small trail dots that fade out -->
    <circle r="2" fill="#f59e0b" opacity="0">
      <animate attributeName="opacity" values="0;0.6;0" dur="0.8s" begin="3.8s" fill="freeze"/>
      <animateMotion dur="3s" begin="3.4s" fill="freeze">
        <mpath href="#path_totalContributions_526.6666666666667"/>
      </animateMotion>
    </circle>
    
    <!-- Hidden path for motion animation -->
    <path id="path_totalContributions_526.6666666666667" d="M 30,160 L 30.024961806231595,160 L 30.05182307510536,160 L 31.5491372209054,160 L 31.580030368029067,160 L 31.610475528680524,160 L 33.097593502373044,160 L 33.124759402047914,160 L 33.156369327527116,160 L 34.672982730550004,160 L 34.70176138152483,160 L 36.19420143450722,160 L 36.218267267794396,160 L 36.24973383760249,160 L 37.7395038912105,160 L 37.76570214010539,160 L 37.79842307203568,160 L 39.28731507215816,160 L 39.31627291772187,160 L 39.34584002488779,160 L 40.83559215903691,160 L 40.86182624684958,160 L 40.893364494493234,160 L 42.38766817120002,160 L 42.416966486482615,160 L 42.447752116852946,160 L 43.93653660022209,160 L 43.962089748597,160 L 43.99412974108953,160 L 45.48343388876644,160 L 45.506317037766976,160 L 45.534199715797385,160 L 47.03022366055745,160 L 47.05873351964896,160 L 47.0873508954938,160 L 48.57647584858182,160 L 48.603928459598905,160 L 48.635359190489226,160 L 50.1231581036195,160 L 50.14903380225441,160 L 50.18383339141575,160 L 51.66697324523504,160 L 51.698063506406484,160 L 51.72906417028348,160 L 53.22381583346247,160 L 53.253508376840614,160 L 53.28678481199644,160 L 54.77442244999672,160 L 54.79938425622832,160 L 54.83282196651414,160 L 56.31920524239224,160 L 56.35318053644471,160 L 56.388983615303815,160 L 57.867715282236546,160 L 57.89344762520034,160 L 57.92514714797399,160 L 59.41871612686634,160 L 59.44090041697022,160 L 59.473262959722746,160 L 60.9626567046941,160 L 60.98905206763676,160 L 61.02033944285598,160 L 62.510324529970646,160 L 62.53691700696109,160 L 62.567899751379194,160 L 64.06313523994817,160 L 64.09033697854082,160 L 64.12619381577659,160 L 65.60908279717144,160 L 65.64235923232727,160 L 65.66413137487672,160 L 67.15605176355135,160 L 67.18232169028178,160 L 67.21489926654097,160 L 68.69900677114023,160 L 68.73427226623267,160 L 68.76460991013079,160 L 70.25418284969103,160 L 70.28127707153035,160 L 70.3132812251051,160 L 71.8038576543631,160 L 71.83041429243576,160 L 71.85933629908169,160 L 73.35200930502963,160 L 73.37921104362228,160 L 73.40777466109046,160 L 74.89946209679951,160 L 74.93150208929204,160 L 74.96447389364677,160 L 76.44730911666495,160 L 76.47694790166642,160 L 76.51036769249336,160 L 77.98687734652393,160 L 78.02651518958515,160 L 78.05900316854988,160 L 79.54370201529247,160 L 79.57210435763065,160 L 79.60297958529542,160 L 81.09224789405455,160 L 81.11885829050388,160 L 81.1506115716542,160 L 82.6383567264078,160 L 82.66640067956821,160 L 82.6980464439652,160 L 84.18752978623098,160 L 84.2101441433482,160 L 84.24551715519397,160 L 85.73870982544967,160 L 85.76963881149112,160 L 85.80596155465798,160 L 87.28908348901837,160 L 87.31569388546771,160 L 87.34759052228912,160 L 88.83501312678274,137.48987854251013 L 88.86090674487653,137.48987854251013 L 88.89421901895014,137.48987854251013 L 90.3800467916027,137.48987854251013 L 90.40579705402538,137.48987854251013 L 90.4410983880356,137.48987854251013 L 91.92072602791275,137.48987854251013 L 91.95588400625186,137.48987854251013 L 91.99154372943985,137.48987854251013 L 93.47796284423573,137.48987854251013 L 93.49996793975073,137.48987854251013 L 93.53297558302323,137.48987854251013 L 95.02568442788895,137.48987854251013 L 95.05164972381829,137.48987854251013 L 95.08533830652856,137.48987854251013 L 96.56862151601895,137.48987854251013 L 96.60809808395018,137.48987854251013 L 96.64158955261267,137.48987854251013 L 98.12288370216643,137.48987854251013 L 98.1554971173434,137.48987854251013 L 98.18861227736923,137.48987854251013 L 99.674404211104,137.48987854251013 L 99.70440138528325,137.48987854251013 L 99.73715815613131,137.48987854251013 L 101.21911532566396,137.48987854251013 L 101.25002639224653,137.48987854251013 L 101.28201262636239,137.48987854251013 L 102.76577966124276,137.48987854251013 L 102.79681616403754,137.48987854251013 L 102.8312932029389,137.48987854251013 L 104.31681634479034,137.48987854251013 L 104.35201016204724,137.48987854251013 L 104.38593169772304,137.48987854251013 L 105.86407202251246,137.48987854251013 L 105.89399751885614,137.48987854251013 L 105.921647243921,137.48987854251013 L 107.41677521573665,137.48987854251013 L 107.44856433580475,137.48987854251013 L 107.48354311955498,137.48987854251013 L 108.96057243789329,137.48987854251013 L 108.99263034984472,137.48987854251013 L 109.02915020705935,137.48987854251013 L 110.5092616723265,137.48987854251013 L 110.53933052434128,137.48987854251013 L 110.57235608707268,137.48987854251013 L 112.05821969864301,137.48987854251013 L 112.08542143723565,137.48987854251013 L 112.12120659663586,137.48987854251013 L 113.60728524171286,137.48987854251013 L 113.63635060402991,137.48987854251013 L 113.66615066416138,137.48987854251013 L 115.15696004638492,137.48987854251013 L 115.18197561099316,137.48987854251013 L 115.21435607320458,137.48987854251013 L 116.70039887936379,137.48987854251013 L 116.72423175968542,137.48987854251013 L 116.75206067933915,137.48987854251013 L 118.25179395208913,137.48987854251013 L 118.27917488527068,137.48987854251013 L 118.31544387006088,137.48987854251013 L 119.79921090494125,137.48987854251013 L 119.8271831802661,137.48987854251013 L 119.86142726620191,137.48987854251013 L 121.34187920118792,137.48987854251013 L 121.36752194685728,137.48987854251013 L 121.40137180469753,137.48987854251013 L 122.88682326871343,137.48987854251013 L 122.91956212010261,137.48987854251013 L 122.95224721311513,137.48987854251013 L 124.44119297161426,137.48987854251013 L 124.4671582675436,137.48987854251013 L 124.49842772330392,137.48987854251013 L 125.99063482332078,137.48987854251013 L 126.01663595816788,137.48987854251013 L 126.04803085014042,137.48987854251013 L 127.53557889084627,137.48987854251013 L 127.56521767584775,137.48987854251013 L 127.59645129269029,137.48987854251013 L 129.08880174837822,137.48987854251013 L 129.11700697666862,137.48987854251013 L 129.15046260641333,137.48987854251013 L 130.63806440549587,137.48987854251013 L 130.6638684262952,137.48987854251013 L 130.70008365270874,137.48987854251013 L 132.1817541108992,137.48987854251013 L 132.2072893398152,137.48987854251013 L 132.23789577559666,137.48987854251013 L 133.72969072805904,137.48987854251013 L 133.75547682939953,137.48987854251013 L 133.78663876840648,137.48987854251013 L 135.27963432461442,137.48987854251013 L 135.3011018363628,137.48987854251013 L 135.33186954727424,137.48987854251013 L 136.8277501363632,137.48987854251013 L 136.85280153988924,137.48987854251013 L 136.87357019274094,137.48987854251013 L 138.3739127270931,137.48987854251013 L 138.39778144633252,137.48987854251013 L 138.42797573455954,137.48987854251013 L 139.9182654524753,137.48987854251013 L 139.95415812862885,137.48987854251013 L 139.98668194651137,137.48987854251013 L 141.4731010613072,137.48987854251013 L 141.49976521613323,137.48987854251013 L 141.53099883297577,137.48987854251013 L 143.0216648595282,137.48987854251013 L 143.04773767221087,137.48987854251013 L 143.07291451194914,137.48987854251013 L 144.57159053662468,137.48987854251013 L 144.59395402131747,137.48987854251013 L 144.6199909950824,137.48987854251013 L 146.11553111445244,137.48987854251013 L 146.1410305044507,137.48987854251013 L 146.16973747758996,137.48987854251013 L 147.6662631671989,137.48987854251013 L 147.68848329622057,137.48987854251013 L 147.71926892659093,137.48987854251013 L 149.20346602848463,137.48987854251013 L 149.23706501390046,137.48987854251013 L 149.26801191940078,137.48987854251013 L 150.76313989121644,137.48987854251013 L 150.79188270327347,137.48987854251013 L 150.82109142126163,137.48987854251013 L 152.31225919266294,137.48987854251013 L 152.34220260846553,137.48987854251013 L 152.37589119117578,137.48987854251013 L 153.8555905088885,137.48987854251013 L 153.88073150970897,137.48987854251013 L 153.9095101606838,137.48987854251013 L 155.4042080654861,137.48987854251013 L 155.42291598056568,137.48987854251013 L 155.4558340265437,137.48987854251013 L 156.9535424004393,137.48987854251013 L 156.97613883809763,137.48987854251013 L 157.00687071009128,137.48987854251013 L 158.5034501580769,137.48987854251013 L 158.526082434653,137.48987854251013 L 158.55297954244455,137.48987854251013 L 160.04909308449905,40 L 160.07204791133515,40 L 160.10150750174773,40 L 161.59882164754777,40 L 161.62263660841052,40 L 161.6558413657308,40 L 163.13821068281788,40 L 163.17154087635038,40 L 163.2041722109862,40 L 164.69594924398973,40 L 164.71345655532372,40 L 164.74331037383186,40 L 166.2413950563641,40 L 166.2658909566646,40 L 166.29811014374602,40 L 167.78332865479635,40 L 167.81547616404222,40 L 167.84420105664037,40 L 169.3384509749705,40 L 169.36373533146207,40 L 169.39149257328026,40 L 170.8844881294882,40 L 170.9092886605898,40 L 170.93435798357473,40 L 170.97408542393038,40 L 172.43832024862238,40 L 172.46448265859948,40 L 172.49168439719213,40 L 173.98550424850893,40 L 174.0115949806505,40 L 174.040104839742,40 L 175.53295704027883,40 L 175.55696911518933,40 L 175.58436796782976,40 L 177.07664674568215,40 L 177.10549707449252,40 L 178.6357651051884,40 L 178.6532903359813,40 L 178.68110133617614,40 L 180.17630098582737,40 L 180.20097608071674,40 L 180.23147499974485,40 L 181.72416592515168,40 L 181.74824967789775,40 L 181.77532598027815,40 L 183.2751130114048,40 L 183.30095287112195,40 L 183.33333333333334,40" fill="none" stroke="none"/>
  </g>
  
  <!-- Footer -->
  <text x="400" y="580" text-anchor="middle" fill="#94a3b8" font-size="12" font-family="Arial, sans-serif">
    Generated by GitHub User Rank Tracker • 9/21/2025
    <animate attributeName="opacity" values="0;1" dur="0.5s" begin="5s" fill="freeze"/>
  </text>
</svg>