<svg width="800" height="600" xmlns="http://www.w3.org/2000/svg">
  <defs>
    <linearGradient id="bgGradient" x1="0%" y1="0%" x2="100%" y2="100%">
      <stop offset="0%" style="stop-color:#f8fafc;stop-opacity:1" />
      <stop offset="100%" style="stop-color:#e2e8f0;stop-opacity:1" />
    </linearGradient>
    <filter id="shadow" x="-20%" y="-20%" width="140%" height="140%">
      <feDropShadow dx="2" dy="2" stdDeviation="3" flood-color="#00000020" flood-opacity="0.1"/>
    </filter>
    <!-- Trail effect filter -->
    <filter id="trailGlow" x="-50%" y="-50%" width="200%" height="200%">
      <feGaussianBlur stdDeviation="3" result="coloredBlur"/>
      <feMerge> 
        <feMergeNode in="coloredBlur"/>
        <feMergeNode in="SourceGraphic"/>
      </feMerge>
    </filter>
  </defs>
  
  <!-- Background -->
  <rect width="800" height="600" fill="url(#bgGradient)" rx="12"/>
  
  <!-- Header -->
  <text x="400" y="40" text-anchor="middle" fill="#0f172a" font-size="24" font-weight="bold" font-family="Arial, sans-serif">
    GitHub Progress Report
    <animate attributeName="opacity" values="0;1" dur="0.8s" begin="0s" fill="freeze"/>
    <animateTransform attributeName="transform" type="translate" values="0,-20;0,0" dur="0.8s" begin="0s" fill="freeze"/>
  </text>
  
  <!-- User Info -->
  <text x="400" y="70" text-anchor="middle" fill="#475569" font-size="16" font-family="Arial, sans-serif">
    @maifeeulasad • BANGLADESH • 100 days analyzed
    <animate attributeName="opacity" values="0;1" dur="0.6s" begin="0.3s" fill="freeze"/>
  </text>
  
  <!-- Progress Cards -->
  <!-- Followers Card -->
  <g transform="translate(60, 100)">
    <rect width="206.66666666666666" height="120" fill="#ffffff" stroke="#e2e8f0" stroke-width="1" rx="8" filter="url(#shadow)">
      <animate attributeName="opacity" values="0;1" dur="0.6s" begin="0.2s" fill="freeze"/>
      <animateTransform attributeName="transform" type="scale" values="0.8;1" dur="0.6s" begin="0.2s" fill="freeze"/>
    </rect>
    <text x="103.33333333333333" y="25" text-anchor="middle" fill="#64748b" font-size="14" font-weight="bold" font-family="Arial, sans-serif">FOLLOWERS
      <animate attributeName="opacity" values="0;1" dur="0.5s" begin="0.4s" fill="freeze"/>
    </text>
    
    <text x="103.33333333333333" y="50" text-anchor="middle" fill="#22c55e" font-size="32" font-weight="bold" font-family="Arial, sans-serif">
      ↗
      <animate attributeName="opacity" values="0;1" dur="0.5s" begin="0.6s" fill="freeze"/>
      <animateTransform attributeName="transform" type="scale" values="0;1.2;1" dur="0.8s" begin="0.6s" fill="freeze"/>
    </text>
    
    <text x="103.33333333333333" y="75" text-anchor="middle" fill="#1e293b" font-size="18" font-weight="bold" font-family="Arial, sans-serif">
      +6
      <animate attributeName="opacity" values="0;1" dur="0.5s" begin="0.8s" fill="freeze"/>
    </text>
    
    <text x="103.33333333333333" y="95" text-anchor="middle" fill="#64748b" font-size="12" font-family="Arial, sans-serif">
      #464 → #458
      <animate attributeName="opacity" values="0;1" dur="0.5s" begin="1s" fill="freeze"/>
    </text>
  </g>
  
  <!-- Public Contributions Card -->
  <g transform="translate(296.66666666666663, 100)">
    <rect width="206.66666666666666" height="120" fill="#ffffff" stroke="#e2e8f0" stroke-width="1" rx="8" filter="url(#shadow)">
      <animate attributeName="opacity" values="0;1" dur="0.6s" begin="0.4s" fill="freeze"/>
      <animateTransform attributeName="transform" type="scale" values="0.8;1" dur="0.6s" begin="0.4s" fill="freeze"/>
    </rect>
    <text x="103.33333333333333" y="25" text-anchor="middle" fill="#64748b" font-size="14" font-weight="bold" font-family="Arial, sans-serif">PUBLIC
      <animate attributeName="opacity" values="0;1" dur="0.5s" begin="0.6s" fill="freeze"/>
    </text>
    
    <text x="103.33333333333333" y="50" text-anchor="middle" fill="#22c55e" font-size="32" font-weight="bold" font-family="Arial, sans-serif">
      ↗
      <animate attributeName="opacity" values="0;1" dur="0.5s" begin="0.8s" fill="freeze"/>
      <animateTransform attributeName="transform" type="scale" values="0;1.2;1" dur="0.8s" begin="0.8s" fill="freeze"/>
    </text>
    
    <text x="103.33333333333333" y="75" text-anchor="middle" fill="#1e293b" font-size="18" font-weight="bold" font-family="Arial, sans-serif">
      +12
      <animate attributeName="opacity" values="0;1" dur="0.5s" begin="1s" fill="freeze"/>
    </text>
    
    <text x="103.33333333333333" y="95" text-anchor="middle" fill="#64748b" font-size="12" font-family="Arial, sans-serif">
      #18 → #6
      <animate attributeName="opacity" values="0;1" dur="0.5s" begin="1.2s" fill="freeze"/>
    </text>
  </g>
  
  <!-- Total Contributions Card -->
  <g transform="translate(533.3333333333333, 100)">
    <rect width="206.66666666666666" height="120" fill="#ffffff" stroke="#e2e8f0" stroke-width="1" rx="8" filter="url(#shadow)">
      <animate attributeName="opacity" values="0;1" dur="0.6s" begin="0.6s" fill="freeze"/>
      <animateTransform attributeName="transform" type="scale" values="0.8;1" dur="0.6s" begin="0.6s" fill="freeze"/>
    </rect>
    <text x="103.33333333333333" y="25" text-anchor="middle" fill="#64748b" font-size="14" font-weight="bold" font-family="Arial, sans-serif">TOTAL
      <animate attributeName="opacity" values="0;1" dur="0.5s" begin="0.8s" fill="freeze"/>
    </text>
    
    <text x="103.33333333333333" y="50" text-anchor="middle" fill="#22c55e" font-size="32" font-weight="bold" font-family="Arial, sans-serif">
      ↗
      <animate attributeName="opacity" values="0;1" dur="0.5s" begin="1s" fill="freeze"/>
      <animateTransform attributeName="transform" type="scale" values="0;1.2;1" dur="0.8s" begin="1s" fill="freeze"/>
    </text>
    
    <text x="103.33333333333333" y="75" text-anchor="middle" fill="#1e293b" font-size="18" font-weight="bold" font-family="Arial, sans-serif">
      +23
      <animate attributeName="opacity" values="0;1" dur="0.5s" begin="1.2s" fill="freeze"/>
    </text>
    
    <text x="103.33333333333333" y="95" text-anchor="middle" fill="#64748b" font-size="12" font-family="Arial, sans-serif">
      #41 → #18
      <animate attributeName="opacity" values="0;1" dur="0.5s" begin="1.4s" fill="freeze"/>
    </text>
  </g>
  
  <!-- Timeline Charts (if we have snapshots) -->
  
  <!-- 👥 Followers Count Chart -->
  <g transform="translate(60, 250)">
    <!-- Chart Background -->
    <rect x="0" y="0" width="213.33333333333334" height="200" fill="#ffffff" stroke="#e2e8f0" stroke-width="1" rx="8" filter="url(#shadow)">
      <animate attributeName="opacity" values="0;1" dur="0.5s" begin="1.8s" fill="freeze"/>
    </rect>
    
    <!-- Chart Title -->
    <text x="106.66666666666667" y="25" text-anchor="middle" fill="#1e293b" font-size="14" font-weight="bold" font-family="Arial, sans-serif">
      👥 Followers Count
      <animate attributeName="opacity" values="0;1" dur="0.5s" begin="2s" fill="freeze"/>
    </text>
    
    <!-- Y-axis labels -->
    <text x="10" y="45" fill="#64748b" font-size="10" font-family="Arial, sans-serif">149
      <animate attributeName="opacity" values="0;1" dur="0.5s" begin="2.2s" fill="freeze"/>
    </text>
    <text x="10" y="185" fill="#64748b" font-size="10" font-family="Arial, sans-serif">142
      <animate attributeName="opacity" values="0;1" dur="0.5s" begin="2.2s" fill="freeze"/>
    </text>
    
    <!-- Chart Line with draw animation that follows the circle -->
    <path d="M 30,160 L 30.02386712378488,160 L 30.054059393737973,160 L 31.54424949636053,160 L 31.580139773343348,160 L 31.61266141723941,160 L 33.09898117546442,160 L 33.12564354798086,160 L 33.156875077077736,160 L 34.64744146318339,160 L 34.67351253308354,160 L 34.6986876899287,160 L 36.19726353874594,160 L 36.21962552859844,160 L 36.24566076197639,160 L 37.74110091510118,160 L 37.766598600646134,160 L 37.79530365492795,160 L 39.29172931241322,160 L 39.31394795617692,160 L 39.34473152874631,160 L 40.82882942259494,160 L 40.86242616215699,160 L 40.893370999076275,160 L 42.388399032195764,160 L 42.41713992299978,160 L 42.446346688592385,160 L 43.93741478600883,160 L 43.967356200306526,160 L 44.00104253117407,160 L 45.48064294148667,160 L 45.505782261809635,160 L 45.534558989135846,160 L 47.02915698398894,160 L 47.04786364857709,160 L 47.08077949421735,160 L 48.57838775693521,160 L 48.600982684182,160 L 48.63171250196809,160 L 50.12819191423666,160 L 50.15082267800565,160 L 50.177717987916395,160 L 51.67373152539638,142.85714285714286 L 51.69668481786516,142.85714285714286 L 51.72614243911316,142.85714285714286 L 53.22335650008682,142.85714285714286 L 53.24716986908841,142.85714285714286 L 53.28037240690626,142.85714285714286 L 54.76264263812272,142.85714285714286 L 54.79597060376827,142.85714285714286 L 54.82859975723093,142.85714285714286 L 56.32027707552477,142.85714285714286 L 56.337783216619236,142.85714285714286 L 56.36763503961143,142.85714285714286 L 57.86561958581238,142.85714285714286 L 57.89011384873575,142.85714285714286 L 57.92233088219312,142.85714285714286 L 59.407450116924444,142.85714285714286 L 59.43959547733742,142.85714285714286 L 59.46831844988033,142.85714285714286 L 60.96246848820593,142.85714285714286 L 60.98775115461769,142.85714285714286 L 61.015506541061214,142.85714285714286 L 62.50840230110983,142.85714285714286 L 62.533201174471905,142.85714285714286 L 62.55826882175047,142.85714285714286 L 62.59799360660863,142.85714285714286 L 64.06213055759213,142.85714285714286 L 64.08829121879779,142.85714285714286 L 64.11549113914722,142.85714285714286 L 65.60921113920642,142.85714285714286 L 65.63530012736769,142.85714285714286 L 65.66380808077739,142.85714285714286 L 67.15656049473722,142.85714285714286 L 67.1805709646109,142.85714285714286 L 67.20796798583243,142.85714285714286 L 68.70014701543705,142.85714285714286 L 68.72899541580767,142.85714285714286 L 70.25916115894378,142.85714285714286 L 70.27668521829935,142.85714285714286 L 70.30449435952617,142.85714285714286 L 71.79959406569006,142.85714285714286 L 71.82426751122443,142.85714285714286 L 71.85476439161621,142.85714285714286 L 73.34735554122614,142.85714285714286 L 73.37143768414421,142.85714285714286 L 73.39851217666595,142.85714285714286 L 74.89819895767138,142.85714285714286 L 74.92403709017724,142.85714285714286 L 74.95641538798449,142.85714285714286 L 76.44794936018954,142.85714285714286 L 76.47579433793857,142.85714285714286 L 76.50249254697721,142.85714285714286 L 77.99866734880709,142.85714285714286 L 78.01579720641845,142.85714285714286 L 78.04480687113896,142.85714285714286 L 79.54142962949632,142.85714285714286 L 79.56382745587103,142.85714285714286 L 79.58952224228807,142.85714285714286 L 81.08924485981571,142.85714285714286 L 81.11011963399693,142.85714285714286 L 81.1417812013602,142.85714285714286 L 82.63670172491308,142.85714285714286 L 82.65960126259858,142.85714285714286 L 82.68945308559078,142.85714285714286 L 84.18188297085081,142.85714285714286 L 84.20394035026462,142.85714285714286 L 84.23642615763848,142.85714285714286 L 85.7290531437706,142.85714285714286 L 85.76143144157786,142.85714285714286 L 85.79449063330692,142.85714285714286 L 87.282440953292,142.85714285714286 L 87.30621848577138,142.85714285714286 L 87.33612406354689,142.85714285714286 L 88.830184510567,142.85714285714286 L 88.85362159608547,142.85714285714286 L 88.88352717386095,142.85714285714286 L 90.37905691829125,142.85714285714286 L 90.40984049086063,142.85714285714286 L 90.44621456089314,142.85714285714286 L 91.92760679731572,142.85714285714286 L 91.94996878716822,142.85714285714286 L 91.97856633188343,142.85714285714286 L 93.47739303635608,142.85714285714286 L 93.49636847486073,142.85714285714286 L 93.52630988915843,142.85714285714286 L 95.02044200922292,142.85714285714286 L 95.04276816255322,142.85714285714286 L 95.07127611596295,142.85714285714286 L 95.11028417037711,142.85714285714286 L 96.57268305003394,142.85714285714286 L 96.60248111824285,142.85714285714286 L 96.63206416731855,142.85714285714286 L 98.11700421943887,142.85714285714286 L 98.14429373109381,142.85714285714286 L 98.17280168450353,142.85714285714286 L 99.66781179936191,142.85714285714286 L 99.6831498308633,142.85714285714286 L 99.71914761741272,142.85714285714286 L 101.21430107835991,142.85714285714286 L 101.23974500912156,142.85714285714286 L 101.26065561982499,142.85714285714286 L 102.76360352435057,142.85714285714286 L 102.78764983074645,142.85714285714286 L 102.81691035112235,142.85714285714286 L 104.31258344164144,142.85714285714286 L 104.33827822805848,142.85714285714286 L 104.36644573450731,142.85714285714286 L 105.85934149455592,142.85714285714286 L 105.87975039394856,142.85714285714286 L 105.91126861522304,142.85714285714286 L 107.41027450230666,142.85714285714286 L 107.43231396345938,142.85714285714286 L 107.46322296385645,142.85714285714286 L 108.95731924739876,142.85714285714286 L 108.98299611555471,142.85714285714286 L 109.01392303421291,142.85714285714286 L 110.50456109336295,142.85714285714286 L 110.5293420484639,142.85714285714286 L 110.54788744870217,142.85714285714286 L 112.04967066625626,142.85714285714286 L 112.0847187849674,142.85714285714286 L 112.10838880788019,142.85714285714286 L 113.6011591401011,142.85714285714286 L 113.62522336475807,142.85714285714286 L 115.17517086814831,142.85714285714286 L 115.20158238500936,142.85714285714286 L 116.6938868424417,142.85714285714286 L 116.71710890882699,142.85714285714286 L 116.74475678570391,142.85714285714286 L 118.24548282585313,142.85714285714286 L 118.27436706274594,142.85714285714286 L 118.30192534831737,142.85714285714286 L 119.79363850313341,142.85714285714286 L 119.8233290617757,142.85714285714286 L 119.85230288997401,142.85714285714286 L 121.34444608305645,142.85714285714286 L 121.37214771471668,142.85714285714286 L 121.39597900197936,142.85714285714286 L 122.88821178636728,142.85714285714286 L 122.91654055716599,40 L 122.94562189493091,40 L 124.46471415270737,40 L 124.49062395825763,40 L 125.97998982086959,40 L 126.00783479861862,40 L 126.02648770842347,40 L 127.53198000602522,40 L 127.55969955594654,40 L 127.58801040848415,40 L 129.07717917022404,40 L 129.10600965233354,40 L 129.14145197278887,40 L 130.63167791193362,40 L 130.66192393667,40 L 130.6834437682508,40 L 132.17877641180903,40 L 132.20298398255477,40 L 132.2326207864138,40 L 133.72945856390436,40 L 133.78432427939183,40 L 135.27331385852068,40 L 135.3029864989019,40 L 135.33032976534014,40 L 136.82313593408324,40 L 136.85121384922655,40 L 136.88052812438576,40 L 138.3719008322409,40 L 138.40053421347832,40 L 138.4327512469357,40 L 139.9193218608161,40 L 139.9494603759859,40 L 139.98042313116628,40 L 141.47012944073913,40 L 141.49969457155373,40 L 141.52787999626366,40 L 143.02039947282918,40 L 143.0416684487546,40 L 143.0711081517415,40 L 144.563090080474,40 L 144.59045126517339,40 L 144.62216658731995,40 L 146.1119266516761,40 L 146.13912657202553,40 L 146.16906798632323,40 L 147.66020775678408,40 L 147.68597421624554,40 L 147.7177432931754,40 L 149.20956395755803,40 L 149.2353304170195,40 L 149.25921545906547,40 L 150.76300552186274,40 L 150.78495539170996,40 L 150.8169036512508,40 L 152.3064307782127,40 L 152.33169552636332,40 L 152.36011388846754,40 L 153.85383388852676,40 L 153.87608836881265,40 L 153.909738863158,40 L 155.40037692230806,40 L 155.4265017469915,40 L 155.458557516099,40 L 156.94679452826165,40 L 156.97116336335733,40 L 157.00583519858537,40 L 158.490829005489,40 L 158.52231139024127,40 L 158.55463593326522,40 L 160.0444139158825,40 L 160.06955323620545,40 L 160.09904669397565,40 L 161.59463019318923,40 L 161.62177635875537,40 L 161.65476387744005,40 L 163.14015188608786,40 L 163.17186720823443,40 L 163.20691532694556,40 L 164.6913536677551,40 L 164.7154716471954,40 L 164.74702570499204,40 L 166.24054860417914,40 L 166.26296434881493,40 L 166.29459007965605,40 L 167.78528189358937,40 L 167.81000909390704,40 L 167.84097184908742,40 L 169.33399303696376,40 L 169.36207095210708,40 L 170.8846035160147,40 L 170.91040581199834,40 L 170.9348642383995,40 L 172.43344008721675,40 L 172.46316648238127,40 L 172.4969603228154,40 L 173.97174072089214,40 L 174.00798936309698,40 L 174.03889836349407,40 L 175.52622154434064,40 L 175.5456270211117,40 L 175.58241321114951,40 L 177.07486101467063,40 L 177.10238346371986,40 L 177.13289826237275,40 L 178.62529231111057,40 L 178.65129170796632,40 L 178.67881415701555,40 L 180.1693267883379,40 L 180.1989994287191,40 L 180.2284212134449,40 L 181.71655071604098,40 L 181.74375063639042,40 L 181.77442669939322,40 L 183.2697593429514,40 L 183.3003458146487,40 L 183.33333333333334,40" stroke="#22c55e" stroke-width="2" fill="none" stroke-dasharray="14800" stroke-dashoffset="14800">
      <animate attributeName="stroke-dashoffset" values="14800;0" dur="3s" begin="2.6s" fill="freeze"/>
    </path>
    
    <!-- Glow effect for the line that also follows the circle -->
    <path d="M 30,160 L 30.02386712378488,160 L 30.054059393737973,160 L 31.54424949636053,160 L 31.580139773343348,160 L 31.61266141723941,160 L 33.09898117546442,160 L 33.12564354798086,160 L 33.156875077077736,160 L 34.64744146318339,160 L 34.67351253308354,160 L 34.6986876899287,160 L 36.19726353874594,160 L 36.21962552859844,160 L 36.24566076197639,160 L 37.74110091510118,160 L 37.766598600646134,160 L 37.79530365492795,160 L 39.29172931241322,160 L 39.31394795617692,160 L 39.34473152874631,160 L 40.82882942259494,160 L 40.86242616215699,160 L 40.893370999076275,160 L 42.388399032195764,160 L 42.41713992299978,160 L 42.446346688592385,160 L 43.93741478600883,160 L 43.967356200306526,160 L 44.00104253117407,160 L 45.48064294148667,160 L 45.505782261809635,160 L 45.534558989135846,160 L 47.02915698398894,160 L 47.04786364857709,160 L 47.08077949421735,160 L 48.57838775693521,160 L 48.600982684182,160 L 48.63171250196809,160 L 50.12819191423666,160 L 50.15082267800565,160 L 50.177717987916395,160 L 51.67373152539638,142.85714285714286 L 51.69668481786516,142.85714285714286 L 51.72614243911316,142.85714285714286 L 53.22335650008682,142.85714285714286 L 53.24716986908841,142.85714285714286 L 53.28037240690626,142.85714285714286 L 54.76264263812272,142.85714285714286 L 54.79597060376827,142.85714285714286 L 54.82859975723093,142.85714285714286 L 56.32027707552477,142.85714285714286 L 56.337783216619236,142.85714285714286 L 56.36763503961143,142.85714285714286 L 57.86561958581238,142.85714285714286 L 57.89011384873575,142.85714285714286 L 57.92233088219312,142.85714285714286 L 59.407450116924444,142.85714285714286 L 59.43959547733742,142.85714285714286 L 59.46831844988033,142.85714285714286 L 60.96246848820593,142.85714285714286 L 60.98775115461769,142.85714285714286 L 61.015506541061214,142.85714285714286 L 62.50840230110983,142.85714285714286 L 62.533201174471905,142.85714285714286 L 62.55826882175047,142.85714285714286 L 62.59799360660863,142.85714285714286 L 64.06213055759213,142.85714285714286 L 64.08829121879779,142.85714285714286 L 64.11549113914722,142.85714285714286 L 65.60921113920642,142.85714285714286 L 65.63530012736769,142.85714285714286 L 65.66380808077739,142.85714285714286 L 67.15656049473722,142.85714285714286 L 67.1805709646109,142.85714285714286 L 67.20796798583243,142.85714285714286 L 68.70014701543705,142.85714285714286 L 68.72899541580767,142.85714285714286 L 70.25916115894378,142.85714285714286 L 70.27668521829935,142.85714285714286 L 70.30449435952617,142.85714285714286 L 71.79959406569006,142.85714285714286 L 71.82426751122443,142.85714285714286 L 71.85476439161621,142.85714285714286 L 73.34735554122614,142.85714285714286 L 73.37143768414421,142.85714285714286 L 73.39851217666595,142.85714285714286 L 74.89819895767138,142.85714285714286 L 74.92403709017724,142.85714285714286 L 74.95641538798449,142.85714285714286 L 76.44794936018954,142.85714285714286 L 76.47579433793857,142.85714285714286 L 76.50249254697721,142.85714285714286 L 77.99866734880709,142.85714285714286 L 78.01579720641845,142.85714285714286 L 78.04480687113896,142.85714285714286 L 79.54142962949632,142.85714285714286 L 79.56382745587103,142.85714285714286 L 79.58952224228807,142.85714285714286 L 81.08924485981571,142.85714285714286 L 81.11011963399693,142.85714285714286 L 81.1417812013602,142.85714285714286 L 82.63670172491308,142.85714285714286 L 82.65960126259858,142.85714285714286 L 82.68945308559078,142.85714285714286 L 84.18188297085081,142.85714285714286 L 84.20394035026462,142.85714285714286 L 84.23642615763848,142.85714285714286 L 85.7290531437706,142.85714285714286 L 85.76143144157786,142.85714285714286 L 85.79449063330692,142.85714285714286 L 87.282440953292,142.85714285714286 L 87.30621848577138,142.85714285714286 L 87.33612406354689,142.85714285714286 L 88.830184510567,142.85714285714286 L 88.85362159608547,142.85714285714286 L 88.88352717386095,142.85714285714286 L 90.37905691829125,142.85714285714286 L 90.40984049086063,142.85714285714286 L 90.44621456089314,142.85714285714286 L 91.92760679731572,142.85714285714286 L 91.94996878716822,142.85714285714286 L 91.97856633188343,142.85714285714286 L 93.47739303635608,142.85714285714286 L 93.49636847486073,142.85714285714286 L 93.52630988915843,142.85714285714286 L 95.02044200922292,142.85714285714286 L 95.04276816255322,142.85714285714286 L 95.07127611596295,142.85714285714286 L 95.11028417037711,142.85714285714286 L 96.57268305003394,142.85714285714286 L 96.60248111824285,142.85714285714286 L 96.63206416731855,142.85714285714286 L 98.11700421943887,142.85714285714286 L 98.14429373109381,142.85714285714286 L 98.17280168450353,142.85714285714286 L 99.66781179936191,142.85714285714286 L 99.6831498308633,142.85714285714286 L 99.71914761741272,142.85714285714286 L 101.21430107835991,142.85714285714286 L 101.23974500912156,142.85714285714286 L 101.26065561982499,142.85714285714286 L 102.76360352435057,142.85714285714286 L 102.78764983074645,142.85714285714286 L 102.81691035112235,142.85714285714286 L 104.31258344164144,142.85714285714286 L 104.33827822805848,142.85714285714286 L 104.36644573450731,142.85714285714286 L 105.85934149455592,142.85714285714286 L 105.87975039394856,142.85714285714286 L 105.91126861522304,142.85714285714286 L 107.41027450230666,142.85714285714286 L 107.43231396345938,142.85714285714286 L 107.46322296385645,142.85714285714286 L 108.95731924739876,142.85714285714286 L 108.98299611555471,142.85714285714286 L 109.01392303421291,142.85714285714286 L 110.50456109336295,142.85714285714286 L 110.5293420484639,142.85714285714286 L 110.54788744870217,142.85714285714286 L 112.04967066625626,142.85714285714286 L 112.0847187849674,142.85714285714286 L 112.10838880788019,142.85714285714286 L 113.6011591401011,142.85714285714286 L 113.62522336475807,142.85714285714286 L 115.17517086814831,142.85714285714286 L 115.20158238500936,142.85714285714286 L 116.6938868424417,142.85714285714286 L 116.71710890882699,142.85714285714286 L 116.74475678570391,142.85714285714286 L 118.24548282585313,142.85714285714286 L 118.27436706274594,142.85714285714286 L 118.30192534831737,142.85714285714286 L 119.79363850313341,142.85714285714286 L 119.8233290617757,142.85714285714286 L 119.85230288997401,142.85714285714286 L 121.34444608305645,142.85714285714286 L 121.37214771471668,142.85714285714286 L 121.39597900197936,142.85714285714286 L 122.88821178636728,142.85714285714286 L 122.91654055716599,40 L 122.94562189493091,40 L 124.46471415270737,40 L 124.49062395825763,40 L 125.97998982086959,40 L 126.00783479861862,40 L 126.02648770842347,40 L 127.53198000602522,40 L 127.55969955594654,40 L 127.58801040848415,40 L 129.07717917022404,40 L 129.10600965233354,40 L 129.14145197278887,40 L 130.63167791193362,40 L 130.66192393667,40 L 130.6834437682508,40 L 132.17877641180903,40 L 132.20298398255477,40 L 132.2326207864138,40 L 133.72945856390436,40 L 133.78432427939183,40 L 135.27331385852068,40 L 135.3029864989019,40 L 135.33032976534014,40 L 136.82313593408324,40 L 136.85121384922655,40 L 136.88052812438576,40 L 138.3719008322409,40 L 138.40053421347832,40 L 138.4327512469357,40 L 139.9193218608161,40 L 139.9494603759859,40 L 139.98042313116628,40 L 141.47012944073913,40 L 141.49969457155373,40 L 141.52787999626366,40 L 143.02039947282918,40 L 143.0416684487546,40 L 143.0711081517415,40 L 144.563090080474,40 L 144.59045126517339,40 L 144.62216658731995,40 L 146.1119266516761,40 L 146.13912657202553,40 L 146.16906798632323,40 L 147.66020775678408,40 L 147.68597421624554,40 L 147.7177432931754,40 L 149.20956395755803,40 L 149.2353304170195,40 L 149.25921545906547,40 L 150.76300552186274,40 L 150.78495539170996,40 L 150.8169036512508,40 L 152.3064307782127,40 L 152.33169552636332,40 L 152.36011388846754,40 L 153.85383388852676,40 L 153.87608836881265,40 L 153.909738863158,40 L 155.40037692230806,40 L 155.4265017469915,40 L 155.458557516099,40 L 156.94679452826165,40 L 156.97116336335733,40 L 157.00583519858537,40 L 158.490829005489,40 L 158.52231139024127,40 L 158.55463593326522,40 L 160.0444139158825,40 L 160.06955323620545,40 L 160.09904669397565,40 L 161.59463019318923,40 L 161.62177635875537,40 L 161.65476387744005,40 L 163.14015188608786,40 L 163.17186720823443,40 L 163.20691532694556,40 L 164.6913536677551,40 L 164.7154716471954,40 L 164.74702570499204,40 L 166.24054860417914,40 L 166.26296434881493,40 L 166.29459007965605,40 L 167.78528189358937,40 L 167.81000909390704,40 L 167.84097184908742,40 L 169.33399303696376,40 L 169.36207095210708,40 L 170.8846035160147,40 L 170.91040581199834,40 L 170.9348642383995,40 L 172.43344008721675,40 L 172.46316648238127,40 L 172.4969603228154,40 L 173.97174072089214,40 L 174.00798936309698,40 L 174.03889836349407,40 L 175.52622154434064,40 L 175.5456270211117,40 L 175.58241321114951,40 L 177.07486101467063,40 L 177.10238346371986,40 L 177.13289826237275,40 L 178.62529231111057,40 L 178.65129170796632,40 L 178.67881415701555,40 L 180.1693267883379,40 L 180.1989994287191,40 L 180.2284212134449,40 L 181.71655071604098,40 L 181.74375063639042,40 L 181.77442669939322,40 L 183.2697593429514,40 L 183.3003458146487,40 L 183.33333333333334,40" stroke="#22c55e" stroke-width="4" fill="none" opacity="0.4" stroke-dasharray="14800" stroke-dashoffset="14800">
      <animate attributeName="stroke-dashoffset" values="14800;0" dur="3s" begin="2.6s" fill="freeze"/>
    </path>
    
    <!-- Animated circle that moves along the path and draws the line -->
    <circle r="5" fill="#22c55e" opacity="0" filter="url(#trailGlow)">
      <animate attributeName="opacity" values="0;1;1;1" dur="3.2s" begin="2.4s" fill="freeze"/>
      <animate attributeName="r" values="5;6;5" dur="1s" begin="2.4s" repeatCount="3"/>
      <animateMotion dur="3s" begin="2.4s" fill="freeze">
        <mpath href="#path_followersCount_60"/>
      </animateMotion>
    </circle>
    
    <!-- Small trail dots that fade out -->
    <circle r="2" fill="#22c55e" opacity="0">
      <animate attributeName="opacity" values="0;0.6;0" dur="0.8s" begin="2.8s" fill="freeze"/>
      <animateMotion dur="3s" begin="2.4s" fill="freeze">
        <mpath href="#path_followersCount_60"/>
      </animateMotion>
    </circle>
    
    <!-- Hidden path for motion animation -->
    <path id="path_followersCount_60" d="M 30,160 L 30.02386712378488,160 L 30.054059393737973,160 L 31.54424949636053,160 L 31.580139773343348,160 L 31.61266141723941,160 L 33.09898117546442,160 L 33.12564354798086,160 L 33.156875077077736,160 L 34.64744146318339,160 L 34.67351253308354,160 L 34.6986876899287,160 L 36.19726353874594,160 L 36.21962552859844,160 L 36.24566076197639,160 L 37.74110091510118,160 L 37.766598600646134,160 L 37.79530365492795,160 L 39.29172931241322,160 L 39.31394795617692,160 L 39.34473152874631,160 L 40.82882942259494,160 L 40.86242616215699,160 L 40.893370999076275,160 L 42.388399032195764,160 L 42.41713992299978,160 L 42.446346688592385,160 L 43.93741478600883,160 L 43.967356200306526,160 L 44.00104253117407,160 L 45.48064294148667,160 L 45.505782261809635,160 L 45.534558989135846,160 L 47.02915698398894,160 L 47.04786364857709,160 L 47.08077949421735,160 L 48.57838775693521,160 L 48.600982684182,160 L 48.63171250196809,160 L 50.12819191423666,160 L 50.15082267800565,160 L 50.177717987916395,160 L 51.67373152539638,142.85714285714286 L 51.69668481786516,142.85714285714286 L 51.72614243911316,142.85714285714286 L 53.22335650008682,142.85714285714286 L 53.24716986908841,142.85714285714286 L 53.28037240690626,142.85714285714286 L 54.76264263812272,142.85714285714286 L 54.79597060376827,142.85714285714286 L 54.82859975723093,142.85714285714286 L 56.32027707552477,142.85714285714286 L 56.337783216619236,142.85714285714286 L 56.36763503961143,142.85714285714286 L 57.86561958581238,142.85714285714286 L 57.89011384873575,142.85714285714286 L 57.92233088219312,142.85714285714286 L 59.407450116924444,142.85714285714286 L 59.43959547733742,142.85714285714286 L 59.46831844988033,142.85714285714286 L 60.96246848820593,142.85714285714286 L 60.98775115461769,142.85714285714286 L 61.015506541061214,142.85714285714286 L 62.50840230110983,142.85714285714286 L 62.533201174471905,142.85714285714286 L 62.55826882175047,142.85714285714286 L 62.59799360660863,142.85714285714286 L 64.06213055759213,142.85714285714286 L 64.08829121879779,142.85714285714286 L 64.11549113914722,142.85714285714286 L 65.60921113920642,142.85714285714286 L 65.63530012736769,142.85714285714286 L 65.66380808077739,142.85714285714286 L 67.15656049473722,142.85714285714286 L 67.1805709646109,142.85714285714286 L 67.20796798583243,142.85714285714286 L 68.70014701543705,142.85714285714286 L 68.72899541580767,142.85714285714286 L 70.25916115894378,142.85714285714286 L 70.27668521829935,142.85714285714286 L 70.30449435952617,142.85714285714286 L 71.79959406569006,142.85714285714286 L 71.82426751122443,142.85714285714286 L 71.85476439161621,142.85714285714286 L 73.34735554122614,142.85714285714286 L 73.37143768414421,142.85714285714286 L 73.39851217666595,142.85714285714286 L 74.89819895767138,142.85714285714286 L 74.92403709017724,142.85714285714286 L 74.95641538798449,142.85714285714286 L 76.44794936018954,142.85714285714286 L 76.47579433793857,142.85714285714286 L 76.50249254697721,142.85714285714286 L 77.99866734880709,142.85714285714286 L 78.01579720641845,142.85714285714286 L 78.04480687113896,142.85714285714286 L 79.54142962949632,142.85714285714286 L 79.56382745587103,142.85714285714286 L 79.58952224228807,142.85714285714286 L 81.08924485981571,142.85714285714286 L 81.11011963399693,142.85714285714286 L 81.1417812013602,142.85714285714286 L 82.63670172491308,142.85714285714286 L 82.65960126259858,142.85714285714286 L 82.68945308559078,142.85714285714286 L 84.18188297085081,142.85714285714286 L 84.20394035026462,142.85714285714286 L 84.23642615763848,142.85714285714286 L 85.7290531437706,142.85714285714286 L 85.76143144157786,142.85714285714286 L 85.79449063330692,142.85714285714286 L 87.282440953292,142.85714285714286 L 87.30621848577138,142.85714285714286 L 87.33612406354689,142.85714285714286 L 88.830184510567,142.85714285714286 L 88.85362159608547,142.85714285714286 L 88.88352717386095,142.85714285714286 L 90.37905691829125,142.85714285714286 L 90.40984049086063,142.85714285714286 L 90.44621456089314,142.85714285714286 L 91.92760679731572,142.85714285714286 L 91.94996878716822,142.85714285714286 L 91.97856633188343,142.85714285714286 L 93.47739303635608,142.85714285714286 L 93.49636847486073,142.85714285714286 L 93.52630988915843,142.85714285714286 L 95.02044200922292,142.85714285714286 L 95.04276816255322,142.85714285714286 L 95.07127611596295,142.85714285714286 L 95.11028417037711,142.85714285714286 L 96.57268305003394,142.85714285714286 L 96.60248111824285,142.85714285714286 L 96.63206416731855,142.85714285714286 L 98.11700421943887,142.85714285714286 L 98.14429373109381,142.85714285714286 L 98.17280168450353,142.85714285714286 L 99.66781179936191,142.85714285714286 L 99.6831498308633,142.85714285714286 L 99.71914761741272,142.85714285714286 L 101.21430107835991,142.85714285714286 L 101.23974500912156,142.85714285714286 L 101.26065561982499,142.85714285714286 L 102.76360352435057,142.85714285714286 L 102.78764983074645,142.85714285714286 L 102.81691035112235,142.85714285714286 L 104.31258344164144,142.85714285714286 L 104.33827822805848,142.85714285714286 L 104.36644573450731,142.85714285714286 L 105.85934149455592,142.85714285714286 L 105.87975039394856,142.85714285714286 L 105.91126861522304,142.85714285714286 L 107.41027450230666,142.85714285714286 L 107.43231396345938,142.85714285714286 L 107.46322296385645,142.85714285714286 L 108.95731924739876,142.85714285714286 L 108.98299611555471,142.85714285714286 L 109.01392303421291,142.85714285714286 L 110.50456109336295,142.85714285714286 L 110.5293420484639,142.85714285714286 L 110.54788744870217,142.85714285714286 L 112.04967066625626,142.85714285714286 L 112.0847187849674,142.85714285714286 L 112.10838880788019,142.85714285714286 L 113.6011591401011,142.85714285714286 L 113.62522336475807,142.85714285714286 L 115.17517086814831,142.85714285714286 L 115.20158238500936,142.85714285714286 L 116.6938868424417,142.85714285714286 L 116.71710890882699,142.85714285714286 L 116.74475678570391,142.85714285714286 L 118.24548282585313,142.85714285714286 L 118.27436706274594,142.85714285714286 L 118.30192534831737,142.85714285714286 L 119.79363850313341,142.85714285714286 L 119.8233290617757,142.85714285714286 L 119.85230288997401,142.85714285714286 L 121.34444608305645,142.85714285714286 L 121.37214771471668,142.85714285714286 L 121.39597900197936,142.85714285714286 L 122.88821178636728,142.85714285714286 L 122.91654055716599,40 L 122.94562189493091,40 L 124.46471415270737,40 L 124.49062395825763,40 L 125.97998982086959,40 L 126.00783479861862,40 L 126.02648770842347,40 L 127.53198000602522,40 L 127.55969955594654,40 L 127.58801040848415,40 L 129.07717917022404,40 L 129.10600965233354,40 L 129.14145197278887,40 L 130.63167791193362,40 L 130.66192393667,40 L 130.6834437682508,40 L 132.17877641180903,40 L 132.20298398255477,40 L 132.2326207864138,40 L 133.72945856390436,40 L 133.78432427939183,40 L 135.27331385852068,40 L 135.3029864989019,40 L 135.33032976534014,40 L 136.82313593408324,40 L 136.85121384922655,40 L 136.88052812438576,40 L 138.3719008322409,40 L 138.40053421347832,40 L 138.4327512469357,40 L 139.9193218608161,40 L 139.9494603759859,40 L 139.98042313116628,40 L 141.47012944073913,40 L 141.49969457155373,40 L 141.52787999626366,40 L 143.02039947282918,40 L 143.0416684487546,40 L 143.0711081517415,40 L 144.563090080474,40 L 144.59045126517339,40 L 144.62216658731995,40 L 146.1119266516761,40 L 146.13912657202553,40 L 146.16906798632323,40 L 147.66020775678408,40 L 147.68597421624554,40 L 147.7177432931754,40 L 149.20956395755803,40 L 149.2353304170195,40 L 149.25921545906547,40 L 150.76300552186274,40 L 150.78495539170996,40 L 150.8169036512508,40 L 152.3064307782127,40 L 152.33169552636332,40 L 152.36011388846754,40 L 153.85383388852676,40 L 153.87608836881265,40 L 153.909738863158,40 L 155.40037692230806,40 L 155.4265017469915,40 L 155.458557516099,40 L 156.94679452826165,40 L 156.97116336335733,40 L 157.00583519858537,40 L 158.490829005489,40 L 158.52231139024127,40 L 158.55463593326522,40 L 160.0444139158825,40 L 160.06955323620545,40 L 160.09904669397565,40 L 161.59463019318923,40 L 161.62177635875537,40 L 161.65476387744005,40 L 163.14015188608786,40 L 163.17186720823443,40 L 163.20691532694556,40 L 164.6913536677551,40 L 164.7154716471954,40 L 164.74702570499204,40 L 166.24054860417914,40 L 166.26296434881493,40 L 166.29459007965605,40 L 167.78528189358937,40 L 167.81000909390704,40 L 167.84097184908742,40 L 169.33399303696376,40 L 169.36207095210708,40 L 170.8846035160147,40 L 170.91040581199834,40 L 170.9348642383995,40 L 172.43344008721675,40 L 172.46316648238127,40 L 172.4969603228154,40 L 173.97174072089214,40 L 174.00798936309698,40 L 174.03889836349407,40 L 175.52622154434064,40 L 175.5456270211117,40 L 175.58241321114951,40 L 177.07486101467063,40 L 177.10238346371986,40 L 177.13289826237275,40 L 178.62529231111057,40 L 178.65129170796632,40 L 178.67881415701555,40 L 180.1693267883379,40 L 180.1989994287191,40 L 180.2284212134449,40 L 181.71655071604098,40 L 181.74375063639042,40 L 181.77442669939322,40 L 183.2697593429514,40 L 183.3003458146487,40 L 183.33333333333334,40" fill="none" stroke="none"/>
  </g>
  <!-- 🔓 Public Contributions Chart -->
  <g transform="translate(293.33333333333337, 250)">
    <!-- Chart Background -->
    <rect x="0" y="0" width="213.33333333333334" height="200" fill="#ffffff" stroke="#e2e8f0" stroke-width="1" rx="8" filter="url(#shadow)">
      <animate attributeName="opacity" values="0;1" dur="0.5s" begin="2.3s" fill="freeze"/>
    </rect>
    
    <!-- Chart Title -->
    <text x="106.66666666666667" y="25" text-anchor="middle" fill="#1e293b" font-size="14" font-weight="bold" font-family="Arial, sans-serif">
      🔓 Public Contributions
      <animate attributeName="opacity" values="0;1" dur="0.5s" begin="2.5s" fill="freeze"/>
    </text>
    
    <!-- Y-axis labels -->
    <text x="10" y="45" fill="#64748b" font-size="10" font-family="Arial, sans-serif">3,180
      <animate attributeName="opacity" values="0;1" dur="0.5s" begin="2.6999999999999997s" fill="freeze"/>
    </text>
    <text x="10" y="185" fill="#64748b" font-size="10" font-family="Arial, sans-serif">1,753
      <animate attributeName="opacity" values="0;1" dur="0.5s" begin="2.6999999999999997s" fill="freeze"/>
    </text>
    
    <!-- Chart Line with draw animation that follows the circle -->
    <path d="M 30,160 L 30.02386712378488,160 L 30.054059393737973,160 L 31.54424949636053,160 L 31.580139773343348,160 L 31.61266141723941,160 L 33.09898117546442,160 L 33.12564354798086,160 L 33.156875077077736,160 L 34.64744146318339,160 L 34.67351253308354,160 L 34.6986876899287,160 L 36.19726353874594,160 L 36.21962552859844,160 L 36.24566076197639,160 L 37.74110091510118,160 L 37.766598600646134,160 L 37.79530365492795,160 L 39.29172931241322,160 L 39.31394795617692,160 L 39.34473152874631,160 L 40.82882942259494,160 L 40.86242616215699,160 L 40.893370999076275,160 L 42.388399032195764,160 L 42.41713992299978,160 L 42.446346688592385,160 L 43.93741478600883,160 L 43.967356200306526,160 L 44.00104253117407,160 L 45.48064294148667,160 L 45.505782261809635,160 L 45.534558989135846,160 L 47.02915698398894,160 L 47.04786364857709,160 L 47.08077949421735,160 L 48.57838775693521,160 L 48.600982684182,160 L 48.63171250196809,160 L 50.12819191423666,160 L 50.15082267800565,160 L 50.177717987916395,160 L 51.67373152539638,82.97126839523476 L 51.69668481786516,82.97126839523476 L 51.72614243911316,82.97126839523476 L 53.22335650008682,82.97126839523476 L 53.24716986908841,82.97126839523476 L 53.28037240690626,82.97126839523476 L 54.76264263812272,82.97126839523476 L 54.79597060376827,82.97126839523476 L 54.82859975723093,82.97126839523476 L 56.32027707552477,82.97126839523476 L 56.337783216619236,82.97126839523476 L 56.36763503961143,82.97126839523476 L 57.86561958581238,82.97126839523476 L 57.89011384873575,82.97126839523476 L 57.92233088219312,82.97126839523476 L 59.407450116924444,82.97126839523476 L 59.43959547733742,82.97126839523476 L 59.46831844988033,82.97126839523476 L 60.96246848820593,82.97126839523476 L 60.98775115461769,82.97126839523476 L 61.015506541061214,82.97126839523476 L 62.50840230110983,82.97126839523476 L 62.533201174471905,82.97126839523476 L 62.55826882175047,82.97126839523476 L 62.59799360660863,82.97126839523476 L 64.06213055759213,82.97126839523476 L 64.08829121879779,82.97126839523476 L 64.11549113914722,82.97126839523476 L 65.60921113920642,82.97126839523476 L 65.63530012736769,82.97126839523476 L 65.66380808077739,82.97126839523476 L 67.15656049473722,82.97126839523476 L 67.1805709646109,82.97126839523476 L 67.20796798583243,82.97126839523476 L 68.70014701543705,82.97126839523476 L 68.72899541580767,82.97126839523476 L 70.25916115894378,82.97126839523476 L 70.27668521829935,82.97126839523476 L 70.30449435952617,82.97126839523476 L 71.79959406569006,82.97126839523476 L 71.82426751122443,82.97126839523476 L 71.85476439161621,82.97126839523476 L 73.34735554122614,82.97126839523476 L 73.37143768414421,82.97126839523476 L 73.39851217666595,82.97126839523476 L 74.89819895767138,82.97126839523476 L 74.92403709017724,82.97126839523476 L 74.95641538798449,82.97126839523476 L 76.44794936018954,82.97126839523476 L 76.47579433793857,82.97126839523476 L 76.50249254697721,82.97126839523476 L 77.99866734880709,82.97126839523476 L 78.01579720641845,82.97126839523476 L 78.04480687113896,82.97126839523476 L 79.54142962949632,82.97126839523476 L 79.56382745587103,82.97126839523476 L 79.58952224228807,82.97126839523476 L 81.08924485981571,82.97126839523476 L 81.11011963399693,82.97126839523476 L 81.1417812013602,82.97126839523476 L 82.63670172491308,82.97126839523476 L 82.65960126259858,82.97126839523476 L 82.68945308559078,82.97126839523476 L 84.18188297085081,82.97126839523476 L 84.20394035026462,82.97126839523476 L 84.23642615763848,82.97126839523476 L 85.7290531437706,82.97126839523476 L 85.76143144157786,82.97126839523476 L 85.79449063330692,82.97126839523476 L 87.282440953292,82.97126839523476 L 87.30621848577138,82.97126839523476 L 87.33612406354689,82.97126839523476 L 88.830184510567,82.97126839523476 L 88.85362159608547,82.97126839523476 L 88.88352717386095,82.97126839523476 L 90.37905691829125,82.97126839523476 L 90.40984049086063,82.97126839523476 L 90.44621456089314,82.97126839523476 L 91.92760679731572,82.97126839523476 L 91.94996878716822,82.97126839523476 L 91.97856633188343,82.97126839523476 L 93.47739303635608,82.97126839523476 L 93.49636847486073,82.97126839523476 L 93.52630988915843,82.97126839523476 L 95.02044200922292,82.97126839523476 L 95.04276816255322,82.97126839523476 L 95.07127611596295,82.97126839523476 L 95.11028417037711,82.97126839523476 L 96.57268305003394,82.97126839523476 L 96.60248111824285,82.97126839523476 L 96.63206416731855,82.97126839523476 L 98.11700421943887,82.97126839523476 L 98.14429373109381,82.97126839523476 L 98.17280168450353,82.97126839523476 L 99.66781179936191,82.97126839523476 L 99.6831498308633,82.97126839523476 L 99.71914761741272,82.97126839523476 L 101.21430107835991,82.97126839523476 L 101.23974500912156,82.97126839523476 L 101.26065561982499,82.97126839523476 L 102.76360352435057,82.97126839523476 L 102.78764983074645,82.97126839523476 L 102.81691035112235,82.97126839523476 L 104.31258344164144,82.97126839523476 L 104.33827822805848,82.97126839523476 L 104.36644573450731,82.97126839523476 L 105.85934149455592,82.97126839523476 L 105.87975039394856,82.97126839523476 L 105.91126861522304,82.97126839523476 L 107.41027450230666,82.97126839523476 L 107.43231396345938,82.97126839523476 L 107.46322296385645,82.97126839523476 L 108.95731924739876,82.97126839523476 L 108.98299611555471,82.97126839523476 L 109.01392303421291,82.97126839523476 L 110.50456109336295,82.97126839523476 L 110.5293420484639,82.97126839523476 L 110.54788744870217,82.97126839523476 L 112.04967066625626,82.97126839523476 L 112.0847187849674,82.97126839523476 L 112.10838880788019,82.97126839523476 L 113.6011591401011,82.97126839523476 L 113.62522336475807,82.97126839523476 L 115.17517086814831,82.97126839523476 L 115.20158238500936,82.97126839523476 L 116.6938868424417,82.97126839523476 L 116.71710890882699,82.97126839523476 L 116.74475678570391,82.97126839523476 L 118.24548282585313,82.97126839523476 L 118.27436706274594,82.97126839523476 L 118.30192534831737,82.97126839523476 L 119.79363850313341,82.97126839523476 L 119.8233290617757,82.97126839523476 L 119.85230288997401,82.97126839523476 L 121.34444608305645,82.97126839523476 L 121.37214771471668,82.97126839523476 L 121.39597900197936,82.97126839523476 L 122.88821178636728,82.97126839523476 L 122.91654055716599,40 L 122.94562189493091,40 L 124.46471415270737,40 L 124.49062395825763,40 L 125.97998982086959,40 L 126.00783479861862,40 L 126.02648770842347,40 L 127.53198000602522,40 L 127.55969955594654,40 L 127.58801040848415,40 L 129.07717917022404,40 L 129.10600965233354,40 L 129.14145197278887,40 L 130.63167791193362,40 L 130.66192393667,40 L 130.6834437682508,40 L 132.17877641180903,40 L 132.20298398255477,40 L 132.2326207864138,40 L 133.72945856390436,40 L 133.78432427939183,40 L 135.27331385852068,40 L 135.3029864989019,40 L 135.33032976534014,40 L 136.82313593408324,40 L 136.85121384922655,40 L 136.88052812438576,40 L 138.3719008322409,40 L 138.40053421347832,40 L 138.4327512469357,40 L 139.9193218608161,40 L 139.9494603759859,40 L 139.98042313116628,40 L 141.47012944073913,40 L 141.49969457155373,40 L 141.52787999626366,40 L 143.02039947282918,40 L 143.0416684487546,40 L 143.0711081517415,40 L 144.563090080474,40 L 144.59045126517339,40 L 144.62216658731995,40 L 146.1119266516761,40 L 146.13912657202553,40 L 146.16906798632323,40 L 147.66020775678408,40 L 147.68597421624554,40 L 147.7177432931754,40 L 149.20956395755803,40 L 149.2353304170195,40 L 149.25921545906547,40 L 150.76300552186274,40 L 150.78495539170996,40 L 150.8169036512508,40 L 152.3064307782127,40 L 152.33169552636332,40 L 152.36011388846754,40 L 153.85383388852676,40 L 153.87608836881265,40 L 153.909738863158,40 L 155.40037692230806,40 L 155.4265017469915,40 L 155.458557516099,40 L 156.94679452826165,40 L 156.97116336335733,40 L 157.00583519858537,40 L 158.490829005489,40 L 158.52231139024127,40 L 158.55463593326522,40 L 160.0444139158825,40 L 160.06955323620545,40 L 160.09904669397565,40 L 161.59463019318923,40 L 161.62177635875537,40 L 161.65476387744005,40 L 163.14015188608786,40 L 163.17186720823443,40 L 163.20691532694556,40 L 164.6913536677551,40 L 164.7154716471954,40 L 164.74702570499204,40 L 166.24054860417914,40 L 166.26296434881493,40 L 166.29459007965605,40 L 167.78528189358937,40 L 167.81000909390704,40 L 167.84097184908742,40 L 169.33399303696376,40 L 169.36207095210708,40 L 170.8846035160147,40 L 170.91040581199834,40 L 170.9348642383995,40 L 172.43344008721675,40 L 172.46316648238127,40 L 172.4969603228154,40 L 173.97174072089214,40 L 174.00798936309698,40 L 174.03889836349407,40 L 175.52622154434064,40 L 175.5456270211117,40 L 175.58241321114951,40 L 177.07486101467063,40 L 177.10238346371986,40 L 177.13289826237275,40 L 178.62529231111057,40 L 178.65129170796632,40 L 178.67881415701555,40 L 180.1693267883379,40 L 180.1989994287191,40 L 180.2284212134449,40 L 181.71655071604098,40 L 181.74375063639042,40 L 181.77442669939322,40 L 183.2697593429514,40 L 183.3003458146487,40 L 183.33333333333334,40" stroke="#3b82f6" stroke-width="2" fill="none" stroke-dasharray="14800" stroke-dashoffset="14800">
      <animate attributeName="stroke-dashoffset" values="14800;0" dur="3s" begin="3.0999999999999996s" fill="freeze"/>
    </path>
    
    <!-- Glow effect for the line that also follows the circle -->
    <path d="M 30,160 L 30.02386712378488,160 L 30.054059393737973,160 L 31.54424949636053,160 L 31.580139773343348,160 L 31.61266141723941,160 L 33.09898117546442,160 L 33.12564354798086,160 L 33.156875077077736,160 L 34.64744146318339,160 L 34.67351253308354,160 L 34.6986876899287,160 L 36.19726353874594,160 L 36.21962552859844,160 L 36.24566076197639,160 L 37.74110091510118,160 L 37.766598600646134,160 L 37.79530365492795,160 L 39.29172931241322,160 L 39.31394795617692,160 L 39.34473152874631,160 L 40.82882942259494,160 L 40.86242616215699,160 L 40.893370999076275,160 L 42.388399032195764,160 L 42.41713992299978,160 L 42.446346688592385,160 L 43.93741478600883,160 L 43.967356200306526,160 L 44.00104253117407,160 L 45.48064294148667,160 L 45.505782261809635,160 L 45.534558989135846,160 L 47.02915698398894,160 L 47.04786364857709,160 L 47.08077949421735,160 L 48.57838775693521,160 L 48.600982684182,160 L 48.63171250196809,160 L 50.12819191423666,160 L 50.15082267800565,160 L 50.177717987916395,160 L 51.67373152539638,82.97126839523476 L 51.69668481786516,82.97126839523476 L 51.72614243911316,82.97126839523476 L 53.22335650008682,82.97126839523476 L 53.24716986908841,82.97126839523476 L 53.28037240690626,82.97126839523476 L 54.76264263812272,82.97126839523476 L 54.79597060376827,82.97126839523476 L 54.82859975723093,82.97126839523476 L 56.32027707552477,82.97126839523476 L 56.337783216619236,82.97126839523476 L 56.36763503961143,82.97126839523476 L 57.86561958581238,82.97126839523476 L 57.89011384873575,82.97126839523476 L 57.92233088219312,82.97126839523476 L 59.407450116924444,82.97126839523476 L 59.43959547733742,82.97126839523476 L 59.46831844988033,82.97126839523476 L 60.96246848820593,82.97126839523476 L 60.98775115461769,82.97126839523476 L 61.015506541061214,82.97126839523476 L 62.50840230110983,82.97126839523476 L 62.533201174471905,82.97126839523476 L 62.55826882175047,82.97126839523476 L 62.59799360660863,82.97126839523476 L 64.06213055759213,82.97126839523476 L 64.08829121879779,82.97126839523476 L 64.11549113914722,82.97126839523476 L 65.60921113920642,82.97126839523476 L 65.63530012736769,82.97126839523476 L 65.66380808077739,82.97126839523476 L 67.15656049473722,82.97126839523476 L 67.1805709646109,82.97126839523476 L 67.20796798583243,82.97126839523476 L 68.70014701543705,82.97126839523476 L 68.72899541580767,82.97126839523476 L 70.25916115894378,82.97126839523476 L 70.27668521829935,82.97126839523476 L 70.30449435952617,82.97126839523476 L 71.79959406569006,82.97126839523476 L 71.82426751122443,82.97126839523476 L 71.85476439161621,82.97126839523476 L 73.34735554122614,82.97126839523476 L 73.37143768414421,82.97126839523476 L 73.39851217666595,82.97126839523476 L 74.89819895767138,82.97126839523476 L 74.92403709017724,82.97126839523476 L 74.95641538798449,82.97126839523476 L 76.44794936018954,82.97126839523476 L 76.47579433793857,82.97126839523476 L 76.50249254697721,82.97126839523476 L 77.99866734880709,82.97126839523476 L 78.01579720641845,82.97126839523476 L 78.04480687113896,82.97126839523476 L 79.54142962949632,82.97126839523476 L 79.56382745587103,82.97126839523476 L 79.58952224228807,82.97126839523476 L 81.08924485981571,82.97126839523476 L 81.11011963399693,82.97126839523476 L 81.1417812013602,82.97126839523476 L 82.63670172491308,82.97126839523476 L 82.65960126259858,82.97126839523476 L 82.68945308559078,82.97126839523476 L 84.18188297085081,82.97126839523476 L 84.20394035026462,82.97126839523476 L 84.23642615763848,82.97126839523476 L 85.7290531437706,82.97126839523476 L 85.76143144157786,82.97126839523476 L 85.79449063330692,82.97126839523476 L 87.282440953292,82.97126839523476 L 87.30621848577138,82.97126839523476 L 87.33612406354689,82.97126839523476 L 88.830184510567,82.97126839523476 L 88.85362159608547,82.97126839523476 L 88.88352717386095,82.97126839523476 L 90.37905691829125,82.97126839523476 L 90.40984049086063,82.97126839523476 L 90.44621456089314,82.97126839523476 L 91.92760679731572,82.97126839523476 L 91.94996878716822,82.97126839523476 L 91.97856633188343,82.97126839523476 L 93.47739303635608,82.97126839523476 L 93.49636847486073,82.97126839523476 L 93.52630988915843,82.97126839523476 L 95.02044200922292,82.97126839523476 L 95.04276816255322,82.97126839523476 L 95.07127611596295,82.97126839523476 L 95.11028417037711,82.97126839523476 L 96.57268305003394,82.97126839523476 L 96.60248111824285,82.97126839523476 L 96.63206416731855,82.97126839523476 L 98.11700421943887,82.97126839523476 L 98.14429373109381,82.97126839523476 L 98.17280168450353,82.97126839523476 L 99.66781179936191,82.97126839523476 L 99.6831498308633,82.97126839523476 L 99.71914761741272,82.97126839523476 L 101.21430107835991,82.97126839523476 L 101.23974500912156,82.97126839523476 L 101.26065561982499,82.97126839523476 L 102.76360352435057,82.97126839523476 L 102.78764983074645,82.97126839523476 L 102.81691035112235,82.97126839523476 L 104.31258344164144,82.97126839523476 L 104.33827822805848,82.97126839523476 L 104.36644573450731,82.97126839523476 L 105.85934149455592,82.97126839523476 L 105.87975039394856,82.97126839523476 L 105.91126861522304,82.97126839523476 L 107.41027450230666,82.97126839523476 L 107.43231396345938,82.97126839523476 L 107.46322296385645,82.97126839523476 L 108.95731924739876,82.97126839523476 L 108.98299611555471,82.97126839523476 L 109.01392303421291,82.97126839523476 L 110.50456109336295,82.97126839523476 L 110.5293420484639,82.97126839523476 L 110.54788744870217,82.97126839523476 L 112.04967066625626,82.97126839523476 L 112.0847187849674,82.97126839523476 L 112.10838880788019,82.97126839523476 L 113.6011591401011,82.97126839523476 L 113.62522336475807,82.97126839523476 L 115.17517086814831,82.97126839523476 L 115.20158238500936,82.97126839523476 L 116.6938868424417,82.97126839523476 L 116.71710890882699,82.97126839523476 L 116.74475678570391,82.97126839523476 L 118.24548282585313,82.97126839523476 L 118.27436706274594,82.97126839523476 L 118.30192534831737,82.97126839523476 L 119.79363850313341,82.97126839523476 L 119.8233290617757,82.97126839523476 L 119.85230288997401,82.97126839523476 L 121.34444608305645,82.97126839523476 L 121.37214771471668,82.97126839523476 L 121.39597900197936,82.97126839523476 L 122.88821178636728,82.97126839523476 L 122.91654055716599,40 L 122.94562189493091,40 L 124.46471415270737,40 L 124.49062395825763,40 L 125.97998982086959,40 L 126.00783479861862,40 L 126.02648770842347,40 L 127.53198000602522,40 L 127.55969955594654,40 L 127.58801040848415,40 L 129.07717917022404,40 L 129.10600965233354,40 L 129.14145197278887,40 L 130.63167791193362,40 L 130.66192393667,40 L 130.6834437682508,40 L 132.17877641180903,40 L 132.20298398255477,40 L 132.2326207864138,40 L 133.72945856390436,40 L 133.78432427939183,40 L 135.27331385852068,40 L 135.3029864989019,40 L 135.33032976534014,40 L 136.82313593408324,40 L 136.85121384922655,40 L 136.88052812438576,40 L 138.3719008322409,40 L 138.40053421347832,40 L 138.4327512469357,40 L 139.9193218608161,40 L 139.9494603759859,40 L 139.98042313116628,40 L 141.47012944073913,40 L 141.49969457155373,40 L 141.52787999626366,40 L 143.02039947282918,40 L 143.0416684487546,40 L 143.0711081517415,40 L 144.563090080474,40 L 144.59045126517339,40 L 144.62216658731995,40 L 146.1119266516761,40 L 146.13912657202553,40 L 146.16906798632323,40 L 147.66020775678408,40 L 147.68597421624554,40 L 147.7177432931754,40 L 149.20956395755803,40 L 149.2353304170195,40 L 149.25921545906547,40 L 150.76300552186274,40 L 150.78495539170996,40 L 150.8169036512508,40 L 152.3064307782127,40 L 152.33169552636332,40 L 152.36011388846754,40 L 153.85383388852676,40 L 153.87608836881265,40 L 153.909738863158,40 L 155.40037692230806,40 L 155.4265017469915,40 L 155.458557516099,40 L 156.94679452826165,40 L 156.97116336335733,40 L 157.00583519858537,40 L 158.490829005489,40 L 158.52231139024127,40 L 158.55463593326522,40 L 160.0444139158825,40 L 160.06955323620545,40 L 160.09904669397565,40 L 161.59463019318923,40 L 161.62177635875537,40 L 161.65476387744005,40 L 163.14015188608786,40 L 163.17186720823443,40 L 163.20691532694556,40 L 164.6913536677551,40 L 164.7154716471954,40 L 164.74702570499204,40 L 166.24054860417914,40 L 166.26296434881493,40 L 166.29459007965605,40 L 167.78528189358937,40 L 167.81000909390704,40 L 167.84097184908742,40 L 169.33399303696376,40 L 169.36207095210708,40 L 170.8846035160147,40 L 170.91040581199834,40 L 170.9348642383995,40 L 172.43344008721675,40 L 172.46316648238127,40 L 172.4969603228154,40 L 173.97174072089214,40 L 174.00798936309698,40 L 174.03889836349407,40 L 175.52622154434064,40 L 175.5456270211117,40 L 175.58241321114951,40 L 177.07486101467063,40 L 177.10238346371986,40 L 177.13289826237275,40 L 178.62529231111057,40 L 178.65129170796632,40 L 178.67881415701555,40 L 180.1693267883379,40 L 180.1989994287191,40 L 180.2284212134449,40 L 181.71655071604098,40 L 181.74375063639042,40 L 181.77442669939322,40 L 183.2697593429514,40 L 183.3003458146487,40 L 183.33333333333334,40" stroke="#3b82f6" stroke-width="4" fill="none" opacity="0.4" stroke-dasharray="14800" stroke-dashoffset="14800">
      <animate attributeName="stroke-dashoffset" values="14800;0" dur="3s" begin="3.0999999999999996s" fill="freeze"/>
    </path>
    
    <!-- Animated circle that moves along the path and draws the line -->
    <circle r="5" fill="#3b82f6" opacity="0" filter="url(#trailGlow)">
      <animate attributeName="opacity" values="0;1;1;1" dur="3.2s" begin="2.9s" fill="freeze"/>
      <animate attributeName="r" values="5;6;5" dur="1s" begin="2.9s" repeatCount="3"/>
      <animateMotion dur="3s" begin="2.9s" fill="freeze">
        <mpath href="#path_publicContributions_293.33333333333337"/>
      </animateMotion>
    </circle>
    
    <!-- Small trail dots that fade out -->
    <circle r="2" fill="#3b82f6" opacity="0">
      <animate attributeName="opacity" values="0;0.6;0" dur="0.8s" begin="3.3s" fill="freeze"/>
      <animateMotion dur="3s" begin="2.9s" fill="freeze">
        <mpath href="#path_publicContributions_293.33333333333337"/>
      </animateMotion>
    </circle>
    
    <!-- Hidden path for motion animation -->
    <path id="path_publicContributions_293.33333333333337" d="M 30,160 L 30.02386712378488,160 L 30.054059393737973,160 L 31.54424949636053,160 L 31.580139773343348,160 L 31.61266141723941,160 L 33.09898117546442,160 L 33.12564354798086,160 L 33.156875077077736,160 L 34.64744146318339,160 L 34.67351253308354,160 L 34.6986876899287,160 L 36.19726353874594,160 L 36.21962552859844,160 L 36.24566076197639,160 L 37.74110091510118,160 L 37.766598600646134,160 L 37.79530365492795,160 L 39.29172931241322,160 L 39.31394795617692,160 L 39.34473152874631,160 L 40.82882942259494,160 L 40.86242616215699,160 L 40.893370999076275,160 L 42.388399032195764,160 L 42.41713992299978,160 L 42.446346688592385,160 L 43.93741478600883,160 L 43.967356200306526,160 L 44.00104253117407,160 L 45.48064294148667,160 L 45.505782261809635,160 L 45.534558989135846,160 L 47.02915698398894,160 L 47.04786364857709,160 L 47.08077949421735,160 L 48.57838775693521,160 L 48.600982684182,160 L 48.63171250196809,160 L 50.12819191423666,160 L 50.15082267800565,160 L 50.177717987916395,160 L 51.67373152539638,82.97126839523476 L 51.69668481786516,82.97126839523476 L 51.72614243911316,82.97126839523476 L 53.22335650008682,82.97126839523476 L 53.24716986908841,82.97126839523476 L 53.28037240690626,82.97126839523476 L 54.76264263812272,82.97126839523476 L 54.79597060376827,82.97126839523476 L 54.82859975723093,82.97126839523476 L 56.32027707552477,82.97126839523476 L 56.337783216619236,82.97126839523476 L 56.36763503961143,82.97126839523476 L 57.86561958581238,82.97126839523476 L 57.89011384873575,82.97126839523476 L 57.92233088219312,82.97126839523476 L 59.407450116924444,82.97126839523476 L 59.43959547733742,82.97126839523476 L 59.46831844988033,82.97126839523476 L 60.96246848820593,82.97126839523476 L 60.98775115461769,82.97126839523476 L 61.015506541061214,82.97126839523476 L 62.50840230110983,82.97126839523476 L 62.533201174471905,82.97126839523476 L 62.55826882175047,82.97126839523476 L 62.59799360660863,82.97126839523476 L 64.06213055759213,82.97126839523476 L 64.08829121879779,82.97126839523476 L 64.11549113914722,82.97126839523476 L 65.60921113920642,82.97126839523476 L 65.63530012736769,82.97126839523476 L 65.66380808077739,82.97126839523476 L 67.15656049473722,82.97126839523476 L 67.1805709646109,82.97126839523476 L 67.20796798583243,82.97126839523476 L 68.70014701543705,82.97126839523476 L 68.72899541580767,82.97126839523476 L 70.25916115894378,82.97126839523476 L 70.27668521829935,82.97126839523476 L 70.30449435952617,82.97126839523476 L 71.79959406569006,82.97126839523476 L 71.82426751122443,82.97126839523476 L 71.85476439161621,82.97126839523476 L 73.34735554122614,82.97126839523476 L 73.37143768414421,82.97126839523476 L 73.39851217666595,82.97126839523476 L 74.89819895767138,82.97126839523476 L 74.92403709017724,82.97126839523476 L 74.95641538798449,82.97126839523476 L 76.44794936018954,82.97126839523476 L 76.47579433793857,82.97126839523476 L 76.50249254697721,82.97126839523476 L 77.99866734880709,82.97126839523476 L 78.01579720641845,82.97126839523476 L 78.04480687113896,82.97126839523476 L 79.54142962949632,82.97126839523476 L 79.56382745587103,82.97126839523476 L 79.58952224228807,82.97126839523476 L 81.08924485981571,82.97126839523476 L 81.11011963399693,82.97126839523476 L 81.1417812013602,82.97126839523476 L 82.63670172491308,82.97126839523476 L 82.65960126259858,82.97126839523476 L 82.68945308559078,82.97126839523476 L 84.18188297085081,82.97126839523476 L 84.20394035026462,82.97126839523476 L 84.23642615763848,82.97126839523476 L 85.7290531437706,82.97126839523476 L 85.76143144157786,82.97126839523476 L 85.79449063330692,82.97126839523476 L 87.282440953292,82.97126839523476 L 87.30621848577138,82.97126839523476 L 87.33612406354689,82.97126839523476 L 88.830184510567,82.97126839523476 L 88.85362159608547,82.97126839523476 L 88.88352717386095,82.97126839523476 L 90.37905691829125,82.97126839523476 L 90.40984049086063,82.97126839523476 L 90.44621456089314,82.97126839523476 L 91.92760679731572,82.97126839523476 L 91.94996878716822,82.97126839523476 L 91.97856633188343,82.97126839523476 L 93.47739303635608,82.97126839523476 L 93.49636847486073,82.97126839523476 L 93.52630988915843,82.97126839523476 L 95.02044200922292,82.97126839523476 L 95.04276816255322,82.97126839523476 L 95.07127611596295,82.97126839523476 L 95.11028417037711,82.97126839523476 L 96.57268305003394,82.97126839523476 L 96.60248111824285,82.97126839523476 L 96.63206416731855,82.97126839523476 L 98.11700421943887,82.97126839523476 L 98.14429373109381,82.97126839523476 L 98.17280168450353,82.97126839523476 L 99.66781179936191,82.97126839523476 L 99.6831498308633,82.97126839523476 L 99.71914761741272,82.97126839523476 L 101.21430107835991,82.97126839523476 L 101.23974500912156,82.97126839523476 L 101.26065561982499,82.97126839523476 L 102.76360352435057,82.97126839523476 L 102.78764983074645,82.97126839523476 L 102.81691035112235,82.97126839523476 L 104.31258344164144,82.97126839523476 L 104.33827822805848,82.97126839523476 L 104.36644573450731,82.97126839523476 L 105.85934149455592,82.97126839523476 L 105.87975039394856,82.97126839523476 L 105.91126861522304,82.97126839523476 L 107.41027450230666,82.97126839523476 L 107.43231396345938,82.97126839523476 L 107.46322296385645,82.97126839523476 L 108.95731924739876,82.97126839523476 L 108.98299611555471,82.97126839523476 L 109.01392303421291,82.97126839523476 L 110.50456109336295,82.97126839523476 L 110.5293420484639,82.97126839523476 L 110.54788744870217,82.97126839523476 L 112.04967066625626,82.97126839523476 L 112.0847187849674,82.97126839523476 L 112.10838880788019,82.97126839523476 L 113.6011591401011,82.97126839523476 L 113.62522336475807,82.97126839523476 L 115.17517086814831,82.97126839523476 L 115.20158238500936,82.97126839523476 L 116.6938868424417,82.97126839523476 L 116.71710890882699,82.97126839523476 L 116.74475678570391,82.97126839523476 L 118.24548282585313,82.97126839523476 L 118.27436706274594,82.97126839523476 L 118.30192534831737,82.97126839523476 L 119.79363850313341,82.97126839523476 L 119.8233290617757,82.97126839523476 L 119.85230288997401,82.97126839523476 L 121.34444608305645,82.97126839523476 L 121.37214771471668,82.97126839523476 L 121.39597900197936,82.97126839523476 L 122.88821178636728,82.97126839523476 L 122.91654055716599,40 L 122.94562189493091,40 L 124.46471415270737,40 L 124.49062395825763,40 L 125.97998982086959,40 L 126.00783479861862,40 L 126.02648770842347,40 L 127.53198000602522,40 L 127.55969955594654,40 L 127.58801040848415,40 L 129.07717917022404,40 L 129.10600965233354,40 L 129.14145197278887,40 L 130.63167791193362,40 L 130.66192393667,40 L 130.6834437682508,40 L 132.17877641180903,40 L 132.20298398255477,40 L 132.2326207864138,40 L 133.72945856390436,40 L 133.78432427939183,40 L 135.27331385852068,40 L 135.3029864989019,40 L 135.33032976534014,40 L 136.82313593408324,40 L 136.85121384922655,40 L 136.88052812438576,40 L 138.3719008322409,40 L 138.40053421347832,40 L 138.4327512469357,40 L 139.9193218608161,40 L 139.9494603759859,40 L 139.98042313116628,40 L 141.47012944073913,40 L 141.49969457155373,40 L 141.52787999626366,40 L 143.02039947282918,40 L 143.0416684487546,40 L 143.0711081517415,40 L 144.563090080474,40 L 144.59045126517339,40 L 144.62216658731995,40 L 146.1119266516761,40 L 146.13912657202553,40 L 146.16906798632323,40 L 147.66020775678408,40 L 147.68597421624554,40 L 147.7177432931754,40 L 149.20956395755803,40 L 149.2353304170195,40 L 149.25921545906547,40 L 150.76300552186274,40 L 150.78495539170996,40 L 150.8169036512508,40 L 152.3064307782127,40 L 152.33169552636332,40 L 152.36011388846754,40 L 153.85383388852676,40 L 153.87608836881265,40 L 153.909738863158,40 L 155.40037692230806,40 L 155.4265017469915,40 L 155.458557516099,40 L 156.94679452826165,40 L 156.97116336335733,40 L 157.00583519858537,40 L 158.490829005489,40 L 158.52231139024127,40 L 158.55463593326522,40 L 160.0444139158825,40 L 160.06955323620545,40 L 160.09904669397565,40 L 161.59463019318923,40 L 161.62177635875537,40 L 161.65476387744005,40 L 163.14015188608786,40 L 163.17186720823443,40 L 163.20691532694556,40 L 164.6913536677551,40 L 164.7154716471954,40 L 164.74702570499204,40 L 166.24054860417914,40 L 166.26296434881493,40 L 166.29459007965605,40 L 167.78528189358937,40 L 167.81000909390704,40 L 167.84097184908742,40 L 169.33399303696376,40 L 169.36207095210708,40 L 170.8846035160147,40 L 170.91040581199834,40 L 170.9348642383995,40 L 172.43344008721675,40 L 172.46316648238127,40 L 172.4969603228154,40 L 173.97174072089214,40 L 174.00798936309698,40 L 174.03889836349407,40 L 175.52622154434064,40 L 175.5456270211117,40 L 175.58241321114951,40 L 177.07486101467063,40 L 177.10238346371986,40 L 177.13289826237275,40 L 178.62529231111057,40 L 178.65129170796632,40 L 178.67881415701555,40 L 180.1693267883379,40 L 180.1989994287191,40 L 180.2284212134449,40 L 181.71655071604098,40 L 181.74375063639042,40 L 181.77442669939322,40 L 183.2697593429514,40 L 183.3003458146487,40 L 183.33333333333334,40" fill="none" stroke="none"/>
  </g>
  <!-- 📊 Total Contributions Chart -->
  <g transform="translate(526.6666666666667, 250)">
    <!-- Chart Background -->
    <rect x="0" y="0" width="213.33333333333334" height="200" fill="#ffffff" stroke="#e2e8f0" stroke-width="1" rx="8" filter="url(#shadow)">
      <animate attributeName="opacity" values="0;1" dur="0.5s" begin="2.8s" fill="freeze"/>
    </rect>
    
    <!-- Chart Title -->
    <text x="106.66666666666667" y="25" text-anchor="middle" fill="#1e293b" font-size="14" font-weight="bold" font-family="Arial, sans-serif">
      📊 Total Contributions
      <animate attributeName="opacity" values="0;1" dur="0.5s" begin="3s" fill="freeze"/>
    </text>
    
    <!-- Y-axis labels -->
    <text x="10" y="45" fill="#64748b" font-size="10" font-family="Arial, sans-serif">4,408
      <animate attributeName="opacity" values="0;1" dur="0.5s" begin="3.1999999999999997s" fill="freeze"/>
    </text>
    <text x="10" y="185" fill="#64748b" font-size="10" font-family="Arial, sans-serif">2,598
      <animate attributeName="opacity" values="0;1" dur="0.5s" begin="3.1999999999999997s" fill="freeze"/>
    </text>
    
    <!-- Chart Line with draw animation that follows the circle -->
    <path d="M 30,160 L 30.02386712378488,160 L 30.054059393737973,160 L 31.54424949636053,160 L 31.580139773343348,160 L 31.61266141723941,160 L 33.09898117546442,160 L 33.12564354798086,160 L 33.156875077077736,160 L 34.64744146318339,160 L 34.67351253308354,160 L 34.6986876899287,160 L 36.19726353874594,160 L 36.21962552859844,160 L 36.24566076197639,160 L 37.74110091510118,160 L 37.766598600646134,160 L 37.79530365492795,160 L 39.29172931241322,160 L 39.31394795617692,160 L 39.34473152874631,160 L 40.82882942259494,160 L 40.86242616215699,160 L 40.893370999076275,160 L 42.388399032195764,160 L 42.41713992299978,160 L 42.446346688592385,160 L 43.93741478600883,160 L 43.967356200306526,160 L 44.00104253117407,160 L 45.48064294148667,160 L 45.505782261809635,160 L 45.534558989135846,160 L 47.02915698398894,160 L 47.04786364857709,160 L 47.08077949421735,160 L 48.57838775693521,160 L 48.600982684182,160 L 48.63171250196809,160 L 50.12819191423666,160 L 50.15082267800565,160 L 50.177717987916395,160 L 51.67373152539638,80.1767955801105 L 51.69668481786516,80.1767955801105 L 51.72614243911316,80.1767955801105 L 53.22335650008682,80.1767955801105 L 53.24716986908841,80.1767955801105 L 53.28037240690626,80.1767955801105 L 54.76264263812272,80.1767955801105 L 54.79597060376827,80.1767955801105 L 54.82859975723093,80.1767955801105 L 56.32027707552477,80.1767955801105 L 56.337783216619236,80.1767955801105 L 56.36763503961143,80.1767955801105 L 57.86561958581238,80.1767955801105 L 57.89011384873575,80.1767955801105 L 57.92233088219312,80.1767955801105 L 59.407450116924444,80.1767955801105 L 59.43959547733742,80.1767955801105 L 59.46831844988033,80.1767955801105 L 60.96246848820593,80.1767955801105 L 60.98775115461769,80.1767955801105 L 61.015506541061214,80.1767955801105 L 62.50840230110983,80.1767955801105 L 62.533201174471905,80.1767955801105 L 62.55826882175047,80.1767955801105 L 62.59799360660863,80.1767955801105 L 64.06213055759213,80.1767955801105 L 64.08829121879779,80.1767955801105 L 64.11549113914722,80.1767955801105 L 65.60921113920642,80.1767955801105 L 65.63530012736769,80.1767955801105 L 65.66380808077739,80.1767955801105 L 67.15656049473722,80.1767955801105 L 67.1805709646109,80.1767955801105 L 67.20796798583243,80.1767955801105 L 68.70014701543705,80.1767955801105 L 68.72899541580767,80.1767955801105 L 70.25916115894378,80.1767955801105 L 70.27668521829935,80.1767955801105 L 70.30449435952617,80.1767955801105 L 71.79959406569006,80.1767955801105 L 71.82426751122443,80.1767955801105 L 71.85476439161621,80.1767955801105 L 73.34735554122614,80.1767955801105 L 73.37143768414421,80.1767955801105 L 73.39851217666595,80.1767955801105 L 74.89819895767138,80.1767955801105 L 74.92403709017724,80.1767955801105 L 74.95641538798449,80.1767955801105 L 76.44794936018954,80.1767955801105 L 76.47579433793857,80.1767955801105 L 76.50249254697721,80.1767955801105 L 77.99866734880709,80.1767955801105 L 78.01579720641845,80.1767955801105 L 78.04480687113896,80.1767955801105 L 79.54142962949632,80.1767955801105 L 79.56382745587103,80.1767955801105 L 79.58952224228807,80.1767955801105 L 81.08924485981571,80.1767955801105 L 81.11011963399693,80.1767955801105 L 81.1417812013602,80.1767955801105 L 82.63670172491308,80.1767955801105 L 82.65960126259858,80.1767955801105 L 82.68945308559078,80.1767955801105 L 84.18188297085081,80.1767955801105 L 84.20394035026462,80.1767955801105 L 84.23642615763848,80.1767955801105 L 85.7290531437706,80.1767955801105 L 85.76143144157786,80.1767955801105 L 85.79449063330692,80.1767955801105 L 87.282440953292,80.1767955801105 L 87.30621848577138,80.1767955801105 L 87.33612406354689,80.1767955801105 L 88.830184510567,80.1767955801105 L 88.85362159608547,80.1767955801105 L 88.88352717386095,80.1767955801105 L 90.37905691829125,80.1767955801105 L 90.40984049086063,80.1767955801105 L 90.44621456089314,80.1767955801105 L 91.92760679731572,80.1767955801105 L 91.94996878716822,80.1767955801105 L 91.97856633188343,80.1767955801105 L 93.47739303635608,80.1767955801105 L 93.49636847486073,80.1767955801105 L 93.52630988915843,80.1767955801105 L 95.02044200922292,80.1767955801105 L 95.04276816255322,80.1767955801105 L 95.07127611596295,80.1767955801105 L 95.11028417037711,80.1767955801105 L 96.57268305003394,80.1767955801105 L 96.60248111824285,80.1767955801105 L 96.63206416731855,80.1767955801105 L 98.11700421943887,80.1767955801105 L 98.14429373109381,80.1767955801105 L 98.17280168450353,80.1767955801105 L 99.66781179936191,80.1767955801105 L 99.6831498308633,80.1767955801105 L 99.71914761741272,80.1767955801105 L 101.21430107835991,80.1767955801105 L 101.23974500912156,80.1767955801105 L 101.26065561982499,80.1767955801105 L 102.76360352435057,80.1767955801105 L 102.78764983074645,80.1767955801105 L 102.81691035112235,80.1767955801105 L 104.31258344164144,80.1767955801105 L 104.33827822805848,80.1767955801105 L 104.36644573450731,80.1767955801105 L 105.85934149455592,80.1767955801105 L 105.87975039394856,80.1767955801105 L 105.91126861522304,80.1767955801105 L 107.41027450230666,80.1767955801105 L 107.43231396345938,80.1767955801105 L 107.46322296385645,80.1767955801105 L 108.95731924739876,80.1767955801105 L 108.98299611555471,80.1767955801105 L 109.01392303421291,80.1767955801105 L 110.50456109336295,80.1767955801105 L 110.5293420484639,80.1767955801105 L 110.54788744870217,80.1767955801105 L 112.04967066625626,80.1767955801105 L 112.0847187849674,80.1767955801105 L 112.10838880788019,80.1767955801105 L 113.6011591401011,80.1767955801105 L 113.62522336475807,80.1767955801105 L 115.17517086814831,80.1767955801105 L 115.20158238500936,80.1767955801105 L 116.6938868424417,80.1767955801105 L 116.71710890882699,80.1767955801105 L 116.74475678570391,80.1767955801105 L 118.24548282585313,80.1767955801105 L 118.27436706274594,80.1767955801105 L 118.30192534831737,80.1767955801105 L 119.79363850313341,80.1767955801105 L 119.8233290617757,80.1767955801105 L 119.85230288997401,80.1767955801105 L 121.34444608305645,80.1767955801105 L 121.37214771471668,80.1767955801105 L 121.39597900197936,80.1767955801105 L 122.88821178636728,80.1767955801105 L 122.91654055716599,40 L 122.94562189493091,40 L 124.46471415270737,40 L 124.49062395825763,40 L 125.97998982086959,40 L 126.00783479861862,40 L 126.02648770842347,40 L 127.53198000602522,40 L 127.55969955594654,40 L 127.58801040848415,40 L 129.07717917022404,40 L 129.10600965233354,40 L 129.14145197278887,40 L 130.63167791193362,40 L 130.66192393667,40 L 130.6834437682508,40 L 132.17877641180903,40 L 132.20298398255477,40 L 132.2326207864138,40 L 133.72945856390436,40 L 133.78432427939183,40 L 135.27331385852068,40 L 135.3029864989019,40 L 135.33032976534014,40 L 136.82313593408324,40 L 136.85121384922655,40 L 136.88052812438576,40 L 138.3719008322409,40 L 138.40053421347832,40 L 138.4327512469357,40 L 139.9193218608161,40 L 139.9494603759859,40 L 139.98042313116628,40 L 141.47012944073913,40 L 141.49969457155373,40 L 141.52787999626366,40 L 143.02039947282918,40 L 143.0416684487546,40 L 143.0711081517415,40 L 144.563090080474,40 L 144.59045126517339,40 L 144.62216658731995,40 L 146.1119266516761,40 L 146.13912657202553,40 L 146.16906798632323,40 L 147.66020775678408,40 L 147.68597421624554,40 L 147.7177432931754,40 L 149.20956395755803,40 L 149.2353304170195,40 L 149.25921545906547,40 L 150.76300552186274,40 L 150.78495539170996,40 L 150.8169036512508,40 L 152.3064307782127,40 L 152.33169552636332,40 L 152.36011388846754,40 L 153.85383388852676,40 L 153.87608836881265,40 L 153.909738863158,40 L 155.40037692230806,40 L 155.4265017469915,40 L 155.458557516099,40 L 156.94679452826165,40 L 156.97116336335733,40 L 157.00583519858537,40 L 158.490829005489,40 L 158.52231139024127,40 L 158.55463593326522,40 L 160.0444139158825,40 L 160.06955323620545,40 L 160.09904669397565,40 L 161.59463019318923,40 L 161.62177635875537,40 L 161.65476387744005,40 L 163.14015188608786,40 L 163.17186720823443,40 L 163.20691532694556,40 L 164.6913536677551,40 L 164.7154716471954,40 L 164.74702570499204,40 L 166.24054860417914,40 L 166.26296434881493,40 L 166.29459007965605,40 L 167.78528189358937,40 L 167.81000909390704,40 L 167.84097184908742,40 L 169.33399303696376,40 L 169.36207095210708,40 L 170.8846035160147,40 L 170.91040581199834,40 L 170.9348642383995,40 L 172.43344008721675,40 L 172.46316648238127,40 L 172.4969603228154,40 L 173.97174072089214,40 L 174.00798936309698,40 L 174.03889836349407,40 L 175.52622154434064,40 L 175.5456270211117,40 L 175.58241321114951,40 L 177.07486101467063,40 L 177.10238346371986,40 L 177.13289826237275,40 L 178.62529231111057,40 L 178.65129170796632,40 L 178.67881415701555,40 L 180.1693267883379,40 L 180.1989994287191,40 L 180.2284212134449,40 L 181.71655071604098,40 L 181.74375063639042,40 L 181.77442669939322,40 L 183.2697593429514,40 L 183.3003458146487,40 L 183.33333333333334,40" stroke="#f59e0b" stroke-width="2" fill="none" stroke-dasharray="14800" stroke-dashoffset="14800">
      <animate attributeName="stroke-dashoffset" values="14800;0" dur="3s" begin="3.5999999999999996s" fill="freeze"/>
    </path>
    
    <!-- Glow effect for the line that also follows the circle -->
    <path d="M 30,160 L 30.02386712378488,160 L 30.054059393737973,160 L 31.54424949636053,160 L 31.580139773343348,160 L 31.61266141723941,160 L 33.09898117546442,160 L 33.12564354798086,160 L 33.156875077077736,160 L 34.64744146318339,160 L 34.67351253308354,160 L 34.6986876899287,160 L 36.19726353874594,160 L 36.21962552859844,160 L 36.24566076197639,160 L 37.74110091510118,160 L 37.766598600646134,160 L 37.79530365492795,160 L 39.29172931241322,160 L 39.31394795617692,160 L 39.34473152874631,160 L 40.82882942259494,160 L 40.86242616215699,160 L 40.893370999076275,160 L 42.388399032195764,160 L 42.41713992299978,160 L 42.446346688592385,160 L 43.93741478600883,160 L 43.967356200306526,160 L 44.00104253117407,160 L 45.48064294148667,160 L 45.505782261809635,160 L 45.534558989135846,160 L 47.02915698398894,160 L 47.04786364857709,160 L 47.08077949421735,160 L 48.57838775693521,160 L 48.600982684182,160 L 48.63171250196809,160 L 50.12819191423666,160 L 50.15082267800565,160 L 50.177717987916395,160 L 51.67373152539638,80.1767955801105 L 51.69668481786516,80.1767955801105 L 51.72614243911316,80.1767955801105 L 53.22335650008682,80.1767955801105 L 53.24716986908841,80.1767955801105 L 53.28037240690626,80.1767955801105 L 54.76264263812272,80.1767955801105 L 54.79597060376827,80.1767955801105 L 54.82859975723093,80.1767955801105 L 56.32027707552477,80.1767955801105 L 56.337783216619236,80.1767955801105 L 56.36763503961143,80.1767955801105 L 57.86561958581238,80.1767955801105 L 57.89011384873575,80.1767955801105 L 57.92233088219312,80.1767955801105 L 59.407450116924444,80.1767955801105 L 59.43959547733742,80.1767955801105 L 59.46831844988033,80.1767955801105 L 60.96246848820593,80.1767955801105 L 60.98775115461769,80.1767955801105 L 61.015506541061214,80.1767955801105 L 62.50840230110983,80.1767955801105 L 62.533201174471905,80.1767955801105 L 62.55826882175047,80.1767955801105 L 62.59799360660863,80.1767955801105 L 64.06213055759213,80.1767955801105 L 64.08829121879779,80.1767955801105 L 64.11549113914722,80.1767955801105 L 65.60921113920642,80.1767955801105 L 65.63530012736769,80.1767955801105 L 65.66380808077739,80.1767955801105 L 67.15656049473722,80.1767955801105 L 67.1805709646109,80.1767955801105 L 67.20796798583243,80.1767955801105 L 68.70014701543705,80.1767955801105 L 68.72899541580767,80.1767955801105 L 70.25916115894378,80.1767955801105 L 70.27668521829935,80.1767955801105 L 70.30449435952617,80.1767955801105 L 71.79959406569006,80.1767955801105 L 71.82426751122443,80.1767955801105 L 71.85476439161621,80.1767955801105 L 73.34735554122614,80.1767955801105 L 73.37143768414421,80.1767955801105 L 73.39851217666595,80.1767955801105 L 74.89819895767138,80.1767955801105 L 74.92403709017724,80.1767955801105 L 74.95641538798449,80.1767955801105 L 76.44794936018954,80.1767955801105 L 76.47579433793857,80.1767955801105 L 76.50249254697721,80.1767955801105 L 77.99866734880709,80.1767955801105 L 78.01579720641845,80.1767955801105 L 78.04480687113896,80.1767955801105 L 79.54142962949632,80.1767955801105 L 79.56382745587103,80.1767955801105 L 79.58952224228807,80.1767955801105 L 81.08924485981571,80.1767955801105 L 81.11011963399693,80.1767955801105 L 81.1417812013602,80.1767955801105 L 82.63670172491308,80.1767955801105 L 82.65960126259858,80.1767955801105 L 82.68945308559078,80.1767955801105 L 84.18188297085081,80.1767955801105 L 84.20394035026462,80.1767955801105 L 84.23642615763848,80.1767955801105 L 85.7290531437706,80.1767955801105 L 85.76143144157786,80.1767955801105 L 85.79449063330692,80.1767955801105 L 87.282440953292,80.1767955801105 L 87.30621848577138,80.1767955801105 L 87.33612406354689,80.1767955801105 L 88.830184510567,80.1767955801105 L 88.85362159608547,80.1767955801105 L 88.88352717386095,80.1767955801105 L 90.37905691829125,80.1767955801105 L 90.40984049086063,80.1767955801105 L 90.44621456089314,80.1767955801105 L 91.92760679731572,80.1767955801105 L 91.94996878716822,80.1767955801105 L 91.97856633188343,80.1767955801105 L 93.47739303635608,80.1767955801105 L 93.49636847486073,80.1767955801105 L 93.52630988915843,80.1767955801105 L 95.02044200922292,80.1767955801105 L 95.04276816255322,80.1767955801105 L 95.07127611596295,80.1767955801105 L 95.11028417037711,80.1767955801105 L 96.57268305003394,80.1767955801105 L 96.60248111824285,80.1767955801105 L 96.63206416731855,80.1767955801105 L 98.11700421943887,80.1767955801105 L 98.14429373109381,80.1767955801105 L 98.17280168450353,80.1767955801105 L 99.66781179936191,80.1767955801105 L 99.6831498308633,80.1767955801105 L 99.71914761741272,80.1767955801105 L 101.21430107835991,80.1767955801105 L 101.23974500912156,80.1767955801105 L 101.26065561982499,80.1767955801105 L 102.76360352435057,80.1767955801105 L 102.78764983074645,80.1767955801105 L 102.81691035112235,80.1767955801105 L 104.31258344164144,80.1767955801105 L 104.33827822805848,80.1767955801105 L 104.36644573450731,80.1767955801105 L 105.85934149455592,80.1767955801105 L 105.87975039394856,80.1767955801105 L 105.91126861522304,80.1767955801105 L 107.41027450230666,80.1767955801105 L 107.43231396345938,80.1767955801105 L 107.46322296385645,80.1767955801105 L 108.95731924739876,80.1767955801105 L 108.98299611555471,80.1767955801105 L 109.01392303421291,80.1767955801105 L 110.50456109336295,80.1767955801105 L 110.5293420484639,80.1767955801105 L 110.54788744870217,80.1767955801105 L 112.04967066625626,80.1767955801105 L 112.0847187849674,80.1767955801105 L 112.10838880788019,80.1767955801105 L 113.6011591401011,80.1767955801105 L 113.62522336475807,80.1767955801105 L 115.17517086814831,80.1767955801105 L 115.20158238500936,80.1767955801105 L 116.6938868424417,80.1767955801105 L 116.71710890882699,80.1767955801105 L 116.74475678570391,80.1767955801105 L 118.24548282585313,80.1767955801105 L 118.27436706274594,80.1767955801105 L 118.30192534831737,80.1767955801105 L 119.79363850313341,80.1767955801105 L 119.8233290617757,80.1767955801105 L 119.85230288997401,80.1767955801105 L 121.34444608305645,80.1767955801105 L 121.37214771471668,80.1767955801105 L 121.39597900197936,80.1767955801105 L 122.88821178636728,80.1767955801105 L 122.91654055716599,40 L 122.94562189493091,40 L 124.46471415270737,40 L 124.49062395825763,40 L 125.97998982086959,40 L 126.00783479861862,40 L 126.02648770842347,40 L 127.53198000602522,40 L 127.55969955594654,40 L 127.58801040848415,40 L 129.07717917022404,40 L 129.10600965233354,40 L 129.14145197278887,40 L 130.63167791193362,40 L 130.66192393667,40 L 130.6834437682508,40 L 132.17877641180903,40 L 132.20298398255477,40 L 132.2326207864138,40 L 133.72945856390436,40 L 133.78432427939183,40 L 135.27331385852068,40 L 135.3029864989019,40 L 135.33032976534014,40 L 136.82313593408324,40 L 136.85121384922655,40 L 136.88052812438576,40 L 138.3719008322409,40 L 138.40053421347832,40 L 138.4327512469357,40 L 139.9193218608161,40 L 139.9494603759859,40 L 139.98042313116628,40 L 141.47012944073913,40 L 141.49969457155373,40 L 141.52787999626366,40 L 143.02039947282918,40 L 143.0416684487546,40 L 143.0711081517415,40 L 144.563090080474,40 L 144.59045126517339,40 L 144.62216658731995,40 L 146.1119266516761,40 L 146.13912657202553,40 L 146.16906798632323,40 L 147.66020775678408,40 L 147.68597421624554,40 L 147.7177432931754,40 L 149.20956395755803,40 L 149.2353304170195,40 L 149.25921545906547,40 L 150.76300552186274,40 L 150.78495539170996,40 L 150.8169036512508,40 L 152.3064307782127,40 L 152.33169552636332,40 L 152.36011388846754,40 L 153.85383388852676,40 L 153.87608836881265,40 L 153.909738863158,40 L 155.40037692230806,40 L 155.4265017469915,40 L 155.458557516099,40 L 156.94679452826165,40 L 156.97116336335733,40 L 157.00583519858537,40 L 158.490829005489,40 L 158.52231139024127,40 L 158.55463593326522,40 L 160.0444139158825,40 L 160.06955323620545,40 L 160.09904669397565,40 L 161.59463019318923,40 L 161.62177635875537,40 L 161.65476387744005,40 L 163.14015188608786,40 L 163.17186720823443,40 L 163.20691532694556,40 L 164.6913536677551,40 L 164.7154716471954,40 L 164.74702570499204,40 L 166.24054860417914,40 L 166.26296434881493,40 L 166.29459007965605,40 L 167.78528189358937,40 L 167.81000909390704,40 L 167.84097184908742,40 L 169.33399303696376,40 L 169.36207095210708,40 L 170.8846035160147,40 L 170.91040581199834,40 L 170.9348642383995,40 L 172.43344008721675,40 L 172.46316648238127,40 L 172.4969603228154,40 L 173.97174072089214,40 L 174.00798936309698,40 L 174.03889836349407,40 L 175.52622154434064,40 L 175.5456270211117,40 L 175.58241321114951,40 L 177.07486101467063,40 L 177.10238346371986,40 L 177.13289826237275,40 L 178.62529231111057,40 L 178.65129170796632,40 L 178.67881415701555,40 L 180.1693267883379,40 L 180.1989994287191,40 L 180.2284212134449,40 L 181.71655071604098,40 L 181.74375063639042,40 L 181.77442669939322,40 L 183.2697593429514,40 L 183.3003458146487,40 L 183.33333333333334,40" stroke="#f59e0b" stroke-width="4" fill="none" opacity="0.4" stroke-dasharray="14800" stroke-dashoffset="14800">
      <animate attributeName="stroke-dashoffset" values="14800;0" dur="3s" begin="3.5999999999999996s" fill="freeze"/>
    </path>
    
    <!-- Animated circle that moves along the path and draws the line -->
    <circle r="5" fill="#f59e0b" opacity="0" filter="url(#trailGlow)">
      <animate attributeName="opacity" values="0;1;1;1" dur="3.2s" begin="3.4s" fill="freeze"/>
      <animate attributeName="r" values="5;6;5" dur="1s" begin="3.4s" repeatCount="3"/>
      <animateMotion dur="3s" begin="3.4s" fill="freeze">
        <mpath href="#path_totalContributions_526.6666666666667"/>
      </animateMotion>
    </circle>
    
    <!-- Small trail dots that fade out -->
    <circle r="2" fill="#f59e0b" opacity="0">
      <animate attributeName="opacity" values="0;0.6;0" dur="0.8s" begin="3.8s" fill="freeze"/>
      <animateMotion dur="3s" begin="3.4s" fill="freeze">
        <mpath href="#path_totalContributions_526.6666666666667"/>
      </animateMotion>
    </circle>
    
    <!-- Hidden path for motion animation -->
    <path id="path_totalContributions_526.6666666666667" d="M 30,160 L 30.02386712378488,160 L 30.054059393737973,160 L 31.54424949636053,160 L 31.580139773343348,160 L 31.61266141723941,160 L 33.09898117546442,160 L 33.12564354798086,160 L 33.156875077077736,160 L 34.64744146318339,160 L 34.67351253308354,160 L 34.6986876899287,160 L 36.19726353874594,160 L 36.21962552859844,160 L 36.24566076197639,160 L 37.74110091510118,160 L 37.766598600646134,160 L 37.79530365492795,160 L 39.29172931241322,160 L 39.31394795617692,160 L 39.34473152874631,160 L 40.82882942259494,160 L 40.86242616215699,160 L 40.893370999076275,160 L 42.388399032195764,160 L 42.41713992299978,160 L 42.446346688592385,160 L 43.93741478600883,160 L 43.967356200306526,160 L 44.00104253117407,160 L 45.48064294148667,160 L 45.505782261809635,160 L 45.534558989135846,160 L 47.02915698398894,160 L 47.04786364857709,160 L 47.08077949421735,160 L 48.57838775693521,160 L 48.600982684182,160 L 48.63171250196809,160 L 50.12819191423666,160 L 50.15082267800565,160 L 50.177717987916395,160 L 51.67373152539638,80.1767955801105 L 51.69668481786516,80.1767955801105 L 51.72614243911316,80.1767955801105 L 53.22335650008682,80.1767955801105 L 53.24716986908841,80.1767955801105 L 53.28037240690626,80.1767955801105 L 54.76264263812272,80.1767955801105 L 54.79597060376827,80.1767955801105 L 54.82859975723093,80.1767955801105 L 56.32027707552477,80.1767955801105 L 56.337783216619236,80.1767955801105 L 56.36763503961143,80.1767955801105 L 57.86561958581238,80.1767955801105 L 57.89011384873575,80.1767955801105 L 57.92233088219312,80.1767955801105 L 59.407450116924444,80.1767955801105 L 59.43959547733742,80.1767955801105 L 59.46831844988033,80.1767955801105 L 60.96246848820593,80.1767955801105 L 60.98775115461769,80.1767955801105 L 61.015506541061214,80.1767955801105 L 62.50840230110983,80.1767955801105 L 62.533201174471905,80.1767955801105 L 62.55826882175047,80.1767955801105 L 62.59799360660863,80.1767955801105 L 64.06213055759213,80.1767955801105 L 64.08829121879779,80.1767955801105 L 64.11549113914722,80.1767955801105 L 65.60921113920642,80.1767955801105 L 65.63530012736769,80.1767955801105 L 65.66380808077739,80.1767955801105 L 67.15656049473722,80.1767955801105 L 67.1805709646109,80.1767955801105 L 67.20796798583243,80.1767955801105 L 68.70014701543705,80.1767955801105 L 68.72899541580767,80.1767955801105 L 70.25916115894378,80.1767955801105 L 70.27668521829935,80.1767955801105 L 70.30449435952617,80.1767955801105 L 71.79959406569006,80.1767955801105 L 71.82426751122443,80.1767955801105 L 71.85476439161621,80.1767955801105 L 73.34735554122614,80.1767955801105 L 73.37143768414421,80.1767955801105 L 73.39851217666595,80.1767955801105 L 74.89819895767138,80.1767955801105 L 74.92403709017724,80.1767955801105 L 74.95641538798449,80.1767955801105 L 76.44794936018954,80.1767955801105 L 76.47579433793857,80.1767955801105 L 76.50249254697721,80.1767955801105 L 77.99866734880709,80.1767955801105 L 78.01579720641845,80.1767955801105 L 78.04480687113896,80.1767955801105 L 79.54142962949632,80.1767955801105 L 79.56382745587103,80.1767955801105 L 79.58952224228807,80.1767955801105 L 81.08924485981571,80.1767955801105 L 81.11011963399693,80.1767955801105 L 81.1417812013602,80.1767955801105 L 82.63670172491308,80.1767955801105 L 82.65960126259858,80.1767955801105 L 82.68945308559078,80.1767955801105 L 84.18188297085081,80.1767955801105 L 84.20394035026462,80.1767955801105 L 84.23642615763848,80.1767955801105 L 85.7290531437706,80.1767955801105 L 85.76143144157786,80.1767955801105 L 85.79449063330692,80.1767955801105 L 87.282440953292,80.1767955801105 L 87.30621848577138,80.1767955801105 L 87.33612406354689,80.1767955801105 L 88.830184510567,80.1767955801105 L 88.85362159608547,80.1767955801105 L 88.88352717386095,80.1767955801105 L 90.37905691829125,80.1767955801105 L 90.40984049086063,80.1767955801105 L 90.44621456089314,80.1767955801105 L 91.92760679731572,80.1767955801105 L 91.94996878716822,80.1767955801105 L 91.97856633188343,80.1767955801105 L 93.47739303635608,80.1767955801105 L 93.49636847486073,80.1767955801105 L 93.52630988915843,80.1767955801105 L 95.02044200922292,80.1767955801105 L 95.04276816255322,80.1767955801105 L 95.07127611596295,80.1767955801105 L 95.11028417037711,80.1767955801105 L 96.57268305003394,80.1767955801105 L 96.60248111824285,80.1767955801105 L 96.63206416731855,80.1767955801105 L 98.11700421943887,80.1767955801105 L 98.14429373109381,80.1767955801105 L 98.17280168450353,80.1767955801105 L 99.66781179936191,80.1767955801105 L 99.6831498308633,80.1767955801105 L 99.71914761741272,80.1767955801105 L 101.21430107835991,80.1767955801105 L 101.23974500912156,80.1767955801105 L 101.26065561982499,80.1767955801105 L 102.76360352435057,80.1767955801105 L 102.78764983074645,80.1767955801105 L 102.81691035112235,80.1767955801105 L 104.31258344164144,80.1767955801105 L 104.33827822805848,80.1767955801105 L 104.36644573450731,80.1767955801105 L 105.85934149455592,80.1767955801105 L 105.87975039394856,80.1767955801105 L 105.91126861522304,80.1767955801105 L 107.41027450230666,80.1767955801105 L 107.43231396345938,80.1767955801105 L 107.46322296385645,80.1767955801105 L 108.95731924739876,80.1767955801105 L 108.98299611555471,80.1767955801105 L 109.01392303421291,80.1767955801105 L 110.50456109336295,80.1767955801105 L 110.5293420484639,80.1767955801105 L 110.54788744870217,80.1767955801105 L 112.04967066625626,80.1767955801105 L 112.0847187849674,80.1767955801105 L 112.10838880788019,80.1767955801105 L 113.6011591401011,80.1767955801105 L 113.62522336475807,80.1767955801105 L 115.17517086814831,80.1767955801105 L 115.20158238500936,80.1767955801105 L 116.6938868424417,80.1767955801105 L 116.71710890882699,80.1767955801105 L 116.74475678570391,80.1767955801105 L 118.24548282585313,80.1767955801105 L 118.27436706274594,80.1767955801105 L 118.30192534831737,80.1767955801105 L 119.79363850313341,80.1767955801105 L 119.8233290617757,80.1767955801105 L 119.85230288997401,80.1767955801105 L 121.34444608305645,80.1767955801105 L 121.37214771471668,80.1767955801105 L 121.39597900197936,80.1767955801105 L 122.88821178636728,80.1767955801105 L 122.91654055716599,40 L 122.94562189493091,40 L 124.46471415270737,40 L 124.49062395825763,40 L 125.97998982086959,40 L 126.00783479861862,40 L 126.02648770842347,40 L 127.53198000602522,40 L 127.55969955594654,40 L 127.58801040848415,40 L 129.07717917022404,40 L 129.10600965233354,40 L 129.14145197278887,40 L 130.63167791193362,40 L 130.66192393667,40 L 130.6834437682508,40 L 132.17877641180903,40 L 132.20298398255477,40 L 132.2326207864138,40 L 133.72945856390436,40 L 133.78432427939183,40 L 135.27331385852068,40 L 135.3029864989019,40 L 135.33032976534014,40 L 136.82313593408324,40 L 136.85121384922655,40 L 136.88052812438576,40 L 138.3719008322409,40 L 138.40053421347832,40 L 138.4327512469357,40 L 139.9193218608161,40 L 139.9494603759859,40 L 139.98042313116628,40 L 141.47012944073913,40 L 141.49969457155373,40 L 141.52787999626366,40 L 143.02039947282918,40 L 143.0416684487546,40 L 143.0711081517415,40 L 144.563090080474,40 L 144.59045126517339,40 L 144.62216658731995,40 L 146.1119266516761,40 L 146.13912657202553,40 L 146.16906798632323,40 L 147.66020775678408,40 L 147.68597421624554,40 L 147.7177432931754,40 L 149.20956395755803,40 L 149.2353304170195,40 L 149.25921545906547,40 L 150.76300552186274,40 L 150.78495539170996,40 L 150.8169036512508,40 L 152.3064307782127,40 L 152.33169552636332,40 L 152.36011388846754,40 L 153.85383388852676,40 L 153.87608836881265,40 L 153.909738863158,40 L 155.40037692230806,40 L 155.4265017469915,40 L 155.458557516099,40 L 156.94679452826165,40 L 156.97116336335733,40 L 157.00583519858537,40 L 158.490829005489,40 L 158.52231139024127,40 L 158.55463593326522,40 L 160.0444139158825,40 L 160.06955323620545,40 L 160.09904669397565,40 L 161.59463019318923,40 L 161.62177635875537,40 L 161.65476387744005,40 L 163.14015188608786,40 L 163.17186720823443,40 L 163.20691532694556,40 L 164.6913536677551,40 L 164.7154716471954,40 L 164.74702570499204,40 L 166.24054860417914,40 L 166.26296434881493,40 L 166.29459007965605,40 L 167.78528189358937,40 L 167.81000909390704,40 L 167.84097184908742,40 L 169.33399303696376,40 L 169.36207095210708,40 L 170.8846035160147,40 L 170.91040581199834,40 L 170.9348642383995,40 L 172.43344008721675,40 L 172.46316648238127,40 L 172.4969603228154,40 L 173.97174072089214,40 L 174.00798936309698,40 L 174.03889836349407,40 L 175.52622154434064,40 L 175.5456270211117,40 L 175.58241321114951,40 L 177.07486101467063,40 L 177.10238346371986,40 L 177.13289826237275,40 L 178.62529231111057,40 L 178.65129170796632,40 L 178.67881415701555,40 L 180.1693267883379,40 L 180.1989994287191,40 L 180.2284212134449,40 L 181.71655071604098,40 L 181.74375063639042,40 L 181.77442669939322,40 L 183.2697593429514,40 L 183.3003458146487,40 L 183.33333333333334,40" fill="none" stroke="none"/>
  </g>
  
  <!-- Footer -->
  <text x="400" y="580" text-anchor="middle" fill="#94a3b8" font-size="12" font-family="Arial, sans-serif">
    Generated by GitHub User Rank Tracker • 11/30/2025
    <animate attributeName="opacity" values="0;1" dur="0.5s" begin="5s" fill="freeze"/>
  </text>
</svg>