<svg width="800" height="600" xmlns="http://www.w3.org/2000/svg">
  <defs>
    <linearGradient id="bgGradient" x1="0%" y1="0%" x2="100%" y2="100%">
      <stop offset="0%" style="stop-color:#f8fafc;stop-opacity:1" />
      <stop offset="100%" style="stop-color:#e2e8f0;stop-opacity:1" />
    </linearGradient>
    <filter id="shadow" x="-20%" y="-20%" width="140%" height="140%">
      <feDropShadow dx="2" dy="2" stdDeviation="3" flood-color="#00000020" flood-opacity="0.1"/>
    </filter>
    <!-- Trail effect filter -->
    <filter id="trailGlow" x="-50%" y="-50%" width="200%" height="200%">
      <feGaussianBlur stdDeviation="3" result="coloredBlur"/>
      <feMerge> 
        <feMergeNode in="coloredBlur"/>
        <feMergeNode in="SourceGraphic"/>
      </feMerge>
    </filter>
  </defs>
  
  <!-- Background -->
  <rect width="800" height="600" fill="url(#bgGradient)" rx="12"/>
  
  <!-- Header -->
  <text x="400" y="40" text-anchor="middle" fill="#0f172a" font-size="24" font-weight="bold" font-family="Arial, sans-serif">
    GitHub Progress Report
    <animate attributeName="opacity" values="0;1" dur="0.8s" begin="0s" fill="freeze"/>
    <animateTransform attributeName="transform" type="translate" values="0,-20;0,0" dur="0.8s" begin="0s" fill="freeze"/>
  </text>
  
  <!-- User Info -->
  <text x="400" y="70" text-anchor="middle" fill="#475569" font-size="16" font-family="Arial, sans-serif">
    @maifeeulasad • BANGLADESH • 100 days analyzed
    <animate attributeName="opacity" values="0;1" dur="0.6s" begin="0.3s" fill="freeze"/>
  </text>
  
  <!-- Progress Cards -->
  <!-- Followers Card -->
  <g transform="translate(60, 100)">
    <rect width="206.66666666666666" height="120" fill="#ffffff" stroke="#e2e8f0" stroke-width="1" rx="8" filter="url(#shadow)">
      <animate attributeName="opacity" values="0;1" dur="0.6s" begin="0.2s" fill="freeze"/>
      <animateTransform attributeName="transform" type="scale" values="0.8;1" dur="0.6s" begin="0.2s" fill="freeze"/>
    </rect>
    <text x="103.33333333333333" y="25" text-anchor="middle" fill="#64748b" font-size="14" font-weight="bold" font-family="Arial, sans-serif">FOLLOWERS
      <animate attributeName="opacity" values="0;1" dur="0.5s" begin="0.4s" fill="freeze"/>
    </text>
    
    <text x="103.33333333333333" y="50" text-anchor="middle" fill="#ef4444" font-size="32" font-weight="bold" font-family="Arial, sans-serif">
      ↘
      <animate attributeName="opacity" values="0;1" dur="0.5s" begin="0.6s" fill="freeze"/>
      <animateTransform attributeName="transform" type="scale" values="0;1.2;1" dur="0.8s" begin="0.6s" fill="freeze"/>
    </text>
    
    <text x="103.33333333333333" y="75" text-anchor="middle" fill="#1e293b" font-size="18" font-weight="bold" font-family="Arial, sans-serif">
      -14
      <animate attributeName="opacity" values="0;1" dur="0.5s" begin="0.8s" fill="freeze"/>
    </text>
    
    <text x="103.33333333333333" y="95" text-anchor="middle" fill="#64748b" font-size="12" font-family="Arial, sans-serif">
      #458 → #472
      <animate attributeName="opacity" values="0;1" dur="0.5s" begin="1s" fill="freeze"/>
    </text>
  </g>
  
  <!-- Public Contributions Card -->
  <g transform="translate(296.66666666666663, 100)">
    <rect width="206.66666666666666" height="120" fill="#ffffff" stroke="#e2e8f0" stroke-width="1" rx="8" filter="url(#shadow)">
      <animate attributeName="opacity" values="0;1" dur="0.6s" begin="0.4s" fill="freeze"/>
      <animateTransform attributeName="transform" type="scale" values="0.8;1" dur="0.6s" begin="0.4s" fill="freeze"/>
    </rect>
    <text x="103.33333333333333" y="25" text-anchor="middle" fill="#64748b" font-size="14" font-weight="bold" font-family="Arial, sans-serif">PUBLIC
      <animate attributeName="opacity" values="0;1" dur="0.5s" begin="0.6s" fill="freeze"/>
    </text>
    
    <text x="103.33333333333333" y="50" text-anchor="middle" fill="#6b7280" font-size="32" font-weight="bold" font-family="Arial, sans-serif">
      →
      <animate attributeName="opacity" values="0;1" dur="0.5s" begin="0.8s" fill="freeze"/>
      <animateTransform attributeName="transform" type="scale" values="0;1.2;1" dur="0.8s" begin="0.8s" fill="freeze"/>
    </text>
    
    <text x="103.33333333333333" y="75" text-anchor="middle" fill="#1e293b" font-size="18" font-weight="bold" font-family="Arial, sans-serif">
      0
      <animate attributeName="opacity" values="0;1" dur="0.5s" begin="1s" fill="freeze"/>
    </text>
    
    <text x="103.33333333333333" y="95" text-anchor="middle" fill="#64748b" font-size="12" font-family="Arial, sans-serif">
      #6 → #6
      <animate attributeName="opacity" values="0;1" dur="0.5s" begin="1.2s" fill="freeze"/>
    </text>
  </g>
  
  <!-- Total Contributions Card -->
  <g transform="translate(533.3333333333333, 100)">
    <rect width="206.66666666666666" height="120" fill="#ffffff" stroke="#e2e8f0" stroke-width="1" rx="8" filter="url(#shadow)">
      <animate attributeName="opacity" values="0;1" dur="0.6s" begin="0.6s" fill="freeze"/>
      <animateTransform attributeName="transform" type="scale" values="0.8;1" dur="0.6s" begin="0.6s" fill="freeze"/>
    </rect>
    <text x="103.33333333333333" y="25" text-anchor="middle" fill="#64748b" font-size="14" font-weight="bold" font-family="Arial, sans-serif">TOTAL
      <animate attributeName="opacity" values="0;1" dur="0.5s" begin="0.8s" fill="freeze"/>
    </text>
    
    <text x="103.33333333333333" y="50" text-anchor="middle" fill="#22c55e" font-size="32" font-weight="bold" font-family="Arial, sans-serif">
      ↗
      <animate attributeName="opacity" values="0;1" dur="0.5s" begin="1s" fill="freeze"/>
      <animateTransform attributeName="transform" type="scale" values="0;1.2;1" dur="0.8s" begin="1s" fill="freeze"/>
    </text>
    
    <text x="103.33333333333333" y="75" text-anchor="middle" fill="#1e293b" font-size="18" font-weight="bold" font-family="Arial, sans-serif">
      +5
      <animate attributeName="opacity" values="0;1" dur="0.5s" begin="1.2s" fill="freeze"/>
    </text>
    
    <text x="103.33333333333333" y="95" text-anchor="middle" fill="#64748b" font-size="12" font-family="Arial, sans-serif">
      #18 → #13
      <animate attributeName="opacity" values="0;1" dur="0.5s" begin="1.4s" fill="freeze"/>
    </text>
  </g>
  
  <!-- Timeline Charts (if we have snapshots) -->
  
  <!-- 👥 Followers Count Chart -->
  <g transform="translate(60, 250)">
    <!-- Chart Background -->
    <rect x="0" y="0" width="213.33333333333334" height="200" fill="#ffffff" stroke="#e2e8f0" stroke-width="1" rx="8" filter="url(#shadow)">
      <animate attributeName="opacity" values="0;1" dur="0.5s" begin="1.8s" fill="freeze"/>
    </rect>
    
    <!-- Chart Title -->
    <text x="106.66666666666667" y="25" text-anchor="middle" fill="#1e293b" font-size="14" font-weight="bold" font-family="Arial, sans-serif">
      👥 Followers Count
      <animate attributeName="opacity" values="0;1" dur="0.5s" begin="2s" fill="freeze"/>
    </text>
    
    <!-- Y-axis labels -->
    <text x="10" y="45" fill="#64748b" font-size="10" font-family="Arial, sans-serif">153
      <animate attributeName="opacity" values="0;1" dur="0.5s" begin="2.2s" fill="freeze"/>
    </text>
    <text x="10" y="185" fill="#64748b" font-size="10" font-family="Arial, sans-serif">149
      <animate attributeName="opacity" values="0;1" dur="0.5s" begin="2.2s" fill="freeze"/>
    </text>
    
    <!-- Chart Line with draw animation that follows the circle -->
    <path d="M 30,160 L 30.028826709234885,160 L 30.06426439156341,160 L 31.554295313655892,160 L 31.584537380273968,160 L 31.606054395681735,160 L 33.10119135390345,160 L 33.12539575674766,160 L 33.15502868221348,160 L 34.6516705773996,160 L 34.70652911293547,160 L 36.19532383680719,160 L 36.224992594105494,160 L 36.252332282292215,160 L 37.74494309632368,160 L 37.77301733707636,160 L 37.8023277760498,160 L 39.29350531678183,160 L 39.32213495093804,160 L 39.35434776834284,160 L 40.840723843521765,160 L 40.870858414642385,160 L 40.90181711791018,160 L 42.39132847843162,160 L 42.420889740232454,160 L 42.449071476482594,160 L 43.94139563585417,160 L 43.962661828434534,160 L 43.99209767882168,160 L 45.48388436070597,160 L 45.51124196480893,160 L 45.54295313655893,160 L 47.0325182448291,160 L 47.059714605685876,160 L 47.08965210172782,160 L 48.580596735548696,160 L 48.60635982310603,160 L 48.63812474260476,160 L 50.12975018124286,160 L 50.155513268800206,160 L 50.17939518515203,160 L 51.68298845584042,160 L 51.70493545323802,160 L 51.73687953189918,160 L 53.22621173325818,160 L 53.251473175160726,160 L 53.27988781832202,160 L 54.773412344081876,160 L 54.7956639120556,160 L 54.829310002759826,160 L 56.319752990925906,160 L 56.3458743968081,160 L 56.377925970966714,160 L 57.86596822635623,160 L 57.890333872446625,160 L 57.9250011703767,160 L 59.40980064492625,160 L 59.44127890976509,160 L 59.473599222667346,160 L 60.96318224685375,160 L 60.988318277342586,160 L 61.01780787547847,160 L 62.513195656527586,160 L 62.54033826963563,160 L 62.57332147143888,160 L 64.05851509614577,160 L 64.09022626789576,160 L 64.12526980006695,160 L 65.60951388121296,160 L 65.63362870447595,160 L 65.66517863297976,160 L 67.15850608366094,160 L 67.18091889488085,160 L 67.21254048704964,160 L 68.70303722296444,160 L 68.72776118737968,160 L 68.75871989064748,160 L 70.25154569567385,160 L 70.27961993642654,160 L 71.80195325550503,160 L 71.82775217489487,160 L 71.85220740056647,160 L 73.35058713962816,160 L 73.3803096446752,160 L 73.41409906270937,160 L 74.88868646500045,160 L 74.9249303635599,160 L 74.95583531907897,160 L 76.4429638627401,160 L 76.46236680003119,160 L 76.49914817607794,160 L 77.99140067178453,160 L 78.0189195191337,160 L 78.04943032449542,160 L 79.54162907245329,160 L 79.56762506692179,160 L 79.59514391427095,160 L 81.08546149102331,160 L 81.1151302483216,160 L 81.1445481827925,160 L 82.63248294268458,160 L 82.65967930354135,160 L 82.69035135214926,160 L 84.18548831037097,160 L 84.21607077939765,160 L 84.24905398120092,160 L 85.73596753386713,160 L 85.75909698173675,160 L 85.81021109077784,160 L 87.28461933390649,160 L 87.30814293193347,160 L 87.33770419373431,160 L 88.82737679750193,160 L 88.85500314034854,160 L 88.88420608382452,160 L 90.37461324015811,160 L 90.40121837577887,160 L 90.43192625621927,160 L 91.92358752668986,160 L 91.95155427194507,160 L 91.97713820034,160 L 93.46937278013036,160 L 93.49703495480944,160 L 93.52609457095548,160 L 95.02420557127353,160 L 95.05335476700078,160 L 95.08382974053002,160 L 96.56628223005174,160 L 96.59559266902518,130 L 96.62599597888945,130 L 98.12048796412643,130 L 98.14130625880071,130 L 98.1696313223808,130 L 99.66263628656961,130 L 99.68255878543175,130 L 99.72063010744799,130 L 101.21277510765714,130 L 101.24156598505954,130 L 101.26591371523368,130 L 102.75465469135668,130 L 102.78727957483505,130 L 102.81902657841755,130 L 104.30973830532726,130 L 104.3247339272226,130 L 104.3631277357312,130 L 105.85733306630829,130 L 105.88730639418273,130 L 105.92227826268893,130 L 107.40519656603297,130 L 107.43165837432379,130 L 107.46749020680966,130 L 108.95028309874,130 L 108.98029225844692,130 L 109.01358003082629,130 L 110.50167603396453,130 L 110.5235334517809,130 L 110.55456381871367,130 L 112.04525762970715,130 L 112.07016075328482,130 L 112.10228399110841,130 L 113.59609517152815,130 L 113.62547727416657,130 L 113.6511149503102,130 L 115.14286580036202,130 L 115.17568775891908,130 L 115.19860221579378,130 L 116.69280754637087,130 L 116.7216880033545,130 L 116.75493994390138,130 L 118.24124435541533,130 L 118.26942609166547,130 L 118.3034484166108,130 L 119.78826580707658,130 L 119.81392139913648,130 L 119.8459371414626,130 L 121.33759841193319,130 L 121.36558307310466,130 L 121.39802879742061,130 L 122.88164582149813,130 L 122.91925132969205,130 L 122.94101916792721,130 L 124.42981389179894,130 L 124.45910641485612,130 L 124.48825561058338,130 L 125.97361047853647,130 L 126.00593079143873,130 L 126.03294799313306,130 L 127.11299108792221,130 L 127.52815661501975,130 L 127.56027985284335,130 L 127.59412301862623,130 L 129.075912619247,130 L 129.1040047759159,130 L 129.13689839813793,130 L 130.6219486955149,130 L 130.64360903825258,130 L 130.67994251639328,130 L 132.1719621051887,130 L 132.19901513871554,130 L 132.23047548763816,130 L 133.71998684815958,130 L 133.75246840430802,130 L 133.78593533584984,130 L 135.26604084034372,130 L 135.2937030150228,130 L 135.3301260727447,130 L 136.81829373954793,130 L 136.84188900123985,130 L 136.87094861738592,130 L 138.36492104105184,130 L 138.3984238044261,130 L 138.42979457376748,130 L 139.91196040862934,130 L 139.94211289566618,130 L 139.97597397736536,130 L 141.45770983023738,130 L 141.487109848792,130 L 141.52025429384145,130 L 143.00886985855072,130 L 143.0363528740674,130 L 143.06446294665255,130 L 144.55504926214857,130 L 144.58283684824136,130 L 144.6162321161182,130 L 146.0940802151655,130 L 146.13087950712847,130 L 146.16174863081505,130 L 147.65009545678072,130 L 147.67182746318338,130 L 147.71090207650923,130 L 149.19987595954336,130 L 149.23253667485426,130 L 149.26695314995692,130 L 150.75001478063092,130 L 150.77989852892412,130 L 150.8115559529254,130 L 152.2887769949042,130 L 152.32124063513638,130 L 152.35361469578737,130 L 153.84149570793068,130 L 153.87188110187873,130 L 153.90660214755752,130 L 155.38991460105888,130 L 155.41788134631412,130 L 155.4487504700007,130 L 156.93897846717186,130 L 156.958900966034,130 L 157.0078114173772,130 L 158.4842799908738,130 L 158.51443247791067,130 L 158.54417289887394,130 L 160.03508170086232,130 L 160.06931901680255,130 L 160.10047479514904,130 L 161.58226439576978,130 L 161.61241688280663,130 L 161.6471737603179,130 L 163.12808548104275,130 L 163.15771840650856,130 L 163.18471769228665,130 L 164.6783676294602,130 L 164.70898593031941,130 L 164.74051794290696,130 L 166.23096093107304,130 L 166.25976972439167,130 L 166.288184367553,130 L 167.77309133759996,130 L 167.8038887976216,40 L 167.8359762036127,40 L 169.32681334193612,40 L 169.34818703001392,40 L 169.37765871223354,40 L 170.87087866741726,40 L 170.89477849968534,40 L 170.93718547343238,40 L 172.42065917017996,40 L 172.45213743501878,40 L 172.47978169378163,40 L 173.96232376288458,40 L 173.99681190165222,40 L 174.03058340377015,40 L 175.51979019371547,40 L 175.53505455435445,40 L 175.57642240495937,40 L 177.0646259035951,40 L 177.09725078707348,40 L 177.13410382678518,40 L 178.61268647839844,40 L 178.64343019067132,40 L 178.68282729048954,40 L 180.15823882492776,40 L 180.19093537207112,40 L 180.22907835775234,40 L 181.71475571219779,40 L 181.75117876991968,40 L 183.2567427913948,40 L 183.33333333333334,40" stroke="#22c55e" stroke-width="2" fill="none" stroke-dasharray="14850" stroke-dashoffset="14850">
      <animate attributeName="stroke-dashoffset" values="14850;0" dur="3s" begin="2.6s" fill="freeze"/>
    </path>
    
    <!-- Glow effect for the line that also follows the circle -->
    <path d="M 30,160 L 30.028826709234885,160 L 30.06426439156341,160 L 31.554295313655892,160 L 31.584537380273968,160 L 31.606054395681735,160 L 33.10119135390345,160 L 33.12539575674766,160 L 33.15502868221348,160 L 34.6516705773996,160 L 34.70652911293547,160 L 36.19532383680719,160 L 36.224992594105494,160 L 36.252332282292215,160 L 37.74494309632368,160 L 37.77301733707636,160 L 37.8023277760498,160 L 39.29350531678183,160 L 39.32213495093804,160 L 39.35434776834284,160 L 40.840723843521765,160 L 40.870858414642385,160 L 40.90181711791018,160 L 42.39132847843162,160 L 42.420889740232454,160 L 42.449071476482594,160 L 43.94139563585417,160 L 43.962661828434534,160 L 43.99209767882168,160 L 45.48388436070597,160 L 45.51124196480893,160 L 45.54295313655893,160 L 47.0325182448291,160 L 47.059714605685876,160 L 47.08965210172782,160 L 48.580596735548696,160 L 48.60635982310603,160 L 48.63812474260476,160 L 50.12975018124286,160 L 50.155513268800206,160 L 50.17939518515203,160 L 51.68298845584042,160 L 51.70493545323802,160 L 51.73687953189918,160 L 53.22621173325818,160 L 53.251473175160726,160 L 53.27988781832202,160 L 54.773412344081876,160 L 54.7956639120556,160 L 54.829310002759826,160 L 56.319752990925906,160 L 56.3458743968081,160 L 56.377925970966714,160 L 57.86596822635623,160 L 57.890333872446625,160 L 57.9250011703767,160 L 59.40980064492625,160 L 59.44127890976509,160 L 59.473599222667346,160 L 60.96318224685375,160 L 60.988318277342586,160 L 61.01780787547847,160 L 62.513195656527586,160 L 62.54033826963563,160 L 62.57332147143888,160 L 64.05851509614577,160 L 64.09022626789576,160 L 64.12526980006695,160 L 65.60951388121296,160 L 65.63362870447595,160 L 65.66517863297976,160 L 67.15850608366094,160 L 67.18091889488085,160 L 67.21254048704964,160 L 68.70303722296444,160 L 68.72776118737968,160 L 68.75871989064748,160 L 70.25154569567385,160 L 70.27961993642654,160 L 71.80195325550503,160 L 71.82775217489487,160 L 71.85220740056647,160 L 73.35058713962816,160 L 73.3803096446752,160 L 73.41409906270937,160 L 74.88868646500045,160 L 74.9249303635599,160 L 74.95583531907897,160 L 76.4429638627401,160 L 76.46236680003119,160 L 76.49914817607794,160 L 77.99140067178453,160 L 78.0189195191337,160 L 78.04943032449542,160 L 79.54162907245329,160 L 79.56762506692179,160 L 79.59514391427095,160 L 81.08546149102331,160 L 81.1151302483216,160 L 81.1445481827925,160 L 82.63248294268458,160 L 82.65967930354135,160 L 82.69035135214926,160 L 84.18548831037097,160 L 84.21607077939765,160 L 84.24905398120092,160 L 85.73596753386713,160 L 85.75909698173675,160 L 85.81021109077784,160 L 87.28461933390649,160 L 87.30814293193347,160 L 87.33770419373431,160 L 88.82737679750193,160 L 88.85500314034854,160 L 88.88420608382452,160 L 90.37461324015811,160 L 90.40121837577887,160 L 90.43192625621927,160 L 91.92358752668986,160 L 91.95155427194507,160 L 91.97713820034,160 L 93.46937278013036,160 L 93.49703495480944,160 L 93.52609457095548,160 L 95.02420557127353,160 L 95.05335476700078,160 L 95.08382974053002,160 L 96.56628223005174,160 L 96.59559266902518,130 L 96.62599597888945,130 L 98.12048796412643,130 L 98.14130625880071,130 L 98.1696313223808,130 L 99.66263628656961,130 L 99.68255878543175,130 L 99.72063010744799,130 L 101.21277510765714,130 L 101.24156598505954,130 L 101.26591371523368,130 L 102.75465469135668,130 L 102.78727957483505,130 L 102.81902657841755,130 L 104.30973830532726,130 L 104.3247339272226,130 L 104.3631277357312,130 L 105.85733306630829,130 L 105.88730639418273,130 L 105.92227826268893,130 L 107.40519656603297,130 L 107.43165837432379,130 L 107.46749020680966,130 L 108.95028309874,130 L 108.98029225844692,130 L 109.01358003082629,130 L 110.50167603396453,130 L 110.5235334517809,130 L 110.55456381871367,130 L 112.04525762970715,130 L 112.07016075328482,130 L 112.10228399110841,130 L 113.59609517152815,130 L 113.62547727416657,130 L 113.6511149503102,130 L 115.14286580036202,130 L 115.17568775891908,130 L 115.19860221579378,130 L 116.69280754637087,130 L 116.7216880033545,130 L 116.75493994390138,130 L 118.24124435541533,130 L 118.26942609166547,130 L 118.3034484166108,130 L 119.78826580707658,130 L 119.81392139913648,130 L 119.8459371414626,130 L 121.33759841193319,130 L 121.36558307310466,130 L 121.39802879742061,130 L 122.88164582149813,130 L 122.91925132969205,130 L 122.94101916792721,130 L 124.42981389179894,130 L 124.45910641485612,130 L 124.48825561058338,130 L 125.97361047853647,130 L 126.00593079143873,130 L 126.03294799313306,130 L 127.11299108792221,130 L 127.52815661501975,130 L 127.56027985284335,130 L 127.59412301862623,130 L 129.075912619247,130 L 129.1040047759159,130 L 129.13689839813793,130 L 130.6219486955149,130 L 130.64360903825258,130 L 130.67994251639328,130 L 132.1719621051887,130 L 132.19901513871554,130 L 132.23047548763816,130 L 133.71998684815958,130 L 133.75246840430802,130 L 133.78593533584984,130 L 135.26604084034372,130 L 135.2937030150228,130 L 135.3301260727447,130 L 136.81829373954793,130 L 136.84188900123985,130 L 136.87094861738592,130 L 138.36492104105184,130 L 138.3984238044261,130 L 138.42979457376748,130 L 139.91196040862934,130 L 139.94211289566618,130 L 139.97597397736536,130 L 141.45770983023738,130 L 141.487109848792,130 L 141.52025429384145,130 L 143.00886985855072,130 L 143.0363528740674,130 L 143.06446294665255,130 L 144.55504926214857,130 L 144.58283684824136,130 L 144.6162321161182,130 L 146.0940802151655,130 L 146.13087950712847,130 L 146.16174863081505,130 L 147.65009545678072,130 L 147.67182746318338,130 L 147.71090207650923,130 L 149.19987595954336,130 L 149.23253667485426,130 L 149.26695314995692,130 L 150.75001478063092,130 L 150.77989852892412,130 L 150.8115559529254,130 L 152.2887769949042,130 L 152.32124063513638,130 L 152.35361469578737,130 L 153.84149570793068,130 L 153.87188110187873,130 L 153.90660214755752,130 L 155.38991460105888,130 L 155.41788134631412,130 L 155.4487504700007,130 L 156.93897846717186,130 L 156.958900966034,130 L 157.0078114173772,130 L 158.4842799908738,130 L 158.51443247791067,130 L 158.54417289887394,130 L 160.03508170086232,130 L 160.06931901680255,130 L 160.10047479514904,130 L 161.58226439576978,130 L 161.61241688280663,130 L 161.6471737603179,130 L 163.12808548104275,130 L 163.15771840650856,130 L 163.18471769228665,130 L 164.6783676294602,130 L 164.70898593031941,130 L 164.74051794290696,130 L 166.23096093107304,130 L 166.25976972439167,130 L 166.288184367553,130 L 167.77309133759996,130 L 167.8038887976216,40 L 167.8359762036127,40 L 169.32681334193612,40 L 169.34818703001392,40 L 169.37765871223354,40 L 170.87087866741726,40 L 170.89477849968534,40 L 170.93718547343238,40 L 172.42065917017996,40 L 172.45213743501878,40 L 172.47978169378163,40 L 173.96232376288458,40 L 173.99681190165222,40 L 174.03058340377015,40 L 175.51979019371547,40 L 175.53505455435445,40 L 175.57642240495937,40 L 177.0646259035951,40 L 177.09725078707348,40 L 177.13410382678518,40 L 178.61268647839844,40 L 178.64343019067132,40 L 178.68282729048954,40 L 180.15823882492776,40 L 180.19093537207112,40 L 180.22907835775234,40 L 181.71475571219779,40 L 181.75117876991968,40 L 183.2567427913948,40 L 183.33333333333334,40" stroke="#22c55e" stroke-width="4" fill="none" opacity="0.4" stroke-dasharray="14850" stroke-dashoffset="14850">
      <animate attributeName="stroke-dashoffset" values="14850;0" dur="3s" begin="2.6s" fill="freeze"/>
    </path>
    
    <!-- Animated circle that moves along the path and draws the line -->
    <circle r="5" fill="#22c55e" opacity="0" filter="url(#trailGlow)">
      <animate attributeName="opacity" values="0;1;1;1" dur="3.2s" begin="2.4s" fill="freeze"/>
      <animate attributeName="r" values="5;6;5" dur="1s" begin="2.4s" repeatCount="3"/>
      <animateMotion dur="3s" begin="2.4s" fill="freeze">
        <mpath href="#path_followersCount_60"/>
      </animateMotion>
    </circle>
    
    <!-- Small trail dots that fade out -->
    <circle r="2" fill="#22c55e" opacity="0">
      <animate attributeName="opacity" values="0;0.6;0" dur="0.8s" begin="2.8s" fill="freeze"/>
      <animateMotion dur="3s" begin="2.4s" fill="freeze">
        <mpath href="#path_followersCount_60"/>
      </animateMotion>
    </circle>
    
    <!-- Hidden path for motion animation -->
    <path id="path_followersCount_60" d="M 30,160 L 30.028826709234885,160 L 30.06426439156341,160 L 31.554295313655892,160 L 31.584537380273968,160 L 31.606054395681735,160 L 33.10119135390345,160 L 33.12539575674766,160 L 33.15502868221348,160 L 34.6516705773996,160 L 34.70652911293547,160 L 36.19532383680719,160 L 36.224992594105494,160 L 36.252332282292215,160 L 37.74494309632368,160 L 37.77301733707636,160 L 37.8023277760498,160 L 39.29350531678183,160 L 39.32213495093804,160 L 39.35434776834284,160 L 40.840723843521765,160 L 40.870858414642385,160 L 40.90181711791018,160 L 42.39132847843162,160 L 42.420889740232454,160 L 42.449071476482594,160 L 43.94139563585417,160 L 43.962661828434534,160 L 43.99209767882168,160 L 45.48388436070597,160 L 45.51124196480893,160 L 45.54295313655893,160 L 47.0325182448291,160 L 47.059714605685876,160 L 47.08965210172782,160 L 48.580596735548696,160 L 48.60635982310603,160 L 48.63812474260476,160 L 50.12975018124286,160 L 50.155513268800206,160 L 50.17939518515203,160 L 51.68298845584042,160 L 51.70493545323802,160 L 51.73687953189918,160 L 53.22621173325818,160 L 53.251473175160726,160 L 53.27988781832202,160 L 54.773412344081876,160 L 54.7956639120556,160 L 54.829310002759826,160 L 56.319752990925906,160 L 56.3458743968081,160 L 56.377925970966714,160 L 57.86596822635623,160 L 57.890333872446625,160 L 57.9250011703767,160 L 59.40980064492625,160 L 59.44127890976509,160 L 59.473599222667346,160 L 60.96318224685375,160 L 60.988318277342586,160 L 61.01780787547847,160 L 62.513195656527586,160 L 62.54033826963563,160 L 62.57332147143888,160 L 64.05851509614577,160 L 64.09022626789576,160 L 64.12526980006695,160 L 65.60951388121296,160 L 65.63362870447595,160 L 65.66517863297976,160 L 67.15850608366094,160 L 67.18091889488085,160 L 67.21254048704964,160 L 68.70303722296444,160 L 68.72776118737968,160 L 68.75871989064748,160 L 70.25154569567385,160 L 70.27961993642654,160 L 71.80195325550503,160 L 71.82775217489487,160 L 71.85220740056647,160 L 73.35058713962816,160 L 73.3803096446752,160 L 73.41409906270937,160 L 74.88868646500045,160 L 74.9249303635599,160 L 74.95583531907897,160 L 76.4429638627401,160 L 76.46236680003119,160 L 76.49914817607794,160 L 77.99140067178453,160 L 78.0189195191337,160 L 78.04943032449542,160 L 79.54162907245329,160 L 79.56762506692179,160 L 79.59514391427095,160 L 81.08546149102331,160 L 81.1151302483216,160 L 81.1445481827925,160 L 82.63248294268458,160 L 82.65967930354135,160 L 82.69035135214926,160 L 84.18548831037097,160 L 84.21607077939765,160 L 84.24905398120092,160 L 85.73596753386713,160 L 85.75909698173675,160 L 85.81021109077784,160 L 87.28461933390649,160 L 87.30814293193347,160 L 87.33770419373431,160 L 88.82737679750193,160 L 88.85500314034854,160 L 88.88420608382452,160 L 90.37461324015811,160 L 90.40121837577887,160 L 90.43192625621927,160 L 91.92358752668986,160 L 91.95155427194507,160 L 91.97713820034,160 L 93.46937278013036,160 L 93.49703495480944,160 L 93.52609457095548,160 L 95.02420557127353,160 L 95.05335476700078,160 L 95.08382974053002,160 L 96.56628223005174,160 L 96.59559266902518,130 L 96.62599597888945,130 L 98.12048796412643,130 L 98.14130625880071,130 L 98.1696313223808,130 L 99.66263628656961,130 L 99.68255878543175,130 L 99.72063010744799,130 L 101.21277510765714,130 L 101.24156598505954,130 L 101.26591371523368,130 L 102.75465469135668,130 L 102.78727957483505,130 L 102.81902657841755,130 L 104.30973830532726,130 L 104.3247339272226,130 L 104.3631277357312,130 L 105.85733306630829,130 L 105.88730639418273,130 L 105.92227826268893,130 L 107.40519656603297,130 L 107.43165837432379,130 L 107.46749020680966,130 L 108.95028309874,130 L 108.98029225844692,130 L 109.01358003082629,130 L 110.50167603396453,130 L 110.5235334517809,130 L 110.55456381871367,130 L 112.04525762970715,130 L 112.07016075328482,130 L 112.10228399110841,130 L 113.59609517152815,130 L 113.62547727416657,130 L 113.6511149503102,130 L 115.14286580036202,130 L 115.17568775891908,130 L 115.19860221579378,130 L 116.69280754637087,130 L 116.7216880033545,130 L 116.75493994390138,130 L 118.24124435541533,130 L 118.26942609166547,130 L 118.3034484166108,130 L 119.78826580707658,130 L 119.81392139913648,130 L 119.8459371414626,130 L 121.33759841193319,130 L 121.36558307310466,130 L 121.39802879742061,130 L 122.88164582149813,130 L 122.91925132969205,130 L 122.94101916792721,130 L 124.42981389179894,130 L 124.45910641485612,130 L 124.48825561058338,130 L 125.97361047853647,130 L 126.00593079143873,130 L 126.03294799313306,130 L 127.11299108792221,130 L 127.52815661501975,130 L 127.56027985284335,130 L 127.59412301862623,130 L 129.075912619247,130 L 129.1040047759159,130 L 129.13689839813793,130 L 130.6219486955149,130 L 130.64360903825258,130 L 130.67994251639328,130 L 132.1719621051887,130 L 132.19901513871554,130 L 132.23047548763816,130 L 133.71998684815958,130 L 133.75246840430802,130 L 133.78593533584984,130 L 135.26604084034372,130 L 135.2937030150228,130 L 135.3301260727447,130 L 136.81829373954793,130 L 136.84188900123985,130 L 136.87094861738592,130 L 138.36492104105184,130 L 138.3984238044261,130 L 138.42979457376748,130 L 139.91196040862934,130 L 139.94211289566618,130 L 139.97597397736536,130 L 141.45770983023738,130 L 141.487109848792,130 L 141.52025429384145,130 L 143.00886985855072,130 L 143.0363528740674,130 L 143.06446294665255,130 L 144.55504926214857,130 L 144.58283684824136,130 L 144.6162321161182,130 L 146.0940802151655,130 L 146.13087950712847,130 L 146.16174863081505,130 L 147.65009545678072,130 L 147.67182746318338,130 L 147.71090207650923,130 L 149.19987595954336,130 L 149.23253667485426,130 L 149.26695314995692,130 L 150.75001478063092,130 L 150.77989852892412,130 L 150.8115559529254,130 L 152.2887769949042,130 L 152.32124063513638,130 L 152.35361469578737,130 L 153.84149570793068,130 L 153.87188110187873,130 L 153.90660214755752,130 L 155.38991460105888,130 L 155.41788134631412,130 L 155.4487504700007,130 L 156.93897846717186,130 L 156.958900966034,130 L 157.0078114173772,130 L 158.4842799908738,130 L 158.51443247791067,130 L 158.54417289887394,130 L 160.03508170086232,130 L 160.06931901680255,130 L 160.10047479514904,130 L 161.58226439576978,130 L 161.61241688280663,130 L 161.6471737603179,130 L 163.12808548104275,130 L 163.15771840650856,130 L 163.18471769228665,130 L 164.6783676294602,130 L 164.70898593031941,130 L 164.74051794290696,130 L 166.23096093107304,130 L 166.25976972439167,130 L 166.288184367553,130 L 167.77309133759996,130 L 167.8038887976216,40 L 167.8359762036127,40 L 169.32681334193612,40 L 169.34818703001392,40 L 169.37765871223354,40 L 170.87087866741726,40 L 170.89477849968534,40 L 170.93718547343238,40 L 172.42065917017996,40 L 172.45213743501878,40 L 172.47978169378163,40 L 173.96232376288458,40 L 173.99681190165222,40 L 174.03058340377015,40 L 175.51979019371547,40 L 175.53505455435445,40 L 175.57642240495937,40 L 177.0646259035951,40 L 177.09725078707348,40 L 177.13410382678518,40 L 178.61268647839844,40 L 178.64343019067132,40 L 178.68282729048954,40 L 180.15823882492776,40 L 180.19093537207112,40 L 180.22907835775234,40 L 181.71475571219779,40 L 181.75117876991968,40 L 183.2567427913948,40 L 183.33333333333334,40" fill="none" stroke="none"/>
  </g>
  <!-- 🔓 Public Contributions Chart -->
  <g transform="translate(293.33333333333337, 250)">
    <!-- Chart Background -->
    <rect x="0" y="0" width="213.33333333333334" height="200" fill="#ffffff" stroke="#e2e8f0" stroke-width="1" rx="8" filter="url(#shadow)">
      <animate attributeName="opacity" values="0;1" dur="0.5s" begin="2.3s" fill="freeze"/>
    </rect>
    
    <!-- Chart Title -->
    <text x="106.66666666666667" y="25" text-anchor="middle" fill="#1e293b" font-size="14" font-weight="bold" font-family="Arial, sans-serif">
      🔓 Public Contributions
      <animate attributeName="opacity" values="0;1" dur="0.5s" begin="2.5s" fill="freeze"/>
    </text>
    
    <!-- Y-axis labels -->
    <text x="10" y="45" fill="#64748b" font-size="10" font-family="Arial, sans-serif">3,861
      <animate attributeName="opacity" values="0;1" dur="0.5s" begin="2.6999999999999997s" fill="freeze"/>
    </text>
    <text x="10" y="185" fill="#64748b" font-size="10" font-family="Arial, sans-serif">3,180
      <animate attributeName="opacity" values="0;1" dur="0.5s" begin="2.6999999999999997s" fill="freeze"/>
    </text>
    
    <!-- Chart Line with draw animation that follows the circle -->
    <path d="M 30,160 L 30.028826709234885,160 L 30.06426439156341,160 L 31.554295313655892,160 L 31.584537380273968,160 L 31.606054395681735,160 L 33.10119135390345,160 L 33.12539575674766,160 L 33.15502868221348,160 L 34.6516705773996,160 L 34.70652911293547,160 L 36.19532383680719,160 L 36.224992594105494,160 L 36.252332282292215,160 L 37.74494309632368,160 L 37.77301733707636,160 L 37.8023277760498,160 L 39.29350531678183,160 L 39.32213495093804,160 L 39.35434776834284,160 L 40.840723843521765,160 L 40.870858414642385,160 L 40.90181711791018,160 L 42.39132847843162,160 L 42.420889740232454,160 L 42.449071476482594,160 L 43.94139563585417,160 L 43.962661828434534,160 L 43.99209767882168,160 L 45.48388436070597,160 L 45.51124196480893,160 L 45.54295313655893,160 L 47.0325182448291,160 L 47.059714605685876,160 L 47.08965210172782,160 L 48.580596735548696,160 L 48.60635982310603,160 L 48.63812474260476,160 L 50.12975018124286,160 L 50.155513268800206,160 L 50.17939518515203,160 L 51.68298845584042,160 L 51.70493545323802,160 L 51.73687953189918,160 L 53.22621173325818,160 L 53.251473175160726,160 L 53.27988781832202,160 L 54.773412344081876,160 L 54.7956639120556,160 L 54.829310002759826,160 L 56.319752990925906,160 L 56.3458743968081,160 L 56.377925970966714,160 L 57.86596822635623,160 L 57.890333872446625,160 L 57.9250011703767,160 L 59.40980064492625,160 L 59.44127890976509,160 L 59.473599222667346,160 L 60.96318224685375,160 L 60.988318277342586,160 L 61.01780787547847,160 L 62.513195656527586,160 L 62.54033826963563,160 L 62.57332147143888,160 L 64.05851509614577,160 L 64.09022626789576,160 L 64.12526980006695,160 L 65.60951388121296,160 L 65.63362870447595,160 L 65.66517863297976,160 L 67.15850608366094,160 L 67.18091889488085,160 L 67.21254048704964,160 L 68.70303722296444,160 L 68.72776118737968,160 L 68.75871989064748,160 L 70.25154569567385,160 L 70.27961993642654,160 L 71.80195325550503,160 L 71.82775217489487,160 L 71.85220740056647,160 L 73.35058713962816,160 L 73.3803096446752,160 L 73.41409906270937,160 L 74.88868646500045,160 L 74.9249303635599,160 L 74.95583531907897,160 L 76.4429638627401,160 L 76.46236680003119,160 L 76.49914817607794,160 L 77.99140067178453,160 L 78.0189195191337,160 L 78.04943032449542,160 L 79.54162907245329,160 L 79.56762506692179,160 L 79.59514391427095,160 L 81.08546149102331,160 L 81.1151302483216,160 L 81.1445481827925,160 L 82.63248294268458,160 L 82.65967930354135,160 L 82.69035135214926,160 L 84.18548831037097,160 L 84.21607077939765,160 L 84.24905398120092,160 L 85.73596753386713,160 L 85.75909698173675,160 L 85.81021109077784,160 L 87.28461933390649,160 L 87.30814293193347,160 L 87.33770419373431,160 L 88.82737679750193,160 L 88.85500314034854,160 L 88.88420608382452,160 L 90.37461324015811,160 L 90.40121837577887,160 L 90.43192625621927,160 L 91.92358752668986,160 L 91.95155427194507,160 L 91.97713820034,160 L 93.46937278013036,160 L 93.49703495480944,160 L 93.52609457095548,160 L 95.02420557127353,160 L 95.05335476700078,160 L 95.08382974053002,160 L 96.56628223005174,160 L 96.59559266902518,115.24229074889868 L 96.62599597888945,115.24229074889868 L 98.12048796412643,115.24229074889868 L 98.14130625880071,115.24229074889868 L 98.1696313223808,115.24229074889868 L 99.66263628656961,115.24229074889868 L 99.68255878543175,115.24229074889868 L 99.72063010744799,115.24229074889868 L 101.21277510765714,115.24229074889868 L 101.24156598505954,115.24229074889868 L 101.26591371523368,115.24229074889868 L 102.75465469135668,115.24229074889868 L 102.78727957483505,115.24229074889868 L 102.81902657841755,115.24229074889868 L 104.30973830532726,115.24229074889868 L 104.3247339272226,115.24229074889868 L 104.3631277357312,115.24229074889868 L 105.85733306630829,115.24229074889868 L 105.88730639418273,115.24229074889868 L 105.92227826268893,115.24229074889868 L 107.40519656603297,115.24229074889868 L 107.43165837432379,115.24229074889868 L 107.46749020680966,115.24229074889868 L 108.95028309874,115.24229074889868 L 108.98029225844692,115.24229074889868 L 109.01358003082629,115.24229074889868 L 110.50167603396453,115.24229074889868 L 110.5235334517809,115.24229074889868 L 110.55456381871367,115.24229074889868 L 112.04525762970715,115.24229074889868 L 112.07016075328482,115.24229074889868 L 112.10228399110841,115.24229074889868 L 113.59609517152815,115.24229074889868 L 113.62547727416657,115.24229074889868 L 113.6511149503102,115.24229074889868 L 115.14286580036202,115.24229074889868 L 115.17568775891908,115.24229074889868 L 115.19860221579378,115.24229074889868 L 116.69280754637087,115.24229074889868 L 116.7216880033545,115.24229074889868 L 116.75493994390138,115.24229074889868 L 118.24124435541533,115.24229074889868 L 118.26942609166547,115.24229074889868 L 118.3034484166108,115.24229074889868 L 119.78826580707658,115.24229074889868 L 119.81392139913648,115.24229074889868 L 119.8459371414626,115.24229074889868 L 121.33759841193319,115.24229074889868 L 121.36558307310466,115.24229074889868 L 121.39802879742061,115.24229074889868 L 122.88164582149813,115.24229074889868 L 122.91925132969205,115.24229074889868 L 122.94101916792721,115.24229074889868 L 124.42981389179894,115.24229074889868 L 124.45910641485612,115.24229074889868 L 124.48825561058338,115.24229074889868 L 125.97361047853647,115.24229074889868 L 126.00593079143873,115.24229074889868 L 126.03294799313306,115.24229074889868 L 127.11299108792221,115.24229074889868 L 127.52815661501975,115.24229074889868 L 127.56027985284335,115.24229074889868 L 127.59412301862623,115.24229074889868 L 129.075912619247,115.24229074889868 L 129.1040047759159,115.24229074889868 L 129.13689839813793,115.24229074889868 L 130.6219486955149,115.24229074889868 L 130.64360903825258,115.24229074889868 L 130.67994251639328,115.24229074889868 L 132.1719621051887,115.24229074889868 L 132.19901513871554,115.24229074889868 L 132.23047548763816,115.24229074889868 L 133.71998684815958,115.24229074889868 L 133.75246840430802,115.24229074889868 L 133.78593533584984,115.24229074889868 L 135.26604084034372,115.24229074889868 L 135.2937030150228,115.24229074889868 L 135.3301260727447,115.24229074889868 L 136.81829373954793,115.24229074889868 L 136.84188900123985,115.24229074889868 L 136.87094861738592,115.24229074889868 L 138.36492104105184,115.24229074889868 L 138.3984238044261,115.24229074889868 L 138.42979457376748,115.24229074889868 L 139.91196040862934,115.24229074889868 L 139.94211289566618,115.24229074889868 L 139.97597397736536,115.24229074889868 L 141.45770983023738,115.24229074889868 L 141.487109848792,115.24229074889868 L 141.52025429384145,115.24229074889868 L 143.00886985855072,115.24229074889868 L 143.0363528740674,115.24229074889868 L 143.06446294665255,115.24229074889868 L 144.55504926214857,115.24229074889868 L 144.58283684824136,115.24229074889868 L 144.6162321161182,115.24229074889868 L 146.0940802151655,115.24229074889868 L 146.13087950712847,115.24229074889868 L 146.16174863081505,115.24229074889868 L 147.65009545678072,115.24229074889868 L 147.67182746318338,115.24229074889868 L 147.71090207650923,115.24229074889868 L 149.19987595954336,115.24229074889868 L 149.23253667485426,115.24229074889868 L 149.26695314995692,115.24229074889868 L 150.75001478063092,115.24229074889868 L 150.77989852892412,115.24229074889868 L 150.8115559529254,115.24229074889868 L 152.2887769949042,115.24229074889868 L 152.32124063513638,115.24229074889868 L 152.35361469578737,115.24229074889868 L 153.84149570793068,115.24229074889868 L 153.87188110187873,115.24229074889868 L 153.90660214755752,115.24229074889868 L 155.38991460105888,115.24229074889868 L 155.41788134631412,115.24229074889868 L 155.4487504700007,115.24229074889868 L 156.93897846717186,115.24229074889868 L 156.958900966034,115.24229074889868 L 157.0078114173772,115.24229074889868 L 158.4842799908738,115.24229074889868 L 158.51443247791067,115.24229074889868 L 158.54417289887394,115.24229074889868 L 160.03508170086232,115.24229074889868 L 160.06931901680255,115.24229074889868 L 160.10047479514904,115.24229074889868 L 161.58226439576978,115.24229074889868 L 161.61241688280663,115.24229074889868 L 161.6471737603179,115.24229074889868 L 163.12808548104275,115.24229074889868 L 163.15771840650856,115.24229074889868 L 163.18471769228665,115.24229074889868 L 164.6783676294602,115.24229074889868 L 164.70898593031941,115.24229074889868 L 164.74051794290696,115.24229074889868 L 166.23096093107304,115.24229074889868 L 166.25976972439167,115.24229074889868 L 166.288184367553,115.24229074889868 L 167.77309133759996,115.24229074889868 L 167.8038887976216,40 L 167.8359762036127,40 L 169.32681334193612,40 L 169.34818703001392,40 L 169.37765871223354,40 L 170.87087866741726,40 L 170.89477849968534,40 L 170.93718547343238,40 L 172.42065917017996,40 L 172.45213743501878,40 L 172.47978169378163,40 L 173.96232376288458,40 L 173.99681190165222,40 L 174.03058340377015,40 L 175.51979019371547,40 L 175.53505455435445,40 L 175.57642240495937,40 L 177.0646259035951,40 L 177.09725078707348,40 L 177.13410382678518,40 L 178.61268647839844,40 L 178.64343019067132,40 L 178.68282729048954,40 L 180.15823882492776,40 L 180.19093537207112,40 L 180.22907835775234,40 L 181.71475571219779,40 L 181.75117876991968,40 L 183.2567427913948,40 L 183.33333333333334,40" stroke="#3b82f6" stroke-width="2" fill="none" stroke-dasharray="14850" stroke-dashoffset="14850">
      <animate attributeName="stroke-dashoffset" values="14850;0" dur="3s" begin="3.0999999999999996s" fill="freeze"/>
    </path>
    
    <!-- Glow effect for the line that also follows the circle -->
    <path d="M 30,160 L 30.028826709234885,160 L 30.06426439156341,160 L 31.554295313655892,160 L 31.584537380273968,160 L 31.606054395681735,160 L 33.10119135390345,160 L 33.12539575674766,160 L 33.15502868221348,160 L 34.6516705773996,160 L 34.70652911293547,160 L 36.19532383680719,160 L 36.224992594105494,160 L 36.252332282292215,160 L 37.74494309632368,160 L 37.77301733707636,160 L 37.8023277760498,160 L 39.29350531678183,160 L 39.32213495093804,160 L 39.35434776834284,160 L 40.840723843521765,160 L 40.870858414642385,160 L 40.90181711791018,160 L 42.39132847843162,160 L 42.420889740232454,160 L 42.449071476482594,160 L 43.94139563585417,160 L 43.962661828434534,160 L 43.99209767882168,160 L 45.48388436070597,160 L 45.51124196480893,160 L 45.54295313655893,160 L 47.0325182448291,160 L 47.059714605685876,160 L 47.08965210172782,160 L 48.580596735548696,160 L 48.60635982310603,160 L 48.63812474260476,160 L 50.12975018124286,160 L 50.155513268800206,160 L 50.17939518515203,160 L 51.68298845584042,160 L 51.70493545323802,160 L 51.73687953189918,160 L 53.22621173325818,160 L 53.251473175160726,160 L 53.27988781832202,160 L 54.773412344081876,160 L 54.7956639120556,160 L 54.829310002759826,160 L 56.319752990925906,160 L 56.3458743968081,160 L 56.377925970966714,160 L 57.86596822635623,160 L 57.890333872446625,160 L 57.9250011703767,160 L 59.40980064492625,160 L 59.44127890976509,160 L 59.473599222667346,160 L 60.96318224685375,160 L 60.988318277342586,160 L 61.01780787547847,160 L 62.513195656527586,160 L 62.54033826963563,160 L 62.57332147143888,160 L 64.05851509614577,160 L 64.09022626789576,160 L 64.12526980006695,160 L 65.60951388121296,160 L 65.63362870447595,160 L 65.66517863297976,160 L 67.15850608366094,160 L 67.18091889488085,160 L 67.21254048704964,160 L 68.70303722296444,160 L 68.72776118737968,160 L 68.75871989064748,160 L 70.25154569567385,160 L 70.27961993642654,160 L 71.80195325550503,160 L 71.82775217489487,160 L 71.85220740056647,160 L 73.35058713962816,160 L 73.3803096446752,160 L 73.41409906270937,160 L 74.88868646500045,160 L 74.9249303635599,160 L 74.95583531907897,160 L 76.4429638627401,160 L 76.46236680003119,160 L 76.49914817607794,160 L 77.99140067178453,160 L 78.0189195191337,160 L 78.04943032449542,160 L 79.54162907245329,160 L 79.56762506692179,160 L 79.59514391427095,160 L 81.08546149102331,160 L 81.1151302483216,160 L 81.1445481827925,160 L 82.63248294268458,160 L 82.65967930354135,160 L 82.69035135214926,160 L 84.18548831037097,160 L 84.21607077939765,160 L 84.24905398120092,160 L 85.73596753386713,160 L 85.75909698173675,160 L 85.81021109077784,160 L 87.28461933390649,160 L 87.30814293193347,160 L 87.33770419373431,160 L 88.82737679750193,160 L 88.85500314034854,160 L 88.88420608382452,160 L 90.37461324015811,160 L 90.40121837577887,160 L 90.43192625621927,160 L 91.92358752668986,160 L 91.95155427194507,160 L 91.97713820034,160 L 93.46937278013036,160 L 93.49703495480944,160 L 93.52609457095548,160 L 95.02420557127353,160 L 95.05335476700078,160 L 95.08382974053002,160 L 96.56628223005174,160 L 96.59559266902518,115.24229074889868 L 96.62599597888945,115.24229074889868 L 98.12048796412643,115.24229074889868 L 98.14130625880071,115.24229074889868 L 98.1696313223808,115.24229074889868 L 99.66263628656961,115.24229074889868 L 99.68255878543175,115.24229074889868 L 99.72063010744799,115.24229074889868 L 101.21277510765714,115.24229074889868 L 101.24156598505954,115.24229074889868 L 101.26591371523368,115.24229074889868 L 102.75465469135668,115.24229074889868 L 102.78727957483505,115.24229074889868 L 102.81902657841755,115.24229074889868 L 104.30973830532726,115.24229074889868 L 104.3247339272226,115.24229074889868 L 104.3631277357312,115.24229074889868 L 105.85733306630829,115.24229074889868 L 105.88730639418273,115.24229074889868 L 105.92227826268893,115.24229074889868 L 107.40519656603297,115.24229074889868 L 107.43165837432379,115.24229074889868 L 107.46749020680966,115.24229074889868 L 108.95028309874,115.24229074889868 L 108.98029225844692,115.24229074889868 L 109.01358003082629,115.24229074889868 L 110.50167603396453,115.24229074889868 L 110.5235334517809,115.24229074889868 L 110.55456381871367,115.24229074889868 L 112.04525762970715,115.24229074889868 L 112.07016075328482,115.24229074889868 L 112.10228399110841,115.24229074889868 L 113.59609517152815,115.24229074889868 L 113.62547727416657,115.24229074889868 L 113.6511149503102,115.24229074889868 L 115.14286580036202,115.24229074889868 L 115.17568775891908,115.24229074889868 L 115.19860221579378,115.24229074889868 L 116.69280754637087,115.24229074889868 L 116.7216880033545,115.24229074889868 L 116.75493994390138,115.24229074889868 L 118.24124435541533,115.24229074889868 L 118.26942609166547,115.24229074889868 L 118.3034484166108,115.24229074889868 L 119.78826580707658,115.24229074889868 L 119.81392139913648,115.24229074889868 L 119.8459371414626,115.24229074889868 L 121.33759841193319,115.24229074889868 L 121.36558307310466,115.24229074889868 L 121.39802879742061,115.24229074889868 L 122.88164582149813,115.24229074889868 L 122.91925132969205,115.24229074889868 L 122.94101916792721,115.24229074889868 L 124.42981389179894,115.24229074889868 L 124.45910641485612,115.24229074889868 L 124.48825561058338,115.24229074889868 L 125.97361047853647,115.24229074889868 L 126.00593079143873,115.24229074889868 L 126.03294799313306,115.24229074889868 L 127.11299108792221,115.24229074889868 L 127.52815661501975,115.24229074889868 L 127.56027985284335,115.24229074889868 L 127.59412301862623,115.24229074889868 L 129.075912619247,115.24229074889868 L 129.1040047759159,115.24229074889868 L 129.13689839813793,115.24229074889868 L 130.6219486955149,115.24229074889868 L 130.64360903825258,115.24229074889868 L 130.67994251639328,115.24229074889868 L 132.1719621051887,115.24229074889868 L 132.19901513871554,115.24229074889868 L 132.23047548763816,115.24229074889868 L 133.71998684815958,115.24229074889868 L 133.75246840430802,115.24229074889868 L 133.78593533584984,115.24229074889868 L 135.26604084034372,115.24229074889868 L 135.2937030150228,115.24229074889868 L 135.3301260727447,115.24229074889868 L 136.81829373954793,115.24229074889868 L 136.84188900123985,115.24229074889868 L 136.87094861738592,115.24229074889868 L 138.36492104105184,115.24229074889868 L 138.3984238044261,115.24229074889868 L 138.42979457376748,115.24229074889868 L 139.91196040862934,115.24229074889868 L 139.94211289566618,115.24229074889868 L 139.97597397736536,115.24229074889868 L 141.45770983023738,115.24229074889868 L 141.487109848792,115.24229074889868 L 141.52025429384145,115.24229074889868 L 143.00886985855072,115.24229074889868 L 143.0363528740674,115.24229074889868 L 143.06446294665255,115.24229074889868 L 144.55504926214857,115.24229074889868 L 144.58283684824136,115.24229074889868 L 144.6162321161182,115.24229074889868 L 146.0940802151655,115.24229074889868 L 146.13087950712847,115.24229074889868 L 146.16174863081505,115.24229074889868 L 147.65009545678072,115.24229074889868 L 147.67182746318338,115.24229074889868 L 147.71090207650923,115.24229074889868 L 149.19987595954336,115.24229074889868 L 149.23253667485426,115.24229074889868 L 149.26695314995692,115.24229074889868 L 150.75001478063092,115.24229074889868 L 150.77989852892412,115.24229074889868 L 150.8115559529254,115.24229074889868 L 152.2887769949042,115.24229074889868 L 152.32124063513638,115.24229074889868 L 152.35361469578737,115.24229074889868 L 153.84149570793068,115.24229074889868 L 153.87188110187873,115.24229074889868 L 153.90660214755752,115.24229074889868 L 155.38991460105888,115.24229074889868 L 155.41788134631412,115.24229074889868 L 155.4487504700007,115.24229074889868 L 156.93897846717186,115.24229074889868 L 156.958900966034,115.24229074889868 L 157.0078114173772,115.24229074889868 L 158.4842799908738,115.24229074889868 L 158.51443247791067,115.24229074889868 L 158.54417289887394,115.24229074889868 L 160.03508170086232,115.24229074889868 L 160.06931901680255,115.24229074889868 L 160.10047479514904,115.24229074889868 L 161.58226439576978,115.24229074889868 L 161.61241688280663,115.24229074889868 L 161.6471737603179,115.24229074889868 L 163.12808548104275,115.24229074889868 L 163.15771840650856,115.24229074889868 L 163.18471769228665,115.24229074889868 L 164.6783676294602,115.24229074889868 L 164.70898593031941,115.24229074889868 L 164.74051794290696,115.24229074889868 L 166.23096093107304,115.24229074889868 L 166.25976972439167,115.24229074889868 L 166.288184367553,115.24229074889868 L 167.77309133759996,115.24229074889868 L 167.8038887976216,40 L 167.8359762036127,40 L 169.32681334193612,40 L 169.34818703001392,40 L 169.37765871223354,40 L 170.87087866741726,40 L 170.89477849968534,40 L 170.93718547343238,40 L 172.42065917017996,40 L 172.45213743501878,40 L 172.47978169378163,40 L 173.96232376288458,40 L 173.99681190165222,40 L 174.03058340377015,40 L 175.51979019371547,40 L 175.53505455435445,40 L 175.57642240495937,40 L 177.0646259035951,40 L 177.09725078707348,40 L 177.13410382678518,40 L 178.61268647839844,40 L 178.64343019067132,40 L 178.68282729048954,40 L 180.15823882492776,40 L 180.19093537207112,40 L 180.22907835775234,40 L 181.71475571219779,40 L 181.75117876991968,40 L 183.2567427913948,40 L 183.33333333333334,40" stroke="#3b82f6" stroke-width="4" fill="none" opacity="0.4" stroke-dasharray="14850" stroke-dashoffset="14850">
      <animate attributeName="stroke-dashoffset" values="14850;0" dur="3s" begin="3.0999999999999996s" fill="freeze"/>
    </path>
    
    <!-- Animated circle that moves along the path and draws the line -->
    <circle r="5" fill="#3b82f6" opacity="0" filter="url(#trailGlow)">
      <animate attributeName="opacity" values="0;1;1;1" dur="3.2s" begin="2.9s" fill="freeze"/>
      <animate attributeName="r" values="5;6;5" dur="1s" begin="2.9s" repeatCount="3"/>
      <animateMotion dur="3s" begin="2.9s" fill="freeze">
        <mpath href="#path_publicContributions_293.33333333333337"/>
      </animateMotion>
    </circle>
    
    <!-- Small trail dots that fade out -->
    <circle r="2" fill="#3b82f6" opacity="0">
      <animate attributeName="opacity" values="0;0.6;0" dur="0.8s" begin="3.3s" fill="freeze"/>
      <animateMotion dur="3s" begin="2.9s" fill="freeze">
        <mpath href="#path_publicContributions_293.33333333333337"/>
      </animateMotion>
    </circle>
    
    <!-- Hidden path for motion animation -->
    <path id="path_publicContributions_293.33333333333337" d="M 30,160 L 30.028826709234885,160 L 30.06426439156341,160 L 31.554295313655892,160 L 31.584537380273968,160 L 31.606054395681735,160 L 33.10119135390345,160 L 33.12539575674766,160 L 33.15502868221348,160 L 34.6516705773996,160 L 34.70652911293547,160 L 36.19532383680719,160 L 36.224992594105494,160 L 36.252332282292215,160 L 37.74494309632368,160 L 37.77301733707636,160 L 37.8023277760498,160 L 39.29350531678183,160 L 39.32213495093804,160 L 39.35434776834284,160 L 40.840723843521765,160 L 40.870858414642385,160 L 40.90181711791018,160 L 42.39132847843162,160 L 42.420889740232454,160 L 42.449071476482594,160 L 43.94139563585417,160 L 43.962661828434534,160 L 43.99209767882168,160 L 45.48388436070597,160 L 45.51124196480893,160 L 45.54295313655893,160 L 47.0325182448291,160 L 47.059714605685876,160 L 47.08965210172782,160 L 48.580596735548696,160 L 48.60635982310603,160 L 48.63812474260476,160 L 50.12975018124286,160 L 50.155513268800206,160 L 50.17939518515203,160 L 51.68298845584042,160 L 51.70493545323802,160 L 51.73687953189918,160 L 53.22621173325818,160 L 53.251473175160726,160 L 53.27988781832202,160 L 54.773412344081876,160 L 54.7956639120556,160 L 54.829310002759826,160 L 56.319752990925906,160 L 56.3458743968081,160 L 56.377925970966714,160 L 57.86596822635623,160 L 57.890333872446625,160 L 57.9250011703767,160 L 59.40980064492625,160 L 59.44127890976509,160 L 59.473599222667346,160 L 60.96318224685375,160 L 60.988318277342586,160 L 61.01780787547847,160 L 62.513195656527586,160 L 62.54033826963563,160 L 62.57332147143888,160 L 64.05851509614577,160 L 64.09022626789576,160 L 64.12526980006695,160 L 65.60951388121296,160 L 65.63362870447595,160 L 65.66517863297976,160 L 67.15850608366094,160 L 67.18091889488085,160 L 67.21254048704964,160 L 68.70303722296444,160 L 68.72776118737968,160 L 68.75871989064748,160 L 70.25154569567385,160 L 70.27961993642654,160 L 71.80195325550503,160 L 71.82775217489487,160 L 71.85220740056647,160 L 73.35058713962816,160 L 73.3803096446752,160 L 73.41409906270937,160 L 74.88868646500045,160 L 74.9249303635599,160 L 74.95583531907897,160 L 76.4429638627401,160 L 76.46236680003119,160 L 76.49914817607794,160 L 77.99140067178453,160 L 78.0189195191337,160 L 78.04943032449542,160 L 79.54162907245329,160 L 79.56762506692179,160 L 79.59514391427095,160 L 81.08546149102331,160 L 81.1151302483216,160 L 81.1445481827925,160 L 82.63248294268458,160 L 82.65967930354135,160 L 82.69035135214926,160 L 84.18548831037097,160 L 84.21607077939765,160 L 84.24905398120092,160 L 85.73596753386713,160 L 85.75909698173675,160 L 85.81021109077784,160 L 87.28461933390649,160 L 87.30814293193347,160 L 87.33770419373431,160 L 88.82737679750193,160 L 88.85500314034854,160 L 88.88420608382452,160 L 90.37461324015811,160 L 90.40121837577887,160 L 90.43192625621927,160 L 91.92358752668986,160 L 91.95155427194507,160 L 91.97713820034,160 L 93.46937278013036,160 L 93.49703495480944,160 L 93.52609457095548,160 L 95.02420557127353,160 L 95.05335476700078,160 L 95.08382974053002,160 L 96.56628223005174,160 L 96.59559266902518,115.24229074889868 L 96.62599597888945,115.24229074889868 L 98.12048796412643,115.24229074889868 L 98.14130625880071,115.24229074889868 L 98.1696313223808,115.24229074889868 L 99.66263628656961,115.24229074889868 L 99.68255878543175,115.24229074889868 L 99.72063010744799,115.24229074889868 L 101.21277510765714,115.24229074889868 L 101.24156598505954,115.24229074889868 L 101.26591371523368,115.24229074889868 L 102.75465469135668,115.24229074889868 L 102.78727957483505,115.24229074889868 L 102.81902657841755,115.24229074889868 L 104.30973830532726,115.24229074889868 L 104.3247339272226,115.24229074889868 L 104.3631277357312,115.24229074889868 L 105.85733306630829,115.24229074889868 L 105.88730639418273,115.24229074889868 L 105.92227826268893,115.24229074889868 L 107.40519656603297,115.24229074889868 L 107.43165837432379,115.24229074889868 L 107.46749020680966,115.24229074889868 L 108.95028309874,115.24229074889868 L 108.98029225844692,115.24229074889868 L 109.01358003082629,115.24229074889868 L 110.50167603396453,115.24229074889868 L 110.5235334517809,115.24229074889868 L 110.55456381871367,115.24229074889868 L 112.04525762970715,115.24229074889868 L 112.07016075328482,115.24229074889868 L 112.10228399110841,115.24229074889868 L 113.59609517152815,115.24229074889868 L 113.62547727416657,115.24229074889868 L 113.6511149503102,115.24229074889868 L 115.14286580036202,115.24229074889868 L 115.17568775891908,115.24229074889868 L 115.19860221579378,115.24229074889868 L 116.69280754637087,115.24229074889868 L 116.7216880033545,115.24229074889868 L 116.75493994390138,115.24229074889868 L 118.24124435541533,115.24229074889868 L 118.26942609166547,115.24229074889868 L 118.3034484166108,115.24229074889868 L 119.78826580707658,115.24229074889868 L 119.81392139913648,115.24229074889868 L 119.8459371414626,115.24229074889868 L 121.33759841193319,115.24229074889868 L 121.36558307310466,115.24229074889868 L 121.39802879742061,115.24229074889868 L 122.88164582149813,115.24229074889868 L 122.91925132969205,115.24229074889868 L 122.94101916792721,115.24229074889868 L 124.42981389179894,115.24229074889868 L 124.45910641485612,115.24229074889868 L 124.48825561058338,115.24229074889868 L 125.97361047853647,115.24229074889868 L 126.00593079143873,115.24229074889868 L 126.03294799313306,115.24229074889868 L 127.11299108792221,115.24229074889868 L 127.52815661501975,115.24229074889868 L 127.56027985284335,115.24229074889868 L 127.59412301862623,115.24229074889868 L 129.075912619247,115.24229074889868 L 129.1040047759159,115.24229074889868 L 129.13689839813793,115.24229074889868 L 130.6219486955149,115.24229074889868 L 130.64360903825258,115.24229074889868 L 130.67994251639328,115.24229074889868 L 132.1719621051887,115.24229074889868 L 132.19901513871554,115.24229074889868 L 132.23047548763816,115.24229074889868 L 133.71998684815958,115.24229074889868 L 133.75246840430802,115.24229074889868 L 133.78593533584984,115.24229074889868 L 135.26604084034372,115.24229074889868 L 135.2937030150228,115.24229074889868 L 135.3301260727447,115.24229074889868 L 136.81829373954793,115.24229074889868 L 136.84188900123985,115.24229074889868 L 136.87094861738592,115.24229074889868 L 138.36492104105184,115.24229074889868 L 138.3984238044261,115.24229074889868 L 138.42979457376748,115.24229074889868 L 139.91196040862934,115.24229074889868 L 139.94211289566618,115.24229074889868 L 139.97597397736536,115.24229074889868 L 141.45770983023738,115.24229074889868 L 141.487109848792,115.24229074889868 L 141.52025429384145,115.24229074889868 L 143.00886985855072,115.24229074889868 L 143.0363528740674,115.24229074889868 L 143.06446294665255,115.24229074889868 L 144.55504926214857,115.24229074889868 L 144.58283684824136,115.24229074889868 L 144.6162321161182,115.24229074889868 L 146.0940802151655,115.24229074889868 L 146.13087950712847,115.24229074889868 L 146.16174863081505,115.24229074889868 L 147.65009545678072,115.24229074889868 L 147.67182746318338,115.24229074889868 L 147.71090207650923,115.24229074889868 L 149.19987595954336,115.24229074889868 L 149.23253667485426,115.24229074889868 L 149.26695314995692,115.24229074889868 L 150.75001478063092,115.24229074889868 L 150.77989852892412,115.24229074889868 L 150.8115559529254,115.24229074889868 L 152.2887769949042,115.24229074889868 L 152.32124063513638,115.24229074889868 L 152.35361469578737,115.24229074889868 L 153.84149570793068,115.24229074889868 L 153.87188110187873,115.24229074889868 L 153.90660214755752,115.24229074889868 L 155.38991460105888,115.24229074889868 L 155.41788134631412,115.24229074889868 L 155.4487504700007,115.24229074889868 L 156.93897846717186,115.24229074889868 L 156.958900966034,115.24229074889868 L 157.0078114173772,115.24229074889868 L 158.4842799908738,115.24229074889868 L 158.51443247791067,115.24229074889868 L 158.54417289887394,115.24229074889868 L 160.03508170086232,115.24229074889868 L 160.06931901680255,115.24229074889868 L 160.10047479514904,115.24229074889868 L 161.58226439576978,115.24229074889868 L 161.61241688280663,115.24229074889868 L 161.6471737603179,115.24229074889868 L 163.12808548104275,115.24229074889868 L 163.15771840650856,115.24229074889868 L 163.18471769228665,115.24229074889868 L 164.6783676294602,115.24229074889868 L 164.70898593031941,115.24229074889868 L 164.74051794290696,115.24229074889868 L 166.23096093107304,115.24229074889868 L 166.25976972439167,115.24229074889868 L 166.288184367553,115.24229074889868 L 167.77309133759996,115.24229074889868 L 167.8038887976216,40 L 167.8359762036127,40 L 169.32681334193612,40 L 169.34818703001392,40 L 169.37765871223354,40 L 170.87087866741726,40 L 170.89477849968534,40 L 170.93718547343238,40 L 172.42065917017996,40 L 172.45213743501878,40 L 172.47978169378163,40 L 173.96232376288458,40 L 173.99681190165222,40 L 174.03058340377015,40 L 175.51979019371547,40 L 175.53505455435445,40 L 175.57642240495937,40 L 177.0646259035951,40 L 177.09725078707348,40 L 177.13410382678518,40 L 178.61268647839844,40 L 178.64343019067132,40 L 178.68282729048954,40 L 180.15823882492776,40 L 180.19093537207112,40 L 180.22907835775234,40 L 181.71475571219779,40 L 181.75117876991968,40 L 183.2567427913948,40 L 183.33333333333334,40" fill="none" stroke="none"/>
  </g>
  <!-- 📊 Total Contributions Chart -->
  <g transform="translate(526.6666666666667, 250)">
    <!-- Chart Background -->
    <rect x="0" y="0" width="213.33333333333334" height="200" fill="#ffffff" stroke="#e2e8f0" stroke-width="1" rx="8" filter="url(#shadow)">
      <animate attributeName="opacity" values="0;1" dur="0.5s" begin="2.8s" fill="freeze"/>
    </rect>
    
    <!-- Chart Title -->
    <text x="106.66666666666667" y="25" text-anchor="middle" fill="#1e293b" font-size="14" font-weight="bold" font-family="Arial, sans-serif">
      📊 Total Contributions
      <animate attributeName="opacity" values="0;1" dur="0.5s" begin="3s" fill="freeze"/>
    </text>
    
    <!-- Y-axis labels -->
    <text x="10" y="45" fill="#64748b" font-size="10" font-family="Arial, sans-serif">5,314
      <animate attributeName="opacity" values="0;1" dur="0.5s" begin="3.1999999999999997s" fill="freeze"/>
    </text>
    <text x="10" y="185" fill="#64748b" font-size="10" font-family="Arial, sans-serif">4,408
      <animate attributeName="opacity" values="0;1" dur="0.5s" begin="3.1999999999999997s" fill="freeze"/>
    </text>
    
    <!-- Chart Line with draw animation that follows the circle -->
    <path d="M 30,160 L 30.028826709234885,160 L 30.06426439156341,160 L 31.554295313655892,160 L 31.584537380273968,160 L 31.606054395681735,160 L 33.10119135390345,160 L 33.12539575674766,160 L 33.15502868221348,160 L 34.6516705773996,160 L 34.70652911293547,160 L 36.19532383680719,160 L 36.224992594105494,160 L 36.252332282292215,160 L 37.74494309632368,160 L 37.77301733707636,160 L 37.8023277760498,160 L 39.29350531678183,160 L 39.32213495093804,160 L 39.35434776834284,160 L 40.840723843521765,160 L 40.870858414642385,160 L 40.90181711791018,160 L 42.39132847843162,160 L 42.420889740232454,160 L 42.449071476482594,160 L 43.94139563585417,160 L 43.962661828434534,160 L 43.99209767882168,160 L 45.48388436070597,160 L 45.51124196480893,160 L 45.54295313655893,160 L 47.0325182448291,160 L 47.059714605685876,160 L 47.08965210172782,160 L 48.580596735548696,160 L 48.60635982310603,160 L 48.63812474260476,160 L 50.12975018124286,160 L 50.155513268800206,160 L 50.17939518515203,160 L 51.68298845584042,160 L 51.70493545323802,160 L 51.73687953189918,160 L 53.22621173325818,160 L 53.251473175160726,160 L 53.27988781832202,160 L 54.773412344081876,160 L 54.7956639120556,160 L 54.829310002759826,160 L 56.319752990925906,160 L 56.3458743968081,160 L 56.377925970966714,160 L 57.86596822635623,160 L 57.890333872446625,160 L 57.9250011703767,160 L 59.40980064492625,160 L 59.44127890976509,160 L 59.473599222667346,160 L 60.96318224685375,160 L 60.988318277342586,160 L 61.01780787547847,160 L 62.513195656527586,160 L 62.54033826963563,160 L 62.57332147143888,160 L 64.05851509614577,160 L 64.09022626789576,160 L 64.12526980006695,160 L 65.60951388121296,160 L 65.63362870447595,160 L 65.66517863297976,160 L 67.15850608366094,160 L 67.18091889488085,160 L 67.21254048704964,160 L 68.70303722296444,160 L 68.72776118737968,160 L 68.75871989064748,160 L 70.25154569567385,160 L 70.27961993642654,160 L 71.80195325550503,160 L 71.82775217489487,160 L 71.85220740056647,160 L 73.35058713962816,160 L 73.3803096446752,160 L 73.41409906270937,160 L 74.88868646500045,160 L 74.9249303635599,160 L 74.95583531907897,160 L 76.4429638627401,160 L 76.46236680003119,160 L 76.49914817607794,160 L 77.99140067178453,160 L 78.0189195191337,160 L 78.04943032449542,160 L 79.54162907245329,160 L 79.56762506692179,160 L 79.59514391427095,160 L 81.08546149102331,160 L 81.1151302483216,160 L 81.1445481827925,160 L 82.63248294268458,160 L 82.65967930354135,160 L 82.69035135214926,160 L 84.18548831037097,160 L 84.21607077939765,160 L 84.24905398120092,160 L 85.73596753386713,160 L 85.75909698173675,160 L 85.81021109077784,160 L 87.28461933390649,160 L 87.30814293193347,160 L 87.33770419373431,160 L 88.82737679750193,160 L 88.85500314034854,160 L 88.88420608382452,160 L 90.37461324015811,160 L 90.40121837577887,160 L 90.43192625621927,160 L 91.92358752668986,160 L 91.95155427194507,160 L 91.97713820034,160 L 93.46937278013036,160 L 93.49703495480944,160 L 93.52609457095548,160 L 95.02420557127353,160 L 95.05335476700078,160 L 95.08382974053002,160 L 96.56628223005174,160 L 96.59559266902518,92.58278145695365 L 96.62599597888945,92.58278145695365 L 98.12048796412643,92.58278145695365 L 98.14130625880071,92.58278145695365 L 98.1696313223808,92.58278145695365 L 99.66263628656961,92.58278145695365 L 99.68255878543175,92.58278145695365 L 99.72063010744799,92.58278145695365 L 101.21277510765714,92.58278145695365 L 101.24156598505954,92.58278145695365 L 101.26591371523368,92.58278145695365 L 102.75465469135668,92.58278145695365 L 102.78727957483505,92.58278145695365 L 102.81902657841755,92.58278145695365 L 104.30973830532726,92.58278145695365 L 104.3247339272226,92.58278145695365 L 104.3631277357312,92.58278145695365 L 105.85733306630829,92.58278145695365 L 105.88730639418273,92.58278145695365 L 105.92227826268893,92.58278145695365 L 107.40519656603297,92.58278145695365 L 107.43165837432379,92.58278145695365 L 107.46749020680966,92.58278145695365 L 108.95028309874,92.58278145695365 L 108.98029225844692,92.58278145695365 L 109.01358003082629,92.58278145695365 L 110.50167603396453,92.58278145695365 L 110.5235334517809,92.58278145695365 L 110.55456381871367,92.58278145695365 L 112.04525762970715,92.58278145695365 L 112.07016075328482,92.58278145695365 L 112.10228399110841,92.58278145695365 L 113.59609517152815,92.58278145695365 L 113.62547727416657,92.58278145695365 L 113.6511149503102,92.58278145695365 L 115.14286580036202,92.58278145695365 L 115.17568775891908,92.58278145695365 L 115.19860221579378,92.58278145695365 L 116.69280754637087,92.58278145695365 L 116.7216880033545,92.58278145695365 L 116.75493994390138,92.58278145695365 L 118.24124435541533,92.58278145695365 L 118.26942609166547,92.58278145695365 L 118.3034484166108,92.58278145695365 L 119.78826580707658,92.58278145695365 L 119.81392139913648,92.58278145695365 L 119.8459371414626,92.58278145695365 L 121.33759841193319,92.58278145695365 L 121.36558307310466,92.58278145695365 L 121.39802879742061,92.58278145695365 L 122.88164582149813,92.58278145695365 L 122.91925132969205,92.58278145695365 L 122.94101916792721,92.58278145695365 L 124.42981389179894,92.58278145695365 L 124.45910641485612,92.58278145695365 L 124.48825561058338,92.58278145695365 L 125.97361047853647,92.58278145695365 L 126.00593079143873,92.58278145695365 L 126.03294799313306,92.58278145695365 L 127.11299108792221,92.58278145695365 L 127.52815661501975,92.58278145695365 L 127.56027985284335,92.58278145695365 L 127.59412301862623,92.58278145695365 L 129.075912619247,92.58278145695365 L 129.1040047759159,92.58278145695365 L 129.13689839813793,92.58278145695365 L 130.6219486955149,92.58278145695365 L 130.64360903825258,92.58278145695365 L 130.67994251639328,92.58278145695365 L 132.1719621051887,92.58278145695365 L 132.19901513871554,92.58278145695365 L 132.23047548763816,92.58278145695365 L 133.71998684815958,92.58278145695365 L 133.75246840430802,92.58278145695365 L 133.78593533584984,92.58278145695365 L 135.26604084034372,92.58278145695365 L 135.2937030150228,92.58278145695365 L 135.3301260727447,92.58278145695365 L 136.81829373954793,92.58278145695365 L 136.84188900123985,92.58278145695365 L 136.87094861738592,92.58278145695365 L 138.36492104105184,92.58278145695365 L 138.3984238044261,92.58278145695365 L 138.42979457376748,92.58278145695365 L 139.91196040862934,92.58278145695365 L 139.94211289566618,92.58278145695365 L 139.97597397736536,92.58278145695365 L 141.45770983023738,92.58278145695365 L 141.487109848792,92.58278145695365 L 141.52025429384145,92.58278145695365 L 143.00886985855072,92.58278145695365 L 143.0363528740674,92.58278145695365 L 143.06446294665255,92.58278145695365 L 144.55504926214857,92.58278145695365 L 144.58283684824136,92.58278145695365 L 144.6162321161182,92.58278145695365 L 146.0940802151655,92.58278145695365 L 146.13087950712847,92.58278145695365 L 146.16174863081505,92.58278145695365 L 147.65009545678072,92.58278145695365 L 147.67182746318338,92.58278145695365 L 147.71090207650923,92.58278145695365 L 149.19987595954336,92.58278145695365 L 149.23253667485426,92.58278145695365 L 149.26695314995692,92.58278145695365 L 150.75001478063092,92.58278145695365 L 150.77989852892412,92.58278145695365 L 150.8115559529254,92.58278145695365 L 152.2887769949042,92.58278145695365 L 152.32124063513638,92.58278145695365 L 152.35361469578737,92.58278145695365 L 153.84149570793068,92.58278145695365 L 153.87188110187873,92.58278145695365 L 153.90660214755752,92.58278145695365 L 155.38991460105888,92.58278145695365 L 155.41788134631412,92.58278145695365 L 155.4487504700007,92.58278145695365 L 156.93897846717186,92.58278145695365 L 156.958900966034,92.58278145695365 L 157.0078114173772,92.58278145695365 L 158.4842799908738,92.58278145695365 L 158.51443247791067,92.58278145695365 L 158.54417289887394,92.58278145695365 L 160.03508170086232,92.58278145695365 L 160.06931901680255,92.58278145695365 L 160.10047479514904,92.58278145695365 L 161.58226439576978,92.58278145695365 L 161.61241688280663,92.58278145695365 L 161.6471737603179,92.58278145695365 L 163.12808548104275,92.58278145695365 L 163.15771840650856,92.58278145695365 L 163.18471769228665,92.58278145695365 L 164.6783676294602,92.58278145695365 L 164.70898593031941,92.58278145695365 L 164.74051794290696,92.58278145695365 L 166.23096093107304,92.58278145695365 L 166.25976972439167,92.58278145695365 L 166.288184367553,92.58278145695365 L 167.77309133759996,92.58278145695365 L 167.8038887976216,40 L 167.8359762036127,40 L 169.32681334193612,40 L 169.34818703001392,40 L 169.37765871223354,40 L 170.87087866741726,40 L 170.89477849968534,40 L 170.93718547343238,40 L 172.42065917017996,40 L 172.45213743501878,40 L 172.47978169378163,40 L 173.96232376288458,40 L 173.99681190165222,40 L 174.03058340377015,40 L 175.51979019371547,40 L 175.53505455435445,40 L 175.57642240495937,40 L 177.0646259035951,40 L 177.09725078707348,40 L 177.13410382678518,40 L 178.61268647839844,40 L 178.64343019067132,40 L 178.68282729048954,40 L 180.15823882492776,40 L 180.19093537207112,40 L 180.22907835775234,40 L 181.71475571219779,40 L 181.75117876991968,40 L 183.2567427913948,40 L 183.33333333333334,40" stroke="#f59e0b" stroke-width="2" fill="none" stroke-dasharray="14850" stroke-dashoffset="14850">
      <animate attributeName="stroke-dashoffset" values="14850;0" dur="3s" begin="3.5999999999999996s" fill="freeze"/>
    </path>
    
    <!-- Glow effect for the line that also follows the circle -->
    <path d="M 30,160 L 30.028826709234885,160 L 30.06426439156341,160 L 31.554295313655892,160 L 31.584537380273968,160 L 31.606054395681735,160 L 33.10119135390345,160 L 33.12539575674766,160 L 33.15502868221348,160 L 34.6516705773996,160 L 34.70652911293547,160 L 36.19532383680719,160 L 36.224992594105494,160 L 36.252332282292215,160 L 37.74494309632368,160 L 37.77301733707636,160 L 37.8023277760498,160 L 39.29350531678183,160 L 39.32213495093804,160 L 39.35434776834284,160 L 40.840723843521765,160 L 40.870858414642385,160 L 40.90181711791018,160 L 42.39132847843162,160 L 42.420889740232454,160 L 42.449071476482594,160 L 43.94139563585417,160 L 43.962661828434534,160 L 43.99209767882168,160 L 45.48388436070597,160 L 45.51124196480893,160 L 45.54295313655893,160 L 47.0325182448291,160 L 47.059714605685876,160 L 47.08965210172782,160 L 48.580596735548696,160 L 48.60635982310603,160 L 48.63812474260476,160 L 50.12975018124286,160 L 50.155513268800206,160 L 50.17939518515203,160 L 51.68298845584042,160 L 51.70493545323802,160 L 51.73687953189918,160 L 53.22621173325818,160 L 53.251473175160726,160 L 53.27988781832202,160 L 54.773412344081876,160 L 54.7956639120556,160 L 54.829310002759826,160 L 56.319752990925906,160 L 56.3458743968081,160 L 56.377925970966714,160 L 57.86596822635623,160 L 57.890333872446625,160 L 57.9250011703767,160 L 59.40980064492625,160 L 59.44127890976509,160 L 59.473599222667346,160 L 60.96318224685375,160 L 60.988318277342586,160 L 61.01780787547847,160 L 62.513195656527586,160 L 62.54033826963563,160 L 62.57332147143888,160 L 64.05851509614577,160 L 64.09022626789576,160 L 64.12526980006695,160 L 65.60951388121296,160 L 65.63362870447595,160 L 65.66517863297976,160 L 67.15850608366094,160 L 67.18091889488085,160 L 67.21254048704964,160 L 68.70303722296444,160 L 68.72776118737968,160 L 68.75871989064748,160 L 70.25154569567385,160 L 70.27961993642654,160 L 71.80195325550503,160 L 71.82775217489487,160 L 71.85220740056647,160 L 73.35058713962816,160 L 73.3803096446752,160 L 73.41409906270937,160 L 74.88868646500045,160 L 74.9249303635599,160 L 74.95583531907897,160 L 76.4429638627401,160 L 76.46236680003119,160 L 76.49914817607794,160 L 77.99140067178453,160 L 78.0189195191337,160 L 78.04943032449542,160 L 79.54162907245329,160 L 79.56762506692179,160 L 79.59514391427095,160 L 81.08546149102331,160 L 81.1151302483216,160 L 81.1445481827925,160 L 82.63248294268458,160 L 82.65967930354135,160 L 82.69035135214926,160 L 84.18548831037097,160 L 84.21607077939765,160 L 84.24905398120092,160 L 85.73596753386713,160 L 85.75909698173675,160 L 85.81021109077784,160 L 87.28461933390649,160 L 87.30814293193347,160 L 87.33770419373431,160 L 88.82737679750193,160 L 88.85500314034854,160 L 88.88420608382452,160 L 90.37461324015811,160 L 90.40121837577887,160 L 90.43192625621927,160 L 91.92358752668986,160 L 91.95155427194507,160 L 91.97713820034,160 L 93.46937278013036,160 L 93.49703495480944,160 L 93.52609457095548,160 L 95.02420557127353,160 L 95.05335476700078,160 L 95.08382974053002,160 L 96.56628223005174,160 L 96.59559266902518,92.58278145695365 L 96.62599597888945,92.58278145695365 L 98.12048796412643,92.58278145695365 L 98.14130625880071,92.58278145695365 L 98.1696313223808,92.58278145695365 L 99.66263628656961,92.58278145695365 L 99.68255878543175,92.58278145695365 L 99.72063010744799,92.58278145695365 L 101.21277510765714,92.58278145695365 L 101.24156598505954,92.58278145695365 L 101.26591371523368,92.58278145695365 L 102.75465469135668,92.58278145695365 L 102.78727957483505,92.58278145695365 L 102.81902657841755,92.58278145695365 L 104.30973830532726,92.58278145695365 L 104.3247339272226,92.58278145695365 L 104.3631277357312,92.58278145695365 L 105.85733306630829,92.58278145695365 L 105.88730639418273,92.58278145695365 L 105.92227826268893,92.58278145695365 L 107.40519656603297,92.58278145695365 L 107.43165837432379,92.58278145695365 L 107.46749020680966,92.58278145695365 L 108.95028309874,92.58278145695365 L 108.98029225844692,92.58278145695365 L 109.01358003082629,92.58278145695365 L 110.50167603396453,92.58278145695365 L 110.5235334517809,92.58278145695365 L 110.55456381871367,92.58278145695365 L 112.04525762970715,92.58278145695365 L 112.07016075328482,92.58278145695365 L 112.10228399110841,92.58278145695365 L 113.59609517152815,92.58278145695365 L 113.62547727416657,92.58278145695365 L 113.6511149503102,92.58278145695365 L 115.14286580036202,92.58278145695365 L 115.17568775891908,92.58278145695365 L 115.19860221579378,92.58278145695365 L 116.69280754637087,92.58278145695365 L 116.7216880033545,92.58278145695365 L 116.75493994390138,92.58278145695365 L 118.24124435541533,92.58278145695365 L 118.26942609166547,92.58278145695365 L 118.3034484166108,92.58278145695365 L 119.78826580707658,92.58278145695365 L 119.81392139913648,92.58278145695365 L 119.8459371414626,92.58278145695365 L 121.33759841193319,92.58278145695365 L 121.36558307310466,92.58278145695365 L 121.39802879742061,92.58278145695365 L 122.88164582149813,92.58278145695365 L 122.91925132969205,92.58278145695365 L 122.94101916792721,92.58278145695365 L 124.42981389179894,92.58278145695365 L 124.45910641485612,92.58278145695365 L 124.48825561058338,92.58278145695365 L 125.97361047853647,92.58278145695365 L 126.00593079143873,92.58278145695365 L 126.03294799313306,92.58278145695365 L 127.11299108792221,92.58278145695365 L 127.52815661501975,92.58278145695365 L 127.56027985284335,92.58278145695365 L 127.59412301862623,92.58278145695365 L 129.075912619247,92.58278145695365 L 129.1040047759159,92.58278145695365 L 129.13689839813793,92.58278145695365 L 130.6219486955149,92.58278145695365 L 130.64360903825258,92.58278145695365 L 130.67994251639328,92.58278145695365 L 132.1719621051887,92.58278145695365 L 132.19901513871554,92.58278145695365 L 132.23047548763816,92.58278145695365 L 133.71998684815958,92.58278145695365 L 133.75246840430802,92.58278145695365 L 133.78593533584984,92.58278145695365 L 135.26604084034372,92.58278145695365 L 135.2937030150228,92.58278145695365 L 135.3301260727447,92.58278145695365 L 136.81829373954793,92.58278145695365 L 136.84188900123985,92.58278145695365 L 136.87094861738592,92.58278145695365 L 138.36492104105184,92.58278145695365 L 138.3984238044261,92.58278145695365 L 138.42979457376748,92.58278145695365 L 139.91196040862934,92.58278145695365 L 139.94211289566618,92.58278145695365 L 139.97597397736536,92.58278145695365 L 141.45770983023738,92.58278145695365 L 141.487109848792,92.58278145695365 L 141.52025429384145,92.58278145695365 L 143.00886985855072,92.58278145695365 L 143.0363528740674,92.58278145695365 L 143.06446294665255,92.58278145695365 L 144.55504926214857,92.58278145695365 L 144.58283684824136,92.58278145695365 L 144.6162321161182,92.58278145695365 L 146.0940802151655,92.58278145695365 L 146.13087950712847,92.58278145695365 L 146.16174863081505,92.58278145695365 L 147.65009545678072,92.58278145695365 L 147.67182746318338,92.58278145695365 L 147.71090207650923,92.58278145695365 L 149.19987595954336,92.58278145695365 L 149.23253667485426,92.58278145695365 L 149.26695314995692,92.58278145695365 L 150.75001478063092,92.58278145695365 L 150.77989852892412,92.58278145695365 L 150.8115559529254,92.58278145695365 L 152.2887769949042,92.58278145695365 L 152.32124063513638,92.58278145695365 L 152.35361469578737,92.58278145695365 L 153.84149570793068,92.58278145695365 L 153.87188110187873,92.58278145695365 L 153.90660214755752,92.58278145695365 L 155.38991460105888,92.58278145695365 L 155.41788134631412,92.58278145695365 L 155.4487504700007,92.58278145695365 L 156.93897846717186,92.58278145695365 L 156.958900966034,92.58278145695365 L 157.0078114173772,92.58278145695365 L 158.4842799908738,92.58278145695365 L 158.51443247791067,92.58278145695365 L 158.54417289887394,92.58278145695365 L 160.03508170086232,92.58278145695365 L 160.06931901680255,92.58278145695365 L 160.10047479514904,92.58278145695365 L 161.58226439576978,92.58278145695365 L 161.61241688280663,92.58278145695365 L 161.6471737603179,92.58278145695365 L 163.12808548104275,92.58278145695365 L 163.15771840650856,92.58278145695365 L 163.18471769228665,92.58278145695365 L 164.6783676294602,92.58278145695365 L 164.70898593031941,92.58278145695365 L 164.74051794290696,92.58278145695365 L 166.23096093107304,92.58278145695365 L 166.25976972439167,92.58278145695365 L 166.288184367553,92.58278145695365 L 167.77309133759996,92.58278145695365 L 167.8038887976216,40 L 167.8359762036127,40 L 169.32681334193612,40 L 169.34818703001392,40 L 169.37765871223354,40 L 170.87087866741726,40 L 170.89477849968534,40 L 170.93718547343238,40 L 172.42065917017996,40 L 172.45213743501878,40 L 172.47978169378163,40 L 173.96232376288458,40 L 173.99681190165222,40 L 174.03058340377015,40 L 175.51979019371547,40 L 175.53505455435445,40 L 175.57642240495937,40 L 177.0646259035951,40 L 177.09725078707348,40 L 177.13410382678518,40 L 178.61268647839844,40 L 178.64343019067132,40 L 178.68282729048954,40 L 180.15823882492776,40 L 180.19093537207112,40 L 180.22907835775234,40 L 181.71475571219779,40 L 181.75117876991968,40 L 183.2567427913948,40 L 183.33333333333334,40" stroke="#f59e0b" stroke-width="4" fill="none" opacity="0.4" stroke-dasharray="14850" stroke-dashoffset="14850">
      <animate attributeName="stroke-dashoffset" values="14850;0" dur="3s" begin="3.5999999999999996s" fill="freeze"/>
    </path>
    
    <!-- Animated circle that moves along the path and draws the line -->
    <circle r="5" fill="#f59e0b" opacity="0" filter="url(#trailGlow)">
      <animate attributeName="opacity" values="0;1;1;1" dur="3.2s" begin="3.4s" fill="freeze"/>
      <animate attributeName="r" values="5;6;5" dur="1s" begin="3.4s" repeatCount="3"/>
      <animateMotion dur="3s" begin="3.4s" fill="freeze">
        <mpath href="#path_totalContributions_526.6666666666667"/>
      </animateMotion>
    </circle>
    
    <!-- Small trail dots that fade out -->
    <circle r="2" fill="#f59e0b" opacity="0">
      <animate attributeName="opacity" values="0;0.6;0" dur="0.8s" begin="3.8s" fill="freeze"/>
      <animateMotion dur="3s" begin="3.4s" fill="freeze">
        <mpath href="#path_totalContributions_526.6666666666667"/>
      </animateMotion>
    </circle>
    
    <!-- Hidden path for motion animation -->
    <path id="path_totalContributions_526.6666666666667" d="M 30,160 L 30.028826709234885,160 L 30.06426439156341,160 L 31.554295313655892,160 L 31.584537380273968,160 L 31.606054395681735,160 L 33.10119135390345,160 L 33.12539575674766,160 L 33.15502868221348,160 L 34.6516705773996,160 L 34.70652911293547,160 L 36.19532383680719,160 L 36.224992594105494,160 L 36.252332282292215,160 L 37.74494309632368,160 L 37.77301733707636,160 L 37.8023277760498,160 L 39.29350531678183,160 L 39.32213495093804,160 L 39.35434776834284,160 L 40.840723843521765,160 L 40.870858414642385,160 L 40.90181711791018,160 L 42.39132847843162,160 L 42.420889740232454,160 L 42.449071476482594,160 L 43.94139563585417,160 L 43.962661828434534,160 L 43.99209767882168,160 L 45.48388436070597,160 L 45.51124196480893,160 L 45.54295313655893,160 L 47.0325182448291,160 L 47.059714605685876,160 L 47.08965210172782,160 L 48.580596735548696,160 L 48.60635982310603,160 L 48.63812474260476,160 L 50.12975018124286,160 L 50.155513268800206,160 L 50.17939518515203,160 L 51.68298845584042,160 L 51.70493545323802,160 L 51.73687953189918,160 L 53.22621173325818,160 L 53.251473175160726,160 L 53.27988781832202,160 L 54.773412344081876,160 L 54.7956639120556,160 L 54.829310002759826,160 L 56.319752990925906,160 L 56.3458743968081,160 L 56.377925970966714,160 L 57.86596822635623,160 L 57.890333872446625,160 L 57.9250011703767,160 L 59.40980064492625,160 L 59.44127890976509,160 L 59.473599222667346,160 L 60.96318224685375,160 L 60.988318277342586,160 L 61.01780787547847,160 L 62.513195656527586,160 L 62.54033826963563,160 L 62.57332147143888,160 L 64.05851509614577,160 L 64.09022626789576,160 L 64.12526980006695,160 L 65.60951388121296,160 L 65.63362870447595,160 L 65.66517863297976,160 L 67.15850608366094,160 L 67.18091889488085,160 L 67.21254048704964,160 L 68.70303722296444,160 L 68.72776118737968,160 L 68.75871989064748,160 L 70.25154569567385,160 L 70.27961993642654,160 L 71.80195325550503,160 L 71.82775217489487,160 L 71.85220740056647,160 L 73.35058713962816,160 L 73.3803096446752,160 L 73.41409906270937,160 L 74.88868646500045,160 L 74.9249303635599,160 L 74.95583531907897,160 L 76.4429638627401,160 L 76.46236680003119,160 L 76.49914817607794,160 L 77.99140067178453,160 L 78.0189195191337,160 L 78.04943032449542,160 L 79.54162907245329,160 L 79.56762506692179,160 L 79.59514391427095,160 L 81.08546149102331,160 L 81.1151302483216,160 L 81.1445481827925,160 L 82.63248294268458,160 L 82.65967930354135,160 L 82.69035135214926,160 L 84.18548831037097,160 L 84.21607077939765,160 L 84.24905398120092,160 L 85.73596753386713,160 L 85.75909698173675,160 L 85.81021109077784,160 L 87.28461933390649,160 L 87.30814293193347,160 L 87.33770419373431,160 L 88.82737679750193,160 L 88.85500314034854,160 L 88.88420608382452,160 L 90.37461324015811,160 L 90.40121837577887,160 L 90.43192625621927,160 L 91.92358752668986,160 L 91.95155427194507,160 L 91.97713820034,160 L 93.46937278013036,160 L 93.49703495480944,160 L 93.52609457095548,160 L 95.02420557127353,160 L 95.05335476700078,160 L 95.08382974053002,160 L 96.56628223005174,160 L 96.59559266902518,92.58278145695365 L 96.62599597888945,92.58278145695365 L 98.12048796412643,92.58278145695365 L 98.14130625880071,92.58278145695365 L 98.1696313223808,92.58278145695365 L 99.66263628656961,92.58278145695365 L 99.68255878543175,92.58278145695365 L 99.72063010744799,92.58278145695365 L 101.21277510765714,92.58278145695365 L 101.24156598505954,92.58278145695365 L 101.26591371523368,92.58278145695365 L 102.75465469135668,92.58278145695365 L 102.78727957483505,92.58278145695365 L 102.81902657841755,92.58278145695365 L 104.30973830532726,92.58278145695365 L 104.3247339272226,92.58278145695365 L 104.3631277357312,92.58278145695365 L 105.85733306630829,92.58278145695365 L 105.88730639418273,92.58278145695365 L 105.92227826268893,92.58278145695365 L 107.40519656603297,92.58278145695365 L 107.43165837432379,92.58278145695365 L 107.46749020680966,92.58278145695365 L 108.95028309874,92.58278145695365 L 108.98029225844692,92.58278145695365 L 109.01358003082629,92.58278145695365 L 110.50167603396453,92.58278145695365 L 110.5235334517809,92.58278145695365 L 110.55456381871367,92.58278145695365 L 112.04525762970715,92.58278145695365 L 112.07016075328482,92.58278145695365 L 112.10228399110841,92.58278145695365 L 113.59609517152815,92.58278145695365 L 113.62547727416657,92.58278145695365 L 113.6511149503102,92.58278145695365 L 115.14286580036202,92.58278145695365 L 115.17568775891908,92.58278145695365 L 115.19860221579378,92.58278145695365 L 116.69280754637087,92.58278145695365 L 116.7216880033545,92.58278145695365 L 116.75493994390138,92.58278145695365 L 118.24124435541533,92.58278145695365 L 118.26942609166547,92.58278145695365 L 118.3034484166108,92.58278145695365 L 119.78826580707658,92.58278145695365 L 119.81392139913648,92.58278145695365 L 119.8459371414626,92.58278145695365 L 121.33759841193319,92.58278145695365 L 121.36558307310466,92.58278145695365 L 121.39802879742061,92.58278145695365 L 122.88164582149813,92.58278145695365 L 122.91925132969205,92.58278145695365 L 122.94101916792721,92.58278145695365 L 124.42981389179894,92.58278145695365 L 124.45910641485612,92.58278145695365 L 124.48825561058338,92.58278145695365 L 125.97361047853647,92.58278145695365 L 126.00593079143873,92.58278145695365 L 126.03294799313306,92.58278145695365 L 127.11299108792221,92.58278145695365 L 127.52815661501975,92.58278145695365 L 127.56027985284335,92.58278145695365 L 127.59412301862623,92.58278145695365 L 129.075912619247,92.58278145695365 L 129.1040047759159,92.58278145695365 L 129.13689839813793,92.58278145695365 L 130.6219486955149,92.58278145695365 L 130.64360903825258,92.58278145695365 L 130.67994251639328,92.58278145695365 L 132.1719621051887,92.58278145695365 L 132.19901513871554,92.58278145695365 L 132.23047548763816,92.58278145695365 L 133.71998684815958,92.58278145695365 L 133.75246840430802,92.58278145695365 L 133.78593533584984,92.58278145695365 L 135.26604084034372,92.58278145695365 L 135.2937030150228,92.58278145695365 L 135.3301260727447,92.58278145695365 L 136.81829373954793,92.58278145695365 L 136.84188900123985,92.58278145695365 L 136.87094861738592,92.58278145695365 L 138.36492104105184,92.58278145695365 L 138.3984238044261,92.58278145695365 L 138.42979457376748,92.58278145695365 L 139.91196040862934,92.58278145695365 L 139.94211289566618,92.58278145695365 L 139.97597397736536,92.58278145695365 L 141.45770983023738,92.58278145695365 L 141.487109848792,92.58278145695365 L 141.52025429384145,92.58278145695365 L 143.00886985855072,92.58278145695365 L 143.0363528740674,92.58278145695365 L 143.06446294665255,92.58278145695365 L 144.55504926214857,92.58278145695365 L 144.58283684824136,92.58278145695365 L 144.6162321161182,92.58278145695365 L 146.0940802151655,92.58278145695365 L 146.13087950712847,92.58278145695365 L 146.16174863081505,92.58278145695365 L 147.65009545678072,92.58278145695365 L 147.67182746318338,92.58278145695365 L 147.71090207650923,92.58278145695365 L 149.19987595954336,92.58278145695365 L 149.23253667485426,92.58278145695365 L 149.26695314995692,92.58278145695365 L 150.75001478063092,92.58278145695365 L 150.77989852892412,92.58278145695365 L 150.8115559529254,92.58278145695365 L 152.2887769949042,92.58278145695365 L 152.32124063513638,92.58278145695365 L 152.35361469578737,92.58278145695365 L 153.84149570793068,92.58278145695365 L 153.87188110187873,92.58278145695365 L 153.90660214755752,92.58278145695365 L 155.38991460105888,92.58278145695365 L 155.41788134631412,92.58278145695365 L 155.4487504700007,92.58278145695365 L 156.93897846717186,92.58278145695365 L 156.958900966034,92.58278145695365 L 157.0078114173772,92.58278145695365 L 158.4842799908738,92.58278145695365 L 158.51443247791067,92.58278145695365 L 158.54417289887394,92.58278145695365 L 160.03508170086232,92.58278145695365 L 160.06931901680255,92.58278145695365 L 160.10047479514904,92.58278145695365 L 161.58226439576978,92.58278145695365 L 161.61241688280663,92.58278145695365 L 161.6471737603179,92.58278145695365 L 163.12808548104275,92.58278145695365 L 163.15771840650856,92.58278145695365 L 163.18471769228665,92.58278145695365 L 164.6783676294602,92.58278145695365 L 164.70898593031941,92.58278145695365 L 164.74051794290696,92.58278145695365 L 166.23096093107304,92.58278145695365 L 166.25976972439167,92.58278145695365 L 166.288184367553,92.58278145695365 L 167.77309133759996,92.58278145695365 L 167.8038887976216,40 L 167.8359762036127,40 L 169.32681334193612,40 L 169.34818703001392,40 L 169.37765871223354,40 L 170.87087866741726,40 L 170.89477849968534,40 L 170.93718547343238,40 L 172.42065917017996,40 L 172.45213743501878,40 L 172.47978169378163,40 L 173.96232376288458,40 L 173.99681190165222,40 L 174.03058340377015,40 L 175.51979019371547,40 L 175.53505455435445,40 L 175.57642240495937,40 L 177.0646259035951,40 L 177.09725078707348,40 L 177.13410382678518,40 L 178.61268647839844,40 L 178.64343019067132,40 L 178.68282729048954,40 L 180.15823882492776,40 L 180.19093537207112,40 L 180.22907835775234,40 L 181.71475571219779,40 L 181.75117876991968,40 L 183.2567427913948,40 L 183.33333333333334,40" fill="none" stroke="none"/>
  </g>
  
  <!-- Footer -->
  <text x="400" y="580" text-anchor="middle" fill="#94a3b8" font-size="12" font-family="Arial, sans-serif">
    Generated by GitHub User Rank Tracker • 2/2/2026
    <animate attributeName="opacity" values="0;1" dur="0.5s" begin="5s" fill="freeze"/>
  </text>
</svg>