<svg width="800" height="600" xmlns="http://www.w3.org/2000/svg">
  <defs>
    <linearGradient id="bgGradient" x1="0%" y1="0%" x2="100%" y2="100%">
      <stop offset="0%" style="stop-color:#f8fafc;stop-opacity:1" />
      <stop offset="100%" style="stop-color:#e2e8f0;stop-opacity:1" />
    </linearGradient>
    <filter id="shadow" x="-20%" y="-20%" width="140%" height="140%">
      <feDropShadow dx="2" dy="2" stdDeviation="3" flood-color="#00000020" flood-opacity="0.1"/>
    </filter>
    <!-- Trail effect filter -->
    <filter id="trailGlow" x="-50%" y="-50%" width="200%" height="200%">
      <feGaussianBlur stdDeviation="3" result="coloredBlur"/>
      <feMerge> 
        <feMergeNode in="coloredBlur"/>
        <feMergeNode in="SourceGraphic"/>
      </feMerge>
    </filter>
  </defs>
  
  <!-- Background -->
  <rect width="800" height="600" fill="url(#bgGradient)" rx="12"/>
  
  <!-- Header -->
  <text x="400" y="40" text-anchor="middle" fill="#0f172a" font-size="24" font-weight="bold" font-family="Arial, sans-serif">
    GitHub Progress Report
    <animate attributeName="opacity" values="0;1" dur="0.8s" begin="0s" fill="freeze"/>
    <animateTransform attributeName="transform" type="translate" values="0,-20;0,0" dur="0.8s" begin="0s" fill="freeze"/>
  </text>
  
  <!-- User Info -->
  <text x="400" y="70" text-anchor="middle" fill="#475569" font-size="16" font-family="Arial, sans-serif">
    @maifeeulasad • BANGLADESH • 100 days analyzed
    <animate attributeName="opacity" values="0;1" dur="0.6s" begin="0.3s" fill="freeze"/>
  </text>
  
  <!-- Progress Cards -->
  <!-- Followers Card -->
  <g transform="translate(60, 100)">
    <rect width="206.66666666666666" height="120" fill="#ffffff" stroke="#e2e8f0" stroke-width="1" rx="8" filter="url(#shadow)">
      <animate attributeName="opacity" values="0;1" dur="0.6s" begin="0.2s" fill="freeze"/>
      <animateTransform attributeName="transform" type="scale" values="0.8;1" dur="0.6s" begin="0.2s" fill="freeze"/>
    </rect>
    <text x="103.33333333333333" y="25" text-anchor="middle" fill="#64748b" font-size="14" font-weight="bold" font-family="Arial, sans-serif">FOLLOWERS
      <animate attributeName="opacity" values="0;1" dur="0.5s" begin="0.4s" fill="freeze"/>
    </text>
    
    <text x="103.33333333333333" y="50" text-anchor="middle" fill="#ef4444" font-size="32" font-weight="bold" font-family="Arial, sans-serif">
      ↘
      <animate attributeName="opacity" values="0;1" dur="0.5s" begin="0.6s" fill="freeze"/>
      <animateTransform attributeName="transform" type="scale" values="0;1.2;1" dur="0.8s" begin="0.6s" fill="freeze"/>
    </text>
    
    <text x="103.33333333333333" y="75" text-anchor="middle" fill="#1e293b" font-size="18" font-weight="bold" font-family="Arial, sans-serif">
      -14
      <animate attributeName="opacity" values="0;1" dur="0.5s" begin="0.8s" fill="freeze"/>
    </text>
    
    <text x="103.33333333333333" y="95" text-anchor="middle" fill="#64748b" font-size="12" font-family="Arial, sans-serif">
      #458 → #472
      <animate attributeName="opacity" values="0;1" dur="0.5s" begin="1s" fill="freeze"/>
    </text>
  </g>
  
  <!-- Public Contributions Card -->
  <g transform="translate(296.66666666666663, 100)">
    <rect width="206.66666666666666" height="120" fill="#ffffff" stroke="#e2e8f0" stroke-width="1" rx="8" filter="url(#shadow)">
      <animate attributeName="opacity" values="0;1" dur="0.6s" begin="0.4s" fill="freeze"/>
      <animateTransform attributeName="transform" type="scale" values="0.8;1" dur="0.6s" begin="0.4s" fill="freeze"/>
    </rect>
    <text x="103.33333333333333" y="25" text-anchor="middle" fill="#64748b" font-size="14" font-weight="bold" font-family="Arial, sans-serif">PUBLIC
      <animate attributeName="opacity" values="0;1" dur="0.5s" begin="0.6s" fill="freeze"/>
    </text>
    
    <text x="103.33333333333333" y="50" text-anchor="middle" fill="#6b7280" font-size="32" font-weight="bold" font-family="Arial, sans-serif">
      →
      <animate attributeName="opacity" values="0;1" dur="0.5s" begin="0.8s" fill="freeze"/>
      <animateTransform attributeName="transform" type="scale" values="0;1.2;1" dur="0.8s" begin="0.8s" fill="freeze"/>
    </text>
    
    <text x="103.33333333333333" y="75" text-anchor="middle" fill="#1e293b" font-size="18" font-weight="bold" font-family="Arial, sans-serif">
      0
      <animate attributeName="opacity" values="0;1" dur="0.5s" begin="1s" fill="freeze"/>
    </text>
    
    <text x="103.33333333333333" y="95" text-anchor="middle" fill="#64748b" font-size="12" font-family="Arial, sans-serif">
      #6 → #6
      <animate attributeName="opacity" values="0;1" dur="0.5s" begin="1.2s" fill="freeze"/>
    </text>
  </g>
  
  <!-- Total Contributions Card -->
  <g transform="translate(533.3333333333333, 100)">
    <rect width="206.66666666666666" height="120" fill="#ffffff" stroke="#e2e8f0" stroke-width="1" rx="8" filter="url(#shadow)">
      <animate attributeName="opacity" values="0;1" dur="0.6s" begin="0.6s" fill="freeze"/>
      <animateTransform attributeName="transform" type="scale" values="0.8;1" dur="0.6s" begin="0.6s" fill="freeze"/>
    </rect>
    <text x="103.33333333333333" y="25" text-anchor="middle" fill="#64748b" font-size="14" font-weight="bold" font-family="Arial, sans-serif">TOTAL
      <animate attributeName="opacity" values="0;1" dur="0.5s" begin="0.8s" fill="freeze"/>
    </text>
    
    <text x="103.33333333333333" y="50" text-anchor="middle" fill="#22c55e" font-size="32" font-weight="bold" font-family="Arial, sans-serif">
      ↗
      <animate attributeName="opacity" values="0;1" dur="0.5s" begin="1s" fill="freeze"/>
      <animateTransform attributeName="transform" type="scale" values="0;1.2;1" dur="0.8s" begin="1s" fill="freeze"/>
    </text>
    
    <text x="103.33333333333333" y="75" text-anchor="middle" fill="#1e293b" font-size="18" font-weight="bold" font-family="Arial, sans-serif">
      +5
      <animate attributeName="opacity" values="0;1" dur="0.5s" begin="1.2s" fill="freeze"/>
    </text>
    
    <text x="103.33333333333333" y="95" text-anchor="middle" fill="#64748b" font-size="12" font-family="Arial, sans-serif">
      #18 → #13
      <animate attributeName="opacity" values="0;1" dur="0.5s" begin="1.4s" fill="freeze"/>
    </text>
  </g>
  
  <!-- Timeline Charts (if we have snapshots) -->
  
  <!-- 👥 Followers Count Chart -->
  <g transform="translate(60, 250)">
    <!-- Chart Background -->
    <rect x="0" y="0" width="213.33333333333334" height="200" fill="#ffffff" stroke="#e2e8f0" stroke-width="1" rx="8" filter="url(#shadow)">
      <animate attributeName="opacity" values="0;1" dur="0.5s" begin="1.8s" fill="freeze"/>
    </rect>
    
    <!-- Chart Title -->
    <text x="106.66666666666667" y="25" text-anchor="middle" fill="#1e293b" font-size="14" font-weight="bold" font-family="Arial, sans-serif">
      👥 Followers Count
      <animate attributeName="opacity" values="0;1" dur="0.5s" begin="2s" fill="freeze"/>
    </text>
    
    <!-- Y-axis labels -->
    <text x="10" y="45" fill="#64748b" font-size="10" font-family="Arial, sans-serif">153
      <animate attributeName="opacity" values="0;1" dur="0.5s" begin="2.2s" fill="freeze"/>
    </text>
    <text x="10" y="185" fill="#64748b" font-size="10" font-family="Arial, sans-serif">149
      <animate attributeName="opacity" values="0;1" dur="0.5s" begin="2.2s" fill="freeze"/>
    </text>
    
    <!-- Chart Line with draw animation that follows the circle -->
    <path d="M 30,160 L 30.02313215880738,160 L 30.074252258789908,160 L 31.548833313175564,160 L 31.572359668337523,160 L 31.601924394930993,160 L 33.091771599048556,160 L 33.11940117990136,160 L 33.148607546172485,160 L 34.639189388950854,160 L 34.66579764288498,160 L 34.69650912250996,160 L 36.18834522641653,160 L 36.216315249575565,160 L 36.24190217659101,160 L 37.734311657013336,160 L 37.76197707389838,160 L 37.79104009604057,160 L 39.28932668574936,160 L 39.31847929797213,160 L 39.34895784338758,160 L 40.83158408700989,160 L 40.86089796137772,130 L 40.8913048347287,130 L 42.3859719851818,130 L 42.40679271991005,130 L 42.43512110339143,130 L 43.928301058506804,130 L 43.94822589242919,130 L 43.98630167667836,130 L 45.4786215670201,130 L 45.50741581892053,130 L 45.53176640282388,130 L 47.020681870103346,130 L 47.05331057745286,130 L 47.08506130201265,130 L 48.575947751065,130 L 48.59094513055515,130 L 48.62934343909443,130 L 50.12372390128965,130 L 50.15370074225382,130 L 50.1886767097147,130 L 51.67176882175606,130 L 51.698233731561245,130 L 51.73406976379575,130 L 53.21703644972429,130 L 53.24704912672069,130 L 53.28034080066655,130 L 54.768611219365795,130 L 54.79047119902884,130 L 54.82150520294393,130 L 56.31237373398017,130 L 56.337279776383156,130 L 56.3694067792814,130 L 57.863393045122045,130 L 57.89277859155435,130 L 57.91841927261814,130 L 59.410344966605294,130 L 59.44317077213211,130 L 59.46608791474608,130 L 60.96046837694131,130 L 60.98935221892232,130 L 61.02260805683595,130 L 62.50908667392346,130 L 62.537271713275906,130 L 62.57129802588258,130 L 64.05628944763237,130 L 64.08194804671227,130 L 64.1139675415138,130 L 65.60580364542038,130 L 65.63379158659554,130 L 65.66624111378388,130 L 67.15003202845381,130 L 67.18764194428394,130 L 67.2094123338664,130 L 68.6983815551942,130 L 68.72767751154592,130 L 68.75683012376871,130 L 70.24235908600201,130 L 70.27468318707753,130 L 70.30170355538235,130 L 71.38187323899498,130 L 71.79708742648015,130 L 71.82921442937838,130 L 71.86306156182388,130 L 73.34502483884984,130 L 73.3731202881217,130 L 73.40601776571299,130 L 74.89124212167229,130 L 74.91290500315806,130 L 74.94924273984384,130 L 76.44143720407277,130 L 76.46849340840983,130 L 76.49995744471173,130 L 77.98964338668424,130 L 78.02212874990482,130 L 78.05559960401186,130 L 79.5358785875228,130 L 79.56354400440783,130 L 79.59997133117422,130 L 81.08831342193793,130 L 81.11191144916435,130 L 81.14097447130655,130 L 82.63512199929224,130 L 82.6686286894315,130 L 82.70000313565282,130 L 84.18234269101725,130 L 84.21249871214259,130 L 84.2463637626042,130 L 85.72827328558182,130 L 85.75767675003024,130 L 85.79082507984717,130 L 87.2796151210138,130 L 87.30710135773768,130 L 87.33521472502565,130 L 88.82597574796519,130 L 88.85376659096306,130 L 88.88716577300562,130 L 90.36518708648579,130 L 90.40199069159063,130 L 90.43286343336067,130 L 91.92138470428554,130 L 91.94311925783578,130 L 91.98219845098751,130 L 93.4713468524765,130 L 93.50401139585824,130 L 93.5384319048195,130 L 95.0216673609898,130 L 95.05155461187337,130 L 95.08321574635256,130 L 96.56060992926864,130 L 96.5930773744731,130 L 96.62545522959698,130 L 98.11351063210282,130 L 98.14389958743769,130 L 98.17862470267293,130 L 99.66211101106886,130 L 99.6900810342279,130 L 99.72095377599793,130 L 101.21135643861513,130 L 101.2312812725375,130 L 101.28019745653762,130 L 102.75683908277676,130 L 102.7869951039021,130 L 102.81673901065675,130 L 104.3078225578864,130 L 104.34206388668647,130 L 104.37322331671437,130 L 105.85518659374034,130 L 105.88534261486569,130 L 105.92010356613316,130 L 107.40118886036939,130 L 107.43082525902732,130 L 107.45782770931602,130 L 108.95165271301161,130 L 108.98227460255602,130 L 109.01381031092238,130 L 110.50442798973299,130 L 110.53324015964954,130 L 110.56165813321151,130 L 112.04673914504187,130 L 112.07754021474743,40 L 112.10963138161343,40 L 113.60064325677862,40 L 113.6220194500065,40 L 113.65149458651938,40 L 115.14488955782815,40 L 115.16879219132858,40 L 115.21120413547813,40 L 116.69485170601911,40 L 116.72633366033713,40 L 116.75398115920606,40 L 118.23669699290895,40 L 118.27118917393467,40 L 118.30496463431571,40 L 119.79434597001419,40 L 119.8096121197461,40 L 119.85098481896085,40 L 121.3393627457568,40 L 121.37199145310632,40 L 121.40884881225952,40 L 122.88760476440049,40 L 122.9183520800577,40 L 122.95775379749955,40 L 124.43333826078776,40 L 124.46603864020176,40 L 124.50418609651541,40 L 125.9900375830388,40 L 126.0264649098052,40 L 127.53220539421875,40 L 127.60880491312004,40 L 129.08057283897529,40 L 129.11864862322443,40 L 129.15478926173296,40 L 130.6283131531677,40 L 130.66843159125423,40 L 130.6960432540909,40 L 132.17970874264802,40 L 132.21328710485176,40 L 132.25098661076248,40 L 133.72237825827926,40 L 133.7559387024669,40 L 133.79369196242595,40 L 135.2728600289376,40 L 135.30584709660945,40 L 135.34123517844105,40 L 136.82644161638424,40 L 136.8697852973719,40 L 138.4087995377152,40 L 138.44983179462372,40 L 139.92616881458886,40 L 139.95999802901824,40 L 141.47833487876224,40 L 141.5071470486788,40 L 141.55459395535726,40 L 143.0145897446235,40 L 143.04755889427923,40 L 143.08285738603024,40 L 144.56456981083056,40 L 144.6035594139017,40 L 144.64269236110178,40 L 146.1099449468955,40 L 146.14155232732634,40 L 146.17996855388174,40 L 147.65680727829817,40 L 147.69273290061324,40 L 147.73969602085657,40 L 149.20013976052573,40 L 149.2410286733053,40 L 149.28060957090833,40 L 150.75540564148739,40 L 150.78830311907865,40 L 150.8258592808604,40 L 152.30348639798603,40 L 152.3367780719319,40 L 152.37515846245503,40 L 153.84959617271176,40 L 153.88819157942834,40 L 153.92977929483646,40 L 155.39927163264485,40 L 155.43000103028592,40 L 155.4670375696003,40 L 156.9487499944006,40 L 156.97632582120508,40 L 157.01398949108358,40 L 158.49299629545018,40 L 158.52834854124953,40 L 158.56739189836904,40 L 160.04217005093196,40 L 160.0796903766815,40 L 160.11959379857464,40 L 161.59444362320204,40 L 161.6215894176197,40 L 161.66041775854578,40 L 163.1412701185725,40 L 163.1778407894678,40 L 163.2104515788012,40 L 164.68471010889675,40 L 164.7181809630038,40 L 164.756722615672,40 L 166.23013899901002,40 L 166.27074122353173,40 L 166.30788527094282,40 L 167.78169585063543,40 L 167.81233565819593,40 L 167.84673824914105,40 L 169.33595832269452,40 L 169.37335322233125,40 L 169.41544264219067,40 L 170.88283857211331,40 L 170.91623775415587,40 L 170.94963693619843,40 L 172.42746115150132,40 L 172.46455144486404,40 L 172.50103252567877,40 L 173.96896599608493,40 L 174.0092456963165,40 L 174.04759025080745,40 L 175.5158462455037,40 L 175.55610802771918,40 L 175.60029385546434,40 L 177.07844059505732,40 L 177.11046008985886,40 L 177.15186862510583,40 L 178.62268689610687,40 L 178.6503523129919,40 L 178.6854178705334,40 L 180.16641357468902,40 L 180.20302008161656,40 L 180.24014621101153,40 L 181.71530064191293,40 L 181.7472663826661,40 L 181.78860324584863,40 L 183.26307679213758,40 L 183.29523963106806,40 L 183.33333333333334,40" stroke="#22c55e" stroke-width="2" fill="none" stroke-dasharray="14800" stroke-dashoffset="14800">
      <animate attributeName="stroke-dashoffset" values="14800;0" dur="3s" begin="2.6s" fill="freeze"/>
    </path>
    
    <!-- Glow effect for the line that also follows the circle -->
    <path d="M 30,160 L 30.02313215880738,160 L 30.074252258789908,160 L 31.548833313175564,160 L 31.572359668337523,160 L 31.601924394930993,160 L 33.091771599048556,160 L 33.11940117990136,160 L 33.148607546172485,160 L 34.639189388950854,160 L 34.66579764288498,160 L 34.69650912250996,160 L 36.18834522641653,160 L 36.216315249575565,160 L 36.24190217659101,160 L 37.734311657013336,160 L 37.76197707389838,160 L 37.79104009604057,160 L 39.28932668574936,160 L 39.31847929797213,160 L 39.34895784338758,160 L 40.83158408700989,160 L 40.86089796137772,130 L 40.8913048347287,130 L 42.3859719851818,130 L 42.40679271991005,130 L 42.43512110339143,130 L 43.928301058506804,130 L 43.94822589242919,130 L 43.98630167667836,130 L 45.4786215670201,130 L 45.50741581892053,130 L 45.53176640282388,130 L 47.020681870103346,130 L 47.05331057745286,130 L 47.08506130201265,130 L 48.575947751065,130 L 48.59094513055515,130 L 48.62934343909443,130 L 50.12372390128965,130 L 50.15370074225382,130 L 50.1886767097147,130 L 51.67176882175606,130 L 51.698233731561245,130 L 51.73406976379575,130 L 53.21703644972429,130 L 53.24704912672069,130 L 53.28034080066655,130 L 54.768611219365795,130 L 54.79047119902884,130 L 54.82150520294393,130 L 56.31237373398017,130 L 56.337279776383156,130 L 56.3694067792814,130 L 57.863393045122045,130 L 57.89277859155435,130 L 57.91841927261814,130 L 59.410344966605294,130 L 59.44317077213211,130 L 59.46608791474608,130 L 60.96046837694131,130 L 60.98935221892232,130 L 61.02260805683595,130 L 62.50908667392346,130 L 62.537271713275906,130 L 62.57129802588258,130 L 64.05628944763237,130 L 64.08194804671227,130 L 64.1139675415138,130 L 65.60580364542038,130 L 65.63379158659554,130 L 65.66624111378388,130 L 67.15003202845381,130 L 67.18764194428394,130 L 67.2094123338664,130 L 68.6983815551942,130 L 68.72767751154592,130 L 68.75683012376871,130 L 70.24235908600201,130 L 70.27468318707753,130 L 70.30170355538235,130 L 71.38187323899498,130 L 71.79708742648015,130 L 71.82921442937838,130 L 71.86306156182388,130 L 73.34502483884984,130 L 73.3731202881217,130 L 73.40601776571299,130 L 74.89124212167229,130 L 74.91290500315806,130 L 74.94924273984384,130 L 76.44143720407277,130 L 76.46849340840983,130 L 76.49995744471173,130 L 77.98964338668424,130 L 78.02212874990482,130 L 78.05559960401186,130 L 79.5358785875228,130 L 79.56354400440783,130 L 79.59997133117422,130 L 81.08831342193793,130 L 81.11191144916435,130 L 81.14097447130655,130 L 82.63512199929224,130 L 82.6686286894315,130 L 82.70000313565282,130 L 84.18234269101725,130 L 84.21249871214259,130 L 84.2463637626042,130 L 85.72827328558182,130 L 85.75767675003024,130 L 85.79082507984717,130 L 87.2796151210138,130 L 87.30710135773768,130 L 87.33521472502565,130 L 88.82597574796519,130 L 88.85376659096306,130 L 88.88716577300562,130 L 90.36518708648579,130 L 90.40199069159063,130 L 90.43286343336067,130 L 91.92138470428554,130 L 91.94311925783578,130 L 91.98219845098751,130 L 93.4713468524765,130 L 93.50401139585824,130 L 93.5384319048195,130 L 95.0216673609898,130 L 95.05155461187337,130 L 95.08321574635256,130 L 96.56060992926864,130 L 96.5930773744731,130 L 96.62545522959698,130 L 98.11351063210282,130 L 98.14389958743769,130 L 98.17862470267293,130 L 99.66211101106886,130 L 99.6900810342279,130 L 99.72095377599793,130 L 101.21135643861513,130 L 101.2312812725375,130 L 101.28019745653762,130 L 102.75683908277676,130 L 102.7869951039021,130 L 102.81673901065675,130 L 104.3078225578864,130 L 104.34206388668647,130 L 104.37322331671437,130 L 105.85518659374034,130 L 105.88534261486569,130 L 105.92010356613316,130 L 107.40118886036939,130 L 107.43082525902732,130 L 107.45782770931602,130 L 108.95165271301161,130 L 108.98227460255602,130 L 109.01381031092238,130 L 110.50442798973299,130 L 110.53324015964954,130 L 110.56165813321151,130 L 112.04673914504187,130 L 112.07754021474743,40 L 112.10963138161343,40 L 113.60064325677862,40 L 113.6220194500065,40 L 113.65149458651938,40 L 115.14488955782815,40 L 115.16879219132858,40 L 115.21120413547813,40 L 116.69485170601911,40 L 116.72633366033713,40 L 116.75398115920606,40 L 118.23669699290895,40 L 118.27118917393467,40 L 118.30496463431571,40 L 119.79434597001419,40 L 119.8096121197461,40 L 119.85098481896085,40 L 121.3393627457568,40 L 121.37199145310632,40 L 121.40884881225952,40 L 122.88760476440049,40 L 122.9183520800577,40 L 122.95775379749955,40 L 124.43333826078776,40 L 124.46603864020176,40 L 124.50418609651541,40 L 125.9900375830388,40 L 126.0264649098052,40 L 127.53220539421875,40 L 127.60880491312004,40 L 129.08057283897529,40 L 129.11864862322443,40 L 129.15478926173296,40 L 130.6283131531677,40 L 130.66843159125423,40 L 130.6960432540909,40 L 132.17970874264802,40 L 132.21328710485176,40 L 132.25098661076248,40 L 133.72237825827926,40 L 133.7559387024669,40 L 133.79369196242595,40 L 135.2728600289376,40 L 135.30584709660945,40 L 135.34123517844105,40 L 136.82644161638424,40 L 136.8697852973719,40 L 138.4087995377152,40 L 138.44983179462372,40 L 139.92616881458886,40 L 139.95999802901824,40 L 141.47833487876224,40 L 141.5071470486788,40 L 141.55459395535726,40 L 143.0145897446235,40 L 143.04755889427923,40 L 143.08285738603024,40 L 144.56456981083056,40 L 144.6035594139017,40 L 144.64269236110178,40 L 146.1099449468955,40 L 146.14155232732634,40 L 146.17996855388174,40 L 147.65680727829817,40 L 147.69273290061324,40 L 147.73969602085657,40 L 149.20013976052573,40 L 149.2410286733053,40 L 149.28060957090833,40 L 150.75540564148739,40 L 150.78830311907865,40 L 150.8258592808604,40 L 152.30348639798603,40 L 152.3367780719319,40 L 152.37515846245503,40 L 153.84959617271176,40 L 153.88819157942834,40 L 153.92977929483646,40 L 155.39927163264485,40 L 155.43000103028592,40 L 155.4670375696003,40 L 156.9487499944006,40 L 156.97632582120508,40 L 157.01398949108358,40 L 158.49299629545018,40 L 158.52834854124953,40 L 158.56739189836904,40 L 160.04217005093196,40 L 160.0796903766815,40 L 160.11959379857464,40 L 161.59444362320204,40 L 161.6215894176197,40 L 161.66041775854578,40 L 163.1412701185725,40 L 163.1778407894678,40 L 163.2104515788012,40 L 164.68471010889675,40 L 164.7181809630038,40 L 164.756722615672,40 L 166.23013899901002,40 L 166.27074122353173,40 L 166.30788527094282,40 L 167.78169585063543,40 L 167.81233565819593,40 L 167.84673824914105,40 L 169.33595832269452,40 L 169.37335322233125,40 L 169.41544264219067,40 L 170.88283857211331,40 L 170.91623775415587,40 L 170.94963693619843,40 L 172.42746115150132,40 L 172.46455144486404,40 L 172.50103252567877,40 L 173.96896599608493,40 L 174.0092456963165,40 L 174.04759025080745,40 L 175.5158462455037,40 L 175.55610802771918,40 L 175.60029385546434,40 L 177.07844059505732,40 L 177.11046008985886,40 L 177.15186862510583,40 L 178.62268689610687,40 L 178.6503523129919,40 L 178.6854178705334,40 L 180.16641357468902,40 L 180.20302008161656,40 L 180.24014621101153,40 L 181.71530064191293,40 L 181.7472663826661,40 L 181.78860324584863,40 L 183.26307679213758,40 L 183.29523963106806,40 L 183.33333333333334,40" stroke="#22c55e" stroke-width="4" fill="none" opacity="0.4" stroke-dasharray="14800" stroke-dashoffset="14800">
      <animate attributeName="stroke-dashoffset" values="14800;0" dur="3s" begin="2.6s" fill="freeze"/>
    </path>
    
    <!-- Animated circle that moves along the path and draws the line -->
    <circle r="5" fill="#22c55e" opacity="0" filter="url(#trailGlow)">
      <animate attributeName="opacity" values="0;1;1;1" dur="3.2s" begin="2.4s" fill="freeze"/>
      <animate attributeName="r" values="5;6;5" dur="1s" begin="2.4s" repeatCount="3"/>
      <animateMotion dur="3s" begin="2.4s" fill="freeze">
        <mpath href="#path_followersCount_60"/>
      </animateMotion>
    </circle>
    
    <!-- Small trail dots that fade out -->
    <circle r="2" fill="#22c55e" opacity="0">
      <animate attributeName="opacity" values="0;0.6;0" dur="0.8s" begin="2.8s" fill="freeze"/>
      <animateMotion dur="3s" begin="2.4s" fill="freeze">
        <mpath href="#path_followersCount_60"/>
      </animateMotion>
    </circle>
    
    <!-- Hidden path for motion animation -->
    <path id="path_followersCount_60" d="M 30,160 L 30.02313215880738,160 L 30.074252258789908,160 L 31.548833313175564,160 L 31.572359668337523,160 L 31.601924394930993,160 L 33.091771599048556,160 L 33.11940117990136,160 L 33.148607546172485,160 L 34.639189388950854,160 L 34.66579764288498,160 L 34.69650912250996,160 L 36.18834522641653,160 L 36.216315249575565,160 L 36.24190217659101,160 L 37.734311657013336,160 L 37.76197707389838,160 L 37.79104009604057,160 L 39.28932668574936,160 L 39.31847929797213,160 L 39.34895784338758,160 L 40.83158408700989,160 L 40.86089796137772,130 L 40.8913048347287,130 L 42.3859719851818,130 L 42.40679271991005,130 L 42.43512110339143,130 L 43.928301058506804,130 L 43.94822589242919,130 L 43.98630167667836,130 L 45.4786215670201,130 L 45.50741581892053,130 L 45.53176640282388,130 L 47.020681870103346,130 L 47.05331057745286,130 L 47.08506130201265,130 L 48.575947751065,130 L 48.59094513055515,130 L 48.62934343909443,130 L 50.12372390128965,130 L 50.15370074225382,130 L 50.1886767097147,130 L 51.67176882175606,130 L 51.698233731561245,130 L 51.73406976379575,130 L 53.21703644972429,130 L 53.24704912672069,130 L 53.28034080066655,130 L 54.768611219365795,130 L 54.79047119902884,130 L 54.82150520294393,130 L 56.31237373398017,130 L 56.337279776383156,130 L 56.3694067792814,130 L 57.863393045122045,130 L 57.89277859155435,130 L 57.91841927261814,130 L 59.410344966605294,130 L 59.44317077213211,130 L 59.46608791474608,130 L 60.96046837694131,130 L 60.98935221892232,130 L 61.02260805683595,130 L 62.50908667392346,130 L 62.537271713275906,130 L 62.57129802588258,130 L 64.05628944763237,130 L 64.08194804671227,130 L 64.1139675415138,130 L 65.60580364542038,130 L 65.63379158659554,130 L 65.66624111378388,130 L 67.15003202845381,130 L 67.18764194428394,130 L 67.2094123338664,130 L 68.6983815551942,130 L 68.72767751154592,130 L 68.75683012376871,130 L 70.24235908600201,130 L 70.27468318707753,130 L 70.30170355538235,130 L 71.38187323899498,130 L 71.79708742648015,130 L 71.82921442937838,130 L 71.86306156182388,130 L 73.34502483884984,130 L 73.3731202881217,130 L 73.40601776571299,130 L 74.89124212167229,130 L 74.91290500315806,130 L 74.94924273984384,130 L 76.44143720407277,130 L 76.46849340840983,130 L 76.49995744471173,130 L 77.98964338668424,130 L 78.02212874990482,130 L 78.05559960401186,130 L 79.5358785875228,130 L 79.56354400440783,130 L 79.59997133117422,130 L 81.08831342193793,130 L 81.11191144916435,130 L 81.14097447130655,130 L 82.63512199929224,130 L 82.6686286894315,130 L 82.70000313565282,130 L 84.18234269101725,130 L 84.21249871214259,130 L 84.2463637626042,130 L 85.72827328558182,130 L 85.75767675003024,130 L 85.79082507984717,130 L 87.2796151210138,130 L 87.30710135773768,130 L 87.33521472502565,130 L 88.82597574796519,130 L 88.85376659096306,130 L 88.88716577300562,130 L 90.36518708648579,130 L 90.40199069159063,130 L 90.43286343336067,130 L 91.92138470428554,130 L 91.94311925783578,130 L 91.98219845098751,130 L 93.4713468524765,130 L 93.50401139585824,130 L 93.5384319048195,130 L 95.0216673609898,130 L 95.05155461187337,130 L 95.08321574635256,130 L 96.56060992926864,130 L 96.5930773744731,130 L 96.62545522959698,130 L 98.11351063210282,130 L 98.14389958743769,130 L 98.17862470267293,130 L 99.66211101106886,130 L 99.6900810342279,130 L 99.72095377599793,130 L 101.21135643861513,130 L 101.2312812725375,130 L 101.28019745653762,130 L 102.75683908277676,130 L 102.7869951039021,130 L 102.81673901065675,130 L 104.3078225578864,130 L 104.34206388668647,130 L 104.37322331671437,130 L 105.85518659374034,130 L 105.88534261486569,130 L 105.92010356613316,130 L 107.40118886036939,130 L 107.43082525902732,130 L 107.45782770931602,130 L 108.95165271301161,130 L 108.98227460255602,130 L 109.01381031092238,130 L 110.50442798973299,130 L 110.53324015964954,130 L 110.56165813321151,130 L 112.04673914504187,130 L 112.07754021474743,40 L 112.10963138161343,40 L 113.60064325677862,40 L 113.6220194500065,40 L 113.65149458651938,40 L 115.14488955782815,40 L 115.16879219132858,40 L 115.21120413547813,40 L 116.69485170601911,40 L 116.72633366033713,40 L 116.75398115920606,40 L 118.23669699290895,40 L 118.27118917393467,40 L 118.30496463431571,40 L 119.79434597001419,40 L 119.8096121197461,40 L 119.85098481896085,40 L 121.3393627457568,40 L 121.37199145310632,40 L 121.40884881225952,40 L 122.88760476440049,40 L 122.9183520800577,40 L 122.95775379749955,40 L 124.43333826078776,40 L 124.46603864020176,40 L 124.50418609651541,40 L 125.9900375830388,40 L 126.0264649098052,40 L 127.53220539421875,40 L 127.60880491312004,40 L 129.08057283897529,40 L 129.11864862322443,40 L 129.15478926173296,40 L 130.6283131531677,40 L 130.66843159125423,40 L 130.6960432540909,40 L 132.17970874264802,40 L 132.21328710485176,40 L 132.25098661076248,40 L 133.72237825827926,40 L 133.7559387024669,40 L 133.79369196242595,40 L 135.2728600289376,40 L 135.30584709660945,40 L 135.34123517844105,40 L 136.82644161638424,40 L 136.8697852973719,40 L 138.4087995377152,40 L 138.44983179462372,40 L 139.92616881458886,40 L 139.95999802901824,40 L 141.47833487876224,40 L 141.5071470486788,40 L 141.55459395535726,40 L 143.0145897446235,40 L 143.04755889427923,40 L 143.08285738603024,40 L 144.56456981083056,40 L 144.6035594139017,40 L 144.64269236110178,40 L 146.1099449468955,40 L 146.14155232732634,40 L 146.17996855388174,40 L 147.65680727829817,40 L 147.69273290061324,40 L 147.73969602085657,40 L 149.20013976052573,40 L 149.2410286733053,40 L 149.28060957090833,40 L 150.75540564148739,40 L 150.78830311907865,40 L 150.8258592808604,40 L 152.30348639798603,40 L 152.3367780719319,40 L 152.37515846245503,40 L 153.84959617271176,40 L 153.88819157942834,40 L 153.92977929483646,40 L 155.39927163264485,40 L 155.43000103028592,40 L 155.4670375696003,40 L 156.9487499944006,40 L 156.97632582120508,40 L 157.01398949108358,40 L 158.49299629545018,40 L 158.52834854124953,40 L 158.56739189836904,40 L 160.04217005093196,40 L 160.0796903766815,40 L 160.11959379857464,40 L 161.59444362320204,40 L 161.6215894176197,40 L 161.66041775854578,40 L 163.1412701185725,40 L 163.1778407894678,40 L 163.2104515788012,40 L 164.68471010889675,40 L 164.7181809630038,40 L 164.756722615672,40 L 166.23013899901002,40 L 166.27074122353173,40 L 166.30788527094282,40 L 167.78169585063543,40 L 167.81233565819593,40 L 167.84673824914105,40 L 169.33595832269452,40 L 169.37335322233125,40 L 169.41544264219067,40 L 170.88283857211331,40 L 170.91623775415587,40 L 170.94963693619843,40 L 172.42746115150132,40 L 172.46455144486404,40 L 172.50103252567877,40 L 173.96896599608493,40 L 174.0092456963165,40 L 174.04759025080745,40 L 175.5158462455037,40 L 175.55610802771918,40 L 175.60029385546434,40 L 177.07844059505732,40 L 177.11046008985886,40 L 177.15186862510583,40 L 178.62268689610687,40 L 178.6503523129919,40 L 178.6854178705334,40 L 180.16641357468902,40 L 180.20302008161656,40 L 180.24014621101153,40 L 181.71530064191293,40 L 181.7472663826661,40 L 181.78860324584863,40 L 183.26307679213758,40 L 183.29523963106806,40 L 183.33333333333334,40" fill="none" stroke="none"/>
  </g>
  <!-- 🔓 Public Contributions Chart -->
  <g transform="translate(293.33333333333337, 250)">
    <!-- Chart Background -->
    <rect x="0" y="0" width="213.33333333333334" height="200" fill="#ffffff" stroke="#e2e8f0" stroke-width="1" rx="8" filter="url(#shadow)">
      <animate attributeName="opacity" values="0;1" dur="0.5s" begin="2.3s" fill="freeze"/>
    </rect>
    
    <!-- Chart Title -->
    <text x="106.66666666666667" y="25" text-anchor="middle" fill="#1e293b" font-size="14" font-weight="bold" font-family="Arial, sans-serif">
      🔓 Public Contributions
      <animate attributeName="opacity" values="0;1" dur="0.5s" begin="2.5s" fill="freeze"/>
    </text>
    
    <!-- Y-axis labels -->
    <text x="10" y="45" fill="#64748b" font-size="10" font-family="Arial, sans-serif">3,861
      <animate attributeName="opacity" values="0;1" dur="0.5s" begin="2.6999999999999997s" fill="freeze"/>
    </text>
    <text x="10" y="185" fill="#64748b" font-size="10" font-family="Arial, sans-serif">3,180
      <animate attributeName="opacity" values="0;1" dur="0.5s" begin="2.6999999999999997s" fill="freeze"/>
    </text>
    
    <!-- Chart Line with draw animation that follows the circle -->
    <path d="M 30,160 L 30.02313215880738,160 L 30.074252258789908,160 L 31.548833313175564,160 L 31.572359668337523,160 L 31.601924394930993,160 L 33.091771599048556,160 L 33.11940117990136,160 L 33.148607546172485,160 L 34.639189388950854,160 L 34.66579764288498,160 L 34.69650912250996,160 L 36.18834522641653,160 L 36.216315249575565,160 L 36.24190217659101,160 L 37.734311657013336,160 L 37.76197707389838,160 L 37.79104009604057,160 L 39.28932668574936,160 L 39.31847929797213,160 L 39.34895784338758,160 L 40.83158408700989,160 L 40.86089796137772,115.24229074889868 L 40.8913048347287,115.24229074889868 L 42.3859719851818,115.24229074889868 L 42.40679271991005,115.24229074889868 L 42.43512110339143,115.24229074889868 L 43.928301058506804,115.24229074889868 L 43.94822589242919,115.24229074889868 L 43.98630167667836,115.24229074889868 L 45.4786215670201,115.24229074889868 L 45.50741581892053,115.24229074889868 L 45.53176640282388,115.24229074889868 L 47.020681870103346,115.24229074889868 L 47.05331057745286,115.24229074889868 L 47.08506130201265,115.24229074889868 L 48.575947751065,115.24229074889868 L 48.59094513055515,115.24229074889868 L 48.62934343909443,115.24229074889868 L 50.12372390128965,115.24229074889868 L 50.15370074225382,115.24229074889868 L 50.1886767097147,115.24229074889868 L 51.67176882175606,115.24229074889868 L 51.698233731561245,115.24229074889868 L 51.73406976379575,115.24229074889868 L 53.21703644972429,115.24229074889868 L 53.24704912672069,115.24229074889868 L 53.28034080066655,115.24229074889868 L 54.768611219365795,115.24229074889868 L 54.79047119902884,115.24229074889868 L 54.82150520294393,115.24229074889868 L 56.31237373398017,115.24229074889868 L 56.337279776383156,115.24229074889868 L 56.3694067792814,115.24229074889868 L 57.863393045122045,115.24229074889868 L 57.89277859155435,115.24229074889868 L 57.91841927261814,115.24229074889868 L 59.410344966605294,115.24229074889868 L 59.44317077213211,115.24229074889868 L 59.46608791474608,115.24229074889868 L 60.96046837694131,115.24229074889868 L 60.98935221892232,115.24229074889868 L 61.02260805683595,115.24229074889868 L 62.50908667392346,115.24229074889868 L 62.537271713275906,115.24229074889868 L 62.57129802588258,115.24229074889868 L 64.05628944763237,115.24229074889868 L 64.08194804671227,115.24229074889868 L 64.1139675415138,115.24229074889868 L 65.60580364542038,115.24229074889868 L 65.63379158659554,115.24229074889868 L 65.66624111378388,115.24229074889868 L 67.15003202845381,115.24229074889868 L 67.18764194428394,115.24229074889868 L 67.2094123338664,115.24229074889868 L 68.6983815551942,115.24229074889868 L 68.72767751154592,115.24229074889868 L 68.75683012376871,115.24229074889868 L 70.24235908600201,115.24229074889868 L 70.27468318707753,115.24229074889868 L 70.30170355538235,115.24229074889868 L 71.38187323899498,115.24229074889868 L 71.79708742648015,115.24229074889868 L 71.82921442937838,115.24229074889868 L 71.86306156182388,115.24229074889868 L 73.34502483884984,115.24229074889868 L 73.3731202881217,115.24229074889868 L 73.40601776571299,115.24229074889868 L 74.89124212167229,115.24229074889868 L 74.91290500315806,115.24229074889868 L 74.94924273984384,115.24229074889868 L 76.44143720407277,115.24229074889868 L 76.46849340840983,115.24229074889868 L 76.49995744471173,115.24229074889868 L 77.98964338668424,115.24229074889868 L 78.02212874990482,115.24229074889868 L 78.05559960401186,115.24229074889868 L 79.5358785875228,115.24229074889868 L 79.56354400440783,115.24229074889868 L 79.59997133117422,115.24229074889868 L 81.08831342193793,115.24229074889868 L 81.11191144916435,115.24229074889868 L 81.14097447130655,115.24229074889868 L 82.63512199929224,115.24229074889868 L 82.6686286894315,115.24229074889868 L 82.70000313565282,115.24229074889868 L 84.18234269101725,115.24229074889868 L 84.21249871214259,115.24229074889868 L 84.2463637626042,115.24229074889868 L 85.72827328558182,115.24229074889868 L 85.75767675003024,115.24229074889868 L 85.79082507984717,115.24229074889868 L 87.2796151210138,115.24229074889868 L 87.30710135773768,115.24229074889868 L 87.33521472502565,115.24229074889868 L 88.82597574796519,115.24229074889868 L 88.85376659096306,115.24229074889868 L 88.88716577300562,115.24229074889868 L 90.36518708648579,115.24229074889868 L 90.40199069159063,115.24229074889868 L 90.43286343336067,115.24229074889868 L 91.92138470428554,115.24229074889868 L 91.94311925783578,115.24229074889868 L 91.98219845098751,115.24229074889868 L 93.4713468524765,115.24229074889868 L 93.50401139585824,115.24229074889868 L 93.5384319048195,115.24229074889868 L 95.0216673609898,115.24229074889868 L 95.05155461187337,115.24229074889868 L 95.08321574635256,115.24229074889868 L 96.56060992926864,115.24229074889868 L 96.5930773744731,115.24229074889868 L 96.62545522959698,115.24229074889868 L 98.11351063210282,115.24229074889868 L 98.14389958743769,115.24229074889868 L 98.17862470267293,115.24229074889868 L 99.66211101106886,115.24229074889868 L 99.6900810342279,115.24229074889868 L 99.72095377599793,115.24229074889868 L 101.21135643861513,115.24229074889868 L 101.2312812725375,115.24229074889868 L 101.28019745653762,115.24229074889868 L 102.75683908277676,115.24229074889868 L 102.7869951039021,115.24229074889868 L 102.81673901065675,115.24229074889868 L 104.3078225578864,115.24229074889868 L 104.34206388668647,115.24229074889868 L 104.37322331671437,115.24229074889868 L 105.85518659374034,115.24229074889868 L 105.88534261486569,115.24229074889868 L 105.92010356613316,115.24229074889868 L 107.40118886036939,115.24229074889868 L 107.43082525902732,115.24229074889868 L 107.45782770931602,115.24229074889868 L 108.95165271301161,115.24229074889868 L 108.98227460255602,115.24229074889868 L 109.01381031092238,115.24229074889868 L 110.50442798973299,115.24229074889868 L 110.53324015964954,115.24229074889868 L 110.56165813321151,115.24229074889868 L 112.04673914504187,115.24229074889868 L 112.07754021474743,40 L 112.10963138161343,40 L 113.60064325677862,40 L 113.6220194500065,40 L 113.65149458651938,40 L 115.14488955782815,40 L 115.16879219132858,40 L 115.21120413547813,40 L 116.69485170601911,40 L 116.72633366033713,40 L 116.75398115920606,40 L 118.23669699290895,40 L 118.27118917393467,40 L 118.30496463431571,40 L 119.79434597001419,40 L 119.8096121197461,40 L 119.85098481896085,40 L 121.3393627457568,40 L 121.37199145310632,40 L 121.40884881225952,40 L 122.88760476440049,40 L 122.9183520800577,40 L 122.95775379749955,40 L 124.43333826078776,40 L 124.46603864020176,40 L 124.50418609651541,40 L 125.9900375830388,40 L 126.0264649098052,40 L 127.53220539421875,40 L 127.60880491312004,40 L 129.08057283897529,40 L 129.11864862322443,40 L 129.15478926173296,40 L 130.6283131531677,40 L 130.66843159125423,40 L 130.6960432540909,40 L 132.17970874264802,40 L 132.21328710485176,40 L 132.25098661076248,40 L 133.72237825827926,40 L 133.7559387024669,40 L 133.79369196242595,40 L 135.2728600289376,40 L 135.30584709660945,40 L 135.34123517844105,40 L 136.82644161638424,40 L 136.8697852973719,40 L 138.4087995377152,40 L 138.44983179462372,40 L 139.92616881458886,40 L 139.95999802901824,40 L 141.47833487876224,40 L 141.5071470486788,40 L 141.55459395535726,40 L 143.0145897446235,40 L 143.04755889427923,40 L 143.08285738603024,40 L 144.56456981083056,40 L 144.6035594139017,40 L 144.64269236110178,40 L 146.1099449468955,40 L 146.14155232732634,40 L 146.17996855388174,40 L 147.65680727829817,40 L 147.69273290061324,40 L 147.73969602085657,40 L 149.20013976052573,40 L 149.2410286733053,40 L 149.28060957090833,40 L 150.75540564148739,40 L 150.78830311907865,40 L 150.8258592808604,40 L 152.30348639798603,40 L 152.3367780719319,40 L 152.37515846245503,40 L 153.84959617271176,40 L 153.88819157942834,40 L 153.92977929483646,40 L 155.39927163264485,40 L 155.43000103028592,40 L 155.4670375696003,40 L 156.9487499944006,40 L 156.97632582120508,40 L 157.01398949108358,40 L 158.49299629545018,40 L 158.52834854124953,40 L 158.56739189836904,40 L 160.04217005093196,40 L 160.0796903766815,40 L 160.11959379857464,40 L 161.59444362320204,40 L 161.6215894176197,40 L 161.66041775854578,40 L 163.1412701185725,40 L 163.1778407894678,40 L 163.2104515788012,40 L 164.68471010889675,40 L 164.7181809630038,40 L 164.756722615672,40 L 166.23013899901002,40 L 166.27074122353173,40 L 166.30788527094282,40 L 167.78169585063543,40 L 167.81233565819593,40 L 167.84673824914105,40 L 169.33595832269452,40 L 169.37335322233125,40 L 169.41544264219067,40 L 170.88283857211331,40 L 170.91623775415587,40 L 170.94963693619843,40 L 172.42746115150132,40 L 172.46455144486404,40 L 172.50103252567877,40 L 173.96896599608493,40 L 174.0092456963165,40 L 174.04759025080745,40 L 175.5158462455037,40 L 175.55610802771918,40 L 175.60029385546434,40 L 177.07844059505732,40 L 177.11046008985886,40 L 177.15186862510583,40 L 178.62268689610687,40 L 178.6503523129919,40 L 178.6854178705334,40 L 180.16641357468902,40 L 180.20302008161656,40 L 180.24014621101153,40 L 181.71530064191293,40 L 181.7472663826661,40 L 181.78860324584863,40 L 183.26307679213758,40 L 183.29523963106806,40 L 183.33333333333334,40" stroke="#3b82f6" stroke-width="2" fill="none" stroke-dasharray="14800" stroke-dashoffset="14800">
      <animate attributeName="stroke-dashoffset" values="14800;0" dur="3s" begin="3.0999999999999996s" fill="freeze"/>
    </path>
    
    <!-- Glow effect for the line that also follows the circle -->
    <path d="M 30,160 L 30.02313215880738,160 L 30.074252258789908,160 L 31.548833313175564,160 L 31.572359668337523,160 L 31.601924394930993,160 L 33.091771599048556,160 L 33.11940117990136,160 L 33.148607546172485,160 L 34.639189388950854,160 L 34.66579764288498,160 L 34.69650912250996,160 L 36.18834522641653,160 L 36.216315249575565,160 L 36.24190217659101,160 L 37.734311657013336,160 L 37.76197707389838,160 L 37.79104009604057,160 L 39.28932668574936,160 L 39.31847929797213,160 L 39.34895784338758,160 L 40.83158408700989,160 L 40.86089796137772,115.24229074889868 L 40.8913048347287,115.24229074889868 L 42.3859719851818,115.24229074889868 L 42.40679271991005,115.24229074889868 L 42.43512110339143,115.24229074889868 L 43.928301058506804,115.24229074889868 L 43.94822589242919,115.24229074889868 L 43.98630167667836,115.24229074889868 L 45.4786215670201,115.24229074889868 L 45.50741581892053,115.24229074889868 L 45.53176640282388,115.24229074889868 L 47.020681870103346,115.24229074889868 L 47.05331057745286,115.24229074889868 L 47.08506130201265,115.24229074889868 L 48.575947751065,115.24229074889868 L 48.59094513055515,115.24229074889868 L 48.62934343909443,115.24229074889868 L 50.12372390128965,115.24229074889868 L 50.15370074225382,115.24229074889868 L 50.1886767097147,115.24229074889868 L 51.67176882175606,115.24229074889868 L 51.698233731561245,115.24229074889868 L 51.73406976379575,115.24229074889868 L 53.21703644972429,115.24229074889868 L 53.24704912672069,115.24229074889868 L 53.28034080066655,115.24229074889868 L 54.768611219365795,115.24229074889868 L 54.79047119902884,115.24229074889868 L 54.82150520294393,115.24229074889868 L 56.31237373398017,115.24229074889868 L 56.337279776383156,115.24229074889868 L 56.3694067792814,115.24229074889868 L 57.863393045122045,115.24229074889868 L 57.89277859155435,115.24229074889868 L 57.91841927261814,115.24229074889868 L 59.410344966605294,115.24229074889868 L 59.44317077213211,115.24229074889868 L 59.46608791474608,115.24229074889868 L 60.96046837694131,115.24229074889868 L 60.98935221892232,115.24229074889868 L 61.02260805683595,115.24229074889868 L 62.50908667392346,115.24229074889868 L 62.537271713275906,115.24229074889868 L 62.57129802588258,115.24229074889868 L 64.05628944763237,115.24229074889868 L 64.08194804671227,115.24229074889868 L 64.1139675415138,115.24229074889868 L 65.60580364542038,115.24229074889868 L 65.63379158659554,115.24229074889868 L 65.66624111378388,115.24229074889868 L 67.15003202845381,115.24229074889868 L 67.18764194428394,115.24229074889868 L 67.2094123338664,115.24229074889868 L 68.6983815551942,115.24229074889868 L 68.72767751154592,115.24229074889868 L 68.75683012376871,115.24229074889868 L 70.24235908600201,115.24229074889868 L 70.27468318707753,115.24229074889868 L 70.30170355538235,115.24229074889868 L 71.38187323899498,115.24229074889868 L 71.79708742648015,115.24229074889868 L 71.82921442937838,115.24229074889868 L 71.86306156182388,115.24229074889868 L 73.34502483884984,115.24229074889868 L 73.3731202881217,115.24229074889868 L 73.40601776571299,115.24229074889868 L 74.89124212167229,115.24229074889868 L 74.91290500315806,115.24229074889868 L 74.94924273984384,115.24229074889868 L 76.44143720407277,115.24229074889868 L 76.46849340840983,115.24229074889868 L 76.49995744471173,115.24229074889868 L 77.98964338668424,115.24229074889868 L 78.02212874990482,115.24229074889868 L 78.05559960401186,115.24229074889868 L 79.5358785875228,115.24229074889868 L 79.56354400440783,115.24229074889868 L 79.59997133117422,115.24229074889868 L 81.08831342193793,115.24229074889868 L 81.11191144916435,115.24229074889868 L 81.14097447130655,115.24229074889868 L 82.63512199929224,115.24229074889868 L 82.6686286894315,115.24229074889868 L 82.70000313565282,115.24229074889868 L 84.18234269101725,115.24229074889868 L 84.21249871214259,115.24229074889868 L 84.2463637626042,115.24229074889868 L 85.72827328558182,115.24229074889868 L 85.75767675003024,115.24229074889868 L 85.79082507984717,115.24229074889868 L 87.2796151210138,115.24229074889868 L 87.30710135773768,115.24229074889868 L 87.33521472502565,115.24229074889868 L 88.82597574796519,115.24229074889868 L 88.85376659096306,115.24229074889868 L 88.88716577300562,115.24229074889868 L 90.36518708648579,115.24229074889868 L 90.40199069159063,115.24229074889868 L 90.43286343336067,115.24229074889868 L 91.92138470428554,115.24229074889868 L 91.94311925783578,115.24229074889868 L 91.98219845098751,115.24229074889868 L 93.4713468524765,115.24229074889868 L 93.50401139585824,115.24229074889868 L 93.5384319048195,115.24229074889868 L 95.0216673609898,115.24229074889868 L 95.05155461187337,115.24229074889868 L 95.08321574635256,115.24229074889868 L 96.56060992926864,115.24229074889868 L 96.5930773744731,115.24229074889868 L 96.62545522959698,115.24229074889868 L 98.11351063210282,115.24229074889868 L 98.14389958743769,115.24229074889868 L 98.17862470267293,115.24229074889868 L 99.66211101106886,115.24229074889868 L 99.6900810342279,115.24229074889868 L 99.72095377599793,115.24229074889868 L 101.21135643861513,115.24229074889868 L 101.2312812725375,115.24229074889868 L 101.28019745653762,115.24229074889868 L 102.75683908277676,115.24229074889868 L 102.7869951039021,115.24229074889868 L 102.81673901065675,115.24229074889868 L 104.3078225578864,115.24229074889868 L 104.34206388668647,115.24229074889868 L 104.37322331671437,115.24229074889868 L 105.85518659374034,115.24229074889868 L 105.88534261486569,115.24229074889868 L 105.92010356613316,115.24229074889868 L 107.40118886036939,115.24229074889868 L 107.43082525902732,115.24229074889868 L 107.45782770931602,115.24229074889868 L 108.95165271301161,115.24229074889868 L 108.98227460255602,115.24229074889868 L 109.01381031092238,115.24229074889868 L 110.50442798973299,115.24229074889868 L 110.53324015964954,115.24229074889868 L 110.56165813321151,115.24229074889868 L 112.04673914504187,115.24229074889868 L 112.07754021474743,40 L 112.10963138161343,40 L 113.60064325677862,40 L 113.6220194500065,40 L 113.65149458651938,40 L 115.14488955782815,40 L 115.16879219132858,40 L 115.21120413547813,40 L 116.69485170601911,40 L 116.72633366033713,40 L 116.75398115920606,40 L 118.23669699290895,40 L 118.27118917393467,40 L 118.30496463431571,40 L 119.79434597001419,40 L 119.8096121197461,40 L 119.85098481896085,40 L 121.3393627457568,40 L 121.37199145310632,40 L 121.40884881225952,40 L 122.88760476440049,40 L 122.9183520800577,40 L 122.95775379749955,40 L 124.43333826078776,40 L 124.46603864020176,40 L 124.50418609651541,40 L 125.9900375830388,40 L 126.0264649098052,40 L 127.53220539421875,40 L 127.60880491312004,40 L 129.08057283897529,40 L 129.11864862322443,40 L 129.15478926173296,40 L 130.6283131531677,40 L 130.66843159125423,40 L 130.6960432540909,40 L 132.17970874264802,40 L 132.21328710485176,40 L 132.25098661076248,40 L 133.72237825827926,40 L 133.7559387024669,40 L 133.79369196242595,40 L 135.2728600289376,40 L 135.30584709660945,40 L 135.34123517844105,40 L 136.82644161638424,40 L 136.8697852973719,40 L 138.4087995377152,40 L 138.44983179462372,40 L 139.92616881458886,40 L 139.95999802901824,40 L 141.47833487876224,40 L 141.5071470486788,40 L 141.55459395535726,40 L 143.0145897446235,40 L 143.04755889427923,40 L 143.08285738603024,40 L 144.56456981083056,40 L 144.6035594139017,40 L 144.64269236110178,40 L 146.1099449468955,40 L 146.14155232732634,40 L 146.17996855388174,40 L 147.65680727829817,40 L 147.69273290061324,40 L 147.73969602085657,40 L 149.20013976052573,40 L 149.2410286733053,40 L 149.28060957090833,40 L 150.75540564148739,40 L 150.78830311907865,40 L 150.8258592808604,40 L 152.30348639798603,40 L 152.3367780719319,40 L 152.37515846245503,40 L 153.84959617271176,40 L 153.88819157942834,40 L 153.92977929483646,40 L 155.39927163264485,40 L 155.43000103028592,40 L 155.4670375696003,40 L 156.9487499944006,40 L 156.97632582120508,40 L 157.01398949108358,40 L 158.49299629545018,40 L 158.52834854124953,40 L 158.56739189836904,40 L 160.04217005093196,40 L 160.0796903766815,40 L 160.11959379857464,40 L 161.59444362320204,40 L 161.6215894176197,40 L 161.66041775854578,40 L 163.1412701185725,40 L 163.1778407894678,40 L 163.2104515788012,40 L 164.68471010889675,40 L 164.7181809630038,40 L 164.756722615672,40 L 166.23013899901002,40 L 166.27074122353173,40 L 166.30788527094282,40 L 167.78169585063543,40 L 167.81233565819593,40 L 167.84673824914105,40 L 169.33595832269452,40 L 169.37335322233125,40 L 169.41544264219067,40 L 170.88283857211331,40 L 170.91623775415587,40 L 170.94963693619843,40 L 172.42746115150132,40 L 172.46455144486404,40 L 172.50103252567877,40 L 173.96896599608493,40 L 174.0092456963165,40 L 174.04759025080745,40 L 175.5158462455037,40 L 175.55610802771918,40 L 175.60029385546434,40 L 177.07844059505732,40 L 177.11046008985886,40 L 177.15186862510583,40 L 178.62268689610687,40 L 178.6503523129919,40 L 178.6854178705334,40 L 180.16641357468902,40 L 180.20302008161656,40 L 180.24014621101153,40 L 181.71530064191293,40 L 181.7472663826661,40 L 181.78860324584863,40 L 183.26307679213758,40 L 183.29523963106806,40 L 183.33333333333334,40" stroke="#3b82f6" stroke-width="4" fill="none" opacity="0.4" stroke-dasharray="14800" stroke-dashoffset="14800">
      <animate attributeName="stroke-dashoffset" values="14800;0" dur="3s" begin="3.0999999999999996s" fill="freeze"/>
    </path>
    
    <!-- Animated circle that moves along the path and draws the line -->
    <circle r="5" fill="#3b82f6" opacity="0" filter="url(#trailGlow)">
      <animate attributeName="opacity" values="0;1;1;1" dur="3.2s" begin="2.9s" fill="freeze"/>
      <animate attributeName="r" values="5;6;5" dur="1s" begin="2.9s" repeatCount="3"/>
      <animateMotion dur="3s" begin="2.9s" fill="freeze">
        <mpath href="#path_publicContributions_293.33333333333337"/>
      </animateMotion>
    </circle>
    
    <!-- Small trail dots that fade out -->
    <circle r="2" fill="#3b82f6" opacity="0">
      <animate attributeName="opacity" values="0;0.6;0" dur="0.8s" begin="3.3s" fill="freeze"/>
      <animateMotion dur="3s" begin="2.9s" fill="freeze">
        <mpath href="#path_publicContributions_293.33333333333337"/>
      </animateMotion>
    </circle>
    
    <!-- Hidden path for motion animation -->
    <path id="path_publicContributions_293.33333333333337" d="M 30,160 L 30.02313215880738,160 L 30.074252258789908,160 L 31.548833313175564,160 L 31.572359668337523,160 L 31.601924394930993,160 L 33.091771599048556,160 L 33.11940117990136,160 L 33.148607546172485,160 L 34.639189388950854,160 L 34.66579764288498,160 L 34.69650912250996,160 L 36.18834522641653,160 L 36.216315249575565,160 L 36.24190217659101,160 L 37.734311657013336,160 L 37.76197707389838,160 L 37.79104009604057,160 L 39.28932668574936,160 L 39.31847929797213,160 L 39.34895784338758,160 L 40.83158408700989,160 L 40.86089796137772,115.24229074889868 L 40.8913048347287,115.24229074889868 L 42.3859719851818,115.24229074889868 L 42.40679271991005,115.24229074889868 L 42.43512110339143,115.24229074889868 L 43.928301058506804,115.24229074889868 L 43.94822589242919,115.24229074889868 L 43.98630167667836,115.24229074889868 L 45.4786215670201,115.24229074889868 L 45.50741581892053,115.24229074889868 L 45.53176640282388,115.24229074889868 L 47.020681870103346,115.24229074889868 L 47.05331057745286,115.24229074889868 L 47.08506130201265,115.24229074889868 L 48.575947751065,115.24229074889868 L 48.59094513055515,115.24229074889868 L 48.62934343909443,115.24229074889868 L 50.12372390128965,115.24229074889868 L 50.15370074225382,115.24229074889868 L 50.1886767097147,115.24229074889868 L 51.67176882175606,115.24229074889868 L 51.698233731561245,115.24229074889868 L 51.73406976379575,115.24229074889868 L 53.21703644972429,115.24229074889868 L 53.24704912672069,115.24229074889868 L 53.28034080066655,115.24229074889868 L 54.768611219365795,115.24229074889868 L 54.79047119902884,115.24229074889868 L 54.82150520294393,115.24229074889868 L 56.31237373398017,115.24229074889868 L 56.337279776383156,115.24229074889868 L 56.3694067792814,115.24229074889868 L 57.863393045122045,115.24229074889868 L 57.89277859155435,115.24229074889868 L 57.91841927261814,115.24229074889868 L 59.410344966605294,115.24229074889868 L 59.44317077213211,115.24229074889868 L 59.46608791474608,115.24229074889868 L 60.96046837694131,115.24229074889868 L 60.98935221892232,115.24229074889868 L 61.02260805683595,115.24229074889868 L 62.50908667392346,115.24229074889868 L 62.537271713275906,115.24229074889868 L 62.57129802588258,115.24229074889868 L 64.05628944763237,115.24229074889868 L 64.08194804671227,115.24229074889868 L 64.1139675415138,115.24229074889868 L 65.60580364542038,115.24229074889868 L 65.63379158659554,115.24229074889868 L 65.66624111378388,115.24229074889868 L 67.15003202845381,115.24229074889868 L 67.18764194428394,115.24229074889868 L 67.2094123338664,115.24229074889868 L 68.6983815551942,115.24229074889868 L 68.72767751154592,115.24229074889868 L 68.75683012376871,115.24229074889868 L 70.24235908600201,115.24229074889868 L 70.27468318707753,115.24229074889868 L 70.30170355538235,115.24229074889868 L 71.38187323899498,115.24229074889868 L 71.79708742648015,115.24229074889868 L 71.82921442937838,115.24229074889868 L 71.86306156182388,115.24229074889868 L 73.34502483884984,115.24229074889868 L 73.3731202881217,115.24229074889868 L 73.40601776571299,115.24229074889868 L 74.89124212167229,115.24229074889868 L 74.91290500315806,115.24229074889868 L 74.94924273984384,115.24229074889868 L 76.44143720407277,115.24229074889868 L 76.46849340840983,115.24229074889868 L 76.49995744471173,115.24229074889868 L 77.98964338668424,115.24229074889868 L 78.02212874990482,115.24229074889868 L 78.05559960401186,115.24229074889868 L 79.5358785875228,115.24229074889868 L 79.56354400440783,115.24229074889868 L 79.59997133117422,115.24229074889868 L 81.08831342193793,115.24229074889868 L 81.11191144916435,115.24229074889868 L 81.14097447130655,115.24229074889868 L 82.63512199929224,115.24229074889868 L 82.6686286894315,115.24229074889868 L 82.70000313565282,115.24229074889868 L 84.18234269101725,115.24229074889868 L 84.21249871214259,115.24229074889868 L 84.2463637626042,115.24229074889868 L 85.72827328558182,115.24229074889868 L 85.75767675003024,115.24229074889868 L 85.79082507984717,115.24229074889868 L 87.2796151210138,115.24229074889868 L 87.30710135773768,115.24229074889868 L 87.33521472502565,115.24229074889868 L 88.82597574796519,115.24229074889868 L 88.85376659096306,115.24229074889868 L 88.88716577300562,115.24229074889868 L 90.36518708648579,115.24229074889868 L 90.40199069159063,115.24229074889868 L 90.43286343336067,115.24229074889868 L 91.92138470428554,115.24229074889868 L 91.94311925783578,115.24229074889868 L 91.98219845098751,115.24229074889868 L 93.4713468524765,115.24229074889868 L 93.50401139585824,115.24229074889868 L 93.5384319048195,115.24229074889868 L 95.0216673609898,115.24229074889868 L 95.05155461187337,115.24229074889868 L 95.08321574635256,115.24229074889868 L 96.56060992926864,115.24229074889868 L 96.5930773744731,115.24229074889868 L 96.62545522959698,115.24229074889868 L 98.11351063210282,115.24229074889868 L 98.14389958743769,115.24229074889868 L 98.17862470267293,115.24229074889868 L 99.66211101106886,115.24229074889868 L 99.6900810342279,115.24229074889868 L 99.72095377599793,115.24229074889868 L 101.21135643861513,115.24229074889868 L 101.2312812725375,115.24229074889868 L 101.28019745653762,115.24229074889868 L 102.75683908277676,115.24229074889868 L 102.7869951039021,115.24229074889868 L 102.81673901065675,115.24229074889868 L 104.3078225578864,115.24229074889868 L 104.34206388668647,115.24229074889868 L 104.37322331671437,115.24229074889868 L 105.85518659374034,115.24229074889868 L 105.88534261486569,115.24229074889868 L 105.92010356613316,115.24229074889868 L 107.40118886036939,115.24229074889868 L 107.43082525902732,115.24229074889868 L 107.45782770931602,115.24229074889868 L 108.95165271301161,115.24229074889868 L 108.98227460255602,115.24229074889868 L 109.01381031092238,115.24229074889868 L 110.50442798973299,115.24229074889868 L 110.53324015964954,115.24229074889868 L 110.56165813321151,115.24229074889868 L 112.04673914504187,115.24229074889868 L 112.07754021474743,40 L 112.10963138161343,40 L 113.60064325677862,40 L 113.6220194500065,40 L 113.65149458651938,40 L 115.14488955782815,40 L 115.16879219132858,40 L 115.21120413547813,40 L 116.69485170601911,40 L 116.72633366033713,40 L 116.75398115920606,40 L 118.23669699290895,40 L 118.27118917393467,40 L 118.30496463431571,40 L 119.79434597001419,40 L 119.8096121197461,40 L 119.85098481896085,40 L 121.3393627457568,40 L 121.37199145310632,40 L 121.40884881225952,40 L 122.88760476440049,40 L 122.9183520800577,40 L 122.95775379749955,40 L 124.43333826078776,40 L 124.46603864020176,40 L 124.50418609651541,40 L 125.9900375830388,40 L 126.0264649098052,40 L 127.53220539421875,40 L 127.60880491312004,40 L 129.08057283897529,40 L 129.11864862322443,40 L 129.15478926173296,40 L 130.6283131531677,40 L 130.66843159125423,40 L 130.6960432540909,40 L 132.17970874264802,40 L 132.21328710485176,40 L 132.25098661076248,40 L 133.72237825827926,40 L 133.7559387024669,40 L 133.79369196242595,40 L 135.2728600289376,40 L 135.30584709660945,40 L 135.34123517844105,40 L 136.82644161638424,40 L 136.8697852973719,40 L 138.4087995377152,40 L 138.44983179462372,40 L 139.92616881458886,40 L 139.95999802901824,40 L 141.47833487876224,40 L 141.5071470486788,40 L 141.55459395535726,40 L 143.0145897446235,40 L 143.04755889427923,40 L 143.08285738603024,40 L 144.56456981083056,40 L 144.6035594139017,40 L 144.64269236110178,40 L 146.1099449468955,40 L 146.14155232732634,40 L 146.17996855388174,40 L 147.65680727829817,40 L 147.69273290061324,40 L 147.73969602085657,40 L 149.20013976052573,40 L 149.2410286733053,40 L 149.28060957090833,40 L 150.75540564148739,40 L 150.78830311907865,40 L 150.8258592808604,40 L 152.30348639798603,40 L 152.3367780719319,40 L 152.37515846245503,40 L 153.84959617271176,40 L 153.88819157942834,40 L 153.92977929483646,40 L 155.39927163264485,40 L 155.43000103028592,40 L 155.4670375696003,40 L 156.9487499944006,40 L 156.97632582120508,40 L 157.01398949108358,40 L 158.49299629545018,40 L 158.52834854124953,40 L 158.56739189836904,40 L 160.04217005093196,40 L 160.0796903766815,40 L 160.11959379857464,40 L 161.59444362320204,40 L 161.6215894176197,40 L 161.66041775854578,40 L 163.1412701185725,40 L 163.1778407894678,40 L 163.2104515788012,40 L 164.68471010889675,40 L 164.7181809630038,40 L 164.756722615672,40 L 166.23013899901002,40 L 166.27074122353173,40 L 166.30788527094282,40 L 167.78169585063543,40 L 167.81233565819593,40 L 167.84673824914105,40 L 169.33595832269452,40 L 169.37335322233125,40 L 169.41544264219067,40 L 170.88283857211331,40 L 170.91623775415587,40 L 170.94963693619843,40 L 172.42746115150132,40 L 172.46455144486404,40 L 172.50103252567877,40 L 173.96896599608493,40 L 174.0092456963165,40 L 174.04759025080745,40 L 175.5158462455037,40 L 175.55610802771918,40 L 175.60029385546434,40 L 177.07844059505732,40 L 177.11046008985886,40 L 177.15186862510583,40 L 178.62268689610687,40 L 178.6503523129919,40 L 178.6854178705334,40 L 180.16641357468902,40 L 180.20302008161656,40 L 180.24014621101153,40 L 181.71530064191293,40 L 181.7472663826661,40 L 181.78860324584863,40 L 183.26307679213758,40 L 183.29523963106806,40 L 183.33333333333334,40" fill="none" stroke="none"/>
  </g>
  <!-- 📊 Total Contributions Chart -->
  <g transform="translate(526.6666666666667, 250)">
    <!-- Chart Background -->
    <rect x="0" y="0" width="213.33333333333334" height="200" fill="#ffffff" stroke="#e2e8f0" stroke-width="1" rx="8" filter="url(#shadow)">
      <animate attributeName="opacity" values="0;1" dur="0.5s" begin="2.8s" fill="freeze"/>
    </rect>
    
    <!-- Chart Title -->
    <text x="106.66666666666667" y="25" text-anchor="middle" fill="#1e293b" font-size="14" font-weight="bold" font-family="Arial, sans-serif">
      📊 Total Contributions
      <animate attributeName="opacity" values="0;1" dur="0.5s" begin="3s" fill="freeze"/>
    </text>
    
    <!-- Y-axis labels -->
    <text x="10" y="45" fill="#64748b" font-size="10" font-family="Arial, sans-serif">5,314
      <animate attributeName="opacity" values="0;1" dur="0.5s" begin="3.1999999999999997s" fill="freeze"/>
    </text>
    <text x="10" y="185" fill="#64748b" font-size="10" font-family="Arial, sans-serif">4,408
      <animate attributeName="opacity" values="0;1" dur="0.5s" begin="3.1999999999999997s" fill="freeze"/>
    </text>
    
    <!-- Chart Line with draw animation that follows the circle -->
    <path d="M 30,160 L 30.02313215880738,160 L 30.074252258789908,160 L 31.548833313175564,160 L 31.572359668337523,160 L 31.601924394930993,160 L 33.091771599048556,160 L 33.11940117990136,160 L 33.148607546172485,160 L 34.639189388950854,160 L 34.66579764288498,160 L 34.69650912250996,160 L 36.18834522641653,160 L 36.216315249575565,160 L 36.24190217659101,160 L 37.734311657013336,160 L 37.76197707389838,160 L 37.79104009604057,160 L 39.28932668574936,160 L 39.31847929797213,160 L 39.34895784338758,160 L 40.83158408700989,160 L 40.86089796137772,92.58278145695365 L 40.8913048347287,92.58278145695365 L 42.3859719851818,92.58278145695365 L 42.40679271991005,92.58278145695365 L 42.43512110339143,92.58278145695365 L 43.928301058506804,92.58278145695365 L 43.94822589242919,92.58278145695365 L 43.98630167667836,92.58278145695365 L 45.4786215670201,92.58278145695365 L 45.50741581892053,92.58278145695365 L 45.53176640282388,92.58278145695365 L 47.020681870103346,92.58278145695365 L 47.05331057745286,92.58278145695365 L 47.08506130201265,92.58278145695365 L 48.575947751065,92.58278145695365 L 48.59094513055515,92.58278145695365 L 48.62934343909443,92.58278145695365 L 50.12372390128965,92.58278145695365 L 50.15370074225382,92.58278145695365 L 50.1886767097147,92.58278145695365 L 51.67176882175606,92.58278145695365 L 51.698233731561245,92.58278145695365 L 51.73406976379575,92.58278145695365 L 53.21703644972429,92.58278145695365 L 53.24704912672069,92.58278145695365 L 53.28034080066655,92.58278145695365 L 54.768611219365795,92.58278145695365 L 54.79047119902884,92.58278145695365 L 54.82150520294393,92.58278145695365 L 56.31237373398017,92.58278145695365 L 56.337279776383156,92.58278145695365 L 56.3694067792814,92.58278145695365 L 57.863393045122045,92.58278145695365 L 57.89277859155435,92.58278145695365 L 57.91841927261814,92.58278145695365 L 59.410344966605294,92.58278145695365 L 59.44317077213211,92.58278145695365 L 59.46608791474608,92.58278145695365 L 60.96046837694131,92.58278145695365 L 60.98935221892232,92.58278145695365 L 61.02260805683595,92.58278145695365 L 62.50908667392346,92.58278145695365 L 62.537271713275906,92.58278145695365 L 62.57129802588258,92.58278145695365 L 64.05628944763237,92.58278145695365 L 64.08194804671227,92.58278145695365 L 64.1139675415138,92.58278145695365 L 65.60580364542038,92.58278145695365 L 65.63379158659554,92.58278145695365 L 65.66624111378388,92.58278145695365 L 67.15003202845381,92.58278145695365 L 67.18764194428394,92.58278145695365 L 67.2094123338664,92.58278145695365 L 68.6983815551942,92.58278145695365 L 68.72767751154592,92.58278145695365 L 68.75683012376871,92.58278145695365 L 70.24235908600201,92.58278145695365 L 70.27468318707753,92.58278145695365 L 70.30170355538235,92.58278145695365 L 71.38187323899498,92.58278145695365 L 71.79708742648015,92.58278145695365 L 71.82921442937838,92.58278145695365 L 71.86306156182388,92.58278145695365 L 73.34502483884984,92.58278145695365 L 73.3731202881217,92.58278145695365 L 73.40601776571299,92.58278145695365 L 74.89124212167229,92.58278145695365 L 74.91290500315806,92.58278145695365 L 74.94924273984384,92.58278145695365 L 76.44143720407277,92.58278145695365 L 76.46849340840983,92.58278145695365 L 76.49995744471173,92.58278145695365 L 77.98964338668424,92.58278145695365 L 78.02212874990482,92.58278145695365 L 78.05559960401186,92.58278145695365 L 79.5358785875228,92.58278145695365 L 79.56354400440783,92.58278145695365 L 79.59997133117422,92.58278145695365 L 81.08831342193793,92.58278145695365 L 81.11191144916435,92.58278145695365 L 81.14097447130655,92.58278145695365 L 82.63512199929224,92.58278145695365 L 82.6686286894315,92.58278145695365 L 82.70000313565282,92.58278145695365 L 84.18234269101725,92.58278145695365 L 84.21249871214259,92.58278145695365 L 84.2463637626042,92.58278145695365 L 85.72827328558182,92.58278145695365 L 85.75767675003024,92.58278145695365 L 85.79082507984717,92.58278145695365 L 87.2796151210138,92.58278145695365 L 87.30710135773768,92.58278145695365 L 87.33521472502565,92.58278145695365 L 88.82597574796519,92.58278145695365 L 88.85376659096306,92.58278145695365 L 88.88716577300562,92.58278145695365 L 90.36518708648579,92.58278145695365 L 90.40199069159063,92.58278145695365 L 90.43286343336067,92.58278145695365 L 91.92138470428554,92.58278145695365 L 91.94311925783578,92.58278145695365 L 91.98219845098751,92.58278145695365 L 93.4713468524765,92.58278145695365 L 93.50401139585824,92.58278145695365 L 93.5384319048195,92.58278145695365 L 95.0216673609898,92.58278145695365 L 95.05155461187337,92.58278145695365 L 95.08321574635256,92.58278145695365 L 96.56060992926864,92.58278145695365 L 96.5930773744731,92.58278145695365 L 96.62545522959698,92.58278145695365 L 98.11351063210282,92.58278145695365 L 98.14389958743769,92.58278145695365 L 98.17862470267293,92.58278145695365 L 99.66211101106886,92.58278145695365 L 99.6900810342279,92.58278145695365 L 99.72095377599793,92.58278145695365 L 101.21135643861513,92.58278145695365 L 101.2312812725375,92.58278145695365 L 101.28019745653762,92.58278145695365 L 102.75683908277676,92.58278145695365 L 102.7869951039021,92.58278145695365 L 102.81673901065675,92.58278145695365 L 104.3078225578864,92.58278145695365 L 104.34206388668647,92.58278145695365 L 104.37322331671437,92.58278145695365 L 105.85518659374034,92.58278145695365 L 105.88534261486569,92.58278145695365 L 105.92010356613316,92.58278145695365 L 107.40118886036939,92.58278145695365 L 107.43082525902732,92.58278145695365 L 107.45782770931602,92.58278145695365 L 108.95165271301161,92.58278145695365 L 108.98227460255602,92.58278145695365 L 109.01381031092238,92.58278145695365 L 110.50442798973299,92.58278145695365 L 110.53324015964954,92.58278145695365 L 110.56165813321151,92.58278145695365 L 112.04673914504187,92.58278145695365 L 112.07754021474743,40 L 112.10963138161343,40 L 113.60064325677862,40 L 113.6220194500065,40 L 113.65149458651938,40 L 115.14488955782815,40 L 115.16879219132858,40 L 115.21120413547813,40 L 116.69485170601911,40 L 116.72633366033713,40 L 116.75398115920606,40 L 118.23669699290895,40 L 118.27118917393467,40 L 118.30496463431571,40 L 119.79434597001419,40 L 119.8096121197461,40 L 119.85098481896085,40 L 121.3393627457568,40 L 121.37199145310632,40 L 121.40884881225952,40 L 122.88760476440049,40 L 122.9183520800577,40 L 122.95775379749955,40 L 124.43333826078776,40 L 124.46603864020176,40 L 124.50418609651541,40 L 125.9900375830388,40 L 126.0264649098052,40 L 127.53220539421875,40 L 127.60880491312004,40 L 129.08057283897529,40 L 129.11864862322443,40 L 129.15478926173296,40 L 130.6283131531677,40 L 130.66843159125423,40 L 130.6960432540909,40 L 132.17970874264802,40 L 132.21328710485176,40 L 132.25098661076248,40 L 133.72237825827926,40 L 133.7559387024669,40 L 133.79369196242595,40 L 135.2728600289376,40 L 135.30584709660945,40 L 135.34123517844105,40 L 136.82644161638424,40 L 136.8697852973719,40 L 138.4087995377152,40 L 138.44983179462372,40 L 139.92616881458886,40 L 139.95999802901824,40 L 141.47833487876224,40 L 141.5071470486788,40 L 141.55459395535726,40 L 143.0145897446235,40 L 143.04755889427923,40 L 143.08285738603024,40 L 144.56456981083056,40 L 144.6035594139017,40 L 144.64269236110178,40 L 146.1099449468955,40 L 146.14155232732634,40 L 146.17996855388174,40 L 147.65680727829817,40 L 147.69273290061324,40 L 147.73969602085657,40 L 149.20013976052573,40 L 149.2410286733053,40 L 149.28060957090833,40 L 150.75540564148739,40 L 150.78830311907865,40 L 150.8258592808604,40 L 152.30348639798603,40 L 152.3367780719319,40 L 152.37515846245503,40 L 153.84959617271176,40 L 153.88819157942834,40 L 153.92977929483646,40 L 155.39927163264485,40 L 155.43000103028592,40 L 155.4670375696003,40 L 156.9487499944006,40 L 156.97632582120508,40 L 157.01398949108358,40 L 158.49299629545018,40 L 158.52834854124953,40 L 158.56739189836904,40 L 160.04217005093196,40 L 160.0796903766815,40 L 160.11959379857464,40 L 161.59444362320204,40 L 161.6215894176197,40 L 161.66041775854578,40 L 163.1412701185725,40 L 163.1778407894678,40 L 163.2104515788012,40 L 164.68471010889675,40 L 164.7181809630038,40 L 164.756722615672,40 L 166.23013899901002,40 L 166.27074122353173,40 L 166.30788527094282,40 L 167.78169585063543,40 L 167.81233565819593,40 L 167.84673824914105,40 L 169.33595832269452,40 L 169.37335322233125,40 L 169.41544264219067,40 L 170.88283857211331,40 L 170.91623775415587,40 L 170.94963693619843,40 L 172.42746115150132,40 L 172.46455144486404,40 L 172.50103252567877,40 L 173.96896599608493,40 L 174.0092456963165,40 L 174.04759025080745,40 L 175.5158462455037,40 L 175.55610802771918,40 L 175.60029385546434,40 L 177.07844059505732,40 L 177.11046008985886,40 L 177.15186862510583,40 L 178.62268689610687,40 L 178.6503523129919,40 L 178.6854178705334,40 L 180.16641357468902,40 L 180.20302008161656,40 L 180.24014621101153,40 L 181.71530064191293,40 L 181.7472663826661,40 L 181.78860324584863,40 L 183.26307679213758,40 L 183.29523963106806,40 L 183.33333333333334,40" stroke="#f59e0b" stroke-width="2" fill="none" stroke-dasharray="14800" stroke-dashoffset="14800">
      <animate attributeName="stroke-dashoffset" values="14800;0" dur="3s" begin="3.5999999999999996s" fill="freeze"/>
    </path>
    
    <!-- Glow effect for the line that also follows the circle -->
    <path d="M 30,160 L 30.02313215880738,160 L 30.074252258789908,160 L 31.548833313175564,160 L 31.572359668337523,160 L 31.601924394930993,160 L 33.091771599048556,160 L 33.11940117990136,160 L 33.148607546172485,160 L 34.639189388950854,160 L 34.66579764288498,160 L 34.69650912250996,160 L 36.18834522641653,160 L 36.216315249575565,160 L 36.24190217659101,160 L 37.734311657013336,160 L 37.76197707389838,160 L 37.79104009604057,160 L 39.28932668574936,160 L 39.31847929797213,160 L 39.34895784338758,160 L 40.83158408700989,160 L 40.86089796137772,92.58278145695365 L 40.8913048347287,92.58278145695365 L 42.3859719851818,92.58278145695365 L 42.40679271991005,92.58278145695365 L 42.43512110339143,92.58278145695365 L 43.928301058506804,92.58278145695365 L 43.94822589242919,92.58278145695365 L 43.98630167667836,92.58278145695365 L 45.4786215670201,92.58278145695365 L 45.50741581892053,92.58278145695365 L 45.53176640282388,92.58278145695365 L 47.020681870103346,92.58278145695365 L 47.05331057745286,92.58278145695365 L 47.08506130201265,92.58278145695365 L 48.575947751065,92.58278145695365 L 48.59094513055515,92.58278145695365 L 48.62934343909443,92.58278145695365 L 50.12372390128965,92.58278145695365 L 50.15370074225382,92.58278145695365 L 50.1886767097147,92.58278145695365 L 51.67176882175606,92.58278145695365 L 51.698233731561245,92.58278145695365 L 51.73406976379575,92.58278145695365 L 53.21703644972429,92.58278145695365 L 53.24704912672069,92.58278145695365 L 53.28034080066655,92.58278145695365 L 54.768611219365795,92.58278145695365 L 54.79047119902884,92.58278145695365 L 54.82150520294393,92.58278145695365 L 56.31237373398017,92.58278145695365 L 56.337279776383156,92.58278145695365 L 56.3694067792814,92.58278145695365 L 57.863393045122045,92.58278145695365 L 57.89277859155435,92.58278145695365 L 57.91841927261814,92.58278145695365 L 59.410344966605294,92.58278145695365 L 59.44317077213211,92.58278145695365 L 59.46608791474608,92.58278145695365 L 60.96046837694131,92.58278145695365 L 60.98935221892232,92.58278145695365 L 61.02260805683595,92.58278145695365 L 62.50908667392346,92.58278145695365 L 62.537271713275906,92.58278145695365 L 62.57129802588258,92.58278145695365 L 64.05628944763237,92.58278145695365 L 64.08194804671227,92.58278145695365 L 64.1139675415138,92.58278145695365 L 65.60580364542038,92.58278145695365 L 65.63379158659554,92.58278145695365 L 65.66624111378388,92.58278145695365 L 67.15003202845381,92.58278145695365 L 67.18764194428394,92.58278145695365 L 67.2094123338664,92.58278145695365 L 68.6983815551942,92.58278145695365 L 68.72767751154592,92.58278145695365 L 68.75683012376871,92.58278145695365 L 70.24235908600201,92.58278145695365 L 70.27468318707753,92.58278145695365 L 70.30170355538235,92.58278145695365 L 71.38187323899498,92.58278145695365 L 71.79708742648015,92.58278145695365 L 71.82921442937838,92.58278145695365 L 71.86306156182388,92.58278145695365 L 73.34502483884984,92.58278145695365 L 73.3731202881217,92.58278145695365 L 73.40601776571299,92.58278145695365 L 74.89124212167229,92.58278145695365 L 74.91290500315806,92.58278145695365 L 74.94924273984384,92.58278145695365 L 76.44143720407277,92.58278145695365 L 76.46849340840983,92.58278145695365 L 76.49995744471173,92.58278145695365 L 77.98964338668424,92.58278145695365 L 78.02212874990482,92.58278145695365 L 78.05559960401186,92.58278145695365 L 79.5358785875228,92.58278145695365 L 79.56354400440783,92.58278145695365 L 79.59997133117422,92.58278145695365 L 81.08831342193793,92.58278145695365 L 81.11191144916435,92.58278145695365 L 81.14097447130655,92.58278145695365 L 82.63512199929224,92.58278145695365 L 82.6686286894315,92.58278145695365 L 82.70000313565282,92.58278145695365 L 84.18234269101725,92.58278145695365 L 84.21249871214259,92.58278145695365 L 84.2463637626042,92.58278145695365 L 85.72827328558182,92.58278145695365 L 85.75767675003024,92.58278145695365 L 85.79082507984717,92.58278145695365 L 87.2796151210138,92.58278145695365 L 87.30710135773768,92.58278145695365 L 87.33521472502565,92.58278145695365 L 88.82597574796519,92.58278145695365 L 88.85376659096306,92.58278145695365 L 88.88716577300562,92.58278145695365 L 90.36518708648579,92.58278145695365 L 90.40199069159063,92.58278145695365 L 90.43286343336067,92.58278145695365 L 91.92138470428554,92.58278145695365 L 91.94311925783578,92.58278145695365 L 91.98219845098751,92.58278145695365 L 93.4713468524765,92.58278145695365 L 93.50401139585824,92.58278145695365 L 93.5384319048195,92.58278145695365 L 95.0216673609898,92.58278145695365 L 95.05155461187337,92.58278145695365 L 95.08321574635256,92.58278145695365 L 96.56060992926864,92.58278145695365 L 96.5930773744731,92.58278145695365 L 96.62545522959698,92.58278145695365 L 98.11351063210282,92.58278145695365 L 98.14389958743769,92.58278145695365 L 98.17862470267293,92.58278145695365 L 99.66211101106886,92.58278145695365 L 99.6900810342279,92.58278145695365 L 99.72095377599793,92.58278145695365 L 101.21135643861513,92.58278145695365 L 101.2312812725375,92.58278145695365 L 101.28019745653762,92.58278145695365 L 102.75683908277676,92.58278145695365 L 102.7869951039021,92.58278145695365 L 102.81673901065675,92.58278145695365 L 104.3078225578864,92.58278145695365 L 104.34206388668647,92.58278145695365 L 104.37322331671437,92.58278145695365 L 105.85518659374034,92.58278145695365 L 105.88534261486569,92.58278145695365 L 105.92010356613316,92.58278145695365 L 107.40118886036939,92.58278145695365 L 107.43082525902732,92.58278145695365 L 107.45782770931602,92.58278145695365 L 108.95165271301161,92.58278145695365 L 108.98227460255602,92.58278145695365 L 109.01381031092238,92.58278145695365 L 110.50442798973299,92.58278145695365 L 110.53324015964954,92.58278145695365 L 110.56165813321151,92.58278145695365 L 112.04673914504187,92.58278145695365 L 112.07754021474743,40 L 112.10963138161343,40 L 113.60064325677862,40 L 113.6220194500065,40 L 113.65149458651938,40 L 115.14488955782815,40 L 115.16879219132858,40 L 115.21120413547813,40 L 116.69485170601911,40 L 116.72633366033713,40 L 116.75398115920606,40 L 118.23669699290895,40 L 118.27118917393467,40 L 118.30496463431571,40 L 119.79434597001419,40 L 119.8096121197461,40 L 119.85098481896085,40 L 121.3393627457568,40 L 121.37199145310632,40 L 121.40884881225952,40 L 122.88760476440049,40 L 122.9183520800577,40 L 122.95775379749955,40 L 124.43333826078776,40 L 124.46603864020176,40 L 124.50418609651541,40 L 125.9900375830388,40 L 126.0264649098052,40 L 127.53220539421875,40 L 127.60880491312004,40 L 129.08057283897529,40 L 129.11864862322443,40 L 129.15478926173296,40 L 130.6283131531677,40 L 130.66843159125423,40 L 130.6960432540909,40 L 132.17970874264802,40 L 132.21328710485176,40 L 132.25098661076248,40 L 133.72237825827926,40 L 133.7559387024669,40 L 133.79369196242595,40 L 135.2728600289376,40 L 135.30584709660945,40 L 135.34123517844105,40 L 136.82644161638424,40 L 136.8697852973719,40 L 138.4087995377152,40 L 138.44983179462372,40 L 139.92616881458886,40 L 139.95999802901824,40 L 141.47833487876224,40 L 141.5071470486788,40 L 141.55459395535726,40 L 143.0145897446235,40 L 143.04755889427923,40 L 143.08285738603024,40 L 144.56456981083056,40 L 144.6035594139017,40 L 144.64269236110178,40 L 146.1099449468955,40 L 146.14155232732634,40 L 146.17996855388174,40 L 147.65680727829817,40 L 147.69273290061324,40 L 147.73969602085657,40 L 149.20013976052573,40 L 149.2410286733053,40 L 149.28060957090833,40 L 150.75540564148739,40 L 150.78830311907865,40 L 150.8258592808604,40 L 152.30348639798603,40 L 152.3367780719319,40 L 152.37515846245503,40 L 153.84959617271176,40 L 153.88819157942834,40 L 153.92977929483646,40 L 155.39927163264485,40 L 155.43000103028592,40 L 155.4670375696003,40 L 156.9487499944006,40 L 156.97632582120508,40 L 157.01398949108358,40 L 158.49299629545018,40 L 158.52834854124953,40 L 158.56739189836904,40 L 160.04217005093196,40 L 160.0796903766815,40 L 160.11959379857464,40 L 161.59444362320204,40 L 161.6215894176197,40 L 161.66041775854578,40 L 163.1412701185725,40 L 163.1778407894678,40 L 163.2104515788012,40 L 164.68471010889675,40 L 164.7181809630038,40 L 164.756722615672,40 L 166.23013899901002,40 L 166.27074122353173,40 L 166.30788527094282,40 L 167.78169585063543,40 L 167.81233565819593,40 L 167.84673824914105,40 L 169.33595832269452,40 L 169.37335322233125,40 L 169.41544264219067,40 L 170.88283857211331,40 L 170.91623775415587,40 L 170.94963693619843,40 L 172.42746115150132,40 L 172.46455144486404,40 L 172.50103252567877,40 L 173.96896599608493,40 L 174.0092456963165,40 L 174.04759025080745,40 L 175.5158462455037,40 L 175.55610802771918,40 L 175.60029385546434,40 L 177.07844059505732,40 L 177.11046008985886,40 L 177.15186862510583,40 L 178.62268689610687,40 L 178.6503523129919,40 L 178.6854178705334,40 L 180.16641357468902,40 L 180.20302008161656,40 L 180.24014621101153,40 L 181.71530064191293,40 L 181.7472663826661,40 L 181.78860324584863,40 L 183.26307679213758,40 L 183.29523963106806,40 L 183.33333333333334,40" stroke="#f59e0b" stroke-width="4" fill="none" opacity="0.4" stroke-dasharray="14800" stroke-dashoffset="14800">
      <animate attributeName="stroke-dashoffset" values="14800;0" dur="3s" begin="3.5999999999999996s" fill="freeze"/>
    </path>
    
    <!-- Animated circle that moves along the path and draws the line -->
    <circle r="5" fill="#f59e0b" opacity="0" filter="url(#trailGlow)">
      <animate attributeName="opacity" values="0;1;1;1" dur="3.2s" begin="3.4s" fill="freeze"/>
      <animate attributeName="r" values="5;6;5" dur="1s" begin="3.4s" repeatCount="3"/>
      <animateMotion dur="3s" begin="3.4s" fill="freeze">
        <mpath href="#path_totalContributions_526.6666666666667"/>
      </animateMotion>
    </circle>
    
    <!-- Small trail dots that fade out -->
    <circle r="2" fill="#f59e0b" opacity="0">
      <animate attributeName="opacity" values="0;0.6;0" dur="0.8s" begin="3.8s" fill="freeze"/>
      <animateMotion dur="3s" begin="3.4s" fill="freeze">
        <mpath href="#path_totalContributions_526.6666666666667"/>
      </animateMotion>
    </circle>
    
    <!-- Hidden path for motion animation -->
    <path id="path_totalContributions_526.6666666666667" d="M 30,160 L 30.02313215880738,160 L 30.074252258789908,160 L 31.548833313175564,160 L 31.572359668337523,160 L 31.601924394930993,160 L 33.091771599048556,160 L 33.11940117990136,160 L 33.148607546172485,160 L 34.639189388950854,160 L 34.66579764288498,160 L 34.69650912250996,160 L 36.18834522641653,160 L 36.216315249575565,160 L 36.24190217659101,160 L 37.734311657013336,160 L 37.76197707389838,160 L 37.79104009604057,160 L 39.28932668574936,160 L 39.31847929797213,160 L 39.34895784338758,160 L 40.83158408700989,160 L 40.86089796137772,92.58278145695365 L 40.8913048347287,92.58278145695365 L 42.3859719851818,92.58278145695365 L 42.40679271991005,92.58278145695365 L 42.43512110339143,92.58278145695365 L 43.928301058506804,92.58278145695365 L 43.94822589242919,92.58278145695365 L 43.98630167667836,92.58278145695365 L 45.4786215670201,92.58278145695365 L 45.50741581892053,92.58278145695365 L 45.53176640282388,92.58278145695365 L 47.020681870103346,92.58278145695365 L 47.05331057745286,92.58278145695365 L 47.08506130201265,92.58278145695365 L 48.575947751065,92.58278145695365 L 48.59094513055515,92.58278145695365 L 48.62934343909443,92.58278145695365 L 50.12372390128965,92.58278145695365 L 50.15370074225382,92.58278145695365 L 50.1886767097147,92.58278145695365 L 51.67176882175606,92.58278145695365 L 51.698233731561245,92.58278145695365 L 51.73406976379575,92.58278145695365 L 53.21703644972429,92.58278145695365 L 53.24704912672069,92.58278145695365 L 53.28034080066655,92.58278145695365 L 54.768611219365795,92.58278145695365 L 54.79047119902884,92.58278145695365 L 54.82150520294393,92.58278145695365 L 56.31237373398017,92.58278145695365 L 56.337279776383156,92.58278145695365 L 56.3694067792814,92.58278145695365 L 57.863393045122045,92.58278145695365 L 57.89277859155435,92.58278145695365 L 57.91841927261814,92.58278145695365 L 59.410344966605294,92.58278145695365 L 59.44317077213211,92.58278145695365 L 59.46608791474608,92.58278145695365 L 60.96046837694131,92.58278145695365 L 60.98935221892232,92.58278145695365 L 61.02260805683595,92.58278145695365 L 62.50908667392346,92.58278145695365 L 62.537271713275906,92.58278145695365 L 62.57129802588258,92.58278145695365 L 64.05628944763237,92.58278145695365 L 64.08194804671227,92.58278145695365 L 64.1139675415138,92.58278145695365 L 65.60580364542038,92.58278145695365 L 65.63379158659554,92.58278145695365 L 65.66624111378388,92.58278145695365 L 67.15003202845381,92.58278145695365 L 67.18764194428394,92.58278145695365 L 67.2094123338664,92.58278145695365 L 68.6983815551942,92.58278145695365 L 68.72767751154592,92.58278145695365 L 68.75683012376871,92.58278145695365 L 70.24235908600201,92.58278145695365 L 70.27468318707753,92.58278145695365 L 70.30170355538235,92.58278145695365 L 71.38187323899498,92.58278145695365 L 71.79708742648015,92.58278145695365 L 71.82921442937838,92.58278145695365 L 71.86306156182388,92.58278145695365 L 73.34502483884984,92.58278145695365 L 73.3731202881217,92.58278145695365 L 73.40601776571299,92.58278145695365 L 74.89124212167229,92.58278145695365 L 74.91290500315806,92.58278145695365 L 74.94924273984384,92.58278145695365 L 76.44143720407277,92.58278145695365 L 76.46849340840983,92.58278145695365 L 76.49995744471173,92.58278145695365 L 77.98964338668424,92.58278145695365 L 78.02212874990482,92.58278145695365 L 78.05559960401186,92.58278145695365 L 79.5358785875228,92.58278145695365 L 79.56354400440783,92.58278145695365 L 79.59997133117422,92.58278145695365 L 81.08831342193793,92.58278145695365 L 81.11191144916435,92.58278145695365 L 81.14097447130655,92.58278145695365 L 82.63512199929224,92.58278145695365 L 82.6686286894315,92.58278145695365 L 82.70000313565282,92.58278145695365 L 84.18234269101725,92.58278145695365 L 84.21249871214259,92.58278145695365 L 84.2463637626042,92.58278145695365 L 85.72827328558182,92.58278145695365 L 85.75767675003024,92.58278145695365 L 85.79082507984717,92.58278145695365 L 87.2796151210138,92.58278145695365 L 87.30710135773768,92.58278145695365 L 87.33521472502565,92.58278145695365 L 88.82597574796519,92.58278145695365 L 88.85376659096306,92.58278145695365 L 88.88716577300562,92.58278145695365 L 90.36518708648579,92.58278145695365 L 90.40199069159063,92.58278145695365 L 90.43286343336067,92.58278145695365 L 91.92138470428554,92.58278145695365 L 91.94311925783578,92.58278145695365 L 91.98219845098751,92.58278145695365 L 93.4713468524765,92.58278145695365 L 93.50401139585824,92.58278145695365 L 93.5384319048195,92.58278145695365 L 95.0216673609898,92.58278145695365 L 95.05155461187337,92.58278145695365 L 95.08321574635256,92.58278145695365 L 96.56060992926864,92.58278145695365 L 96.5930773744731,92.58278145695365 L 96.62545522959698,92.58278145695365 L 98.11351063210282,92.58278145695365 L 98.14389958743769,92.58278145695365 L 98.17862470267293,92.58278145695365 L 99.66211101106886,92.58278145695365 L 99.6900810342279,92.58278145695365 L 99.72095377599793,92.58278145695365 L 101.21135643861513,92.58278145695365 L 101.2312812725375,92.58278145695365 L 101.28019745653762,92.58278145695365 L 102.75683908277676,92.58278145695365 L 102.7869951039021,92.58278145695365 L 102.81673901065675,92.58278145695365 L 104.3078225578864,92.58278145695365 L 104.34206388668647,92.58278145695365 L 104.37322331671437,92.58278145695365 L 105.85518659374034,92.58278145695365 L 105.88534261486569,92.58278145695365 L 105.92010356613316,92.58278145695365 L 107.40118886036939,92.58278145695365 L 107.43082525902732,92.58278145695365 L 107.45782770931602,92.58278145695365 L 108.95165271301161,92.58278145695365 L 108.98227460255602,92.58278145695365 L 109.01381031092238,92.58278145695365 L 110.50442798973299,92.58278145695365 L 110.53324015964954,92.58278145695365 L 110.56165813321151,92.58278145695365 L 112.04673914504187,92.58278145695365 L 112.07754021474743,40 L 112.10963138161343,40 L 113.60064325677862,40 L 113.6220194500065,40 L 113.65149458651938,40 L 115.14488955782815,40 L 115.16879219132858,40 L 115.21120413547813,40 L 116.69485170601911,40 L 116.72633366033713,40 L 116.75398115920606,40 L 118.23669699290895,40 L 118.27118917393467,40 L 118.30496463431571,40 L 119.79434597001419,40 L 119.8096121197461,40 L 119.85098481896085,40 L 121.3393627457568,40 L 121.37199145310632,40 L 121.40884881225952,40 L 122.88760476440049,40 L 122.9183520800577,40 L 122.95775379749955,40 L 124.43333826078776,40 L 124.46603864020176,40 L 124.50418609651541,40 L 125.9900375830388,40 L 126.0264649098052,40 L 127.53220539421875,40 L 127.60880491312004,40 L 129.08057283897529,40 L 129.11864862322443,40 L 129.15478926173296,40 L 130.6283131531677,40 L 130.66843159125423,40 L 130.6960432540909,40 L 132.17970874264802,40 L 132.21328710485176,40 L 132.25098661076248,40 L 133.72237825827926,40 L 133.7559387024669,40 L 133.79369196242595,40 L 135.2728600289376,40 L 135.30584709660945,40 L 135.34123517844105,40 L 136.82644161638424,40 L 136.8697852973719,40 L 138.4087995377152,40 L 138.44983179462372,40 L 139.92616881458886,40 L 139.95999802901824,40 L 141.47833487876224,40 L 141.5071470486788,40 L 141.55459395535726,40 L 143.0145897446235,40 L 143.04755889427923,40 L 143.08285738603024,40 L 144.56456981083056,40 L 144.6035594139017,40 L 144.64269236110178,40 L 146.1099449468955,40 L 146.14155232732634,40 L 146.17996855388174,40 L 147.65680727829817,40 L 147.69273290061324,40 L 147.73969602085657,40 L 149.20013976052573,40 L 149.2410286733053,40 L 149.28060957090833,40 L 150.75540564148739,40 L 150.78830311907865,40 L 150.8258592808604,40 L 152.30348639798603,40 L 152.3367780719319,40 L 152.37515846245503,40 L 153.84959617271176,40 L 153.88819157942834,40 L 153.92977929483646,40 L 155.39927163264485,40 L 155.43000103028592,40 L 155.4670375696003,40 L 156.9487499944006,40 L 156.97632582120508,40 L 157.01398949108358,40 L 158.49299629545018,40 L 158.52834854124953,40 L 158.56739189836904,40 L 160.04217005093196,40 L 160.0796903766815,40 L 160.11959379857464,40 L 161.59444362320204,40 L 161.6215894176197,40 L 161.66041775854578,40 L 163.1412701185725,40 L 163.1778407894678,40 L 163.2104515788012,40 L 164.68471010889675,40 L 164.7181809630038,40 L 164.756722615672,40 L 166.23013899901002,40 L 166.27074122353173,40 L 166.30788527094282,40 L 167.78169585063543,40 L 167.81233565819593,40 L 167.84673824914105,40 L 169.33595832269452,40 L 169.37335322233125,40 L 169.41544264219067,40 L 170.88283857211331,40 L 170.91623775415587,40 L 170.94963693619843,40 L 172.42746115150132,40 L 172.46455144486404,40 L 172.50103252567877,40 L 173.96896599608493,40 L 174.0092456963165,40 L 174.04759025080745,40 L 175.5158462455037,40 L 175.55610802771918,40 L 175.60029385546434,40 L 177.07844059505732,40 L 177.11046008985886,40 L 177.15186862510583,40 L 178.62268689610687,40 L 178.6503523129919,40 L 178.6854178705334,40 L 180.16641357468902,40 L 180.20302008161656,40 L 180.24014621101153,40 L 181.71530064191293,40 L 181.7472663826661,40 L 181.78860324584863,40 L 183.26307679213758,40 L 183.29523963106806,40 L 183.33333333333334,40" fill="none" stroke="none"/>
  </g>
  
  <!-- Footer -->
  <text x="400" y="580" text-anchor="middle" fill="#94a3b8" font-size="12" font-family="Arial, sans-serif">
    Generated by GitHub User Rank Tracker • 3/10/2026
    <animate attributeName="opacity" values="0;1" dur="0.5s" begin="5s" fill="freeze"/>
  </text>
</svg>