<svg width="800" height="600" xmlns="http://www.w3.org/2000/svg">
  <defs>
    <linearGradient id="bgGradient" x1="0%" y1="0%" x2="100%" y2="100%">
      <stop offset="0%" style="stop-color:#f8fafc;stop-opacity:1" />
      <stop offset="100%" style="stop-color:#e2e8f0;stop-opacity:1" />
    </linearGradient>
    <filter id="shadow" x="-20%" y="-20%" width="140%" height="140%">
      <feDropShadow dx="2" dy="2" stdDeviation="3" flood-color="#00000020" flood-opacity="0.1"/>
    </filter>
    <!-- Trail effect filter -->
    <filter id="trailGlow" x="-50%" y="-50%" width="200%" height="200%">
      <feGaussianBlur stdDeviation="3" result="coloredBlur"/>
      <feMerge> 
        <feMergeNode in="coloredBlur"/>
        <feMergeNode in="SourceGraphic"/>
      </feMerge>
    </filter>
  </defs>
  
  <!-- Background -->
  <rect width="800" height="600" fill="url(#bgGradient)" rx="12"/>
  
  <!-- Header -->
  <text x="400" y="40" text-anchor="middle" fill="#0f172a" font-size="24" font-weight="bold" font-family="Arial, sans-serif">
    GitHub Progress Report
    <animate attributeName="opacity" values="0;1" dur="0.8s" begin="0s" fill="freeze"/>
    <animateTransform attributeName="transform" type="translate" values="0,-20;0,0" dur="0.8s" begin="0s" fill="freeze"/>
  </text>
  
  <!-- User Info -->
  <text x="400" y="70" text-anchor="middle" fill="#475569" font-size="16" font-family="Arial, sans-serif">
    @maifeeulasad • BANGLADESH • 100 days analyzed
    <animate attributeName="opacity" values="0;1" dur="0.6s" begin="0.3s" fill="freeze"/>
  </text>
  
  <!-- Progress Cards -->
  <!-- Followers Card -->
  <g transform="translate(60, 100)">
    <rect width="206.66666666666666" height="120" fill="#ffffff" stroke="#e2e8f0" stroke-width="1" rx="8" filter="url(#shadow)">
      <animate attributeName="opacity" values="0;1" dur="0.6s" begin="0.2s" fill="freeze"/>
      <animateTransform attributeName="transform" type="scale" values="0.8;1" dur="0.6s" begin="0.2s" fill="freeze"/>
    </rect>
    <text x="103.33333333333333" y="25" text-anchor="middle" fill="#64748b" font-size="14" font-weight="bold" font-family="Arial, sans-serif">FOLLOWERS
      <animate attributeName="opacity" values="0;1" dur="0.5s" begin="0.4s" fill="freeze"/>
    </text>
    
    <text x="103.33333333333333" y="50" text-anchor="middle" fill="#ef4444" font-size="32" font-weight="bold" font-family="Arial, sans-serif">
      ↘
      <animate attributeName="opacity" values="0;1" dur="0.5s" begin="0.6s" fill="freeze"/>
      <animateTransform attributeName="transform" type="scale" values="0;1.2;1" dur="0.8s" begin="0.6s" fill="freeze"/>
    </text>
    
    <text x="103.33333333333333" y="75" text-anchor="middle" fill="#1e293b" font-size="18" font-weight="bold" font-family="Arial, sans-serif">
      -15
      <animate attributeName="opacity" values="0;1" dur="0.5s" begin="0.8s" fill="freeze"/>
    </text>
    
    <text x="103.33333333333333" y="95" text-anchor="middle" fill="#64748b" font-size="12" font-family="Arial, sans-serif">
      #466 → #481
      <animate attributeName="opacity" values="0;1" dur="0.5s" begin="1s" fill="freeze"/>
    </text>
  </g>
  
  <!-- Public Contributions Card -->
  <g transform="translate(296.66666666666663, 100)">
    <rect width="206.66666666666666" height="120" fill="#ffffff" stroke="#e2e8f0" stroke-width="1" rx="8" filter="url(#shadow)">
      <animate attributeName="opacity" values="0;1" dur="0.6s" begin="0.4s" fill="freeze"/>
      <animateTransform attributeName="transform" type="scale" values="0.8;1" dur="0.6s" begin="0.4s" fill="freeze"/>
    </rect>
    <text x="103.33333333333333" y="25" text-anchor="middle" fill="#64748b" font-size="14" font-weight="bold" font-family="Arial, sans-serif">PUBLIC
      <animate attributeName="opacity" values="0;1" dur="0.5s" begin="0.6s" fill="freeze"/>
    </text>
    
    <text x="103.33333333333333" y="50" text-anchor="middle" fill="#6b7280" font-size="32" font-weight="bold" font-family="Arial, sans-serif">
      →
      <animate attributeName="opacity" values="0;1" dur="0.5s" begin="0.8s" fill="freeze"/>
      <animateTransform attributeName="transform" type="scale" values="0;1.2;1" dur="0.8s" begin="0.8s" fill="freeze"/>
    </text>
    
    <text x="103.33333333333333" y="75" text-anchor="middle" fill="#1e293b" font-size="18" font-weight="bold" font-family="Arial, sans-serif">
      0
      <animate attributeName="opacity" values="0;1" dur="0.5s" begin="1s" fill="freeze"/>
    </text>
    
    <text x="103.33333333333333" y="95" text-anchor="middle" fill="#64748b" font-size="12" font-family="Arial, sans-serif">
      #7 → #7
      <animate attributeName="opacity" values="0;1" dur="0.5s" begin="1.2s" fill="freeze"/>
    </text>
  </g>
  
  <!-- Total Contributions Card -->
  <g transform="translate(533.3333333333333, 100)">
    <rect width="206.66666666666666" height="120" fill="#ffffff" stroke="#e2e8f0" stroke-width="1" rx="8" filter="url(#shadow)">
      <animate attributeName="opacity" values="0;1" dur="0.6s" begin="0.6s" fill="freeze"/>
      <animateTransform attributeName="transform" type="scale" values="0.8;1" dur="0.6s" begin="0.6s" fill="freeze"/>
    </rect>
    <text x="103.33333333333333" y="25" text-anchor="middle" fill="#64748b" font-size="14" font-weight="bold" font-family="Arial, sans-serif">TOTAL
      <animate attributeName="opacity" values="0;1" dur="0.5s" begin="0.8s" fill="freeze"/>
    </text>
    
    <text x="103.33333333333333" y="50" text-anchor="middle" fill="#22c55e" font-size="32" font-weight="bold" font-family="Arial, sans-serif">
      ↗
      <animate attributeName="opacity" values="0;1" dur="0.5s" begin="1s" fill="freeze"/>
      <animateTransform attributeName="transform" type="scale" values="0;1.2;1" dur="0.8s" begin="1s" fill="freeze"/>
    </text>
    
    <text x="103.33333333333333" y="75" text-anchor="middle" fill="#1e293b" font-size="18" font-weight="bold" font-family="Arial, sans-serif">
      +3
      <animate attributeName="opacity" values="0;1" dur="0.5s" begin="1.2s" fill="freeze"/>
    </text>
    
    <text x="103.33333333333333" y="95" text-anchor="middle" fill="#64748b" font-size="12" font-family="Arial, sans-serif">
      #15 → #12
      <animate attributeName="opacity" values="0;1" dur="0.5s" begin="1.4s" fill="freeze"/>
    </text>
  </g>
  
  <!-- Timeline Charts (if we have snapshots) -->
  
  <!-- 👥 Followers Count Chart -->
  <g transform="translate(60, 250)">
    <!-- Chart Background -->
    <rect x="0" y="0" width="213.33333333333334" height="200" fill="#ffffff" stroke="#e2e8f0" stroke-width="1" rx="8" filter="url(#shadow)">
      <animate attributeName="opacity" values="0;1" dur="0.5s" begin="1.8s" fill="freeze"/>
    </rect>
    
    <!-- Chart Title -->
    <text x="106.66666666666667" y="25" text-anchor="middle" fill="#1e293b" font-size="14" font-weight="bold" font-family="Arial, sans-serif">
      👥 Followers Count
      <animate attributeName="opacity" values="0;1" dur="0.5s" begin="2s" fill="freeze"/>
    </text>
    
    <!-- Y-axis labels -->
    <text x="10" y="45" fill="#64748b" font-size="10" font-family="Arial, sans-serif">154
      <animate attributeName="opacity" values="0;1" dur="0.5s" begin="2.2s" fill="freeze"/>
    </text>
    <text x="10" y="185" fill="#64748b" font-size="10" font-family="Arial, sans-serif">150
      <animate attributeName="opacity" values="0;1" dur="0.5s" begin="2.2s" fill="freeze"/>
    </text>
    
    <!-- Chart Line with draw animation that follows the circle -->
    <path d="M 30,160 L 30.030157254551607,160 L 30.06491962759386,160 L 31.546065500428785,160 L 31.575703111259656,160 L 31.60270666598887,160 L 33.09659276935629,160 L 33.12721591138166,160 L 33.15875290960556,160 L 34.649431556903615,160 L 34.678244905280906,160 L 34.7066640411804,160 L 36.19180579504029,160 L 36.22260812455556,70 L 36.25470060399818,70 L 37.745773463774036,70 L 37.76715053132013,70 L 37.79662687341008,70 L 39.290082926801716,70 L 39.313986537955515,70 L 39.356400216816866,70 L 40.84010847075748,70 L 40.87159171273441,70 L 40.89924034242729,70 L 42.382016821420386,70 L 42.416510413227776,70 L 42.45028725507554,70 L 43.93972950869322,70 L 43.954996282833434,70 L 43.99637067425331,70 L 45.48480947792751,70 L 45.517439519839854,70 L 45.55429838651404,70 L 47.03311482198015,70 L 47.063863395248454,70 L 47.103266724279344,70 L 48.57891154117407,70 L 48.61161325808238,70 L 48.64976227468391,70 L 50.13567453475039,70 L 50.1721033514488,70 L 51.67790542289514,70 L 51.75450807483104,70 L 53.226336198190715,70 L 53.26441353979628,70 L 53.300555656510824,70 L 54.77413981727161,70 L 54.81425989626213,70 L 54.84187268845704,70 L 56.325598861146645,70 L 56.3591785967555,70 L 56.39687964463226,70 L 57.86833147426313,70 L 57.901893291122995,70 L 57.939648095246724,70 L 59.41887666193962,70 L 59.45186507883179,70 L 59.48725460808872,70 L 60.97252179319154,70 L 61.015867247000415,70 L 62.55494443532277,70 L 62.59597837051182,70 L 64.07237577486416,70 L 64.1062063729589,70 L 65.6246053249458,70 L 65.6534186733231,70 L 65.70086752065087,70 L 67.16092302592357,70 L 67.19389352406674,70 L 67.22919345957871,70 L 68.71096648862832,70 L 68.74995768643241,70 L 68.78909223422843,70 L 70.25640483284242,70 L 70.28801350606228,70 L 70.32643130389867,70 L 71.80333043322277,70 L 71.83925752494943,70 L 71.88622256605444,70 L 73.34672604005192,70 L 73.38761662524904,70 L 73.42719914176983,70 L 74.90205553370897,70 L 74.93495435685617,70 L 74.972512054741,70 L 76.45019960902069,70 L 76.4834926446457,70 L 76.5218746049841,70 L 77.99637262194341,70 L 78.03496960726972,70 L 78.07655902367748,70 L 79.54611146591532,70 L 79.57684212043463,70 L 79.61388017459873,70 L 81.09565320364834,70 L 81.12323015834525,70 L 81.16089536872403,70 L 82.63996266667601,70 L 82.67531635843497,70 L 82.71436131248603,70 L 84.18919978567618,70 L 84.22672164606303,70 L 84.26662670006567,70 L 85.74153684825177,70 L 85.7686837529729,70 L 85.80751368203609,70 L 87.28842661113413,70 L 87.32499877782446,70 L 87.35761090098782,70 L 88.83192973045723,70 L 88.86540195357213,70 L 88.90394518265146,70 L 90.37742183091831,70 L 90.41802571613158,70 L 90.4551712827896,70 L 91.92904214353425,70 L 91.95968320430862,70 L 91.99408720237105,70 L 93.48336818724782,70 L 93.52076461639172,70 L 93.56285575777125,70 L 95.03031170637715,70 L 95.0637122544961,70 L 95.09711280261504,70 L 96.57499746313364,70 L 96.61208927354471,70 L 96.64857184649009,70 L 98.11656535756572,70 L 98.15684670529716,70 L 98.19519282813758,70 L 99.66350887669506,70 L 99.7037723056775,70 L 99.74795994068894,70 L 101.22616713868938,70 L 101.25818794313602,70 L 101.29959817205389,70 L 102.77047660171705,70 L 102.79814315015894,70 L 102.83321014193403,70 L 104.31426642102399,70 L 104.35087442521231,70 L 104.38800207312136,70 L 105.86321684004031,70 L 105.89518388823998,70 L 105.93652244216189,70 L 107.4110562966192,70 L 107.44322045105777,70 L 107.48131571141232,70 L 108.95972001565164,70 L 108.99123909512655,70 L 109.02537431195412,70 L 110.50619764730722,40 L 110.536032364377,40 L 112.05314116643656,40 L 112.08956998313496,40 L 112.1239739811974,40 L 113.60289792915745,40 L 113.62798417774465,40 L 113.67068455658985,40 L 115.15948173524387,40 L 115.19732613311254,40 L 116.70009993597944,40 L 116.73952118375931,40 L 116.79098383086104,40 L 118.25059136740896,40 L 118.28917043398627,40 L 118.31291277639914,40 L 119.80079609885463,40 L 119.83666943433433,40 L 119.87449591345401,40 L 121.34990778661185,40 L 121.3840967596864,40 L 121.42285501375362,40 L 122.8964212557654,40 L 122.92715191028473,40 L 122.96578473310899,40 L 124.44445781858319,40 L 124.47696242925261,40 L 124.5088936399543,40 L 125.99210016892316,40 L 126.02922781683222,40 L 126.07029758951926,40 L 127.5433621065593,40 L 127.5797909232577,40 L 127.62431901449997,40 L 129.08213467614883,40 L 129.11947734904572,40 L 129.1624106716278,40 L 130.63744625105687,40 L 130.67308664279966,40 L 130.7098200782309,40 L 132.1865400200651,40 L 132.2282727864648,40 L 132.27246042147624,40 L 133.73527541409354,40 L 133.7729406244723,40 L 133.81933226560963,40 L 135.28055248956673,40 L 135.31999165609557,40 L 135.35643839154298,40 L 136.83507563951918,40 L 136.8710385687438,40 L 138.38667803338615,40 L 138.41959477528235,40 L 139.92894475902887,40 L 139.96619783818085,40 L 140.01043922943927,40 L 141.4751177719516,40 L 141.5221544880526,40 L 143.0265947345756,40 L 143.0585976202733,40 L 143.10077835539775,40 L 144.5713342475791,40 L 144.6102537703872,40 L 144.65451308039462,40 L 146.11524949812895,40 L 146.15282511476278,40 L 146.18464881297052,40 L 147.668661685644,40 L 147.71191754570793,40 L 149.21789880464416,40 L 149.25671081495835,40 L 150.76627582369275,40 L 150.80483697152107,40 L 152.31406152402468,40 L 152.35224637812416,40 L 153.85677621839216,40 L 153.89207615390416,40 L 153.92287848341942,40 L 155.4131091619927,40 L 155.44882122873148,40 L 156.95885212493965,40 L 156.9967502790553,40 L 157.0374795955115,40 L 158.5090747751343,40 L 158.55059251654612,40 L 160.05625123800053,40 L 160.10049262925895,40 L 161.6080328193574,40 L 161.6514857856602,40 L 163.16280683179573,40 L 163.2001136671947,40 L 164.7041776199889,40 L 164.74854444249027,40 L 166.25233961404962,40 L 166.29446659292714,40 L 167.78955325247694,40 L 167.8343142874561,40 L 169.34631624605325,40 L 169.3924749434537,40 L 170.88981936537635,40 L 170.93995602505277,40 L 172.44654652145468,40 L 172.48734751290687,40 L 173.99160857194,40 L 174.03206910716133,40 L 175.54735019682383,40 L 175.5854454571784,40 L 177.09015448493628,40 L 177.13500511366038,40 L 178.6380656165111,40 L 178.67372392700292,40 L 180.18674725429258,40 L 180.23242214547025,40 L 181.73548264832098,40 L 181.7808887582638,40 L 183.2875867671597,40 L 183.33333333333334,40" stroke="#22c55e" stroke-width="2" fill="none" stroke-dasharray="13400" stroke-dashoffset="13400">
      <animate attributeName="stroke-dashoffset" values="13400;0" dur="3s" begin="2.6s" fill="freeze"/>
    </path>
    
    <!-- Glow effect for the line that also follows the circle -->
    <path d="M 30,160 L 30.030157254551607,160 L 30.06491962759386,160 L 31.546065500428785,160 L 31.575703111259656,160 L 31.60270666598887,160 L 33.09659276935629,160 L 33.12721591138166,160 L 33.15875290960556,160 L 34.649431556903615,160 L 34.678244905280906,160 L 34.7066640411804,160 L 36.19180579504029,160 L 36.22260812455556,70 L 36.25470060399818,70 L 37.745773463774036,70 L 37.76715053132013,70 L 37.79662687341008,70 L 39.290082926801716,70 L 39.313986537955515,70 L 39.356400216816866,70 L 40.84010847075748,70 L 40.87159171273441,70 L 40.89924034242729,70 L 42.382016821420386,70 L 42.416510413227776,70 L 42.45028725507554,70 L 43.93972950869322,70 L 43.954996282833434,70 L 43.99637067425331,70 L 45.48480947792751,70 L 45.517439519839854,70 L 45.55429838651404,70 L 47.03311482198015,70 L 47.063863395248454,70 L 47.103266724279344,70 L 48.57891154117407,70 L 48.61161325808238,70 L 48.64976227468391,70 L 50.13567453475039,70 L 50.1721033514488,70 L 51.67790542289514,70 L 51.75450807483104,70 L 53.226336198190715,70 L 53.26441353979628,70 L 53.300555656510824,70 L 54.77413981727161,70 L 54.81425989626213,70 L 54.84187268845704,70 L 56.325598861146645,70 L 56.3591785967555,70 L 56.39687964463226,70 L 57.86833147426313,70 L 57.901893291122995,70 L 57.939648095246724,70 L 59.41887666193962,70 L 59.45186507883179,70 L 59.48725460808872,70 L 60.97252179319154,70 L 61.015867247000415,70 L 62.55494443532277,70 L 62.59597837051182,70 L 64.07237577486416,70 L 64.1062063729589,70 L 65.6246053249458,70 L 65.6534186733231,70 L 65.70086752065087,70 L 67.16092302592357,70 L 67.19389352406674,70 L 67.22919345957871,70 L 68.71096648862832,70 L 68.74995768643241,70 L 68.78909223422843,70 L 70.25640483284242,70 L 70.28801350606228,70 L 70.32643130389867,70 L 71.80333043322277,70 L 71.83925752494943,70 L 71.88622256605444,70 L 73.34672604005192,70 L 73.38761662524904,70 L 73.42719914176983,70 L 74.90205553370897,70 L 74.93495435685617,70 L 74.972512054741,70 L 76.45019960902069,70 L 76.4834926446457,70 L 76.5218746049841,70 L 77.99637262194341,70 L 78.03496960726972,70 L 78.07655902367748,70 L 79.54611146591532,70 L 79.57684212043463,70 L 79.61388017459873,70 L 81.09565320364834,70 L 81.12323015834525,70 L 81.16089536872403,70 L 82.63996266667601,70 L 82.67531635843497,70 L 82.71436131248603,70 L 84.18919978567618,70 L 84.22672164606303,70 L 84.26662670006567,70 L 85.74153684825177,70 L 85.7686837529729,70 L 85.80751368203609,70 L 87.28842661113413,70 L 87.32499877782446,70 L 87.35761090098782,70 L 88.83192973045723,70 L 88.86540195357213,70 L 88.90394518265146,70 L 90.37742183091831,70 L 90.41802571613158,70 L 90.4551712827896,70 L 91.92904214353425,70 L 91.95968320430862,70 L 91.99408720237105,70 L 93.48336818724782,70 L 93.52076461639172,70 L 93.56285575777125,70 L 95.03031170637715,70 L 95.0637122544961,70 L 95.09711280261504,70 L 96.57499746313364,70 L 96.61208927354471,70 L 96.64857184649009,70 L 98.11656535756572,70 L 98.15684670529716,70 L 98.19519282813758,70 L 99.66350887669506,70 L 99.7037723056775,70 L 99.74795994068894,70 L 101.22616713868938,70 L 101.25818794313602,70 L 101.29959817205389,70 L 102.77047660171705,70 L 102.79814315015894,70 L 102.83321014193403,70 L 104.31426642102399,70 L 104.35087442521231,70 L 104.38800207312136,70 L 105.86321684004031,70 L 105.89518388823998,70 L 105.93652244216189,70 L 107.4110562966192,70 L 107.44322045105777,70 L 107.48131571141232,70 L 108.95972001565164,70 L 108.99123909512655,70 L 109.02537431195412,70 L 110.50619764730722,40 L 110.536032364377,40 L 112.05314116643656,40 L 112.08956998313496,40 L 112.1239739811974,40 L 113.60289792915745,40 L 113.62798417774465,40 L 113.67068455658985,40 L 115.15948173524387,40 L 115.19732613311254,40 L 116.70009993597944,40 L 116.73952118375931,40 L 116.79098383086104,40 L 118.25059136740896,40 L 118.28917043398627,40 L 118.31291277639914,40 L 119.80079609885463,40 L 119.83666943433433,40 L 119.87449591345401,40 L 121.34990778661185,40 L 121.3840967596864,40 L 121.42285501375362,40 L 122.8964212557654,40 L 122.92715191028473,40 L 122.96578473310899,40 L 124.44445781858319,40 L 124.47696242925261,40 L 124.5088936399543,40 L 125.99210016892316,40 L 126.02922781683222,40 L 126.07029758951926,40 L 127.5433621065593,40 L 127.5797909232577,40 L 127.62431901449997,40 L 129.08213467614883,40 L 129.11947734904572,40 L 129.1624106716278,40 L 130.63744625105687,40 L 130.67308664279966,40 L 130.7098200782309,40 L 132.1865400200651,40 L 132.2282727864648,40 L 132.27246042147624,40 L 133.73527541409354,40 L 133.7729406244723,40 L 133.81933226560963,40 L 135.28055248956673,40 L 135.31999165609557,40 L 135.35643839154298,40 L 136.83507563951918,40 L 136.8710385687438,40 L 138.38667803338615,40 L 138.41959477528235,40 L 139.92894475902887,40 L 139.96619783818085,40 L 140.01043922943927,40 L 141.4751177719516,40 L 141.5221544880526,40 L 143.0265947345756,40 L 143.0585976202733,40 L 143.10077835539775,40 L 144.5713342475791,40 L 144.6102537703872,40 L 144.65451308039462,40 L 146.11524949812895,40 L 146.15282511476278,40 L 146.18464881297052,40 L 147.668661685644,40 L 147.71191754570793,40 L 149.21789880464416,40 L 149.25671081495835,40 L 150.76627582369275,40 L 150.80483697152107,40 L 152.31406152402468,40 L 152.35224637812416,40 L 153.85677621839216,40 L 153.89207615390416,40 L 153.92287848341942,40 L 155.4131091619927,40 L 155.44882122873148,40 L 156.95885212493965,40 L 156.9967502790553,40 L 157.0374795955115,40 L 158.5090747751343,40 L 158.55059251654612,40 L 160.05625123800053,40 L 160.10049262925895,40 L 161.6080328193574,40 L 161.6514857856602,40 L 163.16280683179573,40 L 163.2001136671947,40 L 164.7041776199889,40 L 164.74854444249027,40 L 166.25233961404962,40 L 166.29446659292714,40 L 167.78955325247694,40 L 167.8343142874561,40 L 169.34631624605325,40 L 169.3924749434537,40 L 170.88981936537635,40 L 170.93995602505277,40 L 172.44654652145468,40 L 172.48734751290687,40 L 173.99160857194,40 L 174.03206910716133,40 L 175.54735019682383,40 L 175.5854454571784,40 L 177.09015448493628,40 L 177.13500511366038,40 L 178.6380656165111,40 L 178.67372392700292,40 L 180.18674725429258,40 L 180.23242214547025,40 L 181.73548264832098,40 L 181.7808887582638,40 L 183.2875867671597,40 L 183.33333333333334,40" stroke="#22c55e" stroke-width="4" fill="none" opacity="0.4" stroke-dasharray="13400" stroke-dashoffset="13400">
      <animate attributeName="stroke-dashoffset" values="13400;0" dur="3s" begin="2.6s" fill="freeze"/>
    </path>
    
    <!-- Animated circle that moves along the path and draws the line -->
    <circle r="5" fill="#22c55e" opacity="0" filter="url(#trailGlow)">
      <animate attributeName="opacity" values="0;1;1;1" dur="3.2s" begin="2.4s" fill="freeze"/>
      <animate attributeName="r" values="5;6;5" dur="1s" begin="2.4s" repeatCount="3"/>
      <animateMotion dur="3s" begin="2.4s" fill="freeze">
        <mpath href="#path_followersCount_60"/>
      </animateMotion>
    </circle>
    
    <!-- Small trail dots that fade out -->
    <circle r="2" fill="#22c55e" opacity="0">
      <animate attributeName="opacity" values="0;0.6;0" dur="0.8s" begin="2.8s" fill="freeze"/>
      <animateMotion dur="3s" begin="2.4s" fill="freeze">
        <mpath href="#path_followersCount_60"/>
      </animateMotion>
    </circle>
    
    <!-- Hidden path for motion animation -->
    <path id="path_followersCount_60" d="M 30,160 L 30.030157254551607,160 L 30.06491962759386,160 L 31.546065500428785,160 L 31.575703111259656,160 L 31.60270666598887,160 L 33.09659276935629,160 L 33.12721591138166,160 L 33.15875290960556,160 L 34.649431556903615,160 L 34.678244905280906,160 L 34.7066640411804,160 L 36.19180579504029,160 L 36.22260812455556,70 L 36.25470060399818,70 L 37.745773463774036,70 L 37.76715053132013,70 L 37.79662687341008,70 L 39.290082926801716,70 L 39.313986537955515,70 L 39.356400216816866,70 L 40.84010847075748,70 L 40.87159171273441,70 L 40.89924034242729,70 L 42.382016821420386,70 L 42.416510413227776,70 L 42.45028725507554,70 L 43.93972950869322,70 L 43.954996282833434,70 L 43.99637067425331,70 L 45.48480947792751,70 L 45.517439519839854,70 L 45.55429838651404,70 L 47.03311482198015,70 L 47.063863395248454,70 L 47.103266724279344,70 L 48.57891154117407,70 L 48.61161325808238,70 L 48.64976227468391,70 L 50.13567453475039,70 L 50.1721033514488,70 L 51.67790542289514,70 L 51.75450807483104,70 L 53.226336198190715,70 L 53.26441353979628,70 L 53.300555656510824,70 L 54.77413981727161,70 L 54.81425989626213,70 L 54.84187268845704,70 L 56.325598861146645,70 L 56.3591785967555,70 L 56.39687964463226,70 L 57.86833147426313,70 L 57.901893291122995,70 L 57.939648095246724,70 L 59.41887666193962,70 L 59.45186507883179,70 L 59.48725460808872,70 L 60.97252179319154,70 L 61.015867247000415,70 L 62.55494443532277,70 L 62.59597837051182,70 L 64.07237577486416,70 L 64.1062063729589,70 L 65.6246053249458,70 L 65.6534186733231,70 L 65.70086752065087,70 L 67.16092302592357,70 L 67.19389352406674,70 L 67.22919345957871,70 L 68.71096648862832,70 L 68.74995768643241,70 L 68.78909223422843,70 L 70.25640483284242,70 L 70.28801350606228,70 L 70.32643130389867,70 L 71.80333043322277,70 L 71.83925752494943,70 L 71.88622256605444,70 L 73.34672604005192,70 L 73.38761662524904,70 L 73.42719914176983,70 L 74.90205553370897,70 L 74.93495435685617,70 L 74.972512054741,70 L 76.45019960902069,70 L 76.4834926446457,70 L 76.5218746049841,70 L 77.99637262194341,70 L 78.03496960726972,70 L 78.07655902367748,70 L 79.54611146591532,70 L 79.57684212043463,70 L 79.61388017459873,70 L 81.09565320364834,70 L 81.12323015834525,70 L 81.16089536872403,70 L 82.63996266667601,70 L 82.67531635843497,70 L 82.71436131248603,70 L 84.18919978567618,70 L 84.22672164606303,70 L 84.26662670006567,70 L 85.74153684825177,70 L 85.7686837529729,70 L 85.80751368203609,70 L 87.28842661113413,70 L 87.32499877782446,70 L 87.35761090098782,70 L 88.83192973045723,70 L 88.86540195357213,70 L 88.90394518265146,70 L 90.37742183091831,70 L 90.41802571613158,70 L 90.4551712827896,70 L 91.92904214353425,70 L 91.95968320430862,70 L 91.99408720237105,70 L 93.48336818724782,70 L 93.52076461639172,70 L 93.56285575777125,70 L 95.03031170637715,70 L 95.0637122544961,70 L 95.09711280261504,70 L 96.57499746313364,70 L 96.61208927354471,70 L 96.64857184649009,70 L 98.11656535756572,70 L 98.15684670529716,70 L 98.19519282813758,70 L 99.66350887669506,70 L 99.7037723056775,70 L 99.74795994068894,70 L 101.22616713868938,70 L 101.25818794313602,70 L 101.29959817205389,70 L 102.77047660171705,70 L 102.79814315015894,70 L 102.83321014193403,70 L 104.31426642102399,70 L 104.35087442521231,70 L 104.38800207312136,70 L 105.86321684004031,70 L 105.89518388823998,70 L 105.93652244216189,70 L 107.4110562966192,70 L 107.44322045105777,70 L 107.48131571141232,70 L 108.95972001565164,70 L 108.99123909512655,70 L 109.02537431195412,70 L 110.50619764730722,40 L 110.536032364377,40 L 112.05314116643656,40 L 112.08956998313496,40 L 112.1239739811974,40 L 113.60289792915745,40 L 113.62798417774465,40 L 113.67068455658985,40 L 115.15948173524387,40 L 115.19732613311254,40 L 116.70009993597944,40 L 116.73952118375931,40 L 116.79098383086104,40 L 118.25059136740896,40 L 118.28917043398627,40 L 118.31291277639914,40 L 119.80079609885463,40 L 119.83666943433433,40 L 119.87449591345401,40 L 121.34990778661185,40 L 121.3840967596864,40 L 121.42285501375362,40 L 122.8964212557654,40 L 122.92715191028473,40 L 122.96578473310899,40 L 124.44445781858319,40 L 124.47696242925261,40 L 124.5088936399543,40 L 125.99210016892316,40 L 126.02922781683222,40 L 126.07029758951926,40 L 127.5433621065593,40 L 127.5797909232577,40 L 127.62431901449997,40 L 129.08213467614883,40 L 129.11947734904572,40 L 129.1624106716278,40 L 130.63744625105687,40 L 130.67308664279966,40 L 130.7098200782309,40 L 132.1865400200651,40 L 132.2282727864648,40 L 132.27246042147624,40 L 133.73527541409354,40 L 133.7729406244723,40 L 133.81933226560963,40 L 135.28055248956673,40 L 135.31999165609557,40 L 135.35643839154298,40 L 136.83507563951918,40 L 136.8710385687438,40 L 138.38667803338615,40 L 138.41959477528235,40 L 139.92894475902887,40 L 139.96619783818085,40 L 140.01043922943927,40 L 141.4751177719516,40 L 141.5221544880526,40 L 143.0265947345756,40 L 143.0585976202733,40 L 143.10077835539775,40 L 144.5713342475791,40 L 144.6102537703872,40 L 144.65451308039462,40 L 146.11524949812895,40 L 146.15282511476278,40 L 146.18464881297052,40 L 147.668661685644,40 L 147.71191754570793,40 L 149.21789880464416,40 L 149.25671081495835,40 L 150.76627582369275,40 L 150.80483697152107,40 L 152.31406152402468,40 L 152.35224637812416,40 L 153.85677621839216,40 L 153.89207615390416,40 L 153.92287848341942,40 L 155.4131091619927,40 L 155.44882122873148,40 L 156.95885212493965,40 L 156.9967502790553,40 L 157.0374795955115,40 L 158.5090747751343,40 L 158.55059251654612,40 L 160.05625123800053,40 L 160.10049262925895,40 L 161.6080328193574,40 L 161.6514857856602,40 L 163.16280683179573,40 L 163.2001136671947,40 L 164.7041776199889,40 L 164.74854444249027,40 L 166.25233961404962,40 L 166.29446659292714,40 L 167.78955325247694,40 L 167.8343142874561,40 L 169.34631624605325,40 L 169.3924749434537,40 L 170.88981936537635,40 L 170.93995602505277,40 L 172.44654652145468,40 L 172.48734751290687,40 L 173.99160857194,40 L 174.03206910716133,40 L 175.54735019682383,40 L 175.5854454571784,40 L 177.09015448493628,40 L 177.13500511366038,40 L 178.6380656165111,40 L 178.67372392700292,40 L 180.18674725429258,40 L 180.23242214547025,40 L 181.73548264832098,40 L 181.7808887582638,40 L 183.2875867671597,40 L 183.33333333333334,40" fill="none" stroke="none"/>
  </g>
  <!-- 🔓 Public Contributions Chart -->
  <g transform="translate(293.33333333333337, 250)">
    <!-- Chart Background -->
    <rect x="0" y="0" width="213.33333333333334" height="200" fill="#ffffff" stroke="#e2e8f0" stroke-width="1" rx="8" filter="url(#shadow)">
      <animate attributeName="opacity" values="0;1" dur="0.5s" begin="2.3s" fill="freeze"/>
    </rect>
    
    <!-- Chart Title -->
    <text x="106.66666666666667" y="25" text-anchor="middle" fill="#1e293b" font-size="14" font-weight="bold" font-family="Arial, sans-serif">
      🔓 Public Contributions
      <animate attributeName="opacity" values="0;1" dur="0.5s" begin="2.5s" fill="freeze"/>
    </text>
    
    <!-- Y-axis labels -->
    <text x="10" y="45" fill="#64748b" font-size="10" font-family="Arial, sans-serif">3,861
      <animate attributeName="opacity" values="0;1" dur="0.5s" begin="2.6999999999999997s" fill="freeze"/>
    </text>
    <text x="10" y="185" fill="#64748b" font-size="10" font-family="Arial, sans-serif">3,434
      <animate attributeName="opacity" values="0;1" dur="0.5s" begin="2.6999999999999997s" fill="freeze"/>
    </text>
    
    <!-- Chart Line with draw animation that follows the circle -->
    <path d="M 30,160 L 30.030157254551607,160 L 30.06491962759386,160 L 31.546065500428785,160 L 31.575703111259656,160 L 31.60270666598887,160 L 33.09659276935629,160 L 33.12721591138166,160 L 33.15875290960556,160 L 34.649431556903615,160 L 34.678244905280906,160 L 34.7066640411804,160 L 36.19180579504029,160 L 36.22260812455556,40 L 36.25470060399818,40 L 37.745773463774036,40 L 37.76715053132013,40 L 37.79662687341008,40 L 39.290082926801716,40 L 39.313986537955515,40 L 39.356400216816866,40 L 40.84010847075748,40 L 40.87159171273441,40 L 40.89924034242729,40 L 42.382016821420386,40 L 42.416510413227776,40 L 42.45028725507554,40 L 43.93972950869322,40 L 43.954996282833434,40 L 43.99637067425331,40 L 45.48480947792751,40 L 45.517439519839854,40 L 45.55429838651404,40 L 47.03311482198015,40 L 47.063863395248454,40 L 47.103266724279344,40 L 48.57891154117407,40 L 48.61161325808238,40 L 48.64976227468391,40 L 50.13567453475039,40 L 50.1721033514488,40 L 51.67790542289514,40 L 51.75450807483104,40 L 53.226336198190715,40 L 53.26441353979628,40 L 53.300555656510824,40 L 54.77413981727161,40 L 54.81425989626213,40 L 54.84187268845704,40 L 56.325598861146645,40 L 56.3591785967555,40 L 56.39687964463226,40 L 57.86833147426313,40 L 57.901893291122995,40 L 57.939648095246724,40 L 59.41887666193962,40 L 59.45186507883179,40 L 59.48725460808872,40 L 60.97252179319154,40 L 61.015867247000415,40 L 62.55494443532277,40 L 62.59597837051182,40 L 64.07237577486416,40 L 64.1062063729589,40 L 65.6246053249458,40 L 65.6534186733231,40 L 65.70086752065087,40 L 67.16092302592357,40 L 67.19389352406674,40 L 67.22919345957871,40 L 68.71096648862832,40 L 68.74995768643241,40 L 68.78909223422843,40 L 70.25640483284242,40 L 70.28801350606228,40 L 70.32643130389867,40 L 71.80333043322277,40 L 71.83925752494943,40 L 71.88622256605444,40 L 73.34672604005192,40 L 73.38761662524904,40 L 73.42719914176983,40 L 74.90205553370897,40 L 74.93495435685617,40 L 74.972512054741,40 L 76.45019960902069,40 L 76.4834926446457,40 L 76.5218746049841,40 L 77.99637262194341,40 L 78.03496960726972,40 L 78.07655902367748,40 L 79.54611146591532,40 L 79.57684212043463,40 L 79.61388017459873,40 L 81.09565320364834,40 L 81.12323015834525,40 L 81.16089536872403,40 L 82.63996266667601,40 L 82.67531635843497,40 L 82.71436131248603,40 L 84.18919978567618,40 L 84.22672164606303,40 L 84.26662670006567,40 L 85.74153684825177,40 L 85.7686837529729,40 L 85.80751368203609,40 L 87.28842661113413,40 L 87.32499877782446,40 L 87.35761090098782,40 L 88.83192973045723,40 L 88.86540195357213,40 L 88.90394518265146,40 L 90.37742183091831,40 L 90.41802571613158,40 L 90.4551712827896,40 L 91.92904214353425,40 L 91.95968320430862,40 L 91.99408720237105,40 L 93.48336818724782,40 L 93.52076461639172,40 L 93.56285575777125,40 L 95.03031170637715,40 L 95.0637122544961,40 L 95.09711280261504,40 L 96.57499746313364,40 L 96.61208927354471,40 L 96.64857184649009,40 L 98.11656535756572,40 L 98.15684670529716,40 L 98.19519282813758,40 L 99.66350887669506,40 L 99.7037723056775,40 L 99.74795994068894,40 L 101.22616713868938,40 L 101.25818794313602,40 L 101.29959817205389,40 L 102.77047660171705,40 L 102.79814315015894,40 L 102.83321014193403,40 L 104.31426642102399,40 L 104.35087442521231,40 L 104.38800207312136,40 L 105.86321684004031,40 L 105.89518388823998,40 L 105.93652244216189,40 L 107.4110562966192,40 L 107.44322045105777,40 L 107.48131571141232,40 L 108.95972001565164,40 L 108.99123909512655,40 L 109.02537431195412,40 L 110.50619764730722,66.4168618266979 L 110.536032364377,66.4168618266979 L 112.05314116643656,66.4168618266979 L 112.08956998313496,66.4168618266979 L 112.1239739811974,66.4168618266979 L 113.60289792915745,66.4168618266979 L 113.62798417774465,66.4168618266979 L 113.67068455658985,66.4168618266979 L 115.15948173524387,66.4168618266979 L 115.19732613311254,66.4168618266979 L 116.70009993597944,66.4168618266979 L 116.73952118375931,66.4168618266979 L 116.79098383086104,66.4168618266979 L 118.25059136740896,66.4168618266979 L 118.28917043398627,66.4168618266979 L 118.31291277639914,66.4168618266979 L 119.80079609885463,66.4168618266979 L 119.83666943433433,66.4168618266979 L 119.87449591345401,66.4168618266979 L 121.34990778661185,66.4168618266979 L 121.3840967596864,66.4168618266979 L 121.42285501375362,66.4168618266979 L 122.8964212557654,66.4168618266979 L 122.92715191028473,66.4168618266979 L 122.96578473310899,66.4168618266979 L 124.44445781858319,66.4168618266979 L 124.47696242925261,66.4168618266979 L 124.5088936399543,66.4168618266979 L 125.99210016892316,66.4168618266979 L 126.02922781683222,66.4168618266979 L 126.07029758951926,66.4168618266979 L 127.5433621065593,66.4168618266979 L 127.5797909232577,66.4168618266979 L 127.62431901449997,66.4168618266979 L 129.08213467614883,66.4168618266979 L 129.11947734904572,66.4168618266979 L 129.1624106716278,66.4168618266979 L 130.63744625105687,66.4168618266979 L 130.67308664279966,66.4168618266979 L 130.7098200782309,66.4168618266979 L 132.1865400200651,66.4168618266979 L 132.2282727864648,66.4168618266979 L 132.27246042147624,66.4168618266979 L 133.73527541409354,66.4168618266979 L 133.7729406244723,66.4168618266979 L 133.81933226560963,66.4168618266979 L 135.28055248956673,66.4168618266979 L 135.31999165609557,66.4168618266979 L 135.35643839154298,66.4168618266979 L 136.83507563951918,66.4168618266979 L 136.8710385687438,66.4168618266979 L 138.38667803338615,66.4168618266979 L 138.41959477528235,66.4168618266979 L 139.92894475902887,66.4168618266979 L 139.96619783818085,66.4168618266979 L 140.01043922943927,66.4168618266979 L 141.4751177719516,66.4168618266979 L 141.5221544880526,66.4168618266979 L 143.0265947345756,66.4168618266979 L 143.0585976202733,66.4168618266979 L 143.10077835539775,66.4168618266979 L 144.5713342475791,66.4168618266979 L 144.6102537703872,66.4168618266979 L 144.65451308039462,66.4168618266979 L 146.11524949812895,66.4168618266979 L 146.15282511476278,66.4168618266979 L 146.18464881297052,66.4168618266979 L 147.668661685644,66.4168618266979 L 147.71191754570793,66.4168618266979 L 149.21789880464416,66.4168618266979 L 149.25671081495835,66.4168618266979 L 150.76627582369275,66.4168618266979 L 150.80483697152107,66.4168618266979 L 152.31406152402468,66.4168618266979 L 152.35224637812416,66.4168618266979 L 153.85677621839216,66.4168618266979 L 153.89207615390416,66.4168618266979 L 153.92287848341942,66.4168618266979 L 155.4131091619927,66.4168618266979 L 155.44882122873148,66.4168618266979 L 156.95885212493965,66.4168618266979 L 156.9967502790553,66.4168618266979 L 157.0374795955115,66.4168618266979 L 158.5090747751343,66.4168618266979 L 158.55059251654612,66.4168618266979 L 160.05625123800053,66.4168618266979 L 160.10049262925895,66.4168618266979 L 161.6080328193574,66.4168618266979 L 161.6514857856602,66.4168618266979 L 163.16280683179573,66.4168618266979 L 163.2001136671947,66.4168618266979 L 164.7041776199889,66.4168618266979 L 164.74854444249027,66.4168618266979 L 166.25233961404962,66.4168618266979 L 166.29446659292714,66.4168618266979 L 167.78955325247694,66.4168618266979 L 167.8343142874561,66.4168618266979 L 169.34631624605325,66.4168618266979 L 169.3924749434537,66.4168618266979 L 170.88981936537635,66.4168618266979 L 170.93995602505277,66.4168618266979 L 172.44654652145468,66.4168618266979 L 172.48734751290687,66.4168618266979 L 173.99160857194,66.4168618266979 L 174.03206910716133,66.4168618266979 L 175.54735019682383,66.4168618266979 L 175.5854454571784,66.4168618266979 L 177.09015448493628,66.4168618266979 L 177.13500511366038,66.4168618266979 L 178.6380656165111,66.4168618266979 L 178.67372392700292,66.4168618266979 L 180.18674725429258,66.4168618266979 L 180.23242214547025,66.4168618266979 L 181.73548264832098,66.4168618266979 L 181.7808887582638,66.4168618266979 L 183.2875867671597,66.4168618266979 L 183.33333333333334,66.4168618266979" stroke="#3b82f6" stroke-width="2" fill="none" stroke-dasharray="13400" stroke-dashoffset="13400">
      <animate attributeName="stroke-dashoffset" values="13400;0" dur="3s" begin="3.0999999999999996s" fill="freeze"/>
    </path>
    
    <!-- Glow effect for the line that also follows the circle -->
    <path d="M 30,160 L 30.030157254551607,160 L 30.06491962759386,160 L 31.546065500428785,160 L 31.575703111259656,160 L 31.60270666598887,160 L 33.09659276935629,160 L 33.12721591138166,160 L 33.15875290960556,160 L 34.649431556903615,160 L 34.678244905280906,160 L 34.7066640411804,160 L 36.19180579504029,160 L 36.22260812455556,40 L 36.25470060399818,40 L 37.745773463774036,40 L 37.76715053132013,40 L 37.79662687341008,40 L 39.290082926801716,40 L 39.313986537955515,40 L 39.356400216816866,40 L 40.84010847075748,40 L 40.87159171273441,40 L 40.89924034242729,40 L 42.382016821420386,40 L 42.416510413227776,40 L 42.45028725507554,40 L 43.93972950869322,40 L 43.954996282833434,40 L 43.99637067425331,40 L 45.48480947792751,40 L 45.517439519839854,40 L 45.55429838651404,40 L 47.03311482198015,40 L 47.063863395248454,40 L 47.103266724279344,40 L 48.57891154117407,40 L 48.61161325808238,40 L 48.64976227468391,40 L 50.13567453475039,40 L 50.1721033514488,40 L 51.67790542289514,40 L 51.75450807483104,40 L 53.226336198190715,40 L 53.26441353979628,40 L 53.300555656510824,40 L 54.77413981727161,40 L 54.81425989626213,40 L 54.84187268845704,40 L 56.325598861146645,40 L 56.3591785967555,40 L 56.39687964463226,40 L 57.86833147426313,40 L 57.901893291122995,40 L 57.939648095246724,40 L 59.41887666193962,40 L 59.45186507883179,40 L 59.48725460808872,40 L 60.97252179319154,40 L 61.015867247000415,40 L 62.55494443532277,40 L 62.59597837051182,40 L 64.07237577486416,40 L 64.1062063729589,40 L 65.6246053249458,40 L 65.6534186733231,40 L 65.70086752065087,40 L 67.16092302592357,40 L 67.19389352406674,40 L 67.22919345957871,40 L 68.71096648862832,40 L 68.74995768643241,40 L 68.78909223422843,40 L 70.25640483284242,40 L 70.28801350606228,40 L 70.32643130389867,40 L 71.80333043322277,40 L 71.83925752494943,40 L 71.88622256605444,40 L 73.34672604005192,40 L 73.38761662524904,40 L 73.42719914176983,40 L 74.90205553370897,40 L 74.93495435685617,40 L 74.972512054741,40 L 76.45019960902069,40 L 76.4834926446457,40 L 76.5218746049841,40 L 77.99637262194341,40 L 78.03496960726972,40 L 78.07655902367748,40 L 79.54611146591532,40 L 79.57684212043463,40 L 79.61388017459873,40 L 81.09565320364834,40 L 81.12323015834525,40 L 81.16089536872403,40 L 82.63996266667601,40 L 82.67531635843497,40 L 82.71436131248603,40 L 84.18919978567618,40 L 84.22672164606303,40 L 84.26662670006567,40 L 85.74153684825177,40 L 85.7686837529729,40 L 85.80751368203609,40 L 87.28842661113413,40 L 87.32499877782446,40 L 87.35761090098782,40 L 88.83192973045723,40 L 88.86540195357213,40 L 88.90394518265146,40 L 90.37742183091831,40 L 90.41802571613158,40 L 90.4551712827896,40 L 91.92904214353425,40 L 91.95968320430862,40 L 91.99408720237105,40 L 93.48336818724782,40 L 93.52076461639172,40 L 93.56285575777125,40 L 95.03031170637715,40 L 95.0637122544961,40 L 95.09711280261504,40 L 96.57499746313364,40 L 96.61208927354471,40 L 96.64857184649009,40 L 98.11656535756572,40 L 98.15684670529716,40 L 98.19519282813758,40 L 99.66350887669506,40 L 99.7037723056775,40 L 99.74795994068894,40 L 101.22616713868938,40 L 101.25818794313602,40 L 101.29959817205389,40 L 102.77047660171705,40 L 102.79814315015894,40 L 102.83321014193403,40 L 104.31426642102399,40 L 104.35087442521231,40 L 104.38800207312136,40 L 105.86321684004031,40 L 105.89518388823998,40 L 105.93652244216189,40 L 107.4110562966192,40 L 107.44322045105777,40 L 107.48131571141232,40 L 108.95972001565164,40 L 108.99123909512655,40 L 109.02537431195412,40 L 110.50619764730722,66.4168618266979 L 110.536032364377,66.4168618266979 L 112.05314116643656,66.4168618266979 L 112.08956998313496,66.4168618266979 L 112.1239739811974,66.4168618266979 L 113.60289792915745,66.4168618266979 L 113.62798417774465,66.4168618266979 L 113.67068455658985,66.4168618266979 L 115.15948173524387,66.4168618266979 L 115.19732613311254,66.4168618266979 L 116.70009993597944,66.4168618266979 L 116.73952118375931,66.4168618266979 L 116.79098383086104,66.4168618266979 L 118.25059136740896,66.4168618266979 L 118.28917043398627,66.4168618266979 L 118.31291277639914,66.4168618266979 L 119.80079609885463,66.4168618266979 L 119.83666943433433,66.4168618266979 L 119.87449591345401,66.4168618266979 L 121.34990778661185,66.4168618266979 L 121.3840967596864,66.4168618266979 L 121.42285501375362,66.4168618266979 L 122.8964212557654,66.4168618266979 L 122.92715191028473,66.4168618266979 L 122.96578473310899,66.4168618266979 L 124.44445781858319,66.4168618266979 L 124.47696242925261,66.4168618266979 L 124.5088936399543,66.4168618266979 L 125.99210016892316,66.4168618266979 L 126.02922781683222,66.4168618266979 L 126.07029758951926,66.4168618266979 L 127.5433621065593,66.4168618266979 L 127.5797909232577,66.4168618266979 L 127.62431901449997,66.4168618266979 L 129.08213467614883,66.4168618266979 L 129.11947734904572,66.4168618266979 L 129.1624106716278,66.4168618266979 L 130.63744625105687,66.4168618266979 L 130.67308664279966,66.4168618266979 L 130.7098200782309,66.4168618266979 L 132.1865400200651,66.4168618266979 L 132.2282727864648,66.4168618266979 L 132.27246042147624,66.4168618266979 L 133.73527541409354,66.4168618266979 L 133.7729406244723,66.4168618266979 L 133.81933226560963,66.4168618266979 L 135.28055248956673,66.4168618266979 L 135.31999165609557,66.4168618266979 L 135.35643839154298,66.4168618266979 L 136.83507563951918,66.4168618266979 L 136.8710385687438,66.4168618266979 L 138.38667803338615,66.4168618266979 L 138.41959477528235,66.4168618266979 L 139.92894475902887,66.4168618266979 L 139.96619783818085,66.4168618266979 L 140.01043922943927,66.4168618266979 L 141.4751177719516,66.4168618266979 L 141.5221544880526,66.4168618266979 L 143.0265947345756,66.4168618266979 L 143.0585976202733,66.4168618266979 L 143.10077835539775,66.4168618266979 L 144.5713342475791,66.4168618266979 L 144.6102537703872,66.4168618266979 L 144.65451308039462,66.4168618266979 L 146.11524949812895,66.4168618266979 L 146.15282511476278,66.4168618266979 L 146.18464881297052,66.4168618266979 L 147.668661685644,66.4168618266979 L 147.71191754570793,66.4168618266979 L 149.21789880464416,66.4168618266979 L 149.25671081495835,66.4168618266979 L 150.76627582369275,66.4168618266979 L 150.80483697152107,66.4168618266979 L 152.31406152402468,66.4168618266979 L 152.35224637812416,66.4168618266979 L 153.85677621839216,66.4168618266979 L 153.89207615390416,66.4168618266979 L 153.92287848341942,66.4168618266979 L 155.4131091619927,66.4168618266979 L 155.44882122873148,66.4168618266979 L 156.95885212493965,66.4168618266979 L 156.9967502790553,66.4168618266979 L 157.0374795955115,66.4168618266979 L 158.5090747751343,66.4168618266979 L 158.55059251654612,66.4168618266979 L 160.05625123800053,66.4168618266979 L 160.10049262925895,66.4168618266979 L 161.6080328193574,66.4168618266979 L 161.6514857856602,66.4168618266979 L 163.16280683179573,66.4168618266979 L 163.2001136671947,66.4168618266979 L 164.7041776199889,66.4168618266979 L 164.74854444249027,66.4168618266979 L 166.25233961404962,66.4168618266979 L 166.29446659292714,66.4168618266979 L 167.78955325247694,66.4168618266979 L 167.8343142874561,66.4168618266979 L 169.34631624605325,66.4168618266979 L 169.3924749434537,66.4168618266979 L 170.88981936537635,66.4168618266979 L 170.93995602505277,66.4168618266979 L 172.44654652145468,66.4168618266979 L 172.48734751290687,66.4168618266979 L 173.99160857194,66.4168618266979 L 174.03206910716133,66.4168618266979 L 175.54735019682383,66.4168618266979 L 175.5854454571784,66.4168618266979 L 177.09015448493628,66.4168618266979 L 177.13500511366038,66.4168618266979 L 178.6380656165111,66.4168618266979 L 178.67372392700292,66.4168618266979 L 180.18674725429258,66.4168618266979 L 180.23242214547025,66.4168618266979 L 181.73548264832098,66.4168618266979 L 181.7808887582638,66.4168618266979 L 183.2875867671597,66.4168618266979 L 183.33333333333334,66.4168618266979" stroke="#3b82f6" stroke-width="4" fill="none" opacity="0.4" stroke-dasharray="13400" stroke-dashoffset="13400">
      <animate attributeName="stroke-dashoffset" values="13400;0" dur="3s" begin="3.0999999999999996s" fill="freeze"/>
    </path>
    
    <!-- Animated circle that moves along the path and draws the line -->
    <circle r="5" fill="#3b82f6" opacity="0" filter="url(#trailGlow)">
      <animate attributeName="opacity" values="0;1;1;1" dur="3.2s" begin="2.9s" fill="freeze"/>
      <animate attributeName="r" values="5;6;5" dur="1s" begin="2.9s" repeatCount="3"/>
      <animateMotion dur="3s" begin="2.9s" fill="freeze">
        <mpath href="#path_publicContributions_293.33333333333337"/>
      </animateMotion>
    </circle>
    
    <!-- Small trail dots that fade out -->
    <circle r="2" fill="#3b82f6" opacity="0">
      <animate attributeName="opacity" values="0;0.6;0" dur="0.8s" begin="3.3s" fill="freeze"/>
      <animateMotion dur="3s" begin="2.9s" fill="freeze">
        <mpath href="#path_publicContributions_293.33333333333337"/>
      </animateMotion>
    </circle>
    
    <!-- Hidden path for motion animation -->
    <path id="path_publicContributions_293.33333333333337" d="M 30,160 L 30.030157254551607,160 L 30.06491962759386,160 L 31.546065500428785,160 L 31.575703111259656,160 L 31.60270666598887,160 L 33.09659276935629,160 L 33.12721591138166,160 L 33.15875290960556,160 L 34.649431556903615,160 L 34.678244905280906,160 L 34.7066640411804,160 L 36.19180579504029,160 L 36.22260812455556,40 L 36.25470060399818,40 L 37.745773463774036,40 L 37.76715053132013,40 L 37.79662687341008,40 L 39.290082926801716,40 L 39.313986537955515,40 L 39.356400216816866,40 L 40.84010847075748,40 L 40.87159171273441,40 L 40.89924034242729,40 L 42.382016821420386,40 L 42.416510413227776,40 L 42.45028725507554,40 L 43.93972950869322,40 L 43.954996282833434,40 L 43.99637067425331,40 L 45.48480947792751,40 L 45.517439519839854,40 L 45.55429838651404,40 L 47.03311482198015,40 L 47.063863395248454,40 L 47.103266724279344,40 L 48.57891154117407,40 L 48.61161325808238,40 L 48.64976227468391,40 L 50.13567453475039,40 L 50.1721033514488,40 L 51.67790542289514,40 L 51.75450807483104,40 L 53.226336198190715,40 L 53.26441353979628,40 L 53.300555656510824,40 L 54.77413981727161,40 L 54.81425989626213,40 L 54.84187268845704,40 L 56.325598861146645,40 L 56.3591785967555,40 L 56.39687964463226,40 L 57.86833147426313,40 L 57.901893291122995,40 L 57.939648095246724,40 L 59.41887666193962,40 L 59.45186507883179,40 L 59.48725460808872,40 L 60.97252179319154,40 L 61.015867247000415,40 L 62.55494443532277,40 L 62.59597837051182,40 L 64.07237577486416,40 L 64.1062063729589,40 L 65.6246053249458,40 L 65.6534186733231,40 L 65.70086752065087,40 L 67.16092302592357,40 L 67.19389352406674,40 L 67.22919345957871,40 L 68.71096648862832,40 L 68.74995768643241,40 L 68.78909223422843,40 L 70.25640483284242,40 L 70.28801350606228,40 L 70.32643130389867,40 L 71.80333043322277,40 L 71.83925752494943,40 L 71.88622256605444,40 L 73.34672604005192,40 L 73.38761662524904,40 L 73.42719914176983,40 L 74.90205553370897,40 L 74.93495435685617,40 L 74.972512054741,40 L 76.45019960902069,40 L 76.4834926446457,40 L 76.5218746049841,40 L 77.99637262194341,40 L 78.03496960726972,40 L 78.07655902367748,40 L 79.54611146591532,40 L 79.57684212043463,40 L 79.61388017459873,40 L 81.09565320364834,40 L 81.12323015834525,40 L 81.16089536872403,40 L 82.63996266667601,40 L 82.67531635843497,40 L 82.71436131248603,40 L 84.18919978567618,40 L 84.22672164606303,40 L 84.26662670006567,40 L 85.74153684825177,40 L 85.7686837529729,40 L 85.80751368203609,40 L 87.28842661113413,40 L 87.32499877782446,40 L 87.35761090098782,40 L 88.83192973045723,40 L 88.86540195357213,40 L 88.90394518265146,40 L 90.37742183091831,40 L 90.41802571613158,40 L 90.4551712827896,40 L 91.92904214353425,40 L 91.95968320430862,40 L 91.99408720237105,40 L 93.48336818724782,40 L 93.52076461639172,40 L 93.56285575777125,40 L 95.03031170637715,40 L 95.0637122544961,40 L 95.09711280261504,40 L 96.57499746313364,40 L 96.61208927354471,40 L 96.64857184649009,40 L 98.11656535756572,40 L 98.15684670529716,40 L 98.19519282813758,40 L 99.66350887669506,40 L 99.7037723056775,40 L 99.74795994068894,40 L 101.22616713868938,40 L 101.25818794313602,40 L 101.29959817205389,40 L 102.77047660171705,40 L 102.79814315015894,40 L 102.83321014193403,40 L 104.31426642102399,40 L 104.35087442521231,40 L 104.38800207312136,40 L 105.86321684004031,40 L 105.89518388823998,40 L 105.93652244216189,40 L 107.4110562966192,40 L 107.44322045105777,40 L 107.48131571141232,40 L 108.95972001565164,40 L 108.99123909512655,40 L 109.02537431195412,40 L 110.50619764730722,66.4168618266979 L 110.536032364377,66.4168618266979 L 112.05314116643656,66.4168618266979 L 112.08956998313496,66.4168618266979 L 112.1239739811974,66.4168618266979 L 113.60289792915745,66.4168618266979 L 113.62798417774465,66.4168618266979 L 113.67068455658985,66.4168618266979 L 115.15948173524387,66.4168618266979 L 115.19732613311254,66.4168618266979 L 116.70009993597944,66.4168618266979 L 116.73952118375931,66.4168618266979 L 116.79098383086104,66.4168618266979 L 118.25059136740896,66.4168618266979 L 118.28917043398627,66.4168618266979 L 118.31291277639914,66.4168618266979 L 119.80079609885463,66.4168618266979 L 119.83666943433433,66.4168618266979 L 119.87449591345401,66.4168618266979 L 121.34990778661185,66.4168618266979 L 121.3840967596864,66.4168618266979 L 121.42285501375362,66.4168618266979 L 122.8964212557654,66.4168618266979 L 122.92715191028473,66.4168618266979 L 122.96578473310899,66.4168618266979 L 124.44445781858319,66.4168618266979 L 124.47696242925261,66.4168618266979 L 124.5088936399543,66.4168618266979 L 125.99210016892316,66.4168618266979 L 126.02922781683222,66.4168618266979 L 126.07029758951926,66.4168618266979 L 127.5433621065593,66.4168618266979 L 127.5797909232577,66.4168618266979 L 127.62431901449997,66.4168618266979 L 129.08213467614883,66.4168618266979 L 129.11947734904572,66.4168618266979 L 129.1624106716278,66.4168618266979 L 130.63744625105687,66.4168618266979 L 130.67308664279966,66.4168618266979 L 130.7098200782309,66.4168618266979 L 132.1865400200651,66.4168618266979 L 132.2282727864648,66.4168618266979 L 132.27246042147624,66.4168618266979 L 133.73527541409354,66.4168618266979 L 133.7729406244723,66.4168618266979 L 133.81933226560963,66.4168618266979 L 135.28055248956673,66.4168618266979 L 135.31999165609557,66.4168618266979 L 135.35643839154298,66.4168618266979 L 136.83507563951918,66.4168618266979 L 136.8710385687438,66.4168618266979 L 138.38667803338615,66.4168618266979 L 138.41959477528235,66.4168618266979 L 139.92894475902887,66.4168618266979 L 139.96619783818085,66.4168618266979 L 140.01043922943927,66.4168618266979 L 141.4751177719516,66.4168618266979 L 141.5221544880526,66.4168618266979 L 143.0265947345756,66.4168618266979 L 143.0585976202733,66.4168618266979 L 143.10077835539775,66.4168618266979 L 144.5713342475791,66.4168618266979 L 144.6102537703872,66.4168618266979 L 144.65451308039462,66.4168618266979 L 146.11524949812895,66.4168618266979 L 146.15282511476278,66.4168618266979 L 146.18464881297052,66.4168618266979 L 147.668661685644,66.4168618266979 L 147.71191754570793,66.4168618266979 L 149.21789880464416,66.4168618266979 L 149.25671081495835,66.4168618266979 L 150.76627582369275,66.4168618266979 L 150.80483697152107,66.4168618266979 L 152.31406152402468,66.4168618266979 L 152.35224637812416,66.4168618266979 L 153.85677621839216,66.4168618266979 L 153.89207615390416,66.4168618266979 L 153.92287848341942,66.4168618266979 L 155.4131091619927,66.4168618266979 L 155.44882122873148,66.4168618266979 L 156.95885212493965,66.4168618266979 L 156.9967502790553,66.4168618266979 L 157.0374795955115,66.4168618266979 L 158.5090747751343,66.4168618266979 L 158.55059251654612,66.4168618266979 L 160.05625123800053,66.4168618266979 L 160.10049262925895,66.4168618266979 L 161.6080328193574,66.4168618266979 L 161.6514857856602,66.4168618266979 L 163.16280683179573,66.4168618266979 L 163.2001136671947,66.4168618266979 L 164.7041776199889,66.4168618266979 L 164.74854444249027,66.4168618266979 L 166.25233961404962,66.4168618266979 L 166.29446659292714,66.4168618266979 L 167.78955325247694,66.4168618266979 L 167.8343142874561,66.4168618266979 L 169.34631624605325,66.4168618266979 L 169.3924749434537,66.4168618266979 L 170.88981936537635,66.4168618266979 L 170.93995602505277,66.4168618266979 L 172.44654652145468,66.4168618266979 L 172.48734751290687,66.4168618266979 L 173.99160857194,66.4168618266979 L 174.03206910716133,66.4168618266979 L 175.54735019682383,66.4168618266979 L 175.5854454571784,66.4168618266979 L 177.09015448493628,66.4168618266979 L 177.13500511366038,66.4168618266979 L 178.6380656165111,66.4168618266979 L 178.67372392700292,66.4168618266979 L 180.18674725429258,66.4168618266979 L 180.23242214547025,66.4168618266979 L 181.73548264832098,66.4168618266979 L 181.7808887582638,66.4168618266979 L 183.2875867671597,66.4168618266979 L 183.33333333333334,66.4168618266979" fill="none" stroke="none"/>
  </g>
  <!-- 📊 Total Contributions Chart -->
  <g transform="translate(526.6666666666667, 250)">
    <!-- Chart Background -->
    <rect x="0" y="0" width="213.33333333333334" height="200" fill="#ffffff" stroke="#e2e8f0" stroke-width="1" rx="8" filter="url(#shadow)">
      <animate attributeName="opacity" values="0;1" dur="0.5s" begin="2.8s" fill="freeze"/>
    </rect>
    
    <!-- Chart Title -->
    <text x="106.66666666666667" y="25" text-anchor="middle" fill="#1e293b" font-size="14" font-weight="bold" font-family="Arial, sans-serif">
      📊 Total Contributions
      <animate attributeName="opacity" values="0;1" dur="0.5s" begin="3s" fill="freeze"/>
    </text>
    
    <!-- Y-axis labels -->
    <text x="10" y="45" fill="#64748b" font-size="10" font-family="Arial, sans-serif">5,314
      <animate attributeName="opacity" values="0;1" dur="0.5s" begin="3.1999999999999997s" fill="freeze"/>
    </text>
    <text x="10" y="185" fill="#64748b" font-size="10" font-family="Arial, sans-serif">4,917
      <animate attributeName="opacity" values="0;1" dur="0.5s" begin="3.1999999999999997s" fill="freeze"/>
    </text>
    
    <!-- Chart Line with draw animation that follows the circle -->
    <path d="M 30,160 L 30.030157254551607,160 L 30.06491962759386,160 L 31.546065500428785,160 L 31.575703111259656,160 L 31.60270666598887,160 L 33.09659276935629,160 L 33.12721591138166,160 L 33.15875290960556,160 L 34.649431556903615,160 L 34.678244905280906,160 L 34.7066640411804,160 L 36.19180579504029,160 L 36.22260812455556,40 L 36.25470060399818,40 L 37.745773463774036,40 L 37.76715053132013,40 L 37.79662687341008,40 L 39.290082926801716,40 L 39.313986537955515,40 L 39.356400216816866,40 L 40.84010847075748,40 L 40.87159171273441,40 L 40.89924034242729,40 L 42.382016821420386,40 L 42.416510413227776,40 L 42.45028725507554,40 L 43.93972950869322,40 L 43.954996282833434,40 L 43.99637067425331,40 L 45.48480947792751,40 L 45.517439519839854,40 L 45.55429838651404,40 L 47.03311482198015,40 L 47.063863395248454,40 L 47.103266724279344,40 L 48.57891154117407,40 L 48.61161325808238,40 L 48.64976227468391,40 L 50.13567453475039,40 L 50.1721033514488,40 L 51.67790542289514,40 L 51.75450807483104,40 L 53.226336198190715,40 L 53.26441353979628,40 L 53.300555656510824,40 L 54.77413981727161,40 L 54.81425989626213,40 L 54.84187268845704,40 L 56.325598861146645,40 L 56.3591785967555,40 L 56.39687964463226,40 L 57.86833147426313,40 L 57.901893291122995,40 L 57.939648095246724,40 L 59.41887666193962,40 L 59.45186507883179,40 L 59.48725460808872,40 L 60.97252179319154,40 L 61.015867247000415,40 L 62.55494443532277,40 L 62.59597837051182,40 L 64.07237577486416,40 L 64.1062063729589,40 L 65.6246053249458,40 L 65.6534186733231,40 L 65.70086752065087,40 L 67.16092302592357,40 L 67.19389352406674,40 L 67.22919345957871,40 L 68.71096648862832,40 L 68.74995768643241,40 L 68.78909223422843,40 L 70.25640483284242,40 L 70.28801350606228,40 L 70.32643130389867,40 L 71.80333043322277,40 L 71.83925752494943,40 L 71.88622256605444,40 L 73.34672604005192,40 L 73.38761662524904,40 L 73.42719914176983,40 L 74.90205553370897,40 L 74.93495435685617,40 L 74.972512054741,40 L 76.45019960902069,40 L 76.4834926446457,40 L 76.5218746049841,40 L 77.99637262194341,40 L 78.03496960726972,40 L 78.07655902367748,40 L 79.54611146591532,40 L 79.57684212043463,40 L 79.61388017459873,40 L 81.09565320364834,40 L 81.12323015834525,40 L 81.16089536872403,40 L 82.63996266667601,40 L 82.67531635843497,40 L 82.71436131248603,40 L 84.18919978567618,40 L 84.22672164606303,40 L 84.26662670006567,40 L 85.74153684825177,40 L 85.7686837529729,40 L 85.80751368203609,40 L 87.28842661113413,40 L 87.32499877782446,40 L 87.35761090098782,40 L 88.83192973045723,40 L 88.86540195357213,40 L 88.90394518265146,40 L 90.37742183091831,40 L 90.41802571613158,40 L 90.4551712827896,40 L 91.92904214353425,40 L 91.95968320430862,40 L 91.99408720237105,40 L 93.48336818724782,40 L 93.52076461639172,40 L 93.56285575777125,40 L 95.03031170637715,40 L 95.0637122544961,40 L 95.09711280261504,40 L 96.57499746313364,40 L 96.61208927354471,40 L 96.64857184649009,40 L 98.11656535756572,40 L 98.15684670529716,40 L 98.19519282813758,40 L 99.66350887669506,40 L 99.7037723056775,40 L 99.74795994068894,40 L 101.22616713868938,40 L 101.25818794313602,40 L 101.29959817205389,40 L 102.77047660171705,40 L 102.79814315015894,40 L 102.83321014193403,40 L 104.31426642102399,40 L 104.35087442521231,40 L 104.38800207312136,40 L 105.86321684004031,40 L 105.89518388823998,40 L 105.93652244216189,40 L 107.4110562966192,40 L 107.44322045105777,40 L 107.48131571141232,40 L 108.95972001565164,40 L 108.99123909512655,40 L 109.02537431195412,40 L 110.50619764730722,72.04030226700252 L 110.536032364377,72.04030226700252 L 112.05314116643656,72.04030226700252 L 112.08956998313496,72.04030226700252 L 112.1239739811974,72.04030226700252 L 113.60289792915745,72.04030226700252 L 113.62798417774465,72.04030226700252 L 113.67068455658985,72.04030226700252 L 115.15948173524387,72.04030226700252 L 115.19732613311254,72.04030226700252 L 116.70009993597944,72.04030226700252 L 116.73952118375931,72.04030226700252 L 116.79098383086104,72.04030226700252 L 118.25059136740896,72.04030226700252 L 118.28917043398627,72.04030226700252 L 118.31291277639914,72.04030226700252 L 119.80079609885463,72.04030226700252 L 119.83666943433433,72.04030226700252 L 119.87449591345401,72.04030226700252 L 121.34990778661185,72.04030226700252 L 121.3840967596864,72.04030226700252 L 121.42285501375362,72.04030226700252 L 122.8964212557654,72.04030226700252 L 122.92715191028473,72.04030226700252 L 122.96578473310899,72.04030226700252 L 124.44445781858319,72.04030226700252 L 124.47696242925261,72.04030226700252 L 124.5088936399543,72.04030226700252 L 125.99210016892316,72.04030226700252 L 126.02922781683222,72.04030226700252 L 126.07029758951926,72.04030226700252 L 127.5433621065593,72.04030226700252 L 127.5797909232577,72.04030226700252 L 127.62431901449997,72.04030226700252 L 129.08213467614883,72.04030226700252 L 129.11947734904572,72.04030226700252 L 129.1624106716278,72.04030226700252 L 130.63744625105687,72.04030226700252 L 130.67308664279966,72.04030226700252 L 130.7098200782309,72.04030226700252 L 132.1865400200651,72.04030226700252 L 132.2282727864648,72.04030226700252 L 132.27246042147624,72.04030226700252 L 133.73527541409354,72.04030226700252 L 133.7729406244723,72.04030226700252 L 133.81933226560963,72.04030226700252 L 135.28055248956673,72.04030226700252 L 135.31999165609557,72.04030226700252 L 135.35643839154298,72.04030226700252 L 136.83507563951918,72.04030226700252 L 136.8710385687438,72.04030226700252 L 138.38667803338615,72.04030226700252 L 138.41959477528235,72.04030226700252 L 139.92894475902887,72.04030226700252 L 139.96619783818085,72.04030226700252 L 140.01043922943927,72.04030226700252 L 141.4751177719516,72.04030226700252 L 141.5221544880526,72.04030226700252 L 143.0265947345756,72.04030226700252 L 143.0585976202733,72.04030226700252 L 143.10077835539775,72.04030226700252 L 144.5713342475791,72.04030226700252 L 144.6102537703872,72.04030226700252 L 144.65451308039462,72.04030226700252 L 146.11524949812895,72.04030226700252 L 146.15282511476278,72.04030226700252 L 146.18464881297052,72.04030226700252 L 147.668661685644,72.04030226700252 L 147.71191754570793,72.04030226700252 L 149.21789880464416,72.04030226700252 L 149.25671081495835,72.04030226700252 L 150.76627582369275,72.04030226700252 L 150.80483697152107,72.04030226700252 L 152.31406152402468,72.04030226700252 L 152.35224637812416,72.04030226700252 L 153.85677621839216,72.04030226700252 L 153.89207615390416,72.04030226700252 L 153.92287848341942,72.04030226700252 L 155.4131091619927,72.04030226700252 L 155.44882122873148,72.04030226700252 L 156.95885212493965,72.04030226700252 L 156.9967502790553,72.04030226700252 L 157.0374795955115,72.04030226700252 L 158.5090747751343,72.04030226700252 L 158.55059251654612,72.04030226700252 L 160.05625123800053,72.04030226700252 L 160.10049262925895,72.04030226700252 L 161.6080328193574,72.04030226700252 L 161.6514857856602,72.04030226700252 L 163.16280683179573,72.04030226700252 L 163.2001136671947,72.04030226700252 L 164.7041776199889,72.04030226700252 L 164.74854444249027,72.04030226700252 L 166.25233961404962,72.04030226700252 L 166.29446659292714,72.04030226700252 L 167.78955325247694,72.04030226700252 L 167.8343142874561,72.04030226700252 L 169.34631624605325,72.04030226700252 L 169.3924749434537,72.04030226700252 L 170.88981936537635,72.04030226700252 L 170.93995602505277,72.04030226700252 L 172.44654652145468,72.04030226700252 L 172.48734751290687,72.04030226700252 L 173.99160857194,72.04030226700252 L 174.03206910716133,72.04030226700252 L 175.54735019682383,72.04030226700252 L 175.5854454571784,72.04030226700252 L 177.09015448493628,72.04030226700252 L 177.13500511366038,72.04030226700252 L 178.6380656165111,72.04030226700252 L 178.67372392700292,72.04030226700252 L 180.18674725429258,72.04030226700252 L 180.23242214547025,72.04030226700252 L 181.73548264832098,72.04030226700252 L 181.7808887582638,72.04030226700252 L 183.2875867671597,72.04030226700252 L 183.33333333333334,72.04030226700252" stroke="#f59e0b" stroke-width="2" fill="none" stroke-dasharray="13400" stroke-dashoffset="13400">
      <animate attributeName="stroke-dashoffset" values="13400;0" dur="3s" begin="3.5999999999999996s" fill="freeze"/>
    </path>
    
    <!-- Glow effect for the line that also follows the circle -->
    <path d="M 30,160 L 30.030157254551607,160 L 30.06491962759386,160 L 31.546065500428785,160 L 31.575703111259656,160 L 31.60270666598887,160 L 33.09659276935629,160 L 33.12721591138166,160 L 33.15875290960556,160 L 34.649431556903615,160 L 34.678244905280906,160 L 34.7066640411804,160 L 36.19180579504029,160 L 36.22260812455556,40 L 36.25470060399818,40 L 37.745773463774036,40 L 37.76715053132013,40 L 37.79662687341008,40 L 39.290082926801716,40 L 39.313986537955515,40 L 39.356400216816866,40 L 40.84010847075748,40 L 40.87159171273441,40 L 40.89924034242729,40 L 42.382016821420386,40 L 42.416510413227776,40 L 42.45028725507554,40 L 43.93972950869322,40 L 43.954996282833434,40 L 43.99637067425331,40 L 45.48480947792751,40 L 45.517439519839854,40 L 45.55429838651404,40 L 47.03311482198015,40 L 47.063863395248454,40 L 47.103266724279344,40 L 48.57891154117407,40 L 48.61161325808238,40 L 48.64976227468391,40 L 50.13567453475039,40 L 50.1721033514488,40 L 51.67790542289514,40 L 51.75450807483104,40 L 53.226336198190715,40 L 53.26441353979628,40 L 53.300555656510824,40 L 54.77413981727161,40 L 54.81425989626213,40 L 54.84187268845704,40 L 56.325598861146645,40 L 56.3591785967555,40 L 56.39687964463226,40 L 57.86833147426313,40 L 57.901893291122995,40 L 57.939648095246724,40 L 59.41887666193962,40 L 59.45186507883179,40 L 59.48725460808872,40 L 60.97252179319154,40 L 61.015867247000415,40 L 62.55494443532277,40 L 62.59597837051182,40 L 64.07237577486416,40 L 64.1062063729589,40 L 65.6246053249458,40 L 65.6534186733231,40 L 65.70086752065087,40 L 67.16092302592357,40 L 67.19389352406674,40 L 67.22919345957871,40 L 68.71096648862832,40 L 68.74995768643241,40 L 68.78909223422843,40 L 70.25640483284242,40 L 70.28801350606228,40 L 70.32643130389867,40 L 71.80333043322277,40 L 71.83925752494943,40 L 71.88622256605444,40 L 73.34672604005192,40 L 73.38761662524904,40 L 73.42719914176983,40 L 74.90205553370897,40 L 74.93495435685617,40 L 74.972512054741,40 L 76.45019960902069,40 L 76.4834926446457,40 L 76.5218746049841,40 L 77.99637262194341,40 L 78.03496960726972,40 L 78.07655902367748,40 L 79.54611146591532,40 L 79.57684212043463,40 L 79.61388017459873,40 L 81.09565320364834,40 L 81.12323015834525,40 L 81.16089536872403,40 L 82.63996266667601,40 L 82.67531635843497,40 L 82.71436131248603,40 L 84.18919978567618,40 L 84.22672164606303,40 L 84.26662670006567,40 L 85.74153684825177,40 L 85.7686837529729,40 L 85.80751368203609,40 L 87.28842661113413,40 L 87.32499877782446,40 L 87.35761090098782,40 L 88.83192973045723,40 L 88.86540195357213,40 L 88.90394518265146,40 L 90.37742183091831,40 L 90.41802571613158,40 L 90.4551712827896,40 L 91.92904214353425,40 L 91.95968320430862,40 L 91.99408720237105,40 L 93.48336818724782,40 L 93.52076461639172,40 L 93.56285575777125,40 L 95.03031170637715,40 L 95.0637122544961,40 L 95.09711280261504,40 L 96.57499746313364,40 L 96.61208927354471,40 L 96.64857184649009,40 L 98.11656535756572,40 L 98.15684670529716,40 L 98.19519282813758,40 L 99.66350887669506,40 L 99.7037723056775,40 L 99.74795994068894,40 L 101.22616713868938,40 L 101.25818794313602,40 L 101.29959817205389,40 L 102.77047660171705,40 L 102.79814315015894,40 L 102.83321014193403,40 L 104.31426642102399,40 L 104.35087442521231,40 L 104.38800207312136,40 L 105.86321684004031,40 L 105.89518388823998,40 L 105.93652244216189,40 L 107.4110562966192,40 L 107.44322045105777,40 L 107.48131571141232,40 L 108.95972001565164,40 L 108.99123909512655,40 L 109.02537431195412,40 L 110.50619764730722,72.04030226700252 L 110.536032364377,72.04030226700252 L 112.05314116643656,72.04030226700252 L 112.08956998313496,72.04030226700252 L 112.1239739811974,72.04030226700252 L 113.60289792915745,72.04030226700252 L 113.62798417774465,72.04030226700252 L 113.67068455658985,72.04030226700252 L 115.15948173524387,72.04030226700252 L 115.19732613311254,72.04030226700252 L 116.70009993597944,72.04030226700252 L 116.73952118375931,72.04030226700252 L 116.79098383086104,72.04030226700252 L 118.25059136740896,72.04030226700252 L 118.28917043398627,72.04030226700252 L 118.31291277639914,72.04030226700252 L 119.80079609885463,72.04030226700252 L 119.83666943433433,72.04030226700252 L 119.87449591345401,72.04030226700252 L 121.34990778661185,72.04030226700252 L 121.3840967596864,72.04030226700252 L 121.42285501375362,72.04030226700252 L 122.8964212557654,72.04030226700252 L 122.92715191028473,72.04030226700252 L 122.96578473310899,72.04030226700252 L 124.44445781858319,72.04030226700252 L 124.47696242925261,72.04030226700252 L 124.5088936399543,72.04030226700252 L 125.99210016892316,72.04030226700252 L 126.02922781683222,72.04030226700252 L 126.07029758951926,72.04030226700252 L 127.5433621065593,72.04030226700252 L 127.5797909232577,72.04030226700252 L 127.62431901449997,72.04030226700252 L 129.08213467614883,72.04030226700252 L 129.11947734904572,72.04030226700252 L 129.1624106716278,72.04030226700252 L 130.63744625105687,72.04030226700252 L 130.67308664279966,72.04030226700252 L 130.7098200782309,72.04030226700252 L 132.1865400200651,72.04030226700252 L 132.2282727864648,72.04030226700252 L 132.27246042147624,72.04030226700252 L 133.73527541409354,72.04030226700252 L 133.7729406244723,72.04030226700252 L 133.81933226560963,72.04030226700252 L 135.28055248956673,72.04030226700252 L 135.31999165609557,72.04030226700252 L 135.35643839154298,72.04030226700252 L 136.83507563951918,72.04030226700252 L 136.8710385687438,72.04030226700252 L 138.38667803338615,72.04030226700252 L 138.41959477528235,72.04030226700252 L 139.92894475902887,72.04030226700252 L 139.96619783818085,72.04030226700252 L 140.01043922943927,72.04030226700252 L 141.4751177719516,72.04030226700252 L 141.5221544880526,72.04030226700252 L 143.0265947345756,72.04030226700252 L 143.0585976202733,72.04030226700252 L 143.10077835539775,72.04030226700252 L 144.5713342475791,72.04030226700252 L 144.6102537703872,72.04030226700252 L 144.65451308039462,72.04030226700252 L 146.11524949812895,72.04030226700252 L 146.15282511476278,72.04030226700252 L 146.18464881297052,72.04030226700252 L 147.668661685644,72.04030226700252 L 147.71191754570793,72.04030226700252 L 149.21789880464416,72.04030226700252 L 149.25671081495835,72.04030226700252 L 150.76627582369275,72.04030226700252 L 150.80483697152107,72.04030226700252 L 152.31406152402468,72.04030226700252 L 152.35224637812416,72.04030226700252 L 153.85677621839216,72.04030226700252 L 153.89207615390416,72.04030226700252 L 153.92287848341942,72.04030226700252 L 155.4131091619927,72.04030226700252 L 155.44882122873148,72.04030226700252 L 156.95885212493965,72.04030226700252 L 156.9967502790553,72.04030226700252 L 157.0374795955115,72.04030226700252 L 158.5090747751343,72.04030226700252 L 158.55059251654612,72.04030226700252 L 160.05625123800053,72.04030226700252 L 160.10049262925895,72.04030226700252 L 161.6080328193574,72.04030226700252 L 161.6514857856602,72.04030226700252 L 163.16280683179573,72.04030226700252 L 163.2001136671947,72.04030226700252 L 164.7041776199889,72.04030226700252 L 164.74854444249027,72.04030226700252 L 166.25233961404962,72.04030226700252 L 166.29446659292714,72.04030226700252 L 167.78955325247694,72.04030226700252 L 167.8343142874561,72.04030226700252 L 169.34631624605325,72.04030226700252 L 169.3924749434537,72.04030226700252 L 170.88981936537635,72.04030226700252 L 170.93995602505277,72.04030226700252 L 172.44654652145468,72.04030226700252 L 172.48734751290687,72.04030226700252 L 173.99160857194,72.04030226700252 L 174.03206910716133,72.04030226700252 L 175.54735019682383,72.04030226700252 L 175.5854454571784,72.04030226700252 L 177.09015448493628,72.04030226700252 L 177.13500511366038,72.04030226700252 L 178.6380656165111,72.04030226700252 L 178.67372392700292,72.04030226700252 L 180.18674725429258,72.04030226700252 L 180.23242214547025,72.04030226700252 L 181.73548264832098,72.04030226700252 L 181.7808887582638,72.04030226700252 L 183.2875867671597,72.04030226700252 L 183.33333333333334,72.04030226700252" stroke="#f59e0b" stroke-width="4" fill="none" opacity="0.4" stroke-dasharray="13400" stroke-dashoffset="13400">
      <animate attributeName="stroke-dashoffset" values="13400;0" dur="3s" begin="3.5999999999999996s" fill="freeze"/>
    </path>
    
    <!-- Animated circle that moves along the path and draws the line -->
    <circle r="5" fill="#f59e0b" opacity="0" filter="url(#trailGlow)">
      <animate attributeName="opacity" values="0;1;1;1" dur="3.2s" begin="3.4s" fill="freeze"/>
      <animate attributeName="r" values="5;6;5" dur="1s" begin="3.4s" repeatCount="3"/>
      <animateMotion dur="3s" begin="3.4s" fill="freeze">
        <mpath href="#path_totalContributions_526.6666666666667"/>
      </animateMotion>
    </circle>
    
    <!-- Small trail dots that fade out -->
    <circle r="2" fill="#f59e0b" opacity="0">
      <animate attributeName="opacity" values="0;0.6;0" dur="0.8s" begin="3.8s" fill="freeze"/>
      <animateMotion dur="3s" begin="3.4s" fill="freeze">
        <mpath href="#path_totalContributions_526.6666666666667"/>
      </animateMotion>
    </circle>
    
    <!-- Hidden path for motion animation -->
    <path id="path_totalContributions_526.6666666666667" d="M 30,160 L 30.030157254551607,160 L 30.06491962759386,160 L 31.546065500428785,160 L 31.575703111259656,160 L 31.60270666598887,160 L 33.09659276935629,160 L 33.12721591138166,160 L 33.15875290960556,160 L 34.649431556903615,160 L 34.678244905280906,160 L 34.7066640411804,160 L 36.19180579504029,160 L 36.22260812455556,40 L 36.25470060399818,40 L 37.745773463774036,40 L 37.76715053132013,40 L 37.79662687341008,40 L 39.290082926801716,40 L 39.313986537955515,40 L 39.356400216816866,40 L 40.84010847075748,40 L 40.87159171273441,40 L 40.89924034242729,40 L 42.382016821420386,40 L 42.416510413227776,40 L 42.45028725507554,40 L 43.93972950869322,40 L 43.954996282833434,40 L 43.99637067425331,40 L 45.48480947792751,40 L 45.517439519839854,40 L 45.55429838651404,40 L 47.03311482198015,40 L 47.063863395248454,40 L 47.103266724279344,40 L 48.57891154117407,40 L 48.61161325808238,40 L 48.64976227468391,40 L 50.13567453475039,40 L 50.1721033514488,40 L 51.67790542289514,40 L 51.75450807483104,40 L 53.226336198190715,40 L 53.26441353979628,40 L 53.300555656510824,40 L 54.77413981727161,40 L 54.81425989626213,40 L 54.84187268845704,40 L 56.325598861146645,40 L 56.3591785967555,40 L 56.39687964463226,40 L 57.86833147426313,40 L 57.901893291122995,40 L 57.939648095246724,40 L 59.41887666193962,40 L 59.45186507883179,40 L 59.48725460808872,40 L 60.97252179319154,40 L 61.015867247000415,40 L 62.55494443532277,40 L 62.59597837051182,40 L 64.07237577486416,40 L 64.1062063729589,40 L 65.6246053249458,40 L 65.6534186733231,40 L 65.70086752065087,40 L 67.16092302592357,40 L 67.19389352406674,40 L 67.22919345957871,40 L 68.71096648862832,40 L 68.74995768643241,40 L 68.78909223422843,40 L 70.25640483284242,40 L 70.28801350606228,40 L 70.32643130389867,40 L 71.80333043322277,40 L 71.83925752494943,40 L 71.88622256605444,40 L 73.34672604005192,40 L 73.38761662524904,40 L 73.42719914176983,40 L 74.90205553370897,40 L 74.93495435685617,40 L 74.972512054741,40 L 76.45019960902069,40 L 76.4834926446457,40 L 76.5218746049841,40 L 77.99637262194341,40 L 78.03496960726972,40 L 78.07655902367748,40 L 79.54611146591532,40 L 79.57684212043463,40 L 79.61388017459873,40 L 81.09565320364834,40 L 81.12323015834525,40 L 81.16089536872403,40 L 82.63996266667601,40 L 82.67531635843497,40 L 82.71436131248603,40 L 84.18919978567618,40 L 84.22672164606303,40 L 84.26662670006567,40 L 85.74153684825177,40 L 85.7686837529729,40 L 85.80751368203609,40 L 87.28842661113413,40 L 87.32499877782446,40 L 87.35761090098782,40 L 88.83192973045723,40 L 88.86540195357213,40 L 88.90394518265146,40 L 90.37742183091831,40 L 90.41802571613158,40 L 90.4551712827896,40 L 91.92904214353425,40 L 91.95968320430862,40 L 91.99408720237105,40 L 93.48336818724782,40 L 93.52076461639172,40 L 93.56285575777125,40 L 95.03031170637715,40 L 95.0637122544961,40 L 95.09711280261504,40 L 96.57499746313364,40 L 96.61208927354471,40 L 96.64857184649009,40 L 98.11656535756572,40 L 98.15684670529716,40 L 98.19519282813758,40 L 99.66350887669506,40 L 99.7037723056775,40 L 99.74795994068894,40 L 101.22616713868938,40 L 101.25818794313602,40 L 101.29959817205389,40 L 102.77047660171705,40 L 102.79814315015894,40 L 102.83321014193403,40 L 104.31426642102399,40 L 104.35087442521231,40 L 104.38800207312136,40 L 105.86321684004031,40 L 105.89518388823998,40 L 105.93652244216189,40 L 107.4110562966192,40 L 107.44322045105777,40 L 107.48131571141232,40 L 108.95972001565164,40 L 108.99123909512655,40 L 109.02537431195412,40 L 110.50619764730722,72.04030226700252 L 110.536032364377,72.04030226700252 L 112.05314116643656,72.04030226700252 L 112.08956998313496,72.04030226700252 L 112.1239739811974,72.04030226700252 L 113.60289792915745,72.04030226700252 L 113.62798417774465,72.04030226700252 L 113.67068455658985,72.04030226700252 L 115.15948173524387,72.04030226700252 L 115.19732613311254,72.04030226700252 L 116.70009993597944,72.04030226700252 L 116.73952118375931,72.04030226700252 L 116.79098383086104,72.04030226700252 L 118.25059136740896,72.04030226700252 L 118.28917043398627,72.04030226700252 L 118.31291277639914,72.04030226700252 L 119.80079609885463,72.04030226700252 L 119.83666943433433,72.04030226700252 L 119.87449591345401,72.04030226700252 L 121.34990778661185,72.04030226700252 L 121.3840967596864,72.04030226700252 L 121.42285501375362,72.04030226700252 L 122.8964212557654,72.04030226700252 L 122.92715191028473,72.04030226700252 L 122.96578473310899,72.04030226700252 L 124.44445781858319,72.04030226700252 L 124.47696242925261,72.04030226700252 L 124.5088936399543,72.04030226700252 L 125.99210016892316,72.04030226700252 L 126.02922781683222,72.04030226700252 L 126.07029758951926,72.04030226700252 L 127.5433621065593,72.04030226700252 L 127.5797909232577,72.04030226700252 L 127.62431901449997,72.04030226700252 L 129.08213467614883,72.04030226700252 L 129.11947734904572,72.04030226700252 L 129.1624106716278,72.04030226700252 L 130.63744625105687,72.04030226700252 L 130.67308664279966,72.04030226700252 L 130.7098200782309,72.04030226700252 L 132.1865400200651,72.04030226700252 L 132.2282727864648,72.04030226700252 L 132.27246042147624,72.04030226700252 L 133.73527541409354,72.04030226700252 L 133.7729406244723,72.04030226700252 L 133.81933226560963,72.04030226700252 L 135.28055248956673,72.04030226700252 L 135.31999165609557,72.04030226700252 L 135.35643839154298,72.04030226700252 L 136.83507563951918,72.04030226700252 L 136.8710385687438,72.04030226700252 L 138.38667803338615,72.04030226700252 L 138.41959477528235,72.04030226700252 L 139.92894475902887,72.04030226700252 L 139.96619783818085,72.04030226700252 L 140.01043922943927,72.04030226700252 L 141.4751177719516,72.04030226700252 L 141.5221544880526,72.04030226700252 L 143.0265947345756,72.04030226700252 L 143.0585976202733,72.04030226700252 L 143.10077835539775,72.04030226700252 L 144.5713342475791,72.04030226700252 L 144.6102537703872,72.04030226700252 L 144.65451308039462,72.04030226700252 L 146.11524949812895,72.04030226700252 L 146.15282511476278,72.04030226700252 L 146.18464881297052,72.04030226700252 L 147.668661685644,72.04030226700252 L 147.71191754570793,72.04030226700252 L 149.21789880464416,72.04030226700252 L 149.25671081495835,72.04030226700252 L 150.76627582369275,72.04030226700252 L 150.80483697152107,72.04030226700252 L 152.31406152402468,72.04030226700252 L 152.35224637812416,72.04030226700252 L 153.85677621839216,72.04030226700252 L 153.89207615390416,72.04030226700252 L 153.92287848341942,72.04030226700252 L 155.4131091619927,72.04030226700252 L 155.44882122873148,72.04030226700252 L 156.95885212493965,72.04030226700252 L 156.9967502790553,72.04030226700252 L 157.0374795955115,72.04030226700252 L 158.5090747751343,72.04030226700252 L 158.55059251654612,72.04030226700252 L 160.05625123800053,72.04030226700252 L 160.10049262925895,72.04030226700252 L 161.6080328193574,72.04030226700252 L 161.6514857856602,72.04030226700252 L 163.16280683179573,72.04030226700252 L 163.2001136671947,72.04030226700252 L 164.7041776199889,72.04030226700252 L 164.74854444249027,72.04030226700252 L 166.25233961404962,72.04030226700252 L 166.29446659292714,72.04030226700252 L 167.78955325247694,72.04030226700252 L 167.8343142874561,72.04030226700252 L 169.34631624605325,72.04030226700252 L 169.3924749434537,72.04030226700252 L 170.88981936537635,72.04030226700252 L 170.93995602505277,72.04030226700252 L 172.44654652145468,72.04030226700252 L 172.48734751290687,72.04030226700252 L 173.99160857194,72.04030226700252 L 174.03206910716133,72.04030226700252 L 175.54735019682383,72.04030226700252 L 175.5854454571784,72.04030226700252 L 177.09015448493628,72.04030226700252 L 177.13500511366038,72.04030226700252 L 178.6380656165111,72.04030226700252 L 178.67372392700292,72.04030226700252 L 180.18674725429258,72.04030226700252 L 180.23242214547025,72.04030226700252 L 181.73548264832098,72.04030226700252 L 181.7808887582638,72.04030226700252 L 183.2875867671597,72.04030226700252 L 183.33333333333334,72.04030226700252" fill="none" stroke="none"/>
  </g>
  
  <!-- Footer -->
  <text x="400" y="580" text-anchor="middle" fill="#94a3b8" font-size="12" font-family="Arial, sans-serif">
    Generated by GitHub User Rank Tracker • 4/28/2026
    <animate attributeName="opacity" values="0;1" dur="0.5s" begin="5s" fill="freeze"/>
  </text>
</svg>