<svg width="800" height="600" xmlns="http://www.w3.org/2000/svg">
  <defs>
    <linearGradient id="bgGradient" x1="0%" y1="0%" x2="100%" y2="100%">
      <stop offset="0%" style="stop-color:#f8fafc;stop-opacity:1" />
      <stop offset="100%" style="stop-color:#e2e8f0;stop-opacity:1" />
    </linearGradient>
    <filter id="shadow" x="-20%" y="-20%" width="140%" height="140%">
      <feDropShadow dx="2" dy="2" stdDeviation="3" flood-color="#00000020" flood-opacity="0.1"/>
    </filter>
    <!-- Trail effect filter -->
    <filter id="trailGlow" x="-50%" y="-50%" width="200%" height="200%">
      <feGaussianBlur stdDeviation="3" result="coloredBlur"/>
      <feMerge> 
        <feMergeNode in="coloredBlur"/>
        <feMergeNode in="SourceGraphic"/>
      </feMerge>
    </filter>
  </defs>
  
  <!-- Background -->
  <rect width="800" height="600" fill="url(#bgGradient)" rx="12"/>
  
  <!-- Header -->
  <text x="400" y="40" text-anchor="middle" fill="#0f172a" font-size="24" font-weight="bold" font-family="Arial, sans-serif">
    GitHub Progress Report
    <animate attributeName="opacity" values="0;1" dur="0.8s" begin="0s" fill="freeze"/>
    <animateTransform attributeName="transform" type="translate" values="0,-20;0,0" dur="0.8s" begin="0s" fill="freeze"/>
  </text>
  
  <!-- User Info -->
  <text x="400" y="70" text-anchor="middle" fill="#475569" font-size="16" font-family="Arial, sans-serif">
    @maifeeulasad • BANGLADESH • 100 days analyzed
    <animate attributeName="opacity" values="0;1" dur="0.6s" begin="0.3s" fill="freeze"/>
  </text>
  
  <!-- Progress Cards -->
  <!-- Followers Card -->
  <g transform="translate(60, 100)">
    <rect width="206.66666666666666" height="120" fill="#ffffff" stroke="#e2e8f0" stroke-width="1" rx="8" filter="url(#shadow)">
      <animate attributeName="opacity" values="0;1" dur="0.6s" begin="0.2s" fill="freeze"/>
      <animateTransform attributeName="transform" type="scale" values="0.8;1" dur="0.6s" begin="0.2s" fill="freeze"/>
    </rect>
    <text x="103.33333333333333" y="25" text-anchor="middle" fill="#64748b" font-size="14" font-weight="bold" font-family="Arial, sans-serif">FOLLOWERS
      <animate attributeName="opacity" values="0;1" dur="0.5s" begin="0.4s" fill="freeze"/>
    </text>
    
    <text x="103.33333333333333" y="50" text-anchor="middle" fill="#22c55e" font-size="32" font-weight="bold" font-family="Arial, sans-serif">
      ↗
      <animate attributeName="opacity" values="0;1" dur="0.5s" begin="0.6s" fill="freeze"/>
      <animateTransform attributeName="transform" type="scale" values="0;1.2;1" dur="0.8s" begin="0.6s" fill="freeze"/>
    </text>
    
    <text x="103.33333333333333" y="75" text-anchor="middle" fill="#1e293b" font-size="18" font-weight="bold" font-family="Arial, sans-serif">
      +6
      <animate attributeName="opacity" values="0;1" dur="0.5s" begin="0.8s" fill="freeze"/>
    </text>
    
    <text x="103.33333333333333" y="95" text-anchor="middle" fill="#64748b" font-size="12" font-family="Arial, sans-serif">
      #473 → #467
      <animate attributeName="opacity" values="0;1" dur="0.5s" begin="1s" fill="freeze"/>
    </text>
  </g>
  
  <!-- Public Contributions Card -->
  <g transform="translate(296.66666666666663, 100)">
    <rect width="206.66666666666666" height="120" fill="#ffffff" stroke="#e2e8f0" stroke-width="1" rx="8" filter="url(#shadow)">
      <animate attributeName="opacity" values="0;1" dur="0.6s" begin="0.4s" fill="freeze"/>
      <animateTransform attributeName="transform" type="scale" values="0.8;1" dur="0.6s" begin="0.4s" fill="freeze"/>
    </rect>
    <text x="103.33333333333333" y="25" text-anchor="middle" fill="#64748b" font-size="14" font-weight="bold" font-family="Arial, sans-serif">PUBLIC
      <animate attributeName="opacity" values="0;1" dur="0.5s" begin="0.6s" fill="freeze"/>
    </text>
    
    <text x="103.33333333333333" y="50" text-anchor="middle" fill="#22c55e" font-size="32" font-weight="bold" font-family="Arial, sans-serif">
      ↗
      <animate attributeName="opacity" values="0;1" dur="0.5s" begin="0.8s" fill="freeze"/>
      <animateTransform attributeName="transform" type="scale" values="0;1.2;1" dur="0.8s" begin="0.8s" fill="freeze"/>
    </text>
    
    <text x="103.33333333333333" y="75" text-anchor="middle" fill="#1e293b" font-size="18" font-weight="bold" font-family="Arial, sans-serif">
      +11
      <animate attributeName="opacity" values="0;1" dur="0.5s" begin="1s" fill="freeze"/>
    </text>
    
    <text x="103.33333333333333" y="95" text-anchor="middle" fill="#64748b" font-size="12" font-family="Arial, sans-serif">
      #18 → #7
      <animate attributeName="opacity" values="0;1" dur="0.5s" begin="1.2s" fill="freeze"/>
    </text>
  </g>
  
  <!-- Total Contributions Card -->
  <g transform="translate(533.3333333333333, 100)">
    <rect width="206.66666666666666" height="120" fill="#ffffff" stroke="#e2e8f0" stroke-width="1" rx="8" filter="url(#shadow)">
      <animate attributeName="opacity" values="0;1" dur="0.6s" begin="0.6s" fill="freeze"/>
      <animateTransform attributeName="transform" type="scale" values="0.8;1" dur="0.6s" begin="0.6s" fill="freeze"/>
    </rect>
    <text x="103.33333333333333" y="25" text-anchor="middle" fill="#64748b" font-size="14" font-weight="bold" font-family="Arial, sans-serif">TOTAL
      <animate attributeName="opacity" values="0;1" dur="0.5s" begin="0.8s" fill="freeze"/>
    </text>
    
    <text x="103.33333333333333" y="50" text-anchor="middle" fill="#22c55e" font-size="32" font-weight="bold" font-family="Arial, sans-serif">
      ↗
      <animate attributeName="opacity" values="0;1" dur="0.5s" begin="1s" fill="freeze"/>
      <animateTransform attributeName="transform" type="scale" values="0;1.2;1" dur="0.8s" begin="1s" fill="freeze"/>
    </text>
    
    <text x="103.33333333333333" y="75" text-anchor="middle" fill="#1e293b" font-size="18" font-weight="bold" font-family="Arial, sans-serif">
      +15
      <animate attributeName="opacity" values="0;1" dur="0.5s" begin="1.2s" fill="freeze"/>
    </text>
    
    <text x="103.33333333333333" y="95" text-anchor="middle" fill="#64748b" font-size="12" font-family="Arial, sans-serif">
      #39 → #24
      <animate attributeName="opacity" values="0;1" dur="0.5s" begin="1.4s" fill="freeze"/>
    </text>
  </g>
  
  <!-- Timeline Charts (if we have snapshots) -->
  
  <!-- 👥 Followers Count Chart -->
  <g transform="translate(60, 250)">
    <!-- Chart Background -->
    <rect x="0" y="0" width="213.33333333333334" height="200" fill="#ffffff" stroke="#e2e8f0" stroke-width="1" rx="8" filter="url(#shadow)">
      <animate attributeName="opacity" values="0;1" dur="0.5s" begin="1.8s" fill="freeze"/>
    </rect>
    
    <!-- Chart Title -->
    <text x="106.66666666666667" y="25" text-anchor="middle" fill="#1e293b" font-size="14" font-weight="bold" font-family="Arial, sans-serif">
      👥 Followers Count
      <animate attributeName="opacity" values="0;1" dur="0.5s" begin="2s" fill="freeze"/>
    </text>
    
    <!-- Y-axis labels -->
    <text x="10" y="45" fill="#64748b" font-size="10" font-family="Arial, sans-serif">143
      <animate attributeName="opacity" values="0;1" dur="0.5s" begin="2.2s" fill="freeze"/>
    </text>
    <text x="10" y="185" fill="#64748b" font-size="10" font-family="Arial, sans-serif">136
      <animate attributeName="opacity" values="0;1" dur="0.5s" begin="2.2s" fill="freeze"/>
    </text>
    
    <!-- Chart Line with draw animation that follows the circle -->
    <path d="M 30,160 L 31.47343878676085,160 L 31.498162343458887,160 L 31.531280905410462,160 L 33.00347730238749,160 L 33.03712831710356,160 L 33.07258967121891,160 L 34.537207490514625,160 L 34.56269422950844,160 L 34.594091194188145,160 L 36.07340470978392,160 L 36.09537726053207,160 L 36.12743091695465,160 L 37.60260904941285,160 L 37.628752480149544,160 L 37.65974123104314,160 L 39.135505061542275,160 L 39.16184372495928,160 L 39.19253075261967,160 L 40.67349487178537,160 L 40.70043698166881,160 L 40.73595158106061,160 L 42.20468703506842,160 L 42.23764586119064,160 L 42.25921019815269,160 L 43.736890858604006,160 L 43.762910050362315,160 L 43.795176687890695,160 L 45.265119034831365,160 L 45.30004793618222,160 L 45.330096020525204,160 L 46.805451637238235,160 L 46.83228725656877,160 L 46.86398594448169,160 L 48.34033547302178,160 L 48.36663863958782,160 L 48.39528459831764,160 L 49.87371069263925,160 L 49.900652802522686,160 L 49.92894379274284,160 L 51.40639372366288,160 L 51.438127908426765,160 L 51.47078501131578,160 L 52.93946722004714,160 L 52.96882311579628,160 L 53.00192392932237,160 L 54.464340943858176,160 L 54.503600461026934,160 L 54.5357783564279,160 L 56.0063064014095,160 L 56.03443765580031,160 L 56.06501819290779,160 L 57.54007208638761,160 L 57.566428498230096,160 L 57.59787870818626,160 L 59.071423985500005,160 L 59.09920027138114,160 L 59.1305439907844,160 L 60.60581086537002,160 L 60.62820937832976,160 L 60.66324477023352,160 L 62.14218556889414,160 L 62.17281935127807,160 L 62.20879540973244,160 L 63.677761593271526,160 L 63.70411800511402,160 L 63.73571020247404,160 L 65.20893600812909,57.14285714285715 L 65.23458248295225,57.14285714285715 L 65.26757680592544,57.14285714285715 L 66.7392230017125,57.14285714285715 L 66.76472748913179,57.14285714285715 L 66.79969188733361,57.14285714285715 L 68.26519712790349,57.14285714285715 L 68.30001953870145,57.14285714285715 L 68.33533890541293,57.14285714285715 L 69.80757079924092,57.14285714285715 L 69.82936586573425,57.14285714285715 L 69.86205846547423,57.14285714285715 L 71.3405200566468,57.14285714285715 L 71.3662375251719,57.14285714285715 L 71.39960456508024,57.14285714285715 L 72.86873048444868,57.14285714285715 L 72.90783026578808,57.14285714285715 L 72.9410020730161,57.14285714285715 L 74.4081579171559,57.14285714285715 L 74.44046005153527,57.14285714285715 L 74.47325914182814,57.14285714285715 L 75.94486984076421,57.14285714285715 L 75.97458070502302,57.14285714285715 L 76.00702482680623,57.14285714285715 L 77.47483736268893,57.14285714285715 L 77.50545339664737,57.14285714285715 L 77.53713433613481,57.14285714285715 L 79.00673946299129,57.14285714285715 L 79.03747973592812,57.14285714285715 L 79.07162770655772,57.14285714285715 L 80.54297217911156,57.14285714285715 L 80.57783008676049,57.14285714285715 L 80.6114278562001,57.14285714285715 L 82.07545997745487,57.14285714285715 L 82.10509984801175,57.14285714285715 L 82.13248566853227,57.14285714285715 L 83.61334329714506,57.14285714285715 L 83.6448290039522,57.14285714285715 L 83.6794739304953,57.14285714285715 L 85.14240564937015,57.14285714285715 L 85.1741575825595,57.14285714285715 L 85.21032887369418,57.14285714285715 L 86.6763133217521,57.14285714285715 L 86.70609517971283,57.14285714285715 L 86.7388055278783,57.14285714285715 L 88.21048722051631,57.14285714285715 L 88.23742933039975,57.14285714285715 L 88.27287293608963,57.14285714285715 L 89.74476760983343,57.14285714285715 L 89.7735555559671,57.14285714285715 L 89.80307118754561,57.14285714285715 L 91.27965144561698,57.14285714285715 L 91.30442824759146,57.14285714285715 L 91.33649965243953,57.14285714285715 L 92.80835882933238,57.14285714285715 L 92.83196423522497,57.14285714285715 L 92.85952754000033,57.14285714285715 L 94.3449465139623,57.14285714285715 L 94.37206610810057,57.14285714285715 L 94.40798892127849,57.14285714285715 L 95.87759404813497,57.14285714285715 L 95.90529934031417,57.14285714285715 L 95.9392165814125,57.14285714285715 L 97.4055382495546,57.14285714285715 L 97.430936246421,57.14285714285715 L 97.46446302215868,57.14285714285715 L 98.93573650101058,57.14285714285715 L 98.96816287436832,57.14285714285715 L 99.00053600244959,57.14285714285715 L 100.47527042427072,57.14285714285715 L 100.5009878927958,57.14285714285715 L 100.53195889526393,57.14285714285715 L 102.00992353052298,57.14285714285715 L 102.03567649589904,57.14285714285715 L 102.06677173734553,57.14285714285715 L 103.54012178197897,57.14285714285715 L 103.5694776777281,57.14285714285715 L 103.60041318334525,57.14285714285715 L 105.07851980600817,57.14285714285715 L 105.10645582771866,57.14285714285715 L 105.13959213809572,57.14285714285715 L 106.6129954280056,57.14285714285715 L 106.63855316070135,57.14285714285715 L 106.6744227286028,57.14285714285715 L 108.14195128967778,57.14285714285715 L 108.16724279599127,57.14285714285715 L 108.1975571067165,57.14285714285715 L 109.67511352818946,57.14285714285715 L 109.70065351245971,57.14285714285715 L 109.73151802437492,57.14285714285715 L 111.21026359035524,57.14285714285715 L 111.23152620408405,57.14285714285715 L 111.26200025063865,57.14285714285715 L 112.74360331312174,57.14285714285715 L 112.76841561194719,57.14285714285715 L 112.78898603708217,57.14285714285715 L 114.27500845751058,57.14285714285715 L 114.29864936025416,57.14285714285715 L 114.32855545719327,57.14285714285715 L 115.80462101092563,57.14285714285715 L 115.84017110716839,57.14285714285715 L 115.87238449942033,57.14285714285715 L 117.34461639324832,57.14285714285715 L 117.37102605036726,57.14285714285715 L 117.40196155598441,57.14285714285715 L 118.8783998266519,57.14285714285715 L 118.90422378572991,57.14285714285715 L 118.92916032353374,57.14285714285715 L 120.4135321403922,57.14285714285715 L 120.4356821753952,57.14285714285715 L 120.46147063762223,57.14285714285715 L 121.94273648002114,57.14285714285715 L 121.96799248948368,57.14285714285715 L 121.9964254671077,57.14285714285715 L 123.4786674729082,57.14285714285715 L 123.5006755205073,57.14285714285715 L 123.53116731548737,57.14285714285715 L 125.00119840455545,57.14285714285715 L 125.03447670233638,57.14285714285715 L 125.06512823314578,57.14285714285715 L 126.54598586175861,57.14285714285715 L 126.57445433623359,57.14285714285715 L 126.60338426977114,57.14285714285715 L 128.08031949635216,57.14285714285715 L 128.10997711533452,57.14285714285715 L 128.14334415524286,57.14285714285715 L 129.60892038951465,57.14285714285715 L 129.63382143046755,57.14285714285715 L 129.6623254017935,57.14285714285715 L 131.14275706819473,57.14285714285715 L 131.16128642439912,57.14285714285715 L 131.1938902820117,57.14285714285715 L 132.67730368389408,57.14285714285715 L 132.69968444842834,57.14285714285715 L 132.73012299813195,57.14285714285715 L 134.2124182492089,57.14285714285715 L 134.2348345105941,57.14285714285715 L 134.26147489724434,57.14285714285715 L 135.74330868925873,40 L 135.76604442230266,40 L 135.79522283379697,40 L 137.27824577031873,40 L 137.30183342778582,40 L 137.33472126020612,40 L 138.80294200987493,40 L 138.8359540812736,40 L 138.8682739640784,40 L 140.3458126371259,40 L 140.36315284882295,40 L 140.39272172567786,40 L 141.8765078444954,40 L 141.90076994213086,40 L 141.9326816111496,40 L 143.40372436047022,40 L 143.43556503578702,40 L 143.46401576183652,40 L 144.94400371760065,40 L 144.96904674595737,40 L 144.9965390570308,40 L 146.4752846230111,40 L 146.49984844387978,40 L 146.52467849113071,40 L 146.56402675042688,40 L 148.0142860935067,40 L 148.04019879471215,40 L 148.0671409045956,40 L 149.5467028981481,40 L 149.57254460565161,40 L 149.6007823505953,40 L 151.07938592917174,40 L 151.1031688193192,40 L 151.1303061618829,40 L 152.6083417908439,40 L 152.63691675587182,40 L 154.15257904685708,40 L 154.1699370069796,40 L 154.19748256332946,40 L 155.67841118564422,40 L 155.70285076753453,40 L 155.73305858770686,40 L 157.21150243045395,40 L 157.23535631430332,40 L 157.26217418520838,40 L 158.7476464044468,40 L 158.7732396339935,40 L 158.80531103884158,40 L 160.28270772448516,40 L 160.310288777686,40 L 160.3367339316559,40 L 161.81872745949963,40 L 161.83569495426156,40 L 161.86442965511878,40 L 163.34686689359958,40 L 163.36905242545353,40 L 163.39450366759638,40 L 164.88001138368577,40 L 164.90068829937366,40 L 164.93204976720241,40 L 166.41280090526232,40 L 166.43548339302978,40 L 166.46505226988472,40 L 167.94333637680248,40 L 167.96518468857224,40 L 167.9973625839732,40 L 169.4758419235713,40 L 169.50791332841933,40 L 169.54065917343576,40 L 171.01450617398274,40 L 171.03805833459887,40 L 171.06768045673027,40 L 172.54757967036699,40 L 172.57079461089896,40 L 172.60041673303036,40 L 174.0817713175567,40 L 174.11226311253677,40 L 174.14829241626757,40 L 175.6156434930877,40 L 175.63779352809067,40 L 175.6661200151618,40 L 177.150740309977,40 L 177.1695358925637,40 L 177.19919351154604,40 L 178.67916371888472,40 L 178.7012782570367,40 L 178.72951600198041,40 L 178.76815432425727,40 L 180.21669207006525,40 L 180.24620770164373,40 L 180.2755103521164,40 L 181.74637561718222,40 L 181.77340646919308,40 L 181.80164421413676,40 L 183.2824840943241,40 L 183.29767674653766,40 L 183.33333333333334,40" stroke="#22c55e" stroke-width="2" fill="none" stroke-dasharray="15100" stroke-dashoffset="15100">
      <animate attributeName="stroke-dashoffset" values="15100;0" dur="3s" begin="2.6s" fill="freeze"/>
    </path>
    
    <!-- Glow effect for the line that also follows the circle -->
    <path d="M 30,160 L 31.47343878676085,160 L 31.498162343458887,160 L 31.531280905410462,160 L 33.00347730238749,160 L 33.03712831710356,160 L 33.07258967121891,160 L 34.537207490514625,160 L 34.56269422950844,160 L 34.594091194188145,160 L 36.07340470978392,160 L 36.09537726053207,160 L 36.12743091695465,160 L 37.60260904941285,160 L 37.628752480149544,160 L 37.65974123104314,160 L 39.135505061542275,160 L 39.16184372495928,160 L 39.19253075261967,160 L 40.67349487178537,160 L 40.70043698166881,160 L 40.73595158106061,160 L 42.20468703506842,160 L 42.23764586119064,160 L 42.25921019815269,160 L 43.736890858604006,160 L 43.762910050362315,160 L 43.795176687890695,160 L 45.265119034831365,160 L 45.30004793618222,160 L 45.330096020525204,160 L 46.805451637238235,160 L 46.83228725656877,160 L 46.86398594448169,160 L 48.34033547302178,160 L 48.36663863958782,160 L 48.39528459831764,160 L 49.87371069263925,160 L 49.900652802522686,160 L 49.92894379274284,160 L 51.40639372366288,160 L 51.438127908426765,160 L 51.47078501131578,160 L 52.93946722004714,160 L 52.96882311579628,160 L 53.00192392932237,160 L 54.464340943858176,160 L 54.503600461026934,160 L 54.5357783564279,160 L 56.0063064014095,160 L 56.03443765580031,160 L 56.06501819290779,160 L 57.54007208638761,160 L 57.566428498230096,160 L 57.59787870818626,160 L 59.071423985500005,160 L 59.09920027138114,160 L 59.1305439907844,160 L 60.60581086537002,160 L 60.62820937832976,160 L 60.66324477023352,160 L 62.14218556889414,160 L 62.17281935127807,160 L 62.20879540973244,160 L 63.677761593271526,160 L 63.70411800511402,160 L 63.73571020247404,160 L 65.20893600812909,57.14285714285715 L 65.23458248295225,57.14285714285715 L 65.26757680592544,57.14285714285715 L 66.7392230017125,57.14285714285715 L 66.76472748913179,57.14285714285715 L 66.79969188733361,57.14285714285715 L 68.26519712790349,57.14285714285715 L 68.30001953870145,57.14285714285715 L 68.33533890541293,57.14285714285715 L 69.80757079924092,57.14285714285715 L 69.82936586573425,57.14285714285715 L 69.86205846547423,57.14285714285715 L 71.3405200566468,57.14285714285715 L 71.3662375251719,57.14285714285715 L 71.39960456508024,57.14285714285715 L 72.86873048444868,57.14285714285715 L 72.90783026578808,57.14285714285715 L 72.9410020730161,57.14285714285715 L 74.4081579171559,57.14285714285715 L 74.44046005153527,57.14285714285715 L 74.47325914182814,57.14285714285715 L 75.94486984076421,57.14285714285715 L 75.97458070502302,57.14285714285715 L 76.00702482680623,57.14285714285715 L 77.47483736268893,57.14285714285715 L 77.50545339664737,57.14285714285715 L 77.53713433613481,57.14285714285715 L 79.00673946299129,57.14285714285715 L 79.03747973592812,57.14285714285715 L 79.07162770655772,57.14285714285715 L 80.54297217911156,57.14285714285715 L 80.57783008676049,57.14285714285715 L 80.6114278562001,57.14285714285715 L 82.07545997745487,57.14285714285715 L 82.10509984801175,57.14285714285715 L 82.13248566853227,57.14285714285715 L 83.61334329714506,57.14285714285715 L 83.6448290039522,57.14285714285715 L 83.6794739304953,57.14285714285715 L 85.14240564937015,57.14285714285715 L 85.1741575825595,57.14285714285715 L 85.21032887369418,57.14285714285715 L 86.6763133217521,57.14285714285715 L 86.70609517971283,57.14285714285715 L 86.7388055278783,57.14285714285715 L 88.21048722051631,57.14285714285715 L 88.23742933039975,57.14285714285715 L 88.27287293608963,57.14285714285715 L 89.74476760983343,57.14285714285715 L 89.7735555559671,57.14285714285715 L 89.80307118754561,57.14285714285715 L 91.27965144561698,57.14285714285715 L 91.30442824759146,57.14285714285715 L 91.33649965243953,57.14285714285715 L 92.80835882933238,57.14285714285715 L 92.83196423522497,57.14285714285715 L 92.85952754000033,57.14285714285715 L 94.3449465139623,57.14285714285715 L 94.37206610810057,57.14285714285715 L 94.40798892127849,57.14285714285715 L 95.87759404813497,57.14285714285715 L 95.90529934031417,57.14285714285715 L 95.9392165814125,57.14285714285715 L 97.4055382495546,57.14285714285715 L 97.430936246421,57.14285714285715 L 97.46446302215868,57.14285714285715 L 98.93573650101058,57.14285714285715 L 98.96816287436832,57.14285714285715 L 99.00053600244959,57.14285714285715 L 100.47527042427072,57.14285714285715 L 100.5009878927958,57.14285714285715 L 100.53195889526393,57.14285714285715 L 102.00992353052298,57.14285714285715 L 102.03567649589904,57.14285714285715 L 102.06677173734553,57.14285714285715 L 103.54012178197897,57.14285714285715 L 103.5694776777281,57.14285714285715 L 103.60041318334525,57.14285714285715 L 105.07851980600817,57.14285714285715 L 105.10645582771866,57.14285714285715 L 105.13959213809572,57.14285714285715 L 106.6129954280056,57.14285714285715 L 106.63855316070135,57.14285714285715 L 106.6744227286028,57.14285714285715 L 108.14195128967778,57.14285714285715 L 108.16724279599127,57.14285714285715 L 108.1975571067165,57.14285714285715 L 109.67511352818946,57.14285714285715 L 109.70065351245971,57.14285714285715 L 109.73151802437492,57.14285714285715 L 111.21026359035524,57.14285714285715 L 111.23152620408405,57.14285714285715 L 111.26200025063865,57.14285714285715 L 112.74360331312174,57.14285714285715 L 112.76841561194719,57.14285714285715 L 112.78898603708217,57.14285714285715 L 114.27500845751058,57.14285714285715 L 114.29864936025416,57.14285714285715 L 114.32855545719327,57.14285714285715 L 115.80462101092563,57.14285714285715 L 115.84017110716839,57.14285714285715 L 115.87238449942033,57.14285714285715 L 117.34461639324832,57.14285714285715 L 117.37102605036726,57.14285714285715 L 117.40196155598441,57.14285714285715 L 118.8783998266519,57.14285714285715 L 118.90422378572991,57.14285714285715 L 118.92916032353374,57.14285714285715 L 120.4135321403922,57.14285714285715 L 120.4356821753952,57.14285714285715 L 120.46147063762223,57.14285714285715 L 121.94273648002114,57.14285714285715 L 121.96799248948368,57.14285714285715 L 121.9964254671077,57.14285714285715 L 123.4786674729082,57.14285714285715 L 123.5006755205073,57.14285714285715 L 123.53116731548737,57.14285714285715 L 125.00119840455545,57.14285714285715 L 125.03447670233638,57.14285714285715 L 125.06512823314578,57.14285714285715 L 126.54598586175861,57.14285714285715 L 126.57445433623359,57.14285714285715 L 126.60338426977114,57.14285714285715 L 128.08031949635216,57.14285714285715 L 128.10997711533452,57.14285714285715 L 128.14334415524286,57.14285714285715 L 129.60892038951465,57.14285714285715 L 129.63382143046755,57.14285714285715 L 129.6623254017935,57.14285714285715 L 131.14275706819473,57.14285714285715 L 131.16128642439912,57.14285714285715 L 131.1938902820117,57.14285714285715 L 132.67730368389408,57.14285714285715 L 132.69968444842834,57.14285714285715 L 132.73012299813195,57.14285714285715 L 134.2124182492089,57.14285714285715 L 134.2348345105941,57.14285714285715 L 134.26147489724434,57.14285714285715 L 135.74330868925873,40 L 135.76604442230266,40 L 135.79522283379697,40 L 137.27824577031873,40 L 137.30183342778582,40 L 137.33472126020612,40 L 138.80294200987493,40 L 138.8359540812736,40 L 138.8682739640784,40 L 140.3458126371259,40 L 140.36315284882295,40 L 140.39272172567786,40 L 141.8765078444954,40 L 141.90076994213086,40 L 141.9326816111496,40 L 143.40372436047022,40 L 143.43556503578702,40 L 143.46401576183652,40 L 144.94400371760065,40 L 144.96904674595737,40 L 144.9965390570308,40 L 146.4752846230111,40 L 146.49984844387978,40 L 146.52467849113071,40 L 146.56402675042688,40 L 148.0142860935067,40 L 148.04019879471215,40 L 148.0671409045956,40 L 149.5467028981481,40 L 149.57254460565161,40 L 149.6007823505953,40 L 151.07938592917174,40 L 151.1031688193192,40 L 151.1303061618829,40 L 152.6083417908439,40 L 152.63691675587182,40 L 154.15257904685708,40 L 154.1699370069796,40 L 154.19748256332946,40 L 155.67841118564422,40 L 155.70285076753453,40 L 155.73305858770686,40 L 157.21150243045395,40 L 157.23535631430332,40 L 157.26217418520838,40 L 158.7476464044468,40 L 158.7732396339935,40 L 158.80531103884158,40 L 160.28270772448516,40 L 160.310288777686,40 L 160.3367339316559,40 L 161.81872745949963,40 L 161.83569495426156,40 L 161.86442965511878,40 L 163.34686689359958,40 L 163.36905242545353,40 L 163.39450366759638,40 L 164.88001138368577,40 L 164.90068829937366,40 L 164.93204976720241,40 L 166.41280090526232,40 L 166.43548339302978,40 L 166.46505226988472,40 L 167.94333637680248,40 L 167.96518468857224,40 L 167.9973625839732,40 L 169.4758419235713,40 L 169.50791332841933,40 L 169.54065917343576,40 L 171.01450617398274,40 L 171.03805833459887,40 L 171.06768045673027,40 L 172.54757967036699,40 L 172.57079461089896,40 L 172.60041673303036,40 L 174.0817713175567,40 L 174.11226311253677,40 L 174.14829241626757,40 L 175.6156434930877,40 L 175.63779352809067,40 L 175.6661200151618,40 L 177.150740309977,40 L 177.1695358925637,40 L 177.19919351154604,40 L 178.67916371888472,40 L 178.7012782570367,40 L 178.72951600198041,40 L 178.76815432425727,40 L 180.21669207006525,40 L 180.24620770164373,40 L 180.2755103521164,40 L 181.74637561718222,40 L 181.77340646919308,40 L 181.80164421413676,40 L 183.2824840943241,40 L 183.29767674653766,40 L 183.33333333333334,40" stroke="#22c55e" stroke-width="4" fill="none" opacity="0.4" stroke-dasharray="15100" stroke-dashoffset="15100">
      <animate attributeName="stroke-dashoffset" values="15100;0" dur="3s" begin="2.6s" fill="freeze"/>
    </path>
    
    <!-- Animated circle that moves along the path and draws the line -->
    <circle r="5" fill="#22c55e" opacity="0" filter="url(#trailGlow)">
      <animate attributeName="opacity" values="0;1;1;1" dur="3.2s" begin="2.4s" fill="freeze"/>
      <animate attributeName="r" values="5;6;5" dur="1s" begin="2.4s" repeatCount="3"/>
      <animateMotion dur="3s" begin="2.4s" fill="freeze">
        <mpath href="#path_followersCount_60"/>
      </animateMotion>
    </circle>
    
    <!-- Small trail dots that fade out -->
    <circle r="2" fill="#22c55e" opacity="0">
      <animate attributeName="opacity" values="0;0.6;0" dur="0.8s" begin="2.8s" fill="freeze"/>
      <animateMotion dur="3s" begin="2.4s" fill="freeze">
        <mpath href="#path_followersCount_60"/>
      </animateMotion>
    </circle>
    
    <!-- Hidden path for motion animation -->
    <path id="path_followersCount_60" d="M 30,160 L 31.47343878676085,160 L 31.498162343458887,160 L 31.531280905410462,160 L 33.00347730238749,160 L 33.03712831710356,160 L 33.07258967121891,160 L 34.537207490514625,160 L 34.56269422950844,160 L 34.594091194188145,160 L 36.07340470978392,160 L 36.09537726053207,160 L 36.12743091695465,160 L 37.60260904941285,160 L 37.628752480149544,160 L 37.65974123104314,160 L 39.135505061542275,160 L 39.16184372495928,160 L 39.19253075261967,160 L 40.67349487178537,160 L 40.70043698166881,160 L 40.73595158106061,160 L 42.20468703506842,160 L 42.23764586119064,160 L 42.25921019815269,160 L 43.736890858604006,160 L 43.762910050362315,160 L 43.795176687890695,160 L 45.265119034831365,160 L 45.30004793618222,160 L 45.330096020525204,160 L 46.805451637238235,160 L 46.83228725656877,160 L 46.86398594448169,160 L 48.34033547302178,160 L 48.36663863958782,160 L 48.39528459831764,160 L 49.87371069263925,160 L 49.900652802522686,160 L 49.92894379274284,160 L 51.40639372366288,160 L 51.438127908426765,160 L 51.47078501131578,160 L 52.93946722004714,160 L 52.96882311579628,160 L 53.00192392932237,160 L 54.464340943858176,160 L 54.503600461026934,160 L 54.5357783564279,160 L 56.0063064014095,160 L 56.03443765580031,160 L 56.06501819290779,160 L 57.54007208638761,160 L 57.566428498230096,160 L 57.59787870818626,160 L 59.071423985500005,160 L 59.09920027138114,160 L 59.1305439907844,160 L 60.60581086537002,160 L 60.62820937832976,160 L 60.66324477023352,160 L 62.14218556889414,160 L 62.17281935127807,160 L 62.20879540973244,160 L 63.677761593271526,160 L 63.70411800511402,160 L 63.73571020247404,160 L 65.20893600812909,57.14285714285715 L 65.23458248295225,57.14285714285715 L 65.26757680592544,57.14285714285715 L 66.7392230017125,57.14285714285715 L 66.76472748913179,57.14285714285715 L 66.79969188733361,57.14285714285715 L 68.26519712790349,57.14285714285715 L 68.30001953870145,57.14285714285715 L 68.33533890541293,57.14285714285715 L 69.80757079924092,57.14285714285715 L 69.82936586573425,57.14285714285715 L 69.86205846547423,57.14285714285715 L 71.3405200566468,57.14285714285715 L 71.3662375251719,57.14285714285715 L 71.39960456508024,57.14285714285715 L 72.86873048444868,57.14285714285715 L 72.90783026578808,57.14285714285715 L 72.9410020730161,57.14285714285715 L 74.4081579171559,57.14285714285715 L 74.44046005153527,57.14285714285715 L 74.47325914182814,57.14285714285715 L 75.94486984076421,57.14285714285715 L 75.97458070502302,57.14285714285715 L 76.00702482680623,57.14285714285715 L 77.47483736268893,57.14285714285715 L 77.50545339664737,57.14285714285715 L 77.53713433613481,57.14285714285715 L 79.00673946299129,57.14285714285715 L 79.03747973592812,57.14285714285715 L 79.07162770655772,57.14285714285715 L 80.54297217911156,57.14285714285715 L 80.57783008676049,57.14285714285715 L 80.6114278562001,57.14285714285715 L 82.07545997745487,57.14285714285715 L 82.10509984801175,57.14285714285715 L 82.13248566853227,57.14285714285715 L 83.61334329714506,57.14285714285715 L 83.6448290039522,57.14285714285715 L 83.6794739304953,57.14285714285715 L 85.14240564937015,57.14285714285715 L 85.1741575825595,57.14285714285715 L 85.21032887369418,57.14285714285715 L 86.6763133217521,57.14285714285715 L 86.70609517971283,57.14285714285715 L 86.7388055278783,57.14285714285715 L 88.21048722051631,57.14285714285715 L 88.23742933039975,57.14285714285715 L 88.27287293608963,57.14285714285715 L 89.74476760983343,57.14285714285715 L 89.7735555559671,57.14285714285715 L 89.80307118754561,57.14285714285715 L 91.27965144561698,57.14285714285715 L 91.30442824759146,57.14285714285715 L 91.33649965243953,57.14285714285715 L 92.80835882933238,57.14285714285715 L 92.83196423522497,57.14285714285715 L 92.85952754000033,57.14285714285715 L 94.3449465139623,57.14285714285715 L 94.37206610810057,57.14285714285715 L 94.40798892127849,57.14285714285715 L 95.87759404813497,57.14285714285715 L 95.90529934031417,57.14285714285715 L 95.9392165814125,57.14285714285715 L 97.4055382495546,57.14285714285715 L 97.430936246421,57.14285714285715 L 97.46446302215868,57.14285714285715 L 98.93573650101058,57.14285714285715 L 98.96816287436832,57.14285714285715 L 99.00053600244959,57.14285714285715 L 100.47527042427072,57.14285714285715 L 100.5009878927958,57.14285714285715 L 100.53195889526393,57.14285714285715 L 102.00992353052298,57.14285714285715 L 102.03567649589904,57.14285714285715 L 102.06677173734553,57.14285714285715 L 103.54012178197897,57.14285714285715 L 103.5694776777281,57.14285714285715 L 103.60041318334525,57.14285714285715 L 105.07851980600817,57.14285714285715 L 105.10645582771866,57.14285714285715 L 105.13959213809572,57.14285714285715 L 106.6129954280056,57.14285714285715 L 106.63855316070135,57.14285714285715 L 106.6744227286028,57.14285714285715 L 108.14195128967778,57.14285714285715 L 108.16724279599127,57.14285714285715 L 108.1975571067165,57.14285714285715 L 109.67511352818946,57.14285714285715 L 109.70065351245971,57.14285714285715 L 109.73151802437492,57.14285714285715 L 111.21026359035524,57.14285714285715 L 111.23152620408405,57.14285714285715 L 111.26200025063865,57.14285714285715 L 112.74360331312174,57.14285714285715 L 112.76841561194719,57.14285714285715 L 112.78898603708217,57.14285714285715 L 114.27500845751058,57.14285714285715 L 114.29864936025416,57.14285714285715 L 114.32855545719327,57.14285714285715 L 115.80462101092563,57.14285714285715 L 115.84017110716839,57.14285714285715 L 115.87238449942033,57.14285714285715 L 117.34461639324832,57.14285714285715 L 117.37102605036726,57.14285714285715 L 117.40196155598441,57.14285714285715 L 118.8783998266519,57.14285714285715 L 118.90422378572991,57.14285714285715 L 118.92916032353374,57.14285714285715 L 120.4135321403922,57.14285714285715 L 120.4356821753952,57.14285714285715 L 120.46147063762223,57.14285714285715 L 121.94273648002114,57.14285714285715 L 121.96799248948368,57.14285714285715 L 121.9964254671077,57.14285714285715 L 123.4786674729082,57.14285714285715 L 123.5006755205073,57.14285714285715 L 123.53116731548737,57.14285714285715 L 125.00119840455545,57.14285714285715 L 125.03447670233638,57.14285714285715 L 125.06512823314578,57.14285714285715 L 126.54598586175861,57.14285714285715 L 126.57445433623359,57.14285714285715 L 126.60338426977114,57.14285714285715 L 128.08031949635216,57.14285714285715 L 128.10997711533452,57.14285714285715 L 128.14334415524286,57.14285714285715 L 129.60892038951465,57.14285714285715 L 129.63382143046755,57.14285714285715 L 129.6623254017935,57.14285714285715 L 131.14275706819473,57.14285714285715 L 131.16128642439912,57.14285714285715 L 131.1938902820117,57.14285714285715 L 132.67730368389408,57.14285714285715 L 132.69968444842834,57.14285714285715 L 132.73012299813195,57.14285714285715 L 134.2124182492089,57.14285714285715 L 134.2348345105941,57.14285714285715 L 134.26147489724434,57.14285714285715 L 135.74330868925873,40 L 135.76604442230266,40 L 135.79522283379697,40 L 137.27824577031873,40 L 137.30183342778582,40 L 137.33472126020612,40 L 138.80294200987493,40 L 138.8359540812736,40 L 138.8682739640784,40 L 140.3458126371259,40 L 140.36315284882295,40 L 140.39272172567786,40 L 141.8765078444954,40 L 141.90076994213086,40 L 141.9326816111496,40 L 143.40372436047022,40 L 143.43556503578702,40 L 143.46401576183652,40 L 144.94400371760065,40 L 144.96904674595737,40 L 144.9965390570308,40 L 146.4752846230111,40 L 146.49984844387978,40 L 146.52467849113071,40 L 146.56402675042688,40 L 148.0142860935067,40 L 148.04019879471215,40 L 148.0671409045956,40 L 149.5467028981481,40 L 149.57254460565161,40 L 149.6007823505953,40 L 151.07938592917174,40 L 151.1031688193192,40 L 151.1303061618829,40 L 152.6083417908439,40 L 152.63691675587182,40 L 154.15257904685708,40 L 154.1699370069796,40 L 154.19748256332946,40 L 155.67841118564422,40 L 155.70285076753453,40 L 155.73305858770686,40 L 157.21150243045395,40 L 157.23535631430332,40 L 157.26217418520838,40 L 158.7476464044468,40 L 158.7732396339935,40 L 158.80531103884158,40 L 160.28270772448516,40 L 160.310288777686,40 L 160.3367339316559,40 L 161.81872745949963,40 L 161.83569495426156,40 L 161.86442965511878,40 L 163.34686689359958,40 L 163.36905242545353,40 L 163.39450366759638,40 L 164.88001138368577,40 L 164.90068829937366,40 L 164.93204976720241,40 L 166.41280090526232,40 L 166.43548339302978,40 L 166.46505226988472,40 L 167.94333637680248,40 L 167.96518468857224,40 L 167.9973625839732,40 L 169.4758419235713,40 L 169.50791332841933,40 L 169.54065917343576,40 L 171.01450617398274,40 L 171.03805833459887,40 L 171.06768045673027,40 L 172.54757967036699,40 L 172.57079461089896,40 L 172.60041673303036,40 L 174.0817713175567,40 L 174.11226311253677,40 L 174.14829241626757,40 L 175.6156434930877,40 L 175.63779352809067,40 L 175.6661200151618,40 L 177.150740309977,40 L 177.1695358925637,40 L 177.19919351154604,40 L 178.67916371888472,40 L 178.7012782570367,40 L 178.72951600198041,40 L 178.76815432425727,40 L 180.21669207006525,40 L 180.24620770164373,40 L 180.2755103521164,40 L 181.74637561718222,40 L 181.77340646919308,40 L 181.80164421413676,40 L 183.2824840943241,40 L 183.29767674653766,40 L 183.33333333333334,40" fill="none" stroke="none"/>
  </g>
  <!-- 🔓 Public Contributions Chart -->
  <g transform="translate(293.33333333333337, 250)">
    <!-- Chart Background -->
    <rect x="0" y="0" width="213.33333333333334" height="200" fill="#ffffff" stroke="#e2e8f0" stroke-width="1" rx="8" filter="url(#shadow)">
      <animate attributeName="opacity" values="0;1" dur="0.5s" begin="2.3s" fill="freeze"/>
    </rect>
    
    <!-- Chart Title -->
    <text x="106.66666666666667" y="25" text-anchor="middle" fill="#1e293b" font-size="14" font-weight="bold" font-family="Arial, sans-serif">
      🔓 Public Contributions
      <animate attributeName="opacity" values="0;1" dur="0.5s" begin="2.5s" fill="freeze"/>
    </text>
    
    <!-- Y-axis labels -->
    <text x="10" y="45" fill="#64748b" font-size="10" font-family="Arial, sans-serif">2,669
      <animate attributeName="opacity" values="0;1" dur="0.5s" begin="2.6999999999999997s" fill="freeze"/>
    </text>
    <text x="10" y="185" fill="#64748b" font-size="10" font-family="Arial, sans-serif">1,491
      <animate attributeName="opacity" values="0;1" dur="0.5s" begin="2.6999999999999997s" fill="freeze"/>
    </text>
    
    <!-- Chart Line with draw animation that follows the circle -->
    <path d="M 30,160 L 31.47343878676085,160 L 31.498162343458887,160 L 31.531280905410462,160 L 33.00347730238749,160 L 33.03712831710356,160 L 33.07258967121891,160 L 34.537207490514625,160 L 34.56269422950844,160 L 34.594091194188145,160 L 36.07340470978392,160 L 36.09537726053207,160 L 36.12743091695465,160 L 37.60260904941285,160 L 37.628752480149544,160 L 37.65974123104314,160 L 39.135505061542275,160 L 39.16184372495928,160 L 39.19253075261967,160 L 40.67349487178537,160 L 40.70043698166881,160 L 40.73595158106061,160 L 42.20468703506842,160 L 42.23764586119064,160 L 42.25921019815269,160 L 43.736890858604006,160 L 43.762910050362315,160 L 43.795176687890695,160 L 45.265119034831365,160 L 45.30004793618222,160 L 45.330096020525204,160 L 46.805451637238235,160 L 46.83228725656877,160 L 46.86398594448169,160 L 48.34033547302178,160 L 48.36663863958782,160 L 48.39528459831764,160 L 49.87371069263925,160 L 49.900652802522686,160 L 49.92894379274284,160 L 51.40639372366288,160 L 51.438127908426765,160 L 51.47078501131578,160 L 52.93946722004714,160 L 52.96882311579628,160 L 53.00192392932237,160 L 54.464340943858176,160 L 54.503600461026934,160 L 54.5357783564279,160 L 56.0063064014095,160 L 56.03443765580031,160 L 56.06501819290779,160 L 57.54007208638761,160 L 57.566428498230096,160 L 57.59787870818626,160 L 59.071423985500005,160 L 59.09920027138114,160 L 59.1305439907844,160 L 60.60581086537002,160 L 60.62820937832976,160 L 60.66324477023352,160 L 62.14218556889414,160 L 62.17281935127807,160 L 62.20879540973244,160 L 63.677761593271526,160 L 63.70411800511402,160 L 63.73571020247404,160 L 65.20893600812909,133.3106960950764 L 65.23458248295225,133.3106960950764 L 65.26757680592544,133.3106960950764 L 66.7392230017125,133.3106960950764 L 66.76472748913179,133.3106960950764 L 66.79969188733361,133.3106960950764 L 68.26519712790349,133.3106960950764 L 68.30001953870145,133.3106960950764 L 68.33533890541293,133.3106960950764 L 69.80757079924092,133.3106960950764 L 69.82936586573425,133.3106960950764 L 69.86205846547423,133.3106960950764 L 71.3405200566468,133.3106960950764 L 71.3662375251719,133.3106960950764 L 71.39960456508024,133.3106960950764 L 72.86873048444868,133.3106960950764 L 72.90783026578808,133.3106960950764 L 72.9410020730161,133.3106960950764 L 74.4081579171559,133.3106960950764 L 74.44046005153527,133.3106960950764 L 74.47325914182814,133.3106960950764 L 75.94486984076421,133.3106960950764 L 75.97458070502302,133.3106960950764 L 76.00702482680623,133.3106960950764 L 77.47483736268893,133.3106960950764 L 77.50545339664737,133.3106960950764 L 77.53713433613481,133.3106960950764 L 79.00673946299129,133.3106960950764 L 79.03747973592812,133.3106960950764 L 79.07162770655772,133.3106960950764 L 80.54297217911156,133.3106960950764 L 80.57783008676049,133.3106960950764 L 80.6114278562001,133.3106960950764 L 82.07545997745487,133.3106960950764 L 82.10509984801175,133.3106960950764 L 82.13248566853227,133.3106960950764 L 83.61334329714506,133.3106960950764 L 83.6448290039522,133.3106960950764 L 83.6794739304953,133.3106960950764 L 85.14240564937015,133.3106960950764 L 85.1741575825595,133.3106960950764 L 85.21032887369418,133.3106960950764 L 86.6763133217521,133.3106960950764 L 86.70609517971283,133.3106960950764 L 86.7388055278783,133.3106960950764 L 88.21048722051631,133.3106960950764 L 88.23742933039975,133.3106960950764 L 88.27287293608963,133.3106960950764 L 89.74476760983343,133.3106960950764 L 89.7735555559671,133.3106960950764 L 89.80307118754561,133.3106960950764 L 91.27965144561698,133.3106960950764 L 91.30442824759146,133.3106960950764 L 91.33649965243953,133.3106960950764 L 92.80835882933238,133.3106960950764 L 92.83196423522497,133.3106960950764 L 92.85952754000033,133.3106960950764 L 94.3449465139623,133.3106960950764 L 94.37206610810057,133.3106960950764 L 94.40798892127849,133.3106960950764 L 95.87759404813497,133.3106960950764 L 95.90529934031417,133.3106960950764 L 95.9392165814125,133.3106960950764 L 97.4055382495546,133.3106960950764 L 97.430936246421,133.3106960950764 L 97.46446302215868,133.3106960950764 L 98.93573650101058,133.3106960950764 L 98.96816287436832,133.3106960950764 L 99.00053600244959,133.3106960950764 L 100.47527042427072,133.3106960950764 L 100.5009878927958,133.3106960950764 L 100.53195889526393,133.3106960950764 L 102.00992353052298,133.3106960950764 L 102.03567649589904,133.3106960950764 L 102.06677173734553,133.3106960950764 L 103.54012178197897,133.3106960950764 L 103.5694776777281,133.3106960950764 L 103.60041318334525,133.3106960950764 L 105.07851980600817,133.3106960950764 L 105.10645582771866,133.3106960950764 L 105.13959213809572,133.3106960950764 L 106.6129954280056,133.3106960950764 L 106.63855316070135,133.3106960950764 L 106.6744227286028,133.3106960950764 L 108.14195128967778,133.3106960950764 L 108.16724279599127,133.3106960950764 L 108.1975571067165,133.3106960950764 L 109.67511352818946,133.3106960950764 L 109.70065351245971,133.3106960950764 L 109.73151802437492,133.3106960950764 L 111.21026359035524,133.3106960950764 L 111.23152620408405,133.3106960950764 L 111.26200025063865,133.3106960950764 L 112.74360331312174,133.3106960950764 L 112.76841561194719,133.3106960950764 L 112.78898603708217,133.3106960950764 L 114.27500845751058,133.3106960950764 L 114.29864936025416,133.3106960950764 L 114.32855545719327,133.3106960950764 L 115.80462101092563,133.3106960950764 L 115.84017110716839,133.3106960950764 L 115.87238449942033,133.3106960950764 L 117.34461639324832,133.3106960950764 L 117.37102605036726,133.3106960950764 L 117.40196155598441,133.3106960950764 L 118.8783998266519,133.3106960950764 L 118.90422378572991,133.3106960950764 L 118.92916032353374,133.3106960950764 L 120.4135321403922,133.3106960950764 L 120.4356821753952,133.3106960950764 L 120.46147063762223,133.3106960950764 L 121.94273648002114,133.3106960950764 L 121.96799248948368,133.3106960950764 L 121.9964254671077,133.3106960950764 L 123.4786674729082,133.3106960950764 L 123.5006755205073,133.3106960950764 L 123.53116731548737,133.3106960950764 L 125.00119840455545,133.3106960950764 L 125.03447670233638,133.3106960950764 L 125.06512823314578,133.3106960950764 L 126.54598586175861,133.3106960950764 L 126.57445433623359,133.3106960950764 L 126.60338426977114,133.3106960950764 L 128.08031949635216,133.3106960950764 L 128.10997711533452,133.3106960950764 L 128.14334415524286,133.3106960950764 L 129.60892038951465,133.3106960950764 L 129.63382143046755,133.3106960950764 L 129.6623254017935,133.3106960950764 L 131.14275706819473,133.3106960950764 L 131.16128642439912,133.3106960950764 L 131.1938902820117,133.3106960950764 L 132.67730368389408,133.3106960950764 L 132.69968444842834,133.3106960950764 L 132.73012299813195,133.3106960950764 L 134.2124182492089,133.3106960950764 L 134.2348345105941,133.3106960950764 L 134.26147489724434,133.3106960950764 L 135.74330868925873,40 L 135.76604442230266,40 L 135.79522283379697,40 L 137.27824577031873,40 L 137.30183342778582,40 L 137.33472126020612,40 L 138.80294200987493,40 L 138.8359540812736,40 L 138.8682739640784,40 L 140.3458126371259,40 L 140.36315284882295,40 L 140.39272172567786,40 L 141.8765078444954,40 L 141.90076994213086,40 L 141.9326816111496,40 L 143.40372436047022,40 L 143.43556503578702,40 L 143.46401576183652,40 L 144.94400371760065,40 L 144.96904674595737,40 L 144.9965390570308,40 L 146.4752846230111,40 L 146.49984844387978,40 L 146.52467849113071,40 L 146.56402675042688,40 L 148.0142860935067,40 L 148.04019879471215,40 L 148.0671409045956,40 L 149.5467028981481,40 L 149.57254460565161,40 L 149.6007823505953,40 L 151.07938592917174,40 L 151.1031688193192,40 L 151.1303061618829,40 L 152.6083417908439,40 L 152.63691675587182,40 L 154.15257904685708,40 L 154.1699370069796,40 L 154.19748256332946,40 L 155.67841118564422,40 L 155.70285076753453,40 L 155.73305858770686,40 L 157.21150243045395,40 L 157.23535631430332,40 L 157.26217418520838,40 L 158.7476464044468,40 L 158.7732396339935,40 L 158.80531103884158,40 L 160.28270772448516,40 L 160.310288777686,40 L 160.3367339316559,40 L 161.81872745949963,40 L 161.83569495426156,40 L 161.86442965511878,40 L 163.34686689359958,40 L 163.36905242545353,40 L 163.39450366759638,40 L 164.88001138368577,40 L 164.90068829937366,40 L 164.93204976720241,40 L 166.41280090526232,40 L 166.43548339302978,40 L 166.46505226988472,40 L 167.94333637680248,40 L 167.96518468857224,40 L 167.9973625839732,40 L 169.4758419235713,40 L 169.50791332841933,40 L 169.54065917343576,40 L 171.01450617398274,40 L 171.03805833459887,40 L 171.06768045673027,40 L 172.54757967036699,40 L 172.57079461089896,40 L 172.60041673303036,40 L 174.0817713175567,40 L 174.11226311253677,40 L 174.14829241626757,40 L 175.6156434930877,40 L 175.63779352809067,40 L 175.6661200151618,40 L 177.150740309977,40 L 177.1695358925637,40 L 177.19919351154604,40 L 178.67916371888472,40 L 178.7012782570367,40 L 178.72951600198041,40 L 178.76815432425727,40 L 180.21669207006525,40 L 180.24620770164373,40 L 180.2755103521164,40 L 181.74637561718222,40 L 181.77340646919308,40 L 181.80164421413676,40 L 183.2824840943241,40 L 183.29767674653766,40 L 183.33333333333334,40" stroke="#3b82f6" stroke-width="2" fill="none" stroke-dasharray="15100" stroke-dashoffset="15100">
      <animate attributeName="stroke-dashoffset" values="15100;0" dur="3s" begin="3.0999999999999996s" fill="freeze"/>
    </path>
    
    <!-- Glow effect for the line that also follows the circle -->
    <path d="M 30,160 L 31.47343878676085,160 L 31.498162343458887,160 L 31.531280905410462,160 L 33.00347730238749,160 L 33.03712831710356,160 L 33.07258967121891,160 L 34.537207490514625,160 L 34.56269422950844,160 L 34.594091194188145,160 L 36.07340470978392,160 L 36.09537726053207,160 L 36.12743091695465,160 L 37.60260904941285,160 L 37.628752480149544,160 L 37.65974123104314,160 L 39.135505061542275,160 L 39.16184372495928,160 L 39.19253075261967,160 L 40.67349487178537,160 L 40.70043698166881,160 L 40.73595158106061,160 L 42.20468703506842,160 L 42.23764586119064,160 L 42.25921019815269,160 L 43.736890858604006,160 L 43.762910050362315,160 L 43.795176687890695,160 L 45.265119034831365,160 L 45.30004793618222,160 L 45.330096020525204,160 L 46.805451637238235,160 L 46.83228725656877,160 L 46.86398594448169,160 L 48.34033547302178,160 L 48.36663863958782,160 L 48.39528459831764,160 L 49.87371069263925,160 L 49.900652802522686,160 L 49.92894379274284,160 L 51.40639372366288,160 L 51.438127908426765,160 L 51.47078501131578,160 L 52.93946722004714,160 L 52.96882311579628,160 L 53.00192392932237,160 L 54.464340943858176,160 L 54.503600461026934,160 L 54.5357783564279,160 L 56.0063064014095,160 L 56.03443765580031,160 L 56.06501819290779,160 L 57.54007208638761,160 L 57.566428498230096,160 L 57.59787870818626,160 L 59.071423985500005,160 L 59.09920027138114,160 L 59.1305439907844,160 L 60.60581086537002,160 L 60.62820937832976,160 L 60.66324477023352,160 L 62.14218556889414,160 L 62.17281935127807,160 L 62.20879540973244,160 L 63.677761593271526,160 L 63.70411800511402,160 L 63.73571020247404,160 L 65.20893600812909,133.3106960950764 L 65.23458248295225,133.3106960950764 L 65.26757680592544,133.3106960950764 L 66.7392230017125,133.3106960950764 L 66.76472748913179,133.3106960950764 L 66.79969188733361,133.3106960950764 L 68.26519712790349,133.3106960950764 L 68.30001953870145,133.3106960950764 L 68.33533890541293,133.3106960950764 L 69.80757079924092,133.3106960950764 L 69.82936586573425,133.3106960950764 L 69.86205846547423,133.3106960950764 L 71.3405200566468,133.3106960950764 L 71.3662375251719,133.3106960950764 L 71.39960456508024,133.3106960950764 L 72.86873048444868,133.3106960950764 L 72.90783026578808,133.3106960950764 L 72.9410020730161,133.3106960950764 L 74.4081579171559,133.3106960950764 L 74.44046005153527,133.3106960950764 L 74.47325914182814,133.3106960950764 L 75.94486984076421,133.3106960950764 L 75.97458070502302,133.3106960950764 L 76.00702482680623,133.3106960950764 L 77.47483736268893,133.3106960950764 L 77.50545339664737,133.3106960950764 L 77.53713433613481,133.3106960950764 L 79.00673946299129,133.3106960950764 L 79.03747973592812,133.3106960950764 L 79.07162770655772,133.3106960950764 L 80.54297217911156,133.3106960950764 L 80.57783008676049,133.3106960950764 L 80.6114278562001,133.3106960950764 L 82.07545997745487,133.3106960950764 L 82.10509984801175,133.3106960950764 L 82.13248566853227,133.3106960950764 L 83.61334329714506,133.3106960950764 L 83.6448290039522,133.3106960950764 L 83.6794739304953,133.3106960950764 L 85.14240564937015,133.3106960950764 L 85.1741575825595,133.3106960950764 L 85.21032887369418,133.3106960950764 L 86.6763133217521,133.3106960950764 L 86.70609517971283,133.3106960950764 L 86.7388055278783,133.3106960950764 L 88.21048722051631,133.3106960950764 L 88.23742933039975,133.3106960950764 L 88.27287293608963,133.3106960950764 L 89.74476760983343,133.3106960950764 L 89.7735555559671,133.3106960950764 L 89.80307118754561,133.3106960950764 L 91.27965144561698,133.3106960950764 L 91.30442824759146,133.3106960950764 L 91.33649965243953,133.3106960950764 L 92.80835882933238,133.3106960950764 L 92.83196423522497,133.3106960950764 L 92.85952754000033,133.3106960950764 L 94.3449465139623,133.3106960950764 L 94.37206610810057,133.3106960950764 L 94.40798892127849,133.3106960950764 L 95.87759404813497,133.3106960950764 L 95.90529934031417,133.3106960950764 L 95.9392165814125,133.3106960950764 L 97.4055382495546,133.3106960950764 L 97.430936246421,133.3106960950764 L 97.46446302215868,133.3106960950764 L 98.93573650101058,133.3106960950764 L 98.96816287436832,133.3106960950764 L 99.00053600244959,133.3106960950764 L 100.47527042427072,133.3106960950764 L 100.5009878927958,133.3106960950764 L 100.53195889526393,133.3106960950764 L 102.00992353052298,133.3106960950764 L 102.03567649589904,133.3106960950764 L 102.06677173734553,133.3106960950764 L 103.54012178197897,133.3106960950764 L 103.5694776777281,133.3106960950764 L 103.60041318334525,133.3106960950764 L 105.07851980600817,133.3106960950764 L 105.10645582771866,133.3106960950764 L 105.13959213809572,133.3106960950764 L 106.6129954280056,133.3106960950764 L 106.63855316070135,133.3106960950764 L 106.6744227286028,133.3106960950764 L 108.14195128967778,133.3106960950764 L 108.16724279599127,133.3106960950764 L 108.1975571067165,133.3106960950764 L 109.67511352818946,133.3106960950764 L 109.70065351245971,133.3106960950764 L 109.73151802437492,133.3106960950764 L 111.21026359035524,133.3106960950764 L 111.23152620408405,133.3106960950764 L 111.26200025063865,133.3106960950764 L 112.74360331312174,133.3106960950764 L 112.76841561194719,133.3106960950764 L 112.78898603708217,133.3106960950764 L 114.27500845751058,133.3106960950764 L 114.29864936025416,133.3106960950764 L 114.32855545719327,133.3106960950764 L 115.80462101092563,133.3106960950764 L 115.84017110716839,133.3106960950764 L 115.87238449942033,133.3106960950764 L 117.34461639324832,133.3106960950764 L 117.37102605036726,133.3106960950764 L 117.40196155598441,133.3106960950764 L 118.8783998266519,133.3106960950764 L 118.90422378572991,133.3106960950764 L 118.92916032353374,133.3106960950764 L 120.4135321403922,133.3106960950764 L 120.4356821753952,133.3106960950764 L 120.46147063762223,133.3106960950764 L 121.94273648002114,133.3106960950764 L 121.96799248948368,133.3106960950764 L 121.9964254671077,133.3106960950764 L 123.4786674729082,133.3106960950764 L 123.5006755205073,133.3106960950764 L 123.53116731548737,133.3106960950764 L 125.00119840455545,133.3106960950764 L 125.03447670233638,133.3106960950764 L 125.06512823314578,133.3106960950764 L 126.54598586175861,133.3106960950764 L 126.57445433623359,133.3106960950764 L 126.60338426977114,133.3106960950764 L 128.08031949635216,133.3106960950764 L 128.10997711533452,133.3106960950764 L 128.14334415524286,133.3106960950764 L 129.60892038951465,133.3106960950764 L 129.63382143046755,133.3106960950764 L 129.6623254017935,133.3106960950764 L 131.14275706819473,133.3106960950764 L 131.16128642439912,133.3106960950764 L 131.1938902820117,133.3106960950764 L 132.67730368389408,133.3106960950764 L 132.69968444842834,133.3106960950764 L 132.73012299813195,133.3106960950764 L 134.2124182492089,133.3106960950764 L 134.2348345105941,133.3106960950764 L 134.26147489724434,133.3106960950764 L 135.74330868925873,40 L 135.76604442230266,40 L 135.79522283379697,40 L 137.27824577031873,40 L 137.30183342778582,40 L 137.33472126020612,40 L 138.80294200987493,40 L 138.8359540812736,40 L 138.8682739640784,40 L 140.3458126371259,40 L 140.36315284882295,40 L 140.39272172567786,40 L 141.8765078444954,40 L 141.90076994213086,40 L 141.9326816111496,40 L 143.40372436047022,40 L 143.43556503578702,40 L 143.46401576183652,40 L 144.94400371760065,40 L 144.96904674595737,40 L 144.9965390570308,40 L 146.4752846230111,40 L 146.49984844387978,40 L 146.52467849113071,40 L 146.56402675042688,40 L 148.0142860935067,40 L 148.04019879471215,40 L 148.0671409045956,40 L 149.5467028981481,40 L 149.57254460565161,40 L 149.6007823505953,40 L 151.07938592917174,40 L 151.1031688193192,40 L 151.1303061618829,40 L 152.6083417908439,40 L 152.63691675587182,40 L 154.15257904685708,40 L 154.1699370069796,40 L 154.19748256332946,40 L 155.67841118564422,40 L 155.70285076753453,40 L 155.73305858770686,40 L 157.21150243045395,40 L 157.23535631430332,40 L 157.26217418520838,40 L 158.7476464044468,40 L 158.7732396339935,40 L 158.80531103884158,40 L 160.28270772448516,40 L 160.310288777686,40 L 160.3367339316559,40 L 161.81872745949963,40 L 161.83569495426156,40 L 161.86442965511878,40 L 163.34686689359958,40 L 163.36905242545353,40 L 163.39450366759638,40 L 164.88001138368577,40 L 164.90068829937366,40 L 164.93204976720241,40 L 166.41280090526232,40 L 166.43548339302978,40 L 166.46505226988472,40 L 167.94333637680248,40 L 167.96518468857224,40 L 167.9973625839732,40 L 169.4758419235713,40 L 169.50791332841933,40 L 169.54065917343576,40 L 171.01450617398274,40 L 171.03805833459887,40 L 171.06768045673027,40 L 172.54757967036699,40 L 172.57079461089896,40 L 172.60041673303036,40 L 174.0817713175567,40 L 174.11226311253677,40 L 174.14829241626757,40 L 175.6156434930877,40 L 175.63779352809067,40 L 175.6661200151618,40 L 177.150740309977,40 L 177.1695358925637,40 L 177.19919351154604,40 L 178.67916371888472,40 L 178.7012782570367,40 L 178.72951600198041,40 L 178.76815432425727,40 L 180.21669207006525,40 L 180.24620770164373,40 L 180.2755103521164,40 L 181.74637561718222,40 L 181.77340646919308,40 L 181.80164421413676,40 L 183.2824840943241,40 L 183.29767674653766,40 L 183.33333333333334,40" stroke="#3b82f6" stroke-width="4" fill="none" opacity="0.4" stroke-dasharray="15100" stroke-dashoffset="15100">
      <animate attributeName="stroke-dashoffset" values="15100;0" dur="3s" begin="3.0999999999999996s" fill="freeze"/>
    </path>
    
    <!-- Animated circle that moves along the path and draws the line -->
    <circle r="5" fill="#3b82f6" opacity="0" filter="url(#trailGlow)">
      <animate attributeName="opacity" values="0;1;1;1" dur="3.2s" begin="2.9s" fill="freeze"/>
      <animate attributeName="r" values="5;6;5" dur="1s" begin="2.9s" repeatCount="3"/>
      <animateMotion dur="3s" begin="2.9s" fill="freeze">
        <mpath href="#path_publicContributions_293.33333333333337"/>
      </animateMotion>
    </circle>
    
    <!-- Small trail dots that fade out -->
    <circle r="2" fill="#3b82f6" opacity="0">
      <animate attributeName="opacity" values="0;0.6;0" dur="0.8s" begin="3.3s" fill="freeze"/>
      <animateMotion dur="3s" begin="2.9s" fill="freeze">
        <mpath href="#path_publicContributions_293.33333333333337"/>
      </animateMotion>
    </circle>
    
    <!-- Hidden path for motion animation -->
    <path id="path_publicContributions_293.33333333333337" d="M 30,160 L 31.47343878676085,160 L 31.498162343458887,160 L 31.531280905410462,160 L 33.00347730238749,160 L 33.03712831710356,160 L 33.07258967121891,160 L 34.537207490514625,160 L 34.56269422950844,160 L 34.594091194188145,160 L 36.07340470978392,160 L 36.09537726053207,160 L 36.12743091695465,160 L 37.60260904941285,160 L 37.628752480149544,160 L 37.65974123104314,160 L 39.135505061542275,160 L 39.16184372495928,160 L 39.19253075261967,160 L 40.67349487178537,160 L 40.70043698166881,160 L 40.73595158106061,160 L 42.20468703506842,160 L 42.23764586119064,160 L 42.25921019815269,160 L 43.736890858604006,160 L 43.762910050362315,160 L 43.795176687890695,160 L 45.265119034831365,160 L 45.30004793618222,160 L 45.330096020525204,160 L 46.805451637238235,160 L 46.83228725656877,160 L 46.86398594448169,160 L 48.34033547302178,160 L 48.36663863958782,160 L 48.39528459831764,160 L 49.87371069263925,160 L 49.900652802522686,160 L 49.92894379274284,160 L 51.40639372366288,160 L 51.438127908426765,160 L 51.47078501131578,160 L 52.93946722004714,160 L 52.96882311579628,160 L 53.00192392932237,160 L 54.464340943858176,160 L 54.503600461026934,160 L 54.5357783564279,160 L 56.0063064014095,160 L 56.03443765580031,160 L 56.06501819290779,160 L 57.54007208638761,160 L 57.566428498230096,160 L 57.59787870818626,160 L 59.071423985500005,160 L 59.09920027138114,160 L 59.1305439907844,160 L 60.60581086537002,160 L 60.62820937832976,160 L 60.66324477023352,160 L 62.14218556889414,160 L 62.17281935127807,160 L 62.20879540973244,160 L 63.677761593271526,160 L 63.70411800511402,160 L 63.73571020247404,160 L 65.20893600812909,133.3106960950764 L 65.23458248295225,133.3106960950764 L 65.26757680592544,133.3106960950764 L 66.7392230017125,133.3106960950764 L 66.76472748913179,133.3106960950764 L 66.79969188733361,133.3106960950764 L 68.26519712790349,133.3106960950764 L 68.30001953870145,133.3106960950764 L 68.33533890541293,133.3106960950764 L 69.80757079924092,133.3106960950764 L 69.82936586573425,133.3106960950764 L 69.86205846547423,133.3106960950764 L 71.3405200566468,133.3106960950764 L 71.3662375251719,133.3106960950764 L 71.39960456508024,133.3106960950764 L 72.86873048444868,133.3106960950764 L 72.90783026578808,133.3106960950764 L 72.9410020730161,133.3106960950764 L 74.4081579171559,133.3106960950764 L 74.44046005153527,133.3106960950764 L 74.47325914182814,133.3106960950764 L 75.94486984076421,133.3106960950764 L 75.97458070502302,133.3106960950764 L 76.00702482680623,133.3106960950764 L 77.47483736268893,133.3106960950764 L 77.50545339664737,133.3106960950764 L 77.53713433613481,133.3106960950764 L 79.00673946299129,133.3106960950764 L 79.03747973592812,133.3106960950764 L 79.07162770655772,133.3106960950764 L 80.54297217911156,133.3106960950764 L 80.57783008676049,133.3106960950764 L 80.6114278562001,133.3106960950764 L 82.07545997745487,133.3106960950764 L 82.10509984801175,133.3106960950764 L 82.13248566853227,133.3106960950764 L 83.61334329714506,133.3106960950764 L 83.6448290039522,133.3106960950764 L 83.6794739304953,133.3106960950764 L 85.14240564937015,133.3106960950764 L 85.1741575825595,133.3106960950764 L 85.21032887369418,133.3106960950764 L 86.6763133217521,133.3106960950764 L 86.70609517971283,133.3106960950764 L 86.7388055278783,133.3106960950764 L 88.21048722051631,133.3106960950764 L 88.23742933039975,133.3106960950764 L 88.27287293608963,133.3106960950764 L 89.74476760983343,133.3106960950764 L 89.7735555559671,133.3106960950764 L 89.80307118754561,133.3106960950764 L 91.27965144561698,133.3106960950764 L 91.30442824759146,133.3106960950764 L 91.33649965243953,133.3106960950764 L 92.80835882933238,133.3106960950764 L 92.83196423522497,133.3106960950764 L 92.85952754000033,133.3106960950764 L 94.3449465139623,133.3106960950764 L 94.37206610810057,133.3106960950764 L 94.40798892127849,133.3106960950764 L 95.87759404813497,133.3106960950764 L 95.90529934031417,133.3106960950764 L 95.9392165814125,133.3106960950764 L 97.4055382495546,133.3106960950764 L 97.430936246421,133.3106960950764 L 97.46446302215868,133.3106960950764 L 98.93573650101058,133.3106960950764 L 98.96816287436832,133.3106960950764 L 99.00053600244959,133.3106960950764 L 100.47527042427072,133.3106960950764 L 100.5009878927958,133.3106960950764 L 100.53195889526393,133.3106960950764 L 102.00992353052298,133.3106960950764 L 102.03567649589904,133.3106960950764 L 102.06677173734553,133.3106960950764 L 103.54012178197897,133.3106960950764 L 103.5694776777281,133.3106960950764 L 103.60041318334525,133.3106960950764 L 105.07851980600817,133.3106960950764 L 105.10645582771866,133.3106960950764 L 105.13959213809572,133.3106960950764 L 106.6129954280056,133.3106960950764 L 106.63855316070135,133.3106960950764 L 106.6744227286028,133.3106960950764 L 108.14195128967778,133.3106960950764 L 108.16724279599127,133.3106960950764 L 108.1975571067165,133.3106960950764 L 109.67511352818946,133.3106960950764 L 109.70065351245971,133.3106960950764 L 109.73151802437492,133.3106960950764 L 111.21026359035524,133.3106960950764 L 111.23152620408405,133.3106960950764 L 111.26200025063865,133.3106960950764 L 112.74360331312174,133.3106960950764 L 112.76841561194719,133.3106960950764 L 112.78898603708217,133.3106960950764 L 114.27500845751058,133.3106960950764 L 114.29864936025416,133.3106960950764 L 114.32855545719327,133.3106960950764 L 115.80462101092563,133.3106960950764 L 115.84017110716839,133.3106960950764 L 115.87238449942033,133.3106960950764 L 117.34461639324832,133.3106960950764 L 117.37102605036726,133.3106960950764 L 117.40196155598441,133.3106960950764 L 118.8783998266519,133.3106960950764 L 118.90422378572991,133.3106960950764 L 118.92916032353374,133.3106960950764 L 120.4135321403922,133.3106960950764 L 120.4356821753952,133.3106960950764 L 120.46147063762223,133.3106960950764 L 121.94273648002114,133.3106960950764 L 121.96799248948368,133.3106960950764 L 121.9964254671077,133.3106960950764 L 123.4786674729082,133.3106960950764 L 123.5006755205073,133.3106960950764 L 123.53116731548737,133.3106960950764 L 125.00119840455545,133.3106960950764 L 125.03447670233638,133.3106960950764 L 125.06512823314578,133.3106960950764 L 126.54598586175861,133.3106960950764 L 126.57445433623359,133.3106960950764 L 126.60338426977114,133.3106960950764 L 128.08031949635216,133.3106960950764 L 128.10997711533452,133.3106960950764 L 128.14334415524286,133.3106960950764 L 129.60892038951465,133.3106960950764 L 129.63382143046755,133.3106960950764 L 129.6623254017935,133.3106960950764 L 131.14275706819473,133.3106960950764 L 131.16128642439912,133.3106960950764 L 131.1938902820117,133.3106960950764 L 132.67730368389408,133.3106960950764 L 132.69968444842834,133.3106960950764 L 132.73012299813195,133.3106960950764 L 134.2124182492089,133.3106960950764 L 134.2348345105941,133.3106960950764 L 134.26147489724434,133.3106960950764 L 135.74330868925873,40 L 135.76604442230266,40 L 135.79522283379697,40 L 137.27824577031873,40 L 137.30183342778582,40 L 137.33472126020612,40 L 138.80294200987493,40 L 138.8359540812736,40 L 138.8682739640784,40 L 140.3458126371259,40 L 140.36315284882295,40 L 140.39272172567786,40 L 141.8765078444954,40 L 141.90076994213086,40 L 141.9326816111496,40 L 143.40372436047022,40 L 143.43556503578702,40 L 143.46401576183652,40 L 144.94400371760065,40 L 144.96904674595737,40 L 144.9965390570308,40 L 146.4752846230111,40 L 146.49984844387978,40 L 146.52467849113071,40 L 146.56402675042688,40 L 148.0142860935067,40 L 148.04019879471215,40 L 148.0671409045956,40 L 149.5467028981481,40 L 149.57254460565161,40 L 149.6007823505953,40 L 151.07938592917174,40 L 151.1031688193192,40 L 151.1303061618829,40 L 152.6083417908439,40 L 152.63691675587182,40 L 154.15257904685708,40 L 154.1699370069796,40 L 154.19748256332946,40 L 155.67841118564422,40 L 155.70285076753453,40 L 155.73305858770686,40 L 157.21150243045395,40 L 157.23535631430332,40 L 157.26217418520838,40 L 158.7476464044468,40 L 158.7732396339935,40 L 158.80531103884158,40 L 160.28270772448516,40 L 160.310288777686,40 L 160.3367339316559,40 L 161.81872745949963,40 L 161.83569495426156,40 L 161.86442965511878,40 L 163.34686689359958,40 L 163.36905242545353,40 L 163.39450366759638,40 L 164.88001138368577,40 L 164.90068829937366,40 L 164.93204976720241,40 L 166.41280090526232,40 L 166.43548339302978,40 L 166.46505226988472,40 L 167.94333637680248,40 L 167.96518468857224,40 L 167.9973625839732,40 L 169.4758419235713,40 L 169.50791332841933,40 L 169.54065917343576,40 L 171.01450617398274,40 L 171.03805833459887,40 L 171.06768045673027,40 L 172.54757967036699,40 L 172.57079461089896,40 L 172.60041673303036,40 L 174.0817713175567,40 L 174.11226311253677,40 L 174.14829241626757,40 L 175.6156434930877,40 L 175.63779352809067,40 L 175.6661200151618,40 L 177.150740309977,40 L 177.1695358925637,40 L 177.19919351154604,40 L 178.67916371888472,40 L 178.7012782570367,40 L 178.72951600198041,40 L 178.76815432425727,40 L 180.21669207006525,40 L 180.24620770164373,40 L 180.2755103521164,40 L 181.74637561718222,40 L 181.77340646919308,40 L 181.80164421413676,40 L 183.2824840943241,40 L 183.29767674653766,40 L 183.33333333333334,40" fill="none" stroke="none"/>
  </g>
  <!-- 📊 Total Contributions Chart -->
  <g transform="translate(526.6666666666667, 250)">
    <!-- Chart Background -->
    <rect x="0" y="0" width="213.33333333333334" height="200" fill="#ffffff" stroke="#e2e8f0" stroke-width="1" rx="8" filter="url(#shadow)">
      <animate attributeName="opacity" values="0;1" dur="0.5s" begin="2.8s" fill="freeze"/>
    </rect>
    
    <!-- Chart Title -->
    <text x="106.66666666666667" y="25" text-anchor="middle" fill="#1e293b" font-size="14" font-weight="bold" font-family="Arial, sans-serif">
      📊 Total Contributions
      <animate attributeName="opacity" values="0;1" dur="0.5s" begin="3s" fill="freeze"/>
    </text>
    
    <!-- Y-axis labels -->
    <text x="10" y="45" fill="#64748b" font-size="10" font-family="Arial, sans-serif">3,802
      <animate attributeName="opacity" values="0;1" dur="0.5s" begin="3.1999999999999997s" fill="freeze"/>
    </text>
    <text x="10" y="185" fill="#64748b" font-size="10" font-family="Arial, sans-serif">2,320
      <animate attributeName="opacity" values="0;1" dur="0.5s" begin="3.1999999999999997s" fill="freeze"/>
    </text>
    
    <!-- Chart Line with draw animation that follows the circle -->
    <path d="M 30,160 L 31.47343878676085,160 L 31.498162343458887,160 L 31.531280905410462,160 L 33.00347730238749,160 L 33.03712831710356,160 L 33.07258967121891,160 L 34.537207490514625,160 L 34.56269422950844,160 L 34.594091194188145,160 L 36.07340470978392,160 L 36.09537726053207,160 L 36.12743091695465,160 L 37.60260904941285,160 L 37.628752480149544,160 L 37.65974123104314,160 L 39.135505061542275,160 L 39.16184372495928,160 L 39.19253075261967,160 L 40.67349487178537,160 L 40.70043698166881,160 L 40.73595158106061,160 L 42.20468703506842,160 L 42.23764586119064,160 L 42.25921019815269,160 L 43.736890858604006,160 L 43.762910050362315,160 L 43.795176687890695,160 L 45.265119034831365,160 L 45.30004793618222,160 L 45.330096020525204,160 L 46.805451637238235,160 L 46.83228725656877,160 L 46.86398594448169,160 L 48.34033547302178,160 L 48.36663863958782,160 L 48.39528459831764,160 L 49.87371069263925,160 L 49.900652802522686,160 L 49.92894379274284,160 L 51.40639372366288,160 L 51.438127908426765,160 L 51.47078501131578,160 L 52.93946722004714,160 L 52.96882311579628,160 L 53.00192392932237,160 L 54.464340943858176,160 L 54.503600461026934,160 L 54.5357783564279,160 L 56.0063064014095,160 L 56.03443765580031,160 L 56.06501819290779,160 L 57.54007208638761,160 L 57.566428498230096,160 L 57.59787870818626,160 L 59.071423985500005,160 L 59.09920027138114,160 L 59.1305439907844,160 L 60.60581086537002,160 L 60.62820937832976,160 L 60.66324477023352,160 L 62.14218556889414,160 L 62.17281935127807,160 L 62.20879540973244,160 L 63.677761593271526,160 L 63.70411800511402,160 L 63.73571020247404,160 L 65.20893600812909,137.48987854251013 L 65.23458248295225,137.48987854251013 L 65.26757680592544,137.48987854251013 L 66.7392230017125,137.48987854251013 L 66.76472748913179,137.48987854251013 L 66.79969188733361,137.48987854251013 L 68.26519712790349,137.48987854251013 L 68.30001953870145,137.48987854251013 L 68.33533890541293,137.48987854251013 L 69.80757079924092,137.48987854251013 L 69.82936586573425,137.48987854251013 L 69.86205846547423,137.48987854251013 L 71.3405200566468,137.48987854251013 L 71.3662375251719,137.48987854251013 L 71.39960456508024,137.48987854251013 L 72.86873048444868,137.48987854251013 L 72.90783026578808,137.48987854251013 L 72.9410020730161,137.48987854251013 L 74.4081579171559,137.48987854251013 L 74.44046005153527,137.48987854251013 L 74.47325914182814,137.48987854251013 L 75.94486984076421,137.48987854251013 L 75.97458070502302,137.48987854251013 L 76.00702482680623,137.48987854251013 L 77.47483736268893,137.48987854251013 L 77.50545339664737,137.48987854251013 L 77.53713433613481,137.48987854251013 L 79.00673946299129,137.48987854251013 L 79.03747973592812,137.48987854251013 L 79.07162770655772,137.48987854251013 L 80.54297217911156,137.48987854251013 L 80.57783008676049,137.48987854251013 L 80.6114278562001,137.48987854251013 L 82.07545997745487,137.48987854251013 L 82.10509984801175,137.48987854251013 L 82.13248566853227,137.48987854251013 L 83.61334329714506,137.48987854251013 L 83.6448290039522,137.48987854251013 L 83.6794739304953,137.48987854251013 L 85.14240564937015,137.48987854251013 L 85.1741575825595,137.48987854251013 L 85.21032887369418,137.48987854251013 L 86.6763133217521,137.48987854251013 L 86.70609517971283,137.48987854251013 L 86.7388055278783,137.48987854251013 L 88.21048722051631,137.48987854251013 L 88.23742933039975,137.48987854251013 L 88.27287293608963,137.48987854251013 L 89.74476760983343,137.48987854251013 L 89.7735555559671,137.48987854251013 L 89.80307118754561,137.48987854251013 L 91.27965144561698,137.48987854251013 L 91.30442824759146,137.48987854251013 L 91.33649965243953,137.48987854251013 L 92.80835882933238,137.48987854251013 L 92.83196423522497,137.48987854251013 L 92.85952754000033,137.48987854251013 L 94.3449465139623,137.48987854251013 L 94.37206610810057,137.48987854251013 L 94.40798892127849,137.48987854251013 L 95.87759404813497,137.48987854251013 L 95.90529934031417,137.48987854251013 L 95.9392165814125,137.48987854251013 L 97.4055382495546,137.48987854251013 L 97.430936246421,137.48987854251013 L 97.46446302215868,137.48987854251013 L 98.93573650101058,137.48987854251013 L 98.96816287436832,137.48987854251013 L 99.00053600244959,137.48987854251013 L 100.47527042427072,137.48987854251013 L 100.5009878927958,137.48987854251013 L 100.53195889526393,137.48987854251013 L 102.00992353052298,137.48987854251013 L 102.03567649589904,137.48987854251013 L 102.06677173734553,137.48987854251013 L 103.54012178197897,137.48987854251013 L 103.5694776777281,137.48987854251013 L 103.60041318334525,137.48987854251013 L 105.07851980600817,137.48987854251013 L 105.10645582771866,137.48987854251013 L 105.13959213809572,137.48987854251013 L 106.6129954280056,137.48987854251013 L 106.63855316070135,137.48987854251013 L 106.6744227286028,137.48987854251013 L 108.14195128967778,137.48987854251013 L 108.16724279599127,137.48987854251013 L 108.1975571067165,137.48987854251013 L 109.67511352818946,137.48987854251013 L 109.70065351245971,137.48987854251013 L 109.73151802437492,137.48987854251013 L 111.21026359035524,137.48987854251013 L 111.23152620408405,137.48987854251013 L 111.26200025063865,137.48987854251013 L 112.74360331312174,137.48987854251013 L 112.76841561194719,137.48987854251013 L 112.78898603708217,137.48987854251013 L 114.27500845751058,137.48987854251013 L 114.29864936025416,137.48987854251013 L 114.32855545719327,137.48987854251013 L 115.80462101092563,137.48987854251013 L 115.84017110716839,137.48987854251013 L 115.87238449942033,137.48987854251013 L 117.34461639324832,137.48987854251013 L 117.37102605036726,137.48987854251013 L 117.40196155598441,137.48987854251013 L 118.8783998266519,137.48987854251013 L 118.90422378572991,137.48987854251013 L 118.92916032353374,137.48987854251013 L 120.4135321403922,137.48987854251013 L 120.4356821753952,137.48987854251013 L 120.46147063762223,137.48987854251013 L 121.94273648002114,137.48987854251013 L 121.96799248948368,137.48987854251013 L 121.9964254671077,137.48987854251013 L 123.4786674729082,137.48987854251013 L 123.5006755205073,137.48987854251013 L 123.53116731548737,137.48987854251013 L 125.00119840455545,137.48987854251013 L 125.03447670233638,137.48987854251013 L 125.06512823314578,137.48987854251013 L 126.54598586175861,137.48987854251013 L 126.57445433623359,137.48987854251013 L 126.60338426977114,137.48987854251013 L 128.08031949635216,137.48987854251013 L 128.10997711533452,137.48987854251013 L 128.14334415524286,137.48987854251013 L 129.60892038951465,137.48987854251013 L 129.63382143046755,137.48987854251013 L 129.6623254017935,137.48987854251013 L 131.14275706819473,137.48987854251013 L 131.16128642439912,137.48987854251013 L 131.1938902820117,137.48987854251013 L 132.67730368389408,137.48987854251013 L 132.69968444842834,137.48987854251013 L 132.73012299813195,137.48987854251013 L 134.2124182492089,137.48987854251013 L 134.2348345105941,137.48987854251013 L 134.26147489724434,137.48987854251013 L 135.74330868925873,40 L 135.76604442230266,40 L 135.79522283379697,40 L 137.27824577031873,40 L 137.30183342778582,40 L 137.33472126020612,40 L 138.80294200987493,40 L 138.8359540812736,40 L 138.8682739640784,40 L 140.3458126371259,40 L 140.36315284882295,40 L 140.39272172567786,40 L 141.8765078444954,40 L 141.90076994213086,40 L 141.9326816111496,40 L 143.40372436047022,40 L 143.43556503578702,40 L 143.46401576183652,40 L 144.94400371760065,40 L 144.96904674595737,40 L 144.9965390570308,40 L 146.4752846230111,40 L 146.49984844387978,40 L 146.52467849113071,40 L 146.56402675042688,40 L 148.0142860935067,40 L 148.04019879471215,40 L 148.0671409045956,40 L 149.5467028981481,40 L 149.57254460565161,40 L 149.6007823505953,40 L 151.07938592917174,40 L 151.1031688193192,40 L 151.1303061618829,40 L 152.6083417908439,40 L 152.63691675587182,40 L 154.15257904685708,40 L 154.1699370069796,40 L 154.19748256332946,40 L 155.67841118564422,40 L 155.70285076753453,40 L 155.73305858770686,40 L 157.21150243045395,40 L 157.23535631430332,40 L 157.26217418520838,40 L 158.7476464044468,40 L 158.7732396339935,40 L 158.80531103884158,40 L 160.28270772448516,40 L 160.310288777686,40 L 160.3367339316559,40 L 161.81872745949963,40 L 161.83569495426156,40 L 161.86442965511878,40 L 163.34686689359958,40 L 163.36905242545353,40 L 163.39450366759638,40 L 164.88001138368577,40 L 164.90068829937366,40 L 164.93204976720241,40 L 166.41280090526232,40 L 166.43548339302978,40 L 166.46505226988472,40 L 167.94333637680248,40 L 167.96518468857224,40 L 167.9973625839732,40 L 169.4758419235713,40 L 169.50791332841933,40 L 169.54065917343576,40 L 171.01450617398274,40 L 171.03805833459887,40 L 171.06768045673027,40 L 172.54757967036699,40 L 172.57079461089896,40 L 172.60041673303036,40 L 174.0817713175567,40 L 174.11226311253677,40 L 174.14829241626757,40 L 175.6156434930877,40 L 175.63779352809067,40 L 175.6661200151618,40 L 177.150740309977,40 L 177.1695358925637,40 L 177.19919351154604,40 L 178.67916371888472,40 L 178.7012782570367,40 L 178.72951600198041,40 L 178.76815432425727,40 L 180.21669207006525,40 L 180.24620770164373,40 L 180.2755103521164,40 L 181.74637561718222,40 L 181.77340646919308,40 L 181.80164421413676,40 L 183.2824840943241,40 L 183.29767674653766,40 L 183.33333333333334,40" stroke="#f59e0b" stroke-width="2" fill="none" stroke-dasharray="15100" stroke-dashoffset="15100">
      <animate attributeName="stroke-dashoffset" values="15100;0" dur="3s" begin="3.5999999999999996s" fill="freeze"/>
    </path>
    
    <!-- Glow effect for the line that also follows the circle -->
    <path d="M 30,160 L 31.47343878676085,160 L 31.498162343458887,160 L 31.531280905410462,160 L 33.00347730238749,160 L 33.03712831710356,160 L 33.07258967121891,160 L 34.537207490514625,160 L 34.56269422950844,160 L 34.594091194188145,160 L 36.07340470978392,160 L 36.09537726053207,160 L 36.12743091695465,160 L 37.60260904941285,160 L 37.628752480149544,160 L 37.65974123104314,160 L 39.135505061542275,160 L 39.16184372495928,160 L 39.19253075261967,160 L 40.67349487178537,160 L 40.70043698166881,160 L 40.73595158106061,160 L 42.20468703506842,160 L 42.23764586119064,160 L 42.25921019815269,160 L 43.736890858604006,160 L 43.762910050362315,160 L 43.795176687890695,160 L 45.265119034831365,160 L 45.30004793618222,160 L 45.330096020525204,160 L 46.805451637238235,160 L 46.83228725656877,160 L 46.86398594448169,160 L 48.34033547302178,160 L 48.36663863958782,160 L 48.39528459831764,160 L 49.87371069263925,160 L 49.900652802522686,160 L 49.92894379274284,160 L 51.40639372366288,160 L 51.438127908426765,160 L 51.47078501131578,160 L 52.93946722004714,160 L 52.96882311579628,160 L 53.00192392932237,160 L 54.464340943858176,160 L 54.503600461026934,160 L 54.5357783564279,160 L 56.0063064014095,160 L 56.03443765580031,160 L 56.06501819290779,160 L 57.54007208638761,160 L 57.566428498230096,160 L 57.59787870818626,160 L 59.071423985500005,160 L 59.09920027138114,160 L 59.1305439907844,160 L 60.60581086537002,160 L 60.62820937832976,160 L 60.66324477023352,160 L 62.14218556889414,160 L 62.17281935127807,160 L 62.20879540973244,160 L 63.677761593271526,160 L 63.70411800511402,160 L 63.73571020247404,160 L 65.20893600812909,137.48987854251013 L 65.23458248295225,137.48987854251013 L 65.26757680592544,137.48987854251013 L 66.7392230017125,137.48987854251013 L 66.76472748913179,137.48987854251013 L 66.79969188733361,137.48987854251013 L 68.26519712790349,137.48987854251013 L 68.30001953870145,137.48987854251013 L 68.33533890541293,137.48987854251013 L 69.80757079924092,137.48987854251013 L 69.82936586573425,137.48987854251013 L 69.86205846547423,137.48987854251013 L 71.3405200566468,137.48987854251013 L 71.3662375251719,137.48987854251013 L 71.39960456508024,137.48987854251013 L 72.86873048444868,137.48987854251013 L 72.90783026578808,137.48987854251013 L 72.9410020730161,137.48987854251013 L 74.4081579171559,137.48987854251013 L 74.44046005153527,137.48987854251013 L 74.47325914182814,137.48987854251013 L 75.94486984076421,137.48987854251013 L 75.97458070502302,137.48987854251013 L 76.00702482680623,137.48987854251013 L 77.47483736268893,137.48987854251013 L 77.50545339664737,137.48987854251013 L 77.53713433613481,137.48987854251013 L 79.00673946299129,137.48987854251013 L 79.03747973592812,137.48987854251013 L 79.07162770655772,137.48987854251013 L 80.54297217911156,137.48987854251013 L 80.57783008676049,137.48987854251013 L 80.6114278562001,137.48987854251013 L 82.07545997745487,137.48987854251013 L 82.10509984801175,137.48987854251013 L 82.13248566853227,137.48987854251013 L 83.61334329714506,137.48987854251013 L 83.6448290039522,137.48987854251013 L 83.6794739304953,137.48987854251013 L 85.14240564937015,137.48987854251013 L 85.1741575825595,137.48987854251013 L 85.21032887369418,137.48987854251013 L 86.6763133217521,137.48987854251013 L 86.70609517971283,137.48987854251013 L 86.7388055278783,137.48987854251013 L 88.21048722051631,137.48987854251013 L 88.23742933039975,137.48987854251013 L 88.27287293608963,137.48987854251013 L 89.74476760983343,137.48987854251013 L 89.7735555559671,137.48987854251013 L 89.80307118754561,137.48987854251013 L 91.27965144561698,137.48987854251013 L 91.30442824759146,137.48987854251013 L 91.33649965243953,137.48987854251013 L 92.80835882933238,137.48987854251013 L 92.83196423522497,137.48987854251013 L 92.85952754000033,137.48987854251013 L 94.3449465139623,137.48987854251013 L 94.37206610810057,137.48987854251013 L 94.40798892127849,137.48987854251013 L 95.87759404813497,137.48987854251013 L 95.90529934031417,137.48987854251013 L 95.9392165814125,137.48987854251013 L 97.4055382495546,137.48987854251013 L 97.430936246421,137.48987854251013 L 97.46446302215868,137.48987854251013 L 98.93573650101058,137.48987854251013 L 98.96816287436832,137.48987854251013 L 99.00053600244959,137.48987854251013 L 100.47527042427072,137.48987854251013 L 100.5009878927958,137.48987854251013 L 100.53195889526393,137.48987854251013 L 102.00992353052298,137.48987854251013 L 102.03567649589904,137.48987854251013 L 102.06677173734553,137.48987854251013 L 103.54012178197897,137.48987854251013 L 103.5694776777281,137.48987854251013 L 103.60041318334525,137.48987854251013 L 105.07851980600817,137.48987854251013 L 105.10645582771866,137.48987854251013 L 105.13959213809572,137.48987854251013 L 106.6129954280056,137.48987854251013 L 106.63855316070135,137.48987854251013 L 106.6744227286028,137.48987854251013 L 108.14195128967778,137.48987854251013 L 108.16724279599127,137.48987854251013 L 108.1975571067165,137.48987854251013 L 109.67511352818946,137.48987854251013 L 109.70065351245971,137.48987854251013 L 109.73151802437492,137.48987854251013 L 111.21026359035524,137.48987854251013 L 111.23152620408405,137.48987854251013 L 111.26200025063865,137.48987854251013 L 112.74360331312174,137.48987854251013 L 112.76841561194719,137.48987854251013 L 112.78898603708217,137.48987854251013 L 114.27500845751058,137.48987854251013 L 114.29864936025416,137.48987854251013 L 114.32855545719327,137.48987854251013 L 115.80462101092563,137.48987854251013 L 115.84017110716839,137.48987854251013 L 115.87238449942033,137.48987854251013 L 117.34461639324832,137.48987854251013 L 117.37102605036726,137.48987854251013 L 117.40196155598441,137.48987854251013 L 118.8783998266519,137.48987854251013 L 118.90422378572991,137.48987854251013 L 118.92916032353374,137.48987854251013 L 120.4135321403922,137.48987854251013 L 120.4356821753952,137.48987854251013 L 120.46147063762223,137.48987854251013 L 121.94273648002114,137.48987854251013 L 121.96799248948368,137.48987854251013 L 121.9964254671077,137.48987854251013 L 123.4786674729082,137.48987854251013 L 123.5006755205073,137.48987854251013 L 123.53116731548737,137.48987854251013 L 125.00119840455545,137.48987854251013 L 125.03447670233638,137.48987854251013 L 125.06512823314578,137.48987854251013 L 126.54598586175861,137.48987854251013 L 126.57445433623359,137.48987854251013 L 126.60338426977114,137.48987854251013 L 128.08031949635216,137.48987854251013 L 128.10997711533452,137.48987854251013 L 128.14334415524286,137.48987854251013 L 129.60892038951465,137.48987854251013 L 129.63382143046755,137.48987854251013 L 129.6623254017935,137.48987854251013 L 131.14275706819473,137.48987854251013 L 131.16128642439912,137.48987854251013 L 131.1938902820117,137.48987854251013 L 132.67730368389408,137.48987854251013 L 132.69968444842834,137.48987854251013 L 132.73012299813195,137.48987854251013 L 134.2124182492089,137.48987854251013 L 134.2348345105941,137.48987854251013 L 134.26147489724434,137.48987854251013 L 135.74330868925873,40 L 135.76604442230266,40 L 135.79522283379697,40 L 137.27824577031873,40 L 137.30183342778582,40 L 137.33472126020612,40 L 138.80294200987493,40 L 138.8359540812736,40 L 138.8682739640784,40 L 140.3458126371259,40 L 140.36315284882295,40 L 140.39272172567786,40 L 141.8765078444954,40 L 141.90076994213086,40 L 141.9326816111496,40 L 143.40372436047022,40 L 143.43556503578702,40 L 143.46401576183652,40 L 144.94400371760065,40 L 144.96904674595737,40 L 144.9965390570308,40 L 146.4752846230111,40 L 146.49984844387978,40 L 146.52467849113071,40 L 146.56402675042688,40 L 148.0142860935067,40 L 148.04019879471215,40 L 148.0671409045956,40 L 149.5467028981481,40 L 149.57254460565161,40 L 149.6007823505953,40 L 151.07938592917174,40 L 151.1031688193192,40 L 151.1303061618829,40 L 152.6083417908439,40 L 152.63691675587182,40 L 154.15257904685708,40 L 154.1699370069796,40 L 154.19748256332946,40 L 155.67841118564422,40 L 155.70285076753453,40 L 155.73305858770686,40 L 157.21150243045395,40 L 157.23535631430332,40 L 157.26217418520838,40 L 158.7476464044468,40 L 158.7732396339935,40 L 158.80531103884158,40 L 160.28270772448516,40 L 160.310288777686,40 L 160.3367339316559,40 L 161.81872745949963,40 L 161.83569495426156,40 L 161.86442965511878,40 L 163.34686689359958,40 L 163.36905242545353,40 L 163.39450366759638,40 L 164.88001138368577,40 L 164.90068829937366,40 L 164.93204976720241,40 L 166.41280090526232,40 L 166.43548339302978,40 L 166.46505226988472,40 L 167.94333637680248,40 L 167.96518468857224,40 L 167.9973625839732,40 L 169.4758419235713,40 L 169.50791332841933,40 L 169.54065917343576,40 L 171.01450617398274,40 L 171.03805833459887,40 L 171.06768045673027,40 L 172.54757967036699,40 L 172.57079461089896,40 L 172.60041673303036,40 L 174.0817713175567,40 L 174.11226311253677,40 L 174.14829241626757,40 L 175.6156434930877,40 L 175.63779352809067,40 L 175.6661200151618,40 L 177.150740309977,40 L 177.1695358925637,40 L 177.19919351154604,40 L 178.67916371888472,40 L 178.7012782570367,40 L 178.72951600198041,40 L 178.76815432425727,40 L 180.21669207006525,40 L 180.24620770164373,40 L 180.2755103521164,40 L 181.74637561718222,40 L 181.77340646919308,40 L 181.80164421413676,40 L 183.2824840943241,40 L 183.29767674653766,40 L 183.33333333333334,40" stroke="#f59e0b" stroke-width="4" fill="none" opacity="0.4" stroke-dasharray="15100" stroke-dashoffset="15100">
      <animate attributeName="stroke-dashoffset" values="15100;0" dur="3s" begin="3.5999999999999996s" fill="freeze"/>
    </path>
    
    <!-- Animated circle that moves along the path and draws the line -->
    <circle r="5" fill="#f59e0b" opacity="0" filter="url(#trailGlow)">
      <animate attributeName="opacity" values="0;1;1;1" dur="3.2s" begin="3.4s" fill="freeze"/>
      <animate attributeName="r" values="5;6;5" dur="1s" begin="3.4s" repeatCount="3"/>
      <animateMotion dur="3s" begin="3.4s" fill="freeze">
        <mpath href="#path_totalContributions_526.6666666666667"/>
      </animateMotion>
    </circle>
    
    <!-- Small trail dots that fade out -->
    <circle r="2" fill="#f59e0b" opacity="0">
      <animate attributeName="opacity" values="0;0.6;0" dur="0.8s" begin="3.8s" fill="freeze"/>
      <animateMotion dur="3s" begin="3.4s" fill="freeze">
        <mpath href="#path_totalContributions_526.6666666666667"/>
      </animateMotion>
    </circle>
    
    <!-- Hidden path for motion animation -->
    <path id="path_totalContributions_526.6666666666667" d="M 30,160 L 31.47343878676085,160 L 31.498162343458887,160 L 31.531280905410462,160 L 33.00347730238749,160 L 33.03712831710356,160 L 33.07258967121891,160 L 34.537207490514625,160 L 34.56269422950844,160 L 34.594091194188145,160 L 36.07340470978392,160 L 36.09537726053207,160 L 36.12743091695465,160 L 37.60260904941285,160 L 37.628752480149544,160 L 37.65974123104314,160 L 39.135505061542275,160 L 39.16184372495928,160 L 39.19253075261967,160 L 40.67349487178537,160 L 40.70043698166881,160 L 40.73595158106061,160 L 42.20468703506842,160 L 42.23764586119064,160 L 42.25921019815269,160 L 43.736890858604006,160 L 43.762910050362315,160 L 43.795176687890695,160 L 45.265119034831365,160 L 45.30004793618222,160 L 45.330096020525204,160 L 46.805451637238235,160 L 46.83228725656877,160 L 46.86398594448169,160 L 48.34033547302178,160 L 48.36663863958782,160 L 48.39528459831764,160 L 49.87371069263925,160 L 49.900652802522686,160 L 49.92894379274284,160 L 51.40639372366288,160 L 51.438127908426765,160 L 51.47078501131578,160 L 52.93946722004714,160 L 52.96882311579628,160 L 53.00192392932237,160 L 54.464340943858176,160 L 54.503600461026934,160 L 54.5357783564279,160 L 56.0063064014095,160 L 56.03443765580031,160 L 56.06501819290779,160 L 57.54007208638761,160 L 57.566428498230096,160 L 57.59787870818626,160 L 59.071423985500005,160 L 59.09920027138114,160 L 59.1305439907844,160 L 60.60581086537002,160 L 60.62820937832976,160 L 60.66324477023352,160 L 62.14218556889414,160 L 62.17281935127807,160 L 62.20879540973244,160 L 63.677761593271526,160 L 63.70411800511402,160 L 63.73571020247404,160 L 65.20893600812909,137.48987854251013 L 65.23458248295225,137.48987854251013 L 65.26757680592544,137.48987854251013 L 66.7392230017125,137.48987854251013 L 66.76472748913179,137.48987854251013 L 66.79969188733361,137.48987854251013 L 68.26519712790349,137.48987854251013 L 68.30001953870145,137.48987854251013 L 68.33533890541293,137.48987854251013 L 69.80757079924092,137.48987854251013 L 69.82936586573425,137.48987854251013 L 69.86205846547423,137.48987854251013 L 71.3405200566468,137.48987854251013 L 71.3662375251719,137.48987854251013 L 71.39960456508024,137.48987854251013 L 72.86873048444868,137.48987854251013 L 72.90783026578808,137.48987854251013 L 72.9410020730161,137.48987854251013 L 74.4081579171559,137.48987854251013 L 74.44046005153527,137.48987854251013 L 74.47325914182814,137.48987854251013 L 75.94486984076421,137.48987854251013 L 75.97458070502302,137.48987854251013 L 76.00702482680623,137.48987854251013 L 77.47483736268893,137.48987854251013 L 77.50545339664737,137.48987854251013 L 77.53713433613481,137.48987854251013 L 79.00673946299129,137.48987854251013 L 79.03747973592812,137.48987854251013 L 79.07162770655772,137.48987854251013 L 80.54297217911156,137.48987854251013 L 80.57783008676049,137.48987854251013 L 80.6114278562001,137.48987854251013 L 82.07545997745487,137.48987854251013 L 82.10509984801175,137.48987854251013 L 82.13248566853227,137.48987854251013 L 83.61334329714506,137.48987854251013 L 83.6448290039522,137.48987854251013 L 83.6794739304953,137.48987854251013 L 85.14240564937015,137.48987854251013 L 85.1741575825595,137.48987854251013 L 85.21032887369418,137.48987854251013 L 86.6763133217521,137.48987854251013 L 86.70609517971283,137.48987854251013 L 86.7388055278783,137.48987854251013 L 88.21048722051631,137.48987854251013 L 88.23742933039975,137.48987854251013 L 88.27287293608963,137.48987854251013 L 89.74476760983343,137.48987854251013 L 89.7735555559671,137.48987854251013 L 89.80307118754561,137.48987854251013 L 91.27965144561698,137.48987854251013 L 91.30442824759146,137.48987854251013 L 91.33649965243953,137.48987854251013 L 92.80835882933238,137.48987854251013 L 92.83196423522497,137.48987854251013 L 92.85952754000033,137.48987854251013 L 94.3449465139623,137.48987854251013 L 94.37206610810057,137.48987854251013 L 94.40798892127849,137.48987854251013 L 95.87759404813497,137.48987854251013 L 95.90529934031417,137.48987854251013 L 95.9392165814125,137.48987854251013 L 97.4055382495546,137.48987854251013 L 97.430936246421,137.48987854251013 L 97.46446302215868,137.48987854251013 L 98.93573650101058,137.48987854251013 L 98.96816287436832,137.48987854251013 L 99.00053600244959,137.48987854251013 L 100.47527042427072,137.48987854251013 L 100.5009878927958,137.48987854251013 L 100.53195889526393,137.48987854251013 L 102.00992353052298,137.48987854251013 L 102.03567649589904,137.48987854251013 L 102.06677173734553,137.48987854251013 L 103.54012178197897,137.48987854251013 L 103.5694776777281,137.48987854251013 L 103.60041318334525,137.48987854251013 L 105.07851980600817,137.48987854251013 L 105.10645582771866,137.48987854251013 L 105.13959213809572,137.48987854251013 L 106.6129954280056,137.48987854251013 L 106.63855316070135,137.48987854251013 L 106.6744227286028,137.48987854251013 L 108.14195128967778,137.48987854251013 L 108.16724279599127,137.48987854251013 L 108.1975571067165,137.48987854251013 L 109.67511352818946,137.48987854251013 L 109.70065351245971,137.48987854251013 L 109.73151802437492,137.48987854251013 L 111.21026359035524,137.48987854251013 L 111.23152620408405,137.48987854251013 L 111.26200025063865,137.48987854251013 L 112.74360331312174,137.48987854251013 L 112.76841561194719,137.48987854251013 L 112.78898603708217,137.48987854251013 L 114.27500845751058,137.48987854251013 L 114.29864936025416,137.48987854251013 L 114.32855545719327,137.48987854251013 L 115.80462101092563,137.48987854251013 L 115.84017110716839,137.48987854251013 L 115.87238449942033,137.48987854251013 L 117.34461639324832,137.48987854251013 L 117.37102605036726,137.48987854251013 L 117.40196155598441,137.48987854251013 L 118.8783998266519,137.48987854251013 L 118.90422378572991,137.48987854251013 L 118.92916032353374,137.48987854251013 L 120.4135321403922,137.48987854251013 L 120.4356821753952,137.48987854251013 L 120.46147063762223,137.48987854251013 L 121.94273648002114,137.48987854251013 L 121.96799248948368,137.48987854251013 L 121.9964254671077,137.48987854251013 L 123.4786674729082,137.48987854251013 L 123.5006755205073,137.48987854251013 L 123.53116731548737,137.48987854251013 L 125.00119840455545,137.48987854251013 L 125.03447670233638,137.48987854251013 L 125.06512823314578,137.48987854251013 L 126.54598586175861,137.48987854251013 L 126.57445433623359,137.48987854251013 L 126.60338426977114,137.48987854251013 L 128.08031949635216,137.48987854251013 L 128.10997711533452,137.48987854251013 L 128.14334415524286,137.48987854251013 L 129.60892038951465,137.48987854251013 L 129.63382143046755,137.48987854251013 L 129.6623254017935,137.48987854251013 L 131.14275706819473,137.48987854251013 L 131.16128642439912,137.48987854251013 L 131.1938902820117,137.48987854251013 L 132.67730368389408,137.48987854251013 L 132.69968444842834,137.48987854251013 L 132.73012299813195,137.48987854251013 L 134.2124182492089,137.48987854251013 L 134.2348345105941,137.48987854251013 L 134.26147489724434,137.48987854251013 L 135.74330868925873,40 L 135.76604442230266,40 L 135.79522283379697,40 L 137.27824577031873,40 L 137.30183342778582,40 L 137.33472126020612,40 L 138.80294200987493,40 L 138.8359540812736,40 L 138.8682739640784,40 L 140.3458126371259,40 L 140.36315284882295,40 L 140.39272172567786,40 L 141.8765078444954,40 L 141.90076994213086,40 L 141.9326816111496,40 L 143.40372436047022,40 L 143.43556503578702,40 L 143.46401576183652,40 L 144.94400371760065,40 L 144.96904674595737,40 L 144.9965390570308,40 L 146.4752846230111,40 L 146.49984844387978,40 L 146.52467849113071,40 L 146.56402675042688,40 L 148.0142860935067,40 L 148.04019879471215,40 L 148.0671409045956,40 L 149.5467028981481,40 L 149.57254460565161,40 L 149.6007823505953,40 L 151.07938592917174,40 L 151.1031688193192,40 L 151.1303061618829,40 L 152.6083417908439,40 L 152.63691675587182,40 L 154.15257904685708,40 L 154.1699370069796,40 L 154.19748256332946,40 L 155.67841118564422,40 L 155.70285076753453,40 L 155.73305858770686,40 L 157.21150243045395,40 L 157.23535631430332,40 L 157.26217418520838,40 L 158.7476464044468,40 L 158.7732396339935,40 L 158.80531103884158,40 L 160.28270772448516,40 L 160.310288777686,40 L 160.3367339316559,40 L 161.81872745949963,40 L 161.83569495426156,40 L 161.86442965511878,40 L 163.34686689359958,40 L 163.36905242545353,40 L 163.39450366759638,40 L 164.88001138368577,40 L 164.90068829937366,40 L 164.93204976720241,40 L 166.41280090526232,40 L 166.43548339302978,40 L 166.46505226988472,40 L 167.94333637680248,40 L 167.96518468857224,40 L 167.9973625839732,40 L 169.4758419235713,40 L 169.50791332841933,40 L 169.54065917343576,40 L 171.01450617398274,40 L 171.03805833459887,40 L 171.06768045673027,40 L 172.54757967036699,40 L 172.57079461089896,40 L 172.60041673303036,40 L 174.0817713175567,40 L 174.11226311253677,40 L 174.14829241626757,40 L 175.6156434930877,40 L 175.63779352809067,40 L 175.6661200151618,40 L 177.150740309977,40 L 177.1695358925637,40 L 177.19919351154604,40 L 178.67916371888472,40 L 178.7012782570367,40 L 178.72951600198041,40 L 178.76815432425727,40 L 180.21669207006525,40 L 180.24620770164373,40 L 180.2755103521164,40 L 181.74637561718222,40 L 181.77340646919308,40 L 181.80164421413676,40 L 183.2824840943241,40 L 183.29767674653766,40 L 183.33333333333334,40" fill="none" stroke="none"/>
  </g>
  
  <!-- Footer -->
  <text x="400" y="580" text-anchor="middle" fill="#94a3b8" font-size="12" font-family="Arial, sans-serif">
    Generated by GitHub User Rank Tracker • 10/7/2025
    <animate attributeName="opacity" values="0;1" dur="0.5s" begin="5s" fill="freeze"/>
  </text>
</svg>