<svg width="800" height="600" xmlns="http://www.w3.org/2000/svg">
  <defs>
    <linearGradient id="bgGradient" x1="0%" y1="0%" x2="100%" y2="100%">
      <stop offset="0%" style="stop-color:#f8fafc;stop-opacity:1" />
      <stop offset="100%" style="stop-color:#e2e8f0;stop-opacity:1" />
    </linearGradient>
    <filter id="shadow" x="-20%" y="-20%" width="140%" height="140%">
      <feDropShadow dx="2" dy="2" stdDeviation="3" flood-color="#00000020" flood-opacity="0.1"/>
    </filter>
    <!-- Trail effect filter -->
    <filter id="trailGlow" x="-50%" y="-50%" width="200%" height="200%">
      <feGaussianBlur stdDeviation="3" result="coloredBlur"/>
      <feMerge> 
        <feMergeNode in="coloredBlur"/>
        <feMergeNode in="SourceGraphic"/>
      </feMerge>
    </filter>
  </defs>
  
  <!-- Background -->
  <rect width="800" height="600" fill="url(#bgGradient)" rx="12"/>
  
  <!-- Header -->
  <text x="400" y="40" text-anchor="middle" fill="#0f172a" font-size="24" font-weight="bold" font-family="Arial, sans-serif">
    GitHub Progress Report
    <animate attributeName="opacity" values="0;1" dur="0.8s" begin="0s" fill="freeze"/>
    <animateTransform attributeName="transform" type="translate" values="0,-20;0,0" dur="0.8s" begin="0s" fill="freeze"/>
  </text>
  
  <!-- User Info -->
  <text x="400" y="70" text-anchor="middle" fill="#475569" font-size="16" font-family="Arial, sans-serif">
    @maifeeulasad • BANGLADESH • 100 days analyzed
    <animate attributeName="opacity" values="0;1" dur="0.6s" begin="0.3s" fill="freeze"/>
  </text>
  
  <!-- Progress Cards -->
  <!-- Followers Card -->
  <g transform="translate(60, 100)">
    <rect width="206.66666666666666" height="120" fill="#ffffff" stroke="#e2e8f0" stroke-width="1" rx="8" filter="url(#shadow)">
      <animate attributeName="opacity" values="0;1" dur="0.6s" begin="0.2s" fill="freeze"/>
      <animateTransform attributeName="transform" type="scale" values="0.8;1" dur="0.6s" begin="0.2s" fill="freeze"/>
    </rect>
    <text x="103.33333333333333" y="25" text-anchor="middle" fill="#64748b" font-size="14" font-weight="bold" font-family="Arial, sans-serif">FOLLOWERS
      <animate attributeName="opacity" values="0;1" dur="0.5s" begin="0.4s" fill="freeze"/>
    </text>
    
    <text x="103.33333333333333" y="50" text-anchor="middle" fill="#ef4444" font-size="32" font-weight="bold" font-family="Arial, sans-serif">
      ↘
      <animate attributeName="opacity" values="0;1" dur="0.5s" begin="0.6s" fill="freeze"/>
      <animateTransform attributeName="transform" type="scale" values="0;1.2;1" dur="0.8s" begin="0.6s" fill="freeze"/>
    </text>
    
    <text x="103.33333333333333" y="75" text-anchor="middle" fill="#1e293b" font-size="18" font-weight="bold" font-family="Arial, sans-serif">
      -15
      <animate attributeName="opacity" values="0;1" dur="0.5s" begin="0.8s" fill="freeze"/>
    </text>
    
    <text x="103.33333333333333" y="95" text-anchor="middle" fill="#64748b" font-size="12" font-family="Arial, sans-serif">
      #466 → #481
      <animate attributeName="opacity" values="0;1" dur="0.5s" begin="1s" fill="freeze"/>
    </text>
  </g>
  
  <!-- Public Contributions Card -->
  <g transform="translate(296.66666666666663, 100)">
    <rect width="206.66666666666666" height="120" fill="#ffffff" stroke="#e2e8f0" stroke-width="1" rx="8" filter="url(#shadow)">
      <animate attributeName="opacity" values="0;1" dur="0.6s" begin="0.4s" fill="freeze"/>
      <animateTransform attributeName="transform" type="scale" values="0.8;1" dur="0.6s" begin="0.4s" fill="freeze"/>
    </rect>
    <text x="103.33333333333333" y="25" text-anchor="middle" fill="#64748b" font-size="14" font-weight="bold" font-family="Arial, sans-serif">PUBLIC
      <animate attributeName="opacity" values="0;1" dur="0.5s" begin="0.6s" fill="freeze"/>
    </text>
    
    <text x="103.33333333333333" y="50" text-anchor="middle" fill="#6b7280" font-size="32" font-weight="bold" font-family="Arial, sans-serif">
      →
      <animate attributeName="opacity" values="0;1" dur="0.5s" begin="0.8s" fill="freeze"/>
      <animateTransform attributeName="transform" type="scale" values="0;1.2;1" dur="0.8s" begin="0.8s" fill="freeze"/>
    </text>
    
    <text x="103.33333333333333" y="75" text-anchor="middle" fill="#1e293b" font-size="18" font-weight="bold" font-family="Arial, sans-serif">
      0
      <animate attributeName="opacity" values="0;1" dur="0.5s" begin="1s" fill="freeze"/>
    </text>
    
    <text x="103.33333333333333" y="95" text-anchor="middle" fill="#64748b" font-size="12" font-family="Arial, sans-serif">
      #7 → #7
      <animate attributeName="opacity" values="0;1" dur="0.5s" begin="1.2s" fill="freeze"/>
    </text>
  </g>
  
  <!-- Total Contributions Card -->
  <g transform="translate(533.3333333333333, 100)">
    <rect width="206.66666666666666" height="120" fill="#ffffff" stroke="#e2e8f0" stroke-width="1" rx="8" filter="url(#shadow)">
      <animate attributeName="opacity" values="0;1" dur="0.6s" begin="0.6s" fill="freeze"/>
      <animateTransform attributeName="transform" type="scale" values="0.8;1" dur="0.6s" begin="0.6s" fill="freeze"/>
    </rect>
    <text x="103.33333333333333" y="25" text-anchor="middle" fill="#64748b" font-size="14" font-weight="bold" font-family="Arial, sans-serif">TOTAL
      <animate attributeName="opacity" values="0;1" dur="0.5s" begin="0.8s" fill="freeze"/>
    </text>
    
    <text x="103.33333333333333" y="50" text-anchor="middle" fill="#22c55e" font-size="32" font-weight="bold" font-family="Arial, sans-serif">
      ↗
      <animate attributeName="opacity" values="0;1" dur="0.5s" begin="1s" fill="freeze"/>
      <animateTransform attributeName="transform" type="scale" values="0;1.2;1" dur="0.8s" begin="1s" fill="freeze"/>
    </text>
    
    <text x="103.33333333333333" y="75" text-anchor="middle" fill="#1e293b" font-size="18" font-weight="bold" font-family="Arial, sans-serif">
      +3
      <animate attributeName="opacity" values="0;1" dur="0.5s" begin="1.2s" fill="freeze"/>
    </text>
    
    <text x="103.33333333333333" y="95" text-anchor="middle" fill="#64748b" font-size="12" font-family="Arial, sans-serif">
      #15 → #12
      <animate attributeName="opacity" values="0;1" dur="0.5s" begin="1.4s" fill="freeze"/>
    </text>
  </g>
  
  <!-- Timeline Charts (if we have snapshots) -->
  
  <!-- 👥 Followers Count Chart -->
  <g transform="translate(60, 250)">
    <!-- Chart Background -->
    <rect x="0" y="0" width="213.33333333333334" height="200" fill="#ffffff" stroke="#e2e8f0" stroke-width="1" rx="8" filter="url(#shadow)">
      <animate attributeName="opacity" values="0;1" dur="0.5s" begin="1.8s" fill="freeze"/>
    </rect>
    
    <!-- Chart Title -->
    <text x="106.66666666666667" y="25" text-anchor="middle" fill="#1e293b" font-size="14" font-weight="bold" font-family="Arial, sans-serif">
      👥 Followers Count
      <animate attributeName="opacity" values="0;1" dur="0.5s" begin="2s" fill="freeze"/>
    </text>
    
    <!-- Y-axis labels -->
    <text x="10" y="45" fill="#64748b" font-size="10" font-family="Arial, sans-serif">154
      <animate attributeName="opacity" values="0;1" dur="0.5s" begin="2.2s" fill="freeze"/>
    </text>
    <text x="10" y="185" fill="#64748b" font-size="10" font-family="Arial, sans-serif">150
      <animate attributeName="opacity" values="0;1" dur="0.5s" begin="2.2s" fill="freeze"/>
    </text>
    
    <!-- Chart Line with draw animation that follows the circle -->
    <path d="M 30,160 L 30.02566141786424,160 L 30.057684430240908,160 L 31.54968442322874,160 L 31.577675439083446,160 L 31.610128531089128,160 L 33.09408245101757,160 L 33.131696498571365,160 L 33.15346927978998,160 L 34.64260207525108,160 L 34.67190124997735,160 L 34.701057064827296,160 L 36.18674922325632,160 L 36.219076875370206,160 L 36.246100212059645,160 L 37.32638856019352,160 L 37.741648361986805,160 L 37.77377889427073,160 L 37.80762974507069,160 L 39.28975582657584,160 L 39.317854362337805,160 L 39.350755453957035,160 L 40.836142972648844,160 L 40.8578082339602,160 L 40.894149962611515,160 L 42.38650835529019,160 L 42.4135675319487,160 L 42.44503502480457,160 L 43.934884619647356,160 L 43.96737355162212,160 L 44.0008480827467,160 L 45.4812896857049,160 L 45.50895814183785,160 L 45.54538947041186,160 L 47.033895066414,160 L 47.0574956860559,160 L 47.08656190098313,160 L 48.58087357197688,160 L 48.61438394307055,160 L 48.6457618360037,160 L 50.12826423718424,160 L 50.15842357116854,160 L 50.19229234195304,160 L 51.67436466350457,160 L 51.7037713581381,160 L 51.73692332954092,160 L 53.2258769251566,160 L 53.253366181444136,160 L 53.281482637190635,160 L 54.77240743110594,160 L 54.80020132713068,160 L 54.83360417831709,160 L 56.31178786322299,160 L 56.348595511472396,160 L 56.379471644838375,160 L 57.86815644068592,160 L 57.88989338193545,160 L 57.928976868221696,160 L 59.41828886352822,160 L 59.450956995348406,160 L 59.48538128565371,160 L 60.96877968606135,160 L 60.99867022027752,160 L 61.03033483296335,160 L 62.50789131841027,160 L 62.5403623304005,160 L 62.572743742468006,160 L 64.06096261871747,160 L 64.0913549125008,160 L 64.12608384254332,160 L 65.60973312273455,160 L 65.63770621860473,160 L 65.66858235197071,160 L 67.15914874619517,160 L 67.17907576900595,160 L 67.22799732680579,160 L 68.70480117290194,160 L 68.73496050688624,160 L 68.76470768122607,160 L 70.25595503486315,160 L 70.29020012532303,160 L 70.32136297844167,160 L 71.80348905994683,160 L 71.83364839393113,160 L 71.86841316394273,160 L 73.34966116620532,160 L 73.3793008206379,160 L 73.40630623734279,160 L 74.9002953486148,160 L 74.93092060219718,160 L 74.96245977499122,160 L 76.4532412090302,160 L 76.48205654417384,160 L 76.51047763965755,160 L 77.99572179847303,160 L 78.02652625190083,70 L 78.05862094421568,70 L 79.54979661791458,70 L 79.57117515947326,70 L 79.60065353404495,70 L 81.09421256568795,70 L 81.11811782506706,70 L 81.16053442847813,70 L 82.64434498853024,70 L 82.67583040137065,70 L 82.70348093751906,70 L 84.18635965837498,70 L 84.22085562861847,70 L 84.25463479948024,70 L 85.74417975458582,70 L 85.75944758141566,70 L 85.80082482572328,70 L 87.28936626169451,70 L 87.3219985535456,70 L 87.35885996174864,70 L 88.83777836602076,70 L 88.86852905949493,70 L 88.90793510550293,70 L 90.38368167251112,70 L 90.41638564430039,70 L 90.45453729139044,70 L 91.94055200954122,70 L 91.97698333811525,70 L 93.48288923910772,70 L 93.55949717302505,70 L 95.03142678332577,70 L 95.06950675047766,70 L 95.105651359299,70 L 96.57933712808484,70 L 96.61945997347453,70 L 96.64707466965386,70 L 98.13090314969051,70 L 98.16448520072234,70 L 98.20218884819884,70 L 99.67374213882418,70 L 99.70730626987147,70 L 99.7450636773016,70 L 101.22439424121819,70 L 101.25738493276013,70 L 101.29277690223071,70 L 102.77814650093798,70 L 102.82149494354523,70 L 104.36067825583233,70 L 104.40171502043366,70 L 105.8782142267926,70 L 105.91204715760803,70 L 107.43055080773357,70 L 107.45936614287722,70 L 107.5068182619446,70 L 108.96697444240118,70 L 108.99994721395858,70 L 109.03524958350644,70 L 110.51712478522802,70 L 110.55611867159155,70 L 110.59525591783144,70 L 112.06266969202755,70 L 112.09428054475974,70 L 112.13270099161794,70 L 113.60970195754405,70 L 113.6456315265509,70 L 113.69259980603564,70 L 115.15320398610578,70 L 115.19409739083078,70 L 115.2336826366842,70 L 116.70864072437253,70 L 116.74154181599177,70 L 116.77910210359192,70 L 118.25689154883791,70 L 118.29018688011706,70 L 118.32857148700616,70 L 119.80317117500365,70 L 119.84177082170726,70 L 119.88336310582939,70 L 121.35301687809329,70 L 121.38374965158292,70 L 121.42079025963136,70 L 122.90266546135294,70 L 122.93024431756318,70 L 122.96791212507058,70 L 124.4470814091263,70 L 124.4824375386278,70 L 124.52148518494495,70 L 125.99642535264876,70 L 126.03394980027983,70 L 126.073857605855,70 L 127.54886945349696,70 L 127.5760182300782,70 L 127.61485083658084,70 L 129.0958658790444,70 L 129.13244056749474,70 L 129.1650549393613,70 L 130.6394754275134,70 L 130.67294995863796,70 L 130.71149584538796,70 L 132.18507409426653,70 L 132.22568077923884,70 L 132.26282890719455,70 L 133.73680139573307,70 L 133.76744456929998,70 L 133.80185093962075,70 L 135.29123461486546,70 L 135.32863362260474,70 L 135.37072766629404,70 L 136.83828480036652,70 L 136.87168765155292,70 L 136.9050905027393,70 L 138.38307706781526,70 L 138.42017143581734,70 L 138.456656524345,70 L 139.9247512579537,70 L 139.96503538320428,70 L 140.0033841501243,70 L 141.47180144345475,70 L 141.5120676487208,70 L 141.5562583306015,70 L 143.0345674553992,70 L 143.06659046777588,70 L 143.1080035520526,70 L 144.57898340317257,70 L 144.60665185930554,70 L 144.64172126905436,70 L 146.12287967139423,70 L 146.15949019981366,70 L 146.19662040778485,70 L 147.671936895164,70 L 147.70390614758708,70 L 147.7452475519256,70 L 149.21988307989216,70 L 149.25204945214517,70 L 149.2901473392816,70 L 150.76865358390927,70 L 150.80017483671875,70 L 150.8343124072714,70 L 152.3152378498122,40 L 152.34507462407475,40 L 153.8622880353133,40 L 153.89871936388732,40 L 153.9331257342081,40 L 155.41215165838744,40 L 155.4372396367463,40 L 155.4799429599101,40 L 156.96884279557213,40 L 157.006689802925,40 L 158.50956722652984,40 L 158.5489911925224,40 L 158.60045738812718,40 L 160.06016556897023,40 L 160.0987472956893,40 L 160.12249127520752,40 L 161.61047719165794,40 L 161.64635300071117,40 L 161.68418208807947,40 L 163.1596956952886,40 L 163.19388702579485,40 L 163.23264795235934,40 L 164.70631580116066,40 L 164.7370485746503,40 L 164.77568406132298,40 L 166.25445910571875,40 L 166.28696595767806,40 L 166.31889937013204,40 L 167.80220817061698,40 L 167.83933837858814,40 L 167.88041098315853,40 L 169.35357707239265,40 L 169.39000840096668,40 L 169.4345395625537,40 L 170.8924557449425,40 L 170.9298009927282,40 L 170.972737275691,40 L 172.44787456322473,40 L 172.4835174124789,40 L 172.52025338079014,40 L 173.99707514687086,40 L 174.03881079086932,40 L 174.08300147275006,40 L 175.54591733082611,40 L 175.58358513833352,40 L 175.62997997831295,40 L 177.09130095776473,40 L 177.13074284374184,40 L 177.1671920923004,40 L 178.6459312967271,40 L 178.68189670570302,40 L 180.1976406782091,40 L 180.23055968981288,40 L 181.74001374774465,40 L 181.77726939560762,40 L 181.82151383744198,40 L 183.2862933739104,40 L 183.33333333333334,40" stroke="#22c55e" stroke-width="2" fill="none" stroke-dasharray="14550" stroke-dashoffset="14550">
      <animate attributeName="stroke-dashoffset" values="14550;0" dur="3s" begin="2.6s" fill="freeze"/>
    </path>
    
    <!-- Glow effect for the line that also follows the circle -->
    <path d="M 30,160 L 30.02566141786424,160 L 30.057684430240908,160 L 31.54968442322874,160 L 31.577675439083446,160 L 31.610128531089128,160 L 33.09408245101757,160 L 33.131696498571365,160 L 33.15346927978998,160 L 34.64260207525108,160 L 34.67190124997735,160 L 34.701057064827296,160 L 36.18674922325632,160 L 36.219076875370206,160 L 36.246100212059645,160 L 37.32638856019352,160 L 37.741648361986805,160 L 37.77377889427073,160 L 37.80762974507069,160 L 39.28975582657584,160 L 39.317854362337805,160 L 39.350755453957035,160 L 40.836142972648844,160 L 40.8578082339602,160 L 40.894149962611515,160 L 42.38650835529019,160 L 42.4135675319487,160 L 42.44503502480457,160 L 43.934884619647356,160 L 43.96737355162212,160 L 44.0008480827467,160 L 45.4812896857049,160 L 45.50895814183785,160 L 45.54538947041186,160 L 47.033895066414,160 L 47.0574956860559,160 L 47.08656190098313,160 L 48.58087357197688,160 L 48.61438394307055,160 L 48.6457618360037,160 L 50.12826423718424,160 L 50.15842357116854,160 L 50.19229234195304,160 L 51.67436466350457,160 L 51.7037713581381,160 L 51.73692332954092,160 L 53.2258769251566,160 L 53.253366181444136,160 L 53.281482637190635,160 L 54.77240743110594,160 L 54.80020132713068,160 L 54.83360417831709,160 L 56.31178786322299,160 L 56.348595511472396,160 L 56.379471644838375,160 L 57.86815644068592,160 L 57.88989338193545,160 L 57.928976868221696,160 L 59.41828886352822,160 L 59.450956995348406,160 L 59.48538128565371,160 L 60.96877968606135,160 L 60.99867022027752,160 L 61.03033483296335,160 L 62.50789131841027,160 L 62.5403623304005,160 L 62.572743742468006,160 L 64.06096261871747,160 L 64.0913549125008,160 L 64.12608384254332,160 L 65.60973312273455,160 L 65.63770621860473,160 L 65.66858235197071,160 L 67.15914874619517,160 L 67.17907576900595,160 L 67.22799732680579,160 L 68.70480117290194,160 L 68.73496050688624,160 L 68.76470768122607,160 L 70.25595503486315,160 L 70.29020012532303,160 L 70.32136297844167,160 L 71.80348905994683,160 L 71.83364839393113,160 L 71.86841316394273,160 L 73.34966116620532,160 L 73.3793008206379,160 L 73.40630623734279,160 L 74.9002953486148,160 L 74.93092060219718,160 L 74.96245977499122,160 L 76.4532412090302,160 L 76.48205654417384,160 L 76.51047763965755,160 L 77.99572179847303,160 L 78.02652625190083,70 L 78.05862094421568,70 L 79.54979661791458,70 L 79.57117515947326,70 L 79.60065353404495,70 L 81.09421256568795,70 L 81.11811782506706,70 L 81.16053442847813,70 L 82.64434498853024,70 L 82.67583040137065,70 L 82.70348093751906,70 L 84.18635965837498,70 L 84.22085562861847,70 L 84.25463479948024,70 L 85.74417975458582,70 L 85.75944758141566,70 L 85.80082482572328,70 L 87.28936626169451,70 L 87.3219985535456,70 L 87.35885996174864,70 L 88.83777836602076,70 L 88.86852905949493,70 L 88.90793510550293,70 L 90.38368167251112,70 L 90.41638564430039,70 L 90.45453729139044,70 L 91.94055200954122,70 L 91.97698333811525,70 L 93.48288923910772,70 L 93.55949717302505,70 L 95.03142678332577,70 L 95.06950675047766,70 L 95.105651359299,70 L 96.57933712808484,70 L 96.61945997347453,70 L 96.64707466965386,70 L 98.13090314969051,70 L 98.16448520072234,70 L 98.20218884819884,70 L 99.67374213882418,70 L 99.70730626987147,70 L 99.7450636773016,70 L 101.22439424121819,70 L 101.25738493276013,70 L 101.29277690223071,70 L 102.77814650093798,70 L 102.82149494354523,70 L 104.36067825583233,70 L 104.40171502043366,70 L 105.8782142267926,70 L 105.91204715760803,70 L 107.43055080773357,70 L 107.45936614287722,70 L 107.5068182619446,70 L 108.96697444240118,70 L 108.99994721395858,70 L 109.03524958350644,70 L 110.51712478522802,70 L 110.55611867159155,70 L 110.59525591783144,70 L 112.06266969202755,70 L 112.09428054475974,70 L 112.13270099161794,70 L 113.60970195754405,70 L 113.6456315265509,70 L 113.69259980603564,70 L 115.15320398610578,70 L 115.19409739083078,70 L 115.2336826366842,70 L 116.70864072437253,70 L 116.74154181599177,70 L 116.77910210359192,70 L 118.25689154883791,70 L 118.29018688011706,70 L 118.32857148700616,70 L 119.80317117500365,70 L 119.84177082170726,70 L 119.88336310582939,70 L 121.35301687809329,70 L 121.38374965158292,70 L 121.42079025963136,70 L 122.90266546135294,70 L 122.93024431756318,70 L 122.96791212507058,70 L 124.4470814091263,70 L 124.4824375386278,70 L 124.52148518494495,70 L 125.99642535264876,70 L 126.03394980027983,70 L 126.073857605855,70 L 127.54886945349696,70 L 127.5760182300782,70 L 127.61485083658084,70 L 129.0958658790444,70 L 129.13244056749474,70 L 129.1650549393613,70 L 130.6394754275134,70 L 130.67294995863796,70 L 130.71149584538796,70 L 132.18507409426653,70 L 132.22568077923884,70 L 132.26282890719455,70 L 133.73680139573307,70 L 133.76744456929998,70 L 133.80185093962075,70 L 135.29123461486546,70 L 135.32863362260474,70 L 135.37072766629404,70 L 136.83828480036652,70 L 136.87168765155292,70 L 136.9050905027393,70 L 138.38307706781526,70 L 138.42017143581734,70 L 138.456656524345,70 L 139.9247512579537,70 L 139.96503538320428,70 L 140.0033841501243,70 L 141.47180144345475,70 L 141.5120676487208,70 L 141.5562583306015,70 L 143.0345674553992,70 L 143.06659046777588,70 L 143.1080035520526,70 L 144.57898340317257,70 L 144.60665185930554,70 L 144.64172126905436,70 L 146.12287967139423,70 L 146.15949019981366,70 L 146.19662040778485,70 L 147.671936895164,70 L 147.70390614758708,70 L 147.7452475519256,70 L 149.21988307989216,70 L 149.25204945214517,70 L 149.2901473392816,70 L 150.76865358390927,70 L 150.80017483671875,70 L 150.8343124072714,70 L 152.3152378498122,40 L 152.34507462407475,40 L 153.8622880353133,40 L 153.89871936388732,40 L 153.9331257342081,40 L 155.41215165838744,40 L 155.4372396367463,40 L 155.4799429599101,40 L 156.96884279557213,40 L 157.006689802925,40 L 158.50956722652984,40 L 158.5489911925224,40 L 158.60045738812718,40 L 160.06016556897023,40 L 160.0987472956893,40 L 160.12249127520752,40 L 161.61047719165794,40 L 161.64635300071117,40 L 161.68418208807947,40 L 163.1596956952886,40 L 163.19388702579485,40 L 163.23264795235934,40 L 164.70631580116066,40 L 164.7370485746503,40 L 164.77568406132298,40 L 166.25445910571875,40 L 166.28696595767806,40 L 166.31889937013204,40 L 167.80220817061698,40 L 167.83933837858814,40 L 167.88041098315853,40 L 169.35357707239265,40 L 169.39000840096668,40 L 169.4345395625537,40 L 170.8924557449425,40 L 170.9298009927282,40 L 170.972737275691,40 L 172.44787456322473,40 L 172.4835174124789,40 L 172.52025338079014,40 L 173.99707514687086,40 L 174.03881079086932,40 L 174.08300147275006,40 L 175.54591733082611,40 L 175.58358513833352,40 L 175.62997997831295,40 L 177.09130095776473,40 L 177.13074284374184,40 L 177.1671920923004,40 L 178.6459312967271,40 L 178.68189670570302,40 L 180.1976406782091,40 L 180.23055968981288,40 L 181.74001374774465,40 L 181.77726939560762,40 L 181.82151383744198,40 L 183.2862933739104,40 L 183.33333333333334,40" stroke="#22c55e" stroke-width="4" fill="none" opacity="0.4" stroke-dasharray="14550" stroke-dashoffset="14550">
      <animate attributeName="stroke-dashoffset" values="14550;0" dur="3s" begin="2.6s" fill="freeze"/>
    </path>
    
    <!-- Animated circle that moves along the path and draws the line -->
    <circle r="5" fill="#22c55e" opacity="0" filter="url(#trailGlow)">
      <animate attributeName="opacity" values="0;1;1;1" dur="3.2s" begin="2.4s" fill="freeze"/>
      <animate attributeName="r" values="5;6;5" dur="1s" begin="2.4s" repeatCount="3"/>
      <animateMotion dur="3s" begin="2.4s" fill="freeze">
        <mpath href="#path_followersCount_60"/>
      </animateMotion>
    </circle>
    
    <!-- Small trail dots that fade out -->
    <circle r="2" fill="#22c55e" opacity="0">
      <animate attributeName="opacity" values="0;0.6;0" dur="0.8s" begin="2.8s" fill="freeze"/>
      <animateMotion dur="3s" begin="2.4s" fill="freeze">
        <mpath href="#path_followersCount_60"/>
      </animateMotion>
    </circle>
    
    <!-- Hidden path for motion animation -->
    <path id="path_followersCount_60" d="M 30,160 L 30.02566141786424,160 L 30.057684430240908,160 L 31.54968442322874,160 L 31.577675439083446,160 L 31.610128531089128,160 L 33.09408245101757,160 L 33.131696498571365,160 L 33.15346927978998,160 L 34.64260207525108,160 L 34.67190124997735,160 L 34.701057064827296,160 L 36.18674922325632,160 L 36.219076875370206,160 L 36.246100212059645,160 L 37.32638856019352,160 L 37.741648361986805,160 L 37.77377889427073,160 L 37.80762974507069,160 L 39.28975582657584,160 L 39.317854362337805,160 L 39.350755453957035,160 L 40.836142972648844,160 L 40.8578082339602,160 L 40.894149962611515,160 L 42.38650835529019,160 L 42.4135675319487,160 L 42.44503502480457,160 L 43.934884619647356,160 L 43.96737355162212,160 L 44.0008480827467,160 L 45.4812896857049,160 L 45.50895814183785,160 L 45.54538947041186,160 L 47.033895066414,160 L 47.0574956860559,160 L 47.08656190098313,160 L 48.58087357197688,160 L 48.61438394307055,160 L 48.6457618360037,160 L 50.12826423718424,160 L 50.15842357116854,160 L 50.19229234195304,160 L 51.67436466350457,160 L 51.7037713581381,160 L 51.73692332954092,160 L 53.2258769251566,160 L 53.253366181444136,160 L 53.281482637190635,160 L 54.77240743110594,160 L 54.80020132713068,160 L 54.83360417831709,160 L 56.31178786322299,160 L 56.348595511472396,160 L 56.379471644838375,160 L 57.86815644068592,160 L 57.88989338193545,160 L 57.928976868221696,160 L 59.41828886352822,160 L 59.450956995348406,160 L 59.48538128565371,160 L 60.96877968606135,160 L 60.99867022027752,160 L 61.03033483296335,160 L 62.50789131841027,160 L 62.5403623304005,160 L 62.572743742468006,160 L 64.06096261871747,160 L 64.0913549125008,160 L 64.12608384254332,160 L 65.60973312273455,160 L 65.63770621860473,160 L 65.66858235197071,160 L 67.15914874619517,160 L 67.17907576900595,160 L 67.22799732680579,160 L 68.70480117290194,160 L 68.73496050688624,160 L 68.76470768122607,160 L 70.25595503486315,160 L 70.29020012532303,160 L 70.32136297844167,160 L 71.80348905994683,160 L 71.83364839393113,160 L 71.86841316394273,160 L 73.34966116620532,160 L 73.3793008206379,160 L 73.40630623734279,160 L 74.9002953486148,160 L 74.93092060219718,160 L 74.96245977499122,160 L 76.4532412090302,160 L 76.48205654417384,160 L 76.51047763965755,160 L 77.99572179847303,160 L 78.02652625190083,70 L 78.05862094421568,70 L 79.54979661791458,70 L 79.57117515947326,70 L 79.60065353404495,70 L 81.09421256568795,70 L 81.11811782506706,70 L 81.16053442847813,70 L 82.64434498853024,70 L 82.67583040137065,70 L 82.70348093751906,70 L 84.18635965837498,70 L 84.22085562861847,70 L 84.25463479948024,70 L 85.74417975458582,70 L 85.75944758141566,70 L 85.80082482572328,70 L 87.28936626169451,70 L 87.3219985535456,70 L 87.35885996174864,70 L 88.83777836602076,70 L 88.86852905949493,70 L 88.90793510550293,70 L 90.38368167251112,70 L 90.41638564430039,70 L 90.45453729139044,70 L 91.94055200954122,70 L 91.97698333811525,70 L 93.48288923910772,70 L 93.55949717302505,70 L 95.03142678332577,70 L 95.06950675047766,70 L 95.105651359299,70 L 96.57933712808484,70 L 96.61945997347453,70 L 96.64707466965386,70 L 98.13090314969051,70 L 98.16448520072234,70 L 98.20218884819884,70 L 99.67374213882418,70 L 99.70730626987147,70 L 99.7450636773016,70 L 101.22439424121819,70 L 101.25738493276013,70 L 101.29277690223071,70 L 102.77814650093798,70 L 102.82149494354523,70 L 104.36067825583233,70 L 104.40171502043366,70 L 105.8782142267926,70 L 105.91204715760803,70 L 107.43055080773357,70 L 107.45936614287722,70 L 107.5068182619446,70 L 108.96697444240118,70 L 108.99994721395858,70 L 109.03524958350644,70 L 110.51712478522802,70 L 110.55611867159155,70 L 110.59525591783144,70 L 112.06266969202755,70 L 112.09428054475974,70 L 112.13270099161794,70 L 113.60970195754405,70 L 113.6456315265509,70 L 113.69259980603564,70 L 115.15320398610578,70 L 115.19409739083078,70 L 115.2336826366842,70 L 116.70864072437253,70 L 116.74154181599177,70 L 116.77910210359192,70 L 118.25689154883791,70 L 118.29018688011706,70 L 118.32857148700616,70 L 119.80317117500365,70 L 119.84177082170726,70 L 119.88336310582939,70 L 121.35301687809329,70 L 121.38374965158292,70 L 121.42079025963136,70 L 122.90266546135294,70 L 122.93024431756318,70 L 122.96791212507058,70 L 124.4470814091263,70 L 124.4824375386278,70 L 124.52148518494495,70 L 125.99642535264876,70 L 126.03394980027983,70 L 126.073857605855,70 L 127.54886945349696,70 L 127.5760182300782,70 L 127.61485083658084,70 L 129.0958658790444,70 L 129.13244056749474,70 L 129.1650549393613,70 L 130.6394754275134,70 L 130.67294995863796,70 L 130.71149584538796,70 L 132.18507409426653,70 L 132.22568077923884,70 L 132.26282890719455,70 L 133.73680139573307,70 L 133.76744456929998,70 L 133.80185093962075,70 L 135.29123461486546,70 L 135.32863362260474,70 L 135.37072766629404,70 L 136.83828480036652,70 L 136.87168765155292,70 L 136.9050905027393,70 L 138.38307706781526,70 L 138.42017143581734,70 L 138.456656524345,70 L 139.9247512579537,70 L 139.96503538320428,70 L 140.0033841501243,70 L 141.47180144345475,70 L 141.5120676487208,70 L 141.5562583306015,70 L 143.0345674553992,70 L 143.06659046777588,70 L 143.1080035520526,70 L 144.57898340317257,70 L 144.60665185930554,70 L 144.64172126905436,70 L 146.12287967139423,70 L 146.15949019981366,70 L 146.19662040778485,70 L 147.671936895164,70 L 147.70390614758708,70 L 147.7452475519256,70 L 149.21988307989216,70 L 149.25204945214517,70 L 149.2901473392816,70 L 150.76865358390927,70 L 150.80017483671875,70 L 150.8343124072714,70 L 152.3152378498122,40 L 152.34507462407475,40 L 153.8622880353133,40 L 153.89871936388732,40 L 153.9331257342081,40 L 155.41215165838744,40 L 155.4372396367463,40 L 155.4799429599101,40 L 156.96884279557213,40 L 157.006689802925,40 L 158.50956722652984,40 L 158.5489911925224,40 L 158.60045738812718,40 L 160.06016556897023,40 L 160.0987472956893,40 L 160.12249127520752,40 L 161.61047719165794,40 L 161.64635300071117,40 L 161.68418208807947,40 L 163.1596956952886,40 L 163.19388702579485,40 L 163.23264795235934,40 L 164.70631580116066,40 L 164.7370485746503,40 L 164.77568406132298,40 L 166.25445910571875,40 L 166.28696595767806,40 L 166.31889937013204,40 L 167.80220817061698,40 L 167.83933837858814,40 L 167.88041098315853,40 L 169.35357707239265,40 L 169.39000840096668,40 L 169.4345395625537,40 L 170.8924557449425,40 L 170.9298009927282,40 L 170.972737275691,40 L 172.44787456322473,40 L 172.4835174124789,40 L 172.52025338079014,40 L 173.99707514687086,40 L 174.03881079086932,40 L 174.08300147275006,40 L 175.54591733082611,40 L 175.58358513833352,40 L 175.62997997831295,40 L 177.09130095776473,40 L 177.13074284374184,40 L 177.1671920923004,40 L 178.6459312967271,40 L 178.68189670570302,40 L 180.1976406782091,40 L 180.23055968981288,40 L 181.74001374774465,40 L 181.77726939560762,40 L 181.82151383744198,40 L 183.2862933739104,40 L 183.33333333333334,40" fill="none" stroke="none"/>
  </g>
  <!-- 🔓 Public Contributions Chart -->
  <g transform="translate(293.33333333333337, 250)">
    <!-- Chart Background -->
    <rect x="0" y="0" width="213.33333333333334" height="200" fill="#ffffff" stroke="#e2e8f0" stroke-width="1" rx="8" filter="url(#shadow)">
      <animate attributeName="opacity" values="0;1" dur="0.5s" begin="2.3s" fill="freeze"/>
    </rect>
    
    <!-- Chart Title -->
    <text x="106.66666666666667" y="25" text-anchor="middle" fill="#1e293b" font-size="14" font-weight="bold" font-family="Arial, sans-serif">
      🔓 Public Contributions
      <animate attributeName="opacity" values="0;1" dur="0.5s" begin="2.5s" fill="freeze"/>
    </text>
    
    <!-- Y-axis labels -->
    <text x="10" y="45" fill="#64748b" font-size="10" font-family="Arial, sans-serif">3,861
      <animate attributeName="opacity" values="0;1" dur="0.5s" begin="2.6999999999999997s" fill="freeze"/>
    </text>
    <text x="10" y="185" fill="#64748b" font-size="10" font-family="Arial, sans-serif">3,434
      <animate attributeName="opacity" values="0;1" dur="0.5s" begin="2.6999999999999997s" fill="freeze"/>
    </text>
    
    <!-- Chart Line with draw animation that follows the circle -->
    <path d="M 30,160 L 30.02566141786424,160 L 30.057684430240908,160 L 31.54968442322874,160 L 31.577675439083446,160 L 31.610128531089128,160 L 33.09408245101757,160 L 33.131696498571365,160 L 33.15346927978998,160 L 34.64260207525108,160 L 34.67190124997735,160 L 34.701057064827296,160 L 36.18674922325632,160 L 36.219076875370206,160 L 36.246100212059645,160 L 37.32638856019352,160 L 37.741648361986805,160 L 37.77377889427073,160 L 37.80762974507069,160 L 39.28975582657584,160 L 39.317854362337805,160 L 39.350755453957035,160 L 40.836142972648844,160 L 40.8578082339602,160 L 40.894149962611515,160 L 42.38650835529019,160 L 42.4135675319487,160 L 42.44503502480457,160 L 43.934884619647356,160 L 43.96737355162212,160 L 44.0008480827467,160 L 45.4812896857049,160 L 45.50895814183785,160 L 45.54538947041186,160 L 47.033895066414,160 L 47.0574956860559,160 L 47.08656190098313,160 L 48.58087357197688,160 L 48.61438394307055,160 L 48.6457618360037,160 L 50.12826423718424,160 L 50.15842357116854,160 L 50.19229234195304,160 L 51.67436466350457,160 L 51.7037713581381,160 L 51.73692332954092,160 L 53.2258769251566,160 L 53.253366181444136,160 L 53.281482637190635,160 L 54.77240743110594,160 L 54.80020132713068,160 L 54.83360417831709,160 L 56.31178786322299,160 L 56.348595511472396,160 L 56.379471644838375,160 L 57.86815644068592,160 L 57.88989338193545,160 L 57.928976868221696,160 L 59.41828886352822,160 L 59.450956995348406,160 L 59.48538128565371,160 L 60.96877968606135,160 L 60.99867022027752,160 L 61.03033483296335,160 L 62.50789131841027,160 L 62.5403623304005,160 L 62.572743742468006,160 L 64.06096261871747,160 L 64.0913549125008,160 L 64.12608384254332,160 L 65.60973312273455,160 L 65.63770621860473,160 L 65.66858235197071,160 L 67.15914874619517,160 L 67.17907576900595,160 L 67.22799732680579,160 L 68.70480117290194,160 L 68.73496050688624,160 L 68.76470768122607,160 L 70.25595503486315,160 L 70.29020012532303,160 L 70.32136297844167,160 L 71.80348905994683,160 L 71.83364839393113,160 L 71.86841316394273,160 L 73.34966116620532,160 L 73.3793008206379,160 L 73.40630623734279,160 L 74.9002953486148,160 L 74.93092060219718,160 L 74.96245977499122,160 L 76.4532412090302,160 L 76.48205654417384,160 L 76.51047763965755,160 L 77.99572179847303,160 L 78.02652625190083,40 L 78.05862094421568,40 L 79.54979661791458,40 L 79.57117515947326,40 L 79.60065353404495,40 L 81.09421256568795,40 L 81.11811782506706,40 L 81.16053442847813,40 L 82.64434498853024,40 L 82.67583040137065,40 L 82.70348093751906,40 L 84.18635965837498,40 L 84.22085562861847,40 L 84.25463479948024,40 L 85.74417975458582,40 L 85.75944758141566,40 L 85.80082482572328,40 L 87.28936626169451,40 L 87.3219985535456,40 L 87.35885996174864,40 L 88.83777836602076,40 L 88.86852905949493,40 L 88.90793510550293,40 L 90.38368167251112,40 L 90.41638564430039,40 L 90.45453729139044,40 L 91.94055200954122,40 L 91.97698333811525,40 L 93.48288923910772,40 L 93.55949717302505,40 L 95.03142678332577,40 L 95.06950675047766,40 L 95.105651359299,40 L 96.57933712808484,40 L 96.61945997347453,40 L 96.64707466965386,40 L 98.13090314969051,40 L 98.16448520072234,40 L 98.20218884819884,40 L 99.67374213882418,40 L 99.70730626987147,40 L 99.7450636773016,40 L 101.22439424121819,40 L 101.25738493276013,40 L 101.29277690223071,40 L 102.77814650093798,40 L 102.82149494354523,40 L 104.36067825583233,40 L 104.40171502043366,40 L 105.8782142267926,40 L 105.91204715760803,40 L 107.43055080773357,40 L 107.45936614287722,40 L 107.5068182619446,40 L 108.96697444240118,40 L 108.99994721395858,40 L 109.03524958350644,40 L 110.51712478522802,40 L 110.55611867159155,40 L 110.59525591783144,40 L 112.06266969202755,40 L 112.09428054475974,40 L 112.13270099161794,40 L 113.60970195754405,40 L 113.6456315265509,40 L 113.69259980603564,40 L 115.15320398610578,40 L 115.19409739083078,40 L 115.2336826366842,40 L 116.70864072437253,40 L 116.74154181599177,40 L 116.77910210359192,40 L 118.25689154883791,40 L 118.29018688011706,40 L 118.32857148700616,40 L 119.80317117500365,40 L 119.84177082170726,40 L 119.88336310582939,40 L 121.35301687809329,40 L 121.38374965158292,40 L 121.42079025963136,40 L 122.90266546135294,40 L 122.93024431756318,40 L 122.96791212507058,40 L 124.4470814091263,40 L 124.4824375386278,40 L 124.52148518494495,40 L 125.99642535264876,40 L 126.03394980027983,40 L 126.073857605855,40 L 127.54886945349696,40 L 127.5760182300782,40 L 127.61485083658084,40 L 129.0958658790444,40 L 129.13244056749474,40 L 129.1650549393613,40 L 130.6394754275134,40 L 130.67294995863796,40 L 130.71149584538796,40 L 132.18507409426653,40 L 132.22568077923884,40 L 132.26282890719455,40 L 133.73680139573307,40 L 133.76744456929998,40 L 133.80185093962075,40 L 135.29123461486546,40 L 135.32863362260474,40 L 135.37072766629404,40 L 136.83828480036652,40 L 136.87168765155292,40 L 136.9050905027393,40 L 138.38307706781526,40 L 138.42017143581734,40 L 138.456656524345,40 L 139.9247512579537,40 L 139.96503538320428,40 L 140.0033841501243,40 L 141.47180144345475,40 L 141.5120676487208,40 L 141.5562583306015,40 L 143.0345674553992,40 L 143.06659046777588,40 L 143.1080035520526,40 L 144.57898340317257,40 L 144.60665185930554,40 L 144.64172126905436,40 L 146.12287967139423,40 L 146.15949019981366,40 L 146.19662040778485,40 L 147.671936895164,40 L 147.70390614758708,40 L 147.7452475519256,40 L 149.21988307989216,40 L 149.25204945214517,40 L 149.2901473392816,40 L 150.76865358390927,40 L 150.80017483671875,40 L 150.8343124072714,40 L 152.3152378498122,66.4168618266979 L 152.34507462407475,66.4168618266979 L 153.8622880353133,66.4168618266979 L 153.89871936388732,66.4168618266979 L 153.9331257342081,66.4168618266979 L 155.41215165838744,66.4168618266979 L 155.4372396367463,66.4168618266979 L 155.4799429599101,66.4168618266979 L 156.96884279557213,66.4168618266979 L 157.006689802925,66.4168618266979 L 158.50956722652984,66.4168618266979 L 158.5489911925224,66.4168618266979 L 158.60045738812718,66.4168618266979 L 160.06016556897023,66.4168618266979 L 160.0987472956893,66.4168618266979 L 160.12249127520752,66.4168618266979 L 161.61047719165794,66.4168618266979 L 161.64635300071117,66.4168618266979 L 161.68418208807947,66.4168618266979 L 163.1596956952886,66.4168618266979 L 163.19388702579485,66.4168618266979 L 163.23264795235934,66.4168618266979 L 164.70631580116066,66.4168618266979 L 164.7370485746503,66.4168618266979 L 164.77568406132298,66.4168618266979 L 166.25445910571875,66.4168618266979 L 166.28696595767806,66.4168618266979 L 166.31889937013204,66.4168618266979 L 167.80220817061698,66.4168618266979 L 167.83933837858814,66.4168618266979 L 167.88041098315853,66.4168618266979 L 169.35357707239265,66.4168618266979 L 169.39000840096668,66.4168618266979 L 169.4345395625537,66.4168618266979 L 170.8924557449425,66.4168618266979 L 170.9298009927282,66.4168618266979 L 170.972737275691,66.4168618266979 L 172.44787456322473,66.4168618266979 L 172.4835174124789,66.4168618266979 L 172.52025338079014,66.4168618266979 L 173.99707514687086,66.4168618266979 L 174.03881079086932,66.4168618266979 L 174.08300147275006,66.4168618266979 L 175.54591733082611,66.4168618266979 L 175.58358513833352,66.4168618266979 L 175.62997997831295,66.4168618266979 L 177.09130095776473,66.4168618266979 L 177.13074284374184,66.4168618266979 L 177.1671920923004,66.4168618266979 L 178.6459312967271,66.4168618266979 L 178.68189670570302,66.4168618266979 L 180.1976406782091,66.4168618266979 L 180.23055968981288,66.4168618266979 L 181.74001374774465,66.4168618266979 L 181.77726939560762,66.4168618266979 L 181.82151383744198,66.4168618266979 L 183.2862933739104,66.4168618266979 L 183.33333333333334,66.4168618266979" stroke="#3b82f6" stroke-width="2" fill="none" stroke-dasharray="14550" stroke-dashoffset="14550">
      <animate attributeName="stroke-dashoffset" values="14550;0" dur="3s" begin="3.0999999999999996s" fill="freeze"/>
    </path>
    
    <!-- Glow effect for the line that also follows the circle -->
    <path d="M 30,160 L 30.02566141786424,160 L 30.057684430240908,160 L 31.54968442322874,160 L 31.577675439083446,160 L 31.610128531089128,160 L 33.09408245101757,160 L 33.131696498571365,160 L 33.15346927978998,160 L 34.64260207525108,160 L 34.67190124997735,160 L 34.701057064827296,160 L 36.18674922325632,160 L 36.219076875370206,160 L 36.246100212059645,160 L 37.32638856019352,160 L 37.741648361986805,160 L 37.77377889427073,160 L 37.80762974507069,160 L 39.28975582657584,160 L 39.317854362337805,160 L 39.350755453957035,160 L 40.836142972648844,160 L 40.8578082339602,160 L 40.894149962611515,160 L 42.38650835529019,160 L 42.4135675319487,160 L 42.44503502480457,160 L 43.934884619647356,160 L 43.96737355162212,160 L 44.0008480827467,160 L 45.4812896857049,160 L 45.50895814183785,160 L 45.54538947041186,160 L 47.033895066414,160 L 47.0574956860559,160 L 47.08656190098313,160 L 48.58087357197688,160 L 48.61438394307055,160 L 48.6457618360037,160 L 50.12826423718424,160 L 50.15842357116854,160 L 50.19229234195304,160 L 51.67436466350457,160 L 51.7037713581381,160 L 51.73692332954092,160 L 53.2258769251566,160 L 53.253366181444136,160 L 53.281482637190635,160 L 54.77240743110594,160 L 54.80020132713068,160 L 54.83360417831709,160 L 56.31178786322299,160 L 56.348595511472396,160 L 56.379471644838375,160 L 57.86815644068592,160 L 57.88989338193545,160 L 57.928976868221696,160 L 59.41828886352822,160 L 59.450956995348406,160 L 59.48538128565371,160 L 60.96877968606135,160 L 60.99867022027752,160 L 61.03033483296335,160 L 62.50789131841027,160 L 62.5403623304005,160 L 62.572743742468006,160 L 64.06096261871747,160 L 64.0913549125008,160 L 64.12608384254332,160 L 65.60973312273455,160 L 65.63770621860473,160 L 65.66858235197071,160 L 67.15914874619517,160 L 67.17907576900595,160 L 67.22799732680579,160 L 68.70480117290194,160 L 68.73496050688624,160 L 68.76470768122607,160 L 70.25595503486315,160 L 70.29020012532303,160 L 70.32136297844167,160 L 71.80348905994683,160 L 71.83364839393113,160 L 71.86841316394273,160 L 73.34966116620532,160 L 73.3793008206379,160 L 73.40630623734279,160 L 74.9002953486148,160 L 74.93092060219718,160 L 74.96245977499122,160 L 76.4532412090302,160 L 76.48205654417384,160 L 76.51047763965755,160 L 77.99572179847303,160 L 78.02652625190083,40 L 78.05862094421568,40 L 79.54979661791458,40 L 79.57117515947326,40 L 79.60065353404495,40 L 81.09421256568795,40 L 81.11811782506706,40 L 81.16053442847813,40 L 82.64434498853024,40 L 82.67583040137065,40 L 82.70348093751906,40 L 84.18635965837498,40 L 84.22085562861847,40 L 84.25463479948024,40 L 85.74417975458582,40 L 85.75944758141566,40 L 85.80082482572328,40 L 87.28936626169451,40 L 87.3219985535456,40 L 87.35885996174864,40 L 88.83777836602076,40 L 88.86852905949493,40 L 88.90793510550293,40 L 90.38368167251112,40 L 90.41638564430039,40 L 90.45453729139044,40 L 91.94055200954122,40 L 91.97698333811525,40 L 93.48288923910772,40 L 93.55949717302505,40 L 95.03142678332577,40 L 95.06950675047766,40 L 95.105651359299,40 L 96.57933712808484,40 L 96.61945997347453,40 L 96.64707466965386,40 L 98.13090314969051,40 L 98.16448520072234,40 L 98.20218884819884,40 L 99.67374213882418,40 L 99.70730626987147,40 L 99.7450636773016,40 L 101.22439424121819,40 L 101.25738493276013,40 L 101.29277690223071,40 L 102.77814650093798,40 L 102.82149494354523,40 L 104.36067825583233,40 L 104.40171502043366,40 L 105.8782142267926,40 L 105.91204715760803,40 L 107.43055080773357,40 L 107.45936614287722,40 L 107.5068182619446,40 L 108.96697444240118,40 L 108.99994721395858,40 L 109.03524958350644,40 L 110.51712478522802,40 L 110.55611867159155,40 L 110.59525591783144,40 L 112.06266969202755,40 L 112.09428054475974,40 L 112.13270099161794,40 L 113.60970195754405,40 L 113.6456315265509,40 L 113.69259980603564,40 L 115.15320398610578,40 L 115.19409739083078,40 L 115.2336826366842,40 L 116.70864072437253,40 L 116.74154181599177,40 L 116.77910210359192,40 L 118.25689154883791,40 L 118.29018688011706,40 L 118.32857148700616,40 L 119.80317117500365,40 L 119.84177082170726,40 L 119.88336310582939,40 L 121.35301687809329,40 L 121.38374965158292,40 L 121.42079025963136,40 L 122.90266546135294,40 L 122.93024431756318,40 L 122.96791212507058,40 L 124.4470814091263,40 L 124.4824375386278,40 L 124.52148518494495,40 L 125.99642535264876,40 L 126.03394980027983,40 L 126.073857605855,40 L 127.54886945349696,40 L 127.5760182300782,40 L 127.61485083658084,40 L 129.0958658790444,40 L 129.13244056749474,40 L 129.1650549393613,40 L 130.6394754275134,40 L 130.67294995863796,40 L 130.71149584538796,40 L 132.18507409426653,40 L 132.22568077923884,40 L 132.26282890719455,40 L 133.73680139573307,40 L 133.76744456929998,40 L 133.80185093962075,40 L 135.29123461486546,40 L 135.32863362260474,40 L 135.37072766629404,40 L 136.83828480036652,40 L 136.87168765155292,40 L 136.9050905027393,40 L 138.38307706781526,40 L 138.42017143581734,40 L 138.456656524345,40 L 139.9247512579537,40 L 139.96503538320428,40 L 140.0033841501243,40 L 141.47180144345475,40 L 141.5120676487208,40 L 141.5562583306015,40 L 143.0345674553992,40 L 143.06659046777588,40 L 143.1080035520526,40 L 144.57898340317257,40 L 144.60665185930554,40 L 144.64172126905436,40 L 146.12287967139423,40 L 146.15949019981366,40 L 146.19662040778485,40 L 147.671936895164,40 L 147.70390614758708,40 L 147.7452475519256,40 L 149.21988307989216,40 L 149.25204945214517,40 L 149.2901473392816,40 L 150.76865358390927,40 L 150.80017483671875,40 L 150.8343124072714,40 L 152.3152378498122,66.4168618266979 L 152.34507462407475,66.4168618266979 L 153.8622880353133,66.4168618266979 L 153.89871936388732,66.4168618266979 L 153.9331257342081,66.4168618266979 L 155.41215165838744,66.4168618266979 L 155.4372396367463,66.4168618266979 L 155.4799429599101,66.4168618266979 L 156.96884279557213,66.4168618266979 L 157.006689802925,66.4168618266979 L 158.50956722652984,66.4168618266979 L 158.5489911925224,66.4168618266979 L 158.60045738812718,66.4168618266979 L 160.06016556897023,66.4168618266979 L 160.0987472956893,66.4168618266979 L 160.12249127520752,66.4168618266979 L 161.61047719165794,66.4168618266979 L 161.64635300071117,66.4168618266979 L 161.68418208807947,66.4168618266979 L 163.1596956952886,66.4168618266979 L 163.19388702579485,66.4168618266979 L 163.23264795235934,66.4168618266979 L 164.70631580116066,66.4168618266979 L 164.7370485746503,66.4168618266979 L 164.77568406132298,66.4168618266979 L 166.25445910571875,66.4168618266979 L 166.28696595767806,66.4168618266979 L 166.31889937013204,66.4168618266979 L 167.80220817061698,66.4168618266979 L 167.83933837858814,66.4168618266979 L 167.88041098315853,66.4168618266979 L 169.35357707239265,66.4168618266979 L 169.39000840096668,66.4168618266979 L 169.4345395625537,66.4168618266979 L 170.8924557449425,66.4168618266979 L 170.9298009927282,66.4168618266979 L 170.972737275691,66.4168618266979 L 172.44787456322473,66.4168618266979 L 172.4835174124789,66.4168618266979 L 172.52025338079014,66.4168618266979 L 173.99707514687086,66.4168618266979 L 174.03881079086932,66.4168618266979 L 174.08300147275006,66.4168618266979 L 175.54591733082611,66.4168618266979 L 175.58358513833352,66.4168618266979 L 175.62997997831295,66.4168618266979 L 177.09130095776473,66.4168618266979 L 177.13074284374184,66.4168618266979 L 177.1671920923004,66.4168618266979 L 178.6459312967271,66.4168618266979 L 178.68189670570302,66.4168618266979 L 180.1976406782091,66.4168618266979 L 180.23055968981288,66.4168618266979 L 181.74001374774465,66.4168618266979 L 181.77726939560762,66.4168618266979 L 181.82151383744198,66.4168618266979 L 183.2862933739104,66.4168618266979 L 183.33333333333334,66.4168618266979" stroke="#3b82f6" stroke-width="4" fill="none" opacity="0.4" stroke-dasharray="14550" stroke-dashoffset="14550">
      <animate attributeName="stroke-dashoffset" values="14550;0" dur="3s" begin="3.0999999999999996s" fill="freeze"/>
    </path>
    
    <!-- Animated circle that moves along the path and draws the line -->
    <circle r="5" fill="#3b82f6" opacity="0" filter="url(#trailGlow)">
      <animate attributeName="opacity" values="0;1;1;1" dur="3.2s" begin="2.9s" fill="freeze"/>
      <animate attributeName="r" values="5;6;5" dur="1s" begin="2.9s" repeatCount="3"/>
      <animateMotion dur="3s" begin="2.9s" fill="freeze">
        <mpath href="#path_publicContributions_293.33333333333337"/>
      </animateMotion>
    </circle>
    
    <!-- Small trail dots that fade out -->
    <circle r="2" fill="#3b82f6" opacity="0">
      <animate attributeName="opacity" values="0;0.6;0" dur="0.8s" begin="3.3s" fill="freeze"/>
      <animateMotion dur="3s" begin="2.9s" fill="freeze">
        <mpath href="#path_publicContributions_293.33333333333337"/>
      </animateMotion>
    </circle>
    
    <!-- Hidden path for motion animation -->
    <path id="path_publicContributions_293.33333333333337" d="M 30,160 L 30.02566141786424,160 L 30.057684430240908,160 L 31.54968442322874,160 L 31.577675439083446,160 L 31.610128531089128,160 L 33.09408245101757,160 L 33.131696498571365,160 L 33.15346927978998,160 L 34.64260207525108,160 L 34.67190124997735,160 L 34.701057064827296,160 L 36.18674922325632,160 L 36.219076875370206,160 L 36.246100212059645,160 L 37.32638856019352,160 L 37.741648361986805,160 L 37.77377889427073,160 L 37.80762974507069,160 L 39.28975582657584,160 L 39.317854362337805,160 L 39.350755453957035,160 L 40.836142972648844,160 L 40.8578082339602,160 L 40.894149962611515,160 L 42.38650835529019,160 L 42.4135675319487,160 L 42.44503502480457,160 L 43.934884619647356,160 L 43.96737355162212,160 L 44.0008480827467,160 L 45.4812896857049,160 L 45.50895814183785,160 L 45.54538947041186,160 L 47.033895066414,160 L 47.0574956860559,160 L 47.08656190098313,160 L 48.58087357197688,160 L 48.61438394307055,160 L 48.6457618360037,160 L 50.12826423718424,160 L 50.15842357116854,160 L 50.19229234195304,160 L 51.67436466350457,160 L 51.7037713581381,160 L 51.73692332954092,160 L 53.2258769251566,160 L 53.253366181444136,160 L 53.281482637190635,160 L 54.77240743110594,160 L 54.80020132713068,160 L 54.83360417831709,160 L 56.31178786322299,160 L 56.348595511472396,160 L 56.379471644838375,160 L 57.86815644068592,160 L 57.88989338193545,160 L 57.928976868221696,160 L 59.41828886352822,160 L 59.450956995348406,160 L 59.48538128565371,160 L 60.96877968606135,160 L 60.99867022027752,160 L 61.03033483296335,160 L 62.50789131841027,160 L 62.5403623304005,160 L 62.572743742468006,160 L 64.06096261871747,160 L 64.0913549125008,160 L 64.12608384254332,160 L 65.60973312273455,160 L 65.63770621860473,160 L 65.66858235197071,160 L 67.15914874619517,160 L 67.17907576900595,160 L 67.22799732680579,160 L 68.70480117290194,160 L 68.73496050688624,160 L 68.76470768122607,160 L 70.25595503486315,160 L 70.29020012532303,160 L 70.32136297844167,160 L 71.80348905994683,160 L 71.83364839393113,160 L 71.86841316394273,160 L 73.34966116620532,160 L 73.3793008206379,160 L 73.40630623734279,160 L 74.9002953486148,160 L 74.93092060219718,160 L 74.96245977499122,160 L 76.4532412090302,160 L 76.48205654417384,160 L 76.51047763965755,160 L 77.99572179847303,160 L 78.02652625190083,40 L 78.05862094421568,40 L 79.54979661791458,40 L 79.57117515947326,40 L 79.60065353404495,40 L 81.09421256568795,40 L 81.11811782506706,40 L 81.16053442847813,40 L 82.64434498853024,40 L 82.67583040137065,40 L 82.70348093751906,40 L 84.18635965837498,40 L 84.22085562861847,40 L 84.25463479948024,40 L 85.74417975458582,40 L 85.75944758141566,40 L 85.80082482572328,40 L 87.28936626169451,40 L 87.3219985535456,40 L 87.35885996174864,40 L 88.83777836602076,40 L 88.86852905949493,40 L 88.90793510550293,40 L 90.38368167251112,40 L 90.41638564430039,40 L 90.45453729139044,40 L 91.94055200954122,40 L 91.97698333811525,40 L 93.48288923910772,40 L 93.55949717302505,40 L 95.03142678332577,40 L 95.06950675047766,40 L 95.105651359299,40 L 96.57933712808484,40 L 96.61945997347453,40 L 96.64707466965386,40 L 98.13090314969051,40 L 98.16448520072234,40 L 98.20218884819884,40 L 99.67374213882418,40 L 99.70730626987147,40 L 99.7450636773016,40 L 101.22439424121819,40 L 101.25738493276013,40 L 101.29277690223071,40 L 102.77814650093798,40 L 102.82149494354523,40 L 104.36067825583233,40 L 104.40171502043366,40 L 105.8782142267926,40 L 105.91204715760803,40 L 107.43055080773357,40 L 107.45936614287722,40 L 107.5068182619446,40 L 108.96697444240118,40 L 108.99994721395858,40 L 109.03524958350644,40 L 110.51712478522802,40 L 110.55611867159155,40 L 110.59525591783144,40 L 112.06266969202755,40 L 112.09428054475974,40 L 112.13270099161794,40 L 113.60970195754405,40 L 113.6456315265509,40 L 113.69259980603564,40 L 115.15320398610578,40 L 115.19409739083078,40 L 115.2336826366842,40 L 116.70864072437253,40 L 116.74154181599177,40 L 116.77910210359192,40 L 118.25689154883791,40 L 118.29018688011706,40 L 118.32857148700616,40 L 119.80317117500365,40 L 119.84177082170726,40 L 119.88336310582939,40 L 121.35301687809329,40 L 121.38374965158292,40 L 121.42079025963136,40 L 122.90266546135294,40 L 122.93024431756318,40 L 122.96791212507058,40 L 124.4470814091263,40 L 124.4824375386278,40 L 124.52148518494495,40 L 125.99642535264876,40 L 126.03394980027983,40 L 126.073857605855,40 L 127.54886945349696,40 L 127.5760182300782,40 L 127.61485083658084,40 L 129.0958658790444,40 L 129.13244056749474,40 L 129.1650549393613,40 L 130.6394754275134,40 L 130.67294995863796,40 L 130.71149584538796,40 L 132.18507409426653,40 L 132.22568077923884,40 L 132.26282890719455,40 L 133.73680139573307,40 L 133.76744456929998,40 L 133.80185093962075,40 L 135.29123461486546,40 L 135.32863362260474,40 L 135.37072766629404,40 L 136.83828480036652,40 L 136.87168765155292,40 L 136.9050905027393,40 L 138.38307706781526,40 L 138.42017143581734,40 L 138.456656524345,40 L 139.9247512579537,40 L 139.96503538320428,40 L 140.0033841501243,40 L 141.47180144345475,40 L 141.5120676487208,40 L 141.5562583306015,40 L 143.0345674553992,40 L 143.06659046777588,40 L 143.1080035520526,40 L 144.57898340317257,40 L 144.60665185930554,40 L 144.64172126905436,40 L 146.12287967139423,40 L 146.15949019981366,40 L 146.19662040778485,40 L 147.671936895164,40 L 147.70390614758708,40 L 147.7452475519256,40 L 149.21988307989216,40 L 149.25204945214517,40 L 149.2901473392816,40 L 150.76865358390927,40 L 150.80017483671875,40 L 150.8343124072714,40 L 152.3152378498122,66.4168618266979 L 152.34507462407475,66.4168618266979 L 153.8622880353133,66.4168618266979 L 153.89871936388732,66.4168618266979 L 153.9331257342081,66.4168618266979 L 155.41215165838744,66.4168618266979 L 155.4372396367463,66.4168618266979 L 155.4799429599101,66.4168618266979 L 156.96884279557213,66.4168618266979 L 157.006689802925,66.4168618266979 L 158.50956722652984,66.4168618266979 L 158.5489911925224,66.4168618266979 L 158.60045738812718,66.4168618266979 L 160.06016556897023,66.4168618266979 L 160.0987472956893,66.4168618266979 L 160.12249127520752,66.4168618266979 L 161.61047719165794,66.4168618266979 L 161.64635300071117,66.4168618266979 L 161.68418208807947,66.4168618266979 L 163.1596956952886,66.4168618266979 L 163.19388702579485,66.4168618266979 L 163.23264795235934,66.4168618266979 L 164.70631580116066,66.4168618266979 L 164.7370485746503,66.4168618266979 L 164.77568406132298,66.4168618266979 L 166.25445910571875,66.4168618266979 L 166.28696595767806,66.4168618266979 L 166.31889937013204,66.4168618266979 L 167.80220817061698,66.4168618266979 L 167.83933837858814,66.4168618266979 L 167.88041098315853,66.4168618266979 L 169.35357707239265,66.4168618266979 L 169.39000840096668,66.4168618266979 L 169.4345395625537,66.4168618266979 L 170.8924557449425,66.4168618266979 L 170.9298009927282,66.4168618266979 L 170.972737275691,66.4168618266979 L 172.44787456322473,66.4168618266979 L 172.4835174124789,66.4168618266979 L 172.52025338079014,66.4168618266979 L 173.99707514687086,66.4168618266979 L 174.03881079086932,66.4168618266979 L 174.08300147275006,66.4168618266979 L 175.54591733082611,66.4168618266979 L 175.58358513833352,66.4168618266979 L 175.62997997831295,66.4168618266979 L 177.09130095776473,66.4168618266979 L 177.13074284374184,66.4168618266979 L 177.1671920923004,66.4168618266979 L 178.6459312967271,66.4168618266979 L 178.68189670570302,66.4168618266979 L 180.1976406782091,66.4168618266979 L 180.23055968981288,66.4168618266979 L 181.74001374774465,66.4168618266979 L 181.77726939560762,66.4168618266979 L 181.82151383744198,66.4168618266979 L 183.2862933739104,66.4168618266979 L 183.33333333333334,66.4168618266979" fill="none" stroke="none"/>
  </g>
  <!-- 📊 Total Contributions Chart -->
  <g transform="translate(526.6666666666667, 250)">
    <!-- Chart Background -->
    <rect x="0" y="0" width="213.33333333333334" height="200" fill="#ffffff" stroke="#e2e8f0" stroke-width="1" rx="8" filter="url(#shadow)">
      <animate attributeName="opacity" values="0;1" dur="0.5s" begin="2.8s" fill="freeze"/>
    </rect>
    
    <!-- Chart Title -->
    <text x="106.66666666666667" y="25" text-anchor="middle" fill="#1e293b" font-size="14" font-weight="bold" font-family="Arial, sans-serif">
      📊 Total Contributions
      <animate attributeName="opacity" values="0;1" dur="0.5s" begin="3s" fill="freeze"/>
    </text>
    
    <!-- Y-axis labels -->
    <text x="10" y="45" fill="#64748b" font-size="10" font-family="Arial, sans-serif">5,314
      <animate attributeName="opacity" values="0;1" dur="0.5s" begin="3.1999999999999997s" fill="freeze"/>
    </text>
    <text x="10" y="185" fill="#64748b" font-size="10" font-family="Arial, sans-serif">4,917
      <animate attributeName="opacity" values="0;1" dur="0.5s" begin="3.1999999999999997s" fill="freeze"/>
    </text>
    
    <!-- Chart Line with draw animation that follows the circle -->
    <path d="M 30,160 L 30.02566141786424,160 L 30.057684430240908,160 L 31.54968442322874,160 L 31.577675439083446,160 L 31.610128531089128,160 L 33.09408245101757,160 L 33.131696498571365,160 L 33.15346927978998,160 L 34.64260207525108,160 L 34.67190124997735,160 L 34.701057064827296,160 L 36.18674922325632,160 L 36.219076875370206,160 L 36.246100212059645,160 L 37.32638856019352,160 L 37.741648361986805,160 L 37.77377889427073,160 L 37.80762974507069,160 L 39.28975582657584,160 L 39.317854362337805,160 L 39.350755453957035,160 L 40.836142972648844,160 L 40.8578082339602,160 L 40.894149962611515,160 L 42.38650835529019,160 L 42.4135675319487,160 L 42.44503502480457,160 L 43.934884619647356,160 L 43.96737355162212,160 L 44.0008480827467,160 L 45.4812896857049,160 L 45.50895814183785,160 L 45.54538947041186,160 L 47.033895066414,160 L 47.0574956860559,160 L 47.08656190098313,160 L 48.58087357197688,160 L 48.61438394307055,160 L 48.6457618360037,160 L 50.12826423718424,160 L 50.15842357116854,160 L 50.19229234195304,160 L 51.67436466350457,160 L 51.7037713581381,160 L 51.73692332954092,160 L 53.2258769251566,160 L 53.253366181444136,160 L 53.281482637190635,160 L 54.77240743110594,160 L 54.80020132713068,160 L 54.83360417831709,160 L 56.31178786322299,160 L 56.348595511472396,160 L 56.379471644838375,160 L 57.86815644068592,160 L 57.88989338193545,160 L 57.928976868221696,160 L 59.41828886352822,160 L 59.450956995348406,160 L 59.48538128565371,160 L 60.96877968606135,160 L 60.99867022027752,160 L 61.03033483296335,160 L 62.50789131841027,160 L 62.5403623304005,160 L 62.572743742468006,160 L 64.06096261871747,160 L 64.0913549125008,160 L 64.12608384254332,160 L 65.60973312273455,160 L 65.63770621860473,160 L 65.66858235197071,160 L 67.15914874619517,160 L 67.17907576900595,160 L 67.22799732680579,160 L 68.70480117290194,160 L 68.73496050688624,160 L 68.76470768122607,160 L 70.25595503486315,160 L 70.29020012532303,160 L 70.32136297844167,160 L 71.80348905994683,160 L 71.83364839393113,160 L 71.86841316394273,160 L 73.34966116620532,160 L 73.3793008206379,160 L 73.40630623734279,160 L 74.9002953486148,160 L 74.93092060219718,160 L 74.96245977499122,160 L 76.4532412090302,160 L 76.48205654417384,160 L 76.51047763965755,160 L 77.99572179847303,160 L 78.02652625190083,40 L 78.05862094421568,40 L 79.54979661791458,40 L 79.57117515947326,40 L 79.60065353404495,40 L 81.09421256568795,40 L 81.11811782506706,40 L 81.16053442847813,40 L 82.64434498853024,40 L 82.67583040137065,40 L 82.70348093751906,40 L 84.18635965837498,40 L 84.22085562861847,40 L 84.25463479948024,40 L 85.74417975458582,40 L 85.75944758141566,40 L 85.80082482572328,40 L 87.28936626169451,40 L 87.3219985535456,40 L 87.35885996174864,40 L 88.83777836602076,40 L 88.86852905949493,40 L 88.90793510550293,40 L 90.38368167251112,40 L 90.41638564430039,40 L 90.45453729139044,40 L 91.94055200954122,40 L 91.97698333811525,40 L 93.48288923910772,40 L 93.55949717302505,40 L 95.03142678332577,40 L 95.06950675047766,40 L 95.105651359299,40 L 96.57933712808484,40 L 96.61945997347453,40 L 96.64707466965386,40 L 98.13090314969051,40 L 98.16448520072234,40 L 98.20218884819884,40 L 99.67374213882418,40 L 99.70730626987147,40 L 99.7450636773016,40 L 101.22439424121819,40 L 101.25738493276013,40 L 101.29277690223071,40 L 102.77814650093798,40 L 102.82149494354523,40 L 104.36067825583233,40 L 104.40171502043366,40 L 105.8782142267926,40 L 105.91204715760803,40 L 107.43055080773357,40 L 107.45936614287722,40 L 107.5068182619446,40 L 108.96697444240118,40 L 108.99994721395858,40 L 109.03524958350644,40 L 110.51712478522802,40 L 110.55611867159155,40 L 110.59525591783144,40 L 112.06266969202755,40 L 112.09428054475974,40 L 112.13270099161794,40 L 113.60970195754405,40 L 113.6456315265509,40 L 113.69259980603564,40 L 115.15320398610578,40 L 115.19409739083078,40 L 115.2336826366842,40 L 116.70864072437253,40 L 116.74154181599177,40 L 116.77910210359192,40 L 118.25689154883791,40 L 118.29018688011706,40 L 118.32857148700616,40 L 119.80317117500365,40 L 119.84177082170726,40 L 119.88336310582939,40 L 121.35301687809329,40 L 121.38374965158292,40 L 121.42079025963136,40 L 122.90266546135294,40 L 122.93024431756318,40 L 122.96791212507058,40 L 124.4470814091263,40 L 124.4824375386278,40 L 124.52148518494495,40 L 125.99642535264876,40 L 126.03394980027983,40 L 126.073857605855,40 L 127.54886945349696,40 L 127.5760182300782,40 L 127.61485083658084,40 L 129.0958658790444,40 L 129.13244056749474,40 L 129.1650549393613,40 L 130.6394754275134,40 L 130.67294995863796,40 L 130.71149584538796,40 L 132.18507409426653,40 L 132.22568077923884,40 L 132.26282890719455,40 L 133.73680139573307,40 L 133.76744456929998,40 L 133.80185093962075,40 L 135.29123461486546,40 L 135.32863362260474,40 L 135.37072766629404,40 L 136.83828480036652,40 L 136.87168765155292,40 L 136.9050905027393,40 L 138.38307706781526,40 L 138.42017143581734,40 L 138.456656524345,40 L 139.9247512579537,40 L 139.96503538320428,40 L 140.0033841501243,40 L 141.47180144345475,40 L 141.5120676487208,40 L 141.5562583306015,40 L 143.0345674553992,40 L 143.06659046777588,40 L 143.1080035520526,40 L 144.57898340317257,40 L 144.60665185930554,40 L 144.64172126905436,40 L 146.12287967139423,40 L 146.15949019981366,40 L 146.19662040778485,40 L 147.671936895164,40 L 147.70390614758708,40 L 147.7452475519256,40 L 149.21988307989216,40 L 149.25204945214517,40 L 149.2901473392816,40 L 150.76865358390927,40 L 150.80017483671875,40 L 150.8343124072714,40 L 152.3152378498122,72.04030226700252 L 152.34507462407475,72.04030226700252 L 153.8622880353133,72.04030226700252 L 153.89871936388732,72.04030226700252 L 153.9331257342081,72.04030226700252 L 155.41215165838744,72.04030226700252 L 155.4372396367463,72.04030226700252 L 155.4799429599101,72.04030226700252 L 156.96884279557213,72.04030226700252 L 157.006689802925,72.04030226700252 L 158.50956722652984,72.04030226700252 L 158.5489911925224,72.04030226700252 L 158.60045738812718,72.04030226700252 L 160.06016556897023,72.04030226700252 L 160.0987472956893,72.04030226700252 L 160.12249127520752,72.04030226700252 L 161.61047719165794,72.04030226700252 L 161.64635300071117,72.04030226700252 L 161.68418208807947,72.04030226700252 L 163.1596956952886,72.04030226700252 L 163.19388702579485,72.04030226700252 L 163.23264795235934,72.04030226700252 L 164.70631580116066,72.04030226700252 L 164.7370485746503,72.04030226700252 L 164.77568406132298,72.04030226700252 L 166.25445910571875,72.04030226700252 L 166.28696595767806,72.04030226700252 L 166.31889937013204,72.04030226700252 L 167.80220817061698,72.04030226700252 L 167.83933837858814,72.04030226700252 L 167.88041098315853,72.04030226700252 L 169.35357707239265,72.04030226700252 L 169.39000840096668,72.04030226700252 L 169.4345395625537,72.04030226700252 L 170.8924557449425,72.04030226700252 L 170.9298009927282,72.04030226700252 L 170.972737275691,72.04030226700252 L 172.44787456322473,72.04030226700252 L 172.4835174124789,72.04030226700252 L 172.52025338079014,72.04030226700252 L 173.99707514687086,72.04030226700252 L 174.03881079086932,72.04030226700252 L 174.08300147275006,72.04030226700252 L 175.54591733082611,72.04030226700252 L 175.58358513833352,72.04030226700252 L 175.62997997831295,72.04030226700252 L 177.09130095776473,72.04030226700252 L 177.13074284374184,72.04030226700252 L 177.1671920923004,72.04030226700252 L 178.6459312967271,72.04030226700252 L 178.68189670570302,72.04030226700252 L 180.1976406782091,72.04030226700252 L 180.23055968981288,72.04030226700252 L 181.74001374774465,72.04030226700252 L 181.77726939560762,72.04030226700252 L 181.82151383744198,72.04030226700252 L 183.2862933739104,72.04030226700252 L 183.33333333333334,72.04030226700252" stroke="#f59e0b" stroke-width="2" fill="none" stroke-dasharray="14550" stroke-dashoffset="14550">
      <animate attributeName="stroke-dashoffset" values="14550;0" dur="3s" begin="3.5999999999999996s" fill="freeze"/>
    </path>
    
    <!-- Glow effect for the line that also follows the circle -->
    <path d="M 30,160 L 30.02566141786424,160 L 30.057684430240908,160 L 31.54968442322874,160 L 31.577675439083446,160 L 31.610128531089128,160 L 33.09408245101757,160 L 33.131696498571365,160 L 33.15346927978998,160 L 34.64260207525108,160 L 34.67190124997735,160 L 34.701057064827296,160 L 36.18674922325632,160 L 36.219076875370206,160 L 36.246100212059645,160 L 37.32638856019352,160 L 37.741648361986805,160 L 37.77377889427073,160 L 37.80762974507069,160 L 39.28975582657584,160 L 39.317854362337805,160 L 39.350755453957035,160 L 40.836142972648844,160 L 40.8578082339602,160 L 40.894149962611515,160 L 42.38650835529019,160 L 42.4135675319487,160 L 42.44503502480457,160 L 43.934884619647356,160 L 43.96737355162212,160 L 44.0008480827467,160 L 45.4812896857049,160 L 45.50895814183785,160 L 45.54538947041186,160 L 47.033895066414,160 L 47.0574956860559,160 L 47.08656190098313,160 L 48.58087357197688,160 L 48.61438394307055,160 L 48.6457618360037,160 L 50.12826423718424,160 L 50.15842357116854,160 L 50.19229234195304,160 L 51.67436466350457,160 L 51.7037713581381,160 L 51.73692332954092,160 L 53.2258769251566,160 L 53.253366181444136,160 L 53.281482637190635,160 L 54.77240743110594,160 L 54.80020132713068,160 L 54.83360417831709,160 L 56.31178786322299,160 L 56.348595511472396,160 L 56.379471644838375,160 L 57.86815644068592,160 L 57.88989338193545,160 L 57.928976868221696,160 L 59.41828886352822,160 L 59.450956995348406,160 L 59.48538128565371,160 L 60.96877968606135,160 L 60.99867022027752,160 L 61.03033483296335,160 L 62.50789131841027,160 L 62.5403623304005,160 L 62.572743742468006,160 L 64.06096261871747,160 L 64.0913549125008,160 L 64.12608384254332,160 L 65.60973312273455,160 L 65.63770621860473,160 L 65.66858235197071,160 L 67.15914874619517,160 L 67.17907576900595,160 L 67.22799732680579,160 L 68.70480117290194,160 L 68.73496050688624,160 L 68.76470768122607,160 L 70.25595503486315,160 L 70.29020012532303,160 L 70.32136297844167,160 L 71.80348905994683,160 L 71.83364839393113,160 L 71.86841316394273,160 L 73.34966116620532,160 L 73.3793008206379,160 L 73.40630623734279,160 L 74.9002953486148,160 L 74.93092060219718,160 L 74.96245977499122,160 L 76.4532412090302,160 L 76.48205654417384,160 L 76.51047763965755,160 L 77.99572179847303,160 L 78.02652625190083,40 L 78.05862094421568,40 L 79.54979661791458,40 L 79.57117515947326,40 L 79.60065353404495,40 L 81.09421256568795,40 L 81.11811782506706,40 L 81.16053442847813,40 L 82.64434498853024,40 L 82.67583040137065,40 L 82.70348093751906,40 L 84.18635965837498,40 L 84.22085562861847,40 L 84.25463479948024,40 L 85.74417975458582,40 L 85.75944758141566,40 L 85.80082482572328,40 L 87.28936626169451,40 L 87.3219985535456,40 L 87.35885996174864,40 L 88.83777836602076,40 L 88.86852905949493,40 L 88.90793510550293,40 L 90.38368167251112,40 L 90.41638564430039,40 L 90.45453729139044,40 L 91.94055200954122,40 L 91.97698333811525,40 L 93.48288923910772,40 L 93.55949717302505,40 L 95.03142678332577,40 L 95.06950675047766,40 L 95.105651359299,40 L 96.57933712808484,40 L 96.61945997347453,40 L 96.64707466965386,40 L 98.13090314969051,40 L 98.16448520072234,40 L 98.20218884819884,40 L 99.67374213882418,40 L 99.70730626987147,40 L 99.7450636773016,40 L 101.22439424121819,40 L 101.25738493276013,40 L 101.29277690223071,40 L 102.77814650093798,40 L 102.82149494354523,40 L 104.36067825583233,40 L 104.40171502043366,40 L 105.8782142267926,40 L 105.91204715760803,40 L 107.43055080773357,40 L 107.45936614287722,40 L 107.5068182619446,40 L 108.96697444240118,40 L 108.99994721395858,40 L 109.03524958350644,40 L 110.51712478522802,40 L 110.55611867159155,40 L 110.59525591783144,40 L 112.06266969202755,40 L 112.09428054475974,40 L 112.13270099161794,40 L 113.60970195754405,40 L 113.6456315265509,40 L 113.69259980603564,40 L 115.15320398610578,40 L 115.19409739083078,40 L 115.2336826366842,40 L 116.70864072437253,40 L 116.74154181599177,40 L 116.77910210359192,40 L 118.25689154883791,40 L 118.29018688011706,40 L 118.32857148700616,40 L 119.80317117500365,40 L 119.84177082170726,40 L 119.88336310582939,40 L 121.35301687809329,40 L 121.38374965158292,40 L 121.42079025963136,40 L 122.90266546135294,40 L 122.93024431756318,40 L 122.96791212507058,40 L 124.4470814091263,40 L 124.4824375386278,40 L 124.52148518494495,40 L 125.99642535264876,40 L 126.03394980027983,40 L 126.073857605855,40 L 127.54886945349696,40 L 127.5760182300782,40 L 127.61485083658084,40 L 129.0958658790444,40 L 129.13244056749474,40 L 129.1650549393613,40 L 130.6394754275134,40 L 130.67294995863796,40 L 130.71149584538796,40 L 132.18507409426653,40 L 132.22568077923884,40 L 132.26282890719455,40 L 133.73680139573307,40 L 133.76744456929998,40 L 133.80185093962075,40 L 135.29123461486546,40 L 135.32863362260474,40 L 135.37072766629404,40 L 136.83828480036652,40 L 136.87168765155292,40 L 136.9050905027393,40 L 138.38307706781526,40 L 138.42017143581734,40 L 138.456656524345,40 L 139.9247512579537,40 L 139.96503538320428,40 L 140.0033841501243,40 L 141.47180144345475,40 L 141.5120676487208,40 L 141.5562583306015,40 L 143.0345674553992,40 L 143.06659046777588,40 L 143.1080035520526,40 L 144.57898340317257,40 L 144.60665185930554,40 L 144.64172126905436,40 L 146.12287967139423,40 L 146.15949019981366,40 L 146.19662040778485,40 L 147.671936895164,40 L 147.70390614758708,40 L 147.7452475519256,40 L 149.21988307989216,40 L 149.25204945214517,40 L 149.2901473392816,40 L 150.76865358390927,40 L 150.80017483671875,40 L 150.8343124072714,40 L 152.3152378498122,72.04030226700252 L 152.34507462407475,72.04030226700252 L 153.8622880353133,72.04030226700252 L 153.89871936388732,72.04030226700252 L 153.9331257342081,72.04030226700252 L 155.41215165838744,72.04030226700252 L 155.4372396367463,72.04030226700252 L 155.4799429599101,72.04030226700252 L 156.96884279557213,72.04030226700252 L 157.006689802925,72.04030226700252 L 158.50956722652984,72.04030226700252 L 158.5489911925224,72.04030226700252 L 158.60045738812718,72.04030226700252 L 160.06016556897023,72.04030226700252 L 160.0987472956893,72.04030226700252 L 160.12249127520752,72.04030226700252 L 161.61047719165794,72.04030226700252 L 161.64635300071117,72.04030226700252 L 161.68418208807947,72.04030226700252 L 163.1596956952886,72.04030226700252 L 163.19388702579485,72.04030226700252 L 163.23264795235934,72.04030226700252 L 164.70631580116066,72.04030226700252 L 164.7370485746503,72.04030226700252 L 164.77568406132298,72.04030226700252 L 166.25445910571875,72.04030226700252 L 166.28696595767806,72.04030226700252 L 166.31889937013204,72.04030226700252 L 167.80220817061698,72.04030226700252 L 167.83933837858814,72.04030226700252 L 167.88041098315853,72.04030226700252 L 169.35357707239265,72.04030226700252 L 169.39000840096668,72.04030226700252 L 169.4345395625537,72.04030226700252 L 170.8924557449425,72.04030226700252 L 170.9298009927282,72.04030226700252 L 170.972737275691,72.04030226700252 L 172.44787456322473,72.04030226700252 L 172.4835174124789,72.04030226700252 L 172.52025338079014,72.04030226700252 L 173.99707514687086,72.04030226700252 L 174.03881079086932,72.04030226700252 L 174.08300147275006,72.04030226700252 L 175.54591733082611,72.04030226700252 L 175.58358513833352,72.04030226700252 L 175.62997997831295,72.04030226700252 L 177.09130095776473,72.04030226700252 L 177.13074284374184,72.04030226700252 L 177.1671920923004,72.04030226700252 L 178.6459312967271,72.04030226700252 L 178.68189670570302,72.04030226700252 L 180.1976406782091,72.04030226700252 L 180.23055968981288,72.04030226700252 L 181.74001374774465,72.04030226700252 L 181.77726939560762,72.04030226700252 L 181.82151383744198,72.04030226700252 L 183.2862933739104,72.04030226700252 L 183.33333333333334,72.04030226700252" stroke="#f59e0b" stroke-width="4" fill="none" opacity="0.4" stroke-dasharray="14550" stroke-dashoffset="14550">
      <animate attributeName="stroke-dashoffset" values="14550;0" dur="3s" begin="3.5999999999999996s" fill="freeze"/>
    </path>
    
    <!-- Animated circle that moves along the path and draws the line -->
    <circle r="5" fill="#f59e0b" opacity="0" filter="url(#trailGlow)">
      <animate attributeName="opacity" values="0;1;1;1" dur="3.2s" begin="3.4s" fill="freeze"/>
      <animate attributeName="r" values="5;6;5" dur="1s" begin="3.4s" repeatCount="3"/>
      <animateMotion dur="3s" begin="3.4s" fill="freeze">
        <mpath href="#path_totalContributions_526.6666666666667"/>
      </animateMotion>
    </circle>
    
    <!-- Small trail dots that fade out -->
    <circle r="2" fill="#f59e0b" opacity="0">
      <animate attributeName="opacity" values="0;0.6;0" dur="0.8s" begin="3.8s" fill="freeze"/>
      <animateMotion dur="3s" begin="3.4s" fill="freeze">
        <mpath href="#path_totalContributions_526.6666666666667"/>
      </animateMotion>
    </circle>
    
    <!-- Hidden path for motion animation -->
    <path id="path_totalContributions_526.6666666666667" d="M 30,160 L 30.02566141786424,160 L 30.057684430240908,160 L 31.54968442322874,160 L 31.577675439083446,160 L 31.610128531089128,160 L 33.09408245101757,160 L 33.131696498571365,160 L 33.15346927978998,160 L 34.64260207525108,160 L 34.67190124997735,160 L 34.701057064827296,160 L 36.18674922325632,160 L 36.219076875370206,160 L 36.246100212059645,160 L 37.32638856019352,160 L 37.741648361986805,160 L 37.77377889427073,160 L 37.80762974507069,160 L 39.28975582657584,160 L 39.317854362337805,160 L 39.350755453957035,160 L 40.836142972648844,160 L 40.8578082339602,160 L 40.894149962611515,160 L 42.38650835529019,160 L 42.4135675319487,160 L 42.44503502480457,160 L 43.934884619647356,160 L 43.96737355162212,160 L 44.0008480827467,160 L 45.4812896857049,160 L 45.50895814183785,160 L 45.54538947041186,160 L 47.033895066414,160 L 47.0574956860559,160 L 47.08656190098313,160 L 48.58087357197688,160 L 48.61438394307055,160 L 48.6457618360037,160 L 50.12826423718424,160 L 50.15842357116854,160 L 50.19229234195304,160 L 51.67436466350457,160 L 51.7037713581381,160 L 51.73692332954092,160 L 53.2258769251566,160 L 53.253366181444136,160 L 53.281482637190635,160 L 54.77240743110594,160 L 54.80020132713068,160 L 54.83360417831709,160 L 56.31178786322299,160 L 56.348595511472396,160 L 56.379471644838375,160 L 57.86815644068592,160 L 57.88989338193545,160 L 57.928976868221696,160 L 59.41828886352822,160 L 59.450956995348406,160 L 59.48538128565371,160 L 60.96877968606135,160 L 60.99867022027752,160 L 61.03033483296335,160 L 62.50789131841027,160 L 62.5403623304005,160 L 62.572743742468006,160 L 64.06096261871747,160 L 64.0913549125008,160 L 64.12608384254332,160 L 65.60973312273455,160 L 65.63770621860473,160 L 65.66858235197071,160 L 67.15914874619517,160 L 67.17907576900595,160 L 67.22799732680579,160 L 68.70480117290194,160 L 68.73496050688624,160 L 68.76470768122607,160 L 70.25595503486315,160 L 70.29020012532303,160 L 70.32136297844167,160 L 71.80348905994683,160 L 71.83364839393113,160 L 71.86841316394273,160 L 73.34966116620532,160 L 73.3793008206379,160 L 73.40630623734279,160 L 74.9002953486148,160 L 74.93092060219718,160 L 74.96245977499122,160 L 76.4532412090302,160 L 76.48205654417384,160 L 76.51047763965755,160 L 77.99572179847303,160 L 78.02652625190083,40 L 78.05862094421568,40 L 79.54979661791458,40 L 79.57117515947326,40 L 79.60065353404495,40 L 81.09421256568795,40 L 81.11811782506706,40 L 81.16053442847813,40 L 82.64434498853024,40 L 82.67583040137065,40 L 82.70348093751906,40 L 84.18635965837498,40 L 84.22085562861847,40 L 84.25463479948024,40 L 85.74417975458582,40 L 85.75944758141566,40 L 85.80082482572328,40 L 87.28936626169451,40 L 87.3219985535456,40 L 87.35885996174864,40 L 88.83777836602076,40 L 88.86852905949493,40 L 88.90793510550293,40 L 90.38368167251112,40 L 90.41638564430039,40 L 90.45453729139044,40 L 91.94055200954122,40 L 91.97698333811525,40 L 93.48288923910772,40 L 93.55949717302505,40 L 95.03142678332577,40 L 95.06950675047766,40 L 95.105651359299,40 L 96.57933712808484,40 L 96.61945997347453,40 L 96.64707466965386,40 L 98.13090314969051,40 L 98.16448520072234,40 L 98.20218884819884,40 L 99.67374213882418,40 L 99.70730626987147,40 L 99.7450636773016,40 L 101.22439424121819,40 L 101.25738493276013,40 L 101.29277690223071,40 L 102.77814650093798,40 L 102.82149494354523,40 L 104.36067825583233,40 L 104.40171502043366,40 L 105.8782142267926,40 L 105.91204715760803,40 L 107.43055080773357,40 L 107.45936614287722,40 L 107.5068182619446,40 L 108.96697444240118,40 L 108.99994721395858,40 L 109.03524958350644,40 L 110.51712478522802,40 L 110.55611867159155,40 L 110.59525591783144,40 L 112.06266969202755,40 L 112.09428054475974,40 L 112.13270099161794,40 L 113.60970195754405,40 L 113.6456315265509,40 L 113.69259980603564,40 L 115.15320398610578,40 L 115.19409739083078,40 L 115.2336826366842,40 L 116.70864072437253,40 L 116.74154181599177,40 L 116.77910210359192,40 L 118.25689154883791,40 L 118.29018688011706,40 L 118.32857148700616,40 L 119.80317117500365,40 L 119.84177082170726,40 L 119.88336310582939,40 L 121.35301687809329,40 L 121.38374965158292,40 L 121.42079025963136,40 L 122.90266546135294,40 L 122.93024431756318,40 L 122.96791212507058,40 L 124.4470814091263,40 L 124.4824375386278,40 L 124.52148518494495,40 L 125.99642535264876,40 L 126.03394980027983,40 L 126.073857605855,40 L 127.54886945349696,40 L 127.5760182300782,40 L 127.61485083658084,40 L 129.0958658790444,40 L 129.13244056749474,40 L 129.1650549393613,40 L 130.6394754275134,40 L 130.67294995863796,40 L 130.71149584538796,40 L 132.18507409426653,40 L 132.22568077923884,40 L 132.26282890719455,40 L 133.73680139573307,40 L 133.76744456929998,40 L 133.80185093962075,40 L 135.29123461486546,40 L 135.32863362260474,40 L 135.37072766629404,40 L 136.83828480036652,40 L 136.87168765155292,40 L 136.9050905027393,40 L 138.38307706781526,40 L 138.42017143581734,40 L 138.456656524345,40 L 139.9247512579537,40 L 139.96503538320428,40 L 140.0033841501243,40 L 141.47180144345475,40 L 141.5120676487208,40 L 141.5562583306015,40 L 143.0345674553992,40 L 143.06659046777588,40 L 143.1080035520526,40 L 144.57898340317257,40 L 144.60665185930554,40 L 144.64172126905436,40 L 146.12287967139423,40 L 146.15949019981366,40 L 146.19662040778485,40 L 147.671936895164,40 L 147.70390614758708,40 L 147.7452475519256,40 L 149.21988307989216,40 L 149.25204945214517,40 L 149.2901473392816,40 L 150.76865358390927,40 L 150.80017483671875,40 L 150.8343124072714,40 L 152.3152378498122,72.04030226700252 L 152.34507462407475,72.04030226700252 L 153.8622880353133,72.04030226700252 L 153.89871936388732,72.04030226700252 L 153.9331257342081,72.04030226700252 L 155.41215165838744,72.04030226700252 L 155.4372396367463,72.04030226700252 L 155.4799429599101,72.04030226700252 L 156.96884279557213,72.04030226700252 L 157.006689802925,72.04030226700252 L 158.50956722652984,72.04030226700252 L 158.5489911925224,72.04030226700252 L 158.60045738812718,72.04030226700252 L 160.06016556897023,72.04030226700252 L 160.0987472956893,72.04030226700252 L 160.12249127520752,72.04030226700252 L 161.61047719165794,72.04030226700252 L 161.64635300071117,72.04030226700252 L 161.68418208807947,72.04030226700252 L 163.1596956952886,72.04030226700252 L 163.19388702579485,72.04030226700252 L 163.23264795235934,72.04030226700252 L 164.70631580116066,72.04030226700252 L 164.7370485746503,72.04030226700252 L 164.77568406132298,72.04030226700252 L 166.25445910571875,72.04030226700252 L 166.28696595767806,72.04030226700252 L 166.31889937013204,72.04030226700252 L 167.80220817061698,72.04030226700252 L 167.83933837858814,72.04030226700252 L 167.88041098315853,72.04030226700252 L 169.35357707239265,72.04030226700252 L 169.39000840096668,72.04030226700252 L 169.4345395625537,72.04030226700252 L 170.8924557449425,72.04030226700252 L 170.9298009927282,72.04030226700252 L 170.972737275691,72.04030226700252 L 172.44787456322473,72.04030226700252 L 172.4835174124789,72.04030226700252 L 172.52025338079014,72.04030226700252 L 173.99707514687086,72.04030226700252 L 174.03881079086932,72.04030226700252 L 174.08300147275006,72.04030226700252 L 175.54591733082611,72.04030226700252 L 175.58358513833352,72.04030226700252 L 175.62997997831295,72.04030226700252 L 177.09130095776473,72.04030226700252 L 177.13074284374184,72.04030226700252 L 177.1671920923004,72.04030226700252 L 178.6459312967271,72.04030226700252 L 178.68189670570302,72.04030226700252 L 180.1976406782091,72.04030226700252 L 180.23055968981288,72.04030226700252 L 181.74001374774465,72.04030226700252 L 181.77726939560762,72.04030226700252 L 181.82151383744198,72.04030226700252 L 183.2862933739104,72.04030226700252 L 183.33333333333334,72.04030226700252" fill="none" stroke="none"/>
  </g>
  
  <!-- Footer -->
  <text x="400" y="580" text-anchor="middle" fill="#94a3b8" font-size="12" font-family="Arial, sans-serif">
    Generated by GitHub User Rank Tracker • 4/1/2026
    <animate attributeName="opacity" values="0;1" dur="0.5s" begin="5s" fill="freeze"/>
  </text>
</svg>